<?xml version="1.0" standalone="no"?>
<!DOCTYPE svg PUBLIC "-//W3C//DTD SVG 20010904//EN"
 "http://www.w3.org/TR/2001/REC-SVG-20010904/DTD/svg10.dtd">
<svg version="1.0" xmlns="http://www.w3.org/2000/svg"
 width="1618.000000pt" height="1214.000000pt" viewBox="0 0 1618.000000 1214.000000"
 preserveAspectRatio="xMidYMid meet">

<g transform="translate(0.000000,1214.000000) scale(0.100000,-0.100000)"
fill="#000000" stroke="none">
<path d="M12937 11713 c-2 -5 -7 -21 -11 -38 -4 -16 -17 -53 -29 -82 -20 -48
-25 -52 -64 -58 -60 -9 -117 -54 -138 -109 -20 -51 -15 -86 16 -117 l20 -20
-37 -62 c-44 -75 -56 -127 -28 -125 13 1 19 10 20 29 1 14 18 54 38 88 30 48
43 61 62 61 36 0 117 44 148 80 14 17 26 44 26 59 0 28 -35 71 -58 71 -18 0
-15 15 17 78 16 31 32 72 36 90 3 17 10 32 15 32 4 0 10 7 14 15 4 11 -1 15
-19 15 -13 0 -26 -3 -28 -7z m-107 -246 c0 -3 -18 -37 -41 -76 -33 -57 -44
-69 -55 -60 -24 20 -26 49 -5 92 25 51 68 82 88 62 7 -8 13 -16 13 -18z m88
-20 c33 -26 -3 -83 -74 -116 -25 -12 -50 -21 -55 -19 -5 2 11 38 36 80 46 79
55 84 93 55z"/>
<path d="M13111 11678 c-5 -14 -14 -43 -20 -65 -6 -21 -40 -94 -76 -160 -65
-123 -78 -163 -50 -163 8 0 15 8 15 18 0 9 14 42 31 72 94 165 142 291 121
312 -8 8 -14 4 -21 -14z"/>
<path d="M13983 11643 c-19 -80 -31 -103 -53 -103 -11 0 -19 6 -17 13 5 25
-49 19 -83 -10 -74 -62 -80 -174 -13 -219 24 -15 24 -16 7 -42 -67 -102 -93
-182 -59 -182 8 0 15 9 15 20 0 23 27 81 69 147 21 35 32 43 56 43 42 1 110
34 130 63 40 61 25 139 -29 153 l-24 6 17 51 c32 93 34 107 14 107 -13 0 -21
-13 -30 -47z m-94 -127 c7 -8 21 -12 31 -9 19 5 19 4 4 -33 -29 -71 -64 -134
-73 -134 -5 0 -19 12 -30 26 -33 41 -26 97 17 147 18 21 36 22 51 3z m126 -33
c34 -33 0 -103 -62 -129 -62 -27 -64 -20 -22 66 40 82 55 93 84 63z"/>
<path d="M15050 11642 c-11 -43 -58 -111 -77 -112 -20 0 -107 -50 -135 -77
-33 -31 -44 -80 -29 -124 9 -27 7 -37 -15 -75 -17 -28 -24 -54 -22 -76 4 -42
21 -39 29 4 3 18 13 47 21 63 15 28 20 30 70 30 43 0 65 6 104 30 98 61 122
149 54 206 -27 23 -29 27 -15 39 21 17 41 56 50 98 10 49 -21 43 -35 -6z m-20
-152 c27 -14 34 -62 16 -99 -26 -49 -133 -103 -165 -82 -10 7 -2 25 37 84 49
72 78 107 88 107 3 0 14 -4 24 -10z m-120 -57 c-16 -27 -39 -59 -49 -73 -18
-22 -20 -23 -27 -7 -10 27 16 76 55 103 51 34 55 30 21 -23z"/>
<path d="M15502 11607 c-19 -7 -41 -25 -50 -40 -19 -31 -21 -28 50 -78 l22
-16 -44 -20 c-69 -31 -90 -56 -90 -107 0 -29 7 -52 21 -70 18 -23 27 -26 84
-26 62 0 63 1 74 31 13 36 13 124 2 154 -6 13 -2 33 10 57 44 87 4 144 -79
115z m55 -43 c23 -22 2 -69 -24 -55 -48 26 -58 38 -44 55 17 20 48 21 68 0z
m-12 -164 c4 -22 4 -58 0 -80 -7 -39 -7 -40 -50 -40 -53 0 -75 19 -75 64 0 37
18 58 70 80 48 21 47 21 55 -24z"/>
<path d="M13596 11593 c-45 -15 -76 -40 -76 -60 0 -19 21 -16 46 8 24 22 87
32 92 14 2 -5 -23 -25 -55 -42 -64 -36 -72 -53 -29 -64 70 -19 86 -76 38 -131
-25 -27 -36 -31 -76 -31 -30 0 -53 6 -64 16 -10 11 -12 17 -4 17 7 0 12 7 12
16 0 28 -45 13 -48 -17 -4 -37 38 -63 105 -63 46 0 57 4 88 34 63 61 65 131 6
166 l-30 17 45 29 c49 31 62 52 47 76 -15 24 -54 30 -97 15z"/>
<path d="M14640 11565 c-30 -12 -56 -27 -58 -33 -7 -22 18 -20 77 5 50 21 64
24 74 14 10 -10 -5 -29 -73 -92 -46 -44 -108 -94 -137 -111 -29 -18 -55 -38
-58 -47 -13 -33 14 -29 69 9 32 23 65 40 74 38 9 -2 20 -18 24 -35 5 -18 19
-40 33 -49 28 -18 67 -15 72 6 4 13 3 13 -6 0 -6 -8 -11 -10 -11 -5 0 6 -10
15 -22 20 -12 6 -24 17 -28 25 -4 8 -14 30 -23 47 l-16 33 50 42 c27 24 62 60
76 82 l27 38 -23 19 c-29 24 -53 23 -121 -6z"/>
<path d="M15303 11543 c-11 -21 -43 -82 -71 -135 -53 -99 -62 -128 -39 -128 7
0 25 29 41 64 15 36 47 97 72 138 24 40 44 79 44 86 0 26 -29 10 -47 -25z"/>
<path d="M13097 11354 c-14 -14 -7 -35 11 -32 9 2 17 10 17 17 0 16 -18 25
-28 15z"/>
<path d="M11559 11348 c-1 -2 -3 -12 -4 -24 -1 -11 -20 -47 -42 -80 -22 -32
-55 -85 -73 -117 -33 -59 -42 -64 -115 -69 -27 -2 -40 -8 -40 -18 0 -11 12
-13 52 -11 l52 2 -20 -50 c-26 -70 -25 -106 6 -137 21 -21 33 -25 73 -22 34 2
47 7 47 18 0 11 -10 14 -41 12 -77 -6 -91 39 -45 142 20 46 20 46 70 46 39 0
51 4 51 15 0 10 -10 15 -33 15 -19 0 -37 3 -40 7 -8 7 28 72 90 161 48 71 58
104 31 110 -10 2 -19 2 -19 0z"/>
<path d="M14093 11320 c-24 -10 -31 -34 -13 -45 14 -9 50 18 50 37 0 20 -5 21
-37 8z"/>
<path d="M9888 11206 c-18 -16 -23 -27 -16 -34 12 -12 -86 -262 -107 -275 -15
-8 -6 -58 11 -64 5 -2 20 27 33 64 13 38 48 123 77 190 30 67 54 127 54 132 0
18 -23 12 -52 -13z"/>
<path d="M3845 11191 c-3 -5 0 -13 6 -16 18 -12 -2 -115 -45 -230 -8 -22 -15
-48 -16 -57 0 -27 24 -21 42 10 26 43 81 91 108 94 21 3 26 -2 28 -25 2 -15
-4 -50 -13 -78 -16 -47 -15 -79 2 -79 11 0 43 113 43 153 0 37 -25 67 -56 67
-11 0 -35 -11 -55 -24 l-35 -24 18 67 c18 71 22 110 12 135 -7 18 -29 21 -39
7z"/>
<path d="M3645 11177 c-12 -9 -14 -16 -7 -21 7 -4 -2 -27 -25 -67 l-36 -60
-61 2 c-47 2 -61 0 -61 -12 0 -10 15 -15 55 -17 l55 -3 1 -63 c2 -95 29 -136
90 -136 17 0 22 4 18 15 -4 8 -15 15 -25 15 -35 0 -55 56 -50 143 1 24 5 27
39 27 53 0 82 10 82 28 0 12 -9 14 -50 9 -27 -3 -50 -4 -50 -2 0 2 15 33 34
67 41 76 37 108 -9 75z"/>
<path d="M9290 11063 c-18 -54 -34 -99 -36 -101 -1 -2 -11 1 -22 7 -25 13 -66
0 -99 -31 -47 -44 -14 -128 50 -128 40 0 71 50 122 198 50 146 51 152 32 152
-8 0 -27 -39 -47 -97z m-51 -150 c-24 -65 -59 -89 -87 -61 -35 35 6 90 64 85
28 -2 31 -4 23 -24z"/>
<path d="M10009 11109 c-16 -32 4 -47 25 -18 20 29 20 39 1 39 -8 0 -19 -9
-26 -21z"/>
<path d="M2585 11064 c-42 -28 -65 -52 -65 -67 0 -5 23 -30 50 -57 55 -53 62
-80 28 -104 -30 -22 -54 -20 -77 5 -22 23 -43 18 -34 -9 16 -45 76 -55 131
-22 30 19 38 37 33 80 -1 8 -22 34 -46 58 -25 24 -45 48 -45 53 0 5 23 24 50
41 28 17 50 35 50 39 0 17 -36 9 -75 -17z"/>
<path d="M2275 11028 c-16 -35 -127 -156 -160 -174 -15 -9 -17 -15 -9 -24 16
-17 40 -2 98 60 l49 52 -7 -37 c-8 -41 13 -85 40 -85 9 0 40 26 70 57 l55 57
-6 -51 c-6 -42 -5 -51 11 -57 23 -9 41 9 26 27 -8 9 -6 33 9 90 29 113 12 130
-45 44 -45 -67 -104 -129 -119 -124 -16 5 -10 55 14 124 10 30 16 59 13 64
-10 17 -23 9 -39 -23z"/>
<path d="M2768 11027 c-20 -19 -40 -45 -43 -59 -4 -15 -15 -28 -26 -31 -22 -6
-26 -27 -4 -27 11 0 15 -11 15 -39 0 -23 8 -48 19 -62 16 -20 28 -24 78 -24
80 0 133 13 133 31 0 12 -8 13 -36 8 -19 -3 -60 -7 -90 -8 -61 -1 -74 9 -74
60 0 26 5 33 25 38 41 10 95 64 95 95 0 58 -40 66 -92 18z m62 -20 c0 -16 -24
-39 -57 -56 -31 -16 -29 0 3 38 27 32 54 41 54 18z"/>
<path d="M1781 11036 c-7 -8 -11 -27 -9 -43 2 -22 8 -28 28 -28 28 0 54 42 44
69 -8 20 -47 21 -63 2z"/>
<path d="M4173 11029 c-44 -22 -110 -103 -92 -114 5 -4 9 -18 9 -31 0 -40 51
-84 97 -84 21 1 47 6 58 13 45 26 85 61 85 74 0 18 -37 16 -44 -2 -8 -22 -67
-55 -98 -55 -30 0 -68 34 -68 62 0 13 8 18 31 18 42 0 99 56 99 98 0 24 -14
42 -33 42 -1 0 -21 -9 -44 -21z m47 -29 c0 -19 -48 -60 -70 -60 -28 0 -25 14
11 44 31 27 59 34 59 16z"/>
<path d="M5379 11016 c-43 -29 -64 -75 -62 -134 3 -76 42 -112 121 -112 47 0
114 31 135 61 22 30 10 45 -17 21 -52 -48 -123 -65 -169 -41 -32 17 -37 28
-37 83 0 41 5 53 34 82 35 35 70 46 60 19 -4 -8 -1 -15 5 -15 6 0 11 -9 11
-19 0 -26 17 -36 35 -21 21 17 19 64 -3 83 -26 24 -72 21 -113 -7z"/>
<path d="M7441 11033 c-35 -7 -111 -87 -113 -120 -3 -54 2 -68 36 -100 35 -33
101 -57 139 -51 35 5 22 22 -22 30 -117 20 -157 94 -91 165 32 34 70 50 90 38
5 -3 13 1 17 10 5 15 -13 37 -27 33 -3 0 -16 -3 -29 -5z"/>
<path d="M6280 10993 c-46 -17 -94 -97 -84 -139 9 -34 47 -58 80 -50 15 4 39
20 55 36 33 33 37 68 14 124 -15 35 -30 42 -65 29z m47 -69 c10 -27 -7 -64
-38 -80 -28 -14 -32 -14 -50 1 -17 16 -17 20 -3 54 19 47 41 63 66 50 10 -6
22 -17 25 -25z"/>
<path d="M10324 10971 c-51 -36 -74 -72 -74 -114 0 -56 28 -72 119 -70 58 2
79 7 88 20 7 9 11 18 10 19 -2 2 -32 -1 -68 -7 -86 -13 -119 -2 -119 41 0 26
4 30 28 30 32 0 132 55 132 73 0 44 -62 48 -116 8z m41 -26 c-38 -24 -55 -30
-55 -21 0 8 66 46 80 46 8 -1 -3 -12 -25 -25z"/>
<path d="M6450 10970 c-17 -31 -48 -139 -42 -145 12 -11 22 -4 38 28 20 40 83
107 101 107 21 0 15 -47 -12 -101 -14 -27 -23 -54 -20 -59 11 -18 33 -10 38
13 3 12 14 45 25 73 17 42 19 55 9 75 -15 30 -50 36 -83 15 -21 -15 -24 -15
-24 -1 0 21 -17 19 -30 -5z"/>
<path d="M7657 10966 c-60 -56 -39 -116 40 -116 33 0 50 6 68 25 72 71 -34
160 -108 91z m93 -22 c30 -30 -16 -70 -71 -62 -30 4 -33 20 -10 49 20 27 61
33 81 13z"/>
<path d="M9930 10931 c-30 -61 -38 -101 -20 -101 13 0 62 109 54 121 -3 5 0 8
8 7 16 -4 17 24 1 29 -7 3 -26 -22 -43 -56z"/>
<path d="M10067 10955 c-45 -34 -67 -62 -67 -84 0 -24 27 -8 68 39 33 38 50
50 72 50 15 0 30 -6 33 -12 2 -7 -6 -42 -20 -77 -16 -44 -20 -68 -13 -75 14
-14 23 -1 49 77 22 63 22 69 7 92 -25 37 -72 34 -129 -10z"/>
<path d="M7944 10964 c-3 -11 -16 -43 -30 -72 -29 -63 -29 -62 -4 -62 10 0 36
20 57 45 40 48 81 80 90 71 3 -3 -6 -26 -21 -52 -25 -45 -26 -64 -4 -64 5 0
33 20 60 45 28 25 56 45 64 45 10 0 12 -11 7 -45 -5 -37 -3 -45 10 -45 10 0
18 13 22 40 13 77 -20 105 -77 66 l-33 -22 0 30 c0 44 -40 47 -86 9 -22 -19
-31 -22 -27 -11 4 9 1 22 -7 28 -12 10 -16 9 -21 -6z"/>
<path d="M8339 10950 c-23 -17 -28 -18 -33 -5 -10 28 -25 15 -40 -32 -8 -27
-17 -56 -21 -65 -16 -39 31 -16 81 40 29 31 55 54 58 51 4 -4 0 -26 -8 -50
-31 -88 -11 -92 63 -14 l52 54 20 -20 c15 -15 19 -27 14 -42 -17 -54 -17 -67
-3 -67 15 0 38 53 38 86 0 11 -7 30 -16 42 -22 32 -62 28 -100 -9 l-31 -30 1
38 c1 34 -2 38 -24 40 -14 2 -37 -6 -51 -17z"/>
<path d="M4995 10950 c-10 -17 1 -23 48 -27 23 -2 62 -8 86 -14 47 -11 57 -8
48 14 -3 8 -26 17 -54 21 -26 4 -64 9 -84 12 -23 3 -40 1 -44 -6z"/>
<path d="M8925 10951 c-3 -6 -16 -11 -28 -11 -16 0 -29 -13 -46 -44 -26 -50
-21 -78 10 -50 10 9 19 22 19 28 0 12 63 56 80 56 13 0 13 -36 0 -61 -6 -10
-17 -19 -25 -19 -8 0 -15 -4 -15 -8 0 -12 23 -32 37 -32 19 0 44 69 41 110 -3
31 -6 35 -35 38 -17 2 -34 -2 -38 -7z"/>
<path d="M8656 10915 c-40 -39 -44 -56 -20 -79 19 -20 27 -20 64 -1 28 15 30
14 30 -4 0 -27 27 -48 43 -32 9 9 9 14 -2 20 -14 9 -12 42 4 84 10 24 -17 22
-41 -4 -24 -27 -71 -51 -78 -40 -8 13 43 56 67 56 32 0 28 29 -5 33 -19 2 -36
-6 -62 -33z"/>
<path d="M11594 10923 c-35 -37 -31 -92 8 -111 22 -10 33 -10 62 2 64 27 73
92 16 121 -41 21 -57 19 -86 -12z m91 -34 c11 -18 -27 -50 -54 -47 -35 4 -40
40 -10 62 22 15 50 9 64 -15z"/>
<path d="M13902 10800 c-6 -16 -25 -50 -42 -75 -17 -25 -38 -61 -45 -79 -12
-28 -21 -35 -47 -38 -39 -4 -51 -28 -14 -28 25 0 26 -2 20 -40 -9 -56 2 -88
39 -110 35 -22 97 -26 128 -10 36 20 21 30 -33 24 -45 -5 -57 -3 -80 16 -30
23 -35 51 -18 96 11 27 11 27 90 21 47 -3 82 -1 86 5 10 16 -4 21 -78 25 -39
2 -73 5 -75 6 -2 2 22 45 53 96 50 83 61 121 35 121 -5 0 -14 -13 -19 -30z"/>
<path d="M7523 10735 c-28 -19 -85 -122 -107 -192 -17 -51 -18 -52 -59 -55
-50 -4 -56 -22 -9 -26 30 -3 33 -6 27 -25 -16 -52 -17 -74 -1 -80 17 -7 31 7
22 22 -3 5 0 24 8 42 13 31 20 35 72 44 33 6 59 16 62 24 4 11 -6 13 -52 8
-55 -5 -57 -5 -51 16 12 42 88 187 99 188 6 1 17 0 25 -1 19 -2 32 22 19 37
-14 17 -29 16 -55 -2z"/>
<path d="M13034 10733 c-4 -10 -33 -83 -66 -162 -33 -79 -60 -155 -61 -169 -3
-40 19 -36 31 5 5 21 33 92 62 158 58 136 71 171 62 179 -10 11 -23 6 -28 -11z"/>
<path d="M5676 10704 c-3 -9 -3 -20 0 -26 12 -19 -7 -118 -22 -118 -8 0 -14
-8 -14 -17 0 -15 -1 -15 -13 2 -8 10 -19 15 -26 11 -22 -14 9 -38 39 -31 l28
6 -6 -90 c-4 -80 -3 -91 12 -91 13 0 16 10 16 49 0 26 3 69 6 94 l7 47 48 6
c55 7 100 32 64 35 -28 2 -26 2 -70 -4 l-40 -6 3 74 c4 62 2 75 -11 75 -8 0
-18 -7 -21 -16z"/>
<path d="M11117 10713 c-4 -3 -7 -20 -7 -36 0 -50 -30 -150 -55 -183 -26 -34
-110 -94 -132 -94 -8 0 -13 12 -13 31 0 37 65 109 99 109 12 0 21 6 21 15 0 8
-9 15 -20 15 -94 0 -186 -176 -104 -196 37 -9 82 14 144 75 50 50 58 63 73
127 9 40 17 81 17 93 0 12 5 21 10 21 6 0 10 7 10 15 0 15 -31 21 -43 8z"/>
<path d="M14144 10689 c-8 -13 13 -29 39 -29 20 0 22 11 5 28 -15 15 -35 15
-44 1z"/>
<path d="M3672 10667 c-9 -11 -19 -43 -37 -129 -5 -24 -10 -28 -40 -28 -24 0
-35 -5 -35 -15 0 -10 11 -15 35 -15 30 0 35 -3 35 -22 0 -30 33 -83 64 -103
31 -21 121 -17 121 5 0 11 -10 14 -42 12 -51 -4 -78 9 -98 48 -26 49 -20 60
29 60 49 0 76 7 76 21 0 5 -26 9 -59 9 l-58 0 8 51 c5 28 14 61 22 73 22 33 4
63 -21 33z"/>
<path d="M13154 10649 c-3 -6 -2 -15 4 -21 13 -13 32 -2 32 18 0 16 -26 19
-36 3z"/>
<path d="M2863 10614 c-3 -9 -7 -64 -7 -122 -1 -93 1 -107 16 -110 15 -3 16 4
11 65 -3 37 -1 85 5 105 11 39 6 78 -9 78 -6 0 -12 -7 -16 -16z"/>
<path d="M10493 10586 c-48 -26 -63 -30 -67 -19 -5 11 -9 11 -26 1 -11 -7 -20
-20 -20 -29 0 -8 -20 -39 -45 -68 -42 -50 -56 -81 -36 -81 5 0 38 29 73 63 64
65 124 108 167 122 24 7 24 7 -6 -31 -75 -95 -88 -137 -53 -169 16 -15 23 -16
33 -6 9 10 8 15 -7 26 -23 17 -19 27 45 121 75 108 56 131 -58 70z"/>
<path d="M14661 10599 c-18 -11 -44 -33 -58 -50 -32 -38 -44 -37 -32 3 5 19 5
36 0 41 -14 14 -31 -1 -31 -26 0 -12 -11 -42 -25 -66 -14 -23 -25 -47 -25 -52
0 -23 38 -4 97 49 36 31 74 64 85 72 20 14 21 14 4 -17 -20 -39 -21 -87 -2
-102 21 -18 77 -24 108 -12 25 9 27 13 16 36 -13 30 -38 33 -38 5 0 -13 -7
-20 -19 -20 -55 0 -64 26 -31 90 36 71 18 90 -49 49z"/>
<path d="M9424 10591 c-18 -11 -35 -24 -39 -31 -4 -6 -15 -8 -25 -5 -14 4 -19
-2 -24 -33 -3 -21 -15 -60 -27 -86 -16 -38 -18 -51 -9 -60 8 -7 14 -7 17 -1 2
6 23 46 46 90 30 56 52 85 75 99 32 18 36 18 68 2 42 -20 54 -20 54 -2 0 13
-66 46 -93 46 -6 0 -26 -9 -43 -19z"/>
<path d="M12718 10577 c-46 -28 -54 -31 -50 -15 3 13 -1 18 -17 18 -16 0 -21
-6 -21 -27 0 -16 -17 -64 -39 -108 -81 -167 -95 -205 -84 -216 14 -14 66 54
83 107 9 28 17 34 39 34 34 0 107 46 145 91 36 42 70 115 62 135 -9 24 -59 16
-118 -19z m82 -10 c0 -45 -123 -167 -169 -167 -13 0 14 78 37 103 17 19 110
77 125 77 4 0 7 -6 7 -13z"/>
<path d="M12471 10569 c-25 -15 -31 -23 -22 -32 9 -9 16 -9 31 1 52 32 53 -1
3 -50 -41 -38 -81 -63 -90 -54 -3 3 9 22 26 43 35 43 39 56 14 51 -10 -1 -24
1 -30 5 -7 5 -17 5 -23 2 -12 -7 -13 -41 -2 -48 4 -2 1 -2 -5 -1 -7 2 -13 -3
-13 -11 0 -9 -9 -23 -19 -32 -11 -9 -17 -21 -15 -28 3 -6 -18 -58 -45 -115
-27 -57 -48 -107 -45 -112 13 -20 28 -1 75 96 45 94 54 106 82 112 40 8 85 39
124 84 37 43 49 76 33 95 -17 20 -39 19 -79 -6z"/>
<path d="M2183 10567 c-36 -20 -65 -66 -70 -110 -9 -75 48 -117 135 -102 39 7
80 31 70 41 -4 3 -31 1 -62 -6 -65 -13 -109 1 -114 37 -3 18 4 24 36 32 46 13
92 52 92 79 0 39 -43 54 -87 29z m47 -31 c0 -19 -39 -46 -65 -46 -17 1 -16 4
13 30 36 33 52 38 52 16z"/>
<path d="M2517 10573 c-4 -3 -7 -28 -7 -55 0 -50 -22 -118 -38 -118 -15 0 -39
42 -51 87 -6 23 -19 44 -28 47 -23 9 -28 0 -15 -27 6 -12 16 -38 22 -58 6 -20
23 -48 39 -63 24 -23 33 -26 49 -17 26 14 52 81 52 136 0 24 5 47 10 50 6 4 8
11 5 16 -7 11 -29 12 -38 2z"/>
<path d="M10670 10529 c-44 -56 -49 -77 -22 -107 43 -52 151 -14 167 59 9 41
-18 83 -50 77 -16 -4 -22 -1 -18 9 3 8 -2 13 -16 13 -13 0 -35 -19 -61 -51z
m53 5 c-5 -14 -1 -15 24 -10 36 8 48 -10 33 -49 -15 -39 -101 -63 -113 -31 -3
8 7 35 23 60 30 46 45 60 33 30z"/>
<path d="M11235 10561 c-49 -22 -105 -83 -105 -115 0 -33 35 -73 69 -81 57
-12 211 30 211 58 0 5 -10 6 -22 3 -78 -22 -158 -34 -183 -28 -57 16 -49 76
14 119 40 27 51 29 51 8 0 -15 -49 -45 -75 -45 -8 0 -15 -7 -15 -15 0 -22 42
-18 80 8 39 26 58 70 40 92 -15 19 -16 19 -65 -4z"/>
<path d="M14309 10574 c-21 -6 -76 -74 -90 -110 -15 -42 15 -78 69 -82 35 -3
45 2 81 36 33 31 41 46 41 74 0 57 -49 96 -101 82z m59 -46 c22 -22 13 -58
-20 -89 -66 -60 -131 -14 -77 55 32 41 75 56 97 34z"/>
<path d="M4993 10559 c-49 -9 -93 -35 -93 -55 0 -8 23 -39 50 -69 53 -58 58
-69 38 -82 -25 -15 -85 8 -73 27 8 13 -16 23 -27 12 -17 -17 1 -49 36 -66 45
-21 62 -20 86 4 30 30 25 52 -26 115 -26 32 -43 60 -38 65 5 5 32 13 59 17 32
5 50 13 50 22 0 19 -11 20 -62 10z"/>
<path d="M6135 10559 c-4 -5 4 -32 17 -59 l24 -48 -43 -22 c-24 -12 -43 -28
-43 -36 0 -20 11 -18 60 10 l42 24 56 -39 c52 -37 92 -50 92 -30 0 5 -19 21
-43 34 -68 40 -75 53 -43 78 39 31 18 49 -23 20 l-30 -22 -16 30 c-8 17 -15
39 -15 51 0 21 -24 28 -35 9z"/>
<path d="M8662 10539 c-9 -17 -36 -58 -59 -90 -45 -66 -46 -66 -58 29 -5 33
-11 51 -19 49 -15 -5 -10 -115 7 -141 12 -17 3 -34 -75 -149 -84 -126 -106
-177 -73 -177 8 0 15 8 15 19 0 17 67 123 189 296 53 75 121 183 121 191 0 2
-7 4 -15 4 -9 0 -24 -14 -33 -31z"/>
<path d="M8854 10547 c5 -20 0 -24 -37 -35 -127 -36 -162 -174 -39 -157 81 11
142 56 142 106 0 39 -36 109 -56 109 -12 0 -15 -6 -10 -23z m34 -84 c-5 -47
-122 -103 -151 -74 -27 27 67 101 126 101 25 0 28 -3 25 -27z"/>
<path d="M9022 10498 c-33 -41 -77 -82 -98 -93 -22 -11 -41 -21 -43 -22 -2 -1
-1 -9 3 -18 5 -15 11 -14 49 8 28 17 52 23 72 20 23 -4 43 4 82 31 l52 36 -5
-28 c-4 -19 0 -34 11 -45 21 -21 55 -22 55 -2 0 8 -6 15 -14 15 -28 0 -27 21
3 86 50 106 37 113 -48 26 -50 -53 -117 -100 -127 -90 -2 3 19 31 46 63 28 33
49 64 47 69 -8 25 -30 11 -85 -56z"/>
<path d="M13250 10559 c-14 -6 -42 -26 -62 -47 -68 -65 -39 -142 54 -142 40 0
78 23 58 35 -5 3 -10 2 -10 -3 0 -11 -88 2 -101 15 -32 32 39 113 102 116 19
1 33 5 32 10 -2 4 -3 12 -3 17 0 13 -37 12 -70 -1z"/>
<path d="M13449 10541 c-50 -31 -79 -65 -79 -92 0 -31 58 -39 113 -15 l33 13
-4 -32 c-4 -37 23 -74 41 -56 8 8 7 15 -1 23 -19 19 -14 42 18 87 26 35 28 42
14 48 -9 3 -19 1 -23 -5 -10 -16 -112 -62 -138 -62 -14 0 -20 5 -17 13 8 20
77 68 107 74 15 3 26 11 24 17 -7 21 -42 16 -88 -13z"/>
<path d="M3140 10509 c0 -70 -29 -118 -72 -119 -24 0 -38 31 -38 85 0 39 -3
46 -17 43 -14 -3 -17 -12 -15 -48 6 -93 40 -130 99 -105 42 18 65 56 74 119 7
58 3 76 -17 76 -10 0 -14 -14 -14 -51z"/>
<path d="M3303 10545 c-36 -15 -87 -85 -81 -111 7 -35 35 -41 79 -16 22 13 41
22 42 20 25 -50 36 -64 55 -66 15 -2 22 2 22 12 0 9 -6 16 -13 16 -17 0 -37
42 -37 75 0 33 -15 31 -50 -4 -29 -29 -70 -47 -70 -30 0 4 14 24 31 44 27 30
36 35 60 30 34 -8 40 13 11 31 -14 9 -26 9 -49 -1z"/>
<path d="M12203 10550 c-36 -14 -104 -109 -101 -139 4 -33 41 -40 77 -14 46
34 47 33 43 -9 -3 -31 -1 -39 9 -36 7 2 16 18 20 34 4 16 13 44 22 63 21 50 0
112 -38 110 -5 0 -20 -4 -32 -9z m41 -58 c-15 -23 -103 -86 -111 -78 -10 9 48
86 76 101 31 16 51 3 35 -23z"/>
<path d="M14101 10512 c-11 -22 -22 -55 -23 -73 -4 -40 19 -51 27 -12 4 15 14
45 22 66 12 27 13 41 5 49 -7 7 -16 -1 -31 -30z"/>
<path d="M13056 10481 c-29 -66 -32 -81 -13 -81 14 0 69 118 61 131 -11 19
-22 7 -48 -50z"/>
<path d="M5335 10518 c-4 -11 -23 -88 -42 -165 -9 -39 22 -27 40 16 10 22 35
59 56 82 34 39 40 42 56 29 12 -10 15 -22 10 -44 -17 -84 -17 -96 -3 -96 18 0
42 91 34 125 -8 31 -32 55 -56 55 -10 0 -32 -14 -49 -30 l-30 -30 9 29 c4 16
6 32 2 35 -9 10 -22 7 -27 -6z"/>
<path d="M5858 10518 c-25 -21 -58 -75 -58 -95 0 -50 50 -56 103 -12 l37 30 0
-28 c0 -33 25 -73 46 -73 18 0 17 10 -2 35 -10 13 -14 38 -13 74 3 52 2 54
-30 67 -41 17 -63 18 -83 2z m59 -26 c17 -11 -8 -47 -46 -67 -34 -17 -44 -10
-29 19 25 50 49 65 75 48z"/>
<path d="M3939 10497 c-28 -19 -35 -30 -37 -64 -6 -83 47 -140 119 -129 46 7
119 42 119 56 0 19 -18 18 -58 -1 -67 -33 -101 -30 -130 11 l-23 35 38 6 c53
7 82 25 89 54 14 55 -55 74 -117 32z m89 -19 c-9 -25 -54 -43 -79 -32 l-24 11
30 16 c36 20 78 22 73 5z"/>
<path d="M5107 10513 c-10 -16 13 -118 31 -143 19 -25 19 -25 -13 -96 -47
-104 -59 -144 -46 -157 7 -7 12 -5 17 9 4 10 38 89 75 176 76 172 90 218 67
218 -9 0 -21 -21 -31 -52 -29 -91 -51 -101 -62 -30 -11 68 -15 82 -25 82 -5 0
-11 -3 -13 -7z"/>
<path d="M2638 10494 c-15 -8 -35 -28 -43 -44 -19 -36 -19 -35 1 -55 19 -19
68 -12 97 13 15 14 17 13 17 -5 0 -26 35 -59 45 -43 4 7 2 17 -4 23 -6 6 -11
33 -11 59 0 36 -4 48 -15 48 -9 0 -15 -9 -15 -22 0 -12 -3 -19 -6 -15 -3 3
-15 -3 -27 -14 -22 -20 -57 -26 -57 -10 0 12 28 41 41 42 5 1 15 2 22 3 17 2
15 30 -3 33 -8 1 -27 -4 -42 -13z"/>
<path d="M7158 10461 c-45 -36 -49 -109 -7 -132 42 -22 129 33 129 81 0 54
-77 86 -122 51z m83 -37 c24 -29 -47 -88 -77 -63 -31 26 -4 80 39 77 15 -1 32
-8 38 -14z"/>
<path d="M12055 9528 c-4 -18 -12 -39 -17 -48 -5 -8 -26 -64 -47 -125 l-37
-110 -71 -10 c-40 -5 -75 -14 -80 -18 -14 -15 19 -24 56 -16 20 5 45 9 57 9
20 0 20 0 3 -68 -20 -80 -16 -115 19 -142 30 -24 84 -28 76 -5 -4 8 -16 15
-28 15 -12 0 -27 5 -34 12 -26 26 -2 171 29 174 8 1 21 2 29 3 11 1 10 6 -7
20 l-22 18 44 119 c23 65 50 135 58 155 9 20 13 39 10 43 -15 15 -32 4 -38
-26z"/>
<path d="M14166 9512 c-2 -4 -14 -46 -26 -92 -44 -174 -34 -156 -93 -166 -36
-6 -52 -14 -52 -24 0 -15 9 -16 70 -4 l30 6 1 -86 c2 -104 15 -141 56 -155 58
-21 129 -10 150 23 14 21 8 50 -18 88 -15 20 -24 44 -21 51 8 22 67 30 81 11
10 -14 14 -13 31 6 17 18 17 22 3 36 -29 29 -158 -21 -158 -61 0 -6 14 -30 31
-53 17 -23 28 -49 25 -57 -14 -37 -121 -30 -136 10 -13 34 -23 140 -16 168 5
22 13 25 96 34 94 11 110 17 94 33 -7 7 -36 7 -88 -1 -43 -5 -81 -8 -84 -5 -3
4 5 47 18 97 19 77 21 92 9 100 -11 7 -11 9 4 9 9 0 17 6 17 14 0 17 -16 30
-24 18z"/>
<path d="M13980 9432 c0 -22 -7 -59 -16 -83 -41 -118 -69 -297 -49 -328 16
-27 29 -2 27 55 -2 41 7 95 29 174 34 124 42 210 22 217 -9 3 -13 -8 -13 -35z"/>
<path d="M4846 9441 c-18 -20 -7 -39 15 -25 14 8 2 -115 -13 -133 -5 -6 -31
-14 -59 -18 -34 -5 -49 -11 -49 -22 0 -13 9 -14 56 -8 51 6 55 5 51 -12 -38
-138 -45 -222 -19 -231 8 -2 12 8 12 33 0 21 10 80 22 131 l23 94 43 0 c55 0
53 24 -2 28 l-38 3 7 69 c10 102 -8 136 -49 91z"/>
<path d="M12184 9377 c-1 -66 -8 -103 -37 -193 -21 -61 -37 -118 -37 -127 0
-21 23 -34 29 -16 8 26 104 119 122 119 23 0 25 -46 4 -104 -13 -38 -11 -66 6
-66 5 0 15 21 23 48 8 26 15 39 15 29 1 -10 12 -29 26 -42 21 -21 33 -25 89
-25 68 0 121 14 112 29 -3 5 -41 7 -84 4 -65 -5 -81 -3 -95 11 -26 26 -21 46
11 46 15 0 48 10 72 23 48 24 54 44 23 80 -31 33 -99 10 -133 -46 l-20 -32 0
27 c0 26 -22 58 -41 58 -17 0 -52 -21 -81 -48 -16 -14 -28 -23 -28 -21 0 3 11
37 24 76 28 82 49 207 41 234 -4 11 -14 19 -23 19 -15 0 -17 -12 -18 -83z
m264 -215 c4 -12 -54 -42 -83 -42 -12 0 -13 3 -3 19 22 36 76 51 86 23z"/>
<path d="M7182 9431 c-11 -6 -11 -13 -2 -27 8 -13 9 -43 3 -99 l-8 -80 -59 -5
c-83 -7 -88 -30 -8 -30 l60 0 -1 -67 c-2 -55 1 -68 13 -68 10 0 15 11 16 35 3
113 0 107 45 114 49 8 49 32 0 28 l-33 -2 7 84 c7 79 2 126 -13 126 -4 0 -13
-4 -20 -9z"/>
<path d="M10777 9423 c-4 -3 -7 -18 -7 -31 0 -14 -9 -60 -20 -101 -20 -74 -22
-76 -52 -76 -41 0 -47 -21 -9 -30 28 -6 31 -11 31 -43 0 -20 9 -52 20 -70 17
-28 25 -33 53 -30 37 3 39 22 4 26 -29 4 -47 38 -47 87 l0 35 65 0 c53 0 65 3
65 16 0 11 -9 15 -32 14 -18 -1 -45 -2 -59 -1 l-26 1 24 92 c13 51 21 98 19
105 -6 14 -19 17 -29 6z"/>
<path d="M3970 9408 c-8 -194 -11 -354 -6 -373 4 -14 12 -25 19 -25 18 0 17
391 0 397 -7 3 -13 3 -13 1z"/>
<path d="M9356 9402 c-3 -5 0 -25 6 -45 13 -42 -2 -149 -27 -197 -20 -39 -82
-90 -108 -90 -56 0 -61 45 -10 101 28 31 42 40 60 36 18 -3 23 0 21 12 -9 44
-88 11 -127 -53 -27 -43 -27 -80 1 -106 59 -55 163 8 204 123 19 53 28 153 16
191 -8 30 -26 44 -36 28z"/>
<path d="M10348 9396 c-26 -19 -22 -28 9 -24 17 2 29 10 31 21 4 20 -16 22
-40 3z"/>
<path d="M2264 9296 c-48 -49 -64 -73 -64 -94 0 -15 -6 -34 -12 -41 -9 -8 -13
-49 -13 -132 0 -101 2 -119 15 -117 10 2 20 28 30 77 15 69 17 74 43 77 83 9
141 92 142 201 0 67 -6 78 -48 89 -25 6 -35 0 -93 -60z m106 14 c25 -48 -18
-177 -67 -199 -51 -23 -58 -17 -56 54 1 69 18 104 70 145 32 25 40 25 53 0z"/>
<path d="M6946 9289 c-22 -5 -54 -19 -73 -30 -51 -32 -42 -56 37 -99 36 -19
65 -42 65 -50 0 -8 -16 -23 -35 -32 -27 -13 -44 -15 -74 -8 -22 5 -44 6 -48 3
-17 -10 13 -31 53 -37 75 -12 163 48 138 95 -5 9 -38 32 -74 50 -65 33 -65 34
-45 51 12 10 48 23 81 29 38 7 59 17 59 25 0 16 -26 17 -84 3z"/>
<path d="M9917 9257 c-49 -51 -63 -71 -71 -100 -3 -15 -13 -27 -20 -27 -16 0
-31 -49 -18 -62 5 -5 2 -41 -8 -87 -30 -137 -33 -171 -16 -171 16 0 22 16 52
144 18 76 18 77 63 97 100 44 147 131 110 202 -25 47 -50 48 -92 4z m73 -59
c0 -32 -67 -112 -101 -121 -20 -5 -21 -3 -15 36 8 47 48 121 74 136 22 13 42
-11 42 -51z"/>
<path d="M3189 9265 c-14 -8 -36 -34 -49 -58 -42 -80 -7 -151 82 -163 60 -8
118 2 118 21 0 8 -4 15 -10 15 -5 0 -10 -4 -10 -8 0 -9 -104 1 -131 13 -13 5
-39 44 -39 58 0 1 17 1 38 -1 75 -7 121 69 72 118 -23 23 -36 24 -71 5z m61
-56 c0 -22 -28 -39 -64 -39 -34 0 -33 15 4 52 25 25 33 28 45 18 8 -7 15 -21
15 -31z"/>
<path d="M3579 9278 c-1 -2 -2 -28 -3 -59 -2 -55 -21 -119 -36 -119 -12 0 -38
45 -61 105 -19 50 -35 66 -52 49 -4 -4 0 -19 7 -33 8 -14 26 -52 42 -83 30
-64 60 -101 74 -93 21 13 52 104 57 168 5 58 4 67 -11 67 -9 0 -16 -1 -17 -2z"/>
<path d="M10127 9238 c-18 -18 -36 -33 -42 -33 -5 0 -11 -16 -11 -35 -1 -19
-9 -52 -18 -72 -10 -24 -12 -39 -5 -43 17 -11 38 15 50 59 5 22 12 48 15 57 9
32 53 71 73 64 16 -5 18 -2 14 15 -8 30 -40 25 -76 -12z"/>
<path d="M5322 9240 c-53 -32 -51 -46 12 -104 46 -43 56 -58 56 -84 0 -21 -6
-35 -16 -39 -16 -6 -80 6 -118 22 -14 6 -17 4 -14 -11 7 -38 132 -59 163 -27
13 13 16 28 12 67 -4 45 -9 55 -53 93 -40 35 -46 45 -34 53 30 20 61 23 79 6
21 -19 41 -21 41 -3 0 23 -35 47 -66 47 -16 0 -44 -9 -62 -20z"/>
<path d="M7577 9254 c-14 -14 -7 -35 11 -32 9 2 17 10 17 17 0 16 -18 25 -28
15z"/>
<path d="M4316 9202 c-19 -57 -103 -185 -116 -177 -13 8 -12 73 2 134 6 28 8
54 4 58 -11 12 -33 -23 -41 -65 -4 -20 -22 -68 -40 -106 -18 -39 -31 -74 -29
-78 10 -16 22 -7 39 28 l17 36 20 -22 c28 -30 47 -22 88 33 29 40 36 44 38 27
2 -12 -2 -28 -8 -35 -10 -12 -7 -17 15 -25 37 -14 45 -6 33 34 -8 26 -7 53 5
112 9 43 13 82 11 86 -11 18 -23 5 -38 -40z"/>
<path d="M6109 9226 c-66 -45 -79 -129 -25 -155 26 -12 34 -11 72 7 l44 22 24
-25 c31 -31 66 -33 66 -5 0 12 -6 20 -12 19 -42 -5 -57 24 -35 68 8 15 18 43
22 61 5 25 3 32 -9 32 -8 0 -19 -7 -24 -16 -8 -14 -10 -14 -21 0 -19 23 -61
20 -102 -8z m81 -15 c0 -5 7 -11 15 -13 22 -5 -11 -66 -47 -84 -64 -33 -100 5
-57 60 28 36 89 61 89 37z"/>
<path d="M8795 9231 c-61 -37 -87 -86 -73 -137 11 -42 33 -49 76 -24 19 12 35
20 36 18 24 -57 42 -57 42 2 0 28 6 56 12 62 18 18 14 51 -7 70 -31 26 -54 29
-86 9z m55 -50 c0 -21 -10 -38 -35 -60 -46 -40 -65 -40 -65 0 0 36 47 89 79
89 16 0 21 -6 21 -29z"/>
<path d="M13006 9225 c-9 -13 -16 -29 -16 -35 0 -5 -7 -10 -15 -10 -15 0 -19
-18 -30 -122 -6 -54 -5 -58 14 -58 16 0 21 6 21 28 0 29 20 107 39 156 l12 29
22 -22 c22 -20 47 -28 47 -15 0 12 -56 74 -66 74 -7 0 -19 -11 -28 -25z"/>
<path d="M9026 9219 c-14 -11 -26 -16 -26 -10 0 6 -7 11 -15 11 -9 0 -15 -9
-15 -23 0 -12 -9 -40 -20 -62 -39 -77 -17 -90 33 -19 57 83 64 90 78 77 9 -9
8 -22 -6 -60 -24 -67 -31 -117 -15 -111 13 4 35 56 52 125 9 35 8 46 -6 67
-20 31 -26 32 -60 5z"/>
<path d="M11037 9222 c-23 -26 -22 -33 18 -83 40 -51 41 -55 18 -67 -27 -14
-84 5 -81 26 2 10 -3 17 -12 17 -8 0 -16 -10 -18 -22 -6 -43 89 -77 133 -49
35 23 31 56 -10 106 -19 23 -32 46 -29 51 3 5 26 9 50 9 61 0 54 24 -7 28 -34
2 -49 -2 -62 -16z"/>
<path d="M13473 9224 c-52 -26 -53 -52 -3 -94 32 -27 41 -42 38 -60 -4 -34
-54 -52 -73 -27 -17 23 -35 22 -35 -3 0 -44 107 -52 130 -10 25 46 7 101 -42
126 -26 13 -28 18 -17 29 8 8 29 17 48 22 19 5 36 14 39 21 5 17 -47 15 -85
-4z"/>
<path d="M3685 9185 c-29 -49 -30 -72 -2 -89 14 -9 26 -6 56 10 l38 21 11 -29
c10 -27 37 -46 49 -34 3 3 0 13 -7 21 -7 9 -17 39 -21 68 -9 57 -28 77 -70 77
-23 0 -33 -9 -54 -45z m80 5 c7 -11 -47 -70 -64 -70 -16 0 -14 11 9 48 20 32
43 41 55 22z"/>
<path d="M4603 9210 c-7 -25 -12 -25 -29 -2 -12 16 -14 16 -49 -2 -55 -30 -95
-80 -95 -120 0 -53 20 -62 75 -35 25 12 45 26 45 31 0 4 4 8 9 8 5 0 12 -16
15 -35 8 -41 49 -74 73 -59 18 11 14 30 -5 28 -7 -1 -20 9 -28 21 -16 24 -14
37 22 163 5 17 2 22 -11 22 -9 0 -19 -9 -22 -20z m-13 -40 c-1 -17 -97 -100
-117 -100 -26 0 -12 42 24 75 26 24 45 33 65 32 15 -1 28 -4 28 -7z"/>
<path d="M5048 9208 c-44 -32 -68 -81 -68 -135 0 -59 19 -87 67 -99 35 -9 129
10 149 30 23 24 8 37 -23 21 -79 -41 -168 -23 -161 33 2 19 10 28 26 30 12 2
22 8 22 13 0 5 6 9 13 9 8 0 24 11 38 26 22 23 23 27 8 52 -17 31 -46 39 -71
20z m42 -38 c0 -19 -56 -57 -68 -46 -6 7 47 66 60 66 4 0 8 -9 8 -20z"/>
<path d="M1898 9203 c-87 -3 -108 -7 -108 -18 0 -12 16 -15 73 -16 39 -1 83
-3 97 -4 31 -3 60 11 60 30 0 8 -3 14 -7 13 -5 -1 -56 -4 -115 -5z"/>
<path d="M7375 9186 c-13 -13 -29 -26 -36 -28 -16 -5 -23 -158 -8 -158 13 0
29 45 29 85 0 22 9 44 25 62 l25 28 18 -23 c18 -23 32 -21 32 5 0 15 -36 53
-50 53 -6 0 -22 -11 -35 -24z"/>
<path d="M13602 9198 c-18 -18 -15 -109 4 -136 26 -38 59 -45 103 -23 56 29
81 100 42 121 -24 12 -38 -4 -21 -25 22 -27 -22 -75 -69 -75 -36 0 -51 62 -30
129 5 18 -14 24 -29 9z"/>
<path d="M7675 9164 c-30 -27 -43 -48 -53 -87 -18 -74 -19 -82 -4 -82 7 0 27
33 45 74 35 80 71 117 84 85 5 -15 0 -52 -19 -134 -7 -33 26 -12 38 24 22 61
21 126 -1 142 -28 21 -46 17 -90 -22z"/>
<path d="M10264 9183 c-3 -10 -12 -33 -20 -51 -17 -41 -17 -42 1 -42 18 0 45
50 45 85 0 28 -18 34 -26 8z"/>
<path d="M10420 9183 c-14 -10 -35 -16 -47 -15 -13 2 -24 -1 -24 -7 -2 -14 -3
-17 -17 -66 -25 -83 -2 -90 43 -13 29 49 76 90 90 77 3 -4 -1 -33 -9 -67 -8
-33 -11 -63 -8 -66 3 -3 -3 -6 -12 -6 -31 0 -11 -25 23 -28 32 -3 33 -2 26 27
-3 17 -1 56 6 87 12 55 12 57 -10 75 -28 23 -31 23 -61 2z"/>
<path d="M13195 9169 c-73 -64 -87 -139 -34 -183 32 -27 70 -33 114 -16 39 15
20 33 -26 25 -50 -9 -89 14 -89 50 0 20 5 25 25 25 62 0 106 49 89 98 -13 38
-36 38 -79 1z m53 -26 c-4 -20 -53 -51 -64 -40 -10 9 35 57 53 57 8 0 13 -8
11 -17z"/>
<path d="M7901 9164 c-41 -34 -43 -79 -5 -96 21 -10 35 -9 69 3 l43 16 4 -65
c2 -36 2 -77 0 -92 -3 -25 -7 -26 -54 -26 -43 1 -53 -3 -74 -27 -28 -32 -30
-66 -9 -107 19 -36 49 -54 81 -46 24 6 74 79 74 110 0 13 4 15 19 6 27 -14 41
-13 41 3 0 8 -11 19 -24 25 -24 11 -24 11 -23 162 2 151 2 151 -20 145 -12 -3
-25 -1 -28 5 -12 19 -63 10 -94 -16z m84 -24 c17 -19 17 -20 -20 -36 -59 -24
-85 -4 -45 36 25 25 42 25 65 0z m0 -270 c25 -10 25 -10 10 -47 -31 -74 -70
-90 -94 -37 -15 33 -4 73 23 84 28 12 31 12 61 0z"/>
<path d="M7530 9065 c0 -14 -1 -28 -2 -32 -1 -5 6 -9 15 -11 13 -3 17 4 17 32
0 25 -4 36 -15 36 -9 0 -15 -9 -15 -25z"/>
<path d="M2620 9025 c0 -2 5 -16 12 -30 10 -22 8 -29 -12 -50 -25 -27 -49 -32
-68 -13 -9 9 -13 7 -18 -5 -17 -46 58 -52 105 -8 32 30 38 58 21 92 -9 16 -40
28 -40 14z"/>
<path d="M12022 9008 c5 -15 50 -17 55 -3 2 6 -11 12 -28 13 -21 2 -30 -1 -27
-10z"/>
<path d="M11215 8336 c-43 -26 -82 -85 -96 -144 -5 -24 -2 -58 12 -110 19 -76
18 -104 -9 -157 -18 -36 -30 -45 -59 -45 -32 0 -93 -31 -93 -47 0 -19 90 -17
118 3 41 29 34 8 -23 -67 -140 -187 -123 -349 38 -349 30 0 49 6 61 19 19 21
9 35 -14 20 -8 -5 -32 -9 -53 -9 -55 0 -97 43 -97 99 0 56 39 139 105 223 53
69 67 102 44 110 -6 2 -2 20 10 48 25 54 26 84 6 140 -22 62 -19 128 8 175 34
59 117 109 117 70 0 -8 7 -15 15 -15 18 0 20 31 3 48 -18 18 -49 14 -93 -12z"/>
<path d="M2054 8330 c-29 -11 -82 -78 -89 -111 -4 -15 -12 -33 -20 -39 -17
-14 -9 -77 13 -102 9 -11 29 -18 51 -18 46 0 141 44 141 65 0 19 2 19 -62 -10
-68 -32 -104 -33 -114 -3 -4 14 -2 24 6 26 28 10 98 84 115 123 26 56 7 88
-41 69z m12 -57 c-8 -16 -31 -44 -51 -63 l-37 -35 13 30 c20 45 59 95 75 95
12 0 12 -4 0 -27z"/>
<path d="M2446 8304 c-3 -9 -6 -29 -6 -44 0 -21 -9 -36 -33 -54 -32 -24 -67
-34 -67 -19 0 17 53 73 71 73 10 0 19 6 19 13 0 22 -10 26 -40 16 -35 -13 -83
-79 -78 -111 4 -32 57 -37 97 -9 16 12 32 21 35 21 3 0 6 -31 6 -70 0 -51 -4
-70 -13 -70 -31 0 -120 -33 -138 -51 -24 -24 -24 -62 -2 -100 21 -35 55 -46
88 -29 29 15 71 77 81 117 4 15 10 30 14 33 3 3 4 50 0 105 -3 55 -3 108 2
117 4 9 8 30 8 47 0 24 -4 31 -19 31 -10 0 -22 -7 -25 -16z m-23 -341 c-26
-50 -67 -80 -87 -64 -22 19 -29 62 -12 79 18 18 110 43 114 31 2 -5 -5 -26
-15 -46z"/>
<path d="M3983 8203 c9 -76 1 -100 -34 -100 -36 0 -79 -38 -79 -70 0 -37 16
-60 61 -85 l40 -22 -5 -56 c-3 -30 -8 -85 -12 -122 -7 -73 -11 -76 -61 -57
-51 19 -73 48 -73 96 0 32 -4 43 -15 43 -21 0 -20 -81 0 -121 19 -37 70 -69
109 -69 l29 0 -7 -85 c-5 -55 -3 -92 4 -105 20 -38 30 -9 30 91 0 87 2 99 18
100 56 2 112 72 112 140 0 36 -39 107 -80 144 -15 14 -20 31 -20 73 0 54 0 54
28 48 46 -11 51 -11 54 -1 2 6 -14 18 -36 29 -36 18 -38 21 -32 54 8 53 -4
122 -22 122 -12 0 -14 -9 -9 -47z m-13 -190 l0 -46 -25 23 c-36 34 -33 70 7
70 15 0 18 -8 18 -47z m97 -246 c-6 -45 -40 -86 -69 -84 -21 1 -21 8 -2 170
l6 49 35 -49 c29 -40 34 -54 30 -86z"/>
<path d="M2566 8121 c-24 -26 -4 -36 29 -15 14 9 25 20 25 25 0 16 -37 9 -54
-10z"/>
<path d="M11863 8133 c-7 -3 -13 -18 -13 -34 0 -44 -36 -142 -86 -237 -24 -46
-44 -90 -44 -98 0 -26 28 -14 58 24 17 20 44 45 60 55 l31 17 -26 -60 c-20
-45 -24 -63 -15 -72 8 -8 19 6 42 56 16 37 30 74 30 82 0 25 -32 28 -71 7
l-38 -21 35 68 c19 37 38 89 44 116 5 27 12 59 16 70 6 23 -3 34 -23 27z"/>
<path d="M2173 8123 c-18 -6 -16 -33 1 -33 19 0 31 19 20 30 -5 4 -15 5 -21 3z"/>
<path d="M7045 8053 c-16 -41 -24 -76 -20 -90 7 -28 31 -25 28 3 -1 10 9 44
23 76 28 66 29 78 10 78 -8 0 -26 -29 -41 -67z"/>
<path d="M14116 8071 c7 -42 -3 -82 -43 -173 l-25 -57 -51 -3 c-66 -4 -75 -26
-13 -30 l46 -3 -39 -64 c-37 -60 -43 -81 -22 -81 5 0 28 32 51 70 31 51 48 70
64 70 36 0 67 12 63 24 -2 6 -18 10 -35 8 -18 -2 -32 -2 -32 0 0 2 16 41 35
88 36 87 45 156 23 178 -21 21 -28 13 -22 -27z"/>
<path d="M14755 8088 c-2 -7 -13 -40 -24 -73 -11 -33 -27 -77 -36 -98 -16 -38
-17 -38 -63 -35 -37 2 -47 0 -47 -12 0 -11 13 -16 43 -18 43 -3 43 -3 35 -35
-11 -45 -10 -116 2 -119 6 -1 11 7 13 18 1 10 7 43 13 72 l10 52 48 0 c31 0
53 5 61 15 19 23 6 29 -39 18 -21 -6 -44 -8 -49 -4 -6 4 1 34 19 78 34 86 47
153 30 153 -6 0 -14 -6 -16 -12z"/>
<path d="M7105 8030 c-23 -46 -27 -62 -17 -72 6 -6 13 -10 14 -7 22 35 58 113
58 124 0 33 -27 11 -55 -45z"/>
<path d="M10386 8061 c-16 -25 -35 -93 -30 -106 10 -24 34 -18 34 9 0 12 5 38
11 55 8 22 8 36 1 43 -6 6 -12 6 -16 -1z"/>
<path d="M10465 8058 c-18 -52 -9 -148 13 -134 12 7 13 134 2 141 -6 4 -12 0
-15 -7z"/>
<path d="M5076 8043 c-3 -4 8 -22 26 -40 32 -33 33 -37 33 -116 0 -62 -6 -93
-21 -128 -25 -53 -60 -89 -87 -89 -18 0 -19 5 -14 56 7 64 29 104 58 104 12 0
19 5 17 13 -3 6 -18 12 -33 12 -39 0 -65 -46 -72 -125 -7 -68 5 -90 47 -90 69
0 131 105 138 236 4 75 2 85 -23 128 -25 42 -50 57 -69 39z"/>
<path d="M9927 8043 c-5 -8 -18 -91 -23 -143 -1 -14 -3 -25 -4 -25 -1 0 -9
-29 -19 -65 -10 -36 -20 -71 -22 -79 -8 -27 19 -21 47 11 58 64 97 99 108 95
7 -2 11 -33 11 -83 0 -59 3 -79 13 -79 10 0 15 23 18 81 4 66 2 85 -11 98 -25
25 -51 19 -97 -21 -28 -25 -39 -32 -35 -19 4 10 15 60 23 110 9 50 18 94 20
97 2 4 -3 12 -10 18 -8 7 -16 8 -19 4z"/>
<path d="M12380 8002 c0 -30 -35 -122 -77 -206 -31 -62 -18 -84 24 -39 67 71
121 81 109 20 -13 -60 -12 -82 3 -82 15 0 22 24 24 94 2 34 -2 46 -19 57 -17
12 -25 11 -56 -4 l-35 -19 27 68 c37 89 42 139 15 139 -10 0 -15 -10 -15 -28z"/>
<path d="M13642 7989 c-7 -22 -35 -90 -62 -151 -28 -60 -48 -114 -44 -119 9
-16 32 -10 51 14 16 21 53 47 66 47 2 0 2 -13 -1 -30 -5 -37 6 -86 18 -74 4 5
11 37 15 71 8 75 -5 87 -60 54 -19 -11 -35 -19 -35 -18 0 1 20 49 45 106 25
57 45 112 45 122 0 34 -25 20 -38 -22z"/>
<path d="M12070 7955 c0 -16 27 -32 37 -21 7 7 -16 36 -28 36 -5 0 -9 -7 -9
-15z"/>
<path d="M13882 7944 c2 -11 11 -20 22 -22 13 -3 17 1 14 14 -2 11 -11 20 -22
22 -13 3 -17 -1 -14 -14z"/>
<path d="M6357 7923 c-14 -16 -32 -43 -40 -62 -9 -20 -17 -29 -21 -22 -11 18
-26 13 -26 -9 0 -12 -10 -34 -21 -50 -21 -27 -21 -30 -5 -54 14 -22 15 -37 6
-113 -12 -110 -13 -103 5 -103 14 0 25 31 40 110 12 64 14 67 54 74 54 8 101
44 129 98 29 56 25 87 -18 129 -36 36 -69 37 -103 2z m80 -25 c47 -44 14 -132
-64 -164 -51 -22 -64 -19 -57 14 21 95 60 172 87 172 6 0 21 -10 34 -22z"/>
<path d="M9425 7889 c-36 -32 -49 -65 -61 -158 -6 -44 -4 -53 7 -49 21 7 39
48 39 91 0 44 14 75 44 99 23 19 56 24 56 8 0 -5 7 -10 15 -10 18 0 20 21 3
38 -22 22 -66 13 -103 -19z"/>
<path d="M4560 7873 c0 -21 -9 -67 -20 -102 -10 -35 -17 -68 -14 -73 11 -17
24 -7 50 40 32 56 83 112 101 112 17 0 16 -5 -3 -79 -17 -69 -12 -101 17 -101
21 0 25 10 9 26 -6 6 -4 29 5 64 19 73 19 116 -1 124 -26 10 -32 7 -74 -30
l-40 -36 0 46 c0 34 -4 46 -15 46 -11 0 -15 -11 -15 -37z"/>
<path d="M11450 7881 c-30 -16 -56 -36 -58 -45 -5 -22 0 -21 69 15 33 17 62
29 65 26 3 -3 -15 -28 -40 -56 -25 -28 -50 -60 -56 -71 -17 -32 12 -35 58 -6
l40 25 6 -30 c3 -18 15 -34 31 -41 22 -10 30 -8 53 9 22 16 28 31 33 74 6 56
-4 86 -21 59 -5 -8 -10 -34 -10 -57 0 -31 -5 -45 -18 -52 -25 -13 -42 4 -42
41 0 23 -4 28 -23 28 -13 0 -29 -6 -37 -12 -8 -7 5 9 29 35 23 26 41 56 39 65
-5 29 -57 26 -118 -7z"/>
<path d="M15136 7870 c-20 -22 -36 -45 -36 -50 0 -6 -9 -19 -21 -31 -13 -13
-18 -27 -14 -40 10 -31 29 -22 48 26 11 24 28 56 39 70 17 22 25 25 54 19 27
-5 34 -3 34 10 0 16 -29 36 -53 36 -8 0 -31 -18 -51 -40z"/>
<path d="M5220 7862 c-59 -60 -64 -164 -8 -205 25 -19 31 -19 89 -7 67 14 109
44 90 63 -7 7 -16 6 -28 -5 -24 -21 -99 -41 -124 -33 -11 4 -24 18 -30 32 -12
31 -12 46 1 38 15 -10 77 22 95 48 26 41 0 97 -45 97 -6 0 -24 -13 -40 -28z
m60 -22 c8 -15 6 -24 -10 -40 -20 -20 -60 -28 -60 -11 0 9 48 71 56 71 2 0 8
-9 14 -20z"/>
<path d="M7329 7875 c-14 -8 -37 -30 -50 -49 -13 -20 -27 -36 -31 -36 -5 0 -8
-9 -8 -19 0 -11 -6 -26 -14 -34 -10 -9 -15 -36 -15 -78 0 -35 -5 -80 -10 -99
-15 -49 -14 -90 3 -90 9 0 18 22 26 68 18 101 17 99 48 95 60 -9 162 102 162
176 0 42 -7 54 -37 70 -28 14 -42 14 -74 -4z m62 -25 c23 -13 25 -50 5 -89
-21 -39 -94 -103 -114 -99 -42 8 -14 117 44 168 39 34 38 34 65 20z"/>
<path d="M9150 7851 c-44 -46 -56 -83 -39 -123 9 -22 18 -28 41 -28 16 0 38 4
48 10 15 8 20 4 30 -19 12 -29 45 -47 55 -30 3 4 -3 17 -15 29 -25 25 -26 55
0 87 11 15 20 41 20 61 0 29 -3 34 -20 29 -10 -3 -24 1 -31 9 -20 24 -51 15
-89 -25z m78 -8 c20 -35 -27 -113 -68 -113 -39 0 -28 62 21 111 23 23 35 24
47 2z"/>
<path d="M8703 7865 c-27 -12 -53 -41 -53 -60 0 -3 18 -25 41 -50 22 -24 38
-49 34 -55 -10 -16 -39 -12 -63 10 -24 22 -52 26 -52 8 0 -19 62 -58 92 -58
31 0 58 24 58 50 0 11 -16 34 -35 51 -19 18 -35 38 -35 44 0 21 29 38 68 40
49 3 50 3 28 20 -24 18 -42 18 -83 0z"/>
<path d="M7574 7857 c-62 -36 -75 -55 -85 -122 -6 -37 -8 -69 -5 -72 12 -12
36 8 36 29 0 43 20 96 47 123 24 23 33 26 65 21 29 -5 38 -3 38 8 0 27 -59 35
-96 13z"/>
<path d="M9665 7855 c-116 -41 -113 -163 5 -195 48 -13 92 -10 97 6 2 7 -17
14 -49 17 -89 11 -132 63 -91 109 27 31 74 48 96 36 30 -16 43 6 16 26 -28 19
-24 19 -74 1z"/>
<path d="M13028 7850 c-76 -40 -106 -131 -45 -138 15 -2 41 4 59 12 32 16 39
14 51 -19 7 -18 18 2 24 41 17 115 -9 146 -89 104z m66 -28 c12 -19 -69 -82
-105 -82 -20 0 -7 30 26 59 34 30 68 40 79 23z"/>
<path d="M13273 7855 c-33 -14 -81 -84 -85 -125 -5 -41 24 -29 39 16 17 50 51
84 89 88 16 2 34 4 39 5 13 2 -25 31 -39 31 -6 -1 -25 -7 -43 -15z"/>
<path d="M14853 7855 c-27 -19 -63 -77 -63 -102 0 -10 6 -28 14 -38 29 -40
162 -8 200 47 21 30 22 98 1 98 -10 0 -15 -10 -15 -29 0 -46 -9 -60 -52 -82
-48 -24 -111 -23 -116 3 -2 9 15 37 37 61 22 24 38 47 34 50 -9 10 -16 9 -40
-8z"/>
<path d="M8488 7850 c-46 -28 -43 -66 10 -122 26 -29 16 -40 -12 -13 -20 20
-36 19 -36 -4 0 -11 12 -23 29 -31 68 -28 92 15 42 73 -17 19 -31 40 -31 45 0
15 33 32 69 35 16 1 31 7 33 12 4 14 -83 17 -104 5z"/>
<path d="M11965 7807 c-26 -56 -32 -87 -16 -87 13 0 61 96 61 121 0 34 -19 20
-45 -34z"/>
<path d="M13363 7828 c-21 -18 -41 -37 -45 -43 -15 -20 -8 -54 14 -69 25 -17
104 -21 128 -6 22 14 3 24 -40 21 -49 -3 -80 6 -80 24 0 14 65 75 80 75 5 0
12 -4 15 -10 9 -15 25 -12 25 5 0 8 -5 15 -11 15 -5 0 -7 5 -4 10 15 24 -48 7
-82 -22z"/>
<path d="M15323 7825 c-64 -43 -87 -81 -70 -116 15 -29 72 -59 129 -66 63 -9
44 15 -32 40 -52 18 -66 27 -68 45 -3 16 2 22 15 22 33 0 94 21 88 30 -3 6 0
7 8 4 14 -5 47 20 47 36 0 50 -47 52 -117 5z m67 -14 c-21 -17 -70 -34 -70
-26 0 2 15 12 33 24 41 27 72 28 37 2z"/>
<path d="M4806 7813 c-30 -47 -41 -95 -26 -122 17 -33 80 -29 120 9 55 51 32
122 -47 145 -18 5 -27 -1 -47 -32z m75 -13 c43 -23 -1 -106 -53 -98 -25 3 -28
29 -7 81 12 29 28 33 60 17z"/>
<path d="M8244 7832 c-37 -29 -46 -57 -34 -102 6 -21 20 -46 33 -55 32 -23
137 -19 137 5 0 5 -23 9 -51 8 -34 0 -56 6 -70 18 -25 23 -24 34 4 34 45 0 69
48 47 91 -13 23 -38 24 -66 1z m46 -37 c0 -7 -14 -18 -30 -24 -33 -11 -33 -5
-2 31 16 19 32 15 32 -7z"/>
<path d="M14232 7842 c-12 -2 -41 -20 -62 -41 -47 -45 -53 -88 -18 -121 27
-25 98 -29 98 -5 0 10 -10 15 -34 15 -40 0 -60 21 -52 54 7 28 60 70 79 63 6
-2 -5 -14 -25 -27 -64 -38 -46 -55 21 -20 35 17 51 36 51 60 0 14 -33 26 -58
22z"/>
<path d="M14405 7833 c-65 -34 -94 -78 -74 -114 12 -24 55 -42 80 -34 24 8 25
25 1 25 -32 0 -55 24 -47 48 8 26 77 64 99 56 11 -4 16 0 16 15 0 26 -31 28
-75 4z"/>
<path d="M12092 7825 c-12 -9 -29 -30 -38 -46 -14 -28 -14 -33 1 -55 14 -22
22 -25 73 -22 42 2 58 7 60 19 2 13 -6 15 -53 11 -51 -4 -55 -3 -55 16 0 28
39 63 65 60 12 -2 20 3 20 12 0 21 -45 24 -73 5z"/>
<path d="M7742 7814 c-35 -24 -64 -88 -53 -117 18 -45 93 -52 131 -12 26 28
31 86 10 125 -13 24 -56 27 -88 4z m52 -20 c21 -8 22 -77 2 -93 -8 -7 -27 -11
-43 -9 -38 4 -41 36 -8 77 30 35 27 33 49 25z"/>
<path d="M8005 7821 c-27 -11 -51 -40 -64 -74 -14 -35 6 -78 44 -95 30 -14
109 -16 101 -3 -4 5 2 7 12 4 10 -2 25 3 33 13 9 11 9 15 2 10 -7 -4 -13 -3
-13 3 0 7 -8 7 -26 1 -59 -23 -124 0 -124 44 0 28 42 69 72 71 13 1 23 8 23
16 0 16 -32 22 -60 10z"/>
<path d="M6075 7803 c-64 -6 -85 -12 -85 -27 0 -10 20 -12 98 -8 103 5 111 7
96 22 -13 13 -59 18 -109 13z"/>
<path d="M13777 7748 c-10 -25 -13 -46 -8 -51 11 -11 37 26 46 66 12 45 -20
33 -38 -15z"/>
<path d="M8890 7711 c-14 -26 -13 -41 3 -41 21 0 35 20 30 41 -7 24 -19 24
-33 0z"/>
<path d="M12474 7599 c-4 -7 1 -16 10 -21 18 -10 17 -23 -6 -136 -12 -55 -38
-93 -38 -54 0 59 -73 39 -115 -32 -29 -49 -30 -73 -2 -90 22 -14 95 23 137 71
46 52 86 227 60 258 -15 18 -36 19 -46 4z m-52 -228 c15 -18 14 -21 -27 -50
-40 -29 -65 -39 -65 -25 0 19 55 94 70 94 3 0 13 -9 22 -19z"/>
<path d="M14917 7513 c-11 -11 -8 -20 9 -27 21 -8 34 1 27 19 -5 16 -25 20
-36 8z"/>
<path d="M13312 7474 c2 -11 11 -20 22 -22 13 -3 17 1 14 14 -2 11 -11 20 -22
22 -13 3 -17 -1 -14 -14z"/>
<path d="M12000 7459 c-19 -12 -45 -30 -57 -42 l-23 -20 0 21 c0 37 -18 24
-41 -28 -12 -27 -37 -71 -55 -97 -23 -33 -30 -51 -23 -58 11 -10 46 23 119
113 19 24 44 49 55 56 19 12 18 8 -7 -42 -15 -30 -28 -60 -28 -67 0 -24 42
-66 63 -63 29 4 33 26 5 30 -43 6 -37 58 17 138 53 79 44 101 -25 59z"/>
<path d="M12607 7412 c-92 -61 -121 -155 -56 -182 37 -16 124 -2 124 20 0 8
-5 14 -12 13 -67 -13 -90 -13 -107 0 -18 13 -19 17 -5 37 8 13 34 30 58 39 52
19 71 43 55 68 -15 24 -26 25 -57 5z m20 -42 c1 -11 -2 -20 -7 -20 -6 0 -7 17
-1 38 3 8 7 -1 8 -18z"/>
<path d="M12147 7413 c-11 -10 -8 -35 3 -28 19 12 10 -8 -20 -42 -33 -38 -38
-64 -14 -87 41 -42 144 16 144 81 0 40 -32 77 -60 68 -10 -3 -21 -1 -25 5 -7
12 -19 13 -28 3z m81 -76 c4 -28 -26 -54 -67 -59 -37 -5 -36 19 3 58 40 40 59
40 64 1z"/>
<path d="M13915 7389 c-5 -14 -2 -25 6 -30 11 -7 10 -9 -3 -9 -11 0 -28 -22
-48 -66 -33 -73 -36 -84 -17 -84 7 0 31 28 54 63 57 86 95 121 123 112 18 -6
21 -3 18 12 -5 26 -43 28 -77 4 -25 -18 -29 -18 -27 -4 2 25 -21 27 -29 2z"/>
<path d="M14328 7340 c-27 -39 -48 -75 -48 -80 0 -20 32 -9 88 28 31 21 62 41
68 45 8 5 10 -7 6 -38 -3 -30 -1 -45 7 -45 6 0 13 6 15 13 2 6 10 33 19 59 23
69 1 77 -76 28 -52 -33 -56 -31 -26 11 18 26 19 49 1 49 -4 0 -28 -32 -54 -70z"/>
<path d="M14577 7344 c-54 -92 -42 -117 21 -47 26 28 57 57 70 63 l23 11 -23
-40 c-12 -22 -19 -43 -16 -47 12 -11 38 16 64 68 22 43 23 49 8 55 -9 3 -31
-1 -49 -10 -29 -14 -34 -14 -39 -1 -9 24 -20 15 -59 -52z"/>
<path d="M13245 7383 c-3 -10 -17 -40 -30 -67 -24 -49 -25 -66 -2 -66 12 0 57
98 57 125 0 22 -20 28 -25 8z"/>
<path d="M13435 7382 c-46 -29 -58 -47 -46 -71 16 -28 14 -46 -8 -72 -17 -21
-23 -22 -40 -12 -22 14 -37 2 -27 -22 8 -23 60 -18 83 8 34 37 45 65 33 86
-16 32 -12 39 32 62 31 16 38 23 27 30 -19 12 -20 12 -54 -9z"/>
<path d="M15025 7360 c-27 -16 -52 -27 -56 -24 -8 4 -69 -74 -69 -88 0 -17 24
-6 65 30 51 45 131 92 122 71 -3 -8 -17 -40 -30 -71 -13 -31 -29 -63 -36 -71
-16 -20 6 -35 24 -16 21 22 84 171 78 186 -8 21 -44 15 -98 -17z"/>
<path d="M14826 7363 c-11 -11 -36 -73 -36 -89 0 -28 21 -13 42 31 15 30 19
48 12 55 -6 6 -14 7 -18 3z"/>
<path d="M15221 7335 c-34 -39 -39 -66 -16 -85 20 -16 56 -6 96 27 27 23 31
24 26 7 -3 -10 -8 -33 -12 -51 -5 -25 -14 -34 -39 -43 -49 -16 -94 -63 -125
-132 -37 -81 -43 -111 -28 -132 11 -15 17 -16 40 -5 37 17 107 111 142 192 28
64 29 65 86 81 108 30 168 56 174 77 9 27 -3 38 -18 18 -11 -15 -157 -69 -186
-69 -11 0 -12 10 -7 43 11 75 11 80 1 83 -6 2 -34 -14 -64 -36 -29 -22 -57
-40 -62 -40 -19 0 -8 24 27 55 29 27 32 34 19 39 -23 8 -19 10 -54 -29z m69
-181 c0 -20 -76 -146 -105 -174 -30 -29 -35 -31 -35 -14 0 34 56 139 89 167
31 26 51 34 51 21z"/>
<path d="M14233 7348 c-4 -7 -13 -22 -18 -32 -6 -11 -25 -29 -43 -39 -43 -26
-60 -12 -38 31 12 23 13 33 4 38 -13 8 -36 -20 -45 -54 -8 -35 26 -67 63 -58
33 9 114 86 114 110 0 19 -25 22 -37 4z"/>
<path d="M13000 7145 c-18 -22 2 -44 24 -26 16 14 42 -6 57 -46 14 -39 12 -48
-38 -113 -50 -67 -59 -106 -30 -138 20 -22 22 -33 5 -31 -29 3 -55 -2 -73 -15
-18 -13 -18 -15 8 -58 14 -24 27 -55 28 -69 10 -106 -16 -144 -99 -148 -45 -2
-52 0 -49 16 4 29 -16 30 -32 1 -13 -22 -13 -29 -2 -42 19 -23 102 -21 152 4
44 23 53 40 64 117 6 50 1 71 -43 156 -2 4 21 7 52 7 65 0 71 11 31 58 -35 42
-31 67 20 130 34 41 45 63 45 89 0 82 -81 155 -120 108z"/>
<path d="M11801 6895 c-48 -44 -64 -83 -47 -116 16 -34 35 -34 88 0 66 42 83
71 68 116 -16 48 -55 48 -109 0z m64 -35 c9 7 18 10 21 7 9 -8 -37 -52 -75
-71 -31 -16 -31 -16 -31 8 0 13 12 39 27 56 26 32 27 32 35 10 7 -19 11 -20
23 -10z"/>
<path d="M12110 6904 c-19 -14 -36 -21 -38 -15 -5 16 -32 13 -32 -3 0 -8 -16
-33 -35 -56 -19 -23 -35 -46 -35 -50 0 -22 22 -18 45 8 14 16 47 44 72 62 l46
34 -6 -36 c-7 -47 15 -80 51 -76 16 2 28 10 30 21 3 15 -1 17 -24 11 -29 -8
-29 -13 -12 101 4 28 -21 28 -62 -1z"/>
<path d="M7866 6851 c-4 -6 -4 -20 -1 -33 6 -25 -86 -304 -108 -325 -6 -6 -41
-13 -77 -15 -50 -2 -65 -7 -65 -18 0 -12 12 -14 63 -12 34 2 62 2 62 0 0 -3
-9 -30 -19 -61 -12 -33 -16 -59 -10 -62 11 -7 29 2 29 15 0 5 9 34 21 65 19
51 23 55 52 55 41 -1 75 -24 54 -37 -21 -12 -38 -49 -31 -67 13 -34 107 -33
154 2 34 26 37 62 6 95 -26 28 -64 35 -83 16 -8 -8 -19 -6 -41 5 -17 9 -41 16
-53 16 -25 0 -28 -13 36 168 45 130 54 191 28 199 -6 2 -14 0 -17 -6z m110
-425 c17 -24 8 -43 -28 -55 -43 -15 -78 -14 -78 3 0 15 49 52 64 48 5 -2 6 4
3 12 -8 20 23 14 39 -8z"/>
<path d="M2303 6823 c-10 -15 -31 -55 -45 -88 -77 -173 -108 -235 -115 -235
-14 0 -59 97 -83 178 -22 72 -32 88 -49 78 -11 -7 36 -150 77 -236 31 -64 31
-65 13 -95 -10 -16 -55 -90 -100 -164 -44 -73 -81 -139 -81 -147 0 -8 -9 -14
-21 -14 -30 0 -18 -24 14 -28 19 -2 29 2 33 15 14 47 43 99 145 265 61 98 133
230 159 292 27 62 59 130 71 150 27 47 12 73 -18 29z"/>
<path d="M4810 6766 c0 -8 -22 -84 -50 -169 -53 -165 -59 -197 -35 -197 8 0
15 8 15 18 0 9 23 87 50 172 54 166 58 190 35 190 -8 0 -15 -6 -15 -14z"/>
<path d="M10107 6772 c-3 -4 -15 -35 -26 -70 -12 -35 -30 -80 -41 -100 -19
-35 -23 -37 -93 -47 -85 -12 -89 -31 -4 -28 31 1 57 0 57 -2 0 -1 -11 -27 -24
-56 -14 -30 -25 -63 -26 -74 -5 -44 1 -65 15 -65 11 0 15 11 15 38 0 20 13 64
29 98 27 58 31 61 71 67 44 6 66 25 49 42 -6 6 -16 5 -29 -3 -11 -6 -27 -12
-35 -12 -13 0 -12 7 6 43 29 55 68 165 61 172 -8 7 -20 6 -25 -3z"/>
<path d="M10245 6704 c-10 -37 -49 -126 -86 -200 -38 -73 -65 -135 -60 -139 5
-3 38 24 73 60 87 89 112 85 67 -9 -21 -42 -21 -76 1 -76 5 0 10 6 10 14 0 7
12 39 26 69 20 45 23 60 14 77 -13 24 -47 26 -78 5 -21 -15 -20 -13 7 47 34
76 71 182 71 203 0 8 -6 15 -14 15 -8 0 -20 -26 -31 -66z"/>
<path d="M6134 6676 c9 -46 -15 -128 -66 -229 -31 -60 -37 -82 -29 -90 9 -9
26 3 72 51 32 34 64 62 69 62 12 0 12 -39 0 -100 -8 -44 1 -73 15 -49 17 26
33 133 24 156 -11 30 -47 30 -84 1 l-27 -21 15 29 c26 51 46 141 34 153 -8 8
-7 11 2 11 21 0 9 54 -13 58 -16 4 -18 0 -12 -32z"/>
<path d="M6949 6698 c0 -2 -2 -17 -4 -34 -3 -16 -20 -64 -39 -106 -46 -102
-67 -173 -59 -209 7 -38 35 -39 33 -1 -4 51 0 57 49 80 59 27 155 30 189 6 26
-18 27 -26 6 -70 -19 -41 -12 -54 15 -30 23 21 35 67 26 97 -9 28 -63 49 -126
49 l-52 0 99 76 c90 69 122 104 95 104 -5 0 -71 -47 -146 -105 -75 -58 -138
-105 -140 -105 -2 0 15 40 37 90 47 108 58 160 34 160 -9 0 -16 -1 -17 -2z"/>
<path d="M4865 6556 c-16 -7 -38 -23 -48 -34 -21 -23 -15 -43 22 -76 41 -37
13 -93 -41 -82 -20 4 -28 2 -28 -9 0 -19 34 -36 57 -28 63 22 83 91 38 133
-14 13 -25 30 -25 37 0 15 61 45 82 41 7 -2 13 4 13 12 0 20 -33 23 -70 6z"/>
<path d="M8652 6558 c-18 -18 -15 -43 13 -98 29 -58 32 -100 8 -129 -16 -18
-23 -20 -52 -11 -42 12 -71 37 -71 62 0 22 -26 24 -34 2 -14 -37 43 -85 115
-99 52 -10 80 17 86 81 4 41 0 60 -21 102 -14 28 -26 56 -26 62 0 20 39 10 58
-15 11 -14 25 -25 31 -25 19 0 12 26 -15 54 -28 28 -72 34 -92 14z"/>
<path d="M10438 6542 c-95 -63 -103 -173 -17 -218 34 -17 69 -14 150 12 40 13
48 20 53 46 3 17 4 33 1 36 -7 8 -35 -19 -35 -34 0 -12 -20 -20 -101 -39 -44
-11 -99 26 -99 66 0 5 8 9 18 9 9 0 40 11 69 24 55 26 77 62 56 95 -14 23 -63
25 -95 3z m70 -29 c-3 -19 -94 -70 -105 -60 -3 4 10 22 30 42 38 38 81 48 75
18z"/>
<path d="M5871 6509 c-27 -16 -55 -38 -61 -48 -18 -35 -12 -80 15 -107 21 -21
33 -25 78 -23 63 3 77 7 77 24 0 10 -13 12 -55 8 -62 -7 -95 12 -95 52 0 36
64 83 128 94 45 8 45 26 1 27 -24 1 -54 -8 -88 -27z"/>
<path d="M2481 6462 c-22 -33 -59 -76 -82 -95 -22 -20 -38 -40 -34 -46 11 -18
23 -13 57 24 21 24 35 32 42 25 17 -17 34 -11 75 25 l39 35 6 -34 c7 -39 27
-59 53 -54 23 4 24 34 1 30 -23 -4 -31 29 -23 89 8 60 -8 66 -43 15 -30 -44
-72 -83 -72 -67 0 7 10 31 22 52 16 28 19 42 11 50 -8 8 -22 -6 -52 -49z"/>
<path d="M4473 6498 c-49 -35 -69 -98 -41 -126 18 -18 41 -15 82 13 l37 25 -6
-32 c-7 -36 9 -94 18 -68 6 16 37 172 37 184 0 4 -6 6 -12 5 -7 -1 -26 3 -41
9 -37 16 -37 16 -74 -10z m72 -29 c9 -13 -21 -46 -57 -65 -35 -18 -38 -18 -38
5 0 46 75 94 95 60z"/>
<path d="M5036 6468 c-64 -75 -44 -125 47 -115 68 9 101 33 105 80 3 32 -1 39
-30 57 -52 31 -81 26 -122 -22z m102 -4 c27 -19 29 -50 2 -64 -10 -6 -40 -13
-65 -16 -39 -6 -45 -4 -45 11 0 26 48 85 68 85 10 0 28 -7 40 -16z"/>
<path d="M6367 6480 c-18 -16 -42 -47 -52 -70 -16 -35 -16 -44 -5 -65 17 -32
68 -48 127 -39 50 7 103 29 103 43 0 17 -14 20 -34 7 -31 -20 -120 -30 -145
-16 -33 17 -25 33 35 64 57 30 82 62 71 90 -10 27 -63 19 -100 -14z m43 -30
c-35 -31 -50 -37 -50 -21 0 14 50 51 69 51 11 -1 5 -10 -19 -30z"/>
<path d="M6678 6500 c-29 -17 -80 -99 -76 -122 5 -37 52 -63 115 -63 36 0 58
4 60 13 3 8 -9 12 -41 12 -50 0 -92 15 -100 37 -13 33 59 105 100 101 21 -2
29 1 29 12 0 18 -62 25 -87 10z"/>
<path d="M9043 6495 c-62 -44 -83 -143 -38 -185 21 -20 31 -22 79 -17 63 6
126 33 126 53 0 18 -20 17 -44 -1 -27 -20 -122 -30 -141 -15 -23 19 -18 47 8
54 48 12 77 45 77 87 0 34 -3 39 -23 39 -12 0 -32 -7 -44 -15z m21 -56 c-9
-10 -24 -19 -32 -19 -11 0 -7 9 13 30 31 33 49 22 19 -11z"/>
<path d="M3264 6456 c-66 -65 -59 -126 16 -146 54 -14 170 2 170 25 0 10 -19
12 -85 7 -91 -5 -115 3 -115 40 0 29 63 88 93 88 14 0 29 -4 32 -10 8 -12 45
-13 45 -1 0 16 -49 41 -81 41 -24 0 -42 -10 -75 -44z"/>
<path d="M3552 6478 c-29 -32 -42 -70 -31 -91 13 -22 37 -21 76 2 l31 20 7
-35 c6 -35 25 -51 45 -39 7 4 5 13 -4 27 -10 14 -13 35 -10 67 5 43 4 47 -22
59 -41 18 -68 15 -92 -10z m68 -16 c0 -9 -36 -44 -57 -56 -21 -11 -15 18 7 42
21 22 50 30 50 14z"/>
<path d="M3800 6474 c-17 -15 -30 -20 -28 -13 2 8 -3 14 -10 14 -8 0 -22 -25
-33 -55 -35 -100 -22 -106 44 -20 52 66 82 78 93 34 4 -14 1 -43 -5 -64 -12
-41 -6 -70 14 -70 19 0 31 131 14 161 -24 47 -45 50 -89 13z"/>
<path d="M2267 6479 c-39 -23 -63 -139 -35 -167 30 -30 98 7 132 71 19 34 19
35 0 68 -22 37 -63 49 -97 28z m73 -58 c0 -27 -54 -91 -77 -91 -16 0 -17 45
-2 88 9 26 15 30 45 29 29 -1 34 -4 34 -26z"/>
<path d="M8841 6456 c-27 -27 -35 -46 -39 -84 -3 -41 0 -53 21 -77 27 -32 73
-37 128 -15 29 12 35 39 8 31 -51 -13 -97 -12 -112 4 -24 24 -22 65 3 65 52 0
98 48 85 89 -10 34 -55 27 -94 -13z m63 -11 c-8 -19 -43 -39 -52 -30 -7 7 34
45 49 45 5 0 6 -7 3 -15z"/>
<path d="M15082 6348 c-7 -7 -12 -17 -12 -24 0 -17 -73 -179 -126 -279 -28
-52 -43 -90 -37 -96 5 -5 37 17 78 56 68 63 148 115 160 104 3 -3 -9 -33 -26
-66 -26 -50 -29 -64 -20 -82 7 -11 19 -21 27 -21 12 0 14 7 9 30 -5 23 1 42
25 85 37 65 34 85 -13 85 -30 0 -64 -18 -147 -77 l-24 -18 20 35 c41 69 117
261 108 270 -7 7 -14 6 -22 -2z"/>
<path d="M14893 6333 c-3 -10 -16 -45 -28 -78 -13 -33 -25 -67 -28 -76 -4 -11
-22 -19 -56 -24 -52 -7 -71 -19 -54 -36 5 -5 23 -5 43 1 18 5 35 8 37 6 2 -2
-5 -27 -17 -55 -23 -60 -27 -121 -6 -121 8 0 15 16 18 45 3 24 16 66 29 92
l24 48 55 0 c42 0 55 4 58 16 2 12 -7 16 -44 18 -26 0 -50 3 -52 6 -2 2 10 38
27 81 17 42 31 80 31 85 0 16 -31 9 -37 -8z"/>
<path d="M3035 6298 c-20 -61 -56 -194 -65 -241 -7 -32 -18 -61 -26 -64 -8 -3
-14 -19 -14 -40 0 -76 96 -112 154 -58 32 30 65 99 66 137 0 32 -24 58 -53 58
-12 0 -39 -12 -60 -26 l-38 -26 7 39 c4 21 20 80 35 132 16 51 29 95 29 97 0
10 -31 2 -35 -8z m83 -265 c4 -25 -21 -77 -51 -110 -25 -28 -68 -30 -90 -5
-15 16 -15 20 3 50 23 38 98 94 119 90 9 -2 17 -13 19 -25z"/>
<path d="M12616 6217 c-10 -23 -46 -98 -78 -166 -40 -82 -56 -127 -50 -133 7
-7 30 4 70 31 34 23 62 41 64 41 2 0 4 -23 3 -52 0 -67 20 -75 28 -11 4 26 9
60 13 75 10 41 -17 45 -68 11 -24 -16 -48 -33 -54 -36 -7 -4 3 24 21 61 85
174 97 201 90 211 -11 19 -19 12 -39 -32z"/>
<path d="M5116 6209 c-20 -17 -50 -59 -67 -94 -29 -59 -34 -64 -70 -70 -47 -8
-54 -35 -9 -35 30 0 37 -8 21 -25 -17 -19 -53 -135 -47 -151 9 -23 20 -9 36
41 7 22 24 64 37 93 l25 53 54 -2 c57 -3 71 2 59 21 -6 9 -10 9 -16 -1 -6 -10
-9 -11 -9 -1 0 7 -15 12 -41 12 l-40 0 32 59 c41 78 64 99 89 83 12 -7 21 -8
25 -2 8 13 -1 27 -25 40 -15 8 -26 4 -54 -21z"/>
<path d="M14592 6209 c-10 -15 -11 -24 -3 -32 15 -15 46 16 38 37 -9 22 -20
20 -35 -5z"/>
<path d="M12910 6169 c0 -24 23 -21 28 4 2 10 -3 17 -12 17 -10 0 -16 -9 -16
-21z"/>
<path d="M14175 6104 c-93 -41 -115 -58 -97 -76 9 -9 16 -8 29 4 10 9 41 25
68 37 l50 22 -51 -53 c-29 -29 -57 -63 -63 -75 -13 -26 -14 -60 -2 -67 4 -3
48 15 97 39 l89 45 14 -34 c16 -41 30 -48 61 -33 25 13 33 33 43 110 5 37 4
47 -8 47 -8 0 -17 -10 -19 -22 -18 -87 -22 -102 -31 -105 -6 -2 -16 10 -22 27
-17 46 -36 46 -124 1 l-80 -41 18 31 c10 17 36 48 58 68 76 70 99 112 62 111
-7 0 -48 -17 -92 -36z"/>
<path d="M2645 6098 c-7 -18 -29 -62 -49 -96 -38 -67 -44 -92 -23 -92 15 0 53
57 49 73 -2 7 0 9 4 5 4 -4 20 7 36 25 l30 32 -6 -35 c-3 -19 -9 -47 -12 -62
-8 -37 23 -39 32 -3 3 14 10 23 14 20 4 -3 15 10 23 28 9 17 25 38 37 45 29
18 35 -4 16 -66 -14 -48 -13 -62 5 -62 4 0 16 24 25 54 18 58 13 103 -13 113
-19 7 -69 -19 -66 -34 1 -6 -5 -14 -13 -17 -11 -4 -14 -1 -10 12 8 25 -9 46
-33 39 -21 -5 -29 7 -11 18 16 10 12 35 -6 35 -8 0 -21 -15 -29 -32z"/>
<path d="M6205 6109 c-22 -11 -67 -49 -101 -83 -50 -52 -62 -71 -67 -107 -4
-24 -23 -87 -43 -139 -41 -110 -44 -125 -25 -125 7 0 33 46 59 108 l45 107 36
0 c50 0 101 37 149 110 50 75 62 118 36 137 -25 18 -43 16 -89 -8z m69 -18 c6
-10 -36 -97 -62 -126 -31 -37 -74 -65 -99 -65 -21 0 -23 3 -17 23 23 77 60
124 126 160 37 19 45 21 52 8z"/>
<path d="M2228 6082 c-38 -35 -45 -39 -54 -25 -8 14 -18 2 -52 -65 -23 -44
-42 -88 -42 -96 0 -22 25 -20 36 3 18 39 139 176 142 161 1 -8 -9 -48 -22 -88
-25 -73 -24 -110 4 -127 19 -12 35 12 20 29 -14 18 -11 42 21 144 21 66 22 74
7 88 -15 15 -20 13 -60 -24z"/>
<path d="M2544 6093 c-20 -92 -67 -163 -109 -163 -33 0 -38 33 -15 101 24 69
24 79 6 79 -19 0 -57 -122 -49 -160 8 -41 42 -64 75 -51 55 21 112 109 120
185 4 38 -19 46 -28 9z"/>
<path d="M12324 6101 c-79 -48 -117 -137 -76 -174 23 -21 93 -22 132 -2 32 17
41 29 13 18 -11 -4 -14 -3 -9 5 4 7 2 12 -3 12 -6 0 -11 -4 -11 -10 0 -14 -84
-12 -98 2 -21 21 -13 45 29 87 44 43 72 52 87 25 9 -17 32 -12 32 7 0 13 -38
49 -52 49 -7 0 -27 -9 -44 -19z"/>
<path d="M11890 6093 c-14 -9 -40 -30 -58 -47 l-33 -31 10 27 c6 15 8 35 5 43
-8 21 -47 19 -76 -4 -15 -12 -33 -18 -45 -15 -16 4 -22 0 -27 -21 -4 -15 -25
-49 -47 -77 -41 -52 -45 -71 -16 -76 11 -2 29 16 53 55 33 52 112 128 123 118
6 -7 -20 -65 -52 -118 -23 -37 -27 -51 -18 -60 9 -9 21 -2 52 33 155 176 201
197 123 56 -19 -36 -34 -73 -32 -82 5 -29 27 -27 34 3 4 15 20 53 35 83 32 61
38 114 13 124 -20 8 -16 9 -44 -11z"/>
<path d="M3281 6075 c-19 -13 -38 -30 -42 -37 -5 -7 -14 -13 -21 -13 -7 0 -14
-9 -15 -20 -1 -11 -6 -34 -11 -51 -11 -35 1 -69 29 -87 22 -14 120 8 151 33
36 29 16 32 -55 9 -76 -25 -97 -21 -97 18 0 38 10 48 47 49 38 2 89 36 99 66
5 16 0 27 -16 40 -28 22 -27 22 -69 -7z m49 -22 c0 -15 -35 -43 -54 -43 -19 1
-19 2 7 25 27 24 47 32 47 18z"/>
<path d="M6377 6070 c-77 -49 -147 -200 -92 -200 7 0 15 17 18 41 6 43 42 97
91 133 27 21 28 21 42 2 19 -27 41 -8 25 22 -17 32 -36 32 -84 2z"/>
<path d="M8085 6082 c-39 -24 -46 -33 -90 -120 -25 -51 -34 -77 -27 -84 15
-15 29 -2 43 40 20 61 59 122 91 138 30 15 43 13 43 -9 0 -19 29 -14 33 6 9
45 -41 60 -93 29z"/>
<path d="M10391 6083 c-5 -10 -32 -46 -59 -81 -55 -68 -55 -68 -67 20 -6 49
-30 82 -40 56 -3 -8 -1 -27 5 -42 5 -15 10 -44 10 -65 0 -20 5 -42 12 -49 8
-8 3 -22 -24 -54 -54 -67 -88 -121 -88 -140 0 -28 18 -21 36 14 9 18 70 101
136 184 65 83 118 156 118 163 0 17 -28 13 -39 -6z"/>
<path d="M12026 6046 c-51 -47 -57 -57 -54 -87 2 -29 7 -35 30 -37 15 -2 37 2
48 8 18 10 24 8 37 -9 17 -25 38 -27 47 -6 3 9 0 15 -9 15 -21 0 -19 27 6 61
22 32 30 80 13 86 -6 2 -19 -15 -29 -38 -29 -64 -115 -118 -115 -72 0 18 73
89 101 98 11 4 19 13 19 21 0 28 -38 13 -94 -40z"/>
<path d="M13090 6084 c-19 -8 -49 -26 -67 -40 -26 -19 -33 -22 -33 -10 0 24
-28 19 -36 -6 -4 -13 -17 -39 -30 -58 -26 -38 -31 -60 -13 -60 6 0 41 27 76
61 63 58 127 99 138 87 3 -3 -6 -25 -20 -49 -39 -67 -57 -110 -51 -125 9 -23
23 -16 31 14 3 15 16 43 28 62 12 19 30 52 39 72 15 34 15 39 2 53 -19 18 -20
18 -64 -1z"/>
<path d="M8355 6083 c-51 -13 -57 -42 -20 -93 30 -41 32 -79 4 -114 -23 -30
-69 -35 -90 -10 -10 12 -10 22 -1 47 15 39 0 57 -22 26 -33 -48 -7 -117 47
-120 42 -2 52 2 85 36 41 44 43 94 7 148 l-26 37 27 10 c21 8 31 7 44 -5 28
-25 42 2 14 29 -15 16 -32 18 -69 9z"/>
<path d="M3538 6041 c-42 -45 -53 -64 -61 -108 -5 -27 -3 -33 11 -33 12 0 30
24 55 75 20 41 41 75 45 75 5 0 19 -11 32 -25 22 -23 40 -25 40 -4 0 17 -48
59 -67 59 -10 0 -34 -18 -55 -39z"/>
<path d="M11078 6063 c-17 -11 -40 -45 -62 -94 -43 -94 -45 -102 -25 -106 11
-3 25 17 48 69 44 97 57 111 98 103 41 -7 46 16 8 33 -33 15 -34 15 -67 -5z"/>
<path d="M13325 6061 c-22 -10 -49 -28 -59 -40 -11 -11 -25 -21 -32 -21 -8 0
-16 -19 -20 -47 -6 -41 -4 -49 16 -65 25 -20 118 -25 150 -8 11 6 21 6 24 1 8
-13 48 -1 43 12 -2 7 -35 10 -93 8 -72 -2 -93 1 -103 13 -21 25 -6 43 48 61
51 17 81 45 81 77 0 26 -12 28 -55 9z m5 -41 c-8 -5 -19 -10 -25 -10 -5 0 -3
5 5 10 8 5 20 10 25 10 6 0 3 -5 -5 -10z"/>
<path d="M14513 6016 c-38 -62 -39 -66 -15 -66 16 0 72 84 72 109 0 27 -28 6
-57 -43z"/>
<path d="M9315 6029 c-79 -69 -88 -163 -19 -183 14 -4 34 4 63 25 l43 31 -6
51 c-4 29 -7 64 -7 80 0 37 -28 36 -74 -4z m47 -53 c15 -21 8 -53 -16 -75 -51
-48 -86 2 -46 66 19 32 44 36 62 9z"/>
<path d="M10751 6015 c-30 -42 -114 -120 -129 -120 -15 0 -32 -17 -32 -31 0
-23 32 -15 69 16 35 29 51 31 51 4 0 -22 43 -17 84 11 l36 25 -6 -28 c-4 -15
-7 -29 -6 -32 0 -32 5 -40 22 -40 16 0 19 5 14 28 -3 16 3 46 15 75 37 85 20
103 -40 41 -18 -20 -46 -42 -61 -50 -26 -13 -28 -13 -28 3 0 10 16 42 35 71
32 47 38 72 16 72 -4 0 -22 -20 -40 -45z"/>
<path d="M6508 6022 c-17 -14 -37 -41 -45 -60 -12 -30 -12 -37 2 -58 19 -30
48 -31 100 -3 61 32 95 68 95 101 0 32 -5 34 -73 41 -41 4 -53 1 -79 -21z m77
-23 c39 14 51 10 42 -13 -8 -19 -74 -63 -109 -71 -25 -6 -28 -4 -28 18 0 32
40 84 51 66 6 -11 14 -11 44 0z"/>
<path d="M10488 6018 c-48 -52 -62 -85 -48 -119 10 -24 19 -29 45 -29 72 0
129 74 111 145 -5 21 -12 26 -26 22 -11 -3 -23 -1 -26 4 -10 16 -25 10 -56
-23z m41 -15 c-3 -20 3 -23 21 -13 32 17 26 -26 -9 -61 -68 -68 -103 -13 -38
59 22 23 28 27 26 15z"/>
<path d="M6824 6025 c-37 -15 -72 -50 -85 -84 -11 -27 7 -63 41 -81 26 -14 93
-20 110 -10 22 13 3 27 -38 27 -51 0 -82 18 -82 47 0 28 51 76 80 76 24 0 33
15 17 28 -8 7 -22 6 -43 -3z"/>
<path d="M7080 6033 c-41 -15 -100 -98 -100 -142 0 -73 68 -95 178 -58 37 13
47 44 10 32 -13 -4 -48 -9 -78 -12 -64 -6 -87 9 -76 52 5 20 13 25 39 26 57 2
61 4 76 31 12 21 13 31 3 52 -11 26 -23 30 -52 19z m18 -50 c-2 -11 -14 -19
-33 -21 -30 -4 -30 -4 -11 17 23 26 49 28 44 4z"/>
<path d="M7345 6028 c-61 -22 -69 -47 -35 -111 27 -51 26 -57 -16 -57 -28 0
-35 3 -31 15 9 22 -9 27 -28 9 -15 -15 -15 -18 1 -35 12 -13 31 -19 59 -19 67
0 81 30 45 97 -11 21 -20 43 -20 50 0 14 53 27 80 18 27 -8 27 20 1 35 -11 5
-21 10 -23 9 -2 0 -16 -5 -33 -11z"/>
<path d="M12791 5985 c-31 -54 -39 -85 -22 -85 14 0 83 111 77 126 -10 25 -24
15 -55 -41z"/>
<path d="M4805 6018 c-29 -13 -65 -81 -65 -122 0 -46 37 -74 78 -60 29 10 92
95 92 123 0 42 -64 78 -105 59z m63 -40 c23 -28 -49 -127 -82 -115 -27 11 -20
65 13 98 32 31 52 36 69 17z"/>
<path d="M9563 6009 c-18 -12 -33 -16 -33 -10 0 18 -30 13 -37 -6 -3 -10 -14
-37 -25 -61 -29 -61 -11 -73 31 -22 28 35 99 90 116 90 10 0 5 -49 -10 -83
-19 -45 -19 -57 -1 -57 16 0 46 74 46 116 0 56 -33 68 -87 33z"/>
<path d="M7518 5999 c-25 -14 -22 -54 7 -97 33 -48 32 -67 -5 -82 -29 -12 -44
-11 -82 5 -25 10 -24 -21 1 -35 30 -16 73 -12 109 10 40 25 43 62 6 115 -14
21 -23 44 -20 51 9 23 72 17 96 -8 14 -15 23 -19 30 -12 7 7 3 19 -14 37 -20
21 -34 27 -68 27 -24 0 -51 -5 -60 -11z"/>
<path d="M7769 5981 c-55 -55 -25 -141 45 -127 72 14 108 75 67 113 -58 53
-71 55 -112 14z m41 -22 c0 -6 7 -8 16 -5 19 7 44 -10 44 -31 0 -21 -68 -47
-86 -32 -17 14 -18 33 -4 60 12 21 30 26 30 8z"/>
<path d="M13805 5820 c-10 -23 -34 -54 -53 -71 -31 -27 -38 -59 -14 -59 21 0
112 130 112 160 0 25 -29 6 -45 -30z"/>
<path d="M3666 5591 c-3 -5 -3 -16 0 -25 3 -9 3 -41 0 -70 -6 -46 -11 -55 -31
-60 -14 -4 -40 -20 -60 -37 -27 -24 -35 -39 -35 -66 0 -45 23 -88 60 -110 l30
-17 0 -128 c0 -70 -4 -128 -9 -128 -19 0 -76 47 -94 79 -19 32 -19 34 -3 62
14 23 14 29 3 29 -24 0 -47 -35 -47 -71 0 -51 31 -93 89 -120 l51 -24 -6 -117
c-7 -115 -5 -125 24 -115 4 1 7 27 7 57 0 30 1 83 3 116 l2 61 38 6 c43 7 97
57 107 100 10 38 -35 127 -87 171 l-41 35 7 88 c4 48 9 89 11 91 9 9 45 -11
50 -29 6 -18 45 -28 45 -10 0 15 -42 63 -64 71 -19 7 -21 15 -21 85 0 50 -4
79 -12 82 -6 2 -14 0 -17 -6z m-21 -268 c-4 -43 -9 -80 -11 -82 -10 -10 -54
46 -60 76 -5 26 -2 36 21 57 49 46 58 37 50 -51z m100 -237 c20 -41 24 -58 17
-77 -13 -32 -40 -56 -74 -64 l-28 -7 0 122 0 121 29 -21 c17 -11 41 -44 56
-74z"/>
<path d="M9941 5432 c-6 -11 -11 -28 -11 -36 0 -9 -7 -16 -16 -16 -9 0 -14 -7
-12 -17 2 -11 12 -18 28 -18 21 0 26 6 33 44 10 50 -4 77 -22 43z"/>
<path d="M10027 5433 c-16 -27 -25 -88 -16 -106 15 -27 25 -11 33 50 6 46 -4
78 -17 56z"/>
<path d="M6831 5368 c-19 -53 -34 -127 -27 -143 3 -10 9 -15 13 -11 8 8 42
134 42 159 1 25 -18 21 -28 -5z"/>
<path d="M4734 5338 c3 -18 9 -69 12 -113 6 -71 5 -78 -8 -61 -34 44 -103 -17
-103 -91 0 -85 62 -97 112 -21 26 39 28 48 28 152 -1 126 -8 166 -31 166 -13
0 -15 -7 -10 -32z m-6 -210 c18 -18 15 -33 -14 -68 -31 -36 -48 -29 -46 20 1
51 33 75 60 48z"/>
<path d="M6894 5345 c-10 -41 -10 -88 2 -92 12 -4 37 93 28 108 -10 16 -24 9
-30 -16z"/>
<path d="M9640 5345 c0 -8 5 -15 10 -15 6 0 22 -24 35 -52 49 -105 28 -233
-56 -339 -27 -34 -29 -40 -14 -46 22 -8 44 19 92 115 32 64 36 82 36 145 0 58
-5 85 -27 132 -15 33 -32 63 -39 67 -19 12 -37 9 -37 -7z"/>
<path d="M9303 5329 c-62 -39 -118 -156 -130 -270 -9 -88 26 -131 120 -144 40
-6 46 -5 41 8 -3 9 -24 19 -46 22 -23 4 -52 18 -66 32 -22 22 -24 31 -19 76
12 115 70 226 135 257 34 16 43 40 15 40 -10 0 -32 -10 -50 -21z"/>
<path d="M8567 5232 c-9 -10 -32 -52 -51 -93 -19 -42 -47 -87 -65 -102 -33
-27 -38 -41 -20 -52 5 -4 28 12 49 35 l38 41 14 -28 c17 -37 56 -42 88 -11
l25 23 15 -30 c16 -33 50 -47 50 -21 0 9 -4 16 -9 16 -17 0 -22 38 -10 83 8
34 8 50 -1 66 -15 29 -28 18 -41 -35 -7 -28 -23 -54 -42 -70 -29 -25 -32 -25
-44 -8 -17 23 -8 73 24 137 30 60 18 91 -20 49z"/>
<path d="M8863 5230 c-59 -24 -52 -95 14 -157 38 -36 44 -45 33 -58 -22 -26
-110 -17 -110 11 0 8 -7 14 -15 14 -8 0 -15 -9 -15 -19 0 -51 111 -70 164 -28
36 29 30 55 -24 92 -21 15 -44 41 -50 58 -9 28 -8 34 11 50 24 19 42 21 69 7
26 -14 39 9 15 27 -21 15 -59 16 -92 3z"/>
<path d="M4948 5215 c-57 -31 -94 -142 -68 -204 6 -16 24 -35 40 -41 36 -15
135 -3 152 18 10 12 10 14 1 8 -7 -4 -13 -3 -13 2 0 5 -22 6 -52 1 -65 -11
-86 -5 -99 28 -13 36 -13 36 35 56 81 33 114 80 84 119 -19 24 -50 29 -80 13z
m55 -31 c11 -11 -12 -43 -43 -59 -56 -29 -65 -15 -24 34 24 29 52 39 67 25z"/>
<path d="M8280 5223 c-8 -3 -30 -19 -47 -36 -18 -17 -33 -26 -33 -20 0 7 5 15
11 19 8 5 6 10 -5 16 -27 15 -37 -1 -36 -60 1 -32 -3 -91 -9 -132 -23 -169
-25 -210 -9 -210 9 0 18 13 22 31 3 17 12 45 20 62 8 18 16 45 18 60 2 24 10
32 41 42 65 22 114 83 131 161 6 27 3 35 -20 53 -26 20 -53 25 -84 14z m68
-58 c5 -54 -71 -145 -122 -145 -26 0 -21 79 7 121 43 64 110 78 115 24z"/>
<path d="M4226 5208 c-10 -33 -35 -251 -30 -259 11 -19 24 4 54 99 18 53 37
103 42 110 25 29 31 11 24 -76 -5 -69 -3 -92 8 -107 12 -16 17 -17 27 -8 10
10 9 15 -1 27 -9 12 -10 29 -2 75 20 111 -17 164 -75 109 l-23 -21 0 21 c0 12
5 22 11 22 5 0 7 5 4 10 -9 14 -35 12 -39 -2z"/>
<path d="M6145 5201 c-17 -10 -43 -32 -57 -50 -15 -17 -31 -31 -37 -31 -6 0
-11 -3 -11 -6 0 -3 -11 -60 -25 -126 -30 -143 -33 -216 -9 -225 24 -9 31 11
44 122 l13 102 25 -24 c30 -28 71 -30 103 -4 35 27 72 108 77 167 4 43 1 55
-17 73 -26 26 -66 27 -106 2z m83 -23 c40 -40 -32 -208 -89 -208 -21 0 -40 23
-56 68 -13 39 -6 59 36 101 48 48 86 62 109 39z"/>
<path d="M7465 5196 c-75 -32 -83 -77 -30 -152 40 -56 40 -57 19 -78 -20 -20
-58 -20 -78 0 -17 17 -36 11 -36 -12 0 -18 40 -34 85 -34 24 0 39 7 54 26 29
36 27 51 -15 111 -20 28 -34 60 -32 70 2 10 19 26 38 36 33 16 35 16 38 0 6
-30 20 -36 31 -14 9 15 9 27 1 41 -12 23 -33 25 -75 6z"/>
<path d="M7945 5194 c-78 -42 -110 -104 -83 -161 7 -15 24 -33 38 -39 58 -27
161 -21 120 6 -8 5 -32 10 -53 10 -37 0 -87 34 -87 59 0 47 73 111 126 111 16
0 24 5 22 13 -7 18 -49 19 -83 1z"/>
<path d="M4502 5180 c-26 -11 -61 -81 -62 -122 0 -62 70 -79 114 -27 32 37 34
81 6 127 -21 35 -23 35 -58 22z m38 -50 c16 -39 5 -78 -26 -92 -39 -18 -49 0
-35 59 11 43 24 62 42 63 4 0 12 -13 19 -30z"/>
<path d="M7162 5160 c-34 -21 -82 -98 -82 -133 0 -30 40 -74 76 -83 35 -9 107
27 122 61 27 60 22 141 -10 149 -7 2 -27 8 -45 13 -25 9 -37 7 -61 -7z m54
-50 c8 0 12 5 9 10 -3 6 1 10 10 10 23 0 36 -42 24 -85 -7 -24 -21 -43 -42
-55 -41 -25 -50 -25 -83 4 -26 22 -27 25 -14 56 7 18 25 46 38 62 22 25 27 27
34 14 5 -9 16 -16 24 -16z"/>
<path d="M5790 5105 c-28 -7 -46 -18 -48 -28 -4 -21 -5 -21 74 0 54 15 68 15
86 4 29 -18 52 4 24 25 -23 16 -73 16 -136 -1z"/>
<path d="M7622 4958 c-7 -7 -12 -20 -12 -31 0 -24 33 -19 38 7 5 24 -11 39
-26 24z"/>
<path d="M9191 4139 c-6 -18 -11 -40 -11 -49 0 -23 -99 -263 -111 -271 -5 -3
-39 -12 -74 -19 -40 -8 -65 -19 -65 -27 0 -15 32 -17 79 -3 19 5 36 9 37 7 1
-1 -13 -33 -32 -71 -31 -66 -34 -86 -14 -86 5 0 28 38 50 85 37 77 43 85 78
94 66 19 73 14 37 -25 -45 -49 -59 -83 -46 -117 9 -22 17 -27 46 -27 29 0 46
9 82 43 40 38 46 49 47 87 1 39 -3 46 -34 68 -35 23 -49 24 -127 5 -22 -5 -22
-4 8 62 42 93 91 244 85 261 -9 23 -23 16 -35 -17z m74 -358 c17 -54 -92 -156
-120 -111 -10 16 22 66 62 99 44 36 50 37 58 12z"/>
<path d="M11402 4088 c-23 -29 -52 -100 -86 -209 -50 -160 -109 -242 -161
-223 -41 16 18 123 88 157 20 10 35 23 31 28 -28 46 -164 -84 -164 -157 0 -25
7 -38 25 -50 35 -23 72 -11 116 37 42 45 57 78 98 210 30 99 63 173 81 184 15
9 12 35 -4 35 -7 0 -18 -6 -24 -12z"/>
<path d="M14868 4083 c-8 -10 -29 -65 -47 -123 -41 -132 -83 -212 -135 -256
-43 -37 -72 -40 -90 -12 -14 22 7 60 51 94 26 20 37 23 48 14 17 -14 29 3 20
30 -9 27 -25 25 -72 -9 -79 -57 -101 -110 -67 -159 27 -39 76 -30 135 25 61
57 85 103 133 248 20 61 41 118 46 127 21 37 5 52 -22 21z"/>
<path d="M2487 4074 c-3 -3 -3 -12 -1 -19 11 -29 -44 -255 -86 -354 -28 -65
-31 -91 -11 -91 4 0 19 26 33 58 30 64 89 127 129 137 38 9 41 -9 13 -95 -13
-41 -24 -87 -24 -102 0 -40 27 -36 32 5 3 17 15 67 28 109 24 76 24 77 5 99
-23 24 -75 21 -106 -7 -26 -23 -33 -12 -20 28 16 49 49 227 43 233 -7 7 -27 6
-35 -1z"/>
<path d="M5167 4053 c-2 -5 -10 -26 -17 -48 -24 -74 -59 -135 -75 -129 -9 4
-15 1 -15 -7 0 -7 -6 -5 -14 7 -11 14 -17 16 -26 7 -17 -15 -4 -33 24 -33 34
0 35 -6 15 -61 -26 -69 -25 -114 6 -144 37 -38 135 -30 135 9 0 11 -7 12 -34
4 -47 -15 -84 -4 -92 28 -8 29 22 139 42 155 8 6 46 14 85 18 44 3 74 11 77
19 5 16 -47 20 -114 8 l-35 -7 15 29 c17 33 56 133 56 145 0 4 -6 7 -14 7 -8
0 -17 -3 -19 -7z"/>
<path d="M8433 4048 c-5 -7 -17 -56 -26 -108 -20 -114 -61 -204 -118 -255 -50
-45 -92 -46 -97 -3 -5 40 22 82 78 123 35 26 48 41 41 48 -18 18 -110 -53
-138 -108 -44 -84 19 -155 100 -114 67 35 129 138 156 260 10 46 24 97 30 113
18 44 -2 75 -26 44z"/>
<path d="M2410 4043 c-14 -2 -45 -8 -70 -14 -80 -19 -302 -37 -443 -35 -117 1
-137 -1 -135 -14 3 -12 24 -16 98 -18 116 -4 369 14 465 34 39 8 80 14 92 14
24 0 40 18 27 29 -5 4 -20 6 -34 4z"/>
<path d="M10597 4023 c-3 -10 -8 -31 -11 -46 -4 -16 -34 -89 -67 -163 -44 -97
-61 -149 -62 -182 -2 -34 2 -47 12 -47 8 0 14 14 15 40 2 22 20 78 40 125 71
158 94 218 98 251 3 34 -17 52 -25 22z"/>
<path d="M15330 3993 c-7 -21 -46 -100 -87 -175 -53 -99 -76 -152 -80 -188 -5
-40 -3 -50 9 -50 11 0 17 15 22 46 4 29 30 91 72 167 69 128 107 215 98 229
-11 17 -23 7 -34 -29z"/>
<path d="M6631 3956 c-7 -8 -8 -17 -3 -20 15 -9 52 5 52 20 0 18 -34 18 -49 0z"/>
<path d="M2136 3948 c-2 -7 -8 -38 -14 -68 -6 -30 -24 -114 -39 -185 -27 -132
-27 -179 2 -155 7 6 12 17 9 24 -3 7 9 77 27 157 45 208 48 223 43 231 -8 12
-24 9 -28 -4z"/>
<path d="M5431 3951 c-17 -11 -6 -31 18 -31 25 0 33 11 20 27 -13 15 -19 16
-38 4z"/>
<path d="M9942 3906 c-18 -13 -49 -46 -70 -72 -20 -27 -43 -55 -49 -62 -7 -7
-13 -20 -13 -27 0 -8 -9 -19 -20 -25 -14 -7 -20 -21 -20 -43 0 -18 -22 -76
-50 -132 -28 -55 -50 -106 -50 -112 0 -43 58 33 102 134 19 44 27 53 49 53 51
0 154 95 190 174 21 47 25 106 7 124 -18 18 -41 15 -76 -12z m55 -46 c-7 -57
-50 -124 -108 -170 -45 -35 -79 -50 -79 -35 0 26 74 150 115 192 63 65 80 68
72 13z"/>
<path d="M15640 3887 c-31 -15 -39 -71 -16 -116 18 -33 21 -91 7 -91 -6 0 -17
10 -25 22 -17 24 -46 33 -46 14 0 -7 13 -25 29 -40 64 -61 108 -1 70 96 -25
64 -24 76 7 90 22 10 27 9 35 -5 11 -19 39 -23 39 -6 0 44 -48 62 -100 36z"/>
<path d="M3850 3846 c0 -17 -9 -60 -20 -96 -23 -77 -25 -110 -6 -110 17 0 21
11 41 98 9 37 22 77 31 89 20 31 52 30 64 -2 5 -14 14 -25 20 -25 19 0 22 30
6 55 -15 22 -23 25 -76 23 -60 -2 -60 -2 -60 -32z"/>
<path d="M4894 3870 c-25 -10 -69 -61 -93 -109 -11 -20 -29 -81 -40 -136 -12
-55 -27 -117 -33 -138 -9 -28 -8 -41 0 -49 13 -13 26 14 63 126 17 52 26 66
42 66 88 0 184 173 128 229 -23 23 -34 25 -67 11z m46 -35 c21 -26 3 -82 -44
-130 -50 -53 -82 -60 -72 -17 21 87 30 108 56 134 32 32 42 34 60 13z"/>
<path d="M7988 3851 c-69 -44 -117 -137 -90 -177 10 -15 47 -34 67 -34 8 0 32
7 52 15 26 11 33 19 26 26 -8 8 -21 8 -47 -1 -26 -8 -41 -8 -56 0 -30 16 -26
48 8 56 42 9 122 66 128 91 15 59 -19 68 -88 24z m62 -11 c0 -11 -78 -70 -93
-70 -15 0 23 40 58 61 35 22 35 22 35 9z"/>
<path d="M10106 3849 c-33 -29 -86 -125 -86 -156 0 -8 7 -13 17 -11 10 2 27
27 41 63 13 33 32 69 43 80 17 17 22 18 40 7 12 -8 18 -9 15 -4 -3 6 -1 12 5
14 17 6 -1 38 -22 38 -10 0 -34 -14 -53 -31z"/>
<path d="M12445 3852 c-77 -57 -145 -147 -145 -193 0 -40 36 -62 87 -54 36 6
130 33 145 42 4 2 5 9 2 17 -4 10 -15 9 -57 -5 -46 -15 -97 -23 -134 -20 -34
3 12 101 47 101 32 0 110 41 126 66 21 31 15 68 -11 72 -12 2 -39 -10 -60 -26z
m26 -42 c-33 -28 -76 -47 -65 -28 11 17 87 68 93 62 3 -3 -9 -19 -28 -34z"/>
<path d="M14212 3830 c-34 -27 -64 -50 -67 -50 -3 0 -3 11 1 25 7 29 -18 45
-46 27 -10 -6 -27 -8 -38 -5 -17 4 -24 -2 -35 -29 -8 -19 -38 -55 -67 -80 -46
-40 -58 -68 -31 -68 5 0 45 34 91 76 45 41 84 73 87 70 3 -3 0 -19 -6 -37 -23
-67 -10 -65 82 9 100 81 99 81 77 16 -25 -72 -26 -97 -3 -92 10 2 19 12 21 23
1 11 10 46 19 77 16 59 13 88 -10 88 -7 0 -41 -22 -75 -50z"/>
<path d="M12015 3856 c-57 -26 -115 -114 -115 -176 0 -69 41 -78 116 -27 82
56 114 139 74 190 -24 30 -32 32 -75 13z m57 -43 c12 -48 -32 -117 -95 -149
-34 -18 -47 -11 -47 25 0 35 58 124 83 127 11 1 21 5 25 8 11 12 30 6 34 -11z"/>
<path d="M12255 3854 c-16 -8 -40 -25 -52 -36 -20 -19 -23 -19 -23 -5 0 31
-19 17 -39 -28 -11 -25 -29 -59 -41 -74 -22 -32 -26 -51 -10 -51 5 0 47 38 92
85 117 120 133 115 56 -17 -40 -67 -47 -113 -18 -113 9 0 14 7 12 18 -2 9 16
49 39 89 26 45 42 85 43 107 1 42 -15 49 -59 25z"/>
<path d="M13448 3859 c-29 -11 -108 -109 -108 -134 0 -9 -7 -30 -16 -47 -11
-22 -13 -33 -5 -41 15 -15 25 -3 56 73 15 36 37 76 48 89 28 30 67 45 81 31
15 -15 36 -12 36 5 0 15 -30 36 -52 34 -7 0 -25 -5 -40 -10z"/>
<path d="M15423 3848 c-30 -23 -90 -96 -113 -137 -16 -30 -5 -57 30 -71 35
-14 65 -10 65 10 0 8 -6 14 -14 12 -24 -5 -51 9 -51 26 0 22 30 48 51 44 21
-4 80 38 99 71 11 20 12 31 4 44 -16 26 -36 26 -71 1z m31 -43 c-9 -13 -24
-27 -35 -30 -11 -4 -16 -11 -13 -18 5 -8 3 -8 -6 0 -12 11 -9 18 15 43 36 38
63 42 39 5z"/>
<path d="M7803 3834 c-41 -31 -43 -64 -7 -111 32 -42 25 -73 -17 -73 -34 0
-40 -25 -8 -35 31 -10 73 24 77 62 2 21 -5 40 -23 61 -31 36 -30 63 3 77 12 5
22 18 22 27 0 24 -9 22 -47 -8z"/>
<path d="M10230 3812 c-106 -110 -99 -195 16 -177 39 5 44 9 44 31 0 14 -3 24
-7 22 -5 -2 -20 -10 -35 -17 -37 -19 -60 -8 -56 26 2 20 9 28 23 29 34 2 105
44 116 68 14 31 -4 66 -33 66 -13 0 -41 -20 -68 -48z m64 -13 c-9 -10 -25 -21
-35 -24 -11 -4 -17 -11 -14 -16 4 -5 4 -9 1 -9 -19 0 -12 25 14 50 34 32 63
31 34 -1z"/>
<path d="M6748 3834 c-32 -17 -34 -34 -13 -94 8 -23 15 -53 15 -66 0 -33 -33
-48 -72 -35 -41 14 -48 14 -48 -4 0 -8 17 -19 40 -26 47 -14 80 -3 105 34 14
22 14 29 -5 88 -19 61 -19 65 -2 77 10 8 30 11 49 8 35 -5 55 10 32 25 -21 13
-71 10 -101 -7z"/>
<path d="M7490 3788 c-19 -33 -61 -85 -94 -114 -43 -39 -57 -58 -52 -71 6 -14
13 -10 48 26 34 35 43 40 50 27 5 -9 20 -16 33 -16 23 0 107 56 133 88 16 21
15 12 -3 -31 -19 -46 -19 -91 0 -107 18 -15 45 -6 45 16 0 10 -5 14 -15 10
-23 -8 -19 19 16 114 17 47 31 92 32 100 4 31 -27 13 -67 -40 -40 -52 -117
-120 -137 -120 -12 0 10 53 49 115 17 27 28 53 26 57 -12 19 -31 3 -64 -54z"/>
<path d="M13215 3838 c-86 -48 -130 -157 -79 -199 22 -18 87 5 118 42 25 30
36 95 19 113 -4 4 -8 17 -8 29 0 25 -21 32 -50 15z m32 -69 c3 -50 -9 -74 -47
-94 -38 -20 -47 -19 -55 5 -12 37 51 130 89 130 6 0 12 -19 13 -41z"/>
<path d="M14385 3796 c-61 -61 -75 -97 -54 -135 19 -34 65 -39 116 -12 72 39
103 77 103 129 0 56 -15 72 -66 72 -41 0 -50 -5 -99 -54z m133 -12 c4 -38 -26
-78 -79 -104 -67 -35 -84 -26 -67 36 15 55 71 106 112 101 26 -3 31 -8 34 -33z"/>
<path d="M2728 3825 c-38 -21 -73 -98 -62 -137 20 -69 108 -93 189 -52 41 20
63 52 29 41 -11 -3 -39 -12 -64 -20 -52 -16 -104 -7 -119 22 -9 15 -1 23 49
51 64 36 78 57 60 90 -12 23 -44 25 -82 5z m55 -30 c1 -6 -18 -21 -42 -34 -42
-23 -43 -23 -32 -3 21 39 70 63 74 37z"/>
<path d="M4592 3820 c-45 -42 -65 -112 -48 -167 26 -81 190 26 190 124 0 44
-24 63 -79 63 -28 0 -48 -7 -63 -20z m107 -28 c21 -39 -53 -132 -105 -132 -21
0 -24 4 -24 38 0 38 40 117 47 95 6 -18 33 -16 33 2 0 21 37 19 49 -3z"/>
<path d="M14862 3787 c-28 -65 -28 -92 0 -111 42 -30 135 -12 178 34 35 37 52
93 35 116 -17 24 -35 9 -29 -25 12 -56 -84 -124 -152 -107 -29 8 -29 18 -4 75
23 50 25 71 8 71 -7 0 -23 -24 -36 -53z"/>
<path d="M3617 3817 c-45 -8 -57 -14 -54 -26 2 -9 9 -15 16 -13 7 1 40 5 74 8
76 7 93 12 81 23 -16 15 -58 18 -117 8z"/>
<path d="M5528 3784 c-32 -17 -88 -91 -88 -117 0 -26 17 -55 40 -67 28 -15 75
14 96 59 13 26 14 45 8 84 -10 56 -17 61 -56 41z m28 -92 c-4 -16 -17 -39 -30
-51 -22 -20 -25 -21 -40 -6 -23 24 -20 40 16 80 27 32 33 34 46 22 9 -10 12
-25 8 -45z"/>
<path d="M5840 3779 c-19 -12 -48 -33 -64 -48 -25 -23 -27 -24 -17 -4 16 31
14 63 -4 63 -8 0 -15 -7 -15 -15 0 -9 -18 -49 -40 -89 -43 -77 -49 -106 -25
-106 8 0 15 4 15 8 0 15 72 93 123 133 71 56 81 52 51 -23 -15 -36 -23 -70
-20 -84 9 -32 38 -47 71 -34 34 13 27 36 -8 32 -39 -5 -42 16 -12 79 29 62 32
94 9 103 -23 9 -25 8 -64 -15z"/>
<path d="M5356 3778 c-2 -7 -13 -39 -25 -71 -20 -56 -20 -77 -1 -77 11 0 50
104 50 135 0 26 -18 35 -24 13z"/>
<path d="M10687 3783 c-4 -3 -7 -13 -7 -20 0 -8 -11 -29 -25 -47 -68 -90 10
-160 90 -81 33 34 41 57 35 110 -1 11 -7 26 -12 33 -11 13 -70 17 -81 5z m63
-62 c0 -32 -6 -44 -31 -65 -38 -32 -59 -33 -59 -3 0 23 63 107 81 107 5 0 9
-18 9 -39z"/>
<path d="M10895 3772 c-37 -23 -85 -78 -85 -97 0 -17 27 -45 43 -45 7 0 27 9
45 20 l32 20 0 -28 c0 -27 15 -52 32 -52 5 0 5 18 2 40 -5 30 -2 48 15 75 22
37 27 65 13 65 -5 0 -32 -22 -60 -50 -52 -50 -82 -63 -82 -36 0 21 61 65 85
63 14 -1 20 4 20 18 0 27 -24 29 -60 7z"/>
<path d="M6521 3674 c-25 -55 -31 -78 -23 -86 8 -8 21 9 47 63 38 79 42 99 23
99 -7 0 -28 -34 -47 -76z"/>
<path d="M1497 3608 c-2 -24 -17 -103 -32 -175 -24 -113 -31 -133 -46 -133
-30 0 -24 -47 10 -81 53 -52 130 -28 170 53 48 100 1 175 -78 127 -29 -17 -31
-18 -31 -1 0 9 9 54 20 100 24 99 26 152 6 152 -9 0 -16 -15 -19 -42z m90
-244 c16 -44 -50 -144 -95 -144 -36 0 -45 15 -32 54 24 73 110 134 127 90z"/>
<path d="M6284 3555 c4 -15 -1 -61 -11 -106 l-18 -79 -40 0 c-54 0 -115 -18
-122 -36 -8 -22 5 -30 29 -15 11 7 45 15 74 18 l54 6 -4 -29 c-14 -85 -15
-115 -6 -139 17 -44 30 -18 30 58 0 79 5 93 34 98 27 5 33 29 7 29 -25 0 -26
13 -5 92 19 76 16 122 -10 126 -16 3 -18 0 -12 -23z"/>
<path d="M4567 3564 c-4 -4 -7 -50 -7 -103 0 -120 -6 -142 -34 -140 -49 4 -76
-1 -76 -16 0 -11 12 -15 50 -15 l50 0 0 -72 c0 -71 11 -110 27 -95 4 5 6 44 4
87 l-3 80 55 0 c40 0 56 4 61 15 3 8 12 15 21 15 8 0 15 4 15 9 0 18 -16 20
-44 5 -16 -7 -46 -14 -68 -14 -34 0 -39 3 -33 19 11 35 10 224 -1 228 -5 2
-13 0 -17 -3z"/>
<path d="M10378 3545 c-12 -15 -28 -33 -34 -39 -37 -39 -124 -168 -119 -176 4
-6 2 -9 -3 -8 -17 5 -122 -147 -122 -176 0 -5 9 -1 20 9 11 10 17 21 15 25 -3
4 2 10 9 13 17 7 116 145 116 161 0 6 9 17 19 23 19 12 20 11 5 -30 -25 -70
-29 -150 -10 -170 10 -9 25 -17 35 -17 24 0 133 115 160 169 29 55 35 49 14
-15 -18 -59 -12 -124 14 -124 12 0 14 7 9 36 -5 26 0 57 19 114 27 80 30 130
9 137 -7 2 -35 -36 -62 -84 -57 -99 -153 -210 -172 -198 -30 18 25 207 91 309
35 56 26 86 -13 41z"/>
<path d="M6428 3554 c-3 -3 -4 -40 -1 -82 4 -58 0 -99 -16 -165 -25 -104 -26
-117 -8 -117 8 0 33 36 57 80 79 147 107 145 102 -6 -1 -62 1 -94 8 -94 6 0 8
5 5 10 -3 6 -2 10 3 10 5 0 13 29 17 64 8 76 -7 141 -36 157 -18 9 -26 5 -62
-33 l-42 -43 0 102 c0 92 -10 135 -27 117z"/>
<path d="M13255 3551 c-3 -6 -3 -15 0 -21 9 -15 -23 -125 -67 -233 -29 -69
-38 -101 -30 -109 7 -7 19 2 41 32 17 24 45 53 63 66 60 45 80 24 48 -50 -23
-55 -25 -76 -7 -76 18 0 60 116 53 145 -9 34 -51 43 -89 21 -16 -9 -31 -15
-33 -13 -2 2 8 37 22 78 28 80 36 159 17 166 -6 2 -14 -1 -18 -6z"/>
<path d="M11640 3530 c-6 -12 -22 -49 -35 -83 l-23 -62 -42 3 c-50 5 -52 -17
-3 -30 29 -7 31 -11 37 -69 6 -49 13 -68 36 -90 29 -30 60 -38 60 -17 0 6 -14
23 -30 37 -23 20 -32 37 -36 73 l-7 47 73 3 c48 2 75 7 78 16 3 9 -14 12 -62
12 -78 0 -80 3 -39 98 19 45 23 66 16 73 -8 8 -15 5 -23 -11z"/>
<path d="M11830 3518 c-5 -13 -16 -62 -25 -110 -8 -47 -22 -105 -30 -129 -8
-23 -15 -48 -15 -55 0 -20 28 -17 34 4 9 28 94 115 105 107 7 -4 9 -26 4 -62
-5 -45 -3 -55 8 -51 21 7 36 113 19 133 -18 22 -44 19 -80 -11 l-31 -27 5 24
c14 60 36 175 36 187 0 20 -20 14 -30 -10z"/>
<path d="M2005 3479 c-45 -42 -85 -123 -85 -174 0 -19 -9 -28 -36 -40 -21 -8
-34 -20 -31 -27 5 -14 11 -14 39 -3 16 6 17 3 11 -26 -12 -58 -10 -94 7 -94
10 0 16 12 17 35 4 63 18 95 41 98 31 5 31 52 1 52 -18 0 -20 4 -14 33 18 79
82 157 131 157 15 0 24 6 24 15 0 10 -10 15 -30 15 -22 0 -43 -12 -75 -41z"/>
<path d="M8784 3507 c-3 -9 -11 -38 -18 -64 l-12 -48 -53 -3 c-63 -4 -65 -23
-2 -37 41 -9 42 -10 40 -50 -3 -70 0 -85 26 -110 18 -19 35 -25 70 -25 25 0
45 4 45 10 0 5 7 7 15 4 10 -4 15 0 15 12 0 15 2 16 9 5 6 -9 11 -10 15 -2 11
17 -17 23 -48 11 -40 -15 -82 -12 -100 6 -17 16 -22 109 -8 131 4 6 32 13 62
15 68 4 68 22 0 26 -55 3 -55 4 -39 71 6 30 7 47 0 54 -7 7 -12 5 -17 -6z"/>
<path d="M12120 3490 c-11 -7 -11 -11 -1 -24 17 -20 27 -20 34 -2 8 19 -15 37
-33 26z"/>
<path d="M4910 3466 c0 -10 9 -16 21 -16 24 0 21 23 -4 28 -10 2 -17 -3 -17
-12z"/>
<path d="M8300 3465 c0 -18 24 -30 40 -20 8 5 8 11 -1 21 -15 19 -39 18 -39
-1z"/>
<path d="M7637 3416 c-46 -17 -77 -43 -77 -65 0 -9 18 -38 40 -65 22 -26 40
-54 40 -61 0 -22 -36 -27 -76 -10 -26 10 -41 12 -48 5 -15 -15 2 -27 55 -41
41 -11 50 -10 73 4 37 25 33 56 -14 116 -22 28 -40 53 -40 55 0 16 66 37 96
31 26 -4 34 -3 34 9 0 9 -9 20 -19 26 -23 12 -17 12 -64 -4z"/>
<path d="M6706 3401 c-33 -22 -86 -102 -86 -130 0 -36 19 -71 50 -90 56 -34
190 -36 190 -3 0 4 -28 8 -63 9 -64 1 -137 24 -137 42 0 5 -3 16 -6 25 -4 11
5 18 34 26 43 11 102 68 102 98 0 43 -38 53 -84 23z m20 -68 c-34 -29 -61 -31
-46 -4 5 11 22 29 37 41 26 20 28 21 32 4 2 -10 -8 -28 -23 -41z"/>
<path d="M7862 3410 c-84 -34 -128 -110 -98 -168 19 -36 38 -49 82 -53 35 -4
104 28 104 48 0 17 -22 16 -46 -2 -20 -15 -72 -20 -90 -7 -22 15 -34 50 -25
75 12 32 67 77 102 84 16 3 29 12 29 19 0 16 -24 17 -58 4z"/>
<path d="M10633 3395 c-39 -17 -41 -34 -13 -105 30 -75 28 -80 -30 -80 -38 0
-50 -4 -50 -15 0 -11 13 -15 53 -15 82 0 94 26 57 120 -23 59 -19 72 20 68 35
-4 42 10 15 28 -17 10 -26 10 -52 -1z"/>
<path d="M1713 3378 c-28 -31 -50 -76 -58 -119 -5 -27 -2 -41 15 -62 18 -23
29 -27 69 -27 50 0 100 25 83 42 -6 6 -17 6 -30 -1 -34 -18 -90 -14 -102 8
-14 26 -13 31 6 31 16 0 73 36 86 55 9 12 10 58 2 79 -9 23 -47 20 -71 -6z
m43 -53 c-3 -8 -19 -21 -36 -30 l-31 -16 15 30 c9 16 24 37 33 47 17 17 18 17
21 0 2 -9 1 -23 -2 -31z"/>
<path d="M3460 3392 c0 -6 13 -24 29 -41 17 -18 33 -42 37 -53 7 -23 5 -25
-81 -95 -32 -27 -36 -33 -22 -39 12 -4 34 8 71 40 l54 46 37 -50 c20 -27 41
-50 45 -50 23 0 18 24 -14 64 -20 23 -36 47 -36 53 0 5 14 22 30 36 27 25 40
57 23 57 -4 0 -21 -13 -38 -30 l-30 -29 -35 47 c-32 43 -70 67 -70 44z"/>
<path d="M8067 3377 c-43 -35 -64 -141 -32 -167 18 -15 35 -5 35 20 0 10 5 22
10 25 15 9 0 27 -17 21 -23 -9 -7 43 22 73 23 23 25 24 43 8 20 -18 52 -23 52
-8 0 13 -54 51 -72 51 -7 0 -25 -10 -41 -23z"/>
<path d="M3234 3371 c-43 -26 -74 -69 -74 -102 0 -15 -4 -31 -10 -34 -15 -9
28 -62 62 -76 54 -22 213 18 194 49 -4 8 -16 7 -39 -3 -50 -21 -122 -28 -146
-16 -27 15 -27 27 2 35 31 7 96 74 104 105 4 18 0 29 -17 43 -28 23 -37 23
-76 -1z m66 -32 c0 -16 -77 -89 -93 -89 -19 0 -22 22 -6 51 21 40 99 70 99 38z"/>
<path d="M3758 3369 c-93 -48 -92 -167 0 -206 59 -25 205 -1 175 28 -4 4 -32
3 -61 -3 -62 -13 -126 1 -142 31 -8 16 -3 21 35 36 69 26 107 89 73 123 -17
17 -37 14 -80 -9z m62 -22 c0 -23 -23 -46 -62 -62 -21 -8 -38 -13 -38 -11 0
21 28 56 53 69 40 20 47 20 47 4z"/>
<path d="M10834 3371 c-59 -36 -114 -122 -114 -178 0 -7 9 -22 20 -33 35 -35
149 -22 165 18 4 11 0 13 -17 8 -13 -4 -43 -10 -67 -13 -55 -7 -74 11 -60 60
10 36 24 53 33 39 3 -6 28 1 61 16 63 29 82 65 50 89 -25 17 -34 17 -71 -6z
m49 -32 c-14 -14 -85 -41 -78 -29 11 18 68 50 78 43 5 -3 5 -9 0 -14z"/>
<path d="M12838 3362 c-27 -8 -48 -21 -48 -29 0 -16 17 -17 59 -2 18 6 34 9
37 6 2 -2 -18 -39 -46 -81 -46 -68 -55 -96 -30 -96 4 0 32 18 61 40 30 22 57
40 61 40 4 0 14 -15 22 -34 18 -43 29 -49 72 -41 42 7 76 55 72 100 -4 44 -32
40 -34 -5 -2 -34 -32 -70 -59 -70 -6 0 -19 18 -28 40 -17 45 -45 52 -86 24
-23 -17 -23 -16 3 29 29 49 31 91 6 94 -8 1 -36 -6 -62 -15z"/>
<path d="M2510 3336 c-46 -36 -79 -87 -80 -122 0 -12 9 -33 21 -48 19 -24 26
-26 95 -26 70 0 75 2 86 25 15 34 -4 58 -21 26 -10 -18 -21 -21 -71 -21 -49 0
-61 3 -70 20 -9 17 -8 20 7 20 27 1 112 67 123 96 12 31 -3 64 -29 64 -10 0
-38 -15 -61 -34z m39 -43 c-13 -14 -37 -31 -52 -40 -27 -13 -28 -13 -18 5 17
31 84 87 89 73 2 -7 -6 -24 -19 -38z"/>
<path d="M4055 3363 c-79 -19 -125 -154 -72 -207 28 -28 157 -72 182 -62 27
10 7 24 -61 41 -32 9 -70 24 -84 34 -51 37 -30 130 36 157 19 8 39 12 44 9 18
-11 32 5 19 21 -12 14 -27 16 -64 7z"/>
<path d="M8480 3363 c-8 -3 -23 -13 -33 -22 -11 -9 -26 -16 -35 -16 -13 0 -18
-13 -23 -55 -4 -43 -24 -181 -42 -294 -1 -6 5 -11 14 -13 17 -4 24 23 45 165
4 32 9 41 17 33 49 -49 157 49 157 142 0 36 -61 73 -100 60z m65 -54 c8 -26
-28 -105 -55 -119 -18 -9 -28 -9 -46 1 -29 15 -30 38 -5 88 29 57 92 75 106
30z"/>
<path d="M12206 3355 c-21 -21 -20 -50 4 -102 19 -42 19 -43 0 -53 -20 -11
-53 -3 -45 10 10 16 -17 22 -31 8 -20 -19 1 -46 42 -54 24 -5 37 0 60 19 l29
25 -22 52 c-27 63 -22 82 21 78 22 -2 31 1 31 12 0 22 -68 26 -89 5z"/>
<path d="M13457 3349 c-42 -22 -77 -71 -77 -107 0 -30 25 -78 45 -86 9 -3 38
-6 64 -6 35 0 53 5 66 20 17 19 17 19 -48 13 -62 -5 -66 -5 -82 21 -12 17 -15
35 -10 53 5 20 9 23 15 14 6 -10 19 -12 46 -8 54 9 89 38 89 73 0 26 -4 29
-35 31 -20 2 -51 -6 -73 -18z m77 -23 c-6 -14 -54 -36 -80 -36 -24 0 -15 16
19 33 41 20 68 22 61 3z"/>
<path d="M13742 3335 c-20 -17 -32 -21 -40 -13 -16 16 -32 0 -32 -33 0 -16 -6
-45 -14 -64 -14 -32 -12 -45 5 -45 4 0 21 21 37 48 31 50 79 102 94 102 24 0
16 -75 -17 -152 -5 -13 -3 -18 9 -18 34 0 69 137 47 179 -16 28 -52 27 -89 -4z"/>
<path d="M2321 3323 c-43 -44 -91 -222 -53 -199 5 3 19 40 32 82 27 92 47 116
90 108 23 -5 30 -3 30 9 0 14 -28 27 -58 27 -8 0 -26 -12 -41 -27z"/>
<path d="M12042 3275 c-26 -78 -26 -75 -8 -75 15 0 44 66 49 109 5 50 -21 29
-41 -34z"/>
<path d="M5275 3301 c-41 -24 -67 -66 -63 -99 3 -24 7 -27 41 -26 40 1 77 27
77 53 0 9 3 11 9 6 12 -12 54 -238 49 -265 -3 -18 -8 -16 -47 15 -50 40 -82
44 -111 15 -31 -31 -35 -68 -14 -129 22 -62 55 -92 104 -93 38 -1 75 35 86 85
4 22 10 26 25 22 14 -5 19 -1 19 14 0 12 -7 21 -15 21 -11 0 -15 11 -15 38 0
41 -44 316 -56 345 -8 23 -51 22 -89 -2z m45 -16 c0 -12 -35 -75 -41 -75 -4 0
-14 -3 -23 -6 -25 -10 -19 12 15 51 27 31 49 44 49 30z m18 -337 c46 -39 49
-44 41 -71 -20 -70 -71 -87 -113 -37 -34 41 -43 93 -22 125 22 34 36 32 94
-17z"/>
<path d="M4836 3302 c-3 -4 -1 -26 4 -48 5 -22 8 -54 7 -70 -1 -20 3 -29 13
-29 20 0 24 39 10 103 -11 48 -22 63 -34 44z"/>
<path d="M5005 3298 c-54 -31 -102 -158 -60 -158 8 0 15 9 15 19 0 11 4 22 10
26 5 3 7 12 4 20 -7 17 47 75 70 75 27 0 38 -46 26 -107 -5 -30 -12 -58 -15
-64 -4 -5 -3 -14 0 -19 22 -36 63 91 51 156 -11 58 -53 80 -101 52z"/>
<path d="M8277 3293 c-4 -3 -7 -16 -7 -28 0 -11 -6 -27 -12 -33 -10 -10 -10
-15 2 -22 23 -15 34 -7 42 31 10 48 -3 75 -25 52z"/>
<path d="M2112 3283 c-16 -6 -42 -56 -42 -82 0 -48 72 -69 110 -31 24 24 26
67 5 97 -13 19 -44 26 -73 16z m49 -43 c13 0 11 -36 -3 -47 -7 -6 -23 -13 -35
-16 -18 -4 -23 -1 -23 15 0 31 20 60 37 54 8 -3 19 -6 24 -6z"/>
<path d="M4215 3246 c-9 -55 8 -86 54 -106 38 -15 81 -1 111 38 23 29 27 87 6
95 -20 8 -26 -1 -20 -32 11 -55 -71 -95 -111 -54 -11 11 -15 25 -11 42 12 48
11 55 -6 59 -13 2 -18 -7 -23 -42z"/>
<path d="M14545 3181 c-62 -36 -135 -112 -203 -213 -45 -67 -57 -78 -81 -78
-28 0 -57 -21 -44 -33 3 -4 17 -4 30 -1 l25 7 -25 -49 c-34 -68 -43 -114 -23
-114 9 0 18 12 22 28 4 15 18 51 32 81 26 52 27 53 62 48 19 -3 45 -9 58 -13
16 -5 22 -2 22 10 0 10 -16 20 -45 28 l-45 14 46 69 c80 120 163 195 216 195
24 0 29 4 26 22 -4 31 -17 31 -73 -1z"/>
<path d="M9746 3128 c-2 -7 -8 -35 -14 -63 -7 -27 -44 -113 -83 -191 -40 -77
-69 -146 -65 -152 12 -20 36 -13 36 9 0 11 27 71 59 132 60 113 108 247 96
267 -9 14 -25 13 -29 -2z"/>
<path d="M6816 3073 c-4 -16 -18 -58 -32 -95 l-26 -68 -54 0 c-41 0 -54 -4
-54 -15 0 -11 12 -15 46 -15 40 0 45 -2 39 -17 -30 -69 -37 -104 -25 -118 17
-20 30 -9 30 25 0 31 28 100 45 112 6 4 24 8 42 8 41 0 63 9 63 26 0 10 -11
12 -45 7 -25 -3 -45 -2 -45 2 0 4 11 39 25 77 14 38 25 76 25 84 0 25 -28 15
-34 -13z"/>
<path d="M14037 3018 c-47 -144 -119 -238 -183 -238 -38 0 -31 39 15 84 32 31
42 36 65 30 24 -6 27 -4 24 12 -2 13 -13 20 -33 22 -49 4 -125 -74 -125 -130
0 -69 95 -64 161 9 73 79 153 293 110 293 -4 0 -19 -37 -34 -82z"/>
<path d="M9265 3068 c-2 -7 -6 -30 -10 -52 -21 -126 -79 -232 -152 -277 -31
-19 -36 -20 -50 -6 -36 36 33 134 88 123 32 -6 43 2 28 21 -15 17 -53 17 -88
-2 -31 -15 -71 -86 -71 -123 0 -25 33 -62 55 -62 42 0 114 63 163 142 24 39
76 224 66 239 -8 13 -24 11 -29 -3z"/>
<path d="M11782 3067 c-6 -7 -27 -45 -47 -85 -19 -40 -57 -105 -84 -145 -26
-39 -50 -80 -54 -89 -14 -38 18 -27 71 24 73 70 100 88 134 88 35 0 35 -6 -2
-78 -33 -65 -36 -82 -17 -82 14 0 77 122 77 150 0 11 -11 27 -25 36 -29 19
-64 10 -118 -28 l-32 -23 21 30 c26 36 104 190 104 205 0 14 -15 13 -28 -3z"/>
<path d="M1769 3063 c-3 -26 -9 -57 -27 -128 -27 -106 -37 -212 -23 -249 17
-43 25 -24 27 67 1 48 12 123 27 182 14 55 26 106 28 114 2 8 -4 17 -13 19
-10 2 -18 0 -19 -5z"/>
<path d="M11597 3063 c-4 -3 -7 -13 -7 -21 0 -8 -12 -41 -26 -73 -26 -58 -28
-59 -68 -60 -52 -1 -87 -11 -86 -24 0 -6 23 -9 51 -7 l50 2 -18 -32 c-10 -17
-33 -46 -50 -64 -18 -18 -33 -38 -33 -43 0 -9 39 -27 43 -19 1 1 10 19 20 38
10 19 33 56 52 81 30 42 39 48 84 54 27 4 52 13 55 20 7 20 -2 23 -42 14 -20
-4 -38 -7 -39 -5 -1 1 9 29 22 62 14 32 25 65 25 72 0 13 -22 17 -33 5z"/>
<path d="M12724 3053 c-3 -10 -19 -48 -36 -85 l-31 -67 -70 -3 c-45 -2 -72 -7
-75 -15 -3 -10 13 -13 57 -13 34 0 61 -2 61 -4 0 -3 -18 -41 -40 -87 -31 -64
-37 -86 -29 -101 12 -23 29 -15 29 15 1 12 20 58 43 102 l42 80 80 8 c97 11
108 14 99 28 -5 8 -30 10 -80 5 -41 -3 -74 -4 -74 -2 0 2 14 33 30 70 17 37
28 71 25 76 -10 16 -25 12 -31 -7z"/>
<path d="M14846 3054 c-3 -9 -3 -20 0 -25 8 -13 34 9 34 27 0 19 -26 18 -34
-2z"/>
<path d="M2518 3034 c-3 -3 -4 -40 -1 -82 8 -121 -26 -209 -96 -244 -45 -23
-71 -10 -71 36 0 61 60 115 104 94 34 -15 44 -4 21 22 -23 25 -49 25 -91 0
-37 -24 -76 -95 -68 -126 8 -29 -29 -39 -52 -13 -13 15 -15 29 -10 73 7 54 7
55 -25 71 -25 13 -37 15 -56 6 -29 -13 -66 -90 -61 -129 3 -23 8 -27 39 -30
23 -2 40 2 49 13 11 14 15 12 31 -14 23 -39 65 -51 84 -25 8 11 15 14 15 8 0
-6 13 -17 30 -24 25 -10 35 -9 75 10 77 37 113 120 117 273 3 74 1 87 -13 87
-9 0 -18 -3 -21 -6z m-309 -232 c-8 -36 -31 -62 -56 -62 -16 0 -16 10 -2 47
26 68 73 81 58 15z"/>
<path d="M14200 3011 c0 -12 6 -21 16 -21 9 0 14 7 12 17 -5 25 -28 28 -28 4z"/>
<path d="M11407 3013 c-12 -11 -7 -41 7 -46 19 -7 26 1 26 30 0 22 -19 31 -33
16z"/>
<path d="M2722 2963 c4 -21 33 -25 33 -3 0 8 -8 16 -18 18 -14 3 -18 -1 -15
-15z"/>
<path d="M6526 2939 c-32 -25 -34 -64 -6 -119 25 -48 25 -47 0 -60 -25 -13
-60 -4 -60 16 0 20 -16 18 -25 -3 -7 -21 27 -53 56 -53 32 0 69 23 75 46 3 12
-3 39 -15 62 -30 59 -27 78 14 93 19 7 35 19 35 26 0 20 -44 15 -74 -8z"/>
<path d="M6017 2936 c-46 -17 -64 -32 -83 -67 -40 -78 4 -158 92 -166 62 -6
134 12 134 33 0 11 -5 14 -17 9 -10 -4 -46 -9 -80 -12 -57 -5 -64 -3 -87 20
-34 34 -34 76 0 116 31 37 97 59 120 40 12 -10 17 -10 27 0 9 10 8 15 -7 27
-24 17 -49 17 -99 0z"/>
<path d="M8530 2933 c-19 -9 -38 -17 -42 -17 -4 -1 -11 -5 -16 -11 -16 -17
-81 -178 -76 -187 8 -13 34 -9 34 6 0 25 48 121 75 149 27 29 73 52 83 42 3
-3 -7 -30 -22 -61 -43 -87 -33 -87 74 4 34 29 67 51 74 49 16 -6 8 -55 -20
-114 -25 -55 -30 -83 -14 -83 13 0 57 88 71 144 10 39 9 50 -5 71 -14 21 -20
23 -42 14 -15 -5 -40 -19 -55 -30 l-29 -20 0 24 c0 39 -33 46 -90 20z"/>
<path d="M11027 2926 c-78 -26 -108 -49 -89 -68 9 -9 16 -8 30 5 19 18 84 47
104 47 7 0 -9 -20 -35 -45 -55 -51 -92 -122 -75 -142 8 -10 16 -9 37 6 14 10
45 28 68 39 35 19 43 19 53 7 9 -11 17 -12 34 -4 32 17 66 51 66 66 0 20 -17
16 -45 -13 -24 -24 -27 -25 -39 -9 -11 16 -17 15 -75 -14 -75 -38 -72 -25 13
59 59 57 67 74 40 84 -19 7 -6 10 -87 -18z"/>
<path d="M13383 2925 c-12 -8 -28 -12 -37 -9 -10 4 -20 -5 -32 -28 -9 -18 -32
-53 -51 -78 -19 -24 -33 -53 -31 -64 3 -23 38 -35 38 -14 1 40 118 178 151
178 5 0 -2 -25 -16 -56 -40 -91 -29 -99 37 -28 36 39 84 74 103 74 13 0 2 -30
-30 -80 -33 -53 -44 -90 -26 -90 11 0 81 114 91 150 6 19 4 34 -5 46 -12 17
-15 16 -63 -7 -51 -25 -51 -25 -54 -5 -4 26 -45 33 -75 11z"/>
<path d="M13675 2903 c-46 -50 -72 -109 -58 -131 14 -23 55 -26 92 -8 40 21
47 48 23 96 -16 33 -17 42 -6 51 19 15 18 29 -2 29 -8 0 -30 -17 -49 -37z m38
-73 c6 -22 -25 -50 -56 -50 -14 0 -17 5 -11 23 4 12 14 32 22 45 16 25 36 17
45 -18z"/>
<path d="M14579 2884 l-42 -55 -20 30 c-10 17 -23 31 -27 31 -20 0 -20 -22 1
-52 20 -28 21 -33 8 -53 -8 -12 -40 -62 -72 -110 -61 -92 -81 -145 -54 -145 8
0 18 11 21 25 6 25 84 153 114 188 11 12 18 14 23 6 11 -18 31 0 24 22 -7 20
57 119 76 119 12 0 12 37 0 44 -5 3 -28 -19 -52 -50z"/>
<path d="M6263 2922 c-17 -11 -33 -58 -33 -97 0 -25 8 -40 31 -59 37 -31 52
-32 89 -6 56 40 95 140 55 140 -10 0 -15 -10 -15 -26 0 -17 -14 -40 -40 -66
-38 -38 -41 -40 -63 -26 -28 19 -33 59 -13 100 17 32 11 53 -11 40z"/>
<path d="M9830 2923 c-34 -12 -91 -58 -111 -89 -27 -45 -23 -94 11 -111 37
-19 140 -17 140 2 0 11 -12 15 -47 15 -91 0 -120 23 -57 43 82 28 132 86 107
125 -11 18 -22 22 -43 15z m20 -42 c0 -11 -57 -55 -82 -64 -34 -12 -19 16 26
51 30 23 56 29 56 13z"/>
<path d="M10060 2902 c-46 -22 -48 -47 -9 -105 24 -36 29 -51 20 -60 -8 -8
-18 -5 -41 11 -36 27 -40 27 -40 2 0 -30 61 -57 95 -42 34 16 32 48 -4 103
-35 51 -29 64 32 76 22 5 42 14 45 21 6 18 -56 14 -98 -6z"/>
<path d="M12253 2872 c-17 -26 -34 -57 -37 -68 -14 -49 32 -102 78 -90 38 9
99 64 128 114 33 56 34 62 9 62 -12 0 -21 -9 -25 -25 -8 -32 -61 -92 -97 -110
-67 -35 -82 33 -25 108 19 25 32 48 29 51 -14 14 -30 3 -60 -42z"/>
<path d="M1943 2903 c-7 -2 -13 -9 -13 -15 0 -5 -9 -23 -21 -39 -55 -77 4
-170 81 -129 31 17 73 96 66 125 -8 33 -82 71 -113 58z m75 -55 c23 -28 -38
-113 -75 -106 -13 2 -19 14 -21 39 -3 30 2 41 24 58 30 24 57 27 72 9z"/>
<path d="M11321 2868 c-11 -24 -31 -60 -43 -80 -19 -31 -21 -39 -9 -50 10 -9
15 -10 18 -2 2 7 19 37 38 69 34 55 46 105 25 105 -5 0 -18 -19 -29 -42z"/>
<path d="M14715 2843 c-17 -37 -31 -71 -33 -75 -2 -4 4 -8 13 -8 15 0 75 109
75 138 0 33 -29 5 -55 -55z"/>
<path d="M15170 2894 c-75 -32 -107 -99 -60 -124 24 -13 82 0 119 26 l23 17
-7 -50 c-3 -27 -12 -74 -18 -104 l-12 -54 -48 -7 c-89 -12 -117 -46 -117 -143
0 -73 13 -105 44 -105 34 0 77 55 111 141 22 56 31 69 44 64 26 -11 44 -11 48
1 2 6 -9 17 -25 23 -28 12 -29 15 -21 49 5 20 16 81 24 136 9 54 18 102 20
107 3 4 1 11 -5 14 -6 4 -33 -14 -60 -39 -37 -34 -57 -46 -80 -46 -43 0 -37
29 13 55 31 17 39 18 46 6 11 -17 31 -6 31 19 0 14 -21 33 -33 30 -1 -1 -18
-8 -37 -16z m25 -341 c-4 -10 -16 -41 -27 -69 -11 -28 -30 -64 -43 -80 -21
-24 -26 -27 -35 -14 -11 17 -13 92 -3 129 6 25 52 50 92 51 18 0 22 -4 16 -17z"/>
<path d="M12020 2878 c-84 -43 -111 -125 -57 -172 41 -35 134 -4 164 55 7 13
13 45 13 71 0 72 -39 86 -120 46z m80 -27 c25 -47 -1 -103 -56 -121 -42 -14
-70 -6 -77 22 -11 40 35 97 88 111 33 8 34 8 45 -12z"/>
<path d="M3063 2880 c-27 -11 -73 -78 -73 -106 0 -54 57 -55 111 -2 l32 33 -6
-65 c-3 -36 -11 -89 -17 -118 l-12 -53 -42 6 c-79 12 -116 -46 -85 -134 25
-71 84 -57 123 30 23 53 30 57 58 33 16 -16 18 -15 24 1 7 17 -11 38 -39 48
-5 1 -3 34 7 84 10 48 16 114 14 164 l-3 83 -35 3 c-19 1 -45 -2 -57 -7z m47
-36 c0 -18 -62 -84 -79 -84 -17 0 -13 22 9 55 27 40 70 59 70 29z m-42 -302
l23 -7 -27 -52 c-28 -58 -49 -67 -64 -27 -27 69 1 105 68 86z"/>
<path d="M7364 2831 c-26 -34 -48 -61 -48 -61 -1 0 0 20 2 45 4 50 -15 68 -49
47 -10 -7 -26 -12 -34 -12 -9 0 -24 -20 -35 -46 -11 -26 -29 -59 -40 -74 -24
-33 -25 -50 -6 -50 8 0 28 21 44 48 43 67 79 108 88 100 4 -5 0 -35 -9 -68
-20 -72 -20 -70 -3 -70 8 0 36 26 62 58 68 81 67 80 60 50 -3 -15 -1 -38 6
-52 9 -21 18 -26 48 -26 41 0 71 23 53 41 -8 8 -13 7 -17 0 -4 -6 -19 -11 -33
-11 -25 0 -25 1 -22 67 3 45 0 67 -8 70 -7 2 -33 -23 -59 -56z"/>
<path d="M8884 2877 c-24 -13 -65 -60 -83 -94 -14 -27 -2 -56 29 -73 29 -15
100 6 144 42 30 25 37 36 34 61 -5 51 -81 90 -124 64z m91 -47 c21 -34 -47
-90 -109 -90 -28 0 -36 4 -36 19 0 22 38 73 50 66 4 -3 19 -1 32 4 31 13 55
13 63 1z"/>
<path d="M2802 2864 c-39 -27 -76 -117 -56 -137 4 -3 16 -2 26 4 14 8 17 14
10 21 -13 13 5 53 37 82 35 32 44 9 27 -69 -8 -38 -12 -73 -9 -78 22 -35 65
132 44 171 -14 26 -47 29 -79 6z"/>
<path d="M9291 2833 c-37 -56 -37 -88 0 -116 24 -17 31 -18 64 -7 63 21 135
98 135 145 0 25 -27 17 -34 -11 -8 -32 -67 -89 -106 -102 -20 -8 -33 -7 -45 2
-21 15 -14 44 21 86 23 27 25 50 4 50 -4 0 -22 -21 -39 -47z"/>
<path d="M14077 2810 c-40 -77 -44 -90 -24 -90 15 0 90 137 82 150 -12 19 -22
9 -58 -60z"/>
<path d="M6998 2848 c-12 -14 -18 -17 -18 -8 0 8 -20 -6 -45 -30 -25 -24 -45
-48 -45 -53 0 -18 51 -57 75 -57 69 0 126 69 104 127 -18 47 -44 55 -71 21z
m17 -95 c-30 -27 -44 -28 -71 -9 -18 14 -18 15 10 45 16 16 40 31 55 33 38 4
42 -38 6 -69z"/>
<path d="M14854 2814 c-63 -65 -79 -90 -64 -99 5 -3 38 23 73 59 82 87 108 86
72 -1 -18 -42 -19 -63 -4 -63 17 0 51 88 47 123 -3 28 -7 32 -36 35 -28 3 -39
-4 -88 -54z"/>
<path d="M2665 2807 c-15 -31 -31 -59 -36 -62 -5 -4 -9 -13 -9 -21 0 -11 8
-14 28 -12 15 2 26 8 24 16 -1 7 7 35 19 63 16 37 19 53 11 61 -9 9 -18 -3
-37 -45z"/>
<path d="M4176 2743 c-3 -10 -12 -53 -21 -95 -8 -42 -36 -122 -60 -177 -25
-56 -45 -106 -45 -111 0 -23 31 -7 61 33 45 59 91 107 102 107 5 0 6 -33 2
-79 -4 -50 -3 -81 3 -85 17 -10 22 7 28 102 6 78 5 90 -10 95 -21 8 -51 -7
-83 -42 l-23 -26 20 54 c12 30 28 86 36 125 8 39 19 75 24 80 11 11 1 36 -15
36 -8 0 -16 -8 -19 -17z"/>
<path d="M3924 2698 c-17 -29 -37 -68 -44 -86 -15 -39 -42 -52 -111 -52 -37 0
-49 -4 -49 -15 0 -12 13 -15 59 -15 l60 0 -20 -57 c-27 -80 -26 -138 5 -158
20 -14 34 -14 90 -4 62 10 86 22 72 36 -3 4 -34 1 -68 -5 -78 -14 -92 -5 -85
53 2 22 14 66 26 97 22 56 23 57 69 64 64 9 97 23 86 34 -6 6 -30 6 -61 1 -51
-8 -51 -8 -42 16 16 42 37 79 53 92 9 8 16 22 16 32 0 35 -25 20 -56 -33z"/>
<path d="M8658 2685 c-23 -13 -158 -199 -169 -234 -3 -7 -30 -15 -62 -18 -34
-3 -57 -11 -57 -18 0 -20 8 -22 54 -15 l45 7 -25 -48 c-30 -61 -31 -89 -3 -89
14 0 19 5 17 18 -3 9 8 42 23 73 27 54 31 57 73 63 26 4 47 13 50 23 5 13 0
15 -35 10 -49 -6 -48 -4 17 94 52 79 99 123 126 116 13 -4 18 0 18 14 0 23
-33 25 -72 4z"/>
<path d="M6050 2643 c0 -5 7 -28 16 -53 19 -52 14 -132 -10 -178 -20 -38 -74
-81 -107 -84 -20 -3 -25 2 -27 26 -5 41 16 85 50 102 25 13 29 13 34 -1 7 -18
34 -20 34 -2 0 7 -6 21 -13 32 -28 38 -105 -8 -132 -79 -15 -38 -15 -48 -3
-72 30 -61 74 -57 147 14 69 66 86 137 59 251 -9 38 -16 51 -30 51 -10 0 -18
-3 -18 -7z"/>
<path d="M8280 2614 c0 -36 -44 -164 -80 -231 -33 -62 -39 -123 -15 -143 12
-10 19 -10 28 -1 9 9 9 14 -1 20 -9 5 -1 39 34 137 58 164 64 183 64 216 0 18
-5 28 -15 28 -9 0 -15 -10 -15 -26z"/>
<path d="M7567 2604 c-4 -4 -7 -15 -7 -24 0 -10 -11 -43 -25 -73 -20 -47 -30
-58 -57 -65 -20 -5 -34 -16 -36 -26 -3 -16 1 -18 22 -12 14 3 26 3 26 -1 0 -3
-14 -37 -32 -75 -23 -51 -28 -72 -20 -80 8 -8 24 14 59 88 l48 99 48 3 c57 4
60 25 4 30 -41 4 -44 10 -23 50 18 35 24 84 10 89 -5 2 -13 0 -17 -3z"/>
<path d="M4392 2542 c-11 -11 -25 -33 -33 -50 -8 -18 -20 -32 -28 -32 -15 0
-10 -51 11 -102 15 -40 71 -55 129 -37 69 22 61 38 -17 31 -57 -4 -69 -2 -81
13 -20 28 -16 42 13 49 61 16 96 93 58 130 -20 21 -30 20 -52 -2z m38 -40 c0
-18 -19 -40 -47 -56 -10 -6 -11 -1 -2 21 19 50 49 72 49 35z"/>
<path d="M7397 2503 c-14 -13 -6 -33 13 -33 13 0 20 7 20 20 0 19 -20 27 -33
13z"/>
<path d="M5395 2480 c-39 -26 -85 -88 -85 -115 0 -32 27 -63 64 -73 33 -10
160 -2 172 10 8 9 -5 30 -15 24 -4 -3 -40 -6 -79 -8 -57 -2 -75 2 -92 17 -29
26 -25 42 24 91 41 42 78 55 91 34 11 -18 26 -10 23 13 -4 31 -62 35 -103 7z"/>
<path d="M5689 2459 c-73 -36 -112 -125 -71 -161 31 -28 59 -30 107 -9 55 24
72 58 56 112 -6 19 -21 44 -33 55 -22 20 -24 20 -59 3z m61 -64 c16 -44 -13
-79 -68 -83 -37 -3 -42 -1 -48 23 -5 21 0 33 26 60 41 42 75 42 90 0z"/>
<path d="M7737 2460 c-37 -29 -40 -48 -18 -116 10 -32 17 -62 14 -66 -6 -12
-73 -10 -73 2 0 15 -27 12 -33 -4 -16 -41 89 -55 126 -17 23 22 22 28 -20 138
-3 6 5 21 17 33 17 17 29 21 56 15 35 -6 43 2 22 23 -18 18 -62 14 -91 -8z"/>
<path d="M6240 2456 c-81 -45 -119 -158 -68 -206 33 -31 92 -26 169 13 62 31
86 57 55 57 -9 0 -16 -4 -16 -10 0 -5 -6 -10 -14 -10 -8 0 -33 -9 -57 -20 -79
-35 -129 -23 -129 32 0 23 6 29 41 38 54 15 91 52 87 88 -4 32 -30 39 -68 18z
m35 -38 c-6 -14 -54 -43 -61 -36 -5 6 10 24 35 41 28 18 34 17 26 -5z"/>
<path d="M7914 2426 c-39 -38 -44 -48 -44 -89 0 -38 5 -49 28 -67 23 -19 35
-21 86 -16 32 3 64 10 70 15 6 5 20 10 30 12 11 2 20 12 22 22 2 14 -2 17 -14
11 -46 -19 -120 -34 -149 -29 -32 6 -43 21 -43 58 0 20 6 22 55 23 84 2 125
52 73 88 -38 27 -67 19 -114 -28z m94 5 c17 -10 -1 -25 -40 -35 -35 -8 -44 8
-16 28 25 18 37 19 56 7z"/>
<path d="M7325 2344 c-29 -64 -32 -94 -10 -94 8 0 15 7 15 15 0 8 11 38 25 67
29 60 30 68 10 68 -9 0 -26 -24 -40 -56z"/>
<path d="M8620 2215 c0 -8 7 -15 15 -15 8 0 15 7 15 15 0 8 -7 15 -15 15 -8 0
-15 -7 -15 -15z"/>
</g>
</svg>
