<?xml version="1.0" standalone="no"?>
<!DOCTYPE svg PUBLIC "-//W3C//DTD SVG 20010904//EN"
 "http://www.w3.org/TR/2001/REC-SVG-20010904/DTD/svg10.dtd">
<svg version="1.0" xmlns="http://www.w3.org/2000/svg"
 width="1618.000000pt" height="1214.000000pt" viewBox="0 0 1618.000000 1214.000000"
 preserveAspectRatio="xMidYMid meet">

<g transform="translate(0.000000,1214.000000) scale(0.100000,-0.100000)"
fill="#000000" stroke="none">
<path d="M13597 11703 c-4 -3 -7 -15 -7 -26 0 -37 -52 -137 -71 -137 -10 0
-21 5 -24 10 -16 25 -72 -5 -107 -58 -33 -50 -18 -122 34 -160 16 -12 16 -16
4 -40 -14 -28 -46 -132 -46 -151 0 -6 6 -11 13 -11 6 0 25 40 40 89 29 90 38
101 84 101 16 0 39 14 64 39 32 32 39 46 39 78 0 37 -27 83 -49 83 -4 0 7 38
26 85 31 78 35 105 14 105 -4 0 -11 -3 -14 -7z m-106 -203 c25 0 24 -6 -13
-85 l-31 -68 -24 27 c-13 15 -23 40 -23 55 0 35 37 84 57 77 8 -3 23 -6 34 -6z
m87 -22 c22 -22 14 -68 -17 -99 -28 -27 -71 -40 -71 -20 0 21 55 131 65 131 6
0 16 -5 23 -12z"/>
<path d="M4702 11688 c-14 -14 -16 -42 -2 -33 23 14 -2 -111 -37 -185 -38 -79
-151 -206 -175 -198 -39 13 15 138 68 159 32 12 33 43 2 33 -31 -9 -53 -30
-88 -82 -45 -69 -37 -142 16 -142 42 0 161 128 206 220 43 86 59 192 36 223
-11 14 -16 15 -26 5z"/>
<path d="M2808 11643 c0 -5 -2 -14 -2 -22 -1 -12 -35 -14 -201 -12 -158 1
-211 -1 -252 -14 -50 -15 -64 -27 -45 -39 5 -3 31 2 59 10 33 10 82 14 140 12
l90 -3 -23 -93 c-37 -145 -53 -195 -67 -204 -9 -5 -9 -12 -1 -25 16 -26 38
-22 42 7 2 14 19 81 39 150 19 68 33 135 30 148 l-5 24 99 -4 c92 -3 98 -4 94
-23 -33 -143 -46 -188 -66 -222 -22 -38 -21 -73 1 -73 6 0 20 20 31 45 27 61
109 122 109 82 0 -7 -7 -37 -16 -66 -18 -61 -16 -106 6 -106 10 0 14 8 12 25
-1 14 4 48 13 75 23 77 20 103 -12 111 -18 5 -37 1 -56 -10 -26 -14 -29 -14
-23 -1 17 44 39 183 33 208 -7 25 -25 38 -29 20z"/>
<path d="M10445 11606 c-4 -23 -34 -99 -67 -171 -33 -71 -61 -139 -62 -150 -2
-37 19 -29 51 21 71 107 132 115 88 11 -18 -44 -19 -87 -2 -87 15 0 38 77 40
134 2 49 -19 66 -63 49 -16 -6 -30 -9 -30 -7 0 3 12 28 27 57 25 51 53 136 53
168 0 9 -6 16 -14 16 -10 0 -17 -15 -21 -41z"/>
<path d="M7105 11630 c-10 -16 4 -30 31 -30 16 0 24 5 21 13 -2 6 -10 11 -16
10 -6 -2 -11 2 -11 7 0 6 -4 10 -9 10 -6 0 -13 -4 -16 -10z"/>
<path d="M8166 11611 c-4 -6 -4 -21 -1 -34 4 -14 -8 -65 -29 -130 -37 -109
-44 -151 -25 -145 18 6 90 238 87 277 -3 34 -20 51 -32 32z"/>
<path d="M15201 11573 c-6 -16 -27 -39 -46 -52 -38 -26 -85 -110 -85 -152 0
-14 9 -38 20 -52 20 -25 20 -29 7 -84 -8 -32 -15 -71 -16 -86 -2 -42 22 -28
32 19 22 108 25 114 58 107 67 -13 139 48 139 119 0 42 -43 108 -70 108 -25 0
-27 36 -4 61 9 10 13 23 9 28 -11 19 -32 12 -44 -16z m-48 -162 c-23 -74 -27
-81 -41 -67 -13 13 -14 21 -3 55 10 36 59 107 67 99 2 -2 -9 -41 -23 -87z m98
40 c47 -48 36 -111 -25 -136 -18 -8 -42 -12 -53 -9 -20 6 -20 7 6 90 14 46 30
84 34 84 5 0 22 -13 38 -29z"/>
<path d="M15603 11594 c-18 -8 -16 -86 1 -129 13 -30 13 -35 -1 -47 -38 -32
-59 -143 -28 -154 19 -8 80 13 96 32 10 13 10 27 0 76 -11 56 -11 62 8 82 11
12 27 38 36 59 8 20 22 37 30 37 21 0 19 17 -4 29 -23 13 -121 23 -138 15z
m84 -32 c9 -6 7 -18 -7 -48 -10 -23 -23 -45 -29 -48 -13 -9 -31 34 -31 75 0
25 4 29 28 29 15 0 32 -4 39 -8z m-45 -212 c2 -28 -2 -36 -22 -47 -23 -12 -25
-11 -28 12 -4 29 26 91 38 79 5 -5 11 -25 12 -44z"/>
<path d="M11181 11568 c-5 -13 -17 -56 -26 -95 -10 -40 -19 -73 -21 -73 -2 0
-13 6 -24 12 -17 11 -27 9 -65 -11 -45 -24 -66 -48 -79 -88 -10 -31 32 -73 73
-73 65 0 110 70 151 240 10 41 19 81 21 89 7 24 -20 23 -30 -1z m-73 -198 c26
-42 -45 -119 -86 -93 -37 23 -24 60 33 95 37 22 37 22 53 -2z"/>
<path d="M14420 11579 c-38 -15 -60 -40 -60 -66 0 -35 36 -48 87 -30 l41 14
-15 -36 c-9 -20 -26 -57 -39 -84 -30 -58 -44 -142 -23 -135 8 2 15 15 17 29 2
13 28 79 59 147 42 92 53 126 44 135 -8 8 -14 8 -23 -1 -9 -9 -14 -6 -22 11
-13 25 -31 30 -66 16z m43 -43 c6 -16 -13 -26 -49 -26 -28 0 -30 8 -6 26 23
18 49 17 55 0z"/>
<path d="M15516 11578 c-2 -7 -11 -43 -20 -80 -9 -37 -25 -82 -36 -101 -24
-41 -42 -125 -28 -133 13 -8 28 14 28 41 0 11 12 45 26 75 22 46 63 177 64
203 0 12 -30 8 -34 -5z"/>
<path d="M13735 11568 c-21 -69 -57 -239 -58 -275 -3 -70 20 -67 29 4 4 32 19
105 35 162 15 58 26 109 23 113 -8 12 -24 10 -29 -4z"/>
<path d="M14892 11563 c-44 -15 -71 -46 -51 -59 6 -3 14 -2 18 4 10 16 89 42
106 36 8 -4 15 -12 15 -18 0 -21 -105 -130 -169 -177 -59 -42 -77 -69 -47 -69
8 0 27 11 43 24 45 37 73 49 77 34 2 -7 9 -32 15 -54 6 -23 18 -47 26 -54 19
-16 65 -20 65 -6 0 21 -17 38 -36 34 -15 -2 -20 7 -30 52 -7 30 -18 56 -24 58
-6 2 14 30 44 62 31 32 61 71 67 87 9 24 7 30 -11 45 -26 21 -50 22 -108 1z"/>
<path d="M14171 11541 c-52 -21 -94 -64 -67 -69 9 -2 22 3 30 11 19 19 75 41
83 33 14 -14 -34 -83 -104 -153 -40 -39 -73 -76 -73 -82 0 -23 24 -21 50 4
l28 27 7 -31 c9 -43 37 -61 82 -51 38 9 72 35 60 46 -4 4 -18 2 -32 -4 -29
-13 -75 -16 -75 -4 -1 4 -3 23 -6 42 -4 30 2 43 37 90 55 73 73 114 59 140
-13 24 -22 24 -79 1z"/>
<path d="M9075 11490 c-3 -5 -1 -18 5 -29 5 -11 10 -29 10 -40 0 -12 5 -21 10
-21 6 0 6 -7 -1 -18 -16 -26 13 -92 40 -92 26 0 39 25 47 93 7 55 7 56 35 50
22 -4 29 -2 29 10 0 17 -20 27 -55 27 -27 0 -31 -8 -40 -83 -4 -32 -11 -57
-15 -57 -11 0 -20 38 -20 82 0 63 -26 108 -45 78z"/>
<path d="M3980 11437 c-53 -72 -136 -141 -157 -133 -19 8 -34 -11 -26 -31 9
-23 43 -14 88 23 l44 35 3 -33 c3 -31 6 -33 44 -36 32 -2 48 2 71 22 l29 25
14 -22 c12 -21 14 -19 32 33 30 84 33 110 14 110 -9 0 -16 -4 -16 -9 0 -6 -25
-37 -56 -70 -39 -42 -64 -61 -80 -61 -15 0 -24 6 -24 15 0 26 28 85 60 125 33
42 38 60 15 60 -8 0 -33 -24 -55 -53z"/>
<path d="M5236 11469 c-31 -24 -34 -58 -9 -100 13 -22 15 -34 7 -46 -16 -26
-29 -26 -55 1 -29 31 -39 32 -39 7 0 -23 49 -61 77 -61 21 0 46 23 56 51 3 10
-3 33 -14 53 -10 20 -19 43 -19 51 0 17 30 35 59 35 12 0 21 7 21 15 0 22 -52
19 -84 -6z"/>
<path d="M6020 11479 c-36 -15 -65 -45 -85 -90 -10 -21 -22 -39 -26 -39 -7 0
-29 -62 -29 -82 0 -5 7 -8 15 -8 8 0 31 35 55 85 42 87 61 106 111 107 17 1
29 6 29 15 0 7 -4 13 -9 13 -5 0 -15 2 -23 4 -7 3 -24 0 -38 -5z"/>
<path d="M6244 11476 c-17 -8 -47 -34 -67 -58 -31 -37 -37 -53 -37 -90 0 -89
48 -110 159 -73 38 12 51 22 51 36 0 10 -7 19 -15 19 -8 0 -15 -4 -15 -8 0 -5
-17 -14 -39 -20 -77 -23 -111 -11 -111 39 0 28 15 39 57 39 53 0 104 85 71
118 -15 15 -15 15 -54 -2z m30 -38 c-16 -29 -38 -48 -56 -48 -26 0 -22 15 10
39 30 23 57 28 46 9z"/>
<path d="M8310 11478 c-48 -13 -60 -32 -49 -71 17 -59 6 -89 -33 -92 -29 -2
-30 -29 -1 -33 14 -2 33 7 49 23 24 24 26 31 20 80 l-6 54 37 10 c21 6 44 11
51 11 6 0 12 7 12 15 0 17 -27 18 -80 3z"/>
<path d="M3093 11460 c-18 -11 -38 -29 -45 -40 -7 -11 -20 -20 -30 -20 -9 0
-20 -5 -24 -11 -7 -12 15 -31 28 -23 4 3 8 -4 8 -16 0 -79 97 -134 175 -98 45
20 29 40 -21 26 -51 -14 -92 -2 -109 32 -22 42 -19 57 13 63 60 12 100 65 70
95 -16 16 -28 15 -65 -8z m47 -25 c0 -6 -56 -35 -67 -35 -14 1 39 40 53 40 8
0 14 -2 14 -5z"/>
<path d="M7210 11450 c-26 -26 -26 -29 10 -78 l30 -42 -32 -16 c-25 -13 -36
-14 -50 -5 -15 9 -20 8 -25 -5 -13 -34 37 -43 92 -17 47 22 51 44 20 92 -28
42 -26 61 6 61 10 0 19 7 19 15 0 22 -46 19 -70 -5z"/>
<path d="M9360 11455 c-36 -19 -70 -69 -70 -103 0 -42 29 -64 81 -60 60 4 63
26 3 30 -55 3 -69 23 -27 39 42 16 63 39 63 69 0 34 -17 42 -50 25z m-2 -54
c-13 -15 -25 -27 -27 -25 -4 4 39 54 47 54 2 0 -7 -13 -20 -29z"/>
<path d="M4305 11448 c-11 -6 -31 -20 -44 -32 l-24 -21 12 22 c14 28 14 33 -4
33 -9 0 -20 -21 -31 -57 -9 -32 -21 -64 -26 -70 -7 -9 -5 -15 8 -20 11 -4 19
-1 22 8 8 24 110 121 121 114 17 -10 13 -42 -13 -93 -13 -26 -26 -58 -27 -71
-5 -29 18 -41 27 -14 3 10 17 43 30 74 30 70 31 114 5 129 -24 12 -31 12 -56
-2z"/>
<path d="M7034 11443 c-3 -10 -14 -37 -25 -61 -20 -46 -25 -86 -9 -80 13 4 80
145 73 152 -12 12 -34 6 -39 -11z"/>
<path d="M7915 11448 c-66 -38 -98 -120 -53 -137 24 -9 75 2 92 19 17 17 27
11 20 -14 -6 -25 10 -66 26 -66 5 0 9 22 8 49 0 26 7 62 16 79 9 17 16 36 16
42 0 19 -30 10 -46 -15 -30 -46 -124 -87 -124 -54 0 19 67 79 89 79 12 0 21 6
21 15 0 18 -36 19 -65 3z"/>
<path d="M9549 11437 c-55 -36 -84 -117 -43 -117 7 0 16 12 20 28 3 15 7 32 9
37 3 11 53 39 88 49 10 3 15 10 12 16 -10 17 -50 11 -86 -13z"/>
<path d="M4763 11401 c-21 -28 -42 -50 -48 -50 -13 -1 -17 -78 -5 -101 5 -10
22 -21 36 -24 35 -9 114 14 114 32 0 14 -17 13 -75 -3 -11 -3 -28 0 -39 8 -29
21 -12 54 45 82 49 25 68 56 55 90 -11 30 -45 16 -83 -34z m38 -14 l-23 -22
17 28 c10 15 20 25 23 22 3 -3 -5 -16 -17 -28z"/>
<path d="M4999 11403 c-49 -52 -69 -83 -69 -110 0 -33 26 -29 33 5 3 15 23 48
44 71 35 39 41 43 60 32 29 -15 44 6 18 26 -30 21 -48 16 -86 -24z"/>
<path d="M11450 11430 c0 -6 -30 -47 -67 -92 -66 -80 -68 -81 -71 -53 -6 61
-23 105 -38 105 -13 0 -15 -6 -9 -27 4 -16 9 -48 9 -73 1 -25 5 -51 9 -57 4
-6 -8 -32 -27 -56 -56 -74 -120 -197 -108 -209 7 -7 19 5 37 39 47 82 111 173
209 297 53 65 93 123 90 127 -7 13 -34 11 -34 -1z"/>
<path d="M5448 11401 c-56 -35 -70 -58 -60 -96 12 -42 52 -68 117 -73 46 -4
55 -2 55 12 0 12 -10 16 -40 16 -113 0 -133 87 -29 130 29 12 40 40 16 40 -7
0 -34 -13 -59 -29z"/>
<path d="M5671 11395 c-81 -93 19 -179 127 -109 35 23 30 69 -14 110 -46 44
-74 43 -113 -1z m108 -80 c-22 -22 -71 -28 -94 -12 -28 21 -11 67 34 89 l35
17 20 -40 c17 -34 18 -41 5 -54z"/>
<path d="M8412 11403 c-31 -45 -36 -72 -16 -94 32 -36 119 -15 125 31 6 55 -5
70 -63 84 -22 5 -30 1 -46 -21z m78 -41 c0 -25 -20 -42 -47 -42 -28 0 -32 34
-7 61 20 22 54 9 54 -19z"/>
<path d="M9740 11381 c-20 -41 -57 -74 -72 -65 -4 3 -8 23 -8 45 0 28 -4 39
-15 39 -24 0 -20 -85 4 -109 20 -20 20 -20 -9 -78 -36 -75 -47 -123 -27 -123
9 0 21 21 32 53 9 28 46 98 81 154 35 57 64 107 64 113 0 25 -31 6 -50 -29z"/>
<path d="M10589 11383 c-48 -51 -63 -81 -49 -98 17 -21 49 -19 88 5 43 26 46
25 38 -11 -5 -25 -3 -30 12 -27 13 2 18 15 20 51 4 56 -16 71 -51 40 -28 -26
-67 -46 -74 -39 -3 3 6 22 21 41 21 27 32 34 48 29 16 -5 19 -2 16 13 -5 29
-41 27 -69 -4z"/>
<path d="M10838 11390 c-14 -11 -33 -20 -42 -20 -19 0 -57 -81 -44 -95 5 -6
30 13 65 50 45 48 57 56 60 42 3 -10 0 -32 -6 -49 -15 -41 -14 -58 3 -58 16 0
39 75 34 116 -4 37 -34 43 -70 14z"/>
<path d="M11570 11285 c-7 -14 -10 -28 -6 -32 10 -10 50 33 42 46 -11 17 -21
13 -36 -14z"/>
<path d="M13797 11298 c-20 -11 -23 -38 -4 -38 13 1 47 24 47 33 0 11 -27 14
-43 5z"/>
<path d="M14537 11282 c-9 -10 -17 -24 -17 -31 0 -20 44 -8 48 13 6 28 -12 39
-31 18z"/>
<path d="M14097 10812 c-17 -18 -67 -228 -67 -278 0 -26 -1 -26 -18 -11 -24
22 -34 21 -81 -3 -76 -38 -103 -108 -60 -151 18 -18 30 -21 72 -16 81 7 85 15
136 277 24 124 34 158 51 169 11 7 20 17 20 22 0 16 -36 10 -53 -9z m-107
-326 c0 -13 5 -26 12 -28 9 -3 9 -12 -1 -36 -10 -24 -21 -33 -47 -38 -40 -7
-62 -1 -71 21 -10 26 14 63 54 84 49 26 53 26 53 -3z"/>
<path d="M9275 10781 c-6 -11 -35 -58 -65 -105 l-55 -85 -42 5 c-34 4 -43 2
-43 -10 0 -9 14 -18 36 -22 27 -5 34 -10 29 -23 -3 -8 -9 -43 -12 -76 -5 -54
-3 -64 18 -88 28 -31 81 -44 98 -23 9 11 4 15 -29 20 -59 9 -74 51 -48 140 15
51 22 56 81 56 62 0 66 25 5 29 -23 1 -44 4 -46 6 -3 2 21 40 52 85 31 44 59
87 62 95 9 23 -29 19 -41 -4z"/>
<path d="M9490 10773 c-7 -16 -32 -77 -57 -137 -24 -60 -55 -130 -68 -157 -15
-29 -21 -50 -15 -54 12 -7 129 94 130 112 0 18 30 4 30 -15 0 -8 -16 -43 -35
-78 -37 -65 -44 -94 -22 -94 12 1 97 164 97 187 0 12 -30 33 -49 33 -5 0 -24
-12 -41 -26 -17 -15 -33 -25 -35 -23 -2 2 19 58 46 124 28 66 53 128 56 138 9
29 -22 20 -37 -10z"/>
<path d="M5591 10759 c-5 -13 -7 -27 -4 -31 2 -5 0 -8 -5 -8 -5 0 -25 -40 -43
-90 l-34 -90 -62 0 c-60 0 -85 -12 -66 -31 6 -6 19 -6 32 -1 32 11 94 3 83
-12 -5 -6 -12 -19 -15 -28 -12 -33 27 -19 43 15 11 23 23 33 45 37 40 7 44 30
5 30 -16 0 -30 2 -30 4 0 2 14 37 31 77 51 123 53 129 41 141 -8 8 -14 5 -21
-13z"/>
<path d="M10657 10774 c-3 -3 -4 -11 -1 -18 2 -7 -2 -31 -11 -55 -8 -24 -13
-47 -10 -51 3 -5 2 -10 -3 -12 -4 -1 -30 -59 -57 -126 -50 -128 -64 -207 -35
-207 9 0 15 12 15 35 2 30 29 110 121 353 18 47 18 87 1 87 -8 0 -16 -3 -20
-6z"/>
<path d="M13530 10753 c0 -15 -14 -68 -32 -116 l-33 -89 -62 6 c-49 4 -63 2
-63 -8 0 -16 30 -26 78 -26 l34 0 -8 -42 c-14 -73 -11 -133 6 -133 10 0 14 9
13 25 -1 14 3 53 9 86 l10 62 51 6 c78 11 97 17 97 32 0 10 -8 13 -22 10 -48
-10 -108 -16 -108 -11 0 2 13 38 30 80 37 92 42 138 18 143 -14 3 -18 -3 -18
-25z"/>
<path d="M11369 10765 c-1 -3 -2 -9 -3 -13 0 -4 -19 -44 -41 -89 l-40 -82 -42
0 c-31 -1 -43 -5 -43 -16 0 -11 11 -15 36 -15 33 0 36 -2 30 -22 -12 -44 -19
-117 -12 -142 10 -39 63 -62 117 -50 23 5 44 15 47 23 4 11 -5 13 -44 7 -87
-11 -113 32 -82 135 l11 39 64 0 c47 0 64 3 61 13 -3 7 -27 13 -62 15 l-57 3
45 84 c49 90 55 115 31 115 -8 0 -16 -2 -16 -5z"/>
<path d="M6299 10758 c-1 -2 -3 -12 -4 -23 -1 -11 -17 -66 -35 -122 l-34 -102
-60 -8 c-36 -5 -61 -13 -64 -22 -4 -11 7 -13 50 -9 l55 4 -30 -69 c-18 -43
-25 -73 -19 -79 12 -12 23 4 56 84 30 71 39 78 114 78 47 0 52 -10 22 -42 -26
-29 -27 -84 -1 -98 36 -18 79 -12 112 18 42 37 35 69 -21 101 -22 12 -39 27
-37 34 1 8 -22 14 -70 17 l-71 5 34 99 c38 110 41 136 19 136 -8 0 -16 -1 -16
-2z m142 -328 l24 -20 -24 -20 c-49 -41 -107 -5 -65 41 22 24 36 24 65 -1z"/>
<path d="M12812 10719 c-5 -13 -29 -82 -52 -154 -24 -71 -47 -135 -51 -141
-11 -14 15 -49 29 -40 7 4 12 19 12 33 0 15 21 89 47 165 36 105 44 141 35
150 -8 8 -13 5 -20 -13z"/>
<path d="M2051 10701 c-19 -12 25 -66 108 -133 l64 -51 -24 -20 c-22 -18 -56
-35 -166 -82 -29 -12 -43 -24 -43 -37 0 -21 35 -25 43 -4 3 8 32 24 64 35 65
24 163 87 163 105 0 6 -28 34 -61 61 -34 28 -78 69 -98 92 -25 30 -40 40 -50
34z"/>
<path d="M5355 10701 c-6 -11 33 -36 42 -27 3 3 3 12 0 21 -7 17 -33 20 -42 6z"/>
<path d="M8425 10592 c-65 -22 -70 -51 -16 -110 42 -46 44 -66 5 -70 -20 -2
-38 3 -48 14 -15 15 -19 15 -32 2 -13 -13 -13 -16 1 -28 26 -22 108 -25 128
-5 26 26 21 50 -23 100 -22 26 -38 50 -35 55 8 13 53 18 64 7 18 -18 37 8 21
28 -13 16 -31 18 -65 7z"/>
<path d="M9695 10561 c-43 -26 -61 -50 -79 -100 -14 -42 -14 -46 5 -73 11 -15
29 -33 40 -39 46 -24 179 22 179 64 0 22 -9 22 -36 -4 -33 -31 -102 -42 -133
-22 l-25 16 38 21 c88 49 101 61 104 96 6 57 -37 76 -93 41z m63 -37 c2 -15
-10 -27 -46 -47 -28 -15 -52 -27 -56 -27 -24 0 21 65 60 88 25 15 38 10 42
-14z"/>
<path d="M7398 10528 c-51 -54 -71 -99 -59 -130 12 -31 32 -47 62 -50 33 -4
32 24 -1 32 -19 4 -26 13 -28 37 -3 26 5 41 39 78 23 25 48 45 56 45 20 0 11
24 -11 28 -11 2 -34 -14 -58 -40z"/>
<path d="M8162 10551 c-71 -29 -75 -54 -14 -107 23 -21 33 -37 29 -48 -9 -22
-53 -20 -77 4 -23 23 -40 26 -40 8 1 -50 98 -78 133 -40 26 28 20 55 -18 92
-19 19 -35 37 -35 41 0 7 45 26 75 31 23 4 27 32 5 35 -8 1 -34 -6 -58 -16z"/>
<path d="M12033 10549 c-71 -46 -94 -129 -48 -175 21 -21 33 -25 72 -22 63 4
71 28 10 28 -46 0 -77 18 -77 44 0 7 19 19 43 26 69 20 99 47 95 84 -3 26 -7
31 -33 34 -17 1 -44 -7 -62 -19z m65 -26 c-2 -10 -23 -25 -53 -35 l-50 -18 37
35 c41 38 72 46 66 18z"/>
<path d="M12334 10555 c-4 -8 -4 -24 -1 -35 8 -29 -10 -86 -37 -117 l-23 -27
-13 24 c-7 13 -15 46 -19 74 -4 36 -11 52 -22 54 -14 3 -16 -4 -12 -45 3 -26
14 -67 24 -90 24 -57 55 -59 93 -4 29 42 51 105 41 121 -4 6 6 7 26 3 40 -8
36 13 -7 38 -37 22 -43 23 -50 4z"/>
<path d="M4453 10553 c-18 -7 -16 -36 4 -94 17 -47 17 -49 -3 -76 -24 -32 -44
-41 -44 -19 0 23 -27 20 -35 -4 -9 -28 2 -40 34 -40 33 0 78 41 88 79 3 14 -1
45 -10 72 -21 58 -21 56 4 62 12 3 18 10 14 16 -6 11 -31 13 -52 4z"/>
<path d="M4601 10516 c-37 -37 -45 -52 -48 -93 -7 -69 18 -98 84 -98 45 0 133
30 133 45 0 16 -13 16 -63 -1 -65 -23 -91 -23 -111 -3 -28 27 -18 48 33 72 61
28 88 64 72 98 -17 37 -51 30 -100 -20z m67 -3 c-3 -18 -68 -67 -76 -58 -7 6
58 75 71 75 5 0 7 -8 5 -17z"/>
<path d="M7193 10544 c-51 -25 -105 -90 -101 -122 3 -25 6 -27 52 -27 40 0 50
-4 56 -21 10 -25 36 -38 46 -23 3 6 1 16 -5 22 -18 18 -12 46 18 85 17 20 33
49 36 63 6 23 3 27 -26 33 -41 8 -39 8 -76 -10z m47 -26 c0 -37 -63 -97 -102
-98 -34 0 -12 40 44 80 45 33 58 37 58 18z"/>
<path d="M7854 10538 c-42 -30 -74 -78 -74 -112 0 -17 11 -39 30 -57 25 -26
36 -30 72 -27 56 4 64 28 9 28 -60 0 -93 37 -75 84 5 14 9 14 26 2 33 -23 88
8 88 50 0 58 -25 68 -76 32z m42 -43 c-6 -16 -46 -21 -46 -6 0 6 10 17 22 26
24 16 35 7 24 -20z"/>
<path d="M12887 10508 c-37 -82 -40 -102 -16 -132 16 -20 29 -26 61 -26 33 0
46 7 77 38 41 41 66 93 57 117 -8 21 -26 19 -26 -2 0 -23 -35 -81 -63 -104
-12 -10 -32 -18 -45 -19 -13 0 -20 -4 -17 -10 3 -5 1 -10 -4 -10 -6 0 -11 7
-11 15 0 8 -4 15 -9 15 -13 0 3 62 28 111 20 38 21 59 1 59 -5 0 -20 -24 -33
-52z"/>
<path d="M5237 10518 c-36 -46 -49 -87 -42 -125 7 -41 35 -58 61 -38 18 14 18
15 -3 21 -42 12 -38 61 9 124 16 22 19 33 11 41 -8 8 -18 1 -36 -23z"/>
<path d="M5610 10535 c0 -8 5 -15 10 -15 6 0 10 7 10 15 0 8 -4 15 -10 15 -5
0 -10 -7 -10 -15z"/>
<path d="M7597 10507 c-71 -66 -64 -117 22 -146 41 -13 91 -14 111 -1 13 8 13
11 1 22 -9 8 -11 9 -7 1 3 -6 2 -14 -4 -18 -5 -3 -10 -2 -10 3 0 5 -20 12 -45
15 -53 8 -85 26 -85 48 0 9 20 34 45 55 44 38 57 64 32 64 -7 0 -34 -20 -60
-43z"/>
<path d="M13678 10521 c-121 -77 -114 -181 13 -181 48 0 64 12 33 24 -9 3 -27
6 -40 6 -34 0 -64 17 -64 36 0 35 73 104 110 104 25 0 2 -26 -46 -50 -27 -14
-48 -29 -46 -35 8 -26 126 31 130 64 3 21 -22 61 -38 61 -3 0 -27 -13 -52 -29z"/>
<path d="M11005 10528 c-25 -13 -45 -38 -45 -54 0 -7 12 -27 27 -44 26 -31 26
-33 8 -46 -26 -19 -62 -17 -74 4 -15 27 -37 1 -22 -27 16 -29 78 -29 115 0 33
26 33 43 1 81 -27 32 -23 51 16 63 21 7 26 35 7 35 -7 0 -22 -6 -33 -12z"/>
<path d="M4130 10454 c-63 -87 -74 -100 -106 -121 -24 -16 -33 -43 -13 -43 5
0 35 23 65 51 47 45 54 49 54 30 0 -29 17 -61 32 -61 7 0 27 14 45 32 30 29
33 30 33 11 0 -32 10 -53 27 -53 10 0 12 8 8 33 -4 22 1 50 15 86 20 53 21 81
1 81 -5 0 -25 -26 -45 -58 -38 -62 -72 -99 -83 -89 -8 8 26 135 38 143 5 3 9
12 9 20 0 32 -29 10 -80 -62z"/>
<path d="M10738 10494 c-36 -19 -72 -78 -64 -108 8 -34 33 -39 72 -17 l34 20
0 -23 c0 -32 26 -54 43 -36 9 10 9 13 0 17 -15 5 -17 37 -4 61 5 9 11 35 12
57 4 39 4 40 -31 42 -19 1 -47 -5 -62 -13z m62 -28 c0 -18 -66 -76 -85 -76
-24 0 -17 20 19 56 35 35 66 44 66 20z"/>
<path d="M12483 10494 c-85 -42 -79 -149 7 -117 26 10 30 9 30 -6 0 -28 25
-55 44 -48 15 6 16 9 3 28 -10 13 -13 34 -10 60 5 32 3 39 -11 39 -9 0 -16 -4
-16 -10 0 -17 -61 -43 -73 -31 -18 18 31 61 70 61 23 0 33 5 33 15 0 8 -4 15
-9 15 -5 0 -15 2 -23 5 -7 2 -27 -2 -45 -11z"/>
<path d="M13144 10500 c-21 -8 -74 -65 -74 -80 0 -4 8 -18 19 -31 17 -21 22
-22 54 -12 35 10 36 10 42 -17 8 -36 32 -57 46 -43 8 8 6 18 -5 34 -14 22 -13
28 4 68 24 52 25 61 5 61 -8 0 -15 -4 -15 -10 0 -13 -79 -70 -97 -70 -7 0 -13
9 -13 19 0 23 45 61 72 61 11 0 18 5 16 13 -6 15 -27 18 -54 7z"/>
<path d="M2490 10456 c0 -18 25 -38 34 -28 4 4 67 7 138 7 96 0 132 3 135 13
3 6 0 12 -7 12 -6 0 -8 -4 -5 -10 3 -5 2 -10 -4 -10 -5 0 -11 5 -13 11 -2 7
-53 13 -141 15 -112 3 -137 2 -137 -10z"/>
<path d="M5460 10420 c0 -24 25 -27 34 -4 9 23 8 24 -14 24 -13 0 -20 -7 -20
-20z"/>
<path d="M2755 10278 c-14 -42 -55 -273 -55 -310 0 -24 7 -53 15 -64 18 -23
16 -28 20 76 1 47 12 123 24 170 11 47 21 97 21 113 0 27 -17 38 -25 15z"/>
<path d="M2337 10108 c-18 -40 -39 -99 -46 -130 -7 -32 -16 -58 -20 -58 -13 0
-59 114 -66 165 -7 41 -26 67 -41 52 -3 -3 4 -41 16 -84 23 -87 73 -183 94
-183 16 0 41 57 52 116 10 55 40 120 59 131 10 6 15 19 13 33 -6 45 -26 31
-61 -42z"/>
<path d="M3166 10111 c-64 -43 -82 -109 -46 -169 29 -47 63 -60 103 -40 18 9
40 19 50 22 21 7 23 36 2 36 -8 0 -31 -9 -51 -19 -43 -23 -59 -19 -80 20 -14
28 -14 29 11 29 30 0 115 74 115 99 0 42 -55 54 -104 22z m74 -20 c0 -14 -69
-71 -85 -71 -25 0 -17 27 16 54 30 25 69 35 69 17z"/>
<path d="M2472 10095 c-36 -16 -73 -83 -64 -117 8 -32 43 -49 80 -39 25 8 32
7 32 -5 0 -16 35 -54 50 -54 15 0 12 21 -7 42 -15 17 -15 22 0 76 l17 57 -30
28 c-35 31 -34 31 -78 12z m62 -41 c12 -31 -32 -84 -70 -84 -19 0 -24 5 -24
27 0 52 78 99 94 57z"/>
<path d="M3007 10103 c-4 -3 -7 -34 -7 -68 0 -48 -5 -68 -21 -89 -25 -32 -29
-32 -63 -1 -29 27 -33 57 -11 99 19 36 19 36 -5 36 -14 0 -22 -11 -29 -37 -17
-62 -13 -83 23 -119 47 -47 78 -45 112 6 25 38 32 82 25 168 -1 13 -14 16 -24
5z"/>
<path d="M5007 9414 c-4 -4 2 -21 12 -38 10 -17 31 -64 45 -104 50 -141 25
-244 -61 -250 -35 -3 -42 0 -48 19 -14 42 46 102 96 97 31 -4 36 20 5 28 -35
8 -80 -11 -111 -48 -50 -59 -20 -134 52 -132 54 2 79 18 104 66 29 57 23 158
-15 248 -16 36 -29 76 -30 90 -1 25 -33 40 -49 24z"/>
<path d="M6300 9390 c-14 -3 -26 -14 -28 -23 -3 -15 2 -17 35 -11 36 5 42 3
71 -30 71 -81 83 -256 23 -337 -25 -33 -10 -50 20 -23 26 23 49 105 49 174 0
83 -25 155 -71 205 -43 46 -61 55 -99 45z"/>
<path d="M3265 9356 c-9 -14 -23 -51 -32 -83 -16 -62 -39 -113 -51 -113 -10 0
-56 88 -72 138 -15 48 -36 70 -51 55 -5 -5 -14 -74 -19 -154 -6 -79 -11 -155
-13 -169 -1 -16 4 -26 14 -28 13 -2 17 11 22 80 4 46 7 109 7 141 0 31 4 57
10 57 6 0 10 -7 10 -15 0 -19 56 -119 75 -135 8 -7 22 -10 30 -6 17 6 48 70
69 141 l14 50 2 -90 c2 -101 18 -176 39 -183 11 -4 13 3 6 34 -4 22 -10 97
-14 168 -6 136 -16 159 -46 112z"/>
<path d="M3690 9359 c1 -13 2 -61 1 -106 l-1 -82 -62 -3 c-82 -4 -81 -22 0
-26 34 -2 60 -7 57 -12 -3 -5 -2 -27 1 -50 5 -30 13 -44 28 -50 29 -11 31 -6
12 41 -16 39 -16 43 1 61 12 14 14 21 5 26 -7 5 -12 46 -14 112 -2 75 -7 105
-16 108 -9 3 -13 -4 -12 -19z"/>
<path d="M3819 9363 c-1 -5 -1 -11 -1 -14 1 -3 -3 -66 -7 -140 -12 -185 4
-219 53 -120 24 47 52 78 61 69 3 -3 10 -34 16 -69 11 -60 31 -100 44 -87 9 8
-24 159 -37 176 -21 25 -61 10 -86 -33 l-24 -40 6 133 c5 113 4 132 -9 132 -8
0 -16 -3 -16 -7z"/>
<path d="M6013 9346 c-45 -38 -83 -122 -83 -184 0 -60 17 -101 56 -131 33 -26
99 -44 131 -36 37 9 22 29 -24 31 -91 5 -138 59 -131 149 5 63 57 152 91 157
25 3 30 31 6 36 -9 2 -30 -8 -46 -22z"/>
<path d="M2250 9291 c0 -22 13 -34 92 -82 l59 -36 -32 -27 c-17 -15 -45 -34
-63 -43 -40 -20 -146 -95 -146 -102 1 -31 50 -39 50 -9 0 7 39 38 87 68 101
64 143 97 143 113 0 7 -32 32 -71 55 -38 24 -75 52 -82 63 -15 24 -37 25 -37
0z"/>
<path d="M4296 9182 c-11 -18 6 -212 19 -212 15 0 32 40 41 100 3 25 12 55 18
68 11 21 14 22 25 8 8 -9 22 -16 33 -16 15 0 17 4 9 18 -5 10 -21 24 -35 32
-23 12 -28 11 -46 -5 -11 -10 -20 -24 -20 -31 0 -7 -5 -16 -11 -20 -7 -4 -10
5 -7 27 3 31 -13 51 -26 31z"/>
<path d="M5522 9168 c-19 -19 -22 -20 -22 -5 0 20 -19 23 -24 5 -3 -7 -7 -41
-10 -76 -5 -54 -4 -63 10 -60 8 2 25 28 37 58 12 30 27 55 32 55 6 0 11 -24
13 -52 4 -66 23 -70 69 -16 l31 38 6 -30 c14 -66 22 -80 44 -83 24 -4 29 7 10
26 -7 7 -17 36 -23 65 -13 65 -35 73 -76 25 l-28 -33 -1 27 c0 34 -20 78 -34
78 -7 0 -22 -10 -34 -22z"/>
<path d="M5260 9171 c0 -5 -14 -14 -30 -21 -94 -39 -53 -163 48 -147 76 12
109 101 57 152 -23 24 -75 35 -75 16z m67 -59 c9 -35 -11 -69 -46 -77 -69 -15
-99 48 -39 85 43 26 77 22 85 -8z"/>
<path d="M3373 9144 c-50 -50 -5 -132 68 -120 31 5 38 3 42 -14 5 -21 33 -37
44 -26 4 4 -1 20 -10 35 -9 16 -17 35 -17 43 0 8 -5 19 -12 26 -9 9 -17 6 -33
-14 -16 -20 -27 -25 -42 -20 -29 9 -35 41 -13 68 16 21 21 22 52 10 44 -16 58
-15 58 2 0 16 -50 36 -87 36 -13 0 -35 -12 -50 -26z"/>
<path d="M4558 9159 c-10 -5 -29 -30 -44 -55 -44 -75 -14 -124 52 -85 29 17
34 18 34 5 0 -19 38 -74 51 -74 15 0 10 40 -7 58 -13 13 -15 28 -10 83 6 56 4
67 -9 73 -23 9 -47 7 -67 -5z m42 -44 c0 -28 -40 -75 -64 -75 -13 0 -14 5 -5
28 11 29 47 72 61 72 4 0 8 -11 8 -25z"/>
<path d="M4769 9151 c-13 -9 -32 -20 -41 -24 -10 -4 -17 -16 -17 -29 0 -13 -2
-40 -6 -60 -6 -31 -5 -38 9 -38 9 0 16 6 16 13 0 6 11 36 25 65 35 76 65 68
65 -18 0 -47 18 -90 38 -90 10 0 12 6 7 23 -4 12 -10 47 -14 77 -7 61 -14 75
-40 90 -14 7 -25 5 -42 -9z"/>
<path d="M4050 8967 c0 -13 46 -44 54 -36 2 2 6 13 8 24 2 16 -3 21 -29 23
-23 2 -33 -1 -33 -11z"/>
<path d="M2240 8500 c0 -14 28 -41 90 -86 50 -36 90 -69 90 -74 0 -4 -11 -15
-25 -24 -13 -9 -61 -48 -105 -87 -58 -52 -80 -77 -80 -95 0 -32 22 -30 37 4
10 22 119 120 197 175 27 20 16 40 -51 89 -31 24 -75 60 -96 81 -45 42 -57 46
-57 17z"/>
<path d="M2865 8214 c-22 -9 -70 -17 -107 -18 -75 -3 -86 -7 -62 -26 15 -13
83 -8 199 16 11 2 44 7 74 11 30 5 56 14 59 21 6 18 -112 15 -163 -4z"/>
<path d="M2207 7663 c-13 -12 -7 -21 21 -31 15 -5 61 -31 102 -58 l75 -49 -45
-41 c-66 -60 -158 -134 -168 -134 -5 0 -16 -8 -25 -18 -45 -50 9 -58 56 -8 18
18 57 53 87 76 72 56 140 118 140 129 0 5 -24 23 -52 41 -29 17 -78 47 -108
66 -54 34 -71 40 -83 27z"/>
<path d="M2795 7650 c-3 -5 -3 -25 0 -44 4 -18 2 -93 -5 -165 -12 -136 -9
-171 16 -171 12 0 14 7 10 28 -3 15 0 92 8 172 7 80 9 155 5 168 -9 23 -24 29
-34 12z"/>
<path d="M3220 7563 c-19 -97 -18 -96 -56 -88 -26 4 -34 2 -34 -8 0 -16 21
-27 50 -27 15 0 18 -10 19 -72 1 -81 18 -116 65 -133 35 -12 109 12 114 38 3
17 1 17 -33 2 -49 -20 -67 -19 -93 5 -19 18 -22 32 -22 90 l0 70 59 0 c64 0
116 14 107 29 -3 5 -43 7 -87 4 -77 -6 -81 -5 -76 13 27 87 32 144 14 144 -8
0 -18 -25 -27 -67z"/>
<path d="M2951 7436 c-58 -60 -53 -170 9 -196 36 -15 95 -6 140 21 42 26 27
49 -17 26 -16 -9 -45 -18 -65 -22 -29 -6 -40 -3 -57 14 -12 12 -21 34 -21 49
0 25 3 28 28 24 33 -4 82 30 82 59 0 64 -49 77 -99 25z m63 -5 c15 -24 -30
-66 -55 -51 -11 7 -9 14 11 34 25 28 35 31 44 17z"/>
<path d="M3802 7445 c-18 -8 -35 -21 -38 -30 -3 -8 -12 -15 -18 -15 -15 0 -9
-178 6 -197 21 -25 29 1 27 80 -3 94 4 124 32 132 31 10 56 -3 74 -41 17 -36
35 -37 35 -2 0 20 -60 88 -76 88 -5 -1 -24 -7 -42 -15z"/>
<path d="M4379 7436 c-4 -4 -161 -27 -197 -29 -7 0 -11 -7 -9 -16 2 -9 7 -15
13 -14 43 7 215 25 237 25 17 0 27 5 27 14 0 8 -6 14 -12 14 -7 0 -22 3 -33 6
-11 3 -23 3 -26 0z"/>
<path d="M4329 7306 c-2 -2 -40 -7 -84 -9 -65 -4 -81 -8 -83 -22 -4 -16 4 -17
80 -9 45 5 104 7 130 6 46 -3 65 8 53 29 -5 7 -14 4 -26 -7 -17 -16 -19 -16
-19 -1 0 11 -8 17 -23 17 -13 0 -26 -2 -28 -4z"/>
<path d="M4910 7269 c-74 -5 -160 -7 -191 -4 -59 6 -75 0 -58 -21 9 -11 49
-12 193 -8 189 6 246 12 249 29 3 13 -33 14 -193 4z"/>
<path d="M5640 6703 c-43 -44 -65 -78 -91 -138 -70 -167 -34 -299 107 -381 46
-27 157 -44 168 -26 4 7 -4 14 -20 18 -16 4 -29 2 -34 -5 -5 -9 -9 -9 -13 3
-4 9 -17 16 -29 16 -46 0 -128 63 -158 120 -33 65 -35 118 -6 204 38 112 97
192 159 215 31 12 28 31 -5 31 -13 0 -45 -24 -78 -57z"/>
<path d="M4819 6687 c-58 -126 -79 -328 -39 -379 22 -29 89 -50 114 -36 27 15
18 28 -20 28 -39 0 -74 15 -74 31 0 6 9 23 19 38 37 52 78 136 73 150 -2 8 0
11 6 7 24 -15 25 159 0 207 -19 37 -48 20 -79 -46z m66 -42 c8 -76 -1 -110
-56 -204 l-39 -66 0 55 c0 96 52 280 78 280 6 0 13 -29 17 -65z"/>
<path d="M6150 6730 c0 -5 16 -17 35 -26 19 -9 46 -30 60 -46 35 -41 65 -147
65 -228 0 -59 -5 -78 -41 -149 -22 -45 -52 -94 -65 -108 -33 -36 -15 -57 20
-24 36 34 106 178 115 239 15 95 -23 238 -77 295 -43 45 -112 74 -112 47z"/>
<path d="M4186 6643 c-3 -42 -6 -113 -6 -158 0 -134 13 -168 58 -150 16 6 16
8 -3 21 -19 14 -20 26 -19 167 1 104 5 152 12 155 27 9 5 42 -27 42 -5 0 -11
-34 -15 -77z"/>
<path d="M2256 6662 c-9 -14 46 -78 113 -132 l60 -48 -62 -40 c-101 -66 -142
-122 -118 -161 11 -17 31 -6 31 19 0 22 50 67 136 121 35 22 64 45 64 50 0 13
-111 123 -145 145 -17 11 -30 26 -30 34 0 17 -40 26 -49 12z"/>
<path d="M6625 6566 c-12 -9 -16 -19 -11 -31 6 -18 8 -17 29 3 26 27 12 50
-18 28z"/>
<path d="M4370 6547 c-37 -19 -70 -74 -70 -118 0 -28 8 -47 29 -71 26 -29 35
-33 99 -36 41 -2 78 1 91 7 38 21 23 31 -38 25 -70 -8 -104 -1 -131 26 -28 28
-25 45 9 46 58 2 109 65 80 100 -22 27 -44 33 -69 21z m43 -41 c7 -18 -24 -46
-51 -46 -26 0 -27 8 -6 38 17 25 49 29 57 8z"/>
<path d="M3749 6541 c-79 -24 -86 -48 -33 -102 27 -27 34 -42 29 -57 -8 -26
-41 -38 -61 -21 -19 16 -31 3 -18 -19 28 -45 114 -7 114 50 0 22 -10 39 -36
63 -35 32 -35 34 -16 44 12 6 34 11 51 11 37 0 48 15 22 29 -11 6 -21 11 -23
10 -2 0 -15 -4 -29 -8z"/>
<path d="M5917 6535 c-11 -10 -17 -11 -19 -3 -2 6 -10 8 -17 4 -17 -11 -9
-201 10 -201 15 0 24 31 34 115 8 68 21 81 60 56 30 -20 45 -20 45 -1 0 17
-49 45 -79 45 -11 0 -26 -7 -34 -15z"/>
<path d="M2953 6525 c-71 -31 -94 -121 -45 -176 24 -27 37 -33 85 -37 48 -4
57 -2 57 12 0 12 -10 16 -44 16 -33 0 -49 6 -70 26 -33 34 -33 66 2 105 22 24
36 31 65 31 38 0 52 20 21 32 -22 9 -35 7 -71 -9z"/>
<path d="M3412 6508 c-5 -13 -12 -53 -15 -90 -5 -54 -3 -68 8 -68 7 0 19 17
25 38 17 52 49 102 66 102 27 0 47 -47 41 -94 -5 -33 -2 -47 9 -56 21 -18 25
-9 27 52 2 97 -55 158 -108 116 -24 -19 -26 -19 -23 -3 5 27 -21 30 -30 3z"/>
<path d="M3916 6496 c-39 -40 -51 -89 -35 -134 13 -37 35 -52 78 -52 81 0 118
57 90 139 -14 39 -41 56 -69 41 -24 -13 -18 -30 10 -30 21 0 40 -28 40 -59 0
-49 -80 -82 -111 -45 -22 27 -14 83 17 115 15 16 34 29 42 29 19 0 9 24 -12
28 -10 2 -31 -12 -50 -32z"/>
<path d="M3176 6469 c-44 -34 -51 -117 -13 -141 27 -17 88 -8 112 17 28 27 29
34 15 87 -17 59 -66 75 -114 37z m73 -23 c17 -20 17 -76 0 -87 -8 -5 -27 -8
-44 -7 -26 3 -30 8 -33 35 -5 52 49 93 77 59z"/>
<path d="M4987 6469 c-9 -12 -22 -46 -28 -75 -10 -46 -10 -56 5 -78 13 -21 25
-26 56 -26 52 0 110 52 110 99 0 71 -108 131 -143 80z m107 -54 c11 -30 6 -46
-20 -70 -33 -30 -79 -33 -87 -6 -8 31 14 110 32 114 22 5 67 -19 75 -38z"/>
<path d="M5338 6483 c0 -5 -2 -12 -3 -18 -5 -33 -50 -104 -71 -114 -34 -15
-34 -15 -34 14 0 34 25 81 46 89 25 9 2 30 -24 22 -30 -10 -65 -97 -52 -131 5
-14 17 -28 26 -32 20 -7 83 22 90 42 4 8 11 15 17 15 6 0 8 -3 5 -6 -3 -3 0
-26 6 -52 17 -66 11 -80 -32 -88 -20 -3 -48 -13 -61 -21 -21 -13 -23 -21 -19
-69 7 -84 61 -130 101 -86 22 24 47 86 47 116 0 29 20 27 57 -7 25 -22 48 -15
34 10 -5 9 -26 26 -47 38 -43 24 -46 34 -60 208 -4 42 -10 77 -15 77 -5 0 -10
-3 -11 -7z m13 -325 c-10 -41 -39 -98 -50 -98 -29 0 -53 89 -31 115 7 8 29 15
50 15 38 0 38 0 31 -32z"/>
<path d="M6627 6364 c-3 -4 5 -26 18 -49 37 -62 33 -99 -14 -146 -29 -29 -47
-39 -70 -39 -22 0 -30 4 -25 12 4 7 3 8 -4 4 -9 -5 -9 -13 -1 -28 22 -40 122
0 154 62 22 43 18 97 -10 147 -25 42 -35 50 -48 37z"/>
<path d="M4594 6339 c-12 -19 12 -32 36 -19 18 10 20 14 9 21 -19 12 -36 11
-45 -2z"/>
<path d="M14647 5913 c-8 -16 -33 -80 -57 -143 -49 -132 -69 -175 -116 -243
-19 -27 -34 -53 -34 -57 0 -14 66 -50 90 -50 35 0 106 46 129 84 25 40 27 98
4 121 -12 12 -27 16 -54 12 l-38 -5 25 67 c14 36 29 77 34 91 4 14 19 51 34
81 30 65 31 69 11 69 -8 0 -21 -12 -28 -27z m1 -339 c5 -56 -81 -133 -134
-120 -38 10 -29 41 30 102 41 42 60 55 77 52 19 -2 25 -10 27 -34z"/>
<path d="M3346 5883 c-3 -10 -8 -36 -12 -58 -8 -47 -21 -76 -42 -91 -10 -7
-13 -18 -8 -30 7 -17 10 -16 36 13 28 31 41 66 55 146 5 29 3 37 -9 37 -8 0
-17 -8 -20 -17z"/>
<path d="M14044 5873 c-4 -15 -24 -64 -44 -108 -21 -44 -40 -90 -44 -102 -6
-18 -18 -23 -69 -30 -75 -10 -81 -27 -10 -31 l51 -3 -1 -62 c-2 -79 16 -86 25
-11 9 65 9 65 49 79 38 13 41 29 7 33 -16 2 -28 6 -28 8 0 3 20 48 45 100 24
52 46 106 47 120 4 37 -20 42 -28 7z"/>
<path d="M2344 5828 c4 -28 18 -97 32 -152 26 -111 29 -157 11 -198 -11 -25
-14 -27 -37 -15 -35 17 -94 107 -125 187 -24 64 -47 91 -60 71 -2 -5 -9 -63
-15 -128 -6 -66 -15 -134 -20 -151 -5 -19 -5 -34 1 -37 25 -16 37 25 48 170
l6 80 33 -67 c43 -88 107 -158 147 -161 25 -2 33 4 47 33 24 48 23 104 -7 224
-13 55 -25 117 -27 136 -2 37 -14 60 -31 60 -6 0 -7 -19 -3 -52z"/>
<path d="M12236 5868 c-3 -7 -7 -33 -11 -58 -3 -25 -13 -75 -21 -112 -14 -60
-17 -66 -30 -53 -50 50 -163 -45 -164 -137 0 -46 21 -68 66 -68 45 0 81 24
103 69 19 38 66 214 77 291 4 25 11 48 17 51 13 9 0 29 -19 29 -8 0 -16 -6
-18 -12z m-78 -244 c27 -8 28 -22 1 -83 -22 -52 -52 -75 -90 -69 -47 6 -33 86
23 133 32 27 33 27 66 19z"/>
<path d="M13527 5873 c-2 -4 -17 -48 -32 -98 -30 -99 -59 -162 -113 -243 -23
-36 -31 -57 -25 -63 7 -7 31 13 74 60 83 94 127 95 80 3 -23 -46 -34 -90 -25
-103 8 -14 34 9 34 31 0 10 12 43 26 73 20 46 23 60 14 78 -10 17 -19 20 -49
17 l-38 -3 23 55 c37 92 58 180 47 191 -6 6 -13 7 -16 2z"/>
<path d="M4070 5858 c-110 -13 -215 -43 -218 -61 -4 -21 -5 -21 107 8 126 33
256 35 295 4 35 -28 36 -86 2 -118 -21 -20 -113 -61 -136 -61 -6 0 -10 25 -10
56 0 55 -14 99 -29 90 -4 -3 -6 -39 -3 -81 l5 -75 -27 0 c-21 0 -27 -4 -24
-17 2 -10 13 -19 26 -21 20 -3 22 -8 17 -35 -13 -76 -23 -179 -18 -197 3 -11
11 -20 18 -20 8 0 14 32 18 106 9 132 11 137 57 116 28 -14 43 -33 79 -104 24
-49 50 -88 57 -88 20 0 18 6 -25 95 -40 83 -64 112 -109 131 l-27 11 40 13
c64 20 116 53 131 82 36 69 -2 152 -74 163 -71 11 -87 12 -152 3z"/>
<path d="M7177 5853 c-3 -5 -21 -64 -42 -133 -20 -69 -48 -146 -62 -172 -14
-25 -22 -51 -19 -57 8 -13 36 -3 36 13 0 14 86 106 100 106 13 0 13 -5 -5 -74
-16 -59 -14 -76 9 -76 8 0 16 17 19 43 3 23 9 61 13 84 5 36 3 43 -16 53 -17
9 -26 8 -47 -5 -24 -16 -25 -16 -19 2 3 10 14 51 24 90 10 40 21 76 25 80 10
9 9 41 -2 48 -5 3 -12 2 -14 -2z"/>
<path d="M13347 5828 c-7 -18 -24 -66 -37 -105 l-24 -73 -45 -2 c-25 -1 -62
-3 -81 -3 -23 -1 -35 -6 -35 -16 0 -11 15 -13 73 -11 39 2 72 -1 72 -5 0 -4
-12 -38 -26 -75 -15 -37 -24 -74 -20 -84 9 -25 19 -10 50 78 24 67 31 77 54
80 31 4 43 28 13 28 -27 0 -27 3 10 102 36 98 38 109 22 115 -7 2 -18 -11 -26
-29z"/>
<path d="M2864 5826 c-3 -9 2 -47 11 -86 24 -96 18 -228 -11 -267 -26 -35 -68
-52 -92 -37 -40 26 -16 118 34 130 30 8 32 34 3 34 -29 0 -85 -62 -91 -98 -18
-124 138 -137 188 -15 17 39 18 179 3 243 -6 25 -12 58 -13 74 -2 33 -23 47
-32 22z"/>
<path d="M6106 5828 c-3 -7 -7 -33 -11 -58 -10 -70 -45 -179 -82 -253 -28 -57
-31 -68 -18 -73 19 -8 14 -14 52 71 54 122 102 303 85 320 -9 9 -23 5 -26 -7z"/>
<path d="M4907 5804 c-3 -3 -4 -18 -1 -33 3 -14 -4 -82 -16 -151 -32 -187 -33
-197 -21 -204 6 -4 24 0 40 9 18 9 56 15 96 15 39 0 65 4 65 11 0 5 5 7 12 3
7 -4 8 -3 4 4 -9 15 -150 16 -178 1 -17 -9 -20 -9 -15 4 12 32 48 276 45 307
-3 32 -17 48 -31 34z"/>
<path d="M15325 5790 c-8 -13 3 -30 21 -30 18 0 18 14 0 29 -10 8 -16 9 -21 1z"/>
<path d="M9796 5768 c-3 -7 -7 -24 -10 -38 -4 -14 -18 -69 -32 -123 -25 -97
-36 -199 -22 -212 16 -16 28 10 28 58 0 48 35 205 59 270 6 16 11 35 11 43 0
17 -29 19 -34 2z"/>
<path d="M9445 5756 c-17 -12 -17 -16 -5 -31 13 -16 15 -16 27 1 15 20 17 44
5 44 -5 0 -17 -6 -27 -14z"/>
<path d="M8460 5692 c-22 -18 -23 -20 -10 -84 6 -37 9 -76 5 -87 -9 -29 -49
-37 -81 -16 -34 22 -51 6 -24 -23 27 -28 79 -29 114 -1 29 23 33 60 16 134
-12 51 0 65 57 65 60 0 53 24 -9 28 -32 2 -51 -2 -68 -16z"/>
<path d="M12436 5690 c-66 -33 -73 -66 -26 -125 17 -21 30 -39 30 -41 0 -2
-18 -13 -40 -24 -46 -23 -80 -26 -80 -6 0 9 -7 12 -20 9 -24 -6 -25 -13 -6
-38 18 -25 63 -22 125 9 61 31 65 52 21 103 -16 18 -30 40 -30 48 0 21 40 44
90 53 23 4 42 12 43 17 3 18 -67 15 -107 -5z"/>
<path d="M6221 5673 c-33 -16 -71 -65 -71 -90 0 -7 16 -30 35 -52 19 -21 35
-44 35 -50 0 -6 -18 -11 -45 -11 -34 0 -45 4 -45 16 0 21 -24 12 -28 -11 -5
-25 15 -35 74 -35 83 0 99 43 39 109 l-36 39 24 28 c14 15 38 33 56 39 17 5
32 15 33 20 5 17 -35 16 -71 -2z"/>
<path d="M8690 5639 c-50 -52 -85 -128 -151 -334 -23 -74 -23 -75 -1 -75 13 0
26 27 56 110 21 61 43 110 48 110 18 0 110 50 142 77 58 48 71 98 36 133 -35
35 -84 27 -130 -21z m111 -5 c11 -13 11 -20 -1 -41 -19 -34 -75 -78 -123 -98
l-37 -15 20 52 c35 92 106 144 141 102z"/>
<path d="M7659 5663 c-13 -3 -16 -18 -16 -71 0 -37 -3 -78 -7 -90 -9 -28 -44
-29 -79 -2 -31 25 -37 25 -37 0 0 -21 30 -44 72 -54 20 -4 34 0 53 17 25 21
32 51 35 155 0 9 11 10 40 6 28 -5 40 -3 40 6 0 6 -9 14 -20 17 -11 3 -20 9
-20 14 0 9 -32 10 -61 2z"/>
<path d="M8936 5639 c-68 -59 -99 -145 -66 -184 25 -30 190 -11 190 23 0 11
-6 12 -27 6 -16 -5 -53 -8 -83 -9 l-55 0 0 35 c0 28 4 35 20 36 46 2 55 5 84
30 32 27 40 61 19 82 -20 20 -45 14 -82 -19z m64 -14 c0 -15 -42 -48 -67 -51
-22 -4 -14 13 20 40 37 30 47 32 47 11z"/>
<path d="M11585 5654 c-41 -21 -69 -49 -90 -88 -35 -64 6 -112 67 -81 26 12
28 12 28 -5 0 -32 11 -50 31 -50 22 0 23 4 7 31 -11 17 -8 28 20 79 17 32 32
63 32 69 0 19 -28 12 -35 -9 -9 -29 -85 -90 -112 -90 -28 0 -29 13 -3 55 27
44 66 68 95 61 28 -7 42 9 25 29 -16 19 -28 19 -65 -1z"/>
<path d="M6404 5642 c-11 -9 -31 -38 -44 -64 -28 -55 -21 -93 21 -117 24 -13
30 -12 65 6 55 28 87 78 81 126 -3 21 -11 44 -17 52 -17 20 -80 18 -106 -3z
m91 -41 c15 -68 -75 -144 -115 -96 -16 20 -4 54 33 91 42 42 73 44 82 5z"/>
<path d="M7363 5647 c-33 -14 -73 -100 -64 -135 9 -33 50 -41 87 -17 24 15 24
15 24 -19 0 -40 24 -66 43 -46 9 10 9 13 0 17 -17 6 -16 58 2 108 19 53 19 58
-5 52 -11 -3 -18 -2 -16 2 6 9 -16 36 -34 43 -8 3 -25 1 -37 -5z m50 -48 c17
-20 17 -21 -17 -55 -40 -40 -66 -44 -66 -11 0 28 36 87 53 87 7 0 20 -9 30
-21z"/>
<path d="M11834 5626 l-40 -34 4 30 c7 43 -17 32 -33 -16 -7 -21 -26 -51 -40
-66 -25 -27 -27 -50 -4 -50 6 0 38 26 72 59 55 51 95 81 111 81 8 0 -10 -52
-33 -97 -25 -50 -28 -93 -6 -93 8 0 15 9 15 20 0 12 11 42 24 68 31 63 39 101
25 118 -19 23 -53 16 -95 -20z"/>
<path d="M15022 5639 c-49 -24 -82 -66 -82 -102 0 -42 53 -50 102 -16 l30 22
-7 -49 c-4 -27 -11 -65 -16 -85 -8 -32 -12 -35 -38 -31 -62 9 -94 -33 -111
-146 -11 -71 -4 -112 21 -112 19 0 58 52 96 128 21 43 39 78 40 80 1 2 10 -1
22 -7 29 -16 40 7 13 28 l-22 16 20 97 c11 54 26 114 35 134 8 21 12 41 7 46
-19 19 -68 18 -110 -3z m58 -39 c-6 -11 -25 -31 -44 -45 -60 -46 -92 -23 -38
28 47 45 103 57 82 17z m-60 -266 c0 -34 -85 -182 -97 -170 -10 10 21 139 39
161 22 28 58 34 58 9z"/>
<path d="M9229 5632 c-45 -23 -99 -96 -99 -133 0 -36 31 -69 65 -69 20 0 25 5
25 26 0 22 -4 25 -27 22 -23 -2 -29 1 -31 21 -5 30 72 111 105 111 13 0 23 6
23 14 0 22 -25 26 -61 8z"/>
<path d="M10424 5636 c-56 -25 -101 -107 -83 -153 13 -35 26 -43 69 -43 48 0
78 9 84 26 4 11 -7 13 -57 11 -61 -2 -62 -2 -65 26 -2 15 6 42 18 61 23 39 78
65 91 44 6 -10 11 -10 20 -1 9 9 9 16 -1 28 -15 18 -35 19 -76 1z"/>
<path d="M11211 5604 l-40 -46 -7 26 c-3 14 -13 26 -21 26 -11 0 -14 -7 -10
-22 4 -13 -4 -43 -20 -75 -21 -42 -24 -56 -14 -66 9 -9 18 -4 39 23 15 19 41
51 59 70 l33 35 -16 -48 c-11 -33 -13 -52 -6 -59 13 -13 36 0 112 63 33 27 60
47 60 45 0 -3 -7 -24 -16 -46 -9 -22 -14 -47 -10 -55 8 -22 38 -19 34 3 -2 9
4 36 14 60 39 94 13 111 -69 44 -104 -85 -97 -83 -74 -21 39 100 19 119 -48
43z"/>
<path d="M14780 5601 c-43 -44 -51 -56 -48 -83 3 -37 34 -58 73 -50 39 7 31
32 -10 32 -49 0 -46 26 3 34 58 9 94 41 90 80 -2 25 -8 32 -30 34 -22 3 -38
-7 -78 -47z m80 8 c0 -17 -45 -56 -59 -51 -8 3 -3 14 15 33 29 31 44 36 44 18z"/>
<path d="M2562 5625 c-27 -20 -56 -114 -47 -156 15 -66 101 -76 150 -17 29 35
31 57 8 120 -22 63 -66 84 -111 53z m51 -36 c3 -12 10 -18 16 -15 17 11 35
-67 22 -93 -23 -43 -81 -48 -102 -10 -17 33 22 139 51 139 4 0 10 -9 13 -21z"/>
<path d="M15227 5633 c-2 -5 -12 -32 -22 -61 -12 -39 -14 -57 -6 -65 6 -6 12
-9 14 -6 11 13 45 124 41 131 -6 10 -21 10 -27 1z"/>
<path d="M15346 5566 c-20 -41 -36 -80 -36 -86 0 -23 27 -7 83 48 l58 57 -16
-38 c-29 -70 6 -118 75 -100 33 9 60 36 48 49 -4 3 -17 -1 -30 -10 -30 -21
-55 -20 -68 3 -8 15 -3 32 20 77 45 85 11 95 -68 21 l-32 -31 11 33 c8 22 8
36 1 43 -7 7 -21 -14 -46 -66z"/>
<path d="M3023 5608 c-63 -71 -71 -128 -24 -180 25 -28 34 -32 80 -31 40 1 58
6 77 24 29 28 16 53 -14 26 -29 -26 -107 -23 -126 5 -24 34 -20 44 17 41 46
-5 97 28 97 65 0 66 -65 96 -107 50z m65 -20 c31 -31 -9 -71 -65 -66 -20 2
-21 4 -7 30 12 24 39 47 55 48 3 0 10 -5 17 -12z"/>
<path d="M3373 5615 c-48 -20 -45 -60 8 -121 25 -29 37 -50 31 -56 -16 -16
-90 -22 -107 -8 -20 17 -33 4 -18 -18 17 -27 116 -23 145 6 26 25 23 33 -36
106 -33 42 -29 66 13 66 37 0 48 15 22 29 -24 13 -19 13 -58 -4z"/>
<path d="M5852 5613 c-9 -14 -13 -16 -23 -5 -16 15 -49 15 -69 -1 -32 -26 -90
-101 -90 -118 0 -37 26 -42 83 -16 l54 24 -7 -38 c-8 -43 -5 -49 22 -49 15 0
17 5 12 25 -4 17 3 53 21 101 19 52 24 79 17 86 -7 7 -13 4 -20 -9z m-42 -38
c17 -20 0 -40 -62 -71 l-49 -25 12 23 c13 26 69 88 80 88 3 0 12 -7 19 -15z"/>
<path d="M10617 5599 c-15 -12 -35 -35 -43 -51 -33 -64 28 -118 94 -84 46 24
54 61 25 120 -21 41 -37 44 -76 15z m61 -67 c4 -25 -37 -56 -62 -46 -18 7 -22
44 -5 61 19 19 64 9 67 -15z"/>
<path d="M13598 5578 c-22 -24 -44 -52 -48 -63 -16 -43 14 -62 65 -41 32 14
34 13 37 -7 2 -12 11 -23 21 -25 15 -3 18 0 12 17 -3 12 2 39 14 67 25 55 25
54 7 54 -7 0 -32 -18 -54 -40 -35 -36 -72 -53 -72 -32 1 17 65 76 84 77 29 2
27 29 -2 33 -17 3 -35 -8 -64 -40z"/>
<path d="M4661 5589 c-13 -12 -29 -36 -37 -53 -12 -28 -13 -28 -14 -8 0 14 -5
22 -12 20 -15 -5 -20 -315 -6 -325 23 -14 33 23 35 130 3 113 17 172 50 210
22 24 38 21 51 -8 36 -78 -14 -183 -59 -124 -15 21 -19 22 -24 7 -11 -27 12
-58 44 -58 43 0 74 40 78 102 8 101 -50 159 -106 107z"/>
<path d="M10956 5555 c-33 -30 -61 -53 -64 -51 -2 3 6 21 18 40 20 34 20 56
-1 56 -5 0 -28 -17 -51 -37 -32 -29 -38 -33 -29 -14 9 16 10 26 2 34 -15 15
-19 9 -46 -69 -17 -49 -21 -72 -13 -79 7 -7 12 -5 16 4 2 8 20 30 39 50 22 23
31 28 24 14 -33 -67 11 -71 85 -7 51 43 54 44 54 22 0 -35 23 -63 45 -54 17 6
17 7 0 26 -12 13 -15 28 -11 45 3 14 9 36 12 50 10 39 -14 30 -80 -30z"/>
<path d="M4346 5549 c-20 -24 -26 -41 -26 -81 0 -42 5 -54 30 -80 28 -28 35
-30 85 -26 57 5 114 33 98 49 -6 6 -23 4 -46 -6 -52 -21 -92 -19 -117 7 -27
30 -25 48 5 48 44 0 85 27 85 56 0 44 -17 64 -54 64 -26 0 -41 -8 -60 -31z
m81 -15 c8 -21 -21 -44 -54 -44 -28 0 -29 14 -3 40 24 24 48 26 57 4z"/>
<path d="M9518 5558 c-48 -28 -73 -75 -54 -103 17 -26 49 -30 87 -11 29 14 30
14 24 -5 -4 -11 0 -25 8 -34 18 -18 27 -9 27 27 0 16 7 45 15 65 20 48 19 56
-12 71 -37 17 -52 15 -95 -10z m67 -22 c12 -11 10 -17 -13 -39 -15 -14 -39
-29 -54 -32 -24 -6 -28 -4 -28 13 0 19 54 72 73 72 5 0 15 -6 22 -14z"/>
<path d="M9366 5499 c-16 -52 -13 -73 6 -67 11 4 38 79 38 106 0 6 -7 12 -15
12 -9 0 -20 -20 -29 -51z"/>
<path d="M5477 5285 c-49 -102 -52 -103 -120 -84 -42 11 -64 5 -47 -16 6 -7
33 -15 60 -19 l49 -7 -15 -41 c-21 -60 -18 -112 9 -142 24 -27 83 -42 107 -27
23 16 -4 36 -45 33 -26 -2 -37 2 -46 19 -12 24 -8 88 10 132 9 24 16 27 55 27
25 0 48 5 51 11 10 15 2 20 -39 22 -20 1 -36 4 -36 7 0 3 16 36 35 74 34 68
44 106 26 106 -4 0 -29 -43 -54 -95z"/>
<path d="M5055 5341 c-3 -6 -3 -11 2 -11 4 0 1 -5 -7 -10 -10 -6 -11 -10 -2
-10 17 0 15 -81 -4 -151 -16 -56 -17 -57 -38 -44 -32 21 -87 3 -126 -42 -27
-30 -31 -42 -26 -71 11 -69 71 -95 114 -49 69 74 118 205 124 332 2 49 0 60
-14 63 -9 2 -19 -2 -23 -7z m-50 -262 c11 -17 -62 -119 -85 -119 -20 0 -40 27
-40 55 0 28 55 75 89 75 16 0 33 -5 36 -11z"/>
<path d="M2856 5291 c-3 -27 -13 -71 -21 -98 -12 -41 -20 -51 -48 -61 -72 -26
-76 -20 -52 88 18 83 19 110 1 110 -10 0 -18 -22 -26 -72 -26 -159 -17 -146
-102 -137 -37 4 -53 -9 -27 -23 8 -4 31 -10 52 -13 l38 -6 -7 -57 c-10 -79
-10 -86 0 -92 14 -8 25 20 31 83 7 62 13 68 78 82 20 4 27 10 23 20 -3 8 0 15
5 15 7 0 9 -9 5 -22 -4 -13 -9 -38 -13 -55 -10 -55 25 -41 75 28 24 33 48 59
55 56 25 -8 38 -51 33 -109 -6 -59 5 -83 23 -49 26 47 3 173 -34 187 -27 11
-62 -5 -85 -38 -13 -20 -20 -25 -16 -13 3 11 14 53 25 94 25 88 27 131 7 131
-9 0 -16 -17 -20 -49z"/>
<path d="M2504 5239 c-9 -11 -15 -21 -12 -24 9 -10 68 8 68 20 0 22 -38 24
-56 4z"/>
<path d="M2100 5172 c-42 -21 -76 -46 -78 -55 -5 -24 10 -21 65 12 26 16 58
32 71 36 23 7 23 6 8 -24 -9 -16 -36 -59 -61 -94 -64 -91 -59 -124 9 -72 18
14 36 25 40 25 4 0 22 -16 40 -35 48 -51 100 -45 131 15 17 34 20 102 4 131
-18 34 -29 11 -23 -46 6 -48 4 -56 -19 -79 -23 -23 -29 -25 -52 -14 -14 6 -25
14 -25 18 0 3 -9 16 -21 29 -15 15 -27 20 -42 15 -20 -6 -20 -5 4 27 38 50 71
119 65 135 -9 22 -36 17 -116 -24z"/>
<path d="M3622 5150 c-58 -35 -91 -117 -60 -148 18 -18 62 -14 91 8 l26 20 6
-20 c10 -31 42 -44 76 -30 37 16 37 27 2 26 -43 -2 -53 11 -47 57 4 32 0 50
-15 75 -24 37 -34 39 -79 12z m56 -46 c4 -27 -49 -84 -77 -84 -32 0 -27 43 10
80 35 34 62 36 67 4z"/>
<path d="M5185 5118 c-27 -12 -65 -73 -72 -113 -11 -67 65 -100 113 -48 33 36
39 65 20 101 -9 17 -16 37 -16 45 0 20 -20 26 -45 15z m22 -60 c22 -29 22 -48
-1 -75 -15 -17 -29 -24 -40 -20 -26 10 -29 32 -11 71 18 37 35 45 52 24z"/>
<path d="M2462 5103 c-17 -33 -43 -143 -37 -153 3 -6 15 -10 26 -10 15 0 18 5
13 24 -3 13 2 47 10 77 9 29 16 59 16 66 0 19 -18 16 -28 -4z"/>
<path d="M11294 4473 l-72 -178 -54 -11 c-63 -13 -81 -21 -72 -35 5 -9 50 -5
96 7 16 5 17 2 2 -38 -20 -55 -33 -128 -27 -144 9 -23 33 -2 33 29 0 17 10 61
22 99 l22 68 48 6 c33 5 48 11 48 21 0 12 -10 14 -40 11 -22 -2 -40 -2 -40 -1
0 2 95 232 137 331 3 7 -2 12 -14 12 -15 0 -33 -36 -89 -177z"/>
<path d="M8632 4563 c-16 -32 -44 -102 -62 -155 l-33 -98 -41 7 c-64 10 -81 9
-81 -6 0 -8 9 -15 20 -16 11 -1 36 -5 56 -9 l37 -6 -25 -77 c-27 -85 -33 -136
-18 -141 6 -2 14 11 19 30 4 18 19 68 33 111 l25 77 38 0 c45 0 90 15 90 30 0
6 -22 7 -60 3 -33 -3 -60 -4 -60 -2 0 12 73 206 90 239 11 22 20 46 20 55 0
31 -21 13 -48 -42z"/>
<path d="M8806 4592 c-8 -15 -33 -86 -56 -157 -23 -72 -60 -167 -81 -212 -22
-45 -39 -89 -39 -97 0 -31 28 -15 44 24 20 50 82 120 107 120 23 0 24 -16 5
-61 -7 -19 -16 -49 -20 -67 -5 -27 -3 -33 10 -30 18 3 47 90 48 147 1 42 -27
57 -69 35 -25 -13 -27 -12 -20 4 7 18 93 265 102 293 9 30 -16 30 -31 1z"/>
<path d="M9902 4607 c-9 -11 -62 -154 -143 -383 -28 -77 -30 -119 -6 -111 6 2
16 28 22 58 6 30 19 72 29 94 10 22 39 101 66 175 26 74 51 142 55 151 8 21
-9 33 -23 16z"/>
<path d="M13403 4593 c-7 -3 -13 -10 -13 -18 0 -7 -16 -48 -36 -91 -59 -128
-131 -327 -126 -346 5 -21 21 -24 26 -5 14 58 70 205 118 316 55 125 61 155
31 144z"/>
<path d="M10494 4553 c-3 -11 -18 -56 -33 -99 l-27 -79 -59 -1 c-44 -1 -60 -5
-60 -15 0 -10 15 -15 48 -17 26 -2 47 -5 47 -8 0 -2 -12 -32 -26 -65 -14 -34
-28 -83 -31 -109 -5 -40 -2 -51 16 -69 15 -15 32 -21 53 -19 43 4 50 28 9 28
-50 0 -59 33 -32 118 35 109 48 124 112 137 49 9 54 12 51 34 -1 14 -4 27 -6
29 -9 9 -46 -10 -46 -24 0 -8 -9 -14 -21 -14 -15 0 -19 5 -15 15 30 79 47 158
37 168 -9 9 -13 6 -17 -10z"/>
<path d="M7839 4463 c-29 -54 -53 -99 -55 -101 -6 -9 -53 -8 -48 0 4 6 -2 8
-12 6 -27 -5 -22 -20 11 -31 17 -5 31 -11 33 -12 1 -1 -5 -21 -13 -45 -44
-124 26 -241 113 -187 24 16 12 28 -22 22 -66 -13 -95 66 -60 167 17 50 21 53
118 64 35 4 60 12 63 21 8 22 3 22 -74 9 l-73 -12 45 83 c25 45 45 90 45 98 0
35 -22 9 -71 -82z"/>
<path d="M3754 4538 c-5 -7 -29 -52 -54 -100 l-45 -88 -56 -6 c-64 -7 -85 -17
-74 -33 6 -11 21 -10 92 6 l22 5 -18 -49 c-41 -108 -35 -194 16 -214 31 -12
94 -11 112 0 12 8 13 14 3 36 -12 26 -32 26 -32 -1 0 -22 -57 -17 -81 7 -18
18 -20 28 -14 72 9 65 42 145 65 157 10 5 43 13 74 16 40 5 56 11 56 22 0 12
-10 13 -61 8 l-60 -7 16 30 c8 17 29 54 45 81 17 28 30 55 30 60 0 14 -26 12
-36 -2z"/>
<path d="M3300 4497 c0 -77 -63 -243 -137 -360 -20 -31 -29 -38 -51 -35 -59 7
-66 100 -9 141 l27 21 29 -22 c38 -28 52 -10 20 24 -39 41 -98 24 -130 -38
-25 -49 -24 -78 4 -119 18 -26 31 -35 58 -37 46 -4 72 25 134 151 72 146 109
307 70 307 -10 0 -15 -10 -15 -33z"/>
<path d="M4465 4503 c-3 -15 -21 -60 -39 -99 l-33 -71 -54 -9 c-60 -10 -65
-30 -6 -27 20 1 37 0 37 -2 0 -2 -9 -25 -21 -52 -31 -73 -28 -121 9 -154 36
-32 110 -47 148 -30 40 18 27 28 -34 27 -113 -1 -138 48 -86 165 29 64 21 60
123 63 29 1 37 18 17 35 -12 10 -22 10 -50 0 -20 -7 -38 -10 -41 -8 -3 3 9 34
26 68 38 80 47 121 26 121 -8 0 -18 -12 -22 -27z"/>
<path d="M6289 4518 c-1 -7 0 -23 1 -35 1 -12 -24 -87 -54 -167 -54 -138 -70
-212 -45 -204 7 2 18 27 25 56 7 28 34 103 59 167 32 80 45 127 43 152 -3 34
-27 60 -29 31z"/>
<path d="M6386 4491 c-4 -5 -4 -16 -1 -24 3 -7 -19 -88 -49 -178 -58 -171 -72
-259 -41 -259 11 0 15 11 15 39 0 42 27 137 84 300 28 80 34 106 25 117 -13
16 -25 18 -33 5z"/>
<path d="M7406 4448 c-23 -32 -2 -49 24 -20 12 12 18 27 15 32 -10 16 -23 12
-39 -12z"/>
<path d="M2336 4442 c-17 -27 37 -100 112 -151 17 -12 32 -25 32 -29 0 -4 -52
-40 -115 -81 -81 -52 -115 -79 -115 -92 0 -26 30 -37 41 -16 5 9 44 37 87 63
102 63 152 102 152 120 0 8 -21 29 -47 47 -76 53 -96 73 -108 108 -12 34 -29
47 -39 31z"/>
<path d="M4919 4448 c-1 -1 -3 -20 -5 -41 -4 -55 -51 -191 -76 -222 -24 -31
-28 -96 -7 -121 8 -10 29 -23 47 -31 28 -11 36 -11 61 2 52 27 121 132 121
185 0 28 -35 60 -65 60 -15 0 -42 -15 -67 -37 -29 -27 -39 -32 -34 -18 47 119
63 213 39 222 -7 3 -13 3 -14 1z m101 -213 c29 -35 -62 -175 -113 -175 -15 0
-31 10 -41 25 -17 25 -16 27 24 75 72 86 105 105 130 75z"/>
<path d="M6073 4404 c-8 -21 13 -42 28 -27 13 13 5 43 -11 43 -6 0 -13 -7 -17
-16z"/>
<path d="M9998 4389 c-10 -6 -18 -14 -18 -19 0 -14 37 -12 46 1 10 17 -9 29
-28 18z"/>
<path d="M12833 4360 c-38 -22 -43 -52 -17 -101 20 -39 11 -64 -27 -80 -25
-10 -35 -10 -51 0 -27 17 -47 -1 -28 -24 30 -36 133 -1 146 51 4 16 0 39 -10
60 -9 19 -16 41 -16 48 0 18 31 29 44 16 18 -18 27 -11 24 17 -4 35 -24 39
-65 13z"/>
<path d="M6999 4341 c-91 -57 -140 -140 -182 -311 -33 -130 -37 -175 -18 -175
8 0 18 11 22 25 53 181 73 230 93 230 73 0 233 189 205 241 -15 28 -67 24
-120 -10z m91 -18 c0 -39 -136 -183 -172 -183 -14 0 -3 53 20 100 18 37 101
100 133 100 11 0 19 -7 19 -17z"/>
<path d="M5743 4309 c-29 -17 -53 -37 -53 -45 0 -21 14 -17 67 16 26 17 49 26
51 21 2 -5 -22 -49 -52 -97 -31 -48 -56 -92 -56 -96 0 -5 7 -11 15 -14 10 -4
36 13 71 47 l56 52 13 -29 c7 -16 22 -38 34 -48 20 -18 22 -18 40 -2 11 10 24
37 29 60 5 22 13 49 17 59 5 12 3 17 -9 17 -17 0 -36 -29 -36 -57 0 -11 -6
-28 -14 -38 -14 -19 -15 -19 -26 10 -29 73 -36 76 -81 38 l-34 -28 24 40 c42
71 53 95 47 110 -9 23 -46 17 -103 -16z"/>
<path d="M12084 4311 c-68 -49 -94 -87 -94 -138 0 -59 42 -106 92 -101 42 4
39 21 -4 30 -89 18 -75 125 27 188 18 11 37 19 42 18 4 -2 9 0 11 5 12 36 -23
36 -74 -2z"/>
<path d="M9015 4315 c-17 -6 -52 -36 -78 -65 -52 -58 -55 -79 -18 -130 28 -39
59 -45 111 -22 25 11 53 22 63 26 15 5 26 46 12 46 -3 0 -32 -14 -65 -32 l-60
-31 -25 23 c-32 30 -31 36 5 43 41 9 120 83 120 113 0 33 -28 45 -65 29z m35
-33 c0 -11 -36 -44 -73 -67 -46 -29 -45 -6 2 36 41 37 71 50 71 31z"/>
<path d="M13471 4316 c-39 -14 -101 -80 -101 -108 0 -25 23 -69 49 -92 16 -15
31 -18 68 -14 55 6 133 37 133 54 0 22 -13 22 -63 -2 -65 -30 -100 -30 -127
-2 -11 12 -20 24 -20 28 0 11 36 36 48 32 16 -5 78 34 97 60 10 15 11 26 4 40
-11 21 -39 22 -88 4z m59 -24 c0 -9 -57 -45 -87 -53 -37 -11 -16 18 30 40 45
23 57 25 57 13z"/>
<path d="M7224 4310 c-63 -25 -135 -190 -83 -190 5 0 12 8 16 18 3 9 13 25 22
35 12 15 13 20 2 26 -20 13 14 58 61 82 57 29 43 54 -18 29z"/>
<path d="M10140 4311 c0 -5 -9 -11 -20 -14 -28 -7 -35 -34 -21 -81 23 -76 23
-83 8 -89 -8 -3 -27 1 -42 9 -35 18 -45 18 -45 -1 0 -9 16 -23 36 -32 32 -16
38 -16 62 -2 35 19 38 41 16 105 -19 58 -12 80 28 86 32 5 35 28 4 28 -14 0
-26 -4 -26 -9z"/>
<path d="M13052 4312 c-35 -5 -102 -74 -102 -104 0 -78 133 -80 168 -2 7 14
12 33 12 43 0 26 -51 68 -78 63z m46 -64 c1 -8 -7 -26 -18 -41 -16 -20 -31
-27 -55 -27 -19 0 -37 5 -40 10 -20 32 50 95 89 80 12 -4 22 -14 24 -22z"/>
<path d="M12539 4263 c-23 -27 -39 -39 -34 -28 38 98 1 80 -42 -19 -18 -43
-33 -82 -33 -87 0 -26 34 -1 90 66 35 41 67 75 71 75 15 0 10 -39 -11 -80 -22
-43 -26 -75 -10 -85 6 -3 13 2 16 12 3 10 14 37 25 61 30 68 22 132 -17 132
-7 0 -31 -21 -55 -47z"/>
<path d="M7484 4248 c-33 -30 -54 -44 -49 -33 13 31 11 68 -2 72 -8 3 -13 -4
-13 -16 0 -12 -18 -51 -40 -87 -68 -113 -48 -114 74 -4 80 73 106 91 106 74 0
-3 -14 -37 -31 -76 -25 -58 -29 -75 -20 -94 13 -29 52 -32 72 -7 10 11 10 14
2 9 -7 -4 -13 -3 -13 3 0 6 -6 8 -14 5 -26 -10 -25 11 4 76 32 71 36 100 18
118 -20 20 -34 14 -94 -40z"/>
<path d="M12280 4289 c0 -7 -18 -31 -40 -55 -69 -75 -46 -142 45 -132 77 9
114 59 95 129 -6 21 -20 45 -33 54 -25 18 -67 20 -67 4z m58 -41 c17 -17 15
-83 -4 -98 -8 -8 -34 -14 -57 -14 -37 -1 -42 2 -45 22 -3 17 8 34 39 63 47 43
50 44 67 27z"/>
<path d="M3365 4278 c-58 -32 -97 -90 -97 -145 0 -79 54 -85 124 -13 41 43 48
56 48 91 0 30 -6 46 -22 60 -27 22 -27 22 -53 7z m33 -40 c22 -22 13 -55 -27
-97 -47 -50 -71 -54 -71 -11 0 38 23 84 52 104 27 19 31 19 46 4z"/>
<path d="M11382 4239 c-68 -69 -69 -141 -3 -147 27 -3 40 4 77 41 38 38 44 50
44 85 0 45 -1 47 -46 56 -26 6 -35 1 -72 -35z m88 -27 c0 -30 -63 -95 -87 -90
-27 6 -19 55 13 89 34 36 74 36 74 1z"/>
<path d="M4641 4253 c-18 -9 -44 -34 -58 -55 -25 -37 -25 -39 -8 -58 21 -24
50 -25 88 -6 24 13 27 13 27 0 0 -25 30 -74 45 -74 19 0 19 15 -1 45 -12 18
-14 37 -9 74 6 42 4 52 -14 70 -25 25 -27 25 -70 4z m60 -41 c-14 -27 -43 -50
-73 -57 -37 -9 -37 10 -1 47 32 33 91 41 74 10z"/>
<path d="M6036 4258 c-21 -72 -28 -130 -18 -140 14 -14 16 -9 36 79 8 34 11
64 8 67 -9 10 -22 7 -26 -6z"/>
<path d="M7300 4238 c0 -7 -11 -35 -25 -62 -23 -48 -24 -66 -4 -66 10 0 44 72
55 116 5 18 2 24 -10 24 -9 0 -16 -6 -16 -12z"/>
<path d="M9913 4222 c-20 -13 -46 -83 -35 -94 14 -14 32 -1 32 21 0 10 9 30
20 43 24 31 13 49 -17 30z"/>
<path d="M3131 3373 c-15 -16 -36 -50 -46 -78 -10 -27 -24 -55 -32 -61 -15
-13 -17 -34 -3 -34 6 0 15 -11 20 -25 5 -14 17 -28 26 -32 24 -9 105 15 128
37 27 27 12 38 -23 17 -16 -9 -44 -18 -62 -19 -29 -3 -34 1 -37 20 -2 12 1 22
7 22 6 0 28 16 49 35 42 38 78 105 69 129 -10 27 -65 20 -96 -11z m53 -35
c-20 -40 -42 -66 -67 -79 -17 -10 -17 -8 -2 28 18 44 52 83 72 83 11 0 10 -7
-3 -32z"/>
<path d="M3523 3360 c-51 -23 -75 -62 -52 -85 13 -13 19 -13 52 4 l37 19 0
-62 0 -63 -38 -11 c-57 -17 -112 -69 -122 -117 -15 -65 10 -125 52 -125 23 0
94 107 110 167 8 28 19 43 32 47 16 4 18 8 8 18 -7 7 -12 43 -12 98 0 85 -7
130 -19 130 -3 0 -25 -9 -48 -20z m17 -35 c0 -2 -10 -10 -22 -16 -21 -11 -22
-11 -9 4 13 16 31 23 31 12z m0 -208 c0 -16 -53 -123 -74 -151 -8 -10 -19 -15
-24 -12 -15 9 -20 56 -10 92 13 49 108 110 108 71z"/>
<path d="M3762 3258 c8 -23 35 -33 52 -19 9 7 13 17 10 22 -8 14 -66 11 -62
-3z"/>
<path d="M3320 3215 c0 -8 9 -15 20 -15 11 0 20 7 20 15 0 8 -9 15 -20 15 -11
0 -20 -7 -20 -15z"/>
<path d="M14004 2750 c-39 -15 -100 -98 -138 -187 -47 -107 -51 -113 -87 -113
-19 0 -29 -5 -29 -15 0 -10 10 -15 29 -15 l30 0 -19 -43 c-26 -57 -30 -112
-10 -112 9 0 16 11 18 30 2 17 13 54 24 82 19 47 25 53 57 59 70 12 95 20 99
33 3 10 -8 11 -49 6 -30 -4 -57 -9 -61 -12 -15 -9 -7 16 31 99 48 105 92 158
131 158 36 0 47 16 21 29 -22 12 -19 12 -47 1z"/>
<path d="M13134 2723 c-3 -10 -18 -52 -33 -93 l-28 -75 -62 -8 c-45 -7 -61
-13 -61 -24 0 -13 9 -14 50 -9 28 4 50 4 50 0 0 -3 -25 -57 -56 -120 -31 -62
-53 -118 -49 -123 13 -22 34 -10 40 22 4 17 29 76 56 129 l49 97 77 3 c60 2
78 7 81 18 2 12 -11 15 -64 17 -36 1 -68 3 -70 6 -3 2 9 39 25 82 17 43 28 82
25 86 -9 15 -24 10 -30 -8z"/>
<path d="M3330 2667 c0 -37 -49 -179 -99 -289 -35 -76 -37 -88 -16 -88 8 0 26
20 40 44 26 44 102 122 111 113 3 -3 0 -24 -6 -49 -15 -57 -10 -133 9 -133 9
0 14 16 15 55 2 30 6 79 11 107 9 63 -7 77 -52 46 -15 -11 -33 -23 -39 -26 -7
-4 3 33 21 81 40 106 48 165 22 170 -13 3 -17 -4 -17 -31z"/>
<path d="M10745 2625 c-49 -78 -51 -79 -122 -75 -19 1 -33 -3 -33 -9 0 -15 50
-33 73 -27 14 3 17 0 13 -11 -35 -91 -27 -152 25 -178 33 -18 82 -19 110 -4
31 16 13 27 -35 22 -38 -5 -48 -2 -71 21 -28 29 -28 53 1 124 15 38 39 49 137
62 77 11 86 15 71 30 -11 11 -119 0 -157 -15 -15 -6 -12 3 12 43 17 27 38 55
46 62 8 7 12 16 9 21 -13 22 -36 3 -79 -66z"/>
<path d="M7336 2648 c7 -51 -18 -132 -77 -250 -22 -43 -39 -80 -39 -83 0 -4
21 -15 46 -27 44 -19 48 -19 90 -3 76 29 128 107 108 164 -12 35 -62 40 -110
12 -18 -11 -34 -18 -34 -14 0 3 12 38 26 77 35 98 35 166 -1 166 -11 0 -13
-10 -9 -42z m100 -213 c10 -24 -16 -74 -52 -101 -24 -19 -42 -24 -70 -22 -21
2 -39 9 -42 16 -7 22 103 122 133 122 14 0 28 -7 31 -15z"/>
<path d="M9740 2673 c0 -10 -17 -56 -36 -103 -66 -155 -85 -213 -82 -249 5
-55 24 -48 31 11 3 32 28 107 62 186 31 73 55 140 53 149 -4 23 -28 28 -28 6z"/>
<path d="M6685 2670 c-3 -5 -4 -13 -1 -18 2 -4 -12 -39 -32 -77 -40 -75 -51
-82 -129 -84 -33 -1 -43 -5 -43 -17 0 -14 9 -16 55 -12 30 3 55 4 55 2 0 -1
-9 -21 -20 -45 -40 -89 -14 -169 55 -169 43 0 65 9 65 26 0 11 -9 13 -42 8
-33 -6 -44 -4 -55 11 -19 27 -16 63 11 121 l24 51 72 17 c40 9 83 16 96 16 15
0 24 6 24 15 0 18 -43 20 -109 4 -24 -5 -46 -8 -48 -6 -2 3 10 34 28 70 18 36
29 72 26 81 -7 18 -23 21 -32 6z"/>
<path d="M3835 2658 c-2 -7 -13 -58 -24 -113 -11 -55 -32 -151 -46 -214 -14
-63 -25 -123 -23 -133 6 -39 23 -20 35 37 19 100 72 344 83 383 5 20 10 40 10
45 0 12 -30 8 -35 -5z"/>
<path d="M8271 2547 c-62 -148 -81 -208 -74 -236 10 -38 33 -25 33 19 0 48 17
88 39 90 73 8 120 3 145 -14 27 -17 28 -21 22 -75 -3 -31 -9 -66 -12 -78 -5
-17 -2 -23 9 -23 20 0 27 22 34 100 5 60 3 67 -20 89 -15 13 -49 29 -78 35
l-51 12 88 56 c49 31 106 64 126 75 42 20 48 33 18 33 -27 0 -57 -16 -172 -90
-51 -32 -94 -58 -95 -56 -2 1 13 39 32 83 38 89 41 103 22 103 -7 0 -37 -55
-66 -123z"/>
<path d="M9612 2624 c-7 -26 -37 -104 -67 -174 -55 -126 -68 -190 -41 -190 8
0 15 15 19 38 2 20 30 96 61 169 62 144 78 203 54 203 -8 0 -19 -19 -26 -46z"/>
<path d="M6229 2633 c0 -5 -1 -51 -2 -103 -2 -81 -6 -104 -30 -157 -16 -33
-41 -73 -57 -88 -26 -24 -28 -25 -44 -10 -29 30 6 102 55 112 33 6 34 26 3 31
-26 4 -70 -31 -90 -70 -32 -61 5 -128 62 -114 42 11 115 140 132 236 9 51 8
143 -2 159 -8 13 -26 15 -27 4z"/>
<path d="M2227 2603 c-12 -11 -8 -16 67 -98 l75 -80 -72 -45 c-40 -26 -91 -57
-115 -70 -31 -18 -42 -30 -40 -44 4 -23 28 -34 28 -12 0 8 10 21 23 27 57 30
217 133 217 140 0 5 -30 39 -66 76 -37 38 -70 78 -75 91 -8 21 -29 29 -42 15z"/>
<path d="M9450 2570 c0 -11 7 -20 15 -20 8 0 15 9 15 20 0 11 -7 20 -15 20 -8
0 -15 -9 -15 -20z"/>
<path d="M4034 2521 c-38 -28 -96 -100 -106 -131 -2 -8 -13 -15 -24 -15 -16 0
-19 -7 -17 -45 1 -25 -7 -90 -17 -144 -21 -101 -19 -136 5 -136 13 0 24 27 44
105 31 128 30 125 60 125 64 0 133 82 162 192 10 38 10 49 0 62 -20 24 -63 19
-107 -13z m86 -9 c0 -5 -9 -34 -19 -65 -22 -64 -56 -115 -83 -122 -10 -3 -27
-8 -39 -11 -19 -5 -20 -3 -14 43 8 56 33 97 83 136 34 26 72 36 72 19z"/>
<path d="M7635 2518 c-17 -4 -42 -22 -56 -40 -40 -52 -75 -178 -49 -178 14 0
43 47 35 59 -8 14 9 44 52 92 26 28 43 39 64 39 18 0 29 5 29 14 0 17 -36 25
-75 14z"/>
<path d="M10239 2501 c-10 -23 -17 -28 -33 -22 -56 21 -136 -41 -136 -104 0
-63 55 -84 112 -43 l31 21 -8 -58 c-9 -77 -10 -79 -50 -94 -43 -15 -77 -59
-99 -128 -23 -69 -18 -107 12 -111 42 -6 106 74 133 167 7 23 19 45 26 48 7 3
34 -7 59 -22 36 -21 48 -24 57 -15 9 10 9 11 0 6 -8 -4 -13 -1 -13 8 0 16 -67
56 -93 56 -11 0 -13 9 -6 43 4 23 8 61 9 83 0 23 9 62 21 88 21 48 22 97 3
103 -7 2 -18 -9 -25 -26z m-19 -67 c0 -18 -12 -38 -36 -61 -43 -41 -77 -42
-82 -2 -4 36 27 70 74 79 21 4 40 8 42 9 1 0 2 -11 2 -25z m-40 -276 c-1 -37
-79 -168 -101 -168 -23 0 11 116 45 153 26 28 56 36 56 15z"/>
<path d="M9044 2479 c-60 -23 -93 -54 -76 -71 8 -8 19 -4 42 15 29 25 99 52
108 42 3 -3 -15 -26 -40 -53 -64 -68 -84 -100 -70 -114 8 -8 26 -2 66 25 52
34 55 35 61 16 17 -52 100 -62 142 -16 18 18 20 31 16 75 -7 68 -27 64 -31 -7
-3 -45 -6 -53 -29 -62 -35 -13 -55 -5 -76 32 -13 24 -22 30 -38 26 -19 -5 -20
-4 -5 16 9 12 23 32 32 44 37 52 -11 67 -102 32z"/>
<path d="M10386 2470 c-71 -63 -78 -153 -15 -185 44 -23 129 -17 129 10 0 9
-13 11 -45 7 -58 -6 -95 16 -95 58 0 22 4 28 15 24 19 -8 82 32 90 56 9 29 -4
60 -25 60 -11 0 -35 -14 -54 -30z m50 -19 c-4 -5 -21 -20 -39 -32 l-32 -23 20
24 c24 29 49 50 53 45 2 -2 1 -8 -2 -14z"/>
<path d="M11469 2401 c-35 -55 -67 -100 -71 -100 -3 -1 -12 23 -19 52 -18 77
-37 117 -55 117 -12 0 -14 -5 -9 -17 5 -10 19 -58 32 -106 l24 -88 -80 -108
c-74 -98 -98 -151 -71 -151 6 0 14 10 19 23 5 12 51 78 103 147 51 69 109 150
127 180 19 30 48 71 63 91 30 40 35 59 15 59 -7 0 -42 -45 -78 -99z"/>
<path d="M14399 2463 c-52 -47 -93 -116 -84 -143 9 -28 61 -26 107 5 34 23 36
23 41 5 8 -30 51 -45 94 -34 52 13 57 37 7 34 -85 -6 -88 -1 -49 76 17 33 21
52 14 59 -7 7 -15 4 -25 -9 -14 -20 -14 -20 -14 0 0 23 -18 44 -37 44 -7 0
-31 -16 -54 -37z m73 -51 c-7 -20 -93 -82 -114 -82 -17 0 -18 2 -3 31 9 16 34
48 57 70 l41 39 12 -22 c6 -13 10 -29 7 -36z"/>
<path d="M7779 2472 c-83 -55 -121 -164 -67 -193 25 -14 68 -3 68 17 0 10 -8
14 -27 12 -23 -2 -29 1 -31 20 -5 33 6 61 17 43 7 -10 16 -10 49 0 50 15 75
39 75 75 0 44 -39 57 -84 26z m49 -34 c-2 -17 -14 -25 -48 -35 l-45 -13 37 35
c43 40 61 44 56 13z"/>
<path d="M3549 2453 c-50 -55 -61 -81 -53 -129 8 -58 37 -79 95 -70 53 8 99
32 99 51 0 8 -5 15 -11 15 -5 0 -8 -4 -5 -8 2 -4 -3 -8 -12 -9 -9 -1 -37 -6
-61 -12 -32 -9 -47 -9 -57 0 -25 20 -16 44 21 58 43 15 67 56 56 97 -10 39
-40 42 -72 7z m21 -65 c-12 -10 -26 -18 -31 -18 -11 0 6 36 30 64 15 18 16 18
19 -5 3 -15 -4 -30 -18 -41z"/>
<path d="M7959 2439 c-41 -44 -55 -78 -45 -104 11 -30 44 -27 118 13 4 2 8
-16 10 -40 2 -29 8 -44 19 -46 12 -2 14 5 11 33 -3 22 4 56 18 90 31 76 17 86
-39 27 -50 -52 -111 -83 -111 -57 0 23 70 96 89 93 9 -2 16 4 16 12 0 8 -10
16 -23 18 -17 3 -34 -8 -63 -39z"/>
<path d="M12510 2470 c0 -7 7 -10 18 -6 9 4 0 -7 -20 -24 -79 -66 -101 -145
-45 -165 61 -21 154 66 143 134 -3 19 -11 40 -18 47 -19 18 -78 28 -78 14z
m65 -60 c9 -27 -20 -77 -56 -96 -68 -35 -79 13 -18 75 46 45 65 51 74 21z"/>
<path d="M12703 2453 c-11 -16 -26 -45 -34 -66 -18 -51 2 -91 47 -95 62 -6
189 115 170 163 -9 25 -24 17 -35 -18 -17 -50 -94 -117 -134 -117 -8 0 -18 7
-21 16 -7 19 24 93 47 113 22 18 22 31 -1 31 -10 0 -27 -12 -39 -27z"/>
<path d="M11647 2449 c-53 -40 -75 -120 -41 -153 21 -22 38 -20 71 8 25 22 28
30 26 79 -1 41 2 57 13 61 9 3 12 10 9 16 -10 16 -48 11 -78 -11z m23 -74 c0
-33 -5 -47 -19 -54 -34 -19 -42 18 -16 69 22 43 35 37 35 -15z"/>
<path d="M11817 2406 c-29 -46 -109 -126 -127 -126 -5 0 -10 -7 -10 -15 0 -22
19 -18 64 13 27 19 41 23 43 15 9 -26 54 -13 98 28 l45 42 0 -45 c0 -53 19
-84 45 -74 16 6 17 8 1 24 -19 22 -20 56 -4 117 7 24 9 47 5 51 -3 4 -38 -23
-77 -60 -39 -36 -75 -66 -81 -66 -14 0 -2 34 27 77 13 20 24 42 24 49 0 28
-26 13 -53 -30z"/>
<path d="M13590 2424 c-61 -52 -80 -129 -38 -158 29 -21 43 -20 93 4 81 39 97
121 32 160 -42 26 -49 25 -87 -6z m87 -36 c13 -14 13 -20 2 -44 -18 -35 -71
-68 -99 -59 -48 15 3 127 56 121 14 -2 32 -10 41 -18z"/>
<path d="M6345 2408 c-42 -39 -58 -85 -41 -119 23 -47 106 -26 106 27 0 27
-16 64 -34 77 -6 5 1 7 17 4 32 -5 44 8 27 28 -19 23 -37 18 -75 -17z m35 -89
c0 -18 -26 -33 -41 -23 -12 7 -11 41 2 66 11 21 12 21 25 -3 7 -13 13 -31 14
-40z"/>
<path d="M9367 2359 c-16 -40 -15 -59 3 -59 8 0 40 72 40 90 0 26 -29 5 -43
-31z"/>
<path d="M2927 2322 c-22 -24 -21 -42 2 -42 24 0 45 25 37 45 -7 20 -19 19
-39 -3z"/>
<path d="M5178 2294 c-4 -3 -2 -15 5 -25 15 -23 -9 -71 -59 -120 -32 -31 -35
-32 -52 -16 -24 22 -34 12 -20 -19 23 -50 82 -22 138 65 22 36 30 59 28 83 -3
31 -25 48 -40 32z"/>
<path d="M6892 2268 c-13 -16 -122 -360 -122 -386 0 -23 25 -48 34 -33 3 5 3
16 0 25 -5 13 77 292 107 365 12 28 -2 49 -19 29z"/>
<path d="M7065 2268 c-2 -7 -13 -47 -24 -89 -35 -132 -40 -139 -102 -139 -20
0 -29 -5 -29 -16 0 -13 8 -15 39 -12 l38 3 -25 -73 c-17 -52 -21 -77 -14 -84
12 -12 14 -8 54 102 l24 65 56 11 c61 12 78 20 78 35 0 9 -32 7 -99 -7 -19 -4
-22 -2 -17 13 14 36 46 163 46 183 0 22 -18 27 -25 8z"/>
<path d="M7510 2237 c0 -15 -61 -165 -108 -267 -40 -87 -48 -132 -28 -149 19
-16 18 -16 21 29 1 19 29 96 62 170 33 74 65 150 73 168 7 17 16 32 21 32 5 0
9 7 9 15 0 9 -9 15 -25 15 -14 0 -25 -6 -25 -13z"/>
<path d="M9760 2135 c0 -8 7 -15 15 -15 8 0 15 7 15 15 0 8 -7 15 -15 15 -8 0
-15 -7 -15 -15z"/>
<path d="M7656 2131 c-7 -11 18 -33 27 -24 4 3 7 12 7 20 0 15 -26 18 -34 4z"/>
<path d="M7267 2124 c-8 -9 11 -44 24 -44 6 0 9 10 7 22 -3 22 -19 34 -31 22z"/>
<path d="M8930 2064 c-98 -32 -107 -50 -65 -129 23 -43 23 -49 10 -75 -8 -16
-20 -30 -27 -33 -22 -7 -67 22 -74 48 -7 30 -34 34 -34 5 0 -27 49 -78 82 -86
22 -5 34 0 57 24 44 44 48 73 17 126 -14 25 -26 49 -26 54 0 17 59 35 95 29
40 -6 50 14 16 33 -21 11 -27 11 -51 4z"/>
<path d="M7803 2028 c-16 -18 -38 -44 -48 -58 -11 -16 -15 -18 -11 -7 18 52
18 67 2 67 -10 0 -22 -21 -36 -67 -42 -142 -27 -155 49 -43 30 44 63 87 73 97
17 15 18 15 18 -13 0 -16 -10 -62 -22 -102 -16 -55 -18 -76 -10 -84 7 -7 14
-10 16 -7 2 2 16 50 31 106 20 79 24 107 15 123 -15 29 -42 25 -77 -12z"/>
<path d="M7980 2013 c-37 -41 -43 -54 -47 -103 -5 -54 -4 -57 27 -83 22 -19
43 -27 68 -27 56 0 112 19 112 37 0 9 -6 13 -15 9 -8 -3 -37 -8 -65 -12 -69
-9 -102 12 -98 63 3 33 6 36 38 38 70 4 116 57 90 104 -19 37 -61 27 -110 -26z
m86 6 c8 -13 -23 -44 -53 -54 -29 -8 -29 5 -2 39 22 27 43 33 55 15z"/>
<path d="M9360 2046 c-56 -14 -64 -41 -25 -88 31 -37 30 -72 -2 -76 -13 -2
-23 1 -23 7 0 6 -7 11 -15 11 -25 0 -17 -40 10 -50 73 -28 112 50 60 120 -28
38 -21 50 32 50 37 0 51 15 26 28 -11 6 -35 5 -63 -2z"/>
<path d="M9515 2050 c-38 -15 -49 -37 -35 -69 6 -16 20 -37 31 -47 24 -22 24
-50 0 -64 -31 -16 -51 -12 -51 10 0 11 -7 20 -15 20 -18 0 -20 -41 -3 -58 22
-22 68 -14 99 17 16 16 29 34 29 38 0 5 -16 32 -35 58 -39 56 -35 68 25 70 45
1 61 12 40 25 -18 12 -58 12 -85 0z"/>
<path d="M6205 2026 c-10 -7 -26 -11 -35 -9 -26 7 -78 -63 -102 -140 -16 -49
-19 -70 -11 -78 8 -8 16 -3 27 19 43 83 140 202 153 188 2 -2 -10 -35 -27 -74
-16 -39 -30 -78 -30 -86 0 -33 38 -13 105 54 38 38 70 68 72 66 2 -1 -2 -29
-8 -60 -11 -64 -1 -109 28 -121 24 -9 27 1 11 35 -13 27 -13 40 0 116 23 125
11 128 -88 24 l-80 -85 30 74 c16 40 27 77 24 82 -8 14 -48 11 -69 -5z"/>
<path d="M6522 2028 c-19 -24 -39 -73 -46 -109 -17 -97 80 -147 158 -80 36 32
76 134 56 146 -6 4 -8 11 -5 16 4 5 1 9 -4 9 -12 0 -12 -1 -16 -38 -10 -97
-110 -170 -149 -109 -19 27 -8 86 24 129 27 36 10 70 -18 36z"/>
<path d="M9088 1988 c-37 -44 -44 -60 -44 -92 1 -30 7 -43 28 -59 25 -18 31
-19 68 -8 24 7 39 17 37 24 -5 13 -8 13 -48 3 -31 -7 -63 13 -54 35 3 9 24 23
45 32 45 17 66 52 56 91 -10 41 -40 32 -88 -26z m58 -6 c-6 -19 -34 -37 -43
-29 -2 2 6 16 18 31 23 30 34 29 25 -2z"/>
<path d="M10285 2019 c-22 -12 -54 -32 -72 -45 -40 -31 -45 -30 -32 3 13 34
-11 55 -25 20 -5 -12 -22 -51 -37 -86 -16 -35 -29 -67 -29 -72 0 -22 29 -6 56
31 25 35 142 126 150 117 2 -1 -6 -28 -18 -59 -35 -96 -6 -137 87 -124 35 6
48 13 54 29 10 26 6 34 -11 19 -7 -5 -30 -13 -51 -17 -72 -14 -82 26 -30 129
23 44 25 76 6 76 -5 0 -26 -9 -48 -21z"/>
<path d="M7205 1998 c-2 -7 -13 -38 -25 -68 -25 -70 -26 -103 -2 -98 9 2 16
10 14 17 -1 7 6 37 18 67 11 30 20 64 20 74 0 22 -18 27 -25 8z"/>
<path d="M9857 1978 c-56 -75 -65 -129 -27 -160 44 -36 111 -16 141 44 30 60
21 110 -24 127 -62 23 -65 23 -90 -11z m96 -32 c24 -35 -33 -120 -76 -114 -46
7 -47 69 -1 114 25 26 59 26 77 0z"/>
<path d="M7605 1973 c-4 -15 -13 -43 -21 -61 -17 -39 -18 -58 -4 -67 13 -8 47
68 52 114 4 42 -19 54 -27 14z"/>
<path d="M9690 1974 c-32 -84 -42 -126 -32 -136 15 -15 32 -1 32 27 0 13 9 44
20 70 11 26 18 51 14 56 -10 16 -24 9 -34 -17z"/>
<path d="M12746 1473 c-3 -3 -6 -15 -6 -25 0 -10 -21 -56 -47 -101 -25 -45
-56 -104 -68 -132 -21 -46 -25 -50 -71 -60 -32 -7 -49 -15 -49 -25 0 -16 2
-16 51 -7 l32 6 -19 -60 c-43 -137 -11 -172 109 -123 17 7 32 18 32 23 0 13
-33 14 -45 2 -6 -5 -26 -11 -45 -13 -46 -4 -49 15 -20 108 25 78 33 84 114 84
17 0 38 4 46 10 23 14 -12 23 -70 18 -28 -3 -50 -3 -50 0 0 3 29 60 65 127 36
68 65 132 65 143 0 22 -13 36 -24 25z"/>
<path d="M13980 1436 c0 -8 -16 -47 -35 -87 -19 -41 -35 -79 -35 -87 0 -7 -21
-76 -46 -153 -47 -146 -51 -181 -20 -187 16 -3 18 0 12 23 -5 18 4 58 28 128
19 56 42 128 50 159 9 31 32 89 51 129 19 40 32 76 29 81 -9 13 -34 9 -34 -6z"/>
<path d="M14766 1367 c-7 -17 -21 -86 -30 -152 -23 -159 -67 -255 -117 -255
-55 0 -88 42 -75 94 9 37 69 95 105 102 17 4 31 12 31 19 0 51 -119 -16 -156
-87 -16 -32 -18 -81 -4 -109 14 -25 62 -49 98 -49 65 0 130 117 146 265 10 86
27 168 37 181 6 8 4 14 -6 18 -12 4 -20 -4 -29 -27z"/>
<path d="M6009 1373 c0 -5 0 -57 0 -118 1 -97 -1 -116 -23 -161 -29 -63 -92
-134 -117 -134 -24 0 -26 55 -3 89 13 18 24 22 57 19 51 -4 60 16 13 32 -41
13 -63 5 -95 -36 -43 -54 -19 -154 33 -138 36 11 105 86 136 148 28 56 30 66
30 183 0 103 -2 123 -15 123 -8 0 -15 -3 -16 -7z"/>
<path d="M7082 1355 c-7 -14 -12 -31 -12 -37 0 -6 -25 -70 -56 -142 -84 -194
-101 -292 -47 -273 4 1 8 27 9 57 1 43 13 81 54 175 48 109 89 218 90 238 0
18 -28 5 -38 -18z"/>
<path d="M7775 1368 c-2 -7 -6 -51 -8 -98 -7 -106 -26 -193 -41 -181 -6 5 -35
11 -64 13 -51 5 -54 4 -83 -31 -56 -68 -63 -145 -15 -170 83 -45 164 31 207
194 24 95 38 285 20 285 -6 0 -13 -6 -16 -12z m-50 -320 c-12 -40 -55 -107
-75 -118 -50 -27 -97 -1 -85 47 16 67 49 91 123 92 40 1 43 -1 37 -21z"/>
<path d="M10081 1301 c-11 -27 -21 -53 -21 -58 0 -4 -20 -55 -45 -113 -51
-122 -66 -190 -42 -190 10 0 19 16 26 50 6 27 28 91 49 142 71 171 81 201 76
209 -11 18 -22 8 -43 -40z"/>
<path d="M6420 1256 l-39 -85 -43 -3 c-52 -4 -53 -22 -2 -26 29 -3 34 -6 28
-20 -4 -9 -9 -43 -12 -74 -4 -51 -2 -59 21 -82 14 -14 38 -28 53 -32 32 -8 75
5 82 25 4 11 -2 13 -27 8 -33 -7 -81 7 -93 26 -11 18 -10 79 3 115 10 30 13
31 72 34 81 4 92 28 12 28 -54 0 -56 1 -50 23 4 12 20 46 36 76 33 63 35 71
13 71 -10 0 -30 -31 -54 -84z"/>
<path d="M9947 1303 c-4 -3 -7 -15 -7 -26 0 -11 -11 -43 -24 -71 -72 -152
-100 -231 -90 -248 8 -13 34 11 34 31 0 9 25 72 55 141 30 69 55 137 55 153 0
26 -9 34 -23 20z"/>
<path d="M11207 1184 c-3 -4 0 -16 8 -28 8 -11 17 -46 21 -76 4 -30 11 -65 15
-77 6 -17 -1 -34 -34 -80 -80 -110 -99 -142 -95 -159 4 -25 28 -30 28 -6 0 10
29 59 64 108 35 49 71 105 81 124 10 19 26 46 35 60 9 14 31 47 48 73 35 53
39 67 18 67 -8 0 -36 -36 -63 -80 -26 -44 -51 -80 -54 -80 -4 0 -9 26 -13 58
-8 72 -36 118 -59 96z"/>
<path d="M14083 1161 c-35 -30 -73 -92 -73 -121 0 -38 44 -80 84 -80 75 0 122
115 77 188 -24 37 -54 41 -88 13z m73 -56 c20 -79 -53 -148 -101 -95 -23 25
-14 59 26 105 25 29 34 33 50 25 10 -6 22 -22 25 -35z"/>
<path d="M11509 1147 c-72 -60 -98 -143 -59 -185 37 -39 119 -23 146 29 18 36
18 50 -2 121 -19 66 -39 74 -85 35z m61 -66 c13 -54 5 -82 -30 -101 -46 -25
-88 5 -76 54 7 27 75 108 86 101 4 -3 13 -27 20 -54z"/>
<path d="M14345 1161 c-35 -14 -105 -92 -105 -116 0 -37 25 -50 71 -38 37 10
39 9 39 -13 0 -22 23 -54 40 -54 18 0 22 24 7 35 -23 16 -21 32 8 87 29 55 32
84 8 91 -10 2 -25 7 -33 10 -8 3 -24 2 -35 -2z m40 -61 c-17 -33 -47 -55 -87
-65 -21 -6 -28 -3 -28 8 0 23 77 87 105 87 25 0 25 -1 10 -30z"/>
<path d="M8515 1140 c-16 -4 -40 -12 -52 -18 -56 -30 -88 -113 -60 -156 18
-27 88 -49 137 -44 48 6 51 28 4 28 -55 0 -113 20 -120 42 -16 52 51 118 120
118 20 0 36 4 36 10 0 16 -34 27 -65 20z"/>
<path d="M11735 1095 c-35 -72 -69 -111 -116 -136 -38 -19 -51 -39 -26 -39 7
0 29 8 50 19 36 18 37 18 42 0 10 -29 48 -23 99 16 l45 34 -5 -28 c-7 -33 10
-71 31 -71 18 0 19 14 4 38 -9 15 -5 33 20 89 29 66 32 103 10 103 -5 0 -23
-23 -40 -50 -29 -47 -109 -120 -132 -120 -12 0 0 50 18 70 19 22 55 97 55 115
0 33 -29 12 -55 -40z"/>
<path d="M7184 1112 c-77 -36 -103 -182 -33 -182 26 0 80 49 96 87 10 26 11
43 3 73 -12 43 -18 45 -66 22z m20 -38 c26 -10 19 -53 -14 -85 -16 -17 -34
-28 -40 -24 -16 10 -12 47 10 83 21 35 21 35 44 26z"/>
<path d="M8959 1120 c-9 -5 -28 -40 -44 -77 -16 -37 -32 -73 -36 -78 -4 -6 -4
-17 1 -25 6 -10 21 0 62 45 29 32 55 63 58 69 3 6 12 13 20 15 8 2 23 6 33 8
22 7 22 -10 1 -75 -16 -48 -13 -96 5 -76 11 13 41 113 41 138 0 56 -54 61
-110 10 -44 -40 -50 -36 -20 13 20 34 16 48 -11 33z"/>
<path d="M12837 1124 c-4 -4 -2 -13 4 -20 7 -9 3 -19 -16 -38 -49 -49 -25 -96
50 -96 57 0 105 24 105 54 0 32 -43 82 -77 90 -16 4 -35 9 -44 12 -8 2 -18 1
-22 -2z m99 -70 c22 -32 10 -45 -49 -51 -69 -8 -74 26 -8 61 36 19 39 19 57
-10z"/>
<path d="M9596 1087 c-38 -37 -59 -78 -50 -102 9 -23 48 -29 80 -12 l29 15 0
-42 c0 -56 26 -57 29 -1 1 22 10 55 19 74 l17 35 -35 33 c-19 18 -39 33 -44
33 -5 0 -25 -15 -45 -33z m64 -22 c10 -12 10 -18 -1 -31 -12 -14 -61 -44 -74
-44 -15 0 -2 37 22 62 31 32 36 34 53 13z"/>
<path d="M8735 1096 c-44 -19 -87 -73 -83 -105 3 -23 7 -26 43 -25 22 0 48 4
58 8 12 6 17 4 17 -7 0 -19 26 -40 40 -32 8 5 8 11 -1 21 -8 10 -8 22 0 45 21
60 11 63 -51 19 -69 -50 -105 -35 -49 21 20 20 39 29 61 29 25 0 31 4 28 17
-4 23 -25 26 -63 9z"/>
<path d="M10143 1093 c-3 -10 -14 -27 -24 -38 -29 -32 -48 -87 -39 -112 17
-42 87 -41 134 2 36 33 36 92 0 134 -29 34 -61 40 -71 14z m55 -45 c18 -18 15
-63 -5 -81 -28 -25 -72 -32 -79 -13 -8 22 14 73 40 91 25 18 29 18 44 3z"/>
<path d="M10410 1087 c-33 -13 -56 -29 -58 -40 -3 -17 -1 -17 38 -1 22 9 43
14 45 12 3 -2 -8 -22 -24 -44 -37 -51 -45 -78 -27 -93 10 -9 24 -4 64 23 l50
34 6 -25 c8 -29 46 -48 81 -39 32 8 62 69 67 135 4 57 -18 68 -27 14 -16 -96
-42 -136 -73 -116 -10 6 -17 24 -18 43 0 19 -6 36 -13 38 -16 5 -51 -26 -51
-46 0 -9 -3 -12 -6 -9 -4 3 -15 2 -25 -4 -26 -13 -24 -8 17 57 32 50 39 85 17
84 -4 0 -33 -11 -63 -23z"/>
<path d="M7347 1080 c-42 -33 -69 -85 -65 -127 2 -31 7 -39 26 -41 13 -2 34 4
47 12 31 21 35 20 35 -4 0 -19 25 -38 35 -28 3 2 1 19 -5 36 -7 25 -4 46 11
89 10 31 18 57 17 58 -13 10 -50 25 -61 25 -8 0 -26 -9 -40 -20z m56 -16 c14
-14 -62 -124 -85 -124 -21 0 -5 54 28 90 36 40 45 45 57 34z"/>
<path d="M6026 1045 c-73 -68 -48 -157 39 -141 67 13 122 115 83 154 -22 22
-92 15 -122 -13z m74 -15 c0 -5 7 -7 15 -4 22 9 19 -28 -5 -58 -32 -41 -100
-43 -100 -3 0 22 50 75 71 75 10 0 19 -4 19 -10z"/>
<path d="M7032 725 c-17 -69 -40 -145 -51 -169 -25 -50 -25 -56 -7 -56 8 0 36
27 61 60 25 33 50 60 55 60 15 0 24 -69 11 -84 -10 -11 -9 -22 4 -46 23 -44
35 -29 35 43 0 99 -36 142 -82 100 -20 -18 -21 -17 -15 2 10 33 39 168 41 189
0 10 -4 21 -10 23 -7 2 -23 -44 -42 -122z"/>
<path d="M9070 805 c0 -8 6 -15 14 -15 7 0 19 7 26 15 11 13 8 15 -14 15 -16
0 -26 -5 -26 -15z"/>
<path d="M6834 774 c-8 -20 -20 -61 -26 -91 -6 -30 -17 -57 -24 -60 -7 -2 -29
0 -50 6 -20 6 -41 8 -46 5 -9 -6 9 -34 20 -32 4 0 22 -3 40 -7 35 -8 37 -16
22 -80 -12 -50 -3 -105 17 -105 12 0 14 7 10 28 -3 15 0 54 7 87 12 60 12 60
49 63 20 2 37 7 37 13 0 5 3 8 8 6 4 -1 7 3 7 8 0 6 -17 8 -39 7 l-38 -4 7 44
c7 39 21 85 40 131 5 12 3 17 -9 17 -10 0 -23 -15 -32 -36z"/>
<path d="M9558 732 c-19 -34 -27 -40 -45 -35 -25 6 -32 -14 -12 -34 7 -7 2
-26 -17 -65 -42 -87 -20 -128 71 -128 41 0 85 16 85 30 0 7 -21 8 -63 4 -52
-5 -65 -3 -77 11 -12 14 -10 24 17 79 l31 63 54 6 c29 4 73 7 99 7 25 0 50 5
57 12 9 9 12 9 12 -1 0 -16 42 -10 48 8 4 11 -19 12 -121 10 l-125 -4 16 27
c12 21 13 31 5 39 -8 8 -17 0 -35 -29z"/>
<path d="M9272 742 c-36 -19 -102 -80 -102 -93 0 -5 -7 -9 -15 -9 -8 0 -15 -7
-15 -16 0 -9 -15 -51 -34 -93 -48 -108 -51 -121 -29 -121 14 0 26 18 47 74 29
74 29 74 61 69 50 -8 99 13 144 62 45 49 55 100 25 129 -20 21 -42 20 -82 -2z
m66 -44 c6 -54 -102 -134 -153 -114 -15 5 -15 8 2 36 23 39 60 74 98 94 38 20
49 16 53 -16z"/>
<path d="M8333 735 c-50 -22 -48 -52 8 -112 21 -24 39 -46 39 -51 0 -35 -74
-43 -110 -12 -29 25 -31 25 -27 -1 8 -51 101 -68 151 -28 34 27 28 49 -26 106
-52 54 -44 83 21 73 8 -1 22 -11 32 -23 16 -21 18 -21 25 -4 8 23 -20 53 -56
61 -14 3 -40 -1 -57 -9z"/>
<path d="M6001 717 c-34 -17 -79 -76 -87 -113 -11 -56 40 -79 109 -49 12 5 17
3 17 -8 0 -23 39 -67 55 -61 12 5 11 11 -5 32 -15 19 -19 34 -15 56 13 62 16
67 36 61 24 -8 24 5 -1 48 -27 46 -64 57 -109 34z m75 -39 c4 -6 2 -14 -4 -16
-7 -2 -12 -10 -12 -17 0 -7 -16 -27 -35 -44 -78 -68 -113 -15 -42 62 28 29 79
37 93 15z"/>
<path d="M6250 695 c-6 -7 -13 -20 -14 -27 -5 -28 -30 -94 -44 -116 -8 -12
-12 -25 -9 -29 12 -12 37 7 71 54 83 115 111 81 51 -59 -5 -13 -3 -18 9 -18
22 0 47 53 51 108 6 72 -26 93 -79 51 -28 -22 -34 -14 -11 17 8 10 15 22 15
27 0 12 -27 8 -40 -8z"/>
<path d="M9830 694 c0 -8 5 -12 10 -9 6 3 10 10 10 16 0 5 -4 9 -10 9 -5 0
-10 -7 -10 -16z"/>
<path d="M7573 678 c-11 -13 -26 -33 -32 -45 -6 -13 -18 -23 -25 -23 -13 0
-29 -86 -19 -103 9 -15 31 14 49 62 9 27 25 59 35 72 l19 24 23 -29 c16 -19
26 -25 31 -18 9 15 -19 68 -39 76 -22 8 -19 9 -42 -16z"/>
<path d="M7245 644 c-39 -39 -44 -49 -38 -77 8 -44 33 -68 82 -77 50 -9 128 6
128 24 0 10 -16 12 -67 8 -74 -5 -110 7 -110 38 0 15 7 20 30 20 63 0 106 42
89 88 -15 39 -62 30 -114 -24z m85 1 c0 -16 -30 -35 -56 -35 -15 0 -14 4 6 25
26 28 50 33 50 10z"/>
<path d="M8528 661 c-52 -33 -78 -66 -78 -98 0 -28 53 -46 124 -41 78 5 69 25
-13 30 -38 2 -73 6 -76 10 -21 21 68 89 128 97 57 8 61 31 5 31 -31 0 -57 -8
-90 -29z"/>
<path d="M8813 648 c-60 -64 -76 -127 -36 -142 22 -9 29 2 16 22 -22 34 42
122 89 122 18 0 28 5 28 15 0 10 -10 15 -33 15 -24 0 -41 -9 -64 -32z"/>
<path d="M6485 620 c-36 -38 -44 -104 -14 -121 10 -5 19 -7 19 -4 0 3 9 1 20
-5 30 -16 98 5 111 34 9 18 6 32 -10 64 -24 46 -25 47 -66 56 -26 6 -36 2 -60
-24z m95 -42 c17 -29 18 -34 5 -47 -15 -15 -74 -19 -94 -6 -19 11 -12 43 15
64 36 29 51 26 74 -11z"/>
<path d="M8991 580 c-20 -45 -19 -60 3 -60 18 0 41 79 27 93 -7 7 -16 -3 -30
-33z"/>
<path d="M9795 470 c-8 -13 3 -30 20 -30 23 0 27 18 6 30 -13 7 -22 7 -26 0z"/>
</g>
</svg>
