<?xml version="1.0" standalone="no"?>
<!DOCTYPE svg PUBLIC "-//W3C//DTD SVG 20010904//EN"
 "http://www.w3.org/TR/2001/REC-SVG-20010904/DTD/svg10.dtd">
<svg version="1.0" xmlns="http://www.w3.org/2000/svg"
 width="1618.000000pt" height="1214.000000pt" viewBox="0 0 1618.000000 1214.000000"
 preserveAspectRatio="xMidYMid meet">

<g transform="translate(0.000000,1214.000000) scale(0.100000,-0.100000)"
fill="#000000" stroke="none">
<path d="M13304 11693 c-43 -102 -47 -107 -89 -117 -79 -16 -110 -32 -132 -65
-31 -46 -30 -101 2 -140 l26 -30 -32 -60 c-32 -62 -34 -106 -4 -81 8 7 15 19
15 27 0 7 12 35 28 61 25 44 29 47 65 44 56 -5 142 23 166 54 31 40 28 98 -6
133 -16 15 -37 32 -48 38 -14 8 -16 15 -9 25 6 7 21 39 33 70 13 31 30 59 38
62 12 5 13 9 3 21 -21 25 -30 18 -56 -42z m-84 -158 c0 -3 -21 -42 -47 -86
-48 -79 -48 -79 -65 -58 -34 41 -16 108 36 133 30 15 76 21 76 11z m98 -35
c28 -27 29 -73 1 -99 -22 -20 -90 -41 -134 -41 -33 0 -31 6 31 107 49 78 53
79 102 33z"/>
<path d="M8364 11688 c-6 -7 -32 -62 -59 -121 -27 -60 -57 -113 -68 -118 -10
-6 -34 -8 -52 -5 -20 4 -36 2 -40 -4 -10 -16 -2 -21 45 -27 36 -5 41 -8 36
-27 -3 -12 -9 -45 -12 -74 -6 -46 -4 -56 16 -77 14 -15 35 -25 50 -25 27 0 80
33 80 51 0 15 -36 10 -50 -6 -15 -18 -42 -19 -58 -3 -16 16 -15 54 3 116 l16
51 86 3 c58 2 88 7 91 16 3 9 -17 12 -77 12 -45 0 -81 2 -81 4 0 2 23 54 51
116 33 71 48 115 42 121 -6 6 -13 5 -19 -3z"/>
<path d="M15121 11663 c-35 -76 -50 -98 -68 -96 -25 2 -93 -46 -120 -86 -26
-39 -30 -97 -9 -126 12 -17 11 -25 -10 -67 -25 -49 -31 -88 -15 -88 6 0 22 27
37 60 l27 60 56 0 c63 0 109 22 138 66 33 51 12 144 -37 162 -17 6 -16 11 16
62 19 30 34 60 34 67 0 24 -36 13 -49 -14z m-91 -161 c0 -24 -70 -133 -81
-126 -26 16 2 100 43 128 29 21 38 20 38 -2z m100 -1 c13 -25 13 -77 0 -102
-15 -26 -62 -49 -105 -49 -19 0 -35 2 -35 5 0 3 21 42 48 85 48 82 72 98 92
61z"/>
<path d="M13550 11669 c0 -5 -27 -58 -60 -117 -60 -108 -87 -189 -70 -206 14
-14 20 -4 31 46 6 24 37 92 70 151 56 100 66 137 39 137 -5 0 -10 -5 -10 -11z"/>
<path d="M14194 11581 c-55 -39 -76 -65 -68 -84 8 -23 34 -29 73 -17 25 7 31
6 27 -3 -71 -157 -91 -237 -61 -237 8 0 15 8 15 18 0 36 42 141 89 223 l48 84
-21 22 c-28 30 -55 29 -102 -6z m71 -21 c0 -17 -42 -46 -77 -54 -40 -9 -35 9
14 44 42 31 63 34 63 10z"/>
<path d="M13950 11593 c-12 -4 -67 -38 -99 -60 -3 -2 0 -8 7 -15 8 -8 21 -5
49 14 44 30 98 44 108 28 14 -23 -111 -180 -144 -180 -19 0 -81 -60 -81 -77 0
-25 22 -23 59 6 41 33 51 31 51 -6 0 -34 43 -73 80 -73 20 0 30 5 30 15 0 10
-10 15 -30 15 -32 0 -44 15 -54 71 -6 32 -2 41 31 79 89 100 113 159 74 180
-21 11 -56 12 -81 3z"/>
<path d="M14735 11590 c-54 -14 -85 -29 -91 -45 -10 -26 2 -28 43 -7 21 11 60
23 87 27 l49 8 -24 -42 c-21 -38 -76 -93 -191 -193 -35 -30 -40 -38 -26 -43
10 -4 33 7 63 29 25 20 51 36 55 36 5 0 13 -15 18 -32 10 -39 53 -68 78 -53
20 13 18 30 -4 31 -37 2 -42 5 -42 22 0 10 -7 28 -16 40 -15 22 -14 25 38 80
67 73 86 107 72 130 -12 19 -63 25 -109 12z"/>
<path d="M15351 11578 c-5 -13 -7 -26 -4 -30 2 -5 -1 -8 -6 -8 -19 0 -131
-258 -131 -302 0 -4 6 -8 14 -8 9 0 21 22 31 58 9 31 41 107 71 168 30 61 54
116 54 122 0 22 -21 22 -29 0z"/>
<path d="M15605 11590 c-8 -14 3 -30 21 -30 24 0 16 -21 -22 -56 -38 -37 -49
-37 -57 -2 -2 13 -8 31 -12 42 -7 16 -5 17 25 11 28 -6 32 -5 27 10 -4 9 -7
19 -7 21 0 12 -59 2 -71 -12 -10 -13 -10 -21 0 -47 17 -40 23 -107 10 -107 -5
0 -9 5 -9 10 0 16 -58 -18 -70 -41 -26 -47 9 -99 78 -118 51 -15 65 4 63 83
-1 37 -2 70 -4 74 -1 4 22 31 51 59 32 31 52 59 50 70 -4 20 -64 47 -73 33z
m-55 -230 c0 -65 -6 -70 -54 -49 -24 11 -40 44 -29 62 6 10 65 47 76 47 4 0 7
-27 7 -60z"/>
<path d="M2039 11535 c-1 -8 -2 -21 -3 -27 -1 -7 4 -12 9 -11 6 1 17 -42 26
-97 l15 -99 -58 -92 c-64 -102 -94 -170 -85 -194 9 -21 27 -19 27 3 0 31 47
119 135 253 123 189 156 259 121 259 -7 0 -21 -20 -30 -43 -9 -24 -30 -66 -48
-93 -36 -57 -41 -52 -53 56 -4 36 -11 73 -16 83 -12 21 -38 23 -40 2z"/>
<path d="M2579 11478 c-44 -69 -129 -180 -148 -195 -14 -10 -14 -12 3 -19 20
-8 23 -5 89 77 16 18 26 26 23 16 -8 -26 11 -57 36 -57 25 0 84 35 98 58 7 13
9 9 10 -20 0 -28 7 -42 31 -63 17 -14 36 -24 42 -22 21 7 16 22 -13 39 -36 20
-37 40 -10 118 23 67 10 92 -23 45 -31 -44 -112 -125 -126 -125 -6 0 -11 8
-11 18 0 24 38 134 50 146 15 15 12 36 -4 36 -8 0 -29 -24 -47 -52z"/>
<path d="M6926 11511 c-10 -11 -19 -43 -22 -77 -9 -108 -13 -124 -34 -124 -27
0 -34 17 -40 94 -3 43 -10 71 -17 74 -10 3 -13 -16 -13 -71 0 -67 3 -79 26
-106 31 -37 47 -39 79 -6 20 20 25 34 25 78 0 83 9 119 29 112 27 -11 33 -10
38 2 2 6 -9 19 -25 27 -27 14 -31 14 -46 -3z"/>
<path d="M4581 11430 c-46 -50 -89 -90 -96 -90 -7 0 -16 -7 -19 -16 -9 -22 -8
-24 10 -24 9 0 46 29 84 65 l67 66 -10 -41 c-21 -76 26 -103 86 -50 19 16 35
24 34 18 -1 -33 4 -46 20 -52 22 -9 43 12 23 24 -12 7 -12 17 -2 62 18 77 18
80 6 85 -6 2 -25 -19 -43 -46 -32 -50 -74 -91 -93 -91 -12 0 -2 64 16 100 22
42 28 80 14 80 -7 0 -51 -41 -97 -90z"/>
<path d="M4954 11509 c-37 -10 -84 -52 -84 -73 0 -9 16 -33 35 -55 37 -41 43
-59 23 -79 -15 -15 -60 -16 -75 -1 -14 14 -25 -3 -17 -25 10 -26 86 -21 112 7
31 33 27 63 -13 113 l-35 42 26 21 c15 12 35 21 45 21 10 0 21 5 25 11 11 18
-9 27 -42 18z"/>
<path d="M6328 11509 c-24 -14 -23 -21 12 -76 33 -51 40 -110 15 -119 -8 -4
-26 -3 -40 0 -18 5 -25 13 -25 31 0 16 6 25 15 25 17 0 20 16 5 25 -34 21 -76
-32 -58 -71 20 -43 102 -59 130 -26 36 40 31 68 -30 184 -2 4 16 8 40 10 24 2
43 8 43 13 0 14 -86 17 -107 4z"/>
<path d="M7164 11497 c-12 -7 -38 -27 -59 -45 -59 -53 -62 -147 -5 -177 52
-27 160 -16 160 16 0 4 -27 5 -60 2 -77 -7 -110 11 -110 62 0 35 0 35 44 35
59 0 102 34 92 73 -8 35 -35 49 -62 34z m32 -39 c9 -15 -24 -38 -55 -38 l-24
0 23 25 c25 27 45 32 56 13z"/>
<path d="M3425 11481 c-46 -20 -105 -83 -105 -110 0 -23 27 -46 63 -55 35 -8
153 4 137 14 -9 6 -9 9 1 14 8 3 -11 4 -42 1 -67 -6 -116 2 -123 20 -8 21 33
66 77 85 41 19 60 17 89 -7 12 -11 18 -12 24 -2 9 15 -39 59 -64 59 -9 0 -35
-9 -57 -19z"/>
<path d="M2355 11480 c-29 -12 -62 -50 -80 -92 -22 -54 -19 -85 10 -104 23
-15 27 -15 62 3 74 36 109 137 63 183 -22 22 -26 23 -55 10z m45 -70 c0 -38
-53 -100 -86 -100 -31 0 -31 22 -1 80 14 30 30 47 47 51 34 8 40 3 40 -31z"/>
<path d="M5108 11480 c-71 -42 -99 -189 -43 -226 28 -19 146 -7 153 15 4 11
-8 13 -61 9 -74 -6 -85 -2 -88 32 -5 57 0 68 36 74 21 4 41 17 51 31 15 23 15
27 0 50 -18 28 -23 29 -48 15z m22 -40 c0 -5 -9 -14 -21 -20 -19 -11 -20 -10
-9 9 11 22 30 29 30 11z"/>
<path d="M3700 11462 c-31 -15 -80 -72 -80 -93 0 -5 12 -16 26 -26 25 -16 28
-16 55 0 28 15 29 15 29 -3 0 -68 35 -66 38 3 1 28 3 65 4 81 2 19 -3 33 -17
42 -18 12 -26 11 -55 -4z m50 -31 c0 -16 -53 -61 -71 -61 -25 0 -24 12 6 44
23 25 65 36 65 17z"/>
<path d="M3947 11445 c-36 -25 -37 -25 -37 -5 0 35 -21 18 -37 -30 -9 -25 -22
-54 -29 -65 -8 -11 -14 -25 -14 -32 0 -28 28 -10 86 54 34 38 65 65 70 61 4
-5 1 -32 -6 -62 -12 -51 -8 -97 7 -82 11 11 32 97 33 132 0 27 -15 54 -30 54
-3 0 -22 -11 -43 -25z"/>
<path d="M6579 11455 c-36 -19 -67 -80 -53 -103 15 -23 57 -27 94 -8 27 13 30
13 30 -3 0 -23 28 -61 46 -61 8 0 14 7 14 15 0 8 -4 15 -9 15 -17 0 -23 40
-11 76 11 32 10 38 -11 60 -25 27 -61 30 -100 9z m77 -26 c10 -17 -36 -58 -73
-65 -42 -8 -43 7 -4 47 30 30 64 38 77 18z"/>
<path d="M10157 11453 c-2 -4 -12 -33 -21 -64 -15 -54 -40 -89 -53 -76 -3 4
-13 30 -23 59 -9 29 -21 51 -26 48 -14 -8 -5 -69 17 -112 25 -48 53 -48 85 -1
28 42 50 131 36 145 -5 5 -12 6 -15 1z"/>
<path d="M9611 11436 c-11 -13 -9 -23 13 -60 14 -25 26 -51 26 -60 0 -23 -51
-57 -79 -54 -21 2 -25 8 -23 27 3 19 0 22 -13 17 -9 -3 -19 -6 -21 -6 -2 0 -4
-11 -4 -25 0 -43 64 -59 120 -30 53 27 64 78 30 130 -25 38 -25 43 3 47 33 5
27 23 -9 26 -18 2 -36 -3 -43 -12z"/>
<path d="M10289 11418 c-24 -19 -48 -47 -54 -62 -9 -26 -6 -31 29 -62 22 -19
57 -39 78 -45 53 -14 111 -8 113 11 2 12 -10 15 -55 16 -47 0 -67 6 -102 29
l-43 30 46 5 c67 8 101 33 97 73 -3 28 -7 32 -34 35 -23 2 -43 -6 -75 -30z
m81 -8 c0 -16 -48 -42 -72 -38 -22 3 -21 4 12 25 37 24 60 29 60 13z"/>
<path d="M9840 11412 c-25 -8 -80 -65 -80 -83 0 -45 67 -64 122 -35 26 14 26
13 33 -20 3 -19 12 -34 19 -34 9 0 12 18 11 68 -1 73 -12 82 -47 37 -20 -26
-83 -44 -99 -28 -6 6 -2 19 11 36 16 20 31 27 55 27 19 0 36 4 39 9 7 11 -44
30 -64 23z"/>
<path d="M8478 11359 c-36 -35 -36 -71 -2 -98 59 -47 167 -5 167 64 0 66 -110
89 -165 34z m67 -9 c5 -8 11 -8 20 0 19 16 45 1 45 -26 0 -42 -65 -68 -111
-44 -23 13 -24 28 -3 58 16 23 39 29 49 12z"/>
<path d="M13540 11345 c0 -8 7 -15 15 -15 8 0 15 7 15 15 0 8 -7 15 -15 15 -8
0 -15 -7 -15 -15z"/>
<path d="M5989 11320 c-21 -17 -22 -21 -9 -30 22 -14 35 -12 54 9 34 38 -4 56
-45 21z"/>
<path d="M14310 11319 c0 -24 23 -21 28 4 2 10 -3 17 -12 17 -10 0 -16 -9 -16
-21z"/>
<path d="M6317 11193 c-14 -4 -17 -11 -13 -28 4 -14 -15 -74 -54 -171 -33 -82
-60 -152 -60 -156 0 -18 31 -6 39 15 15 38 80 87 116 87 13 0 13 -6 -5 -41
-23 -45 -23 -84 0 -84 9 0 14 7 12 17 -1 10 6 35 18 57 25 50 25 67 0 81 -16
8 -30 6 -63 -8 l-43 -19 42 106 c58 146 59 156 11 144z"/>
<path d="M2456 11166 c-20 -16 -27 -28 -23 -40 4 -10 11 -14 17 -11 18 11 10
-30 -24 -132 -19 -55 -36 -117 -38 -138 -4 -48 18 -59 26 -13 15 74 30 120 42
125 6 2 35 -5 62 -17 58 -25 78 -59 69 -117 -6 -35 5 -63 24 -63 15 0 10 119
-6 150 -9 16 -29 37 -45 45 l-31 16 31 26 c34 28 60 72 60 101 0 23 -46 67
-80 77 -14 3 -32 8 -40 11 -8 2 -28 -7 -44 -20z m117 -43 c9 -9 17 -24 17 -33
0 -27 -67 -90 -95 -90 -30 0 -29 -3 -9 83 16 66 18 68 43 62 14 -4 34 -14 44
-22z"/>
<path d="M6875 11153 c4 -26 -2 -59 -17 -102 -20 -55 -27 -65 -56 -75 -37 -12
-44 -32 -12 -30 24 1 24 -2 5 -56 -18 -52 -19 -70 -2 -70 7 0 22 28 33 62 l20
62 58 -3 c45 -2 57 1 54 11 -3 7 -23 14 -46 16 -23 2 -42 8 -42 14 0 5 12 48
26 94 21 68 24 87 14 99 -24 29 -41 18 -35 -22z"/>
<path d="M8501 11127 c-48 -95 -68 -115 -128 -129 -66 -16 -76 -44 -13 -35 22
3 40 3 40 1 0 -2 -9 -21 -20 -41 -34 -64 -19 -123 31 -123 35 0 159 31 165 41
12 21 -8 22 -86 5 -85 -19 -100 -16 -100 16 0 22 46 108 64 120 6 4 35 8 64 8
55 0 60 5 38 36 -12 15 -17 17 -27 7 -13 -13 -49 -18 -49 -7 0 3 18 35 40 72
22 36 39 71 37 76 -9 26 -27 11 -56 -47z"/>
<path d="M3316 11148 c-30 -98 -44 -134 -78 -195 -25 -47 -38 -83 -36 -100 3
-27 5 -28 61 -26 63 2 127 19 127 33 0 16 -17 20 -46 11 -16 -5 -49 -12 -73
-15 -43 -7 -43 -7 -36 21 3 15 15 39 26 54 25 35 64 125 72 164 3 17 9 38 12
48 5 12 2 17 -9 17 -9 0 -18 -6 -20 -12z"/>
<path d="M9807 11123 c-3 -5 -8 -24 -12 -43 -4 -19 -32 -83 -61 -142 -51 -101
-68 -164 -43 -156 6 2 17 19 23 38 7 19 34 79 60 132 49 102 66 161 48 172 -6
3 -13 3 -15 -1z"/>
<path d="M4972 11108 c7 -19 38 -22 38 -4 0 10 -9 16 -21 16 -12 0 -19 -5 -17
-12z"/>
<path d="M9444 11104 c-36 -17 -61 -57 -85 -133 -16 -54 -18 -56 -58 -64 -52
-10 -50 -33 2 -29 35 3 36 2 28 -26 -13 -43 -29 -69 -53 -86 -17 -12 -20 -18
-10 -28 22 -22 92 63 92 113 0 15 5 19 15 15 16 -6 21 19 6 28 -12 8 11 96 36
139 24 41 68 64 89 46 13 -10 17 -10 24 1 22 36 -32 51 -86 24z"/>
<path d="M3074 11051 c-18 -11 -35 -24 -38 -29 -3 -6 -14 -8 -24 -5 -16 4 -24
-11 -51 -94 -18 -54 -44 -126 -58 -161 -25 -64 -27 -102 -5 -110 15 -5 59 87
68 141 6 33 10 37 35 37 49 0 169 135 169 190 0 14 -37 50 -52 50 -7 0 -27 -9
-44 -19z m55 -59 c-11 -30 -107 -132 -124 -132 -24 0 -15 57 15 99 57 78 135
102 109 33z"/>
<path d="M6530 11055 c0 -8 7 -15 15 -15 8 0 15 7 15 15 0 8 -7 15 -15 15 -8
0 -15 -7 -15 -15z"/>
<path d="M4663 11050 c-32 -13 -29 -46 7 -87 33 -38 37 -55 15 -73 -17 -14
-55 -4 -55 16 0 8 -9 14 -20 14 -27 0 -25 -16 5 -45 45 -46 115 -23 115 38 0
15 -13 41 -32 62 -26 30 -29 38 -17 46 8 5 29 7 47 4 29 -5 33 -4 30 12 -4 21
-58 28 -95 13z"/>
<path d="M4055 11043 c-52 -13 -57 -43 -20 -107 23 -39 24 -44 9 -65 -22 -31
-65 -25 -82 12 -14 29 -28 35 -35 15 -8 -25 22 -66 57 -78 41 -13 75 3 94 46
16 34 16 39 -14 84 -14 21 -23 43 -20 48 10 17 58 24 67 10 11 -18 34 5 26 26
-6 16 -40 19 -82 9z"/>
<path d="M4473 11020 c-18 -11 -33 -25 -33 -31 0 -6 16 -29 35 -50 40 -45 42
-50 16 -73 -22 -20 -51 -11 -51 15 0 10 -7 19 -15 19 -23 0 -18 -47 7 -64 32
-22 55 -20 83 9 33 32 31 54 -5 100 -16 20 -27 41 -24 46 3 5 23 12 45 15 23
4 39 12 39 20 0 21 -60 17 -97 -6z"/>
<path d="M4917 11029 c-14 -8 -15 -13 -5 -29 10 -16 8 -31 -10 -81 -23 -64
-23 -75 1 -66 12 4 57 134 57 163 0 17 -23 23 -43 13z"/>
<path d="M4254 11016 c-44 -20 -75 -76 -64 -117 13 -43 28 -59 59 -59 42 0
102 20 108 36 9 23 -1 25 -40 9 -47 -19 -83 -19 -91 1 -10 25 -7 32 14 39 32
10 80 55 80 75 0 14 -21 32 -33 30 -1 -1 -16 -7 -33 -14z m12 -41 c-11 -8 -22
-12 -25 -9 -6 6 19 24 34 24 6 -1 1 -7 -9 -15z"/>
<path d="M7262 11005 c-45 -37 -107 -134 -94 -147 14 -14 30 -2 46 35 20 50
73 97 107 97 31 0 41 23 13 34 -27 10 -42 7 -72 -19z"/>
<path d="M2765 11008 c-80 -46 -109 -139 -60 -192 22 -24 31 -27 77 -24 69 4
79 28 10 28 -36 0 -54 5 -66 19 -28 31 -16 52 36 68 30 8 54 23 64 38 15 23
15 27 0 50 -18 27 -31 30 -61 13z m35 -38 c0 -13 -49 -44 -57 -36 -9 8 27 46
44 46 7 0 13 -4 13 -10z"/>
<path d="M5067 10970 c-49 -44 -58 -64 -46 -98 18 -47 141 -14 155 42 7 30
-23 89 -49 94 -9 2 -36 -15 -60 -38z m73 -19 c13 -26 5 -46 -26 -60 -65 -29
-88 7 -33 53 37 31 45 32 59 7z"/>
<path d="M9922 10989 c-75 -37 -116 -117 -77 -149 28 -23 205 -10 205 15 0 11
-21 12 -95 8 -91 -6 -95 -5 -95 14 0 28 20 42 57 41 30 -1 93 34 93 52 0 10
-28 40 -38 40 -4 0 -26 -10 -50 -21z m33 -29 c-3 -5 -11 -10 -16 -10 -6 0 -7
5 -4 10 3 6 11 10 16 10 6 0 7 -4 4 -10z"/>
<path d="M5303 10983 c-3 -10 -23 -42 -45 -71 -31 -42 -36 -53 -24 -58 10 -4
36 11 68 39 57 48 97 72 105 63 3 -3 0 -26 -6 -51 -16 -65 -2 -88 48 -82 71 8
85 33 19 33 -42 -1 -43 0 -39 29 11 73 7 100 -16 103 -12 2 -35 -4 -52 -13
-27 -13 -31 -13 -31 -1 0 23 -19 29 -27 9z"/>
<path d="M6486 10993 c-3 -3 -6 -14 -6 -24 0 -9 -13 -46 -30 -81 -33 -69 -37
-88 -17 -88 14 0 77 135 77 167 0 23 -13 37 -24 26z"/>
<path d="M7474 10952 c-103 -156 -158 -248 -175 -292 -23 -60 -23 -70 -5 -70
7 0 23 27 35 60 12 33 45 94 73 137 29 43 69 104 90 135 21 32 38 62 38 68 0
24 -27 6 -56 -38z"/>
<path d="M6619 10967 c-44 -30 -49 -61 -13 -98 l27 -28 -27 -11 c-38 -14 -61
-13 -76 5 -7 8 -16 15 -21 15 -13 0 -11 -34 3 -48 29 -29 148 -1 148 34 0 9
-11 29 -25 46 -14 16 -25 34 -25 39 0 5 18 18 40 29 22 11 40 25 40 30 0 17
-36 11 -71 -13z"/>
<path d="M9574 10975 c-9 -23 14 -45 26 -25 5 8 8 19 7 24 -6 17 -27 18 -33 1z"/>
<path d="M6951 10925 c-42 -46 -55 -95 -29 -111 18 -11 66 -6 99 11 43 23 53
49 39 101 -11 38 -16 44 -40 44 -20 0 -39 -13 -69 -45z m83 -48 c-6 -17 -47
-37 -74 -37 -30 0 -24 24 16 67 l36 38 14 -27 c8 -15 11 -33 8 -41z"/>
<path d="M8725 10950 c-4 -6 -11 -8 -16 -4 -28 17 -77 -72 -59 -106 17 -31 71
-26 109 9 36 34 38 49 10 85 -22 28 -34 32 -44 16z m25 -47 c0 -23 -29 -53
-52 -53 -34 0 -20 54 17 63 33 8 35 8 35 -10z"/>
<path d="M7320 10936 c0 -8 5 -18 10 -21 6 -3 10 -19 10 -35 0 -34 27 -67 43
-51 7 7 7 18 0 33 -6 13 -14 36 -19 53 -10 31 -44 48 -44 21z"/>
<path d="M9483 10860 c-26 -45 -30 -80 -8 -80 8 0 15 7 15 15 0 8 9 29 20 47
11 18 20 39 20 46 0 25 -26 10 -47 -28z"/>
<path d="M10133 10855 c-3 -9 -2 -19 1 -23 8 -8 38 10 44 26 6 18 -38 14 -45
-3z"/>
<path d="M2098 10349 c-178 -28 -266 -54 -246 -74 3 -3 43 3 89 14 143 32 247
44 330 38 64 -5 79 -4 79 8 0 9 -16 16 -47 20 -27 3 -57 8 -68 9 -11 2 -73 -5
-137 -15z"/>
<path d="M2426 10358 c-18 -66 -101 -312 -117 -342 -10 -22 -19 -43 -19 -48 0
-17 28 -7 43 15 27 38 104 117 116 117 18 0 13 -34 -14 -92 -28 -61 -32 -88
-10 -88 8 0 15 6 15 13 0 6 11 35 24 63 33 71 39 106 23 128 -17 23 -44 16
-89 -22 -27 -23 -31 -24 -24 -7 24 58 85 259 80 266 -8 13 -24 11 -28 -3z"/>
<path d="M11824 10264 c-20 -43 -42 -94 -50 -111 -8 -18 -22 -34 -32 -34 -9
-1 -28 -2 -42 -3 -39 -2 -32 -31 7 -31 25 0 32 -4 28 -15 -40 -140 -41 -148
-12 -137 8 3 17 24 21 46 3 23 13 59 22 81 16 39 16 39 85 46 52 5 69 10 69
22 0 12 -11 14 -61 9 -33 -3 -59 -2 -57 2 2 4 21 47 42 95 29 64 37 89 28 98
-8 8 -21 -9 -48 -68z"/>
<path d="M5075 10301 c-3 -6 -4 -15 -1 -20 4 -5 -10 -51 -29 -101 -45 -117
-71 -228 -57 -242 18 -18 29 0 36 58 3 31 25 105 47 164 22 60 39 117 37 126
-4 21 -24 29 -33 15z"/>
<path d="M2142 10279 c-5 -13 -15 -51 -22 -84 -6 -33 -25 -108 -42 -167 -28
-96 -32 -157 -9 -132 5 5 24 70 44 144 57 220 61 240 49 252 -8 8 -14 4 -20
-13z"/>
<path d="M9950 10268 c0 -20 -25 -76 -70 -159 -38 -70 -70 -134 -70 -143 0
-29 23 -17 81 40 l57 57 -10 -46 c-6 -32 -6 -52 2 -66 17 -32 30 -25 28 17 0
20 2 52 6 70 9 38 -7 64 -32 55 -9 -3 -30 -20 -46 -37 -23 -25 -26 -26 -14 -6
69 118 98 180 98 213 0 26 -4 37 -15 37 -10 0 -15 -10 -15 -32z"/>
<path d="M7877 10283 c-4 -3 -7 -15 -7 -25 0 -11 -14 -61 -31 -113 -29 -88
-32 -93 -62 -98 -18 -3 -45 -10 -62 -17 -25 -9 -27 -13 -14 -20 10 -6 30 -6
49 0 19 5 35 8 37 6 6 -6 -29 -81 -46 -94 -9 -7 -11 -11 -5 -8 7 3 14 -4 18
-16 7 -30 16 -18 50 64 28 68 40 78 97 78 28 0 68 25 57 35 -4 4 -31 3 -61 -2
l-54 -9 18 47 c23 59 48 167 41 174 -7 7 -17 6 -25 -2z"/>
<path d="M9800 10264 c0 -8 -16 -54 -37 -101 l-36 -85 -49 6 c-39 6 -48 4 -48
-9 0 -10 14 -17 40 -21 22 -4 40 -7 40 -8 0 0 -11 -32 -24 -70 -24 -67 -25
-100 -2 -93 6 2 12 14 14 28 2 13 13 49 25 80 l21 57 48 4 c59 6 64 11 45 38
-13 19 -16 20 -31 5 -9 -9 -23 -15 -31 -13 -11 2 -7 18 20 78 38 81 44 120 20
120 -8 0 -15 -7 -15 -16z"/>
<path d="M11437 10263 c-4 -3 -7 -27 -7 -52 0 -25 -3 -63 -6 -83 -6 -32 -8
-35 -21 -22 -20 19 -36 18 -66 -6 -32 -25 -60 -96 -55 -141 3 -29 7 -34 31
-37 42 -5 72 21 106 90 21 44 33 89 40 152 6 49 8 92 5 97 -6 11 -18 12 -27 2z
m-39 -196 c13 -15 -5 -57 -40 -94 -47 -50 -65 -6 -28 67 21 41 48 52 68 27z"/>
<path d="M7485 10228 c-2 -7 -9 -47 -15 -88 -17 -117 -27 -146 -65 -179 -37
-32 -80 -41 -88 -18 -6 18 30 85 54 97 11 6 30 11 42 10 36 -3 40 -1 27 15
-21 25 -73 19 -102 -12 -43 -46 -62 -92 -49 -120 29 -62 134 -34 177 48 15 29
54 239 47 252 -7 11 -23 8 -28 -5z"/>
<path d="M3882 10178 c2 -18 8 -22 28 -20 35 5 38 11 16 28 -30 21 -48 18 -44
-8z"/>
<path d="M9546 10191 c-9 -14 4 -41 21 -41 9 0 13 8 11 22 -3 23 -23 35 -32
19z"/>
<path d="M11613 10175 c-8 -21 1 -28 26 -20 12 4 18 12 14 21 -7 19 -32 18
-40 -1z"/>
<path d="M2860 10138 c-22 -15 -47 -49 -72 -98 -43 -84 -44 -90 -22 -90 9 0
26 25 44 63 31 68 64 105 100 112 31 6 37 14 20 25 -22 14 -34 12 -70 -12z"/>
<path d="M11038 10115 c-55 -40 -89 -100 -91 -160 -3 -81 41 -94 157 -45 67
29 106 55 106 72 0 12 -22 10 -39 -6 -21 -18 -144 -66 -169 -66 -23 0 -33 19
-25 48 3 15 16 23 44 27 46 8 80 33 109 80 15 24 20 44 16 60 -9 36 -51 32
-108 -10z m82 -5 c0 -18 -72 -90 -91 -90 -13 0 -17 -5 -12 -17 6 -15 5 -16 -9
-3 -15 14 -15 17 1 43 29 46 111 96 111 67z"/>
<path d="M4032 10124 c-26 -18 -29 -65 -7 -104 8 -14 14 -33 15 -44 0 -16 -5
-18 -45 -13 -35 5 -45 4 -45 -8 0 -19 65 -36 94 -25 35 13 38 36 14 92 -29 67
-19 82 56 86 41 2 56 7 56 17 0 21 -108 20 -138 -1z"/>
<path d="M5152 10124 c-37 -26 -43 -47 -30 -104 14 -61 4 -74 -49 -65 -25 4
-33 2 -33 -8 0 -34 72 -36 105 -3 21 21 23 29 15 58 -16 54 -12 76 16 95 21
13 32 15 55 6 35 -14 52 3 24 24 -25 18 -75 17 -103 -3z"/>
<path d="M7151 10110 c-22 -17 -52 -48 -66 -70 -14 -23 -30 -38 -36 -34 -10 6
-7 -26 7 -77 7 -25 58 -42 100 -34 61 11 89 24 76 37 -7 7 -25 7 -60 -2 -37
-8 -56 -9 -71 0 -28 14 -27 30 2 30 79 0 167 138 108 169 -15 8 -27 4 -60 -19z
m49 -22 c0 -20 -43 -83 -60 -87 -8 -2 -23 -6 -34 -9 -16 -4 -17 -2 -7 17 15
27 79 91 91 91 6 0 10 -6 10 -12z"/>
<path d="M7610 10131 c0 -12 29 -35 36 -28 11 10 -5 37 -21 37 -8 0 -15 -4
-15 -9z"/>
<path d="M2607 10099 c-39 -32 -77 -95 -77 -127 0 -25 31 -52 61 -52 59 0 138
37 125 58 -4 7 -20 5 -49 -8 -52 -24 -93 -25 -101 -4 -8 21 1 34 22 34 23 0
89 45 102 71 16 28 3 59 -23 59 -13 0 -39 -14 -60 -31z m47 -28 c-10 -16 -28
-31 -41 -34 -31 -6 -29 3 9 35 43 36 53 35 32 -1z"/>
<path d="M9110 10097 c-36 -19 -66 -41 -68 -50 -5 -23 24 -22 37 1 6 9 11 13
11 8 0 -5 6 -3 13 3 8 6 30 18 51 26 l37 16 -28 -43 c-15 -24 -35 -54 -45 -67
-20 -27 -23 -56 -7 -66 6 -4 33 7 61 24 l50 32 24 -26 c50 -54 129 -13 122 64
-4 45 -28 55 -28 11 0 -70 -47 -95 -78 -40 -21 36 -29 37 -76 5 -20 -14 -39
-25 -41 -25 -2 0 14 27 36 60 66 99 40 124 -71 67z"/>
<path d="M6165 10109 c-62 -36 -113 -115 -95 -149 13 -24 56 -26 88 -4 22 15
23 14 33 -15 11 -32 44 -50 61 -33 12 12 2 32 -16 32 -23 0 -26 41 -7 95 10
29 16 57 12 63 -10 17 -54 23 -76 11z m33 -59 c-15 -45 -98 -103 -98 -69 0 34
60 99 92 99 15 0 15 -4 6 -30z"/>
<path d="M6436 10085 c-25 -19 -46 -30 -46 -25 0 6 -7 10 -15 10 -15 0 -21
-25 -7 -33 4 -2 2 -3 -4 -1 -7 1 -21 -20 -33 -48 -37 -89 -22 -120 22 -45 22
37 117 141 123 134 1 -1 -1 -30 -5 -65 -9 -72 3 -105 37 -110 32 -5 53 5 46
21 -3 9 -14 12 -30 9 -23 -4 -24 -2 -24 39 1 24 4 62 9 84 14 76 -4 83 -73 30z"/>
<path d="M2995 10098 c-29 -16 -80 -60 -79 -67 1 -3 -5 -15 -12 -26 -35 -49
-1 -98 68 -99 59 -1 98 11 98 30 0 11 -6 13 -21 9 -32 -10 -110 -8 -122 4 -7
7 -7 18 1 36 9 19 19 25 42 25 21 0 40 10 60 30 35 36 35 34 14 54 -18 19 -22
19 -49 4z m15 -43 c-7 -8 -20 -15 -28 -15 -13 0 -12 3 4 15 25 19 40 19 24 0z"/>
<path d="M4754 10083 c-45 -39 -67 -78 -59 -103 8 -26 39 -26 87 0 l37 20 -9
-24 c-11 -29 2 -81 20 -81 9 0 14 17 15 55 1 30 9 73 19 94 9 22 13 43 9 47
-5 5 -26 11 -48 14 -34 5 -45 1 -71 -22z m74 -20 c-4 -20 -83 -76 -100 -71
-17 6 61 88 84 88 13 0 18 -6 16 -17z"/>
<path d="M12135 10086 c-16 -14 -40 -25 -52 -26 -17 0 -23 -6 -23 -23 0 -13
-11 -46 -25 -73 -28 -55 -31 -74 -12 -74 6 0 36 38 64 84 38 59 62 87 84 96
27 12 32 11 41 -3 14 -26 30 -20 26 11 -3 23 -8 27 -38 30 -25 2 -43 -4 -65
-22z"/>
<path d="M8236 10080 c-17 -10 -36 -30 -43 -44 -8 -15 -17 -26 -22 -26 -5 0
-11 -17 -14 -37 -3 -21 -8 -46 -12 -55 -5 -14 -2 -18 13 -18 16 0 24 11 36 53
9 30 25 66 37 80 25 32 56 35 61 7 4 -29 22 -26 26 4 2 16 -4 29 -20 40 -28
20 -27 20 -62 -4z"/>
<path d="M3830 10075 c0 -9 -14 -43 -31 -76 -31 -63 -34 -94 -9 -94 8 0 17 15
22 37 4 20 16 51 28 70 24 39 26 78 5 78 -8 0 -15 -7 -15 -15z"/>
<path d="M9474 10013 c-33 -72 -38 -109 -13 -101 6 2 10 6 9 8 0 3 13 35 29
72 32 71 38 98 21 98 -6 0 -26 -35 -46 -77z"/>
<path d="M11563 10073 c-3 -10 -14 -40 -25 -66 -20 -53 -24 -91 -7 -85 13 4
70 148 63 160 -9 14 -24 9 -31 -9z"/>
<path d="M5301 10035 c-45 -48 -54 -91 -25 -119 21 -21 53 -20 108 3 98 42 95
161 -4 161 -31 0 -44 -7 -79 -45z m120 -12 c11 -29 -20 -68 -67 -83 -66 -22
-85 13 -39 69 38 44 92 52 106 14z"/>
<path d="M11905 10027 c-67 -66 -59 -117 16 -117 62 0 93 59 60 115 -3 6 -6
16 -6 24 0 30 -27 21 -70 -22z m50 -52 c0 -24 -5 -31 -24 -33 -36 -5 -47 12
-27 43 23 35 51 29 51 -10z"/>
<path d="M7964 10014 c-58 -61 -57 -116 2 -122 37 -4 98 35 102 65 3 24 -32
78 -56 88 -9 3 -28 -9 -48 -31z m50 -24 c34 -13 33 -36 -4 -55 -34 -18 -60
-19 -60 -4 0 10 31 69 37 69 1 0 13 -4 27 -10z"/>
<path d="M7565 10028 c-27 -80 -36 -120 -31 -134 6 -17 32 -13 29 4 -1 6 4 32
12 59 8 26 15 56 15 66 0 20 -19 23 -25 5z"/>
<path d="M10720 9980 c-18 -33 2 -46 34 -25 30 20 29 39 -2 43 -13 2 -25 -5
-32 -18z"/>
<path d="M2416 9513 c-10 -49 -26 -139 -37 -202 -19 -109 -52 -211 -69 -211
-8 0 -45 130 -55 195 -16 101 -27 135 -45 135 -14 0 -24 -24 -50 -112 -18 -62
-43 -146 -57 -187 -18 -51 -22 -76 -14 -84 14 -14 40 48 81 196 30 110 50 141
50 78 0 -53 49 -225 71 -246 l20 -20 24 28 c32 36 58 124 85 282 12 76 28 137
37 147 11 12 13 27 9 53 -12 62 -32 41 -50 -52z"/>
<path d="M2906 9462 c-3 -5 -5 -56 -4 -113 1 -88 -2 -112 -22 -157 -23 -52
-78 -112 -105 -112 -30 0 -30 74 1 115 8 10 26 19 41 20 35 0 41 23 9 31 -71
17 -136 -108 -90 -174 19 -27 49 -28 91 -3 68 42 119 181 106 295 -4 42 -2 60
7 66 7 4 10 15 7 24 -7 17 -32 22 -41 8z"/>
<path d="M6547 9463 c-2 -5 -5 -27 -6 -50 -3 -66 -43 -161 -127 -300 -14 -24
-16 -35 -8 -43 8 -8 22 4 50 46 47 68 85 99 110 90 15 -6 16 -16 11 -84 -7
-82 -2 -122 17 -122 7 0 12 34 14 104 2 118 -8 141 -60 134 -15 -3 -28 -4 -28
-3 0 2 9 22 20 47 21 47 41 154 33 175 -6 14 -20 17 -26 6z"/>
<path d="M7360 9326 l-43 -125 -58 6 c-48 4 -59 3 -59 -9 0 -11 15 -17 50 -22
28 -4 50 -10 50 -14 0 -4 -7 -32 -15 -62 -9 -35 -11 -58 -5 -64 14 -14 19 -5
38 65 14 52 21 64 41 69 31 7 40 30 12 30 -12 0 -21 2 -21 5 0 9 70 201 79
216 6 9 7 20 4 23 -19 19 -35 -7 -73 -118z"/>
<path d="M6366 9376 c-8 -35 -24 -84 -35 -109 -18 -42 -23 -46 -66 -52 -25 -4
-59 -5 -75 -2 -34 7 -47 -5 -25 -23 10 -8 36 -11 74 -8 l58 4 -19 -43 c-20
-44 -21 -118 -3 -118 6 0 12 19 16 42 3 22 13 59 23 81 15 33 26 42 54 49 47
11 58 38 13 31 -36 -5 -36 -10 -3 82 31 84 38 130 19 130 -10 0 -20 -21 -31
-64z"/>
<path d="M11975 9428 c-2 -7 -9 -51 -15 -98 -16 -112 -41 -175 -92 -227 -65
-66 -113 -51 -68 22 25 41 73 81 78 66 7 -22 33 -12 30 12 -6 42 -45 34 -99
-22 -53 -56 -67 -90 -50 -127 8 -19 18 -24 46 -24 30 0 44 8 85 51 58 61 83
121 101 240 7 50 17 87 26 92 7 5 11 12 8 18 -9 13 -45 11 -50 -3z"/>
<path d="M9900 9424 c-74 -11 -130 -27 -141 -40 -18 -22 -4 -28 33 -15 53 19
161 31 193 22 17 -4 31 -14 33 -22 8 -40 -107 -129 -166 -129 -29 0 -33 3 -27
18 17 40 17 52 2 52 -19 0 -47 -37 -47 -61 0 -11 -11 -20 -30 -24 -33 -7 -41
-35 -10 -35 24 0 25 -7 4 -55 -18 -43 -15 -100 5 -100 8 0 14 14 15 40 2 22
11 58 22 80 17 35 24 40 57 43 70 6 123 -53 108 -119 -4 -19 -13 -44 -19 -56
-16 -29 -15 -43 3 -43 16 0 40 50 50 104 8 38 -14 90 -49 119 -21 17 -21 17
-1 29 11 6 41 32 68 58 92 92 44 155 -103 134z"/>
<path d="M12523 9403 c-3 -10 -26 -63 -51 -118 -50 -113 -81 -238 -66 -262 17
-27 27 -15 30 37 3 60 23 124 74 234 51 110 55 126 35 126 -8 0 -18 -8 -22
-17z"/>
<path d="M6113 9338 c2 -7 12 -13 22 -13 10 0 20 6 23 13 2 7 -6 12 -23 12
-17 0 -25 -5 -22 -12z"/>
<path d="M10651 9307 c-6 -8 -8 -17 -4 -20 3 -4 -6 -24 -19 -45 -46 -68 -88
-161 -88 -191 0 -33 20 -58 55 -67 26 -6 141 20 162 38 21 17 0 32 -25 19 -11
-6 -43 -16 -71 -22 -57 -12 -91 -1 -91 32 0 18 39 99 90 189 31 53 24 106 -9
67z"/>
<path d="M5010 9277 c-35 -18 -35 -36 -1 -87 48 -71 36 -110 -34 -110 -22 0
-25 3 -20 20 5 15 2 20 -12 20 -21 0 -43 -18 -43 -35 0 -17 45 -35 84 -35 79
0 109 71 61 142 -14 20 -25 41 -25 46 0 21 83 31 95 12 9 -15 35 -12 35 5 0
33 -90 47 -140 22z"/>
<path d="M7155 9270 c-3 -6 1 -17 10 -26 19 -20 41 -5 32 20 -7 18 -33 21 -42
6z"/>
<path d="M3019 9232 c-42 -43 -54 -76 -45 -125 13 -68 87 -101 171 -78 45 12
93 46 83 57 -4 4 -30 -3 -57 -15 -85 -36 -149 -22 -166 37 -5 19 -3 22 20 22
77 0 128 86 73 124 -31 22 -35 21 -79 -22z m71 -22 c0 -24 -44 -55 -66 -46
-13 5 -13 10 6 36 25 35 60 41 60 10z"/>
<path d="M3895 9250 c-30 -12 -83 -71 -90 -100 -5 -19 0 -31 20 -50 44 -41
214 -72 202 -36 -2 6 -29 14 -60 18 -130 16 -161 58 -89 118 25 21 43 29 57
25 34 -11 48 -10 52 1 4 11 -38 35 -60 33 -7 0 -21 -4 -32 -9z"/>
<path d="M4731 9246 c-64 -36 -95 -163 -49 -205 41 -39 127 -38 152 2 16 24 1
30 -32 13 -55 -29 -112 -2 -112 52 0 15 9 21 40 26 68 11 103 72 62 109 -22
20 -29 20 -61 3z m39 -57 c-9 -17 -58 -35 -67 -25 -3 3 9 20 27 37 25 25 34
29 40 19 5 -8 5 -22 0 -31z"/>
<path d="M7537 9250 c-36 -11 -57 -28 -57 -48 0 -8 12 -39 27 -69 25 -49 26
-54 11 -70 -14 -14 -21 -14 -48 -3 -17 7 -35 20 -40 29 -7 13 -11 14 -22 3
-11 -11 -8 -18 15 -38 35 -30 72 -40 102 -26 38 18 42 57 12 116 -32 62 -23
79 39 75 51 -3 66 7 40 27 -22 16 -37 16 -79 4z"/>
<path d="M12665 9248 c-61 -33 -119 -118 -113 -165 6 -54 103 -92 183 -72 46
12 71 31 61 48 -4 6 -18 3 -37 -6 -65 -33 -184 -6 -177 40 2 17 13 23 48 30
75 15 109 64 80 118 -12 22 -17 23 -45 7z m25 -41 c0 -22 -23 -44 -52 -51 -36
-8 -35 -1 3 35 34 31 49 36 49 16z"/>
<path d="M2530 9237 c0 -8 -11 -19 -25 -25 -33 -15 -65 -69 -65 -108 0 -72 78
-83 145 -20 47 44 49 94 6 137 -31 30 -61 38 -61 16z m56 -62 c16 -42 -48
-112 -93 -103 -53 10 0 118 58 118 17 0 32 -6 35 -15z"/>
<path d="M4380 9228 c0 -19 -18 -67 -57 -155 -3 -7 2 -13 10 -13 8 0 29 24 45
53 46 81 84 105 61 38 -18 -51 1 -55 51 -10 56 51 89 73 96 66 3 -3 -3 -35
-14 -72 -16 -52 -18 -73 -10 -96 13 -37 34 -32 30 7 -2 15 4 58 14 95 9 36 14
74 11 83 -10 25 -50 19 -95 -14 l-42 -30 0 25 c0 27 -18 32 -51 15 -16 -9 -19
-7 -19 10 0 11 -7 20 -15 20 -9 0 -15 -9 -15 -22z"/>
<path d="M10397 9206 c-33 -31 -61 -77 -101 -159 -60 -126 -68 -152 -47 -152
8 0 30 30 49 68 31 58 39 67 63 67 42 0 71 17 100 58 54 78 58 154 7 160 -19
2 -37 -8 -71 -42z m69 -41 c-8 -42 -65 -105 -95 -105 -11 0 -21 6 -21 13 0 21
55 102 86 126 32 25 39 17 30 -34z"/>
<path d="M4115 9218 c-17 -15 -28 -36 -32 -64 -5 -36 -2 -43 22 -62 49 -39
124 -20 155 39 17 30 -11 73 -57 88 -21 7 -43 14 -49 17 -7 3 -24 -5 -39 -18z
m64 -33 c6 3 20 1 31 -5 28 -15 22 -50 -12 -69 -57 -32 -114 23 -72 70 13 14
20 16 30 8 7 -6 18 -8 23 -4z"/>
<path d="M5665 9223 c-58 -18 -80 -32 -67 -45 6 -6 35 -1 72 11 35 12 67 21
72 21 5 0 -14 -28 -42 -62 -75 -93 -61 -147 20 -78 19 17 39 30 46 30 6 0 19
-16 30 -35 10 -19 26 -35 34 -35 19 0 86 64 105 100 18 36 23 82 8 87 -7 3
-16 -13 -23 -37 -6 -23 -27 -59 -47 -81 l-36 -40 -24 36 c-27 39 -54 45 -93
18 -15 -11 -6 5 23 38 59 70 61 89 10 88 -21 -1 -60 -8 -88 -16z"/>
<path d="M8443 9214 c-29 -14 -53 -30 -53 -35 0 -20 28 -19 64 1 20 12 36 19
36 16 0 -3 -18 -33 -40 -68 -22 -34 -39 -66 -37 -72 7 -20 24 -16 63 14 l39
31 8 -31 c14 -56 80 -61 108 -8 11 20 39 113 39 131 0 20 -30 3 -36 -20 -26
-117 -63 -148 -88 -73 -12 35 -16 37 -50 24 -16 -6 -15 -2 8 32 30 44 33 69
10 78 -9 3 -16 6 -17 5 -1 0 -26 -12 -54 -25z"/>
<path d="M8760 9213 c0 -15 -11 -52 -25 -81 -43 -93 -30 -96 63 -12 72 65 88
73 78 38 -21 -70 -19 -94 9 -116 15 -12 38 -22 52 -22 31 0 93 26 93 39 0 14
-10 14 -65 -1 -39 -11 -47 -10 -62 5 -15 15 -15 20 1 78 13 46 14 64 5 75 -13
16 -33 8 -93 -39 -38 -30 -38 -30 -31 -6 14 40 11 63 -7 67 -14 3 -18 -3 -18
-25z"/>
<path d="M8182 9202 c-61 -57 -92 -163 -57 -192 39 -32 126 3 170 68 32 47 32
83 -1 121 -33 40 -71 41 -112 3z m63 -22 c15 12 19 12 31 -5 23 -31 16 -55
-30 -101 -33 -33 -51 -44 -75 -44 -27 0 -31 3 -31 28 0 49 65 146 81 120 6 -9
12 -8 24 2z"/>
<path d="M6027 9162 c-21 -69 -22 -92 -2 -92 8 0 15 8 15 19 0 10 7 35 15 54
18 44 19 77 3 77 -7 0 -21 -26 -31 -58z"/>
<path d="M11443 9175 l-62 -44 15 34 c8 19 14 37 14 40 0 13 -41 3 -74 -20
-34 -23 -36 -23 -36 -5 0 37 -19 20 -46 -39 -14 -33 -35 -68 -45 -77 -21 -19
-25 -44 -8 -44 6 0 41 33 79 73 37 39 71 69 75 65 3 -3 -3 -25 -15 -48 -32
-63 -13 -73 45 -24 26 21 62 52 81 67 l34 29 -25 -54 c-29 -61 -31 -90 -10
-108 23 -19 41 1 25 27 -10 16 -8 28 14 71 28 55 34 102 13 102 -7 0 -41 -20
-74 -45z"/>
<path d="M11643 9188 c-63 -67 -76 -125 -32 -149 23 -12 48 -6 83 22 28 22 35
66 14 87 -7 7 -12 24 -13 39 0 38 -16 38 -52 1z m42 -87 c-7 -22 -46 -38 -65
-26 -7 4 -3 20 12 46 22 39 22 39 41 20 13 -12 17 -26 12 -40z"/>
<path d="M12055 9151 c-45 -95 -19 -147 69 -138 43 4 55 10 88 46 34 36 39 47
36 81 -4 52 -21 52 -29 1 -6 -45 -21 -66 -60 -87 -43 -22 -78 -18 -91 11 -9
21 -7 33 15 76 25 47 27 69 8 69 -4 0 -20 -27 -36 -59z"/>
<path d="M10110 9169 c-60 -50 -78 -120 -40 -154 16 -14 30 -17 72 -12 67 7
115 24 102 37 -6 6 -24 6 -47 -1 -21 -5 -54 -9 -75 -7 -32 3 -37 7 -40 31 -3
23 0 27 23 27 38 0 85 27 85 49 0 54 -35 67 -80 30z m50 -19 c0 -9 -32 -30
-46 -30 -4 0 1 9 11 20 19 21 35 26 35 10z"/>
<path d="M7121 9166 c-12 -14 -51 -117 -51 -133 0 -7 7 -13 14 -13 9 0 22 22
33 56 9 30 25 60 35 65 10 5 18 14 18 18 0 14 -39 20 -49 7z"/>
<path d="M8604 8937 c-27 -29 -68 -91 -92 -138 -41 -84 -43 -85 -97 -104 -33
-11 -55 -24 -55 -33 0 -14 12 -14 67 3 23 7 23 7 8 -29 -20 -46 -20 -86 0 -86
9 0 15 9 15 23 0 12 9 41 20 65 19 41 20 42 70 42 38 0 50 4 50 15 0 11 -11
15 -41 15 -37 0 -40 2 -34 23 12 40 73 141 111 186 35 41 38 42 51 25 12 -16
15 -17 23 -4 12 19 -6 50 -29 50 -11 0 -41 -24 -67 -53z"/>
<path d="M7054 8963 c-21 -62 -89 -210 -102 -220 -9 -7 -30 -13 -46 -13 -46 0
-76 -11 -76 -26 0 -11 13 -12 59 -8 l59 7 -14 -54 c-16 -62 -18 -119 -4 -119
5 0 12 12 16 28 15 70 35 146 38 150 3 2 23 6 45 9 23 3 41 10 41 15 0 5 5 6
10 3 6 -3 10 1 10 9 0 13 -8 14 -45 9 -25 -3 -45 -3 -45 1 0 4 21 52 46 106
25 55 42 104 39 110 -10 16 -25 12 -31 -7z"/>
<path d="M10912 8913 c-11 -27 -25 -65 -31 -85 -16 -49 -27 -56 -91 -60 -41
-2 -55 -7 -55 -18 0 -12 11 -14 54 -11 49 3 53 1 46 -15 -18 -46 -35 -110 -35
-136 0 -47 22 -28 36 31 6 28 19 69 29 91 17 38 20 39 71 42 68 4 75 22 11 26
-55 4 -54 -2 -11 108 28 71 28 74 10 74 -7 0 -23 -21 -34 -47z"/>
<path d="M8085 8883 c-11 -77 -23 -114 -58 -178 -32 -57 -115 -135 -144 -135
-25 0 -13 40 23 80 37 41 59 50 67 28 3 -10 8 -10 16 -2 6 6 9 18 6 27 -21 52
-105 6 -150 -82 -21 -42 -8 -81 28 -81 30 0 105 48 141 91 74 87 136 299 87
299 -5 0 -13 -21 -16 -47z"/>
<path d="M6285 8888 c3 -13 -5 -50 -18 -82 -21 -56 -25 -60 -72 -76 -29 -10
-50 -23 -50 -31 0 -14 6 -14 56 1 l26 8 -27 -74 c-26 -69 -27 -74 -9 -74 12 0
21 10 25 28 4 15 18 51 31 80 23 52 23 52 67 52 72 0 72 31 0 33 -19 1 -34 1
-34 1 0 1 9 25 20 54 26 69 26 102 0 102 -16 0 -19 -5 -15 -22z"/>
<path d="M13290 8885 c0 -11 7 -15 23 -13 12 2 22 8 22 13 0 6 -10 11 -22 13
-16 2 -23 -2 -23 -13z"/>
<path d="M6039 8848 c-11 -47 -10 -49 26 -46 30 2 35 6 33 23 -2 13 -12 21
-30 23 -16 2 -28 2 -29 0z"/>
<path d="M14028 8839 c-42 -16 -45 -44 -9 -94 38 -52 40 -82 7 -96 -19 -9 -31
-8 -57 5 -36 18 -49 14 -33 -12 17 -26 68 -37 103 -22 53 22 57 98 8 139 -10
7 -17 22 -17 32 0 19 14 24 58 20 18 -2 23 2 20 16 -4 21 -40 27 -80 12z"/>
<path d="M12207 8810 c-35 -28 -43 -75 -23 -143 9 -30 16 -62 16 -70 0 -37
-83 -24 -93 14 -7 28 -27 23 -27 -6 0 -18 10 -31 33 -45 39 -24 65 -25 95 -4
26 18 28 49 7 118 -20 65 -19 82 6 107 20 20 41 21 82 4 24 -10 23 21 -2 35
-30 16 -66 12 -94 -10z"/>
<path d="M8742 8807 c-13 -15 1 -42 17 -33 13 9 15 33 2 40 -5 3 -13 0 -19 -7z"/>
<path d="M5139 8779 c-34 -36 -36 -63 -9 -104 29 -43 27 -75 -5 -75 -19 0 -25
5 -25 21 0 12 -5 19 -12 17 -7 -3 -13 -18 -13 -34 0 -24 5 -30 30 -35 36 -7
60 4 76 32 8 17 5 31 -17 75 l-27 54 23 25 c14 15 35 25 52 25 18 0 28 5 28
15 0 11 -11 15 -36 15 -27 0 -43 -7 -65 -31z"/>
<path d="M3637 8779 c-53 -40 -73 -112 -42 -156 29 -42 145 -55 145 -17 0 16
-21 19 -35 5 -12 -11 -74 17 -88 40 -14 23 0 67 30 95 26 24 73 33 73 14 0 -5
7 -10 15 -10 8 0 15 6 15 13 0 40 -68 49 -113 16z"/>
<path d="M4853 8778 c-11 -13 -30 -41 -41 -63 -11 -22 -41 -55 -66 -73 -25
-18 -46 -40 -46 -48 0 -22 19 -17 58 17 34 30 36 31 43 11 4 -12 19 -28 33
-37 28 -19 51 -11 99 33 l27 26 0 -26 c0 -30 31 -61 57 -56 23 4 24 34 1 30
-28 -5 -30 16 -8 90 15 48 18 74 11 81 -7 7 -16 -1 -28 -24 -29 -54 -111 -131
-136 -127 -36 5 -33 48 8 112 32 51 38 76 16 76 -4 0 -17 -10 -28 -22z"/>
<path d="M5342 8776 c-58 -42 -86 -79 -89 -116 -5 -79 58 -111 181 -90 85 14
106 24 90 40 -7 7 -19 8 -35 2 -76 -29 -189 -21 -203 13 -10 26 3 39 67 70 52
25 63 34 65 59 6 49 -27 59 -76 22z m43 -26 c-3 -6 -21 -17 -38 -26 l-32 -17
24 27 c23 25 59 37 46 16z"/>
<path d="M8209 8778 c-107 -64 -147 -151 -94 -203 19 -19 35 -25 70 -25 52 0
85 14 85 35 0 17 -26 20 -35 5 -7 -12 -74 -13 -92 -2 -6 4 -15 20 -18 35 -7
26 -6 28 19 21 19 -5 38 2 76 26 51 33 67 62 56 98 -10 30 -29 33 -67 10z m41
-33 c0 -20 -78 -75 -96 -68 -8 3 -14 7 -12 8 33 30 92 75 99 75 5 0 9 -7 9
-15z"/>
<path d="M13050 8791 c0 -4 -14 -6 -30 -3 -40 6 -80 -21 -80 -54 0 -13 9 -43
21 -65 11 -23 18 -47 15 -55 -7 -19 -70 -18 -86 1 -17 21 -30 19 -30 -5 0 -25
29 -40 78 -40 41 0 72 23 72 54 0 9 -9 34 -20 56 -34 66 -25 80 51 80 40 0 55
22 24 34 -8 3 -15 2 -15 -3z"/>
<path d="M2215 8770 c-4 -6 -2 -16 3 -23 5 -7 12 -52 15 -102 l6 -90 -64 -85
c-92 -121 -124 -195 -89 -207 7 -2 15 12 18 31 6 31 97 170 150 230 12 13 29
39 40 57 104 187 109 199 81 199 -8 0 -15 -6 -15 -12 -1 -7 -20 -46 -44 -86
-38 -65 -44 -71 -49 -50 -4 13 -7 42 -7 66 0 62 -26 103 -45 72z"/>
<path d="M4067 8774 c-3 -4 -2 -14 3 -24 10 -19 -6 -55 -45 -102 -25 -29 -34
-68 -15 -68 5 0 27 24 49 54 36 48 101 110 108 102 2 -2 -4 -22 -12 -46 -19
-54 -19 -101 -1 -126 21 -28 43 -5 25 24 -11 18 -11 30 0 69 33 113 21 148
-36 103 l-28 -22 -14 21 c-14 22 -23 26 -34 15z"/>
<path d="M8884 8760 c-48 -24 -164 -140 -164 -164 0 -9 7 -16 15 -16 8 0 15 4
15 10 0 31 137 150 172 150 17 0 15 -8 -21 -74 -38 -69 -52 -116 -33 -116 5 0
30 43 57 95 40 76 47 99 39 113 -16 25 -34 25 -80 2z"/>
<path d="M10035 8772 c-43 -9 -118 -69 -141 -114 -21 -40 -17 -76 11 -103 19
-20 34 -25 75 -25 44 0 52 3 62 25 14 30 2 47 -16 22 -17 -22 -79 -23 -100 -1
-22 21 -20 45 7 85 36 53 85 82 130 75 27 -5 37 -3 37 7 0 17 -39 35 -65 29z"/>
<path d="M10552 8767 c-60 -22 -63 -55 -11 -115 34 -39 36 -48 10 -62 -29 -15
-68 -12 -75 6 -7 19 -26 9 -26 -16 0 -36 82 -42 124 -9 34 27 33 53 -4 96 -16
18 -30 40 -30 47 0 15 49 36 82 36 28 0 16 25 -13 27 -13 1 -39 -4 -57 -10z"/>
<path d="M12454 8761 c-39 -24 -60 -50 -79 -94 -21 -51 -19 -74 10 -102 27
-28 72 -32 117 -12 40 18 23 41 -18 25 -36 -13 -79 -5 -88 18 -10 26 4 64 24
64 29 0 89 29 98 47 11 21 -1 58 -21 66 -8 3 -27 -3 -43 -12z m36 -35 c0 -12
-49 -37 -69 -36 -8 1 52 50 62 50 4 0 7 -6 7 -14z"/>
<path d="M12751 8764 c-25 -7 -48 -19 -53 -26 -11 -18 0 -49 29 -80 32 -33 27
-62 -10 -66 -16 -2 -34 1 -40 7 -16 12 -39 0 -29 -16 8 -13 55 -33 78 -33 23
0 54 38 54 66 0 14 -11 40 -25 58 -14 18 -25 38 -25 43 0 11 74 33 110 33 33
0 18 25 -16 27 -16 1 -49 -5 -73 -13z"/>
<path d="M13217 8774 c-4 -4 -7 -13 -7 -21 0 -7 -14 -35 -31 -63 -31 -51 -43
-103 -24 -107 6 -1 15 13 21 31 7 18 24 52 38 75 14 22 27 51 29 62 2 22 -13
35 -26 23z"/>
<path d="M2760 8706 c-17 -40 -46 -81 -74 -107 -25 -24 -46 -49 -46 -56 0 -26
29 -12 64 30 23 27 36 36 36 25 0 -20 26 -48 46 -48 8 0 32 16 54 36 38 35 60
38 60 9 0 -17 30 -34 48 -28 18 7 15 33 -4 33 -17 0 -16 23 2 103 10 44 -16
33 -63 -28 -45 -58 -86 -90 -102 -80 -12 7 -4 62 14 90 7 11 16 35 19 53 6 26
4 32 -9 32 -10 0 -26 -23 -45 -64z"/>
<path d="M3853 8750 c-40 -24 -65 -62 -61 -92 3 -20 9 -23 43 -22 22 0 48 4
57 8 14 6 17 2 16 -24 -1 -36 14 -55 37 -47 13 6 13 10 3 26 -10 16 -10 28 1
58 23 62 23 91 1 103 -28 15 -61 12 -97 -10z m81 -18 c10 -17 -25 -52 -64 -63
-46 -14 -56 -9 -41 20 19 35 91 65 105 43z"/>
<path d="M9129 8756 c-37 -19 -97 -85 -115 -124 -28 -64 8 -142 65 -142 33 0
173 64 186 84 18 29 -2 26 -76 -10 -94 -46 -128 -49 -147 -11 -18 38 -7 67 26
67 62 1 167 74 155 108 -14 40 -50 51 -94 28z m50 -52 c-17 -20 -98 -58 -107
-50 -9 10 59 75 82 79 30 5 42 -9 25 -29z"/>
<path d="M2483 8736 c-68 -58 -79 -156 -21 -184 59 -28 153 52 153 129 0 75
-72 105 -132 55z m95 -53 c3 -34 -2 -45 -28 -72 -34 -33 -70 -40 -90 -16 -29
35 40 136 89 131 23 -3 26 -8 29 -43z"/>
<path d="M10212 8748 c-17 -22 -32 -94 -26 -126 8 -39 35 -64 69 -64 59 0 134
85 121 138 -11 40 -36 30 -36 -15 0 -32 -6 -44 -31 -66 -40 -33 -80 -31 -89 5
-9 36 8 110 26 110 8 0 14 7 14 15 0 18 -34 20 -48 3z"/>
<path d="M11008 8712 c-25 -27 -49 -59 -53 -71 -9 -28 17 -69 50 -77 33 -8 92
13 110 39 19 27 20 91 1 106 -8 7 -12 21 -9 31 4 17 0 20 -24 20 -23 0 -41
-11 -75 -48z m92 -52 c0 -29 -22 -54 -56 -64 -58 -18 -72 33 -23 88 29 34 31
35 55 20 16 -11 24 -26 24 -44z"/>
<path d="M11460 8753 c-8 -4 -37 -25 -65 -48 -47 -40 -95 -71 -95 -62 0 3 7
21 15 40 25 61 -3 86 -55 50 -14 -10 -33 -16 -42 -15 -12 2 -20 -8 -28 -35 -6
-21 -17 -47 -25 -57 -19 -25 -19 -46 0 -46 8 0 30 24 48 53 60 93 93 104 57
19 -21 -49 -20 -72 2 -72 10 0 21 8 120 85 63 50 74 54 58 26 -14 -28 -12 -67
4 -80 8 -7 32 -11 53 -9 31 2 39 7 41 26 2 15 -2 22 -12 22 -9 0 -16 -4 -16
-10 0 -16 -40 -12 -46 4 -3 8 2 31 11 50 24 50 14 74 -25 59z"/>
<path d="M13374 8734 c-59 -29 -82 -106 -44 -144 26 -26 54 -25 97 1 111 69
63 200 -53 143z m86 -44 c0 -23 -44 -77 -71 -85 -24 -8 -49 10 -49 35 0 31 38
69 73 72 40 4 47 1 47 -22z"/>
<path d="M13692 8724 c-12 -8 -22 -10 -22 -5 0 6 -6 11 -12 11 -13 -1 -79
-125 -78 -147 0 -25 26 -12 45 23 20 38 88 104 106 104 7 0 9 -9 5 -22 -16
-53 -18 -98 -6 -113 17 -21 30 -9 24 23 -3 15 2 47 10 71 12 33 13 47 5 57
-15 19 -49 18 -77 -2z"/>
<path d="M7100 8706 c-6 -6 -10 -14 -10 -20 0 -5 -7 -18 -17 -28 -25 -28 -19
-79 14 -105 38 -31 62 -29 111 9 70 53 81 123 24 147 -32 13 -108 11 -122 -3z
m127 -42 c7 -20 -25 -64 -66 -88 -30 -18 -33 -18 -51 -1 -46 42 -5 105 67 105
31 0 45 -5 50 -16z"/>
<path d="M6004 8693 c-3 -10 -18 -46 -35 -81 -33 -70 -35 -82 -16 -82 17 0 91
155 82 170 -10 16 -25 12 -31 -7z"/>
<path d="M8652 8635 c-26 -53 -28 -75 -7 -75 8 0 15 7 15 15 0 8 9 29 20 47
23 38 25 58 7 58 -7 0 -23 -20 -35 -45z"/>
</g>
</svg>
