<?xml version="1.0" standalone="no"?>
<!DOCTYPE svg PUBLIC "-//W3C//DTD SVG 20010904//EN"
 "http://www.w3.org/TR/2001/REC-SVG-20010904/DTD/svg10.dtd">
<svg version="1.0" xmlns="http://www.w3.org/2000/svg"
 width="1618.000000pt" height="1214.000000pt" viewBox="0 0 1618.000000 1214.000000"
 preserveAspectRatio="xMidYMid meet">

<g transform="translate(0.000000,1214.000000) scale(0.100000,-0.100000)"
fill="#000000" stroke="none">
<path d="M4836 11731 c-4 -6 -9 -40 -12 -76 -4 -62 -23 -152 -64 -304 -19 -70
-19 -91 -1 -91 5 0 22 26 37 57 33 65 93 133 117 133 22 0 21 -14 -3 -85 -24
-70 -26 -105 -5 -105 8 0 15 7 15 16 0 9 9 47 21 85 26 87 21 119 -21 119 -21
0 -43 -12 -71 -37 -31 -28 -40 -33 -36 -18 10 32 34 156 42 212 4 29 11 55 16
59 5 3 9 10 9 16 0 6 -3 8 -7 5 -3 -4 -11 1 -18 10 -9 12 -14 13 -19 4z"/>
<path d="M4646 11701 c-10 -11 -15 -24 -12 -29 6 -10 -5 -41 -46 -130 -19 -43
-20 -44 -56 -37 -20 4 -47 9 -59 11 -15 3 -23 -1 -23 -10 0 -9 19 -19 54 -27
l53 -12 -14 -46 c-19 -64 -20 -158 -1 -177 22 -23 92 -36 123 -24 35 13 24 27
-23 27 -72 0 -82 8 -82 67 0 29 7 76 15 104 15 48 18 52 40 46 14 -3 32 -3 40
0 24 9 -1 50 -26 43 -10 -3 -19 -2 -19 2 0 11 71 174 81 187 5 6 6 14 2 17
-12 12 -30 7 -47 -12z"/>
<path d="M3305 11638 c-4 -40 -15 -98 -24 -128 l-17 -55 -52 -3 c-37 -2 -52
-7 -52 -18 0 -10 13 -14 46 -14 40 0 45 -2 39 -17 -3 -10 -9 -30 -12 -45 -3
-16 -9 -28 -14 -28 -12 0 -11 -41 0 -59 12 -18 31 -5 32 22 0 12 8 47 17 77
l18 55 49 5 c65 7 73 30 11 30 -25 0 -46 2 -46 4 0 3 4 16 10 30 9 26 13 47
26 159 6 48 4 57 -9 57 -12 0 -17 -17 -22 -72z"/>
<path d="M3508 11705 c-3 -4 -4 -23 -1 -43 6 -46 -26 -184 -67 -291 -17 -44
-31 -84 -31 -88 2 -21 24 -3 53 42 33 50 71 77 121 89 40 10 44 -15 14 -86
-15 -33 -24 -64 -21 -69 13 -21 30 -5 47 44 28 80 31 111 12 130 -21 22 -50
21 -102 -3 -24 -10 -43 -16 -43 -12 0 4 9 36 19 71 29 92 37 171 20 183 -11 8
-10 8 4 4 14 -4 18 -1 15 11 -3 18 -29 29 -40 18z"/>
<path d="M13567 11683 c-4 -3 -7 -13 -7 -21 0 -8 -12 -41 -27 -74 -19 -44 -30
-57 -42 -53 -48 19 -100 17 -139 -5 -79 -44 -114 -169 -63 -224 14 -14 31 -26
39 -26 20 0 12 -15 -61 -121 -36 -52 -67 -103 -69 -113 -5 -31 19 -29 35 3 9
17 45 73 81 125 63 91 68 95 121 111 74 21 135 78 135 126 0 19 -8 50 -18 68
l-18 34 33 79 c31 71 35 98 14 98 -4 0 -11 -3 -14 -7z m-88 -179 c4 -3 -63
-126 -91 -166 -38 -54 -93 -28 -91 42 3 75 56 137 108 128 14 -3 25 -1 25 4 0
8 38 2 49 -8z m55 -62 c6 -21 5 -41 -2 -56 -11 -25 -94 -81 -111 -74 -12 4 81
168 94 164 5 -1 14 -17 19 -34z"/>
<path d="M12364 11653 c-4 -16 -17 -48 -30 -73 -21 -44 -24 -46 -61 -42 -107
9 -185 -136 -114 -212 l21 -22 -46 -78 c-25 -42 -52 -80 -60 -83 -18 -7 -18
-24 0 -48 13 -19 15 -18 28 11 7 17 33 65 58 107 45 76 45 77 88 77 23 0 42 5
42 11 0 5 4 8 9 4 31 -18 121 81 121 132 -1 23 -28 57 -57 72 l-23 12 30 59
c17 33 30 69 30 80 0 30 -29 24 -36 -7z m-125 -244 l-43 -82 -18 23 c-22 27
-23 61 -3 100 15 29 30 37 78 39 l28 1 -42 -81z m128 57 l27 -24 -18 -39 c-11
-26 -31 -48 -56 -62 -36 -20 -95 -29 -88 -13 26 61 86 162 95 162 6 0 24 -11
40 -24z"/>
<path d="M7525 11563 c-25 -32 -45 -61 -45 -65 0 -5 -8 -8 -18 -8 -14 0 -19
-8 -19 -32 0 -18 -6 -54 -13 -79 -10 -38 -10 -51 1 -75 19 -39 80 -69 109 -54
26 14 17 30 -18 30 -33 0 -45 8 -61 38 -10 18 -9 34 4 78 l16 56 72 -4 c88 -4
101 13 20 26 -32 5 -60 10 -62 12 -5 5 49 75 73 95 18 15 16 39 -4 39 -6 0
-30 -26 -55 -57z"/>
<path d="M3027 11586 c-3 -8 -3 -17 0 -20 10 -10 61 -7 68 5 9 13 7 15 -32 22
-21 4 -33 2 -36 -7z"/>
<path d="M13115 11588 c-38 -4 -87 -6 -107 -3 -41 6 -56 -6 -33 -25 11 -9 37
-11 87 -7 l72 6 -55 -33 c-29 -18 -55 -39 -57 -47 -1 -8 11 -21 27 -31 41 -22
65 -62 57 -93 -11 -45 -133 -108 -162 -84 -7 6 -10 17 -7 25 3 8 -1 14 -11 14
-14 0 -14 3 -4 20 15 24 3 39 -17 19 -11 -11 -12 -23 -5 -54 16 -69 52 -80
135 -41 59 27 105 77 105 112 0 33 -25 81 -50 94 -11 6 -20 14 -20 18 0 5 32
26 70 48 42 23 69 45 68 53 -4 19 -11 20 -93 9z"/>
<path d="M14546 11544 c-17 -55 -18 -56 -50 -50 -27 5 -41 0 -80 -30 -74 -56
-87 -120 -38 -176 l29 -31 -54 -104 c-57 -111 -61 -124 -38 -143 19 -16 53 6
35 24 -17 17 -11 37 38 123 47 82 47 83 87 83 46 0 96 27 121 65 22 34 14 96
-18 137 l-25 32 19 49 c18 48 18 77 0 77 -5 0 -16 -25 -26 -56z m-36 -90 c0
-14 -83 -164 -91 -164 -15 0 -39 44 -39 73 0 38 62 97 102 97 15 0 28 -3 28
-6z m49 -37 c18 -22 24 -73 12 -96 -20 -36 -111 -70 -111 -41 0 15 73 150 81
150 4 0 12 -6 18 -13z"/>
<path d="M12550 11571 c0 -23 -26 -85 -81 -196 -41 -83 -53 -135 -32 -142 6
-2 14 10 18 29 4 18 27 71 51 118 70 137 90 210 59 210 -8 0 -15 -9 -15 -19z"/>
<path d="M15050 11570 c-36 -3 -71 -10 -78 -14 -17 -10 -15 -36 7 -77 l19 -36
-33 -12 c-88 -31 -110 -88 -55 -135 63 -52 160 -55 173 -4 5 17 -8 72 -28 120
-5 13 6 23 54 47 72 37 90 72 51 103 -12 10 -27 17 -34 17 -6 -1 -40 -5 -76
-9z m98 -43 c-5 -12 -95 -66 -113 -67 -17 0 -49 61 -37 69 6 4 43 8 82 9 53 1
71 -1 68 -11z m-98 -209 c0 -26 -3 -28 -37 -28 -48 0 -103 33 -103 60 0 15 14
27 53 45 l52 25 17 -38 c10 -20 18 -49 18 -64z"/>
<path d="M7840 11555 c0 -21 27 -30 45 -15 23 19 18 30 -15 30 -20 0 -30 -5
-30 -15z"/>
<path d="M14770 11537 c0 -31 -40 -145 -78 -226 -29 -60 -33 -96 -9 -88 6 2
14 17 19 33 4 16 17 46 28 66 29 51 70 175 70 210 0 18 -5 28 -15 28 -9 0 -15
-9 -15 -23z"/>
<path d="M14117 11503 c-32 -18 -44 -30 -37 -37 7 -7 24 -3 55 12 50 24 95 29
95 10 0 -42 -124 -173 -198 -210 -49 -25 -77 -52 -67 -67 10 -17 19 -14 75 24
60 41 71 42 88 15 19 -31 59 -43 99 -29 35 11 41 36 7 31 -41 -7 -58 -2 -84
23 l-27 26 54 55 c62 63 97 128 82 156 -15 28 -84 23 -142 -9z"/>
<path d="M5132 11469 c-38 -24 -82 -95 -82 -130 0 -55 66 -119 122 -119 25 0
99 36 110 54 15 23 -11 28 -40 7 -17 -12 -44 -24 -61 -27 -26 -5 -36 -1 -66
29 -49 49 -46 63 17 69 60 6 98 40 98 87 0 53 -41 66 -98 30z m68 -23 c0 -24
-34 -56 -67 -62 -43 -8 -42 6 2 45 38 33 65 40 65 17z"/>
<path d="M6354 11479 c-11 -4 -32 -21 -46 -37 l-26 -31 -6 30 c-10 51 -32 35
-34 -25 -1 -30 -10 -81 -22 -112 -24 -68 -24 -74 -7 -74 7 0 37 45 66 101 64
121 90 140 127 94 20 -25 24 -27 30 -12 8 21 -18 63 -43 69 -10 3 -28 2 -39
-3z"/>
<path d="M2646 11445 c-33 -14 -68 -25 -79 -25 -25 0 -16 -24 11 -28 12 -2 42
6 67 17 25 11 45 17 45 14 0 -3 -23 -48 -51 -99 -27 -52 -47 -98 -44 -104 11
-18 36 -11 75 20 44 35 64 37 104 11 49 -33 75 -11 106 88 24 75 25 101 5 101
-9 0 -17 -14 -20 -37 -10 -56 -37 -124 -51 -130 -7 -3 -23 2 -36 11 -31 22
-74 20 -109 -5 -29 -20 -28 -18 21 73 27 52 50 100 50 106 0 18 -29 14 -94
-13z"/>
<path d="M2981 11365 c-22 -79 -23 -115 -4 -115 4 0 16 33 27 73 28 109 30
127 14 127 -8 0 -22 -31 -37 -85z"/>
<path d="M7264 11431 c-18 -11 -35 -24 -39 -30 -3 -6 -11 -9 -16 -6 -5 4 -12
-2 -15 -12 -3 -10 -17 -47 -29 -83 -30 -83 -65 -200 -65 -217 0 -7 6 -13 14
-13 12 0 60 99 80 166 5 16 12 20 35 16 43 -6 113 45 141 103 21 43 21 47 6
70 -20 31 -67 33 -112 6z m86 -35 c0 -30 -42 -81 -83 -103 -28 -14 -31 -14
-44 3 -19 27 -17 33 31 80 51 52 96 61 96 20z"/>
<path d="M7787 11433 c-2 -5 -8 -26 -12 -48 -3 -21 -13 -52 -21 -67 -16 -31
-18 -58 -4 -58 21 0 73 138 63 168 -5 13 -19 16 -26 5z"/>
<path d="M9432 11428 c-7 -7 -12 -16 -12 -21 0 -5 -22 -36 -49 -68 -54 -64
-54 -65 -66 24 -7 50 -21 64 -52 52 -17 -6 -17 -7 0 -20 11 -8 21 -35 27 -69
5 -31 12 -61 15 -66 3 -5 -10 -31 -28 -57 -48 -68 -69 -111 -65 -136 4 -20 6
-19 24 12 42 74 115 179 164 236 61 70 78 101 64 115 -7 7 -14 6 -22 -2z"/>
<path d="M7958 11407 c-31 -25 -68 -85 -68 -108 0 -25 33 -49 68 -49 21 0 43
10 67 31 45 40 47 76 5 119 -35 36 -38 36 -72 7z m60 -39 c19 -19 14 -45 -14
-67 -28 -22 -69 -28 -79 -11 -3 5 -1 20 6 32 28 55 61 72 87 46z"/>
<path d="M6990 11411 c0 -6 -13 -17 -30 -26 -35 -18 -74 -87 -65 -116 28 -86
156 -50 187 52 10 35 9 43 -9 67 -20 27 -83 45 -83 23z m60 -41 c22 -41 -35
-120 -87 -120 -24 0 -43 26 -35 50 7 23 44 60 59 60 8 0 16 7 19 15 8 21 31
19 44 -5z"/>
<path d="M9877 11397 c-24 -36 -137 -146 -158 -152 -22 -7 -26 -35 -5 -35 7 0
36 18 64 40 l50 40 6 -24 c11 -46 64 -40 135 16 l25 19 10 -32 c11 -32 40 -59
51 -47 4 3 -1 18 -10 32 -17 25 -17 40 1 110 10 41 -16 32 -59 -19 -40 -47
-112 -92 -122 -75 -3 5 8 36 25 69 16 33 30 65 30 71 0 19 -27 10 -43 -13z"/>
<path d="M8166 11367 c-9 -24 -28 -54 -41 -67 -27 -25 -33 -50 -12 -50 6 0 26
14 42 31 28 29 121 89 138 89 4 0 -4 -17 -18 -37 -27 -40 -33 -91 -13 -111 18
-18 88 -16 88 3 0 10 -11 15 -35 15 -30 0 -35 3 -35 23 0 12 11 39 25 59 52
76 21 103 -66 58 l-36 -18 5 24 c8 42 -24 27 -42 -19z"/>
<path d="M6016 11391 c-58 -6 -85 -24 -49 -33 10 -3 43 -2 73 2 30 4 70 5 88
2 24 -3 32 -1 32 11 0 27 -21 30 -144 18z"/>
<path d="M9535 11363 c-29 -43 -32 -79 -9 -111 20 -29 41 -28 91 4 41 27 73
70 73 97 0 23 -45 47 -89 47 -35 0 -43 -5 -66 -37z m109 1 c23 -9 20 -27 -11
-56 -43 -40 -74 -53 -84 -37 -14 22 -10 45 12 73 20 25 50 33 83 20z"/>
<path d="M12588 11313 c-32 -16 -35 -28 -11 -37 18 -7 66 31 57 45 -7 11 -13
10 -46 -8z"/>
<path d="M13627 11292 c-29 -18 -32 -45 -6 -50 19 -3 55 46 42 58 -4 5 -20 1
-36 -8z"/>
<path d="M4376 10818 c-3 -18 -7 -85 -10 -148 -2 -63 -10 -133 -16 -154 -25
-84 -110 -126 -145 -72 -13 19 -14 28 -3 52 20 47 49 74 81 74 39 0 30 24 -11
28 -41 4 -85 -37 -103 -97 -11 -38 -10 -44 8 -69 11 -15 32 -33 47 -40 23 -12
32 -11 72 8 74 36 93 88 103 285 4 72 11 138 15 148 6 13 3 17 -12 17 -16 0
-22 -8 -26 -32z"/>
<path d="M9671 10829 c-5 -13 -15 -51 -21 -84 -7 -33 -20 -89 -29 -125 l-16
-65 -69 -5 c-43 -3 -71 -10 -74 -17 -3 -10 15 -13 67 -13 l71 0 -6 -27 c-4
-16 -15 -57 -25 -93 -17 -60 -13 -90 8 -77 5 3 20 51 33 106 l24 101 47 0 c52
0 79 7 79 21 0 5 -27 9 -61 9 -53 0 -60 2 -56 18 36 127 59 254 49 264 -8 8
-14 5 -21 -13z"/>
<path d="M13074 10824 c-43 -21 -90 -105 -112 -199 l-19 -80 -66 0 c-36 0 -68
-3 -72 -7 -12 -11 42 -28 90 -28 l43 0 -24 -77 c-13 -43 -31 -83 -39 -89 -21
-16 -19 -34 4 -34 13 0 26 15 40 43 12 24 21 47 21 51 0 4 7 32 16 61 l15 54
50 3 c64 4 68 22 5 26 l-48 3 6 34 c23 119 76 215 120 215 14 0 28 -4 31 -10
8 -13 45 -13 45 0 0 9 -58 50 -70 50 -3 0 -19 -7 -36 -16z"/>
<path d="M4825 10789 c-49 -45 -69 -89 -93 -205 l-17 -79 -45 -5 c-56 -6 -55
-24 3 -28 l43 -3 -1 -52 c0 -40 4 -52 15 -52 10 0 15 10 16 30 1 88 -1 85 53
85 42 0 49 3 55 23 9 33 8 37 -9 37 -8 0 -15 -7 -15 -15 0 -11 -11 -15 -41
-15 -46 0 -43 -13 -19 111 12 63 56 139 94 164 18 12 36 15 61 11 35 -7 46 3
23 21 -7 5 -28 10 -46 11 -25 2 -42 -6 -77 -39z"/>
<path d="M8977 10814 c-42 -23 -76 -87 -103 -192 -13 -53 -25 -96 -27 -97 -1
-1 -15 -7 -31 -12 -45 -14 -48 -37 -4 -29 l35 6 -9 -56 c-5 -30 -10 -61 -11
-67 -1 -6 5 -12 14 -14 13 -3 18 7 23 44 15 107 12 103 65 103 47 0 100 25 84
41 -4 4 -26 4 -48 -1 -68 -16 -84 -13 -78 13 22 101 49 171 81 208 34 39 38
41 79 36 37 -4 44 -2 41 12 -4 22 -74 26 -111 5z"/>
<path d="M6213 10808 c-4 -7 -6 -38 -4 -68 1 -31 -7 -107 -19 -169 -36 -193
-16 -233 49 -96 31 66 45 86 58 83 25 -5 32 -97 8 -111 -13 -7 -14 -12 -4 -23
30 -37 49 -6 49 83 0 57 -17 83 -54 83 -25 0 -45 -19 -69 -65 -20 -37 -20 -19
-2 65 8 36 14 100 15 142 0 74 -10 102 -27 76z"/>
<path d="M6035 10778 c-2 -7 -11 -38 -21 -68 -23 -75 -27 -78 -79 -72 -36 4
-45 2 -45 -11 0 -11 14 -18 46 -23 36 -5 44 -10 39 -23 -4 -9 -11 -41 -16 -71
-12 -73 3 -125 41 -145 33 -17 102 -20 131 -5 36 20 20 30 -36 24 -81 -10
-105 9 -105 82 0 30 5 75 11 99 10 41 14 44 48 47 28 2 36 7 36 23 0 15 -7 20
-28 20 -15 -1 -27 0 -27 1 0 0 9 27 20 59 11 31 17 61 14 66 -8 13 -24 11 -29
-3z"/>
<path d="M11286 10771 c-13 -14 -14 -21 -5 -26 17 -11 5 -79 -36 -210 -37
-119 -46 -176 -30 -182 6 -2 29 63 53 149 58 212 64 245 52 268 -13 24 -13 24
-34 1z"/>
<path d="M13689 10783 c-1 -5 -3 -19 -4 -33 -8 -58 -54 -195 -66 -197 -68 -9
-89 -16 -89 -28 0 -19 17 -28 33 -18 18 12 57 11 57 -2 0 -5 -9 -39 -20 -75
-24 -78 -24 -80 -5 -80 9 0 21 25 35 73 12 39 23 78 25 85 3 8 18 12 41 10 49
-4 57 19 10 28 -43 8 -44 13 -11 117 29 90 32 127 10 127 -8 0 -16 -3 -16 -7z"/>
<path d="M11689 10778 c0 -2 -2 -23 -4 -48 -2 -25 -29 -120 -59 -211 -31 -92
-56 -170 -56 -174 0 -4 9 -5 20 -2 12 3 35 1 52 -4 24 -6 41 -4 72 10 54 24
82 56 96 109 9 37 9 48 -5 68 -8 13 -22 24 -31 24 -19 0 -60 -25 -103 -64 -27
-24 -32 -27 -27 -11 41 112 67 211 61 233 -4 15 -1 28 6 33 13 8 5 39 -11 39
-5 0 -10 -1 -11 -2z m91 -296 c-1 -37 -20 -69 -56 -93 -31 -20 -94 -26 -94 -8
0 31 122 145 143 132 4 -2 7 -16 7 -31z"/>
<path d="M12214 10736 c3 -14 -10 -71 -35 -147 -22 -68 -41 -142 -42 -163 -3
-55 19 -58 28 -4 4 24 25 98 47 166 41 124 44 172 12 172 -12 0 -15 -6 -10
-24z"/>
<path d="M9827 10743 c-4 -3 -7 -22 -7 -40 0 -62 -30 -180 -71 -278 -31 -73
-38 -100 -29 -109 8 -8 14 -7 21 5 5 10 28 45 51 80 45 66 84 97 110 86 14 -5
14 -14 -4 -87 -20 -79 -19 -105 3 -83 19 19 49 164 39 184 -16 29 -46 32 -91
9 -36 -19 -41 -20 -35 -5 17 44 18 68 5 76 -11 7 -10 9 4 9 9 0 17 8 18 18 1
16 2 31 13 110 5 30 -9 43 -27 25z"/>
<path d="M4572 10718 c-8 -8 -9 -15 -1 -25 15 -17 39 -17 39 1 0 22 -24 38
-38 24z"/>
<path d="M4004 10635 c-7 -17 21 -55 42 -55 19 0 44 -41 44 -71 0 -52 -89 -92
-120 -54 -7 8 -10 25 -7 37 19 75 19 78 6 73 -19 -7 -39 -52 -39 -86 0 -44 30
-72 76 -72 74 0 131 64 113 125 -10 36 -21 50 -71 89 -32 26 -39 28 -44 14z"/>
<path d="M1915 10630 c-62 -25 -104 -118 -80 -175 11 -29 21 -35 67 -45 30 -7
62 -11 71 -9 37 8 20 24 -34 35 -31 6 -61 14 -68 18 -17 11 -13 78 5 105 17
24 82 57 92 47 8 -9 33 15 26 25 -6 11 -52 11 -79 -1z"/>
<path d="M2207 10599 c-42 -24 -61 -113 -31 -143 19 -20 27 -20 64 -1 28 14
30 14 30 -3 0 -19 18 -42 33 -42 6 0 7 19 4 44 -4 24 -2 58 3 75 10 36 -7 55
-24 26 -25 -41 -59 -75 -77 -75 -28 0 -24 43 7 77 14 15 23 23 20 17 -9 -18
21 -25 34 -8 10 11 10 17 0 29 -14 17 -37 19 -63 4z"/>
<path d="M3532 10522 c-28 -96 -29 -104 -17 -108 6 -2 19 12 29 31 22 39 78
99 92 96 5 -1 9 -20 9 -44 0 -62 23 -59 79 13 26 33 52 57 58 54 6 -4 8 -35 6
-73 -3 -60 -1 -66 17 -66 12 0 19 6 17 14 -1 7 -3 39 -3 70 -2 110 -44 123
-108 32 l-24 -34 -11 34 c-13 41 -39 48 -75 21 l-27 -20 4 29 c3 20 0 29 -9
29 -9 0 -23 -30 -37 -78z"/>
<path d="M14567 10580 c-15 -12 -27 -30 -27 -40 0 -11 27 -45 60 -77 93 -88
69 -129 -46 -83 -83 34 -90 5 -7 -31 84 -36 143 -17 143 45 0 20 -15 41 -55
80 -56 53 -67 79 -39 90 28 11 62 6 68 -9 9 -26 27 -16 24 13 -3 24 -7 27 -49
30 -34 2 -52 -2 -72 -18z"/>
<path d="M2470 10562 c-26 -26 -29 -27 -33 -10 -9 34 -24 19 -39 -39 -8 -32
-18 -66 -23 -75 -5 -14 -2 -18 14 -18 12 0 21 4 21 9 0 4 16 29 36 55 19 25
32 51 28 58 -4 7 -3 8 5 4 6 -4 18 -2 26 4 38 31 56 -16 35 -90 -7 -23 -6 -38
1 -45 7 -7 8 -5 3 8 -4 13 -2 16 8 12 11 -5 17 4 21 32 10 58 8 98 -5 111 -22
22 -68 14 -98 -16z"/>
<path d="M6503 10573 c-40 -22 -83 -79 -83 -110 0 -51 30 -101 74 -123 46 -22
115 -26 147 -10 35 19 21 31 -30 24 -82 -11 -141 19 -155 78 -6 26 -4 27 41
33 62 9 93 29 93 60 0 23 -31 65 -48 65 -4 0 -22 -8 -39 -17z m48 -56 c-12
-15 -81 -28 -81 -16 0 4 14 19 32 34 28 23 33 25 46 11 12 -12 13 -18 3 -29z"/>
<path d="M14249 10523 c-66 -65 -74 -95 -36 -131 31 -29 122 -47 160 -33 16 6
25 15 22 21 -10 16 -33 12 -38 -7 -4 -17 -5 -17 -6 0 -1 13 -10 17 -38 17 -40
0 -84 18 -90 35 -2 6 25 20 59 30 72 23 105 58 94 99 -5 21 -12 26 -37 26 -25
0 -44 -12 -90 -57z m91 6 c0 -13 -11 -25 -35 -35 -55 -23 -63 -16 -23 21 43
40 58 44 58 14z"/>
<path d="M5062 10401 c-108 -163 -157 -253 -145 -265 13 -13 23 -4 46 47 13
28 72 123 130 210 59 87 107 163 107 168 0 34 -41 -13 -138 -160z"/>
<path d="M10889 10537 c-59 -44 -85 -90 -71 -122 23 -50 101 -40 147 19 l25
31 -1 -60 c-2 -87 -11 -119 -34 -123 -76 -12 -105 -52 -105 -145 0 -100 41
-162 80 -121 23 25 57 120 66 183 l7 51 41 0 c23 0 51 -7 62 -15 24 -18 34
-19 34 -1 0 24 -42 46 -87 46 l-42 0 6 98 c8 127 1 163 -34 180 -39 17 -47 16
-94 -21z m74 -19 c7 -27 -4 -49 -44 -82 -36 -31 -63 -30 -67 0 -2 14 12 34 42
62 52 48 61 51 69 20z m3 -310 c-9 -59 -46 -168 -56 -168 -18 0 -30 40 -30
100 0 51 4 65 25 85 13 14 34 25 46 25 20 0 21 -4 15 -42z"/>
<path d="M13342 10540 c-50 -36 -75 -71 -66 -94 9 -25 53 -31 100 -14 39 14
42 13 53 -5 18 -27 37 -7 22 22 -8 15 -9 27 -1 40 14 27 13 51 -4 51 -8 0 -16
7 -20 15 -9 23 -39 18 -84 -15z m78 -42 c0 -12 -44 -37 -78 -44 -47 -10 -42
19 10 56 40 29 43 30 55 14 7 -10 13 -21 13 -26z"/>
<path d="M4506 10529 c-21 -42 -22 -119 -1 -119 11 0 15 11 15 39 0 22 5 52
10 67 16 41 -4 52 -24 13z"/>
<path d="M8605 10536 c-81 -81 -5 -203 94 -150 48 26 77 77 62 110 -6 13 -23
29 -38 35 -16 6 -36 15 -45 20 -28 15 -47 11 -73 -15z m73 -32 c67 22 70 -66
3 -93 -57 -24 -101 32 -66 85 13 20 19 23 30 14 8 -6 23 -9 33 -6z"/>
<path d="M13153 10531 c-48 -35 -63 -58 -63 -98 0 -50 33 -73 102 -73 53 0 78
14 60 32 -9 9 -15 8 -27 -8 -8 -10 -15 -14 -15 -6 0 6 -12 12 -26 12 -32 0
-64 17 -64 34 0 8 17 16 41 20 52 8 91 46 87 84 -4 40 -43 41 -95 3z m67 -9
c0 -13 -32 -39 -57 -46 -33 -10 -28 5 10 32 34 23 47 27 47 14z"/>
<path d="M14050 10523 c-36 -40 -67 -139 -49 -157 13 -15 24 0 54 79 16 39 33
74 39 78 6 4 30 5 54 2 45 -7 57 6 23 25 -42 22 -85 12 -121 -27z"/>
<path d="M10023 10505 c-67 -70 -58 -131 24 -174 31 -16 137 -14 178 3 42 18
48 42 8 31 -16 -3 -57 -9 -93 -11 -54 -4 -71 -1 -97 15 -36 23 -45 61 -15 61
74 0 121 42 108 94 -5 21 -12 26 -38 26 -24 0 -41 -10 -75 -45z m87 1 c0 -18
-18 -32 -52 -40 -35 -8 -35 -3 -1 29 31 28 53 33 53 11z"/>
<path d="M11907 10523 c-41 -32 -62 -72 -52 -102 8 -25 38 -35 64 -22 27 15
28 15 40 -20 13 -39 35 -29 27 13 -4 19 1 43 14 68 24 46 25 60 6 60 -7 0 -19
7 -26 15 -18 21 -32 19 -73 -12z m58 -27 c12 -11 11 -17 -8 -34 -12 -11 -32
-25 -45 -31 -19 -10 -23 -9 -29 5 -4 12 4 26 25 46 37 32 39 33 57 14z"/>
<path d="M7335 10518 c-30 -27 -54 -89 -47 -124 6 -35 47 -50 78 -29 21 14 23
13 26 -8 5 -36 23 -25 25 16 1 20 9 47 18 59 17 25 20 58 5 58 -5 0 -7 6 -4
14 6 16 -24 36 -55 36 -11 0 -32 -10 -46 -22z m73 -16 c27 -18 -32 -112 -70
-112 -35 0 -15 84 26 112 14 10 28 10 44 0z"/>
<path d="M7866 10525 c-8 -9 -27 -37 -41 -63 -19 -34 -32 -47 -49 -48 -24 -2
-46 28 -46 61 0 8 -7 15 -16 15 -13 0 -15 -7 -10 -32 8 -42 39 -83 60 -82 21
2 21 4 -13 -58 -52 -94 -72 -155 -61 -183 13 -34 30 -23 30 20 0 37 123 293
165 343 31 38 15 61 -19 27z"/>
<path d="M4900 10507 c0 -8 6 -17 14 -20 7 -3 19 -27 25 -53 16 -63 40 -109
52 -97 5 5 -2 43 -19 93 -22 70 -31 86 -49 88 -15 2 -23 -2 -23 -11z"/>
<path d="M7553 10505 c-25 -17 -83 -103 -83 -122 0 -27 30 -11 50 27 11 21 29
48 41 59 12 11 18 25 14 31 -4 7 5 4 20 -6 28 -18 28 -20 9 -116 -4 -21 -2
-28 9 -28 18 0 24 15 33 78 8 62 -7 92 -44 92 -15 0 -37 -7 -49 -15z"/>
<path d="M11340 10488 c-27 -44 -26 -84 1 -99 28 -14 106 -6 126 14 42 42 -5
117 -73 117 -28 0 -38 -6 -54 -32z m91 -8 c42 -23 12 -70 -46 -70 -33 0 -42
23 -21 55 18 27 36 31 67 15z"/>
<path d="M13770 10484 c-24 -62 7 -114 69 -114 37 0 91 46 91 77 0 35 -12 63
-27 63 -12 0 -14 -8 -9 -35 8 -40 -19 -75 -58 -75 -37 0 -52 25 -38 62 6 17 9
35 6 39 -10 16 -24 9 -34 -17z"/>
<path d="M2006 10451 c-8 -12 3 -41 15 -41 5 0 9 7 9 15 0 8 0 18 1 22 1 12
-19 15 -25 4z"/>
<path d="M14925 10380 c-4 -6 -2 -17 4 -24 16 -20 5 -41 -45 -81 -47 -39 -55
-55 -25 -55 24 0 111 93 111 119 0 43 -28 69 -45 41z"/>
<path d="M6228 10313 c-9 -10 -43 -60 -77 -111 -56 -86 -81 -143 -81 -184 0
-21 -59 -58 -94 -58 -17 0 -26 -5 -26 -15 0 -26 27 -28 74 -6 l43 22 36 -36
c30 -30 42 -35 80 -35 54 0 77 8 77 25 0 10 -13 12 -54 8 -49 -5 -57 -3 -80
20 -25 25 -35 57 -18 57 14 0 108 123 136 176 31 61 40 97 32 129 -7 29 -27
32 -48 8z m13 -70 c-10 -37 -98 -174 -121 -188 -20 -12 -10 22 23 76 50 82
102 158 105 154 2 -2 -1 -21 -7 -42z"/>
<path d="M3783 10247 c-10 -13 -27 -42 -37 -65 -16 -34 -23 -41 -58 -46 -48
-8 -47 -32 1 -28 31 2 32 2 25 -32 -17 -94 72 -176 147 -136 32 17 23 33 -15
26 -69 -13 -115 37 -102 110 7 33 9 35 34 29 44 -12 57 -11 57 4 0 8 -17 19
-37 25 l-38 11 22 42 c12 23 26 41 32 40 15 -3 14 35 0 40 -7 2 -20 -7 -31
-20z"/>
<path d="M4070 10210 c0 -24 26 -38 42 -22 8 8 8 15 -2 27 -18 21 -40 19 -40
-5z"/>
<path d="M8883 10199 c-6 -6 -9 -17 -7 -23 3 -7 0 -25 -6 -40 -10 -26 -12 -27
-59 -21 -33 4 -52 2 -56 -6 -11 -16 14 -29 58 -29 l37 0 0 -76 c0 -56 3 -75
13 -72 7 3 14 31 17 74 5 66 6 69 33 72 31 4 36 21 8 29 -17 4 -19 11 -14 54
6 48 -2 60 -24 38z"/>
<path d="M2100 10152 c-22 -11 -42 -33 -57 -64 -21 -41 -22 -53 -13 -87 5 -21
17 -44 26 -52 18 -15 125 -19 121 -4 -1 6 -6 10 -12 11 -64 3 -131 40 -95 52
29 9 100 92 100 117 0 36 -30 48 -70 27z m40 -30 c0 -12 -58 -72 -69 -72 -14
0 -2 30 22 58 20 21 47 30 47 14z"/>
<path d="M4201 10103 c-17 -21 -31 -42 -31 -47 0 -5 -6 -17 -14 -25 -18 -20
-25 -92 -10 -98 7 -2 22 24 35 61 13 36 32 76 42 88 l18 23 -6 -40 c-3 -22 -8
-52 -11 -67 -9 -47 20 -33 60 27 40 61 65 71 68 28 1 -16 2 -35 4 -43 1 -8 2
-27 3 -42 1 -19 6 -28 17 -28 14 0 16 10 12 70 -3 38 -11 77 -18 85 -18 21
-50 19 -77 -7 l-23 -21 0 24 c0 24 -16 49 -31 49 -4 0 -21 -17 -38 -37z"/>
<path d="M4509 10091 c-34 -34 -39 -44 -39 -85 0 -60 13 -84 55 -102 45 -18
105 -19 105 0 0 9 -16 15 -45 19 -50 5 -85 30 -85 59 0 14 8 18 35 18 65 0
110 74 69 114 -25 26 -54 19 -95 -23z m81 -15 c-1 -28 -57 -60 -80 -46 -19 12
42 72 64 64 9 -3 16 -11 16 -18z"/>
<path d="M5033 10105 c-48 -21 -52 -55 -14 -116 17 -28 31 -55 31 -60 0 -14
-31 -10 -77 11 -27 12 -45 15 -49 9 -14 -24 85 -66 129 -55 40 10 40 33 1 97
-31 50 -35 61 -23 75 10 12 23 14 51 10 30 -5 38 -3 38 9 0 12 -40 37 -53 35
-1 -1 -16 -7 -34 -15z"/>
<path d="M2460 10097 c-35 -18 -49 -71 -25 -97 11 -12 25 -18 36 -15 10 3 27
8 38 10 12 2 26 7 31 10 14 9 18 -7 28 -101 l8 -82 -46 -5 c-60 -7 -130 -36
-130 -53 0 -42 57 -100 109 -110 24 -5 35 -1 55 21 43 46 50 114 30 273 -9 75
-20 140 -23 143 -13 15 -87 19 -111 6z m78 -32 c9 -8 -14 -36 -34 -41 -13 -3
-24 -11 -24 -16 0 -6 -6 -5 -15 2 -20 17 -19 26 6 51 17 17 49 19 67 4z m29
-311 c-7 -40 -32 -74 -55 -74 -17 0 -87 68 -78 77 7 8 95 31 120 32 16 1 18
-4 13 -35z"/>
<path d="M4734 10065 l-46 -45 9 -61 c4 -35 14 -64 20 -67 17 -5 33 39 33 88
0 75 30 112 60 75 15 -19 33 -6 25 17 -3 8 -17 20 -31 27 -23 10 -29 7 -70
-34z"/>
<path d="M8533 10094 c-43 -21 -78 -92 -66 -131 13 -39 48 -54 117 -51 43 2
62 8 70 20 13 21 0 36 -16 20 -15 -15 -92 -16 -119 -2 -10 6 -19 19 -19 30 0
15 12 21 55 30 30 6 64 19 77 29 20 16 21 22 10 45 -14 31 -58 35 -109 10z
m77 -23 c0 -10 -53 -31 -77 -31 -8 0 -11 5 -8 11 14 22 85 39 85 20z"/>
<path d="M4046 10088 c-22 -75 -27 -127 -17 -147 16 -29 31 -18 30 22 -1 18 4
52 9 76 6 25 9 49 6 53 -8 12 -24 10 -28 -4z"/>
<path d="M6367 10077 c-22 -22 -8 -48 15 -30 7 6 20 11 28 11 8 0 25 4 37 7
18 6 23 2 29 -19 9 -37 -1 -69 -32 -99 -30 -30 -65 -35 -85 -11 -10 12 -10 22
0 50 12 32 9 54 -8 54 -4 0 -14 -18 -21 -39 -27 -81 28 -138 99 -104 69 35
103 127 65 181 -13 18 -23 22 -62 20 -29 -2 -54 -10 -65 -21z"/>
<path d="M7365 10076 c-19 -29 -38 -137 -26 -149 13 -13 27 19 35 75 8 55 28
77 51 58 22 -19 44 3 25 25 -20 24 -67 19 -85 -9z"/>
<path d="M7628 10088 c-27 -22 -26 -41 4 -101 16 -33 28 -70 26 -85 -3 -23 -8
-27 -41 -30 -43 -4 -80 20 -75 47 3 22 -10 41 -28 41 -12 0 -14 -7 -8 -32 10
-50 33 -77 71 -87 103 -29 143 40 87 150 -14 28 -23 57 -20 65 10 26 45 15 68
-21 22 -34 48 -47 48 -24 0 12 -39 70 -55 81 -16 12 -60 9 -77 -4z"/>
<path d="M9011 10078 c-13 -7 -32 -24 -42 -38 -49 -69 -24 -111 68 -118 59 -4
109 10 98 28 -3 5 -29 6 -58 3 -94 -10 -126 31 -65 82 26 22 39 26 71 22 32
-4 38 -2 35 11 -4 22 -73 27 -107 10z"/>
<path d="M7163 10064 c-6 -3 -23 -21 -38 -40 -24 -31 -25 -38 -15 -69 14 -42
52 -65 104 -63 46 2 42 22 -5 26 -33 3 -69 26 -69 43 0 5 11 11 24 15 34 8 58
38 54 66 -3 23 -29 33 -55 22z m15 -44 c-7 -11 -17 -20 -22 -20 -5 0 -1 9 9
20 10 11 20 20 22 20 2 0 -2 -9 -9 -20z"/>
<path d="M6925 10052 c-11 -2 -35 -15 -53 -29 -28 -21 -33 -30 -30 -61 3 -35
5 -37 42 -40 29 -3 44 2 61 18 l24 22 5 -33 c18 -107 26 -169 26 -212 l0 -48
-37 7 c-63 12 -95 9 -109 -11 -30 -41 -6 -122 43 -144 62 -28 133 71 133 186
0 61 -23 241 -38 298 -9 33 -38 54 -67 47z m25 -45 c0 -25 -31 -57 -56 -57
-34 0 -32 35 4 54 34 19 52 20 52 3z m22 -371 c17 -12 17 -15 -5 -47 -28 -42
-59 -48 -81 -17 -16 23 -21 60 -9 71 11 12 77 7 95 -7z"/>
<path d="M6624 10006 c-19 -19 -34 -41 -34 -49 0 -26 51 -59 83 -54 l28 4 -7
-96 c-4 -53 -8 -98 -10 -100 -2 -3 -28 -3 -58 -2 -38 1 -58 -3 -70 -14 -19
-20 -19 -22 -5 -66 28 -82 81 -94 129 -27 16 22 30 48 30 56 0 10 6 12 18 7
40 -17 52 -17 52 -2 0 8 -14 20 -31 27 l-31 13 8 111 c5 61 9 136 9 166 l0 55
-39 2 c-32 2 -44 -3 -72 -31z m76 -31 c0 -29 -24 -48 -50 -40 -26 8 -26 40 1
59 27 19 49 10 49 -19z m-23 -308 c10 -11 -39 -77 -57 -77 -23 0 -40 28 -40
66 0 26 1 26 45 21 26 -2 49 -7 52 -10z"/>
<path d="M2260 9960 c0 -11 7 -20 15 -20 8 0 15 9 15 20 0 11 -7 20 -15 20 -8
0 -15 -9 -15 -20z"/>
<path d="M2740 9955 c-7 -8 -10 -18 -8 -21 10 -9 59 8 55 20 -6 18 -33 18 -47
1z"/>
<path d="M5285 9920 c-3 -5 -4 -14 0 -20 16 -25 -58 -134 -102 -151 -25 -9
-27 -29 -4 -37 6 -2 36 20 65 49 53 53 85 121 72 155 -6 16 -22 18 -31 4z"/>
<path d="M9273 9893 c-7 -2 -13 -11 -13 -20 0 -20 34 -12 38 10 3 17 -3 20
-25 10z"/>
<path d="M4307 9494 c-4 -4 -7 -31 -7 -61 0 -47 -3 -55 -23 -62 -24 -9 -87
-75 -87 -91 0 -24 16 -43 53 -61 l40 -21 -7 -81 c-3 -45 -6 -97 -6 -114 0 -36
-12 -41 -54 -22 -26 12 -62 81 -52 98 4 6 4 16 1 21 -12 20 -35 -11 -35 -47 0
-43 52 -100 99 -109 l31 -6 1 -97 c1 -53 1 -111 0 -128 -1 -24 3 -33 14 -33
18 0 18 -2 19 140 l1 114 41 8 c58 12 84 44 90 109 7 68 -16 116 -68 144 -37
19 -38 22 -38 75 0 30 4 61 9 68 12 20 79 5 86 -19 9 -28 39 -25 31 4 -3 12
-6 25 -6 28 0 11 -51 29 -81 29 l-30 0 2 57 c3 52 -7 74 -24 57z m-17 -209 l0
-56 -29 16 c-17 8 -32 19 -35 24 -7 10 41 71 55 71 5 0 9 -25 9 -55z m72 -134
c30 -27 33 -34 32 -86 -1 -64 -13 -81 -63 -91 l-34 -7 6 78 c4 43 7 91 7 107
0 36 11 35 52 -1z"/>
<path d="M13730 9454 c-23 -53 -23 -79 0 -79 8 0 14 6 12 14 -1 7 4 23 12 35
19 30 24 68 9 73 -6 2 -21 -17 -33 -43z"/>
<path d="M13815 9478 c-11 -30 -10 -101 2 -105 11 -4 20 25 26 86 2 26 -20 41
-28 19z"/>
<path d="M7816 9368 c-35 -64 -45 -102 -27 -112 10 -7 33 18 25 27 -3 3 9 33
27 66 25 45 30 64 22 72 -8 8 -20 -6 -47 -53z"/>
<path d="M7909 9392 c-44 -47 -71 -92 -65 -107 8 -22 25 -18 35 8 5 12 23 39
40 61 17 21 31 42 31 47 0 20 -18 16 -41 -9z"/>
<path d="M14507 9404 c-3 -3 -25 -46 -48 -95 l-42 -89 -68 0 c-67 0 -95 -13
-68 -31 8 -5 38 -7 67 -4 28 3 52 4 52 3 0 -2 -9 -27 -20 -56 -35 -91 -24
-135 39 -152 46 -12 116 0 116 19 0 10 -18 14 -64 15 -87 1 -93 13 -62 106
l24 70 59 0 c51 0 59 2 56 18 -3 14 -12 16 -51 14 l-47 -4 42 87 c26 55 38 89
31 96 -5 5 -12 7 -16 3z"/>
<path d="M15050 9326 l-22 -84 -47 -7 c-56 -8 -80 -20 -66 -34 7 -7 25 -7 54
0 24 5 46 7 49 4 4 -3 -2 -38 -12 -76 -13 -50 -15 -74 -7 -82 13 -13 28 22 45
108 l13 60 58 10 c33 6 60 16 63 24 4 11 -7 13 -56 9 l-60 -6 19 70 c18 65 18
88 0 88 -5 0 -18 -38 -31 -84z"/>
<path d="M13357 9393 c-14 -14 -6 -33 13 -33 26 0 104 -79 132 -134 32 -61 30
-169 -4 -227 -31 -52 -69 -89 -94 -93 -24 -4 -25 -30 -2 -34 22 -4 93 61 125
115 22 38 26 57 27 126 0 99 -14 134 -88 211 -60 63 -94 85 -109 69z"/>
<path d="M12872 9359 c-136 -68 -174 -241 -79 -363 29 -36 92 -74 105 -62 3 3
-1 6 -8 6 -7 0 -10 3 -7 7 4 3 -7 16 -23 28 -88 65 -113 171 -64 271 21 43 86
93 125 98 32 3 51 15 44 27 -10 15 -47 10 -93 -12z"/>
<path d="M5555 9267 l7 -105 -26 5 c-36 7 -81 -13 -112 -50 -21 -25 -25 -38
-20 -65 10 -67 62 -90 126 -57 56 29 70 96 58 280 -5 74 -9 91 -23 93 -16 4
-16 -5 -10 -101z m-11 -133 c20 -8 20 -37 1 -74 -28 -55 -89 -68 -106 -24 -13
36 -3 62 34 85 34 20 46 23 71 13z"/>
<path d="M11860 9345 c0 -14 -12 -69 -26 -122 -23 -90 -35 -225 -21 -239 16
-16 27 14 27 74 0 40 10 105 25 160 29 108 32 152 10 152 -9 0 -15 -9 -15 -25z"/>
<path d="M15787 9316 c-65 -27 -87 -43 -87 -61 0 -18 31 -28 44 -14 8 9 7 10
-3 4 -10 -6 -12 -4 -6 4 11 19 85 51 117 51 38 0 48 -36 17 -58 -13 -9 -46
-35 -74 -57 -27 -23 -76 -56 -108 -74 -63 -36 -97 -67 -97 -88 0 -20 27 -15
43 8 15 20 76 48 109 49 9 0 25 -11 36 -25 22 -27 55 -32 97 -13 30 14 35 43
5 34 -11 -3 -28 -8 -37 -11 -11 -3 -32 7 -51 24 l-33 28 78 60 c68 51 78 63
81 94 2 29 -2 37 -27 52 -36 21 -34 21 -104 -7z"/>
<path d="M15488 9289 c-10 -5 -18 -16 -18 -23 0 -12 -98 -103 -152 -140 -36
-26 -12 -38 59 -30 l65 7 -8 -24 c-13 -36 -11 -92 4 -96 7 -3 12 6 13 24 0 15
6 44 13 63 11 30 17 35 39 32 33 -4 38 23 6 33 -14 5 -18 12 -13 23 41 98 44
113 30 128 -17 16 -16 16 -38 3z m-15 -101 c-20 -51 -28 -58 -68 -58 -30 1
-30 1 25 50 30 27 56 50 57 50 2 0 -5 -19 -14 -42z"/>
<path d="M12020 9270 c0 -13 7 -20 18 -20 26 0 34 11 21 27 -17 20 -39 16 -39
-7z"/>
<path d="M13194 9276 c-3 -7 -32 -33 -64 -56 -33 -24 -57 -47 -54 -51 9 -15
25 -10 65 22 l38 30 -20 -58 c-11 -32 -17 -68 -14 -80 4 -19 0 -23 -30 -29
-20 -3 -54 -2 -77 4 -42 11 -58 9 -58 -8 0 -20 82 -31 182 -25 116 7 132 11
123 25 -3 5 -31 10 -62 10 l-56 0 6 34 c3 18 17 62 31 98 14 36 26 72 26 81 0
20 -28 23 -36 3z"/>
<path d="M6973 9258 c-17 -23 -53 -104 -53 -121 0 -10 -5 -14 -15 -11 -18 7
-21 -26 -3 -44 9 -9 9 -30 -1 -92 -14 -84 -11 -110 13 -110 19 0 25 19 32 99
l6 67 60 -1 c56 0 61 2 94 37 37 41 43 72 20 116 -26 51 -129 91 -153 60z m88
-41 c62 -42 59 -109 -6 -139 -32 -14 -93 -2 -97 20 -6 24 11 93 28 120 18 28
32 28 75 -1z"/>
<path d="M8185 9228 c-11 -6 -46 -37 -78 -69 -56 -56 -57 -59 -51 -98 4 -25 0
-77 -11 -132 -12 -63 -15 -93 -7 -101 17 -17 39 40 47 124 6 72 8 77 25 68 28
-15 73 -12 99 6 26 19 71 107 71 142 0 25 -41 72 -62 72 -7 0 -22 -6 -33 -12z
m60 -47 c3 -11 -1 -37 -10 -58 -31 -74 -77 -101 -119 -70 -17 13 -17 15 4 57
12 23 32 53 45 66 29 29 71 32 80 5z"/>
<path d="M11533 9228 c-32 -15 -29 -40 12 -99 45 -65 46 -89 4 -89 -41 0 -69
16 -69 41 0 12 -5 19 -12 17 -7 -3 -13 -18 -13 -34 0 -35 31 -54 91 -54 74 0
85 47 29 131 -27 40 -33 54 -23 60 18 12 56 11 63 -1 9 -15 35 -12 35 5 0 31
-71 45 -117 23z"/>
<path d="M8379 9194 c-18 -19 -34 -45 -35 -57 0 -12 -4 -37 -8 -55 -6 -25 -4
-33 9 -38 23 -9 27 -1 36 63 5 34 15 64 27 76 20 20 20 20 50 -2 55 -39 73
-20 21 23 -41 35 -58 33 -100 -10z"/>
<path d="M10131 9213 c-93 -46 -58 -178 38 -145 29 10 31 9 31 -11 0 -28 26
-67 46 -67 19 0 18 18 -2 37 -11 12 -14 26 -10 50 3 18 9 48 12 66 5 26 1 38
-20 60 -29 31 -48 33 -95 10z m67 -25 c27 -27 3 -83 -38 -88 -39 -6 -50 0 -50
28 0 28 20 54 50 65 23 8 25 8 38 -5z"/>
<path d="M10367 9210 c-42 -34 -64 -175 -27 -175 11 0 15 14 16 56 1 31 7 66
13 77 13 25 49 38 64 23 16 -16 37 -14 37 4 0 17 -30 35 -58 35 -11 0 -31 -9
-45 -20z"/>
<path d="M5007 9203 c-10 -10 -29 -18 -43 -18 -23 0 -28 -8 -50 -75 -34 -105
-17 -138 24 -47 20 45 96 136 106 126 3 -3 0 -32 -6 -65 -13 -71 2 -117 40
-122 27 -4 28 1 1 37 -19 26 -20 33 -9 89 7 34 10 68 7 77 -8 20 -49 19 -70
-2z"/>
<path d="M5254 9203 c-3 -10 -14 -35 -24 -55 -26 -49 -25 -70 5 -102 23 -25
39 -30 80 -26 26 2 74 48 81 76 7 27 -21 90 -50 109 -29 21 -85 20 -92 -2z
m83 -35 c34 -38 36 -62 9 -91 -14 -15 -35 -27 -47 -27 -25 0 -59 26 -59 45 0
13 60 94 71 94 3 1 15 -9 26 -21z"/>
<path d="M5740 9182 c-65 -64 -74 -173 -19 -214 38 -29 114 -26 178 7 50 25
66 45 36 45 -9 0 -33 -9 -55 -20 -50 -25 -121 -27 -143 -2 -8 9 -17 28 -19 42
-2 20 3 26 34 35 42 12 88 51 88 75 0 20 -37 70 -52 70 -6 0 -27 -17 -48 -38z
m60 -26 c0 -28 -14 -42 -55 -52 l-29 -7 19 29 c35 54 65 68 65 30z"/>
<path d="M9350 9213 c-62 -11 -64 -40 -9 -100 22 -24 38 -49 36 -56 -6 -17
-56 -11 -78 9 -17 16 -19 16 -25 -1 -14 -34 72 -68 115 -46 31 17 26 55 -14
100 -19 21 -35 44 -35 50 0 18 61 13 76 -6 12 -17 13 -17 20 0 12 33 -34 59
-86 50z"/>
<path d="M12424 9206 c-43 -19 -64 -53 -64 -103 0 -66 51 -101 134 -91 44 5
30 23 -24 29 -75 10 -106 42 -52 55 62 15 110 101 66 118 -21 8 -24 8 -60 -8z
m31 -56 c-16 -17 -65 -34 -65 -21 1 14 29 41 51 50 30 11 37 -3 14 -29z"/>
<path d="M11015 9187 c-23 -13 -46 -22 -53 -19 -8 2 -11 -14 -11 -53 1 -56
-10 -83 -29 -71 -14 9 -42 94 -42 129 0 22 -4 28 -17 25 -24 -5 -19 -65 13
-135 25 -58 42 -70 73 -54 21 11 46 83 38 105 -7 19 61 60 110 66 58 7 60 24
3 28 -32 2 -56 -4 -85 -21z"/>
<path d="M12164 9178 c-48 -42 -58 -70 -40 -113 16 -38 34 -50 90 -60 28 -6
41 -4 47 6 15 24 10 29 -34 29 -80 0 -105 67 -44 114 40 31 46 31 63 9 12 -17
13 -17 19 0 9 23 -12 47 -41 47 -13 0 -40 -14 -60 -32z"/>
<path d="M14840 9204 c-37 -13 -60 -29 -60 -42 0 -7 16 -32 35 -55 19 -22 35
-46 35 -53 0 -12 -57 -34 -87 -34 -19 0 -16 -18 5 -24 16 -5 52 2 95 19 29 12
21 57 -18 102 -38 45 -37 47 13 58 18 4 31 12 29 18 -4 14 -25 18 -47 11z"/>
<path d="M9575 9176 c-28 -28 -26 -44 16 -95 16 -19 26 -38 23 -43 -8 -13 -51
-9 -68 7 -21 22 -38 18 -34 -7 6 -48 129 -49 136 -2 2 11 -11 37 -28 58 -16
22 -30 45 -30 52 0 19 49 29 71 15 25 -15 39 -14 39 4 0 40 -89 47 -125 11z"/>
<path d="M14650 9176 c-43 -29 -63 -63 -58 -102 3 -33 46 -59 79 -49 25 8 19
31 -8 27 -11 -1 -26 4 -33 13 -11 14 -10 17 7 21 44 12 108 50 111 67 5 24
-16 47 -42 47 -12 0 -37 -11 -56 -24z m70 -16 c0 -5 -2 -10 -4 -10 -2 0 -21
-7 -42 -15 l-39 -16 28 26 c29 25 57 33 57 15z"/>
<path d="M8569 9138 c-39 -41 -36 -75 10 -105 89 -60 167 13 111 105 -16 27
-26 32 -56 32 -28 0 -43 -7 -65 -32z m90 -22 c45 -47 7 -92 -53 -63 -42 19
-44 32 -14 64 27 29 39 29 67 -1z"/>
<path d="M8798 9149 c-30 -22 -35 -50 -18 -93 11 -29 87 -88 109 -84 24 5 24
26 -1 33 -69 22 -104 80 -71 117 13 15 26 19 50 15 35 -6 55 9 32 24 -24 15
-73 9 -101 -12z"/>
<path d="M9056 9134 c-28 -29 -36 -45 -36 -74 0 -54 27 -75 101 -75 74 0 78
18 6 26 -30 3 -59 9 -66 13 -22 14 -11 34 22 40 73 14 106 98 41 104 -26 3
-39 -4 -68 -34z m74 -3 c0 -11 -45 -41 -62 -41 -7 0 0 12 15 25 29 26 47 32
47 16z"/>
<path d="M10571 9147 c-56 -28 -77 -58 -61 -87 15 -27 49 -40 79 -28 13 5 25
7 26 6 2 -2 6 -38 10 -80 l7 -78 -41 0 c-52 0 -94 -21 -109 -55 -26 -57 -6
-106 52 -125 58 -19 108 17 123 90 3 17 12 30 19 30 17 0 17 0 0 36 -24 48
-30 183 -12 237 9 26 13 53 10 62 -9 21 -52 18 -103 -8z m52 -39 c-7 -29 -31
-48 -60 -48 -31 0 -29 24 5 49 37 28 62 28 55 -1z m4 -300 c-7 -49 -46 -91
-75 -81 -86 30 -55 123 41 123 l40 0 -6 -42z"/>
<path d="M6583 9153 c-13 -3 -23 -11 -23 -19 0 -10 13 -14 49 -14 26 0 69 -3
95 -6 30 -4 46 -3 46 4 0 20 -118 44 -167 35z"/>
<path d="M11994 9142 c-15 -10 -38 -98 -31 -117 12 -29 23 -15 36 44 14 63 13
85 -5 73z"/>
<path d="M11181 9019 c-15 -14 -19 -25 -13 -31 15 -15 46 -5 50 16 6 30 -12
38 -37 15z"/>
<path d="M9765 9010 c-9 -15 3 -30 25 -30 18 0 34 23 23 34 -10 10 -41 7 -48
-4z"/>
<path d="M5895 8669 c-87 -43 -138 -118 -191 -281 -26 -83 -29 -87 -58 -90
-38 -4 -41 -22 -5 -26 l27 -3 -18 -60 c-12 -40 -16 -68 -10 -82 8 -22 8 -22
18 3 5 14 17 53 27 87 l18 63 48 6 c43 6 49 9 49 30 0 24 -18 32 -35 15 -6 -5
-20 -12 -32 -15 l-22 -7 15 53 c27 92 88 212 123 241 42 35 94 57 119 50 24
-6 40 16 21 28 -22 14 -50 10 -94 -12z"/>
<path d="M13512 8655 c-37 -31 -114 -144 -177 -257 -46 -83 -51 -88 -82 -88
-40 0 -46 -27 -8 -32 l25 -3 -35 -58 c-32 -54 -37 -77 -15 -77 4 0 26 33 49
74 39 72 41 74 87 81 66 9 94 22 94 40 0 12 -6 15 -22 9 -37 -12 -92 -23 -96
-20 -1 2 23 50 55 106 63 112 158 226 177 212 6 -4 18 -8 26 -8 14 1 16 7 12
36 -3 19 -61 10 -90 -15z"/>
<path d="M4397 8603 c-4 -3 -7 -20 -7 -37 0 -45 -71 -222 -145 -362 -59 -110
-67 -134 -44 -134 14 0 129 229 174 345 52 134 65 195 43 195 -8 0 -18 -3 -21
-7z"/>
<path d="M8360 8488 c-17 -57 -33 -109 -35 -115 -3 -9 -25 -13 -65 -13 -45 0
-60 -4 -60 -14 0 -10 14 -14 51 -14 28 -1 53 -2 55 -4 6 -6 -41 -145 -55 -161
-9 -12 -10 -21 -1 -36 15 -28 40 -27 40 2 0 12 12 61 26 108 26 86 27 87 63
93 20 3 53 6 74 6 34 0 42 6 35 27 -2 4 -31 6 -65 4 -38 -2 -63 1 -63 7 0 6
14 50 30 99 34 99 36 113 16 113 -9 0 -25 -37 -46 -102z"/>
<path d="M2915 8543 c-174 -15 -254 -19 -274 -13 -8 3 -16 -2 -18 -11 -6 -26
53 -29 220 -13 84 8 211 16 284 17 72 1 135 5 138 9 13 13 -6 29 -22 19 -10
-5 -29 -5 -47 0 -36 11 -76 10 -281 -8z"/>
<path d="M13657 8436 l-49 -104 -51 -12 c-83 -19 -87 -21 -87 -37 0 -11 7 -14
23 -10 63 15 87 18 87 12 0 -4 -23 -40 -52 -81 -36 -53 -48 -78 -41 -85 8 -8
26 11 63 62 29 41 57 84 63 97 7 16 19 22 41 22 40 0 67 16 48 28 -7 5 -24 7
-38 4 -24 -4 -24 -4 15 78 22 46 43 85 46 88 10 10 5 42 -7 42 -7 0 -35 -47
-61 -104z"/>
<path d="M4926 8498 c-3 -18 -19 -67 -35 -108 -25 -65 -33 -77 -63 -87 -18 -7
-41 -12 -50 -12 -10 -1 -18 -8 -18 -17 0 -14 7 -15 40 -10 l40 6 -22 -45 c-12
-25 -28 -45 -36 -45 -10 0 -12 -7 -8 -22 3 -13 6 -26 6 -30 0 -5 6 -8 13 -8 6
1 29 38 51 85 37 81 40 84 83 94 51 13 55 38 4 33 l-31 -3 21 53 c30 75 41
118 35 134 -9 24 -24 15 -30 -18z"/>
<path d="M12067 8503 c-12 -11 -8 -23 7 -23 23 0 3 -58 -70 -205 -35 -71 -64
-136 -64 -143 0 -34 27 3 86 118 66 129 100 220 90 246 -5 14 -37 19 -49 7z"/>
<path d="M3134 8459 c-4 -7 -8 -30 -9 -53 -1 -23 -18 -81 -38 -131 -47 -121
-51 -135 -36 -135 7 0 29 15 49 34 34 34 90 58 90 39 0 -5 -7 -31 -16 -56 -9
-26 -13 -54 -10 -62 7 -19 33 -19 33 0 0 8 6 39 13 69 7 30 10 61 7 70 -8 20
-53 21 -91 1 -26 -14 -28 -14 -21 3 24 56 65 187 65 207 0 26 -23 34 -36 14z"/>
<path d="M2905 8393 c-9 -38 -32 -113 -50 -168 -19 -55 -35 -113 -37 -129 -4
-38 19 -46 27 -9 4 15 20 66 35 113 41 121 71 240 65 251 -13 21 -24 6 -40
-58z"/>
<path d="M11550 8359 c-19 -12 -46 -29 -60 -38 -14 -8 -28 -14 -33 -13 -4 1
-23 -33 -43 -75 -19 -43 -56 -113 -81 -156 -33 -57 -43 -81 -35 -89 18 -18 45
14 92 103 32 62 46 79 63 79 58 1 180 93 193 147 16 61 -32 81 -96 42z m70
-24 c0 -45 -146 -153 -171 -128 -16 16 95 125 137 136 32 8 34 8 34 -8z"/>
<path d="M7534 8344 c-22 -14 -56 -42 -76 -62 l-38 -36 0 32 c0 32 0 32 -47
29 l-46 -3 -29 -69 c-32 -81 -33 -85 -14 -85 8 0 27 22 42 49 15 27 36 54 47
61 18 11 19 10 13 -23 -11 -56 10 -55 72 5 93 88 95 89 66 16 -14 -37 -22 -73
-19 -86 7 -27 31 -24 28 3 0 9 12 49 28 89 43 105 37 123 -27 80z"/>
<path d="M11786 8335 c-55 -33 -60 -34 -71 -18 -12 16 -14 15 -25 -12 -6 -17
-21 -48 -33 -70 -130 -249 -141 -275 -114 -275 12 0 60 75 101 158 13 25 23
32 47 32 43 0 125 45 175 97 103 106 49 166 -80 88z m104 -5 c0 -21 -89 -106
-133 -128 -44 -22 -77 -28 -77 -15 0 4 10 21 21 38 45 65 189 145 189 105z"/>
<path d="M14138 8360 c-15 -4 -43 -18 -61 -29 -19 -11 -37 -18 -40 -15 -3 4
-14 -11 -23 -32 -9 -22 -25 -58 -35 -82 -20 -46 -25 -82 -10 -82 12 0 46 58
54 92 9 35 52 85 91 105 17 9 52 16 78 15 44 -1 69 10 51 21 -18 11 -80 15
-105 7z"/>
<path d="M4461 8346 c-9 -10 -8 -15 3 -19 21 -8 56 3 56 19 0 18 -44 18 -59 0z"/>
<path d="M6428 8323 c-46 -49 -61 -79 -54 -108 11 -42 51 -40 101 6 20 18 20
17 20 -34 0 -42 3 -52 18 -55 16 -3 17 1 12 31 -4 22 -1 57 9 90 20 67 20 77
2 77 -8 0 -16 7 -20 15 -10 27 -50 17 -88 -22z m71 -35 c-18 -33 -99 -84 -99
-63 0 17 33 66 56 84 20 16 28 18 39 8 9 -8 10 -18 4 -29z"/>
<path d="M9532 8283 c-34 -43 -68 -87 -76 -98 -13 -18 -15 -13 -21 50 -8 85
-12 98 -26 89 -8 -4 -9 -35 -4 -100 8 -108 11 -101 -110 -240 -75 -87 -114
-148 -101 -161 4 -4 17 6 29 22 12 17 50 64 84 105 35 41 109 135 165 208 57
73 112 144 122 157 14 17 17 28 10 35 -8 8 -30 -13 -72 -67z"/>
<path d="M2157 8330 c-31 -25 -35 -60 -9 -83 26 -24 38 -21 62 13 45 63 5 115
-53 70z"/>
<path d="M7726 8335 c-78 -27 -121 -94 -105 -165 14 -63 65 -84 138 -59 25 9
29 14 21 25 -9 9 -18 10 -36 3 -36 -13 -60 -11 -78 7 -21 21 -22 68 -1 60 50
-19 135 40 135 93 0 41 -24 53 -74 36z m44 -38 c0 -32 -73 -73 -100 -57 -16
10 -5 27 34 51 36 22 66 25 66 6z"/>
<path d="M7051 8285 c-40 -106 -19 -164 53 -151 58 11 141 134 105 157 -18 11
-29 2 -29 -24 0 -42 -60 -109 -95 -104 -28 3 -30 43 -6 108 25 64 25 69 7 69
-8 0 -23 -24 -35 -55z"/>
<path d="M6657 8306 c-35 -32 -90 -147 -77 -160 14 -14 35 9 49 53 18 62 57
103 95 99 22 -2 31 1 31 12 0 10 -12 16 -36 18 -26 2 -42 -3 -62 -22z"/>
<path d="M7920 8304 c-6 -14 -10 -33 -10 -43 0 -10 -9 -30 -20 -44 -20 -25
-27 -57 -12 -57 4 0 30 24 57 53 l50 52 3 -53 c2 -42 8 -55 27 -68 24 -15 55
-13 55 3 0 5 -10 13 -22 18 -28 12 -34 52 -17 112 6 24 9 46 6 49 -8 8 -67
-25 -74 -42 -3 -7 -9 -14 -14 -14 -6 0 -5 9 1 20 11 21 6 40 -11 40 -5 0 -14
-12 -19 -26z"/>
<path d="M8635 8322 c-4 -4 -20 -7 -37 -8 -53 -3 -57 -19 -20 -84 49 -89 42
-123 -21 -96 -23 9 -37 23 -41 40 -8 32 -26 25 -26 -9 0 -45 86 -88 129 -65
30 15 27 73 -4 129 -29 50 -23 61 33 61 20 0 32 5 32 14 0 15 -35 28 -45 18z"/>
<path d="M9725 8315 c-43 -18 -115 -110 -115 -146 0 -29 37 -49 71 -39 42 12
95 47 119 77 29 37 25 67 -13 96 -30 23 -36 24 -62 12z m65 -59 c0 -19 -21
-42 -64 -70 -35 -23 -86 -35 -86 -20 0 14 25 52 57 86 32 33 38 35 64 26 16
-5 29 -15 29 -22z"/>
<path d="M13015 8316 c-34 -15 -92 -71 -100 -97 -17 -53 43 -76 103 -39 l32
20 0 -33 c0 -17 4 -38 9 -46 14 -22 31 -3 25 29 -4 19 2 47 20 85 34 74 14 84
-43 22 -47 -51 -96 -76 -113 -59 -8 8 0 22 30 53 36 35 46 41 72 35 32 -6 41
9 18 32 -15 15 -15 15 -53 -2z"/>
<path d="M13798 8315 c-114 -42 -163 -145 -88 -185 35 -19 140 -9 140 13 0 5
8 15 17 22 15 11 15 13 -7 20 -19 6 -27 3 -38 -14 -15 -22 -73 -29 -101 -12
-21 13 -6 28 59 57 66 30 103 64 98 91 -4 23 -33 26 -80 8z m32 -36 c-22 -15
-88 -49 -95 -49 -15 0 9 22 43 40 41 21 80 28 52 9z"/>
<path d="M11041 8304 l-34 -14 6 -58 c3 -31 8 -65 12 -74 4 -11 -1 -22 -19
-33 -21 -14 -31 -15 -61 -5 -19 6 -35 18 -35 26 0 8 -9 14 -21 14 -15 0 -20
-5 -17 -22 2 -16 17 -28 49 -42 52 -21 83 -17 118 15 19 18 22 27 15 58 -4 20
-8 52 -8 71 -1 31 2 35 27 38 28 3 37 26 14 35 -7 3 -28 -1 -46 -9z"/>
<path d="M12095 8276 c-24 -61 -11 -121 25 -121 16 0 26 7 28 19 3 13 0 17
-11 13 -23 -8 -28 29 -12 77 18 51 18 56 1 56 -8 0 -22 -20 -31 -44z"/>
<path d="M12290 8312 c0 -5 -21 -33 -46 -63 -26 -30 -65 -76 -88 -104 -22 -27
-64 -74 -92 -105 -70 -76 -106 -134 -91 -149 8 -8 16 -3 32 22 19 33 45 63
186 225 123 140 149 182 114 182 -8 0 -15 -4 -15 -8z"/>
<path d="M9935 8225 c-44 -47 -85 -85 -91 -85 -6 0 -17 -7 -24 -15 -7 -8 -21
-15 -32 -15 -13 0 -18 -6 -16 -17 7 -32 58 -8 142 66 28 25 28 25 17 3 -16
-30 -10 -76 10 -80 8 -1 42 15 75 38 l59 40 5 -36 c6 -43 35 -68 50 -44 7 10
5 18 -5 26 -19 14 -19 45 0 91 8 19 15 39 15 44 0 20 -31 7 -51 -20 -24 -32
-126 -107 -135 -98 -7 6 61 143 76 152 14 9 13 35 -2 35 -7 -1 -49 -39 -93
-85z"/>
<path d="M4573 8274 c-50 -30 -54 -52 -18 -96 14 -16 25 -35 25 -42 0 -19 -47
-37 -76 -30 -26 7 -32 -4 -12 -24 18 -18 52 -14 89 11 45 30 46 48 9 91 -18
19 -28 41 -24 47 3 6 26 20 51 31 24 10 41 23 38 29 -10 15 -38 10 -82 -17z"/>
<path d="M11270 8275 c0 -9 6 -18 14 -21 21 -8 1 -58 -36 -89 -57 -48 -74 -25
-38 54 24 52 24 51 5 51 -20 0 -54 -74 -55 -116 0 -17 7 -37 16 -45 36 -29
154 74 154 134 0 21 -26 46 -47 47 -7 0 -13 -7 -13 -15z"/>
<path d="M3297 8241 c-84 -91 -50 -163 66 -140 99 20 128 30 124 42 -3 7 -10
11 -17 9 -62 -14 -172 -24 -181 -15 -13 13 -1 43 18 43 8 0 12 4 9 9 -4 5 3 7
14 4 26 -7 70 22 70 45 0 10 -5 23 -12 30 -22 22 -54 13 -91 -27z m62 -12 c-8
-5 -21 -9 -29 -9 -12 1 -11 4 4 15 10 8 23 12 29 8 5 -3 3 -9 -4 -14z"/>
<path d="M6812 8250 c-77 -47 -68 -134 12 -111 33 8 36 7 36 -10 0 -11 -5 -40
-11 -64 -10 -41 -13 -43 -55 -50 -62 -9 -104 -46 -104 -93 0 -50 33 -102 63
-102 20 0 31 13 63 80 33 67 42 79 59 74 28 -8 75 -15 51 -8 -13 4 -15 8 -7
14 8 4 2 11 -19 20 -25 10 -30 17 -26 34 3 12 9 46 13 76 3 30 12 65 20 77 8
12 13 34 11 49 -3 24 -8 28 -39 30 -21 2 -49 -5 -67 -16z m58 -40 c0 -21 -27
-40 -59 -40 -27 0 -26 8 1 37 27 29 58 30 58 3z m-50 -236 c0 -12 -63 -124
-70 -124 -11 0 -30 48 -30 75 0 29 34 55 72 55 16 0 28 -3 28 -6z"/>
<path d="M5414 8226 c-38 -38 -44 -74 -16 -99 35 -32 91 -26 137 14 26 23 35
39 35 63 0 44 -16 56 -73 56 -42 0 -54 -5 -83 -34z m124 -22 c5 -32 -43 -66
-87 -62 -45 4 -52 28 -17 63 34 34 99 33 104 -1z"/>
<path d="M4381 8195 c-35 -61 -38 -75 -16 -75 15 0 65 88 65 115 0 29 -18 14
-49 -40z"/>
<path d="M7790 8145 c12 -15 30 -12 30 6 0 5 -10 9 -21 9 -18 0 -19 -2 -9 -15z"/>
<path d="M7300 8059 c-99 -80 -159 -168 -160 -234 0 -33 -38 -70 -123 -119
-26 -16 -46 -33 -44 -40 7 -20 32 -10 104 43 l71 51 36 -15 c49 -21 76 -19 76
3 0 14 -8 19 -30 19 -59 0 -57 16 18 115 88 117 116 164 108 183 -7 20 -26 18
-56 -6z m3 -51 c-6 -7 -36 -48 -67 -90 -31 -43 -59 -78 -61 -78 -5 0 9 41 26
73 14 28 90 107 102 107 5 0 5 -5 0 -12z"/>
<path d="M12393 8067 c-6 -6 -13 -27 -17 -46 -3 -18 -22 -75 -42 -125 -26 -66
-45 -99 -70 -119 -41 -35 -42 -49 -8 -76 36 -28 117 -29 162 -1 63 38 94 127
53 150 -30 15 -63 12 -100 -11 -31 -19 -33 -19 -26 -2 25 61 63 173 68 200 7
34 -4 51 -20 30z m63 -251 c9 -22 -23 -74 -56 -91 -37 -19 -110 -20 -110 -2 0
23 24 47 75 77 55 33 83 37 91 16z"/>
<path d="M2366 8007 c-26 -36 -51 -78 -57 -95 -9 -25 -17 -30 -56 -36 -25 -3
-61 -6 -79 -6 -24 0 -34 -5 -34 -15 0 -13 12 -15 69 -12 l69 4 -5 -58 c-5 -54
-4 -60 25 -88 32 -32 68 -39 103 -20 29 15 12 31 -26 23 -26 -4 -38 -1 -54 15
-38 38 -20 129 27 141 28 6 29 25 2 24 -11 0 -20 3 -20 7 0 18 87 135 108 144
26 12 24 29 -5 33 -16 2 -32 -13 -67 -61z"/>
<path d="M2535 8058 c-2 -7 -6 -37 -10 -67 -3 -29 -19 -89 -35 -134 -30 -82
-38 -127 -21 -127 5 0 29 27 53 60 24 33 51 60 61 60 27 0 41 -47 27 -95 -21
-73 -24 -98 -10 -93 22 7 52 99 47 141 -9 68 -65 100 -107 62 -16 -15 -16 -10
1 52 21 74 25 153 9 153 -6 0 -12 -6 -15 -12z"/>
<path d="M5725 8051 c-3 -5 2 -16 10 -25 14 -14 12 -27 -20 -130 -42 -131 -66
-174 -114 -198 -41 -21 -61 -14 -61 21 0 41 26 69 78 84 48 14 58 30 23 35
-27 4 -91 -29 -112 -58 -31 -45 -32 -78 -4 -105 19 -20 31 -24 52 -19 83 20
115 66 176 256 l34 107 -23 20 c-27 24 -31 25 -39 12z"/>
<path d="M14420 8036 c-5 -13 -14 -27 -19 -31 -6 -3 -11 -19 -11 -35 0 -34
-69 -213 -106 -277 -26 -45 -47 -53 -85 -32 -44 23 -41 88 5 121 31 22 76 34
76 19 0 -6 7 -11 15 -11 23 0 18 38 -6 45 -69 22 -169 -65 -154 -135 9 -41 58
-80 100 -80 55 0 90 57 170 280 21 58 42 110 47 116 10 13 0 44 -13 44 -5 0
-14 -11 -19 -24z"/>
<path d="M7455 7930 c-7 -12 12 -40 27 -40 13 0 6 43 -9 47 -6 2 -14 -1 -18
-7z"/>
<path d="M13368 7873 c-13 -16 -35 -44 -49 -63 -31 -46 -75 -84 -126 -112 -41
-22 -57 -48 -30 -48 7 0 37 15 67 34 54 34 54 34 65 13 14 -29 49 -33 96 -12
35 16 39 16 54 1 19 -19 38 -20 66 -6 30 17 23 33 -11 27 -21 -5 -30 -3 -30 7
0 14 52 90 69 101 6 3 11 13 11 21 0 28 -29 13 -67 -33 -41 -50 -115 -103
-145 -103 -38 0 -20 55 44 132 22 26 37 52 33 58 -10 16 -19 12 -47 -17z"/>
<path d="M13985 7895 c-5 -2 -22 -6 -38 -9 -42 -10 -105 -72 -113 -112 -14
-75 56 -115 166 -93 41 8 60 16 60 26 0 12 -9 13 -52 7 -73 -11 -108 -8 -129
12 -31 28 -22 39 40 52 64 14 124 48 129 75 7 33 -26 55 -63 42z m25 -39 c0
-13 -44 -34 -110 -52 -25 -7 -25 -7 -6 15 16 17 51 33 114 50 1 1 2 -5 2 -13z"/>
<path d="M13660 7870 c-32 -32 -36 -69 -12 -111 26 -45 28 -75 6 -83 -27 -11
-54 -7 -60 9 -8 19 -34 20 -34 2 0 -24 35 -47 72 -47 65 0 88 62 48 128 -24
39 -19 66 16 88 13 9 24 20 24 25 0 16 -40 9 -60 -11z"/>
<path d="M3898 7837 c-54 -40 -85 -99 -72 -135 14 -40 139 -97 139 -63 0 8
-18 20 -40 28 -22 7 -48 22 -58 32 -17 16 -17 21 -4 53 19 46 72 85 92 68 12
-10 16 -9 21 4 8 22 -2 46 -20 46 -8 0 -34 -15 -58 -33z"/>
<path d="M9711 7853 c-63 -31 -93 -120 -52 -157 35 -32 199 -38 209 -8 3 9
-17 12 -75 12 -119 0 -152 34 -97 99 29 35 85 51 110 30 13 -10 17 -10 25 2
22 36 -60 51 -120 22z"/>
<path d="M12568 7841 c-69 -44 -81 -105 -30 -154 36 -34 142 -43 142 -12 0 14
12 20 33 16 5 -1 6 3 2 8 -4 7 -15 7 -31 1 -43 -17 -109 -12 -127 8 -26 29
-22 52 11 52 40 0 92 35 92 63 0 24 -17 47 -35 47 -6 0 -32 -13 -57 -29z m43
-32 c-13 -10 -33 -19 -45 -19 -17 1 -13 6 19 25 44 27 62 23 26 -6z"/>
<path d="M4843 7828 c-21 -18 -40 -35 -43 -38 -3 -3 -13 -11 -22 -18 -16 -12
-16 -11 -9 15 17 61 -15 71 -66 21 -32 -31 -33 -31 -33 -9 0 39 -21 18 -42
-43 -29 -83 -12 -91 48 -22 52 61 69 70 54 30 -14 -37 -12 -64 5 -64 8 0 43
27 78 60 86 80 98 79 95 -5 -4 -86 15 -88 26 -3 8 60 7 70 -9 88 -25 27 -38
25 -82 -12z"/>
<path d="M7774 7835 c-71 -42 -95 -125 -49 -170 20 -21 33 -25 88 -25 71 0
130 16 124 34 -3 6 -11 9 -18 7 -8 -2 -46 -6 -85 -8 -57 -4 -73 -2 -87 12 -27
27 -22 55 11 55 42 0 116 41 120 66 4 25 -22 54 -46 54 -9 0 -36 -11 -58 -25z
m71 -15 c7 -12 -52 -50 -78 -50 -24 0 -13 17 27 41 35 22 42 23 51 9z"/>
<path d="M2757 7827 c-54 -58 -57 -64 -48 -114 13 -68 40 -87 111 -79 30 4 56
11 58 16 2 5 9 7 16 4 13 -5 53 33 44 42 -4 3 -19 -1 -36 -10 -16 -8 -51 -18
-79 -22 -39 -5 -53 -3 -66 11 -28 27 -21 53 16 60 65 14 102 81 58 105 -30 16
-50 12 -74 -13z m58 -17 c9 -15 -11 -37 -40 -43 -31 -5 -31 0 -3 30 24 25 34
28 43 13z"/>
<path d="M4170 7839 c0 -5 -5 -7 -10 -4 -15 9 -80 -59 -80 -84 0 -12 10 -31
21 -42 49 -49 147 9 135 79 -5 34 -29 61 -53 62 -7 0 -13 -5 -13 -11z m25 -43
c16 -12 17 -18 8 -39 -13 -28 -58 -43 -79 -26 -20 16 -18 26 11 54 28 29 34
30 60 11z"/>
<path d="M4320 7824 c-6 -14 -10 -28 -10 -32 0 -4 -11 -29 -25 -55 -36 -66
-22 -78 31 -26 31 31 44 38 44 26 0 -26 16 -21 78 28 31 25 59 45 62 45 3 0 5
-26 5 -57 0 -45 4 -58 16 -61 13 -2 16 6 15 47 -1 28 -5 51 -11 51 -5 0 -4 4
4 9 20 13 6 41 -20 41 -11 0 -33 -8 -47 -18 -47 -33 -49 -33 -44 -7 6 33 -17
33 -48 0 -13 -14 -28 -25 -34 -24 -6 0 -5 3 2 6 14 6 16 53 2 53 -6 0 -15 -12
-20 -26z"/>
<path d="M9951 7820 c-54 -40 -69 -76 -43 -103 16 -16 27 -18 61 -12 23 4 47
13 54 20 10 11 15 10 29 -2 15 -14 19 -11 42 36 30 58 19 77 -22 38 -38 -35
-72 -54 -109 -62 -29 -6 -33 -4 -33 14 0 40 106 91 126 60 4 -7 9 -8 17 0 17
17 -11 41 -48 41 -20 0 -48 -11 -74 -30z"/>
<path d="M10200 7834 c0 -9 -18 -43 -40 -76 -65 -98 -50 -105 50 -23 37 30 70
55 73 55 2 0 2 -15 -2 -32 -10 -47 -3 -68 25 -78 18 -7 34 -5 61 8 34 16 44
40 13 34 -8 -2 -28 -6 -44 -9 l-28 -6 7 62 c6 55 5 61 -12 61 -10 0 -36 -12
-57 -26 -21 -15 -35 -21 -31 -14 15 24 14 60 -1 60 -8 0 -14 -7 -14 -16z"/>
<path d="M5085 7825 c-41 -15 -75 -47 -75 -71 0 -20 46 -47 70 -40 11 3 29 9
40 12 15 4 20 1 20 -14 0 -27 28 -48 47 -36 18 11 17 29 -1 28 -10 -1 -13 14
-12 53 1 43 -3 57 -18 69 -24 17 -21 17 -71 -1z m60 -34 c8 -14 -36 -41 -67
-41 -34 0 -36 13 -6 34 25 18 64 21 73 7z"/>
<path d="M5338 7824 c-15 -8 -32 -24 -38 -35 -9 -17 -14 -18 -26 -8 -21 17
-38 -9 -21 -30 9 -12 9 -13 0 -8 -7 5 -16 -1 -22 -12 -34 -63 11 -53 76 17 44
46 53 52 48 32 -14 -59 -17 -120 -7 -120 6 0 13 8 15 18 24 91 28 112 25 132
-4 30 -16 33 -50 14z"/>
<path d="M7545 7812 c-16 -11 -39 -29 -49 -41 -11 -11 -25 -21 -31 -21 -11 0
-25 -41 -25 -71 0 -17 29 -9 35 10 8 25 100 111 120 111 23 0 21 -7 -33 -102
-14 -24 -18 -40 -11 -44 12 -7 25 4 45 38 53 92 56 131 9 136 -16 1 -43 -6
-60 -16z"/>
<path d="M7376 7778 c-22 -52 -27 -82 -17 -98 13 -19 19 -12 35 46 7 27 15 55
17 63 9 30 -22 21 -35 -11z"/>
<path d="M2155 7535 l-49 -95 -40 -2 c-23 -1 -52 -2 -66 -2 -15 -1 -25 -7 -25
-16 0 -12 12 -14 58 -12 32 1 57 -2 57 -8 0 -5 -9 -33 -21 -62 -28 -72 -30
-145 -5 -164 27 -19 96 -19 96 1 0 8 -6 15 -12 15 -9 0 -8 4 2 10 23 15 -6 12
-31 -2 -17 -11 -22 -10 -34 6 -16 21 -12 49 20 138 l23 63 77 3 c54 2 75 6 72
15 -2 7 -29 13 -69 15 l-66 3 40 79 c22 44 44 80 49 80 5 0 9 7 9 15 0 8 -8
15 -18 15 -14 0 -33 -27 -67 -95z"/>
<path d="M11527 7609 c-9 -13 -25 -45 -38 -70 -20 -43 -25 -47 -67 -53 -25 -3
-58 -6 -73 -6 -20 0 -29 -5 -29 -16 0 -15 9 -16 71 -10 l71 6 -6 -62 c-9 -97
20 -152 92 -173 16 -5 22 -2 22 10 0 8 -10 19 -22 24 -43 17 -62 48 -62 104 0
29 3 64 7 80 7 24 12 27 52 28 25 1 50 3 55 4 6 1 17 3 25 4 8 0 15 8 15 17 0
14 -9 15 -65 9 -36 -3 -65 -4 -65 0 0 3 12 29 26 57 17 33 22 54 16 60 -7 7
-15 2 -25 -13z"/>
<path d="M10396 7568 c-8 -18 -19 -58 -26 -88 -30 -133 -42 -164 -75 -197 -46
-46 -105 -42 -105 8 0 41 100 91 113 57 4 -10 7 -10 17 -1 11 10 11 15 0 28
-38 46 -159 -16 -160 -83 -1 -98 127 -98 184 1 15 24 35 85 46 135 22 102 34
137 49 147 18 11 12 25 -10 25 -13 0 -24 -11 -33 -32z"/>
<path d="M5426 7561 c-3 -4 -17 -46 -32 -92 -14 -46 -31 -87 -37 -90 -5 -4
-39 -10 -73 -14 -48 -5 -64 -10 -64 -22 0 -13 10 -14 65 -8 36 3 65 5 65 3 0
-2 -9 -29 -20 -61 -23 -66 -25 -97 -6 -97 8 0 17 15 20 36 4 19 16 60 28 90
21 56 30 61 92 54 11 -1 17 3 14 12 -3 7 -21 14 -40 16 l-36 3 24 77 c13 42
24 83 24 90 0 14 -16 16 -24 3z"/>
<path d="M5572 7528 c0 -35 -56 -223 -86 -290 -15 -34 22 -19 54 22 28 35 75
70 95 70 4 0 3 -25 -1 -56 -5 -46 -4 -56 7 -52 20 6 41 96 28 119 -13 24 -46
24 -86 0 l-31 -20 20 67 c11 37 24 82 30 101 11 39 3 81 -16 81 -10 0 -14 -13
-14 -42z"/>
<path d="M4286 7553 c-3 -3 -6 -15 -6 -25 0 -10 -21 -74 -46 -143 -48 -131
-59 -190 -35 -190 8 0 15 13 17 30 2 17 21 79 44 137 43 116 58 182 42 191 -5
4 -12 4 -16 0z"/>
<path d="M9739 7560 c0 -3 -3 -21 -5 -40 -7 -50 -22 -94 -61 -183 -48 -108
-34 -122 46 -43 47 46 63 57 80 51 12 -3 20 -9 17 -13 -2 -4 0 -16 4 -27 4
-11 1 -37 -6 -59 -18 -49 -17 -56 1 -56 34 0 47 108 20 160 -21 41 -59 40
-103 -2 l-33 -33 21 50 c12 27 28 77 35 110 13 52 12 62 0 75 -8 8 -15 12 -16
10z"/>
<path d="M9591 7536 c-6 -7 -9 -20 -5 -29 3 -9 -4 -37 -15 -63 l-21 -47 -50 6
c-38 5 -50 3 -50 -7 0 -17 22 -26 60 -26 l29 0 -21 -60 c-11 -33 -17 -68 -14
-77 10 -24 20 -7 46 73 22 69 24 71 63 80 53 12 66 40 14 30 l-35 -7 19 51
c10 28 19 59 19 70 0 23 -22 26 -39 6z"/>
<path d="M12296 7508 c-7 -30 9 -45 28 -25 22 21 20 47 -3 47 -11 0 -21 -9
-25 -22z"/>
<path d="M13302 7488 c-28 -29 -38 -32 -87 -32 -47 0 -55 -3 -55 -19 0 -16 6
-19 45 -15 37 3 44 1 39 -12 -44 -100 -42 -136 6 -171 35 -26 82 -29 85 -6 3
13 -4 17 -26 17 -34 0 -69 31 -69 60 0 12 11 43 25 70 23 45 28 49 70 55 25 4
65 4 90 1 36 -6 45 -4 45 7 0 18 -29 26 -95 28 -27 0 -44 3 -37 6 13 5 17 43
4 43 -4 0 -22 -14 -40 -32z"/>
<path d="M10540 7484 c0 -9 7 -14 17 -12 25 5 28 28 4 28 -12 0 -21 -6 -21
-16z"/>
<path d="M8078 7458 c-36 -13 -37 -50 -2 -101 28 -41 28 -64 2 -81 -21 -13
-53 2 -53 25 0 20 -29 17 -33 -3 -4 -23 37 -58 68 -58 69 0 92 67 45 130 -14
19 -25 40 -25 47 0 20 37 16 60 -7 23 -23 40 -26 40 -7 0 15 -37 51 -60 59 -8
3 -27 1 -42 -4z"/>
<path d="M9384 7459 c-10 -17 13 -36 27 -22 12 12 4 33 -11 33 -5 0 -12 -5
-16 -11z"/>
<path d="M4006 7425 c-25 -19 -46 -30 -46 -24 0 6 -5 9 -11 7 -6 -2 -21 -37
-33 -78 -12 -41 -38 -111 -58 -155 -51 -113 -54 -125 -30 -125 14 0 27 18 51
75 17 41 31 79 31 84 0 4 19 7 43 4 31 -3 51 1 75 16 36 23 87 98 102 149 23
86 -41 111 -124 47z m94 -20 c0 -62 -85 -165 -135 -165 -20 0 -25 5 -25 26 0
35 43 102 88 137 45 35 72 36 72 2z"/>
<path d="M12811 7438 c-50 -14 -104 -51 -140 -96 -37 -47 -64 -109 -57 -128 3
-8 1 -14 -4 -14 -5 0 -19 -32 -31 -70 -17 -52 -20 -73 -12 -81 9 -9 19 5 42
54 16 37 32 75 35 85 5 14 13 18 30 15 53 -11 178 84 217 164 18 38 19 47 8
58 -21 19 -50 24 -88 13z m59 -41 c0 -49 -165 -186 -192 -159 -6 6 2 31 19 67
22 47 37 63 72 82 48 25 101 31 101 10z"/>
<path d="M3200 7427 c-44 -15 -49 -46 -21 -121 22 -60 16 -76 -31 -76 -18 0
-31 7 -39 21 -14 27 -34 10 -24 -20 8 -26 60 -41 98 -28 46 15 52 40 26 113
-27 75 -21 87 40 86 44 -1 53 11 22 28 -24 12 -27 12 -71 -3z"/>
<path d="M6720 7421 c-19 -11 -47 -30 -61 -44 -15 -13 -34 -27 -43 -30 -9 -4
-16 -14 -16 -23 0 -10 -6 -25 -14 -33 -16 -18 -77 -167 -79 -193 -1 -10 -4
-18 -8 -18 -3 0 -11 -19 -18 -41 -9 -31 -10 -44 -1 -53 16 -15 33 10 72 106
30 74 34 78 63 78 51 0 127 68 174 155 29 55 28 89 -4 103 -14 7 -27 12 -28
12 -1 -1 -18 -9 -37 -19z m56 -47 c-16 -64 -116 -174 -157 -174 -18 0 -20 4
-14 28 13 53 38 93 83 132 54 48 98 55 88 14z"/>
<path d="M7548 7420 c-79 -42 -99 -106 -50 -161 37 -41 113 -53 142 -22 18 20
18 20 -42 19 -51 -1 -62 2 -79 23 -10 13 -19 31 -19 41 0 16 6 18 34 13 64
-10 122 57 84 95 -16 16 -26 15 -70 -8z m33 -40 c-13 -11 -33 -20 -45 -20 -19
0 -18 2 9 20 40 27 68 26 36 0z"/>
<path d="M7844 7429 c-52 -15 -61 -33 -41 -89 20 -57 22 -80 4 -80 -19 0 -37
21 -37 43 0 25 -24 16 -28 -11 -7 -50 84 -86 108 -42 8 15 5 33 -10 77 -24 68
-17 76 53 69 36 -4 47 -2 47 9 0 25 -49 37 -96 24z"/>
<path d="M10633 7413 c-10 -15 -23 -32 -30 -38 -17 -15 -44 -113 -32 -121 17
-10 36 14 58 75 24 67 45 91 63 73 19 -19 30 -14 26 11 -2 17 -11 23 -35 25
-26 3 -35 -2 -50 -25z"/>
<path d="M8995 7406 c-87 -28 -115 -43 -115 -61 0 -24 21 -28 39 -8 19 20 168
69 178 59 4 -3 -27 -40 -67 -82 -53 -54 -70 -78 -62 -86 8 -8 30 -1 82 26 l70
37 21 -36 c18 -31 26 -36 52 -33 43 4 77 56 77 114 0 37 -3 44 -19 44 -25 0
-37 -18 -22 -33 18 -18 13 -44 -14 -74 -25 -28 -26 -28 -40 -8 -45 63 -41 61
-74 48 -17 -6 -31 -10 -31 -8 0 2 14 17 30 35 46 49 37 91 -18 90 -9 -1 -48
-11 -87 -24z"/>
<path d="M5773 7404 c-37 -19 -67 -63 -77 -112 -15 -82 24 -112 114 -88 91 24
134 42 138 57 4 11 2 12 -9 2 -15 -15 -33 -17 -25 -4 4 5 -22 1 -56 -10 -35
-10 -78 -19 -95 -19 -32 0 -33 1 -33 45 l0 45 43 0 c51 0 91 33 85 72 -4 29
-40 34 -85 12z m57 -24 c0 -12 -33 -30 -55 -30 -21 0 -9 19 19 30 28 12 36 12
36 0z"/>
<path d="M10457 7378 c-3 -24 -9 -54 -13 -67 -6 -19 -4 -22 12 -19 20 4 32 34
33 91 1 54 -25 50 -32 -5z"/>
<path d="M10825 7410 c-34 -13 -95 -88 -95 -115 0 -41 39 -58 137 -59 57 -1
87 3 90 11 3 8 -15 11 -56 12 -33 0 -79 5 -103 12 l-43 12 38 13 c84 30 117
73 81 108 -17 18 -20 18 -49 6z m35 -40 c0 -10 -24 -25 -67 -40 l-28 -10 33
30 c32 29 62 39 62 20z"/>
<path d="M3744 7397 c-36 -21 -76 -56 -78 -69 -2 -7 -17 -42 -33 -78 -46 -98
-96 -261 -85 -272 15 -15 42 31 83 141 34 92 37 96 67 98 92 4 196 149 133
183 -26 13 -61 12 -87 -3z m74 -40 c5 -27 -79 -107 -112 -107 -33 0 -34 22 -4
66 40 58 108 83 116 41z"/>
<path d="M4510 7395 c-6 -8 -8 -20 -4 -26 4 -7 3 -9 -3 -6 -5 3 -32 -24 -58
-61 l-48 -67 -21 65 c-14 42 -26 65 -36 65 -8 0 -13 -7 -11 -15 2 -8 12 -45
23 -82 l19 -66 -67 -92 c-76 -106 -132 -216 -117 -231 12 -12 25 3 43 51 17
44 89 152 200 300 47 64 89 123 93 133 3 9 11 17 17 17 5 0 10 7 10 15 0 19
-24 19 -40 0z"/>
<path d="M6864 7391 c-30 -18 -45 -51 -60 -134 -6 -36 -5 -39 16 -35 20 3 24
9 25 50 2 26 10 59 19 73 18 27 68 45 74 27 5 -16 32 -15 32 1 0 39 -56 48
-106 18z"/>
<path d="M7312 7402 c-26 -4 -88 -64 -95 -93 -8 -31 36 -76 83 -84 40 -7 80 0
80 14 0 5 -23 11 -51 14 -56 7 -79 20 -79 46 0 26 47 65 78 67 16 0 28 7 30
16 3 18 -13 25 -46 20z"/>
<path d="M11075 7391 c-53 -24 -69 -44 -61 -77 9 -35 102 -78 170 -79 69 0 70
21 1 28 -56 6 -135 42 -143 65 -5 16 80 54 102 46 12 -4 16 0 16 15 0 26 -29
27 -85 2z"/>
<path d="M12941 7379 c-62 -102 -17 -187 75 -143 38 18 82 69 86 100 5 32 -16
28 -35 -7 -25 -45 -56 -69 -90 -69 -39 0 -44 23 -19 83 26 62 14 87 -17 36z"/>
<path d="M2420 7390 c0 -6 11 -15 25 -20 47 -18 42 -82 -10 -116 -30 -20 -94
-15 -109 8 -8 14 -5 23 18 47 16 17 37 31 48 33 28 4 23 22 -7 26 -20 3 -35
-6 -61 -33 -37 -40 -42 -69 -18 -103 12 -18 25 -22 71 -22 51 0 58 3 94 39 45
45 51 83 18 125 -20 26 -69 37 -69 16z"/>
<path d="M7060 7393 c-24 -7 -80 -83 -80 -107 0 -33 19 -46 70 -46 81 0 154
71 135 130 -9 27 -31 31 -54 11 -28 -24 -26 -33 4 -25 14 3 25 4 25 1 0 -20
-26 -56 -50 -70 -34 -20 -100 -23 -100 -4 0 22 61 88 78 85 10 -2 17 4 17 12
0 15 -19 21 -45 13z"/>
<path d="M12427 7381 c-20 -10 -40 -15 -43 -10 -10 17 -24 9 -35 -18 -5 -16
-19 -47 -30 -70 -24 -49 -17 -74 12 -47 10 9 19 23 19 30 0 16 84 90 110 97
30 8 31 -4 10 -62 -25 -63 -25 -75 -4 -63 18 10 54 94 54 124 0 16 -27 38 -47
38 -5 0 -25 -9 -46 -19z"/>
<path d="M3372 7377 c-15 -18 -26 -90 -18 -121 3 -14 18 -33 31 -42 24 -15 29
-15 69 0 53 20 79 47 106 110 16 34 19 51 11 59 -13 13 -11 15 -44 -53 -28
-59 -67 -90 -111 -90 -29 0 -43 32 -32 75 4 16 2 25 -6 25 -6 0 -3 6 8 14 14
11 16 18 8 26 -8 8 -14 7 -22 -3z"/>
<path d="M9365 7345 c-11 -33 -14 -41 -29 -77 -15 -36 -15 -38 1 -38 20 0 53
69 53 108 0 25 -18 30 -25 7z"/>
<path d="M12190 7293 c-28 -62 -33 -102 -11 -89 12 8 51 92 58 127 10 52 -16
32 -47 -38z"/>
<path d="M11585 7250 c-3 -6 1 -13 10 -16 19 -8 30 0 20 15 -8 14 -22 14 -30
1z"/>
<path d="M13350 7235 c0 -8 6 -15 14 -15 7 0 19 7 26 15 11 13 8 15 -14 15
-16 0 -26 -5 -26 -15z"/>
<path d="M13594 7229 c-10 -17 13 -36 27 -22 12 12 4 33 -11 33 -5 0 -12 -5
-16 -11z"/>
<path d="M13480 6822 c0 -9 -30 -68 -67 -130 l-66 -112 -41 -1 c-64 -2 -101
-13 -101 -29 0 -8 5 -14 10 -14 6 1 34 5 63 8 l53 7 -26 -39 c-39 -60 -43
-101 -11 -140 27 -31 77 -62 102 -62 32 0 20 20 -23 42 -43 20 -48 27 -51 59
-2 23 6 55 20 85 l23 49 75 6 c41 3 71 6 65 7 -5 1 -3 7 5 12 11 7 7 10 -20
11 -19 1 -50 1 -67 0 -18 -2 -33 1 -33 4 0 4 29 56 65 116 36 61 65 116 65
124 0 8 -9 15 -20 15 -12 0 -20 -7 -20 -18z"/>
<path d="M13676 6757 c-43 -105 -103 -224 -147 -289 -69 -100 -46 -106 52 -13
73 68 117 86 99 41 -5 -14 -20 -47 -35 -75 -14 -28 -25 -59 -25 -70 0 -27 19
-37 26 -14 3 10 21 53 41 95 19 43 33 85 31 95 -4 24 -62 29 -94 8 -23 -15
-21 -9 19 72 24 48 50 106 57 128 7 22 16 44 21 50 13 14 11 45 -3 45 -7 0
-26 -33 -42 -73z"/>
<path d="M2573 6768 c-39 -42 -83 -108 -118 -178 -15 -30 -61 -106 -103 -168
-41 -62 -72 -116 -68 -119 13 -14 61 12 62 33 1 12 15 42 32 66 28 41 37 47
98 62 36 9 68 15 71 13 2 -2 -2 -36 -8 -76 -7 -39 -9 -74 -6 -77 14 -15 27 12
38 82 13 80 14 81 69 87 19 2 34 8 33 13 -3 14 -42 17 -57 5 -20 -17 -18 11
11 142 14 64 23 124 19 132 -9 25 -40 17 -73 -17z m25 -95 c-37 -169 -31 -158
-94 -172 -30 -7 -58 -11 -61 -8 -13 14 144 267 166 267 5 0 0 -39 -11 -87z"/>
<path d="M5365 6759 c-7 -39 -57 -187 -75 -219 -5 -9 -33 -19 -70 -25 -73 -12
-79 -30 -10 -29 28 1 50 0 50 -1 0 -2 -11 -27 -25 -57 -28 -61 -33 -118 -10
-118 10 0 15 10 15 28 0 15 13 55 30 90 l29 62 59 0 c51 0 60 3 65 19 3 11 2
22 -1 25 -9 10 -42 7 -42 -3 0 -5 -14 -9 -30 -9 -24 1 -30 5 -24 17 24 59 63
183 69 219 5 34 4 42 -8 42 -10 0 -18 -14 -22 -41z"/>
<path d="M2945 6770 c-4 -6 -4 -14 -1 -17 3 -3 -2 -22 -10 -42 -9 -20 -38
-100 -66 -178 -28 -79 -54 -143 -59 -143 -16 0 -10 -38 7 -44 21 -8 34 1 34
24 0 10 28 94 61 187 34 92 62 179 63 192 1 26 -18 39 -29 21z"/>
<path d="M2790 6740 c0 -11 -25 -97 -56 -190 -32 -96 -53 -177 -50 -186 11
-28 20 -7 75 166 29 91 57 175 62 188 13 34 11 42 -11 42 -13 0 -20 -7 -20
-20z"/>
<path d="M7657 6723 c-2 -5 -7 -25 -11 -46 -10 -55 -58 -160 -115 -256 -28
-47 -50 -90 -48 -95 2 -6 12 -12 23 -14 10 -1 36 -5 56 -8 43 -7 90 17 133 68
51 61 9 139 -63 118 -33 -9 -33 -9 -20 13 31 49 82 203 72 219 -6 10 -22 10
-27 1z m30 -279 c20 -52 -97 -136 -146 -105 -18 12 0 47 47 88 40 36 88 44 99
17z"/>
<path d="M10626 6661 c-9 -10 -32 -56 -52 -101 -44 -105 -42 -102 -66 -89 -51
27 -168 -49 -168 -108 0 -37 18 -53 67 -60 29 -4 44 0 65 16 29 23 104 156
133 236 10 28 29 64 42 82 12 17 23 34 23 37 0 13 -28 5 -44 -13z m-127 -220
c12 -7 9 -17 -13 -54 -28 -49 -50 -61 -90 -51 -49 12 -22 69 47 99 38 17 38
17 56 6z"/>
<path d="M12060 6625 c0 -10 7 -15 18 -13 21 4 19 22 -2 26 -10 2 -16 -3 -16
-13z"/>
<path d="M11481 6511 c-32 -51 -110 -116 -146 -122 -20 -4 -36 -49 -17 -49 5
0 36 18 70 39 33 22 59 34 56 26 -3 -7 -1 -23 6 -34 14 -27 54 -27 102 -1 31
16 38 17 48 5 16 -19 33 -9 25 15 -3 10 3 33 15 52 23 39 25 48 7 48 -8 0 -29
-18 -47 -41 -33 -42 -91 -74 -116 -65 -16 6 -7 40 29 112 24 47 26 64 7 64 -4
0 -21 -22 -39 -49z"/>
<path d="M11823 6549 c-26 -9 -30 -48 -14 -107 13 -44 -15 -75 -62 -70 -27 2
-31 7 -29 26 5 32 -26 29 -34 -4 -8 -33 18 -53 69 -54 52 0 102 47 93 88 -19
82 -19 92 -2 92 9 0 16 6 16 14 0 21 -11 25 -37 15z"/>
<path d="M3362 6507 c-43 -44 -54 -81 -30 -105 18 -18 60 -14 88 8 34 26 43
25 36 -5 -7 -26 17 -95 32 -95 16 0 22 13 11 26 -10 12 -8 102 3 169 2 13 -3
20 -12 20 -8 0 -21 6 -28 13 -25 23 -57 13 -100 -31z m89 -3 c12 -15 9 -21
-25 -50 -43 -37 -63 -42 -73 -18 -6 16 52 84 73 84 6 0 18 -7 25 -16z"/>
<path d="M2073 6500 c-39 -45 -39 -46 -14 -60 26 -14 49 -3 66 31 38 72 0 93
-52 29z"/>
<path d="M3633 6508 c-36 -37 -72 -111 -73 -146 0 -40 22 -19 42 39 23 68 65
109 113 109 36 0 47 13 19 24 -37 14 -71 5 -101 -26z"/>
<path d="M4378 6516 c-15 -13 -24 -27 -21 -30 4 -3 1 -6 -5 -6 -7 0 -12 7 -12
15 0 8 -7 15 -15 15 -8 0 -15 -9 -15 -19 0 -10 -13 -45 -30 -76 -34 -64 -36
-75 -16 -75 8 0 26 19 40 43 26 43 55 77 93 110 21 18 21 18 18 -15 -1 -18 -6
-32 -10 -30 -8 4 -55 -62 -55 -77 0 -22 19 -10 77 47 87 85 142 107 115 47 -9
-19 -9 -25 1 -25 6 0 4 -5 -6 -11 -19 -11 -47 -67 -47 -94 0 -31 26 -14 41 28
9 23 27 66 40 95 21 48 22 54 7 68 -14 15 -20 14 -64 -7 -27 -13 -52 -25 -56
-27 -3 -2 -8 7 -10 20 -4 32 -38 34 -70 4z"/>
<path d="M4691 6504 c-78 -67 -107 -167 -56 -200 25 -16 77 -12 103 8 6 6 12
8 12 4 0 -4 14 1 31 9 16 9 28 22 26 28 -5 14 -2 14 -79 -13 -67 -23 -90 -18
-86 18 2 20 11 28 40 36 43 13 105 60 113 86 9 28 -12 60 -39 60 -12 0 -41
-16 -65 -36z m73 -3 c7 -11 -69 -81 -89 -81 -22 0 -4 32 37 64 36 28 44 31 52
17z"/>
<path d="M9667 6518 c-47 -21 -49 -23 -44 -57 2 -20 10 -51 18 -68 12 -29 11
-35 -5 -50 -17 -17 -18 -17 -33 5 -21 30 -35 28 -31 -4 4 -36 29 -51 65 -38
37 13 51 54 34 97 -26 63 -25 76 3 87 14 5 38 15 53 21 21 8 24 12 12 20 -18
11 -16 12 -72 -13z"/>
<path d="M9850 6527 l-35 -12 0 -70 c0 -67 -1 -70 -29 -84 -27 -13 -30 -12
-47 10 -21 28 -34 20 -25 -15 8 -32 45 -43 87 -26 41 18 51 42 44 105 l-7 54
42 12 c33 10 46 10 62 0 24 -15 36 -6 22 17 -14 21 -67 25 -114 9z"/>
<path d="M4055 6478 c-30 -65 -31 -92 -4 -119 24 -24 57 -20 99 10 28 20 74
106 65 121 -12 19 -22 10 -44 -40 -26 -57 -72 -90 -97 -69 -19 16 -18 28 11
84 13 27 22 52 19 57 -12 18 -26 5 -49 -44z"/>
<path d="M6327 6504 c-75 -49 -99 -130 -52 -174 38 -36 194 -42 182 -7 -2 8
-23 11 -66 9 -98 -6 -132 28 -96 97 22 44 115 93 111 59 -2 -20 16 -25 27 -7
31 50 -41 65 -106 23z"/>
<path d="M7864 6505 c-61 -31 -104 -86 -104 -132 0 -30 5 -36 36 -49 21 -9 57
-14 87 -12 42 2 52 6 51 21 -1 9 2 17 7 17 5 0 9 5 9 10 0 16 -40 12 -46 -5
-7 -17 -50 -20 -88 -5 -44 16 -28 70 21 70 34 0 112 41 119 62 6 21 -11 48
-30 48 -7 0 -34 -11 -62 -25z m55 -20 c-9 -8 -79 -35 -79 -30 0 7 53 34 69 35
8 0 12 -2 10 -5z"/>
<path d="M12192 6505 c-29 -13 -59 -22 -66 -19 -8 3 -17 -3 -20 -14 -4 -11
-20 -37 -37 -58 -16 -21 -28 -42 -26 -48 8 -23 27 -14 55 26 28 40 111 98 142
98 7 0 2 -18 -14 -46 -29 -51 -33 -74 -13 -74 16 0 70 111 66 135 -6 28 -27
28 -87 0z"/>
<path d="M12367 6505 c-47 -33 -59 -71 -27 -97 27 -22 61 -23 100 -3 28 15 30
14 30 -4 0 -37 -22 -70 -51 -76 -76 -17 -159 -105 -159 -170 0 -83 129 -9 191
110 24 46 25 47 64 41 22 -2 50 -8 63 -12 16 -5 22 -2 22 9 0 22 -31 37 -75
37 -33 0 -36 2 -29 23 9 30 21 146 15 152 -11 11 -31 4 -31 -11 0 -22 -64 -84
-86 -84 -11 0 -26 4 -34 10 -12 7 -11 12 5 30 30 33 54 43 69 30 10 -8 15 -7
18 2 16 43 -30 50 -85 13z m46 -246 c-20 -35 -97 -109 -113 -109 -34 0 19 87
74 121 47 29 61 25 39 -12z"/>
<path d="M5000 6503 c-14 -9 -37 -27 -51 -40 -17 -16 -29 -21 -33 -14 -13 20
-23 11 -45 -38 -39 -91 -22 -95 54 -13 54 58 115 102 115 82 0 -6 -13 -40 -30
-77 -31 -68 -40 -128 -18 -121 7 3 15 18 19 34 3 16 20 62 38 102 18 41 30 80
27 88 -7 19 -46 18 -76 -3z"/>
<path d="M9360 6487 c-72 -48 -86 -112 -34 -164 21 -21 33 -24 77 -22 59 3
107 16 107 30 0 6 -24 7 -59 3 -76 -8 -105 -1 -119 31 -11 23 -10 25 16 25 35
0 88 33 97 59 8 27 -11 61 -34 61 -10 0 -33 -10 -51 -23z m50 -25 c0 -19 -37
-42 -66 -42 -21 0 -8 18 30 41 38 23 36 23 36 1z"/>
<path d="M13844 6492 c-55 -31 -73 -47 -98 -93 -31 -53 -32 -63 -6 -89 16 -16
33 -20 83 -19 117 1 211 27 163 45 -10 4 -21 3 -25 -2 -10 -14 -180 -18 -196
-4 -12 10 -12 16 2 45 14 29 21 33 65 37 56 6 98 38 98 75 0 19 -5 23 -27 23
-16 -1 -42 -9 -59 -18z m46 -26 c-8 -7 -28 -16 -45 -20 l-30 -6 35 20 c41 23
60 26 40 6z"/>
<path d="M5545 6488 c-60 -21 -65 -39 -34 -115 10 -26 10 -34 0 -47 -22 -26
-47 -19 -57 15 -11 37 -30 35 -27 -4 2 -38 20 -57 54 -57 59 0 85 59 54 121
-20 37 -14 45 35 60 22 7 40 18 40 26 0 15 -23 16 -65 1z"/>
<path d="M10115 6481 c-70 -45 -113 -111 -100 -151 13 -40 42 -45 148 -24 39
8 36 35 -3 29 -16 -3 -43 -7 -58 -9 -37 -6 -54 6 -50 35 2 20 10 25 48 29 76
10 119 47 105 90 -8 26 -50 26 -90 1z m42 -36 c-25 -22 -67 -34 -67 -20 0 9
64 45 80 45 10 -1 6 -9 -13 -25z"/>
<path d="M8675 6472 c-37 -23 -91 -83 -100 -112 -14 -45 34 -64 89 -35 36 19
35 20 34 -16 -1 -36 23 -64 48 -55 15 6 16 8 0 24 -22 25 -20 41 11 116 22 54
24 68 13 81 -17 20 -58 19 -95 -3z m60 -42 c-18 -35 -89 -90 -117 -90 -17 0
-17 2 -4 29 20 38 85 90 114 91 22 0 22 -1 7 -30z"/>
<path d="M11978 6463 c-34 -37 -51 -71 -44 -89 7 -18 26 -18 26 -1 0 7 14 32
31 56 38 50 27 77 -13 34z"/>
<path d="M3797 6450 c-73 -87 -16 -146 76 -79 l29 21 -7 -59 c-14 -132 -8
-123 -74 -123 -79 0 -94 -13 -92 -82 1 -68 20 -127 44 -142 15 -9 23 -6 43 19
14 17 39 60 57 97 l33 66 27 -16 c39 -24 47 -4 10 26 l-31 27 8 75 c9 75 4
157 -10 179 -4 7 -25 15 -47 18 -35 5 -42 2 -66 -27z m83 -4 c0 -24 -24 -56
-49 -64 -39 -14 -45 -4 -21 36 14 22 27 32 45 32 14 0 25 -2 25 -4z m-16 -288
c-19 -64 -72 -144 -86 -130 -11 11 -23 115 -15 136 5 12 20 16 57 16 49 0 51
-1 44 -22z"/>
<path d="M6561 6454 c-44 -36 -66 -81 -50 -100 18 -21 62 -17 103 11 21 14 34
20 31 15 -4 -6 -4 -27 -1 -46 9 -45 35 -46 33 -1 -1 17 2 49 6 70 7 32 6 37
-11 37 -10 0 -29 -11 -41 -24 -24 -26 -78 -52 -87 -43 -10 10 17 47 46 62 16
8 41 15 55 15 40 0 25 24 -17 28 -26 2 -43 -4 -67 -24z"/>
<path d="M8874 6445 c-77 -55 -89 -101 -33 -130 35 -19 102 -20 97 -3 -3 7
-20 15 -39 19 -67 10 -75 30 -31 71 34 32 65 48 92 48 31 0 19 24 -12 27 -16
1 -45 -12 -74 -32z"/>
<path d="M9063 6453 c-41 -26 -56 -46 -68 -90 -15 -54 81 -100 150 -73 27 11
28 13 10 20 -11 4 -32 5 -47 3 -37 -7 -78 20 -78 51 0 30 52 76 86 76 17 0 24
6 24 20 0 28 -28 25 -77 -7z"/>
<path d="M6880 6462 c-8 -3 -33 -19 -54 -36 -38 -30 -39 -30 -22 -4 21 32 2
52 -21 22 -27 -35 -63 -118 -56 -125 5 -4 39 19 77 52 70 59 86 68 86 49 0
-14 -30 -73 -40 -80 -9 -6 6 -50 17 -50 7 0 63 136 63 152 0 12 -34 26 -50 20z"/>
<path d="M4896 6236 c-67 -46 -70 -54 -52 -136 26 -113 24 -120 -39 -158 -30
-18 -55 -40 -55 -49 0 -10 6 -13 18 -10 9 3 26 8 37 12 11 3 29 0 39 -8 26
-19 13 -54 -49 -138 -95 -129 -113 -201 -62 -245 38 -33 127 -31 127 3 0 12
-8 13 -39 8 -55 -9 -81 7 -81 50 0 49 13 76 80 167 72 99 84 142 48 173 l-24
21 24 18 c24 18 24 22 17 90 -15 140 -14 147 24 173 48 33 77 38 97 19 22 -23
39 -9 21 17 -23 36 -73 33 -131 -7z"/>
<path d="M7163 6161 c-38 -70 -38 -71 -79 -71 -63 0 -104 -11 -104 -27 0 -12
13 -13 66 -9 64 5 65 5 58 -17 -10 -31 -7 -72 6 -96 21 -39 110 -69 110 -37 0
34 -11 45 -35 36 -42 -16 -66 33 -49 97 5 19 16 23 64 29 32 3 63 10 70 14 26
16 -1 26 -54 20 l-55 -6 32 58 c24 43 29 60 20 69 -9 9 -20 -5 -50 -60z"/>
<path d="M9652 6168 c3 -7 21 -16 41 -19 38 -6 62 -22 78 -50 7 -15 0 -24 -46
-55 -74 -49 -117 -101 -112 -136 3 -21 -1 -28 -17 -30 -28 -4 -32 -50 -12
-132 22 -87 11 -142 -42 -198 -30 -32 -48 -35 -74 -11 -24 21 -34 10 -20 -22
9 -20 19 -25 46 -25 27 0 41 9 74 44 54 59 68 111 52 191 -26 129 -27 125 14
125 39 0 48 18 21 40 -8 7 -15 16 -15 21 0 17 67 84 118 116 64 41 66 61 13
114 -33 33 -45 39 -81 39 -29 0 -40 -4 -38 -12z"/>
<path d="M8890 6144 c-6 -14 -10 -28 -10 -32 0 -4 -12 -37 -27 -75 l-27 -69
-60 4 c-37 2 -61 -1 -63 -8 -4 -12 40 -24 88 -24 26 0 27 -2 22 -37 -3 -21
-12 -42 -20 -46 -18 -11 1 -37 27 -37 14 0 18 11 22 55 3 30 7 57 9 60 3 2 34
10 69 17 35 7 65 19 68 26 4 14 -23 15 -84 3 l-41 -8 33 92 c18 51 30 96 27
99 -12 12 -24 5 -33 -20z"/>
<path d="M6512 6066 c-44 -50 -58 -100 -38 -131 9 -14 28 -28 42 -31 32 -8 98
2 102 16 2 5 8 7 14 4 6 -4 9 -1 7 5 -5 14 -5 14 -63 6 -67 -10 -75 3 -24 36
57 37 76 70 60 104 -18 38 -62 34 -100 -9z m73 -16 c0 -16 -72 -76 -81 -67 -8
7 32 74 49 80 18 8 32 2 32 -13z"/>
<path d="M8151 6044 c-19 -25 -44 -66 -56 -90 -25 -51 -30 -49 -63 29 -21 48
-52 64 -52 27 0 -11 5 -20 10 -20 6 0 10 -6 10 -13 0 -23 59 -107 75 -107 10
0 25 21 39 53 29 65 85 132 110 132 11 0 21 6 24 13 2 7 -2 10 -12 6 -9 -3
-16 -1 -16 5 0 26 -38 7 -69 -35z"/>
<path d="M3010 6067 c-14 -7 -41 -19 -60 -27 -56 -21 -70 -39 -70 -84 l-1 -41
-16 30 c-9 17 -22 48 -28 70 -14 47 -42 55 -37 11 4 -33 66 -161 83 -172 23
-14 38 25 32 82 -6 52 -5 54 23 64 16 6 42 18 58 26 16 8 42 14 57 14 35 0 46
16 20 29 -25 14 -31 14 -61 -2z"/>
<path d="M5416 6026 c-42 -41 -65 -94 -51 -116 11 -18 49 -11 88 15 l37 26 0
-23 c0 -33 15 -52 35 -44 14 5 15 9 5 21 -10 12 -10 25 -1 61 12 48 8 61 -28
92 -24 20 -39 14 -85 -32z m79 -26 c-9 -14 -85 -70 -96 -70 -15 0 4 35 40 73
30 32 37 35 49 23 8 -8 11 -19 7 -26z"/>
<path d="M2113 6045 c-21 -9 -42 -32 -62 -67 -36 -61 -39 -93 -12 -108 15 -8
29 -3 70 24 l51 35 0 -27 c0 -47 11 -72 31 -72 11 0 19 1 19 3 0 1 -4 16 -9
32 -5 17 -4 60 1 98 13 96 -10 117 -89 82z m57 -28 c0 -33 -100 -131 -116
-114 -8 7 31 79 52 98 32 28 64 36 64 16z"/>
<path d="M2375 6041 c-16 -10 -39 -28 -49 -40 -15 -16 -21 -18 -27 -9 -14 23
-30 -6 -39 -72 -5 -35 -7 -67 -4 -71 7 -12 34 1 34 17 0 19 37 93 59 118 9 10
33 27 54 37 21 11 35 24 32 29 -9 15 -27 12 -60 -9z"/>
<path d="M6001 6041 c-47 -47 -49 -109 -5 -137 28 -19 54 -12 100 28 36 32 47
78 19 78 -8 0 -15 -9 -15 -19 0 -24 -45 -61 -75 -61 -41 0 -40 44 3 93 25 28
0 45 -27 18z"/>
<path d="M2570 6036 c-33 -18 -71 -86 -63 -114 7 -27 36 -37 64 -22 17 10 23
9 30 -1 11 -17 8 -178 -3 -185 -4 -3 -21 2 -37 11 -43 22 -85 19 -118 -9 -26
-23 -28 -29 -28 -104 0 -66 4 -86 21 -109 30 -40 56 -40 88 -1 14 18 30 38 36
44 5 7 16 29 25 50 9 22 26 46 37 56 17 12 19 19 11 30 -5 7 -8 24 -6 38 5 24
11 146 12 238 1 30 5 42 16 42 22 0 18 17 -7 34 -27 19 -45 20 -78 2z m55 -26
c3 -5 3 -10 -2 -10 -4 0 -15 -13 -25 -29 -9 -16 -26 -34 -37 -40 -18 -10 -21
-9 -21 9 0 22 50 80 69 80 5 0 13 -4 16 -10z m-76 -315 c16 -8 31 -25 33 -39
3 -14 2 -23 -3 -20 -4 2 -17 -15 -27 -38 -11 -24 -33 -56 -50 -72 l-30 -28
-13 23 c-7 13 -13 55 -14 92 0 57 3 71 19 83 25 18 50 18 85 -1z"/>
<path d="M5621 6013 c-30 -36 -50 -97 -37 -111 13 -12 41 15 42 41 1 36 30 77
54 77 11 0 20 7 20 15 0 30 -47 17 -79 -22z"/>
<path d="M6706 5993 c-20 -32 -36 -62 -36 -69 0 -25 16 -22 59 13 25 20 51 41
58 46 9 6 11 0 7 -25 -4 -24 0 -40 14 -58 24 -30 40 -20 24 15 -9 19 -8 35 3
72 8 26 15 51 15 56 0 17 -35 5 -72 -25 -33 -25 -38 -28 -29 -11 6 12 11 26
11 32 0 25 -21 7 -54 -46z"/>
<path d="M8297 6029 c-40 -21 -97 -91 -97 -119 0 -51 78 -92 134 -70 37 14 33
32 -6 29 -57 -4 -77 1 -86 19 -13 24 4 68 21 54 18 -15 137 41 137 65 0 45
-42 54 -103 22z m63 -23 c-17 -15 -81 -39 -88 -32 -5 6 69 45 88 46 13 0 13
-2 0 -14z"/>
<path d="M6250 6033 c-18 -3 -35 -21 -62 -66 -20 -35 -33 -66 -28 -71 5 -5 30
14 59 45 49 52 50 53 40 21 -18 -53 1 -54 64 -6 72 54 89 56 80 12 -3 -18 -10
-41 -14 -50 -11 -20 -1 -50 14 -45 20 6 41 115 28 143 -14 31 -27 30 -85 -6
-40 -26 -47 -28 -46 -13 4 32 0 43 -12 42 -7 -1 -24 -4 -38 -6z"/>
<path d="M8560 6033 c-33 -13 -79 -56 -94 -88 -19 -39 -10 -74 26 -99 33 -24
128 -20 128 5 0 5 -21 9 -46 9 -60 0 -84 14 -84 48 0 38 60 97 88 88 25 -8 38
10 22 29 -13 16 -17 17 -40 8z"/>
<path d="M5799 6002 c-94 -64 -79 -169 16 -113 l35 20 1 -27 c2 -30 2 -28 -6
-74 -12 -68 -25 -96 -44 -91 -10 2 -34 -2 -54 -10 -29 -13 -38 -23 -47 -57
-20 -73 5 -124 50 -100 19 10 80 96 80 113 0 5 9 7 20 4 10 -3 24 1 30 8 8 10
6 15 -10 20 -15 5 -19 12 -15 23 23 61 32 183 15 226 -10 27 -40 36 -40 12 0
-8 -12 -24 -27 -36 -25 -20 -28 -20 -31 -5 -5 21 36 65 59 65 26 0 32 17 11
29 -14 7 -25 6 -43 -7z m1 -323 c0 -27 -56 -103 -70 -94 -4 2 -4 21 -1 42 4
26 14 41 31 50 31 16 40 16 40 2z"/>
<path d="M9021 5950 c-32 -31 -41 -47 -41 -74 0 -18 7 -39 15 -46 21 -17 71
-15 101 5 20 13 24 24 24 63 0 104 -29 120 -99 52z m67 -45 c4 -42 -8 -55 -50
-55 -37 0 -38 34 -1 72 34 36 47 31 51 -17z"/>
<path d="M9227 5984 c-4 -4 -7 -16 -7 -26 0 -10 -9 -36 -20 -58 -23 -44 -26
-80 -7 -80 6 0 28 23 46 51 45 67 72 85 100 67 28 -17 38 -3 16 22 -22 24 -58
26 -76 4 -11 -14 -14 -13 -29 6 -9 11 -19 18 -23 14z"/>
<path d="M6256 5423 c-3 -4 -6 -15 -6 -25 0 -26 -60 -201 -74 -215 -6 -6 -44
-18 -83 -25 -56 -10 -71 -16 -64 -26 6 -11 20 -11 66 -3 32 6 61 9 63 6 3 -3
-4 -33 -16 -68 -28 -80 -32 -122 -12 -122 9 0 17 15 21 40 4 22 18 69 31 105
l23 65 53 10 c63 12 65 31 5 28 -24 -1 -43 1 -43 4 0 2 13 41 29 86 40 116 43
134 27 140 -8 3 -17 3 -20 0z"/>
<path d="M6437 5418 c-11 -40 -72 -208 -111 -305 -25 -61 -46 -119 -46 -127 0
-29 28 -17 39 16 18 51 59 104 96 124 19 10 37 15 40 12 4 -4 -3 -38 -16 -76
-21 -66 -21 -102 0 -102 5 0 11 12 14 28 2 15 13 57 23 94 18 65 18 68 1 85
-17 17 -20 17 -59 -5 -23 -12 -43 -21 -44 -19 -2 1 17 52 40 112 48 120 58
166 39 172 -7 3 -15 -1 -16 -9z"/>
<path d="M13400 5393 c-6 -16 -24 -65 -42 -111 l-31 -83 -59 7 c-48 5 -58 4
-58 -9 0 -11 15 -17 51 -22 35 -5 49 -11 45 -20 -25 -66 -45 -150 -37 -158 13
-13 31 0 31 22 0 9 10 46 21 80 l22 64 69 -7 c68 -6 69 -6 66 16 -3 20 -8 22
-61 19 -67 -3 -66 -5 -26 88 10 24 19 49 19 55 0 6 7 24 15 40 15 28 13 46 -6
46 -5 0 -14 -12 -19 -27z"/>
<path d="M11036 5333 c-16 -31 -37 -77 -46 -102 -18 -47 -32 -56 -104 -66 -33
-5 -51 -19 -42 -33 3 -6 26 -4 58 4 28 8 53 13 54 11 1 -1 -9 -36 -22 -77 -26
-81 -27 -115 -4 -115 8 0 14 6 12 13 -1 7 9 50 23 96 24 78 28 84 56 90 17 3
49 3 70 0 31 -5 39 -3 39 9 0 17 -77 34 -106 23 -23 -9 -12 30 32 117 31 63
35 87 15 87 -4 0 -20 -25 -35 -57z"/>
<path d="M9353 5308 c-56 -86 -58 -88 -100 -88 -41 0 -63 -9 -63 -26 0 -10 12
-12 50 -7 50 6 51 6 41 -19 -9 -25 -14 -65 -12 -106 1 -33 59 -88 105 -100 40
-12 86 -1 86 19 0 8 -4 8 -15 -1 -10 -9 -15 -9 -15 -1 0 6 -15 11 -34 11 -52
0 -96 46 -96 101 0 23 5 57 12 75 10 28 17 33 66 43 31 6 71 11 91 11 42 0 71
15 56 28 -10 10 -121 1 -165 -13 l-24 -8 18 29 c10 16 29 43 42 61 26 34 29
48 14 58 -5 3 -31 -27 -57 -67z"/>
<path d="M2656 5283 c-36 -113 -68 -196 -83 -211 -16 -17 -16 -22 2 -46 19
-26 25 -19 51 67 12 39 36 112 53 162 36 103 36 105 17 105 -9 0 -24 -28 -40
-77z"/>
<path d="M2775 5337 c-2 -6 -25 -73 -50 -147 -46 -130 -61 -208 -40 -210 5 -1
15 21 21 47 6 26 32 107 57 180 37 108 43 132 31 137 -8 3 -16 0 -19 -7z"/>
<path d="M3855 5319 c-4 -18 -29 -89 -56 -160 -27 -70 -49 -137 -49 -149 0
-38 26 -20 39 28 7 26 30 90 51 143 48 118 59 169 37 169 -9 0 -18 -13 -22
-31z"/>
<path d="M5295 5288 c-8 -21 13 -70 28 -65 15 5 10 47 -8 66 -12 13 -15 13
-20 -1z"/>
<path d="M13842 5264 c2 -11 11 -20 22 -22 13 -3 17 1 14 14 -2 11 -11 20 -22
22 -13 3 -17 -1 -14 -14z"/>
<path d="M10144 5206 c-18 -46 37 -268 67 -274 15 -3 49 55 49 81 0 7 21 46
46 87 58 94 60 100 38 100 -20 -1 -105 -139 -119 -195 -8 -29 -9 -28 -27 30
-10 33 -20 84 -22 113 -3 57 -20 88 -32 58z"/>
<path d="M2468 5191 c-9 -15 -16 -17 -25 -9 -17 14 -75 2 -107 -23 -33 -26
-53 -88 -37 -118 12 -22 68 -30 87 -11 6 6 9 -2 9 -22 0 -18 7 -35 17 -41 22
-14 33 -4 20 19 -12 22 2 75 33 123 29 44 40 86 26 95 -6 4 -16 -2 -23 -13z
m-40 -60 c6 -40 -83 -103 -102 -72 -12 19 16 70 47 85 39 19 51 16 55 -13z"/>
<path d="M3313 5135 c7 -80 26 -128 56 -144 27 -15 41 6 41 60 0 45 1 48 33
54 17 4 47 16 65 26 18 10 42 19 53 19 10 0 19 7 19 15 0 22 -36 19 -89 -7
-25 -12 -60 -21 -78 -21 l-33 1 0 -61 -1 -62 -16 29 c-9 18 -16 57 -17 98 -1
60 -3 68 -20 68 -17 0 -18 -6 -13 -75z"/>
<path d="M4460 5190 c-27 -27 -25 -44 10 -107 17 -29 30 -61 30 -72 0 -45 -82
-58 -88 -13 -4 27 -26 24 -30 -4 -8 -52 86 -76 128 -34 28 28 25 72 -11 135
-26 47 -29 58 -18 71 10 13 25 15 66 10 42 -5 53 -3 53 8 0 31 -110 36 -140 6z"/>
<path d="M12032 5188 c-74 -36 -115 -103 -96 -157 11 -31 59 -40 103 -18 27
13 28 13 39 -15 6 -15 18 -28 27 -28 12 0 15 5 10 18 -12 27 -8 47 21 111 16
37 24 67 19 78 -6 17 -7 17 -20 0 -10 -15 -14 -15 -18 -3 -12 31 -42 36 -85
14z m66 -38 c16 -25 6 -46 -43 -89 -59 -52 -112 -35 -86 27 14 31 76 82 100
82 9 0 22 -9 29 -20z"/>
<path d="M12294 5197 c-70 -41 -159 -207 -111 -207 7 0 24 25 36 56 38 90 97
148 126 124 18 -15 31 6 15 25 -15 18 -38 19 -66 2z"/>
<path d="M14545 5203 c-72 -16 -85 -24 -85 -54 0 -20 12 -43 40 -73 22 -24 40
-48 40 -55 0 -20 -78 -13 -100 9 -24 24 -40 26 -40 5 0 -20 39 -55 64 -56 114
-8 137 33 66 114 -22 25 -40 50 -40 56 0 14 62 24 99 16 24 -5 31 -3 31 9 0 8
-9 20 -19 26 -20 10 -23 11 -56 3z"/>
<path d="M5462 5155 c-29 -20 -51 -30 -50 -23 2 6 -4 13 -12 15 -20 4 -87
-164 -72 -179 15 -15 30 -2 37 32 7 32 136 160 161 160 22 0 18 -88 -6 -135
-24 -47 -25 -55 -4 -55 34 0 74 146 51 190 -18 36 -45 35 -105 -5z"/>
<path d="M8527 5135 c-61 -59 -61 -59 -40 18 6 24 -22 33 -55 17 -15 -8 -32
-13 -38 -12 -7 2 -17 -12 -23 -30 -7 -18 -23 -50 -36 -70 -28 -43 -31 -58 -11
-58 8 0 28 22 45 48 17 27 43 59 57 73 l27 24 -7 -25 c-16 -63 -18 -100 -6
-100 6 0 41 28 76 62 l65 62 -26 -59 c-29 -65 -29 -98 -1 -103 15 -3 18 0 13
18 -3 13 4 45 18 77 53 119 29 143 -58 58z"/>
<path d="M12440 5163 c-91 -48 -126 -148 -69 -195 39 -33 209 -17 209 19 0 10
-5 13 -17 8 -10 -4 -50 -10 -89 -12 -68 -5 -73 -4 -88 18 -20 31 -11 69 14 62
25 -7 86 14 133 44 31 19 38 29 35 51 -4 40 -57 42 -128 5z m100 -12 c0 -11
-73 -47 -120 -61 -32 -9 -32 -9 -14 12 33 37 134 74 134 49z"/>
<path d="M13136 5180 c-63 -19 -84 -73 -51 -130 8 -14 14 -37 15 -52 0 -35
-20 -36 -77 -4 -39 23 -63 20 -48 -4 7 -12 99 -60 114 -60 38 0 54 81 26 130
-33 58 -5 97 61 87 26 -4 34 -2 34 9 0 8 -4 13 -9 10 -5 -3 -11 1 -15 9 -6 17
-9 17 -50 5z"/>
<path d="M4240 5173 c-52 -20 -100 -86 -100 -136 0 -40 6 -49 50 -76 42 -25
59 -26 105 -4 40 19 50 50 13 38 -53 -17 -86 -17 -112 0 -36 24 -32 42 11 50
45 8 103 63 103 98 0 32 -30 45 -70 30z m31 -51 c-13 -24 -74 -55 -80 -41 -4
14 16 34 54 53 34 18 41 15 26 -12z"/>
<path d="M6620 5162 c-44 -22 -80 -75 -80 -119 0 -55 58 -100 120 -94 34 4 99
33 104 48 10 26 0 27 -47 4 -55 -26 -87 -27 -121 0 -36 28 -34 49 5 49 63 0
120 60 104 109 -8 26 -38 27 -85 3z m60 -22 c0 -21 -49 -60 -75 -60 -23 0 -25
2 -15 21 7 11 26 27 43 34 39 17 47 18 47 5z"/>
<path d="M7426 5125 c-62 -61 -86 -117 -67 -153 16 -30 56 -38 96 -19 33 16
34 15 37 -6 5 -39 31 -26 33 18 1 22 12 63 25 91 l23 52 -22 36 c-32 52 -59
48 -125 -19z m98 -8 c12 -33 -15 -89 -60 -123 -35 -27 -56 -30 -73 -10 -9 11
-9 22 2 48 16 38 96 120 112 115 5 -2 14 -15 19 -30z"/>
<path d="M9050 5168 c-14 -5 -38 -21 -55 -36 -16 -15 -24 -20 -17 -11 10 14
10 18 -2 22 -8 3 -19 0 -24 -6 -19 -25 -72 -125 -72 -136 0 -27 32 -7 85 54
31 36 60 65 65 65 5 0 -1 -22 -13 -50 -17 -41 -19 -54 -9 -75 18 -40 82 -55
82 -19 0 8 -10 14 -24 14 -38 0 -39 27 -5 102 34 73 31 93 -11 76z"/>
<path d="M10465 5159 c-68 -36 -100 -77 -99 -127 1 -61 26 -84 95 -84 59 0
109 15 109 33 0 8 -13 9 -42 4 -46 -8 -106 -7 -120 1 -4 3 -8 18 -8 35 0 24 4
29 26 29 31 0 61 15 97 48 29 28 34 51 15 70 -17 17 -27 15 -73 -9z m45 -26
c0 -12 -64 -53 -81 -53 -8 1 1 13 21 30 33 29 60 39 60 23z"/>
<path d="M3879 5148 c-23 -42 -38 -119 -29 -143 28 -73 163 -20 190 76 16 55
13 79 -10 79 -13 0 -19 -6 -18 -17 6 -76 -33 -133 -92 -136 l-35 -2 1 48 c0
32 7 56 22 77 27 36 27 40 2 40 -10 0 -25 -10 -31 -22z"/>
<path d="M8107 5162 c-3 -4 -12 -31 -21 -59 -14 -43 -15 -59 -6 -88 13 -39 41
-59 70 -50 47 15 134 145 112 167 -15 15 -29 3 -35 -29 -8 -34 -83 -117 -98
-108 -31 20 -30 64 5 146 7 16 -19 36 -27 21z"/>
<path d="M8719 5143 c-36 -30 -68 -94 -69 -135 0 -15 11 -39 23 -54 19 -21 32
-27 61 -26 43 2 105 29 113 49 9 24 -3 25 -43 4 -54 -29 -101 -28 -116 3 -14
32 -4 56 24 56 53 0 95 20 113 53 38 72 -38 107 -106 50z m81 -22 c0 -25 -17
-38 -64 -46 -36 -7 -38 -7 -27 13 25 46 91 70 91 33z"/>
<path d="M10681 5149 c-80 -35 -98 -143 -31 -179 18 -10 63 -7 113 7 9 2 17
11 17 20 0 10 6 13 18 8 12 -4 14 -3 6 5 -7 7 -20 7 -40 1 -86 -27 -124 -17
-124 32 0 48 75 106 115 90 13 -4 16 -1 13 13 -4 25 -36 26 -87 3z"/>
<path d="M7715 5151 c-12 -5 -27 -16 -34 -25 -11 -13 -16 -14 -22 -4 -4 7 -11
9 -15 5 -8 -7 -25 -102 -28 -149 -2 -48 18 -33 40 28 32 94 60 124 115 124 29
0 18 25 -12 27 -13 1 -33 -2 -44 -6z"/>
<path d="M3551 5115 c-49 -44 -67 -85 -51 -114 14 -27 54 -27 96 -2 31 19 32
19 26 -1 -4 -15 -1 -19 14 -16 12 2 21 16 26 42 12 56 -3 66 -46 28 -71 -62
-115 -52 -66 16 31 43 70 57 70 26 0 -20 24 -13 28 8 4 18 -23 48 -44 48 -8 0
-31 -16 -53 -35z"/>
<path d="M5244 5133 c-3 -10 -17 -44 -31 -76 -24 -58 -25 -93 0 -85 6 3 13 13
15 24 4 26 45 117 56 125 12 9 -2 29 -20 29 -8 0 -17 -8 -20 -17z"/>
<path d="M11332 5125 c-17 -14 -34 -25 -39 -25 -9 0 -43 -85 -43 -107 0 -31
28 -8 58 47 35 65 61 84 98 77 28 -5 43 11 23 24 -26 16 -67 9 -97 -16z"/>
<path d="M13582 5130 c-18 -11 -38 -20 -45 -20 -14 0 -70 -128 -61 -141 9 -15
24 -10 31 9 11 28 82 121 101 131 9 5 30 7 46 4 26 -5 27 -4 17 16 -15 26 -46
27 -89 1z"/>
<path d="M13911 5119 c-49 -35 -79 -92 -60 -115 16 -19 28 -18 35 4 17 49 37
84 59 98 35 23 48 9 41 -42 -6 -47 7 -66 23 -35 16 29 13 87 -5 105 -23 23
-46 20 -93 -15z"/>
<path d="M14136 5131 c-17 -11 -36 -32 -44 -46 -12 -23 -11 -30 3 -51 12 -19
24 -24 58 -24 23 0 53 7 65 16 l22 15 0 -85 0 -84 -36 10 c-48 13 -61 6 -73
-39 -26 -94 -4 -188 42 -181 29 4 77 76 84 125 l5 41 34 -14 c72 -30 91 -5 19
27 l-45 20 0 107 c0 59 -4 113 -9 121 -11 17 -41 7 -41 -13 0 -20 -31 -36 -70
-36 -26 0 -31 3 -28 21 2 12 16 31 31 43 27 20 29 20 38 3 15 -26 31 -20 27
11 -4 35 -41 41 -82 13z m91 -297 c16 -42 -48 -165 -68 -132 -12 18 -11 101 0
131 8 20 15 24 36 19 15 -2 29 -11 32 -18z"/>
<path d="M11159 5113 c-2 -4 -20 -20 -39 -34 -49 -36 -78 -92 -61 -113 23 -28
64 -19 110 23 39 36 42 43 39 83 -2 35 -7 44 -24 46 -12 2 -24 -1 -25 -5z
m-10 -99 c-33 -34 -59 -44 -59 -22 0 7 19 32 43 56 38 39 42 41 45 21 3 -14
-8 -33 -29 -55z"/>
<path d="M13754 5073 c-4 -16 -13 -41 -21 -56 -18 -36 -10 -68 11 -46 18 18
45 100 39 116 -8 22 -22 15 -29 -14z"/>
<path d="M7839 5059 c-32 -35 -37 -64 -13 -97 17 -24 53 -29 86 -11 19 10 20
9 13 -43 -10 -86 -24 -121 -44 -112 -29 13 -99 16 -120 5 -46 -25 -11 -210 41
-219 24 -5 66 42 95 105 23 50 25 51 58 46 45 -7 47 14 4 29 -25 8 -29 15 -25
32 4 11 11 46 16 76 6 30 15 81 21 112 11 55 10 59 -12 83 -35 36 -83 34 -120
-6z m87 -7 c17 -6 20 -11 13 -29 -4 -12 -19 -29 -33 -39 -49 -31 -85 10 -46
52 24 25 31 26 66 16z m-43 -291 c10 -10 -36 -112 -59 -132 -23 -19 -43 8 -51
68 -9 77 -2 87 54 79 26 -3 51 -10 56 -15z"/>
<path d="M8408 4604 c-52 -27 -88 -135 -88 -259 0 -71 6 -66 -92 -85 -38 -8
-58 -16 -58 -26 0 -17 8 -17 89 0 l64 14 -6 -53 c-9 -88 -80 -208 -117 -198
-23 6 -26 -5 -7 -31 17 -24 39 -13 74 37 50 70 75 128 80 187 4 43 9 57 21 56
24 -2 25 22 1 29 -21 7 -21 11 -17 99 6 102 27 166 66 196 32 26 36 25 50 -5
15 -32 32 -32 32 -2 0 26 -28 57 -51 57 -8 -1 -26 -8 -41 -16z"/>
<path d="M6682 4504 c-6 -20 -8 -43 -5 -52 4 -9 2 -13 -4 -9 -6 4 -13 2 -15
-3 -2 -7 -15 -5 -35 5 -45 22 -78 11 -139 -49 -48 -47 -52 -55 -59 -112 -6
-52 -3 -66 16 -100 12 -21 29 -46 36 -55 12 -14 8 -26 -28 -89 -44 -75 -58
-148 -31 -157 8 -3 12 5 12 24 0 32 24 89 64 151 23 37 28 41 51 32 32 -12
114 12 155 46 43 37 60 75 60 136 0 45 -5 59 -35 97 -40 50 -41 55 -20 104 19
45 19 67 2 67 -8 0 -19 -16 -25 -36z m-98 -100 c4 -11 13 -14 31 -10 14 4 25
4 25 1 0 -5 -39 -78 -97 -183 -19 -34 -38 -60 -43 -57 -5 3 -18 25 -29 49 -18
36 -20 51 -12 85 12 53 34 87 74 111 39 24 43 24 51 4z m121 -64 c24 -34 27
-46 21 -85 -7 -56 -30 -89 -75 -111 -45 -22 -111 -31 -111 -15 0 15 123 251
131 251 4 0 19 -18 34 -40z"/>
<path d="M7095 4485 c-16 -8 -56 -14 -87 -15 -32 0 -76 -7 -98 -16 -38 -15
-40 -18 -38 -58 1 -22 -2 -56 -7 -73 l-7 -33 48 0 c81 -1 154 -44 154 -92 0
-8 -12 -33 -27 -56 -49 -75 -146 -92 -243 -42 -26 13 -40 27 -40 40 0 11 -4
20 -8 20 -16 0 -44 -39 -39 -53 9 -24 94 -57 165 -63 93 -9 149 15 192 82 38
61 39 102 3 137 -34 31 -92 57 -131 57 -28 0 -28 1 -28 50 1 49 2 51 36 60 19
6 55 10 79 10 65 0 121 19 121 42 0 21 -4 21 -45 3z"/>
<path d="M8555 4390 c-9 -15 3 -30 25 -30 17 0 37 17 29 24 -13 11 -48 15 -54
6z"/>
<path d="M9189 4253 c-27 -42 -61 -51 -67 -18 -6 32 -22 45 -54 45 -54 0 -126
-53 -115 -85 9 -21 28 -19 34 3 5 22 53 52 81 52 14 0 21 -9 25 -29 8 -38 41
-57 73 -42 27 12 78 87 69 101 -11 17 -21 11 -46 -27z"/>
<path d="M7711 4235 c-34 -39 -36 -60 -5 -60 12 0 18 6 16 17 -3 18 33 48 58
48 8 0 22 -15 30 -33 18 -39 53 -46 105 -21 44 20 62 49 44 70 -10 12 -15 10
-30 -15 -11 -18 -30 -32 -49 -36 -17 -4 -32 -5 -33 -3 -1 1 -9 17 -17 33 -12
24 -23 31 -51 33 -31 3 -41 -2 -68 -33z"/>
<path d="M8666 4225 c-21 -19 -42 -35 -47 -35 -12 0 -39 -55 -39 -80 0 -30 16
-24 46 18 37 50 76 92 85 92 5 0 9 -30 11 -67 2 -54 6 -68 20 -71 15 -3 16 5
11 75 -8 114 -23 125 -87 68z"/>
<path d="M8471 4179 c-16 -46 -14 -109 3 -109 9 0 15 18 19 52 4 28 11 56 17
62 15 15 12 26 -9 26 -12 0 -23 -11 -30 -31z"/>
</g>
</svg>
