<?xml version="1.0" standalone="no"?>
<!DOCTYPE svg PUBLIC "-//W3C//DTD SVG 20010904//EN"
 "http://www.w3.org/TR/2001/REC-SVG-20010904/DTD/svg10.dtd">
<svg version="1.0" xmlns="http://www.w3.org/2000/svg"
 width="1872.000000pt" height="716.000000pt" viewBox="0 0 1872.000000 716.000000"
 preserveAspectRatio="xMidYMid meet">

<g transform="translate(0.000000,716.000000) scale(0.100000,-0.100000)"
fill="#000000" stroke="none">
<path d="M11369 6598 c-41 -43 -130 -181 -152 -236 -9 -23 -17 -55 -17 -71 0
-29 -32 -60 -75 -71 -11 -3 -20 -12 -20 -20 0 -24 35 -24 68 0 l30 23 16 -21
c19 -24 73 -52 100 -52 22 0 54 27 46 40 -3 4 -14 6 -25 3 -29 -8 -67 4 -91
28 l-21 21 59 61 c71 74 106 131 128 213 29 105 10 140 -46 82z m7 -88 c-21
-69 -55 -126 -106 -175 l-42 -40 20 50 c23 60 131 229 140 220 2 -2 -4 -27
-12 -55z"/>
<path d="M2241 6598 c-5 -13 -23 -70 -42 -128 -40 -130 -76 -220 -96 -242 -17
-19 -10 -38 13 -38 19 0 54 79 107 240 l40 125 22 -150 c23 -159 36 -201 67
-211 59 -18 176 200 203 379 7 43 6 47 -14 47 -15 0 -21 -6 -21 -23 0 -84 -84
-299 -136 -348 l-24 -22 -14 34 c-7 19 -21 97 -31 174 -20 156 -28 185 -50
185 -9 0 -19 -10 -24 -22z"/>
<path d="M11821 6578 c-4 -13 -23 -67 -42 -120 l-33 -98 -38 0 c-20 0 -40 -5
-44 -11 -10 -17 17 -30 48 -23 l26 5 -18 -73 c-12 -46 -16 -76 -10 -82 17 -17
31 8 46 80 8 37 16 69 18 71 3 4 38 9 69 12 4 1 7 8 7 16 0 10 -10 15 -30 15
-16 0 -30 3 -30 6 0 4 16 51 36 105 19 55 32 104 29 109 -10 17 -25 11 -34
-12z"/>
<path d="M5718 6574 c-4 -3 -4 -29 -1 -57 6 -64 -12 -198 -32 -241 -9 -18 -28
-40 -44 -49 -25 -15 -30 -15 -41 -2 -17 20 3 67 41 100 31 25 36 40 18 51 -13
8 -65 -40 -85 -78 -29 -56 -9 -118 38 -118 33 0 85 38 102 75 25 52 37 135 34
231 -3 79 -12 107 -30 88z"/>
<path d="M12035 6572 c-10 -7 -30 -36 -41 -59 -8 -17 2 -43 16 -43 6 0 14 10
19 23 5 12 19 30 31 40 17 15 19 21 10 33 -14 16 -20 17 -35 6z"/>
<path d="M7326 6561 c-3 -5 -12 -40 -20 -78 -8 -38 -33 -107 -55 -153 -23 -46
-41 -92 -41 -102 0 -32 28 -19 60 27 28 41 65 75 81 75 4 0 0 -22 -8 -50 -18
-61 -14 -104 10 -108 14 -3 17 2 15 25 -1 16 4 49 11 74 18 65 12 94 -19 93
-14 -1 -33 -5 -44 -9 -16 -7 -17 -5 -8 11 17 31 53 184 47 194 -8 12 -22 13
-29 1z"/>
<path d="M5017 6554 c-3 -4 -4 -32 0 -64 7 -68 -17 -159 -53 -207 -32 -42 -59
-45 -49 -5 8 34 32 72 45 72 13 0 13 27 -1 35 -26 17 -79 -66 -79 -123 0 -57
49 -70 92 -24 55 59 72 109 73 216 0 92 -8 120 -28 100z"/>
<path d="M9757 6553 c-4 -3 -7 -14 -7 -24 0 -10 -12 -47 -26 -81 -24 -59 -28
-63 -57 -63 -38 0 -45 -28 -9 -33 25 -4 25 -3 12 -37 -26 -68 -16 -124 25
-143 27 -13 35 -7 35 25 0 16 -6 23 -20 23 -25 0 -26 28 -4 93 14 41 20 47 43
47 15 0 36 7 47 15 16 12 17 16 5 24 -9 5 -24 6 -38 0 -12 -5 -23 -7 -23 -5 0
1 11 31 25 65 15 35 23 71 20 82 -7 20 -17 24 -28 12z"/>
<path d="M17508 6516 c-20 -25 -34 -32 -51 -29 -17 3 -37 -8 -75 -42 -60 -54
-83 -108 -63 -151 10 -22 8 -31 -10 -60 -20 -33 -20 -64 1 -64 5 0 16 15 24
34 13 30 18 34 54 34 105 2 177 109 126 187 -16 24 -15 26 15 54 31 29 42 72
19 70 -7 0 -25 -15 -40 -33z m-74 -94 c5 -9 -56 -106 -74 -117 -6 -4 -10 6
-10 24 0 20 11 43 31 66 31 35 44 42 53 27z m60 -37 c12 -48 -46 -115 -99
-115 -13 0 -10 8 13 38 16 20 37 52 48 70 22 39 30 40 38 7z"/>
<path d="M5264 6529 c-3 -6 -7 -39 -9 -74 -4 -95 -41 -183 -82 -199 -29 -12
-25 26 7 59 18 18 29 38 26 44 -13 20 -45 11 -60 -16 -35 -65 -37 -75 -21 -99
51 -79 165 55 165 193 0 25 4 42 9 38 15 -9 23 13 12 34 -13 23 -38 34 -47 20z"/>
<path d="M13301 6508 c-4 -13 -18 -50 -31 -83 -53 -142 -77 -224 -68 -239 17
-31 35 -17 41 32 3 26 24 97 47 159 31 83 47 112 62 116 28 8 17 31 -15 35
-21 3 -29 -2 -36 -20z"/>
<path d="M15720 6490 c-19 -37 -22 -39 -36 -25 -22 22 -27 20 -77 -29 -53 -51
-64 -89 -43 -140 15 -35 14 -37 -25 -105 -42 -73 -47 -96 -25 -104 17 -7 26 1
26 22 0 9 15 41 33 71 32 53 34 54 75 52 96 -7 167 110 111 183 -21 26 -21 28
-5 62 16 33 14 53 -4 53 -5 0 -19 -18 -30 -40z m-78 -129 c-21 -34 -42 -58
-45 -54 -12 12 -7 53 9 79 18 27 67 57 72 44 2 -4 -15 -35 -36 -69z m98 -8 c0
-25 -8 -43 -29 -64 -30 -29 -47 -35 -68 -21 -8 5 1 28 29 75 33 54 43 65 54
56 8 -6 14 -27 14 -46z"/>
<path d="M16005 6509 c-16 -5 -52 -10 -80 -12 -36 -2 -50 -7 -50 -17 0 -11 13
-15 48 -15 38 0 45 -2 31 -10 -27 -16 -56 -45 -52 -55 2 -5 19 -19 38 -32 46
-31 49 -58 10 -92 -33 -27 -55 -33 -65 -16 -3 6 -17 10 -31 10 -21 0 -25 -4
-22 -22 3 -20 10 -23 56 -26 50 -3 55 -1 93 36 48 49 49 74 5 118 l-33 33 54
36 c35 23 53 42 51 52 -4 21 -16 23 -53 12z"/>
<path d="M16450 6492 c-75 -3 -100 -10 -100 -26 0 -20 19 -24 80 -16 30 4 56
7 57 5 2 -1 -20 -12 -47 -25 -61 -29 -63 -48 -7 -75 37 -18 42 -25 45 -57 3
-32 -1 -39 -27 -52 -43 -22 -62 -20 -87 11 l-21 27 -12 -22 c-25 -46 63 -85
125 -56 74 35 87 105 29 159 l-34 33 28 12 c35 14 75 55 67 68 -8 14 -33 17
-96 14z"/>
<path d="M16700 6476 c-27 -73 -69 -236 -64 -251 9 -23 40 -14 36 10 -1 11 13
70 31 131 18 61 31 116 29 122 -6 20 -22 14 -32 -12z"/>
<path d="M17081 6481 c-20 -13 -6 -45 17 -36 33 14 47 15 61 6 35 -23 -49
-124 -132 -160 -47 -20 -72 -45 -62 -61 9 -15 21 -13 65 15 l40 25 0 -33 c0
-53 48 -85 98 -66 33 13 72 48 72 66 0 20 -19 16 -52 -13 -42 -35 -71 -29 -82
18 -9 35 -7 40 31 81 43 47 73 96 73 120 0 38 -88 64 -129 38z"/>
<path d="M17663 6453 c-8 -21 -37 -82 -65 -137 -27 -54 -48 -106 -46 -115 5
-25 31 -19 39 9 3 14 32 77 63 140 31 63 56 121 56 127 0 28 -32 11 -47 -24z"/>
<path d="M13431 6415 c-44 -36 -85 -73 -90 -82 -6 -10 -11 -15 -11 -10 0 12
-57 -20 -63 -36 -3 -8 -1 -20 3 -27 7 -11 13 -10 34 3 29 19 72 22 111 7 26
-10 27 -13 24 -77 -3 -43 0 -67 7 -70 15 -5 23 16 30 82 6 48 4 56 -19 79 -15
14 -38 26 -52 26 -14 0 -25 5 -25 10 0 6 38 40 85 77 78 61 94 83 60 83 -7 0
-49 -29 -94 -65z"/>
<path d="M17870 6460 c0 -5 -6 -7 -13 -4 -8 3 -30 -13 -50 -36 -27 -29 -37
-49 -37 -74 0 -26 -9 -43 -40 -74 -44 -43 -53 -88 -24 -116 55 -56 180 29 173
118 -2 21 3 39 14 51 10 9 24 30 33 47 15 28 14 32 -8 64 -22 32 -48 45 -48
24z m19 -44 c10 -11 9 -21 -3 -45 -13 -25 -21 -29 -51 -28 -19 1 -35 5 -35 9
0 10 61 78 70 78 4 0 13 -6 19 -14z m-52 -177 c-18 -44 -78 -79 -101 -60 -21
18 -20 24 10 60 26 31 82 55 97 41 5 -4 2 -23 -6 -41z"/>
<path d="M4061 6411 c-12 -16 -21 -33 -21 -39 0 -5 -9 -20 -19 -34 -35 -44 -2
-109 53 -107 44 1 101 23 101 40 0 14 -9 14 -72 3 -18 -4 -39 -4 -48 0 -14 5
-12 10 11 31 15 14 30 25 34 25 19 0 41 52 35 81 -9 40 -46 40 -74 0z m19 -55
l-23 -21 19 33 c10 18 20 28 23 21 2 -6 -7 -21 -19 -33z"/>
<path d="M5393 6403 c-38 -41 -76 -128 -68 -155 11 -35 35 -58 61 -58 33 0 55
11 47 23 -4 6 0 8 11 4 10 -4 15 -3 11 3 -3 6 1 13 9 16 9 3 13 10 10 15 -3 5
-19 2 -35 -7 -44 -22 -73 -15 -77 19 -3 23 0 27 20 27 16 0 34 14 56 42 34 44
39 67 20 86 -19 19 -37 14 -65 -15z m25 -43 c-7 -11 -16 -20 -20 -20 -5 0 -3
9 4 20 7 11 16 20 20 20 5 0 3 -9 -4 -20z"/>
<path d="M2790 6406 c-63 -23 -38 -51 27 -31 l22 7 -20 -62 c-24 -70 -16 -94
23 -68 21 14 23 13 43 -16 23 -35 55 -44 77 -22 25 24 81 177 70 188 -16 16
-29 1 -48 -55 -36 -110 -64 -135 -74 -66 -4 29 -9 34 -31 34 l-27 -1 15 40 c7
22 11 46 9 53 -7 16 -40 16 -86 -1z"/>
<path d="M4690 6398 c-37 -14 -78 -57 -85 -89 -14 -63 38 -90 96 -48 16 11 30
16 30 10 1 -6 2 -17 3 -23 1 -17 35 -23 49 -9 7 7 5 16 -7 30 -14 15 -16 29
-11 63 6 40 4 44 -22 59 -21 12 -35 14 -53 7z m40 -55 c0 -12 -69 -73 -82 -73
-16 0 -7 44 13 66 21 23 69 28 69 7z"/>
<path d="M8942 6390 c-22 -10 -45 -28 -51 -39 -6 -11 -17 -18 -25 -15 -19 7
-30 -14 -17 -30 8 -10 7 -25 -4 -57 -14 -38 -14 -45 -1 -57 13 -13 17 -11 30
19 9 19 20 53 26 77 14 56 58 85 113 76 37 -6 48 5 25 23 -25 20 -57 20 -96 3z"/>
<path d="M3672 6369 c-43 -25 -50 -34 -41 -45 10 -12 19 -10 57 11 24 14 48
25 53 25 4 0 -3 -25 -17 -55 -46 -105 -17 -144 48 -64 l33 41 12 -31 c27 -65
103 -15 103 67 0 15 5 33 12 40 17 17 -4 36 -31 27 -16 -5 -19 -12 -15 -34 3
-16 -2 -44 -12 -67 l-17 -39 -10 43 c-12 52 -35 55 -71 10 -29 -37 -34 -32
-10 13 8 17 14 42 12 57 -4 38 -41 38 -106 1z"/>
<path d="M11983 6375 c-37 -16 -47 -42 -39 -100 8 -52 -4 -64 -41 -40 -16 11
-28 14 -35 7 -15 -15 27 -52 58 -52 58 0 77 34 54 94 -13 35 -3 56 31 63 35 7
47 22 28 34 -18 11 -18 11 -56 -6z"/>
<path d="M2577 6373 c-3 -5 -12 -32 -20 -61 -25 -83 1 -134 58 -112 27 10 65
64 65 94 0 37 -88 104 -103 79z m57 -66 c8 -13 7 -24 -4 -45 -31 -54 -64 -19
-40 42 11 29 27 30 44 3z"/>
<path d="M6460 6373 c-26 -10 -51 -37 -71 -75 -23 -45 -23 -43 -3 -63 18 -18
74 -12 112 11 20 13 22 13 22 -4 0 -34 59 -69 93 -56 22 8 9 34 -18 34 -36 0
-46 20 -34 67 10 36 8 44 -12 67 -22 25 -54 32 -89 19z m57 -71 c-15 -19 -63
-42 -87 -42 -22 0 -22 0 -3 32 26 45 60 61 82 39 13 -11 15 -20 8 -29z"/>
<path d="M11493 6335 c-35 -37 -43 -52 -43 -83 0 -46 27 -65 81 -60 46 4 47
33 2 33 -47 1 -64 21 -24 30 29 6 81 55 81 76 0 21 -21 49 -37 49 -9 0 -36
-20 -60 -45z m42 -25 c-10 -11 -23 -20 -28 -20 -6 0 0 11 13 25 27 29 42 25
15 -5z"/>
<path d="M8153 6357 c-12 -7 -31 -24 -43 -39 -13 -17 -29 -27 -42 -25 -28 3
-36 -23 -9 -30 12 -3 21 -13 21 -25 0 -10 12 -31 26 -45 23 -23 31 -25 77 -20
62 6 107 25 107 45 0 11 -6 12 -27 6 -16 -5 -53 -8 -83 -9 -52 0 -55 1 -58 27
-3 21 0 26 15 22 20 -5 80 30 96 58 24 37 -33 62 -80 35z m28 -37 c-22 -19
-41 -26 -41 -15 0 5 51 34 60 34 3 0 -6 -9 -19 -19z"/>
<path d="M9380 6359 c0 -6 -23 -33 -51 -60 -28 -27 -48 -49 -43 -49 5 0 -7 -8
-26 -19 -35 -18 -46 -41 -24 -48 7 -2 24 7 40 20 28 24 28 24 44 4 15 -18 18
-19 47 -3 18 9 39 26 47 38 l16 22 1 -24 c1 -14 0 -35 0 -47 -2 -24 34 -42 52
-24 7 7 5 16 -8 31 -17 18 -18 27 -8 73 7 30 7 56 2 61 -10 11 -48 -21 -81
-70 -37 -54 -42 -39 -8 21 30 52 34 85 10 85 -5 0 -10 -5 -10 -11z"/>
<path d="M12894 6354 c-16 -9 -39 -24 -51 -36 l-21 -20 -4 28 c-3 26 -7 29
-36 27 -22 -1 -44 -11 -62 -28 -20 -19 -29 -23 -33 -13 -7 21 -42 -5 -43 -33
0 -13 -6 -41 -13 -61 -14 -42 -7 -66 14 -48 7 6 28 35 45 64 35 57 90 101 90
72 0 -9 -10 -36 -22 -61 -17 -35 -19 -48 -10 -57 9 -9 19 -5 42 17 16 16 30
34 31 39 0 13 89 89 96 83 2 -2 -2 -24 -8 -49 -13 -46 -8 -78 11 -78 5 0 10 8
10 18 0 9 7 35 15 57 19 54 18 72 -3 84 -13 7 -27 5 -48 -5z"/>
<path d="M7529 6358 c-1 -2 -3 -14 -4 -28 -2 -14 -8 -42 -13 -64 -16 -61 5
-96 57 -96 28 0 61 43 61 80 0 26 -9 41 -42 72 -36 33 -55 44 -59 36z m61 -94
c12 -31 -2 -54 -31 -54 -13 0 -19 7 -19 24 0 58 33 77 50 30z"/>
<path d="M7905 6348 c-11 -6 -30 -20 -42 -31 -20 -18 -23 -18 -23 -4 0 23 -31
38 -54 25 -11 -6 -28 -11 -39 -12 -12 -1 -23 -13 -32 -38 -7 -21 -20 -49 -29
-63 -9 -13 -16 -31 -16 -40 0 -33 28 -12 68 50 41 65 70 86 58 43 -27 -97 -18
-99 62 -18 32 33 66 60 75 60 16 0 16 -3 -3 -40 -11 -21 -20 -49 -20 -60 0
-36 30 -19 47 25 26 71 27 87 8 102 -22 16 -34 16 -60 1z"/>
<path d="M9061 6320 c-24 -47 -27 -92 -7 -110 23 -19 85 16 102 57 16 37 7 65
-26 83 -33 18 -47 11 -69 -30z m69 -25 c0 -15 -38 -55 -52 -55 -13 0 -9 24 8
48 17 25 44 29 44 7z"/>
<path d="M13067 6332 c-44 -30 -77 -80 -68 -106 9 -24 50 -33 79 -17 17 9 21
7 26 -13 6 -24 31 -40 47 -30 13 7 11 34 -2 34 -7 0 -9 16 -4 50 8 60 -6 66
-47 20 -14 -16 -36 -30 -47 -30 -20 0 -21 1 -6 23 14 23 39 38 78 51 10 3 17
12 15 19 -7 19 -41 19 -71 -1z"/>
<path d="M13603 6330 c-60 -36 -81 -115 -44 -161 15 -19 28 -24 63 -23 53 1
138 37 138 58 0 20 1 20 -60 -4 -67 -26 -106 -26 -120 1 -14 25 -17 21 42 47
49 21 76 57 65 86 -9 22 -45 20 -84 -4z m47 -25 c0 -2 -15 -12 -32 -20 l-33
-16 24 21 c22 19 41 26 41 15z"/>
<path d="M9920 6305 c-61 -45 -73 -85 -39 -129 17 -22 28 -26 72 -26 60 0 167
44 150 61 -7 7 -24 5 -54 -5 -73 -24 -118 -30 -134 -16 -23 19 -19 26 29 44
59 23 72 39 58 71 -15 32 -39 32 -82 0z m50 -19 c0 -2 -7 -7 -16 -10 -8 -3
-12 -2 -9 4 6 10 25 14 25 6z"/>
<path d="M16814 6249 c-8 -14 11 -33 25 -25 6 4 11 14 11 22 0 16 -26 19 -36
3z"/>
<path d="M16089 6219 c-16 -31 7 -52 27 -25 8 11 14 26 14 33 0 21 -28 15 -41
-8z"/>
<path d="M10396 6136 c-7 -18 -30 -49 -50 -69 -37 -38 -43 -51 -26 -62 25 -15
131 129 115 155 -11 18 -25 10 -39 -24z"/>
<path d="M2462 6099 c-26 -10 -24 -35 2 -33 11 1 15 -4 12 -15 -3 -9 -14 -54
-25 -101 -11 -47 -32 -118 -46 -159 -43 -126 -28 -148 49 -76 27 25 52 45 55
45 3 0 5 -20 3 -45 -3 -36 -1 -45 12 -45 15 0 19 11 29 75 6 34 -7 65 -27 65
-7 0 -31 -16 -54 -36 -23 -19 -42 -31 -42 -26 0 5 9 35 20 68 30 87 62 229 58
260 -3 31 -13 36 -46 23z"/>
<path d="M2254 6059 c-18 -20 -18 -21 -1 -34 16 -12 16 -17 -11 -86 -16 -41
-32 -82 -35 -91 -5 -14 -18 -18 -56 -18 -46 0 -72 -13 -56 -28 3 -4 26 -7 51
-7 l44 0 0 -51 c0 -67 13 -78 80 -69 55 8 68 18 50 40 -14 17 -50 20 -50 5 0
-5 -11 -10 -25 -10 -19 0 -25 5 -25 23 0 50 11 66 49 73 70 13 80 46 11 37
l-41 -6 21 54 c55 141 61 161 56 174 -8 22 -40 18 -62 -6z"/>
<path d="M13920 5994 c-6 -14 -18 -55 -27 -91 -20 -79 -33 -93 -87 -93 -47 0
-78 -22 -59 -41 8 -8 17 -8 31 0 11 6 33 11 47 11 21 0 26 -4 21 -16 -16 -41
-28 -105 -22 -119 9 -25 24 -9 36 38 18 70 38 107 59 107 31 0 51 11 51 27 0
12 -7 14 -30 10 -16 -4 -30 -5 -30 -4 0 1 11 44 25 95 30 110 29 102 10 102
-9 0 -20 -12 -25 -26z"/>
<path d="M4129 6003 c0 -5 -3 -46 -5 -92 -8 -141 -58 -246 -114 -239 -50 6
-27 79 31 100 34 12 37 45 4 40 -107 -18 -133 -182 -29 -182 37 0 89 53 113
117 31 78 43 263 17 263 -9 0 -16 -3 -17 -7z"/>
<path d="M13412 5955 c-43 -49 -112 -172 -112 -201 0 -22 -66 -85 -113 -108
-40 -18 -47 -33 -21 -43 9 -3 36 9 67 30 51 36 52 36 60 14 20 -55 90 -90 133
-66 13 7 24 19 24 27 0 11 -9 12 -40 7 -34 -6 -43 -3 -65 19 -14 14 -25 33
-25 43 0 11 23 43 50 72 50 53 145 225 134 242 -14 23 -54 7 -92 -36z m9 -72
c-32 -62 -86 -133 -74 -98 8 24 91 155 98 155 3 0 -8 -26 -24 -57z"/>
<path d="M16626 5991 c-4 -5 -3 -16 0 -25 3 -8 -2 -40 -11 -71 -16 -56 -16
-56 -53 -53 -27 2 -37 -1 -37 -12 0 -9 11 -16 28 -18 15 -2 27 -5 27 -7 0 -1
-16 -36 -35 -76 -40 -86 -55 -144 -35 -137 16 5 18 8 71 126 23 51 48 92 56
92 23 0 89 47 122 87 17 20 31 34 31 30 0 -5 -27 -57 -61 -117 -78 -139 -71
-159 31 -95 75 48 82 47 74 -15 -5 -41 -4 -50 9 -50 23 0 45 103 27 125 -18
22 -48 19 -98 -10 l-44 -25 28 48 c50 83 103 187 104 200 0 29 -43 7 -118 -62
-44 -41 -77 -77 -74 -81 4 -3 -2 -3 -11 1 -11 4 -16 13 -12 22 15 39 27 103
21 117 -6 16 -32 20 -40 6z"/>
<path d="M5836 5978 c-3 -7 -9 -42 -16 -77 -6 -35 -19 -78 -27 -96 -14 -29
-18 -32 -30 -19 -48 48 -165 -55 -135 -120 17 -37 80 -34 121 6 43 42 98 157
106 223 5 33 13 59 23 64 8 5 12 13 8 20 -10 15 -46 14 -50 -1z m-85 -233 c8
5 8 2 1 -11 -14 -26 -43 -50 -69 -58 -19 -6 -23 -3 -23 14 0 11 11 32 25 46
21 21 29 23 40 14 8 -6 19 -9 26 -5z"/>
<path d="M11925 5971 c-11 -18 5 -31 36 -31 24 0 30 4 27 18 -4 19 -52 29 -63
13z"/>
<path d="M8737 5963 c-4 -3 -7 -20 -8 -37 0 -17 -6 -55 -12 -85 -10 -46 -16
-55 -37 -58 -40 -6 -109 -52 -125 -83 -23 -44 -19 -87 9 -105 22 -15 28 -15
53 -2 35 19 53 39 86 101 28 50 72 238 63 262 -6 15 -19 18 -29 7z m-73 -265
c-21 -41 -54 -78 -70 -78 -44 0 -17 71 40 105 47 28 55 21 30 -27z"/>
<path d="M2674 5935 c-10 -25 10 -39 36 -25 26 14 22 34 -8 38 -13 2 -25 -3
-28 -13z"/>
<path d="M15310 5894 c-6 -14 -10 -29 -10 -33 0 -9 -50 -134 -56 -140 -2 -2
-12 3 -22 12 -16 15 -20 15 -49 -2 -30 -19 -73 -92 -73 -125 0 -28 19 -56 39
-56 20 0 84 65 118 120 33 55 96 218 89 235 -8 23 -25 18 -36 -11z m-93 -211
c3 -7 -14 -32 -37 -55 l-42 -43 6 32 c11 63 60 107 73 66z"/>
<path d="M9940 5895 c-10 -12 -10 -19 -2 -27 13 -13 42 6 42 28 0 19 -24 18
-40 -1z"/>
<path d="M15097 5893 c-4 -3 -7 -18 -7 -33 0 -41 -29 -130 -53 -163 -32 -43
-97 -73 -97 -45 0 19 51 67 65 62 18 -7 29 14 15 30 -15 20 -43 10 -80 -29
-55 -57 -36 -124 30 -105 62 18 114 78 139 161 7 24 20 59 29 77 14 29 14 35
1 43 -17 10 -33 12 -42 2z"/>
<path d="M3623 5835 c-33 -18 -43 -20 -43 -9 0 8 -5 14 -11 14 -21 0 -49 -21
-49 -37 0 -9 -14 -38 -31 -66 -22 -36 -27 -53 -19 -61 7 -7 23 3 57 37 44 46
103 93 103 84 0 -3 -12 -30 -26 -61 -24 -52 -25 -76 -4 -76 13 0 92 172 86
187 -7 18 -15 16 -63 -12z"/>
<path d="M12281 5843 c-19 -10 -52 -34 -74 -55 -34 -32 -38 -41 -32 -65 8 -35
40 -70 71 -77 30 -8 164 57 164 79 0 21 -13 19 -80 -15 -69 -35 -81 -36 -103
-12 -23 26 -22 29 16 36 49 9 117 56 117 81 0 23 -17 45 -34 45 -6 0 -26 -8
-45 -17z m39 -28 c0 -7 -63 -45 -75 -45 -5 0 6 11 25 25 34 24 50 30 50 20z"/>
<path d="M2805 5839 c6 -8 4 -10 -4 -5 -14 9 -51 -21 -51 -41 0 -8 11 -29 24
-46 32 -45 37 -64 19 -78 -12 -11 -18 -9 -33 11 l-18 23 -7 -23 c-10 -30 27
-64 59 -54 50 15 58 75 17 133 -27 37 -26 39 5 51 28 11 28 33 -1 38 -12 3
-15 0 -10 -9z"/>
<path d="M7424 5824 c-22 -15 -42 -32 -46 -38 -4 -6 -17 -11 -29 -11 -21 0
-22 -5 -23 -60 -1 -33 4 -62 9 -64 6 -2 23 22 38 54 39 80 86 117 101 79 8
-22 26 -8 26 21 0 41 -32 49 -76 19z"/>
<path d="M11821 5812 c-50 -48 -54 -81 -12 -123 32 -31 65 -37 94 -15 30 23
21 38 -18 30 -71 -13 -89 45 -29 93 31 25 34 31 21 41 -13 11 -22 6 -56 -26z"/>
<path d="M4245 5825 c-40 -21 -75 -64 -75 -95 0 -58 69 -124 117 -111 32 9
143 99 143 116 0 24 -18 18 -68 -24 -71 -59 -89 -66 -118 -47 -27 18 -39 54
-29 86 7 22 52 56 62 47 3 -4 -6 -11 -21 -17 -15 -5 -26 -16 -23 -23 7 -19 49
-9 76 17 19 20 21 27 12 45 -14 25 -35 26 -76 6z"/>
<path d="M5269 5820 c-50 -26 -89 -75 -89 -111 0 -19 11 -42 33 -65 26 -29 42
-37 80 -41 38 -5 47 -3 47 10 0 9 -13 17 -34 21 -78 15 -111 80 -63 123 29 27
66 46 91 47 12 1 22 9 24 19 5 24 -41 22 -89 -3z"/>
<path d="M7654 5830 c-12 -5 -41 -27 -64 -49 -40 -38 -42 -43 -37 -82 10 -76
88 -131 143 -102 42 21 74 54 74 75 0 27 -17 22 -56 -17 -42 -43 -57 -43 -95
-6 -43 43 -39 67 12 74 46 6 99 49 99 79 0 14 -40 42 -53 37 -1 0 -12 -4 -23
-9z m22 -49 c-14 -15 -66 -36 -66 -26 0 6 65 45 74 45 5 0 1 -9 -8 -19z"/>
<path d="M14038 5819 c-49 -25 -51 -31 -32 -79 15 -38 15 -43 1 -57 -14 -14
-17 -14 -32 1 -31 30 -55 39 -61 21 -6 -16 3 -26 54 -61 20 -15 24 -15 47 0
38 25 49 61 30 99 -8 16 -15 31 -15 32 0 2 16 10 35 19 19 9 35 21 35 25 0 18
-27 18 -62 0z"/>
<path d="M17341 5824 c-13 -9 -33 -17 -45 -18 -15 -1 -29 -16 -48 -56 -15 -30
-28 -63 -28 -72 0 -33 19 -28 47 14 15 23 43 57 60 76 28 29 37 33 63 27 25
-6 30 -4 30 13 0 34 -42 42 -79 16z"/>
<path d="M2625 5817 c-29 -95 -38 -117 -47 -117 -6 0 -6 -6 2 -15 20 -24 29
-18 49 28 30 69 35 103 16 111 -9 3 -17 0 -20 -7z"/>
<path d="M3734 5805 c-34 -52 -13 -134 37 -150 73 -23 100 115 29 147 -17 7
-30 16 -30 20 0 17 -20 7 -36 -17z m61 -45 c12 -13 15 -27 11 -45 -11 -44 -56
-24 -56 25 0 44 17 51 45 20z"/>
<path d="M5913 5811 c-41 -26 -64 -60 -70 -108 -4 -32 0 -42 21 -62 39 -36
110 -35 165 3 38 27 52 58 33 70 -5 3 -22 -8 -37 -24 -54 -57 -145 -50 -145
11 0 32 46 89 71 89 7 0 -2 -13 -21 -29 -27 -23 -32 -32 -23 -42 9 -9 21 -5
53 21 32 26 40 38 38 59 -4 34 -41 39 -85 12z"/>
<path d="M6785 5820 c-4 -6 -2 -17 5 -25 8 -10 4 -29 -19 -80 -29 -63 -32 -85
-11 -85 4 0 19 19 33 43 23 39 87 109 87 95 0 -4 -5 -19 -10 -34 -7 -19 -7
-30 1 -40 17 -21 24 -18 83 35 30 27 64 55 76 61 20 11 20 9 -5 -40 -29 -57
-30 -93 -2 -98 14 -3 18 1 15 15 -3 10 6 39 19 65 13 26 23 59 23 73 0 21 -5
25 -28 25 -30 0 -60 -17 -110 -64 l-34 -31 13 27 c22 50 -5 68 -59 39 -16 -9
-21 -7 -25 9 -5 21 -41 28 -52 10z"/>
<path d="M7178 5803 c-68 -75 -78 -127 -28 -156 26 -16 33 -16 64 -3 61 25 73
80 31 146 -14 22 -29 40 -33 40 -5 0 -20 -12 -34 -27z m52 -86 c0 -20 -7 -31
-25 -39 -53 -24 -65 32 -18 84 15 17 17 17 29 0 7 -9 14 -29 14 -45z"/>
<path d="M9560 5796 c-6 -19 -24 -53 -41 -75 -30 -42 -37 -71 -18 -71 11 0 53
39 61 57 7 16 71 68 66 53 -18 -53 -19 -60 -4 -66 8 -3 37 11 69 35 29 23 57
41 61 41 3 0 -1 -16 -9 -36 -20 -47 -19 -66 2 -62 18 3 57 104 48 125 -8 22
-50 14 -92 -16 l-39 -28 4 28 c4 26 1 29 -21 29 -14 0 -29 -5 -33 -12 -5 -7
-10 -4 -15 10 -12 32 -26 27 -39 -12z"/>
<path d="M16178 5801 c-31 -20 -49 -26 -56 -19 -12 12 -32 2 -32 -15 0 -7 -9
-30 -20 -51 -18 -37 -19 -56 -1 -56 4 0 34 27 68 60 33 33 66 60 73 60 14 0
13 -1 -43 -71 -36 -46 -38 -59 -8 -59 18 1 101 116 101 141 0 15 -18 39 -30
39 -3 0 -27 -13 -52 -29z"/>
<path d="M15880 5780 c-62 -62 -49 -119 25 -107 34 6 35 5 35 -29 0 -28 4 -34
21 -34 17 0 20 5 17 25 -3 14 1 51 8 83 20 80 13 102 -31 102 -27 0 -44 -9
-75 -40z m80 7 c0 -2 -7 -18 -16 -36 -18 -35 -33 -45 -61 -39 -15 4 -12 10 20
41 33 32 57 46 57 34z"/>
<path d="M17009 5781 c-22 -22 -47 -41 -56 -43 -25 -5 -28 -29 -4 -35 12 -3
21 -11 21 -19 0 -52 155 -58 209 -9 20 19 5 38 -19 25 -32 -17 -112 -29 -134
-20 -14 6 -16 9 -6 9 9 1 32 15 53 32 32 26 38 37 35 63 -2 26 -8 32 -31 34
-22 3 -37 -6 -68 -37z m61 -10 c0 -11 -40 -41 -54 -41 -5 0 1 11 14 25 24 26
40 32 40 16z"/>
<path d="M9846 5801 c-3 -5 -3 -16 0 -25 3 -9 -1 -27 -10 -41 -9 -13 -16 -31
-16 -40 0 -30 28 -14 51 30 18 34 21 49 13 62 -13 21 -30 27 -38 14z"/>
<path d="M16356 5803 c-4 -4 -15 -8 -23 -8 -11 0 -24 -20 -36 -55 -32 -89 -8
-137 53 -105 47 24 73 65 66 104 -5 31 -31 71 -46 71 -4 0 -10 -3 -14 -7z m24
-79 c0 -23 -46 -68 -60 -59 -9 6 3 57 22 93 11 22 13 22 25 6 7 -10 13 -28 13
-40z"/>
<path d="M5475 5767 c-45 -45 -54 -82 -27 -109 17 -18 24 -19 55 -9 60 20 95
78 73 122 -19 38 -60 37 -101 -4z m75 -22 c0 -9 -11 -27 -25 -40 -46 -47 -75
-23 -34 29 22 28 59 35 59 11z"/>
<path d="M8797 5787 c-6 -17 5 -74 21 -103 9 -18 3 -34 -39 -105 -52 -89 -65
-121 -54 -138 12 -20 23 -11 36 26 6 21 26 60 44 88 60 94 126 225 120 235
-12 19 -25 10 -47 -35 -12 -25 -25 -45 -29 -45 -8 0 -20 36 -22 64 -2 24 -23
32 -30 13z"/>
<path d="M9024 5783 c-4 -10 -17 -45 -30 -79 -13 -33 -24 -64 -24 -67 0 -21
31 0 82 55 60 65 78 70 59 17 -15 -43 -14 -79 2 -79 15 0 51 115 43 136 -9 25
-34 27 -69 6 -33 -19 -33 -19 -33 1 1 26 -22 34 -30 10z"/>
<path d="M10085 5786 c-64 -28 -86 -86 -49 -127 15 -16 29 -20 81 -18 69 2
106 19 87 39 -9 9 -17 9 -33 0 -31 -16 -102 -9 -115 12 -14 24 23 62 61 63 21
0 28 5 28 20 0 25 -21 28 -60 11z"/>
<path d="M13587 5779 c-15 -11 -37 -39 -48 -60 -19 -38 -19 -40 -2 -64 34 -45
83 -56 134 -30 41 22 27 37 -26 29 -65 -9 -71 2 -30 48 59 64 35 128 -28 77z
m23 -33 c0 -2 -8 -10 -17 -17 -16 -13 -17 -12 -4 4 13 16 21 21 21 13z"/>
<path d="M14681 5769 c-59 -58 -30 -118 48 -103 27 6 30 3 33 -22 2 -19 10
-30 22 -32 16 -4 18 0 13 26 -4 22 -1 37 13 55 11 14 20 30 20 35 0 19 -25 19
-49 1 -23 -18 -87 -36 -97 -27 -10 11 10 40 37 54 25 13 29 13 29 0 0 -20 19
-31 33 -17 7 7 7 18 -1 36 -17 36 -62 34 -101 -6z"/>
<path d="M9319 5783 c-39 -6 -73 -46 -65 -77 8 -31 40 -35 86 -11 28 15 30 14
30 -4 0 -22 27 -54 40 -46 12 7 -1 97 -18 123 -14 22 -21 23 -73 15z m31 -41
c0 -4 -13 -13 -30 -19 -32 -12 -41 -1 -12 16 21 12 42 14 42 3z"/>
<path d="M11100 5735 c-10 -12 -9 -16 3 -21 25 -9 51 0 55 19 4 22 -40 24 -58
2z"/>
<path d="M10915 5730 c-4 -7 -3 -16 1 -20 13 -12 66 0 61 14 -5 15 -53 20 -62
6z"/>
<path d="M10694 5705 c-7 -18 3 -35 21 -35 18 0 28 32 13 42 -19 11 -28 10
-34 -7z"/>
<path d="M12024 5699 c-9 -15 12 -33 30 -26 9 4 16 13 16 22 0 17 -35 21 -46
4z"/>
<path d="M12527 5643 c-4 -3 -7 -18 -7 -31 0 -16 -14 -39 -40 -63 -33 -32 -37
-39 -25 -49 18 -15 35 -3 77 54 29 41 38 96 15 96 -8 0 -17 -3 -20 -7z"/>
<path d="M8369 5543 c-1 -5 -2 -12 -3 -18 -1 -5 -21 -50 -45 -99 -23 -49 -45
-101 -48 -117 -5 -27 -8 -28 -72 -31 -51 -2 -66 -6 -66 -18 0 -10 8 -14 25
-12 14 2 40 0 58 -3 31 -6 32 -8 31 -48 -3 -58 14 -85 56 -93 45 -8 73 2 56
19 -12 12 -16 14 -50 16 -24 1 -35 32 -27 75 6 32 8 33 68 40 71 7 103 25 68
38 -13 5 -38 4 -59 -2 -72 -20 -72 -12 -1 135 34 71 45 104 38 113 -12 13 -27
16 -29 5z"/>
<path d="M3014 5498 c-15 -23 -37 -66 -50 -94 -17 -38 -29 -53 -46 -56 -28 -4
-31 -32 -3 -36 17 -2 20 -9 17 -50 -4 -58 9 -96 42 -117 21 -14 31 -15 61 -5
44 14 41 36 -4 32 -48 -5 -61 12 -61 79 l0 59 53 0 c57 0 84 11 72 30 -5 8
-24 10 -62 5 -54 -7 -55 -6 -48 17 4 12 24 54 46 92 36 64 41 86 19 86 -6 0
-22 -19 -36 -42z m36 -168 c0 -5 -2 -10 -4 -10 -3 0 -8 5 -11 10 -3 6 -1 10 4
10 6 0 11 -4 11 -10z"/>
<path d="M13088 5458 c-26 -87 -68 -180 -103 -228 -41 -56 -83 -96 -92 -87
-11 11 14 54 58 102 32 35 39 49 31 57 -24 24 -122 -94 -122 -148 0 -39 28
-61 58 -45 25 13 86 81 115 128 32 53 109 251 102 263 -14 23 -33 7 -47 -42z"/>
<path d="M15189 5493 c-1 -5 -1 -12 0 -17 2 -12 -68 -190 -106 -269 -18 -37
-33 -74 -33 -83 0 -22 34 -13 38 11 13 64 103 145 162 145 26 0 30 -4 30 -27
0 -16 -7 -41 -15 -57 -13 -25 -14 -32 -2 -43 20 -20 36 3 47 69 7 45 6 57 -10
80 l-19 26 53 31 c59 33 73 48 59 62 -5 5 -40 -10 -82 -35 -55 -33 -69 -45
-55 -49 16 -4 16 -5 -3 -6 -12 0 -38 -10 -57 -22 l-36 -21 14 39 c8 21 23 62
35 91 12 29 21 59 21 67 0 15 -39 22 -41 8z"/>
<path d="M7109 5418 c-18 -24 -57 -68 -85 -98 -130 -141 -152 -167 -168 -197
-9 -18 -16 -41 -16 -53 0 -33 28 -23 40 16 12 36 99 141 233 281 63 67 75 93
43 93 -7 0 -28 -19 -47 -42z"/>
<path d="M7396 5435 c-10 -15 -23 -61 -31 -103 -8 -42 -21 -99 -29 -127 -15
-48 -15 -50 10 -82 19 -25 33 -33 56 -33 37 0 95 41 108 76 13 32 -3 71 -34
85 -20 10 -31 8 -62 -11 l-37 -24 7 30 c5 16 12 55 16 87 5 32 16 69 24 82 9
14 16 29 16 35 0 19 -28 10 -44 -15z m82 -241 c6 -41 -84 -86 -104 -52 -9 15
64 80 86 76 8 -2 16 -13 18 -24z"/>
<path d="M11545 5420 c-8 -16 -15 -38 -15 -50 0 -11 -4 -20 -9 -20 -5 0 -13
-10 -16 -22 -4 -13 -25 -65 -47 -116 -53 -121 -42 -138 35 -56 30 33 58 56 61
53 3 -3 0 -26 -7 -50 -14 -49 -12 -79 6 -79 14 0 52 144 42 160 -9 15 -47 12
-72 -5 -21 -15 -21 -14 4 47 13 35 29 77 35 93 6 17 15 35 20 42 10 13 3 33
-12 33 -5 0 -16 -13 -25 -30z"/>
<path d="M11380 5410 c-8 -5 -15 -15 -15 -22 0 -8 -11 -35 -25 -60 -23 -44
-27 -47 -70 -50 -55 -4 -65 -31 -13 -36 l33 -3 -17 -32 c-20 -40 -23 -108 -4
-130 18 -22 63 -21 91 1 33 27 18 46 -21 27 -36 -19 -49 -13 -49 25 0 35 39
120 54 119 29 -3 46 2 46 16 0 8 -7 15 -15 15 -21 0 -19 10 16 64 37 59 31 93
-11 66z"/>
<path d="M14373 5358 c-12 -13 -37 -56 -58 -97 -32 -64 -35 -76 -22 -88 13
-13 17 -11 35 15 25 34 45 79 47 105 2 10 10 26 19 35 15 15 18 15 45 -1 41
-24 54 -2 17 30 -34 29 -57 29 -83 1z"/>
<path d="M2233 5359 c-42 -12 -78 -57 -97 -123 -18 -60 -20 -82 -8 -90 13 -8
29 7 35 34 20 85 29 107 52 128 16 14 39 22 61 22 28 0 35 4 32 17 -4 19 -32
24 -75 12z"/>
<path d="M14005 5353 c-27 -7 -82 -49 -101 -79 -15 -22 -15 -28 0 -67 21 -55
20 -69 -1 -65 -10 2 -18 12 -18 23 0 11 -7 20 -15 20 -10 0 -15 -11 -15 -35 0
-28 5 -36 27 -44 20 -7 33 -5 53 8 29 19 30 40 4 105 -14 33 -13 34 25 67 21
18 48 34 60 36 11 2 21 9 21 17 0 17 -12 21 -40 14z"/>
<path d="M16275 5340 c-30 -12 -65 -49 -65 -67 0 -10 15 -32 32 -50 27 -28 30
-35 18 -43 -23 -15 -52 -12 -66 8 -12 16 -14 16 -30 0 -9 -9 -14 -24 -11 -32
10 -27 110 -26 139 1 26 23 22 43 -14 80 -31 32 -31 33 -12 54 14 16 27 20 51
16 37 -6 51 6 33 28 -14 16 -44 18 -75 5z"/>
<path d="M12570 5327 c-79 -41 -133 -188 -79 -217 23 -13 99 15 99 36 0 17
-31 19 -47 3 -13 -13 -43 -5 -43 11 0 5 7 10 15 10 8 0 35 19 60 43 37 36 45
50 45 79 0 41 -16 52 -50 35z m11 -54 c-12 -23 -61 -69 -61 -58 0 13 50 75 61
75 6 0 6 -6 0 -17z"/>
<path d="M15908 5335 c-3 -3 -17 -8 -32 -11 -40 -7 -76 -23 -76 -33 0 -18 18
-21 47 -10 39 17 73 21 73 11 0 -5 -16 -30 -36 -56 -32 -42 -39 -76 -17 -76 4
0 28 14 53 30 l45 30 14 -35 c17 -43 52 -55 90 -32 35 21 49 51 53 122 2 48 0
60 -12 60 -11 0 -17 -17 -23 -65 -5 -48 -13 -70 -29 -83 -25 -21 -26 -20 -60
43 -14 24 -23 30 -38 25 -18 -6 -18 -4 -9 25 8 23 8 34 -1 45 -13 15 -32 20
-42 10z"/>
<path d="M4426 5298 c-34 -46 -58 -105 -51 -128 15 -47 79 -71 143 -54 38 11
18 29 -31 29 -29 1 -53 7 -63 16 -14 15 -13 17 14 28 52 22 71 50 63 96 -9 54
-39 59 -75 13z m41 -43 c-3 -7 -16 -19 -29 -26 -22 -12 -22 -11 -7 12 9 13 19
31 24 39 11 17 20 -3 12 -25z"/>
<path d="M14133 5324 c-6 -3 -26 -27 -43 -54 -39 -60 -38 -103 2 -133 23 -17
33 -19 55 -11 40 14 37 40 -4 36 -41 -4 -52 15 -16 29 15 6 38 20 51 31 47 45
12 125 -45 102z m27 -53 c0 -20 -14 -34 -42 -44 -15 -5 -14 -1 5 28 25 39 37
44 37 16z"/>
<path d="M2361 5306 c-6 -8 -11 -18 -10 -22 1 -5 -3 -22 -9 -37 -18 -44 -14
-76 13 -102 29 -30 45 -31 77 -5 58 45 58 117 1 142 -16 7 -35 18 -44 25 -13
11 -18 11 -28 -1z m79 -85 c0 -23 -28 -61 -45 -61 -22 0 -36 35 -26 63 8 20
15 23 40 19 20 -3 31 -10 31 -21z"/>
<path d="M12783 5298 c-18 -17 -25 -19 -37 -9 -13 11 -22 2 -61 -58 -42 -67
-55 -101 -37 -101 4 0 43 34 85 76 43 42 80 74 82 72 3 -3 -5 -32 -16 -66 -22
-66 -20 -108 5 -81 23 26 56 149 45 170 -13 25 -40 24 -66 -3z"/>
<path d="M13619 5263 c-38 -56 -87 -102 -109 -103 -35 0 -56 -50 -22 -50 9 0
30 8 47 18 29 18 30 18 40 -2 18 -36 50 -31 100 15 44 41 46 41 40 16 -11 -44
2 -79 28 -75 25 3 37 38 13 38 -13 0 -12 9 5 67 23 83 23 83 0 83 -10 0 -31
-17 -47 -37 -54 -72 -114 -114 -114 -81 0 7 18 38 41 70 37 54 45 88 20 88 -6
0 -25 -21 -42 -47z"/>
<path d="M15517 5295 c-15 -7 -29 -10 -32 -5 -10 16 -36 -2 -54 -39 -11 -20
-28 -45 -40 -55 -12 -11 -21 -25 -21 -33 0 -23 30 -14 57 17 23 28 113 97 113
87 0 -3 -11 -25 -25 -48 -27 -49 -32 -79 -12 -79 14 0 77 112 77 136 0 24 -34
34 -63 19z"/>
<path d="M3259 5260 c-34 -36 -37 -42 -28 -72 5 -18 16 -39 24 -48 22 -21 109
-20 131 2 22 22 10 42 -17 27 -29 -15 -93 -7 -97 12 -2 11 6 19 22 23 30 7 59
47 51 69 -13 33 -47 28 -86 -13z"/>
<path d="M5786 5285 c-53 -19 -77 -45 -83 -93 -5 -34 -2 -42 16 -51 23 -13 42
-6 98 36 27 20 32 21 26 6 -3 -10 -10 -23 -15 -30 -12 -15 9 -56 25 -50 11 3
18 28 33 118 6 32 3 38 -24 58 -17 11 -32 21 -34 21 -1 -1 -21 -7 -42 -15z
m48 -34 c9 -14 -88 -90 -100 -78 -3 3 0 18 8 33 18 39 78 68 92 45z"/>
<path d="M5993 5288 c-6 -7 -25 -41 -44 -75 -25 -47 -31 -65 -22 -74 9 -9 26
2 70 43 51 49 103 86 103 75 0 -3 -7 -21 -15 -40 -19 -47 -19 -69 1 -65 9 2
24 27 35 58 24 67 24 67 -1 80 -17 9 -30 6 -67 -14 -25 -14 -40 -19 -33 -11
12 14 6 35 -9 35 -5 0 -13 -6 -18 -12z"/>
<path d="M15690 5291 c0 -6 -14 -30 -31 -54 -50 -72 -17 -117 58 -80 47 23 60
64 35 108 -17 29 -62 48 -62 26z m40 -71 c0 -18 -27 -40 -49 -40 -17 0 -13 15
10 44 22 28 39 26 39 -4z"/>
<path d="M4824 5265 c-83 -49 -81 -153 1 -124 19 6 20 4 15 -40 -5 -45 -6 -46
-41 -49 -47 -4 -69 -29 -80 -89 -17 -91 13 -193 52 -178 22 8 54 68 74 137 9
32 20 60 25 63 4 3 6 22 3 43 -3 21 2 74 10 118 18 90 18 114 4 132 -13 16
-16 16 -63 -13z m19 -57 c-20 -35 -43 -48 -43 -24 0 16 37 56 53 56 5 0 1 -14
-10 -32z m-26 -196 c10 -6 8 -25 -8 -82 -34 -123 -57 -126 -58 -10 -1 76 28
116 66 92z"/>
<path d="M11746 5258 c-14 -18 -33 -40 -40 -48 -11 -12 -13 -25 -6 -54 13 -61
34 -67 128 -40 65 19 87 33 74 46 -6 6 -30 3 -63 -6 -67 -20 -99 -20 -99 -1 0
8 7 15 16 15 28 0 76 57 72 87 -5 43 -48 44 -82 1z m34 -33 c-7 -8 -17 -15
-23 -15 -5 0 -2 9 8 20 21 23 35 19 15 -5z"/>
<path d="M10238 5268 c-30 -11 -35 -32 -20 -98 9 -38 -2 -95 -20 -106 -15 -10
-48 32 -48 62 0 27 -24 33 -34 8 -9 -23 19 -80 47 -99 20 -13 30 -14 46 -5 44
23 64 105 41 166 -8 21 -8 29 2 36 20 12 62 10 76 -4 10 -10 15 -10 22 2 21
34 -53 58 -112 38z"/>
<path d="M2602 5246 c-17 -38 -73 -96 -92 -96 -21 0 -44 -25 -35 -40 8 -13 31
-13 55 2 15 10 22 10 32 0 21 -21 57 -13 85 18 l26 30 11 -23 c13 -25 59 -35
82 -16 23 19 16 30 -18 27 -33 -3 -33 -3 -30 40 2 36 -1 42 -17 42 -10 0 -33
-19 -52 -45 -59 -77 -82 -65 -29 15 16 25 30 51 30 58 0 21 -36 13 -48 -12z"/>
<path d="M7133 5231 c-23 -16 -44 -39 -48 -51 -13 -39 31 -64 74 -41 14 8 17
5 19 -16 2 -31 10 -43 26 -43 17 0 14 112 -3 118 -6 2 -23 -3 -36 -12 -36 -23
-53 -20 -28 5 12 12 39 25 60 28 47 8 53 35 8 39 -21 2 -43 -6 -72 -27z"/>
<path d="M7645 5229 c-44 -39 -54 -73 -30 -99 39 -43 111 -6 122 62 11 71 -33
89 -92 37z m53 -35 c-2 -15 -13 -33 -25 -42 -20 -13 -23 -13 -29 2 -4 11 2 26
16 42 30 31 42 31 38 -2z"/>
<path d="M7866 5188 c-33 -33 -70 -64 -83 -69 -12 -4 -23 -13 -23 -19 0 -22
32 -22 61 -1 27 20 30 21 36 4 13 -37 44 -35 103 7 26 19 27 19 43 -1 22 -26
57 -25 57 1 0 11 -7 20 -15 20 -11 0 -12 5 -5 26 24 61 -6 69 -64 16 -46 -42
-86 -68 -86 -55 0 4 11 26 25 48 25 40 31 70 18 78 -5 3 -35 -22 -67 -55z"/>
<path d="M10424 5186 c-33 -32 -44 -51 -44 -74 0 -55 64 -80 116 -46 29 19 54
63 54 94 0 24 -45 70 -68 70 -8 0 -34 -20 -58 -44z m86 -31 c0 -32 -33 -65
-64 -65 -32 0 -40 14 -25 42 16 31 39 47 67 48 17 0 22 -6 22 -25z"/>
<path d="M9290 5181 c0 -19 6 -34 15 -38 23 -8 30 4 19 34 -13 39 -34 41 -34
4z"/>
<path d="M9115 5180 c-4 -7 -3 -16 3 -22 14 -14 45 -2 40 15 -6 16 -34 21 -43
7z"/>
<path d="M4630 5145 c-13 -16 -7 -45 9 -45 14 0 33 38 26 50 -9 14 -21 12 -35
-5z"/>
<path d="M8883 5143 c-10 -25 13 -38 42 -25 30 14 26 28 -11 35 -17 3 -27 0
-31 -10z"/>
<path d="M5015 5130 c-14 -16 -16 -23 -7 -32 10 -10 17 -7 33 9 12 11 18 26
15 32 -10 16 -21 14 -41 -9z"/>
<path d="M3607 5124 c-4 -4 -7 -16 -7 -26 0 -20 -20 -56 -58 -102 -26 -32 -16
-60 13 -36 32 27 75 99 77 130 3 31 -10 48 -25 34z"/>
<path d="M9927 5093 c-4 -3 -7 -15 -7 -25 0 -26 -37 -132 -108 -308 -79 -194
-72 -215 33 -102 35 37 66 64 70 60 3 -3 -1 -30 -9 -59 -20 -65 -20 -79 -2
-79 19 0 48 89 44 137 -4 54 -34 56 -88 7 l-42 -38 17 39 c77 181 130 338 122
360 -7 16 -19 19 -30 8z"/>
<path d="M4080 5067 c0 -13 -11 -45 -24 -73 -56 -113 -156 -359 -152 -371 8
-20 32 -15 53 10 11 12 38 40 61 61 l41 40 -6 -52 c-5 -43 -3 -52 10 -52 11 0
18 13 22 43 16 102 -10 120 -80 56 l-46 -42 22 49 c114 261 141 332 134 345
-12 18 -35 9 -35 -14z"/>
<path d="M3912 5067 c-13 -15 -62 -137 -88 -219 -18 -54 -21 -57 -49 -55 -36
2 -43 -26 -7 -31 25 -4 26 -9 12 -47 -14 -36 4 -99 33 -120 31 -21 57 -19 57
5 0 13 -7 20 -20 20 -30 0 -46 42 -34 88 9 36 10 37 58 37 31 0 51 5 53 12 5
14 -6 20 -51 27 -16 3 -30 7 -32 8 -4 5 53 164 81 221 23 48 24 67 6 67 -5 0
-13 -6 -19 -13z"/>
<path d="M9675 5024 c-27 -7 -78 -19 -112 -25 -70 -12 -104 -31 -87 -48 7 -8
20 -8 40 -2 83 26 226 53 282 53 62 0 87 12 61 29 -21 13 -127 9 -184 -7z"/>
<path d="M8602 5008 c-7 -7 -12 -17 -12 -23 0 -6 -21 -48 -47 -94 -49 -87 -46
-86 -112 -65 -36 11 -23 -28 14 -40 17 -6 31 -11 33 -12 2 -1 -4 -27 -14 -57
-14 -47 -15 -57 -3 -83 12 -24 21 -30 54 -32 44 -4 115 14 115 28 0 17 -18 20
-66 11 -26 -5 -53 -7 -61 -4 -16 6 -16 47 1 93 l13 35 74 0 c60 0 74 3 77 16
2 14 -8 17 -59 18 -35 1 -64 3 -66 5 -6 5 20 55 64 128 20 32 33 64 30 73 -8
18 -19 19 -35 3z"/>
<path d="M2964 4930 c-33 -71 -40 -80 -62 -78 -31 4 -42 -21 -12 -29 17 -4 20
-11 15 -27 -3 -11 -9 -51 -12 -88 -5 -62 -4 -68 20 -92 26 -26 52 -31 95 -20
14 4 22 13 20 23 -2 12 -13 15 -46 13 -38 -3 -43 -1 -53 25 -10 28 -8 52 11
124 9 33 14 37 51 43 51 8 79 22 79 41 0 11 -7 12 -32 4 -70 -20 -73 -15 -34
58 19 36 33 70 30 75 -14 23 -35 1 -70 -72z"/>
<path d="M14997 4978 c-13 -18 -43 -65 -66 -105 l-41 -72 -53 -3 c-38 -2 -52
-7 -52 -18 0 -10 12 -16 38 -18 43 -4 43 -10 5 -85 -19 -38 -21 -76 -4 -80 10
-2 15 6 53 98 29 68 30 70 69 73 66 6 86 42 22 42 l-30 0 37 68 c20 37 46 77
57 89 19 20 18 43 -2 43 -5 0 -20 -15 -33 -32z"/>
<path d="M15112 4993 c-5 -10 -17 -43 -27 -73 -9 -30 -28 -73 -40 -96 -13 -22
-33 -65 -44 -95 -41 -107 -20 -117 57 -29 61 69 87 79 70 28 -6 -18 -13 -48
-15 -67 -8 -49 17 -36 39 20 22 57 23 105 2 113 -29 11 -43 6 -80 -26 l-37
-33 32 62 c38 73 82 193 75 205 -8 13 -23 9 -32 -9z"/>
<path d="M2504 4989 c-4 -7 -8 -39 -9 -73 -2 -46 -13 -88 -49 -174 -67 -166
-60 -192 29 -102 27 28 53 50 57 50 4 0 8 -17 10 -37 4 -48 25 -54 33 -10 15
78 -33 112 -86 61 -16 -15 -29 -25 -29 -22 0 3 14 38 31 79 28 67 54 210 42
232 -6 11 -21 9 -29 -4z"/>
<path d="M9730 4965 c-5 -14 -10 -30 -10 -36 0 -5 -15 -48 -34 -96 -77 -196
-96 -253 -90 -267 10 -27 32 -18 39 17 4 17 34 103 66 189 32 87 59 170 61
184 4 36 -19 42 -32 9z"/>
<path d="M13782 4973 c-6 -10 -11 -22 -13 -28 -1 -5 -29 -66 -61 -134 -59
-124 -66 -153 -37 -159 11 -2 18 7 23 30 3 18 31 85 61 148 29 63 55 124 57
134 4 25 -18 32 -30 9z"/>
<path d="M6784 4959 c-8 -14 21 -43 35 -35 8 5 8 13 1 27 -12 21 -25 25 -36 8z"/>
<path d="M13876 4958 c-14 -48 -41 -117 -53 -136 -26 -42 -63 -152 -63 -188 0
-28 3 -35 18 -32 11 2 16 11 14 24 -3 24 32 124 72 202 14 29 23 52 20 52 -4
0 -2 6 4 13 16 19 19 69 5 74 -7 3 -15 -1 -17 -9z"/>
<path d="M7832 4942 c-16 -11 -72 -128 -107 -225 -24 -68 -26 -81 -15 -107 18
-45 53 -49 103 -14 23 16 50 44 60 62 20 33 20 34 0 60 -24 32 -56 31 -90 -1
-17 -15 -23 -17 -23 -6 0 21 83 192 99 205 8 6 11 16 7 22 -8 14 -16 15 -34 4z
m13 -242 c16 -25 -61 -97 -92 -86 -13 6 -8 15 27 51 46 47 55 52 65 35z"/>
<path d="M11425 4898 c-2 -7 -5 -47 -8 -89 -4 -84 -36 -164 -70 -175 -46 -14
-48 53 -2 74 28 13 33 30 11 38 -21 8 -65 -26 -73 -56 -15 -57 5 -92 53 -92
62 0 130 136 117 233 -3 21 0 40 6 43 6 4 11 14 11 22 0 17 -39 19 -45 2z"/>
<path d="M4242 4868 c-17 -17 -15 -45 4 -52 23 -9 31 -1 32 34 1 31 -15 39
-36 18z"/>
<path d="M16080 4848 c-85 -45 -90 -54 -51 -108 40 -56 40 -76 -2 -89 -42 -14
-66 -6 -79 28 -9 25 -10 25 -24 7 -17 -24 -17 -28 -1 -50 19 -26 95 -33 135
-12 47 24 51 57 14 117 l-31 49 51 26 c35 18 60 24 79 20 29 -5 48 9 33 24
-25 24 -62 20 -124 -12z"/>
<path d="M12346 4851 c-3 -4 0 -16 7 -25 12 -16 14 -16 26 -2 7 8 10 20 6 26
-8 12 -32 13 -39 1z"/>
<path d="M13125 4849 c-40 -20 -142 -205 -130 -236 10 -27 34 2 70 82 20 46
48 94 61 106 22 20 28 22 46 10 15 -9 23 -10 32 -1 8 9 5 16 -13 31 -26 21
-36 22 -66 8z"/>
<path d="M15355 4836 c-86 -39 -141 -150 -96 -195 26 -26 83 -28 130 -3 38 18
58 51 25 38 -30 -12 -97 -22 -116 -18 -12 2 -18 13 -18 33 0 23 4 29 23 29 35
1 104 36 117 60 9 17 9 29 1 46 -12 27 -23 29 -66 10z m35 -35 c0 -13 -46 -41
-67 -41 -12 0 -6 8 17 25 36 26 50 31 50 16z"/>
<path d="M2103 4804 c-35 -19 -63 -39 -63 -44 0 -26 35 -18 92 22 9 7 19 10
22 7 8 -8 -37 -120 -74 -185 -16 -30 -30 -58 -30 -64 0 -23 36 -8 58 24 21 31
72 84 72 75 1 -37 23 -126 36 -140 24 -27 39 -24 68 14 25 34 66 152 66 194 0
37 -34 26 -38 -12 -7 -68 -54 -181 -72 -170 -4 3 -11 26 -14 52 -14 102 -16
105 -46 101 l-27 -4 24 59 c26 64 27 100 3 104 -8 2 -43 -13 -77 -33z"/>
<path d="M5255 4828 c-32 -17 -75 -61 -75 -75 0 -7 -4 -13 -8 -13 -21 0 -139
-320 -126 -341 11 -18 23 -8 53 43 22 39 27 56 19 65 -8 10 -7 12 6 7 12 -5
21 6 37 45 17 40 25 49 35 40 21 -17 50 -2 92 49 70 84 89 143 56 176 -18 18
-60 20 -89 4z m64 -32 c15 -18 -11 -73 -63 -131 -34 -38 -36 -39 -51 -21 -8
10 -11 24 -7 30 4 6 12 29 17 51 7 27 20 46 44 62 40 27 45 28 60 9z"/>
<path d="M16849 4817 c-19 -12 -43 -37 -54 -54 -11 -18 -25 -32 -32 -33 -21 0
-27 -23 -10 -35 10 -7 17 -17 17 -23 0 -18 52 -73 78 -83 45 -17 185 61 158
89 -4 3 -15 1 -24 -6 -25 -17 -103 -52 -117 -52 -6 0 -22 11 -35 24 -26 28
-21 56 9 56 11 0 36 14 56 31 41 36 48 81 16 99 -25 13 -23 14 -62 -13z m41
-37 c-13 -25 -58 -55 -68 -46 -4 4 8 21 26 37 38 34 58 38 42 9z"/>
<path d="M5709 4797 c-51 -47 -91 -111 -87 -139 4 -33 57 -37 100 -7 l31 23
-6 -25 c-3 -13 -9 -59 -12 -101 l-7 -78 -37 6 c-50 8 -101 -27 -117 -81 -26
-86 -7 -195 34 -195 25 0 86 74 118 144 16 36 30 53 38 50 22 -9 29 16 11 36
-16 17 -16 27 -1 149 9 72 23 151 32 176 12 36 13 50 3 61 -20 24 -61 16 -100
-19z m34 -69 c-29 -43 -75 -76 -81 -58 -5 14 35 70 72 102 42 36 47 12 9 -44z
m-29 -297 c15 -24 -82 -199 -104 -186 -27 17 -12 151 21 178 22 18 74 23 83 8z"/>
<path d="M13270 4796 c-45 -30 -94 -118 -86 -151 9 -36 41 -48 108 -41 61 6
98 20 98 36 0 6 -32 8 -85 4 -79 -6 -85 -6 -85 12 0 26 16 48 29 40 15 -10 65
19 90 50 25 32 26 38 5 58 -21 22 -33 20 -74 -8z m27 -41 c-15 -14 -23 -25
-18 -25 6 0 11 -5 11 -12 0 -8 -7 -5 -17 5 -17 17 -17 19 7 37 36 28 50 24 17
-5z"/>
<path d="M13470 4784 c-56 -64 -28 -134 40 -100 18 9 34 16 34 16 1 0 1 -21 1
-47 0 -37 4 -48 18 -51 14 -3 17 4 17 47 0 27 4 61 10 76 8 20 6 32 -7 53 -35
55 -68 56 -113 6z m55 -50 c-54 -43 -69 -19 -22 34 19 20 22 21 36 7 15 -15
13 -19 -14 -41z"/>
<path d="M16462 4799 c-13 -5 -27 -7 -32 -4 -10 6 -23 -12 -40 -55 -8 -19 -25
-49 -38 -67 -23 -31 -27 -68 -7 -68 6 0 24 22 40 49 17 27 45 65 62 85 30 33
32 34 33 13 0 -12 -7 -39 -15 -58 -14 -35 -13 -54 5 -54 5 0 35 22 67 50 78
67 100 67 67 2 -15 -31 -12 -52 6 -52 9 0 50 80 50 98 0 14 -35 42 -52 42 -8
0 -32 -13 -53 -30 -21 -16 -39 -30 -41 -30 -2 0 -1 13 2 30 4 18 1 36 -6 45
-14 17 -16 17 -48 4z"/>
<path d="M4353 4785 c-44 -19 -59 -49 -38 -81 8 -13 19 -24 24 -24 5 0 11 -7
15 -15 8 -21 -31 -40 -49 -25 -16 13 -35 5 -35 -15 0 -29 78 -35 103 -7 24 26
21 59 -8 86 -14 13 -25 26 -25 30 0 4 16 14 36 22 19 8 34 20 32 26 -6 18 -20
19 -55 3z"/>
<path d="M5454 4764 c-72 -76 -52 -142 30 -99 36 19 36 19 36 -9 0 -30 26 -54
42 -38 8 8 8 15 -1 26 -9 11 -10 24 -2 52 14 49 4 83 -26 95 -37 14 -43 12
-79 -27z m66 -24 c-12 -23 -58 -55 -66 -47 -11 11 37 67 57 67 17 0 18 -3 9
-20z"/>
<path d="M6705 4782 c-33 -27 -75 -95 -75 -119 0 -29 25 -53 56 -53 17 0 24 5
24 20 0 13 -7 20 -18 20 -30 0 -33 11 -11 50 22 38 46 56 84 62 11 2 20 10 20
18 0 22 -56 24 -80 2z"/>
<path d="M6942 4779 c-54 -27 -61 -54 -30 -108 19 -34 21 -43 9 -50 -20 -13
-40 -2 -47 25 -7 25 -19 31 -29 13 -12 -18 4 -58 29 -75 22 -14 27 -14 55 0
41 22 47 48 19 97 l-23 41 24 19 c25 21 67 26 55 8 -4 -7 -1 -10 6 -7 21 7 23
24 5 42 -21 20 -21 20 -73 -5z"/>
<path d="M10099 4777 c-19 -13 -34 -31 -34 -42 0 -11 -10 -25 -21 -32 -19 -11
-21 -19 -17 -60 5 -47 28 -87 44 -78 4 3 10 1 13 -4 8 -12 78 -6 106 9 23 12
22 37 -1 31 -8 -2 -34 -6 -58 -9 -35 -4 -47 -1 -58 13 -21 30 -16 55 12 55 38
0 73 20 85 51 15 35 10 58 -16 75 -18 13 -25 12 -55 -9z m41 -47 c-9 -17 -40
-40 -53 -40 -3 0 -4 8 -2 18 2 9 4 23 4 30 1 7 5 11 9 8 4 -2 14 -1 22 4 21
13 32 2 20 -20z"/>
<path d="M5942 4774 c-32 -22 -62 -87 -62 -132 0 -47 24 -72 69 -72 34 0 99
29 120 53 18 22 -5 32 -32 14 -12 -8 -40 -20 -61 -27 -35 -11 -41 -11 -53 6
-20 28 -16 44 12 44 66 0 110 54 86 106 -12 28 -46 32 -79 8z m48 -37 c0 -20
-32 -47 -55 -47 -15 0 -1 32 21 49 33 26 34 26 34 -2z"/>
<path d="M10900 4771 c-42 -22 -83 -90 -78 -128 4 -36 41 -55 96 -50 49 5 55
9 47 28 -4 10 -18 13 -51 10 -58 -4 -69 10 -44 59 20 39 58 62 105 64 20 1 30
6 30 16 0 23 -64 23 -105 1z"/>
<path d="M11592 4770 c-18 -11 -37 -31 -43 -44 -7 -14 -17 -22 -24 -20 -21 9
-27 -14 -11 -38 9 -12 16 -30 16 -39 0 -9 9 -24 20 -34 21 -19 26 -18 125 8
19 5 65 39 65 48 0 15 -42 10 -61 -7 -10 -9 -38 -16 -66 -17 -41 -2 -48 1 -51
18 -2 15 7 25 32 38 40 18 69 57 64 84 -5 25 -28 26 -66 3z"/>
<path d="M12450 4772 c-19 -11 -43 -31 -54 -45 l-20 -27 27 -36 c25 -36 27
-54 5 -54 -6 0 -16 7 -22 16 -10 13 -14 14 -24 2 -9 -11 -8 -19 4 -36 18 -26
41 -28 72 -6 28 19 28 53 1 88 -25 31 -17 45 37 71 33 15 41 34 18 42 -5 2
-25 -5 -44 -15z"/>
<path d="M16223 4763 c-43 -28 -70 -71 -59 -98 3 -10 19 -15 45 -15 38 0 39
-1 37 -32 -2 -52 23 -40 44 22 11 30 19 61 20 68 0 16 -20 15 -39 -2 -21 -19
-71 -31 -71 -18 0 24 58 64 95 66 11 1 20 8 20 16 0 26 -47 22 -92 -7z"/>
<path d="M2657 4743 c-39 -38 -53 -72 -43 -98 8 -22 50 -18 71 5 19 21 19 21
29 -11 16 -48 36 -49 36 -2 0 21 3 55 6 76 6 33 4 37 -15 37 -11 0 -20 5 -18
12 5 27 -31 16 -66 -19z m54 -22 c-12 -21 -61 -56 -61 -43 0 5 11 21 25 36 28
31 51 36 36 7z"/>
<path d="M7551 4715 c-62 -67 -49 -132 19 -93 25 14 27 14 36 -6 10 -23 40
-29 38 -8 -1 6 -2 30 -2 52 -2 48 -17 51 -61 14 -39 -32 -41 -17 -3 19 33 31
44 33 67 11 19 -19 39 -7 30 18 -6 16 -46 38 -69 38 -7 0 -32 -20 -55 -45z"/>
<path d="M11146 4753 c-4 -4 -15 -8 -24 -8 -9 0 -27 -19 -40 -43 -41 -74 -11
-114 71 -91 57 15 73 64 40 120 -17 29 -33 36 -47 22z m24 -73 c0 -28 -15 -40
-51 -40 -24 0 -24 17 1 58 17 28 23 32 35 22 8 -7 15 -25 15 -40z"/>
<path d="M14060 4706 c-25 -30 -49 -54 -55 -52 -5 1 -12 20 -15 42 -3 26 -10
39 -20 39 -11 0 -14 -10 -12 -44 1 -24 7 -52 13 -63 8 -16 0 -33 -50 -103 -65
-91 -95 -144 -87 -152 11 -11 38 17 92 97 69 103 105 150 161 214 42 47 49 66
27 73 -5 2 -30 -21 -54 -51z"/>
<path d="M4180 4724 c-6 -14 -10 -29 -10 -34 0 -4 -9 -6 -20 -3 -26 7 -26 -14
0 -47 12 -16 22 -21 28 -15 14 15 42 106 36 116 -10 16 -24 9 -34 -17z"/>
<path d="M7955 4713 c-28 -43 -33 -94 -9 -117 38 -39 83 -4 90 70 6 64 -2 84
-31 84 -17 0 -32 -12 -50 -37z m42 -77 c-4 -9 -11 -16 -17 -16 -11 0 -14 53
-3 64 11 10 27 -30 20 -48z"/>
<path d="M8129 4675 c-17 -30 -36 -56 -42 -56 -7 -1 -19 -2 -27 -3 -8 0 -15
-10 -15 -21 0 -31 77 -30 135 3 25 14 42 21 38 17 -13 -14 12 -45 36 -45 32 0
81 39 67 53 -7 7 -18 7 -36 -3 -34 -18 -38 -10 -15 35 34 67 19 75 -40 21 -38
-34 -80 -61 -80 -52 0 3 9 20 20 38 11 18 20 41 20 51 0 35 -31 16 -61 -38z"/>
<path d="M12280 4690 c-21 -42 -26 -85 -11 -95 11 -6 24 12 28 40 2 11 12 32
24 48 11 15 17 32 14 37 -13 21 -35 8 -55 -30z"/>
<path d="M8832 4578 c2 -12 10 -23 18 -23 22 0 19 39 -3 43 -15 3 -18 -1 -15
-20z"/>
<path d="M3559 4559 c-1 -2 -3 -24 -5 -49 -2 -25 -22 -109 -45 -188 -22 -79
-39 -155 -37 -169 4 -35 25 -41 37 -11 13 33 80 108 97 108 11 0 14 -16 14
-69 0 -49 4 -72 15 -81 8 -7 15 -11 16 -9 0 2 3 41 5 86 3 65 0 85 -12 97 -24
25 -55 19 -93 -16 -22 -22 -32 -27 -28 -15 18 50 67 248 67 270 0 20 -27 60
-31 46z"/>
<path d="M6524 4542 c7 -20 1 -30 -155 -229 -247 -316 -261 -337 -243 -356 9
-9 34 3 34 17 0 10 42 68 215 292 16 22 62 80 101 129 39 50 77 100 83 113 16
30 8 52 -19 52 -16 0 -20 -5 -16 -18z"/>
<path d="M3427 4544 c-4 -4 -4 -17 -1 -29 3 -13 -1 -36 -9 -51 -8 -16 -22 -60
-33 -97 l-19 -68 -40 7 c-22 3 -45 11 -52 16 -15 12 -33 2 -33 -17 0 -14 57
-35 95 -35 19 0 20 -6 16 -85 -3 -81 -2 -85 25 -110 31 -29 89 -32 89 -5 0 9
-8 14 -20 13 -11 -2 -29 4 -40 13 -17 13 -20 26 -19 91 0 61 4 77 18 85 13 7
16 17 12 34 -7 25 7 79 43 170 15 38 17 54 8 63 -12 12 -30 14 -40 5z"/>
<path d="M6970 4490 c-5 -10 -10 -24 -10 -30 0 -7 -25 -75 -55 -152 -30 -77
-55 -150 -55 -164 0 -37 25 -29 57 18 31 45 99 105 109 95 3 -3 -8 -31 -26
-62 -28 -49 -31 -59 -18 -71 12 -12 20 -4 56 65 37 72 40 82 26 96 -23 23 -48
18 -97 -19 l-44 -34 42 112 c58 151 58 153 40 159 -9 4 -19 -1 -25 -13z"/>
<path d="M10620 4416 c0 -46 -3 -98 -6 -115 -6 -27 -11 -31 -39 -31 -57 0
-115 -65 -115 -128 0 -35 16 -52 49 -52 34 1 63 25 94 80 32 57 45 107 56 212
8 86 2 118 -24 118 -12 0 -15 -17 -15 -84z m-30 -193 c-1 -21 -48 -88 -64 -91
-42 -8 -41 31 2 81 15 17 62 24 62 10z"/>
<path d="M10850 4438 c-1 -136 -43 -258 -106 -307 -37 -29 -64 -27 -64 3 0 38
36 74 82 83 23 5 44 15 46 22 3 8 0 11 -7 7 -6 -4 -11 -2 -11 4 0 14 -55 4
-87 -16 -50 -32 -78 -118 -48 -148 37 -37 105 -4 161 77 38 55 50 94 63 198 5
39 15 75 22 80 20 12 -5 59 -31 59 -18 0 -20 -7 -20 -62z"/>
<path d="M12229 4473 c-21 -55 -71 -168 -79 -176 -4 -5 -26 -3 -49 3 -50 13
-83 5 -79 -18 2 -11 14 -17 33 -18 17 0 42 -1 57 -2 l27 -2 -14 -41 c-19 -52
-19 -113 -1 -128 11 -9 14 -1 19 41 5 49 37 140 101 282 26 58 28 86 6 86 -6
0 -15 -12 -21 -27z"/>
<path d="M12363 4484 c-16 -13 -17 -15 -2 -27 14 -11 10 -27 -42 -156 -81
-200 -78 -224 16 -125 29 31 59 54 66 52 9 -3 14 -20 14 -43 0 -31 4 -39 25
-47 14 -5 33 -7 43 -4 12 3 27 -5 41 -20 29 -35 100 -45 122 -18 14 17 15 17
10 2 -6 -21 -2 -22 25 -8 36 20 19 29 -45 27 -44 -1 -69 2 -78 12 -11 11 -10
14 2 19 24 8 90 78 90 95 0 27 -36 40 -75 27 -25 -8 -39 -22 -55 -56 -17 -35
-27 -44 -47 -44 -21 0 -24 4 -20 22 7 26 -7 54 -34 68 -16 9 -27 7 -55 -9 -19
-11 -34 -19 -34 -18 0 2 18 47 40 101 42 102 50 150 26 159 -8 3 -22 -1 -33
-9z m231 -265 c-24 -27 -60 -47 -49 -27 16 28 39 48 53 48 12 0 11 -4 -4 -21z"/>
<path d="M17401 4453 c-6 -16 -29 -55 -50 -88 -38 -59 -39 -60 -92 -65 -39 -4
-54 -9 -54 -20 0 -11 13 -16 46 -18 l47 -3 -9 -40 c-18 -78 38 -139 129 -142
37 -2 47 2 50 16 3 14 -4 17 -33 17 -49 0 -102 24 -110 50 -4 12 -4 41 -1 65
l7 42 82 7 c45 4 89 8 97 8 32 0 42 7 29 21 -12 12 -78 14 -157 3 l-33 -5 22
37 c13 20 33 51 46 68 26 34 30 74 9 74 -8 0 -19 -12 -25 -27z"/>
<path d="M15489 4433 c-20 -21 -48 -55 -64 -75 -18 -25 -35 -38 -51 -38 -31 0
-37 -13 -14 -30 14 -10 16 -18 9 -37 -5 -13 -9 -46 -9 -73 0 -41 4 -52 26 -69
31 -24 105 -29 123 -8 16 20 3 27 -38 21 -27 -4 -43 -1 -60 13 -21 17 -23 25
-17 67 10 63 34 86 90 86 25 0 48 6 55 14 18 21 -2 28 -56 20 l-47 -7 38 46
c20 25 47 52 59 60 20 14 21 17 7 31 -14 15 -19 13 -51 -21z"/>
<path d="M15895 4361 c-30 -52 -51 -78 -60 -75 -19 8 -31 -18 -13 -29 12 -8
13 -18 5 -52 -8 -33 -6 -49 8 -78 19 -41 36 -49 103 -50 41 0 49 4 55 29 1 4
-24 8 -56 8 -64 1 -77 11 -77 61 0 71 4 74 94 77 61 2 81 6 81 17 0 10 -17 15
-64 18 -35 1 -66 5 -68 7 -3 2 7 22 21 45 14 22 26 45 26 50 0 5 5 11 12 13
13 5 4 38 -11 38 -5 0 -30 -36 -56 -79z"/>
<path d="M9556 4421 c-3 -5 -4 -16 -1 -24 4 -8 -6 -45 -21 -82 -27 -66 -27
-67 -60 -62 -20 4 -37 1 -43 -7 -14 -17 -4 -26 32 -26 24 0 28 -3 22 -17 -4
-10 -10 -39 -12 -64 -6 -57 15 -84 75 -94 43 -7 92 9 100 32 3 10 -11 12 -55
7 -32 -3 -64 -1 -72 5 -16 10 -17 64 -2 104 9 23 16 26 63 29 39 2 53 7 53 18
0 11 -10 14 -42 12 -24 -2 -43 -1 -43 2 0 3 12 35 26 70 14 36 24 73 22 83 -4
20 -33 30 -42 14z"/>
<path d="M8694 4368 c-8 -12 24 -40 37 -32 5 3 9 14 9 25 0 21 -34 27 -46 7z"/>
<path d="M2575 4321 c-46 -15 -85 -43 -91 -66 -4 -17 4 -41 26 -80 18 -31 29
-62 26 -70 -8 -21 -39 -18 -70 6 -24 19 -27 19 -33 3 -12 -33 72 -78 106 -57
9 5 22 22 29 37 12 24 11 32 -17 81 -17 30 -31 61 -31 68 0 14 23 29 73 47 44
16 26 46 -18 31z"/>
<path d="M3762 4289 c-9 -18 -25 -39 -34 -48 -14 -12 -16 -24 -11 -56 9 -62
29 -92 68 -105 77 -25 217 36 189 82 -4 5 -15 2 -28 -9 -49 -43 -140 -58 -170
-27 -16 15 -23 69 -8 60 4 -2 22 2 39 11 65 31 67 123 3 123 -24 0 -35 -7 -48
-31z m39 -52 c-11 -12 -23 -18 -27 -15 -7 7 14 50 30 60 20 14 18 -24 -3 -45z"/>
<path d="M7679 4299 c-19 -10 -50 -35 -70 -56 l-36 -38 12 -49 c15 -57 35 -76
82 -76 43 0 133 45 133 66 0 19 -10 17 -87 -17 -51 -22 -53 -22 -73 -4 -28 25
-26 55 3 55 27 0 92 43 107 71 14 25 5 55 -19 62 -9 2 -33 -4 -52 -14z m16
-55 c-31 -24 -62 -33 -49 -13 9 16 67 49 74 43 3 -3 -8 -17 -25 -30z"/>
<path d="M11328 4281 c-34 -34 -39 -45 -36 -77 4 -53 28 -65 78 -37 37 20 40
20 40 3 0 -25 28 -46 42 -32 8 8 8 15 -1 25 -9 11 -9 27 -1 62 11 49 6 70 -14
62 -7 -3 -18 4 -24 14 -18 29 -40 23 -84 -20z m41 -73 c-49 -41 -66 -9 -22 43
l27 32 8 -29 c6 -23 4 -32 -13 -46z"/>
<path d="M7145 4302 c-21 -15 -65 -111 -65 -141 0 -41 36 -67 72 -50 56 25 74
106 37 165 -21 35 -27 39 -44 26z m25 -92 c0 -52 -42 -94 -56 -55 -7 17 36
106 48 99 4 -3 8 -23 8 -44z"/>
<path d="M11559 4253 c-28 -65 -35 -103 -19 -103 7 0 34 20 60 44 45 42 90 73
90 61 0 -3 -9 -24 -21 -46 -20 -41 -23 -92 -4 -87 10 3 53 95 62 135 4 15 -1
25 -17 33 -19 10 -29 7 -71 -19 -41 -25 -48 -27 -39 -11 11 21 6 40 -11 40 -5
0 -19 -21 -30 -47z"/>
<path d="M12845 4286 c-30 -21 -92 -117 -98 -153 -5 -22 -2 -33 9 -37 10 -4
24 15 50 68 42 89 60 108 79 83 7 -9 17 -17 24 -17 19 0 12 38 -11 54 -27 19
-29 19 -53 2z"/>
<path d="M15126 4286 c-53 -15 -66 -38 -43 -77 9 -17 17 -41 17 -53 0 -48 -53
-63 -72 -21 -14 32 -38 32 -38 1 0 -27 42 -66 71 -66 9 0 31 12 48 26 35 29
39 59 15 110 -9 19 -14 37 -10 41 3 3 29 7 58 8 28 1 54 7 55 12 8 24 -50 35
-101 19z"/>
<path d="M7293 4278 c-4 -7 -8 -19 -9 -26 -2 -7 -19 -41 -39 -74 -34 -57 -39
-88 -15 -88 5 0 31 23 57 50 27 28 59 58 71 66 23 15 24 15 18 -4 -12 -35 14
-35 51 -1 l34 34 -6 -27 c-10 -39 2 -80 21 -76 12 2 16 21 20 76 4 66 3 72
-15 72 -10 0 -29 -9 -42 -19 -18 -14 -28 -17 -42 -9 -14 7 -28 3 -58 -16 -43
-29 -47 -27 -23 9 15 23 12 45 -6 45 -5 0 -12 -6 -17 -12z"/>
<path d="M16885 4238 c-26 -55 -32 -98 -15 -98 5 0 32 16 59 35 55 40 66 43
51 16 -5 -11 -10 -27 -10 -35 0 -24 37 -56 65 -56 25 0 33 14 15 25 -6 4 -8
10 -5 15 3 5 0 12 -6 16 -6 3 -15 0 -20 -7 -15 -25 -10 23 6 51 36 63 3 78
-74 33 -40 -22 -43 -23 -28 -5 20 22 20 53 -1 60 -7 2 -22 -18 -37 -50z"/>
<path d="M2234 4248 c-84 -74 -91 -170 -14 -170 3 0 22 3 43 6 28 5 37 4 37
-7 0 -16 31 -47 48 -47 17 0 15 25 -3 40 -20 16 -19 51 2 117 l17 55 -24 19
c-36 27 -64 23 -106 -13z m71 -47 c-9 -49 -29 -77 -61 -85 -38 -10 -50 6 -34
43 15 37 77 94 91 85 7 -4 8 -21 4 -43z"/>
<path d="M9181 4254 c-35 -29 -38 -49 -15 -82 27 -39 34 -79 17 -93 -12 -11
-18 -9 -33 11 -25 33 -47 16 -29 -23 14 -31 44 -38 82 -20 34 17 36 60 7 118
-11 22 -17 47 -14 55 4 8 6 22 5 29 -2 13 0 13 14 1 18 -15 42 0 31 19 -11 18
-32 13 -65 -15z"/>
<path d="M10227 4262 c-36 -39 -43 -104 -14 -139 12 -16 69 -17 85 -1 8 8 15
8 26 -1 20 -16 61 -10 61 9 0 8 -10 16 -22 18 -27 4 -27 3 -6 46 14 29 14 38
3 51 -7 9 -18 14 -25 12 -6 -3 -19 1 -30 9 -26 19 -59 18 -78 -4z m62 -36 c16
-19 4 -64 -20 -77 -25 -13 -39 -4 -39 27 0 53 33 81 59 50z"/>
<path d="M11820 4240 c-60 -62 -61 -119 -4 -140 32 -13 88 10 105 41 27 51 1
119 -45 119 -17 0 -18 2 -6 10 11 7 12 10 2 10 -8 0 -31 -18 -52 -40z m78 -48
c4 -27 -33 -64 -61 -60 -30 4 -33 38 -7 71 16 21 25 24 43 18 12 -5 23 -18 25
-29z"/>
<path d="M13595 4265 c-69 -25 -93 -82 -60 -145 18 -35 69 -53 135 -48 34 2
46 7 48 21 3 16 -1 17 -31 12 -54 -10 -113 10 -125 43 -13 37 0 66 37 82 27
11 34 10 51 -5 25 -23 44 -11 29 18 -12 21 -28 37 -39 36 -3 0 -23 -6 -45 -14z"/>
<path d="M16164 4266 c-17 -8 -40 -25 -51 -40 -12 -14 -26 -26 -32 -26 -16 0
-14 -14 9 -53 22 -37 56 -57 96 -57 33 0 22 16 -22 35 -43 18 -44 41 -2 49 59
12 96 64 66 94 -15 15 -25 15 -64 -2z m27 -40 c-6 -8 -22 -16 -34 -19 -22 -6
-22 -6 2 14 27 22 49 26 32 5z"/>
<path d="M16770 4273 c-8 -3 -28 -18 -45 -33 -16 -16 -39 -30 -49 -32 -27 -4
-32 -28 -7 -35 11 -3 23 -13 26 -24 8 -23 65 -59 95 -59 31 0 20 21 -23 44
-20 11 -37 23 -37 27 0 3 13 12 29 19 41 16 63 44 59 72 -3 23 -21 31 -48 21z"/>
<path d="M14111 4257 c-45 -23 -48 -41 -16 -101 26 -48 28 -57 17 -81 -16 -35
-37 -27 -37 15 0 39 -20 51 -31 18 -10 -31 -6 -59 13 -80 21 -24 37 -23 68 5
34 29 36 82 5 133 -26 45 -21 62 22 66 44 4 54 38 11 38 -15 0 -39 -6 -52 -13z"/>
<path d="M13880 4249 c-38 -15 -80 -60 -80 -85 0 -31 23 -46 67 -42 32 3 41
-1 55 -24 10 -16 27 -28 38 -28 25 0 26 18 3 36 -17 12 -16 15 6 60 l23 48
-27 23 c-28 25 -46 27 -85 12z m57 -46 c5 -14 -53 -53 -79 -53 -27 0 -22 26 9
50 28 22 64 23 70 3z"/>
<path d="M14332 4225 c-60 -50 -59 -132 1 -164 49 -26 191 8 161 39 -8 8 -19
8 -38 0 -47 -18 -114 -13 -126 9 -14 28 -15 27 35 41 54 15 67 30 63 67 -4 40
-53 44 -96 8z m47 -36 c-8 -5 -21 -9 -29 -9 -10 1 -7 7 10 21 17 14 26 17 28
9 3 -7 -2 -16 -9 -21z"/>
<path d="M15613 4230 c-41 -24 -59 -56 -43 -75 18 -21 44 -27 74 -16 23 10 26
8 26 -13 0 -25 22 -51 33 -39 4 3 7 18 7 33 0 14 7 35 15 46 22 29 18 48 -14
67 -37 22 -59 21 -98 -3z m77 -29 c0 -10 -54 -31 -79 -31 -12 1 -10 5 8 20 24
20 71 27 71 11z"/>
<path d="M16520 4233 c-14 -9 -40 -30 -58 -47 l-33 -31 6 26 c7 28 -5 42 -43
53 -18 6 -25 2 -40 -24 -9 -18 -27 -48 -39 -67 -13 -18 -23 -40 -23 -48 0 -30
29 -13 60 35 35 55 60 69 34 19 -33 -65 32 -61 97 7 18 19 36 34 41 34 4 0 0
-21 -10 -47 -22 -56 -18 -83 10 -83 16 0 19 5 15 21 -3 12 6 47 20 80 35 81
20 111 -37 72z"/>
<path d="M8921 4211 c-12 -16 -21 -32 -21 -36 0 -20 -77 -105 -102 -114 -15
-6 -28 -17 -28 -25 0 -28 39 -17 84 24 24 22 53 40 66 40 13 0 36 15 56 36
l33 37 3 -54 c3 -47 6 -54 26 -57 22 -3 30 12 12 23 -5 3 -10 33 -10 65 0 32
-5 62 -10 65 -19 12 -49 -6 -71 -41 -12 -19 -24 -33 -26 -30 -3 3 2 17 11 30
32 50 11 85 -23 37z"/>
<path d="M8698 4225 c-3 -3 -3 -25 -1 -49 6 -49 -14 -119 -58 -208 -42 -83
-79 -96 -79 -27 0 10 -7 19 -15 19 -19 0 -21 -70 -3 -88 20 -20 57 -14 84 13
59 59 128 257 109 311 -10 27 -26 40 -37 29z"/>
<path d="M8081 4027 c-6 -14 -26 -38 -45 -54 -36 -28 -48 -63 -23 -63 21 0 96
83 99 109 4 33 -20 38 -31 8z"/>
<path d="M2566 3982 c-32 -7 -91 -50 -123 -90 -40 -49 -61 -91 -77 -154 -14
-58 -26 -65 -116 -71 -31 -2 -45 -7 -45 -17 0 -12 14 -14 73 -12 l73 3 -6 -38
c-12 -71 -26 -100 -65 -143 -45 -49 -49 -60 -21 -60 45 0 121 131 121 207 0
34 0 34 36 27 32 -6 36 -4 32 12 -2 12 -13 20 -31 22 -31 4 -32 11 -12 78 30
101 119 197 183 199 14 0 27 5 29 12 5 15 -26 31 -51 25z"/>
<path d="M7717 3963 c-4 -3 -7 -14 -7 -23 0 -9 -5 -21 -12 -28 -7 -7 -29 -52
-50 -100 l-37 -87 -41 -3 c-32 -3 -41 -7 -38 -20 2 -9 12 -17 23 -18 11 -1 26
-2 33 -3 8 0 12 -18 12 -50 0 -87 32 -130 87 -116 32 8 25 29 -12 35 -23 4
-31 12 -38 39 -5 19 -6 50 -2 68 5 29 11 34 44 39 21 3 43 9 49 13 14 8 3 61
-13 61 -16 0 -37 -25 -28 -33 3 -4 -3 -7 -15 -7 -21 0 -20 2 13 80 19 44 44
93 56 109 21 29 19 51 -5 51 -7 0 -16 -3 -19 -7z"/>
<path d="M5982 3888 c-10 -24 -27 -64 -37 -91 l-18 -47 -51 2 c-40 2 -51 0
-51 -12 0 -11 14 -16 50 -20 47 -5 50 -7 56 -40 9 -43 89 -120 125 -120 31 0
31 26 0 34 -29 7 -96 80 -96 104 0 14 14 21 60 31 68 15 76 22 60 51 -13 25
-36 26 -49 1 -10 -19 -61 -35 -61 -20 0 11 46 110 62 132 11 14 10 19 -2 27
-24 15 -28 12 -48 -32z"/>
<path d="M3589 3826 l-34 -95 -65 -7 c-36 -4 -74 -7 -85 -8 -11 -1 -20 -8 -20
-16 0 -12 14 -14 78 -12 l77 3 -11 -28 c-19 -51 -38 -168 -28 -177 16 -17 29
8 40 73 5 34 16 79 25 99 13 35 19 39 69 48 30 5 55 9 55 8 0 -1 -9 -21 -20
-45 -22 -49 -26 -99 -8 -99 7 0 31 20 54 45 48 53 79 61 67 18 -11 -40 -10
-97 2 -101 12 -4 36 84 33 122 -4 42 -29 54 -72 34 l-35 -17 23 62 c36 96 50
167 37 180 -15 15 -29 0 -34 -38 -2 -16 -9 -51 -16 -76 -12 -44 -15 -47 -55
-52 -23 -3 -49 -9 -59 -13 -15 -5 -15 -1 2 48 10 30 26 69 35 86 21 40 20 52
-2 52 -14 0 -26 -22 -53 -94z"/>
<path d="M5107 3894 c-3 -4 -4 -18 -1 -33 3 -16 -13 -76 -40 -155 -42 -120
-44 -131 -31 -157 8 -15 19 -31 25 -34 21 -13 80 18 124 65 48 51 58 87 32
110 -18 14 -73 10 -103 -8 -20 -12 -19 -8 13 94 18 59 31 111 28 116 -6 9 -38
11 -47 2z m88 -235 c8 -13 -87 -109 -108 -109 -13 0 -14 6 -6 33 16 57 94 109
114 76z"/>
<path d="M6811 3767 c-43 -21 -122 -184 -108 -221 9 -22 34 -10 41 20 4 13 20
47 36 75 23 37 28 55 20 64 -17 20 53 50 81 34 31 -16 52 6 25 27 -24 17 -63
18 -95 1z"/>
<path d="M3950 3729 c-39 -8 -70 -41 -70 -74 0 -36 21 -85 40 -95 30 -16 133
-12 158 6 44 30 5 38 -94 19 -11 -3 -29 2 -39 9 -18 13 -17 14 13 30 40 20 66
59 57 85 -8 25 -22 29 -65 20z m30 -38 c0 -11 -39 -41 -52 -41 -18 0 -6 31 15
40 29 12 37 12 37 1z"/>
<path d="M7889 3720 c-80 -42 -112 -119 -70 -171 15 -19 30 -24 85 -27 54 -4
66 -2 66 11 0 8 7 17 15 21 8 3 15 10 15 16 0 15 -39 12 -56 -5 -18 -17 -42
-19 -78 -5 -39 14 -32 42 16 65 53 25 87 69 72 92 -15 24 -25 24 -65 3z m16
-40 c-3 -5 -16 -15 -28 -21 -21 -10 -21 -9 2 10 25 23 36 27 26 11z"/>
<path d="M1877 3697 c-82 -50 -96 -105 -72 -287 26 -193 30 -611 11 -950 -64
-1139 -68 -1383 -26 -1665 11 -77 23 -162 27 -188 6 -51 11 -56 84 -82 76 -27
189 -29 384 -6 99 11 226 21 282 22 101 1 103 1 133 -29 36 -36 37 -46 9 -91
-12 -20 -17 -37 -11 -43 11 -11 53 4 71 26 7 9 19 16 26 16 6 0 31 15 55 33
24 17 59 41 79 52 53 30 53 58 -1 80 -24 9 -72 21 -108 26 -35 5 -69 14 -74
19 -6 6 -16 4 -28 -7 -17 -15 -17 -17 -1 -35 22 -25 10 -33 -26 -18 -36 14
-205 8 -401 -17 -176 -21 -312 -20 -375 5 -47 19 -51 23 -62 68 -7 27 -22 121
-34 209 -28 216 -27 509 6 1135 50 958 49 948 36 1169 -6 114 -16 238 -21 276
-21 163 -6 228 59 255 34 14 78 6 149 -27 25 -12 36 -13 45 -4 16 16 0 28 -79
56 -85 30 -90 30 -137 2z"/>
<path d="M2752 3708 c-25 -13 -86 -127 -80 -154 4 -22 27 -30 32 -12 22 77 32
101 53 120 20 19 27 20 44 10 16 -10 20 -10 25 3 4 9 -1 22 -12 30 -22 17 -31
17 -62 3z"/>
<path d="M6973 3676 c-46 -48 -53 -77 -27 -114 17 -24 70 -30 105 -12 23 13
49 61 49 90 0 24 -51 80 -72 80 -7 0 -32 -20 -55 -44z m83 -21 c17 -42 -30
-94 -71 -79 -33 13 -10 70 35 87 25 9 30 8 36 -8z"/>
<path d="M7298 3708 c-8 -7 -28 -31 -43 -53 -16 -22 -38 -50 -49 -62 -18 -21
-20 -21 -31 -6 -11 15 -15 15 -29 4 -21 -18 -21 -50 1 -58 9 -4 33 3 54 14 22
12 40 16 41 11 6 -16 57 -12 77 6 18 16 19 16 25 -8 8 -31 43 -44 63 -23 18
18 9 39 -13 30 -13 -5 -15 1 -13 37 2 24 0 45 -6 47 -5 1 -27 -13 -48 -32 -21
-19 -42 -35 -48 -35 -14 0 -11 30 5 36 20 8 52 82 40 94 -7 7 -16 6 -26 -2z"/>
<path d="M4804 3691 c-37 -22 -84 -81 -84 -104 0 -36 69 -59 111 -37 16 9 19
7 19 -15 0 -23 8 -29 27 -22 4 1 8 18 9 37 1 19 5 47 9 63 10 37 -12 36 -48
-3 -19 -20 -38 -30 -58 -30 -38 0 -37 14 5 56 35 35 63 42 97 23 23 -12 62 -3
57 13 -4 10 -79 38 -103 38 -5 0 -24 -9 -41 -19z"/>
<path d="M5350 3694 c-8 -8 -32 -30 -52 -48 -43 -38 -49 -73 -18 -101 28 -26
97 -15 127 20 33 38 32 107 -2 129 -29 19 -35 19 -55 0z m40 -54 c13 -8 13
-13 0 -37 -14 -25 -64 -48 -82 -37 -17 10 -7 43 18 63 30 23 42 25 64 11z"/>
<path d="M5569 3653 c-24 -32 -58 -73 -77 -91 -24 -23 -32 -36 -24 -44 13 -13
47 5 68 37 9 14 21 22 30 18 8 -3 32 6 53 20 l39 26 6 -24 c8 -31 45 -41 97
-26 50 15 56 46 7 35 -67 -14 -72 -9 -53 59 10 36 -10 36 -61 -3 -50 -38 -61
-38 -34 0 20 28 20 50 0 50 -5 0 -28 -26 -51 -57z"/>
<path d="M2556 3643 c-4 -9 1 -24 10 -34 14 -16 15 -24 6 -44 -15 -34 -49 -33
-62 1 -7 18 -7 31 1 40 17 20 2 36 -22 23 -16 -8 -19 -18 -15 -50 2 -22 10
-47 16 -55 15 -17 70 -18 93 -1 35 25 33 108 -2 127 -15 7 -20 6 -25 -7z"/>
<path d="M8123 3552 c-15 -2 -23 -10 -23 -23 0 -23 32 -26 50 -4 16 20 3 32
-27 27z"/>
<path d="M6310 3512 c-46 -2 -89 -7 -96 -13 -8 -7 -13 -6 -16 0 -3 10 -215 -2
-225 -13 -3 -3 -2 -10 2 -16 4 -7 39 -9 108 -4 56 3 165 9 242 13 115 5 140 9
140 21 0 16 -10 17 -155 12z"/>
<path d="M5876 3482 c-3 -5 -44 -6 -92 -4 -63 3 -85 2 -80 -7 4 -6 3 -11 -3
-11 -5 0 -11 4 -13 9 -2 5 -60 5 -138 0 -339 -22 -725 -31 -775 -17 -39 10
-58 -7 -30 -28 17 -13 57 -15 275 -9 140 3 325 10 410 15 163 10 259 15 400
18 67 2 90 7 110 22 l25 20 -42 0 c-23 0 -44 -4 -47 -8z"/>
<path d="M9027 3404 c-4 -4 -7 -17 -7 -29 0 -12 -9 -30 -20 -40 -23 -21 -26
-45 -6 -45 24 0 67 60 64 88 -3 26 -18 38 -31 26z"/>
<path d="M6355 3392 c-16 -14 -299 -32 -675 -42 -368 -10 -718 -28 -734 -38
-5 -3 -64 -6 -130 -8 -92 -2 -121 -6 -121 -16 0 -10 23 -13 100 -12 104 0 294
12 305 19 8 5 200 11 590 20 151 4 363 13 470 20 164 12 196 17 207 31 21 29
12 47 -12 26z"/>
<path d="M7813 3348 c-21 -29 -69 -98 -105 -153 -37 -55 -87 -129 -112 -165
-44 -62 -54 -99 -29 -107 6 -2 15 6 18 18 10 29 247 378 274 403 24 22 28 56
7 56 -7 0 -31 -24 -53 -52z"/>
<path d="M8036 3362 c-3 -5 -13 -31 -22 -58 -9 -27 -32 -89 -51 -138 -19 -49
-32 -95 -29 -102 8 -21 30 -17 57 9 13 13 37 32 54 43 29 19 29 19 21 -1 -24
-56 -30 -94 -17 -109 18 -21 26 -14 29 24 1 18 9 45 17 60 37 72 6 98 -67 57
-42 -24 -48 -25 -39 -8 22 41 81 214 75 222 -7 11 -21 12 -28 1z"/>
<path d="M7425 3328 c-18 -55 -25 -102 -17 -110 16 -16 30 -1 37 42 4 22 11
42 15 45 13 8 0 35 -16 35 -8 0 -17 -6 -19 -12z"/>
<path d="M6147 3208 c-53 -46 -60 -94 -21 -136 25 -27 40 -33 99 -41 68 -9 94
-3 81 17 -3 5 -32 12 -64 16 -72 8 -102 27 -102 65 0 49 72 96 96 64 10 -15
15 -16 26 -5 20 20 -3 46 -43 50 -27 2 -43 -4 -72 -30z"/>
<path d="M9461 3226 c-9 -10 -8 -16 3 -26 19 -15 36 -5 36 21 0 22 -22 25 -39
5z"/>
<path d="M8785 3190 c-50 -39 -55 -46 -55 -98 0 -35 6 -49 29 -73 16 -16 40
-29 54 -29 30 0 147 58 154 77 11 27 -8 26 -68 -5 -88 -45 -116 -42 -133 16
-6 19 -4 22 20 22 32 0 91 37 100 62 8 26 -14 58 -39 58 -12 0 -40 -14 -62
-30z m42 -36 c-15 -13 -35 -24 -44 -24 -10 0 -1 12 23 29 45 34 62 30 21 -5z"/>
<path d="M6730 3198 c-71 -20 -79 -52 -25 -94 23 -17 35 -35 35 -51 0 -34 -29
-42 -52 -13 -13 16 -22 20 -29 13 -17 -17 0 -52 29 -60 34 -9 52 -5 75 14 29
27 22 71 -19 110 -20 19 -34 36 -32 38 2 3 22 8 44 13 23 5 39 14 39 22 0 19
-21 21 -65 8z"/>
<path d="M6924 3191 c-71 -43 -83 -100 -32 -150 51 -50 78 -52 171 -11 38 17
47 26 47 45 0 27 -27 35 -36 11 -7 -17 -75 -46 -107 -46 -13 0 -33 10 -44 23
-33 37 -34 44 -5 44 63 1 114 47 99 87 -9 22 -55 20 -93 -3z m51 -30 c-3 -6
-16 -11 -28 -11 -21 1 -21 1 3 15 27 14 36 13 25 -4z"/>
<path d="M6444 3184 c-46 -23 -69 -85 -42 -112 15 -15 64 -16 73 -2 12 20 25
10 25 -19 0 -17 10 -42 24 -58 21 -25 26 -26 50 -15 27 12 27 38 1 28 -8 -3
-19 2 -26 11 -15 18 -14 102 1 117 16 16 12 23 -24 45 -40 25 -42 25 -82 5z
m56 -38 c0 -8 -14 -24 -31 -37 -40 -28 -58 -13 -29 24 23 29 60 36 60 13z"/>
<path d="M8205 3154 c-47 -51 -42 -114 10 -134 52 -20 95 18 95 82 0 42 -16
64 -53 72 -22 5 -33 1 -52 -20z m72 -40 c10 -27 -14 -66 -40 -62 -43 6 -30 78
15 78 10 0 21 -7 25 -16z"/>
<path d="M8560 3155 c-34 -25 -35 -25 -42 -5 -9 24 -26 25 -55 5 -19 -13 -22
-13 -27 0 -7 20 -36 19 -36 0 0 -9 -9 -34 -20 -56 -32 -62 -2 -84 38 -29 12
16 30 34 40 39 15 8 18 5 17 -17 0 -36 25 -31 79 13 l41 33 0 -61 c0 -47 3
-62 14 -62 11 0 15 16 18 59 2 33 5 62 8 64 8 8 -15 42 -28 42 -7 0 -28 -11
-47 -25z"/>
<path d="M9436 3117 c-11 -8 -15 -19 -10 -30 8 -23 38 -18 42 7 5 26 -11 38
-32 23z"/>
<path d="M9092 2833 c-22 -38 -46 -79 -53 -93 -8 -14 -23 -25 -33 -25 -26 0
-33 -25 -10 -31 16 -4 18 -13 16 -53 -5 -63 17 -106 61 -120 40 -13 87 0 87
24 0 8 0 18 1 22 1 15 -19 13 -35 -3 -26 -25 -63 -11 -74 30 -6 18 -8 45 -5
58 4 23 11 26 65 32 63 6 88 18 88 43 0 9 -6 12 -17 9 -45 -14 -113 -23 -113
-14 0 13 35 80 64 123 23 33 26 65 6 65 -4 0 -26 -30 -48 -67z"/>
<path d="M7813 2858 c-16 -18 -43 -51 -59 -73 -24 -34 -107 -135 -191 -234
-23 -27 -30 -66 -13 -76 6 -3 14 5 19 18 5 13 49 70 98 128 49 57 103 125 121
151 18 25 46 58 63 71 18 14 29 29 25 36 -12 19 -31 12 -63 -21z"/>
<path d="M7376 2868 c-19 -63 -26 -112 -17 -121 7 -7 14 -7 19 -1 12 13 33
114 26 125 -8 13 -24 11 -28 -3z"/>
<path d="M8235 2832 c-6 -4 -11 -24 -13 -46 -1 -21 -14 -66 -28 -100 -14 -33
-30 -81 -36 -105 -10 -43 -9 -46 17 -69 31 -26 69 -25 113 4 34 22 57 81 43
110 -14 32 -56 41 -92 20 l-28 -17 16 38 c27 63 42 151 29 162 -6 6 -16 7 -21
3z m65 -232 c0 -12 -11 -32 -25 -45 -39 -40 -108 -27 -72 13 9 9 17 21 19 27
2 5 9 10 16 12 8 1 16 4 20 7 14 15 42 5 42 -14z"/>
<path d="M9426 2765 c-19 -19 -31 -59 -21 -75 10 -16 23 -3 40 37 18 42 7 63
-19 38z"/>
<path d="M6710 2723 c-43 -22 -49 -52 -20 -93 12 -16 22 -42 23 -57 2 -27 0
-28 -41 -25 -40 2 -42 1 -32 -18 15 -28 55 -36 85 -16 32 21 33 72 3 126 -25
43 -23 49 24 59 19 4 33 13 33 21 0 22 -35 23 -75 3z"/>
<path d="M6123 2715 c-41 -29 -37 -93 10 -143 44 -47 162 -54 155 -9 -2 12
-11 23 -22 25 -11 3 -16 0 -12 -7 5 -7 -5 -11 -29 -11 -73 0 -128 95 -71 122
20 9 32 7 66 -11 63 -32 87 -7 28 29 -39 24 -95 26 -125 5z"/>
<path d="M9733 2714 c-8 -21 13 -42 28 -27 13 13 5 43 -11 43 -6 0 -13 -7 -17
-16z"/>
<path d="M6479 2697 c-89 -60 -64 -152 32 -118 27 9 33 8 49 -12 14 -16 21
-19 30 -11 9 9 8 17 -1 33 -11 16 -11 27 -1 53 26 69 -39 102 -109 55z m74
-31 c-17 -31 -49 -56 -70 -56 -34 0 -26 29 15 57 33 22 68 22 55 -1z"/>
<path d="M6904 2697 c-35 -20 -74 -73 -74 -100 0 -14 11 -39 24 -54 22 -26 30
-28 94 -28 44 0 75 5 85 14 29 23 20 33 -24 26 -61 -10 -108 -8 -124 5 -26 21
-16 37 28 48 44 12 87 44 87 65 0 35 -54 48 -96 24z m37 -37 c-22 -19 -51 -27
-51 -15 0 6 59 34 70 34 3 0 -6 -9 -19 -19z"/>
<path d="M8402 2628 c-33 -31 -42 -48 -42 -74 0 -35 28 -64 63 -64 45 0 107
62 107 107 0 27 -12 41 -51 57 -35 15 -35 15 -77 -26z m78 -23 c25 -30 -22
-82 -65 -73 -28 5 -28 23 0 57 29 34 46 39 65 16z"/>
<path d="M7924 2622 c-83 -67 -55 -151 35 -104 l37 20 12 -30 c9 -24 16 -29
38 -26 37 4 42 25 9 38 -23 9 -25 14 -20 44 12 63 -60 100 -111 58z m46 -54
c-47 -39 -78 -37 -47 3 18 23 49 38 66 31 11 -4 6 -12 -19 -34z"/>
<path d="M8640 2581 c-19 -33 -41 -58 -50 -57 -8 1 -15 -6 -15 -14 0 -22 81
-21 128 2 20 10 37 23 37 28 0 6 5 10 10 10 6 0 10 -11 10 -25 0 -30 30 -48
67 -39 65 15 70 44 8 37 -25 -2 -45 -2 -45 0 0 2 7 24 15 47 25 71 5 79 -58
21 -23 -21 -52 -43 -64 -49 -19 -10 -20 -9 -16 8 3 11 9 20 13 20 10 0 31 50
25 61 -13 20 -32 6 -65 -50z"/>
<path d="M9680 2585 c-9 -11 -10 -19 -2 -27 14 -14 32 -1 32 23 0 23 -13 25
-30 4z"/>
<path d="M10754 2453 c-104 -93 -144 -159 -174 -284 -34 -144 -9 -222 83 -268
61 -30 137 -40 137 -19 0 10 -13 18 -37 21 -104 17 -163 78 -163 167 0 49 27
155 56 216 18 39 119 147 183 196 30 23 36 48 11 48 -4 0 -48 -35 -96 -77z"/>
<path d="M10422 2433 c-5 -21 -14 -76 -21 -123 -16 -123 -29 -164 -46 -150 -8
7 -26 9 -43 5 -87 -19 -130 -175 -50 -175 56 0 103 53 138 156 24 68 64 299
55 314 -12 20 -24 9 -33 -27z m-85 -345 c-34 -59 -99 -82 -83 -30 13 41 47 72
78 72 l30 0 -25 -42z"/>
<path d="M12865 2379 c-29 -47 -35 -63 -25 -72 13 -13 24 -2 67 70 22 39 24
63 4 63 -5 0 -25 -27 -46 -61z"/>
<path d="M11729 2375 c-24 -39 -38 -53 -49 -49 -58 24 -116 5 -150 -51 -25
-41 -25 -82 0 -120 18 -27 18 -32 4 -53 -8 -12 -12 -27 -9 -32 11 -18 32 -10
43 15 9 19 19 25 42 25 39 0 90 21 113 47 26 29 33 87 14 116 -14 21 -13 26 7
60 12 20 30 45 40 56 18 20 14 41 -8 41 -6 0 -28 -25 -47 -55z m-104 -75 c-4
-6 5 -10 19 -10 14 0 26 -3 26 -6 0 -10 -92 -124 -100 -124 -11 0 -20 27 -20
56 0 35 16 61 48 78 33 18 35 19 27 6z m60 -127 c-24 -21 -65 -32 -65 -17 0 3
19 29 43 57 l42 51 3 -34 c3 -27 -2 -39 -23 -57z"/>
<path d="M12370 2413 c-48 -33 -51 -43 -45 -129 6 -103 -9 -129 -76 -129 -59
0 -65 -25 -9 -42 22 -7 47 -13 55 -13 24 0 18 -19 -31 -91 -54 -78 -54 -107
-1 -139 38 -24 122 -28 130 -6 7 18 -38 62 -48 47 -3 -6 -3 -15 0 -21 9 -14
-10 -12 -50 4 -47 20 -45 40 10 112 46 61 58 107 30 118 -14 5 -13 10 6 36 19
25 22 40 20 92 -2 35 -3 73 -3 86 0 41 62 68 90 40 9 -9 15 -9 25 1 10 10 7
16 -12 32 -29 24 -59 24 -91 2z"/>
<path d="M16035 2403 c-10 -16 -25 -33 -33 -39 -15 -11 -9 -34 8 -34 11 0 48
37 61 61 6 11 4 21 -5 28 -10 9 -17 5 -31 -16z"/>
<path d="M9726 2398 c-2 -7 -11 -49 -21 -93 -10 -44 -31 -116 -47 -159 -50
-138 -58 -206 -22 -206 13 0 19 16 16 51 -1 10 17 73 39 140 44 135 72 256 63
270 -8 13 -24 11 -28 -3z"/>
<path d="M11411 2356 c-31 -53 -32 -54 -61 -43 -27 10 -33 8 -65 -23 -39 -38
-52 -84 -36 -131 9 -25 7 -37 -9 -69 -11 -22 -20 -48 -20 -60 0 -35 24 -22 43
25 18 44 20 45 55 39 45 -6 93 20 122 68 23 37 19 71 -11 104 -20 21 -20 21
12 72 28 46 32 72 9 72 -5 0 -22 -24 -39 -54z m-66 -86 c3 -5 -9 -31 -27 -57
l-33 -48 -3 34 c-5 45 45 101 63 71z m63 -32 c7 -7 12 -20 12 -31 0 -28 -54
-77 -85 -77 -30 0 -31 -2 14 68 36 56 40 59 59 40z"/>
<path d="M9545 2378 c-2 -7 -16 -55 -31 -107 -20 -65 -33 -95 -45 -98 -23 -6
-32 -30 -14 -40 11 -6 12 -17 3 -56 -11 -53 -6 -77 16 -77 10 0 16 19 21 66
l7 66 42 -6 c48 -8 76 0 76 20 0 10 -14 14 -51 14 -44 0 -51 2 -46 18 2 9 16
57 31 106 14 48 23 92 20 97 -8 13 -24 11 -29 -3z"/>
<path d="M13778 2338 c-13 -24 -30 -58 -37 -75 -7 -18 -19 -34 -25 -34 -6 -1
-18 -2 -26 -3 -23 -2 -18 -31 5 -34 17 -2 20 -9 17 -37 -6 -48 32 -85 87 -85
44 0 59 13 41 35 -9 11 -17 12 -31 4 -33 -17 -61 6 -57 49 2 30 7 36 22 34 30
-5 66 7 66 23 0 11 -11 15 -36 15 -32 0 -35 2 -29 23 4 12 18 39 31 59 13 21
24 44 24 53 0 29 -29 14 -52 -27z"/>
<path d="M5495 2359 c-519 -25 -1110 -72 -1282 -104 -403 -73 -718 -207 -774
-328 -44 -98 -12 -226 80 -317 106 -105 251 -162 524 -205 93 -14 177 -31 188
-38 14 -9 21 -9 31 1 26 26 -15 41 -180 66 -294 46 -421 91 -525 186 -116 106
-137 255 -48 341 74 70 256 151 456 204 228 60 416 87 815 115 80 6 201 15
270 20 356 28 882 37 1151 20 252 -16 350 -33 427 -76 48 -26 68 -32 76 -24
14 15 -8 32 -89 71 -48 23 -87 32 -195 43 -297 33 -579 41 -925 25z"/>
<path d="M8936 2358 c-2 -7 -9 -42 -16 -78 -6 -36 -18 -80 -26 -98 -13 -32
-16 -34 -61 -30 -38 2 -48 0 -48 -12 0 -10 13 -16 43 -18 23 -2 42 -6 42 -10
-1 -4 -7 -32 -14 -63 -14 -57 -10 -84 10 -71 6 4 18 37 28 74 18 66 18 67 54
70 26 2 38 8 40 21 3 13 -3 17 -28 17 -29 0 -32 3 -26 23 31 108 40 161 28
165 -7 2 -10 8 -6 13 3 5 0 9 -6 9 -6 0 -12 -6 -14 -12z"/>
<path d="M11055 2341 c-69 -32 -104 -78 -73 -97 6 -4 19 4 31 20 17 24 65 56
82 56 13 0 -33 -63 -81 -112 -27 -27 -70 -59 -96 -70 -34 -14 -48 -26 -48 -40
0 -17 4 -19 33 -13 17 4 41 14 52 21 30 21 54 17 92 -16 37 -33 64 -38 83 -15
17 20 3 36 -25 29 -18 -4 -27 0 -40 20 -10 14 -24 26 -31 26 -22 0 -17 10 32
62 25 26 52 65 61 85 14 34 14 38 -3 50 -22 16 -21 16 -69 -6z"/>
<path d="M14477 2343 c-2 -5 -10 -25 -16 -45 -10 -31 -17 -37 -43 -40 -37 -4
-49 -27 -18 -35 17 -4 20 -11 15 -27 -29 -94 -7 -171 58 -195 51 -19 114 -5
109 24 -6 32 -20 40 -40 22 -45 -41 -102 -4 -102 67 0 23 5 56 10 72 9 26 17
31 71 41 64 12 96 30 81 45 -6 6 -25 5 -48 -1 -22 -6 -47 -11 -57 -11 -16 0
-16 2 -2 31 16 31 14 59 -4 59 -5 0 -12 -3 -14 -7z"/>
<path d="M15055 2329 c-118 -15 -150 -23 -150 -39 0 -9 8 -14 20 -12 99 12
134 16 160 16 29 1 30 -1 28 -41 -1 -22 -11 -72 -22 -110 -26 -91 -30 -138
-11 -138 8 0 17 15 22 40 5 22 18 68 28 103 11 35 20 84 20 108 l0 43 88 3
c69 2 87 6 87 18 0 12 -18 15 -100 16 -55 1 -131 -2 -170 -7z"/>
<path d="M13052 2313 c-51 -25 -87 -69 -106 -130 -32 -101 -18 -166 44 -198
15 -8 65 -19 112 -25 95 -13 128 -5 128 30 0 22 -15 27 -26 9 -8 -14 -144 -6
-187 10 -14 6 -34 22 -43 37 -15 23 -16 33 -6 80 25 121 74 170 163 162 28 -3
58 -13 69 -23 27 -24 51 -6 29 21 -35 42 -120 55 -177 27z"/>
<path d="M8690 2265 c-10 -12 -10 -19 -2 -27 15 -15 48 14 38 31 -10 15 -21
14 -36 -4z"/>
<path d="M7705 2200 c-57 -23 -65 -86 -17 -130 51 -46 40 -64 -40 -61 -35 1
-48 -2 -48 -13 0 -18 22 -26 75 -26 52 0 75 19 75 62 0 20 -9 39 -30 58 -16
15 -30 35 -30 43 0 22 26 40 49 32 27 -8 39 15 16 32 -21 15 -22 15 -50 3z"/>
<path d="M9084 2191 c-23 -14 -34 -31 -43 -66 -31 -121 43 -189 149 -135 46
23 53 33 45 60 -8 25 -25 26 -32 1 -6 -23 -43 -41 -84 -41 -22 0 -32 6 -39 26
-14 37 -13 44 13 44 34 0 86 36 93 65 8 31 -19 65 -50 65 -12 0 -35 -9 -52
-19z m63 -44 c-3 -8 -19 -19 -36 -25 -28 -10 -31 -9 -31 8 0 11 12 26 28 34
29 15 48 7 39 -17z"/>
<path d="M13997 2184 c-63 -42 -74 -88 -32 -130 19 -19 34 -24 58 -22 40 4 44
31 5 32 -34 2 -61 26 -38 34 23 8 70 59 70 75 0 33 -25 37 -63 11z"/>
<path d="M16194 2195 c-7 -18 3 -35 21 -35 18 0 26 25 12 39 -15 15 -27 14
-33 -4z"/>
<path d="M16740 2200 c-84 -27 -170 -81 -170 -107 0 -25 22 -23 49 5 33 32
142 78 166 68 8 -3 15 -17 15 -30 0 -39 41 -79 79 -78 58 1 147 78 139 120 -5
28 -27 19 -46 -18 -24 -44 -84 -80 -109 -64 -10 6 -23 30 -30 54 -17 59 -35
69 -93 50z"/>
<path d="M7230 2179 c-29 -16 -37 -29 -52 -81 -10 -35 -16 -69 -13 -75 8 -22
25 -14 36 15 43 114 71 142 118 117 39 -19 54 0 21 27 -28 23 -65 22 -110 -3z"/>
<path d="M9840 2176 c-48 -32 -64 -65 -57 -116 8 -64 31 -83 95 -78 36 3 60
11 74 25 32 33 14 46 -32 22 -41 -21 -81 -22 -87 -2 -2 6 4 14 14 17 22 7 80
56 67 56 -5 0 -1 5 9 11 21 12 22 38 1 67 -19 28 -41 28 -84 -2z m60 -33 c-1
-24 -20 -46 -53 -61 -35 -15 -37 -15 -37 2 0 19 57 76 76 76 8 0 14 -8 14 -17z"/>
<path d="M7438 2175 c-36 -12 -82 -55 -93 -86 -3 -8 1 -33 8 -55 10 -29 23
-44 50 -57 45 -23 63 -17 117 35 37 37 41 44 31 65 -11 24 -31 23 -31 0 0 -18
-59 -77 -76 -77 -24 0 -54 19 -54 35 0 8 7 15 15 15 41 0 105 62 105 103 0 27
-31 37 -72 22z m12 -60 c-13 -14 -32 -25 -43 -25 -20 0 -20 0 -1 21 19 21 55
40 63 33 3 -2 -6 -15 -19 -29z"/>
<path d="M15669 2163 c-59 -65 -66 -97 -31 -151 24 -36 48 -45 90 -31 52 16
75 38 61 56 -10 11 -14 11 -28 -1 -9 -7 -30 -17 -48 -21 -26 -5 -34 -2 -42 14
-16 30 -13 41 10 41 27 0 85 35 93 57 4 9 -1 26 -9 39 -22 33 -64 32 -96 -3z
m55 -37 c-24 -18 -54 -27 -54 -16 0 17 53 51 64 40 7 -7 4 -14 -10 -24z"/>
<path d="M10036 2129 c-67 -74 -59 -130 15 -109 42 12 39 13 39 -5 0 -11 11
-15 41 -15 24 0 38 4 34 10 -3 6 -15 10 -27 10 -14 0 -18 5 -14 16 23 61 9 96
-23 57 -17 -22 -52 -43 -72 -43 -11 0 33 66 55 83 6 4 23 5 38 3 34 -7 47 12
23 31 -34 24 -61 15 -109 -38z"/>
<path d="M8421 2151 c-21 -21 -38 -99 -27 -127 11 -29 31 -8 36 39 7 55 20 71
58 72 17 0 27 5 27 15 0 24 -70 25 -94 1z"/>
<path d="M13299 2141 c-34 -35 -38 -72 -9 -101 25 -25 62 -26 83 -2 17 18 20
42 15 92 -6 49 -46 54 -89 11z m57 -66 c-3 -8 -15 -15 -26 -15 -14 0 -20 7
-20 23 0 36 21 51 38 26 7 -11 11 -26 8 -34z"/>
<path d="M13500 2151 c-22 -17 -25 -18 -36 -4 -16 23 -31 9 -37 -34 -3 -21 -8
-48 -12 -60 -12 -39 17 -27 58 22 45 54 62 58 53 13 -6 -36 5 -63 24 -56 16 5
24 107 9 124 -15 19 -29 17 -59 -5z"/>
<path d="M14165 2133 c-28 -66 -29 -83 -8 -83 11 0 32 14 48 30 34 36 47 38
37 8 -12 -34 -9 -63 7 -63 9 0 19 20 27 55 11 47 10 57 -2 70 -12 12 -18 13
-36 1 -18 -11 -22 -11 -30 3 -14 25 -26 19 -43 -21z"/>
<path d="M15453 2147 c-18 -12 -33 -26 -33 -30 0 -4 -11 -24 -25 -45 -18 -26
-21 -38 -13 -43 9 -6 8 -10 -3 -14 -18 -7 -66 -141 -55 -152 14 -14 41 15 71
74 23 45 36 62 56 66 65 14 130 114 99 152 -17 21 -59 18 -97 -8z m53 -62
c-14 -21 -76 -63 -76 -52 0 46 80 129 88 92 2 -9 -4 -27 -12 -40z"/>
<path d="M8013 2149 c-20 -6 -33 -16 -33 -26 0 -16 12 -15 85 3 27 7 28 6 21
-22 -4 -16 -18 -46 -32 -66 -48 -75 -24 -90 45 -28 25 22 50 40 56 40 6 0 26
-18 44 -41 28 -34 37 -40 60 -34 35 8 51 31 51 73 0 18 5 43 11 54 17 31 -4
45 -30 19 -14 -14 -21 -34 -21 -60 0 -57 -17 -60 -60 -10 -35 41 -40 43 -66
33 -29 -10 -29 -10 -29 30 0 40 -1 41 -35 43 -19 1 -50 -3 -67 -8z"/>
<path d="M11846 2148 c-2 -7 -9 -32 -15 -56 -7 -23 -26 -58 -43 -78 -34 -39
-28 -65 10 -38 51 36 99 169 65 181 -7 3 -15 -1 -17 -9z"/>
<path d="M14735 2150 c-12 -19 7 -30 43 -26 20 2 45 -1 55 -6 22 -11 37 19 16
33 -19 12 -106 11 -114 -1z"/>
<path d="M15308 2090 c-18 -33 -36 -60 -39 -60 -4 0 -9 17 -13 39 -7 44 -31
70 -48 53 -8 -8 -8 -15 1 -26 6 -8 16 -38 20 -67 8 -47 6 -57 -13 -84 -42 -56
-106 -171 -106 -188 0 -30 20 -18 48 29 15 26 62 100 105 166 91 141 110 175
102 188 -12 20 -24 9 -57 -50z"/>
<path d="M8579 2083 c-19 -46 -19 -73 0 -73 14 0 53 91 47 107 -10 25 -27 13
-47 -34z"/>
<path d="M16150 1995 c-13 -16 -6 -35 15 -35 12 0 25 21 25 41 0 14 -26 11
-40 -6z"/>
<path d="M7825 1990 c-4 -7 -3 -16 3 -22 14 -14 45 -2 40 15 -6 16 -34 21 -43
7z"/>
<path d="M9405 1910 c3 -5 11 -10 16 -10 6 0 7 5 4 10 -3 6 -11 10 -16 10 -6
0 -7 -4 -4 -10z"/>
<path d="M4375 1458 c-2 -7 -9 -33 -15 -58 -14 -55 -58 -137 -76 -144 -21 -8
-17 -36 5 -36 11 0 23 5 26 10 3 6 30 10 58 10 29 0 76 3 105 6 49 6 52 9 52
34 0 20 -11 37 -44 64 -24 20 -54 56 -66 81 -22 45 -37 56 -45 33z"/>
<path d="M16975 1460 c-4 -6 13 -29 38 -50 89 -78 107 -180 57 -315 -22 -59
-97 -146 -160 -187 -19 -12 -22 -19 -13 -28 22 -23 149 84 186 157 22 42 57
166 57 201 0 47 -43 135 -90 186 -42 46 -63 55 -75 36z"/>
<path d="M16715 1420 c-4 -6 14 -29 39 -51 103 -91 92 -222 -29 -357 -51 -57
-97 -93 -123 -96 -9 -2 -18 -10 -20 -19 -6 -29 43 -20 89 16 66 50 144 148
168 211 40 108 21 198 -57 269 -44 39 -57 44 -67 27z"/>
<path d="M11005 1401 c-49 -22 -140 -119 -180 -192 -28 -50 -30 -62 -30 -154
0 -114 19 -164 77 -208 39 -29 118 -56 172 -60 46 -2 62 19 19 28 -183 37
-237 90 -237 235 -1 66 4 85 32 143 59 119 191 221 244 188 27 -17 47 1 28 24
-17 20 -76 19 -125 -4z"/>
<path d="M12096 1408 c-2 -7 -9 -34 -16 -59 -8 -31 -22 -54 -41 -68 -33 -24
-36 -46 -13 -80 13 -18 15 -38 9 -107 -4 -56 -11 -84 -19 -84 -23 0 -51 28
-51 52 0 27 -23 31 -39 6 -15 -24 20 -70 63 -83 l33 -10 -5 -60 c-3 -33 -9
-70 -13 -82 -5 -17 -2 -23 10 -23 20 0 26 15 40 99 10 61 13 65 42 73 18 4 46
21 63 37 53 49 36 112 -44 161 -19 11 -32 26 -30 33 2 7 6 24 9 40 7 31 23 35
41 10 7 -9 17 -13 23 -9 21 13 13 37 -18 54 -25 14 -29 21 -24 42 11 41 10 63
-3 67 -7 3 -15 -1 -17 -9z m52 -326 c3 -25 -3 -33 -31 -51 -19 -11 -39 -21
-45 -21 -10 0 -8 36 4 118 l5 34 32 -25 c21 -16 33 -35 35 -55z"/>
<path d="M12430 1380 c-25 -25 -40 -62 -40 -99 0 -40 -32 -65 -80 -63 -21 1
-42 -3 -45 -9 -4 -5 12 -30 35 -55 l41 -45 -32 -57 c-18 -31 -36 -61 -41 -66
-22 -26 3 -144 37 -176 19 -18 31 -21 58 -16 18 3 42 12 52 19 15 12 16 17 5
37 l-13 24 -15 -22 c-23 -35 -60 -29 -78 13 -23 55 -17 92 26 169 l39 72 -20
33 c-16 27 -18 36 -7 42 7 5 16 9 20 9 20 0 58 57 58 87 0 37 18 82 34 85 6 1
22 2 36 2 41 2 31 30 -12 34 -27 2 -43 -3 -58 -18z"/>
<path d="M16117 1389 c-32 -19 -95 -127 -138 -237 -46 -119 -78 -169 -111
-174 -13 -2 -23 -10 -23 -18 0 -26 39 -22 71 8 l31 28 27 -23 c31 -26 44 -28
80 -11 24 10 44 43 33 54 -2 3 -18 -3 -34 -12 -16 -10 -37 -15 -47 -11 -32 13
-29 37 14 98 50 71 154 285 145 299 -8 13 -25 12 -48 -1z m-39 -126 c-23 -52
-58 -112 -58 -100 0 10 69 147 75 147 2 0 -5 -21 -17 -47z"/>
<path d="M9916 1350 c-58 -51 -56 -93 7 -186 30 -45 43 -98 33 -138 -7 -30
-58 -60 -86 -51 -31 10 -62 56 -56 81 8 29 -11 41 -31 21 -22 -22 -9 -63 32
-104 55 -55 136 -39 170 33 15 32 16 44 6 89 -7 29 -25 71 -42 93 -17 23 -33
56 -36 75 -4 29 -1 37 27 60 17 15 36 27 42 27 11 0 58 -47 74 -75 9 -15 15
-17 24 -9 15 15 -9 64 -46 93 -38 30 -77 27 -118 -9z"/>
<path d="M11350 1361 c0 -25 113 -147 128 -137 19 11 15 22 -24 58 -19 18 -44
48 -55 66 -23 35 -49 43 -49 13z"/>
<path d="M14555 1360 c-10 -16 4 -30 29 -30 21 0 56 -27 56 -43 0 -4 -16 -27
-35 -53 -39 -50 -40 -58 -22 -94 11 -22 10 -26 -8 -35 -28 -14 -32 -61 -6 -74
32 -17 37 -73 11 -115 -22 -36 -75 -86 -91 -86 -5 0 -9 9 -9 20 0 26 -15 25
-34 -2 -20 -28 -5 -48 36 -48 42 0 63 14 108 71 34 43 40 58 40 99 0 32 -6 55
-20 72 -20 27 -18 38 10 38 9 0 24 8 34 19 18 19 11 31 -26 44 -27 10 -21 37
17 86 37 47 41 61 24 93 -18 33 -100 61 -114 38z"/>
<path d="M16435 1357 c-19 -15 -12 -42 9 -34 8 3 22 -14 35 -40 16 -33 25 -43
33 -35 13 13 5 46 -22 90 -22 36 -28 38 -55 19z"/>
<path d="M6933 1342 c-13 -2 -23 -7 -23 -11 0 -12 74 -31 83 -22 20 20 -16 40
-60 33z"/>
<path d="M9136 1334 c-46 -12 -61 -12 -73 -2 -12 10 -18 9 -28 -5 -7 -9 -17
-17 -23 -17 -17 0 -25 -19 -14 -33 13 -15 -36 -137 -54 -137 -19 0 -27 -19
-15 -33 7 -9 6 -30 -5 -71 -17 -66 -13 -96 11 -76 8 7 15 18 15 24 0 7 7 36
15 64 14 46 19 52 43 52 57 0 102 13 102 28 0 12 -10 14 -60 9 l-60 -7 16 38
c8 20 23 54 31 75 9 23 23 39 37 42 102 20 126 25 164 30 26 4 42 12 42 21 0
18 -63 17 -144 -2z"/>
<path d="M7321 1303 c-62 -46 -91 -100 -91 -170 0 -49 -1 -52 -27 -55 -17 -2
-28 -9 -28 -18 0 -10 9 -14 28 -13 35 2 35 -16 1 -57 -19 -21 -32 -29 -45 -25
-14 5 -19 1 -19 -14 0 -11 9 -22 21 -26 27 -9 75 35 100 92 15 35 23 42 51 45
48 4 45 33 -4 32 -32 -1 -37 2 -42 26 -16 81 73 191 144 177 35 -8 51 11 25
30 -30 21 -59 15 -114 -24z"/>
<path d="M14241 1314 c-46 -38 -78 -100 -91 -174 -6 -36 -13 -76 -16 -88 -5
-27 -48 -70 -81 -83 -26 -10 -30 -27 -8 -35 16 -7 53 14 83 46 l19 21 16 -24
c25 -38 47 -57 67 -57 23 0 80 47 80 65 0 18 -25 13 -50 -10 -25 -22 -46 -14
-70 28 -13 24 -10 32 48 155 81 169 81 222 3 156z m-12 -95 c-34 -87 -56 -119
-43 -61 6 27 51 112 59 112 3 0 -4 -23 -16 -51z"/>
<path d="M15475 1328 c-37 -112 -60 -168 -71 -172 -8 -3 -26 -1 -41 5 -17 6
-30 6 -36 0 -16 -16 11 -41 44 -41 16 0 29 -2 29 -3 0 -2 -9 -30 -20 -62 -24
-70 -25 -87 -4 -83 10 2 25 31 40 79 23 72 27 78 63 93 45 17 58 33 42 49 -8
8 -14 8 -23 -1 -7 -7 -18 -12 -25 -12 -9 0 -5 20 13 70 14 39 22 75 19 80 -9
14 -25 12 -30 -2z"/>
<path d="M6832 1290 c-108 -72 -185 -176 -213 -283 -22 -89 28 -162 131 -191
70 -20 120 -20 146 -2 18 14 18 15 1 21 -9 4 -29 4 -43 1 -39 -10 -141 23
-175 56 -23 23 -29 38 -29 71 0 90 96 231 202 298 29 18 55 34 56 35 2 1 0 10
-5 19 -8 14 -17 11 -71 -25z"/>
<path d="M8821 1309 c-6 -13 -20 -61 -32 -106 -12 -46 -23 -83 -25 -83 -2 0
-13 5 -24 12 -46 29 -120 -40 -120 -113 0 -29 6 -42 27 -59 61 -48 98 -10 152
155 46 140 57 193 43 207 -8 8 -14 5 -21 -13z m-71 -214 c10 6 1 -19 -30 -87
-15 -33 -45 -36 -60 -8 -21 40 36 124 67 98 7 -5 17 -7 23 -3z"/>
<path d="M15185 1318 c-2 -7 -6 -26 -9 -43 -3 -16 -25 -88 -49 -158 -30 -88
-40 -130 -32 -133 6 -3 33 16 58 42 26 26 50 45 53 42 3 -3 -1 -22 -10 -41 -8
-19 -12 -38 -8 -41 14 -15 30 -3 45 36 15 37 15 44 2 65 -18 27 -18 27 -57 7
-16 -9 -28 -12 -25 -7 15 25 68 217 63 229 -7 17 -25 18 -31 2z"/>
<path d="M9427 1293 c-4 -3 -7 -19 -7 -34 0 -15 -8 -47 -18 -71 -45 -105 -84
-238 -78 -263 10 -40 42 -30 38 12 -2 17 11 70 28 119 18 49 41 113 52 143 23
65 14 124 -15 94z"/>
<path d="M6481 1262 c-6 -11 -18 -52 -27 -93 -19 -86 -46 -147 -79 -183 -29
-31 -65 -35 -65 -6 0 26 56 89 87 96 28 7 26 28 -4 32 -25 4 -87 -48 -109 -91
-31 -60 5 -104 69 -86 59 16 103 94 142 249 8 30 17 65 21 78 8 28 -20 31 -35
4z"/>
<path d="M17260 1180 c-12 -23 -6 -40 15 -40 21 0 37 34 23 48 -17 17 -26 15
-38 -8z"/>
<path d="M12726 1146 c-48 -50 -76 -166 -41 -166 18 0 35 39 35 78 0 15 11 41
25 57 l25 30 18 -23 c19 -24 32 -20 32 9 0 17 -35 49 -54 49 -5 0 -23 -15 -40
-34z"/>
<path d="M7560 1163 c-38 -6 -98 -34 -104 -49 -8 -21 9 -56 39 -82 14 -13 25
-28 22 -35 -5 -16 -58 -21 -67 -6 -10 16 -40 4 -40 -16 0 -37 94 -43 132 -8
26 24 22 46 -17 87 -19 21 -33 41 -30 46 8 13 69 31 95 28 12 -2 25 2 27 9 6
16 -26 30 -57 26z"/>
<path d="M8042 1145 c-28 -24 -92 -141 -92 -170 0 -21 19 -28 36 -15 8 7 21
38 30 68 20 66 64 117 94 107 28 -9 44 3 29 21 -18 22 -64 17 -97 -11z"/>
<path d="M9205 1160 c-10 -16 16 -43 28 -31 11 11 2 41 -12 41 -5 0 -13 -5
-16 -10z"/>
<path d="M4887 1140 c-17 -13 -28 -17 -32 -10 -13 21 -29 3 -30 -32 -1 -19
-12 -56 -24 -81 -12 -26 -20 -51 -16 -57 15 -24 34 -6 60 55 15 35 36 72 46
81 10 9 16 21 12 27 -4 6 9 1 29 -11 41 -26 48 -27 48 -9 0 43 -56 66 -93 37z"/>
<path d="M8211 1136 c-77 -57 -108 -154 -63 -199 23 -23 70 -26 115 -8 29 11
38 41 12 41 -8 0 -15 -4 -15 -10 0 -14 -74 -12 -88 2 -7 7 -12 22 -12 35 0 18
6 23 28 24 51 1 67 8 95 39 64 72 6 133 -72 76z m59 -36 c-12 -22 -49 -50 -67
-50 -25 0 -12 30 24 54 40 27 59 26 43 -4z"/>
<path d="M13677 1142 c-8 -9 -27 -44 -42 -77 -14 -33 -42 -77 -63 -97 -28 -30
-33 -41 -24 -50 9 -9 20 -5 46 21 29 28 37 31 54 22 22 -12 47 -6 75 17 16 14
17 13 17 -11 0 -14 7 -33 16 -42 16 -15 18 -15 33 0 15 15 14 17 -3 30 -18 13
-18 15 2 74 17 49 18 62 7 71 -10 8 -23 -2 -56 -46 -24 -32 -50 -59 -56 -62
-26 -8 -24 30 3 85 16 32 30 61 32 64 7 15 -28 16 -41 1z"/>
<path d="M13927 1140 c-28 -22 -42 -59 -51 -132 -5 -42 -3 -48 13 -48 15 0 21
12 31 63 15 82 29 101 69 92 24 -5 31 -3 31 9 0 16 -29 36 -53 36 -8 0 -26 -9
-40 -20z"/>
<path d="M15602 1148 c-7 -7 -12 -16 -12 -20 0 -4 -13 -36 -30 -70 -51 -105
-32 -120 44 -33 47 54 75 72 61 38 -18 -44 -18 -63 2 -63 19 0 91 77 85 93 -1
4 2 7 7 7 5 0 16 3 25 6 14 5 14 1 1 -42 -19 -62 -19 -84 -1 -84 16 0 49 99
44 133 -4 32 -53 35 -84 6 -20 -19 -24 -20 -24 -5 0 27 -27 30 -65 6 -33 -21
-48 -17 -24 7 11 11 5 33 -10 33 -4 0 -12 -5 -19 -12z"/>
<path d="M5419 1140 c-40 -12 -79 -41 -79 -58 0 -9 19 -35 41 -58 23 -23 38
-47 35 -53 -10 -16 -47 -13 -67 5 -19 17 -39 11 -39 -11 0 -36 96 -51 130 -20
28 26 25 40 -20 89 -36 39 -38 45 -24 57 9 7 34 13 57 14 48 1 60 21 22 35
-14 5 -27 10 -28 9 -1 0 -14 -4 -28 -9z"/>
<path d="M5873 1130 c-67 -40 -96 -155 -50 -198 13 -12 33 -22 45 -22 32 0 84
24 105 48 27 30 2 39 -34 13 -36 -27 -85 -28 -99 -2 -15 28 -12 41 8 41 28 0
120 58 127 79 17 55 -41 78 -102 41z m56 -36 c-16 -19 -69 -47 -76 -40 -10 9
46 56 68 56 18 0 20 -2 8 -16z"/>
<path d="M9536 1120 c-20 -18 -36 -38 -36 -46 0 -8 -9 -14 -19 -14 -27 0 -37
-21 -18 -35 10 -7 17 -19 17 -28 0 -22 48 -57 77 -57 53 0 130 47 120 74 -6
15 -11 14 -46 -9 -27 -18 -49 -25 -72 -23 -44 4 -48 28 -9 50 33 19 72 75 68
98 -5 27 -45 22 -82 -10z m34 -24 c0 -2 -8 -10 -17 -17 -16 -13 -17 -12 -4 4
13 16 21 21 21 13z"/>
<path d="M12905 1119 c-47 -42 -65 -78 -65 -132 0 -48 21 -77 58 -77 27 0 130
38 138 52 9 15 -12 32 -28 22 -32 -21 -113 -41 -125 -32 -18 15 -17 59 1 52
17 -7 106 76 106 99 0 17 -26 47 -40 47 -5 0 -25 -14 -45 -31z m20 -49 c-16
-16 -31 -28 -34 -25 -2 3 8 19 24 35 16 16 31 28 34 25 2 -3 -8 -19 -24 -35z"/>
<path d="M13113 1121 c-42 -31 -60 -72 -48 -110 7 -24 30 -30 69 -19 16 4 31
6 33 4 2 -1 -17 -65 -41 -142 -42 -132 -50 -162 -47 -191 2 -26 22 -11 42 32
24 51 65 88 90 82 22 -6 43 8 35 22 -9 14 -61 14 -86 1 -18 -10 -18 -8 1 47
29 84 80 285 75 291 -3 2 -22 7 -43 9 -31 3 -46 -2 -80 -26z m77 -27 c0 -20
-54 -74 -74 -74 -27 0 -19 46 12 69 32 24 62 27 62 5z"/>
<path d="M8442 1126 c-68 -23 -104 -85 -67 -116 15 -12 53 -10 88 5 14 6 17 2
17 -22 0 -33 16 -53 42 -53 23 0 23 8 1 32 -17 19 -16 23 4 81 22 64 18 92
-12 67 -8 -7 -15 -8 -15 -2 0 17 -23 20 -58 8z m33 -55 c-10 -17 -65 -42 -76
-35 -13 7 17 43 46 54 23 9 41 -3 30 -19z"/>
<path d="M10603 1130 c-76 -18 -114 -69 -92 -122 21 -52 110 -75 168 -45 39
20 20 32 -45 29 -47 -3 -65 0 -77 13 -39 39 1 88 74 90 21 0 42 4 46 9 7 7
-24 37 -36 35 -3 -1 -21 -4 -38 -9z"/>
<path d="M5085 1107 c-78 -44 -111 -141 -64 -188 18 -18 28 -20 67 -14 26 4
58 12 71 18 33 16 39 36 9 32 -117 -18 -125 -18 -131 0 -4 9 -4 27 -1 39 4 17
13 23 41 24 67 5 101 39 80 82 -16 32 -26 33 -72 7z m45 -27 c0 -11 -50 -34
-57 -26 -3 2 8 11 24 20 34 19 33 18 33 6z"/>
<path d="M6060 1040 c-41 -82 -50 -120 -27 -120 8 0 28 19 45 43 33 47 91 107
103 107 4 0 -2 -22 -14 -49 -17 -41 -18 -52 -8 -65 16 -19 31 -12 31 15 0 11
9 38 21 60 41 81 5 114 -63 59 -32 -26 -38 -28 -29 -11 12 22 7 41 -9 41 -6 0
-28 -36 -50 -80z"/>
<path d="M10374 1110 c-12 -5 -25 -14 -29 -20 -5 -8 -11 -8 -21 1 -24 20 -38
4 -58 -65 -21 -75 -15 -95 17 -52 31 41 96 106 106 106 9 0 1 -47 -16 -90 -12
-29 -7 -50 11 -50 14 0 46 92 46 131 0 23 -16 50 -29 48 -4 0 -16 -4 -27 -9z"/>
<path d="M10055 1099 c-4 -5 3 -32 14 -59 12 -27 22 -59 23 -72 1 -13 -22 -59
-55 -108 -67 -103 -82 -134 -74 -154 10 -25 26 -19 33 12 4 15 31 63 59 107
81 123 157 267 146 278 -14 14 -29 0 -55 -51 l-24 -47 -12 30 c-7 17 -16 40
-21 53 -9 24 -24 29 -34 11z"/>
<path d="M9156 1068 c-2 -7 -11 -33 -20 -58 -22 -61 -20 -72 7 -68 12 2 21 9
20 15 -2 6 4 31 12 54 16 44 14 69 -5 69 -6 0 -12 -6 -14 -12z"/>
<path d="M17235 1020 c-4 -6 -1 -17 5 -25 19 -23 2 -52 -40 -72 -22 -10 -40
-23 -40 -30 -1 -40 91 3 115 54 15 31 15 36 1 59 -18 26 -31 30 -41 14z"/>
<path d="M11709 972 c-26 -22 -20 -52 11 -52 21 0 45 43 34 61 -8 13 -19 11
-45 -9z"/>
<path d="M13390 969 c0 -14 5 -19 17 -17 26 5 29 38 4 38 -15 0 -21 -6 -21
-21z"/>
<path d="M14883 964 c-8 -21 13 -42 28 -27 13 13 5 43 -11 43 -6 0 -13 -7 -17
-16z"/>
<path d="M5562 937 c-7 -7 -7 -18 -2 -27 7 -11 11 -11 24 -1 9 8 16 20 16 27
0 18 -24 18 -38 1z"/>
<path d="M7655 930 c-12 -13 -15 -24 -9 -30 13 -13 77 17 71 33 -6 21 -42 19
-62 -3z"/>
<path d="M4957 783 c-13 -12 -7 -44 8 -49 23 -9 18 -68 -11 -154 -14 -41 -26
-94 -27 -117 -4 -88 75 -134 134 -77 59 57 76 135 37 171 -35 31 -43 33 -77
23 -26 -7 -32 -6 -28 4 20 53 29 99 23 128 -6 35 -47 84 -59 71z m111 -245
c23 -23 14 -73 -22 -114 -29 -33 -37 -37 -53 -28 -28 18 -24 96 7 129 26 27
49 32 68 13z"/>
<path d="M5796 758 c-4 -14 -64 -276 -72 -316 -12 -57 28 -86 47 -35 6 16 17
36 26 45 8 10 13 23 11 30 -3 7 -2 23 3 36 7 20 15 23 46 20 l38 -3 -3 -92
c-3 -77 -1 -93 11 -93 16 0 30 26 22 40 -3 4 0 33 6 64 15 82 -5 126 -57 126
-21 0 -23 3 -15 19 6 10 35 42 66 71 53 52 65 73 46 84 -10 7 -109 -93 -149
-149 -14 -19 -27 -33 -29 -32 -2 2 6 43 17 91 12 47 18 91 15 96 -9 14 -25 12
-29 -2z"/>
<path d="M6296 665 c-9 -9 -13 -21 -10 -27 4 -6 2 -8 -3 -5 -17 10 -39 -21
-25 -35 13 -13 45 11 64 45 14 27 -5 43 -26 22z"/>
<path d="M5188 573 c-18 -21 -38 -85 -38 -125 0 -21 5 -28 20 -28 24 0 46 36
32 53 -12 14 -4 65 11 74 7 4 23 7 37 7 15 1 25 7 25 16 0 23 -67 25 -87 3z"/>
<path d="M5336 559 c-61 -48 -76 -141 -30 -178 33 -26 75 -27 104 -3 28 23 19
48 -11 32 -11 -6 -17 -15 -14 -21 7 -10 -41 8 -62 24 -19 14 -16 47 7 85 18
29 58 56 69 46 9 -9 -25 -57 -46 -65 -26 -10 -30 -27 -9 -35 20 -8 61 24 82
62 34 63 -30 101 -90 53z"/>
<path d="M5565 569 c-24 -12 -66 -71 -69 -95 0 -9 7 -21 16 -27 13 -9 26 -5
61 21 l45 32 6 -44 c8 -48 39 -87 57 -69 8 8 6 18 -5 36 -9 13 -19 48 -23 76
-3 31 -11 51 -18 51 -7 0 -15 7 -19 15 -6 17 -22 18 -51 4z m20 -48 c-3 -6
-16 -16 -28 -23 -21 -11 -21 -10 -7 8 18 23 33 34 38 29 2 -2 1 -8 -3 -14z"/>
<path d="M6255 470 c-3 -5 -1 -19 5 -30 17 -32 3 -74 -42 -125 -30 -34 -45
-44 -59 -40 -23 8 -25 -13 -4 -41 14 -18 17 -17 73 42 69 72 91 129 66 176
-15 29 -28 35 -39 18z"/>
</g>
</svg>
