<?xml version="1.0" standalone="no"?>
<!DOCTYPE svg PUBLIC "-//W3C//DTD SVG 20010904//EN"
 "http://www.w3.org/TR/2001/REC-SVG-20010904/DTD/svg10.dtd">
<svg version="1.0" xmlns="http://www.w3.org/2000/svg"
 width="1616.000000pt" height="660.000000pt" viewBox="0 0 1616.000000 660.000000"
 preserveAspectRatio="xMidYMid meet">

<g transform="translate(0.000000,660.000000) scale(0.100000,-0.100000)"
fill="#000000" stroke="none">
<path d="M2613 6157 c-32 -18 -93 -112 -93 -145 0 -16 11 -40 28 -58 78 -86
89 -117 52 -154 -32 -32 -77 -26 -117 16 -27 29 -37 34 -46 25 -9 -10 -2 -21
30 -52 35 -32 49 -39 83 -39 33 0 48 6 72 30 43 43 36 88 -26 164 -25 31 -46
63 -46 71 0 20 66 111 86 119 36 14 41 7 37 -46 -9 -102 -9 -102 10 -106 12
-2 22 7 32 32 18 42 19 68 4 119 -9 34 -13 37 -47 37 -20 -1 -47 -6 -59 -13z"/>
<path d="M3967 6153 c-2 -5 -7 -21 -11 -38 -4 -16 -23 -69 -43 -117 -33 -82
-38 -88 -64 -88 -19 0 -29 -5 -29 -15 0 -9 9 -15 24 -15 22 0 25 -5 28 -46 2
-37 9 -51 29 -67 24 -17 30 -18 55 -6 37 18 29 34 -16 34 -35 0 -35 0 -35 45
l0 45 73 7 c77 6 88 10 78 27 -4 6 -31 8 -71 4 -41 -4 -65 -2 -65 4 0 6 13 40
30 76 33 74 48 141 32 151 -6 3 -13 3 -15 -1z"/>
<path d="M11700 6108 c0 -18 -16 -66 -35 -107 -35 -73 -35 -73 -72 -69 -31 2
-38 -1 -41 -16 -3 -15 0 -18 16 -14 37 10 43 -5 22 -60 -25 -66 -25 -94 0
-117 19 -17 48 -16 79 4 22 14 4 33 -20 20 -11 -6 -28 -8 -36 -5 -19 7 -14 39
16 109 19 44 23 47 58 47 41 0 72 14 60 27 -5 4 -24 6 -43 4 -18 -1 -34 0 -34
2 0 3 13 33 30 68 36 78 43 132 18 137 -14 3 -18 -3 -18 -30z"/>
<path d="M4740 6023 c-18 -54 -48 -135 -66 -181 -19 -45 -34 -89 -34 -97 0
-27 25 -16 69 30 44 46 68 58 56 28 -4 -10 -9 -33 -12 -50 -4 -25 -2 -33 10
-33 14 0 22 22 34 103 4 31 2 37 -13 37 -11 0 -34 -9 -51 -20 l-33 -19 26 67
c14 37 24 68 24 70 -2 4 40 116 50 134 14 25 13 28 -9 28 -16 0 -26 -19 -51
-97z"/>
<path d="M3530 6083 c0 -16 -14 -66 -31 -113 -16 -47 -37 -109 -45 -139 -15
-51 -10 -78 11 -63 15 11 55 70 55 82 0 12 27 14 34 2 3 -5 -2 -27 -10 -51
-14 -41 -12 -61 6 -61 4 0 16 24 25 54 13 42 14 58 6 75 -15 26 -42 27 -66 1
-24 -27 -30 -19 -11 17 12 25 66 200 66 217 0 4 -9 6 -20 6 -15 0 -20 -7 -20
-27z"/>
<path d="M8823 6093 c-7 -3 -13 -11 -13 -19 0 -8 -16 -51 -36 -94 l-37 -80
-44 0 c-37 0 -44 -3 -41 -17 2 -14 11 -17 36 -15 39 4 41 -7 7 -67 -28 -48
-32 -71 -11 -71 8 0 26 30 42 66 15 36 36 69 45 75 10 5 16 16 13 24 -3 8 11
53 31 101 35 81 37 108 8 97z"/>
<path d="M10370 6067 c0 -24 -13 -51 -46 -96 l-47 -62 -51 2 c-39 2 -51 0 -51
-11 0 -10 13 -16 42 -18 40 -3 42 -4 33 -28 -34 -87 21 -161 91 -124 10 6 19
17 19 25 0 18 -2 18 -34 4 -38 -18 -60 4 -53 54 6 46 33 79 61 76 46 -3 66 2
66 16 0 10 -11 15 -35 15 -19 0 -35 3 -35 6 0 3 13 23 28 43 38 48 56 99 41
117 -19 23 -29 16 -29 -19z"/>
<path d="M8897 6008 c-91 -169 -127 -238 -127 -248 0 -20 21 -9 64 35 54 54
68 57 59 13 -11 -54 -9 -72 9 -76 11 -2 17 3 16 15 0 10 3 41 7 69 6 43 5 52
-10 57 -9 4 -25 2 -36 -3 -10 -6 -19 -8 -19 -5 0 4 23 51 52 106 35 69 48 103
41 110 -7 7 -25 -15 -56 -73z"/>
<path d="M5656 6022 c8 -51 -29 -185 -63 -232 -41 -56 -85 -100 -95 -94 -15
10 -8 56 13 86 12 17 37 37 55 44 44 19 45 39 2 30 -20 -3 -48 -22 -70 -46
-30 -31 -38 -47 -38 -78 0 -91 52 -94 122 -5 57 73 72 103 92 180 24 92 20
153 -10 153 -11 0 -13 -9 -8 -38z"/>
<path d="M12776 6038 c-8 -13 -17 -33 -21 -45 -7 -24 -50 -33 -57 -12 -3 9 -9
9 -23 1 -11 -6 -28 -13 -37 -16 -25 -8 -58 -66 -58 -102 0 -17 9 -42 19 -56
l19 -24 -39 -62 c-21 -34 -39 -68 -39 -77 0 -29 30 -15 45 21 29 70 51 91 101
97 65 7 119 60 119 117 0 24 -7 46 -17 56 -16 16 -16 20 3 55 21 42 25 69 9
69 -5 0 -16 -10 -24 -22z m-72 -125 c-71 -110 -67 -106 -81 -87 -16 22 -17 48
-2 77 16 30 28 37 68 37 l33 0 -18 -27z m66 -12 c15 -28 -3 -67 -42 -91 -65
-39 -72 -26 -26 45 24 35 46 65 50 65 4 0 12 -9 18 -19z"/>
<path d="M14384 6007 c-20 -39 -24 -42 -65 -43 -76 -2 -113 -79 -74 -154 14
-28 14 -33 -10 -80 -26 -51 -34 -105 -14 -98 6 2 19 27 29 55 25 72 28 75 61
68 60 -13 117 63 102 136 -3 16 -11 33 -18 39 -11 9 -9 19 11 53 27 47 30 67
12 67 -7 0 -23 -20 -34 -43z m-70 -124 c-38 -66 -42 -70 -50 -39 -13 54 5 81
59 85 16 1 15 -5 -9 -46z m67 5 c3 -47 -3 -64 -27 -85 -13 -12 -31 -20 -39
-17 -12 5 -9 17 16 65 34 63 48 73 50 37z"/>
<path d="M5416 6006 c-8 -19 -24 -63 -36 -98 -12 -35 -36 -95 -53 -135 -28
-68 -31 -109 -5 -101 6 2 13 13 14 24 2 18 44 131 99 272 29 73 29 72 10 72
-8 0 -21 -16 -29 -34z"/>
<path d="M6076 5912 c-24 -74 -48 -125 -62 -139 -29 -27 -31 -68 -5 -83 34
-17 82 1 133 50 40 39 49 53 46 76 -4 40 -44 44 -86 9 l-31 -26 34 101 c38
109 42 130 23 130 -8 0 -30 -52 -52 -118z m84 -104 c0 -20 -80 -88 -103 -88
-19 0 -14 8 30 50 51 49 73 61 73 38z"/>
<path d="M6953 5968 c-27 -115 -114 -241 -145 -210 -15 15 1 66 22 68 8 1 21
2 28 3 17 1 15 38 -4 45 -35 13 -84 -46 -84 -102 0 -65 55 -70 115 -9 63 63
133 257 92 257 -7 0 -18 -23 -24 -52z"/>
<path d="M14640 5988 c-28 -29 -31 -38 -27 -74 2 -25 -1 -48 -9 -59 -17 -23
-18 -97 -2 -113 22 -22 84 -14 117 14 37 31 41 74 10 105 -18 18 -20 25 -10
40 16 26 14 71 -5 97 -21 30 -36 28 -74 -10z m55 -44 c0 -24 -5 -30 -27 -32
-32 -4 -36 12 -12 46 21 30 39 23 39 -14z m3 -100 c29 -20 28 -50 -2 -70 -36
-23 -70 -15 -74 18 -7 58 30 84 76 52z"/>
<path d="M14510 5985 c-36 -95 -81 -249 -76 -261 9 -23 30 -11 33 17 1 13 18
73 37 133 20 59 36 115 36 122 0 23 -20 16 -30 -11z"/>
<path d="M12891 5990 c-22 -13 -2 -30 37 -30 l37 -1 -28 -25 c-38 -33 -29 -50
28 -56 26 -3 54 -13 64 -22 15 -16 13 -20 -21 -52 -28 -25 -47 -34 -73 -34
-19 0 -35 5 -35 10 0 6 -9 10 -20 10 -33 0 -23 -30 16 -46 46 -19 88 -7 138
42 57 55 44 100 -36 119 -33 9 -27 22 18 41 57 24 43 42 -31 42 -35 0 -68 3
-73 6 -4 2 -14 1 -21 -4z"/>
<path d="M13333 5982 c-13 -2 -23 -10 -23 -19 0 -13 11 -15 68 -10 65 6 66 5
34 -9 -40 -18 -37 -36 7 -45 35 -7 71 -35 71 -55 0 -7 -13 -23 -29 -37 -34
-28 -81 -26 -88 4 -6 23 -51 26 -59 4 -9 -23 10 -40 65 -54 42 -11 54 -10 80
3 65 34 78 86 31 131 l-29 28 31 16 c18 9 33 21 35 27 7 21 -106 30 -194 16z"/>
<path d="M14013 5978 c-13 -6 -23 -17 -23 -25 0 -16 5 -16 47 -1 18 6 36 9 39
5 4 -4 -9 -31 -29 -61 -27 -40 -48 -60 -81 -74 -47 -22 -75 -57 -58 -74 7 -7
25 -1 56 20 l45 30 23 -30 c21 -26 26 -28 51 -19 30 12 51 50 35 66 -6 7 -16
1 -29 -15 l-19 -25 -19 24 c-19 25 -19 25 15 70 58 75 59 121 2 120 -18 0 -43
-5 -55 -11z"/>
<path d="M13595 5970 c-3 -5 -4 -14 -1 -18 3 -5 1 -55 -3 -113 -7 -83 -6 -107
5 -118 7 -8 15 -13 17 -10 3 2 8 64 11 137 6 114 5 132 -8 132 -8 0 -18 -4
-21 -10z"/>
<path d="M10951 5933 c-31 -29 -101 -159 -101 -187 0 -40 29 -8 67 73 43 92
69 115 98 91 12 -10 16 -9 22 5 4 12 0 23 -12 31 -27 20 -41 17 -74 -13z"/>
<path d="M9733 5928 c-18 -13 -33 -26 -33 -31 0 -4 -11 -25 -25 -47 -14 -22
-25 -46 -25 -55 0 -31 27 -13 54 38 16 29 40 61 54 71 22 17 25 18 34 2 5 -9
16 -16 23 -16 18 0 18 2 3 35 -14 31 -43 32 -85 3z"/>
<path d="M3246 5921 c-3 -4 -19 -11 -36 -14 -18 -4 -30 -13 -30 -22 0 -18 9
-19 44 -5 l26 9 -27 -47 c-16 -29 -24 -55 -20 -65 6 -16 10 -15 47 8 39 25 40
25 40 4 0 -48 40 -75 77 -51 17 11 43 76 43 108 0 40 -20 24 -39 -31 -21 -64
-48 -73 -53 -18 -3 35 -5 38 -34 37 l-30 -2 19 40 c17 34 18 41 6 49 -18 11
-26 11 -33 0z"/>
<path d="M8042 5913 c-41 -20 -65 -54 -56 -78 6 -14 16 -16 56 -13 41 4 48 2
48 -12 0 -11 12 -22 32 -29 28 -10 35 -9 45 6 20 27 15 36 -17 30 -24 -5 -30
-3 -30 11 0 9 7 26 15 36 19 25 19 36 0 36 -9 0 -26 7 -38 15 -19 12 -26 12
-55 -2z m41 -37 c5 -13 -19 -26 -52 -26 -11 0 -10 5 4 20 21 23 41 26 48 6z"/>
<path d="M2760 5895 c-32 -34 -33 -91 -1 -116 33 -27 58 -24 92 10 43 43 38
91 -12 116 -39 21 -52 19 -79 -10z m70 -23 c17 -13 21 -24 16 -40 -9 -26 -39
-44 -60 -36 -29 11 -15 94 15 94 4 0 17 -8 29 -18z"/>
<path d="M4533 5903 c-17 -6 -16 -43 2 -67 25 -33 19 -75 -11 -86 -29 -11 -44
-6 -44 16 0 19 -26 18 -34 -1 -3 -9 4 -25 15 -36 16 -16 28 -20 53 -15 63 13
88 75 52 131 -22 34 -21 37 19 29 31 -5 35 -4 35 15 0 18 -6 21 -37 20 -21 0
-44 -3 -50 -6z"/>
<path d="M7414 5857 c-47 -47 -57 -86 -31 -121 19 -25 90 -33 122 -12 34 22
33 46 -2 46 -20 0 -24 -3 -14 -9 19 -12 -49 -21 -71 -9 -18 9 -25 29 -10 27
27 -5 55 5 82 27 25 21 30 33 28 58 -2 26 -8 32 -31 34 -22 3 -38 -6 -73 -41z
m74 -4 c-4 -21 -54 -51 -65 -39 -8 8 41 56 58 56 6 0 9 -8 7 -17z"/>
<path d="M9064 5866 c-36 -30 -40 -38 -36 -70 5 -43 41 -76 84 -76 38 0 97 25
104 45 10 26 -2 27 -42 6 -43 -23 -66 -26 -95 -11 -30 17 -24 40 11 40 55 0
107 77 64 94 -31 12 -51 6 -90 -28z m61 -16 c-10 -11 -25 -20 -34 -20 -12 1
-10 5 8 20 30 26 49 26 26 0z"/>
<path d="M11054 5886 c-10 -8 -16 -18 -12 -22 4 -4 -4 -20 -17 -36 -27 -32
-33 -76 -13 -96 24 -24 78 -14 114 22 38 38 43 70 19 116 -17 34 -57 40 -91
16z m70 -42 c11 -29 6 -45 -20 -69 -34 -32 -74 -34 -74 -4 0 21 59 89 78 89 5
0 13 -7 16 -16z"/>
<path d="M3647 5868 c-52 -38 -60 -108 -13 -108 13 0 35 9 49 20 l25 20 6 -25
c4 -14 14 -25 22 -25 12 0 15 6 10 24 -3 14 -2 36 3 49 8 21 5 28 -19 46 -36
26 -47 26 -83 -1z m53 -33 c0 -7 -61 -47 -66 -43 -9 10 37 57 51 51 8 -3 15
-7 15 -8z"/>
<path d="M9865 5858 c-8 -18 -23 -45 -32 -59 -40 -63 34 -84 93 -25 30 30 33
36 24 66 -17 59 -61 68 -85 18z m55 -33 c0 -15 -9 -31 -25 -41 -36 -23 -50
-14 -26 17 11 15 17 30 13 34 -4 5 -1 5 6 1 6 -4 12 -2 12 3 0 6 5 11 10 11 6
0 10 -11 10 -25z"/>
<path d="M10025 5849 c-35 -32 -45 -48 -45 -73 0 -37 15 -56 45 -56 53 0 96
64 86 128 -9 51 -31 51 -86 1z m55 -34 c0 -22 -41 -65 -61 -65 -18 0 -8 39 17
69 28 34 44 33 44 -4z"/>
<path d="M6313 5859 c-37 -24 -73 -77 -73 -108 0 -44 18 -61 63 -60 52 0 109
19 115 38 4 11 -3 12 -34 5 -72 -15 -109 -11 -112 11 -2 15 8 24 42 38 56 23
80 49 71 76 -8 26 -31 26 -72 0z"/>
<path d="M7216 5854 c-28 -20 -36 -21 -36 -9 0 8 -7 15 -15 15 -10 0 -15 -10
-15 -27 0 -14 -12 -41 -26 -60 -21 -27 -23 -34 -10 -39 9 -4 27 8 47 30 17 20
45 46 61 58 l30 21 -7 -65 c-5 -42 -3 -68 3 -72 16 -10 22 6 28 87 8 88 -3 99
-60 61z"/>
<path d="M11293 5858 c-12 -13 -30 -37 -40 -55 -20 -34 -56 -65 -85 -76 -22
-8 -24 -37 -2 -37 9 0 33 14 54 30 21 17 46 30 57 30 10 0 29 7 42 16 22 16
23 16 17 -3 -3 -10 0 -28 8 -38 12 -16 19 -18 42 -10 37 14 47 40 10 31 -30
-7 -35 9 -11 40 15 20 20 56 8 67 -3 4 -26 -9 -50 -29 l-44 -36 18 36 c21 46
7 67 -24 34z"/>
<path d="M11814 5835 c-43 -44 -43 -44 -31 -86 23 -78 96 -101 159 -50 33 27
16 36 -33 17 -22 -9 -50 -14 -61 -10 -20 6 -45 56 -31 61 26 10 88 50 96 64
16 25 1 49 -29 49 -19 0 -40 -13 -70 -45z m66 5 c-35 -24 -54 -31 -30 -11 14
11 30 21 35 21 6 0 3 -5 -5 -10z"/>
<path d="M7003 5841 c-37 -34 -49 -70 -33 -100 16 -30 56 -27 91 8 33 33 35
50 14 91 -19 37 -32 38 -72 1z m51 -26 c11 -30 -29 -75 -54 -60 -15 9 -12 19
11 49 23 30 34 33 43 11z"/>
<path d="M5082 5783 c-53 -54 -71 -78 -63 -86 8 -8 19 -3 40 17 l28 27 7 -25
c9 -38 47 -34 95 9 l38 35 6 -30 c5 -21 12 -30 27 -30 11 0 20 7 20 15 0 8 -4
15 -10 15 -5 0 -10 18 -10 40 0 22 -5 40 -11 40 -6 0 -34 -20 -61 -45 -28 -25
-54 -45 -60 -45 -13 0 0 37 28 82 54 85 19 76 -74 -19z"/>
<path d="M4900 5823 c-65 -82 -6 -181 63 -107 49 52 43 103 -13 122 -26 10
-32 8 -50 -15z m52 -67 c-21 -36 -46 -41 -50 -9 -5 31 34 69 54 52 12 -10 12
-16 -4 -43z"/>
<path d="M13105 5771 c-8 -15 3 -31 21 -31 9 0 14 7 12 17 -4 20 -24 28 -33
14z"/>
<path d="M13703 5744 c-8 -21 13 -42 28 -27 13 13 5 43 -11 43 -6 0 -13 -7
-17 -16z"/>
<path d="M9532 5673 c0 -33 -29 -121 -83 -250 -22 -51 -39 -97 -39 -102 0 -26
31 -7 75 44 26 30 55 60 66 65 17 10 19 7 19 -20 0 -17 -9 -39 -21 -51 -11
-11 -19 -22 -17 -23 2 -1 11 -8 20 -15 15 -11 19 -8 32 22 14 35 19 65 17 99
-2 27 -40 33 -70 11 -50 -37 -54 -38 -38 -7 20 40 77 213 77 236 0 11 -7 18
-19 18 -15 0 -20 -7 -19 -27z"/>
<path d="M4666 5643 c-8 -27 -25 -82 -37 -123 -11 -41 -31 -93 -42 -115 l-21
-40 -13 48 c-21 72 -40 65 -126 -45 -18 -23 -18 -22 -13 54 3 43 13 110 22
149 14 64 15 73 1 86 -14 14 -19 13 -49 -6 -18 -11 -46 -32 -63 -46 -25 -21
-27 -25 -12 -31 12 -4 31 4 57 25 21 17 41 31 43 31 2 0 -2 -28 -9 -62 -20
-99 -30 -190 -24 -223 9 -50 34 -42 87 25 l48 62 10 -39 c5 -21 14 -44 18 -51
28 -42 74 29 124 190 48 157 48 158 30 158 -10 0 -21 -18 -31 -47z"/>
<path d="M9345 5650 c-3 -5 -4 -14 -1 -19 6 -8 -3 -43 -26 -103 -9 -25 -15
-28 -59 -28 -37 0 -49 -4 -49 -15 0 -11 11 -15 40 -15 22 0 40 -4 40 -8 0 -5
-9 -35 -20 -68 -21 -59 -20 -89 2 -82 6 2 13 15 15 29 6 38 43 133 56 141 6 3
12 19 13 35 1 15 7 47 14 70 13 42 9 73 -9 73 -5 0 -13 -4 -16 -10z"/>
<path d="M11601 5620 c-38 -32 -35 -61 4 -36 l24 16 -28 -63 c-25 -55 -31 -63
-61 -67 -41 -6 -53 -30 -15 -30 24 0 26 -3 20 -22 -4 -13 -10 -49 -12 -80 -4
-50 -2 -58 16 -68 27 -14 87 12 97 42 9 29 -2 33 -32 9 -15 -11 -33 -21 -40
-21 -19 0 -18 60 0 105 15 35 10 33 125 48 8 1 16 7 18 14 3 8 -14 13 -51 15
l-56 3 30 63 c16 35 30 72 30 83 0 28 -29 23 -69 -11z"/>
<path d="M3266 5631 c-4 -6 -16 -11 -27 -11 -11 0 -19 -7 -19 -16 0 -13 6 -15
28 -9 36 9 81 10 90 0 4 -4 -6 -17 -23 -29 -16 -11 -56 -47 -87 -78 -79 -78
-78 -125 3 -131 47 -3 52 16 7 27 -21 5 -38 13 -38 18 0 20 36 61 101 113 69
56 82 81 55 104 -21 17 -82 25 -90 12z"/>
<path d="M6403 5530 c-34 -157 -98 -279 -125 -238 -15 25 -7 48 32 89 27 29
37 46 30 53 -12 12 -72 -42 -63 -57 3 -6 1 -7 -5 -3 -14 9 -32 -25 -32 -62 0
-53 59 -81 93 -44 27 30 76 147 98 235 26 104 28 121 9 124 -11 3 -20 -20 -37
-97z"/>
<path d="M2639 5618 c0 -2 -2 -10 -4 -18 -5 -28 -77 -132 -177 -258 -94 -118
-117 -159 -103 -181 11 -20 45 7 45 36 0 18 30 63 98 147 55 67 107 135 116
151 9 17 28 48 41 70 14 22 25 43 25 48 0 6 -39 11 -41 5z"/>
<path d="M2899 5608 c-8 -24 -8 -108 1 -113 16 -10 17 -7 24 58 6 48 5 57 -8
57 -9 0 -16 -1 -17 -2z"/>
<path d="M6180 5580 c0 -37 -16 -117 -41 -199 -22 -73 -24 -111 -6 -111 17 0
94 311 81 331 -13 21 -34 8 -34 -21z"/>
<path d="M7602 5598 c-7 -7 -12 -27 -12 -45 0 -35 -19 -133 -26 -133 -2 0 -13
5 -23 12 -38 24 -106 -51 -99 -110 2 -16 13 -32 30 -41 24 -14 28 -14 48 4 39
35 81 134 96 224 14 84 9 112 -14 89z m-61 -213 c7 5 7 0 -2 -16 -27 -52 -41
-68 -55 -62 -19 7 -18 29 3 64 13 21 20 26 29 18 7 -6 18 -8 25 -4z"/>
<path d="M8580 5590 c-6 -11 -8 -26 -4 -32 4 -6 3 -8 -3 -5 -6 4 -20 -15 -32
-43 -21 -48 -22 -49 -68 -52 -64 -4 -71 -28 -8 -28 39 0 46 -3 41 -16 -4 -9
-1 -24 6 -32 11 -13 11 -14 -1 -7 -25 14 -3 -47 25 -72 33 -30 94 -32 94 -4 0
26 -15 35 -37 22 -40 -22 -75 37 -54 91 8 23 18 27 66 33 30 4 58 12 61 17 12
19 -12 27 -55 17 -24 -5 -46 -7 -49 -5 -2 3 9 32 26 64 29 55 31 72 11 72 -5
0 -13 -9 -19 -20z"/>
<path d="M12500 5586 c0 -13 -20 -77 -45 -140 -25 -64 -43 -121 -40 -126 11
-18 31 -11 61 21 16 17 41 40 57 51 l27 20 -6 -56 c-5 -45 -4 -56 7 -56 12 0
32 66 42 140 4 31 -35 20 -88 -25 -30 -26 -55 -44 -55 -42 0 3 9 27 21 54 51
118 63 183 34 183 -9 0 -15 -9 -15 -24z"/>
<path d="M2192 5563 c-21 -58 -20 -87 2 -91 15 -3 18 0 14 15 -3 11 1 31 8 44
17 31 18 69 1 69 -6 0 -18 -17 -25 -37z"/>
<path d="M13574 5548 c-30 -60 -61 -98 -81 -98 -16 0 -17 -26 -2 -36 16 -9 76
53 110 115 33 62 35 71 14 71 -8 0 -26 -24 -41 -52z"/>
<path d="M7730 5507 c0 -14 6 -24 15 -24 9 0 15 10 15 24 0 14 -6 23 -15 23
-9 0 -15 -9 -15 -23z"/>
<path d="M4768 5483 c-14 -16 -29 -38 -33 -50 -3 -13 -13 -23 -21 -23 -8 0
-14 -7 -14 -15 0 -8 4 -15 8 -15 4 0 9 -12 10 -26 3 -40 20 -54 66 -54 44 0
126 32 126 50 0 14 -21 13 -63 -5 -20 -8 -50 -15 -67 -15 -26 0 -30 4 -30 28
0 21 8 32 36 47 45 24 68 57 59 85 -9 29 -46 25 -77 -7z m46 -16 c-2 -7 -14
-18 -25 -25 -22 -14 -21 -6 4 26 12 16 28 16 21 -1z"/>
<path d="M9694 5488 c-52 -41 -64 -61 -60 -98 6 -48 40 -73 89 -67 42 6 99 38
79 45 -7 2 -10 7 -7 12 3 4 -12 -1 -32 -11 -45 -23 -67 -24 -87 -3 -23 23 -20
34 12 34 30 0 92 49 92 72 0 19 -21 38 -41 38 -9 0 -29 -10 -45 -22z m33 -33
c-15 -14 -33 -25 -40 -25 -7 0 1 12 16 25 15 14 33 25 40 25 7 0 -1 -12 -16
-25z"/>
<path d="M10652 5494 c-37 -26 -43 -48 -27 -95 15 -42 12 -79 -6 -79 -5 0 -9
14 -9 31 0 38 -21 35 -31 -5 -6 -21 -3 -32 12 -47 24 -24 34 -24 60 2 22 22
22 24 3 127 -6 30 -4 34 25 45 33 12 42 37 13 37 -10 0 -28 -7 -40 -16z"/>
<path d="M7072 5486 c-12 -6 -29 -22 -38 -34 -8 -12 -21 -22 -27 -22 -15 0
-51 -115 -42 -130 11 -17 24 -2 59 69 41 81 59 99 81 81 11 -9 19 -10 27 -2
24 24 -26 56 -60 38z"/>
<path d="M10349 5429 c-26 -39 -59 -72 -90 -92 -27 -16 -49 -34 -49 -38 0 -17
36 -9 73 16 29 20 37 22 37 10 0 -8 11 -20 25 -27 21 -9 29 -7 59 16 l35 26 3
-27 c2 -22 8 -28 28 -28 16 0 26 6 28 19 3 14 0 17 -13 13 -18 -8 -17 -4 13
85 20 57 8 74 -21 33 -31 -45 -96 -105 -112 -105 -20 0 -19 44 1 61 19 16 44
63 44 84 0 29 -20 15 -61 -46z"/>
<path d="M12695 5455 c-15 -19 -24 -39 -19 -46 4 -7 3 -9 -3 -6 -14 9 -36 -47
-29 -71 9 -27 38 -33 76 -14 63 31 85 108 43 154 -23 26 -39 22 -68 -17z m59
-31 c9 -36 -29 -83 -67 -84 -22 0 -16 28 17 77 25 40 42 42 50 7z"/>
<path d="M10792 5450 c-47 -34 -62 -57 -62 -98 0 -40 29 -64 74 -60 48 4 47
22 -1 28 -53 7 -55 32 -3 55 45 20 75 69 57 93 -13 17 -19 16 -65 -18z m38
-14 c0 -2 -8 -10 -17 -17 -16 -13 -17 -12 -4 4 13 16 21 21 21 13z"/>
<path d="M11023 5465 c-14 -10 -24 -12 -28 -5 -9 15 -25 2 -40 -34 -10 -24
-11 -34 -2 -45 8 -10 8 -13 1 -8 -11 7 -34 -32 -34 -58 0 -32 26 -12 53 39 16
30 38 63 49 73 19 17 20 17 34 -2 13 -17 16 -18 24 -5 15 23 12 38 -9 50 -25
13 -22 13 -48 -5z"/>
<path d="M13198 5443 c-40 -31 -48 -43 -48 -71 0 -47 15 -70 55 -81 37 -10 96
-1 121 20 21 17 2 34 -24 20 -28 -15 -95 -14 -110 1 -7 7 -12 20 -12 30 0 13
8 18 30 18 63 0 124 55 98 88 -19 22 -62 12 -110 -25z m82 -1 c0 -10 -45 -32
-63 -32 -16 1 34 39 51 40 6 0 12 -4 12 -8z"/>
<path d="M5521 5456 c-48 -27 -64 -91 -36 -145 21 -41 76 -56 103 -29 21 21
13 29 -22 23 -28 -6 -36 -3 -50 16 -23 33 -20 66 7 93 17 17 31 22 50 19 22
-4 27 -2 27 16 0 16 -6 21 -27 21 -16 -1 -39 -7 -52 -14z"/>
<path d="M5717 5463 c-4 -3 -7 -15 -7 -25 0 -10 -7 -30 -16 -43 -8 -13 -14
-36 -12 -52 2 -23 8 -29 34 -31 25 -2 37 4 63 33 34 39 39 69 15 103 -15 21
-62 31 -77 15z m58 -43 c8 -24 -9 -56 -36 -71 -30 -15 -36 -2 -16 32 9 17 17
37 17 45 0 21 28 17 35 -6z"/>
<path d="M7833 5424 c-56 -47 -93 -144 -54 -144 4 0 13 19 20 42 14 45 60 98
85 98 9 0 16 6 16 14 0 27 -27 23 -67 -10z"/>
<path d="M12916 5439 c-25 -20 -29 -21 -37 -6 -15 26 -36 9 -42 -33 -3 -22
-15 -51 -26 -66 -15 -20 -18 -31 -11 -38 8 -8 29 10 74 59 35 39 67 67 71 63
3 -3 -3 -24 -14 -47 -40 -77 -26 -79 66 -12 37 28 69 49 70 47 2 -2 -4 -19
-12 -39 -18 -44 -19 -77 -2 -77 11 0 47 101 47 135 0 23 -41 18 -74 -10 -38
-33 -44 -32 -48 7 -4 41 -25 46 -62 17z"/>
<path d="M5902 5401 c-18 -27 -43 -56 -57 -65 -32 -21 -32 -40 -1 -34 15 3 27
0 30 -8 10 -25 50 -14 90 24 21 20 36 31 32 24 -12 -21 3 -64 20 -60 11 2 16
20 19 71 2 37 1 67 -3 67 -4 0 -31 -25 -61 -55 -30 -30 -58 -55 -63 -55 -10 0
14 60 37 92 19 27 19 48 2 48 -8 0 -28 -22 -45 -49z"/>
<path d="M7195 5417 c-56 -56 -59 -131 -5 -150 31 -11 109 8 117 29 9 23 1 24
-50 7 -38 -12 -50 -13 -62 -3 -25 21 -17 45 19 58 41 15 69 45 64 69 -6 32
-46 27 -83 -10z"/>
<path d="M14720 5443 c-62 -7 -191 -37 -196 -45 -13 -21 13 -27 59 -13 26 8
74 17 107 21 l61 7 -6 -49 c-3 -27 -14 -121 -25 -210 -11 -89 -20 -208 -20
-265 -1 -57 -5 -135 -11 -174 -6 -38 -14 -124 -17 -190 l-7 -120 -80 0 c-44 0
-95 4 -112 8 -27 7 -33 6 -33 -7 0 -10 16 -19 43 -26 23 -6 49 -13 57 -16 8
-3 48 -7 88 -9 l72 -4 0 117 c0 64 7 158 15 207 8 50 15 142 15 205 0 63 4
142 10 175 5 33 16 121 24 195 9 74 18 147 22 161 5 22 2 27 -18 30 -12 3 -34
3 -48 2z"/>
<path d="M8002 5417 c-13 -7 -33 -30 -46 -51 -21 -35 -22 -41 -9 -67 8 -16 23
-34 34 -40 29 -15 107 -1 120 22 11 22 9 22 -50 8 -31 -7 -47 -6 -57 2 -20 16
-17 29 5 29 11 0 33 12 50 26 61 51 23 109 -47 71z m48 -26 c0 -13 -50 -44
-58 -36 -4 4 4 15 17 26 25 20 41 24 41 10z"/>
<path d="M8227 5410 c-13 -11 -28 -31 -31 -45 -8 -30 16 -80 45 -95 27 -15 72
-9 74 11 2 12 -3 15 -21 11 -30 -6 -64 23 -64 53 0 26 24 49 51 50 10 0 19 3
19 8 0 4 0 12 0 17 0 17 -46 11 -73 -10z"/>
<path d="M11780 5388 c-26 -43 -22 -70 12 -82 35 -12 93 13 100 42 10 37 -14
67 -55 70 -32 3 -39 -1 -57 -30z m80 -18 c0 -12 -10 -25 -25 -32 -34 -15 -50
0 -29 30 20 28 54 29 54 2z"/>
<path d="M7650 5356 c-16 -44 -16 -80 1 -74 13 4 40 78 33 90 -10 15 -24 8
-34 -16z"/>
<path d="M13461 5297 c-13 -16 -5 -27 20 -27 24 0 35 20 18 31 -19 12 -25 11
-38 -4z"/>
<path d="M6812 5248 c-6 -8 -10 -38 -10 -68 1 -30 -14 -174 -32 -320 -26 -200
-34 -304 -34 -425 l0 -159 34 -7 c39 -8 84 5 77 24 -2 7 -18 11 -43 9 l-39 -3
1 143 c1 130 19 310 59 612 7 60 11 122 8 139 l-6 30 56 -7 c47 -6 57 -5 57 7
0 9 -13 18 -30 21 -16 3 -43 8 -58 11 -18 4 -33 1 -40 -7z"/>
<path d="M3230 5176 c0 -8 4 -17 9 -20 11 -7 33 18 24 27 -12 12 -33 7 -33 -7z"/>
<path d="M7265 5164 c-49 -7 -107 -13 -127 -13 -23 -1 -38 -6 -38 -13 0 -10
-2 -10 -8 -1 -7 10 -12 10 -28 -1 -10 -8 -16 -17 -13 -21 7 -6 366 32 381 41
4 3 8 9 8 15 0 12 -62 9 -175 -7z"/>
<path d="M13002 5143 c-4 -10 -22 -44 -41 -77 -33 -56 -35 -58 -68 -53 -28 5
-33 3 -33 -14 0 -14 7 -19 28 -19 26 0 27 -1 24 -53 -5 -68 24 -110 72 -105
38 4 36 20 -4 31 -32 8 -44 34 -38 83 3 26 7 29 48 34 53 6 56 23 5 30 l-36 5
41 68 c38 62 43 87 19 87 -5 0 -13 -8 -17 -17z"/>
<path d="M14194 5133 c-19 -58 -59 -160 -67 -170 -5 -7 -27 -13 -50 -15 -29
-2 -42 -8 -42 -18 0 -11 10 -14 38 -13 20 1 37 1 37 0 0 -1 -7 -20 -15 -42
-18 -50 -19 -75 -2 -75 7 0 21 28 32 63 16 49 25 63 43 65 24 4 29 21 11 39
-8 8 -3 32 20 88 17 43 31 81 31 86 0 16 -31 9 -36 -8z"/>
<path d="M6555 5130 c-3 -5 -4 -14 0 -20 7 -11 -5 -61 -14 -56 -3 2 -53 -2
-111 -9 -122 -16 -507 -23 -1644 -30 -585 -3 -801 -7 -807 -16 -5 -8 -8 -7
-11 2 -4 12 -7 12 -21 0 -10 -7 -17 -10 -17 -5 0 5 -5 2 -10 -6 -7 -10 -10
-11 -10 -2 0 10 -52 11 -247 6 -137 -4 -250 -8 -252 -10 -11 -10 17 -23 49
-25 57 -2 474 12 482 18 5 2 398 6 876 8 1076 6 1454 12 1604 27 65 6 121 9
124 5 3 -3 1 -21 -6 -41 -10 -32 -5 -60 16 -85 4 -5 58 38 110 88 55 54 60 79
19 100 -16 8 -47 26 -67 38 -41 25 -54 28 -63 13z"/>
<path d="M8676 5109 c-2 -8 -12 -39 -22 -69 -9 -30 -30 -81 -45 -112 -16 -32
-29 -64 -29 -73 0 -23 24 -18 50 10 l24 25 12 -30 c7 -16 17 -30 23 -30 16 0
24 21 13 32 -8 8 -7 21 3 46 8 19 15 38 15 43 0 17 -34 9 -58 -13 l-25 -23 16
30 c28 56 51 155 39 167 -8 8 -13 8 -16 -3z"/>
<path d="M7206 5092 c-8 -13 -66 -181 -73 -209 -6 -27 -30 -35 -104 -37 -60
-1 -83 -11 -60 -26 23 -14 114 -4 231 26 71 18 110 32 110 41 0 16 -10 16 -85
-1 -33 -8 -61 -14 -62 -13 -1 1 15 48 34 105 25 71 33 106 26 113 -7 7 -13 7
-17 1z"/>
<path d="M12387 5083 c-12 -11 -8 -21 13 -26 15 -4 20 0 20 14 0 18 -20 26
-33 12z"/>
<path d="M13984 5049 c-10 -17 13 -36 27 -22 12 12 4 33 -11 33 -5 0 -12 -5
-16 -11z"/>
<path d="M10658 5038 c-28 -23 -68 -92 -68 -119 0 -14 9 -34 20 -44 24 -22
105 -31 143 -16 43 17 23 32 -31 25 -58 -7 -102 8 -102 36 0 16 7 20 33 20 62
0 93 42 67 91 -12 22 -39 25 -62 7z m42 -43 c0 -14 -37 -31 -47 -21 -9 8 28
47 38 40 5 -3 9 -11 9 -19z"/>
<path d="M10468 5025 c-40 -22 -44 -49 -13 -101 18 -31 24 -49 17 -56 -15 -15
-49 0 -56 25 l-7 22 -11 -22 c-14 -29 -4 -51 27 -59 74 -18 103 28 61 100 -28
48 -25 55 27 75 16 6 25 15 22 21 -9 14 -35 12 -67 -5z"/>
<path d="M2535 5008 c-9 -13 -26 -39 -39 -60 l-24 -36 33 -36 c26 -28 40 -36
68 -36 51 0 67 9 67 36 0 27 -21 32 -40 9 -14 -17 -38 -19 -60 -5 -12 7 -7 16
28 45 43 37 53 70 30 93 -19 19 -46 14 -63 -10z m45 -22 c0 -15 -40 -49 -48
-42 -6 6 29 56 39 56 5 0 9 -6 9 -14z"/>
<path d="M9940 5017 c-59 -47 -77 -120 -39 -158 15 -15 30 -19 66 -17 31 2 48
8 50 18 4 13 3 13 -7 0 -9 -11 -13 -12 -17 -2 -2 6 -17 12 -32 12 -55 0 -68
49 -25 99 27 33 54 41 54 16 0 -17 25 -20 35 -5 3 5 1 19 -5 30 -12 23 -56 27
-80 7z"/>
<path d="M11378 5002 c-27 -15 -48 -33 -48 -39 0 -19 20 -15 65 12 22 14 43
25 48 25 17 0 4 -32 -33 -79 -62 -78 -48 -107 28 -56 42 29 52 31 52 11 0 -8
7 -21 15 -30 22 -22 59 -3 81 43 9 20 21 44 25 53 14 28 11 38 -11 38 -13 0
-21 -9 -25 -27 -8 -38 -27 -76 -42 -80 -6 -2 -14 10 -18 27 -6 27 -11 31 -31
27 -28 -5 -27 -6 -13 27 6 13 9 36 5 50 -8 34 -37 33 -98 -2z"/>
<path d="M11733 4991 c-15 -22 -36 -42 -45 -44 -19 -5 -25 -27 -8 -27 6 0 10
-11 10 -23 0 -32 32 -59 72 -60 27 -2 34 2 36 21 3 23 -7 29 -23 13 -15 -14
-55 6 -55 27 0 12 11 24 29 32 68 28 93 92 39 98 -22 3 -33 -4 -55 -37z m48
-4 c-6 -8 -7 -18 -3 -22 4 -5 1 -5 -6 -1 -10 6 -10 11 -1 22 6 8 14 14 16 14
3 0 0 -6 -6 -13z"/>
<path d="M12725 5008 c-32 -17 -65 -50 -65 -65 0 -7 16 -30 35 -52 19 -21 35
-42 35 -46 0 -4 -20 -5 -45 -2 -27 4 -47 2 -51 -4 -10 -17 16 -29 62 -29 70 0
84 37 33 95 -31 35 -33 65 -5 65 16 0 46 26 46 41 0 12 -20 11 -45 -3z"/>
<path d="M14314 4985 c-53 -41 -67 -71 -54 -111 13 -39 41 -58 73 -49 71 20
137 49 137 61 0 15 -22 19 -34 7 -3 -4 -12 -8 -19 -9 -7 -2 -33 -10 -58 -18
-34 -10 -50 -11 -58 -3 -18 18 -13 25 33 46 52 23 72 51 56 81 -14 27 -38 25
-76 -5z m27 -36 c-13 -11 -27 -17 -30 -14 -3 4 5 15 19 25 32 24 42 14 11 -11z"/>
<path d="M7968 4989 c-35 -13 -40 -31 -23 -73 19 -44 19 -43 -5 -56 -16 -8
-24 -6 -41 11 -16 16 -24 18 -32 9 -9 -9 -5 -17 16 -36 35 -30 57 -30 85 -1
25 26 27 45 10 82 -14 32 -7 39 37 37 40 -2 49 22 13 32 -27 7 -26 7 -60 -5z"/>
<path d="M8140 4953 c-19 -26 -50 -57 -67 -68 -33 -20 -44 -45 -20 -45 7 0 23
7 35 16 20 14 22 14 22 0 0 -9 2 -16 4 -16 2 0 11 -3 19 -6 8 -3 30 8 51 27
20 17 38 30 39 28 1 -2 7 -12 12 -22 14 -25 30 -18 31 14 1 14 5 35 8 47 13
40 -20 37 -64 -4 -67 -63 -76 -63 -42 1 29 52 33 75 14 75 -4 0 -23 -21 -42
-47z"/>
<path d="M9300 4956 c-20 -47 -48 -69 -82 -64 -20 3 -20 3 2 31 14 18 30 27
43 25 29 -4 35 28 8 37 -11 3 -29 1 -40 -4 -23 -13 -61 -72 -61 -95 0 -23 39
-35 74 -23 18 6 31 7 33 1 16 -46 30 -59 62 -59 19 0 36 6 39 13 2 8 -7 12
-26 12 -42 0 -50 37 -21 96 21 43 20 74 -1 74 -6 0 -19 -20 -30 -44z"/>
<path d="M13493 4987 c-44 -12 -71 -32 -60 -43 3 -3 20 -1 38 5 58 20 62 13
20 -35 -66 -75 -48 -119 28 -69 l40 27 24 -28 c21 -24 27 -26 41 -15 9 7 16
22 16 32 0 10 5 21 10 24 16 10 12 35 -5 35 -9 0 -22 -14 -29 -30 l-12 -31
-12 26 c-14 31 -25 31 -65 3 l-32 -23 23 30 c46 61 54 75 48 90 -6 17 -15 17
-73 2z"/>
<path d="M10158 4974 c-44 -23 -64 -76 -33 -88 8 -3 33 1 55 9 l40 14 0 -32
c0 -37 15 -57 44 -57 19 0 19 1 1 20 -17 19 -17 25 -6 71 7 28 12 51 10 53
-13 8 -62 26 -72 26 -7 -1 -24 -7 -39 -16z m52 -24 c0 -10 -41 -30 -58 -30
-10 1 39 40 49 40 5 0 9 -5 9 -10z"/>
<path d="M7420 4955 c-24 -25 -24 -25 -32 -5 -4 11 -15 20 -24 20 -11 0 -14
-5 -10 -16 4 -10 -7 -37 -25 -66 -23 -38 -28 -53 -19 -62 8 -8 16 -6 29 9 41
48 122 115 132 109 6 -3 8 -21 4 -44 -4 -24 -2 -41 5 -45 17 -10 22 -1 27 49
9 75 -39 102 -87 51z"/>
<path d="M12467 4951 c-22 -38 -22 -62 3 -89 32 -34 74 -29 105 13 30 39 39
100 15 100 -8 0 -17 -14 -21 -33 -7 -36 -35 -72 -54 -72 -7 0 -19 7 -26 16
-11 14 -10 21 4 46 20 35 21 48 4 48 -7 0 -20 -13 -30 -29z"/>
<path d="M2826 4941 c-19 -20 -26 -36 -22 -47 6 -15 11 -13 35 16 19 23 33 31
44 27 23 -9 21 -20 -9 -51 -30 -29 -59 -34 -68 -11 -8 21 -26 19 -26 -3 0 -41
55 -56 98 -26 22 15 22 14 22 -24 0 -26 5 -42 15 -46 12 -4 15 6 15 57 0 34 3
79 6 100 l7 37 -45 0 c-36 0 -50 -6 -72 -29z"/>
<path d="M8395 4952 c-42 -26 -57 -47 -53 -73 6 -43 119 -84 126 -46 3 13 -3
17 -25 17 -30 0 -73 24 -73 41 0 16 61 47 82 41 16 -4 19 -1 16 14 -4 26 -37
28 -73 6z"/>
<path d="M12350 4966 c0 -2 -6 -38 -14 -79 -17 -90 -52 -174 -77 -187 -29 -16
-49 -1 -49 37 0 23 -4 33 -12 31 -8 -3 -13 -21 -13 -43 0 -32 5 -42 28 -55 24
-13 30 -13 55 0 47 27 86 120 107 258 6 34 4 42 -9 42 -9 0 -16 -2 -16 -4z"/>
<path d="M13778 4954 c-28 -15 -58 -61 -58 -89 0 -25 29 -17 36 10 8 32 49 65
80 65 15 0 24 6 24 15 0 20 -46 19 -82 -1z"/>
<path d="M13881 4894 c-11 -14 -17 -32 -14 -41 5 -13 10 -11 30 11 23 28 31
56 14 56 -5 0 -19 -12 -30 -26z"/>
<path d="M3063 4883 c-7 -2 -13 -11 -13 -20 0 -21 44 -13 48 10 3 17 -10 21
-35 10z"/>
<path d="M2696 4864 c-10 -26 -7 -34 14 -34 11 0 20 4 20 9 0 17 -12 41 -20
41 -4 0 -11 -7 -14 -16z"/>
<path d="M2894 4725 c-6 -34 -7 -35 -56 -35 -39 0 -54 -5 -73 -25 -28 -27 -29
-33 -15 -69 14 -37 52 -59 82 -47 23 9 58 51 62 75 1 6 7 20 13 31 6 11 14 39
18 63 5 34 4 42 -9 42 -9 0 -18 -13 -22 -35z m-24 -75 c0 -6 -7 -24 -15 -40
-20 -39 -62 -42 -71 -5 -4 15 -1 32 6 40 14 17 80 21 80 5z"/>
<path d="M5658 4645 c-17 -35 -23 -57 -17 -61 6 -3 14 -2 19 2 17 20 58 103
53 108 -15 15 -30 2 -55 -49z"/>
<path d="M8005 4653 c-10 -69 -35 -162 -57 -205 -19 -39 -23 -68 -10 -68 5 0
30 25 56 55 68 79 116 70 66 -13 -27 -43 -26 -72 1 -72 15 0 19 5 15 15 -3 9
3 30 14 48 44 71 9 135 -55 101 -15 -8 -29 -14 -30 -14 -2 0 3 19 10 43 7 23
15 68 19 100 6 47 5 57 -8 57 -10 0 -17 -15 -21 -47z"/>
<path d="M8803 4678 c-5 -7 -15 -40 -23 -73 -18 -85 -46 -156 -80 -204 -34
-46 -60 -54 -60 -17 0 31 46 86 71 86 10 0 19 7 19 15 0 20 -34 19 -66 -1 -49
-33 -71 -116 -39 -148 48 -47 141 75 180 235 9 35 20 72 26 82 16 30 -8 51
-28 25z"/>
<path d="M5130 4666 c0 -8 -11 -28 -25 -44 -24 -29 -24 -42 2 -42 16 0 53 58
53 83 0 9 -7 17 -15 17 -8 0 -15 -6 -15 -14z"/>
<path d="M5384 4632 c-28 -27 -68 -70 -89 -98 -54 -71 -137 -159 -158 -167
-21 -8 -22 -21 -1 -38 14 -11 19 -10 36 11 56 72 161 193 221 254 37 38 67 73
67 78 0 19 -28 4 -76 -40z"/>
<path d="M5885 4587 c-21 -16 -13 -37 15 -37 19 0 34 25 24 41 -7 12 -17 11
-39 -4z"/>
<path d="M3844 4570 c-48 -19 -69 -85 -39 -126 27 -40 112 -58 123 -26 2 8 -7
12 -27 12 -17 0 -42 10 -57 23 -22 19 -26 29 -20 51 8 33 48 51 77 35 12 -6
28 -8 37 -4 15 5 13 9 -8 25 -27 21 -52 24 -86 10z"/>
<path d="M4348 4545 c-38 -21 -35 -48 7 -82 19 -15 35 -31 35 -35 0 -15 -43
-8 -62 9 -14 12 -21 14 -30 5 -17 -17 7 -40 53 -52 42 -11 79 0 79 23 0 20
-30 58 -41 52 -5 -4 -9 1 -9 9 0 9 -7 16 -15 16 -8 0 -15 4 -15 10 0 15 43 34
73 32 20 -2 27 2 25 10 -6 19 -69 20 -100 3z"/>
<path d="M4097 4524 c-37 -36 -44 -64 -21 -81 16 -12 31 -11 72 4 7 3 12 -4
12 -19 0 -35 23 -63 45 -54 16 6 17 8 1 24 -18 20 -23 108 -6 97 14 -9 12 29
-2 43 -21 21 -73 14 -101 -14z m53 -29 c-24 -25 -50 -33 -50 -16 0 13 41 41
59 41 10 0 8 -7 -9 -25z"/>
<path d="M7140 4508 c-51 -70 -24 -133 42 -95 30 17 32 17 53 -3 22 -21 65
-28 65 -10 0 6 -11 16 -25 22 -17 8 -29 24 -36 52 -12 45 -35 76 -55 76 -8 0
-28 -19 -44 -42z m65 -15 c4 -12 -2 -25 -20 -40 -45 -39 -59 -25 -28 28 20 33
38 37 48 12z"/>
<path d="M9160 4537 c-14 -7 -25 -20 -24 -28 1 -9 -7 -15 -19 -15 -15 1 -24
-11 -38 -49 -39 -110 -10 -117 44 -10 22 41 44 75 49 75 6 0 17 -8 24 -17 12
-17 13 -17 20 1 7 19 -4 47 -22 53 -5 1 -20 -3 -34 -10z"/>
<path d="M4543 4525 c-11 -8 -24 -26 -27 -40 -4 -14 -11 -25 -16 -25 -6 0 -10
-7 -10 -15 0 -8 9 -15 20 -15 11 0 20 -4 20 -10 0 -5 18 -15 41 -21 38 -12 44
-11 95 17 29 16 54 35 54 42 0 18 -19 15 -66 -13 -30 -18 -51 -24 -69 -19 -33
8 -32 19 5 34 34 14 55 44 46 66 -7 19 -66 18 -93 -1z m43 -30 c-26 -19 -42
-19 -26 0 7 8 20 15 29 15 13 -1 13 -3 -3 -15z"/>
<path d="M8222 4486 c-43 -60 -50 -98 -23 -125 20 -20 89 -30 104 -15 14 15
-6 30 -33 26 -31 -4 -64 13 -54 29 2 5 20 16 40 25 49 24 63 96 18 102 -14 2
-29 -10 -52 -42z m38 -21 c-7 -9 -15 -13 -18 -10 -3 2 1 11 8 20 7 9 15 13 18
10 3 -2 -1 -11 -8 -20z"/>
<path d="M8890 4493 c-38 -26 -49 -45 -50 -84 0 -62 50 -87 132 -66 19 5 26
12 21 22 -3 10 -12 13 -23 10 -57 -18 -100 -8 -100 25 0 14 7 20 23 20 28 0
67 26 67 45 0 14 -26 45 -38 45 -4 0 -19 -8 -32 -17z m30 -33 c-20 -13 -33
-13 -25 0 3 6 14 10 23 10 15 0 15 -2 2 -10z"/>
<path d="M8431 4455 c-54 -62 -25 -115 43 -82 27 12 36 13 36 4 0 -20 31 -60
40 -50 10 11 -3 114 -14 113 -5 -1 -14 9 -20 22 -18 37 -49 34 -85 -7z m58
-19 c10 -12 7 -18 -19 -31 -39 -20 -48 -14 -26 20 19 29 29 31 45 11z"/>
<path d="M5885 4431 c-7 -12 24 -43 39 -38 6 2 12 13 14 25 3 18 -2 22 -22 22
-14 0 -27 -4 -31 -9z"/>
<path d="M8310 4376 c0 -9 5 -16 10 -16 6 0 10 4 10 9 0 6 -4 13 -10 16 -5 3
-10 -1 -10 -9z"/>
<path d="M10713 4283 c-6 -34 -7 -62 -2 -67 15 -17 27 6 34 67 6 45 4 57 -7
57 -9 0 -18 -20 -25 -57z"/>
<path d="M13454 4319 c-4 -7 12 -28 39 -53 50 -44 67 -77 67 -131 0 -51 -36
-139 -81 -195 -34 -43 -44 -50 -74 -50 -24 0 -35 -5 -35 -15 0 -11 11 -15 38
-15 31 0 46 7 76 37 78 78 124 224 96 307 -6 20 -30 54 -52 74 -51 47 -65 55
-74 41z"/>
<path d="M7026 4280 c-52 -48 -101 -137 -113 -205 -20 -113 11 -229 77 -289
38 -34 128 -86 150 -86 26 0 6 29 -32 46 -67 30 -116 71 -140 116 -20 37 -23
58 -23 143 0 90 3 105 27 152 36 68 85 123 109 123 23 0 25 25 4 34 -10 3 -32
-9 -59 -34z"/>
<path d="M6014 4288 c-4 -6 -3 -13 3 -15 7 -3 8 -61 5 -172 -4 -159 2 -211 26
-211 6 0 9 348 3 398 -1 15 -27 16 -37 0z"/>
<path d="M12762 4263 c-20 -68 -23 -93 -12 -113 16 -30 27 -16 28 35 1 25 6
54 12 66 12 21 7 49 -8 49 -5 0 -14 -17 -20 -37z"/>
<path d="M13251 4276 c-9 -10 -9 -16 -1 -21 6 -4 14 -4 17 -1 10 10 43 -14 43
-32 0 -9 -16 -27 -35 -40 -38 -24 -46 -55 -17 -71 14 -9 15 -12 2 -20 -12 -8
-12 -14 -1 -34 28 -53 -24 -131 -64 -97 -22 19 -44 -2 -25 -25 21 -25 68 -18
101 14 24 25 29 38 29 78 0 27 6 55 13 62 10 10 7 16 -13 31 l-25 19 38 34
c44 41 46 59 11 92 -30 28 -56 32 -73 11z"/>
<path d="M5869 4273 c-1 -11 -4 -47 -13 -140 -6 -61 -12 -83 -22 -83 -8 0 -14
-7 -14 -15 0 -8 7 -15 15 -15 11 0 15 -16 17 -67 2 -54 6 -68 20 -71 15 -3 16
5 11 67 l-6 71 62 0 c48 0 61 3 61 15 0 11 -13 15 -52 16 -29 1 -57 1 -62 0
-4 -1 -6 22 -2 51 19 173 19 178 2 178 -9 0 -16 -3 -17 -7z"/>
<path d="M6595 4203 c3 -43 9 -90 11 -105 5 -25 3 -28 -23 -28 -43 0 -73 -33
-73 -80 0 -52 29 -82 73 -78 51 5 59 33 52 173 -8 158 -14 195 -32 195 -12 0
-14 -13 -8 -77z m11 -189 c8 -30 -10 -74 -29 -74 -21 0 -37 22 -37 50 0 51 54
71 66 24z"/>
<path d="M11355 4258 c-11 -46 -10 -101 2 -105 14 -5 22 23 26 81 2 43 -19 62
-28 24z"/>
<path d="M8462 4263 c-31 -6 -46 -37 -31 -64 12 -24 15 -76 4 -107 -4 -15 -18
-23 -51 -28 -62 -9 -56 -44 7 -44 11 0 29 -5 40 -11 19 -10 19 -12 -11 -63
-44 -78 -38 -121 20 -151 37 -19 74 -19 90 0 18 21 3 37 -21 22 -15 -10 -24
-9 -46 3 -49 28 -51 44 -15 109 37 68 39 86 12 103 -17 11 -17 14 -5 28 16 18
22 91 11 138 -8 34 -5 36 56 32 25 -1 46 15 35 27 -8 7 -68 12 -95 6z"/>
<path d="M8925 4261 c-3 -5 -1 -12 4 -15 6 -4 6 -18 1 -38 -10 -34 -6 -48 14
-48 14 0 31 84 20 101 -7 12 -31 12 -39 0z"/>
<path d="M7705 4201 c-13 -27 -29 -52 -34 -55 -5 -4 -23 7 -39 24 -35 35 -46
38 -39 10 3 -14 -8 -33 -40 -65 -43 -43 -45 -47 -40 -90 2 -25 12 -54 22 -65
16 -18 15 -22 -18 -78 -20 -33 -33 -63 -30 -66 16 -15 31 -1 62 59 24 44 41
65 53 65 44 0 105 53 121 105 4 11 0 33 -9 49 -14 28 -13 33 15 86 28 53 31
70 10 70 -5 0 -20 -22 -34 -49z m-55 -90 c0 -15 -76 -131 -86 -131 -12 0 -24
31 -24 63 0 29 52 75 83 74 15 -1 27 -4 27 -6z m40 -50 c0 -21 -10 -38 -36
-61 -20 -17 -38 -29 -40 -27 -6 6 59 117 69 117 4 0 7 -13 7 -29z"/>
<path d="M5390 4226 c0 -8 5 -18 10 -21 14 -8 2 -97 -14 -108 -6 -4 -29 -6
-51 -5 -30 2 -40 -1 -40 -12 0 -11 13 -16 48 -18 l49 -3 -7 -68 c-6 -56 -4
-71 10 -84 18 -18 95 -24 95 -7 0 6 7 10 16 10 9 0 14 5 12 11 -4 12 -8 12
-56 3 -19 -4 -38 -2 -43 3 -5 5 -6 39 -2 76 l6 67 42 13 c53 15 53 33 2 30
l-38 -2 6 43 c8 48 -6 86 -30 86 -8 0 -15 -6 -15 -14z"/>
<path d="M9875 4228 c-3 -7 -8 -38 -13 -68 l-7 -55 -37 3 c-20 2 -39 -2 -43
-8 -10 -16 -1 -22 37 -24 32 -1 33 -3 36 -48 4 -59 46 -101 95 -96 40 4 49 28
10 28 -47 0 -73 25 -73 71 l0 39 43 0 c47 0 73 12 63 29 -4 6 -25 9 -50 6
l-44 -4 -4 39 c-2 22 0 40 4 40 5 0 8 14 8 30 0 30 -16 41 -25 18z"/>
<path d="M11867 4226 c-3 -8 -4 -22 -1 -33 3 -10 -7 -63 -21 -118 -14 -55 -25
-103 -25 -107 0 -18 22 -5 56 32 48 53 58 51 50 -9 -7 -53 8 -79 23 -39 22 60
23 86 1 108 -20 20 -23 20 -45 6 -14 -9 -26 -16 -28 -16 -3 0 2 28 10 61 8 34
13 75 11 92 -3 33 -22 47 -31 23z"/>
<path d="M11705 4217 c-10 -8 -15 -19 -11 -25 4 -7 -10 -38 -32 -69 -56 -84
-102 -168 -102 -187 0 -32 26 -14 48 35 13 27 51 90 83 140 54 82 67 119 41
119 -4 0 -16 -6 -27 -13z"/>
<path d="M9144 4209 c-4 -7 0 -17 10 -24 16 -12 16 -18 -4 -91 -26 -102 -26
-130 3 -149 30 -19 117 -10 117 12 0 11 -11 13 -45 10 -68 -6 -72 5 -45 117
12 51 20 101 18 112 -4 22 -42 31 -54 13z"/>
<path d="M7280 4185 c0 -17 23 -25 68 -25 l36 0 -34 -30 c-33 -28 -34 -31 -17
-44 11 -8 36 -18 58 -21 21 -4 39 -11 39 -16 0 -5 -15 -26 -33 -46 -30 -32
-41 -37 -91 -41 -52 -4 -57 -3 -54 14 4 24 -35 27 -40 3 -9 -48 99 -67 168
-30 44 23 82 77 78 110 -2 21 -11 27 -47 36 l-44 11 24 15 c13 8 39 21 57 29
19 7 32 19 30 27 -4 18 -198 26 -198 8z"/>
<path d="M13736 4193 c-12 -12 -6 -33 9 -33 8 0 15 6 15 14 0 17 -14 28 -24
19z"/>
<path d="M5230 4169 c-12 -22 -7 -49 10 -49 5 0 10 5 10 11 0 7 7 17 17 24 18
13 10 35 -12 35 -8 0 -19 -9 -25 -21z"/>
<path d="M7884 4175 c-3 -8 -3 -19 1 -24 3 -6 -4 -56 -15 -111 -12 -55 -19
-107 -16 -116 10 -27 28 -10 32 31 2 22 13 76 23 120 13 54 16 85 10 97 -12
22 -28 23 -35 3z"/>
<path d="M10070 4166 c0 -17 27 -29 35 -16 4 6 3 15 0 20 -9 15 -35 12 -35 -4z"/>
<path d="M4368 4129 c-21 -11 -38 -24 -38 -29 0 -12 25 -36 60 -57 36 -21 37
-27 8 -47 -28 -20 -48 -20 -48 -1 0 17 -9 19 -29 6 -20 -13 -6 -39 25 -47 40
-10 98 23 102 58 3 22 -4 32 -32 50 -20 13 -34 27 -33 33 2 5 21 15 42 21 21
6 41 16 43 22 6 19 -59 13 -100 -9z"/>
<path d="M4767 4119 c-26 -17 -44 -35 -41 -40 8 -14 24 -11 51 11 15 11 27 19
29 17 2 -2 -3 -25 -11 -52 -15 -48 -12 -84 8 -97 13 -8 67 18 67 32 0 21 16 9
27 -20 8 -23 18 -30 37 -30 31 0 46 25 46 79 0 22 4 51 10 65 6 17 6 27 -2 32
-20 13 -38 -29 -38 -89 0 -65 -17 -75 -35 -19 -16 47 -22 48 -59 13 -19 -18
-36 -29 -39 -24 -3 4 4 35 14 68 29 94 14 106 -64 54z"/>
<path d="M4134 4116 c-25 -19 -27 -117 -3 -141 19 -19 87 -37 112 -29 32 10
19 34 -19 34 -19 0 -44 5 -55 10 -24 13 -25 40 -1 40 56 0 85 72 36 90 -34 13
-47 13 -70 -4z m56 -26 c13 -9 13 -11 0 -20 -8 -5 -23 -10 -33 -10 -15 0 -16
3 -7 20 12 22 18 24 40 10z"/>
<path d="M3966 4104 c-9 -8 -16 -20 -16 -25 0 -5 -9 -9 -21 -9 -18 0 -20 -4
-14 -47 12 -92 27 -98 45 -20 18 76 26 88 55 81 18 -4 25 -2 25 9 0 28 -50 36
-74 11z"/>
<path d="M10843 4094 c-3 -8 -1 -20 5 -26 15 -15 43 8 35 28 -7 19 -32 18 -40
-2z"/>
<path d="M5066 4084 c-23 -22 -19 -139 4 -139 11 0 15 12 16 40 2 91 0 88 40
81 31 -6 35 -5 32 11 -4 25 -69 30 -92 7z"/>
<path d="M6162 4093 c-19 -8 -42 -59 -42 -95 0 -62 57 -125 100 -110 26 9 50
34 50 54 0 24 -17 23 -30 -2 -14 -26 -56 -26 -70 -1 -15 29 -12 41 8 41 25 0
52 31 52 59 0 48 -28 70 -68 54z m28 -69 c-13 -15 -40 -19 -40 -6 0 4 7 18 16
31 15 21 18 22 26 7 6 -11 6 -22 -2 -32z"/>
<path d="M10389 4073 c-21 -18 -34 -24 -37 -15 -2 6 -10 12 -18 12 -10 0 -14
-13 -14 -45 0 -57 13 -57 65 -4 l40 42 6 -43 c6 -45 39 -83 67 -78 22 4 18 21
-7 33 -24 11 -36 44 -28 76 14 53 -23 64 -74 22z"/>
<path d="M5620 4083 c-49 -18 -64 -68 -35 -122 20 -40 62 -55 111 -42 53 15
68 26 61 45 -6 15 -9 15 -29 3 -42 -26 -74 -28 -99 -7 -22 17 -22 19 -5 20 10
0 34 9 52 21 70 43 23 111 -56 82z m55 -32 c7 -12 -34 -41 -57 -41 -25 0 -22
25 5 38 28 14 44 14 52 3z"/>
<path d="M9348 4068 c-41 -51 -8 -118 57 -118 43 0 75 29 75 68 0 37 -24 58
-75 66 -34 5 -43 3 -57 -16z m99 -34 c9 -25 -11 -49 -42 -49 -31 0 -51 24 -42
49 4 11 18 16 42 16 24 0 38 -5 42 -16z"/>
<path d="M9576 4071 c-10 -11 -18 -36 -19 -57 -1 -53 30 -76 97 -72 58 3 69
22 16 26 -69 5 -80 11 -80 40 0 41 15 59 34 42 14 -11 16 -10 10 5 -6 13 -4
16 6 10 8 -5 11 -3 8 6 -7 22 -52 22 -72 0z"/>
<path d="M6336 4059 c-30 -24 -35 -69 -10 -93 17 -18 61 -21 84 -6 11 7 17 2
27 -21 12 -28 38 -47 49 -36 3 3 -1 16 -9 29 -8 12 -18 40 -21 60 -4 24 -18
46 -37 62 -37 31 -49 32 -83 5z m63 -61 c-13 -24 -52 -20 -57 6 -3 11 4 26 14
33 15 11 20 10 35 -3 14 -13 16 -21 8 -36z"/>
<path d="M10191 4054 c-40 -51 -16 -97 48 -92 29 2 37 8 45 31 24 66 -51 115
-93 61z m59 -19 c16 -20 6 -45 -19 -45 -26 0 -34 15 -21 40 13 24 23 25 40 5z"/>
<path d="M12454 4058 c-42 -20 -59 -102 -28 -132 20 -21 117 -22 134 -1 17 21
4 38 -21 24 -11 -5 -36 -9 -56 -7 -42 4 -59 28 -19 28 52 0 88 68 47 90 -23
12 -29 12 -57 -2z m35 -44 c-6 -8 -21 -14 -33 -14 -21 1 -21 1 3 20 25 22 49
17 30 -6z"/>
<path d="M5205 4048 c-10 -24 -2 -71 13 -76 14 -4 16 41 2 73 -7 18 -9 18 -15
3z"/>
<path d="M12025 4035 c-27 -26 -34 -82 -13 -103 33 -33 98 9 98 65 0 30 -26
63 -49 63 -6 0 -23 -11 -36 -25z m45 -71 c-19 -22 -40 -17 -40 11 0 33 43 54
48 23 2 -10 -2 -26 -8 -34z"/>
<path d="M10068 4043 c-8 -20 -2 -97 9 -100 13 -5 27 52 21 83 -3 18 -24 30
-30 17z"/>
<path d="M12194 4043 c-14 -3 -24 -18 -34 -51 -17 -60 -18 -64 -3 -69 7 -3 22
16 34 41 21 46 42 63 32 27 -8 -31 15 -34 48 -6 18 14 34 23 37 21 3 -3 6 -25
6 -48 1 -51 18 -53 29 -4 6 24 5 43 -5 62 -16 34 -31 40 -51 19 -20 -19 -33
-19 -41 0 -5 15 -12 16 -52 8z"/>
<path d="M13699 4043 c-1 -4 0 -22 1 -40 1 -27 -4 -35 -39 -55 -41 -23 -54
-48 -26 -48 43 0 122 81 97 100 -4 3 -7 14 -7 24 0 19 -24 36 -26 19z"/>
<path d="M10883 3973 c-18 -7 -17 -53 1 -53 14 0 26 21 26 46 0 14 -6 16 -27
7z"/>
<path d="M4576 3961 c-3 -5 1 -14 8 -20 16 -13 32 2 21 19 -8 12 -22 13 -29 1z"/>
<path d="M8073 3929 c4 -14 -1 -32 -14 -50 -20 -28 -25 -59 -10 -59 4 0 21 18
35 39 31 44 32 84 2 89 -15 3 -18 0 -13 -19z"/>
<path d="M5134 3795 c-3 -8 -1 -37 5 -65 16 -77 14 -89 -16 -101 -46 -17 -63
-39 -63 -80 0 -50 36 -78 76 -60 43 19 57 70 45 166 -5 45 -7 92 -4 104 9 35
-31 69 -43 36z m26 -204 c0 -18 -21 -66 -33 -73 -15 -9 -37 10 -37 33 0 9 7
25 16 33 17 17 54 22 54 7z"/>
<path d="M5660 3795 c-14 -17 -2 -25 37 -25 53 0 94 -44 100 -107 6 -58 -11
-101 -62 -160 -26 -29 -34 -34 -35 -20 0 28 -25 14 -28 -16 -8 -69 97 3 142
97 34 71 13 176 -42 212 -37 24 -99 35 -112 19z"/>
<path d="M5339 3741 c-79 -82 -85 -167 -15 -228 25 -23 50 -32 105 -41 40 -7
76 -10 82 -7 16 10 11 38 -6 31 -9 -3 -46 1 -83 8 -49 11 -73 22 -89 41 -29
33 -30 96 -4 139 23 36 73 76 96 76 8 0 15 7 15 15 0 10 -10 15 -27 15 -19 0
-40 -14 -74 -49z"/>
<path d="M9596 3699 c-20 -33 -36 -67 -36 -74 0 -20 35 -37 63 -30 24 6 24 5
16 -42 -4 -26 -8 -72 -8 -100 -1 -46 2 -53 18 -53 11 0 23 5 26 11 5 7 46 9
116 8 59 -2 111 0 115 4 18 18 -20 26 -130 28 l-118 3 7 55 c10 89 13 94 46
87 41 -8 45 9 11 52 -15 20 -39 54 -51 75 -12 20 -26 37 -31 37 -4 0 -24 -27
-44 -61z"/>
<path d="M12165 3750 c-3 -5 -5 -49 -3 -97 1 -49 -1 -102 -5 -119 -6 -25 -3
-35 17 -57 14 -15 36 -27 50 -27 28 0 66 42 66 72 0 28 -46 71 -69 63 -16 -5
-19 3 -25 68 -4 41 -4 81 0 90 7 19 -20 25 -31 7z m89 -216 c7 -19 -10 -54
-27 -54 -31 0 -51 53 -24 63 24 10 45 7 51 -9z"/>
<path d="M13187 3688 c-19 -207 -20 -218 -6 -234 10 -12 23 -14 53 -10 55 9
61 15 35 39 -20 19 -23 19 -34 4 -26 -36 -38 -20 -32 46 20 215 20 217 4 217
-11 0 -16 -16 -20 -62z"/>
<path d="M13912 3738 c-7 -7 -12 -24 -12 -39 0 -14 -3 -41 -6 -59 -6 -29 -9
-31 -36 -26 -24 5 -29 3 -26 -11 2 -9 14 -20 28 -23 17 -4 26 -14 28 -30 8
-68 38 -99 82 -85 27 9 27 39 0 32 -26 -7 -50 17 -50 49 0 19 5 24 24 24 13 0
29 7 36 15 11 13 7 15 -24 15 -41 0 -39 -10 -21 102 6 39 -4 55 -23 36z"/>
<path d="M14725 3713 c-4 -21 -14 -72 -22 -113 -8 -41 -15 -79 -16 -84 -1 -5
3 -11 10 -13 10 -4 42 36 57 72 9 20 26 -21 20 -47 -7 -35 3 -68 21 -68 22 0
14 128 -9 145 -10 8 -25 11 -33 8 -12 -5 -13 2 -7 43 11 71 10 86 -3 91 -7 3
-14 -11 -18 -34z"/>
<path d="M10684 3708 c4 -13 9 -39 12 -58 5 -30 2 -37 -17 -45 -28 -12 -49
-49 -42 -75 7 -25 41 -60 58 -60 26 0 39 43 37 120 -3 117 -9 140 -39 140 -11
0 -14 -6 -9 -22z m18 -161 c-5 -41 -25 -46 -30 -7 -3 14 3 29 14 37 22 16 22
16 16 -30z"/>
<path d="M11882 3710 c-20 -51 -25 -164 -8 -203 15 -36 29 -46 40 -28 3 5 -1
23 -10 40 -13 26 -14 44 -6 104 5 39 6 81 2 92 -8 19 -8 19 -18 -5z"/>
<path d="M15310 3627 c0 -88 -3 -106 -18 -120 -10 -10 -26 -17 -35 -17 -31 0
-28 21 7 56 49 49 49 88 1 46 -34 -28 -65 -74 -65 -93 0 -10 11 -26 24 -34 21
-14 28 -14 59 -1 20 8 40 23 46 34 15 29 14 112 -1 112 -9 0 -10 3 -2 8 6 4
14 31 17 60 5 47 4 52 -13 52 -19 0 -20 -7 -20 -103z"/>
<path d="M7459 3670 c-30 -27 -50 -50 -45 -50 5 0 3 -7 -4 -15 -20 -24 -4 -29
41 -16 22 7 44 9 47 6 4 -4 8 -57 9 -118 1 -62 3 -154 4 -204 1 -68 5 -93 14
-93 20 0 28 87 15 179 -6 45 -10 116 -8 156 l3 75 41 0 c22 0 44 3 47 7 4 3
-11 22 -33 40 -26 23 -40 43 -40 59 0 38 -31 30 -91 -26z"/>
<path d="M11767 3589 c-4 -61 -4 -115 -1 -120 14 -23 22 -3 28 69 4 42 9 96
13 120 5 37 3 42 -14 42 -18 0 -20 -10 -26 -111z"/>
<path d="M14085 3690 c-9 -14 45 -34 58 -21 5 5 6 14 3 20 -9 14 -53 14 -61 1z"/>
<path d="M3887 3670 c-39 -31 -65 -158 -36 -176 19 -11 30 12 34 71 4 69 26
101 48 71 20 -27 41 -12 26 17 -22 41 -36 45 -72 17z"/>
<path d="M4263 3665 c-31 -22 -29 -31 17 -72 22 -20 40 -42 40 -50 0 -18 -46
-17 -54 2 -6 18 -36 9 -36 -11 0 -18 32 -34 67 -34 63 0 71 54 16 105 -38 35
-37 40 15 47 36 5 31 23 -8 26 -20 1 -45 -4 -57 -13z"/>
<path d="M10185 3607 c-4 -41 -5 -82 -4 -92 6 -31 27 -28 44 5 19 36 25 34 34
-11 8 -38 27 -49 35 -21 8 23 -19 91 -39 99 -9 3 -22 0 -29 -7 -13 -10 -14 -3
-9 44 5 46 3 56 -10 56 -12 0 -17 -17 -22 -73z"/>
<path d="M4057 3659 c-9 -5 -26 -27 -37 -49 -18 -36 -19 -40 -3 -72 21 -41 41
-57 73 -57 34 -1 75 32 67 53 -6 15 -10 15 -36 -5 -23 -17 -32 -19 -50 -10
-29 16 -26 25 11 42 43 19 55 41 42 76 -10 30 -38 39 -67 22z m40 -52 c-3 -8
-17 -17 -31 -19 -27 -5 -26 2 2 35 17 19 38 8 29 -16z"/>
<path d="M4671 3644 c-38 -49 -21 -116 35 -140 40 -17 63 -13 88 15 19 21 3
42 -17 22 -16 -16 -62 -14 -77 4 -15 18 -15 18 25 31 32 10 53 49 42 78 -11
27 -72 21 -96 -10z m69 -13 c0 -15 -28 -33 -46 -29 -17 3 -17 4 0 21 18 18 46
23 46 8z"/>
<path d="M6045 3660 c-4 -7 -3 -16 2 -21 12 -12 45 0 40 15 -5 15 -34 19 -42
6z"/>
<path d="M4855 3648 c-2 -7 -3 -29 -1 -48 2 -19 4 -45 5 -57 1 -29 31 -31 31
-3 0 35 29 80 51 80 22 0 39 -35 39 -81 0 -19 5 -29 15 -29 20 0 20 61 0 100
-24 46 -52 56 -86 31 -29 -21 -29 -21 -29 -1 0 22 -18 28 -25 8z"/>
<path d="M11666 3631 c-7 -11 18 -33 27 -24 4 3 7 12 7 20 0 15 -26 18 -34 4z"/>
<path d="M15606 3624 c-3 -9 -6 -42 -6 -75 0 -45 3 -59 15 -59 10 0 15 15 17
58 3 53 5 57 26 54 14 -2 22 2 22 11 0 28 -64 38 -74 11z"/>
<path d="M10799 3601 c-16 -16 -29 -38 -29 -48 0 -63 108 -100 123 -42 7 26
-21 38 -38 16 -7 -10 -16 -12 -24 -7 -10 6 -8 9 8 15 29 9 44 40 32 64 -18 32
-40 33 -72 2z m41 -20 c0 -12 -20 -25 -27 -18 -7 7 6 27 18 27 5 0 9 -4 9 -9z"/>
<path d="M10981 3599 c-19 -32 -20 -82 -1 -103 16 -17 30 6 25 42 -8 50 5 68
33 51 12 -7 25 -10 29 -6 13 13 -13 42 -40 45 -21 3 -31 -4 -46 -29z"/>
<path d="M10384 3613 c-55 -11 -74 -85 -34 -128 22 -24 74 -37 110 -28 34 9
16 28 -30 31 -43 3 -70 16 -70 33 0 5 11 9 23 9 26 0 57 28 57 51 0 15 -20 40
-29 38 -4 -1 -16 -4 -27 -6z m26 -37 c0 -2 -7 -6 -15 -10 -8 -3 -15 -1 -15 4
0 6 7 10 15 10 8 0 15 -2 15 -4z"/>
<path d="M10487 3602 c-40 -44 -3 -107 48 -84 20 9 24 8 29 -14 4 -13 13 -24
21 -24 21 0 8 99 -16 123 -24 22 -62 22 -82 -1z m59 -24 c9 -15 -27 -41 -39
-29 -13 13 -1 41 17 41 8 0 18 -5 22 -12z"/>
<path d="M11423 3600 c-18 -11 -33 -24 -33 -29 0 -15 23 -26 28 -13 2 7 8 12
13 12 5 0 3 -13 -6 -30 -23 -44 -20 -70 8 -70 13 0 28 5 35 12 9 9 18 6 41
-16 56 -54 110 -10 96 80 -6 45 -20 63 -36 47 -6 -6 -5 -22 2 -42 8 -24 9 -39
1 -57 -14 -30 -37 -22 -51 17 -12 35 -20 36 -56 8 l-27 -22 26 51 c14 28 26
56 26 62 0 16 -32 12 -67 -10z"/>
<path d="M12339 3604 c-7 -9 -13 -32 -13 -51 0 -62 70 -102 125 -72 28 15 13
31 -24 24 -36 -6 -63 7 -53 24 4 6 11 9 15 6 17 -10 44 34 37 60 -5 20 -12 25
-40 25 -18 0 -39 -7 -47 -16z m55 -28 c-3 -8 -14 -16 -25 -19 -16 -4 -17 -2
-8 14 11 22 41 26 33 5z"/>
<path d="M12740 3600 c-26 -26 -35 -66 -20 -85 17 -20 32 -19 64 6 25 20 28
20 40 4 7 -10 22 -15 36 -13 31 4 37 26 8 30 -13 2 -27 12 -32 23 -5 11 -24
28 -42 37 -33 17 -35 17 -54 -2z m23 -40 c-3 -11 -9 -20 -15 -20 -5 0 -4 9 2
20 6 11 12 20 14 20 2 0 2 -9 -1 -20z"/>
<path d="M13478 3603 c-15 -9 -32 -27 -39 -40 -11 -20 -10 -27 8 -51 21 -28
72 -49 97 -39 23 9 10 32 -19 33 -40 3 -55 12 -55 33 0 25 35 50 61 44 21 -6
25 7 7 25 -16 16 -28 15 -60 -5z"/>
<path d="M15085 3595 c-14 -13 -25 -36 -25 -50 0 -24 3 -26 34 -24 19 2 38 0
42 -4 18 -18 30 -5 29 31 -3 75 -34 94 -80 47z m35 -24 c0 -5 -7 -11 -14 -14
-10 -4 -13 -1 -9 9 6 15 23 19 23 5z"/>
<path d="M15465 3601 c-62 -28 -84 -92 -45 -131 31 -31 150 -27 150 5 0 10
-13 12 -55 8 -37 -4 -60 -2 -70 7 -24 20 -18 27 35 45 52 17 71 44 50 70 -15
19 -16 19 -65 -4z m25 -31 c-8 -5 -19 -10 -25 -10 -5 0 -3 5 5 10 8 5 20 10
25 10 6 0 3 -5 -5 -10z"/>
<path d="M13311 3574 c-26 -33 -27 -55 -2 -85 16 -20 23 -22 47 -14 16 6 35
22 43 37 14 25 14 29 -5 55 -28 38 -57 40 -83 7z m58 -28 c9 -11 8 -18 -4 -30
-20 -20 -31 -20 -39 -1 -13 36 19 60 43 31z"/>
<path d="M13661 3576 c-27 -28 -25 -69 3 -74 10 -2 31 6 47 17 20 15 29 17 30
9 3 -51 22 -79 40 -61 8 8 7 14 -3 23 -8 8 -12 28 -10 51 4 34 1 40 -23 49
-40 15 -59 12 -84 -14z m40 -27 c-13 -11 -26 -17 -29 -14 -8 8 20 35 37 35 12
-1 11 -5 -8 -21z"/>
<path d="M14076 3591 c-4 -5 -3 -16 0 -25 3 -9 1 -22 -4 -29 -13 -16 -4 -59
11 -54 15 5 30 65 23 94 -7 24 -20 30 -30 14z"/>
<path d="M14917 3589 c-42 -25 -61 -113 -31 -143 25 -25 94 -18 94 9 0 8 -13
12 -37 11 -35 -1 -38 2 -41 28 -2 15 0 26 5 23 4 -3 23 1 41 9 28 11 33 18 30
41 -3 31 -30 40 -61 22z"/>
<path d="M14186 3548 c-25 -46 -18 -82 15 -86 14 -2 36 5 49 16 23 19 23 21 9
58 -20 52 -49 57 -73 12z m44 -27 c0 -20 -17 -37 -27 -28 -7 8 7 47 18 47 5 0
9 -9 9 -19z"/>
<path d="M14360 3565 c-7 -8 -19 -15 -26 -15 -9 0 -14 -11 -14 -30 0 -36 24
-41 35 -7 4 12 7 24 7 27 0 3 8 7 19 7 13 1 19 -5 19 -18 0 -26 18 -59 31 -59
11 0 7 45 -7 93 -7 21 -47 23 -64 2z"/>
<path d="M3477 3540 c-22 -26 -22 -36 3 -43 13 -3 20 -14 20 -29 0 -22 -8 -26
-97 -47 -53 -13 -196 -56 -318 -96 -241 -80 -511 -158 -786 -229 -187 -49
-267 -78 -276 -102 -10 -26 4 -26 54 -1 26 14 120 44 208 67 346 91 549 150
870 255 167 55 313 95 348 95 9 0 17 -6 17 -14 0 -8 6 -21 13 -28 8 -7 18 -31
23 -53 11 -45 37 -55 42 -15 6 56 15 73 73 140 33 39 57 75 54 80 -4 7 -44 10
-98 9 -73 -1 -93 2 -102 15 -16 21 -27 20 -48 -4z"/>
<path d="M11669 3560 c0 -3 -3 -29 -5 -57 -3 -41 0 -53 10 -53 23 0 32 78 12
98 -9 9 -16 14 -17 12z"/>
<path d="M6040 3526 c0 -7 7 -19 14 -26 12 -9 13 -18 5 -38 -16 -42 -60 -83
-81 -76 -13 4 -18 0 -18 -15 0 -54 103 11 129 82 15 38 14 40 -9 65 -24 25
-40 28 -40 8z"/>
<path d="M4424 3509 c-3 -6 -2 -15 4 -21 13 -13 32 -2 32 18 0 16 -26 19 -36
3z"/>
<path d="M8054 3196 c-3 -9 1 -31 9 -49 25 -52 40 -124 33 -159 -4 -18 -8 -41
-9 -51 -1 -9 -6 -16 -12 -14 -5 2 -21 -4 -35 -13 -14 -10 -35 -21 -47 -24 -20
-6 -23 -4 -23 17 0 25 21 49 54 61 15 5 16 9 6 21 -11 13 -16 13 -40 -2 -36
-21 -53 -52 -48 -88 5 -43 29 -52 76 -31 106 48 131 121 89 260 -24 79 -41
103 -53 72z"/>
<path d="M8890 3171 c0 -10 -11 -44 -26 -74 -23 -51 -27 -55 -48 -47 -25 9
-36 5 -36 -15 0 -7 13 -15 29 -18 24 -5 29 -12 35 -45 8 -50 65 -105 104 -100
34 4 42 28 8 28 -34 0 -75 38 -82 79 -6 31 -5 33 15 26 29 -9 83 4 78 18 -2 7
-17 11 -33 9 -16 -1 -36 2 -44 7 -12 9 -11 16 8 56 26 53 29 95 7 95 -8 0 -15
-8 -15 -19z"/>
<path d="M1710 3100 c-10 -36 -14 -40 -51 -46 -49 -8 -50 -34 -1 -46 29 -8 32
-11 26 -36 -4 -15 -16 -42 -27 -60 -22 -38 -14 -56 24 -50 19 2 23 8 21 29 -1
16 6 33 18 44 20 18 21 18 43 -3 22 -20 63 -31 55 -14 -2 4 -12 25 -22 47
l-18 39 46 44 c25 24 46 48 46 54 0 7 -19 9 -55 5 -48 -5 -56 -3 -65 14 -16
29 -28 23 -40 -21z m80 -35 c-7 -9 -15 -13 -19 -10 -3 3 1 10 9 15 21 14 24
12 10 -5z m-46 -57 c-9 -14 -23 2 -17 18 4 12 8 13 14 3 4 -7 5 -17 3 -21z"/>
<path d="M7055 3098 c-2 -7 -9 -44 -15 -81 -10 -57 -15 -67 -29 -61 -26 10
-44 10 -48 -2 -2 -7 9 -16 25 -22 25 -9 28 -14 24 -41 -8 -54 4 -77 48 -95 55
-22 80 -21 80 4 0 12 -5 17 -14 14 -7 -3 -30 2 -50 10 -30 12 -36 20 -36 45 0
31 22 61 46 61 8 0 14 4 14 9 0 6 9 8 20 6 29 -5 50 4 50 22 0 11 -7 13 -26 9
-59 -15 -84 -18 -84 -10 1 5 7 36 15 69 8 33 15 63 15 68 0 12 -30 8 -35 -5z"/>
<path d="M8230 3102 c0 -14 36 -43 43 -35 4 3 7 15 7 25 0 13 -7 18 -25 18
-14 0 -25 -4 -25 -8z"/>
<path d="M11639 3087 c0 -1 -2 -9 -4 -17 -2 -8 -12 -35 -21 -60 -11 -28 -15
-56 -10 -73 5 -23 12 -27 41 -27 37 0 99 45 110 79 8 25 -10 68 -32 79 -17 9
-82 24 -84 19z m67 -45 c19 -13 23 -39 9 -60 -8 -10 -12 -21 -10 -24 3 -3 -1
-5 -7 -6 -7 -1 -25 -4 -40 -8 -24 -5 -28 -3 -28 15 0 27 25 77 42 84 19 8 22
8 34 -1z"/>
<path d="M11903 3083 c-8 -3 -13 -22 -13 -46 0 -23 -3 -52 -6 -65 -9 -31 -28
-13 -59 55 -14 30 -31 53 -40 53 -21 0 -19 -8 17 -76 37 -70 56 -94 75 -94 19
0 43 61 43 109 0 39 1 40 25 31 30 -11 41 2 19 24 -15 16 -37 19 -61 9z"/>
<path d="M12127 3069 c-10 -6 -28 -27 -41 -47 -43 -70 -9 -146 75 -167 46 -11
126 42 101 67 -9 9 -15 8 -24 -5 -22 -28 -60 -36 -93 -19 -51 25 -62 62 -20
62 14 0 37 11 50 25 53 52 14 120 -48 84z m37 -52 c-6 -17 -41 -33 -51 -23 -4
3 4 17 17 31 24 26 46 21 34 -8z"/>
<path d="M7662 3048 c2 -12 10 -23 18 -23 22 0 19 39 -3 43 -15 3 -18 -1 -15
-20z"/>
<path d="M10198 3054 c-16 -8 -28 -20 -28 -27 0 -7 -6 -24 -14 -38 -8 -16 -10
-32 -5 -40 5 -8 9 -58 9 -111 0 -94 9 -123 32 -100 5 5 12 43 15 85 6 74 7 76
35 82 62 14 74 103 21 145 -30 24 -30 24 -65 4z m65 -58 c8 -25 7 -32 -13 -48
-30 -24 -36 -23 -50 11 -9 22 -9 34 0 51 16 30 51 23 63 -14z"/>
<path d="M10418 3059 c-32 -12 -68 -66 -68 -100 0 -55 45 -84 109 -71 58 12
50 32 -12 32 -49 0 -67 9 -67 33 0 1 14 2 30 3 17 1 39 9 50 19 22 20 26 65 8
83 -14 14 -14 14 -50 1z m30 -46 c-2 -11 -14 -19 -33 -21 -30 -4 -30 -4 -11
17 23 26 49 28 44 4z"/>
<path d="M10603 3063 c-17 -6 -27 -65 -19 -108 5 -26 12 -35 26 -35 23 0 25 9
9 44 -17 37 -4 76 26 76 16 0 25 6 25 15 0 15 -39 20 -67 8z"/>
<path d="M10758 3042 c-34 -41 -54 -90 -40 -104 15 -15 28 -3 35 30 3 15 15
39 27 53 l21 24 -6 -47 c-8 -65 9 -71 56 -21 36 39 38 40 43 18 7 -28 61 -53
84 -38 27 16 28 37 2 30 -32 -8 -62 10 -60 36 5 59 -10 62 -56 11 l-33 -35 -3
33 c-4 45 -36 50 -70 10z"/>
<path d="M11338 3039 c-16 -12 -28 -16 -28 -9 0 6 -5 10 -11 8 -17 -6 -22
-128 -5 -128 7 0 18 17 24 38 7 21 23 49 37 62 l25 23 0 -25 c0 -45 23 -52 58
-17 17 17 36 28 41 25 5 -3 12 -24 16 -46 4 -25 12 -40 21 -40 32 0 4 106 -32
122 -22 11 -28 9 -50 -18 -14 -16 -22 -23 -19 -16 8 16 -12 42 -34 42 -9 0
-28 -10 -43 -21z"/>
<path d="M9138 3033 c-9 -2 -27 -20 -38 -39 -19 -30 -20 -38 -10 -69 7 -22 23
-41 40 -50 38 -19 89 -19 96 0 4 8 12 15 20 15 8 0 14 4 14 9 0 18 -17 20 -36
6 -25 -19 -54 -19 -82 1 -27 19 -28 34 -3 34 10 0 29 9 42 19 20 16 22 23 14
47 -10 29 -25 36 -57 27z m19 -50 c-9 -9 -19 -14 -23 -11 -10 10 6 28 24 28
15 0 15 -1 -1 -17z"/>
<path d="M9650 3010 c-26 -26 -26 -81 -2 -103 23 -21 60 -22 83 -1 13 12 22
13 38 5 25 -14 42 7 18 23 -8 7 -17 25 -19 41 -2 22 -8 30 -23 30 -11 0 -30 6
-42 13 -28 16 -29 16 -53 -8z m55 -30 c4 -6 11 -8 16 -5 16 10 10 -23 -7 -40
-31 -30 -66 -1 -50 41 6 16 32 19 41 4z"/>
<path d="M8389 2980 c-24 -23 -30 -37 -27 -62 3 -28 9 -35 49 -52 50 -20 100
-17 134 8 32 23 9 35 -38 19 -39 -13 -49 -13 -81 1 -50 21 -48 41 8 80 19 13
15 36 -5 36 -6 0 -24 -13 -40 -30z"/>
<path d="M8623 2999 c-12 -4 -27 -18 -33 -29 -27 -51 24 -104 80 -83 26 10 29
8 34 -13 4 -13 13 -24 21 -24 19 0 19 4 -1 69 -13 44 -18 51 -35 46 -13 -4
-19 -2 -19 8 0 23 -23 36 -47 26z m47 -54 c8 5 11 3 8 -5 -9 -27 -36 -36 -54
-18 -14 14 -15 20 -4 33 11 14 14 14 25 -1 7 -11 17 -14 25 -9z"/>
<path d="M3363 2992 c-15 -9 -63 -80 -63 -92 0 -25 32 -6 60 36 29 43 31 73 3
56z"/>
<path d="M8225 2970 c-8 -26 -9 -99 -1 -107 13 -13 24 13 29 70 4 44 2 57 -8
57 -8 0 -16 -9 -20 -20z"/>
<path d="M4019 2948 c-17 -27 -19 -44 -15 -93 3 -33 8 -72 12 -87 6 -27 5 -28
-40 -28 -34 0 -46 -4 -46 -15 0 -16 12 -18 68 -15 39 2 39 -6 7 -70 -28 -56
-31 -70 -12 -70 13 0 67 100 67 125 0 7 10 15 23 17 12 2 20 8 17 13 -2 6 -10
9 -16 7 -19 -4 -32 20 -45 83 -12 59 -9 95 10 124 8 12 16 13 48 3 48 -15 66
1 25 22 -49 26 -79 21 -103 -16z"/>
<path d="M7770 2938 c-17 -23 -29 -46 -27 -52 8 -23 27 -15 42 18 17 35 39 51
56 40 5 -3 9 -27 9 -55 0 -37 4 -49 15 -49 12 0 15 13 15 58 0 65 -11 82 -52
82 -21 0 -35 -10 -58 -42z"/>
<path d="M4881 2918 c-32 -132 -30 -128 -56 -128 -29 0 -34 -20 -7 -27 16 -4
18 -15 18 -70 -1 -57 2 -67 23 -84 13 -11 31 -18 40 -15 9 2 28 7 44 10 15 4
27 13 27 22 0 12 -7 14 -32 9 -18 -4 -37 -8 -42 -9 -18 -2 -37 53 -31 88 7 33
7 34 57 32 68 -1 74 19 8 28 -27 4 -50 10 -50 14 0 4 9 40 20 80 23 84 25 102
7 102 -8 0 -19 -22 -26 -52z"/>
<path d="M7223 2928 c-31 -34 -43 -63 -43 -101 0 -42 21 -62 56 -53 72 18 101
113 48 155 -33 26 -36 26 -61 -1z m51 -34 c12 -31 6 -53 -20 -73 -35 -27 -44
-26 -44 5 0 55 49 108 64 68z"/>
<path d="M7647 2943 c-9 -8 -9 -76 -1 -97 8 -20 44 -21 44 -2 0 8 -4 18 -10
21 -5 3 -10 24 -10 46 0 37 -8 48 -23 32z"/>
<path d="M2864 2873 c4 -27 9 -67 13 -90 5 -41 4 -43 -19 -43 -28 0 -65 -44
-74 -89 -5 -22 -1 -32 17 -45 29 -20 73 -21 89 -1 32 39 17 315 -17 315 -13 0
-15 -9 -9 -47z m16 -182 c0 -31 -18 -71 -32 -71 -33 1 -40 16 -22 53 19 40 54
51 54 18z"/>
<path d="M3427 2913 c-3 -4 -11 -36 -18 -71 -14 -65 -16 -67 -76 -62 -35 2
-28 -27 7 -35 16 -4 34 -4 40 0 6 4 10 -13 10 -45 0 -70 21 -107 65 -116 43
-8 88 2 82 19 -2 7 -22 12 -47 13 -53 0 -70 21 -70 86 0 35 4 48 15 49 8 1 20
3 25 4 6 1 17 3 25 4 8 0 15 8 15 17 0 13 -8 15 -35 12 -40 -5 -39 -7 -24 62
7 34 8 55 1 62 -5 5 -12 6 -15 1z"/>
<path d="M2396 2895 c-3 -9 -6 -72 -6 -139 0 -118 -6 -146 -33 -146 -9 0 -5
53 9 98 5 16 2 22 -9 22 -20 0 -49 -92 -41 -126 8 -32 53 -32 82 -1 19 20 21
35 23 161 1 90 -2 141 -8 143 -6 2 -13 -3 -17 -12z"/>
<path d="M1986 2742 c-38 -40 -45 -93 -16 -122 14 -14 29 -20 43 -16 16 4 28
-2 43 -21 27 -34 51 -23 28 12 -17 26 -12 97 9 123 14 18 -20 52 -53 52 -16 0
-37 -11 -54 -28z m61 -44 c-6 -48 -32 -75 -54 -56 -26 21 9 98 45 98 11 0 13
-9 9 -42z"/>
<path d="M2992 2740 c-13 -6 -30 -26 -38 -45 -12 -30 -13 -40 -2 -63 11 -23
20 -27 53 -27 54 0 71 32 53 99 -13 48 -22 53 -66 36z m36 -78 c-2 -19 -9 -27
-23 -27 -27 0 -32 46 -9 70 16 15 18 15 26 1 5 -9 8 -29 6 -44z"/>
<path d="M4596 2726 c-47 -46 -44 -112 6 -149 25 -18 29 -19 65 -4 21 8 38 21
38 28 1 8 7 13 15 11 12 -3 12 -1 3 9 -10 10 -16 9 -31 -4 -10 -9 -33 -17 -51
-17 -25 0 -34 6 -41 26 -14 35 -15 34 30 34 43 0 64 22 58 63 -5 34 -60 36
-92 3z m62 -18 c-5 -16 -48 -24 -48 -10 0 11 17 20 38 21 8 1 12 -5 10 -11z"/>
<path d="M4486 2731 c-4 -6 -21 -11 -37 -11 -40 0 -79 -39 -79 -80 0 -37 19
-47 66 -32 l34 10 0 -43 c0 -23 -3 -57 -6 -75 -6 -29 -10 -31 -35 -26 -41 8
-79 -26 -79 -70 0 -38 44 -94 74 -94 24 0 56 37 56 64 0 24 23 56 41 56 5 0 9
5 9 10 0 6 -6 10 -14 10 -23 0 -24 9 -15 115 5 55 9 113 9 130 -1 33 -14 53
-24 36z m-16 -55 c0 -16 -17 -31 -47 -40 -28 -9 -31 9 -6 36 19 21 53 24 53 4z
m-5 -245 c3 -5 1 -12 -5 -16 -5 -3 -10 -19 -10 -35 0 -36 -22 -44 -49 -19 -20
19 -28 59 -14 72 10 10 71 8 78 -2z"/>
<path d="M2191 2711 c-16 -16 -20 -17 -25 -5 -11 28 -26 3 -26 -42 0 -32 4
-44 15 -44 8 0 15 3 15 8 0 4 11 20 24 37 l24 30 11 -43 c11 -40 24 -52 35
-34 3 5 -1 30 -8 58 -14 55 -34 66 -65 35z"/>
<path d="M4139 2717 c-9 -8 -22 -29 -29 -46 -17 -41 7 -81 48 -81 58 0 71 59
24 111 -25 28 -30 30 -43 16z m41 -79 c0 -11 -7 -18 -19 -18 -27 0 -33 14 -19
45 11 25 13 25 25 9 7 -10 13 -26 13 -36z"/>
<path d="M3109 2688 c-17 -20 -29 -43 -29 -60 0 -41 15 -34 40 17 23 48 50 60
50 23 0 -39 12 -68 27 -68 11 0 13 10 7 48 -3 26 -11 53 -16 60 -18 21 -48 13
-79 -20z"/>
<path d="M4252 2697 c-23 -24 -29 -80 -13 -106 8 -12 12 -13 26 -1 11 9 13 16
5 24 -18 18 -11 55 15 72 14 9 25 20 25 25 0 18 -37 9 -58 -14z"/>
<path d="M10410 2506 c0 -7 11 -21 25 -30 38 -25 85 -95 85 -126 0 -59 -47
-128 -109 -160 -20 -10 -25 -10 -33 4 -10 18 -28 13 -28 -7 0 -7 7 -20 14 -30
14 -18 16 -18 53 1 88 46 143 139 129 217 -12 61 -136 181 -136 131z"/>
<path d="M3066 2491 c-3 -5 -2 -31 3 -58 5 -26 12 -71 15 -99 5 -50 4 -51 -20
-46 -63 12 -124 -116 -73 -152 18 -12 27 -13 53 -2 49 20 69 65 68 154 -1 149
-8 207 -25 210 -8 2 -18 -1 -21 -7z m-4 -300 c-22 -31 -62 -41 -62 -16 0 28
30 76 53 84 19 7 23 5 25 -17 2 -14 -5 -37 -16 -51z"/>
<path d="M11417 2462 c-9 -22 -21 -66 -28 -100 -12 -58 -14 -61 -48 -69 -45
-11 -50 -40 -7 -35 27 4 28 2 21 -25 -12 -40 -12 -77 0 -81 5 -2 17 23 25 54
14 49 21 59 46 67 40 13 57 28 45 40 -5 5 -15 6 -23 1 -32 -20 -40 -14 -33 29
4 23 16 65 26 92 23 60 23 65 5 65 -8 0 -21 -17 -29 -38z"/>
<path d="M3820 2470 c-9 -16 -8 -22 6 -27 15 -5 16 -19 9 -130 -6 -106 -4
-123 9 -123 8 0 17 9 21 19 8 25 44 71 56 71 5 0 9 -20 9 -44 0 -53 8 -76 25
-76 17 0 8 129 -10 148 -10 12 -18 11 -44 -2 l-31 -17 0 89 c0 82 -8 112 -32
112 -4 0 -12 -9 -18 -20z"/>
<path d="M9816 2408 l5 -83 -33 -20 c-18 -11 -39 -32 -48 -47 -13 -25 -13 -31
0 -55 21 -37 73 -44 90 -13 12 22 27 211 22 268 -2 24 -8 32 -22 32 -18 0 -19
-6 -14 -82z m-5 -165 c-4 -23 -12 -39 -22 -41 -27 -5 -32 29 -8 55 31 32 37
29 30 -14z"/>
<path d="M11567 2483 c-4 -3 -7 -17 -7 -29 0 -13 -20 -69 -45 -125 -25 -56
-48 -119 -51 -141 -6 -33 -4 -38 12 -38 11 0 28 14 39 31 11 17 29 35 39 41
16 9 18 8 12 -8 -17 -42 -19 -84 -4 -84 14 0 38 70 38 110 0 31 -28 35 -62 10
l-30 -22 7 23 c4 13 18 44 30 69 21 41 55 142 55 162 0 10 -24 11 -33 1z"/>
<path d="M10118 2448 c-41 -44 -78 -124 -78 -171 0 -65 44 -117 100 -117 29 0
50 11 50 25 0 10 -10 12 -34 8 -46 -7 -86 30 -86 79 1 65 58 160 108 179 13 5
20 13 17 19 -12 20 -47 9 -77 -22z"/>
<path d="M2001 2395 l-12 -75 -36 0 c-41 0 -41 -23 0 -28 25 -3 27 -7 27 -52
0 -27 5 -60 11 -74 14 -30 65 -57 90 -48 30 12 26 27 -8 30 -42 4 -63 34 -63
89 0 41 2 43 30 44 17 1 35 3 40 4 6 1 17 3 25 4 8 0 15 8 15 16 0 13 -9 15
-51 9 l-51 -7 8 49 c3 27 11 59 15 72 13 34 11 42 -10 42 -15 0 -20 -13 -30
-75z"/>
<path d="M3696 2458 c-17 -50 -36 -129 -36 -146 0 -18 -5 -19 -40 -15 -33 5
-40 3 -40 -11 0 -10 8 -16 23 -16 33 0 43 -11 51 -52 8 -42 24 -54 76 -59 26
-3 35 0 35 11 0 10 -12 16 -33 18 -25 3 -35 10 -43 29 -12 33 -6 40 41 48 43
7 49 15 26 34 -11 9 -19 9 -35 -1 -32 -20 -37 -2 -18 65 10 34 19 71 20 81 2
22 -21 34 -27 14z"/>
<path d="M7276 2458 c-3 -7 -9 -53 -15 -102 -11 -93 -20 -109 -58 -99 -17 4
-23 1 -23 -11 0 -20 32 -35 38 -18 2 7 7 12 12 12 11 0 2 -59 -16 -94 -18 -37
-18 -36 6 -36 16 0 23 12 36 58 14 51 21 61 51 75 30 13 34 13 29 0 -13 -32
-18 -91 -9 -96 5 -3 32 16 58 43 27 28 52 50 56 50 3 0 6 -26 5 -57 -1 -45 2
-58 15 -61 13 -2 15 9 15 67 -1 85 -13 102 -53 76 -15 -10 -35 -28 -45 -39
-22 -27 -22 -21 1 46 11 31 22 86 26 122 6 57 5 66 -9 66 -11 0 -16 -10 -17
-32 -1 -36 -1 -35 -13 -96 -7 -36 -11 -42 -27 -37 -12 4 -21 1 -25 -9 -3 -9
-13 -16 -21 -16 -10 0 -13 6 -9 17 14 35 19 170 7 177 -6 4 -13 1 -15 -6z"/>
<path d="M12036 2452 c-2 -4 -10 -44 -16 -90 -10 -68 -15 -82 -30 -82 -34 0
-51 -12 -70 -51 -24 -45 -26 -87 -5 -95 18 -7 82 41 100 76 8 15 19 58 25 96
6 38 15 83 19 99 4 17 6 36 3 43 -4 13 -18 16 -26 4z m-46 -215 c0 -7 -13 -26
-30 -42 -35 -33 -39 -24 -10 23 20 33 40 42 40 19z"/>
<path d="M4821 2341 c-17 -16 -31 -36 -31 -45 0 -9 -4 -16 -9 -16 -5 0 -9 -12
-9 -27 1 -90 32 -103 41 -17 8 74 37 108 84 99 25 -4 33 -2 33 8 0 37 -69 35
-109 -2z"/>
<path d="M7055 2360 c-9 -15 3 -30 25 -30 23 0 34 26 14 34 -22 8 -32 7 -39
-4z"/>
<path d="M8561 2351 c-11 -11 -24 -45 -30 -78 -6 -32 -16 -74 -21 -93 -5 -20
-6 -38 -1 -43 16 -16 43 41 51 109 11 84 24 99 55 60 29 -36 52 -27 28 12 -18
29 -42 52 -55 52 -4 0 -17 -9 -27 -19z"/>
<path d="M5205 2353 c-34 -26 -36 -40 -16 -99 12 -32 18 -60 15 -63 -8 -8 -59
27 -56 39 4 16 -18 12 -25 -6 -9 -25 36 -65 71 -62 41 4 54 29 37 70 -8 18
-14 47 -15 63 -1 27 2 30 27 27 23 -2 28 1 25 15 -3 19 -45 29 -63 16z"/>
<path d="M8953 2334 c-52 -30 -55 -55 -13 -91 17 -13 30 -31 30 -39 0 -19 -46
-18 -54 2 -8 20 -26 8 -26 -17 0 -36 81 -48 102 -15 16 24 7 59 -22 86 -34 31
-30 39 33 65 20 8 37 20 37 25 0 18 -44 10 -87 -16z"/>
<path d="M2667 2329 c-23 -14 -47 -62 -47 -96 0 -36 33 -89 60 -98 29 -9 85 2
100 20 7 8 9 23 5 32 -6 17 -7 17 -19 1 -20 -27 -64 -33 -86 -13 -26 23 -25
29 5 43 35 16 60 68 46 98 -11 25 -35 30 -64 13z m23 -64 c-13 -15 -40 -21
-40 -8 0 4 10 18 23 31 18 20 23 21 25 7 2 -9 -2 -22 -8 -30z"/>
<path d="M4077 2329 c-45 -26 -64 -123 -31 -160 15 -17 26 -20 64 -14 60 8
100 24 100 41 0 16 -21 19 -35 5 -6 -5 -32 -11 -60 -13 -45 -3 -50 -1 -53 20
-3 18 1 22 26 22 34 0 62 27 62 61 0 43 -34 61 -73 38z m40 -53 c-4 -9 -16
-16 -27 -16 -24 0 -25 8 -3 32 19 21 40 9 30 -16z"/>
<path d="M4969 2300 c-44 -47 -47 -76 -9 -114 23 -23 110 -29 117 -8 3 8 -7
12 -34 12 -22 0 -47 6 -58 13 -17 13 -17 15 3 35 12 12 22 20 22 17 0 -3 9 -1
21 5 15 9 19 19 17 43 -5 48 -32 47 -79 -3z m51 -4 c0 -2 -8 -10 -17 -17 -16
-13 -17 -12 -4 4 13 16 21 21 21 13z"/>
<path d="M8728 2319 c-10 -5 -31 -29 -47 -52 -68 -99 12 -209 96 -131 l28 25
-30 -6 c-16 -3 -40 -9 -52 -12 -18 -4 -25 0 -32 18 -12 33 -4 46 34 59 35 11
45 26 45 65 0 30 -20 46 -42 34z m7 -58 c-3 -6 -11 -11 -17 -11 -6 0 -6 6 2
15 14 17 26 13 15 -4z"/>
<path d="M9332 2314 c-57 -39 -66 -128 -16 -161 22 -14 31 -14 80 -3 56 14 84
33 65 45 -6 3 -19 2 -28 -3 -10 -5 -35 -12 -55 -16 -31 -6 -39 -3 -52 16 -16
22 -15 23 16 34 41 14 72 54 63 83 -8 25 -41 28 -73 5z m33 -33 c-3 -6 -15
-16 -26 -22 -18 -9 -19 -9 -10 9 10 19 32 33 40 26 1 -1 0 -7 -4 -13z"/>
<path d="M5401 2285 c-21 -19 -46 -35 -56 -35 -13 0 -16 -6 -11 -24 3 -14 -1
-55 -9 -92 -18 -74 -17 -145 2 -151 7 -3 16 13 23 39 6 24 13 51 16 60 3 9 15
20 27 24 33 10 58 35 78 79 22 48 24 101 5 121 -21 21 -32 18 -75 -21z m44
-81 c-15 -39 -41 -72 -49 -63 -2 2 -6 21 -10 42 -6 35 -4 41 31 75 37 36 38
37 41 13 2 -13 -4 -43 -13 -67z m-65 -25 c0 -5 -4 -9 -10 -9 -5 0 -10 7 -10
16 0 8 5 12 10 9 6 -3 10 -10 10 -16z"/>
<path d="M6002 2304 c-29 -20 -28 -30 8 -83 22 -32 27 -47 19 -52 -16 -10 -39
0 -39 17 0 20 -18 17 -30 -5 -19 -36 46 -65 92 -40 26 14 19 56 -19 106 l-28
36 38 -6 c31 -5 37 -3 37 12 0 11 -10 21 -22 25 -31 8 -31 8 -56 -10z"/>
<path d="M6221 2304 c-59 -42 -74 -130 -25 -153 33 -14 134 -3 141 16 8 21 3
22 -61 12 -70 -11 -97 2 -42 21 39 13 56 35 56 72 0 25 -17 48 -35 48 -6 0
-21 -7 -34 -16z m39 -39 c0 -16 -47 -51 -57 -42 -9 10 26 57 42 57 8 0 15 -7
15 -15z"/>
<path d="M6739 2300 c-40 -21 -65 -47 -55 -57 3 -4 24 4 46 16 22 12 40 20 40
17 0 -3 -12 -28 -27 -55 -22 -38 -25 -53 -16 -62 9 -9 22 -5 59 15 25 14 48
26 49 26 2 0 9 -16 15 -35 6 -19 21 -40 33 -46 18 -10 24 -8 44 15 19 22 23
39 23 87 0 79 -23 76 -30 -4 -3 -30 -9 -59 -13 -64 -12 -12 -37 26 -37 57 0
40 -9 42 -58 14 -24 -15 -43 -22 -40 -18 2 5 12 25 22 46 19 37 16 68 -6 68
-7 -1 -29 -9 -49 -20z"/>
<path d="M10975 2300 c-15 -17 -20 -18 -29 -5 -9 12 -17 12 -48 2 -31 -10 -41
-20 -58 -59 -24 -55 -25 -68 -6 -68 7 0 19 13 26 29 6 16 20 37 31 47 18 16
19 16 19 -9 0 -35 11 -34 50 6 l32 32 -7 -43 c-5 -28 -3 -48 5 -57 22 -26 28
-16 26 39 -2 30 1 60 5 67 9 16 0 39 -16 39 -6 0 -20 -9 -30 -20z"/>
<path d="M5798 2281 c-18 -16 -37 -29 -43 -29 -10 -1 -22 -33 -24 -65 -2 -29
20 -15 54 33 37 53 47 57 62 25 9 -20 8 -25 -3 -25 -16 0 -19 -37 -5 -59 11
-17 34 -4 27 16 -3 8 -1 34 5 59 9 34 9 48 -1 59 -18 22 -35 19 -72 -14z"/>
<path d="M9527 2288 c-17 -70 -19 -118 -5 -118 7 0 21 12 30 28 9 15 28 38 42
51 l26 24 0 -30 c0 -41 9 -63 26 -63 10 0 12 13 8 53 -3 28 -7 58 -10 65 -7
23 -42 12 -68 -20 l-25 -33 2 29 c2 35 -18 46 -26 14z"/>
<path d="M11139 2288 c-47 -42 -51 -53 -36 -90 27 -63 77 -86 93 -43 9 22 -2
30 -20 16 -11 -10 -17 -7 -30 11 -20 28 -20 38 -2 38 25 0 67 41 64 64 -4 29
-38 31 -69 4z"/>
<path d="M5591 2271 c-29 -41 -27 -85 5 -110 25 -20 28 -20 54 -4 56 33 67
103 20 128 -41 21 -56 19 -79 -14z m77 -37 c4 -25 -32 -59 -53 -51 -17 7 -20
48 -5 63 18 18 55 9 58 -12z"/>
<path d="M11708 2273 c-36 -40 -51 -71 -44 -98 12 -48 84 -37 112 17 13 24 12
32 -3 68 -10 22 -23 40 -28 40 -6 0 -23 -12 -37 -27z m42 -55 c0 -21 -41 -51
-53 -39 -6 6 -1 24 13 46 23 37 39 34 40 -7z"/>
<path d="M2151 2238 c2 -63 13 -88 38 -88 24 0 58 29 66 58 9 29 -42 82 -80
82 -25 0 -26 -2 -24 -52z m67 -26 c-4 -34 -30 -35 -38 -2 -10 38 -2 52 22 39
13 -7 18 -19 16 -37z"/>
<path d="M2814 2228 c-11 -85 -11 -83 5 -83 7 0 22 24 33 53 21 58 34 59 44 6
3 -19 15 -39 26 -45 19 -10 19 -8 13 23 -8 39 -34 96 -47 104 -5 3 -15 0 -23
-6 -11 -9 -15 -9 -15 -1 0 6 -6 11 -14 11 -9 0 -16 -20 -22 -62z"/>
<path d="M7988 2250 c-43 -46 -47 -64 -19 -80 27 -14 51 -13 84 4 15 8 27 11
27 6 0 -16 40 -31 61 -25 22 7 21 30 -2 30 -29 1 -39 14 -28 39 9 19 7 28 -7
45 -30 34 -71 28 -116 -19z m89 -7 c5 -13 -52 -53 -74 -53 -20 0 -16 14 12 44
25 28 55 32 62 9z"/>
<path d="M7032 2198 c2 -24 8 -43 13 -43 6 0 11 19 13 43 3 33 0 42 -13 42
-13 0 -16 -9 -13 -42z"/>
<path d="M9095 2181 c-9 -16 3 -31 26 -31 14 0 19 6 17 17 -4 20 -33 29 -43
14z"/>
<path d="M12122 2158 c5 -15 28 -18 29 -3 0 6 -7 12 -17 13 -10 3 -15 -1 -12
-10z"/>
<path d="M2245 1736 c-45 -20 -85 -71 -85 -110 0 -40 45 -106 118 -171 57 -51
92 -108 92 -151 0 -16 -13 -39 -34 -60 -52 -52 -104 -45 -168 22 -27 27 -35
41 -27 50 17 21 -9 27 -37 9 -27 -17 -26 -20 20 -78 38 -48 85 -77 125 -77 74
0 151 71 151 139 0 49 -25 88 -116 183 -89 93 -106 126 -83 166 15 26 85 69
96 58 3 -3 9 -23 12 -43 5 -29 11 -39 28 -41 41 -6 41 74 0 103 -26 18 -52 18
-92 1z"/>
<path d="M13267 1619 c-42 -53 -52 -79 -28 -79 8 0 111 125 111 135 0 3 -8 5
-17 4 -10 0 -40 -27 -66 -60z"/>
<path d="M9465 1660 c-3 -5 -4 -13 -2 -17 3 -5 -3 -39 -13 -78 -15 -62 -21
-71 -47 -80 -39 -13 -40 -30 -3 -30 l30 0 -5 -70 c-6 -73 3 -126 20 -122 6 1
9 18 8 37 -2 19 0 63 3 98 l6 62 50 0 c62 0 62 23 0 28 -49 4 -50 8 -26 93 16
57 14 89 -5 89 -5 0 -13 -4 -16 -10z"/>
<path d="M11367 1623 c12 -71 6 -189 -12 -244 -25 -73 -105 -132 -105 -76 0
37 27 67 61 67 20 0 29 4 27 13 -3 7 -21 12 -43 12 -36 0 -41 -3 -63 -47 -28
-54 -23 -85 16 -95 67 -16 133 64 153 187 16 97 0 230 -28 230 -12 0 -13 -9
-6 -47z"/>
<path d="M14390 1660 c-8 -5 -15 -17 -15 -27 0 -10 -9 -39 -19 -65 -17 -43
-22 -47 -55 -50 -42 -4 -48 -22 -9 -26 27 -3 27 -4 14 -30 -22 -43 -38 -113
-31 -139 6 -27 85 -69 111 -59 21 8 5 36 -22 36 -13 0 -33 9 -44 20 -23 23
-21 46 16 128 22 49 26 53 51 48 91 -17 115 -18 111 -5 -5 15 -32 25 -90 34
l-38 6 25 49 c26 51 31 75 17 84 -4 2 -14 1 -22 -4z"/>
<path d="M5117 1634 c-8 -16 -27 -71 -43 -122 l-28 -92 -33 6 c-44 8 -47 -21
-3 -31 29 -6 30 -9 30 -62 0 -47 4 -59 29 -83 34 -35 75 -47 96 -30 22 18 18
33 -7 27 -25 -7 -73 16 -82 38 -3 9 -6 34 -6 55 0 28 5 40 18 43 9 3 38 10 65
17 46 12 65 25 53 37 -3 4 -31 0 -61 -7 -30 -7 -58 -11 -61 -7 -3 3 10 54 31
113 23 69 33 110 26 117 -6 6 -14 -1 -24 -19z"/>
<path d="M5822 1641 c-9 -5 -72 -196 -72 -218 0 -1 -18 -3 -40 -5 -50 -4 -53
-22 -5 -26 l35 -3 -6 -67 c-7 -88 14 -133 69 -146 33 -8 41 -7 59 12 27 26 17
40 -17 22 -20 -11 -28 -10 -48 3 -30 19 -40 67 -31 137 l7 51 46 -3 c34 -2 46
1 46 11 0 8 -14 15 -34 17 -19 3 -37 6 -39 9 -6 6 39 167 51 183 13 16 -3 34
-21 23z"/>
<path d="M8303 1579 c4 -13 4 -55 0 -94 l-5 -70 -42 0 c-31 0 -41 -4 -44 -18
-3 -14 1 -17 21 -11 51 12 62 0 65 -73 4 -71 7 -83 23 -83 5 0 9 34 9 75 l0
75 35 0 c19 0 38 1 43 3 4 1 9 -23 12 -53 4 -40 9 -56 21 -58 12 -2 18 7 23
32 8 41 38 82 54 72 6 -4 10 -29 8 -61 -3 -50 4 -65 30 -65 12 0 2 100 -14
129 -22 46 -36 48 -68 14 l-27 -28 6 113 c5 90 4 112 -7 112 -14 0 -26 -61
-26 -130 0 -32 -4 -39 -26 -44 -14 -4 -34 -4 -45 -1 -18 6 -19 15 -17 93 3 78
1 87 -16 90 -15 3 -18 0 -13 -19z"/>
<path d="M12868 1583 c-1 -4 -2 -49 -2 -99 -1 -83 -4 -97 -36 -160 -35 -69
-54 -83 -73 -53 -16 25 1 69 33 87 31 17 38 36 20 47 -6 4 -29 -11 -50 -33
-45 -44 -53 -89 -24 -130 38 -55 115 13 150 133 18 64 16 206 -3 213 -7 2 -14
0 -15 -5z"/>
<path d="M9807 1573 c-4 -3 -7 -23 -7 -43 0 -21 -3 -52 -6 -69 -5 -26 -11 -31
-34 -31 -29 0 -58 -24 -41 -34 5 -3 21 -2 36 4 l27 10 -8 -62 c-10 -81 -9
-105 6 -123 18 -22 30 -9 23 25 -3 16 -2 54 1 84 l7 55 42 3 c29 2 42 8 42 18
0 11 -9 14 -37 12 l-36 -3 5 80 c5 75 0 95 -20 74z"/>
<path d="M7628 1528 c-8 -51 4 -288 14 -294 18 -11 20 6 18 108 -2 57 -3 127
-4 157 -1 61 -21 81 -28 29z"/>
<path d="M7709 1516 c-2 -2 -2 -27 -1 -55 3 -36 8 -51 18 -51 12 0 14 12 12
52 -3 45 -15 68 -29 54z"/>
<path d="M11733 1458 c-30 -14 -29 -39 3 -93 27 -47 26 -78 -3 -89 -18 -7 -33
9 -33 39 0 18 -1 18 -17 2 -16 -16 -16 -20 -3 -45 22 -38 61 -41 89 -6 27 35
26 60 -4 109 -32 53 -31 58 10 51 28 -6 35 -4 35 9 0 12 -41 39 -53 34 -1 0
-12 -5 -24 -11z"/>
<path d="M4311 1426 c-32 -33 -35 -56 -5 -56 8 0 14 6 14 13 0 8 9 22 20 32
25 23 25 19 -5 -61 -41 -108 -29 -122 44 -51 25 24 41 34 37 23 -11 -33 12
-95 38 -102 36 -9 60 9 73 58 12 39 11 123 -1 135 -15 16 -26 -16 -24 -73 1
-49 -2 -69 -15 -81 -23 -24 -38 -6 -42 48 -2 24 -4 47 -4 52 -2 14 -35 7 -57
-14 l-22 -21 15 51 c8 29 12 58 9 66 -9 25 -40 17 -75 -19z"/>
<path d="M9223 1450 c-12 -5 -27 -18 -33 -30 -10 -18 -7 -28 16 -61 15 -22 25
-42 22 -44 -10 -10 -36 7 -46 31 -13 27 -30 31 -38 10 -3 -8 7 -28 22 -45 20
-23 36 -31 61 -31 30 0 33 3 33 29 0 15 -9 40 -20 54 -11 14 -20 30 -20 36 0
15 36 32 53 25 20 -7 33 16 16 27 -17 11 -37 10 -66 -1z"/>
<path d="M10027 1438 c-57 -94 -80 -127 -102 -148 -14 -13 -25 -29 -25 -37 0
-25 28 -13 59 25 29 35 31 36 37 15 11 -38 49 -34 85 8 l27 30 6 -25 c11 -46
33 -31 32 22 -1 26 3 57 7 70 7 18 5 22 -10 22 -11 0 -33 -23 -57 -60 -21 -33
-42 -60 -47 -60 -14 0 -11 43 6 90 8 23 15 49 15 56 0 21 -18 17 -33 -8z"/>
<path d="M10267 1432 c-23 -25 -21 -44 5 -77 17 -21 19 -33 12 -53 -13 -38
-34 -40 -34 -3 0 36 -25 43 -32 9 -7 -38 2 -58 29 -65 21 -5 31 0 50 21 29 34
29 75 2 110 -25 32 -20 40 24 40 22 1 33 6 35 19 5 25 -68 24 -91 -1z"/>
<path d="M10909 1421 c-32 -33 -38 -74 -14 -108 17 -24 72 -47 80 -32 8 12 -3
29 -20 29 -20 0 -45 28 -45 51 0 32 38 62 70 56 33 -7 44 1 29 20 -20 23 -68
15 -100 -16z"/>
<path d="M13855 1416 c-29 -69 -12 -113 39 -100 31 7 30 11 10 -77 l-16 -69
-42 0 c-91 0 -136 -39 -136 -118 0 -86 34 -118 90 -85 35 20 74 73 91 121 6
17 18 32 26 32 11 0 14 7 9 25 -3 13 6 74 20 136 26 111 26 111 7 138 -13 16
-31 27 -52 29 -28 3 -33 -1 -46 -32z m72 -11 c6 -18 -23 -55 -44 -55 -16 0
-16 10 -3 44 11 29 37 35 47 11z m-69 -315 c-11 -28 -37 -64 -56 -81 -33 -30
-36 -30 -49 -13 -18 24 -17 84 2 111 16 22 36 29 92 32 l32 1 -21 -50z"/>
<path d="M3397 1433 c-4 -3 -7 -18 -7 -32 0 -14 -12 -51 -26 -81 l-25 -55 -35
60 c-18 33 -34 63 -34 68 0 4 -7 7 -15 7 -8 0 -15 -5 -15 -10 0 -14 37 -88 62
-123 l20 -28 -46 -92 c-27 -54 -48 -108 -49 -131 -3 -55 19 -58 28 -4 4 24 41
107 81 184 78 151 100 216 79 234 -6 5 -15 7 -18 3z"/>
<path d="M6497 1422 c-22 -24 -21 -48 1 -80 18 -26 42 -85 42 -103 0 -15 -27
-10 -50 9 -13 10 -24 30 -25 43 -2 32 -29 31 -33 -2 -4 -38 58 -91 101 -87 30
3 32 5 31 44 0 24 -12 63 -28 93 -31 61 -27 75 20 66 26 -4 34 -2 34 8 0 31
-68 37 -93 9z"/>
<path d="M12995 1431 c-29 -12 -71 -57 -85 -92 -17 -41 0 -76 46 -95 53 -22
156 -2 129 25 -7 7 -22 7 -47 1 -49 -14 -107 9 -108 41 0 4 25 17 55 29 58 23
73 46 55 80 -12 22 -15 23 -45 11z m25 -36 c0 -2 -15 -12 -32 -21 l-33 -17 19
22 c17 19 46 29 46 16z"/>
<path d="M13213 1430 c-32 -13 -29 -49 7 -95 35 -44 34 -59 -3 -63 -21 -3 -29
2 -37 23 -11 29 -30 25 -30 -6 0 -32 36 -60 68 -53 34 8 62 32 62 54 0 9 -14
35 -32 59 -25 35 -29 45 -17 52 8 5 26 7 41 5 30 -6 48 11 27 25 -18 11 -57
10 -86 -1z"/>
<path d="M8650 1398 c-36 -38 -45 -66 -36 -110 13 -66 63 -86 120 -49 16 11
30 29 31 40 2 27 -1 26 -37 -4 -32 -27 -66 -33 -73 -12 -13 39 -9 50 23 61 33
12 52 30 52 54 0 19 -28 14 -40 -8 -11 -21 -30 -27 -30 -10 0 6 13 19 30 28
16 9 28 22 27 27 -8 22 -39 15 -67 -17z"/>
<path d="M11436 1409 c-31 -25 -34 -61 -7 -105 37 -60 146 -87 146 -35 0 29
-17 37 -37 18 -16 -17 -45 -8 -72 21 -18 21 -18 21 10 27 72 15 100 47 69 79
-23 22 -77 20 -109 -5z m89 -19 c4 -6 -7 -13 -24 -16 -17 -4 -28 -11 -25 -16
4 -6 -4 -4 -17 2 -22 12 -22 13 -4 26 22 16 61 18 70 4z"/>
<path d="M4832 1395 c-19 -15 -33 -21 -37 -15 -13 22 -23 8 -36 -52 -16 -78
-16 -81 -4 -85 6 -2 21 18 35 43 33 63 58 94 76 94 13 0 15 -12 12 -62 -2 -51
0 -63 13 -66 14 -2 17 8 18 63 2 104 -21 127 -77 80z"/>
<path d="M11089 1381 c-28 -28 -39 -47 -39 -69 0 -58 52 -79 110 -45 52 30 69
96 35 133 -28 31 -63 25 -106 -19z m79 -3 c20 -20 13 -55 -15 -78 -60 -47 -97
2 -44 58 32 35 41 38 59 20z"/>
<path d="M12425 1408 c-2 -7 -16 -45 -30 -84 -29 -83 -29 -84 -12 -84 7 0 24
19 37 43 28 52 59 87 77 87 17 0 16 -28 -2 -60 -18 -31 -19 -60 -2 -60 19 0
49 73 45 110 -4 46 -29 60 -67 37 -28 -17 -29 -16 -24 3 6 22 -15 29 -22 8z"/>
<path d="M14080 1405 c-14 -7 -33 -26 -42 -42 -22 -38 -6 -76 36 -81 55 -7 83
50 54 113 -13 29 -14 29 -48 10z m28 -66 c-2 -16 -11 -25 -25 -27 -28 -4 -31
22 -6 50 20 22 36 10 31 -23z"/>
<path d="M3480 1396 c0 -9 -4 -16 -9 -16 -13 0 -41 -64 -41 -92 0 -30 18 -54
48 -63 18 -5 31 2 62 33 65 64 52 130 -27 147 -26 5 -33 3 -33 -9z m70 -68 c0
-26 -8 -38 -32 -55 -40 -28 -63 -15 -54 30 8 42 24 57 57 57 26 0 29 -3 29
-32z"/>
<path d="M6646 1379 c-38 -45 -37 -110 3 -150 31 -30 59 -36 92 -18 27 14 13
31 -21 24 -21 -5 -33 -1 -49 16 -31 34 -27 56 9 56 33 0 59 25 60 59 0 51 -56
59 -94 13z m60 -28 c-9 -13 -46 -15 -46 -1 0 14 34 30 44 20 4 -4 5 -13 2 -19z"/>
<path d="M6821 1384 c-24 -31 -27 -81 -6 -111 19 -28 101 -65 134 -61 31 4 36
33 6 33 -39 1 -83 16 -101 36 -17 18 -16 19 14 19 72 0 77 101 6 108 -25 2
-37 -3 -53 -24z m69 -29 c0 -21 -5 -25 -30 -25 -33 0 -35 3 -20 31 16 29 50
25 50 -6z"/>
<path d="M7415 1383 c-29 -32 -34 -83 -10 -107 22 -22 52 -29 74 -17 14 8 20
7 25 -4 3 -8 11 -15 19 -15 12 0 14 35 8 125 -1 13 -54 45 -75 45 -8 0 -27
-12 -41 -27z m63 -15 c18 -18 15 -66 -6 -77 -42 -22 -70 33 -35 71 19 21 25
22 41 6z"/>
<path d="M9569 1378 c-33 -34 -35 -64 -6 -82 13 -8 24 -7 47 6 29 16 29 16 32
-10 2 -17 10 -28 22 -30 14 -3 17 0 12 13 -3 9 -6 38 -6 63 0 41 -4 49 -27 60
-38 17 -41 16 -74 -20z m56 -18 c7 -11 -43 -46 -52 -36 -7 7 25 46 38 46 4 0
10 -4 14 -10z"/>
<path d="M2756 1353 c-40 -112 -49 -116 -59 -32 -7 56 -21 80 -36 64 -13 -13
12 -131 33 -154 14 -16 13 -24 -14 -105 -34 -98 -37 -126 -15 -126 8 0 15 7
15 16 0 9 27 97 60 196 33 98 60 181 60 184 0 2 -6 4 -14 4 -7 0 -21 -21 -30
-47z"/>
<path d="M4616 1363 c-38 -57 -42 -87 -16 -113 21 -21 47 -22 43 -2 -2 7 8 7
29 1 17 -5 33 -8 34 -6 1 1 5 34 9 73 7 69 7 71 -16 77 -45 12 -59 7 -83 -30z
m61 -1 c19 -12 -3 -79 -28 -87 -34 -11 -40 7 -18 53 22 44 26 47 46 34z"/>
<path d="M7706 1354 c-13 -97 -6 -164 18 -164 7 0 12 34 13 105 1 80 -2 105
-11 105 -8 0 -16 -19 -20 -46z"/>
<path d="M12620 1354 c-23 -53 -24 -67 -10 -95 24 -44 94 -5 94 53 0 40 -27
88 -49 88 -8 0 -23 -21 -35 -46z m53 -23 c6 -24 -21 -67 -34 -54 -10 10 8 73
21 73 4 0 10 -9 13 -19z"/>
<path d="M5967 1383 c-4 -3 -7 -15 -7 -25 0 -15 5 -18 20 -13 18 6 20 2 20
-39 0 -38 -3 -46 -19 -46 -27 0 -42 23 -39 58 4 38 -14 45 -26 10 -13 -38 0
-76 35 -93 40 -21 66 -11 78 29 19 69 -26 155 -62 119z"/>
<path d="M2481 1354 c-52 -66 1 -144 66 -99 19 14 22 13 37 -10 9 -14 23 -25
31 -25 14 0 14 4 2 28 -8 15 -17 44 -20 65 -8 51 -23 67 -62 67 -24 0 -39 -7
-54 -26z m69 -28 c0 -25 -23 -56 -41 -56 -16 0 -22 30 -11 56 16 33 52 33 52
0z"/>
<path d="M3675 1326 c-13 -30 -38 -65 -55 -77 -51 -38 -32 -68 20 -32 14 10
34 16 46 15 19 -3 94 61 94 80 0 4 3 8 8 8 4 0 6 -19 4 -42 -4 -58 14 -83 51
-69 27 11 35 25 18 36 -5 3 -12 1 -16 -5 -14 -23 -25 5 -25 66 0 56 -2 64 -19
64 -11 0 -28 -14 -40 -33 -25 -40 -71 -85 -71 -68 0 6 9 30 20 52 20 38 20 59
-1 59 -6 0 -21 -24 -34 -54z"/>
<path d="M11903 1245 c1 -21 -7 -42 -19 -56 -24 -27 -72 -52 -84 -44 -18 11
-32 -5 -19 -21 17 -21 40 -17 87 13 47 31 77 83 68 119 -10 38 -34 30 -33 -11z"/>
<path d="M4960 1178 c-1 -1 -2 -46 -4 -99 -2 -53 -6 -101 -10 -107 -4 -7 -25
-10 -49 -8 -36 3 -46 -1 -74 -29 -35 -35 -40 -54 -22 -86 25 -47 111 -42 141
9 40 67 63 309 31 320 -7 2 -13 2 -13 0z m-44 -252 c18 -14 18 -17 4 -43 -24
-44 -99 -44 -100 0 0 13 48 57 63 57 7 0 22 -6 33 -14z"/>
<path d="M6981 1098 c-16 -82 -31 -129 -47 -145 -15 -15 -28 -17 -19 -3 3 6
-3 10 -14 10 -33 0 -35 -20 -2 -26 37 -8 37 -9 11 -76 -11 -28 -18 -54 -15
-56 14 -14 36 15 55 72 19 58 25 66 46 66 14 0 35 5 46 11 19 10 20 9 13 -7
-25 -63 -46 -136 -41 -142 11 -10 41 14 40 31 -1 9 2 15 6 14 4 -1 19 13 34
31 15 17 32 32 37 32 5 0 8 -20 6 -45 -3 -58 15 -59 27 -1 14 68 -21 99 -67
59 -20 -17 -20 -17 -13 2 19 52 45 134 50 156 3 13 8 35 12 48 6 19 4 22 -12
19 -10 -2 -20 -12 -22 -23 -2 -11 -12 -49 -22 -85 l-19 -65 -44 -2 -44 -2 18
72 c10 40 21 82 25 95 5 18 2 22 -14 22 -16 0 -21 -11 -31 -62z"/>
<path d="M9878 1155 c-15 -15 -142 -44 -153 -35 -16 14 -31 -5 -40 -50 -3 -19
-20 -73 -36 -119 -32 -93 -37 -141 -15 -141 8 0 17 4 20 9 3 5 44 12 91 16 65
5 85 10 85 21 0 9 5 12 13 8 8 -5 9 -4 2 3 -6 7 -30 8 -65 3 -30 -5 -71 -9
-92 -9 l-36 -1 16 49 15 49 84 18 c54 11 83 22 83 31 0 16 -20 16 -93 -1 l-58
-14 7 32 c3 17 10 35 15 41 6 5 51 23 100 40 50 16 91 35 91 40 -1 11 -25 19
-34 10z"/>
<path d="M12351 1091 c-57 -96 -63 -101 -127 -101 -41 0 -54 -4 -54 -15 0 -11
12 -15 50 -15 l51 0 -16 -31 c-22 -42 -29 -119 -13 -149 18 -34 58 -55 91 -46
39 9 33 26 -9 26 -31 0 -37 4 -50 36 -13 30 -13 45 -4 83 15 62 30 79 71 83
38 3 46 21 12 26 -13 2 -23 5 -23 8 0 2 20 35 45 74 48 75 53 90 31 90 -7 0
-32 -31 -55 -69z"/>
<path d="M6024 1113 c-14 -21 -55 -87 -90 -148 -36 -60 -74 -122 -84 -137 -24
-32 -25 -48 -6 -48 8 0 31 27 52 60 31 50 41 60 65 60 15 0 34 3 42 6 12 4 13
-3 5 -47 -7 -36 -6 -60 1 -76 17 -36 27 -20 29 43 2 77 8 92 40 96 33 4 36 22
5 26 -27 4 -27 8 -8 87 8 33 15 72 15 88 0 41 -34 36 -66 -10z m24 -55 c-22
-104 -28 -118 -53 -124 -43 -11 -45 0 -8 61 75 126 76 126 61 63z"/>
<path d="M8449 1143 c-1 -5 0 -19 0 -33 3 -44 -19 -163 -38 -206 -22 -50 -78
-94 -92 -73 -28 44 6 102 57 97 21 -2 29 1 29 12 0 10 -12 16 -36 18 -73 6
-118 -90 -70 -149 17 -21 21 -22 50 -10 75 32 117 120 128 269 5 72 4 82 -11
82 -9 0 -16 -3 -17 -7z"/>
<path d="M9447 1131 c-21 -10 -46 -17 -57 -14 -16 4 -20 0 -20 -18 0 -13 -23
-68 -51 -124 -51 -101 -67 -173 -42 -182 12 -4 31 32 64 115 8 22 10 22 39 7
37 -19 56 -48 65 -97 5 -24 13 -38 22 -38 22 0 9 76 -18 113 -11 16 -19 29
-17 30 50 26 67 40 95 81 38 55 42 97 13 126 -25 25 -46 25 -93 1z m73 -26
c18 -22 5 -60 -36 -105 -35 -38 -89 -60 -113 -46 -12 8 21 90 47 120 15 16 66
45 83 46 4 0 12 -7 19 -15z"/>
<path d="M10074 1142 c-6 -4 -17 -32 -24 -62 -7 -30 -18 -62 -25 -70 -7 -8
-12 -23 -12 -32 0 -10 -8 -42 -18 -71 -18 -53 -16 -87 5 -87 5 0 10 7 10 17 0
9 8 40 18 70 16 51 18 53 48 47 63 -12 164 68 164 129 0 40 -42 67 -104 67
-28 0 -56 -4 -62 -8z m128 -40 c32 -32 -77 -137 -121 -116 -17 8 -17 13 -4 73
l15 63 50 -4 c27 -3 54 -10 60 -16z"/>
<path d="M10374 1082 c-7 -40 -29 -109 -56 -167 -25 -55 -43 -104 -40 -109 5
-9 117 0 172 14 45 12 75 34 66 48 -5 9 -15 8 -36 -3 -27 -14 -150 -37 -158
-30 -2 2 11 36 29 77 54 122 76 238 46 238 -8 0 -17 -25 -23 -68z"/>
<path d="M6267 1133 c-2 -5 -5 -22 -5 -38 -1 -50 -35 -129 -57 -133 -33 -6
-42 -22 -17 -29 17 -4 21 -10 16 -22 -4 -9 -9 -40 -12 -70 -4 -43 -2 -53 9
-49 8 2 15 18 17 34 2 16 8 46 13 67 10 36 10 37 59 37 38 0 50 4 50 15 0 9
-9 15 -22 16 -21 0 -21 1 -4 8 13 5 16 10 9 14 -6 4 -18 0 -26 -8 -21 -21 -41
-19 -32 3 17 43 36 135 31 148 -6 15 -22 19 -29 7z"/>
<path d="M11674 1007 c-27 -54 -35 -62 -62 -65 -39 -4 -45 -32 -7 -32 22 0 24
-2 15 -26 -32 -84 19 -137 114 -117 67 14 57 33 -18 33 -77 0 -85 9 -67 70 11
38 13 39 64 42 40 2 53 7 55 20 3 16 -2 17 -42 12 -25 -4 -46 -4 -46 -1 0 3
11 25 25 48 14 24 25 52 25 62 0 35 -26 14 -56 -46z"/>
<path d="M11106 1034 c-10 -26 -7 -34 12 -34 25 0 31 7 25 31 -6 23 -28 25
-37 3z"/>
<path d="M2273 998 c-4 -7 -20 -37 -34 -68 l-26 -55 -21 41 c-18 35 -38 54
-58 54 -10 0 -2 -22 21 -56 44 -64 43 -75 -19 -193 -59 -114 -64 -131 -42
-131 7 0 37 48 65 108 29 59 58 114 66 122 7 8 16 26 20 40 4 14 18 47 31 74
13 28 24 56 24 63 0 16 -16 17 -27 1z"/>
<path d="M3565 984 c-71 -63 -81 -109 -36 -155 30 -29 72 -38 99 -20 20 12 42
60 32 66 -14 9 -50 -14 -50 -30 0 -8 -9 -15 -20 -15 -24 0 -60 34 -60 56 0 27
74 94 105 94 36 0 27 24 -11 27 -20 2 -39 -6 -59 -23z"/>
<path d="M4089 990 c-61 -18 -69 -27 -67 -80 4 -81 -24 -79 -37 2 -7 39 -18
53 -34 44 -12 -8 12 -99 34 -132 12 -19 19 -22 34 -15 26 14 45 65 37 101 -5
27 -2 32 22 41 45 18 54 24 54 34 -1 13 -12 15 -43 5z"/>
<path d="M2402 980 c-46 -19 -82 -161 -48 -189 21 -18 60 -4 105 38 53 49 57
96 10 135 -34 29 -34 29 -67 16z m56 -42 c21 -21 13 -53 -19 -86 -60 -61 -88
-30 -53 58 17 42 47 53 72 28z"/>
<path d="M4219 959 c-37 -39 -39 -86 -6 -117 28 -26 45 -27 94 -7 26 11 33 19
26 26 -8 8 -21 7 -46 -2 -29 -10 -39 -10 -51 0 -24 20 -20 28 19 41 44 15 68
46 54 72 -15 28 -57 22 -90 -13z m51 -14 c-7 -8 -17 -15 -22 -15 -6 0 -5 7 2
15 7 8 17 15 22 15 6 0 5 -7 -2 -15z"/>
<path d="M7326 979 c-16 -4 -44 -23 -62 -40 -30 -29 -33 -37 -30 -77 5 -63 24
-75 101 -67 68 7 76 11 69 29 -4 10 -17 11 -61 3 -50 -8 -58 -7 -70 9 -19 25
-12 37 27 47 37 9 90 43 90 57 0 4 -8 17 -17 28 -15 16 -24 18 -47 11z m19
-40 c-8 -12 -56 -32 -62 -25 -5 5 46 35 60 36 5 0 5 -5 2 -11z"/>
<path d="M4432 972 c-16 -11 -54 -110 -47 -123 11 -17 35 -9 35 11 0 11 7 36
15 56 12 30 17 34 41 28 22 -6 25 -4 22 12 -3 21 -44 30 -66 16z"/>
<path d="M8549 939 c-34 -37 -39 -49 -39 -89 0 -25 5 -51 12 -58 15 -15 61
-15 111 -1 33 9 37 13 31 32 -8 28 -11 30 -23 22 -6 -3 -9 -10 -6 -15 8 -12
-75 -24 -87 -12 -19 19 -5 57 24 62 42 8 70 36 66 68 -5 45 -42 41 -89 -9z
m48 -16 c-9 -9 -20 -13 -24 -9 -4 4 1 14 11 22 25 18 35 8 13 -13z"/>
<path d="M2669 928 c-11 -24 -46 -68 -76 -99 -34 -35 -51 -59 -44 -63 11 -7
57 21 80 48 10 12 17 13 31 3 16 -9 27 -6 64 20 l45 32 -5 -28 c-13 -61 41
-95 81 -51 23 26 13 37 -21 21 l-27 -12 7 71 c4 48 3 70 -5 70 -6 0 -30 -20
-55 -45 -61 -63 -82 -61 -49 5 29 57 31 70 10 70 -8 0 -24 -19 -36 -42z"/>
<path d="M4624 951 c-39 -24 -59 -76 -45 -115 10 -24 15 -26 63 -26 66 0 98 9
98 25 0 9 -17 12 -67 8 -66 -4 -67 -3 -37 11 32 14 64 51 64 73 0 12 -27 43
-38 43 -4 0 -21 -9 -38 -19z m36 -36 c0 -12 -28 -35 -44 -35 -11 0 -6 19 10
34 19 20 34 20 34 1z"/>
<path d="M7940 941 c0 -10 -11 -39 -25 -65 -14 -26 -25 -51 -25 -57 0 -24 38
-3 86 48 42 46 56 55 66 45 9 -9 7 -23 -10 -64 -13 -31 -18 -56 -13 -61 15
-15 26 -1 46 57 15 44 17 60 7 80 -15 34 -48 34 -82 1 l-27 -25 5 30 c3 23 0
30 -12 30 -9 0 -16 -8 -16 -19z"/>
<path d="M11458 931 l-32 -28 22 -44 c23 -45 16 -73 -11 -50 -12 9 -16 8 -21
-5 -11 -29 28 -43 65 -24 22 13 24 47 4 74 -23 30 -18 54 15 71 17 9 28 20 25
25 -11 17 -34 11 -67 -19z"/>
<path d="M12660 941 c-14 -11 -32 -18 -41 -16 -16 5 -39 -31 -39 -61 0 -8 -4
-13 -9 -10 -11 7 -23 -22 -15 -36 4 -6 -13 -50 -37 -99 -23 -49 -40 -92 -35
-96 14 -15 42 15 76 85 25 51 41 71 55 72 35 2 86 35 121 80 19 23 34 48 34
54 -1 41 -70 58 -110 27z m70 -29 c0 -29 -101 -114 -117 -98 -3 2 5 22 17 44
32 57 100 94 100 54z"/>
<path d="M3775 924 c-28 -30 -34 -84 -11 -103 24 -20 77 -9 99 21 20 26 20 27
0 65 -25 48 -54 54 -88 17z m65 -54 c0 -19 -32 -36 -50 -25 -14 8 -13 38 2 53
15 15 48 -3 48 -28z"/>
<path d="M12870 943 c-8 -3 -32 -19 -52 -35 -59 -46 -70 -123 -21 -155 22 -15
28 -14 93 12 39 16 70 32 70 37 0 19 -30 18 -70 -2 -54 -28 -84 -24 -88 13 -3
25 -1 27 31 27 22 0 49 11 75 30 46 33 46 33 32 61 -10 18 -39 23 -70 12z m40
-32 c0 -8 -60 -41 -75 -41 -13 0 19 32 40 40 27 12 35 12 35 1z"/>
<path d="M12504 928 c-6 -7 -19 -30 -29 -50 -11 -21 -22 -38 -26 -38 -3 0 -11
18 -18 40 -7 23 -18 40 -26 40 -20 0 -19 -9 5 -74 l21 -54 -61 -117 c-34 -64
-60 -124 -58 -133 4 -20 28 -28 28 -8 0 8 43 99 96 201 61 118 93 190 87 196
-6 6 -13 5 -19 -3z"/>
<path d="M8160 911 c-15 -29 -12 -87 5 -101 49 -41 138 63 93 108 -20 20 -86
15 -98 -7z m80 -30 c0 -18 -34 -51 -52 -51 -13 0 -9 58 5 63 28 12 47 7 47
-12z"/>
<path d="M11210 883 c-12 -21 -41 -55 -63 -75 -35 -31 -38 -38 -24 -44 11 -4
26 1 38 12 19 17 21 17 30 2 11 -20 33 -15 66 14 21 20 21 20 25 -3 6 -41 24
-30 35 23 6 29 15 65 18 81 6 21 4 27 -8 27 -9 0 -18 -8 -22 -19 -7 -24 -83
-106 -91 -98 -4 3 6 27 20 52 25 42 27 65 6 65 -5 0 -18 -17 -30 -37z"/>
<path d="M5124 849 c-8 -14 11 -33 25 -25 16 10 13 36 -3 36 -8 0 -18 -5 -22
-11z"/>
<path d="M11045 821 c8 -49 -12 -95 -66 -151 -34 -35 -45 -40 -84 -40 -34 0
-47 5 -55 20 -13 25 -30 26 -30 2 0 -30 33 -52 82 -54 55 -3 100 28 149 99 35
51 50 123 29 148 -22 27 -32 17 -25 -24z"/>
<path d="M4182 699 c-38 -8 -72 -35 -72 -58 0 -9 32 -46 70 -82 61 -59 70 -71
70 -103 0 -25 -6 -38 -20 -46 -36 -19 -130 17 -130 50 0 26 -27 26 -35 0 -8
-26 -1 -37 45 -60 84 -43 159 -32 170 25 11 55 -7 90 -78 155 -64 58 -66 62
-48 75 42 32 126 11 126 -32 0 -24 25 -9 28 18 2 13 11 32 19 41 14 16 14 18
-1 24 -9 3 -22 1 -29 -4 -8 -7 -26 -8 -47 -3 -19 4 -50 4 -68 0z"/>
<path d="M6185 682 c-37 -23 -93 -86 -106 -119 -5 -13 -9 -46 -9 -73 0 -43 5
-54 35 -84 25 -25 47 -37 80 -42 55 -8 114 0 132 19 12 11 0 13 -71 13 -81 -1
-86 0 -116 29 -29 28 -31 34 -28 82 5 59 37 108 93 143 31 19 39 21 66 10 38
-16 51 -4 20 21 -29 24 -58 24 -96 1z"/>
<path d="M7442 670 c-71 -51 -55 -79 73 -130 44 -17 89 -40 99 -50 19 -19 19
-21 3 -54 -21 -45 -68 -70 -119 -63 -46 6 -89 32 -95 58 -7 27 -33 24 -33 -4
0 -60 136 -110 203 -76 41 21 77 62 83 96 10 53 -13 76 -118 118 -51 20 -97
40 -101 44 -5 5 6 20 24 35 27 23 37 26 74 20 50 -7 71 11 30 26 -45 17 -80
11 -123 -20z"/>
<path d="M4538 684 c-4 -3 -12 -7 -20 -8 -7 -2 -20 -6 -28 -9 -36 -13 -104
-25 -116 -20 -9 3 -14 -2 -14 -12 0 -16 8 -17 61 -12 54 5 60 3 54 -11 -4 -10
-22 -62 -42 -116 -27 -79 -32 -101 -21 -107 24 -16 41 -10 35 12 -6 21 55 211
76 237 5 6 22 12 38 12 32 0 48 18 28 31 -16 10 -43 12 -51 3z"/>
<path d="M4683 615 c-26 -41 -76 -110 -110 -152 -44 -54 -60 -80 -52 -88 7 -7
23 4 52 36 34 38 50 48 84 52 l42 5 3 -57 c2 -33 7 -54 13 -51 10 5 12 17 14
81 1 29 6 38 24 43 21 6 21 7 3 21 -16 12 -18 23 -13 68 4 29 10 67 13 85 11
57 -21 37 -73 -43z m27 -55 c-7 -58 -6 -56 -45 -66 -25 -6 -28 -5 -19 7 6 8
23 35 38 62 15 26 28 47 30 47 1 0 0 -22 -4 -50z"/>
<path d="M7195 670 c-38 -11 -76 -17 -84 -15 -31 12 -36 -12 -33 -165 2 -112
6 -150 15 -147 7 2 13 29 15 68 l3 65 74 13 c76 14 90 26 59 52 -12 10 -17 10
-23 1 -8 -13 -64 -32 -93 -32 -15 0 -18 9 -18 53 l0 53 83 20 c58 15 83 26 85
37 4 21 4 21 -83 -3z"/>
<path d="M3456 658 c-29 -108 -48 -156 -66 -161 -23 -6 -27 -27 -6 -27 12 0
13 -6 5 -29 -13 -36 -8 -83 9 -89 8 -2 12 7 12 26 0 16 5 43 11 60 11 32 17
35 112 56 15 4 27 11 27 18 0 7 -18 9 -55 5 -30 -3 -55 -3 -55 1 0 4 9 36 20
70 11 35 18 68 14 73 -8 13 -24 11 -28 -3z"/>
<path d="M4977 657 c-2 -6 -32 -10 -75 -10 -56 1 -72 -2 -72 -13 0 -11 16 -14
69 -14 l70 0 -24 -67 c-12 -38 -30 -85 -39 -105 -21 -48 -21 -98 -1 -98 9 0
15 9 15 25 0 14 7 42 15 62 8 20 13 38 10 41 -3 3 1 12 9 21 7 9 21 39 30 68
17 50 19 52 60 58 43 7 75 20 66 28 -12 11 -129 14 -133 4z"/>
<path d="M2355 650 c-12 -19 6 -49 52 -90 25 -22 44 -41 42 -43 -40 -25 -110
-76 -131 -95 -32 -30 -39 -76 -10 -70 9 2 18 9 18 16 1 6 2 16 3 21 1 12 133
101 149 101 27 0 10 40 -34 79 -29 26 -44 47 -40 56 3 8 -3 19 -14 25 -23 12
-27 12 -35 0z"/>
<path d="M3019 653 c-6 -53 -23 -124 -49 -197 -11 -33 -20 -67 -20 -78 0 -30
25 -20 43 17 9 18 28 42 42 51 37 24 54 6 47 -53 -4 -36 -2 -45 9 -41 19 6 32
78 20 105 -13 28 -52 39 -81 23 -26 -14 -26 -20 9 102 10 36 17 69 13 72 -8 9
-32 7 -33 -1z"/>
<path d="M5505 651 c-40 -10 -83 -39 -90 -61 -10 -30 13 -68 57 -97 49 -30 98
-73 98 -84 0 -18 -53 -69 -72 -69 -11 0 -40 12 -64 26 -33 20 -48 24 -56 16
-14 -14 -16 -11 44 -45 61 -35 98 -35 136 1 64 60 51 108 -43 164 -83 49 -85
96 -7 117 23 7 41 7 54 0 18 -10 38 -5 38 10 0 8 -46 32 -58 30 -4 -1 -21 -4
-37 -8z"/>
<path d="M6495 645 c-22 -8 -41 -15 -43 -15 -2 0 -10 -16 -18 -35 -26 -63 -13
-138 33 -191 47 -53 124 -61 165 -16 75 80 64 158 -34 245 -35 31 -47 32 -103
12z m40 -36 c4 -6 14 -8 22 -5 9 4 30 -9 54 -33 47 -46 52 -89 16 -142 -63
-94 -196 2 -173 125 9 48 63 85 81 55z"/>
<path d="M6740 646 c0 -8 5 -16 11 -18 8 -3 14 -43 17 -107 4 -89 2 -105 -12
-113 -20 -11 -20 -32 -1 -62 13 -20 23 -23 60 -21 58 4 110 30 138 69 17 24
23 48 25 107 4 69 2 78 -23 107 -27 32 -39 36 -152 47 -51 5 -63 3 -63 -9z
m192 -57 c17 -19 19 -35 16 -91 -3 -60 -7 -72 -35 -99 -22 -23 -43 -33 -74
-36 l-44 -5 0 132 0 132 59 -4 c47 -4 63 -9 78 -29z"/>
<path d="M5181 621 c-12 -16 -28 -45 -36 -63 -7 -18 -34 -62 -59 -97 -25 -36
-46 -70 -46 -77 0 -6 -7 -14 -15 -18 -8 -3 -15 -12 -15 -21 0 -31 26 -13 65
45 l40 60 6 -40 c3 -22 10 -45 16 -51 19 -19 60 -1 91 41 l29 40 -5 -49 c-4
-42 -1 -50 18 -64 12 -8 28 -13 34 -11 20 8 15 34 -6 34 -25 0 -24 37 7 141
29 98 29 99 12 99 -7 0 -27 -28 -44 -62 -36 -73 -100 -151 -115 -142 -19 12
-1 114 33 182 20 42 28 67 21 74 -6 6 -17 -1 -31 -21z"/>
<path d="M3270 638 c-1 -2 -2 -26 -4 -53 -4 -69 -19 -93 -61 -101 -40 -7 -48
-34 -11 -34 22 0 24 -4 23 -45 -3 -58 14 -58 29 1 12 49 26 64 60 64 12 0 27
7 34 15 11 13 7 15 -25 15 -31 0 -36 3 -30 18 4 9 9 41 12 70 5 44 3 52 -11
52 -9 0 -16 -1 -16 -2z"/>
<path d="M3610 508 c-11 -18 -29 -64 -41 -103 -11 -38 -26 -88 -34 -110 -19
-51 -19 -75 -1 -75 9 0 26 31 44 77 l29 78 43 6 c32 4 51 14 72 38 36 41 33
68 -11 98 -48 33 -77 30 -101 -9z m80 -13 c37 -19 37 -25 4 -59 -32 -31 -81
-37 -65 -8 7 13 7 22 0 29 -7 7 -7 17 3 32 15 25 20 26 58 6z"/>
<path d="M3772 388 c-18 -18 -14 -38 8 -38 13 0 20 7 20 19 0 25 -13 34 -28
19z"/>
<path d="M5760 390 c-14 -4 -42 -8 -62 -9 -28 -1 -38 -5 -38 -17 0 -15 8 -16
63 -9 34 5 88 8 120 9 47 0 57 3 55 15 -4 18 -95 25 -138 11z"/>
<path d="M7163 329 c-79 -12 -116 -26 -110 -42 2 -6 11 -10 18 -9 8 2 41 8 74
14 123 20 138 23 142 33 4 14 -45 15 -124 4z"/>
</g>
</svg>
