<?xml version="1.0" standalone="no"?>
<!DOCTYPE svg PUBLIC "-//W3C//DTD SVG 20010904//EN"
 "http://www.w3.org/TR/2001/REC-SVG-20010904/DTD/svg10.dtd">
<svg version="1.0" xmlns="http://www.w3.org/2000/svg"
 width="1618.000000pt" height="1214.000000pt" viewBox="0 0 1618.000000 1214.000000"
 preserveAspectRatio="xMidYMid meet">

<g transform="translate(0.000000,1214.000000) scale(0.100000,-0.100000)"
fill="#000000" stroke="none">
<path d="M7412 11608 c-7 -7 -12 -20 -12 -29 0 -10 -27 -78 -60 -151 -62 -136
-69 -170 -36 -176 15 -3 18 0 13 18 -4 14 14 66 54 152 32 72 59 139 59 149 0
10 5 21 10 24 11 7 4 25 -9 25 -4 0 -12 -5 -19 -12z"/>
<path d="M6196 11598 c-3 -7 -11 -34 -19 -60 -12 -38 -13 -47 -2 -52 8 -3 19
12 30 42 10 26 22 52 26 58 5 6 6 14 2 17 -11 11 -33 8 -37 -5z"/>
<path d="M11699 11583 c-6 -16 -24 -58 -41 -95 -26 -55 -36 -67 -58 -70 -31
-5 -31 -4 2 70 11 24 20 52 21 63 1 10 7 21 15 24 7 3 10 9 7 15 -10 16 -35
12 -42 -7 -3 -10 -19 -53 -35 -95 -29 -77 -29 -77 -69 -80 -48 -4 -56 -22 -11
-26 37 -4 37 -6 17 -55 -8 -20 -15 -46 -15 -58 0 -38 23 -14 43 45 14 43 25
60 44 67 33 12 38 6 23 -30 -20 -50 -2 -57 41 -15 l39 38 -6 -31 c-8 -39 2
-71 17 -56 5 5 12 32 15 60 7 56 -3 71 -36 53 -24 -13 -23 -11 32 109 21 46
38 88 38 92 0 21 -31 6 -41 -18z"/>
<path d="M11081 11546 c-10 -24 -22 -54 -26 -66 -5 -17 -13 -20 -38 -18 -38 4
-46 -25 -9 -30 18 -3 22 -8 16 -20 -13 -31 -17 -92 -5 -92 7 0 13 6 15 13 26
92 28 96 60 99 20 2 31 9 31 18 0 10 -8 14 -22 13 -13 -2 -23 0 -23 3 0 14 44
90 57 97 17 11 7 27 -17 27 -13 0 -25 -14 -39 -44z"/>
<path d="M13142 11561 c-10 -22 -22 -31 -50 -36 -42 -8 -67 -27 -89 -69 -12
-24 -13 -36 -3 -73 12 -41 11 -45 -10 -68 -15 -16 -20 -30 -15 -42 6 -16 11
-13 38 18 29 33 35 36 60 27 38 -14 73 11 99 69 l20 45 -24 44 c-16 31 -20 47
-12 52 16 10 34 48 27 56 -14 13 -29 5 -41 -23z m-78 -134 c-14 -26 -28 -47
-30 -47 -14 0 -1 70 17 89 35 37 43 10 13 -42z m75 14 c26 -16 -14 -91 -49
-91 -28 0 -29 10 -3 56 26 46 30 49 52 35z"/>
<path d="M13283 11518 c-35 -38 -63 -76 -63 -84 0 -10 15 -14 59 -14 l59 0 -1
-82 c-2 -67 1 -83 13 -83 11 0 15 17 16 80 2 70 5 82 26 98 21 18 22 20 4 32
-12 9 -17 25 -16 47 2 42 -9 78 -24 77 -6 0 -39 -32 -73 -71z m59 -60 c-5 -5
-25 -8 -43 -6 l-34 3 40 38 40 38 3 -32 c2 -17 -1 -36 -6 -41z"/>
<path d="M6079 11578 c0 -1 -2 -18 -4 -36 -5 -57 -35 -102 -67 -102 -18 0 -28
-5 -28 -15 0 -8 9 -15 20 -15 24 0 24 -5 5 -60 -19 -53 -20 -91 -2 -85 7 3 21
35 31 71 11 36 24 67 30 69 6 2 24 6 39 10 24 5 27 8 16 21 -7 9 -20 12 -32 8
-21 -6 -21 -6 -3 20 21 33 27 107 9 113 -7 3 -13 3 -14 1z"/>
<path d="M10013 11573 c-7 -3 -13 -15 -13 -28 0 -37 -31 -93 -54 -99 -25 -7
-66 -8 -66 -2 0 2 9 25 20 51 11 26 18 51 14 56 -9 16 -34 10 -34 -8 0 -34
-35 -103 -52 -103 -25 0 -33 -21 -10 -27 18 -4 18 -9 9 -46 -5 -23 -14 -47
-19 -54 -12 -14 -2 -33 17 -33 7 0 19 23 27 57 13 55 15 58 56 70 47 13 48 11
27 -40 -19 -47 -4 -56 36 -23 43 36 52 33 44 -13 -4 -25 -2 -41 5 -46 16 -10
21 -2 27 44 7 49 -10 75 -44 68 -13 -2 -23 -2 -23 0 0 2 11 29 24 61 40 97 42
127 9 115z"/>
<path d="M15053 11565 c-30 -21 -56 -94 -45 -125 6 -16 5 -32 -5 -49 -23 -45
-17 -86 17 -115 26 -21 34 -23 60 -14 33 11 80 61 80 84 0 27 -19 51 -50 64
l-30 12 35 39 c42 47 44 70 9 98 -32 25 -43 26 -71 6z m61 -41 c4 -10 -7 -29
-31 -52 l-38 -37 -3 28 c-6 54 55 105 72 61z m12 -166 c8 -13 -45 -68 -67 -68
-27 0 -42 26 -34 62 12 54 21 59 61 36 19 -11 37 -24 40 -30z"/>
<path d="M8702 11534 c-95 -100 -94 -241 1 -232 34 3 40 22 7 24 -49 3 -62 45
-34 112 17 42 71 102 92 102 21 0 8 25 -14 27 -11 1 -33 -13 -52 -33z"/>
<path d="M8917 11563 c-14 -13 -6 -33 12 -33 29 0 66 -58 65 -101 -2 -43 -46
-106 -81 -115 -14 -4 -23 -14 -23 -25 0 -33 32 -21 81 30 73 76 76 147 6 219
-30 31 -47 39 -60 25z"/>
<path d="M10405 11533 c-14 -88 -56 -204 -86 -238 -29 -32 -49 -38 -49 -13 0
5 14 23 32 39 23 22 28 33 20 41 -16 16 -56 -13 -72 -52 -10 -23 -10 -37 -2
-55 18 -38 54 -33 91 14 39 49 56 90 81 194 24 98 24 107 5 107 -9 0 -16 -14
-20 -37z"/>
<path d="M13856 11523 c-16 -33 -19 -35 -28 -19 -14 24 -56 13 -85 -22 -25
-30 -31 -108 -12 -143 8 -15 6 -27 -10 -53 -25 -40 -26 -56 -6 -56 9 0 23 16
32 35 13 28 22 35 46 35 34 0 65 15 89 44 23 28 22 52 -3 92 l-21 34 21 29
c12 16 21 36 21 45 0 29 -26 17 -44 -21z m-52 -56 c11 -10 8 -21 -14 -60 -15
-26 -30 -44 -33 -40 -13 13 -7 77 10 95 19 21 21 22 37 5z m56 -57 c18 -33
-20 -80 -64 -80 -13 0 -11 10 12 50 30 55 36 59 52 30z"/>
<path d="M14438 11545 c-48 -27 -30 -55 18 -30 30 15 54 19 54 9 0 -16 -67
-99 -115 -141 -30 -26 -55 -54 -55 -60 0 -20 35 -15 55 7 23 25 42 25 50 0 15
-46 95 -27 95 22 0 21 -16 24 -27 4 -13 -24 -32 -22 -46 4 -12 23 -10 30 31
87 53 77 54 107 2 110 -19 2 -47 -4 -62 -12z"/>
<path d="M14726 11535 c-4 -14 -11 -23 -16 -20 -19 12 -48 -6 -75 -45 -22 -32
-26 -47 -22 -76 3 -20 13 -44 22 -54 14 -16 14 -21 -9 -65 -14 -26 -23 -51
-20 -56 9 -14 34 -10 34 5 0 27 41 85 76 106 71 45 91 96 54 143 -15 18 -18
33 -14 56 5 24 3 31 -9 31 -8 0 -18 -11 -21 -25z m-21 -77 c-18 -61 -39 -108
-45 -101 -5 4 -11 22 -14 39 -5 23 -1 37 14 57 27 34 54 37 45 5z m50 -48 c-4
-11 -15 -25 -26 -30 -22 -12 -23 -10 -10 22 5 13 12 32 16 43 6 19 7 19 16 2
6 -9 7 -26 4 -37z"/>
<path d="M14885 11540 c-4 -6 -4 -22 -1 -36 4 -15 -3 -57 -19 -105 -28 -90
-30 -109 -12 -109 17 0 66 164 62 208 -4 39 -19 60 -30 42z"/>
<path d="M13989 11535 c-1 -3 -3 -17 -5 -32 -1 -16 -12 -62 -23 -102 -21 -76
-20 -111 4 -111 8 0 13 12 13 34 0 19 10 68 22 110 22 72 22 106 0 106 -5 0
-11 -2 -11 -5z"/>
<path d="M6127 11402 c-15 -37 -27 -73 -27 -79 0 -27 27 -10 59 38 19 27 36
48 38 45 3 -2 0 -21 -6 -43 -15 -51 -14 -73 3 -73 16 0 42 110 32 136 -4 11
-14 15 -30 12 -19 -4 -22 -1 -18 14 2 11 -1 18 -9 18 -8 0 -26 -30 -42 -68z"/>
<path d="M2954 11438 c-5 -13 -7 -26 -6 -30 1 -5 -1 -8 -6 -8 -4 0 -18 -20
-32 -45 -14 -25 -27 -45 -30 -45 -3 0 -12 27 -19 60 -13 59 -31 87 -50 76 -5
-4 -1 -27 10 -56 10 -28 19 -61 19 -73 0 -13 5 -28 11 -34 8 -8 8 -17 0 -31
-6 -10 -7 -22 -4 -26 3 -3 1 -6 -4 -6 -6 0 -24 -20 -40 -45 -15 -25 -31 -45
-35 -45 -14 0 -8 -28 7 -34 17 -6 14 -9 108 150 75 127 107 189 107 204 0 19
-29 10 -36 -12z"/>
<path d="M5311 11439 c-42 -25 -46 -39 -22 -80 23 -38 15 -73 -12 -51 -16 14
-27 6 -27 -19 0 -26 36 -30 66 -7 21 17 25 26 20 51 -4 17 -13 38 -21 47 -17
18 -9 30 28 43 9 4 17 11 17 16 0 19 -17 20 -49 0z"/>
<path d="M5463 11450 c-12 -5 -34 -27 -49 -49 -21 -33 -24 -45 -17 -67 14 -42
33 -49 88 -34 43 12 66 33 52 47 -4 3 -25 -2 -47 -11 -23 -9 -46 -14 -51 -11
-18 12 -9 31 20 42 40 15 68 58 51 78 -14 17 -16 17 -47 5z"/>
<path d="M6357 11442 c-21 -22 -47 -85 -47 -111 0 -24 36 -51 69 -51 13 0 39
12 58 26 33 25 33 27 17 45 -18 20 -36 17 -28 -5 3 -8 -7 -18 -26 -26 -26 -11
-34 -11 -46 2 -20 19 -9 44 25 58 31 12 57 52 47 69 -11 17 -51 13 -69 -7z"/>
<path d="M6950 11448 c-5 -7 -25 -35 -43 -63 -17 -27 -46 -59 -64 -70 -33 -21
-44 -45 -19 -45 8 0 24 8 37 19 22 17 24 17 35 2 11 -14 17 -13 58 16 l46 33
0 -25 c0 -18 5 -25 20 -25 16 0 19 5 14 24 -3 13 2 40 10 61 20 47 20 45 -3
45 -11 0 -29 -13 -41 -30 -11 -16 -34 -39 -50 -50 l-30 -21 11 28 c6 15 22 43
35 61 23 30 25 52 4 52 -5 0 -14 -6 -20 -12z"/>
<path d="M7152 11443 c-20 -36 -51 -136 -46 -144 11 -18 25 -8 42 29 9 20 25
46 35 56 9 11 17 23 17 28 0 15 28 8 34 -9 10 -24 30 0 22 25 -8 25 -32 35
-55 22 -12 -6 -22 -5 -29 2 -7 7 -13 5 -20 -9z"/>
<path d="M7733 11437 c-15 -13 -40 -27 -56 -31 -22 -5 -26 -11 -22 -29 3 -13
-9 -53 -31 -102 -44 -97 -52 -129 -33 -123 8 2 32 40 54 85 32 66 43 80 55 73
35 -19 130 62 130 110 0 43 -54 52 -97 17z m57 -25 c0 -10 -14 -31 -30 -47
-26 -25 -32 -27 -40 -15 -14 22 -13 26 21 54 36 31 49 33 49 8z"/>
<path d="M8411 11425 c-17 -20 -31 -32 -31 -28 0 4 -5 2 -12 -5 -9 -9 -9 -15
0 -24 7 -7 12 -20 12 -30 0 -30 42 -50 89 -42 50 8 49 29 -1 30 -19 1 -40 4
-47 8 -15 10 -14 36 2 36 19 0 79 58 75 73 -3 6 -16 13 -30 15 -18 2 -33 -6
-57 -33z"/>
<path d="M5062 11406 c-17 -24 -47 -62 -67 -86 -27 -32 -33 -46 -25 -54 9 -8
19 -2 40 22 17 21 30 29 34 23 11 -17 45 -13 77 10 28 19 29 20 29 2 0 -11 6
-28 14 -39 12 -15 17 -16 27 -7 9 9 9 16 1 26 -8 10 -9 28 -3 60 4 26 6 49 3
52 -12 12 -29 3 -42 -21 -16 -28 -68 -70 -77 -61 -3 3 6 27 21 53 29 53 32 64
13 64 -8 0 -28 -20 -45 -44z"/>
<path d="M8110 11428 c-40 -27 -82 -85 -78 -107 5 -25 22 -16 40 21 21 43 40
59 81 67 18 4 32 13 32 21 0 24 -38 23 -75 -2z"/>
<path d="M8266 11435 c-15 -11 -17 -22 -12 -59 5 -31 3 -47 -5 -52 -7 -4 -15
-2 -17 4 -5 15 -29 16 -37 2 -11 -17 15 -40 45 -40 40 0 54 22 47 75 -6 42 -5
45 19 51 14 4 23 11 21 18 -5 17 -40 18 -61 1z"/>
<path d="M4407 11421 c-16 -10 -37 -17 -46 -14 -14 4 -21 -6 -31 -42 -7 -25
-9 -49 -5 -53 4 -4 21 9 38 29 37 41 85 75 94 65 3 -3 1 -23 -5 -45 -15 -47
-15 -61 -1 -61 16 0 40 68 37 104 -2 25 -8 32 -28 34 -14 1 -38 -6 -53 -17z"/>
<path d="M11838 11425 c-34 -19 -68 -75 -68 -113 0 -43 42 -76 88 -67 46 9
102 36 102 50 0 23 -14 24 -46 4 -56 -34 -113 -25 -114 18 0 7 18 17 40 23 47
13 80 53 63 79 -14 22 -33 23 -65 6z m22 -40 c-7 -8 -17 -15 -22 -15 -6 0 -5
7 2 15 7 8 17 15 22 15 6 0 5 -7 -2 -15z"/>
<path d="M3026 11378 c-30 -60 -32 -78 -11 -118 21 -40 40 -38 86 9 45 44 51
82 18 109 -12 9 -29 25 -38 35 -8 9 -19 17 -22 17 -4 0 -19 -23 -33 -52z m65
-18 c27 -15 24 -33 -12 -71 l-32 -34 -9 24 c-9 27 7 91 23 91 6 0 19 -5 30
-10z"/>
<path d="M9479 11412 c-21 -18 -24 -18 -35 -4 -11 15 -14 15 -33 -2 -12 -11
-21 -14 -21 -8 0 7 -7 12 -15 12 -8 0 -15 -6 -15 -13 0 -7 -9 -30 -20 -52 -39
-77 -24 -85 37 -17 29 33 42 42 43 30 0 -25 23 -22 58 7 38 32 44 31 32 -1
-15 -38 -12 -54 9 -54 19 0 20 3 24 80 2 29 -2 36 -19 38 -11 2 -31 -6 -45
-16z"/>
<path d="M9628 11413 c-30 -35 -36 -55 -26 -84 12 -35 40 -45 79 -29 44 19 36
46 -9 29 -40 -15 -51 6 -13 26 26 13 32 21 29 43 -4 33 -37 41 -60 15z"/>
<path d="M3270 11411 c0 -5 -25 -41 -55 -79 -30 -39 -55 -75 -55 -81 0 -23 30
-9 50 24 21 34 40 46 40 25 0 -18 28 -11 59 16 l31 26 0 -30 c0 -36 20 -46 49
-26 23 17 18 39 -6 29 -13 -5 -15 2 -10 40 8 56 -6 59 -60 13 -25 -23 -35 -27
-30 -15 18 49 19 67 3 67 -9 0 -16 -4 -16 -9z"/>
<path d="M4001 11402 c-41 -20 -60 -64 -40 -89 21 -25 100 -56 113 -43 13 13
0 25 -46 40 -26 8 -38 18 -38 30 0 26 26 43 55 36 20 -5 25 -3 25 13 0 10 -7
22 -16 25 -20 8 -13 9 -53 -12z"/>
<path d="M4214 11409 c-39 -14 -59 -58 -39 -85 11 -16 17 -16 39 -6 22 10 26
9 26 -3 0 -8 7 -15 15 -15 9 0 15 9 15 24 0 13 3 37 6 53 5 26 3 31 -18 35
-14 3 -34 1 -44 -3z m13 -46 c-9 -9 -19 -14 -23 -11 -10 10 6 28 24 28 15 0
15 -1 -1 -17z"/>
<path d="M7878 11390 c-46 -46 -25 -81 34 -56 13 6 17 2 20 -19 5 -44 22 -33
30 20 5 39 3 53 -9 67 -23 25 -40 22 -75 -12z"/>
<path d="M10842 11394 c-33 -23 -45 -50 -31 -75 8 -16 17 -20 38 -16 20 4 30
1 39 -14 7 -11 16 -17 21 -15 10 6 6 109 -4 126 -9 15 -37 12 -63 -6z m22 -51
c-13 -9 -20 -10 -22 -3 -5 15 32 42 37 28 2 -6 -5 -17 -15 -25z"/>
<path d="M10135 11363 c-29 -43 -31 -56 -10 -73 35 -29 92 27 80 80 -9 42 -38
39 -70 -7z m35 -28 c-7 -9 -15 -13 -18 -10 -3 2 1 11 8 20 7 9 15 13 18 10 3
-2 -1 -11 -8 -20z"/>
<path d="M14047 11323 c-13 -13 -7 -31 13 -36 29 -7 47 19 21 32 -23 13 -26
13 -34 4z"/>
<path d="M7423 11301 c-14 -22 -8 -31 19 -31 14 0 19 6 16 22 -4 28 -20 33
-35 9z"/>
<path d="M13440 11286 c0 -33 18 -43 35 -20 9 13 10 23 3 31 -17 21 -38 15
-38 -11z"/>
<path d="M2620 11114 c-25 -20 -47 -39 -50 -44 -3 -4 -14 -9 -25 -12 -12 -2
-20 -11 -20 -24 -1 -12 -13 -51 -29 -87 -32 -76 -29 -120 5 -78 10 13 19 29
19 36 0 7 6 18 14 24 12 10 20 2 48 -45 38 -65 65 -85 54 -39 -4 15 -18 44
-32 64 -31 46 -30 56 5 71 60 25 112 111 90 151 -14 27 -28 24 -79 -17z m41
-47 c-9 -23 -63 -67 -83 -67 -17 0 9 44 45 77 43 38 55 35 38 -10z"/>
<path d="M1967 11134 c-4 -4 -7 -33 -7 -65 0 -66 -28 -149 -65 -194 l-24 -30
-1 26 c0 14 9 34 20 44 24 21 26 45 5 45 -24 0 -56 -60 -53 -100 6 -79 86 -25
127 85 32 85 30 221 -2 189z"/>
<path d="M3156 11038 c-4 -35 -19 -100 -32 -146 -14 -46 -23 -86 -21 -89 3 -3
27 2 54 10 26 9 65 19 86 23 20 3 40 10 43 15 10 17 -25 21 -77 10 -29 -6 -54
-9 -57 -6 -3 3 2 29 11 58 9 28 19 82 23 120 6 56 4 67 -8 67 -11 0 -17 -16
-22 -62z"/>
<path d="M1500 10999 c0 -12 -7 -48 -16 -81 -19 -75 -7 -92 29 -44 15 19 27
37 27 40 0 2 14 20 30 38 17 18 30 30 30 28 0 -3 -7 -26 -14 -52 -12 -39 -12
-49 -1 -65 15 -20 14 -22 34 60 23 98 3 122 -56 66 l-35 -34 7 33 c6 28 4 32
-14 32 -15 0 -21 -6 -21 -21z"/>
<path d="M3911 10994 c-48 -40 -65 -78 -51 -119 16 -49 59 -60 101 -26 31 25
18 37 -21 21 -25 -10 -34 -10 -43 0 -9 9 -7 16 13 28 50 34 71 61 68 90 -4 36
-29 39 -67 6z m19 -39 c-13 -14 -26 -23 -28 -20 -7 6 29 44 42 44 5 1 -1 -10
-14 -24z"/>
<path d="M4202 11004 c-33 -23 -45 -50 -32 -74 6 -11 17 -20 25 -20 16 0 18
-12 9 -59 -5 -22 -12 -31 -26 -31 -30 0 -56 -18 -73 -51 -26 -49 -1 -129 41
-129 8 0 28 27 44 62 21 45 31 57 36 45 8 -21 34 -22 34 -2 0 9 -7 26 -15 39
-13 19 -14 36 -6 92 5 38 13 81 16 96 9 36 -22 54 -53 32z m-12 -220 c0 -15
-44 -104 -51 -104 -16 0 -10 73 8 92 15 17 43 25 43 12z"/>
<path d="M2052 10982 c-58 -54 -52 -132 9 -132 76 0 157 46 130 73 -9 9 -13 9
-19 0 -10 -16 -75 -43 -102 -43 -19 0 -16 6 19 39 43 41 49 59 29 79 -18 18
-33 15 -66 -16z m28 -37 c-7 -8 -17 -15 -23 -15 -5 0 -2 9 8 20 21 23 35 19
15 -5z"/>
<path d="M1694 10965 c-17 -41 -18 -60 -4 -86 15 -27 47 -24 81 10 34 34 37
63 9 91 -32 32 -68 26 -86 -15z m66 -10 c10 -12 10 -18 -1 -32 -40 -52 -62
-39 -39 21 11 30 22 33 40 11z"/>
<path d="M2753 10975 c-12 -8 -29 -35 -38 -60 -16 -42 -16 -46 -1 -70 20 -30
40 -31 84 -5 37 23 44 46 10 35 -55 -17 -68 -17 -68 -3 0 8 16 20 35 27 43 15
59 56 30 78 -23 16 -26 16 -52 -2z m37 -30 c0 -2 -10 -10 -22 -16 -21 -11 -22
-11 -9 4 13 16 31 23 31 12z"/>
<path d="M3000 10965 c-7 -8 -20 -15 -30 -15 -13 0 -24 -19 -41 -72 -12 -40
-31 -91 -40 -113 -10 -21 -15 -43 -13 -47 13 -20 31 -4 47 43 17 45 21 51 43
46 18 -3 31 3 49 25 26 30 48 98 43 126 -4 22 -41 27 -58 7z m12 -72 c-17 -46
-42 -69 -42 -39 0 18 41 86 52 86 4 0 0 -21 -10 -47z"/>
<path d="M4040 10895 c-10 -12 -10 -19 -2 -27 15 -15 48 14 38 31 -10 15 -21
14 -36 -4z"/>
<path d="M4357 10864 c-9 -10 2 -24 19 -24 8 0 14 7 14 15 0 15 -21 21 -33 9z"/>
<path d="M3387 10853 c-13 -12 -7 -23 13 -23 11 0 20 7 20 15 0 15 -21 21 -33
8z"/>
<path d="M7153 10693 c-75 -113 -95 -157 -96 -211 -1 -71 49 -154 115 -188 33
-17 38 -17 38 -1 -1 6 -18 24 -40 39 -48 33 -80 93 -80 150 0 48 27 107 96
206 46 66 52 82 31 82 -7 0 -36 -35 -64 -77z"/>
<path d="M5751 10718 c-29 -74 -80 -242 -75 -249 10 -16 34 -9 34 9 0 10 13
56 28 103 36 104 44 146 32 154 -6 3 -14 -4 -19 -17z"/>
<path d="M10556 10733 c-3 -3 -6 -16 -6 -29 0 -12 -20 -85 -45 -162 -51 -160
-53 -172 -24 -172 14 0 19 5 16 14 -3 7 12 69 34 137 44 135 57 203 42 212 -6
4 -13 4 -17 0z"/>
<path d="M7437 10673 c-26 -43 -30 -73 -8 -73 13 0 63 99 56 110 -11 17 -19
10 -48 -37z"/>
<path d="M11292 10686 c-20 -34 -19 -46 4 -46 12 0 44 53 44 72 0 21 -30 5
-48 -26z"/>
<path d="M7966 10698 c-2 -7 -12 -40 -23 -73 -17 -51 -24 -61 -48 -65 -47 -8
-44 -37 3 -31 15 2 16 6 -8 -56 -13 -35 -16 -54 -9 -59 15 -9 23 3 45 65 13
36 26 56 41 62 25 9 30 28 12 46 -7 7 -6 25 4 61 9 28 13 53 10 56 -10 10 -23
7 -27 -6z"/>
<path d="M4840 10678 c1 -7 19 -26 41 -41 l41 -28 -43 -32 c-23 -18 -56 -42
-73 -55 -35 -25 -40 -45 -13 -50 10 -2 29 10 45 28 15 18 51 47 79 66 32 20
50 39 47 46 -8 18 -92 78 -109 78 -8 0 -15 -6 -15 -12z"/>
<path d="M7687 10683 c-4 -3 -7 -15 -7 -26 0 -11 -16 -67 -36 -124 -43 -125
-37 -149 24 -91 34 33 72 58 87 58 3 0 3 -22 -1 -50 -5 -41 -4 -50 9 -50 11 0
17 15 22 54 4 30 4 59 0 65 -11 18 -50 12 -89 -14 -20 -13 -36 -23 -36 -22 0
1 14 40 30 87 16 47 30 93 30 103 0 17 -20 23 -33 10z"/>
<path d="M8159 10646 c-9 -38 -16 -46 -51 -59 -43 -17 -44 -43 -2 -33 13 4 24
5 24 3 0 -14 -25 -73 -34 -79 -6 -4 -6 -16 3 -35 12 -26 14 -26 26 -10 7 9 18
44 25 76 11 54 15 60 44 66 17 4 34 7 39 6 4 0 7 6 7 15 0 12 -7 15 -30 12
-24 -4 -29 -1 -26 11 18 58 18 71 2 71 -10 0 -19 -15 -27 -44z"/>
<path d="M11467 10683 c-13 -12 -7 -21 21 -26 55 -11 92 -139 59 -204 -21 -39
-82 -93 -107 -93 -21 0 -28 -24 -10 -35 22 -14 120 66 149 122 26 51 7 162
-35 213 -24 28 -61 39 -77 23z"/>
<path d="M8969 10648 c-7 -18 -37 -69 -66 -112 -51 -76 -63 -106 -43 -106 8 0
70 82 70 93 0 3 18 32 41 66 23 34 38 68 35 76 -9 24 -23 17 -37 -17z"/>
<path d="M9110 10660 c0 -10 -67 -104 -120 -170 -23 -29 -36 -68 -25 -78 4 -4
12 1 19 11 6 10 44 63 84 118 72 99 85 129 57 129 -8 0 -15 -5 -15 -10z"/>
<path d="M6460 10625 c-7 -9 -19 -14 -26 -11 -14 6 -23 -4 -29 -31 -2 -10 -10
-37 -18 -60 -15 -39 -14 -53 5 -53 4 0 21 27 38 60 32 63 64 91 74 65 8 -21
26 -19 26 3 0 39 -46 56 -70 27z"/>
<path d="M6812 10624 c-52 -36 -68 -123 -31 -163 15 -16 27 -20 42 -15 35 11
67 35 67 50 0 19 -12 18 -49 -3 -28 -16 -33 -16 -41 -3 -16 25 -11 38 18 45
54 13 80 63 50 93 -16 16 -29 15 -56 -4z m33 -34 c-3 -5 -16 -15 -28 -21 -22
-12 -22 -12 -3 10 19 21 43 30 31 11z"/>
<path d="M5535 10600 c-16 -16 -34 -30 -40 -30 -7 0 -12 -12 -12 -27 -1 -16
-2 -37 -4 -47 -7 -35 20 -28 35 9 27 63 56 97 78 89 16 -5 19 -2 16 13 -5 30
-41 27 -73 -7z"/>
<path d="M6074 10620 c-38 -15 -71 -72 -113 -194 -46 -133 -47 -136 -26 -136
15 0 54 77 76 150 9 28 16 36 29 33 26 -7 75 22 104 60 32 42 33 61 4 81 -25
18 -42 19 -74 6z m55 -29 c18 -11 -11 -56 -49 -76 -26 -13 -28 -13 -33 6 -7
25 9 54 38 68 26 12 27 12 44 2z"/>
<path d="M10877 10616 c-6 -16 19 -30 28 -16 7 11 -2 30 -15 30 -4 0 -10 -6
-13 -14z"/>
<path d="M6628 10603 c-30 -19 -35 -44 -18 -87 9 -25 8 -26 -23 -24 -23 2 -32
-1 -32 -12 0 -11 12 -15 45 -15 49 0 48 -2 39 80 -4 26 0 30 26 35 17 3 30 11
30 20 0 21 -35 23 -67 3z"/>
<path d="M5260 10568 c-10 -18 -45 -59 -77 -90 -50 -50 -55 -58 -39 -64 15 -6
27 1 50 29 36 42 42 45 49 17 7 -28 45 -25 78 6 27 25 27 26 34 5 9 -28 35
-27 34 2 0 12 3 39 6 60 9 51 -7 48 -62 -13 -25 -27 -49 -50 -54 -50 -15 0
-10 33 11 75 24 47 25 55 5 55 -8 0 -24 -15 -35 -32z"/>
<path d="M8640 10584 c0 -9 7 -14 17 -12 25 5 28 28 4 28 -12 0 -21 -6 -21
-16z"/>
<path d="M6216 10559 c-49 -58 -44 -115 8 -91 21 9 25 8 29 -10 7 -25 32 -19
32 8 1 10 4 33 8 51 10 38 -6 73 -32 73 -11 0 -31 -14 -45 -31z m44 -11 c-1
-18 -29 -53 -36 -45 -4 3 1 18 10 32 18 28 26 32 26 13z"/>
<path d="M8328 10568 c-8 -7 -25 -28 -37 -45 -12 -18 -28 -33 -36 -33 -7 0
-16 -15 -19 -32 -3 -18 -22 -69 -41 -113 -21 -47 -31 -83 -26 -88 15 -15 26
-1 56 72 25 63 30 69 47 60 51 -27 157 119 126 175 -11 19 -48 21 -70 4z m42
-43 c0 -29 -73 -115 -86 -102 -5 4 3 29 16 54 39 74 70 95 70 48z"/>
<path d="M9481 10561 c-29 -29 -53 -79 -49 -104 2 -17 9 -22 30 -20 19 1 29
-4 33 -18 10 -31 35 -23 35 11 0 16 8 45 17 65 13 27 14 38 5 47 -9 9 -21 1
-53 -33 l-41 -44 21 38 c12 21 19 42 16 47 -3 4 4 6 15 3 14 -4 20 0 20 11 0
22 -26 20 -49 -3z"/>
<path d="M9284 10535 c-31 -24 -32 -24 -37 -5 -7 29 -27 25 -27 -5 0 -14 -7
-42 -15 -62 -18 -43 -19 -53 -2 -53 7 0 27 18 43 40 36 46 84 87 84 70 0 -6
-9 -28 -20 -50 -25 -48 -25 -50 -1 -50 13 0 24 16 39 55 12 30 19 62 16 70 -9
22 -45 18 -80 -10z"/>
<path d="M9640 10535 c0 -14 -7 -42 -15 -62 -8 -19 -15 -39 -15 -44 0 -18 28
-8 44 16 22 34 57 65 67 60 4 -3 3 -20 -2 -38 -13 -45 -11 -67 4 -67 8 0 19
22 27 55 12 50 12 58 -3 73 -14 13 -22 14 -47 5 -16 -6 -29 -8 -28 -5 2 21 -4
32 -17 32 -9 0 -15 -9 -15 -25z"/>
<path d="M10067 10519 c-63 -73 -59 -139 9 -139 43 0 74 15 74 36 0 11 -5 14
-17 9 -36 -13 -71 -17 -77 -7 -10 17 5 42 26 42 28 0 70 46 66 73 -5 39 -41
33 -81 -14z m47 -4 c-4 -8 -11 -15 -16 -15 -6 0 -5 6 2 15 7 8 14 15 16 15 2
0 1 -7 -2 -15z"/>
<path d="M10280 10530 c-12 -16 -27 -30 -35 -30 -15 0 -35 -50 -35 -86 0 -15
6 -24 15 -24 8 0 15 6 15 14 0 7 17 38 37 69 35 53 38 56 55 40 16 -14 18 -14
24 2 5 12 1 23 -11 31 -28 21 -41 17 -65 -16z"/>
<path d="M9817 10533 c-4 -3 -7 -17 -7 -30 0 -14 -5 -33 -11 -44 -6 -12 -8
-28 -4 -37 5 -14 15 -8 50 31 25 26 53 47 65 47 24 0 24 -4 4 -63 -15 -45 -14
-77 3 -77 15 0 47 131 36 149 -14 22 -59 26 -89 6 -13 -8 -24 -12 -23 -8 5 28
-8 42 -24 26z"/>
<path d="M10967 10522 c-41 -45 -40 -113 1 -126 29 -10 97 21 113 50 16 30 6
50 -37 75 -38 23 -57 23 -77 1z m86 -39 c15 -9 6 -24 -24 -42 -18 -11 -38 -17
-45 -14 -17 6 -18 45 -2 61 10 10 48 8 71 -5z"/>
<path d="M10822 10483 c-23 -67 -25 -83 -11 -83 15 0 49 73 49 103 0 31 -25
18 -38 -20z"/>
<path d="M5776 10501 c-10 -15 12 -61 29 -61 18 0 20 41 3 58 -14 14 -25 15
-32 3z"/>
<path d="M8600 10475 c-7 -9 -10 -18 -7 -21 10 -10 47 7 47 22 0 19 -24 18
-40 -1z"/>
<path d="M10660 10405 c-10 -12 -9 -16 5 -21 23 -9 40 10 22 25 -11 9 -17 8
-27 -4z"/>
<path d="M7926 10268 c-2 -7 -7 -24 -9 -38 -3 -14 -22 -72 -41 -130 -20 -58
-36 -111 -36 -117 0 -24 32 -13 66 21 l34 34 0 -33 c0 -34 17 -57 24 -33 3 7
7 34 11 61 6 45 5 47 -18 47 -13 0 -32 -9 -42 -20 -10 -11 -20 -19 -21 -17 -2
2 7 37 20 77 14 41 22 78 19 83 -3 5 -1 12 5 16 16 10 19 53 5 58 -7 3 -15 -1
-17 -9z"/>
<path d="M4830 10179 c-22 -79 -24 -81 -52 -77 -15 3 -28 1 -28 -4 0 -4 0 -11
0 -15 0 -5 9 -9 20 -9 29 -2 29 -3 19 -59 -5 -27 -7 -55 -4 -62 9 -25 24 -13
30 25 15 91 15 90 49 96 22 4 36 13 39 27 5 20 -1 20 -50 2 -7 -3 -13 -4 -13
-2 0 6 37 123 45 142 5 13 2 17 -12 17 -15 0 -24 -16 -43 -81z"/>
<path d="M7778 10206 c-18 -31 -41 -56 -52 -58 -24 -4 -34 -28 -11 -28 11 0
15 -5 12 -14 -15 -37 -18 -86 -8 -105 12 -21 43 -27 75 -15 26 10 18 24 -13
24 -39 0 -44 10 -30 64 8 33 17 46 32 48 25 4 34 25 13 30 -13 2 -10 12 14 48
34 51 36 60 16 60 -8 0 -30 -24 -48 -54z"/>
<path d="M4952 10127 c-23 -67 -42 -130 -42 -139 0 -28 26 -21 50 12 28 39 40
38 40 -5 0 -25 4 -35 16 -35 12 0 14 10 12 48 -3 46 -4 47 -35 47 -18 0 -33 0
-33 1 0 1 11 30 24 65 33 90 41 129 24 129 -8 0 -30 -49 -56 -123z"/>
<path d="M6592 10228 c0 -13 -16 -71 -36 -130 -20 -59 -36 -112 -36 -118 0
-22 28 -8 70 35 24 25 48 45 52 45 4 0 5 -21 1 -46 -5 -37 -3 -46 8 -42 18 6
33 60 25 92 -8 34 -44 34 -81 0 -20 -19 -26 -21 -20 -7 16 36 45 148 45 170 0
13 -6 23 -14 23 -7 0 -14 -10 -14 -22z"/>
<path d="M5184 10179 c-3 -6 -2 -15 2 -19 12 -12 38 5 30 19 -9 14 -23 14 -32
0z"/>
<path d="M3993 10135 c-22 -15 -22 -18 -7 -46 23 -46 15 -83 -18 -87 -16 -2
-28 1 -28 7 0 6 5 11 10 11 6 0 10 7 10 15 0 18 -11 19 -45 3 -45 -20 -25 -53
41 -68 63 -14 90 39 63 130 -3 10 6 16 29 20 18 3 34 10 35 15 3 17 -66 17
-90 0z"/>
<path d="M6000 10136 c-37 -12 -41 -26 -25 -101 5 -23 1 -37 -13 -55 l-19 -24
-18 21 c-20 24 -45 20 -45 -7 0 -12 12 -22 35 -30 30 -10 40 -9 60 4 36 24 42
63 23 146 -2 11 7 15 37 16 26 0 40 5 40 14 0 20 -37 29 -75 16z"/>
<path d="M2972 10130 c-32 -13 -37 -35 -22 -92 10 -43 10 -52 -2 -65 -14 -13
-18 -11 -37 13 -15 20 -25 24 -32 17 -15 -15 18 -61 50 -69 18 -5 29 -1 43 16
21 26 22 48 6 101 -6 22 -8 42 -5 46 4 3 25 6 47 5 45 -2 47 0 24 22 -17 18
-38 19 -72 6z"/>
<path d="M6181 10089 c-19 -28 -50 -64 -70 -80 -25 -20 -32 -32 -24 -40 7 -7
14 -7 25 3 16 15 55 38 63 38 4 0 3 -5 0 -10 -13 -22 27 -22 50 0 l23 22 4
-23 c2 -13 11 -25 21 -27 14 -3 17 1 12 21 -4 14 -2 41 3 61 15 53 -3 55 -49
5 -42 -48 -50 -40 -19 21 39 77 12 84 -39 9z"/>
<path d="M6418 10128 c-47 -37 -73 -123 -44 -147 21 -17 91 -10 91 9 0 11 -9
14 -37 12 -31 -3 -38 0 -38 15 0 29 38 83 65 93 14 5 25 14 25 20 0 14 -43 13
-62 -2z"/>
<path d="M1228 10123 c-10 -2 -18 -7 -18 -10 0 -11 54 -118 67 -134 12 -15 10
-24 -20 -70 -70 -110 -87 -159 -57 -159 5 0 18 19 28 43 10 23 42 79 70 124
59 94 104 184 96 192 -11 12 -40 -18 -54 -57 -26 -69 -35 -70 -62 -10 -20 43
-22 55 -11 61 7 5 11 12 8 18 -6 9 -18 10 -47 2z"/>
<path d="M7160 10115 c-8 -9 -10 -25 -5 -42 12 -47 11 -86 -2 -90 -7 -3 -13 2
-13 11 0 10 -6 13 -15 10 -24 -10 -18 -43 11 -56 23 -11 29 -10 46 12 20 24
21 63 3 117 -6 17 -3 22 16 25 12 2 24 9 27 16 6 18 -53 16 -68 -3z"/>
<path d="M8062 10118 c5 -15 28 -18 29 -3 0 6 -7 12 -17 13 -10 3 -15 -1 -12
-10z"/>
<path d="M4594 10110 c-47 -19 -71 -100 -44 -151 17 -31 101 -18 115 19 9 23
0 25 -35 7 -39 -20 -60 -14 -60 20 0 19 5 25 23 25 50 0 84 49 55 78 -14 14
-24 14 -54 2z m26 -40 c-20 -13 -43 -13 -35 0 3 6 16 10 28 10 18 0 19 -2 7
-10z"/>
<path d="M3281 10084 c-11 -14 -23 -42 -27 -62 -18 -96 60 -134 141 -68 22 18
27 28 19 36 -8 8 -18 5 -37 -10 -37 -29 -75 -30 -94 -2 -15 21 -14 22 15 22
54 0 80 51 48 93 -19 24 -41 21 -65 -9z m46 -31 c2 -6 -4 -13 -13 -17 -21 -8
-26 -3 -18 18 7 18 25 17 31 -1z"/>
<path d="M4414 10091 c-17 -10 -42 -17 -55 -14 -36 6 -99 -59 -99 -103 0 -25
23 -11 49 29 22 33 25 35 37 19 12 -16 14 -16 36 4 13 12 35 29 50 38 l27 18
-2 -41 c-3 -53 16 -53 26 -1 14 72 -8 88 -69 51z"/>
<path d="M8163 10089 c-36 -23 -40 -35 -18 -63 23 -31 18 -46 -15 -46 -37 0
-41 -25 -5 -34 40 -10 65 9 65 49 0 18 -4 37 -10 40 -17 11 -11 25 15 37 26
12 35 38 13 38 -7 0 -28 -10 -45 -21z"/>
<path d="M4141 10073 c-37 -37 -42 -86 -12 -103 29 -15 39 -13 66 15 31 30 32
56 1 91 l-23 28 -32 -31z m39 -32 c7 -15 6 -23 -6 -35 -9 -9 -20 -13 -25 -10
-12 7 -8 46 6 56 14 10 13 11 25 -11z"/>
<path d="M5257 10075 c-20 -14 -37 -30 -37 -35 0 -6 -5 -9 -11 -7 -11 2 -40
-69 -31 -78 14 -13 29 -1 56 45 44 73 75 81 57 14 -7 -27 -7 -41 0 -51 18 -21
27 -7 34 58 6 47 4 63 -6 70 -19 12 -20 12 -62 -16z"/>
<path d="M6972 10083 c-33 -16 -62 -57 -62 -88 0 -20 48 -20 77 0 21 15 23 14
31 -17 6 -26 14 -34 35 -36 29 -4 37 15 12 24 -10 4 -15 20 -15 48 0 38 -21
86 -38 86 -4 0 -22 -8 -40 -17z m13 -48 c-16 -13 -31 -22 -34 -20 -8 8 32 45
48 45 11 -1 7 -8 -14 -25z"/>
<path d="M1466 10074 c-21 -20 -56 -97 -56 -122 0 -57 70 -44 104 18 16 30 17
41 7 78 -12 45 -29 53 -55 26z m34 -54 c0 -21 -45 -78 -54 -69 -7 7 12 68 27
86 12 16 27 7 27 -17z"/>
<path d="M1621 10039 c-19 -27 -46 -59 -60 -69 -20 -14 -23 -22 -15 -30 14
-14 48 4 63 35 9 18 10 18 10 1 1 -15 7 -17 32 -14 27 4 31 1 36 -24 7 -35 40
-57 50 -32 3 9 0 20 -7 24 -9 6 -11 21 -7 54 6 40 4 46 -12 46 -10 0 -26 -9
-36 -20 -25 -28 -29 -19 -11 25 19 45 20 55 4 55 -7 0 -29 -23 -47 -51z"/>
<path d="M2194 10073 c-10 -10 -27 -18 -36 -18 -10 0 -18 -3 -18 -8 0 -4 -7
-23 -15 -43 -24 -58 2 -77 31 -22 16 31 51 67 67 68 4 0 3 -9 -3 -19 -14 -26
-13 -51 2 -51 7 0 27 14 45 32 l33 32 0 -52 c0 -40 3 -52 15 -52 13 0 15 11
13 63 -3 62 -3 62 -33 62 -16 0 -36 6 -43 13 -18 17 -35 15 -58 -5z"/>
<path d="M3103 10058 c-29 -31 -31 -36 -23 -77 4 -24 14 -47 21 -52 20 -13 63
-11 77 3 20 20 13 27 -25 25 -32 -2 -38 1 -41 20 -3 17 3 24 22 29 30 7 58 47
50 68 -10 26 -48 18 -81 -16z m42 3 c3 -5 2 -12 -3 -15 -5 -3 -9 1 -9 9 0 17
3 19 12 6z"/>
<path d="M5126 10049 c-10 -49 -7 -69 8 -69 15 0 32 72 21 90 -11 18 -22 10
-29 -21z"/>
<path d="M5445 10048 c-13 -30 -14 -30 -9 -5 10 45 -23 35 -36 -12 -18 -67 4
-90 47 -49 22 20 23 20 22 2 0 -10 -3 -37 -7 -59 -7 -36 -11 -40 -42 -45 -29
-4 -39 -12 -57 -50 -38 -73 -28 -180 16 -180 27 0 47 28 69 100 18 59 22 65
45 62 36 -4 43 16 12 30 -22 10 -26 17 -21 37 22 98 15 201 -14 201 -5 0 -17
-15 -25 -32z m-10 -230 c-13 -59 -46 -138 -56 -133 -30 19 8 165 43 165 17 0
19 -4 13 -32z"/>
<path d="M2414 10034 c-36 -38 -43 -64 -20 -83 11 -10 20 -10 36 -1 18 9 24 8
34 -6 19 -25 36 -9 30 29 -11 61 -12 62 -42 34 -16 -15 -31 -27 -35 -27 -15 0
24 47 49 59 14 6 22 16 19 21 -12 19 -38 10 -71 -26z"/>
<path d="M2652 10058 c-7 -7 -12 -18 -12 -25 0 -17 -22 -63 -30 -63 -4 0 -15
16 -24 35 -30 62 -53 55 -33 -10 6 -21 19 -40 29 -43 10 -2 18 -6 18 -8 0 -14
-75 -190 -83 -195 -12 -8 -1 -59 14 -59 5 0 12 8 15 18 10 32 66 176 102 260
23 54 32 86 26 92 -7 7 -14 6 -22 -2z"/>
<path d="M8027 10013 c-4 -20 -3 -41 0 -46 10 -16 33 23 33 55 0 42 -26 35
-33 -9z"/>
<path d="M8284 9949 c-10 -17 13 -36 27 -22 12 12 4 33 -11 33 -5 0 -12 -5
-16 -11z"/>
<path d="M6150 9423 c-34 -12 -50 -47 -50 -110 0 -56 -3 -63 -31 -87 -17 -14
-35 -24 -40 -20 -15 9 -49 -6 -49 -21 0 -15 24 -22 73 -23 54 0 73 -39 39 -83
-33 -43 -42 -82 -25 -116 18 -38 49 -52 90 -41 37 10 50 25 34 41 -8 8 -14 8
-23 -1 -27 -27 -78 -7 -78 31 0 11 14 44 30 73 30 51 30 54 16 83 -9 16 -25
33 -37 36 -21 7 -21 7 -1 21 27 19 45 75 37 117 -9 47 22 81 66 72 22 -5 29
-3 29 8 0 23 -42 34 -80 20z"/>
<path d="M5645 9394 c-30 -33 -48 -108 -47 -203 1 -72 -1 -78 -34 -117 -35
-44 -41 -59 -24 -69 5 -3 22 12 38 34 l29 40 17 -35 c13 -29 21 -35 44 -32 19
2 28 9 30 26 4 24 -7 29 -26 10 -9 -9 -15 -3 -27 26 -15 35 -15 39 4 69 32 53
61 157 61 219 0 52 -2 58 -20 58 -12 0 -32 -11 -45 -26z m20 -130 c-9 -30 -13
-59 -10 -63 2 -5 -2 -11 -10 -15 -29 -11 -13 144 19 183 19 24 20 -41 1 -105z"/>
<path d="M5384 9346 c-19 -19 -41 -33 -48 -30 -14 5 -24 -28 -32 -106 -2 -25
-9 -69 -14 -98 -5 -28 -7 -59 -4 -67 10 -24 34 -17 34 10 0 38 21 125 30 125
11 0 50 -67 54 -93 2 -12 -1 -27 -6 -34 -13 -16 30 -39 45 -24 13 13 -6 80
-38 132 l-24 37 27 11 c54 23 85 57 84 91 -1 41 -27 80 -53 80 -12 0 -37 -16
-55 -34z m72 -23 c4 -14 3 -33 -3 -42 -12 -20 -80 -58 -88 -50 -10 11 26 89
48 104 30 21 36 19 43 -12z"/>
<path d="M5011 9295 c-12 -31 -21 -60 -21 -65 0 -5 -25 -46 -55 -91 -57 -85
-66 -109 -40 -109 8 0 15 5 15 10 0 6 14 29 31 53 l31 42 -7 -38 c-9 -44 14
-87 46 -87 11 0 43 23 72 53 l52 52 0 -60 c0 -45 4 -60 15 -63 12 -2 15 11 17
70 1 49 11 107 32 177 18 57 30 106 27 108 -14 14 -33 -11 -55 -73 -34 -98
-54 -133 -101 -181 -61 -64 -74 -59 -67 25 3 37 17 99 31 138 30 82 31 94 12
94 -8 0 -23 -24 -35 -55z"/>
<path d="M8504 8985 c-4 -9 -3 -44 2 -78 7 -45 13 -62 24 -62 9 0 14 8 12 20
-1 11 -4 45 -6 75 -3 53 -20 77 -32 45z"/>
<path d="M7396 8932 c-8 -14 5 -101 16 -108 20 -12 27 12 17 56 -11 48 -23 68
-33 52z"/>
<path d="M6815 8898 c-3 -13 -5 -89 -3 -168 3 -128 5 -145 20 -148 16 -3 17 9
13 165 -2 100 -8 169 -14 171 -6 2 -13 -7 -16 -20z"/>
<path d="M7557 8858 c-23 -96 -18 -228 8 -228 8 0 23 14 35 30 27 38 43 34 50
-11 3 -22 11 -35 23 -37 16 -3 17 1 11 35 -8 46 -29 83 -49 83 -8 0 -23 -9
-33 -21 l-20 -20 -6 26 c-4 14 -2 53 4 86 6 33 8 64 5 69 -10 17 -23 11 -28
-12z"/>
<path d="M6089 8853 c-1 -5 -1 -30 0 -58 2 -57 -6 -74 -37 -80 -29 -5 -42 -14
-42 -27 0 -6 13 -8 33 -4 l32 6 -3 -55 c-3 -45 -1 -55 12 -55 12 0 16 10 16
38 0 67 8 81 44 79 39 -3 45 15 9 27 -35 11 -40 19 -36 58 3 42 -5 78 -17 78
-6 0 -11 -3 -11 -7z"/>
<path d="M7785 8823 c8 -22 8 -18 6 -71 -1 -42 -2 -43 -33 -40 -40 4 -50 -19
-11 -27 50 -11 53 -14 53 -40 0 -16 6 -25 16 -25 13 0 15 8 12 34 -3 31 -1 35
25 40 36 7 30 32 -7 28 -21 -2 -26 1 -26 21 0 12 -5 28 -12 35 -9 9 -9 12 0
12 7 0 12 11 12 25 0 19 -5 25 -21 25 -16 0 -19 -4 -14 -17z"/>
<path d="M7947 8833 c-4 -3 -7 -30 -7 -58 0 -50 -1 -52 -25 -47 -36 6 -33 -25
3 -33 20 -4 31 -14 38 -37 5 -18 15 -34 23 -36 10 -3 12 4 6 36 -6 39 -5 41
22 44 38 4 35 22 -4 26 -33 3 -33 4 -33 58 0 50 -7 64 -23 47z"/>
<path d="M7055 8811 c-8 -15 3 -31 21 -31 9 0 14 7 12 17 -4 20 -24 28 -33 14z"/>
<path d="M5600 8747 c-39 -20 -67 -71 -75 -136 -7 -64 9 -141 31 -141 12 0 17
16 29 96 5 34 11 42 38 50 54 16 96 101 65 132 -15 15 -56 15 -88 -1z m65 -27
c8 -13 -21 -66 -40 -74 -28 -10 -38 -7 -26 8 10 11 9 16 -4 24 -15 8 -14 12
10 30 30 24 50 28 60 12z m-101 -125 c-4 -8 -8 -15 -10 -15 -2 0 -4 7 -4 15 0
8 4 15 10 15 5 0 7 -7 4 -15z"/>
<path d="M6631 8727 c-6 -14 -15 -28 -20 -32 -17 -10 -13 -60 7 -78 25 -23 57
-21 82 5 36 39 16 107 -37 123 -18 5 -25 1 -32 -18z m55 -52 c7 -18 -13 -45
-33 -45 -17 0 -27 24 -19 45 7 20 45 19 52 0z"/>
<path d="M8317 8744 c-11 -11 3 -24 24 -24 12 0 19 5 17 13 -5 14 -31 21 -41
11z"/>
<path d="M5761 8706 c-30 -32 -55 -140 -36 -156 17 -14 21 -6 30 59 8 61 35
96 66 86 17 -6 20 -3 17 12 -5 29 -50 28 -77 -1z"/>
<path d="M6258 8709 c-48 -36 -31 -119 23 -119 27 0 68 49 69 82 0 20 -8 31
-30 43 -35 18 -29 19 -62 -6z m57 -29 c9 -15 -23 -62 -38 -57 -14 4 -21 32
-13 53 6 16 42 19 51 4z"/>
<path d="M6442 8723 c-24 -9 -44 -61 -32 -84 26 -48 102 -71 155 -47 32 14 34
39 3 32 -13 -3 -33 -8 -44 -11 -29 -7 -84 23 -84 46 0 22 25 45 40 36 15 -9
30 3 23 20 -5 15 -35 19 -61 8z"/>
<path d="M8102 8710 c-13 -12 -28 -17 -38 -13 -14 5 -16 2 -12 -22 3 -15 -1
-43 -8 -61 -11 -27 -12 -43 -3 -79 11 -45 37 -62 41 -27 1 9 2 24 4 32 1 8 2
25 3 37 1 18 8 22 38 25 25 2 42 11 56 30 20 27 20 29 4 63 -19 41 -51 46 -85
15z m57 -27 c13 -25 -5 -53 -34 -53 -30 0 -33 24 -8 52 20 22 29 23 42 1z"/>
<path d="M5883 8683 c-39 -35 -47 -66 -23 -95 15 -19 22 -21 46 -13 16 6 35
22 44 37 14 25 13 31 -4 63 -11 19 -22 35 -25 35 -4 0 -21 -12 -38 -27z m44
-39 c6 -17 -28 -47 -39 -36 -15 15 1 54 20 50 8 -2 17 -8 19 -14z"/>
<path d="M7050 8696 c0 -18 16 -29 30 -21 13 8 1 35 -16 35 -8 0 -14 -6 -14
-14z"/>
<path d="M8322 8646 c1 -10 8 -17 13 -17 15 1 12 24 -3 29 -9 3 -13 -2 -10
-12z"/>
<path d="M8664 8583 c4 -9 -4 -32 -19 -54 -27 -42 -33 -71 -12 -63 20 7 67 85
67 111 0 17 -6 23 -21 23 -16 0 -19 -4 -15 -17z"/>
<path d="M5790 8327 c0 -71 -4 -127 -10 -133 -7 -7 -4 -16 10 -29 12 -11 24
-15 28 -9 4 5 6 73 4 152 -2 116 -6 142 -18 142 -11 0 -14 -22 -14 -123z"/>
<path d="M7538 8425 c-3 -4 -4 -31 -1 -61 l6 -54 -37 0 c-25 0 -36 -4 -36 -15
0 -10 11 -15 35 -15 l35 0 0 -56 c0 -40 3 -54 13 -51 11 3 14 17 16 90 1 20 6
27 21 27 11 0 20 7 20 15 0 8 -9 15 -20 15 -16 0 -20 7 -20 38 0 38 -20 79
-32 67z"/>
<path d="M6292 8275 c-3 -158 5 -178 43 -108 26 49 43 53 47 11 2 -22 9 -34
21 -36 16 -3 17 1 11 35 -13 75 -36 91 -74 53 -19 -19 -19 -18 -17 83 2 83 -1
102 -13 105 -13 2 -15 -20 -18 -143z"/>
<path d="M5563 8329 c-48 -31 -44 -48 21 -92 26 -17 35 -28 25 -31 -8 -2 -21
-6 -30 -9 -9 -3 -21 -1 -26 4 -12 12 -48 -15 -39 -29 15 -25 122 -3 141 28 8
14 -20 47 -57 66 -33 17 -35 29 -8 44 14 7 26 8 39 0 25 -13 38 4 21 25 -17
21 -49 18 -87 -6z"/>
<path d="M7043 8325 c-3 -9 -3 -18 0 -21 9 -9 27 6 27 22 0 19 -19 18 -27 -1z"/>
<path d="M8017 8329 c-9 -5 -23 -22 -31 -37 -18 -35 -2 -87 37 -116 l27 -20
45 22 c47 23 63 54 23 47 -12 -3 -26 -9 -32 -15 -16 -16 -54 -12 -65 7 -8 14
-4 19 22 28 42 13 61 60 32 81 -22 16 -34 17 -58 3z m29 -44 c-26 -19 -42 -19
-26 0 7 8 20 15 29 15 13 -1 13 -3 -3 -15z"/>
<path d="M6677 8290 c-35 -27 -34 -42 3 -73 36 -31 37 -37 5 -37 -15 0 -25 -6
-25 -14 0 -31 82 -24 88 8 2 10 -10 33 -29 52 -18 18 -31 36 -28 38 2 2 20 8
39 13 43 11 45 27 4 31 -19 2 -40 -5 -57 -18z"/>
<path d="M6138 8289 c-24 -14 -23 -22 12 -59 44 -47 38 -78 -10 -48 -10 7 -22
9 -26 6 -12 -13 5 -37 32 -44 60 -15 83 42 38 96 l-27 32 24 -4 c16 -2 24 2
24 12 0 18 -43 24 -67 9z"/>
<path d="M7897 8293 c-4 -3 -7 -21 -7 -39 0 -18 -5 -36 -10 -39 -18 -11 -51 6
-61 31 -11 30 -29 23 -29 -10 0 -26 13 -40 48 -51 41 -12 70 2 81 40 13 49 0
91 -22 68z"/>
<path d="M5901 8259 c-10 -17 -16 -39 -14 -50 8 -27 49 -36 73 -14 18 16 20
16 43 -10 31 -37 56 -25 27 12 -11 14 -20 36 -20 49 0 26 -26 44 -64 44 -19 0
-32 -9 -45 -31z m59 -14 c0 -8 -9 -19 -20 -25 -15 -8 -20 -8 -20 3 0 14 19 37
32 37 4 0 8 -7 8 -15z"/>
<path d="M6488 8273 c-48 -56 -13 -138 57 -135 38 2 69 18 60 32 -3 5 -22 6
-44 3 -49 -7 -61 11 -27 38 28 22 33 48 14 67 -17 17 -42 15 -60 -5z m28 -40
c-10 -10 -19 5 -10 18 6 11 8 11 12 0 2 -7 1 -15 -2 -18z"/>
<path d="M7668 8273 c-27 -30 -29 -143 -3 -143 11 0 15 11 15 43 0 65 8 86 32
79 16 -4 19 -1 16 14 -4 25 -40 29 -60 7z"/>
<path d="M7036 8223 c-13 -13 -6 -63 9 -63 10 0 15 10 15 29 0 30 -12 46 -24
34z"/>
<path d="M8247 8204 c-4 -4 -4 -17 -1 -28 3 -14 -6 -37 -25 -66 -28 -42 -31
-60 -10 -60 19 0 70 94 67 124 -3 29 -18 43 -31 30z"/>
<path d="M6209 8008 c-13 -31 -28 -253 -18 -263 6 -6 23 6 48 35 22 25 42 42
46 38 4 -4 10 -30 14 -58 8 -65 25 -69 29 -7 5 82 -42 123 -91 80 -20 -18 -20
-17 -14 74 4 57 3 94 -3 98 -6 3 -11 5 -11 3z"/>
<path d="M7935 7878 c1 -62 -2 -121 -7 -130 -6 -12 -3 -20 12 -28 21 -11 44
-5 35 10 -3 5 -6 57 -6 116 0 101 -9 144 -28 144 -4 0 -7 -51 -6 -112z"/>
<path d="M6064 7895 l-9 -75 -29 15 c-15 8 -32 12 -38 9 -13 -8 18 -41 47 -48
21 -5 24 -13 27 -59 2 -37 7 -52 18 -52 11 0 13 12 11 53 -1 28 1 52 6 53 48
4 73 16 73 35 0 11 -5 14 -16 10 -64 -25 -64 -25 -62 54 4 101 -16 104 -28 5z"/>
<path d="M7808 7953 c-2 -4 -2 -59 0 -120 3 -91 6 -113 18 -113 12 0 14 19 12
117 -2 77 -7 118 -15 120 -6 2 -13 0 -15 -4z"/>
<path d="M7448 7874 c-16 -8 -28 -19 -28 -24 0 -5 -8 -9 -17 -7 -22 3 -23 0
-23 -68 0 -67 24 -78 34 -16 7 46 46 98 65 86 8 -5 12 -25 9 -59 -3 -45 -1
-51 17 -51 18 0 20 6 17 55 -3 51 -23 101 -40 100 -4 -1 -19 -8 -34 -16z"/>
<path d="M6945 7850 c-8 -12 20 -24 35 -15 6 3 8 11 5 16 -8 12 -32 12 -40 -1z"/>
<path d="M5556 7817 c-40 -38 -53 -76 -36 -106 14 -27 50 -27 83 -1 22 17 26
18 37 5 14 -16 60 -21 60 -6 0 6 -10 17 -21 25 -18 12 -21 22 -16 50 4 25 1
38 -12 50 -27 25 -56 19 -95 -17z m67 -3 c17 -17 -36 -94 -65 -94 -19 0 -6 53
18 75 28 26 36 29 47 19z"/>
<path d="M5777 7833 c-13 -12 -7 -41 18 -90 38 -77 87 -87 134 -27 23 30 27
64 9 82 -20 20 -31 14 -24 -14 9 -35 -18 -76 -46 -72 -25 4 -32 16 -49 81 -11
43 -25 57 -42 40z"/>
<path d="M7688 7795 c-3 -25 -11 -52 -19 -61 -11 -14 -14 -13 -25 8 -8 13 -13
38 -14 56 0 22 -5 32 -15 32 -22 0 -19 -68 5 -107 38 -63 89 -28 98 68 4 39 1
49 -10 49 -11 0 -17 -14 -20 -45z"/>
<path d="M8166 7782 c-10 -16 -46 -118 -46 -129 0 -7 5 -13 11 -13 14 0 52 88
45 106 -3 9 -1 12 4 9 6 -3 10 3 10 14 0 21 -14 28 -24 13z"/>
<path d="M6937 7743 c-11 -10 -8 -43 3 -43 15 0 24 30 13 41 -5 5 -12 6 -16 2z"/>
<path d="M9303 7624 c-16 -16 -18 -134 -3 -134 17 0 21 23 18 87 -2 49 -5 58
-15 47z"/>
<path d="M8657 7553 c-9 -8 -9 -240 -1 -270 4 -13 12 -23 19 -23 9 0 11 29 7
123 -2 67 -9 130 -14 140 -5 9 -6 22 -3 27 7 11 2 13 -8 3z"/>
<path d="M6281 7513 c-6 -21 -11 -48 -11 -60 0 -22 -4 -25 -45 -27 -31 -2 -24
-30 8 -34 26 -3 27 -6 27 -57 0 -35 6 -60 18 -75 22 -27 89 -37 116 -17 27 20
12 39 -21 26 -27 -10 -63 -3 -75 15 -4 6 -8 34 -8 62 l0 51 70 7 c54 6 70 11
70 23 0 13 -10 14 -66 8 l-67 -7 7 39 c11 67 11 76 -1 80 -7 2 -16 -12 -22
-34z"/>
<path d="M7288 7544 c-8 -7 2 -73 14 -98 16 -31 27 -4 20 48 -6 46 -20 65 -34
50z"/>
<path d="M8955 7520 c-3 -5 -4 -14 -1 -19 7 -10 46 -9 46 2 0 4 0 12 0 17 0 6
-9 10 -19 10 -11 0 -23 -4 -26 -10z"/>
<path d="M5609 7513 c-1 -4 -2 -68 -3 -140 -1 -146 6 -162 42 -88 12 25 27 45
32 45 13 0 40 -61 40 -90 0 -15 5 -20 18 -18 21 4 18 35 -8 96 -15 32 -24 42
-42 42 -13 0 -29 -5 -36 -12 -12 -12 -14 3 -16 136 -1 26 -24 51 -27 29z"/>
<path d="M6555 7481 c-8 -15 3 -31 21 -31 9 0 14 7 12 17 -4 20 -24 28 -33 14z"/>
<path d="M9105 7449 c-4 -6 2 -20 13 -32 31 -34 37 -65 16 -88 -21 -23 -40
-24 -48 -3 -10 27 -7 43 14 62 17 16 18 21 7 30 -11 9 -17 8 -29 -6 -26 -29
-38 -60 -31 -79 20 -56 68 -69 108 -28 32 31 32 70 0 118 -27 38 -39 45 -50
26z"/>
<path d="M8520 7433 c-14 -3 -33 -12 -42 -20 -22 -19 -24 -81 -5 -108 22 -29
38 -9 35 43 -3 45 -2 47 24 45 16 -1 29 5 32 14 6 16 -1 34 -12 32 -4 -1 -18
-4 -32 -6z"/>
<path d="M8970 7430 c-17 -11 -22 -142 -5 -150 8 -4 30 148 22 156 -1 2 -9 -1
-17 -6z"/>
<path d="M8112 7395 c-19 -24 -20 -24 -25 -5 -3 11 -10 20 -16 20 -7 0 -11
-27 -11 -74 0 -103 22 -112 48 -20 7 22 21 49 33 59 l20 19 -2 -62 c-2 -61 9
-91 29 -78 10 6 7 88 -4 144 -6 31 -47 29 -72 -3z"/>
<path d="M8281 7394 c-12 -15 -21 -38 -21 -51 0 -28 59 -93 84 -93 25 0 73 27
79 44 9 22 -11 30 -31 13 -28 -23 -48 -26 -71 -11 -26 19 -27 30 -1 37 23 6
45 49 37 71 -10 25 -53 19 -76 -10z m43 -19 c-6 -16 -24 -21 -24 -7 0 11 11
22 21 22 5 0 6 -7 3 -15z"/>
<path d="M7532 7403 c-8 -3 -22 -19 -32 -36 l-19 -31 -11 28 c-9 24 -13 26
-26 16 -10 -9 -12 -16 -4 -24 5 -5 10 -34 10 -63 0 -40 4 -53 15 -53 8 0 15 6
15 14 0 17 48 103 62 112 17 11 32 -14 38 -64 3 -32 10 -47 20 -47 18 0 15 76
-6 116 -10 21 -38 43 -47 38 -1 0 -8 -3 -15 -6z"/>
<path d="M7921 7384 c-12 -9 -21 -11 -21 -5 0 6 -7 11 -15 11 -12 0 -15 -13
-15 -59 0 -33 4 -62 10 -66 5 -3 19 17 31 45 12 27 25 50 29 50 10 0 30 -47
30 -70 0 -24 20 -37 30 -20 13 21 -21 115 -45 124 -7 2 -22 -2 -34 -10z"/>
<path d="M6042 7374 c-31 -21 -27 -45 13 -84 19 -19 35 -38 35 -42 0 -13 -22
-9 -41 8 -19 17 -49 13 -49 -6 0 -18 66 -43 94 -36 38 10 34 47 -10 92 -39 38
-35 54 14 54 13 0 22 6 22 15 0 20 -49 20 -78 -1z"/>
<path d="M7707 7373 c-27 -31 -30 -67 -8 -94 19 -23 21 -24 50 -7 29 16 30 16
46 -8 8 -13 20 -24 25 -24 13 0 13 37 1 44 -5 4 -12 24 -16 46 -10 57 -63 81
-98 43z m63 -19 c0 -11 -34 -64 -41 -64 -12 0 -17 25 -8 48 7 19 49 33 49 16z"/>
<path d="M5855 7363 c-53 -53 -31 -143 36 -143 60 0 79 82 30 131 -34 33 -43
35 -66 12z m50 -43 c25 -27 13 -73 -18 -68 -16 2 -23 11 -25 31 -7 56 12 71
43 37z"/>
<path d="M6554 7365 c-8 -19 22 -49 41 -41 17 6 20 26 5 26 -5 0 -10 7 -10 15
0 19 -29 20 -36 0z"/>
<path d="M8774 7295 c-8 -21 10 -39 30 -32 22 9 20 24 -4 37 -16 9 -22 8 -26
-5z"/>
<path d="M9375 7243 c-23 -55 -28 -80 -16 -87 10 -6 61 91 61 115 0 24 -32 4
-45 -28z"/>
<path d="M6296 7098 c-2 -7 -8 -31 -12 -53 -8 -34 -13 -41 -36 -43 -36 -4 -38
-32 -3 -32 22 0 25 -4 25 -33 0 -58 66 -99 123 -78 24 10 26 13 15 31 -15 24
-27 25 -42 5 -18 -24 -60 3 -64 41 -3 36 19 47 69 37 22 -4 29 -2 29 11 0 18
-40 31 -71 23 -18 -5 -20 -2 -13 26 4 18 8 41 8 51 1 22 -22 34 -28 14z"/>
<path d="M7911 7058 c1 -18 -2 -70 -6 -115 -8 -87 -4 -116 17 -108 12 5 14 23
21 210 2 30 -2 40 -16 43 -14 3 -17 -3 -16 -30z"/>
<path d="M7796 7063 c-4 -16 -10 -208 -7 -240 0 -7 8 -13 16 -13 12 0 15 18
17 98 1 113 1 113 11 129 10 15 -2 43 -18 43 -8 0 -16 -8 -19 -17z"/>
<path d="M6557 7024 c-14 -14 -7 -35 11 -32 9 2 17 10 17 17 0 16 -18 25 -28
15z"/>
<path d="M7371 6928 c-1 -40 -3 -84 -4 -98 -4 -46 26 -28 39 23 12 47 38 87
56 87 4 0 8 -27 8 -61 0 -52 2 -60 17 -57 13 2 18 13 18 43 1 90 -26 130 -69
102 -18 -13 -22 -12 -31 6 -21 43 -32 29 -34 -45z"/>
<path d="M6048 6954 c-22 -11 -28 -22 -28 -47 0 -43 24 -77 41 -59 10 9 10 15
1 24 -29 29 -1 71 39 61 24 -7 26 22 3 31 -21 8 -25 8 -56 -10z"/>
<path d="M5877 6940 c-51 -40 -43 -100 14 -100 65 0 88 41 53 95 -20 30 -33
31 -67 5z m53 -51 c0 -13 -27 -22 -45 -15 -13 4 -14 10 -5 26 9 16 15 18 30
10 11 -6 20 -15 20 -21z"/>
<path d="M7567 6953 c-4 -3 -7 -30 -7 -60 0 -85 55 -123 99 -67 26 33 38 91
22 107 -9 9 -14 8 -21 -3 -5 -8 -7 -17 -4 -22 6 -10 -23 -78 -33 -78 -21 0
-33 28 -33 77 0 49 -7 63 -23 46z"/>
<path d="M5671 6926 c-12 -13 -30 -23 -39 -22 -12 1 -16 -5 -14 -19 2 -11 4
-60 4 -108 1 -75 4 -87 17 -85 13 3 17 19 19 76 3 70 4 72 28 72 38 0 64 18
79 53 17 40 5 57 -39 57 -21 0 -40 -8 -55 -24z m69 -13 c0 -12 -33 -43 -47
-43 -18 0 -17 15 3 34 15 16 44 22 44 9z"/>
<path d="M6542 6858 c2 -13 8 -23 13 -23 6 0 11 10 13 23 2 15 -2 22 -13 22
-11 0 -15 -7 -13 -22z"/>
<path d="M8021 6794 c-34 -72 -38 -94 -18 -94 12 1 67 113 67 137 0 34 -22 16
-49 -43z"/>
<path d="M9197 6713 c-3 -5 -7 -76 -8 -158 -2 -133 0 -150 14 -153 15 -3 17
13 19 142 0 80 1 151 2 158 1 14 -20 22 -27 11z"/>
<path d="M9882 6648 c3 -52 14 -64 32 -35 13 21 -2 87 -20 87 -12 0 -14 -11
-12 -52z"/>
<path d="M6277 6663 c-3 -5 -8 -27 -12 -50 -4 -27 -12 -43 -21 -43 -8 0 -14
-7 -14 -15 0 -8 5 -15 10 -15 6 0 10 -27 10 -60 0 -51 4 -64 28 -91 26 -29 31
-31 70 -24 28 4 42 12 42 22 0 12 -8 14 -36 10 -50 -8 -74 18 -74 82 l0 49 62
9 c38 5 63 13 66 22 4 12 -7 13 -57 8 l-63 -7 7 33 c4 17 9 42 12 55 4 15 1
22 -10 22 -9 0 -18 -3 -20 -7z"/>
<path d="M7776 6649 c-3 -8 -7 -34 -8 -59 -3 -39 0 -45 17 -45 18 0 20 6 17
50 -4 52 -17 79 -26 54z"/>
<path d="M9540 6600 c0 -22 7 -25 29 -11 16 10 6 31 -15 31 -8 0 -14 -9 -14
-20z"/>
<path d="M5690 6471 c0 -77 4 -132 10 -136 6 -3 13 2 16 12 28 89 57 105 62
34 2 -27 7 -41 15 -38 14 4 21 50 13 83 -8 29 -49 42 -72 23 -14 -12 -16 -7
-14 51 3 91 2 100 -15 100 -13 0 -15 -21 -15 -129z"/>
<path d="M7367 6544 c-14 -14 -7 -25 13 -22 12 2 21 8 21 13 0 12 -24 18 -34
9z"/>
<path d="M8996 6525 c-31 -33 -40 -73 -26 -109 15 -41 35 -26 38 30 1 27 9 55
17 63 13 13 17 13 33 -2 26 -24 34 -21 30 11 -2 22 -8 28 -35 30 -25 3 -39 -3
-57 -23z"/>
<path d="M6475 6518 c-2 -7 -3 -47 -2 -88 1 -57 5 -75 16 -75 9 0 19 19 27 48
21 81 54 104 54 38 0 -49 8 -71 26 -71 13 0 12 47 -2 118 -6 28 -46 30 -71 2
-18 -19 -19 -19 -18 7 0 28 -22 44 -30 21z"/>
<path d="M7156 6496 c-31 -32 -33 -38 -26 -72 11 -49 38 -74 86 -81 45 -5 87
17 68 37 -9 9 -16 9 -31 -1 -26 -16 -74 0 -84 29 -8 20 -5 22 25 22 58 0 87
54 44 84 -32 23 -43 20 -82 -18z m64 -21 c-7 -8 -21 -15 -32 -15 -17 0 -18 3
-8 15 7 8 21 15 32 15 17 0 18 -3 8 -15z"/>
<path d="M8386 6513 c-2 -10 -6 -45 -8 -78 -2 -46 0 -60 11 -60 8 0 19 14 25
30 16 43 35 75 46 75 5 0 10 -26 12 -57 2 -44 7 -58 18 -58 12 0 14 12 12 60
-5 82 -31 107 -72 70 -15 -14 -17 -13 -16 6 1 27 -20 36 -28 12z"/>
<path d="M8824 6520 c-27 -11 -64 -62 -64 -89 0 -23 63 -61 103 -61 28 0 64
34 47 45 -6 4 -17 1 -25 -5 -9 -7 -26 -9 -40 -6 l-26 7 31 25 c50 42 30 105
-26 84z m26 -34 c0 -9 -32 -36 -41 -36 -6 0 -5 8 1 20 9 17 40 29 40 16z"/>
<path d="M6899 6513 c-1 -4 -1 -11 -1 -14 1 -4 -9 -10 -22 -13 -26 -6 -33 -23
-32 -75 1 -49 23 -50 31 -2 3 21 13 47 20 58 13 16 14 15 15 -19 0 -48 19 -50
53 -7 31 39 52 34 64 -17 4 -21 15 -40 22 -42 11 -4 13 4 7 39 -8 51 -30 89
-52 89 -8 0 -12 -4 -9 -10 3 -5 0 -7 -8 -4 -8 3 -20 -3 -28 -12 -13 -15 -14
-15 -19 7 -6 22 -39 40 -41 22z"/>
<path d="M8576 6512 c-3 -5 -6 -29 -6 -53 0 -24 -1 -55 -3 -69 -4 -43 27 -31
34 13 8 48 43 87 61 69 7 -7 15 -35 18 -63 7 -66 24 -67 28 -2 4 65 -18 103
-57 103 -15 0 -33 -6 -40 -12 -10 -11 -12 -10 -9 1 3 16 -17 26 -26 13z"/>
<path d="M9623 6506 c3 -8 -1 -28 -9 -45 -25 -50 7 -111 58 -111 20 0 52 43
62 82 8 34 -22 68 -59 68 -14 0 -25 5 -25 10 0 6 -7 10 -16 10 -10 0 -14 -6
-11 -14z m75 -60 c2 -9 -4 -28 -13 -42 -13 -20 -19 -23 -31 -13 -20 17 -18 66
4 72 26 7 37 2 40 -17z"/>
<path d="M6053 6495 c-32 -22 -29 -32 18 -77 22 -21 37 -43 34 -48 -8 -14 -38
-13 -53 2 -9 9 -13 7 -18 -5 -9 -26 4 -37 45 -37 70 0 83 49 25 99 -40 36 -37
54 9 49 23 -2 32 1 32 12 0 21 -64 25 -92 5z"/>
<path d="M9507 6443 c-5 -68 1 -91 22 -79 17 11 14 146 -3 146 -9 0 -15 -20
-19 -67z"/>
<path d="M8215 6478 c-36 -32 -41 -91 -7 -96 13 -2 30 2 39 10 13 11 18 9 31
-10 8 -12 21 -22 28 -22 17 0 17 5 3 32 -6 11 -12 39 -12 62 -2 36 -5 41 -28
44 -17 2 -37 -6 -54 -20z m49 -20 c-12 -22 -37 -48 -45 -48 -5 0 -6 8 -2 18 6
19 32 42 46 42 4 0 5 -6 1 -12z"/>
<path d="M5888 6458 c-30 -43 -30 -100 0 -130 l22 -22 27 20 c40 30 42 75 7
125 -15 21 -28 39 -30 39 -1 0 -13 -15 -26 -32z m42 -42 c16 -20 9 -60 -11
-64 -17 -3 -28 28 -21 61 4 21 16 22 32 3z"/>
<path d="M6681 6464 c-25 -31 -26 -53 -7 -79 12 -16 19 -18 43 -9 24 8 30 7
38 -10 11 -21 32 -19 27 4 -2 8 -4 31 -5 51 -4 69 -57 93 -96 43z m59 -17 c0
-17 -34 -49 -43 -41 -7 8 3 37 17 46 17 12 26 9 26 -5z"/>
<path d="M7973 6474 c-30 -13 -33 -18 -34 -59 -1 -25 -2 -51 -3 -57 -1 -7 5
-13 12 -13 8 0 21 23 30 50 15 45 20 50 47 50 29 0 30 -2 33 -52 2 -38 7 -53
18 -53 11 0 14 14 14 61 0 59 -1 60 -35 75 -40 17 -40 17 -82 -2z"/>
<path d="M9336 6433 c-12 -12 -6 -43 9 -43 8 0 15 9 15 19 0 21 -13 34 -24 24z"/>
<path d="M7390 6390 c0 -11 7 -20 15 -20 8 0 15 9 15 20 0 11 -7 20 -15 20 -8
0 -15 -9 -15 -20z"/>
<path d="M10009 6338 c-40 -66 -52 -99 -41 -110 6 -6 13 -10 16 -7 14 15 64
128 59 133 -11 11 -20 6 -34 -16z"/>
<path d="M5705 6188 c-2 -7 -6 -60 -9 -118 -3 -58 -8 -115 -12 -127 -10 -34
24 -30 37 4 12 31 37 63 51 63 4 0 8 -13 8 -29 0 -41 18 -84 33 -78 6 2 11 11
9 18 -2 7 -6 35 -9 61 -7 59 -23 76 -60 59 l-26 -12 6 71 c3 39 3 78 0 86 -6
17 -22 18 -28 2z"/>
<path d="M6296 6172 c-8 -14 -36 -186 -36 -225 0 -31 3 -38 18 -35 9 2 21 12
26 23 5 11 19 28 32 38 24 18 24 18 24 -11 0 -37 20 -54 57 -50 36 4 39 33 3
33 -22 0 -26 5 -30 40 -6 50 -26 55 -69 19 l-32 -27 5 24 c3 13 10 51 16 84 5
32 15 64 20 69 6 6 10 14 10 18 0 10 -37 10 -44 0z"/>
<path d="M7874 6033 c6 -116 18 -166 36 -146 4 4 4 42 -1 83 -4 41 -8 101 -8
133 -1 46 -4 57 -18 57 -14 0 -15 -13 -9 -127z"/>
<path d="M7740 6036 c0 -127 4 -146 30 -146 24 0 35 31 16 45 -12 9 -15 33
-15 103 1 50 -2 96 -6 101 -18 30 -25 1 -25 -103z"/>
<path d="M6540 6096 c0 -18 37 -27 50 -12 13 16 3 26 -27 26 -13 0 -23 -6 -23
-14z"/>
<path d="M6142 6077 c-27 -29 -27 -30 3 -75 40 -59 33 -81 -23 -66 -17 5 -20
10 -12 19 15 17 -7 32 -23 16 -9 -9 -8 -18 3 -39 16 -28 46 -38 86 -28 19 5
24 13 24 39 0 17 -9 47 -20 65 -26 42 -25 50 5 58 14 3 25 12 25 20 0 22 -44
16 -68 -9z"/>
<path d="M5912 6024 c-22 -15 -28 -47 -16 -78 7 -18 49 -22 59 -5 5 6 13 2 22
-11 18 -25 56 -23 61 3 3 12 -4 20 -17 24 -12 3 -21 13 -21 25 0 53 -43 74
-88 42z m48 -23 c0 -5 -8 -17 -17 -27 -20 -20 -32 -1 -13 21 14 17 30 20 30 6z"/>
<path d="M7400 6018 c-17 -18 -20 -19 -20 -5 0 9 -7 17 -15 17 -12 0 -15 -16
-15 -81 0 -71 2 -80 18 -77 9 2 17 10 18 18 3 57 43 134 61 117 3 -4 5 -32 4
-62 -1 -48 1 -55 17 -55 17 0 19 8 18 59 -2 87 -40 118 -86 69z"/>
<path d="M7532 5954 c6 -66 32 -100 71 -90 30 7 49 50 45 101 -4 55 -28 59
-28 5 0 -42 -14 -80 -29 -80 -13 0 -31 49 -31 85 0 26 -4 35 -16 35 -14 0 -16
-9 -12 -56z"/>
<path d="M6570 5935 c0 -8 7 -15 15 -15 8 0 15 7 15 15 0 8 -7 15 -15 15 -8 0
-15 -7 -15 -15z"/>
<path d="M8109 5835 c-26 -53 -27 -65 -4 -65 15 0 58 97 50 110 -11 18 -20 10
-46 -45z"/>
<path d="M6496 5741 c-3 -4 -5 -28 -5 -52 0 -24 -4 -78 -10 -119 -6 -41 -11
-83 -11 -92 0 -29 37 -21 57 12 24 41 36 38 53 -12 16 -47 36 -53 33 -10 -6
73 -47 109 -85 75 l-21 -18 7 70 c4 39 9 89 12 113 4 32 1 42 -10 42 -8 0 -17
-4 -20 -9z"/>
<path d="M7700 5673 c0 -5 -2 -48 -4 -97 -5 -92 5 -141 27 -133 6 2 10 11 8
18 -2 8 -3 60 -2 117 2 86 -1 102 -14 102 -8 0 -15 -3 -15 -7z"/>
<path d="M7812 5565 c0 -70 -4 -110 -12 -120 -11 -13 -10 -18 6 -30 10 -8 23
-13 28 -12 5 2 9 61 10 132 1 114 -1 130 -16 133 -14 3 -16 -9 -16 -103z"/>
<path d="M5630 5635 c-16 -19 -6 -56 25 -93 26 -31 32 -57 15 -67 -14 -9 -49
17 -43 32 6 15 -32 19 -41 4 -15 -24 40 -71 83 -71 47 0 54 71 11 125 -16 21
-30 42 -30 46 0 15 16 10 35 -11 26 -29 43 -9 21 24 -19 29 -57 34 -76 11z"/>
<path d="M6766 5642 c-2 -4 -1 -14 4 -22 7 -11 11 -11 24 -1 9 7 13 17 10 22
-7 11 -31 12 -38 1z"/>
<path d="M5795 5584 c-8 -20 -15 -45 -15 -54 0 -23 45 -77 70 -85 34 -11 110
41 95 65 -4 7 -16 3 -32 -10 -31 -24 -69 -26 -82 -3 -7 13 -4 20 12 28 28 14
33 51 11 76 -25 28 -42 23 -59 -17z m45 -18 c0 -8 -7 -16 -15 -20 -13 -4 -14
-2 -5 14 13 23 20 26 20 6z"/>
<path d="M5986 5578 c-30 -42 -9 -87 34 -73 15 5 29 0 46 -16 21 -20 24 -20
30 -5 4 11 -2 26 -16 41 -13 14 -21 28 -17 31 3 4 2 15 -4 25 -13 26 -54 24
-73 -3z m43 -29 c-22 -14 -33 -10 -19 6 7 8 17 12 22 9 6 -4 5 -10 -3 -15z"/>
<path d="M6134 5563 c16 -99 22 -118 36 -118 10 0 16 12 18 35 6 77 9 83 48
75 31 -5 35 -4 32 12 -5 25 -64 30 -89 7 -18 -16 -19 -16 -19 4 0 14 -6 22
-16 22 -14 0 -15 -7 -10 -37z"/>
<path d="M7278 5585 c-10 -10 2 -138 13 -150 6 -6 12 -1 16 14 9 36 47 104 61
109 16 5 32 -40 32 -89 0 -28 4 -39 15 -39 11 0 15 13 15 54 0 86 -52 134 -95
86 -17 -19 -18 -19 -34 1 -9 11 -19 17 -23 14z"/>
<path d="M6342 5560 c-49 -46 -34 -127 23 -123 29 2 64 28 52 39 -3 3 -20 2
-36 -4 -26 -9 -31 -8 -36 9 -10 30 19 69 46 62 17 -5 20 -2 17 13 -5 27 -39
29 -66 4z"/>
<path d="M7498 5574 c-9 -9 2 -115 14 -141 8 -16 20 -23 40 -23 25 0 32 7 49
45 20 45 18 82 -4 97 -19 12 -25 -1 -20 -40 3 -24 -1 -44 -11 -57 -22 -29 -34
-10 -38 59 -3 54 -14 76 -30 60z"/>
<path d="M6755 5509 c-10 -15 1 -23 20 -15 9 3 13 10 10 16 -8 13 -22 13 -30
-1z"/>
<path d="M8078 5415 c-25 -41 -28 -75 -8 -75 9 0 60 94 60 110 0 24 -27 6 -52
-35z"/>
<path d="M7760 5167 c0 -95 3 -127 14 -136 8 -7 16 -8 18 -4 3 4 2 64 -1 132
-4 86 -10 126 -18 129 -10 3 -13 -26 -13 -121z"/>
<path d="M7659 5248 c0 -1 -3 -34 -5 -73 -6 -86 3 -158 19 -152 17 5 16 219 0
224 -7 3 -13 3 -14 1z"/>
<path d="M6477 5174 c-9 -10 2 -24 19 -24 8 0 14 7 14 15 0 15 -21 21 -33 9z"/>
<path d="M6313 5110 c-27 -61 -37 -66 -53 -24 -12 32 -44 33 -34 2 3 -13 14
-34 23 -47 16 -22 16 -25 -1 -61 -27 -54 -35 -110 -15 -110 9 0 19 16 26 43 6
23 33 87 60 141 28 55 48 103 45 108 -12 19 -27 4 -51 -52z"/>
<path d="M5948 5143 c-43 -49 -45 -100 -5 -128 36 -25 98 -18 105 13 2 14 -8
15 -42 3 -18 -8 -28 -6 -37 6 -19 23 -19 41 0 36 9 -2 27 7 41 22 19 20 22 30
14 43 -15 24 -57 27 -76 5z m42 -21 c0 -4 -9 -13 -20 -20 -24 -15 -26 -9 -4
12 17 18 24 20 24 8z"/>
<path d="M6123 5148 c-28 -36 -19 -108 13 -108 13 0 14 8 9 41 -7 38 -6 41 13
35 28 -9 40 14 17 31 -23 16 -40 17 -52 1z"/>
<path d="M5580 5121 c-17 -16 -30 -36 -30 -45 0 -21 30 -48 46 -42 51 21 48
30 40 -117 -6 -119 -5 -137 9 -137 8 0 15 6 15 13 0 6 14 24 31 38 20 16 29
31 24 38 -5 9 -10 10 -18 2 -24 -24 -28 -5 -26 132 l3 142 -32 3 c-25 3 -39
-4 -62 -27z m60 -9 c0 -15 -38 -44 -51 -40 -9 3 -6 11 9 26 22 22 42 29 42 14z"/>
<path d="M5719 5133 c-4 -74 15 -119 57 -129 51 -13 98 81 59 119 -18 19 -45
23 -45 7 0 -5 4 -10 9 -10 19 0 23 -41 6 -66 -16 -25 -17 -25 -36 -8 -13 12
-19 30 -19 61 0 32 -4 43 -15 43 -8 0 -15 -8 -16 -17z"/>
<path d="M7318 5133 c-29 -5 -32 -9 -43 -91 -5 -37 -3 -43 11 -40 9 2 23 21
31 43 28 82 66 84 67 3 1 -33 5 -44 19 -46 16 -3 18 2 14 48 -5 54 -29 91 -56
89 -9 -1 -28 -4 -43 -6z"/>
<path d="M7560 5102 c0 -30 -32 -68 -48 -58 -5 3 -13 22 -16 41 -4 21 -13 35
-21 35 -32 0 -4 -96 32 -113 23 -10 28 -8 54 23 32 38 41 100 14 100 -10 0
-15 -10 -15 -28z"/>
<path d="M8050 5025 c-47 -72 -54 -97 -27 -103 11 -2 17 3 17 16 0 10 16 41
35 68 33 47 45 84 26 84 -5 0 -28 -29 -51 -65z"/>
<path d="M6460 5024 c0 -9 7 -14 17 -12 25 5 28 28 4 28 -12 0 -21 -6 -21 -16z"/>
<path d="M8187 4893 c-9 -17 8 -117 21 -121 10 -3 12 11 10 59 -3 56 -18 86
-31 62z"/>
<path d="M6117 4843 c-2 -4 -6 -71 -8 -148 -3 -119 -2 -140 11 -140 8 0 26 21
40 47 14 27 28 48 33 48 4 0 7 -15 7 -34 0 -44 9 -66 26 -66 11 0 13 12 8 58
-4 31 -11 63 -17 70 -16 21 -46 13 -62 -15 -15 -27 -15 -22 -13 76 2 72 -1
106 -9 108 -6 2 -13 0 -16 -4z"/>
<path d="M7699 4843 c-2 -16 2 -69 7 -85 8 -28 38 -23 30 5 -3 12 -6 37 -6 55
0 22 -5 32 -15 32 -8 0 -15 -3 -16 -7z"/>
<path d="M6017 4808 c-2 -18 -1 -39 2 -46 4 -7 3 -29 -3 -48 -10 -32 -14 -34
-53 -34 -32 0 -43 -4 -43 -15 0 -11 12 -15 45 -15 33 0 45 -4 45 -14 0 -16 18
-31 27 -23 3 3 7 56 9 116 4 91 2 111 -9 111 -9 0 -17 -13 -20 -32z"/>
<path d="M8010 4815 c0 -8 -13 -29 -29 -47 -16 -18 -63 -82 -105 -143 -73
-106 -93 -155 -61 -155 8 0 15 8 15 18 0 18 131 214 175 262 29 32 46 66 38
74 -12 11 -33 6 -33 -9z"/>
<path d="M7322 4724 c4 -21 22 -23 26 -1 2 10 -3 17 -13 17 -10 0 -15 -6 -13
-16z"/>
<path d="M7040 4713 c-80 -32 -65 -153 20 -164 32 -5 90 14 90 28 0 12 -9 14
-50 8 -34 -5 -55 -3 -65 5 -21 18 -19 30 6 30 11 0 34 8 50 17 60 36 16 102
-51 76z m45 -32 c7 -12 -26 -31 -51 -31 -16 0 -16 1 1 20 19 21 40 26 50 11z"/>
<path d="M5633 4675 c-26 -12 -33 -22 -42 -65 -16 -76 -15 -210 3 -210 10 0
16 21 21 75 5 56 10 75 21 75 8 0 17 7 20 15 4 8 10 13 14 10 13 -8 40 36 40
65 0 27 -17 51 -34 49 -6 0 -25 -7 -43 -14z m39 -60 c-13 -29 -51 -35 -48 -7
0 9 10 25 21 34 26 22 42 7 27 -27z"/>
<path d="M6530 4665 c-26 -28 -31 -82 -9 -96 20 -12 53 -11 66 2 9 9 15 1 24
-30 10 -33 17 -41 36 -41 27 0 29 7 6 32 -9 10 -18 42 -21 73 -5 62 -15 68
-36 26 -14 -27 -43 -47 -54 -37 -13 13 11 55 38 66 38 16 39 30 2 30 -17 0
-38 -10 -52 -25z"/>
<path d="M5794 4657 c-20 -17 -27 -33 -28 -63 -1 -36 1 -39 27 -42 16 -2 39 5
56 18 l30 20 3 -22 c5 -32 28 -35 28 -3 0 34 -16 64 -48 93 -31 27 -35 27 -68
-1z m54 -26 c11 -7 9 -13 -9 -30 -23 -21 -49 -28 -49 -13 0 11 30 52 38 52 4
0 13 -4 20 -9z"/>
<path d="M6396 4673 c-4 -4 -19 -7 -34 -8 -24 0 -27 -4 -34 -50 -9 -57 -5 -75
16 -75 8 0 17 15 21 38 13 71 55 89 55 22 0 -28 5 -42 18 -49 18 -9 19 -6 18
49 -1 32 -4 61 -6 63 -11 10 -47 17 -54 10z"/>
<path d="M6710 4609 c0 -86 20 -94 40 -16 14 51 14 51 20 19 7 -44 20 -43 49
1 13 20 27 35 30 32 3 -3 8 -27 11 -53 3 -32 10 -47 20 -47 11 0 14 11 11 50
-1 27 -7 58 -12 67 -12 22 -42 23 -60 2 -11 -13 -13 -14 -21 0 -5 9 -23 15
-48 14 l-40 0 0 -69z"/>
<path d="M7324 4609 c-8 -14 11 -33 25 -25 11 7 4 36 -9 36 -5 0 -12 -5 -16
-11z"/>
<path d="M6010 4589 c0 -5 6 -7 13 -3 8 5 7 2 -2 -10 -11 -12 -11 -20 -3 -28
14 -14 27 14 18 37 -6 17 -26 20 -26 4z"/>
<path d="M8380 4567 c0 -12 -12 -40 -26 -61 -19 -27 -23 -41 -15 -49 12 -12
11 -14 45 37 29 43 35 96 11 96 -9 0 -15 -9 -15 -23z"/>
<path d="M7373 4445 c-13 -35 -9 -89 8 -93 12 -2 16 7 17 47 1 51 -13 76 -25
46z"/>
<path d="M6867 4423 c-5 -9 -11 -83 -8 -120 0 -13 8 -23 16 -23 14 0 22 54 16
115 -2 23 -17 40 -24 28z"/>
<path d="M6019 4413 c0 -4 0 -32 1 -61 1 -29 -1 -65 -5 -81 -6 -27 -8 -28 -35
-18 -16 6 -32 8 -36 4 -10 -10 14 -34 41 -41 21 -5 25 -12 25 -44 0 -20 4 -43
9 -51 16 -25 29 -2 23 45 -2 25 -1 49 4 53 14 10 1 194 -13 199 -7 2 -13 0
-14 -5z"/>
<path d="M7125 4348 c-16 -33 -47 -84 -68 -112 -71 -94 -103 -176 -69 -176 5
0 17 20 26 45 10 25 37 71 60 103 51 70 106 166 106 187 0 33 -27 11 -55 -47z"/>
<path d="M6127 4273 c-3 -70 -2 -132 3 -136 4 -5 18 9 31 30 24 40 40 55 48
47 3 -3 8 -29 11 -57 3 -37 9 -52 20 -52 11 0 14 11 11 50 -4 79 -43 119 -80
83 -10 -11 -12 4 -10 72 2 69 -1 86 -13 88 -13 2 -16 -18 -21 -125z"/>
<path d="M5596 4249 c-43 -51 -56 -93 -55 -174 2 -80 11 -120 29 -120 14 0 18
11 40 127 6 32 14 57 18 56 4 -1 17 1 28 5 28 10 46 54 42 103 -3 36 -6 39
-34 42 -26 3 -37 -4 -68 -39z m74 -15 c0 -36 -17 -64 -39 -64 -29 0 -32 35 -4
64 30 33 43 33 43 0z m-89 -130 l-9 -39 -1 36 c-1 20 2 39 6 42 12 13 13 0 4
-39z"/>
<path d="M6425 4279 c-10 -15 1 -23 20 -15 9 3 13 10 10 16 -8 13 -22 13 -30
-1z"/>
<path d="M5779 4251 c-24 -24 -28 -35 -23 -58 4 -15 11 -34 17 -40 12 -16 53
-17 63 -2 4 7 11 2 18 -12 6 -12 17 -25 25 -27 17 -6 9 44 -14 91 -8 17 -15
36 -15 43 0 7 -9 18 -20 24 -17 9 -25 6 -51 -19z m46 -31 c4 -12 1 -28 -6 -36
-12 -14 -14 -14 -26 1 -8 13 -9 23 -2 36 13 25 26 24 34 -1z"/>
<path d="M7454 4152 c-6 -4 -15 -18 -19 -32 -4 -14 -16 -37 -26 -52 -23 -32
-24 -50 -2 -46 9 2 27 23 39 48 13 25 27 50 31 55 21 28 6 46 -23 27z"/>
<path d="M6390 4141 c0 -13 37 -24 50 -16 6 4 8 11 5 16 -8 12 -55 12 -55 0z"/>
<path d="M10152 3959 c2 -24 9 -44 16 -47 10 -3 12 7 10 39 -2 24 -9 44 -16
47 -10 3 -12 -7 -10 -39z"/>
<path d="M6147 3953 c-30 -33 -57 -92 -57 -128 0 -22 -4 -25 -35 -25 -24 0
-35 -5 -35 -15 0 -11 11 -15 40 -15 l40 0 0 -54 c0 -62 7 -86 25 -86 9 0 11
19 7 75 l-5 75 46 0 c25 0 49 5 52 10 9 15 -35 28 -72 23 -26 -4 -33 -2 -33
11 0 23 28 87 47 108 20 22 52 23 59 3 8 -19 34 -20 34 -2 0 21 -34 47 -61 47
-14 0 -37 -12 -52 -27z"/>
<path d="M6752 3928 c4 -74 28 -77 28 -4 0 44 -3 56 -16 56 -12 0 -14 -10 -12
-52z"/>
<path d="M10375 3970 c-3 -5 12 -17 34 -26 50 -20 59 -44 32 -88 -23 -36 -27
-71 -10 -81 6 -5 4 -12 -8 -20 -16 -12 -16 -17 -5 -47 15 -42 15 -83 2 -109
-12 -21 -50 -25 -67 -8 -13 13 -33 4 -33 -16 0 -30 88 -35 114 -6 29 32 39 85
22 125 l-15 36 31 8 c40 10 47 29 15 41 -37 14 -40 26 -16 65 28 48 22 85 -20
113 -36 24 -66 29 -76 13z"/>
<path d="M9274 3949 c-3 -6 -2 -15 2 -19 12 -12 38 5 30 19 -9 14 -23 14 -32
0z"/>
<path d="M7885 3849 c-55 -107 -89 -199 -77 -211 12 -12 27 9 42 57 7 22 34
82 61 133 45 85 52 112 30 112 -5 0 -29 -41 -56 -91z"/>
<path d="M8041 3887 c-61 -84 -121 -185 -121 -207 0 -11 7 -20 15 -20 8 0 15
7 15 15 0 8 19 45 41 82 36 59 56 88 99 140 13 15 13 30 1 38 -6 3 -28 -19
-50 -48z"/>
<path d="M5609 3923 c-1 -5 -1 -11 -1 -14 1 -8 -15 -166 -23 -226 -8 -60 13
-56 47 7 36 65 56 65 60 3 4 -64 23 -57 23 8 0 41 -4 54 -21 65 -18 13 -24 12
-47 -7 -16 -11 -25 -15 -23 -7 3 7 7 50 11 96 5 71 4 82 -9 82 -9 0 -17 -3
-17 -7z"/>
<path d="M6925 3833 c-12 -154 -12 -157 7 -161 10 -2 19 5 23 17 8 26 53 81
66 81 5 0 9 -15 9 -34 0 -44 9 -66 25 -66 17 0 9 108 -9 128 -16 16 -58 2 -78
-27 -12 -18 -14 -9 -10 70 4 74 2 89 -10 89 -12 0 -17 -22 -23 -97z"/>
<path d="M7166 3923 c-3 -3 -6 -33 -6 -65 0 -55 -1 -58 -25 -58 -30 0 -35 -29
-6 -37 16 -4 21 -15 23 -51 4 -64 28 -69 28 -5 0 53 6 66 33 76 23 9 22 27 -3
27 -18 0 -20 7 -20 54 0 51 -9 74 -24 59z"/>
<path d="M10003 3909 c-4 -13 -31 -72 -60 -133 -53 -106 -63 -155 -35 -164 7
-2 12 6 12 21 0 13 24 76 54 138 30 63 56 123 58 133 4 28 -22 32 -29 5z"/>
<path d="M7297 3904 c-4 -4 -7 -29 -7 -56 0 -46 -2 -49 -30 -54 -37 -8 -40
-34 -5 -34 23 0 25 -4 25 -47 0 -50 13 -83 27 -69 4 4 6 36 4 72 l-3 64 30 0
c17 0 33 4 36 9 9 13 -22 34 -40 27 -13 -5 -15 1 -12 41 3 43 -8 64 -25 47z"/>
<path d="M9285 3888 c-21 -92 -25 -121 -25 -179 0 -44 5 -70 13 -78 21 -17 25
-5 20 57 -3 31 1 86 9 122 14 67 13 100 -3 100 -5 0 -11 -10 -14 -22z"/>
<path d="M6415 3861 c-3 -5 -1 -12 5 -16 12 -7 30 2 30 16 0 12 -27 12 -35 0z"/>
<path d="M7684 3848 c-4 -6 1 -17 12 -25 20 -15 30 -4 20 22 -6 18 -22 19 -32
3z"/>
<path d="M9542 3844 c2 -11 11 -20 22 -22 13 -3 17 1 14 14 -2 11 -11 20 -22
22 -13 3 -17 -1 -14 -14z"/>
<path d="M9081 3798 c-30 -19 -33 -25 -27 -57 3 -20 6 -42 6 -48 0 -7 7 -13
15 -13 11 0 15 11 15 39 0 49 22 71 48 47 18 -15 32 -13 32 6 0 10 -37 48 -47
48 -5 0 -23 -10 -42 -22z"/>
<path d="M5787 3770 c-22 -24 -27 -40 -27 -80 0 -68 25 -69 34 -2 8 63 28 91
49 73 24 -20 42 -3 21 20 -24 27 -47 24 -77 -11z"/>
<path d="M8216 3791 c-3 -5 -15 -7 -25 -4 -16 4 -20 -3 -26 -47 -8 -60 0 -75
24 -42 9 13 26 35 37 50 l21 26 12 -23 c10 -18 10 -27 -3 -46 -22 -34 -20 -45
8 -45 20 0 24 6 30 40 6 40 -5 77 -28 92 -15 11 -44 10 -50 -1z"/>
<path d="M8371 3776 c-29 -31 -40 -93 -18 -102 9 -3 30 4 46 15 l30 21 3 -32
c2 -21 8 -33 18 -33 11 0 13 12 11 55 -3 74 -13 81 -57 39 -33 -32 -35 -32
-24 -8 7 15 23 32 37 38 13 6 21 16 18 21 -11 17 -41 11 -64 -14z"/>
<path d="M8527 3793 c-2 -5 -5 -32 -6 -62 -3 -60 6 -63 41 -12 13 19 28 34 33
33 6 -1 12 -22 15 -47 6 -53 22 -60 32 -14 12 61 -30 119 -66 90 -10 -9 -15
-8 -20 4 -6 16 -22 20 -29 8z"/>
<path d="M8883 3788 c-39 -61 -36 -101 11 -129 38 -24 89 -22 94 4 3 14 -1 17
-21 12 -27 -7 -67 9 -67 26 0 6 4 8 10 4 13 -8 50 31 50 55 0 32 -60 54 -77
28z m42 -38 c-3 -5 -13 -10 -21 -10 -8 0 -12 5 -9 10 3 6 13 10 21 10 8 0 12
-4 9 -10z"/>
<path d="M8746 3783 c-4 -4 -19 -7 -33 -8 -26 0 -27 -2 -27 -59 -1 -63 17 -88
27 -37 3 16 17 42 31 57 22 25 27 27 36 14 6 -8 8 -35 4 -61 -3 -31 -2 -49 6
-54 17 -10 21 -2 27 59 5 46 2 60 -12 76 -18 20 -46 26 -59 13z"/>
<path d="M5921 3766 c-29 -16 -50 -52 -51 -88 0 -27 22 -58 43 -58 26 0 97 34
97 46 0 18 -12 18 -56 -1 -20 -8 -40 -12 -45 -9 -26 15 8 84 42 84 27 0 24
-19 -7 -30 -25 -10 -29 -30 -8 -37 17 -6 64 37 64 57 0 10 -10 26 -22 34 -27
19 -26 19 -57 2z"/>
<path d="M7457 3762 c-18 -19 -23 -62 -9 -62 5 0 14 12 20 26 7 14 17 22 22
19 25 -16 -1 -108 -29 -103 -9 2 -15 11 -15 21 1 9 -2 17 -7 17 -5 0 -9 9 -9
19 0 29 -11 51 -24 51 -15 0 -16 -212 -1 -220 6 -3 17 14 25 38 11 33 19 42
37 42 52 0 89 136 44 160 -27 14 -35 13 -54 -8z"/>
<path d="M9663 3753 c-49 -56 -16 -133 47 -112 37 13 73 53 68 75 -3 19 -63
64 -82 63 -6 0 -21 -12 -33 -26z m77 -40 c12 -3 10 -8 -9 -24 -33 -27 -61 -25
-61 4 0 36 11 39 70 20z"/>
<path d="M7650 3735 c0 -8 9 -15 20 -15 11 0 20 7 20 15 0 8 -9 15 -20 15 -11
0 -20 -7 -20 -15z"/>
<path d="M9510 3694 c-13 -59 -9 -84 13 -84 10 0 14 14 15 46 0 27 7 53 16 63
22 24 20 31 -8 31 -22 0 -26 -7 -36 -56z"/>
<path d="M6374 3699 c-10 -17 13 -36 27 -22 12 12 4 33 -11 33 -5 0 -12 -5
-16 -11z"/>
<path d="M9376 3654 c-8 -20 1 -34 20 -34 8 0 14 10 14 25 0 28 -24 34 -34 9z"/>
<path d="M5195 3423 c3 -16 23 -45 42 -65 l36 -37 -48 -53 c-27 -29 -53 -56
-58 -59 -11 -8 9 -49 23 -49 6 0 10 8 10 19 0 23 76 111 96 111 33 0 25 32
-19 75 -34 32 -44 49 -40 64 4 17 1 21 -22 21 -25 0 -27 -3 -20 -27z"/>
<path d="M4871 3129 c-36 -58 -36 -59 -16 -59 14 0 75 83 75 102 0 24 -31 2
-59 -43z"/>
<path d="M2032 3146 c-31 -17 -62 -65 -62 -97 0 -29 45 -76 112 -117 36 -22
78 -90 78 -126 0 -21 -44 -66 -64 -66 -9 0 -31 14 -51 31 -27 24 -35 39 -35
66 0 45 -24 40 -28 -6 -4 -39 18 -75 61 -101 46 -29 74 -25 113 14 62 62 33
149 -75 226 -81 57 -91 72 -71 107 23 40 59 57 103 49 23 -4 37 -12 37 -22 0
-11 -6 -13 -19 -9 -11 3 -22 1 -25 -4 -8 -13 15 -51 31 -51 19 0 45 46 41 72
-6 42 -94 63 -146 34z"/>
<path d="M11263 3101 c-76 -81 -88 -101 -59 -101 16 0 108 105 99 114 -11 10
-22 7 -40 -13z"/>
<path d="M4376 3083 c3 -16 12 -50 20 -77 8 -27 14 -61 14 -76 0 -22 -5 -26
-31 -28 -38 -3 -85 -34 -92 -61 -2 -11 1 -30 7 -43 9 -19 19 -23 55 -23 36 0
47 5 64 28 28 37 34 135 13 206 -9 29 -13 58 -10 63 8 12 -15 38 -32 38 -10 0
-13 -8 -8 -27z m21 -245 c-11 -26 -20 -34 -45 -36 -27 -3 -32 0 -32 19 0 27
27 48 63 49 27 0 27 0 14 -32z"/>
<path d="M13661 3091 c-7 -11 -21 -51 -32 -88 -12 -38 -24 -72 -27 -78 -3 -5
-7 -45 -10 -88 -2 -62 0 -78 10 -75 8 3 16 32 21 76 8 65 10 71 27 62 10 -6
28 -10 40 -10 19 0 21 -3 14 -32 -15 -61 -11 -102 10 -106 15 -3 18 0 12 21
-4 16 7 67 29 138 39 127 43 159 20 159 -9 0 -15 -6 -14 -12 1 -7 -5 -38 -15
-70 -13 -42 -22 -57 -39 -62 -18 -4 -67 1 -67 8 0 1 12 37 26 80 16 51 22 82
16 88 -7 7 -14 3 -21 -11z"/>
<path d="M4986 3093 c-3 -3 -6 -22 -6 -42 0 -20 -5 -53 -11 -73 -8 -31 -15
-38 -35 -38 -31 0 -27 -24 5 -28 19 -3 21 -8 16 -36 -7 -37 15 -101 43 -122
19 -15 90 -18 109 -6 15 10 13 52 -3 52 -7 0 -20 -7 -28 -16 -9 -8 -26 -14
-38 -12 -51 7 -74 138 -24 138 41 0 67 12 63 29 -3 17 -6 17 -50 7 l-29 -7 7
74 c7 69 0 98 -19 80z"/>
<path d="M8347 3073 c-3 -5 -2 -26 2 -48 4 -22 2 -57 -3 -77 -8 -31 -15 -37
-40 -40 -37 -4 -37 -22 -1 -26 24 -3 25 -6 25 -68 0 -50 3 -64 15 -64 12 0 15
14 15 64 l0 65 48 3 c33 2 47 7 47 18 0 11 -10 14 -42 12 l-42 -3 6 49 c9 77
-10 148 -30 115z"/>
<path d="M13049 2998 l-14 -73 -42 -9 c-27 -6 -43 -14 -43 -24 0 -11 8 -13 36
-9 33 6 35 4 28 -16 -22 -69 -31 -118 -23 -123 16 -9 26 4 34 43 17 95 41 122
103 123 15 0 22 5 19 13 -2 6 -20 12 -41 12 -33 0 -36 2 -31 23 3 12 8 42 12
67 4 35 3 45 -9 45 -10 0 -19 -23 -29 -72z"/>
<path d="M1446 3038 c-3 -13 -6 -33 -6 -44 0 -19 -8 -23 -57 -30 -75 -12 -77
-32 -5 -59 47 -18 52 -23 47 -44 -3 -13 -17 -39 -31 -57 -27 -35 -25 -54 5
-54 23 0 41 19 41 45 0 20 45 73 54 64 3 -2 14 -26 25 -52 11 -26 25 -47 31
-47 22 0 21 30 -4 82 l-26 53 23 20 c12 11 38 32 57 47 45 35 31 56 -23 33
-52 -21 -77 -20 -77 6 0 51 -42 80 -54 37z m-6 -108 c0 -5 -7 -10 -15 -10 -8
0 -15 5 -15 10 0 6 7 10 15 10 8 0 15 -4 15 -10z m37 -12 c-3 -8 -6 -5 -6 6
-1 11 2 17 5 13 3 -3 4 -12 1 -19z"/>
<path d="M8660 3017 c0 -7 10 -18 21 -26 18 -11 23 -11 30 1 6 8 3 17 -8 26
-22 16 -43 16 -43 -1z"/>
<path d="M11310 3000 c0 -33 -32 -90 -51 -90 -24 0 -35 -21 -17 -31 11 -6 16
-24 16 -57 0 -57 14 -88 43 -97 28 -9 69 2 69 20 0 20 -21 30 -31 14 -14 -23
-44 3 -47 41 -6 63 4 80 48 80 29 0 40 4 40 15 0 10 -11 15 -35 15 l-34 0 19
43 c25 54 25 67 0 67 -13 0 -20 -7 -20 -20z"/>
<path d="M12880 3006 c0 -8 4 -17 9 -20 11 -7 33 18 24 27 -12 12 -33 7 -33
-7z"/>
<path d="M2280 2984 c0 -9 5 -14 12 -12 18 6 21 28 4 28 -9 0 -16 -7 -16 -16z"/>
<path d="M8171 2977 c-38 -19 -48 -43 -32 -69 38 -61 44 -75 37 -94 -8 -18 -9
-18 -19 4 -12 27 -37 29 -37 4 0 -20 29 -52 48 -52 20 0 42 31 42 59 0 16 -11
44 -25 64 l-24 37 22 15 c12 8 27 15 34 15 7 0 13 7 13 15 0 18 -26 19 -59 2z"/>
<path d="M5648 2973 c-27 -7 -23 -62 8 -117 39 -70 16 -128 -30 -77 -14 15
-15 24 -7 40 14 26 -2 36 -23 15 -33 -32 -16 -73 42 -103 19 -10 26 -8 47 13
32 32 32 69 0 125 -32 55 -32 71 0 71 27 0 32 9 13 28 -12 12 -20 13 -50 5z"/>
<path d="M7597 2940 c-14 -11 -30 -20 -36 -20 -21 0 -6 -120 17 -128 8 -2 12
10 12 43 0 65 13 85 55 85 39 0 46 14 16 30 -27 14 -35 13 -64 -10z"/>
<path d="M5780 2918 c-12 -20 -20 -51 -20 -76 0 -75 70 -124 131 -91 29 15 12
31 -26 23 -26 -4 -38 -1 -54 15 -28 28 -26 37 8 44 59 12 82 71 39 101 -34 24
-56 19 -78 -16z m60 -8 c20 -13 2 -44 -29 -48 -16 -3 -20 1 -18 15 3 22 16 43
25 43 4 0 14 -5 22 -10z"/>
<path d="M5973 2924 c-37 -41 -27 -121 19 -171 36 -39 138 -25 138 18 0 12
-27 12 -35 -1 -3 -5 -22 -10 -40 -10 -35 0 -55 19 -69 65 -5 17 0 23 26 30 26
8 34 16 36 38 7 57 -37 75 -75 31z m47 -23 c0 -14 -18 -23 -31 -15 -8 4 -7 9
2 15 18 11 29 11 29 0z"/>
<path d="M14013 2929 c-24 -11 -43 -24 -43 -30 0 -19 29 -20 55 -3 l27 18 -31
-55 c-21 -38 -28 -58 -20 -66 11 -11 56 -6 65 8 11 19 24 8 24 -20 0 -79 79
-23 99 70 6 29 17 59 23 66 8 10 8 17 0 25 -18 18 -40 -7 -47 -55 -4 -23 -14
-58 -23 -77 l-15 -35 -6 35 c-7 41 -33 51 -62 24 -25 -23 -24 -16 7 44 38 73
24 86 -53 51z"/>
<path d="M14799 2941 c-9 -3 -30 -18 -47 -32 -27 -24 -30 -31 -25 -67 3 -23
14 -48 23 -57 19 -17 69 -23 89 -11 23 14 10 26 -29 26 -34 0 -41 4 -46 25 -7
30 -10 28 41 47 26 10 41 23 43 36 4 24 -25 43 -49 33z"/>
<path d="M3453 2918 c-32 -23 -44 -48 -22 -48 6 0 24 9 41 21 16 12 32 19 35
16 3 -3 -4 -37 -16 -76 -11 -38 -21 -74 -21 -80 0 -21 34 -11 66 20 31 30 32
30 39 10 14 -46 71 -51 94 -8 19 35 10 111 -12 115 -16 3 -17 -1 -12 -31 14
-72 -21 -104 -50 -47 -18 34 -31 37 -57 13 -19 -17 -19 -16 -12 12 5 17 9 46
9 65 0 30 -4 35 -25 38 -14 1 -39 -8 -57 -20z"/>
<path d="M4522 2901 c-28 -49 -28 -95 -1 -122 23 -23 51 -19 87 15 29 26 25
71 -10 116 -31 39 -50 37 -76 -9z m66 -37 c16 -34 -1 -66 -31 -62 -26 4 -34
36 -17 67 15 28 34 26 48 -5z"/>
<path d="M7351 2914 c-41 -52 -40 -118 2 -133 32 -11 105 -2 111 15 4 11 -7
14 -52 14 l-57 0 29 19 c41 28 49 46 34 78 -18 37 -41 40 -67 7z m39 -29 c0
-8 -9 -19 -20 -25 -23 -12 -25 -8 -8 20 15 24 28 26 28 5z"/>
<path d="M8532 2915 c-30 -25 -45 -75 -35 -114 7 -28 33 -27 34 2 1 12 2 34 3
49 2 37 21 57 38 40 18 -18 28 -14 28 12 0 13 -7 27 -16 30 -21 8 -19 9 -52
-19z"/>
<path d="M3761 2900 c-59 -59 -27 -159 52 -160 31 0 107 35 107 50 0 14 -31
12 -60 -5 -35 -20 -57 -18 -80 5 -25 25 -26 43 -1 35 29 -9 83 41 79 74 -2 21
-9 27 -34 29 -24 2 -39 -4 -63 -28z m69 -8 c0 -8 -53 -42 -66 -42 -4 0 3 11
16 25 23 24 50 33 50 17z"/>
<path d="M6488 2908 c-27 -41 -31 -67 -14 -93 17 -25 49 -32 74 -16 8 5 27 1
49 -10 40 -20 53 -17 53 12 0 14 -7 19 -29 19 -32 0 -41 14 -34 52 4 21 -1 28
-28 42 -43 21 -54 20 -71 -6z m60 -57 c-2 -8 -11 -19 -21 -25 -27 -17 -39 11
-20 48 15 29 16 29 30 11 7 -11 12 -26 11 -34z"/>
<path d="M6990 2922 c-52 -17 -88 -99 -56 -130 14 -15 19 -14 52 2 l37 17 -9
-98 c-14 -162 -12 -258 6 -258 10 0 17 15 22 48 8 55 28 84 76 104 33 14 35
33 4 33 -25 0 -84 -39 -77 -50 3 -6 1 -10 -5 -10 -6 0 -8 10 -6 23 3 12 8 54
11 92 9 106 17 169 21 176 3 6 -32 41 -51 51 -5 3 -17 3 -25 0z m35 -52 c0
-17 -68 -65 -73 -51 -2 5 4 24 13 41 12 23 22 30 38 28 12 -2 22 -10 22 -18z"/>
<path d="M8798 2887 c-36 -33 -48 -52 -50 -77 -4 -47 18 -49 37 -3 18 42 62
93 81 93 19 0 24 -26 13 -60 -13 -36 -6 -60 17 -60 10 0 14 6 11 14 -3 8 -1
30 5 50 8 26 8 42 0 61 -18 40 -58 33 -114 -18z"/>
<path d="M8992 2905 c-37 -31 -47 -57 -32 -85 11 -21 64 -28 75 -10 14 22 25
-4 25 -55 0 -52 -1 -54 -38 -75 -63 -36 -86 -89 -60 -145 24 -52 74 -17 104
75 23 68 21 65 38 51 11 -9 16 -9 22 0 4 7 -2 19 -14 29 -19 15 -22 30 -25
116 -4 109 -12 120 -49 65 -25 -38 -48 -51 -48 -28 0 8 13 26 30 40 24 20 27
27 16 36 -11 9 -21 6 -44 -14z m42 -296 c-23 -60 -35 -74 -45 -57 -16 24 -9
50 21 80 17 17 33 28 36 25 3 -2 -3 -24 -12 -48z"/>
<path d="M14602 2903 c-6 -16 -16 -45 -22 -65 -6 -21 -13 -38 -15 -38 -2 0
-18 23 -36 50 -33 51 -43 58 -54 40 -9 -15 67 -129 87 -129 20 -1 41 34 57 97
11 39 20 47 45 43 5 -1 4 5 -4 13 -20 25 -46 19 -58 -11z"/>
<path d="M14958 2913 c-27 -31 -48 -81 -48 -113 0 -46 27 -38 35 11 7 43 53
103 62 82 9 -23 35 -15 31 10 -4 29 -57 36 -80 10z"/>
<path d="M7803 2866 c-30 -61 -49 -68 -70 -26 -12 25 -33 34 -33 15 0 -27 20
-64 39 -70 20 -6 20 -7 -8 -63 -30 -59 -71 -175 -71 -199 0 -25 30 -13 36 15
14 66 30 105 94 229 55 108 65 135 54 144 -11 9 -19 -1 -41 -45z"/>
<path d="M11768 2883 c-20 -21 -43 -52 -51 -69 -22 -42 -39 -156 -27 -168 13
-13 15 -10 38 49 11 28 26 51 33 51 8 1 21 2 30 3 9 0 31 14 48 30 35 33 42
81 15 119 -22 31 -45 27 -86 -15z m66 -9 c11 -29 6 -53 -16 -74 -53 -49 -81 1
-32 59 29 35 39 38 48 15z"/>
<path d="M2401 2873 c-33 -40 -42 -93 -16 -93 8 0 15 7 15 16 0 18 40 88 46
81 2 -2 9 -30 15 -63 13 -70 27 -100 40 -87 9 9 -9 121 -26 166 -11 28 -41 20
-74 -20z"/>
<path d="M4697 2875 c-23 -22 -37 -45 -37 -60 0 -37 26 -30 47 12 24 49 48 58
40 14 -7 -34 6 -81 23 -81 6 0 10 27 10 65 0 53 -3 66 -19 75 -26 13 -23 15
-64 -25z"/>
<path d="M9831 2890 c-19 -11 -47 -24 -63 -29 -30 -11 -30 -31 0 -31 10 0 34
9 55 19 20 10 37 18 37 17 0 -1 -7 -23 -16 -49 -20 -60 -16 -101 12 -105 11
-2 29 7 39 18 16 18 17 23 5 30 -12 8 -10 10 8 10 12 0 22 6 22 12 0 7 7 2 16
-10 19 -28 60 -29 74 -1 23 42 -13 140 -41 112 -6 -6 -4 -21 7 -42 9 -17 13
-39 9 -49 -6 -15 -9 -13 -29 11 -12 15 -27 27 -33 27 -6 0 -24 -21 -39 -47
-36 -62 -41 -42 -11 46 14 38 22 72 19 76 -10 10 -37 4 -71 -15z"/>
<path d="M12168 2898 c-30 -10 -48 -54 -48 -115 0 -52 26 -41 34 13 8 58 21
76 52 68 18 -5 24 -2 24 10 0 23 -31 35 -62 24z"/>
<path d="M12485 2878 c-44 -41 -59 -103 -30 -124 40 -29 166 -8 146 25 -7 10
-13 11 -30 1 -26 -13 -93 -10 -98 6 -2 6 10 14 27 17 30 7 80 47 80 66 0 15
-29 41 -46 41 -8 0 -30 -15 -49 -32z m44 -29 c-8 -5 -21 -9 -29 -9 -10 1 -7 7
10 21 17 14 26 17 28 9 3 -7 -2 -16 -9 -21z"/>
<path d="M13815 2873 c-49 -72 -22 -127 50 -103 64 21 80 81 33 123 -31 26
-55 21 -83 -20z m69 -16 c15 -24 -4 -51 -38 -55 -30 -4 -32 7 -10 49 16 32 31
34 48 6z"/>
<path d="M14334 2876 c-19 -19 -34 -31 -34 -28 0 3 -5 1 -11 -5 -7 -7 -6 -20
4 -45 11 -25 24 -37 51 -45 30 -9 38 -9 42 2 7 18 -4 36 -19 34 -47 -6 -49 13
-2 30 39 14 56 51 35 76 -18 22 -28 19 -66 -19z m36 -15 c0 -5 -7 -12 -16 -15
-14 -5 -15 -4 -4 9 14 17 20 19 20 6z"/>
<path d="M2809 2874 c-35 -37 -35 -117 1 -146 48 -39 162 4 134 50 -12 19 -54
29 -54 13 0 -5 5 -13 10 -16 19 -12 10 -23 -22 -30 -26 -6 -35 -3 -50 15 -25
31 -23 48 5 43 31 -6 57 20 57 57 0 46 -43 54 -81 14z m49 -21 c-2 -10 -11
-19 -21 -21 -16 -3 -17 -1 -7 17 13 25 33 28 28 4z"/>
<path d="M7134 2884 c5 -11 11 -43 15 -72 10 -71 41 -92 80 -53 21 21 36 89
26 121 -3 11 -15 20 -26 20 -21 0 -25 -10 -8 -27 13 -13 2 -78 -17 -94 -16
-13 -17 -10 -30 66 -7 37 -14 51 -28 53 -15 3 -17 0 -12 -14z"/>
<path d="M10095 2875 c-32 -31 -31 -61 2 -113 32 -49 49 -52 119 -22 35 15 44
24 36 32 -8 8 -23 6 -58 -7 -46 -17 -48 -17 -61 0 -18 26 -17 30 11 43 30 13
41 44 26 72 -14 27 -46 25 -75 -5z m50 -26 c-4 -5 -15 -14 -27 -20 -21 -11
-20 -3 5 28 10 14 31 7 22 -8z"/>
<path d="M10646 2879 c-14 -11 -33 -34 -42 -50 -12 -25 -13 -34 -2 -56 16 -34
98 -77 127 -68 31 10 25 30 -9 31 -34 2 -78 27 -87 50 -7 19 16 63 40 76 14 7
23 5 38 -8 16 -14 22 -15 32 -5 9 10 7 16 -12 32 -30 24 -52 24 -85 -2z"/>
<path d="M11974 2877 c-42 -37 -30 -123 16 -115 9 2 24 -3 33 -10 23 -19 40
-6 26 19 -7 15 -7 24 1 35 16 18 4 80 -16 88 -25 9 -31 8 -60 -17z m52 -44
c-39 -48 -41 -49 -44 -18 -4 35 22 61 42 42 9 -8 10 -15 2 -24z"/>
<path d="M12331 2886 c-8 -10 -10 -30 -6 -59 8 -51 -9 -73 -32 -42 -19 26 -40
6 -24 -23 16 -30 49 -37 73 -15 17 15 19 27 16 70 -4 51 -4 52 19 47 16 -4 23
-2 23 9 0 27 -50 36 -69 13z"/>
<path d="M2276 2882 c-3 -5 -5 -30 -5 -58 1 -27 -1 -55 -3 -63 -1 -8 5 -17 15
-19 15 -3 17 5 17 72 0 67 -9 92 -24 68z"/>
<path d="M2607 2876 c-26 -21 -40 -68 -27 -100 13 -34 68 -58 123 -54 63 5 56
29 -9 32 -60 2 -84 18 -84 57 0 31 9 39 52 48 16 3 30 11 31 16 3 16 -66 17
-86 1z"/>
<path d="M12821 2854 c-25 -32 -26 -43 -6 -71 16 -23 47 -34 65 -23 17 10 3
30 -21 30 -14 0 -19 7 -19 25 0 16 6 25 15 25 8 0 15 9 15 20 0 28 -25 25 -49
-6z"/>
<path d="M11034 2846 c-13 -10 -23 -11 -31 -5 -14 13 -28 -11 -38 -64 -10 -51
12 -49 51 3 36 49 49 50 49 3 0 -54 21 -52 29 3 9 67 -16 92 -60 60z"/>
<path d="M8646 2834 c-3 -9 -6 -33 -6 -55 0 -28 4 -39 15 -39 10 0 15 10 15
28 0 15 3 37 6 48 7 25 -21 41 -30 18z"/>
<path d="M10855 2838 c-32 -19 -45 -41 -42 -73 3 -37 38 -46 69 -18 15 13 22
15 25 6 9 -26 33 -13 33 17 0 42 -25 49 -59 16 -31 -29 -41 -32 -41 -12 0 20
39 46 68 46 31 0 23 24 -9 27 -13 2 -33 -2 -44 -9z"/>
<path d="M13147 2784 c-14 -14 -7 -35 11 -32 9 2 17 10 17 17 0 16 -18 25 -28
15z"/>
<path d="M15095 2760 c-3 -11 -13 -20 -21 -20 -18 0 -18 -21 0 -45 13 -18 15
-16 35 23 11 23 21 46 21 52 0 18 -28 10 -35 -10z"/>
<path d="M9377 2763 c-4 -3 -7 -17 -7 -29 0 -15 -9 -27 -27 -36 -54 -26 -34
-52 21 -26 36 16 58 98 27 98 -4 0 -11 -3 -14 -7z"/>
<path d="M1747 2683 c-3 -5 -10 -44 -17 -88 -15 -106 -24 -125 -55 -125 -16 0
-25 -6 -25 -15 0 -10 10 -15 30 -15 l29 0 -2 -67 c-2 -55 1 -68 13 -68 12 0
16 16 18 72 l3 71 36 9 c53 12 58 38 6 31 l-39 -6 7 47 c18 104 22 161 11 161
-6 0 -13 -3 -15 -7z"/>
<path d="M11565 2668 c-2 -7 -5 -65 -7 -128 -3 -99 -6 -122 -28 -164 -28 -56
-53 -77 -71 -59 -13 13 11 67 38 81 10 6 14 16 10 26 -9 24 -32 9 -66 -43 -32
-47 -31 -72 3 -91 81 -43 146 73 146 257 0 78 2 91 15 87 10 -4 15 0 15 14 0
28 -46 45 -55 20z"/>
<path d="M13960 2650 c0 -11 0 -21 0 -22 0 -2 -18 -46 -38 -98 -36 -90 -40
-95 -70 -98 -38 -4 -45 -32 -8 -32 l24 0 -24 -65 c-14 -38 -20 -67 -14 -70 12
-7 30 2 30 15 0 5 9 34 21 65 20 55 21 56 55 49 27 -5 34 -3 34 10 0 9 -6 16
-12 16 -39 1 -39 16 -3 115 38 107 43 135 20 135 -8 0 -15 -9 -15 -20z"/>
<path d="M12197 2643 c-2 -4 -5 -21 -5 -38 -1 -43 -49 -190 -67 -205 -20 -16
-19 -54 1 -70 30 -26 75 -16 111 23 36 40 42 77 17 98 -12 9 -23 10 -43 3
l-27 -11 23 81 c13 44 22 90 21 100 -3 20 -23 33 -31 19z m29 -258 c-19 -29
-36 -38 -62 -33 -14 2 -11 10 20 42 27 29 40 36 48 28 8 -8 6 -18 -6 -37z"/>
<path d="M13090 2631 c0 -24 -64 -192 -86 -226 -16 -24 -13 -62 5 -51 5 3 11
-3 14 -13 2 -10 17 -21 33 -25 25 -7 33 -2 62 29 25 27 31 41 26 58 -9 30 -24
38 -58 32 -33 -6 -33 -12 9 106 27 73 28 109 5 109 -5 0 -10 -9 -10 -19z m20
-240 c0 -21 -38 -54 -52 -45 -16 10 -8 41 15 52 32 15 37 14 37 -7z"/>
<path d="M13300 2634 c0 -8 -14 -47 -31 -87 -16 -40 -30 -73 -30 -74 0 -2 -8
-23 -19 -47 -25 -59 -28 -81 -11 -81 7 0 26 33 42 75 16 41 34 84 39 95 16 32
40 106 40 121 0 8 -7 14 -15 14 -8 0 -15 -7 -15 -16z"/>
<path d="M1577 2634 c-16 -16 -6 -34 19 -34 19 0 25 5 22 17 -3 19 -29 29 -41
17z"/>
<path d="M6264 2632 c-14 -8 -34 -159 -34 -254 0 -54 3 -68 15 -68 12 0 15 13
15 55 0 30 5 99 11 154 12 108 10 124 -7 113z"/>
<path d="M9820 2555 c-30 -47 -58 -85 -62 -85 -3 0 -18 24 -31 53 -14 28 -32
61 -40 72 -13 17 -16 18 -22 4 -3 -9 11 -49 33 -91 l38 -75 -68 -109 c-37 -60
-69 -117 -69 -126 -1 -10 -2 -23 -3 -30 -2 -25 24 -18 30 9 11 45 114 213 239
388 42 58 47 76 21 75 -6 -1 -36 -39 -66 -85z"/>
<path d="M5437 2613 c-23 -26 -47 -87 -47 -121 0 -15 -6 -34 -12 -40 -10 -10
-10 -15 -1 -20 7 -4 13 -36 15 -72 2 -50 7 -65 19 -68 14 -3 16 6 11 67 l-5
70 44 3 c54 4 54 22 -1 26 -35 3 -40 6 -40 28 0 25 19 76 39 104 10 13 14 11
30 -10 24 -30 38 -20 25 18 -12 34 -52 41 -77 15z"/>
<path d="M14552 2621 c-13 -8 -71 -169 -73 -200 0 -10 -2 -12 -6 -3 -8 20 -58
14 -81 -10 -40 -44 -50 -122 -16 -135 56 -21 102 41 149 198 19 63 41 119 50
125 31 23 10 46 -23 25z m-98 -227 c13 -5 13 -10 5 -27 -15 -28 -50 -67 -61
-67 -14 0 -9 54 8 78 16 23 23 26 48 16z"/>
<path d="M2975 2603 c11 -31 45 -157 45 -170 0 -7 -10 -13 -23 -13 -24 0 -56
-28 -76 -67 -18 -35 2 -73 37 -73 33 0 55 20 77 73 20 49 19 84 -7 183 -18 68
-26 84 -41 84 -14 0 -17 -5 -12 -17z m35 -223 c0 -22 -31 -70 -45 -70 -22 0
-18 30 7 57 23 25 38 30 38 13z"/>
<path d="M3740 2603 c1 -10 2 -37 1 -59 -1 -38 -4 -42 -31 -47 -19 -4 -30 -13
-30 -23 0 -12 7 -15 24 -12 23 5 24 3 24 -52 0 -33 7 -70 16 -89 14 -26 22
-31 51 -31 24 0 35 5 35 15 0 9 -9 15 -25 15 -32 0 -45 26 -45 94 0 59 -1 58
64 68 11 2 21 9 24 16 2 8 -9 12 -37 12 l-42 0 3 52 c3 44 0 53 -15 56 -13 3
-18 -2 -17 -15z"/>
<path d="M4275 2603 c-4 -10 -9 -66 -12 -125 -4 -73 -10 -112 -19 -119 -19
-16 -18 -54 2 -70 9 -7 34 -14 56 -14 33 0 46 7 69 33 31 35 40 97 17 120 -20
20 -55 13 -79 -15 l-22 -28 6 90 c4 50 9 102 13 118 5 20 3 27 -9 27 -8 0 -18
-8 -22 -17z m95 -221 c0 -36 -23 -68 -55 -74 -14 -3 -25 -3 -25 -1 0 2 11 26
25 53 28 56 55 66 55 22z"/>
<path d="M5100 2615 c0 -3 6 -16 14 -28 13 -19 22 -86 17 -123 0 -6 -14 -14
-30 -17 -58 -12 -105 -111 -71 -152 17 -20 63 -19 89 3 30 24 44 81 44 184 0
65 -4 93 -17 112 -14 22 -46 36 -46 21z m26 -229 c-3 -11 -6 -26 -6 -33 0 -18
-29 -43 -51 -43 -28 0 -25 50 5 83 29 32 61 27 52 -7z"/>
<path d="M11396 2608 c-11 -42 -37 -121 -56 -172 -23 -65 -25 -151 -2 -151 9
0 14 19 17 60 2 37 15 90 33 136 35 87 42 130 25 136 -7 3 -15 -1 -17 -9z"/>
<path d="M6380 2561 c0 -70 -14 -101 -44 -101 -35 0 -42 -18 -12 -30 23 -8 26
-15 26 -59 0 -63 30 -91 96 -91 41 0 56 11 34 25 -5 3 -10 1 -10 -4 0 -7 -6
-8 -17 -2 -10 5 -30 14 -45 20 -25 9 -28 16 -28 55 l0 45 43 3 c50 4 52 22 3
26 -33 3 -34 5 -26 28 6 14 10 50 10 80 0 41 -4 54 -15 54 -11 0 -15 -12 -15
-49z"/>
<path d="M2856 2592 c-9 -15 -25 -215 -19 -244 6 -30 28 -54 36 -40 3 4 2 24
-2 43 -4 18 -4 79 1 133 6 61 5 103 0 108 -6 6 -12 6 -16 0z"/>
<path d="M5587 2582 c-19 -21 -36 -91 -37 -149 0 -27 -5 -43 -12 -44 -7 -1
-19 -2 -27 -3 -30 -2 -23 -26 8 -26 29 0 30 -2 33 -47 2 -35 7 -48 18 -48 12
0 14 11 12 53 -3 46 -2 52 15 50 42 -3 63 3 63 18 0 13 -8 15 -40 12 -39 -3
-40 -3 -40 29 0 46 20 132 32 139 6 4 17 -1 23 -10 12 -15 13 -15 19 0 15 38
-38 59 -67 26z"/>
<path d="M7270 2510 c0 -98 3 -94 -70 -102 -38 -4 -25 -23 18 -26 38 -3 39 -4
48 -50 6 -33 14 -48 27 -50 14 -3 18 1 13 15 -2 10 -8 35 -11 55 l-7 37 43 3
c57 4 65 28 10 28 l-41 0 0 90 c0 73 -3 90 -15 90 -12 0 -15 -17 -15 -90z"/>
<path d="M7922 2588 c-8 -8 -5 -22 9 -49 22 -44 25 -89 6 -89 -7 0 -28 -13
-47 -28 -43 -37 -46 -84 -7 -118 34 -29 52 -22 76 25 29 58 33 109 14 188 -18
73 -31 91 -51 71z m28 -193 c0 -26 -30 -77 -43 -72 -19 6 -20 53 -2 71 21 20
45 21 45 1z"/>
<path d="M10770 2528 c-6 -24 -20 -76 -31 -116 -31 -116 -22 -129 43 -65 l37
36 -2 -28 c-1 -20 3 -30 14 -33 13 -2 18 7 21 45 8 85 -11 96 -63 36 -17 -21
-29 -30 -25 -20 8 23 46 173 46 181 0 3 -7 6 -15 6 -8 0 -19 -17 -25 -42z"/>
<path d="M5227 2554 c-10 -10 12 -44 28 -44 23 0 29 22 10 37 -21 15 -29 16
-38 7z"/>
<path d="M2129 2481 c-25 -16 -49 -36 -52 -45 -11 -29 13 -27 50 3 21 17 41
31 45 31 5 0 -3 -22 -17 -50 -14 -27 -25 -63 -25 -80 0 -25 4 -30 25 -30 13 0
29 8 35 18 10 16 10 16 20 0 32 -53 126 19 113 86 -12 66 -45 72 -36 6 4 -30
1 -45 -12 -60 -24 -26 -33 -25 -41 5 -7 30 -25 32 -49 5 -30 -33 -28 -16 5 50
47 94 26 115 -61 61z"/>
<path d="M5744 2496 c-18 -14 -18 -15 -1 -21 23 -9 47 1 47 20 0 19 -20 19
-46 1z"/>
<path d="M12352 2468 c-22 -24 -42 -69 -42 -94 0 -44 80 -69 145 -44 43 16 19
31 -38 24 -71 -8 -87 9 -60 63 19 39 43 55 43 30 0 -9 -9 -19 -20 -22 -11 -3
-20 -13 -20 -21 0 -17 -1 -17 38 -3 36 13 48 39 30 68 -17 27 -49 27 -76 -1z"/>
<path d="M1528 2447 c-36 -75 -30 -137 12 -137 23 0 27 25 6 33 -16 6 -9 54
12 94 16 28 15 43 -1 43 -7 0 -20 -15 -29 -33z"/>
<path d="M10603 2465 l-22 -16 21 -44 c20 -42 20 -45 4 -70 -20 -31 -35 -26
-28 10 6 32 -15 33 -29 1 -14 -29 3 -66 30 -66 24 0 71 55 71 81 0 11 -7 33
-15 49 -15 30 -14 32 15 34 8 1 16 9 18 19 4 22 -35 23 -65 2z"/>
<path d="M2647 2452 c-9 -10 -17 -22 -17 -25 0 -17 -67 -107 -83 -113 -10 -3
-16 -11 -14 -17 7 -23 28 -18 57 13 25 27 33 30 45 20 12 -10 21 -10 41 -1 23
10 26 9 31 -8 6 -22 29 -35 38 -21 3 5 1 18 -5 29 -7 13 -7 28 0 46 22 58 4
60 -48 8 -32 -34 -36 -36 -40 -18 -2 10 4 34 14 52 21 40 8 65 -19 35z"/>
<path d="M4460 2450 c-28 -28 -27 -98 1 -134 31 -40 108 -30 149 19 22 26 2
30 -39 7 -48 -27 -77 -28 -91 -3 -14 28 -14 28 25 41 29 9 35 17 35 39 0 51
-43 68 -80 31z m50 -24 c0 -15 -29 -30 -39 -20 -3 3 3 12 13 20 24 17 26 17
26 0z"/>
<path d="M12835 2436 c-26 -25 -36 -42 -33 -58 4 -31 46 -36 79 -9 l24 19 11
-31 c18 -53 33 -44 32 20 -2 97 -47 121 -113 59z m63 -8 c-6 -17 -56 -53 -64
-45 -7 7 44 57 58 57 5 0 8 -5 6 -12z"/>
<path d="M13334 2451 c-36 -22 -51 -41 -54 -66 -8 -69 12 -95 73 -95 44 0 61
7 64 26 1 8 -16 11 -50 10 -45 -1 -52 2 -55 19 -2 15 8 24 38 37 34 14 40 21
40 46 0 38 -19 45 -56 23z m26 -26 c0 -2 -10 -9 -22 -15 -22 -11 -22 -10 -4 4
21 17 26 19 26 11z"/>
<path d="M3336 2449 c-2 -8 -7 -45 -10 -82 -6 -82 6 -85 44 -11 l25 49 3 -62
c2 -38 8 -66 17 -73 18 -15 17 -16 16 79 0 81 -12 106 -41 91 -10 -6 -22 -19
-25 -30 -4 -11 -11 -18 -16 -15 -5 4 -3 14 3 25 10 15 10 22 1 31 -10 10 -13
9 -17 -2z"/>
<path d="M8758 2450 c-39 -7 -68 -26 -68 -43 0 -6 14 -25 31 -43 48 -50 25
-65 -58 -39 -18 6 -23 3 -23 -9 0 -34 89 -48 128 -20 30 20 28 37 -9 79 l-31
35 25 9 c14 5 35 7 47 4 17 -5 21 -2 19 12 -5 22 -14 25 -61 15z"/>
<path d="M10057 2405 c-15 -30 -31 -55 -36 -55 -5 0 -7 -10 -4 -22 5 -18 3
-21 -7 -11 -15 14 -40 6 -40 -13 0 -17 14 -18 43 -2 12 7 32 11 43 9 13 -1 34
10 52 28 20 20 29 25 26 13 -7 -24 19 -57 40 -49 18 7 22 37 5 37 -7 0 -9 16
-4 50 9 65 -6 66 -63 3 l-43 -48 21 42 c23 49 26 73 7 73 -7 0 -25 -25 -40
-55z"/>
<path d="M5851 2424 c-31 -39 -27 -71 12 -94 39 -24 97 -27 97 -5 0 10 -10 15
-29 15 -16 0 -39 8 -51 18 -20 16 -21 21 -10 41 9 19 18 22 41 17 24 -5 29 -2
29 14 0 32 -63 27 -89 -6z"/>
<path d="M9861 2410 c-53 -73 -50 -130 6 -130 29 0 69 40 76 78 6 28 -18 82
-40 89 -7 3 -25 -14 -42 -37z m49 -37 c0 -29 -25 -63 -47 -63 -16 0 -16 1 3
50 19 46 44 54 44 13z"/>
<path d="M2416 2418 c-29 -42 -9 -108 32 -108 22 0 52 40 52 68 -1 58 -54 83
-84 40z m54 -43 c0 -7 -7 -18 -15 -25 -12 -10 -16 -9 -21 4 -9 24 3 47 21 40
8 -3 15 -12 15 -19z"/>
<path d="M3514 2429 c-3 -6 4 -24 16 -41 20 -27 20 -31 6 -54 -14 -20 -19 -22
-36 -12 -10 7 -15 15 -10 18 15 9 25 70 12 70 -16 0 -32 -34 -32 -69 0 -30 22
-61 43 -61 45 1 90 102 52 116 -8 4 -15 12 -15 19 0 17 -27 27 -36 14z"/>
<path d="M8034 2406 c-43 -43 -48 -92 -9 -102 34 -8 119 34 123 62 4 27 -34
74 -60 74 -11 0 -35 -15 -54 -34z m74 -18 c7 -7 12 -15 12 -19 0 -6 -72 -39
-85 -39 -13 0 -3 32 15 50 23 23 41 25 58 8z"/>
<path d="M8858 2412 c-73 -71 11 -166 86 -97 36 34 34 68 -7 99 -41 32 -45 32
-79 -2z m80 -50 c5 -16 -42 -44 -62 -36 -21 8 -21 32 1 56 14 16 19 16 37 5
11 -8 22 -19 24 -25z"/>
<path d="M11133 2428 c-5 -7 -15 -26 -23 -42 -8 -16 -27 -37 -42 -45 -40 -23
-46 -45 -11 -36 16 4 41 6 58 6 16 0 40 7 54 16 15 9 26 12 28 6 2 -6 10 -19
18 -29 11 -15 16 -16 26 -7 10 10 10 15 0 27 -8 9 -10 27 -6 46 9 41 -15 40
-62 -1 -41 -36 -51 -33 -29 10 18 33 21 61 7 61 -5 0 -13 -6 -18 -12z"/>
<path d="M6029 2428 c-27 -90 -5 -134 60 -124 44 7 52 16 54 57 2 42 -26 48
-31 7 -2 -16 -11 -30 -23 -33 -32 -10 -41 4 -34 51 5 36 3 44 -9 44 -9 0 -16
-1 -17 -2z"/>
<path d="M14566 2399 c-32 -38 -34 -84 -5 -99 39 -21 109 12 109 52 0 20 -50
78 -68 78 -5 0 -22 -14 -36 -31z m65 -30 c12 -23 6 -33 -29 -44 -27 -8 -39 14
-22 44 14 27 36 27 51 0z"/>
<path d="M7406 2396 c-28 -27 -32 -46 -16 -77 22 -41 120 -4 120 45 0 27 -15
42 -52 51 -21 5 -33 1 -52 -19z m74 -31 c0 -17 -51 -38 -62 -27 -18 18 9 50
37 45 14 -3 25 -11 25 -18z"/>
<path d="M10930 2411 c-20 -5 -26 -14 -28 -45 -4 -45 13 -68 47 -64 39 5 57
48 36 88 -8 16 -19 30 -23 29 -4 -1 -18 -4 -32 -8z m30 -57 c0 -26 -17 -33
-26 -9 -8 20 3 48 16 40 5 -3 10 -17 10 -31z"/>
<path d="M5226 2381 c-10 -11 -16 -30 -14 -43 4 -28 33 -31 33 -3 0 11 4 26 9
33 15 24 -9 34 -28 13z"/>
<path d="M13987 2368 c-38 -43 -35 -93 5 -94 40 -1 88 31 88 58 -1 76 -44 93
-93 36z m48 -48 c-40 -45 -61 -13 -23 35 22 28 22 28 31 7 8 -17 6 -27 -8 -42z"/>
<path d="M5727 2373 c-4 -3 -7 -26 -7 -50 0 -32 4 -43 15 -43 11 0 15 12 15
50 0 46 -7 60 -23 43z"/>
<path d="M9077 2324 c-9 -10 2 -24 19 -24 8 0 14 7 14 15 0 15 -21 21 -33 9z"/>
<path d="M5025 2153 c-9 -95 -19 -138 -33 -139 -7 -1 -16 -2 -21 -3 -24 -3
-72 -56 -82 -91 -14 -46 -1 -70 36 -70 25 0 60 34 50 49 -3 6 1 11 9 11 19 0
54 92 66 178 14 96 13 132 -4 132 -10 0 -16 -19 -21 -67z m-51 -212 c-38 -72
-81 -86 -49 -16 14 28 52 62 73 65 2 0 -9 -22 -24 -49z"/>
<path d="M7017 2166 c-14 -30 -28 -63 -31 -74 -4 -13 -20 -23 -44 -29 -42 -10
-53 -40 -13 -35 20 3 23 1 16 -15 -34 -85 -6 -136 72 -131 62 4 71 28 10 28
-59 0 -74 17 -59 68 20 62 26 67 82 65 38 -2 50 1 50 12 0 9 -15 17 -40 21
-22 4 -40 11 -40 16 0 5 11 31 25 59 24 46 26 69 5 69 -5 0 -20 -24 -33 -54z"/>
<path d="M2880 2193 c0 -5 -7 -39 -16 -78 -9 -38 -17 -77 -19 -85 -1 -8 -12
-35 -23 -60 -25 -53 -28 -80 -8 -80 8 0 17 8 21 18 3 9 19 33 35 52 33 41 50
34 55 -24 4 -39 11 -56 26 -56 14 0 11 78 -6 110 -17 33 -33 41 -59 27 -16 -8
-18 -7 -12 9 14 36 36 155 31 165 -7 11 -25 12 -25 2z"/>
<path d="M2762 2153 c2 -10 -1 -40 -5 -66 -7 -43 -13 -50 -43 -63 -40 -17 -44
-34 -8 -34 28 0 28 3 11 -105 -1 -5 5 -10 13 -10 11 0 18 18 25 59 7 38 16 61
25 64 43 11 45 14 23 23 -27 10 -28 17 -10 87 15 56 13 62 -15 62 -11 0 -17
-6 -16 -17z"/>
<path d="M2605 2090 c-4 -6 -3 -16 3 -22 6 -6 12 -6 17 2 4 6 3 16 -3 22 -6 6
-12 6 -17 -2z"/>
<path d="M1633 2070 c-38 -9 -63 -27 -63 -46 0 -8 12 -36 27 -62 28 -51 27
-82 -5 -82 -20 0 -55 34 -65 63 -8 22 -27 13 -27 -13 0 -22 51 -75 79 -83 29
-7 71 28 71 60 0 15 -12 46 -26 70 -14 25 -23 48 -19 51 4 4 27 7 51 6 30 -1
44 3 44 12 0 21 -32 32 -67 24z"/>
<path d="M3958 2059 c-23 -13 -23 -26 3 -101 14 -41 17 -64 10 -71 -14 -14
-41 9 -41 35 0 24 -24 19 -28 -6 -6 -30 26 -66 58 -66 23 0 33 6 42 26 10 22
9 37 -9 88 -25 71 -19 86 29 68 49 -18 69 5 23 26 -31 15 -64 15 -87 1z"/>
<path d="M6562 2028 c-27 -14 -85 -105 -72 -113 6 -3 10 -15 10 -25 0 -30 35
-43 96 -35 49 6 85 27 67 38 -5 3 -31 1 -58 -4 -82 -15 -102 7 -37 40 50 25
74 54 70 83 -4 27 -39 34 -76 16z m46 -29 c-5 -15 -68 -53 -68 -41 0 12 48 52
62 52 5 0 8 -5 6 -11z"/>
<path d="M2299 2002 c-19 -17 -29 -34 -25 -40 11 -19 33 -14 39 8 3 11 12 20
21 20 14 0 12 -8 -9 -50 -45 -89 -23 -129 45 -80 23 16 30 17 39 6 16 -19 57
-17 77 5 9 10 19 39 21 64 5 37 3 45 -11 45 -9 0 -16 -3 -17 -7 -7 -93 -18
-107 -52 -75 -30 28 -38 28 -67 -3 -34 -36 -35 -25 -5 35 14 28 25 61 23 73
-5 33 -41 33 -79 -1z"/>
<path d="M4129 1996 c-11 -20 -25 -34 -29 -31 -13 8 -23 -16 -12 -27 6 -6 8
-23 5 -38 -10 -53 48 -84 111 -60 43 16 31 31 -21 28 -47 -3 -48 -3 -51 29 -3
28 0 32 23 35 35 4 65 51 49 76 -20 32 -52 27 -75 -12z m41 -17 c-7 -11 -14
-18 -17 -15 -3 3 0 12 7 21 18 21 23 19 10 -6z"/>
<path d="M6034 1970 c-27 -33 -54 -60 -61 -60 -18 0 -27 -20 -15 -32 8 -8 18
-7 34 4 20 14 24 13 39 -5 l16 -20 37 22 36 23 0 -25 c0 -23 25 -45 33 -29 6
11 0 112 -6 119 -4 3 -25 -11 -47 -31 -22 -20 -43 -36 -46 -36 -10 0 8 45 32
77 13 17 24 36 24 42 0 26 -30 7 -76 -49z"/>
<path d="M6283 2018 c-21 -33 -51 -134 -43 -142 9 -9 23 5 66 62 9 12 10 8 6
-16 -2 -18 -1 -32 3 -32 5 0 30 21 57 46 27 25 51 44 53 42 2 -2 0 -21 -5 -42
-9 -43 -4 -66 15 -66 13 0 30 114 19 131 -10 16 -47 9 -71 -13 -20 -18 -23
-19 -23 -5 0 20 -30 23 -48 5 -9 -9 -12 -9 -12 -1 0 7 5 15 10 18 6 3 10 10
10 16 0 13 -27 11 -37 -3z"/>
<path d="M6786 2014 c-15 -10 -23 -11 -33 -2 -10 8 -17 7 -28 -8 -14 -18 -45
-99 -45 -116 0 -20 28 -5 62 34 l38 43 0 -32 c0 -42 24 -67 51 -52 21 11 17
29 -7 29 -16 0 -18 22 -5 67 12 40 -5 58 -33 37z"/>
<path d="M1721 1986 c-28 -45 -27 -91 4 -121 38 -39 82 -29 110 25 24 47 19
76 -18 104 -46 35 -71 33 -96 -8z m78 -15 c26 -20 24 -56 -5 -85 -19 -20 -29
-20 -48 0 -20 20 -20 53 0 82 18 27 22 27 53 3z"/>
<path d="M3297 2000 c-40 -31 -60 -75 -47 -100 14 -27 48 -25 85 5 l29 24 11
-32 c8 -26 15 -32 39 -32 35 0 47 22 14 27 -21 3 -23 7 -20 54 2 46 0 52 -20
57 -13 3 -32 8 -43 12 -14 4 -30 -1 -48 -15z m28 -60 c-30 -32 -45 -38 -45
-18 0 21 53 69 64 58 7 -7 0 -20 -19 -40z"/>
<path d="M5478 1995 c-30 -28 -42 -59 -36 -96 4 -32 34 -36 66 -7 14 12 22 18
19 12 -9 -16 12 -74 27 -74 9 0 12 21 9 83 -3 45 -6 88 -8 95 -7 20 -49 14
-77 -13z m52 -17 c0 -7 -14 -29 -30 -48 -26 -31 -29 -32 -30 -14 0 23 35 74
51 74 5 0 9 -6 9 -12z"/>
<path d="M5666 2005 c-23 -24 -49 -116 -35 -129 14 -14 39 19 39 52 0 13 5 32
10 43 9 16 15 17 31 8 32 -17 45 -5 21 19 -26 26 -45 28 -66 7z"/>
<path d="M4320 1983 c-41 -34 -55 -70 -39 -100 14 -25 71 -47 109 -41 38 5 27
22 -19 30 -52 9 -61 15 -61 39 0 32 42 68 73 62 20 -4 27 -1 27 10 0 15 -20
27 -45 27 -7 0 -28 -12 -45 -27z"/>
<path d="M4687 1968 c-3 -13 -11 -37 -18 -55 -21 -51 -3 -50 42 0 46 53 75 63
59 21 -14 -36 -13 -97 2 -92 18 6 41 118 27 134 -14 17 -51 18 -66 3 -8 -8
-13 -8 -17 0 -11 18 -23 13 -29 -11z"/>
<path d="M5862 1960 c-25 -34 -65 -60 -56 -36 3 8 15 16 26 19 11 3 18 11 16
18 -8 25 -29 20 -59 -12 -53 -57 -21 -103 42 -59 16 12 32 21 34 19 1 -2 -4
-32 -12 -66 -11 -42 -21 -63 -31 -63 -34 0 -91 -44 -107 -82 -19 -48 -22 -142
-5 -163 31 -38 72 6 115 123 16 46 35 82 42 82 9 0 11 8 8 23 -4 13 3 58 14
101 19 72 20 126 2 126 -4 0 -17 -13 -29 -30z m-52 -257 c-19 -60 -61 -143
-71 -143 -10 0 -11 82 0 120 6 23 69 75 79 66 2 -3 -2 -22 -8 -43z"/>
<path d="M4501 1944 c-25 -32 -26 -52 -5 -82 34 -50 114 -12 114 55 0 56 -72
74 -109 27z m79 -33 c0 -37 -52 -57 -64 -25 -9 23 20 53 45 47 10 -3 19 -13
19 -22z"/>
<path d="M2586 1952 c-12 -19 -17 -80 -7 -86 11 -7 22 14 35 67 5 20 3 27 -8
27 -8 0 -17 -3 -20 -8z"/>
<path d="M7232 1894 c4 -21 22 -23 26 -1 2 10 -3 17 -13 17 -10 0 -15 -6 -13
-16z"/>
<path d="M9252 1793 c-11 -10 -29 -40 -41 -66 -17 -41 -18 -49 -5 -54 17 -6
27 1 30 22 1 8 12 34 25 59 25 51 22 65 -9 39z"/>
<path d="M5282 1753 c-23 -9 -61 -80 -97 -177 -47 -131 -52 -173 -27 -228 28
-65 107 -120 141 -99 19 12 5 31 -24 31 -33 0 -81 49 -96 98 -11 39 -10 50 21
145 45 140 76 197 112 204 33 7 38 33 6 32 -13 0 -29 -3 -36 -6z"/>
<path d="M10510 1736 c0 -8 11 -18 24 -22 27 -6 61 -73 72 -141 7 -48 -15
-142 -51 -212 -27 -55 -35 -61 -78 -70 -44 -9 -47 -31 -4 -31 63 0 114 63 151
189 21 73 20 118 -5 195 -23 71 -39 91 -81 101 -22 6 -28 4 -28 -9z"/>
<path d="M9840 1720 c0 -11 -5 -39 -12 -63 -10 -40 -15 -45 -55 -55 -40 -11
-64 -34 -50 -49 4 -3 21 1 39 10 18 9 34 15 35 13 1 -1 -6 -26 -17 -54 -22
-59 -26 -96 -8 -90 10 4 28 47 55 131 4 12 14 17 32 15 43 -5 39 21 -7 38 -1
1 4 25 12 55 7 30 12 57 9 62 -9 15 -33 6 -33 -13z"/>
<path d="M5478 1685 c-21 -43 -21 -64 1 -50 16 9 51 81 44 89 -14 13 -24 4
-45 -39z"/>
<path d="M6432 1717 c-5 -7 -13 -32 -17 -57 -13 -77 -20 -88 -61 -92 -51 -4
-58 -28 -9 -28 35 0 37 -1 31 -27 -4 -16 -14 -33 -22 -40 -18 -13 -10 -56 9
-50 7 2 23 31 36 65 21 53 29 64 55 70 38 10 40 26 5 30 -26 3 -26 3 -15 52 6
26 14 52 19 56 11 11 8 21 -7 27 -8 3 -19 0 -24 -6z"/>
<path d="M8637 1681 c-3 -27 -23 -100 -43 -161 -27 -82 -34 -114 -26 -122 7
-7 13 -10 15 -7 2 2 20 54 40 114 43 131 58 225 35 225 -11 0 -17 -15 -21 -49z"/>
<path d="M5977 1693 c-4 -3 -7 -18 -7 -32 0 -14 -12 -66 -26 -116 -38 -133
-39 -135 -21 -135 9 0 18 8 21 18 4 10 22 34 42 53 l36 34 -8 -39 c-5 -28 -3
-41 7 -47 11 -6 16 3 25 39 5 26 8 53 6 60 -6 18 -42 15 -65 -5 -20 -17 -20
-17 -13 7 18 64 34 154 30 162 -6 10 -18 10 -27 1z"/>
<path d="M6221 1648 c-7 -29 -15 -61 -17 -70 -3 -10 -19 -21 -35 -26 -36 -9
-39 -26 -5 -30 22 -3 23 -6 16 -35 -16 -59 -16 -92 -1 -92 9 0 19 22 27 64 8
36 17 67 22 70 5 3 12 29 15 56 4 28 9 65 13 83 5 24 3 32 -8 32 -9 0 -19 -20
-27 -52z"/>
<path d="M3050 1661 c0 -26 17 -44 63 -67 l50 -26 -68 -68 c-41 -41 -63 -70
-56 -74 16 -10 51 3 51 19 0 16 89 95 108 95 38 0 -4 47 -75 84 -18 9 -33 23
-33 31 0 8 -9 15 -20 15 -11 0 -20 -4 -20 -9z"/>
<path d="M8906 1657 c-11 -8 -16 -19 -12 -25 8 -13 68 8 63 23 -6 16 -31 17
-51 2z"/>
<path d="M3860 1626 c0 -20 -9 -77 -20 -128 -22 -96 -21 -118 5 -118 11 0 15
10 15 38 0 20 5 53 10 72 6 19 13 59 15 89 3 29 7 58 8 64 1 6 -6 13 -15 15
-15 3 -18 -3 -18 -32z"/>
<path d="M7231 1623 c-10 -21 -42 -69 -70 -108 -28 -38 -51 -77 -51 -87 0 -28
19 -31 29 -4 6 13 30 51 54 83 49 65 77 114 77 138 0 27 -19 16 -39 -22z"/>
<path d="M7096 1613 c-8 -16 -28 -46 -46 -68 -28 -36 -80 -126 -80 -140 0 -3
8 -5 18 -5 11 0 23 13 31 35 7 19 29 56 49 82 47 61 72 99 72 113 0 21 -30 9
-44 -17z"/>
<path d="M8455 1600 c-3 -5 -14 -10 -23 -10 -45 -1 -91 -72 -92 -142 0 -34 29
-18 40 21 15 58 47 94 76 87 20 -5 24 -3 24 18 0 27 -15 42 -25 26z"/>
<path d="M6810 1574 c0 -10 7 -14 22 -12 32 5 35 28 4 28 -17 0 -26 -5 -26
-16z"/>
<path d="M7639 1567 c-33 -28 -61 -81 -53 -101 8 -21 21 -20 52 5 l27 21 3
-32 c2 -17 8 -30 15 -27 14 4 38 109 27 122 -5 6 -8 15 -7 20 4 19 -38 14 -64
-8z m51 -10 c0 -2 -15 -14 -32 -27 l-33 -23 24 26 c21 23 41 35 41 24z"/>
<path d="M7782 1553 c-6 -20 -9 -40 -6 -45 3 -4 1 -8 -5 -8 -14 0 -25 -60 -13
-72 7 -7 21 6 45 44 19 29 42 60 52 68 15 12 16 11 9 -16 -4 -16 -11 -39 -15
-52 -13 -34 -11 -62 4 -62 13 0 47 108 47 149 0 34 -28 37 -59 7 l-28 -27 4
25 c8 41 -22 32 -35 -11z"/>
<path d="M3410 1538 c-13 -24 -43 -66 -67 -95 -23 -28 -43 -56 -43 -62 0 -23
30 -10 57 25 26 35 28 35 37 15 12 -28 53 -27 83 1 22 21 23 21 23 2 0 -19 17
-44 30 -44 10 0 4 144 -7 147 -6 2 -25 -19 -42 -47 -17 -27 -38 -50 -46 -50
-21 0 -19 43 5 90 23 46 25 60 7 60 -7 0 -24 -19 -37 -42z"/>
<path d="M7461 1561 c-13 -10 -33 -16 -47 -13 -20 4 -24 0 -24 -22 0 -15 -7
-43 -15 -63 -18 -44 -19 -63 -2 -63 7 0 21 18 31 40 17 39 69 100 86 100 5 0
2 -20 -6 -44 -16 -47 -16 -87 1 -87 9 0 31 71 42 139 5 29 3 32 -18 32 -13 0
-35 -9 -48 -19z"/>
<path d="M7951 1518 c-33 -93 -35 -108 -20 -108 8 0 29 25 47 55 30 50 85 95
99 81 8 -8 -27 -96 -38 -96 -15 0 -10 -36 6 -50 12 -10 16 -9 21 6 3 11 15 41
26 67 36 89 9 129 -60 93 -26 -14 -31 -14 -36 -1 -10 28 -23 15 -45 -47z"/>
<path d="M8185 1546 c-31 -41 -44 -108 -25 -131 15 -18 81 -20 98 -3 22 22 13
28 -33 21 -41 -5 -45 -4 -45 16 0 14 6 21 19 21 26 0 73 57 69 84 -2 14 -11
22 -30 24 -20 2 -32 -5 -53 -32z m43 -16 c-7 -11 -19 -22 -27 -25 -12 -5 -12
-3 0 12 13 17 31 32 37 33 1 0 -3 -9 -10 -20z"/>
<path d="M9940 1553 c-23 -20 -35 -43 -42 -78 -14 -73 -14 -80 1 -80 8 0 21
25 31 58 22 70 43 97 72 89 16 -4 19 -1 16 14 -5 30 -43 28 -78 -3z"/>
<path d="M10232 1573 c-19 -7 -52 -78 -52 -111 0 -33 40 -82 66 -82 22 0 106
69 99 81 -10 15 -23 10 -61 -23 l-36 -32 -19 23 c-25 31 -24 35 10 48 41 15
66 55 51 82 -10 20 -31 25 -58 14z m28 -38 c0 -8 -10 -19 -21 -26 -22 -11 -21
-3 4 29 12 16 17 15 17 -3z"/>
<path d="M4165 1529 c-25 -23 -45 -50 -45 -59 0 -10 -7 -45 -14 -77 -22 -87
-24 -128 -6 -128 17 0 38 63 39 118 1 33 4 37 27 37 53 0 123 100 94 135 -21
25 -48 17 -95 -26z m60 -29 c-20 -38 -55 -59 -55 -33 0 22 48 76 61 68 5 -4 3
-18 -6 -35z"/>
<path d="M8873 1553 c-3 -10 -16 -42 -29 -72 -28 -63 -29 -74 -8 -69 17 3 77
134 68 149 -9 15 -24 10 -31 -8z"/>
<path d="M6583 1537 c-15 -13 -40 -27 -55 -31 -19 -4 -30 -15 -34 -34 -3 -15
-20 -72 -37 -127 -18 -55 -33 -106 -35 -112 -2 -7 3 -13 12 -13 21 0 41 42 62
126 16 67 34 105 34 72 0 -17 20 -28 50 -28 28 0 77 55 84 94 13 70 -27 97
-81 53z m26 -93 c-28 -30 -45 -30 -53 -1 -5 17 2 29 31 55 l38 34 3 -32 c2
-23 -3 -39 -19 -56z"/>
<path d="M3641 1523 c-24 -23 -30 -37 -33 -83 -2 -44 0 -55 12 -55 10 0 17 14
20 41 7 52 36 98 57 90 22 -9 36 3 22 20 -18 21 -45 17 -78 -13z"/>
<path d="M4525 1540 c-3 -5 -15 -10 -25 -10 -13 0 -22 -9 -25 -27 -4 -16 -10
-46 -15 -67 -5 -22 -7 -43 -4 -48 10 -16 25 -8 34 20 33 91 42 103 71 97 35
-8 45 9 17 29 -26 18 -44 20 -53 6z"/>
<path d="M4842 1527 c-28 -30 -38 -79 -22 -117 15 -37 40 -45 88 -30 44 15 57
25 48 39 -4 6 -21 5 -49 -5 -38 -14 -43 -13 -54 3 -18 24 -16 32 11 39 32 8
69 48 64 71 -5 29 -59 29 -86 0z m38 -22 c-7 -9 -15 -13 -19 -10 -3 3 1 10 9
15 21 14 24 12 10 -5z"/>
<path d="M9024 1536 c-3 -8 -16 -17 -30 -20 -41 -11 -71 -95 -42 -124 7 -7 26
-12 43 -12 51 1 95 50 95 108 0 45 -53 83 -66 48z m34 -49 c2 -18 -5 -35 -22
-52 -30 -29 -66 -34 -66 -7 0 29 29 62 56 62 24 0 33 14 14 23 -6 3 -5 4 2 3
7 -1 14 -14 16 -29z"/>
<path d="M10022 1525 c-21 -46 -15 -90 14 -105 18 -10 30 -11 42 -3 21 13 48
59 58 96 12 49 -26 30 -45 -23 -9 -25 -23 -45 -31 -45 -21 0 -25 42 -6 69 8
13 12 26 9 30 -13 13 -30 5 -41 -19z"/>
<path d="M4680 1525 c-11 -14 -12 -22 -1 -48 23 -57 25 -77 7 -77 -10 0 -14 5
-11 10 3 6 -3 10 -14 10 -28 0 -27 -26 3 -45 52 -34 89 21 56 85 -11 22 -20
41 -20 44 0 3 15 6 33 8 43 4 41 22 -4 26 -24 2 -40 -2 -49 -13z"/>
<path d="M4319 1510 c-26 -15 -44 -67 -29 -85 9 -11 17 -12 33 -4 17 10 23 8
40 -15 10 -14 23 -26 28 -26 13 0 11 34 -2 47 -8 8 -8 17 0 31 16 30 14 37
-14 50 -31 14 -35 14 -56 2z m31 -24 c0 -2 -8 -10 -17 -17 -16 -13 -17 -12 -4
4 13 16 21 21 21 13z"/>
<path d="M6780 1494 c0 -9 7 -14 17 -12 25 5 28 28 4 28 -12 0 -21 -6 -21 -16z"/>
<path d="M9303 1438 c-6 -7 -13 -22 -17 -34 -3 -11 -22 -37 -41 -58 -37 -41
-43 -56 -22 -56 36 0 121 130 99 152 -5 5 -13 4 -19 -4z"/>
<path d="M3910 1419 c0 -24 23 -21 28 4 2 10 -3 17 -12 17 -10 0 -16 -9 -16
-21z"/>
<path d="M8666 1424 c-16 -41 8 -61 34 -29 10 12 10 18 0 30 -16 19 -26 19
-34 -1z"/>
</g>
</svg>
