<?xml version="1.0" standalone="no"?>
<!DOCTYPE svg PUBLIC "-//W3C//DTD SVG 20010904//EN"
 "http://www.w3.org/TR/2001/REC-SVG-20010904/DTD/svg10.dtd">
<svg version="1.0" xmlns="http://www.w3.org/2000/svg"
 width="1618.000000pt" height="1214.000000pt" viewBox="0 0 1618.000000 1214.000000"
 preserveAspectRatio="xMidYMid meet">

<g transform="translate(0.000000,1214.000000) scale(0.100000,-0.100000)"
fill="#000000" stroke="none">
<path d="M2405 11707 c-44 -4 -129 -6 -189 -5 -73 2 -110 -1 -113 -8 -5 -13
72 -24 178 -24 l75 0 -7 -57 c-4 -32 -21 -112 -38 -177 -21 -81 -28 -123 -21
-130 14 -14 21 -3 35 61 7 32 22 92 33 133 27 96 33 152 20 167 -8 10 7 13 75
13 87 0 137 11 137 30 0 11 -48 10 -185 -3z"/>
<path d="M3576 11658 c-36 -42 -49 -75 -62 -154 -5 -34 -12 -44 -41 -58 -37
-18 -36 -41 2 -32 l23 6 -13 -58 c-13 -54 -8 -81 13 -68 5 3 13 27 17 52 10
68 22 94 44 94 20 0 45 23 34 33 -3 4 -17 4 -31 0 -23 -5 -24 -4 -17 28 16 80
26 106 54 139 27 32 31 34 52 22 18 -11 23 -12 30 -1 12 19 -9 39 -41 39 -21
0 -38 -11 -64 -42z"/>
<path d="M10236 11669 c-35 -41 -51 -80 -71 -176 -12 -54 -24 -83 -39 -95 -16
-13 -18 -20 -9 -29 9 -9 9 -20 -3 -47 -10 -24 -11 -39 -4 -46 13 -13 23 -1 40
51 11 37 18 44 47 49 23 4 33 12 33 25 0 25 -18 33 -37 18 -14 -12 -15 -9 -8
31 4 25 16 72 26 106 28 91 93 149 101 92 4 -28 22 -26 26 2 9 56 -61 68 -102
19z"/>
<path d="M2559 11673 c-1 -4 0 -24 0 -43 2 -33 -46 -166 -91 -254 -14 -28 -17
-41 -8 -50 8 -8 18 -2 38 24 66 85 88 88 78 9 -4 -30 -3 -50 4 -54 17 -10 21
-2 27 59 7 67 -7 91 -48 82 l-26 -5 29 75 c30 79 35 153 11 162 -7 2 -13 0
-14 -5z"/>
<path d="M12800 11610 c-19 -38 -39 -69 -44 -69 -72 8 -117 -63 -85 -133 8
-19 4 -37 -20 -95 -33 -77 -37 -98 -20 -108 14 -9 19 -3 25 29 2 15 16 51 30
81 l25 55 48 0 c42 0 51 4 66 26 21 33 16 112 -10 130 -15 11 -14 17 14 73 34
67 37 81 18 81 -7 0 -28 -31 -47 -70z m-60 -105 c0 -15 -35 -73 -42 -69 -13 8
-9 36 9 56 15 17 33 24 33 13z m64 -21 c10 -25 7 -59 -6 -72 -11 -11 -68 -17
-68 -7 0 2 10 25 22 50 23 46 41 57 52 29z"/>
<path d="M5288 11653 c-63 -31 -112 -122 -125 -230 -6 -53 -6 -53 -44 -59 -53
-9 -55 -38 -3 -32 l36 4 -4 -86 c-4 -97 -28 -153 -66 -158 -21 -3 -30 -26 -14
-36 4 -2 22 2 38 10 45 22 66 74 72 179 2 50 10 93 15 97 6 4 24 4 40 1 25 -5
28 -3 25 13 -2 13 -13 20 -37 22 -33 3 -33 4 -27 45 17 107 62 185 123 208 12
5 23 13 23 18 0 16 -24 18 -52 4z"/>
<path d="M7226 11648 c-3 -7 -10 -38 -16 -68 -25 -127 -26 -129 -72 -132 -55
-4 -64 -28 -10 -28 l40 0 -6 -85 c-4 -74 -3 -85 12 -85 12 0 16 10 16 48 0 26
3 64 6 85 6 36 8 37 50 37 49 0 51 -4 29 -57 -8 -19 -15 -42 -15 -49 0 -24 29
-15 36 10 3 13 21 39 40 57 l34 33 -6 -31 c-8 -39 3 -86 18 -81 6 2 12 29 14
60 3 53 1 59 -27 82 l-30 25 16 62 c9 33 15 68 13 78 -2 9 3 21 12 28 13 10
13 12 -2 18 -34 13 -47 -1 -47 -52 0 -26 -6 -70 -14 -98 l-13 -50 -48 -3 c-43
-3 -48 -1 -41 15 7 18 36 147 39 172 1 18 -23 26 -28 9z"/>
<path d="M13548 11643 c-9 -2 -29 -28 -44 -57 -20 -39 -32 -52 -45 -49 -9 3
-35 -7 -57 -21 -61 -38 -77 -109 -36 -157 13 -14 11 -24 -16 -74 -23 -44 -28
-61 -19 -71 13 -16 29 -9 29 13 0 9 11 36 25 60 18 30 33 43 48 43 38 1 105
37 112 62 13 39 7 80 -14 109 l-21 28 22 45 c12 24 30 47 40 49 10 3 18 10 18
16 0 11 -11 12 -42 4z m-114 -190 c-9 -21 -18 -46 -21 -55 -7 -23 -20 -23 -33
1 -7 14 -7 28 1 48 12 31 26 43 52 43 16 0 16 -2 1 -37z m82 13 c11 -46 1 -70
-39 -90 -21 -10 -40 -16 -43 -14 -8 9 50 128 62 128 8 0 16 -11 20 -24z"/>
<path d="M3811 11599 c-73 -21 -94 -35 -72 -49 12 -7 10 -23 -14 -101 -16 -51
-30 -114 -33 -141 -4 -45 -3 -47 23 -54 48 -12 249 46 229 66 -7 7 -45 1 -112
-16 -56 -15 -105 -25 -108 -21 -9 9 7 86 21 100 7 8 52 19 99 27 63 10 86 17
86 28 0 15 -11 15 -137 -4 l-42 -7 11 34 c6 19 13 48 15 65 5 29 10 33 62 48
32 9 69 16 84 16 17 0 27 5 27 15 0 20 -57 18 -139 -6z"/>
<path d="M14578 11609 c-9 -5 -27 -27 -39 -48 -15 -27 -26 -37 -39 -34 -21 6
-95 -39 -110 -66 -15 -28 -12 -73 5 -98 14 -20 14 -26 -5 -62 -24 -47 -25 -64
-6 -80 10 -8 16 -8 25 3 8 10 9 16 2 21 -7 4 -4 20 9 45 16 32 27 40 57 46 21
4 50 13 65 20 53 27 65 90 22 123 l-25 20 23 40 c13 23 31 44 41 47 19 6 24
34 5 34 -7 0 -21 -5 -30 -11z m-96 -135 c4 -3 -8 -28 -25 -55 -31 -51 -47 -51
-47 -1 0 36 52 77 72 56z m78 -44 c0 -22 -45 -60 -71 -60 -25 0 -24 5 8 56 22
35 30 41 45 33 10 -5 18 -18 18 -29z"/>
<path d="M10800 11590 c-6 -10 -9 -23 -8 -27 1 -4 -4 -31 -11 -60 -12 -49 -15
-53 -49 -59 -52 -8 -62 -12 -62 -24 0 -5 19 -10 41 -10 38 0 41 -2 35 -22 -17
-63 -19 -98 -4 -98 10 0 19 19 28 58 15 68 24 82 56 82 22 0 24 -3 18 -27 -4
-16 -11 -38 -15 -51 -22 -59 3 -85 33 -34 9 15 28 38 42 51 l26 25 -7 -64 c-5
-51 -4 -62 8 -58 14 5 27 58 28 116 1 42 -22 51 -60 23 l-29 -22 25 67 c27 72
34 149 13 142 -7 -3 -14 -15 -16 -29 -1 -13 -7 -43 -14 -66 -10 -40 -13 -43
-44 -43 -19 0 -34 2 -34 4 0 2 7 23 15 46 26 72 14 134 -15 80z"/>
<path d="M6095 11580 c-4 -6 -1 -17 5 -25 10 -12 10 -15 -2 -15 -10 0 -20 -26
-32 -80 -16 -69 -21 -80 -40 -80 -37 0 -66 -12 -66 -27 0 -12 8 -13 38 -8 l39
6 -7 -49 c-6 -52 2 -92 20 -92 6 0 10 24 10 54 0 79 5 86 57 86 47 0 87 15 78
30 -3 5 -30 6 -61 3 l-55 -6 7 39 c4 21 15 63 25 93 17 52 16 81 -1 81 -5 0
-12 -5 -15 -10z"/>
<path d="M14696 11559 c-39 -95 -79 -242 -69 -257 19 -31 33 -25 33 14 0 21
16 87 36 147 27 80 34 111 26 119 -9 9 -15 3 -26 -23z"/>
<path d="M9096 11568 c-2 -7 -14 -73 -27 -146 -17 -101 -20 -135 -11 -144 6
-6 13 -10 15 -7 5 6 50 251 51 278 1 26 -21 41 -28 19z"/>
<path d="M13000 11559 c-7 -13 -33 -49 -59 -79 -75 -89 -75 -90 -63 -102 7 -7
25 -5 61 8 28 10 53 15 56 13 3 -3 0 -31 -6 -62 -11 -60 -7 -77 17 -77 10 0
14 14 14 53 0 29 5 58 11 64 7 7 13 40 15 73 2 34 8 68 14 75 13 16 4 38 -13
32 -7 -2 -17 3 -23 11 -10 13 -13 12 -24 -9z m13 -86 c-5 -38 -8 -41 -39 -45
-19 -2 -34 -2 -34 0 0 7 73 93 76 90 1 -2 0 -22 -3 -45z"/>
<path d="M13687 11573 c-13 -21 -57 -191 -57 -219 0 -30 20 -60 33 -48 3 4 4
19 1 34 -6 30 29 172 52 207 8 12 14 25 14 28 0 8 -38 6 -43 -2z"/>
<path d="M14113 11544 c-24 -14 -43 -29 -43 -34 0 -21 22 -19 59 4 22 14 47
23 55 20 47 -18 13 -100 -75 -186 -56 -53 -74 -88 -47 -88 7 0 27 14 45 32 30
29 33 30 33 11 0 -52 60 -68 119 -32 46 28 28 47 -22 23 -19 -9 -43 -14 -52
-10 -23 9 -12 70 26 139 36 66 37 99 3 126 -34 27 -50 26 -101 -5z"/>
<path d="M14862 11554 c-28 -19 -29 -65 -2 -89 20 -18 20 -19 -27 -44 -54 -29
-66 -60 -36 -93 28 -31 62 -41 95 -27 32 13 41 37 36 95 -2 31 2 43 20 57 43
35 18 117 -36 117 -15 0 -38 -7 -50 -16z m48 -29 c0 -8 7 -15 15 -15 19 0 19
-9 -2 -32 -15 -17 -17 -17 -35 -2 -29 27 -22 59 15 63 4 1 7 -6 7 -14z m-10
-150 c0 -41 -18 -53 -59 -39 -38 14 -37 37 1 56 50 25 58 22 58 -17z"/>
<path d="M3400 11545 c0 -8 7 -15 15 -15 8 0 15 7 15 15 0 8 -7 15 -15 15 -8
0 -15 -7 -15 -15z"/>
<path d="M10030 11506 c0 -10 9 -16 21 -16 24 0 21 23 -4 28 -10 2 -17 -3 -17
-12z"/>
<path d="M6235 11490 c-8 -13 13 -40 31 -40 22 0 27 21 8 35 -23 17 -31 18
-39 5z"/>
<path d="M2733 11448 c-50 -55 -55 -97 -17 -134 21 -22 31 -25 62 -19 20 4 49
16 64 27 30 21 37 48 13 48 -8 0 -15 -4 -15 -9 0 -5 -18 -16 -41 -25 -32 -13
-44 -14 -55 -5 -21 17 -17 27 19 45 39 20 47 31 47 67 0 23 -4 27 -28 27 -17
0 -37 -9 -49 -22z m33 -34 c-11 -7 -22 -11 -25 -8 -3 3 3 12 13 20 11 7 22 11
25 8 3 -3 -3 -12 -13 -20z"/>
<path d="M4029 11454 c-18 -12 -29 -33 -41 -78 -9 -33 -14 -63 -12 -65 12 -12
34 15 49 59 18 53 38 71 58 51 15 -15 27 -14 27 3 0 13 -36 46 -50 46 -3 0
-16 -8 -31 -16z"/>
<path d="M4493 11449 c-18 -12 -33 -27 -33 -35 0 -8 -9 -33 -20 -55 -20 -38
-20 -59 1 -59 6 0 21 24 35 54 36 78 48 85 107 61 30 -13 20 23 -13 40 -37 19
-38 19 -77 -6z"/>
<path d="M7853 11450 c-24 -10 -43 -24 -43 -30 0 -12 37 -14 44 -1 3 5 15 11
25 14 19 5 19 2 -4 -44 -14 -26 -25 -55 -25 -64 0 -21 30 -19 60 5 l25 19 15
-32 c32 -65 104 -20 116 71 6 44 4 52 -9 52 -12 0 -18 -14 -23 -50 -4 -27 -13
-55 -20 -61 -19 -16 -44 -4 -44 21 0 26 -27 37 -51 21 -24 -14 -24 -9 1 39 11
22 20 44 20 50 0 16 -41 11 -87 -10z"/>
<path d="M8156 11451 c-15 -17 -16 -25 -6 -55 6 -20 16 -38 21 -41 5 -4 9 -13
9 -22 0 -12 -7 -14 -35 -9 -28 6 -35 4 -35 -8 0 -17 36 -29 71 -24 30 4 38 48
15 83 -9 13 -16 34 -16 46 0 18 4 21 29 16 34 -7 45 1 30 20 -17 19 -63 16
-83 -6z"/>
<path d="M9503 11441 c-17 -11 -34 -29 -38 -40 -3 -12 -13 -21 -21 -21 -11 0
-13 -6 -9 -22 18 -59 30 -73 66 -76 45 -4 89 13 89 34 0 12 -5 14 -17 8 -10
-4 -35 -9 -55 -12 -33 -4 -38 -1 -38 17 0 14 6 21 19 21 49 0 89 68 59 98 -16
16 -17 15 -55 -7z m37 -25 c0 -3 -7 -12 -16 -20 -23 -23 -40 -19 -19 4 16 18
35 26 35 16z"/>
<path d="M11082 11435 c-17 -14 -32 -38 -34 -55 -6 -41 16 -88 45 -95 48 -12
147 29 147 61 0 18 -2 18 -42 -5 -48 -28 -92 -35 -107 -17 -10 12 -5 18 28 36
68 39 82 100 22 100 -17 0 -42 -11 -59 -25z m45 -30 c-29 -26 -47 -32 -47 -16
0 13 41 41 60 41 10 -1 6 -9 -13 -25z"/>
<path d="M4177 11429 c-16 -12 -33 -41 -42 -71 -19 -66 -19 -68 5 -68 15 0 20
7 20 25 0 14 7 41 14 60 13 29 20 35 45 35 35 0 40 14 12 30 -25 13 -24 13
-54 -11z"/>
<path d="M7665 11440 c-3 -5 -3 -14 0 -20 3 -5 -1 -23 -10 -39 -24 -47 -20
-80 11 -92 21 -7 32 -6 52 7 21 14 24 22 20 59 -8 64 -53 117 -73 85z m45 -96
c0 -17 -5 -24 -20 -24 -22 0 -25 12 -9 41 13 25 29 16 29 -17z"/>
<path d="M3315 11431 c-3 -6 1 -14 9 -17 12 -5 14 -15 10 -44 -8 -46 11 -63
27 -24 16 44 8 88 -18 92 -11 2 -24 -2 -28 -7z"/>
<path d="M4279 11417 c-44 -37 -62 -72 -49 -96 17 -34 65 -28 106 13 41 41 42
49 9 81 -30 30 -33 31 -66 2z m49 -44 c-4 -20 -53 -51 -64 -40 -4 4 -1 18 6
32 16 30 64 36 58 8z"/>
<path d="M7519 11418 c-7 -13 -15 -25 -18 -28 -12 -10 -30 -95 -21 -104 14
-14 27 1 39 46 16 62 24 72 49 59 31 -17 41 8 12 31 -30 24 -47 23 -61 -4z"/>
<path d="M9243 11393 c-12 -21 -38 -54 -57 -72 -37 -36 -46 -61 -23 -61 8 0
21 8 30 18 12 13 26 17 46 14 16 -2 38 1 49 7 18 9 23 8 32 -9 12 -23 50 -27
50 -5 0 8 -5 15 -11 15 -8 0 -9 14 -5 44 10 62 -7 66 -53 14 -46 -50 -64 -44
-33 11 25 44 28 61 9 61 -7 0 -23 -17 -34 -37z"/>
<path d="M6350 11407 c-50 -39 -65 -110 -31 -141 25 -23 52 -14 86 25 29 35
32 74 9 107 -17 24 -41 28 -64 9z m48 -50 c5 -26 -25 -67 -48 -67 -14 0 -20 7
-20 23 0 51 59 90 68 44z"/>
<path d="M6558 11401 c-15 -13 -33 -18 -46 -14 -16 4 -22 1 -22 -11 0 -9 -7
-31 -16 -48 -11 -22 -13 -33 -5 -41 8 -8 25 3 62 38 38 38 49 44 44 28 -9 -33
3 -63 26 -63 19 0 27 26 9 32 -5 2 -6 17 -1 38 14 62 -5 77 -51 41z"/>
<path d="M9960 11418 c-1 -2 -3 -27 -6 -56 -4 -46 -2 -53 12 -50 10 2 18 15
21 33 2 17 4 39 6 50 1 11 -5 21 -15 23 -10 2 -18 2 -18 0z"/>
<path d="M8611 11396 c-10 -12 -8 -17 7 -25 10 -5 27 -32 37 -58 20 -54 34
-75 45 -68 11 7 70 131 70 149 0 32 -20 15 -48 -40 l-28 -55 -23 55 c-23 57
-39 68 -60 42z"/>
<path d="M8885 11393 c-22 -16 -55 -72 -55 -92 0 -30 26 -37 65 -18 33 15 33
15 39 -9 4 -13 13 -24 22 -24 11 0 14 7 9 33 -4 18 -1 45 5 61 6 17 7 33 2 38
-12 12 -75 20 -87 11z m45 -32 c0 -12 -61 -63 -67 -57 -9 8 38 66 53 66 8 0
14 -4 14 -9z"/>
<path d="M5398 11384 c-4 -3 -19 -30 -33 -60 -15 -30 -40 -64 -56 -76 -28 -21
-39 -48 -20 -48 5 0 23 11 39 25 19 15 33 21 37 15 11 -18 53 -11 84 15 l30
26 3 -33 c2 -21 8 -33 18 -33 10 0 14 8 12 22 -2 12 3 46 11 77 8 30 12 57 9
60 -11 11 -32 6 -32 -8 0 -17 -82 -106 -98 -106 -17 0 -15 34 5 75 11 24 13
39 7 45 -6 6 -13 8 -16 4z"/>
<path d="M5789 11351 c-65 -65 -12 -139 92 -129 22 2 34 8 34 18 0 11 -10 14
-41 12 -28 -2 -47 2 -63 15 -38 31 -18 65 52 87 25 8 12 26 -19 26 -15 0 -38
-12 -55 -29z"/>
<path d="M5630 11346 c-7 -9 -18 -16 -25 -16 -7 0 -18 -13 -23 -30 -16 -45 5
-48 40 -6 16 20 34 36 39 36 5 0 9 -23 9 -51 0 -36 4 -49 13 -46 8 2 12 24 12
63 0 56 -1 59 -26 62 -14 2 -31 -4 -39 -12z"/>
<path d="M6200 11345 c-15 -18 -19 -84 -6 -85 13 -1 37 83 27 93 -4 4 -14 1
-21 -8z"/>
<path d="M13788 11339 c-21 -12 -24 -39 -4 -39 7 0 19 7 26 15 17 21 1 37 -22
24z"/>
<path d="M13107 11323 c-13 -12 -7 -33 8 -33 8 0 15 9 15 20 0 20 -11 26 -23
13z"/>
<path d="M1763 11108 c0 -24 -8 -87 -18 -141 -13 -67 -16 -103 -9 -114 13 -21
30 -13 26 12 -2 11 7 72 19 136 22 116 21 149 -4 149 -9 0 -14 -13 -14 -42z"/>
<path d="M4811 11101 c-13 -26 -21 -56 -20 -66 7 -36 25 -24 42 27 10 29 20
61 24 71 3 11 0 17 -9 17 -8 0 -25 -22 -37 -49z"/>
<path d="M4296 11072 l-17 -68 -56 -2 c-53 -2 -55 -1 -50 20 18 71 19 108 4
108 -9 0 -17 -13 -21 -37 -16 -94 -15 -92 -53 -95 -49 -4 -57 -28 -9 -28 l35
0 -15 -51 c-16 -54 -16 -104 1 -104 6 0 11 11 13 25 2 14 10 48 18 77 14 51
14 52 54 51 22 0 47 5 55 12 19 16 19 19 -9 -70 -13 -41 -22 -78 -19 -82 10
-17 29 -6 58 33 17 23 37 45 47 50 14 8 15 4 11 -33 -5 -32 -3 -40 8 -36 26 9
39 102 15 111 -8 3 -31 -5 -50 -18 -20 -14 -36 -23 -36 -22 0 1 14 45 30 97
33 104 36 130 17 130 -8 0 -20 -28 -31 -68z"/>
<path d="M4752 11132 c-6 -4 -12 -28 -14 -52 -3 -39 0 -45 17 -45 17 0 20 7
21 48 2 49 -4 61 -24 49z"/>
<path d="M3240 11064 c-25 -58 -25 -64 2 -64 12 0 19 3 15 6 -3 4 3 24 13 45
24 46 25 59 5 59 -8 0 -23 -21 -35 -46z"/>
<path d="M3325 11073 c-18 -43 -16 -68 5 -68 8 0 14 6 12 14 -1 7 6 28 17 46
11 18 17 36 14 39 -15 15 -34 3 -48 -31z"/>
<path d="M3616 11056 c-9 -68 -21 -82 -74 -93 -53 -10 -55 -29 -2 -26 l39 2
-20 -45 c-10 -25 -19 -56 -19 -69 0 -26 18 -44 24 -23 17 66 42 131 50 133 6
2 33 6 59 10 49 7 57 19 23 39 -14 8 -20 8 -23 -1 -4 -12 -43 -19 -43 -8 0 2
7 30 15 61 15 59 13 74 -9 74 -9 0 -16 -19 -20 -54z"/>
<path d="M5030 11081 c0 -6 5 -13 10 -16 6 -3 10 1 10 9 0 9 -4 16 -10 16 -5
0 -10 -4 -10 -9z"/>
<path d="M1464 11028 c-10 -18 -25 -58 -34 -88 l-16 -55 -24 83 c-18 64 -28
82 -42 82 -20 0 -23 -12 -8 -38 12 -22 40 -109 40 -125 0 -7 7 -23 16 -35 22
-32 37 -16 59 61 9 34 26 78 36 98 17 34 16 49 -2 49 -5 0 -16 -15 -25 -32z"/>
<path d="M2584 11038 c-9 -13 21 -42 35 -34 6 4 11 13 11 20 0 17 -38 28 -46
14z"/>
<path d="M1555 10976 c-31 -41 -43 -99 -25 -121 16 -20 21 -19 63 9 l35 24 6
-24 c4 -13 14 -24 22 -24 13 0 15 7 10 33 -3 17 -1 50 4 72 11 47 -4 65 -56
65 -26 0 -39 -8 -59 -34z m85 -8 c0 -14 -70 -88 -83 -88 -15 0 3 53 25 78 23
24 58 30 58 10z"/>
<path d="M2103 10995 c-33 -23 -63 -79 -63 -117 0 -35 25 -68 64 -82 26 -9 90
10 111 34 25 28 11 38 -24 17 -34 -20 -92 -22 -109 -5 -24 24 -13 47 27 58 50
13 78 52 62 86 -12 27 -37 31 -68 9z m21 -56 c-9 -10 -21 -19 -26 -19 -15 0
-8 20 14 42 27 27 39 6 12 -23z"/>
<path d="M1826 10931 c-27 -97 8 -141 87 -108 46 20 69 56 75 118 4 39 1 49
-10 49 -11 0 -17 -14 -21 -46 -7 -69 -68 -122 -102 -88 -12 12 -12 21 0 62 18
59 19 72 1 72 -8 0 -20 -24 -30 -59z"/>
<path d="M3781 10966 c-7 -8 -21 -12 -31 -9 -15 4 -20 0 -20 -15 0 -11 -9 -41
-20 -67 -18 -42 -18 -46 -3 -52 9 -4 18 -2 20 3 12 31 61 109 75 118 13 8 22
6 37 -8 30 -27 48 -9 20 20 -25 27 -61 31 -78 10z"/>
<path d="M4420 10955 c-10 -12 -9 -16 3 -21 8 -3 22 -25 31 -48 l17 -43 -46
-87 c-46 -89 -57 -136 -30 -136 8 0 15 9 15 20 0 12 10 40 21 63 32 64 131
227 140 233 14 8 11 34 -3 34 -12 0 -42 -38 -66 -84 -9 -18 -10 -18 -16 5 -23
79 -40 95 -66 64z"/>
<path d="M2698 10945 c-46 -25 -46 -54 -2 -92 22 -18 36 -33 32 -33 -3 0 -13
-3 -22 -6 -11 -4 -16 -1 -16 10 0 20 -26 21 -34 1 -15 -40 25 -58 79 -33 37
17 33 52 -11 82 l-35 24 22 16 c13 9 30 16 37 16 18 0 10 24 -9 27 -8 1 -26
-4 -41 -12z"/>
<path d="M3996 10910 c-18 -45 -63 -81 -76 -61 -10 17 -2 47 16 62 20 16 17
29 -7 29 -25 0 -52 -59 -43 -95 8 -33 48 -43 83 -22 25 15 70 88 71 115 0 28
-29 9 -44 -28z"/>
<path d="M2521 10921 c-8 -5 -11 -16 -7 -29 4 -11 1 -31 -5 -46 -9 -20 -9 -29
1 -41 19 -22 35 -13 36 21 1 16 5 46 9 67 8 38 -3 48 -34 28z"/>
<path d="M4600 10816 c0 -8 5 -18 10 -21 13 -8 42 14 34 26 -9 15 -44 10 -44
-5z"/>
</g>
</svg>
