<?xml version="1.0" standalone="no"?>
<!DOCTYPE svg PUBLIC "-//W3C//DTD SVG 20010904//EN"
 "http://www.w3.org/TR/2001/REC-SVG-20010904/DTD/svg10.dtd">
<svg version="1.0" xmlns="http://www.w3.org/2000/svg"
 width="1616.000000pt" height="396.000000pt" viewBox="0 0 1616.000000 396.000000"
 preserveAspectRatio="xMidYMid meet">

<g transform="translate(0.000000,396.000000) scale(0.100000,-0.100000)"
fill="#000000" stroke="none">
<path d="M3552 3538 c-28 -14 -53 -61 -98 -186 -41 -112 -44 -117 -66 -118
-10 0 -36 -1 -58 -2 -30 -2 -40 -6 -40 -18 0 -14 9 -16 53 -12 l54 4 -19 -49
c-11 -28 -26 -63 -34 -78 -18 -36 -18 -39 6 -39 11 0 20 6 20 13 0 6 14 41 30
77 25 57 33 66 60 70 35 6 41 23 10 28 -27 4 -26 11 14 118 57 152 80 183 127
169 17 -6 20 -3 17 12 -4 22 -43 27 -76 11z"/>
<path d="M2700 3447 c-14 -12 -45 -48 -69 -79 -67 -90 -72 -91 -70 -22 3 66
-6 104 -25 104 -7 0 -30 -55 -54 -132 -63 -202 -72 -242 -62 -252 17 -17 28 5
44 79 8 39 26 102 40 140 23 65 25 67 25 33 2 -95 31 -91 116 18 37 47 69 83
72 80 3 -2 -4 -44 -15 -93 -11 -48 -22 -115 -24 -148 -3 -50 0 -60 15 -63 15
-3 17 5 17 55 0 32 7 87 16 123 28 120 33 154 22 167 -14 17 -19 16 -48 -10z"/>
<path d="M4616 3436 c-7 -18 -17 -48 -21 -66 -4 -19 -23 -75 -41 -124 -19 -50
-34 -94 -34 -98 0 -16 29 -7 34 10 7 21 74 92 87 92 16 0 9 -44 -16 -98 -28
-61 -32 -92 -10 -92 8 0 15 6 15 14 0 7 11 39 25 70 46 103 24 163 -45 126
-17 -9 -18 -7 -10 18 5 15 16 49 24 76 9 28 23 60 31 73 20 29 19 33 -5 33
-13 0 -25 -11 -34 -34z"/>
<path d="M11887 3463 c-2 -2 -40 -5 -84 -7 -84 -4 -120 -17 -166 -60 -15 -14
-37 -26 -48 -26 -12 0 -23 -8 -26 -20 -4 -14 -14 -20 -35 -20 -22 0 -29 -4
-25 -14 3 -8 -1 -20 -9 -27 -29 -24 -68 -119 -104 -254 -13 -45 -16 -72 -9
-76 6 -3 9 -28 8 -55 -2 -58 10 -225 17 -236 14 -22 -17 -53 -119 -121 -62
-41 -152 -106 -202 -146 -126 -101 -122 -99 -132 -49 -5 23 -13 43 -20 45 -6
2 -30 -31 -54 -74 -24 -43 -52 -85 -63 -94 -11 -9 -17 -22 -13 -32 5 -14 11
-14 53 -1 26 8 76 14 111 14 35 0 74 5 85 11 19 10 19 12 -16 45 l-35 33 32
23 c18 12 52 40 77 61 25 22 103 78 173 124 71 47 133 93 140 103 10 18 13 17
42 -8 33 -30 145 -68 300 -103 73 -16 127 -22 202 -21 126 2 177 13 243 52 28
17 56 28 61 24 15 -9 76 62 103 119 51 110 59 147 59 261 -1 74 -6 118 -16
140 -8 17 -21 56 -28 86 -10 47 -30 92 -49 110 -20 20 -90 110 -90 117 0 14
-56 52 -76 52 -11 0 -50 5 -89 11 -73 11 -192 19 -198 13z m129 -41 c-3 -5 8
-9 25 -10 45 -1 89 -12 89 -23 0 -5 9 -9 20 -9 30 0 91 -28 118 -53 33 -31 88
-152 101 -222 6 -32 16 -62 22 -66 7 -4 9 -16 6 -28 -3 -11 -1 -38 4 -58 12
-55 -7 -155 -45 -239 -30 -64 -37 -73 -67 -79 -19 -4 -47 -20 -64 -35 -16 -16
-60 -42 -97 -59 -60 -28 -76 -31 -168 -31 -149 0 -427 68 -469 115 -52 58 -87
250 -63 338 8 29 8 44 -1 57 -11 19 -5 39 51 175 23 55 78 114 124 132 21 8
35 19 32 24 -3 5 -2 9 3 8 18 -3 30 2 49 20 12 10 36 22 55 25 25 5 30 4 19
-3 -20 -14 -8 -14 27 0 15 6 73 15 128 19 55 4 101 8 103 9 2 0 1 -3 -2 -7z"/>
<path d="M12144 3212 c-6 -4 -15 -18 -19 -30 l-7 -24 -28 27 c-24 23 -31 25
-51 15 -22 -12 -22 -13 -2 -24 11 -6 18 -16 16 -23 -2 -7 5 -18 15 -24 20 -12
20 -13 -4 -51 -13 -20 -24 -42 -24 -48 0 -21 29 -9 50 21 l22 30 22 -20 c44
-42 60 -20 26 36 l-19 32 25 36 c13 20 24 40 24 45 0 12 -30 13 -46 2z"/>
<path d="M11745 3200 c-12 -19 -57 -32 -69 -20 -13 13 -46 13 -46 0 0 -6 10
-24 22 -40 l22 -30 -33 -46 c-43 -58 -30 -79 23 -39 34 26 38 27 55 11 34 -31
54 -17 26 20 -20 27 -19 42 8 78 13 17 23 40 22 50 0 22 -20 32 -30 16z"/>
<path d="M12250 2997 c0 -7 5 -18 11 -24 9 -9 -2 -26 -43 -70 -58 -62 -122
-142 -124 -155 -1 -4 -2 -12 -3 -17 0 -4 -21 -11 -45 -14 -36 -5 -53 -1 -93
19 -62 34 -116 29 -169 -14 -22 -18 -43 -28 -53 -25 -24 9 -51 34 -51 49 0 7
-17 30 -37 51 -23 24 -39 50 -39 67 -2 35 -10 42 -29 26 -9 -7 -13 -15 -11
-18 3 -2 -8 -15 -25 -29 -20 -17 -29 -34 -29 -54 0 -35 4 -36 42 -4 l31 26 24
-23 c14 -13 34 -40 44 -60 22 -42 70 -72 103 -64 11 3 33 17 48 31 31 29 82
43 100 27 7 -5 24 -13 38 -17 14 -4 32 -13 40 -20 12 -11 25 -11 60 -3 25 6
53 15 63 20 14 7 24 2 47 -22 29 -31 65 -39 99 -20 21 11 51 78 51 113 0 28
-34 67 -59 67 -31 0 -29 9 16 56 24 26 43 51 43 55 0 14 22 10 42 -7 16 -16
18 -15 24 0 4 11 -1 23 -12 32 -42 33 -104 45 -104 21z m-13 -187 c24 0 35
-38 23 -76 -16 -47 -52 -64 -81 -38 -49 44 -48 89 2 52 23 -17 32 -19 41 -10
10 10 6 18 -20 38 -34 27 -34 49 2 40 11 -3 26 -6 33 -6z"/>
<path d="M3116 3444 c-3 -9 -6 -44 -6 -78 0 -100 -53 -243 -95 -260 -27 -10
-8 35 28 66 24 22 28 31 19 40 -18 18 -64 -21 -82 -70 -13 -38 -13 -44 2 -58
57 -57 158 119 158 276 0 51 4 69 15 74 23 9 18 26 -9 26 -13 0 -27 -7 -30
-16z"/>
<path d="M4458 3453 c-22 -5 -24 -33 -3 -33 8 0 13 -6 10 -12 -2 -7 -11 -38
-19 -68 -9 -34 -23 -60 -37 -68 -13 -8 -18 -9 -14 -2 5 8 -3 10 -26 8 -51 -5
-48 -26 4 -30 l45 -3 -24 -75 c-13 -41 -24 -85 -24 -97 0 -24 18 -32 25 -10 2
6 15 52 30 100 15 49 32 87 38 86 30 -4 47 2 47 16 0 9 -9 15 -25 15 -29 0
-29 -2 -11 42 18 41 25 130 11 133 -5 2 -18 1 -27 -2z"/>
<path d="M9727 3418 c-13 -18 -34 -55 -47 -82 -14 -27 -33 -51 -43 -54 -12 -3
-16 -10 -12 -23 3 -10 -3 -36 -15 -58 -22 -45 -26 -91 -8 -109 23 -23 98 -12
98 15 0 11 -8 12 -35 7 -50 -9 -55 14 -19 88 l29 60 53 -7 c43 -5 53 -4 50 7
-3 7 -23 18 -45 23 l-41 10 22 40 c11 22 29 51 39 65 19 27 22 50 8 50 -6 0
-21 -15 -34 -32z"/>
<path d="M12873 3395 c-21 -42 -31 -54 -45 -49 -29 9 -98 -18 -124 -49 -33
-39 -33 -104 0 -140 l23 -25 -38 -69 c-44 -78 -49 -103 -18 -103 12 0 19 5 16
13 -2 6 12 42 32 79 29 56 40 68 61 68 63 1 160 75 160 121 0 30 -28 79 -45
79 -8 0 -15 5 -15 10 0 16 38 88 50 95 6 4 8 11 5 16 -14 22 -37 5 -62 -46z
m-53 -92 c0 -5 -18 -39 -39 -77 l-38 -68 -17 23 c-29 42 -16 102 27 119 27 11
67 12 67 3z m70 -23 c28 -28 25 -48 -14 -85 -30 -28 -84 -51 -94 -40 -6 6 72
145 81 145 4 0 16 -9 27 -20z"/>
<path d="M15188 3418 c-41 -24 -58 -54 -48 -83 5 -14 -1 -30 -20 -55 -55 -71
-60 -143 -12 -181 48 -37 128 2 183 89 36 56 36 72 3 111 -24 29 -24 32 -10
53 22 31 20 65 -3 78 -29 15 -52 12 -93 -12z m57 -28 c4 -6 11 -7 17 -4 6 4 5
-3 -2 -15 -12 -23 -16 -25 -62 -35 -23 -5 -28 -3 -28 13 0 33 60 65 75 41z
m21 -107 c21 -28 16 -56 -16 -100 -32 -44 -88 -77 -114 -67 -41 16 -31 110 15
148 34 29 45 32 53 14 4 -10 9 -8 18 5 7 9 17 17 22 17 5 0 15 -8 22 -17z"/>
<path d="M8027 3423 c-4 -3 -7 -19 -7 -35 0 -23 -30 -99 -46 -117 -2 -2 -20
-7 -40 -10 -40 -7 -48 -24 -13 -29 15 -3 19 0 13 10 -6 11 -5 11 8 0 13 -10
14 -20 7 -45 -15 -54 -11 -76 16 -89 31 -14 105 5 105 27 0 18 -7 18 -49 4
-47 -16 -57 -2 -41 55 11 42 16 46 44 47 45 1 79 13 84 28 4 11 -6 13 -47 7
l-52 -7 20 40 c28 54 38 121 19 121 -8 0 -18 -3 -21 -7z"/>
<path d="M8273 3380 c-29 -17 -53 -37 -53 -45 0 -21 17 -19 53 9 18 13 44 26
59 30 24 5 27 4 20 -13 -12 -33 -101 -130 -158 -172 -50 -37 -65 -61 -46 -73
4 -2 28 11 52 30 47 37 57 35 62 -10 5 -46 29 -54 83 -28 25 12 45 29 45 37 0
19 -18 19 -39 1 -9 -7 -26 -17 -38 -20 -21 -7 -23 -4 -23 26 0 19 -5 39 -11
45 -9 9 2 27 44 73 53 59 76 107 62 130 -12 19 -60 10 -112 -20z"/>
<path d="M13165 3391 c-11 -5 -41 -11 -67 -15 -49 -7 -67 -21 -51 -37 6 -6 22
-5 41 2 46 16 61 6 24 -16 -40 -24 -42 -52 -4 -60 41 -9 57 -20 60 -43 4 -26
-49 -62 -89 -62 -24 0 -57 25 -51 39 1 3 -6 6 -15 6 -28 0 -28 -40 -1 -59 44
-31 150 -9 180 38 23 35 -4 102 -45 108 -20 4 -20 5 11 24 55 31 82 55 82 70
0 15 -41 18 -75 5z"/>
<path d="M13699 3366 c-20 -30 -26 -33 -60 -29 -34 5 -42 1 -74 -33 -48 -51
-59 -79 -45 -118 6 -16 17 -37 25 -45 12 -14 10 -23 -21 -71 -18 -30 -33 -64
-31 -74 3 -24 27 -34 27 -11 0 9 14 40 31 69 l32 53 48 -5 c46 -4 51 -2 89 36
54 53 53 98 -2 158 -19 22 -19 22 16 57 19 19 32 38 29 41 -15 15 -42 3 -64
-28z m-49 -75 c0 -5 -18 -40 -39 -77 -36 -61 -40 -65 -50 -46 -19 35 -13 74
16 104 25 26 73 39 73 19z m67 -47 c16 -32 16 -38 2 -62 -18 -32 -60 -55 -94
-50 l-24 3 42 73 c22 39 45 72 49 72 5 0 16 -16 25 -36z"/>
<path d="M13951 3377 c-9 -24 -137 -147 -152 -147 -5 0 -9 -7 -9 -16 0 -14 7
-16 43 -10 23 3 52 9 65 12 20 6 22 3 22 -39 0 -55 8 -77 27 -77 11 0 13 9 8
44 -10 62 0 84 37 88 46 4 49 28 3 28 -30 0 -35 3 -32 18 3 9 8 31 12 47 3 17
8 37 11 46 8 27 -25 32 -35 6z m-20 -99 c-4 -12 -21 -25 -36 -30 l-28 -7 34
29 c41 35 40 35 30 8z"/>
<path d="M15000 3368 c0 -18 -15 -84 -34 -146 -20 -66 -29 -115 -24 -118 17
-11 26 9 63 139 37 129 39 157 10 157 -10 0 -15 -10 -15 -32z"/>
<path d="M14814 3355 c-19 -25 -30 -33 -38 -25 -18 18 -41 11 -73 -22 -55 -57
-69 -125 -33 -163 l20 -22 -20 -44 c-24 -53 -26 -99 -5 -99 9 0 15 9 15 23 0
12 9 40 19 63 17 38 22 42 77 52 75 15 94 33 94 88 0 31 -7 51 -26 73 l-25 31
25 33 c30 39 32 47 12 47 -8 0 -27 -16 -42 -35z m-51 -62 c2 -5 -10 -38 -28
-75 -27 -57 -35 -65 -45 -53 -18 21 -4 82 25 111 25 24 40 30 48 17z m77 -88
c0 -24 -6 -34 -25 -43 -26 -12 -75 -16 -75 -7 0 3 14 33 31 67 l31 62 19 -23
c11 -13 19 -38 19 -56z"/>
<path d="M8717 3361 c-6 -24 0 -31 25 -31 21 0 24 20 6 38 -17 17 -25 15 -31
-7z"/>
<path d="M14462 3345 c-30 -13 -51 -39 -40 -50 2 -3 22 4 43 15 47 24 75 26
75 4 0 -36 -38 -78 -112 -122 -54 -32 -78 -52 -78 -65 0 -16 5 -18 28 -13 15
4 39 16 54 26 35 25 36 25 30 -5 -9 -50 49 -81 99 -55 33 18 23 33 -17 25 -24
-4 -39 -2 -44 5 -12 19 8 89 36 125 32 43 47 94 33 112 -15 17 -65 16 -107 -2z"/>
<path d="M3235 3320 c-7 -12 2 -30 16 -30 5 0 9 9 9 20 0 21 -15 27 -25 10z"/>
<path d="M7077 3289 c-15 -11 -32 -38 -38 -59 -10 -33 -9 -43 5 -65 30 -46
116 -62 136 -26 15 28 13 31 -17 30 -25 0 -26 -1 -8 -10 15 -7 8 -8 -25 -5
-40 4 -70 24 -70 47 0 4 16 9 37 11 25 2 42 11 56 29 42 57 -17 95 -76 48z
m48 -29 c-10 -11 -25 -20 -34 -20 -12 1 -10 5 8 20 30 26 49 26 26 0z"/>
<path d="M6565 3269 c-40 -35 -65 -77 -65 -108 0 -44 91 -81 119 -48 15 19 4
27 -28 21 -15 -3 -34 1 -46 10 l-20 15 20 38 c11 21 37 49 57 62 36 23 42 41
13 41 -8 0 -30 -14 -50 -31z"/>
<path d="M7373 3285 c-32 -14 -33 -16 -33 -72 0 -74 -12 -95 -33 -62 -9 13
-19 43 -23 67 -4 28 -12 42 -22 42 -12 0 -13 -9 -8 -47 8 -63 35 -107 68 -111
30 -4 46 26 52 103 3 49 4 50 42 58 66 14 71 17 54 27 -21 14 -60 12 -97 -5z"/>
<path d="M8895 3277 c-35 -29 -28 -57 21 -83 43 -23 44 -57 2 -62 -16 -2 -28
1 -28 7 0 6 -7 11 -15 11 -20 0 -19 -36 1 -44 74 -29 144 37 92 86 -14 13 -33
28 -44 35 -19 12 -19 12 1 28 12 10 29 14 43 10 19 -5 23 -2 20 12 -5 29 -60
29 -93 0z"/>
<path d="M6036 3271 c-14 -16 -15 -24 -5 -63 7 -25 9 -52 6 -61 -9 -23 -38
-21 -44 3 -7 25 -29 26 -38 3 -8 -22 27 -53 60 -53 30 0 59 34 57 68 -1 15 -3
41 -5 57 -2 26 2 30 26 33 15 2 27 9 27 18 0 21 -63 18 -84 -5z"/>
<path d="M4792 3254 c-66 -53 -82 -127 -35 -164 23 -18 36 -21 68 -15 47 7 85
30 85 50 0 17 -16 20 -25 5 -11 -18 -83 -32 -105 -20 -29 16 -26 50 4 50 37 0
88 53 84 87 -4 38 -34 40 -76 7z m25 -41 c-14 -15 -29 -24 -33 -21 -3 4 6 18
21 33 37 33 47 22 12 -12z"/>
<path d="M6390 3263 c-17 -12 -25 -13 -28 -5 -7 22 -23 12 -39 -25 -8 -21 -24
-50 -34 -65 -47 -65 -6 -65 47 1 39 49 72 76 80 68 3 -3 -5 -25 -17 -50 -23
-47 -21 -77 6 -77 9 0 14 9 14 23 -1 12 9 46 22 75 20 46 21 54 9 62 -21 14
-32 12 -60 -7z"/>
<path d="M7533 3263 c-42 -20 -70 -74 -57 -110 11 -34 75 -60 118 -49 40 10
27 28 -21 30 -43 2 -73 19 -73 41 0 8 8 11 20 8 29 -8 92 35 88 60 -4 29 -39
38 -75 20z m37 -28 c0 -2 -15 -12 -32 -21 l-33 -17 19 22 c17 19 46 29 46 16z"/>
<path d="M7767 3260 c-22 -18 -27 -19 -27 -6 0 9 -6 16 -14 16 -12 0 -27 -33
-53 -112 -10 -33 16 -18 72 39 30 31 57 55 59 52 2 -2 0 -27 -6 -56 -11 -55
-6 -87 14 -81 11 4 17 42 21 128 2 28 -2 36 -19 38 -11 2 -32 -7 -47 -18z"/>
<path d="M5811 3254 c-60 -25 -86 -81 -56 -114 20 -22 60 -27 71 -9 4 8 12 2
21 -15 14 -27 41 -31 34 -5 -2 8 -6 21 -8 30 -3 9 9 32 26 52 36 40 40 62 11
54 -10 -3 -24 1 -31 9 -14 17 -25 17 -68 -2z m47 -39 c0 -16 -10 -33 -28 -45
-32 -23 -47 -25 -53 -7 -9 26 26 60 79 77 1 0 2 -11 2 -25z"/>
<path d="M9867 3263 c-10 -3 -16 -10 -14 -16 2 -7 -7 -29 -20 -50 -29 -47 -27
-81 6 -85 37 -6 67 6 100 39 33 33 42 84 19 107 -12 12 -56 14 -91 5z m71 -49
c4 -25 -49 -74 -79 -74 -30 0 -23 16 36 87 15 19 40 11 43 -13z"/>
<path d="M6214 3200 c-15 -33 -29 -58 -32 -55 -3 3 -8 24 -11 47 -3 23 -12 43
-20 46 -11 4 -13 -7 -9 -53 3 -31 10 -60 17 -64 8 -5 -1 -31 -34 -88 -47 -85
-55 -113 -30 -113 8 0 15 5 15 10 0 6 34 72 75 148 69 128 89 182 66 182 -6 0
-22 -27 -37 -60z"/>
<path d="M8726 3223 c5 -33 -34 -235 -49 -249 -15 -15 -49 23 -52 58 -1 15
-17 21 -25 9 -20 -34 30 -101 76 -101 27 0 38 24 65 156 23 112 21 164 -6 164
-12 0 -14 -8 -9 -37z"/>
<path d="M2826 3212 c-44 -64 -32 -122 25 -122 61 0 96 110 47 144 -33 23 -42
20 -72 -22z m53 -21 c17 -11 7 -59 -15 -68 -27 -10 -38 12 -24 46 13 33 17 35
39 22z"/>
<path d="M3704 3194 c3 -8 2 -13 -3 -10 -5 3 -22 -22 -39 -57 -29 -60 -30 -61
-40 -37 -6 14 -13 37 -16 53 -4 15 -13 27 -22 27 -18 0 -31 -29 -17 -39 5 -3
13 -18 16 -33 4 -15 13 -33 20 -40 12 -11 5 -31 -40 -122 -29 -60 -53 -112
-53 -117 0 -5 9 -9 19 -9 12 0 21 10 26 27 6 25 22 58 129 268 51 101 52 105
30 105 -10 0 -14 -5 -10 -16z"/>
<path d="M3145 3129 c-9 -42 10 -62 25 -25 14 38 13 56 -4 56 -8 0 -17 -14
-21 -31z"/>
<path d="M14130 3135 c-10 -12 -9 -16 3 -21 20 -7 37 3 37 22 0 18 -24 18 -40
-1z"/>
<path d="M6855 3135 c-5 -2 -31 -5 -58 -7 -51 -3 -65 -21 -20 -26 50 -6 154 9
150 21 -3 12 -52 20 -72 12z"/>
<path d="M8479 3111 c-22 -18 -22 -20 -6 -26 19 -8 47 10 47 31 0 19 -14 17
-41 -5z"/>
<path d="M13275 3120 c-3 -5 -4 -14 0 -20 8 -13 35 -1 35 16 0 16 -26 19 -35
4z"/>
<path d="M5393 2992 c-39 -6 -26 -29 17 -30 53 -2 125 -19 161 -37 75 -39 64
-122 -28 -199 -69 -58 -165 -74 -202 -35 -12 13 -26 19 -36 15 -44 -16 33 -66
103 -66 111 0 242 111 242 206 0 75 -63 124 -177 140 -26 3 -50 7 -53 8 -3 1
-15 0 -27 -2z"/>
<path d="M6800 2947 c0 -18 -66 -153 -102 -210 -40 -62 -29 -77 37 -48 59 26
69 26 55 1 -11 -21 -6 -40 11 -40 14 0 42 69 35 86 -7 19 -40 18 -78 -2 -16
-9 -28 -12 -26 -7 2 4 25 50 51 102 49 99 57 131 32 131 -8 0 -15 -6 -15 -13z"/>
<path d="M7857 2916 c-10 -24 -40 -82 -68 -130 -42 -73 -48 -90 -38 -108 9
-17 18 -20 60 -16 58 6 79 21 79 58 0 34 -22 54 -53 48 -21 -4 -19 2 25 86 25
50 44 94 42 98 -12 19 -30 5 -47 -36z m1 -193 c-3 -19 -53 -41 -64 -30 -11 11
27 47 48 47 13 0 18 -6 16 -17z"/>
<path d="M4418 2873 l-33 -68 -55 -5 c-66 -6 -73 -24 -11 -28 39 -3 42 -5 37
-25 -26 -89 -14 -140 39 -157 22 -7 40 -7 59 0 37 14 24 30 -24 30 -48 0 -65
24 -55 80 10 60 21 68 115 80 89 12 128 26 113 41 -4 4 -45 2 -92 -6 -46 -9
-86 -13 -88 -11 -2 2 9 28 26 58 34 61 38 78 17 78 -8 0 -30 -30 -48 -67z"/>
<path d="M6606 2886 c-52 -76 -67 -86 -130 -93 -38 -4 -56 -10 -56 -19 0 -10
14 -14 45 -14 l46 0 -16 -30 c-41 -78 14 -133 100 -100 27 10 30 38 4 32 -60
-15 -77 -14 -84 7 -7 25 31 101 52 101 7 0 13 7 13 15 0 16 61 102 87 122 16
13 10 33 -11 33 -7 0 -29 -24 -50 -54z"/>
<path d="M9387 2923 c-4 -3 -7 -16 -7 -28 0 -33 -67 -161 -97 -185 -14 -11
-34 -20 -45 -20 -19 0 -18 1 3 31 12 18 31 34 41 37 24 6 23 32 -1 32 -27 0
-93 -76 -89 -103 2 -17 11 -23 40 -25 28 -2 43 3 70 27 68 59 142 241 99 241
-4 0 -11 -3 -14 -7z"/>
<path d="M9176 2870 c-10 -65 -26 -90 -56 -90 -20 0 -38 -12 -64 -40 -39 -44
-46 -74 -18 -88 36 -19 90 26 134 112 24 47 49 132 40 140 -15 16 -30 2 -36
-34z m-56 -127 c0 -17 -47 -66 -59 -62 -9 3 -5 14 14 37 25 30 45 41 45 25z"/>
<path d="M9557 2893 c-8 -7 11 -33 24 -33 5 0 9 9 9 20 0 19 -20 27 -33 13z"/>
<path d="M5445 2860 c-3 -5 -4 -14 -1 -19 3 -5 -5 -41 -18 -80 -15 -44 -20
-73 -14 -77 5 -4 13 -2 18 2 13 15 60 166 54 175 -7 12 -31 11 -39 -1z"/>
<path d="M7037 2843 c-12 -11 -8 -23 8 -23 8 0 15 7 15 15 0 16 -12 20 -23 8z"/>
<path d="M10480 2818 c-50 -34 -77 -75 -64 -96 16 -24 50 -26 87 -5 31 18 33
18 50 1 18 -19 57 -25 57 -9 0 5 -10 15 -21 23 -19 12 -20 17 -10 37 13 24 8
56 -8 47 -5 -3 -14 1 -21 9 -17 20 -31 19 -70 -7z m63 -34 c-5 -15 -81 -56
-94 -52 -19 6 50 66 75 64 13 0 22 -6 19 -12z"/>
<path d="M10765 2801 c-31 -16 -52 -24 -46 -18 16 16 14 37 -3 37 -14 0 -76
-97 -76 -119 0 -20 22 -12 64 23 23 18 56 41 74 50 l33 17 -16 -31 c-23 -45 1
-80 56 -80 10 0 19 7 19 15 0 8 -9 15 -20 15 -31 0 -35 25 -10 65 38 61 13 70
-75 26z"/>
<path d="M2476 2796 c-67 -40 -84 -99 -41 -141 19 -20 34 -25 73 -25 54 0 67
7 51 26 -7 8 -21 11 -35 8 -32 -8 -70 2 -78 21 -4 13 -2 14 14 5 39 -21 110
29 110 78 0 55 -33 65 -94 28z m64 -23 c0 -27 -31 -53 -62 -53 -37 0 -33 17
12 48 39 26 50 28 50 5z"/>
<path d="M3165 2788 c-36 -42 -68 -115 -61 -135 9 -22 29 -3 45 44 18 50 39
73 68 73 20 0 24 4 21 23 -5 36 -41 33 -73 -5z"/>
<path d="M2710 2796 c0 -8 -9 -17 -19 -21 -14 -4 -22 -19 -26 -48 -12 -81 -11
-112 5 -112 10 0 17 15 21 45 10 63 26 100 44 100 18 0 20 21 3 38 -16 16 -28
15 -28 -2z"/>
<path d="M2853 2790 c-42 -25 -60 -55 -68 -111 -7 -46 5 -73 22 -47 8 14 9 19
11 61 2 34 46 77 78 77 27 0 33 25 8 34 -20 8 -14 9 -51 -14z"/>
<path d="M4023 2725 c-40 -47 -73 -90 -73 -95 0 -20 20 -9 55 28 19 20 33 30
30 21 -3 -9 1 -21 9 -28 12 -10 21 -9 48 5 18 9 42 24 52 33 11 9 16 10 12 3
-13 -22 2 -62 23 -62 23 0 45 25 36 40 -5 8 -11 7 -22 -2 -14 -11 -15 -10 -8
12 4 14 16 40 26 58 38 66 12 72 -46 11 -37 -38 -95 -77 -95 -64 0 3 11 28 25
55 51 101 21 95 -72 -15z"/>
<path d="M3842 2780 c-18 -11 -40 -37 -48 -56 -13 -32 -13 -38 1 -60 37 -57
154 4 155 82 0 56 -47 71 -108 34z m78 -39 c0 -24 -51 -71 -78 -71 -48 0 -11
81 43 92 26 6 35 1 35 -21z"/>
<path d="M6590 2786 c0 -11 10 -16 31 -16 38 0 35 24 -4 28 -19 2 -27 -1 -27
-12z"/>
<path d="M2985 2779 c-11 -5 -30 -25 -43 -43 -58 -85 10 -147 77 -70 26 29 31
42 29 77 -3 45 -22 56 -63 36z m27 -60 c-5 -45 -62 -82 -62 -40 0 24 39 73 54
68 6 -2 10 -15 8 -28z"/>
<path d="M8890 2779 c-35 -14 -80 -59 -80 -81 0 -28 24 -32 74 -10 l45 20 3
-26 c2 -15 10 -28 19 -30 12 -2 15 8 16 48 0 27 -3 50 -7 50 -4 0 -10 9 -13
20 -6 22 -19 24 -57 9z m30 -34 c0 -6 -56 -35 -67 -35 -14 1 39 40 53 40 8 0
14 -2 14 -5z"/>
<path d="M9450 2728 c-27 -43 -36 -65 -28 -70 17 -10 26 -2 53 52 14 27 29 51
35 55 12 7 4 25 -11 25 -5 0 -27 -28 -49 -62z"/>
<path d="M9792 2752 c-62 -57 -51 -113 15 -83 14 6 28 10 30 7 2 -2 -1 -22 -7
-45 -10 -38 -13 -41 -46 -41 -42 0 -79 -35 -94 -89 -22 -80 -5 -120 43 -102
31 12 43 29 29 43 -8 8 -16 7 -27 -2 -22 -18 -27 -8 -20 34 10 48 40 86 71 86
l24 0 -25 -50 c-14 -28 -23 -55 -19 -61 9 -16 28 5 54 60 21 47 26 50 63 53
55 4 62 28 9 28 l-39 0 12 53 c7 29 17 63 24 75 18 33 13 59 -11 66 -38 10
-43 8 -86 -32z m71 -2 c-5 -20 -33 -41 -68 -53 -12 -5 -4 8 22 33 48 45 53 48
46 20z"/>
<path d="M7140 2767 c-36 -18 -36 -42 0 -57 16 -7 30 -16 30 -21 0 -12 -71
-23 -79 -12 -7 10 -26 11 -37 1 -14 -15 19 -38 55 -38 74 0 117 50 72 82 -25
18 -17 28 21 28 18 0 28 5 28 15 0 19 -54 20 -90 2z"/>
<path d="M9613 2773 c-7 -2 -29 -27 -49 -54 -27 -37 -34 -53 -26 -61 7 -7 13
-10 15 -7 49 71 114 130 87 80 -13 -25 -13 -61 0 -61 12 0 40 65 40 91 0 14
-7 19 -27 18 -16 0 -33 -3 -40 -6z"/>
<path d="M5728 2756 c-36 -16 -57 -44 -58 -77 -1 -68 100 -67 135 2 17 32 7
72 -20 83 -21 8 -24 7 -57 -8z m52 -43 c0 -25 -30 -53 -57 -53 -35 0 -30 36 9
60 34 20 48 18 48 -7z"/>
<path d="M8072 2715 c-24 -30 -48 -53 -53 -50 -5 4 -9 24 -9 46 0 33 -3 40
-17 37 -15 -3 -17 -12 -15 -48 2 -25 10 -50 17 -55 14 -12 -5 -41 -97 -147
-48 -56 -60 -88 -33 -88 8 0 15 6 15 14 0 7 7 19 16 27 25 21 244 298 244 309
0 25 -29 6 -68 -45z"/>
<path d="M6948 2743 c-29 -33 -41 -64 -29 -76 6 -6 12 -9 13 -6 2 2 13 18 26
36 34 49 26 87 -10 46z"/>
<path d="M4846 2651 c-3 -5 1 -12 10 -15 25 -10 34 -7 34 9 0 16 -35 21 -44 6z"/>
<path d="M6229 2460 l-54 -110 -43 6 c-39 5 -43 3 -40 -13 2 -13 14 -19 39
-21 35 -3 36 -4 36 -47 0 -54 25 -87 62 -83 13 2 27 9 29 17 3 8 1 11 -4 9 -5
-3 -19 -2 -31 3 -20 7 -23 16 -23 58 l0 50 58 6 c74 8 82 11 82 29 0 12 -8 14
-30 11 -16 -3 -43 -7 -60 -10 -18 -3 -30 0 -30 7 0 6 20 48 45 94 48 87 53
104 32 104 -7 0 -38 -50 -68 -110z"/>
<path d="M3293 2513 c-1 -10 -16 -62 -32 -117 -33 -104 -42 -211 -18 -204 7 3
15 32 19 69 3 35 20 107 37 159 17 52 31 98 31 103 0 16 -36 6 -37 -10z"/>
<path d="M3620 2500 c0 -11 5 -20 11 -20 28 0 -21 -159 -75 -243 -38 -60 -58
-70 -76 -36 -16 28 11 68 51 76 36 7 43 17 25 32 -9 8 -22 8 -38 2 -28 -11
-78 -66 -78 -86 0 -26 22 -63 46 -76 22 -11 27 -10 54 16 61 59 130 226 130
317 0 34 -3 38 -25 38 -18 0 -25 -5 -25 -20z"/>
<path d="M4964 2493 c-3 -10 -17 -44 -32 -75 l-26 -58 -58 0 c-45 0 -58 -3
-58 -15 0 -16 12 -18 67 -15 l33 1 -15 -35 c-30 -71 -9 -134 39 -120 37 11 69
35 59 45 -11 11 -45 1 -38 -11 10 -16 -15 -21 -30 -6 -19 19 -19 36 1 86 14
34 22 41 53 46 42 7 76 28 67 42 -4 7 -17 6 -36 -1 -16 -6 -32 -9 -35 -6 -3 4
6 30 20 60 14 30 25 60 25 67 0 19 -30 14 -36 -5z"/>
<path d="M4475 2488 c-43 -136 -52 -147 -112 -148 -14 0 -23 -6 -23 -15 0 -11
11 -15 36 -15 34 0 36 -1 30 -27 -29 -133 -17 -156 69 -129 30 9 57 21 61 27
12 21 -8 23 -55 6 -27 -9 -51 -17 -55 -17 -11 0 -7 45 9 96 12 42 19 51 47 59
44 14 52 40 10 32 l-31 -6 14 38 c7 21 20 52 29 69 8 16 12 32 9 36 -11 10
-33 7 -38 -6z"/>
<path d="M2465 2472 c-3 -3 -5 -14 -5 -24 0 -27 34 -19 38 8 3 19 -19 29 -33
16z"/>
<path d="M3415 2421 c-8 -15 3 -31 21 -31 9 0 14 7 12 17 -4 20 -24 28 -33 14z"/>
<path d="M4253 2385 c-46 -20 -52 -55 -20 -104 19 -29 23 -41 14 -50 -14 -14
-57 -14 -57 0 0 8 -5 8 -15 -1 -39 -33 48 -56 93 -24 29 20 28 40 -5 86 -24
36 -25 40 -11 55 9 8 28 16 43 16 18 0 25 4 23 16 -4 21 -26 23 -65 6z"/>
<path d="M5134 2381 c-46 -28 -84 -82 -84 -120 0 -46 46 -91 94 -91 23 0 35 4
34 12 -2 7 2 12 9 13 20 0 26 14 9 21 -10 4 -22 2 -29 -5 -17 -17 -45 -13 -67
9 -27 27 -25 36 8 43 61 12 111 87 81 123 -15 18 -18 18 -55 -5z m25 -45 c-10
-22 -56 -52 -66 -43 -5 6 56 67 68 67 5 0 4 -11 -2 -24z"/>
<path d="M2861 2333 c-11 -21 -30 -53 -44 -70 l-24 -33 -11 26 c-7 14 -12 31
-12 38 0 20 -26 50 -38 42 -8 -5 -7 -17 3 -41 8 -19 22 -51 30 -70 8 -19 21
-35 28 -35 16 0 107 132 107 154 0 31 -20 25 -39 -11z"/>
<path d="M5347 2363 c-4 -3 -7 -14 -7 -24 0 -9 -14 -43 -30 -75 -22 -42 -28
-60 -20 -68 8 -8 15 -7 23 5 27 35 54 65 74 83 l22 18 -6 -36 c-7 -46 8 -47
63 -7 l39 30 10 -36 c18 -65 35 -52 35 26 0 44 -4 71 -11 71 -6 0 -30 -16 -53
-35 l-42 -34 4 34 c5 42 -11 46 -52 14 l-26 -20 0 30 c0 30 -9 39 -23 24z"/>
<path d="M2995 2341 c-31 -13 -47 -37 -48 -73 -2 -33 -2 -33 46 -32 38 0 47
-3 47 -17 0 -14 29 -49 31 -38 6 34 5 121 -3 125 -5 3 -22 -6 -37 -20 -15 -14
-35 -26 -44 -26 -14 0 -15 4 -5 24 7 16 23 28 47 33 20 5 35 13 34 18 -3 13
-43 16 -68 6z"/>
<path d="M5689 2335 c-47 -26 -77 -123 -47 -153 19 -19 56 -14 94 12 40 27 32
43 -10 20 -16 -7 -37 -14 -47 -14 -27 0 -24 27 4 35 12 4 37 18 55 32 64 48
22 107 -49 68z m28 -40 c-15 -14 -33 -25 -40 -25 -7 0 1 12 16 25 15 14 33 25
40 25 7 0 -1 -12 -16 -25z"/>
<path d="M2574 2310 c-42 -34 -69 -81 -60 -105 9 -25 23 -17 49 28 29 48 54
73 64 63 4 -3 6 -27 4 -51 -1 -35 2 -45 14 -45 8 0 15 8 15 19 0 10 3 32 6 49
5 22 1 35 -15 51 -27 27 -31 27 -77 -9z"/>
<path d="M4615 2299 c-14 -18 -25 -41 -23 -53 3 -18 9 -21 51 -19 40 1 47 -2
47 -18 0 -10 10 -23 21 -30 20 -10 21 -9 15 14 -3 14 -1 38 5 54 8 21 7 30 -4
38 -7 5 -16 18 -20 28 -11 29 -61 22 -92 -14z m60 -13 c12 -12 10 -16 -16 -26
-37 -16 -43 -10 -23 18 18 26 21 26 39 8z"/>
<path d="M5927 2314 c-16 -9 -27 -10 -27 -4 0 24 -27 6 -44 -30 -10 -22 -27
-47 -38 -56 -10 -10 -18 -21 -18 -26 0 -21 35 -4 80 38 l49 46 3 -38 c2 -21
10 -41 20 -48 19 -12 23 -10 32 22 6 17 3 22 -10 22 -14 0 -16 7 -10 39 7 47
0 54 -37 35z"/>
<path d="M2448 2298 c0 -13 -1 -29 -1 -35 1 -7 -3 -10 -8 -7 -5 3 -9 -9 -9
-25 0 -21 5 -31 15 -31 8 0 15 8 15 19 0 10 7 35 15 54 19 46 19 47 -5 47 -14
0 -21 -7 -22 -22z"/>
<path d="M3333 2266 c-19 -22 -21 -71 -3 -71 8 0 17 11 18 25 2 14 8 30 13 36
5 6 6 14 2 17 -9 10 -16 8 -30 -7z"/>
<path d="M1658 2188 c3 -56 -2 -77 -47 -195 -83 -217 -77 -227 132 -216 102 4
137 9 137 19 0 22 -11 23 -130 13 -132 -11 -160 -7 -160 22 0 11 22 79 50 150
46 120 78 257 51 219 -8 -12 -10 -9 -8 15 1 20 -3 30 -13 32 -13 3 -15 -6 -12
-59z"/>
<path d="M11596 2038 c-43 -84 -89 -169 -102 -188 -24 -35 -32 -70 -15 -70 11
0 73 106 165 283 55 105 63 127 48 127 -13 0 -39 -40 -96 -152z"/>
<path d="M7229 2141 c-159 -106 -199 -314 -81 -425 21 -19 36 -26 49 -22 15 6
13 10 -15 32 -74 59 -94 167 -46 261 31 64 98 132 136 140 19 4 28 11 26 21
-5 26 -22 24 -69 -7z"/>
<path d="M11762 2138 c-78 -130 -194 -368 -188 -384 9 -25 24 -15 36 24 7 20
54 113 104 207 109 202 101 185 83 185 -9 0 -24 -15 -35 -32z"/>
<path d="M7518 2124 c-15 -8 -31 -26 -34 -40 -6 -25 0 -87 12 -118 5 -13 -1
-16 -34 -16 -25 0 -42 -5 -45 -14 -3 -7 0 -13 6 -13 7 0 27 -1 44 -1 31 -2 32
-3 22 -29 -16 -42 -40 -64 -61 -57 -13 4 -18 0 -18 -14 0 -51 68 -22 99 41 12
24 21 49 21 55 0 11 13 16 33 13 16 -2 6 18 -13 24 -19 6 -40 58 -40 102 0 30
40 56 74 47 19 -4 26 -2 26 9 0 29 -49 35 -92 11z"/>
<path d="M12432 2118 c-7 -13 -22 -54 -35 -93 -21 -64 -25 -70 -52 -73 -38 -5
-60 -21 -46 -35 7 -7 15 -6 25 2 24 20 27 -4 6 -54 -22 -52 -25 -75 -10 -75 6
0 24 29 39 64 31 67 42 76 97 76 24 0 34 4 34 16 0 12 -8 15 -34 13 -19 -2
-37 -1 -40 2 -7 6 32 129 45 144 13 14 11 35 -4 35 -8 0 -19 -10 -25 -22z"/>
<path d="M14487 2093 c-9 -21 -29 -72 -45 -113 -27 -73 -29 -75 -63 -76 -54
-1 -61 -3 -57 -16 3 -7 20 -14 38 -15 18 -2 35 -5 38 -7 2 -3 -3 -26 -12 -52
-10 -29 -13 -51 -7 -57 16 -16 27 0 41 58 14 57 30 75 70 75 22 0 22 0 -5 -46
-29 -50 -28 -82 3 -65 10 5 42 31 70 56 55 50 61 49 37 -9 -9 -20 -13 -41 -10
-46 10 -17 35 -11 35 8 0 9 7 35 14 57 15 43 7 75 -19 75 -8 0 -30 -14 -50
-31 l-35 -31 41 88 c22 49 47 102 55 118 9 19 11 33 5 39 -16 16 -28 0 -55
-71 -43 -108 -49 -117 -90 -117 -28 0 -35 3 -30 15 3 8 17 47 31 85 14 39 30
74 35 80 13 14 10 35 -5 35 -8 0 -21 -17 -30 -37z"/>
<path d="M4375 2109 c-202 -21 -205 -22 -205 -37 0 -11 12 -14 64 -10 93 6 95
-3 40 -140 -47 -118 -53 -152 -29 -152 8 0 15 7 15 17 0 9 21 68 46 130 25 63
47 125 48 139 1 24 3 24 89 24 67 0 87 3 87 14 0 12 -47 28 -74 24 -6 -1 -42
-5 -81 -9z"/>
<path d="M10405 2086 c-9 -19 -23 -40 -31 -47 -18 -15 -18 -39 0 -39 15 0 63
66 68 94 6 34 -20 28 -37 -8z"/>
<path d="M10129 2103 c-1 -5 -1 -11 0 -15 0 -4 -6 -26 -15 -49 -12 -29 -14
-43 -6 -51 9 -9 18 4 37 46 14 32 23 62 20 67 -7 11 -34 12 -36 2z"/>
<path d="M6624 2089 c-5 -8 -7 -22 -6 -31 2 -9 -2 -35 -8 -57 -10 -39 -12 -41
-61 -47 -58 -8 -62 -29 -6 -29 21 0 37 -1 37 -3 0 -1 -7 -29 -16 -61 -16 -58
-14 -91 5 -91 5 0 13 21 17 48 3 26 12 61 19 79 12 28 19 32 56 35 57 4 65 28
9 28 -38 0 -41 2 -34 23 19 58 21 87 9 103 -10 14 -13 15 -21 3z"/>
<path d="M10616 2087 c-20 -15 -14 -39 8 -31 14 5 36 -74 36 -132 0 -66 -57
-136 -128 -157 -47 -14 -50 -32 -6 -31 45 2 98 37 134 92 30 44 31 51 27 117
-5 74 -25 146 -42 152 -6 2 -19 -3 -29 -10z"/>
<path d="M13376 2088 c-2 -7 -16 -52 -30 -100 l-26 -86 -60 5 c-53 5 -60 4
-60 -12 0 -13 6 -16 21 -12 11 3 34 1 51 -5 24 -9 28 -14 23 -32 -4 -11 -9
-36 -12 -53 -9 -55 20 -40 37 20 8 28 21 53 28 53 6 1 17 2 22 3 15 2 12 31
-4 31 -11 0 -7 21 15 92 16 51 29 96 29 100 0 13 -30 9 -34 -4z"/>
<path d="M13924 2083 c-4 -10 -19 -46 -35 -80 l-28 -63 -51 0 c-61 0 -66 -23
-7 -28 20 -2 37 -5 37 -6 0 -2 -7 -20 -16 -41 -8 -20 -14 -51 -12 -69 3 -27 7
-31 37 -34 46 -5 81 5 81 23 0 8 -5 15 -11 15 -5 0 -8 -3 -5 -8 2 -4 -13 -6
-35 -4 -45 5 -48 16 -20 78 17 37 24 43 61 49 46 8 51 32 5 27 -20 -3 -26 0
-22 10 38 87 55 134 51 140 -9 14 -24 9 -30 -9z"/>
<path d="M4077 2073 c-4 -3 -7 -29 -7 -57 0 -28 -5 -69 -12 -91 -10 -37 -12
-38 -18 -15 -8 35 -33 36 -71 2 -23 -21 -32 -38 -32 -60 0 -62 53 -83 97 -39
32 32 66 128 66 187 0 28 5 50 12 52 6 2 8 10 4 16 -8 13 -29 16 -39 5z m-67
-188 c0 -9 6 -12 16 -8 14 5 15 3 6 -14 -15 -28 -39 -46 -52 -38 -14 8 -13 48
2 63 16 16 28 15 28 -3z"/>
<path d="M8709 2073 c-7 -75 -14 -110 -35 -176 -31 -94 -64 -138 -91 -121 -10
6 -19 18 -21 27 -5 25 39 77 64 77 29 0 38 14 19 30 -21 18 -56 1 -90 -44 -34
-45 -32 -94 6 -115 39 -22 74 -8 103 42 51 88 89 273 59 284 -7 3 -13 1 -14
-4z"/>
<path d="M9015 2064 c-27 -8 -61 -16 -75 -18 -44 -7 -70 -18 -70 -31 0 -7 5
-15 12 -17 16 -6 -18 -97 -38 -105 -8 -3 -12 -13 -9 -23 3 -9 -2 -33 -10 -54
-12 -27 -13 -41 -5 -57 13 -24 30 -16 30 13 0 12 5 36 12 54 12 34 13 35 101
49 34 5 47 18 30 28 -5 3 -29 2 -55 -3 -27 -4 -48 -6 -48 -6 1 1 9 25 19 55
11 30 25 57 32 61 8 4 47 15 87 26 40 10 71 23 69 28 -5 16 -26 16 -82 0z"/>
<path d="M9241 1925 c-62 -158 -71 -190 -49 -183 10 4 138 308 138 330 0 4 -6
8 -14 8 -8 0 -37 -61 -75 -155z"/>
<path d="M13454 2038 c0 -29 -11 -69 -36 -123 -67 -146 -61 -168 23 -90 55 52
73 58 59 19 -14 -36 -12 -74 3 -74 15 0 42 103 32 120 -11 17 -51 11 -81 -12
-17 -14 -25 -17 -21 -8 60 140 71 201 36 208 -13 2 -16 -6 -15 -40z"/>
<path d="M3045 2041 c-3 -6 -8 -34 -11 -63 -3 -29 -12 -83 -21 -119 -16 -67
-13 -104 9 -97 7 3 13 18 14 34 1 17 5 41 9 55 7 21 17 81 27 168 3 25 -15 40
-27 22z"/>
<path d="M10847 2013 c-12 -12 -7 -43 7 -43 13 0 26 20 26 41 0 10 -23 12 -33
2z"/>
<path d="M4524 1999 c-8 -14 11 -33 25 -25 11 7 4 36 -9 36 -5 0 -12 -5 -16
-11z"/>
<path d="M12540 1980 c-11 -7 -12 -12 -3 -21 13 -13 33 -4 33 17 0 16 -9 18
-30 4z"/>
<path d="M7630 1957 c-38 -19 -37 -50 4 -91 20 -19 36 -40 36 -46 0 -18 -31
-24 -53 -11 -29 18 -50 -5 -23 -25 41 -30 106 -6 106 39 0 9 -16 34 -35 56
-19 21 -35 42 -35 45 0 4 17 6 37 4 44 -3 56 17 18 32 -32 12 -25 12 -55 -3z"/>
<path d="M12007 1940 c-46 -29 -47 -29 -44 -7 4 43 -25 22 -45 -33 -11 -30
-24 -59 -29 -64 -12 -13 -11 -36 1 -36 6 0 38 28 71 61 33 34 63 59 66 55 4
-3 -6 -33 -22 -66 -23 -49 -26 -62 -15 -75 18 -22 30 -19 29 8 -1 12 13 53 30
91 30 63 34 96 13 96 -4 0 -29 -13 -55 -30z"/>
<path d="M8047 1940 c-15 -12 -32 -18 -37 -15 -6 4 -22 -1 -36 -10 -21 -13
-23 -19 -13 -31 9 -12 9 -23 -1 -55 -10 -28 -10 -43 -3 -50 15 -15 33 -3 33
22 0 28 23 69 55 99 22 20 28 22 35 10 12 -20 33 0 28 26 -5 27 -30 28 -61 4z"/>
<path d="M3583 1930 c-40 -24 -41 -39 -6 -80 21 -26 24 -33 12 -41 -19 -12
-33 -11 -47 3 -9 9 -13 7 -18 -5 -14 -38 33 -50 86 -22 37 19 39 49 5 71 -32
21 -32 41 0 56 19 8 28 8 40 -2 8 -7 23 -9 32 -5 16 6 15 8 -7 25 -32 25 -57
25 -97 0z"/>
<path d="M3788 1940 c-26 -16 -49 -69 -41 -99 3 -14 15 -39 25 -54 19 -26 23
-27 67 -21 51 7 88 31 72 47 -7 7 -15 6 -23 0 -20 -17 -74 -19 -92 -4 -22 18
-20 31 3 31 27 0 81 48 81 71 0 30 -58 48 -92 29z m41 -51 c-29 -22 -39 -24
-39 -6 0 21 20 35 42 29 20 -5 20 -5 -3 -23z"/>
<path d="M4903 1923 c-38 -37 -67 -105 -59 -137 7 -27 51 -56 86 -56 25 0 84
30 125 65 23 19 27 27 18 36 -9 9 -20 5 -46 -17 -18 -17 -48 -36 -66 -44 -29
-12 -37 -12 -60 1 -39 22 -38 45 1 53 36 7 98 61 98 86 0 45 -55 53 -97 13z
m65 -15 c-6 -18 -57 -53 -65 -44 -5 4 5 19 20 32 30 26 51 31 45 12z"/>
<path d="M6107 1930 c-27 -21 -57 -69 -57 -90 0 -5 9 -19 20 -30 26 -26 130
-30 130 -5 0 11 -12 15 -48 15 -60 0 -76 13 -57 49 17 34 54 54 91 49 20 -2
29 1 29 12 0 25 -76 25 -108 0z"/>
<path d="M6748 1933 c-24 -28 -38 -59 -38 -88 0 -32 41 -75 72 -75 34 0 128
42 128 57 0 19 -25 16 -72 -8 -25 -13 -49 -18 -64 -15 -26 7 -34 36 -10 36 8
0 29 12 46 26 23 20 30 34 28 53 -3 22 -9 26 -39 29 -24 2 -40 -3 -51 -15z
m62 -22 c0 -11 -39 -41 -52 -41 -13 0 -9 18 8 34 17 18 44 21 44 7z"/>
<path d="M9383 1929 c-41 -26 -67 -81 -59 -125 8 -41 30 -54 88 -54 71 0 167
71 129 94 -5 3 -23 -8 -41 -24 -36 -33 -63 -43 -106 -38 -41 4 -44 34 -5 43
37 8 81 48 81 74 0 54 -32 66 -87 30z m57 -22 c0 -17 -28 -43 -57 -51 -38 -12
-27 17 17 47 30 21 40 21 40 4z"/>
<path d="M5924 1926 c-17 -8 -40 -29 -51 -48 -18 -31 -19 -39 -8 -65 17 -39
41 -47 99 -32 52 13 60 21 51 49 -8 25 -31 26 -38 1 -5 -22 -56 -34 -75 -18
-10 8 -7 13 15 22 44 19 79 63 67 82 -14 23 -24 24 -60 9z m26 -30 c0 -2 -12
-12 -27 -21 l-28 -18 19 21 c17 20 36 29 36 18z"/>
<path d="M12114 1885 c-22 -47 -25 -60 -16 -80 30 -64 153 16 134 87 -4 16
-59 48 -82 48 -5 0 -21 -25 -36 -55z m86 -14 c0 -19 -43 -61 -61 -61 -12 0
-11 37 1 61 14 26 60 26 60 0z"/>
<path d="M12818 1920 c-95 -51 -79 -160 23 -160 46 0 96 17 103 35 8 22 -9 26
-40 10 -35 -18 -86 -19 -102 -3 -17 17 -15 28 7 28 33 0 82 49 79 79 -4 33
-23 36 -70 11z m16 -45 c-29 -22 -42 -17 -15 6 13 11 26 17 29 14 3 -3 -3 -12
-14 -20z"/>
<path d="M3394 1896 c-28 -28 -33 -30 -31 -13 1 11 -2 21 -8 23 -10 4 -105
-240 -105 -270 0 -32 18 -15 51 49 29 57 37 65 61 65 57 0 132 111 111 166 -9
24 -43 16 -79 -20z m49 -27 c-7 -35 -67 -94 -87 -86 -20 8 -21 27 -1 27 8 0
15 3 15 8 0 9 70 85 75 81 2 -2 1 -16 -2 -30z"/>
<path d="M5473 1915 c-39 -17 -53 -42 -53 -95 0 -53 26 -67 106 -54 73 12 69
29 -9 29 -51 0 -62 3 -65 18 -2 12 3 17 17 17 31 0 63 36 59 67 -4 33 -14 36
-55 18z m17 -40 c-7 -8 -17 -15 -22 -15 -6 0 -5 7 2 15 7 8 17 15 22 15 6 0 5
-7 -2 -15z"/>
<path d="M5655 1920 c-3 -5 4 -28 16 -51 l21 -43 -31 -25 c-17 -14 -31 -29
-31 -33 0 -14 30 -9 57 9 25 16 26 16 45 -10 11 -15 28 -27 39 -27 25 0 24 9
-7 41 l-26 27 27 36 c17 23 25 42 21 53 -6 15 -11 13 -32 -15 -14 -18 -29 -32
-34 -32 -4 0 -15 18 -24 40 -16 39 -29 49 -41 30z"/>
<path d="M9077 1924 c-13 -13 -7 -24 14 -24 11 0 19 5 17 12 -5 14 -22 21 -31
12z"/>
<path d="M14734 1888 c-48 -47 -57 -84 -27 -113 30 -31 153 -5 153 31 0 11 -5
14 -17 9 -39 -16 -93 -27 -108 -21 -24 9 -17 26 11 26 27 0 84 51 84 74 0 16
-21 36 -38 36 -7 0 -33 -19 -58 -42z m41 -18 c-10 -11 -23 -20 -28 -20 -6 0
-2 9 8 20 10 11 23 20 28 20 6 0 2 -9 -8 -20z"/>
<path d="M1950 1876 c0 -58 -14 -93 -51 -132 -33 -34 -29 -43 17 -45 41 -2
208 91 212 118 2 15 -4 22 -22 27 -13 3 -37 16 -53 29 -28 23 -76 47 -93 47
-6 0 -10 -20 -10 -44z m43 -26 c-3 -11 -7 -20 -9 -20 -2 0 -4 9 -4 20 0 11 4
20 9 20 5 0 7 -9 4 -20z"/>
<path d="M3144 1884 c-19 -19 -34 -44 -34 -54 0 -26 28 -39 61 -30 24 7 28 5
31 -13 4 -28 30 -29 34 -2 11 82 11 95 -2 114 -22 31 -52 26 -90 -15z m74 -16
c2 -9 -9 -20 -27 -28 -45 -18 -56 -8 -27 24 27 29 49 30 54 4z"/>
<path d="M6292 1895 c-15 -33 -15 -78 0 -93 17 -17 69 -15 96 4 22 15 62 83
62 104 0 23 -28 8 -40 -21 -18 -42 -48 -69 -78 -69 -21 0 -24 4 -19 28 3 15 8
37 12 50 10 32 -18 29 -33 -3z"/>
<path d="M8193 1905 c-50 -35 -79 -119 -50 -143 6 -6 37 -11 67 -12 82 -3 90
-1 90 15 0 12 -14 15 -64 15 -68 0 -96 15 -49 26 15 3 35 8 43 10 8 2 26 20
40 40 23 35 24 37 5 50 -25 18 -55 18 -82 -1z m57 -23 c0 -17 -39 -44 -57 -40
-16 3 -16 5 5 26 22 22 52 30 52 14z m-70 -62 c0 -5 -5 -10 -11 -10 -5 0 -7 5
-4 10 3 6 8 10 11 10 2 0 4 -4 4 -10z"/>
<path d="M8362 1892 c-36 -33 -48 -68 -32 -87 16 -19 34 -19 70 0 28 14 29 14
32 -12 3 -27 32 -53 44 -40 4 4 2 13 -4 19 -15 15 -15 73 -1 100 9 18 8 24 -7
35 -29 21 -69 15 -102 -15z m68 -17 c0 -20 -63 -59 -69 -43 -4 12 43 58 60 58
5 0 9 -7 9 -15z"/>
<path d="M12605 1902 c-42 -26 -57 -48 -57 -79 0 -34 26 -53 73 -53 45 0 69 8
69 24 0 7 -20 11 -52 11 -50 0 -53 2 -53 25 0 20 10 30 47 49 46 22 55 41 20
41 -9 0 -30 -8 -47 -18z"/>
<path d="M2784 1903 c-25 -5 -67 -46 -87 -87 -21 -40 -6 -80 39 -101 32 -15
39 -15 90 0 30 9 58 23 61 31 9 24 -3 27 -36 10 -16 -9 -47 -16 -69 -16 -62 0
-87 42 -32 53 16 4 41 14 55 23 21 14 25 24 23 52 -3 37 -9 42 -44 35z m14
-45 c-5 -15 -50 -39 -58 -32 -6 7 38 44 52 44 5 0 8 -6 6 -12z"/>
<path d="M4426 1854 c-27 -58 -33 -94 -17 -94 12 0 61 106 61 131 0 35 -18 19
-44 -37z"/>
<path d="M4603 1885 c-14 -10 -24 -11 -28 -5 -9 15 -42 12 -48 -5 -4 -8 -2
-17 3 -20 6 -4 -1 -25 -15 -50 -41 -69 -12 -68 50 1 50 56 79 69 56 26 -14
-27 -14 -52 0 -52 7 0 34 20 60 45 66 62 108 58 59 -5 -23 -30 -26 -70 -5 -70
8 0 15 7 15 16 0 9 9 28 19 43 22 31 29 61 18 79 -13 20 -64 14 -96 -13 l-30
-26 -3 23 c-4 28 -26 33 -55 13z"/>
<path d="M12464 1865 c-17 -43 -18 -75 -1 -75 11 0 37 70 37 100 0 23 -22 7
-36 -25z"/>
<path d="M13628 1890 c-24 -15 -61 -78 -54 -95 7 -20 41 -19 72 2 25 16 25 16
22 -13 -2 -20 2 -29 13 -32 13 -2 18 9 23 53 7 58 2 80 -15 69 -5 -3 -8 0 -7
8 4 16 -31 21 -54 8z m22 -52 c-12 -10 -25 -16 -28 -13 -9 8 30 45 41 38 6 -4
1 -14 -13 -25z"/>
<path d="M10818 1884 c-4 -3 -4 -12 -1 -20 8 -22 -27 -55 -56 -52 -37 4 -41
-29 -5 -38 23 -6 33 -1 66 35 39 42 46 73 17 79 -8 1 -18 0 -21 -4z"/>
<path d="M9035 1814 c-18 -45 -19 -64 -2 -64 13 0 37 53 37 83 0 29 -19 19
-35 -19z"/>
<path d="M7800 1824 c-9 -10 -10 -18 -2 -26 12 -12 32 -2 32 17 0 21 -16 26
-30 9z"/>
<path d="M9727 1741 c-30 -65 -33 -85 -14 -79 16 6 56 78 59 108 6 44 -18 30
-45 -29z"/>
<path d="M5194 1779 c-9 -16 12 -33 31 -25 14 5 15 9 5 21 -15 18 -26 19 -36
4z"/>
<path d="M4112 1701 c-68 -45 -75 -62 -107 -245 -3 -21 -9 -36 -12 -32 -9 9
-60 -22 -77 -46 -19 -27 -21 -79 -4 -96 20 -20 65 -14 97 14 28 23 30 30 25
65 -7 40 9 162 28 229 12 41 42 76 81 96 15 8 27 21 27 29 0 21 -9 19 -58 -14z
m-109 -337 c3 -18 -2 -33 -15 -46 -42 -42 -78 6 -38 50 28 29 47 28 53 -4z"/>
<path d="M4450 1659 c-41 -5 -99 -6 -127 -3 -44 4 -53 3 -53 -10 0 -19 26 -21
33 -3 3 6 6 4 6 -7 1 -18 7 -18 109 -10 59 5 144 9 190 9 71 0 82 2 82 18 0
15 -10 17 -82 16 -46 -1 -117 -6 -158 -10z"/>
<path d="M7475 1626 c-117 -77 -169 -173 -182 -333 -5 -59 -2 -78 15 -115 22
-45 65 -78 100 -78 37 0 32 17 -8 33 -49 19 -80 67 -80 125 0 56 28 177 51
223 22 44 92 108 148 134 42 20 55 45 24 44 -10 0 -40 -15 -68 -33z"/>
<path d="M10736 1628 c-36 -36 -59 -100 -54 -146 3 -24 -2 -28 -46 -42 -64
-20 -77 -46 -18 -37 22 4 48 10 58 14 15 6 16 1 12 -41 -4 -29 -14 -56 -27
-70 -25 -27 -27 -49 -4 -44 27 5 63 77 63 126 0 26 4 41 11 40 20 -5 22 23 1
28 -45 12 5 166 53 161 14 -1 20 4 20 18 0 33 -33 29 -69 -7z"/>
<path d="M3035 1583 c-23 -235 -22 -325 3 -309 8 4 23 204 26 330 2 70 -21 53
-29 -21z"/>
<path d="M6721 1636 c-7 -8 -11 -20 -10 -28 2 -7 -7 -44 -20 -81 l-23 -69 -34
7 c-26 4 -34 2 -34 -9 0 -8 13 -17 28 -21 27 -5 29 -9 29 -54 1 -60 25 -109
58 -117 37 -9 95 4 95 22 0 12 -8 14 -44 9 -38 -6 -46 -4 -60 16 -9 14 -16 43
-16 70 0 50 10 59 73 59 16 0 27 5 27 14 0 9 -12 14 -36 14 -19 0 -38 3 -42 6
-3 4 6 42 21 84 15 42 27 80 27 85 0 12 -27 8 -39 -7z"/>
<path d="M12260 1637 c0 -10 20 -21 56 -32 50 -14 57 -20 74 -58 24 -52 26
-137 4 -199 -11 -33 -36 -65 -88 -117 -41 -39 -79 -71 -85 -71 -6 0 -11 -7
-11 -15 0 -58 162 83 206 179 23 51 26 67 22 136 -7 117 -43 164 -145 185 -26
5 -33 3 -33 -8z"/>
<path d="M9163 1616 c-117 -30 -115 -26 -129 -191 -4 -44 -11 -86 -17 -93 -14
-18 0 -28 21 -16 11 7 18 27 20 55 2 24 7 48 12 53 4 4 36 9 70 11 70 3 81 9
49 25 -14 8 -40 10 -72 6 l-49 -7 6 38 c12 67 13 68 88 87 39 10 85 20 102 21
41 4 40 3 26 20 -15 18 -24 18 -127 -9z"/>
<path d="M14269 1603 c-6 -16 -22 -52 -35 -80 -22 -49 -26 -53 -58 -53 -20 0
-36 -6 -39 -14 -8 -20 2 -26 34 -19 l29 5 -16 -30 c-8 -17 -18 -48 -21 -68 -9
-56 14 -39 42 30 22 55 33 69 60 80 6 2 6 8 -1 15 -8 9 -4 30 16 79 15 37 26
70 23 75 -9 15 -24 6 -34 -20z"/>
<path d="M15176 1608 c-9 -12 -16 -26 -16 -31 0 -5 -15 -32 -34 -60 -45 -67
-76 -141 -76 -179 0 -36 23 -34 29 3 4 29 47 121 96 204 19 33 35 66 35 73 0
19 -17 14 -34 -10z"/>
<path d="M4477 1613 c-3 -5 -10 -34 -16 -66 -6 -32 -24 -97 -41 -144 -16 -48
-30 -98 -30 -111 0 -52 24 -10 61 105 42 132 58 223 41 223 -6 0 -13 -3 -15
-7z"/>
<path d="M7729 1588 c-40 -27 -69 -80 -69 -125 0 -27 -4 -32 -27 -35 -42 -5
-37 -34 5 -30 l32 3 0 -48 c0 -52 -12 -73 -42 -73 -24 0 -23 -17 2 -30 17 -9
25 -6 45 14 24 24 29 46 25 114 -2 34 6 37 68 32 12 -1 22 3 22 9 0 18 -37 31
-69 25 -35 -7 -37 -1 -21 57 6 21 22 44 36 54 24 16 26 16 39 -2 13 -17 14
-17 21 1 7 19 -4 47 -22 53 -6 2 -26 -7 -45 -19z"/>
<path d="M11015 1598 c-9 -28 -26 -170 -21 -175 3 -3 1 -14 -5 -24 -7 -15 -6
-19 5 -19 10 0 17 14 22 38 3 20 12 68 20 106 7 38 11 73 8 77 -8 13 -24 11
-29 -3z"/>
<path d="M13698 1597 c-34 -15 -59 -48 -88 -114 -20 -47 -26 -53 -59 -59 -55
-9 -71 -15 -71 -25 0 -5 20 -9 45 -9 l45 0 -12 -27 c-6 -16 -20 -35 -30 -45
-25 -22 -23 -40 4 -36 16 2 30 19 47 56 22 44 30 52 53 52 18 0 28 5 28 15 0
14 -12 19 -32 16 -11 -1 -10 2 13 56 24 57 55 93 81 93 10 0 18 6 18 14 0 22
-12 25 -42 13z"/>
<path d="M15050 1585 c0 -10 -15 -43 -33 -74 -19 -31 -40 -72 -47 -91 -7 -19
-17 -40 -22 -46 -5 -6 -6 -19 -2 -28 12 -30 32 -16 43 31 7 25 30 77 52 115
22 38 39 76 37 85 -4 22 -28 29 -28 8z"/>
<path d="M8907 1564 c-4 -4 -7 -34 -7 -66 0 -51 -2 -58 -20 -58 -26 0 -97 -69
-105 -103 -10 -37 -1 -55 32 -68 35 -14 92 13 110 51 15 31 21 242 7 247 -6 2
-13 0 -17 -3z m-7 -180 c0 -41 -22 -74 -54 -83 -57 -15 -60 24 -5 77 36 35 59
37 59 6z"/>
<path d="M9445 1558 c-14 -37 -45 -175 -45 -197 0 -42 11 -71 27 -71 11 0 13
9 8 43 -4 28 1 66 15 117 35 125 34 120 16 120 -9 0 -19 -6 -21 -12z"/>
<path d="M13247 1473 c-80 -143 -127 -240 -127 -263 0 -32 27 -23 34 11 3 17
42 96 86 175 44 78 80 150 80 158 0 35 -20 12 -73 -81z"/>
<path d="M13157 1518 c-65 -104 -157 -282 -157 -303 0 -28 18 -34 26 -7 12 41
149 288 166 298 4 3 8 12 8 20 0 22 -28 17 -43 -8z"/>
<path d="M4657 1505 c-7 -16 8 -29 23 -20 15 9 12 35 -4 35 -8 0 -16 -7 -19
-15z"/>
<path d="M2776 1466 c-20 -18 -36 -41 -36 -50 0 -9 -7 -19 -15 -22 -8 -4 -15
-16 -15 -29 0 -12 7 -28 15 -35 8 -7 15 -18 15 -26 0 -7 10 -20 22 -28 25 -18
88 -22 88 -6 0 5 6 7 13 4 17 -6 52 20 43 34 -4 8 -17 7 -41 -4 -47 -19 -71
-18 -89 7 -13 20 -12 23 14 45 16 14 38 44 49 68 38 77 0 102 -63 42z m20 -56
c-28 -43 -36 -48 -36 -26 0 17 50 79 58 72 3 -3 -7 -24 -22 -46z"/>
<path d="M3573 1484 c-42 -21 -47 -38 -23 -91 11 -25 17 -49 14 -54 -8 -14
-34 -11 -31 4 1 6 -5 12 -13 12 -8 0 -16 -10 -18 -22 -4 -28 37 -41 74 -24 28
13 30 37 8 85 -25 51 -13 70 36 62 47 -7 56 13 15 32 -31 14 -23 15 -62 -4z"/>
<path d="M12648 1486 c-20 -15 -24 -36 -7 -36 23 0 48 21 43 35 -7 18 -14 18
-36 1z"/>
<path d="M13756 1493 c-12 -12 -6 -43 9 -43 8 0 15 9 15 19 0 21 -13 34 -24
24z"/>
<path d="M8279 1465 c-33 -25 -59 -83 -62 -144 -2 -32 19 -39 28 -9 30 105 75
170 96 137 6 -11 11 -11 20 -2 9 9 9 16 -1 28 -18 22 -41 19 -81 -10z"/>
<path d="M14604 1471 c-73 -45 -96 -116 -49 -147 29 -19 58 -12 53 13 -3 12
-12 17 -26 16 -32 -4 -28 28 7 66 21 22 38 31 61 31 25 0 31 4 28 18 -5 24
-37 26 -74 3z"/>
<path d="M4805 1455 c-16 -13 -38 -24 -48 -25 -19 0 -57 -75 -57 -111 0 -31
25 -22 38 14 13 35 72 100 72 78 0 -6 -7 -25 -15 -41 -26 -50 3 -45 61 10 30
29 57 50 60 47 3 -3 0 -24 -6 -47 -11 -42 -8 -70 8 -70 7 0 43 128 42 153 0
15 -39 6 -74 -18 -34 -23 -49 -22 -25 2 13 13 4 33 -14 33 -7 0 -25 -11 -42
-25z"/>
<path d="M7862 1470 c-33 -14 -37 -35 -13 -69 30 -42 32 -75 4 -79 -13 -2 -23
1 -23 7 0 6 -9 11 -21 11 -34 0 -18 -33 25 -49 37 -14 40 -14 57 8 24 30 24
58 -2 100 -23 39 -18 48 31 53 19 2 35 8 35 13 0 13 -64 17 -93 5z"/>
<path d="M9242 1468 c3 -7 15 -15 27 -16 16 -3 22 1 19 10 -3 7 -15 15 -27 16
-16 3 -22 -1 -19 -10z"/>
<path d="M10816 1471 c-4 -5 -3 -17 0 -26 7 -18 35 -17 41 2 5 14 -33 37 -41
24z"/>
<path d="M12025 1464 c-77 -40 -91 -77 -52 -135 22 -33 25 -34 90 -34 71 0
101 15 79 37 -10 10 -17 10 -32 0 -32 -20 -97 -15 -110 7 -8 17 -6 20 20 26
41 9 97 80 80 100 -16 19 -37 19 -75 -1z m29 -35 c-23 -26 -54 -43 -62 -35 -8
8 52 51 77 55 2 1 -4 -8 -15 -20z"/>
<path d="M5052 1463 c-7 -3 -24 -23 -38 -44 -22 -35 -23 -44 -14 -78 12 -47
39 -57 115 -41 61 13 107 52 86 73 -10 9 -16 7 -29 -10 -18 -23 -99 -47 -126
-37 -26 10 -18 32 17 50 49 25 75 53 70 75 -4 14 -14 19 -37 18 -17 0 -37 -3
-44 -6z m38 -33 c-8 -6 -24 -16 -35 -22 -20 -11 -20 -11 -1 11 11 11 26 21 35
21 14 0 14 -2 1 -10z"/>
<path d="M5568 1454 c-35 -18 -58 -62 -58 -108 0 -27 6 -40 27 -53 33 -22 132
-24 157 -4 26 22 19 33 -16 25 -78 -17 -138 -6 -138 26 0 13 7 20 19 20 22 0
67 34 82 62 9 18 8 24 -7 35 -22 16 -32 16 -66 -3z m22 -44 c-33 -26 -48 -26
-25 0 10 11 25 20 34 20 12 0 9 -6 -9 -20z"/>
<path d="M8442 1450 c-98 -60 -112 -210 -20 -210 33 0 88 20 88 32 0 5 -25 8
-57 6 l-58 -3 -3 38 c-3 35 -1 38 16 33 45 -15 111 49 97 94 -9 27 -29 31 -63
10z m8 -62 c-34 -28 -48 -9 -15 20 21 18 30 21 33 12 3 -8 -5 -22 -18 -32z"/>
<path d="M13972 1454 c-24 -16 -28 -44 -11 -75 14 -27 -3 -47 -47 -55 -42 -8
-51 -20 -24 -34 15 -8 28 -6 60 10 53 27 67 53 45 87 -16 24 -16 26 4 47 32
34 12 48 -27 20z"/>
<path d="M6974 1441 c-83 -51 -34 -171 69 -171 52 0 97 19 97 41 0 23 0 23
-36 4 -37 -19 -84 -19 -112 1 -31 21 -27 41 11 57 39 17 60 40 55 64 -5 25
-47 27 -84 4z m56 -16 c0 -2 -15 -12 -32 -20 l-33 -16 24 21 c22 19 41 26 41
15z"/>
<path d="M13837 1430 c-34 -40 -63 -118 -50 -131 7 -7 21 11 44 58 28 57 39
69 62 71 37 5 36 32 -2 32 -20 0 -37 -9 -54 -30z"/>
<path d="M3134 1435 c-12 -8 -27 -28 -34 -45 -16 -39 0 -60 46 -60 26 0 33 -4
36 -22 2 -15 11 -24 26 -26 25 -4 27 1 11 26 -9 14 -8 25 5 50 20 39 4 53 -28
23 -12 -12 -34 -21 -49 -21 -25 0 -26 2 -15 24 13 29 38 42 38 21 0 -17 16
-20 25 -5 10 17 -5 50 -23 50 -10 0 -27 -7 -38 -15z"/>
<path d="M3352 1414 c-22 -25 -32 -31 -32 -19 0 58 -58 -66 -73 -157 -2 -13
-9 -36 -16 -52 -6 -16 -11 -36 -9 -44 7 -36 25 -17 51 52 23 61 31 73 46 69
60 -16 141 104 115 171 -11 27 -49 18 -82 -20z m54 -37 c-8 -34 -67 -91 -77
-75 -9 14 9 48 50 91 27 29 37 23 27 -16z"/>
<path d="M3755 1441 c-46 -19 -81 -85 -65 -125 5 -14 21 -33 35 -42 23 -15 28
-15 35 -3 6 9 4 17 -8 23 -17 9 -32 26 -32 37 0 4 13 9 29 12 52 11 74 53 48
95 -9 14 -14 14 -42 3z m25 -40 c0 -13 -29 -35 -37 -28 -7 8 15 37 28 37 5 0
9 -4 9 -9z"/>
<path d="M5760 1440 c0 -6 9 -28 20 -49 21 -42 17 -52 -27 -65 -13 -4 -23 -11
-23 -16 0 -18 20 -20 58 -5 38 16 41 15 85 -9 50 -28 77 -33 77 -13 0 6 -23
22 -51 35 -52 24 -52 24 -16 74 17 22 18 30 7 43 -7 8 -21 15 -32 15 -16 0
-17 -3 -7 -21 9 -18 8 -25 -8 -41 -19 -19 -20 -18 -38 22 -16 36 -45 55 -45
30z"/>
<path d="M6008 1435 c-48 -27 -59 -104 -20 -147 25 -30 180 -15 169 15 -4 12
-9 12 -84 1 -69 -11 -101 32 -43 56 41 17 62 47 49 72 -12 21 -34 23 -71 3z
m42 -23 c0 -5 -12 -14 -27 -21 l-28 -11 24 20 c26 22 31 24 31 12z"/>
<path d="M9556 1431 c-59 -39 -73 -105 -31 -146 13 -14 31 -25 40 -25 27 0 95
40 95 55 0 19 -19 19 -44 0 -26 -20 -72 -19 -80 1 -11 28 -7 33 32 40 61 11
73 21 69 57 -4 40 -38 47 -81 18z m54 -20 c0 -10 -24 -21 -43 -21 -7 0 -3 7 7
15 22 17 36 19 36 6z"/>
<path d="M11509 1435 c-34 -19 -53 -60 -38 -87 9 -17 17 -19 50 -14 34 5 39 4
39 -13 0 -26 27 -48 42 -33 8 8 8 15 0 25 -8 10 -8 23 0 50 9 30 8 40 -6 61
-18 29 -47 33 -87 11z m57 -26 c8 -13 -13 -34 -43 -44 -31 -9 -31 18 -1 39 27
19 35 20 44 5z"/>
<path d="M14784 1416 c-35 -35 -40 -51 -24 -76 8 -12 13 -12 43 2 l34 16 -5
-24 c-5 -26 14 -57 30 -48 5 3 6 14 3 25 -4 12 2 37 14 60 26 50 26 51 -6 67
-40 18 -52 15 -89 -22z m41 -21 c-16 -13 -32 -22 -34 -19 -7 6 40 44 54 43 6
0 -3 -11 -20 -24z"/>
<path d="M6214 1406 c-69 -69 -20 -162 76 -148 42 6 37 21 -10 28 -50 8 -75
34 -66 69 6 24 20 33 70 49 15 5 16 9 6 21 -19 23 -39 18 -76 -19z"/>
<path d="M8632 1424 c-28 -20 -54 -68 -46 -88 7 -18 36 -21 65 -6 16 9 19 7
19 -9 0 -33 11 -51 31 -51 21 0 26 26 7 33 -10 3 -9 16 5 54 21 61 21 63 2 63
-8 0 -15 5 -15 10 0 15 -43 12 -68 -6z m48 -23 c0 -12 -51 -53 -58 -46 -6 6
38 55 50 55 4 0 8 -4 8 -9z"/>
<path d="M11290 1410 c0 -17 -7 -45 -16 -61 -15 -30 -13 -59 3 -59 5 0 17 15
27 34 10 19 31 47 46 61 l28 27 -1 -68 c-2 -54 1 -69 13 -71 13 -3 15 11 15
79 0 72 -2 83 -18 86 -11 2 -30 -7 -44 -20 l-25 -23 6 23 c6 18 3 22 -13 22
-17 0 -21 -6 -21 -30z"/>
<path d="M11081 1401 c-40 -43 -45 -78 -14 -109 22 -22 30 -24 76 -19 53 7 74
18 63 35 -4 7 -18 7 -42 0 -38 -10 -84 -4 -84 12 0 5 15 12 34 16 42 7 69 35
64 66 -2 18 -10 24 -36 26 -26 3 -39 -3 -61 -27z m69 -9 c0 -8 -43 -32 -57
-32 -3 0 2 9 12 20 18 20 45 27 45 12z"/>
<path d="M11710 1410 c-11 -11 -22 -15 -25 -9 -10 16 -25 0 -25 -27 0 -14 -4
-34 -10 -44 -7 -13 -6 -21 4 -30 12 -9 20 -2 41 34 15 25 29 46 32 46 3 0 3
-18 -1 -40 -8 -54 5 -51 64 13 l49 52 -2 -57 c-2 -57 6 -79 23 -62 11 11 16
116 6 132 -11 17 -34 15 -65 -7 -27 -19 -27 -19 -39 0 -15 24 -27 24 -52 -1z"/>
<path d="M6364 1395 c-14 -22 -15 -32 -5 -65 20 -67 82 -81 132 -30 22 22 29
37 27 57 -4 38 -33 37 -34 -1 -2 -47 -57 -74 -84 -41 -14 17 -16 49 -5 83 10
30 -10 29 -31 -3z"/>
<path d="M13696 1403 c-3 -3 -6 -16 -6 -27 0 -12 -9 -36 -20 -54 -23 -37 -26
-62 -7 -62 16 0 57 82 57 115 0 25 -12 39 -24 28z"/>
<path d="M9226 1368 c-16 -39 -10 -98 10 -98 9 0 14 11 13 33 -1 17 2 47 6 65
5 22 4 32 -4 32 -7 0 -18 -15 -25 -32z"/>
<path d="M4586 1378 c-23 -82 -23 -88 -11 -105 11 -15 14 -16 18 -3 2 8 9 30
15 47 11 35 6 73 -9 73 -6 0 -11 -6 -13 -12z"/>
<path d="M10817 1334 c-9 -25 -14 -50 -11 -56 11 -18 27 -1 40 43 17 55 17 59
1 59 -7 0 -20 -21 -30 -46z"/>
<path d="M10980 1337 c0 -33 23 -67 33 -50 9 14 -8 76 -21 81 -8 2 -12 -8 -12
-31z"/>
<path d="M12627 1334 c-3 -3 -1 -14 5 -24 10 -15 7 -25 -15 -53 -15 -20 -36
-39 -47 -42 -24 -8 -27 -35 -3 -35 22 0 103 86 103 109 0 41 -23 65 -43 45z"/>
<path d="M5334 1319 c-9 -15 12 -33 30 -26 9 4 16 13 16 22 0 17 -35 21 -46 4z"/>
<path d="M8020 1306 c0 -17 27 -29 35 -16 4 6 3 15 0 20 -9 15 -35 12 -35 -4z"/>
<path d="M10095 1290 c-4 -6 -5 -13 -3 -16 8 -8 104 -23 124 -19 10 2 29 4 42
4 12 1 22 7 22 16 0 12 -13 15 -59 15 -32 0 -72 3 -89 6 -18 4 -32 1 -37 -6z"/>
<path d="M10320 1284 c0 -22 19 -26 80 -19 35 4 61 12 64 21 4 11 -10 13 -69
12 -53 -1 -75 -5 -75 -14z"/>
<path d="M9859 1263 c-1 -5 -1 -15 0 -23 1 -9 -14 -34 -34 -57 -39 -45 -42
-53 -21 -53 32 0 101 95 90 124 -6 16 -33 22 -35 9z"/>
<path d="M14942 1147 c1 -13 -10 -44 -25 -69 -22 -39 -32 -46 -67 -52 -27 -4
-40 -11 -40 -22 0 -12 7 -15 25 -12 30 6 31 4 5 -32 -38 -53 -51 -95 -36 -115
11 -15 22 -17 79 -11 53 6 67 11 72 27 9 27 -4 44 -18 26 -7 -8 -33 -18 -59
-22 -60 -8 -62 4 -12 80 35 53 39 55 80 55 32 0 44 4 44 15 0 10 -10 15 -31
15 -17 0 -29 3 -27 8 32 62 47 103 42 116 -10 25 -34 19 -32 -7z"/>
<path d="M12647 1058 c-19 -35 -49 -92 -67 -127 -18 -35 -47 -87 -66 -114 -39
-56 -51 -94 -36 -109 6 -6 18 8 36 44 15 29 46 85 69 125 59 100 121 216 125
231 2 6 -3 12 -11 12 -9 0 -31 -28 -50 -62z"/>
<path d="M14040 1096 c0 -18 16 -29 30 -21 13 8 1 35 -16 35 -8 0 -14 -6 -14
-14z"/>
<path d="M13043 1045 c-3 -9 -3 -18 0 -22 10 -10 37 6 37 22 0 20 -29 20 -37
0z"/>
<path d="M12523 1042 c-7 -4 -11 -16 -11 -27 1 -11 -10 -38 -24 -60 -14 -22
-38 -65 -53 -95 -15 -30 -35 -60 -44 -67 -15 -12 -14 -14 3 -28 23 -18 28 -14
49 40 8 22 38 79 66 125 28 47 51 93 51 103 0 18 -17 22 -37 9z"/>
<path d="M13180 1013 c-8 -4 -32 -17 -52 -30 -45 -27 -49 -53 -13 -81 14 -11
25 -23 25 -26 0 -3 -22 -6 -50 -6 -38 0 -50 -4 -50 -15 0 -25 102 -21 125 5
18 20 18 21 -13 53 l-32 33 35 18 c19 10 44 20 57 21 32 3 32 3 18 20 -13 16
-25 17 -50 8z"/>
<path d="M13787 1002 c-38 -25 -56 -52 -57 -83 0 -51 57 -67 99 -28 19 17 22
29 18 56 -5 27 -3 34 8 29 20 -7 29 12 15 29 -17 20 -49 19 -83 -3z m23 -87
c-17 -21 -50 -19 -50 2 0 9 10 27 22 40 l23 24 8 -26 c6 -17 5 -31 -3 -40z"/>
<path d="M15086 989 c-38 -30 -48 -53 -36 -83 8 -22 16 -26 51 -26 32 0 47 6
70 29 36 36 36 45 3 76 -33 30 -53 31 -88 4z m65 -29 c17 0 9 -29 -10 -40 -32
-17 -61 -12 -61 10 0 21 28 42 48 35 8 -3 18 -5 23 -5z"/>
<path d="M14260 985 c-32 -16 -55 -58 -46 -81 5 -13 15 -15 46 -11 47 6 49 -2
23 -74 -14 -40 -22 -48 -53 -58 -20 -6 -45 -20 -55 -31 -25 -27 -26 -98 -2
-114 24 -16 46 0 82 62 21 36 36 51 52 52 28 0 53 10 53 21 0 5 -11 9 -24 9
-34 0 -39 13 -21 57 20 46 33 173 18 173 -6 0 -23 -16 -37 -35 -15 -19 -35
-35 -44 -35 -12 1 -7 9 18 30 39 34 32 57 -10 35z m-31 -295 c-24 -42 -49 -60
-49 -34 0 34 31 74 58 74 9 0 7 -12 -9 -40z"/>
<path d="M13595 981 c-61 -26 -74 -98 -20 -116 31 -10 31 -10 17 -46 -12 -33
-18 -37 -57 -41 -55 -7 -102 -40 -113 -81 -11 -40 1 -65 36 -78 42 -17 91 14
120 74 20 42 25 46 42 37 20 -11 40 -6 40 9 0 4 -12 13 -26 19 -29 14 -28 21
17 119 36 76 36 91 3 103 -29 12 -32 12 -59 1z m34 -50 c-11 -32 -37 -47 -52
-32 -14 14 -1 40 25 51 35 14 38 12 27 -19z m-70 -210 c-15 -43 -46 -71 -79
-71 -24 0 -30 4 -30 23 0 12 4 27 8 34 11 17 64 43 89 43 20 0 21 -3 12 -29z"/>
<path d="M14047 942 c-26 -26 -47 -51 -47 -55 0 -19 34 -3 61 28 17 19 35 35
39 35 4 0 6 -18 3 -40 -5 -32 -2 -40 10 -40 11 0 17 15 22 50 12 86 -17 94
-88 22z"/>
<path d="M13937 963 c-4 -3 -7 -14 -7 -23 0 -9 -9 -26 -21 -39 -20 -21 -20
-51 1 -51 13 0 62 98 55 110 -7 12 -19 13 -28 3z"/>
<path d="M12945 887 c-28 -49 -32 -72 -11 -80 18 -7 26 1 26 28 0 12 9 34 21
49 19 24 19 46 -1 46 -5 0 -21 -20 -35 -43z"/>
<path d="M13600 658 c0 -33 -48 -124 -116 -223 -32 -46 -44 -85 -26 -85 4 0
47 27 95 60 49 33 93 60 98 60 5 0 4 -11 -1 -26 -16 -41 -12 -72 11 -84 16 -9
25 -8 40 6 23 20 15 37 -13 28 -19 -6 -20 -3 -13 22 5 16 9 43 9 59 1 26 -2
30 -22 27 -22 -2 -76 -31 -130 -69 -18 -13 -15 -5 14 38 20 30 47 75 60 101
28 54 32 118 9 118 -10 0 -15 -10 -15 -32z"/>
<path d="M12270 654 c-6 -14 -10 -31 -10 -39 0 -8 -5 -17 -11 -21 -17 -10
-149 -286 -149 -310 0 -37 27 -37 33 0 5 34 27 80 114 251 63 123 70 145 48
145 -8 0 -20 -12 -25 -26z"/>
<path d="M12351 592 c-17 -43 -46 -102 -64 -132 -65 -110 -99 -187 -92 -209
10 -32 35 -26 35 9 0 28 34 103 90 200 30 52 90 185 90 200 0 6 -6 10 -14 10
-8 0 -27 -33 -45 -78z"/>
<path d="M12931 493 c-11 -10 -28 -35 -36 -56 -14 -33 -14 -38 -1 -43 22 -8
36 4 36 30 0 27 18 46 42 46 22 0 24 26 2 34 -21 8 -19 8 -43 -11z"/>
<path d="M13068 494 c-50 -27 -47 -83 5 -84 11 0 17 -8 17 -23 0 -28 17 -47
42 -47 23 0 23 16 1 28 -15 9 -15 15 -4 52 15 51 9 59 -28 37 -39 -23 -48 -21
-25 4 14 16 27 20 51 16 35 -6 55 9 32 24 -21 13 -60 10 -91 -7z"/>
<path d="M13283 494 c-18 -8 -33 -18 -33 -22 0 -5 11 -23 25 -42 31 -42 31
-44 1 -58 -29 -13 -66 -5 -66 14 0 8 -4 14 -9 14 -12 0 -24 -37 -16 -50 11
-17 72 -23 101 -8 44 21 51 41 31 84 -20 42 -10 58 29 48 29 -7 40 12 15 25
-25 14 -38 13 -78 -5z"/>
<path d="M12714 484 c-40 -14 -94 -64 -94 -88 0 -24 40 -64 71 -71 30 -7 79 9
79 26 0 4 -21 7 -46 6 -48 -2 -78 20 -67 49 9 25 71 56 105 52 38 -4 48 14 15
29 -17 8 -33 7 -63 -3z"/>
<path d="M13837 402 c-22 -24 -21 -32 2 -32 27 0 45 24 28 39 -11 8 -18 7 -30
-7z"/>
</g>
</svg>
