<?xml version="1.0" standalone="no"?>
<!DOCTYPE svg PUBLIC "-//W3C//DTD SVG 20010904//EN"
 "http://www.w3.org/TR/2001/REC-SVG-20010904/DTD/svg10.dtd">
<svg version="1.0" xmlns="http://www.w3.org/2000/svg"
 width="1616.000000pt" height="808.000000pt" viewBox="0 0 1616.000000 808.000000"
 preserveAspectRatio="xMidYMid meet">

<g transform="translate(0.000000,808.000000) scale(0.100000,-0.100000)"
fill="#000000" stroke="none">
<path d="M7386 7597 c-30 -31 -49 -66 -69 -125 l-28 -81 -41 -3 c-56 -4 -63
-28 -9 -28 l41 0 -25 -50 c-14 -27 -32 -50 -40 -50 -19 0 -19 -24 -1 -39 16
-14 38 12 75 92 22 44 25 47 63 47 l40 0 -22 -35 c-35 -57 -13 -106 42 -92 29
8 68 66 68 102 0 37 -40 70 -55 45 -5 -8 -12 -7 -22 2 -9 7 -18 12 -20 11 -1
-2 -16 -3 -33 -3 l-29 0 27 77 c33 94 78 147 116 137 19 -4 26 -2 26 9 0 15
-20 27 -48 27 -8 0 -34 -19 -56 -43z m64 -259 c0 -23 -39 -78 -55 -78 -23 0
-18 25 11 59 27 33 44 40 44 19z"/>
<path d="M12927 7580 c-28 -60 -29 -61 -62 -54 -31 5 -39 2 -85 -44 -45 -44
-50 -54 -50 -93 0 -28 8 -53 19 -69 19 -24 19 -25 -6 -75 -14 -27 -30 -53 -36
-56 -12 -8 -2 -39 13 -39 5 0 26 32 45 70 26 52 40 70 56 70 31 0 73 25 107
65 44 49 49 77 23 121 l-22 36 26 51 c28 56 31 77 13 77 -7 0 -26 -27 -41 -60z
m-95 -169 c-35 -59 -50 -77 -59 -69 -18 15 -15 69 5 95 15 19 73 51 94 53 4 0
-14 -36 -40 -79z m98 39 c18 -33 -19 -89 -78 -120 -13 -6 -26 -9 -29 -7 -7 7
77 147 88 147 4 0 13 -9 19 -20z"/>
<path d="M2300 7604 c-30 -7 -91 -15 -136 -17 -86 -4 -104 -10 -104 -33 0 -10
7 -13 23 -10 12 3 54 8 92 11 136 12 213 33 199 56 -6 10 -3 11 -74 -7z"/>
<path d="M3227 7583 c-4 -7 -20 -125 -22 -158 0 -20 -19 -30 -62 -33 -43 -3
-44 -3 -37 25 4 15 15 53 25 83 17 52 13 80 -9 66 -5 -3 -19 -43 -32 -90 l-23
-85 -36 -3 c-45 -4 -47 -22 -3 -26 27 -3 31 -7 27 -25 -29 -130 -30 -137 -11
-137 8 0 18 22 26 63 19 99 17 95 64 99 42 3 43 2 35 -20 -5 -13 -7 -27 -4
-32 3 -5 1 -10 -4 -12 -5 -1 -11 -16 -13 -33 -5 -47 25 -44 46 4 10 22 32 52
49 68 l30 28 -7 -25 c-14 -56 -18 -108 -8 -114 11 -7 27 37 38 104 8 50 -16
71 -56 48 l-28 -16 14 52 c8 28 17 69 19 91 3 22 6 49 8 59 2 19 -17 34 -26
19z"/>
<path d="M8175 7518 c-15 -40 -45 -108 -67 -150 -21 -43 -38 -82 -38 -88 0
-19 28 -10 43 14 9 13 30 34 46 45 l30 22 -16 -46 c-11 -34 -12 -50 -5 -57 8
-8 17 2 32 36 35 82 21 119 -33 91 -24 -12 -24 -11 13 69 48 101 57 136 38
136 -9 0 -26 -29 -43 -72z"/>
<path d="M13185 7575 c-22 -8 -59 -14 -82 -14 -31 -1 -43 -5 -43 -16 0 -15 21
-20 70 -16 25 1 25 1 5 -15 -11 -8 -31 -23 -44 -33 -34 -25 -22 -56 19 -48 35
8 75 -20 65 -45 -4 -9 -24 -28 -46 -43 -50 -33 -102 -32 -107 2 -4 27 -32 20
-32 -7 0 -31 28 -50 74 -50 34 0 53 8 89 35 26 20 49 46 53 59 8 33 -12 66
-47 78 l-30 10 65 44 c92 62 88 91 -9 59z"/>
<path d="M5880 7555 c0 -21 -22 -83 -82 -226 -15 -34 13 -79 49 -79 31 0 99
65 108 103 12 48 -28 72 -77 46 -19 -10 -20 -9 -13 7 25 62 54 157 49 165 -11
19 -34 9 -34 -16z m50 -181 c0 -15 -43 -75 -60 -84 -27 -14 -30 -13 -30 14 0
15 12 34 31 50 28 24 59 34 59 20z"/>
<path d="M13725 7560 c-11 -18 2 -24 67 -35 34 -5 63 -15 65 -20 2 -6 -11 -35
-29 -65 -25 -42 -40 -56 -62 -60 -31 -5 -49 -30 -22 -30 21 0 20 -3 -9 -58
-25 -47 -33 -92 -16 -92 5 0 25 33 44 74 l35 75 49 6 c65 9 73 12 73 30 0 17
-2 18 -51 6 l-36 -8 33 64 c50 95 51 94 -60 108 -27 4 -54 9 -61 11 -7 3 -16
0 -20 -6z"/>
<path d="M6637 7499 c-15 -22 -27 -45 -27 -50 0 -5 -13 -9 -30 -9 -20 0 -30
-5 -30 -15 0 -9 9 -15 21 -15 16 0 19 -4 14 -17 -29 -68 -7 -123 50 -123 43 0
85 19 85 38 0 10 -6 12 -22 7 -83 -26 -109 -10 -88 54 12 36 16 39 59 45 49 6
91 29 79 42 -4 4 -28 1 -53 -6 -25 -7 -48 -11 -50 -8 -3 3 8 23 24 45 16 23
27 44 24 47 -14 14 -31 4 -56 -35z"/>
<path d="M14632 7498 c-17 -62 -26 -73 -48 -59 -18 10 -18 11 4 17 26 7 30 34
5 34 -50 0 -115 -83 -115 -146 0 -18 8 -46 17 -62 17 -28 17 -30 -8 -68 -13
-21 -28 -52 -31 -67 -6 -24 -4 -28 11 -25 10 2 19 12 21 23 2 11 16 39 30 62
23 36 32 43 58 43 43 0 94 48 94 87 0 15 -9 39 -19 52 -18 24 -18 25 0 65 10
23 19 51 19 64 0 38 -25 24 -38 -20z m-50 -95 c4 -2 -5 -28 -19 -58 -21 -42
-30 -52 -40 -43 -31 26 0 123 35 111 9 -3 20 -8 24 -10z m58 -64 c0 -22 -38
-59 -61 -59 -15 0 -13 6 9 49 20 38 30 47 39 39 7 -6 13 -19 13 -29z"/>
<path d="M4468 7465 c-16 -35 -28 -69 -28 -75 0 -5 -9 -10 -19 -10 -26 0 -36
-16 -16 -27 13 -8 13 -14 -2 -59 -27 -84 0 -131 66 -118 42 9 42 36 0 32 -44
-4 -56 17 -38 73 13 41 17 44 52 47 29 3 37 7 37 23 0 18 -4 20 -30 14 -16 -4
-30 -3 -30 1 0 4 16 40 35 80 41 84 41 84 18 84 -12 0 -27 -21 -45 -65z"/>
<path d="M8380 7483 c-30 -73 -35 -78 -69 -81 -38 -4 -44 -32 -6 -32 30 0 29
2 9 -45 -15 -37 -16 -74 -1 -78 4 -1 18 27 30 63 21 61 25 65 57 70 40 6 51
37 12 32 -25 -2 -25 5 4 77 17 41 17 41 -1 41 -9 0 -24 -20 -35 -47z"/>
<path d="M2187 7513 c-10 -18 -57 -202 -57 -227 0 -27 2 -27 -99 -30 -27 -1
-40 -23 -19 -31 25 -9 261 19 266 33 3 9 -13 12 -57 12 -73 0 -71 -6 -34 131
19 70 23 103 16 110 -6 6 -13 7 -16 2z"/>
<path d="M14253 7495 c-50 -23 -63 -37 -45 -49 5 -3 31 6 58 19 96 48 97 23 2
-86 -39 -45 -53 -55 -73 -51 -19 3 -28 -3 -44 -29 -23 -37 -27 -69 -10 -69 6
0 24 9 39 20 29 20 29 20 39 1 23 -43 129 -47 145 -6 7 19 -13 30 -27 16 -19
-19 -74 -13 -91 10 -14 21 -12 25 40 83 67 74 88 110 80 142 -8 31 -43 31
-113 -1z"/>
<path d="M14985 7509 c-27 -13 -67 -85 -63 -114 2 -16 -8 -35 -30 -58 -58 -60
-73 -145 -29 -168 46 -25 163 46 194 118 18 44 17 102 -2 109 -13 5 -12 10 5
34 24 34 26 76 4 84 -22 8 -56 6 -79 -5z m65 -37 c0 -14 -54 -59 -77 -65 -30
-7 -29 4 3 42 24 29 74 44 74 23z m-11 -108 c11 -10 -14 -79 -40 -108 -30 -34
-103 -71 -120 -61 -17 11 -9 70 14 97 41 50 99 89 121 82 12 -4 23 -8 25 -10z"/>
<path d="M8597 7503 c-2 -5 -9 -27 -17 -50 -8 -26 -20 -43 -32 -46 -14 -4 -18
-11 -14 -25 4 -10 -3 -39 -14 -63 -24 -53 -25 -79 -5 -79 8 0 15 5 15 11 0 6
12 38 26 70 24 53 29 58 64 64 39 7 69 29 52 39 -5 3 -24 1 -41 -4 -29 -8 -32
-7 -25 8 13 30 17 82 6 82 -6 0 -13 -3 -15 -7z"/>
<path d="M13513 7479 c-24 -11 -43 -24 -43 -29 0 -20 21 -20 59 0 54 27 63 26
50 -7 -16 -43 -57 -91 -92 -109 -45 -23 -87 -64 -87 -86 0 -25 15 -23 56 8 34
26 34 26 34 5 0 -55 41 -77 93 -50 47 25 44 56 -3 32 -17 -8 -38 -12 -46 -9
-24 9 -9 72 31 127 86 116 62 170 -52 118z"/>
<path d="M4695 7480 c-10 -16 4 -62 17 -58 16 6 16 60 1 65 -6 2 -14 -1 -18
-7z"/>
<path d="M6120 7475 c0 -9 5 -15 11 -13 6 2 11 8 11 13 0 5 -5 11 -11 13 -6 2
-11 -4 -11 -13z"/>
<path d="M14777 7463 c-4 -3 -7 -17 -7 -30 0 -13 -11 -51 -25 -84 -30 -70 -37
-134 -16 -134 8 0 15 12 17 27 1 15 17 65 35 112 17 46 29 91 26 100 -7 17
-19 21 -30 9z"/>
<path d="M6204 7394 c-28 -29 -34 -43 -34 -78 0 -69 49 -96 110 -61 22 13 23
14 5 15 l-20 1 20 10 c17 8 16 8 -5 3 -47 -12 -74 -9 -78 6 -2 10 5 16 20 17
53 4 105 75 78 107 -22 27 -60 19 -96 -20z m74 -11 c-3 -18 -67 -57 -77 -48
-7 8 51 65 67 65 7 0 12 -8 10 -17z"/>
<path d="M9018 7415 c-36 -20 -43 -53 -24 -100 9 -20 13 -41 10 -46 -9 -15
-44 -10 -50 6 -8 19 -34 20 -34 1 0 -38 58 -58 101 -36 23 13 24 38 4 87 -18
44 -7 63 41 66 18 2 29 8 29 17 0 21 -44 23 -77 5z"/>
<path d="M3419 7362 c-45 -45 -48 -51 -44 -88 8 -61 14 -73 40 -80 26 -6 104
26 126 52 24 29 -5 35 -41 9 -19 -13 -46 -26 -60 -27 -22 -3 -25 1 -28 30 -2
17 0 32 5 33 26 2 46 9 57 19 20 16 39 67 32 85 -10 27 -37 16 -87 -33z m41
-17 c-7 -8 -17 -15 -23 -15 -5 0 -2 9 8 20 21 23 35 19 15 -5z"/>
<path d="M6384 7398 c-26 -12 -44 -48 -44 -88 0 -55 75 -80 121 -39 l24 20
-38 -6 c-21 -3 -47 -3 -57 0 -38 12 -17 83 25 89 23 3 27 30 5 33 -8 1 -25 -3
-36 -9z"/>
<path d="M8737 7381 c-19 -17 -48 -59 -64 -93 -40 -85 -78 -196 -70 -204 12
-13 32 15 71 98 36 77 41 84 64 80 35 -7 88 25 103 61 10 24 10 34 -2 56 -21
38 -59 39 -102 2z m77 -17 c12 -32 -38 -82 -70 -70 -20 8 -9 45 20 68 26 22
42 23 50 2z"/>
<path d="M4206 7364 c-22 -23 -44 -63 -62 -112 -15 -42 -39 -107 -55 -145 -17
-43 -23 -69 -17 -73 13 -9 37 22 78 102 22 43 39 64 55 68 46 12 115 97 115
143 0 24 -34 53 -62 53 -9 0 -33 -16 -52 -36z m73 -3 c8 -5 11 -16 6 -30 -8
-26 -51 -78 -76 -91 -17 -10 -18 -7 -15 30 2 28 12 50 32 71 30 32 33 33 53
20z"/>
<path d="M5171 7382 c-24 -10 -46 -22 -48 -28 -2 -6 11 -28 28 -50 27 -34 28
-39 13 -43 -9 -1 -21 4 -26 13 -10 17 -38 11 -38 -10 0 -29 74 -46 98 -22 18
18 15 33 -13 66 -14 17 -25 32 -25 35 0 3 13 8 30 12 16 4 33 11 36 17 13 21
-13 26 -55 10z"/>
<path d="M10090 7356 c-32 -48 -37 -75 -18 -94 15 -15 40 -15 73 0 33 15 36
69 4 91 -13 9 -16 17 -10 22 16 9 13 25 -4 25 -8 0 -28 -20 -45 -44z m50 -46
c0 -18 -36 -38 -47 -26 -4 3 -1 17 7 30 14 27 40 24 40 -4z"/>
<path d="M10402 7365 c-40 -42 -92 -80 -92 -67 0 5 11 25 24 45 13 19 22 38
18 41 -13 13 -28 4 -51 -32 -33 -50 -92 -112 -107 -112 -20 0 -25 -17 -10 -29
11 -10 21 -6 48 18 22 19 42 28 54 25 12 -3 36 7 62 25 23 17 43 31 45 31 2 0
1 -15 -1 -34 -5 -39 21 -58 38 -26 7 13 6 20 -2 22 -8 3 -3 22 14 58 15 30 24
58 22 62 -10 16 -31 7 -62 -27z"/>
<path d="M2357 7384 c-3 -4 -4 -19 -1 -33 4 -18 -1 -39 -15 -62 -25 -42 -26
-49 -3 -49 9 0 37 23 62 52 l45 52 10 -38 c14 -47 31 -43 28 8 -2 51 -15 63
-53 49 -26 -10 -30 -9 -35 8 -6 19 -26 25 -38 13z"/>
<path d="M5680 7372 c-67 -33 -60 -112 10 -112 47 0 84 66 60 109 -13 26 -25
26 -70 3z m41 -55 c-9 -24 -37 -35 -52 -20 -15 15 0 41 24 45 31 6 37 0 28
-25z"/>
<path d="M9951 7364 c-6 -14 -26 -43 -43 -64 l-32 -38 -18 39 c-17 38 -42 58
-56 45 -3 -4 -1 -15 6 -24 6 -9 19 -32 27 -51 15 -34 15 -35 -24 -85 -45 -61
-83 -131 -74 -140 13 -12 21 -5 43 37 25 46 58 92 136 182 71 83 91 125 61
125 -8 0 -19 -12 -26 -26z"/>
<path d="M7548 7365 c-29 -16 -68 -73 -68 -99 0 -27 27 -18 40 13 17 43 47 66
81 63 27 -2 29 -1 19 18 -13 23 -34 25 -72 5z"/>
<path d="M4935 7336 c-17 -17 -25 -20 -25 -11 0 28 -18 15 -44 -31 -14 -26
-26 -50 -26 -55 0 -20 28 -7 65 31 21 22 43 40 47 40 5 0 7 -19 6 -42 -2 -32
1 -43 13 -46 12 -2 16 7 18 40 1 24 3 54 4 68 3 34 -26 37 -58 6z"/>
<path d="M4013 7339 c-28 -10 -52 -48 -60 -91 -4 -29 -1 -38 21 -56 23 -17 32
-19 57 -10 44 15 75 90 51 123 -21 29 -48 42 -69 34z m45 -62 c6 -29 -26 -69
-51 -65 -17 2 -22 9 -20 31 1 16 7 35 14 43 16 20 53 14 57 -9z"/>
<path d="M6051 7288 c-15 -73 -52 -151 -82 -172 -28 -19 -35 -15 -43 29 -4 19
-13 35 -20 35 -17 0 -29 -27 -16 -35 6 -4 10 -14 10 -24 0 -10 9 -26 20 -36
19 -17 23 -17 53 -3 37 18 82 92 103 172 17 64 18 96 1 96 -8 0 -18 -24 -26
-62z"/>
<path d="M4612 7307 c-15 -42 -16 -80 -1 -75 6 2 17 22 25 43 21 57 21 58 4
62 -10 2 -20 -8 -28 -30z"/>
<path d="M4730 7288 c-13 -30 -16 -47 -9 -60 13 -25 28 -23 61 9 33 31 36 68
9 83 -32 17 -41 12 -61 -32z m40 -19 c-7 -11 -14 -19 -16 -16 -7 7 7 37 17 37
6 0 5 -9 -1 -21z"/>
<path d="M13264 7269 c-3 -6 -1 -16 4 -21 13 -13 45 8 36 23 -7 12 -31 11 -40
-2z"/>
<path d="M9216 7187 c-7 -19 -26 -44 -42 -56 -22 -17 -25 -24 -15 -34 17 -17
91 62 91 98 0 35 -17 31 -34 -8z"/>
<path d="M13918 7204 c-39 -21 -36 -38 4 -30 38 7 53 20 44 35 -9 14 -15 13
-48 -5z"/>
<path d="M7603 7098 c-4 -7 -12 -20 -18 -29 -70 -111 -74 -114 -123 -119 -33
-4 -47 -9 -47 -20 0 -11 9 -14 37 -12 l38 4 -15 -29 c-21 -40 -19 -90 4 -102
27 -15 117 -2 136 19 18 20 3 39 -18 22 -7 -5 -31 -12 -55 -15 -51 -6 -59 5
-42 57 14 44 22 49 74 49 70 -1 89 33 20 35 -20 1 -38 3 -40 5 -2 2 14 28 36
57 22 30 40 59 40 66 0 19 -17 26 -27 12z"/>
<path d="M5316 7043 c-3 -3 -6 -14 -6 -24 0 -10 -18 -59 -40 -109 -43 -97 -49
-130 -25 -130 8 0 19 16 25 40 12 45 48 70 100 70 40 0 47 -20 25 -75 -15 -42
-14 -65 4 -65 13 0 44 109 37 133 -3 13 -19 30 -37 38 l-31 15 61 49 c37 29
58 52 52 58 -12 12 -37 -2 -102 -58 -55 -46 -68 -51 -50 -17 20 37 9 97 -13
75z"/>
<path d="M8919 7001 c-40 -95 -54 -115 -78 -121 -31 -7 -40 -30 -12 -30 25 0
25 1 5 -49 -17 -42 -16 -92 2 -98 7 -2 13 14 17 39 3 24 12 60 21 81 13 30 22
37 44 37 15 0 33 4 41 9 22 14 3 32 -26 25 -23 -6 -25 -5 -18 17 4 13 16 41
26 61 21 41 24 64 9 73 -5 3 -19 -17 -31 -44z"/>
<path d="M9046 7043 c-3 -3 -6 -16 -6 -28 0 -25 -13 -61 -60 -174 -38 -92 -29
-109 31 -57 50 42 59 44 59 13 0 -29 34 -62 55 -54 21 9 19 24 -5 37 -15 8
-18 17 -13 40 7 38 -14 48 -58 26 -18 -9 -34 -15 -35 -13 -2 2 10 35 26 73 29
68 38 128 21 138 -4 3 -11 3 -15 -1z"/>
<path d="M10217 7043 c-10 -16 -57 -164 -57 -178 0 -8 -4 -15 -9 -15 -15 0
-44 -91 -33 -102 8 -8 15 -8 24 0 9 7 19 7 28 2 69 -44 171 50 112 103 -20 19
-77 23 -87 7 -3 -5 -10 -10 -15 -10 -5 0 -1 15 10 33 28 48 54 147 42 159 -5
5 -12 6 -15 1z m50 -218 c13 -35 -50 -69 -85 -46 -10 6 -8 14 10 34 25 29 65
36 75 12z"/>
<path d="M3769 7004 c-10 -13 -10 -17 0 -24 11 -6 10 -18 -4 -61 -10 -30 -23
-65 -30 -79 -7 -14 -15 -37 -19 -51 -5 -23 -1 -29 29 -43 33 -16 37 -16 78 2
30 13 48 29 56 50 28 66 -6 110 -61 79 -17 -10 -32 -16 -34 -14 -2 2 4 26 13
54 15 48 12 103 -6 103 -5 0 -14 -7 -22 -16z m91 -170 c0 -24 -47 -64 -75 -64
-37 0 -31 24 17 59 41 31 58 32 58 5z"/>
<path d="M4053 6964 c-9 -23 11 -38 26 -20 13 16 7 36 -10 36 -5 0 -12 -7 -16
-16z"/>
<path d="M8764 6949 c-10 -17 13 -36 27 -22 12 12 4 33 -11 33 -5 0 -12 -5
-16 -11z"/>
<path d="M2111 6924 c-17 -14 -31 -21 -31 -15 0 6 -6 11 -13 11 -12 0 -47 -98
-47 -130 0 -20 28 -9 34 13 6 26 73 107 88 107 10 0 8 -18 -7 -67 -11 -35 10
-28 55 17 50 50 74 53 67 8 -5 -36 8 -72 24 -63 5 4 9 28 9 54 0 34 -5 53 -19
65 -18 16 -22 16 -49 2 -28 -14 -30 -14 -35 4 -7 28 -39 25 -76 -6z"/>
<path d="M4448 6928 c-50 -41 -73 -133 -45 -173 11 -15 23 -17 62 -13 54 7 97
40 78 59 -9 9 -16 8 -28 -5 -20 -19 -59 -30 -80 -22 -9 3 -15 18 -15 35 0 24
6 31 38 44 20 8 45 24 55 35 44 48 -14 83 -65 40z m52 -13 c0 -2 -10 -10 -22
-16 -21 -11 -22 -11 -9 4 13 16 31 23 31 12z"/>
<path d="M6910 6942 c-31 -11 -122 -84 -132 -108 -24 -52 22 -94 103 -94 55 0
47 22 -11 32 -59 10 -78 29 -58 57 14 20 92 81 104 81 3 0 2 -4 -1 -10 -9 -15
4 -30 20 -23 18 6 20 59 3 65 -7 3 -20 3 -28 0z"/>
<path d="M10509 6914 c-36 -36 -37 -36 -63 -19 -21 14 -32 15 -49 7 -21 -10
-22 -10 -2 -17 47 -18 48 -27 6 -66 -23 -21 -41 -46 -41 -58 0 -11 2 -21 5
-21 3 0 26 21 50 47 l46 47 20 -33 c27 -45 48 -28 24 20 l-17 32 41 35 c40 33
53 62 28 62 -7 0 -29 -16 -48 -36z"/>
<path d="M3182 6932 c-25 -4 -62 -66 -62 -104 0 -29 26 -68 46 -68 8 0 14 9
14 21 0 11 4 18 9 14 5 -3 12 -1 16 5 4 6 -6 10 -24 10 -36 0 -39 15 -16 60
11 21 23 30 40 30 15 0 25 6 25 14 0 17 -17 23 -48 18z"/>
<path d="M2660 6922 c0 -4 -15 -32 -34 -62 l-35 -55 -21 48 c-19 42 -50 65
-50 37 0 -14 29 -71 46 -90 11 -13 5 -29 -42 -110 -30 -51 -56 -103 -57 -113
-3 -27 20 -33 28 -7 4 11 39 74 78 141 116 193 119 198 112 209 -7 12 -25 13
-25 2z"/>
<path d="M5532 6913 c-59 -29 -78 -140 -26 -160 21 -8 104 13 123 32 7 7 10
18 6 25 -4 7 -10 8 -14 3 -3 -5 -26 -15 -50 -22 -34 -10 -46 -10 -55 -1 -8 9
-8 14 1 17 7 2 27 14 45 26 65 44 39 114 -30 80z m28 -39 c-19 -22 -55 -41
-45 -22 16 28 28 38 42 38 13 0 13 -3 3 -16z"/>
<path d="M4165 6859 c-21 -42 -26 -62 -18 -70 8 -8 18 0 38 28 31 43 73 78 82
69 3 -3 -1 -24 -10 -47 -16 -40 -15 -59 3 -59 13 0 42 84 38 111 -3 21 -8 24
-53 25 l-50 2 -30 -59z"/>
<path d="M7078 6900 c-134 -71 -82 -204 57 -146 46 19 47 41 3 31 -18 -5 -49
-8 -68 -9 -28 -1 -36 3 -38 20 -2 11 6 32 18 45 12 14 18 17 14 7 -3 -10 2
-20 15 -28 18 -9 25 -7 46 14 28 28 33 71 9 80 -19 7 -12 9 -56 -14z m29 -37
c-9 -9 -20 -13 -24 -9 -4 4 -1 11 7 16 25 16 35 11 17 -7z"/>
<path d="M7231 6899 c-25 -27 -55 -105 -47 -125 9 -22 23 -9 36 34 20 63 38
84 60 72 26 -14 39 9 15 27 -26 18 -41 16 -64 -8z"/>
<path d="M3320 6895 c-32 -39 -30 -115 4 -115 22 0 65 42 67 65 4 57 0 65 -32
63 -16 -1 -34 -7 -39 -13z m40 -39 c0 -2 -3 -11 -6 -20 -9 -23 -24 -20 -24 4
0 11 7 20 15 20 8 0 15 -2 15 -4z"/>
<path d="M3460 6885 c-5 -14 -10 -29 -10 -33 0 -3 -10 -16 -22 -29 -16 -17
-19 -26 -11 -34 12 -12 55 12 83 46 19 23 30 18 30 -15 0 -34 19 -41 27 -10 3
11 10 20 17 20 6 0 20 3 31 6 17 4 20 0 20 -25 0 -43 18 -40 29 5 7 31 6 39
-10 51 -20 15 -53 8 -71 -16 -7 -9 -13 -11 -13 -5 0 5 -6 18 -13 28 -11 16
-17 17 -36 7 -19 -11 -22 -10 -19 5 5 28 -21 28 -32 -1z"/>
<path d="M5673 6894 c-17 -13 -17 -14 3 -20 12 -3 30 -25 43 -51 l22 -46 -24
-36 c-35 -53 -77 -138 -77 -156 0 -28 26 -15 38 19 7 19 46 90 87 158 41 67
75 129 75 136 0 27 -26 9 -49 -33 -13 -25 -27 -45 -31 -45 -4 0 -15 18 -25 39
-20 46 -36 55 -62 35z"/>
<path d="M8376 6889 c-53 -28 -34 -49 23 -25 23 9 41 12 41 8 0 -4 -16 -27
-35 -51 -19 -24 -35 -50 -35 -57 0 -20 34 -17 72 5 35 22 48 19 48 -9 0 -45
59 -36 88 12 11 18 22 45 26 61 6 24 4 27 -19 27 -22 0 -25 -3 -19 -24 4 -16
-2 -32 -19 -52 l-25 -28 -7 32 c-9 41 -18 46 -55 27 l-30 -15 26 37 c13 20 23
44 22 52 -5 24 -57 24 -102 0z"/>
<path d="M9950 6885 c-25 -14 -49 -26 -55 -29 -6 -3 -4 -8 4 -14 10 -7 11 -14
2 -31 -7 -12 -11 -27 -10 -34 2 -6 -12 -43 -29 -82 -30 -64 -36 -105 -12 -90
5 3 21 30 35 59 22 47 28 53 50 48 46 -8 75 7 105 55 31 49 38 90 20 124 -14
26 -54 23 -110 -6z m86 -20 c15 -38 -39 -125 -77 -125 -40 0 -34 38 18 108 26
34 50 41 59 17z"/>
<path d="M2360 6865 c-33 -35 -18 -60 36 -60 27 0 44 -6 56 -20 19 -22 19 -23
23 23 3 41 -30 82 -67 82 -13 0 -35 -11 -48 -25z m64 -14 c6 -10 -16 -21 -41
-21 -13 0 -13 3 -3 15 14 17 36 20 44 6z"/>
<path d="M4000 6831 c-15 -30 -13 -71 5 -71 9 0 15 9 15 23 0 13 5 28 11 34
12 12 4 33 -11 33 -5 0 -14 -9 -20 -19z"/>
<path d="M8683 6808 c-7 -24 -8 -47 -3 -52 10 -10 40 44 40 74 0 36 -26 21
-37 -22z"/>
<path d="M6240 6807 c0 -7 -13 -31 -30 -53 -30 -40 -36 -59 -21 -68 10 -7 81
95 81 117 0 9 -7 17 -15 17 -8 0 -15 -6 -15 -13z"/>
<path d="M10638 6804 c-12 -11 5 -44 23 -44 20 0 23 8 13 34 -6 16 -25 21 -36
10z"/>
<path d="M4573 6328 c-47 -34 -91 -106 -124 -203 -16 -49 -29 -94 -29 -102 0
-7 -7 -13 -15 -13 -8 0 -15 -4 -15 -9 0 -5 -9 -7 -20 -4 -14 4 -20 0 -20 -12
0 -13 6 -16 25 -13 31 6 31 -3 0 -70 -14 -30 -23 -58 -20 -63 13 -20 33 6 60
76 26 70 30 75 57 75 16 0 38 5 49 10 23 13 23 10 4 -37 -28 -67 -15 -103 37
-103 42 0 68 32 68 83 0 50 -26 83 -60 74 -11 -3 -20 -1 -20 5 0 6 -19 7 -50
3 -27 -4 -50 -5 -50 -3 0 1 11 38 24 80 29 95 66 159 110 193 38 29 49 31 66
10 12 -15 30 -12 30 5 0 16 -31 40 -53 40 -12 0 -36 -10 -54 -22z m25 -377 c4
-37 -12 -61 -39 -61 -24 0 -25 30 -3 71 19 37 38 33 42 -10z"/>
<path d="M2105 6266 c-33 -18 -61 -40 -63 -49 -5 -25 9 -21 74 18 73 44 147
49 182 12 12 -13 22 -34 22 -46 0 -29 -70 -101 -98 -101 -11 0 -28 -3 -36 -6
-14 -5 -15 -2 -6 22 6 15 8 34 5 42 -8 22 -32 -3 -39 -42 -6 -29 -12 -35 -41
-40 -41 -8 -49 -36 -10 -36 29 0 30 -2 10 -66 -8 -27 -15 -66 -15 -87 0 -61
22 -40 36 34 17 88 30 120 48 113 24 -9 41 -66 39 -131 -1 -47 2 -63 12 -63
35 0 27 138 -11 198 -14 21 -13 23 11 32 15 6 29 10 32 10 2 0 17 9 31 21 68
53 81 121 33 170 -26 26 -36 29 -93 29 -53 0 -73 -6 -123 -34z"/>
<path d="M3460 6267 c0 -27 -30 -119 -54 -165 -13 -25 -23 -32 -46 -32 -37 0
-80 -16 -80 -31 0 -7 16 -9 50 -4 l49 7 -26 -72 c-20 -53 -23 -74 -15 -82 12
-12 16 -4 56 105 10 27 26 51 35 53 48 15 73 51 29 42 l-24 -5 24 61 c33 80
41 146 18 146 -10 0 -16 -8 -16 -23z"/>
<path d="M4850 6223 c-7 -21 -29 -78 -50 -128 -60 -142 -86 -240 -71 -264 13
-20 28 -6 29 27 1 41 30 135 64 211 31 68 68 168 68 183 0 4 -6 8 -14 8 -8 0
-20 -17 -26 -37z"/>
<path d="M4963 6252 c-6 -4 -13 -25 -15 -47 -2 -22 -6 -42 -10 -45 -6 -5 -32
-69 -84 -214 -14 -38 -24 -76 -22 -85 5 -26 31 -18 34 11 1 15 26 89 54 164
28 75 49 142 46 150 -3 8 -2 14 3 14 12 0 22 43 13 52 -4 4 -12 4 -19 0z"/>
<path d="M3525 6154 c-8 -20 -15 -41 -15 -46 0 -10 -65 -170 -82 -202 -7 -13
-6 -22 2 -30 12 -12 14 -9 92 84 20 25 40 41 44 37 5 -4 0 -32 -11 -63 -14
-41 -16 -57 -7 -66 12 -12 22 6 48 91 22 69 -14 94 -72 49 -26 -21 -27 -21
-20 -3 28 69 62 175 58 180 -12 12 -23 3 -37 -31z"/>
<path d="M5542 6114 c1 -9 9 -19 16 -22 9 -3 13 2 10 14 -1 9 -9 19 -16 22 -9
3 -13 -2 -10 -14z"/>
<path d="M6437 6072 c-9 -10 -17 -24 -17 -31 0 -20 44 -8 48 13 6 28 -12 39
-31 18z"/>
<path d="M3735 6044 c-14 -15 -28 -38 -31 -51 -4 -15 -12 -22 -20 -19 -17 7
-18 -16 -2 -47 6 -12 14 -29 18 -37 10 -21 67 -21 93 1 28 22 15 36 -18 21
-14 -7 -32 -12 -40 -12 -24 0 -17 25 9 40 29 15 49 57 44 96 -4 38 -23 41 -53
8z m15 -54 c-6 -12 -14 -19 -17 -17 -2 3 1 15 7 27 6 12 14 19 17 17 2 -3 -1
-15 -7 -27z"/>
<path d="M5032 6044 c-33 -22 -82 -114 -82 -151 0 -41 33 -53 79 -29 44 23 64
68 56 124 -12 78 -16 82 -53 56z m27 -87 c1 -10 -12 -32 -28 -48 -58 -58 -69
-25 -19 61 30 52 32 54 39 30 4 -14 7 -33 8 -43z"/>
<path d="M5244 6034 c5 -14 4 -15 -8 -5 -19 16 -85 -14 -67 -32 7 -7 18 -7 37
2 15 6 28 10 30 8 2 -1 -10 -23 -26 -47 -31 -47 -39 -90 -17 -90 7 0 29 11 50
25 l37 26 10 -26 c13 -34 52 -34 79 1 20 26 44 94 36 102 -10 10 -35 -9 -35
-27 0 -25 -49 -84 -50 -59 0 9 -7 24 -16 33 -15 14 -19 14 -51 -6 l-34 -21 31
51 c32 52 34 81 4 81 -11 0 -14 -5 -10 -16z"/>
<path d="M2402 5977 c-28 -50 -62 -85 -108 -113 -14 -9 -16 -15 -8 -23 8 -9
21 -6 50 11 22 13 50 21 67 19 19 -2 37 5 52 19 l23 22 -1 -34 c-2 -23 2 -33
13 -33 8 0 16 9 17 20 1 11 5 39 9 63 8 54 -9 56 -56 7 -19 -19 -38 -35 -42
-35 -8 0 19 79 34 95 13 14 10 35 -6 35 -8 0 -28 -24 -44 -53z"/>
<path d="M5621 5985 c-21 -19 -43 -35 -48 -35 -15 0 -34 -63 -22 -75 8 -7 14
-4 23 10 6 11 31 40 56 65 42 43 45 44 48 22 2 -13 -4 -32 -12 -41 -18 -20
-12 -51 9 -51 12 0 25 30 38 86 6 29 -10 54 -33 54 -11 0 -37 -16 -59 -35z"/>
<path d="M2632 5998 c-7 -7 -12 -19 -12 -27 0 -9 -9 -31 -20 -49 -43 -70 -12
-71 48 -2 55 64 70 65 68 3 -1 -61 17 -68 27 -11 14 82 -14 116 -64 79 -26
-20 -27 -20 -22 -1 6 22 -7 26 -25 8z"/>
<path d="M5806 5965 c-27 -24 -37 -41 -34 -57 3 -20 8 -23 48 -22 25 0 52 3
61 8 14 6 15 1 1 -64 -12 -55 -19 -70 -33 -70 -42 0 -98 -32 -113 -65 -40 -83
-2 -162 60 -127 24 13 69 84 80 126 5 20 11 25 23 21 68 -26 101 -7 35 21 -35
15 -35 16 -29 57 4 23 16 69 26 102 30 96 28 101 -34 103 -48 1 -58 -2 -91
-33z m93 -4 c11 -7 7 -14 -20 -30 -19 -12 -45 -21 -58 -21 l-25 0 29 30 c30
31 49 36 74 21z m-49 -243 c-1 -23 -37 -93 -58 -111 -37 -33 -55 6 -32 68 13
34 90 71 90 43z"/>
<path d="M5460 5954 c-15 -38 -12 -74 5 -74 8 0 15 8 15 19 0 10 3 33 6 50 8
38 -12 43 -26 5z"/>
<path d="M6422 5908 c-17 -17 -15 -28 6 -28 19 0 42 18 42 32 0 12 -35 9 -48
-4z"/>
<path d="M4145 5550 c-10 -16 5 -104 18 -112 9 -6 9 -8 0 -8 -7 0 -13 -11 -13
-24 0 -19 -8 -27 -36 -36 -87 -29 -99 -145 -18 -183 31 -15 34 -20 33 -59 0
-24 -3 -60 -7 -81 l-7 -37 -32 22 c-26 19 -31 29 -30 57 3 49 -16 48 -31 -1
-13 -40 -12 -42 15 -64 15 -13 39 -28 53 -34 23 -10 25 -15 23 -78 -1 -37 -4
-80 -7 -97 -7 -36 11 -85 31 -85 10 0 13 9 9 33 -8 45 -8 62 -7 140 1 64 2 67
25 67 39 0 86 62 86 113 0 48 -29 102 -60 112 -19 6 -21 13 -18 73 3 71 20 91
39 48 7 -14 18 -26 26 -26 30 0 2 68 -34 81 -28 9 -28 10 -25 87 3 60 0 81
-11 91 -11 9 -17 9 -22 1z m-3 -275 c-2 -36 -5 -65 -7 -65 -12 0 -55 24 -55
31 0 4 -2 13 -5 21 -7 19 32 78 52 78 16 0 18 -8 15 -65z m74 -177 c5 -28 1
-43 -17 -67 -40 -54 -52 -42 -44 47 4 42 10 81 12 86 10 15 44 -30 49 -66z"/>
<path d="M8439 5291 c-26 -59 -36 -71 -55 -71 -31 0 -30 8 2 20 29 11 23 30
-10 30 -26 0 -80 -53 -95 -93 -14 -37 -14 -130 0 -144 9 -9 0 -32 -35 -90 -25
-43 -45 -85 -44 -93 4 -20 30 -19 34 2 1 9 19 45 41 80 35 58 40 63 70 60 60
-6 163 70 163 119 0 29 -18 61 -48 86 l-26 22 26 53 c33 67 36 79 21 85 -8 3
-25 -24 -44 -66z m-76 -149 c-16 -27 -36 -59 -45 -73 l-17 -24 0 47 c-1 74 12
98 54 98 l35 0 -27 -48z m91 23 c41 -41 24 -90 -44 -125 -58 -30 -106 -24 -67
8 7 6 26 38 42 72 30 62 43 71 69 45z"/>
<path d="M5966 5314 c-15 -15 -34 -41 -41 -58 -17 -41 -38 -181 -31 -204 4
-12 -3 -27 -19 -42 -25 -23 -34 -60 -16 -60 6 0 17 10 25 22 9 12 17 20 18 17
2 -2 13 -22 24 -44 27 -49 48 -64 72 -49 19 12 18 30 -2 26 -18 -3 -45 29 -55
66 -8 26 -4 37 26 78 71 99 101 202 73 255 -15 26 -40 24 -74 -7z m54 -49 c0
-18 -9 -55 -21 -82 -21 -49 -68 -118 -75 -110 -2 2 2 41 10 86 21 119 86 199
86 106z"/>
<path d="M10399 5284 c-11 -27 -34 -84 -50 -127 -16 -43 -34 -87 -40 -99 -13
-25 -3 -68 16 -68 10 0 15 11 15 35 0 40 28 71 73 81 34 7 61 -16 53 -45 -3
-9 -8 -37 -12 -63 -5 -38 -3 -48 8 -48 22 0 44 100 32 142 -7 25 -18 36 -43
44 l-32 10 38 35 c21 19 51 44 67 57 22 17 27 25 18 34 -14 14 -45 -8 -35 -25
4 -6 1 -7 -6 -2 -13 8 -54 -28 -44 -39 4 -3 -1 -6 -11 -6 -9 0 -28 -12 -42
-27 l-24 -28 20 55 c12 30 26 68 32 83 7 20 7 32 0 39 -8 8 -17 -2 -33 -38z"/>
<path d="M7982 5256 c-6 -22 -14 -49 -18 -60 -7 -17 -4 -18 39 -12 56 9 123
-8 137 -34 17 -31 12 -88 -9 -109 -29 -29 -92 -36 -151 -16 -28 9 -48 21 -45
26 4 5 -3 5 -17 0 -34 -12 -35 -39 -1 -46 15 -3 44 -10 64 -15 77 -21 151 -4
183 41 23 34 21 110 -4 142 -21 27 -74 47 -122 47 -16 0 -28 3 -28 8 1 23 23
32 90 36 53 3 75 9 75 18 0 10 -23 13 -91 14 l-90 2 -12 -42z"/>
<path d="M14147 5263 c-8 -16 -22 -59 -32 -98 -10 -38 -24 -77 -32 -86 -7 -9
-10 -19 -6 -23 5 -4 8 -26 8 -48 0 -60 21 -59 29 2 5 40 12 53 30 61 43 20 65
-2 68 -69 4 -74 22 -74 26 0 3 65 -10 98 -38 98 -36 0 -29 18 25 69 30 29 55
56 55 62 0 23 -30 5 -80 -48 -30 -31 -55 -52 -57 -47 -3 9 22 91 42 137 12 29
-23 20 -38 -10z"/>
<path d="M12649 5205 c-109 -112 -115 -136 -29 -119 57 12 55 15 36 -68 -8
-31 -11 -59 -8 -62 14 -15 32 -4 33 22 0 15 6 47 12 72 9 34 18 46 37 50 29 7
34 36 7 33 -17 -1 -18 4 -12 45 4 26 11 55 16 64 5 9 9 21 9 27 0 27 -33 5
-101 -64z m42 -35 c-6 -30 -12 -36 -51 -47 l-44 -13 49 50 c27 27 50 48 51 47
1 -1 -1 -18 -5 -37z"/>
<path d="M8580 5241 c-34 -33 -37 -52 -14 -75 18 -19 24 -19 58 -6 32 12 32
10 4 -93 -11 -44 -29 -88 -40 -99 -23 -23 -23 -37 0 -54 27 -21 42 -16 42 14
0 15 18 94 40 177 27 105 36 153 29 160 -8 7 -15 4 -23 -9 -36 -58 -77 -88
-91 -65 -8 11 31 44 53 44 25 0 21 29 -6 33 -14 2 -33 -7 -52 -27z"/>
<path d="M13060 5224 c-17 -27 -35 -49 -40 -48 -6 1 -16 2 -23 3 -8 0 -24 10
-37 21 -12 11 -26 18 -30 15 -3 -2 -21 -33 -40 -69 -37 -73 -37 -122 -1 -160
l21 -22 -26 -47 c-13 -26 -22 -52 -19 -58 10 -16 29 4 55 60 20 44 27 50 61
56 26 5 48 18 69 41 33 38 38 74 16 113 -12 22 -11 29 16 73 22 35 27 53 20
60 -8 8 -20 -4 -42 -38z m-62 -79 c2 -2 -12 -31 -32 -63 -20 -33 -36 -65 -36
-72 0 -23 -25 -3 -33 27 -7 23 -4 42 12 78 20 45 22 47 53 41 17 -3 33 -8 36
-11z m48 -50 c8 -31 -17 -72 -53 -86 -14 -5 -28 -7 -30 -5 -6 6 59 116 69 116
4 0 10 -11 14 -25z"/>
<path d="M13474 5238 c-41 -36 -84 -118 -84 -160 0 -36 17 -78 38 -94 29 -23
62 -16 99 21 30 30 33 37 23 56 -10 17 -19 20 -53 17 -23 -3 -50 -8 -59 -12
-25 -11 -23 16 3 74 23 51 56 90 76 90 7 0 13 9 13 20 0 28 -14 25 -56 -12z
m44 -199 c-2 -6 -16 -18 -31 -27 -20 -13 -29 -14 -38 -5 -9 9 -9 16 1 28 14
17 74 21 68 4z"/>
<path d="M15265 5234 c-8 -20 -15 -41 -15 -47 0 -6 -24 -8 -65 -5 -50 4 -65 3
-65 -8 0 -20 20 -28 67 -25 l43 2 -20 -43 c-24 -52 -25 -86 -4 -116 13 -19 24
-22 72 -21 72 1 107 11 107 29 0 8 -7 13 -15 11 -46 -12 -121 -12 -135 -1 -20
17 -19 32 6 91 l21 49 57 0 c56 0 92 12 78 26 -4 4 -32 6 -63 5 -51 -2 -56 0
-50 16 27 69 9 104 -19 37z"/>
<path d="M13223 5230 c-60 -36 -36 -97 27 -73 l28 10 -20 -73 c-19 -69 -19
-104 -1 -104 4 0 20 47 34 104 l26 104 -24 26 c-29 31 -29 31 -70 6z m57 -24
c0 -2 -14 -9 -31 -15 -27 -9 -30 -9 -19 4 11 13 50 22 50 11z"/>
<path d="M11822 5213 c-7 -3 -19 -18 -27 -34 -14 -26 -14 -32 0 -59 9 -16 19
-30 23 -30 5 0 17 -6 27 -14 16 -12 17 -16 6 -30 -19 -22 -48 -20 -54 4 -6 25
-24 26 -32 1 -14 -45 28 -68 83 -45 33 13 55 45 47 66 -3 7 -21 23 -40 36 -39
25 -46 56 -16 72 28 14 41 13 41 -6 0 -19 20 -14 34 9 8 13 7 20 -4 27 -16 10
-66 12 -88 3z"/>
<path d="M5732 5198 c-35 -17 -38 -51 -8 -105 24 -41 25 -48 12 -62 -13 -12
-20 -12 -42 -3 -16 8 -24 18 -20 27 8 21 -10 27 -25 8 -11 -13 -11 -17 -1 -20
6 -3 10 -9 7 -13 -8 -13 36 -40 66 -40 30 0 59 28 59 56 0 10 -12 37 -25 59
-31 50 -31 53 1 65 14 6 24 15 22 22 -6 17 -19 18 -46 6z"/>
<path d="M11608 5176 c-27 -24 -38 -41 -38 -62 0 -16 -7 -49 -16 -73 -10 -31
-12 -47 -4 -55 15 -15 24 0 49 79 20 65 51 124 51 97 0 -15 26 -16 35 -2 10
17 -5 50 -23 50 -9 -1 -34 -16 -54 -34z"/>
<path d="M5566 5188 c-22 -5 -45 -13 -53 -19 -22 -19 -15 -54 17 -84 26 -24
40 -55 26 -55 -2 0 -11 -3 -19 -6 -8 -3 -22 2 -31 11 -17 17 -36 12 -36 -9 0
-19 54 -40 83 -32 20 5 47 41 47 63 0 3 -17 21 -37 39 -42 38 -38 49 21 61 40
9 58 27 34 35 -7 3 -31 1 -52 -4z"/>
<path d="M4889 5162 c-63 -42 -77 -69 -113 -222 -23 -96 -22 -132 6 -138 19
-4 51 104 43 145 -4 23 -4 24 4 8 9 -19 10 -19 10 -1 1 14 6 17 25 12 32 -8
73 26 97 78 25 55 24 82 -6 111 -29 30 -32 30 -66 7z m59 -52 c4 -40 -38 -104
-71 -108 -26 -3 -27 -1 -27 39 0 33 6 49 27 71 34 35 67 34 71 -2z"/>
<path d="M5292 5148 c-19 -19 -22 -20 -22 -5 0 9 -7 17 -15 17 -8 0 -15 -9
-15 -20 0 -10 -9 -42 -20 -70 -19 -48 -19 -70 -1 -70 4 0 29 31 54 70 31 46
52 68 61 64 21 -8 27 -32 20 -80 -3 -25 -2 -44 4 -48 15 -9 22 7 28 61 5 40 2
53 -16 76 -26 33 -48 34 -78 5z"/>
<path d="M6498 5140 c-22 -26 -27 -42 -30 -98 -2 -54 0 -67 12 -67 11 0 17 16
21 57 7 65 34 117 52 99 14 -14 37 -14 37 0 0 15 -30 38 -50 39 -9 0 -28 -14
-42 -30z"/>
<path d="M9968 5143 c-27 -14 -48 -31 -48 -39 0 -18 8 -18 42 0 l27 14 -26
-53 c-43 -87 -17 -110 58 -50 50 40 59 42 59 16 0 -28 34 -65 53 -58 42 16
100 187 63 187 -10 0 -17 -13 -21 -37 -7 -42 -34 -111 -46 -119 -5 -3 -14 16
-20 41 -6 25 -15 48 -19 50 -5 3 -31 -13 -59 -35 -28 -22 -51 -38 -51 -35 0 3
14 31 30 62 48 90 40 101 -42 56z"/>
<path d="M10993 5153 c-5 -14 -75 -120 -100 -153 -10 -12 -27 34 -47 123 -4
15 -13 27 -21 27 -18 0 -18 4 -4 -62 6 -29 20 -69 31 -89 l20 -36 -35 -54
c-55 -86 -78 -139 -75 -167 5 -41 19 -32 32 18 11 41 111 208 192 321 33 45
45 89 24 89 -6 0 -14 -8 -17 -17z"/>
<path d="M7654 5149 c-4 -7 0 -17 8 -23 8 -6 20 -22 27 -34 11 -21 10 -27 -11
-50 -12 -15 -34 -37 -48 -49 -20 -17 -23 -24 -12 -34 10 -11 21 -4 61 35 l49
48 25 -28 c17 -18 31 -25 43 -20 15 6 13 11 -15 40 l-32 33 40 35 c41 35 52
58 29 58 -7 0 -29 -16 -49 -36 l-37 -36 -17 26 c-23 34 -51 50 -61 35z"/>
<path d="M9761 5138 c-37 -24 -61 -65 -61 -106 0 -39 35 -82 66 -82 30 0 89
24 99 40 11 18 -4 26 -24 13 -10 -6 -34 -15 -54 -18 -29 -6 -37 -3 -46 13 -16
30 -14 42 8 42 32 0 81 48 81 80 0 36 -28 44 -69 18z m33 -33 c-6 -15 -35 -35
-50 -35 -4 0 3 11 16 25 26 28 42 33 34 10z"/>
<path d="M12336 5145 c-7 -20 21 -32 37 -16 9 9 8 14 -3 21 -21 13 -27 12 -34
-5z"/>
<path d="M4662 5138 c-67 -85 -49 -180 29 -147 61 25 86 90 53 137 -17 24 -65
30 -82 10z m64 -45 c6 -22 1 -32 -26 -56 -36 -32 -57 -25 -46 18 7 27 39 65
56 65 5 0 13 -12 16 -27z"/>
<path d="M5048 5134 c-34 -18 -48 -43 -48 -88 0 -51 22 -68 84 -64 36 2 52 7
54 18 2 13 -8 16 -49 15 -59 0 -74 16 -31 34 32 13 67 65 58 87 -7 18 -33 17
-68 -2z m22 -39 c-7 -8 -17 -15 -22 -15 -6 0 -5 7 2 15 7 8 17 15 22 15 6 0 5
-7 -2 -15z"/>
<path d="M6649 5112 c-49 -49 -58 -85 -32 -120 32 -42 68 -51 111 -25 31 17
37 27 39 57 1 20 -1 36 -5 36 -14 0 -32 -24 -32 -42 0 -21 -34 -41 -58 -34 -9
3 -23 15 -30 26 -11 19 -10 20 23 20 22 0 43 8 55 20 26 26 26 76 1 90 -28 14
-29 14 -72 -28z m61 -15 c0 -19 -21 -37 -42 -37 -17 0 -17 1 -2 25 17 27 44
34 44 12z"/>
<path d="M9524 5123 c-4 -16 -17 -49 -30 -75 -13 -26 -24 -52 -24 -58 0 -23
29 -7 53 29 25 38 93 98 101 90 3 -2 -6 -29 -19 -59 -27 -62 -31 -90 -12 -90
11 0 67 131 67 157 0 7 -9 17 -21 23 -17 9 -26 7 -55 -15 l-35 -27 7 26 c5 20
2 26 -10 26 -9 0 -18 -12 -22 -27z"/>
<path d="M10625 5115 c-33 -34 -40 -53 -35 -100 3 -31 30 -55 62 -55 37 0 108
36 108 55 0 19 2 19 -49 -6 -44 -21 -82 -22 -88 -3 -2 6 10 14 26 17 35 7 61
49 61 97 0 25 -4 30 -25 30 -15 0 -38 -14 -60 -35z m55 -13 c0 -16 -32 -52
-46 -52 -20 0 -18 10 8 37 22 23 38 30 38 15z"/>
<path d="M12002 5138 c-31 -15 -65 -73 -57 -98 8 -25 43 -34 79 -20 16 6 30 9
31 8 1 -2 8 -13 14 -25 15 -29 51 -31 51 -3 0 11 -7 23 -15 26 -17 7 -20 40
-5 49 6 3 10 21 10 39 0 32 -1 33 -42 34 -24 0 -53 -4 -66 -10z m66 -40 c-4
-28 -74 -66 -90 -50 -15 15 43 72 72 72 16 0 21 -5 18 -22z"/>
<path d="M14569 5080 c-17 -33 -36 -60 -41 -60 -5 0 -8 17 -6 37 2 30 -1 38
-15 41 -14 3 -17 -4 -16 -40 0 -24 4 -52 8 -63 6 -15 1 -29 -19 -55 -30 -39
-60 -93 -60 -110 0 -21 19 -9 41 28 13 20 37 55 54 77 44 56 116 185 109 196
-11 19 -24 7 -55 -51z"/>
<path d="M9335 5121 c-54 -10 -90 -30 -77 -43 8 -8 19 -7 39 1 15 6 50 12 76
13 37 2 47 6 45 18 -4 17 -27 21 -83 11z"/>
<path d="M6839 5091 c-50 -50 -32 -122 26 -107 31 8 30 13 4 -144 -12 -69 -22
-134 -23 -144 -2 -32 21 -29 35 6 24 57 67 98 105 98 24 0 34 5 34 15 0 26
-60 24 -99 -4 l-27 -19 14 101 c7 56 20 125 29 153 8 29 12 57 9 63 -4 6 -23
11 -42 11 -26 0 -44 -8 -65 -29z m61 -25 c0 -23 -32 -56 -53 -56 -14 0 2 54
20 68 25 18 33 15 33 -12z"/>
<path d="M7430 5110 c-14 -4 -42 -8 -62 -9 -20 -1 -40 -6 -43 -11 -7 -11 42
-33 55 -25 5 3 25 6 45 7 37 1 61 20 50 38 -7 11 -10 11 -45 0z"/>
<path d="M13863 5113 c-28 -5 -31 -33 -4 -33 53 0 111 14 111 26 0 14 -54 17
-107 7z"/>
<path d="M14341 5085 c-36 -42 -41 -85 -11 -115 25 -25 67 -25 99 -1 31 23 20
48 -12 26 -25 -17 -53 -20 -62 -5 -3 6 5 14 19 20 39 14 61 55 48 85 -16 35
-45 31 -81 -10z m53 -20 c-6 -15 -34 -29 -42 -20 -8 7 29 45 39 39 4 -2 6 -11
3 -19z"/>
<path d="M14730 5098 c-50 -34 -74 -71 -66 -102 17 -70 141 -26 135 48 -2 17
0 37 5 44 4 6 4 17 1 22 -10 16 -40 11 -75 -12z m38 -55 c4 -25 -39 -59 -63
-49 -20 7 -19 18 6 50 25 31 53 31 57 -1z"/>
<path d="M14930 5080 c-7 -17 -33 -49 -58 -70 -48 -43 -49 -61 -4 -44 19 7 33
7 44 0 23 -14 99 38 91 62 -4 10 -3 14 2 10 4 -4 8 -22 9 -40 1 -24 6 -34 20
-36 14 -3 17 0 13 12 -4 9 0 36 8 59 30 85 13 89 -62 15 -58 -57 -77 -58 -44
-3 11 20 21 43 21 51 0 26 -27 15 -40 -16z"/>
<path d="M12294 5029 c-3 -6 -1 -15 6 -19 17 -11 50 0 50 16 0 17 -46 19 -56
3z"/>
<path d="M1930 4784 c0 -58 -4 -113 -9 -122 -11 -23 1 -114 17 -120 8 -2 12
12 12 50 0 47 3 56 24 67 12 7 34 11 47 9 24 -3 24 -5 21 -90 -3 -71 -1 -88
11 -88 10 0 16 18 21 61 12 123 3 149 -55 149 -16 0 -29 5 -29 11 0 6 -7 8
-16 5 -13 -5 -15 3 -14 52 3 105 1 122 -15 122 -12 0 -15 -18 -15 -106z"/>
<path d="M10950 4857 c0 -2 7 -24 15 -47 24 -68 20 -129 -14 -181 -32 -52 -85
-89 -125 -89 -38 0 -42 25 -12 64 19 26 31 33 47 29 17 -5 20 -2 17 13 -2 12
-13 20 -30 22 -22 3 -33 -5 -57 -39 -17 -23 -31 -52 -31 -64 0 -49 70 -71 128
-41 35 18 85 72 106 113 30 59 11 214 -27 221 -9 2 -17 1 -17 -1z"/>
<path d="M2053 4838 c2 -7 -11 -32 -30 -56 -21 -25 -33 -49 -29 -58 5 -12 11
-9 32 15 15 18 22 36 18 43 -4 7 -3 10 1 5 10 -9 55 31 55 50 0 7 -11 13 -26
13 -16 0 -24 -5 -21 -12z"/>
<path d="M8026 4786 c-7 -35 -24 -46 -73 -46 -14 0 -23 -6 -23 -15 0 -10 11
-15 35 -15 35 0 35 0 35 -46 0 -82 71 -126 154 -94 47 17 30 32 -28 25 -47 -6
-57 -4 -76 15 -16 16 -20 31 -18 63 3 44 12 49 73 36 38 -8 22 26 -17 35 -34
9 -36 11 -31 43 8 47 -22 46 -31 -1z"/>
<path d="M5422 4750 c-12 -58 -14 -60 -42 -57 -40 3 -42 -16 -2 -28 26 -7 32
-14 32 -38 0 -35 24 -83 49 -97 34 -18 108 -9 95 11 -3 5 0 9 6 9 6 0 9 4 5
10 -4 6 -15 5 -30 -2 -49 -22 -95 14 -95 76 0 20 6 24 48 30 49 6 93 29 80 41
-3 4 -32 1 -62 -6 -31 -7 -58 -10 -61 -7 -3 2 0 20 5 39 14 47 12 79 -3 79 -8
0 -18 -24 -25 -60z"/>
<path d="M7355 4738 c-49 -27 -75 -61 -75 -99 0 -59 34 -91 101 -97 44 -3 59
0 79 16 28 23 20 43 -10 24 -37 -23 -111 -10 -132 22 -14 20 -8 63 10 78 38
34 62 40 87 24 33 -22 46 1 15 26 -25 20 -46 22 -75 6z"/>
<path d="M7564 4696 c-42 -42 -46 -85 -9 -121 33 -34 102 -36 114 -2 5 12 7
25 4 30 -8 13 -43 7 -43 -8 0 -20 -34 -19 -54 1 -24 23 -19 34 13 34 50 0 74
38 51 81 -15 28 -37 24 -76 -15z m46 -21 c0 -8 -7 -15 -15 -15 -16 0 -20 12
-8 23 11 12 23 8 23 -8z"/>
<path d="M8753 4706 c-40 -34 -54 -75 -37 -115 17 -41 51 -55 109 -47 37 6 48
12 56 32 13 35 11 44 -6 44 -8 0 -22 -11 -31 -25 -19 -29 -64 -34 -88 -9 -23
22 -20 31 12 39 56 14 79 57 46 89 -21 21 -27 20 -61 -8z m41 -30 c-3 -8 -14
-16 -25 -19 -16 -4 -17 -2 -8 14 11 22 41 26 33 5z"/>
<path d="M2829 4703 c-48 -59 -59 -84 -65 -150 -3 -37 -13 -94 -21 -126 -9
-32 -13 -61 -9 -64 15 -15 42 16 53 62 7 27 16 51 21 54 54 38 71 64 92 140 9
33 9 50 -1 72 -13 34 -48 39 -70 12z m41 -51 c0 -40 -37 -123 -57 -130 -22 -7
-15 61 13 116 14 29 30 52 35 52 5 0 9 -17 9 -38z"/>
<path d="M7782 4707 c-6 -7 -14 -39 -18 -70 -6 -48 -4 -57 9 -57 11 0 17 15
22 50 6 46 9 49 30 44 35 -9 39 13 6 31 -36 18 -36 18 -49 2z"/>
<path d="M8971 4670 c-13 -61 -14 -120 -2 -120 4 0 26 28 47 63 l39 62 3 -38
c5 -54 26 -57 67 -11 l34 39 1 -57 c0 -46 4 -59 19 -68 11 -5 22 -10 25 -10
11 0 6 39 -5 46 -8 4 -10 27 -6 64 7 80 -7 90 -55 43 -37 -36 -38 -36 -38 -13
-1 60 -43 64 -80 7 l-21 -32 7 38 c5 29 3 37 -9 37 -10 0 -19 -17 -26 -50z"/>
<path d="M11133 4705 c-35 -15 -63 -60 -63 -100 0 -33 24 -81 45 -89 41 -16
129 3 139 29 8 22 -9 26 -40 10 -42 -22 -80 -19 -98 7 -21 30 -20 38 5 38 27
0 76 35 84 61 4 13 0 28 -11 40 -20 22 -20 22 -61 4z m37 -35 c0 -13 -49 -44
-57 -36 -9 8 27 46 44 46 7 0 13 -4 13 -10z"/>
<path d="M8550 4693 l-35 -17 38 -4 c33 -3 37 -6 37 -31 0 -34 -35 -81 -60
-81 -18 0 -48 29 -41 39 3 3 15 17 28 31 21 22 21 25 6 29 -9 2 -19 -2 -21 -8
-3 -8 -10 -7 -23 5 -21 19 -21 20 -23 -56 -1 -30 -6 -88 -11 -129 -7 -68 -7
-73 11 -69 15 2 21 16 28 66 9 60 11 63 35 58 47 -10 101 55 101 119 0 36 -14
66 -29 65 -4 -1 -22 -8 -41 -17z"/>
<path d="M11340 4688 c-25 -13 -45 -30 -45 -38 0 -8 22 -27 48 -41 27 -14 58
-35 69 -46 l20 -20 -47 -7 c-30 -5 -51 -3 -61 4 -11 10 -15 9 -20 -5 -13 -32
33 -43 110 -26 62 15 65 26 22 70 -22 22 -52 45 -67 52 -16 6 -29 15 -29 19 0
11 48 30 75 30 16 0 25 6 25 15 0 22 -48 19 -100 -7z"/>
<path d="M3164 4674 c4 -14 2 -52 -4 -86 -14 -73 0 -100 23 -47 9 19 27 48 41
64 l25 30 -9 -34 c-19 -70 15 -69 71 2 l42 52 -5 -40 c-3 -22 -1 -52 4 -66 10
-30 40 -43 57 -26 17 17 13 27 -9 27 -18 0 -20 7 -20 75 0 90 -11 95 -64 33
l-36 -42 0 32 c0 44 -16 48 -50 13 -29 -28 -30 -28 -30 -7 0 23 -17 46 -33 46
-5 0 -6 -12 -3 -26z"/>
<path d="M10308 4638 c-11 -43 -13 -66 -6 -73 7 -7 14 -4 22 9 28 48 73 89 91
83 17 -7 17 -19 -1 -78 -2 -8 2 -23 9 -33 12 -17 15 -12 27 42 11 54 11 64 -4
87 -20 30 -35 31 -70 4 l-26 -20 0 20 c0 44 -26 18 -42 -41z"/>
<path d="M2963 4668 c-44 -47 -58 -141 -26 -173 34 -34 173 -1 173 41 0 9 -3
14 -7 12 -52 -27 -91 -39 -117 -36 -26 2 -32 8 -34 31 -2 19 1 27 11 27 25 0
68 60 65 89 -4 34 -37 39 -65 9z m23 -44 c-10 -14 -20 -23 -23 -20 -3 3 2 17
11 32 10 14 20 23 23 20 3 -3 -2 -17 -11 -32z"/>
<path d="M2202 4673 c-18 -7 -52 -78 -52 -108 0 -36 26 -82 51 -90 40 -13 139
31 139 61 0 18 -1 18 -56 -11 -57 -30 -69 -31 -88 -4 -13 20 -12 24 25 59 42
40 48 60 23 84 -16 17 -21 18 -42 9z m18 -52 c-10 -21 -30 -37 -30 -26 0 14
21 45 31 45 6 0 6 -7 -1 -19z"/>
<path d="M4794 4646 c-56 -56 -42 -136 24 -136 39 0 90 35 98 66 9 34 -2 51
-50 81 l-37 24 -35 -35z m66 -21 c17 -9 30 -22 30 -30 0 -30 -64 -66 -89 -50
-16 9 -13 47 5 73 18 26 17 26 54 7z"/>
<path d="M5092 4668 c-7 -7 -12 -17 -12 -23 0 -17 -60 -85 -75 -85 -19 0 -27
-30 -9 -37 8 -3 26 4 40 17 19 19 24 20 24 7 0 -17 36 -47 56 -47 6 0 27 11
46 24 34 22 35 23 47 5 13 -23 41 -25 41 -4 0 8 -5 15 -11 15 -7 0 -8 14 -4
40 11 65 -3 66 -59 5 -73 -78 -110 -61 -71 32 23 56 17 81 -13 51z"/>
<path d="M10562 4657 c-19 -21 -42 -68 -42 -87 0 -18 33 -40 60 -40 40 0 90
44 90 80 0 31 -11 42 -57 58 -27 9 -34 7 -51 -11z m78 -42 c0 -24 -39 -57 -63
-53 -26 4 -25 36 1 56 22 17 62 15 62 -3z"/>
<path d="M2354 4655 c-5 -12 5 -42 29 -89 l36 -70 -34 -76 c-38 -86 -48 -135
-25 -135 8 0 17 15 22 38 4 20 16 54 27 75 23 45 87 208 96 245 8 28 -5 36
-22 15 -6 -7 -18 -37 -28 -67 -20 -60 -28 -58 -60 19 -24 58 -33 68 -41 45z"/>
<path d="M10020 4648 c0 -25 103 -38 154 -18 48 18 26 27 -64 26 -49 0 -90 -4
-90 -8z"/>
<path d="M4518 4623 c-10 -3 -18 -10 -18 -18 0 -9 15 -13 48 -13 66 -1 102 7
102 23 0 9 -16 13 -57 12 -32 0 -66 -2 -75 -4z"/>
<path d="M8249 4584 c-10 -13 -10 -17 1 -24 18 -11 50 6 50 25 0 20 -34 19
-51 -1z"/>
<path d="M2592 4533 c4 -21 33 -25 33 -3 0 8 -8 16 -18 18 -14 3 -18 -1 -15
-15z"/>
<path d="M10428 3982 c-53 -56 -79 -104 -103 -184 -13 -47 -20 -57 -43 -63
-85 -20 -102 -27 -102 -40 0 -19 5 -19 66 0 27 8 51 15 53 15 4 0 -7 -62 -20
-112 -5 -21 -19 -47 -30 -57 -22 -20 -18 -41 6 -41 21 0 47 55 65 140 13 59
21 76 36 79 26 4 45 21 38 33 -3 5 -16 7 -29 4 -23 -6 -23 -6 -9 40 32 105
101 197 152 200 38 1 35 28 -4 32 -25 3 -38 -5 -76 -46z"/>
<path d="M4825 4008 c-2 -7 -9 -38 -15 -68 -31 -144 -75 -251 -110 -270 -30
-16 -26 9 10 50 34 41 37 50 11 50 -24 0 -74 -72 -69 -101 5 -33 31 -46 63
-31 34 16 76 106 111 237 14 55 30 105 35 111 5 6 4 15 -3 22 -15 15 -28 15
-33 0z"/>
<path d="M6800 3993 c-5 -96 -11 -120 -43 -186 -45 -90 -117 -169 -117 -128 0
16 51 71 65 71 19 0 29 20 17 32 -18 18 -78 -28 -101 -76 -24 -49 -26 -60 -8
-74 22 -19 87 27 133 94 68 100 111 264 72 272 -10 2 -18 0 -18 -5z"/>
<path d="M9376 3988 c-2 -7 -11 -43 -21 -79 l-17 -67 -49 -6 c-68 -9 -99 -22
-99 -42 0 -12 5 -15 23 -9 39 12 102 23 106 19 2 -2 -10 -43 -27 -91 -18 -48
-30 -89 -27 -91 14 -15 35 17 61 93 23 70 34 89 54 97 23 9 23 11 8 22 -15 11
-15 17 3 80 10 38 16 73 13 77 -8 13 -24 11 -28 -3z"/>
<path d="M8324 3953 c-12 -40 -50 -105 -66 -114 -9 -5 -31 -9 -48 -9 -45 0
-33 -24 13 -28 34 -3 36 -5 27 -28 -17 -43 -12 -99 10 -119 16 -14 26 -16 52
-9 19 6 34 17 36 28 3 15 0 17 -20 10 -57 -18 -70 5 -49 84 11 38 13 40 61 46
42 6 52 11 60 32 13 33 13 34 -5 34 -7 0 -18 -6 -22 -14 -8 -15 -63 -33 -63
-22 0 4 12 29 26 56 24 46 25 70 3 70 -5 0 -12 -8 -15 -17z"/>
<path d="M2409 3958 c0 -2 -2 -15 -4 -31 -2 -15 -25 -92 -52 -172 -39 -120
-45 -147 -34 -157 10 -10 15 -10 18 -1 9 26 64 93 88 109 38 25 46 7 25 -58
-10 -32 -14 -62 -9 -70 13 -20 24 -1 44 74 15 55 15 70 5 83 -19 23 -55 18
-89 -11 -17 -14 -31 -22 -31 -18 0 4 16 56 37 115 34 100 38 139 13 139 -5 0
-10 -1 -11 -2z"/>
<path d="M6557 3931 c-4 -16 -24 -72 -47 -124 -42 -99 -51 -157 -25 -157 9 0
15 9 15 25 0 14 18 68 41 120 47 112 59 165 37 165 -9 0 -18 -12 -21 -29z"/>
<path d="M5898 3908 c-6 -18 -35 -79 -65 -136 -29 -56 -53 -109 -53 -117 0
-23 26 -17 44 10 19 29 54 63 80 77 16 9 18 8 12 -8 -4 -11 -10 -34 -13 -53
-9 -52 18 -35 36 23 13 43 13 48 -2 64 -17 16 -20 16 -47 0 l-29 -16 36 76
c46 101 49 112 29 112 -10 0 -22 -13 -28 -32z"/>
<path d="M10715 3928 c-2 -7 -29 -80 -60 -163 -30 -82 -53 -155 -51 -162 9
-23 36 -15 36 10 0 13 23 83 50 155 28 72 50 140 50 152 0 22 -18 28 -25 8z"/>
<path d="M1975 3920 c-10 -16 36 -32 94 -34 31 0 107 3 169 8 89 7 112 12 112
24 0 13 -16 14 -117 7 -152 -10 -150 -10 -205 -2 -26 3 -50 2 -53 -3z"/>
<path d="M14430 3869 c0 -6 -27 -65 -61 -131 -55 -111 -69 -156 -44 -151 6 1
13 12 16 25 3 15 12 22 24 21 11 -1 32 7 47 18 29 21 104 24 102 4 -1 -5 -5
-25 -9 -42 -5 -26 -3 -33 9 -33 20 0 42 78 28 100 -5 8 -21 17 -36 20 -27 5
-26 7 33 48 34 24 59 47 56 53 -11 16 -24 10 -88 -39 -69 -54 -104 -75 -116
-70 -4 2 9 39 30 83 42 88 46 105 24 105 -8 0 -15 -5 -15 -11z"/>
<path d="M11700 3846 c0 -18 16 -29 30 -21 13 8 1 35 -16 35 -8 0 -14 -6 -14
-14z"/>
<path d="M2190 3814 c0 -19 -11 -69 -25 -110 -28 -85 -31 -104 -12 -104 9 0
24 34 41 88 30 99 34 162 11 162 -11 0 -15 -11 -15 -36z"/>
<path d="M8554 3836 c-32 -14 -74 -83 -74 -123 0 -35 38 -73 72 -73 58 0 104
20 115 51 15 39 -1 46 -31 14 -16 -17 -39 -29 -65 -32 -37 -5 -41 -3 -51 22
-11 28 -2 44 24 45 19 0 76 52 76 69 0 16 -18 41 -29 41 -4 -1 -20 -7 -37 -14z
m26 -34 c0 -5 -12 -14 -27 -21 -28 -13 -28 -13 -9 8 20 22 36 27 36 13z"/>
<path d="M10522 3834 c2 -11 11 -20 22 -22 13 -3 17 1 14 14 -2 11 -11 20 -22
22 -13 3 -17 -1 -14 -14z"/>
<path d="M5641 3806 c-21 -22 -23 -31 -17 -74 5 -41 3 -51 -14 -67 -16 -15
-26 -17 -48 -9 -22 8 -26 15 -24 37 4 32 -13 36 -28 7 -32 -59 64 -107 121
-61 20 16 24 28 24 78 0 68 7 83 36 76 17 -5 20 -2 17 13 -5 28 -40 28 -67 0z"/>
<path d="M7620 3807 c-31 -28 -65 -100 -56 -123 5 -13 9 -14 21 -4 8 7 15 20
15 29 0 9 12 34 26 55 22 33 30 37 54 33 33 -7 44 1 29 20 -17 20 -61 15 -89
-10z"/>
<path d="M7768 3801 c-14 -11 -33 -39 -42 -62 -14 -34 -14 -45 -4 -67 11 -23
20 -27 58 -29 35 -2 51 2 75 22 25 21 27 25 12 31 -11 4 -25 0 -36 -11 -21
-18 -72 -17 -78 1 -2 7 12 15 31 18 42 8 78 49 74 85 -4 35 -53 41 -90 12z
m62 -20 c0 -5 -7 -14 -15 -21 -8 -7 -13 -15 -11 -19 2 -3 -7 -7 -20 -7 -30 -2
-30 3 -2 33 21 23 48 31 48 14z"/>
<path d="M3237 3790 c-57 -45 -75 -126 -35 -154 25 -18 98 -22 98 -5 0 5 5 7
10 4 6 -3 10 -2 10 3 0 16 -11 20 -38 13 -36 -10 -72 7 -72 33 0 39 45 90 80
91 23 0 18 30 -6 33 -11 2 -32 -7 -47 -18z"/>
<path d="M6221 3748 c-27 -37 -57 -66 -78 -75 -19 -7 -31 -18 -28 -23 10 -16
41 -11 66 9 22 18 26 18 42 4 16 -15 20 -14 55 11 l37 26 5 -32 c6 -37 21 -45
40 -23 11 14 11 18 1 25 -11 6 -11 15 -2 40 25 72 7 78 -59 20 -24 -22 -46
-38 -48 -36 -2 2 6 22 17 45 46 89 15 95 -48 9z"/>
<path d="M7984 3776 c-37 -37 -43 -66 -18 -91 15 -15 27 -14 71 2 6 2 10 -4
10 -13 -2 -20 24 -30 50 -20 14 6 14 9 -2 26 -16 18 -17 24 -5 60 14 43 9 60
-13 42 -10 -8 -16 -6 -25 9 -17 27 -29 24 -68 -15z m68 -23 c2 1 -9 -11 -24
-26 -16 -15 -33 -25 -38 -22 -15 9 -12 19 11 44 15 16 24 19 33 12 7 -6 15
-10 18 -8z"/>
<path d="M14690 3802 c0 -10 33 -42 42 -42 13 0 18 34 6 42 -17 10 -48 10 -48
0z"/>
<path d="M9468 3779 c-28 -20 -38 -49 -18 -49 6 0 20 9 32 20 38 35 31 12 -16
-54 -44 -62 -57 -96 -37 -96 6 0 36 23 68 51 l58 51 5 -63 c4 -51 9 -65 23
-67 42 -8 114 119 89 158 -16 26 -27 17 -32 -30 -6 -43 -27 -90 -42 -90 -4 0
-8 26 -10 58 l-3 57 -32 -1 c-32 -2 -32 -1 -16 22 32 50 -16 73 -69 33z"/>
<path d="M4267 3779 c-24 -14 -47 -62 -47 -98 0 -40 30 -49 75 -22 l34 20 3
-22 c2 -12 9 -22 16 -22 14 0 27 89 16 107 -3 5 -23 -7 -45 -27 -60 -54 -95
-41 -48 18 17 23 23 25 39 15 24 -15 38 -3 24 20 -13 21 -43 26 -67 11z"/>
<path d="M6087 3784 c-4 -4 -7 -24 -7 -45 0 -39 -20 -69 -46 -69 -20 0 -18 15
8 60 23 40 20 62 -6 41 -8 -7 -25 -33 -37 -58 -22 -45 -22 -45 -2 -65 19 -18
22 -18 56 -5 19 9 41 26 48 39 20 37 8 124 -14 102z"/>
<path d="M7379 3767 c-42 -28 -57 -66 -40 -103 11 -25 15 -26 61 -22 52 5 108
34 93 49 -4 4 -28 1 -54 -8 -49 -18 -79 -13 -79 12 0 23 37 55 70 62 17 3 30
12 30 19 0 21 -43 17 -81 -9z"/>
<path d="M12421 3763 c-7 -16 -25 -43 -41 -61 l-28 -34 -7 34 c-10 46 -24 61
-41 47 -9 -7 -11 -16 -6 -23 5 -6 14 -26 21 -45 10 -32 9 -37 -28 -85 -60 -79
-75 -116 -48 -116 7 0 20 15 29 33 9 17 47 68 84 112 97 116 124 165 90 165
-7 0 -19 -12 -25 -27z"/>
<path d="M3894 3763 c-3 -10 -17 -45 -30 -78 -13 -33 -24 -63 -24 -67 0 -21
30 -3 73 44 l48 53 -5 -33 c-9 -52 19 -54 61 -3 37 44 88 77 97 62 8 -12 -14
-71 -26 -71 -5 0 -6 -4 -3 -10 3 -5 -1 -10 -9 -10 -9 0 -16 -7 -16 -15 0 -9 9
-15 24 -15 28 0 53 40 62 100 12 72 -45 78 -118 12 -23 -20 -39 -30 -36 -20 4
9 1 24 -6 34 -13 17 -15 17 -40 1 -26 -17 -26 -17 -26 8 0 29 -18 34 -26 8z"/>
<path d="M10813 3769 c-38 -14 -56 -53 -49 -104 8 -51 25 -65 84 -65 39 0 82
31 82 58 0 19 -25 14 -45 -8 -25 -28 -79 -24 -83 6 -2 12 3 21 11 21 19 0 77
44 77 59 0 13 -26 37 -44 40 -6 1 -21 -2 -33 -7z m27 -44 c-14 -16 -40 -20
-40 -6 0 10 17 19 39 20 11 1 11 -2 1 -14z"/>
<path d="M11060 3769 c-47 -19 -47 -53 2 -89 22 -16 27 -25 19 -33 -8 -8 -15
-6 -24 7 -12 16 -14 16 -26 2 -21 -25 -6 -46 32 -46 64 0 77 49 25 92 -36 29
-35 36 3 41 26 4 33 30 9 34 -8 1 -26 -3 -40 -8z"/>
<path d="M4502 3755 c-12 -9 -31 -14 -41 -10 -15 4 -24 -6 -46 -51 -37 -76
-21 -92 30 -29 38 46 91 82 103 70 3 -3 0 -20 -6 -38 -16 -44 -15 -77 2 -77
15 0 27 42 29 105 2 36 -1 40 -23 43 -14 1 -35 -5 -48 -13z"/>
<path d="M9772 3763 c-8 -3 -22 -25 -33 -50 -32 -75 -22 -123 26 -123 25 1 46
17 69 52 23 35 14 91 -17 113 -23 16 -25 16 -45 8z m43 -60 c7 -30 -20 -76
-49 -81 -21 -4 -21 27 1 73 20 42 38 45 48 8z"/>
<path d="M11644 3753 c-3 -10 -12 -33 -20 -51 -19 -43 -18 -82 1 -82 8 0 15 8
15 19 0 10 9 39 21 65 19 44 19 66 -2 66 -5 0 -12 -8 -15 -17z"/>
<path d="M2604 3750 c-27 -11 -64 -70 -64 -102 0 -13 10 -35 22 -47 19 -21 27
-23 75 -17 59 7 113 30 113 47 0 7 -9 9 -22 5 -106 -27 -127 -29 -142 -17 -25
21 -19 29 24 41 46 12 75 48 65 80 -7 21 -34 25 -71 10z m31 -40 c-10 -11 -25
-20 -34 -20 -12 1 -10 5 8 20 30 26 49 26 26 0z"/>
<path d="M3583 3748 c-13 -22 -35 -82 -37 -103 -2 -33 18 -32 39 2 11 17 28
36 38 42 16 11 17 10 8 -8 -30 -55 11 -55 61 0 21 23 41 39 45 36 3 -4 0 -13
-7 -22 -10 -12 -10 -18 0 -30 19 -23 40 -18 40 9 0 13 3 38 6 55 6 27 4 31
-16 31 -12 0 -35 -9 -51 -21 -23 -16 -29 -17 -29 -5 0 26 -21 29 -43 6 l-20
-23 -8 22 c-10 24 -15 26 -26 9z"/>
<path d="M11776 3740 c-37 -17 -75 -66 -76 -97 0 -23 26 -14 41 13 16 30 78
76 91 68 12 -8 -1 -46 -21 -61 -14 -11 -14 -14 -1 -23 27 -18 37 -11 50 36 22
76 -9 100 -84 64z"/>
<path d="M12532 3713 c-63 -70 -54 -134 17 -118 61 13 99 92 71 146 -17 30
-42 22 -88 -28z m68 -17 c0 -29 -27 -62 -57 -71 -35 -10 -30 27 8 64 37 37 49
39 49 7z"/>
<path d="M12703 3683 c-40 -41 -73 -79 -73 -84 0 -17 25 -9 51 15 24 22 28 23
42 9 14 -15 18 -15 41 0 32 21 31 22 33 -9 1 -27 20 -47 35 -38 4 3 5 18 1 35
-4 22 0 38 16 59 39 54 19 75 -31 32 -18 -15 -42 -34 -52 -42 -22 -17 -22 -17
20 51 22 36 22 50 0 48 -6 -1 -44 -35 -83 -76z"/>
<path d="M13700 3736 c-25 -13 -46 -31 -48 -40 -5 -22 14 -20 49 5 46 33 54
17 15 -30 -60 -71 -42 -96 30 -41 46 35 54 36 54 11 0 -34 12 -51 35 -51 27 0
75 52 75 80 0 10 5 22 10 25 18 11 10 26 -12 23 -16 -2 -24 -11 -26 -29 -2
-15 -15 -37 -29 -50 l-25 -24 2 25 c5 57 2 63 -29 57 -25 -5 -28 -3 -24 14 5
18 -11 49 -26 49 -3 0 -26 -11 -51 -24z"/>
<path d="M3401 3731 c-32 -58 8 -111 68 -90 36 13 52 37 45 67 -7 23 -23 32
-71 39 -24 3 -34 0 -42 -16z m79 -41 c0 -16 -7 -20 -30 -20 -23 0 -30 4 -30
20 0 16 7 20 30 20 23 0 30 -4 30 -20z"/>
<path d="M10445 3708 c-9 -24 -21 -46 -27 -49 -13 -8 0 -51 14 -47 13 5 59
118 52 129 -11 18 -22 8 -39 -33z"/>
<path d="M13037 3724 c-15 -8 -31 -12 -36 -10 -22 14 -63 -96 -43 -116 7 -7
16 1 31 29 21 41 58 73 86 73 10 0 15 7 13 17 -4 23 -18 25 -51 7z"/>
<path d="M13998 3694 c-41 -40 -49 -60 -37 -92 10 -25 45 -29 74 -9 13 11 19
29 21 75 3 74 -7 78 -58 26z m18 -70 c-3 -8 -10 -14 -16 -14 -14 0 -13 33 3
49 10 10 13 9 15 -4 2 -9 1 -23 -2 -31z"/>
<path d="M14750 3694 c-40 -37 -52 -64 -26 -64 7 0 21 11 30 25 9 13 25 29 37
36 18 9 20 8 15 -9 -8 -24 12 -41 25 -21 5 8 9 26 9 42 0 40 -40 36 -90 -9z"/>
<path d="M14149 3690 c-20 -19 -29 -38 -27 -52 5 -34 32 -28 38 7 3 20 12 31
25 33 46 7 51 13 31 28 -27 20 -33 18 -67 -16z"/>
<path d="M14646 3664 c-30 -44 -32 -54 -12 -54 21 0 61 69 48 82 -7 7 -18 -2
-36 -28z"/>
<path d="M14940 3693 c-27 -10 -60 -46 -60 -65 0 -26 25 -33 82 -21 l48 10 -1
-46 c-2 -89 -10 -104 -58 -118 -24 -7 -49 -18 -57 -24 -16 -13 -19 -86 -4
-124 23 -61 64 -37 104 60 25 64 23 62 124 81 37 7 20 29 -19 26 -19 -2 -42
-5 -51 -8 -16 -5 -17 2 -12 73 4 43 13 90 20 105 25 49 11 65 -25 29 -21 -21
-94 -45 -114 -38 -16 5 46 37 73 37 11 0 20 7 20 15 0 15 -38 19 -70 8z m40
-273 c0 -5 -12 -35 -26 -67 -25 -55 -26 -57 -35 -33 -16 41 -7 83 21 97 30 15
40 16 40 3z"/>
<path d="M6953 3555 c-46 -20 -83 -90 -91 -172 l-7 -67 -49 -12 c-55 -14 -78
-30 -54 -39 8 -3 34 1 57 9 34 11 43 12 47 1 13 -33 -64 -149 -91 -138 -10 3
-15 -1 -15 -11 0 -9 7 -19 16 -23 33 -12 124 108 124 165 0 17 7 21 35 24 20
2 35 8 35 13 0 6 -15 11 -35 13 -33 3 -35 5 -35 40 0 55 17 107 47 143 26 31
32 32 91 14 33 -11 28 17 -7 38 -34 20 -28 20 -68 2z"/>
<path d="M4426 3438 c-30 -62 -72 -142 -94 -178 -27 -43 -37 -68 -31 -75 13
-12 27 6 81 103 22 40 42 71 45 68 2 -2 -5 -36 -17 -76 -24 -80 -23 -108 3
-124 16 -9 28 -1 81 56 34 37 73 89 86 117 14 27 26 49 27 47 2 -1 -6 -29 -17
-61 -32 -93 -21 -162 25 -154 26 6 30 25 5 32 -27 7 -26 36 5 131 53 163 20
196 -54 53 -64 -122 -167 -238 -147 -164 42 151 83 323 80 329 -13 21 -29 -1
-78 -104z"/>
<path d="M5812 3496 c-6 -30 -27 -96 -46 -148 -48 -128 -52 -148 -32 -148 13
0 66 68 66 85 0 2 7 13 14 22 8 10 24 29 35 43 28 34 28 8 0 -61 -20 -52 -23
-106 -5 -102 6 1 15 21 22 45 7 24 19 66 27 94 15 52 9 84 -16 84 -7 0 -29
-19 -49 -42 l-37 -43 24 67 c27 75 36 149 19 155 -6 2 -16 -19 -22 -51z"/>
<path d="M8256 3518 c-2 -7 -11 -49 -21 -93 -20 -92 -49 -167 -74 -190 -16
-13 -20 -14 -30 -1 -16 19 14 85 32 67 7 -7 14 -7 24 0 18 16 16 37 -5 48 -26
14 -54 -8 -77 -59 -17 -38 -18 -45 -4 -69 16 -29 52 -39 75 -20 28 23 61 103
87 208 15 58 24 108 21 113 -8 12 -24 10 -28 -4z"/>
<path d="M3142 3499 c-5 -13 -15 -41 -23 -61 -10 -31 -19 -39 -46 -44 -20 -4
-33 -12 -33 -21 0 -11 7 -13 25 -9 30 8 30 8 5 -73 -15 -48 -17 -67 -9 -77 16
-19 29 -8 30 24 0 15 8 49 18 77 19 53 12 49 119 71 12 2 22 9 22 15 0 8 -19
10 -55 7 -38 -3 -55 -1 -52 6 29 77 31 86 19 98 -8 8 -13 5 -20 -13z"/>
<path d="M5669 3508 c-1 -2 -6 -37 -13 -78 l-11 -75 -52 -5 c-59 -6 -84 -23
-65 -42 9 -9 15 -9 24 0 7 7 29 12 49 12 l37 0 -14 -52 c-19 -74 -18 -118 3
-118 9 0 14 3 11 6 -5 4 0 31 27 149 3 15 12 21 31 20 35 0 42 21 9 29 -27 7
-30 21 -16 91 8 43 5 65 -10 65 -5 0 -10 -1 -10 -2z"/>
<path d="M8664 3498 c-4 -7 -9 -22 -10 -33 -3 -28 -20 -93 -50 -188 -18 -59
-22 -83 -14 -98 16 -29 30 -23 30 15 0 18 7 53 15 77 9 24 25 80 36 124 11 44
22 88 25 98 6 20 -20 24 -32 5z"/>
<path d="M2229 3423 c-2 -105 -8 -118 -51 -115 -31 3 -40 -1 -54 -24 -24 -36
-25 -117 -2 -122 24 -5 83 52 108 103 24 50 42 181 28 208 -17 34 -28 16 -29
-50z m-29 -148 c0 -20 -45 -74 -62 -75 -14 0 -9 35 8 58 13 19 54 32 54 17z"/>
<path d="M2340 3437 c0 -8 9 -22 20 -32 27 -25 46 -7 24 23 -17 24 -44 30 -44
9z"/>
<path d="M3439 3362 c-13 -11 -28 -20 -34 -20 -8 -1 -25 -42 -52 -124 -4 -12
0 -18 11 -18 11 0 26 20 40 51 30 64 63 99 94 99 31 0 24 24 -9 28 -14 2 -36
-6 -50 -16z"/>
<path d="M6022 3358 c-17 -13 -34 -31 -38 -40 -3 -10 -12 -18 -21 -18 -16 0
-16 -3 8 -91 5 -20 16 -42 24 -49 21 -18 99 -6 136 21 28 20 39 49 18 49 -5 0
-7 -4 -4 -10 3 -5 -3 -10 -14 -10 -11 0 -22 -4 -25 -9 -4 -5 -25 -12 -47 -16
-47 -8 -59 2 -59 48 0 23 7 31 35 43 42 17 69 55 60 84 -8 26 -32 25 -73 -2z
m39 -27 c-6 -10 -21 -21 -33 -24 -21 -6 -21 -4 5 19 34 29 41 30 28 5z"/>
<path d="M7053 3370 c-19 -8 -43 -38 -43 -54 0 -3 14 -21 32 -41 l31 -36 -22
-22 c-21 -21 -23 -21 -35 -4 -16 21 -36 22 -36 3 0 -22 29 -46 55 -46 26 0 65
42 65 71 0 9 -12 32 -27 49 -26 31 -26 33 -8 46 10 8 31 14 47 14 18 0 28 5
28 15 0 17 -50 20 -87 5z"/>
<path d="M7705 3370 c-4 -7 -18 -9 -31 -6 -18 5 -26 2 -30 -11 -3 -10 -17 -46
-31 -80 -23 -57 -24 -83 -3 -83 5 0 12 9 15 21 4 11 20 41 37 65 32 48 56 69
45 40 -4 -10 -10 -35 -13 -57 -9 -55 10 -51 68 13 l47 53 -6 -52 c-5 -43 -3
-53 9 -53 18 0 44 128 29 143 -11 11 -41 -5 -81 -46 l-25 -25 0 41 c0 39 -16
59 -30 37z"/>
<path d="M7946 3348 c-36 -56 -50 -99 -40 -116 19 -29 59 -26 96 7 l33 29 -25
51 c-28 56 -42 62 -64 29z m44 -69 c0 -21 -38 -45 -51 -32 -4 4 -1 23 8 41 12
26 18 30 29 21 8 -6 14 -20 14 -30z"/>
<path d="M3249 3345 c-33 -18 -62 -72 -57 -110 5 -45 46 -47 82 -4 22 26 26
40 24 77 -3 51 -12 57 -49 37z m7 -91 c-9 -13 -21 -24 -26 -24 -18 0 -11 37
13 66 22 28 22 28 25 6 2 -13 -4 -34 -12 -48z"/>
<path d="M4738 3349 c-26 -15 -22 -56 7 -91 23 -27 24 -33 12 -52 -22 -32 -43
-32 -42 0 0 39 -21 41 -29 3 -10 -54 33 -78 81 -44 35 25 38 62 7 107 -19 27
-24 42 -17 49 8 8 13 7 17 0 12 -19 28 -12 24 12 -3 25 -33 33 -60 16z"/>
<path d="M2612 3317 c-51 -53 -59 -112 -18 -139 30 -21 133 9 123 35 -5 13 -9
13 -53 -4 -17 -7 -38 -9 -48 -6 -27 11 -18 36 16 45 40 10 73 52 63 81 -10 31
-46 26 -83 -12z m46 -16 c-7 -11 -21 -22 -31 -25 -17 -4 -17 -2 4 20 27 29 44
32 27 5z"/>
<path d="M2847 3332 c-27 -30 -40 -77 -28 -101 14 -25 74 -38 108 -22 25 11
27 39 2 32 -41 -11 -56 -11 -74 3 -20 14 -20 15 1 43 13 17 31 28 45 28 23 0
29 5 29 25 0 18 -66 11 -83 -8z"/>
<path d="M3650 3340 c0 -12 -96 -158 -168 -253 -59 -79 -80 -123 -64 -139 7
-7 17 2 33 33 12 24 41 69 63 99 86 113 176 251 171 260 -8 13 -35 13 -35 0z"/>
<path d="M4884 3316 c-40 -40 -45 -83 -14 -133 16 -27 26 -33 55 -33 58 0 131
38 111 57 -3 4 -22 -1 -41 -10 -20 -9 -49 -17 -65 -17 -24 0 -30 6 -40 35 -6
19 -9 44 -5 55 7 23 52 56 62 46 9 -8 -27 -46 -44 -46 -7 0 -13 -7 -13 -16 0
-13 6 -15 28 -10 49 12 78 66 50 94 -21 21 -49 13 -84 -22z"/>
<path d="M8342 3311 c-13 -22 -34 -49 -47 -60 -14 -10 -25 -24 -25 -30 0 -14
23 -14 37 0 9 9 16 7 28 -5 18 -18 43 -15 82 10 19 12 22 11 27 -11 4 -14 12
-25 19 -25 9 0 13 20 15 65 1 36 -2 65 -6 65 -4 0 -25 -18 -46 -40 -21 -22
-46 -40 -57 -40 -18 0 -19 2 -3 38 20 46 22 64 8 69 -5 2 -20 -15 -32 -36z"/>
<path d="M8798 3334 c-15 -8 -31 -26 -34 -39 -3 -14 -10 -25 -15 -25 -19 0 -8
-27 29 -68 45 -52 90 -63 146 -37 36 17 49 45 22 45 -8 0 -28 -8 -44 -17 -29
-16 -32 -16 -66 0 -35 16 -48 37 -24 37 22 0 78 45 78 63 0 20 -34 57 -52 57
-7 -1 -25 -7 -40 -16z m57 -33 c3 -5 -5 -17 -17 -25 -41 -29 -65 -15 -32 18
17 18 40 21 49 7z"/>
<path d="M2450 3303 c-40 -41 -72 -135 -52 -155 15 -15 65 61 51 78 -15 18 5
50 41 69 16 8 33 15 37 14 27 -4 35 1 23 16 -22 26 -60 18 -100 -22z"/>
<path d="M2313 3298 c-18 -23 -35 -77 -28 -87 12 -20 21 -11 38 36 17 45 11
78 -10 51z"/>
<path d="M3496 3291 c-4 -6 -2 -18 4 -28 5 -10 15 -31 20 -46 12 -33 36 -31
32 3 -5 51 -41 95 -56 71z"/>
<path d="M3673 3155 c-3 -9 -3 -18 -1 -21 9 -9 38 8 38 22 0 19 -29 18 -37 -1z"/>
<path d="M8840 2624 c-24 -8 -64 -15 -87 -17 -49 -3 -60 -11 -44 -31 8 -9 10
-35 5 -80 -6 -60 -9 -66 -30 -66 -33 0 -54 -10 -54 -27 0 -10 9 -13 33 -11
l32 3 0 -62 c0 -82 18 -85 28 -5 8 54 11 62 30 62 39 0 67 12 67 27 0 12 -8
14 -40 9 -45 -7 -45 -7 -34 92 6 46 10 53 33 58 86 19 131 36 131 49 0 18 -10
18 -70 -1z"/>
<path d="M7475 2605 c-22 -21 -25 -33 -25 -100 0 -71 -1 -75 -22 -75 -31 0
-52 -15 -43 -30 4 -7 19 -10 36 -6 25 5 29 2 29 -17 -1 -26 -26 -62 -43 -62
-20 0 -13 -30 8 -33 23 -3 65 52 65 86 0 17 7 21 37 24 51 4 53 25 4 33 l-41
7 0 68 c0 82 15 105 66 97 36 -6 45 -2 37 19 -9 25 -80 18 -108 -11z"/>
<path d="M9484 2596 c-50 -50 -47 -88 8 -124 64 -42 118 -97 118 -121 0 -37
-50 -82 -99 -88 -34 -5 -46 -2 -53 11 -7 12 -13 14 -29 6 -27 -15 -24 -27 12
-45 73 -38 199 35 199 116 0 40 -34 83 -99 125 -68 43 -74 62 -36 99 19 20 34
25 73 25 26 0 53 -5 59 -11 7 -7 20 -8 30 -5 17 7 16 9 -6 27 -17 14 -39 19
-83 19 -55 0 -63 -3 -94 -34z"/>
<path d="M10464 2620 c-29 -12 -99 -94 -125 -147 -13 -27 -21 -62 -21 -90 2
-55 42 -144 79 -173 29 -23 98 -44 119 -36 26 10 14 24 -26 31 -79 13 -139 94
-140 186 0 38 8 58 42 109 47 71 89 102 135 98 37 -3 54 9 33 22 -18 12 -68
12 -96 0z"/>
<path d="M9066 2608 c-2 -7 -3 -85 -3 -173 2 -139 4 -160 18 -163 15 -3 16 6
12 60 -2 35 0 107 4 161 8 93 4 127 -18 127 -5 0 -11 -6 -13 -12z"/>
<path d="M10645 2610 c-4 -6 0 -19 9 -29 19 -21 12 -47 -15 -62 -21 -11 -26
-39 -7 -39 19 0 68 52 68 72 0 10 5 18 10 18 17 0 11 27 -7 33 -10 2 -25 8
-34 12 -10 3 -20 1 -24 -5z"/>
<path d="M6198 2603 c-3 -4 -6 -39 -7 -77 -1 -38 -4 -73 -7 -78 -6 -9 -16 -75
-18 -113 -2 -44 20 -27 32 25 16 65 12 58 51 70 46 13 61 -7 61 -81 0 -46 3
-59 15 -59 12 0 15 14 15 68 0 72 -16 102 -53 102 -34 0 -25 20 33 73 33 31
60 58 60 61 0 4 -8 6 -17 6 -22 -1 -84 -53 -118 -100 l-26 -35 3 69 c2 46 -1
70 -9 73 -6 2 -13 0 -15 -4z"/>
<path d="M8575 2600 c-3 -5 -1 -27 4 -47 14 -50 14 -151 0 -194 -15 -47 -45
-72 -70 -59 -36 20 -11 108 26 94 20 -8 27 12 10 26 -35 29 -106 -48 -88 -97
11 -31 46 -63 68 -63 30 0 69 41 83 88 28 93 0 305 -33 252z"/>
<path d="M12765 2602 c-22 -15 -39 -62 -27 -74 8 -8 16 -2 31 23 12 19 21 37
21 41 0 11 -15 17 -25 10z"/>
<path d="M11147 2507 c-31 -47 -83 -120 -117 -162 -58 -74 -100 -142 -100
-165 0 -22 28 -8 40 20 7 17 51 82 99 144 112 149 157 224 144 237 -7 7 -28
-16 -66 -74z"/>
<path d="M12900 2546 c0 -7 13 -16 29 -19 38 -8 56 -51 48 -117 -8 -63 -28
-102 -83 -156 -45 -46 -54 -64 -31 -64 13 0 67 53 105 104 60 79 55 222 -7
256 -28 14 -61 12 -61 -4z"/>
<path d="M11410 2465 c-41 -41 -78 -75 -82 -75 -4 0 -1 18 7 40 13 36 13 42
-1 47 -19 7 -16 12 -43 -77 -24 -78 -25 -130 -3 -138 8 -2 12 9 12 37 0 23 5
42 10 42 21 3 26 5 54 24 41 27 61 11 61 -51 0 -37 4 -49 15 -49 10 0 16 12
18 39 5 56 -5 84 -34 99 l-26 13 56 50 c54 47 70 74 43 74 -7 0 -46 -34 -87
-75z"/>
<path d="M7068 2503 c-24 -6 -23 -33 1 -33 23 0 38 18 25 29 -5 4 -17 6 -26 4z"/>
<path d="M8910 2495 c-7 -9 -10 -18 -7 -21 10 -10 47 7 47 22 0 19 -24 18 -40
-1z"/>
<path d="M13186 2481 c-12 -13 -14 -21 -6 -26 14 -9 63 23 55 35 -10 16 -30
12 -49 -9z"/>
<path d="M7652 2474 c-35 -24 -28 -57 20 -97 36 -30 40 -37 29 -50 -16 -20
-39 -11 -43 16 -2 11 -9 22 -15 25 -22 6 -15 -53 7 -73 28 -25 71 -10 85 29 9
26 6 32 -33 66 -50 45 -52 58 -12 67 17 3 30 12 30 19 0 19 -40 18 -68 -2z"/>
<path d="M7972 2468 c-17 -21 -44 -114 -40 -140 6 -41 32 -27 41 22 17 95 15
93 47 88 38 -6 41 18 4 32 -33 13 -39 13 -52 -2z"/>
<path d="M6747 2463 c-2 -5 -12 -33 -22 -65 -21 -63 -33 -65 -61 -12 -17 31
-49 53 -60 41 -7 -6 54 -95 72 -105 12 -7 10 -19 -12 -79 -25 -69 -27 -103 -4
-103 5 0 10 7 10 16 0 9 23 73 50 143 49 123 60 171 41 171 -6 0 -12 -3 -14
-7z"/>
<path d="M6438 2448 c-26 -19 -47 -79 -38 -104 11 -28 48 -54 77 -54 31 0 113
41 113 57 0 18 -13 16 -64 -9 -40 -19 -49 -20 -73 -9 -27 13 -27 14 -9 25 67
38 87 98 36 104 -14 2 -33 -3 -42 -10z m22 -43 c-7 -9 -15 -13 -17 -11 -7 7 7
26 19 26 6 0 6 -6 -2 -15z"/>
<path d="M8115 2429 c-31 -38 -27 -81 11 -116 29 -27 43 -28 89 -9 59 25 40
49 -21 26 -19 -8 -30 -7 -41 2 -12 10 -9 15 21 30 48 25 63 54 40 79 -26 29
-68 24 -99 -12z m72 -15 c4 -11 -54 -41 -62 -32 -3 2 3 14 11 27 16 22 44 25
51 5z"/>
<path d="M11809 2400 c-12 -33 -23 -60 -25 -60 -2 0 -13 18 -24 40 -19 38 -34
49 -43 33 -3 -5 8 -33 23 -64 l27 -56 -39 -93 c-21 -51 -38 -101 -38 -111 0
-33 25 -20 37 19 6 20 39 104 72 185 34 82 59 153 56 158 -13 20 -25 6 -46
-51z"/>
<path d="M12090 2428 c-16 -18 -30 -36 -30 -40 0 -5 -7 -8 -15 -8 -10 0 -15
-10 -15 -32 -1 -18 -7 -62 -15 -98 -19 -85 -19 -130 -1 -130 15 0 36 70 36
124 0 34 1 35 39 33 73 -3 117 73 83 143 -23 46 -45 49 -82 8z m60 -52 c0 -36
-25 -66 -57 -66 -36 0 -27 46 20 98 24 26 37 15 37 -32z"/>
<path d="M12255 2446 c-12 -9 -19 -30 -23 -67 -3 -44 0 -59 17 -81 25 -31 75
-45 97 -27 24 20 10 34 -29 31 -51 -5 -61 22 -20 54 37 29 46 56 26 83 -16 24
-41 27 -68 7z m45 -41 c0 -8 -9 -19 -20 -25 -23 -12 -27 -1 -9 31 11 21 29 17
29 -6z"/>
<path d="M12436 2448 c-10 -36 -26 -122 -26 -144 0 -15 6 -24 15 -24 8 0 15 3
15 8 0 4 11 25 25 47 18 27 25 34 24 20 -4 -57 14 -60 54 -8 l27 36 0 -36 c0
-48 16 -87 36 -87 13 0 15 5 8 23 -4 12 -8 51 -8 86 -1 38 -6 66 -12 68 -6 2
-25 -12 -43 -32 l-31 -36 0 35 c0 44 -13 52 -39 24 l-21 -22 0 22 c0 24 -18
40 -24 20z"/>
<path d="M9191 2413 c-33 -41 -36 -49 -21 -58 6 -3 10 -17 10 -30 0 -35 47
-75 88 -75 38 0 92 28 92 47 0 17 -11 16 -46 -2 -39 -20 -67 -19 -87 3 -24 27
-21 37 15 47 60 18 64 96 6 103 -19 2 -33 -6 -57 -35z m64 -2 c6 -10 -21 -41
-36 -41 -12 0 -11 7 1 31 11 20 25 25 35 10z"/>
<path d="M8286 2419 c-46 -36 -26 -99 32 -99 17 0 34 4 37 10 3 5 16 -2 29
-17 17 -19 28 -24 42 -19 18 8 18 9 -3 23 -17 11 -23 25 -23 52 0 65 -61 92
-114 50z m59 -23 c12 -12 11 -16 -5 -31 -21 -19 -50 -14 -50 9 0 8 8 20 18 25
22 13 21 13 37 -3z"/>
<path d="M11573 2418 c-29 -33 -36 -73 -19 -107 22 -41 77 -56 104 -29 21 21
13 29 -21 23 -23 -5 -37 -2 -46 8 -10 12 -6 19 24 37 34 21 53 58 40 79 -11
19 -61 12 -82 -11z m40 -30 c-13 -12 -26 -18 -30 -14 -4 4 1 14 11 22 31 22
43 17 19 -8z"/>
<path d="M10103 2395 c-44 -19 -66 -55 -54 -88 17 -44 76 -61 123 -36 16 9 18
13 7 20 -8 4 -24 6 -36 3 -31 -8 -63 5 -63 25 0 21 26 46 58 56 13 4 21 12 19
18 -5 17 -19 17 -54 2z"/>
<path d="M8880 2398 c-1 -2 -3 -29 -5 -60 -3 -31 -5 -60 -6 -65 -4 -20 2 -33
15 -33 10 0 16 20 21 69 7 69 3 91 -16 91 -5 0 -9 -1 -9 -2z"/>
<path d="M9896 2369 c-14 -11 -30 -17 -36 -14 -11 7 -26 -25 -32 -66 -5 -37
17 -29 51 19 50 67 78 52 46 -25 -18 -44 -18 -43 1 -43 17 0 44 57 44 94 0 24
-23 56 -39 56 -5 0 -20 -9 -35 -21z"/>
<path d="M7023 2355 c-3 -9 -3 -18 0 -21 9 -10 57 8 57 22 0 19 -49 18 -57 -1z"/>
<path d="M9748 2320 c-11 -27 -23 -50 -27 -50 -3 0 -17 19 -29 41 -17 29 -27
38 -34 31 -11 -11 11 -70 37 -102 10 -12 6 -32 -23 -108 -27 -69 -33 -95 -24
-104 9 -9 13 -7 18 8 4 10 34 84 67 164 32 80 61 151 64 158 3 6 -2 12 -11 12
-11 0 -25 -18 -38 -50z"/>
<path d="M13167 2300 c5 -35 2 -43 -27 -70 -23 -21 -39 -29 -52 -24 -15 5 -19
2 -16 -13 2 -10 13 -19 25 -21 28 -4 99 59 106 95 6 34 -8 73 -27 73 -11 0
-13 -9 -9 -40z"/>
<path d="M11906 2304 c-9 -24 -7 -34 7 -34 14 0 39 35 30 44 -12 11 -31 6 -37
-10z"/>
<path d="M7787 2293 c-4 -3 -7 -15 -7 -25 0 -28 34 -19 38 10 3 21 -16 31 -31
15z"/>
<path d="M10780 2259 c0 -14 5 -19 17 -17 26 5 29 38 4 38 -15 0 -21 -6 -21
-21z"/>
<path d="M9520 2212 c-29 -9 -60 -46 -60 -71 0 -19 18 -42 64 -86 75 -71 106
-118 106 -162 0 -29 -3 -33 -26 -33 -35 0 -64 17 -58 34 8 20 -10 28 -30 13
-16 -12 -16 -14 4 -39 38 -49 138 -56 142 -11 6 73 -25 135 -99 203 -68 62
-76 75 -63 100 13 24 65 28 74 5 5 -15 36 -21 36 -7 0 32 -55 65 -90 54z"/>
<path d="M7463 2159 c-55 -35 -77 -135 -47 -214 4 -8 -15 -15 -57 -21 -37 -5
-64 -14 -67 -23 -4 -11 9 -12 66 -6 l70 7 8 -48 c6 -39 4 -49 -11 -60 -17 -12
-17 -14 -1 -20 31 -12 49 16 43 69 -4 47 -3 48 19 43 36 -9 31 23 -5 35 -26 9
-31 18 -41 66 -7 30 -9 66 -5 80 9 37 59 83 90 83 17 0 25 5 23 13 -7 20 -51
19 -85 -4z"/>
<path d="M13336 2151 c-3 -4 10 -24 29 -43 38 -40 60 -105 51 -153 -9 -45 -75
-144 -121 -183 -33 -26 -36 -32 -21 -38 23 -9 90 56 136 133 30 49 35 66 35
118 -1 64 -16 101 -59 148 -26 28 -41 33 -50 18z"/>
<path d="M8530 2100 c0 -17 6 -43 14 -58 23 -44 31 -104 15 -101 -31 6 -57
-13 -72 -53 -14 -34 -14 -46 -4 -67 25 -52 95 -32 117 34 14 43 7 108 -21 179
-10 27 -16 60 -13 73 5 19 2 23 -15 23 -17 0 -21 -6 -21 -30z m46 -222 c-12
-60 -66 -80 -66 -25 0 39 15 57 48 57 22 0 24 -3 18 -32z"/>
<path d="M9119 2013 c-2 -171 2 -193 31 -193 11 0 20 7 20 15 0 8 -4 15 -10
15 -6 0 -10 53 -10 140 0 118 -2 140 -15 140 -12 0 -15 -20 -16 -117z"/>
<path d="M10683 2113 c-7 -3 -13 -13 -13 -23 0 -10 -4 -22 -10 -25 -15 -9 -12
-35 4 -35 7 0 21 16 31 36 17 36 12 56 -12 47z"/>
<path d="M13163 2069 c-22 -49 -23 -76 -2 -63 13 8 49 80 49 99 0 32 -26 12
-47 -36z"/>
<path d="M8870 2100 c0 -5 -6 -10 -14 -10 -16 0 -50 -30 -42 -37 8 -8 116 18
116 27 0 10 -33 30 -49 30 -6 0 -11 -4 -11 -10z"/>
<path d="M11158 2068 c-22 -43 -32 -62 -106 -198 -43 -78 -54 -130 -27 -130 9
0 15 9 15 23 0 12 18 54 38 92 95 176 115 211 123 220 14 14 11 35 -6 35 -8 0
-24 -19 -37 -42z"/>
<path d="M6680 2066 c0 -18 -3 -47 -6 -63 -5 -26 -9 -29 -35 -25 -21 3 -29 0
-29 -11 0 -9 10 -17 23 -19 15 -2 23 -11 25 -28 6 -48 24 -79 57 -94 40 -19
67 -20 83 -4 20 20 14 25 -29 24 -46 -1 -79 28 -79 70 0 21 5 24 39 24 47 0
55 9 41 44 -11 31 -30 34 -30 6 0 -13 -7 -20 -19 -20 -17 0 -18 6 -15 65 4 54
2 65 -11 65 -10 0 -15 -10 -15 -34z"/>
<path d="M10504 2081 c-48 -30 -103 -101 -119 -155 -34 -113 -10 -253 50 -292
32 -21 96 -24 103 -5 3 10 -1 13 -14 9 -27 -7 -75 23 -101 62 -19 27 -23 46
-23 109 1 42 7 93 14 113 17 48 67 110 103 127 15 7 34 16 41 20 8 3 14 11 15
16 3 18 -37 16 -69 -4z"/>
<path d="M11950 2065 c-5 -14 -10 -33 -10 -40 0 -8 -9 -19 -21 -25 -15 -9 -18
-15 -10 -24 6 -7 8 -27 5 -43 -6 -30 8 -71 30 -85 32 -22 93 9 68 34 -8 8 -16
8 -28 -3 -14 -11 -18 -11 -30 6 -17 22 -17 26 -4 59 7 20 17 25 51 28 58 4 65
28 9 28 -41 0 -42 1 -36 28 11 48 11 55 -1 59 -7 3 -17 -7 -23 -22z"/>
<path d="M8700 2065 c0 -18 31 -20 48 -3 9 9 12 9 12 -1 0 -16 42 -10 48 7 3
8 -12 12 -52 12 -43 0 -56 -3 -56 -15z"/>
<path d="M8740 2015 c-5 -14 -10 -37 -10 -51 0 -17 -8 -27 -26 -34 -30 -12
-27 -36 4 -32 11 2 24 -2 28 -9 5 -8 3 -9 -6 -4 -9 6 -11 -2 -5 -36 8 -49 20
-68 34 -54 6 6 6 29 1 55 -9 49 -1 62 35 55 11 -2 31 -6 45 -9 25 -5 59 8 49
19 -4 3 -34 11 -69 17 -59 11 -61 13 -57 37 12 56 12 64 0 68 -7 3 -17 -7 -23
-22z"/>
<path d="M13610 2011 c0 -32 6 -37 28 -22 19 11 11 45 -11 49 -13 3 -17 -3
-17 -27z"/>
<path d="M12412 1995 c-12 -15 -23 -21 -27 -15 -12 20 -22 1 -23 -48 0 -27
-10 -87 -21 -132 -12 -46 -19 -85 -16 -88 13 -14 32 12 44 59 7 30 15 61 17
70 3 9 17 19 32 22 40 8 82 45 82 72 0 23 -44 85 -60 85 -5 0 -18 -11 -28 -25z
m58 -56 c0 -9 -50 -49 -61 -49 -15 0 -10 23 12 60 20 32 22 33 35 15 8 -10 14
-22 14 -26z"/>
<path d="M7050 2000 c0 -13 38 -32 51 -25 14 10 -9 35 -32 35 -11 0 -19 -4
-19 -10z"/>
<path d="M9266 1980 c-14 -17 -26 -41 -26 -52 0 -36 47 -104 81 -118 28 -12
36 -11 85 13 38 19 52 31 48 41 -5 13 -14 11 -56 -10 -46 -23 -51 -24 -74 -10
-13 9 -30 29 -38 44 l-14 27 41 0 c34 0 44 5 57 27 20 37 5 62 -42 66 -29 3
-40 -2 -62 -28z m77 -14 c3 -15 -29 -30 -49 -22 -18 7 -18 8 1 22 21 15 45 15
48 0z"/>
<path d="M8977 1994 c-14 -15 -6 -34 14 -34 14 0 19 5 17 17 -3 18 -20 27 -31
17z"/>
<path d="M12582 1993 c-20 -8 -42 -59 -42 -96 0 -56 61 -97 114 -77 39 15 28
35 -17 32 -54 -5 -62 6 -25 32 66 44 41 138 -30 109z m38 -48 c0 -17 -7 -28
-22 -34 -29 -11 -34 3 -14 34 21 32 36 32 36 0z"/>
<path d="M12795 1986 c-24 -7 -33 -18 -47 -59 -10 -28 -15 -54 -12 -59 11 -18
26 -6 44 36 24 56 40 67 40 27 0 -36 11 -39 50 -11 l29 20 13 -27 c15 -31 63
-41 63 -13 0 8 -8 14 -17 14 -15 -2 -18 6 -18 42 0 51 -10 54 -57 18 -23 -18
-33 -21 -33 -11 0 24 -23 34 -55 23z"/>
<path d="M6133 1974 c-55 -27 -67 -47 -53 -88 6 -20 24 -45 40 -56 34 -24 90
-27 90 -5 0 10 -10 15 -28 15 -31 0 -72 36 -72 63 0 22 45 51 70 44 25 -6 36
9 20 28 -16 19 -27 18 -67 -1z"/>
<path d="M8010 1977 c-13 -7 -30 -24 -37 -37 -15 -30 -17 -136 -3 -145 14 -8
30 38 30 85 0 56 8 70 41 70 31 0 41 23 13 34 -19 7 -14 8 -44 -7z"/>
<path d="M10145 1966 c-26 -40 -30 -88 -8 -115 16 -20 25 -23 55 -17 49 9 77
31 61 47 -8 8 -13 9 -13 3 0 -6 -6 -11 -12 -11 -7 0 -22 -3 -34 -7 -14 -4 -26
-1 -35 10 -11 13 -10 22 9 57 12 23 22 45 22 50 0 16 -31 5 -45 -17z"/>
<path d="M11340 1958 c-26 -42 -25 -79 1 -112 22 -28 56 -34 90 -16 32 18 23
33 -15 26 -56 -11 -79 24 -54 79 10 21 17 26 40 23 16 -3 29 1 32 8 7 18 -3
24 -41 24 -27 0 -37 -6 -53 -32z"/>
<path d="M11534 1956 c-28 -28 -34 -42 -34 -75 0 -59 29 -85 84 -77 43 7 86
30 86 46 0 13 -16 13 -42 -1 -32 -17 -69 -21 -84 -8 -24 20 -16 44 18 54 38
12 72 54 62 78 -10 28 -53 20 -90 -17z m56 0 c0 -9 -32 -36 -42 -36 -6 0 0 9
13 20 25 21 29 23 29 16z"/>
<path d="M6286 1959 c-45 -36 -28 -117 29 -139 30 -11 95 6 95 25 0 17 -9 19
-44 5 -19 -7 -30 -5 -48 10 -18 15 -19 19 -7 20 20 0 49 31 49 53 0 16 -26 47
-39 47 -5 0 -20 -9 -35 -21z m34 -34 c0 -8 -7 -15 -15 -15 -16 0 -20 12 -8 23
11 12 23 8 23 -8z"/>
<path d="M7620 1973 c-24 -9 -60 -45 -60 -61 0 -7 20 -34 46 -58 25 -24 42
-49 39 -54 -9 -14 -46 -13 -42 1 4 18 -22 22 -29 5 -15 -39 55 -67 87 -35 28
28 24 45 -26 98 -39 42 -43 50 -30 61 9 7 25 10 41 6 22 -6 25 -4 22 16 -3 23
-21 31 -48 21z"/>
<path d="M11764 1957 c-35 -30 -41 -102 -9 -102 17 0 20 6 18 38 -2 32 1 39
22 47 28 11 32 25 10 34 -8 3 -27 -5 -41 -17z"/>
<path d="M6468 1958 c-22 -18 -29 -56 -18 -102 10 -46 25 -65 40 -50 7 7 6 24
-5 53 -21 59 -7 84 41 75 38 -7 47 8 15 26 -26 14 -54 13 -73 -2z"/>
<path d="M8331 1957 c-13 -6 -33 -24 -44 -39 -39 -52 7 -108 64 -78 18 10 23
10 31 -4 14 -26 41 -21 32 6 -4 13 -7 42 -7 66 0 37 -4 45 -24 53 -29 11 -23
11 -52 -4z m34 -56 c-7 -23 -40 -45 -54 -36 -14 8 -1 44 22 60 25 18 42 6 32
-24z"/>
<path d="M9960 1940 c-31 -34 -40 -37 -40 -15 0 8 -7 15 -15 15 -12 0 -15 -13
-15 -55 0 -41 4 -55 14 -55 8 0 17 8 20 18 4 10 22 33 41 52 l35 34 0 -35 c0
-18 5 -41 10 -49 16 -26 26 2 22 63 -3 49 -7 57 -24 57 -11 0 -33 -13 -48 -30z"/>
<path d="M8127 1942 c-19 -21 -37 -66 -37 -93 0 -33 44 -69 85 -69 39 0 75 15
75 31 0 6 -18 7 -48 3 -39 -5 -52 -3 -67 12 -18 18 -17 19 15 25 45 10 62 45
44 93 -8 21 -47 20 -67 -2z m43 -32 c0 -20 -25 -38 -37 -26 -5 5 24 46 34 46
1 0 3 -9 3 -20z"/>
<path d="M9814 1904 l-18 -47 -20 42 c-11 22 -26 41 -33 41 -19 0 -16 -14 11
-68 l24 -48 -25 -52 c-32 -67 -42 -132 -21 -132 10 0 18 13 21 35 3 19 26 79
50 133 57 125 62 142 44 142 -9 0 -23 -20 -33 -46z"/>
<path d="M7040 1886 c0 -9 7 -16 16 -16 9 0 14 5 12 12 -6 18 -28 21 -28 4z"/>
<path d="M8947 1884 c-11 -11 -8 -62 4 -69 14 -9 17 -5 21 34 3 32 -10 50 -25
35z"/>
<path d="M12186 1848 c-20 -28 -20 -38 -3 -38 16 0 47 32 47 48 0 20 -28 13
-44 -10z"/>
<path d="M13595 1853 c16 -38 15 -59 -4 -90 -28 -45 -67 -67 -112 -66 -27 1
-39 -2 -39 -11 0 -16 43 -30 48 -16 2 6 14 7 27 4 17 -4 33 3 64 31 49 44 70
102 53 140 -13 29 -49 36 -37 8z"/>
<path d="M10831 1831 c-19 -12 -6 -43 16 -39 10 2 18 12 18 22 0 22 -14 29
-34 17z"/>
<path d="M5236 1812 c-4 -4 -28 -7 -54 -8 -60 -2 -97 -17 -117 -48 -21 -32
-14 -53 36 -113 53 -65 66 -112 44 -169 -18 -47 -56 -84 -86 -84 -21 0 -52 41
-47 64 3 14 0 16 -22 16 -17 0 -11 -43 10 -77 47 -77 159 -13 184 104 10 46
-8 101 -54 161 -47 62 -50 86 -12 100 77 30 86 25 83 -45 -1 -32 3 -43 13 -43
10 0 17 16 22 46 3 25 15 54 26 64 20 18 20 18 0 29 -11 6 -23 7 -26 3z"/>
<path d="M7744 1799 c-8 -14 11 -33 25 -25 11 7 4 36 -9 36 -5 0 -12 -5 -16
-11z"/>
<path d="M12880 1783 c-54 -37 -84 -99 -101 -212 -12 -80 -13 -81 -42 -81 -34
0 -33 -23 2 -28 15 -3 20 -9 17 -20 -3 -9 -8 -29 -12 -44 -3 -16 -10 -28 -15
-28 -5 0 -9 -7 -9 -15 0 -18 24 -20 38 -2 6 7 16 32 22 57 10 41 14 45 42 45
40 0 49 22 11 27 -27 3 -28 4 -25 58 5 112 56 220 102 220 25 0 36 20 19 31
-19 12 -21 11 -49 -8z"/>
<path d="M12072 1778 c-6 -8 -16 -45 -22 -83 -7 -47 -27 -105 -62 -177 -46
-96 -55 -138 -30 -138 5 0 27 23 51 52 l42 51 -7 -56 c-6 -48 -4 -57 9 -57 11
0 17 16 22 59 4 33 4 65 0 70 -9 15 -38 14 -54 -1 -7 -7 -2 10 12 37 14 28 34
93 45 145 20 91 18 126 -6 98z"/>
<path d="M2505 1765 c-97 -12 -202 -24 -217 -25 -14 0 -8 -30 6 -30 7 0 77 7
156 16 78 8 148 13 154 11 7 -3 19 -1 26 3 11 7 11 11 1 24 -8 9 -16 15 -20
15 -3 -1 -51 -7 -106 -14z"/>
<path d="M4545 1739 c-84 -41 -117 -52 -143 -50 -25 3 -23 6 -47 -102 -15 -64
-22 -81 -42 -90 -25 -11 -26 -33 -1 -31 14 1 14 -5 2 -50 -17 -64 -17 -66 1
-66 8 0 18 17 25 43 29 115 32 118 133 121 36 1 47 4 45 16 -5 22 -83 26 -115
5 -13 -9 -26 -15 -28 -13 -1 2 5 32 14 67 14 54 21 66 41 71 61 17 200 84 200
96 0 20 -17 16 -85 -17z"/>
<path d="M2660 1719 c0 -22 -20 -100 -45 -173 -25 -74 -45 -137 -45 -140 0
-18 29 1 78 52 68 70 77 57 36 -54 -20 -56 -24 -78 -16 -86 15 -15 14 -17 46
74 45 126 24 180 -48 124 l-33 -25 28 91 c32 103 38 178 14 178 -11 0 -15 -11
-15 -41z"/>
<path d="M11937 1743 c-4 -3 -7 -13 -7 -22 0 -9 -12 -46 -26 -83 -25 -66 -26
-67 -66 -70 -54 -4 -64 -28 -13 -28 34 0 37 -2 31 -22 -30 -104 -35 -133 -26
-142 10 -10 20 10 46 97 9 31 22 57 29 57 7 0 18 7 25 15 10 12 9 16 -3 21
-12 4 -10 17 15 81 27 72 30 103 10 103 -5 0 -12 -3 -15 -7z"/>
<path d="M4716 1713 c-3 -3 -6 -18 -6 -31 0 -14 -18 -80 -39 -146 -49 -150
-53 -181 -27 -181 16 0 21 8 23 42 1 23 18 89 38 147 19 58 35 118 35 135 0
30 -11 46 -24 34z"/>
<path d="M7106 1704 c-3 -8 -6 -25 -6 -37 0 -12 -10 -54 -22 -92 l-22 -71 -58
-2 c-33 -2 -58 2 -58 7 0 6 9 34 19 63 29 80 34 118 15 118 -8 0 -16 -6 -18
-12 -2 -7 -14 -48 -27 -91 -22 -76 -23 -78 -53 -75 -41 4 -43 -26 -3 -30 23
-3 27 -7 21 -24 -12 -39 -21 -129 -12 -134 16 -10 28 7 28 39 0 18 5 49 11 70
10 36 11 37 57 37 27 0 54 6 61 13 7 6 3 -12 -8 -41 -12 -29 -21 -59 -21 -67
0 -25 27 -17 50 15 11 16 34 39 51 50 l29 22 -6 -58 c-6 -46 -4 -56 7 -52 15
5 26 43 28 101 1 33 -2 37 -23 37 -13 0 -35 -9 -50 -21 -14 -11 -26 -18 -26
-15 0 2 12 37 26 76 33 93 45 167 29 180 -9 8 -14 6 -19 -6z"/>
<path d="M11346 1708 c-1 -7 -11 -40 -22 -73 -17 -53 -22 -61 -49 -65 -19 -3
-31 -12 -33 -24 -3 -16 0 -18 22 -12 31 8 31 8 6 -73 -23 -71 -20 -102 5 -81
8 7 15 20 15 29 0 10 9 45 21 79 22 65 33 73 118 84 14 2 27 9 29 17 4 11 -7
13 -56 7 l-61 -7 14 35 c8 20 15 46 15 60 0 27 -18 45 -24 24z"/>
<path d="M4185 1613 c0 -107 -12 -157 -52 -203 -32 -38 -83 -43 -83 -7 0 28
26 67 46 67 15 0 19 25 5 34 -30 19 -81 -50 -81 -108 0 -30 5 -38 25 -46 59
-22 129 31 156 119 17 56 23 194 10 219 -21 40 -27 23 -26 -75z"/>
<path d="M9485 1616 c-24 -75 -34 -93 -49 -92 -11 1 -21 -5 -23 -11 -3 -8 4
-13 17 -13 18 0 20 -4 14 -22 -11 -37 -23 -92 -20 -95 8 -8 36 11 36 24 0 9 5
33 12 54 10 35 14 39 45 39 43 0 46 27 4 32 l-30 3 28 82 c15 46 26 85 23 88
-17 16 -30 -5 -57 -89z"/>
<path d="M13127 1700 c-5 -13 -46 -157 -83 -294 -8 -27 -11 -53 -8 -58 13 -20
28 1 40 53 7 30 26 101 43 159 23 77 29 112 22 130 -6 18 -10 21 -14 10z"/>
<path d="M10907 1694 c-3 -3 -3 -12 0 -19 2 -8 -6 -46 -18 -86 -13 -40 -25
-67 -27 -61 -2 7 -21 12 -43 12 -38 0 -39 1 -33 28 4 15 11 37 15 50 13 34 11
62 -3 62 -8 0 -22 -32 -33 -73 -19 -69 -21 -72 -52 -75 -40 -4 -46 -32 -8 -32
27 0 29 -3 16 -28 -4 -9 -11 -30 -15 -45 -5 -23 -4 -28 10 -25 9 2 23 24 32
53 l17 50 49 3 c43 3 48 1 41 -15 -3 -10 -9 -33 -12 -50 -4 -26 -2 -33 10 -33
9 0 21 9 27 21 12 21 28 38 70 74 l23 20 -12 -22 c-15 -30 -15 -86 1 -81 13 5
28 53 31 98 3 32 -27 39 -56 12 -43 -37 -45 -31 -17 55 15 48 26 93 23 100 -5
13 -25 17 -36 7z"/>
<path d="M2490 1665 c-15 -39 -70 -264 -70 -286 0 -10 6 -19 13 -19 7 0 26 59
50 158 21 86 38 160 37 165 -1 17 -21 5 -30 -18z"/>
<path d="M7606 1678 c-3 -7 -9 -42 -16 -78 -17 -100 -38 -154 -74 -196 -39
-45 -53 -41 -32 9 9 23 20 35 33 34 12 -1 19 6 21 21 4 30 -30 30 -58 0 -28
-30 -47 -95 -34 -116 19 -29 35 -24 84 26 35 37 52 65 65 108 23 76 44 187 38
197 -7 11 -23 8 -27 -5z"/>
<path d="M8726 1682 c-4 -7 -26 -125 -26 -143 0 -4 -14 -12 -31 -19 -36 -15
-69 -74 -69 -124 0 -119 108 19 136 172 7 42 13 87 14 100 0 22 -14 30 -24 14z
m-66 -241 c-21 -42 -30 -51 -30 -28 0 16 40 81 46 74 3 -3 -4 -23 -16 -46z"/>
<path d="M8330 1620 c0 -24 27 -37 43 -21 8 8 6 15 -9 26 -26 20 -34 19 -34
-5z"/>
<path d="M8851 1601 c-17 -11 -5 -31 19 -31 24 0 36 20 19 31 -8 5 -16 9 -19
9 -3 0 -11 -4 -19 -9z"/>
<path d="M3599 1573 c-15 -9 -34 -29 -43 -44 -10 -18 -22 -26 -31 -22 -8 3
-15 1 -15 -3 -5 -83 -7 -112 -11 -124 -2 -9 2 -15 11 -15 10 0 22 23 35 63 24
73 69 135 83 114 7 -10 11 -10 22 3 10 12 10 18 0 30 -15 19 -19 18 -51 -2z"/>
<path d="M4564 1579 c-10 -17 13 -36 27 -22 12 12 4 33 -11 33 -5 0 -12 -5
-16 -11z"/>
<path d="M12945 1570 c-4 -6 -1 -18 6 -26 12 -14 14 -14 26 2 7 9 10 21 7 25
-7 12 -31 11 -39 -1z"/>
<path d="M13960 1565 c0 -15 26 -32 36 -23 2 3 2 13 -2 22 -8 20 -34 21 -34 1z"/>
<path d="M9953 1558 c-35 -17 -38 -45 -9 -86 30 -42 21 -62 -18 -44 -19 9 -27
8 -36 -3 -10 -12 -7 -17 15 -25 53 -20 95 -7 95 31 0 9 -11 32 -25 52 -25 37
-20 53 14 42 24 -7 37 11 21 30 -14 17 -26 18 -57 3z"/>
<path d="M3708 1523 c-24 -26 -48 -71 -48 -93 0 -5 12 -22 26 -39 22 -27 32
-31 75 -31 38 0 49 3 49 16 0 15 2 15 25 0 27 -18 66 -13 86 10 9 11 14 10 30
-9 22 -26 21 -30 25 61 2 57 0 72 -12 72 -8 0 -14 -10 -15 -22 l0 -23 -9 23
c-5 12 -17 25 -26 29 -24 9 -84 -58 -84 -94 0 -27 -3 -28 -51 -31 -48 -3 -79
9 -79 29 0 5 6 9 14 9 24 0 76 50 76 74 0 50 -43 60 -82 19z m33 -44 c-35 -28
-45 -23 -19 11 15 21 25 27 32 19 8 -7 4 -16 -13 -30z m176 -15 c20 -19 9 -42
-28 -61 -21 -11 -24 -10 -27 7 -3 17 24 70 35 70 2 0 12 -7 20 -16z"/>
<path d="M11119 1542 c-8 -4 -32 -26 -53 -49 -52 -59 -39 -89 27 -64 21 8 26
6 30 -10 8 -31 24 -22 30 19 6 49 -4 57 -44 37 l-34 -18 24 27 c14 14 32 26
42 26 24 0 35 20 18 31 -16 10 -18 10 -40 1z"/>
<path d="M4810 1533 c-23 -9 -61 -45 -76 -76 -16 -30 -10 -49 26 -82 40 -36
140 -14 140 32 0 17 -15 17 -30 -2 -15 -18 -81 -20 -98 -3 -7 7 -12 19 -12 29
0 23 36 65 61 72 20 5 20 5 3 -14 -9 -10 -23 -19 -31 -19 -7 0 -13 -7 -13 -15
0 -21 26 -19 60 7 32 23 38 46 18 66 -13 13 -24 14 -48 5z"/>
<path d="M5230 1494 c0 -20 9 -55 21 -78 l20 -42 -42 -74 c-24 -41 -49 -79
-56 -83 -10 -6 -10 -13 -3 -28 12 -22 40 -26 40 -5 0 20 68 146 93 174 11 12
18 22 14 22 -4 0 9 31 28 69 40 79 40 81 20 81 -9 0 -27 -24 -41 -55 -15 -30
-30 -55 -34 -55 -12 0 -30 49 -30 80 0 20 -5 30 -15 30 -11 0 -15 -11 -15 -36z"/>
<path d="M5503 1509 c6 -24 -29 -109 -45 -109 -14 0 -9 -27 8 -41 13 -10 17
-10 25 2 5 8 7 22 5 32 -2 9 -1 17 3 17 13 0 43 76 39 96 -2 10 -12 20 -22 22
-15 3 -18 0 -13 -19z"/>
<path d="M6484 1496 c-29 -29 -34 -31 -34 -15 0 25 -26 35 -47 18 -13 -11 -17
-11 -20 -1 -10 29 -31 7 -51 -56 -26 -80 -27 -92 -8 -92 8 0 28 24 45 54 34
61 57 84 41 41 -26 -68 6 -75 59 -13 20 23 35 45 34 49 -1 4 6 9 17 12 11 3
17 0 15 -7 -2 -6 -11 -35 -20 -64 -13 -42 -14 -56 -5 -67 18 -22 30 -18 28 8
0 12 7 48 16 80 10 32 15 65 12 73 -9 24 -47 15 -82 -20z"/>
<path d="M9702 1523 c-27 -5 -62 -57 -62 -91 0 -52 91 -98 146 -73 36 16 30
34 -9 27 -58 -11 -137 33 -88 49 29 9 74 62 68 79 -6 16 -12 17 -55 9z"/>
<path d="M12171 1495 c-17 -20 -31 -32 -31 -28 0 4 -6 1 -12 -6 -11 -10 -10
-15 3 -24 9 -7 19 -25 23 -42 16 -66 70 -84 134 -45 53 32 36 56 -18 25 -40
-23 -69 -19 -80 11 -13 33 -14 31 13 38 26 6 60 67 51 91 -11 27 -50 17 -83
-20z m35 -33 c-23 -23 -33 -6 -10 19 12 13 20 16 22 9 3 -7 -3 -19 -12 -28z"/>
<path d="M2798 1503 c-47 -54 -50 -103 -8 -144 23 -23 35 -29 52 -24 32 10 95
54 102 71 10 26 -12 24 -49 -6 -42 -33 -79 -39 -93 -14 -8 14 -1 21 32 39 43
23 57 54 36 81 -17 19 -54 18 -72 -3z m52 -22 c0 -12 -42 -42 -49 -36 -5 6 29
45 41 45 4 0 8 -4 8 -9z"/>
<path d="M5399 1454 c-45 -102 -18 -102 54 -1 38 55 45 84 12 57 -10 -8 -15
-9 -15 -1 0 30 -24 4 -51 -55z"/>
<path d="M5645 1477 c-25 -24 -45 -50 -45 -56 0 -7 13 -26 29 -42 32 -31 84
-39 135 -19 33 12 36 46 4 35 -68 -22 -128 -13 -128 19 0 23 40 66 61 66 14 0
19 6 17 17 -6 31 -29 25 -73 -20z"/>
<path d="M6674 1493 c-13 -14 -24 -32 -24 -39 0 -7 -6 -11 -14 -8 -20 8 -29
-12 -12 -28 7 -8 17 -29 21 -46 10 -46 46 -68 85 -52 31 13 56 37 48 45 -3 3
-21 -2 -41 -10 -36 -15 -37 -14 -53 10 -9 14 -15 27 -13 28 2 1 17 9 34 17 32
17 40 37 31 75 -9 35 -34 39 -62 8z m24 -54 c-18 -12 -23 8 -6 28 12 15 13 15
16 -2 2 -10 -2 -21 -10 -26z"/>
<path d="M8961 1494 c-40 -33 -42 -74 -5 -103 38 -30 104 -26 104 5 0 10 -8
12 -29 8 -55 -11 -94 35 -56 66 9 7 31 13 50 12 40 -2 49 22 13 32 -37 9 -45
7 -77 -20z"/>
<path d="M13170 1481 c-17 -17 -30 -40 -30 -55 0 -61 39 -104 82 -90 28 9 108
83 108 100 0 22 -14 17 -46 -17 -35 -37 -76 -60 -90 -51 -6 4 -13 15 -17 24
-5 14 3 23 34 38 34 18 40 25 37 48 -4 40 -40 41 -78 3z m40 -15 c0 -2 -7 -7
-16 -10 -8 -3 -12 -2 -9 4 6 10 25 14 25 6z"/>
<path d="M8422 1470 c-49 -35 -70 -68 -49 -76 8 -3 31 13 54 36 52 51 63 51
56 -1 -5 -33 -3 -41 8 -37 16 5 34 71 25 93 -9 24 -50 17 -94 -15z"/>
<path d="M9165 1475 c-27 -26 -29 -33 -16 -54 6 -10 21 -12 49 -8 40 5 41 4
44 -26 3 -33 38 -54 38 -23 0 9 -4 16 -9 16 -9 0 -5 45 5 61 2 5 2 20 -2 34
-5 21 -12 25 -46 25 -28 0 -46 -7 -63 -25z m61 -20 c-27 -21 -53 -20 -36 0 7
8 22 15 34 15 21 -1 21 -1 2 -15z"/>
<path d="M14072 1480 c-45 -20 -55 -47 -26 -70 8 -8 20 -22 26 -33 9 -18 8
-19 -20 -14 -17 4 -34 3 -37 -2 -9 -16 23 -32 57 -29 43 4 48 34 13 76 -25 30
-25 31 -6 41 11 6 26 11 35 11 21 0 28 16 13 28 -9 8 -25 5 -55 -8z"/>
<path d="M7270 1451 c-59 -58 -25 -136 49 -110 67 24 70 114 3 134 -17 5 -29
-1 -52 -24z m68 -34 c5 -25 -16 -47 -44 -47 -26 0 -31 18 -13 51 13 25 52 22
57 -4z"/>
<path d="M8282 1435 c-25 -51 -28 -85 -9 -85 6 0 22 27 35 59 26 68 26 71 9
71 -7 0 -23 -20 -35 -45z"/>
<path d="M8797 1445 c-20 -42 -22 -75 -4 -75 11 0 20 19 44 93 10 33 -23 18
-40 -18z"/>
<path d="M4496 1454 c-9 -24 -7 -84 3 -84 7 0 31 73 31 94 0 13 -28 5 -34 -10z"/>
<path d="M13895 1459 c-14 -40 -35 -116 -35 -131 0 -10 6 -18 13 -18 19 0 54
137 39 152 -8 8 -13 8 -17 -3z"/>
<path d="M12888 1433 c-38 -47 -47 -70 -34 -88 16 -22 36 -12 36 19 0 13 9 35
20 48 27 36 7 55 -22 21z"/>
<path d="M7721 1334 c-11 -14 -21 -30 -24 -37 -3 -9 -8 -9 -19 1 -10 8 -19 9
-22 3 -9 -14 11 -61 26 -61 15 0 89 106 81 114 -11 11 -21 6 -42 -20z"/>
<path d="M2015 1312 c6 -29 1 -54 -32 -171 l-15 -53 -40 6 c-34 6 -39 4 -36
-11 2 -12 14 -19 36 -21 29 -3 32 -6 26 -30 -4 -15 -11 -37 -15 -50 -14 -37
-11 -60 11 -82 25 -25 61 -26 90 -2 31 25 18 48 -15 26 -35 -23 -69 -3 -60 34
22 93 25 99 46 98 12 -1 24 5 26 12 3 6 -2 12 -11 12 -26 0 -26 13 0 101 28
97 29 152 1 157 -16 3 -18 -1 -12 -26z"/>
<path d="M15046 1306 c-8 -20 -41 -67 -72 -104 -50 -59 -62 -68 -98 -72 -45
-6 -55 -21 -17 -27 34 -5 35 -7 17 -42 -35 -66 -10 -131 50 -131 27 0 34 4 34
20 0 16 -5 19 -23 15 -33 -9 -51 16 -43 60 11 55 42 83 111 98 70 15 75 33 9
29 l-46 -2 51 61 c54 64 71 103 53 121 -7 7 -15 0 -26 -26z"/>
<path d="M14272 1323 c-21 -8 -63 -81 -108 -188 l-42 -100 -46 -9 c-52 -10
-57 -31 -8 -31 18 0 32 -1 32 -2 0 -1 -9 -18 -21 -37 -20 -34 -19 -56 2 -56 5
0 19 21 30 46 12 25 33 51 46 57 25 11 30 23 12 29 -14 5 24 108 73 201 32 59
48 72 48 37 0 -29 28 -25 36 5 10 39 -17 63 -54 48z"/>
<path d="M6902 1273 c-11 -15 -52 -82 -91 -148 -40 -66 -85 -132 -101 -147
-35 -32 -38 -48 -11 -48 12 0 33 18 53 46 29 40 93 83 106 70 2 -3 -1 -27 -8
-55 -11 -48 -7 -77 10 -66 4 3 11 17 14 32 24 98 26 101 56 108 38 8 42 40 4
32 -19 -3 -24 -1 -20 10 3 7 13 41 21 74 26 100 8 150 -33 92z m-4 -112 c-17
-58 -27 -75 -46 -82 -14 -5 -27 -8 -29 -6 -2 2 12 31 30 63 43 75 61 104 64
101 1 -2 -8 -36 -19 -76z"/>
<path d="M2777 1284 c-4 -4 -7 -32 -7 -63 0 -57 -26 -166 -56 -234 -23 -51 -8
-87 37 -87 25 0 42 10 74 44 52 53 63 94 33 119 -26 22 -31 22 -65 -7 l-29
-24 22 86 c13 50 20 102 17 122 -6 38 -16 54 -26 44z m63 -254 c0 -36 -56
-100 -87 -100 -20 0 -16 14 22 64 33 43 65 60 65 36z"/>
<path d="M8247 1283 c-2 -4 -8 -29 -11 -56 -4 -26 -23 -91 -41 -145 -38 -106
-44 -162 -20 -162 9 0 15 9 15 25 0 13 17 78 39 142 48 148 54 178 36 193 -7
6 -15 7 -18 3z"/>
<path d="M10880 1264 c-6 -14 -10 -28 -10 -31 0 -4 -14 -37 -31 -74 -28 -60
-35 -68 -65 -74 -21 -3 -34 -12 -34 -21 0 -12 7 -14 29 -9 l29 6 -19 -57 c-22
-66 -24 -97 -7 -92 6 2 21 34 32 71 l20 67 48 0 c52 0 60 10 26 34 -16 12 -25
13 -35 4 -26 -21 -22 -1 17 91 22 51 38 96 35 102 -11 16 -25 10 -35 -17z"/>
<path d="M11003 1162 c-78 -159 -97 -208 -89 -228 9 -23 20 -15 70 54 25 34
50 62 55 62 4 0 8 -15 7 -32 0 -18 3 -34 8 -36 12 -4 38 77 31 96 -8 23 -47
12 -81 -22 -19 -19 -34 -32 -34 -29 0 2 27 58 61 123 54 105 64 141 41 140 -4
0 -35 -58 -69 -128z"/>
<path d="M4350 1274 c0 -110 -12 -237 -25 -269 -33 -79 -95 -116 -95 -57 0 32
25 72 46 72 18 0 18 26 0 33 -18 7 -62 -40 -77 -80 -16 -47 6 -89 46 -86 39 3
91 56 110 114 19 58 35 255 21 269 -11 11 -26 13 -26 4z"/>
<path d="M7287 1182 c-31 -116 -58 -182 -81 -201 -14 -12 -16 -11 -16 5 0 25
28 77 46 87 21 12 17 29 -7 25 -31 -4 -60 -49 -66 -100 -11 -93 54 -84 100 14
20 43 47 128 78 247 2 8 -3 16 -12 18 -12 3 -21 -18 -42 -95z"/>
<path d="M13252 1236 c-11 -24 -36 -69 -55 -99 -36 -55 -60 -69 -127 -71 -8
-1 -16 -9 -18 -19 -3 -15 2 -17 37 -11 23 4 41 4 41 2 0 -3 -11 -26 -25 -51
-18 -31 -24 -53 -19 -71 5 -20 9 -23 19 -13 7 7 11 15 8 20 -2 4 12 37 32 73
37 66 37 66 76 61 21 -3 40 -2 43 1 10 9 -15 32 -35 32 -11 0 -19 2 -19 4 0 2
18 35 40 72 38 65 51 114 30 114 -5 0 -18 -20 -28 -44z"/>
<path d="M9326 1263 c-3 -3 -6 -21 -6 -39 0 -19 -18 -67 -44 -116 -58 -109
-49 -133 23 -65 28 26 52 47 55 47 2 0 0 -16 -6 -36 -5 -20 -7 -47 -4 -60 8
-31 33 -21 33 14 0 15 3 46 8 70 7 40 6 42 -16 42 -14 0 -34 -6 -45 -14 -20
-14 -20 -13 3 31 12 26 23 63 23 84 0 37 -10 55 -24 42z"/>
<path d="M12555 1238 c-7 -18 -25 -49 -40 -68 -21 -29 -32 -35 -62 -35 -20 0
-38 -6 -40 -12 -3 -8 5 -13 21 -13 33 0 37 -10 24 -52 -13 -44 -4 -84 22 -98
21 -11 115 4 138 23 23 18 -2 25 -54 14 -72 -15 -88 -6 -79 40 12 64 21 73 73
73 55 0 75 10 66 33 -7 18 -34 24 -34 7 0 -5 -13 -10 -29 -10 l-30 0 35 52
c19 29 34 58 34 65 0 26 -31 12 -45 -19z"/>
<path d="M14774 1233 c-4 -10 -32 -74 -64 -143 -67 -146 -79 -183 -55 -178 9
2 24 25 34 53 10 28 36 86 59 131 43 86 62 154 43 154 -6 0 -14 -8 -17 -17z"/>
<path d="M13871 1218 c-5 -13 -21 -57 -36 -99 -24 -70 -59 -137 -53 -100 5 27
-30 22 -66 -9 -39 -35 -48 -77 -21 -100 47 -39 133 74 186 245 10 33 19 66 19
73 0 20 -20 14 -29 -10z m-107 -227 c3 -5 -6 -21 -21 -37 -31 -33 -44 -18 -19
21 17 26 31 31 40 16z"/>
<path d="M11909 1117 c-28 -19 -110 -147 -107 -167 1 -3 -4 -18 -10 -33 -7
-16 -12 -32 -12 -37 0 -5 -9 -30 -20 -56 -25 -58 -20 -86 11 -58 27 24 48 65
69 133 13 42 22 55 39 58 57 8 134 77 147 130 14 52 -57 71 -117 30z m91 -14
c0 -31 -81 -113 -111 -113 -12 0 4 55 18 63 7 5 11 12 8 17 -8 12 35 40 62 40
13 0 23 -3 23 -7z"/>
<path d="M8317 1103 c-45 -32 -52 -69 -20 -105 19 -22 7 -41 -23 -35 -22 4
-40 -14 -27 -27 12 -12 62 -6 77 10 20 20 20 35 -1 72 -15 26 -15 32 -3 48 8
9 30 23 48 31 18 7 30 18 27 23 -11 17 -39 11 -78 -17z"/>
<path d="M3669 1102 c-13 -10 -32 -21 -41 -25 -11 -4 -18 -17 -18 -30 0 -14
-7 -41 -15 -60 -18 -44 -19 -67 -2 -67 7 0 23 27 36 60 30 75 62 109 96 102
30 -5 33 13 6 28 -27 14 -35 13 -62 -8z"/>
<path d="M7994 1110 c-23 -9 -52 -47 -72 -94 -13 -30 -3 -56 23 -56 19 0 64
39 96 83 34 47 38 30 9 -43 -19 -49 -19 -70 -1 -70 17 0 53 119 47 154 -6 31
-9 34 -44 34 -20 0 -47 -4 -58 -8z m18 -58 c-24 -33 -50 -57 -57 -51 -9 9 28
67 48 77 31 13 32 8 9 -26z"/>
<path d="M8459 1099 c-21 -21 -58 -95 -59 -116 0 -7 11 -20 25 -29 20 -13 30
-14 59 -4 43 14 66 48 66 99 0 66 -48 93 -91 50z m59 -50 c4 -47 -26 -75 -76
-70 -15 1 9 64 35 93 23 26 37 17 41 -23z"/>
<path d="M10108 1097 c-13 -14 -29 -41 -36 -60 -11 -31 -11 -38 5 -56 21 -25
53 -27 95 -5 24 12 28 18 17 25 -12 7 -12 9 0 9 8 0 12 2 9 5 -3 3 -22 -2 -42
-11 -28 -14 -39 -15 -48 -6 -9 9 -8 12 4 12 22 0 80 68 76 88 -5 28 -54 27
-80 -1z m32 -27 c-6 -11 -16 -20 -22 -20 -6 0 -3 9 7 20 10 11 20 20 22 20 2
0 -1 -9 -7 -20z"/>
<path d="M12284 1101 c-35 -21 -73 -106 -56 -123 15 -15 32 0 32 28 0 38 49
83 83 77 34 -7 38 22 5 31 -31 8 -29 8 -64 -13z"/>
<path d="M2963 1078 c-59 -63 -68 -104 -28 -143 29 -30 74 -32 106 -6 28 22
18 41 -11 23 -25 -15 -53 -15 -67 -1 -9 9 -1 23 33 55 45 44 54 70 32 92 -19
19 -32 15 -65 -20z m32 -32 c-17 -25 -52 -46 -39 -23 13 22 37 47 46 47 5 0 1
-11 -7 -24z"/>
<path d="M3839 1094 c-35 -18 -69 -77 -69 -117 0 -38 23 -75 54 -86 23 -9 76
5 76 20 0 5 6 9 14 9 7 0 19 6 25 14 19 23 -12 27 -45 5 -37 -24 -71 -24 -84
0 -16 32 -12 48 16 55 31 8 74 52 74 77 0 28 -30 40 -61 23z m11 -49 c-7 -8
-17 -15 -23 -15 -5 0 -2 9 8 20 21 23 35 19 15 -5z"/>
<path d="M6997 1048 c-10 -35 -21 -71 -24 -80 -11 -35 24 -18 56 27 32 45 59
61 46 28 -14 -37 -17 -71 -6 -77 6 -4 15 4 22 21 20 54 21 79 4 97 -16 15 -19
15 -40 2 -23 -15 -24 -15 -22 11 4 50 -19 32 -36 -29z"/>
<path d="M9028 1082 c-53 -48 -41 -113 24 -126 40 -8 148 38 130 56 -8 8 -21
7 -50 -6 -55 -25 -96 -19 -100 16 -4 36 31 60 75 52 37 -7 45 9 14 26 -32 17
-59 12 -93 -18z"/>
<path d="M9488 1100 c-23 -14 -58 -73 -58 -99 0 -30 24 -36 70 -18 33 13 39
13 44 1 9 -24 21 -16 33 24 6 20 15 45 18 55 5 13 2 17 -13 17 -11 0 -23 -8
-26 -18 -6 -17 -83 -68 -91 -60 -2 2 3 18 12 36 11 22 22 32 39 32 20 0 42 16
33 24 -12 11 -47 14 -61 6z"/>
<path d="M9727 1099 c-9 -6 -26 -7 -37 -4 -14 5 -22 1 -26 -12 -3 -10 -14 -37
-24 -59 -18 -40 -17 -54 2 -54 4 0 19 17 33 38 24 37 69 71 80 61 2 -3 -2 -27
-10 -54 -19 -62 -3 -84 20 -29 24 58 29 92 15 109 -14 17 -28 18 -53 4z"/>
<path d="M9892 1094 c-40 -28 -67 -104 -42 -119 6 -4 26 3 45 15 l35 22 -5
-29 c-2 -15 -7 -50 -10 -76 -5 -40 -9 -47 -25 -42 -25 8 -66 -13 -79 -42 -25
-54 -6 -157 32 -169 29 -9 61 30 78 95 11 43 15 49 30 40 28 -15 36 11 9 31
l-23 17 17 122 c17 122 15 147 -9 137 -7 -2 -17 0 -22 5 -5 5 -18 3 -31 -7z
m9 -57 c-25 -24 -30 -26 -22 -10 14 28 42 55 49 48 3 -3 -9 -20 -27 -38z m-1
-232 c0 -49 -40 -129 -56 -112 -4 4 -9 29 -12 56 -3 40 -1 52 17 70 25 25 51
18 51 -14z"/>
<path d="M11200 1062 c-32 -31 -40 -46 -40 -75 0 -48 24 -61 93 -52 61 9 93
23 80 36 -5 5 -32 5 -67 -2 -39 -7 -62 -7 -69 0 -13 13 -1 41 18 41 9 0 30 7
46 16 24 12 30 21 27 42 -5 43 -41 41 -88 -6z m60 3 c0 -2 -10 -9 -22 -15 -22
-11 -22 -10 -4 4 21 17 26 19 26 11z"/>
<path d="M12083 1078 c-11 -13 -26 -33 -32 -45 -24 -47 26 -85 82 -64 36 14
44 38 24 72 -9 17 -12 31 -6 34 18 12 8 25 -19 25 -17 0 -37 -9 -49 -22z m57
-69 c0 -12 -44 -19 -54 -9 -6 6 -5 20 3 37 l13 27 19 -24 c10 -14 19 -28 19
-31z"/>
<path d="M5593 1080 c-12 -5 -29 -23 -38 -40 -13 -26 -14 -35 -3 -57 32 -66
139 -96 186 -53 12 12 22 25 22 30 0 15 -26 12 -40 -5 -16 -19 -63 -19 -100 0
-39 20 -38 31 4 45 19 6 37 18 40 26 20 53 -12 77 -71 54z m47 -30 c0 -10 -41
-30 -58 -30 -10 1 39 40 49 40 5 0 9 -5 9 -10z"/>
<path d="M13903 1075 c-30 -21 -63 -77 -63 -108 0 -46 71 -73 121 -46 28 14
13 31 -22 24 -36 -8 -69 2 -69 21 0 8 4 13 9 10 11 -7 70 33 85 57 8 12 8 22
0 35 -15 23 -35 26 -61 7z m27 -40 c-7 -8 -17 -15 -23 -15 -5 0 -2 9 8 20 21
23 35 19 15 -5z"/>
<path d="M5160 1065 c-7 -9 -21 -13 -30 -10 -13 4 -24 -7 -44 -45 -50 -95 -31
-105 43 -24 29 31 55 53 59 50 3 -4 -1 -29 -11 -55 -20 -58 -21 -71 -4 -71 16
0 47 76 47 116 0 48 -34 70 -60 39z"/>
<path d="M2128 1053 c-26 -29 -38 -87 -24 -115 14 -28 53 -35 81 -14 25 18 25
84 1 121 -19 29 -37 32 -58 8z m44 -57 c6 -29 -8 -56 -27 -56 -18 0 -20 42 -4
71 12 24 25 18 31 -15z"/>
<path d="M4943 1047 c-53 -36 -68 -90 -35 -120 24 -22 54 -21 82 1 41 33 38
144 -4 141 -6 0 -25 -10 -43 -22z m47 -45 c0 -33 -32 -67 -55 -59 -22 9 -18
35 10 62 32 33 45 31 45 -3z"/>
<path d="M4019 1030 c-55 -55 -25 -126 36 -86 24 16 25 16 25 -8 0 -16 7 -27
20 -31 31 -10 42 3 24 30 -12 19 -13 31 -5 62 16 57 15 61 -30 61 -33 1 -48
-5 -70 -28z m51 -35 c-7 -9 -22 -21 -32 -26 -26 -14 -24 15 4 41 26 24 50 11
28 -15z"/>
<path d="M5352 1030 c-29 -21 -42 -37 -42 -54 0 -47 50 -73 116 -63 40 7 72
32 50 40 -7 3 -19 1 -27 -4 -21 -13 -73 -11 -95 5 -19 14 -19 15 5 40 14 14
33 26 43 26 13 0 18 6 16 17 -5 27 -22 25 -66 -7z"/>
<path d="M13243 1023 c-4 -9 -2 -18 5 -21 6 -2 8 -10 5 -18 -6 -17 11 -18 37
-2 21 13 36 6 25 -12 -10 -16 -52 -30 -71 -23 -10 4 -14 13 -10 28 7 27 -3 38
-21 24 -22 -19 -15 -57 12 -75 22 -14 32 -15 66 -5 65 20 80 90 20 99 -11 2
-21 8 -21 13 0 16 -40 10 -47 -8z"/>
<path d="M14305 1018 c-35 -19 -75 -61 -75 -79 0 -25 27 -31 61 -14 26 14 29
14 29 0 0 -19 23 -45 39 -45 6 0 11 7 11 15 0 8 -5 15 -11 15 -7 0 -9 12 -5
34 9 45 -4 51 -51 24 -28 -17 -35 -18 -25 -5 8 9 29 22 48 29 19 6 34 18 34
25 0 16 -28 16 -55 1z"/>
<path d="M14463 993 c-14 -44 -5 -73 21 -73 29 0 116 57 116 76 0 19 -24 18
-41 -2 -7 -8 -26 -22 -42 -31 l-30 -15 7 36 c5 28 4 36 -8 36 -8 0 -18 -12
-23 -27z"/>
<path d="M5896 922 c-7 -12 3 -42 14 -42 18 0 22 22 7 37 -9 9 -17 11 -21 5z"/>
<path d="M4740 828 c-41 -67 -71 -272 -51 -346 12 -44 59 -85 90 -80 26 5 21
23 -12 38 -48 23 -59 52 -52 145 9 118 43 245 67 245 4 0 8 7 8 15 0 26 -30
16 -50 -17z"/>
<path d="M2165 838 c-2 -7 -11 -47 -19 -88 -8 -41 -31 -129 -50 -195 -47 -163
-35 -175 55 -55 28 39 54 70 56 70 3 0 4 -19 3 -42 -4 -75 -1 -90 17 -86 14 2
16 14 14 68 -4 117 -13 123 -78 54 -24 -26 -43 -43 -43 -38 0 5 12 45 25 89
14 44 30 108 35 142 6 34 13 69 16 77 4 11 0 16 -10 16 -9 0 -18 -6 -21 -12z"/>
<path d="M4194 838 c-5 -7 -19 -34 -31 -60 -22 -47 -23 -48 -68 -48 -33 0 -45
-4 -45 -15 0 -11 11 -15 40 -15 39 0 40 -1 33 -27 -22 -76 5 -153 53 -153 27
0 60 15 82 37 23 23 5 27 -37 8 -22 -9 -44 -14 -51 -10 -23 14 -30 55 -19 101
10 39 15 44 40 45 66 3 73 5 76 16 5 13 -59 29 -76 18 -16 -9 -14 -1 11 50 16
32 19 48 11 56 -8 8 -13 7 -19 -3z"/>
<path d="M5550 829 c0 -6 16 -29 35 -52 84 -98 73 -226 -31 -365 -56 -76 -63
-92 -40 -92 19 0 104 122 133 190 25 61 30 146 12 201 -24 70 -109 162 -109
118z"/>
<path d="M2435 748 c-9 -35 -19 -68 -20 -74 -2 -6 -27 -18 -56 -26 -66 -18
-82 -44 -21 -35 22 4 48 10 56 13 14 6 16 0 10 -37 -3 -24 -10 -59 -16 -77 -6
-22 -7 -37 -1 -43 14 -14 30 9 37 56 19 118 18 115 41 115 13 0 22 6 22 15 0
8 -9 15 -19 15 -22 0 -22 12 -3 75 14 47 13 65 -4 65 -4 0 -16 -28 -26 -62z"/>
<path d="M2640 741 l-12 -70 -46 -3 c-34 -2 -47 -7 -47 -18 0 -11 10 -14 42
-12 l42 4 -15 -48 c-18 -60 -19 -127 -1 -122 6 3 13 15 15 29 1 13 9 52 18 86
15 58 18 62 51 70 40 9 41 29 1 27 -25 -2 -26 0 -20 35 9 56 8 84 -5 88 -7 3
-15 -22 -23 -66z"/>
<path d="M5020 790 c0 -6 -6 -10 -12 -9 -28 3 -38 -2 -38 -19 0 -11 -22 -33
-53 -55 -71 -49 -111 -92 -104 -111 5 -13 11 -13 49 4 56 25 71 25 63 0 -14
-45 -32 -146 -27 -158 9 -26 27 -4 34 44 4 27 12 68 19 91 10 37 14 42 34 37
33 -8 41 14 10 26 -25 10 -25 10 -10 47 9 21 29 51 45 66 35 34 38 47 10 47
-11 0 -20 -5 -20 -10z m-73 -123 c-3 -8 -18 -17 -34 -20 l-28 -5 30 23 c31 25
41 26 32 2z"/>
<path d="M5152 749 c2 -18 -9 -32 -47 -61 -50 -37 -74 -72 -61 -85 3 -4 29 0
56 9 28 9 50 14 50 11 0 -3 -7 -30 -16 -60 -16 -57 -12 -107 9 -100 7 2 12 17
12 33 1 58 27 132 49 138 20 6 20 7 3 20 -15 11 -18 25 -15 63 3 44 1 48 -20
51 -19 3 -23 0 -20 -19z m7 -83 c-2 -2 -15 -7 -29 -11 l-25 -8 25 21 c14 11
27 16 29 11 1 -6 1 -12 0 -13z"/>
<path d="M5360 761 c-76 -6 -100 -14 -100 -32 0 -6 18 -8 48 -3 l47 7 -30 -24
c-16 -13 -33 -28 -37 -33 -11 -17 10 -34 36 -29 28 6 106 -32 106 -50 0 -8
-16 -32 -36 -55 -42 -49 -89 -58 -112 -21 -10 15 -17 18 -24 11 -17 -17 16
-58 53 -66 40 -8 86 19 123 72 47 69 33 102 -57 133 l-37 13 61 28 c35 16 59
33 57 40 -5 15 -9 16 -98 9z"/>
<path d="M3614 700 c-37 -15 -101 -98 -123 -160 -12 -33 -20 -64 -17 -69 3 -5
0 -14 -8 -20 -17 -14 -49 -114 -44 -138 7 -39 30 -14 59 67 17 47 33 94 36
105 4 17 11 20 36 17 50 -5 94 28 110 84 16 54 9 118 -13 121 -8 1 -24 -2 -36
-7z m31 -40 c4 -6 -1 -32 -10 -59 -12 -38 -23 -52 -47 -62 -24 -10 -33 -10
-36 -1 -2 7 -8 10 -13 6 -24 -15 5 48 41 90 32 36 53 45 65 26z"/>
<path d="M3032 665 c-40 -17 -51 -55 -28 -101 9 -19 16 -39 16 -44 0 -16 -27
-11 -34 6 -5 13 -9 14 -21 4 -21 -17 -19 -27 10 -46 23 -15 27 -15 50 0 29 19
31 42 8 90 -21 45 -5 69 41 64 21 -2 31 1 31 11 0 22 -38 30 -73 16z"/>
<path d="M3952 658 c-32 -16 -62 -69 -65 -114 -1 -29 2 -39 13 -39 10 0 17 14
21 42 7 52 33 83 71 83 18 0 28 5 28 15 0 8 -4 15 -9 15 -5 0 -15 2 -23 4 -7
3 -23 0 -36 -6z"/>
<path d="M2768 623 c-26 -21 -47 -45 -48 -53 0 -8 -14 -71 -31 -139 -19 -79
-27 -127 -20 -134 12 -12 24 11 46 91 15 52 21 62 40 62 35 0 76 39 101 97 27
60 30 83 12 101 -21 21 -52 13 -100 -25z m82 -4 c0 -26 -44 -110 -66 -124 -33
-22 -35 -20 -30 26 3 29 14 52 37 75 33 34 59 44 59 23z"/>
<path d="M3754 640 c-32 -13 -54 -50 -54 -90 0 -41 14 -60 45 -60 33 0 64 28
76 70 10 33 9 43 -5 65 -17 26 -28 29 -62 15z m38 -60 c-6 -52 -62 -78 -62
-29 0 35 20 60 43 57 17 -2 21 -9 19 -28z"/>
</g>
</svg>
