<?xml version="1.0" standalone="no"?>
<!DOCTYPE svg PUBLIC "-//W3C//DTD SVG 20010904//EN"
 "http://www.w3.org/TR/2001/REC-SVG-20010904/DTD/svg10.dtd">
<svg version="1.0" xmlns="http://www.w3.org/2000/svg"
 width="1616.000000pt" height="628.000000pt" viewBox="0 0 1616.000000 628.000000"
 preserveAspectRatio="xMidYMid meet">

<g transform="translate(0.000000,628.000000) scale(0.100000,-0.100000)"
fill="#000000" stroke="none">
<path d="M12864 5793 c-23 -70 -41 -103 -54 -101 -8 1 -34 -8 -57 -20 -68 -35
-81 -79 -38 -130 l25 -30 -26 -57 c-24 -55 -26 -85 -5 -85 5 0 13 10 16 23 4
12 16 43 27 70 19 44 23 47 57 47 43 0 91 27 110 63 18 33 10 53 -33 78 l-35
20 21 52 c31 78 32 87 14 87 -9 0 -19 -8 -22 -17z m-79 -170 c-4 -10 -12 -30
-17 -45 -10 -29 -21 -29 -37 1 -13 23 12 61 41 61 15 0 18 -4 13 -17z m79 6
c14 -7 27 -18 30 -25 8 -20 -51 -64 -85 -64 l-29 0 25 50 c14 28 27 50 30 50
2 0 15 -5 29 -11z"/>
<path d="M13845 5792 c-6 -4 -11 -22 -12 -39 -4 -62 -39 -93 -70 -62 -8 8 -21
0 -50 -31 -21 -23 -41 -50 -45 -59 -14 -33 -8 -81 12 -101 18 -18 18 -22 4
-56 -19 -46 -15 -88 10 -92 16 -3 18 0 12 22 -9 37 21 106 47 106 11 0 39 9
62 20 67 33 91 113 45 155 -15 14 -16 20 -4 53 21 60 15 103 -11 84z m-65
-159 c0 -3 -14 -32 -31 -64 -25 -47 -35 -57 -45 -48 -38 31 18 139 63 122 7
-3 13 -7 13 -10z m68 -26 c5 -38 -14 -67 -55 -83 -19 -9 -37 -14 -38 -12 -2 2
13 31 32 66 37 65 56 74 61 29z"/>
<path d="M2585 5780 c-44 -9 -235 -28 -357 -37 -57 -4 -78 -9 -78 -19 0 -17
65 -18 194 -3 327 38 360 44 320 60 -23 9 -28 9 -79 -1z"/>
<path d="M13070 5730 c-40 -4 -55 -9 -55 -20 0 -11 9 -14 38 -12 20 2 37 2 37
-1 0 -2 -19 -17 -42 -32 l-42 -28 37 -29 c38 -31 45 -54 27 -89 -13 -24 -75
-27 -84 -4 -7 19 -36 20 -36 2 0 -24 37 -49 73 -50 40 -1 62 14 83 55 12 24
13 32 0 62 -8 19 -21 38 -30 43 -14 8 -9 15 29 42 71 51 60 70 -35 61z"/>
<path d="M3517 5714 c-4 -4 -5 -16 -2 -28 2 -12 -6 -50 -18 -86 l-22 -65 -48
-3 c-58 -4 -60 -25 -3 -30 41 -4 39 1 20 -69 -7 -25 7 -31 24 -10 6 6 14 28
19 46 7 28 16 37 41 43 19 5 32 15 32 24 0 12 -6 15 -24 10 l-24 -6 20 62 c10
35 18 74 16 87 -3 25 -19 37 -31 25z"/>
<path d="M3630 5697 c0 -21 -11 -52 -59 -175 -41 -102 -21 -108 61 -19 l58 62
-2 -40 c-1 -22 -5 -42 -9 -45 -13 -9 -14 -63 -2 -67 15 -5 45 98 41 140 -4 45
-29 45 -79 0 -42 -38 -42 -38 -27 -8 13 25 58 158 58 171 0 2 -9 4 -20 4 -14
0 -20 -7 -20 -23z"/>
<path d="M14549 5712 c-5 -54 -16 -72 -42 -72 -30 0 -75 -47 -83 -87 -4 -20 0
-44 11 -67 17 -35 17 -39 -4 -92 -11 -31 -21 -63 -21 -71 0 -30 25 -5 46 48
14 35 29 55 40 57 54 8 65 15 89 55 34 59 34 113 0 129 -17 8 -24 17 -20 27
16 42 17 68 1 74 -9 4 -16 3 -17 -1z m-50 -154 c-26 -67 -35 -76 -43 -44 -7
28 7 63 33 83 29 22 31 14 10 -39z m77 17 c15 -37 -36 -121 -68 -114 -15 4
-13 12 10 66 26 61 47 78 58 48z"/>
<path d="M2390 5707 c0 -2 -11 -61 -25 -132 -14 -72 -25 -140 -25 -152 0 -22
-3 -23 -89 -23 -81 0 -115 -9 -97 -27 16 -16 368 8 389 27 13 11 -4 40 -24 40
-10 0 -19 -4 -19 -10 0 -5 -16 -12 -35 -15 -19 -3 -50 -7 -68 -10 l-34 -5 28
146 c16 81 26 151 23 155 -5 8 -24 13 -24 6z"/>
<path d="M13498 5703 c-35 -3 -48 -8 -48 -19 0 -13 11 -15 55 -12 30 1 55 2
55 1 0 -1 -16 -11 -35 -23 -19 -12 -35 -26 -35 -31 0 -5 20 -19 45 -31 49 -24
55 -36 27 -61 -27 -25 -80 -22 -102 6 -21 25 -28 22 -32 -13 -3 -20 4 -27 36
-37 69 -24 146 13 146 69 0 22 -8 33 -36 50 l-36 21 38 24 c22 12 42 23 47 23
14 0 7 28 -9 34 -16 6 -25 6 -116 -1z"/>
<path d="M14210 5672 c-36 -29 -16 -48 24 -24 33 20 56 19 56 -3 0 -27 -78
-113 -109 -120 -40 -9 -81 -42 -81 -65 0 -30 18 -33 57 -10 l36 21 24 -30 c31
-40 88 -43 121 -8 12 13 22 26 22 30 0 13 -27 7 -40 -8 -7 -8 -25 -15 -41 -15
-21 0 -32 7 -43 29 -14 26 -14 30 1 42 18 15 93 128 93 140 0 4 -7 15 -16 23
-21 22 -77 20 -104 -2z"/>
<path d="M14705 5681 c-3 -6 -4 -15 0 -20 3 -5 1 -12 -3 -15 -5 -3 -22 -53
-37 -111 -20 -75 -25 -109 -18 -116 14 -14 34 -3 28 14 -3 7 9 59 26 117 17
58 31 111 32 119 2 17 -19 26 -28 12z"/>
<path d="M14875 5649 c-27 -24 -35 -39 -35 -64 0 -18 6 -38 14 -44 12 -10 10
-16 -10 -36 -16 -16 -24 -35 -24 -57 0 -39 7 -51 37 -67 38 -20 59 -12 107 39
53 56 59 89 22 118 -17 13 -22 23 -15 33 14 23 10 76 -7 93 -23 24 -49 19 -89
-15z m73 -27 c5 -33 -16 -62 -44 -62 -26 0 -40 20 -30 45 3 8 5 19 5 23 0 8
41 21 56 18 6 -2 11 -12 13 -24z m32 -126 c0 -7 -17 -33 -39 -57 -36 -41 -40
-43 -65 -31 -17 7 -26 19 -26 34 0 27 37 68 61 68 10 0 21 5 24 10 8 13 45 -6
45 -24z"/>
<path d="M4428 5610 c-20 -11 -39 -24 -43 -30 -3 -5 6 -30 20 -54 22 -37 24
-49 15 -66 -14 -26 -35 -21 -34 9 2 33 -30 22 -34 -11 -7 -57 75 -63 98 -7 12
27 11 36 -8 75 l-22 44 41 20 c22 12 37 25 34 30 -9 14 -25 12 -67 -10z"/>
<path d="M5379 5589 c-21 -23 -39 -52 -39 -63 0 -12 -3 -32 -7 -45 -5 -18 -2
-22 11 -20 11 3 25 25 36 59 22 64 41 81 82 73 26 -5 29 -3 26 13 -2 13 -13
20 -36 22 -29 3 -40 -3 -73 -39z"/>
<path d="M5172 5590 c-34 -33 -50 -97 -33 -128 20 -37 113 -40 142 -6 10 13 5
14 -43 9 -42 -5 -58 -3 -67 9 -16 19 -10 51 9 51 17 0 52 24 64 42 9 16 -11
53 -29 53 -7 0 -27 -13 -43 -30z"/>
<path d="M5061 5581 c-6 -17 -16 -44 -22 -61 -14 -38 -21 -38 -53 1 -17 20
-32 29 -42 25 -13 -5 -11 -12 12 -41 41 -54 59 -61 88 -32 14 14 30 43 36 66
7 26 17 41 26 41 23 0 11 24 -13 28 -15 2 -23 -5 -32 -27z"/>
<path d="M3834 5559 c-27 -23 -49 -46 -48 -51 1 -4 2 -24 3 -43 1 -47 39 -85
82 -85 30 0 109 36 109 50 0 17 -15 17 -48 -1 -46 -24 -74 -24 -95 -1 -25 27
-22 52 6 50 50 -4 103 64 80 101 -18 28 -39 23 -89 -20z m64 -11 c-6 -18 -57
-53 -65 -44 -5 4 5 19 20 32 30 26 51 31 45 12z"/>
<path d="M4588 5584 c-28 -15 -58 -61 -58 -89 0 -9 11 -27 26 -41 21 -22 31
-25 62 -19 60 10 72 16 72 32 0 12 -6 14 -27 8 -16 -3 -37 -9 -49 -11 -12 -3
-28 2 -38 11 -19 20 -21 36 -2 29 17 -6 86 34 86 50 0 12 -31 47 -41 46 -2 -1
-16 -7 -31 -16z m41 -28 c-2 -2 -15 -9 -29 -16 -23 -12 -24 -12 -11 3 7 10 20
17 29 17 8 0 13 -2 11 -4z"/>
<path d="M4792 5571 c-23 -22 -31 -40 -34 -72 -4 -56 17 -63 32 -11 5 22 18
50 28 62 15 19 22 21 40 11 25 -13 40 2 22 24 -19 23 -54 18 -88 -14z"/>
<path d="M2560 5532 c0 -7 7 -15 15 -18 19 -8 19 -41 0 -74 -19 -33 -18 -40 2
-40 10 0 39 21 66 48 l49 47 -4 -40 c-3 -34 0 -40 18 -43 18 -3 20 2 18 49 -2
29 -8 56 -15 60 -15 9 -50 -7 -62 -27 -13 -22 -27 -16 -27 11 0 28 -31 48 -38
26 -4 -11 -6 -11 -13 0 -7 11 -9 11 -9 1z"/>
<path d="M13893 5504 c-6 -17 12 -34 39 -34 30 0 29 19 -2 35 -28 14 -31 14
-37 -1z"/>
<path d="M13190 5485 c0 -8 7 -15 15 -15 8 0 15 7 15 15 0 8 -7 15 -15 15 -8
0 -15 -7 -15 -15z"/>
<path d="M2763 5328 c-4 -7 -11 -67 -15 -133 -4 -66 -10 -159 -14 -206 -6 -83
-5 -87 15 -94 27 -8 132 3 145 15 15 15 -21 23 -67 17 -69 -10 -71 -4 -48 110
12 56 21 135 21 176 0 79 14 102 44 72 16 -16 49 -9 43 9 -5 15 -67 45 -94 46
-12 0 -25 -6 -30 -12z"/>
<path d="M9515 5301 c-53 -24 -100 -79 -141 -165 -53 -109 -44 -201 24 -258
39 -33 100 -54 114 -40 15 15 0 32 -29 32 -37 0 -89 44 -103 86 -17 50 -8 108
25 176 39 81 78 124 130 144 25 9 45 23 45 30 0 19 -17 17 -65 -5z"/>
<path d="M3323 5300 c-13 -5 -23 -17 -23 -26 0 -12 5 -14 18 -9 26 12 142 19
143 9 0 -5 1 -76 2 -158 l2 -148 -67 5 c-55 5 -68 3 -68 -8 0 -20 33 -27 110
-23 63 3 65 4 61 28 -3 14 -4 96 -4 183 l1 157 -77 -1 c-42 0 -86 -4 -98 -9z"/>
<path d="M4969 5227 c-41 -86 -49 -94 -96 -88 -18 2 -27 -20 -12 -30 8 -4 24
-6 35 -3 21 5 22 3 20 -64 -1 -86 10 -102 71 -102 51 0 83 14 83 36 0 12 -5
14 -17 8 -10 -4 -34 -9 -55 -12 -29 -3 -38 0 -48 17 -12 24 -4 107 11 117 6 3
40 10 77 15 36 5 71 14 76 19 17 17 -20 22 -83 12 -34 -5 -61 -5 -61 -1 0 5
14 38 32 74 25 50 29 68 20 77 -9 9 -21 -9 -53 -75z"/>
<path d="M13040 5289 c-39 -16 -70 -50 -70 -78 0 -35 27 -73 99 -140 36 -34
61 -65 61 -77 0 -35 -44 -66 -99 -72 -43 -4 -53 -1 -75 21 -29 29 -34 62 -11
71 21 8 19 26 -3 26 -65 0 -49 -115 19 -139 67 -23 119 -12 172 37 47 45 38
73 -53 166 -48 49 -80 91 -80 103 0 32 45 56 91 49 44 -7 51 5 17 28 -26 18
-33 19 -68 5z"/>
<path d="M14443 5273 c-53 -34 -93 -105 -100 -179 l-6 -55 50 -48 c37 -36 63
-51 109 -64 72 -20 74 -20 74 -4 0 7 -30 23 -69 35 -83 27 -131 73 -131 126 0
78 90 192 142 178 17 -4 20 -2 15 12 -4 10 -7 20 -7 22 0 13 -41 0 -77 -23z"/>
<path d="M14780 5261 c-12 -22 0 -34 24 -25 22 9 59 -18 86 -61 20 -32 22 -46
17 -101 -4 -35 -13 -74 -22 -88 -18 -27 -80 -60 -95 -51 -18 11 -32 -5 -19
-21 19 -23 55 -16 101 19 53 40 71 88 66 173 -4 69 -35 120 -92 155 -39 24
-53 24 -66 0z"/>
<path d="M3050 5234 c-14 -14 -36 -30 -49 -35 -19 -8 -21 -12 -11 -24 16 -19
36 -19 44 0 10 27 28 17 22 -12 -3 -16 -7 -52 -8 -82 -1 -29 -7 -55 -13 -56
-5 -2 -27 -6 -47 -10 -41 -6 -75 -32 -60 -47 5 -5 21 -2 38 7 17 9 56 15 96
15 73 0 122 14 116 32 -3 8 -21 11 -51 9 l-47 -3 0 44 c0 37 11 122 22 167 6
26 -27 23 -52 -5z"/>
<path d="M11087 5253 c-14 -13 -6 -33 12 -33 25 0 80 -55 98 -97 41 -99 -82
-283 -188 -283 -36 0 -40 3 -37 22 3 24 -10 32 -32 18 -13 -8 -13 -13 0 -37
32 -56 111 -47 189 23 51 46 96 119 106 175 11 59 -11 116 -65 170 -46 46 -68
57 -83 42z"/>
<path d="M12426 5241 c-9 -10 -25 -42 -35 -72 -17 -48 -23 -54 -51 -57 -36 -4
-36 -24 0 -32 18 -4 25 -14 27 -40 7 -65 66 -119 116 -106 37 9 34 26 -3 26
-41 0 -80 39 -80 80 0 29 2 30 44 30 51 0 100 16 92 29 -3 5 -35 6 -71 4 l-64
-6 8 29 c17 58 32 89 47 101 9 6 13 16 9 22 -9 16 -20 14 -39 -8z"/>
<path d="M10360 5199 c0 -12 -5 -39 -11 -59 -11 -35 -15 -39 -55 -45 -29 -4
-44 -11 -44 -21 0 -11 9 -13 41 -8 l41 7 -6 -51 c-3 -32 -1 -54 6 -58 16 -10
28 16 28 64 l0 42 49 0 c50 0 74 13 45 24 -9 3 -31 6 -50 6 -32 0 -34 2 -28
28 4 15 11 37 15 50 13 35 11 42 -11 42 -14 0 -20 -7 -20 -21z"/>
<path d="M9695 5191 c-3 -10 -14 -26 -25 -36 -25 -22 -25 -35 -2 -35 17 0 62
56 62 78 0 19 -28 14 -35 -7z"/>
<path d="M10833 5174 c-30 -33 -35 -54 -14 -54 11 0 81 69 81 80 0 22 -37 7
-67 -26z"/>
<path d="M4792 5185 c2 -9 -12 -22 -32 -32 -44 -23 -48 -42 -15 -81 32 -38 32
-59 -1 -74 -20 -9 -30 -9 -45 0 -26 16 -29 15 -29 -8 0 -23 40 -43 67 -33 60
21 83 92 43 128 -28 26 -26 31 25 52 46 19 54 30 33 51 -17 17 -49 15 -46 -3z"/>
<path d="M8710 5170 c0 -35 17 -40 29 -7 10 26 6 37 -15 37 -9 0 -14 -11 -14
-30z"/>
<path d="M15166 5191 c-4 -5 -2 -13 4 -16 8 -5 6 -14 -4 -30 -24 -36 1 -43 30
-9 24 30 31 54 15 54 -5 0 -16 3 -24 6 -8 3 -18 1 -21 -5z"/>
<path d="M9876 5178 c-2 -7 -19 -57 -37 -110 -18 -53 -30 -100 -27 -104 4 -3
27 10 51 30 24 20 49 36 56 36 6 0 11 -16 11 -36 0 -24 4 -34 13 -31 7 2 12
21 12 48 0 41 -2 44 -28 47 -16 2 -35 -2 -43 -9 -19 -15 -18 -3 6 66 11 31 17
61 14 66 -8 13 -24 11 -28 -3z"/>
<path d="M10145 5178 c-2 -7 -9 -32 -15 -56 -11 -44 -11 -44 -53 -40 -32 2
-42 -1 -42 -12 0 -10 12 -16 38 -18 39 -3 39 -3 32 -40 -3 -20 -9 -45 -11 -55
-5 -14 -1 -18 12 -15 14 2 21 18 29 58 10 53 12 55 50 63 50 12 49 11 35 36
-13 24 -30 28 -30 6 0 -8 -7 -15 -16 -15 -13 0 -15 6 -9 33 4 17 8 38 8 46 3
18 -22 26 -28 9z"/>
<path d="M4152 5153 c-80 -39 -105 -116 -51 -156 33 -24 113 -34 134 -17 22
18 9 29 -28 23 -45 -7 -107 20 -107 46 0 22 55 81 76 81 8 0 14 -7 14 -16 0
-11 5 -14 16 -10 9 3 18 6 20 6 13 0 1 41 -15 50 -24 12 -19 13 -59 -7z"/>
<path d="M5667 5150 c-33 -26 -35 -59 -4 -88 12 -11 31 -37 41 -57 17 -32 18
-37 5 -51 -20 -19 -69 -3 -76 26 -6 21 -28 27 -38 10 -12 -20 24 -59 65 -70
100 -27 117 58 33 157 -13 14 -23 29 -23 32 0 13 40 30 56 24 12 -4 15 -1 12
13 -5 27 -39 29 -71 4z"/>
<path d="M7899 5120 c-7 -19 -18 -30 -30 -30 -20 0 -26 -15 -9 -25 6 -3 10
-23 10 -44 0 -21 3 -41 7 -44 13 -13 33 16 33 48 0 51 20 98 39 91 57 -18 61
-18 61 -4 0 18 -41 38 -76 38 -19 0 -28 -7 -35 -30z"/>
<path d="M8853 5128 c-10 -13 -24 -23 -32 -23 -20 0 -23 -52 -5 -87 20 -38 30
-35 37 10 8 60 24 92 46 92 11 0 23 -4 26 -10 8 -13 45 -13 45 -1 0 17 -43 41
-71 41 -16 0 -35 -9 -46 -22z"/>
<path d="M6489 5111 c-23 -24 -29 -38 -29 -74 0 -60 22 -85 83 -93 32 -5 47
-3 47 5 0 6 12 11 26 11 15 0 23 4 19 10 -4 7 -24 9 -48 5 -50 -7 -91 11 -95
42 -3 18 4 24 36 32 46 13 85 51 76 74 -11 30 -80 22 -115 -12z m67 -16 c-22
-17 -46 -20 -46 -6 0 11 18 19 45 20 20 0 20 0 1 -14z"/>
<path d="M6727 5122 c-10 -10 -17 -27 -18 -38 0 -10 -3 -13 -6 -6 -4 12 -33
18 -33 7 0 -29 35 -135 45 -135 13 0 25 51 25 112 0 48 12 54 48 23 34 -29 42
-31 42 -11 0 17 -56 66 -74 66 -7 0 -20 -8 -29 -18z"/>
<path d="M9082 5120 c-33 -21 -62 -71 -62 -110 0 -36 53 -80 95 -80 38 0 83
19 104 43 21 26 -6 30 -43 8 -42 -27 -80 -27 -107 0 -29 29 -21 55 14 51 53
-7 108 49 87 88 -14 26 -46 25 -88 0z m58 -25 c0 -18 -46 -42 -58 -31 -7 8 33
46 49 46 5 0 9 -7 9 -15z"/>
<path d="M5885 5112 c-47 -29 -58 -48 -51 -86 9 -48 58 -88 103 -84 42 4 44
21 4 28 -31 5 -71 33 -71 48 0 5 18 14 40 21 48 14 66 55 35 78 -24 17 -24 17
-60 -5z m41 -31 c-8 -12 -46 -21 -46 -11 0 9 18 18 38 19 7 1 11 -3 8 -8z"/>
<path d="M6065 5120 c-32 -12 -44 -33 -47 -80 -2 -35 1 -45 14 -48 12 -2 20 7
27 34 6 20 8 41 5 45 -10 16 35 30 57 18 32 -16 47 4 18 25 -26 18 -43 19 -74
6z"/>
<path d="M4290 5090 c-68 -72 -17 -145 77 -109 98 37 95 119 -5 135 -38 6 -44
4 -72 -26z m113 -19 c16 -16 -1 -41 -39 -57 -43 -18 -68 -15 -72 10 -6 30 34
64 71 60 17 -2 35 -8 40 -13z"/>
<path d="M4547 5113 c-4 -3 -20 -6 -37 -5 -25 1 -31 -4 -36 -26 -3 -15 -9 -37
-14 -49 -5 -11 -6 -24 -3 -27 13 -13 32 -5 39 17 10 34 35 57 62 57 22 0 23
-3 17 -27 -13 -47 -11 -78 4 -78 14 0 16 5 27 82 6 39 5 43 -20 53 -32 12 -31
12 -39 3z"/>
<path d="M6323 5113 c-22 -4 -27 -18 -35 -93 -3 -22 -7 -19 -41 33 -36 54 -58
69 -72 48 -3 -6 0 -13 7 -18 7 -4 30 -34 51 -65 21 -31 45 -59 53 -62 17 -6
34 30 34 72 0 41 14 54 64 59 30 4 46 10 46 19 0 14 -54 17 -107 7z"/>
<path d="M8053 5095 c-73 -44 -82 -124 -17 -151 43 -18 83 -18 128 1 40 17 51
41 14 31 -13 -4 -44 -9 -69 -13 -39 -4 -50 -2 -68 16 -15 15 -19 26 -12 43 9
26 69 71 82 62 17 -10 9 -23 -21 -29 -44 -10 -41 -40 2 -31 48 9 64 29 52 63
-12 37 -39 39 -91 8z"/>
<path d="M11600 5098 c-43 -30 -54 -49 -47 -80 11 -41 91 -61 153 -38 39 15
21 25 -46 25 -66 0 -91 15 -74 43 6 9 26 22 45 28 35 12 46 36 18 42 -8 1 -30
-8 -49 -20z"/>
<path d="M11973 5110 c-12 -5 -29 -22 -37 -39 -37 -71 -6 -115 73 -104 25 3
54 10 64 15 22 11 11 32 -12 23 -32 -13 -80 -13 -98 1 -17 13 -17 13 3 14 29
0 81 27 88 45 6 17 -27 55 -46 54 -7 0 -23 -4 -35 -9z m27 -45 c-33 -19 -46
-19 -30 0 7 8 22 15 34 15 20 -1 20 -2 -4 -15z"/>
<path d="M7372 5094 c3 -16 14 -19 81 -22 65 -3 77 -1 77 12 0 11 -10 16 -34
16 -18 0 -55 3 -81 6 -42 6 -47 5 -43 -12z"/>
<path d="M8247 5079 c-39 -33 -47 -59 -22 -79 13 -11 22 -10 51 3 l34 17 -6
-43 c-11 -77 -44 -218 -64 -274 -11 -31 -17 -59 -14 -64 8 -14 32 1 38 25 8
34 73 114 106 131 18 9 40 12 59 9 24 -5 31 -3 31 9 0 24 -61 32 -98 13 -16
-8 -37 -23 -46 -31 -19 -19 -20 -9 -6 50 18 73 40 236 34 247 -3 5 -21 -7 -39
-26 -18 -20 -40 -36 -49 -36 -23 0 -11 17 25 35 29 16 40 45 16 45 -7 0 -29
-14 -50 -31z"/>
<path d="M11818 5096 c-12 -6 -29 -24 -37 -40 -12 -25 -11 -30 7 -48 25 -25
47 -16 30 12 -14 22 2 47 34 52 12 2 23 8 25 14 6 17 -32 23 -59 10z"/>
<path d="M13863 5100 c-26 -10 -63 -66 -63 -93 0 -32 54 -77 94 -77 42 0 86
15 86 31 0 7 -15 9 -49 4 -60 -8 -91 8 -91 47 0 29 23 58 46 58 22 0 17 -18
-11 -36 -25 -16 -34 -44 -15 -44 17 0 60 31 71 52 8 14 6 26 -6 44 -17 26 -27
28 -62 14z"/>
<path d="M8441 5081 c-25 -46 -3 -96 44 -101 74 -8 115 17 115 71 0 24 -4 30
-17 27 -10 -2 -17 -10 -15 -16 1 -7 -3 -22 -9 -33 -8 -16 -19 -19 -52 -17 -42
3 -42 3 -39 40 3 42 -12 58 -27 29z"/>
<path d="M12588 5073 c-7 -15 -16 -31 -21 -34 -9 -7 16 -58 35 -70 18 -12 111
-11 142 1 49 18 29 31 -38 24 -36 -4 -72 -4 -82 0 -14 5 -13 9 10 27 37 29 33
73 -6 77 -22 3 -30 -2 -40 -25z m34 -25 c-7 -7 -12 -8 -12 -2 0 14 12 26 19
19 2 -3 -1 -11 -7 -17z"/>
<path d="M13686 5077 c-10 -7 -20 -33 -24 -61 -9 -61 -26 -69 -42 -19 -7 21
-17 44 -23 51 -13 17 -37 15 -37 -3 0 -8 4 -15 9 -15 5 0 12 -12 16 -27 23
-94 105 -100 105 -8 0 46 17 65 50 58 34 -6 37 -1 14 21 -19 19 -44 20 -68 3z"/>
<path d="M12126 5067 c-12 -9 -17 -23 -14 -42 2 -25 7 -30 28 -29 14 1 33 4
43 9 12 5 17 3 17 -7 0 -22 35 -49 54 -42 22 8 20 21 -4 34 -11 6 -23 23 -27
38 -11 48 -59 67 -97 39z m34 -32 c-7 -9 -15 -13 -17 -11 -7 7 7 26 19 26 6 0
6 -6 -2 -15z"/>
<path d="M10520 5047 c-19 -12 -42 -26 -51 -29 -9 -4 -20 -23 -23 -43 -4 -21
-18 -62 -32 -92 -22 -52 -24 -73 -5 -73 5 0 22 30 39 68 l30 67 44 -3 c40 -3
48 0 72 29 19 23 26 41 24 63 -3 26 -7 31 -33 34 -20 2 -43 -6 -65 -21z m70
-20 c0 -27 -31 -57 -61 -57 -37 0 -37 12 2 44 33 28 59 34 59 13z"/>
<path d="M13215 5045 c-34 -33 -34 -93 -2 -123 26 -25 89 -30 132 -10 29 13
36 45 8 33 -36 -15 -103 -18 -118 -5 -33 28 -6 100 38 100 29 0 28 -18 -3 -25
-30 -7 -38 -19 -20 -30 16 -10 80 15 80 31 0 57 -70 75 -115 29z"/>
<path d="M14057 5055 c-18 -17 -32 -104 -19 -117 14 -14 35 19 36 60 l1 37 48
-2 c49 -3 61 9 28 27 -28 15 -77 12 -94 -5z"/>
<path d="M8689 5058 c-1 -2 -3 -22 -5 -45 -3 -32 0 -43 10 -43 16 0 29 44 21
71 -5 16 -22 26 -26 17z"/>
<path d="M15130 5045 c-11 -13 -10 -18 6 -30 18 -15 18 -16 -16 -45 -19 -16
-49 -33 -67 -36 -43 -8 -50 -20 -16 -29 34 -8 112 31 132 67 12 21 12 30 2 57
-15 35 -23 38 -41 16z"/>
<path d="M13432 5042 c-17 -11 -33 -70 -26 -99 4 -13 14 -23 24 -23 15 0 18 8
17 48 l-2 47 48 -2 c33 -1 47 3 47 12 0 7 -7 16 -16 19 -22 9 -77 7 -92 -2z"/>
<path d="M3232 5008 c-19 -19 -14 -30 10 -26 13 2 24 11 26 21 4 20 -18 23
-36 5z"/>
<path d="M7314 5008 c-12 -18 11 -28 59 -27 62 1 98 10 97 24 0 12 -149 14
-156 3z"/>
<path d="M11385 4951 c-3 -5 -1 -12 5 -16 12 -7 30 2 30 16 0 12 -27 12 -35 0z"/>
<path d="M11972 4503 c-79 -39 -204 -212 -218 -304 -5 -29 -13 -40 -41 -53
-28 -13 -38 -14 -49 -5 -23 19 -42 -5 -21 -25 20 -20 40 -20 79 0 28 15 31 14
45 -5 9 -14 25 -21 46 -21 49 0 79 11 73 26 -3 7 -2 15 2 17 4 2 0 1 -8 -1 -8
-3 -31 -7 -51 -10 -63 -7 -57 19 24 101 49 50 89 105 125 169 70 126 68 148
-6 111z m8 -43 c-6 -11 -8 -26 -4 -33 4 -6 4 -9 -1 -5 -4 4 -24 -19 -44 -52
-42 -69 -133 -169 -139 -152 -8 24 65 139 127 199 35 35 66 63 68 63 2 0 -1
-9 -7 -20z"/>
<path d="M2925 4468 c-2 -7 -6 -31 -10 -53 -3 -22 -20 -97 -37 -167 -41 -172
-31 -198 37 -92 33 52 72 75 61 37 -28 -96 -30 -133 -8 -133 11 0 46 146 39
164 -10 26 -46 25 -77 -1 -17 -14 -30 -22 -30 -20 0 3 11 52 25 109 26 109 32
168 15 168 -6 0 -12 -6 -15 -12z"/>
<path d="M2639 4455 c-3 -2 -58 -5 -122 -6 -87 -1 -117 -4 -117 -14 0 -11 45
-17 120 -17 19 0 313 11 320 12 3 0 -4 7 -14 15 -14 10 -45 15 -101 15 -45 0
-84 -2 -86 -5z"/>
<path d="M12452 4363 l-41 -98 -47 3 c-54 4 -59 -17 -6 -30 18 -5 32 -10 32
-12 0 -2 -11 -28 -25 -58 -14 -29 -25 -61 -25 -70 0 -27 27 -22 34 6 3 13 16
47 28 74 21 48 24 50 70 56 35 5 48 11 48 23 0 13 -7 14 -40 9 l-40 -6 27 57
c14 32 27 68 27 80 1 11 4 19 7 17 7 -4 19 20 19 37 0 5 -6 9 -13 9 -7 0 -32
-44 -55 -97z"/>
<path d="M5132 4398 c-10 -18 -32 -56 -47 -85 l-28 -52 -60 -3 c-82 -4 -92
-28 -12 -28 49 0 56 -2 51 -16 -21 -55 -28 -106 -18 -130 10 -20 19 -24 56
-24 50 0 96 14 96 30 0 6 -22 7 -59 4 -38 -4 -61 -3 -65 5 -4 6 1 38 10 71
l17 60 51 0 c53 0 69 6 73 27 2 8 -13 10 -52 6 l-55 -6 40 73 c22 40 40 79 40
86 0 24 -18 15 -38 -18z"/>
<path d="M6854 4416 c-3 -9 -7 -27 -8 -41 0 -14 -4 -25 -8 -25 -3 0 -18 -24
-32 -54 l-26 -54 -41 5 c-32 5 -41 3 -37 -8 2 -7 19 -17 37 -21 34 -9 34 -6
15 -110 -4 -21 -2 -28 10 -28 15 0 19 9 30 79 4 19 14 40 24 47 13 10 14 16 5
22 -10 6 -4 26 21 79 19 39 36 82 38 94 4 26 -19 38 -28 15z"/>
<path d="M2680 4407 c0 -2 -9 -53 -20 -113 -23 -128 -27 -228 -7 -222 6 3 13
24 15 49 2 41 25 198 38 262 4 20 2 27 -10 27 -9 0 -16 -1 -16 -3z"/>
<path d="M8147 4403 c-4 -3 -7 -39 -7 -79 0 -78 -13 -104 -51 -104 -33 0 -57
-18 -84 -64 -37 -63 -30 -106 17 -106 76 0 148 118 148 243 0 26 5 56 12 66
17 27 -14 66 -35 44z m-40 -250 c-18 -34 -45 -58 -74 -67 -26 -8 -29 3 -12 37
19 36 51 67 71 67 10 0 19 6 19 13 1 6 3 4 6 -5 2 -9 -2 -29 -10 -45z"/>
<path d="M9076 4403 c-12 -12 -6 -33 9 -33 8 0 15 6 15 14 0 17 -14 28 -24 19z"/>
<path d="M5934 4313 c-29 -90 -35 -128 -20 -128 6 0 36 65 43 95 1 3 6 18 12
33 6 16 11 34 11 42 0 8 5 17 10 20 13 8 3 25 -14 25 -8 0 -25 -36 -42 -87z"/>
<path d="M8956 4388 c-22 -82 -26 -112 -17 -121 6 -6 12 -9 14 -6 6 7 37 115
37 127 0 16 -30 15 -34 0z"/>
<path d="M11221 4369 c-12 -19 -31 -53 -43 -76 -14 -26 -30 -43 -40 -43 -10 0
-18 -3 -18 -7 0 -5 -19 -8 -42 -8 -26 0 -43 -5 -46 -13 -3 -11 8 -13 51 -10
l55 3 5 -38 c10 -73 62 -120 114 -101 15 5 28 15 31 23 4 11 -3 12 -31 7 -39
-7 -61 8 -78 53 -18 46 -4 69 46 77 25 3 48 10 51 15 6 11 -41 23 -61 15 -21
-7 -19 -4 16 60 23 39 29 58 21 66 -8 8 -17 1 -31 -23z"/>
<path d="M6210 4345 c0 -10 7 -15 18 -13 21 4 19 22 -2 26 -10 2 -16 -3 -16
-13z"/>
<path d="M9070 4345 c0 -9 -20 -69 -45 -134 -25 -65 -45 -123 -45 -130 0 -18
28 -13 34 7 10 27 93 118 102 109 4 -4 2 -28 -5 -55 -17 -69 -18 -77 -1 -77
19 0 44 93 29 111 -7 8 -6 13 1 16 6 2 8 11 5 21 -9 23 -48 22 -70 -3 -10 -11
-20 -19 -21 -17 -2 2 8 30 21 63 28 68 32 104 10 104 -8 0 -15 -7 -15 -15z"/>
<path d="M7940 4321 c0 -21 26 -36 36 -20 6 11 -13 39 -27 39 -5 0 -9 -9 -9
-19z"/>
<path d="M13956 4325 c-7 -20 21 -32 37 -16 9 9 8 14 -3 21 -21 13 -27 12 -34
-5z"/>
<path d="M7404 4315 c-4 -8 -3 -23 1 -32 6 -17 7 -17 21 1 18 25 18 32 -1 40
-9 3 -18 -1 -21 -9z"/>
<path d="M9879 4248 c-19 -18 -42 -55 -52 -83 -29 -78 -31 -95 -14 -95 9 0 24
23 37 58 26 64 65 122 83 122 7 0 18 -10 25 -21 10 -15 17 -18 24 -11 17 17
-17 62 -46 62 -13 0 -38 -15 -57 -32z"/>
<path d="M10090 4272 c-52 -17 -108 -108 -96 -157 7 -29 62 -50 106 -40 32 7
36 15 20 46 -12 22 -30 25 -30 5 0 -19 -20 -25 -47 -15 -32 12 -30 39 2 39 14
0 34 9 44 19 11 11 21 17 24 15 2 -2 12 5 21 15 30 33 -3 87 -44 73z m20 -39
c0 -14 -15 -30 -38 -42 -34 -18 -40 -5 -12 24 22 24 50 34 50 18z"/>
<path d="M10900 4269 c-63 -25 -78 -72 -35 -115 14 -14 25 -27 25 -29 0 -11
-39 -4 -43 8 -3 9 -8 9 -21 -2 -15 -13 -15 -16 -2 -29 21 -21 65 -18 89 7 l21
21 -32 33 c-18 18 -32 38 -32 45 0 17 38 34 76 34 36 0 47 21 18 32 -21 8 -34
7 -64 -5z"/>
<path d="M12061 4271 c-8 -5 -10 -14 -7 -20 9 -13 33 -15 40 -2 9 14 -18 31
-33 22z"/>
<path d="M12585 4247 c-80 -80 -45 -178 51 -147 19 7 34 18 34 26 0 16 -10 17
-43 5 -18 -7 -30 -6 -43 4 -18 14 -18 14 -1 15 22 0 85 58 88 80 7 61 -34 69
-86 17z m30 -37 c-16 -16 -31 -28 -34 -25 -2 3 8 19 24 35 16 16 31 28 34 25
2 -3 -8 -19 -24 -35z"/>
<path d="M12855 4264 c-16 -8 -38 -23 -48 -32 -17 -15 -17 -15 -11 2 14 37
-31 11 -51 -29 -11 -23 -28 -52 -37 -65 -20 -27 -23 -50 -9 -50 6 0 34 25 63
56 58 62 106 99 115 90 3 -3 -2 -28 -11 -55 -18 -57 -21 -101 -6 -101 6 0 12
6 14 13 2 6 14 45 26 85 30 100 20 120 -45 86z"/>
<path d="M8263 4251 c-41 -26 -63 -60 -70 -109 -5 -34 -2 -42 22 -60 34 -27
65 -28 114 -3 52 27 67 47 51 66 -18 21 -29 19 -39 -8 -13 -33 -64 -53 -96
-39 -43 20 -30 66 19 69 48 3 78 30 74 66 -4 40 -29 46 -75 18z m47 -21 c0
-11 -60 -44 -67 -36 -3 3 10 14 28 25 39 24 39 24 39 11z"/>
<path d="M10641 4234 c-34 -30 -41 -43 -41 -74 0 -44 21 -70 56 -70 35 0 104
30 104 46 0 8 6 11 15 8 8 -4 15 -1 15 5 0 15 -4 14 -71 -10 -66 -24 -92 -20
-87 13 2 16 12 24 36 29 68 14 99 80 40 87 -19 2 -38 -7 -67 -34z m49 -9 c-7
-8 -18 -15 -24 -15 -6 0 -2 7 8 15 25 19 32 19 16 0z"/>
<path d="M7737 4246 c-82 -30 -98 -72 -42 -108 19 -13 34 -30 32 -38 -3 -22
-39 -25 -53 -5 -14 18 -34 12 -34 -10 0 -31 83 -48 108 -23 23 23 14 62 -20
91 l-33 27 24 20 c13 11 34 20 47 20 16 0 24 6 24 18 0 15 2 15 11 2 9 -13 10
-13 6 0 -5 20 -25 22 -70 6z"/>
<path d="M8913 4240 c-6 -9 -29 -20 -50 -24 -50 -8 -71 -22 -57 -36 8 -8 19
-8 38 0 35 13 59 13 51 0 -3 -5 -8 -18 -10 -27 -2 -10 -8 -33 -14 -50 -6 -22
-6 -35 1 -39 16 -10 27 9 30 49 2 20 6 37 9 37 4 0 10 11 13 25 4 14 12 25 19
25 7 0 21 6 31 13 16 12 14 14 -17 29 -31 15 -34 15 -44 -2z"/>
<path d="M13044 4247 c-11 -7 -38 -27 -60 -44 -30 -26 -36 -35 -26 -45 7 -7
12 -20 12 -29 0 -10 7 -25 16 -33 20 -21 103 -21 130 -1 21 16 20 17 -56 19
-42 1 -55 5 -58 18 -2 11 11 23 42 37 32 13 47 27 52 45 11 43 -11 57 -52 33z
m16 -32 c0 -2 -10 -9 -22 -15 -22 -11 -22 -10 -4 4 21 17 26 19 26 11z"/>
<path d="M13247 4245 c-30 -17 -92 -128 -83 -151 10 -27 24 -14 51 50 31 73
69 102 92 70 18 -25 43 -2 27 24 -14 22 -52 25 -87 7z"/>
<path d="M14021 4236 c-25 -26 -22 -55 7 -89 24 -27 2 -44 -37 -27 -35 14 -58
6 -40 -16 16 -19 73 -28 98 -15 25 14 27 48 5 79 -21 30 -14 55 15 62 35 8 36
25 3 28 -19 1 -36 -6 -51 -22z"/>
<path d="M3832 4237 c-32 -18 -52 -51 -67 -108 -13 -47 -5 -74 15 -53 10 12
40 116 35 124 -2 3 17 7 43 9 58 3 75 17 38 31 -34 12 -36 12 -64 -3z"/>
<path d="M6355 4238 c-69 -37 -105 -117 -70 -152 20 -19 72 -29 107 -19 47 13
36 28 -20 29 -52 1 -91 19 -61 28 67 19 96 35 108 58 14 24 14 29 -3 47 -21
24 -32 25 -61 9z m24 -53 c-8 -7 -25 -16 -39 -20 -23 -6 -23 -4 9 26 23 21 36
28 39 20 2 -7 -2 -19 -9 -26z"/>
<path d="M3141 4227 c-9 -12 -8 -16 5 -21 9 -3 20 -4 25 0 14 8 11 -12 -3 -23
-7 -6 -22 -13 -32 -17 -19 -7 -19 -6 -3 12 16 18 16 20 2 26 -23 9 -23 9 -38
-21 -21 -42 -5 -90 37 -110 43 -20 102 -11 109 17 7 26 -13 38 -28 17 -16 -22
-47 -21 -76 2 l-24 19 27 7 c63 16 93 97 37 103 -14 2 -31 -3 -38 -11z"/>
<path d="M6564 4226 c-17 -8 -43 -29 -58 -48 -45 -60 -30 -99 39 -97 52 1 87
11 93 27 3 9 -13 11 -59 9 -38 -1 -63 2 -66 9 -6 18 53 74 86 80 17 4 31 13
31 20 0 17 -26 17 -66 0z"/>
<path d="M7896 4218 c-8 -12 -13 -25 -10 -30 3 -4 1 -8 -3 -8 -10 0 -34 -81
-27 -92 8 -12 24 -9 29 5 2 6 9 31 15 54 6 23 17 49 26 57 15 16 12 36 -6 36
-5 0 -16 -10 -24 -22z"/>
<path d="M10223 4228 c-11 -5 -29 -26 -39 -44 -23 -43 -11 -68 35 -72 26 -3
31 -7 26 -20 -22 -54 -115 -338 -115 -349 0 -25 28 -13 40 17 19 46 81 104
133 126 26 10 49 25 52 33 8 22 -52 6 -107 -29 -27 -16 -48 -28 -48 -26 0 22
90 256 116 303 22 39 30 64 24 68 -6 4 -17 2 -25 -5 -9 -7 -15 -8 -20 0 -8 13
-43 12 -72 -2z m56 -32 c9 -11 6 -18 -15 -35 -28 -22 -64 -28 -64 -11 0 13 46
60 58 60 5 0 15 -6 21 -14z"/>
<path d="M10420 4225 c-7 -8 -15 -34 -17 -58 -12 -104 84 -94 149 16 15 26 23
49 18 52 -15 9 -28 -3 -50 -45 -21 -40 -46 -60 -76 -60 -14 0 -16 7 -11 37 4
21 11 39 17 41 15 5 12 32 -4 32 -7 0 -19 -7 -26 -15z"/>
<path d="M4623 4215 c-12 -8 -31 -31 -44 -51 -21 -34 -21 -37 -6 -70 17 -35
45 -48 93 -42 45 5 42 28 -5 28 -22 0 -43 5 -46 10 -3 6 0 10 8 10 8 0 26 11
41 25 22 20 27 32 24 63 -3 43 -28 53 -65 27z m27 -60 c-23 -25 -50 -33 -50
-16 0 4 12 20 27 35 35 36 58 18 23 -19z"/>
<path d="M7528 4214 c-16 -8 -37 -32 -48 -54 -11 -22 -25 -40 -30 -40 -13 0
-13 -37 0 -45 5 -3 26 19 45 49 52 82 92 98 73 30 -11 -41 -7 -90 7 -87 5 1
15 30 22 64 18 92 -4 119 -69 83z"/>
<path d="M9231 4195 c-53 -61 -37 -155 27 -155 29 0 91 32 92 48 0 16 -12 15
-54 -4 -39 -19 -66 -13 -66 14 0 12 14 25 40 37 59 27 82 52 70 75 -18 34 -72
26 -109 -15z m60 -15 c-13 -11 -30 -20 -39 -20 -13 0 -12 3 3 20 10 11 28 20
39 20 20 -1 20 -1 -3 -20z"/>
<path d="M12166 4199 c-27 -32 -33 -67 -16 -100 15 -26 -14 -38 -39 -15 -10 9
-21 13 -24 9 -26 -25 37 -72 72 -54 27 15 33 39 21 77 -13 38 -2 67 31 84 11
6 17 15 14 21 -11 17 -33 9 -59 -22z"/>
<path d="M13890 4215 c-19 -23 -60 -106 -60 -121 0 -7 4 -16 10 -19 9 -5 80
123 80 145 0 15 -16 12 -30 -5z"/>
<path d="M3963 4198 c-50 -56 -56 -106 -17 -137 28 -22 88 -28 114 -11 22 13
4 25 -35 21 -36 -3 -75 13 -75 30 0 6 4 8 8 5 14 -8 72 32 84 59 23 50 -39 76
-79 33z m51 -21 c-5 -15 -44 -40 -51 -34 -6 7 34 47 47 47 5 0 7 -6 4 -13z"/>
<path d="M4802 4208 c-17 -17 -15 -36 10 -76 21 -34 21 -35 3 -48 -22 -16 -45
-18 -45 -4 0 6 -7 10 -15 10 -20 0 -19 -34 1 -51 13 -11 22 -10 52 6 53 30 60
47 37 92 -11 21 -21 41 -23 46 -2 4 3 7 12 7 9 0 16 7 16 15 0 18 -31 20 -48
3z"/>
<path d="M5923 4179 c-24 -15 -33 -17 -33 -7 0 7 -9 0 -20 -17 -41 -62 -18
-105 47 -89 66 17 101 62 83 109 -12 30 -34 31 -77 4z m47 -32 c0 -23 -20 -39
-67 -52 -36 -10 -27 11 20 44 23 17 43 30 45 31 1 0 2 -10 2 -23z"/>
<path d="M6167 4193 c-4 -3 -7 -21 -7 -39 0 -55 -55 -175 -96 -212 -40 -34
-51 -32 -58 8 -2 14 -5 27 -6 30 -2 3 -2 8 -1 13 0 4 -3 7 -8 7 -14 0 -26 -43
-13 -48 5 -1 8 -12 5 -23 -7 -24 13 -49 38 -49 31 0 100 71 125 127 26 57 55
173 48 185 -6 10 -18 10 -27 1z"/>
<path d="M7346 4136 c-17 -61 -16 -86 3 -86 8 0 41 114 41 140 0 5 -6 10 -14
10 -8 0 -20 -26 -30 -64z"/>
<path d="M4250 4175 c-14 -17 -45 -21 -34 -4 9 16 -29 -6 -45 -25 -31 -37 14
-61 57 -31 21 15 22 15 17 -12 -16 -84 -65 -321 -71 -340 -5 -17 -2 -23 10
-23 9 0 16 4 16 9 0 4 23 31 50 59 34 35 61 53 85 58 40 7 54 21 31 30 -23 9
-57 -2 -99 -30 -20 -14 -37 -22 -37 -18 0 8 27 165 35 202 13 60 25 123 25
131 0 14 -27 10 -40 -6z"/>
<path d="M4473 4178 c-6 -7 -14 -23 -17 -35 -10 -31 -33 -53 -57 -53 -16 0
-19 7 -19 46 0 54 -23 58 -28 4 -8 -75 28 -105 86 -70 33 20 71 95 55 111 -7
7 -13 6 -20 -3z"/>
<path d="M5701 4164 c-67 -56 -8 -135 70 -94 23 13 26 62 4 80 -8 7 -15 19
-15 26 0 22 -26 16 -59 -12z m54 -55 c0 -17 -33 -25 -47 -11 -6 6 -8 18 -5 26
8 19 52 6 52 -15z"/>
<path d="M11996 4152 c-22 -43 -21 -85 2 -80 9 2 16 10 14 18 -2 7 2 26 9 42
18 43 -4 60 -25 20z"/>
<path d="M2215 4116 c-22 -34 -51 -143 -60 -229 -4 -37 -12 -71 -19 -75 -6 -4
-31 -11 -55 -17 -68 -15 -66 -37 2 -29 l55 7 -8 -39 c-5 -22 -19 -64 -30 -94
-12 -32 -16 -58 -11 -63 13 -13 28 -1 36 30 3 16 15 58 27 96 18 60 23 67 46
68 15 0 21 3 14 6 -6 2 -10 9 -6 14 3 5 -3 9 -14 9 -17 0 -18 5 -10 63 14 106
38 205 57 228 17 21 18 21 55 4 20 -10 40 -15 43 -11 13 12 -33 47 -69 52 -31
5 -38 3 -53 -20z"/>
<path d="M3605 4008 c-11 -55 -48 -182 -55 -191 -4 -5 -29 -14 -56 -21 -66
-17 -74 -41 -9 -33 46 7 47 6 41 -16 -3 -12 -9 -41 -12 -64 -5 -35 -4 -43 9
-43 9 0 17 13 21 38 13 72 26 101 48 104 27 4 33 21 14 41 -13 13 -13 22 4 78
24 79 29 130 13 136 -6 2 -14 -10 -18 -29z"/>
<path d="M3721 3968 c-7 -24 -31 -101 -53 -171 -31 -95 -38 -131 -30 -139 13
-13 46 8 36 23 -3 5 -2 9 3 9 4 0 21 21 38 47 33 52 44 42 26 -23 -10 -37 -7
-54 9 -54 13 0 32 76 28 113 -4 42 -32 47 -65 11 -25 -27 -25 -27 -17 -3 4 13
8 34 9 47 0 12 3 22 7 22 5 0 46 120 48 145 1 6 -5 11 -13 13 -9 2 -18 -13
-26 -40z"/>
<path d="M9641 3933 c-58 -114 -90 -298 -51 -298 11 0 14 11 12 45 -2 31 9 77
33 145 20 55 38 110 42 123 9 36 -15 26 -36 -15z"/>
<path d="M10784 3958 c-18 -8 -23 -22 -28 -76 -4 -37 -18 -125 -32 -195 -14
-71 -23 -132 -19 -135 9 -10 89 -5 128 6 17 6 44 13 60 16 15 4 27 11 27 17 0
11 -21 10 -142 -8 -45 -6 -45 -9 -19 118 10 52 22 123 26 159 4 36 12 68 19
72 21 14 99 8 118 -8 16 -16 18 -15 24 1 11 28 -22 45 -85 44 -31 0 -66 -5
-77 -11z"/>
<path d="M11280 3955 c-15 -18 -20 -17 104 -15 l99 2 -7 -69 c-3 -37 -9 -121
-13 -185 l-6 -118 -26 0 c-14 0 -42 4 -61 10 -27 8 -38 7 -49 -5 -12 -12 -12
-18 -3 -27 17 -17 122 -21 152 -6 24 13 25 18 22 88 -1 41 4 131 12 200 7 69
12 128 9 133 -2 4 -53 7 -112 7 -84 0 -111 -3 -121 -15z"/>
<path d="M5127 3896 c-7 -18 1 -26 25 -26 13 0 18 6 16 17 -4 22 -34 29 -41 9z"/>
<path d="M11010 3881 c-5 -11 -10 -37 -10 -58 l0 -39 50 -1 c57 -1 90 -22 90
-58 0 -50 -81 -73 -143 -40 -32 16 -59 10 -55 -14 6 -28 49 -42 113 -37 52 5
64 10 93 41 17 19 32 44 32 56 0 35 -51 76 -104 84 -41 6 -47 10 -44 29 2 17
10 21 43 22 57 1 59 2 45 19 -19 23 -97 20 -110 -4z"/>
<path d="M6175 3851 c-9 -16 3 -31 26 -31 14 0 19 6 17 17 -4 20 -33 29 -43
14z"/>
<path d="M3885 3828 c-60 -35 -107 -162 -73 -196 7 -7 26 -12 43 -12 37 0 135
55 135 75 0 19 2 20 -61 -15 -68 -37 -99 -39 -99 -6 0 40 11 56 37 56 25 0 73
43 73 66 0 10 -26 45 -33 44 -1 0 -11 -6 -22 -12z m3 -54 c-14 -14 -16 -14
-22 1 -3 9 -2 13 3 10 5 -3 13 0 16 6 4 5 10 8 13 4 3 -3 -1 -12 -10 -21z"/>
<path d="M8565 3799 c-41 -26 -55 -47 -55 -84 0 -68 60 -99 145 -75 44 12 74
35 62 46 -3 3 -28 -2 -56 -11 -64 -21 -109 -13 -117 21 -3 13 -4 30 -1 38 7
19 56 51 64 43 3 -4 -6 -11 -21 -16 -14 -6 -26 -15 -26 -20 0 -33 64 -14 82
24 8 19 8 28 -2 40 -16 20 -38 18 -75 -6z"/>
<path d="M7242 3786 c-19 -17 -36 -23 -50 -19 -19 4 -22 1 -22 -21 0 -15 -7
-43 -15 -63 -19 -44 -19 -53 0 -53 8 0 21 15 30 33 9 19 29 49 45 68 l30 34
-15 -37 c-21 -52 -4 -56 49 -14 23 20 45 36 48 36 3 0 2 -17 -3 -37 -4 -21 -6
-46 -3 -56 7 -22 38 -39 58 -31 23 9 20 34 -4 34 -16 0 -20 7 -20 30 0 17 7
44 15 61 27 51 -2 65 -60 29 l-32 -20 5 25 c6 33 -17 33 -56 1z"/>
<path d="M8324 3800 c-25 -10 -74 -66 -74 -85 0 -39 83 -42 121 -4 26 26 30 3
12 -75 -14 -65 -15 -66 -48 -66 -21 0 -44 -9 -61 -24 -25 -21 -28 -30 -28 -90
0 -55 4 -70 22 -88 20 -21 22 -21 40 -5 18 16 33 47 62 124 11 29 15 31 46 26
42 -7 47 14 6 28 l-28 10 18 72 c30 116 6 186 -44 132 -29 -31 -78 -50 -78
-31 0 20 36 48 71 55 42 8 51 31 12 30 -15 0 -37 -4 -49 -9z m26 -270 c0 -5
-4 -19 -9 -32 -45 -115 -60 -134 -62 -75 -2 65 3 92 19 105 19 14 52 16 52 2z"/>
<path d="M10021 3797 c-41 -21 -47 -40 -29 -96 16 -50 16 -50 -6 -48 -13 1
-21 -4 -21 -13 0 -21 63 -27 71 -6 3 8 -2 38 -11 67 -20 59 -11 73 38 63 29
-6 37 12 15 34 -15 15 -27 15 -57 -1z"/>
<path d="M2261 3774 c-39 -32 -79 -116 -69 -143 12 -34 22 -25 41 38 21 65 42
91 75 91 26 0 29 -25 7 -66 -18 -35 -19 -86 -3 -102 46 -46 121 38 93 103 -13
31 -48 65 -65 65 -6 0 -10 6 -10 14 0 25 -39 26 -69 0z m119 -108 c0 -30 -24
-61 -39 -51 -9 5 -11 18 -7 38 10 50 46 60 46 13z"/>
<path d="M7517 3763 c-44 -36 -46 -39 -40 -78 8 -55 19 -74 49 -81 32 -8 103
12 111 32 9 23 1 24 -50 7 -54 -18 -77 -8 -77 32 0 18 7 24 35 29 43 8 74 49
58 75 -17 27 -37 23 -86 -16z m53 -12 c0 -5 -10 -11 -22 -14 -22 -6 -22 -6 -4
8 23 17 26 18 26 6z"/>
<path d="M7893 3780 c-41 -25 -42 -52 -3 -80 39 -28 29 -44 -21 -36 -31 5 -39
3 -39 -9 0 -8 12 -17 28 -21 15 -3 32 -7 38 -9 19 -6 54 24 54 45 0 11 -14 32
-30 47 l-31 27 26 14 c16 8 38 11 56 7 22 -5 29 -3 29 8 0 32 -60 36 -107 7z"/>
<path d="M8068 3760 c-60 -64 -45 -125 26 -103 29 9 33 8 29 -7 -3 -9 3 -24
12 -33 13 -13 20 -14 41 -5 29 13 26 34 -4 30 -19 -3 -20 0 -12 28 5 18 15 38
21 46 9 11 9 18 1 26 -8 8 -19 2 -42 -21 -17 -17 -35 -31 -40 -31 -5 0 -15 -3
-24 -6 -25 -10 -19 19 10 51 18 20 32 26 50 22 29 -5 40 8 24 28 -21 25 -52
17 -92 -25z"/>
<path d="M9860 3793 c-53 -20 -64 -66 -25 -103 28 -26 25 -41 -6 -33 -17 5
-20 2 -17 -13 7 -38 78 -25 78 14 0 9 -12 28 -26 43 -34 36 -26 55 26 64 24 4
39 12 37 18 -4 13 -44 19 -67 10z"/>
<path d="M5375 3747 c-73 -73 -29 -166 60 -125 29 13 28 35 -1 30 -52 -9 -59
-7 -62 17 -4 27 40 78 72 83 29 4 23 22 -9 26 -18 2 -35 -6 -60 -31z"/>
<path d="M7718 3764 c-36 -19 -35 -42 3 -85 25 -28 28 -35 13 -37 -9 -2 -20 2
-24 8 -9 15 -30 5 -30 -15 0 -25 66 -35 88 -13 20 20 14 42 -18 73 -28 27 -29
31 -14 42 10 7 28 10 41 7 19 -5 23 -2 23 15 0 16 -6 21 -27 21 -16 -1 -40 -8
-55 -16z"/>
<path d="M9275 3752 c-59 -42 -69 -57 -55 -81 13 -26 48 -36 122 -36 64 0 64
0 73 38 6 23 4 27 -14 27 -12 0 -21 -6 -21 -15 0 -20 -42 -29 -87 -18 -50 12
-51 27 -4 59 35 23 44 25 70 16 21 -7 33 -8 37 -1 9 16 -8 29 -47 35 -27 5
-42 0 -74 -24z"/>
<path d="M9664 3761 c-35 -21 -50 -61 -34 -91 12 -21 36 -26 60 -10 11 7 19 4
31 -12 11 -14 22 -19 34 -14 16 6 16 8 3 24 -20 23 -28 60 -14 65 7 3 2 14
-13 31 -29 31 -28 31 -67 7z m39 -27 c9 -9 -9 -40 -27 -47 -23 -9 -27 7 -10
31 16 23 26 27 37 16z"/>
<path d="M5022 3699 c-18 -39 -29 -75 -26 -80 7 -12 34 -11 35 1 5 40 21 85
39 111 11 14 17 29 13 33 -17 17 -33 0 -61 -65z"/>
<path d="M5158 3720 c-35 -38 -51 -80 -28 -80 5 0 17 12 27 28 16 26 52 61 63
62 3 0 5 -21 5 -47 0 -68 21 -65 28 4 6 60 0 73 -37 73 -11 0 -36 -18 -58 -40z"/>
<path d="M5573 3725 c-36 -36 -38 -62 -8 -93 17 -18 62 -5 81 23 13 19 13 29
2 64 -7 22 -19 41 -26 41 -8 0 -30 -16 -49 -35z m47 -35 c0 -11 -9 -24 -20
-30 -17 -9 -20 -8 -20 13 0 25 18 49 32 41 4 -3 8 -14 8 -24z"/>
<path d="M5814 3738 c-16 -13 -30 -26 -32 -30 -2 -5 -9 -8 -15 -8 -8 0 -7 4 1
12 16 16 15 28 -3 28 -14 0 -55 -79 -55 -106 0 -22 10 -17 62 27 46 38 48 39
48 16 0 -39 10 -39 60 3 54 45 64 49 55 20 -8 -27 3 -60 20 -60 9 0 14 10 12
28 -1 15 2 39 6 55 13 48 -26 48 -91 1 -23 -17 -23 -17 -17 9 9 34 -11 36 -51
5z"/>
<path d="M6270 3742 c-37 -26 -100 -89 -100 -101 0 -28 24 -16 74 36 31 31 58
54 61 51 3 -3 -1 -24 -10 -46 -9 -23 -15 -49 -13 -59 5 -25 33 -23 33 2 1 11
7 39 14 62 22 69 -4 94 -59 55z"/>
<path d="M6421 3733 c-38 -35 -49 -74 -26 -97 16 -16 28 -15 74 2 11 4 12 -4
7 -44 -17 -118 -14 -112 -55 -107 -45 6 -104 -17 -125 -49 -9 -14 -19 -45 -22
-70 -6 -41 -3 -49 19 -72 17 -17 32 -24 44 -19 31 10 94 76 117 122 l23 43 20
-26 c23 -28 53 -35 53 -12 0 8 -16 27 -34 41 -29 22 -33 30 -27 48 30 78 20
230 -16 254 -19 13 -24 12 -52 -14z m46 -30 c0 -25 -16 -43 -38 -43 -18 0 -19
2 -4 30 17 33 41 40 42 13z m-39 -252 c18 -11 -6 -61 -51 -108 -54 -58 -89
-34 -67 46 15 56 77 88 118 62z"/>
<path d="M2619 3726 c-36 -24 -37 -25 -42 -6 -5 21 -32 27 -42 10 -5 -8 -11
-7 -21 1 -11 9 -16 5 -25 -17 -6 -16 -18 -45 -27 -64 -34 -73 -8 -76 43 -5 35
48 36 49 30 18 -9 -43 11 -44 51 -2 30 32 82 64 91 56 2 -3 -1 -23 -8 -45 -13
-43 -7 -76 13 -70 11 4 18 40 22 113 1 25 -3 30 -24 33 -14 1 -41 -8 -61 -22z"/>
<path d="M6095 3723 c-4 -10 -15 -35 -26 -57 -15 -27 -18 -41 -10 -49 6 -6 12
-9 13 -6 2 2 13 19 26 37 26 37 33 83 15 89 -7 3 -15 -4 -18 -14z"/>
<path d="M11236 3683 c-8 -19 8 -38 23 -29 16 10 13 46 -3 46 -8 0 -17 -8 -20
-17z"/>
<path d="M10241 3606 c-12 -14 -5 -26 16 -26 15 0 18 26 4 34 -5 3 -14 0 -20
-8z"/>
<path d="M7165 3151 c-56 -23 -127 -151 -157 -283 -32 -142 -9 -253 58 -278
41 -16 104 -13 104 5 0 10 -10 15 -34 15 -84 0 -112 40 -110 156 1 69 30 188
60 246 22 42 75 99 102 109 13 5 22 14 20 21 -6 16 -19 18 -43 9z"/>
<path d="M9679 3132 c-111 -71 -193 -253 -165 -366 16 -63 113 -136 181 -136
54 0 46 26 -10 32 -52 6 -107 44 -131 90 -53 101 54 329 172 368 19 7 33 17
31 23 -7 22 -32 18 -78 -11z"/>
<path d="M11532 3108 c2 -6 11 -15 19 -18 60 -28 75 -39 93 -69 42 -73 13
-224 -59 -308 -37 -44 -75 -57 -110 -39 -17 9 -20 15 -11 28 14 24 -1 35 -21
16 -14 -15 -14 -19 4 -50 18 -30 24 -33 63 -32 39 1 49 6 90 51 123 133 127
354 8 412 -49 23 -82 27 -76 9z"/>
<path d="M8782 3016 c-17 -35 -33 -74 -37 -86 -6 -18 -12 -21 -36 -16 -26 5
-48 -8 -36 -20 5 -5 28 -11 49 -13 4 -1 3 -13 -2 -27 -16 -42 -12 -92 10 -114
33 -33 140 -24 140 11 0 3 -25 6 -56 5 -66 -1 -80 12 -70 65 9 50 18 58 71 72
66 17 75 42 11 33 -55 -9 -58 -1 -22 66 34 65 40 88 23 88 -9 0 -28 -28 -45
-64z"/>
<path d="M7416 3035 c-23 -30 -25 -36 -11 -41 9 -4 17 -5 19 -3 19 26 46 68
46 73 0 18 -31 1 -54 -29z"/>
<path d="M9073 3053 c-3 -10 -19 -35 -35 -55 -26 -34 -30 -58 -9 -58 14 0 71
88 71 109 0 25 -18 28 -27 4z"/>
<path d="M12831 3043 c-18 -15 -25 -33 -30 -87 -8 -79 -30 -106 -88 -106 -27
0 -34 -4 -31 -17 2 -12 16 -20 41 -24 21 -3 46 -13 54 -22 15 -15 14 -19 -10
-54 -14 -21 -33 -54 -42 -74 -15 -32 -15 -38 -2 -72 9 -20 30 -45 48 -56 29
-17 35 -18 58 -6 46 24 64 42 57 54 -6 8 -16 6 -40 -9 -42 -25 -50 -25 -76 2
-30 33 -25 69 21 137 43 64 45 94 8 106 -18 6 -18 8 6 39 19 25 25 45 25 82 0
67 21 97 62 89 25 -6 29 -4 26 12 -5 26 -58 29 -87 6z"/>
<path d="M3761 3036 c-13 -15 -4 -26 21 -26 21 0 24 25 4 33 -8 3 -19 0 -25
-7z"/>
<path d="M9848 2943 c-34 -37 -68 -94 -68 -115 0 -30 27 -20 39 14 17 49 59
98 77 91 12 -4 15 -1 12 13 -5 29 -31 28 -60 -3z"/>
<path d="M12210 2958 c0 -6 20 -31 45 -55 25 -23 45 -47 45 -52 0 -10 -76 -81
-113 -106 -29 -18 -36 -45 -13 -45 24 0 166 129 166 151 0 8 -23 38 -51 67
-48 50 -79 66 -79 40z"/>
<path d="M4990 2920 c-39 -9 -61 -34 -53 -58 4 -10 21 -39 40 -67 34 -51 41
-79 22 -91 -19 -11 -59 17 -59 43 0 28 -16 30 -30 3 -10 -18 -6 -25 20 -50 37
-34 69 -38 93 -12 26 29 20 65 -19 122 -47 69 -41 85 31 76 44 -5 53 -3 49 8
-4 11 -49 39 -57 35 -1 -1 -18 -5 -37 -9z"/>
<path d="M10774 2905 c-14 -14 -36 -50 -50 -80 -20 -44 -23 -58 -14 -75 9 -17
14 -19 26 -9 8 6 14 22 14 35 0 32 18 75 43 102 16 18 27 21 54 16 37 -7 45 9
14 26 -32 16 -60 12 -87 -15z"/>
<path d="M7570 2888 c-29 -30 -73 -127 -65 -146 8 -23 28 0 48 56 21 57 41 79
77 84 35 4 31 22 -7 26 -22 2 -37 -3 -53 -20z"/>
<path d="M6025 2876 c-20 -20 -25 -21 -30 -8 -4 11 -9 12 -17 4 -15 -15 9
-132 28 -132 10 0 14 13 14 39 0 27 7 48 23 66 l22 26 39 -20 c42 -22 65 -19
45 6 -16 18 -63 43 -84 43 -9 0 -27 -11 -40 -24z"/>
<path d="M9932 2880 c-12 -11 -27 -38 -33 -60 -11 -37 -10 -42 12 -66 19 -20
31 -24 64 -22 55 4 56 31 0 32 -29 1 -41 5 -43 19 -2 12 3 17 17 17 11 0 32
11 48 24 24 21 26 26 15 50 -14 32 -49 35 -80 6z m48 -24 c0 -14 -29 -31 -38
-21 -6 6 18 35 29 35 5 0 9 -6 9 -14z"/>
<path d="M10934 2881 c-69 -42 -96 -118 -55 -155 26 -24 79 -34 119 -24 49 13
35 34 -20 30 -58 -5 -88 11 -88 44 0 21 4 24 19 19 29 -9 101 35 101 61 0 13
-27 44 -38 44 -4 0 -21 -9 -38 -19z m26 -41 c-14 -10 -34 -21 -45 -24 -15 -4
-13 1 10 19 17 14 37 25 45 25 10 0 7 -7 -10 -20z"/>
<path d="M11200 2892 c-27 -4 -60 -29 -60 -46 0 -5 17 -27 37 -48 29 -30 34
-41 25 -50 -10 -10 -17 -10 -33 1 -27 16 -49 0 -29 -24 20 -25 77 -19 95 9 20
30 10 54 -36 87 -35 25 -26 39 29 39 20 0 32 5 32 14 0 16 -24 23 -60 18z"/>
<path d="M12005 2889 c-10 -15 -6 -17 62 -21 63 -3 89 6 63 22 -21 13 -117 12
-125 -1z"/>
<path d="M7682 2859 c-39 -42 -46 -71 -27 -109 15 -29 60 -47 100 -38 30 6 20
23 -15 26 -19 2 -41 9 -48 14 -10 9 -7 14 17 24 35 15 53 45 49 82 -5 40 -39
41 -76 1z m28 -41 c-32 -26 -38 -13 -9 18 15 16 25 21 28 13 2 -7 -6 -21 -19
-31z"/>
<path d="M8320 2878 c-77 -29 -106 -113 -55 -163 29 -30 51 -31 84 -6 32 25
19 49 -15 27 -29 -20 -29 -20 -48 0 -19 19 -21 34 -3 34 21 0 87 60 87 80 0
27 -21 39 -50 28z m-11 -57 c-35 -30 -49 -25 -15 5 15 14 31 23 34 20 2 -3 -6
-14 -19 -25z"/>
<path d="M8490 2873 c-50 -25 -52 -58 -6 -80 38 -18 48 -46 20 -57 -9 -4 -24
0 -34 9 -22 20 -30 19 -30 -5 0 -23 32 -43 62 -38 12 2 30 15 41 29 24 33 12
61 -35 85 -24 12 -28 18 -17 25 8 5 27 9 42 9 22 0 28 4 25 17 -5 25 -27 26
-68 6z"/>
<path d="M4044 2869 c-100 -29 -88 -198 17 -222 34 -9 99 10 99 28 0 8 -6 15
-12 15 -10 0 -9 3 1 9 10 6 10 10 1 16 -7 4 -13 -1 -17 -14 -4 -17 -13 -21
-48 -21 -45 0 -58 9 -74 51 -9 24 -7 26 20 27 44 1 89 37 89 72 0 19 -7 33
-19 40 -11 5 -21 10 -23 9 -2 0 -17 -5 -34 -10z m46 -43 c0 -15 -33 -35 -57
-36 -13 0 -23 4 -23 8 0 5 10 20 23 34 18 20 25 23 40 14 9 -6 17 -15 17 -20z"/>
<path d="M5139 2851 c-43 -44 -36 -115 17 -162 41 -36 76 -33 88 9 6 17 3 22
-11 22 -11 0 -24 -5 -30 -11 -15 -15 -30 -5 -48 32 -15 29 -15 29 12 39 65 23
81 56 41 84 -30 21 -35 21 -69 -13z m47 -30 c-8 -13 -36 -15 -36 -3 0 4 5 13
12 20 14 14 34 0 24 -17z"/>
<path d="M5766 2851 c-38 -40 -46 -101 -17 -130 19 -19 58 -28 86 -21 6 2 20
2 31 2 23 -2 62 34 51 45 -4 3 -7 1 -7 -5 0 -7 -5 -12 -11 -12 -5 0 -7 5 -4
10 3 6 2 10 -4 10 -5 0 -13 -4 -16 -10 -9 -14 -89 -12 -103 2 -20 20 -14 25
37 38 28 6 59 22 72 37 l24 25 -24 19 c-35 29 -82 25 -115 -10z m87 -14 c2
-10 -74 -39 -82 -32 -2 3 4 14 14 25 18 20 63 24 68 7z"/>
<path d="M6705 2856 c-22 -18 -33 -21 -43 -14 -15 13 -15 14 -41 -46 -34 -79
-12 -81 61 -6 35 36 64 58 66 51 2 -7 -1 -32 -7 -56 -12 -49 -6 -77 17 -73 12
2 16 19 16 83 1 73 -1 80 -19 83 -11 1 -33 -9 -50 -22z"/>
<path d="M7869 2841 c-41 -41 -49 -70 -24 -91 14 -12 30 -11 66 5 16 6 16 0 3
-68 -8 -40 -28 -113 -44 -162 -35 -104 -34 -95 -15 -95 8 0 28 20 44 44 40 57
87 96 117 96 15 0 24 6 24 15 0 28 -56 18 -96 -17 -37 -32 -37 -32 -30 -8 14
49 36 146 49 218 12 65 12 74 -3 87 -26 24 -50 18 -91 -24z m71 -3 c-1 -18
-21 -43 -47 -56 -34 -19 -36 2 -4 37 30 32 51 40 51 19z"/>
<path d="M5633 2855 c-12 -9 -28 -35 -34 -58 -6 -23 -13 -48 -16 -56 -4 -17
-48 43 -54 74 -5 24 -32 27 -37 5 -3 -17 75 -140 90 -140 10 0 32 49 47 106 9
35 16 43 42 48 18 3 29 11 27 18 -7 19 -40 21 -65 3z"/>
<path d="M6467 2859 c-26 -15 -60 -87 -53 -115 4 -13 17 -31 30 -40 22 -14 27
-14 55 0 46 24 71 56 71 90 0 37 -7 49 -37 65 -26 13 -42 14 -66 0z m71 -60
c2 -19 -4 -33 -24 -48 -64 -51 -95 -1 -41 67 6 7 22 12 36 10 20 -2 27 -9 29
-29z"/>
<path d="M10096 2839 c-50 -59 -23 -125 38 -94 25 13 27 13 22 -3 -3 -9 -12
-46 -21 -82 -9 -36 -28 -96 -41 -134 -29 -83 -19 -110 22 -59 33 43 84 73 124
73 42 0 35 24 -9 28 -20 2 -46 -5 -68 -18 -32 -19 -35 -19 -28 -3 4 10 18 61
31 114 28 113 35 195 17 192 -7 -2 -13 2 -13 7 0 23 -49 9 -74 -21z m53 -18
c11 -7 9 -13 -8 -30 -35 -35 -54 -23 -31 20 12 21 18 23 39 10z"/>
<path d="M3677 2834 c-24 -32 -30 -66 -17 -98 10 -27 38 -34 57 -15 13 13 -7
61 -23 55 -16 -6 -6 30 12 45 17 14 18 39 2 39 -7 0 -21 -12 -31 -26z"/>
<path d="M5348 2850 c-35 -21 -45 -140 -12 -140 12 0 54 71 54 92 0 13 -28 9
-33 -4 -4 -8 -6 -9 -6 -2 -2 19 22 32 64 36 22 2 40 8 40 13 0 14 -86 17 -107
5z"/>
<path d="M8024 2804 c-16 -42 -16 -49 -3 -73 11 -20 24 -27 55 -29 54 -4 94
36 102 104 4 37 2 46 -9 42 -7 -2 -17 -22 -21 -43 -5 -22 -16 -47 -25 -57 -19
-22 -56 -23 -72 -4 -11 13 -4 38 27 99 2 4 -5 7 -16 7 -15 0 -25 -13 -38 -46z"/>
<path d="M11990 2816 c0 -10 17 -15 63 -18 34 -2 66 -1 71 3 20 17 -9 29 -70
29 -48 0 -64 -3 -64 -14z"/>
<path d="M10440 2767 c0 -13 -14 -42 -31 -65 -17 -23 -28 -46 -24 -52 9 -14
35 -12 35 3 0 7 11 28 25 47 28 38 34 90 10 90 -9 0 -15 -9 -15 -23z"/>
<path d="M3854 2739 c-3 -6 -2 -15 4 -21 13 -13 32 -2 32 18 0 16 -26 19 -36
3z"/>
<path d="M6186 2715 c-3 -9 1 -18 10 -22 19 -7 39 11 30 26 -10 16 -33 13 -40
-4z"/>
<path d="M9145 2700 c6 -26 2 -35 -25 -60 -18 -17 -36 -30 -41 -30 -5 0 -9 -7
-9 -15 0 -38 77 11 106 66 17 33 5 69 -22 69 -12 0 -14 -7 -9 -30z"/>
<path d="M9405 2365 c-70 -37 -153 -152 -206 -284 -13 -31 -29 -60 -36 -64 -8
-5 -12 -16 -9 -25 3 -9 -1 -42 -9 -72 -21 -79 -20 -110 5 -110 16 0 19 5 15
23 -3 12 3 51 12 87 l18 65 74 12 c41 7 76 14 78 17 10 9 -39 27 -55 20 -9 -4
-22 -6 -28 -5 -7 1 -14 -6 -18 -15 -5 -14 -7 -14 -22 1 -16 15 -13 24 34 118
77 155 151 228 208 206 25 -9 37 0 26 18 -13 20 -56 24 -87 8z"/>
<path d="M10692 2318 c-7 -7 -12 -17 -12 -22 0 -6 -22 -72 -49 -146 l-50 -135
-55 0 c-30 0 -58 -4 -63 -8 -13 -13 20 -27 65 -27 47 0 46 1 31 -37 -18 -46
-27 -111 -18 -125 13 -19 25 3 32 56 3 22 13 57 21 78 13 31 22 37 55 43 45 7
77 27 68 42 -5 7 -20 6 -48 -4 -23 -7 -43 -12 -46 -10 -2 3 16 59 41 125 24
67 47 135 51 151 7 32 -2 40 -23 19z"/>
<path d="M2677 2268 c-8 -13 -49 -86 -92 -163 -43 -77 -95 -171 -117 -208 -41
-74 -45 -87 -25 -87 7 0 26 23 43 52 31 55 28 53 137 72 l37 7 -6 -71 c-6 -59
-5 -70 9 -70 11 0 17 17 22 71 5 46 12 72 21 76 16 6 19 30 5 35 -6 2 -6 43 0
108 9 106 3 200 -12 200 -5 0 -15 -10 -22 -22z m7 -100 c-2 -24 -6 -77 -10
-119 l-5 -76 -62 -11 c-33 -6 -63 -9 -65 -7 -3 3 25 56 62 119 36 63 66 120
66 126 0 5 4 10 9 10 5 0 7 -19 5 -42z"/>
<path d="M10830 2243 c0 -50 -58 -214 -109 -309 -23 -42 -41 -77 -41 -80 0 -2
8 -4 18 -4 9 1 26 15 37 32 23 35 92 94 101 86 3 -3 -2 -23 -10 -43 -19 -44
-21 -78 -5 -73 7 2 20 24 30 48 35 87 18 125 -42 95 l-30 -16 17 38 c34 79 65
188 62 222 -4 49 -28 53 -28 4z"/>
<path d="M3045 2210 c-3 -5 -4 -14 -1 -19 8 -12 -12 -216 -25 -265 -12 -46
-65 -104 -80 -89 -16 16 8 91 38 119 22 20 23 25 9 30 -24 9 -53 -21 -71 -76
-30 -92 8 -136 72 -83 49 39 72 104 82 232 5 58 12 114 16 123 8 19 -29 45
-40 28z"/>
<path d="M3817 2203 c-2 -5 -14 -46 -27 -93 -13 -47 -26 -89 -30 -93 -4 -5
-29 -11 -55 -15 -69 -10 -74 -35 -7 -31 l51 4 -2 -41 c-1 -23 -5 -40 -8 -38
-7 4 -19 -46 -19 -77 0 -27 30 -24 31 4 0 12 10 55 22 96 20 70 24 75 55 83
39 10 38 34 -2 30 -14 -1 -26 -1 -26 0 0 2 9 35 20 73 11 38 20 78 20 87 0 18
-15 25 -23 11z"/>
<path d="M3924 2173 c-20 -89 -39 -159 -66 -245 -17 -54 -27 -105 -24 -114 8
-21 15 -14 47 46 13 25 35 56 49 69 l25 25 3 -22 c2 -12 -3 -46 -12 -74 -16
-55 -14 -68 10 -68 8 0 14 10 14 24 0 12 4 36 9 52 18 57 20 91 7 110 -13 17
-15 17 -42 -1 -16 -10 -35 -26 -41 -34 -9 -11 -8 0 2 34 28 93 54 208 49 217
-10 16 -24 8 -30 -19z"/>
<path d="M7015 2134 c-8 -56 -70 -251 -86 -270 -6 -7 -9 -23 -7 -36 7 -53 112
-25 159 42 31 44 32 77 5 95 -22 15 -27 15 -57 0 -29 -16 -31 -16 -26 -1 12
32 39 141 43 178 4 28 1 38 -9 38 -10 0 -17 -16 -22 -46z m55 -204 c0 -41 -62
-100 -105 -100 -25 0 -19 11 42 76 30 33 63 45 63 24z"/>
<path d="M7990 2166 c0 -8 -3 -16 -7 -18 -5 -1 -24 -33 -43 -70 l-35 -67 -54
6 c-43 5 -53 3 -49 -8 5 -15 65 -31 87 -24 9 4 11 0 6 -12 -4 -10 -9 -35 -12
-55 -5 -30 -1 -41 22 -63 23 -24 32 -27 68 -22 23 3 46 13 53 21 6 9 14 13 17
9 4 -3 7 -1 7 7 0 12 -3 12 -86 -7 -34 -8 -57 23 -49 66 10 50 10 51 68 51 64
0 99 9 94 24 -2 7 -27 10 -72 7 l-67 -3 41 77 c45 85 48 95 26 95 -8 0 -15 -6
-15 -14z"/>
<path d="M13243 2127 c-30 -17 -58 -56 -92 -128 -23 -47 -28 -67 -20 -81 5
-10 14 -18 19 -18 15 0 51 78 40 85 -14 9 24 79 57 105 27 21 55 23 96 5 12
-5 17 -3 17 9 0 33 -73 48 -117 23z"/>
<path d="M7266 2083 c-3 -4 -6 -17 -6 -30 0 -25 17 -30 43 -10 13 9 14 15 4
27 -13 17 -31 22 -41 13z"/>
<path d="M14500 2077 c-35 -18 -36 -42 -5 -87 20 -29 26 -46 21 -66 -6 -23
-10 -26 -38 -20 -41 8 -44 12 -28 41 17 32 10 39 -18 19 -12 -8 -22 -26 -22
-39 0 -51 94 -76 124 -33 20 29 20 82 0 98 -8 8 -20 22 -26 33 -12 23 3 37 40
37 14 0 22 5 20 13 -6 17 -39 19 -68 4z"/>
<path d="M14695 2049 c-27 -23 -50 -45 -49 -50 1 -5 2 -25 3 -44 1 -43 31 -75
69 -75 56 0 181 60 182 88 0 18 -15 15 -54 -12 -49 -33 -131 -52 -151 -36 -8
7 -15 23 -15 36 0 19 8 25 41 34 79 22 118 92 54 98 -23 2 -42 -7 -80 -39z
m75 3 c0 -10 -50 -35 -57 -28 -3 2 8 11 24 20 34 18 33 18 33 8z"/>
<path d="M12341 2042 c-20 -21 -49 -60 -66 -87 -39 -64 -58 -68 -79 -15 -15
38 -25 47 -39 34 -8 -8 13 -65 31 -86 8 -10 28 -18 44 -18 25 0 35 10 79 79
27 44 61 87 74 95 29 19 33 36 9 36 -9 0 -33 -17 -53 -38z"/>
<path d="M12689 2030 c-27 -28 -49 -56 -49 -64 0 -8 -8 -28 -17 -45 -10 -16
-15 -33 -11 -37 15 -14 36 6 61 58 44 86 60 103 101 100 37 -3 45 5 24 26 -25
25 -59 13 -109 -38z"/>
<path d="M11649 2050 c-57 -30 -65 -44 -51 -96 7 -24 12 -53 12 -64 0 -20 -27
-40 -54 -40 -13 0 -14 5 -6 26 12 31 12 34 0 34 -5 0 -17 -14 -26 -32 -16 -31
-16 -32 6 -50 30 -24 43 -23 79 8 34 28 40 68 21 120 -12 31 -2 47 42 70 20
11 33 12 47 4 14 -7 20 -6 25 5 5 15 -21 35 -46 35 -7 -1 -29 -9 -49 -20z"/>
<path d="M12468 2054 c-33 -17 -88 -95 -88 -123 0 -32 27 -51 73 -51 23 0 48
4 56 9 14 9 7 31 -10 31 -6 0 -7 -4 -4 -10 5 -9 -36 -6 -72 6 -21 6 -15 34 7
34 23 0 69 19 93 38 20 17 22 53 5 70 -15 15 -27 15 -60 -4z m42 -34 c0 -11
-33 -30 -51 -30 -8 0 -5 7 6 20 19 21 45 27 45 10z"/>
<path d="M8515 2050 c-7 -12 12 -40 27 -40 13 0 6 43 -9 47 -6 2 -14 -1 -18
-7z"/>
<path d="M13362 2030 c-54 -40 -84 -90 -80 -132 4 -40 41 -64 81 -54 35 8 35
26 0 26 -39 0 -55 13 -51 41 2 18 12 25 43 31 67 14 107 72 73 106 -17 17 -19
16 -66 -18z m48 -19 c0 -11 -19 -26 -45 -35 -17 -6 -17 -4 4 18 25 26 41 33
41 17z"/>
<path d="M14294 2038 c-16 -13 -39 -34 -51 -48 l-21 -25 5 28 c4 20 1 27 -11
27 -9 0 -16 -7 -16 -15 0 -9 -9 -34 -21 -57 -15 -28 -18 -43 -10 -51 8 -8 32
10 85 61 41 40 76 72 79 72 4 0 -1 -21 -9 -47 -25 -76 -28 -103 -13 -103 14 0
59 127 59 164 0 24 -42 20 -76 -6z"/>
<path d="M9398 2033 c-9 -10 -32 -48 -52 -84 -30 -54 -34 -68 -23 -77 11 -9
22 4 53 66 36 70 42 77 72 80 41 4 38 26 -4 30 -19 2 -36 -4 -46 -15z"/>
<path d="M10971 2025 c-41 -29 -71 -77 -71 -111 0 -33 42 -74 77 -75 77 -3
126 7 120 24 -2 6 -28 10 -69 8 -50 -2 -69 2 -82 15 -26 25 -17 56 18 60 46 5
96 33 96 54 0 16 -34 50 -50 50 -3 0 -21 -11 -39 -25z m45 -30 c-27 -21 -53
-20 -36 0 7 8 22 15 34 15 21 -1 21 -1 2 -15z"/>
<path d="M13874 2036 c-36 -16 -96 -85 -89 -103 2 -7 0 -12 -6 -10 -5 1 -19
-20 -30 -48 -11 -27 -34 -79 -50 -114 -31 -65 -31 -83 -1 -65 20 13 92 142 92
167 0 20 0 20 36 6 22 -8 36 -6 64 6 43 19 57 40 66 93 5 32 2 44 -15 61 -24
24 -26 25 -67 7z m51 -36 c10 -16 -14 -87 -31 -94 -30 -11 -72 -6 -78 10 -6
16 35 79 57 88 21 8 46 6 52 -4z"/>
<path d="M14064 2036 c-36 -19 -54 -38 -70 -69 -14 -25 -14 -31 0 -53 21 -31
57 -39 94 -20 35 18 42 33 42 90 0 61 -21 77 -66 52z m16 -108 c-25 -21 -29
-21 -50 -8 -25 15 -1 64 35 70 26 5 30 2 33 -20 3 -16 -4 -30 -18 -42z"/>
<path d="M4757 2029 c-35 -21 -98 -182 -78 -202 17 -17 29 2 46 72 21 85 51
120 90 103 31 -14 47 5 20 25 -22 15 -53 16 -78 2z"/>
<path d="M5287 2014 c-44 -44 -86 -130 -107 -220 -11 -47 -25 -95 -31 -106 -6
-11 -8 -26 -5 -35 12 -30 33 6 61 102 20 65 32 92 39 85 46 -46 168 75 151
151 -12 53 -67 65 -108 23z m73 -24 c19 -35 -44 -130 -86 -130 -7 0 -15 12
-18 26 -7 27 7 58 47 102 25 27 43 28 57 2z"/>
<path d="M11812 2009 c-73 -36 -119 -119 -93 -167 17 -31 76 -45 117 -27 52
21 43 37 -16 29 -55 -7 -80 5 -80 39 0 26 84 107 110 107 28 0 16 -22 -25 -44
-19 -11 -35 -23 -35 -27 0 -36 96 15 106 56 6 26 -9 55 -30 55 -6 0 -30 -10
-54 -21z"/>
<path d="M13586 2015 c-21 -21 -21 -18 16 -83 30 -53 30 -56 13 -68 -23 -17
-37 -18 -52 -3 -16 16 -28 -8 -13 -26 18 -21 53 -18 84 6 32 25 33 43 1 94
-35 58 -33 67 18 63 32 -2 42 1 42 12 0 22 -87 26 -109 5z"/>
<path d="M5948 2009 c-21 -11 -23 -47 -7 -83 6 -13 9 -36 5 -50 -5 -22 -12
-26 -41 -26 -26 0 -33 3 -29 15 4 10 0 15 -10 15 -28 0 -32 -31 -7 -52 32 -25
67 -23 97 8 26 26 29 60 9 121 -6 18 -2 25 19 34 14 7 26 16 26 21 0 11 -41
10 -62 -3z"/>
<path d="M12053 1989 c-24 -25 -31 -28 -30 -14 1 10 -4 20 -10 22 -7 3 -13 -2
-13 -10 0 -8 -14 -41 -30 -73 -23 -42 -28 -60 -19 -68 8 -8 14 -6 23 9 6 10
36 46 66 78 46 50 59 58 81 53 32 -6 43 2 28 21 -20 23 -62 15 -96 -18z"/>
<path d="M5050 1988 c-48 -32 -49 -60 -6 -108 21 -24 33 -46 30 -55 -8 -19
-13 -19 -36 1 -16 16 -18 15 -24 -1 -8 -20 18 -45 47 -45 19 0 49 36 49 57 0
7 -16 30 -35 52 -21 23 -33 45 -29 54 6 16 44 34 82 39 36 5 31 23 -8 26 -24
2 -47 -4 -70 -20z"/>
<path d="M4883 1978 c-60 -43 -82 -117 -45 -151 30 -27 112 -28 112 -1 0 10 6
14 15 10 8 -3 15 -1 15 4 0 17 -20 21 -40 7 -22 -15 -81 -10 -86 8 -2 6 19 20
47 32 33 15 48 26 43 34 -4 7 -3 9 3 6 6 -4 16 0 23 8 10 12 10 21 2 40 -15
32 -47 32 -89 3z m62 -18 c7 -11 -52 -50 -75 -50 -10 0 -3 11 18 30 34 32 47
36 57 20z"/>
<path d="M6150 1987 c-14 -6 -36 -34 -49 -60 -28 -56 -20 -90 25 -108 31 -11
105 -3 130 16 18 13 10 40 -8 29 -20 -13 -83 -23 -105 -17 -16 3 -23 13 -23
29 0 18 5 24 23 24 29 0 87 36 87 54 0 18 -27 46 -43 46 -7 0 -23 -6 -37 -13z
m39 -41 c-11 -10 -49 -16 -49 -8 0 13 44 31 49 20 1 -5 1 -11 0 -12z"/>
<path d="M9550 1988 c0 -7 -14 -26 -31 -43 -23 -22 -29 -37 -27 -60 3 -26 8
-30 34 -33 22 -2 40 5 64 24 27 23 31 32 26 58 -7 34 -32 66 -53 66 -7 0 -13
-6 -13 -12z m35 -55 c4 -12 -1 -24 -15 -35 -45 -37 -68 -13 -28 29 26 28 34
29 43 6z"/>
<path d="M4065 1968 c-15 -12 -34 -36 -41 -55 -13 -29 -12 -37 1 -63 28 -54
79 -64 153 -30 38 17 62 43 50 55 -2 2 -26 -7 -53 -20 -53 -27 -85 -31 -103
-13 -18 18 -15 24 17 38 47 19 73 53 65 84 -8 33 -49 35 -89 4z m63 -20 c-6
-16 -67 -52 -75 -45 -8 8 47 57 64 57 8 0 13 -6 11 -12z"/>
<path d="M5681 1964 c-24 -20 -31 -22 -31 -10 0 9 -7 16 -15 16 -10 0 -15 -10
-15 -34 0 -18 -9 -45 -20 -59 -24 -30 -26 -47 -5 -47 8 0 33 25 55 55 38 52
66 75 89 75 13 0 4 -54 -15 -92 -17 -34 -18 -68 -1 -68 13 0 30 43 48 118 18
73 -30 97 -90 46z"/>
<path d="M7589 1967 c-94 -63 -56 -149 59 -132 33 5 42 10 42 26 0 21 -12 24
-40 9 -10 -5 -32 -7 -49 -4 -24 5 -31 12 -31 30 0 24 44 63 57 50 3 -3 12 -1
20 5 10 9 10 15 2 25 -15 19 -20 18 -60 -9z"/>
<path d="M9741 1964 c-16 -14 -34 -24 -38 -23 -10 3 -53 -60 -53 -77 0 -25 18
-15 64 34 l45 47 -10 -38 c-18 -67 18 -78 80 -22 45 41 51 43 51 12 0 -13 5
-28 12 -35 15 -15 72 -16 99 -2 25 14 26 45 2 35 -10 -5 -33 -10 -50 -13 -33
-4 -33 -4 -33 37 0 60 -20 62 -77 10 -45 -41 -66 -42 -44 0 15 28 14 61 -3 61
-8 0 -28 -11 -45 -26z"/>
<path d="M2741 1938 c-7 -24 -19 -53 -28 -66 -8 -13 -12 -31 -8 -39 4 -13 17
-3 56 40 28 32 54 57 58 57 4 0 12 -21 17 -46 12 -60 30 -53 26 11 -4 61 -23
86 -52 67 -26 -16 -30 -15 -30 3 0 32 -27 13 -39 -27z"/>
<path d="M5482 1964 c-53 -37 -69 -117 -27 -136 75 -34 139 77 78 137 -18 19
-23 19 -51 -1z m38 -43 c12 -24 4 -48 -21 -62 -38 -20 -51 13 -23 56 20 30 30
31 44 6z"/>
<path d="M7375 1970 c-33 -13 -63 -47 -70 -79 -14 -65 51 -124 117 -105 50 14
46 32 -6 32 -43 -1 -76 14 -76 34 0 5 20 17 45 28 48 21 68 58 45 85 -14 17
-25 18 -55 5z m16 -50 c-13 -11 -30 -20 -39 -20 -13 0 -12 3 3 20 10 11 28 20
39 20 20 -1 20 -1 -3 -20z"/>
<path d="M8630 1953 c-16 -21 -19 -34 -13 -57 13 -57 10 -90 -10 -94 -15 -3
-18 2 -15 27 4 39 -13 44 -30 9 -18 -38 -1 -68 37 -68 52 0 72 45 52 116 -10
35 -5 47 23 57 15 6 16 10 6 22 -17 21 -25 19 -50 -12z"/>
<path d="M6764 1952 c-47 -38 -59 -107 -24 -142 28 -28 57 -25 92 10 25 26 29
36 24 62 -3 18 -13 39 -21 48 -8 9 -15 22 -15 28 0 18 -32 14 -56 -6z m54 -59
c20 -38 -24 -87 -54 -62 -17 14 -18 51 -2 67 17 17 46 15 56 -5z"/>
<path d="M8466 1928 c-2 -7 -11 -33 -20 -58 -20 -56 -20 -60 -1 -60 16 0 35
37 39 75 1 12 5 26 9 32 7 11 -1 23 -15 23 -5 0 -10 -6 -12 -12z"/>
<path d="M7215 1898 c-2 -7 -6 -31 -8 -53 -6 -49 -51 -183 -83 -247 -29 -57
-59 -65 -69 -18 -8 35 -23 48 -31 26 -10 -26 5 -65 31 -82 23 -15 27 -15 51 1
28 18 71 105 100 200 22 73 19 62 28 110 4 22 10 48 13 58 5 20 -25 25 -32 5z"/>
<path d="M3257 1636 c-21 -87 -46 -235 -42 -250 2 -6 6 -24 10 -39 12 -56 26
-20 30 73 2 80 20 175 51 273 4 12 0 17 -13 17 -14 0 -22 -16 -36 -74z"/>
<path d="M3850 1558 c-26 -29 -25 -53 5 -111 21 -39 23 -48 11 -53 -8 -3 -29
2 -45 12 -32 19 -47 15 -37 -11 13 -36 100 -45 120 -13 8 14 4 29 -17 71 -15
30 -27 59 -27 65 0 19 33 31 53 20 30 -16 43 6 16 26 -32 22 -54 20 -79 -6z"/>
<path d="M3629 1541 c-42 -42 -39 -81 8 -120 33 -27 34 -34 3 -33 -3 0 -15 3
-27 7 -19 5 -23 2 -23 -14 0 -25 38 -37 77 -24 41 14 40 40 -3 84 -33 34 -36
41 -26 63 6 15 23 27 41 31 38 8 42 35 5 35 -15 0 -38 -12 -55 -29z"/>
<path d="M2944 1516 c-27 -18 -55 -45 -62 -60 -30 -67 57 -132 142 -105 48 15
61 24 52 37 -4 6 -21 4 -47 -4 -58 -20 -119 4 -119 47 0 23 68 79 97 79 19 0
41 16 32 24 -20 18 -50 12 -95 -18z"/>
<path d="M3367 1488 c-36 -48 -41 -75 -23 -103 20 -30 45 -32 77 -6 22 18 23
18 39 -2 25 -30 42 -14 24 23 -9 16 -12 35 -8 41 7 11 -13 59 -31 71 -23 17
-55 7 -78 -24z m71 -7 c10 -6 11 -13 1 -34 -16 -36 -59 -64 -69 -46 -9 14 -4
33 18 67 15 23 29 27 50 13z"/>
<path d="M4723 1214 c-9 -23 11 -38 26 -20 13 16 7 36 -10 36 -5 0 -12 -7 -16
-16z"/>
<path d="M5085 1116 c-68 -29 -126 -131 -103 -182 16 -35 41 -38 112 -14 86
28 102 41 87 68 -6 12 -15 22 -20 22 -12 0 -30 -23 -28 -35 2 -12 -92 -45
-110 -38 -14 5 -17 40 -7 67 3 9 16 16 29 16 31 0 89 41 93 66 5 32 -18 45
-53 30z m25 -31 c0 -2 -15 -12 -32 -20 l-33 -16 24 21 c22 19 41 26 41 15z"/>
<path d="M4643 1061 c-58 -74 -57 -162 2 -161 24 1 55 22 55 39 0 14 -23 14
-37 0 -16 -16 -33 -2 -33 25 0 25 54 106 71 106 5 0 7 5 4 10 -11 18 -40 9
-62 -19z"/>
<path d="M4831 956 c-7 -8 -10 -20 -6 -26 9 -15 35 -12 35 5 0 8 0 18 1 22 1
14 -18 13 -30 -1z"/>
<path d="M9174 931 c-39 -25 -147 -139 -167 -177 -70 -135 -74 -345 -9 -433
27 -37 108 -79 123 -64 15 15 -1 45 -22 40 -27 -7 -74 27 -94 69 -29 61 -32
184 -7 273 27 95 59 146 131 214 33 30 57 57 53 60 -4 2 0 2 8 -1 44 -13 68 8
32 27 -14 7 -26 5 -48 -8z"/>
<path d="M5270 915 c0 -8 7 -15 15 -15 8 0 15 7 15 15 0 8 -7 15 -15 15 -8 0
-15 -7 -15 -15z"/>
<path d="M13893 903 c-10 -15 -26 -36 -35 -45 -20 -20 -23 -44 -9 -53 6 -3 15
5 22 17 6 13 25 37 41 55 17 17 27 36 24 42 -11 18 -24 13 -43 -16z"/>
<path d="M7590 844 c-6 -14 -20 -55 -33 -90 -20 -59 -24 -64 -52 -64 -16 0
-37 -5 -45 -10 -13 -9 -13 -11 0 -20 8 -6 25 -8 38 -5 26 6 26 6 6 -61 -16
-49 -13 -99 4 -78 5 5 18 41 30 81 23 74 25 75 90 88 36 7 36 8 22 36 -13 23
-30 25 -30 4 0 -10 -10 -15 -32 -14 -18 0 -28 3 -21 5 6 3 19 29 29 57 9 29
21 57 26 64 11 13 3 33 -13 33 -5 0 -14 -12 -19 -26z"/>
<path d="M7975 773 c-14 -49 -32 -106 -40 -128 -23 -69 -45 -152 -45 -174 0
-42 26 -20 37 32 21 99 25 104 88 112 31 3 59 4 62 1 3 -2 -5 -34 -17 -70 -22
-68 -20 -106 7 -106 11 0 14 6 10 22 -4 13 14 82 44 171 27 83 49 157 47 166
-1 9 1 22 6 30 5 8 4 16 -5 21 -17 11 -28 4 -26 -18 0 -9 -10 -54 -23 -98
l-23 -81 -61 -6 c-33 -3 -62 -4 -63 -3 -7 7 40 152 51 158 17 10 8 58 -10 58
-8 0 -23 -33 -39 -87z"/>
<path d="M11350 836 c0 -8 -16 -36 -36 -61 -19 -26 -33 -49 -30 -52 11 -11 36
8 66 48 32 45 39 79 15 79 -8 0 -15 -6 -15 -14z"/>
<path d="M14721 827 c-31 -81 -72 -158 -88 -163 -31 -10 -45 -19 -43 -29 1 -5
10 -9 21 -8 23 3 23 4 4 -40 -8 -20 -15 -50 -15 -67 0 -40 30 -42 31 -2 0 15
8 47 17 72 18 45 18 45 67 45 61 0 71 20 16 32 l-40 8 26 60 c31 73 40 115 24
115 -6 0 -15 -10 -20 -23z"/>
<path d="M8760 837 c0 -37 -64 -295 -76 -308 -21 -23 -54 -25 -54 -3 0 26 38
81 60 87 24 6 26 25 5 34 -29 11 -95 -76 -95 -126 0 -34 26 -51 59 -40 55 19
69 47 100 190 15 74 30 140 32 148 2 8 -4 17 -13 19 -10 2 -18 1 -18 -1z"/>
<path d="M10875 830 c-41 -16 -50 -37 -37 -86 16 -61 15 -77 -8 -107 -17 -21
-26 -25 -55 -20 -27 4 -36 2 -41 -12 -9 -21 11 -35 51 -35 58 -1 62 -13 20
-70 -51 -70 -58 -127 -20 -165 22 -23 33 -27 66 -22 47 6 95 35 82 48 -6 6
-24 3 -48 -6 -106 -45 -125 42 -34 156 34 44 37 65 8 74 -20 7 -20 7 -2 27 19
21 25 99 11 149 -7 23 -4 28 22 39 16 7 37 10 46 6 21 -8 34 1 27 19 -6 16
-55 19 -88 5z"/>
<path d="M14485 800 c-14 -23 -23 -45 -20 -50 10 -16 33 0 45 31 7 16 16 29
21 29 5 0 9 7 9 15 0 29 -30 15 -55 -25z"/>
<path d="M10121 756 c-29 -65 -45 -84 -56 -66 -12 20 -52 10 -81 -21 -27 -28
-29 -36 -29 -102 0 -68 -3 -77 -44 -142 -42 -68 -57 -124 -35 -132 6 -2 14 10
17 26 4 17 25 60 48 96 34 54 50 70 97 93 73 35 101 78 83 127 -10 29 -8 38
19 90 16 31 30 66 30 76 0 37 -20 18 -49 -45z m-61 -104 c0 -3 -70 -106 -77
-112 -10 -9 4 90 15 102 9 11 62 19 62 10z m29 -60 c-5 -16 -23 -36 -40 -46
l-31 -18 13 23 c37 71 79 100 58 41z"/>
<path d="M12095 735 c-14 -46 -30 -87 -35 -90 -5 -3 -19 -1 -31 5 -16 9 -24 9
-32 1 -14 -14 7 -31 40 -31 22 0 22 0 -7 -80 -20 -52 -26 -81 -19 -86 15 -9
24 4 44 66 26 81 43 110 65 110 27 0 36 20 11 27 -26 7 -26 6 -1 85 24 76 24
78 6 78 -10 0 -24 -30 -41 -85z"/>
<path d="M13146 756 c-10 -36 -16 -68 -13 -73 3 -5 -10 -10 -30 -11 -40 -3
-53 -9 -53 -23 0 -5 14 -9 31 -9 26 0 30 -3 24 -17 -12 -31 -35 -117 -35 -135
0 -10 7 -18 15 -18 8 0 15 9 15 20 0 11 10 49 21 85 16 47 26 65 38 63 19 -3
29 41 12 52 -8 4 -7 19 4 49 18 53 19 81 2 81 -7 0 -21 -29 -31 -64z"/>
<path d="M12634 738 l-19 -73 -37 -3 c-44 -4 -52 -28 -13 -38 14 -3 25 -9 25
-13 -1 -22 -34 -97 -48 -107 -14 -10 -14 -14 -3 -28 25 -29 38 -17 60 58 23
83 40 106 77 106 13 0 24 6 24 13 0 17 -34 49 -43 41 -3 -3 1 15 9 42 18 59
18 74 0 74 -8 0 -20 -27 -32 -72z"/>
<path d="M15240 755 c-6 -15 -20 -27 -37 -30 -52 -12 -73 -24 -73 -45 0 -23
25 -27 34 -5 3 8 12 15 21 15 12 0 10 -10 -11 -50 -14 -27 -28 -67 -31 -89 -4
-32 -2 -41 15 -50 27 -14 99 -3 106 16 5 12 -3 14 -41 11 -47 -3 -48 -3 -46
25 2 34 35 105 63 134 12 14 27 19 40 16 23 -6 28 15 5 23 -8 4 -15 17 -15 30
0 31 -18 31 -30 -1z"/>
<path d="M7385 760 c-11 -17 5 -32 21 -19 7 6 11 15 8 20 -7 12 -21 11 -29 -1z"/>
<path d="M9839 728 c-27 -54 -24 -52 -48 -39 -55 30 -143 -99 -122 -177 6 -20
1 -39 -21 -78 -26 -46 -28 -64 -7 -64 4 0 20 23 35 50 23 42 32 50 56 50 91 0
176 121 122 174 -14 15 -13 20 10 62 24 44 26 64 6 64 -5 0 -19 -19 -31 -42z
m-66 -101 c-24 -38 -66 -97 -69 -97 -13 0 0 62 17 84 21 26 68 39 52 13z m65
-26 c2 -12 -4 -33 -13 -47 -17 -26 -80 -62 -91 -51 -9 8 79 127 91 123 6 -1
11 -13 13 -25z"/>
<path d="M9475 746 c-43 -19 -72 -53 -57 -68 9 -9 17 -7 34 9 13 11 33 26 46
32 20 10 22 9 22 -11 0 -47 -60 -124 -147 -189 -29 -22 -53 -46 -53 -54 0 -22
21 -18 54 9 29 24 54 24 69 -1 4 -7 22 -20 38 -29 28 -14 33 -14 55 1 13 8 24
20 24 25 0 14 -18 21 -25 10 -11 -18 -36 -11 -70 19 l-33 29 35 33 c64 63 102
144 82 180 -11 22 -32 23 -74 5z"/>
<path d="M6503 701 c-45 -28 -50 -55 -19 -96 14 -18 26 -38 26 -44 0 -17 -47
-13 -54 4 -6 17 -36 21 -36 4 0 -32 22 -49 65 -49 71 0 81 43 24 106 -19 20
-19 21 0 38 13 11 27 15 40 11 24 -7 29 13 9 33 -16 16 -17 15 -55 -7z"/>
<path d="M6098 645 c-21 -20 -38 -42 -38 -50 0 -8 -7 -33 -16 -55 -11 -27 -13
-45 -7 -51 14 -14 27 5 48 66 9 28 26 60 37 73 22 23 48 30 48 12 0 -5 7 -10
15 -10 18 0 20 21 3 38 -21 21 -52 13 -90 -23z"/>
<path d="M6266 648 c-14 -18 -30 -38 -35 -44 -6 -7 -13 -27 -16 -46 -10 -51
13 -71 74 -63 60 8 71 12 71 25 0 7 -18 11 -47 10 -27 -1 -54 -1 -60 -1 -26 2
-12 21 30 39 53 24 80 54 75 84 -2 18 -10 24 -34 26 -25 2 -36 -3 -58 -30z
m64 -1 c0 -2 -13 -16 -30 -32 -33 -32 -42 -21 -10 13 18 19 40 29 40 19z"/>
<path d="M6873 657 c-53 -22 -70 -47 -34 -47 11 0 26 6 33 13 7 6 24 14 37 15
l25 4 -19 -29 c-9 -15 -29 -40 -42 -55 -39 -42 -18 -54 29 -16 39 31 41 31 54
12 26 -38 35 -44 63 -44 15 0 35 8 44 18 20 22 52 110 44 119 -13 13 -35 -7
-41 -38 -7 -37 -32 -69 -53 -69 -8 0 -21 16 -29 35 -8 19 -19 35 -24 35 -6 0
-6 7 1 19 15 23 5 51 -18 50 -10 0 -42 -10 -70 -22z"/>
<path d="M7669 655 c-20 -13 -39 -31 -43 -40 -19 -49 8 -95 55 -95 33 0 126
47 133 67 7 18 -4 16 -80 -18 -33 -14 -59 -19 -70 -15 -18 8 -18 8 0 19 52 32
79 63 72 85 -9 28 -23 28 -67 -3z"/>
<path d="M15537 654 c-33 -17 -47 -30 -45 -42 4 -21 38 -29 38 -9 0 8 17 22
38 30 l37 15 6 -32 c7 -42 17 -56 38 -56 23 0 77 58 85 93 7 30 -11 38 -21 10
-9 -25 -44 -63 -59 -63 -8 0 -14 16 -16 38 -3 31 -7 37 -28 39 -14 2 -47 -9
-73 -23z"/>
<path d="M7184 643 c-24 -26 -45 -81 -37 -95 9 -16 24 -7 33 20 19 52 33 71
53 74 31 5 33 28 2 28 -15 0 -36 -11 -51 -27z"/>
<path d="M14112 654 c1 -9 9 -19 16 -22 9 -3 13 2 10 14 -1 9 -9 19 -16 22 -9
3 -13 -2 -10 -14z"/>
<path d="M14792 637 c-37 -38 -51 -92 -30 -120 22 -29 118 -23 118 7 0 10 -12
12 -45 8 -37 -4 -46 -1 -52 13 -4 13 1 23 18 34 35 23 70 63 66 75 -8 24 -43
16 -75 -17z"/>
<path d="M8256 639 c-37 -29 -56 -70 -56 -122 0 -51 22 -77 63 -77 38 0 107
30 107 46 0 16 -22 18 -36 4 -6 -6 -31 -12 -55 -13 -43 -2 -44 -1 -47 30 -2
25 0 32 10 28 8 -3 30 5 49 18 37 24 50 67 28 93 -16 19 -32 18 -63 -7z m28
-50 c-9 -10 -24 -19 -32 -19 -11 0 -7 9 13 30 31 33 49 22 19 -11z"/>
<path d="M13610 653 c-28 -10 -49 -35 -61 -70 -23 -70 17 -121 81 -103 48 14
104 70 69 70 -6 0 -22 -9 -36 -20 -30 -23 -83 -27 -83 -6 0 8 16 23 35 35 75
44 70 122 -5 94z m24 -38 c-7 -17 -43 -40 -50 -32 -4 4 43 47 52 47 2 0 1 -7
-2 -15z"/>
<path d="M13444 636 c-11 -8 -28 -14 -39 -13 -14 2 -26 -18 -55 -88 -20 -49
-48 -113 -63 -142 -31 -60 -33 -73 -12 -73 8 0 30 31 50 70 27 54 40 70 56 70
29 0 83 60 104 114 26 67 7 95 -41 62z m24 -38 c-5 -22 -78 -111 -85 -104 -6
6 24 54 56 89 28 30 32 33 29 15z"/>
<path d="M8452 620 c-18 -11 -40 -36 -49 -55 -16 -33 -16 -36 0 -52 14 -15 22
-15 47 -6 17 6 30 7 30 3 0 -15 31 -40 41 -34 5 3 7 21 3 40 -4 20 -1 47 7 66
11 27 10 32 -6 44 -25 18 -34 18 -73 -6z m17 -63 c-23 -22 -34 -26 -37 -17 -3
8 10 27 29 43 23 22 34 26 37 17 3 -8 -10 -27 -29 -43z"/>
<path d="M11492 623 c-68 -33 -95 -110 -53 -145 30 -24 84 -33 111 -18 29 15
17 25 -30 26 -71 1 -90 41 -42 87 29 28 56 35 67 17 9 -15 35 -12 35 4 0 13
-36 46 -50 46 -3 0 -20 -8 -38 -17z"/>
<path d="M13250 585 c-19 -30 -39 -55 -43 -55 -5 0 -5 4 -2 10 8 13 -13 90
-25 90 -17 0 -18 -15 -4 -79 13 -64 13 -65 -13 -95 -31 -36 -93 -163 -93 -188
0 -32 27 -19 38 20 15 46 47 102 138 236 40 58 69 107 66 110 -14 14 -30 2
-62 -49z"/>
<path d="M12800 616 c0 -13 12 -16 56 -16 73 0 70 24 -4 28 -42 2 -52 0 -52
-12z"/>
<path d="M14964 596 c5 -25 3 -35 -9 -40 -18 -6 -20 -32 -3 -42 6 -4 17 1 25
11 13 18 13 18 28 -1 8 -10 15 -24 15 -30 0 -15 38 -25 46 -13 3 5 -6 23 -20
40 -32 38 -32 47 -1 61 24 11 32 28 19 41 -4 3 -18 -2 -32 -13 -26 -21 -42
-19 -42 6 0 8 -7 14 -16 14 -13 0 -15 -7 -10 -34z"/>
<path d="M7306 595 c-9 -33 1 -50 20 -34 18 15 18 59 0 59 -8 0 -17 -11 -20
-25z"/>
<path d="M12166 580 c-20 -22 -36 -44 -36 -49 0 -4 9 -20 21 -35 25 -32 77
-36 102 -8 22 25 12 33 -24 20 -16 -5 -37 -7 -45 -4 -13 5 -10 11 17 29 25 17
35 31 37 55 5 46 -26 43 -72 -8z"/>
<path d="M12322 548 c-37 -67 -43 -88 -23 -88 4 0 33 23 64 51 l58 51 -7 -41
c-8 -47 10 -57 26 -15 23 60 1 102 -41 76 -25 -16 -28 -15 -22 7 3 10 0 22 -5
25 -6 3 -28 -26 -50 -66z"/>
<path d="M11694 595 c-4 -8 -10 -13 -14 -10 -14 9 -52 -63 -48 -92 4 -40 39
-43 68 -6 16 20 20 36 16 57 -3 16 -1 34 4 41 8 9 6 14 -5 19 -9 3 -18 -1 -21
-9z m-11 -75 c-3 -11 -9 -20 -14 -20 -11 0 -11 3 -3 24 9 23 23 20 17 -4z"/>
<path d="M11842 588 c-18 -19 -24 -20 -31 -9 -10 16 -31 6 -31 -15 0 -8 -7
-28 -15 -44 -22 -43 0 -49 40 -10 l32 31 -1 -37 c-2 -56 17 -51 33 8 24 96 16
118 -27 76z"/>
<path d="M14057 525 c-8 -18 11 -31 25 -17 11 11 3 32 -12 32 -4 0 -10 -7 -13
-15z"/>
<path d="M6645 520 c-7 -12 2 -30 16 -30 12 0 12 27 0 35 -5 3 -12 1 -16 -5z"/>
<path d="M10326 461 c-4 -5 -3 -16 0 -24 7 -20 -12 -57 -44 -84 -21 -18 -24
-25 -14 -35 9 -9 18 -6 41 16 37 36 55 78 47 111 -6 25 -20 33 -30 16z"/>
</g>
</svg>
