<?xml version="1.0" standalone="no"?>
<!DOCTYPE svg PUBLIC "-//W3C//DTD SVG 20010904//EN"
 "http://www.w3.org/TR/2001/REC-SVG-20010904/DTD/svg10.dtd">
<svg version="1.0" xmlns="http://www.w3.org/2000/svg"
 width="1616.000000pt" height="224.000000pt" viewBox="0 0 1616.000000 224.000000"
 preserveAspectRatio="xMidYMid meet">

<g transform="translate(0.000000,224.000000) scale(0.100000,-0.100000)"
fill="#000000" stroke="none">
<path d="M3671 1823 c-20 -51 -30 -127 -18 -135 9 -6 8 -8 -1 -8 -7 0 -18 -13
-23 -30 -10 -28 -14 -30 -61 -30 -35 0 -48 -4 -45 -12 2 -7 17 -13 33 -14 53
-1 53 -1 37 -46 -18 -53 -12 -131 12 -158 22 -24 75 -27 75 -5 0 9 -9 15 -25
15 -15 0 -29 8 -36 21 -12 24 -8 99 10 142 10 25 15 27 66 27 30 0 55 4 55 9
0 13 -26 21 -67 21 -29 0 -34 3 -28 18 12 32 34 135 30 142 -2 4 5 17 16 29
11 12 17 26 14 31 -11 19 -33 10 -44 -17z"/>
<path d="M4085 1796 c-12 -9 -15 -15 -7 -20 18 -11 14 -80 -13 -216 -28 -143
-32 -220 -11 -220 9 0 15 22 20 75 4 41 15 114 26 162 11 49 21 116 23 151 4
70 -8 90 -38 68z"/>
<path d="M8741 1792 c-6 -11 -8 -28 -5 -36 3 -9 2 -16 -3 -16 -5 0 -20 -30
-32 -66 -28 -79 -42 -94 -87 -94 -24 0 -34 -5 -34 -15 0 -10 10 -15 34 -15
l34 0 -23 -63 c-20 -53 -21 -68 -12 -88 15 -28 62 -37 91 -16 25 18 13 41 -14
27 -28 -15 -50 -12 -50 8 0 9 9 44 21 78 18 51 27 63 54 73 18 6 40 9 49 5 9
-3 16 -2 16 4 0 12 -24 22 -51 22 -10 0 -19 2 -19 5 0 4 14 47 31 96 22 63 29
93 21 101 -7 7 -13 4 -21 -10z"/>
<path d="M13077 1773 c-4 -3 -7 -19 -7 -35 0 -15 -4 -28 -9 -28 -5 0 -14 -13
-21 -30 -11 -25 -18 -30 -49 -30 -44 0 -52 -5 -85 -54 -27 -40 -33 -75 -17
-105 7 -13 -2 -32 -39 -82 -59 -81 -73 -107 -65 -119 10 -17 21 -11 34 16 6
15 32 52 56 84 38 49 50 58 86 64 30 5 53 18 81 45 41 42 46 66 24 110 -14 25
-12 32 15 86 16 32 29 64 29 71 0 15 -22 19 -33 7z m-119 -210 c-30 -40 -44
-51 -46 -39 -5 26 31 79 58 87 14 4 26 7 28 8 1 1 -17 -25 -40 -56z m87 17 c9
-29 -19 -69 -62 -86 -19 -9 -37 -13 -39 -11 -6 6 76 117 86 117 5 0 12 -9 15
-20z"/>
<path d="M5933 1758 c-6 -7 -13 -51 -15 -99 -4 -76 -8 -93 -44 -159 -21 -40
-52 -82 -67 -94 -25 -18 -29 -19 -43 -4 -14 14 -14 19 5 57 12 22 26 41 31 41
6 0 10 7 10 15 0 46 -70 -20 -84 -79 -5 -22 -2 -34 15 -52 12 -13 31 -24 40
-24 32 0 85 58 124 135 33 65 40 89 45 163 7 93 2 123 -17 100z"/>
<path d="M7050 1726 c0 -14 -25 -87 -55 -162 -53 -132 -68 -200 -43 -192 6 2
16 24 23 49 6 24 33 97 59 161 26 64 46 127 44 139 -4 32 -28 37 -28 5z"/>
<path d="M9655 1718 c-3 -7 -21 -58 -41 -113 -52 -144 -64 -186 -58 -196 10
-17 38 -9 66 18 l29 27 6 -22 c3 -12 11 -22 19 -22 17 0 27 17 14 25 -6 4 -8
21 -4 41 8 43 -5 44 -57 3 l-39 -31 11 29 c40 104 77 213 72 213 -3 0 0 6 6
13 11 14 5 27 -11 27 -5 0 -11 -6 -13 -12z"/>
<path d="M13240 1693 c-12 -5 -92 -56 -109 -70 -3 -2 0 -8 6 -14 8 -8 24 -3
56 20 25 17 50 31 56 31 17 0 13 -32 -7 -61 -17 -25 -111 -112 -171 -157 -31
-23 -41 -52 -19 -52 6 0 26 11 44 25 18 14 37 25 42 25 4 0 18 -11 30 -25 23
-26 30 -29 56 -19 24 9 19 34 -7 34 -12 0 -28 10 -35 21 -13 20 -10 26 37 73
73 74 96 142 57 168 -12 9 -15 9 -36 1z"/>
<path d="M14699 1645 c-29 -47 -38 -55 -65 -55 -46 0 -104 -66 -104 -118 0
-21 7 -47 15 -59 15 -21 13 -27 -25 -94 -22 -39 -37 -75 -34 -80 10 -16 32 9
71 82 32 57 43 69 70 74 69 13 112 101 82 169 -10 21 -7 30 20 70 29 42 33 66
12 66 -5 0 -24 -25 -42 -55z m-81 -150 c-34 -69 -51 -78 -56 -28 -2 22 5 38
26 61 17 18 37 32 46 32 13 0 10 -12 -16 -65z m72 16 c0 -32 -34 -81 -56 -81
-10 0 -7 14 13 55 30 61 43 69 43 26z"/>
<path d="M13608 1653 c-30 -16 -48 -33 -48 -45 0 -22 8 -23 30 -3 8 8 33 21
53 30 l38 16 -12 -23 c-22 -42 -83 -118 -95 -118 -7 0 -34 -20 -60 -44 -33
-31 -45 -49 -40 -61 6 -16 8 -16 34 0 15 10 39 29 55 43 l27 26 0 -50 c0 -55
12 -74 41 -67 22 6 26 33 4 33 -12 0 -15 13 -15 58 0 52 4 63 40 111 46 61 59
99 39 112 -22 14 -41 10 -91 -18z"/>
<path d="M15076 1664 c-58 -32 -87 -66 -84 -100 2 -25 -6 -38 -40 -71 -49 -47
-57 -91 -20 -117 39 -27 86 -20 124 18 35 35 42 63 24 96 -8 15 -6 21 9 29 26
14 43 61 39 111 -3 50 -12 55 -52 34z m24 -58 c0 -36 -32 -70 -58 -62 -38 12
-21 61 28 79 26 10 30 8 30 -17z m-45 -136 c14 -44 -40 -88 -91 -76 -32 8 -31
33 3 68 33 34 78 38 88 8z"/>
<path d="M2269 1647 c-47 -32 -47 -73 -1 -102 84 -52 97 -62 100 -78 2 -9 -10
-31 -28 -48 -27 -27 -35 -30 -67 -24 -20 4 -42 14 -48 22 -13 17 -46 14 -52
-4 -5 -15 41 -39 94 -48 52 -8 92 11 117 58 28 51 16 81 -47 116 -28 17 -58
34 -65 38 -20 12 -5 39 29 53 30 13 44 8 44 -13 0 -19 29 -14 33 6 9 48 -53
62 -109 24z"/>
<path d="M6909 1644 c-5 -15 -12 -30 -14 -34 -3 -5 2 -11 11 -14 11 -4 19 4
30 29 18 43 17 45 -1 45 -9 0 -20 -12 -26 -26z"/>
<path d="M13830 1652 c-8 -9 -27 -32 -42 -50 -33 -40 -37 -78 -8 -87 19 -6 18
-8 -10 -36 -50 -51 -54 -105 -7 -127 23 -11 32 -11 61 3 56 27 70 90 29 137
-13 14 -12 17 6 23 30 9 71 63 71 93 0 38 -10 48 -50 56 -27 5 -39 2 -50 -12z
m70 -42 c0 -31 -44 -70 -80 -70 -35 0 -37 8 -10 42 10 14 16 28 12 32 -3 4 1
4 10 1 9 -4 25 -2 35 4 26 15 33 13 33 -9z m-57 -162 c9 -34 -18 -68 -53 -68
-37 0 -40 24 -9 64 25 32 55 34 62 4z"/>
<path d="M14363 1620 c-24 -10 -43 -24 -43 -30 0 -5 -3 -9 -7 -8 -17 4 -53
-14 -53 -28 0 -22 23 -17 86 21 32 19 66 35 76 35 19 0 19 -1 1 -31 -16 -28
-44 -55 -146 -141 -25 -21 -29 -29 -20 -39 10 -10 21 -6 52 19 l40 32 3 -37
c4 -48 25 -60 78 -44 44 13 51 39 9 32 -53 -8 -54 -7 -57 34 -2 34 3 47 37 88
47 56 57 82 41 102 -17 20 -46 18 -97 -5z"/>
<path d="M14848 1525 c-54 -107 -73 -172 -47 -163 6 2 17 20 23 39 7 19 33 75
59 123 49 91 56 116 35 116 -7 0 -39 -52 -70 -115z"/>
<path d="M10055 1620 c-11 -17 5 -32 21 -19 7 6 11 15 8 20 -7 12 -21 11 -29
-1z"/>
<path d="M1674 1582 c-40 -22 -104 -78 -104 -92 0 -18 30 -11 53 13 22 23 88
67 101 67 3 0 6 -17 6 -39 0 -77 57 -79 128 -4 31 32 41 48 33 56 -7 7 -19 1
-38 -20 -15 -17 -40 -39 -55 -48 -31 -19 -35 -15 -40 45 -3 29 -7 35 -28 37
-14 2 -39 -5 -56 -15z"/>
<path d="M7365 1593 c-33 -7 -95 -36 -95 -44 0 -17 21 -19 49 -4 57 29 64 19
26 -37 -20 -30 -31 -56 -26 -61 10 -10 41 4 61 28 12 15 15 13 24 -17 26 -78
114 -24 140 85 11 45 -23 30 -39 -17 -26 -75 -75 -98 -75 -35 0 17 -6 32 -14
35 -12 5 -13 11 -3 31 9 19 8 26 -4 34 -8 5 -16 8 -19 8 -3 -1 -14 -3 -25 -6z"/>
<path d="M7681 1573 c-29 -26 -30 -29 -16 -53 40 -69 40 -69 17 -92 -21 -21
-22 -21 -41 -4 -19 17 -21 17 -27 2 -17 -45 52 -61 91 -21 31 30 32 67 3 107
-21 30 -21 31 -3 44 10 8 27 14 38 14 25 0 16 24 -10 28 -13 2 -34 -9 -52 -25z"/>
<path d="M3816 1565 c-33 -35 -49 -95 -35 -133 8 -24 20 -34 49 -43 43 -13
111 -2 118 20 4 11 -5 12 -40 7 -51 -8 -98 6 -98 29 0 8 11 17 25 21 14 3 34
18 45 31 51 65 -8 128 -64 68z m33 -51 c-12 -13 -26 -24 -30 -24 -14 0 4 41
25 55 30 22 34 0 5 -31z"/>
<path d="M6871 1548 c-11 -24 -29 -64 -40 -89 -12 -25 -21 -55 -21 -67 0 -34
27 -26 34 11 3 17 19 61 36 95 16 35 30 70 30 78 0 28 -21 13 -39 -28z"/>
<path d="M3134 1528 c-39 -34 -80 -111 -69 -128 13 -22 31 -8 42 33 16 59 53
92 103 90 43 -2 52 10 21 27 -33 17 -59 11 -97 -22z"/>
<path d="M4290 1547 c0 -8 -20 -45 -44 -83 -48 -74 -52 -73 -59 15 -2 30 -10
57 -18 62 -19 12 -33 -5 -21 -27 5 -11 12 -53 16 -94 l6 -75 -40 -50 c-60 -76
-141 -208 -138 -225 5 -26 31 -16 40 16 4 17 30 62 58 100 109 149 230 336
230 355 0 10 -7 19 -15 19 -8 0 -15 -6 -15 -13z"/>
<path d="M2720 1515 c-19 -19 -42 -35 -51 -35 -21 0 -26 -14 -34 -92 -3 -35
-18 -96 -32 -136 -14 -39 -22 -80 -19 -89 11 -26 25 -3 56 87 24 70 33 85 60
98 36 18 93 84 114 133 31 73 -34 96 -94 34z m70 -5 c0 -34 -91 -142 -103
-123 -4 6 3 29 15 51 27 55 88 105 88 72z"/>
<path d="M5596 1525 c-20 -13 -36 -20 -36 -15 0 6 -5 10 -10 10 -14 0 -52 -89
-44 -101 3 -6 30 13 59 40 64 61 87 66 75 19 -11 -47 -21 -68 -31 -68 -5 0 -9
-7 -9 -16 0 -10 7 -14 22 -12 19 2 26 15 42 70 16 55 17 70 6 82 -17 22 -31
20 -74 -9z"/>
<path d="M6671 1515 c-32 -37 -47 -76 -36 -94 8 -14 52 -14 60 -1 9 15 25 12
25 -5 0 -8 7 -15 15 -15 8 0 15 8 15 18 0 9 9 37 21 61 31 69 9 73 -49 10 -54
-58 -73 -63 -42 -11 12 19 28 32 40 32 13 0 20 7 20 20 0 32 -34 24 -69 -15z"/>
<path d="M7126 1517 c-34 -45 -43 -89 -21 -110 20 -21 64 -22 71 -2 4 8 9 13
14 10 14 -9 31 42 28 86 -3 41 -5 44 -35 47 -25 3 -36 -3 -57 -31z m48 -78
c-10 -11 -25 -18 -33 -17 -27 5 -19 51 14 81 l30 28 3 -37 c2 -24 -3 -42 -14
-55z"/>
<path d="M9393 1515 c-49 -41 -57 -67 -33 -98 15 -18 28 -22 78 -22 66 0 66 0
76 33 6 18 4 22 -14 22 -11 0 -23 -7 -26 -15 -10 -26 -94 -15 -94 12 0 23 59
73 86 73 15 0 24 6 24 15 0 28 -54 17 -97 -20z"/>
<path d="M10087 1507 c-41 -39 -61 -77 -40 -77 4 0 28 20 54 46 l46 45 -5 -55
-4 -56 30 0 c17 0 34 5 37 10 3 6 -3 10 -15 10 -19 0 -21 5 -18 58 3 51 1 57
-18 60 -14 2 -37 -12 -67 -41z"/>
<path d="M2473 1508 c-63 -67 -67 -143 -8 -170 28 -12 105 4 105 23 0 6 -4 7
-10 4 -5 -3 -10 -1 -10 5 0 8 -6 8 -21 0 -43 -24 -90 11 -73 53 3 9 23 21 44
27 47 13 64 32 56 65 -9 36 -45 33 -83 -7z m57 -4 c0 -3 -7 -12 -15 -21 -20
-19 -32 -9 -15 12 12 15 30 20 30 9z"/>
<path d="M2970 1533 c-41 -15 -90 -82 -90 -123 0 -29 23 -35 61 -16 41 20 39
21 39 -10 0 -14 4 -23 10 -19 6 3 10 1 10 -5 0 -6 5 -8 10 -5 6 3 7 17 4 29
-3 13 0 42 6 65 9 36 9 47 -5 67 -16 25 -20 26 -45 17z m20 -46 c0 -18 -56
-70 -69 -66 -15 5 38 79 56 79 7 0 13 -6 13 -13z"/>
<path d="M5373 1528 c-35 -9 -73 -54 -73 -86 0 -21 24 -52 41 -52 6 0 23 7 39
15 27 14 29 14 32 -7 5 -38 28 -33 28 6 0 19 7 51 16 70 20 40 11 86 -9 52
-42 -69 -117 -122 -117 -83 0 18 43 57 63 57 9 0 19 5 23 11 11 18 -9 27 -43
17z"/>
<path d="M9807 1509 c-29 -24 -37 -37 -35 -58 3 -27 23 -32 62 -16 14 6 17 5
12 -3 -10 -17 3 -54 17 -49 7 2 13 12 13 23 1 10 5 36 9 57 9 45 -2 47 -53 11
l-37 -26 38 35 c22 20 36 41 32 46 -10 16 -17 14 -58 -20z"/>
<path d="M9972 1493 c-24 -52 -27 -69 -13 -78 9 -5 61 95 61 116 0 26 -28 3
-48 -38z"/>
<path d="M3301 1506 c-12 -13 -24 -39 -28 -59 -7 -46 14 -57 62 -34 31 15 33
15 38 -4 7 -27 35 -35 55 -15 16 15 15 17 -4 22 -19 5 -21 10 -13 45 10 44 4
63 -17 55 -7 -3 -16 -1 -19 4 -11 18 -51 10 -74 -14z m62 -30 c-16 -22 -63
-52 -63 -41 0 22 27 55 49 58 14 2 27 5 29 6 2 0 -5 -10 -15 -23z"/>
<path d="M8831 1501 c-30 -41 -28 -79 5 -91 18 -7 33 -7 52 2 41 21 47 39 27
81 -22 47 -55 50 -84 8z m57 -38 c2 -14 -4 -22 -18 -26 -26 -7 -38 17 -20 38
17 20 34 14 38 -12z"/>
<path d="M10196 1451 c-3 -5 3 -11 14 -14 13 -3 20 0 20 9 0 15 -26 19 -34 5z"/>
<path d="M13307 1415 c-7 -16 8 -29 23 -20 15 9 12 35 -4 35 -8 0 -16 -7 -19
-15z"/>
<path d="M4609 1353 c-12 -21 -31 -48 -42 -60 -31 -35 -10 -49 25 -16 33 31
71 97 61 107 -12 12 -22 5 -44 -31z"/>
<path d="M13933 1375 c-3 -9 -3 -18 -1 -21 9 -9 38 8 38 22 0 19 -29 18 -37
-1z"/>
<path d="M11441 1299 c-14 -47 -69 -161 -125 -262 -50 -88 -43 -112 18 -61 29
24 42 42 38 52 -3 10 -1 13 7 8 6 -4 19 -2 28 6 14 11 15 11 6 -7 -18 -34 -20
-80 -3 -80 8 0 17 13 20 30 4 17 12 40 18 52 17 31 15 63 -4 63 -9 0 -33 -13
-53 -29 l-36 -29 57 116 c64 129 80 182 56 182 -9 0 -20 -17 -27 -41z"/>
<path d="M8502 1317 c-31 -18 -94 -105 -128 -177 -19 -40 -35 -60 -46 -60 -10
0 -18 -7 -18 -15 0 -8 5 -15 11 -15 6 0 8 -8 5 -17 -3 -10 -8 -35 -12 -55 -6
-34 -4 -38 15 -38 18 0 21 6 21 38 0 49 15 68 65 84 44 15 46 35 2 30 -26 -3
-28 -1 -22 20 10 33 63 118 93 151 14 15 36 27 49 27 26 0 31 25 7 34 -19 7
-14 8 -42 -7z"/>
<path d="M7675 1288 c-17 -15 -34 -49 -49 -98 -14 -46 -28 -75 -37 -76 -8 0
-19 -2 -26 -2 -19 -3 -93 -103 -93 -128 0 -34 35 -55 72 -42 47 17 59 43 113
242 11 38 26 67 46 85 16 15 26 30 23 34 -12 11 -21 8 -49 -15z m-91 -240
c-18 -51 -41 -78 -66 -78 -30 0 -20 30 26 76 24 24 46 44 49 44 3 0 -1 -19 -9
-42z"/>
<path d="M11271 1294 c-12 -9 -20 -21 -19 -27 1 -7 -15 -42 -37 -79 -33 -57
-43 -67 -69 -70 -20 -2 -31 -9 -31 -18 0 -10 8 -14 22 -12 22 3 22 3 7 -40
-16 -46 -11 -89 12 -108 18 -16 64 -4 64 16 0 11 -6 15 -20 11 -32 -8 -42 23
-24 76 16 46 20 50 82 62 18 4 36 13 39 21 8 22 0 25 -36 13 -18 -6 -35 -9
-38 -6 -3 3 16 37 41 75 25 38 46 74 46 80 0 19 -16 21 -39 6z"/>
<path d="M6994 1273 c-39 -117 -58 -152 -83 -155 -15 -2 -26 -9 -26 -18 0 -9
7 -14 19 -12 15 3 17 0 11 -15 -37 -91 -27 -146 27 -141 21 2 32 9 34 20 2 14
-3 17 -21 12 -31 -8 -38 8 -26 54 16 56 32 73 86 87 27 6 51 17 53 23 4 14
-10 15 -60 3 l-36 -8 25 66 c14 36 26 72 27 80 2 21 -23 25 -30 4z"/>
<path d="M9862 1248 c-7 -7 -12 -16 -12 -21 0 -5 -14 -33 -32 -62 -26 -44 -38
-55 -62 -57 -34 -3 -49 -28 -17 -28 26 0 26 -1 1 -50 -37 -73 -21 -130 40
-144 32 -8 98 30 82 46 -8 8 -18 6 -36 -5 -19 -13 -31 -14 -51 -7 -33 12 -33
45 0 109 24 48 25 49 82 55 71 9 93 15 93 26 0 5 -29 8 -64 6 -44 -2 -63 1
-59 8 4 6 22 35 40 64 19 29 31 57 28 62 -8 13 -18 13 -33 -2z"/>
<path d="M6455 1240 c-11 -18 5 -31 26 -20 11 6 17 15 14 21 -8 12 -32 12 -40
-1z"/>
<path d="M10142 1178 c5 -32 28 -35 28 -4 0 17 -5 26 -16 26 -10 0 -14 -7 -12
-22z"/>
<path d="M5404 1173 c-4 -10 -21 -54 -39 -98 -41 -100 -49 -134 -35 -169 12
-32 34 -25 26 9 -7 26 14 103 49 177 26 55 32 98 15 98 -6 0 -13 -8 -16 -17z"/>
<path d="M13295 1170 c-9 -15 4 -30 26 -30 22 0 24 11 7 28 -15 15 -25 15 -33
2z"/>
<path d="M5289 1163 c-1 -5 -1 -15 0 -24 1 -9 -12 -50 -29 -92 -33 -83 -38
-127 -15 -127 9 0 15 9 15 21 0 11 14 54 30 96 33 83 39 133 15 133 -8 0 -16
-3 -16 -7z"/>
<path d="M6739 1107 c-43 -29 -47 -56 -14 -87 28 -27 32 -52 10 -70 -12 -10
-16 -9 -21 3 -3 9 -3 21 1 27 11 17 -5 32 -21 19 -21 -17 -18 -66 5 -79 28
-14 38 -13 61 10 26 26 26 70 -1 104 -24 30 -19 43 27 62 19 8 34 19 34 24 0
18 -46 10 -81 -13z"/>
<path d="M9109 1113 c-1 -5 -1 -16 0 -25 2 -20 -38 -86 -68 -110 -23 -20 -28
-48 -8 -48 7 0 30 20 50 45 36 42 124 111 132 103 2 -2 -9 -30 -25 -62 -23
-46 -27 -62 -19 -78 13 -25 35 -17 32 11 -2 12 13 52 32 88 19 36 32 69 29 74
-10 16 -49 9 -85 -15 l-36 -25 5 25 c3 19 0 24 -17 24 -11 0 -22 -3 -22 -7z"/>
<path d="M5525 1096 c-17 -12 -18 -17 -5 -57 15 -47 14 -67 -2 -87 -8 -9 -14
-9 -24 -1 -10 8 -11 15 -4 24 16 20 -9 31 -27 12 -20 -20 -8 -55 23 -69 20
-10 28 -8 48 11 33 31 39 62 21 105 l-15 36 30 0 c34 0 39 14 11 30 -26 13
-33 13 -56 -4z"/>
<path d="M6496 1088 c-9 -12 -16 -28 -16 -36 0 -7 -7 -26 -15 -42 -22 -43 2
-50 34 -9 25 32 37 94 20 104 -4 3 -15 -5 -23 -17z"/>
<path d="M7128 1063 c-50 -51 -54 -76 -20 -115 23 -27 102 -20 102 9 0 11 -7
13 -26 9 -58 -15 -88 22 -35 44 41 16 63 44 59 72 -5 37 -30 32 -80 -19z"/>
<path d="M9371 1078 c-24 -18 -53 -38 -65 -45 -28 -16 -33 -78 -10 -104 25
-28 104 -24 104 5 0 8 -15 12 -42 12 -31 -1 -43 3 -46 15 -2 12 10 20 42 29
61 17 98 52 94 88 -4 38 -27 38 -77 0z m35 -27 c-10 -10 -27 -21 -39 -24 -19
-5 -17 -2 8 18 36 29 55 33 31 6z"/>
<path d="M11548 1081 c-26 -16 -51 -39 -57 -50 -14 -26 -14 -64 1 -79 23 -23
138 -8 138 18 0 6 -23 9 -57 8 -48 -3 -58 0 -61 15 -3 12 3 17 22 17 58 0 99
42 82 85 -8 21 -15 19 -68 -14z m42 -16 c0 -2 -10 -9 -22 -15 -22 -11 -22 -10
-4 4 21 17 26 19 26 11z"/>
<path d="M12750 1100 c0 -6 -4 -8 -10 -5 -5 3 -19 1 -31 -5 -19 -11 -20 -17
-14 -70 4 -38 3 -60 -4 -64 -6 -4 -11 0 -11 11 -1 16 -3 15 -20 -5 -39 -47 7
-72 50 -27 20 21 22 31 17 75 -7 54 6 70 53 70 13 0 20 5 18 13 -6 15 -48 22
-48 7z"/>
<path d="M2664 1081 c-113 -51 -60 -184 66 -165 25 4 56 8 69 10 27 3 47 19
34 27 -5 3 -38 2 -72 -3 -66 -9 -98 -3 -120 24 -20 24 0 62 45 83 34 17 46 34
27 40 -4 1 -26 -6 -49 -16z"/>
<path d="M4902 1070 c-53 -38 -71 -72 -51 -96 18 -21 71 -44 103 -44 27 0 45
18 24 24 -7 2 -32 9 -55 15 -31 9 -43 17 -43 31 0 22 51 61 92 69 39 8 41 25
3 29 -22 2 -43 -6 -73 -28z"/>
<path d="M6545 1087 c-24 -18 -11 -39 21 -31 l24 6 -16 -37 c-15 -37 -13 -65
5 -65 9 0 28 53 38 102 1 10 -6 22 -16 28 -26 13 -33 13 -56 -3z"/>
<path d="M9573 1084 c-36 -18 -43 -47 -18 -80 19 -25 19 -48 0 -64 -21 -17
-29 -7 -16 19 8 14 8 22 0 27 -15 9 -28 -6 -35 -43 -6 -28 -3 -33 19 -38 30
-8 62 7 77 36 9 16 7 29 -10 61 -24 47 -18 59 32 62 22 1 33 7 33 16 0 21 -44
23 -82 4z"/>
<path d="M11723 1088 c-5 -7 -15 -27 -22 -44 -6 -16 -23 -42 -36 -57 -27 -28
-32 -47 -14 -47 6 0 36 21 67 48 36 31 53 40 48 27 -23 -57 -4 -67 49 -25 21
17 40 29 41 27 2 -2 0 -18 -5 -35 -10 -34 6 -62 35 -62 27 0 94 32 94 46 0 18
-9 18 -55 -2 -20 -8 -40 -13 -43 -10 -3 3 0 23 6 45 15 48 15 81 1 81 -6 0
-24 -9 -40 -21 l-29 -20 0 20 c0 25 -21 27 -55 5 -14 -9 -25 -12 -25 -6 0 6 5
14 10 17 6 3 10 10 10 16 0 13 -26 11 -37 -3z"/>
<path d="M2045 1081 c-55 -9 -73 -21 -54 -35 36 -28 50 -107 25 -141 -12 -16
-16 -17 -30 -6 -9 8 -16 28 -16 47 0 24 -5 34 -15 34 -26 0 -20 -72 8 -98 36
-34 65 -29 83 15 14 33 15 56 2 128 -2 17 5 22 50 30 29 6 54 15 55 20 2 12
-54 15 -108 6z"/>
<path d="M5115 1071 c-72 -44 -86 -98 -22 -89 17 3 39 8 48 12 12 5 15 1 15
-16 -1 -13 6 -24 15 -26 12 -2 18 8 22 40 3 24 2 46 -2 51 -4 4 -26 -2 -50
-14 -24 -11 -45 -18 -48 -15 -7 6 58 46 75 46 6 0 12 7 12 15 0 20 -29 19 -65
-4z"/>
<path d="M6362 1068 c-35 -38 -45 -77 -27 -104 17 -27 27 -29 58 -13 35 19 49
49 23 49 -7 0 -19 -7 -26 -15 -7 -8 -16 -12 -21 -9 -17 10 -9 40 16 64 27 25
33 50 12 50 -8 0 -23 -10 -35 -22z"/>
<path d="M7300 1051 c-37 -35 -40 -42 -30 -61 12 -22 39 -24 83 -5 13 5 17 2
17 -13 0 -25 25 -46 45 -38 19 7 20 26 0 26 -20 0 -19 19 5 58 22 37 25 52 9
52 -18 0 -56 -35 -51 -48 2 -7 -2 -10 -11 -6 -9 3 -25 0 -37 -6 -12 -6 -25 -9
-28 -5 -9 9 47 53 73 57 27 4 21 22 -9 26 -17 2 -36 -9 -66 -37z"/>
<path d="M8145 1047 c-37 -36 -45 -51 -45 -80 0 -28 6 -40 24 -52 22 -15 27
-15 55 -1 17 9 35 25 41 35 12 23 14 94 3 105 -5 4 -8 13 -8 19 0 26 -29 15
-70 -26z m55 -36 c0 -37 -31 -77 -53 -68 -23 9 -21 39 4 71 27 35 49 34 49 -3z"/>
<path d="M10250 1068 c-56 -21 -148 -128 -110 -128 5 0 28 20 51 45 44 48 75
63 92 46 8 -8 8 -11 -1 -11 -16 0 -35 -49 -27 -68 9 -24 30 4 42 55 13 52 -6
77 -47 61z"/>
<path d="M10390 1045 c-38 -61 -11 -97 58 -79 l40 11 -17 -61 -16 -60 -46 2
c-55 4 -77 -12 -113 -82 -47 -90 -29 -180 28 -143 38 26 104 99 123 138 15 32
23 39 49 39 29 0 54 15 54 33 0 5 -16 6 -35 3 -19 -4 -35 -6 -35 -4 0 2 9 32
20 66 11 35 20 80 20 100 0 66 -31 83 -43 23 -4 -20 -14 -30 -33 -35 -41 -11
-49 7 -20 41 14 17 23 33 19 37 -14 14 -33 4 -53 -29z m44 -223 c2 -4 -8 -28
-23 -53 -34 -53 -103 -117 -109 -100 -8 25 9 80 38 120 24 32 37 41 59 41 17
0 32 -4 35 -8z"/>
<path d="M12496 1052 c-48 -33 -60 -62 -39 -92 13 -19 22 -21 56 -17 30 4 44
2 52 -10 15 -20 47 -10 39 12 -4 8 1 26 10 40 31 47 16 73 -20 34 -20 -23 -73
-49 -99 -49 -25 0 -17 27 17 54 24 19 36 22 46 14 17 -14 37 4 29 26 -9 24
-47 19 -91 -12z"/>
<path d="M13186 1040 c-51 -57 -61 -110 -23 -134 13 -8 24 -7 44 4 32 18 45
46 17 38 -11 -3 -25 -7 -33 -9 -8 -2 -16 3 -18 11 -4 17 47 101 58 95 9 -6 30
20 22 28 -14 15 -32 5 -67 -33z"/>
<path d="M13391 1038 l-43 -42 7 32 c5 25 3 32 -9 32 -8 0 -18 -10 -22 -22 -3
-13 -22 -42 -41 -66 -68 -83 6 -71 100 17 l29 26 -7 -28 c-15 -57 56 -89 106
-48 28 22 18 41 -11 23 -26 -16 -57 -15 -63 1 -3 7 1 31 9 52 27 79 11 86 -55
23z"/>
<path d="M1786 1049 c-45 -36 -79 -118 -65 -157 12 -32 51 -28 93 8 34 31 35
31 38 8 2 -13 11 -24 21 -26 15 -3 18 0 12 18 -4 11 -1 43 6 70 14 54 8 70
-16 50 -12 -10 -15 -10 -15 3 0 16 -26 47 -39 47 -5 0 -20 -9 -35 -21z m36
-41 c-4 -18 -2 -20 17 -15 19 5 18 2 -10 -34 -28 -35 -57 -59 -73 -59 -19 0 6
79 36 118 17 20 37 14 30 -10z"/>
<path d="M2259 1021 c-12 -28 -24 -51 -28 -51 -3 0 -13 15 -21 33 -16 34 -50
50 -50 23 0 -9 4 -16 9 -16 4 0 16 -20 25 -44 l17 -45 -41 -72 c-49 -86 -61
-129 -36 -129 9 0 16 6 16 14 0 8 33 76 74 152 78 145 89 174 69 181 -7 2 -21
-18 -34 -46z"/>
<path d="M10061 1060 c-7 -4 -11 -14 -9 -21 3 -8 -3 -31 -14 -52 -19 -39 -18
-72 3 -65 12 4 38 65 46 109 5 29 -6 42 -26 29z"/>
<path d="M2412 1025 c-28 -23 -30 -23 -25 -5 4 15 0 20 -16 20 -16 0 -21 -6
-21 -27 -1 -16 -7 -39 -15 -53 -18 -31 -19 -60 -2 -60 6 1 32 26 57 56 36 44
50 54 70 52 22 -3 25 -8 25 -45 0 -54 14 -59 31 -10 17 48 7 71 -37 86 -40 14
-32 15 -67 -14z"/>
<path d="M3230 839 c0 -33 -72 -259 -82 -259 -5 0 -6 9 -3 21 6 17 3 20 -12
17 -15 -3 -17 -11 -15 -58 4 -56 20 -85 50 -92 79 -20 165 109 114 172 -17 22
-23 23 -46 12 -25 -11 -26 -11 -20 16 4 15 15 51 26 81 22 67 24 111 3 111 -9
0 -15 -9 -15 -21z m31 -271 c-16 -45 -40 -68 -71 -68 -15 0 -29 3 -33 6 -9 9
32 71 66 100 27 23 31 24 39 9 6 -10 5 -28 -1 -47z"/>
<path d="M3076 773 c-10 -32 -38 -104 -62 -160 -44 -102 -57 -169 -32 -161 7
3 16 20 20 39 3 19 32 96 63 172 52 126 61 167 37 167 -5 0 -16 -26 -26 -57z"/>
<path d="M2971 773 c-8 -27 -29 -96 -47 -154 -19 -58 -34 -115 -34 -127 0 -24
18 -40 24 -20 22 76 52 178 72 243 27 93 29 105 11 105 -7 0 -19 -21 -26 -47z"/>
<path d="M3849 777 c-28 -71 -89 -286 -89 -312 0 -16 6 -25 15 -25 10 0 15 10
15 29 0 21 10 39 31 59 28 26 35 28 73 21 22 -5 44 -8 49 -9 13 0 7 -37 -14
-85 -11 -25 -19 -49 -16 -51 19 -20 67 64 67 117 0 32 -13 44 -59 56 l-34 9
86 74 c48 41 87 83 87 93 0 28 -12 21 -82 -47 -79 -75 -147 -130 -154 -124 -2
3 11 54 31 113 39 120 40 125 23 125 -7 0 -20 -19 -29 -43z"/>
<path d="M2523 670 c-28 -11 -63 -66 -63 -98 0 -32 43 -72 78 -72 35 0 92 19
92 30 0 17 -16 18 -58 7 -38 -10 -44 -9 -64 11 -21 21 -21 23 -5 57 14 30 21
35 53 35 28 0 35 3 32 18 -4 20 -33 25 -65 12z"/>
<path d="M4125 652 c-51 -32 -59 -46 -41 -79 8 -15 27 -39 41 -52 29 -27 30
-34 10 -55 -20 -20 -58 -4 -74 30 -10 24 -41 34 -41 14 0 -32 65 -90 100 -90
19 0 60 48 60 70 0 11 -16 37 -35 59 -40 44 -43 56 -16 71 27 14 41 13 41 -5
0 -20 19 -19 27 0 5 14 -22 55 -36 55 -3 0 -19 -8 -36 -18z"/>
<path d="M2745 638 c-26 -15 -39 -29 -54 -55 -10 -19 -8 -26 9 -43 22 -22 29
-24 50 -10 11 7 16 4 20 -11 8 -33 24 -24 37 21 10 35 10 48 -2 76 -15 36 -28
41 -60 22z m35 -43 c0 -17 -46 -42 -57 -32 -8 9 27 47 44 47 7 0 13 -7 13 -15z"/>
<path d="M3593 618 c-55 -58 -69 -111 -37 -142 26 -27 114 -19 114 10 0 15
-26 19 -34 5 -7 -10 -54 -2 -62 11 -11 17 5 53 41 90 19 20 35 41 35 47 0 21
-26 11 -57 -21z"/>
<path d="M3354 606 c-36 -36 -41 -55 -24 -87 13 -23 57 -25 85 -5 17 12 20 11
30 -7 16 -33 39 -35 33 -2 -3 15 -1 43 4 62 10 36 -2 67 -16 44 -4 -6 -14 -3
-26 9 -28 28 -47 25 -86 -14z m61 -54 c-50 -42 -86 -12 -40 34 25 25 27 26 46
8 21 -19 21 -19 -6 -42z"/>
<path d="M4235 457 c-10 -8 -15 -19 -11 -25 10 -17 33 -15 40 4 14 36 3 44
-29 21z"/>
</g>
</svg>
