<?xml version="1.0" standalone="no"?>
<!DOCTYPE svg PUBLIC "-//W3C//DTD SVG 20010904//EN"
 "http://www.w3.org/TR/2001/REC-SVG-20010904/DTD/svg10.dtd">
<svg version="1.0" xmlns="http://www.w3.org/2000/svg"
 width="1616.000000pt" height="728.000000pt" viewBox="0 0 1616.000000 728.000000"
 preserveAspectRatio="xMidYMid meet">

<g transform="translate(0.000000,728.000000) scale(0.100000,-0.100000)"
fill="#000000" stroke="none">
<path d="M10400 6869 c-135 -4 -319 -12 -410 -18 -91 -6 -271 -17 -400 -26
-129 -8 -264 -16 -300 -17 -55 -3 -65 -6 -68 -22 -3 -14 0 -17 13 -13 12 5 15
3 11 -11 -3 -9 -22 -84 -42 -166 -20 -82 -48 -179 -63 -215 -15 -36 -27 -75
-26 -86 0 -34 97 -45 360 -40 127 2 205 0 175 -3 -90 -12 -120 -38 -120 -105
0 -41 25 -67 67 -67 40 0 74 28 104 87 28 55 35 63 67 63 13 0 36 7 52 15 22
12 76 17 212 20 101 3 242 7 314 10 128 5 132 4 137 -16 6 -24 33 -20 31 4 -2
20 37 26 210 30 89 2 131 7 134 15 7 21 -20 23 -181 15 -86 -4 -157 -4 -157 0
0 4 18 66 39 136 22 70 49 176 60 234 11 58 27 119 36 137 15 28 13 52 -3 48
-4 -1 -117 -5 -252 -9z m189 -35 c17 -4 29 -9 27 -13 -2 -3 -16 -62 -30 -132
-14 -69 -41 -174 -61 -235 -19 -60 -35 -116 -35 -125 0 -18 -61 -22 -534 -34
l-208 -5 5 23 c3 12 9 43 12 69 4 26 12 46 18 45 25 -5 54 101 30 110 -8 3
-17 -14 -25 -44 l-12 -48 -8 32 c-15 60 -91 53 -134 -12 -31 -47 17 -68 89
-39 17 6 18 3 11 -42 -14 -99 6 -91 -238 -96 -198 -4 -329 2 -343 16 -3 3 8
45 26 93 34 97 92 313 95 354 l1 26 130 6 c72 3 231 13 355 22 476 33 758 43
829 29z m-869 -359 c0 -17 -46 -42 -57 -31 -7 7 34 45 50 46 4 0 7 -7 7 -15z
m-30 -260 c0 -4 -6 -18 -14 -33 -39 -74 -108 -96 -114 -36 -4 42 35 74 89 74
22 0 39 -2 39 -5z"/>
<path d="M10435 6744 c-8 -21 -32 -63 -52 -93 -44 -67 -82 -156 -83 -193 0
-52 72 -93 87 -50 3 9 13 25 21 35 13 15 13 17 -1 17 -27 0 -47 -12 -47 -27 0
-13 -3 -13 -15 -3 -8 7 -15 20 -15 29 1 29 45 125 92 196 25 39 48 82 50 95 5
38 -20 34 -37 -6z"/>
<path d="M9605 6650 c-8 -12 16 -50 32 -50 16 0 17 32 1 48 -14 14 -25 15 -33
2z"/>
<path d="M9418 6619 c-21 -12 -23 -46 -7 -100 10 -32 9 -42 -5 -64 -20 -30
-45 -32 -78 -6 -15 12 -29 16 -37 11 -19 -11 -6 -27 40 -50 36 -19 42 -19 68
-6 43 23 57 66 41 128 -15 60 -5 78 35 60 33 -15 35 -15 35 3 0 29 -58 44 -92
24z"/>
<path d="M9935 6550 c-3 -5 -21 -9 -38 -7 -28 2 -32 -1 -29 -21 2 -13 -4 -32
-13 -42 -11 -12 -15 -26 -11 -37 6 -14 14 -10 48 28 34 36 43 41 46 26 2 -10
-2 -24 -8 -32 -15 -18 -5 -35 20 -35 15 0 19 9 22 56 3 51 -5 74 -23 74 -4 0
-11 -4 -14 -10z"/>
<path d="M10064 6516 c-54 -54 -37 -93 29 -68 27 10 32 9 44 -8 15 -22 33 -18
33 6 0 29 -41 104 -56 104 -9 0 -31 -15 -50 -34z m55 -18 c-8 -5 -23 -14 -34
-20 -17 -9 -16 -7 4 15 13 15 28 24 34 20 5 -3 3 -9 -4 -15z"/>
<path d="M9542 6483 c-25 -72 -25 -73 -10 -73 15 0 48 65 48 93 0 31 -25 17
-38 -20z"/>
<path d="M2453 6745 c-30 -83 -29 -82 -135 -76 -54 4 -48 -19 12 -47 l50 -23
-19 -37 c-11 -20 -33 -54 -49 -75 -32 -40 -33 -67 -1 -67 12 0 19 7 19 19 0
18 85 101 102 101 12 0 35 -52 43 -97 7 -42 20 -61 33 -48 4 3 5 50 4 104 l-3
97 70 33 c93 44 93 61 1 61 l-70 0 0 65 c0 91 -20 87 -57 -10z m27 -50 c0 -8
-4 -15 -10 -15 -5 0 -7 7 -4 15 4 8 8 15 10 15 2 0 4 -7 4 -15z m60 -50 c-27
-14 -36 -13 -25 4 3 6 16 11 28 11 21 -1 21 -1 -3 -15z m-73 -43 c-19 -19 -49
-9 -40 13 9 24 47 37 51 18 2 -9 -3 -22 -11 -31z m-67 28 c0 -5 -7 -7 -15 -4
-8 4 -15 8 -15 10 0 2 7 4 15 4 8 0 15 -4 15 -10z m77 -82 c-3 -8 -6 -5 -6 6
-1 11 2 17 5 13 3 -3 4 -12 1 -19z"/>
<path d="M12960 6753 c-19 -36 -32 -49 -55 -54 -46 -9 -74 -27 -95 -62 -25
-41 -25 -78 0 -110 l20 -25 -41 -76 c-36 -68 -42 -96 -20 -96 4 0 27 38 50 84
28 56 47 83 56 80 8 -3 34 3 59 15 93 41 117 159 33 161 -18 0 -18 2 3 38 12
20 28 41 36 45 11 6 12 13 4 28 -15 28 -22 24 -50 -28z m-50 -88 c0 -3 -14
-33 -31 -66 -25 -50 -33 -59 -45 -49 -17 15 -18 31 -3 63 13 29 79 72 79 52z
m78 -49 c5 -25 -56 -86 -85 -86 l-23 0 27 55 c24 48 31 55 53 53 15 -2 26 -10
28 -22z"/>
<path d="M4330 6768 c0 -12 -10 -53 -21 -90 -21 -66 -23 -68 -54 -68 -31 0
-61 -20 -49 -33 3 -3 21 -3 39 0 l34 5 -30 -76 c-28 -71 -30 -96 -10 -96 5 0
21 35 36 78 15 42 33 82 39 89 6 6 33 13 60 15 71 5 73 28 3 28 l-55 0 19 63
c23 76 24 107 4 107 -9 0 -15 -9 -15 -22z"/>
<path d="M3312 6749 c-41 -16 -77 -27 -82 -24 -4 3 -13 -1 -18 -8 -12 -14 -5
-57 9 -57 5 0 6 -7 2 -16 -5 -13 -8 -13 -15 -2 -6 9 -8 8 -6 -7 1 -11 0 -24
-4 -30 -15 -26 -59 -198 -54 -212 4 -10 10 -12 15 -7 8 9 35 97 40 133 0 5 22
12 49 16 66 9 162 37 162 46 0 18 -23 20 -68 6 -26 -9 -64 -18 -85 -21 l-38
-5 5 37 c6 43 14 83 18 87 15 15 164 64 180 59 16 -5 19 -2 16 13 -5 27 -44
25 -126 -8z"/>
<path d="M4096 6765 c-9 -9 -16 -24 -16 -33 0 -34 -57 -139 -79 -145 -24 -6
-29 -27 -6 -27 18 0 19 5 -5 -58 -20 -52 -19 -72 1 -72 6 0 8 4 5 9 -4 5 -2
11 2 13 4 1 17 28 28 58 l19 55 60 7 c74 10 88 15 80 29 -5 7 -27 8 -66 4
l-58 -7 25 64 c15 34 31 71 36 82 14 26 -5 42 -26 21z"/>
<path d="M7362 6695 c-42 -64 -44 -65 -88 -65 -32 0 -44 -4 -44 -15 0 -11 11
-15 36 -15 31 0 35 -3 29 -17 -51 -123 -35 -190 43 -181 19 2 27 9 27 23 0 20
-6 22 -37 10 -30 -12 -40 26 -22 86 9 30 20 59 26 66 6 7 35 12 73 12 73 -1
108 8 102 24 -4 14 -66 10 -84 -5 -9 -7 -13 -7 -13 1 0 6 -9 11 -21 11 -11 0
-17 -4 -14 -10 3 -5 1 -10 -4 -10 -21 0 -10 32 28 84 22 30 37 56 34 60 -15
15 -32 2 -71 -59z"/>
<path d="M13724 6705 c-16 -28 -33 -45 -45 -45 -27 0 -87 -57 -94 -90 -3 -16
-2 -38 4 -49 9 -15 5 -31 -19 -75 -16 -31 -27 -63 -23 -72 8 -21 38 -12 36 11
-1 11 8 36 19 56 20 35 20 36 59 25 33 -9 45 -7 74 8 70 38 79 125 15 149 -31
12 -49 37 -26 37 8 0 19 14 26 30 7 17 19 30 26 30 8 0 14 7 14 15 0 33 -39
15 -66 -30z m-54 -92 c-1 -18 -48 -84 -54 -75 -8 13 2 41 22 65 16 17 32 23
32 10z m90 -52 c0 -43 -55 -80 -99 -66 -18 6 -18 9 12 59 30 51 33 53 59 44
22 -8 28 -16 28 -37z"/>
<path d="M14749 6705 c-18 -33 -30 -45 -47 -45 -14 0 -40 -17 -68 -45 -49 -50
-58 -91 -28 -133 14 -21 13 -26 -15 -76 -35 -61 -41 -110 -13 -104 10 2 16 11
15 23 -2 11 10 42 25 70 24 41 34 51 65 57 49 10 82 33 107 73 27 44 25 72 -9
104 l-28 26 23 35 c27 39 31 60 10 60 -7 0 -24 -20 -37 -45z m-76 -146 c-29
-55 -46 -64 -51 -28 -4 23 33 69 55 69 7 0 13 8 14 18 0 9 3 12 5 5 3 -6 -8
-35 -23 -64z m107 15 c0 -30 -90 -107 -106 -91 -5 4 44 107 59 125 8 10 14 9
28 -4 11 -10 19 -23 19 -30z"/>
<path d="M13148 6724 c-31 -9 -48 -20 -48 -30 0 -16 19 -15 66 3 10 3 0 -10
-22 -30 -31 -29 -36 -39 -25 -46 8 -5 20 -7 28 -4 20 8 60 -5 67 -22 23 -61
-106 -128 -144 -75 -8 11 -20 20 -27 20 -25 0 -23 -21 4 -45 38 -33 96 -33
144 -1 68 47 74 123 12 147 l-28 11 30 24 c17 13 33 24 38 24 14 0 7 28 -9 34
-21 8 -31 7 -86 -10z"/>
<path d="M15168 6733 c-37 -6 -98 -75 -98 -111 0 -15 5 -33 11 -39 9 -9 -2
-25 -40 -63 -38 -38 -51 -58 -51 -80 0 -80 146 -61 187 25 15 32 15 37 -2 75
-10 22 -25 40 -33 40 -9 0 2 13 25 30 42 31 67 75 61 107 -3 19 -17 23 -60 16z
m23 -52 c-12 -22 -68 -71 -82 -71 -17 0 -9 28 15 57 28 34 83 45 67 14z m-56
-155 c18 7 26 -22 14 -49 -21 -47 -112 -77 -126 -41 -7 20 77 108 90 95 5 -5
15 -7 22 -5z"/>
<path d="M14035 6718 c-16 -5 -57 -17 -89 -26 -65 -19 -73 -39 -13 -34 l38 4
-16 -26 c-16 -25 -16 -26 17 -46 18 -11 38 -21 43 -23 17 -6 -8 -58 -38 -81
-32 -24 -60 -14 -65 23 -4 25 -20 28 -29 5 -9 -24 14 -63 42 -70 56 -14 125
45 125 107 0 26 -27 59 -48 59 -27 0 -19 21 15 39 46 23 77 56 68 70 -7 13
-10 13 -50 -1z"/>
<path d="M14443 6662 c-52 -27 -69 -52 -35 -52 9 0 31 9 47 20 63 42 73 16 20
-54 -20 -25 -44 -46 -54 -46 -22 0 -101 -67 -101 -86 0 -22 28 -16 75 16 l43
30 11 -30 c5 -17 17 -33 26 -36 24 -9 65 5 65 22 0 12 -7 14 -29 9 -26 -6 -29
-3 -35 29 -6 30 -2 42 29 81 19 26 35 50 35 55 0 5 3 15 6 23 6 16 -20 47 -39
47 -7 -1 -36 -13 -64 -28z"/>
<path d="M14917 6574 c-60 -122 -69 -158 -39 -152 9 2 16 9 15 16 -2 6 20 57
47 113 48 98 60 139 42 139 -5 0 -34 -52 -65 -116z"/>
<path d="M8070 6661 c0 -12 6 -21 16 -21 9 0 14 7 12 17 -5 25 -28 28 -28 4z"/>
<path d="M4502 6643 c4 -21 33 -25 33 -3 0 8 -8 16 -18 18 -14 3 -18 -1 -15
-15z"/>
<path d="M3864 6619 c-3 -6 -1 -16 5 -22 9 -9 14 -8 21 3 9 15 4 30 -10 30 -5
0 -12 -5 -16 -11z"/>
<path d="M5592 6618 c-25 -7 -37 -18 -48 -43 -19 -46 -18 -61 6 -85 15 -15 25
-18 44 -10 18 7 26 5 30 -6 11 -28 24 -13 45 48 20 59 20 62 3 78 -25 24 -43
28 -80 18z m55 -45 c6 -18 -44 -65 -65 -61 -19 4 -19 42 0 65 13 16 60 13 65
-4z"/>
<path d="M6696 6621 c-3 -5 -1 -32 5 -61 6 -28 8 -62 5 -76 -10 -38 -42 -14
-63 46 -16 46 -30 59 -45 44 -4 -3 3 -28 14 -55 22 -52 58 -89 88 -89 26 0 44
52 36 109 -6 46 -5 48 16 44 27 -5 84 14 74 25 -4 3 -24 7 -44 8 -21 1 -47 4
-59 8 -12 4 -24 3 -27 -3z"/>
<path d="M5782 6588 c-19 -19 -22 -20 -22 -5 0 9 -6 17 -12 17 -16 0 -53 -119
-41 -131 5 -5 30 19 56 52 57 70 80 75 85 15 2 -25 -2 -44 -14 -57 -19 -22
-11 -52 13 -47 20 4 31 36 32 99 2 73 -50 104 -97 57z"/>
<path d="M6442 6594 c-12 -8 -31 -33 -41 -55 -18 -37 -18 -41 -3 -72 8 -17 23
-37 31 -44 22 -17 96 -16 110 0 16 20 4 26 -34 20 -37 -6 -75 10 -75 32 0 9 9
15 21 15 26 0 79 52 79 77 0 42 -47 56 -88 27z m53 -24 c7 -12 -30 -50 -50
-50 -21 0 -19 16 5 40 22 22 36 25 45 10z"/>
<path d="M6884 6580 c-32 -13 -74 -73 -74 -106 0 -58 31 -72 110 -48 63 19 68
40 8 30 -69 -12 -81 -12 -85 0 -2 7 8 15 23 18 64 16 109 71 84 101 -14 17
-34 18 -66 5z m36 -33 c0 -8 -12 -20 -27 -28 -16 -8 -31 -18 -35 -24 -5 -7 -8
-6 -8 1 0 14 21 39 45 52 25 14 25 14 25 -1z"/>
<path d="M8614 6556 c-39 -39 -42 -56 -14 -81 14 -13 29 -16 53 -12 26 4 36 1
46 -15 8 -13 21 -18 39 -16 31 4 38 33 7 33 -15 0 -20 7 -20 27 0 38 -10 43
-41 19 -42 -33 -83 -26 -63 10 15 28 47 43 64 29 21 -17 37 -3 25 21 -17 30
-57 24 -96 -15z"/>
<path d="M7116 6554 c-21 -22 -26 -23 -26 -10 0 32 -25 10 -54 -48 -23 -45
-27 -59 -17 -69 10 -9 24 1 67 48 30 33 51 51 46 40 -10 -20 -15 -55 -13 -87
1 -11 9 -18 21 -18 16 0 19 5 13 30 -3 18 1 48 11 75 26 68 1 88 -48 39z"/>
<path d="M8169 6571 c-71 -22 -84 -46 -49 -91 34 -44 24 -64 -18 -34 -22 15
-42 12 -42 -6 0 -11 53 -40 74 -40 18 0 46 27 46 45 0 7 -11 27 -25 44 -25 29
-25 30 -6 40 11 6 30 11 44 11 30 0 40 10 26 27 -13 14 -13 15 -50 4z"/>
<path d="M3573 6535 c-19 -19 -32 -27 -29 -17 8 25 -9 46 -30 38 -12 -5 -14
-10 -7 -17 12 -12 -1 -74 -20 -97 -7 -9 -7 -16 2 -25 9 -9 22 0 56 38 44 49
44 49 36 18 -6 -20 -6 -35 0 -39 10 -6 70 28 89 51 19 23 29 18 28 -15 -1 -36
8 -48 24 -32 9 9 9 12 -2 12 -11 0 -11 3 -2 12 15 15 16 74 2 83 -6 4 -28 -8
-51 -26 -45 -35 -54 -34 -39 5 21 55 -7 61 -57 11z"/>
<path d="M4864 6534 c-18 -26 -72 -60 -82 -50 -3 3 2 14 11 24 17 19 14 32 -8
32 -11 0 -45 -51 -45 -69 0 -25 36 -30 79 -10 l43 19 -7 -68 c-3 -37 -10 -83
-14 -102 -7 -34 -8 -35 -52 -35 -25 0 -54 -6 -63 -14 -62 -52 -61 -191 1 -191
23 0 89 73 104 115 9 24 18 35 29 32 41 -12 45 -11 45 8 0 13 -8 21 -23 23
-20 3 -22 8 -17 31 14 63 42 267 38 274 -8 14 -23 7 -39 -19z m-44 -303 c0
-16 -62 -112 -79 -120 -24 -13 -31 -5 -31 36 0 42 24 90 47 95 23 5 63 -2 63
-11z"/>
<path d="M7989 6553 c-1 -5 -1 -12 0 -17 2 -11 -30 -98 -42 -114 -13 -16 3
-34 21 -23 14 9 62 142 55 154 -2 4 -11 7 -19 7 -8 0 -15 -3 -15 -7z"/>
<path d="M4607 6530 c-46 -37 -91 -100 -79 -112 8 -8 17 -4 34 18 36 46 75 84
89 84 11 0 9 -40 -7 -97 -5 -17 -2 -23 9 -23 21 0 41 72 32 117 -5 26 -11 33
-29 33 -13 0 -35 -9 -49 -20z"/>
<path d="M4433 6490 c-28 -64 -31 -84 -13 -87 10 -2 21 14 33 49 30 86 30 88
16 88 -8 0 -24 -22 -36 -50z"/>
<path d="M3805 6494 c-18 -44 -19 -74 -2 -74 11 0 40 72 39 97 -1 23 -23 9
-37 -23z"/>
<path d="M13310 6485 c-10 -12 -9 -16 4 -21 18 -7 49 13 40 27 -8 14 -30 11
-44 -6z"/>
<path d="M14084 6458 c-3 -5 -2 -14 4 -20 14 -14 57 -6 57 11 0 16 -52 24 -61
9z"/>
<path d="M3343 6443 c-18 -4 -39 -30 -30 -39 1 -2 21 2 44 8 29 7 40 14 36 24
-5 14 -10 15 -50 7z"/>
<path d="M3262 6418 c-18 -5 -31 -12 -28 -16 2 -4 -8 -8 -22 -7 -18 0 -27 -5
-27 -15 0 -18 45 -16 60 3 6 7 18 11 28 9 9 -2 20 4 23 13 9 22 4 23 -34 13z"/>
<path d="M1916 6323 c-3 -10 -7 -36 -11 -58 -3 -22 -15 -70 -26 -107 l-20 -67
-47 -3 c-34 -2 -47 -7 -47 -18 0 -11 10 -14 42 -12 l42 3 -20 -72 c-19 -70
-19 -106 1 -94 5 3 14 25 20 48 6 23 16 59 21 80 9 36 11 37 54 37 24 0 47 5
50 11 10 15 4 18 -43 21 -26 2 -41 7 -38 14 17 45 45 148 51 187 6 39 5 47 -8
47 -9 0 -18 -8 -21 -17z"/>
<path d="M7694 6324 c-12 -10 -15 -17 -7 -20 15 -7 -20 -95 -92 -230 -76 -145
-72 -169 16 -94 26 22 50 40 53 40 3 0 6 -19 8 -42 5 -66 29 -56 33 12 4 91
-7 99 -69 48 -22 -18 -37 -28 -35 -22 2 5 21 42 42 81 49 96 99 222 92 234 -9
13 -18 11 -41 -7z"/>
<path d="M11235 6320 c-3 -5 -4 -14 0 -19 8 -14 -19 -90 -75 -211 -27 -58 -51
-117 -55 -133 -11 -43 16 -34 52 17 18 25 46 52 62 61 35 18 37 12 21 -45 -6
-22 -6 -38 0 -44 17 -17 29 6 36 66 6 51 5 56 -15 63 -14 4 -34 -1 -56 -14
l-35 -20 29 57 c38 76 76 195 68 216 -7 18 -23 21 -32 6z"/>
<path d="M2028 6298 c-1 -12 -2 -32 -3 -43 -4 -55 -19 -135 -36 -194 -11 -36
-19 -74 -19 -83 0 -27 27 -21 47 10 9 15 25 38 36 51 l18 25 -3 -52 c-2 -28 1
-52 7 -54 12 -4 35 96 28 122 -8 28 -38 25 -64 -7 l-22 -28 7 25 c27 100 37
241 19 247 -8 3 -14 -5 -15 -19z"/>
<path d="M6008 6282 c-22 -4 -45 -56 -74 -164 -13 -49 -29 -98 -34 -108 -15
-27 -49 -45 -63 -31 -7 7 2 23 31 52 39 39 46 59 19 59 -13 0 -59 -51 -78 -87
-31 -58 46 -85 94 -35 16 16 29 36 30 43 2 8 5 19 9 24 3 6 14 39 23 75 20 82
34 121 53 142 17 21 13 35 -10 30z"/>
<path d="M10989 6286 c-4 -4 -48 -8 -99 -9 -66 -1 -95 -6 -98 -15 -3 -10 22
-13 119 -12 109 2 124 0 121 -14 -2 -9 -23 -63 -47 -120 -45 -106 -53 -136
-35 -136 11 0 55 93 97 205 l28 75 56 -6 c39 -4 59 -3 64 6 4 6 5 14 2 17 -8
8 -201 16 -208 9z"/>
<path d="M13253 6263 c-13 -38 -64 -159 -72 -171 -5 -8 -24 -17 -42 -21 -21
-4 -35 -14 -37 -24 -3 -15 1 -17 22 -11 31 7 32 -1 6 -44 -25 -40 -25 -42 1
-42 15 0 25 13 41 50 17 40 25 50 44 50 15 0 24 6 24 15 0 8 -6 15 -14 15 -10
0 -3 25 25 90 22 50 39 95 39 100 0 17 -30 11 -37 -7z"/>
<path d="M6369 6260 c-3 -19 -5 -25 -33 -96 -30 -76 -41 -84 -113 -84 -15 0
-23 -5 -20 -12 2 -7 20 -13 41 -13 27 0 36 -4 34 -15 -1 -8 1 -21 5 -27 5 -8
3 -11 -5 -8 -15 6 -51 -52 -42 -67 9 -15 39 17 60 65 23 53 25 54 80 50 35 -4
45 -1 42 9 -3 7 -22 14 -42 16 -43 4 -43 -3 -2 106 14 38 26 73 26 77 0 13
-30 11 -31 -1z"/>
<path d="M12886 6241 c-9 -10 -21 -47 -27 -82 -9 -57 -38 -125 -72 -170 -16
-21 -56 -30 -80 -18 -18 10 -17 13 14 45 25 25 38 32 56 28 25 -7 30 5 11 24
-20 20 -43 13 -86 -26 -64 -60 -51 -107 31 -107 34 0 45 6 78 44 39 44 79 133
79 176 0 38 17 72 39 78 12 3 21 10 21 16 0 18 -46 12 -64 -8z"/>
<path d="M2399 6248 c0 -2 -8 -32 -17 -68 -17 -64 -18 -65 -55 -70 -47 -6 -53
-24 -9 -28 27 -3 32 -7 27 -20 -31 -76 -8 -142 48 -142 17 0 39 5 47 10 13 8
13 10 1 10 -12 0 -12 3 -3 12 7 7 12 19 11 28 0 10 -2 11 -6 3 -2 -7 -11 -13
-19 -13 -8 0 -14 -4 -14 -10 0 -18 -39 -10 -45 10 -8 25 4 86 19 99 6 5 34 11
61 13 36 2 50 7 50 18 0 11 -11 14 -47 11 -55 -3 -55 -1 -33 73 15 48 13 66
-6 66 -5 0 -9 -1 -10 -2z"/>
<path d="M10168 6224 c-26 -13 -48 -62 -48 -106 0 -10 -14 -21 -35 -28 -32
-10 -95 -70 -95 -90 0 -22 15 -42 41 -55 39 -21 72 -19 103 6 26 21 27 23 24
121 -2 99 -2 101 26 125 34 29 23 48 -16 27z m-38 -199 c0 -59 -46 -83 -89
-47 -20 16 -21 18 -6 40 17 23 74 53 88 45 4 -2 7 -19 7 -38z"/>
<path d="M6142 6178 c7 -19 38 -22 38 -4 0 10 -9 16 -21 16 -12 0 -19 -5 -17
-12z"/>
<path d="M13421 6181 c-18 -12 -5 -31 20 -31 14 0 19 6 17 17 -4 20 -18 26
-37 14z"/>
<path d="M6520 6165 c0 -8 7 -15 15 -15 8 0 15 7 15 15 0 8 -7 15 -15 15 -8 0
-15 -7 -15 -15z"/>
<path d="M3168 6159 c-35 -13 -41 -34 -22 -70 8 -17 14 -40 12 -52 -2 -18 -9
-22 -38 -21 -19 1 -46 5 -59 9 -19 7 -22 5 -20 -10 3 -11 21 -24 48 -33 40
-13 45 -13 70 6 21 15 26 27 25 58 -1 22 -5 49 -9 61 -6 19 -3 23 29 29 21 3
35 11 33 18 -5 15 -36 17 -69 5z"/>
<path d="M11443 6139 c-1 -12 3 -19 10 -16 15 5 16 29 2 34 -6 2 -11 -6 -12
-18z"/>
<path d="M13000 6147 c0 -17 38 -52 47 -44 9 10 -18 57 -34 57 -7 0 -13 -6
-13 -13z"/>
<path d="M3634 6131 c-18 -11 -35 -24 -38 -30 -12 -19 -26 -12 -26 14 0 29
-24 34 -56 11 -12 -9 -23 -11 -30 -5 -9 7 -21 -7 -43 -47 -33 -62 -38 -84 -18
-84 18 1 70 78 61 92 -4 7 -3 8 5 4 6 -4 19 -2 27 5 22 18 26 6 10 -39 -10
-26 -11 -44 -5 -48 15 -9 39 15 40 40 0 11 3 15 6 8 3 -9 17 -1 44 23 61 55
71 47 45 -37 -13 -45 -8 -76 11 -65 13 8 36 116 31 147 -4 32 -25 35 -64 11z"/>
<path d="M3790 6134 c-61 -39 -85 -112 -50 -157 25 -32 55 -34 124 -11 42 15
67 37 54 49 -2 3 -28 -4 -56 -15 -65 -25 -89 -25 -101 -2 -11 21 -3 65 10 56
16 -10 79 17 90 39 10 17 8 24 -11 39 -27 22 -28 22 -60 2z m36 -33 c-3 -5
-15 -11 -26 -14 -17 -4 -19 -3 -9 9 12 15 44 20 35 5z"/>
<path d="M5291 6133 c-35 -17 -71 -65 -71 -95 0 -43 106 -115 118 -79 2 6 8 9
13 5 5 -3 9 1 9 8 0 9 -13 14 -37 15 -26 1 -43 8 -55 23 -23 29 -23 33 8 69
26 31 49 40 56 20 5 -14 38 0 38 17 0 7 -9 18 -19 24 -24 12 -19 13 -60 -7z"/>
<path d="M3284 6109 c-9 -10 -14 -19 -10 -19 4 0 0 -7 -8 -16 -33 -32 -9 -94
35 -94 33 0 79 53 72 81 -13 54 -61 79 -89 48z m56 -61 c0 -20 -35 -42 -51
-33 -13 9 -2 46 19 62 18 15 32 2 32 -29z"/>
<path d="M8042 6114 c-26 -18 -27 -34 -7 -74 21 -40 10 -63 -26 -58 -39 6 -41
-29 -2 -38 21 -6 31 -2 50 20 27 32 28 47 7 87 -14 28 -14 32 0 42 9 7 12 17
8 24 -6 10 -13 9 -30 -3z"/>
<path d="M12174 6076 c-50 -49 -56 -84 -23 -117 28 -28 91 -23 95 8 2 12 -1
25 -8 29 -8 5 -9 2 -5 -9 7 -19 -8 -23 -19 -6 -4 8 -9 7 -14 -2 -7 -10 -11
-10 -24 0 -9 8 -16 20 -16 28 0 23 65 83 89 83 12 0 21 6 21 15 0 32 -51 16
-96 -29z"/>
<path d="M5730 6103 c-8 -3 -27 -14 -42 -25 -17 -12 -29 -15 -33 -8 -10 16
-25 2 -25 -24 0 -12 -4 -26 -10 -32 -5 -5 -6 -15 -1 -23 7 -10 19 -3 53 33 25
25 49 46 55 46 6 0 10 -23 9 -55 0 -30 3 -55 9 -55 6 0 10 10 11 23 1 12 7 39
13 60 10 30 10 41 1 52 -13 16 -17 17 -40 8z"/>
<path d="M11491 6094 c-24 -18 -28 -56 -6 -74 21 -17 19 -37 -6 -50 -15 -9
-24 -8 -35 0 -11 10 -15 9 -20 -3 -22 -58 76 -44 107 15 9 16 7 26 -9 48 -21
28 -14 50 15 50 7 0 13 6 13 13 0 18 -34 18 -59 1z"/>
<path d="M13664 6078 c-9 -18 -25 -44 -35 -57 -21 -26 -25 -61 -8 -61 6 0 35
21 65 46 52 44 54 45 54 22 0 -45 31 -62 102 -54 55 5 101 27 87 41 -3 2 -32
-1 -66 -7 -81 -15 -96 -8 -87 37 8 44 -15 56 -58 30 -29 -17 -30 -17 -19 3 10
19 6 32 -10 32 -5 0 -16 -15 -25 -32z"/>
<path d="M5503 6089 c-49 -18 -71 -98 -34 -119 24 -12 65 1 99 32 22 21 28 53
14 74 -10 15 -54 22 -79 13z m57 -45 c0 -16 -39 -44 -62 -44 -22 0 -23 18 -3
40 19 21 65 23 65 4z"/>
<path d="M7832 6084 c-28 -19 -54 -68 -46 -87 8 -21 42 -28 70 -15 21 10 27 8
40 -10 21 -31 31 -21 28 30 -2 49 -5 50 -56 23 -46 -23 -59 -13 -28 20 17 18
30 23 47 19 16 -4 23 -2 23 9 0 28 -44 35 -78 11z"/>
<path d="M9056 6065 c-32 -25 -46 -43 -46 -60 0 -29 34 -55 72 -55 29 0 38 14
16 23 -7 3 -3 6 10 6 30 1 28 21 -3 21 -14 0 -25 -4 -25 -10 0 -12 -10 -13
-30 0 -12 7 -11 13 9 34 13 14 39 32 57 41 19 9 34 20 34 25 0 22 -50 8 -94
-25z"/>
<path d="M12387 6093 c-9 -2 -29 -24 -43 -49 -29 -50 -27 -86 6 -104 40 -22
110 41 110 99 0 19 -36 63 -49 60 -3 -1 -14 -3 -24 -6z m41 -54 c5 -25 -41
-74 -61 -66 -22 8 -21 15 3 55 22 35 52 40 58 11z"/>
<path d="M13494 6092 c-19 -13 -51 -77 -47 -94 10 -41 82 -28 120 21 18 23 16
68 -3 75 -21 8 -57 7 -70 -2z m56 -36 c0 -15 -45 -56 -61 -56 -14 0 -11 18 7
45 18 27 54 34 54 11z"/>
<path d="M6751 6063 c-30 -24 -34 -25 -43 -10 -14 27 -28 20 -28 -14 0 -17 -5
-40 -11 -51 -23 -43 8 -37 60 12 33 31 52 43 48 31 -15 -60 76 -68 168 -14 35
21 7 27 -46 10 -28 -10 -60 -17 -71 -17 -18 0 -20 4 -14 40 5 34 4 40 -11 40
-10 0 -33 -12 -52 -27z"/>
<path d="M8895 6073 c-37 -20 -45 -31 -45 -65 0 -29 31 -58 62 -58 25 0 23 26
-2 33 -32 8 -37 37 -9 58 13 10 32 19 42 19 9 0 17 7 17 15 0 19 -27 19 -65
-2z"/>
<path d="M9811 6077 c-44 -14 -111 -78 -111 -105 0 -37 42 -55 107 -47 66 8
103 20 103 35 0 9 -51 7 -112 -6 -32 -6 -68 3 -68 17 0 6 9 8 19 4 10 -3 43 5
74 19 61 27 86 58 66 82 -13 16 -30 16 -78 1z m40 -31 c-6 -8 -26 -19 -44 -26
-18 -6 -41 -16 -52 -21 -12 -6 -8 0 9 14 23 20 53 35 95 46 2 1 -2 -5 -8 -13z"/>
<path d="M12523 6073 c-4 -10 -18 -35 -31 -56 -19 -29 -22 -41 -14 -49 9 -9
27 -2 73 31 33 23 63 41 65 38 2 -2 -5 -16 -17 -31 -17 -22 -19 -29 -8 -42 18
-21 29 -14 46 31 36 97 25 112 -48 66 -39 -24 -47 -26 -39 -11 5 10 10 23 10
29 0 18 -30 12 -37 -6z"/>
<path d="M2166 6047 c-41 -54 -27 -94 23 -67 19 9 21 8 21 -14 0 -22 16 -44
24 -35 2 2 6 30 10 62 7 64 -2 72 -41 35 -17 -16 -22 -18 -18 -6 4 9 13 19 21
22 18 7 18 36 0 36 -8 0 -26 -15 -40 -33z"/>
<path d="M6072 6068 c-21 -28 -36 -88 -25 -99 9 -9 16 -2 28 27 22 54 29 84
17 84 -5 0 -14 -6 -20 -12z"/>
<path d="M8702 6051 c-56 -57 -45 -109 20 -97 46 8 62 28 54 66 -3 17 -1 30 4
30 6 0 10 7 10 15 0 27 -55 18 -88 -14z m32 -58 c-35 -26 -48 -5 -17 29 16 17
17 18 26 2 7 -13 5 -21 -9 -31z"/>
<path d="M12912 6047 c-16 -44 -15 -77 1 -77 14 0 40 88 31 102 -10 16 -20 7
-32 -25z"/>
<path d="M13253 6058 c-2 -16 1 -17 13 -8 17 15 17 17 1 23 -8 3 -14 -3 -14
-15z"/>
<path d="M13343 6058 c-46 -51 -60 -88 -33 -88 15 0 72 92 63 101 -6 6 -17 1
-30 -13z"/>
<path d="M9224 6045 c-15 -23 -15 -28 -3 -36 12 -7 12 -10 1 -18 -11 -7 -12
-12 -1 -29 31 -49 101 -30 144 38 28 44 31 60 12 60 -7 0 -23 -18 -36 -40 -42
-75 -130 -63 -90 12 18 33 -6 45 -27 13z"/>
<path d="M9473 6048 c-23 -26 -43 -61 -43 -77 0 -25 30 -8 46 25 19 40 28 45
80 47 62 3 54 27 -8 27 -44 0 -59 -4 -75 -22z"/>
<path d="M6521 6025 c-35 -41 -37 -51 -15 -83 18 -26 46 -28 85 -5 36 22 47
58 28 92 -23 41 -60 39 -98 -4z m73 -19 c9 -14 6 -21 -13 -37 -31 -25 -51 -24
-51 3 0 24 28 60 44 55 5 -2 14 -11 20 -21z"/>
<path d="M11355 6052 c-11 -7 -35 -78 -35 -101 0 -27 28 -8 39 27 14 43 12 85
-4 74z"/>
<path d="M6422 6013 c-8 -24 -8 -41 -2 -47 14 -14 27 3 35 47 10 51 -17 51
-33 0z"/>
<path d="M10373 5953 c-23 -9 -15 -35 10 -31 12 2 22 9 22 17 0 16 -14 22 -32
14z"/>
<path d="M6869 5880 c-51 -27 -104 -93 -131 -162 -16 -39 -28 -58 -40 -58 -24
0 -35 -22 -16 -33 13 -9 13 -16 0 -59 -9 -34 -11 -53 -4 -60 14 -14 35 0 28
18 -3 8 3 34 14 59 17 39 23 45 50 45 17 0 29 4 26 9 -3 5 2 8 11 7 9 0 18 5
21 13 3 10 -4 12 -38 6 -41 -7 -42 -6 -35 16 27 87 115 186 157 176 21 -6 30
5 22 27 -8 20 -20 20 -65 -4z"/>
<path d="M11775 5860 c-3 -6 5 -14 20 -20 38 -15 72 -56 110 -135 45 -94 49
-116 35 -177 -14 -57 -73 -124 -129 -148 -31 -12 -43 -40 -18 -40 22 0 105 59
136 98 35 42 56 118 46 170 -11 62 -81 197 -120 231 -36 31 -68 40 -80 21z"/>
<path d="M8073 5838 c-25 -29 -83 -119 -83 -130 0 -4 -27 -8 -60 -8 -47 0 -60
-3 -60 -15 0 -11 12 -15 50 -15 l49 0 -15 -42 c-13 -36 -12 -44 1 -65 9 -12
21 -24 28 -24 54 -7 77 -6 77 2 0 6 5 7 11 3 7 -4 10 -1 7 7 -3 8 -12 13 -19
11 -7 -2 -28 -1 -46 3 -36 7 -40 21 -22 73 9 26 17 31 47 34 45 4 54 26 12 30
l-32 3 46 67 c25 37 46 72 46 78 0 17 -15 12 -37 -12z"/>
<path d="M3840 5816 c-5 -13 -31 -71 -59 -128 -58 -122 -69 -158 -50 -158 15
0 139 262 139 293 0 25 -19 21 -30 -7z"/>
<path d="M8840 5770 c-71 -77 -135 -193 -146 -265 -7 -51 8 -104 41 -143 28
-33 117 -77 139 -69 23 9 20 27 -5 27 -11 0 -41 12 -66 27 -58 34 -88 94 -78
156 12 72 64 167 131 239 57 60 79 98 57 98 -5 0 -37 -32 -73 -70z"/>
<path d="M9433 5798 c-17 -24 -38 -58 -47 -75 -9 -18 -22 -33 -29 -33 -9 0
-13 -19 -14 -60 -3 -77 19 -105 75 -96 41 6 68 28 57 47 -6 9 -10 9 -19 -2
-16 -20 -61 -22 -76 -4 -10 12 -10 24 -2 54 11 36 14 38 69 47 32 5 58 15 59
22 1 7 0 8 -3 2 -3 -7 -11 -7 -24 0 -10 6 -30 8 -45 4 l-26 -7 17 33 c9 18 28
44 42 58 22 22 25 52 5 52 -5 0 -22 -19 -39 -42z"/>
<path d="M9841 5770 l-34 -70 -49 0 c-36 0 -48 -4 -48 -15 0 -11 12 -15 44
-15 44 0 44 0 37 -28 -16 -54 20 -92 85 -92 36 0 25 20 -16 34 -24 7 -36 18
-38 33 -5 35 15 63 46 63 42 0 72 11 72 26 0 8 -4 14 -10 14 -5 0 -10 -4 -10
-8 0 -4 -16 -6 -35 -4 -19 2 -35 6 -35 7 0 2 12 26 26 53 23 45 26 72 6 72 -4
0 -22 -32 -41 -70z"/>
<path d="M13269 5742 l-35 -97 -59 -5 c-71 -6 -83 -25 -21 -34 l44 -7 -25 -55
c-17 -38 -22 -59 -15 -66 13 -13 32 -2 32 20 0 9 13 40 30 68 22 40 36 53 60
58 33 6 38 32 6 29 -12 -1 -15 4 -11 15 55 135 64 172 43 172 -7 0 -29 -44
-49 -98z"/>
<path d="M13427 5833 c-4 -3 -7 -19 -7 -34 0 -47 -44 -153 -99 -239 -37 -58
-50 -85 -42 -93 7 -7 30 9 76 54 36 35 70 66 75 67 14 5 12 -22 -2 -53 -10
-21 -9 -28 2 -35 8 -5 17 -7 21 -4 11 7 21 81 14 104 -8 25 -41 26 -68 3 -20
-18 -20 -18 -3 15 20 39 56 147 60 179 3 23 -16 48 -27 36z"/>
<path d="M2055 5820 c-9 -15 4 -30 26 -30 23 0 26 25 3 34 -21 8 -22 8 -29 -4z"/>
<path d="M7567 5775 c-30 -44 -43 -55 -72 -61 -22 -4 -35 -12 -35 -21 0 -12 7
-14 29 -10 l29 6 -25 -59 c-30 -68 -26 -106 12 -116 28 -7 106 16 103 31 -3
10 -14 10 -73 4 -27 -4 -30 -1 -28 21 0 14 12 48 25 75 22 47 26 50 75 60 55
11 68 18 59 33 -4 6 -20 7 -43 2 -21 -5 -39 -7 -41 -5 -2 2 5 17 17 33 21 31
28 62 12 62 -4 0 -24 -25 -44 -55z"/>
<path d="M3685 5783 c-4 -21 -22 -86 -41 -146 -32 -98 -36 -136 -14 -122 12 8
81 222 83 262 3 49 -19 53 -28 6z"/>
<path d="M10767 5718 c-14 -51 -31 -112 -38 -135 -7 -23 -10 -45 -7 -49 4 -3
34 15 68 41 33 27 63 45 66 42 10 -10 -6 -58 -16 -52 -6 3 -10 2 -10 -4 0 -13
37 -33 43 -24 3 5 9 24 15 44 19 70 -29 92 -89 42 -28 -24 -32 -25 -25 -8 15
41 45 178 40 187 -13 20 -23 2 -47 -84z"/>
<path d="M5563 5783 c-26 -75 -67 -172 -86 -203 -12 -21 -18 -42 -14 -46 8 -9
48 11 77 38 11 10 20 16 20 12 0 -3 7 0 17 7 15 13 15 12 4 -9 -14 -26 -11
-77 4 -77 5 0 13 16 18 35 4 19 11 45 14 57 7 31 -21 41 -58 19 -16 -9 -29
-14 -29 -9 0 4 14 41 30 82 17 40 30 82 30 92 0 24 -19 25 -27 2z"/>
<path d="M12487 5774 c-9 -10 2 -24 19 -24 8 0 14 7 14 15 0 15 -21 21 -33 9z"/>
<path d="M9180 5708 c-32 -12 -60 -37 -60 -54 0 -7 14 -29 30 -47 17 -19 30
-40 30 -46 0 -6 -13 -11 -30 -11 -16 0 -30 5 -30 10 0 6 -7 10 -15 10 -20 0
-19 -36 1 -44 33 -13 81 -6 99 14 18 20 18 22 -14 66 -26 37 -30 49 -20 60 8
10 22 13 41 9 21 -5 28 -3 28 9 0 23 -31 35 -60 24z"/>
<path d="M3076 5689 c-33 -26 -33 -53 -1 -90 24 -29 24 -59 1 -59 -7 0 -17 5
-23 11 -16 16 -28 -8 -13 -26 18 -22 57 -18 74 7 22 30 20 42 -9 76 -33 40
-32 50 10 68 19 8 35 19 35 24 0 18 -46 11 -74 -11z"/>
<path d="M7344 5694 c-46 -23 -61 -56 -45 -101 11 -29 11 -37 0 -44 -21 -13
-28 -11 -41 11 -14 22 -38 27 -38 7 0 -24 31 -57 53 -57 31 0 67 27 67 50 0
11 -5 30 -11 44 -14 29 0 52 38 67 13 5 23 15 23 24 0 19 -7 19 -46 -1z"/>
<path d="M10030 5681 c-44 -24 -67 -48 -75 -83 -9 -34 23 -68 63 -68 38 0 132
28 132 40 0 15 -14 18 -40 8 -38 -16 -101 -19 -116 -7 -20 16 -7 35 27 37 44
3 66 18 71 46 5 22 -7 47 -21 46 -4 -1 -22 -9 -41 -19z m25 -31 c-3 -5 -12
-10 -18 -10 -7 0 -6 4 3 10 19 12 23 12 15 0z"/>
<path d="M10572 5676 c-67 -49 -75 -74 -37 -111 33 -34 100 -36 108 -3 10 38
-10 50 -37 22 -20 -19 -56 -9 -56 16 0 23 55 70 82 70 11 0 18 5 16 13 -8 21
-42 19 -76 -7z"/>
<path d="M3430 5672 c-19 -11 -43 -31 -54 -45 -17 -23 -18 -30 -7 -53 10 -22
17 -26 45 -22 29 3 35 0 44 -26 14 -36 23 -29 33 26 4 24 10 52 14 64 5 15 -1
29 -17 48 l-23 27 -35 -19z m45 -32 c8 -13 -39 -60 -60 -60 -21 0 -19 20 7 47
23 24 43 29 53 13z"/>
<path d="M1973 5648 c-35 -37 -73 -104 -73 -129 0 -9 8 -27 19 -40 16 -21 22
-22 45 -11 34 15 36 45 2 36 -13 -3 -27 -1 -31 5 -10 17 36 101 72 130 31 24
35 41 9 41 -6 0 -26 -15 -43 -32z"/>
<path d="M8253 5665 c-62 -26 -105 -119 -71 -153 26 -26 162 -5 151 24 -3 9
-12 13 -22 9 -9 -4 -37 -9 -63 -12 -46 -5 -48 -5 -48 18 1 19 12 29 53 49 77
37 77 97 0 65z"/>
<path d="M11558 5647 c-23 -18 -47 -46 -53 -61 -8 -25 -6 -31 18 -52 31 -27
97 -33 142 -12 43 19 28 29 -34 22 -59 -6 -101 5 -101 28 0 7 5 7 14 -1 11
-10 21 -9 45 4 44 22 65 58 51 84 -15 29 -31 26 -82 -12z m52 -17 c0 -9 -52
-40 -67 -40 -10 1 49 50 60 50 4 0 7 -4 7 -10z"/>
<path d="M2139 5654 c-11 -13 -10 -24 4 -65 10 -27 15 -54 12 -59 -10 -16 -35
-11 -43 8 -4 9 -13 18 -19 20 -20 3 -15 -33 6 -59 19 -23 21 -23 47 -9 52 29
53 39 16 139 -4 11 2 13 30 8 40 -6 49 -2 41 19 -7 20 -77 18 -94 -2z"/>
<path d="M2835 5634 c-10 -19 -47 -62 -82 -94 -35 -33 -63 -64 -63 -70 0 -20
27 -9 59 24 33 34 34 34 50 15 16 -19 16 -19 54 6 20 14 37 31 37 37 0 6 3 8
7 4 4 -4 7 -19 8 -34 0 -33 26 -40 62 -17 18 12 22 20 14 28 -8 8 -14 8 -23
-1 -23 -23 -27 -12 -13 29 26 73 15 77 -54 21 -79 -66 -83 -63 -34 23 12 22
23 46 23 53 0 25 -26 11 -45 -24z"/>
<path d="M7705 5637 c-39 -39 -42 -49 -20 -67 15 -12 75 -5 75 9 0 4 6 8 14 8
11 0 12 -6 6 -23 -12 -32 -1 -64 22 -64 17 0 19 5 14 26 -4 14 -1 41 6 60 11
31 10 36 -7 54 -11 10 -32 22 -47 25 -23 6 -34 1 -63 -28z m70 -17 c-7 -12
-65 -30 -65 -21 0 13 44 39 57 34 7 -3 11 -9 8 -13z"/>
<path d="M9563 5651 c-61 -38 -51 -98 16 -87 25 4 38 1 47 -11 10 -14 15 -15
27 -4 9 7 13 20 10 29 -3 9 -7 22 -9 29 -2 10 -13 9 -45 -2 -51 -18 -60 -19
-53 -1 7 18 52 38 59 26 10 -17 25 -11 25 9 0 17 -18 31 -38 31 -4 0 -21 -9
-39 -19z"/>
<path d="M11025 5661 c-30 -13 -75 -58 -75 -76 0 -22 26 -29 65 -18 30 10 34
8 44 -13 6 -13 18 -24 27 -24 12 0 14 5 8 18 -4 9 -9 37 -10 61 -1 24 -8 47
-16 52 -15 10 -17 10 -43 0z m16 -45 c-6 -8 -21 -16 -32 -19 -20 -5 -20 -5 -3
14 20 23 54 28 35 5z"/>
<path d="M11414 5640 c-5 -21 -15 -35 -31 -41 -33 -12 -37 -11 -23 6 7 8 19
15 26 15 16 0 17 9 5 29 -7 11 -13 10 -35 -4 -60 -40 -53 -92 11 -82 l33 6 0
-78 0 -78 -29 5 c-76 11 -141 -44 -141 -120 0 -104 120 -84 176 30 23 45 30
52 55 52 19 0 29 5 29 15 0 10 -10 15 -31 15 l-31 0 6 93 c3 50 7 107 8 126 4
45 -20 54 -28 11z m-35 -259 c34 -22 -48 -125 -93 -119 -25 4 -34 50 -15 84
18 34 78 54 108 35z"/>
<path d="M3190 5618 c-11 -26 -15 -49 -11 -62 26 -68 109 -28 127 62 9 44 -22
45 -31 2 -6 -29 -40 -70 -57 -70 -13 0 -9 45 7 66 19 25 19 44 0 44 -9 0 -24
-19 -35 -42z"/>
<path d="M5678 5627 c-53 -41 -66 -87 -23 -87 14 0 38 6 53 14 l27 14 -3 -40
c-6 -60 18 -45 35 22 7 29 18 60 24 67 9 9 8 17 -1 28 -20 25 -65 18 -112 -18z
m61 -13 c-7 -8 -26 -22 -43 -30 l-31 -15 33 30 c34 33 65 44 41 15z"/>
<path d="M11203 5645 c-13 -9 -23 -11 -23 -6 0 6 -6 11 -12 11 -16 -1 -60 -88
-52 -101 3 -6 23 6 44 25 21 19 48 40 61 46 21 12 22 11 16 -16 -4 -16 -9 -39
-13 -51 -5 -17 -2 -23 9 -23 19 0 41 63 35 100 -4 30 -34 37 -65 15z"/>
<path d="M13625 5643 c-71 -37 -89 -75 -65 -137 16 -44 44 -51 112 -25 55 20
79 41 65 56 -4 3 -21 -1 -39 -10 -77 -37 -86 -38 -103 -14 -21 30 -19 34 14
42 42 9 106 67 98 88 -8 21 -43 21 -82 0z m11 -38 c-11 -8 -25 -15 -30 -15 -6
1 0 7 14 15 32 19 40 18 16 0z"/>
<path d="M3963 5633 c-4 -10 -9 -20 -13 -23 -3 -3 -17 -20 -30 -39 l-23 -34
-24 47 c-13 25 -30 46 -38 46 -8 0 -15 -2 -15 -4 0 -10 44 -102 51 -106 8 -5
-123 -189 -144 -202 -7 -4 -7 -11 2 -22 16 -19 31 -21 31 -3 0 6 25 46 57 87
108 144 183 250 183 260 0 17 -30 11 -37 -7z"/>
<path d="M4682 5632 c-83 -45 -108 -100 -44 -94 22 1 35 -3 38 -13 7 -17 61
-20 84 -5 12 8 13 11 1 19 -7 5 -22 6 -32 4 -20 -6 -26 11 -9 22 12 7 13 72 2
79 -5 3 -23 -2 -40 -12z m18 -30 c0 -5 -12 -14 -27 -21 l-28 -12 25 21 c29 22
30 23 30 12z"/>
<path d="M5923 5635 c-14 -10 -24 -12 -28 -5 -14 23 -31 7 -48 -45 -10 -30
-16 -59 -12 -64 3 -5 30 15 59 45 30 30 62 54 72 54 14 0 16 -8 10 -60 -5 -40
-3 -60 4 -60 23 0 40 93 24 134 -8 20 -53 21 -81 1z"/>
<path d="M12361 5619 c-11 -18 -23 -45 -26 -61 -8 -33 11 -70 33 -66 22 4 29
38 7 38 -18 0 -15 21 12 74 23 44 0 58 -26 15z"/>
<path d="M12577 5643 c-4 -3 -20 -6 -37 -5 -25 1 -35 -7 -60 -43 -29 -42 -39
-75 -22 -75 5 0 30 20 56 45 65 60 78 59 74 -6 -2 -36 1 -53 10 -55 7 -1 8 0
2 3 -6 3 -4 10 5 20 21 21 20 109 -1 117 -19 7 -19 7 -27 -1z"/>
<path d="M5300 5629 c-38 -16 -80 -60 -80 -85 0 -13 10 -32 22 -44 26 -24 88
-28 88 -5 0 10 -10 15 -29 15 -55 0 -65 44 -17 75 28 18 51 22 84 11 16 -5 24
-3 28 9 4 9 5 18 3 20 -11 10 -77 13 -99 4z"/>
<path d="M6247 5619 c-15 -11 -32 -38 -38 -60 -11 -34 -10 -41 6 -59 26 -28
108 -25 113 4 4 17 -1 18 -42 12 -38 -6 -46 -4 -46 8 0 9 5 16 12 16 21 0 68
53 68 77 0 30 -37 31 -73 2z m43 -13 c0 -2 -8 -10 -17 -17 -16 -13 -17 -12 -4
4 13 16 21 21 21 13z"/>
<path d="M6536 5595 c-38 -49 -33 -89 11 -93 57 -6 92 55 63 109 -16 29 -45
23 -74 -16z m54 -23 c0 -21 -18 -42 -37 -42 -18 0 -16 20 4 42 21 23 33 23 33
0z"/>
<path d="M6143 5613 c-28 -5 -76 -50 -70 -66 2 -6 20 -12 40 -12 l37 0 0 -55
c0 -75 -8 -99 -29 -93 -20 5 -75 -42 -66 -57 3 -6 2 -10 -4 -10 -13 0 -34
-102 -25 -123 13 -34 44 -18 84 45 22 33 40 68 40 77 0 12 3 12 12 3 7 -7 18
-12 25 -12 17 0 17 26 -1 33 -14 6 -28 64 -16 69 4 2 10 49 13 106 5 77 3 102
-6 101 -7 -1 -22 -4 -34 -6z m-13 -270 c0 -12 -58 -111 -69 -117 -12 -8 14 91
29 110 13 15 40 19 40 7z"/>
<path d="M5340 5494 c0 -9 5 -14 12 -12 18 6 21 28 4 28 -9 0 -16 -7 -16 -16z"/>
<path d="M4414 5412 c-23 -48 -52 -123 -64 -167 -12 -44 -28 -84 -36 -90 -7
-5 -16 -26 -19 -46 l-7 -36 56 -2 c51 -1 59 2 95 34 43 39 66 92 57 129 -8 32
-38 38 -81 16 -19 -10 -35 -17 -35 -16 0 20 40 126 66 175 36 68 42 91 22 91
-7 0 -32 -39 -54 -88z m56 -192 c0 -29 -33 -82 -62 -100 -31 -19 -68 -27 -68
-14 0 15 54 96 73 109 25 17 57 20 57 5z"/>
<path d="M5179 5313 c-38 -74 -51 -90 -77 -98 -38 -11 -43 -35 -8 -35 l24 0
-15 -49 c-19 -59 -12 -98 21 -107 24 -6 86 19 86 35 0 18 -14 19 -42 5 -46
-24 -55 -7 -34 64 l18 59 56 9 c72 12 81 33 12 29 -27 -2 -50 0 -50 3 0 3 16
33 35 68 33 59 45 104 27 104 -4 0 -28 -39 -53 -87z"/>
<path d="M2716 5378 c-3 -7 -12 -51 -22 -98 -17 -88 -24 -100 -61 -100 -14 0
-23 -6 -23 -15 0 -9 9 -15 25 -15 31 0 32 -18 5 -62 -23 -39 -25 -58 -6 -58 7
0 24 26 37 58 13 31 30 62 38 68 8 6 11 16 7 22 -4 7 1 53 10 104 9 51 17 95
16 98 -2 11 -22 10 -26 -2z"/>
<path d="M5590 5366 c0 -8 11 -17 25 -20 15 -4 22 -11 19 -20 -3 -8 -1 -17 5
-21 6 -3 11 -23 11 -44 0 -36 -3 -40 -60 -70 -35 -19 -60 -39 -60 -48 0 -14
10 -15 65 -10 72 7 71 8 77 -72 3 -37 28 -57 28 -22 0 11 7 39 16 61 18 45 43
56 98 46 48 -9 52 6 11 50 -19 20 -35 40 -35 43 0 4 18 25 40 46 36 35 51 65
34 65 -4 0 -33 -16 -66 -36 l-60 -37 -52 52 c-50 50 -96 67 -96 37z m110 -107
c0 -5 -4 -9 -10 -9 -5 0 -10 7 -10 16 0 8 5 12 10 9 6 -3 10 -10 10 -16z m40
-34 c0 -16 -26 -55 -37 -55 -16 0 -17 32 -1 48 12 12 38 17 38 7z m50 -35 c12
-8 11 -10 -7 -10 -13 0 -23 5 -23 10 0 13 11 13 30 0z m-130 -10 c0 -5 -8 -10
-17 -10 -15 0 -16 2 -3 10 19 12 20 12 20 0z"/>
<path d="M2925 5277 c-29 -89 -31 -92 -63 -97 -41 -6 -47 -24 -10 -28 27 -3
28 -4 13 -32 -17 -32 -20 -70 -6 -70 5 0 21 24 34 54 23 50 28 54 68 61 24 4
52 11 62 17 25 13 21 31 -5 25 -13 -3 -37 -8 -55 -12 l-32 -6 21 63 c11 35 27
70 34 79 11 12 11 18 2 27 -23 23 -33 10 -63 -81z"/>
<path d="M4650 5306 c0 -14 29 -31 38 -22 2 3 2 12 -1 21 -8 19 -37 20 -37 1z"/>
<path d="M2514 5299 c-9 -16 12 -33 31 -25 14 5 15 9 5 21 -15 18 -26 19 -36
4z"/>
<path d="M3150 5296 c0 -21 21 -31 30 -15 5 7 6 17 4 21 -9 14 -34 9 -34 -6z"/>
<path d="M1980 5242 c-24 -13 -44 -36 -62 -72 -33 -64 -35 -103 -7 -131 17
-17 28 -20 57 -14 48 9 99 44 81 56 -8 5 -23 2 -37 -7 -34 -23 -86 -15 -90 14
-3 17 1 22 20 22 33 0 85 34 103 69 20 40 19 58 -4 71 -25 13 -20 13 -61 -8z
m41 -39 c-20 -34 -36 -50 -57 -57 -18 -6 -21 -3 -20 23 1 16 4 27 7 25 3 -2
15 3 25 11 10 8 27 15 37 15 14 0 16 -4 8 -17z"/>
<path d="M4745 5218 c-43 -25 -75 -72 -75 -110 0 -34 4 -40 34 -54 36 -18 86
-10 94 15 3 10 -4 12 -29 9 -42 -7 -69 6 -69 33 0 11 4 18 10 14 16 -10 78 22
85 44 8 26 -2 61 -18 61 -7 0 -21 -6 -32 -12z m25 -33 c0 -2 -10 -10 -22 -16
-21 -11 -22 -11 -9 4 13 16 31 23 31 12z"/>
<path d="M4153 5198 c-41 -46 -55 -76 -48 -107 12 -58 69 -49 100 15 13 28 15
42 6 60 -6 15 -7 24 -1 24 6 0 10 7 10 15 0 23 -44 18 -67 -7z m8 -102 l-21
-20 0 28 c0 16 8 38 18 49 17 19 17 19 20 -8 2 -18 -4 -35 -17 -49z"/>
<path d="M4587 5213 c-4 -3 -7 -25 -7 -47 0 -92 -48 -198 -102 -227 -18 -10
-24 -8 -39 12 -15 21 -19 22 -24 7 -10 -24 12 -58 38 -58 44 0 86 39 122 115
45 94 53 240 12 198z"/>
<path d="M2157 5127 c-15 -46 -27 -86 -27 -90 0 -20 30 -2 58 35 31 40 32 40
32 15 0 -43 19 -42 65 3 l43 43 -5 -42 c-4 -31 -2 -41 9 -41 9 0 18 20 26 56
18 88 5 95 -65 32 -31 -29 -44 -36 -39 -23 4 11 10 32 13 48 8 37 -18 36 -49
-3 -18 -23 -26 -27 -38 -19 -13 9 -12 10 3 5 10 -3 17 0 17 7 0 7 3 22 6 35 4
15 2 22 -8 22 -9 0 -24 -31 -41 -83z"/>
<path d="M3211 5173 c-50 -51 -84 -101 -76 -113 11 -18 23 -10 49 34 14 25 40
55 57 67 l31 21 -5 -33 c-2 -19 -7 -42 -12 -52 -4 -11 -3 -23 3 -29 9 -9 16
-2 27 25 26 63 16 117 -23 117 -7 0 -30 -17 -51 -37z"/>
<path d="M3447 5155 c-21 -25 -43 -45 -49 -45 -7 0 0 13 15 28 25 26 27 42 5
42 -15 0 -89 -82 -85 -94 7 -23 53 -17 97 13 l45 30 3 -47 c2 -26 -1 -70 -8
-99 l-11 -52 -52 1 c-92 2 -157 -50 -157 -127 0 -53 25 -87 64 -87 36 0 96 58
133 128 26 49 30 53 68 56 48 4 53 22 7 26 -30 3 -33 6 -27 25 4 12 10 73 12
135 6 131 -1 138 -60 67z m-26 -294 c-58 -113 -141 -147 -141 -57 1 57 48 95
118 96 l42 0 -19 -39z"/>
<path d="M4912 5170 c-46 -35 -58 -60 -42 -89 14 -28 42 -41 84 -41 25 0 36 4
36 15 0 10 -10 15 -33 15 -20 0 -41 8 -50 18 -16 17 -15 20 11 44 15 14 35 28
45 31 20 7 23 37 4 37 -7 0 -32 -14 -55 -30z"/>
<path d="M2748 5183 c-18 -5 -25 -33 -9 -33 23 0 62 21 56 30 -6 10 -17 11
-47 3z"/>
<path d="M2476 5169 c-22 -68 -27 -90 -21 -99 12 -19 33 8 40 52 4 24 3 44 -4
51 -7 7 -12 6 -15 -4z"/>
<path d="M3086 5161 c-4 -6 -4 -15 -1 -21 3 -5 2 -10 -4 -10 -12 0 -41 -52
-41 -75 0 -32 22 -13 47 41 17 37 22 59 15 66 -6 6 -12 6 -16 -1z"/>
<path d="M5316 5081 c-12 -13 -14 -21 -6 -26 16 -10 40 2 40 19 0 24 -16 27
-34 7z"/>
<path d="M4153 4620 c-45 -33 -81 -104 -108 -212 -16 -64 -18 -66 -53 -72 -56
-10 -92 -27 -92 -43 0 -11 6 -13 23 -8 41 12 91 24 94 21 1 -1 -4 -25 -11 -53
-21 -78 -59 -154 -96 -191 -24 -25 -30 -36 -21 -45 28 -28 112 104 147 231 15
55 19 60 52 68 50 13 56 38 8 32 -20 -2 -36 -2 -36 0 0 3 10 37 21 76 26 88
49 134 83 166 23 20 30 22 46 12 24 -15 35 0 20 28 -14 27 -29 25 -77 -10z"/>
<path d="M7930 4606 c-15 -19 -57 -170 -65 -239 -6 -50 -9 -54 -31 -49 -31 6
-101 -40 -115 -74 -14 -38 8 -78 45 -82 71 -8 105 46 135 218 24 137 48 210
67 210 8 0 14 7 14 15 0 19 -34 20 -50 1z m-85 -327 c4 -5 -5 -28 -20 -50 -19
-30 -32 -39 -48 -37 -35 5 -33 41 3 72 33 28 55 33 65 15z"/>
<path d="M2237 4583 c-4 -3 -7 -18 -7 -33 0 -26 -52 -186 -104 -323 -29 -77
-32 -97 -13 -97 20 0 51 37 38 44 -7 5 -3 25 10 59 87 219 127 401 76 350z"/>
<path d="M2727 4573 c-2 -5 -14 -50 -27 -100 l-24 -93 -43 0 c-32 0 -43 -4
-43 -15 0 -10 11 -15 35 -15 19 0 35 -2 35 -5 0 -3 -11 -32 -25 -65 -26 -62
-32 -104 -14 -98 5 2 24 39 42 83 31 76 34 80 70 87 50 10 81 28 70 39 -5 5
-24 4 -46 -3 -20 -6 -39 -9 -42 -6 -3 3 3 39 15 79 22 80 25 119 11 119 -6 0
-12 -3 -14 -7z"/>
<path d="M7342 4548 c-6 -18 -18 -69 -28 -113 -21 -102 -51 -164 -94 -193 -41
-27 -50 -15 -21 26 11 16 17 32 14 36 -4 4 0 4 9 1 9 -4 19 -2 23 4 3 6 -2 14
-11 18 -13 5 -27 -4 -51 -32 -36 -41 -42 -75 -18 -95 31 -26 119 40 147 109
12 31 59 217 61 245 3 33 -21 28 -31 -6z"/>
<path d="M10087 4552 c-3 -15 -27 -60 -53 -99 -42 -64 -52 -73 -86 -78 -25 -4
-38 -12 -38 -22 0 -11 7 -14 25 -11 14 3 25 5 25 4 0 0 -11 -23 -25 -50 -30
-60 -31 -80 -4 -107 26 -26 102 -24 107 3 3 14 -3 16 -30 12 -20 -3 -40 0 -52
9 -18 13 -18 15 3 62 27 62 49 86 75 84 37 -2 48 1 44 13 -3 7 -14 15 -27 18
l-22 5 27 35 c33 44 75 131 68 142 -11 18 -32 7 -37 -20z"/>
<path d="M10206 4442 c-37 -75 -81 -159 -98 -185 -22 -35 -28 -51 -20 -59 8
-8 27 3 67 41 32 28 65 56 76 61 17 10 17 8 4 -25 -20 -45 -19 -85 0 -85 8 0
15 9 15 20 0 10 9 42 20 69 16 42 17 51 5 61 -10 9 -21 8 -44 -4 -16 -9 -33
-20 -36 -26 -3 -5 -10 -10 -16 -10 -5 0 18 54 51 120 33 66 60 126 60 134 0
43 -24 12 -84 -112z"/>
<path d="M4860 4555 c0 -8 -19 -51 -42 -96 l-43 -80 -47 4 c-32 3 -52 0 -59
-9 -9 -10 -8 -15 3 -19 8 -3 19 -5 24 -4 5 1 21 1 36 0 l28 -1 -20 -50 c-24
-62 -25 -84 -4 -105 22 -21 40 -5 24 21 -9 15 -7 30 10 74 25 62 33 70 77 70
41 0 63 9 63 25 0 9 -13 11 -45 7 -25 -2 -45 -1 -45 3 0 5 18 41 40 81 46 83
48 94 20 94 -11 0 -20 -7 -20 -15z"/>
<path d="M13014 4544 c-3 -11 -22 -54 -41 -96 l-37 -77 -44 -3 c-59 -4 -70
-28 -13 -28 l40 0 -25 -55 c-14 -30 -24 -65 -22 -77 4 -28 28 -36 28 -9 0 12
13 51 29 86 24 53 34 65 53 65 40 0 68 12 68 27 0 12 -8 14 -35 9 -19 -4 -35
-4 -35 -1 0 3 11 28 25 56 42 82 46 96 30 109 -12 10 -16 9 -21 -6z"/>
<path d="M13652 4536 c-21 -27 -42 -80 -67 -169 -13 -47 -19 -56 -30 -47 -33
28 -125 -37 -125 -88 0 -29 32 -68 47 -59 5 3 15 2 23 -3 36 -22 77 42 109
168 11 43 28 96 37 118 18 45 53 86 65 78 5 -3 9 -1 9 4 0 10 -23 22 -40 22
-5 0 -17 -11 -28 -24z m-108 -299 c-19 -39 -44 -51 -70 -33 -24 18 -14 47 25
73 30 20 37 21 48 10 12 -12 12 -19 -3 -50z"/>
<path d="M13110 4428 c-74 -130 -99 -193 -81 -211 10 -10 25 -2 90 50 l34 28
-9 -25 c-12 -35 -11 -82 1 -87 13 -4 40 111 30 126 -11 19 -39 12 -79 -21 -37
-30 -38 -31 -31 -7 4 13 38 75 76 138 63 104 73 131 49 131 -5 0 -41 -55 -80
-122z"/>
<path d="M7493 4533 c-7 -3 -13 -16 -13 -29 0 -14 -7 -56 -16 -95 -15 -65 -17
-69 -44 -69 -63 0 -121 -90 -84 -132 24 -26 41 -23 75 15 43 46 66 101 90 207
19 90 18 112 -8 103z m-63 -231 c0 -5 -15 -26 -33 -47 -27 -32 -35 -36 -40
-22 -4 10 4 28 19 47 24 28 54 40 54 22z"/>
<path d="M11584 4445 c-57 -57 -104 -141 -104 -188 0 -52 25 -94 64 -107 36
-11 76 -6 76 10 0 15 -19 21 -37 12 -24 -14 -62 25 -70 70 -8 52 25 114 98
185 32 32 59 61 59 66 0 21 -38 1 -86 -48z"/>
<path d="M11886 4491 c-4 -6 3 -24 16 -41 17 -23 23 -48 26 -98 7 -124 -28
-196 -93 -191 -39 4 -57 -8 -35 -21 23 -15 73 -12 98 6 76 53 88 263 19 332
-16 15 -27 20 -31 13z"/>
<path d="M2360 4435 c-10 -12 -9 -16 5 -21 19 -8 40 9 31 25 -10 15 -21 14
-36 -4z"/>
<path d="M4995 4430 c-8 -13 4 -32 15 -25 5 3 13 -2 18 -11 12 -22 26 -1 17
26 -7 21 -39 27 -50 10z"/>
<path d="M8975 4431 c-10 -17 15 -45 29 -31 7 7 5 15 -6 26 -11 11 -18 13 -23
5z"/>
<path d="M3248 4385 c-67 -45 -100 -187 -51 -222 23 -17 68 -16 103 2 35 18
41 40 8 31 -66 -19 -86 -19 -98 3 -19 37 -4 78 36 91 42 14 76 56 72 89 -4 35
-26 36 -70 6z m22 -40 c-13 -14 -28 -25 -33 -25 -6 0 0 11 13 25 13 14 28 25
33 25 6 0 0 -11 -13 -25z"/>
<path d="M6339 4395 c-29 -16 -84 -95 -94 -136 -12 -49 14 -41 41 13 34 68 62
98 90 98 31 0 39 17 15 29 -24 13 -20 13 -52 -4z"/>
<path d="M5584 4375 c-16 -25 -16 -82 1 -132 9 -29 -17 -41 -51 -23 -18 10
-27 11 -36 2 -8 -8 -2 -16 23 -31 44 -27 55 -26 85 4 24 24 24 26 9 61 -16 38
-19 72 -9 98 8 20 24 21 24 1 0 -20 26 -19 34 1 17 44 -53 60 -80 19z"/>
<path d="M6128 4340 c-67 -70 -60 -120 14 -92 26 10 30 8 38 -14 15 -38 30
-28 30 19 1 23 7 53 15 67 18 32 18 35 -1 54 -25 26 -45 19 -96 -34z m65 3
c-12 -36 -73 -88 -73 -64 0 10 66 81 75 81 2 0 2 -8 -2 -17z"/>
<path d="M2445 4356 c-32 -32 -32 -59 0 -84 30 -24 32 -47 6 -62 -33 -17 -51
-12 -51 15 0 28 -12 32 -30 10 -10 -12 -10 -21 -2 -40 10 -20 19 -25 51 -25
32 0 44 6 65 31 14 17 26 35 26 39 0 5 -13 24 -29 43 -35 40 -28 62 21 62 45
0 46 29 1 33 -24 2 -39 -3 -58 -22z"/>
<path d="M3061 4343 c-35 -35 -39 -36 -38 -16 4 44 -18 23 -46 -44 -26 -65
-29 -93 -8 -93 6 0 17 12 25 28 22 40 108 129 113 116 2 -7 -5 -39 -16 -72
-21 -62 -20 -92 5 -92 9 0 14 11 14 30 0 16 7 47 16 69 20 50 15 105 -9 109
-10 2 -34 -12 -56 -35z"/>
<path d="M12330 4355 c-5 -14 -10 -30 -10 -34 0 -5 -16 -30 -36 -56 -29 -37
-34 -49 -23 -56 9 -5 34 13 83 61 39 38 72 67 74 65 3 -2 -5 -22 -16 -44 -33
-63 -4 -71 59 -14 l41 37 -7 -36 c-7 -38 14 -72 43 -66 24 5 25 25 2 31 -15 4
-20 11 -17 24 18 61 18 83 2 89 -10 4 -27 -4 -47 -22 l-30 -29 2 25 c5 57 -9
65 -53 30 -31 -24 -39 -25 -35 -4 5 28 -21 27 -32 -1z"/>
<path d="M12664 4348 c-70 -55 -78 -129 -16 -155 40 -17 113 -13 137 7 25 21
8 27 -42 17 -66 -13 -106 3 -101 39 2 21 9 28 31 30 47 5 79 31 75 62 -4 39
-35 38 -84 0z m56 -12 c0 -2 -7 -7 -16 -10 -8 -3 -12 -2 -9 4 6 10 25 14 25 6z"/>
<path d="M3466 4349 c-17 -13 -26 -16 -24 -7 2 7 -4 13 -12 13 -10 0 -18 -20
-27 -70 -15 -89 -15 -95 -3 -95 6 0 20 21 31 48 28 65 56 93 86 86 29 -8 32
20 4 36 -25 13 -24 13 -55 -11z"/>
<path d="M6452 4353 c-45 -22 -78 -87 -63 -125 5 -15 22 -35 36 -44 22 -14 32
-15 65 -5 41 12 55 25 45 40 -3 6 -20 4 -40 -5 -26 -11 -41 -12 -55 -4 -27 14
-26 50 1 50 11 0 17 4 14 10 -3 5 0 7 8 4 19 -7 69 45 65 70 -4 27 -34 31 -76
9z m25 -38 c-32 -28 -57 -34 -36 -9 12 14 44 32 59 33 3 0 -8 -11 -23 -24z"/>
<path d="M8776 4360 c-32 -10 -66 -38 -66 -54 0 -6 9 -28 20 -49 11 -20 20
-39 20 -41 0 -9 -61 -25 -75 -20 -10 4 -15 0 -15 -10 0 -26 27 -30 74 -12 51
20 60 34 41 67 -40 70 -38 78 22 88 24 4 38 12 38 21 0 18 -21 21 -59 10z"/>
<path d="M11042 4354 c-12 -8 -32 -34 -43 -56 -17 -34 -19 -45 -9 -68 18 -44
59 -45 114 -5 32 24 46 88 27 124 -14 25 -56 28 -89 5z m68 -49 c0 -33 -37
-75 -66 -75 -18 0 -24 5 -24 20 0 27 26 77 42 82 25 9 48 -4 48 -27z"/>
<path d="M11277 4345 c-42 -22 -44 -22 -40 -4 4 13 0 19 -11 19 -9 0 -16 -5
-16 -11 0 -5 -11 -27 -25 -47 -51 -75 -24 -82 59 -17 68 53 82 56 61 15 -21
-41 -19 -77 5 -85 21 -7 40 0 40 16 0 5 -7 9 -15 9 -19 0 -19 17 0 50 19 32
19 66 1 73 -8 3 -35 -5 -59 -18z"/>
<path d="M2808 4338 c-15 -13 -35 -40 -43 -61 -14 -33 -14 -40 0 -66 8 -16 24
-33 36 -36 28 -9 84 2 99 21 19 22 6 27 -35 13 -25 -10 -41 -10 -52 -3 -24 15
-28 34 -8 34 28 0 87 66 83 92 -4 32 -45 35 -80 6z m46 -22 c-6 -16 -54 -51
-54 -39 0 10 42 53 51 53 5 0 6 -6 3 -14z"/>
<path d="M5307 4329 c-34 -28 -37 -29 -37 -10 0 12 -6 21 -15 21 -8 0 -15 -7
-15 -15 0 -9 -6 -26 -14 -38 -48 -77 -14 -91 54 -22 24 25 47 45 51 45 4 0 0
-18 -8 -39 -17 -42 -13 -68 11 -77 20 -8 156 55 156 72 0 20 -10 18 -81 -16
-35 -16 -65 -28 -66 -26 -2 2 7 31 20 64 14 33 22 63 19 66 -13 13 -40 4 -75
-25z"/>
<path d="M10402 4344 c-46 -19 -73 -68 -65 -119 7 -52 19 -65 55 -65 33 0 128
45 128 61 0 6 -7 8 -16 5 -15 -6 -15 -4 -3 10 7 9 -4 5 -26 -10 -63 -43 -105
-46 -105 -7 0 10 13 22 36 30 24 9 40 23 49 44 22 53 1 74 -53 51z m28 -34 c0
-12 -49 -45 -56 -37 -7 7 32 47 46 47 6 0 10 -4 10 -10z"/>
<path d="M5079 4345 c-1 -5 -1 -14 0 -18 1 -5 -14 -26 -34 -48 -36 -40 -44
-76 -23 -97 19 -19 44 -14 77 14 40 34 43 89 6 131 -13 15 -25 24 -26 18z m1
-127 c-46 -37 -56 -10 -12 35 27 28 27 28 30 6 3 -15 -4 -30 -18 -41z"/>
<path d="M6997 4320 c-19 -16 -40 -44 -47 -61 -12 -27 -11 -33 9 -52 l22 -22
41 23 c38 20 43 21 59 6 26 -23 36 -11 33 38 -2 24 -3 50 -3 59 -1 16 -40 39
-66 39 -8 0 -30 -13 -48 -30z m76 -14 c17 -13 16 -16 -15 -39 -44 -33 -74 -48
-81 -40 -10 9 20 60 45 77 27 19 28 19 51 2z"/>
<path d="M7513 4330 c-39 -23 -53 -48 -53 -92 0 -39 7 -51 38 -67 42 -22 197
36 178 67 -3 5 -28 -2 -56 -15 -60 -29 -123 -29 -128 0 -7 34 8 67 38 82 33
17 50 19 50 6 0 -5 -13 -14 -30 -20 -29 -10 -42 -41 -17 -41 21 0 77 39 77 54
0 49 -41 60 -97 26z"/>
<path d="M8479 4266 c-46 -47 -90 -86 -96 -86 -7 0 -13 -7 -13 -15 0 -25 34
-17 65 15 34 36 37 36 50 8 14 -32 39 -33 79 -3 29 22 34 23 40 9 7 -18 33
-13 28 6 -2 7 4 30 13 52 18 46 18 48 3 48 -6 0 -30 -20 -54 -44 -23 -24 -51
-49 -63 -55 -35 -19 -27 29 15 83 24 31 33 51 27 57 -7 7 -40 -20 -94 -75z"/>
<path d="M4372 4328 c-7 -7 -24 -12 -39 -13 -20 0 -27 -6 -30 -24 -2 -13 -12
-39 -23 -56 -37 -60 -12 -80 27 -22 29 42 91 102 98 95 4 -3 -1 -23 -9 -43
-19 -45 -20 -75 -3 -75 6 0 21 27 31 60 16 48 17 62 6 75 -15 18 -41 20 -58 3z"/>
<path d="M9206 4319 c-35 -28 -59 -76 -52 -105 9 -33 42 -49 72 -35 28 13 28
18 8 -91 l-16 -88 -39 0 c-48 0 -70 -29 -77 -101 -5 -53 8 -79 39 -79 23 0 75
69 84 111 6 28 8 29 58 27 40 -2 52 0 52 12 0 9 -13 15 -39 17 -21 1 -40 4
-43 7 -3 2 5 53 17 112 15 78 28 115 46 136 26 31 41 75 30 86 -12 11 -40 -14
-61 -54 -23 -44 -30 -52 -63 -60 -61 -16 -39 66 24 92 19 8 32 19 29 24 -10
16 -41 11 -69 -11z m-12 -386 c-20 -47 -44 -83 -55 -83 -15 0 -10 74 7 98 8
12 26 22 39 22 24 0 24 0 9 -37z"/>
<path d="M9024 4311 c-32 -20 -74 -71 -74 -90 0 -22 24 -10 64 34 57 61 69 59
61 -10 -6 -46 -5 -55 8 -55 11 0 17 15 22 49 12 90 -14 113 -81 72z"/>
<path d="M4496 4299 c-29 -22 -56 -68 -56 -94 0 -47 82 -81 131 -54 28 14 13
31 -22 24 -108 -24 -96 84 14 119 10 3 15 10 12 16 -10 17 -51 11 -79 -11z"/>
<path d="M8871 4274 c-24 -54 -26 -74 -8 -74 7 0 21 22 31 50 20 57 21 63 7
68 -5 2 -19 -18 -30 -44z"/>
<path d="M13282 4307 c-60 -34 -66 -97 -11 -116 36 -13 73 1 95 34 12 18 10
25 -13 58 -28 40 -36 43 -71 24z m58 -63 c0 -22 -63 -34 -75 -13 -4 5 1 19 10
29 14 15 21 17 41 8 13 -6 24 -17 24 -24z"/>
<path d="M4125 4266 c-20 -52 -9 -86 29 -86 32 0 98 80 89 108 -8 22 -22 13
-43 -27 -22 -45 -37 -58 -51 -44 -5 5 -1 25 11 48 24 48 24 45 1 45 -14 0 -24
-13 -36 -44z"/>
<path d="M4926 4246 c-26 -44 -34 -86 -17 -86 5 0 19 19 31 43 12 23 28 47 37
54 8 6 12 16 8 22 -13 22 -34 10 -59 -33z"/>
<path d="M2255 4246 c-18 -44 -19 -76 -2 -76 7 0 18 20 25 45 15 58 15 59 3
63 -6 2 -18 -12 -26 -32z"/>
<path d="M13683 4223 c-7 -2 -13 -11 -13 -20 0 -20 34 -12 38 10 3 17 -3 20
-25 10z"/>
<path d="M2198 3880 c-9 -6 -33 -33 -53 -61 l-37 -51 41 -39 c45 -43 81 -50
131 -24 33 17 43 53 13 40 -67 -28 -72 -29 -100 -16 -26 12 -27 14 -9 25 66
40 80 70 56 117 -12 21 -18 23 -42 9z m3 -73 c-29 -30 -39 -12 -10 19 14 15
25 20 27 14 3 -7 -5 -21 -17 -33z"/>
<path d="M2534 3847 c-3 -8 -11 -14 -18 -14 -29 0 -76 -26 -82 -45 -4 -12 0
-26 9 -35 13 -14 18 -14 45 0 38 19 42 12 42 -83 l0 -69 -35 6 c-21 3 -41 1
-50 -7 -39 -32 6 -135 60 -135 26 0 30 5 45 55 12 42 14 79 10 160 -4 58 -3
115 1 127 14 37 -13 76 -27 40z m-26 -276 c16 -10 12 -73 -5 -78 -15 -5 -46
54 -39 73 6 16 24 18 44 5z"/>
<path d="M2701 3751 c-8 -5 -11 -16 -8 -25 5 -14 11 -15 27 -6 21 11 23 31 4
37 -5 1 -15 -1 -23 -6z"/>
<path d="M2363 3743 c-15 -5 -18 -33 -4 -33 21 0 41 13 41 26 0 14 -14 17 -37
7z"/>
<path d="M6062 3663 c-54 -58 -95 -128 -164 -279 -51 -115 -63 -150 -66 -204
-4 -61 -2 -67 26 -93 32 -30 108 -51 100 -27 -2 8 -17 18 -34 23 -56 18 -67
36 -61 102 3 45 20 93 65 193 72 158 110 221 164 267 22 18 37 38 33 44 -11
19 -27 12 -63 -26z"/>
<path d="M7650 3671 c0 -5 11 -27 25 -47 57 -84 79 -253 41 -323 -26 -49 -91
-115 -147 -151 -48 -32 -57 -44 -40 -54 11 -7 118 68 154 108 81 90 101 172
73 297 -19 85 -63 172 -88 177 -10 2 -18 -1 -18 -7z"/>
<path d="M3665 3613 c-5 -28 -29 -101 -67 -203 -25 -67 -30 -165 -9 -165 10 0
15 15 16 55 1 34 12 80 29 120 43 102 66 171 66 197 0 33 -28 29 -35 -4z"/>
<path d="M6301 3608 c-5 -13 -19 -34 -31 -46 -16 -17 -19 -27 -11 -35 8 -8 16
-5 32 9 27 24 52 72 44 84 -10 17 -25 11 -34 -12z"/>
<path d="M7210 3591 c0 -33 -52 -133 -71 -138 -19 -5 -27 -33 -10 -33 5 0 1
-23 -10 -50 -10 -28 -19 -61 -19 -74 0 -31 30 -56 68 -56 32 0 37 6 26 34 -7
17 -34 22 -34 6 0 -18 -18 -11 -25 9 -3 11 4 45 17 77 20 51 27 59 61 68 46
13 53 30 15 34 l-27 3 19 50 c24 59 25 89 5 89 -8 0 -15 -8 -15 -19z"/>
<path d="M5652 3528 c-28 -93 -31 -98 -78 -105 -21 -3 -45 -10 -51 -16 -22
-16 -3 -28 34 -21 35 7 36 6 28 -17 -13 -42 -11 -74 4 -74 8 0 15 9 16 20 3
46 29 80 65 85 23 3 36 11 38 23 3 16 -1 18 -26 12 l-30 -6 24 73 c28 83 29
98 11 98 -9 0 -23 -29 -35 -72z"/>
<path d="M7385 3559 c-18 -23 -23 -35 -15 -43 13 -13 76 46 66 63 -11 18 -22
13 -51 -20z"/>
<path d="M5444 3479 c-3 -6 -2 -15 2 -19 12 -12 38 5 30 19 -9 14 -23 14 -32
0z"/>
<path d="M7949 3471 c-19 -16 -22 -22 -11 -32 10 -11 16 -9 34 9 31 31 11 51
-23 23z"/>
<path d="M6592 3423 c-6 -10 -13 -34 -17 -53 -8 -38 -33 -91 -36 -75 -1 6 -2
32 -3 60 -1 39 -5 50 -19 53 -15 3 -17 -3 -12 -55 9 -86 14 -103 29 -103 21 0
55 47 66 94 18 69 19 70 34 57 19 -16 32 5 16 24 -17 20 -47 19 -58 -2z"/>
<path d="M6360 3417 c-27 -14 -67 -68 -76 -104 -10 -37 4 -73 32 -83 31 -12
94 -13 113 -1 25 16 2 28 -47 23 -55 -5 -78 12 -69 51 5 16 19 26 52 36 31 9
50 22 57 37 22 47 -10 68 -62 41z m40 -22 c0 -2 -13 -11 -30 -20 -38 -19 -40
-11 -2 9 31 17 32 18 32 11z"/>
<path d="M5082 3355 c-18 -36 -32 -70 -32 -75 0 -20 25 -9 63 28 38 37 38 37
32 10 -9 -36 9 -37 55 -3 l35 26 8 -31 c4 -16 11 -30 16 -30 10 0 20 69 13 88
-6 16 -33 15 -58 -3 -20 -13 -21 -13 -16 10 6 32 -15 33 -53 3 -27 -21 -28
-21 -16 0 15 27 14 42 -2 42 -7 0 -27 -29 -45 -65z"/>
<path d="M6714 3401 c-44 -27 -64 -59 -64 -103 0 -63 61 -84 134 -46 30 16 -4
30 -44 18 -23 -7 -38 -6 -47 1 -16 14 -17 39 -2 39 6 0 27 7 46 17 39 18 60
57 42 79 -15 19 -28 18 -65 -5z m26 -36 c-7 -8 -20 -15 -29 -15 -13 1 -13 3 3
15 26 19 42 19 26 0z"/>
<path d="M3723 3373 c-9 -21 -17 -58 -17 -83 -1 -42 1 -45 27 -48 55 -7 108
79 78 126 -7 12 -56 42 -68 42 -2 0 -11 -17 -20 -37z m62 -24 c11 -17 -3 -53
-26 -67 -29 -18 -34 -9 -20 38 11 38 33 52 46 29z"/>
<path d="M4258 3395 c-54 -30 -58 -127 -5 -140 36 -9 100 -2 105 13 2 8 -11
12 -46 12 -62 0 -90 24 -40 34 30 6 78 41 78 57 0 14 -31 39 -48 39 -9 -1 -29
-7 -44 -15z m52 -25 c0 -10 -41 -30 -58 -30 -10 1 39 40 49 40 5 0 9 -5 9 -10z"/>
<path d="M4898 3390 c-56 -43 -57 -132 -2 -146 30 -8 89 10 124 36 39 29 17
34 -46 11 -67 -26 -84 -22 -84 17 0 34 40 76 67 69 14 -3 9 -8 -20 -21 -41
-18 -45 -43 -6 -38 42 5 71 30 67 60 -3 23 -8 27 -39 30 -24 2 -43 -4 -61 -18z"/>
<path d="M4468 3381 c-13 -10 -28 -16 -35 -14 -10 4 -33 -74 -33 -112 0 -32
26 -12 44 33 26 64 35 74 62 68 26 -7 42 10 25 27 -17 17 -39 17 -63 -2z"/>
<path d="M5370 3356 c-30 -70 -35 -96 -18 -96 20 0 65 117 50 132 -8 8 -17 -1
-32 -36z"/>
<path d="M6915 3359 c-47 -43 -56 -45 -29 -5 11 18 12 26 3 32 -15 9 -47 -31
-56 -69 -3 -15 -10 -30 -14 -33 -17 -10 -9 -34 11 -34 11 0 20 4 20 8 0 5 22
28 50 51 46 39 49 40 40 16 -16 -42 -12 -73 11 -85 26 -15 69 -5 69 15 0 11
-7 14 -24 9 -34 -8 -40 9 -21 66 27 81 7 91 -60 29z"/>
<path d="M3888 3374 c-69 -37 -62 -137 8 -120 26 7 26 7 19 -40 -10 -67 -14
-74 -46 -74 -40 0 -63 -38 -56 -91 13 -101 78 -90 102 19 5 26 10 32 26 27 11
-4 19 -2 19 4 0 6 5 11 11 11 5 0 7 -4 4 -10 -3 -5 -1 -10 4 -10 23 0 9 22
-19 32 -21 7 -29 15 -26 27 3 9 12 56 21 104 15 81 15 91 0 113 -18 28 -29 29
-67 8z m42 -43 c0 -18 -34 -51 -52 -51 -14 0 -8 33 9 52 21 24 43 23 43 -1z
m-40 -228 c0 -22 -22 -83 -30 -83 -13 0 -23 38 -16 66 4 15 14 24 26 24 11 0
20 -3 20 -7z"/>
<path d="M4064 3372 c-23 -15 -35 -51 -24 -72 8 -15 21 -20 52 -20 l41 0 -6
-82 c-7 -112 -11 -120 -53 -112 -45 8 -64 -9 -64 -55 0 -43 23 -81 50 -81 19
0 55 38 65 71 4 11 14 18 27 16 28 -3 34 20 8 28 -15 5 -19 12 -14 23 4 10 8
70 10 134 l2 117 -32 21 c-36 22 -45 24 -62 12z m41 -38 c13 -5 14 -8 3 -15
-20 -13 -38 -11 -38 6 0 16 9 19 35 9z m-7 -289 c2 -2 -4 -17 -14 -34 -22 -36
-44 -26 -44 21 0 28 2 30 27 23 16 -4 30 -8 31 -10z"/>
<path d="M7934 3327 c-3 -8 -4 -18 -3 -23 5 -16 -12 -54 -24 -55 -7 -1 -16 -2
-22 -4 -5 -1 -14 -3 -19 -3 -15 -3 16 -32 34 -32 27 0 60 48 60 86 0 35 -16
55 -26 31z"/>
<path d="M4623 3275 c-3 -9 -3 -18 0 -22 10 -10 37 6 37 22 0 20 -29 20 -37 0z"/>
<path d="M5563 2809 c-127 -135 -194 -286 -194 -440 0 -50 5 -82 20 -112 24
-49 72 -90 102 -85 25 4 26 22 2 26 -27 6 -64 42 -79 79 -18 43 -18 145 1 218
30 114 82 203 172 293 46 46 83 87 83 92 0 29 -36 5 -107 -71z"/>
<path d="M8920 2805 c0 -8 -9 -23 -20 -32 -21 -18 -28 -49 -9 -37 22 13 -22
-121 -95 -288 -11 -25 -12 -39 -5 -44 15 -9 22 1 54 78 l28 67 65 3 c42 2 67
8 70 16 3 9 -11 12 -52 11 -31 -1 -59 0 -62 3 -10 10 41 157 56 164 8 3 58 5
110 5 108 -1 135 8 108 36 -14 13 -20 15 -30 5 -8 -8 -45 -12 -100 -12 -81 0
-88 2 -88 20 0 11 -7 20 -15 20 -8 0 -15 -7 -15 -15z"/>
<path d="M9782 2800 c2 -8 17 -18 33 -23 63 -21 91 -96 82 -213 -4 -41 -16
-96 -27 -123 -25 -57 -90 -124 -143 -146 -37 -15 -42 -35 -9 -35 50 0 147 93
184 176 45 103 31 289 -25 342 -28 27 -102 43 -95 22z"/>
<path d="M7010 2751 c-14 -29 -17 -42 -8 -47 7 -4 16 0 22 11 6 10 19 27 29
37 10 10 15 23 12 28 -13 21 -35 8 -55 -29z"/>
<path d="M7974 2698 c-18 -79 -21 -83 -49 -88 -18 -3 -31 -12 -33 -23 -3 -15
1 -17 22 -11 14 3 26 4 26 0 0 -3 -13 -39 -30 -81 -35 -89 -35 -85 -12 -85 12
0 22 16 35 55 38 115 43 123 87 130 26 4 40 12 40 22 0 12 -8 14 -35 10 -40
-7 -39 -9 -20 63 18 68 19 90 2 90 -9 0 -21 -31 -33 -82z"/>
<path d="M5767 2733 c-6 -16 -23 -38 -37 -50 -20 -17 -22 -24 -13 -34 10 -10
16 -9 29 2 26 21 65 89 59 99 -11 17 -25 11 -38 -17z"/>
<path d="M7567 2748 c-5 -16 -27 -82 -78 -224 -36 -103 -41 -144 -18 -144 10
0 10 0 28 73 6 26 29 92 50 146 43 109 52 152 34 158 -7 3 -15 -1 -16 -9z"/>
<path d="M3600 2715 c-5 -14 -10 -34 -10 -44 0 -19 -34 -152 -69 -272 -18 -64
-15 -99 8 -85 6 4 11 15 11 25 0 11 11 56 25 102 21 67 45 170 68 282 5 23
-24 16 -33 -8z"/>
<path d="M6754 2693 c-3 -10 -19 -46 -35 -80 -24 -53 -32 -62 -51 -60 -15 1
-23 -3 -23 -13 0 -8 7 -15 15 -15 12 0 14 -13 12 -67 -3 -56 -1 -69 16 -86 17
-17 27 -19 56 -12 42 9 71 29 59 41 -5 5 -23 4 -39 -3 -58 -22 -75 5 -58 91 5
26 11 31 34 31 38 0 137 39 144 56 7 19 -9 18 -81 -8 -34 -12 -65 -19 -70 -15
-4 5 5 30 20 57 28 50 34 84 17 95 -6 3 -13 -2 -16 -12z"/>
<path d="M7707 2634 c-9 -10 2 -24 19 -24 8 0 14 7 14 15 0 15 -21 21 -33 9z"/>
<path d="M10085 2610 c-4 -7 -3 -16 3 -22 14 -14 45 -2 40 15 -6 16 -34 21
-43 7z"/>
<path d="M8650 2584 c0 -10 -10 -43 -21 -75 -24 -65 -19 -110 7 -75 8 11 14
28 14 37 0 27 47 77 80 84 17 4 30 11 30 16 0 16 -25 20 -52 10 -20 -8 -28 -7
-32 5 -7 19 -26 18 -26 -2z"/>
<path d="M6132 2568 c-5 -7 -13 -33 -17 -58 -9 -52 -32 -103 -44 -95 -5 2 -12
22 -15 42 -11 61 -16 73 -32 73 -12 0 -14 -7 -10 -30 3 -16 9 -43 12 -59 7
-37 37 -65 61 -57 24 8 49 59 58 119 7 44 8 46 36 40 30 -6 37 5 17 25 -16 16
-53 15 -66 0z"/>
<path d="M7738 2554 c-15 -8 -32 -23 -38 -34 -9 -16 -6 -25 15 -46 14 -13 25
-32 25 -40 0 -20 -29 -29 -51 -16 -20 13 -32 2 -23 -22 11 -28 58 -24 92 7 29
27 28 45 -4 78 l-26 27 26 17 c14 10 26 24 26 31 0 17 -8 17 -42 -2z"/>
<path d="M8073 2533 c-46 -43 -59 -73 -43 -103 19 -36 112 -42 118 -6 3 16 -1
17 -35 11 -49 -8 -71 11 -48 41 8 11 15 14 15 7 0 -22 34 -14 63 13 17 15 26
32 23 41 -3 8 -6 19 -6 24 0 22 -50 6 -87 -28z m62 -3 c-3 -5 -16 -15 -28 -21
-22 -12 -22 -12 -3 10 19 21 43 30 31 11z"/>
<path d="M8452 2555 c-25 -18 -62 -85 -62 -113 0 -10 6 -27 14 -37 13 -18 18
-19 63 -7 58 16 99 40 86 53 -5 5 -31 0 -62 -12 -40 -15 -57 -17 -65 -9 -13
13 17 40 45 40 23 0 61 49 57 74 -4 27 -45 32 -76 11z m42 -29 c-6 -16 -34
-29 -43 -20 -6 6 27 34 41 34 4 0 5 -6 2 -14z"/>
<path d="M4393 2526 c-19 -25 -31 -32 -39 -25 -17 14 -21 3 -25 -61 -3 -43 -1
-55 10 -55 8 0 18 12 22 27 8 32 66 118 79 118 6 0 10 7 10 15 0 26 -28 16
-57 -19z"/>
<path d="M5835 2527 c-18 -18 -39 -52 -45 -75 -11 -36 -11 -45 5 -68 15 -24
21 -26 58 -20 70 11 117 26 117 38 0 7 -18 8 -57 3 -89 -12 -97 -11 -101 8 -2
11 3 17 13 17 25 0 75 39 86 67 11 29 -4 63 -27 63 -9 0 -31 -15 -49 -33z m45
-15 c0 -5 -11 -19 -25 -32 -29 -27 -32 -21 -9 15 16 24 34 33 34 17z"/>
<path d="M8305 2546 c-11 -8 -30 -12 -42 -10 -18 5 -26 -3 -52 -55 -16 -34
-26 -63 -20 -66 5 -4 35 19 66 51 54 53 78 60 54 15 -15 -27 -14 -51 2 -51 17
0 40 67 35 100 -4 29 -18 35 -43 16z"/>
<path d="M4186 2519 c-51 -60 -25 -149 43 -149 16 0 35 8 42 17 10 11 10 14 2
9 -7 -4 -13 -3 -13 2 0 6 -9 8 -20 5 -23 -6 -50 12 -50 33 0 8 7 14 15 14 8 0
29 13 46 28 28 25 30 31 20 50 -17 32 -54 28 -85 -9z m54 -8 c0 -12 -20 -25
-27 -18 -7 7 6 27 18 27 5 0 9 -4 9 -9z"/>
<path d="M4859 2518 c-32 -35 -47 -92 -32 -117 31 -49 123 5 123 73 0 35 -27
76 -51 76 -5 0 -23 -14 -40 -32z m57 -34 c5 -18 0 -32 -17 -50 -29 -30 -49
-31 -49 0 0 24 34 76 51 76 5 0 12 -11 15 -26z"/>
<path d="M6238 2535 c-38 -21 -71 -95 -59 -128 6 -15 21 -29 34 -32 35 -9 107
12 107 32 0 11 -6 14 -22 9 -13 -3 -29 -6 -36 -6 -7 0 -10 -4 -7 -10 4 -6 -2
-7 -16 -1 -35 13 -34 29 5 45 38 16 59 46 54 79 -4 27 -25 31 -60 12z m17 -45
c-10 -11 -23 -20 -28 -20 -6 0 -2 9 8 20 10 11 23 20 28 20 6 0 2 -9 -8 -20z"/>
<path d="M6387 2480 c-61 -117 -45 -132 44 -44 35 34 59 52 63 45 4 -6 2 -11
-3 -11 -13 0 -14 -89 -2 -109 5 -8 16 -11 26 -7 13 5 15 9 6 20 -14 16 -15 45
-6 114 6 42 5 52 -7 52 -18 0 -81 -64 -72 -73 4 -4 2 -7 -4 -7 -15 0 -15 0 3
43 13 32 12 47 -5 47 -3 0 -23 -32 -43 -70z"/>
<path d="M7620 2525 c-5 -14 -10 -32 -10 -40 0 -8 -4 -17 -10 -20 -13 -8 -13
-45 1 -45 10 0 45 70 51 104 5 30 -21 31 -32 1z"/>
<path d="M9425 2535 c-65 -33 -87 -99 -43 -129 23 -17 104 -21 125 -8 13 8 7
52 -7 52 -4 0 -13 -7 -20 -15 -22 -27 -90 -16 -90 14 0 24 44 63 66 59 13 -2
19 3 19 16 0 26 -14 29 -50 11z"/>
<path d="M5115 2528 c-11 -6 -30 -19 -41 -30 -14 -13 -24 -16 -29 -9 -12 20
-24 11 -45 -35 -39 -88 -25 -95 45 -23 74 75 81 77 77 19 -3 -41 -1 -50 18
-60 18 -9 25 -8 41 6 22 20 17 34 -12 27 -19 -5 -20 -2 -17 52 3 61 -4 72 -37
53z"/>
<path d="M9006 2521 c-4 -5 -9 -29 -12 -53 -5 -34 -2 -48 14 -68 l20 -25 36
19 c56 30 90 96 54 104 -12 2 -18 -3 -18 -16 0 -20 -39 -62 -57 -62 -18 0 -25
34 -13 65 10 27 6 45 -10 45 -5 0 -11 -4 -14 -9z"/>
<path d="M3657 2498 c-27 -43 -39 -95 -27 -118 21 -38 71 -18 110 45 19 31 20
38 8 62 -18 38 -70 44 -91 11z m63 -33 c0 -28 -44 -80 -59 -70 -11 6 2 60 20
81 19 23 39 17 39 -11z"/>
<path d="M9220 2505 c-18 -10 -27 -10 -32 -2 -10 16 -22 1 -38 -51 -17 -54 -6
-65 26 -24 14 18 39 39 56 48 l31 16 -8 -57 c-5 -46 -4 -56 7 -53 7 3 12 15
11 27 -2 13 1 20 7 16 14 -9 13 68 -2 83 -15 15 -27 15 -58 -3z"/>
<path d="M3970 2488 c-30 -33 -23 -72 13 -76 16 -2 40 4 54 13 l26 17 -7 -73
c-4 -41 -13 -101 -19 -134 -12 -58 -12 -59 -47 -60 -26 0 -38 -6 -49 -26 -13
-24 -13 -29 2 -53 22 -33 50 -33 75 -1 11 14 29 25 41 25 22 0 29 26 9 32 -9
3 -9 22 0 79 36 230 26 278 -60 279 -10 0 -27 -10 -38 -22z m54 -14 c15 -6 15
-8 -1 -20 -28 -21 -46 -18 -33 6 12 22 12 22 34 14z m-21 -330 c8 -9 -11 -44
-23 -44 -6 0 -10 11 -10 25 0 23 18 34 33 19z"/>
<path d="M3796 2449 c-15 -18 -26 -43 -26 -60 0 -24 4 -29 24 -29 14 0 28 5
31 10 18 29 19 1 2 -69 l-20 -79 -37 -6 c-42 -7 -55 -19 -65 -59 -5 -18 -2
-35 10 -53 25 -39 55 -28 90 33 24 42 35 52 56 53 28 0 67 34 50 44 -5 4 -21
1 -35 -5 -14 -7 -28 -10 -30 -8 -3 2 2 33 9 69 17 77 19 129 5 164 -13 34 -33
33 -64 -5z m34 -28 c-10 -21 -30 -37 -30 -26 0 14 21 45 31 45 6 0 6 -7 -1
-19z m-44 -259 c-8 -16 -21 -34 -29 -40 -12 -10 -16 -8 -20 9 -6 23 23 59 48
59 14 0 14 -3 1 -28z"/>
<path d="M10070 2453 c0 -19 -13 -39 -45 -68 -40 -38 -47 -55 -24 -55 18 0 83
67 96 98 15 35 11 52 -13 52 -9 0 -14 -10 -14 -27z"/>
<path d="M4564 2404 c-13 -18 -14 -28 -6 -36 15 -15 52 17 52 44 0 26 -27 22
-46 -8z"/>
<path d="M7053 2369 c7 -27 -72 -117 -84 -97 -11 18 -34 -5 -26 -26 12 -29 44
-16 96 38 56 60 69 106 30 106 -17 0 -20 -5 -16 -21z"/>
<path d="M6048 1947 c-53 -40 -91 -108 -127 -229 l-27 -93 -55 -5 c-65 -6 -68
-24 -4 -28 25 -2 45 -8 45 -14 0 -26 -34 -138 -56 -185 -17 -36 -29 -50 -39
-46 -10 3 -15 -1 -15 -11 0 -25 29 -31 50 -10 25 26 66 126 81 202 l13 62 42
0 c52 0 74 8 74 26 0 10 -12 12 -50 7 -27 -3 -50 -2 -50 3 1 23 50 175 70 214
30 58 79 103 97 88 19 -16 33 2 22 30 -11 29 -19 28 -71 -11z"/>
<path d="M3245 1888 c-2 -7 -3 -20 -2 -28 1 -8 -11 -59 -27 -112 l-29 -98 -48
0 c-47 0 -70 -13 -52 -31 5 -5 22 -5 41 1 44 12 48 -1 22 -75 -11 -32 -16 -63
-12 -67 12 -12 27 9 41 57 25 82 33 95 56 95 24 0 35 16 28 38 -3 6 -11 12
-19 12 -19 0 -18 4 11 91 14 41 24 85 23 98 -3 27 -25 40 -33 19z"/>
<path d="M2156 1878 c-43 -144 -80 -247 -102 -285 l-28 -47 -20 45 c-12 27
-21 74 -23 124 -5 102 -10 125 -27 125 -16 0 -51 -71 -61 -122 -4 -19 -22 -66
-40 -104 -21 -44 -30 -73 -24 -79 22 -22 59 51 97 190 l17 60 6 -81 c4 -55 14
-98 32 -137 25 -56 45 -69 65 -44 23 28 73 138 98 219 15 48 32 84 37 81 4 -3
7 10 5 28 -3 33 -25 52 -32 27z"/>
<path d="M10971 1850 c-32 -44 -51 -104 -58 -188 -4 -51 -9 -69 -15 -58 -15
26 -41 19 -81 -22 -61 -62 -44 -122 33 -122 26 0 48 8 66 24 27 22 28 27 29
127 1 119 16 182 51 214 26 24 32 55 11 55 -7 0 -23 -14 -36 -30z m-88 -282
c4 -10 8 -9 16 2 8 12 11 8 11 -17 0 -42 -24 -65 -64 -61 -38 4 -44 25 -16 61
23 29 45 35 53 15z"/>
<path d="M12654 1857 c-3 -10 -4 -20 -1 -23 3 -3 -23 -45 -57 -92 -53 -74 -67
-87 -94 -90 -35 -4 -46 -32 -13 -32 19 0 19 -1 0 -40 -44 -91 -12 -147 76
-138 49 6 82 25 66 41 -5 5 -17 5 -29 -2 -23 -12 -62 -14 -86 -5 -20 8 -20 41
-1 87 24 58 39 67 97 60 40 -5 50 -3 46 7 -2 8 -21 18 -42 24 l-38 11 56 78
c31 43 56 82 56 86 0 4 -6 16 -14 27 -14 18 -15 18 -22 1z"/>
<path d="M3361 1833 c2 -16 -2 -38 -9 -50 -7 -12 -12 -30 -12 -41 0 -10 -23
-62 -51 -116 -62 -118 -56 -144 16 -70 44 45 48 47 55 28 10 -24 2 -74 -12
-74 -5 0 -8 -10 -6 -22 6 -44 32 -25 47 34 13 51 13 58 -3 83 -14 21 -23 25
-41 21 l-24 -6 21 47 c44 100 60 193 32 193 -11 0 -15 -8 -13 -27z"/>
<path d="M4656 1832 c-8 -15 -21 -52 -30 -83 -15 -52 -19 -57 -56 -68 -40 -12
-51 -25 -27 -34 6 -2 23 0 35 5 18 6 22 5 19 -4 -36 -89 -58 -171 -49 -180 13
-13 17 -3 60 117 27 76 30 80 63 85 27 4 34 10 35 28 2 29 -25 41 -41 19 -7
-10 -15 -17 -18 -17 -8 0 22 91 39 117 15 23 12 43 -6 43 -5 0 -16 -12 -24
-28z"/>
<path d="M14216 1838 c-2 -7 -12 -42 -21 -78 -9 -36 -41 -111 -71 -167 -32
-61 -50 -104 -44 -108 6 -4 36 17 67 45 30 28 58 49 60 46 3 -2 -5 -30 -16
-62 -21 -54 -17 -92 6 -62 16 22 43 102 43 131 0 22 -5 27 -24 27 -14 0 -28
-4 -31 -10 -3 -5 -11 -10 -16 -10 -5 0 -1 17 10 38 24 48 61 167 61 198 0 25
-18 33 -24 12z"/>
<path d="M6643 1750 l-41 -90 -41 0 c-23 0 -41 -5 -41 -11 0 -5 -5 -7 -12 -3
-7 4 -8 3 -4 -4 4 -7 25 -12 46 -12 l39 0 -24 -52 c-27 -58 -31 -98 -13 -116
15 -15 51 -15 66 0 21 21 13 30 -19 23 -31 -7 -32 -6 -26 21 3 16 15 50 27 77
20 46 22 47 64 47 31 0 46 5 50 16 10 25 7 34 -9 34 -8 0 -15 -4 -15 -9 0 -12
-39 -21 -45 -11 -6 10 55 150 66 150 5 0 9 7 9 15 0 8 -8 15 -18 15 -13 0 -30
-25 -59 -90z"/>
<path d="M8596 1763 c-16 -43 -34 -87 -41 -98 -16 -27 -85 -184 -85 -194 0 -4
15 -16 34 -26 73 -39 158 24 160 118 1 57 -22 69 -74 39 -22 -12 -40 -20 -40
-17 0 3 11 28 25 55 14 27 34 74 45 104 12 30 27 60 35 66 18 15 11 30 -13 30
-12 0 -26 -22 -46 -77z m44 -197 c0 -54 -82 -128 -111 -99 -18 18 0 51 48 88
54 41 63 43 63 11z"/>
<path d="M14103 1828 c-5 -7 -10 -23 -11 -36 0 -13 -15 -54 -33 -93 -34 -73
-38 -76 -114 -81 -27 -2 -40 -8 -40 -18 0 -11 11 -14 48 -11 26 1 47 -2 47 -7
0 -5 -11 -35 -25 -66 -14 -31 -25 -63 -25 -71 0 -29 26 -14 39 23 37 100 56
132 79 132 17 0 22 5 20 18 -2 9 -9 16 -15 15 -6 -1 7 39 28 89 37 85 43 118
21 118 -5 0 -14 -6 -19 -12z"/>
<path d="M4190 1788 c-12 -49 -26 -89 -71 -211 -24 -63 -30 -90 -22 -98 16
-16 33 -2 33 26 0 13 9 44 19 69 35 81 83 235 76 246 -12 20 -24 9 -35 -32z"/>
<path d="M10469 1745 c-40 -81 -44 -85 -76 -85 -23 0 -33 -5 -33 -15 0 -9 9
-15 24 -15 l24 0 -14 -55 c-12 -46 -13 -60 -2 -83 12 -24 19 -27 61 -27 59 0
67 19 10 23 -42 3 -43 4 -43 41 0 21 5 52 11 69 9 27 16 31 52 34 48 3 53 21
8 28 l-29 5 17 35 c10 19 27 53 39 74 20 38 21 56 2 56 -5 0 -28 -38 -51 -85z"/>
<path d="M8226 1794 c-3 -9 -6 -22 -6 -30 0 -8 -25 -71 -55 -141 -58 -133 -65
-163 -40 -163 8 0 15 6 15 14 0 7 12 40 26 72 30 68 94 240 94 254 0 16 -27
11 -34 -6z"/>
<path d="M8106 1778 c-3 -7 -7 -31 -11 -52 -4 -21 -13 -49 -21 -61 -26 -40
-94 -209 -90 -222 10 -25 23 -13 41 35 9 26 37 90 60 142 46 99 59 160 38 167
-7 3 -15 -1 -17 -9z"/>
<path d="M6850 1726 c0 -3 5 -17 10 -31 12 -33 34 -28 37 8 1 23 -2 27 -23 27
-13 0 -24 -2 -24 -4z"/>
<path d="M7970 1710 c0 -11 7 -20 15 -20 8 0 15 9 15 20 0 11 -7 20 -15 20 -8
0 -15 -9 -15 -20z"/>
<path d="M12857 1705 c-7 -16 8 -29 23 -20 15 9 12 35 -4 35 -8 0 -16 -7 -19
-15z"/>
<path d="M4304 1689 c-6 -11 13 -39 27 -39 5 0 9 9 9 19 0 21 -26 36 -36 20z"/>
<path d="M5343 1655 c-15 -19 -34 -35 -40 -35 -7 0 -13 -3 -14 -7 -1 -13 -8
-46 -14 -70 -4 -18 -1 -23 12 -22 12 0 29 22 48 61 35 70 61 93 76 66 10 -18
39 -25 39 -10 0 4 -7 18 -16 30 -23 33 -58 28 -91 -13z"/>
<path d="M4744 1662 c-51 -40 -69 -122 -36 -162 15 -18 24 -21 55 -15 44 9 82
36 75 55 -3 10 -7 10 -19 -2 -8 -8 -31 -18 -51 -22 -28 -5 -37 -3 -42 10 -9
23 -7 34 5 34 18 0 79 55 79 72 0 48 -28 61 -66 30z m21 -42 c-10 -11 -20 -18
-23 -15 -3 3 3 14 13 25 10 11 20 18 23 15 3 -3 -3 -14 -13 -25z"/>
<path d="M7648 1652 c-68 -39 -65 -71 4 -36 l31 16 -22 -35 c-38 -61 -25 -86
32 -62 37 15 47 12 47 -16 0 -9 8 -20 17 -23 22 -9 91 60 95 94 4 31 -25 35
-30 5 -2 -11 -13 -30 -25 -43 l-21 -23 -14 27 c-12 23 -18 26 -48 21 l-34 -6
25 37 c49 73 25 91 -57 44z"/>
<path d="M12996 1659 c-14 -11 -26 -30 -26 -41 l0 -21 23 20 c41 37 50 38 33
5 -17 -34 -21 -62 -8 -62 5 0 21 14 37 30 37 39 47 38 40 -3 -8 -40 14 -67 34
-43 8 9 8 16 2 20 -7 5 -7 15 -1 32 24 62 6 89 -41 64 -15 -8 -19 -7 -19 5 0
22 -42 19 -74 -6z"/>
<path d="M3502 1642 c-56 -53 -54 -120 5 -155 41 -23 55 -18 123 43 42 38 52
52 42 59 -10 6 -26 -3 -55 -30 -48 -44 -80 -57 -102 -39 -19 16 -19 30 0 30
24 0 85 68 85 95 0 22 -5 25 -34 25 -23 0 -43 -9 -64 -28z m41 -34 c-18 -18
-36 -29 -39 -25 -10 10 36 57 55 57 11 0 6 -10 -16 -32z"/>
<path d="M5152 1645 c-41 -35 -65 -97 -50 -130 14 -31 44 -35 101 -13 15 6 27
17 27 24 0 16 -26 19 -35 4 -3 -5 -19 -10 -36 -10 -40 0 -40 33 0 50 48 20 66
45 53 75 -14 31 -23 31 -60 0z m37 -18 c-2 -1 -13 -9 -24 -17 -19 -14 -19 -14
-6 3 7 9 18 17 24 17 6 0 8 -1 6 -3z"/>
<path d="M12084 1627 c-50 -57 -68 -91 -60 -113 6 -16 8 -16 26 1 11 10 20 25
20 34 0 29 60 92 84 89 13 -2 21 2 21 12 0 9 -11 16 -26 18 -21 2 -35 -7 -65
-41z"/>
<path d="M4389 1641 c-22 -18 -22 -20 -9 -61 13 -39 13 -43 -5 -56 -28 -21
-45 -17 -45 11 0 28 -24 35 -34 10 -7 -19 12 -62 31 -69 16 -7 63 15 83 38 9
11 11 31 6 62 -5 40 -3 47 14 51 16 4 18 8 9 19 -15 18 -22 18 -50 -5z"/>
<path d="M4916 1593 c-39 -96 -40 -103 -25 -102 8 0 32 23 54 51 57 73 65 73
62 -4 -1 -49 1 -63 12 -63 11 0 15 18 17 78 3 87 -7 102 -51 73 -30 -20 -41
-21 -25 -1 11 14 6 35 -9 35 -4 0 -20 -30 -35 -67z"/>
<path d="M11698 1649 c-14 -8 -18 -24 -18 -73 0 -47 -4 -65 -15 -69 -15 -6
-50 30 -60 64 -7 21 -20 25 -30 9 -7 -11 27 -81 49 -99 23 -19 75 -4 86 25 5
13 7 44 4 68 -6 44 -6 45 27 54 19 4 34 12 34 18 0 13 -57 16 -77 3z"/>
<path d="M9738 1635 c-55 -30 -65 -95 -22 -139 30 -30 84 -35 104 -11 14 16
10 18 -33 15 -27 -2 -67 23 -67 41 0 4 15 12 34 19 46 15 73 46 60 68 -15 23
-43 25 -76 7z m32 -30 c-7 -8 -18 -15 -24 -15 -6 0 -2 7 8 15 25 19 32 19 16
0z"/>
<path d="M2177 1629 c-59 -33 -63 -169 -4 -169 32 0 44 11 62 54 27 63 -12
140 -58 115z m31 -70 c3 -37 -18 -76 -36 -65 -15 9 -15 48 0 81 15 34 32 27
36 -16z"/>
<path d="M2534 1628 c-4 -6 1 -15 10 -20 37 -21 3 -130 -36 -116 -8 4 -18 25
-22 47 -7 43 -20 50 -57 30 -19 -9 -19 -9 -10 10 18 34 13 51 -15 51 -33 0
-92 -56 -76 -72 9 -9 19 -5 38 13 l26 24 -26 -52 c-42 -85 -30 -97 37 -36 l41
37 14 -35 c8 -19 19 -37 26 -41 44 -29 106 27 106 95 0 23 -4 47 -8 53 -11 17
-41 24 -48 12z"/>
<path d="M11854 1620 c-60 -30 -80 -83 -48 -128 19 -27 89 -30 134 -7 36 18
41 41 8 30 -13 -3 -44 -9 -69 -12 -36 -4 -47 -2 -52 11 -5 12 0 16 22 16 53 0
107 64 81 95 -16 20 -27 19 -76 -5z m46 -30 c0 -12 -34 -30 -57 -30 -16 1 -15
3 6 20 25 21 51 26 51 10z"/>
<path d="M12275 1596 c-42 -52 -72 -57 -87 -14 -11 30 -25 36 -34 14 -8 -20
23 -76 42 -76 9 0 14 -3 12 -7 -2 -5 -18 -37 -36 -71 -35 -68 -41 -127 -12
-127 10 0 14 8 12 27 -4 36 58 155 115 218 40 45 55 80 34 80 -5 0 -26 -20
-46 -44z"/>
<path d="M13318 1630 c-45 -8 -76 -33 -94 -77 -41 -96 17 -147 127 -112 19 6
40 13 48 15 11 4 11 8 3 16 -8 8 -26 8 -68 -2 -66 -16 -89 -7 -89 36 0 26 3
29 30 26 44 -3 109 37 113 69 4 31 -14 38 -70 29z m18 -45 c-11 -8 -31 -15
-45 -15 -25 1 -25 1 -7 15 11 8 31 15 45 15 25 -1 25 -1 7 -15z"/>
<path d="M14362 1626 c-33 -18 -62 -66 -62 -102 0 -39 34 -84 63 -84 50 1 157
66 157 96 0 14 -48 25 -56 13 -3 -5 0 -9 7 -9 22 0 -14 -33 -58 -52 -46 -20
-68 -16 -76 13 -4 15 1 22 21 30 41 14 54 23 76 52 16 22 17 29 6 42 -15 18
-47 19 -78 1z m42 -30 c-3 -8 -19 -19 -36 -25 -27 -10 -29 -9 -17 5 11 13 35
27 56 33 1 1 0 -5 -3 -13z"/>
<path d="M7138 1599 c-21 -17 -38 -26 -38 -20 0 18 -20 13 -27 -6 -3 -10 -17
-33 -30 -51 -20 -27 -22 -33 -9 -38 8 -3 25 4 38 16 13 12 40 36 62 53 l38 31
-6 -41 c-9 -50 13 -80 45 -63 25 14 24 30 -2 30 -14 0 -19 5 -16 14 3 7 9 34
12 60 6 41 5 46 -11 46 -11 -1 -36 -14 -56 -31z"/>
<path d="M8774 1611 c-47 -21 -54 -34 -54 -100 0 -51 20 -81 54 -81 26 0 106
50 106 66 0 19 -17 18 -48 -5 -47 -32 -69 -35 -78 -9 -4 13 -7 34 -5 48 2 26
34 60 55 60 6 -1 -1 -8 -16 -16 -28 -15 -35 -28 -20 -38 14 -8 87 39 90 58 4
18 -13 36 -33 36 -5 0 -28 -9 -51 -19z"/>
<path d="M9319 1614 c-54 -34 -87 -120 -61 -161 24 -38 114 -34 120 5 4 24
-16 30 -35 11 -15 -15 -57 -7 -61 12 -2 11 6 18 25 22 46 9 83 50 80 89 -3 39
-28 47 -68 22z m17 -61 c-15 -13 -31 -23 -37 -23 -18 0 -9 19 23 45 23 19 34
23 37 14 2 -7 -8 -23 -23 -36z"/>
<path d="M6416 1601 c-35 -23 -66 -69 -66 -98 0 -35 38 -55 82 -43 41 12 87
45 76 55 -4 4 -23 0 -42 -9 -45 -21 -86 -21 -86 1 0 9 19 34 41 55 46 44 42
70 -5 39z"/>
<path d="M9950 1603 c-60 -42 -75 -86 -40 -118 35 -32 140 -39 140 -9 0 10
-13 14 -46 14 -50 0 -84 14 -84 34 0 17 43 56 61 56 23 0 30 11 18 27 -15 17
-19 17 -49 -4z"/>
<path d="M10595 1587 c-40 -40 -43 -64 -14 -101 19 -24 27 -27 77 -24 77 4 84
28 8 28 -67 0 -77 11 -30 33 32 16 35 21 32 55 -4 50 -29 53 -73 9z m45 -17
c0 -5 -9 -14 -21 -20 -19 -11 -20 -10 -9 9 11 22 30 29 30 11z"/>
<path d="M11406 1583 c-60 -61 -58 -107 4 -133 36 -15 101 -4 108 19 4 11 -5
12 -41 7 -39 -6 -49 -4 -67 14 -21 21 -18 45 4 37 7 -3 32 3 54 13 36 16 42
23 42 50 0 27 -3 30 -34 30 -26 0 -42 -9 -70 -37z m60 -8 c-11 -8 -25 -15 -30
-15 -6 0 -2 7 8 15 11 8 25 15 30 15 6 0 2 -7 -8 -15z"/>
<path d="M12928 1585 c-14 -22 -24 -43 -21 -47 17 -30 66 32 53 67 -6 17 -10
15 -32 -20z"/>
<path d="M10285 1580 c-9 -18 -35 -40 -65 -55 -54 -27 -72 -20 -46 20 20 31
20 35 -3 35 -22 0 -46 -50 -37 -78 10 -30 40 -32 94 -7 52 24 92 66 92 96 0
28 -18 23 -35 -11z"/>
<path d="M7916 1589 c-2 -8 -9 -29 -15 -48 -12 -39 -6 -57 15 -40 18 15 29 78
16 91 -8 8 -13 7 -16 -3z"/>
<path d="M6269 1570 c-23 -17 -28 -18 -33 -5 -9 25 -20 17 -40 -31 -27 -66
-10 -75 48 -25 26 23 49 41 51 41 2 0 3 -19 2 -41 -3 -62 18 -59 29 4 6 30 8
59 6 65 -6 18 -34 14 -63 -8z"/>
<path d="M6933 1568 c-17 -13 -39 -35 -47 -50 -15 -24 -15 -28 1 -43 11 -12
25 -15 47 -11 36 7 56 30 56 62 0 13 5 26 10 29 8 5 7 11 -1 21 -16 19 -29 18
-66 -8z m27 -43 c0 -15 -38 -40 -47 -31 -7 7 26 46 39 46 4 0 8 -7 8 -15z"/>
<path d="M9480 1577 c0 -7 7 -23 16 -35 14 -21 14 -23 -20 -43 -20 -12 -36
-27 -36 -35 0 -20 17 -17 52 7 l29 21 27 -25 c15 -13 37 -30 49 -36 19 -10 22
-8 20 9 -1 10 -3 17 -5 15 -7 -7 -52 47 -46 56 3 5 18 16 35 24 29 15 40 45
17 45 -7 0 -24 -9 -38 -20 -33 -26 -44 -25 -64 5 -18 27 -36 33 -36 12z"/>
<path d="M4217 1533 c-4 -37 6 -63 19 -50 4 3 8 17 9 31 2 14 6 29 9 34 5 8
-14 22 -29 22 -1 0 -5 -17 -8 -37z"/>
<path d="M6036 1548 c-59 -92 11 -146 86 -66 35 37 36 58 4 58 -17 0 -26 -6
-28 -21 -3 -24 -43 -55 -52 -41 -3 5 3 25 14 44 18 34 17 48 -1 48 -5 0 -15
-10 -23 -22z"/>
<path d="M12762 1531 c-25 -43 -28 -71 -9 -71 10 1 57 85 57 103 0 21 -29 1
-48 -32z"/>
<path d="M6736 1520 c-20 -49 -20 -60 -2 -60 7 0 21 19 30 43 20 52 20 57 2
57 -8 0 -21 -18 -30 -40z"/>
<path d="M3006 1368 c-38 -129 -40 -133 -81 -138 -52 -7 -59 -30 -10 -30 31 0
36 -3 30 -17 -14 -35 -18 -130 -6 -151 14 -27 71 -30 96 -6 22 22 4 40 -22 23
-48 -30 -69 28 -39 111 12 32 16 35 62 38 54 4 74 16 57 33 -7 7 -17 8 -28 2
-17 -10 -65 -6 -65 6 0 3 9 33 19 66 10 33 17 63 14 68 -7 11 -23 8 -27 -5z"/>
<path d="M10888 1353 c-10 -12 -18 -49 -22 -103 -4 -47 -12 -102 -17 -122 -11
-43 -60 -88 -95 -88 -20 0 -24 5 -24 30 0 34 34 62 71 58 16 -2 24 2 24 12 0
21 -51 25 -81 6 -57 -38 -67 -101 -19 -132 20 -13 27 -13 64 2 72 28 97 81
108 224 4 55 11 88 19 93 18 10 18 37 1 37 -8 0 -21 -8 -29 -17z"/>
<path d="M3455 1343 c-27 -7 -77 -16 -110 -20 -58 -8 -60 -9 -66 -43 -6 -35
-28 -99 -67 -196 -11 -27 -17 -55 -14 -61 8 -12 188 21 206 38 20 18 -28 21
-95 4 -39 -9 -72 -15 -74 -13 -2 1 4 20 12 40 13 34 19 38 61 43 71 10 134 29
132 40 -1 10 -9 10 -101 -1 l-56 -7 15 62 c13 53 18 61 38 61 36 0 168 30 178
40 20 20 -10 26 -59 13z"/>
<path d="M5337 1343 c-4 -3 -7 -15 -7 -26 0 -22 -36 -125 -74 -210 -44 -99
-28 -137 49 -116 50 14 85 53 85 94 0 41 -21 59 -59 52 l-29 -6 29 76 c26 70
33 100 30 131 -1 13 -14 16 -24 5z m23 -257 c0 -30 -43 -66 -77 -66 l-24 0 22
33 c41 60 79 76 79 33z"/>
<path d="M7386 1343 c-3 -3 -6 -13 -6 -22 0 -9 -10 -46 -22 -83 -21 -66 -22
-67 -60 -70 -47 -4 -55 -22 -10 -26 17 -2 32 -5 32 -6 0 -2 -7 -20 -15 -39
-18 -45 -19 -67 -2 -67 7 0 21 25 31 55 16 52 19 55 51 55 43 0 65 9 65 26 0
11 -9 13 -40 8 -22 -4 -40 -4 -40 -2 0 3 9 31 20 63 11 32 20 68 20 81 0 24
-13 38 -24 27z"/>
<path d="M13664 1333 c-3 -10 -12 -31 -21 -48 -9 -16 -24 -47 -34 -67 -21 -41
-42 -51 -97 -46 -29 2 -37 -1 -40 -15 -3 -14 4 -17 46 -17 l50 0 -15 -49 c-19
-57 -12 -95 22 -117 20 -13 30 -14 60 -4 48 16 40 35 -12 32 -52 -4 -61 18
-38 89 19 57 32 65 115 74 43 5 59 12 73 31 17 23 17 25 1 31 -10 4 -22 0 -29
-10 -12 -16 -115 -36 -115 -22 0 5 13 29 30 55 16 25 31 57 32 69 4 29 -20 40
-28 14z"/>
<path d="M3996 1303 c-4 -21 -14 -60 -22 -86 -13 -40 -21 -49 -45 -54 -37 -7
-47 -23 -20 -30 25 -6 25 -4 4 -48 -12 -26 -14 -38 -6 -46 8 -8 18 4 38 45 20
43 33 57 53 62 43 9 52 13 52 22 0 4 -10 8 -21 9 -12 1 -23 4 -25 6 -3 2 2 30
11 63 19 72 19 94 1 94 -8 0 -16 -15 -20 -37z"/>
<path d="M4195 1310 c-4 -16 -4 -34 -1 -39 4 -5 2 -11 -3 -13 -5 -1 -17 -21
-27 -43 -15 -32 -25 -41 -52 -45 -41 -6 -47 -24 -10 -28 l28 -3 -20 -39 c-11
-21 -25 -40 -31 -42 -13 -4 -3 -48 12 -48 5 0 25 32 44 70 30 60 40 72 66 77
39 8 49 31 21 53 -18 15 -19 21 -9 51 7 19 16 40 20 47 10 15 1 32 -18 32 -7
0 -16 -13 -20 -30z m15 -104 c0 -3 -4 -8 -10 -11 -5 -3 -10 -1 -10 4 0 6 5 11
10 11 6 0 10 -2 10 -4z"/>
<path d="M6120 1318 c0 -13 -11 -46 -24 -75 -24 -51 -26 -52 -75 -59 -61 -8
-72 -34 -15 -34 31 0 35 -3 29 -17 -26 -59 -4 -143 37 -143 23 0 23 19 1 35
-23 17 -23 83 0 118 13 21 26 27 52 27 44 0 83 38 56 54 -5 3 -14 -1 -21 -9
-7 -8 -20 -15 -30 -15 -17 0 -16 3 2 55 20 53 19 85 -2 85 -5 0 -10 -10 -10
-22z"/>
<path d="M10345 1250 c-25 -50 -25 -50 -75 -50 -38 0 -50 -4 -50 -15 0 -11 11
-15 41 -15 38 0 41 -2 34 -22 -4 -13 -10 -45 -12 -71 -6 -58 16 -90 56 -85 34
4 35 33 1 33 -22 0 -25 5 -28 37 -2 20 3 52 11 71 14 32 19 35 71 41 41 6 56
12 56 23 0 13 -8 15 -45 10 -25 -4 -45 -4 -45 -1 0 13 31 63 42 66 6 2 8 10 4
16 -15 24 -36 11 -61 -38z"/>
<path d="M7186 1261 c-3 -4 3 -16 14 -26 19 -17 20 -17 26 0 9 23 -27 47 -40
26z"/>
<path d="M5510 1240 c0 -24 25 -27 34 -4 9 23 8 24 -14 24 -13 0 -20 -7 -20
-20z"/>
<path d="M9937 1253 c-11 -10 -8 -41 4 -48 13 -9 16 -6 24 28 5 20 3 27 -7 27
-8 0 -18 -3 -21 -7z"/>
<path d="M2099 1211 c-16 -17 -29 -40 -29 -54 0 -14 -2 -32 -5 -40 -3 -7 7
-28 24 -45 25 -28 36 -32 79 -32 55 0 93 23 73 43 -8 8 -15 7 -23 -1 -15 -15
-80 -16 -95 -1 -9 9 -4 17 20 33 45 30 71 79 57 105 -16 32 -65 27 -101 -8z
m71 -13 c0 -14 -50 -68 -62 -68 -16 0 -8 34 14 57 23 25 48 30 48 11z"/>
<path d="M2427 1216 c-8 -8 -17 -41 -21 -73 -11 -93 -19 -94 -60 -8 -27 57
-41 76 -54 73 -21 -4 -29 -38 -9 -38 8 0 22 -19 32 -42 52 -132 108 -128 122
9 5 46 8 52 31 55 14 2 27 9 28 16 1 7 0 8 -3 2 -3 -6 -10 -4 -20 5 -18 19
-28 19 -46 1z"/>
<path d="M13018 1213 c-18 -5 -19 -8 -38 -90 -17 -76 -41 -78 -70 -5 -13 34
-27 41 -36 19 -7 -20 38 -101 59 -105 36 -7 65 24 78 85 15 66 23 75 56 60 17
-7 27 -7 34 0 8 8 3 16 -19 27 -32 16 -35 17 -64 9z"/>
<path d="M2516 1179 c-30 -35 -32 -49 -11 -88 28 -56 135 -68 135 -16 0 33
-16 40 -33 15 -12 -17 -19 -19 -41 -11 -34 14 -33 23 7 41 35 16 47 51 27 76
-20 23 -56 16 -84 -17z m64 -13 c0 -16 -37 -32 -48 -21 -7 7 25 35 40 35 4 0
8 -6 8 -14z"/>
<path d="M2759 1168 l-32 -43 6 33 c5 27 3 32 -12 32 -15 0 -20 -11 -27 -62
-11 -85 -11 -82 6 -86 9 -1 30 22 53 59 21 33 41 58 44 55 3 -3 0 -26 -6 -52
-12 -49 -7 -88 12 -81 6 2 12 17 13 33 2 16 7 50 12 75 17 86 -19 105 -69 37z"/>
<path d="M3830 1190 c0 -11 7 -20 15 -20 8 0 15 9 15 20 0 11 -7 20 -15 20 -8
0 -15 -9 -15 -20z"/>
<path d="M6718 1173 c-55 -58 -57 -123 -5 -158 23 -14 28 -14 66 1 23 9 40 22
38 28 -3 6 -11 9 -18 7 -30 -10 -82 -5 -86 7 -3 7 4 12 14 12 11 0 32 13 47
29 21 22 27 36 24 62 -4 46 -42 52 -80 12z m36 -54 c-22 -24 -34 -24 -34 0 0
11 10 27 23 36 20 14 22 14 25 0 2 -9 -4 -25 -14 -36z"/>
<path d="M7570 1190 c-25 -3 -51 -9 -57 -13 -22 -14 -14 -46 17 -74 17 -14 30
-32 30 -39 0 -18 -69 -30 -92 -15 -21 13 -38 7 -38 -14 0 -42 151 -28 165 15
8 25 -7 53 -40 74 -31 21 -23 40 15 33 16 -4 35 0 46 8 28 20 7 32 -46 25z"/>
<path d="M10555 1186 c-38 -16 -65 -56 -65 -94 0 -52 74 -97 119 -72 29 15 18
28 -23 27 -32 -1 -66 16 -66 33 0 4 19 10 41 14 60 10 79 23 79 54 0 50 -29
63 -85 38z m55 -31 c0 -15 -38 -35 -67 -35 -31 0 25 46 60 49 4 1 7 -6 7 -14z"/>
<path d="M11326 1180 c-24 -15 -33 -17 -45 -7 -10 9 -15 9 -18 1 -2 -7 -19
-37 -38 -69 -19 -32 -35 -61 -35 -66 0 -18 30 -8 46 15 8 14 36 41 60 62 l45
36 -20 -33 c-35 -58 -21 -103 27 -84 16 6 16 7 -1 20 -17 12 -17 16 12 70 41
76 29 95 -33 55z"/>
<path d="M11735 1170 c-29 -30 -30 -30 -37 -9 -7 18 -11 19 -24 9 -8 -7 -13
-19 -10 -25 2 -7 -4 -27 -15 -44 -46 -76 -9 -82 55 -9 48 55 56 57 30 6 -24
-47 -4 -58 42 -22 20 16 50 39 68 52 l31 23 5 -53 c4 -38 9 -53 20 -53 20 0
18 111 -2 132 -13 12 -22 9 -67 -21 -47 -32 -52 -33 -45 -13 19 60 -6 74 -51
27z"/>
<path d="M4301 1159 c-53 -50 -68 -121 -32 -153 26 -24 75 -10 79 22 4 25 -22
31 -32 7 -8 -22 -36 -6 -36 21 0 21 4 25 25 24 20 -1 66 35 71 55 15 60 -24
73 -75 24z m44 -18 c-3 -6 -16 -16 -28 -22 -21 -11 -21 -10 2 15 23 25 40 29
26 7z"/>
<path d="M4556 1182 c-3 -6 -15 -8 -26 -5 -15 4 -20 0 -20 -16 0 -12 -9 -41
-20 -63 -11 -23 -20 -48 -20 -55 0 -20 28 -16 34 5 4 10 20 40 37 66 l30 48
25 -22 c30 -29 44 -18 23 18 -15 27 -52 41 -63 24z"/>
<path d="M12688 1150 c-36 -35 -40 -44 -34 -73 8 -44 39 -67 91 -67 56 0 75 8
75 31 0 20 -15 26 -25 9 -9 -15 -81 -12 -94 4 -9 11 -1 19 44 41 88 43 101 95
24 95 -35 0 -48 -6 -81 -40z m92 5 c0 -9 -64 -45 -80 -45 -23 1 37 50 61 50
10 0 19 -2 19 -5z"/>
<path d="M5615 1147 c-26 -26 -35 -44 -35 -69 0 -53 23 -78 74 -78 48 0 91 22
63 33 -9 3 -30 2 -46 -3 -23 -6 -35 -5 -46 6 -20 20 -19 44 2 44 9 0 32 10 50
23 25 16 33 28 31 47 -5 41 -51 39 -93 -3z m46 -17 c-13 -11 -28 -20 -35 -20
-6 1 0 10 13 20 13 11 28 20 35 20 6 -1 0 -10 -13 -20z"/>
<path d="M6851 1119 c-36 -88 -20 -105 39 -44 38 39 50 44 43 16 -7 -28 11
-33 40 -11 32 25 35 25 39 -2 5 -35 25 -32 30 4 3 18 8 41 13 50 11 28 -22 34
-54 10 l-28 -20 5 24 c6 34 -19 31 -64 -8 -29 -26 -35 -28 -26 -11 16 29 15
43 -2 43 -7 0 -23 -23 -35 -51z"/>
<path d="M11449 1131 c-64 -63 -45 -126 29 -96 31 13 32 13 32 -9 0 -27 8 -36
24 -30 7 3 11 15 9 28 -3 12 2 40 11 61 21 50 20 58 -11 73 -41 18 -52 15 -94
-27z m78 -9 c-10 -10 -17 -23 -17 -28 0 -12 -59 -38 -67 -30 -12 12 34 61 63
67 16 4 31 7 33 8 2 0 -3 -7 -12 -17z"/>
<path d="M12038 1155 c-40 -22 -61 -71 -47 -112 7 -21 19 -35 34 -39 34 -8
135 23 135 42 0 18 -32 32 -38 16 -4 -14 -78 -35 -92 -27 -18 11 -11 22 18 28
40 8 82 45 82 72 0 36 -44 46 -92 20z m62 -25 c0 -14 -58 -42 -65 -31 -6 11
33 41 52 41 7 0 13 -4 13 -10z"/>
<path d="M13286 1109 c-37 -81 -24 -92 43 -39 41 32 52 38 51 23 -5 -40 1 -53
31 -69 26 -13 36 -14 55 -3 34 18 30 27 -13 31 -38 3 -38 3 -39 51 0 26 -4 50
-7 54 -4 3 -25 -8 -46 -25 -42 -34 -63 -43 -36 -16 9 9 15 23 13 32 -7 34 -26
20 -52 -39z"/>
<path d="M5824 1142 c-54 -44 -66 -99 -28 -136 27 -27 117 -15 100 13 -4 6
-13 8 -19 4 -25 -16 -77 10 -77 38 0 17 53 69 71 69 10 0 19 7 19 15 0 20 -40
19 -66 -3z"/>
<path d="M7130 1114 c-23 -53 -25 -74 -7 -74 13 0 47 74 47 103 0 32 -21 17
-40 -29z"/>
<path d="M9120 1147 c-44 -15 -50 -44 -19 -93 18 -29 19 -38 8 -44 -8 -5 -19
-4 -26 2 -17 14 -27 4 -19 -17 9 -24 34 -29 61 -11 30 20 31 38 4 82 -24 40
-19 54 22 54 23 0 30 4 27 17 -4 22 -16 24 -58 10z"/>
<path d="M9511 1124 c16 -54 5 -84 -30 -84 -39 0 -56 22 -40 49 7 11 21 22 31
24 22 6 24 25 3 33 -20 8 -75 -48 -75 -76 0 -24 33 -56 67 -65 32 -8 71 17 79
51 10 37 -7 98 -28 102 -15 3 -15 -1 -7 -34z"/>
<path d="M9640 1133 c-19 -18 -33 -41 -37 -65 -5 -33 -3 -38 26 -53 41 -20 95
-17 99 7 3 15 -2 17 -26 12 -30 -6 -72 9 -72 26 0 4 12 22 26 39 19 23 33 31
53 29 18 -2 26 2 26 12 0 29 -60 24 -95 -7z"/>
<path d="M13124 1141 c-96 -58 -79 -151 26 -151 56 0 113 18 107 34 -3 6 -11
9 -18 7 -8 -2 -39 -6 -69 -9 -42 -3 -59 0 -68 11 -11 13 -7 17 25 27 53 18 63
28 63 66 0 40 -18 44 -66 15z m22 -36 c-11 -8 -25 -15 -30 -15 -6 0 -2 7 8 15
11 8 25 15 30 15 6 0 2 -7 -8 -15z"/>
<path d="M3507 1096 c-15 -30 -27 -60 -27 -65 0 -19 22 -12 46 16 20 23 24 25
30 10 9 -24 35 -21 66 8 33 30 36 31 40 3 2 -12 9 -23 17 -26 10 -3 13 2 9 21
-3 15 0 28 5 30 6 2 7 9 3 15 -11 18 -50 14 -79 -8 -34 -27 -40 -25 -32 9 5
24 2 29 -17 35 -13 3 -26 6 -29 6 -3 0 -18 -24 -32 -54z"/>
<path d="M8290 1142 c-8 -2 -27 -15 -41 -29 -22 -20 -27 -22 -32 -9 -9 22 -39
21 -35 -1 2 -10 -4 -38 -14 -62 -14 -33 -16 -47 -7 -55 8 -8 15 -4 27 14 23
36 97 110 110 110 7 0 5 -18 -5 -52 -20 -69 -21 -83 -4 -83 13 0 51 107 51
142 0 16 -31 32 -50 25z"/>
<path d="M8051 1126 c-49 -18 -75 -55 -66 -95 10 -45 30 -48 80 -13 42 30 43
30 49 9 8 -32 23 -10 31 45 7 45 6 48 -20 58 -31 12 -30 12 -74 -4z m44 -38
c-8 -20 -63 -60 -74 -53 -19 11 3 44 37 58 41 17 45 16 37 -5z"/>
<path d="M8875 1116 c-50 -50 -40 -112 16 -104 22 4 29 0 33 -18 7 -28 35 -39
43 -17 4 9 1 19 -5 21 -7 2 -12 19 -12 38 0 38 -9 42 -44 18 -34 -22 -41 -1
-12 32 20 24 26 26 40 15 13 -11 17 -11 22 4 15 38 -45 46 -81 11z"/>
<path d="M9245 1130 c-4 -6 1 -24 9 -42 26 -52 19 -97 -11 -67 -15 15 -26 -5
-18 -32 9 -28 43 -21 68 13 19 26 20 29 4 68 -13 34 -13 40 -1 40 8 0 14 7 14
15 0 17 -55 21 -65 5z"/>
<path d="M5485 1048 c0 -70 -4 -92 -28 -143 -47 -101 -120 -158 -134 -105 -7
28 -29 19 -25 -11 3 -28 18 -39 53 -39 60 0 158 150 167 256 5 65 -5 124 -21
124 -8 0 -12 -25 -12 -82z"/>
<path d="M10009 1100 c-50 -50 -23 -107 39 -84 25 9 31 8 41 -7 17 -28 34 -23
28 8 -3 15 -1 38 5 52 7 21 5 28 -14 43 -34 26 -66 22 -99 -12z m68 -8 c15 -9
5 -25 -26 -41 -34 -18 -49 1 -22 28 23 23 30 25 48 13z"/>
<path d="M5124 1110 c-25 -10 -54 -48 -54 -70 0 -50 65 -70 102 -32 16 16 19
26 13 49 -5 15 -9 35 -9 43 -1 18 -23 22 -52 10z m24 -68 c3 -16 -2 -22 -17
-22 -24 0 -33 13 -25 35 9 23 38 14 42 -13z"/>
<path d="M3745 1077 c-18 -45 -19 -77 -2 -77 17 0 41 90 28 103 -7 7 -15 -1
-26 -26z"/>
<path d="M9854 1102 c-14 -9 -32 -64 -27 -79 10 -27 29 -11 39 32 11 46 7 60
-12 47z"/>
<path d="M13832 964 c4 -21 22 -23 26 -1 2 10 -3 17 -13 17 -10 0 -15 -6 -13
-16z"/>
<path d="M2032 715 c-18 -19 -34 -46 -38 -59 -9 -36 3 -89 22 -103 29 -21 100
-20 123 2 12 12 12 17 1 30 -13 16 -15 16 -26 0 -16 -22 -73 -16 -88 9 -9 14
-8 20 3 24 8 2 30 19 50 37 32 30 35 36 26 61 -15 41 -37 40 -73 -1z m48 -2
c-1 -13 -40 -56 -46 -51 -2 3 6 17 18 32 25 28 28 30 28 19z"/>
<path d="M2375 698 c-38 -20 -85 -72 -85 -94 0 -34 25 -36 84 -5 l53 29 7 -52
c10 -90 8 -116 -11 -116 -35 0 -82 -38 -92 -74 -11 -41 -2 -85 21 -100 35 -22
107 66 108 131 0 15 7 23 22 25 30 4 37 38 9 45 -16 4 -21 13 -21 42 -1 66
-12 156 -21 165 -12 14 -52 16 -74 4z m29 -39 c-10 -12 -32 -28 -49 -36 l-30
-16 25 28 c21 23 50 41 69 44 2 1 -4 -8 -15 -20z m22 -256 c-8 -32 -37 -75
-54 -81 -8 -2 -12 9 -12 31 0 26 7 41 26 56 36 28 47 26 40 -6z"/>
<path d="M2216 564 c-4 -9 -4 -19 -2 -22 10 -9 36 8 36 23 0 20 -26 19 -34 -1z"/>
<path d="M2560 560 c-17 -32 -1 -44 26 -19 13 12 21 26 18 30 -9 16 -33 9 -44
-11z"/>
</g>
</svg>
