<?xml version="1.0" standalone="no"?>
<!DOCTYPE svg PUBLIC "-//W3C//DTD SVG 20010904//EN"
 "http://www.w3.org/TR/2001/REC-SVG-20010904/DTD/svg10.dtd">
<svg version="1.0" xmlns="http://www.w3.org/2000/svg"
 width="1616.000000pt" height="776.000000pt" viewBox="0 0 1616.000000 776.000000"
 preserveAspectRatio="xMidYMid meet">

<g transform="translate(0.000000,776.000000) scale(0.100000,-0.100000)"
fill="#000000" stroke="none">
<path d="M2667 7349 c-63 -15 -75 -25 -86 -79 -6 -28 -11 -62 -11 -75 0 -24
54 -95 72 -95 26 0 82 -92 73 -120 -4 -14 -2 -20 8 -20 20 0 30 45 16 73 -15
28 -60 77 -72 77 -10 0 -45 41 -63 74 -7 12 -9 28 -4 40 5 12 11 34 15 49 7
36 48 56 76 39 11 -7 24 -10 29 -7 6 4 10 -10 10 -30 0 -29 3 -36 17 -33 24 4
40 75 22 93 -20 20 -58 25 -102 14z"/>
<path d="M13750 7305 c-6 -14 -10 -34 -10 -43 -1 -9 -9 -33 -18 -52 -13 -27
-25 -36 -56 -42 -50 -11 -65 -23 -87 -73 -23 -50 -24 -99 -3 -134 16 -26 15
-30 -21 -100 -20 -40 -34 -79 -31 -87 6 -17 36 -7 36 12 0 7 14 43 32 78 26
53 38 67 61 72 40 8 94 58 107 100 10 29 9 41 -8 75 l-20 40 24 67 c13 37 24
75 24 84 0 29 -19 31 -30 3z m-77 -202 c-38 -92 -65 -136 -74 -122 -24 38 8
132 49 148 41 15 42 14 25 -26z m57 -41 c0 -24 -9 -42 -29 -63 -30 -30 -57
-39 -48 -16 55 137 76 159 77 79z"/>
<path d="M6119 7308 c-1 -2 -2 -15 -3 -30 -1 -15 -5 -30 -9 -34 -4 -4 -7 -26
-7 -50 0 -23 -6 -55 -14 -71 -30 -60 -86 -205 -86 -223 0 -20 20 -9 63 37 l45
47 -1 -54 c-2 -41 2 -55 12 -55 9 0 15 13 16 35 2 19 6 54 10 78 7 37 5 42
-11 42 -10 0 -28 -10 -41 -22 -28 -27 -29 -14 -3 53 38 97 63 249 40 249 -5 0
-11 -1 -11 -2z"/>
<path d="M12052 7253 c-5 -10 -15 -35 -21 -55 -10 -31 -18 -38 -39 -40 -53 -3
-57 -4 -70 -12 -7 -4 -10 -12 -6 -17 3 -6 -3 -21 -15 -33 -31 -33 -43 -84 -30
-123 9 -27 7 -37 -15 -70 -13 -21 -26 -47 -28 -57 -6 -38 18 -24 47 27 28 48
33 52 77 59 59 8 104 34 129 74 33 54 23 104 -28 132 -14 8 -14 12 1 40 9 17
16 37 16 45 0 8 7 17 15 21 22 8 18 26 -5 26 -10 0 -23 -8 -28 -17z m-90 -175
c-11 -18 -29 -49 -41 -68 l-21 -35 0 37 c0 40 40 98 67 98 12 0 11 -6 -5 -32z
m96 20 c19 -19 14 -54 -13 -87 -24 -28 -84 -56 -105 -49 -14 5 73 148 91 148
8 0 20 -5 27 -12z"/>
<path d="M5950 7220 c0 -12 -8 -37 -19 -58 -10 -20 -24 -55 -31 -77 -12 -40
-12 -40 -68 -43 -62 -4 -67 -6 -57 -21 3 -6 29 -11 56 -11 55 0 53 7 28 -90
-6 -26 -5 -38 6 -49 17 -18 18 -16 35 82 l12 67 60 0 c75 0 76 23 0 30 l-51 5
26 60 c34 79 41 125 19 125 -9 0 -16 -8 -16 -20z"/>
<path d="M13404 7227 c-37 -21 -74 -55 -74 -66 0 -18 20 -13 52 14 37 31 48
31 48 2 0 -34 -74 -139 -135 -192 -31 -26 -55 -55 -55 -66 0 -29 20 -23 62 18
l38 37 0 -35 c0 -19 5 -40 12 -47 18 -18 63 -14 89 7 29 24 18 38 -16 23 -52
-24 -58 -18 -50 46 5 41 16 71 41 107 43 63 59 117 44 145 -12 23 -26 25 -56
7z"/>
<path d="M14072 7230 c-25 -10 -82 -94 -82 -121 0 -9 9 -27 19 -40 l19 -24
-44 -47 c-51 -54 -63 -91 -43 -127 10 -18 25 -27 48 -29 28 -3 40 4 82 46 43
43 49 54 49 91 0 27 -6 47 -19 60 -17 17 -18 21 -5 32 20 17 54 83 54 106 0
24 -27 63 -43 62 -7 0 -22 -4 -35 -9z m42 -46 c11 -27 -40 -104 -69 -104 -24
0 -25 31 -3 71 18 33 30 43 59 48 4 0 10 -6 13 -15z m-30 -180 c13 -33 5 -55
-34 -94 -43 -43 -64 -49 -79 -23 -21 39 46 127 100 132 4 1 10 -6 13 -15z"/>
<path d="M4755 7218 c-2 -7 -5 -24 -8 -38 -3 -14 -18 -85 -35 -159 -17 -74
-29 -138 -26 -143 10 -16 22 -7 53 40 17 27 43 59 57 73 l27 24 -7 -25 c-17
-66 -19 -110 -4 -110 16 0 44 119 34 145 -10 26 -47 16 -83 -22 -24 -26 -33
-32 -29 -18 22 78 54 230 50 237 -8 12 -24 10 -29 -4z"/>
<path d="M9947 7213 c-4 -3 -7 -17 -7 -29 0 -13 -18 -69 -40 -124 -59 -148
-54 -163 33 -94 31 25 57 43 57 39 0 -3 -7 -22 -15 -42 -14 -32 -14 -39 0 -60
13 -19 24 -23 63 -23 26 0 53 4 61 9 26 17 1 28 -50 23 l-52 -5 7 29 c3 16 9
46 13 67 5 34 4 37 -18 37 -14 0 -41 -14 -61 -30 l-37 -31 29 71 c16 39 34 86
39 103 5 18 12 40 16 50 5 13 2 17 -12 17 -11 0 -23 -3 -26 -7z"/>
<path d="M12847 7210 c-59 -11 -84 -28 -84 -58 0 -15 -2 -34 -4 -42 -4 -15 3
-16 53 -4 15 3 38 4 51 0 29 -7 77 -73 77 -105 0 -34 -70 -101 -106 -101 -41
0 -79 22 -79 45 0 13 -7 20 -19 20 -29 0 -30 -19 -1 -53 52 -62 153 -52 205
20 39 53 39 93 0 146 -35 49 -57 62 -104 62 -20 0 -36 5 -36 10 0 14 44 30 80
30 33 0 49 18 29 31 -8 5 -16 8 -19 8 -3 -1 -22 -5 -43 -9z"/>
<path d="M12217 7175 c-26 -20 -47 -40 -47 -45 0 -21 21 -18 47 6 15 14 36 30
46 36 59 31 -73 -160 -134 -194 -47 -26 -76 -65 -60 -81 12 -12 47 8 86 50
l25 28 0 -32 c0 -17 7 -39 16 -48 15 -14 19 -14 47 2 17 10 32 24 35 31 4 14
-34 17 -43 2 -14 -23 -24 -7 -22 34 2 33 14 60 51 113 78 115 50 172 -47 98z"/>
<path d="M7391 7186 c-7 -8 -20 -60 -30 -115 -10 -55 -26 -112 -35 -125 -21
-33 -55 -51 -68 -38 -15 15 21 71 50 79 26 6 25 26 -2 31 -21 4 -53 -22 -72
-60 -21 -41 -17 -67 12 -80 21 -10 31 -9 60 7 47 25 64 61 85 180 10 55 23
101 29 103 15 5 12 32 -4 32 -7 0 -19 -6 -25 -14z"/>
<path d="M12585 7166 c-30 -26 -37 -37 -29 -46 9 -9 21 -4 48 21 20 17 39 29
42 26 12 -12 -49 -117 -82 -142 -19 -15 -31 -31 -28 -37 4 -6 3 -8 -3 -5 -11
7 -83 -65 -83 -82 0 -25 24 -18 65 20 l45 42 0 -30 c0 -56 44 -69 95 -28 21
17 26 28 19 35 -7 7 -18 4 -37 -10 -15 -12 -31 -18 -37 -15 -14 9 -12 66 3 91
47 81 78 149 75 167 -5 37 -47 33 -93 -7z"/>
<path d="M13873 7188 c-6 -7 -10 -20 -10 -28 0 -8 -13 -62 -27 -119 -29 -111
-30 -156 -6 -156 9 0 14 8 12 21 -3 23 29 168 52 233 15 41 14 61 -3 61 -5 0
-13 -6 -18 -12z"/>
<path d="M6302 7108 c7 -19 38 -22 38 -4 0 10 -9 16 -21 16 -12 0 -19 -5 -17
-12z"/>
<path d="M8143 7086 c-16 -13 -35 -36 -42 -50 -10 -18 -18 -23 -26 -16 -19 16
-47 1 -40 -21 3 -10 -3 -36 -15 -58 -23 -47 -27 -91 -6 -91 8 0 36 39 63 86
48 87 92 144 111 144 5 0 9 -6 8 -12 -2 -21 16 -24 27 -6 8 12 7 21 -2 32 -19
23 -45 20 -78 -8z"/>
<path d="M9181 7087 c-46 -23 -49 -43 -13 -80 17 -18 32 -40 32 -50 0 -24 -34
-39 -63 -28 -33 13 -41 27 -20 35 24 10 0 30 -26 21 -43 -13 -18 -69 40 -86
35 -11 43 -10 67 8 40 30 41 68 2 108 -26 27 -29 33 -15 39 9 3 27 3 41 0 30
-8 34 20 5 36 -24 12 -21 12 -50 -3z"/>
<path d="M5134 7051 c-38 -23 -48 -37 -34 -46 6 -4 26 3 45 15 19 12 35 19 35
16 0 -3 -16 -36 -36 -74 -33 -63 -38 -92 -15 -92 5 0 29 16 54 35 l45 34 9
-36 c15 -66 52 -69 97 -9 27 35 31 161 6 161 -11 0 -15 -14 -15 -60 0 -59 -22
-115 -44 -115 -9 0 -24 48 -20 66 7 41 -19 44 -67 8 l-34 -27 25 44 c28 51 32
84 9 93 -23 9 -26 8 -60 -13z"/>
<path d="M8436 6993 c-42 -88 -42 -116 1 -85 16 11 41 34 57 51 37 39 51 40
31 1 -21 -40 -19 -67 6 -80 22 -12 95 -5 105 11 12 19 -7 27 -42 17 -54 -15
-62 0 -30 63 45 92 29 103 -54 38 -51 -40 -51 -40 -36 -10 18 34 20 57 7 65
-5 3 -25 -29 -45 -71z"/>
<path d="M9605 7058 c-11 -6 -32 -22 -47 -36 l-28 -26 0 27 c0 17 -5 27 -15
27 -8 0 -15 -8 -15 -17 0 -10 -14 -42 -30 -72 -59 -106 -33 -108 66 -4 41 42
76 74 79 71 3 -3 -4 -28 -16 -56 -20 -48 -21 -82 -2 -82 5 0 19 31 32 68 31
93 23 126 -24 100z"/>
<path d="M9745 7051 c-89 -41 -124 -112 -72 -145 33 -21 108 -25 137 -6 25 15
-1 31 -35 22 -43 -12 -95 4 -95 28 0 22 73 80 100 80 20 0 43 24 33 33 -10 11
-25 8 -68 -12z"/>
<path d="M2889 7052 c-30 -2 -37 -8 -47 -36 -22 -61 -15 -94 26 -115 27 -14
66 -4 101 25 26 23 27 71 3 100 -21 25 -36 30 -83 26z m59 -44 c24 -24 14 -58
-20 -73 -39 -16 -68 -4 -68 27 0 45 58 76 88 46z"/>
<path d="M9405 7033 c-3 -16 -18 -48 -32 -72 -29 -50 -38 -44 -51 31 -4 23
-14 44 -21 46 -11 4 -13 -6 -8 -51 3 -31 12 -66 20 -77 13 -19 11 -28 -25 -98
-41 -81 -54 -147 -29 -147 8 0 15 13 17 33 4 38 26 83 100 208 59 98 77 154
51 154 -8 0 -18 -12 -22 -27z"/>
<path d="M3758 7033 c-8 -10 -21 -34 -28 -53 -8 -19 -20 -46 -27 -59 l-12 -25
-11 30 c-26 73 -50 98 -72 76 -8 -8 -5 -16 10 -29 11 -10 27 -40 35 -68 l14
-50 -53 -104 c-30 -57 -54 -116 -54 -130 0 -15 -19 -51 -45 -84 l-44 -59 -16
34 c-22 42 -55 78 -72 78 -18 0 -17 -26 2 -33 8 -4 26 -29 40 -57 l26 -51 -42
-67 c-23 -37 -49 -72 -57 -78 -12 -8 -11 -12 4 -24 15 -13 18 -13 28 4 35 58
168 254 185 273 12 12 21 36 21 52 0 18 22 73 51 128 29 54 69 134 91 178 21
44 43 88 48 97 21 37 5 52 -22 21z"/>
<path d="M4096 6981 c-25 -38 -55 -76 -67 -85 -17 -11 -20 -19 -12 -27 14 -14
48 3 57 28 6 15 8 14 19 -7 19 -38 36 -35 81 14 24 25 46 46 48 46 3 0 3 -11
0 -25 -5 -30 13 -55 39 -55 22 0 25 16 5 27 -9 5 -16 28 -18 62 -2 30 -8 56
-15 58 -6 2 -30 -23 -53 -56 -24 -34 -47 -61 -51 -61 -17 0 -9 48 16 94 29 55
29 56 10 56 -8 0 -35 -31 -59 -69z"/>
<path d="M6430 7039 c-34 -14 -60 -39 -60 -58 0 -8 14 -29 31 -47 35 -36 32
-54 -11 -54 -22 0 -29 6 -34 26 -8 30 -30 27 -34 -5 -5 -35 15 -51 67 -51 77
0 93 39 41 99 -27 32 -28 35 -12 46 9 7 30 15 45 19 16 4 27 12 24 19 -5 16
-26 18 -57 6z"/>
<path d="M6887 7032 c-56 -38 -91 -106 -69 -138 24 -37 122 -42 122 -7 0 12
-7 14 -31 9 -34 -7 -69 8 -69 29 0 17 46 72 72 86 14 7 23 7 34 -2 22 -18 42
4 24 26 -17 20 -49 19 -83 -3z"/>
<path d="M7504 7040 c-24 -9 -64 -69 -64 -94 0 -9 11 -28 25 -41 20 -21 34
-25 84 -25 67 0 91 6 91 24 0 9 -21 12 -67 12 -38 -1 -70 3 -72 9 -2 5 13 19
34 31 46 26 59 47 45 74 -11 21 -40 25 -76 10z m46 -30 c0 -13 -62 -51 -70
-44 -6 7 47 54 61 54 5 0 9 -5 9 -10z"/>
<path d="M8285 7042 c-50 -17 -85 -60 -85 -106 0 -28 30 -43 57 -28 13 8 20 5
28 -11 16 -32 41 -28 37 5 -1 15 6 45 18 67 24 48 24 51 6 51 -8 0 -16 7 -20
15 -6 16 -10 17 -41 7z m17 -44 c4 -10 -55 -68 -68 -68 -11 0 -1 31 17 54 22
28 45 34 51 14z"/>
<path d="M4957 6998 c-18 -28 -27 -55 -27 -83 0 -71 41 -86 92 -35 27 27 30
36 25 71 -6 44 -31 89 -50 89 -7 0 -25 -19 -40 -42z m59 -45 c5 -24 1 -36 -15
-52 -12 -12 -25 -21 -31 -21 -16 0 -11 59 7 91 19 32 30 28 39 -18z"/>
<path d="M10278 7033 c-44 -3 -58 -8 -58 -19 0 -13 14 -15 88 -13 48 2 91 5
95 7 16 8 -16 32 -42 30 -14 -1 -52 -3 -83 -5z"/>
<path d="M2464 7004 c-15 -23 -16 -32 -5 -72 15 -58 34 -79 81 -93 65 -20 154
24 191 93 18 33 -24 21 -54 -17 -36 -45 -92 -62 -141 -41 -25 10 -37 23 -41
43 -4 15 -8 34 -11 41 -2 7 1 23 6 37 13 35 -5 41 -26 9z"/>
<path d="M3820 6988 c-26 -42 -25 -79 1 -112 37 -47 96 -30 124 37 20 48 19
54 -11 82 -40 38 -89 34 -114 -7z m103 -51 c-13 -52 -63 -75 -83 -38 -15 29
-12 45 11 75 l21 26 28 -20 c21 -15 27 -26 23 -43z"/>
<path d="M7083 6988 c-32 -35 -38 -66 -17 -89 22 -25 45 -24 78 2 29 23 32 42
14 82 -16 33 -47 35 -75 5z m54 -34 c6 -16 -19 -44 -39 -44 -12 0 -10 34 4 48
16 16 27 15 35 -4z"/>
<path d="M6223 6953 c-6 -27 -13 -55 -15 -63 -1 -8 4 -15 12 -15 17 0 46 85
37 109 -11 28 -22 17 -34 -31z"/>
<path d="M12333 6935 c-3 -9 -2 -19 1 -23 8 -8 38 10 44 26 6 18 -38 14 -45
-3z"/>
<path d="M13026 6905 c-14 -10 -17 -18 -10 -25 15 -15 64 5 64 25 0 19 -29 19
-54 0z"/>
<path d="M11607 6833 c-4 -3 -7 -13 -7 -20 0 -8 -14 -48 -31 -89 l-31 -74 -49
0 c-37 0 -49 -4 -49 -15 0 -11 11 -15 39 -15 l39 0 -34 -85 c-36 -89 -42 -119
-22 -113 7 3 29 46 49 98 21 51 44 97 51 101 13 9 68 13 68 5 0 -2 -18 -35
-40 -72 -44 -75 -48 -94 -24 -94 19 0 76 58 69 70 -3 5 3 9 12 9 10 -1 28 2
41 6 26 9 27 0 7 -48 -18 -44 -20 -80 -3 -75 14 5 46 92 47 130 1 37 -30 45
-74 19 -40 -23 -43 -19 -17 24 51 84 92 167 92 186 0 34 -16 18 -52 -51 -32
-61 -36 -65 -72 -68 -34 -3 -38 -1 -31 15 37 92 54 146 50 154 -7 11 -19 12
-28 2z"/>
<path d="M11141 6763 c-23 -101 -69 -200 -108 -231 -29 -23 -35 -33 -30 -53 8
-32 49 -54 98 -53 43 2 72 22 96 68 29 55 -12 111 -64 87 -23 -10 -25 -10 -18
6 25 62 65 190 65 210 0 45 -26 23 -39 -34z m25 -262 c-23 -44 -91 -58 -125
-26 -12 12 -11 16 10 25 13 6 42 22 64 35 33 20 42 22 53 11 12 -11 11 -19 -2
-45z"/>
<path d="M2230 6788 c-5 -13 -16 -63 -24 -111 -8 -49 -17 -91 -19 -94 -3 -2
-14 1 -25 8 -16 10 -24 9 -50 -10 -68 -48 -92 -120 -52 -156 17 -15 24 -16 49
-6 36 16 83 81 104 146 13 39 47 215 47 240 0 15 -22 2 -30 -17z m-75 -238 c4
-6 11 -7 17 -4 16 10 -12 -38 -40 -68 -34 -36 -62 -37 -62 -2 0 16 12 37 31
55 33 31 44 35 54 19z"/>
<path d="M10588 6758 c-30 -73 -100 -206 -144 -273 -26 -42 -33 -60 -25 -68
14 -14 70 47 71 78 1 11 4 14 7 7 3 -9 12 -6 31 9 l27 21 5 -48 c3 -34 10 -50
21 -52 14 -2 15 5 11 50 -5 63 -17 81 -48 74 -19 -5 -15 7 37 113 63 127 67
141 44 141 -8 0 -24 -23 -37 -52z"/>
<path d="M6251 6756 c-32 -33 -35 -56 -5 -56 8 0 14 7 14 15 0 9 16 25 35 36
40 24 45 39 12 39 -13 0 -37 -15 -56 -34z"/>
<path d="M7746 6739 c-4 -22 -15 -58 -26 -79 -17 -33 -26 -39 -62 -45 -55 -9
-83 -24 -71 -36 6 -6 25 -6 51 0 l42 9 -18 -30 c-9 -17 -36 -51 -59 -76 -24
-25 -43 -47 -43 -49 0 -2 12 -3 28 -3 23 1 35 13 82 85 l54 85 58 0 c46 0 58
3 58 16 0 12 -10 15 -45 13 -25 -2 -45 -1 -46 1 -1 3 6 30 16 61 17 54 16 89
-3 89 -5 0 -12 -18 -16 -41z"/>
<path d="M10426 6755 c-4 -14 -24 -52 -46 -86 -22 -34 -42 -70 -45 -80 -5 -15
-16 -19 -51 -19 -32 0 -44 -4 -44 -15 0 -10 11 -15 35 -15 22 0 35 -5 34 -12
-1 -26 -17 -53 -30 -53 -8 0 -15 -10 -17 -21 -2 -17 2 -21 22 -21 17 0 27 6
32 21 18 66 34 86 68 86 32 0 63 20 50 33 -3 3 -21 3 -40 0 -19 -3 -34 -3 -34
0 0 3 17 33 38 67 71 116 79 140 47 140 -7 0 -16 -11 -19 -25z"/>
<path d="M9000 6756 c0 -7 -6 -19 -14 -25 -8 -7 -24 -44 -36 -84 -32 -111 -84
-197 -118 -197 -10 0 -12 7 -7 27 9 37 23 53 46 53 11 0 19 7 19 15 0 28 -47
17 -73 -17 -32 -44 -39 -66 -27 -89 15 -28 63 -25 95 6 34 35 54 75 90 180 22
67 36 93 53 100 26 11 29 30 6 39 -24 9 -34 7 -34 -8z"/>
<path d="M6466 6700 l-37 -60 -50 0 c-61 0 -64 -23 -5 -28 31 -3 36 -6 31 -20
-12 -29 -18 -90 -11 -115 3 -14 18 -30 35 -37 25 -10 34 -9 60 6 31 18 42 44
19 44 -7 0 -21 -7 -32 -15 -28 -21 -56 -2 -56 38 0 38 31 103 48 100 27 -6
112 19 112 33 0 17 -12 17 -63 3 -22 -6 -41 -8 -44 -5 -3 2 9 25 27 50 28 42
32 66 11 66 -5 0 -25 -27 -45 -60z"/>
<path d="M14098 6743 c-15 -17 -95 -150 -143 -238 -21 -39 -87 -87 -101 -73
-14 15 8 60 37 76 52 29 62 39 55 50 -10 16 -77 -19 -105 -54 -62 -78 -14
-132 78 -86 23 12 44 35 65 74 65 120 115 204 135 225 12 12 21 27 21 33 0 16
-25 12 -42 -7z"/>
<path d="M5246 6728 c-3 -7 -10 -30 -16 -50 -6 -21 -16 -38 -21 -38 -5 0 -21
18 -35 40 -15 22 -30 40 -35 40 -21 0 -18 -24 10 -62 37 -50 28 -73 -25 -64
-34 7 -64 0 -64 -15 0 -5 11 -9 24 -9 40 0 39 -17 -4 -51 -40 -32 -52 -59 -26
-59 7 0 34 23 60 50 51 54 72 64 60 28 -11 -33 -11 -77 1 -78 5 -1 16 22 24
50 7 28 19 49 25 47 6 -2 24 -23 40 -46 18 -27 32 -39 38 -33 10 10 -13 65
-32 77 -18 11 -10 25 15 25 16 0 25 6 25 15 0 10 -11 15 -35 15 -19 0 -35 4
-35 9 0 9 83 77 103 84 9 3 9 8 0 17 -9 10 -18 8 -42 -9 l-31 -22 2 22 c3 24
-19 39 -26 17z"/>
<path d="M5652 6730 c-39 -9 -49 -17 -36 -29 5 -6 29 -5 59 1 99 19 168 -20
151 -87 -9 -36 -72 -102 -119 -127 -46 -23 -46 -25 -4 77 34 81 44 135 25 135
-8 0 -23 -9 -34 -21 -14 -16 -15 -22 -5 -28 12 -8 9 -18 -56 -178 -3 -7 -17
-13 -31 -13 -24 0 -24 1 -9 18 21 22 21 32 4 32 -18 0 -47 -32 -47 -52 0 -34
82 -38 149 -8 56 26 99 62 134 113 76 112 -23 205 -181 167z"/>
<path d="M7530 6675 c-10 -12 -9 -16 3 -21 20 -7 37 3 37 22 0 18 -24 18 -40
-1z"/>
<path d="M10172 6623 c5 -25 28 -28 28 -4 0 12 -6 21 -16 21 -9 0 -14 -7 -12
-17z"/>
<path d="M3035 6613 c-57 -29 -95 -74 -95 -110 0 -26 6 -36 24 -44 20 -10 32
-7 71 14 37 21 47 23 50 12 3 -8 7 -22 10 -31 11 -33 29 -7 27 37 -2 34 3 52
22 78 15 19 26 41 26 48 0 20 -24 15 -38 -8 l-14 -21 -14 21 c-18 25 -29 26
-69 4z m40 -34 c4 -6 13 -8 21 -5 11 4 11 2 2 -13 -14 -23 -108 -82 -120 -75
-25 16 5 63 57 92 25 14 32 15 40 1z"/>
<path d="M3275 6616 c-19 -14 -19 -15 -2 -50 21 -45 21 -60 1 -77 -14 -11 -18
-10 -30 6 -11 15 -17 16 -26 7 -19 -19 3 -46 40 -50 24 -2 34 3 48 22 16 25
16 51 -1 103 -6 19 -3 22 26 25 18 2 34 9 37 16 5 17 -69 16 -93 -2z"/>
<path d="M12410 6613 c-30 -11 -39 -32 -28 -69 11 -42 3 -90 -18 -98 -8 -3
-25 -1 -38 4 -18 7 -23 14 -19 29 7 27 -23 29 -32 2 -9 -30 5 -50 46 -62 70
-21 109 30 94 121 -6 38 -6 40 20 40 20 0 26 4 23 17 -3 19 -23 25 -48 16z"/>
<path d="M3998 6590 c-39 -21 -78 -64 -78 -87 0 -8 11 -25 25 -38 26 -27 90
-34 139 -15 49 18 29 31 -37 24 -52 -5 -66 -3 -80 11 -25 24 -6 53 54 79 46
20 58 39 28 43 -8 1 -30 -6 -51 -17z"/>
<path d="M7015 6584 c-33 -14 -66 -26 -73 -28 -13 -2 -16 -9 -10 -28 3 -9 24
-4 67 16 34 15 65 26 67 23 3 -3 -18 -31 -45 -62 -53 -60 -59 -73 -40 -92 15
-15 47 -3 105 39 l44 32 16 -22 c22 -32 33 -27 55 26 11 26 24 55 29 64 6 11
6 19 -2 24 -15 9 -48 -32 -48 -59 0 -16 -3 -18 -12 -9 -19 19 -33 15 -105 -35
l-68 -46 38 44 c86 101 90 108 77 124 -16 20 -25 19 -95 -11z"/>
<path d="M8502 6599 c-46 -14 -94 -82 -90 -129 4 -50 39 -65 109 -48 83 20 76
40 -10 32 l-71 -7 0 26 c0 40 53 94 100 102 25 4 40 12 40 21 0 16 -29 17 -78
3z"/>
<path d="M9085 6596 c-31 -13 -85 -69 -85 -87 0 -5 -11 -14 -25 -19 -30 -11
-33 -30 -5 -30 11 0 20 -6 20 -14 0 -44 99 -71 165 -46 27 10 30 38 4 31 -46
-12 -106 -11 -124 3 -24 18 -15 29 37 46 62 19 99 85 66 118 -15 15 -15 15
-53 -2z m35 -32 c0 -19 -24 -43 -51 -53 -44 -15 -47 -7 -11 29 27 26 62 40 62
24z"/>
<path d="M9835 6591 c-77 -27 -99 -41 -87 -53 8 -8 26 -5 63 11 29 11 54 20
56 18 1 -2 -17 -26 -42 -53 -76 -82 -56 -113 40 -64 l60 31 26 -32 c41 -50 72
-23 94 79 6 29 5 33 -11 30 -12 -2 -21 -17 -26 -43 -11 -53 -22 -61 -42 -31
-20 31 -39 32 -91 6 -21 -11 -40 -18 -42 -17 -1 2 20 25 47 52 80 79 62 105
-45 66z"/>
<path d="M1900 6583 c-13 -9 -35 -17 -48 -18 -19 0 -28 -9 -42 -48 -25 -66 -8
-69 54 -8 28 28 54 51 58 51 9 0 -3 -42 -20 -68 -11 -18 -12 -25 -2 -37 17
-20 30 -19 30 4 0 10 7 35 15 54 32 77 11 109 -45 70z"/>
<path d="M3753 6579 c-18 -12 -33 -16 -33 -10 0 6 -6 11 -13 11 -6 0 -22 -26
-35 -58 -38 -100 -27 -108 38 -28 25 30 55 59 68 65 20 10 22 8 22 -17 -1 -15
-7 -38 -15 -52 -18 -32 -19 -50 -2 -50 21 0 49 71 45 116 -4 47 -27 55 -75 23z"/>
<path d="M12662 6520 c-43 -67 -50 -82 -36 -87 9 -3 19 -2 23 3 20 27 111 107
116 102 3 -3 -10 -26 -29 -51 -25 -33 -31 -48 -23 -56 6 -6 14 -11 18 -11 10
0 79 127 79 144 0 24 -26 25 -61 4 -19 -11 -28 -14 -21 -7 6 7 12 19 12 26 0
32 -29 7 -78 -67z"/>
<path d="M12939 6572 c-54 -34 -99 -86 -99 -113 0 -43 19 -61 63 -58 23 1 50
6 60 11 32 16 17 27 -35 25 -44 -2 -53 1 -56 16 -5 23 68 92 115 109 35 13 45
38 15 38 -10 0 -38 -13 -63 -28z"/>
<path d="M1653 6546 c-52 -52 -55 -85 -10 -100 22 -8 30 -7 37 4 6 8 10 11 10
6 0 -5 7 -3 16 5 13 11 15 11 14 -2 -5 -31 1 -49 15 -49 10 0 15 10 15 33 0
17 7 52 16 76 20 57 13 71 -32 71 -30 0 -45 -8 -81 -44z m87 6 c0 -31 -82 -93
-95 -72 -8 13 58 80 79 80 9 0 16 -3 16 -8z"/>
<path d="M5924 6579 c-27 -13 -54 -60 -54 -93 0 -54 79 -57 99 -4 10 27 0 100
-14 104 -6 1 -19 -2 -31 -7z m2 -97 c-25 -25 -33 12 -10 46 l19 27 3 -29 c2
-16 -3 -35 -12 -44z"/>
<path d="M7305 6558 c-58 -63 -67 -77 -61 -93 5 -14 9 -14 37 0 21 11 29 21
25 32 -9 23 33 65 57 57 14 -5 18 -2 15 13 -6 31 -41 27 -73 -9z"/>
<path d="M7860 6579 c-32 -13 -78 -56 -96 -91 -19 -36 -4 -75 31 -84 27 -7
161 28 179 46 22 22 -8 22 -83 0 -44 -12 -84 -19 -90 -16 -20 13 -11 36 17 42
43 11 100 42 111 62 12 22 -4 52 -27 51 -9 0 -28 -5 -42 -10z m40 -24 c0 -7
-62 -45 -73 -45 -17 0 7 22 37 36 36 16 36 15 36 9z"/>
<path d="M8661 6559 c-36 -36 -47 -69 -32 -97 37 -69 156 -2 136 77 -15 60
-56 68 -104 20z m64 -9 c-4 -6 -1 -17 5 -25 9 -11 6 -20 -14 -40 -15 -15 -32
-25 -39 -22 -22 7 -20 48 4 73 22 23 56 34 44 14z"/>
<path d="M4311 6558 c-44 -23 -71 -51 -59 -63 3 -4 23 4 45 18 58 36 73 40 73
18 0 -34 34 -64 70 -63 40 1 76 32 66 58 -6 16 -8 15 -29 -5 -40 -36 -72 -24
-72 29 0 34 -37 37 -94 8z"/>
<path d="M6150 6570 c-8 -5 -23 -7 -32 -4 -12 3 -29 -11 -57 -46 -23 -29 -41
-56 -41 -61 0 -20 35 -7 81 32 27 23 46 34 43 25 -16 -41 32 -104 59 -77 7 7
3 16 -12 29 -21 16 -22 21 -12 57 6 22 11 43 11 48 0 10 -22 9 -40 -3z"/>
<path d="M12502 6505 c-2 -72 -5 -79 -42 -126 -60 -76 -104 -159 -92 -171 8
-8 19 3 39 37 15 26 72 107 125 179 54 72 98 137 98 144 0 22 -25 13 -43 -15
-9 -16 -25 -39 -35 -51 l-18 -24 0 48 c1 35 -3 49 -14 51 -12 3 -16 -11 -18
-72z"/>
<path d="M11286 6545 c-13 -14 -32 -42 -41 -62 -16 -34 -16 -37 2 -61 l20 -26
-88 -121 c-49 -66 -103 -140 -121 -165 -18 -25 -49 -66 -70 -92 -25 -30 -35
-49 -28 -53 15 -9 51 25 92 86 22 32 40 49 54 49 12 0 35 5 53 11 18 6 35 9
38 6 7 -8 -19 -107 -28 -107 -4 0 -6 -10 -4 -21 11 -56 30 -34 56 66 11 44 27
84 35 88 16 9 19 34 5 39 -5 2 1 41 15 87 13 46 24 92 24 103 0 11 14 33 30
48 33 31 40 76 17 119 -17 35 -33 36 -61 6z m44 -62 c0 -25 -24 -53 -46 -53
-21 0 -17 38 7 72 23 32 39 25 39 -19z m-93 -240 c-13 -50 -27 -84 -37 -87
-81 -25 -82 -25 -77 -12 7 16 130 186 133 183 2 -1 -7 -39 -19 -84z"/>
<path d="M13475 6552 c-38 -24 -52 -40 -60 -73 -9 -38 17 -57 58 -41 19 7 35
8 40 3 13 -13 37 -2 37 18 0 9 7 26 15 39 14 19 14 24 -1 47 -19 30 -48 32
-89 7z m55 -20 c0 -13 -23 -38 -52 -57 -27 -17 -28 -17 -28 3 0 12 13 29 33
41 34 22 47 26 47 13z"/>
<path d="M13647 6538 c-9 -18 -26 -48 -37 -65 -20 -30 -20 -33 -5 -39 9 -4 20
-3 24 2 8 12 87 74 94 74 3 0 3 -15 0 -34 -3 -20 -1 -36 6 -40 13 -8 25 20 34
77 8 50 -12 58 -59 22 -31 -24 -34 -25 -25 -7 15 27 14 42 -2 42 -7 0 -21 -15
-30 -32z"/>
<path d="M7432 6526 c-13 -19 -22 -43 -20 -53 5 -26 33 -22 34 5 1 12 9 31 18
41 9 9 16 23 16 29 0 23 -25 11 -48 -22z"/>
<path d="M10102 6478 c-26 -50 -27 -58 -7 -58 14 0 55 67 55 90 0 25 -27 6
-48 -32z"/>
<path d="M14722 6448 c-5 -7 -26 -74 -46 -148 -58 -216 -118 -314 -179 -291
-15 6 -27 17 -27 25 0 19 87 86 111 86 11 0 19 7 19 15 0 32 -62 11 -119 -41
-59 -53 -51 -101 21 -119 69 -17 130 65 183 245 15 52 36 122 46 154 11 33 19
66 19 73 0 16 -15 17 -28 1z"/>
<path d="M14462 6293 c-103 -184 -130 -266 -97 -293 18 -15 17 -16 20 35 3 45
51 154 114 260 39 67 51 105 32 105 -5 0 -36 -48 -69 -107z"/>
<path d="M11912 6350 c-55 -41 -81 -86 -90 -156 -8 -64 -17 -71 -95 -73 -26
-1 -37 -5 -34 -13 3 -9 24 -13 61 -12 56 1 57 1 51 -23 -9 -38 -36 -74 -62
-84 -27 -10 -22 -29 7 -29 27 0 79 68 87 113 3 22 11 37 19 37 8 0 14 7 14 15
0 8 -4 15 -10 15 -13 0 -13 45 0 90 14 52 77 110 115 107 24 -2 31 2 33 21 5
33 -44 29 -96 -8z"/>
<path d="M4539 6273 l-45 -87 -54 -11 c-41 -7 -56 -15 -58 -29 -5 -23 15 -46
26 -30 10 15 48 34 55 28 3 -4 2 -17 -4 -31 -13 -34 -11 -87 3 -101 14 -14 84
-16 92 -3 7 11 -17 21 -50 21 -19 0 -24 5 -24 25 0 14 6 41 14 60 12 28 21 35
58 42 33 7 43 13 43 28 0 21 -5 22 -44 10 -23 -7 -23 -5 12 58 35 61 47 107
29 107 -4 0 -28 -39 -53 -87z"/>
<path d="M9573 6340 c-3 -12 -16 -42 -28 -66 -14 -28 -18 -45 -11 -48 6 -2 4
-5 -5 -5 -8 -1 -25 -21 -37 -46 -18 -37 -27 -45 -49 -45 -57 0 -103 -13 -103
-27 0 -12 11 -14 50 -10 28 3 50 3 50 0 0 -12 -45 -90 -58 -99 -18 -13 -8 -34
16 -33 11 0 28 23 47 62 l30 62 53 3 c61 4 68 25 9 30 l-36 3 50 101 c27 56
49 107 49 114 0 23 -21 26 -27 4z"/>
<path d="M12636 6245 l-39 -104 -51 -3 c-60 -4 -64 -22 -6 -26 22 -2 40 -6 40
-10 0 -13 -26 -81 -33 -88 -13 -14 -7 -34 11 -34 13 0 23 16 37 63 20 61 21
62 58 65 44 4 46 25 4 30 -15 2 -27 6 -27 8 0 3 16 43 35 90 38 90 42 114 23
114 -7 0 -30 -47 -52 -105z"/>
<path d="M10199 6324 c-8 -9 -14 -22 -14 -28 0 -6 -14 -39 -30 -74 l-30 -63
-45 3 c-35 2 -45 0 -45 -12 0 -10 12 -16 37 -18 l38 -3 -21 -42 c-12 -23 -35
-54 -52 -70 -25 -23 -28 -30 -16 -38 26 -16 34 -9 84 76 37 64 56 87 75 91 74
16 101 51 30 39 -46 -8 -46 -10 4 92 14 29 26 55 26 58 0 12 -29 4 -41 -11z"/>
<path d="M13902 6303 c1 -10 -29 -80 -65 -156 -64 -132 -78 -177 -58 -177 6 0
16 8 23 18 16 22 90 82 100 82 5 0 -1 -16 -12 -37 -19 -35 -19 -53 0 -53 13 0
60 94 60 120 0 26 -19 25 -61 -3 -19 -13 -39 -26 -46 -30 -11 -7 29 89 76 182
26 50 27 71 2 71 -13 0 -19 -6 -19 -17z"/>
<path d="M4770 6275 c0 -16 6 -25 15 -25 9 0 15 9 15 25 0 16 -6 25 -15 25 -9
0 -15 -9 -15 -25z"/>
<path d="M9720 6289 c0 -16 -84 -178 -126 -245 -22 -35 -33 -62 -29 -72 6 -15
8 -15 21 2 8 11 14 16 14 12 0 -4 19 9 42 29 42 36 59 34 39 -4 -15 -27 -14
-51 2 -51 15 0 52 94 42 110 -8 13 -52 13 -60 0 -3 -5 -10 -10 -15 -10 -5 0
14 41 41 92 57 104 70 148 45 148 -9 0 -16 -5 -16 -11z"/>
<path d="M8849 6283 c-1 -5 -1 -12 0 -16 1 -4 -15 -37 -35 -73 l-36 -64 -69 0
c-55 0 -69 -3 -69 -15 0 -11 13 -15 54 -15 l55 0 -30 -56 c-29 -56 -31 -89 -5
-107 16 -11 89 1 102 18 6 8 14 13 18 10 3 -3 2 0 -3 6 -6 8 -20 7 -47 0 -22
-6 -42 -11 -46 -11 -18 0 -6 49 24 96 30 47 36 51 73 52 54 2 95 12 95 22 0
16 -17 19 -67 11 l-50 -7 39 65 c21 36 38 71 38 78 0 14 -39 19 -41 6z"/>
<path d="M10456 6208 c-20 -29 -52 -75 -71 -102 -27 -37 -33 -52 -24 -60 8 -8
14 -6 23 8 6 11 23 33 37 50 44 53 98 139 93 148 -10 16 -22 7 -58 -44z"/>
<path d="M12800 6245 c0 -10 7 -15 18 -13 21 4 19 22 -2 26 -10 2 -16 -3 -16
-13z"/>
<path d="M2052 6188 c-34 -17 -37 -50 -10 -98 23 -41 23 -41 3 -56 -11 -8 -25
-12 -32 -9 -7 3 -20 8 -28 11 -23 9 -19 -23 4 -36 31 -16 56 -12 79 13 27 29
28 53 2 92 -26 39 -25 44 6 55 14 6 24 15 22 22 -6 17 -19 18 -46 6z"/>
<path d="M5365 6182 c-22 -11 -47 -27 -54 -36 -13 -16 -11 -22 27 -56 49 -45
51 -57 16 -70 -38 -15 -64 -12 -64 6 0 9 -7 14 -17 12 -28 -5 -22 -41 8 -52
32 -11 93 0 114 20 24 25 18 54 -20 90 -19 18 -35 35 -35 37 0 7 52 26 80 30
30 5 34 31 5 34 -11 2 -38 -5 -60 -15z"/>
<path d="M3704 6158 c-19 -17 -44 -48 -55 -70 -11 -21 -22 -38 -25 -38 -2 0 0
9 6 19 14 27 13 41 -5 41 -16 0 -38 -45 -50 -101 -4 -19 -19 -58 -33 -87 -17
-36 -22 -56 -15 -63 11 -11 39 24 84 99 11 18 24 30 29 27 26 -16 100 48 125
109 33 77 -3 115 -61 64z m46 -13 c0 -34 -81 -137 -96 -123 -6 6 36 79 64 111
14 16 32 23 32 12z"/>
<path d="M1789 6160 c-40 -21 -89 -74 -89 -95 0 -37 61 -35 102 2 17 15 18 14
18 -18 0 -33 14 -59 32 -59 5 0 6 16 2 36 -4 21 -1 52 7 76 22 68 -8 92 -72
58z m7 -55 c-41 -36 -61 -44 -54 -22 5 14 66 57 82 57 6 -1 -7 -16 -28 -35z"/>
<path d="M2458 6145 c-33 -24 -45 -30 -44 -18 2 30 -21 24 -34 -9 -8 -18 -26
-52 -42 -75 -27 -40 -36 -73 -20 -73 4 0 45 38 91 85 45 47 87 85 92 85 17 0
9 -26 -26 -84 -32 -54 -37 -76 -15 -76 13 0 67 93 78 134 8 29 7 39 -5 51 -20
21 -24 20 -75 -20z"/>
<path d="M6101 6155 c-30 -17 -48 -22 -54 -16 -12 12 -37 -4 -37 -24 0 -7 -16
-36 -35 -65 -19 -29 -35 -58 -35 -66 0 -28 26 -12 59 37 34 50 79 90 113 102
13 5 10 -9 -17 -59 -39 -74 -42 -86 -20 -104 12 -10 21 -10 40 -2 30 14 33 32
5 32 -27 0 -26 8 16 89 33 62 39 101 17 101 -4 0 -28 -12 -52 -25z"/>
<path d="M6710 6148 c0 -58 -19 -105 -56 -137 -39 -35 -47 -34 -70 11 -13 25
-20 29 -45 26 -28 -4 -39 5 -19 17 16 10 11 41 -9 59 -17 15 -24 16 -60 5 -41
-12 -69 -34 -58 -45 3 -4 26 1 51 9 67 23 68 3 5 -53 -40 -36 -51 -51 -43 -60
8 -8 22 -7 53 6 35 14 41 20 36 38 -5 19 -5 19 5 3 7 -11 18 -16 30 -12 13 4
23 -1 31 -17 31 -58 62 -60 116 -10 44 40 67 98 61 154 -4 44 -28 49 -28 6z"/>
<path d="M7276 6149 c-14 -17 -26 -34 -26 -37 -1 -4 -13 -21 -28 -39 l-28 -32
4 64 c4 53 2 65 -11 65 -11 0 -16 -15 -20 -57 -3 -32 -8 -69 -13 -82 -6 -21
-5 -22 15 -12 14 8 -2 -22 -47 -86 -74 -105 -92 -135 -92 -152 0 -28 23 -3 91
97 40 59 101 144 136 190 35 45 66 89 70 97 10 27 -24 16 -51 -16z"/>
<path d="M13715 6170 l-30 -6 3 -65 c2 -68 -10 -94 -48 -99 -34 -5 -40 0 -34
25 4 18 2 25 -9 25 -15 0 -27 -20 -27 -46 0 -7 11 -21 24 -29 30 -20 66 -12
102 22 25 23 26 29 20 84 -5 54 -4 59 14 59 22 0 37 18 24 29 -5 4 -22 5 -39
1z"/>
<path d="M13097 6133 c-20 -14 -37 -29 -37 -34 0 -4 -6 -9 -13 -12 -10 -4 -13
2 -9 19 2 13 0 24 -5 24 -13 0 -83 -111 -77 -122 11 -17 32 -6 94 46 36 30 66
54 67 52 1 -1 -2 -16 -9 -32 -16 -44 -4 -79 33 -94 26 -11 33 -11 45 2 14 14
12 16 -15 21 -42 9 -47 28 -22 87 32 75 14 90 -52 43z"/>
<path d="M2664 6106 c-24 -24 -44 -52 -44 -63 0 -26 38 -59 78 -68 27 -6 32
-4 32 12 0 13 -8 19 -27 21 -15 1 -32 7 -37 12 -17 17 7 63 46 89 21 13 35 28
32 32 -11 19 -39 7 -80 -35z"/>
<path d="M3833 6121 c-21 -16 -48 -40 -61 -55 -20 -24 -22 -31 -12 -61 12 -36
26 -45 71 -45 19 0 29 5 29 15 0 8 0 18 0 23 0 10 -23 10 -37 -1 -13 -9 -33
-2 -33 12 0 5 13 14 30 21 44 18 80 56 80 83 0 37 -24 39 -67 8z m31 -25 c-3
-7 -17 -19 -32 -25 -27 -12 -27 -12 3 13 35 30 36 30 29 12z"/>
<path d="M4069 6141 c-27 -10 -113 -95 -126 -124 -11 -24 -11 -29 4 -34 9 -4
19 -1 21 5 2 6 24 36 49 67 36 44 51 55 71 53 14 -2 27 2 29 9 6 15 -28 32
-48 24z"/>
<path d="M7384 6128 c-40 -32 -80 -77 -101 -115 -16 -31 -16 -33 2 -52 24 -27
45 -26 106 4 78 40 110 111 73 163 -19 28 -44 28 -80 0z m64 -44 c5 -37 -48
-88 -115 -108 -39 -12 -28 26 23 83 50 55 86 65 92 25z"/>
<path d="M12857 6115 c-57 -56 -63 -110 -14 -133 38 -18 77 -4 101 37 16 27
17 41 10 79 -12 63 -44 69 -97 17z m68 -55 c-10 -37 -24 -50 -56 -50 -40 0
-38 29 3 76 30 34 33 35 45 17 8 -10 11 -28 8 -43z"/>
<path d="M2230 6078 c-16 -35 -29 -55 -30 -46 0 29 -22 68 -38 68 -10 0 -12
-7 -8 -22 32 -112 32 -106 -23 -211 -28 -53 -51 -104 -51 -112 0 -30 29 -14
41 22 7 21 25 59 41 85 16 26 47 89 69 140 22 51 45 97 50 103 14 14 11 35 -7
35 -9 0 -27 -25 -44 -62z"/>
<path d="M3407 6122 c-39 -26 -58 -57 -59 -94 -1 -30 22 -58 47 -58 22 0 79
45 98 77 16 28 17 36 5 60 -16 35 -52 40 -91 15z m66 -28 c9 -9 -11 -44 -37
-66 -49 -41 -76 -6 -35 46 19 24 57 35 72 20z"/>
<path d="M7596 6088 c-27 -28 -64 -57 -82 -64 -36 -15 -61 -49 -44 -59 12 -7
22 -2 71 37 35 27 37 27 42 8 5 -20 47 -29 47 -10 0 6 7 10 16 10 8 0 12 5 9
10 -3 6 3 10 14 10 14 0 21 -8 23 -27 2 -17 9 -28 18 -28 10 0 14 8 13 23 -2
13 4 39 12 59 33 78 10 84 -60 13 -27 -27 -53 -50 -57 -50 -10 0 18 58 39 82
14 16 11 39 -5 37 -4 0 -29 -23 -56 -51z"/>
<path d="M8504 6121 c-38 -23 -74 -68 -74 -91 0 -9 9 -25 19 -35 19 -16 22
-16 58 1 48 24 78 79 63 118 -11 31 -24 32 -66 7z m20 -36 c-4 -9 -1 -15 7
-15 7 0 3 -10 -11 -25 -24 -25 -60 -34 -60 -14 0 11 54 69 64 69 3 0 3 -7 0
-15z"/>
<path d="M12110 6129 c-13 -6 -32 -17 -41 -25 -15 -14 -18 -14 -28 3 -9 16
-16 12 -62 -39 -68 -78 -115 -77 -74 1 14 27 11 41 -7 41 -5 0 -18 -20 -29
-45 -15 -34 -17 -49 -9 -64 24 -45 72 -35 128 27 32 36 32 37 22 8 -15 -42 5
-61 28 -26 29 42 63 80 82 90 16 9 17 6 9 -28 -13 -55 -11 -94 3 -90 15 5 39
115 32 141 -6 19 -17 20 -54 6z"/>
<path d="M6245 6106 c-34 -24 -58 -73 -51 -102 14 -53 82 -54 142 -2 38 33 44
69 18 106 -19 27 -71 26 -109 -2z m85 -21 c19 -23 -1 -58 -45 -79 -28 -14 -39
-15 -51 -6 -21 18 -18 28 20 66 37 37 57 42 76 19z"/>
<path d="M14236 6085 c-26 -44 -62 -73 -74 -60 -3 3 -1 15 6 25 16 26 15 50
-1 50 -16 0 -49 -74 -41 -94 19 -50 105 -4 147 80 15 29 14 44 -4 44 -4 0 -19
-20 -33 -45z"/>
<path d="M4645 6088 c-9 -18 -22 -44 -30 -57 -15 -26 -12 -41 8 -41 14 1 57
86 57 113 0 28 -18 20 -35 -15z"/>
<path d="M5052 6094 c-28 -17 -39 -29 -35 -40 5 -13 8 -13 30 1 33 22 38 14
14 -26 -26 -45 -16 -63 32 -54 20 4 44 16 54 27 18 21 18 21 -19 14 -31 -6
-38 -4 -38 9 0 9 7 23 15 31 19 19 19 50 1 57 -7 3 -32 -6 -54 -19z"/>
<path d="M9809 6082 c-42 -42 -48 -62 -24 -82 11 -9 23 -9 43 -2 24 8 32 7 44
-7 8 -9 12 -23 10 -30 -3 -8 0 -11 6 -7 10 6 21 61 25 126 2 33 0 35 -31 38
-27 3 -40 -4 -73 -36z m81 -1 c0 -11 -45 -44 -73 -54 -16 -6 -16 -5 -1 19 24
36 74 60 74 35z"/>
<path d="M12304 6110 c-42 -9 -91 -45 -100 -72 -9 -29 45 -78 84 -77 42 2 75
13 80 28 4 11 -5 12 -42 7 -51 -8 -100 12 -90 37 7 21 59 47 91 47 16 0 33 3
36 7 7 7 -11 34 -22 32 -3 -1 -20 -4 -37 -9z"/>
<path d="M12743 6108 c-15 -17 -43 -87 -43 -104 0 -30 22 -11 47 42 17 36 22
59 16 65 -6 6 -13 5 -20 -3z"/>
<path d="M8308 6101 c-59 -12 -101 -58 -77 -87 18 -22 60 -18 66 6 6 21 6 21
21 -1 11 -17 12 -23 2 -29 -7 -4 -22 -32 -34 -61 l-21 -53 -51 3 c-42 2 -54
-2 -75 -23 -48 -47 -63 -142 -29 -176 19 -19 23 -19 49 -6 46 24 119 134 105
159 -5 9 -4 9 7 0 15 -15 49 -17 49 -4 0 5 -7 14 -15 21 -11 9 -12 17 -4 32
13 25 69 198 69 216 0 13 -6 13 -62 3z m-8 -51 c-26 -20 -40 -25 -40 -14 0 11
34 33 50 33 10 1 6 -6 -10 -19z m-60 -210 c0 -36 -75 -140 -100 -140 -16 0
-22 21 -15 60 10 58 39 90 81 90 19 0 34 -5 34 -10z"/>
<path d="M4215 6091 c-30 -13 -57 -47 -53 -68 2 -13 13 -18 38 -19 57 -2 60
-3 54 -19 -4 -9 0 -15 10 -15 10 0 16 9 16 23 0 12 3 32 6 44 4 14 -1 28 -15
42 -23 23 -26 24 -56 12z m15 -46 c-33 -19 -46 -19 -30 0 7 8 22 15 34 15 20
-1 20 -2 -4 -15z"/>
<path d="M14022 6070 c-45 -33 -52 -57 -24 -83 44 -40 106 5 100 72 -4 47 -23
50 -76 11z m43 -32 c-10 -32 -21 -42 -41 -34 -15 6 -15 9 6 31 29 31 43 32 35
3z"/>
<path d="M4964 6058 c-9 -18 -27 -45 -41 -59 -19 -21 -21 -28 -11 -37 10 -8
24 0 59 31 42 39 45 44 35 70 -13 35 -22 34 -42 -5z"/>
<path d="M4752 6049 c-64 -68 -10 -145 74 -105 41 19 55 50 42 88 -6 16 -11
28 -11 29 -1 0 -21 2 -44 5 -33 4 -45 1 -61 -17z m83 -39 c0 -32 -46 -60 -68
-41 -21 17 -7 54 24 62 35 10 44 5 44 -21z"/>
<path d="M2743 5995 c0 -8 4 -15 9 -15 4 0 8 7 8 15 0 8 -4 15 -8 15 -5 0 -9
-7 -9 -15z"/>
<path d="M5655 5960 c-7 -32 -49 -81 -100 -117 -24 -17 -27 -24 -18 -34 10
-10 22 -4 60 27 59 51 81 80 89 122 9 43 -21 46 -31 2z"/>
<path d="M10570 5924 c-6 -14 -10 -28 -10 -31 0 -2 -21 -49 -47 -103 -45 -95
-48 -98 -87 -106 -52 -12 -64 -40 -12 -30 20 4 36 3 36 -2 0 -5 -11 -36 -25
-70 -30 -74 -32 -105 -8 -100 11 2 18 14 20 29 1 14 13 55 28 91 l26 66 72 17
c87 21 113 33 100 46 -7 7 -34 4 -77 -7 -37 -9 -69 -14 -72 -12 -2 3 18 52 46
109 27 57 50 110 50 117 0 22 -30 12 -40 -14z"/>
<path d="M13382 5925 c-37 -31 -92 -114 -118 -177 -18 -44 -21 -47 -64 -52
-25 -3 -56 -4 -69 -3 -13 1 -26 -3 -28 -10 -5 -13 98 -30 116 -18 6 3 11 3 11
0 0 -15 -46 -94 -76 -131 -36 -43 -43 -64 -21 -64 17 1 92 102 114 155 16 41
21 45 50 43 18 -1 35 1 39 4 11 12 -7 28 -32 28 -13 0 -24 3 -24 6 0 4 14 35
31 69 32 66 104 149 120 140 14 -9 29 4 22 20 -8 22 -38 18 -71 -10z"/>
<path d="M3267 5863 c-22 -97 -59 -189 -86 -215 -44 -40 -14 -98 52 -98 28 0
44 8 70 35 l35 36 6 -24 c10 -40 51 -60 109 -54 58 7 105 33 88 50 -7 7 -14 7
-23 -1 -8 -6 -36 -14 -64 -17 -46 -6 -53 -5 -67 15 -18 26 -12 66 9 49 30 -24
114 25 114 67 0 52 -94 36 -141 -24 l-19 -25 0 26 c0 36 -27 60 -60 53 l-27
-5 28 97 c14 53 25 100 22 105 -14 23 -30 -2 -46 -70z m53 -190 c0 -51 -102
-120 -124 -84 -8 13 55 93 84 108 30 15 40 9 40 -24z m160 27 c0 -13 -34 -30
-62 -30 -22 0 -21 1 7 20 32 21 55 26 55 10z"/>
<path d="M10172 5908 c-7 -7 -12 -23 -12 -36 0 -13 -23 -92 -51 -174 -51 -152
-57 -190 -28 -196 13 -2 17 9 22 55 3 32 20 94 37 138 55 141 72 253 32 213z"/>
<path d="M14430 5908 c0 -22 -74 -173 -90 -182 -8 -5 -27 -10 -42 -10 -40 -1
-35 -20 6 -24 32 -3 34 -5 26 -31 -11 -40 -31 -75 -47 -84 -17 -10 -7 -27 16
-27 18 0 53 62 65 117 7 29 11 33 54 38 26 3 53 9 60 13 17 9 17 25 1 31 -7 2
-9 -1 -4 -9 6 -10 4 -12 -9 -7 -10 4 -31 7 -46 7 l-29 0 35 76 c38 83 41 104
19 104 -8 0 -15 -5 -15 -12z"/>
<path d="M10270 5895 c-14 -16 -6 -35 16 -35 8 0 14 10 14 25 0 28 -12 32 -30
10z"/>
<path d="M11447 5874 c-20 -13 -37 -29 -37 -34 0 -6 -3 -9 -7 -8 -14 4 -73
-36 -73 -49 0 -22 23 -15 74 22 27 19 51 33 54 31 2 -3 -12 -40 -31 -83 -110
-243 -102 -282 30 -151 l73 72 0 -69 c0 -77 8 -99 35 -93 33 6 77 76 132 210
58 141 64 160 48 168 -5 3 -29 -42 -52 -100 -51 -125 -86 -196 -113 -230 l-20
-25 0 88 c0 81 -1 87 -21 87 -22 0 -129 -106 -129 -128 0 -7 -5 -10 -11 -7 -6
4 -7 14 -4 24 4 9 8 21 9 26 1 6 8 21 15 34 10 18 10 25 1 31 -9 5 -9 9 -1 14
6 4 11 4 11 -1 1 -14 31 46 55 112 19 50 22 65 11 74 -9 8 -22 4 -49 -15z"/>
<path d="M1867 5884 c-3 -3 -1 -16 5 -29 8 -18 4 -40 -23 -111 -22 -59 -34
-107 -34 -141 0 -71 18 -72 27 -1 4 31 21 93 39 138 23 61 29 90 25 116 -6 31
-23 43 -39 28z"/>
<path d="M9627 5835 c-4 -25 -15 -62 -26 -83 -18 -35 -23 -38 -54 -34 -41 5
-110 -27 -133 -62 -23 -36 -15 -78 19 -94 24 -12 31 -11 50 1 43 28 107 102
137 159 36 67 52 158 28 158 -10 0 -17 -14 -21 -45z m-67 -152 c0 -15 -85 -93
-101 -93 -45 0 -32 52 19 80 37 19 82 26 82 13z"/>
<path d="M14244 5789 c-3 -6 -2 -15 2 -19 12 -12 38 5 30 19 -9 14 -23 14 -32
0z"/>
<path d="M10300 5780 c-7 -4 -9 -13 -6 -19 10 -15 69 -14 64 1 -6 16 -42 28
-58 18z"/>
<path d="M13395 5770 c-3 -6 6 -15 20 -20 35 -13 45 -13 45 4 0 23 -53 36 -65
16z"/>
<path d="M2732 5744 c-37 -26 -44 -48 -26 -89 23 -56 16 -72 -19 -45 -22 18
-31 20 -40 11 -16 -16 34 -61 68 -61 32 0 41 36 25 96 -15 51 -8 63 36 68 16
2 31 4 33 5 2 0 -2 8 -9 16 -16 19 -40 19 -68 -1z"/>
<path d="M4100 5747 c-40 -14 -48 -41 -31 -103 7 -27 7 -42 -1 -51 -12 -15
-47 -18 -49 -3 -1 6 -2 15 -3 22 0 6 -7 13 -13 15 -21 7 -26 -25 -9 -52 20
-31 67 -34 96 -5 23 23 24 27 9 86 -15 57 -8 63 65 71 38 4 56 10 56 19 0 18
-70 18 -120 1z"/>
<path d="M12340 5749 c-45 -10 -100 -69 -100 -107 0 -16 9 -38 20 -50 21 -22
79 -38 105 -28 27 10 16 23 -25 29 -76 10 -91 49 -38 99 26 24 39 29 72 26 29
-2 41 1 41 11 0 20 -34 29 -75 20z"/>
<path d="M2570 5678 c-37 -75 -55 -92 -67 -61 -3 10 -13 26 -21 36 -14 15 -13
17 1 17 13 0 17 9 17 35 0 55 -27 45 -35 -13 -7 -51 3 -90 29 -111 15 -12 13
-18 -14 -66 -34 -59 -83 -185 -76 -193 13 -12 33 10 45 48 7 24 29 73 48 109
145 269 146 271 121 271 -7 -1 -29 -33 -48 -72z"/>
<path d="M4281 5695 c-44 -73 -55 -79 -48 -27 4 36 2 42 -13 42 -14 0 -18 -12
-24 -72 -6 -67 -11 -79 -65 -158 -55 -81 -91 -142 -91 -155 0 -17 32 -1 44 24
8 15 40 64 71 107 62 89 188 275 193 287 2 4 -5 7 -15 7 -12 0 -31 -20 -52
-55z"/>
<path d="M8546 5704 c-20 -26 -36 -52 -36 -58 0 -6 -9 -17 -20 -24 -11 -7 -20
-17 -20 -22 0 -22 34 -7 93 40 34 28 65 50 70 50 4 0 -2 -18 -13 -40 -11 -21
-20 -48 -20 -59 0 -27 19 -37 26 -14 3 10 18 46 35 81 16 34 29 67 29 72 0 17
-31 11 -69 -12 -23 -14 -32 -17 -23 -6 10 12 10 18 -2 27 -12 10 -21 3 -50
-35z"/>
<path d="M5495 5730 c-31 -12 -61 -50 -90 -111 -24 -54 -25 -94 -2 -86 7 2 14
17 18 33 11 53 60 134 81 134 4 0 8 -9 8 -20 0 -11 4 -20 10 -20 10 0 30 32
30 49 0 17 -33 29 -55 21z"/>
<path d="M6529 5683 l-34 -57 -10 36 c-5 20 -13 40 -17 44 -15 14 -20 -28 -9
-72 l12 -45 -86 -124 c-47 -69 -85 -129 -85 -134 0 -34 28 -7 97 96 43 64 86
118 96 121 9 2 17 13 17 23 0 10 16 45 35 78 36 61 41 76 27 85 -5 3 -24 -20
-43 -51z"/>
<path d="M1993 5697 c-29 -18 -54 -37 -57 -44 -10 -25 13 -22 53 7 47 34 47
33 24 -33 -24 -66 -8 -80 46 -43 27 19 46 26 60 21 12 -3 21 -10 21 -15 0 -15
40 -22 55 -10 8 7 15 22 15 34 1 11 7 39 15 60 15 43 12 58 -10 50 -8 -3 -19
-30 -26 -60 -13 -57 -19 -63 -39 -39 -21 25 -49 28 -77 6 -14 -12 -28 -20 -29
-18 -2 2 3 22 12 45 16 39 14 72 -3 72 -4 -1 -31 -15 -60 -33z"/>
<path d="M2350 5722 c-41 -13 -85 -80 -75 -112 8 -25 43 -34 77 -21 22 8 27 6
37 -15 6 -13 16 -24 23 -24 20 0 17 142 -3 148 -8 3 -21 10 -29 17 -8 7 -22
10 -30 7z m20 -47 c17 -20 6 -43 -26 -56 -38 -14 -47 1 -24 39 22 36 32 39 50
17z"/>
<path d="M6338 5717 c-14 -7 -35 -20 -46 -31 -19 -17 -20 -20 -6 -58 8 -22 14
-44 14 -49 0 -12 -37 -11 -45 1 -8 13 -45 13 -45 0 0 -19 49 -41 82 -38 31 3
33 6 32 38 0 19 -4 47 -8 62 -7 24 -5 29 20 39 16 7 44 15 62 18 18 3 34 11
35 16 3 15 -64 16 -95 2z"/>
<path d="M9672 5703 c-30 -43 -52 -90 -52 -112 0 -26 26 -51 55 -51 52 0 157
123 141 165 -9 26 -22 17 -36 -25 -14 -43 -79 -110 -105 -110 -36 0 -21 64 27
117 19 20 18 43 -2 43 -5 0 -17 -12 -28 -27z"/>
<path d="M11783 5710 c-60 -36 -99 -135 -70 -175 12 -16 27 -20 69 -19 29 0
66 4 81 7 37 10 30 33 -9 28 -53 -8 -104 -5 -115 6 -9 9 -9 19 0 41 10 24 17
28 41 24 21 -3 36 3 55 22 50 50 9 103 -52 66z m41 -34 c-7 -18 -32 -28 -46
-20 -7 5 -4 12 7 21 25 17 46 17 39 -1z"/>
<path d="M12509 5710 c-44 -23 -91 -77 -87 -99 4 -17 48 -21 81 -7 13 6 17 3
17 -12 0 -27 19 -38 26 -15 3 10 15 38 27 62 17 35 19 45 8 49 -11 4 -11 6 0
13 12 8 11 11 -1 19 -21 13 -29 12 -71 -10z m35 -41 c-17 -19 -65 -49 -79 -49
-14 0 18 41 43 54 41 23 59 20 36 -5z"/>
<path d="M1644 5701 c-38 -23 -74 -79 -74 -114 0 -34 31 -51 76 -42 33 6 34 5
34 -25 0 -20 5 -30 15 -30 11 0 15 12 15 49 0 51 23 121 40 121 16 0 11 26 -8
43 -24 22 -60 21 -98 -2z m60 -33 c-21 -71 -70 -116 -96 -90 -26 26 43 110 90
112 9 0 11 -7 6 -22z"/>
<path d="M4443 5700 c-19 -11 -35 -15 -38 -10 -11 18 -22 10 -40 -30 -10 -22
-24 -45 -32 -51 -14 -12 -18 -49 -5 -49 4 0 30 23 57 51 45 45 102 86 110 77
1 -2 -8 -26 -21 -55 -23 -50 -23 -88 0 -80 6 2 12 12 14 23 2 10 10 33 18 51
8 17 14 45 14 62 0 25 -4 31 -22 31 -13 0 -37 -9 -55 -20z"/>
<path d="M6640 5675 c-11 -26 -30 -60 -41 -76 -18 -26 -19 -30 -4 -35 12 -5
35 12 80 56 59 58 85 69 85 35 0 -8 -9 -29 -20 -47 -24 -39 -25 -48 -6 -48 18
0 56 60 56 89 0 66 -49 80 -100 29 -32 -33 -32 -33 -19 -5 9 21 10 30 1 39 -8
8 -16 -1 -32 -37z"/>
<path d="M8745 5700 c-10 -11 -14 -20 -9 -20 5 0 2 -6 -7 -13 -43 -33 -52 -93
-14 -103 79 -20 159 70 113 128 -22 26 -63 30 -83 8z m61 -42 c5 -16 0 -27
-20 -45 -29 -24 -66 -31 -66 -11 0 18 50 78 65 78 7 0 17 -10 21 -22z"/>
<path d="M13615 5680 c-45 -46 -53 -48 -88 -20 -48 38 -67 16 -21 -24 l27 -22
-52 -32 c-29 -18 -49 -37 -46 -42 10 -16 20 -12 75 25 54 36 70 36 100 1 7 -9
19 -16 26 -16 23 0 16 27 -13 50 l-28 22 38 34 c34 31 49 64 29 64 -4 0 -26
-18 -47 -40z"/>
<path d="M4596 5665 c-51 -49 -57 -76 -24 -99 34 -24 114 -21 128 4 10 18 8
19 -40 13 -34 -4 -55 -2 -65 7 -14 12 -12 18 22 52 20 21 43 38 50 38 7 0 13
7 13 15 0 28 -38 15 -84 -30z"/>
<path d="M6104 5691 c-41 -25 -64 -58 -64 -92 0 -35 22 -52 59 -47 26 4 30 1
33 -21 5 -41 28 -38 28 4 0 36 26 95 42 95 13 0 9 55 -4 68 -18 18 -59 15 -94
-7z m55 -51 c-22 -41 -45 -60 -73 -60 -9 0 -16 8 -16 18 1 33 54 81 92 82 16
0 16 -3 -3 -40z"/>
<path d="M12660 5685 c-5 -14 -13 -37 -16 -50 -3 -13 -12 -29 -20 -36 -16 -13
-18 -35 -5 -43 12 -8 54 31 57 52 2 9 6 36 9 60 7 47 -9 58 -25 17z"/>
<path d="M6952 5685 c-19 -8 -51 -29 -73 -46 -44 -34 -53 -76 -20 -96 25 -15
105 -27 136 -19 38 10 30 26 -12 26 -55 -1 -107 14 -111 30 -3 18 88 82 118
84 11 0 20 4 20 9 0 4 0 12 0 17 0 14 -19 12 -58 -5z"/>
<path d="M12718 5673 c-24 -26 -43 -73 -30 -73 3 0 14 7 24 17 17 15 18 15 12
-13 -7 -37 18 -75 37 -57 9 9 9 16 1 26 -9 11 -8 26 3 63 8 27 15 52 15 57 0
17 -38 5 -62 -20z"/>
<path d="M14164 5643 c-29 -64 -36 -114 -16 -120 6 -3 12 3 12 12 0 9 13 47
29 85 16 37 27 71 24 74 -14 14 -25 3 -49 -51z"/>
<path d="M5270 5644 c-27 -26 -50 -55 -50 -65 0 -52 84 -67 125 -23 21 22 24
35 22 78 -5 71 -29 74 -97 10z m64 -31 c9 -21 -22 -53 -50 -53 -35 0 -39 19
-9 50 28 29 49 30 59 3z"/>
<path d="M9868 5645 c-88 -65 -71 -140 20 -85 l32 20 0 -24 c0 -32 24 -50 55
-42 29 8 34 26 6 26 -30 0 -33 15 -18 67 8 27 12 54 10 61 -8 22 -58 12 -105
-23z m46 -21 c-9 -14 -31 -32 -48 -40 -28 -13 -27 -11 13 26 51 47 58 50 35
14z"/>
<path d="M10731 5619 c-38 -57 -41 -59 -41 -32 0 16 -6 38 -14 49 -13 16 -15
17 -21 3 -3 -9 -1 -37 5 -63 12 -54 8 -62 -106 -235 -14 -22 -23 -45 -19 -50
14 -24 16 -21 119 152 11 17 48 75 83 128 35 54 63 100 63 103 0 3 -6 6 -14 6
-8 0 -33 -28 -55 -61z"/>
<path d="M13340 5621 c-19 -39 -20 -61 -1 -61 4 0 16 18 26 40 13 29 15 44 7
52 -7 7 -16 -1 -32 -31z"/>
<path d="M10245 5630 c-3 -5 -4 -10 0 -10 3 0 -2 -14 -10 -30 -15 -30 -13 -50
5 -50 13 0 42 71 36 87 -6 15 -22 17 -31 3z"/>
<path d="M7515 5610 c-13 -22 9 -30 80 -30 54 0 78 4 89 16 9 8 16 16 16 17 0
8 -180 5 -185 -3z"/>
<path d="M10863 5555 c-3 -9 -3 -18 0 -22 10 -10 37 6 37 22 0 20 -29 20 -37
0z"/>
<path d="M2106 5478 c-96 -327 -107 -371 -97 -381 11 -11 23 8 36 58 8 34 15
41 38 43 35 4 56 -20 57 -63 0 -45 11 -76 24 -72 11 4 11 67 1 115 -3 12 -19
31 -36 41 l-31 19 66 47 c36 26 66 53 66 61 0 8 -2 14 -5 14 -9 0 -56 -31 -97
-64 -21 -16 -40 -27 -43 -25 -2 3 9 49 25 104 17 54 30 102 30 107 0 13 -30 9
-34 -4z"/>
<path d="M1806 5448 c-33 -107 -87 -317 -89 -346 -2 -28 2 -37 16 -40 14 -3
17 4 17 33 0 20 18 102 40 182 22 81 40 152 40 159 0 18 -19 28 -24 12z"/>
<path d="M3073 5300 c-24 -10 -43 -23 -43 -29 0 -5 16 -31 36 -57 35 -45 36
-48 18 -61 -11 -8 -35 -13 -54 -11 -27 2 -35 7 -35 23 0 28 -29 25 -33 -3 -5
-35 15 -52 64 -52 54 0 90 13 103 39 9 16 5 28 -25 66 -19 26 -34 48 -32 50
17 14 53 25 82 25 25 0 36 4 36 15 0 22 -65 19 -117 -5z"/>
<path d="M1892 5293 c5 -25 28 -28 28 -4 0 12 -6 21 -16 21 -9 0 -14 -7 -12
-17z"/>
<path d="M3276 5275 c-8 -8 -19 -15 -24 -15 -20 0 -56 -52 -58 -85 -6 -74 84
-79 147 -8 35 41 37 66 4 98 -28 29 -47 31 -69 10z m54 -54 c0 -36 -40 -71
-81 -71 -38 0 -38 25 -1 68 18 21 36 32 55 32 23 0 27 -4 27 -29z"/>
<path d="M2287 5249 c-23 -13 -47 -62 -47 -94 0 -40 50 -85 95 -85 46 0 105
25 105 44 0 19 1 19 -43 1 -48 -20 -80 -19 -100 3 -15 16 -13 19 34 46 45 25
50 31 47 59 -3 29 -7 32 -38 34 -19 2 -43 -2 -53 -8z m61 -31 c-5 -15 -67 -53
-74 -46 -2 3 5 17 17 31 21 27 64 38 57 15z"/>
<path d="M1833 5198 c-4 -7 -8 -15 -8 -18 -3 -22 -21 -57 -33 -66 -20 -14 -9
-44 16 -44 19 0 30 27 47 108 7 32 -6 44 -22 20z"/>
<path d="M3804 5144 c3 -9 6 -20 6 -25 0 -12 27 -12 34 0 10 16 -6 41 -26 41
-14 0 -18 -5 -14 -16z"/>
<path d="M4081 5151 c-11 -7 -11 -10 0 -17 20 -12 58 -14 65 -2 13 21 -37 36
-65 19z"/>
<path d="M3600 5125 c0 -8 7 -15 15 -15 8 0 15 7 15 15 0 8 -7 15 -15 15 -8 0
-15 -7 -15 -15z"/>
<path d="M2919 4663 c-42 -36 -58 -78 -66 -174 -7 -89 -9 -92 -85 -103 -32 -5
-48 -12 -48 -22 0 -16 16 -17 76 -5 38 7 41 6 38 -13 -5 -44 -66 -172 -90
-192 -27 -22 -26 -44 2 -44 27 0 99 138 109 209 7 50 17 59 76 70 38 8 59 17
56 24 -4 13 -37 14 -81 2 l-29 -8 7 78 c10 107 26 142 76 163 22 9 40 23 40
30 0 21 -47 13 -81 -15z"/>
<path d="M6741 4634 c-44 -50 -90 -139 -112 -214 -15 -51 -23 -60 -61 -60 -18
0 -28 -5 -28 -15 0 -10 10 -15 31 -15 30 0 31 -1 25 -35 -3 -19 -9 -51 -12
-70 -4 -22 -2 -35 5 -35 14 0 31 33 31 63 0 43 21 87 41 87 10 0 19 7 19 15 0
8 -7 15 -16 15 -12 0 -15 6 -10 25 17 66 51 139 88 189 35 48 43 53 53 40 10
-14 12 -14 24 0 18 21 10 50 -15 54 -15 2 -34 -11 -63 -44z"/>
<path d="M5004 4592 c-58 -52 -80 -88 -100 -165 -15 -54 -22 -67 -39 -68 -11
-1 -29 -3 -40 -4 -11 -1 -33 -2 -48 -3 -18 -1 -27 -7 -24 -14 2 -7 17 -12 33
-12 73 4 75 4 68 17 -6 8 -3 8 9 -1 15 -13 15 -18 2 -48 -8 -19 -26 -50 -41
-69 -20 -27 -31 -34 -49 -29 -28 7 -40 -9 -20 -26 8 -7 15 -19 15 -26 0 -8 4
-14 10 -14 16 0 111 133 117 164 4 16 14 31 25 33 10 3 18 12 18 20 0 8 -4 11
-10 8 -14 -9 -13 10 7 78 12 44 29 73 66 113 31 34 55 53 64 49 20 -7 33 3 26
20 -9 26 -46 16 -89 -23z"/>
<path d="M3740 4583 c0 -10 -19 -68 -42 -130 l-43 -112 -60 -3 c-74 -4 -79
-22 -7 -26 l52 -3 0 -49 c0 -56 18 -80 59 -80 26 0 51 16 51 32 0 4 -17 6 -37
5 -37 -2 -38 -1 -41 36 -4 48 11 67 55 67 19 0 32 4 29 9 -3 4 5 6 18 4 15 -3
25 1 30 12 5 15 0 16 -54 10 l-60 -7 14 39 c8 21 26 67 40 102 30 74 33 111
11 111 -8 0 -15 -8 -15 -17z"/>
<path d="M6396 4558 c-69 -51 -130 -140 -147 -212 -16 -72 -8 -179 15 -204 21
-24 62 -33 93 -21 37 14 26 29 -22 29 -59 0 -69 19 -63 120 6 101 39 171 114
239 58 53 74 61 74 36 0 -8 7 -15 15 -15 21 0 20 56 -1 64 -9 3 -17 6 -19 6
-1 0 -28 -19 -59 -42z"/>
<path d="M6996 4518 c-18 -71 -66 -206 -86 -240 -15 -27 -12 -68 5 -68 8 0 15
6 15 13 0 6 22 73 50 148 56 155 70 219 48 219 -9 0 -20 -26 -32 -72z"/>
<path d="M11115 4580 c-8 -13 3 -30 19 -30 41 0 67 -93 47 -167 -18 -66 -104
-187 -172 -240 -39 -30 -56 -50 -50 -56 23 -23 135 79 195 177 63 102 78 167
56 248 -7 25 -22 43 -44 57 -38 24 -42 25 -51 11z"/>
<path d="M11615 4554 c-53 -27 -57 -35 -44 -86 22 -82 -19 -136 -92 -121 -24
5 -35 2 -45 -12 -16 -22 -2 -45 26 -45 17 0 17 -3 3 -50 -17 -58 -5 -115 27
-125 20 -6 84 8 109 24 21 14 4 33 -19 21 -10 -5 -35 -10 -54 -10 -34 0 -36 2
-36 33 0 61 23 114 60 139 49 34 62 63 56 129 -7 73 9 89 78 77 29 -5 30 17 1
30 -33 15 -34 15 -70 -4z"/>
<path d="M5247 4553 c-4 -3 -7 -12 -7 -20 0 -17 -100 -295 -110 -306 -11 -13
1 -57 16 -57 8 0 14 9 14 20 0 11 14 57 31 102 59 160 89 251 83 259 -6 11
-18 12 -27 2z"/>
<path d="M10087 4534 c-2 -2 -21 -6 -43 -10 -52 -8 -69 -18 -71 -42 -1 -11
-22 -71 -47 -134 -25 -62 -46 -121 -46 -129 0 -19 38 -54 68 -64 63 -19 182
73 182 141 0 33 -37 74 -66 74 -25 0 -14 15 31 42 54 33 83 73 68 96 -9 15
-67 35 -76 26z m42 -51 c-25 -32 -48 -49 -89 -68 -55 -25 -53 -48 5 -71 31
-11 47 -24 51 -40 14 -54 -94 -136 -150 -114 -24 9 -26 14 -22 47 6 43 75 223
95 247 9 11 31 16 68 16 51 0 54 -1 42 -17z"/>
<path d="M10685 4528 c-27 -78 -55 -169 -55 -179 0 -7 -12 -25 -27 -41 -22
-23 -24 -28 -10 -33 11 -5 14 -16 11 -38 -3 -18 -1 -38 5 -46 11 -17 34 -4 27
16 -10 25 13 92 35 103 11 6 17 15 14 21 -5 8 40 -7 55 -19 3 -2 7 -39 10 -83
3 -44 10 -79 15 -79 6 0 11 35 13 80 3 75 1 82 -24 107 l-26 26 43 36 c24 20
52 44 63 53 16 12 18 20 10 28 -8 8 -29 -4 -80 -47 -110 -94 -104 -91 -92 -46
6 21 19 60 29 86 19 47 18 67 -2 67 -5 0 -12 -6 -14 -12z"/>
<path d="M9814 4493 c-3 -10 -23 -63 -44 -118 -45 -114 -55 -154 -41 -175 13
-20 22 -9 28 36 3 20 23 81 44 135 21 54 39 105 39 113 0 23 -19 29 -26 9z"/>
<path d="M3950 4449 c0 -17 20 -49 30 -49 6 0 10 14 10 30 0 23 -4 30 -20 30
-11 0 -20 -5 -20 -11z"/>
<path d="M6802 4444 c1 -9 9 -19 16 -22 9 -3 13 2 10 14 -1 9 -9 19 -16 22 -9
3 -13 -2 -10 -14z"/>
<path d="M9682 4433 c0 -16 -15 -69 -31 -120 -34 -102 -37 -123 -18 -123 11 0
87 225 87 258 0 6 -8 12 -18 12 -14 0 -19 -8 -20 -27z"/>
<path d="M5493 4418 c2 -7 10 -13 17 -13 7 0 15 6 18 13 2 7 -5 12 -18 12 -13
0 -20 -5 -17 -12z"/>
<path d="M5045 4410 c-8 -12 20 -24 35 -15 5 3 10 10 10 16 0 12 -37 12 -45
-1z"/>
<path d="M7014 4363 c-17 -15 -36 -43 -43 -60 -25 -62 30 -105 107 -83 47 13
66 25 58 38 -4 7 -20 6 -48 -2 -43 -12 -88 -11 -88 2 1 4 24 18 52 32 60 29
78 52 62 78 -19 29 -67 27 -100 -5z m71 -13 c3 -5 -12 -18 -35 -30 -45 -23
-53 -12 -14 19 30 23 40 26 49 11z"/>
<path d="M8880 4375 c-17 -20 -3 -40 18 -23 14 12 15 9 9 -26 -3 -22 -12 -43
-19 -47 -16 -10 2 -44 23 -44 16 0 39 117 27 139 -11 20 -42 21 -58 1z"/>
<path d="M9112 4362 c-5 -16 -23 -50 -39 -76 -33 -53 -41 -50 -62 22 -11 40
-24 52 -35 34 -8 -13 18 -90 36 -108 15 -15 14 -20 -17 -68 -38 -60 -75 -139
-75 -160 0 -34 20 -13 54 57 19 39 56 104 81 142 50 75 95 158 95 175 0 22
-29 8 -38 -18z"/>
<path d="M5302 4358 c-18 -18 -15 -46 7 -75 11 -13 17 -31 14 -39 -6 -16 -63
-20 -63 -4 0 6 -7 10 -15 10 -8 0 -15 -9 -15 -20 0 -28 66 -45 96 -25 34 22
38 50 15 89 -27 43 -27 46 9 46 20 0 30 5 30 15 0 19 -60 21 -78 3z"/>
<path d="M7280 4324 l-50 -47 6 32 c5 23 3 31 -8 31 -18 0 -54 -122 -42 -141
5 -9 27 8 70 56 l63 70 -6 -70 c-4 -58 -3 -73 11 -84 9 -7 24 -10 33 -6 17 6
17 7 0 20 -15 11 -17 23 -11 92 5 55 3 82 -5 87 -6 4 -33 -14 -61 -40z"/>
<path d="M7933 4347 c-17 -12 -39 -37 -47 -55 -15 -31 -15 -36 1 -62 9 -16 33
-36 53 -45 37 -17 38 -16 99 14 33 17 61 38 61 46 0 21 -11 19 -61 -10 -50
-28 -77 -31 -105 -10 -18 14 -17 14 13 15 24 0 39 9 62 37 36 44 38 54 13 76
-24 22 -50 20 -89 -6z m65 -15 c19 -13 -40 -65 -69 -60 -24 3 -24 4 10 36 36
34 39 36 59 24z"/>
<path d="M8765 4360 c-3 -5 -15 -10 -25 -10 -13 0 -23 -16 -39 -61 -11 -34
-18 -65 -15 -70 9 -15 32 2 39 28 3 15 14 37 24 49 l18 23 1 -31 c1 -43 17
-56 42 -33 11 10 18 20 15 23 -2 3 7 13 20 24 23 18 34 48 18 48 -4 0 -20 -12
-35 -27 -22 -21 -28 -23 -28 -10 0 9 -5 17 -11 17 -8 0 -9 4 0 13 11 13 6 27
-10 27 -4 0 -11 -4 -14 -10z"/>
<path d="M9243 4341 c-45 -32 -58 -59 -49 -96 10 -37 101 -59 147 -35 32 17
22 27 -24 23 -50 -5 -97 10 -97 31 0 8 16 28 36 46 30 26 43 31 66 26 24 -5
29 -3 26 12 -6 30 -58 27 -105 -7z"/>
<path d="M2976 4308 c-19 -31 -56 -74 -82 -97 -35 -30 -44 -45 -36 -53 8 -8
21 -2 48 20 37 30 38 31 51 12 18 -25 38 -25 74 1 l29 20 0 -20 c0 -11 9 -25
21 -32 20 -10 21 -9 14 19 -3 17 -2 48 4 69 18 63 -3 66 -55 6 -69 -80 -85
-64 -39 36 36 77 17 90 -29 19z"/>
<path d="M7688 4341 c-10 -12 -24 -18 -37 -14 -15 4 -23 0 -27 -13 -3 -11 -14
-38 -25 -62 -18 -40 -18 -62 -1 -62 4 0 27 27 51 60 46 63 64 73 36 21 -14
-28 -14 -32 0 -37 9 -4 35 11 69 40 30 25 57 46 60 46 3 0 1 -12 -5 -26 -5
-15 -7 -36 -3 -47 4 -13 2 -17 -5 -13 -8 5 -8 0 1 -18 18 -41 36 -32 35 17 -1
23 3 61 7 85 8 38 7 42 -11 42 -10 0 -37 -13 -59 -30 l-40 -29 4 29 c3 24 1
30 -15 30 -10 0 -26 -9 -35 -19z"/>
<path d="M4237 4316 c-33 -25 -43 -30 -40 -16 3 10 0 21 -6 24 -13 8 -79 -120
-68 -131 10 -9 19 -3 98 67 l61 54 -7 -33 c-25 -116 24 -173 100 -117 14 10
17 18 9 25 -7 8 -16 6 -30 -8 -47 -43 -71 28 -40 117 23 64 -7 71 -77 18z"/>
<path d="M5585 4340 c-12 -19 5 -29 40 -23 19 3 35 3 35 0 0 -3 -23 -22 -50
-42 -59 -43 -87 -87 -67 -104 20 -16 157 -2 157 17 0 12 -13 14 -66 10 l-66
-4 38 36 c22 19 54 47 73 62 30 23 33 29 22 42 -15 18 -106 23 -116 6z"/>
<path d="M5809 4311 c-62 -66 -61 -128 3 -156 36 -15 87 -4 131 27 26 18 27
22 14 42 -16 24 -32 24 -32 0 0 -39 -88 -60 -119 -28 -26 26 -16 47 24 52 31
3 74 34 78 56 5 23 -16 46 -41 46 -11 0 -37 -18 -58 -39z m54 -17 c-29 -22
-52 -17 -24 6 12 11 27 17 33 14 5 -3 1 -12 -9 -20z"/>
<path d="M7434 4318 c-40 -31 -53 -49 -54 -75 0 -25 26 -43 64 -43 19 0 25 -6
28 -27 2 -16 10 -29 20 -31 14 -3 15 3 11 37 -4 31 -1 46 16 67 25 31 28 64 6
64 -9 0 -18 7 -21 15 -9 21 -37 19 -70 -7z m52 -55 c-13 -27 -52 -41 -69 -24
-18 18 48 76 66 59 10 -9 11 -18 3 -35z"/>
<path d="M9442 4315 c-26 -32 -29 -70 -6 -79 8 -3 30 2 47 11 25 13 29 13 20
2 -14 -17 -6 -59 11 -59 16 0 51 119 39 131 -6 6 -28 13 -50 16 -35 5 -43 2
-61 -22z m68 -13 c0 -8 -43 -32 -57 -32 -3 0 2 9 12 20 18 20 45 27 45 12z"/>
<path d="M3176 4322 c-20 -32 -42 -112 -34 -124 7 -10 11 -9 21 6 21 33 69 86
78 86 4 0 1 -16 -7 -35 -18 -43 -19 -88 -1 -83 6 3 14 17 15 33 2 16 10 38 18
49 8 11 14 33 14 48 0 31 -17 36 -53 17 -16 -9 -22 -9 -25 0 -4 13 -19 15 -26
3z"/>
<path d="M3378 4314 c-85 -45 -49 -138 52 -133 47 2 86 16 75 27 -3 3 -33 6
-67 7 -46 0 -63 4 -72 17 -17 27 22 61 76 67 4 1 5 8 2 16 -8 19 -31 19 -66
-1z"/>
<path d="M3983 4315 c-20 -9 -39 -28 -50 -50 -23 -48 -10 -69 46 -73 35 -3 46
2 71 27 31 31 37 59 20 92 -12 22 -42 24 -87 4z m67 -40 c0 -25 -38 -55 -70
-55 -35 0 -37 8 -9 44 23 29 79 37 79 11z"/>
<path d="M6746 4308 c-10 -37 -7 -58 8 -58 11 0 26 40 26 71 0 19 -28 8 -34
-13z"/>
<path d="M10207 4300 c-49 -58 -33 -86 53 -92 53 -3 55 -2 52 21 -1 13 5 35
13 48 18 26 13 42 -13 42 -9 0 -31 3 -48 7 -26 5 -35 1 -57 -26z m68 -11 c9
-14 -24 -49 -47 -49 -22 0 -23 9 -2 38 16 24 39 29 49 11z"/>
<path d="M10404 4296 c-60 -60 -36 -120 47 -114 31 2 45 8 47 19 3 14 -4 16
-42 12 -36 -4 -47 -2 -52 11 -8 20 19 62 46 71 11 3 20 13 20 21 0 24 -31 15
-66 -20z"/>
<path d="M3838 4266 c-20 -41 -20 -76 0 -76 5 0 18 27 30 60 16 49 17 60 6 60
-8 0 -24 -20 -36 -44z"/>
<path d="M4964 4254 c-21 -36 -25 -50 -16 -67 9 -21 11 -19 30 24 11 26 25 50
31 53 11 7 4 36 -10 36 -4 0 -20 -21 -35 -46z"/>
<path d="M5420 4260 c-21 -42 -27 -90 -10 -90 6 0 13 8 16 18 3 9 14 36 24 58
18 40 17 54 -1 54 -5 0 -18 -18 -29 -40z"/>
<path d="M8290 4201 c0 -20 -54 -81 -71 -81 -12 0 -11 -27 1 -35 18 -11 100
79 100 109 0 16 -5 26 -15 26 -8 0 -15 -9 -15 -19z"/>
<path d="M3932 4117 c-34 -35 -53 -81 -71 -169 -11 -49 -16 -58 -42 -67 -36
-12 -38 -31 -4 -31 32 0 32 -17 0 -95 -29 -70 -30 -75 -11 -75 16 0 55 86 63
139 7 41 17 51 56 51 40 0 35 28 -7 32 l-33 3 17 73 c26 110 67 158 114 132
31 -16 42 -9 26 19 -17 34 -69 28 -108 -12z"/>
<path d="M5697 4101 c-20 -22 -47 -72 -64 -114 -25 -69 -31 -77 -61 -84 -35
-9 -40 -26 -8 -30 11 -2 22 -5 24 -8 2 -2 -11 -31 -29 -64 -17 -34 -29 -64
-26 -67 15 -15 36 10 68 79 27 62 38 77 63 84 42 12 48 37 8 31 l-30 -4 19 49
c25 63 38 88 57 110 16 18 48 24 37 7 -3 -5 -2 -10 3 -10 16 0 23 31 11 46
-18 22 -34 17 -72 -25z"/>
<path d="M4382 4061 c-57 -60 -101 -140 -117 -217 -24 -113 -17 -173 27 -237
21 -29 83 -61 105 -53 24 9 14 23 -26 35 -46 13 -77 55 -87 119 -8 53 12 164
41 222 30 58 91 129 122 141 13 5 21 13 18 19 -13 21 -46 9 -83 -29z"/>
<path d="M9985 4063 c-9 -21 -23 -59 -32 -85 -8 -27 -21 -48 -29 -48 -8 0 -14
-6 -14 -12 0 -10 -2 -10 -9 0 -11 17 -61 5 -61 -15 0 -12 8 -13 40 -8 22 4 40
5 40 2 0 -2 -11 -35 -25 -73 -17 -47 -22 -71 -14 -79 13 -13 25 6 40 60 6 22
18 53 26 68 13 26 18 28 61 25 37 -2 47 0 47 12 0 10 -13 16 -42 18 -24 2 -43
5 -43 8 0 2 11 32 25 66 14 34 25 70 25 80 0 30 -19 20 -35 -19z"/>
<path d="M8302 3972 c-29 -59 -52 -115 -52 -124 0 -27 21 -32 27 -7 4 13 28
66 55 117 49 95 57 122 36 122 -7 0 -37 -49 -66 -108z"/>
<path d="M6252 4034 c-17 -20 -43 -65 -59 -100 -22 -51 -33 -64 -51 -64 -12 0
-25 -7 -28 -15 -5 -12 -10 -13 -20 -4 -11 9 -14 9 -14 0 0 -7 -4 -9 -10 -6 -5
3 -10 2 -10 -4 0 -18 16 -21 48 -9 17 7 34 10 36 7 8 -7 -26 -109 -36 -109
-14 0 -9 -28 6 -33 20 -8 29 8 51 81 18 61 19 63 47 57 21 -5 28 -3 28 9 0 9
-3 16 -7 16 -5 0 -14 4 -22 9 -21 13 52 146 90 163 35 16 38 38 5 38 -16 0
-35 -13 -54 -36z"/>
<path d="M9564 4053 c-3 -10 -12 -30 -20 -44 -13 -25 -10 -39 7 -39 14 0 51
70 45 85 -7 20 -25 19 -32 -2z"/>
<path d="M6981 4038 c-5 -13 -18 -58 -31 -101 -12 -43 -30 -97 -39 -120 l-18
-42 -8 53 c-4 29 -5 83 -3 119 6 117 -25 93 -92 -70 -21 -50 -50 -103 -63
-117 -25 -25 -26 -50 -2 -50 19 0 33 21 79 124 l43 95 6 -82 c7 -96 14 -119
36 -115 22 4 57 78 92 195 17 54 32 106 36 116 8 26 -26 21 -36 -5z"/>
<path d="M10761 4009 c-33 -53 -36 -65 -22 -73 11 -7 71 84 71 107 0 30 -16
18 -49 -34z"/>
<path d="M6505 3995 c-9 -31 -38 -104 -66 -163 -27 -58 -48 -115 -47 -126 4
-26 28 -33 28 -8 0 11 18 60 41 109 50 106 91 222 83 234 -12 20 -23 6 -39
-46z"/>
<path d="M10990 4026 c0 -8 7 -17 16 -20 8 -3 24 -27 36 -52 25 -58 20 -121
-13 -168 -37 -50 -105 -107 -146 -121 -41 -14 -52 -29 -28 -39 41 -15 190 105
221 179 18 45 18 105 -2 153 -22 57 -84 106 -84 68z"/>
<path d="M4746 3988 c-4 -18 -15 -49 -24 -68 -16 -32 -21 -35 -71 -40 -76 -7
-81 -30 -6 -30 50 0 56 -2 50 -17 -4 -10 -9 -47 -12 -82 -5 -52 -3 -63 8 -59
8 2 15 15 17 29 1 13 7 48 13 77 l11 53 40 -3 c39 -3 42 -5 54 -49 l14 -47
-55 -92 c-57 -93 -68 -122 -50 -129 12 -4 66 99 58 112 -3 6 -1 7 5 3 14 -9
132 190 132 224 0 17 -27 11 -34 -7 -3 -10 -9 -24 -12 -32 -5 -9 -3 -11 6 -6
9 5 11 4 6 -4 -4 -6 -12 -9 -17 -6 -5 4 -9 1 -9 -5 0 -6 -4 -8 -10 -5 -5 3
-10 17 -10 29 0 30 -16 41 -60 45 -19 2 -37 5 -39 7 -3 3 5 31 16 63 12 33 19
62 16 65 -15 15 -31 3 -37 -26z"/>
<path d="M11461 3996 c-6 -7 -13 -33 -15 -57 -6 -57 -34 -82 -90 -77 -53 4
-57 -22 -6 -38 38 -12 51 -41 28 -58 -46 -36 -65 -120 -32 -147 21 -17 135
-19 141 -3 2 7 -13 12 -43 12 -25 1 -55 4 -65 7 -30 10 -23 54 16 104 40 50
38 46 25 72 -9 15 -5 24 20 46 21 20 33 41 38 73 7 42 10 45 40 48 20 2 32 9
32 18 0 19 -73 19 -89 0z"/>
<path d="M3717 3993 c-14 -13 -6 -23 18 -23 16 0 25 6 25 15 0 15 -31 21 -43
8z"/>
<path d="M10280 3984 c0 -9 7 -14 17 -12 25 5 28 28 4 28 -12 0 -21 -6 -21
-16z"/>
<path d="M6340 3924 c0 -31 23 -28 28 4 2 15 -2 22 -12 22 -11 0 -16 -9 -16
-26z"/>
<path d="M9113 3939 c-56 -16 -40 -33 24 -25 63 7 68 10 58 25 -7 13 -38 13
-82 0z"/>
<path d="M8580 3927 c-49 -13 -53 -33 -5 -30 17 1 47 3 68 4 38 2 51 22 21 33
-20 8 -29 7 -84 -7z"/>
<path d="M8828 3933 c-17 -3 -28 -11 -28 -20 0 -13 9 -14 58 -8 64 8 75 12 67
26 -6 9 -45 10 -97 2z"/>
<path d="M7505 3911 c-37 -22 -70 -90 -61 -125 14 -56 49 -67 128 -40 52 17
83 46 75 69 -9 22 -31 18 -42 -7 -12 -28 -90 -56 -113 -41 -28 17 -24 31 13
43 36 12 95 61 95 79 0 44 -44 54 -95 22z m53 -23 c-6 -18 -57 -53 -65 -44 -5
4 5 19 20 32 30 26 51 31 45 12z"/>
<path d="M9720 3923 c-22 -8 -60 -45 -60 -58 0 -7 13 -30 29 -52 16 -23 27
-44 24 -47 -16 -16 -54 -3 -77 26 -22 28 -26 30 -32 15 -8 -22 38 -74 70 -79
30 -6 76 19 76 41 0 10 -14 36 -31 57 -28 36 -29 39 -13 51 21 15 50 17 59 3
8 -13 45 -13 45 -1 0 12 -50 51 -64 50 -6 0 -18 -3 -26 -6z"/>
<path d="M5250 3912 c-8 -4 -34 -20 -58 -35 -76 -49 -93 -139 -30 -161 54 -19
193 31 174 62 -4 8 -17 5 -40 -8 -18 -11 -53 -23 -78 -26 -40 -6 -47 -4 -57
15 -10 18 -9 22 6 27 95 33 128 62 121 106 -3 24 -15 30 -38 20z m-13 -57
c-15 -14 -33 -25 -40 -25 -7 1 2 12 18 25 39 32 58 32 22 0z"/>
<path d="M4999 3875 c-18 -18 -36 -32 -40 -29 -10 6 -32 -34 -24 -45 3 -5 1
-11 -4 -13 -10 -3 -70 -158 -74 -188 -1 -8 5 -15 13 -15 8 0 24 26 39 65 14
36 26 66 27 68 1 2 12 -1 23 -8 28 -14 50 -2 85 49 38 54 57 111 45 133 -15
29 -54 21 -90 -17z m61 -10 c0 -42 -68 -134 -89 -121 -10 7 -11 66 0 63 3 -1
20 15 38 36 35 40 51 46 51 22z"/>
<path d="M5421 3883 c-25 -28 -51 -86 -51 -113 0 -55 58 -68 109 -24 38 32 43
87 10 128 -23 30 -47 33 -68 9z m57 -70 c2 -23 -3 -35 -20 -47 -48 -34 -69
-11 -44 49 12 29 20 36 38 33 18 -2 24 -11 26 -35z"/>
<path d="M6595 3876 c-36 -16 -82 -67 -91 -102 -4 -15 0 -34 10 -49 13 -20 25
-25 57 -25 42 0 79 14 79 30 0 6 -21 8 -53 4 -45 -5 -55 -4 -61 11 -9 24 1 35
33 35 32 0 91 45 91 69 0 16 -18 41 -29 41 -4 -1 -20 -7 -36 -14z m16 -46
c-13 -11 -29 -20 -36 -20 -7 0 -16 -6 -18 -12 -4 -9 -6 -9 -6 -1 -1 15 47 53
68 53 12 -1 11 -5 -8 -20z"/>
<path d="M7329 3870 c-23 -17 -28 -18 -33 -5 -7 20 -38 19 -67 -4 -13 -10 -29
-16 -35 -14 -10 3 -44 -79 -44 -106 0 -23 26 -9 44 23 18 35 66 86 66 72 0 -4
-5 -17 -11 -28 -17 -32 5 -47 33 -22 56 49 58 49 56 9 -1 -22 4 -40 13 -45 18
-12 37 6 22 21 -7 7 -8 21 -2 42 21 74 7 93 -42 57z"/>
<path d="M10315 3878 c-11 -6 -26 -18 -33 -25 -7 -7 -18 -13 -23 -13 -17 0
-70 -83 -59 -94 6 -6 23 5 49 35 21 24 53 53 71 63 l33 19 -7 -52 c-4 -32 -3
-51 3 -51 18 0 32 40 29 83 -3 46 -24 58 -63 35z"/>
<path d="M10037 3869 c-9 -6 -14 -15 -11 -21 5 -7 1 -9 -9 -5 -13 5 -21 -3
-32 -30 -29 -68 -12 -87 25 -28 33 54 48 66 76 59 26 -7 31 5 12 24 -15 15
-37 15 -61 1z"/>
<path d="M10479 3857 c-14 -12 -34 -34 -44 -50 -30 -47 11 -71 76 -43 13 6 15
-1 13 -51 -5 -91 -10 -104 -39 -97 -32 8 -93 -13 -105 -36 -13 -24 -13 -86 0
-109 17 -33 70 -37 70 -5 0 8 5 13 12 12 7 -2 26 20 42 49 28 47 35 52 70 55
54 4 61 28 8 28 -40 0 -40 0 -33 33 4 17 7 70 6 117 0 69 -3 85 -15 85 -8 0
-16 -10 -18 -23 -2 -14 -14 -27 -29 -33 -41 -15 -41 0 0 36 22 19 36 39 32 44
-9 16 -17 14 -46 -12z m7 -275 c15 -9 5 -33 -29 -72 -35 -39 -52 -34 -52 16 0
31 5 41 25 51 29 15 40 16 56 5z"/>
<path d="M8798 3863 c-10 -2 -18 -10 -18 -17 0 -8 20 -12 65 -13 46 0 65 3 65
12 0 22 -60 32 -112 18z"/>
<path d="M3685 3844 c-26 -27 -46 -74 -43 -102 2 -23 8 -27 33 -27 21 0 31 5
33 19 3 15 0 18 -17 13 -28 -7 -27 11 4 57 14 20 25 41 25 46 0 15 -17 12 -35
-6z"/>
<path d="M7013 3845 c-12 -8 -27 -31 -33 -50 -16 -48 1 -69 46 -62 22 4 37 1
45 -9 19 -23 30 -3 31 56 1 41 -3 56 -17 66 -24 18 -45 18 -72 -1z m55 -28 c6
-7 8 -17 4 -23 -7 -11 -46 -34 -56 -34 -12 0 -5 39 10 54 19 19 28 20 42 3z"/>
<path d="M9050 3845 c0 -13 10 -15 55 -13 30 2 55 8 55 13 0 6 -25 11 -55 13
-45 2 -55 0 -55 -13z"/>
<path d="M6287 3818 c-6 -18 -10 -36 -9 -40 1 -5 -2 -8 -8 -8 -5 0 -10 -9 -10
-20 0 -11 4 -20 10 -20 13 0 58 92 53 108 -8 22 -24 13 -36 -20z"/>
<path d="M8513 3835 c-3 -9 -4 -17 -2 -19 10 -9 133 10 137 22 6 20 -127 17
-135 -3z"/>
<path d="M10150 3800 c-18 -36 -19 -41 -5 -46 9 -4 17 -5 18 -3 26 48 36 73
31 80 -11 18 -24 8 -44 -31z"/>
<path d="M9181 3710 c-43 -4 -77 -12 -79 -18 -4 -14 -34 -16 -47 -3 -6 5 -30
11 -55 13 -35 2 -45 0 -45 -12 0 -12 18 -16 88 -18 48 -1 87 1 87 5 0 10 225
9 268 -1 31 -7 33 -7 23 12 -7 14 -25 21 -63 25 -58 7 -68 7 -177 -3z"/>
<path d="M8765 3638 c-11 -29 -25 -66 -31 -83 -10 -25 -19 -31 -58 -39 -56
-10 -57 -32 -1 -29 41 3 41 6 11 -72 -29 -77 -17 -114 40 -118 38 -3 41 19 3
27 -30 6 -31 7 -24 47 4 22 13 53 21 67 8 15 14 33 14 40 0 6 7 12 16 12 10 0
14 6 10 15 -3 9 0 15 9 15 8 0 15 -4 15 -10 0 -5 14 -10 31 -10 47 0 30 24
-19 28 -24 2 -42 8 -42 15 0 7 12 36 25 66 24 51 27 81 8 81 -5 0 -17 -23 -28
-52z"/>
<path d="M8162 3658 c-14 -14 -16 -48 -4 -48 15 0 44 38 37 49 -8 14 -18 14
-33 -1z"/>
<path d="M5482 3638 c-8 -8 -8 -15 -1 -24 8 -10 4 -28 -14 -68 -23 -51 -28
-55 -63 -58 -49 -4 -59 -28 -11 -28 l34 0 -19 -39 c-10 -21 -21 -54 -25 -74
-4 -30 -2 -37 20 -52 29 -19 78 -13 98 11 18 21 4 28 -32 15 -24 -8 -36 -8
-46 0 -15 13 -12 30 20 100 18 41 24 46 54 47 38 2 53 8 53 24 0 6 -15 8 -35
6 -29 -3 -34 -1 -29 11 39 91 47 123 33 132 -18 12 -23 11 -37 -3z"/>
<path d="M9170 3629 c-7 -11 -9 -27 -6 -34 3 -8 2 -15 -2 -17 -4 -2 -29 -63
-56 -136 -35 -97 -45 -137 -37 -145 6 -6 13 -9 15 -6 7 7 116 331 116 345 0
21 -18 17 -30 -7z"/>
<path d="M9585 3583 c-9 -27 -27 -70 -40 -98 -12 -27 -31 -71 -41 -97 -10 -27
-25 -48 -31 -48 -17 0 -16 -20 2 -44 17 -23 31 -15 38 23 12 60 82 93 156 75
38 -10 43 -23 27 -72 -7 -20 -5 -23 11 -20 11 2 21 17 27 40 12 48 -9 74 -67
85 l-41 8 72 53 c69 50 87 72 60 72 -7 0 -56 -32 -108 -70 -52 -39 -95 -70
-96 -70 -1 0 13 36 32 80 18 44 30 80 27 80 -4 0 -2 5 5 12 16 16 15 38 -2 38
-7 0 -21 -21 -31 -47z"/>
<path d="M10109 3589 c-104 -74 -140 -124 -157 -219 -17 -92 2 -166 49 -191
26 -14 122 -20 139 -9 19 12 6 16 -72 25 -31 3 -62 13 -69 21 -33 39 -27 160
12 236 19 37 101 110 147 131 24 11 30 37 9 37 -8 0 -34 -14 -58 -31z"/>
<path d="M11250 3523 c0 -7 3 -13 8 -14 4 0 32 -3 62 -5 81 -8 240 5 240 20 0
9 -41 12 -155 11 -117 0 -155 -3 -155 -12z"/>
<path d="M9266 3515 c-3 -9 1 -18 10 -22 19 -7 28 2 21 22 -8 19 -23 19 -31 0z"/>
<path d="M5006 3490 c-14 -17 -37 -67 -51 -111 -24 -76 -25 -99 -6 -99 8 0 75
164 76 184 0 5 8 14 18 20 15 9 21 7 33 -8 21 -29 39 -7 18 22 -22 31 -57 28
-88 -8z"/>
<path d="M5837 3492 c-22 -22 -24 -31 -14 -41 10 -10 7 -11 -14 -6 -25 6 -29
2 -58 -60 -36 -78 -35 -75 -17 -75 8 0 39 38 70 84 30 46 64 87 76 91 11 4 19
12 17 18 -7 22 -33 18 -60 -11z"/>
<path d="M5206 3465 c-54 -29 -88 -70 -93 -117 -4 -35 -1 -47 15 -62 18 -16
25 -17 59 -6 60 20 93 39 93 55 0 19 -3 19 -50 -5 -22 -11 -51 -20 -65 -20
-20 0 -25 5 -25 25 0 19 7 28 28 36 58 21 93 45 99 68 3 14 0 26 -8 32 -18 11
-19 11 -53 -6z m10 -40 c-11 -8 -22 -12 -25 -9 -6 6 19 24 34 24 6 -1 1 -7 -9
-15z"/>
<path d="M5970 3446 c-39 -30 -46 -32 -56 -18 -9 13 -15 7 -39 -36 -46 -85
-33 -91 53 -22 63 51 70 52 52 4 -14 -36 -4 -64 23 -64 30 0 43 11 44 38 1 16
-4 22 -18 22 -19 0 -19 1 -3 38 33 77 14 91 -56 38z"/>
<path d="M6677 3462 c-28 -17 -77 -102 -77 -134 0 -33 21 -18 41 30 25 58 46
82 71 82 13 0 18 6 16 17 -4 23 -19 25 -51 5z"/>
<path d="M6472 3446 c-16 -15 -36 -26 -43 -26 -8 -1 -35 -44 -61 -98 -78 -160
-94 -212 -65 -212 15 0 23 14 61 103 24 54 27 57 60 57 63 0 152 103 144 168
-4 39 -54 43 -96 8z m68 -18 c0 -21 -49 -95 -74 -112 -29 -18 -56 -21 -56 -6
0 23 32 70 67 99 39 32 63 39 63 19z"/>
<path d="M7002 3434 c-43 -36 -72 -80 -72 -109 0 -45 88 -75 109 -36 10 18 6
31 -11 31 -4 0 -7 -6 -5 -12 3 -16 -33 -11 -51 7 -20 19 9 69 59 102 37 24 46
43 23 50 -5 1 -28 -14 -52 -33z"/>
<path d="M7573 3457 c-55 -21 -58 -30 -18 -77 20 -24 35 -50 33 -59 -5 -24
-37 -25 -69 -2 -28 21 -49 21 -49 0 0 -17 65 -49 101 -49 56 0 67 49 24 113
-22 31 -24 38 -10 43 8 3 22 4 30 1 20 -8 29 11 15 28 -14 17 -15 17 -57 2z"/>
<path d="M11475 3459 c-38 -4 -108 -8 -155 -8 -119 1 -120 1 -120 -18 0 -14
16 -15 168 -10 173 7 232 15 235 32 3 13 -42 15 -128 4z"/>
<path d="M8009 3418 c-12 -24 -31 -56 -42 -71 -15 -22 -17 -31 -8 -40 10 -9
16 -7 27 8 25 36 79 86 108 102 27 14 28 14 22 -3 -33 -85 -44 -189 -17 -158
9 11 51 164 51 188 0 20 -32 21 -70 1 -27 -14 -30 -14 -30 0 0 28 -19 15 -41
-27z"/>
<path d="M6822 3443 c-25 -10 -73 -93 -70 -121 3 -23 8 -27 41 -30 30 -3 43 2
67 27 33 32 36 48 18 98 -11 31 -26 38 -56 26z m32 -48 c9 -24 -15 -65 -41
-71 -13 -4 -26 -4 -29 -1 -11 10 39 87 56 87 5 0 10 -7 14 -15z"/>
<path d="M7158 3425 c-63 -43 -60 -103 7 -131 45 -18 65 -18 65 2 0 14 -3 14
-16 4 -10 -9 -14 -10 -12 -2 2 7 -8 18 -21 25 -28 14 -39 37 -18 37 26 0 68
41 65 64 -4 30 -27 30 -70 1z"/>
<path d="M7358 3439 c-25 -14 -22 -31 7 -59 37 -35 31 -75 -10 -75 -25 0 -30
4 -27 23 3 28 -25 27 -42 -1 -9 -15 -7 -22 13 -38 23 -19 76 -25 97 -11 37 25
36 81 -3 124 -15 17 -14 18 25 18 29 0 42 4 42 14 0 16 -76 20 -102 5z"/>
<path d="M5566 3412 c-32 -62 -14 -112 39 -112 30 0 39 7 75 55 22 30 40 58
40 64 0 21 -35 2 -59 -34 -33 -49 -56 -64 -73 -47 -9 9 -9 20 1 48 18 49 -1
69 -23 26z"/>
<path d="M9185 3396 c-10 -25 -23 -47 -31 -50 -22 -8 -17 -36 7 -36 15 0 26
14 45 55 28 64 29 75 10 75 -8 0 -22 -20 -31 -44z"/>
<path d="M9315 3413 c-69 -74 -24 -152 70 -120 61 21 56 36 -11 34 -50 -2 -59
1 -62 16 -6 29 36 68 65 61 27 -7 34 20 7 30 -28 11 -43 6 -69 -21z"/>
<path d="M8272 3423 c-6 -2 -9 -10 -5 -16 4 -6 0 -8 -9 -5 -10 4 -23 -4 -37
-23 -12 -16 -28 -29 -36 -29 -18 0 -18 -4 -5 -52 14 -50 38 -62 93 -47 23 7
52 11 63 11 12 -1 41 13 64 31 l42 32 38 -37 c21 -21 43 -38 49 -38 18 0 12
29 -9 40 -11 6 -25 20 -31 32 -10 18 -7 25 27 54 31 26 37 35 27 45 -11 11
-20 6 -48 -21 l-34 -33 -21 26 c-21 27 -50 36 -50 17 0 -6 9 -20 20 -32 10
-12 17 -24 15 -29 -12 -18 -98 -67 -111 -62 -7 3 -27 0 -44 -6 -50 -17 -77 4
-45 35 8 9 15 11 15 5 0 -12 79 24 81 37 0 4 2 16 4 27 7 34 -19 52 -53 38z
m9 -53 c-30 -26 -49 -26 -26 0 10 11 25 20 34 20 12 -1 10 -5 -8 -20z"/>
<path d="M7752 3328 c-18 -18 -15 -41 4 -34 9 3 18 6 20 6 2 0 4 9 4 20 0 23
-10 26 -28 8z"/>
<path d="M6600 3156 c0 -7 -23 -62 -52 -122 -31 -66 -52 -124 -52 -146 -1 -48
17 -50 26 -3 5 20 31 86 59 146 47 102 55 139 29 139 -5 0 -10 -6 -10 -14z"/>
<path d="M7419 3148 c0 -7 -24 -62 -54 -123 -37 -76 -49 -112 -41 -117 7 -5 5
-8 -6 -8 -21 0 -45 -67 -30 -82 14 -14 32 -1 32 23 0 30 26 74 55 93 14 9 24
20 21 24 -8 14 57 11 86 -4 31 -16 51 -54 42 -79 -4 -8 -3 -23 1 -32 6 -17 7
-17 21 1 24 34 17 75 -18 110 -18 18 -40 35 -48 39 -20 7 15 36 90 73 68 34
66 32 53 45 -13 13 -92 -24 -164 -77 -43 -31 -69 -42 -69 -28 0 3 14 32 30 66
17 33 30 66 30 74 0 17 -30 19 -31 2z"/>
<path d="M6488 3143 c0 -5 -2 -12 -2 -18 -1 -5 -7 -19 -13 -31 -28 -49 -73
-177 -73 -204 0 -45 26 -38 32 8 3 20 24 81 47 134 22 53 41 102 41 107 0 12
-29 15 -32 4z"/>
<path d="M6820 3123 c-25 -8 -52 -21 -61 -29 -8 -8 -20 -14 -27 -14 -6 0 -16
-17 -23 -37 -6 -21 -27 -72 -45 -115 -36 -80 -41 -108 -23 -108 6 0 20 -11 31
-25 31 -39 95 -32 171 19 52 35 74 111 42 146 -14 15 -12 21 19 61 43 57 51
82 31 103 -20 20 -57 20 -115 -1z m92 -25 c3 -7 1 -17 -3 -23 -38 -49 -67 -77
-84 -79 -30 -4 -32 -36 -3 -36 13 0 29 -5 36 -12 53 -53 -79 -173 -154 -140
-21 10 -24 17 -21 50 5 49 68 213 79 206 5 -3 15 0 23 6 18 15 83 39 107 40 9
0 18 -6 20 -12z"/>
<path d="M5936 2978 c-39 -45 -44 -73 -21 -118 14 -26 21 -30 58 -29 49 1 71
9 75 28 2 11 -6 13 -38 8 -29 -4 -46 0 -62 13 -20 15 -20 20 -9 48 20 49 46
67 76 54 31 -14 47 5 20 25 -33 23 -61 15 -99 -29z"/>
<path d="M6162 2955 c-36 -41 -38 -48 -17 -65 12 -10 21 -10 41 -1 33 15 34
15 34 -13 0 -30 25 -57 45 -50 19 8 19 20 0 28 -21 8 -19 35 5 74 22 36 20 51
-8 51 -9 0 -29 3 -43 6 -21 6 -31 0 -57 -30z m58 -5 c0 -5 -10 -15 -22 -21
-23 -12 -23 -12 -4 10 21 23 26 26 26 11z"/>
<path d="M6970 2942 c-50 -51 -31 -106 30 -87 16 5 20 2 20 -14 0 -12 6 -21
14 -21 15 0 32 90 19 99 -5 3 -13 15 -19 25 -16 31 -31 30 -64 -2z m54 -21 c6
-10 -43 -46 -51 -38 -2 3 0 15 7 26 11 22 35 28 44 12z"/>
<path d="M7153 2928 c-32 -36 -35 -56 -11 -78 12 -11 29 -20 37 -20 33 0 61
13 61 27 0 12 -8 14 -35 9 -48 -9 -60 18 -21 49 25 20 26 35 1 35 -6 0 -21
-10 -32 -22z"/>
<path d="M7716 2861 c-3 -5 -3 -17 0 -26 15 -38 -58 -109 -85 -82 -8 8 -14 8
-22 0 -17 -17 -3 -43 24 -43 58 0 135 87 118 133 -9 24 -26 33 -35 18z"/>
<path d="M10153 2784 c-18 -9 -68 -53 -111 -98 -84 -88 -118 -153 -129 -246
-7 -65 28 -126 93 -162 51 -29 88 -35 99 -18 6 9 -50 27 -57 19 -2 -2 -22 13
-45 35 -58 53 -69 89 -48 168 21 84 51 131 128 205 70 67 105 86 142 77 29 -7
42 12 16 25 -27 15 -50 13 -88 -5z"/>
<path d="M13456 2778 c-7 -13 -16 -59 -19 -103 -7 -106 -37 -189 -86 -239 -41
-41 -71 -44 -71 -7 0 19 47 61 69 61 14 0 14 27 1 35 -14 8 -90 -52 -100 -79
-10 -29 9 -65 38 -73 81 -20 182 158 182 323 0 33 5 58 15 68 8 8 15 19 15 25
0 19 -29 12 -44 -11z"/>
<path d="M14845 2773 c-14 -65 -59 -192 -86 -240 -16 -29 -29 -56 -29 -60 0
-14 53 -33 88 -33 25 0 43 9 68 34 56 56 39 103 -35 93 l-39 -5 29 84 c16 46
30 98 31 115 4 41 -19 50 -27 12z m45 -243 c0 -23 -50 -61 -77 -58 -38 4 -38
19 0 46 33 23 77 30 77 12z"/>
<path d="M13889 2768 c-7 -13 -32 -64 -55 -115 -23 -50 -60 -125 -83 -167 -22
-41 -41 -78 -41 -81 0 -16 37 0 79 35 60 50 76 52 68 6 -4 -23 -1 -39 8 -46
19 -16 43 84 25 105 -16 19 -28 19 -64 0 -15 -8 -30 -15 -31 -15 -2 0 25 61
61 136 36 75 66 141 67 146 4 21 -22 18 -34 -4z"/>
<path d="M9020 2770 c-14 -4 -44 -8 -66 -9 -50 -1 -57 -9 -78 -86 -10 -33 -24
-65 -32 -72 -9 -6 -14 -17 -13 -25 1 -7 -5 -38 -15 -69 -17 -56 -13 -93 8 -86
6 2 12 16 13 32 1 15 10 50 19 76 14 37 23 49 38 49 29 1 163 34 172 43 17 16
-32 18 -98 3 -39 -9 -72 -15 -74 -13 -2 1 4 26 12 55 17 57 9 53 132 73 47 8
72 17 72 26 0 14 -48 16 -90 3z"/>
<path d="M8120 2758 c-243 -10 -305 -18 -305 -38 0 -9 8 -14 20 -12 74 10 215
14 215 5 0 -14 -63 -197 -95 -276 -19 -48 -24 -72 -17 -79 15 -15 29 -3 35 29
3 16 28 90 56 166 28 75 51 146 51 157 0 19 7 20 120 20 102 0 119 2 114 15
-4 8 -1 15 5 15 6 0 11 -4 11 -10 0 -5 5 -10 10 -10 6 0 10 7 10 15 0 8 -8 14
-17 13 -10 0 -106 -5 -213 -10z"/>
<path d="M10460 2734 c-6 -15 -19 -39 -30 -54 -23 -33 -25 -50 -6 -50 17 0 79
107 71 120 -11 17 -25 11 -35 -16z"/>
<path d="M13255 2703 c-10 -27 -30 -75 -45 -108 -15 -33 -38 -91 -51 -130 -13
-38 -30 -75 -38 -81 -17 -13 -6 -34 18 -34 12 0 21 14 29 47 14 49 55 157 92
238 12 26 19 53 16 61 -3 8 -2 13 3 10 5 -3 12 1 15 10 9 24 7 34 -8 34 -7 0
-21 -21 -31 -47z"/>
<path d="M12041 2710 c-12 -17 -19 -35 -16 -40 3 -6 -1 -10 -9 -10 -8 0 -20
-8 -25 -19 -10 -17 -6 -31 9 -31 8 0 90 114 90 124 0 17 -29 2 -49 -24z"/>
<path d="M12736 2678 c-8 -24 -22 -66 -30 -93 -9 -28 -28 -68 -42 -88 -14 -21
-23 -45 -20 -54 5 -12 11 -10 37 11 40 34 46 33 41 -9 -5 -42 14 -48 28 -9 15
38 12 71 -6 78 -9 3 -19 4 -23 2 -4 -3 8 39 26 92 38 112 38 112 19 112 -8 0
-21 -19 -30 -42z"/>
<path d="M11964 2600 c-5 -4 -22 -10 -39 -12 -19 -2 -31 -9 -33 -21 -3 -15 1
-17 24 -11 24 6 26 5 20 -12 -4 -10 -9 -27 -11 -36 -2 -9 -8 -26 -14 -37 -18
-33 -13 -70 14 -97 20 -20 33 -25 67 -22 56 4 64 28 10 28 -78 0 -88 41 -37
146 14 28 25 56 25 62 0 15 -15 23 -26 12z"/>
<path d="M9314 2578 c-51 -57 -94 -130 -94 -160 0 -33 32 -17 44 22 6 19 24
54 40 78 26 38 30 41 42 25 19 -27 37 -5 21 26 -16 33 -30 35 -53 9z"/>
<path d="M12028 2593 c-16 -2 -28 -11 -28 -19 0 -10 14 -14 54 -14 48 0 77 12
64 26 -8 7 -62 12 -90 7z"/>
<path d="M9145 2579 c-4 -5 -18 -14 -31 -19 -17 -7 -24 -17 -24 -35 0 -14 -7
-39 -15 -56 -15 -29 -13 -49 5 -49 6 0 23 29 39 64 32 70 45 83 66 66 23 -19
39 -1 19 21 -19 21 -49 25 -59 8z"/>
<path d="M9623 2538 c-62 -82 -95 -168 -65 -168 4 0 22 28 39 63 45 85 80 126
92 108 12 -18 32 -5 24 17 -7 19 -23 32 -39 32 -7 0 -29 -24 -51 -52z"/>
<path d="M14236 2520 c-26 -38 -51 -70 -56 -70 -6 0 -10 21 -10 46 0 63 -24
54 -28 -11 -5 -92 38 -101 94 -17 21 31 47 67 57 79 18 20 16 43 -3 43 -4 0
-29 -31 -54 -70z"/>
<path d="M15208 2570 c-72 -38 -98 -100 -58 -140 30 -30 110 -25 110 6 0 11
-9 13 -38 8 -28 -4 -41 -2 -51 10 -14 17 -7 36 14 36 27 0 93 32 99 47 9 24
-3 53 -22 53 -9 -1 -33 -10 -54 -20z m52 -15 c0 -6 -56 -35 -67 -35 -4 1 8 9
27 20 39 22 40 22 40 15z"/>
<path d="M6638 2559 c-24 -17 -28 -18 -28 -5 0 42 -29 7 -68 -82 -47 -109 -48
-112 -28 -112 18 0 69 87 60 102 -4 6 -3 8 4 4 6 -3 18 6 27 22 17 27 73 67
83 58 2 -3 -3 -36 -13 -74 -17 -65 -15 -117 4 -96 14 16 43 161 36 183 -8 27
-41 27 -77 0z"/>
<path d="M7033 2565 c-18 -8 -33 -21 -33 -30 0 -19 9 -19 49 1 50 25 54 13 16
-46 -59 -92 -41 -140 32 -84 31 23 34 24 40 7 11 -31 35 -53 59 -53 35 0 62
36 69 94 3 28 11 66 17 84 5 18 7 36 4 40 -15 15 -38 -30 -49 -98 -14 -83 -37
-110 -63 -75 -8 11 -13 33 -12 49 4 42 -15 42 -55 -1 -20 -20 -38 -35 -41 -32
-3 3 10 30 29 60 43 65 43 93 0 96 -16 2 -45 -4 -62 -12z"/>
<path d="M15379 2554 c-6 -16 -23 -52 -37 -81 -15 -28 -23 -55 -19 -59 4 -4
26 8 49 26 37 30 41 31 36 12 -4 -14 1 -31 12 -45 16 -19 21 -20 32 -8 10 11
10 14 1 18 -18 6 -16 38 3 75 19 38 5 61 -23 36 -36 -30 -42 -30 -30 2 8 22 8
33 0 41 -9 9 -15 5 -24 -17z"/>
<path d="M6818 2547 c-35 -29 -58 -78 -58 -122 0 -51 44 -77 122 -72 58 3 96
23 79 40 -5 5 -17 5 -29 -2 -53 -29 -146 -1 -140 42 2 16 12 21 48 24 70 7
115 64 78 101 -19 19 -71 14 -100 -11z m79 -24 c5 -15 -46 -41 -70 -35 -17 4
-17 6 4 28 24 25 59 29 66 7z"/>
<path d="M8356 2536 c-20 -18 -36 -38 -36 -45 0 -6 -11 -11 -24 -11 -22 0 -25
-6 -36 -72 -6 -40 -18 -95 -27 -121 -10 -31 -12 -52 -6 -58 12 -12 33 18 58
84 13 35 23 47 39 47 38 0 83 37 110 91 31 63 33 95 7 109 -32 16 -47 12 -85
-24z m69 -37 c-8 -35 -74 -109 -98 -109 -25 0 0 62 49 120 42 51 62 47 49 -11z"/>
<path d="M8580 2549 c-89 -35 -129 -157 -57 -174 34 -9 111 18 115 39 3 15 0
17 -14 11 -11 -4 -31 -10 -46 -13 -16 -2 -28 -8 -28 -13 0 -16 -15 -10 -27 11
-7 10 -10 27 -6 35 4 13 8 14 14 4 6 -11 17 -9 52 8 50 24 64 53 39 82 -14 16
-22 18 -42 10z m20 -39 c0 -11 -59 -44 -66 -37 -6 6 45 47 57 47 5 0 9 -4 9
-10z"/>
<path d="M9454 2550 c-28 -11 -74 -67 -74 -90 0 -18 25 -50 38 -50 4 0 24 5
44 10 51 14 65 60 36 118 -12 24 -14 25 -44 12z m21 -66 c0 -25 -4 -29 -32
-32 -38 -4 -41 5 -12 42 26 33 44 29 44 -10z"/>
<path d="M12517 2553 c-20 -5 -19 -12 4 -69 18 -45 7 -64 -36 -64 -22 0 -38 6
-41 15 -8 19 -34 20 -34 2 0 -36 89 -64 127 -39 24 15 32 56 17 91 -18 42 -18
39 8 43 33 5 35 28 1 27 -15 -1 -36 -3 -46 -6z"/>
<path d="M14350 2520 c-69 -67 -48 -123 43 -118 70 4 74 26 6 30 -64 4 -73 21
-20 36 46 14 65 34 56 60 -11 37 -43 33 -85 -8z"/>
<path d="M15007 2523 c-55 -46 -64 -91 -22 -119 24 -16 55 -13 55 5 0 5 -11
12 -25 15 -33 8 -32 32 2 41 45 11 84 45 81 69 -5 35 -41 31 -91 -11z m63 2
c0 -2 -10 -9 -22 -15 -22 -11 -22 -10 -4 4 21 17 26 19 26 11z"/>
<path d="M10496 2513 c-26 -27 -36 -45 -34 -63 4 -31 39 -38 73 -16 31 20 35
20 35 -3 0 -15 28 -52 31 -40 0 2 1 30 2 62 1 38 -2 57 -10 57 -6 0 -15 9 -18
20 -10 30 -39 24 -79 -17z m44 -23 c0 -18 -36 -47 -46 -37 -4 4 34 57 42 57 2
0 4 -9 4 -20z"/>
<path d="M11533 2531 c-42 -19 -73 -61 -73 -98 0 -30 27 -60 60 -67 39 -7 109
19 93 35 -8 8 -20 8 -44 0 -26 -9 -37 -8 -56 4 -12 9 -23 23 -23 33 0 13 2 14
9 3 11 -18 73 2 102 32 20 21 18 55 -5 69 -15 10 -15 10 -63 -11z m57 -26 c0
-9 -64 -45 -80 -45 -23 1 37 50 61 50 10 0 19 -2 19 -5z"/>
<path d="M11765 2538 c-38 -21 -125 -100 -125 -114 0 -25 24 -15 64 26 21 22
41 39 42 37 2 -2 -5 -22 -16 -45 -24 -50 -25 -68 -3 -76 20 -8 44 11 26 22 -8
5 -3 24 18 65 39 80 37 108 -6 85z"/>
<path d="M14004 2536 c-11 -8 -33 -33 -49 -56 -26 -37 -27 -42 -13 -57 15 -14
19 -14 52 6 30 19 36 20 36 7 0 -32 28 -16 29 17 0 17 1 39 2 47 6 51 -16 64
-57 36z m21 -40 c-9 -13 -24 -27 -33 -31 -10 -4 -5 6 12 24 36 37 42 39 21 7z"/>
<path d="M8169 2485 c-24 -58 -34 -62 -44 -15 -7 32 -19 45 -34 35 -6 -3 -1
-30 11 -64 l21 -58 -36 -55 c-42 -63 -89 -163 -80 -172 14 -14 24 -2 53 61 17
37 37 74 44 83 25 27 118 219 111 230 -12 20 -23 9 -46 -45z"/>
<path d="M10688 2513 c-30 -33 -48 -65 -48 -87 0 -25 27 -19 34 7 10 41 46 78
68 71 16 -5 19 -2 16 13 -5 29 -41 27 -70 -4z"/>
<path d="M11250 2520 c-8 -5 -22 -7 -30 -5 -10 3 -24 -12 -42 -48 -16 -29 -28
-58 -28 -65 0 -19 28 -14 34 6 4 10 23 34 44 54 34 33 38 35 52 20 13 -14 12
-15 -3 -9 -13 5 -21 -2 -32 -30 -19 -44 -19 -43 3 -43 10 0 35 18 56 40 53 56
68 53 60 -10 -5 -41 -4 -50 9 -50 20 0 33 89 17 119 -14 26 -30 27 -63 1 l-26
-20 -3 22 c-3 25 -25 33 -48 18z"/>
<path d="M12841 2494 c-23 -29 -28 -83 -9 -102 7 -7 25 -12 40 -12 21 0 29 6
34 26 7 27 -9 74 -25 74 -5 0 -7 9 -4 20 7 28 -12 25 -36 -6z m39 -70 c0 -16
-16 -19 -25 -4 -8 13 4 32 16 25 5 -4 9 -13 9 -21z"/>
<path d="M10822 2494 c-16 -11 -22 -24 -20 -42 3 -23 8 -27 35 -27 25 0 33 -5
38 -23 3 -13 4 -31 1 -40 -2 -10 -7 -29 -10 -43 -5 -22 -13 -27 -47 -32 -23
-3 -51 -14 -61 -25 -40 -39 -42 -142 -3 -142 31 0 54 20 87 75 26 44 38 55 62
57 38 4 48 28 11 28 -21 0 -26 4 -21 16 3 9 8 48 11 87 3 40 8 84 11 100 5 26
4 27 -33 27 -21 0 -49 -7 -61 -16z m38 -29 c-7 -8 -17 -15 -22 -15 -6 0 -5 7
2 15 7 8 17 15 22 15 6 0 5 -7 -2 -15z m-20 -210 c0 -10 -48 -81 -64 -94 -14
-12 -16 -10 -16 21 0 36 15 62 40 71 20 7 40 8 40 2z"/>
<path d="M11004 2475 c-12 -68 61 -101 120 -54 29 23 36 69 11 69 -8 0 -15 -9
-15 -20 0 -21 -27 -40 -59 -40 -22 0 -24 6 -21 53 2 42 -28 35 -36 -8z"/>
<path d="M13037 2484 c-4 -4 -7 -15 -7 -25 0 -18 -49 -59 -70 -59 -9 0 -11 12
-6 40 3 22 3 40 -2 40 -18 0 -32 -26 -32 -62 0 -32 4 -39 27 -44 16 -4 36 -2
52 7 28 16 73 77 68 93 -4 13 -21 18 -30 10z"/>
<path d="M15760 2455 c0 -10 7 -15 18 -13 21 4 19 22 -2 26 -10 2 -16 -3 -16
-13z"/>
<path d="M15952 2456 c1 -10 8 -17 13 -17 15 1 12 24 -3 29 -9 3 -13 -2 -10
-12z"/>
<path d="M15596 2451 c-9 -14 4 -41 19 -41 15 0 28 27 19 41 -3 5 -11 9 -19 9
-8 0 -16 -4 -19 -9z"/>
<path d="M8950 2429 c-19 -6 -42 -13 -50 -16 -8 -3 -22 -7 -30 -8 -71 -9 -100
-18 -100 -31 0 -16 20 -17 75 -3 52 13 69 16 133 30 33 7 52 16 52 25 0 16
-28 17 -80 3z"/>
<path d="M6070 2307 c0 -7 10 -17 22 -22 49 -22 69 -113 43 -201 -14 -50 -28
-69 -91 -132 -61 -59 -79 -72 -102 -70 -21 2 -27 -1 -27 -17 0 -30 35 -30 75
0 66 48 139 127 160 173 42 88 34 208 -17 264 -18 20 -63 24 -63 5z"/>
<path d="M4733 2289 c-45 -29 -43 -59 7 -113 49 -53 55 -100 15 -118 -19 -8
-31 -8 -51 1 -25 11 -26 13 -10 30 23 25 3 37 -24 14 -27 -23 -25 -37 6 -62
38 -30 80 -27 115 8 43 43 36 81 -27 151 -34 37 -36 43 -22 57 17 16 50 20 86
8 27 -9 30 11 5 31 -26 19 -63 17 -100 -7z"/>
<path d="M5722 2271 c-26 -45 -29 -81 -7 -81 8 0 15 8 15 18 0 9 9 32 20 50
23 38 25 52 7 52 -7 0 -23 -17 -35 -39z"/>
<path d="M4980 2298 c0 -2 -11 -32 -23 -67 -20 -57 -26 -66 -55 -73 -39 -10
-46 -43 -7 -36 22 5 24 3 18 -21 -3 -14 -10 -36 -14 -49 -13 -34 -11 -74 3
-70 7 3 21 37 32 76 16 62 22 72 42 72 29 0 54 10 54 21 0 5 -13 9 -30 9 -35
0 -35 0 -11 70 11 30 17 58 15 62 -5 7 -24 11 -24 6z"/>
<path d="M5240 2175 c0 -10 7 -15 18 -13 21 4 19 22 -2 26 -10 2 -16 -3 -16
-13z"/>
<path d="M6350 2155 c-6 -8 -9 -19 -5 -25 9 -14 45 6 45 25 0 19 -24 19 -40 0z"/>
<path d="M5075 2119 c-32 -39 -66 -104 -58 -113 14 -14 29 -4 46 32 34 69 43
77 72 62 35 -19 42 -6 12 24 -33 33 -40 33 -72 -5z"/>
<path d="M5271 2084 c-34 -42 -47 -82 -32 -97 6 -6 12 -9 13 -6 2 2 14 25 27
52 24 47 41 61 41 32 0 -8 -6 -14 -12 -12 -7 1 -13 -7 -13 -18 0 -11 8 -21 17
-23 33 -6 53 90 22 102 -26 10 -31 7 -63 -30z"/>
<path d="M5418 2083 c-32 -37 -38 -59 -22 -81 20 -28 33 -28 79 4 l38 25 -7
-78 c-4 -43 -12 -81 -18 -84 -6 -4 -8 -15 -4 -24 7 -19 -25 -99 -51 -127 -20
-23 -33 -8 -33 39 0 17 -6 34 -12 36 -10 4 -10 6 0 6 6 1 12 7 12 15 0 15 21
26 51 26 10 0 19 7 19 15 0 20 -49 20 -78 -1 -19 -13 -22 -24 -21 -72 1 -83
10 -106 41 -110 19 -2 31 4 45 25 23 34 53 97 53 112 0 6 11 17 25 23 27 12
32 26 12 34 -9 3 -13 32 -12 104 0 81 -3 102 -17 117 -17 16 -18 15 -29 -15
-12 -34 -69 -75 -69 -49 0 7 7 23 16 36 20 29 5 50 -18 24z m108 -148 c-3 -20
-16 -31 -16 -13 0 13 8 28 16 28 1 0 1 -7 0 -15z"/>
<path d="M5164 2024 c-10 -37 12 -55 26 -20 14 37 13 46 -5 46 -8 0 -18 -12
-21 -26z"/>
<path d="M4005 2000 c-8 -14 3 -30 21 -30 8 0 14 9 14 20 0 21 -24 28 -35 10z"/>
<path d="M4360 1992 c-14 -11 -20 -24 -16 -31 9 -14 66 17 66 36 0 19 -24 16
-50 -5z"/>
<path d="M4174 1989 c-3 -6 -1 -16 4 -21 13 -13 45 8 36 23 -7 12 -31 11 -40
-2z"/>
<path d="M6297 1993 c-4 -3 -7 -14 -7 -24 0 -10 -18 -33 -40 -52 -37 -31 -51
-57 -32 -57 16 0 72 40 86 62 23 37 31 78 14 78 -8 0 -18 -3 -21 -7z"/>
<path d="M4226 1843 c-15 -16 -3 -31 34 -42 22 -6 40 -15 40 -18 0 -21 -44
-93 -60 -98 -10 -3 -25 -16 -34 -29 -14 -22 -13 -25 4 -41 19 -17 19 -19 3
-31 -17 -11 -17 -14 0 -48 23 -50 22 -67 -13 -114 -20 -29 -38 -42 -53 -42
-31 0 -40 10 -25 27 18 22 -5 38 -26 18 -27 -27 -21 -55 13 -55 16 0 42 -3 59
-6 29 -6 33 -2 61 42 33 50 39 91 20 127 -10 18 -8 24 15 42 31 25 34 45 7 45
-34 0 -32 16 9 59 38 43 62 114 44 130 -16 14 -92 40 -98 34z"/>
<path d="M4135 1259 c-33 -5 -77 -6 -97 -3 -30 5 -38 3 -38 -10 0 -9 11 -18
24 -22 33 -8 279 19 277 31 -1 13 -89 15 -166 4z"/>
<path d="M3977 1163 c-16 -3 -26 -10 -24 -16 2 -8 45 -11 133 -12 71 0 136 -2
144 -5 9 -3 15 1 15 10 0 8 -11 17 -25 21 -27 8 -197 9 -243 2z"/>
<path d="M3330 1003 c0 -16 -18 -71 -39 -123 l-38 -95 -41 -3 -42 -3 26 71
c28 77 30 145 4 145 -11 0 -14 -9 -12 -29 2 -16 -9 -66 -24 -112 l-26 -82 -57
-9 c-39 -5 -56 -12 -56 -23 0 -16 9 -17 67 -5 l38 7 -26 -72 c-16 -46 -22 -76
-16 -82 13 -13 21 1 49 81 12 35 23 64 25 66 2 1 18 5 37 9 29 5 33 3 28 -12
-27 -95 -30 -113 -21 -122 7 -7 24 6 54 41 33 39 40 53 29 59 -8 5 -19 4 -27
-2 -12 -11 14 67 38 113 21 38 60 158 60 183 0 16 -5 26 -15 26 -10 0 -15 -10
-15 -27z"/>
<path d="M4683 1008 c-5 -7 -20 -49 -33 -93 -12 -44 -53 -140 -91 -214 -62
-120 -74 -158 -49 -149 19 7 145 270 172 357 26 86 26 132 1 99z"/>
<path d="M2017 1003 c-4 -3 -7 -15 -7 -25 0 -11 -13 -58 -29 -106 -16 -48 -39
-120 -51 -160 -11 -40 -25 -70 -29 -67 -9 5 -36 140 -47 235 -12 101 -45 86
-68 -30 -8 -41 -26 -113 -40 -160 -23 -78 -22 -111 2 -96 5 3 12 18 15 33 7
35 46 183 54 203 3 8 16 -35 28 -96 25 -126 29 -134 55 -134 25 0 44 37 70
135 12 43 30 103 41 134 32 87 41 120 34 131 -7 12 -19 13 -28 3z"/>
<path d="M4418 1001 c-53 -20 -100 -88 -148 -216 -20 -55 -30 -71 -48 -73 -24
-4 -31 -32 -7 -32 20 0 19 -8 -10 -59 -29 -50 -31 -61 -10 -61 9 0 29 28 47
65 20 40 40 67 53 71 49 13 75 27 75 40 0 17 1 17 -48 0 l-40 -15 17 52 c27
77 65 149 95 177 24 21 29 23 48 11 13 -8 24 -9 30 -3 20 20 -24 55 -54 43z"/>
<path d="M6340 968 c-46 -31 -69 -74 -81 -149 -5 -34 -12 -66 -15 -71 -3 -4
-28 -8 -55 -8 -63 0 -63 -23 -1 -28 23 -2 42 -4 42 -6 0 -2 -13 -27 -30 -57
-33 -60 -37 -79 -16 -79 7 0 30 34 50 75 20 41 42 76 49 76 39 4 68 19 61 31
-3 5 -19 6 -36 3 l-30 -7 7 49 c16 110 69 173 137 159 24 -5 29 -3 26 12 -5
27 -67 28 -108 0z"/>
<path d="M11166 965 c-9 -13 -25 -47 -36 -75 -26 -66 -67 -147 -77 -152 -4 -1
-18 -17 -30 -35 -25 -35 -30 -67 -10 -60 6 2 23 -4 36 -14 35 -27 67 -23 107
14 37 34 55 84 44 127 -5 21 -12 25 -41 25 l-35 0 29 70 c15 38 35 77 43 86 7
8 14 21 14 27 0 21 -27 13 -44 -13z m4 -229 c0 -24 -9 -43 -29 -65 -32 -34
-48 -38 -76 -17 -18 13 -17 16 19 59 56 68 86 76 86 23z"/>
<path d="M7101 890 c-34 -51 -61 -99 -61 -107 0 -12 -9 -14 -41 -10 -34 4 -40
3 -37 -11 2 -10 15 -18 31 -20 27 -3 27 -4 21 -53 -9 -69 10 -89 78 -85 27 1
54 9 61 16 9 10 9 11 0 6 -7 -4 -13 -3 -13 2 0 5 -20 7 -45 4 -53 -5 -62 7
-48 65 8 36 11 38 63 49 40 7 56 15 58 28 3 13 -1 17 -15 13 -48 -14 -83 -18
-83 -9 0 5 25 48 56 96 41 62 54 90 46 98 -8 8 -28 -16 -71 -82z"/>
<path d="M9635 958 c-34 -97 -80 -220 -110 -291 -20 -48 -33 -92 -30 -97 12
-19 35 -10 35 13 0 13 18 64 39 114 35 79 101 256 101 269 0 10 -31 3 -35 -8z"/>
<path d="M8959 913 c-34 -90 -91 -279 -93 -305 -2 -45 20 -46 29 -2 3 21 26
97 51 170 24 72 44 139 44 148 0 26 -20 18 -31 -11z"/>
<path d="M8844 913 c-3 -10 -30 -72 -59 -138 -30 -70 -48 -122 -42 -124 6 -2
18 6 26 19 29 43 112 240 106 250 -10 16 -25 12 -31 -7z"/>
<path d="M8665 869 c-10 -15 1 -23 20 -15 9 3 13 10 10 16 -8 13 -22 13 -30
-1z"/>
<path d="M5190 850 c0 -19 20 -27 33 -13 8 7 -11 33 -24 33 -5 0 -9 -9 -9 -20z"/>
<path d="M4464 839 c-8 -14 11 -33 25 -25 11 7 4 36 -9 36 -5 0 -12 -5 -16
-11z"/>
<path d="M7332 823 c2 -10 10 -18 18 -18 22 0 18 29 -3 33 -14 3 -18 -1 -15
-15z"/>
<path d="M4718 799 c-31 -17 -68 -93 -68 -137 0 -68 45 -94 116 -67 24 9 44
21 44 26 0 12 -16 11 -63 -2 -28 -8 -42 -7 -53 2 -16 13 -19 49 -3 49 5 0 7 5
4 10 -6 9 8 15 29 11 13 -3 66 60 66 79 0 35 -37 50 -72 29z m42 -27 c0 -12
-59 -66 -65 -60 -7 7 43 68 56 68 5 0 9 -4 9 -8z"/>
<path d="M4963 794 c-43 -18 -52 -53 -24 -93 12 -16 21 -34 21 -39 0 -13 -33
-24 -51 -17 -19 7 -43 -10 -35 -24 16 -25 109 -5 121 27 3 8 -6 32 -20 53 -14
21 -25 41 -25 44 0 11 61 35 89 35 23 0 29 4 25 15 -8 19 -57 18 -101 -1z"/>
<path d="M8304 766 c-33 -29 -37 -36 -26 -48 12 -11 16 -9 29 10 33 47 32 19
-2 -48 -36 -71 -37 -100 -5 -100 23 0 36 18 22 32 -7 7 1 34 25 84 29 61 33
77 23 89 -17 21 -21 20 -66 -19z"/>
<path d="M5506 757 c-19 -18 -38 -45 -41 -59 -8 -33 -3 -78 10 -80 6 0 15 -8
21 -16 14 -19 102 -8 111 14 8 22 1 25 -40 13 -49 -13 -79 -4 -75 23 2 12 11
22 22 24 24 3 76 53 76 74 0 19 -19 40 -36 40 -7 0 -28 -15 -48 -33z m31 -32
c-15 -14 -33 -25 -38 -25 -6 0 3 11 18 25 15 13 33 24 38 24 6 0 -3 -11 -18
-24z"/>
<path d="M7607 740 c-13 -30 -36 -70 -52 -88 -20 -24 -25 -36 -17 -44 8 -8 31
9 82 63 72 74 76 73 44 -11 -27 -72 -2 -126 47 -100 27 15 24 30 -6 30 -30 0
-32 15 -9 68 25 57 29 111 10 118 -9 3 -23 1 -31 -6 -13 -11 -18 -10 -29 6
-13 17 -16 15 -39 -36z"/>
<path d="M9677 759 c-37 -31 -46 -52 -26 -64 6 -4 13 2 16 13 2 11 16 25 30
31 l25 11 -31 -54 c-17 -29 -31 -61 -31 -70 0 -31 30 -29 71 3 l39 32 26 -20
c34 -27 48 -19 63 37 7 26 15 55 18 65 3 10 0 17 -9 17 -16 0 -38 -40 -38 -69
0 -29 -12 -33 -35 -11 l-22 21 -31 -26 c-16 -14 -33 -25 -36 -25 -3 0 8 25 25
55 48 85 19 114 -54 54z"/>
<path d="M11281 750 c-51 -50 -64 -79 -50 -119 13 -36 55 -56 100 -46 48 11
99 34 99 45 0 14 -18 12 -72 -7 -38 -13 -52 -14 -73 -5 -37 17 -33 50 9 67 43
18 76 59 69 85 -8 31 -37 24 -82 -20z"/>
<path d="M2238 749 c-41 -21 -56 -33 -52 -44 8 -19 6 -19 48 6 20 12 36 18 36
15 0 -4 -13 -30 -30 -59 -22 -40 -27 -56 -18 -65 8 -8 18 -6 39 9 26 18 30 19
53 4 25 -16 76 -12 76 7 0 5 4 7 9 3 16 -9 33 34 26 66 -9 40 -40 40 -32 0 10
-47 -40 -74 -72 -39 -11 11 -26 18 -34 15 -11 -4 -9 4 5 31 19 38 23 68 11 75
-5 3 -34 -8 -65 -24z"/>
<path d="M3468 764 c-15 -8 -31 -26 -34 -39 -4 -16 -13 -25 -25 -25 -20 0 -26
-15 -9 -25 6 -3 10 -19 10 -35 0 -39 36 -73 69 -65 51 13 91 35 91 49 0 20 2
20 -54 -5 -37 -16 -50 -18 -62 -9 -26 23 -16 54 27 80 52 32 64 53 43 74 -19
19 -22 19 -56 0z m10 -44 c-7 -10 -14 -17 -17 -15 -4 4 18 35 25 35 2 0 -1 -9
-8 -20z"/>
<path d="M12278 765 c-33 -19 -35 -37 -7 -76 28 -40 22 -63 -19 -67 -18 -2
-32 1 -32 7 0 6 -7 11 -15 11 -18 0 -20 -21 -3 -38 16 -16 90 -16 106 0 18 18
14 67 -8 98 -22 32 -18 39 32 49 16 3 30 11 31 16 3 16 -56 16 -85 0z"/>
<path d="M5305 757 c-50 -10 -71 -25 -56 -40 4 -4 20 -3 34 2 15 6 27 8 27 5
0 -3 -20 -29 -45 -56 -25 -28 -44 -56 -42 -61 11 -34 85 -33 128 2 36 29 15
42 -31 19 -64 -32 -66 -16 -6 49 77 83 75 96 -9 80z"/>
<path d="M9343 755 c-35 -15 -63 -60 -63 -100 0 -31 23 -42 60 -28 26 10 28 8
34 -18 7 -35 38 -41 34 -6 -4 34 12 117 23 117 22 0 6 29 -22 39 -18 6 -32 11
-33 11 -1 -1 -15 -7 -33 -15z m29 -65 c-42 -41 -62 -50 -62 -26 0 29 41 66 72
66 l31 0 -41 -40z"/>
<path d="M10369 751 c-20 -16 -22 -23 -12 -38 6 -10 15 -17 20 -16 5 1 10 -14
10 -33 1 -33 0 -34 -39 -34 -23 0 -37 4 -33 10 13 21 -7 31 -26 14 -18 -16
-18 -19 -3 -35 24 -27 91 -35 115 -13 24 22 24 50 0 91 -21 34 -15 43 30 43
23 0 25 15 3 24 -26 10 -41 7 -65 -13z"/>
<path d="M12829 731 c-65 -64 -47 -121 37 -121 50 0 114 23 114 41 0 8 -10 9
-32 4 -18 -5 -53 -9 -78 -9 -57 -1 -64 21 -20 65 23 23 36 30 54 25 27 -7 37
0 29 20 -11 28 -63 16 -104 -25z"/>
<path d="M2052 744 c-25 -17 -52 -74 -52 -110 0 -14 10 -30 25 -40 21 -14 30
-14 56 -4 17 7 37 23 45 36 14 20 14 29 -2 78 -19 60 -33 68 -72 40z m44 -59
c18 -44 19 -42 -13 -58 -52 -26 -64 -7 -38 57 19 45 32 46 51 1z"/>
<path d="M3301 741 c-21 -16 -22 -19 -6 -25 10 -3 24 -1 31 5 18 15 18 2 -1
-51 -8 -23 -15 -53 -15 -66 0 -36 27 -29 33 9 3 17 11 51 17 74 20 70 -7 94
-59 54z"/>
<path d="M8490 725 c-5 -14 -13 -37 -16 -51 -9 -35 -22 -39 -43 -13 l-19 23
-41 -27 c-22 -15 -41 -31 -41 -35 0 -20 15 -20 42 -1 l29 21 21 -21 c11 -12
27 -21 36 -19 19 3 61 82 62 115 0 33 -19 38 -30 8z"/>
<path d="M9953 718 c-45 -48 -57 -76 -42 -95 13 -15 55 -14 90 1 12 5 17 -3
25 -36 7 -33 14 -44 32 -46 24 -4 29 7 10 26 -15 15 -19 142 -4 142 21 1 -36
40 -58 40 -12 0 -36 -15 -53 -32z m74 -6 c15 -10 -25 -57 -57 -67 -33 -11 -34
1 -5 39 28 36 40 42 62 28z"/>
<path d="M10248 733 c-9 -10 -27 -37 -42 -60 -32 -52 -46 -54 -46 -9 0 19 -4
37 -9 41 -26 16 -33 -82 -7 -101 15 -10 11 -22 -34 -108 -27 -53 -50 -103 -50
-111 0 -35 40 -3 43 34 1 12 5 21 9 21 4 0 8 4 8 9 0 5 20 45 45 89 25 44 45
87 45 97 0 9 4 14 9 11 5 -3 14 8 21 24 7 16 18 35 26 41 15 13 19 39 6 39 -5
0 -16 -8 -24 -17z"/>
<path d="M12523 693 c-25 -39 -45 -58 -58 -58 -18 0 -20 6 -17 53 4 57 -11 70
-29 25 -14 -36 -4 -94 17 -110 15 -11 14 -16 -11 -50 -16 -21 -48 -60 -71 -88
-45 -54 -104 -143 -104 -158 0 -23 32 4 72 60 23 34 82 114 131 177 96 127
127 174 127 194 0 26 -20 10 -57 -45z"/>
<path d="M12600 730 c-6 -11 -8 -20 -5 -20 2 0 -4 -15 -15 -32 -21 -35 -26
-58 -11 -58 4 0 31 23 58 50 28 28 55 50 62 50 20 0 11 -46 -14 -70 -14 -13
-25 -31 -25 -39 0 -14 1 -14 10 -1 8 13 10 13 10 0 0 -8 13 0 30 20 24 28 29
43 27 75 -2 33 -6 41 -24 43 -12 2 -33 -4 -47 -14 -24 -15 -26 -15 -26 0 0 22
-17 20 -30 -4z"/>
<path d="M7401 706 c-65 -67 -19 -143 64 -103 44 21 55 57 30 104 -24 43 -52
43 -94 -1z m82 -23 c4 -3 0 -17 -9 -31 -9 -13 -11 -21 -5 -18 6 4 11 3 11 -1
0 -13 -69 -13 -76 -1 -12 20 18 58 46 58 15 0 30 -3 33 -7z"/>
<path d="M8602 728 c-15 -18 -40 -90 -39 -110 0 -10 5 -18 11 -18 9 0 21 26
53 123 6 20 -10 23 -25 5z"/>
<path d="M12049 717 c-26 -22 -49 -57 -49 -76 0 -5 7 -17 16 -25 14 -14 18
-14 45 0 28 14 31 14 48 -7 19 -24 44 -19 34 7 -3 9 -7 37 -8 62 -1 26 -3 50
-3 55 -4 15 -58 5 -83 -16z m59 -25 c2 -6 -11 -21 -30 -32 -40 -24 -50 -9 -17
26 23 25 40 27 47 6z"/>
<path d="M6587 705 c-20 -14 -37 -21 -37 -15 0 5 -7 10 -15 10 -8 0 -15 -8
-15 -18 0 -10 -7 -27 -15 -38 -8 -10 -15 -25 -15 -31 0 -24 29 -13 70 27 72
71 106 76 94 14 -5 -26 -3 -34 9 -34 29 0 37 68 11 94 -22 22 -44 20 -87 -9z"/>
<path d="M6450 682 c-22 -40 -64 -71 -77 -59 -3 4 -1 24 5 44 12 41 10 48 -12
40 -19 -8 -31 -83 -16 -102 29 -35 90 -6 125 59 14 26 16 39 8 47 -8 8 -17 0
-33 -29z"/>
<path d="M6775 705 c-57 -30 -72 -77 -36 -110 32 -28 151 -21 151 9 0 11 -14
13 -65 8 -55 -4 -66 -2 -71 12 -9 25 27 59 63 58 37 0 46 7 32 24 -15 18 -37
18 -74 -1z"/>
<path d="M4367 682 c-23 -25 -35 -86 -16 -80 8 3 16 13 18 24 1 10 10 27 19
37 10 12 12 21 6 27 -7 7 -16 4 -27 -8z"/>
<path d="M5110 674 c-13 -32 -10 -79 5 -79 8 0 21 39 28 84 4 27 -23 22 -33
-5z"/>
<path d="M7253 683 c-3 -10 -15 -30 -25 -45 -22 -31 -23 -58 -3 -58 15 0 67
98 59 112 -9 14 -24 9 -31 -9z"/>
<path d="M5623 638 c2 -7 10 -13 17 -13 7 0 15 6 18 13 2 7 -5 12 -18 12 -13
0 -20 -5 -17 -12z"/>
<path d="M8703 623 c-6 -15 12 -33 35 -33 6 0 12 4 12 9 0 5 3 16 6 24 4 10
-2 15 -21 15 -15 0 -29 -7 -32 -15z"/>
</g>
</svg>
