<?xml version="1.0" standalone="no"?>
<!DOCTYPE svg PUBLIC "-//W3C//DTD SVG 20010904//EN"
 "http://www.w3.org/TR/2001/REC-SVG-20010904/DTD/svg10.dtd">
<svg version="1.0" xmlns="http://www.w3.org/2000/svg"
 width="1616.000000pt" height="636.000000pt" viewBox="0 0 1616.000000 636.000000"
 preserveAspectRatio="xMidYMid meet">

<g transform="translate(0.000000,636.000000) scale(0.100000,-0.100000)"
fill="#000000" stroke="none">
<path d="M12728 5858 c-14 -41 -16 -43 -53 -40 -35 4 -37 2 -32 -20 5 -18 0
-27 -24 -40 -16 -10 -36 -33 -44 -53 -13 -29 -13 -40 -2 -73 13 -37 12 -43
-14 -93 -31 -61 -37 -99 -14 -99 8 0 15 7 15 15 0 8 12 39 27 70 27 54 27 55
63 49 66 -11 140 47 140 110 0 17 -11 48 -25 68 -27 40 -26 82 2 103 16 12 7
45 -12 45 -7 0 -20 -19 -27 -42z m-41 -74 c-3 -3 -12 -4 -19 -1 -8 3 -5 6 6 6
11 1 17 -2 13 -5z m-48 -101 l-34 -58 -3 35 c-3 29 2 40 28 63 18 16 34 26 37
23 3 -3 -10 -31 -28 -63z m105 45 c9 -12 16 -33 16 -46 0 -43 -74 -94 -115
-78 -11 4 -6 19 26 76 22 38 45 70 49 70 5 0 16 -10 24 -22z"/>
<path d="M4523 5878 c-6 -7 -13 -56 -16 -108 -7 -103 -31 -184 -43 -143 -3 12
-12 24 -20 27 -25 10 -73 -16 -95 -50 -18 -30 -19 -39 -9 -63 6 -16 22 -34 35
-41 40 -22 75 5 118 90 32 64 39 90 48 179 10 102 4 137 -18 109z m-110 -274
c-5 -14 -1 -16 25 -12 l31 4 -20 -28 c-27 -37 -52 -51 -67 -36 -17 17 -15 48
5 70 20 22 34 23 26 2z"/>
<path d="M2258 5865 c-3 -3 -48 -8 -99 -10 -67 -3 -94 -8 -94 -17 0 -9 21 -14
67 -16 l66 -3 -29 -107 c-16 -59 -35 -126 -41 -149 -11 -40 -14 -43 -48 -43
-19 0 -51 4 -70 10 -22 6 -38 6 -44 0 -18 -18 7 -30 74 -36 36 -4 70 -11 77
-16 7 -5 14 -5 18 2 3 5 30 10 59 10 73 0 116 10 116 26 0 11 -19 14 -81 14
-73 0 -80 2 -74 18 3 9 20 69 37 132 16 63 34 123 39 132 11 21 34 27 113 30
37 2 61 8 64 16 3 9 -16 12 -70 12 -41 0 -77 -2 -80 -5z"/>
<path d="M2564 5840 c-30 -19 -83 -106 -99 -160 -4 -14 -17 -33 -28 -42 -19
-14 -20 -18 -6 -23 14 -5 15 -12 3 -62 -7 -31 -11 -60 -8 -65 13 -21 29 3 39
58 l10 59 48 3 c30 2 50 8 54 18 3 7 10 11 16 7 6 -3 7 -1 3 5 -4 7 -25 9 -56
5 -56 -7 -57 -5 -35 58 30 83 88 139 124 119 25 -13 38 4 21 25 -17 21 -49 18
-86 -5z"/>
<path d="M7796 5848 c-3 -7 -10 -30 -16 -50 -20 -67 -45 -88 -101 -88 -37 0
-49 -4 -49 -15 0 -11 11 -15 39 -15 l40 0 -26 -46 c-41 -73 -30 -124 28 -124
38 0 79 20 79 38 0 10 -6 12 -22 7 -57 -17 -68 -17 -74 -1 -14 36 59 148 86
131 6 -4 20 1 30 10 17 15 22 16 36 4 15 -12 17 -12 12 1 -3 9 -19 16 -40 18
l-36 3 18 42 c24 54 28 89 13 94 -7 3 -15 -1 -17 -9z"/>
<path d="M9582 5848 c-5 -7 -13 -24 -17 -38 -15 -50 -46 -91 -68 -88 -26 4
-35 -22 -9 -28 18 -5 18 -8 5 -46 -14 -41 -9 -102 10 -125 19 -24 97 -13 97
14 0 11 -8 12 -35 7 -31 -5 -36 -3 -44 19 -9 23 -3 68 14 110 7 16 24 21 74
19 28 -2 61 14 61 29 0 7 -20 9 -55 6 -30 -2 -55 -3 -55 -1 0 2 13 31 29 63
16 33 26 62 23 65 -9 9 -19 7 -30 -6z"/>
<path d="M14472 5810 c-17 -40 -26 -50 -44 -50 -42 0 -86 -36 -98 -80 -12 -44
-7 -71 15 -90 11 -9 6 -24 -31 -86 -24 -41 -44 -81 -44 -89 0 -28 25 -14 42
23 39 84 77 132 118 148 68 27 104 96 74 142 -21 31 -20 46 8 84 10 15 16 32
13 38 -14 22 -33 7 -53 -40z m-49 -107 c-6 -17 -42 -82 -50 -93 -2 -2 -8 2
-13 10 -19 32 16 100 51 100 13 0 17 -5 12 -17z m57 -11 c0 -26 -23 -57 -57
-76 -15 -9 -6 21 23 71 23 40 34 42 34 5z"/>
<path d="M3204 5760 c-16 -76 -19 -82 -46 -87 -33 -6 -37 -23 -8 -30 11 -3 20
-7 20 -9 0 -1 -7 -33 -16 -70 -10 -46 -12 -70 -5 -77 16 -16 21 -6 38 75 8 40
18 76 22 80 7 8 101 38 101 33 0 -2 -13 -37 -30 -78 -30 -76 -38 -122 -20
-115 5 2 31 30 57 62 63 78 74 81 71 20 -2 -37 1 -49 12 -51 13 -3 16 8 17 57
2 74 -15 90 -65 60 -18 -11 -32 -18 -32 -16 0 2 11 28 25 57 29 65 38 144 15
144 -9 0 -16 -11 -18 -30 -6 -68 -10 -72 -62 -85 -28 -7 -53 -10 -56 -8 -2 3
2 29 10 59 8 30 16 60 17 68 2 8 -3 16 -13 18 -13 3 -20 -12 -34 -77z"/>
<path d="M13642 5730 c-61 -64 -98 -111 -91 -115 6 -4 29 -4 53 -1 l42 7 -4
-71 c-4 -59 -2 -70 12 -70 12 0 16 11 16 48 0 71 8 92 36 92 15 0 24 6 24 15
0 8 -9 15 -20 15 -24 0 -24 1 -5 47 8 19 15 42 15 51 0 8 11 30 25 47 21 29
24 45 6 45 -3 0 -52 -49 -109 -110z m25 -45 c-8 -28 -15 -35 -36 -35 l-25 0
34 35 c19 19 35 35 36 35 1 0 -3 -16 -9 -35z"/>
<path d="M14816 5790 c-39 -44 -45 -73 -19 -102 10 -11 12 -18 4 -18 -19 0
-71 -91 -71 -125 0 -39 16 -55 54 -55 65 0 154 86 142 135 -5 18 -15 27 -36
32 -17 3 -30 8 -30 11 0 3 16 20 35 38 27 25 35 39 35 67 0 30 -4 37 -31 46
-44 15 -42 16 -83 -29z m84 -20 c0 -26 -38 -60 -67 -60 -27 0 -29 16 -8 47 13
19 24 24 68 32 4 0 7 -8 7 -19z m-5 -150 c9 -15 -32 -68 -65 -85 -42 -22 -70
-19 -70 5 0 26 26 77 42 83 23 10 87 7 93 -3z"/>
<path d="M12960 5800 c-19 -5 -46 -6 -58 -3 -20 5 -23 2 -20 -13 3 -16 12 -19
58 -17 l55 3 -48 -31 c-49 -30 -57 -51 -21 -57 79 -13 96 -51 43 -96 -35 -30
-99 -37 -99 -11 0 21 -49 20 -57 -1 -10 -26 25 -44 81 -44 61 0 108 25 131 71
20 39 9 73 -30 91 -31 14 -29 20 15 50 19 13 36 34 38 46 3 18 -1 22 -25 21
-15 -1 -44 -5 -63 -9z"/>
<path d="M14143 5788 c-43 -22 -57 -48 -26 -48 9 0 24 6 32 14 9 7 26 17 39
20 31 10 29 -17 -5 -63 -30 -41 -92 -101 -103 -101 -4 0 -15 -12 -25 -26 -12
-19 -14 -29 -6 -37 8 -8 21 -1 49 26 46 45 62 47 62 6 0 -44 17 -69 45 -69 31
0 33 25 4 33 -19 5 -21 11 -15 47 5 31 3 42 -8 46 -12 4 -8 16 18 52 41 58 49
88 29 107 -20 20 -40 19 -90 -7z"/>
<path d="M13465 5770 c-4 -17 -10 -28 -14 -25 -4 2 -25 0 -45 -6 -61 -17 -96
-103 -65 -161 9 -16 4 -32 -30 -90 -38 -65 -43 -88 -21 -88 5 0 25 31 46 69
l37 68 42 -5 c36 -4 47 0 74 24 40 37 52 95 26 124 -10 11 -24 20 -32 20 -17
0 -17 4 7 50 25 48 25 50 1 50 -13 0 -21 -9 -26 -30z m-55 -106 c0 -15 -35
-72 -42 -68 -9 6 -11 45 -2 67 4 12 44 13 44 1z m88 -27 c4 -33 -39 -77 -74
-77 -30 0 -30 1 2 66 23 46 28 52 47 45 14 -5 23 -18 25 -34z"/>
<path d="M14664 5789 c-4 -7 -8 -26 -9 -43 -1 -17 -19 -71 -39 -121 -50 -121
-51 -125 -33 -125 8 0 22 16 31 35 28 58 86 225 86 245 0 22 -24 27 -36 9z"/>
<path d="M6065 5753 c-13 -62 -28 -111 -56 -181 -16 -41 -29 -78 -29 -83 0
-18 22 -9 63 26 22 19 43 32 46 29 3 -3 -1 -9 -9 -15 -13 -8 -12 -11 4 -24 26
-19 36 -11 36 31 0 40 -19 52 -55 36 l-23 -11 23 70 c14 39 26 87 27 106 4 44
-19 57 -27 16z"/>
<path d="M8534 5683 c-26 -26 -43 -54 -51 -85 -19 -71 -19 -73 -4 -73 9 0 24
25 38 60 25 66 68 114 86 96 18 -18 29 -13 25 12 -5 38 -48 34 -94 -10z"/>
<path d="M9180 5705 c0 -10 7 -15 18 -13 21 4 19 22 -2 26 -10 2 -16 -3 -16
-13z"/>
<path d="M9985 5691 c-16 -10 -41 -31 -55 -47 -27 -32 -53 -114 -40 -128 10
-10 30 1 30 17 0 7 11 35 24 64 28 60 75 93 96 68 17 -21 30 -19 30 5 0 17
-26 40 -47 40 -4 0 -21 -8 -38 -19z"/>
<path d="M9738 5674 c-65 -35 -73 -129 -14 -165 31 -20 93 -22 89 -4 -1 6 -16
13 -32 16 -69 14 -80 50 -21 68 51 15 67 43 45 77 -18 28 -29 29 -67 8z m42
-34 c0 -11 -50 -34 -57 -26 -2 2 3 11 12 20 18 18 45 21 45 6z"/>
<path d="M4632 5660 c-54 -33 -78 -113 -46 -158 12 -18 25 -22 70 -22 41 0 54
4 54 15 0 11 -12 15 -49 15 -35 0 -51 4 -55 16 -11 28 -7 34 23 34 45 0 91 44
91 86 0 30 -3 34 -27 34 -16 0 -43 -9 -61 -20z m58 -20 c0 -17 -39 -50 -60
-50 -26 0 -16 26 19 45 31 17 41 18 41 5z"/>
<path d="M3544 5636 c-28 -28 -34 -41 -34 -77 1 -56 18 -79 59 -79 31 0 124
40 135 59 15 23 -20 21 -65 -4 -58 -31 -93 -30 -97 3 -2 15 2 22 13 22 21 0
64 29 76 51 13 25 -5 59 -32 59 -12 0 -36 -15 -55 -34z m56 -9 c0 -13 -39 -41
-47 -34 -5 5 33 47 42 47 3 0 5 -6 5 -13z"/>
<path d="M7062 5655 c-51 -22 -51 -42 -2 -84 31 -26 42 -42 37 -54 -9 -24 -38
-21 -44 3 -8 29 -38 21 -38 -10 0 -19 7 -26 33 -34 82 -23 111 44 46 108 -39
38 -34 47 22 49 26 1 34 5 32 16 -4 21 -45 24 -86 6z"/>
<path d="M7917 5645 c-42 -29 -54 -62 -36 -97 16 -31 28 -38 67 -38 70 0 107
86 57 135 -30 31 -41 31 -88 0z m79 -40 c13 -52 -62 -90 -86 -44 -10 17 -8 24
12 44 32 32 66 32 74 0z"/>
<path d="M8691 5653 c-18 -9 -44 -34 -59 -55 -21 -32 -23 -42 -14 -63 15 -33
87 -53 121 -34 35 20 38 39 7 39 -14 0 -26 -5 -26 -10 0 -12 -48 -3 -67 13
-17 12 -8 26 16 24 26 -2 99 32 105 49 5 14 -26 54 -41 54 -5 0 -23 -8 -42
-17z m29 -38 c-33 -19 -46 -19 -30 0 7 8 22 15 34 15 20 -1 20 -2 -4 -15z"/>
<path d="M9002 5654 c-6 -11 -11 -13 -16 -5 -22 35 -126 -26 -126 -75 0 -32
38 -41 80 -19 17 9 34 14 37 11 3 -3 2 -30 -2 -61 -6 -54 -7 -55 -39 -55 -47
0 -97 -37 -124 -92 -21 -42 -22 -50 -10 -74 34 -71 93 -52 152 50 21 36 45 66
52 66 16 0 19 26 5 35 -13 8 -2 142 15 184 14 33 11 51 -6 51 -5 0 -13 -7 -18
-16z m-37 -35 c9 -13 7 -15 -39 -34 -36 -15 -37 -15 -26 4 17 33 53 50 65 30z
m-5 -206 c0 -20 -63 -114 -85 -129 -30 -20 -45 -11 -45 27 0 36 24 75 59 94
28 15 71 20 71 8z"/>
<path d="M9286 5657 c-18 -13 -17 -15 4 -66 16 -36 20 -55 13 -62 -17 -17 -48
-6 -48 16 0 31 -30 24 -33 -8 -3 -23 2 -30 29 -41 66 -28 107 23 75 90 -22 47
-20 54 10 54 16 0 24 5 22 13 -6 17 -50 20 -72 4z"/>
<path d="M4796 5652 c-14 -23 48 -154 79 -166 18 -7 39 24 54 80 12 45 27 54
94 54 25 0 37 5 37 14 0 19 -40 27 -80 16 -18 -5 -44 -7 -57 -4 -21 6 -23 3
-23 -32 0 -47 -9 -84 -21 -84 -11 0 -41 57 -48 94 -7 30 -25 44 -35 28z"/>
<path d="M6442 5604 c-37 -44 -45 -74 -32 -108 13 -35 40 -33 80 4 29 27 32
35 27 67 -4 20 -15 45 -25 56 -19 18 -20 18 -50 -19z m43 -63 c-6 -21 -31 -34
-45 -26 -11 7 -2 34 18 58 14 16 17 16 25 2 4 -8 6 -24 2 -34z"/>
<path d="M6623 5625 c-29 -20 -30 -65 -3 -90 26 -24 25 -33 -4 -46 -17 -8 -29
-8 -46 1 -20 10 -21 9 -18 -12 4 -32 64 -38 96 -8 28 26 28 57 1 87 -18 18
-20 25 -10 37 7 8 22 16 34 18 12 2 21 8 20 13 -4 17 -47 17 -70 0z"/>
<path d="M6799 5617 c-42 -28 -51 -80 -20 -118 16 -20 28 -24 74 -23 54 0 96
19 80 35 -5 5 -24 4 -43 -1 -41 -12 -86 -5 -94 16 -4 9 2 14 17 14 41 0 82 46
78 88 -2 20 -55 14 -92 -11z m57 -24 c0 -12 -9 -19 -28 -20 -34 -3 -36 10 -5
25 31 15 33 14 33 -5z"/>
<path d="M5761 5591 c-17 -16 -31 -39 -31 -51 0 -37 80 -100 126 -100 26 0 14
28 -15 35 -15 3 -41 19 -57 36 l-28 29 28 28 c19 18 30 23 33 15 7 -18 43 -16
50 3 16 42 -63 45 -106 5z"/>
<path d="M6252 5607 c-28 -15 -42 -39 -42 -72 0 -60 49 -73 107 -29 35 26 42
58 23 95 -11 20 -54 23 -88 6z m66 -41 c5 -22 -33 -55 -60 -56 -27 0 -23 45 5
65 28 19 51 16 55 -9z"/>
<path d="M9111 5566 c-14 -58 -14 -66 3 -66 8 0 18 19 25 44 14 58 14 66 -3
66 -8 0 -18 -19 -25 -44z"/>
<path d="M13075 5550 c-11 -18 5 -31 26 -20 11 6 17 15 14 21 -8 12 -32 12
-40 -1z"/>
<path d="M13793 5545 c-3 -9 -3 -18 0 -21 9 -9 27 6 27 22 0 19 -19 18 -27 -1z"/>
<path d="M5430 5410 c-8 -5 -15 -15 -15 -22 0 -7 -18 -46 -40 -86 l-40 -74
-67 6 c-53 4 -68 2 -68 -8 0 -16 31 -26 84 -26 32 0 37 -3 31 -17 -30 -76 -4
-128 57 -116 78 14 89 47 13 36 -53 -7 -63 7 -42 58 12 31 18 34 78 44 76 12
77 31 1 27 l-53 -2 22 42 c12 24 35 62 51 85 36 49 29 79 -12 53z"/>
<path d="M10329 5418 c-1 -2 -3 -12 -4 -23 -1 -11 -19 -61 -40 -112 l-37 -92
-51 -3 c-61 -4 -65 -22 -6 -26 34 -3 39 -6 34 -20 -28 -68 -44 -127 -37 -134
13 -13 26 9 52 85 23 66 24 67 59 67 42 0 67 13 57 29 -5 7 -20 9 -42 5 l-35
-6 20 48 c10 27 29 71 40 97 25 57 27 87 6 87 -8 0 -16 -1 -16 -2z"/>
<path d="M10475 5410 c-3 -5 -4 -14 0 -20 7 -12 -34 -110 -90 -212 -25 -44
-45 -87 -45 -94 0 -22 18 -16 37 12 17 26 91 79 99 71 5 -5 -11 -45 -28 -69
-14 -19 -11 -25 16 -30 15 -2 22 7 34 49 8 29 12 59 9 68 -7 17 -52 21 -62 5
-3 -5 -11 -10 -17 -10 -6 0 -3 11 6 24 26 40 87 196 81 206 -8 13 -32 13 -40
0z"/>
<path d="M6298 5352 c-42 -48 -108 -166 -108 -194 0 -27 -92 -98 -127 -98 -14
0 -23 -6 -23 -15 0 -23 45 -18 90 10 38 24 39 24 45 5 9 -29 40 -43 65 -30 28
15 25 30 -5 30 -41 0 -33 43 18 99 37 42 127 205 127 231 0 25 -42 5 -82 -38z
m2 -68 c-13 -33 -51 -87 -57 -80 -2 2 3 16 11 30 9 14 23 37 31 51 20 33 27
32 15 -1z"/>
<path d="M6841 5338 c-7 -29 -21 -72 -31 -95 -18 -40 -19 -41 -54 -33 -36 8
-53 0 -41 -20 3 -5 17 -10 31 -10 30 0 30 -5 -1 -72 -28 -61 -32 -88 -10 -88
8 0 15 6 15 13 0 6 13 40 29 74 27 57 33 62 68 68 61 11 74 16 70 28 -2 7 -20
10 -44 9 l-41 -3 24 77 c24 73 25 104 6 104 -4 0 -14 -24 -21 -52z"/>
<path d="M9308 5360 c-26 -20 -44 -60 -67 -147 l-12 -42 -57 -3 c-42 -2 -57
-7 -57 -18 0 -11 11 -14 48 -11 46 2 48 1 38 -17 -6 -11 -33 -40 -60 -65 -49
-43 -54 -57 -21 -57 17 0 73 55 109 108 12 17 29 32 37 32 8 0 14 5 14 10 0 6
7 6 19 -1 20 -13 56 -5 46 11 -3 5 -23 10 -45 10 l-38 0 15 58 c8 31 22 69 31
85 18 29 54 47 60 28 7 -22 34 -12 30 12 -4 31 -55 35 -90 7z"/>
<path d="M2937 5364 c-4 -4 -7 -24 -7 -44 0 -20 -7 -60 -15 -88 -14 -46 -19
-52 -43 -52 -15 0 -33 -4 -41 -9 -21 -14 -2 -32 29 -28 l27 5 -13 -46 c-17
-56 -18 -75 -1 -70 6 3 21 31 32 64 19 57 21 59 58 62 46 4 53 32 7 32 -32 0
-35 6 -21 42 17 47 21 104 8 122 -7 9 -16 14 -20 10z"/>
<path d="M13840 5290 c-31 -64 -37 -70 -64 -70 -17 0 -38 -5 -46 -10 -13 -9
-13 -11 0 -20 8 -6 26 -8 39 -5 20 5 22 3 17 -12 -4 -10 -12 -37 -19 -60 -10
-37 -9 -45 8 -63 16 -17 29 -20 74 -18 76 4 82 28 7 28 -68 0 -75 10 -50 79
17 48 18 49 68 55 28 3 66 6 84 6 23 0 32 5 32 16 0 14 -10 16 -74 12 l-75 -5
30 58 c32 65 35 79 16 79 -7 0 -28 -31 -47 -70z"/>
<path d="M2766 5304 c-3 -25 -22 -91 -41 -147 -37 -107 -41 -132 -24 -142 14
-9 17 -5 23 30 3 17 19 70 36 120 39 110 50 185 28 185 -11 0 -17 -14 -22 -46z"/>
<path d="M3414 5318 c7 -40 -11 -110 -53 -201 -36 -79 -40 -110 -13 -105 9 2
17 12 18 23 1 11 15 52 32 90 56 127 67 216 28 223 -16 3 -18 -1 -12 -30z"/>
<path d="M3115 5240 c-3 -6 1 -13 10 -16 19 -8 30 0 20 15 -8 14 -22 14 -30 1z"/>
<path d="M4647 5243 c-4 -3 -7 -30 -7 -58 0 -63 -9 -115 -21 -115 -4 0 -23 32
-40 70 -18 39 -39 70 -46 70 -18 0 -17 -9 8 -66 27 -62 66 -114 85 -114 22 0
44 61 44 121 0 41 3 50 15 46 23 -9 29 12 9 34 -17 19 -35 24 -47 12z"/>
<path d="M6496 5241 c-8 -12 21 -34 34 -26 17 11 11 35 -9 35 -11 0 -22 -4
-25 -9z"/>
<path d="M4362 5228 c-62 -31 -79 -128 -27 -162 26 -17 104 -24 124 -12 22 14
-1 26 -48 26 -30 0 -53 6 -61 15 -10 12 -5 17 26 30 50 21 74 43 74 70 0 42
-39 56 -88 33z m58 -27 c0 -13 -50 -51 -66 -51 -22 0 -16 17 12 39 28 22 54
28 54 12z"/>
<path d="M4807 5219 c-21 -12 -47 -61 -47 -88 0 -62 54 -101 118 -85 22 5 37
15 37 24 0 8 -6 14 -14 12 -63 -14 -70 -13 -90 7 -33 33 -28 57 13 57 44 0 68
20 64 53 -2 21 -9 26 -33 28 -16 2 -38 -2 -48 -8z m39 -34 c-21 -16 -32 -13
-21 4 3 6 14 11 23 11 15 -1 15 -2 -2 -15z"/>
<path d="M12818 5201 c-73 -47 -100 -118 -58 -156 18 -17 27 -17 81 -7 62 11
96 29 82 43 -4 4 -34 1 -66 -8 -66 -16 -87 -13 -87 16 0 15 9 22 38 27 69 12
127 68 102 99 -18 22 -41 19 -92 -14z m43 -32 c-22 -18 -51 -26 -51 -14 0 9
64 45 70 39 3 -3 -6 -14 -19 -25z"/>
<path d="M5046 5199 c-22 -17 -29 -19 -42 -9 -8 7 -16 11 -18 9 -9 -10 -56
-109 -56 -119 0 -15 30 -12 36 4 7 18 103 100 110 93 3 -2 -4 -26 -14 -53 -11
-27 -17 -55 -15 -61 7 -20 33 -15 33 6 0 10 7 35 15 54 8 20 15 50 15 67 0 37
-24 40 -64 9z"/>
<path d="M10638 5204 c-32 -17 -58 -61 -58 -98 0 -34 43 -66 89 -66 45 0 58 8
66 43 9 33 -7 36 -32 7 -19 -22 -44 -25 -74 -10 -28 15 -24 40 6 40 35 0 95
26 96 42 5 56 -35 74 -93 42z m62 -24 c0 -10 -41 -30 -61 -30 -16 0 1 21 25
30 29 12 36 12 36 0z"/>
<path d="M11422 5210 c-33 -14 -38 -37 -13 -70 39 -53 20 -94 -41 -88 -25 2
-33 8 -33 23 0 25 -28 27 -33 2 -10 -52 95 -80 138 -37 24 24 26 72 3 106 -14
22 -14 27 -2 35 8 6 31 8 51 5 42 -5 53 1 37 21 -13 15 -72 16 -107 3z"/>
<path d="M11816 5213 c-3 -3 -6 -14 -6 -23 0 -9 -13 -36 -30 -58 -16 -23 -30
-46 -30 -52 0 -17 29 -11 39 8 12 23 80 76 88 69 3 -3 -2 -16 -11 -29 -39 -56
-8 -63 58 -13 26 19 48 35 51 35 2 0 -2 -15 -10 -34 -18 -43 -10 -66 21 -66
25 0 34 25 12 33 -10 3 -7 16 10 51 24 51 29 86 11 86 -7 0 -32 -16 -55 -36
l-44 -35 0 25 c0 34 -14 40 -50 21 -26 -13 -30 -14 -30 -1 0 17 -14 28 -24 19z"/>
<path d="M12152 5205 c-42 -19 -82 -62 -82 -91 0 -13 12 -32 28 -44 23 -19 36
-21 82 -17 62 6 113 25 107 41 -3 6 -11 9 -18 8 -81 -21 -120 -25 -140 -15
-22 9 -21 11 25 34 58 29 76 51 60 76 -14 23 -24 24 -62 8z m19 -39 c-6 -8
-22 -16 -34 -19 -22 -6 -22 -6 2 14 27 22 49 26 32 5z"/>
<path d="M6979 5186 c-20 -14 -39 -32 -42 -41 -4 -8 -14 -15 -22 -15 -17 0
-16 -9 6 -66 8 -22 46 -38 71 -30 7 2 25 7 41 10 15 4 27 12 27 20 0 9 -14 11
-55 8 -43 -3 -55 -1 -55 10 0 7 14 18 32 23 41 13 76 59 62 82 -16 25 -26 25
-65 -1z m31 -26 c0 -5 -10 -15 -22 -21 -23 -12 -23 -12 -4 10 21 23 26 26 26
11z"/>
<path d="M13113 5197 c-17 -7 -23 -18 -23 -43 0 -41 -17 -87 -29 -80 -5 4 -17
31 -26 61 -10 31 -24 55 -31 55 -18 0 -17 -14 2 -69 23 -68 33 -81 58 -81 33
0 48 23 54 80 l4 49 59 7 c41 5 59 11 59 21 0 16 -91 16 -127 0z"/>
<path d="M2223 5173 c-18 -14 -33 -20 -33 -14 0 6 -6 11 -14 11 -14 0 -76
-125 -76 -153 0 -9 7 -17 15 -17 8 0 15 5 15 11 0 14 66 99 90 116 24 17 24
17 5 -38 -26 -71 -3 -73 59 -4 l54 60 -11 -53 c-11 -58 -2 -80 28 -68 13 5 15
10 6 19 -7 9 -7 24 0 51 22 78 -15 105 -67 48 l-34 -37 11 33 c11 32 7 62 -8
62 -4 -1 -23 -13 -40 -27z"/>
<path d="M3262 5193 c-45 -9 -92 -83 -134 -212 -41 -127 -44 -172 -8 -135 10
10 27 48 38 83 17 58 23 65 63 85 84 43 139 149 90 176 -11 5 -21 9 -23 9 -2
-1 -13 -4 -26 -6z m38 -48 c0 -20 -78 -105 -96 -105 -22 0 -17 22 16 73 22 36
36 47 55 47 16 0 25 -6 25 -15z"/>
<path d="M9531 5153 c-40 -37 -52 -56 -54 -82 -3 -44 21 -54 29 -13 9 47 65
102 103 102 33 0 39 8 19 28 -22 22 -46 13 -97 -35z"/>
<path d="M11605 5190 c-11 -4 -31 -20 -44 -34 -21 -22 -23 -31 -15 -54 8 -23
15 -27 52 -28 29 0 47 -6 56 -19 17 -24 38 -10 30 20 -4 18 1 33 20 56 28 33
27 49 -4 49 -10 0 -22 5 -25 10 -7 12 -42 12 -70 0z m59 -35 c11 -30 -63 -70
-86 -47 -13 13 5 40 37 52 30 13 42 12 49 -5z"/>
<path d="M3501 5155 c-36 -41 -41 -91 -13 -123 29 -36 62 -36 115 -3 26 17 47
35 47 40 0 21 -18 18 -60 -10 -38 -26 -46 -28 -64 -16 -27 19 -32 37 -8 37 23
0 68 33 83 61 14 27 -5 49 -41 49 -19 0 -37 -11 -59 -35z m69 -5 c0 -14 -49
-44 -58 -35 -4 3 4 15 17 26 26 21 41 24 41 9z"/>
<path d="M7212 5163 c-22 -18 -31 -21 -26 -9 4 11 1 16 -13 16 -14 0 -26 -13
-38 -40 -10 -22 -24 -45 -32 -51 -16 -14 -17 -39 -2 -39 16 0 120 90 115 99
-3 4 4 7 14 7 15 0 16 -4 9 -24 -5 -14 -18 -36 -29 -50 -20 -25 -27 -62 -11
-62 12 0 55 68 69 109 26 75 4 92 -56 44z"/>
<path d="M7793 5170 c-50 -22 -53 -37 -16 -80 21 -26 24 -33 12 -41 -22 -14
-49 -11 -49 6 0 20 -19 19 -27 -1 -3 -9 3 -25 16 -37 l21 -22 38 20 c46 25 53
57 21 92 -30 31 -16 43 56 47 29 1 25 31 -5 34 -14 1 -44 -7 -67 -18z"/>
<path d="M9357 5151 c-58 -65 -63 -121 -9 -121 34 0 87 48 94 85 6 30 -12 69
-33 73 -9 2 -32 -15 -52 -37z m51 -28 c-3 -26 -52 -72 -64 -61 -11 12 39 88
58 88 5 0 8 -12 6 -27z"/>
<path d="M13253 5161 c-66 -48 -69 -101 -7 -127 38 -16 112 -18 134 -4 23 14
6 22 -58 23 -35 1 -66 8 -77 17 -17 14 -14 16 30 22 59 8 100 37 100 69 0 21
-5 24 -40 27 -32 2 -49 -3 -82 -27z m77 -15 c-8 -8 -28 -18 -45 -21 l-30 -6
24 20 c28 25 75 31 51 7z"/>
<path d="M13563 5165 c-33 -18 -43 -20 -43 -9 0 29 -29 13 -54 -30 -45 -76
-32 -85 43 -31 26 19 51 35 54 35 3 0 1 -14 -5 -32 -10 -28 -9 -33 12 -50 13
-11 35 -18 48 -16 33 4 42 28 10 28 -46 0 -50 13 -23 64 23 43 25 66 7 66 -4
0 -26 -11 -49 -25z"/>
<path d="M7393 5167 c-18 -7 -44 -24 -58 -39 -24 -26 -25 -29 -11 -62 20 -47
64 -70 118 -59 64 13 61 33 -5 33 -37 0 -61 5 -71 16 -21 20 -14 30 26 38 65
13 104 64 62 80 -19 7 -21 7 -61 -7z"/>
<path d="M7618 5168 c-8 -7 -26 -29 -39 -48 -13 -19 -29 -39 -36 -45 -16 -13
-21 -67 -7 -72 6 -2 22 15 34 39 37 72 70 110 90 103 22 -7 35 21 14 29 -24 9
-39 7 -56 -6z"/>
<path d="M2449 5163 c-5 -35 5 -121 16 -132 12 -12 20 -12 58 3 54 20 78 46
83 86 4 35 -13 40 -25 8 -11 -29 -38 -54 -73 -67 l-27 -10 -3 56 c-2 34 -8 58
-15 61 -7 2 -14 0 -14 -5z"/>
<path d="M6583 5150 c-48 -21 -52 -33 -23 -70 27 -34 25 -40 -10 -40 -19 0
-29 5 -27 13 1 6 -5 12 -13 12 -9 0 -15 -9 -15 -25 0 -22 5 -25 42 -28 46 -3
83 11 83 32 0 7 -9 25 -20 39 -11 14 -20 27 -20 30 0 3 16 11 35 17 19 6 35
18 35 26 0 19 -17 17 -67 -6z"/>
<path d="M3036 5128 c-3 -7 -11 -34 -19 -60 -10 -31 -12 -50 -5 -54 5 -3 13
-2 18 2 12 13 39 111 33 118 -10 10 -23 7 -27 -6z"/>
<path d="M6370 5071 c-21 -46 -21 -76 2 -69 9 3 27 44 45 101 3 11 0 17 -9 17
-8 0 -25 -22 -38 -49z"/>
<path d="M3771 4980 c-8 -4 -10 -13 -6 -20 4 -6 -7 -55 -24 -109 l-32 -98 -60
-7 c-74 -9 -75 -30 -2 -34 l51 -3 -15 -50 c-10 -35 -12 -54 -5 -61 14 -14 32
-1 32 24 0 49 22 94 51 105 16 6 29 18 29 27 0 19 -5 20 -30 6 -17 -9 -18 -8
0 48 10 31 23 70 29 85 13 33 15 84 3 91 -4 2 -14 1 -21 -4z"/>
<path d="M8864 4932 c-1 -28 -22 -109 -48 -187 -25 -75 -46 -139 -46 -141 0
-13 25 0 42 21 11 14 28 30 39 36 18 9 19 7 17 -33 -2 -32 1 -43 13 -46 13 -2
16 8 15 60 -1 65 -6 71 -48 53 -14 -5 -12 8 13 87 16 51 32 117 36 146 5 46 4
52 -13 52 -16 0 -19 -8 -20 -48z"/>
<path d="M8707 4963 c-4 -3 -7 -15 -7 -26 0 -18 -49 -187 -57 -197 -2 -2 -28
-7 -56 -10 -37 -3 -52 -9 -52 -20 0 -11 11 -14 46 -12 l46 3 -24 -72 c-16 -47
-21 -75 -15 -81 13 -13 32 -2 32 17 0 8 10 44 21 79 21 65 22 65 65 72 29 4
44 11 44 21 0 11 -9 14 -35 11 -19 -2 -35 -2 -35 0 0 3 13 47 30 98 27 85 30
124 11 124 -4 0 -11 -3 -14 -7z"/>
<path d="M10243 4915 c-68 -61 -125 -159 -138 -237 -8 -47 -20 -60 -83 -88
-26 -12 -41 -24 -37 -31 10 -14 52 -3 96 26 25 16 40 20 47 13 5 -5 34 -11 63
-12 70 -1 76 19 8 27 -28 4 -54 9 -57 11 -3 3 22 34 54 69 63 68 154 218 154
255 0 39 -40 27 -107 -33z m46 -37 c-32 -63 -92 -149 -129 -183 l-31 -30 22
60 c12 33 31 74 42 90 20 31 109 116 115 110 2 -2 -7 -23 -19 -47z"/>
<path d="M10839 4963 c-1 -5 -2 -15 -3 -23 -1 -8 -14 -45 -30 -82 -30 -67 -43
-78 -93 -78 -14 0 -23 -6 -23 -16 0 -13 8 -15 35 -12 23 3 34 0 31 -6 -33 -73
-57 -140 -54 -153 6 -31 22 -14 43 45 38 104 55 127 102 130 32 2 42 8 47 25
9 34 8 37 -14 37 -11 0 -20 -7 -20 -15 0 -8 -9 -15 -20 -15 -26 0 -26 6 11 85
26 55 29 69 18 76 -17 11 -29 11 -30 2z"/>
<path d="M3926 4948 c-3 -7 -7 -22 -10 -33 -3 -11 -26 -78 -51 -150 -61 -172
-60 -165 -44 -165 8 0 27 20 43 44 28 41 63 72 72 63 3 -2 0 -16 -6 -31 -13
-36 -13 -69 2 -64 14 5 50 108 43 125 -7 19 -39 16 -69 -8 -14 -11 -26 -18
-26 -15 0 3 18 56 40 117 22 62 40 116 40 121 0 13 -30 9 -34 -4z"/>
<path d="M7870 4914 c-57 -53 -90 -115 -90 -167 0 -29 -4 -37 -17 -37 -37 0
-93 -21 -93 -35 0 -20 25 -19 44 1 9 8 16 11 16 6 0 -6 10 -8 22 -4 20 5 21 2
15 -38 -7 -58 -51 -104 -90 -96 -23 5 -28 3 -25 -12 5 -26 58 -27 90 -3 32 25
58 79 58 119 0 27 4 31 32 34 42 4 50 28 9 28 -28 0 -31 3 -31 30 0 44 23 92
65 139 44 48 69 54 59 15 -6 -22 -4 -25 12 -22 35 6 24 88 -12 88 -8 0 -37
-21 -64 -46z"/>
<path d="M13217 4954 c-4 -4 -7 -16 -7 -26 0 -11 -25 -75 -55 -143 -59 -134
-73 -210 -37 -203 13 2 16 11 14 36 -3 22 13 70 53 159 31 71 58 139 58 152 2
24 -13 38 -26 25z"/>
<path d="M2486 4938 c-2 -7 -9 -49 -16 -93 -6 -44 -24 -118 -40 -165 -18 -56
-25 -88 -19 -95 7 -7 14 -3 21 10 6 11 32 40 57 65 l46 45 5 -45 c3 -31 10
-45 20 -45 11 0 14 11 11 50 -1 27 -5 53 -7 57 -10 15 -51 8 -69 -12 -10 -11
-20 -19 -22 -17 -2 2 5 42 16 88 25 109 30 161 14 166 -7 3 -15 -1 -17 -9z"/>
<path d="M12623 4923 c-26 -78 -100 -253 -116 -276 -14 -20 -16 -32 -9 -39 7
-7 24 0 54 24 63 51 64 51 60 12 -3 -26 -1 -34 12 -34 9 0 15 3 14 8 -1 4 2
24 7 45 10 51 -3 64 -44 43 -17 -9 -31 -14 -31 -11 0 2 18 49 40 104 22 54 40
108 40 120 0 25 -18 28 -27 4z"/>
<path d="M13376 4918 c-3 -13 -12 -61 -20 -107 -18 -97 -41 -147 -76 -172 -54
-37 -103 -31 -81 9 14 27 48 46 83 46 30 1 38 16 15 30 -22 14 -67 -2 -104
-39 -40 -40 -42 -69 -8 -91 36 -24 92 -6 138 45 28 31 39 56 56 129 11 49 21
101 21 116 0 16 5 26 15 26 8 0 15 7 15 15 0 26 -49 19 -54 -7z"/>
<path d="M6263 4833 c-41 -97 -42 -98 -83 -106 -47 -10 -50 -33 -3 -30 l30 3
-5 -50 c-3 -32 0 -55 8 -65 15 -18 56 -20 63 -2 4 9 6 9 6 -1 1 -10 6 -10 21
-2 36 19 23 32 -26 24 l-47 -7 5 47 c3 26 8 49 11 52 3 3 24 8 46 11 52 7 57
33 6 33 -19 0 -35 3 -35 6 0 3 16 42 35 85 39 88 41 99 22 99 -7 0 -32 -44
-54 -97z"/>
<path d="M13806 4803 c-35 -71 -76 -138 -90 -150 -65 -56 53 -99 138 -50 44
25 66 68 46 92 -16 20 -70 19 -98 0 -20 -15 -20 -13 7 47 16 35 40 83 55 108
27 46 33 80 16 80 -5 0 -39 -57 -74 -127z m64 -138 c0 -20 -58 -55 -90 -55
-14 0 -32 5 -40 10 -13 8 -12 10 3 10 10 0 35 11 55 25 41 28 72 32 72 10z"/>
<path d="M2313 4848 c-18 -61 -19 -63 -61 -72 -54 -13 -59 -40 -6 -34 l36 4
-6 -35 c-17 -93 -19 -131 -7 -131 13 0 13 -1 36 103 l17 77 33 0 c18 0 38 7
45 15 11 13 7 15 -29 15 -22 0 -41 2 -41 4 0 2 7 23 15 47 16 43 14 69 -4 69
-5 0 -18 -28 -28 -62z"/>
<path d="M4900 4821 c0 -26 10 -51 21 -51 5 0 9 16 9 35 0 24 -5 35 -15 35 -8
0 -15 -9 -15 -19z"/>
<path d="M6515 4800 c-4 -6 -3 -14 0 -20 9 -15 35 -12 35 4 0 17 -27 29 -35
16z"/>
<path d="M12360 4797 c-44 -15 -49 -41 -15 -77 31 -33 27 -46 -17 -55 -23 -6
-33 -3 -40 9 -8 14 -13 15 -24 5 -40 -33 24 -61 90 -39 50 16 60 39 36 78 -11
18 -25 32 -30 32 -6 0 -8 5 -4 11 4 6 20 8 39 5 25 -5 34 -3 39 10 7 17 -9 34
-29 33 -5 0 -26 -5 -45 -12z"/>
<path d="M10421 4791 c-19 -13 -6 -28 24 -28 19 0 25 4 23 16 -4 19 -27 25
-47 12z"/>
<path d="M11524 4748 c-15 -24 -30 -45 -33 -48 -13 -10 -51 -81 -51 -96 0 -37
39 5 93 98 32 56 43 64 63 47 8 -6 18 -9 21 -5 13 12 -13 41 -40 44 -21 3 -31
-5 -53 -40z"/>
<path d="M4050 4742 c-33 -32 -40 -46 -40 -76 0 -46 38 -86 82 -86 43 0 128
47 128 72 0 14 -20 9 -58 -17 -43 -30 -83 -32 -105 -7 -18 20 -23 57 -7 47 15
-9 75 13 95 35 12 13 15 27 11 45 -10 40 -56 34 -106 -13z m80 -2 c0 -10 -41
-30 -62 -30 -14 0 34 39 50 40 6 0 12 -5 12 -10z"/>
<path d="M11332 4750 c-57 -41 -75 -84 -56 -134 9 -22 63 -29 108 -14 54 18
61 40 9 32 -21 -3 -41 -8 -46 -11 -13 -8 -47 8 -47 21 0 7 20 21 45 30 56 22
89 60 74 87 -14 27 -40 24 -87 -11z m58 -10 c0 -11 -59 -44 -66 -37 -3 2 10
14 28 26 38 24 38 24 38 11z"/>
<path d="M11723 4760 c-40 -24 -42 -51 -6 -80 27 -21 27 -22 9 -36 -28 -20
-46 -17 -46 6 0 24 -13 26 -30 5 -32 -39 30 -68 86 -42 43 21 46 56 8 86 l-26
21 31 17 c29 17 36 33 15 40 -5 2 -24 -6 -41 -17z"/>
<path d="M14018 4760 c-51 -27 -78 -65 -78 -110 0 -52 27 -74 80 -67 47 6 90
31 90 52 0 19 -24 19 -39 1 -18 -21 -69 -30 -86 -16 -22 18 -19 43 4 37 24 -6
76 24 91 53 15 27 9 64 -10 67 -8 1 -31 -6 -52 -17z m42 -25 c0 -11 -45 -45
-59 -45 -11 1 -8 8 12 25 26 23 47 32 47 20z"/>
<path d="M10935 4743 c-84 -44 -108 -103 -59 -142 38 -30 82 -28 94 5 13 34
13 34 -10 34 -10 0 -23 -7 -28 -15 -5 -9 -15 -13 -24 -10 -20 8 -32 35 -16 35
6 0 31 9 55 21 50 24 70 53 52 75 -14 18 -26 17 -64 -3z m0 -43 c-3 -5 -12
-10 -18 -10 -7 0 -6 4 3 10 19 12 23 12 15 0z"/>
<path d="M12990 4734 c-6 -14 -10 -30 -10 -35 0 -18 -49 -59 -70 -59 -23 0
-27 28 -5 36 21 9 19 34 -3 34 -21 0 -46 -39 -40 -65 5 -29 32 -40 74 -29 30
7 44 18 61 49 23 41 31 95 13 95 -6 0 -15 -12 -20 -26z"/>
<path d="M2684 4736 c-12 -8 -27 -28 -33 -44 -9 -22 -18 -28 -32 -25 -22 6
-26 -15 -4 -23 8 -4 15 -14 15 -25 0 -37 80 -54 99 -21 6 9 11 12 11 6 0 -6
19 -11 43 -11 38 0 46 4 85 49 43 50 49 48 32 -11 -7 -24 -6 -39 2 -48 18 -23
33 -9 34 33 0 21 4 49 8 60 10 31 -18 58 -45 44 -15 -8 -19 -8 -17 2 2 7 -3
13 -10 13 -7 0 -25 -25 -40 -54 -26 -53 -29 -55 -72 -59 -84 -9 -94 -8 -98 11
-3 13 3 17 26 17 72 0 116 91 47 98 -16 1 -40 -4 -51 -12z m56 -20 c0 -12 -33
-36 -48 -36 -14 1 -12 5 7 20 21 19 41 26 41 16z"/>
<path d="M7068 4728 c-47 -24 -48 -45 -6 -80 28 -23 31 -29 18 -38 -20 -13
-63 -13 -78 2 -9 9 -13 7 -18 -7 -17 -44 61 -55 115 -16 36 25 36 38 1 71 -18
17 -31 32 -29 34 15 13 52 26 73 26 16 0 26 6 26 15 0 21 -56 17 -102 -7z"/>
<path d="M11175 4734 c-19 -10 -31 -11 -33 -5 -8 24 -29 8 -61 -44 -20 -32
-31 -61 -27 -71 5 -13 18 -5 67 40 80 74 98 75 59 3 -19 -35 -19 -57 -1 -57
10 0 61 104 61 123 0 8 -7 18 -16 21 -19 7 -14 9 -49 -10z"/>
<path d="M9263 4733 c-41 -8 -45 -27 -13 -69 35 -46 37 -60 10 -69 -27 -9 -60
3 -60 21 0 8 -7 14 -15 14 -21 0 -19 -40 3 -56 26 -20 86 -17 105 4 24 26 21
56 -9 91 -23 28 -24 31 -7 32 43 3 48 5 48 19 0 16 -24 21 -62 13z"/>
<path d="M10513 4725 c-37 -16 -41 -34 -16 -76 20 -34 10 -62 -26 -67 -17 -3
-21 2 -21 22 0 14 -3 26 -6 26 -9 0 -34 -28 -34 -39 0 -19 32 -41 61 -41 58 0
87 63 53 115 -16 24 -15 25 11 35 14 5 33 10 41 10 8 0 14 7 14 15 0 19 -34
19 -77 0z"/>
<path d="M4827 4709 c-33 -51 -60 -118 -54 -133 8 -21 27 -21 27 0 0 9 14 43
32 75 22 43 28 63 21 70 -8 8 -16 4 -26 -12z"/>
<path d="M4991 4709 c-17 -10 -38 -19 -45 -19 -15 0 -66 -83 -66 -106 0 -23 9
-17 68 46 66 69 89 77 77 28 -13 -57 -11 -93 5 -93 9 0 16 10 17 25 1 14 5 46
9 72 5 39 4 48 -13 56 -15 8 -27 6 -52 -9z"/>
<path d="M5502 4704 c-51 -24 -72 -47 -72 -82 0 -26 31 -52 61 -52 45 0 104
82 92 128 -8 31 -24 32 -81 6z m48 -38 c0 -22 -40 -66 -60 -66 -20 0 -32 22
-24 45 7 17 39 29 54 20 5 -3 10 -1 10 4 0 6 5 11 10 11 6 0 10 -6 10 -14z"/>
<path d="M5724 4720 c-51 -21 -83 -112 -49 -140 8 -6 32 -14 55 -17 33 -5 40
-3 40 12 0 11 5 15 16 11 9 -3 12 -2 8 5 -3 6 -17 8 -30 5 -63 -16 -91 18 -58
69 16 25 44 34 44 15 0 -5 7 -10 16 -10 11 0 14 8 12 27 -3 30 -20 37 -54 23z"/>
<path d="M9059 4718 c-42 -35 -60 -93 -37 -116 20 -20 85 -15 108 8 23 23 28
88 8 108 -16 16 -60 15 -79 0z m61 -51 c0 -31 -18 -47 -52 -47 -33 0 -36 17
-8 48 28 30 60 29 60 -1z"/>
<path d="M9440 4723 c-33 -13 -64 -74 -54 -105 7 -25 61 -58 94 -58 43 0 111
31 107 49 -4 18 -5 18 -68 -6 -44 -16 -48 -16 -73 0 -29 19 -34 37 -11 37 26
0 65 31 65 51 0 15 -29 41 -42 38 -2 0 -10 -3 -18 -6z m30 -37 c0 -2 -7 -6
-15 -10 -8 -3 -15 -1 -15 4 0 6 7 10 15 10 8 0 15 -2 15 -4z"/>
<path d="M12780 4722 c0 -5 -10 -14 -23 -21 -13 -7 -31 -26 -41 -41 -16 -28
-16 -30 5 -51 16 -16 28 -20 53 -15 51 10 69 51 46 110 -9 24 -40 37 -40 18z
m17 -77 c-8 -18 -61 -21 -55 -3 4 12 48 28 57 22 2 -2 1 -10 -2 -19z"/>
<path d="M6824 4690 c-42 -30 -94 -90 -94 -109 0 -23 24 -9 76 46 52 55 77 66
55 25 -6 -12 -11 -35 -11 -52 0 -25 4 -31 18 -28 10 2 16 11 15 23 -2 11 3 38
11 60 10 28 11 44 4 53 -15 18 -28 15 -74 -18z"/>
<path d="M5176 4658 c8 -73 23 -118 39 -118 19 0 48 50 55 95 l5 40 48 -3 c43
-4 77 8 77 27 0 3 -28 5 -63 5 -102 -2 -97 0 -97 -43 0 -22 -3 -46 -6 -55 -9
-25 -24 -8 -24 27 0 47 -11 77 -27 77 -11 0 -12 -11 -7 -52z"/>
<path d="M5925 4694 c-43 -22 -65 -44 -65 -66 0 -29 30 -34 70 -11 l37 20 9
-36 c8 -33 12 -36 43 -36 19 0 36 6 39 13 2 7 -6 12 -21 12 -26 0 -37 16 -37
54 0 22 -25 66 -38 66 -4 0 -20 -7 -37 -16z m25 -29 c0 -2 -10 -10 -22 -16
-21 -11 -22 -11 -9 4 13 16 31 23 31 12z"/>
<path d="M8048 4683 c-38 -41 -62 -93 -49 -106 11 -11 35 3 37 24 1 5 2 13 3
18 0 4 13 21 27 36 21 22 28 25 35 14 11 -19 32 2 23 24 -9 26 -47 20 -76 -10z"/>
<path d="M6586 4659 c-47 -51 -47 -92 -2 -97 63 -7 119 45 96 89 -6 10 -15 19
-20 19 -5 0 -7 7 -4 15 12 31 -34 14 -70 -26z m61 -25 c7 -19 -34 -55 -54 -47
-18 7 -16 23 4 45 20 22 42 23 50 2z"/>
<path d="M7884 4683 c-3 -10 -10 -27 -17 -38 -33 -61 -36 -69 -26 -87 13 -24
34 -23 75 3 62 38 82 90 46 122 -25 23 -71 22 -78 0z m66 -37 c0 -12 -63 -76
-75 -76 -14 0 -1 30 24 58 32 34 51 41 51 18z"/>
<path d="M6430 4654 c-13 -32 -13 -51 0 -59 11 -7 43 63 34 76 -10 16 -24 9
-34 -17z"/>
<path d="M10321 4634 c-12 -25 -21 -53 -19 -63 5 -23 33 -20 34 4 1 11 8 35
18 52 20 39 20 53 2 53 -8 0 -24 -21 -35 -46z"/>
<path d="M8195 4558 c-3 -7 -22 -65 -44 -128 -22 -63 -55 -153 -74 -200 -19
-47 -32 -91 -30 -97 8 -19 33 -15 33 5 0 9 16 58 36 107 55 139 113 309 108
317 -8 12 -24 9 -29 -4z"/>
<path d="M5508 4510 c-91 -9 -116 -16 -101 -31 5 -5 63 -5 139 2 71 5 156 9
189 7 48 -2 60 0 60 12 0 12 -18 15 -100 16 -55 1 -139 -2 -187 -6z"/>
<path d="M5889 4517 c-1 -1 -3 -15 -5 -30 -1 -16 -10 -50 -18 -75 -14 -42 -55
-216 -59 -251 -4 -27 21 -21 33 9 11 27 57 70 74 70 4 0 5 -28 4 -61 -4 -88
18 -91 27 -4 6 55 5 70 -9 83 -13 14 -21 14 -47 5 l-31 -12 7 40 c4 23 18 75
31 116 28 89 29 99 9 107 -8 3 -16 4 -16 3z"/>
<path d="M6935 4508 c-60 -33 -101 -92 -140 -203 -19 -55 -24 -60 -58 -68 -46
-11 -44 -33 3 -29 29 2 32 0 26 -20 -4 -13 -9 -35 -12 -50 -4 -16 -10 -28 -15
-28 -5 0 -9 -7 -9 -15 0 -18 24 -20 37 -2 5 6 16 38 23 70 13 56 14 57 46 55
18 -1 36 1 40 4 12 13 -8 28 -36 28 -28 0 -28 1 -18 38 16 59 69 151 100 173
17 13 36 18 48 14 23 -7 28 13 8 33 -14 14 -17 14 -43 0z"/>
<path d="M7503 4498 c-6 -7 -10 -26 -10 -43 0 -16 -9 -51 -21 -77 -18 -41 -25
-48 -49 -48 -57 0 -103 -12 -103 -27 0 -13 10 -14 55 -8 30 3 55 3 55 -2 0 -4
-9 -32 -20 -61 -11 -29 -20 -60 -20 -71 0 -27 32 -51 68 -51 29 0 32 3 32 31
0 27 -3 30 -22 23 -13 -4 -26 -11 -29 -16 -3 -5 -9 -3 -12 6 -7 18 29 130 46
145 7 5 33 11 57 13 32 2 45 7 45 18 0 11 -10 14 -42 12 l-43 -4 25 66 c14 37
25 75 25 86 0 22 -22 27 -37 8z"/>
<path d="M10346 4468 c-6 -38 -21 -79 -89 -242 -40 -94 -22 -110 48 -45 l45
42 0 -32 c0 -21 5 -31 16 -31 12 0 14 9 12 42 -4 51 -24 60 -68 28 l-29 -21
39 88 c41 92 64 177 56 200 -10 25 -24 13 -30 -29z"/>
<path d="M13047 4503 c-3 -5 -8 -30 -12 -57 -11 -79 -22 -95 -68 -98 -55 -4
-62 -28 -8 -28 23 0 41 -2 41 -4 0 -2 -7 -23 -15 -46 -8 -23 -15 -58 -15 -77
0 -55 22 -34 36 35 16 80 19 83 61 80 49 -4 55 19 8 28 -28 5 -35 10 -30 23
13 34 32 127 28 139 -5 13 -19 16 -26 5z"/>
<path d="M10204 4473 c-3 -15 -22 -63 -41 -105 l-36 -77 -46 -3 c-34 -2 -47
-7 -49 -20 -3 -15 3 -17 38 -14 35 4 40 2 35 -12 -34 -90 -38 -112 -20 -138
15 -23 21 -25 53 -19 46 8 52 12 52 31 0 11 -6 14 -20 10 -11 -3 -29 -9 -40
-12 -17 -4 -20 -1 -20 26 0 39 38 130 54 130 7 0 21 7 32 15 19 14 19 15 -3
21 l-21 6 28 61 c16 34 30 75 32 91 4 38 -19 46 -28 9z"/>
<path d="M10835 4432 c-31 -69 -68 -117 -84 -107 -12 7 -24 -12 -16 -25 5 -8
12 -7 23 2 14 11 15 10 8 -7 -18 -48 -17 -100 3 -132 29 -46 107 -58 99 -15
-2 11 -14 16 -33 17 -21 0 -33 7 -44 27 -14 24 -14 32 -1 70 8 24 22 44 30 45
71 9 90 15 90 30 0 13 -7 14 -40 9 -22 -3 -40 -3 -40 1 0 5 16 37 35 73 40 73
41 80 18 80 -12 0 -28 -22 -48 -68z"/>
<path d="M4883 4483 c-9 -3 -13 -28 -13 -74 0 -56 -3 -69 -16 -69 -25 0 -74
-56 -74 -84 0 -23 -4 -26 -34 -26 -64 0 -126 -12 -126 -26 0 -19 31 -25 70
-14 52 15 98 12 132 -7 29 -18 29 -19 27 -103 -2 -72 1 -85 15 -88 14 -3 16 8
16 87 0 50 3 90 8 90 25 -4 46 4 69 27 25 25 33 27 136 30 61 2 115 8 120 13
19 19 -22 24 -129 18 -96 -5 -104 -4 -104 12 0 23 -44 71 -66 71 -14 0 -15 10
-11 70 5 71 2 81 -20 73z m-27 -229 c-7 -18 -46 -18 -46 1 0 8 10 24 23 35
l22 21 3 -21 c2 -12 1 -28 -2 -36z m80 30 c15 -22 15 -27 3 -35 -31 -20 -49
-10 -49 26 0 43 22 47 46 9z m-23 -81 c-7 -2 -19 -2 -25 0 -7 3 -2 5 12 5 14
0 19 -2 13 -5z"/>
<path d="M8699 4473 c-1 -5 -1 -11 0 -15 0 -4 -8 -36 -20 -72 -21 -69 -24 -71
-86 -66 -15 1 -23 -4 -23 -14 0 -10 12 -16 40 -18 l40 -3 -30 -63 c-16 -34
-31 -74 -32 -89 -4 -38 19 -40 31 -1 11 37 52 136 64 156 5 6 19 12 33 12 30
0 64 17 64 31 0 7 -14 8 -40 4 -45 -8 -45 -8 -25 59 19 62 19 86 0 86 -8 0
-16 -3 -16 -7z"/>
<path d="M2280 4456 c0 -21 21 -31 30 -15 5 7 6 17 4 21 -9 14 -34 9 -34 -6z"/>
<path d="M3643 4458 c-4 -7 -15 -47 -23 -88 -9 -44 -20 -76 -27 -76 -7 -1 -20
-2 -28 -3 -8 0 -30 -18 -50 -38 -43 -45 -44 -80 -2 -103 24 -13 30 -13 54 0
31 18 54 74 79 194 9 47 23 86 33 93 14 11 14 14 1 23 -20 13 -27 13 -37 -2z
m-53 -207 c0 -18 -21 -66 -32 -72 -14 -9 -48 1 -48 14 0 16 51 67 67 67 7 0
13 -4 13 -9z"/>
<path d="M5646 4461 c-3 -5 -4 -16 0 -24 6 -17 -21 -180 -42 -251 -19 -65 -18
-106 1 -106 8 0 15 8 15 18 0 9 11 67 25 127 35 156 41 218 22 233 -9 8 -18 9
-21 3z"/>
<path d="M14965 4423 c-14 -33 -37 -113 -67 -229 -11 -43 -5 -80 11 -70 4 3
11 22 14 43 6 36 66 238 82 276 5 12 3 17 -9 17 -9 0 -23 -16 -31 -37z"/>
<path d="M14819 4448 c-1 -2 -3 -14 -4 -28 -1 -14 -24 -76 -49 -139 -28 -68
-44 -117 -38 -123 14 -14 24 6 76 139 45 114 52 153 26 153 -5 0 -11 -1 -11
-2z"/>
<path d="M13862 4413 c-5 -10 -15 -49 -21 -88 -17 -95 -44 -155 -70 -155 -31
0 -26 31 9 65 35 33 38 45 11 45 -11 0 -31 -15 -45 -33 -50 -66 -22 -135 42
-105 36 17 68 85 83 176 7 41 18 76 25 79 16 6 7 33 -12 33 -7 0 -17 -8 -22
-17z"/>
<path d="M11370 4396 c0 -7 7 -19 15 -26 12 -10 16 -9 21 3 3 9 3 21 -1 27 -9
15 -35 12 -35 -4z"/>
<path d="M14680 4375 c0 -29 17 -33 36 -7 19 25 17 32 -11 32 -20 0 -25 -5
-25 -25z"/>
<path d="M8276 4371 c-7 -11 18 -33 27 -24 4 3 7 12 7 20 0 15 -26 18 -34 4z"/>
<path d="M12642 4364 c2 -11 11 -20 22 -22 13 -3 17 1 14 14 -2 11 -11 20 -22
22 -13 3 -17 -1 -14 -14z"/>
<path d="M12039 4334 c-13 -14 -32 -29 -43 -33 -22 -9 -70 -160 -55 -175 13
-14 24 1 39 49 20 63 47 111 76 134 25 20 27 20 40 4 12 -17 13 -17 19 0 9 21
-11 47 -34 47 -10 0 -28 -12 -42 -26z"/>
<path d="M2218 4333 c-78 -89 -50 -212 32 -145 30 25 18 49 -13 27 -12 -8 -25
-15 -29 -15 -24 0 9 96 38 113 18 10 18 37 1 37 -8 0 -21 -8 -29 -17z"/>
<path d="M13160 4323 c-43 -36 -53 -66 -36 -108 17 -40 46 -57 88 -53 45 4 49
28 5 28 -21 0 -41 7 -52 20 -10 11 -16 21 -14 23 2 1 21 10 41 20 24 10 40 25
44 42 15 58 -23 73 -76 28z m31 -34 c-35 -28 -51 -22 -17 7 15 14 31 22 35 19
3 -4 -5 -15 -18 -26z"/>
<path d="M3802 4325 c-51 -36 -67 -115 -32 -153 24 -26 95 -30 125 -9 24 18
11 41 -15 27 -26 -14 -73 -13 -88 2 -19 19 -14 38 12 38 13 0 35 10 50 21 21
16 26 28 24 53 -2 25 -8 32 -28 34 -14 1 -35 -5 -48 -13z m32 -52 c-25 -18
-45 -17 -37 3 7 20 46 36 52 21 2 -6 -4 -16 -15 -24z"/>
<path d="M4049 4311 c-18 -19 -36 -27 -47 -24 -21 5 -28 -16 -31 -99 -2 -58
23 -82 34 -32 7 36 37 99 57 121 20 21 20 21 39 2 25 -25 43 -15 34 19 -12 50
-44 55 -86 13z"/>
<path d="M13384 4312 c-17 -15 -36 -44 -42 -67 -6 -22 -14 -50 -17 -62 -11
-34 23 -30 36 5 5 15 19 46 31 70 19 39 23 43 49 37 33 -7 37 4 11 28 -24 22
-31 21 -68 -11z"/>
<path d="M14320 4314 c-25 -14 -46 -29 -48 -34 -6 -18 19 -20 49 -5 42 22 44
15 9 -26 -32 -38 -38 -74 -14 -83 9 -4 40 6 70 23 50 27 54 28 54 10 0 -53 88
-23 119 41 18 37 18 42 3 47 -8 4 -17 2 -19 -3 -11 -30 -31 -59 -51 -72 -23
-15 -24 -15 -17 20 4 20 3 38 -2 41 -5 3 -35 -12 -67 -34 -32 -21 -62 -39 -67
-39 -5 0 9 23 31 51 64 81 39 112 -50 63z"/>
<path d="M6962 4308 c4 -30 24 -34 38 -7 7 12 8 19 2 15 -6 -3 -13 -2 -17 4
-11 18 -26 11 -23 -12z"/>
<path d="M12200 4316 c-27 -15 -72 -89 -65 -109 2 -6 6 -25 9 -40 4 -17 16
-31 32 -37 29 -12 77 -3 68 12 -4 6 1 8 14 4 11 -4 23 -2 26 3 11 16 -12 22
-47 13 -36 -10 -67 0 -67 22 0 6 20 22 45 34 53 26 84 66 68 91 -13 21 -51 24
-83 7z m50 -31 c0 -15 -58 -51 -67 -41 -11 11 30 47 65 55 1 1 2 -6 2 -14z"/>
<path d="M12473 4310 c-6 -23 -8 -24 -33 -10 -42 23 -109 -45 -95 -97 5 -21
11 -24 33 -20 15 2 35 7 44 12 16 6 16 1 -2 -64 -11 -39 -20 -72 -20 -75 0 -2
-18 -6 -39 -10 -64 -10 -93 -42 -99 -108 -5 -65 9 -98 42 -98 31 0 61 35 86
101 18 46 25 56 41 52 21 -6 28 22 7 30 -15 4 19 156 53 240 11 26 17 52 14
57 -10 16 -27 11 -32 -10z m-29 -55 c-1 -13 -63 -49 -71 -42 -3 4 2 18 11 32
12 18 24 25 39 23 12 -2 22 -7 21 -13z m-84 -304 c-23 -63 -42 -87 -60 -76
-14 9 -13 88 3 108 11 16 67 38 76 31 2 -2 -6 -30 -19 -63z"/>
<path d="M11528 4305 c-48 -12 -78 -30 -78 -47 0 -5 12 -20 26 -33 24 -22 25
-25 9 -31 -10 -4 -20 -1 -25 6 -9 15 -30 5 -30 -15 0 -20 46 -30 76 -16 38 17
42 41 10 66 -32 26 -26 33 36 43 41 7 60 25 36 34 -7 3 -34 0 -60 -7z"/>
<path d="M12768 4305 c-36 -20 -35 -39 2 -82 46 -52 38 -68 -20 -38 -15 8 -30
20 -33 27 -3 10 -8 10 -17 2 -29 -28 52 -83 106 -72 32 6 29 51 -6 91 -29 34
-30 36 -12 46 10 5 29 7 41 4 19 -5 22 -2 19 13 -4 24 -44 29 -80 9z"/>
<path d="M13565 4310 c-31 -12 -64 -48 -71 -74 -9 -36 -2 -57 27 -78 23 -17
31 -18 67 -8 40 10 52 23 33 34 -4 3 -22 2 -38 -3 -28 -8 -63 1 -63 17 0 4 17
8 38 9 41 2 72 31 72 67 0 39 -25 53 -65 36z m28 -60 c-4 -4 -20 -10 -35 -14
-38 -9 -36 10 5 34 28 18 32 18 35 4 2 -9 0 -20 -5 -24z"/>
<path d="M2367 4240 c-20 -39 -37 -73 -37 -75 0 -3 8 -5 17 -5 10 0 43 26 75
57 l58 57 -6 -50 c-7 -57 7 -77 52 -72 40 4 43 28 5 28 l-32 0 7 65 c8 78 -4
84 -62 33 -31 -27 -35 -29 -25 -10 12 22 8 42 -8 42 -4 0 -24 -32 -44 -70z"/>
<path d="M8390 4299 c-59 -24 -74 -59 -44 -104 17 -25 13 -75 -6 -75 -5 0 -19
14 -32 30 -25 34 -38 38 -38 11 0 -25 45 -71 69 -71 24 0 51 36 51 68 0 13 -8
37 -17 53 -16 28 -16 29 2 44 11 8 33 15 48 15 22 0 28 4 25 17 -4 21 -24 25
-58 12z"/>
<path d="M8799 4286 c-45 -31 -74 -84 -65 -119 8 -33 49 -62 73 -52 10 5 22 7
27 6 19 -4 45 11 40 23 -4 10 -15 12 -41 6 -75 -17 -90 17 -24 53 48 27 75 65
65 92 -9 22 -34 19 -75 -9z m36 -26 c-3 -5 -16 -15 -28 -21 -22 -12 -22 -12
-3 10 19 21 43 30 31 11z"/>
<path d="M3119 4283 c-50 -59 -62 -109 -33 -137 22 -22 55 -20 94 7 43 28 53
65 31 109 -19 40 -67 51 -92 21z m69 -61 c3 -26 -2 -33 -28 -47 -56 -29 -76
-4 -42 54 13 24 23 30 42 28 20 -3 26 -10 28 -35z"/>
<path d="M6094 4293 c-12 -2 -34 -17 -50 -34 -22 -24 -28 -38 -27 -70 3 -55
26 -79 75 -79 46 0 111 25 106 41 -4 12 -10 12 -60 -3 -46 -14 -88 -4 -88 21
0 13 10 20 36 24 62 10 95 62 62 95 -12 12 -16 13 -54 5z m36 -43 c0 -11 -42
-30 -67 -30 -14 0 -14 3 2 20 19 21 65 28 65 10z"/>
<path d="M9036 4275 c-27 -18 -36 -21 -36 -10 0 8 -7 15 -15 15 -8 0 -15 -6
-15 -13 0 -8 -11 -36 -25 -63 -48 -95 -33 -96 58 -6 63 61 69 64 62 37 -12
-42 -12 -79 0 -85 10 -6 48 128 39 141 -9 15 -30 10 -68 -16z"/>
<path d="M9200 4278 c-19 -13 -42 -38 -53 -55 -36 -63 17 -109 100 -88 42 10
21 29 -30 26 -62 -3 -66 23 -7 39 30 8 44 18 51 37 22 59 -6 78 -61 41z m25
-37 c-3 -6 -14 -11 -23 -11 -15 1 -15 2 2 15 21 16 32 13 21 -4z"/>
<path d="M9412 4275 c-17 -14 -35 -26 -39 -26 -4 0 -7 -8 -5 -19 2 -10 -2 -22
-9 -26 -8 -4 -9 -3 -5 4 4 7 3 12 -2 12 -12 0 -32 -46 -32 -75 0 -45 28 -27
70 45 22 39 45 70 50 70 5 0 14 -9 20 -20 6 -11 15 -20 21 -20 18 0 5 52 -17
67 -19 12 -25 11 -52 -12z"/>
<path d="M14643 4283 c-3 -10 -15 -30 -25 -45 -22 -32 -23 -58 -3 -58 8 0 15
5 15 11 0 6 9 22 20 36 21 27 27 73 10 73 -6 0 -13 -8 -17 -17z"/>
<path d="M3345 4281 c-40 -17 -83 -90 -85 -143 0 -33 29 -19 35 16 4 18 15 48
26 65 16 27 24 31 64 31 50 0 59 15 19 30 -29 12 -32 12 -59 1z"/>
<path d="M11301 4244 c-21 -46 -24 -59 -22 -81 2 -21 31 -15 31 6 0 10 9 38
19 62 11 24 17 47 15 51 -11 17 -24 6 -43 -38z"/>
<path d="M12616 4278 c-25 -84 -33 -129 -24 -134 16 -10 29 11 31 50 1 20 5
36 10 36 11 0 9 48 -3 55 -6 3 -12 0 -14 -7z"/>
<path d="M10486 4251 c-41 -43 -30 -65 30 -58 37 4 44 2 40 -10 -7 -18 13 -58
24 -47 4 5 10 30 14 57 5 39 2 51 -14 67 -28 28 -62 25 -94 -9z m68 -10 c3 -5
-4 -11 -17 -15 -35 -9 -40 -7 -27 9 14 17 36 20 44 6z"/>
<path d="M7203 4250 c-42 -25 -43 -54 -3 -75 36 -19 36 -21 8 -36 -18 -10 -24
-8 -35 7 -10 14 -16 15 -25 6 -20 -20 23 -56 55 -48 61 15 75 66 25 92 l-32
16 24 13 c14 7 39 11 57 8 40 -7 45 13 7 27 -35 14 -44 13 -81 -10z"/>
<path d="M8210 4247 c0 -12 -9 -40 -20 -62 -11 -22 -20 -45 -20 -53 0 -26 25
-6 48 38 26 52 29 100 7 100 -9 0 -15 -9 -15 -23z"/>
<path d="M7057 4233 c-27 -29 -57 -91 -57 -118 0 -31 27 -13 39 26 14 45 55
94 71 84 18 -11 32 5 19 21 -18 21 -43 17 -72 -13z"/>
<path d="M6921 4173 c-14 -47 -14 -73 -1 -73 13 0 26 28 34 73 5 29 4 37 -8
37 -9 0 -19 -15 -25 -37z"/>
<path d="M4163 4123 c-18 -6 -16 -33 1 -33 19 0 31 19 20 30 -5 4 -15 5 -21 3z"/>
<path d="M2441 4073 c-22 -15 -23 -17 -6 -29 16 -12 16 -19 -9 -128 -19 -80
-32 -116 -44 -121 -13 -5 -14 -8 -3 -14 10 -7 9 -10 -3 -14 -32 -13 -10 -85
27 -88 82 -8 168 66 170 146 2 66 -48 85 -103 39 l-31 -27 7 29 c3 16 13 56
21 89 27 104 17 148 -26 118z m99 -249 c0 -29 -8 -44 -39 -75 -38 -38 -91 -54
-91 -27 0 24 53 100 83 119 43 26 47 25 47 -17z"/>
<path d="M5110 3963 c-30 -80 -60 -131 -60 -103 0 15 -52 8 -58 -7 -2 -9 8
-13 33 -13 34 0 37 -2 31 -22 -27 -97 -15 -148 34 -148 30 0 105 25 128 43 28
22 -7 25 -60 5 -89 -32 -102 -18 -72 81 l15 52 62 -3 c82 -4 90 14 11 26 l-61
8 29 75 c26 68 29 93 9 93 -4 0 -22 -39 -41 -87z"/>
<path d="M4391 4006 c-36 -37 -61 -107 -61 -172 0 -48 -17 -64 -65 -64 -17 0
-25 -5 -22 -12 2 -8 19 -13 41 -12 33 1 36 -1 36 -26 0 -36 -40 -94 -68 -98
-25 -4 -28 -15 -8 -31 11 -9 20 -10 35 -2 30 17 71 93 71 132 0 31 4 36 33 44
35 11 35 30 0 30 -20 -1 -23 4 -23 36 0 69 42 169 72 169 4 0 8 -7 8 -15 0 -8
7 -15 15 -15 10 0 15 11 15 35 0 30 -3 35 -23 35 -13 0 -37 -15 -56 -34z"/>
<path d="M5960 4014 c0 -35 -42 -156 -60 -174 -11 -11 -38 -23 -60 -26 -26 -4
-40 -12 -40 -22 0 -11 8 -13 40 -8 22 3 40 4 40 2 0 -2 -13 -33 -30 -67 -19
-42 -26 -67 -20 -73 13 -13 19 -5 60 84 19 41 36 77 37 79 1 2 21 5 44 7 22 1
44 5 47 9 9 9 -20 25 -47 25 -18 0 -22 4 -18 18 34 109 44 151 39 156 -11 12
-32 5 -32 -10z"/>
<path d="M9173 4023 c-9 -3 -13 -27 -13 -71 0 -151 -31 -230 -97 -247 -55 -14
-70 50 -17 74 20 9 30 9 41 0 23 -20 37 4 14 25 -25 23 -63 15 -97 -19 -29
-29 -31 -68 -4 -95 32 -32 81 -24 131 21 36 33 50 78 56 192 3 53 10 97 14 97
5 0 9 7 9 15 0 15 -14 18 -37 8z"/>
<path d="M3429 4018 c-1 -2 -2 -14 -3 -28 -2 -14 -9 -49 -16 -77 -13 -51 -15
-53 -49 -53 -42 0 -67 -13 -57 -29 5 -7 20 -9 43 -5 35 7 36 6 29 -20 -17 -68
-18 -113 -3 -119 11 -4 16 5 20 41 9 72 23 102 49 102 13 0 30 5 38 10 12 8
13 11 1 19 -7 5 -22 6 -32 4 -23 -6 -23 0 -4 63 19 63 19 94 0 94 -8 0 -16 -1
-16 -2z"/>
<path d="M8467 3993 c-3 -5 -5 -26 -5 -48 0 -22 -12 -69 -27 -105 -64 -154
-65 -157 -50 -170 12 -10 16 -9 21 6 19 59 29 73 55 85 57 23 161 -32 112 -59
-14 -9 -15 -13 -4 -26 22 -26 40 -18 47 20 8 43 -17 75 -76 94 -30 10 -37 16
-29 26 14 18 -8 29 -27 13 -20 -17 -28 -5 -14 22 21 39 30 83 24 116 -6 31
-18 42 -27 26z"/>
<path d="M3530 3976 c0 -8 4 -17 9 -20 5 -3 -4 -45 -20 -93 -40 -121 -45 -153
-26 -153 9 0 19 9 22 20 10 33 55 80 76 80 17 0 20 -6 17 -46 -4 -62 14 -67
30 -9 13 48 4 84 -21 86 -25 3 -53 -3 -66 -14 -11 -10 -13 -8 -6 13 27 85 28
143 3 148 -11 2 -18 -3 -18 -12z"/>
<path d="M6688 3973 c0 -10 0 -27 1 -38 2 -25 -68 -224 -87 -247 -34 -41 10
-72 69 -48 33 14 109 93 109 114 0 46 -43 62 -87 31 -21 -15 -21 -12 8 67 16
46 28 94 27 108 -4 30 -37 41 -40 13z m62 -209 c0 -14 -52 -71 -79 -87 -43
-25 -39 -5 10 48 36 39 69 58 69 39z"/>
<path d="M7612 3948 c-7 -7 -12 -16 -12 -20 0 -13 37 -9 49 5 20 24 -14 38
-37 15z"/>
<path d="M8585 3899 c-55 -36 -75 -53 -67 -61 8 -8 32 3 83 36 40 25 76 46 81
46 4 0 8 7 8 15 0 25 -24 17 -105 -36z"/>
<path d="M3700 3872 c-42 -42 -48 -66 -29 -121 13 -38 35 -51 86 -51 49 0 74
15 41 23 -12 4 -35 7 -50 7 -26 0 -58 31 -58 55 0 6 20 16 45 23 51 14 77 50
58 80 -19 32 -51 26 -93 -16z m57 -15 c-3 -8 -18 -17 -34 -20 l-28 -5 29 24
c29 26 43 26 33 1z"/>
<path d="M2638 3860 c-32 -35 -38 -47 -38 -86 0 -56 33 -94 80 -94 39 0 110
36 110 55 0 20 -13 19 -52 -5 -40 -24 -71 -25 -92 -4 -23 23 -21 64 4 64 42 0
70 22 70 55 0 31 -15 55 -34 55 -5 0 -26 -18 -48 -40z m41 -31 c-25 -16 -32
-9 -13 12 12 13 20 16 22 9 3 -7 -2 -16 -9 -21z"/>
<path d="M4512 3888 c6 -18 28 -21 28 -4 0 9 -7 16 -16 16 -9 0 -14 -5 -12
-12z"/>
<path d="M7995 3873 c-38 -20 -41 -26 -49 -83 -4 -26 -13 -53 -21 -60 -13 -11
-15 -3 -15 59 0 64 -2 71 -20 71 -18 0 -19 -5 -13 -67 7 -82 18 -113 37 -113
23 0 58 58 64 106 4 37 10 48 33 59 15 8 38 14 51 12 15 -1 23 3 23 13 0 21
-53 23 -90 3z"/>
<path d="M4648 3826 c-32 -39 -79 -136 -72 -148 9 -14 34 -8 34 8 0 29 51 111
77 123 15 7 23 18 21 28 -5 29 -31 24 -60 -11z"/>
<path d="M6894 3850 c-32 -12 -74 -68 -74 -99 0 -68 60 -98 134 -67 67 28 60
57 -7 31 -47 -18 -81 -14 -91 10 -3 9 7 18 32 26 51 16 62 27 62 60 0 33 -25
50 -56 39z m26 -40 c0 -11 -33 -30 -51 -30 -8 0 -5 7 6 20 19 21 45 27 45 10z"/>
<path d="M6063 3836 c-13 -6 -23 -16 -23 -23 0 -15 36 -17 45 -3 13 21 35 10
35 -19 0 -28 -33 -81 -51 -81 -15 0 -10 30 6 36 20 8 19 36 -1 32 -9 -2 -26
-15 -37 -30 -20 -27 -20 -28 -2 -48 38 -42 93 -11 114 67 14 50 -1 83 -36 82
-16 -1 -38 -6 -50 -13z"/>
<path d="M7730 3840 c-8 -5 -24 -10 -36 -10 -28 0 -88 -75 -79 -98 5 -14 13
-10 46 25 21 23 39 40 39 37 0 -2 14 3 31 12 32 16 32 16 24 -8 -12 -38 -11
-81 3 -85 7 -3 12 4 12 16 0 11 7 36 16 55 9 19 14 41 11 50 -7 18 -44 21 -67
6z"/>
<path d="M8763 3819 c-47 -45 -55 -118 -16 -146 23 -18 53 -16 53 2 0 8 -9 15
-19 15 -17 0 -31 18 -31 41 0 5 10 9 23 9 36 0 87 37 87 63 0 54 -51 62 -97
16z m67 -8 c0 -13 -41 -41 -60 -41 -10 1 -6 9 13 25 29 26 47 32 47 16z"/>
<path d="M7504 3792 c-43 -65 -45 -68 -38 -86 9 -25 34 -19 34 7 0 13 13 42
28 63 44 61 45 64 25 64 -10 0 -31 -20 -49 -48z"/>
<path d="M8151 3814 c-52 -43 -33 -114 30 -114 42 0 52 14 46 59 -3 23 -1 44
4 47 5 3 9 12 9 20 0 24 -55 17 -89 -12z m43 -36 c10 -40 7 -50 -16 -46 -26 3
-35 32 -18 53 17 21 27 19 34 -7z"/>
<path d="M4796 3809 c-22 -17 -26 -27 -21 -48 4 -14 13 -33 21 -42 8 -8 14
-23 14 -32 0 -24 -27 -21 -33 3 -6 24 -23 26 -31 4 -8 -22 21 -54 49 -54 45 0
58 45 28 98 -14 25 -15 32 -4 46 7 9 27 16 43 16 39 0 32 24 -8 28 -19 2 -40
-5 -58 -19z"/>
<path d="M4476 3790 c-40 -119 -42 -130 -22 -130 20 0 50 104 37 128 -8 14
-10 15 -15 2z"/>
<path d="M8848 3704 c-16 -8 -28 -21 -28 -29 0 -20 6 -19 46 6 55 34 39 54
-18 23z"/>
<path d="M9250 3701 c0 -5 6 -14 14 -20 16 -13 32 2 21 19 -8 12 -35 13 -35 1z"/>
<path d="M2873 3286 c-4 -7 -42 -20 -83 -29 -41 -9 -106 -23 -145 -31 -38 -9
-100 -16 -137 -16 -75 0 -98 -6 -98 -26 0 -25 194 -5 357 37 42 10 89 19 105
19 24 0 28 4 28 30 0 31 -13 40 -27 16z"/>
<path d="M2880 3173 c-6 -32 -29 -132 -51 -223 -22 -91 -39 -175 -39 -187 0
-39 24 -25 53 30 15 30 41 69 58 88 l30 34 -5 -71 c-4 -53 -2 -75 9 -90 12
-16 16 -17 24 -4 5 8 7 19 3 25 -4 5 -7 44 -7 85 0 69 -2 75 -21 78 -15 2 -33
-10 -59 -40 -22 -26 -35 -35 -31 -23 20 69 48 189 56 245 6 36 13 75 16 88 5
16 2 22 -9 22 -11 0 -19 -17 -27 -57z"/>
<path d="M10475 3216 c-50 -22 -102 -84 -145 -172 -37 -76 -43 -83 -73 -86
-20 -2 -32 -8 -32 -18 0 -10 8 -14 28 -12 15 2 27 0 27 -4 0 -4 -16 -40 -35
-80 -40 -82 -40 -84 -21 -84 13 0 72 108 90 164 4 12 13 17 25 13 20 -5 51 9
51 23 0 5 -14 10 -31 12 l-30 3 36 72 c47 94 106 147 153 138 28 -5 32 -3 32
15 0 11 -4 20 -9 20 -5 0 -15 2 -23 5 -7 2 -26 -2 -43 -9z"/>
<path d="M6095 3194 c-4 -10 -12 -32 -19 -49 -7 -16 -21 -56 -30 -87 l-17 -58
-50 0 c-63 0 -63 -23 0 -28 47 -4 47 1 10 -97 -21 -55 -25 -105 -9 -105 6 0
12 6 14 13 2 6 16 51 32 98 l27 87 50 8 c68 12 78 38 13 33 -56 -5 -56 -3 -19
103 21 60 25 80 16 89 -10 10 -14 8 -18 -7z"/>
<path d="M11836 3198 c-21 -74 -68 -191 -108 -272 -37 -74 -46 -102 -38 -110
9 -8 16 -4 28 14 21 31 71 80 83 80 13 0 11 -28 -2 -32 -14 -5 0 -38 16 -38
14 0 39 85 30 101 -9 13 -49 11 -64 -3 -11 -11 -13 -10 -8 2 3 8 26 66 51 129
25 63 46 120 46 128 0 16 -29 17 -34 1z"/>
<path d="M14775 3178 c-2 -7 -11 -35 -20 -63 -9 -27 -27 -69 -41 -92 -23 -39
-28 -43 -64 -43 -29 0 -40 -4 -40 -15 0 -10 10 -15 31 -15 26 0 30 -3 24 -17
-33 -88 -30 -143 10 -169 28 -18 73 -12 82 12 8 21 -2 27 -25 15 -14 -7 -25
-6 -42 6 -19 13 -21 21 -16 55 4 22 13 53 22 69 13 26 19 29 65 29 31 0 56 6
65 15 14 13 9 15 -40 15 -51 0 -70 10 -47 24 14 9 72 166 65 177 -8 13 -24 11
-29 -3z"/>
<path d="M5190 3166 c0 -8 -14 -74 -31 -147 -30 -126 -34 -135 -77 -181 -51
-54 -67 -59 -76 -23 -11 44 26 89 72 90 33 0 37 29 5 33 -57 8 -121 -62 -109
-121 12 -62 48 -73 100 -33 59 44 83 94 116 229 34 146 36 167 15 167 -8 0
-15 -6 -15 -14z"/>
<path d="M8537 3163 c-4 -3 -7 -18 -7 -33 0 -33 -38 -146 -53 -159 -7 -5 -33
-11 -57 -13 -32 -2 -45 -7 -45 -18 0 -11 10 -14 43 -12 47 4 49 0 27 -51 -8
-20 -15 -50 -15 -67 0 -20 5 -30 15 -30 9 0 15 9 15 25 0 13 9 49 20 79 18 47
24 54 53 59 74 11 93 19 83 35 -3 5 -23 6 -48 2 -24 -5 -45 -7 -46 -5 -2 2 5
29 17 60 29 77 28 158 -2 128z"/>
<path d="M9192 3146 c-11 -14 -27 -65 -37 -118 -23 -121 -23 -120 -45 -106
-24 16 -103 -14 -130 -50 -29 -36 -23 -83 12 -100 23 -11 32 -10 67 9 69 36
98 91 127 239 13 70 24 100 41 116 12 11 20 24 16 27 -13 13 -32 7 -51 -17z
m-79 -266 c-14 -52 -124 -108 -123 -62 1 26 23 50 61 66 49 22 68 20 62 -4z"/>
<path d="M2679 3153 c-1 -5 0 -18 1 -30 1 -12 -15 -90 -35 -172 -38 -154 -42
-216 -15 -216 11 0 14 9 12 31 -2 17 13 97 33 176 39 160 44 218 20 218 -8 0
-15 -3 -16 -7z"/>
<path d="M8673 3103 c-9 -47 -41 -137 -100 -280 -13 -31 28 -8 66 37 42 49 81
69 66 33 -25 -62 -28 -103 -6 -103 11 0 44 118 37 135 -6 17 -39 20 -67 5 -24
-13 -24 -15 6 63 32 85 43 167 23 167 -10 0 -18 -19 -25 -57z"/>
<path d="M5414 3104 c6 -21 -8 -60 -65 -185 -39 -87 -69 -165 -66 -173 5 -14
10 -14 40 -1 19 8 64 17 101 21 54 6 66 10 66 24 0 15 -7 17 -42 13 -24 -3
-61 -9 -83 -14 -22 -4 -40 -7 -41 -6 -1 1 27 65 62 142 67 147 77 196 40 203
-16 3 -18 0 -12 -24z"/>
<path d="M14209 3068 c-2 -89 -9 -103 -49 -103 -28 0 -38 -6 -57 -34 -25 -37
-31 -99 -11 -119 51 -51 125 63 148 226 8 63 5 82 -16 82 -10 0 -14 -15 -15
-52z m-32 -148 c4 -22 -34 -80 -52 -80 -20 0 -19 35 2 71 18 30 46 35 50 9z"/>
<path d="M7090 3063 c-75 -92 -100 -199 -64 -276 24 -49 92 -85 109 -57 3 5
-10 16 -29 24 -94 39 -88 185 12 290 17 19 32 39 32 45 0 23 -30 10 -60 -26z"/>
<path d="M7404 3089 c-3 -6 10 -24 29 -40 64 -53 71 -130 21 -217 -31 -52 -62
-82 -86 -82 -11 0 -18 -7 -18 -20 0 -49 78 1 127 82 61 99 52 207 -21 263 -37
28 -42 30 -52 14z"/>
<path d="M10160 3071 c0 -15 6 -21 21 -21 14 0 19 5 17 17 -5 26 -38 29 -38 4z"/>
<path d="M12199 2936 c-24 -47 -48 -84 -54 -83 -5 2 -12 30 -15 62 -3 34 -10
60 -17 63 -20 6 -17 -118 3 -146 29 -42 51 -28 95 59 25 51 48 83 60 86 26 7
21 37 -7 41 -16 2 -29 -13 -65 -82z"/>
<path d="M13507 2994 c-15 -8 -32 -12 -37 -9 -10 6 -90 -109 -90 -131 0 -28
25 -12 60 36 19 27 52 59 72 70 37 21 38 21 38 2 0 -10 -11 -34 -25 -53 -13
-19 -32 -44 -41 -56 -16 -23 -13 -53 6 -53 5 0 10 7 10 15 0 8 13 29 29 47 38
45 51 71 51 106 0 43 -26 52 -73 26z"/>
<path d="M5657 2994 c-16 -16 -6 -35 16 -32 12 2 22 10 22 18 0 16 -26 25 -38
14z"/>
<path d="M12376 2974 c-94 -94 -92 -194 5 -194 45 0 89 18 89 36 0 21 -16 24
-36 9 -34 -26 -94 -16 -94 15 0 13 11 20 37 25 41 8 93 54 93 84 0 38 -65 55
-94 25z m47 -46 c-17 -20 -62 -42 -69 -35 -2 2 10 17 26 35 19 21 34 30 45 26
14 -6 14 -8 -2 -26z"/>
<path d="M3823 2943 c-15 -21 -31 -40 -34 -43 -7 -6 -79 -273 -79 -294 0 -9 4
-16 8 -16 19 0 40 37 47 80 11 74 14 80 45 80 36 0 63 24 94 84 42 80 31 135
-29 143 -18 3 -31 -6 -52 -34z m74 -9 c13 -34 -47 -154 -77 -154 -20 0 -21 59
-1 98 34 66 65 89 78 56z"/>
<path d="M4028 2953 c-32 -33 -78 -129 -78 -160 0 -61 47 4 75 103 3 12 14 29
25 39 16 15 22 15 35 5 8 -7 15 -20 15 -29 0 -13 2 -13 9 -2 7 11 9 11 14 0 3
-9 6 -6 6 7 1 23 -37 64 -60 64 -9 0 -27 -12 -41 -27z"/>
<path d="M4441 2954 c-17 -14 -31 -32 -31 -40 0 -8 -5 -13 -12 -11 -14 2 -96
-231 -97 -276 -1 -45 19 -27 47 41 15 36 33 64 44 68 27 8 77 53 109 98 37 50
40 107 7 130 -29 21 -31 20 -67 -10z m59 -42 c0 -31 -47 -101 -85 -126 -29
-19 -29 -20 -14 42 22 89 99 155 99 84z"/>
<path d="M9617 2974 c-3 -4 -30 -7 -59 -8 -61 -1 -67 -17 -11 -29 41 -9 113
12 113 32 0 12 -33 15 -43 5z"/>
<path d="M13745 2969 c-35 -10 -110 -84 -95 -94 5 -3 10 -16 10 -29 0 -41 32
-59 89 -51 52 7 71 19 54 36 -5 5 -24 4 -46 -2 -28 -8 -42 -7 -53 2 -22 18
-17 27 20 43 46 19 76 51 76 81 0 27 -7 28 -55 14z m15 -33 c0 -2 -12 -11 -27
-20 l-28 -17 24 20 c23 21 31 25 31 17z"/>
<path d="M13876 2955 c-20 -19 -26 -33 -26 -68 0 -23 5 -48 12 -55 15 -15 52
-15 95 0 41 15 46 44 6 33 -47 -11 -76 -11 -80 3 -3 6 2 12 10 12 27 0 77 50
77 76 0 21 -5 24 -34 24 -21 0 -42 -9 -60 -25z m38 -30 c-29 -22 -42 -17 -15
6 13 11 26 17 29 14 3 -3 -3 -12 -14 -20z"/>
<path d="M6152 2949 c-63 -41 -80 -112 -37 -154 24 -25 69 -33 80 -15 7 12
-12 50 -25 50 -6 0 -10 -7 -10 -17 0 -14 -2 -14 -20 2 -29 26 -26 55 5 55 34
0 67 35 63 67 -4 35 -16 37 -56 12z m28 -23 c0 -2 -8 -10 -17 -17 -16 -13 -17
-12 -4 4 13 16 21 21 21 13z"/>
<path d="M10992 2956 c-12 -6 -25 -20 -28 -31 -4 -11 -15 -31 -25 -44 -48 -61
-6 -117 64 -87 66 27 93 110 46 139 -11 7 -19 17 -19 24 0 15 -6 15 -38 -1z
m48 -69 c0 -39 -74 -93 -86 -63 -7 19 24 66 50 76 32 13 36 12 36 -13z"/>
<path d="M11198 2943 c-9 -16 -39 -52 -67 -81 -28 -29 -51 -57 -51 -63 0 -17
27 -9 50 16 16 17 27 22 34 15 16 -16 51 -12 80 11 25 20 26 20 26 1 0 -27 27
-49 42 -34 9 9 9 15 1 23 -8 8 -6 23 9 56 15 35 17 48 8 57 -9 8 -19 2 -43
-25 -36 -40 -85 -75 -94 -66 -3 4 9 28 26 55 36 57 37 62 13 62 -10 0 -25 -12
-34 -27z"/>
<path d="M3044 2935 c-61 -61 -65 -142 -10 -176 49 -30 83 -25 127 20 34 34
51 71 33 71 -4 0 -24 -18 -45 -40 -22 -22 -47 -40 -57 -40 -29 0 -62 29 -62
56 0 20 5 24 28 24 36 0 82 46 82 83 0 24 -4 27 -35 27 -25 0 -44 -8 -61 -25z
m66 -12 c0 -15 -35 -43 -53 -43 -20 0 -20 1 3 25 22 23 50 34 50 18z"/>
<path d="M4613 2928 c-17 -18 -36 -43 -42 -55 -27 -53 -1 -123 46 -123 28 0
93 36 93 51 0 14 -33 10 -54 -6 -26 -20 -52 -19 -60 1 -10 26 -7 31 24 38 58
11 100 82 68 114 -20 20 -42 14 -75 -20z m34 -44 c-50 -43 -59 -27 -14 24 15
16 24 19 31 11 8 -7 3 -17 -17 -35z"/>
<path d="M5803 2941 c-53 -33 -58 -54 -22 -95 41 -47 22 -80 -23 -39 -15 13
-21 14 -31 4 -9 -10 -7 -16 12 -32 43 -35 101 -18 101 31 0 19 -9 35 -26 49
-33 26 -26 47 18 59 34 8 45 34 18 39 -8 2 -29 -6 -47 -16z"/>
<path d="M8040 2935 c-34 -25 -35 -25 -42 -5 -8 23 -46 27 -54 7 -5 -15 -34
-19 -34 -5 0 4 -6 8 -14 8 -8 0 -18 -18 -25 -44 -6 -24 -17 -49 -26 -56 -8 -7
-15 -19 -15 -26 0 -28 29 -13 66 36 41 54 69 73 60 40 -3 -11 -8 -29 -11 -39
-12 -40 18 -32 69 18 53 52 81 65 73 34 -13 -45 -16 -89 -8 -102 18 -29 32 -4
36 64 6 98 -13 116 -75 70z"/>
<path d="M8230 2942 c-68 -36 -92 -131 -38 -146 43 -11 106 -6 122 10 23 23
20 38 -6 29 -49 -15 -69 -17 -93 -11 -35 9 -31 23 8 31 59 13 82 50 55 88 -12
16 -15 16 -48 -1z m20 -37 c-7 -8 -20 -15 -29 -15 -11 1 -8 5 9 15 32 18 35
18 20 0z"/>
<path d="M10785 2933 c4 -15 11 -45 15 -66 4 -21 10 -40 13 -44 3 -3 -14 -30
-39 -61 -67 -82 -84 -122 -53 -122 5 0 15 13 23 28 8 16 45 66 83 113 98 120
124 162 112 174 -8 7 -16 2 -27 -13 -9 -13 -28 -40 -44 -59 -29 -37 -29 -38
-44 32 -6 27 -15 41 -28 43 -16 3 -18 0 -11 -25z"/>
<path d="M12862 2922 c-49 -45 -55 -81 -18 -101 19 -11 28 -10 54 3 29 15 31
15 46 -9 9 -14 25 -25 36 -25 25 0 25 11 0 33 -24 20 -25 36 -5 63 22 29 18
48 -12 62 -42 19 -56 15 -101 -26z m73 -9 c8 -21 -36 -63 -66 -63 -26 0 -24 9
13 47 37 38 43 40 53 16z"/>
<path d="M6376 2929 c-22 -17 -26 -18 -26 -5 0 27 -29 18 -36 -11 -3 -16 -17
-45 -31 -65 -25 -37 -24 -58 2 -58 7 0 16 8 20 18 3 9 5 17 3 17 -2 0 18 20
45 44 26 24 50 41 53 38 3 -3 1 -22 -6 -41 -11 -34 -8 -56 9 -56 9 0 31 76 31
104 0 8 -9 20 -19 25 -14 8 -25 6 -45 -10z"/>
<path d="M8844 2916 c-62 -61 -63 -108 -3 -121 29 -7 37 -3 61 24 32 35 36 75
12 109 -20 29 -32 27 -70 -12z m56 -35 c0 -29 -32 -63 -53 -56 -21 9 -22 24
-1 53 19 27 54 30 54 3z"/>
<path d="M10101 2907 c-24 -49 -27 -87 -8 -87 17 1 59 130 42 130 -7 0 -23
-19 -34 -43z"/>
<path d="M11940 2934 c-35 -22 -63 -62 -56 -81 5 -12 15 -14 41 -10 29 5 35 3
35 -12 0 -25 25 -55 39 -47 8 5 8 13 0 28 -8 16 -8 31 0 59 9 28 9 45 1 59
-13 24 -27 25 -60 4z m30 -30 c-8 -8 -23 -20 -34 -25 -15 -7 -13 -3 7 15 31
29 47 35 27 10z"/>
<path d="M4842 2915 l-30 -25 -5 22 c-8 29 -16 20 -40 -44 -43 -119 -31 -128
46 -32 58 71 72 79 62 33 -12 -53 -11 -64 5 -64 21 0 38 99 20 120 -17 20 -24
19 -58 -10z"/>
<path d="M6738 2921 c-13 -11 -31 -19 -40 -18 -9 1 -17 -1 -17 -5 -4 -48 1
-108 9 -108 6 0 21 25 35 55 24 55 40 66 63 43 9 -9 13 -7 18 7 5 12 1 22 -11
31 -24 18 -28 18 -57 -5z"/>
<path d="M4156 2893 c-24 -35 -37 -101 -17 -89 5 3 8 -2 7 -11 -2 -29 48 -40
90 -19 27 12 34 20 26 28 -8 8 -20 7 -42 -2 -27 -11 -34 -11 -48 4 -12 12 -13
16 -3 16 8 0 29 12 48 26 26 20 33 32 31 52 -2 22 -9 28 -35 30 -27 3 -35 -2
-57 -35z m64 -2 c0 -5 -11 -16 -25 -25 -29 -19 -33 -11 -8 16 17 19 33 24 33
9z"/>
<path d="M6533 2924 c-7 -3 -21 -20 -33 -39 -36 -58 -6 -95 78 -95 42 0 43 25
1 28 -18 1 -39 7 -48 12 -14 8 -13 9 4 10 28 0 85 37 85 55 0 26 -52 43 -87
29z m33 -39 c-26 -19 -42 -19 -26 0 7 8 20 15 29 15 13 -1 13 -3 -3 -15z"/>
<path d="M14845 2910 c-3 -5 -3 -10 1 -10 4 0 -1 -9 -10 -19 -24 -26 -17 -62
16 -80 25 -14 29 -14 55 5 42 31 42 69 1 94 -37 22 -54 25 -63 10z m60 -60 c0
-9 -11 -16 -27 -18 -30 -4 -36 6 -16 26 16 16 43 11 43 -8z"/>
<path d="M5604 2875 c-3 -13 -12 -29 -19 -35 -15 -12 -8 -60 10 -60 7 0 18 20
25 45 7 25 17 48 21 51 16 10 9 24 -11 24 -13 0 -22 -9 -26 -25z"/>
<path d="M9450 2738 c-2 -14 -68 -199 -74 -205 -4 -4 -19 -7 -34 -8 -33 0 -37
-29 -4 -33 27 -4 27 -8 2 -73 -12 -30 -17 -56 -12 -61 12 -12 27 8 46 66 27
78 31 83 85 90 42 6 82 28 70 40 -2 3 -25 -1 -51 -6 -27 -6 -51 -9 -54 -5 -4
3 5 38 20 77 28 76 32 105 16 115 -5 3 -10 5 -10 3z"/>
<path d="M2032 2603 c-7 -69 -14 -128 -16 -131 -2 -2 -13 1 -24 7 -43 23 -100
-28 -109 -99 -7 -47 23 -83 65 -78 52 6 92 98 111 258 15 116 14 170 -2 170
-10 0 -17 -35 -25 -127z m-43 -162 c18 -12 8 -52 -23 -88 -21 -24 -26 -26 -41
-13 -20 16 -14 63 12 92 18 20 31 22 52 9z"/>
<path d="M2444 2698 c-42 -38 -69 -91 -79 -160 -5 -31 -12 -48 -21 -48 -15 0
-19 -26 -5 -32 5 -2 5 -29 0 -63 -9 -65 -7 -70 16 -62 10 5 15 20 15 51 0 57
18 76 76 76 32 0 44 4 44 15 0 11 -12 15 -50 15 -58 0 -59 4 -34 89 19 65 62
115 100 116 37 2 39 29 2 33 -18 2 -37 -7 -64 -30z"/>
<path d="M6375 2718 c-63 -34 -173 -179 -191 -254 -9 -40 -40 -72 -78 -80 -43
-9 -49 -14 -36 -29 9 -11 18 -11 43 -3 18 6 38 15 45 21 9 7 16 5 25 -7 25
-33 147 -43 147 -11 0 9 -17 13 -51 13 -35 0 -56 5 -67 17 -16 16 -15 18 8 33
53 35 150 137 170 178 42 85 34 148 -15 122z m-1 -80 c-17 -51 -64 -110 -124
-158 -47 -37 -46 -27 12 72 32 56 114 145 125 135 1 -2 -4 -24 -13 -49z"/>
<path d="M6887 2723 c-3 -5 -8 -24 -12 -43 -3 -19 -14 -58 -22 -87 -15 -46
-20 -52 -46 -55 -38 -4 -49 -28 -13 -28 l25 0 -20 -57 c-23 -67 -24 -83 -5
-83 9 0 22 27 35 70 l21 69 50 7 c34 5 50 11 50 21 0 12 -10 14 -40 11 -22 -2
-40 -1 -40 2 0 3 11 39 24 80 12 41 21 81 19 88 -5 13 -19 16 -26 5z"/>
<path d="M8967 2713 c-2 -4 -8 -30 -12 -58 -4 -27 -22 -91 -40 -142 -32 -87
-33 -95 -20 -127 8 -19 19 -37 25 -41 26 -16 145 89 138 123 -2 9 -16 23 -31
30 -23 11 -32 11 -57 -2 -17 -8 -30 -13 -30 -10 0 2 11 36 24 76 28 85 36 149
19 155 -6 2 -13 0 -16 -4z m41 -273 c-33 -46 -88 -79 -70 -42 5 9 7 22 5 29
-5 15 36 43 65 43 l23 0 -23 -30z"/>
<path d="M11844 2637 c-41 -80 -43 -82 -77 -81 -27 1 -35 -3 -34 -15 0 -10 10
-18 20 -18 28 -3 30 -7 16 -51 -24 -80 12 -121 88 -101 44 12 68 32 58 49 -5
8 -13 7 -31 -4 -13 -9 -37 -16 -53 -16 -37 0 -46 23 -29 75 10 31 20 41 46 47
17 5 32 14 32 21 0 8 3 8 9 -2 7 -11 13 -11 37 0 34 17 43 39 15 39 -11 0 -22
-4 -25 -9 -5 -8 -76 -21 -76 -14 0 2 16 35 36 72 32 62 37 92 16 91 -4 0 -26
-38 -48 -83z"/>
<path d="M12540 2669 c-59 -59 -105 -127 -141 -210 -25 -59 -69 -99 -117 -109
-35 -7 -34 -24 1 -28 19 -2 40 5 63 23 25 19 34 22 34 11 0 -8 12 -24 27 -36
22 -17 35 -20 63 -15 47 9 61 18 52 33 -6 8 -17 9 -41 2 -41 -11 -71 2 -71 31
0 13 27 46 71 87 50 46 81 85 104 132 65 129 44 166 -45 79z m16 -66 c-33 -66
-99 -143 -112 -131 -10 11 47 100 95 151 25 26 47 47 48 47 2 0 -12 -30 -31
-67z"/>
<path d="M9974 2683 c-6 -23 -34 -94 -122 -306 -11 -28 -12 -41 -4 -49 14 -14
10 -18 55 54 31 49 90 98 103 85 2 -2 -2 -22 -10 -45 -12 -34 -12 -42 -1 -52
20 -17 54 92 35 114 -17 21 -38 20 -77 -4 l-32 -19 21 52 c46 114 68 179 63
188 -11 17 -25 9 -31 -18z"/>
<path d="M15706 2678 c-3 -13 -7 -58 -8 -100 -2 -42 -7 -80 -11 -84 -4 -4 -16
1 -26 10 -27 24 -51 17 -78 -23 -27 -39 -30 -93 -7 -115 14 -14 18 -14 44 -1
41 21 86 80 99 129 17 67 20 206 5 206 -8 0 -16 -10 -18 -22z m-46 -238 c-9
-17 -53 -50 -66 -50 -12 0 6 63 23 82 15 17 18 17 34 2 13 -12 16 -21 9 -34z"/>
<path d="M11356 2608 c-10 -45 -29 -115 -42 -157 -13 -44 -20 -79 -14 -85 5
-5 27 9 52 34 38 36 78 66 78 58 0 -2 -4 -17 -9 -35 -7 -22 -5 -37 3 -49 16
-22 22 -12 31 53 6 45 4 54 -11 60 -10 4 -33 -2 -56 -14 -21 -12 -38 -20 -38
-17 0 2 11 47 25 101 28 112 30 133 12 133 -8 0 -20 -31 -31 -82z"/>
<path d="M11123 2591 c-39 -84 -43 -89 -77 -95 -43 -8 -44 -33 -2 -28 27 3 27
2 21 -40 -8 -56 7 -96 41 -104 28 -7 99 10 109 26 13 21 -6 28 -40 14 -19 -8
-41 -14 -50 -14 -24 0 -37 40 -27 85 l8 40 49 0 c43 0 50 3 50 20 0 17 -6 20
-43 17 l-42 -3 11 28 c5 15 21 47 35 70 27 46 31 73 11 73 -8 0 -32 -40 -54
-89z"/>
<path d="M13049 2653 c-5 -15 -21 -51 -35 -80 -21 -45 -28 -52 -56 -55 -22 -2
-34 -9 -36 -21 -3 -15 1 -17 23 -11 l26 6 -21 -51 c-11 -29 -20 -63 -20 -76 0
-39 27 -30 33 11 3 20 15 55 27 79 16 33 25 42 40 38 29 -8 70 5 70 22 0 12
-8 14 -40 9 l-40 -7 30 61 c16 34 30 68 30 76 0 28 -20 27 -31 -1z"/>
<path d="M15170 2668 c0 -20 -102 -232 -117 -243 -16 -12 -7 -45 12 -45 7 0
23 23 35 52 21 48 23 51 36 34 10 -14 17 -16 26 -9 23 19 72 24 91 11 15 -11
16 -18 6 -46 -11 -33 -7 -62 10 -62 5 0 15 25 22 55 14 65 6 81 -50 91 -20 4
-41 11 -48 16 -7 5 -21 7 -32 3 -19 -6 -19 -2 9 57 33 70 38 98 15 98 -8 0
-15 -5 -15 -12z"/>
<path d="M15341 2635 c-25 -20 -69 -50 -99 -67 -43 -24 -51 -33 -39 -40 11 -6
31 1 67 22 76 45 139 93 140 108 0 21 -23 13 -69 -23z"/>
<path d="M14420 2599 c0 -24 23 -21 28 4 2 10 -3 17 -12 17 -10 0 -16 -9 -16
-21z"/>
<path d="M2590 2566 c0 -7 9 -16 19 -19 24 -6 31 0 24 19 -7 18 -43 18 -43 0z"/>
<path d="M10432 2558 c-11 -13 -31 -50 -43 -83 -12 -33 -26 -64 -30 -69 -10
-11 -41 58 -37 82 2 9 -5 18 -14 20 -27 5 -23 -57 5 -99 35 -52 66 -47 90 16
35 94 49 115 74 115 26 0 32 25 7 34 -24 9 -29 8 -52 -16z"/>
<path d="M6570 2556 c0 -9 7 -16 16 -16 17 0 14 22 -4 28 -7 2 -12 -3 -12 -12z"/>
<path d="M12702 2537 c-14 -16 -6 -27 20 -27 13 0 18 6 16 17 -4 22 -22 27
-36 10z"/>
<path d="M14829 2522 c-37 -105 -70 -139 -118 -121 -18 7 -22 14 -16 32 11 36
11 60 -1 64 -15 5 -38 -69 -30 -95 4 -12 22 -26 42 -32 50 -17 91 9 127 80 15
30 32 57 37 58 18 6 10 30 -11 35 -15 4 -22 -1 -30 -21z"/>
<path d="M2943 2520 c-43 -26 -67 -73 -59 -116 7 -36 47 -74 78 -74 24 0 90
33 107 54 18 22 4 41 -17 23 -31 -27 -83 -48 -103 -42 -16 6 -39 41 -39 61 0
2 13 4 29 4 34 0 91 43 91 69 0 21 -19 41 -39 41 -9 0 -30 -9 -48 -20z m57
-19 c0 -13 -41 -41 -60 -41 -10 1 -6 9 13 25 29 26 47 32 47 16z"/>
<path d="M7684 2506 c-19 -19 -41 -33 -48 -30 -15 6 -26 -35 -26 -92 0 -54 23
-41 54 31 34 78 50 94 77 77 25 -16 29 -15 29 8 0 17 -26 40 -45 40 -4 0 -23
-16 -41 -34z"/>
<path d="M10520 2527 c-29 -15 -55 -76 -46 -112 8 -32 61 -65 104 -65 36 0 96
22 106 39 15 24 -6 30 -42 11 -49 -26 -85 -25 -119 4 -32 28 -30 33 17 41 70
11 99 39 80 76 -12 22 -62 26 -100 6z m70 -26 c0 -9 -54 -31 -74 -31 -6 1 0
10 13 20 24 21 61 27 61 11z"/>
<path d="M13824 2525 c-10 -8 -26 -15 -35 -15 -24 0 -64 -81 -55 -113 3 -15
11 -27 16 -27 5 0 23 27 41 61 33 62 59 85 86 75 22 -9 36 3 22 20 -15 18 -50
18 -75 -1z"/>
<path d="M13568 2510 c-93 -50 -68 -137 42 -148 40 -4 50 -2 50 10 0 11 -14
17 -47 21 -29 3 -52 12 -60 23 -19 27 -16 30 22 26 27 -3 39 1 60 24 50 54 5
82 -67 44z m42 -25 c-7 -8 -20 -15 -29 -15 -11 1 -8 5 9 15 32 18 35 18 20 0z"/>
<path d="M2143 2488 c-59 -63 -68 -109 -29 -154 28 -33 80 -37 122 -9 32 20
19 44 -14 26 -33 -18 -80 -13 -92 8 -16 32 -13 50 10 44 27 -7 64 19 80 56 27
65 -24 84 -77 29z m57 -7 c0 -13 -29 -41 -42 -41 -7 0 -1 11 12 25 26 27 30
30 30 16z"/>
<path d="M3945 2504 c-47 -24 -65 -45 -65 -74 0 -51 32 -62 93 -31 l37 19 13
-27 c9 -19 21 -27 46 -29 18 -2 38 1 44 7 8 8 7 11 -2 11 -7 0 -10 4 -7 8 3 5
-9 6 -26 4 l-31 -5 7 55 7 55 -39 11 c-48 15 -41 15 -77 -4z m54 -50 c-45 -48
-115 -50 -72 -2 22 25 51 37 76 30 17 -4 17 -6 -4 -28z"/>
<path d="M5121 2483 c-45 -34 -51 -42 -51 -76 0 -71 71 -109 145 -75 32 15 35
43 3 33 -60 -19 -85 -17 -102 6 -22 32 -21 34 19 35 65 1 116 62 85 100 -19
22 -44 17 -99 -23z m79 -1 c0 -14 -33 -39 -60 -46 -24 -7 -23 -6 8 23 32 31
52 39 52 23z"/>
<path d="M5420 2514 c-50 -17 -110 -49 -110 -61 0 -18 14 -16 60 7 22 11 42
20 45 20 3 0 -10 -23 -30 -51 -19 -28 -35 -55 -35 -60 0 -21 31 -19 77 5 59
32 63 32 63 2 0 -84 134 -38 170 59 13 34 5 75 -14 75 -9 0 -14 -11 -13 -34 1
-41 -23 -81 -63 -101 -37 -19 -46 -14 -55 25 -4 16 -11 32 -16 36 -15 9 -46
-5 -55 -26 -6 -14 -13 -17 -23 -10 -12 7 -10 15 13 49 36 51 30 79 -14 65z"/>
<path d="M6984 2501 c-62 -38 -85 -109 -46 -144 22 -20 92 -23 93 -4 0 6 2 20
4 30 4 21 -9 22 -29 1 -20 -19 -50 -15 -54 8 -2 12 8 22 32 32 36 15 56 41 56
75 0 26 -16 26 -56 2z"/>
<path d="M15424 2501 c-101 -46 -98 -151 3 -151 23 0 33 5 33 15 0 9 -9 15
-24 15 -31 0 -56 10 -56 21 0 5 10 9 23 9 53 0 121 67 96 96 -15 18 -25 18
-75 -5z m46 -27 c0 -5 -64 -34 -77 -34 -4 0 6 9 22 20 29 19 55 26 55 14z"/>
<path d="M2740 2502 c-8 -2 -29 -18 -46 -34 -17 -16 -37 -28 -44 -26 -8 2 -16
-10 -20 -27 -4 -16 -12 -40 -18 -52 -19 -36 8 -42 32 -8 96 132 110 142 100
67 -4 -33 -2 -52 6 -57 17 -10 19 -5 26 61 7 63 -5 87 -36 76z"/>
<path d="M4934 2491 c-18 -11 -34 -24 -38 -29 -3 -5 -16 -8 -28 -6 -19 4 -27
-4 -45 -44 -13 -27 -23 -52 -23 -55 0 -19 29 -2 79 46 50 48 101 85 101 74 0
-3 -7 -24 -15 -47 -8 -23 -15 -53 -15 -66 0 -15 6 -24 15 -24 8 0 15 8 15 19
0 10 7 38 15 62 29 80 3 109 -61 70z"/>
<path d="M7444 2497 c-56 -33 -84 -66 -84 -100 0 -46 25 -67 83 -67 35 0 51 5
67 22 11 12 20 25 20 30 0 15 -39 8 -48 -8 -12 -22 -86 -16 -90 8 -2 12 7 18
39 23 50 9 92 46 87 78 -4 26 -41 34 -74 14z m40 -31 c-6 -15 -64 -40 -64 -28
0 8 50 41 62 42 4 0 5 -6 2 -14z"/>
<path d="M13138 2494 c-52 -28 -77 -113 -39 -134 28 -15 80 -12 97 4 22 23 17
27 -21 20 -19 -3 -43 -3 -52 0 -14 6 -8 11 25 26 43 20 69 57 59 84 -8 20 -34
20 -69 0z m27 -34 c-10 -11 -23 -20 -29 -20 -6 1 0 10 13 20 30 26 39 26 16 0z"/>
<path d="M14323 2483 c-9 -16 -27 -41 -40 -56 -32 -39 -30 -75 3 -83 16 -4 29
-2 34 6 4 6 10 11 14 11 20 -3 27 0 23 12 -2 7 -17 11 -36 9 -37 -4 -37 -1 11
59 28 37 37 69 18 69 -5 0 -17 -12 -27 -27z"/>
<path d="M7130 2479 c-6 -11 -18 -38 -25 -60 -22 -60 3 -62 66 -5 28 25 55 46
60 46 5 0 8 -24 7 -52 -2 -40 0 -53 11 -53 13 0 18 21 22 103 1 17 -1 35 -4
38 -12 12 -57 -7 -93 -39 -29 -25 -35 -27 -26 -10 14 26 16 53 2 53 -5 0 -14
-9 -20 -21z"/>
<path d="M8295 2478 c-33 -10 -72 -17 -88 -14 -23 5 -28 3 -25 -12 4 -24 47
-27 116 -7 62 18 85 32 76 46 -7 11 -6 11 -79 -13z"/>
<path d="M10120 2473 c-57 -53 -35 -112 30 -79 40 20 37 20 43 -4 6 -23 44
-28 44 -5 0 8 -4 12 -9 9 -4 -3 -8 8 -8 25 0 16 6 32 13 35 18 7 -30 46 -59
46 -13 0 -37 -12 -54 -27z m60 -12 c0 -17 -54 -54 -59 -40 -2 6 7 20 20 30 27
21 39 24 39 10z"/>
<path d="M11528 2474 c-88 -63 -61 -147 31 -99 28 14 29 14 35 -11 8 -29 33
-27 28 2 -2 10 2 36 9 57 12 37 12 41 -10 58 -31 25 -49 24 -93 -7z m70 -13
c10 -6 4 -16 -24 -40 -44 -36 -81 -43 -65 -12 10 18 59 60 71 61 3 0 11 -4 18
-9z"/>
<path d="M13320 2483 c0 -9 -10 -36 -21 -61 -34 -70 -11 -73 51 -8 29 31 57
56 61 56 4 0 3 -13 -2 -29 -12 -34 -9 -77 5 -74 12 3 38 103 32 120 -7 17 -55
17 -62 0 -3 -8 -11 -14 -19 -14 -8 0 -15 6 -15 14 0 7 -7 13 -15 13 -8 0 -15
-8 -15 -17z"/>
<path d="M14919 2468 c-34 -26 -44 -41 -44 -62 0 -41 23 -52 75 -35 57 18 88
58 74 96 -14 42 -51 42 -105 1z m72 -36 c-10 -19 -79 -47 -89 -37 -7 7 20 37
53 56 34 21 52 11 36 -19z"/>
<path d="M6608 2474 c-37 -19 -38 -60 -3 -76 14 -6 25 -15 25 -19 0 -12 -31
-19 -57 -13 -21 6 -24 3 -21 -12 5 -26 63 -31 89 -8 27 24 24 49 -8 73 l-28
20 38 15 c20 9 37 21 37 26 0 15 -41 11 -72 -6z"/>
<path d="M12776 2465 c-29 -27 -33 -47 -11 -65 20 -17 19 -33 -5 -55 -18 -16
-20 -16 -20 -2 0 10 -7 17 -15 17 -18 0 -20 -41 -4 -57 17 -17 65 10 84 46 13
27 13 31 -6 55 l-20 26 30 18 c23 14 28 21 19 30 -17 17 -21 15 -52 -13z"/>
<path d="M14523 2464 c-35 -20 -43 -22 -43 -10 0 29 -19 16 -41 -26 -12 -24
-27 -46 -33 -50 -8 -5 -8 -10 1 -19 8 -8 28 2 78 40 37 29 69 50 71 48 2 -1
-2 -20 -8 -40 -6 -20 -9 -40 -5 -43 11 -12 26 7 42 56 25 76 9 87 -62 44z"/>
<path d="M2540 2434 c-9 -33 -10 -48 -2 -56 8 -8 14 -3 22 18 21 55 24 84 8
84 -10 0 -20 -17 -28 -46z"/>
<path d="M6461 2421 c-21 -51 -20 -81 5 -81 8 0 14 10 14 25 0 15 7 39 15 56
15 28 13 49 -4 49 -5 0 -18 -22 -30 -49z"/>
<path d="M9107 2463 c-11 -19 -17 -66 -12 -84 8 -24 70 -26 103 -3 22 15 52
63 52 84 0 17 -28 11 -34 -8 -10 -32 -46 -62 -72 -62 -22 0 -24 3 -18 23 4 12
7 28 8 36 1 16 -20 26 -27 14z"/>
<path d="M12600 2393 c-20 -46 -20 -81 0 -68 10 6 50 91 50 106 0 5 -7 9 -15
9 -8 0 -23 -21 -35 -47z"/>
<path d="M13394 2293 c-3 -10 -25 -61 -48 -113 -39 -89 -44 -95 -74 -98 -36
-4 -46 -32 -11 -32 16 0 19 -4 14 -22 -4 -13 -14 -33 -21 -46 -15 -22 -11 -42
7 -42 5 0 22 26 37 57 24 51 30 57 62 60 46 5 60 10 60 23 0 5 -18 10 -40 10
l-39 0 36 78 c39 83 53 142 34 142 -6 0 -14 -8 -17 -17z"/>
<path d="M10945 2291 c-3 -6 -3 -15 0 -21 6 -10 -16 -95 -35 -130 -9 -16 -19
-21 -43 -18 -23 2 -32 -1 -32 -12 0 -9 11 -16 26 -18 l26 -3 -38 -72 c-38 -71
-50 -122 -28 -115 7 2 19 22 28 43 9 22 29 64 44 92 24 48 31 53 68 59 22 4
43 13 46 21 8 21 0 24 -36 13 -25 -7 -32 -6 -28 3 24 65 38 120 35 138 -3 25
-23 36 -33 20z"/>
<path d="M7780 2276 c0 -25 -61 -186 -76 -201 -9 -9 -26 -12 -49 -8 -28 4 -35
2 -35 -11 0 -12 9 -16 35 -16 l34 0 -19 -46 c-24 -55 -25 -84 -5 -84 8 0 15 7
15 15 0 8 11 39 24 68 22 51 26 54 67 60 24 3 45 11 47 16 2 6 9 8 14 5 7 -5
8 -2 3 6 -5 8 -21 10 -47 7 -34 -5 -39 -3 -33 11 18 45 55 166 55 178 0 8 -7
14 -15 14 -8 0 -15 -7 -15 -14z"/>
<path d="M7945 2270 c-4 -6 -1 -18 7 -27 7 -9 8 -14 2 -10 -8 4 -26 -25 -50
-80 -22 -48 -54 -116 -71 -152 -46 -92 -29 -103 43 -28 30 31 61 57 69 57 19
0 19 -33 -1 -71 -15 -31 -16 -74 -1 -74 9 0 33 58 44 102 3 13 2 34 -1 48 -8
30 -43 34 -81 9 -23 -15 -21 -9 20 83 25 54 46 109 47 122 3 25 -16 40 -27 21z"/>
<path d="M3013 2233 c-33 -104 -38 -110 -98 -118 -66 -8 -71 -30 -7 -30 23 0
42 -2 42 -4 0 -3 -12 -33 -26 -69 -38 -96 -16 -141 61 -122 16 5 42 11 58 14
15 4 27 13 27 21 0 9 -8 12 -22 9 -13 -2 -42 -7 -65 -11 -41 -5 -43 -5 -43 20
0 15 10 51 23 82 l22 55 53 0 c54 0 92 13 92 31 0 6 -24 7 -65 3 -36 -4 -65
-4 -65 -1 0 3 11 29 25 59 14 29 25 63 25 76 0 35 -24 26 -37 -15z"/>
<path d="M10156 2159 c-38 -122 -73 -179 -111 -179 -33 0 -39 14 -21 48 18 35
43 47 63 31 21 -18 41 4 23 26 -22 26 -60 18 -96 -21 -55 -57 -42 -114 26
-114 57 0 96 50 138 179 18 55 38 103 43 107 11 6 -7 34 -22 34 -4 0 -24 -50
-43 -111z"/>
<path d="M13506 2174 c-26 -52 -58 -112 -72 -131 -24 -36 -32 -83 -14 -83 5 0
37 18 71 40 34 22 64 39 65 37 2 -1 -1 -19 -6 -40 -5 -23 -4 -39 2 -43 17 -11
28 10 30 61 4 63 -13 68 -82 26 -55 -34 -60 -33 -31 7 49 70 114 199 106 213
-13 19 -23 6 -69 -87z"/>
<path d="M10345 2219 c-4 -24 -39 -105 -78 -182 -85 -167 -85 -168 28 -180 84
-8 109 -4 103 15 -5 13 -7 14 -100 16 -39 1 -58 6 -58 15 0 6 29 71 65 142 43
84 67 144 68 169 3 54 -19 58 -28 5z"/>
<path d="M13992 2195 c1 -56 -3 -75 -37 -140 -38 -75 -50 -84 -89 -69 -9 3
-16 10 -16 16 0 16 52 58 71 58 12 0 19 7 19 20 0 24 -11 25 -50 5 -34 -18
-70 -61 -70 -86 0 -25 38 -49 77 -49 28 0 37 7 59 42 49 77 67 130 70 201 2
59 0 67 -16 67 -16 0 -18 -8 -18 -65z"/>
<path d="M2285 2194 c-48 -49 -75 -116 -75 -187 l0 -38 -56 7 c-45 5 -56 4
-52 -7 5 -16 39 -27 86 -28 31 -1 32 -2 32 -46 0 -56 -23 -115 -45 -115 -10 0
-15 -7 -13 -17 2 -10 12 -18 23 -18 30 0 65 77 65 142 0 51 1 53 28 53 16 0
37 6 48 14 19 14 19 15 0 22 -11 4 -21 3 -23 -2 -2 -6 -17 -8 -33 -6 -34 5
-37 19 -19 103 8 38 22 64 52 96 36 39 43 43 73 37 38 -7 46 9 15 26 -36 19
-61 10 -106 -36z"/>
<path d="M4230 2203 c-1 -59 -17 -121 -57 -210 -54 -124 -34 -145 47 -47 52
64 97 94 106 70 6 -15 -21 -76 -38 -87 -13 -8 0 -51 14 -47 13 5 57 107 58
136 0 35 -41 50 -77 27 -49 -31 -72 -56 -66 -74 5 -12 3 -13 -6 -5 -10 9 -8
20 7 50 39 77 57 224 27 224 -11 0 -15 -11 -15 -37z"/>
<path d="M6047 2214 c-3 -3 -3 -12 -1 -19 3 -7 -4 -28 -15 -46 -16 -26 -29
-35 -58 -39 -47 -6 -57 -30 -13 -30 27 0 31 -3 25 -17 -25 -67 -28 -101 -12
-127 21 -32 49 -33 76 -4 32 33 0 56 -33 23 -25 -25 -29 15 -8 71 15 41 23 50
47 54 35 6 49 40 16 40 l-20 0 20 35 c12 19 18 42 15 50 -5 15 -28 20 -39 9z"/>
<path d="M12290 2205 c0 -8 9 -15 19 -15 28 0 71 -60 71 -99 0 -37 -11 -61
-52 -113 -34 -43 -20 -63 19 -27 34 32 63 92 65 132 1 37 -25 93 -56 119 -26
22 -66 24 -66 3z"/>
<path d="M3997 2135 c-20 -42 -43 -77 -50 -79 -51 -14 -70 -22 -68 -31 1 -5
15 -9 32 -7 l29 2 -6 -54 c-6 -46 -4 -56 15 -75 25 -25 49 -26 96 -7 62 26 40
47 -24 25 -47 -16 -66 4 -56 60 8 49 27 71 61 71 19 0 25 5 22 18 -2 10 -12
17 -25 16 -21 0 -21 1 8 58 27 53 30 78 11 78 -4 0 -24 -34 -45 -75z"/>
<path d="M12057 2154 c-90 -70 -112 -146 -59 -204 31 -36 95 -52 105 -27 4 11
-4 16 -33 21 -45 7 -70 36 -70 81 0 24 13 42 65 92 36 34 65 64 65 67 0 16
-31 2 -73 -30z"/>
<path d="M10606 2163 c-12 -12 -6 -33 9 -33 8 0 15 6 15 14 0 17 -14 28 -24
19z"/>
<path d="M5426 2131 c-8 -13 6 -52 18 -48 17 6 19 44 2 50 -9 4 -18 3 -20 -2z"/>
<path d="M12856 2104 c-36 -24 -40 -25 -51 -10 -17 22 -33 20 -71 -9 -34 -26
-104 -123 -104 -144 0 -23 32 -10 48 21 24 45 91 117 92 98 0 -9 -7 -26 -16
-39 -11 -16 -13 -26 -6 -33 7 -7 22 1 49 27 21 20 50 46 66 57 l28 20 -17 -41
c-13 -33 -14 -44 -4 -56 18 -22 30 -18 30 10 0 14 7 42 15 62 28 66 5 80 -59
37z"/>
<path d="M13043 2093 c-50 -34 -53 -39 -53 -78 0 -56 24 -77 81 -73 56 4 66
29 11 26 -46 -1 -62 7 -62 31 0 14 12 22 44 30 73 18 114 92 56 99 -16 1 -44
-11 -77 -35z m53 -19 c-30 -21 -44 -16 -17 7 13 11 27 17 30 13 3 -3 -3 -12
-13 -20z"/>
<path d="M8134 2099 c-64 -31 -79 -53 -78 -111 0 -37 5 -54 19 -64 38 -28 94
-11 153 45 28 28 19 49 -11 26 -57 -41 -84 -55 -102 -53 -30 4 -31 34 -1 42
37 9 96 64 96 90 0 20 -17 46 -29 46 -4 0 -25 -9 -47 -21z m46 -27 c0 -18 -76
-69 -86 -59 -9 9 7 33 34 50 29 18 52 22 52 9z"/>
<path d="M7061 2091 c-64 -34 -90 -122 -49 -161 35 -32 72 -24 157 37 3 2 0 8
-7 15 -8 8 -21 5 -51 -15 -46 -30 -63 -33 -80 -13 -10 12 -3 19 39 43 50 28
66 52 58 90 -5 24 -27 26 -67 4z m37 -33 c-3 -7 -19 -21 -38 -32 l-32 -19 11
21 c17 32 68 58 59 30z"/>
<path d="M8783 2086 c-15 -12 -33 -21 -40 -19 -6 2 -18 -19 -28 -49 -10 -29
-37 -102 -61 -161 -49 -119 -51 -130 -28 -125 8 2 29 38 47 83 27 66 37 81 57
84 37 5 79 39 111 89 37 59 38 99 3 112 -32 13 -28 14 -61 -14z m57 -28 c0
-34 -77 -128 -105 -128 -14 0 -2 41 28 87 23 38 38 53 55 53 12 0 22 -5 22
-12z"/>
<path d="M9470 2099 c-13 -6 -32 -17 -41 -25 -9 -8 -29 -18 -44 -23 -21 -5
-36 -23 -61 -71 -48 -93 -98 -240 -86 -252 15 -15 29 -2 42 40 7 20 23 59 36
86 13 28 24 57 24 65 0 11 3 11 13 -4 17 -22 47 -16 97 17 66 45 102 132 68
166 -14 14 -15 14 -48 1z m30 -47 c0 -28 -46 -87 -81 -104 -28 -14 -34 -14
-47 -2 -20 20 -10 37 48 83 56 44 80 51 80 23z"/>
<path d="M6882 2084 c-25 -17 -28 -50 -7 -78 21 -28 19 -63 -6 -76 -17 -10
-20 -9 -17 7 2 11 -3 18 -12 18 -10 0 -15 -10 -15 -30 0 -53 65 -42 96 18 7
12 4 31 -11 63 -11 26 -20 48 -20 49 0 2 14 8 31 14 17 6 28 15 24 21 -9 15
-37 12 -63 -6z"/>
<path d="M9653 2085 c-63 -27 -84 -127 -33 -152 31 -14 95 -3 95 17 0 11 -12
14 -47 11 -49 -3 -66 12 -28 24 11 3 20 11 20 16 0 5 6 9 14 9 20 0 46 39 46
67 0 27 -19 29 -67 8z m17 -45 c-33 -26 -48 -26 -25 0 10 11 25 20 34 20 12 0
9 -6 -9 -20z"/>
<path d="M9872 2075 c-35 -20 -44 -22 -49 -10 -9 25 -19 17 -50 -44 -40 -77
-29 -103 20 -46 19 22 54 51 77 64 l43 24 -7 -26 c-3 -14 -8 -31 -11 -39 -7
-18 12 -46 23 -33 4 6 14 34 21 64 11 45 11 55 0 62 -19 12 -18 12 -67 -16z"/>
<path d="M2422 2074 c3 -19 34 -41 43 -32 4 3 2 16 -5 27 -13 25 -43 28 -38 5z"/>
<path d="M5769 2066 c-48 -33 -52 -48 -23 -87 28 -38 18 -63 -22 -53 -18 5
-24 2 -24 -10 0 -20 42 -31 69 -17 32 17 37 55 12 90 l-21 29 26 21 c15 12 35
21 46 21 25 0 18 24 -8 28 -10 1 -35 -9 -55 -22z"/>
<path d="M6633 2064 c-37 -54 -93 -111 -128 -130 -19 -10 -35 -22 -35 -26 0
-20 25 -17 60 6 23 15 42 22 45 16 10 -16 47 -12 87 10 l37 20 -9 -25 c-13
-35 -2 -58 24 -51 11 3 24 6 29 6 14 0 7 20 -8 20 -20 0 -19 9 5 72 11 29 20
59 20 66 0 23 -25 12 -50 -23 -23 -31 -96 -82 -105 -73 -2 2 14 30 35 62 22
32 40 63 40 67 0 19 -30 8 -47 -17z"/>
<path d="M8999 2065 c-21 -16 -41 -43 -52 -73 -29 -75 -31 -82 -15 -82 8 0 25
22 37 49 26 54 65 101 84 101 7 0 18 -5 24 -11 20 -20 36 1 17 22 -23 26 -53
24 -95 -6z"/>
<path d="M11728 2078 c-8 -7 -23 -24 -32 -38 -16 -22 -17 -23 -12 -3 7 23 -10
41 -25 26 -9 -9 -19 -57 -22 -108 -3 -51 25 -41 58 21 37 69 61 92 77 76 17
-17 38 -15 38 3 0 15 -29 35 -52 35 -8 0 -21 -6 -30 -12z"/>
<path d="M13680 2063 c-60 -55 -44 -132 24 -119 71 14 105 71 71 122 -21 32
-57 31 -95 -3z m74 -19 c12 -31 5 -45 -29 -60 -58 -24 -71 -4 -29 45 28 34 49
39 58 15z"/>
<path d="M9163 2062 c-29 -23 -63 -82 -63 -109 0 -29 32 -38 86 -23 46 13 59
23 49 39 -3 6 -22 4 -47 -5 -47 -16 -58 -17 -58 -5 0 5 10 11 23 15 32 8 91
71 84 90 -8 21 -47 20 -74 -2z"/>
<path d="M10691 2067 c-41 -21 -48 -42 -27 -82 15 -28 17 -37 6 -50 -15 -18
-30 -11 -30 16 0 10 -4 19 -9 19 -16 0 -23 -20 -17 -45 14 -56 96 -33 96 27 0
17 -7 39 -16 49 -20 22 -11 39 21 39 29 0 43 19 24 31 -18 11 -19 11 -48 -4z"/>
<path d="M2702 2062 c-16 -5 -14 -52 3 -82 22 -39 19 -60 -10 -60 -14 0 -28 7
-31 15 -8 19 -34 20 -34 2 0 -37 78 -67 104 -41 20 19 20 51 1 97 -19 46 -19
45 10 39 18 -3 25 0 25 11 0 14 -45 27 -68 19z"/>
<path d="M4443 2048 c-24 -25 -53 -88 -53 -113 0 -25 38 -55 70 -55 37 0 82
20 77 34 -4 11 -12 11 -68 -1 -16 -3 -30 1 -39 13 -13 15 -13 18 4 28 48 28
87 70 84 90 -4 31 -48 33 -75 4z m32 -28 c-10 -11 -20 -18 -23 -15 -7 6 18 35
31 35 5 0 2 -9 -8 -20z"/>
<path d="M4684 2051 c-16 -9 -36 -15 -44 -14 -10 2 -27 -20 -49 -62 -28 -52
-33 -67 -22 -78 10 -10 17 -6 34 18 12 17 41 50 64 75 46 48 55 40 28 -23 -19
-47 -19 -69 1 -65 8 2 15 6 15 10 0 4 6 26 14 49 31 86 13 123 -41 90z"/>
<path d="M10506 2033 c-29 -60 -36 -94 -25 -114 16 -30 29 -22 29 16 0 20 9
53 20 75 23 46 25 60 7 60 -7 0 -21 -17 -31 -37z"/>
<path d="M11055 2054 c-44 -24 -65 -54 -65 -96 0 -27 6 -41 22 -52 26 -18 71
-21 99 -6 32 18 23 33 -16 26 -46 -9 -75 0 -75 23 0 14 10 20 38 25 46 7 75
35 70 68 -4 29 -32 33 -73 12z m45 -24 c0 -11 -50 -34 -57 -26 -3 2 8 11 24
20 34 19 33 18 33 6z"/>
<path d="M11496 2055 c-8 -8 -19 -15 -24 -15 -18 0 -52 -47 -52 -71 0 -14 11
-35 24 -48 27 -25 101 -38 122 -20 20 17 7 29 -24 23 -29 -6 -82 10 -82 24 0
5 17 18 38 30 57 31 78 58 62 77 -16 19 -44 19 -64 0z m15 -35 c-22 -19 -41
-26 -41 -15 0 5 51 34 60 34 3 0 -6 -9 -19 -19z"/>
<path d="M2527 2040 c-31 -24 -50 -80 -45 -129 5 -50 28 -53 28 -3 0 73 25
115 70 116 23 1 18 31 -6 34 -11 2 -32 -7 -47 -18z"/>
<path d="M11232 2047 c-13 -15 -52 -104 -52 -118 0 -20 25 -7 55 29 18 20 46
45 63 55 l30 17 -14 -55 c-15 -57 -13 -75 10 -75 8 0 16 18 20 48 3 26 9 59
12 74 9 40 -19 47 -70 19 -23 -12 -35 -16 -28 -10 6 7 12 17 12 21 0 13 -26 9
-38 -5z"/>
<path d="M5622 2006 c-7 -18 -21 -41 -31 -50 -17 -15 -20 -16 -34 -1 -11 11
-14 25 -10 45 4 23 2 30 -10 30 -38 0 -32 -80 8 -106 35 -23 61 -10 95 49 35
61 36 67 12 67 -11 0 -22 -12 -30 -34z"/>
<path d="M2389 1943 c-17 -64 -17 -68 5 -68 12 0 20 8 21 20 1 11 6 37 10 58
6 29 4 37 -8 37 -9 0 -20 -18 -28 -47z"/>
<path d="M5367 1878 c-16 -50 -36 -102 -44 -115 -19 -29 -53 -30 -60 -3 -3 12
-11 19 -17 17 -20 -7 -12 -39 16 -60 25 -19 28 -19 52 -3 14 9 33 31 42 48 25
47 73 196 66 202 -17 17 -30 -3 -55 -86z"/>
<path d="M3290 1875 c0 -14 -8 -32 -17 -40 -10 -7 -29 -23 -43 -34 -22 -17
-23 -20 -7 -26 19 -8 80 33 97 65 12 22 5 46 -16 54 -10 4 -14 -2 -14 -19z"/>
<path d="M11327 1463 c-4 -3 -7 -16 -7 -27 0 -12 -16 -61 -37 -109 l-36 -88
-40 3 c-50 4 -64 -19 -18 -28 17 -4 31 -8 31 -9 0 -1 -13 -32 -30 -68 -33 -73
-39 -117 -15 -117 9 0 15 9 15 23 0 12 15 55 34 94 33 67 37 72 71 75 42 4 50
21 13 28 l-26 5 33 80 c42 102 52 145 32 145 -7 0 -17 -3 -20 -7z"/>
<path d="M2884 1441 c-54 -33 -90 -89 -125 -192 -30 -88 -37 -99 -61 -105 -33
-7 -37 -24 -8 -31 24 -6 24 -2 0 -57 -12 -30 -15 -48 -9 -52 16 -9 27 6 48 66
19 52 20 54 85 78 38 14 66 30 66 38 0 19 -17 17 -69 -6 -24 -11 -46 -19 -47
-17 -8 8 59 174 82 205 32 41 72 62 107 55 31 -6 37 11 8 27 -28 14 -42 13
-77 -9z"/>
<path d="M5603 1428 c-17 -21 -135 -269 -150 -313 -16 -50 -17 -107 -1 -123
25 -25 118 -7 118 23 0 13 -5 15 -22 9 -48 -16 -73 -11 -76 17 -2 15 3 42 11
60 12 32 18 35 77 44 38 6 65 16 68 24 4 12 -6 13 -57 8 l-61 -7 19 38 c69
136 102 215 93 224 -5 5 -13 4 -19 -4z"/>
<path d="M8738 1363 c-72 -75 -123 -152 -144 -216 -12 -40 -26 -60 -62 -87
-25 -19 -57 -37 -71 -40 -29 -6 -41 -37 -17 -46 10 -4 37 9 69 34 l53 40 10
-32 c8 -27 14 -31 50 -34 33 -2 43 1 48 15 3 10 9 24 12 31 8 18 -31 15 -50
-4 -20 -19 -36 -10 -36 22 0 19 40 77 80 114 53 49 153 221 143 246 -9 25 -27
16 -85 -43z m15 -50 c-30 -52 -115 -164 -121 -158 -12 11 124 205 144 205 3 0
-8 -21 -23 -47z"/>
<path d="M11466 1408 c-3 -7 -14 -44 -25 -83 -11 -38 -48 -116 -81 -173 -33
-57 -60 -110 -60 -117 0 -29 23 -25 66 12 89 75 88 74 80 20 -5 -29 -3 -47 3
-47 23 0 45 83 30 112 -14 26 -30 22 -77 -18 -23 -19 -42 -33 -42 -29 0 3 20
41 45 83 63 107 106 252 75 252 -6 0 -12 -6 -14 -12z"/>
<path d="M11955 1408 c-2 -7 -11 -40 -20 -73 -9 -33 -32 -95 -52 -137 -27 -59
-39 -75 -49 -68 -47 39 -145 -75 -102 -118 40 -40 100 9 159 127 43 89 101
259 93 273 -8 12 -24 10 -29 -4z m-130 -328 c-16 -30 -59 -59 -71 -47 -12 11
8 47 34 62 45 24 55 19 37 -15z"/>
<path d="M2470 1399 c-30 -5 -86 -8 -125 -7 -57 2 -70 0 -70 -12 0 -21 53 -27
149 -17 43 4 80 6 83 3 3 -2 -1 -14 -7 -27 -7 -12 -34 -85 -61 -161 -26 -77
-50 -142 -52 -144 -2 -2 -46 -6 -98 -9 -75 -3 -95 -8 -97 -20 -3 -14 10 -15
105 -11 59 2 115 7 123 10 8 3 53 7 99 8 57 2 86 7 89 16 3 9 -19 12 -87 12
-50 0 -91 4 -91 8 0 19 89 263 107 294 l19 33 82 -1 c58 -1 82 3 82 11 0 24
-138 32 -250 14z"/>
<path d="M12889 1379 c-6 -12 -19 -46 -30 -76 -10 -31 -41 -98 -69 -150 -27
-53 -47 -100 -44 -105 4 -6 33 16 65 48 33 32 59 56 59 53 0 -17 -25 -76 -38
-92 -17 -20 -4 -44 20 -35 13 6 58 129 58 161 0 24 -29 21 -58 -5 l-24 -23 13
30 c7 17 17 35 21 41 4 6 17 37 28 69 11 32 25 64 31 71 11 14 5 34 -11 34 -5
0 -14 -9 -21 -21z"/>
<path d="M9330 1355 c-5 -14 -9 -29 -8 -33 3 -19 -59 -133 -75 -138 -13 -4
-17 -12 -14 -26 3 -10 -8 -50 -23 -89 -16 -38 -27 -76 -23 -84 10 -27 30 -16
36 20 3 19 18 62 33 95 l27 60 43 0 c32 0 44 4 44 15 0 11 -11 15 -36 15 -31
0 -35 3 -29 18 30 71 44 112 37 112 -4 0 -2 4 4 8 6 4 14 17 18 30 11 32 -22
29 -34 -3z"/>
<path d="M12739 1378 c0 -1 -3 -16 -5 -32 -3 -16 -18 -55 -35 -87 l-29 -59
-55 0 c-54 0 -80 -15 -54 -31 8 -4 18 -4 23 1 4 4 15 7 22 4 8 -2 21 -6 29 -9
12 -3 9 -16 -14 -69 -16 -35 -27 -67 -24 -70 16 -16 30 -1 51 54 29 75 44 90
88 90 31 0 34 3 34 30 0 34 -23 41 -39 13 -5 -10 -12 -15 -16 -11 -3 3 5 28
18 55 29 56 38 114 20 120 -7 3 -13 3 -14 1z"/>
<path d="M4957 1334 c-4 -4 -7 -23 -7 -43 0 -20 -21 -85 -45 -145 -49 -119
-53 -136 -30 -136 8 0 15 4 15 8 0 5 18 18 39 30 l40 23 3 -33 c5 -54 31 -42
33 15 3 57 -9 66 -55 42 -18 -9 -33 -15 -35 -13 -1 2 12 39 30 84 34 84 48
164 29 171 -5 2 -13 0 -17 -3z"/>
<path d="M4650 1266 c0 -10 9 -16 21 -16 24 0 21 23 -4 28 -10 2 -17 -3 -17
-12z"/>
<path d="M7142 1197 c-12 -12 -36 -54 -53 -92 l-33 -70 -6 35 c-7 42 -27 80
-40 80 -13 0 -13 -16 0 -54 5 -17 15 -50 20 -73 6 -24 16 -43 23 -43 7 0 34
46 60 101 44 96 48 101 72 95 17 -4 25 -2 25 6 0 9 3 8 10 -2 6 -9 10 -10 10
-3 0 13 -38 43 -55 43 -7 0 -21 -10 -33 -23z"/>
<path d="M13845 1193 c4 -16 9 -50 11 -78 3 -27 7 -56 10 -64 2 -8 -31 -58
-75 -112 -71 -86 -111 -146 -111 -164 0 -3 7 -5 15 -5 8 0 22 14 31 32 9 17
52 74 96 127 43 53 95 121 115 151 20 30 52 71 71 92 29 33 32 39 17 44 -19 8
-42 -17 -98 -100 l-32 -49 -6 59 c-8 72 -16 94 -36 94 -12 0 -13 -7 -8 -27z"/>
<path d="M4261 1184 c-65 -29 -68 -31 -54 -45 8 -8 20 -6 41 5 44 23 45 21 13
-31 -28 -47 -35 -64 -32 -90 2 -22 27 -14 72 22 50 40 59 42 59 17 0 -10 9
-28 20 -40 l21 -22 38 19 c29 16 40 29 50 63 7 24 20 51 28 60 15 17 10 38 -8
38 -6 0 -24 -29 -40 -65 -16 -36 -31 -65 -33 -65 -3 0 -11 -3 -19 -6 -11 -4
-19 6 -27 33 -19 58 -25 60 -75 19 -25 -21 -45 -35 -45 -32 0 2 16 32 36 65
32 53 37 82 16 80 -4 0 -32 -11 -61 -25z"/>
<path d="M4765 1195 c-66 -24 -80 -62 -48 -130 21 -44 11 -54 -28 -31 l-31 18
4 -23 c2 -15 13 -27 31 -33 56 -20 78 26 46 101 -12 29 -11 35 3 49 9 9 31 19
49 23 19 4 34 13 34 21 0 20 -15 21 -60 5z"/>
<path d="M7325 1191 c-44 -26 -65 -63 -65 -115 0 -63 26 -80 109 -70 33 3 68
12 77 19 22 15 9 38 -14 26 -21 -10 -112 -20 -129 -14 -7 3 -13 14 -13 26 0
16 13 28 51 47 53 26 71 58 49 85 -16 20 -29 19 -65 -4z m25 -41 c-33 -26 -48
-26 -25 0 10 11 25 20 34 20 12 0 9 -6 -9 -20z"/>
<path d="M10921 1171 c-35 -34 -41 -45 -41 -80 0 -56 29 -85 77 -78 19 3 41
11 49 18 23 19 1 30 -34 18 -25 -8 -36 -8 -47 1 -26 22 -18 47 18 54 76 14
117 98 51 104 -25 2 -40 -5 -73 -37z m74 -1 c-3 -6 -21 -17 -38 -26 l-32 -17
24 27 c23 25 59 37 46 16z"/>
<path d="M13024 1195 c-17 -7 -47 -30 -67 -50 -29 -30 -37 -46 -37 -76 0 -21
7 -45 16 -53 18 -18 60 -21 98 -6 44 16 30 31 -26 28 -47 -3 -53 -1 -55 17 -2
15 9 26 47 43 58 27 92 75 68 98 -11 10 -18 10 -44 -1z m6 -41 c-8 -8 -23 -20
-34 -25 -15 -7 -13 -3 7 15 31 29 47 35 27 10z"/>
<path d="M14114 1202 c-5 -4 -15 -16 -21 -27 -83 -133 -89 -158 -40 -163 56
-7 135 107 114 162 -8 19 -40 36 -53 28z m26 -52 c0 -24 -30 -79 -51 -94 -35
-24 -41 -20 -23 17 34 65 74 107 74 77z"/>
<path d="M14306 1151 c-35 -57 -90 -110 -129 -124 -24 -9 -16 -33 9 -29 10 2
31 12 45 23 24 16 28 17 39 4 18 -21 32 -19 78 15 l42 30 0 -29 c0 -40 25 -60
47 -38 15 15 15 17 0 23 -24 9 -21 23 13 77 17 26 30 52 30 57 0 21 -33 8 -68
-26 -42 -41 -96 -84 -105 -84 -15 0 -5 29 28 80 37 59 43 80 21 80 -7 0 -30
-27 -50 -59z"/>
<path d="M8920 1185 c0 -8 7 -15 15 -15 8 0 15 7 15 15 0 8 -7 15 -15 15 -8 0
-15 -7 -15 -15z"/>
<path d="M10716 1153 c-26 -27 -43 -38 -37 -26 6 12 11 26 11 32 0 15 -37 14
-46 -1 -5 -7 -10 -4 -15 10 -11 30 -25 28 -32 -5 -3 -16 -24 -57 -46 -93 -26
-43 -36 -68 -29 -75 9 -10 44 23 95 91 l23 29 -10 -28 c-10 -28 -6 -47 9 -47
4 0 35 28 69 62 59 59 61 61 52 29 -5 -18 -15 -39 -21 -47 -10 -12 -9 -18 5
-32 22 -22 29 -10 46 68 20 95 -1 104 -74 33z"/>
<path d="M13140 1128 c-65 -119 -50 -142 36 -57 l53 52 -9 -39 c-12 -52 -12
-54 4 -54 8 0 18 14 21 32 4 18 16 52 26 76 11 24 16 48 13 53 -8 13 -61 -20
-97 -61 l-30 -35 22 38 c11 21 21 45 21 53 0 31 -21 10 -60 -58z"/>
<path d="M3305 1126 c-40 -66 -55 -74 -55 -30 0 32 -18 66 -31 59 -10 -7 -2
-80 13 -108 7 -14 -1 -35 -36 -89 -25 -39 -46 -77 -46 -84 0 -27 20 -23 35 7
9 17 55 89 102 160 75 113 90 149 65 149 -4 0 -25 -29 -47 -64z"/>
<path d="M6163 1171 c-35 -16 -42 -17 -47 -5 -7 19 -23 18 -29 -3 -3 -10 -15
-45 -26 -77 -12 -33 -21 -70 -21 -83 0 -32 26 -29 35 5 11 46 54 111 83 126
15 7 44 16 65 20 23 4 37 12 34 19 -6 19 -49 18 -94 -2z"/>
<path d="M3407 1145 c-75 -94 -59 -179 24 -134 15 7 24 7 34 -1 11 -9 21 -8
45 6 16 10 30 22 30 26 0 17 18 7 23 -12 8 -31 48 -25 90 13 l36 34 3 -26 c2
-20 9 -27 31 -29 19 -2 27 1 27 12 0 9 -7 16 -15 16 -8 0 -15 2 -15 5 0 3 7
22 15 42 35 83 11 83 -72 1 -34 -34 -65 -59 -69 -55 -4 3 5 31 20 60 14 30 26
57 26 60 0 20 -29 0 -78 -53 -30 -33 -63 -65 -74 -71 -19 -10 -19 -9 -3 21 19
37 13 76 -15 103 -26 23 -31 22 -63 -18z m54 -58 c-9 -25 -58 -64 -67 -54 -10
10 4 51 27 82 21 25 23 26 35 10 8 -10 10 -25 5 -38z"/>
<path d="M9191 1171 c-34 -9 -39 -31 -8 -31 16 0 26 7 30 20 3 11 4 20 4 19
-1 -1 -13 -4 -26 -8z"/>
<path d="M10085 1166 c-11 -7 -29 -15 -39 -17 -22 -5 -72 -124 -56 -134 15 -9
28 2 46 38 9 18 30 47 47 64 24 26 36 31 55 26 21 -5 24 -3 19 11 -4 10 -7 20
-7 22 0 10 -47 3 -65 -10z"/>
<path d="M7974 1148 c-38 -27 -74 -77 -74 -104 0 -44 46 -57 102 -28 28 15 32
15 40 0 10 -17 54 -21 77 -7 20 13 3 32 -24 25 -32 -8 -38 9 -20 52 8 20 12
40 9 45 -11 18 -25 8 -40 -26 -15 -36 -65 -75 -96 -75 -28 0 -21 27 17 68 25
27 35 32 35 20 0 -24 26 -23 33 1 5 19 -8 51 -21 51 -4 0 -21 -10 -38 -22z"/>
<path d="M9833 1155 c-12 -9 -32 -29 -43 -46 -19 -26 -21 -34 -10 -60 16 -37
51 -47 103 -28 44 16 50 36 9 30 -93 -12 -103 3 -32 49 58 37 68 70 22 70 -15
0 -37 -7 -49 -15z"/>
<path d="M6292 1138 c-62 -39 -104 -152 -70 -186 7 -7 25 -12 40 -12 31 0 108
35 108 49 0 12 -39 7 -67 -7 -12 -7 -31 -12 -42 -12 -17 0 -21 6 -21 30 0 25
5 31 40 41 50 15 80 43 80 74 0 37 -30 48 -68 23z m38 -28 c0 -5 -15 -17 -32
-26 l-33 -17 24 27 c25 27 41 33 41 16z"/>
<path d="M9665 1146 c-10 -7 -26 -11 -34 -9 -12 3 -24 -12 -44 -52 -50 -102
-30 -115 40 -24 48 61 68 66 39 10 -19 -36 -21 -74 -4 -69 17 6 62 123 55 142
-8 20 -27 20 -52 2z"/>
<path d="M4574 1133 c-3 -10 -12 -35 -20 -55 -9 -26 -10 -39 -3 -44 6 -3 14
-2 18 2 15 17 41 95 36 105 -10 15 -25 10 -31 -8z"/>
<path d="M6516 1138 c-4 -18 -24 -72 -38 -108 -21 -52 2 -46 53 13 28 31 55
57 60 57 5 0 2 -17 -7 -37 -9 -21 -18 -44 -21 -50 -12 -30 35 -9 79 34 l48 47
-7 -53 c-5 -48 -4 -53 13 -49 11 2 18 11 16 21 -2 9 2 35 8 58 9 34 9 44 -3
56 -13 13 -19 11 -51 -17 l-36 -32 0 26 c0 33 -23 43 -54 23 -22 -15 -24 -15
-29 3 -6 22 -26 27 -31 8z"/>
<path d="M6829 1113 c-67 -60 -88 -143 -38 -143 49 0 159 77 159 111 0 20 -47
69 -66 69 -8 0 -33 -17 -55 -37z m81 -18 c17 -20 0 -39 -62 -71 -46 -23 -48
-24 -48 -5 0 26 57 91 80 91 10 0 23 -7 30 -15z"/>
<path d="M9425 1131 c-17 -10 -39 -30 -48 -44 -16 -25 -16 -28 4 -62 21 -35
51 -50 85 -43 31 6 28 28 -4 28 -16 0 -35 6 -41 13 -8 11 -3 19 27 38 28 18
38 32 40 57 4 38 -16 43 -63 13z m21 -36 c-11 -8 -22 -12 -25 -9 -6 6 19 24
34 24 6 -1 1 -7 -9 -15z"/>
<path d="M8987 1119 c-15 -9 -17 -19 -11 -70 6 -56 5 -59 -15 -59 -12 0 -21 6
-21 15 0 8 -4 15 -9 15 -14 0 -33 -28 -26 -39 8 -14 83 -33 96 -25 6 4 9 33 7
73 -3 62 -2 66 20 69 12 2 22 10 22 18 0 16 -37 18 -63 3z"/>
<path d="M11566 1096 c-21 -39 -18 -79 6 -84 30 -6 78 36 78 67 0 59 -55 70
-84 17z m54 -15 c0 -13 -29 -35 -37 -28 -7 8 15 37 28 37 5 0 9 -4 9 -9z"/>
<path d="M5670 1084 c-63 -72 -11 -128 66 -69 35 27 42 52 24 86 -17 30 -54
23 -90 -17z m68 -20 c-3 -18 -54 -51 -63 -42 -4 3 1 18 10 32 19 29 59 36 53
10z"/>
<path d="M8827 1045 c-28 -52 -32 -67 -21 -76 10 -8 19 2 43 50 17 33 31 67
31 76 0 31 -20 13 -53 -50z"/>
<path d="M12063 993 c-9 -26 -64 -83 -81 -83 -17 0 -12 -32 6 -38 18 -6 102
83 102 108 0 26 -19 35 -27 13z"/>
<path d="M13463 948 c-4 -7 -10 -71 -14 -143 -6 -144 -18 -179 -60 -194 -26
-9 -29 -8 -29 10 0 32 21 57 43 51 14 -4 18 0 15 14 -5 31 -43 29 -66 -4 -32
-45 -36 -75 -13 -96 40 -36 110 7 130 80 6 22 11 85 11 141 0 81 3 104 15 111
10 5 13 15 9 25 -7 20 -29 22 -41 5z"/>
<path d="M10215 854 c-16 -53 -34 -98 -40 -100 -5 -2 -28 -5 -49 -7 -58 -4
-59 -27 -1 -27 42 0 45 -1 35 -20 -14 -26 -31 -120 -24 -132 11 -17 34 14 35
46 0 17 6 47 13 66 11 29 18 35 38 32 23 -2 63 26 42 30 -5 0 -13 2 -19 3 -5
2 -15 3 -21 4 -7 1 0 34 18 87 31 97 34 114 15 114 -7 0 -25 -40 -42 -96z"/>
<path d="M12862 924 c-5 -9 -7 -25 -4 -36 2 -10 -8 -52 -23 -93 l-27 -75 -50
0 c-59 0 -63 -23 -5 -28 20 -2 37 -5 37 -8 0 -16 -24 -101 -32 -110 -5 -7 -2
-16 7 -24 16 -14 22 -4 47 85 l14 50 48 3 c56 4 59 25 3 30 l-36 3 19 50 c38
95 46 169 19 169 -4 0 -12 -7 -17 -16z"/>
<path d="M4802 913 c-5 -10 -22 -64 -38 -121 l-28 -102 -39 -11 c-43 -11 -46
-36 -3 -31 14 1 26 1 26 -1 0 -2 -13 -42 -29 -90 -19 -55 -26 -89 -19 -93 15
-10 23 5 53 96 15 47 32 91 38 98 13 17 87 16 87 -1 0 -8 -7 -36 -15 -63 -8
-27 -15 -52 -15 -56 0 -19 26 -4 67 40 43 45 44 46 37 17 -12 -50 -10 -69 7
-73 12 -2 18 8 23 44 15 111 4 126 -50 73 l-32 -31 8 39 c9 49 67 212 85 239
14 22 11 34 -10 34 -14 0 -43 -64 -71 -152 -18 -59 -29 -68 -88 -68 -19 0 -27
4 -23 13 3 8 15 50 27 95 12 45 28 86 36 93 8 6 11 15 8 20 -9 15 -33 10 -42
-8z"/>
<path d="M13005 884 c-3 -20 -27 -90 -51 -156 -53 -141 -49 -158 22 -104 26
20 50 36 54 36 3 0 6 -19 6 -42 -1 -54 16 -61 27 -11 16 76 -16 106 -71 67
-13 -9 -25 -14 -26 -13 -2 2 12 45 30 94 43 113 53 165 31 165 -9 0 -17 -13
-22 -36z"/>
<path d="M9624 893 c-3 -10 -24 -58 -46 -108 -99 -219 -105 -242 -66 -269 12
-9 42 -16 65 -16 34 0 43 4 43 18 0 13 2 14 9 3 6 -9 11 -10 15 -2 13 20 -3
31 -30 21 -36 -14 -70 -12 -84 5 -14 17 6 85 55 185 57 114 76 160 70 170 -10
16 -25 12 -31 -7z"/>
<path d="M7261 823 c-29 -96 -77 -205 -96 -215 -19 -11 -28 -60 -16 -91 13
-32 51 -44 91 -27 39 16 100 84 101 113 4 70 -12 91 -63 84 -35 -5 -37 -4 -27
15 15 28 48 130 49 149 0 9 7 20 16 23 19 7 9 26 -15 26 -13 0 -23 -19 -40
-77z m47 -199 c4 -38 -32 -85 -79 -104 -28 -12 -33 -12 -45 5 -18 24 -18 35 1
35 8 0 15 7 15 16 0 24 66 86 87 82 12 -2 19 -14 21 -34z"/>
<path d="M11595 891 c-3 -5 5 -18 18 -28 42 -34 67 -75 67 -111 0 -49 -36
-118 -87 -170 -24 -23 -43 -47 -43 -52 0 -42 102 56 139 133 25 52 27 123 4
157 -43 65 -83 94 -98 71z"/>
<path d="M11354 854 c-53 -59 -105 -167 -111 -233 -5 -54 -4 -59 22 -79 41
-32 145 -30 145 4 0 10 -12 12 -48 7 -104 -12 -119 38 -52 176 28 58 44 81 54
78 17 -7 46 33 46 63 0 30 -18 25 -56 -16z"/>
<path d="M9854 789 c-7 -12 15 -41 27 -33 14 8 11 31 -6 37 -8 4 -17 2 -21 -4z"/>
<path d="M7583 783 c-7 -2 -13 -11 -13 -20 0 -20 34 -12 38 10 3 17 -3 20 -25
10z"/>
<path d="M10970 740 c-14 -11 -30 -20 -37 -20 -18 0 -31 -30 -39 -88 -5 -42
-4 -52 8 -52 9 0 20 17 27 40 12 40 64 110 82 110 5 0 9 -9 9 -21 0 -12 5 -19
13 -16 6 2 12 17 12 33 0 24 -5 29 -25 32 -14 1 -36 -7 -50 -18z"/>
<path d="M12517 725 c-41 -31 -47 -41 -47 -73 0 -53 23 -83 63 -81 50 2 67 9
67 27 0 15 -2 15 -10 2 -6 -10 -10 -11 -10 -3 0 9 -7 10 -25 3 -30 -11 -58 11
-53 44 2 17 12 22 53 28 56 8 78 29 66 61 -13 35 -51 32 -104 -8z m73 -4 c0
-9 -24 -21 -43 -21 -6 0 -2 7 9 15 22 17 34 19 34 6z"/>
<path d="M12300 714 c-42 -34 -44 -34 -52 -15 -8 22 -32 28 -43 11 -4 -6 -15
-8 -26 -5 -13 4 -21 1 -25 -12 -3 -10 -15 -35 -26 -56 -16 -31 -18 -41 -8 -50
10 -9 14 -9 18 2 2 8 19 30 37 50 32 34 33 35 28 9 -8 -42 12 -41 69 4 29 22
59 46 66 51 11 8 12 1 7 -39 -6 -39 -4 -53 9 -63 9 -7 16 -12 17 -10 8 39 6
135 -2 145 -15 19 -18 18 -69 -22z"/>
<path d="M2467 710 c-34 -27 -67 -82 -67 -112 0 -13 9 -34 20 -46 35 -37 100
-42 100 -7 0 11 -6 14 -25 9 -30 -7 -65 18 -65 48 0 10 17 36 37 59 34 37 38
39 49 24 8 -10 20 -15 29 -11 14 5 14 8 -1 31 -20 30 -43 32 -77 5z"/>
<path d="M9294 720 c-64 -26 -97 -126 -55 -164 46 -42 195 6 167 53 -4 6 -21
0 -43 -14 -35 -25 -67 -31 -97 -19 -24 9 -19 21 12 27 15 3 40 16 56 28 70 55
41 122 -40 89z m46 -34 c0 -15 -58 -56 -79 -56 -19 0 6 38 37 54 34 19 42 19
42 2z"/>
<path d="M3828 704 c-36 -19 -35 -35 3 -78 29 -34 30 -36 14 -65 -17 -33 -32
-40 -41 -18 -7 20 -34 16 -34 -5 0 -21 41 -44 64 -35 21 8 56 67 56 94 0 13
-11 30 -25 39 -41 27 -27 54 26 54 10 0 19 7 19 15 0 20 -46 19 -82 -1z"/>
<path d="M7035 713 c-11 -2 -35 -26 -53 -52 -41 -60 -42 -113 -2 -142 33 -24
72 -15 116 26 28 27 34 40 34 73 0 54 -7 70 -41 87 -15 8 -29 14 -31 14 -2 -1
-12 -4 -23 -6z m53 -45 c39 -39 -16 -133 -74 -126 -25 2 -29 8 -32 36 -3 26 3
39 31 67 37 37 55 43 75 23z"/>
<path d="M8191 702 c-30 -15 -38 -27 -59 -90 -23 -70 -24 -102 -3 -102 6 0 15
19 22 43 18 70 37 105 64 123 20 13 29 14 38 5 16 -16 37 -14 37 4 0 15 -30
35 -52 35 -7 -1 -28 -9 -47 -18z"/>
<path d="M10315 702 c-16 -10 -36 -26 -43 -34 -42 -51 -27 -131 26 -143 36 -7
112 13 119 32 9 22 0 23 -47 7 -52 -18 -90 -7 -90 26 0 15 7 20 25 20 36 0 77
43 73 78 -4 33 -24 38 -63 14z m29 -36 c-6 -16 -34 -30 -42 -21 -6 5 28 34 40
35 4 0 5 -6 2 -14z"/>
<path d="M10742 708 c-13 -6 -36 -31 -52 -55 -29 -42 -29 -45 -15 -73 8 -16
24 -34 34 -40 30 -15 91 -13 97 5 4 8 10 12 15 9 5 -3 9 2 9 11 0 9 5 13 10
10 6 -3 10 -1 10 4 0 16 -36 13 -50 -4 -16 -19 -64 -19 -80 0 -13 15 -6 35 12
35 6 0 26 12 45 26 60 46 31 104 -35 72z m15 -50 c-15 -11 -25 -24 -21 -29 3
-5 0 -9 -5 -9 -6 0 -11 6 -11 14 0 17 50 59 59 50 3 -3 -6 -15 -22 -26z"/>
<path d="M2853 640 c-18 -38 -33 -71 -33 -74 0 -19 33 1 78 45 29 28 55 49 58
46 4 -3 0 -28 -6 -55 -14 -52 -8 -86 13 -79 6 2 13 17 14 33 1 16 5 49 8 74 6
36 4 49 -9 59 -15 12 -21 11 -47 -8 l-30 -22 7 25 c13 53 -21 25 -53 -44z"/>
<path d="M3558 667 c-33 -53 -87 -104 -113 -109 -11 -2 -21 -11 -23 -21 -5
-24 29 -22 61 3 30 24 37 25 37 6 0 -7 7 -19 15 -26 12 -10 23 -7 62 19 l48
31 3 -31 c4 -33 27 -48 45 -30 9 9 8 14 -3 21 -12 7 -12 16 3 63 18 58 22 97
9 97 -5 0 -22 -20 -39 -44 -32 -46 -100 -103 -109 -93 -4 3 8 36 25 73 17 36
31 70 31 75 0 23 -28 5 -52 -34z"/>
<path d="M4014 674 c-45 -47 -47 -106 -7 -154 29 -35 51 -36 128 -7 43 16 50
33 23 51 -14 8 -22 6 -38 -12 -32 -34 -70 -39 -92 -12 -26 32 -23 57 10 65 37
9 82 54 82 82 0 20 -5 23 -36 23 -29 0 -44 -8 -70 -36z m66 -9 c0 -2 -15 -12
-32 -21 l-33 -17 19 22 c17 19 46 29 46 16z"/>
<path d="M5065 677 c-44 -44 -62 -109 -40 -143 8 -13 23 -24 33 -24 10 0 23
-5 29 -11 15 -15 77 -3 98 18 25 24 4 36 -36 20 -29 -12 -39 -12 -66 -1 -49
21 -43 47 12 63 51 15 75 42 75 83 0 25 -3 28 -36 28 -27 0 -44 -8 -69 -33z
m73 -9 c-6 -16 -67 -52 -75 -45 -8 9 44 57 62 57 9 0 15 -6 13 -12z"/>
<path d="M8610 674 c-29 -26 -40 -32 -40 -20 0 36 -27 13 -42 -36 -22 -72 -8
-82 41 -27 l40 44 -9 -33 c-13 -49 12 -53 58 -10 67 62 72 64 60 24 -11 -34
-6 -66 10 -66 11 0 36 116 27 129 -11 19 -33 12 -70 -20 l-35 -31 15 35 c14
33 12 47 -7 47 -4 0 -26 -16 -48 -36z"/>
<path d="M13172 694 c-12 -8 -29 -29 -37 -45 -40 -76 61 -123 125 -59 32 32
26 75 -14 99 -40 25 -45 25 -74 5z m72 -47 c9 -15 7 -22 -13 -38 -47 -39 -95
-2 -55 42 21 23 52 21 68 -4z"/>
<path d="M2713 687 c-32 -17 -74 -78 -71 -101 5 -33 33 -42 72 -24 l35 17 3
-27 c5 -40 34 -36 30 5 -2 17 4 48 12 68 19 46 19 45 1 45 -9 0 -26 6 -38 14
-18 12 -26 12 -44 3z m36 -40 c12 -15 -4 -34 -46 -56 -42 -22 -45 -7 -7 38 29
35 37 37 53 18z"/>
<path d="M8358 680 c-40 -31 -71 -101 -59 -133 5 -14 20 -28 31 -32 28 -9 110
14 117 32 9 22 -1 24 -47 8 -53 -19 -70 -14 -70 18 0 20 7 26 32 31 52 10 80
33 76 64 -4 35 -44 41 -80 12z m52 -18 c0 -5 -12 -14 -27 -21 -28 -13 -28 -13
-9 8 20 22 36 27 36 13z"/>
<path d="M9084 689 c-14 -23 -32 -144 -23 -153 14 -15 22 0 34 67 8 43 16 61
25 59 56 -13 70 -14 70 -3 0 13 -59 41 -84 41 -8 0 -18 -5 -22 -11z"/>
<path d="M9951 683 c-49 -24 -60 -56 -33 -93 33 -45 29 -54 -23 -47 -36 5 -45
4 -45 -8 0 -31 105 -33 124 -3 8 13 4 25 -17 54 -25 35 -25 39 -10 56 9 10 26
18 38 18 29 0 37 10 24 27 -14 16 -17 16 -58 -4z"/>
<path d="M10536 679 c-15 -12 -25 -15 -24 -9 2 7 -3 15 -10 17 -12 5 -44 -55
-57 -109 -10 -40 14 -36 43 6 26 39 70 81 76 75 3 -3 -2 -29 -11 -58 -14 -48
-14 -55 1 -69 17 -18 20 -13 30 48 20 117 20 120 -1 120 -11 0 -32 -9 -47 -21z"/>
<path d="M8846 655 c-25 -23 -56 -81 -56 -104 0 -18 31 -41 56 -41 38 0 84 28
95 57 17 46 -18 113 -59 113 -5 0 -21 -11 -36 -25z m67 -46 c7 -26 -33 -69
-63 -69 -29 0 -26 41 6 80 28 33 47 29 57 -11z"/>
<path d="M9770 638 c-25 -56 -27 -101 -3 -96 12 2 18 14 19 35 1 17 8 45 17
61 8 17 12 33 9 36 -13 13 -24 4 -42 -36z"/>
<path d="M7536 658 c-23 -79 -46 -171 -52 -203 -9 -51 -20 -72 -45 -85 -31
-17 -59 -3 -59 29 0 18 -5 28 -15 28 -25 0 -19 -63 7 -81 33 -23 64 -20 98 12
25 22 34 42 50 112 10 47 23 98 29 113 14 36 14 87 1 87 -6 0 -12 -6 -14 -12z"/>
<path d="M8990 604 c0 -68 13 -94 45 -94 30 0 32 15 5 30 -16 9 -20 21 -20 65
0 42 -3 55 -15 55 -12 0 -15 -13 -15 -56z"/>
<path d="M7847 574 c-13 -13 -7 -24 14 -24 11 0 19 5 17 12 -5 14 -22 21 -31
12z"/>
<path d="M13555 531 c-3 -5 -1 -12 5 -16 12 -7 30 2 30 16 0 12 -27 12 -35 0z"/>
</g>
</svg>
