<?xml version="1.0" standalone="no"?>
<!DOCTYPE svg PUBLIC "-//W3C//DTD SVG 20010904//EN"
 "http://www.w3.org/TR/2001/REC-SVG-20010904/DTD/svg10.dtd">
<svg version="1.0" xmlns="http://www.w3.org/2000/svg"
 width="1616.000000pt" height="968.000000pt" viewBox="0 0 1616.000000 968.000000"
 preserveAspectRatio="xMidYMid meet">

<g transform="translate(0.000000,968.000000) scale(0.100000,-0.100000)"
fill="#000000" stroke="none">
<path d="M2523 9250 c-41 -24 -70 -67 -56 -81 7 -7 18 -1 33 18 22 29 56 52
76 53 14 0 -15 -127 -46 -208 -40 -103 -18 -143 45 -83 l30 30 1 -60 c0 -47 5
-64 22 -81 19 -20 24 -21 48 -8 67 36 161 199 188 325 8 39 18 80 22 93 5 16
2 22 -9 22 -22 0 -25 -7 -42 -96 -8 -43 -30 -110 -49 -149 -34 -72 -108 -165
-131 -165 -18 0 -26 52 -19 116 8 65 0 68 -56 18 -22 -20 -40 -34 -40 -32 0 3
12 38 26 79 20 58 54 200 54 225 0 12 -70 1 -97 -16z"/>
<path d="M6232 9250 c-86 -12 -132 -28 -132 -47 0 -10 6 -13 18 -8 61 23 278
37 333 20 40 -12 89 -66 89 -97 0 -30 -25 -46 -131 -88 -56 -23 -66 -21 -51 7
5 10 12 35 16 56 6 33 5 37 -14 37 -16 0 -20 -6 -20 -30 0 -16 -7 -47 -16 -69
-14 -36 -20 -41 -60 -47 -46 -7 -74 -27 -54 -39 6 -4 27 -4 45 -1 l34 7 -24
-58 c-13 -32 -20 -62 -15 -67 12 -12 27 0 34 27 3 13 12 40 21 61 l16 37 50
-28 c63 -34 83 -70 74 -128 -4 -28 -2 -46 5 -50 16 -10 20 -3 26 52 8 66 -13
106 -77 146 l-50 31 78 31 c145 59 149 63 144 124 -3 33 -50 92 -86 107 -41
17 -176 24 -253 14z"/>
<path d="M5487 9224 c-14 -15 -7 -36 9 -30 13 5 14 3 6 -6 -6 -7 -17 -31 -25
-53 -8 -22 -40 -93 -70 -158 -51 -109 -60 -147 -36 -147 5 0 32 24 60 53 43
44 52 50 60 35 6 -10 5 -26 -1 -43 -14 -36 -13 -45 5 -45 22 0 41 74 27 105
-15 32 -42 32 -81 -1 l-31 -25 16 38 c9 21 32 69 51 108 25 49 36 84 37 119 1
45 -10 66 -27 50z"/>
<path d="M7197 9223 c-3 -5 -10 -34 -16 -65 -5 -31 -17 -82 -26 -113 -16 -55
-17 -56 -52 -53 -48 4 -56 -19 -10 -27 l34 -7 -19 -61 c-19 -63 -21 -114 -3
-110 6 1 11 10 13 20 2 10 12 48 23 86 17 57 23 67 42 67 38 0 67 12 67 27 0
12 -8 13 -42 8 -37 -7 -40 -6 -34 11 4 11 15 48 23 84 9 36 20 75 26 87 15 33
-9 74 -26 46z"/>
<path d="M10060 9199 c0 -68 -83 -267 -133 -321 -30 -32 -36 -33 -63 -14 -17
13 -19 29 -22 135 -2 67 -8 121 -12 121 -5 0 -39 -58 -75 -130 -37 -71 -71
-130 -76 -130 -5 0 -9 -7 -9 -15 0 -23 26 -18 47 8 10 13 34 57 53 97 l35 73
6 -78 c5 -69 8 -80 33 -101 35 -31 57 -30 96 2 31 26 110 179 124 239 4 17 14
45 23 62 17 37 11 83 -12 83 -10 0 -15 -10 -15 -31z"/>
<path d="M10821 9131 c-28 -32 -51 -64 -51 -70 0 -26 33 -7 66 39 20 28 40 50
45 50 5 0 9 9 9 20 0 32 -15 24 -69 -39z"/>
<path d="M3361 9156 c-6 -7 -16 -39 -22 -69 -5 -31 -19 -82 -30 -114 -15 -44
-16 -58 -7 -65 9 -5 8 -8 -5 -8 -10 0 -17 -6 -16 -12 1 -7 -3 -25 -8 -39 -19
-44 -19 -73 -2 -77 12 -2 18 7 22 34 9 52 72 94 143 94 l35 0 -7 -66 c-6 -55
-5 -66 7 -62 20 7 36 123 19 143 -7 8 -20 15 -29 15 -9 0 -23 5 -31 10 -12 8
-7 17 30 50 25 22 58 47 74 56 20 11 25 19 17 27 -18 18 -54 -6 -146 -94 -47
-45 -85 -80 -85 -77 0 3 9 30 20 62 10 31 24 80 29 109 6 28 13 62 17 75 7 24
-7 30 -25 8z"/>
<path d="M10385 9157 c-4 -9 -2 -24 5 -32 41 -49 -71 -295 -135 -295 -26 0
-14 33 15 40 34 8 32 34 -2 38 -22 3 -32 -3 -48 -30 -24 -40 -24 -42 -4 -62
43 -44 113 7 171 124 52 106 58 163 23 210 -17 22 -19 23 -25 7z"/>
<path d="M13074 9134 c-11 -16 -26 -41 -33 -56 -12 -23 -16 -25 -28 -12 -22
22 -42 17 -79 -20 -41 -41 -47 -97 -14 -139 l20 -26 -31 -61 c-28 -56 -33 -90
-11 -90 4 0 14 16 21 36 28 76 50 104 86 104 71 0 111 86 66 141 -19 23 -19
24 0 61 12 24 24 35 33 32 22 -9 26 10 7 35 l-18 23 -19 -28z m-75 -130 c2 -2
-7 -24 -20 -49 -21 -40 -25 -43 -36 -28 -16 21 -17 65 -1 81 10 10 44 8 57 -4z
m61 -47 c0 -26 -28 -57 -52 -57 -23 0 -23 1 5 54 16 33 25 41 35 34 6 -6 12
-20 12 -31z"/>
<path d="M5294 9115 c-7 -19 -14 -38 -14 -42 0 -4 -5 -25 -11 -45 -7 -27 -15
-38 -29 -38 -23 0 -27 -27 -5 -32 11 -2 8 -17 -15 -72 -16 -38 -28 -72 -25
-74 14 -14 37 16 62 82 23 61 33 76 53 81 87 21 99 26 94 39 -4 11 -13 12 -37
5 -59 -17 -69 -13 -62 24 4 17 13 45 21 61 17 36 17 33 -2 40 -11 4 -19 -4
-30 -29z"/>
<path d="M14627 9075 c-23 -29 -31 -33 -47 -25 -28 15 -63 13 -57 -4 3 -7 -3
-26 -14 -42 -21 -31 -26 -103 -8 -121 7 -7 3 -24 -12 -56 -36 -73 -6 -79 31
-7 14 27 28 40 50 45 56 12 92 84 72 139 -11 28 -9 33 18 61 29 30 31 45 6 45
-6 0 -24 -16 -39 -35z m-47 -60 c0 -3 -12 -29 -27 -58 -24 -46 -28 -49 -31
-27 -5 29 25 90 45 90 7 0 13 -2 13 -5z m40 -41 c0 -23 -32 -74 -47 -74 -9 0
-6 13 9 45 22 46 38 58 38 29z"/>
<path d="M14988 9079 c-62 -32 -79 -61 -60 -104 7 -16 7 -26 0 -33 -6 -6 -11
-29 -12 -52 -1 -49 20 -70 71 -70 35 0 97 46 108 79 8 27 -11 68 -34 76 -20 6
-20 8 -6 35 18 35 19 74 3 88 -9 7 -30 2 -70 -19z m43 -47 c-14 -33 -69 -59
-77 -37 -3 8 -3 19 1 25 7 12 78 50 84 44 2 -2 -2 -16 -8 -32z m27 -109 c5
-33 -41 -75 -76 -71 -23 2 -28 8 -30 36 -4 45 9 58 60 57 37 0 43 -3 46 -22z"/>
<path d="M14245 9080 c-22 -10 -40 -24 -40 -29 0 -15 12 -14 68 5 26 9 54 13
63 10 13 -5 13 -9 0 -33 -26 -47 -59 -80 -103 -102 -29 -14 -43 -28 -43 -41 0
-28 32 -25 69 6 23 19 31 22 31 10 0 -47 46 -92 82 -80 16 5 18 8 7 15 -12 7
-11 9 1 10 8 1 2 4 -15 8 -24 5 -31 14 -41 46 -10 38 -9 43 23 89 35 51 40 75
21 94 -17 17 -77 13 -123 -8z"/>
<path d="M14800 9079 c0 -6 -20 -68 -45 -137 -29 -80 -42 -129 -36 -135 12
-12 31 0 31 19 0 8 18 62 39 122 49 134 50 135 29 140 -10 2 -18 -2 -18 -9z"/>
<path d="M13233 9067 c-34 -7 -53 -16 -53 -25 0 -11 10 -13 41 -10 l41 4 -36
-31 c-37 -30 -48 -65 -21 -65 8 0 25 -5 39 -11 24 -11 24 -13 10 -40 -22 -44
-56 -61 -99 -53 -33 6 -37 4 -33 -12 2 -14 13 -20 45 -22 36 -3 47 2 81 33 22
19 43 48 47 63 5 22 1 31 -25 53 l-31 27 50 42 c28 24 51 47 51 52 0 10 -38 8
-107 -5z"/>
<path d="M13577 9068 c-33 -12 -30 -34 4 -30 13 2 44 6 69 9 l45 5 -27 -22
c-37 -28 -35 -46 4 -59 43 -15 68 -40 68 -66 0 -43 -73 -48 -119 -9 -30 25
-51 25 -51 -1 0 -19 55 -62 90 -70 33 -7 92 22 110 55 14 27 -7 79 -42 100
l-29 17 35 21 c41 24 46 47 14 56 -35 9 -140 6 -171 -6z"/>
<path d="M13859 9043 c-1 -5 -1 -17 0 -28 0 -11 -7 -57 -18 -103 -10 -49 -14
-85 -9 -88 17 -11 27 11 43 91 19 102 19 135 0 135 -8 0 -15 -3 -16 -7z"/>
<path d="M3677 9034 c-4 -4 -4 -11 -1 -15 8 -14 31 -10 38 6 5 15 -24 22 -37
9z"/>
<path d="M8660 9025 c0 -8 9 -15 20 -15 11 0 20 7 20 15 0 8 -9 15 -20 15 -11
0 -20 -7 -20 -15z"/>
<path d="M7580 9007 c-67 -17 -76 -38 -27 -63 17 -9 47 -28 66 -42 34 -25 34
-25 11 -34 -15 -6 -30 -4 -45 6 -12 8 -27 11 -34 6 -19 -11 22 -50 54 -50 32
0 72 19 79 37 6 15 -31 54 -76 81 -37 22 -35 34 4 30 24 -2 34 1 36 13 4 21
-24 28 -68 16z"/>
<path d="M5085 9000 c-4 -6 -3 -16 3 -22 6 -6 12 -6 17 2 4 6 3 16 -3 22 -6 6
-12 6 -17 -2z"/>
<path d="M7306 8987 c-48 -48 -46 -116 4 -142 23 -12 44 -14 92 -8 34 5 63 14
66 21 5 16 -60 16 -76 0 -9 -9 -12 -9 -12 1 0 7 -6 11 -12 8 -7 -2 -24 0 -38
5 -24 9 -24 9 17 28 30 13 44 27 49 46 15 58 -46 85 -90 41z m64 -22 c0 -17
-44 -49 -60 -43 -15 5 27 58 46 58 8 0 14 -7 14 -15z"/>
<path d="M4723 8977 c-18 -12 -33 -30 -33 -40 0 -16 5 -15 45 9 25 14 49 24
52 20 3 -3 -10 -30 -30 -61 -21 -30 -37 -59 -37 -65 0 -5 -4 -10 -10 -10 -5 0
-10 -11 -10 -25 0 -34 14 -32 65 11 45 37 65 38 65 3 0 -15 6 -20 22 -17 22 3
43 33 50 72 5 31 -21 30 -33 -1 -9 -25 -12 -26 -20 -10 -11 18 -54 23 -64 7
-3 -5 -10 -10 -15 -10 -5 0 4 20 20 44 17 24 30 56 30 70 0 23 -4 26 -32 25
-18 0 -48 -10 -65 -22z"/>
<path d="M8476 8987 c-15 -11 -17 -22 -12 -53 13 -80 13 -79 -19 -80 -57 -1
-60 -3 -39 -19 25 -19 78 -19 94 0 12 14 11 32 -6 97 -5 24 -2 29 20 38 15 5
24 14 21 20 -9 14 -38 12 -59 -3z"/>
<path d="M8165 8916 c-26 -35 -55 -66 -66 -69 -13 -3 -17 -11 -13 -21 8 -22
27 -20 49 4 13 14 22 17 29 10 20 -20 50 -9 92 35 l43 45 -6 -33 c-12 -56 -9
-72 11 -72 16 0 19 9 20 69 1 47 -3 71 -11 73 -7 3 -37 -19 -68 -48 -59 -55
-73 -48 -30 15 28 42 31 56 11 56 -7 0 -35 -29 -61 -64z"/>
<path d="M10480 8932 c-52 -51 -65 -93 -38 -120 15 -15 92 -16 119 -1 33 17
11 28 -44 22 l-52 -5 51 35 c59 41 67 55 51 87 -19 38 -35 35 -87 -18z m60 -1
c0 -12 -49 -51 -63 -51 -6 0 2 14 18 30 29 30 45 38 45 21z"/>
<path d="M10781 8962 c-51 -25 -59 -44 -33 -77 29 -37 28 -52 -8 -70 -37 -19
-40 -19 -40 5 0 11 -7 20 -15 20 -20 0 -20 -44 0 -60 20 -16 56 -6 94 26 38
31 38 44 5 83 l-25 30 37 18 c34 17 46 34 27 40 -4 2 -23 -5 -42 -15z"/>
<path d="M2895 8933 c-28 -31 -40 -65 -31 -88 9 -24 63 -18 91 10 37 36 32 70
-12 94 -19 10 -26 7 -48 -16z m52 -29 c7 -18 -20 -44 -44 -44 -11 0 -10 6 2
30 17 33 32 38 42 14z"/>
<path d="M4026 8931 c-9 -16 -25 -33 -37 -36 -31 -10 -34 1 -3 17 29 14 34 31
10 36 -26 5 -76 -37 -76 -63 0 -42 64 -40 114 3 18 16 19 16 13 -1 -4 -10 -14
-46 -22 -80 -28 -110 -32 -116 -71 -110 -52 9 -74 -16 -74 -84 0 -59 13 -93
34 -93 21 0 60 51 75 98 14 41 16 42 48 36 25 -5 33 -3 33 9 0 8 -11 17 -24
21 l-23 6 29 102 c23 76 28 109 21 132 -11 40 -29 43 -47 7z m-62 -270 c8 -12
-31 -101 -44 -101 -11 0 -14 92 -3 103 9 10 41 8 47 -2z"/>
<path d="M8762 8937 c-23 -12 -53 -39 -67 -59 -51 -75 -20 -78 44 -5 22 27 41
46 41 42 0 -3 9 -1 21 5 29 16 31 9 14 -40 -19 -53 -19 -60 -1 -60 14 0 46 77
46 111 0 16 -19 29 -43 29 -7 0 -31 -10 -55 -23z"/>
<path d="M8983 8940 c-39 -23 -56 -54 -48 -82 6 -17 13 -19 42 -15 29 5 33 3
29 -11 -2 -9 -13 -43 -22 -75 l-18 -59 -37 6 c-47 8 -66 0 -83 -33 -22 -42
-30 -143 -13 -165 13 -17 15 -17 45 -2 32 17 87 91 98 134 5 18 11 21 28 16
35 -11 40 -10 44 9 2 12 -3 17 -18 17 -11 0 -23 6 -25 13 -3 6 11 64 29 127
25 83 32 118 24 127 -15 18 -38 16 -75 -7z m42 -32 c-6 -14 -54 -43 -61 -36
-5 6 10 24 35 41 28 18 34 17 26 -5z m-88 -234 l22 -6 -20 -42 c-22 -42 -67
-96 -80 -96 -12 0 2 103 17 128 15 23 25 26 61 16z"/>
<path d="M3745 8899 c-46 -42 -61 -89 -30 -89 8 0 15 6 15 14 0 18 36 63 61
77 19 10 20 8 13 -39 -4 -34 -2 -52 6 -57 17 -10 20 -4 27 53 6 54 -6 82 -33
82 -8 0 -35 -19 -59 -41z"/>
<path d="M8607 8904 c-12 -24 -23 -34 -32 -30 -8 3 -17 1 -20 -4 -7 -11 12
-50 24 -50 9 0 81 102 81 114 0 3 -8 6 -18 6 -11 0 -25 -14 -35 -36z"/>
<path d="M10072 8906 c-41 -47 -48 -73 -26 -97 24 -26 49 -24 73 7 25 31 27
64 6 64 -8 0 -15 -6 -15 -13 0 -24 -28 -53 -39 -42 -16 16 29 75 57 75 17 0
23 5 20 18 -6 31 -43 26 -76 -12z"/>
<path d="M3091 8895 c-32 -37 -42 -85 -17 -85 8 0 17 13 21 29 8 37 32 58 70
63 42 4 38 22 -6 26 -31 3 -41 -2 -68 -33z"/>
<path d="M6652 8923 c-16 -6 -42 -56 -42 -82 0 -40 62 -54 101 -22 23 18 23
18 5 65 -17 45 -30 53 -64 39z m33 -53 c7 -23 -1 -40 -20 -40 -21 0 -27 17
-15 40 14 25 27 26 35 0z"/>
<path d="M6837 8892 c-14 -22 -41 -51 -59 -65 -24 -19 -30 -29 -22 -37 8 -8
20 -4 42 15 18 15 37 23 43 20 6 -4 25 3 42 15 21 16 29 18 24 8 -8 -23 21
-60 46 -56 28 4 33 24 6 31 -19 5 -20 10 -14 56 4 28 3 51 -1 51 -5 0 -26 -17
-47 -37 -36 -36 -38 -36 -26 -10 9 20 9 31 2 38 -8 8 -18 0 -36 -29z"/>
<path d="M3632 8898 c1 -13 -3 -38 -7 -55 -5 -21 -4 -33 3 -33 17 0 31 25 38
68 6 38 4 42 -14 42 -14 0 -20 -6 -20 -22z"/>
<path d="M5019 8878 c-11 -24 -25 -51 -31 -60 -15 -21 -7 -31 17 -22 17 7 55
82 55 110 0 28 -22 13 -41 -28z"/>
<path d="M13937 8835 c-7 -16 8 -29 23 -20 15 9 12 35 -4 35 -8 0 -16 -7 -19
-15z"/>
<path d="M13347 8823 c-10 -9 -8 -43 2 -43 5 0 14 7 21 15 17 21 -4 48 -23 28z"/>
<path d="M2797 8714 c-3 -3 -4 -11 -1 -18 2 -6 -7 -44 -20 -84 -14 -39 -22
-72 -19 -72 3 0 1 -6 -5 -12 -15 -20 -63 -178 -56 -189 3 -5 28 11 56 36 88
79 105 79 73 2 -18 -45 -19 -67 -2 -67 15 0 51 98 46 125 -8 39 -35 41 -83 8
l-44 -31 19 56 c11 31 17 63 14 71 -3 9 -3 12 1 8 9 -9 66 152 58 165 -6 9
-28 11 -37 2z"/>
<path d="M5527 8683 c-4 -3 -7 -14 -7 -23 0 -9 -27 -83 -60 -164 -33 -82 -57
-153 -54 -157 9 -15 24 -10 31 9 3 9 33 84 65 166 32 83 56 156 54 163 -6 14
-19 17 -29 6z"/>
<path d="M3299 8628 c0 -13 -8 -43 -17 -68 -14 -38 -22 -45 -47 -48 -39 -4
-54 -19 -30 -28 11 -5 20 -3 23 4 2 8 7 8 17 -1 10 -10 10 -20 -1 -57 -17 -56
-18 -93 -2 -88 7 3 21 37 32 76 l19 72 41 0 c23 0 47 4 55 9 25 16 2 29 -44
23 l-45 -5 15 43 c8 23 15 53 15 66 0 31 -30 32 -31 2z"/>
<path d="M3063 8553 c-28 -86 -29 -87 -70 -101 -24 -7 -43 -18 -43 -22 0 -16
18 -20 45 -10 24 9 26 8 20 -7 -5 -10 -10 -33 -13 -52 -7 -51 17 -35 37 24 14
45 19 50 46 50 35 1 42 28 8 33 l-21 3 24 77 c28 91 28 92 10 92 -10 0 -25
-31 -43 -87z"/>
<path d="M5056 8603 c-4 -21 -14 -64 -23 -95 -14 -52 -17 -56 -34 -45 -43 27
-100 -38 -85 -97 18 -71 112 10 146 126 12 40 26 86 30 102 10 32 6 46 -14 46
-8 0 -17 -16 -20 -37z m-66 -187 c0 -8 -12 -21 -26 -31 l-27 -17 7 28 c11 42
46 56 46 20z"/>
<path d="M5193 8492 c-10 -22 -37 -54 -60 -72 -24 -18 -43 -36 -43 -41 0 -18
37 -8 61 17 l24 26 5 -29 c7 -36 30 -40 67 -9 l29 25 11 -30 c11 -29 36 -38
49 -18 4 7 0 16 -9 20 -12 7 -13 17 -6 51 15 65 -3 70 -53 15 -23 -26 -45 -47
-50 -47 -13 0 -9 43 7 74 19 36 19 56 1 56 -8 0 -23 -17 -33 -38z"/>
<path d="M5662 8515 c-30 -22 -52 -67 -52 -108 0 -46 37 -72 88 -63 44 7 92
50 75 67 -9 9 -19 5 -43 -15 -36 -30 -49 -32 -76 -10 -13 10 -15 17 -7 20 7 3
27 15 45 28 27 18 33 28 33 56 0 41 -25 51 -63 25z m20 -47 c-12 -12 -24 -19
-28 -16 -3 4 4 16 16 28 12 12 24 19 28 16 3 -4 -4 -16 -16 -28z"/>
<path d="M3448 8493 c-9 -10 -25 -52 -37 -95 -11 -42 -31 -101 -45 -131 -23
-53 -24 -67 -4 -67 5 0 24 33 43 72 33 67 37 73 64 70 36 -4 81 33 106 88 17
37 17 42 3 57 -21 20 -56 12 -100 -24 l-33 -28 18 29 c22 33 9 57 -15 29z m98
-51 c-8 -25 -55 -72 -72 -72 -23 0 6 60 39 81 35 21 42 19 33 -9z"/>
<path d="M4538 8495 c-17 -10 -29 -11 -33 -5 -12 20 -50 9 -82 -22 -33 -32
-34 -32 -31 -8 2 16 -2 25 -11 25 -12 0 -46 -91 -54 -144 -4 -25 23 -23 32 2
5 13 32 48 61 78 51 54 53 53 34 -11 -10 -33 18 -24 61 20 21 22 42 40 46 40
9 0 4 -74 -6 -90 -10 -15 10 -34 28 -27 18 7 23 123 6 143 -14 17 -17 17 -51
-1z"/>
<path d="M4741 8475 c-38 -43 -39 -64 -6 -95 21 -20 30 -22 52 -14 41 14 59
53 48 101 -14 54 -50 58 -94 8z m59 -20 c26 -32 -19 -80 -48 -51 -13 13 -13
18 2 40 19 30 29 32 46 11z"/>
<path d="M5873 8420 c-32 -13 -29 -32 4 -28 17 2 29 10 31 21 4 19 -2 20 -35
7z"/>
<path d="M1755 7893 c-35 -37 -111 -194 -126 -259 -9 -39 -24 -65 -61 -105
-26 -29 -44 -57 -40 -61 13 -13 39 0 57 28 19 29 35 31 35 5 0 -33 11 -50 46
-72 38 -23 92 -21 113 5 17 20 -2 28 -34 16 -55 -21 -96 15 -97 83 -1 35 5 50
28 76 43 47 105 153 99 169 -2 7 0 10 5 7 6 -3 10 -4 10 -2 0 2 4 27 10 56 9
51 6 81 -11 81 -4 0 -20 -12 -34 -27z m4 -90 c-14 -45 -56 -120 -82 -148 -17
-18 -16 -15 3 35 50 128 113 217 79 113z"/>
<path d="M5715 7901 c-52 -23 -68 -48 -110 -174 l-35 -102 -49 0 c-56 0 -68
-7 -46 -25 10 -8 15 -9 15 -1 0 6 5 11 11 11 5 0 7 -4 4 -10 -4 -6 7 -10 24
-10 17 0 31 -2 31 -4 0 -15 -24 -66 -31 -66 -12 0 -11 -47 1 -55 6 -4 22 19
37 52 14 32 32 61 38 65 7 4 10 19 8 32 -3 14 9 68 27 120 39 120 70 151 137
142 45 -6 53 2 27 28 -20 21 -40 20 -89 -3z"/>
<path d="M2147 7834 c-4 -4 -7 -19 -7 -33 0 -14 -11 -62 -24 -106 -22 -77 -24
-80 -60 -88 -50 -12 -51 -42 0 -32 31 5 35 4 30 -12 -2 -10 -6 -36 -8 -58 -2
-30 1 -40 12 -40 11 0 17 16 21 58 4 32 8 59 10 61 2 2 24 7 48 10 50 7 56 10
46 26 -5 8 -22 10 -46 7 -22 -3 -39 -3 -39 0 0 3 9 36 19 72 24 80 30 133 15
138 -5 2 -13 0 -17 -3z"/>
<path d="M11647 7756 c-19 -41 -38 -84 -42 -96 -6 -18 -13 -21 -41 -18 -20 2
-35 -1 -38 -8 -7 -17 3 -24 33 -24 25 0 26 -2 23 -55 -3 -47 -1 -57 22 -80 28
-28 58 -32 75 -11 14 16 -2 32 -20 21 -20 -13 -49 26 -49 66 0 40 19 59 58 59
24 0 70 35 60 45 -4 4 -21 2 -37 -5 -60 -24 -65 -12 -26 68 36 76 41 97 26
106 -5 3 -25 -27 -44 -68z"/>
<path d="M9545 7783 c-3 -16 -29 -83 -56 -150 -27 -68 -49 -130 -49 -138 0
-27 25 -16 70 31 25 25 53 50 62 55 15 8 16 6 7 -20 -12 -34 -9 -77 5 -74 12
3 38 103 32 120 -9 23 -45 14 -86 -24 l-41 -36 22 54 c51 127 76 198 71 204
-13 13 -30 3 -37 -22z"/>
<path d="M7610 7777 c0 -24 -27 -109 -50 -159 -8 -16 -21 -28 -32 -28 -10 0
-18 -4 -18 -10 0 -5 7 -10 16 -10 12 0 14 -5 9 -17 -31 -73 -47 -124 -42 -138
12 -28 22 -15 46 60 13 41 30 80 37 86 8 7 36 14 62 17 50 5 78 20 64 34 -5 5
-29 4 -57 -2 -26 -6 -49 -9 -50 -8 -2 2 7 35 21 73 28 82 31 125 9 125 -9 0
-15 -9 -15 -23z"/>
<path d="M4206 7715 c-33 -72 -36 -75 -67 -73 -39 4 -50 -17 -14 -26 29 -7 30
-12 10 -59 -20 -49 -19 -64 10 -92 26 -27 72 -33 106 -14 30 16 12 30 -30 23
-45 -7 -76 16 -65 49 25 78 32 86 83 93 38 5 49 10 48 23 -1 15 -7 16 -39 11
-21 -4 -38 -6 -38 -5 0 2 11 27 25 57 14 29 25 61 25 71 0 36 -21 14 -54 -58z"/>
<path d="M14185 7780 c-9 -14 -6 -17 20 -22 13 -2 20 3 20 12 0 18 -30 26 -40
10z"/>
<path d="M10935 7695 c-14 -13 -25 -28 -25 -33 0 -6 -8 -9 -17 -8 -13 1 -22
-12 -31 -44 -7 -25 -17 -53 -23 -62 -13 -25 -11 -48 4 -48 6 0 32 37 57 81 57
101 68 111 88 81 17 -27 32 -29 32 -4 0 24 -28 62 -46 62 -8 0 -26 -11 -39
-25z"/>
<path d="M6824 7651 c-17 -11 -38 -33 -45 -50 -8 -17 -20 -30 -29 -28 -10 1
-19 -13 -27 -43 -6 -25 -15 -56 -19 -69 -6 -19 -4 -22 11 -19 12 2 33 32 56
79 47 96 109 149 109 93 0 -8 7 -14 15 -14 20 0 19 34 -1 54 -20 21 -32 20
-70 -3z"/>
<path d="M7998 7640 l-33 -30 50 -44 c28 -24 47 -47 44 -50 -3 -3 -20 -9 -38
-12 -31 -6 -32 -6 -25 20 5 20 2 26 -10 26 -17 0 -32 -41 -22 -65 11 -31 136
-4 136 29 0 8 -21 34 -46 58 -41 39 -44 43 -28 55 10 7 33 13 51 13 23 0 33 5
33 15 0 11 -11 15 -40 15 -30 0 -48 -7 -72 -30z"/>
<path d="M12994 7651 c-23 -10 -45 -24 -48 -30 -10 -16 -26 -14 -26 4 0 8 -7
15 -15 15 -8 0 -15 -9 -15 -20 0 -11 -12 -38 -26 -60 -15 -23 -24 -46 -20 -56
5 -13 20 -3 75 49 65 61 105 86 118 74 3 -3 -7 -28 -22 -56 -16 -28 -25 -57
-21 -66 7 -19 31 -15 31 6 0 8 10 33 23 56 25 47 28 73 10 91 -15 15 -15 15
-64 -7z"/>
<path d="M11057 7628 c-14 -18 -30 -49 -37 -70 -12 -31 -11 -40 4 -62 23 -36
60 -34 97 5 34 36 40 99 13 137 -21 31 -49 27 -77 -10z m63 -52 c0 -44 -45
-86 -67 -63 -11 11 -11 19 1 48 18 42 24 49 48 49 14 0 18 -8 18 -34z"/>
<path d="M11835 7642 c-65 -40 -70 -103 -12 -146 37 -27 101 -26 130 2 24 25
15 42 -13 24 -26 -16 -82 -15 -105 1 -20 16 -13 37 13 37 28 0 82 38 82 58 0
43 -45 54 -95 24z m60 -23 c4 -6 -2 -13 -14 -16 -12 -3 -21 -8 -21 -12 0 -4
-10 -7 -22 -8 -22 -2 -22 -1 5 23 31 26 42 29 52 13z"/>
<path d="M2320 7640 c-8 -5 -25 -10 -38 -10 -30 0 -37 -22 -18 -59 23 -43 21
-78 -5 -86 -15 -5 -25 -2 -31 10 -9 15 -11 15 -29 -1 -47 -42 48 -63 97 -21
27 24 27 24 12 71 l-16 47 39 20 c22 11 39 24 39 29 0 13 -30 13 -50 0z"/>
<path d="M9720 7618 c-37 -40 -66 -107 -54 -126 25 -39 90 -19 119 38 14 27
14 32 -6 70 -24 46 -31 48 -59 18z m40 -59 c0 -19 -33 -59 -48 -59 -20 0 -20
15 -2 51 21 40 50 45 50 8z"/>
<path d="M9995 7611 c-31 -23 -42 -26 -50 -16 -6 8 -22 11 -41 8 -23 -4 -36
-15 -54 -47 -34 -62 -17 -77 32 -29 37 36 39 36 29 11 -18 -48 7 -42 70 16 33
31 64 56 70 56 15 0 10 -33 -11 -68 -24 -39 -26 -72 -5 -72 8 0 15 7 15 15 0
9 7 26 15 39 24 35 34 80 23 99 -13 25 -48 20 -93 -12z"/>
<path d="M12617 7629 c-36 -10 -55 -25 -73 -61 -24 -47 14 -91 58 -67 16 9 24
7 43 -11 21 -19 32 -22 80 -18 57 5 82 18 71 37 -5 8 -13 8 -26 1 -23 -12 -97
-13 -104 -1 -3 5 1 25 10 46 25 61 2 91 -59 74z m33 -39 c0 -17 -47 -60 -65
-60 -21 0 -19 26 5 50 21 21 60 27 60 10z"/>
<path d="M1878 7620 c-27 -16 -58 -75 -58 -109 0 -54 57 -87 114 -65 32 12 18
32 -19 27 -21 -3 -42 1 -51 8 -13 10 -9 15 23 33 35 20 38 25 38 66 0 47 -14
59 -47 40z m8 -68 c-23 -23 -33 -6 -10 19 12 13 20 16 22 9 3 -7 -3 -19 -12
-28z"/>
<path d="M2900 7617 c-37 -13 -40 -25 -29 -111 6 -42 -23 -57 -54 -28 -36 34
-53 8 -17 -28 48 -48 119 -6 106 62 -14 69 -13 71 26 82 20 6 38 16 40 21 5
15 -32 16 -72 2z"/>
<path d="M5922 7615 c-40 -18 -33 -39 10 -30 l30 7 -26 -48 c-43 -81 -29 -110
26 -57 15 15 28 22 28 15 0 -19 42 -52 67 -52 12 0 37 13 54 28 24 21 31 36
31 64 0 42 -9 61 -25 55 -7 -2 -10 -20 -9 -44 3 -33 -1 -44 -20 -57 -32 -23
-47 -20 -66 14 -9 16 -25 30 -35 30 -16 0 -16 2 -2 30 31 60 8 76 -63 45z"/>
<path d="M7765 7616 c-38 -17 -79 -87 -71 -122 8 -32 47 -47 102 -38 39 6 74
27 62 39 -2 2 -28 1 -57 -4 l-53 -8 46 42 c49 45 59 78 27 95 -23 12 -19 12
-56 -4z m27 -59 c-6 -7 -25 -20 -42 -31 l-32 -18 16 30 c9 17 26 38 38 47 21
14 23 14 26 0 2 -9 -1 -21 -6 -28z"/>
<path d="M10221 7606 c-33 -35 -39 -98 -12 -125 36 -36 66 -37 129 -4 38 20
58 37 60 52 4 27 -2 27 -41 -3 -46 -35 -78 -45 -107 -34 -24 9 -24 9 18 34 38
23 42 29 42 65 0 38 -1 39 -33 39 -22 0 -41 -8 -56 -24z m59 -20 c0 -14 -36
-46 -52 -46 -11 0 3 33 20 48 21 16 32 15 32 -2z"/>
<path d="M11285 7609 c-10 -30 -84 -109 -113 -120 -13 -5 -20 -13 -17 -19 10
-16 40 -12 68 10 16 13 28 16 32 10 11 -18 31 -11 71 24 l39 34 11 -31 c11
-31 42 -46 35 -17 -2 8 -3 39 -3 68 0 28 -4 52 -9 52 -5 0 -31 -23 -59 -52
-27 -28 -52 -49 -55 -47 -2 3 4 23 15 44 11 22 20 45 20 52 0 21 -28 15 -35
-8z"/>
<path d="M5727 7609 c-25 -15 -47 -63 -47 -103 0 -46 34 -71 82 -62 42 8 62
21 54 34 -4 7 -17 7 -37 2 -55 -16 -61 -2 -17 40 27 26 38 45 34 55 -3 9 -6
23 -6 31 0 16 -37 18 -63 3z m37 -44 c-7 -17 -54 -49 -54 -37 0 5 9 21 21 36
21 26 43 27 33 1z"/>
<path d="M8828 7600 c-35 -27 -54 -75 -38 -95 17 -21 30 -19 71 10 38 25 49
24 49 -5 0 -27 38 -56 57 -44 27 17 28 36 2 32 -19 -2 -24 3 -31 32 -5 19 -15
40 -22 45 -7 6 -15 18 -19 28 -8 23 -38 22 -69 -3z m33 -39 c-6 -11 -21 -25
-32 -31 -20 -11 -20 -10 -5 18 14 27 35 44 44 36 2 -1 -1 -12 -7 -23z"/>
<path d="M13864 7594 c-65 -43 -80 -62 -119 -145 -31 -66 -35 -83 -24 -90 11
-7 11 -9 -3 -9 -10 0 -20 -11 -24 -25 -18 -72 44 -17 73 65 15 42 20 49 39 44
26 -7 102 25 126 52 10 11 24 35 31 54 32 76 -23 105 -99 54z m76 -20 c0 -32
-35 -75 -78 -96 -37 -17 -46 -18 -53 -7 -13 21 -12 24 35 67 26 24 39 43 33
46 -7 2 5 5 26 5 27 1 37 -3 37 -15z"/>
<path d="M14103 7605 c-23 -16 -63 -75 -63 -94 0 -18 38 -51 60 -51 11 0 20 7
20 15 0 8 -6 15 -14 15 -7 0 -19 6 -25 14 -8 10 -6 19 10 39 11 15 17 32 13
38 -4 7 -3 9 4 6 15 -10 42 3 42 19 0 18 -20 18 -47 -1z"/>
<path d="M3942 7590 c-37 -23 -72 -75 -72 -107 0 -38 28 -26 40 16 12 44 64
85 101 79 30 -4 36 18 7 26 -34 9 -40 8 -76 -14z"/>
<path d="M13615 7591 c-46 -28 -76 -66 -69 -84 8 -22 36 -21 84 3 l39 20 -6
-35 c-7 -46 22 -50 31 -4 10 51 7 79 -8 79 -7 0 -16 9 -19 20 -6 25 -14 25
-52 1z m15 -39 c0 -5 -12 -14 -27 -21 l-28 -11 24 20 c26 22 31 24 31 12z"/>
<path d="M3085 7574 c-10 -16 -36 -46 -59 -66 -31 -29 -38 -40 -29 -49 9 -9
18 -8 37 4 21 14 25 14 30 2 7 -19 37 -19 62 0 24 18 34 19 34 1 0 -31 20 -25
35 10 34 83 11 102 -52 43 -53 -48 -66 -40 -37 22 12 28 14 43 7 50 -8 8 -16
3 -28 -17z"/>
<path d="M4835 7564 c-29 -28 -36 -42 -33 -67 4 -39 27 -46 65 -19 l28 20 18
-24 c20 -27 49 -31 67 -9 11 13 8 15 -14 15 -32 0 -42 20 -28 59 9 26 8 32
-13 45 -35 23 -50 20 -90 -20z m34 -41 c-19 -18 -35 -29 -37 -23 -5 15 48 71
60 64 6 -4 -5 -22 -23 -41z"/>
<path d="M6967 7558 c-31 -48 -34 -70 -11 -92 23 -24 60 -19 83 10 25 32 27
71 5 102 -23 33 -46 27 -77 -20z m60 -14 c8 -21 -13 -64 -31 -64 -24 0 -28 17
-11 50 17 33 32 38 42 14z"/>
<path d="M3520 7565 c-19 -14 -40 -25 -47 -25 -7 0 -13 -7 -13 -15 0 -8 -9
-34 -19 -57 -19 -40 -65 -175 -78 -225 -4 -16 -1 -23 10 -23 10 0 32 39 63
109 46 106 48 109 72 100 31 -12 64 8 92 54 25 40 25 69 2 90 -25 23 -42 21
-82 -8z m66 -19 c12 -31 -32 -86 -70 -86 -22 0 -6 59 22 80 29 24 41 25 48 6z"/>
<path d="M7316 7555 c-9 -14 -14 -31 -10 -37 4 -7 3 -8 -4 -4 -7 4 -30 -7 -52
-25 -22 -18 -43 -29 -47 -25 -4 4 3 26 15 49 26 49 27 57 7 57 -8 0 -26 -20
-41 -45 -14 -25 -44 -61 -66 -79 -22 -19 -37 -39 -33 -45 10 -16 18 -14 53 18
17 16 34 25 37 20 12 -18 53 -8 91 22 l39 31 3 -25 c4 -36 25 -51 51 -37 27
14 27 30 0 30 -23 0 -23 5 -3 93 8 36 -17 37 -40 2z"/>
<path d="M3287 7564 c-4 -4 -7 -17 -7 -28 0 -12 -18 -77 -40 -146 -43 -136
-47 -160 -26 -160 13 0 43 88 40 118 -1 6 2 12 6 12 4 0 10 9 13 20 3 13 14
20 31 20 30 0 89 55 103 97 22 61 -22 94 -75 57 -14 -10 -22 -11 -20 -3 3 13
-15 23 -25 13z m93 -43 c0 -32 -70 -104 -87 -88 -11 12 59 107 79 107 4 0 8
-8 8 -19z"/>
<path d="M3719 7540 c-37 -36 -39 -76 -4 -92 19 -8 31 -8 51 1 21 9 25 17 23
45 -2 19 3 41 10 50 7 9 12 17 10 17 -37 11 -65 5 -90 -21z m41 -45 c0 -19
-20 -29 -32 -17 -8 8 -7 16 2 26 14 17 30 12 30 -9z"/>
<path d="M8317 7493 c-3 -4 -8 -23 -12 -41 -9 -41 -60 -102 -86 -102 -20 0
-26 -24 -8 -35 18 -12 87 45 108 89 24 49 30 87 14 93 -6 2 -13 0 -16 -4z"/>
<path d="M12076 7417 c-29 -59 -33 -81 -13 -75 15 5 68 108 61 119 -11 18 -22
7 -48 -44z"/>
<path d="M4149 7338 c-6 -12 -14 -56 -16 -98 -3 -41 -14 -101 -24 -133 -21
-63 -15 -90 21 -102 21 -7 34 0 83 44 50 45 29 121 -29 107 l-26 -7 5 68 c4
37 9 82 13 99 7 39 -10 53 -27 22z m61 -232 c0 -25 -56 -79 -72 -70 -10 6 7
41 35 72 26 28 37 28 37 -2z"/>
<path d="M6563 7287 c-30 -58 -38 -65 -72 -56 -25 7 -23 -21 3 -32 24 -11 26
-18 26 -71 0 -73 23 -103 73 -92 63 13 65 32 5 36 l-43 3 0 55 0 55 50 5 c36
4 51 10 53 21 3 14 -4 16 -42 12 -26 -3 -46 -3 -46 1 0 3 14 30 30 59 35 62
36 67 13 66 -12 0 -30 -23 -50 -62z"/>
<path d="M2300 7325 c-6 -8 -9 -19 -6 -24 4 -6 4 -22 0 -37 -6 -23 -10 -26
-40 -21 -36 6 -56 -9 -33 -24 8 -5 23 -9 35 -9 19 0 20 -5 16 -60 -7 -100 34
-155 88 -117 24 17 11 32 -19 22 -25 -8 -41 20 -41 72 0 73 7 81 65 88 33 5
56 13 59 22 9 22 -3 34 -22 24 -9 -4 -32 -11 -49 -14 l-33 -6 6 43 c7 46 -6
66 -26 41z"/>
<path d="M1617 7170 c-19 -16 -40 -30 -46 -30 -6 0 -11 -10 -11 -23 0 -13 -4
-27 -9 -32 -14 -15 -23 -72 -13 -79 13 -8 28 13 36 49 4 17 22 48 41 70 30 36
36 39 54 28 26 -16 31 -16 31 1 0 16 -26 46 -40 46 -5 0 -25 -13 -43 -30z"/>
<path d="M2481 7191 c-7 -5 -23 -26 -35 -47 -22 -39 -22 -39 -3 -72 25 -42 43
-51 91 -43 48 8 68 33 44 57 -18 18 -42 10 -34 -12 4 -10 -3 -14 -24 -14 -43
0 -45 15 -5 40 26 16 35 29 35 49 0 43 -34 64 -69 42z m39 -40 c0 -5 -11 -16
-25 -25 -27 -18 -30 -15 -15 15 11 19 40 27 40 10z"/>
<path d="M5824 7180 c-31 -12 -94 -106 -94 -140 0 -24 32 -7 45 23 32 77 84
109 115 72 9 -11 16 -13 23 -6 7 7 3 19 -13 36 -24 26 -41 29 -76 15z"/>
<path d="M6749 7161 c-84 -85 22 -202 131 -146 28 15 38 34 24 48 -4 3 -18 -3
-32 -13 -33 -26 -76 -25 -102 2 -28 31 -25 42 15 57 42 15 62 45 44 67 -18 22
-48 17 -80 -15z m41 -15 c0 -2 -7 -7 -16 -10 -8 -3 -12 -2 -9 4 6 10 25 14 25
6z"/>
<path d="M4646 7157 c-28 -22 -70 -112 -60 -128 9 -15 32 2 39 29 4 15 18 42
31 60 20 26 30 31 50 26 17 -4 24 -2 24 9 0 15 -20 27 -43 27 -7 0 -25 -10
-41 -23z"/>
<path d="M3459 7147 c-25 -17 -35 -31 -37 -55 -4 -43 30 -48 77 -10 l25 19 11
-43 c12 -51 50 -77 85 -58 27 14 16 30 -20 30 -35 0 -45 23 -35 82 5 29 3 43
-6 49 -24 15 -65 10 -100 -14z m31 -32 c-26 -27 -42 -33 -34 -11 4 11 37 33
53 35 3 1 -6 -10 -19 -24z"/>
<path d="M4990 7152 c-47 -23 -70 -83 -49 -127 17 -36 53 -50 102 -41 38 7 42
12 28 34 -7 11 -12 11 -28 1 -24 -15 -73 -4 -73 16 0 8 15 21 34 29 47 20 77
51 69 73 -13 37 -33 40 -83 15z m31 -43 c-30 -25 -60 -27 -40 -3 15 18 51 34
59 27 3 -3 -6 -13 -19 -24z"/>
<path d="M1772 7138 c-20 -22 -42 -68 -42 -89 0 -18 40 -49 63 -49 30 0 67 39
67 72 0 14 -5 39 -11 57 -13 38 -46 42 -77 9z m58 -62 c0 -33 -15 -49 -39 -41
-26 8 -28 42 -3 73 16 20 18 20 30 5 6 -9 12 -26 12 -37z"/>
<path d="M4370 7113 c-17 -27 -47 -62 -68 -80 -37 -32 -37 -32 -11 -33 15 0
32 7 39 15 9 11 16 13 24 5 19 -19 55 -10 91 22 21 18 36 25 35 17 -6 -40 0
-50 27 -47 29 3 45 28 18 28 -15 0 -17 7 -11 50 8 62 -10 67 -49 16 -28 -37
-73 -71 -82 -62 -3 3 4 25 16 49 39 80 18 94 -29 20z"/>
<path d="M5965 7139 c-58 -17 -73 -73 -29 -108 51 -40 114 -13 114 50 0 63
-21 77 -85 58z m55 -54 c0 -30 -35 -48 -63 -33 -38 20 -12 46 56 57 4 0 7 -10
7 -24z"/>
<path d="M6186 7108 c-20 -48 -50 -78 -78 -78 -10 0 -18 -6 -18 -14 0 -23 14
-26 43 -11 15 7 40 13 57 13 16 -1 47 11 70 26 l40 26 0 -24 c0 -28 21 -48 39
-37 10 6 10 10 2 16 -8 4 -10 22 -5 51 5 39 4 44 -12 44 -11 0 -39 -16 -63
-35 -24 -19 -47 -35 -52 -35 -4 0 0 19 11 42 10 23 16 46 14 50 -12 19 -31 5
-48 -34z"/>
<path d="M1994 7108 c-25 -50 -74 -108 -90 -108 -8 0 -14 -7 -14 -15 0 -21 34
-19 55 5 12 14 25 17 46 13 23 -4 35 1 64 30 l35 35 0 -28 c0 -30 18 -43 40
-30 11 7 11 11 1 24 -7 8 -12 28 -11 43 5 67 -17 73 -55 13 -13 -21 -34 -44
-45 -50 -24 -13 -24 -12 -5 33 28 67 10 96 -21 35z"/>
<path d="M4860 7115 c0 -8 -6 -15 -12 -16 -50 -3 -88 -29 -88 -61 0 -27 29
-34 62 -15 15 9 28 13 28 9 0 -4 -11 -45 -24 -92 l-23 -85 -40 0 c-62 0 -76
-17 -71 -92 3 -41 10 -69 20 -80 16 -15 19 -14 47 16 16 17 37 52 47 76 15 41
20 45 51 45 28 0 34 4 31 18 -3 11 -12 16 -26 15 -27 -3 -27 -4 3 109 29 108
33 168 10 168 -8 0 -15 -7 -15 -15z m-85 -331 c-8 -19 -21 -43 -28 -55 -14
-20 -15 -20 -21 3 -10 38 -7 86 6 90 7 3 22 2 35 0 21 -4 22 -6 8 -38z"/>
<path d="M5198 7114 c-15 -8 -32 -23 -38 -34 -15 -28 -13 -70 4 -70 15 0 26
21 26 50 0 17 32 35 74 42 11 2 21 9 24 16 5 17 -56 15 -90 -4z"/>
<path d="M2780 6993 c-5 -21 -19 -51 -30 -68 -23 -35 -26 -55 -6 -55 19 0 80
124 73 145 -11 26 -26 17 -37 -22z"/>
<path d="M7036 7013 c-12 -12 -6 -33 9 -33 8 0 15 6 15 14 0 17 -14 28 -24 19z"/>
<path d="M8693 6938 c-4 -7 -24 -44 -44 -83 -37 -70 -37 -70 -83 -73 -32 -2
-46 -7 -46 -18 0 -10 12 -14 39 -14 l39 0 -19 -55 c-39 -111 -19 -162 60 -151
55 8 66 17 52 45 -13 24 -31 28 -31 6 0 -17 -43 -31 -61 -20 -14 9 -6 79 15
128 13 33 16 34 86 41 39 3 80 11 91 17 28 14 24 32 -6 25 -13 -3 -52 -9 -86
-13 l-61 -6 22 44 c13 24 34 60 47 81 23 34 24 58 3 58 -5 0 -12 -6 -17 -12z"/>
<path d="M6988 6863 c-50 -51 -95 -138 -105 -200 -6 -43 -27 -71 -61 -84 -27
-11 -24 -36 4 -31 10 2 28 12 38 22 18 18 19 18 35 -1 21 -25 64 -30 69 -6 2
12 -3 17 -17 17 -11 0 -24 8 -29 17 -8 13 0 27 35 62 57 59 93 130 100 197 7
69 -7 71 -69 7z m27 -60 c-10 -33 -31 -68 -60 -100 l-45 -48 14 41 c8 23 21
55 30 72 18 34 67 95 72 89 2 -2 -3 -27 -11 -54z"/>
<path d="M8020 6892 c0 -11 -25 -79 -55 -152 -30 -73 -55 -139 -55 -146 0 -24
25 -15 37 14 12 26 58 63 95 77 17 7 17 5 3 -29 -12 -27 -13 -41 -5 -57 15
-27 26 -17 34 28 14 79 12 88 -12 91 -13 2 -38 -5 -56 -16 l-34 -20 38 87 c46
106 52 134 28 139 -12 2 -18 -3 -18 -16z"/>
<path d="M10691 6868 c-5 -13 -57 -86 -115 -163 -58 -77 -106 -145 -106 -152
0 -27 26 -11 57 35 17 26 65 90 106 143 84 108 101 135 92 149 -10 17 -25 11
-34 -12z"/>
<path d="M6103 6849 c-38 -24 -78 -100 -94 -179 -12 -58 -38 -96 -78 -111 -18
-7 -21 -13 -13 -21 13 -13 62 4 62 22 0 19 27 10 39 -14 14 -26 47 -35 95 -26
53 9 43 30 -13 30 -47 0 -52 3 -62 27 -9 24 -6 31 36 73 34 34 53 67 75 126
17 43 30 82 30 87 0 14 -46 6 -77 -14z m7 -91 c-19 -51 -70 -116 -70 -90 0 25
40 116 62 139 30 32 33 17 8 -49z"/>
<path d="M10072 6834 c-31 -24 -34 -25 -51 -10 -25 22 -27 21 -78 -26 -56 -54
-83 -97 -83 -135 0 -19 -9 -38 -25 -53 -27 -25 -33 -50 -13 -50 7 0 22 12 33
26 15 19 32 27 61 29 52 4 119 38 140 70 11 17 15 37 11 59 -5 29 0 38 28 66
19 18 32 37 29 42 -8 13 -16 10 -52 -18z m-58 -42 c5 -9 -7 -25 -72 -87 -70
-67 -71 -34 -1 41 51 53 63 61 73 46z m16 -87 c-7 -13 -18 -26 -24 -29 -6 -2
-29 -12 -51 -21 l-40 -16 60 57 c57 55 82 59 55 9z"/>
<path d="M10372 6837 c-5 -12 -24 -42 -42 -66 l-33 -45 -21 27 c-20 24 -25 26
-52 17 -17 -6 -40 -28 -58 -56 -26 -41 -28 -51 -23 -104 4 -38 3 -61 -4 -66
-18 -11 -99 -125 -99 -140 0 -27 25 -14 46 24 12 20 40 58 62 83 33 36 47 46
73 46 46 0 102 61 98 108 -3 25 6 47 39 93 23 33 44 67 47 75 10 24 -21 28
-33 4z m-112 -122 c10 -12 5 -23 -30 -65 -23 -27 -46 -50 -51 -50 -20 0 -9 69
17 99 29 34 45 38 64 16z m13 -94 c-11 -14 -29 -28 -39 -30 -14 -2 -10 6 16
36 38 42 55 38 23 -6z"/>
<path d="M10837 6797 c-10 -34 -36 -100 -58 -146 -45 -96 -43 -91 -25 -91 7 0
30 20 49 44 35 41 91 76 104 62 3 -3 -2 -24 -12 -45 -10 -22 -15 -48 -11 -57
8 -22 16 -14 42 49 34 80 7 105 -78 72 -16 -6 -16 -3 2 50 11 32 17 61 14 66
-3 5 0 9 5 9 6 0 11 11 11 25 0 47 -25 25 -43 -38z"/>
<path d="M7775 6818 c-4 -18 -25 -88 -46 -155 -39 -120 -41 -157 -10 -151 11
3 15 12 13 30 -1 15 13 73 32 131 46 138 53 177 33 177 -9 0 -18 -13 -22 -32z"/>
<path d="M9401 6815 c-14 -19 -18 -35 -14 -59 4 -27 1 -35 -20 -48 -62 -41
-77 -93 -35 -122 66 -46 133 18 108 104 -7 23 -4 29 19 43 14 8 44 34 65 56
33 34 37 41 23 47 -10 3 -24 1 -33 -6 -11 -10 -18 -10 -26 -2 -21 21 -65 14
-87 -13z m68 -14 c12 -8 11 -13 -10 -30 -31 -26 -39 -26 -39 2 0 37 19 47 49
28z m-59 -143 c0 -18 -4 -39 -9 -46 -11 -18 -41 -12 -55 11 -9 15 -6 22 19 43
39 31 45 30 45 -8z"/>
<path d="M9764 6805 c-31 -41 -65 -48 -61 -12 1 17 -2 21 -18 19 -51 -9 -104
-96 -105 -170 0 -31 -7 -53 -25 -76 -44 -58 -24 -80 22 -25 20 24 31 29 50 24
35 -8 108 29 133 69 22 37 25 67 9 98 -9 17 -6 25 20 52 17 18 31 37 31 44 0
24 -29 11 -56 -23z m-79 -35 c-4 -6 -2 -16 3 -23 7 -8 -3 -27 -34 -62 -30 -35
-44 -44 -44 -32 0 24 27 87 47 109 17 19 38 25 28 8z m65 -83 c0 -28 -63 -87
-94 -87 -14 0 -26 3 -26 6 0 3 23 32 52 65 51 59 67 63 68 16z"/>
<path d="M9030 6805 c0 -10 7 -15 18 -13 21 4 19 22 -2 26 -10 2 -16 -3 -16
-13z"/>
<path d="M11501 6745 c-16 -14 -37 -46 -47 -71 -16 -42 -16 -48 -1 -79 18 -39
48 -51 102 -41 40 8 82 53 65 70 -8 8 -17 5 -30 -12 -23 -28 -81 -40 -97 -20
-25 30 -19 49 21 63 22 8 53 27 69 43 25 25 27 33 18 51 -16 29 -62 27 -100
-4z m69 -15 c0 -10 -58 -50 -73 -50 -13 0 16 38 38 49 27 13 35 13 35 1z"/>
<path d="M5175 6733 c-59 -40 -71 -91 -35 -150 22 -36 75 -52 119 -37 27 10
37 42 11 35 -49 -13 -67 -11 -93 9 -39 31 -36 70 8 109 32 27 40 30 80 24 38
-5 45 -3 45 11 0 9 -9 17 -20 18 -67 6 -83 3 -115 -19z"/>
<path d="M8347 6743 c-47 -19 -57 -51 -28 -92 25 -34 26 -45 7 -60 -11 -9 -18
-8 -31 5 -13 13 -19 14 -28 5 -9 -10 -7 -17 12 -32 31 -25 56 -24 75 3 21 30
20 60 -4 91 -11 14 -20 28 -20 31 0 3 16 14 36 23 34 17 46 35 27 40 -4 1 -25
-5 -46 -14z"/>
<path d="M5492 6715 c-15 -33 -92 -116 -102 -110 -12 7 -19 -20 -10 -36 7 -11
13 -9 33 9 28 27 37 28 37 4 0 -46 49 -55 99 -18 l33 25 22 -25 c14 -17 27
-23 39 -19 24 10 21 35 -4 35 -18 0 -20 4 -15 26 18 70 19 84 4 84 -7 0 -21
-13 -31 -29 -21 -36 -83 -91 -102 -91 -23 0 -18 50 10 95 13 22 25 48 25 58 0
26 -25 21 -38 -8z"/>
<path d="M5797 6725 c-15 -8 -34 -20 -41 -28 -22 -21 -54 -90 -61 -130 -6 -30
-4 -37 9 -37 9 0 16 6 16 13 0 22 51 121 71 140 16 15 29 18 60 13 39 -6 50 3
27 22 -25 19 -53 22 -81 7z"/>
<path d="M11033 6718 c-36 -41 -53 -72 -53 -99 0 -58 49 -58 103 -1 34 35 37
58 13 95 -22 33 -36 34 -63 5z m47 -45 c0 -20 -38 -63 -57 -63 -19 0 -16 24 8
54 23 29 49 34 49 9z"/>
<path d="M11235 6723 c-16 -9 -43 -17 -60 -17 -25 -1 -30 -5 -27 -24 1 -13 -7
-37 -19 -53 -18 -26 -19 -30 -4 -35 10 -4 29 9 56 40 62 70 103 87 78 32 -9
-19 -9 -30 -2 -37 8 -8 24 1 57 31 53 49 68 47 37 -3 -19 -31 -19 -47 0 -47
16 0 50 71 47 97 -4 36 -29 41 -68 13 -23 -17 -30 -18 -30 -7 0 8 -7 18 -16
21 -19 7 -13 9 -49 -11z"/>
<path d="M8140 6698 c-29 -48 -34 -85 -16 -113 21 -32 49 -32 75 1 25 32 27
76 4 115 -22 37 -39 37 -63 -3z m44 -75 c-5 -15 -14 -28 -20 -30 -20 -7 -24
27 -8 65 16 36 16 37 27 14 7 -15 7 -32 1 -49z"/>
<path d="M2885 6671 c-16 -10 -45 -36 -63 -57 l-34 -38 19 -34 c10 -19 25 -39
34 -45 20 -13 84 -1 104 20 25 24 3 36 -33 17 -18 -8 -40 -14 -49 -12 -20 4
-31 38 -12 38 23 0 78 45 90 73 9 21 9 30 -1 42 -16 19 -19 19 -55 -4z m1 -57
c-15 -14 -31 -22 -35 -19 -3 4 7 18 23 31 15 14 31 22 35 19 3 -4 -7 -18 -23
-31z"/>
<path d="M7279 6678 c-21 -17 -59 -81 -59 -100 0 -8 8 -22 18 -31 31 -28 178
-19 149 9 -2 2 -32 5 -66 5 -54 1 -61 3 -61 21 0 11 10 33 21 50 18 25 27 29
51 24 24 -5 29 -3 26 12 -4 21 -56 28 -79 10z"/>
<path d="M8975 6669 c-10 -31 11 -48 30 -23 20 27 19 44 -4 44 -11 0 -23 -9
-26 -21z"/>
<path d="M7094 6670 c-42 -17 -59 -121 -23 -143 25 -15 62 -1 82 32 21 36 22
70 1 99 -16 23 -27 26 -60 12z m41 -50 c8 -24 -20 -73 -38 -67 -29 9 -13 87
18 87 7 0 17 -9 20 -20z"/>
<path d="M7471 6631 c-42 -42 -17 -99 37 -88 21 4 33 0 45 -14 9 -10 21 -19
27 -19 13 0 13 27 0 35 -5 3 -7 12 -3 20 3 8 2 22 -1 30 -5 14 -11 13 -45 -7
-43 -25 -59 -21 -42 10 7 13 17 18 30 15 10 -3 22 0 26 7 9 14 6 17 -27 25
-19 5 -32 1 -47 -14z"/>
<path d="M3180 6620 c-37 -37 -19 -104 21 -79 26 16 30 9 24 -38 -10 -73 -15
-83 -37 -83 -30 0 -79 -39 -94 -76 -20 -49 -17 -89 9 -120 20 -23 26 -25 45
-15 12 6 36 42 54 80 19 41 37 67 44 64 20 -7 27 16 11 41 -11 17 -13 33 -6
67 10 52 11 125 3 157 -8 28 -46 30 -74 2z m30 -35 c-7 -9 -15 -13 -18 -10 -3
2 1 11 8 20 7 9 15 13 18 10 3 -2 -1 -11 -8 -20z m-10 -212 c-1 -25 -53 -126
-67 -131 -16 -5 -26 33 -18 70 12 52 86 105 85 61z"/>
<path d="M3400 6560 c-19 -14 -22 -22 -14 -30 14 -14 54 7 54 27 0 21 -15 22
-40 3z"/>
<path d="M3052 6538 c-12 -12 -17 -48 -6 -48 9 0 54 44 54 53 0 11 -35 8 -48
-5z"/>
<path d="M10495 6393 c-14 -21 -42 -60 -62 -88 -114 -154 -174 -248 -164 -258
13 -13 12 -16 96 108 37 55 92 132 122 171 50 68 65 104 43 104 -5 0 -21 -17
-35 -37z"/>
<path d="M11235 6380 c-10 -17 12 -37 25 -24 8 8 6 15 -4 23 -10 9 -16 9 -21
1z"/>
<path d="M10941 6256 c-29 -19 -63 -50 -74 -68 -38 -61 -127 -239 -127 -253 0
-27 26 -16 43 18 9 17 34 59 54 92 35 55 41 60 70 57 27 -3 40 5 82 45 51 50
71 95 54 122 -17 27 -46 23 -102 -13z m59 -51 c-20 -33 -72 -75 -92 -75 -21 0
-5 49 25 77 67 64 107 62 67 -2z"/>
<path d="M10641 6241 c-79 -79 -49 -128 53 -86 30 13 36 13 36 1 0 -18 26 -39
39 -31 7 4 7 12 2 23 -5 9 -12 25 -15 35 -3 9 -14 17 -25 17 -10 0 -19 6 -18
13 1 38 -4 47 -28 47 -14 0 -34 -9 -44 -19z m31 -58 c-9 -7 -22 -13 -30 -13
-14 0 -9 13 17 43 15 18 16 18 22 0 4 -11 1 -23 -9 -30z"/>
<path d="M11131 6213 c-17 -25 -31 -50 -31 -55 0 -13 39 -48 53 -48 33 1 48
32 16 36 -5 1 -13 2 -19 3 -18 2 -11 29 15 59 28 33 32 52 11 52 -8 0 -28 -21
-45 -47z"/>
<path d="M10535 5948 c-28 -81 -81 -183 -115 -221 -33 -38 -38 -57 -15 -57 8
0 15 -4 15 -10 0 -5 11 -17 24 -25 30 -20 67 -7 114 38 43 41 45 90 4 105 -15
5 -37 6 -50 1 -22 -8 -22 -8 -6 22 32 62 82 188 76 193 -15 16 -30 1 -47 -46z
m25 -214 c0 -25 -56 -74 -84 -74 -36 0 -34 31 5 64 34 29 79 35 79 10z"/>
<path d="M10330 5955 c-15 -40 -239 -361 -266 -382 -13 -9 -13 -16 -4 -33 6
-12 13 -20 15 -18 1 1 27 39 57 83 30 44 98 142 151 219 53 76 94 143 91 147
-10 18 -35 9 -44 -16z"/>
<path d="M10961 5813 c-33 -31 -73 -102 -65 -115 12 -19 30 -4 52 42 21 45 26
49 51 44 34 -7 42 2 30 34 -11 29 -32 28 -68 -5z"/>
<path d="M11322 5804 c-47 -33 -68 -117 -36 -148 21 -22 77 -20 105 3 31 25
18 37 -20 21 -16 -6 -39 -9 -50 -5 -31 9 -27 43 6 56 40 15 63 39 63 66 0 28
-33 32 -68 7z"/>
<path d="M10702 5760 c-23 -26 -56 -54 -72 -62 -33 -14 -40 -38 -12 -38 10 0
28 7 40 16 12 8 22 10 22 5 0 -18 46 -12 74 10 20 16 26 17 26 6 0 -27 24 -38
48 -21 22 15 21 39 -2 31 -8 -3 -10 6 -8 29 5 42 -14 45 -49 8 -29 -31 -66
-54 -53 -32 4 7 18 27 32 45 21 29 23 54 4 53 -4 -1 -26 -23 -50 -50z"/>
<path d="M11122 5794 c-37 -26 -46 -52 -27 -81 14 -20 22 -24 46 -19 l29 5
-37 -74 c-31 -61 -41 -74 -58 -70 -115 23 -130 13 -120 -79 12 -107 44 -115
109 -26 37 50 47 58 58 47 14 -15 48 -19 48 -6 0 4 -11 16 -24 27 l-25 19 54
104 c30 57 54 113 55 123 0 41 -66 60 -108 30z m65 -29 c3 -9 -46 -45 -61 -45
-12 0 -6 24 11 42 17 19 44 21 50 3z m-141 -235 c34 0 30 -21 -14 -71 l-39
-43 -6 53 c-7 60 -2 75 20 67 8 -3 26 -6 39 -6z"/>
<path d="M11736 5798 c-28 -10 -28 -12 -22 -67 5 -42 3 -61 -8 -76 -15 -19
-17 -18 -20 14 -2 26 -25 23 -32 -3 -8 -32 10 -56 42 -56 35 0 58 51 51 111
-5 44 -4 48 19 53 13 4 24 13 24 21 0 17 -13 18 -54 3z"/>
<path d="M11517 5781 c-30 -19 -91 -127 -81 -142 11 -18 20 -8 58 57 34 59 40
65 63 60 21 -6 24 -4 21 16 -4 30 -26 33 -61 9z"/>
<path d="M2538 5653 c-29 -33 -52 -88 -73 -178 -21 -85 -24 -90 -54 -99 -35
-10 -37 -31 -2 -30 25 1 25 6 1 -56 -24 -60 -25 -80 -6 -80 9 0 23 26 36 65
12 36 28 71 35 79 8 7 11 17 7 22 -4 5 1 3 10 -5 13 -9 22 -10 37 -1 34 18 25
33 -14 26 -42 -8 -42 -7 -15 93 30 105 56 153 83 149 13 -2 23 -12 27 -27 8
-36 30 -39 30 -3 0 54 -68 84 -102 45z"/>
<path d="M8151 5643 c-5 -10 -17 -45 -26 -78 -10 -33 -31 -89 -47 -125 -17
-36 -36 -84 -44 -108 -12 -38 -11 -44 2 -49 9 -3 20 0 24 8 27 42 85 107 93
102 5 -3 6 -32 2 -65 -6 -48 -5 -60 6 -56 29 10 39 126 13 153 -14 14 -19 14
-38 1 -11 -8 -20 -21 -20 -29 1 -9 -4 -13 -12 -10 -11 4 -11 9 0 31 14 27 76
219 76 234 0 15 -19 8 -29 -9z"/>
<path d="M8997 5548 c-32 -62 -57 -117 -57 -122 0 -5 -11 -24 -25 -42 -14 -18
-25 -35 -25 -39 0 -3 -9 -16 -21 -28 -44 -46 -78 -94 -72 -101 20 -20 53 14
102 103 l15 26 8 -32 c9 -36 34 -54 61 -44 10 4 39 27 65 53 l47 47 -3 -40
c-2 -22 1 -46 8 -54 16 -19 50 -19 50 0 0 8 -7 15 -16 15 -23 0 -13 69 21 149
14 33 25 67 25 76 0 35 -28 10 -72 -62 -55 -93 -119 -159 -143 -149 -27 10
-10 74 56 210 62 126 68 146 46 146 -8 0 -39 -51 -70 -112z"/>
<path d="M9426 5650 c-35 -11 -94 -51 -101 -69 -3 -7 -1 -19 5 -26 8 -9 3 -33
-18 -86 -39 -99 -54 -160 -50 -194 4 -40 24 -42 37 -4 14 39 14 42 1 34 -13
-8 -13 -7 10 69 12 36 26 66 33 66 21 0 75 -38 93 -65 18 -28 23 -100 10 -152
-13 -50 18 -44 32 6 22 71 8 142 -34 185 -24 24 -25 26 -8 31 43 13 89 42 107
67 25 34 17 85 -20 122 -27 27 -48 30 -97 16z m77 -37 c8 -10 18 -30 22 -45
12 -48 -63 -98 -147 -98 -31 0 -34 13 -13 50 8 14 14 37 15 53 0 15 1 27 3 27
1 0 20 7 42 15 52 19 59 18 78 -2z"/>
<path d="M7960 5605 c-17 -25 -38 -61 -46 -80 -12 -30 -19 -35 -42 -33 -32 4
-39 -25 -6 -30 l20 -3 -20 -78 c-19 -74 -19 -80 -3 -104 19 -30 71 -45 92 -27
18 15 10 32 -13 29 -62 -6 -68 11 -41 111 18 68 24 79 47 86 15 4 33 6 40 5 8
-1 20 3 28 10 21 18 -2 30 -34 18 -44 -17 -44 5 -2 68 44 67 46 73 25 73 -8 0
-28 -20 -45 -45z"/>
<path d="M1865 5618 c-2 -7 -14 -66 -25 -132 -11 -65 -30 -144 -40 -174 -23
-64 -26 -106 -8 -100 6 2 19 25 27 50 17 50 46 88 68 88 16 0 17 -38 3 -76 -8
-21 -8 -29 2 -35 20 -13 27 2 34 68 6 55 5 62 -15 72 -15 9 -26 9 -42 0 -18
-9 -20 -8 -15 8 3 10 13 63 21 117 9 55 17 103 18 109 3 15 -22 20 -28 5z"/>
<path d="M3120 5596 c0 -13 -16 -57 -35 -98 -31 -64 -39 -74 -67 -78 -40 -6
-50 -30 -13 -30 24 0 26 -3 20 -22 -27 -87 -28 -107 -11 -133 21 -31 69 -32
74 -1 3 16 0 18 -22 12 -35 -9 -43 25 -19 89 18 48 21 50 66 59 53 10 58 31 9
31 -18 0 -32 3 -32 8 0 4 14 34 30 67 33 65 40 120 15 120 -9 0 -15 -9 -15
-24z"/>
<path d="M12406 5453 c-85 -167 -102 -212 -79 -220 6 -2 39 24 74 59 66 67 86
66 50 -3 -23 -44 -27 -73 -9 -67 19 7 57 90 58 126 0 28 -3 32 -25 32 -15 0
-42 -15 -65 -36 l-40 -36 52 108 c29 60 63 126 76 147 26 44 27 57 8 57 -8 0
-50 -70 -100 -167z"/>
<path d="M7350 5595 c-7 -9 -19 -51 -26 -95 -19 -118 -41 -187 -74 -223 -25
-27 -31 -30 -40 -17 -16 24 -12 60 11 96 17 28 25 33 46 28 21 -6 24 -3 21 12
-8 45 -73 22 -104 -38 -33 -64 -3 -147 49 -134 51 12 98 113 119 254 7 47 18
85 30 98 10 11 18 23 18 27 0 13 -38 7 -50 -8z"/>
<path d="M3522 5563 c-6 -21 -16 -64 -22 -95 l-11 -58 -39 0 c-36 0 -60 -14
-47 -27 3 -3 21 -5 40 -5 l34 0 -18 -70 c-10 -39 -16 -75 -13 -80 8 -13 34 11
34 31 0 10 7 40 15 68 11 36 22 53 41 61 26 13 28 39 2 34 -13 -2 -13 6 -2 64
6 36 17 71 22 76 6 6 8 17 5 24 -10 26 -30 14 -41 -23z"/>
<path d="M3590 5478 c-18 -68 -38 -143 -45 -168 -22 -79 -1 -93 41 -26 27 43
61 72 72 62 3 -3 0 -30 -7 -60 -9 -41 -9 -60 -1 -76 15 -28 27 -18 29 27 8
133 7 138 -17 141 -13 2 -35 -4 -49 -13 -24 -16 -25 -16 -19 2 23 76 55 216
51 224 -14 22 -24 2 -55 -113z"/>
<path d="M4706 5578 c-20 -70 -43 -134 -54 -145 -7 -7 -26 -13 -42 -13 -39 0
-60 -9 -60 -27 0 -11 9 -13 47 -7 45 7 46 6 40 -17 -16 -55 -18 -96 -8 -122
10 -25 15 -28 48 -25 26 2 39 8 41 20 3 15 -2 17 -26 12 -39 -8 -46 12 -29 86
12 52 14 55 45 58 35 4 46 32 12 32 -11 0 -20 -4 -20 -10 0 -5 -4 -10 -9 -10
-5 0 1 26 14 58 30 74 36 122 15 122 -6 0 -12 -6 -14 -12z"/>
<path d="M5365 5568 c-2 -7 -13 -50 -24 -95 -11 -45 -30 -101 -41 -123 -21
-41 -22 -41 -41 -24 -16 14 -24 15 -44 6 -49 -23 -44 -114 7 -120 24 -3 33 5
64 53 20 31 43 73 51 93 21 50 62 210 55 217 -9 9 -22 6 -27 -7z m-116 -281
c8 -11 6 -18 -9 -32 -18 -16 -20 -16 -26 -1 -7 19 1 46 14 46 5 0 15 -6 21
-13z"/>
<path d="M6026 5573 c-13 -14 -5 -33 14 -33 11 0 20 6 20 14 0 15 -24 28 -34
19z"/>
<path d="M10734 5561 c-61 -37 -100 -114 -139 -271 -19 -76 -19 -82 8 -78 15
2 21 9 20 23 -2 11 0 30 2 43 5 19 12 22 49 22 40 0 74 19 60 33 -4 3 -26 4
-50 0 -24 -3 -44 -3 -44 0 0 3 9 34 20 69 13 43 32 77 55 101 36 37 55 46 55
27 0 -5 7 -10 16 -10 11 0 14 8 12 27 -4 35 -24 39 -64 14z"/>
<path d="M1405 5560 c-8 -12 6 -17 65 -24 25 -2 70 -8 101 -12 l56 -7 -33
-126 c-36 -132 -40 -184 -13 -189 12 -2 15 7 16 45 0 44 39 205 63 261 6 15
18 22 35 22 29 0 65 16 65 29 0 10 -105 6 -133 -5 -10 -3 -49 -2 -87 5 -85 14
-127 14 -135 1z"/>
<path d="M9750 5547 c0 -13 -25 -77 -55 -143 -59 -129 -67 -172 -35 -204 32
-32 158 -21 152 14 -2 11 1 15 7 11 6 -3 11 -1 11 4 0 15 -13 14 -46 -4 -35
-18 -86 -19 -102 -3 -21 21 -13 54 43 173 60 129 70 167 43 173 -13 3 -18 -3
-18 -21z"/>
<path d="M15197 5525 c-10 -25 -25 -66 -34 -92 -21 -60 -17 -57 -41 -42 -25
16 -63 -7 -92 -54 -25 -40 -25 -59 -1 -88 16 -20 23 -22 47 -14 37 13 89 102
128 219 22 62 34 85 44 81 9 -3 12 1 10 13 -2 9 -13 18 -24 20 -17 2 -24 -6
-37 -43z m-79 -185 c1 -8 -11 -31 -27 -50 -25 -29 -32 -33 -41 -20 -13 20 -13
20 10 58 21 34 52 41 58 12z"/>
<path d="M13014 5533 c-7 -34 -46 -161 -70 -226 -24 -69 -8 -80 48 -33 l43 37
5 -53 c6 -69 32 -75 34 -8 3 89 -23 112 -79 68 l-28 -21 12 22 c10 17 80 226
81 239 0 1 -9 2 -20 2 -13 0 -22 -9 -26 -27z"/>
<path d="M14383 5533 c-24 -68 -80 -173 -95 -176 -26 -7 -43 -52 -32 -85 29
-83 214 -28 214 64 0 27 -5 37 -24 45 -20 10 -32 7 -69 -14 l-45 -25 44 95
c24 53 44 99 44 104 0 16 -31 9 -37 -8z m57 -202 c0 -26 -43 -59 -87 -67 -58
-11 -59 9 -1 49 58 41 88 47 88 18z"/>
<path d="M2662 5473 c4 -21 33 -25 33 -3 0 8 -8 16 -18 18 -14 3 -18 -1 -15
-15z"/>
<path d="M3826 5482 c-2 -4 -1 -14 4 -22 7 -11 12 -12 21 -3 6 6 8 16 5 22 -8
13 -23 14 -30 3z"/>
<path d="M10400 5461 c-14 -26 -13 -41 3 -41 16 0 40 38 32 50 -10 16 -23 12
-35 -9z"/>
<path d="M12644 5446 c-8 -22 3 -33 18 -18 9 9 9 15 0 24 -9 9 -13 7 -18 -6z"/>
<path d="M8275 5407 c-38 -38 -57 -115 -35 -142 29 -35 160 -10 160 31 0 18
-15 18 -45 -2 -27 -17 -86 -15 -93 4 -2 6 3 12 12 12 28 0 79 54 79 84 0 26
-16 45 -36 46 -5 0 -24 -15 -42 -33z m45 -13 c0 -14 -21 -42 -35 -48 -14 -5
-14 -2 0 24 13 26 35 41 35 24z"/>
<path d="M6706 5409 c-53 -42 -99 -169 -61 -169 8 0 15 7 15 15 0 8 0 18 1 23
1 14 52 97 67 109 12 10 19 10 29 1 21 -17 41 6 23 27 -17 21 -42 19 -74 -6z"/>
<path d="M14566 5397 c-35 -46 -43 -90 -21 -123 15 -24 22 -26 67 -22 45 5 90
30 76 43 -3 3 -26 0 -52 -7 -41 -11 -48 -10 -64 6 -12 13 -13 20 -5 23 30 11
78 50 81 66 5 23 -15 47 -39 47 -10 0 -29 -15 -43 -33z m30 -25 c-18 -16 -18
-16 -6 6 6 13 14 21 18 18 3 -4 -2 -14 -12 -24z"/>
<path d="M2721 5394 c-19 -24 -61 -144 -61 -173 0 -6 6 -11 14 -11 11 0 30 46
40 100 7 39 30 70 52 70 31 0 39 17 15 29 -29 16 -37 14 -60 -15z"/>
<path d="M2021 5384 c-12 -15 -21 -30 -21 -35 0 -4 -10 -9 -22 -11 -27 -4 -31
-34 -5 -32 12 1 17 -6 17 -23 0 -64 53 -83 119 -42 46 28 28 47 -22 23 -45
-22 -69 -13 -65 23 2 20 9 29 26 31 30 5 66 60 50 79 -17 21 -55 15 -77 -13z
m49 -8 c0 -2 -8 -10 -17 -17 -16 -13 -17 -12 -4 4 13 16 21 21 21 13z"/>
<path d="M12068 5382 c-27 -15 -48 -33 -48 -39 0 -19 17 -16 66 13 25 15 47
24 50 21 11 -10 -10 -59 -42 -99 -55 -69 -39 -92 25 -39 l35 29 28 -21 c39
-29 72 -12 98 49 24 54 25 64 6 64 -8 0 -21 -17 -29 -38 -22 -55 -39 -67 -62
-42 -10 11 -24 20 -30 20 -9 0 -10 9 -2 38 20 76 -13 92 -95 44z"/>
<path d="M15683 5391 c-70 -32 -103 -114 -68 -167 15 -23 21 -25 53 -19 59 11
102 32 102 51 0 17 -4 17 -75 -10 -35 -13 -42 -13 -55 0 -18 18 -7 29 62 63
39 19 54 33 59 54 6 21 3 29 -11 37 -23 12 -17 13 -67 -9z m38 -35 c-17 -21
-71 -39 -65 -22 6 15 41 34 63 35 10 1 11 -2 2 -13z"/>
<path d="M5430 5388 c0 -6 -14 -23 -31 -37 -40 -34 -52 -103 -21 -120 25 -14
78 3 92 29 13 24 13 96 0 121 -12 21 -40 26 -40 7z m20 -76 c0 -33 -16 -52
-43 -52 -16 0 -18 5 -13 28 7 26 31 52 48 52 4 0 8 -13 8 -28z"/>
<path d="M4814 5367 c-48 -49 -53 -96 -14 -117 42 -23 100 17 100 68 0 30 -28
72 -49 71 -9 0 -26 -10 -37 -22z m54 -52 c-1 -10 -12 -24 -24 -32 -18 -12 -23
-11 -33 1 -11 12 -8 20 14 42 28 28 50 22 43 -11z"/>
<path d="M6113 5378 c-31 -15 -29 -38 7 -95 l31 -48 -23 -3 c-14 -3 -29 4 -39
17 -19 24 -39 28 -39 8 0 -44 93 -75 121 -41 11 14 9 25 -19 74 -30 56 -31 59
-12 65 10 3 29 1 40 -5 20 -11 40 -6 40 10 0 8 -55 30 -74 29 -6 0 -21 -5 -33
-11z"/>
<path d="M6807 5351 c-60 -66 -58 -134 4 -166 36 -19 97 -13 106 11 8 22 1 25
-36 14 -61 -17 -101 22 -80 79 11 28 47 71 61 71 19 0 6 -30 -24 -54 -24 -18
-30 -28 -22 -36 8 -8 20 -4 43 16 43 36 54 59 41 84 -17 32 -54 25 -93 -19z"/>
<path d="M7034 5375 c-35 -15 -76 -62 -72 -83 5 -27 35 -38 67 -25 27 10 31 9
36 -8 8 -26 34 -50 46 -44 5 4 2 19 -6 35 -11 22 -12 35 -4 59 20 56 -13 89
-67 66z m34 -37 c-7 -19 -55 -51 -69 -46 -9 3 -5 12 13 31 27 27 63 37 56 15z"/>
<path d="M3892 5365 c-23 -17 -82 -123 -82 -150 0 -31 26 -13 44 31 22 53 64
107 77 98 14 -8 11 -102 -3 -107 -10 -3 -10 -7 -1 -17 23 -24 41 -3 45 52 8
90 -27 130 -80 93z"/>
<path d="M13469 5357 c-15 -12 -34 -37 -44 -56 -14 -28 -15 -38 -4 -62 13 -33
28 -43 77 -53 36 -6 77 9 67 25 -4 5 -25 9 -49 9 -23 0 -47 5 -54 12 -21 21
-13 58 17 89 32 31 51 37 51 15 0 -19 30 -29 36 -12 3 8 1 24 -6 35 -14 28
-57 27 -91 -2z"/>
<path d="M15262 5345 c-54 -61 -54 -117 1 -123 59 -7 91 37 79 110 -10 58 -37
62 -80 13z m48 -44 c0 -31 -16 -51 -42 -51 -23 0 -23 17 2 58 23 37 40 34 40
-7z"/>
<path d="M5941 5348 c-12 -12 -26 -36 -32 -52 -6 -17 -29 -43 -51 -59 -21 -15
-36 -32 -33 -37 9 -15 31 -12 45 5 18 21 28 19 32 -7 2 -18 10 -23 35 -24 19
-1 39 6 48 17 22 24 0 37 -25 14 -17 -16 -19 -15 -30 5 -9 18 -6 28 19 67 31
47 39 77 22 88 -6 3 -19 -5 -30 -17z"/>
<path d="M10337 5337 c-33 -68 -37 -85 -23 -96 15 -13 26 -5 26 18 0 9 9 33
20 54 24 44 25 57 6 57 -7 0 -21 -15 -29 -33z"/>
<path d="M10802 5360 c-30 -13 -84 -99 -80 -130 2 -19 10 -26 31 -28 55 -7
137 82 121 131 -11 36 -30 43 -72 27z m7 -96 c-36 -37 -66 -46 -55 -16 13 32
51 81 66 84 29 6 22 -34 -11 -68z"/>
<path d="M15477 5359 c-10 -6 -25 -8 -33 -5 -9 3 -19 -6 -27 -27 -8 -18 -21
-38 -30 -46 -10 -7 -17 -20 -17 -27 0 -26 29 -14 56 22 26 34 81 71 91 61 2
-3 -10 -27 -26 -55 -35 -56 -37 -62 -16 -62 21 0 76 90 73 120 -3 28 -39 38
-71 19z"/>
<path d="M3750 5294 c-9 -47 -10 -68 -2 -76 13 -13 14 -10 31 64 14 62 14 78
-3 78 -9 0 -18 -22 -26 -66z"/>
<path d="M10413 5318 c-27 -22 -49 -47 -51 -54 -6 -26 29 -14 64 21 19 19 37
35 41 35 3 0 3 -22 -1 -49 -4 -32 -3 -52 4 -56 6 -4 14 -5 17 -2 9 10 16 85 9
110 -10 41 -32 39 -83 -5z"/>
<path d="M12718 5338 c-65 -37 -71 -93 -16 -132 26 -18 90 -21 119 -6 35 19
20 29 -35 23 -46 -5 -57 -2 -75 16 -17 17 -19 25 -11 41 13 25 67 53 87 46 22
-9 36 3 22 20 -16 20 -48 17 -91 -8z"/>
<path d="M2843 5344 c-17 -7 -16 -30 2 -58 9 -13 13 -31 9 -40 -7 -17 -24 -22
-24 -6 0 6 -7 10 -15 10 -21 0 -19 -23 4 -44 24 -21 46 -12 62 26 11 26 10 35
-4 59 l-16 29 30 0 c20 0 29 4 27 13 -5 13 -54 20 -75 11z"/>
<path d="M12562 5338 c-7 -7 -12 -18 -12 -25 0 -7 -8 -28 -17 -48 -9 -19 -14
-37 -11 -40 9 -9 38 6 38 20 0 7 7 26 15 41 8 16 15 34 15 41 0 18 -15 24 -28
11z"/>
<path d="M2581 5323 c-19 -37 -17 -93 4 -93 11 0 15 9 13 28 -1 15 4 37 10 48
11 21 7 34 -9 34 -5 0 -12 -8 -18 -17z"/>
<path d="M4085 5318 c-9 -6 -24 -26 -32 -45 -13 -32 -13 -38 1 -51 14 -14 19
-14 50 1 l35 16 -6 -32 c-4 -18 -14 -61 -23 -97 l-16 -65 -42 -6 c-59 -8 -75
-27 -80 -97 -3 -44 0 -61 12 -71 24 -20 54 4 96 78 31 55 38 60 60 55 41 -10
53 -10 57 3 2 7 -12 17 -34 23 l-39 12 22 90 c13 49 24 113 25 141 l3 52 -36
1 c-20 1 -43 -3 -53 -8z m45 -38 c0 -12 -40 -34 -47 -26 -9 8 17 36 33 36 8 0
14 -4 14 -10z m-61 -292 c-6 -13 -23 -39 -38 -58 l-26 -35 -6 40 c-5 32 -3 43
14 57 11 10 31 18 44 18 21 0 23 -2 12 -22z"/>
<path d="M13822 5307 c-40 -30 -72 -70 -72 -91 0 -25 25 -19 41 10 7 14 27 37
43 51 39 33 54 17 33 -35 -9 -23 -12 -44 -7 -52 11 -18 14 -15 34 34 38 91 0
135 -72 83z"/>
<path d="M13621 5294 c-25 -32 -27 -57 -6 -74 12 -10 21 -10 40 -2 22 10 24 9
27 -15 2 -15 9 -28 16 -31 8 -2 12 11 12 47 0 56 -13 71 -40 46 -22 -20 -44
-17 -31 4 5 8 26 17 47 20 56 9 56 31 1 31 -37 0 -49 -5 -66 -26z"/>
<path d="M11594 5295 c-9 -24 5 -36 27 -25 25 14 24 26 -2 33 -12 3 -22 0 -25
-8z"/>
<path d="M11445 5259 c-10 -15 1 -23 20 -15 9 3 13 10 10 16 -8 13 -22 13 -30
-1z"/>
<path d="M11235 5250 c-8 -13 3 -30 20 -30 20 0 30 21 14 31 -18 11 -26 11
-34 -1z"/>
<path d="M5190 5169 c-58 -9 -231 -14 -265 -8 -13 3 -20 -1 -20 -11 0 -24 63
-30 201 -19 73 6 149 12 170 12 28 2 40 7 42 20 4 19 -30 21 -128 6z"/>
<path d="M7420 5154 c0 -14 -15 -59 -34 -100 l-35 -74 -46 0 c-56 0 -58 -23
-3 -28 l36 -3 -1 -67 c-1 -84 7 -108 44 -127 24 -13 36 -14 69 -4 21 7 41 18
44 25 4 11 -7 12 -54 7 -56 -5 -59 -5 -64 18 -7 31 -9 65 -8 111 2 32 6 37 32
42 17 3 44 9 60 12 21 4 30 11 30 25 0 20 -24 26 -35 9 -6 -10 -65 -14 -65 -5
0 3 13 32 30 64 16 33 32 73 35 90 4 26 2 31 -15 31 -15 0 -20 -7 -20 -26z"/>
<path d="M5349 5163 c-1 -5 -1 -12 1 -18 7 -40 -47 -227 -92 -319 -13 -25 -16
-42 -10 -48 12 -12 22 -1 68 75 54 88 96 70 73 -32 -11 -50 -7 -71 16 -71 17
0 16 -7 18 93 2 68 -1 81 -18 93 -12 9 -30 12 -44 9 -19 -5 -22 -3 -17 10 13
36 36 148 36 181 0 24 -5 34 -15 34 -8 0 -16 -3 -16 -7z"/>
<path d="M10099 5168 c0 -2 -2 -10 -4 -18 -5 -23 -94 -239 -121 -292 -48 -96
-21 -92 73 9 39 43 74 75 77 72 4 -4 -1 -26 -9 -50 -24 -65 -29 -89 -16 -89
12 0 45 61 55 103 16 68 -27 88 -85 40 l-32 -27 8 25 c4 13 25 64 46 112 43
96 47 117 24 117 -8 0 -15 -1 -16 -2z"/>
<path d="M2110 5120 c-130 -141 -168 -403 -78 -536 24 -36 72 -64 108 -64 30
0 20 22 -14 31 -70 19 -111 101 -110 219 0 85 17 166 47 225 27 54 89 134 105
135 6 0 12 7 12 15 0 27 -32 16 -70 -25z"/>
<path d="M1409 5138 c-1 -7 0 -23 1 -36 2 -24 -12 -113 -36 -241 -8 -40 -14
-75 -14 -77 0 -2 16 -11 35 -20 33 -15 37 -15 60 0 31 21 83 91 92 125 4 18 0
29 -17 43 -32 26 -47 23 -86 -16 -29 -29 -33 -31 -30 -12 16 78 27 176 24 205
-3 33 -27 57 -29 29z m111 -237 c0 -23 -67 -106 -88 -109 -21 -3 -23 -1 -17
20 15 49 54 98 80 98 14 0 25 -4 25 -9z"/>
<path d="M10921 5118 c-5 -18 -32 -85 -60 -148 -53 -122 -75 -206 -50 -198 7
2 18 24 25 49 6 24 37 102 69 172 52 118 61 157 36 157 -6 0 -14 -15 -20 -32z"/>
<path d="M4284 5127 c-4 -10 6 -27 28 -46 32 -29 33 -31 37 -123 7 -177 -41
-319 -129 -386 -53 -40 -60 -52 -31 -52 12 0 42 19 68 43 l46 42 -7 -40 c-19
-105 -24 -115 -61 -115 -24 0 -35 -5 -35 -15 0 -10 10 -15 30 -15 17 0 30 -1
30 -2 0 -2 -7 -24 -15 -50 -9 -32 -10 -50 -4 -54 15 -9 24 5 39 58 12 45 14
47 53 50 53 4 63 28 12 28 l-38 0 7 38 c19 110 19 122 3 122 -14 0 -14 4 2 33
63 108 84 338 39 427 -28 52 -64 81 -74 57z"/>
<path d="M14090 5119 c0 -11 -27 -58 -60 -103 -52 -72 -64 -83 -85 -78 -28 5
-34 -12 -9 -26 15 -8 15 -12 0 -40 -35 -68 -9 -137 48 -130 36 4 36 22 0 28
-36 6 -43 37 -19 91 18 40 20 40 125 51 14 2 25 9 25 18 0 12 -10 14 -47 12
-27 -2 -48 0 -48 5 0 4 20 33 44 64 55 70 67 94 60 113 -9 23 -34 19 -34 -5z"/>
<path d="M5125 5008 c-15 -57 -38 -133 -52 -170 -14 -37 -23 -75 -19 -83 14
-38 25 -14 90 205 19 63 37 123 41 133 5 13 2 17 -13 17 -16 0 -24 -17 -47
-102z"/>
<path d="M10772 5093 c-5 -10 -22 -57 -36 -106 l-27 -87 -24 16 c-28 19 -50
10 -89 -37 -31 -37 -32 -53 -5 -80 28 -28 65 -19 105 27 22 24 43 68 68 147
20 62 36 119 36 125 0 18 -18 14 -28 -5z m-85 -211 c17 -11 -31 -62 -57 -62
-29 0 -32 15 -9 44 21 26 43 32 66 18z"/>
<path d="M12419 5103 c-3 -38 -10 -65 -27 -108 -16 -40 -25 -51 -46 -53 -15
-2 -26 -10 -26 -19 0 -10 6 -14 20 -10 24 6 25 -8 5 -56 -8 -20 -15 -52 -15
-72 0 -47 30 -50 31 -2 0 17 8 55 18 82 17 48 20 50 67 61 33 7 50 16 52 27 5
25 -23 31 -53 11 -14 -9 -28 -15 -30 -12 -3 2 4 28 15 56 24 63 26 102 5 102
-8 0 -15 -3 -16 -7z"/>
<path d="M9228 5015 c-49 -79 -55 -85 -83 -83 -37 4 -43 -25 -7 -30 20 -3 23
-8 17 -25 -17 -50 -17 -103 -1 -116 20 -17 85 -6 93 15 8 23 -4 29 -31 15 -44
-24 -59 11 -32 74 11 27 18 31 81 40 43 6 70 15 73 24 4 12 -7 13 -63 7 l-68
-7 18 28 c10 15 33 49 51 76 37 51 42 67 20 67 -8 0 -39 -38 -68 -85z"/>
<path d="M3792 5069 c-29 -77 -91 -269 -96 -297 -5 -28 -3 -33 11 -30 11 2 20
18 25 43 5 22 27 95 50 163 31 92 39 125 30 134 -8 8 -14 5 -20 -13z"/>
<path d="M13330 5045 c0 -8 7 -15 15 -15 8 0 15 7 15 15 0 8 -7 15 -15 15 -8
0 -15 -7 -15 -15z"/>
<path d="M2360 4985 c-13 -14 -33 -25 -44 -25 -18 0 -25 -13 -44 -81 -21 -77
-22 -106 -1 -93 5 3 25 38 44 78 19 39 43 80 55 91 20 18 20 18 20 -14 0 -22
4 -31 13 -29 25 9 20 98 -6 98 -8 0 -24 -11 -37 -25z"/>
<path d="M6826 4985 c-9 -25 -8 -27 17 -23 12 2 22 10 22 18 0 21 -31 24 -39
5z"/>
<path d="M8038 4974 c-27 -13 -48 -31 -48 -39 0 -20 2 -19 60 10 27 14 54 25
60 25 22 0 8 -41 -35 -98 -45 -59 -54 -85 -35 -97 14 -8 46 11 96 57 l43 40
22 -36 c11 -20 27 -36 35 -36 29 0 73 129 54 160 -15 24 -37 4 -32 -29 2 -17
-1 -45 -8 -62 l-13 -30 -20 30 c-23 38 -46 39 -78 5 -13 -14 -33 -31 -44 -36
-14 -8 -12 -2 9 23 37 43 59 95 51 120 -9 27 -58 24 -117 -7z"/>
<path d="M11001 4953 c-24 -24 -41 -51 -45 -72 -5 -28 -1 -38 28 -67 35 -35
60 -41 124 -28 40 8 78 42 63 57 -7 7 -16 6 -29 -6 -28 -25 -97 -33 -127 -13
-28 18 -33 36 -10 36 25 0 92 38 99 55 10 26 7 42 -10 59 -25 25 -52 19 -93
-21z m74 -14 c0 -17 -71 -57 -82 -45 -10 10 55 68 70 63 7 -2 12 -10 12 -18z"/>
<path d="M11710 4954 c-22 -20 -43 -34 -47 -30 -13 13 -33 -18 -33 -50 0 -48
19 -43 64 16 41 53 70 75 86 65 18 -11 32 5 19 21 -19 23 -47 16 -89 -22z"/>
<path d="M14856 4974 c-27 -15 -28 -18 -21 -62 14 -84 12 -106 -9 -110 -10 -2
-23 3 -28 12 -11 20 -28 12 -28 -14 0 -21 4 -25 42 -34 45 -10 72 24 65 83 -3
25 -9 56 -12 68 -6 18 -2 25 20 33 15 6 25 15 23 22 -6 18 -20 19 -52 2z"/>
<path d="M6630 4973 c-35 -13 -70 -46 -70 -65 0 -11 8 -32 18 -46 30 -44 33
-50 22 -57 -6 -4 -9 -1 -8 6 2 6 -3 14 -9 16 -18 7 -28 -24 -13 -42 19 -23 49
-18 62 9 9 21 6 32 -15 69 -25 42 -25 45 -9 60 9 8 27 18 40 22 13 4 21 12 19
18 -4 13 -17 17 -37 10z"/>
<path d="M15005 4951 c-49 -28 -85 -73 -85 -106 0 -31 28 -71 63 -90 l36 -19
70 28 c41 16 71 34 71 42 0 19 -7 18 -79 -11 -68 -28 -88 -25 -117 21 -14 20
-15 29 -5 51 9 20 15 23 23 15 45 -45 167 36 128 83 -18 22 -49 18 -105 -14z
m75 -16 c0 -16 -59 -47 -72 -39 -15 10 -8 21 25 37 41 20 47 20 47 2z"/>
<path d="M2533 4938 c-59 -63 -68 -104 -28 -143 27 -27 68 -32 110 -13 41 18
30 31 -21 23 -62 -9 -106 25 -50 39 37 9 86 55 86 80 0 54 -52 61 -97 14z m67
-7 c0 -18 -65 -69 -75 -59 -2 2 7 18 21 36 24 30 54 43 54 23z"/>
<path d="M3220 4904 c-19 -37 -51 -79 -70 -95 -27 -22 -32 -31 -22 -41 9 -9
18 -6 40 15 20 19 34 25 50 20 16 -4 34 3 61 25 l38 30 -5 -47 c-3 -32 0 -51
8 -56 15 -10 29 11 23 35 -3 10 2 43 11 73 9 30 16 58 16 61 0 15 -32 3 -52
-20 -13 -14 -37 -36 -55 -50 l-33 -25 10 25 c5 14 18 44 29 65 10 22 16 42 13
45 -15 15 -30 0 -62 -60z"/>
<path d="M6223 4952 c-12 -9 -29 -34 -38 -54 -34 -84 -5 -146 63 -133 39 7 85
42 76 56 -3 5 -14 4 -25 -1 -11 -6 -17 -14 -15 -19 3 -4 -14 -5 -37 -2 -54 8
-60 31 -12 54 41 19 60 54 51 91 -7 30 -31 33 -63 8z m33 -39 c-6 -19 -46 -49
-46 -34 0 12 41 63 47 57 3 -2 2 -13 -1 -23z"/>
<path d="M7145 4939 c-41 -37 -43 -48 -12 -86 32 -38 40 -63 22 -63 -8 0 -15
5 -15 10 0 6 -7 10 -15 10 -18 0 -20 -21 -3 -38 17 -17 67 -15 74 3 9 22 -2
57 -26 82 -26 29 -26 34 10 68 27 26 31 45 10 45 -5 0 -25 -14 -45 -31z"/>
<path d="M12522 4950 c-31 -19 -62 -71 -62 -104 0 -8 10 -27 23 -41 29 -34
107 -47 132 -21 15 15 13 16 -22 16 -85 0 -115 28 -60 56 51 27 78 60 68 87
-11 29 -39 32 -79 7z m48 -25 c0 -14 -58 -51 -66 -42 -5 4 53 57 62 57 2 0 4
-7 4 -15z"/>
<path d="M12736 4947 c-26 -21 -28 -25 -16 -48 7 -13 16 -26 19 -29 3 -3 12
-13 20 -22 18 -23 -1 -48 -30 -41 -17 5 -20 2 -17 -18 4 -33 33 -35 63 -5 32
32 32 57 0 94 -32 39 -31 48 5 61 17 5 30 15 30 20 0 19 -44 12 -74 -12z"/>
<path d="M2755 4946 c-74 -32 -63 -145 13 -132 27 4 33 2 28 -10 -3 -8 -19
-60 -35 -117 -17 -56 -37 -122 -46 -146 -24 -69 -3 -71 45 -6 29 40 56 63 86
77 25 10 42 23 39 29 -10 16 -41 10 -79 -16 l-36 -24 0 35 c0 19 4 33 8 30 4
-2 19 34 32 82 13 48 34 105 47 128 42 74 22 104 -22 34 -43 -69 -95 -88 -95
-36 0 33 25 53 45 36 12 -10 19 -10 28 -1 8 8 7 16 -8 30 -18 18 -23 18 -50 7z"/>
<path d="M3488 4932 c-27 -32 -74 -149 -65 -159 15 -14 36 10 52 59 26 81 41
99 71 92 22 -6 25 -4 22 12 -6 32 -51 30 -80 -4z"/>
<path d="M5527 4949 c-49 -29 -61 -116 -21 -156 35 -35 97 -28 137 17 27 31
34 50 18 50 -5 0 -14 -7 -22 -16 -35 -42 -119 -55 -119 -19 0 8 4 15 9 15 15
0 81 74 81 91 0 28 -48 38 -83 18z m43 -27 c0 -12 -49 -56 -55 -50 -7 7 34 58
46 58 5 0 9 -4 9 -8z"/>
<path d="M8384 4941 c-35 -21 -74 -78 -74 -108 0 -41 35 -53 83 -29 15 8 27
11 27 5 0 -5 7 -9 15 -9 9 0 14 9 14 23 0 12 2 39 6 60 10 50 -9 49 -35 -3
-12 -23 -32 -45 -46 -50 -33 -13 -34 -13 -34 6 0 24 74 94 100 94 13 0 20 5
18 13 -7 19 -40 19 -74 -2z"/>
<path d="M13412 4948 c-17 -17 -15 -42 8 -71 24 -30 25 -50 5 -67 -18 -15 -35
-5 -35 20 0 26 -17 34 -28 13 -25 -48 35 -90 83 -59 31 21 33 67 5 103 -28 36
-25 41 18 45 20 2 37 8 37 13 0 15 -78 18 -93 3z"/>
<path d="M14630 4952 c0 -18 -111 -130 -145 -146 -20 -10 -34 -23 -32 -29 6
-17 33 -10 78 19 29 18 39 21 39 10 0 -23 23 -25 55 -5 l31 18 -1 -27 c0 -17
6 -28 17 -30 13 -3 18 3 17 20 -1 13 6 43 15 67 31 85 14 94 -46 26 -61 -69
-74 -54 -21 25 27 40 29 60 8 60 -8 0 -15 -4 -15 -8z"/>
<path d="M1723 4933 c-22 -62 -63 -152 -110 -241 -38 -71 -52 -107 -45 -114 7
-7 14 -3 23 13 7 13 26 47 42 74 83 148 135 285 108 285 -6 0 -14 -8 -18 -17z"/>
<path d="M6396 4923 c-37 -40 -51 -79 -36 -98 18 -22 40 -18 72 12 27 25 28
26 28 6 0 -30 10 -53 24 -53 14 0 16 142 1 152 -22 17 -65 7 -89 -19z m55 -20
c-5 -10 -21 -29 -35 -42 -33 -31 -36 -7 -5 33 24 30 56 37 40 9z"/>
<path d="M9341 4903 c-39 -58 -38 -92 3 -112 41 -19 91 6 112 56 14 33 14 40
0 70 -13 28 -21 33 -50 33 -30 0 -38 -6 -65 -47z m87 0 c17 -33 -16 -83 -54
-83 -34 0 -38 16 -13 60 24 43 52 52 67 23z"/>
<path d="M11850 4914 c-34 -30 -40 -43 -38 -68 2 -21 11 -35 31 -46 24 -13 30
-13 55 0 42 24 57 64 40 108 -8 20 -21 38 -30 40 -9 2 -35 -14 -58 -34z m60
-39 c0 -37 -25 -60 -54 -49 -22 9 -20 34 6 61 31 33 48 29 48 -12z"/>
<path d="M13221 4921 c-28 -26 -51 -68 -51 -92 0 -5 9 -18 20 -29 17 -17 23
-18 40 -8 26 17 25 26 -2 30 -34 5 -25 36 22 79 22 20 40 39 40 43 0 16 -41 3
-69 -23z"/>
<path d="M8524 4915 c-9 -34 2 -96 18 -107 18 -11 40 -10 33 1 -3 5 -1 12 5
16 22 14 8 -18 -34 -72 -61 -81 -98 -158 -94 -196 4 -41 21 -38 29 5 6 39 42
104 127 229 59 88 77 139 49 139 -7 0 -17 -15 -23 -32 -5 -20 -15 -32 -23 -30
-7 2 -21 -4 -31 -13 -18 -17 -30 -11 -30 16 0 9 -6 20 -12 22 -8 3 -5 6 5 6
12 1 17 7 15 18 -5 27 -27 26 -34 -2z"/>
<path d="M10242 4924 c-57 -40 -59 -114 -3 -114 16 0 33 6 38 13 5 8 9 2 13
-17 8 -46 27 -42 33 6 4 24 9 55 13 71 5 20 3 27 -9 27 -8 0 -20 7 -27 15 -16
19 -30 19 -58 -1z m51 -31 c9 -9 -33 -53 -50 -53 -16 0 -17 14 -3 41 10 19 40
26 53 12z"/>
<path d="M6944 4919 c-50 -18 -80 -101 -54 -149 17 -31 72 -44 114 -26 20 8
36 22 36 30 0 19 1 19 -41 2 -34 -14 -70 -8 -83 12 -3 6 10 20 29 32 42 26 53
44 47 75 -5 28 -19 35 -48 24z m-2 -61 c-12 -13 -22 -17 -22 -11 0 15 31 46
38 38 3 -3 -4 -15 -16 -27z"/>
<path d="M12059 4897 c-12 -18 -46 -51 -75 -72 -50 -38 -68 -65 -42 -65 6 0
26 11 45 26 24 19 33 21 33 10 0 -8 4 -18 10 -21 14 -8 73 21 101 51 25 27 41
32 33 10 -7 -19 13 -56 30 -56 8 0 19 7 26 15 10 12 9 16 -4 21 -13 5 -15 15
-10 55 4 32 3 49 -4 49 -6 0 -39 -25 -74 -55 -34 -30 -66 -55 -70 -55 -15 0
-8 16 22 56 16 21 30 45 30 52 0 24 -30 12 -51 -21z"/>
<path d="M14146 4900 c-41 -36 -53 -65 -36 -85 36 -43 113 11 108 74 -4 47
-26 51 -72 11z m44 -24 c0 -19 -27 -46 -46 -46 -16 0 -12 12 14 43 18 21 32
22 32 3z"/>
<path d="M1568 4914 c-4 -3 -3 -18 2 -32 5 -15 11 -44 15 -65 5 -33 27 -58 40
-45 2 2 -4 35 -13 72 -16 64 -29 86 -44 70z"/>
<path d="M10445 4904 c-11 -8 -25 -12 -32 -10 -17 7 -78 -103 -64 -117 8 -8
16 -4 28 13 22 33 91 100 103 100 6 0 10 -29 10 -65 0 -49 3 -65 14 -65 17 0
27 101 14 138 -9 26 -43 29 -73 6z"/>
<path d="M6771 4878 c-18 -51 -20 -75 -6 -94 16 -23 20 -15 29 58 6 51 -9 74
-23 36z"/>
<path d="M2996 4783 c-4 -9 -3 -20 1 -24 11 -11 46 17 38 30 -10 17 -32 13
-39 -6z"/>
<path d="M1755 4728 c-3 -7 -17 -56 -33 -108 l-28 -95 -48 3 c-57 4 -61 -17
-5 -32 19 -5 35 -10 37 -12 8 -5 -50 -128 -65 -140 -17 -12 -17 -14 -1 -30 15
-15 17 -15 33 9 9 15 30 59 45 99 27 70 30 73 64 76 20 2 36 1 36 -1 0 -2 -11
-37 -25 -77 -38 -113 -31 -131 22 -56 30 43 79 84 88 74 2 -2 -2 -26 -10 -52
-11 -34 -12 -53 -4 -67 14 -28 25 -16 33 33 3 24 9 57 12 75 5 29 3 33 -21 39
-19 5 -35 1 -57 -16 -17 -13 -28 -16 -25 -9 3 8 19 56 36 107 34 102 41 172
16 172 -11 0 -15 -11 -16 -37 0 -21 -8 -63 -17 -93 -17 -53 -19 -55 -56 -58
-33 -3 -38 -1 -32 14 4 9 14 47 23 83 9 36 20 71 25 78 11 13 3 33 -13 33 -5
0 -12 -6 -14 -12z"/>
<path d="M6132 4658 c-6 -13 -24 -53 -41 -90 -25 -57 -32 -66 -50 -61 -15 4
-21 1 -21 -11 0 -9 7 -16 15 -16 12 0 14 -11 8 -60 -7 -71 12 -110 53 -110 17
0 23 4 18 12 -5 8 -2 9 9 5 10 -3 17 -2 17 3 0 6 -13 10 -29 10 -36 0 -46 23
-36 86 l6 44 53 0 c33 0 58 5 65 13 16 21 6 25 -51 19 -47 -4 -51 -3 -43 14 4
10 16 42 27 69 11 28 24 54 29 60 13 14 11 35 -4 35 -8 0 -19 -10 -25 -22z"/>
<path d="M5765 4629 c-4 -22 -15 -64 -25 -92 -17 -49 -21 -52 -55 -55 -42 -4
-43 -25 -1 -30 23 -3 27 -7 22 -25 -3 -12 -9 -46 -13 -76 -5 -43 -3 -53 8 -49
8 3 19 34 28 76 12 65 16 72 37 72 24 0 24 0 7 -36 -13 -26 -14 -39 -7 -52 15
-23 48 -26 77 -7 22 14 26 14 37 0 14 -17 50 -20 50 -5 0 6 -7 13 -15 16 -11
5 -13 16 -8 50 4 33 2 44 -7 44 -8 0 -22 7 -31 16 -17 15 -20 15 -44 0 -14 -9
-25 -12 -25 -6 0 5 -11 10 -25 10 l-25 0 19 48 c11 27 22 69 26 95 6 39 5 47
-8 47 -10 0 -18 -14 -22 -41z m88 -198 c5 -20 -29 -61 -51 -61 -17 0 -15 10 8
48 22 37 35 41 43 13z"/>
<path d="M7263 4648 c-5 -7 -17 -39 -28 -71 l-19 -58 -43 3 c-23 2 -43 0 -43
-4 0 -5 0 -12 0 -18 0 -5 16 -10 35 -10 l35 0 -1 -60 c-1 -74 17 -106 66 -116
41 -7 68 1 62 19 -2 7 -16 11 -34 9 -44 -5 -63 19 -63 79 0 54 0 54 73 64 62
8 58 30 -6 30 -26 0 -47 3 -47 7 0 4 9 30 20 58 11 28 20 57 20 65 0 18 -14
19 -27 3z"/>
<path d="M8829 4633 c-4 -64 -14 -90 -63 -173 -37 -62 -56 -104 -54 -120 3
-25 4 -25 106 -27 77 -1 102 2 102 12 0 15 -100 28 -148 19 -17 -4 -32 -3 -32
2 0 5 15 34 32 64 77 134 97 180 89 202 -8 22 -30 37 -32 21z"/>
<path d="M9246 4628 c-3 -7 -9 -35 -16 -63 -6 -27 -27 -87 -46 -132 -34 -84
-44 -138 -22 -131 6 2 17 23 24 47 23 78 78 111 134 81 17 -9 19 -18 13 -57
-5 -37 -3 -45 8 -41 8 3 18 23 23 46 10 48 -1 67 -47 87 l-29 12 71 52 c68 49
86 71 58 71 -15 0 -89 -51 -134 -94 -18 -16 -35 -28 -37 -25 -3 2 4 35 14 73
11 38 17 73 14 77 -8 13 -24 11 -28 -3z"/>
<path d="M4637 4624 c-12 -12 -8 -24 9 -24 12 0 14 -3 6 -12 -13 -16 -62 -235
-62 -277 0 -17 4 -31 8 -31 5 0 34 29 66 65 31 36 62 65 68 65 10 0 7 -37 -8
-87 -4 -16 -1 -25 10 -29 23 -9 24 -7 32 68 6 61 5 67 -15 78 -19 10 -27 6
-68 -34 -26 -26 -48 -44 -51 -41 -3 2 5 47 17 99 12 52 21 110 19 127 -4 32
-18 46 -31 33z"/>
<path d="M4085 4560 c-10 -17 12 -37 25 -24 8 8 6 15 -4 23 -10 9 -16 9 -21 1z"/>
<path d="M9057 4554 c-10 -11 3 -24 24 -24 10 0 19 7 19 15 0 15 -31 21 -43 9z"/>
<path d="M3558 4523 c-22 -5 -23 -34 -3 -91 15 -41 12 -87 -6 -98 -15 -9 -49
16 -49 37 0 25 -23 20 -28 -5 -4 -21 31 -62 60 -69 49 -13 82 75 55 145 -16
41 -14 64 4 52 6 -3 18 -3 27 1 16 6 15 8 -2 21 -20 14 -28 15 -58 7z"/>
<path d="M5535 4523 c-57 -14 -70 -49 -39 -107 27 -50 25 -90 -4 -84 -9 2 -23
16 -30 31 -14 29 -32 28 -32 -3 0 -20 53 -70 75 -70 18 0 34 22 41 58 4 22 0
42 -17 71 -18 33 -20 43 -9 56 7 8 25 15 41 15 31 0 40 23 13 34 -9 3 -16 5
-17 5 -1 -1 -11 -4 -22 -6z"/>
<path d="M10341 4516 c-10 -12 -8 -23 9 -56 21 -42 24 -91 5 -97 -6 -2 -20 3
-30 11 -19 13 -19 15 -3 33 11 11 14 24 9 32 -7 11 -13 9 -30 -8 -27 -27 -27
-52 2 -79 26 -24 66 -29 85 -10 16 16 15 87 -3 118 -21 37 -19 40 26 40 57 0
46 24 -13 28 -30 2 -49 -2 -57 -12z"/>
<path d="M2022 4482 c-49 -53 -51 -59 -45 -99 7 -48 29 -73 63 -73 30 0 88 18
108 33 24 19 -9 26 -52 11 -54 -19 -86 -11 -86 21 0 20 5 25 24 25 38 0 88 47
84 79 -2 21 -9 27 -36 29 -25 3 -38 -3 -60 -26z m48 -27 c-13 -14 -30 -25 -38
-25 -12 0 -9 7 8 25 13 14 30 25 38 25 12 0 9 -7 -8 -25z"/>
<path d="M6887 4503 c-4 -3 -2 -12 3 -18 7 -9 5 -30 -7 -68 l-18 -56 -53 -7
c-35 -4 -57 -2 -67 6 -20 16 -19 30 1 30 26 0 84 31 95 52 6 10 7 28 4 38 -12
39 -110 16 -136 -31 -19 -37 -14 -91 13 -112 19 -16 33 -18 85 -14 61 6 64 8
130 74 50 50 68 64 71 51 2 -9 -4 -31 -13 -48 -17 -33 -13 -65 10 -73 20 -8
40 19 26 37 -8 10 -7 24 4 56 15 43 12 80 -6 80 -17 0 -52 -21 -80 -47 l-26
-24 4 25 c7 35 -21 69 -40 49z m-82 -52 c-11 -11 -33 -23 -50 -26 l-30 -6 28
25 c15 14 38 26 50 26 21 0 21 0 2 -19z"/>
<path d="M3740 4485 c-19 -7 -37 -20 -38 -30 -3 -14 1 -16 27 -10 l31 7 -16
-37 c-8 -21 -13 -44 -10 -51 7 -19 35 -18 56 1 16 15 20 13 48 -15 17 -16 36
-30 42 -30 6 0 25 13 41 30 24 23 30 37 27 62 -4 41 -33 46 -34 6 -2 -54 -47
-78 -64 -34 -13 34 -27 40 -55 22 -30 -20 -30 -19 -6 35 28 61 20 69 -49 44z"/>
<path d="M6235 4479 c-54 -43 -66 -133 -22 -164 27 -19 91 -19 110 0 8 8 17
11 21 8 3 -4 6 1 6 10 0 20 -4 21 -45 6 -70 -26 -117 21 -52 51 37 17 57 61
41 87 -16 25 -28 26 -59 2z m33 -31 c-2 -6 -15 -18 -28 -27 -21 -14 -23 -14
-16 -1 16 27 28 40 38 40 5 0 8 -5 6 -12z"/>
<path d="M9488 4493 c-20 -5 -53 -56 -62 -97 -21 -87 105 -116 189 -43 53 46
39 69 -15 27 -46 -37 -97 -48 -124 -27 -33 24 -2 117 35 105 6 -2 -1 -16 -17
-31 -40 -40 -17 -58 24 -18 36 32 40 52 16 75 -16 16 -17 17 -46 9z"/>
<path d="M4463 4475 c-91 -38 -79 -145 16 -145 22 0 46 3 55 6 31 12 15 24
-33 24 -95 0 -94 63 2 94 9 3 17 10 17 15 0 16 -25 19 -57 6z"/>
<path d="M6431 4413 c-33 -81 -30 -115 7 -72 11 13 31 38 45 54 l26 30 -6 -42
c-3 -24 -1 -43 4 -43 5 0 26 20 46 45 52 62 67 60 55 -6 -10 -52 -5 -84 11
-75 12 8 33 123 26 146 -9 27 -38 25 -74 -6 -30 -25 -31 -25 -31 -5 0 24 -28
29 -48 9 -10 -10 -12 -8 -10 11 6 52 -21 28 -51 -46z"/>
<path d="M10511 4445 c-30 -35 -41 -85 -23 -111 27 -41 98 -39 132 3 25 33 25
52 -1 103 -28 53 -64 55 -108 5z m79 -30 c20 -21 22 -29 12 -49 -20 -44 -92
-38 -92 8 0 21 33 66 49 66 4 0 18 -11 31 -25z"/>
<path d="M9013 4448 c-15 -19 -42 -106 -35 -112 15 -16 29 -2 41 42 7 26 15
55 18 65 6 20 -10 23 -24 5z"/>
<path d="M4046 4408 c-23 -63 -24 -91 -3 -96 13 -3 17 3 17 23 0 14 7 42 15
61 14 35 13 54 -5 54 -4 0 -15 -19 -24 -42z"/>
<path d="M11603 4375 c-8 -22 -1 -26 35 -19 18 4 32 13 32 20 0 20 -59 18 -67
-1z"/>
<path d="M11221 4366 c-9 -11 -8 -15 5 -20 22 -8 24 -8 24 8 0 21 -16 28 -29
12z"/>
<path d="M11387 4373 c-10 -9 -9 -43 1 -43 14 0 43 36 35 43 -8 9 -28 9 -36 0z"/>
<path d="M7476 4354 c-9 -23 -8 -24 13 -24 19 0 35 23 24 34 -12 11 -31 6 -37
-10z"/>
<path d="M11000 4356 c0 -16 43 -27 61 -16 19 12 0 30 -32 30 -18 0 -29 -5
-29 -14z"/>
<path d="M8256 4283 c5 -10 8 -42 7 -70 -1 -37 3 -53 12 -53 28 0 34 99 7 123
-24 22 -36 22 -26 0z"/>
<path d="M6654 4205 c-9 -14 -13 -32 -10 -42 6 -14 11 -11 36 18 35 40 37 49
10 49 -11 0 -27 -11 -36 -25z"/>
<path d="M8020 4190 c0 -16 -9 -54 -21 -84 l-20 -56 -44 3 c-55 3 -60 -15 -8
-27 21 -5 39 -9 40 -10 1 -1 -5 -28 -13 -60 -17 -65 -11 -111 16 -126 28 -15
83 -12 108 6 27 18 20 39 -8 24 -32 -17 -78 -12 -90 10 -10 19 -8 44 12 108 8
28 14 32 46 32 52 0 82 10 82 27 0 12 -10 13 -55 8 -30 -4 -55 -6 -55 -4 0 2
9 28 20 57 24 64 27 122 5 122 -10 0 -15 -10 -15 -30z"/>
<path d="M8995 4213 c-34 -8 -92 -73 -120 -136 -36 -79 -32 -153 10 -197 33
-34 106 -65 131 -56 22 9 10 19 -47 40 -26 9 -54 25 -64 36 -44 49 -18 184 47
247 27 26 43 32 85 35 35 2 50 7 45 14 -8 13 -59 23 -87 17z"/>
<path d="M10947 4203 c-12 -11 -8 -20 17 -31 32 -14 86 -124 86 -175 0 -22 -5
-57 -12 -79 -15 -51 -81 -120 -111 -116 -14 2 -22 -2 -22 -12 0 -9 11 -16 29
-18 23 -3 37 5 75 46 52 55 71 104 71 178 0 95 -96 244 -133 207z"/>
<path d="M12420 4197 c-23 -12 -25 -17 -22 -79 5 -87 -16 -132 -56 -124 -31 7
-58 -6 -48 -23 4 -6 18 -11 31 -11 24 0 45 -25 45 -53 0 -8 -14 -31 -30 -52
-55 -69 -52 -119 7 -160 44 -29 51 -30 80 -7 30 23 17 51 -15 31 -17 -11 -24
-10 -47 5 -14 9 -29 24 -32 32 -6 17 15 74 28 74 26 0 52 111 29 125 -6 4 0
18 15 37 29 34 34 70 21 142 -6 29 -3 34 16 39 13 4 27 2 32 -3 15 -15 36 -12
36 5 0 15 -30 35 -52 35 -7 0 -24 -6 -38 -13z"/>
<path d="M6497 4189 c-27 -16 -44 -57 -80 -200 -48 -187 -52 -226 -27 -267 28
-46 79 -66 149 -57 72 9 101 21 101 41 0 11 -5 14 -17 9 -10 -4 -44 -11 -75
-17 -49 -9 -63 -7 -95 8 -35 18 -38 22 -41 68 -5 76 63 349 95 381 8 9 22 14
30 11 22 -9 36 3 22 20 -13 16 -37 18 -62 3z"/>
<path d="M11745 4129 c-9 -13 18 -43 62 -70 18 -11 33 -24 33 -29 0 -5 -27
-36 -61 -70 -39 -39 -58 -67 -55 -77 3 -8 10 -13 14 -11 16 6 142 153 142 166
0 7 -22 26 -49 42 -27 17 -52 37 -55 45 -6 18 -22 20 -31 4z"/>
<path d="M4363 4090 c-18 -11 -33 -26 -33 -33 0 -8 23 -35 51 -62 43 -41 50
-52 44 -74 -10 -42 -22 -47 -52 -24 -22 16 -27 28 -25 52 2 36 -21 43 -38 12
-15 -29 3 -65 45 -91 46 -29 79 -21 94 21 18 53 13 71 -36 117 -43 42 -45 46
-28 58 15 11 22 11 46 -1 37 -20 52 1 19 27 -28 23 -47 23 -87 -2z"/>
<path d="M9219 4087 c-44 -43 -59 -67 -61 -100 -4 -46 22 -41 39 8 7 22 23 49
34 60 17 17 21 18 29 5 7 -12 12 -12 21 -3 10 10 9 17 -6 33 -23 25 -27 25
-56 -3z"/>
<path d="M5342 4074 c-12 -8 -22 -21 -22 -28 0 -8 -6 -13 -12 -12 -18 2 -20
-8 -13 -62 10 -69 15 -82 31 -82 11 0 14 10 13 38 -1 20 1 56 5 80 7 36 11 42
33 42 13 0 33 -4 43 -10 13 -7 19 -6 23 4 5 13 -18 29 -58 40 -11 3 -31 -1
-43 -10z"/>
<path d="M11535 4069 c-11 -16 1 -22 53 -25 26 -2 56 -4 66 -6 36 -6 26 19
-12 30 -49 15 -99 15 -107 1z"/>
<path d="M4552 4050 c-39 -36 -41 -102 -5 -142 19 -21 79 -24 118 -6 29 13 28
35 -1 29 -10 -3 -37 -5 -59 -5 -33 -1 -41 3 -43 20 -2 17 4 23 26 27 30 6 62
31 62 48 0 16 -39 49 -58 49 -10 0 -28 -9 -40 -20z m48 -40 c-19 -12 -40 -13
-40 0 0 5 8 13 18 19 22 13 44 -5 22 -19z"/>
<path d="M10280 4042 c-32 -33 -61 -135 -43 -153 19 -19 31 -1 38 54 10 74 20
89 57 85 40 -4 49 18 13 32 -35 13 -33 14 -65 -18z"/>
<path d="M10714 4060 c-49 -20 -30 -73 36 -100 33 -14 46 -38 26 -46 -17 -6
-56 12 -56 26 0 6 -7 10 -15 10 -20 0 -19 -24 1 -44 38 -39 114 -27 114 17 0
27 -19 46 -67 71 -18 9 -33 21 -33 26 0 16 38 21 59 8 25 -15 39 -3 25 20 -12
19 -58 26 -90 12z"/>
<path d="M4968 4048 c-11 -9 -18 -30 -20 -63 l-3 -50 -24 43 c-24 40 -47 51
-45 21 2 -30 54 -99 74 -99 21 0 28 18 32 85 3 39 4 40 41 43 24 2 37 8 34 15
-5 17 -69 20 -89 5z"/>
<path d="M5137 4049 c-32 -19 -47 -69 -35 -118 15 -60 44 -77 100 -60 26 8 43
20 43 29 0 9 -6 13 -15 11 -38 -11 -90 -12 -90 -3 0 6 -3 17 -6 26 -4 11 5 18
36 26 56 15 75 54 41 81 -26 21 -47 23 -74 8z m48 -39 c0 -8 -12 -17 -27 -21
-32 -8 -35 -3 -11 23 18 20 38 19 38 -2z"/>
<path d="M6772 4038 c-28 -36 -48 -95 -42 -131 7 -55 24 -48 33 14 9 61 32
103 53 95 9 -3 14 1 14 14 0 23 -41 28 -58 8z"/>
<path d="M6943 4038 c-56 -27 -66 -128 -16 -168 28 -22 78 -27 89 -8 10 16
-26 40 -41 28 -14 -11 -39 6 -48 33 -5 12 -1 17 12 17 20 0 71 46 71 65 0 11
-32 46 -41 44 -2 0 -14 -5 -26 -11z m27 -37 c0 -13 -29 -35 -37 -28 -7 8 15
37 28 37 5 0 9 -4 9 -9z"/>
<path d="M7758 4036 c-28 -21 -21 -44 22 -71 23 -14 38 -30 35 -35 -9 -15 -33
-12 -37 5 -2 10 -7 12 -18 5 -23 -14 1 -44 38 -48 64 -6 66 77 2 100 -41 14
-26 31 22 25 33 -4 39 -3 36 11 -4 22 -76 27 -100 8z"/>
<path d="M9361 4037 c-13 -6 -33 -24 -44 -39 -17 -23 -18 -31 -8 -56 16 -38
49 -69 83 -77 23 -6 29 -3 39 19 16 33 8 40 -26 24 -25 -11 -29 -10 -46 11
-11 13 -19 31 -19 41 0 19 37 57 46 47 3 -3 -4 -10 -15 -17 -12 -6 -21 -17
-21 -25 0 -19 4 -19 40 0 32 16 40 51 18 73 -15 15 -17 15 -47 -1z"/>
<path d="M7547 4022 c-10 -10 -17 -28 -17 -40 0 -12 -4 -22 -10 -22 -21 0 -9
-29 25 -59 27 -23 45 -31 75 -31 48 0 70 8 70 26 0 11 -9 13 -37 8 -21 -3 -51
-1 -67 6 l-30 11 32 19 c36 22 58 60 49 84 -9 23 -70 21 -90 -2z m54 -31 c-11
-20 -41 -36 -41 -22 0 23 14 41 31 41 16 0 18 -3 10 -19z"/>
<path d="M10451 4030 c-45 -10 -61 -29 -68 -77 -4 -34 -1 -45 27 -76 40 -46
72 -48 128 -8 41 30 55 47 58 69 3 18 -2 16 -57 -28 -60 -47 -80 -49 -108 -14
-29 37 -27 42 18 40 26 0 47 6 61 19 43 39 4 89 -59 75z m32 -49 c-27 -22 -71
-18 -52 5 6 8 26 14 43 14 l31 -1 -22 -18z"/>
<path d="M4744 4016 c-3 -9 -10 -14 -14 -11 -17 10 -19 -12 -6 -56 14 -48 43
-62 38 -19 -1 14 0 35 3 48 4 18 10 21 31 16 22 -6 25 -4 22 12 -4 25 -65 33
-74 10z"/>
<path d="M5867 4019 c-23 -13 -47 -62 -47 -94 0 -33 41 -75 73 -75 14 0 39 13
56 29 39 37 41 78 5 120 -26 32 -55 38 -87 20z m64 -40 c26 -26 21 -57 -13
-82 -27 -20 -28 -20 -48 -2 -26 23 -25 45 1 79 25 31 33 32 60 5z"/>
<path d="M6155 4018 c-11 -5 -32 -26 -47 -45 l-28 -36 0 31 c0 52 -26 40 -33
-15 -4 -27 -9 -58 -13 -70 -12 -44 25 -24 78 42 28 36 52 65 53 65 0 0 -1 -28
-3 -63 -3 -52 -1 -65 15 -80 17 -14 25 -15 52 -6 32 11 58 43 43 53 -5 3 -18
-1 -28 -9 -10 -8 -28 -15 -38 -15 -17 0 -18 6 -12 69 7 76 -3 96 -39 79z"/>
<path d="M7168 3990 c-41 -44 -47 -70 -23 -90 13 -11 21 -9 46 9 l29 22 -6
-58 c-4 -32 -16 -87 -26 -123 -43 -146 -49 -173 -44 -186 10 -26 24 -14 41 35
20 61 46 85 92 86 48 0 53 21 8 29 -25 5 -44 3 -60 -8 l-23 -15 19 61 c36 115
35 278 -2 278 -7 0 -29 -18 -51 -40z m43 -18 c-12 -23 -41 -48 -41 -35 0 5 7
19 16 31 19 27 39 30 25 4z"/>
<path d="M9523 3997 c-66 -52 -44 -125 27 -87 18 10 18 8 3 -42 -31 -103 -51
-183 -46 -190 9 -16 31 -7 37 16 8 32 52 59 93 58 23 -1 33 3 33 13 0 23 -48
30 -85 12 l-32 -15 33 108 c46 153 46 145 0 145 -23 0 -49 -8 -63 -18z m42
-27 c6 -9 -42 -46 -50 -38 -6 6 24 48 35 48 5 0 11 -4 15 -10z"/>
<path d="M7349 3983 c-14 -37 -3 -90 21 -103 37 -20 69 -1 96 54 24 49 25 84
3 71 -6 -4 -19 -27 -29 -51 -30 -68 -78 -56 -64 15 8 39 -13 50 -27 14z"/>
<path d="M11527 3984 c-13 -14 6 -24 44 -24 22 0 50 -5 61 -11 30 -16 49 6 22
26 -19 14 -115 21 -127 9z"/>
<path d="M5541 3897 c-9 -11 -8 -17 4 -27 12 -10 16 -9 21 5 9 23 -10 40 -25
22z"/>
<path d="M9870 3908 c0 -2 4 -18 9 -36 6 -18 6 -30 2 -28 -9 6 -56 -82 -48
-90 14 -14 39 9 58 53 23 54 22 96 -3 101 -10 2 -18 2 -18 0z"/>
<path d="M8330 3857 c0 -18 -11 -48 -25 -69 -28 -42 -31 -58 -11 -58 8 0 26
20 40 44 29 50 36 116 11 116 -10 0 -15 -10 -15 -33z"/>
<path d="M11120 3761 c0 -5 17 -18 37 -28 77 -38 101 -163 53 -286 -26 -70
-79 -141 -106 -143 -10 -1 -23 -2 -27 -3 -13 -2 12 -41 26 -41 19 0 92 80 115
126 25 49 52 151 52 194 0 87 -66 190 -121 190 -16 0 -29 -4 -29 -9z"/>
<path d="M11620 3719 c-7 -13 -9 -40 -5 -70 9 -64 -11 -99 -56 -99 -24 0 -30
-4 -27 -17 3 -14 12 -17 41 -16 42 3 47 -12 22 -57 -24 -43 -19 -95 12 -120
28 -22 74 -24 81 -2 2 7 -6 12 -21 12 -30 0 -57 24 -57 50 0 11 10 40 22 65
19 39 20 49 10 66 -10 16 -10 24 -2 35 7 8 11 38 9 76 l-4 63 43 3 c28 2 42 8
42 18 0 10 -13 14 -50 14 -40 0 -51 -4 -60 -21z"/>
<path d="M9215 3677 c-108 -111 -141 -246 -83 -335 16 -23 40 -49 55 -59 32
-21 155 -63 166 -56 18 10 3 23 -41 37 -126 37 -175 88 -175 180 0 36 9 72 26
109 29 63 103 144 138 149 37 5 35 28 -2 28 -27 0 -43 -10 -84 -53z"/>
<path d="M10965 3712 c-5 -4 -10 -27 -10 -52 -1 -25 -7 -83 -14 -130 -15 -98
-13 -134 10 -138 13 -2 16 7 15 50 0 29 6 94 14 145 13 91 7 141 -15 125z"/>
<path d="M8470 3631 l0 -80 -32 -3 c-40 -4 -44 -22 -5 -26 25 -3 27 -7 28 -50
1 -26 0 -59 -1 -74 -1 -14 4 -29 9 -33 14 -8 33 40 31 80 -4 68 -1 75 28 75
43 0 72 11 72 27 0 11 -10 12 -50 7 l-50 -7 0 82 c0 65 -3 81 -15 81 -12 0
-15 -15 -15 -79z"/>
<path d="M8804 3688 c-8 -13 -8 -110 0 -193 3 -27 5 -53 6 -57 1 -18 30 -6 30
12 0 23 33 60 55 60 12 0 15 -13 15 -60 0 -47 3 -60 15 -60 13 0 15 12 13 66
-4 79 -18 96 -68 77 -17 -6 -32 -7 -35 -2 -3 5 -6 45 -6 89 0 75 -8 96 -25 68z"/>
<path d="M8353 3633 c-15 -5 -18 -33 -4 -33 17 0 41 12 41 20 0 11 -22 18 -37
13z"/>
<path d="M9640 3605 c-12 -19 -28 -39 -36 -43 -11 -6 -13 -19 -8 -50 7 -45 34
-60 34 -19 0 12 10 42 21 67 15 34 22 41 29 30 13 -22 34 2 25 29 -10 32 -41
25 -65 -14z"/>
<path d="M7848 3593 c-27 -7 -21 -37 12 -61 22 -17 30 -31 30 -54 0 -30 0 -30
-41 -24 -35 6 -40 4 -37 -11 3 -19 44 -29 83 -19 33 8 40 50 16 96 -20 39 -19
52 4 44 18 -7 30 16 14 27 -15 9 -51 10 -81 2z"/>
<path d="M9802 3583 c-7 -3 -21 -22 -32 -42 -31 -62 -2 -141 52 -141 29 0 78
29 78 45 0 19 -2 19 -44 -2 -29 -13 -38 -14 -51 -3 -23 19 -18 47 9 54 34 8
56 33 56 61 0 30 -31 43 -68 28z m38 -32 c0 -13 -29 -35 -37 -28 -7 8 15 37
28 37 5 0 9 -4 9 -9z"/>
<path d="M10767 3566 c-9 -13 -19 -51 -23 -85 -5 -51 -4 -61 9 -61 10 0 17 15
22 47 11 75 22 96 43 84 10 -5 24 -6 31 -2 10 6 7 12 -10 25 -32 22 -54 20
-72 -8z"/>
<path d="M8043 3557 c-18 -7 -32 -16 -30 -22 2 -12 34 -12 61 0 17 8 18 5 12
-47 -8 -63 2 -78 35 -54 17 12 25 12 41 3 29 -18 70 32 66 81 -4 47 -28 56
-28 10 0 -43 -13 -56 -51 -50 -29 4 -31 7 -26 36 8 58 -11 68 -80 43z"/>
<path d="M10510 3508 c-17 -34 -40 -72 -52 -85 -17 -19 -19 -26 -9 -36 10 -9
17 -6 37 18 15 19 31 29 43 27 11 -2 32 4 46 14 25 16 25 16 25 -15 0 -24 4
-31 19 -31 21 0 36 26 21 35 -6 4 -9 26 -8 51 0 24 -2 47 -6 51 -4 4 -24 -13
-45 -37 -22 -25 -42 -43 -45 -39 -3 3 4 24 15 47 20 39 19 62 -2 62 -5 0 -23
-28 -39 -62z"/>
<path d="M9950 3539 c-13 -24 -5 -55 16 -63 18 -7 69 17 78 36 3 7 4 4 1 -7
-6 -27 -22 -147 -29 -217 -7 -67 3 -73 41 -28 19 23 30 29 49 24 18 -5 24 -2
24 10 0 17 -41 32 -65 22 -19 -7 -19 7 1 123 9 51 13 98 11 106 -4 8 -24 13
-61 14 -46 0 -58 -3 -66 -20z m50 -19 c0 -5 -7 -10 -16 -10 -8 0 -12 5 -9 10
3 6 10 10 16 10 5 0 9 -4 9 -10z"/>
<path d="M8668 3534 c-83 -45 -52 -134 48 -137 46 -2 49 -1 52 26 4 31 -5 35
-23 11 -10 -14 -17 -15 -47 -5 -58 19 -58 60 0 82 13 5 22 14 20 21 -6 18 -20
19 -50 2z"/>
<path d="M8317 3523 c-9 -15 -11 -109 -2 -122 6 -11 9 -11 16 0 12 23 14 122
2 126 -6 2 -13 0 -16 -4z"/>
<path d="M10236 3444 c-8 -21 1 -34 23 -34 13 0 19 8 19 25 0 29 -32 36 -42 9z"/>
<path d="M10536 3328 c-12 -72 -11 -82 5 -86 13 -2 17 9 22 49 4 29 4 56 1 60
-11 18 -23 8 -28 -23z"/>
<path d="M9490 3193 c-36 -41 -89 -103 -119 -137 -98 -112 -186 -227 -186
-244 0 -9 8 -18 18 -20 11 -2 17 3 17 15 0 23 166 229 313 388 26 29 47 57 47
63 0 27 -29 6 -90 -65z"/>
<path d="M9680 3226 c0 -24 -11 -81 -24 -127 -17 -59 -21 -87 -14 -94 7 -7 12
-6 15 3 9 24 65 82 79 82 16 0 16 -5 14 -72 -1 -38 2 -48 14 -48 11 0 16 9 16
29 0 16 3 42 6 58 8 39 -18 66 -58 61 l-28 -5 6 79 c6 68 5 78 -10 78 -12 0
-16 -10 -16 -44z"/>
<path d="M9064 3225 c-9 -24 6 -87 19 -82 15 4 21 41 13 73 -7 27 -24 32 -32
9z"/>
<path d="M8018 3112 c-13 -16 -30 -44 -38 -61 -12 -29 -11 -35 7 -59 17 -23
28 -27 76 -29 38 -1 59 3 67 13 14 16 15 16 -60 18 -49 1 -55 3 -58 24 -2 12
6 38 18 58 19 30 27 35 54 32 22 -2 31 1 31 12 0 10 -12 16 -36 18 -30 3 -41
-2 -61 -26z"/>
<path d="M8437 3122 c-24 -26 -22 -33 23 -77 22 -21 40 -43 40 -47 0 -15 -37
-8 -63 12 -30 24 -37 25 -37 6 0 -41 102 -74 129 -42 16 20 -8 67 -50 96 -34
25 -29 37 15 42 16 2 31 9 34 16 6 20 -72 15 -91 -6z"/>
<path d="M8657 3129 c-9 -5 -24 -26 -32 -45 -13 -32 -13 -38 6 -72 27 -47 28
-49 65 -57 27 -5 38 -1 68 25 43 38 44 47 10 62 -20 10 -27 9 -34 -2 -5 -8 -5
-19 1 -26 6 -8 4 -14 -7 -18 -30 -11 -53 -6 -65 15 -12 24 0 39 33 39 25 0 40
33 28 64 -10 28 -40 34 -73 15z m43 -38 c0 -5 -9 -11 -20 -14 -20 -5 -26 3
-13 16 9 10 33 8 33 -2z"/>
<path d="M10292 3117 c-35 -37 -29 -83 14 -123 20 -20 46 -34 60 -34 36 0 94
27 94 43 0 23 -12 28 -29 13 -29 -26 -65 -29 -92 -7 -20 17 -21 20 -6 21 25 0
55 65 41 88 -17 27 -57 26 -82 -1z m48 -38 c-12 -22 -40 -26 -40 -4 0 15 30
36 42 29 5 -3 3 -14 -2 -25z"/>
<path d="M10811 3126 c-9 -10 -9 -16 -1 -21 17 -10 37 12 24 25 -8 8 -15 6
-23 -4z"/>
<path d="M9896 3114 c-22 -22 -21 -87 2 -107 25 -22 48 -21 72 3 28 28 25 57
-9 91 -34 33 -43 35 -65 13z m54 -45 c8 -15 8 -24 0 -34 -17 -21 -40 -6 -40
26 0 34 24 39 40 8z"/>
<path d="M10037 3113 c-2 -5 -4 -36 -5 -70 -1 -72 19 -87 38 -29 12 38 42 72
33 38 -9 -37 18 -35 49 2 25 30 33 35 45 24 10 -8 13 -22 9 -40 -7 -34 1 -58
20 -58 23 0 19 95 -6 120 -24 24 -39 25 -66 6 -13 -10 -23 -11 -31 -4 -9 7
-20 6 -38 -6 -21 -14 -25 -14 -25 -2 0 17 -17 30 -23 19z"/>
<path d="M8216 3088 c-20 -28 -21 -72 -1 -88 12 -10 21 -8 48 9 35 22 47 19
47 -9 0 -21 31 -50 53 -50 21 0 22 19 2 26 -8 3 -20 25 -27 48 -16 59 -22 62
-62 31 -38 -29 -59 -27 -39 3 6 9 21 16 33 14 16 -1 21 3 18 15 -5 28 -53 29
-72 1z"/>
<path d="M10772 2978 c2 -13 8 -23 13 -23 6 0 11 10 13 23 2 15 -2 22 -13 22
-11 0 -15 -7 -13 -22z"/>
<path d="M8225 2410 c-3 -5 -8 -49 -11 -97 -5 -65 -11 -95 -26 -116 -24 -35
-21 -54 13 -80 23 -17 31 -18 62 -8 41 14 51 24 72 73 13 34 13 38 -6 62 -15
19 -30 26 -56 26 l-35 0 7 75 c4 49 3 75 -4 75 -5 0 -13 -4 -16 -10z m69 -176
c40 -15 -6 -94 -55 -94 -35 0 -35 1 -7 56 21 44 32 50 62 38z"/>
<path d="M9101 2314 l-70 -77 6 72 c5 62 4 71 -11 71 -12 0 -16 -9 -16 -34 0
-19 -6 -65 -14 -103 -23 -111 -24 -147 -3 -151 14 -3 17 4 17 37 0 44 18 61
64 61 33 0 46 -26 46 -95 0 -41 3 -56 13 -53 7 3 13 28 15 67 4 78 -14 111
-59 111 l-31 0 71 79 c39 43 71 81 71 85 0 22 -38 -5 -99 -70z"/>
<path d="M9443 2299 c-14 -14 -6 -39 13 -39 8 0 14 10 14 25 0 27 -9 32 -27
14z"/>
<path d="M8608 2268 c-26 -20 -58 -81 -58 -109 0 -57 86 -92 124 -50 19 21 3
42 -17 22 -18 -18 -55 -13 -67 9 -9 17 -8 20 9 20 45 0 80 77 49 108 -15 15
-20 15 -40 0z m8 -66 c-22 -23 -29 -10 -9 18 11 16 18 19 21 11 2 -7 -3 -20
-12 -29z"/>
<path d="M8444 2243 c-44 -47 -57 -133 -20 -133 10 0 14 11 13 35 -1 47 31 89
71 93 46 5 43 32 -3 32 -26 0 -43 -7 -61 -27z"/>
<path d="M8767 2220 c-47 -37 -27 -114 22 -83 13 9 19 5 31 -21 17 -35 70 -51
70 -22 0 9 -7 16 -15 16 -19 0 -35 31 -35 69 0 20 5 30 13 29 6 -2 12 4 12 12
0 25 -66 25 -98 0z m23 -41 c-7 -11 -14 -18 -17 -15 -3 3 0 12 7 21 18 21 23
19 10 -6z"/>
<path d="M9420 2092 c0 -17 -10 -38 -25 -52 -26 -24 -33 -50 -14 -50 6 0 24
13 40 29 33 33 42 101 14 101 -10 0 -15 -10 -15 -28z"/>
<path d="M9700 1918 c0 -13 -3 -33 -6 -45 -5 -17 -2 -23 9 -23 10 0 20 15 26
38 14 50 14 52 -9 52 -14 0 -20 -7 -20 -22z"/>
<path d="M9090 1844 c0 -73 24 -70 28 4 2 42 0 52 -12 52 -13 0 -16 -12 -16
-56z"/>
<path d="M9435 1857 c-151 -216 -205 -313 -189 -339 8 -13 34 11 34 32 0 21
86 159 158 254 28 38 52 75 52 82 0 26 -25 13 -55 -29z"/>
<path d="M8186 1829 c-55 -43 -21 -159 48 -159 35 0 56 10 56 27 0 10 -8 12
-33 8 -41 -8 -67 13 -67 55 0 42 26 63 67 55 25 -4 33 -2 33 8 0 32 -66 36
-104 6z"/>
<path d="M8596 1829 c-14 -11 -26 -29 -26 -40 0 -26 23 -69 49 -93 20 -19 29
-46 14 -46 -14 1 -43 27 -43 39 0 15 -27 14 -36 -1 -10 -16 51 -68 81 -68 14
0 29 8 35 20 13 23 2 47 -41 98 -16 18 -29 37 -29 42 0 15 31 40 51 40 10 0
19 7 19 15 0 22 -43 19 -74 -6z"/>
<path d="M8380 1798 c-56 -60 -29 -137 39 -112 26 10 31 9 48 -14 29 -39 47
-20 22 23 -18 30 -19 40 -10 67 10 28 9 35 -6 45 -26 20 -70 15 -93 -9z m60
-32 c0 -27 -24 -56 -46 -56 -19 0 -18 30 2 58 20 30 44 28 44 -2z"/>
<path d="M8776 1798 c-29 -45 -29 -74 -3 -132 20 -42 32 -57 53 -62 32 -8 77
13 82 39 4 21 -21 23 -38 2 -19 -23 -39 -18 -60 18 -26 42 -25 53 7 69 14 7
31 21 37 31 27 43 -50 79 -78 35z m47 -23 c0 -6 -7 -11 -16 -13 -12 -3 -15 1
-11 13 7 17 25 17 27 0z"/>
<path d="M9890 1785 c0 -8 7 -15 15 -15 8 0 15 7 15 15 0 8 -7 15 -15 15 -8 0
-15 -7 -15 -15z"/>
<path d="M9854 1649 c-3 -6 -1 -16 4 -21 13 -13 45 8 36 23 -7 12 -31 11 -40
-2z"/>
<path d="M8196 1101 c-4 -6 1 -22 10 -36 14 -22 15 -32 4 -73 -17 -67 -40
-225 -34 -232 6 -5 15 -6 81 -11 40 -3 81 23 89 58 8 31 -3 53 -39 73 -21 12
-32 12 -58 3 l-31 -12 5 32 c2 18 10 57 17 87 11 47 11 60 -1 85 -15 31 -33
42 -43 26z m105 -251 c24 -13 24 -32 0 -54 -21 -19 -72 -19 -78 0 -4 13 34 64
48 64 6 0 19 -5 30 -10z"/>
<path d="M8975 1028 c-6 -21 -19 -188 -20 -253 0 -47 3 -60 15 -60 11 0 14 10
12 43 -4 50 8 68 50 77 41 10 50 -7 42 -81 -5 -50 -3 -62 10 -67 20 -8 22 -3
25 71 3 76 -15 112 -57 112 -15 0 -22 4 -17 8 26 18 75 84 70 93 -11 16 -20
10 -66 -45 l-45 -54 4 84 c3 59 1 84 -7 84 -6 0 -13 -6 -16 -12z"/>
<path d="M8406 905 c-26 -26 -18 -155 10 -155 10 0 13 17 11 68 l-2 67 33 3
c41 4 38 26 -5 30 -18 2 -37 -3 -47 -13z"/>
<path d="M8550 863 c-62 -97 -21 -170 74 -133 41 15 30 28 -21 26 -36 -1 -48
3 -51 15 -2 10 5 19 16 22 31 8 55 51 47 87 -9 43 -31 37 -65 -17z m30 -23
c-6 -11 -12 -20 -14 -20 -2 0 -2 9 1 20 3 11 9 20 15 20 5 0 4 -9 -2 -20z"/>
<path d="M9285 880 c-9 -28 11 -52 25 -30 6 8 9 21 7 29 -4 23 -25 24 -32 1z"/>
<path d="M8710 828 c-27 -45 -23 -72 13 -76 16 -2 34 2 41 8 11 8 18 3 35 -25
12 -22 28 -35 41 -35 27 0 25 18 -6 47 -19 17 -25 31 -21 49 3 18 -2 30 -21
44 -35 28 -59 25 -82 -12z m52 -31 c-27 -26 -47 -19 -27 10 10 14 22 20 31 16
14 -5 13 -8 -4 -26z"/>
<path d="M9288 764 c-3 -3 -1 -18 5 -34 10 -25 8 -34 -11 -59 -25 -34 -28 -51
-9 -51 19 0 57 63 57 94 0 34 -27 66 -42 50z"/>
<path d="M7905 628 c-3 -8 -1 -44 4 -79 16 -98 15 -109 -14 -109 -71 0 -100
-134 -34 -155 45 -14 89 69 89 165 -1 108 -29 220 -45 178z m5 -238 c0 -12 -7
-35 -16 -52 -16 -30 -17 -31 -30 -13 -14 19 -10 49 8 73 16 19 38 14 38 -8z"/>
<path d="M8272 613 c-24 -9 -42 -62 -42 -123 0 -33 -4 -60 -10 -60 -5 0 -10
-7 -10 -15 0 -8 7 -15 15 -15 8 0 15 -6 15 -12 0 -35 22 -88 37 -88 15 0 14
13 -3 73 -5 17 7 22 48 19 18 -2 44 25 34 35 -3 3 -25 7 -49 7 l-42 1 -3 56
c-2 44 1 61 17 80 16 19 22 22 32 12 17 -17 29 -16 29 2 0 24 -39 40 -68 28z"/>
<path d="M8853 558 c0 -18 -4 -81 -8 -140 -7 -93 -6 -108 7 -108 12 0 17 22
23 103 12 162 12 171 -6 175 -12 2 -16 -6 -16 -30z"/>
<path d="M9045 520 c-7 -63 -16 -76 -53 -82 -32 -4 -29 -22 5 -28 25 -4 28 -9
30 -48 3 -59 24 -89 70 -98 37 -7 63 2 71 26 3 9 -2 11 -22 6 -63 -16 -99 23
-88 95 4 25 9 28 45 31 24 2 44 10 51 20 14 23 0 35 -24 20 -11 -7 -31 -12
-44 -12 -23 0 -23 2 -15 38 13 56 11 92 -5 92 -10 0 -16 -18 -21 -60z"/>
<path d="M9405 491 c-7 -12 12 -24 25 -16 11 7 4 25 -10 25 -5 0 -11 -4 -15
-9z"/>
<path d="M8037 472 c-47 -52 -56 -141 -17 -162 44 -24 160 2 160 34 0 19 1 19
-43 1 -52 -21 -94 -19 -107 5 -13 23 -5 41 13 34 20 -7 67 35 67 60 0 44 -43
61 -73 28z m43 -27 c0 -8 -2 -15 -4 -15 -2 0 -12 -3 -21 -7 -15 -5 -16 -3 -6
15 13 25 31 29 31 7z"/>
<path d="M8396 389 c-29 -34 -32 -49 -14 -67 15 -15 64 -16 73 -2 4 6 15 0 27
-15 24 -31 43 -33 33 -2 -4 12 -6 33 -6 46 3 70 -67 95 -113 40z m68 -8 c8
-12 -30 -43 -49 -39 -14 3 -14 5 0 26 16 22 40 29 49 13z"/>
<path d="M8604 403 c-21 -58 -37 -90 -56 -110 -17 -19 -19 -26 -9 -36 10 -9
16 -6 33 16 11 15 29 27 42 27 12 0 28 6 34 12 10 10 14 8 18 -10 5 -16 14
-22 34 -22 34 0 49 27 17 32 -19 3 -22 9 -20 41 3 47 -13 48 -50 5 l-28 -33 7
35 c3 19 7 39 8 44 2 17 -24 17 -30 -1z"/>
<path d="M9406 383 c-12 -12 -6 -33 9 -33 8 0 15 6 15 14 0 17 -14 28 -24 19z"/>
</g>
</svg>
