<?xml version="1.0" standalone="no"?>
<!DOCTYPE svg PUBLIC "-//W3C//DTD SVG 20010904//EN"
 "http://www.w3.org/TR/2001/REC-SVG-20010904/DTD/svg10.dtd">
<svg version="1.0" xmlns="http://www.w3.org/2000/svg"
 width="1616.000000pt" height="1032.000000pt" viewBox="0 0 1616.000000 1032.000000"
 preserveAspectRatio="xMidYMid meet">

<g transform="translate(0.000000,1032.000000) scale(0.100000,-0.100000)"
fill="#000000" stroke="none">
<path d="M4323 9868 c-11 -13 -19 -28 -16 -34 2 -7 -4 -11 -13 -10 -27 2 -54
-64 -62 -150 l-7 -79 -42 -6 c-24 -3 -45 -8 -49 -11 -14 -15 8 -25 46 -21 36
4 40 3 40 -16 0 -36 -27 -89 -55 -107 -21 -14 -30 -15 -51 -5 -22 10 -25 9
-22 -6 2 -10 10 -17 16 -15 7 1 12 -2 12 -8 0 -5 11 -10 24 -10 31 0 92 67
101 111 13 67 13 66 60 65 25 -1 45 -2 45 -2 0 -1 -6 -17 -14 -36 -26 -62 20
-112 63 -69 29 29 27 73 -5 110 -24 29 -54 41 -54 22 0 -4 -18 -3 -40 2 -38
11 -40 13 -40 49 0 82 20 139 66 185 25 24 42 48 39 54 -9 14 -20 11 -42 -13z
m65 -360 c-4 -27 -28 -36 -28 -10 0 20 8 32 22 32 5 0 8 -10 6 -22z"/>
<path d="M3590 9806 c-5 -15 -10 -35 -10 -44 0 -26 -37 -203 -51 -240 -9 -26
-14 -30 -25 -21 -19 15 -18 28 6 73 22 45 17 65 -11 40 -24 -22 -42 -79 -35
-110 7 -27 46 -50 69 -41 27 10 98 340 78 360 -7 7 -13 2 -21 -17z"/>
<path d="M12635 9757 c-14 -38 -19 -43 -43 -39 -22 3 -33 -4 -59 -39 -39 -51
-40 -56 -10 -101 l24 -34 -28 -53 c-26 -48 -29 -81 -8 -81 5 0 12 8 15 18 3 9
14 36 26 60 15 31 27 42 44 42 36 0 52 10 75 46 24 40 19 88 -12 104 -18 10
-18 13 -3 48 26 60 28 72 11 72 -9 0 -22 -18 -32 -43z m-45 -107 c0 -20 -24
-60 -34 -57 -16 5 -19 36 -6 52 14 17 40 20 40 5z m70 -31 c0 -14 -42 -59 -56
-59 -18 0 -18 -1 7 57 19 45 21 47 35 29 8 -11 14 -23 14 -27z"/>
<path d="M13535 9750 c-12 -36 -22 -50 -35 -50 -32 0 -50 -12 -65 -41 -18 -33
-19 -72 -4 -100 8 -15 4 -34 -16 -85 -26 -64 -30 -102 -10 -96 14 4 46 102 38
115 -3 6 -1 7 5 3 7 -4 12 -1 12 8 0 12 11 16 45 16 35 0 52 6 70 25 33 32 31
57 -5 98 l-29 34 20 52 c18 50 18 71 -1 71 -5 0 -16 -22 -25 -50z m-58 -126
c-18 -38 -23 -43 -25 -25 -4 24 22 71 38 71 5 0 0 -21 -13 -46z m84 -16 c14
-27 -14 -58 -53 -58 -33 0 -33 0 -8 50 21 42 41 45 61 8z"/>
<path d="M6728 9749 c-9 -5 -26 -38 -38 -74 -12 -36 -26 -63 -31 -59 -20 12
-30 -8 -14 -26 15 -17 16 -23 2 -69 -14 -48 -14 -51 3 -51 13 0 21 14 32 57
10 44 19 59 33 61 97 17 135 50 45 39 -27 -3 -50 -3 -50 0 0 22 27 90 40 100
20 16 2 36 -22 22z"/>
<path d="M6917 9754 c-4 -4 -7 -25 -7 -46 0 -49 -15 -78 -40 -78 -11 0 -20 -7
-20 -15 0 -8 7 -15 15 -15 12 0 14 -7 9 -27 -12 -49 -23 -73 -34 -73 -5 0 -10
-9 -10 -20 0 -23 22 -27 39 -7 6 8 19 40 29 73 l18 59 53 11 c58 13 69 20 55
33 -5 6 -28 6 -52 2 l-42 -8 5 31 c10 63 10 79 -1 83 -5 2 -13 0 -17 -3z"/>
<path d="M9135 9703 c-14 -32 -33 -65 -42 -75 -9 -10 -14 -21 -11 -24 3 -3 0
-24 -6 -47 -16 -53 -7 -88 26 -107 20 -11 34 -12 55 -4 34 12 28 30 -8 27 -39
-4 -53 18 -45 72 7 44 8 45 45 45 59 0 101 11 101 26 0 11 -13 12 -61 7 l-61
-6 34 64 c18 35 34 67 36 72 2 4 -5 7 -16 7 -15 0 -28 -15 -47 -57z"/>
<path d="M6490 9715 c0 -13 -13 -58 -30 -100 -35 -88 -48 -155 -31 -155 7 0
29 18 50 40 46 48 68 54 46 10 -19 -36 -19 -50 -2 -50 17 0 50 71 45 96 -5 25
-53 22 -83 -6 -29 -27 -39 -25 -20 3 15 24 65 158 65 177 0 5 -9 10 -20 10
-15 0 -20 -7 -20 -25z"/>
<path d="M12793 9721 c-47 -8 -58 -15 -49 -29 3 -6 25 -8 49 -5 l42 6 -23 -23
c-18 -17 -21 -25 -11 -36 6 -8 17 -14 25 -14 7 0 18 -9 24 -21 16 -28 -11 -69
-45 -69 -14 0 -25 5 -25 10 0 6 -11 10 -25 10 -14 0 -25 -6 -25 -13 0 -24 24
-37 67 -37 62 0 98 36 89 88 -3 20 -15 43 -26 52 -19 15 -19 16 15 39 20 13
34 29 32 35 -4 13 -57 16 -114 7z"/>
<path d="M8495 9700 c-4 -6 -3 -14 0 -20 9 -15 35 -12 35 4 0 17 -27 29 -35
16z"/>
<path d="M10457 9658 c-82 -173 -95 -220 -64 -226 13 -3 17 3 17 22 0 14 20
71 45 126 25 55 45 107 45 115 0 30 -19 14 -43 -37z"/>
<path d="M13250 9703 c-55 -8 -71 -14 -65 -23 3 -6 27 -10 53 -10 l47 0 -32
-22 c-40 -28 -42 -46 -5 -54 15 -3 37 -10 50 -16 21 -11 21 -13 5 -30 -17 -19
-59 -24 -82 -9 -18 12 -41 3 -41 -15 0 -40 95 -42 145 -3 34 28 30 57 -13 86
l-33 22 29 15 c86 44 54 77 -58 59z"/>
<path d="M14527 9703 c-2 -4 -8 -30 -12 -58 -4 -27 -11 -57 -15 -66 -5 -8 -12
-39 -16 -68 -6 -48 -5 -53 12 -49 13 2 19 13 20 39 2 20 9 61 18 90 20 73 23
111 9 116 -6 2 -13 0 -16 -4z"/>
<path d="M14661 9679 c-12 -19 -21 -51 -21 -74 0 -23 -9 -53 -20 -70 -28 -43
-26 -90 5 -111 34 -22 78 -10 121 32 39 40 44 74 13 103 l-21 20 21 27 c38 48
21 88 -41 99 -34 7 -39 5 -57 -26z m84 -20 c9 -13 -30 -55 -56 -62 -22 -6 -26
21 -9 54 11 20 54 26 65 8z m-14 -119 c10 -6 19 -16 19 -23 0 -16 -48 -61 -72
-70 -48 -17 -64 30 -27 77 22 28 48 33 80 16z"/>
<path d="M13948 9693 c-10 -2 -18 -11 -18 -20 0 -12 7 -14 34 -9 40 8 66 -1
66 -20 0 -17 -88 -114 -103 -114 -6 0 -25 -11 -44 -26 -60 -45 -32 -76 30 -32
23 17 32 19 35 9 8 -24 41 -51 63 -51 24 0 82 55 77 72 -8 22 -28 19 -39 -6
-21 -45 -52 -44 -70 1 -8 22 -4 31 36 74 49 52 57 85 27 112 -18 16 -56 20
-94 10z"/>
<path d="M14305 9660 c-19 -43 -29 -49 -39 -25 -8 22 -22 19 -57 -13 -24 -22
-31 -36 -31 -65 0 -21 7 -49 16 -62 15 -23 15 -28 -4 -66 -24 -45 -23 -94 0
-94 10 0 14 8 13 25 -1 14 5 41 15 60 13 27 23 34 40 32 30 -4 70 22 83 55 7
20 5 34 -11 64 -20 39 -20 39 0 72 23 37 25 57 7 57 -8 0 -22 -18 -32 -40z
m-57 -115 c-24 -48 -38 -44 -38 11 0 39 17 56 41 43 18 -9 18 -11 -3 -54z m62
-15 c0 -19 -7 -33 -21 -40 -30 -17 -34 -5 -14 40 20 44 35 44 35 0z"/>
<path d="M5570 9666 c0 -27 17 -43 30 -30 10 11 -6 54 -20 54 -5 0 -10 -11
-10 -24z"/>
<path d="M9833 9604 c-24 -26 -43 -54 -43 -63 0 -9 -7 -27 -16 -40 -12 -17
-13 -26 -5 -34 14 -14 23 -5 56 61 30 60 62 94 86 90 9 -2 17 0 17 5 5 21 0
27 -25 27 -19 0 -39 -13 -70 -46z"/>
<path d="M7125 9618 c-15 -12 -36 -35 -46 -52 -14 -23 -19 -26 -19 -13 0 11
-5 17 -12 14 -8 -2 -12 -17 -11 -35 2 -17 -11 -68 -27 -114 -35 -94 -35 -98
-15 -98 9 0 27 25 42 60 24 53 31 60 56 60 99 0 185 122 127 180 -26 26 -60
25 -95 -2z m73 -20 c21 -21 13 -49 -21 -83 -32 -32 -81 -54 -94 -41 -11 11 28
96 54 116 30 23 44 25 61 8z"/>
<path d="M10220 9606 c-25 -13 -58 -39 -73 -58 -37 -46 -102 -217 -88 -231 16
-16 27 -1 66 89 19 43 35 73 35 67 0 -29 53 -12 96 30 51 52 66 94 39 114 -24
17 -23 17 -75 -11z m45 -45 c-14 -27 -60 -71 -74 -71 -19 1 -33 19 -24 34 13
23 74 66 95 66 17 0 17 -2 3 -29z"/>
<path d="M10785 9616 c-62 -28 -102 -95 -81 -137 14 -28 57 -52 80 -43 28 11
18 33 -16 36 -26 2 -34 8 -36 26 -5 32 23 71 64 88 19 8 34 21 34 29 0 18 -6
18 -45 1z"/>
<path d="M3065 9589 c-65 -58 -38 -136 38 -109 28 10 34 8 46 -10 7 -11 22
-20 32 -20 23 0 24 8 4 30 -12 13 -13 23 -5 44 13 36 13 56 -3 56 -7 0 -18 9
-25 20 -17 28 -46 25 -87 -11z m78 -21 c14 1 15 -3 6 -19 -11 -21 -68 -51 -81
-43 -26 16 14 80 41 68 9 -4 24 -6 34 -6z"/>
<path d="M5346 9604 c-14 -14 -14 -19 6 -53 15 -26 19 -45 14 -64 -8 -32 -22
-35 -31 -7 -10 30 -25 24 -25 -10 0 -19 7 -33 20 -40 17 -9 25 -6 45 14 29 29
33 80 10 113 -8 12 -12 28 -9 36 8 22 -12 30 -30 11z"/>
<path d="M8913 9610 c-27 -11 -39 -50 -24 -78 23 -43 6 -85 -18 -44 -9 14 -12
15 -20 3 -22 -34 23 -69 58 -44 23 16 24 24 9 108 -2 15 5 22 30 30 18 5 31
14 29 20 -5 14 -37 16 -64 5z"/>
<path d="M5075 9560 c-41 -55 -87 -98 -123 -111 -13 -5 -20 -13 -17 -19 12
-20 45 -10 84 25 31 28 40 32 45 20 9 -23 40 -18 81 15 43 34 47 36 39 15 -11
-27 5 -65 26 -65 22 0 26 10 9 27 -9 9 -9 20 0 44 14 41 14 69 0 69 -7 0 -37
-20 -67 -45 -30 -25 -57 -43 -60 -41 -2 3 5 25 17 49 40 82 21 92 -34 17z"/>
<path d="M9991 9585 c-40 -29 -71 -72 -71 -101 0 -45 71 -78 124 -58 16 6 23
25 9 23 -40 -6 -84 3 -93 20 -15 29 -3 48 28 44 35 -5 85 39 80 70 -4 31 -36
31 -77 2z m34 -25 c-10 -11 -23 -20 -29 -20 -6 0 0 9 14 20 32 25 38 25 15 0z"/>
<path d="M10539 9587 c-41 -27 -49 -61 -19 -77 11 -6 30 -8 40 -5 20 6 24 -1
21 -37 -2 -20 15 -23 39 -8 13 8 13 13 2 30 -11 18 -10 26 2 52 15 29 15 32
-6 49 -27 24 -38 24 -79 -4z m47 -32 c-11 -8 -29 -15 -40 -15 -21 1 -21 1 -2
15 11 8 29 15 40 15 21 -1 21 -1 2 -15z"/>
<path d="M3315 9586 c-10 -7 -26 -11 -34 -9 -12 3 -23 -11 -39 -48 -32 -76
-14 -83 45 -19 l48 52 0 -53 c0 -75 21 -74 29 2 8 80 -8 105 -49 75z"/>
<path d="M4521 9578 c-33 -87 -37 -118 -18 -118 12 0 19 16 44 100 4 13 5 13
13 0 12 -20 35 2 27 24 -10 25 -56 20 -66 -6z"/>
<path d="M8656 9582 c-4 -10 -33 -47 -66 -81 -33 -35 -60 -67 -60 -72 0 -18
27 -8 55 21 26 28 30 29 46 14 23 -21 51 -11 84 27 l25 31 0 -27 c0 -26 21
-42 40 -30 8 5 8 11 0 20 -7 9 -9 31 -5 59 10 63 -12 61 -59 -3 -41 -56 -72
-75 -61 -38 4 12 13 32 21 44 8 12 14 29 14 38 0 21 -27 19 -34 -3z"/>
<path d="M10932 9575 c-72 -31 -76 -142 -5 -171 33 -14 38 -14 99 15 35 16 64
34 64 40 0 21 -20 20 -62 -4 -75 -43 -122 -28 -116 36 2 25 11 38 36 52 18 11
36 17 39 13 3 -3 -10 -13 -30 -21 -21 -8 -37 -20 -37 -25 0 -26 92 4 103 35
17 43 -27 58 -91 30z"/>
<path d="M5828 9559 c-45 -23 -80 -66 -76 -93 4 -27 56 -33 99 -12 l31 16 -7
-57 c-8 -68 -14 -83 -29 -83 -7 0 -30 -15 -50 -33 -31 -26 -39 -41 -43 -77
-11 -102 41 -133 86 -52 13 24 29 65 36 90 l12 47 61 -1 c34 0 62 2 62 6 0 17
-28 30 -68 30 l-44 0 8 63 c11 83 9 116 -6 130 -10 9 -14 9 -18 -2 -10 -30
-52 -61 -79 -61 l-28 1 36 32 c19 17 44 37 55 43 13 8 16 15 9 22 -7 7 -22 4
-47 -9z m17 -291 c-11 -50 -44 -110 -57 -102 -20 13 -1 87 29 111 15 13 29 23
31 23 2 0 0 -15 -3 -32z"/>
<path d="M8446 9558 c-3 -7 -7 -43 -10 -80 -8 -80 -21 -123 -53 -165 -29 -40
-47 -41 -70 -5 -10 15 -21 29 -24 32 -4 3 -9 16 -10 30 -5 29 -22 33 -27 6 -8
-40 62 -135 99 -136 37 0 93 93 110 184 8 47 8 61 -3 67 -8 5 -9 9 -2 9 13 0
23 38 16 58 -5 16 -22 15 -26 0z"/>
<path d="M5614 9516 c-25 -24 -44 -53 -44 -65 0 -29 17 -26 34 7 16 31 54 68
61 60 3 -3 1 -17 -5 -32 -14 -37 -13 -56 3 -56 14 0 47 97 39 118 -9 24 -45
11 -88 -32z"/>
<path d="M5485 9514 c-16 -39 -17 -64 -1 -67 15 -3 40 83 28 95 -7 7 -16 -1
-27 -28z"/>
<path d="M7808 9504 c-4 -3 -1 -13 7 -20 15 -16 48 -8 42 10 -4 13 -40 20 -49
10z"/>
<path d="M12960 9494 c0 -9 7 -14 17 -12 25 5 28 28 4 28 -12 0 -21 -6 -21
-16z"/>
<path d="M13645 9500 c-8 -13 4 -32 16 -25 12 8 12 35 0 35 -6 0 -13 -4 -16
-10z"/>
<path d="M2440 9494 c0 -18 22 -42 35 -38 20 8 19 30 -1 38 -20 8 -34 8 -34 0z"/>
<path d="M7644 9489 c-10 -17 13 -36 27 -22 12 12 4 33 -11 33 -5 0 -12 -5
-16 -11z"/>
<path d="M2278 9483 c-10 -3 -18 -11 -18 -19 0 -16 55 -20 65 -5 7 13 -25 29
-47 24z"/>
<path d="M2630 9477 c0 -20 38 -33 53 -18 13 13 9 18 -26 26 -21 6 -27 4 -27
-8z"/>
<path d="M7412 9468 c5 -15 57 -18 61 -3 1 6 -13 11 -32 13 -24 3 -32 0 -29
-10z"/>
<path d="M9497 9343 c-4 -3 -7 -13 -7 -22 0 -9 -19 -83 -42 -164 -29 -103 -38
-151 -31 -158 12 -12 17 -8 66 61 l32 45 5 -55 c6 -69 25 -72 26 -5 1 28 3 56
5 63 2 8 -4 19 -13 25 -14 9 -23 6 -47 -17 -32 -31 -35 -23 -13 34 5 14 9 27
9 30 0 3 5 22 12 43 10 29 10 41 1 52 -10 12 -9 16 4 21 9 3 16 17 16 30 0 23
-10 31 -23 17z"/>
<path d="M6340 9323 c-1 -19 -23 -89 -64 -196 -30 -78 -32 -95 -11 -103 10 -4
34 11 65 40 27 25 51 46 54 46 3 0 3 -12 0 -27 -5 -31 8 -59 24 -49 13 8 10
108 -3 113 -9 3 -41 -15 -92 -53 l-23 -16 14 38 c8 22 22 57 31 78 9 21 14 47
12 57 -3 10 1 20 9 23 19 7 18 66 -1 66 -8 0 -15 -8 -15 -17z"/>
<path d="M6624 9255 c-26 -80 -30 -85 -56 -85 -20 0 -28 -5 -27 -17 0 -11 3
-13 6 -6 3 10 8 9 19 -2 13 -13 13 -21 0 -65 -10 -32 -11 -52 -5 -56 15 -9 22
2 39 59 11 37 21 53 35 55 51 7 66 14 62 25 -2 7 -17 11 -35 9 -18 -2 -32 -2
-32 0 0 2 11 37 25 78 29 89 29 90 11 90 -10 0 -25 -31 -42 -85z"/>
<path d="M2605 9321 c-3 -6 -4 -15 -1 -20 7 -11 -14 -115 -44 -216 -36 -125
-27 -132 61 -45 33 33 64 60 69 60 4 0 5 -29 2 -65 -4 -53 -2 -65 10 -65 11 0
17 17 21 65 4 36 4 72 1 80 -10 26 -50 16 -96 -24 l-45 -40 29 112 c16 62 27
123 26 136 -3 26 -22 39 -33 22z"/>
<path d="M4621 9308 c-8 -22 -24 -105 -26 -133 0 -5 -15 -12 -33 -15 -39 -6
-43 -24 -7 -28 18 -2 25 -8 21 -17 -15 -39 -27 -99 -22 -111 11 -29 24 -12 38
54 l14 67 39 5 c51 7 60 30 11 30 -40 0 -39 -9 -15 98 8 39 8 57 1 64 -8 8
-14 4 -21 -14z"/>
<path d="M4750 9306 c0 -14 -14 -64 -31 -113 -61 -174 -56 -197 21 -112 26 30
50 52 53 49 4 -3 0 -24 -8 -45 -18 -50 -18 -65 -2 -65 12 0 33 50 44 102 4 20
0 29 -16 37 -18 10 -25 8 -45 -13 -14 -13 -27 -22 -29 -19 -3 2 6 36 19 74 28
82 31 129 9 129 -9 0 -15 -9 -15 -24z"/>
<path d="M9375 9319 c-44 -4 -137 -10 -207 -14 -103 -7 -128 -11 -128 -23 0
-12 18 -14 114 -10 l114 4 -5 -35 c-3 -20 -21 -78 -39 -130 -19 -51 -34 -102
-34 -112 0 -36 27 -19 37 24 6 23 23 74 37 113 14 39 27 88 28 107 3 41 13 46
111 49 55 1 79 12 61 26 -5 4 -45 4 -89 1z"/>
<path d="M13522 9278 c-8 -24 -22 -62 -32 -86 -19 -41 -21 -43 -54 -37 -20 4
-36 3 -41 -4 -3 -6 -12 -8 -18 -5 -9 5 -9 4 -1 -5 11 -12 33 -19 66 -20 14 -1
16 -6 9 -23 -4 -13 -11 -40 -15 -60 -5 -30 -4 -38 8 -38 9 0 18 19 26 50 16
66 31 80 86 80 l45 0 -16 -30 c-16 -30 -20 -70 -8 -70 13 0 61 52 59 64 -2 6
-1 8 1 3 3 -4 16 2 30 13 14 11 27 19 29 18 1 -2 -3 -24 -8 -50 -6 -27 -9 -51
-5 -54 13 -13 26 9 38 61 18 81 -10 104 -67 53 -20 -18 -20 -15 5 59 15 43 30
84 35 92 5 8 4 16 -5 22 -21 13 -34 5 -37 -22 -2 -13 -12 -53 -24 -87 -14 -46
-23 -61 -31 -53 -6 6 -28 11 -49 11 l-37 0 24 65 c28 73 31 95 12 95 -6 0 -18
-19 -25 -42z"/>
<path d="M11446 9298 c-48 -175 -77 -300 -73 -312 9 -22 27 -20 27 2 0 9 18
82 40 161 22 79 37 148 34 152 -8 13 -24 11 -28 -3z"/>
<path d="M2906 9240 c-7 -57 -9 -62 -42 -77 -41 -20 -47 -48 -9 -41 20 4 24 2
21 -11 -7 -22 -25 -104 -26 -113 0 -5 6 -8 14 -8 16 0 18 6 37 93 l12 58 36
-3 c45 -4 52 25 7 30 -27 3 -28 5 -22 45 12 74 11 81 -5 85 -13 2 -18 -9 -23
-58z"/>
<path d="M12622 9166 c-42 -127 -49 -174 -27 -179 5 -1 13 17 18 40 7 36 14
44 52 63 39 19 48 20 72 8 21 -10 29 -22 31 -46 2 -17 9 -32 15 -32 8 0 7 -3
-2 -9 -7 -5 -10 -14 -7 -20 16 -25 26 -8 26 44 0 57 -22 95 -54 95 -31 0 -24
20 14 41 22 13 40 26 40 31 0 4 3 7 8 6 4 -1 22 6 41 16 25 13 30 21 22 29
-13 13 -45 -2 -149 -71 -36 -23 -67 -41 -68 -39 -2 2 6 32 17 67 19 61 19 90
2 90 -4 0 -28 -60 -51 -134z"/>
<path d="M3116 9278 c-2 -7 -9 -32 -15 -55 -10 -38 -15 -43 -41 -43 -32 0 -50
-18 -30 -30 7 -4 21 -5 32 -2 16 4 18 1 13 -24 -15 -71 -17 -114 -6 -114 14 0
16 7 31 81 l11 57 44 7 c49 7 61 29 23 41 -24 7 -35 4 -30 -8 1 -5 -5 -8 -13
-8 -11 0 -12 5 -5 26 13 33 13 84 0 84 -6 0 -12 -6 -14 -12z"/>
<path d="M6826 9283 c-3 -3 -6 -16 -6 -27 0 -12 -7 -42 -17 -68 -15 -43 -20
-47 -52 -50 -24 -2 -36 -8 -36 -18 0 -11 9 -14 34 -12 29 3 33 1 27 -14 -4
-10 -10 -37 -13 -61 -5 -34 -3 -43 9 -43 11 0 19 18 27 60 l12 59 56 3 c78 4
85 28 9 28 -31 0 -56 2 -56 4 0 2 7 20 15 39 23 55 17 125 -9 100z"/>
<path d="M11326 9164 c-45 -118 -55 -159 -35 -152 11 4 99 216 99 240 0 4 -6
8 -14 8 -8 0 -28 -39 -50 -96z"/>
<path d="M4394 9239 c-10 -16 7 -29 37 -29 19 0 29 4 27 12 -5 15 -56 29 -64
17z"/>
<path d="M9715 9230 c-10 -16 16 -43 28 -31 11 11 2 41 -12 41 -5 0 -13 -5
-16 -10z"/>
<path d="M11260 9195 c0 -8 7 -15 15 -15 8 0 15 7 15 15 0 8 -7 15 -15 15 -8
0 -15 -7 -15 -15z"/>
<path d="M7257 9190 c-69 -21 -75 -58 -17 -96 44 -29 48 -39 24 -48 -28 -11
-47 -7 -69 14 -19 18 -24 19 -34 6 -9 -11 -7 -18 15 -35 29 -23 68 -27 109
-11 45 17 43 40 -6 82 -50 43 -45 60 16 60 28 0 35 4 33 17 -4 19 -31 23 -71
11z"/>
<path d="M13864 9189 c-32 -9 -84 -72 -84 -101 0 -30 40 -68 72 -68 36 0 98
35 98 56 0 20 -17 17 -47 -6 -31 -24 -56 -25 -77 -4 -24 24 -20 31 23 38 21 3
49 14 62 25 21 16 22 22 11 45 -13 28 -13 28 -58 15z m22 -38 c-3 -5 -15 -11
-26 -14 -17 -4 -19 -3 -9 9 12 15 44 20 35 5z"/>
<path d="M10208 9178 c-34 -12 -36 -35 -8 -80 11 -18 20 -39 20 -45 0 -21 -21
-15 -27 7 -6 24 -21 26 -30 5 -8 -21 25 -55 53 -55 34 0 42 42 18 89 -10 20
-20 39 -22 42 -1 4 9 9 23 13 14 4 25 13 25 21 0 17 -13 18 -52 3z"/>
<path d="M10965 9166 c-33 -11 -63 -25 -67 -31 -16 -22 13 -25 66 -6 l56 20
-35 -41 c-35 -42 -45 -82 -22 -91 6 -3 35 8 64 24 l52 28 3 -22 c2 -12 9 -22
17 -22 15 0 79 82 80 103 2 22 -28 13 -46 -15 -9 -16 -18 -30 -20 -32 -2 -3
-9 4 -16 14 -13 17 -16 16 -55 -10 -24 -15 -44 -26 -47 -23 -2 2 14 26 36 53
61 74 41 90 -66 51z"/>
<path d="M11998 9166 c-38 -11 -68 -27 -68 -33 0 -18 27 -16 89 7 29 12 55 19
57 18 2 -2 -19 -30 -47 -62 -27 -32 -49 -62 -49 -67 0 -25 34 -18 80 16 l50
37 0 -25 c0 -94 66 -66 105 44 19 52 19 59 1 59 -8 0 -21 -21 -31 -49 -9 -27
-23 -55 -31 -62 -14 -11 -15 -8 -9 24 8 42 -9 56 -44 37 l-21 -11 19 33 c15
23 17 35 9 45 -14 17 -29 15 -110 -11z"/>
<path d="M3302 9160 c-16 -10 -33 -24 -37 -30 -4 -6 -17 -15 -30 -20 -16 -6
-24 -19 -29 -48 -3 -22 -15 -62 -26 -88 -21 -48 -24 -110 -5 -108 6 1 21 34
34 74 18 54 26 68 33 56 33 -60 136 63 129 155 -2 25 -36 29 -69 9z m38 -35
c0 -20 -35 -88 -52 -102 -9 -7 -18 -5 -30 8 -15 16 -15 19 8 53 34 50 74 72
74 41z"/>
<path d="M4033 9155 c-18 -8 -33 -21 -33 -30 0 -19 10 -19 46 0 35 18 74 19
74 3 0 -7 -14 -33 -30 -58 -52 -78 -37 -95 40 -45 l54 35 27 -33 c23 -27 31
-30 46 -21 10 6 23 31 29 55 5 24 14 52 18 62 5 10 5 21 1 25 -12 12 -45 -39
-51 -80 l-7 -40 -19 31 c-23 35 -36 38 -81 14 -25 -12 -29 -13 -20 -2 6 8 16
27 22 41 20 52 -43 75 -116 43z"/>
<path d="M6984 9130 c-21 -17 -39 -39 -40 -48 -1 -9 -9 -37 -17 -62 -8 -25
-15 -47 -15 -50 0 -3 -5 -18 -11 -33 -19 -50 -23 -75 -12 -82 10 -5 45 57 56
99 12 47 18 55 44 54 33 -1 86 26 95 47 13 35 6 84 -13 95 -30 16 -45 12 -87
-20z m76 -35 c0 -27 -34 -55 -67 -55 -20 0 -21 2 -11 30 10 29 55 63 70 53 5
-2 8 -15 8 -28z"/>
<path d="M12313 9133 c-33 -6 -75 -61 -71 -92 3 -22 9 -26 39 -29 69 -6 117
68 73 112 -8 9 -16 15 -17 15 -1 -1 -12 -4 -24 -6z m25 -55 c-3 -23 -51 -49
-64 -35 -12 11 26 57 47 57 15 0 20 -5 17 -22z"/>
<path d="M12428 9121 c-32 -26 -55 -78 -40 -93 13 -13 32 -2 32 21 0 9 9 27
20 39 17 18 25 20 41 11 26 -13 37 -4 23 19 -16 25 -46 26 -76 3z"/>
<path d="M9770 9115 c-39 -21 -66 -85 -35 -85 8 0 15 6 15 13 0 18 32 47 53
47 11 0 17 -11 19 -42 4 -53 23 -60 31 -11 11 64 -33 105 -83 78z"/>
<path d="M11206 9106 c-3 -13 -9 -31 -12 -40 -4 -11 -1 -16 10 -16 18 0 40 46
32 67 -8 21 -23 15 -30 -11z"/>
<path d="M9954 9083 c-10 -38 7 -58 51 -58 l37 0 -6 -65 c-3 -36 -6 -75 -6
-86 0 -20 -4 -21 -70 -16 -121 8 -153 -42 -90 -141 29 -46 58 -63 96 -55 20 4
66 66 59 79 -3 4 -1 10 5 14 5 3 10 15 10 27 0 11 8 22 20 25 20 5 30 53 11
53 -12 0 -20 45 -11 62 4 7 10 48 14 91 6 83 -3 97 -37 57 -20 -24 -57 -27
-57 -4 0 11 6 14 20 9 16 -5 20 -2 20 14 0 17 -6 21 -30 21 -24 0 -31 -5 -36
-27z m44 -259 c16 -5 21 -12 17 -22 -3 -8 0 -19 7 -24 10 -6 8 -8 -4 -8 -10 0
-18 -6 -18 -14 0 -8 -10 -27 -23 -42 -30 -34 -56 -27 -85 25 -25 43 -28 77 -9
84 18 8 88 8 115 1z"/>
<path d="M4377 9093 c-13 -20 -18 -81 -8 -87 11 -7 26 22 33 64 3 22 -15 39
-25 23z"/>
<path d="M9634 9076 c-8 -22 0 -81 11 -81 6 0 11 21 13 48 3 45 -12 65 -24 33z"/>
<path d="M7655 9050 c-9 -15 -5 -18 30 -22 21 -2 30 1 30 12 0 18 -50 26 -60
10z"/>
<path d="M3705 8941 c-3 -6 2 -14 12 -19 16 -9 16 -13 0 -71 -20 -73 -23 -134
-4 -129 6 3 13 18 15 34 2 16 10 51 18 78 8 27 14 65 14 83 0 28 -3 33 -24 33
-14 0 -27 -4 -31 -9z"/>
<path d="M2528 8794 c-51 -27 -46 -80 14 -136 59 -55 24 -84 -53 -44 -61 31
-59 31 -59 7 0 -13 15 -25 49 -40 61 -26 83 -26 104 -3 26 29 21 65 -14 98
-43 40 -53 62 -38 80 18 21 60 18 66 -6 6 -24 21 -26 30 -3 4 10 -3 24 -21 40
-31 27 -41 28 -78 7z"/>
<path d="M3240 8729 c-35 -39 -46 -79 -29 -111 30 -56 77 -62 138 -18 41 30
59 55 48 66 -3 3 -27 -10 -53 -30 -26 -20 -55 -36 -64 -36 -20 0 -50 31 -35
37 60 21 106 74 89 101 -20 31 -61 27 -94 -9z m60 -6 c0 -14 -15 -30 -39 -43
-19 -10 -22 -10 -16 2 21 36 55 62 55 41z"/>
<path d="M2935 8729 c-4 -6 -5 -13 -2 -16 3 -3 -3 -30 -15 -60 -14 -40 -17
-58 -9 -66 6 -6 12 -9 14 -6 2 2 18 25 36 52 36 53 45 59 31 21 -13 -33 -13
-34 8 -34 10 0 29 12 43 26 13 14 31 30 40 35 14 7 16 3 12 -34 -5 -48 17 -91
37 -71 9 9 9 17 -1 32 -10 16 -10 28 0 61 19 67 -6 81 -66 35 -32 -24 -33 -24
-33 -5 0 23 -34 30 -46 9 -5 -7 -10 -4 -15 10 -9 24 -24 28 -34 11z"/>
<path d="M2699 8701 c-49 -49 -34 -94 24 -72 25 10 27 9 27 -17 0 -15 4 -33 9
-40 12 -19 45 -11 49 12 3 14 0 17 -13 12 -14 -5 -16 0 -14 31 4 66 0 79 -27
91 -23 11 -29 9 -55 -17z m51 -19 c0 -5 -12 -14 -27 -21 -28 -13 -28 -13 -9 8
20 22 36 27 36 13z"/>
<path d="M3597 8523 c-15 -14 -6 -31 19 -37 32 -8 38 -4 29 23 -6 20 -34 28
-48 14z"/>
<path d="M2785 8227 c-57 -57 -56 -73 14 -209 66 -130 74 -172 45 -234 -46
-96 -151 -99 -220 -8 -24 31 -26 39 -15 56 10 16 10 23 0 35 -10 12 -10 16 0
23 8 4 11 13 7 19 -11 17 -58 -9 -50 -28 4 -9 6 -28 5 -44 -3 -53 52 -123 120
-151 96 -40 199 50 199 173 0 43 -9 69 -55 157 -31 58 -56 115 -57 127 -2 30
29 76 57 83 36 9 71 1 65 -16 -8 -29 -5 -103 6 -107 13 -4 44 60 44 92 0 40
-33 65 -86 65 -39 0 -51 -5 -79 -33z"/>
<path d="M3804 8143 c-75 -81 -144 -234 -144 -319 0 -21 -10 -39 -30 -59 -16
-16 -30 -35 -30 -42 0 -12 -8 -14 -65 -17 -31 -2 -24 -31 8 -34 22 -3 38 6 72
40 l43 44 16 -37 c19 -42 57 -62 107 -57 48 5 50 28 2 28 -48 0 -79 21 -88 60
-6 27 0 37 44 86 28 30 66 83 85 117 40 73 79 192 70 219 -10 32 -45 20 -90
-29z m26 -108 c-30 -70 -103 -183 -130 -200 -17 -10 -3 58 27 130 26 62 64
122 105 165 23 25 23 25 26 3 2 -12 -11 -56 -28 -98z"/>
<path d="M12106 8155 c-78 -53 -136 -138 -177 -260 l-27 -80 -51 -9 c-61 -11
-62 -31 -3 -30 40 1 41 -1 36 -25 -3 -14 -12 -44 -20 -65 -10 -25 -12 -42 -5
-49 12 -12 36 32 52 96 11 44 13 47 45 47 24 0 34 5 34 15 0 9 -9 15 -25 15
-30 0 -30 1 -9 71 24 79 56 138 108 196 48 53 106 87 114 65 5 -16 32 -15 32
1 0 42 -52 48 -104 12z"/>
<path d="M4230 8138 c0 -2 -2 -37 -4 -78 -5 -117 -25 -200 -47 -200 -47 0
-119 -22 -119 -37 0 -12 7 -14 28 -10 15 3 44 8 64 12 l38 7 -10 -28 c-22 -63
-28 -123 -14 -135 10 -8 14 -5 19 18 21 99 39 153 51 153 16 0 18 12 5 26 -5
5 -3 40 5 84 19 106 18 190 -1 190 -8 0 -15 -1 -15 -2z"/>
<path d="M7143 8128 c-5 -7 -20 -50 -33 -95 -24 -88 -31 -99 -68 -105 -33 -5
-32 -22 1 -26 18 -2 27 -8 24 -16 -23 -60 -56 -179 -52 -187 12 -18 24 -8 34
29 35 125 57 182 72 182 22 0 32 27 14 38 -13 6 -11 20 11 91 15 51 22 87 16
93 -5 5 -13 4 -19 -4z"/>
<path d="M12919 8107 c-9 -18 -41 -77 -70 -132 l-54 -100 -45 0 c-33 0 -45 -4
-45 -15 0 -14 5 -16 52 -19 l21 -1 -19 -50 c-23 -60 -24 -103 -5 -119 21 -18
121 -10 121 9 0 11 -11 14 -48 11 -61 -3 -67 11 -35 92 21 56 27 63 56 67 38
6 47 24 15 28 -13 2 -23 5 -23 8 0 9 71 145 99 190 17 26 28 51 25 55 -11 18
-29 8 -45 -24z"/>
<path d="M7276 8070 c-10 -32 -21 -60 -25 -62 -4 -2 -17 -26 -29 -55 -40 -94
-66 -243 -43 -243 5 0 31 27 57 60 26 33 51 60 55 60 11 0 12 3 -7 -59 -15
-51 -12 -94 5 -75 14 16 42 131 35 148 -11 27 -50 18 -83 -19 -17 -20 -31 -30
-31 -22 0 29 33 121 70 199 41 83 50 128 28 128 -7 0 -21 -27 -32 -60z"/>
<path d="M11615 8099 c-4 -6 -2 -15 5 -19 10 -6 5 -34 -22 -121 l-34 -114 -49
-5 c-65 -7 -73 -30 -11 -30 25 0 46 -2 46 -4 0 -2 -9 -23 -20 -47 -23 -52 -25
-69 -7 -69 8 0 25 28 39 62 24 60 28 63 67 71 49 10 50 33 2 29 -27 -2 -32 1
-27 15 2 10 17 57 31 106 15 48 25 97 23 110 -3 24 -32 35 -43 16z"/>
<path d="M13057 8103 c-3 -5 -8 -24 -12 -43 -7 -31 -27 -79 -129 -302 -45 -98
-30 -108 49 -33 31 30 61 55 66 55 5 0 6 -13 3 -30 -7 -35 2 -68 16 -54 5 5
12 33 16 61 9 70 -10 78 -72 34 l-44 -32 36 78 c56 121 94 219 94 242 0 21
-15 37 -23 24z"/>
<path d="M5005 8028 c-25 -33 -66 -103 -92 -154 -52 -104 -126 -188 -168 -189
-14 0 -25 -3 -25 -7 0 -5 0 -15 0 -23 0 -26 31 -17 87 25 l53 41 0 -26 c0 -14
11 -37 25 -51 21 -21 32 -24 67 -20 45 6 64 18 54 35 -5 7 -15 7 -33 0 -15 -6
-37 -8 -50 -4 -45 11 -42 102 5 152 39 41 84 108 121 180 58 115 29 142 -44
41z m-25 -108 c-6 -11 -13 -20 -16 -20 -2 0 0 9 6 20 6 11 13 20 16 20 2 0 0
-9 -6 -20z"/>
<path d="M10175 8058 c-2 -7 -15 -59 -29 -116 -28 -111 -52 -166 -85 -196 -15
-14 -25 -16 -32 -9 -12 12 1 44 33 80 29 32 12 51 -19 21 -52 -48 -68 -109
-34 -128 31 -16 48 -12 76 18 36 39 62 97 91 203 14 51 30 96 36 100 15 10 2
39 -17 39 -9 0 -17 -6 -20 -12z"/>
<path d="M5554 8034 c-45 -133 -85 -224 -105 -237 -13 -10 -16 -23 -11 -65 3
-35 9 -52 18 -52 8 0 14 10 14 23 0 38 12 67 26 67 8 0 14 10 14 23 0 17 22
39 95 90 52 37 95 74 95 82 0 21 -24 19 -44 -4 -10 -10 -44 -38 -77 -61 l-60
-42 22 54 c39 99 43 118 31 130 -8 8 -13 7 -18 -8z"/>
<path d="M6437 7977 c-41 -106 -38 -103 -89 -90 -43 12 -66 5 -54 -16 4 -6 25
-14 47 -17 21 -4 39 -8 39 -9 0 -1 -7 -22 -15 -45 -21 -59 -19 -102 5 -123 25
-21 61 -30 79 -18 16 10 5 35 -13 28 -6 -2 -21 -1 -33 4 -28 10 -29 37 -6 108
13 41 22 53 42 58 34 8 52 23 45 35 -4 6 -10 5 -15 -3 -6 -11 -11 -11 -20 -2
-9 9 -6 26 14 73 30 68 33 90 15 90 -7 0 -26 -33 -41 -73z"/>
<path d="M8586 8018 c-28 -132 -39 -175 -51 -198 -8 -15 -11 -30 -8 -34 4 -3
1 -6 -5 -6 -7 0 -9 -7 -5 -17 3 -10 3 -15 -2 -11 -4 4 -24 -6 -43 -23 -23 -20
-38 -27 -44 -21 -24 24 24 102 62 102 21 0 27 15 9 25 -21 13 -59 -6 -84 -42
-14 -21 -26 -32 -26 -25 -1 6 -3 17 -4 22 -1 6 -3 15 -4 20 -2 17 -50 31 -70
21 -51 -28 -89 -129 -59 -159 30 -30 108 2 128 52 8 20 9 19 9 -5 1 -35 24
-53 57 -45 57 15 124 127 151 249 9 42 20 77 25 77 15 0 8 28 -8 34 -23 9 -23
8 -28 -16z m-228 -250 c4 -33 -36 -78 -69 -78 -19 0 -21 4 -15 33 3 17 7 37 8
44 1 7 5 10 9 8 3 -3 12 2 19 11 19 22 45 13 48 -18z"/>
<path d="M10966 7998 c-3 -13 -11 -57 -18 -98 l-13 -75 -42 -3 c-72 -5 -136
-99 -98 -142 45 -50 114 -8 153 94 25 65 56 221 47 236 -11 17 -24 11 -29 -12z
m-58 -239 c-9 -26 -51 -69 -67 -69 -3 0 -12 4 -20 9 -30 19 50 107 86 94 8 -3
9 -12 1 -34z"/>
<path d="M10775 7999 c-9 -14 5 -51 18 -46 18 6 20 44 3 50 -9 4 -18 2 -21 -4z"/>
<path d="M11796 7978 c-17 -24 -21 -48 -8 -48 8 0 62 55 62 64 0 16 -41 3 -54
-16z"/>
<path d="M7432 7874 c-28 -19 -62 -85 -62 -119 0 -38 42 -75 85 -75 44 0 75
15 75 37 0 11 -6 14 -22 8 -57 -17 -66 -17 -88 5 -17 17 -19 24 -9 36 6 8 17
14 23 14 26 0 56 41 56 75 0 40 -20 46 -58 19z m28 -34 c0 -5 -10 -15 -22 -21
-23 -12 -23 -12 -4 10 21 23 26 26 26 11z"/>
<path d="M4308 7864 c-41 -22 -53 -50 -33 -80 8 -13 11 -24 6 -24 -6 0 -15 -9
-21 -20 -15 -28 4 -60 35 -60 61 0 71 30 28 87 -31 41 -25 62 25 78 18 5 32
15 32 22 0 17 -38 16 -72 -3z m2 -134 c9 -16 8 -20 -5 -20 -8 0 -15 9 -15 20
0 11 2 20 5 20 2 0 9 -9 15 -20z"/>
<path d="M8079 7821 c-51 -50 -61 -82 -36 -113 14 -19 82 -42 97 -33 19 12 10
22 -31 34 -64 19 -64 42 3 100 31 27 40 30 57 22 27 -15 41 7 16 26 -32 23
-56 15 -106 -36z"/>
<path d="M3892 7843 c-19 -7 -42 -58 -42 -92 0 -57 79 -89 145 -59 32 15 35
43 3 33 -48 -14 -68 -17 -84 -11 -14 5 -13 10 10 33 48 48 25 119 -32 96z m9
-76 c-27 -27 -29 -3 -4 33 16 23 18 23 21 6 2 -10 -5 -28 -17 -39z"/>
<path d="M9652 7834 c-66 -46 -59 -150 8 -114 26 14 28 13 32 -17 2 -17 9 -28
18 -28 9 0 14 8 13 20 -2 11 5 40 14 64 l16 44 -27 24 c-32 27 -44 28 -74 7z
m34 -61 c-42 -39 -63 -36 -41 7 16 31 31 39 59 32 17 -5 15 -9 -18 -39z"/>
<path d="M9892 7838 c-6 -6 -24 -12 -39 -13 -22 0 -30 -7 -42 -38 -19 -51 -1
-73 29 -34 12 14 35 36 52 49 29 20 31 21 24 2 -15 -35 -16 -94 -1 -94 12 0
24 42 28 105 2 23 -3 31 -18 33 -11 1 -26 -3 -33 -10z"/>
<path d="M11093 7840 c-34 -14 -83 -88 -83 -126 0 -40 38 -74 82 -74 23 0 29
4 26 18 -2 10 -12 16 -23 15 -31 -3 -55 16 -55 42 0 26 40 79 74 96 15 8 11 1
-12 -24 -39 -41 -27 -59 17 -27 35 24 47 55 31 75 -14 17 -25 18 -57 5z"/>
<path d="M13181 7841 c-33 -9 -61 -50 -68 -99 -5 -34 -2 -44 20 -66 32 -32 73
-34 127 -6 26 13 40 27 40 40 0 22 -25 27 -33 7 -2 -6 -21 -18 -41 -25 -32
-12 -40 -12 -61 2 -30 20 -32 36 -5 43 11 3 20 9 20 14 0 5 6 9 13 9 25 0 50
37 43 65 -7 26 -14 28 -55 16z m8 -50 c-13 -11 -26 -18 -28 -15 -7 7 21 34 36
34 10 0 8 -6 -8 -19z"/>
<path d="M8661 7827 c-25 -13 -71 -90 -71 -120 0 -10 7 -31 15 -47 26 -50 94
-57 150 -14 19 14 35 35 35 45 0 26 -7 24 -47 -11 -41 -37 -85 -40 -107 -8
-17 24 -21 42 -8 34 4 -2 30 8 57 22 60 32 82 75 50 98 -23 17 -43 18 -74 1z
m53 -26 c6 -9 -18 -32 -51 -50 -31 -16 -30 3 2 34 25 26 40 31 49 16z"/>
<path d="M2974 7820 c-52 -21 -70 -94 -34 -130 27 -27 56 -25 87 6 22 22 25
31 19 71 -3 24 -8 49 -12 54 -6 11 -32 11 -60 -1z m41 -50 c10 -33 -4 -60 -31
-60 -30 0 -40 23 -26 56 14 29 48 32 57 4z"/>
<path d="M6106 7790 c-40 -45 -41 -49 -23 -75 10 -12 22 -16 41 -13 19 4 24 2
16 -7 -12 -14 6 -35 30 -35 25 0 30 10 17 30 -8 14 -8 25 1 45 17 37 15 82 -4
89 -29 11 -42 6 -78 -34z m64 -3 c0 -8 -8 -21 -17 -29 -45 -38 -58 -30 -22 16
22 28 39 34 39 13z"/>
<path d="M10630 7788 c-11 -18 -20 -48 -20 -65 0 -26 5 -34 25 -39 27 -7 55
10 55 32 0 17 -5 17 -31 4 -32 -18 -24 27 11 60 16 15 26 30 23 34 -16 15 -45
3 -63 -26z"/>
<path d="M11221 7798 c-5 -13 -16 -40 -25 -62 -20 -47 -20 -56 -1 -56 12 0 41
36 38 50 0 3 15 18 33 33 l33 28 -6 -35 c-7 -42 4 -89 19 -84 16 6 17 126 1
140 -9 7 -17 7 -28 -2 -12 -10 -19 -10 -27 -2 -18 18 -27 15 -37 -10z"/>
<path d="M11670 7780 c-24 -47 -26 -80 -5 -80 8 0 15 7 15 15 0 9 9 33 20 54
18 36 18 51 -1 51 -5 0 -18 -18 -29 -40z"/>
<path d="M5520 7785 c0 -8 6 -15 14 -15 30 0 37 -25 19 -74 -16 -43 -16 -47
-1 -63 20 -19 18 -21 39 71 12 57 12 59 -10 77 -28 23 -61 25 -61 4z"/>
<path d="M12176 7764 c-9 -16 -27 -42 -40 -58 l-25 -30 -6 30 c-13 57 -17 64
-31 64 -12 0 -13 -8 -8 -37 4 -21 11 -46 16 -56 8 -15 -2 -34 -50 -96 -61 -79
-102 -146 -102 -168 0 -33 22 -18 46 31 15 31 67 104 116 163 100 121 125 160
110 175 -7 7 -16 1 -26 -18z"/>
<path d="M5051 7754 c-12 -15 -22 -32 -22 -38 -1 -6 -3 -21 -4 -33 -5 -50 64
-63 102 -19 39 46 25 93 -33 110 -17 5 -27 0 -43 -20z m67 -33 c6 -17 -27 -51
-50 -51 -21 0 -22 9 -7 43 11 25 49 31 57 8z"/>
<path d="M5218 7758 c-31 -11 -61 -73 -47 -100 14 -26 45 -31 79 -13 39 20 54
52 41 86 -11 31 -35 39 -73 27z m42 -53 c0 -18 -7 -26 -25 -31 -34 -8 -41 0
-27 31 16 34 52 34 52 0z"/>
<path d="M9177 7683 c-4 -3 -7 -16 -7 -28 0 -12 -11 -39 -25 -59 -29 -42 -31
-56 -10 -56 18 0 40 32 58 85 17 50 8 83 -16 58z"/>
<path d="M2931 7583 c-22 -4 -23 -8 -17 -49 4 -30 1 -57 -9 -81 -22 -52 -7
-61 56 -35 68 29 112 28 166 -3 77 -46 94 -111 41 -162 -42 -41 -76 -53 -144
-53 -68 0 -115 19 -133 53 -16 30 -38 35 -48 11 -7 -18 34 -57 84 -80 46 -20
159 -18 209 5 52 24 94 77 94 120 0 108 -144 194 -254 152 -16 -6 -30 -10 -31
-9 -1 2 1 26 4 53 l6 50 90 1 c111 1 115 1 91 19 -19 15 -145 19 -205 8z"/>
<path d="M4937 7533 c-3 -21 -13 -66 -23 -100 -19 -67 -32 -76 -86 -62 -30 8
-47 -6 -30 -23 5 -5 28 -11 50 -11 l39 -2 -4 -65 c-3 -42 -1 -60 5 -52 5 8 13
14 17 15 4 1 8 24 10 51 3 51 14 66 55 66 30 0 57 16 47 27 -4 4 -26 6 -47 4
-22 -1 -40 -1 -40 1 0 2 9 32 20 66 24 76 26 122 6 122 -9 0 -16 -14 -19 -37z"/>
<path d="M9312 7532 c-42 -39 -41 -73 3 -142 43 -68 44 -102 6 -141 -16 -16
-34 -29 -40 -29 -6 0 -25 14 -43 30 -31 29 -32 31 -14 44 29 23 10 39 -25 21
-45 -24 -36 -51 30 -100 45 -32 63 -32 105 5 62 55 63 92 2 193 -31 52 -30 84
4 105 28 17 54 8 68 -23 14 -30 32 -33 32 -5 0 11 -3 20 -8 20 -4 0 -12 10
-17 23 -16 35 -65 35 -103 -1z"/>
<path d="M4126 7529 c-8 -13 -22 -50 -30 -82 -8 -32 -25 -89 -37 -127 -21 -63
-21 -71 -8 -107 12 -31 20 -39 45 -41 43 -4 79 28 99 88 14 42 15 53 4 66 -13
16 -55 15 -90 0 -15 -6 -14 4 8 80 13 49 29 97 35 107 16 30 -7 44 -26 16z
m44 -233 c0 -69 -69 -126 -89 -73 -11 27 -3 43 35 68 34 22 54 24 54 5z"/>
<path d="M7365 7513 c-44 -8 -113 -46 -127 -71 -42 -71 -48 -239 -12 -290 28
-38 103 -73 171 -79 47 -4 67 -1 108 18 74 35 131 95 140 147 17 105 -22 170
-139 228 -82 41 -113 52 -141 47z m41 -55 c-1 -21 4 -23 49 -24 118 -2 185
-91 155 -203 -12 -46 -75 -101 -137 -122 -77 -25 -198 14 -229 73 -19 37 -15
144 8 213 15 45 72 85 124 85 25 0 30 -4 30 -22z"/>
<path d="M7386 7358 c-3 -7 -4 -20 -4 -28 0 -8 -3 -39 -7 -69 -6 -43 -5 -53 6
-49 14 5 38 86 39 131 0 28 -27 39 -34 15z"/>
<path d="M6037 7486 c-7 -18 1 -26 25 -26 19 0 21 19 3 32 -15 11 -22 10 -28
-6z"/>
<path d="M8659 7493 c-6 -113 -17 -137 -60 -137 -23 -1 -34 -6 -34 -16 0 -11
9 -14 32 -12 l33 3 -15 -42 c-8 -23 -15 -52 -15 -65 0 -26 18 -43 24 -22 36
131 34 127 78 130 56 4 64 28 9 28 -40 0 -41 1 -34 28 12 43 9 105 -4 109 -7
3 -13 1 -14 -4z"/>
<path d="M8459 7463 c-6 -16 -13 -43 -16 -62 -6 -33 -14 -39 -87 -65 -15 -5
-16 -10 -8 -18 8 -8 21 -9 45 -1 l34 10 -13 -51 c-8 -28 -14 -57 -14 -63 0
-20 30 -15 32 5 2 31 3 37 10 47 3 6 9 24 12 42 5 22 14 33 29 35 12 2 23 12
25 22 3 15 0 18 -17 13 -25 -6 -27 9 -6 59 8 20 12 40 9 45 -10 17 -24 9 -35
-18z"/>
<path d="M4323 7455 c-3 -9 -3 -18 0 -22 10 -10 37 6 37 22 0 20 -29 20 -37 0z"/>
<path d="M8140 7445 c-6 -14 -10 -38 -10 -53 0 -15 -7 -52 -15 -82 -27 -102
-10 -121 38 -45 50 79 85 81 53 4 -7 -19 -11 -40 -9 -46 7 -19 33 -15 33 5 0
9 7 36 15 59 8 23 12 49 9 58 -9 22 -47 19 -79 -7 -26 -20 -27 -20 -22 -2 3
10 8 42 12 70 7 58 -8 82 -25 39z"/>
<path d="M5054 7383 c-38 -31 -39 -58 -2 -87 18 -14 39 -31 46 -37 19 -16 2
-30 -46 -36 -34 -5 -42 -2 -52 17 -8 16 -15 19 -22 12 -20 -20 18 -62 56 -62
106 0 140 71 56 115 -54 28 -28 65 45 65 53 0 39 24 -16 28 -30 1 -51 -3 -65
-15z"/>
<path d="M4427 7362 c-45 -30 -59 -57 -51 -98 4 -20 15 -45 25 -55 27 -27 82
-24 116 5 35 30 23 46 -16 23 -34 -20 -62 -22 -79 -5 -20 20 -14 35 17 46 39
14 68 58 54 81 -15 23 -34 24 -66 3z m31 -34 c-3 -7 -13 -15 -24 -17 -16 -3
-17 -1 -5 13 16 19 34 21 29 4z"/>
<path d="M10367 7350 c-34 -30 -52 -76 -41 -105 10 -25 34 -17 34 10 0 33 25
81 46 89 9 4 28 -1 41 -10 37 -24 52 -2 17 25 -36 28 -57 27 -97 -9z"/>
<path d="M3832 7328 c-36 -47 -38 -57 -17 -98 15 -28 29 -35 65 -31 20 3 72
60 65 71 -4 6 -1 10 4 10 19 0 12 49 -9 70 -34 34 -71 26 -108 -22z m98 -22
c0 -6 -9 -26 -20 -43 -23 -38 -54 -43 -70 -12 -12 21 -3 40 29 65 17 13 61 6
61 -10z"/>
<path d="M4624 7336 c-43 -43 -44 -76 -3 -110 34 -29 84 -34 114 -13 26 20 11
39 -20 25 -31 -14 -72 -3 -85 23 -18 32 13 73 50 66 36 -8 42 0 22 24 -23 27
-39 24 -78 -15z"/>
<path d="M8827 7345 c-20 -14 -37 -30 -37 -35 0 -6 -6 -10 -13 -10 -14 0 -32
-58 -42 -133 -3 -26 -13 -59 -21 -75 -18 -35 -18 -52 1 -52 17 0 42 45 53 97
6 30 13 38 39 45 16 4 49 28 72 53 48 52 55 94 19 119 -29 20 -27 21 -71 -9z
m63 -36 c0 -26 -71 -99 -95 -99 -12 0 -15 5 -11 16 3 9 6 20 6 24 0 5 14 25
31 45 35 40 69 47 69 14z"/>
<path d="M9486 7349 c-62 -49 -71 -132 -18 -167 32 -21 102 -22 126 -3 24 20
5 34 -29 21 -39 -15 -91 3 -99 35 -8 33 2 54 24 48 44 -12 80 43 48 75 -16 16
-21 15 -52 -9z"/>
<path d="M9977 7303 c-17 -36 -36 -66 -42 -65 -5 0 -15 19 -20 41 -19 76 -49
79 -35 3 8 -43 34 -82 55 -82 18 0 51 41 73 93 12 27 27 47 36 47 9 0 16 7 16
15 0 9 -9 15 -25 15 -21 0 -31 -11 -58 -67z"/>
<path d="M10111 7344 c-41 -34 -44 -95 -6 -120 21 -14 32 -14 75 -4 48 12 68
25 56 37 -3 4 -27 2 -53 -4 -46 -11 -73 -8 -73 7 0 4 14 10 32 14 40 8 58 23
58 50 0 50 -43 59 -89 20z m59 -14 c0 -11 -33 -30 -52 -30 -7 1 -3 9 11 20 25
22 41 26 41 10z"/>
<path d="M6333 7338 c-48 -53 -36 -129 24 -155 31 -13 41 -12 90 3 58 18 95
56 76 75 -7 7 -15 4 -25 -10 -27 -39 -123 -56 -148 -26 -10 12 -8 17 13 26 33
15 71 81 55 97 -19 19 -63 14 -85 -10z m47 -28 c-13 -25 -50 -46 -50 -29 0 17
30 49 47 49 11 0 11 -5 3 -20z"/>
<path d="M4286 7312 c7 -34 -20 -153 -43 -190 -64 -105 -78 -114 -89 -57 -9
51 -34 46 -29 -5 l4 -40 -282 0 c-155 0 -419 7 -587 15 -168 8 -359 15 -425
16 -70 1 -139 7 -168 16 -51 15 -63 13 -54 -10 8 -21 107 -37 229 -37 59 0
251 -7 426 -16 404 -21 929 -14 1282 15 135 11 291 21 348 21 84 0 102 3 102
15 0 21 -129 20 -478 -6 -156 -12 -285 -19 -288 -16 -3 2 9 28 25 56 35 58 61
149 61 210 0 34 -3 41 -20 41 -16 0 -19 -5 -14 -28z"/>
<path d="M5977 7329 c-38 -22 -60 -102 -35 -127 25 -25 78 -8 78 25 0 7 -7 13
-15 13 -8 0 -15 -4 -15 -10 0 -5 -7 -10 -15 -10 -34 0 -5 75 32 85 13 3 23 11
20 18 -5 16 -28 19 -50 6z"/>
<path d="M9686 7307 c-45 -45 -57 -117 -20 -117 9 0 14 11 14 29 0 42 44 91
81 91 19 0 29 5 29 15 0 11 -11 15 -35 15 -27 0 -44 -8 -69 -33z"/>
<path d="M6126 7193 c-4 -9 -2 -21 4 -27 13 -13 46 17 36 33 -11 16 -33 13
-40 -6z"/>
<path d="M8972 7194 c1 -9 9 -19 16 -22 9 -3 13 2 10 14 -1 9 -9 19 -16 22 -9
3 -13 -2 -10 -14z"/>
<path d="M5017 7046 c-5 -13 1 -16 29 -16 24 0 34 4 32 13 -7 19 -54 21 -61 3z"/>
<path d="M5090 6935 c-74 -7 -187 -18 -250 -24 -174 -17 -644 -25 -1477 -24
-612 1 -753 -2 -753 -12 0 -9 19 -14 61 -17 34 -1 62 -1 64 2 2 3 126 2 277
-2 273 -8 1304 -3 1578 8 80 3 244 14 365 25 121 11 256 19 299 17 53 -2 81 1
83 9 2 6 0 13 -4 16 -22 13 -121 14 -243 2z"/>
<path d="M7429 6823 c-1 -5 -1 -10 -1 -13 0 -3 -38 -6 -85 -7 -101 -3 -119
-12 -215 -110 -82 -83 -93 -98 -103 -143 -4 -19 -13 -54 -21 -78 -8 -23 -14
-57 -14 -76 0 -53 29 -134 60 -169 44 -50 151 -96 243 -103 71 -6 80 -5 133
22 66 33 134 91 164 138 11 19 31 66 45 105 20 59 23 82 18 148 -4 54 -12 87
-26 108 -28 42 -89 105 -102 105 -15 1 -61 42 -68 63 -6 17 -26 24 -28 10z m9
-63 c23 -10 42 -23 42 -27 0 -4 4 -14 9 -22 8 -12 12 -12 24 -2 13 10 22 3 58
-45 39 -51 44 -64 50 -127 12 -135 -58 -274 -174 -344 -57 -34 -68 -37 -139
-37 -68 0 -85 5 -152 37 -85 43 -110 74 -127 160 -10 48 -9 64 10 123 11 37
21 74 21 82 0 17 77 104 144 163 37 33 60 45 95 50 77 11 94 9 139 -11z"/>
<path d="M7325 6628 c-32 -17 -85 -70 -79 -80 10 -15 46 -8 51 10 7 28 93 71
93 47 0 -33 -99 -150 -156 -186 -20 -12 -34 -29 -34 -40 0 -25 7 -24 52 7 21
15 39 25 41 23 1 -2 9 -17 17 -34 21 -40 78 -47 110 -15 29 29 12 49 -21 26
-35 -24 -58 -20 -65 12 -3 15 -8 33 -10 41 -2 7 9 27 26 44 37 38 81 123 73
143 -6 17 -69 18 -98 2z"/>
<path d="M9233 6700 c-59 -35 -65 -69 -33 -190 24 -91 25 -122 5 -160 -19 -36
-35 -38 -62 -7 -28 31 -35 55 -22 79 16 29 -3 43 -25 19 -25 -28 -13 -85 24
-123 35 -35 69 -36 100 -3 34 36 37 104 10 208 -27 103 -23 131 26 155 l36 17
28 -35 c25 -31 30 -33 36 -17 8 23 -41 77 -70 77 -12 0 -35 -9 -53 -20z"/>
<path d="M10550 6706 c-44 -10 -119 -43 -139 -62 -2 -2 2 -10 8 -18 10 -12 6
-36 -19 -119 -17 -57 -40 -127 -50 -156 -23 -60 -25 -81 -7 -81 7 0 26 40 44
93 31 91 32 92 67 95 45 4 59 -21 60 -107 1 -81 21 -93 29 -19 7 54 -6 122
-24 133 -5 4 8 20 30 36 56 40 94 101 95 151 1 57 -21 70 -94 54z m66 -58
c-14 -70 -93 -148 -150 -148 -32 0 -33 13 -7 95 16 51 23 61 52 71 19 7 51 13
73 13 38 1 38 1 32 -31z"/>
<path d="M8089 6698 c0 -1 -2 -24 -4 -49 -2 -26 -24 -102 -49 -170 -61 -164
-60 -179 8 -114 21 19 47 40 58 46 19 10 20 9 16 -23 -3 -18 -7 -40 -9 -48 -2
-9 4 -16 19 -18 21 -3 22 0 22 58 0 71 -15 84 -63 56 -16 -9 -31 -15 -33 -13
-2 2 10 40 26 85 32 91 43 182 23 189 -7 3 -13 3 -14 1z"/>
<path d="M8589 6644 c-5 -15 -17 -53 -27 -85 -16 -54 -19 -59 -45 -59 -35 0
-70 -18 -62 -31 4 -5 22 -7 42 -3 34 6 36 6 29 -17 -4 -13 -10 -44 -13 -68 -9
-68 18 -47 35 27 12 58 15 61 45 64 33 3 40 24 7 22 -15 0 -18 6 -17 42 1 23
5 40 8 38 6 -3 39 72 39 89 0 19 -32 4 -41 -19z"/>
<path d="M8360 6631 c0 -39 -19 -128 -35 -166 -15 -34 -15 -110 0 -110 6 0 11
16 12 35 3 63 19 90 52 90 15 0 34 7 41 15 11 13 7 15 -25 15 -34 0 -37 2 -31
23 4 12 9 46 13 75 5 44 3 52 -11 52 -11 0 -16 -9 -16 -29z"/>
<path d="M8714 6496 c-45 -38 -67 -79 -114 -208 -30 -79 -32 -108 -11 -108 5
0 21 34 37 75 28 74 29 75 64 75 20 0 46 7 59 16 46 33 68 136 35 168 -21 22
-25 21 -70 -18z m56 -30 c0 -55 -34 -105 -72 -106 -28 0 -17 54 20 94 38 42
52 45 52 12z"/>
<path d="M8270 6485 c0 -9 9 -15 25 -15 16 0 25 6 25 15 0 9 -9 15 -25 15 -16
0 -25 -6 -25 -15z"/>
<path d="M9808 6488 c-10 -7 -32 -44 -49 -83 l-33 -70 -10 54 c-6 30 -17 56
-25 59 -11 4 -13 -6 -7 -53 14 -121 44 -124 101 -10 34 68 44 80 65 80 33 0
33 29 0 33 -14 2 -33 -3 -42 -10z"/>
<path d="M11663 6480 c-38 -22 -43 -54 -19 -112 10 -23 11 -39 5 -49 -8 -12
-11 -11 -20 4 -13 23 -25 22 -32 -3 -5 -20 15 -50 34 -50 17 0 59 48 59 67 -1
10 -7 29 -15 43 -23 39 -18 63 16 82 17 10 27 22 24 28 -9 14 -15 13 -52 -10z"/>
<path d="M9922 6477 c-25 -15 -62 -64 -62 -85 0 -8 5 -10 13 -6 10 6 10 4 0
-7 -20 -21 -15 -47 12 -65 19 -12 28 -14 38 -5 8 6 16 8 20 5 8 -8 97 33 97
45 0 16 -18 14 -75 -8 -60 -22 -75 -18 -75 20 0 27 3 29 39 29 44 0 61 15 64
57 2 23 -2 28 -23 30 -14 2 -35 -3 -48 -10z m28 -42 c-7 -8 -17 -12 -23 -8 -6
4 -3 11 8 19 23 17 32 10 15 -11z"/>
<path d="M10144 6475 c-4 -10 -13 -13 -25 -10 -13 5 -20 0 -24 -17 -36 -153
-19 -186 36 -68 26 58 36 70 55 70 26 0 30 10 12 28 -17 17 -47 15 -54 -3z"/>
<path d="M11857 6468 c-29 -26 -67 -94 -67 -119 0 -31 34 -60 76 -66 60 -8
159 45 124 67 -7 5 -27 -2 -48 -16 -40 -28 -69 -30 -99 -9 -30 21 -20 49 19
52 44 3 80 40 76 78 -4 40 -44 46 -81 13z m53 -21 c0 -19 -21 -37 -44 -37 -18
0 -18 1 4 25 26 28 40 32 40 12z"/>
<path d="M9363 6470 c-31 -13 -73 -79 -73 -117 0 -47 24 -66 78 -60 42 5 83
30 69 43 -3 3 -20 1 -38 -5 -43 -15 -81 -4 -77 22 2 14 12 21 31 23 36 4 60
23 52 42 -3 10 0 12 10 8 20 -7 20 18 -1 38 -17 18 -20 18 -51 6z m27 -40 c0
-9 -32 -30 -46 -30 -4 0 1 9 11 20 19 21 35 26 35 10z"/>
<path d="M9575 6470 c-39 -16 -72 -63 -79 -112 -6 -39 -4 -48 8 -48 9 0 19 15
26 40 6 21 22 53 37 70 21 26 32 31 53 26 33 -6 44 2 29 21 -13 14 -44 16 -74
3z"/>
<path d="M10850 6454 c-34 -29 -34 -51 4 -93 18 -21 19 -23 3 -18 -24 9 -38 0
-30 -18 7 -21 72 -20 80 1 3 9 -5 26 -21 43 -35 36 -33 60 4 74 17 6 30 17 30
24 0 22 -37 15 -70 -13z"/>
<path d="M10636 6439 c-51 -60 -47 -121 9 -145 52 -21 124 -9 97 18 -8 8 -15
8 -24 1 -9 -8 -23 -6 -47 5 -34 17 -58 48 -28 36 18 -6 77 51 77 75 0 47 -48
53 -84 10z m45 -17 c-5 -9 -19 -26 -32 -37 l-22 -20 13 25 c17 34 31 50 42 50
5 0 5 -7 -1 -18z"/>
<path d="M11062 6441 c-33 -24 -41 -27 -46 -15 -9 24 -26 6 -26 -27 0 -17 -14
-63 -30 -104 -35 -83 -42 -130 -21 -130 9 0 22 23 33 55 10 30 21 61 23 67 3
10 10 10 29 2 20 -10 30 -9 50 5 46 30 81 131 56 161 -17 20 -21 19 -68 -14z
m39 -44 c-14 -59 -33 -83 -58 -74 -15 5 0 53 25 80 34 35 42 34 33 -6z"/>
<path d="M11245 6440 c-3 -5 -3 -14 0 -20 3 -5 -1 -20 -9 -32 -32 -45 -14 -88
35 -88 43 0 55 23 40 78 -14 57 -49 89 -66 62z m35 -104 c-18 -18 -34 8 -19
35 l12 23 9 -24 c5 -15 5 -27 -2 -34z"/>
<path d="M11428 6418 c-45 -41 -73 -94 -56 -104 7 -4 18 2 27 15 33 46 73 91
83 91 6 0 8 -25 6 -62 -4 -80 15 -88 30 -13 21 103 -20 136 -90 73z"/>
<path d="M8852 6318 c2 -13 8 -23 13 -23 6 0 11 10 13 23 2 15 -2 22 -13 22
-11 0 -15 -7 -13 -22z"/>
<path d="M10187 5828 c-63 -149 -57 -141 -96 -134 -65 11 -74 11 -78 -1 -5
-14 4 -18 59 -28 l37 -6 -15 -34 c-21 -51 -18 -127 6 -157 28 -36 70 -51 104
-38 37 14 24 30 -24 30 -29 0 -43 6 -54 22 -20 29 -20 87 0 137 17 43 22 45
145 57 69 7 99 17 86 30 -9 9 -72 7 -144 -5 l-51 -8 29 65 c30 66 37 102 19
102 -5 0 -16 -15 -23 -32z"/>
<path d="M7245 5836 c-45 -20 -165 -159 -191 -221 -23 -57 -34 -127 -24 -169
11 -48 91 -123 159 -148 56 -21 140 -23 185 -4 95 40 164 153 173 286 5 63 2
83 -14 115 -11 22 -23 52 -27 67 -7 31 -37 54 -78 62 -14 2 -35 9 -46 15 -28
15 -100 13 -137 -3z m138 -34 c15 -10 33 -27 41 -37 14 -19 41 -12 29 8 -4 7
0 6 10 -2 9 -7 17 -20 17 -28 0 -7 10 -33 21 -55 47 -92 -7 -278 -99 -343 -39
-27 -52 -30 -115 -30 -82 1 -115 14 -183 77 -40 37 -44 45 -44 88 0 26 6 67
14 92 13 46 99 164 150 208 48 41 115 50 159 22z"/>
<path d="M7247 5693 c-51 -8 -24 -28 32 -25 28 2 51 1 51 -2 0 -3 -18 -17 -41
-31 -22 -15 -39 -31 -37 -37 3 -7 23 -18 46 -26 46 -15 52 -30 24 -55 -24 -22
-40 -21 -79 2 -29 19 -43 18 -43 -1 0 -14 64 -48 91 -48 35 0 75 33 82 66 6
31 -22 64 -54 64 -17 0 -10 9 30 38 69 50 67 62 -11 61 -35 -1 -76 -4 -91 -6z"/>
<path d="M8505 5779 c-5 -7 -10 -22 -12 -33 -1 -12 -9 -42 -15 -68 -12 -44
-15 -48 -52 -56 -53 -10 -60 -32 -11 -32 31 0 36 -3 30 -17 -4 -10 -9 -35 -12
-57 -5 -30 -3 -38 8 -34 8 3 15 13 17 24 2 10 10 38 19 62 13 36 20 42 44 42
38 0 82 18 74 30 -4 7 -24 8 -51 4 -24 -3 -44 -4 -44 -1 0 3 7 33 16 67 10 41
12 66 6 72 -6 6 -12 5 -17 -3z"/>
<path d="M9216 5737 c-20 -30 -37 -61 -38 -68 -2 -7 -7 -18 -11 -24 -42 -54
-76 -120 -66 -130 7 -7 16 -3 28 14 16 20 23 22 59 16 l41 -7 3 -76 c4 -91 22
-103 26 -17 3 84 9 102 33 108 22 6 17 27 -7 27 -11 0 -14 19 -12 101 4 123
-7 133 -56 56z m28 -91 l-7 -77 -31 7 c-17 3 -32 8 -34 9 -2 2 6 21 17 43 11
22 18 42 15 45 -5 5 38 55 44 51 2 -1 0 -36 -4 -78z"/>
<path d="M7956 5772 c-2 -4 -12 -36 -21 -72 -9 -36 -32 -107 -51 -159 -44
-119 -35 -132 40 -61 31 29 59 51 61 48 3 -3 2 -24 -3 -46 -10 -42 -2 -67 18
-60 7 2 14 31 16 71 6 84 -8 94 -71 49 -29 -21 -47 -27 -51 -20 -4 6 -3 8 4 4
6 -3 17 11 26 36 27 71 64 207 58 213 -8 7 -20 6 -26 -3z"/>
<path d="M8259 5710 c-1 -16 -2 -33 -4 -37 -15 -58 -19 -63 -53 -74 -47 -15
-59 -26 -45 -40 8 -8 17 -8 33 1 31 17 34 8 16 -52 -10 -35 -12 -56 -5 -63 13
-13 23 4 39 72 13 53 20 62 54 67 22 3 20 21 -2 21 -18 0 -19 9 -7 88 7 40 5
47 -9 47 -11 0 -16 -9 -17 -30z"/>
<path d="M8659 5598 c-49 -53 -96 -135 -94 -166 1 -18 0 -30 -3 -27 -3 3 -16
-21 -28 -52 -16 -40 -20 -61 -13 -68 14 -13 32 13 55 76 14 38 23 49 39 49 33
0 88 41 107 80 45 89 -2 171 -63 108z m43 -76 c-12 -32 -28 -52 -50 -65 -40
-24 -46 -20 -27 17 8 16 15 34 15 41 0 8 12 27 26 45 20 23 29 28 40 19 11 -9
10 -18 -4 -57z"/>
<path d="M9840 5574 c-17 -15 -30 -20 -28 -13 2 8 -3 14 -10 14 -11 0 -62
-105 -62 -127 0 -17 22 -6 49 24 20 23 26 35 18 40 -9 5 -8 8 2 8 8 0 23 8 34
18 19 16 19 16 11 -8 -13 -41 -11 -75 6 -75 9 0 17 15 22 42 4 23 12 51 17 62
26 48 -9 57 -59 15z"/>
<path d="M9402 5570 c-18 -11 -40 -36 -49 -55 -15 -32 -16 -37 -1 -51 20 -20
47 -12 88 26 l31 29 -6 -37 c-3 -20 -13 -67 -22 -104 -15 -66 -16 -68 -47 -68
-17 0 -41 -7 -53 -15 -70 -49 -86 -175 -23 -175 21 0 62 43 93 98 21 37 25 40
30 23 3 -12 10 -21 16 -21 13 0 15 56 2 65 -6 3 -2 33 9 72 27 94 37 212 19
224 -22 14 -52 10 -87 -11z m20 -52 c-19 -16 -37 -26 -40 -23 -4 4 8 20 26 37
19 16 37 26 40 23 4 -4 -8 -20 -26 -37z m-39 -290 c-16 -28 -39 -58 -51 -66
-21 -14 -22 -13 -22 15 0 47 45 103 83 103 17 0 16 -4 -10 -52z"/>
<path d="M9626 5571 c-52 -35 -71 -96 -43 -136 18 -24 91 -15 120 14 29 28 14
38 -26 16 -34 -18 -68 -18 -74 0 -2 6 16 19 39 31 38 18 43 24 43 54 0 42 -18
48 -59 21z m24 -36 c-7 -8 -17 -15 -22 -15 -6 0 -5 7 2 15 7 8 17 15 22 15 6
0 5 -7 -2 -15z"/>
<path d="M9070 5491 c-14 -27 -13 -41 3 -41 15 0 39 44 30 54 -11 11 -22 6
-33 -13z"/>
<path d="M8802 5467 c-14 -16 -6 -27 20 -27 13 0 18 6 16 17 -4 22 -22 27 -36
10z"/>
<path d="M9092 4949 c-99 -49 -182 -172 -182 -270 0 -50 14 -70 62 -88 51 -19
211 9 187 33 -3 3 -37 2 -75 -3 -119 -14 -155 10 -140 92 18 96 139 227 211
227 18 0 18 2 0 -51 -25 -70 -1 -95 35 -36 27 44 26 92 -2 111 -29 20 -25 21
-96 -15z"/>
<path d="M10390 4960 c-8 -5 -23 -7 -32 -4 -13 4 -21 -3 -28 -22 -6 -15 -9
-33 -6 -39 7 -19 -38 -133 -58 -148 -11 -8 -16 -19 -12 -25 4 -7 -4 -48 -19
-92 -29 -93 -32 -140 -10 -140 9 0 15 9 15 24 0 30 47 183 59 190 4 3 17 -2
29 -10 23 -16 42 -70 42 -120 0 -32 23 -63 34 -46 9 14 -14 135 -30 159 -18
29 -18 33 4 33 24 0 99 79 117 125 19 45 19 90 -1 109 -17 18 -80 21 -104 6z
m87 -35 c11 -30 -20 -108 -55 -139 -35 -31 -78 -49 -98 -42 -19 7 43 172 69
184 33 16 77 14 84 -3z"/>
<path d="M7115 4926 c-114 -36 -179 -96 -226 -206 -28 -66 -31 -82 -26 -143 3
-47 11 -77 24 -95 29 -39 162 -132 188 -132 13 0 52 9 87 20 54 16 75 30 126
82 52 51 66 72 82 126 48 156 26 293 -55 339 -46 26 -134 30 -200 9z m125 -26
c0 -5 11 -10 25 -10 14 0 25 -5 25 -11 0 -6 9 -9 20 -6 16 4 22 -5 41 -61 20
-60 21 -70 9 -136 -20 -109 -36 -147 -92 -203 -55 -55 -118 -85 -182 -85 -48
0 -167 86 -183 133 -20 58 -15 115 18 192 34 82 56 108 117 144 74 44 202 71
202 43z"/>
<path d="M7194 4823 c-16 -20 -57 -67 -91 -103 -35 -37 -63 -72 -63 -78 0 -9
16 -10 55 -6 l55 7 -1 -45 c-1 -25 1 -50 5 -57 13 -20 26 -1 26 39 0 50 8 70
29 70 9 0 23 5 31 10 12 8 11 13 -8 33 -20 21 -21 28 -13 72 5 27 14 51 20 53
16 5 14 42 -2 42 -8 0 -27 -17 -43 -37z m-16 -106 c-6 -20 -16 -37 -22 -37 -6
0 -22 -3 -36 -6 -22 -6 -20 -1 19 39 25 26 46 45 48 44 1 -2 -3 -20 -9 -40z"/>
<path d="M9376 4924 c-3 -9 -6 -29 -6 -45 0 -19 -4 -27 -13 -23 -18 7 -101
-237 -93 -272 8 -31 31 -26 31 7 1 46 17 119 27 119 6 0 8 6 5 14 -3 8 -3 16
1 18 6 3 67 140 79 181 7 22 -22 23 -31 1z"/>
<path d="M10034 4846 c-19 -41 -34 -80 -34 -86 0 -8 -9 -10 -24 -6 -32 8 -42
-9 -16 -27 17 -12 19 -19 10 -41 -16 -44 -12 -94 10 -116 23 -23 31 -24 83 -9
35 10 46 22 29 33 -13 8 -52 -5 -46 -15 8 -14 -9 -11 -34 7 -25 17 -27 39 -11
94 11 36 14 38 62 43 52 7 74 18 63 35 -4 6 -21 7 -47 1 -23 -6 -44 -7 -47 -5
-2 3 11 39 31 80 19 41 33 77 29 80 -14 15 -26 1 -58 -68z"/>
<path d="M7764 4873 c-10 -48 -52 -177 -84 -259 -16 -43 -30 -84 -30 -91 0
-24 25 -13 50 21 27 37 87 82 96 73 3 -3 1 -22 -6 -41 -12 -38 -7 -56 16 -56
8 0 14 9 14 22 0 12 5 37 12 55 10 29 10 36 -5 51 -17 16 -20 16 -68 -11 -42
-23 -48 -25 -40 -9 6 11 7 22 3 26 -3 4 -2 10 3 14 6 4 16 22 22 41 10 27 10
38 0 50 -10 12 -9 14 4 9 17 -6 27 18 44 100 5 25 3 32 -9 32 -9 0 -18 -12
-22 -27z"/>
<path d="M11648 4816 c-28 -58 -35 -65 -55 -60 -27 7 -31 -13 -7 -31 14 -10
15 -17 4 -49 -15 -46 -6 -97 20 -121 24 -21 96 -17 135 9 38 25 21 37 -27 20
-62 -22 -87 -18 -99 14 -8 20 -7 39 5 78 l16 51 65 7 c78 8 118 22 112 39 -2
6 -11 10 -18 8 -34 -10 -131 -22 -136 -17 -3 3 6 25 20 50 21 38 23 47 11 56
-11 10 -20 -1 -46 -54z"/>
<path d="M8264 4856 c-3 -8 -7 -20 -8 -28 -2 -7 -6 -20 -9 -28 -4 -8 -13 -35
-20 -60 -11 -40 -17 -46 -45 -50 -41 -6 -46 -24 -9 -28 20 -3 27 -8 23 -18 -3
-8 -13 -39 -22 -69 -8 -30 -19 -55 -24 -55 -13 0 -22 -32 -11 -43 23 -23 46 4
63 70 27 114 33 123 72 123 33 0 66 21 66 41 0 12 -27 12 -35 -1 -6 -9 -55
-15 -55 -6 0 2 11 38 25 80 14 42 25 79 25 81 0 12 -31 4 -36 -9z"/>
<path d="M9465 4850 c-4 -6 -3 -16 3 -22 6 -6 12 -6 17 2 4 6 3 16 -3 22 -6 6
-12 6 -17 -2z"/>
<path d="M8040 4818 c0 -12 -8 -45 -17 -75 -16 -51 -18 -53 -53 -53 -26 0 -37
-4 -37 -15 0 -10 10 -15 30 -15 22 0 28 -4 23 -15 -19 -50 -37 -128 -32 -141
9 -24 24 -16 31 19 18 87 39 137 57 137 25 0 58 18 58 31 0 7 -13 9 -30 7 -25
-4 -30 -2 -25 11 17 43 28 100 22 114 -9 24 -27 21 -27 -5z"/>
<path d="M9538 4697 c-65 -53 -53 -127 21 -127 23 0 48 8 62 19 32 25 19 36
-24 20 -20 -7 -43 -9 -53 -4 -16 6 -14 9 13 16 43 12 76 55 62 80 -13 25 -48
24 -81 -4z m52 -17 c0 -9 -32 -30 -46 -30 -4 0 1 9 11 20 19 21 35 26 35 10z"/>
<path d="M9718 4714 c-18 -18 -59 -117 -54 -130 5 -13 14 -10 49 17 23 18 39
29 35 25 -10 -12 10 -46 27 -46 9 0 13 11 13 33 0 17 3 42 7 55 10 29 -13 30
-49 1 l-26 -21 10 28 c10 25 1 52 -12 38z"/>
<path d="M11168 4685 c-39 -22 -71 -86 -59 -119 6 -13 18 -27 28 -30 27 -9
112 9 130 27 24 23 8 38 -25 22 -44 -22 -96 -23 -100 -2 -3 13 4 17 31 17 72
0 121 92 52 97 -16 2 -42 -4 -57 -12z m52 -25 c0 -11 -33 -30 -52 -30 -7 1 -3
9 11 20 25 22 41 26 41 10z"/>
<path d="M11396 4679 c-32 -26 -32 -33 0 -66 20 -20 23 -28 12 -34 -8 -6 -17
-3 -25 7 -15 21 -43 11 -43 -14 0 -27 55 -38 87 -17 28 19 30 46 3 70 -26 23
-8 49 27 40 18 -4 23 -1 23 15 0 27 -48 27 -84 -1z"/>
<path d="M10542 4660 c-43 -43 -58 -94 -38 -125 8 -13 25 -27 37 -30 29 -10
105 3 119 20 16 19 -2 26 -41 15 -47 -14 -65 -12 -83 6 -18 18 -13 36 8 28 19
-7 73 22 86 45 5 11 10 31 10 45 0 23 -4 26 -34 26 -25 0 -43 -8 -64 -30z m68
-10 c0 -13 -41 -50 -57 -50 -19 0 -16 10 9 37 22 23 48 31 48 13z"/>
<path d="M8468 4646 c-25 -18 -50 -35 -57 -37 -12 -4 -92 -193 -107 -253 -6
-24 -4 -27 11 -24 13 2 28 28 47 83 16 44 31 82 34 84 2 2 12 -3 22 -12 29
-26 47 -20 91 29 36 41 61 94 61 131 0 12 -30 33 -49 33 -5 0 -29 -15 -53 -34z
m67 -28 c-17 -56 -75 -126 -94 -114 -21 13 -2 80 31 109 41 34 72 37 63 5z"/>
<path d="M9376 4639 c-16 -40 -14 -63 6 -57 9 3 37 71 38 91 0 4 -6 7 -14 7
-8 0 -21 -18 -30 -41z"/>
<path d="M10732 4654 c-30 -21 -54 -70 -47 -94 9 -29 47 -30 78 -3 10 9 17 11
17 5 0 -14 -59 -176 -94 -259 -30 -71 -32 -83 -12 -83 8 0 26 20 40 44 31 53
70 86 102 86 30 0 38 14 18 31 -14 11 -22 10 -54 -7 l-37 -21 29 80 c16 44 35
109 42 143 13 62 13 64 -10 79 -29 19 -44 19 -72 -1z m25 -60 c-50 -43 -59
-27 -14 24 15 16 24 19 31 11 8 -7 3 -17 -17 -35z"/>
<path d="M10929 4633 c-21 -57 -21 -78 0 -97 29 -26 69 -8 104 46 31 48 33 63
11 72 -27 10 -36 7 -29 -14 7 -22 -18 -66 -48 -82 -19 -10 -20 -8 -15 28 3 22
7 45 9 53 7 27 -21 22 -32 -6z"/>
<path d="M8614 4506 c-8 -21 4 -52 15 -40 15 15 17 47 4 51 -7 3 -16 -2 -19
-11z"/>
<path d="M6994 4107 c-128 -81 -188 -157 -219 -277 -20 -79 -16 -109 25 -181
37 -63 92 -103 172 -125 137 -36 217 7 331 178 55 83 64 138 42 253 -16 83
-36 125 -59 125 -7 0 -19 7 -26 15 -7 9 -20 15 -29 14 -9 -1 -33 5 -53 15 -61
26 -125 21 -184 -17z m172 -13 c19 -9 46 -30 60 -47 24 -29 27 -30 39 -14 18
26 30 5 48 -84 22 -107 13 -156 -47 -246 -88 -134 -160 -176 -264 -154 -82 18
-135 52 -171 111 -42 68 -45 87 -26 161 20 78 62 145 125 202 91 81 166 104
236 71z"/>
<path d="M7024 3970 c-14 -5 -25 -26 -37 -69 -9 -33 -17 -64 -17 -67 0 -4 17
-4 39 0 21 3 52 1 68 -5 37 -12 62 -53 47 -77 -14 -22 -69 -35 -93 -22 -11 5
-29 10 -40 10 -15 0 -19 5 -14 16 4 12 0 15 -18 12 -36 -5 -30 -37 11 -60 27
-15 47 -18 88 -14 72 6 102 27 102 70 0 57 -45 96 -126 108 -18 3 -19 7 -12
37 l9 34 69 -5 c52 -4 70 -2 74 8 3 9 -3 16 -17 18 -53 11 -114 14 -133 6z"/>
<path d="M10785 4012 c-27 -42 -49 -83 -48 -89 0 -7 -3 -11 -7 -8 -4 2 -17 -7
-30 -22 -18 -20 -24 -23 -30 -12 -7 13 -5 31 15 147 6 35 5 42 -8 42 -20 0
-59 -67 -82 -140 -10 -30 -32 -85 -50 -122 -20 -41 -29 -70 -23 -74 13 -8 51
29 54 53 1 10 17 54 34 98 17 44 28 65 25 47 -12 -77 25 -113 72 -70 14 12 45
49 69 82 39 51 44 55 44 33 0 -39 -50 -191 -66 -200 -19 -11 -18 -33 2 -41 25
-10 34 -7 34 10 0 9 11 47 24 84 25 70 59 238 50 252 -13 20 -32 2 -79 -70z"/>
<path d="M8217 4013 c-4 -3 -7 -15 -7 -25 0 -11 -7 -51 -16 -89 -15 -68 -17
-70 -45 -67 -16 1 -29 -1 -29 -5 0 -4 0 -11 0 -17 0 -5 9 -10 20 -10 25 0 25
-12 1 -84 -17 -52 -14 -75 8 -62 4 3 17 35 27 71 16 55 22 65 41 65 12 0 27 8
32 19 9 16 7 18 -14 15 -29 -3 -30 2 -10 81 8 33 17 68 19 77 4 19 -17 42 -27
31z"/>
<path d="M7706 3998 c-2 -7 -12 -44 -22 -83 -9 -38 -28 -101 -41 -139 -24 -74
-29 -116 -13 -116 5 0 33 18 62 40 68 51 78 51 73 0 -2 -22 1 -40 6 -40 6 0 7
-4 4 -10 -3 -5 -2 -10 4 -10 14 0 23 39 19 86 -3 34 -6 39 -31 42 -19 2 -43
-6 -69 -23 -34 -23 -40 -24 -34 -9 11 29 76 254 76 265 0 14 -30 11 -34 -3z"/>
<path d="M8019 3998 c-2 -8 -11 -46 -14 -63 -11 -55 -44 -120 -63 -123 -26 -4
-51 -31 -31 -33 8 -1 20 -1 27 0 15 2 16 6 -8 -57 -20 -51 -19 -77 2 -70 5 2
19 33 32 68 21 62 23 65 59 70 47 6 53 24 11 28 -27 3 -32 7 -30 28 0 13 4 24
7 24 5 0 39 109 39 125 0 5 -29 7 -31 3z"/>
<path d="M8860 3974 c0 -13 54 -24 122 -24 26 0 49 -3 52 -8 2 -4 -5 -32 -16
-62 -11 -30 -27 -80 -35 -110 -9 -30 -20 -59 -27 -63 -6 -4 -39 -6 -73 -5 -64
3 -88 -6 -63 -23 18 -12 297 -1 323 13 36 19 5 29 -69 22 l-75 -7 6 29 c4 16
21 71 38 121 l32 93 108 0 c67 0 107 4 107 10 0 17 -16 19 -227 22 -148 3
-203 0 -203 -8z"/>
<path d="M10117 3983 c-13 -12 -7 -33 8 -33 8 0 15 9 15 20 0 20 -11 26 -23
13z"/>
<path d="M9430 3860 c-58 -63 -57 -122 4 -139 40 -11 79 -4 73 13 -2 6 -20 12
-41 14 -22 2 -40 10 -43 19 -8 21 24 78 53 93 13 7 21 17 18 22 -10 16 -36 7
-64 -22z"/>
<path d="M11291 3855 c-38 -33 -39 -47 -5 -79 32 -29 24 -46 -21 -46 -31 0
-54 -14 -42 -27 12 -11 79 -4 102 11 32 21 31 28 -5 69 l-30 35 23 15 c13 8
34 17 48 19 34 4 30 22 -7 26 -22 2 -40 -5 -63 -23z"/>
<path d="M11918 3857 c-25 -20 -58 -82 -58 -107 0 -25 49 -60 84 -60 44 0 85
15 92 35 10 26 -4 29 -41 10 -26 -15 -40 -17 -61 -10 -36 13 -43 35 -12 35 14
0 36 13 52 29 58 60 8 121 -56 68z m52 -22 c0 -17 -48 -51 -58 -41 -4 4 6 19
21 32 33 28 37 29 37 9z"/>
<path d="M10187 3859 c-21 -13 -60 -86 -52 -100 9 -14 22 -2 41 36 30 63 71
57 48 -7 -15 -44 -12 -72 7 -66 19 6 41 106 29 129 -12 21 -45 24 -73 8z"/>
<path d="M11649 3831 c-22 -21 -39 -48 -39 -59 0 -41 54 -48 108 -14 22 14 22
14 22 -41 0 -85 -2 -87 -78 -87 -46 0 -71 -5 -83 -16 -17 -15 -17 -19 7 -83
38 -102 85 -129 122 -68 11 17 25 50 32 72 7 22 21 48 32 58 16 16 17 44 0 33
-4 -2 -5 48 -4 111 4 126 1 133 -52 133 -20 0 -40 -12 -67 -39z m81 -4 c0 -23
-46 -59 -72 -55 -22 3 -22 4 12 36 36 34 60 41 60 19z m-15 -272 c-18 -61 -41
-96 -60 -89 -16 7 -58 111 -50 125 4 5 33 9 65 9 l59 0 -14 -45z"/>
<path d="M9611 3834 c-34 -43 -23 -94 20 -94 26 0 68 56 66 88 -2 22 -8 28
-34 30 -24 2 -36 -3 -52 -24z m49 -29 c0 -8 -9 -19 -20 -25 -15 -8 -20 -8 -20
3 0 14 19 37 32 37 4 0 8 -7 8 -15z"/>
<path d="M10334 3824 c-43 -44 -47 -90 -10 -100 14 -3 30 -3 37 2 9 5 10 -6 5
-47 -12 -93 -15 -99 -48 -99 -58 0 -88 -62 -88 -186 0 -52 14 -63 45 -34 23
22 95 158 95 181 0 8 13 9 43 5 44 -7 77 -1 77 14 0 4 -25 11 -55 15 -52 6
-54 7 -49 33 2 15 11 62 19 106 8 43 12 82 9 87 -8 14 -34 -2 -34 -22 0 -10
-4 -19 -9 -19 -5 0 -16 -3 -25 -6 -26 -10 -19 20 12 48 15 14 35 28 45 31 26
10 20 27 -9 27 -18 0 -38 -12 -60 -36z m6 -281 c0 -13 -73 -153 -78 -149 -11
12 11 119 29 137 18 18 49 26 49 12z"/>
<path d="M11121 3831 c-38 -36 -39 -47 -3 -84 l27 -29 -33 7 c-29 6 -33 5 -30
-12 4 -22 48 -29 78 -13 27 15 25 26 -11 59 l-31 28 28 22 c14 11 40 21 55 21
19 0 29 5 29 15 0 11 -11 15 -39 15 -29 0 -47 -7 -70 -29z"/>
<path d="M8383 3815 c-23 -19 -45 -35 -50 -35 -11 0 -103 -231 -103 -259 0
-11 4 -21 9 -21 15 0 29 23 58 96 28 69 29 70 56 61 41 -13 82 8 117 61 71
107 7 178 -87 97z m87 -17 c0 -54 -67 -122 -108 -111 -34 8 -21 49 30 96 47
43 78 49 78 15z"/>
<path d="M9764 3796 c-22 -44 -25 -59 -16 -68 9 -9 20 -4 47 22 31 30 35 32
35 13 0 -35 25 -33 64 3 20 19 40 34 45 34 6 0 11 -15 13 -32 2 -22 9 -34 21
-36 14 -3 18 1 14 15 -3 10 -8 35 -12 56 -6 36 -8 38 -33 32 -15 -3 -37 -15
-48 -26 l-21 -20 4 24 c7 34 -10 41 -40 17 -21 -17 -25 -17 -23 -3 3 37 -24
20 -50 -31z"/>
<path d="M10930 3822 c-59 -59 -48 -134 21 -140 45 -4 89 13 89 34 0 12 -5 14
-17 9 -56 -25 -120 -10 -71 16 37 19 59 51 56 79 -4 37 -41 38 -78 2z m32 -34
c-28 -28 -38 -18 -11 11 12 12 24 20 27 16 3 -3 -4 -15 -16 -27z"/>
<path d="M11469 3827 c-56 -38 -47 -93 15 -84 22 3 35 -1 46 -16 11 -13 23
-18 33 -14 22 8 22 37 1 37 -21 0 -11 49 14 68 15 11 15 14 2 22 -26 17 -76
11 -111 -13z m61 -16 c0 -12 -40 -41 -57 -41 -19 0 -5 26 20 38 28 14 37 14
37 3z"/>
<path d="M9215 3824 c-3 -10 -15 -36 -25 -56 -25 -46 -25 -48 0 -48 12 0 26
12 35 30 13 26 42 50 59 50 3 0 6 -16 6 -36 0 -50 24 -39 28 13 4 50 -17 71
-52 55 -17 -7 -27 -7 -34 0 -8 8 -13 6 -17 -8z"/>
<path d="M10032 3791 c-26 -46 -28 -61 -7 -61 8 0 15 5 15 11 0 6 9 22 20 36
11 14 20 32 20 39 0 27 -27 13 -48 -25z"/>
<path d="M8617 3684 c-14 -14 -7 -25 13 -22 12 2 21 8 21 13 0 12 -24 18 -34
9z"/>
<path d="M2772 3159 c-13 -5 -55 -12 -93 -15 -50 -5 -69 -11 -65 -19 2 -7 8
-59 11 -116 6 -83 3 -130 -15 -234 -22 -134 -28 -240 -16 -253 14 -13 220 -2
235 13 18 18 5 38 -17 26 -19 -10 -161 -21 -179 -14 -19 7 -16 80 8 223 16 97
19 148 15 231 l-6 105 76 12 c85 13 94 17 94 38 0 16 -14 17 -48 3z"/>
<path d="M3025 3140 c-16 -26 155 -52 214 -32 l31 11 0 -37 c0 -20 -7 -98 -16
-172 -10 -81 -14 -170 -11 -222 l6 -87 -77 4 c-42 3 -89 8 -104 11 -27 5 -47
-11 -31 -27 5 -5 51 -11 102 -14 50 -2 96 -7 102 -11 5 -3 17 0 25 7 13 11 14
28 9 103 -5 60 -2 135 8 221 9 72 17 157 19 190 l3 60 -35 -3 c-85 -6 -148 -6
-192 0 -27 4 -50 3 -53 -2z"/>
<path d="M4544 3093 c-3 -10 -16 -45 -29 -78 l-23 -60 -48 -5 c-34 -3 -49 -9
-49 -20 0 -11 10 -14 42 -12 l42 3 -6 -55 c-7 -70 9 -110 52 -130 37 -18 102
-21 125 -6 23 14 7 21 -55 23 -46 2 -61 7 -76 26 -21 25 -25 84 -9 125 9 24
14 26 70 26 44 0 60 4 60 14 0 24 -26 39 -49 27 -18 -10 -61 -15 -61 -8 0 2
11 31 25 65 14 34 25 66 25 72 0 17 -30 11 -36 -7z"/>
<path d="M7176 3102 c-2 -4 -7 -26 -10 -47 -3 -22 -14 -71 -24 -110 l-18 -70
-47 3 c-36 3 -47 0 -47 -11 0 -9 14 -17 40 -21 l39 -6 3 -67 c2 -42 8 -68 16
-71 9 -3 12 14 12 60 0 77 12 96 65 100 27 2 41 8 43 19 3 14 -4 16 -43 11
l-46 -5 6 29 c4 16 13 53 20 82 7 29 9 52 4 52 -5 0 -3 10 6 23 14 22 12 37
-6 37 -4 0 -10 -4 -13 -8z"/>
<path d="M9005 3099 c-41 -23 -78 -66 -108 -124 -29 -54 -32 -69 -32 -150 0
-80 3 -95 27 -135 41 -70 80 -102 131 -107 45 -5 92 10 82 27 -3 5 -27 6 -53
3 -42 -5 -52 -2 -81 23 -72 60 -98 172 -66 281 29 97 114 181 157 154 25 -16
30 -14 26 12 -2 16 -10 23 -33 24 -16 2 -39 -2 -50 -8z"/>
<path d="M6656 3052 c-3 -26 -20 -103 -36 -171 -17 -67 -30 -129 -30 -137 0
-27 39 -15 56 19 20 39 63 87 80 87 12 0 7 -40 -11 -82 -4 -11 0 -20 15 -28
12 -6 24 -9 27 -7 2 3 5 35 7 72 2 53 -1 68 -14 75 -23 12 -74 -16 -101 -55
-12 -16 -18 -22 -15 -12 18 56 48 198 49 236 3 61 -19 64 -27 3z"/>
<path d="M8430 3075 c-5 -13 -22 -55 -38 -92 -16 -37 -32 -80 -36 -96 -6 -25
-9 -27 -44 -21 -28 4 -41 2 -52 -10 -17 -22 2 -45 23 -28 7 6 23 9 35 5 19 -4
22 -12 22 -53 0 -74 16 -106 64 -129 48 -24 68 -26 97 -11 25 14 26 45 2 34
-10 -4 -30 -7 -45 -6 -61 3 -88 38 -88 112 l0 39 57 3 c46 2 59 7 61 20 3 15
-2 17 -27 12 -17 -4 -41 -4 -55 0 -23 6 -24 8 -14 43 5 20 25 70 44 110 19 41
32 78 29 83 -11 17 -25 11 -35 -15z"/>
<path d="M10220 3087 c0 -9 21 -20 60 -31 65 -19 87 -35 96 -72 17 -67 -36
-203 -93 -239 -33 -20 -38 -38 -12 -43 23 -4 80 58 107 118 54 115 37 216 -40
250 -64 28 -118 36 -118 17z"/>
<path d="M6944 3054 c6 -22 -4 -98 -20 -154 -2 -10 -18 -17 -41 -18 -20 -2
-40 -5 -45 -8 -17 -11 4 -24 38 -24 l34 0 -7 -42 c-10 -63 -9 -91 4 -95 7 -3
16 22 24 71 11 69 14 76 35 76 33 0 54 10 54 27 0 10 -8 12 -34 8 l-34 -7 15
70 c17 76 12 122 -13 122 -12 0 -15 -6 -10 -26z"/>
<path d="M2944 3045 c-6 -26 -82 -100 -146 -143 -23 -15 -38 -33 -38 -45 0
-21 19 -21 130 -1 l36 6 -7 -74 c-7 -71 4 -120 21 -102 4 5 10 47 12 92 2 65
7 87 21 96 21 16 22 46 1 46 -10 0 -14 6 -10 18 2 9 7 43 11 75 5 48 4 57 -9
57 -9 0 -18 -11 -22 -25z m-10 -102 c-8 -48 -10 -50 -64 -58 l-45 -7 55 51
c30 27 56 50 58 51 2 0 0 -17 -4 -37z"/>
<path d="M10560 2960 c0 -21 16 -26 39 -11 18 11 5 31 -20 31 -12 0 -19 -7
-19 -20z"/>
<path d="M5139 2911 c-13 -10 -28 -18 -34 -18 -13 0 -34 -95 -28 -127 4 -16
12 -26 23 -26 15 0 19 12 25 61 9 80 45 120 75 84 12 -15 30 -12 30 5 0 15
-31 40 -49 40 -10 0 -29 -8 -42 -19z"/>
<path d="M7374 2902 c-21 -16 -45 -36 -52 -44 -7 -9 -21 -14 -31 -11 -16 4
-21 -4 -31 -54 -7 -32 -23 -87 -36 -122 -26 -70 -32 -131 -11 -131 7 0 22 35
36 85 20 74 26 85 42 80 11 -3 27 -7 37 -10 28 -8 104 36 125 73 27 46 28 129
3 148 -28 20 -38 18 -82 -14z m66 -52 c0 -51 -15 -83 -50 -103 -31 -19 -85
-23 -95 -7 -18 29 109 171 136 154 5 -3 9 -23 9 -44z"/>
<path d="M8089 2917 c-8 -7 -24 -25 -35 -42 -10 -16 -24 -33 -31 -38 -9 -5 -8
-14 3 -35 7 -15 14 -33 14 -39 0 -19 45 -44 79 -45 36 -1 88 29 74 43 -10 10
-43 2 -43 -11 0 -16 -64 6 -78 28 -14 21 -13 22 12 22 56 0 97 77 60 114 -18
19 -33 20 -55 3z m41 -39 c0 -16 -31 -48 -47 -48 -17 0 -17 10 3 38 16 23 44
30 44 10z"/>
<path d="M5271 2894 c-43 -54 -27 -141 29 -164 24 -10 36 -8 74 9 43 19 46 22
34 41 -16 25 -24 25 -37 1 -23 -42 -91 -24 -91 25 0 22 2 23 20 14 28 -15 59
-3 71 27 24 62 -58 101 -100 47z m64 -28 c0 -14 -8 -20 -27 -20 -32 -2 -32 -2
-17 25 13 25 44 21 44 -5z"/>
<path d="M5461 2891 c-34 -32 -38 -48 -18 -76 11 -14 21 -17 47 -11 l33 6 -6
-145 c-4 -80 -8 -150 -10 -156 -1 -6 3 -13 9 -16 7 -2 23 16 38 41 31 54 60
76 98 76 18 0 28 5 28 15 0 28 -65 18 -104 -16 l-35 -30 4 33 c2 18 7 88 9
155 6 118 5 123 -16 138 -31 21 -41 19 -77 -14z m59 -18 c0 -10 -32 -43 -42
-43 -12 0 -10 24 4 38 13 13 38 16 38 5z"/>
<path d="M5967 2913 c-16 -3 -26 -10 -24 -16 5 -18 147 -20 147 -2 0 7 -14 15
-31 19 -32 6 -44 6 -92 -1z"/>
<path d="M3674 2900 c-59 -24 -83 -109 -41 -147 27 -26 102 -43 95 -22 -2 8
-18 19 -34 24 -44 15 -54 24 -54 49 0 39 32 69 76 72 50 3 48 2 34 19 -14 16
-43 18 -76 5z"/>
<path d="M4256 2889 c-34 -27 -33 -49 4 -84 35 -33 36 -38 14 -60 -12 -11 -20
-13 -27 -6 -18 18 -27 13 -27 -14 0 -32 36 -34 74 -4 35 27 33 60 -5 103 l-31
36 24 9 c12 5 31 12 41 15 10 3 15 10 12 16 -10 17 -51 11 -79 -11z"/>
<path d="M3850 2852 c-29 -36 -23 -89 12 -115 23 -17 34 -19 65 -11 35 8 38
12 41 47 4 45 -8 62 -60 87 l-38 18 -20 -26z m74 -38 c36 -36 2 -78 -44 -54
-19 10 -28 49 -13 63 11 12 41 7 57 -9z"/>
<path d="M7833 2867 c-31 -14 -49 -61 -35 -92 14 -31 49 -33 86 -4 l26 20 0
-53 c0 -29 -3 -70 -6 -91 l-7 -37 -48 6 c-37 5 -55 2 -75 -11 -24 -15 -26 -22
-22 -65 5 -53 40 -110 67 -110 30 0 67 37 90 89 30 72 39 261 14 310 -20 38
-56 54 -90 38z m48 -45 c-16 -31 -40 -47 -52 -35 -17 17 8 53 37 53 21 0 23
-3 15 -18z m7 -247 c9 -9 -10 -55 -34 -85 -26 -31 -27 -31 -46 -13 -25 25 -36
92 -17 104 13 9 87 4 97 -6z"/>
<path d="M4048 2843 c-16 -8 -28 -20 -28 -27 0 -8 -3 -28 -6 -45 -9 -45 21
-42 36 4 22 67 65 64 79 -7 10 -48 31 -48 31 0 0 28 -7 47 -25 66 -27 29 -46
31 -87 9z"/>
<path d="M5926 2841 c-8 -13 -2 -15 82 -29 62 -11 92 -8 92 8 0 16 -23 23 -95
27 -47 3 -75 1 -79 -6z"/>
<path d="M10567 2824 c-3 -3 -3 -21 0 -39 4 -27 -1 -39 -32 -74 -21 -22 -45
-41 -54 -41 -23 0 -31 -9 -24 -26 8 -21 27 -17 69 17 50 40 74 77 74 115 0 30
-20 60 -33 48z"/>
<path d="M3050 2775 c-11 -13 -10 -18 6 -30 23 -18 31 -18 40 -4 3 6 -2 20
-13 31 -18 17 -21 18 -33 3z"/>
<path d="M9547 2774 c-4 -4 -7 -11 -7 -16 0 -13 50 -6 53 7 2 12 -36 19 -46 9z"/>
<path d="M9730 2765 c0 -8 7 -15 15 -15 8 0 15 7 15 15 0 8 -7 15 -15 15 -8 0
-15 -7 -15 -15z"/>
<path d="M9274 2749 c-3 -6 -2 -15 4 -21 15 -15 56 -5 60 15 3 13 -3 17 -27
17 -16 0 -33 -5 -37 -11z"/>
<path d="M7590 2715 c0 -8 7 -15 15 -15 8 0 15 7 15 15 0 8 -7 15 -15 15 -8 0
-15 -7 -15 -15z"/>
<path d="M3220 2257 c0 -11 20 -17 83 -23 l82 -9 4 -40 c2 -22 -2 -98 -9 -170
-6 -71 -13 -146 -14 -165 -2 -19 0 -61 3 -93 6 -50 5 -57 -8 -51 -9 4 -46 9
-83 12 -64 4 -68 3 -68 -17 0 -20 5 -22 53 -20 28 1 72 -1 97 -5 l45 -8 1 158
c0 88 5 215 11 284 8 92 8 128 -1 136 -6 7 -53 15 -103 19 -78 5 -93 4 -93 -8z"/>
<path d="M2536 2241 c-4 -6 -4 -48 0 -93 4 -56 1 -121 -11 -203 -22 -160 -22
-245 1 -262 46 -33 194 7 170 46 -3 5 -23 0 -45 -11 -22 -11 -54 -18 -73 -16
-32 3 -33 4 -36 53 -2 28 4 110 14 182 9 74 15 163 12 201 l-5 69 76 -1 c60
-1 76 2 76 13 0 11 -15 15 -55 17 -30 1 -69 5 -86 9 -20 4 -34 3 -38 -4z"/>
<path d="M4685 2240 c-3 -5 21 -36 53 -67 67 -66 94 -130 93 -216 -1 -93 -62
-223 -132 -279 -40 -32 -51 -58 -24 -58 47 0 165 183 184 285 19 103 -23 222
-107 301 -50 46 -57 50 -67 34z"/>
<path d="M6007 2220 c-37 -43 -41 -66 -22 -135 8 -32 15 -71 15 -86 0 -32 -23
-59 -50 -59 -26 0 -62 -32 -52 -48 7 -10 15 -10 36 -2 43 16 47 4 19 -52 -35
-69 -36 -128 -4 -162 30 -32 72 -41 108 -24 39 19 29 34 -20 30 -83 -6 -102
49 -52 150 14 29 23 59 20 69 -4 10 1 29 9 41 20 28 20 90 1 156 -14 47 -14
55 0 82 20 39 36 45 85 32 30 -7 42 -7 50 3 15 18 3 23 -62 31 -52 6 -55 5
-81 -26z"/>
<path d="M3835 2203 c-15 -16 -40 -53 -54 -83 -23 -49 -26 -67 -26 -165 0
-100 3 -115 28 -167 30 -60 71 -98 128 -117 33 -11 89 -8 111 5 19 12 -6 25
-36 20 -75 -14 -152 40 -186 131 -39 105 -19 263 42 338 25 29 33 33 58 28 23
-4 30 -2 30 10 0 16 -20 27 -49 27 -10 0 -31 -12 -46 -27z"/>
<path d="M2816 2161 c-10 -16 -5 -151 6 -157 5 -3 17 1 27 10 30 27 70 20 107
-20 38 -40 41 -52 19 -99 -23 -47 -52 -60 -104 -44 -22 7 -46 18 -52 26 -17
20 -49 16 -49 -6 0 -25 20 -40 72 -55 82 -25 159 20 174 103 13 70 -49 141
-122 141 -42 0 -44 1 -44 30 0 29 0 29 68 32 49 2 67 7 67 17 0 10 -17 14 -65
16 -36 0 -72 5 -81 9 -10 4 -20 3 -23 -3z"/>
<path d="M5360 2129 c0 -14 32 -41 108 -91 l63 -41 -23 -26 c-13 -14 -44 -49
-70 -78 -49 -53 -52 -60 -42 -87 10 -25 34 -19 34 9 0 16 22 49 65 97 36 39
65 79 65 88 0 9 -33 37 -74 64 -41 26 -80 54 -87 62 -14 17 -39 19 -39 3z"/>
<path d="M4476 2030 c-31 -10 -66 -37 -66 -53 0 -5 21 -32 46 -60 37 -38 44
-51 33 -58 -22 -14 -39 -11 -39 7 0 21 -24 12 -28 -11 -8 -38 64 -49 98 -15
24 24 19 37 -38 96 -40 41 -40 42 -19 52 12 6 31 12 42 14 20 3 28 29 10 34
-5 1 -23 -2 -39 -6z"/>
<path d="M4041 1993 c-44 -45 -56 -173 -15 -173 19 0 30 30 15 39 -17 11 -2
90 21 113 15 15 22 16 39 7 23 -12 42 -1 31 18 -4 6 -19 14 -34 18 -22 6 -33
1 -57 -22z"/>
<path d="M5220 2008 c-58 -9 -84 -23 -58 -33 22 -9 141 8 145 21 6 17 -25 21
-87 12z"/>
<path d="M4206 1978 c-9 -12 -16 -27 -16 -32 0 -5 -7 -14 -16 -20 -13 -10 -12
-17 12 -60 15 -26 37 -52 50 -58 28 -13 88 -3 104 18 18 21 5 29 -25 16 -35
-16 -61 -15 -79 4 -21 21 -20 27 6 39 12 6 29 22 37 36 13 24 13 29 -2 53 -21
32 -51 33 -71 4z m40 -54 c-3 -8 -12 -14 -20 -14 -16 0 -12 23 8 49 9 12 12
11 14 -3 2 -9 1 -24 -2 -32z"/>
<path d="M5154 1921 c-2 -2 -4 -10 -4 -18 0 -10 19 -13 74 -13 66 0 99 10 83
26 -6 6 -147 11 -153 5z"/>
<path d="M3095 1861 c-8 -15 3 -31 21 -31 9 0 14 7 12 17 -4 20 -24 28 -33 14z"/>
<path d="M10263 1717 c-3 -6 -2 -12 4 -14 6 -2 30 -14 54 -26 62 -31 73 -60
74 -194 0 -108 -1 -112 -30 -155 -38 -53 -117 -108 -145 -101 -14 4 -20 0 -20
-11 0 -51 89 -16 160 61 62 68 74 109 67 234 -5 100 -18 138 -59 176 -29 27
-95 46 -105 30z"/>
<path d="M8650 1680 c0 -11 6 -20 13 -20 9 0 9 -2 0 -8 -6 -4 -11 -14 -11 -22
1 -8 0 -34 0 -57 -2 -39 -4 -42 -34 -45 -39 -4 -35 -24 5 -22 26 2 27 1 27
-53 0 -59 22 -113 45 -113 19 0 19 19 0 44 -9 11 -15 41 -15 68 0 40 3 48 18
48 21 0 52 29 52 48 0 17 -30 15 -36 -3 -9 -22 -34 -18 -34 6 0 11 -4 17 -10
14 -5 -3 -10 -2 -10 4 0 5 6 12 13 14 9 4 8 8 -3 16 -10 7 -11 11 -2 11 8 0
12 16 12 45 0 33 -4 45 -15 45 -8 0 -15 -9 -15 -20z"/>
<path d="M8185 1670 c-3 -5 1 -20 9 -32 8 -13 17 -46 21 -74 6 -50 6 -51 -25
-60 -37 -10 -36 -29 0 -29 23 -1 25 -5 28 -48 2 -33 7 -47 18 -47 10 0 14 13
14 50 0 48 1 50 29 50 17 0 31 6 35 16 10 25 7 34 -9 34 -8 0 -15 -4 -15 -10
0 -5 -6 -10 -14 -10 -8 0 -16 -6 -18 -12 -3 -7 -7 17 -11 53 -3 36 -11 77 -18
92 -13 28 -35 42 -44 27z"/>
<path d="M6848 1633 c-9 -10 -34 -54 -54 -98 -34 -69 -38 -88 -39 -155 0 -68
3 -80 27 -112 15 -20 47 -45 70 -56 46 -22 129 -34 149 -22 23 15 -3 30 -50
30 -97 0 -171 66 -171 151 0 82 73 248 108 245 24 -2 21 28 -4 32 -11 2 -27
-5 -36 -15z"/>
<path d="M9349 1622 c-93 -62 -113 -140 -59 -226 22 -33 43 -53 74 -67 57 -25
99 -33 131 -25 40 10 25 27 -25 31 -75 5 -127 32 -155 80 -39 66 -34 104 20
154 47 43 74 50 120 29 34 -15 45 -1 16 23 -29 24 -87 25 -122 1z"/>
<path d="M9795 1578 c4 -35 8 -69 10 -75 3 -8 -5 -13 -20 -13 -31 0 -49 -33
-41 -73 11 -57 47 -74 82 -40 15 15 16 30 9 118 -4 55 -7 110 -6 123 1 16 -5
22 -20 22 -19 0 -20 -4 -14 -62z m15 -140 c0 -13 -5 -30 -10 -38 -9 -13 -11
-13 -20 0 -11 17 -13 44 -3 53 14 15 33 6 33 -15z"/>
<path d="M5307 1603 c-9 -14 -12 -258 -3 -271 4 -7 13 -12 19 -12 15 0 11 233
-4 238 -6 2 -5 10 2 18 8 10 9 18 2 25 -6 6 -13 7 -16 2z"/>
<path d="M6006 1551 c-21 -23 -39 -95 -31 -121 10 -30 -5 -67 -31 -79 -13 -6
-24 -15 -24 -21 0 -16 31 -12 51 6 17 15 20 14 43 -13 29 -34 74 -47 112 -33
36 14 22 28 -28 28 -31 1 -48 7 -60 23 -24 28 -23 39 7 90 26 47 32 88 15 120
-14 24 -32 24 -54 0z m31 -58 c-8 -49 -27 -67 -27 -26 0 38 9 63 22 63 7 0 8
-14 5 -37z"/>
<path d="M7529 1535 c-50 -27 -45 -48 24 -99 20 -15 35 -32 32 -37 -11 -16
-33 -9 -38 13 -5 18 -9 19 -21 9 -15 -13 -11 -40 8 -53 17 -12 51 -9 71 5 28
21 12 59 -37 92 -39 26 -40 28 -23 41 10 8 29 14 42 14 14 0 23 6 23 15 0 19
-46 19 -81 0z"/>
<path d="M7957 1544 c-19 -19 -4 -52 38 -87 49 -41 55 -61 26 -76 -21 -12 -31
-5 -31 22 0 28 -25 15 -28 -16 -3 -21 3 -30 23 -39 22 -10 30 -8 53 9 44 32
40 59 -15 115 l-48 50 35 -4 c26 -2 35 1 35 12 0 10 -12 16 -40 18 -23 2 -44
0 -48 -4z"/>
<path d="M4380 1526 c-66 -21 -94 -130 -45 -176 19 -18 31 -22 61 -17 41 7 49
11 40 26 -4 5 -21 7 -39 4 -44 -7 -62 15 -54 63 8 49 33 74 74 74 36 0 43 14
16 29 -12 5 -31 5 -53 -3z"/>
<path d="M9083 1520 c-35 -21 -35 -34 -1 -79 10 -13 18 -32 18 -42 0 -27 -20
-34 -27 -10 -6 24 -5 23 -27 15 -23 -9 -19 -31 9 -50 32 -21 61 -11 73 26 9
25 7 35 -14 65 -28 42 -25 51 16 60 33 7 39 19 14 29 -23 9 -26 8 -61 -14z"/>
<path d="M10565 1531 c-8 -15 3 -31 21 -31 9 0 14 7 12 17 -4 20 -24 28 -33
14z"/>
<path d="M7156 1498 c-22 -30 -22 -148 -1 -148 19 0 38 69 24 87 -19 22 -2 43
35 43 19 0 38 5 41 11 9 14 7 15 -42 23 -36 5 -44 3 -57 -16z"/>
<path d="M4921 1494 c-26 -19 -27 -50 -2 -88 26 -38 19 -47 -30 -40 -31 5 -39
3 -39 -8 0 -9 13 -18 31 -22 53 -10 69 -7 80 18 10 20 8 31 -10 60 -25 40 -20
58 12 54 29 -4 29 22 1 33 -14 5 -29 2 -43 -7z"/>
<path d="M7318 1493 c-58 -36 -53 -97 11 -140 40 -27 101 -31 101 -7 0 10 -7
14 -23 12 -36 -4 -97 37 -97 66 0 22 31 56 52 56 18 0 6 -21 -17 -32 -25 -11
-35 -38 -15 -38 25 0 70 32 70 49 0 53 -31 65 -82 34z"/>
<path d="M8830 1494 c0 -32 -41 -85 -72 -91 -19 -4 -28 -11 -26 -21 5 -25 22
-24 61 2 30 21 38 22 48 10 17 -20 49 -17 75 7 l22 21 7 -21 c3 -12 15 -21 26
-21 23 0 24 8 4 34 -8 11 -15 30 -15 43 0 14 -6 23 -15 23 -8 0 -15 -3 -15 -7
0 -5 -11 -21 -25 -38 -24 -28 -26 -29 -39 -12 -10 13 -12 27 -6 47 4 16 6 31
2 34 -11 12 -32 5 -32 -10z"/>
<path d="M8404 1492 c-38 -27 -58 -97 -29 -108 20 -8 60 3 78 21 13 13 16 13
27 0 16 -19 40 -19 40 0 0 8 -4 15 -9 15 -5 0 -15 15 -21 34 -14 42 -54 60
-86 38z m46 -37 c0 -16 -47 -51 -57 -42 -9 10 26 57 42 57 8 0 15 -7 15 -15z"/>
<path d="M4533 1463 c-24 -37 -24 -110 0 -128 14 -10 26 -11 48 -3 55 19 63
80 14 112 -15 10 -22 22 -19 31 10 26 -24 17 -43 -12z m57 -58 c10 -12 10 -18
0 -30 -17 -21 -37 -19 -45 5 -12 37 20 55 45 25z"/>
<path d="M9985 1482 c-27 -18 -56 -73 -50 -92 11 -35 46 -60 84 -60 38 0 111
43 111 66 0 21 -19 17 -52 -11 -32 -27 -76 -33 -96 -13 -17 17 -15 26 11 34
31 9 57 34 57 54 0 25 -41 39 -65 22z"/>
<path d="M5407 1455 c-26 -25 -36 -67 -19 -91 25 -37 134 -48 151 -15 10 18 7
19 -49 14 -41 -4 -60 -2 -60 6 0 6 6 11 13 11 16 0 57 42 57 57 0 17 -29 43
-48 43 -10 0 -30 -11 -45 -25z m53 -18 c0 -8 -11 -19 -25 -25 -29 -13 -32 -6
-8 20 19 21 33 23 33 5z"/>
<path d="M6402 1460 c-16 -26 -15 -62 1 -85 18 -23 60 -14 73 16 10 21 10 21
28 -5 25 -39 33 -96 14 -96 -23 0 -67 -49 -77 -87 -6 -22 -6 -44 1 -64 17 -49
46 -35 87 43 37 70 47 77 81 56 10 -7 22 -9 26 -5 11 10 -25 45 -50 49 -16 2
-23 13 -30 51 -7 34 -21 61 -47 89 l-37 41 -16 -38 c-13 -29 -19 -36 -28 -27
-9 9 -8 18 2 39 8 16 16 31 18 36 8 17 -34 5 -46 -13z m128 -205 c0 -10 -50
-105 -55 -105 -14 0 -2 61 16 84 18 23 39 34 39 21z"/>
<path d="M9572 1464 c-45 -31 -15 -94 45 -94 44 0 49 25 17 72 -30 43 -31 44
-62 22z m44 -61 c-8 -8 -36 5 -36 17 0 7 6 7 21 0 11 -7 18 -14 15 -17z"/>
<path d="M5107 1463 c-2 -5 -7 -25 -11 -45 -6 -31 -3 -39 16 -52 22 -16 61
-13 86 7 20 16 14 64 -10 81 -23 17 -74 22 -81 9z m63 -38 c15 -18 5 -35 -21
-35 -12 0 -19 7 -19 18 0 33 20 42 40 17z"/>
<path d="M4701 1441 c-12 -12 -25 -21 -31 -21 -5 0 -11 -13 -11 -30 -1 -16 -2
-35 -3 -42 -2 -28 25 -16 39 18 33 79 55 78 75 -6 8 -33 17 -50 27 -50 12 0
14 8 8 38 -17 95 -62 135 -104 93z"/>
<path d="M6232 1424 c-13 -9 -28 -27 -33 -42 -8 -20 -6 -29 12 -49 26 -27 53
-28 94 -4 24 14 30 24 28 47 -2 31 -34 64 -62 64 -9 0 -27 -7 -39 -16z m65
-40 c7 -18 -20 -44 -44 -44 -17 0 -27 25 -19 45 7 20 55 19 63 -1z"/>
<path d="M7710 1376 c0 -8 6 -16 13 -19 19 -7 41 8 33 22 -10 16 -46 14 -46
-3z"/>
<path d="M5631 1371 c-8 -6 -11 -16 -7 -27 6 -16 8 -16 23 -1 20 19 6 41 -16
28z"/>
<path d="M10579 1378 c0 -1 -2 -19 -4 -38 -3 -38 -43 -80 -75 -80 -13 0 -17
-5 -14 -15 13 -32 85 -2 109 46 18 34 17 80 -2 87 -7 2 -13 2 -14 0z"/>
<path d="M2494 938 c-3 -4 0 -23 6 -42 6 -18 8 -39 6 -47 -12 -34 -37 -342
-29 -350 12 -12 171 -32 191 -24 30 11 -4 26 -82 34 -42 5 -79 11 -81 13 -2 2
3 66 12 143 8 77 16 164 17 193 l1 53 62 -3 c39 -1 67 2 74 9 10 10 9 13 -2
17 -28 9 -170 13 -175 4z"/>
<path d="M5590 893 c-52 -82 -67 -184 -37 -256 14 -32 13 -34 -19 -72 -19 -22
-34 -46 -34 -52 0 -25 26 -12 55 28 l30 41 36 -41 c20 -23 42 -41 48 -41 21 0
11 26 -24 60 -19 19 -35 38 -35 42 0 5 11 25 24 46 14 20 27 57 30 82 7 57
-15 202 -31 207 -7 3 -26 -17 -43 -44z m42 -116 c2 -96 -38 -179 -56 -114 -12
46 -5 119 16 169 27 63 39 47 40 -55z"/>
<path d="M8952 928 c-17 -17 -15 -48 3 -48 8 0 15 7 15 15 0 24 14 18 65 -27
59 -52 105 -143 105 -208 0 -31 -9 -60 -29 -95 -33 -57 -132 -155 -156 -155
-19 0 -17 -31 3 -38 21 -7 160 137 188 195 22 44 26 63 22 108 -7 80 -61 180
-124 227 -52 40 -72 46 -92 26z"/>
<path d="M3250 906 c-38 -8 -56 -17 -58 -29 -4 -20 -3 -21 73 -2 33 8 71 14
85 15 l25 0 0 -107 c0 -60 2 -155 4 -211 2 -64 -1 -108 -8 -115 -7 -7 -30 -5
-77 7 -64 15 -95 11 -81 -11 9 -14 142 -36 167 -28 37 12 40 34 28 219 -9 138
-8 185 1 217 10 34 10 43 -1 50 -18 12 -91 9 -158 -5z"/>
<path d="M2774 858 c-12 -19 12 -28 79 -28 l72 0 -39 -33 c-46 -39 -44 -60 8
-82 41 -17 60 -47 52 -80 -8 -30 -54 -40 -132 -31 -50 6 -54 5 -54 -15 0 -20
4 -21 96 -17 106 3 124 14 124 72 -1 43 -22 76 -60 96 l-33 17 57 42 c31 24
55 48 53 54 -4 13 -215 18 -223 5z"/>
<path d="M5204 845 c3 -9 6 -29 6 -43 0 -19 3 -23 9 -14 6 10 10 8 14 -9 4
-13 2 -26 -2 -29 -5 -3 -9 -41 -9 -85 1 -44 -3 -97 -7 -117 -6 -30 -4 -38 8
-38 30 0 43 132 25 255 -11 74 -17 90 -32 93 -14 3 -17 0 -12 -13z"/>
<path d="M6410 802 c-109 -108 -101 -281 17 -395 45 -44 193 -104 193 -78 0
14 -22 27 -79 46 -108 35 -174 128 -174 245 -1 75 23 132 73 174 36 30 43 31
60 11 15 -19 30 -19 30 -2 0 19 -33 47 -55 47 -10 0 -39 -21 -65 -48z"/>
<path d="M8631 765 c-13 -80 -24 -90 -71 -65 -13 7 -21 7 -26 -1 -9 -15 9 -30
48 -38 31 -6 33 -9 40 -61 5 -44 13 -60 37 -82 30 -27 70 -35 105 -22 34 13
16 31 -29 30 -59 -1 -79 19 -79 81 l-1 48 43 1 c48 1 77 19 49 30 -9 3 -35 4
-58 2 l-41 -4 6 36 c19 106 19 120 4 120 -11 0 -19 -20 -27 -75z"/>
<path d="M9354 755 c-23 -16 -19 -20 24 -30 25 -5 32 -3 32 9 0 25 -34 38 -56
21z"/>
<path d="M4751 677 c-37 -19 -36 -32 10 -76 36 -37 41 -46 35 -74 -4 -17 -10
-35 -15 -40 -13 -13 -31 1 -31 24 0 23 -25 25 -34 2 -9 -22 31 -63 61 -63 18
0 28 9 39 35 22 54 18 81 -22 125 -32 35 -34 40 -16 40 24 0 36 26 16 34 -19
7 -14 8 -43 -7z"/>
<path d="M5784 682 c-15 -10 -34 -105 -27 -133 9 -37 23 -49 55 -49 34 0 78
39 78 70 0 55 -74 133 -106 112z m60 -75 l21 -36 -22 -22 c-41 -41 -67 3 -47
79 8 30 22 24 48 -21z"/>
<path d="M5978 638 c-34 -32 -35 -56 -7 -93 17 -21 28 -26 50 -21 32 6 39 -6
39 -65 0 -25 -5 -39 -13 -39 -19 0 -74 -60 -87 -93 -15 -40 4 -105 33 -116 51
-19 99 36 105 121 3 41 9 58 18 58 16 0 54 -35 54 -50 0 -5 7 -10 15 -10 8 0
15 7 15 16 0 22 -55 74 -79 74 -24 0 -28 13 -36 120 -9 128 -10 130 -48 127
-19 -1 -43 -13 -59 -29z m66 -52 c-7 -31 -29 -40 -49 -20 -18 19 -19 26 -2 46
30 38 63 21 51 -26z m26 -245 c0 -50 -28 -101 -55 -101 -38 0 -38 81 1 121 41
43 54 38 54 -20z"/>
<path d="M4046 650 c-37 -11 -62 -35 -74 -69 -22 -63 42 -124 110 -105 37 11
43 23 25 48 -13 18 -15 18 -36 -3 -21 -21 -24 -21 -47 -6 -48 31 -17 95 54
110 18 4 32 13 32 21 0 15 -20 17 -64 4z"/>
<path d="M6788 649 c-21 -12 -33 -110 -18 -139 21 -38 34 -17 31 50 l-3 63 41
-7 c24 -4 41 -2 41 3 0 21 -69 43 -92 30z"/>
<path d="M4960 621 c-46 -46 -41 -110 12 -137 63 -33 97 12 72 95 -20 69 -45
82 -84 42z m60 -78 c0 -25 -4 -33 -18 -33 -41 0 -56 48 -25 82 16 18 18 18 30
2 7 -10 13 -33 13 -51z"/>
<path d="M7131 613 c-35 -42 -38 -79 -9 -97 13 -8 23 -8 38 2 11 6 23 12 26
12 9 0 -5 -142 -22 -225 -17 -86 -17 -85 -1 -85 8 0 22 19 33 41 23 52 69 99
96 99 11 0 18 5 16 13 -8 22 -45 19 -75 -7 l-29 -25 7 62 c4 34 9 103 11 152
l3 90 -31 3 c-26 3 -37 -3 -63 -35z m69 -2 c0 -5 -12 -23 -26 -40 -43 -51 -62
-35 -23 20 19 28 49 39 49 20z"/>
<path d="M4244 619 c-42 -47 -6 -149 53 -149 33 0 73 43 73 78 0 32 -13 51
-52 75 -36 22 -51 21 -74 -4z m74 -35 c28 -19 28 -45 1 -70 -29 -26 -53 -8
-57 45 -3 34 0 41 15 41 10 0 29 -7 41 -16z"/>
<path d="M4513 610 c-20 -18 -34 -42 -37 -62 -3 -18 -8 -43 -11 -55 -6 -17 -3
-23 9 -23 17 0 30 24 40 71 3 15 15 37 25 50 17 21 21 22 34 9 18 -19 31 -70
17 -70 -15 0 -12 -23 5 -46 13 -16 16 -17 25 -4 21 33 8 110 -25 143 -24 24
-45 21 -82 -13z"/>
<path d="M6933 618 c-31 -35 -45 -67 -38 -89 11 -33 46 -59 83 -59 42 0 39 21
-6 32 -17 5 -36 17 -41 27 -12 22 -3 35 14 21 15 -12 79 21 83 44 9 46 -60 62
-95 24z m57 -23 c-7 -8 -21 -15 -32 -15 -17 0 -18 3 -8 15 7 8 21 15 32 15 17
0 18 -3 8 -15z"/>
<path d="M7626 609 c-44 -52 -25 -115 27 -92 20 9 25 7 40 -18 9 -17 24 -29
37 -29 26 0 26 22 -1 38 -18 12 -20 20 -15 54 5 31 3 45 -10 59 -24 27 -49 23
-78 -12z m50 -45 c-21 -15 -46 -19 -46 -6 0 4 7 18 16 31 15 21 18 22 33 6 15
-15 15 -17 -3 -31z"/>
<path d="M7866 624 c-61 -60 -33 -107 47 -79 20 7 39 10 42 7 3 -3 5 -46 5
-95 0 -87 -1 -89 -22 -84 -54 14 -81 -48 -56 -125 22 -65 43 -61 78 14 25 54
34 64 60 68 40 6 42 24 5 30 l-29 5 -4 94 c-2 52 -8 105 -13 118 -13 34 -37
40 -55 14 -14 -20 -54 -30 -54 -13 0 14 23 32 42 32 10 0 18 7 18 15 0 20 -44
20 -64 -1z m84 -310 c-6 -14 -15 -35 -21 -47 l-12 -21 -8 23 c-14 36 -1 71 27
71 21 0 23 -3 14 -26z"/>
<path d="M8135 623 c-10 -3 -29 -12 -42 -20 -30 -20 -31 -71 -2 -106 34 -44
138 -63 123 -23 -3 8 -12 12 -20 9 -42 -16 -109 50 -88 85 12 19 54 29 54 13
0 -5 -10 -11 -22 -13 -30 -4 -30 -22 0 -26 29 -4 52 14 52 42 0 21 -18 47 -29
45 -4 -1 -15 -4 -26 -6z"/>
<path d="M8328 587 c-29 -26 -38 -41 -38 -65 0 -18 4 -32 9 -32 4 0 23 24 41
53 29 46 34 50 41 32 4 -11 8 -32 8 -47 1 -28 27 -62 41 -53 4 3 4 17 0 33 -5
15 -12 45 -17 67 -11 53 -36 56 -85 12z"/>
<path d="M3097 574 c-13 -13 -7 -44 8 -44 8 0 15 7 15 15 0 8 0 18 1 22 1 10
-16 15 -24 7z"/>
<path d="M9357 563 c-4 -3 -7 -17 -7 -31 0 -14 -13 -36 -30 -52 -25 -24 -28
-30 -15 -40 11 -10 19 -7 40 16 26 28 45 80 37 102 -5 13 -15 16 -25 5z"/>
<path d="M5332 548 c-16 -16 -15 -38 1 -38 17 0 37 20 37 37 0 16 -22 17 -38
1z"/>
<path d="M7364 519 c-10 -17 13 -36 27 -22 12 12 4 33 -11 33 -5 0 -12 -5 -16
-11z"/>
<path d="M7025 500 c-11 -18 5 -31 26 -20 11 6 17 15 14 21 -8 12 -32 12 -40
-1z"/>
</g>
</svg>
