<?xml version="1.0" standalone="no"?>
<!DOCTYPE svg PUBLIC "-//W3C//DTD SVG 20010904//EN"
 "http://www.w3.org/TR/2001/REC-SVG-20010904/DTD/svg10.dtd">
<svg version="1.0" xmlns="http://www.w3.org/2000/svg"
 width="1616.000000pt" height="280.000000pt" viewBox="0 0 1616.000000 280.000000"
 preserveAspectRatio="xMidYMid meet">

<g transform="translate(0.000000,280.000000) scale(0.100000,-0.100000)"
fill="#000000" stroke="none">
<path d="M6501 2376 c-7 -8 -17 -59 -22 -112 -17 -180 -55 -284 -111 -303 -41
-14 -56 -2 -42 36 6 19 20 29 49 37 24 7 41 18 43 29 3 15 -1 17 -25 12 -55
-13 -81 -27 -92 -51 -38 -84 26 -131 107 -78 46 30 86 152 102 307 5 51 11
102 14 115 6 25 -6 29 -23 8z"/>
<path d="M2370 2361 c0 -12 29 -35 36 -28 11 10 -5 37 -21 37 -8 0 -15 -4 -15
-9z"/>
<path d="M7287 2258 c-45 -92 -69 -118 -108 -118 -36 0 -36 -23 0 -28 17 -3
21 -8 15 -20 -3 -9 -11 -38 -17 -65 -8 -40 -7 -50 7 -66 21 -23 80 -36 104
-22 16 9 16 10 -2 17 -10 4 -32 10 -50 14 -29 6 -31 9 -28 45 3 40 27 95 46
107 6 4 30 8 53 8 23 0 44 4 48 10 3 5 13 6 22 3 11 -4 14 -2 11 8 -4 10 -20
13 -61 11 l-57 -2 35 63 c33 61 45 107 27 107 -5 0 -25 -33 -45 -72z"/>
<path d="M5935 2308 c-2 -7 -5 -63 -7 -123 -3 -99 -6 -116 -33 -170 -27 -54
-34 -60 -64 -63 -32 -3 -33 -2 -26 25 9 36 22 51 47 55 35 5 34 28 0 28 -71 0
-113 -121 -50 -142 57 -19 113 35 143 137 17 61 21 265 5 265 -6 0 -12 -6 -15
-12z"/>
<path d="M2516 2246 c-4 -19 -19 -65 -35 -103 -23 -58 -31 -68 -54 -71 -31 -4
-37 -32 -7 -32 24 0 24 -3 6 -63 -9 -30 -10 -49 -4 -53 14 -9 21 2 39 59 l15
52 57 -2 c31 -1 57 2 57 7 0 14 -38 31 -71 32 -16 1 -29 2 -29 3 0 0 14 38 30
83 17 46 30 91 30 102 0 34 -27 22 -34 -14z"/>
<path d="M12960 2209 c-23 -38 -34 -49 -43 -40 -22 22 -68 12 -103 -23 -41
-41 -45 -64 -22 -138 9 -31 9 -41 -4 -55 -27 -32 -60 -100 -57 -117 5 -22 23
-22 27 0 2 9 16 37 31 63 l28 46 51 -3 c45 -3 58 1 96 28 39 28 44 36 44 73 1
43 -12 75 -35 92 -13 9 -11 17 7 48 12 21 31 42 41 48 26 14 24 29 -5 29 -18
0 -32 -12 -56 -51z m-67 -71 c16 -12 14 -17 -18 -63 -43 -60 -52 -65 -61 -31
-7 31 11 82 35 96 21 12 24 12 44 -2z m64 -36 c12 -8 16 -24 14 -64 -2 -39
-53 -73 -92 -62 l-30 9 43 62 c45 66 46 67 65 55z"/>
<path d="M13883 2248 c-5 -7 -20 -34 -33 -60 l-25 -48 -51 6 c-49 6 -54 4 -89
-28 -32 -29 -38 -42 -42 -84 -3 -35 1 -59 15 -85 19 -37 19 -37 -5 -75 -12
-22 -23 -47 -23 -56 0 -34 25 -17 48 32 22 47 26 50 62 50 49 0 79 14 109 52
30 38 36 89 15 133 -16 33 -15 36 15 91 31 58 38 84 22 84 -5 0 -13 -6 -18
-12z m-113 -151 c29 8 25 -4 -29 -86 l-49 -74 -12 42 c-14 55 -5 95 28 121 22
18 27 19 34 6 5 -8 16 -12 28 -9z m70 -66 c0 -43 -4 -53 -31 -75 -26 -23 -79
-36 -79 -21 0 12 93 145 101 145 5 0 9 -22 9 -49z"/>
<path d="M15052 2203 c-5 -16 -24 -47 -41 -71 -24 -32 -37 -42 -50 -37 -27 8
-62 -11 -93 -52 -32 -41 -35 -69 -13 -100 14 -21 13 -26 -15 -79 -31 -60 -36
-79 -21 -89 5 -3 24 24 42 60 28 58 35 65 61 65 65 0 143 70 132 118 -3 15
-14 34 -24 43 -18 15 -17 19 22 77 23 35 38 68 34 77 -8 23 -23 18 -34 -12z
m-123 -190 c-30 -49 -51 -61 -57 -32 -4 22 45 79 69 79 17 0 15 -5 -12 -47z
m91 -8 c0 -24 -36 -59 -72 -71 -34 -10 -32 4 6 62 31 46 40 53 52 44 8 -7 14
-23 14 -35z"/>
<path d="M13195 2191 c-33 -14 -50 -40 -37 -53 9 -9 15 -8 24 4 7 10 25 20 41
24 24 5 27 3 27 -20 0 -32 -97 -133 -183 -190 -31 -21 -57 -42 -57 -46 0 -23
26 -19 70 8 l49 30 3 -26 c4 -36 51 -44 68 -11 11 20 10 21 -13 15 -22 -5 -26
-3 -29 21 -3 23 9 41 60 96 59 64 63 71 60 110 -3 39 -5 42 -33 44 -16 1 -39
-2 -50 -6z"/>
<path d="M15418 2182 c-36 -19 -48 -55 -28 -91 9 -18 6 -24 -25 -43 -19 -13
-37 -31 -41 -40 -15 -49 40 -89 99 -71 32 9 32 10 31 69 l-1 59 54 34 c51 31
84 73 70 88 -15 15 -126 11 -159 -5z m45 -34 c3 -10 7 -10 20 0 9 8 24 12 34
10 13 -3 5 -12 -32 -35 -36 -23 -53 -29 -62 -21 -18 15 -16 35 5 47 23 14 30
13 35 -1z m-33 -143 c0 -26 -4 -35 -17 -36 -60 -4 -76 15 -38 46 42 34 55 32
55 -10z"/>
<path d="M15207 2183 c-4 -3 -7 -13 -7 -20 0 -8 -18 -51 -40 -95 -43 -86 -54
-158 -25 -158 10 0 15 10 15 33 0 17 11 56 25 85 14 30 22 59 18 65 -3 6 -1 7
5 3 11 -7 42 52 42 80 0 14 -22 19 -33 7z"/>
<path d="M14635 2144 c-50 -18 -63 -30 -48 -45 9 -9 18 -8 35 3 36 23 80 31
89 16 28 -44 -39 -129 -119 -151 -55 -15 -112 -60 -96 -77 9 -9 27 -4 74 20
53 27 61 29 56 13 -16 -50 70 -78 94 -32 11 19 9 20 -24 14 -32 -7 -35 -5 -38
22 -2 22 6 37 45 74 41 39 47 51 47 86 0 68 -36 86 -115 57z"/>
<path d="M3080 2135 c0 -8 9 -15 20 -15 11 0 20 7 20 15 0 8 -9 15 -20 15 -11
0 -20 -7 -20 -15z"/>
<path d="M3900 2142 c-8 -3 -28 -14 -45 -26 -16 -11 -35 -20 -41 -18 -6 1 -19
-28 -29 -65 -23 -88 -23 -86 -3 -90 17 -4 18 -1 38 74 12 49 61 93 107 96 35
3 46 35 11 34 -13 0 -30 -2 -38 -5z"/>
<path d="M8444 2140 c-31 -12 -34 -21 -22 -69 8 -30 8 -49 0 -67 -15 -31 -40
-31 -48 1 -7 30 -24 23 -24 -9 0 -27 15 -42 52 -51 24 -6 29 -3 43 32 12 26
15 52 10 85 -5 45 -4 48 20 54 14 3 25 12 25 20 0 16 -24 17 -56 4z"/>
<path d="M2264 2115 c-31 -31 -78 -131 -70 -150 13 -35 86 -36 86 0 0 11 -6
14 -25 9 -47 -12 -27 49 33 102 25 21 34 36 29 47 -9 24 -24 21 -53 -8z"/>
<path d="M13985 2131 c-35 -4 -51 -11 -53 -22 -3 -14 5 -16 45 -12 47 4 47 3
26 -13 -22 -16 -31 -43 -15 -45 58 -6 90 -19 95 -40 15 -55 -96 -84 -129 -34
-12 19 -20 23 -29 15 -17 -14 -7 -48 17 -61 59 -32 152 -3 172 54 11 30 -14
76 -45 84 -25 7 -24 20 4 34 26 14 38 30 31 41 -6 9 -40 8 -119 -1z"/>
<path d="M8604 2104 c-69 -34 -102 -97 -79 -152 16 -35 42 -52 84 -52 55 0
159 58 133 74 -4 3 -31 -6 -58 -19 -27 -14 -61 -25 -75 -25 -32 0 -59 28 -59
63 0 24 4 27 34 27 46 0 88 34 84 69 -4 31 -23 36 -64 15z m26 -33 c0 -9 -24
-21 -43 -21 -6 0 -2 7 9 15 22 17 34 19 34 6z"/>
<path d="M8157 2042 c-37 -47 -71 -77 -102 -92 -25 -12 -44 -27 -42 -34 6 -17
37 -8 82 23 35 24 43 26 54 13 13 -13 26 -13 64 3 14 6 17 2 17 -19 0 -29 25
-45 42 -28 8 8 8 15 0 24 -8 10 -5 30 11 75 12 34 18 65 14 70 -4 4 -26 -14
-48 -40 -75 -87 -107 -83 -48 7 21 31 28 51 22 57 -7 7 -29 -14 -66 -59z"/>
<path d="M3193 2088 c-34 -16 -39 -46 -13 -80 29 -39 24 -74 -10 -69 -48 7
-55 6 -55 -9 0 -8 15 -17 39 -22 31 -7 43 -5 58 8 24 23 23 70 -3 102 -19 25
-19 27 -3 39 9 7 28 10 41 7 16 -4 23 -2 23 9 0 26 -38 34 -77 15z"/>
<path d="M4235 2067 c-63 -63 -54 -115 24 -137 48 -13 61 -13 61 4 0 8 -15 17
-34 20 -18 4 -40 14 -49 24 -15 16 -14 20 5 50 13 20 28 32 42 32 29 0 39 10
25 27 -18 21 -39 15 -74 -20z"/>
<path d="M7444 2083 c-3 -10 -13 -32 -21 -48 -24 -49 -15 -69 33 -73 29 -2 48
3 67 18 35 28 34 41 -7 84 -36 39 -63 46 -72 19z m66 -69 c0 -13 -22 -24 -51
-24 -25 0 -24 11 3 45 20 26 22 27 35 9 7 -10 13 -23 13 -30z"/>
<path d="M3025 2080 c-3 -5 -4 -14 0 -19 3 -5 -1 -29 -10 -53 -18 -53 -19 -78
-2 -78 13 0 60 138 51 152 -7 11 -32 10 -39 -2z"/>
<path d="M4008 2069 c-46 -24 -72 -70 -64 -112 8 -42 24 -57 57 -57 36 0 99
30 99 47 0 17 -11 16 -46 -2 -39 -20 -61 -19 -74 4 -16 32 -12 38 28 45 52 8
78 38 73 84 -2 17 -30 14 -73 -9z m18 -34 c-11 -8 -25 -15 -30 -15 -6 1 0 7
14 15 32 19 40 18 16 0z"/>
<path d="M4727 2059 c-28 -23 -37 -27 -37 -14 0 18 -24 30 -40 20 -7 -5 -8
-11 -1 -19 7 -8 2 -25 -15 -55 -29 -52 -30 -61 -4 -61 11 0 20 4 20 9 0 5 24
29 53 54 l54 46 -1 -42 c-1 -53 21 -60 67 -21 31 26 32 26 35 6 3 -20 29 -49
37 -41 2 3 1 23 -2 46 -7 55 -27 61 -74 23 l-38 -30 6 55 c7 66 -4 70 -60 24z"/>
<path d="M6104 2076 c-17 -8 -39 -25 -50 -38 -10 -13 -28 -27 -38 -31 -15 -6
-17 -10 -8 -19 7 -7 12 -23 12 -37 0 -31 8 -45 36 -59 27 -14 130 0 151 21 22
22 9 33 -22 19 -40 -18 -124 -15 -132 4 -8 22 10 50 31 46 8 -1 29 4 45 12 34
18 53 73 30 87 -18 11 -18 11 -55 -5z m21 -46 c-10 -11 -28 -20 -39 -20 -20 1
-20 1 3 20 13 11 30 20 39 20 13 0 12 -3 -3 -20z"/>
<path d="M4446 2048 c-28 -34 -30 -74 -5 -105 13 -15 69 -18 69 -2 0 5 4 8 9
4 12 -7 31 26 31 55 0 11 -7 34 -15 50 -21 41 -54 39 -89 -2z m70 -63 c-5 -21
-12 -26 -34 -23 -33 4 -39 28 -16 63 17 26 17 26 37 7 14 -15 18 -27 13 -47z"/>
<path d="M5349 2060 c-15 -11 -34 -31 -43 -45 -15 -22 -14 -26 5 -60 22 -37
53 -51 94 -41 36 9 31 26 -9 26 -18 0 -39 7 -46 15 -10 12 -6 17 23 29 37 15
57 41 57 75 0 28 -45 28 -81 1z m51 -14 c0 -11 -33 -36 -48 -36 -13 0 -11 5 8
20 24 19 40 25 40 16z"/>
<path d="M5020 2055 c-7 -8 -20 -14 -28 -13 -11 2 -18 -8 -23 -32 -3 -19 -10
-43 -14 -52 -5 -13 -3 -18 9 -18 9 0 29 20 44 45 27 45 59 63 48 27 -4 -10 0
-26 8 -37 13 -18 14 -18 55 3 51 27 51 27 51 0 0 -28 10 -42 32 -51 23 -8 32
7 13 23 -8 7 -15 24 -15 39 0 14 -5 33 -10 41 -8 13 -15 12 -51 -8 -23 -12
-43 -21 -44 -20 0 2 -5 17 -11 33 -11 34 -44 45 -64 20z"/>
<path d="M5582 2042 c-16 -15 -34 -26 -40 -24 -17 5 -45 -69 -31 -82 8 -8 14
-6 23 8 21 35 58 76 77 87 18 9 19 7 13 -15 -5 -20 -2 -26 10 -26 17 0 32 41
22 65 -9 23 -41 18 -74 -13z"/>
<path d="M5610 1966 c0 -25 12 -46 26 -46 16 0 16 5 8 38 -7 24 -34 31 -34 8z"/>
<path d="M13301 1941 c-8 -5 -11 -16 -8 -25 5 -14 11 -15 27 -6 21 11 23 31 4
37 -5 1 -15 -1 -23 -6z"/>
<path d="M14197 1924 c-11 -11 3 -24 24 -24 12 0 19 5 17 13 -5 14 -31 21 -41
11z"/>
<path d="M10696 1884 c-8 -31 -5 -37 18 -28 20 8 22 54 2 54 -8 0 -17 -12 -20
-26z"/>
<path d="M11550 1870 c-13 -8 -13 -11 2 -26 20 -20 51 -11 46 13 -4 21 -27 27
-48 13z"/>
<path d="M3863 1824 c-18 -9 -35 -25 -38 -35 -8 -25 17 -75 65 -128 35 -38 40
-51 40 -90 0 -25 -7 -54 -14 -64 -18 -24 -64 -36 -100 -26 -56 15 -107 85 -76
104 14 9 12 25 -3 25 -23 0 -49 -37 -43 -58 11 -34 75 -91 113 -101 75 -21
142 19 156 94 9 48 -3 82 -43 127 -20 24 -44 57 -53 74 -15 29 -15 33 -1 45 9
7 37 13 62 13 l47 1 -3 -36 c-2 -22 2 -40 9 -45 17 -10 39 24 39 60 0 24 -6
34 -27 44 -37 16 -91 15 -130 -4z"/>
<path d="M8876 1746 c-16 -52 -42 -118 -57 -147 -16 -29 -29 -60 -29 -69 0
-25 43 -60 81 -66 29 -5 40 0 70 28 46 43 76 119 61 153 -14 30 -33 31 -88 6
l-41 -19 25 77 c33 102 38 131 21 131 -9 0 -25 -35 -43 -94z m82 -178 c-29
-63 -65 -87 -103 -70 -50 23 -21 81 59 118 29 13 54 20 59 15 6 -6 -1 -32 -15
-63z"/>
<path d="M2526 1818 c-3 -7 -7 -36 -9 -64 -3 -27 -22 -93 -42 -145 -48 -123
-52 -139 -31 -139 9 0 16 4 16 8 0 19 61 98 88 114 41 25 55 8 40 -50 -10 -41
-6 -72 10 -72 15 0 34 118 22 139 -14 28 -44 34 -78 17 l-30 -15 18 57 c10 31
21 81 25 110 6 44 4 52 -9 52 -9 0 -18 -6 -20 -12z"/>
<path d="M5165 1816 c-23 -7 -41 -19 -43 -29 -4 -18 18 -23 34 -7 14 14 96 24
138 16 41 -8 59 -35 70 -105 14 -92 -71 -202 -181 -236 -31 -9 -30 2 12 146
38 132 42 159 21 159 -8 0 -18 -21 -25 -59 -6 -33 -23 -92 -36 -132 -14 -40
-25 -81 -25 -91 0 -10 -7 -18 -16 -18 -10 0 -14 7 -12 22 4 25 -19 37 -28 14
-3 -9 -3 -27 0 -41 8 -32 57 -41 128 -25 41 10 63 24 103 64 28 28 62 73 75
100 21 45 22 53 12 108 -13 70 -33 105 -68 118 -34 13 -110 11 -159 -4z"/>
<path d="M11533 1764 c-29 -63 -38 -71 -83 -76 -44 -4 -46 -22 -2 -26 27 -3
32 -7 26 -20 -4 -9 -9 -36 -12 -59 -5 -52 22 -83 71 -83 43 0 77 23 60 41 -10
10 -16 10 -25 1 -7 -7 -21 -12 -33 -12 -45 0 -57 40 -30 102 12 31 19 36 61
42 26 3 60 6 76 6 19 0 28 4 25 13 -3 8 -25 12 -66 11 -33 0 -61 1 -61 3 0 2
7 17 15 33 30 59 35 77 18 77 -9 0 -26 -23 -40 -53z"/>
<path d="M6269 1808 c0 -2 -2 -20 -4 -42 -10 -91 -67 -236 -110 -276 -50 -47
-85 4 -45 68 16 27 26 33 48 30 21 -2 27 1 27 17 0 16 -6 20 -29 18 -49 -4
-96 -63 -96 -122 0 -60 65 -82 113 -37 37 35 92 150 111 235 20 91 20 111 1
111 -8 0 -15 -1 -16 -2z"/>
<path d="M2318 1703 l-35 -88 -54 -1 c-74 -2 -77 -3 -55 -19 11 -8 37 -15 59
-15 33 0 38 -3 32 -17 -4 -10 -10 -38 -12 -63 -7 -64 20 -95 80 -91 25 1 16
24 -13 31 -38 9 -45 31 -31 94 l12 56 47 0 c63 0 92 9 92 28 0 12 -10 14 -60
9 -33 -4 -60 -5 -60 -3 0 2 13 37 30 77 34 84 35 89 16 89 -8 0 -28 -37 -48
-87z"/>
<path d="M4151 1758 c-37 -95 -44 -108 -62 -108 -10 0 -19 -7 -19 -15 0 -8 6
-15 14 -15 12 0 13 -7 5 -32 -12 -43 -3 -80 25 -108 26 -24 76 -25 84 -1 3 10
-1 12 -16 9 -11 -3 -30 1 -42 9 -17 12 -20 23 -18 61 l3 47 65 5 c49 4 65 9
65 20 0 8 -7 13 -15 11 -16 -4 -93 -2 -97 3 -2 1 8 29 21 62 13 32 22 62 19
66 -8 15 -24 8 -32 -14z"/>
<path d="M9187 1774 c-13 -13 -7 -24 14 -24 11 0 19 5 17 12 -5 14 -22 21 -31
12z"/>
<path d="M11066 1695 c-15 -14 -31 -25 -35 -25 -4 0 -18 -11 -31 -25 -13 -14
-20 -25 -15 -25 4 0 -4 -12 -18 -26 -15 -15 -39 -64 -57 -117 -55 -162 -59
-176 -47 -184 14 -9 35 24 79 126 33 76 41 87 67 92 43 9 77 33 111 80 36 50
44 73 36 105 -9 33 -54 33 -90 -1z m64 -18 c0 -26 -59 -106 -90 -122 -18 -9
-34 -15 -36 -12 -9 8 18 107 27 101 13 -7 41 15 33 27 -3 5 1 6 9 3 8 -3 18
-1 22 5 9 15 35 14 35 -2z"/>
<path d="M4540 1685 c0 -8 7 -15 15 -15 8 0 15 7 15 15 0 8 -7 15 -15 15 -8 0
-15 -7 -15 -15z"/>
<path d="M10560 1663 c-17 -21 -33 -48 -36 -60 -7 -28 25 -83 48 -83 23 0 23
5 -3 40 l-22 28 23 36 c12 20 26 36 31 36 5 0 9 9 9 20 0 30 -15 24 -50 -17z"/>
<path d="M7607 1653 c-41 -32 -81 -102 -71 -127 14 -37 74 -47 124 -21 57 29
66 86 23 141 -16 18 -31 34 -34 34 -3 0 -22 -12 -42 -27z m71 -64 c6 -54 -98
-96 -106 -43 -2 11 7 33 19 48 16 21 28 26 53 24 25 -2 32 -8 34 -29z"/>
<path d="M9323 1664 c-46 -23 -103 -88 -103 -119 0 -36 24 -31 38 10 15 39 64
85 93 85 23 0 23 -3 2 -58 -12 -32 -13 -46 -5 -54 8 -8 17 1 32 37 24 57 23
82 -5 101 -17 11 -25 11 -52 -2z"/>
<path d="M7810 1643 c0 -15 -11 -46 -25 -68 -49 -80 -22 -88 50 -14 28 28 58
55 67 60 16 9 16 6 3 -32 -30 -84 -15 -139 38 -139 39 0 73 22 63 39 -6 9 -11
9 -21 1 -8 -6 -24 -10 -37 -8 -32 4 -34 38 -8 109 11 33 18 64 15 69 -10 17
-40 11 -75 -15 -19 -14 -34 -25 -35 -25 -1 0 -1 10 -1 22 1 14 -6 24 -16 26
-14 3 -18 -3 -18 -25z"/>
<path d="M10691 1606 c-17 -35 -31 -69 -31 -75 0 -23 20 -10 46 29 14 21 37
46 51 55 l25 17 -7 -40 c-5 -34 -3 -44 15 -62 22 -22 50 -24 57 -3 2 6 -6 14
-17 18 -19 6 -21 13 -18 58 l3 52 -32 1 c-18 0 -36 3 -39 7 -14 14 -22 6 -53
-57z"/>
<path d="M9717 1628 c-47 -46 -70 -118 -38 -118 5 0 21 25 36 55 14 30 32 56
38 57 7 1 23 2 37 2 38 1 32 30 -7 34 -26 3 -40 -4 -66 -30z"/>
<path d="M2738 1601 c-41 -41 -48 -52 -39 -67 5 -11 12 -31 15 -45 6 -28 41
-49 82 -49 37 0 91 25 103 49 16 29 -5 38 -32 13 -29 -27 -66 -36 -100 -23
-36 14 -38 56 -2 65 52 13 87 85 49 100 -23 9 -22 10 -76 -43z m57 -1 c-3 -5
-16 -15 -28 -21 -22 -12 -22 -12 -3 10 19 21 43 30 31 11z"/>
<path d="M6350 1628 c-44 -30 -65 -67 -57 -99 11 -39 22 -50 58 -58 42 -10
133 14 126 32 -3 7 -11 11 -18 9 -7 -2 -36 -6 -63 -9 -40 -5 -51 -3 -62 12
-21 28 -17 35 20 35 46 0 88 34 84 69 -4 35 -43 39 -88 9z m60 -18 c0 -6 -12
-15 -26 -20 -42 -16 -51 -11 -19 10 34 22 45 25 45 10z"/>
<path d="M6634 1635 c-10 -8 -27 -15 -36 -15 -17 0 -57 -75 -61 -114 -4 -38
23 -27 42 16 10 24 33 56 51 71 32 27 60 35 60 17 0 -5 7 -10 15 -10 16 0 19
9 9 34 -8 20 -54 21 -80 1z"/>
<path d="M9126 1579 c-25 -67 -26 -94 -5 -87 9 3 59 131 59 151 0 4 -6 7 -14
7 -8 0 -25 -30 -40 -71z"/>
<path d="M9493 1630 c-37 -22 -50 -58 -33 -90 11 -20 18 -22 61 -18 42 4 52 2
60 -14 12 -21 31 -14 28 10 -2 10 1 36 5 59 9 48 1 70 -19 53 -9 -8 -14 -6
-19 5 -8 21 -45 19 -83 -5z m68 -32 c10 -18 8 -24 -7 -35 -20 -15 -60 -17 -68
-4 -9 15 3 38 27 49 31 15 35 14 48 -10z"/>
<path d="M11305 1629 c-10 -29 -64 -89 -82 -89 -11 0 -14 8 -11 33 3 17 9 40
13 51 6 14 4 17 -11 14 -26 -5 -49 -74 -35 -105 13 -28 50 -30 87 -7 30 20 78
99 69 114 -10 16 -23 12 -30 -11z"/>
<path d="M4377 1633 c-4 -3 -21 -6 -38 -5 -29 1 -31 -1 -27 -28 2 -16 1 -27
-2 -25 -7 4 -30 -61 -30 -84 0 -23 28 -10 35 17 11 43 53 92 80 92 32 0 40 16
16 29 -23 13 -26 13 -34 4z"/>
<path d="M5472 1625 c-28 -20 -52 -66 -52 -99 0 -32 38 -74 69 -78 35 -4 37
18 2 30 -28 10 -53 53 -35 59 5 2 27 14 49 26 30 17 40 29 40 47 0 31 -39 39
-73 15z"/>
<path d="M4810 1610 c-13 -13 -20 -33 -20 -60 0 -52 24 -67 76 -45 20 8 39 15
41 15 6 0 -4 -49 -29 -135 l-20 -70 -59 3 c-55 4 -59 2 -68 -21 -13 -34 4 -93
35 -124 23 -22 27 -23 47 -11 12 8 33 37 46 66 21 45 28 51 58 54 43 4 47 22
6 26 -18 2 -33 4 -33 6 0 1 11 40 25 87 13 46 25 94 25 107 0 12 7 39 15 59
11 26 12 40 5 47 -8 8 -14 5 -22 -9 -37 -66 -118 -100 -118 -50 0 14 8 29 20
35 16 9 20 8 20 -5 0 -18 35 -20 46 -3 9 14 -31 48 -57 48 -10 0 -28 -9 -39
-20z m33 -327 c8 -14 -32 -93 -46 -93 -17 0 -37 42 -37 75 0 22 4 25 39 25 22
0 42 -3 44 -7z"/>
<path d="M5704 1601 c-50 -35 -77 -76 -69 -102 8 -24 54 -48 101 -55 47 -6 41
14 -10 31 -67 23 -72 36 -31 78 20 20 47 40 60 43 29 7 34 34 7 34 -11 0 -37
-13 -58 -29z"/>
<path d="M9944 1585 c-19 -40 -73 -73 -86 -53 -4 7 -8 20 -8 29 0 9 -6 22 -14
28 -24 20 -30 -7 -11 -55 13 -36 21 -44 41 -44 25 0 25 0 -20 -82 -45 -83 -85
-202 -72 -215 11 -11 23 9 40 67 8 30 52 120 96 200 44 79 80 148 80 152 0 22
-31 4 -46 -27z"/>
<path d="M4602 1556 c-23 -25 -42 -52 -42 -61 0 -26 31 -16 41 13 8 24 53 62
73 62 3 0 6 -18 6 -41 0 -28 4 -39 13 -36 7 2 12 22 12 53 0 47 -1 49 -31 52
-25 2 -38 -5 -72 -42z"/>
<path d="M5920 1585 c0 -9 -7 -27 -16 -40 -37 -57 14 -109 80 -81 46 19 62 49
45 87 -14 35 -36 49 -78 49 -21 0 -31 -5 -31 -15z m74 -38 c16 -25 -5 -52 -39
-52 -37 0 -41 15 -14 49 23 29 36 30 53 3z"/>
<path d="M4474 1525 c-8 -24 -8 -38 -1 -42 14 -8 37 26 37 54 0 35 -24 27 -36
-12z"/>
<path d="M5534 1510 c-28 -11 -38 -27 -20 -33 16 -6 62 28 49 36 -4 3 -18 1
-29 -3z"/>
<path d="M11738 1479 c-25 -14 -22 -31 4 -27 13 2 24 11 26 21 4 19 -5 21 -30
6z"/>
<path d="M3630 1288 c0 -2 9 -28 21 -58 27 -72 57 -120 75 -120 8 0 14 -4 14
-10 0 -5 25 -17 55 -26 44 -12 79 -14 163 -9 95 6 126 3 275 -25 257 -48 326
-77 415 -174 85 -94 114 -184 76 -241 -19 -29 -15 -69 8 -73 13 -2 20 8 28 40
18 70 30 88 130 189 111 112 227 191 325 222 61 19 91 22 240 21 143 0 193 -5
310 -28 173 -34 288 -36 405 -7 116 29 158 55 198 121 32 53 41 90 23 90 -5 0
-20 -21 -32 -46 -43 -84 -79 -109 -207 -138 -104 -23 -227 -20 -383 10 -178
35 -412 44 -514 20 -118 -28 -266 -119 -389 -240 -29 -28 -61 -64 -71 -80
l-19 -28 -11 40 c-15 50 -66 125 -120 177 -62 59 -172 108 -295 133 -267 53
-279 55 -389 48 -121 -8 -192 7 -229 47 -12 13 -33 50 -45 83 -14 35 -30 60
-40 62 -9 2 -17 2 -17 0z"/>
</g>
</svg>
