<?xml version="1.0" standalone="no"?>
<!DOCTYPE svg PUBLIC "-//W3C//DTD SVG 20010904//EN"
 "http://www.w3.org/TR/2001/REC-SVG-20010904/DTD/svg10.dtd">
<svg version="1.0" xmlns="http://www.w3.org/2000/svg"
 width="1618.000000pt" height="1214.000000pt" viewBox="0 0 1618.000000 1214.000000"
 preserveAspectRatio="xMidYMid meet">

<g transform="translate(0.000000,1214.000000) scale(0.100000,-0.100000)"
fill="#000000" stroke="none">
<path d="M12477 11733 c-3 -5 -10 -35 -17 -68 -18 -87 -27 -96 -97 -98 -67 -2
-118 -29 -159 -83 -46 -60 -24 -145 44 -173 l29 -12 -64 -120 c-57 -105 -71
-151 -46 -148 4 0 38 60 74 132 l66 130 59 17 c78 22 118 44 143 79 38 54 20
130 -35 152 -22 8 -23 12 -13 30 9 18 49 150 49 164 0 8 -28 6 -33 -2z m-119
-217 c22 2 32 -2 30 -9 -9 -35 -92 -177 -103 -177 -8 0 -27 12 -44 26 -48 40
-43 81 15 133 30 26 51 38 58 32 6 -4 26 -7 44 -5z m124 -23 c51 -46 -16 -131
-125 -157 l-28 -7 48 91 c51 95 68 107 105 73z"/>
<path d="M13726 11679 c-10 -53 -69 -160 -84 -154 -7 3 -20 5 -28 5 -7 0 -11
6 -8 14 8 21 -24 27 -56 11 -84 -43 -140 -123 -140 -198 0 -47 29 -97 56 -97
20 0 18 -7 -16 -59 -37 -58 -62 -119 -55 -131 11 -19 23 -10 35 24 6 19 28 61
49 94 37 56 41 59 87 66 57 7 147 56 170 91 25 39 14 122 -20 151 l-26 23 35
73 c19 40 35 83 35 95 0 34 -27 28 -34 -8z m-96 -185 c5 -6 -35 -80 -87 -161
-36 -57 -52 -64 -83 -33 -40 40 -17 132 48 188 23 19 34 22 72 16 25 -3 47 -8
50 -10z m90 -89 c0 -50 -59 -99 -144 -119 l-28 -7 20 33 c10 18 39 66 62 107
l43 75 23 -28 c15 -17 24 -40 24 -61z"/>
<path d="M14792 11698 c-7 -7 -12 -16 -12 -21 0 -14 -54 -97 -62 -97 -5 0 -7
6 -5 13 3 19 -52 12 -106 -13 -104 -49 -142 -200 -61 -243 l23 -12 -35 -56
c-36 -58 -37 -89 -3 -89 15 0 18 5 14 23 -4 14 4 37 24 66 25 38 34 44 70 46
46 4 125 45 141 75 19 36 12 96 -16 130 -24 27 -25 33 -12 48 22 25 78 121 78
132 0 14 -24 12 -38 -2z m-97 -128 c4 -6 -6 -10 -22 -9 -25 0 -26 1 -8 9 11 5
21 9 22 9 1 1 5 -3 8 -9z m-61 -24 c-4 -10 3 -16 24 -18 l30 -3 -51 -87 c-48
-82 -52 -87 -71 -75 -11 8 -24 21 -30 29 -15 25 11 97 49 135 34 34 58 43 49
19z m126 -101 c0 -25 -8 -40 -30 -59 -28 -23 -99 -51 -107 -42 -2 2 19 43 48
92 l52 88 18 -23 c11 -13 19 -38 19 -56z"/>
<path d="M12687 11663 c-3 -5 -8 -23 -12 -41 -4 -18 -31 -82 -60 -141 -29 -59
-63 -132 -76 -162 -12 -30 -29 -62 -37 -71 -12 -14 -11 -18 7 -28 18 -9 22 -8
28 7 23 66 48 123 101 233 33 69 62 134 65 145 3 11 8 30 12 43 5 16 2 22 -9
22 -8 0 -17 -3 -19 -7z"/>
<path d="M15282 11643 c-25 -10 -31 -49 -17 -102 l13 -50 -55 -41 c-80 -61
-94 -111 -44 -161 39 -39 100 -41 136 -4 28 27 30 42 13 131 l-11 63 52 47
c37 33 51 53 49 68 -2 15 -9 20 -24 19 -14 -2 -24 4 -27 17 -4 15 -13 20 -39
19 -18 0 -39 -3 -46 -6z m90 -46 c12 -19 10 -24 -29 -57 l-38 -31 -9 40 c-12
57 -3 75 36 67 18 -3 36 -12 40 -19z m-66 -272 c-3 -9 -16 -20 -30 -26 -57
-26 -116 26 -85 76 8 13 32 37 54 54 l40 30 13 -60 c8 -33 11 -66 8 -74z"/>
<path d="M15016 11598 c-33 -57 -92 -186 -106 -236 -9 -30 -10 -44 -1 -61 16
-29 29 -19 29 21 0 48 84 246 112 263 13 8 13 55 0 55 -5 0 -20 -19 -34 -42z"/>
<path d="M14238 11604 c-30 -16 -52 -49 -43 -64 10 -16 23 -12 30 8 7 23 46
42 85 42 24 0 30 -4 30 -21 0 -29 -113 -145 -177 -181 -61 -35 -80 -55 -66
-69 7 -7 26 -1 59 20 59 38 73 39 80 4 7 -33 21 -53 54 -76 28 -19 48 -21 70
-7 13 9 13 11 0 20 -8 5 -24 10 -36 10 -23 0 -54 29 -54 51 0 8 -7 26 -15 42
-13 26 -12 28 11 43 45 30 104 114 104 149 0 21 -6 35 -16 39 -28 11 -88 6
-116 -10z"/>
<path d="M13207 11595 c-94 -19 -107 -24 -107 -41 0 -18 5 -18 79 2 34 8 71
14 83 12 17 -2 13 -9 -28 -35 -76 -51 -87 -61 -81 -76 3 -8 18 -18 34 -21 42
-11 63 -35 63 -72 0 -26 -9 -40 -42 -68 -63 -54 -138 -61 -166 -15 -8 11 -9
18 -3 14 6 -3 11 -1 11 4 0 17 -27 13 -34 -5 -9 -23 19 -62 50 -70 79 -20 194
45 218 123 11 33 -17 87 -54 105 l-33 16 44 32 c24 17 61 41 82 51 36 19 51
49 23 49 -7 0 -26 2 -42 4 -16 3 -60 -1 -97 -9z"/>
<path d="M2632 11374 c-112 -56 -120 -114 -38 -266 60 -113 70 -162 42 -216
-25 -48 -52 -65 -101 -64 -50 0 -90 24 -131 77 -22 29 -23 36 -12 54 17 28 3
38 -22 16 -26 -24 -25 -44 5 -84 54 -75 147 -113 208 -87 17 7 45 28 62 45 24
26 30 41 33 94 4 67 0 79 -83 227 -46 83 -27 139 62 184 40 20 44 20 37 1 -4
-8 -1 -15 6 -15 8 0 10 -18 5 -66 -7 -60 -6 -66 10 -62 53 10 81 123 41 167
-25 28 -61 27 -124 -5z"/>
<path d="M13850 11329 c-14 -25 -8 -33 19 -24 24 7 29 45 6 45 -8 0 -19 -9
-25 -21z"/>
<path d="M12685 11280 c-24 -27 -6 -50 19 -25 9 9 16 20 16 25 0 19 -18 19
-35 0z"/>
<path d="M6747 11283 c-3 -4 -15 -54 -28 -109 l-22 -102 -64 -5 c-35 -2 -67
-8 -71 -11 -14 -15 25 -25 71 -20 56 8 55 12 26 -116 -15 -65 -18 -95 -10
-103 13 -13 23 12 46 123 10 47 23 88 29 92 6 4 28 8 49 8 26 0 37 4 37 15 0
11 -11 15 -40 15 -22 0 -40 3 -40 8 0 4 10 49 21 100 15 64 19 96 12 103 -6 6
-13 7 -16 2z"/>
<path d="M11297 11261 c5 -19 -40 -167 -106 -346 -26 -71 -37 -113 -31 -119 6
-6 13 -6 19 0 13 15 50 147 44 157 -3 6 -1 7 4 4 12 -8 103 257 103 298 0 18
-5 25 -19 25 -14 0 -18 -5 -14 -19z"/>
<path d="M5836 11208 c-8 -49 -59 -203 -88 -265 -29 -62 -22 -77 34 -81 40 -3
51 1 82 28 44 39 52 64 31 96 -14 21 -23 25 -51 22 -19 -2 -34 -2 -34 2 0 3
12 39 26 80 34 100 42 160 22 160 -10 0 -18 -14 -22 -42z m32 -255 c-4 -32
-47 -66 -77 -61 -22 3 -22 4 8 46 37 50 74 59 69 15z"/>
<path d="M9389 11208 c-7 -24 -19 -54 -25 -67 -7 -13 -10 -30 -7 -39 4 -10 2
-13 -5 -8 -7 4 -12 1 -12 -6 0 -8 -15 -43 -34 -78 -26 -48 -32 -68 -24 -77 8
-10 7 -12 -5 -7 -12 4 -17 -3 -22 -30 -7 -37 0 -60 16 -51 5 4 9 14 9 23 0 10
16 51 36 92 59 123 116 269 109 280 -12 19 -22 10 -36 -32z"/>
<path d="M11657 11224 c-3 -4 0 -15 7 -26 9 -13 11 -28 5 -46 -4 -15 -15 -58
-23 -97 -8 -38 -23 -96 -35 -127 -22 -61 -18 -92 16 -130 44 -49 133 10 154
100 17 76 -29 105 -98 62 -30 -18 -33 -18 -30 -2 1 9 5 22 9 27 13 20 39 173
36 206 -3 32 -24 49 -41 33z m93 -310 c0 -28 -8 -44 -35 -71 -40 -40 -65 -40
-79 -1 -11 31 6 57 59 89 44 28 55 24 55 -17z"/>
<path d="M11908 11198 c-3 -18 -6 -66 -7 -108 -1 -53 -10 -102 -32 -167 -30
-92 -35 -153 -11 -161 8 -2 12 7 12 28 0 18 13 76 29 129 16 53 38 140 47 194
15 85 15 100 3 108 -25 16 -37 10 -41 -23z"/>
<path d="M4654 11199 c-3 -6 -1 -15 5 -19 25 -15 -67 -242 -107 -267 -14 -9
-18 -19 -14 -40 7 -42 20 -53 64 -53 33 0 47 7 79 39 30 30 39 46 39 73 0 48
-30 76 -65 60 -24 -11 -25 -11 -11 11 17 27 56 156 56 186 0 23 -33 30 -46 10z
m36 -265 c0 -36 -51 -84 -89 -84 -54 0 -38 31 49 99 30 23 40 19 40 -15z"/>
<path d="M4335 11123 c-10 -36 -33 -102 -52 -147 -38 -92 -43 -136 -15 -136
14 0 18 8 18 33 0 17 19 79 41 137 50 127 62 180 41 180 -10 0 -21 -23 -33
-67z"/>
<path d="M6095 11179 c-4 -6 -4 -13 -1 -16 8 -8 36 5 36 17 0 13 -27 13 -35
-1z"/>
<path d="M5070 11141 c0 -12 4 -21 10 -21 5 0 7 -8 3 -17 -5 -14 -3 -15 6 -7
7 7 11 22 9 35 -4 29 -28 38 -28 10z"/>
<path d="M11023 11118 c2 -7 14 -13 27 -13 13 0 25 6 28 13 2 8 -7 12 -28 12
-21 0 -30 -4 -27 -12z"/>
<path d="M5052 11053 c-7 -27 -22 -78 -33 -115 -20 -67 -22 -123 -5 -123 5 0
15 25 22 55 6 30 21 89 33 130 16 60 18 77 8 88 -10 10 -15 3 -25 -35z"/>
<path d="M10652 11053 c-11 -16 -43 -63 -71 -105 -29 -43 -56 -80 -62 -83 -5
-4 -9 29 -8 80 1 86 -8 114 -31 100 -7 -4 -9 -18 -4 -38 3 -17 6 -61 6 -98 0
-80 15 -112 43 -89 26 22 175 247 168 254 -12 11 -22 6 -41 -21z"/>
<path d="M6077 11063 c-3 -5 -8 -26 -12 -48 -30 -189 -43 -229 -95 -289 -39
-44 -76 -49 -86 -11 -7 27 -34 35 -34 10 0 -9 7 -27 16 -40 19 -30 67 -34 102
-9 51 36 107 166 117 271 3 32 8 70 11 85 5 25 -9 47 -19 31z"/>
<path d="M6918 11049 c-39 -15 -42 -39 -13 -100 14 -30 25 -61 25 -70 0 -33
-67 -40 -95 -9 -17 19 -35 19 -35 0 0 -5 10 -18 22 -30 29 -26 98 -28 121 -2
23 25 21 52 -8 117 l-24 56 23 9 c12 4 31 8 42 7 11 -1 19 4 19 13 0 18 -40
23 -77 9z"/>
<path d="M9112 11030 c-48 -34 -52 -36 -52 -15 0 8 -9 15 -20 15 -13 0 -20 -7
-20 -20 0 -11 -16 -52 -35 -90 -57 -112 -43 -140 19 -40 21 33 48 68 62 76 13
9 21 21 17 28 -3 6 -3 8 2 4 4 -4 21 2 37 13 l29 21 -7 -29 c-4 -15 -13 -45
-21 -67 -17 -49 -17 -100 0 -115 19 -15 27 -4 21 29 -3 14 4 59 16 99 34 116
21 141 -48 91z"/>
<path d="M5564 11015 c-34 -45 -44 -114 -19 -138 25 -26 54 -20 91 17 38 38
44 77 19 126 -22 42 -56 40 -91 -5z m59 -19 c24 -19 21 -53 -8 -82 -46 -46
-70 -11 -39 57 19 43 21 44 47 25z"/>
<path d="M6428 11034 c-48 -25 -83 -106 -60 -140 15 -23 52 -34 111 -34 48 0
61 3 61 15 0 12 -13 15 -56 15 -64 0 -94 13 -94 40 0 23 47 80 66 80 15 0 20
25 6 33 -4 3 -19 -1 -34 -9z"/>
<path d="M8865 11043 c-29 -8 -77 -50 -97 -85 -19 -35 -8 -82 24 -99 44 -24
158 66 158 125 0 12 -7 32 -16 44 -15 22 -29 25 -69 15z m41 -87 c-20 -38 -75
-72 -100 -63 -27 10 -19 53 15 81 26 22 34 24 47 14 12 -11 17 -10 26 4 7 12
14 14 20 8 7 -7 4 -22 -8 -44z"/>
<path d="M6192 11024 c-33 -23 -65 -90 -53 -112 19 -35 60 -64 100 -69 32 -4
41 -2 41 9 0 10 -13 18 -36 21 -36 6 -64 22 -64 38 0 5 6 9 14 9 7 0 25 9 40
21 28 22 35 66 14 87 -16 16 -29 15 -56 -4z m38 -39 c0 -15 -38 -41 -47 -32
-7 8 21 47 34 47 7 0 13 -7 13 -15z"/>
<path d="M7644 11021 c-71 -43 -123 -141 -94 -176 16 -19 60 -19 88 1 12 8 26
13 31 9 15 -9 60 101 55 132 -4 25 -28 53 -43 53 -3 0 -20 -9 -37 -19z m46
-41 c0 -49 -61 -120 -102 -120 -17 0 -19 5 -14 26 18 71 116 150 116 94z"/>
<path d="M7873 11030 c-12 -5 -28 -18 -35 -29 -11 -18 -14 -19 -29 -5 -21 19
-37 0 -19 -21 8 -10 9 -15 2 -15 -6 0 -16 -19 -22 -42 -6 -24 -17 -56 -25 -72
-13 -29 -11 -56 5 -56 4 0 29 43 54 95 34 69 54 99 73 108 21 9 27 9 31 -1 5
-16 32 -15 32 1 0 13 -31 48 -41 46 -2 0 -14 -4 -26 -9z"/>
<path d="M10280 11029 c-67 -27 -127 -100 -115 -139 9 -28 51 -26 90 5 l33 24
6 -29 c8 -44 39 -41 31 3 -4 22 0 44 15 72 l21 40 -22 18 c-24 19 -25 19 -59
6z m20 -37 c0 -14 -83 -92 -97 -92 -20 0 -1 31 42 69 35 31 55 39 55 23z m-47
-77 c-3 -9 -8 -14 -10 -11 -3 3 -2 9 2 15 9 16 15 13 8 -4z"/>
<path d="M8044 11010 c-11 -4 -34 -24 -52 -44 -40 -45 -44 -104 -11 -137 19
-19 29 -21 98 -16 76 5 131 22 131 40 0 5 -14 7 -32 3 -18 -3 -62 -8 -98 -12
-54 -5 -68 -4 -79 10 -8 9 -12 18 -10 19 2 1 32 15 66 31 65 31 86 57 72 94
-9 23 -44 29 -85 12z m56 -35 c0 -14 -97 -71 -106 -62 -2 2 5 16 17 31 32 41
89 61 89 31z"/>
<path d="M2802 10994 c-47 -33 -68 -117 -36 -148 19 -20 37 -20 74 -1 39 20
49 70 24 122 -22 44 -32 48 -62 27z m32 -50 c9 -8 16 -22 16 -30 0 -19 -38
-56 -53 -51 -17 5 -21 46 -6 73 15 28 22 29 43 8z"/>
<path d="M3099 10990 c-23 -17 -28 -18 -33 -5 -8 22 -39 18 -66 -7 -13 -13
-32 -22 -41 -20 -12 2 -22 -14 -38 -61 -25 -74 -25 -77 -8 -77 7 0 26 24 44
53 29 48 83 109 83 93 0 -3 -7 -23 -15 -42 -24 -59 -7 -59 55 0 32 31 62 56
66 56 6 0 4 -19 -12 -131 -4 -26 -1 -38 9 -42 21 -8 46 165 27 188 -17 20 -39
19 -71 -5z"/>
<path d="M3281 10984 c-19 -15 -31 -35 -31 -49 0 -13 -5 -27 -12 -31 -8 -5 -7
-10 3 -18 8 -6 22 -23 31 -38 10 -14 34 -32 54 -38 42 -14 117 -8 139 10 24
20 3 31 -37 18 -45 -14 -100 -4 -124 23 -18 20 -18 21 14 45 38 30 44 77 13
94 -16 8 -26 5 -50 -16z m39 -22 c0 -5 -9 -17 -20 -27 -16 -14 -20 -15 -20 -4
0 16 19 39 32 39 4 0 8 -4 8 -8z"/>
<path d="M10685 10977 c-74 -74 -13 -148 63 -77 12 11 22 18 22 14 0 -3 7 0
16 7 14 11 16 10 14 -11 -4 -48 0 -70 14 -70 9 0 16 17 19 48 4 26 9 59 13 75
9 38 -5 35 -83 -18 -36 -25 -69 -45 -74 -45 -17 0 -9 27 16 54 19 21 33 27 58
24 23 -2 32 1 32 12 0 10 -12 16 -38 18 -32 3 -43 -2 -72 -31z"/>
<path d="M10973 10943 c-11 -38 -19 -71 -17 -75 11 -18 31 8 47 62 20 71 21
80 4 80 -7 0 -22 -30 -34 -67z"/>
<path d="M4362 10988 c-6 -7 -10 -24 -11 -38 0 -14 -3 -39 -6 -56 -14 -66 30
-92 96 -59 54 29 65 96 21 138 -30 29 -82 36 -100 15z m80 -35 c26 -23 22 -58
-9 -83 -53 -41 -76 -11 -46 59 20 45 28 49 55 24z"/>
<path d="M11383 10980 c-32 -19 -48 -52 -41 -87 4 -21 57 -30 85 -14 15 8 20
4 29 -22 7 -21 18 -33 32 -35 26 -4 27 1 6 33 -10 16 -14 34 -9 54 9 41 -9 47
-46 17 -33 -28 -69 -34 -69 -13 0 22 34 49 46 37 13 -13 44 -2 44 16 0 11 -29
34 -42 34 -2 0 -18 -9 -35 -20z"/>
<path d="M4142 10969 c-6 -15 -11 -18 -16 -11 -14 23 -66 13 -97 -17 -33 -33
-34 -40 -15 -66 11 -15 25 -19 61 -17 l48 2 -7 -72 c-11 -115 -13 -121 -52
-115 -18 3 -49 1 -67 -4 -45 -12 -53 -47 -25 -111 27 -63 50 -83 78 -68 21 11
70 101 70 128 0 9 5 10 19 2 26 -13 31 -13 31 4 0 7 -9 20 -19 27 -19 13 -19
18 -7 121 8 59 20 116 29 128 16 23 12 64 -9 81 -11 9 -16 6 -22 -12z m-47
-39 c5 -8 11 -7 21 1 11 9 14 8 14 -9 0 -22 -18 -32 -61 -32 -32 0 -37 11 -13
34 18 19 30 20 39 6z m-5 -301 c0 -22 -43 -109 -54 -109 -16 0 -46 63 -46 95
0 23 4 25 50 25 29 0 50 -5 50 -11z"/>
<path d="M9406 10878 c4 -56 10 -105 14 -108 4 -3 -10 -34 -31 -69 -22 -34
-39 -69 -39 -76 0 -7 -4 -15 -9 -17 -15 -5 -62 -108 -55 -120 4 -7 3 -8 -4 -4
-12 7 -13 6 -17 -31 -5 -45 17 -21 56 61 21 46 39 89 39 95 0 6 4 11 8 11 10
0 58 82 54 93 -1 4 2 7 7 7 4 0 22 26 39 58 17 32 47 84 66 116 33 55 37 76
16 76 -5 0 -30 -38 -55 -85 -40 -73 -49 -84 -62 -73 -10 8 -11 14 -4 16 21 7
7 142 -17 150 -9 3 -11 -19 -6 -100z"/>
<path d="M12067 10961 c-15 -10 -35 -29 -44 -42 -9 -13 -22 -27 -29 -31 -9 -6
-8 -17 6 -46 36 -74 87 -99 165 -81 65 15 105 36 105 54 0 19 1 19 -51 -5 -53
-24 -126 -26 -157 -4 -33 23 -27 39 22 58 53 20 96 52 96 71 0 43 -65 58 -113
26z m65 -26 c1 -11 -83 -57 -90 -50 -3 2 1 11 8 20 7 8 9 15 4 16 -5 0 7 7 26
14 38 15 51 15 52 0z"/>
<path d="M4800 10943 c-23 -8 -40 -34 -40 -60 0 -29 31 -46 64 -33 22 8 25 6
28 -17 5 -41 28 -41 28 -1 0 19 7 43 15 54 34 45 10 58 -37 19 -30 -25 -68
-34 -68 -15 0 6 7 13 15 15 49 16 48 15 35 30 -13 16 -16 17 -40 8z"/>
<path d="M2805 10393 c-47 -13 -105 -45 -105 -58 0 -17 21 -20 36 -5 6 6 34
19 64 29 55 20 97 15 129 -14 20 -20 6 -98 -26 -135 -30 -36 -92 -70 -128 -70
-30 0 -31 6 -5 95 23 81 25 108 8 103 -7 -3 -23 -40 -35 -84 -34 -117 -38
-124 -90 -124 -30 0 -43 -4 -43 -14 0 -14 55 -30 71 -20 15 9 11 -11 -22 -101
-28 -76 -33 -125 -11 -112 4 3 23 53 42 111 30 91 38 105 57 106 33 0 81 -46
89 -86 8 -43 -2 -84 -21 -84 -19 0 -25 -12 -18 -38 8 -33 27 -27 50 16 41 74
37 120 -14 174 l-25 26 38 20 c105 54 159 186 99 242 -25 23 -96 35 -140 23z"/>
<path d="M6614 10378 c-6 -7 -23 -66 -38 -130 -15 -64 -33 -121 -39 -126 -16
-12 -89 -32 -116 -32 -12 0 -21 -6 -21 -15 0 -18 45 -20 86 -5 15 6 29 9 31 6
3 -3 -2 -36 -11 -75 -20 -85 -20 -91 -2 -91 10 0 20 26 31 79 10 43 21 84 25
91 5 7 28 14 52 14 31 1 43 5 43 16 0 10 -12 16 -37 18 -21 2 -38 4 -38 5 0 1
14 56 30 122 27 109 28 156 4 123z"/>
<path d="M4836 10348 c-7 -21 -27 -102 -30 -118 -2 -8 -5 -22 -8 -30 -61 -179
-88 -274 -79 -283 12 -12 31 -1 31 18 0 8 14 56 30 107 27 82 69 231 74 265 1
7 5 15 8 19 9 8 -2 34 -13 34 -5 0 -11 -6 -13 -12z"/>
<path d="M8377 10343 c-4 -3 -7 -25 -7 -47 0 -160 -88 -355 -165 -368 -32 -5
-30 40 4 95 31 48 48 56 69 35 15 -15 26 -4 18 17 -8 22 -34 29 -62 16 -32
-14 -84 -97 -84 -134 0 -115 116 -74 184 65 37 75 66 183 66 251 0 23 5 40 14
43 8 3 12 12 9 20 -5 14 -35 19 -46 7z"/>
<path d="M6750 10318 c0 -13 -10 -50 -21 -83 -11 -33 -21 -75 -23 -92 -2 -18
-8 -38 -13 -45 -20 -26 -62 -173 -53 -182 11 -11 9 -14 43 46 35 60 75 108 92
108 20 0 24 -49 9 -99 -17 -58 -17 -61 1 -61 20 0 49 102 41 146 -9 45 -36 59
-76 39 -16 -9 -30 -21 -30 -27 0 -6 -3 -9 -6 -6 -3 4 6 43 21 89 14 45 23 89
21 96 -3 8 -1 11 4 8 11 -6 29 53 22 73 -7 21 -32 13 -32 -10z"/>
<path d="M1710 10299 c0 -24 23 -21 28 4 2 10 -3 17 -12 17 -10 0 -16 -9 -16
-21z"/>
<path d="M5116 10278 c-2 -7 -9 -33 -16 -58 -6 -25 -34 -105 -61 -179 -28 -74
-48 -140 -45 -147 9 -23 23 -16 30 14 19 78 39 113 74 128 44 18 67 18 86 -2
21 -20 22 -84 1 -84 -22 0 -18 -33 5 -47 22 -14 23 -13 39 47 15 57 3 93 -39
118 l-30 19 95 78 c52 43 95 82 95 87 0 24 -41 -1 -142 -87 -62 -52 -116 -95
-120 -95 -4 0 7 36 23 80 16 44 29 91 29 105 0 26 -18 44 -24 23z"/>
<path d="M3637 10263 c-3 -5 -5 -24 -5 -43 0 -41 -19 -88 -73 -184 -22 -38
-38 -76 -37 -85 3 -13 24 -17 123 -21 66 -3 124 -2 128 1 12 10 -11 49 -28 49
-8 0 -15 -4 -15 -10 0 -6 -36 -10 -89 -10 l-90 0 40 70 c56 100 81 168 74 201
-7 30 -20 45 -28 32z"/>
<path d="M4917 10183 c-14 -13 -6 -33 13 -33 11 0 20 4 20 9 0 13 -26 32 -33
24z"/>
<path d="M9551 10126 c-18 -18 -40 -33 -49 -32 -9 0 -16 -4 -15 -10 1 -6 -4
-35 -12 -65 -18 -67 -18 -69 0 -69 14 0 60 88 51 98 -3 2 13 23 35 46 l39 41
20 -25 c13 -18 22 -22 30 -14 14 14 -24 64 -49 64 -9 0 -32 -15 -50 -34z"/>
<path d="M6974 10131 c-48 -30 -74 -72 -74 -124 0 -38 5 -49 31 -71 24 -20 41
-26 80 -26 59 0 116 21 116 44 0 19 3 19 -40 1 -47 -19 -107 -19 -135 1 -28
20 -30 54 -2 54 41 0 120 62 120 95 0 46 -43 58 -96 26z m66 -24 c0 -22 -64
-67 -95 -67 -14 0 -13 3 2 24 33 44 93 72 93 43z"/>
<path d="M7731 10060 c-45 -50 -96 -97 -112 -106 -16 -8 -27 -19 -24 -24 10
-17 32 -11 63 15 36 30 38 30 45 5 11 -42 87 -17 145 50 12 13 13 12 6 -5 -8
-23 -9 -64 -1 -72 10 -9 27 8 27 27 0 11 9 42 20 70 40 101 26 103 -68 10 -60
-59 -102 -86 -102 -65 0 15 37 75 71 116 22 26 39 52 39 58 0 27 -31 4 -109
-79z"/>
<path d="M9770 10129 c-102 -60 -123 -168 -39 -198 64 -22 213 -7 239 24 18
21 -3 25 -55 10 -96 -29 -197 -13 -203 31 -3 18 3 22 41 26 48 6 123 50 130
77 13 51 -50 68 -113 30z m80 -18 c0 -16 -56 -51 -92 -58 -31 -6 -32 -5 -18
12 32 39 110 72 110 46z"/>
<path d="M3314 10097 c-33 -33 -45 -40 -49 -29 -10 27 -22 0 -59 -136 -41
-152 -41 -152 -21 -152 13 0 16 5 15 23 0 1 10 28 22 61 l23 58 46 2 c25 1 58
10 72 19 66 43 102 151 61 182 -34 25 -64 18 -110 -28z m94 -20 c5 -40 -41
-103 -84 -117 -86 -29 -78 22 18 123 34 35 62 32 66 -6z"/>
<path d="M5448 10120 c-19 -14 -29 -34 -34 -65 -3 -25 -10 -42 -15 -39 -16 9
-21 -24 -7 -41 37 -46 59 -65 75 -65 10 0 46 13 81 30 47 22 62 34 62 50 0 13
-5 20 -12 17 -7 -2 -18 3 -24 12 -10 13 -14 13 -28 2 -21 -17 -20 -29 2 -34
12 -3 4 -10 -26 -24 -40 -19 -82 -21 -82 -4 0 4 14 15 31 25 43 25 91 94 87
126 -3 22 -9 25 -44 28 -29 2 -47 -3 -66 -18z m82 -16 c0 -12 -50 -77 -71 -92
-22 -15 -22 -15 -16 23 7 46 32 75 64 75 12 0 23 -2 23 -6z"/>
<path d="M9090 10096 c-65 -51 -105 -115 -96 -152 9 -35 64 -57 122 -48 27 4
44 11 44 20 0 10 -14 13 -55 11 -72 -3 -95 16 -71 59 32 60 109 124 147 124
11 0 19 7 19 15 0 30 -53 15 -110 -29z"/>
<path d="M9291 10119 c-62 -38 -75 -113 -28 -157 87 -80 199 45 122 136 -32
38 -56 44 -94 21z m67 -39 c44 -41 20 -110 -37 -110 -32 0 -46 13 -56 52 -5
21 -1 33 19 52 30 31 45 32 74 6z"/>
<path d="M8679 10104 c-13 -14 -32 -34 -42 -43 -27 -27 -60 -122 -48 -134 15
-15 23 -5 65 79 45 91 54 98 103 85 49 -14 53 -14 53 4 0 13 -55 35 -91 35 -9
0 -27 -12 -40 -26z"/>
<path d="M7964 10085 c-7 -19 -14 -38 -14 -43 0 -5 -12 -26 -26 -47 -18 -27
-22 -41 -14 -49 8 -8 28 7 73 56 34 36 70 69 80 72 26 8 22 -51 -8 -99 -25
-41 -32 -75 -16 -75 5 0 24 25 41 55 24 42 30 64 28 96 -4 58 -24 68 -77 41
l-41 -22 16 25 c16 24 15 25 -5 25 -16 0 -26 -10 -37 -35z"/>
<path d="M8907 10102 c-20 -22 -22 -56 -6 -101 8 -24 8 -36 1 -43 -18 -18 -71
-13 -87 8 -16 22 -40 8 -30 -18 11 -29 61 -42 105 -29 47 14 57 37 40 97 -18
63 -10 74 51 74 68 0 62 24 -7 28 -39 2 -54 -1 -67 -16z"/>
<path d="M1665 10099 c-23 -62 -53 -205 -44 -214 15 -15 25 8 50 113 16 68 19
96 11 104 -8 8 -13 7 -17 -3z"/>
<path d="M2999 10093 c-83 -51 -75 -159 13 -178 53 -12 161 16 141 36 -5 5
-31 5 -65 -2 -44 -9 -61 -9 -84 2 -38 19 -43 39 -8 39 37 0 94 45 94 74 0 45
-43 59 -91 29z m55 -22 c11 -18 -6 -39 -36 -45 -44 -9 -48 2 -13 30 33 26 41
29 49 15z"/>
<path d="M8416 10088 c-52 -39 -73 -129 -38 -161 28 -25 112 -27 112 -3 0 11
-14 16 -47 18 -47 3 -48 4 -50 38 -1 19 0 29 3 23 8 -18 34 -16 71 7 42 25 57
54 43 80 -14 26 -57 25 -94 -2z m64 -23 c0 -15 -54 -49 -71 -43 -13 4 39 58
56 58 8 0 15 -7 15 -15z"/>
<path d="M1793 10089 c-6 -8 -17 -34 -24 -59 -7 -25 -16 -49 -21 -54 -11 -13
-10 -56 1 -56 5 0 23 24 39 54 34 59 74 96 105 96 18 0 19 -4 12 -47 -12 -71
-11 -126 1 -130 12 -4 26 75 28 157 1 44 0 45 -32 48 -18 2 -44 -3 -56 -11
-20 -13 -23 -13 -32 0 -8 13 -11 13 -21 2z"/>
<path d="M4860 10009 c-20 -33 -24 -94 -7 -94 13 0 47 109 37 119 -5 5 -18 -6
-30 -25z"/>
<path d="M4127 9913 c-4 -3 -7 -14 -7 -24 0 -22 -47 -79 -65 -79 -19 0 -29
-20 -17 -32 28 -28 112 57 112 114 0 27 -9 35 -23 21z"/>
<path d="M4362 9463 c-37 -39 -69 -88 -105 -164 -41 -87 -57 -110 -77 -115
-30 -8 -50 -23 -50 -36 0 -6 11 -7 26 -4 14 4 24 3 22 -1 -2 -4 -18 -36 -36
-70 -37 -71 -37 -73 -18 -73 8 0 34 36 58 81 47 88 53 93 115 104 24 4 45 11
49 16 12 20 -7 27 -47 18 -23 -6 -44 -8 -46 -5 -9 9 70 154 114 211 41 52 46
55 57 39 13 -17 14 -16 25 5 10 17 10 26 0 37 -19 23 -30 17 -87 -43z"/>
<path d="M8802 9447 c1 -12 -18 -71 -41 -131 l-44 -108 -46 2 c-64 3 -71 2
-71 -15 0 -11 12 -15 50 -15 l49 0 -29 -62 c-33 -70 -37 -98 -15 -98 8 0 15 5
15 12 0 6 14 42 31 80 l32 68 71 0 c69 0 108 11 93 26 -4 4 -39 6 -77 5 l-71
-2 16 38 c64 151 81 223 50 223 -9 0 -14 -8 -13 -23z"/>
<path d="M14129 9468 c0 -1 -2 -16 -4 -33 -1 -16 -20 -61 -42 -100 -110 -201
-154 -315 -120 -315 9 0 19 17 27 48 6 26 35 92 65 147 98 186 107 204 103
226 -2 18 -26 40 -29 27z"/>
<path d="M2739 9445 c-3 -2 -103 -5 -222 -5 -173 -1 -217 -4 -217 -14 0 -22
31 -25 236 -19 l195 6 -42 -114 c-23 -63 -52 -145 -66 -182 -24 -67 -28 -137
-8 -138 6 0 13 24 18 53 4 29 21 87 37 128 17 41 45 116 63 165 l33 90 124 3
c137 2 164 7 140 22 -15 10 -282 14 -291 5z"/>
<path d="M9568 9412 c-10 -20 -34 -63 -53 -94 l-35 -56 -67 -7 c-38 -3 -77 -7
-88 -8 -11 -1 -18 -6 -15 -12 3 -5 37 -10 76 -10 l71 0 -13 -39 c-22 -61 -18
-113 11 -141 27 -28 57 -32 75 -10 11 13 8 15 -13 15 -35 0 -57 25 -57 66 0
40 28 114 44 115 82 6 180 27 184 38 4 12 -10 13 -82 7 l-87 -7 46 73 c25 40
45 80 45 90 0 31 -24 19 -42 -20z"/>
<path d="M10577 9433 c-3 -10 -11 -40 -18 -68 -7 -27 -34 -99 -61 -159 -63
-145 -68 -169 -34 -191 34 -23 90 -12 122 22 33 36 60 111 47 132 -13 20 -55
26 -83 11 -12 -6 -24 -10 -26 -7 -2 2 7 28 20 58 32 74 68 197 61 209 -10 15
-23 12 -28 -7z m27 -295 c-19 -63 -43 -92 -85 -103 -64 -16 -50 68 18 104 53
28 76 28 67 -1z"/>
<path d="M6681 9408 c-5 -13 -21 -48 -34 -79 -25 -54 -27 -57 -72 -63 -25 -4
-59 -4 -75 -1 -23 5 -30 3 -30 -9 0 -20 40 -30 95 -23 l43 6 -24 -49 c-47 -97
-41 -169 16 -208 40 -27 115 -28 115 -2 0 11 -8 14 -28 12 -46 -6 -85 16 -97
54 -12 36 -10 50 22 132 24 61 36 69 112 78 40 5 56 11 56 22 0 12 -10 14 -60
9 l-60 -7 17 43 c9 23 23 52 31 64 14 22 10 43 -9 43 -5 0 -13 -10 -18 -22z"/>
<path d="M11475 9398 c-8 -18 -24 -61 -36 -95 l-21 -62 -57 -3 c-42 -2 -56 -7
-56 -18 0 -12 10 -14 48 -12 26 2 47 2 47 -1 0 -3 -16 -43 -35 -88 -19 -46
-35 -92 -35 -102 0 -41 25 -6 64 90 l40 101 43 7 c24 3 43 10 43 15 0 12 -34
22 -54 14 -13 -5 -11 9 14 79 16 47 30 90 30 96 0 23 -21 10 -35 -21z"/>
<path d="M4767 9413 c-4 -3 -7 -16 -7 -27 0 -41 -61 -206 -80 -216 -10 -6 -42
-13 -71 -17 -68 -10 -64 -28 6 -27 30 1 55 0 55 -1 0 -1 -11 -34 -24 -73 -16
-46 -21 -74 -14 -78 14 -9 23 4 43 66 28 87 42 108 72 112 33 4 39 33 7 32
-20 0 -21 1 -6 45 34 108 51 174 46 182 -6 11 -18 12 -27 2z"/>
<path d="M13820 9405 c0 -33 -40 -126 -104 -240 -72 -129 -76 -156 -25 -182
77 -40 184 18 196 105 4 33 2 42 -18 56 -33 22 -70 20 -110 -7 l-34 -23 48 93
c52 100 89 198 80 207 -12 12 -33 6 -33 -9z m29 -284 c24 -15 3 -69 -37 -96
-44 -30 -83 -32 -107 -5 -21 23 -21 21 48 74 49 36 71 43 96 27z"/>
<path d="M4910 9383 c0 -25 -31 -104 -116 -303 -13 -30 -24 -63 -24 -72 0 -32
29 -19 49 20 20 40 93 112 112 112 7 0 9 -10 4 -27 -11 -44 -11 -86 0 -90 6
-1 18 24 28 58 14 47 15 64 6 75 -16 20 -48 17 -88 -7 -20 -12 -31 -15 -28 -7
88 201 105 260 75 266 -14 3 -18 -3 -18 -25z"/>
<path d="M7530 9396 c-10 -13 -9 -17 4 -22 22 -8 49 3 44 19 -7 18 -33 20 -48
3z"/>
<path d="M13355 9368 c-9 -44 -47 -141 -103 -261 -32 -70 -42 -101 -34 -109
12 -12 30 19 107 198 59 138 76 204 52 204 -9 0 -18 -13 -22 -32z"/>
<path d="M10840 9330 c0 -13 7 -20 18 -20 24 0 32 8 25 26 -8 22 -43 17 -43
-6z"/>
<path d="M14740 9319 c0 -14 5 -19 17 -17 26 5 29 38 4 38 -15 0 -21 -6 -21
-21z"/>
<path d="M13110 9245 c0 -20 4 -26 18 -23 9 2 17 12 17 23 0 11 -8 21 -17 23
-14 3 -18 -3 -18 -23z"/>
<path d="M3180 9245 c0 -8 7 -15 15 -15 20 0 20 -2 -15 -63 -35 -62 -38 -95
-11 -128 24 -29 81 -31 112 -4 78 71 65 205 -20 205 -17 0 -33 5 -36 10 -10
16 -45 12 -45 -5z m108 -47 c31 -31 -4 -139 -49 -151 -21 -6 -59 23 -59 43 0
22 32 76 58 97 31 26 34 27 50 11z"/>
<path d="M14181 9235 c-70 -59 -92 -138 -51 -179 17 -17 32 -21 84 -19 66 1
125 21 116 38 -3 6 -12 9 -20 7 -86 -18 -121 -21 -144 -12 -39 14 -31 35 20
55 76 29 106 81 68 119 -22 22 -38 20 -73 -9z m50 -43 c-10 -20 -67 -49 -77
-39 -3 3 11 22 32 42 23 24 40 33 46 27 6 -6 6 -17 -1 -30z"/>
<path d="M2800 9214 c-64 -33 -84 -54 -61 -68 5 -3 14 1 20 8 15 18 101 59
108 52 3 -3 -13 -36 -35 -73 -54 -89 -58 -101 -37 -109 11 -5 28 6 54 33 21
22 51 50 67 62 l29 23 5 -42 c6 -55 29 -71 67 -50 54 30 111 166 76 177 -7 3
-15 -1 -17 -9 -2 -7 -9 -32 -15 -54 -10 -39 -53 -94 -72 -94 -5 0 -9 25 -9 55
0 47 -3 55 -19 55 -10 0 -40 -19 -66 -42 l-49 -43 27 46 c30 50 35 94 12 102
-8 4 -46 -10 -85 -29z"/>
<path d="M3949 9235 c-29 -16 -72 -90 -84 -143 -8 -40 15 -82 47 -82 38 0 108
41 133 78 29 43 33 106 9 140 -18 26 -65 29 -105 7z m79 -27 c21 -21 14 -74
-15 -109 -24 -28 -77 -59 -102 -59 -45 0 7 136 62 164 39 19 40 19 55 4z"/>
<path d="M7975 9234 c-16 -8 -46 -30 -65 -49 -19 -19 -39 -34 -44 -34 -6 0
-20 -29 -32 -65 -12 -36 -19 -66 -15 -66 3 0 2 -4 -4 -8 -10 -7 -28 -36 -53
-84 -13 -27 -10 -48 8 -48 11 0 48 61 69 113 13 34 21 42 43 44 57 4 168 109
168 159 0 21 -23 54 -38 54 -4 0 -20 -7 -37 -16z m45 -41 c0 -21 -99 -118
-128 -125 -24 -7 -30 10 -10 30 7 7 8 12 3 12 -5 0 14 23 43 50 53 51 92 65
92 33z"/>
<path d="M5682 9169 c-12 -39 -31 -89 -42 -112 -24 -48 -25 -57 -6 -57 8 0 25
19 39 43 31 53 108 136 113 122 3 -6 -7 -40 -21 -75 -34 -88 -7 -110 44 -35
32 47 114 121 118 108 3 -7 -10 -45 -27 -87 -33 -78 -36 -111 -10 -111 8 0 14
6 12 14 -2 8 11 49 28 92 36 88 36 122 3 127 -16 2 -39 -12 -77 -48 l-54 -51
14 41 c8 23 12 46 9 51 -11 17 -54 9 -84 -17 -34 -28 -36 -27 -21 10 9 25 4
56 -9 56 -4 0 -17 -32 -29 -71z"/>
<path d="M10300 9221 c-5 -11 -23 -33 -40 -49 -73 -74 -1 -174 85 -118 13 9
34 35 46 57 22 45 20 80 -8 112 -22 23 -70 22 -83 -2z m68 -82 c-22 -64 -99
-93 -106 -41 -6 38 33 72 78 69 35 -2 37 -3 28 -28z"/>
<path d="M12664 9198 c-48 -107 -104 -163 -104 -104 0 43 -13 88 -27 93 -22 9
-23 0 -9 -69 20 -97 30 -106 79 -68 27 22 107 152 107 176 0 29 -28 12 -46
-28z"/>
<path d="M6300 9219 c-66 -27 -70 -56 -19 -119 16 -19 29 -40 29 -47 0 -20
-39 -35 -83 -31 -32 2 -42 -1 -42 -12 0 -30 105 -28 143 2 22 18 14 65 -18
101 -42 48 -39 65 15 79 25 7 45 18 45 25 0 15 -34 16 -70 2z"/>
<path d="M8372 9213 c-33 -23 -92 -107 -92 -131 0 -36 17 -33 42 5 12 21 22
41 21 45 -1 3 14 21 33 38 26 23 40 28 47 21 16 -16 27 -13 27 8 0 32 -41 40
-78 14z"/>
<path d="M10965 9221 c-27 -12 -75 -61 -86 -89 -14 -37 -11 -52 20 -83 23 -22
39 -29 69 -29 49 0 72 8 72 25 0 9 -12 11 -44 8 -50 -6 -86 9 -86 37 0 14 7
20 23 20 36 0 102 43 105 68 6 43 -26 62 -73 43z m40 -31 c7 -11 -51 -50 -74
-50 -26 0 24 46 66 59 1 1 5 -3 8 -9z"/>
<path d="M12336 9195 c-50 -39 -76 -80 -76 -120 0 -38 27 -43 81 -13 l47 27 8
-30 c11 -38 29 -38 29 -1 1 56 17 112 31 112 20 0 17 24 -4 43 -29 26 -65 20
-116 -18z m94 -3 c0 -17 -60 -79 -99 -100 -40 -23 -41 -23 -41 -4 0 25 95 112
121 112 10 0 19 -3 19 -8z"/>
<path d="M5045 9177 c-73 -72 -72 -153 1 -183 43 -18 156 -10 175 12 18 22 7
25 -54 14 -73 -14 -132 0 -141 33 -9 34 -8 37 17 37 35 0 101 43 111 72 25 72
-43 81 -109 15z m85 6 c0 -16 -16 -31 -48 -47 -46 -24 -54 -10 -14 25 30 27
62 38 62 22z"/>
<path d="M8144 9184 c-54 -57 -40 -124 26 -124 59 0 106 103 64 144 -25 25
-54 19 -90 -20z m76 -28 c0 -33 -29 -68 -53 -64 -31 4 -32 38 -2 70 28 31 55
28 55 -6z"/>
<path d="M8899 9181 c-43 -43 -50 -75 -19 -91 15 -8 27 -7 49 5 l30 15 3 -43
c2 -29 8 -42 18 -42 11 0 14 9 12 32 -2 18 1 47 6 66 13 45 -8 97 -39 97 -12
0 -39 -17 -60 -39z m75 0 c8 -12 -50 -61 -71 -61 -14 0 -13 3 3 22 38 44 58
56 68 39z"/>
<path d="M6077 9194 c-55 -14 -73 -27 -93 -65 -20 -40 -17 -82 8 -114 19 -24
26 -27 65 -22 50 5 77 26 104 79 21 42 24 70 9 98 -17 32 -41 38 -93 24z m71
-48 c6 -30 -29 -96 -59 -112 -73 -37 -113 10 -74 86 24 47 126 67 133 26z"/>
<path d="M7425 9183 c-3 -16 -20 -59 -37 -97 -21 -49 -27 -71 -19 -79 7 -7 14
-7 19 -1 17 19 73 177 68 190 -9 23 -23 16 -31 -13z"/>
<path d="M10777 9204 c-4 -4 -7 -26 -7 -48 -1 -73 -76 -214 -166 -311 l-27
-29 -8 22 c-5 13 -10 36 -11 53 -3 45 -28 36 -28 -10 0 -103 44 -120 108 -43
104 125 175 269 169 341 -2 25 -18 37 -30 25z"/>
<path d="M11174 9189 c-55 -27 -75 -50 -76 -89 -2 -47 35 -79 100 -87 44 -5
52 -3 52 11 0 11 -9 16 -29 16 -104 0 -121 85 -26 126 22 9 34 9 43 2 9 -8 16
-8 25 1 9 10 8 15 -7 27 -26 18 -33 18 -82 -7z"/>
<path d="M11623 9198 c-4 -7 -6 -48 -4 -90 3 -74 2 -78 -18 -78 -22 0 -61 32
-61 50 0 18 -33 48 -46 43 -19 -7 -18 -29 1 -37 8 -3 15 -14 15 -25 0 -38 94
-80 125 -57 13 10 17 28 17 79 0 37 -3 71 -7 77 -10 15 23 24 40 10 23 -19 39
-1 19 21 -19 21 -69 25 -81 7z"/>
<path d="M12812 9203 c-12 -3 -41 -21 -62 -42 -79 -75 -33 -156 61 -110 36 18
37 18 42 -2 8 -29 29 -19 33 14 1 15 12 40 23 55 l20 29 -41 31 c-23 18 -44
31 -47 31 -3 -1 -16 -4 -29 -6z m65 -60 c2 -6 -16 -25 -41 -42 -51 -36 -96
-41 -96 -12 0 21 45 69 75 81 21 8 56 -7 62 -27z"/>
<path d="M9148 9181 c-15 -13 -33 -18 -46 -14 -15 3 -22 1 -22 -9 0 -7 -11
-30 -25 -50 -53 -78 -21 -78 58 0 55 52 59 55 53 28 -18 -76 -19 -86 -4 -86
14 0 48 96 48 135 0 21 -33 19 -62 -4z"/>
<path d="M13500 9191 c-110 -34 -175 -128 -115 -167 17 -11 26 -10 62 6 36 16
43 16 54 4 14 -17 39 -19 39 -3 0 7 -7 17 -15 23 -14 10 -13 16 7 55 15 29 19
45 12 48 -7 2 -10 13 -7 23 6 21 2 22 -37 11z m3 -62 c-23 -40 -69 -79 -94
-79 -56 0 36 108 94 109 17 1 17 0 0 -30z"/>
<path d="M7545 9171 c-19 -31 -65 -124 -65 -132 0 -23 29 -5 57 35 36 51 73
77 73 51 0 -9 -5 -25 -10 -35 -18 -34 8 -32 56 4 66 50 74 48 53 -13 -8 -24
-8 -36 0 -44 14 -14 43 54 39 92 -4 32 -38 40 -74 17 -20 -14 -24 -14 -24 -2
0 23 -27 39 -47 28 -11 -7 -24 -7 -35 -1 -10 6 -19 5 -23 0z"/>
<path d="M14825 9161 c-3 -10 -21 -40 -40 -67 -52 -73 -28 -78 50 -9 65 57 91
67 63 23 -8 -13 -18 -39 -22 -59 -6 -34 -4 -37 20 -43 34 -9 40 -2 24 29 -12
22 -11 30 8 64 40 71 23 100 -40 67 -24 -13 -28 -13 -28 0 0 21 -28 17 -35 -5z"/>
<path d="M14673 9137 c-26 -38 -30 -75 -8 -83 21 -8 47 15 40 36 -3 9 1 23 10
30 8 7 15 21 15 31 0 30 -33 22 -57 -14z"/>
<path d="M13017 9102 c-29 -62 -32 -77 -17 -87 15 -9 42 15 36 31 -3 7 4 29
15 50 22 44 24 64 7 64 -7 0 -25 -26 -41 -58z"/>
<path d="M11900 8969 c-22 -34 -53 -91 -70 -128 -26 -56 -37 -68 -71 -83 -40
-17 -47 -45 -8 -35 24 6 24 10 -6 -69 -29 -77 -31 -94 -10 -94 8 0 15 5 15 10
0 6 14 47 31 90 25 66 34 80 52 80 29 0 51 15 43 28 -3 6 -15 8 -26 5 -19 -5
-20 -3 -10 23 35 90 129 230 130 192 0 -10 7 -18 16 -18 11 0 14 8 12 28 -2
21 -9 28 -30 30 -24 3 -33 -5 -68 -59z"/>
<path d="M11670 8961 c-32 -34 -100 -169 -100 -200 0 -5 -10 -11 -22 -13 -13
-2 -22 -9 -21 -15 1 -6 -6 -9 -17 -6 -11 3 -20 1 -20 -4 0 -18 12 -22 36 -13
13 5 24 8 24 6 0 -1 -8 -27 -18 -57 -18 -53 -19 -79 -2 -79 5 0 12 10 16 23 3
12 15 45 26 74 18 48 21 52 61 58 23 4 49 11 57 15 23 13 -13 24 -55 17 l-34
-6 18 50 c26 68 68 137 91 149 11 6 31 8 45 4 27 -7 33 4 13 24 -23 23 -60 13
-98 -27z"/>
<path d="M2172 8967 c-6 -7 -9 -22 -6 -34 7 -26 -10 -112 -43 -219 -24 -79
-28 -159 -8 -159 6 0 11 14 13 30 2 17 19 90 38 163 33 130 43 215 25 226 -5
3 -14 0 -19 -7z"/>
<path d="M9172 8938 c-14 -14 -16 -32 -2 -23 10 6 -9 -63 -37 -135 -18 -45
-18 -45 -67 -46 -42 0 -53 -5 -77 -32 -54 -61 -31 -132 43 -132 28 0 42 7 60
29 25 29 113 280 110 315 -2 27 -16 38 -30 24z m-68 -236 c2 -4 -4 -27 -14
-50 -19 -42 -52 -61 -85 -48 -31 12 -11 80 28 96 28 11 64 12 71 2z"/>
<path d="M11096 8918 c-3 -7 -12 -38 -21 -68 -28 -93 -88 -240 -95 -235 -4 3
-13 -2 -21 -11 -18 -22 8 -44 72 -58 72 -16 93 -11 134 30 91 91 46 203 -63
154 l-40 -18 29 86 c16 47 29 94 29 103 0 22 -19 35 -24 17z m84 -243 c0 -24
-9 -45 -32 -71 -31 -35 -34 -36 -87 -31 -29 3 -59 11 -64 16 -8 8 -8 11 -1 11
6 0 36 25 66 55 43 43 62 55 86 55 30 0 32 -2 32 -35z"/>
<path d="M2507 8874 c-4 -4 -4 -17 -1 -30 7 -28 -11 -150 -32 -216 -15 -46
-12 -74 7 -63 5 4 13 -5 19 -19 10 -28 46 -42 80 -31 27 9 80 81 80 110 0 28
-30 55 -61 55 -13 0 -39 -9 -57 -20 -31 -19 -33 -19 -28 -3 10 33 26 147 26
186 0 35 -15 49 -33 31z m112 -233 c18 -12 7 -41 -29 -76 -37 -35 -60 -28 -60
19 0 28 6 38 28 50 32 18 42 19 61 7z"/>
<path d="M3070 8837 c0 -13 -14 -65 -30 -117 -31 -95 -35 -150 -12 -158 8 -2
12 7 12 29 0 18 6 51 14 74 38 108 57 176 51 185 -12 19 -35 10 -35 -13z"/>
<path d="M4380 8820 c0 -16 5 -21 23 -18 12 2 22 10 22 18 0 8 -10 16 -22 18
-18 3 -23 -2 -23 -18z"/>
<path d="M5874 8810 c-12 -5 -41 -31 -64 -58 -25 -29 -49 -48 -57 -45 -8 3
-13 -3 -13 -16 0 -25 -58 -204 -90 -279 -18 -41 -20 -56 -11 -65 15 -15 19 -9
73 120 41 99 44 103 74 103 63 0 158 97 170 171 9 54 -33 89 -82 69z m52 -45
c17 -43 -86 -165 -138 -165 -37 0 -5 81 60 153 28 29 69 36 78 12z"/>
<path d="M6086 8769 c-31 -27 -96 -129 -96 -151 0 -14 24 -8 48 12 13 11 22
25 19 32 -6 19 19 63 50 88 19 15 35 19 55 15 29 -7 36 3 16 23 -20 20 -56 13
-92 -19z"/>
<path d="M12263 8784 c-18 -9 -33 -20 -33 -25 0 -5 -10 -8 -22 -6 -19 2 -24
-6 -39 -73 -22 -93 -22 -92 -3 -88 9 2 23 26 33 56 29 84 86 133 119 100 9 -9
13 -7 18 7 5 12 1 22 -11 31 -23 17 -23 17 -62 -2z"/>
<path d="M6810 8783 c-26 -10 -51 -37 -71 -75 -26 -50 -24 -64 11 -99 27 -28
34 -30 91 -27 45 2 65 8 73 20 14 23 0 35 -24 20 -32 -19 -97 -15 -120 8 -25
25 -18 40 16 40 15 0 38 13 55 30 50 49 29 106 -31 83z m30 -31 c0 -14 -40
-52 -55 -52 -21 0 -19 8 11 35 27 25 44 32 44 17z"/>
<path d="M7051 8776 c-13 -16 -3 -39 44 -105 33 -45 33 -71 -1 -71 -39 0 -66
18 -59 40 8 26 -9 33 -29 11 -15 -16 -15 -22 -5 -39 18 -29 50 -44 93 -45 66
-2 75 53 21 132 -19 28 -35 53 -35 56 0 10 36 5 47 -6 18 -18 35 -1 23 22 -13
23 -81 27 -99 5z"/>
<path d="M7261 8771 c-17 -11 -9 -49 23 -99 13 -20 26 -48 31 -60 6 -22 5 -23
-17 -17 -12 4 -33 19 -45 33 -18 21 -25 24 -35 14 -21 -21 41 -74 88 -76 39
-1 39 -1 38 36 -1 22 -12 54 -26 75 -46 71 -42 100 7 48 14 -16 26 -22 30 -15
11 18 -4 46 -31 58 -30 14 -44 15 -63 3z"/>
<path d="M8578 8729 c-41 -42 -49 -55 -46 -82 3 -28 7 -32 35 -35 18 -2 41 1
51 7 18 10 19 8 10 -35 -5 -25 -7 -51 -4 -59 11 -29 24 -15 31 33 4 26 18 74
31 106 29 71 30 85 7 102 -34 26 -64 16 -115 -37z m95 15 c19 -19 -58 -104
-94 -104 -30 0 -22 27 21 70 38 38 59 48 73 34z"/>
<path d="M11944 8752 c-68 -68 -76 -82 -64 -118 19 -56 89 -95 140 -79 22 7
22 32 0 27 -20 -5 -84 19 -97 36 -20 25 -15 37 22 50 39 15 85 64 85 93 0 30
-52 25 -86 -9z m46 -11 c0 -5 -12 -17 -27 -26 l-28 -18 24 27 c26 28 31 31 31
17z"/>
<path d="M6287 8721 c-55 -59 -63 -99 -23 -121 52 -28 146 24 146 81 0 25 -27
79 -39 79 -5 0 -16 2 -23 5 -9 4 -33 -14 -61 -44z m85 -16 c15 -32 -10 -71
-51 -80 -61 -13 -68 21 -15 71 42 41 51 42 66 9z"/>
<path d="M6537 8759 c-41 -24 -63 -123 -32 -149 19 -16 85 -24 130 -16 53 10
32 26 -34 26 -31 0 -62 5 -69 12 -31 31 8 108 54 108 15 0 24 6 24 15 0 17
-45 20 -73 4z"/>
<path d="M1854 8741 c-60 -37 -92 -109 -62 -139 20 -20 79 -14 106 11 l24 22
-7 -80 c-4 -44 -9 -83 -12 -87 -2 -4 -14 -3 -26 3 -16 7 -34 6 -62 -3 -32 -10
-42 -20 -52 -48 -24 -70 -11 -181 23 -194 38 -15 94 45 124 135 22 63 27 67
41 35 7 -14 18 -26 26 -26 22 0 15 30 -14 59 -26 25 -28 32 -21 82 3 30 6 87
7 127 1 42 5 71 10 67 20 -12 21 15 1 35 -25 25 -66 26 -106 1z m56 -34 c0
-22 -24 -65 -44 -79 -20 -14 -56 -9 -56 7 0 24 30 64 59 80 36 19 41 18 41 -8z
m-18 -297 c-4 -36 -54 -132 -74 -144 -26 -16 -33 0 -33 73 0 85 13 103 69 99
37 -3 41 -5 38 -28z"/>
<path d="M8816 8720 c-34 -31 -43 -36 -39 -21 3 14 1 21 -9 21 -7 0 -28 -29
-46 -65 -55 -112 -39 -114 63 -7 41 42 75 73 75 69 0 -5 -12 -33 -26 -63 -26
-56 -27 -102 0 -73 15 17 63 125 68 154 6 38 -37 30 -86 -15z"/>
<path d="M4523 8734 c-42 -18 -42 -38 1 -99 43 -60 38 -79 -17 -72 -22 3 -44
13 -49 21 -13 23 -48 20 -48 -3 0 -14 13 -24 43 -35 73 -26 101 -25 123 9 19
29 13 51 -27 101 l-30 38 23 12 c13 7 35 10 51 7 28 -6 35 5 15 25 -15 15 -45
14 -85 -4z"/>
<path d="M11275 8726 c-57 -87 0 -185 83 -142 48 25 99 124 73 141 -7 4 -19
-12 -30 -38 -17 -40 -61 -87 -82 -87 -4 0 -15 7 -24 17 -20 20 -13 72 11 90
17 12 13 43 -5 43 -6 0 -18 -11 -26 -24z"/>
<path d="M2268 8713 c-40 -46 -51 -118 -22 -147 19 -20 76 -21 113 -1 34 17
55 62 46 98 -13 50 -106 85 -137 50z m98 -48 c15 -23 15 -27 0 -50 -17 -26
-51 -39 -83 -33 -23 4 -28 41 -13 79 17 39 71 42 96 4z"/>
<path d="M2748 8720 c-43 -26 -72 -112 -46 -138 17 -17 64 -15 92 3 21 14 23
14 35 -11 17 -37 25 -23 27 46 2 55 0 61 -27 85 -32 27 -54 30 -81 15z m61
-34 l23 -13 -32 -37 c-56 -63 -109 -32 -55 33 30 35 31 35 64 17z"/>
<path d="M4300 8698 c-11 -18 -23 -48 -26 -66 -3 -18 -10 -35 -15 -38 -13 -7
-11 -71 2 -80 18 -11 27 8 38 76 6 35 20 77 31 93 20 26 20 47 -1 47 -5 0 -18
-15 -29 -32z"/>
<path d="M3574 8559 c-4 -8 -2 -15 5 -17 8 -3 1 -16 -20 -38 -27 -28 -31 -36
-20 -47 10 -10 20 -3 52 32 22 25 38 52 37 60 -4 20 -43 27 -54 10z"/>
<path d="M7407 8294 c-3 -3 3 -20 13 -38 25 -42 36 -133 21 -179 -15 -43 -59
-72 -145 -94 -98 -25 -182 -14 -308 41 -238 104 -331 97 -479 -32 l-44 -39 3
49 c5 66 -11 100 -72 154 -138 124 -342 147 -606 68 -114 -35 -203 -81 -291
-152 -80 -64 -128 -92 -156 -92 -20 0 -89 83 -122 147 -11 23 -21 57 -21 76 0
40 -8 51 -26 36 -14 -12 -9 -64 9 -86 5 -7 7 -13 3 -13 -12 0 32 -74 79 -132
37 -48 51 -58 76 -58 40 0 92 28 164 89 162 138 464 226 658 192 118 -20 227
-84 262 -151 30 -57 20 -104 -43 -213 -26 -45 -31 -62 -22 -70 9 -9 15 -7 26
8 107 151 254 265 343 265 47 0 119 -21 211 -60 122 -52 188 -70 255 -70 68 0
170 27 223 60 60 37 78 124 47 228 -14 47 -44 80 -58 66z"/>
<path d="M10400 8244 c-6 -14 -7 -37 -4 -52 11 -45 46 -122 56 -122 5 0 6 -5
3 -11 -15 -24 111 -153 163 -166 34 -8 152 3 187 18 17 7 64 36 105 63 193
129 403 162 485 76 24 -25 27 -35 22 -69 -6 -49 -55 -157 -93 -206 -22 -29
-25 -38 -15 -48 10 -9 16 -7 29 13 8 14 52 61 96 106 92 91 132 109 247 109
54 0 72 -4 101 -25 179 -127 176 -125 252 -125 59 0 79 5 123 29 49 27 144
114 177 162 53 76 101 194 78 194 -5 0 -27 -37 -50 -83 -49 -100 -138 -201
-213 -242 -43 -24 -66 -30 -116 -30 -66 0 -59 -3 -226 116 -47 33 -52 34 -135
34 -93 -1 -152 -20 -219 -70 l-32 -25 14 35 c32 75 10 141 -58 177 -36 20 -56
23 -137 22 -85 -1 -104 -5 -181 -36 -47 -19 -113 -53 -145 -75 -95 -64 -143
-85 -211 -91 -80 -6 -111 7 -172 74 -59 64 -120 206 -100 230 12 15 6 44 -11
44 -6 0 -15 -12 -20 -26z"/>
<path d="M4401 7690 c-78 -9 -104 -21 -83 -42 9 -9 18 -8 39 2 19 9 70 13 163
12 162 -1 251 -13 317 -42 l48 -22 -38 -33 c-40 -34 -163 -93 -173 -82 -4 3
-1 20 5 38 15 45 14 76 -4 76 -8 0 -15 -3 -16 -6 -3 -26 -11 -61 -20 -87 -9
-28 -15 -32 -59 -38 -26 -4 -67 -4 -89 0 -33 5 -41 4 -41 -9 0 -19 73 -32 125
-23 19 4 35 3 35 -2 0 -19 -49 -127 -59 -130 -16 -5 -14 -37 4 -52 18 -15 35
-5 35 20 0 22 47 147 63 168 5 6 17 12 27 12 31 0 194 89 214 116 24 34 15 52
-45 81 -75 37 -302 59 -448 43z"/>
<path d="M2985 7658 c-10 -31 -45 -171 -64 -258 -12 -52 -31 -111 -42 -130
l-21 -34 -13 24 c-18 36 -45 162 -45 213 0 24 -6 52 -14 62 -13 18 -14 17 -29
-6 -8 -13 -24 -66 -36 -117 -11 -51 -30 -110 -41 -132 -24 -46 -25 -60 -6 -60
19 0 61 101 77 184 l13 68 12 -68 c18 -106 33 -151 58 -181 20 -23 26 -25 40
-14 30 25 64 116 90 240 29 136 31 141 52 141 16 0 19 33 4 61 -12 22 -29 25
-35 7z"/>
<path d="M3513 7635 c-3 -9 -3 -29 0 -45 7 -33 -16 -129 -40 -171 l-16 -27
-19 24 c-47 60 -137 -2 -154 -105 -8 -48 13 -81 53 -81 48 0 142 114 184 225
29 74 43 163 29 180 -16 19 -29 19 -37 0z m-106 -233 c6 -4 14 -19 18 -33 5
-22 -1 -34 -33 -68 -61 -64 -94 -52 -72 27 6 23 22 50 37 61 28 23 33 24 50
13z"/>
<path d="M6800 7605 c0 -24 -60 -193 -106 -300 -24 -55 -44 -103 -44 -108 0
-5 8 -7 18 -5 10 3 27 -1 37 -8 27 -20 62 -17 101 7 46 28 64 56 64 101 0 27
-6 40 -19 48 -21 11 -78 3 -98 -13 -19 -14 -17 -8 28 114 50 136 58 179 35
179 -9 0 -16 -7 -16 -15z m40 -318 c0 -32 -61 -90 -90 -85 -13 1 -28 11 -34
21 -9 15 -5 24 26 53 46 42 98 48 98 11z"/>
<path d="M7715 7610 c-3 -5 -3 -15 0 -20 3 -6 -1 -41 -10 -78 l-16 -67 -51 4
c-39 2 -49 0 -46 -10 3 -8 13 -15 24 -17 66 -10 63 -6 57 -82 -7 -83 5 -116
51 -148 38 -26 101 -46 116 -37 20 12 9 23 -36 34 -27 7 -59 25 -77 42 -29 29
-30 32 -24 101 3 39 9 73 12 76 3 3 35 8 73 11 85 8 83 26 -3 26 -53 0 -64 3
-61 15 16 58 28 131 23 144 -7 18 -23 21 -32 6z"/>
<path d="M8194 7569 c-4 -7 -8 -38 -8 -68 -1 -42 5 -66 22 -95 18 -31 20 -41
10 -47 -7 -5 -41 -25 -75 -46 -35 -20 -63 -40 -63 -45 0 -19 31 -19 87 0 32
12 72 23 89 26 l31 5 -5 -55 c-3 -34 0 -59 8 -69 21 -25 30 -7 30 62 0 58 2
64 18 57 32 -14 91 -16 127 -4 58 19 37 35 -53 38 l-81 3 12 27 c6 15 31 49
54 76 24 26 43 52 43 57 0 23 -41 4 -78 -36 -22 -25 -45 -45 -50 -45 -6 0 -13
15 -16 33 -7 38 -31 75 -42 65 -4 -4 -1 -28 6 -53 7 -25 10 -48 7 -51 -12 -12
-39 61 -42 114 -4 55 -16 75 -31 51z m66 -239 c0 -5 -10 -10 -22 -10 -19 0
-20 2 -8 10 19 13 30 13 30 0z"/>
<path d="M2131 7521 c-26 -55 -41 -61 -163 -61 -38 0 -68 -4 -68 -10 0 -18 35
-28 98 -27 34 0 65 -2 68 -6 9 -8 -41 -88 -76 -122 -16 -16 -30 -37 -30 -47 0
-26 33 -23 45 5 10 23 133 109 145 102 4 -3 16 -34 26 -70 17 -59 30 -76 46
-59 3 3 -3 33 -13 67 -10 34 -19 68 -19 74 0 7 24 25 53 39 61 31 87 52 87 70
0 20 -41 27 -98 16 l-51 -9 -3 40 c-4 56 -20 56 -47 -2z m149 -56 c0 -2 -22
-16 -50 -30 -48 -24 -50 -25 -50 -5 0 12 8 21 23 24 79 17 77 17 77 11z m-130
-41 c0 -9 -5 -14 -12 -12 -18 6 -21 28 -4 28 9 0 16 -7 16 -16z m-35 -45 c-4
-5 -15 -14 -26 -20 -20 -10 -20 -10 -4 15 15 23 44 28 30 5z"/>
<path d="M7040 7495 c0 -17 36 -39 44 -26 4 5 3 16 0 25 -8 20 -44 21 -44 1z"/>
<path d="M3649 7427 c-80 -54 -115 -160 -68 -203 27 -24 136 -25 192 -1 41 18
49 37 15 37 -17 0 -19 -3 -9 -9 11 -7 11 -10 0 -17 -7 -4 -14 -3 -16 2 -2 7
-23 7 -61 1 -71 -11 -112 2 -112 36 0 19 8 25 46 35 78 21 119 86 78 126 -20
21 -25 20 -65 -7z m51 -30 c0 -18 -40 -53 -67 -60 -31 -7 -29 5 9 42 33 33 58
40 58 18z"/>
<path d="M3101 7409 c-64 -39 -93 -136 -53 -172 39 -35 122 -13 161 42 23 33
28 97 8 122 -20 26 -80 30 -116 8z m97 -53 c5 -39 -14 -70 -53 -92 -44 -23
-85 -13 -85 22 0 31 24 80 46 92 9 5 32 8 52 8 33 -2 37 -5 40 -30z"/>
<path d="M4794 7406 c-11 -8 -29 -14 -39 -13 -15 2 -21 -6 -26 -38 -3 -22 -11
-53 -18 -69 -6 -16 -9 -36 -6 -44 8 -22 31 2 46 46 6 20 21 50 32 65 17 25 24
28 53 22 39 -7 45 6 12 29 -27 19 -29 19 -54 2z"/>
<path d="M7153 7405 c-24 -10 -40 -29 -59 -68 -26 -52 -26 -54 -10 -89 24 -51
63 -65 134 -50 60 13 78 24 68 41 -5 7 -13 8 -24 2 -9 -5 -37 -12 -62 -16 -37
-5 -50 -3 -70 13 -29 23 -21 52 14 52 34 0 96 55 96 86 0 13 -9 28 -19 34 -25
13 -29 12 -68 -5z m47 -46 c-13 -23 -46 -41 -68 -37 -14 3 -11 9 15 36 35 35
71 36 53 1z"/>
<path d="M4950 7394 c0 -8 -11 -32 -25 -52 -33 -49 -34 -99 -1 -113 29 -14 65
-6 96 19 21 17 22 24 16 75 -7 54 -10 58 -43 72 -44 18 -43 18 -43 -1z m57
-87 c5 -33 3 -38 -22 -47 -58 -22 -74 16 -29 70 30 36 42 30 51 -23z"/>
<path d="M5376 7386 c-30 -33 -47 -91 -36 -121 12 -33 40 -45 99 -45 39 0 51
4 51 15 0 11 -12 15 -48 15 -48 0 -72 12 -72 37 0 8 13 13 34 13 56 0 82 42
56 91 -15 27 -56 24 -84 -5z m62 -28 c-2 -17 -11 -24 -30 -26 -32 -4 -35 4
-11 30 23 25 45 23 41 -4z"/>
<path d="M5598 7399 c-27 -15 -21 -56 13 -99 36 -45 34 -73 -7 -68 -16 2 -32
14 -42 33 -9 17 -18 32 -19 34 -2 2 -9 -2 -17 -8 -12 -10 -11 -17 7 -46 31
-48 66 -61 106 -41 41 22 41 54 0 111 -17 24 -28 48 -25 54 9 15 49 14 64 -1
9 -9 13 -7 18 6 4 11 1 22 -7 27 -19 12 -70 11 -91 -2z"/>
<path d="M5164 7367 c-49 -45 -53 -97 -10 -133 32 -28 56 -30 103 -8 43 21 30
37 -20 23 -57 -16 -84 5 -78 61 3 20 52 60 71 57 8 -1 15 5 15 13 0 29 -43 22
-81 -13z"/>
<path d="M7385 7389 c-43 -25 -65 -53 -65 -84 0 -59 46 -97 133 -110 39 -6 47
-5 47 8 0 11 -14 18 -46 23 -55 8 -104 46 -104 80 0 33 54 67 93 58 24 -5 28
-3 25 13 -4 22 -53 29 -83 12z"/>
<path d="M5780 7371 c0 -12 6 -34 14 -49 8 -15 18 -44 24 -64 10 -35 9 -38
-10 -38 -11 0 -33 14 -48 30 -29 31 -47 26 -35 -10 9 -27 59 -52 98 -48 30 3
32 5 30 41 -2 21 -11 58 -22 83 -22 48 -17 54 22 24 29 -23 47 -26 47 -7 0 24
-37 48 -79 54 -37 5 -41 4 -41 -16z"/>
<path d="M6496 7347 c-46 -43 -55 -80 -29 -115 37 -50 119 -35 156 28 24 40
21 58 -14 91 -40 38 -69 37 -113 -4z m103 -31 c15 -18 2 -47 -31 -70 -52 -36
-106 0 -74 49 22 33 85 45 105 21z"/>
<path d="M6972 7245 c-15 -136 -63 -230 -132 -257 -20 -7 -27 -5 -42 14 -11
16 -20 20 -27 13 -16 -16 10 -58 42 -69 25 -9 32 -5 78 40 29 27 62 73 76 103
24 54 50 209 39 237 -13 34 -24 8 -34 -81z"/>
<path d="M2630 6826 l0 -64 -37 -7 c-48 -9 -100 -40 -108 -65 -12 -37 49 -123
115 -162 19 -12 38 -27 42 -32 11 -16 10 -186 -1 -186 -41 0 -105 54 -117 98
-10 35 -40 24 -37 -13 3 -37 60 -90 116 -107 l39 -12 -7 -128 c-7 -110 -5
-128 7 -128 12 0 16 22 22 108 8 130 13 152 35 152 26 0 89 48 106 80 14 28
14 33 -4 69 -23 44 -71 88 -107 97 -18 5 -24 13 -24 33 0 14 -3 56 -7 94 -5
58 -4 67 11 67 9 0 30 -14 48 -30 19 -19 35 -27 41 -21 16 16 -13 52 -60 73
l-45 20 4 64 c3 56 2 64 -14 64 -15 0 -18 -9 -18 -64z m4 -187 c4 -50 4 -94 2
-97 -10 -10 -116 105 -116 125 0 31 31 50 101 62 3 1 9 -40 13 -90z m126 -202
c28 -45 25 -60 -15 -96 -59 -51 -65 -45 -65 64 l0 96 30 -16 c17 -9 40 -30 50
-48z"/>
<path d="M8827 6833 c-12 -20 -58 -234 -55 -254 1 -13 10 -24 18 -24 10 0 14
8 12 22 -2 18 27 151 54 241 5 16 2 22 -9 22 -9 0 -18 -3 -20 -7z"/>
<path d="M8230 6752 c0 -10 -7 -44 -15 -77 -13 -47 -13 -60 -3 -67 9 -5 18 7
30 45 22 67 23 117 3 117 -8 0 -15 -8 -15 -18z"/>
<path d="M8296 6758 c-3 -7 -12 -34 -21 -59 -20 -54 -17 -114 5 -114 11 0 14
9 12 30 -1 17 6 55 17 85 11 30 17 58 15 62 -8 12 -24 9 -28 -4z"/>
<path d="M3950 6710 c-12 -22 -7 -64 16 -144 29 -103 12 -241 -32 -252 -35 -9
-55 -1 -77 27 -17 24 -18 31 -7 63 14 42 50 71 79 61 26 -8 35 9 15 30 -22 21
-51 11 -91 -30 -43 -46 -52 -94 -23 -140 39 -63 128 -63 159 0 20 42 25 142
12 250 -10 78 -10 99 0 112 11 13 10 17 -6 29 -25 19 -32 18 -45 -6z"/>
<path d="M6156 6708 c-3 -7 -12 -34 -21 -60 -19 -51 -15 -78 11 -78 10 0 14 5
10 16 -3 8 1 31 9 51 17 41 20 83 5 83 -6 0 -12 -6 -14 -12z"/>
<path d="M9230 6713 c-4 -77 -14 -139 -39 -236 -36 -138 -37 -150 -13 -145 9
2 16 9 15 15 -1 6 7 44 18 84 46 167 61 289 34 289 -8 0 -15 -3 -15 -7z"/>
<path d="M6222 6690 c-7 -12 -10 -26 -6 -33 4 -7 4 -9 -1 -5 -11 11 -34 -22
-35 -49 0 -17 6 -23 21 -23 14 0 19 5 16 14 -3 7 6 32 19 56 13 23 24 46 24
51 0 17 -25 9 -38 -11z"/>
<path d="M9683 6560 c-30 -12 -30 -46 2 -106 29 -54 31 -72 10 -80 -20 -8 -45
13 -45 37 0 22 -25 25 -34 4 -7 -18 37 -71 65 -78 27 -7 59 25 59 61 0 15 -11
45 -25 67 -29 48 -31 61 -7 70 11 4 22 -1 31 -14 16 -25 27 -27 35 -6 7 19
-28 55 -51 54 -10 0 -28 -4 -40 -9z"/>
<path d="M9405 6544 c-44 -23 -66 -45 -81 -81 -15 -34 -18 -90 -8 -118 20 -51
164 -62 164 -13 0 15 -4 18 -17 13 -65 -28 -123 -6 -123 44 0 45 10 64 26 50
33 -28 134 25 134 70 0 19 -34 51 -55 51 -5 0 -23 -7 -40 -16z m65 -34 c0 -14
-51 -50 -71 -50 -43 0 -24 39 31 61 17 7 40 1 40 -11z"/>
<path d="M9852 6548 c-18 -18 -15 -46 8 -78 27 -37 41 -77 34 -95 -9 -22 -45
-19 -51 5 -7 25 -33 27 -33 3 0 -26 12 -40 40 -51 79 -30 102 60 39 150 -14
19 -18 33 -12 39 14 14 40 1 46 -22 7 -27 27 -24 27 4 0 45 -67 76 -98 45z"/>
<path d="M3307 6533 c-2 -4 -8 -50 -11 -100 -6 -74 -5 -93 6 -93 7 0 21 20 32
45 23 57 75 112 87 93 5 -7 9 -44 9 -81 0 -77 11 -107 40 -107 23 0 27 25 5
34 -11 4 -15 22 -15 75 0 125 -31 152 -96 87 l-34 -34 3 41 c2 37 -14 61 -26
40z"/>
<path d="M5400 6504 c-36 -33 -40 -34 -40 -15 0 13 -6 21 -17 21 -16 0 -18
-13 -21 -113 -1 -61 -7 -136 -13 -166 -12 -60 -5 -121 15 -121 16 0 26 52 26
144 l0 68 44 -6 c77 -12 134 32 146 111 10 61 3 81 -31 98 -43 23 -65 18 -109
-21z m84 -4 c22 -8 26 -16 26 -50 0 -23 -5 -50 -11 -62 -23 -42 -119 -59 -133
-22 -8 22 29 99 59 122 32 26 27 25 59 12z"/>
<path d="M7903 6506 c-24 -21 -26 -26 -16 -49 7 -15 28 -37 47 -49 47 -31 64
-67 40 -85 -25 -18 -37 -16 -68 8 -20 16 -30 19 -38 11 -9 -9 -7 -17 6 -31 24
-27 71 -36 106 -21 59 24 50 82 -22 142 -46 38 -49 43 -32 55 26 19 61 16 84
-7 11 -11 25 -20 30 -20 19 0 10 29 -16 49 -36 28 -86 27 -121 -3z"/>
<path d="M4140 6491 c-68 -68 -13 -211 82 -211 30 0 47 8 78 36 37 34 52 64
31 64 -5 0 -25 -16 -44 -35 -44 -44 -86 -47 -116 -9 -21 27 -29 60 -12 50 15
-10 75 38 85 67 14 37 -2 61 -43 65 -24 3 -38 -4 -61 -27z m73 -8 c10 -17 -13
-51 -42 -61 -28 -10 -31 -9 -31 8 0 33 59 76 73 53z"/>
<path d="M6699 6502 c-42 -21 -61 -60 -63 -126 -1 -38 3 -51 15 -54 12 -2 15
8 16 49 1 73 27 105 82 102 41 -2 51 7 29 24 -26 20 -47 21 -79 5z"/>
<path d="M7413 6500 c-39 -24 -53 -48 -53 -95 0 -76 54 -125 138 -125 46 0 94
31 76 50 -8 8 -14 7 -24 -5 -8 -9 -29 -15 -57 -15 -105 0 -146 132 -53 170 24
10 34 10 43 1 18 -19 -27 -53 -59 -45 -18 5 -24 2 -24 -10 0 -9 3 -16 8 -17 4
0 17 -2 30 -3 30 -4 78 27 85 54 7 27 -24 60 -55 60 -13 0 -37 -9 -55 -20z"/>
<path d="M7676 6498 c-22 -30 -21 -34 19 -115 44 -89 44 -109 1 -60 -38 42
-46 45 -46 16 0 -29 53 -79 83 -79 45 0 42 45 -9 134 -13 23 -24 53 -24 69 0
23 4 27 27 27 14 0 35 -7 45 -16 16 -16 18 -16 24 0 10 27 -15 46 -62 46 -33
0 -46 -5 -58 -22z"/>
<path d="M6494 6481 c-18 -11 -35 -24 -38 -29 -3 -6 -16 -8 -27 -5 -19 5 -21
3 -14 -26 4 -20 2 -37 -5 -46 -7 -8 -13 -31 -15 -52 -1 -21 -6 -73 -10 -115
-7 -69 -6 -78 8 -78 18 0 23 15 32 102 l6 57 32 -5 c65 -9 127 55 127 131 0
70 -42 99 -96 66z m64 -64 c3 -32 -2 -43 -31 -72 -35 -35 -52 -41 -73 -27 -18
11 9 103 37 125 36 29 63 19 67 -26z"/>
<path d="M7148 6485 c-48 -27 -71 -92 -47 -137 23 -43 159 -69 159 -30 0 14 2
15 10 2 9 -13 10 -13 10 0 0 12 -12 16 -59 15 -63 0 -101 21 -101 56 0 30 45
73 76 74 18 1 29 7 29 16 0 20 -45 22 -77 4z"/>
<path d="M6903 6479 c-24 -7 -39 -21 -53 -49 -37 -72 0 -127 73 -110 45 10 73
32 81 66 7 26 -17 94 -33 94 -5 0 -15 2 -23 4 -7 2 -28 0 -45 -5z m65 -66 c4
-39 -20 -63 -64 -63 -31 0 -34 3 -34 28 0 36 18 59 50 65 39 6 45 3 48 -30z"/>
<path d="M3612 6467 c-20 -23 -42 -85 -42 -115 0 -62 74 -109 126 -81 28 14
64 84 64 122 0 42 -38 76 -91 82 -32 4 -50 1 -57 -8z m109 -48 c8 -17 8 -31 0
-61 -15 -48 -48 -72 -83 -59 -40 15 -47 49 -24 106 14 32 19 35 55 35 31 0 43
-5 52 -21z"/>
<path d="M5038 6473 c-32 -3 -48 -9 -48 -18 0 -8 3 -16 8 -18 14 -8 193 18
192 28 0 11 -75 15 -152 8z"/>
<path d="M8715 6363 c0 -33 -12 -75 -39 -135 -24 -57 -35 -95 -31 -108 10 -30
29 -19 36 21 3 19 21 69 38 112 34 84 39 149 11 155 -12 2 -15 -8 -15 -45z"/>
<path d="M14301 5873 c-51 -96 -71 -146 -65 -165 6 -21 29 -19 30 3 1 27 16
64 45 110 28 45 38 89 20 89 -5 0 -18 -17 -30 -37z"/>
<path d="M12443 5858 c-35 -67 -42 -92 -32 -111 16 -27 26 -20 32 24 3 22 12
48 20 57 9 9 19 29 22 45 11 43 -17 34 -42 -15z"/>
<path d="M12882 5878 c-5 -7 -52 -95 -102 -196 l-92 -184 18 -33 c25 -46 54
-58 103 -41 96 33 169 137 126 179 -23 24 -63 21 -112 -8 -24 -13 -43 -21 -43
-19 0 5 14 39 78 188 9 22 24 47 34 56 20 19 28 61 12 67 -6 2 -16 -2 -22 -9z
m30 -318 c-5 -47 -84 -110 -137 -110 -61 0 -34 63 48 110 62 36 93 36 89 0z"/>
<path d="M7471 5825 c-12 -31 -21 -63 -21 -71 0 -28 -52 -187 -76 -236 -30
-60 -30 -65 6 -99 45 -43 82 -39 136 14 23 24 46 56 50 71 17 70 -36 114 -100
84 l-34 -17 23 77 c13 42 26 95 30 117 4 21 13 52 21 67 18 34 18 48 0 48 -8
0 -23 -24 -35 -55z m61 -279 c21 -48 -53 -134 -105 -121 -14 4 -28 13 -31 20
-6 18 40 88 73 108 36 23 50 21 63 -7z"/>
<path d="M2175 5859 c-47 -7 -240 -30 -382 -45 -44 -4 -63 -10 -63 -20 0 -18
14 -17 174 1 71 9 130 14 132 12 5 -5 -38 -171 -75 -291 -36 -114 -36 -119
-15 -114 10 2 22 21 29 48 7 25 31 111 54 192 22 81 41 154 41 163 0 11 10 15
37 15 70 0 193 24 193 37 0 15 -45 15 -125 2z"/>
<path d="M12535 5829 c-17 -32 -17 -79 0 -80 6 0 14 15 18 33 4 18 11 43 14
56 8 33 -14 27 -32 -9z"/>
<path d="M3657 5844 c-4 -4 -7 -26 -7 -49 0 -23 -7 -66 -16 -96 -18 -61 -80
-179 -94 -179 -14 0 -41 57 -60 124 -9 33 -21 61 -27 63 -6 2 -20 -27 -32 -64
-12 -37 -37 -93 -56 -123 -31 -50 -34 -83 -6 -65 13 7 48 71 72 128 l15 39 35
-69 c48 -97 65 -96 123 2 46 79 90 215 84 262 -3 27 -18 39 -31 27z"/>
<path d="M14341 5786 c-31 -61 -37 -95 -17 -99 5 -1 15 14 21 34 7 20 24 54
38 77 14 22 23 43 20 46 -16 16 -31 1 -62 -58z"/>
<path d="M13545 5820 c-9 -10 -20 -46 -25 -82 -12 -93 -37 -152 -85 -205 -49
-55 -95 -78 -120 -59 -23 16 -10 41 32 61 37 18 33 43 -5 31 -59 -19 -88 -70
-59 -107 36 -46 98 -27 169 50 55 59 96 147 114 246 4 22 14 45 22 51 14 10
13 13 -5 22 -17 9 -24 8 -38 -8z"/>
<path d="M8520 5790 c0 -28 -35 -137 -49 -153 -4 -4 -32 -8 -62 -10 -38 -3
-54 -8 -54 -18 0 -11 13 -13 52 -12 l52 2 -21 -52 c-27 -66 -36 -131 -17 -125
8 3 15 13 17 24 1 10 15 49 29 87 l26 67 69 0 c67 0 68 1 68 26 0 21 -3 25
-17 19 -30 -12 -103 -18 -103 -9 0 5 9 33 20 62 24 64 27 122 5 122 -10 0 -15
-10 -15 -30z"/>
<path d="M10545 5800 c-3 -5 -4 -14 -1 -19 8 -13 -59 -205 -80 -230 -2 -2 -12
7 -23 20 -16 20 -23 22 -46 14 -39 -14 -86 -76 -95 -124 -8 -45 2 -61 36 -61
26 0 123 85 153 134 27 44 91 220 91 251 0 25 -23 35 -35 15z m-115 -260 c19
-19 19 -19 -32 -65 -27 -25 -54 -45 -59 -45 -29 0 14 96 53 122 17 10 15 11
38 -12z"/>
<path d="M2215 5791 c-3 -6 -3 -26 0 -44 7 -36 -22 -166 -55 -242 -22 -51 -26
-85 -10 -85 6 0 15 11 20 24 19 50 103 126 140 126 15 0 12 -28 -6 -77 -16
-40 -14 -73 3 -73 4 0 18 32 30 71 17 52 20 76 12 90 -14 27 -59 24 -103 -6
-20 -13 -36 -23 -36 -21 0 2 7 23 15 46 24 68 31 173 12 188 -10 9 -17 9 -22
3z"/>
<path d="M4130 5745 c0 -35 -8 -75 -21 -105 l-21 -49 -22 26 c-22 25 -23 25
-54 9 -37 -19 -92 -90 -92 -118 0 -82 90 -75 156 13 41 55 73 123 83 181 17
95 18 93 -6 96 -22 3 -23 0 -23 -53z m-80 -160 c7 -8 17 -12 23 -8 20 12 -33
-56 -60 -77 -52 -41 -79 -13 -43 45 19 31 44 54 61 55 4 0 12 -7 19 -15z"/>
<path d="M7825 5751 c-8 -15 3 -31 21 -31 9 0 14 7 12 17 -4 20 -24 28 -33 14z"/>
<path d="M10280 5711 c0 -20 25 -35 42 -25 5 3 2 14 -8 25 -22 24 -34 24 -34
0z"/>
<path d="M13230 5716 c0 -20 26 -27 40 -12 8 10 7 15 -6 20 -24 9 -34 7 -34
-8z"/>
<path d="M5165 5669 c-17 -5 -49 -24 -72 -44 -23 -19 -46 -35 -52 -35 -6 0
-11 -10 -11 -22 0 -29 -67 -244 -92 -291 -22 -44 -18 -81 7 -56 14 15 95 199
95 218 0 6 11 11 25 11 38 0 97 34 138 79 78 87 57 165 -38 140z m55 -44 c0
-41 -48 -99 -107 -129 -53 -26 -63 -22 -51 21 12 44 38 80 76 105 34 23 82 24
82 3z"/>
<path d="M4276 5651 c-85 -56 -109 -185 -39 -212 30 -11 158 5 169 22 3 5 10
7 15 4 5 -4 9 -1 9 4 0 6 9 11 20 11 11 0 20 7 20 15 0 19 -19 19 -45 1 -31
-21 -151 -39 -175 -26 -20 10 -28 40 -12 40 14 0 105 63 124 85 49 57 -17 101
-86 56z m74 -19 c0 -13 -52 -58 -88 -76 l-33 -17 15 30 c9 16 28 39 42 50 27
21 64 28 64 13z"/>
<path d="M3772 5628 c-23 -29 -52 -99 -52 -126 0 -56 48 -69 95 -26 24 23 27
31 23 75 -3 27 -1 49 3 49 19 0 8 28 -13 34 -34 9 -44 7 -56 -6z m32 -54 c12
-31 6 -63 -16 -78 -30 -21 -38 -20 -38 4 0 23 30 90 41 90 4 0 10 -7 13 -16z"/>
<path d="M5352 5616 c-33 -29 -92 -134 -92 -165 0 -33 18 -25 35 16 9 21 30
59 47 85 26 42 34 48 64 48 36 0 42 8 22 28 -19 19 -44 14 -76 -12z"/>
<path d="M9385 5618 c-11 -6 -30 -20 -42 -31 -12 -11 -32 -20 -45 -21 -17 -1
-27 -12 -42 -51 -11 -27 -35 -86 -54 -130 -19 -44 -40 -97 -48 -117 -14 -37
-10 -68 7 -68 10 0 15 10 59 127 l31 81 38 -5 c50 -7 88 14 138 74 48 57 63
85 63 112 0 36 -62 53 -105 29z m70 -28 c12 -19 -43 -97 -98 -137 -76 -56
-105 -5 -39 69 58 64 120 95 137 68z"/>
<path d="M9579 5583 c-76 -71 -118 -153 -79 -153 6 0 16 16 24 34 18 44 107
131 117 115 9 -16 29 -2 29 21 0 15 -18 30 -36 30 -3 0 -28 -21 -55 -47z"/>
<path d="M10041 5556 c-28 -41 -62 -84 -77 -95 -25 -20 -29 -20 -37 -5 -5 9
-7 43 -3 75 4 46 3 59 -8 59 -19 0 -26 -23 -26 -84 0 -54 20 -96 46 -96 33 0
174 168 174 208 0 28 -22 7 -69 -62z"/>
<path d="M11684 5591 c-51 -38 -80 -92 -64 -121 12 -23 44 -25 80 -5 34 20 37
19 43 -13 4 -18 16 -33 33 -41 38 -17 54 2 20 24 -33 22 -33 35 0 102 31 62
26 72 -32 80 -32 4 -46 -1 -80 -26z m81 -11 c10 -16 -26 -60 -66 -81 -47 -24
-49 -24 -49 0 0 21 75 91 96 91 7 0 16 -4 19 -10z"/>
<path d="M13028 5602 c-31 -21 -102 -148 -87 -157 15 -10 35 11 57 58 11 23
32 53 46 66 22 21 29 23 51 13 31 -14 47 5 20 25 -25 18 -55 16 -87 -5z"/>
<path d="M5523 5603 c-7 -2 -26 -29 -43 -58 -25 -44 -29 -58 -20 -75 24 -45
92 -31 144 30 32 39 33 54 1 85 -22 23 -53 30 -82 18z m70 -47 c7 -19 -18 -53
-54 -71 -53 -28 -66 3 -23 54 27 33 68 41 77 17z"/>
<path d="M5752 5594 c-27 -19 -62 -85 -62 -117 0 -13 8 -32 19 -41 25 -23 87
-32 106 -16 22 18 18 33 -6 27 -31 -8 -80 3 -86 20 -9 23 29 94 55 104 13 5
22 14 20 21 -7 19 -22 19 -46 2z"/>
<path d="M7163 5603 c-7 -2 -13 -13 -13 -22 0 -10 -9 -26 -20 -36 -29 -26 -42
-82 -27 -114 16 -34 54 -38 105 -12 97 50 111 142 27 177 -35 14 -51 16 -72 7z
m93 -68 c3 -13 1 -33 -5 -44 -14 -25 -87 -65 -107 -57 -42 16 13 125 56 111
14 -4 20 -2 20 9 0 23 29 8 36 -19z"/>
<path d="M2466 5580 c-38 -24 -76 -87 -76 -123 0 -42 49 -87 93 -87 45 0 161
36 176 54 21 25 -4 25 -73 0 -81 -29 -120 -30 -146 -4 -26 26 -27 64 -2 56 25
-8 104 34 121 65 8 14 11 33 8 42 -9 23 -65 22 -101 -3z m58 -31 c-10 -11 -36
-29 -56 -39 -36 -17 -37 -17 -28 0 15 27 60 60 83 60 20 0 20 0 1 -21z"/>
<path d="M5941 5579 c-49 -30 -70 -59 -71 -97 0 -43 38 -82 80 -82 34 0 90 25
90 40 0 12 -2 12 -55 -1 -50 -13 -85 0 -85 30 0 20 19 31 51 31 11 0 33 7 49
15 35 18 41 58 11 75 -27 14 -31 13 -70 -11z m44 -36 c-18 -12 -55 -18 -55 -8
0 2 12 11 27 19 33 17 54 9 28 -11z"/>
<path d="M6201 5588 c-43 -23 -46 -40 -17 -87 32 -50 30 -75 -2 -43 -23 23
-42 22 -42 -2 0 -17 43 -46 68 -46 11 0 25 7 32 15 10 13 8 25 -14 67 -26 49
-26 53 -10 65 10 7 31 13 47 13 18 0 27 4 25 13 -6 17 -58 20 -87 5z"/>
<path d="M6398 5579 c-25 -14 -22 -35 8 -87 17 -29 23 -47 16 -54 -12 -12 -92
-1 -92 13 0 5 -7 9 -15 9 -8 0 -15 -9 -15 -19 0 -36 113 -56 144 -25 22 21 20
40 -9 91 -23 37 -24 44 -10 49 9 4 29 4 46 0 25 -5 30 -3 27 12 -4 20 -72 28
-100 11z"/>
<path d="M7917 5565 c-37 -26 -67 -70 -67 -100 0 -8 9 -24 20 -35 32 -32 160
-24 160 10 0 5 -28 7 -66 3 -55 -5 -66 -4 -62 8 3 8 9 14 14 14 26 2 54 18 48
27 -5 7 -1 9 9 5 24 -9 57 41 46 71 -11 30 -54 29 -102 -3z m73 -19 c0 -17
-38 -43 -76 -52 l-29 -7 25 28 c36 39 80 56 80 31z"/>
<path d="M9697 5532 c-37 -44 -47 -63 -45 -86 6 -60 68 -60 125 1 31 32 34 40
31 87 -3 49 -4 51 -33 53 -25 2 -37 -7 -78 -55z m81 -7 c5 -25 -15 -59 -48
-78 -61 -36 -69 -2 -14 62 37 43 56 48 62 16z"/>
<path d="M10896 5581 c-46 -10 -54 -33 -28 -86 27 -56 28 -72 2 -80 -30 -9
-80 4 -80 22 0 8 -7 13 -17 11 -10 -2 -18 -12 -18 -23 0 -29 71 -52 122 -39
33 8 38 13 41 41 2 18 -6 49 -17 72 -23 43 -22 45 27 56 20 4 32 3 32 -4 0 -6
5 -11 10 -11 6 0 10 11 10 25 0 21 -5 25 -27 24 -16 -1 -41 -4 -57 -8z"/>
<path d="M13393 5583 c-21 -8 -15 -23 13 -33 33 -13 47 -4 34 21 -11 19 -23
22 -47 12z"/>
<path d="M8154 5558 c-84 -66 -96 -125 -33 -162 34 -20 101 -16 134 8 33 24 8
35 -40 17 -41 -14 -48 -14 -73 -1 -36 21 -38 41 -6 79 34 41 63 56 77 42 16
-16 27 -13 27 8 0 36 -45 41 -86 9z"/>
<path d="M13605 5561 c-51 -31 -78 -67 -71 -94 10 -42 52 -51 130 -30 18 5 18
1 12 -57 -10 -86 -12 -90 -58 -90 -83 0 -118 -44 -118 -147 0 -79 33 -117 76
-88 30 20 50 51 80 122 19 47 27 57 44 55 24 -4 26 5 4 29 -13 15 -14 26 -5
71 16 85 18 193 4 191 -7 -2 -13 2 -13 7 0 12 -36 50 -47 50 -5 0 -21 -8 -38
-19z m59 -42 c17 -21 17 -22 -1 -41 -22 -21 -78 -27 -95 -10 -8 8 -2 19 20 41
36 37 51 38 76 10z m-14 -272 c0 -7 -16 -45 -35 -85 -52 -110 -89 -109 -82 2
3 47 8 63 26 77 27 22 91 26 91 6z"/>
<path d="M13820 5554 c-34 -29 -60 -73 -60 -103 0 -33 46 -61 101 -61 57 0 79
7 79 26 0 10 -10 12 -44 8 -59 -9 -96 1 -96 25 0 14 10 21 35 25 19 4 47 17
62 30 24 21 26 26 15 50 -15 34 -51 34 -92 0z m65 -24 c-3 -4 -18 -13 -34 -18
-25 -9 -29 -8 -24 5 6 16 43 33 56 26 4 -2 5 -8 2 -13z"/>
<path d="M10594 5527 c-51 -51 -63 -87 -40 -122 28 -42 133 -43 133 0 0 10 -6
14 -15 10 -44 -17 -61 -16 -81 4 -23 23 -20 44 3 35 8 -3 30 1 49 10 71 29 89
106 25 106 -23 0 -42 -11 -74 -43z m84 1 c-5 -15 -69 -50 -77 -42 -8 8 50 54
67 54 8 0 12 -6 10 -12z"/>
<path d="M7718 5497 c-6 -72 -32 -136 -73 -186 -29 -33 -29 -33 -37 -10 -7 17
-11 20 -21 10 -9 -9 -9 -14 3 -21 13 -8 12 -10 -3 -10 -26 0 -18 -34 9 -38 26
-4 98 73 125 133 19 43 39 151 31 173 -2 7 -9 12 -16 12 -9 0 -15 -21 -18 -63z"/>
<path d="M10164 5505 c-25 -55 -26 -91 -2 -83 7 3 15 18 19 34 3 16 11 39 17
51 15 27 15 53 1 53 -5 0 -22 -25 -35 -55z"/>
<path d="M13145 5500 c-19 -36 -19 -60 -1 -60 8 0 17 13 21 30 4 16 11 32 16
35 14 9 11 25 -6 25 -8 0 -21 -13 -30 -30z"/>
<path d="M1680 5380 c0 -82 -59 -299 -90 -330 -22 -22 -25 -36 -10 -45 5 -3 7
-18 4 -33 -4 -24 0 -29 34 -46 45 -21 70 -16 119 20 79 60 95 152 30 179 -35
14 -54 9 -94 -28 -27 -24 -28 -18 -7 52 28 96 55 233 49 252 -12 36 -35 22
-35 -21z m91 -304 c22 -47 -48 -126 -110 -126 -43 0 -46 14 -12 62 63 92 101
111 122 64z"/>
<path d="M2317 5311 c-25 -110 -40 -137 -77 -145 -18 -3 -45 -6 -61 -6 -18 0
-29 -5 -29 -13 0 -22 8 -24 58 -16 26 4 48 6 49 5 3 -3 -23 -92 -31 -104 -5
-9 -3 -20 8 -30 20 -20 24 -16 35 44 18 91 26 104 68 104 21 0 44 4 52 9 25
16 2 29 -41 24 -38 -6 -41 -4 -34 13 32 80 48 175 30 181 -7 2 -18 -24 -27
-66z"/>
<path d="M8900 5358 c0 -25 -65 -162 -85 -178 -8 -7 -22 -13 -31 -14 -23 -3
-31 -26 -10 -26 9 0 16 -2 16 -4 0 -9 -54 -131 -63 -143 -5 -7 -6 -17 -2 -23
8 -13 45 16 45 34 0 6 13 39 29 73 l30 62 52 3 c33 2 54 8 57 16 3 10 -4 13
-24 12 -68 -5 -67 -6 -24 80 42 83 51 130 25 130 -9 0 -15 -9 -15 -22z"/>
<path d="M11597 5353 c-2 -5 -7 -21 -11 -36 -6 -24 -4 -28 11 -25 12 2 19 14
21 36 3 29 -10 44 -21 25z"/>
<path d="M6021 5328 c2 -39 -37 -191 -60 -235 -27 -53 -76 -110 -102 -118 -54
-17 -65 51 -17 109 26 32 35 37 60 32 23 -4 28 -2 28 13 0 27 -27 33 -63 15
-36 -19 -60 -46 -83 -92 -13 -28 -14 -39 -3 -63 25 -62 73 -64 134 -8 53 49
101 141 116 224 6 33 17 75 25 94 16 38 11 51 -16 51 -14 0 -19 -7 -19 -22z"/>
<path d="M8057 5313 c-3 -5 -23 -53 -45 -108 -22 -55 -58 -135 -81 -178 -40
-75 -52 -127 -31 -127 6 0 13 8 16 18 3 9 29 67 59 127 72 149 110 254 97 267
-5 5 -12 6 -15 1z"/>
<path d="M11407 5303 c-9 -8 -9 -48 0 -56 8 -9 32 24 33 46 0 17 -20 23 -33
10z"/>
<path d="M9040 5281 c0 -10 7 -21 15 -25 11 -4 15 1 15 19 0 16 -6 25 -15 25
-8 0 -15 -9 -15 -19z"/>
<path d="M13310 5275 c-10 -12 -9 -16 5 -21 19 -8 40 9 31 25 -10 15 -21 14
-36 -4z"/>
<path d="M11573 5268 c-6 -7 -16 -30 -22 -50 -11 -32 -17 -38 -41 -38 -40 0
-82 -18 -77 -33 2 -6 10 -11 18 -9 7 2 25 6 41 9 l28 5 -34 -78 c-41 -95 -45
-109 -28 -109 7 0 31 43 55 95 39 86 45 95 72 98 33 4 58 20 50 32 -2 4 -16 5
-30 2 -29 -5 -31 2 -10 52 13 30 13 36 1 36 -7 0 -18 -6 -23 -12z"/>
<path d="M10717 5263 c-4 -3 -7 -22 -7 -42 0 -20 -3 -53 -6 -73 l-6 -37 -28
21 c-42 31 -84 18 -115 -36 -27 -46 -33 -104 -13 -124 23 -23 75 -14 114 21
51 44 75 103 81 198 5 73 0 93 -20 72z m-27 -174 c0 -3 -13 -25 -30 -47 -42
-58 -100 -70 -100 -21 0 26 26 76 46 87 15 9 84 -7 84 -19z"/>
<path d="M8236 5243 c-12 -12 -6 -33 9 -33 8 0 15 6 15 14 0 17 -14 28 -24 19z"/>
<path d="M12440 5220 c-14 -11 -31 -20 -37 -20 -17 0 -107 -186 -99 -206 11
-28 27 -10 62 71 29 67 80 135 101 135 3 0 11 -8 18 -17 11 -15 13 -15 24 4
25 49 -21 71 -69 33z"/>
<path d="M5473 5190 c-30 -17 -54 -26 -58 -20 -10 17 -20 11 -39 -22 -11 -17
-35 -49 -54 -70 -21 -23 -32 -44 -28 -54 5 -12 21 -2 76 47 38 35 83 71 100
82 l31 20 -30 -60 c-42 -82 -41 -117 4 -141 14 -7 26 -7 38 -1 25 15 21 27
-10 31 -41 4 -39 28 6 118 23 44 41 84 41 90 0 17 -23 11 -77 -20z"/>
<path d="M5663 5181 c3 -13 -8 -31 -35 -58 -39 -37 -68 -81 -68 -103 0 -5 9
-19 20 -30 43 -43 142 -11 155 50 10 45 -2 95 -31 130 -29 34 -49 39 -41 11z
m41 -73 c10 -41 6 -58 -19 -83 -27 -28 -66 -33 -84 -11 -9 11 -6 21 16 47 30
37 64 68 74 69 4 0 9 -10 13 -22z"/>
<path d="M11710 5179 c-61 -25 -72 -58 -44 -129 9 -23 14 -44 10 -47 -7 -7
-55 -9 -75 -2 -8 2 -16 -4 -19 -13 -5 -25 55 -34 101 -14 42 17 45 31 17 86
-11 22 -20 46 -20 55 0 21 58 45 93 38 20 -4 27 -1 27 10 0 26 -44 34 -90 16z"/>
<path d="M1924 5155 c-60 -61 -81 -161 -42 -210 19 -24 26 -27 69 -23 54 6
107 34 91 50 -6 6 -20 4 -40 -6 -66 -34 -112 -14 -112 48 0 18 6 26 23 28 12
2 21 9 20 15 -1 6 6 9 16 6 21 -5 61 39 61 68 0 21 -26 49 -46 49 -8 0 -26
-11 -40 -25z m56 -19 c0 -18 -17 -39 -41 -52 -34 -17 -37 -7 -8 30 17 22 49
36 49 22z"/>
<path d="M4224 5136 c-50 -53 -64 -98 -38 -127 21 -23 64 -25 104 -4 28 15 30
14 30 -4 0 -21 47 -64 61 -55 18 11 9 44 -11 44 -16 0 -20 7 -20 34 0 19 5 38
10 41 15 9 13 68 -2 62 -7 -2 -18 9 -25 25 -19 44 -57 38 -109 -16z m87 -35
c5 -38 3 -44 -22 -62 -31 -22 -74 -25 -82 -6 -12 32 59 123 87 114 6 -2 14
-23 17 -46z"/>
<path d="M2498 5146 c-38 -11 -68 -27 -68 -33 0 -17 25 -16 75 1 22 8 41 11
43 6 2 -5 -18 -40 -44 -80 -58 -86 -51 -108 20 -66 l46 27 9 -23 c25 -66 76
-58 115 19 29 58 39 138 16 138 -10 0 -17 -14 -21 -45 -5 -48 -28 -98 -53
-119 -13 -11 -17 -7 -30 23 -15 37 -33 44 -66 26 -15 -8 -13 0 11 35 31 45 44
106 24 110 -5 2 -40 -7 -77 -19z"/>
<path d="M6195 5151 c-16 -10 -49 -37 -73 -59 -53 -51 -67 -112 -35 -151 17
-21 29 -24 89 -25 82 -1 124 9 124 29 0 12 -7 14 -27 8 -47 -12 -139 -9 -157
6 -9 7 -16 24 -16 37 0 21 5 24 35 24 96 0 170 83 119 134 -20 20 -23 20 -59
-3z m45 -34 c0 -22 -44 -56 -80 -63 l-35 -6 42 41 c42 41 73 53 73 28z"/>
<path d="M8715 5160 c-7 -12 2 -30 15 -30 5 0 14 9 20 20 9 17 8 20 -9 20 -11
0 -23 -4 -26 -10z"/>
<path d="M9317 5133 c-9 -21 -30 -56 -46 -78 -21 -28 -26 -43 -19 -52 12 -15
46 0 121 53 26 19 50 34 53 34 3 0 3 -14 -1 -30 -9 -43 16 -80 55 -80 36 0 39
17 5 30 -23 9 -25 15 -25 65 0 69 -12 71 -91 15 -64 -45 -83 -51 -51 -17 20
21 42 67 42 88 0 24 -29 5 -43 -28z"/>
<path d="M10174 5156 c-57 -25 -110 -120 -84 -151 17 -20 39 -19 78 5 l32 20
0 -21 c0 -28 19 -61 31 -53 6 3 8 17 5 30 -4 13 3 45 14 74 26 67 25 77 -10
95 -34 18 -27 18 -66 1z m56 -38 c0 -7 -6 -20 -13 -29 -14 -19 -86 -69 -98
-69 -13 0 11 57 36 84 25 27 75 36 75 14z"/>
<path d="M12778 5148 c-8 -13 -19 -34 -23 -48 -4 -14 -16 -40 -27 -58 -16 -26
-18 -36 -8 -45 9 -9 15 -7 24 8 6 11 35 44 63 73 81 80 117 68 62 -22 -22 -36
-24 -56 -6 -56 14 0 67 97 67 121 0 38 -57 52 -98 23 -21 -14 -22 -14 -22 5 0
27 -14 27 -32 -1z"/>
<path d="M13058 5157 c-30 -10 -45 -24 -73 -71 -19 -32 -35 -65 -35 -72 0 -29
26 -11 63 41 32 46 91 95 102 83 1 -2 -4 -28 -13 -58 -18 -67 -20 -94 -7 -98
12 -4 44 91 48 142 2 37 0 41 -23 43 -14 1 -42 -4 -62 -10z"/>
<path d="M3101 5142 c-20 -10 -44 -35 -58 -61 -21 -38 -23 -48 -12 -73 40 -97
152 -87 275 25 49 44 56 48 50 27 -19 -69 -19 -87 4 -103 26 -18 70 -13 108
11 17 11 20 18 11 26 -8 8 -13 8 -16 -1 -5 -14 -79 -18 -87 -5 -3 5 2 31 11
59 16 50 13 83 -6 83 -6 0 -27 -14 -47 -32 l-36 -32 16 38 c20 48 20 46 -3 46
-12 0 -21 -10 -26 -27 -3 -16 -20 -51 -37 -79 -25 -42 -37 -52 -75 -64 -30 -8
-54 -10 -71 -4 -29 10 -42 34 -18 34 8 0 31 14 51 31 26 23 35 39 35 63 0 29
-14 56 -29 56 -4 0 -21 -8 -40 -18z m39 -41 c0 -21 -44 -61 -66 -61 -17 0 -8
27 19 58 25 27 47 29 47 3z"/>
<path d="M7770 5125 c-29 -19 -55 -35 -60 -35 -4 0 -31 -48 -60 -107 -29 -60
-70 -132 -91 -162 -42 -59 -51 -95 -21 -89 9 2 38 39 64 83 35 58 55 82 75 89
57 18 170 120 210 190 26 44 11 66 -42 66 -13 0 -46 -16 -75 -35z m86 -23
c-19 -36 -152 -162 -171 -162 -11 0 -12 5 -5 26 18 46 31 65 72 102 48 44 76
61 101 62 16 0 16 -2 3 -28z"/>
<path d="M9140 5136 c0 -8 -16 -27 -36 -42 -88 -68 -77 -165 18 -147 45 9 61
36 56 93 -3 28 -2 53 2 55 12 7 -13 55 -27 55 -7 0 -13 -7 -13 -14z m8 -126
c-3 -21 -8 -25 -37 -25 -46 0 -48 16 -10 60 33 37 33 37 41 14 5 -13 8 -35 6
-49z"/>
<path d="M7214 5105 c-81 -48 -118 -89 -104 -115 15 -28 57 -25 122 8 l55 27
-10 -32 c-7 -22 -7 -40 0 -55 8 -17 12 -19 15 -8 3 8 13 38 22 65 28 80 29 93
12 120 -22 33 -41 32 -112 -10z m86 -14 c0 -21 -115 -91 -150 -91 -25 0 -5 24
52 60 59 38 98 51 98 31z"/>
<path d="M7518 5113 c-18 -16 -41 -37 -51 -48 -18 -20 -18 -20 -12 3 6 19 3
23 -10 20 -9 -1 -15 -7 -15 -12 1 -5 -2 -12 -7 -15 -4 -3 -40 -71 -80 -151
-49 -98 -69 -148 -62 -155 12 -12 34 13 89 106 31 52 46 68 68 72 37 7 134 96
156 141 31 66 -14 89 -76 39z m27 -56 c-32 -38 -106 -99 -113 -93 -7 8 34 60
84 106 53 48 72 40 29 -13z"/>
<path d="M8295 5122 c-46 -28 -95 -90 -95 -118 0 -50 86 -96 155 -82 41 7 24
25 -31 31 -56 6 -94 27 -94 53 0 41 109 119 133 95 18 -18 29 -13 25 12 -4 29
-52 34 -93 9z"/>
<path d="M10352 5131 c-7 -4 -14 -18 -15 -29 -1 -12 -4 -22 -8 -22 -14 0 -60
-92 -54 -108 5 -12 21 0 77 56 39 40 75 72 80 72 10 0 1 -40 -13 -54 -14 -15
-11 -56 4 -56 12 0 34 50 44 104 4 18 1 31 -8 37 -20 12 -22 12 -65 -17 -21
-15 -32 -19 -25 -10 16 19 3 40 -17 27z"/>
<path d="M11363 5128 c-21 -30 -76 -158 -70 -164 12 -12 32 14 62 78 17 35 34
66 39 69 9 7 0 29 -13 29 -5 0 -13 -6 -18 -12z"/>
<path d="M12532 5101 c-16 -52 -15 -76 3 -91 33 -27 122 -2 145 39 16 30 13
81 -5 81 -10 0 -15 -10 -15 -29 0 -37 -42 -73 -79 -69 -28 3 -30 14 -16 76 11
48 -19 43 -33 -7z"/>
<path d="M13273 5128 c-18 -23 -66 -138 -60 -144 15 -15 35 9 60 72 25 62 25
103 0 72z"/>
<path d="M2865 5111 c-63 -41 -75 -55 -81 -101 -5 -37 -2 -50 16 -72 26 -34
85 -38 120 -10 32 26 18 45 -18 26 -41 -21 -71 -18 -84 10 -16 37 -4 56 35 56
63 0 110 63 75 98 -16 16 -28 15 -63 -7z m45 -30 c0 -14 -44 -38 -59 -33 -10
3 -8 9 10 23 26 20 49 25 49 10z"/>
<path d="M8489 5095 c-42 -28 -53 -49 -39 -76 13 -24 36 -24 84 0 33 18 37 18
31 3 -16 -38 -16 -60 0 -76 22 -22 45 -5 26 18 -10 11 -10 20 -1 37 7 11 10
34 8 51 -3 16 -1 31 4 34 5 3 4 12 -3 20 -18 22 -70 17 -110 -11z m86 -14
c-18 -17 -89 -51 -94 -45 -11 11 50 54 77 54 16 0 22 -4 17 -9z"/>
<path d="M8928 5098 c-29 -46 -42 -88 -30 -100 8 -8 16 0 29 28 9 21 23 47 31
56 14 16 9 38 -7 38 -5 0 -15 -10 -23 -22z"/>
<path d="M13348 5103 c0 -10 -2 -23 -2 -28 -1 -6 -11 -26 -24 -46 -12 -20 -22
-41 -22 -48 0 -22 28 -10 54 23 35 46 85 81 97 69 5 -5 10 -31 11 -56 1 -52
13 -61 28 -21 17 44 -12 114 -48 114 -7 0 -26 -9 -41 -19 -27 -20 -27 -20 -27
1 1 26 -23 37 -26 11z"/>
<path d="M13764 5101 c-44 -20 -74 -54 -74 -83 0 -40 74 -59 131 -34 13 6 18
-1 23 -35 4 -23 4 -68 0 -99 -6 -57 -7 -58 -43 -64 -45 -7 -95 -37 -116 -69
-38 -58 -28 -179 16 -190 40 -11 108 71 140 168 19 60 32 64 132 40 68 -16 91
-15 70 6 -13 13 -109 39 -147 39 l-29 0 7 60 c7 64 -1 169 -15 191 -7 11 -12
12 -26 1 -38 -26 -62 -34 -87 -28 -32 8 -33 19 -4 46 28 25 70 38 76 22 2 -7
10 -12 18 -12 21 0 17 38 -5 50 -24 12 -18 13 -67 -9z m50 -388 c-17 -56 -61
-131 -87 -147 -23 -14 -37 6 -37 52 0 58 25 101 72 122 64 29 68 27 52 -27z"/>
<path d="M8097 5052 c-15 -26 -39 -65 -52 -87 -31 -50 -31 -55 0 -55 19 0 25
5 25 21 0 12 18 48 40 81 22 33 40 67 40 74 0 29 -26 12 -53 -34z"/>
<path d="M4331 4828 c-16 -29 -33 -66 -37 -82 l-7 -29 -78 7 c-64 5 -79 4 -79
-8 0 -15 42 -26 102 -26 l40 0 -7 -50 c-15 -109 35 -161 135 -139 31 6 50 16
50 24 0 11 -13 13 -63 8 -83 -7 -95 8 -89 115 l2 32 84 0 c47 0 88 5 91 10 8
13 -7 18 -83 23 -35 3 -65 7 -68 10 -7 7 21 72 46 107 24 33 26 50 6 50 -8 0
-28 -24 -45 -52z"/>
<path d="M2527 4823 c-9 -8 12 -33 29 -33 20 0 28 21 13 31 -17 10 -33 11 -42
2z"/>
<path d="M2310 4704 c-11 -36 -20 -75 -20 -85 0 -11 -7 -36 -16 -57 l-15 -37
-13 25 c-12 22 -23 62 -45 163 -10 45 -26 30 -23 -21 2 -49 36 -168 54 -189
29 -35 70 15 89 107 6 30 15 72 21 92 10 34 13 36 39 31 33 -6 39 11 10 27
-45 23 -59 14 -81 -56z"/>
<path d="M1762 4728 c-23 -18 -50 -49 -60 -70 -10 -22 -24 -38 -34 -38 -10 0
-18 -7 -18 -15 0 -8 4 -15 10 -15 5 0 16 -16 24 -35 20 -48 52 -54 141 -25 38
13 80 29 93 37 19 12 22 11 22 -2 0 -36 28 -9 60 57 61 126 94 118 83 -21 -5
-69 -4 -83 8 -79 10 3 17 31 23 87 7 75 6 86 -11 110 -28 36 -48 37 -83 3 -28
-28 -29 -28 -32 -8 -2 11 -10 21 -18 21 -11 0 -15 -12 -16 -45 -1 -95 -2 -99
-26 -92 -13 3 -19 1 -15 -5 4 -6 1 -10 -6 -9 -6 0 -47 -10 -89 -23 -64 -20
-80 -22 -93 -11 -22 18 -19 37 8 44 33 8 116 75 133 107 33 64 -31 81 -104 27z
m78 -7 c0 -14 -59 -69 -92 -87 -43 -23 -35 3 17 53 43 40 75 55 75 34z"/>
<path d="M3550 4753 c-8 -3 -27 -16 -41 -30 -26 -24 -26 -24 -32 -4 -3 12 -12
24 -21 27 -23 9 -108 -18 -113 -36 -3 -8 -13 -33 -23 -55 -42 -97 -53 -136
-42 -147 14 -14 42 32 77 123 19 48 33 69 52 78 43 20 51 0 24 -61 -51 -116
-33 -132 34 -31 53 80 74 103 97 103 23 0 23 -22 -2 -88 -24 -62 -25 -88 -5
-95 16 -7 29 8 21 22 -3 5 3 35 14 66 26 74 26 111 1 125 -11 5 -21 10 -23 9
-2 0 -10 -3 -18 -6z"/>
<path d="M3705 4722 c-52 -37 -60 -49 -75 -98 -10 -35 -10 -46 4 -73 24 -46
58 -56 131 -37 33 9 70 18 82 20 12 2 55 34 95 71 65 60 73 65 76 46 2 -12 -4
-47 -14 -77 -13 -43 -15 -60 -6 -79 13 -28 43 -33 61 -11 13 16 -2 32 -19 21
-18 -11 -21 20 -5 64 22 64 20 118 -5 126 -22 7 -35 0 -87 -49 -33 -30 -40
-29 -24 2 4 9 11 29 15 45 5 23 3 27 -14 27 -13 0 -20 -7 -20 -20 0 -11 -12
-44 -26 -73 -23 -47 -33 -56 -73 -71 -54 -19 -112 -21 -129 -4 -14 14 -16 57
-2 92 10 27 86 83 97 72 12 -12 -11 -40 -48 -58 -37 -19 -46 -45 -14 -40 26 4
64 32 89 65 16 22 18 32 10 45 -18 28 -56 26 -99 -6z"/>
<path d="M2656 4701 c-16 -17 -22 -19 -34 -8 -13 9 -14 9 -8 0 4 -7 2 -13 -3
-13 -6 0 -11 -20 -11 -45 0 -24 -7 -65 -16 -91 -8 -25 -13 -48 -10 -51 16 -16
36 14 53 78 10 39 28 82 40 95 19 21 25 22 53 13 36 -13 50 -5 29 16 -26 26
-72 29 -93 6z"/>
<path d="M3037 4614 c-16 -47 -26 -89 -22 -92 10 -11 38 13 80 67 48 63 70 77
91 61 18 -16 18 -51 -1 -97 -18 -43 -19 -63 -2 -63 15 0 47 86 47 129 0 35
-30 71 -60 71 -10 0 -35 -14 -55 -31 -22 -20 -35 -26 -35 -17 0 8 5 19 11 25
6 6 8 16 5 22 -16 26 -33 5 -59 -75z"/>
<path d="M2492 4678 c-25 -31 -42 -170 -23 -183 15 -9 34 34 27 60 -3 12 1 44
9 71 14 49 8 76 -13 52z"/>
<path d="M2878 4663 c-70 -55 -95 -116 -64 -158 17 -24 73 -24 109 0 48 31 60
124 20 167 -21 23 -23 23 -65 -9z m52 -32 c13 -25 3 -76 -20 -96 -11 -10 -30
-15 -47 -13 -44 5 -42 39 4 88 44 45 48 47 63 21z"/>
<path d="M4587 4553 c-4 -3 -7 -12 -7 -20 0 -17 26 -17 33 1 8 21 -11 35 -26
19z"/>
<path d="M8212 4168 c-30 -46 -46 -84 -82 -193 -43 -132 -60 -165 -86 -165
-26 0 -34 -26 -9 -32 12 -2 6 -18 -25 -68 -42 -68 -47 -85 -30 -95 14 -8 41
14 38 30 -2 6 13 39 32 73 l35 61 42 -6 c27 -4 48 -1 58 7 19 16 9 33 -15 25
-10 -3 -30 -3 -44 1 -24 6 -25 8 -12 33 7 14 21 51 31 81 60 186 172 337 164
220 -3 -43 7 -63 21 -40 14 21 12 84 -2 98 -7 7 -29 12 -50 12 -33 0 -40 -5
-66 -42z"/>
<path d="M10974 4123 c-3 -10 -33 -73 -67 -140 l-62 -123 -47 -6 c-33 -5 -48
-11 -48 -21 0 -12 10 -14 40 -11 22 2 40 3 40 2 0 0 -11 -28 -25 -62 -29 -71
-31 -92 -10 -92 8 0 15 5 15 10 0 6 12 41 27 79 l26 69 55 5 c59 6 67 10 57
27 -4 7 -23 9 -52 4 l-45 -7 60 119 c72 143 79 164 57 164 -8 0 -18 -8 -21
-17z"/>
<path d="M4580 4083 c0 -37 -73 -277 -111 -367 -28 -66 -31 -96 -10 -96 5 0
31 35 59 78 57 89 83 115 109 110 26 -5 28 -52 4 -108 -27 -62 -28 -103 -3
-98 11 2 16 11 14 25 -2 12 6 40 17 62 25 48 27 113 5 135 -26 27 -72 20 -106
-16 -23 -24 -29 -28 -25 -13 83 267 91 308 65 313 -14 3 -18 -3 -18 -25z"/>
<path d="M3332 4058 c-40 -6 -62 -14 -59 -21 4 -13 13 -13 170 -2 l107 8 0
-24 c0 -39 -29 -140 -55 -194 -50 -103 -66 -154 -54 -177 9 -18 9 -20 -4 -15
-9 3 -66 9 -128 13 -93 6 -111 5 -107 -7 3 -10 39 -17 129 -26 243 -23 332
-26 325 -14 -6 8 0 10 19 5 21 -5 26 -4 23 7 -3 8 -14 13 -24 11 -10 -1 -60 0
-110 4 l-92 6 8 31 c5 18 24 77 43 132 19 55 43 133 52 173 l18 72 78 0 c84 0
229 -18 229 -29 0 -3 -7 -15 -15 -25 -8 -11 -15 -28 -15 -37 0 -10 -5 -40 -11
-67 l-10 -49 -47 -6 c-66 -8 -108 -25 -94 -39 7 -7 25 -7 62 2 28 7 54 10 57
7 3 -3 -4 -33 -16 -66 -12 -34 -21 -72 -21 -85 0 -27 18 -45 24 -24 2 7 14 49
28 93 l24 80 59 5 c34 3 60 10 63 18 2 6 -3 12 -11 12 -9 0 -18 -6 -20 -12 -4
-10 -6 -10 -6 0 -1 7 -15 12 -36 12 -40 0 -39 -4 -9 109 9 29 13 56 10 59 -3
3 -1 11 6 19 16 19 8 23 -74 39 -84 16 -415 17 -516 2z"/>
<path d="M8677 4033 c-4 -3 -7 -23 -7 -44 0 -46 -40 -176 -84 -273 -40 -88
-48 -117 -36 -136 9 -13 11 -13 20 0 5 8 10 22 10 31 0 9 13 45 29 80 38 86
89 237 92 274 5 65 -4 89 -24 68z"/>
<path d="M11134 3965 c-9 -22 5 -37 29 -29 30 9 32 11 17 29 -16 19 -39 19
-46 0z"/>
<path d="M5063 3880 c-61 -37 -70 -94 -23 -156 36 -48 37 -58 5 -72 -21 -10
-26 -9 -35 8 -15 29 -30 24 -30 -9 0 -39 38 -50 83 -23 44 25 46 58 7 106 -16
21 -30 49 -30 62 0 29 30 61 65 70 28 7 34 34 8 34 -10 0 -32 -9 -50 -20z"/>
<path d="M7313 3867 c-23 -50 -115 -147 -183 -192 -50 -33 -68 -51 -61 -58 14
-14 44 2 120 64 l58 47 -4 -43 c-4 -32 -2 -43 10 -48 18 -7 83 38 114 77 27
33 31 33 25 -3 -6 -40 14 -73 41 -69 12 2 23 11 25 21 3 13 -2 17 -15 15 -16
-3 -18 3 -15 42 2 25 10 60 18 79 10 25 11 38 4 45 -8 8 -14 6 -21 -6 -16 -28
-102 -125 -131 -148 -38 -29 -36 -13 13 91 37 81 42 109 20 109 -4 0 -13 -10
-18 -23z"/>
<path d="M7588 3864 c-54 -29 -54 -45 -7 -161 11 -26 10 -34 -1 -48 -16 -19
-45 -16 -45 5 0 20 -29 19 -33 -1 -8 -41 54 -63 95 -34 31 22 33 49 7 105 -32
69 -31 98 2 111 21 7 31 6 44 -6 22 -20 30 -19 30 5 0 19 -27 40 -52 40 -7 -1
-25 -7 -40 -16z"/>
<path d="M2881 3844 c-52 -44 -35 -115 24 -100 29 7 72 84 62 110 -9 24 -52
19 -86 -10z m44 -34 c-10 -19 -20 -27 -30 -24 -21 8 -19 20 7 38 33 24 40 19
23 -14z"/>
<path d="M5829 3845 c-14 -8 -39 -33 -55 -56 -23 -34 -30 -38 -32 -23 -8 56
-13 64 -35 64 -13 0 -28 -5 -34 -11 -8 -8 -13 -5 -18 11 -9 28 -30 20 -30 -11
0 -13 -17 -54 -37 -90 -21 -36 -39 -76 -40 -88 -5 -44 18 -32 43 21 24 53 93
138 112 138 9 0 8 -18 -9 -107 -9 -46 8 -42 53 14 21 25 53 63 71 82 l33 36
-6 -45 c-3 -25 -15 -70 -26 -101 -24 -66 -22 -102 5 -107 15 -3 18 0 13 20 -4
14 2 46 13 74 26 70 36 166 19 181 -11 8 -21 8 -40 -2z"/>
<path d="M9513 3839 c-17 -11 -38 -31 -47 -44 -11 -16 -22 -22 -36 -18 -16 4
-20 1 -20 -20 0 -34 -20 -78 -33 -70 -14 8 -27 -18 -27 -56 0 -22 -18 -69 -51
-129 -46 -87 -55 -122 -30 -122 12 0 60 85 92 163 22 54 29 61 89 92 76 39
164 119 174 159 15 59 -49 85 -111 45z m77 -33 c0 -35 -91 -122 -151 -145 -27
-10 -27 -9 -15 22 15 44 116 147 144 147 17 0 22 -6 22 -24z"/>
<path d="M11483 3841 c-53 -33 -55 -78 -8 -147 31 -46 31 -52 -2 -61 -36 -9
-55 -5 -71 15 -11 14 -14 15 -21 3 -14 -22 -2 -39 34 -51 38 -13 101 7 112 35
5 16 0 28 -43 108 -8 15 -13 36 -9 46 10 33 88 55 98 29 4 -10 7 -10 17 -1 11
10 11 15 0 28 -17 21 -69 19 -107 -4z"/>
<path d="M6251 3814 c-17 -14 -31 -23 -31 -19 0 4 -7 2 -15 -5 -8 -7 -15 -20
-15 -29 0 -9 -11 -33 -25 -53 -14 -20 -25 -44 -25 -52 0 -33 29 -14 58 37 16
28 46 67 66 86 32 31 36 32 42 16 4 -10 2 -43 -5 -74 -17 -75 -18 -93 -5 -98
13 -4 46 104 47 155 1 23 -5 39 -18 48 -27 20 -39 18 -74 -12z"/>
<path d="M9701 3822 c-30 -21 -111 -129 -111 -148 0 -30 28 -11 64 44 48 74
82 100 108 83 24 -15 36 -6 22 17 -15 23 -54 25 -83 4z"/>
<path d="M11191 3812 c-77 -52 -105 -127 -61 -167 16 -15 31 -17 86 -12 41 3
72 11 82 21 23 23 10 28 -40 16 -67 -17 -112 -10 -116 18 -3 19 1 22 28 22 33
0 99 29 119 54 7 8 11 27 9 43 -4 41 -50 43 -107 5z m77 -14 c-6 -18 -49 -46
-83 -54 -28 -7 -29 -6 -15 11 31 38 107 72 98 43z"/>
<path d="M6562 3782 c-37 -75 -90 -142 -107 -136 -17 7 -20 57 -6 115 5 21 5
43 0 50 -17 28 -32 -10 -37 -90 -4 -70 -2 -81 16 -96 20 -18 19 -19 -42 -99
-81 -107 -127 -203 -101 -213 6 -2 23 24 38 56 15 33 48 86 72 118 110 142
225 313 225 334 0 5 -8 9 -17 9 -11 -1 -27 -19 -41 -48z"/>
<path d="M10070 3805 c-12 -13 -32 -23 -43 -22 -17 2 -22 -5 -27 -33 -3 -19
-36 -97 -73 -174 -63 -131 -76 -176 -39 -142 10 8 37 51 62 94 41 72 48 80 86
90 96 26 160 125 124 193 -15 27 -61 25 -90 -6z m66 -20 c10 -25 -5 -66 -35
-96 -27 -27 -76 -47 -87 -36 -10 10 27 82 58 115 35 35 55 40 64 17z"/>
<path d="M10299 3801 c-63 -39 -89 -76 -89 -122 0 -54 33 -90 90 -96 57 -6
123 15 128 41 3 15 0 17 -14 11 -11 -4 -40 -13 -66 -18 -42 -10 -51 -9 -75 10
-42 31 -41 50 4 62 69 19 122 91 93 126 -17 20 -19 19 -71 -14z m42 -29 c-13
-24 -31 -39 -64 -51 -41 -16 -33 4 15 39 47 34 63 38 49 12z"/>
<path d="M4762 3795 c-35 -30 -55 -73 -50 -111 4 -39 43 -44 79 -10 l27 25 -5
-37 c-4 -28 0 -44 15 -62 25 -30 40 -20 24 16 -10 20 -9 39 3 90 20 85 19 87
-12 102 -38 17 -47 15 -81 -13z m58 -30 c0 -16 -58 -85 -71 -85 -20 0 -7 41
22 75 30 34 49 38 49 10z"/>
<path d="M7779 3797 c-40 -27 -79 -91 -79 -130 0 -17 10 -38 25 -53 22 -22 31
-25 68 -19 48 8 101 35 98 50 -3 12 -14 11 -70 -10 -51 -19 -79 -12 -87 20 -8
31 2 45 31 45 24 0 95 58 95 78 0 12 -28 42 -39 42 -5 0 -23 -10 -42 -23z m41
-24 c-1 -12 -51 -46 -57 -39 -3 3 5 14 18 25 25 21 39 26 39 14z"/>
<path d="M11984 3801 c-54 -33 -56 -131 -3 -131 25 0 109 77 109 100 0 41 -61
59 -106 31z m66 -40 c-13 -25 -50 -52 -62 -45 -13 8 -9 52 5 57 6 3 25 6 40 6
24 1 26 -1 17 -18z"/>
<path d="M6003 3791 c-38 -24 -86 -101 -81 -133 5 -35 51 -36 94 -3 l34 26 0
-25 c0 -16 6 -26 15 -26 10 0 15 10 15 33 0 17 9 51 19 74 11 23 17 44 13 47
-12 12 -31 5 -37 -14 -14 -44 -105 -123 -122 -107 -16 17 71 117 103 117 8 0
14 7 14 15 0 21 -29 19 -67 -4z"/>
<path d="M10571 3762 c-17 -16 -37 -32 -46 -36 -16 -6 -65 -105 -65 -131 0 -8
7 -15 15 -15 8 0 15 6 15 13 0 6 23 45 52 85 52 73 74 86 98 57 19 -22 35 -3
21 24 -7 12 -16 21 -21 21 -4 0 -15 3 -24 6 -10 4 -27 -5 -45 -24z"/>
<path d="M11047 3783 c-4 -3 -7 -14 -7 -24 0 -10 -9 -34 -20 -53 -23 -42 -7
-62 21 -27 21 25 41 90 33 103 -6 10 -18 10 -27 1z"/>
<path d="M9828 3769 c-10 -5 -18 -14 -18 -19 0 -5 -11 -26 -25 -46 -54 -80 -8
-137 66 -81 72 52 81 158 15 157 -12 0 -29 -5 -38 -11z m52 -49 c0 -23 -56
-90 -76 -90 -27 0 -10 45 34 92 27 29 42 28 42 -2z"/>
<path d="M8224 3720 c-75 -113 -13 -206 84 -126 41 35 80 112 65 127 -15 15
-42 -4 -40 -29 3 -42 -82 -117 -105 -94 -18 18 2 84 33 113 29 27 29 28 10 39
-18 9 -24 5 -47 -30z"/>
<path d="M2806 3330 c7 -98 7 -100 -15 -100 -31 0 -100 -68 -107 -106 -5 -28
0 -35 55 -83 l61 -53 0 -56 c0 -63 -18 -243 -24 -250 -7 -7 -90 34 -105 52
-12 14 -12 22 -3 37 16 26 15 28 -10 24 -37 -8 -53 -30 -40 -59 15 -33 73 -78
117 -91 l36 -10 4 -87 c2 -48 -1 -90 -6 -93 -24 -15 14 -74 49 -75 14 0 17 26
4 34 -12 7 -24 169 -16 201 5 21 12 25 46 25 55 0 103 48 113 112 8 54 -11 98
-80 182 l-45 56 0 111 c0 110 0 110 23 104 33 -11 86 -44 96 -62 5 -10 15 -14
25 -10 14 5 14 10 5 26 -16 25 -87 71 -121 78 -26 5 -28 9 -28 53 0 79 -11
140 -26 140 -12 0 -13 -19 -8 -100z m3 -187 c-1 -32 -4 -68 -7 -81 l-7 -23
-34 26 c-19 13 -38 30 -42 37 -10 15 15 63 43 82 40 28 48 21 47 -41z m112
-316 c38 -73 -3 -157 -77 -157 l-37 0 6 43 c3 23 9 84 13 136 l7 95 34 -40
c19 -21 43 -56 54 -77z"/>
<path d="M13486 3100 c-27 -82 -52 -153 -56 -159 -3 -6 -31 -12 -61 -14 -65
-3 -68 -21 -4 -25 25 -2 45 -4 45 -5 0 -1 -11 -33 -25 -72 -28 -79 -31 -115
-12 -115 8 0 19 21 26 53 6 28 20 71 30 93 17 37 23 42 62 48 55 8 78 21 64
35 -7 7 -22 8 -45 1 -48 -14 -53 -13 -45 8 23 54 95 270 95 285 0 9 -6 17 -12
17 -8 0 -34 -64 -62 -150z"/>
<path d="M12180 3168 c0 -17 -16 -65 -35 -106 l-35 -74 -78 3 c-63 3 -77 1
-77 -11 0 -12 16 -16 68 -18 37 -2 67 -5 67 -8 0 -2 -16 -35 -36 -73 -36 -69
-42 -120 -16 -129 8 -2 12 7 12 28 0 19 17 63 41 106 43 78 45 79 138 86 19 2
36 9 39 16 3 9 -13 12 -57 12 -34 0 -61 1 -61 3 0 1 13 29 30 62 32 66 40 135
15 135 -10 0 -15 -10 -15 -32z"/>
<path d="M13087 3163 c-3 -5 -13 -40 -22 -78 -21 -92 -52 -158 -106 -223 -70
-86 -140 -117 -153 -70 -8 31 24 89 62 111 26 15 34 16 51 5 23 -14 34 -8 25
15 -16 42 -94 22 -138 -36 -36 -47 -43 -96 -19 -126 40 -49 111 -19 195 83 28
33 61 84 74 111 32 72 60 193 47 206 -6 6 -13 7 -16 2z"/>
<path d="M4053 3144 c-6 -17 6 -76 31 -139 8 -22 15 -57 16 -77 0 -37 0 -37
-30 -27 -24 9 -38 7 -75 -11 -79 -38 -115 -150 -60 -186 52 -34 128 5 169 88
31 61 34 127 11 233 -18 85 -18 96 -4 93 24 -6 18 19 -6 30 -34 16 -44 15 -52
-4z m47 -279 c-1 -22 -39 -91 -61 -111 -69 -62 -125 -23 -84 57 9 16 29 38 45
48 31 19 100 23 100 6z"/>
<path d="M10717 3103 c-3 -16 -12 -48 -21 -72 -13 -33 -14 -46 -5 -57 16 -19
29 -8 29 24 1 15 7 38 15 52 19 33 19 80 1 80 -7 0 -16 -12 -19 -27z"/>
<path d="M6320 3070 c-31 -49 -37 -90 -12 -98 7 -2 12 6 12 21 0 13 14 43 30
66 28 38 32 61 10 61 -4 0 -22 -22 -40 -50z"/>
<path d="M10790 3075 c-28 -45 -32 -98 -9 -103 14 -2 17 4 15 37 -1 22 0 38 3
36 7 -8 41 47 35 57 -10 16 -23 8 -44 -27z"/>
<path d="M6390 3036 c-28 -61 -31 -101 -6 -93 6 2 12 13 14 25 2 12 14 42 28
68 23 43 24 64 4 64 -5 0 -23 -29 -40 -64z"/>
<path d="M14485 3090 c-8 -13 4 -32 16 -25 12 8 12 35 0 35 -6 0 -13 -4 -16
-10z"/>
<path d="M9700 3048 c0 -16 19 -38 33 -38 4 0 7 10 5 22 -3 25 -38 39 -38 16z"/>
<path d="M10400 3024 c-8 -3 -32 -13 -53 -21 -64 -27 -60 -81 8 -123 20 -12
42 -34 50 -50 13 -25 13 -29 -5 -45 -11 -10 -42 -20 -70 -23 -46 -4 -52 -2
-57 17 -8 32 -35 27 -31 -6 2 -18 12 -32 30 -41 36 -17 118 1 153 34 43 40 26
77 -73 156 -29 23 -28 35 6 52 41 21 88 25 84 7 -4 -19 20 -33 30 -18 26 40
-19 78 -72 61z"/>
<path d="M6620 3002 c-19 -9 -55 -37 -80 -62 -31 -31 -52 -44 -67 -42 -17 3
-23 -2 -23 -16 0 -11 4 -22 9 -24 5 -1 -6 -48 -24 -103 -38 -110 -43 -145 -20
-145 13 0 65 139 65 176 0 19 16 18 24 -1 8 -21 65 -19 99 4 56 37 117 130
117 179 0 22 -30 52 -51 52 -8 0 -30 -8 -49 -18z m66 -27 c17 -42 -94 -180
-139 -173 -17 2 -23 11 -25 40 -3 31 3 43 35 75 34 34 95 72 116 73 4 0 10 -7
13 -15z"/>
<path d="M6828 2975 c-52 -39 -98 -120 -98 -172 0 -44 22 -43 39 2 7 19 22 40
33 46 21 11 21 12 3 26 -18 13 -17 15 23 56 37 37 44 40 62 29 25 -15 30 -15
30 2 0 16 -26 46 -39 46 -5 0 -29 -16 -53 -35z"/>
<path d="M5662 2969 c-23 -12 -51 -32 -61 -45 -10 -13 -23 -24 -29 -24 -6 0
-13 -18 -17 -40 -4 -22 -11 -43 -17 -46 -6 -4 -7 -29 -3 -63 5 -50 -2 -111
-21 -178 -5 -17 -2 -23 9 -23 19 0 47 84 47 138 0 27 3 33 16 28 45 -17 156
72 195 158 24 53 24 71 -1 96 -26 26 -64 25 -118 -1z m97 -23 c9 -11 9 -23 -3
-51 -33 -78 -104 -145 -156 -145 -23 0 -27 32 -10 89 22 78 134 149 169 107z"/>
<path d="M9381 2963 c-59 -31 -60 -44 -13 -114 60 -89 57 -109 -17 -112 -27
-1 -47 5 -61 18 -15 13 -24 15 -31 8 -26 -26 51 -69 105 -58 58 12 67 17 77
41 10 27 -4 63 -47 121 -32 42 -30 59 7 72 32 11 69 1 69 -19 0 -16 20 -11 27
6 15 40 -62 65 -116 37z"/>
<path d="M13649 2965 c-36 -20 -89 -105 -91 -147 -2 -48 17 -76 61 -89 29 -8
43 -8 60 0 29 16 18 29 -23 28 -73 -2 -87 47 -23 79 54 27 84 77 68 117 -12
31 -16 32 -52 12z m21 -55 c-11 -21 -70 -66 -70 -53 0 16 62 83 71 77 5 -3 5
-13 -1 -24z"/>
<path d="M3487 2896 c-3 -42 -13 -90 -21 -107 -19 -39 -20 -59 -3 -59 7 0 23
20 35 45 35 72 70 123 93 136 21 11 21 10 18 -87 -4 -96 -3 -99 19 -102 22 -3
33 22 12 30 -6 2 -5 30 1 76 9 62 8 77 -6 98 -21 32 -37 30 -81 -8 l-36 -32 3
39 c3 30 0 40 -12 43 -13 2 -17 -10 -22 -72z"/>
<path d="M4345 2951 c-43 -20 -72 -48 -100 -98 -16 -27 -17 -37 -7 -71 16 -54
59 -74 129 -63 52 8 123 52 123 77 0 20 -8 18 -46 -11 -43 -33 -110 -48 -144
-32 -41 20 -36 41 12 54 50 14 128 81 128 111 0 12 -10 28 -22 36 -27 19 -23
19 -73 -3z m65 -30 c0 -24 -108 -97 -131 -89 -17 6 32 69 64 83 37 16 67 19
67 6z"/>
<path d="M9147 2962 c-10 -4 -25 -19 -35 -32 -9 -14 -26 -25 -37 -25 -15 0
-20 -8 -21 -37 -2 -20 -8 -54 -13 -75 -14 -50 -14 -63 2 -63 6 0 27 35 46 78
49 112 57 122 91 122 16 0 32 -4 35 -10 9 -15 25 -12 25 4 0 28 -58 52 -93 38z"/>
<path d="M8636 2940 c-43 -15 -52 -23 -66 -61 -10 -24 -21 -64 -26 -89 l-8
-45 -7 50 c-4 28 -8 71 -8 96 -1 31 -6 49 -16 52 -22 9 -24 -2 -14 -93 12
-111 18 -136 33 -149 20 -17 33 5 51 82 23 99 31 113 79 128 22 7 46 12 53 11
18 -4 27 19 12 29 -18 11 -25 11 -83 -11z"/>
<path d="M14631 2944 c-19 -8 -41 -20 -49 -27 -9 -7 -24 -12 -35 -12 -14 0
-23 -9 -28 -28 -4 -16 -26 -48 -48 -72 -23 -25 -41 -49 -41 -55 0 -15 38 -12
47 4 20 34 110 128 140 147 62 38 74 7 29 -79 -18 -35 -21 -62 -6 -62 13 0 57
88 65 132 5 26 2 39 -10 51 -20 20 -21 20 -64 1z"/>
<path d="M7007 2922 c-8 -15 -22 -40 -31 -57 -19 -35 -21 -96 -4 -113 7 -7 26
-12 44 -12 49 0 104 65 104 123 0 51 -22 78 -69 83 -24 3 -33 -2 -44 -24z m52
-28 c-12 -14 5 -29 21 -19 21 13 9 -45 -16 -74 -33 -40 -74 -43 -74 -6 0 44
39 112 65 112 11 0 12 -4 4 -13z"/>
<path d="M7751 2932 c-57 -31 -60 -44 -18 -98 20 -25 34 -51 31 -55 -7 -12
-51 -11 -59 1 -10 17 -25 11 -25 -9 0 -30 60 -42 101 -21 27 15 24 41 -11 85
-16 21 -30 42 -30 46 0 16 62 41 87 34 20 -5 24 -2 21 12 -5 25 -55 28 -97 5z"/>
<path d="M8834 2938 c-29 -16 -84 -70 -84 -84 0 -6 -8 -15 -17 -18 -12 -5 -14
-9 -5 -18 7 -7 12 -25 12 -40 0 -39 40 -78 79 -78 47 0 111 29 111 50 0 17
-18 30 -41 30 -6 0 -9 -7 -7 -16 2 -11 -7 -20 -25 -26 -40 -14 -76 -2 -83 28
-8 31 -5 34 38 37 66 6 129 67 109 105 -14 27 -62 43 -87 30z m51 -53 c0 -12
-14 -27 -39 -41 -66 -37 -92 -6 -33 40 37 30 72 31 72 1z"/>
<path d="M13112 2913 c-61 -78 -84 -141 -66 -187 7 -18 76 -40 102 -32 9 2 30
7 45 10 53 12 24 30 -49 31 l-69 0 0 30 c0 25 5 30 33 36 66 13 107 77 86 133
-11 29 -50 18 -82 -21z m58 -13 c0 -22 -41 -70 -60 -70 -15 0 -13 8 18 51 30
43 42 49 42 19z"/>
<path d="M13833 2928 c-33 -37 -61 -91 -68 -130 -6 -31 -4 -36 10 -34 12 2 26
25 41 67 24 65 44 89 76 89 10 0 18 7 18 15 0 24 -53 19 -77 -7z"/>
<path d="M14891 2919 c-68 -34 -121 -94 -121 -136 0 -13 12 -36 26 -50 25 -25
29 -25 112 -20 103 7 162 22 162 42 0 18 0 18 -75 0 -81 -20 -159 -19 -179 1
-33 32 -15 61 42 70 55 8 93 26 122 56 24 26 25 32 4 52 -20 21 -21 21 -93
-15z m64 -19 c-10 -17 -65 -41 -83 -38 -12 3 -5 11 23 26 43 23 70 28 60 12z"/>
<path d="M7543 2928 c-12 -6 -34 -27 -48 -48 -59 -86 -36 -153 50 -149 57 3
63 29 7 29 -69 0 -84 41 -25 65 43 18 83 52 83 71 0 14 -27 44 -38 43 -4 0
-17 -5 -29 -11z m27 -38 c0 -5 -15 -17 -32 -26 l-33 -17 24 27 c25 27 41 33
41 16z"/>
<path d="M7947 2920 c-35 -28 -34 -46 8 -99 43 -54 42 -75 -3 -79 -24 -3 -32
1 -32 13 0 22 -24 14 -28 -10 -5 -23 14 -35 56 -35 80 0 93 45 37 124 -34 49
-35 49 -14 64 12 8 30 11 45 8 21 -6 25 -3 22 11 -5 27 -58 29 -91 3z"/>
<path d="M9973 2919 c6 -23 -22 -113 -48 -152 -12 -18 -13 -27 -5 -32 7 -5 42
25 88 74 43 45 82 81 88 81 19 0 23 -26 12 -63 -14 -46 -4 -87 22 -87 22 0 28
26 8 32 -10 4 -9 14 2 47 31 95 -26 132 -101 64 l-42 -38 7 28 c9 36 -1 67
-21 67 -11 0 -14 -6 -10 -21z"/>
<path d="M14170 2919 c-45 -35 -58 -40 -56 -21 2 25 -37 27 -59 2 -10 -11 -29
-20 -41 -20 -16 0 -29 -10 -40 -32 -9 -18 -23 -41 -32 -51 -12 -13 -13 -20 -4
-29 9 -9 26 1 73 47 46 46 58 54 48 32 -8 -18 -9 -31 -3 -37 14 -14 55 17 52
38 -2 12 3 16 15 14 11 -2 27 4 37 13 18 17 18 15 2 -35 -16 -52 -12 -78 17
-88 9 -3 11 5 6 29 -5 26 0 46 19 82 14 26 26 55 26 63 0 20 -31 17 -60 -7z"/>
<path d="M14365 2888 c-26 -57 -32 -88 -14 -88 11 0 59 101 59 125 0 31 -22
13 -45 -37z"/>
<path d="M12241 2882 c-35 -56 -37 -68 -15 -101 37 -52 154 6 154 77 0 37 -37
72 -77 72 -26 0 -36 -8 -62 -48z m107 -18 c2 -14 -8 -30 -28 -48 -60 -50 -101
-20 -54 41 20 26 32 33 52 31 19 -2 28 -10 30 -24z"/>
<path d="M7237 2895 c-64 -44 -84 -108 -46 -146 17 -17 28 -19 62 -14 23 4 57
13 75 21 40 16 44 39 5 30 -88 -21 -104 -23 -119 -11 -23 16 -11 47 33 85 25
23 42 30 58 26 27 -7 39 3 24 21 -17 20 -50 16 -92 -12z"/>
<path d="M3768 2887 c-34 -29 -48 -58 -50 -103 -2 -59 51 -91 105 -63 61 31
74 99 31 156 -29 39 -49 41 -86 10z m66 -36 c24 -27 17 -70 -17 -95 -21 -16
-32 -18 -45 -10 -26 16 -27 65 -2 97 25 32 41 34 64 8z"/>
<path d="M9770 2878 c-6 -13 -22 -38 -35 -57 -30 -41 -31 -52 -7 -82 35 -43
121 -20 143 39 8 20 7 39 -3 72 -13 42 -17 45 -51 48 -31 3 -39 -1 -47 -20z
m70 -44 c17 -44 -13 -84 -62 -84 -40 0 -38 42 3 81 38 36 47 36 59 3z"/>
<path d="M5288 2880 c-79 -6 -116 -23 -89 -39 7 -5 29 -5 50 0 20 5 57 9 82 9
31 0 49 5 52 14 6 14 -1 27 -12 24 -3 0 -41 -4 -83 -8z"/>
<path d="M9623 2878 c-4 -7 -24 -48 -45 -91 -35 -73 -40 -97 -19 -97 10 0 78
139 87 176 7 25 -9 33 -23 12z"/>
<path d="M11410 2847 c0 -4 12 -12 27 -18 36 -13 205 1 211 18 3 10 -25 12
-117 10 -67 -1 -121 -5 -121 -10z"/>
<path d="M8123 2745 c-7 -19 -4 -22 22 -27 14 -2 21 3 23 20 3 17 -2 22 -18
22 -11 0 -23 -7 -27 -15z"/>
<path d="M11754 2268 c-41 -36 -57 -68 -89 -178 -22 -74 -22 -75 -65 -85 -63
-15 -67 -40 -6 -32 42 6 47 5 42 -11 -7 -24 -26 -133 -26 -149 0 -7 6 -13 13
-13 9 0 19 32 31 95 14 74 22 95 35 96 41 1 83 7 88 12 15 16 -12 26 -52 20
-30 -4 -45 -2 -45 5 0 28 52 172 71 196 31 39 60 52 71 32 13 -24 28 -20 28 8
0 23 -16 36 -45 36 -8 0 -31 -15 -51 -32z"/>
<path d="M10145 2233 c-33 -119 -68 -220 -96 -275 -28 -55 -28 -60 -15 -92 8
-19 25 -42 39 -51 81 -53 203 96 166 203 -12 36 -41 48 -90 38 -19 -3 -28 -2
-24 4 3 6 18 49 31 98 14 48 30 91 35 97 15 16 10 35 -10 35 -15 0 -23 -13
-36 -57z m65 -229 c29 -75 -63 -196 -123 -162 -20 11 -16 81 7 125 32 64 98
85 116 37z"/>
<path d="M13627 2243 c-3 -5 -15 -56 -27 -113 -24 -115 -73 -232 -114 -270
-27 -24 -28 -25 -42 -6 -17 23 -11 49 22 93 17 22 29 30 43 26 15 -4 19 0 17
14 -7 45 -72 10 -107 -59 -26 -52 -19 -92 22 -108 24 -10 33 -10 54 4 51 33
122 197 140 321 4 28 12 56 18 63 7 9 6 17 -5 28 -9 9 -18 12 -21 7z"/>
<path d="M2436 2228 c-2 -7 -9 -46 -15 -87 -19 -120 -97 -251 -151 -251 -25 0
-32 25 -19 75 16 65 42 88 90 80 31 -5 39 -4 39 8 0 8 -14 20 -32 26 -60 21
-118 -38 -134 -138 -5 -34 -3 -43 19 -65 23 -22 29 -24 56 -15 80 28 171 205
171 334 0 34 -17 57 -24 33z"/>
<path d="M6240 2148 c0 -78 -4 -102 -26 -148 -34 -75 -84 -133 -133 -154 -69
-32 -95 -5 -63 68 22 49 75 87 95 67 17 -17 27 -13 27 9 0 42 -78 32 -122 -17
-22 -24 -48 -86 -48 -113 0 -28 35 -60 65 -60 66 0 151 74 200 173 26 54 49
178 40 223 -2 10 -4 25 -4 32 -1 6 -8 12 -16 12 -12 0 -15 -17 -15 -92z"/>
<path d="M4387 2213 c-7 -11 11 -53 22 -53 10 0 22 40 15 52 -6 10 -31 11 -37
1z"/>
<path d="M8190 2201 c0 -11 4 -22 9 -25 12 -8 34 21 26 34 -11 17 -35 11 -35
-9z"/>
<path d="M3539 2183 c-11 -27 -33 -106 -48 -168 -10 -40 -39 -95 -51 -95 -20
0 -30 42 -30 119 0 65 -3 81 -15 81 -12 0 -15 -17 -15 -89 0 -74 3 -92 21
-115 24 -30 50 -33 71 -8 47 54 125 267 106 290 -16 19 -28 14 -39 -15z"/>
<path d="M12446 2202 c-3 -5 -12 -44 -21 -88 -19 -93 -44 -174 -54 -174 -3 0
-14 9 -24 20 -25 29 -46 25 -88 -20 -64 -68 -63 -150 3 -150 25 0 41 10 75 46
56 61 89 130 108 229 9 44 21 90 27 102 14 29 -9 62 -26 35z m-84 -276 c17 11
-41 -66 -67 -88 -44 -38 -67 -11 -39 47 9 19 26 42 37 50 18 13 23 13 38 -1
11 -10 23 -13 31 -8z"/>
<path d="M3660 2109 c-64 -54 -79 -126 -37 -175 19 -21 33 -27 67 -28 41 -1
44 1 45 24 0 21 -4 25 -25 22 -14 -1 -27 -7 -29 -13 -2 -6 -14 0 -27 12 l-23
22 42 27 c47 30 70 66 65 101 -4 32 -45 36 -78 8z m50 -23 c0 -12 -63 -76 -75
-76 -13 0 -2 23 26 55 33 37 49 44 49 21z"/>
<path d="M3884 2073 c-14 -32 -34 -75 -44 -95 -22 -41 -26 -73 -10 -83 10 -6
40 53 74 148 15 38 22 47 42 47 27 0 33 24 8 34 -34 13 -46 4 -70 -51z"/>
<path d="M7201 2050 c-17 -43 -31 -83 -31 -86 0 -21 -64 -144 -71 -137 -5 5
-12 48 -15 96 -7 93 -23 131 -45 110 -8 -8 -9 -16 -2 -25 6 -7 13 -51 17 -98
7 -86 24 -130 51 -130 18 0 60 83 113 226 48 126 47 124 28 124 -9 0 -27 -32
-45 -80z"/>
<path d="M14460 2104 c0 -31 23 -28 28 4 2 15 -2 22 -12 22 -11 0 -16 -9 -16
-26z"/>
<path d="M1840 2099 c-19 -12 -46 -33 -59 -48 -16 -16 -26 -21 -29 -13 -10 31
-32 5 -65 -81 -20 -51 -37 -100 -37 -110 0 -34 26 -16 60 41 18 31 42 71 52
89 21 35 97 107 105 99 3 -3 -2 -24 -12 -48 -36 -89 -45 -127 -33 -153 11 -25
48 -41 59 -24 3 6 10 10 15 10 5 -1 9 5 9 12 0 7 -10 11 -27 9 -25 -3 -28 0
-28 24 0 15 14 62 32 105 43 105 30 132 -42 88z"/>
<path d="M4133 2106 c-44 -20 -49 -45 -18 -106 19 -38 23 -55 16 -69 -12 -21
-57 -41 -86 -38 -12 1 -20 -4 -20 -13 0 -25 56 -24 95 2 52 35 59 66 27 126
-31 60 -25 71 53 81 28 3 52 11 53 16 3 16 -85 16 -120 1z"/>
<path d="M2534 2068 c-44 -39 -73 -98 -66 -134 7 -38 58 -66 107 -60 55 6 80
13 104 26 28 15 27 34 -1 26 -124 -35 -178 -28 -178 24 0 50 83 140 107 116 8
-8 -30 -46 -77 -78 -18 -11 -22 -19 -14 -27 7 -8 25 -1 65 27 48 33 54 42 54
72 0 32 -3 35 -32 38 -24 2 -40 -5 -69 -30z"/>
<path d="M9905 2079 c-11 -7 -41 -32 -67 -57 l-48 -46 0 36 c0 42 -16 52 -53
33 -14 -7 -30 -9 -38 -4 -18 11 -36 -6 -50 -49 -6 -20 -22 -58 -35 -84 -13
-26 -24 -56 -24 -68 0 -40 26 -19 53 43 27 62 100 148 114 134 3 -4 -1 -31
-10 -61 -9 -29 -17 -58 -17 -65 0 -26 31 -3 87 63 57 69 117 115 131 101 4 -3
-5 -41 -20 -82 -15 -42 -25 -80 -22 -85 9 -15 34 -8 34 10 0 9 9 41 21 71 27
71 23 115 -11 118 -14 2 -34 -2 -45 -8z"/>
<path d="M10858 2074 c-45 -24 -49 -42 -22 -109 25 -62 25 -109 -1 -118 -24
-10 -80 28 -80 54 0 31 -29 32 -33 1 -4 -27 20 -57 60 -78 36 -19 62 -18 81 4
29 32 31 77 6 138 l-23 57 23 18 c27 22 52 24 69 7 10 -10 15 -10 22 2 22 35
-51 52 -102 24z"/>
<path d="M2090 2072 c0 -5 14 -18 30 -30 54 -40 37 -103 -38 -142 -28 -14 -72
-5 -72 15 0 26 18 63 49 97 28 32 31 48 10 48 -26 0 -89 -102 -89 -144 0 -29
33 -56 70 -56 32 0 105 46 119 74 22 45 17 91 -14 121 -23 24 -65 34 -65 17z"/>
<path d="M7635 2070 c-3 -5 -12 -7 -19 -4 -15 6 -15 7 -46 -106 -24 -88 -25
-110 -6 -110 13 0 55 94 81 178 7 25 13 26 49 12 21 -7 26 -6 26 5 0 27 -71
48 -85 25z"/>
<path d="M7908 2064 c-37 -20 -45 -57 -24 -113 16 -43 16 -46 -1 -58 -22 -17
-34 -16 -61 3 -24 17 -44 11 -36 -10 8 -22 59 -39 93 -31 47 10 57 29 42 78
-25 83 -25 84 3 103 22 14 31 15 53 5 35 -16 52 1 22 23 -29 20 -55 20 -91 0z"/>
<path d="M14868 2064 c-38 -20 -36 -53 8 -126 42 -69 39 -88 -11 -88 -43 0
-75 15 -75 35 0 16 -25 20 -34 6 -20 -32 43 -73 111 -73 82 0 94 40 38 132
-19 32 -35 63 -35 69 0 19 52 34 72 22 24 -15 28 -14 28 8 0 33 -55 41 -102
15z"/>
<path d="M7382 2053 c-49 -24 -84 -75 -90 -131 -4 -41 -1 -51 23 -75 29 -29
36 -31 100 -28 59 2 85 10 85 25 0 10 -16 12 -70 8 -58 -4 -74 -2 -90 13 -35
31 -24 48 58 90 62 32 78 45 80 66 2 19 -3 28 -23 37 -33 15 -33 15 -73 -5z
m62 -34 c-6 -10 -98 -59 -110 -59 -12 0 30 42 60 61 28 17 61 16 50 -2z"/>
<path d="M9262 2039 l-43 -31 7 26 c4 18 2 26 -7 26 -20 0 -95 -168 -82 -181
7 -7 20 3 42 32 29 40 120 123 127 116 2 -2 -8 -31 -22 -66 -14 -34 -24 -69
-22 -78 4 -22 28 -29 28 -8 0 9 14 50 30 92 17 41 30 81 30 89 0 23 -42 15
-88 -17z"/>
<path d="M10640 2053 c-13 -10 -33 -17 -43 -18 -14 0 -25 -20 -48 -90 -33
-102 -34 -115 -15 -115 7 0 30 37 50 81 42 91 81 138 99 120 14 -14 37 -14 37
0 0 13 -30 38 -45 39 -6 0 -22 -8 -35 -17z"/>
<path d="M10376 2050 c-37 -12 -64 -37 -87 -82 -38 -73 5 -128 98 -128 60 0
93 13 93 36 0 12 -5 14 -17 8 -32 -14 -110 -16 -133 -4 -21 12 -20 13 28 41
74 42 103 94 70 127 -13 13 -12 13 -52 2z m34 -38 c0 -21 -62 -72 -88 -72 -17
0 2 38 32 62 22 18 56 24 56 10z"/>
<path d="M14569 2032 c-108 -69 -129 -146 -49 -187 42 -22 122 -20 151 4 28
22 18 41 -11 23 -32 -20 -104 -15 -134 9 -32 25 -37 55 -6 39 15 -8 31 -6 70
11 74 32 100 78 64 113 -21 22 -33 20 -85 -12z m71 -19 c-1 -25 -62 -63 -101
-63 -21 0 -21 1 -5 19 30 33 106 64 106 44z"/>
<path d="M12880 2039 c-13 -6 -39 -21 -57 -35 -20 -15 -34 -20 -38 -14 -14 22
-26 2 -59 -92 -19 -53 -48 -123 -65 -154 -34 -64 -38 -84 -16 -84 8 0 30 33
52 79 35 72 40 79 63 74 18 -3 40 6 75 29 85 57 137 155 100 191 -19 19 -21
19 -55 6z m40 -34 c0 -56 -133 -186 -161 -158 -12 12 56 113 94 141 29 20 67
30 67 17z"/>
<path d="M13715 2036 c-73 -33 -120 -126 -89 -174 20 -30 53 -42 119 -42 53 0
54 1 51 28 -1 21 -6 26 -21 24 -11 -2 -21 -8 -23 -13 -7 -19 -102 -2 -102 19
0 4 15 13 33 20 41 15 103 66 109 90 7 27 -9 62 -29 62 -10 -1 -31 -7 -48 -14z
m24 -68 c-34 -27 -80 -50 -86 -44 -10 10 41 68 71 81 27 12 31 11 35 -2 2 -9
-7 -25 -20 -35z"/>
<path d="M4456 2019 c-75 -59 -72 -174 4 -180 41 -2 47 0 79 27 43 36 44 96 3
142 -34 37 -50 40 -86 11z m62 -35 c15 -10 22 -25 22 -49 0 -39 -28 -65 -71
-65 -43 0 -52 44 -19 98 22 36 35 39 68 16z"/>
<path d="M9411 1991 c-23 -55 -28 -120 -9 -139 19 -19 54 -14 86 13 32 26 72
99 72 128 0 32 -27 17 -38 -21 -13 -42 -74 -108 -91 -98 -17 11 -13 56 9 105
24 51 25 61 6 61 -7 0 -23 -22 -35 -49z"/>
<path d="M12532 2028 c-29 -14 -102 -123 -102 -153 0 -39 32 -57 100 -56 34 0
65 3 71 6 24 16 3 24 -57 24 -36 -1 -71 4 -76 9 -14 14 0 52 17 46 19 -8 70
24 85 51 13 25 10 77 -5 81 -5 1 -20 -2 -33 -8z m7 -64 c-7 -8 -21 -20 -32
-26 -23 -12 -17 3 17 40 22 25 36 12 15 -14z"/>
<path d="M13065 2024 c-96 -50 -137 -153 -84 -210 16 -17 33 -24 60 -24 45 0
89 18 89 37 0 15 -26 18 -35 3 -9 -14 -78 -13 -93 2 -16 16 -15 58 1 59 6 0
25 2 41 3 33 2 96 65 96 95 0 52 -22 63 -75 35z m45 -30 c0 -25 -56 -74 -84
-74 -14 0 -26 4 -26 9 0 15 73 69 108 80 1 1 2 -6 2 -15z"/>
<path d="M13925 2030 c-3 -5 -4 -14 -1 -19 3 -4 -15 -36 -39 -71 -24 -35 -42
-67 -39 -71 12 -20 34 -6 58 35 44 76 136 136 136 90 0 -9 -14 -41 -31 -71
-31 -54 -33 -83 -4 -83 9 0 15 9 15 21 0 12 9 37 21 55 29 48 41 95 28 111
-14 16 -71 17 -87 1 -9 -9 -15 -9 -24 0 -15 15 -25 15 -33 2z"/>
<path d="M4795 2018 c-11 -6 -30 -20 -42 -31 l-23 -20 0 21 c0 12 -6 22 -12
21 -17 0 -81 -135 -73 -150 4 -6 37 19 80 60 40 39 78 71 84 71 7 0 11 -20 11
-49 0 -57 26 -99 55 -87 17 6 17 8 -4 29 -16 18 -21 36 -21 73 0 28 -5 55 -12
62 -14 14 -17 14 -43 0z"/>
<path d="M5860 2004 c-16 -14 -30 -21 -30 -15 0 28 -23 6 -45 -45 -46 -105
-29 -112 44 -19 28 36 56 65 61 65 12 0 2 -79 -13 -98 -13 -16 6 -37 26 -29
16 6 32 112 22 140 -11 27 -33 27 -65 1z"/>
<path d="M8443 1950 c-27 -51 -39 -81 -32 -86 6 -3 42 26 80 65 77 79 105 91
93 39 -12 -47 -11 -101 1 -105 6 -2 16 28 24 67 10 56 10 74 1 85 -17 21 -47
19 -82 -6 l-30 -22 7 22 c4 14 2 21 -7 21 -7 0 -32 -36 -55 -80z"/>
<path d="M5630 2001 c-129 -69 -150 -200 -25 -158 41 14 43 14 48 -5 7 -26 33
-17 30 10 -2 12 8 45 22 74 22 47 23 54 9 69 -23 26 -50 29 -84 10z m54 -29
c7 -12 -30 -69 -56 -85 -41 -26 -67 -30 -75 -11 -5 13 6 29 41 61 45 40 78 53
90 35z"/>
<path d="M4299 1963 c-11 -26 -19 -56 -17 -67 4 -26 34 -28 31 -2 0 10 7 39
18 63 23 54 23 53 4 53 -9 0 -24 -20 -36 -47z"/>
<path d="M8077 1939 c-34 -65 -39 -89 -18 -89 9 0 81 134 81 150 0 5 -6 10
-13 10 -7 0 -29 -32 -50 -71z"/>
<path d="M8248 1993 c-25 -29 -48 -80 -48 -108 0 -37 35 -68 68 -60 91 21 125
132 52 170 -38 19 -53 19 -72 -2z m57 -40 c28 3 31 -33 4 -67 -26 -33 -72 -34
-77 -1 -3 25 37 93 47 77 3 -6 15 -10 26 -9z"/>
<path d="M11427 1992 c-45 -50 -61 -146 -29 -175 23 -21 37 -21 73 0 36 21 53
63 46 109 -12 74 -55 105 -90 66z m53 -48 c16 -42 12 -71 -16 -93 -50 -39 -69
0 -38 79 19 46 40 52 54 14z"/>
<path d="M14190 1999 c-70 -28 -101 -98 -61 -138 30 -30 151 -40 151 -12 0 5
-26 11 -57 15 -31 4 -63 12 -70 18 -39 32 17 93 79 85 58 -8 65 25 8 37 -14 3
-36 1 -50 -5z"/>
<path d="M13221 1966 c-7 -8 -13 -24 -14 -35 -1 -12 -4 -21 -8 -21 -4 0 -12
-12 -17 -27 -5 -16 -13 -36 -17 -45 -15 -38 22 -16 78 47 79 88 114 88 63 1
-27 -46 -35 -79 -21 -85 15 -6 77 117 73 147 -4 34 -44 41 -83 16 -18 -12 -25
-13 -23 -4 4 19 -17 23 -31 6z"/>
<path d="M14385 1937 c-22 -54 -28 -84 -16 -92 7 -4 17 9 26 32 9 21 20 46 25
55 14 25 12 38 -6 38 -8 0 -21 -15 -29 -33z"/>
</g>
</svg>
