<?xml version="1.0" standalone="no"?>
<!DOCTYPE svg PUBLIC "-//W3C//DTD SVG 20010904//EN"
 "http://www.w3.org/TR/2001/REC-SVG-20010904/DTD/svg10.dtd">
<svg version="1.0" xmlns="http://www.w3.org/2000/svg"
 width="1618.000000pt" height="1214.000000pt" viewBox="0 0 1618.000000 1214.000000"
 preserveAspectRatio="xMidYMid meet">

<g transform="translate(0.000000,1214.000000) scale(0.100000,-0.100000)"
fill="#000000" stroke="none">
<path d="M9595 11749 c-126 -51 -133 -117 -25 -234 33 -35 62 -75 66 -89 9
-38 -23 -93 -71 -121 -77 -45 -142 -23 -129 43 7 36 -9 44 -26 13 -17 -32 -12
-60 16 -88 22 -22 32 -25 75 -21 62 6 122 46 149 98 35 68 23 107 -54 178 -25
23 -46 47 -46 52 0 6 -5 10 -12 10 -6 0 -9 3 -6 6 4 3 3 18 -2 34 -12 40 9 65
77 90 44 16 62 19 80 11 20 -9 21 -14 13 -36 -14 -37 -13 -78 3 -73 6 3 21 22
32 44 11 21 23 41 28 42 13 6 7 32 -8 32 -24 0 -29 2 -50 16 -26 19 -50 17
-110 -7z"/>
<path d="M9898 11724 c-4 -3 -4 -21 -1 -40 4 -26 -5 -57 -48 -148 -50 -105
-56 -115 -84 -118 -33 -3 -37 -20 -6 -28 20 -5 20 -5 -1 -53 -11 -26 -18 -50
-15 -54 14 -13 33 8 51 56 l18 51 47 0 c52 0 77 12 66 30 -5 8 -21 10 -51 5
-24 -3 -44 -4 -44 -2 0 2 23 52 51 111 39 85 49 116 47 148 -3 39 -16 57 -30
42z"/>
<path d="M2369 11690 c-163 -11 -219 -20 -226 -36 -9 -23 -1 -24 63 -13 32 5
118 14 189 19 169 13 168 13 173 28 4 13 -11 14 -199 2z"/>
<path d="M10850 11652 c-42 -15 -119 -98 -148 -162 -47 -99 -38 -210 17 -240
30 -16 81 -13 81 5 0 10 -11 15 -35 15 -115 0 -65 247 67 334 14 9 32 14 41
11 8 -4 18 -2 21 3 8 13 -26 40 -44 34z"/>
<path d="M12510 11595 c-18 -45 -26 -54 -41 -50 -31 10 -87 -25 -120 -73 -26
-39 -29 -50 -23 -86 3 -22 13 -51 21 -63 14 -21 12 -27 -21 -87 -20 -35 -36
-72 -36 -81 0 -23 34 -15 39 10 7 36 63 125 74 118 18 -11 77 -4 109 13 37 19
68 70 68 112 0 24 -9 42 -36 69 l-36 35 26 58 c30 65 32 80 12 80 -7 0 -24
-25 -36 -55z m-71 -109 c9 -11 5 -28 -21 -80 -34 -70 -43 -78 -52 -46 -3 11
-8 28 -11 38 -5 19 47 102 64 102 5 0 14 -6 20 -14z m109 -70 c6 -29 -19 -76
-49 -91 -25 -13 -89 -21 -89 -11 0 2 16 38 36 80 l36 76 32 -18 c17 -10 32
-26 34 -36z"/>
<path d="M4456 11615 c-9 -14 -13 -25 -9 -25 4 0 -2 -7 -13 -15 -10 -8 -15
-15 -10 -15 5 0 4 -6 -2 -12 -5 -7 -17 -39 -26 -70 -9 -32 -22 -58 -30 -58 -7
0 -13 -13 -13 -32 0 -18 -4 -50 -8 -70 -6 -29 -4 -38 6 -38 8 0 21 24 31 59
17 57 19 59 56 66 20 3 44 10 52 15 25 16 -7 30 -44 19 -17 -5 -31 -9 -32 -9
-1 0 5 19 13 42 8 24 15 52 16 63 1 11 12 31 24 45 23 25 31 60 14 60 -5 0
-16 -11 -25 -25z"/>
<path d="M9149 11598 c-12 -24 -35 -62 -51 -85 -27 -41 -31 -43 -78 -43 -38 0
-50 -4 -50 -15 0 -11 11 -15 39 -15 l40 0 -15 -35 c-18 -44 -18 -89 0 -104 21
-18 80 -10 84 11 3 14 -3 16 -32 11 -34 -5 -36 -4 -36 20 0 45 30 95 61 102
16 4 33 4 38 1 12 -7 41 3 41 15 0 4 -16 11 -35 15 -20 3 -35 9 -33 13 13 28
72 122 79 127 16 9 10 24 -11 24 -13 0 -27 -14 -41 -42z"/>
<path d="M2360 11628 c0 -2 -16 -48 -36 -103 -62 -176 -76 -225 -70 -241 9
-22 23 -9 31 29 4 17 29 92 56 165 27 73 47 137 44 143 -5 8 -25 13 -25 7z"/>
<path d="M3768 11613 c-9 -10 -35 -63 -57 -118 -23 -55 -49 -111 -59 -125 -25
-34 -86 -74 -90 -60 -6 18 27 60 64 82 19 11 34 26 34 34 0 19 -7 18 -57 -11
-91 -54 -101 -170 -11 -132 68 29 97 70 157 222 18 43 37 85 43 93 18 21 -5
36 -24 15z"/>
<path d="M10985 11620 c-4 -6 4 -20 18 -30 55 -43 79 -140 57 -221 -10 -36
-83 -115 -143 -154 -17 -11 -24 -22 -19 -27 26 -26 173 104 191 168 19 67 13
130 -15 187 -40 80 -71 106 -89 77z"/>
<path d="M13340 11598 c-13 -23 -16 -36 -9 -43 7 -7 15 -4 24 10 8 11 19 25
25 32 15 18 12 33 -5 33 -8 0 -24 -15 -35 -32z"/>
<path d="M5942 11534 c-39 -79 -45 -85 -70 -82 -33 4 -39 -25 -6 -30 l22 -3
-19 -60 c-32 -104 -22 -154 29 -134 16 6 16 7 0 16 -23 13 -23 32 2 113 19 61
23 66 55 72 40 7 54 21 31 30 -9 3 -13 11 -9 18 3 6 -3 2 -15 -8 -12 -11 -22
-16 -22 -12 0 13 63 131 71 134 16 7 9 32 -9 32 -12 0 -31 -26 -60 -86z"/>
<path d="M6558 11540 c-32 -69 -41 -80 -69 -88 -41 -10 -51 -32 -15 -32 31 0
32 -6 6 -90 -24 -78 -25 -110 -5 -110 8 0 15 8 15 18 0 16 47 182 52 187 2 2
50 8 107 14 58 6 107 14 110 16 2 3 0 10 -5 15 -7 7 -39 7 -99 1 -49 -6 -90
-9 -92 -7 -2 2 12 35 30 74 19 39 32 73 29 76 -15 16 -30 -2 -64 -74z"/>
<path d="M14553 11583 c-19 -36 -22 -38 -71 -38 -44 0 -55 -4 -86 -34 -19 -18
-44 -56 -56 -82 -18 -43 -19 -55 -9 -92 6 -23 17 -49 25 -58 12 -13 7 -24 -37
-87 -49 -70 -59 -107 -29 -107 8 0 16 9 18 20 2 11 25 50 50 88 38 56 50 67
74 67 16 0 43 6 61 14 77 32 104 105 72 194 -18 48 -17 50 3 78 11 16 22 38
24 48 6 34 -19 27 -39 -11z m-105 -178 c-29 -58 -57 -104 -63 -102 -5 2 -15
19 -21 38 -9 27 -9 41 2 67 25 60 52 91 87 95 17 2 35 5 39 5 5 1 -16 -45 -44
-103z m99 -17 c-3 -22 -13 -48 -22 -58 -18 -20 -78 -44 -94 -38 -4 2 14 45 42
97 l50 94 15 -28 c9 -18 12 -43 9 -67z"/>
<path d="M14890 11606 c-8 -8 -28 -27 -44 -41 -24 -23 -28 -32 -23 -65 4 -35
2 -40 -38 -70 -62 -46 -82 -87 -67 -138 14 -45 42 -62 104 -62 49 0 103 31
123 71 20 38 10 104 -20 127 l-22 17 44 33 c51 39 54 59 12 107 -34 38 -47 42
-69 21z m57 -56 c11 -16 10 -22 -7 -38 -11 -10 -32 -25 -46 -32 -22 -12 -27
-12 -34 0 -16 26 -11 48 16 69 33 26 56 27 71 1z m-78 -137 c5 -10 13 -15 17
-11 14 15 34 -15 34 -51 0 -49 -34 -82 -92 -88 -104 -11 -113 88 -14 148 38
23 43 23 55 2z"/>
<path d="M14158 11560 c-41 -22 -52 -35 -43 -50 4 -6 23 0 49 15 44 26 86 33
86 15 0 -32 -123 -170 -151 -170 -22 0 -109 -68 -109 -85 0 -22 26 -18 74 10
l43 25 23 -25 c27 -29 49 -31 90 -10 32 16 38 33 18 53 -18 18 -27 15 -38 -13
-11 -30 -21 -31 -45 -5 -17 19 -17 21 21 65 72 84 114 140 114 152 0 43 -71
55 -132 23z"/>
<path d="M14702 11568 c-5 -7 -17 -40 -27 -73 -9 -33 -30 -93 -47 -133 -31
-75 -31 -106 -1 -100 12 2 18 13 19 33 0 27 42 153 79 241 17 40 1 61 -23 32z"/>
<path d="M13302 11530 c-7 -11 -20 -20 -31 -20 -28 0 -100 -57 -117 -93 -13
-27 -14 -41 -5 -75 7 -22 16 -44 21 -47 5 -3 -9 -43 -31 -89 -41 -89 -49 -126
-24 -126 8 0 15 3 16 8 2 26 11 50 37 106 l30 64 42 -9 c84 -19 148 42 150
143 0 39 -4 50 -26 67 -15 12 -33 21 -40 21 -18 0 -18 9 2 31 9 10 13 23 9 28
-9 16 -19 13 -33 -9z m-75 -146 l-35 -69 -10 35 c-11 41 -2 65 37 97 42 35 45
11 8 -63z m109 33 c22 -19 25 -28 20 -55 -13 -56 -42 -82 -92 -82 -24 0 -44 4
-44 10 0 17 71 150 80 150 5 0 21 -10 36 -23z"/>
<path d="M7902 11518 c7 -19 38 -22 38 -4 0 10 -9 16 -21 16 -12 0 -19 -5 -17
-12z"/>
<path d="M12675 11516 c-17 -7 -36 -20 -44 -29 -11 -14 -11 -18 3 -23 9 -4 24
0 34 9 26 23 66 26 70 5 4 -20 -98 -152 -131 -169 -33 -17 -67 -51 -67 -66 0
-21 25 -15 66 18 l38 30 12 -33 c8 -24 17 -34 35 -36 32 -3 74 30 66 52 -6 16
-9 16 -34 -4 l-27 -21 -13 37 c-12 35 -12 38 25 83 76 93 82 111 53 140 -24
24 -44 26 -86 7z"/>
<path d="M3064 11510 c-11 -5 -32 -21 -45 -37 -13 -15 -31 -28 -39 -28 -9 0
-15 -11 -17 -27 -1 -14 -9 -40 -17 -57 -20 -38 -20 -51 -1 -51 9 0 26 23 40
53 34 69 80 119 107 115 12 -2 23 2 25 9 6 17 -29 32 -53 23z"/>
<path d="M10174 11499 c-10 -17 13 -36 27 -22 12 12 4 33 -11 33 -5 0 -12 -5
-16 -11z"/>
<path d="M13498 11484 c-16 -8 -28 -23 -28 -34 0 -24 8 -25 29 -6 9 8 25 16
36 18 16 2 21 -3 23 -29 3 -27 -5 -40 -45 -80 -26 -27 -65 -64 -86 -81 -24
-20 -37 -39 -33 -47 4 -13 12 -12 49 6 l44 22 31 -23 c30 -22 32 -22 56 -6 15
9 26 25 26 36 0 24 -13 26 -30 5 -17 -21 -32 -18 -53 10 -17 24 -17 25 8 41
33 21 75 93 75 127 0 52 -48 71 -102 41z"/>
<path d="M4280 11461 c0 -12 6 -21 16 -21 9 0 14 7 12 17 -5 25 -28 28 -28 4z"/>
<path d="M3200 11448 c-32 -12 -68 -45 -86 -80 -27 -52 21 -109 80 -94 14 3
26 13 26 22 0 11 -6 13 -20 9 -26 -8 -60 3 -60 20 0 7 11 15 23 19 42 10 77
45 77 76 0 35 -8 40 -40 28z m10 -38 c0 -5 -10 -15 -22 -21 -23 -12 -23 -12
-4 10 21 23 26 26 26 11z"/>
<path d="M9239 11453 c-1 -5 -1 -12 0 -16 1 -5 -12 -24 -29 -43 -47 -55 -36
-94 27 -94 49 0 85 38 76 82 -7 40 -70 99 -74 71z m41 -83 c0 -23 -5 -31 -26
-36 -39 -10 -48 8 -20 39 32 35 46 34 46 -3z"/>
<path d="M5274 11406 c-51 -51 -58 -90 -21 -124 25 -24 72 -44 81 -35 12 12 6
22 -16 29 -33 9 -58 34 -58 57 0 11 16 35 36 53 27 26 41 33 60 28 17 -4 24
-2 24 9 0 15 -20 27 -47 27 -9 0 -35 -20 -59 -44z"/>
<path d="M2406 11408 c-38 -44 -49 -74 -35 -100 9 -17 17 -19 47 -14 67 10
107 90 66 130 -24 24 -47 19 -78 -16z m64 -28 c0 -18 -43 -60 -61 -60 -18 0
-8 35 18 62 28 29 43 29 43 -2z"/>
<path d="M9995 11421 c-16 -10 -37 -27 -45 -37 -23 -29 -51 -94 -45 -104 10
-17 34 2 45 35 15 45 72 95 99 88 23 -6 27 7 9 25 -16 16 -28 15 -63 -7z"/>
<path d="M4588 11414 c-33 -18 -36 -46 -8 -81 24 -31 25 -49 4 -57 -22 -8 -22
-8 -26 11 -3 15 -4 15 -21 -1 -25 -25 -17 -40 22 -44 24 -3 40 3 57 19 27 25
25 47 -7 88 -22 28 -18 37 21 46 35 8 41 35 8 35 -13 -1 -35 -8 -50 -16z"/>
<path d="M7430 11389 c-26 -43 -97 -99 -124 -99 -9 0 -16 -7 -16 -15 0 -22 37
-19 79 7 20 12 33 18 29 13 -10 -11 10 -45 26 -45 7 0 25 9 39 20 32 25 34 25
33 -2 -1 -14 6 -24 17 -26 12 -3 17 3 17 21 0 14 7 41 16 62 25 62 3 67 -52
12 -25 -26 -50 -47 -56 -47 -12 0 -1 34 23 74 11 17 19 39 19 49 0 30 -24 18
-50 -24z"/>
<path d="M10400 11408 c-41 -28 -55 -50 -47 -72 7 -19 58 -22 89 -5 19 10 20
9 15 -12 -4 -13 -7 -34 -7 -46 0 -19 -6 -23 -31 -23 -65 0 -95 -41 -78 -104
14 -52 40 -62 78 -30 16 14 36 41 43 60 10 28 16 33 33 27 31 -10 58 -9 62 3
2 6 -15 16 -37 23 -46 14 -48 21 -25 116 13 55 13 61 -2 73 -25 18 -56 15 -93
-10z m60 -18 c0 -15 -47 -42 -67 -38 -14 3 -11 9 17 26 39 24 50 27 50 12z
m-20 -181 c0 -21 -42 -80 -54 -76 -16 5 -20 68 -4 78 19 13 58 11 58 -2z"/>
<path d="M3343 11400 c-37 -22 -56 -52 -47 -74 8 -21 39 -29 63 -17 29 16 39
13 43 -11 2 -17 11 -24 31 -26 28 -3 38 15 12 24 -17 7 -19 41 -5 79 9 23 7
27 -16 35 -35 14 -45 13 -81 -10z m37 -35 c-7 -9 -22 -21 -32 -26 -30 -16 -22
14 9 33 32 19 42 16 23 -7z"/>
<path d="M7669 11399 c-9 -17 -8 -31 2 -61 11 -34 10 -41 -4 -56 -11 -10 -17
-12 -17 -4 0 17 -27 15 -33 -2 -8 -21 19 -39 48 -32 13 3 31 19 39 34 12 24
12 32 0 61 -13 30 -12 36 1 51 8 9 12 20 8 23 -13 13 -32 7 -44 -14z"/>
<path d="M5697 11399 c-9 -5 -21 -8 -26 -4 -13 7 -81 -74 -81 -97 0 -29 21
-21 67 24 34 34 43 38 42 23 0 -11 -4 -29 -8 -40 -10 -24 4 -55 24 -55 20 0
29 19 16 34 -8 9 -7 26 4 62 8 27 15 52 15 57 0 10 -32 8 -53 -4z"/>
<path d="M10216 11390 c-29 -13 -45 -30 -62 -66 -28 -57 -29 -64 -10 -64 7 0
26 21 42 46 16 25 41 52 57 60 32 17 34 12 7 -32 -26 -40 -7 -60 21 -23 26 33
34 66 19 84 -15 19 -25 18 -74 -5z"/>
<path d="M5483 11364 c-26 -28 -33 -44 -31 -68 3 -27 7 -31 36 -34 58 -6 120
84 80 115 -34 26 -50 23 -85 -13z m67 -25 c0 -14 -38 -49 -55 -49 -24 0 -18
27 11 49 25 20 44 20 44 0z"/>
<path d="M6078 11375 c-62 -42 -64 -105 -3 -131 44 -18 45 -18 45 6 0 13 -7
20 -19 20 -10 0 -24 6 -30 14 -10 12 -6 16 22 25 42 14 70 43 65 68 -5 27 -39
27 -80 -2z m42 -19 c0 -2 -7 -7 -16 -10 -8 -3 -12 -2 -9 4 6 10 25 14 25 6z"/>
<path d="M6307 11384 c-15 -8 -32 -12 -37 -9 -5 3 -26 -19 -46 -50 -51 -77
-34 -88 36 -23 34 32 56 46 58 38 3 -7 -3 -19 -12 -25 -20 -15 -21 -41 0 -49
24 -9 30 -2 43 58 17 76 9 88 -42 60z"/>
<path d="M7975 11376 c-17 -15 -37 -23 -48 -20 -11 4 -19 -1 -23 -13 -3 -10
-12 -30 -20 -45 -15 -29 -18 -48 -6 -48 4 0 36 27 71 60 35 34 66 59 69 56 10
-11 -31 -86 -46 -84 -8 2 -17 -3 -19 -10 -3 -7 1 -10 11 -6 9 3 16 1 16 -5 0
-28 29 -6 49 37 40 86 10 130 -54 78z"/>
<path d="M8126 11349 c-45 -53 -48 -84 -8 -76 15 3 35 9 46 13 17 7 18 4 11
-42 -10 -69 -19 -82 -62 -86 -25 -2 -41 -11 -54 -28 -25 -36 -32 -92 -15 -115
13 -18 15 -18 40 -1 15 9 41 37 59 62 24 34 37 44 59 44 33 0 37 16 7 25 -16
5 -19 12 -15 30 6 25 28 160 30 189 2 32 -24 30 -35 -3 -6 -17 -20 -36 -30
-42 -25 -13 -24 -1 3 28 15 16 19 26 11 34 -7 7 -21 -2 -47 -32z m5 -236 c-6
-10 -21 -31 -35 -48 l-25 -30 -1 28 c0 42 17 67 46 67 21 0 23 -3 15 -17z"/>
<path d="M4200 11365 c0 -8 5 -15 10 -15 7 0 7 -7 0 -21 -12 -22 -10 -59 3
-62 5 -1 15 16 24 38 28 77 28 75 -6 75 -21 0 -31 -5 -31 -15z"/>
<path d="M7825 11361 c-3 -10 -17 -31 -30 -45 -24 -26 -24 -56 -1 -56 11 0 66
91 66 110 0 18 -28 11 -35 -9z"/>
<path d="M10080 11356 c-21 -57 -23 -76 -6 -76 21 0 44 76 28 92 -8 8 -14 4
-22 -16z"/>
<path d="M12840 11270 c0 -22 7 -25 29 -11 16 10 6 31 -15 31 -8 0 -14 -9 -14
-20z"/>
<path d="M6135 11259 c-4 -6 -5 -13 -2 -16 7 -7 27 6 27 18 0 12 -17 12 -25
-2z"/>
<path d="M13674 11259 c-3 -6 -2 -15 4 -21 13 -13 32 -2 32 18 0 16 -26 19
-36 3z"/>
<path d="M14355 10763 c-9 -20 -44 -85 -78 -145 l-62 -107 -82 -1 c-67 0 -83
-3 -83 -15 0 -15 24 -19 103 -15 l38 2 -17 -34 c-9 -18 -23 -41 -31 -50 -8 -9
-12 -22 -8 -27 14 -24 34 -8 61 47 28 55 31 57 74 62 50 6 57 22 11 30 l-29 5
74 129 c41 71 74 136 74 143 0 27 -30 11 -45 -24z"/>
<path d="M4279 10788 c0 -2 -3 -18 -6 -36 -2 -19 -21 -80 -41 -135 l-37 -102
-38 -3 c-47 -4 -52 -32 -6 -32 26 0 30 -3 24 -17 -20 -47 -28 -104 -17 -115 8
-8 12 -8 16 3 2 8 12 41 23 74 13 45 23 61 38 63 48 7 65 13 60 22 -3 6 -19
10 -35 10 l-29 0 34 98 c45 129 52 172 31 172 -9 0 -16 -1 -17 -2z"/>
<path d="M4864 10755 c-15 -12 -16 -16 -6 -23 12 -8 11 -14 -1 -39 -68 -130
-144 -343 -132 -364 12 -18 23 -9 30 24 10 48 37 120 100 262 63 142 66 183 9
140z"/>
<path d="M5012 10747 c1 -13 -5 -35 -14 -48 -24 -38 -119 -229 -134 -271 -10
-30 -10 -39 0 -47 15 -13 26 -4 26 21 0 10 34 86 75 168 75 149 90 200 59 200
-10 0 -14 -7 -12 -23z"/>
<path d="M8287 10698 c-13 -23 -33 -64 -43 -90 -17 -42 -23 -47 -53 -50 -44
-4 -55 -28 -12 -28 17 0 31 -1 31 -2 0 -2 -9 -27 -20 -56 -24 -63 -26 -112 -5
-112 9 0 15 9 15 25 0 30 39 137 54 147 6 4 23 8 39 8 19 0 27 5 27 18 0 13 2
14 9 3 11 -17 65 -6 58 12 -2 7 -8 11 -13 11 -5 -1 -33 -5 -62 -9 l-52 -7 20
47 c11 26 28 60 37 76 13 21 14 32 6 40 -8 8 -18 -1 -36 -33z"/>
<path d="M3248 10723 c-15 -4 -16 -8 -7 -25 17 -31 6 -72 -50 -194 -54 -117
-59 -134 -38 -134 14 0 104 192 123 263 9 32 10 56 4 72 -5 14 -11 24 -12 24
-2 -1 -11 -3 -20 -6z"/>
<path d="M14466 10686 c-14 -24 -41 -77 -59 -117 -19 -41 -60 -109 -91 -153
-68 -94 -69 -126 -1 -69 25 20 45 40 45 43 0 4 16 14 35 23 19 9 35 15 35 13
0 -2 -7 -20 -15 -39 -14 -35 -9 -53 10 -39 13 9 45 79 45 96 0 8 -7 16 -15 20
-16 6 -45 -2 -45 -13 0 -4 -9 -7 -21 -8 -19 -2 -20 0 -6 15 9 9 34 57 56 105
23 49 50 102 62 118 19 27 19 49 -1 49 -4 0 -20 -20 -34 -44z"/>
<path d="M3340 10688 c0 -14 -23 -80 -51 -149 -52 -127 -68 -214 -40 -214 8 0
14 13 16 35 1 20 25 94 52 165 60 151 65 178 41 183 -13 3 -18 -3 -18 -20z"/>
<path d="M7897 10633 c-13 -32 -30 -74 -36 -93 -10 -32 -14 -35 -51 -35 -31
-1 -47 -8 -75 -35 -19 -19 -37 -42 -40 -52 -8 -23 10 -55 36 -63 50 -16 109
43 145 144 9 25 30 75 45 110 33 72 35 81 15 81 -7 0 -25 -26 -39 -57z m-77
-174 c0 -24 -55 -82 -73 -76 -33 11 -9 68 38 88 31 12 35 11 35 -12z"/>
<path d="M3064 10639 c-10 -17 13 -36 27 -22 12 12 4 33 -11 33 -5 0 -12 -5
-16 -11z"/>
<path d="M5675 10610 c-18 -19 -18 -22 -2 -56 23 -47 22 -99 -3 -124 -22 -22
-79 -27 -81 -7 -1 6 -2 19 -3 27 -2 8 -3 23 -4 33 -1 9 -8 17 -16 17 -19 0
-33 -23 -18 -28 7 -2 9 -15 6 -30 -7 -33 16 -57 62 -66 27 -6 37 -2 68 27 32
30 36 40 36 83 0 27 -6 61 -14 76 -12 23 -12 27 1 32 8 3 21 6 29 6 12 0 12
-4 2 -20 -7 -10 -9 -22 -6 -26 11 -10 36 3 47 25 25 45 -67 72 -104 31z"/>
<path d="M12193 10591 c-20 -13 -43 -43 -64 -86 -45 -92 -53 -93 -46 -2 5 71
4 77 -13 77 -18 0 -19 -8 -17 -90 3 -138 34 -144 95 -16 34 72 71 106 114 106
19 0 28 4 26 13 -7 20 -61 19 -95 -2z"/>
<path d="M13290 10597 c-23 -12 -25 -17 -22 -79 4 -76 -6 -101 -48 -123 -34
-18 -44 -8 -38 36 4 34 -14 37 -30 5 -16 -32 -8 -62 20 -77 27 -14 70 4 104
44 23 28 26 38 22 96 -4 63 -4 64 24 75 31 11 38 36 11 36 -10 0 -29 -6 -43
-13z"/>
<path d="M14630 10589 c0 -24 23 -21 28 4 2 10 -3 17 -12 17 -10 0 -16 -9 -16
-21z"/>
<path d="M9653 10528 c-28 -40 -81 -113 -118 -163 -83 -112 -105 -147 -105
-162 0 -25 27 -13 43 20 9 17 51 77 92 132 115 153 155 212 155 229 0 30 -16
16 -67 -56z"/>
<path d="M11890 10589 c-35 -14 -59 -38 -81 -81 -24 -47 -24 -90 -1 -111 34
-31 152 -16 152 19 0 12 -5 14 -17 8 -10 -4 -40 -8 -68 -9 -47 0 -50 2 -53 26
-3 24 2 28 43 38 60 15 87 43 83 84 -3 35 -19 42 -58 26z m20 -48 c-11 -21
-47 -37 -58 -26 -8 8 38 44 56 45 9 0 10 -5 2 -19z"/>
<path d="M2751 10561 c-21 -17 -31 -33 -27 -40 6 -9 11 -9 22 0 8 7 4 -10 -11
-38 -30 -61 -33 -109 -6 -118 21 -6 51 3 51 16 0 5 5 9 12 9 6 0 22 10 35 22
18 17 26 19 35 10 19 -19 54 -14 66 11 6 12 13 39 17 60 5 29 3 37 -9 37 -14
0 -21 -14 -28 -64 -4 -27 -28 -33 -28 -7 0 35 -11 30 -95 -41 -18 -16 -35 -28
-39 -28 -15 0 -2 41 34 108 22 40 40 77 40 83 0 18 -36 8 -69 -20z"/>
<path d="M1707 10546 c-25 -19 -64 -44 -86 -56 -23 -11 -41 -27 -41 -35 0 -8
2 -15 5 -15 10 0 92 45 123 68 l33 25 -10 -24 c-5 -13 -23 -50 -40 -83 -56
-104 -33 -140 42 -65 37 36 41 38 50 22 5 -10 16 -23 24 -29 15 -13 56 -7 47
7 -3 5 1 7 8 4 16 -6 32 18 59 90 19 51 19 75 0 75 -4 0 -18 -29 -30 -65 -25
-71 -59 -107 -74 -80 -5 9 -6 29 -2 44 11 51 -19 46 -70 -12 -25 -28 -45 -49
-45 -45 0 4 16 38 35 75 37 70 48 123 29 130 -6 2 -32 -12 -57 -31z"/>
<path d="M6542 10564 c-26 -18 -26 -50 -1 -111 12 -28 11 -34 -6 -52 -25 -29
-51 -26 -67 6 -20 42 -42 43 -33 2 13 -62 71 -79 119 -34 30 28 33 60 9 109
-21 44 -6 67 41 63 22 -1 31 2 31 13 0 22 -64 25 -93 4z"/>
<path d="M11286 10554 c-4 -14 -28 -52 -54 -84 -37 -47 -49 -56 -60 -47 -13
11 -12 46 4 102 4 16 0 21 -15 22 -11 1 -20 -1 -19 -5 1 -4 -2 -28 -6 -54 -9
-53 -1 -88 20 -88 8 0 14 -2 14 -5 0 -3 -28 -47 -63 -98 -86 -124 -120 -184
-112 -197 3 -5 1 -10 -4 -10 -6 0 -11 -9 -11 -20 0 -35 20 -22 41 28 24 56
177 285 231 347 35 40 68 100 68 125 0 21 -28 9 -34 -16z"/>
<path d="M2054 10545 c-55 -55 -72 -151 -32 -179 44 -31 179 -10 195 30 10 26
-6 28 -46 6 -55 -31 -141 -29 -141 3 0 8 16 19 35 25 46 15 77 54 69 89 -14
57 -41 65 -80 26z m46 -40 c0 -23 -24 -45 -49 -45 -17 0 -13 15 10 44 26 33
39 33 39 1z"/>
<path d="M5814 10528 c-45 -41 -74 -90 -74 -123 0 -25 38 -55 71 -55 42 0 103
30 90 43 -7 7 -23 6 -50 -3 -50 -16 -71 -8 -71 27 0 38 9 47 50 51 45 5 82 38
78 72 -5 42 -40 38 -94 -12z m52 -14 c-30 -21 -44 -16 -17 7 13 11 27 17 30
13 3 -3 -3 -12 -13 -20z"/>
<path d="M13397 10519 c-27 -28 -55 -67 -63 -86 -13 -31 -13 -38 1 -59 14 -22
22 -25 72 -22 36 2 58 8 61 16 2 7 -2 13 -9 11 -8 -1 -33 -1 -56 0 -38 1 -43
4 -43 24 0 33 28 67 55 67 60 0 94 35 80 80 -11 34 -46 23 -98 -31z m73 6 c0
-2 -10 -10 -22 -16 -21 -11 -22 -11 -9 4 13 16 31 23 31 12z"/>
<path d="M5977 10537 c-33 -26 -57 -90 -48 -126 12 -43 50 -55 117 -37 59 15
91 37 80 54 -4 6 -20 3 -43 -9 -41 -21 -108 -25 -119 -8 -4 7 2 16 12 22 41
23 64 56 64 92 0 42 -21 47 -63 12z m18 -47 c-10 -11 -20 -18 -23 -15 -3 3 3
14 13 25 10 11 20 18 23 15 3 -3 -3 -14 -13 -25z"/>
<path d="M6885 10523 c-25 -22 -31 -24 -33 -10 -7 35 -28 14 -65 -65 -27 -60
-34 -85 -26 -92 8 -8 14 -6 23 8 24 39 72 96 99 117 l29 22 -21 -41 c-45 -88
-19 -94 67 -16 l62 56 -20 -47 c-22 -52 -14 -85 20 -85 26 0 34 17 13 28 -16
10 -15 15 9 74 38 93 22 103 -61 37 -48 -39 -51 -39 -41 -14 23 60 -3 74 -55
28z"/>
<path d="M7149 10525 c-59 -39 -91 -152 -53 -190 18 -18 46 -15 124 14 30 11
46 23 47 36 2 11 0 14 -3 7 -3 -6 -9 -10 -14 -7 -4 3 -27 -2 -50 -10 -23 -8
-53 -15 -67 -15 -21 0 -24 4 -21 32 3 27 8 33 49 44 61 18 86 46 73 82 -12 35
-40 37 -85 7z m40 -40 c-8 -7 -25 -16 -39 -19 -23 -6 -22 -4 10 24 20 17 36
26 39 19 2 -6 -3 -17 -10 -24z"/>
<path d="M9495 10541 c-3 -6 -3 -16 1 -22 3 -6 6 -34 5 -61 -1 -52 13 -93 30
-83 10 7 11 107 0 144 -7 27 -26 38 -36 22z"/>
<path d="M9735 10540 c-3 -5 -3 -10 1 -10 5 0 -6 -15 -23 -32 -55 -59 -67
-100 -33 -118 14 -8 28 -7 52 3 45 19 60 40 68 93 6 39 4 47 -14 59 -24 17
-42 19 -51 5z m35 -70 c0 -11 -9 -29 -20 -40 -17 -17 -60 -28 -60 -15 0 9 62
75 71 75 5 0 9 -9 9 -20z"/>
<path d="M10770 10515 l-50 -34 0 30 c0 30 -7 33 -48 22 -25 -6 -112 -130
-112 -158 0 -27 20 -16 48 26 42 64 81 106 82 89 0 -8 -9 -28 -20 -45 -11 -16
-20 -33 -20 -37 0 -21 37 -3 83 38 28 25 58 49 68 54 15 9 16 6 6 -26 -6 -19
-21 -45 -33 -57 -22 -22 -22 -23 -4 -35 16 -10 21 -7 37 21 23 38 43 93 43
117 0 32 -28 30 -80 -5z"/>
<path d="M12297 10523 c-69 -51 -98 -123 -62 -153 19 -16 112 -15 132 1 21 18
8 23 -55 24 -44 0 -57 4 -60 16 -2 12 7 18 32 23 51 10 98 52 94 85 -4 36 -35
38 -81 4z m34 -34 c-35 -28 -51 -22 -17 7 15 14 31 22 35 19 3 -4 -5 -15 -18
-26z"/>
<path d="M12504 10509 c-10 -23 -31 -59 -46 -80 -16 -22 -28 -43 -28 -49 0
-20 27 -10 47 18 25 34 131 117 139 109 4 -3 -6 -27 -20 -52 -16 -27 -26 -57
-24 -72 4 -35 28 -43 28 -9 0 14 14 53 31 85 46 88 23 118 -52 67 -35 -24 -35
-24 -35 -4 2 37 -20 30 -40 -13z"/>
<path d="M13603 10515 c-44 -30 -83 -83 -83 -113 0 -27 33 -42 92 -42 51 0 61
3 65 19 3 11 11 22 19 25 23 9 16 26 -12 26 -17 0 -28 -6 -31 -20 -4 -16 -14
-20 -49 -20 -48 0 -55 6 -44 36 5 13 21 24 41 28 48 9 79 33 79 60 0 37 -23
37 -77 1z"/>
<path d="M10972 10523 c-40 -19 -84 -70 -80 -92 4 -20 49 -26 78 -11 17 9 20
8 20 -9 0 -31 11 -51 27 -51 11 0 13 7 9 25 -4 16 1 44 15 75 12 27 19 56 15
65 -7 19 -42 19 -84 -2z m57 -17 c-19 -19 -84 -66 -91 -66 -18 0 13 38 44 53
31 15 57 22 47 13z"/>
<path d="M15128 10529 c-26 -15 -22 -49 8 -80 47 -49 5 -82 -48 -39 -26 20
-38 18 -38 -6 0 -17 51 -44 82 -44 29 0 68 26 68 45 0 8 -14 30 -31 49 -30 34
-32 56 -4 56 7 0 16 -8 20 -17 6 -17 7 -17 21 1 24 33 17 46 -23 46 -21 0 -46
-5 -55 -11z"/>
<path d="M2680 10510 c-18 -14 -22 -22 -14 -30 8 -8 17 -5 35 9 33 27 14 47
-21 21z"/>
<path d="M3002 10477 c-26 -60 -27 -77 -8 -77 15 0 59 106 50 121 -10 17 -19
8 -42 -44z"/>
<path d="M3760 10494 c-53 -48 -64 -68 -49 -95 10 -20 20 -21 62 -4 13 5 17 2
17 -13 0 -25 23 -44 44 -36 21 8 20 21 0 32 -15 8 -15 13 6 49 20 37 21 43 9
69 -20 41 -42 40 -89 -2z m58 -21 c-3 -17 -65 -60 -73 -51 -7 6 52 68 65 68 6
0 10 -8 8 -17z"/>
<path d="M4416 10487 c6 -39 3 -48 -25 -80 -33 -37 -63 -53 -81 -42 -5 3 1 28
15 62 29 63 31 83 11 83 -17 0 -59 -118 -54 -152 7 -48 89 -30 133 28 38 50
48 92 30 121 -24 36 -35 28 -29 -20z"/>
<path d="M5093 10475 c-21 -30 -41 -55 -45 -55 -5 0 -8 20 -8 43 0 49 -7 62
-25 47 -14 -11 -9 -97 6 -116 5 -6 -20 -53 -66 -121 -75 -110 -88 -143 -60
-143 8 0 15 4 15 10 0 10 144 230 213 326 29 41 34 53 22 57 -10 4 -27 -12
-52 -48z"/>
<path d="M6686 10509 c-56 -44 -69 -131 -22 -149 51 -19 117 60 100 119 -4 14
-8 31 -8 36 -2 19 -42 16 -70 -6z m47 -38 c10 -40 -44 -102 -62 -72 -10 15 1
55 21 78 15 19 35 16 41 -6z"/>
<path d="M9910 10465 c-24 -35 -47 -62 -50 -60 -3 2 -17 -5 -30 -15 -20 -16
-23 -21 -12 -32 8 -8 15 -9 20 -3 4 6 17 15 29 22 17 10 24 9 33 -2 17 -20 46
-11 97 31 35 29 43 32 33 15 -16 -30 -6 -51 25 -51 27 0 32 9 14 27 -9 9 -8
21 5 46 19 42 21 67 3 67 -16 0 -69 -54 -62 -63 3 -4 2 -5 -2 -2 -3 3 -22 -7
-40 -21 -19 -14 -37 -24 -39 -21 -3 3 6 28 20 56 14 28 26 55 26 61 0 26 -29
4 -70 -55z"/>
<path d="M3976 10500 c-27 -17 -76 -84 -76 -102 0 -5 9 -17 20 -28 24 -24 87
-27 116 -5 21 16 18 18 -46 19 -34 1 -45 5 -48 19 -4 21 58 87 82 87 9 0 16 7
16 15 0 21 -29 19 -64 -5z"/>
<path d="M7925 10489 c-43 -38 -47 -76 -11 -85 14 -3 30 -3 35 1 6 3 11 -1 11
-9 0 -11 10 -16 31 -16 25 0 30 3 25 17 -4 9 -2 31 4 49 9 27 8 36 -7 53 -24
29 -46 26 -88 -10z m55 -14 c0 -16 -47 -51 -56 -42 -6 6 40 57 51 57 3 0 5 -7
5 -15z"/>
<path d="M14698 10490 c-43 -27 -78 -72 -78 -100 0 -21 25 -9 42 19 17 31 94
88 104 78 3 -3 -7 -28 -22 -56 -21 -37 -26 -53 -18 -61 9 -9 20 3 43 43 17 29
32 65 33 78 4 37 -45 37 -104 -1z"/>
<path d="M4533 10470 c-52 -31 -67 -75 -37 -105 11 -11 25 -14 42 -10 21 5 24
3 19 -14 -5 -22 16 -46 33 -36 5 3 10 23 10 44 0 27 7 44 25 61 26 24 34 70
13 70 -7 0 -26 -19 -42 -41 -30 -43 -65 -63 -81 -47 -13 12 48 68 75 68 11 0
20 7 20 15 0 21 -39 19 -77 -5z"/>
<path d="M8306 10456 c-20 -18 -36 -40 -36 -48 0 -36 50 -50 86 -23 25 19 44
19 44 1 0 -23 41 -46 83 -46 47 0 47 23 -1 28 -35 4 -54 22 -57 56 -6 54 -15
66 -50 66 -24 0 -43 -9 -69 -34z m84 -5 c0 -13 -69 -55 -77 -47 -10 10 39 56
59 56 10 0 18 -4 18 -9z"/>
<path d="M14905 10463 c-47 -24 -65 -44 -65 -69 0 -29 37 -41 81 -25 26 9 30
8 26 -4 -15 -37 -27 -96 -23 -104 3 -5 -13 -5 -35 0 -23 5 -49 7 -59 4 -65
-21 -100 -160 -45 -181 58 -23 119 54 175 221 22 66 40 123 40 128 0 13 -21 8
-49 -12 -35 -25 -81 -37 -81 -22 0 7 25 23 55 37 30 14 55 30 55 35 0 14 -42
10 -75 -8z m-7 -239 c14 -11 -73 -114 -96 -114 -24 0 -9 90 18 112 19 15 61
17 78 2z"/>
<path d="M14526 10407 c-23 -50 -25 -59 -10 -64 9 -3 64 83 64 101 0 3 -8 6
-17 6 -11 0 -25 -16 -37 -43z"/>
<path d="M8775 10340 c-4 -16 -19 -43 -35 -60 -24 -25 -33 -29 -60 -23 -25 4
-32 3 -28 -7 15 -45 75 -35 119 20 35 43 49 100 26 100 -9 0 -18 -12 -22 -30z"/>
<path d="M1685 10281 c-3 -6 -10 -52 -14 -103 -5 -52 -18 -117 -30 -148 -26
-67 -26 -70 -2 -70 11 0 37 22 61 53 54 68 70 77 70 40 0 -15 -5 -45 -11 -67
-8 -27 -8 -41 0 -49 19 -19 31 6 38 76 9 100 -22 125 -83 66 l-33 -31 9 38 c7
32 23 149 25 188 0 14 -22 19 -30 7z"/>
<path d="M1527 10263 c-4 -3 -7 -17 -7 -31 0 -13 -8 -53 -17 -88 -17 -63 -18
-64 -51 -64 -40 0 -40 -23 0 -28 24 -3 25 -6 24 -67 -1 -54 3 -67 23 -89 25
-26 65 -34 76 -15 4 5 -7 15 -23 21 -39 15 -55 49 -46 104 6 43 7 44 46 44 40
0 78 14 78 29 0 5 -25 7 -55 5 -30 -2 -55 -2 -55 0 0 2 9 39 20 82 11 44 20
85 20 92 0 13 -22 17 -33 5z"/>
<path d="M2195 10248 c-3 -7 -15 -44 -28 -83 -22 -65 -26 -70 -55 -73 -41 -4
-44 -32 -4 -32 27 0 28 -2 28 -57 1 -49 5 -60 28 -80 31 -27 58 -29 76 -8 14
17 14 17 -17 20 -48 5 -53 12 -53 75 0 55 2 60 23 61 67 2 107 13 107 30 0 8
-19 10 -60 7 -68 -5 -66 -12 -29 90 10 29 19 55 19 57 0 11 -31 4 -35 -7z"/>
<path d="M6676 10174 c-8 -22 -8 -22 42 -30 35 -5 42 -4 42 10 0 10 -9 16 -25
16 -14 0 -25 5 -25 10 0 16 -27 11 -34 -6z"/>
<path d="M4494 10136 c-10 -8 -29 -12 -40 -10 -16 4 -27 -3 -43 -25 -13 -17
-20 -31 -17 -31 3 0 -6 -17 -20 -37 -17 -26 -21 -40 -14 -47 8 -8 26 5 63 46
29 31 64 64 80 74 l27 17 -26 -52 c-45 -91 -13 -101 68 -23 21 20 40 34 42 31
2 -2 0 -28 -6 -56 -8 -40 -8 -56 2 -68 21 -25 27 -17 30 38 1 28 2 70 3 91 1
22 -3 41 -9 43 -6 2 -32 -15 -57 -38 -46 -40 -60 -42 -32 -5 24 31 19 66 -8
66 -13 0 -32 -6 -43 -14z"/>
<path d="M3144 10098 c-23 -47 -96 -140 -103 -132 -3 3 -8 38 -11 77 -4 55 -9
72 -20 72 -12 0 -14 -13 -12 -65 2 -36 8 -77 14 -92 9 -25 5 -34 -37 -93 -59
-83 -101 -173 -87 -187 7 -7 20 10 42 53 17 35 64 106 103 158 101 131 159
219 152 231 -11 18 -24 11 -41 -22z"/>
<path d="M5042 10108 c-5 -7 -24 -41 -41 -75 -17 -34 -35 -64 -40 -67 -5 -3
-11 18 -13 49 -1 30 1 56 6 58 16 5 -5 28 -22 25 -14 -3 -16 -15 -13 -83 1
-44 7 -83 12 -86 5 -3 -11 -41 -36 -84 -45 -79 -63 -134 -50 -154 12 -21 22
-11 28 27 4 21 39 94 78 162 39 69 80 144 89 166 10 23 23 45 29 48 6 4 11 11
11 17 0 13 -26 11 -38 -3z"/>
<path d="M5584 10110 c-12 -4 -30 -20 -42 -34 -11 -14 -26 -26 -34 -26 -9 0
-14 -9 -13 -22 1 -12 -7 -38 -17 -59 -21 -44 -23 -69 -5 -69 6 0 31 38 55 83
41 81 67 107 108 107 22 0 11 25 -12 27 -10 1 -29 -2 -40 -7z"/>
<path d="M5929 10093 c-33 -20 -79 -93 -79 -125 0 -14 8 -32 18 -41 21 -19 83
-22 113 -6 32 17 13 26 -41 21 -60 -5 -70 9 -45 61 20 43 48 69 75 71 11 0 20
4 20 9 0 4 0 12 0 17 0 15 -32 12 -61 -7z"/>
<path d="M6447 10093 c-4 -3 -7 -18 -7 -32 0 -14 -9 -41 -20 -59 -43 -71 -9
-72 44 -1 21 28 40 49 42 46 2 -2 -2 -22 -10 -45 -12 -35 -13 -42 -1 -52 15
-13 55 -5 55 11 0 21 -2 24 -14 21 -10 -2 -11 7 -1 45 7 27 10 54 8 61 -7 17
-28 15 -47 -4 -15 -14 -16 -14 -16 0 0 16 -21 22 -33 9z"/>
<path d="M3242 10075 c-29 -21 -72 -96 -72 -126 0 -61 56 -65 111 -10 43 43
49 73 24 121 -17 34 -31 37 -63 15z m40 -89 c-15 -34 -59 -63 -74 -48 -14 14
5 62 33 88 10 9 19 24 20 33 0 9 8 1 16 -16 13 -26 14 -38 5 -57z"/>
<path d="M5688 10073 c-61 -71 -84 -163 -47 -186 26 -16 104 10 117 39 14 29
-5 46 -23 21 -11 -15 -55 -37 -76 -37 -10 0 -12 30 -3 54 3 9 10 13 16 10 15
-10 74 23 85 48 24 53 -32 93 -69 51z m39 -37 c-3 -8 -16 -20 -28 -26 -17 -10
-20 -9 -14 2 24 41 55 59 42 24z"/>
<path d="M7090 10079 c-75 -30 -130 -142 -82 -168 46 -25 148 -25 140 0 -2 6
-26 12 -54 13 -88 5 -101 34 -29 61 53 21 78 46 73 76 -4 27 -15 31 -48 18z
m10 -34 c0 -2 -10 -9 -22 -15 -22 -11 -22 -10 -4 4 21 17 26 19 26 11z"/>
<path d="M1869 10032 c-43 -43 -49 -54 -40 -70 6 -11 18 -22 26 -26 18 -7 64
14 91 41 17 17 17 17 12 -5 -8 -29 8 -78 27 -86 20 -7 29 12 15 30 -9 9 -11
36 -8 78 5 59 4 64 -16 69 -11 2 -29 8 -39 12 -13 5 -30 -5 -68 -43z m75 -1
c7 -11 -50 -61 -70 -61 -11 0 -8 10 12 35 26 34 47 44 58 26z"/>
<path d="M3461 10043 c-10 -21 -28 -47 -40 -57 -12 -11 -21 -25 -21 -33 0 -7
-3 -12 -7 -11 -22 4 -61 -15 -56 -28 7 -20 26 -17 57 7 l27 22 15 -22 c20 -28
41 -27 87 4 l37 26 0 -29 c0 -37 25 -61 43 -42 9 10 9 13 0 17 -18 7 -16 35 7
92 27 71 9 73 -53 9 -53 -56 -97 -79 -97 -52 0 8 11 37 25 64 29 57 31 70 10
70 -8 0 -23 -17 -34 -37z"/>
<path d="M4764 10070 c-31 -12 -85 -82 -82 -105 4 -29 42 -30 93 -2 l44 25 3
-37 c2 -24 8 -36 18 -36 10 0 14 8 12 24 -1 14 3 40 9 58 8 26 8 37 -2 49 -11
13 -16 11 -43 -14 -31 -29 -94 -67 -101 -60 -7 7 55 67 75 73 11 3 20 13 20
21 0 16 -14 17 -46 4z"/>
<path d="M6092 10064 c-45 -31 -69 -118 -38 -143 19 -16 58 -17 94 -2 51 21
55 78 11 134 -24 31 -36 33 -67 11z m68 -85 c0 -25 -25 -41 -57 -37 -38 4 -41
36 -7 77 l27 32 18 -28 c11 -15 19 -35 19 -44z"/>
<path d="M6275 10033 c-44 -45 -46 -86 -4 -91 l26 -3 -25 -100 c-24 -97 -25
-99 -54 -99 -44 0 -65 -15 -83 -63 -30 -80 -6 -134 50 -109 17 8 35 32 53 71
25 54 30 60 61 63 45 4 54 28 12 28 -17 0 -31 4 -31 9 0 25 55 210 71 240 23
44 23 46 2 71 -24 28 -37 25 -78 -17z m53 -25 c-18 -27 -45 -45 -54 -35 -10 9
35 57 54 57 13 0 13 -3 0 -22z m-98 -308 c0 -29 -54 -110 -73 -110 -15 0 -1
79 19 101 18 20 54 26 54 9z"/>
<path d="M6667 10013 c-3 -21 -9 -48 -13 -60 -5 -17 -2 -23 9 -23 17 0 37 49
37 91 0 44 -26 36 -33 -8z"/>
<path d="M6793 10043 c-7 -2 -13 -11 -13 -19 0 -11 11 -13 57 -7 l58 6 -63
-57 c-41 -39 -62 -66 -62 -81 0 -30 15 -34 75 -21 36 8 51 16 53 30 3 14 0 17
-11 13 -9 -3 -33 -9 -54 -12 l-38 -7 69 64 c86 79 86 98 -1 97 -32 0 -64 -3
-70 -6z"/>
<path d="M7271 9922 c-19 -6 -12 -28 14 -42 36 -19 50 -1 21 25 -13 12 -28 19
-35 17z"/>
<path d="M13345 9516 c-69 -32 -141 -113 -194 -223 -48 -97 -56 -103 -132
-103 -20 0 -29 -5 -29 -16 0 -12 9 -15 38 -14 72 4 72 9 11 -102 -21 -37 -33
-70 -28 -74 16 -10 29 6 74 96 43 86 46 89 87 97 50 10 64 33 19 33 -16 0 -32
4 -35 9 -9 14 64 148 108 198 44 50 130 95 165 86 25 -6 30 21 5 31 -24 9 -35
7 -89 -18z"/>
<path d="M9200 9494 c-37 -34 -83 -115 -125 -218 -13 -35 -18 -38 -42 -32 -50
12 -58 11 -58 -4 0 -8 15 -18 33 -24 17 -5 32 -13 32 -18 0 -5 -16 -39 -35
-77 -19 -37 -35 -75 -35 -84 0 -38 22 -12 65 76 l46 92 46 5 c60 6 71 30 14
30 -23 0 -41 3 -41 6 0 18 57 146 82 182 39 57 70 77 98 62 20 -11 40 -6 40 9
0 9 -45 31 -65 31 -8 0 -33 -16 -55 -36z"/>
<path d="M12111 9478 c-10 -16 -11 -23 -2 -26 7 -2 0 -24 -20 -60 -44 -78 -59
-93 -89 -91 -57 3 -70 -1 -70 -21 0 -18 4 -20 40 -14 l39 6 -28 -53 c-51 -96
-50 -140 5 -176 22 -14 27 -14 35 -2 12 19 11 32 -1 24 -5 -3 -19 4 -30 15
-25 25 -20 51 24 135 26 47 38 61 59 63 16 2 27 10 27 19 0 9 -6 13 -14 10 -8
-3 4 25 25 63 43 74 54 122 29 127 -8 2 -21 -7 -29 -19z"/>
<path d="M9432 9442 c-22 -22 -55 -76 -82 -135 l-45 -97 -57 0 c-45 0 -58 -3
-58 -15 0 -15 21 -20 73 -16 15 1 27 -1 27 -4 0 -4 -16 -34 -35 -66 -37 -64
-44 -99 -20 -99 8 0 15 7 15 15 0 8 13 36 29 63 16 27 32 58 35 69 4 12 16 23
28 26 16 5 19 11 14 30 -9 38 76 202 115 222 16 9 30 13 30 10 1 -3 2 -9 3
-15 2 -17 21 -14 24 4 5 22 -16 46 -39 46 -11 0 -36 -17 -57 -38z"/>
<path d="M12244 9438 c-5 -7 -21 -38 -35 -69 -15 -32 -50 -95 -78 -142 -46
-76 -62 -117 -45 -117 4 0 29 16 56 36 27 20 51 34 53 32 3 -3 -2 -26 -11 -51
-15 -45 -14 -77 3 -77 11 0 55 149 48 160 -9 15 -38 12 -63 -6 -29 -20 -28 -5
4 42 48 70 98 184 87 195 -8 8 -13 7 -19 -3z"/>
<path d="M8624 9405 c-3 -8 -3 -18 0 -23 12 -20 -51 -181 -95 -244 -20 -28
-24 -64 -10 -87 5 -7 28 -15 52 -18 53 -6 93 20 116 74 25 60 -9 100 -68 83
l-27 -8 23 51 c29 68 50 150 42 171 -8 20 -26 21 -33 1z m36 -270 c0 -49 -69
-91 -109 -66 -12 7 -10 14 8 38 44 55 101 71 101 28z"/>
<path d="M14930 9381 c0 -16 -17 -62 -38 -103 l-37 -73 -60 -13 c-33 -7 -64
-17 -69 -22 -12 -12 3 -33 17 -22 7 4 27 9 45 11 l32 3 -30 -49 c-16 -26 -33
-63 -36 -82 -6 -29 -4 -33 12 -29 11 2 21 15 25 35 3 18 21 55 39 82 28 45 36
51 66 51 37 0 43 -10 18 -31 -8 -7 -22 -25 -30 -41 -13 -25 -13 -29 2 -35 22
-8 75 19 125 64 l42 38 -18 -35 c-10 -19 -24 -39 -31 -43 -11 -6 -12 -13 -4
-28 6 -11 15 -17 21 -14 13 9 69 121 69 140 0 29 -32 30 -57 1 -12 -15 -23
-25 -23 -22 0 3 -15 -8 -32 -25 -58 -53 -58 -34 0 29 43 47 132 196 132 222 0
36 -25 21 -44 -28 -11 -26 -39 -74 -62 -107 -39 -56 -44 -60 -75 -57 -19 2
-35 5 -36 6 -1 1 14 32 33 70 36 73 45 136 19 136 -10 0 -15 -10 -15 -29z"/>
<path d="M15608 9399 c-10 -6 -18 -16 -18 -22 0 -34 -167 -340 -202 -369 -24
-21 -58 -8 -58 23 0 22 76 110 92 106 21 -4 18 22 -2 28 -17 5 -30 -1 -57 -27
-79 -76 -85 -156 -12 -173 21 -5 34 0 58 22 49 45 239 399 223 415 -4 4 -15 2
-24 -3z"/>
<path d="M5159 9393 c-1 -5 -1 -11 0 -15 2 -19 -36 -125 -80 -220 -50 -109
-62 -168 -34 -168 10 0 15 10 15 27 0 14 22 74 49 132 54 116 86 214 77 237
-6 15 -25 20 -27 7z"/>
<path d="M6923 9353 c-7 -3 -13 -9 -13 -14 0 -6 -18 -40 -40 -77 -43 -72 -56
-79 -132 -81 -37 -1 -48 -5 -48 -17 0 -13 10 -15 60 -12 33 1 60 1 60 -2 0 -3
-9 -31 -20 -62 -22 -63 -15 -107 17 -110 35 -2 78 4 90 14 22 18 5 26 -42 20
-43 -4 -45 -4 -45 21 0 15 9 51 20 81 18 46 26 56 50 60 17 3 44 9 60 12 17 3
30 12 30 20 0 12 -9 14 -45 8 -25 -3 -45 -2 -45 2 0 5 16 33 35 61 19 29 35
57 35 62 0 13 -12 19 -27 14z"/>
<path d="M2773 9253 c-11 -16 -27 -43 -37 -60 -14 -29 -14 -33 -2 -33 17 0 88
99 80 112 -9 14 -20 9 -41 -19z"/>
<path d="M10936 9271 c-9 -14 5 -42 18 -38 15 5 14 39 -1 44 -6 2 -14 0 -17
-6z"/>
<path d="M2607 9235 c-4 -8 -2 -17 3 -20 17 -10 12 -216 -4 -234 -31 -34 -166
-277 -166 -298 0 -32 18 -29 31 5 15 40 106 198 154 268 23 33 55 85 71 115
16 30 32 56 37 57 13 6 8 22 -8 22 -8 0 -27 -21 -42 -47 l-28 -48 -2 65 c-2
36 -5 80 -8 98 -6 33 -28 43 -38 17z"/>
<path d="M5200 9205 c-12 -14 -10 -35 5 -90 4 -14 -2 -30 -21 -50 l-26 -28
-19 24 c-13 18 -21 21 -29 13 -16 -16 3 -50 30 -59 25 -8 63 15 86 50 16 24
15 41 -2 103 -6 19 -3 22 26 22 21 0 30 4 28 13 -7 18 -63 21 -78 2z"/>
<path d="M6218 9191 c-31 -36 -72 -136 -64 -156 10 -28 25 -15 40 38 23 78 52
120 80 115 16 -3 22 1 23 14 3 30 -51 23 -79 -11z"/>
<path d="M12353 9209 c-34 -10 -83 -65 -83 -93 0 -29 27 -72 55 -84 33 -15 87
-15 120 0 32 14 34 43 3 35 -13 -3 -34 -9 -48 -12 -56 -14 -119 45 -89 82 7 8
15 10 18 5 24 -37 101 -4 101 43 0 34 -21 40 -77 24z m32 -39 c-3 -5 -16 -10
-28 -10 -18 0 -19 2 -7 10 20 13 43 13 35 0z"/>
<path d="M3078 9176 c-9 -18 -37 -58 -62 -89 -25 -31 -46 -61 -46 -67 0 -19
20 -10 51 25 31 34 33 34 46 15 19 -27 33 -25 70 9 l31 28 -5 -35 c-4 -23 -3
-33 4 -29 6 4 10 -1 9 -11 -1 -11 7 -18 23 -20 24 -4 24 -3 8 21 -13 21 -15
35 -8 74 5 26 8 50 5 52 -2 2 1 10 7 17 11 13 5 34 -11 34 -4 0 -19 -19 -33
-42 -14 -24 -37 -54 -51 -67 l-26 -24 0 25 c0 14 7 42 15 61 18 45 19 57 2 57
-7 0 -21 -15 -29 -34z"/>
<path d="M7088 9193 c-62 -39 -90 -147 -46 -177 30 -21 141 -22 158 -1 14 17
12 18 -57 15 -99 -4 -126 29 -53 64 53 26 72 48 68 83 -4 34 -31 40 -70 16z
m42 -27 c0 -8 -16 -23 -35 -35 -43 -25 -45 -18 -4 20 35 33 39 34 39 15z"/>
<path d="M15233 9197 c-6 -7 -27 -23 -47 -37 -58 -41 -73 -97 -34 -124 35 -25
76 -20 109 13 33 33 37 71 15 126 -16 37 -24 41 -43 22z m22 -57 c11 -18 -6
-70 -27 -81 -11 -6 -31 -8 -45 -4 -21 5 -24 10 -18 32 11 45 73 81 90 53z"/>
<path d="M2003 9180 c-3 -11 -9 -20 -14 -20 -5 0 -9 -7 -9 -16 0 -22 60 -15
74 9 9 15 7 21 -8 33 -27 19 -37 18 -43 -6z"/>
<path d="M3775 9188 c-75 -41 -72 -133 5 -173 34 -18 83 -20 78 -4 -2 6 -21
17 -43 25 -68 23 -86 76 -39 113 27 21 49 19 58 -5 6 -16 36 -19 36 -4 0 15
-47 60 -62 60 -7 0 -22 -6 -33 -12z"/>
<path d="M5326 9157 c-52 -49 -66 -89 -45 -126 10 -18 25 -27 47 -29 27 -3 40
4 73 36 49 49 53 97 14 137 -14 14 -30 25 -35 25 -5 0 -30 -19 -54 -43z m72
-9 c21 -21 13 -58 -17 -89 -31 -30 -66 -38 -74 -16 -7 20 11 69 35 94 24 26
38 29 56 11z"/>
<path d="M10420 9149 c-39 -58 -108 -119 -134 -119 -17 0 -33 -26 -22 -37 8
-8 83 26 98 45 11 13 13 11 18 -9 8 -33 53 -38 91 -10 l29 22 0 -21 c0 -22 22
-36 40 -25 8 5 8 10 0 20 -8 10 -6 24 9 54 39 75 17 98 -33 35 -26 -33 -81
-74 -98 -74 -19 0 -5 51 27 96 19 27 35 55 35 61 0 28 -27 10 -60 -38z"/>
<path d="M10705 9186 c-16 -8 -38 -20 -48 -27 -16 -13 -16 -16 9 -53 24 -35
25 -39 10 -54 -9 -9 -31 -16 -51 -15 -28 1 -35 -2 -33 -15 8 -44 128 -7 128
39 0 11 -9 34 -21 50 l-20 29 33 14 c18 8 41 17 51 20 9 3 17 10 17 16 0 14
-39 12 -75 -4z"/>
<path d="M2840 9158 c-14 -23 -20 -47 -18 -78 3 -39 7 -46 31 -54 51 -18 108
48 93 107 -16 64 -74 77 -106 25z m64 -14 c9 -8 16 -24 16 -34 0 -22 -39 -62
-55 -57 -15 5 -18 45 -5 78 14 33 22 35 44 13z"/>
<path d="M5944 9158 c-39 -27 -50 -39 -52 -65 -4 -43 13 -72 53 -89 39 -16
113 -18 135 -4 24 15 4 23 -60 24 -70 1 -107 27 -97 68 8 29 79 72 106 63 23
-7 39 14 20 26 -26 16 -56 9 -105 -23z"/>
<path d="M9470 9177 c-33 -17 -70 -74 -70 -108 0 -51 34 -68 109 -53 48 10 31
29 -25 29 -64 0 -69 22 -15 59 39 27 52 49 44 74 -6 15 -12 15 -43 -1z"/>
<path d="M13264 9160 c-21 -16 -47 -30 -56 -30 -18 0 -47 -55 -51 -94 -3 -33
21 -28 38 8 16 34 76 90 123 115 23 12 22 31 -2 31 -7 0 -30 -13 -52 -30z"/>
<path d="M6355 9163 c-42 -21 -65 -53 -65 -91 0 -44 46 -74 110 -70 59 4 54
21 -9 29 -69 9 -80 19 -40 36 46 19 69 42 69 69 0 34 -29 45 -65 27z m35 -33
c0 -11 -59 -44 -66 -37 -6 6 45 47 57 47 5 0 9 -4 9 -10z"/>
<path d="M7843 9160 c-41 -25 -64 -67 -52 -98 12 -33 34 -37 72 -13 l34 21 11
-25 c11 -25 52 -42 71 -30 17 10 13 25 -8 25 -30 0 -43 23 -31 55 11 28 4 45
-29 73 -20 16 -30 15 -68 -8z m61 -35 c0 -11 -61 -55 -75 -55 -16 0 -9 23 13
47 22 23 64 28 62 8z"/>
<path d="M10995 9161 c-66 -30 -145 -141 -100 -141 8 0 15 4 15 10 0 27 111
120 144 120 8 0 -22 -92 -33 -103 -15 -15 -14 -49 2 -45 19 6 60 96 61 136 1
33 -2 37 -24 39 -14 1 -43 -6 -65 -16z"/>
<path d="M13399 9155 c-69 -45 -99 -106 -66 -134 17 -14 71 -8 93 9 39 33 57
113 32 138 -15 15 -16 15 -59 -13z m41 -36 c0 -34 -53 -91 -77 -82 -21 8 -15
33 16 64 29 29 61 39 61 18z"/>
<path d="M13612 9164 c-19 -13 -26 -13 -39 -3 -13 11 -17 10 -29 -6 -8 -10
-14 -23 -14 -27 0 -5 -14 -27 -31 -48 -20 -25 -29 -45 -25 -56 7 -19 12 -16
87 54 l36 33 -5 -31 c-6 -42 22 -40 82 5 l46 36 0 -34 c0 -44 20 -61 60 -52
20 4 30 13 30 26 0 16 -4 17 -25 9 -31 -12 -38 0 -33 55 2 21 -2 40 -8 42 -5
2 -31 -13 -57 -33 -26 -20 -50 -34 -54 -30 -4 3 -1 12 5 18 13 13 16 58 4 58
-4 0 -18 -7 -30 -16z"/>
<path d="M14602 9163 c-18 -8 -46 -31 -62 -50 -56 -63 -30 -123 53 -123 47 0
47 23 -1 28 -17 2 -36 9 -42 17 -9 10 1 19 46 41 61 30 85 63 64 89 -15 18
-17 18 -58 -2z m8 -47 c-14 -13 -29 -21 -34 -18 -5 3 2 13 15 23 35 27 48 23
19 -5z"/>
<path d="M4845 9154 c-46 -24 -66 -46 -63 -68 3 -24 46 -33 76 -17 18 9 19 7
14 -39 -4 -40 -1 -51 12 -56 23 -9 47 13 28 25 -21 13 -5 102 19 108 27 8 23
19 -15 42 -40 25 -34 25 -71 5z m15 -44 c-33 -26 -52 -25 -21 0 13 11 28 20
35 20 6 0 0 -9 -14 -20z"/>
<path d="M6518 9154 c-66 -35 -63 -134 3 -117 14 4 19 0 19 -14 0 -24 30 -53
53 -53 23 0 21 12 -4 33 -25 22 -21 49 16 107 14 22 21 41 17 43 -24 14 -80
15 -104 1z m43 -53 c-11 -20 -48 -38 -58 -28 -12 12 10 46 35 55 31 10 38 2
23 -27z"/>
<path d="M8750 9143 c-23 -30 -27 -85 -6 -102 29 -24 133 27 155 76 17 36 -7
39 -37 4 -29 -33 -80 -63 -94 -55 -15 9 -8 41 12 59 24 22 25 31 5 38 -8 4
-23 -5 -35 -20z"/>
<path d="M9660 9148 c-53 -36 -94 -134 -53 -126 9 2 22 21 30 43 12 38 73 92
73 66 0 -6 7 -11 16 -11 24 0 14 44 -11 48 -12 2 -36 -8 -55 -20z"/>
<path d="M11215 9155 c-54 -28 -73 -78 -39 -106 13 -11 22 -10 57 9 23 12 45
22 50 22 13 0 8 -99 -7 -134 l-14 -34 -59 5 c-56 5 -61 4 -90 -25 -42 -43 -62
-122 -39 -157 34 -52 102 -20 167 80 38 57 47 65 67 60 24 -6 52 9 52 27 0 6
-9 8 -19 5 -33 -8 -43 5 -30 42 10 28 6 198 -4 207 -14 12 -67 11 -92 -1z m45
-35 c0 -6 -15 -19 -32 -30 -39 -24 -53 -7 -18 22 24 20 50 24 50 8z m-33 -236
l22 -6 -29 -43 c-33 -48 -85 -95 -105 -95 -20 0 -25 25 -13 67 19 70 59 95
125 77z"/>
<path d="M3951 9131 c-34 -32 -40 -61 -16 -81 12 -10 21 -10 41 -1 33 15 31
15 38 -19 4 -21 11 -30 26 -30 17 0 18 3 9 24 -9 19 -8 35 5 71 8 26 13 51 10
56 -3 5 -22 9 -44 9 -28 0 -46 -7 -69 -29z m56 -26 c-15 -14 -36 -25 -45 -25
-13 1 -11 6 11 25 15 14 36 25 45 25 13 -1 11 -6 -11 -25z"/>
<path d="M4126 9148 c-2 -7 -11 -36 -20 -65 -19 -62 -19 -63 -3 -62 6 0 30 24
53 52 22 29 47 53 56 55 21 4 27 -26 11 -58 -17 -33 -17 -80 0 -80 15 0 41
103 35 141 -4 33 -52 39 -83 9 -20 -19 -23 -19 -22 -4 2 20 -21 31 -27 12z"/>
<path d="M14410 9139 c-14 -11 -38 -29 -54 -41 l-28 -21 7 22 c9 29 -18 38
-51 16 -25 -16 -25 -16 -15 4 15 27 14 33 -5 29 -8 -2 -30 -30 -48 -63 -18
-33 -39 -70 -47 -82 -9 -16 -10 -26 -3 -33 8 -8 28 7 69 52 32 34 53 53 47 41
-29 -53 -4 -57 66 -9 49 33 50 33 41 9 -14 -38 -11 -83 6 -83 10 0 15 10 15
30 0 16 11 54 24 84 31 69 23 83 -24 45z"/>
<path d="M10822 9081 c-23 -43 -29 -62 -20 -67 7 -4 16 0 22 10 6 10 25 40 43
67 31 47 31 49 10 49 -16 0 -30 -15 -55 -59z"/>
<path d="M13824 9071 c0 -15 3 -17 13 -9 7 6 10 14 7 19 -9 15 -20 10 -20 -10z"/>
<path d="M5274 8553 c-11 -41 -82 -186 -96 -195 -7 -4 -37 -8 -66 -8 -72 0
-66 -24 7 -28 45 -3 52 -6 46 -20 -23 -61 -37 -134 -31 -166 8 -41 52 -72 87
-61 26 9 18 31 -9 28 -14 -2 -28 7 -38 23 -15 22 -15 32 -5 77 6 29 20 71 30
93 l19 42 73 8 c47 6 74 14 77 23 4 12 -8 13 -67 7 -39 -3 -71 -4 -71 -1 0 2
16 37 35 78 34 72 45 127 25 127 -5 0 -13 -12 -16 -27z"/>
<path d="M10249 8528 c-8 -7 -32 -42 -53 -76 -30 -50 -36 -66 -26 -75 8 -8 14
-8 16 -2 2 6 24 41 49 79 42 64 50 103 14 74z"/>
<path d="M6183 8503 c-2 -10 -15 -43 -27 -73 -21 -53 -23 -55 -67 -60 -30 -3
-44 -10 -44 -20 0 -11 9 -14 38 -12 l38 4 -15 -30 c-8 -17 -18 -48 -22 -69 -5
-33 -2 -44 18 -67 14 -17 34 -28 53 -29 33 -2 47 15 18 23 -10 3 -27 10 -37
16 -25 15 -24 70 4 123 18 36 24 40 67 46 69 9 85 15 80 28 -5 13 -12 13 -74
4 l-41 -7 19 50 c10 28 19 59 19 70 0 25 -20 26 -27 3z"/>
<path d="M8136 8468 c-9 -20 -27 -50 -42 -67 -19 -23 -24 -35 -16 -43 7 -7 19
0 41 23 37 41 58 96 42 112 -7 7 -15 1 -25 -25z"/>
<path d="M8523 8478 c-6 -7 -29 -52 -51 -100 l-40 -87 -43 -3 c-34 -2 -45 -7
-47 -22 -3 -14 0 -18 14 -14 55 16 51 22 37 -65 -4 -28 -1 -42 12 -57 20 -22
74 -27 93 -8 21 21 13 28 -28 22 -32 -5 -41 -3 -46 10 -9 24 14 96 32 102 8 2
22 7 32 11 9 3 25 5 36 4 11 -2 17 2 14 11 -3 7 -19 13 -36 13 -18 0 -32 1
-32 1 0 1 18 41 40 89 22 48 40 91 40 96 0 13 -16 11 -27 -3z"/>
<path d="M9460 8476 c0 -16 -107 -265 -122 -283 -8 -10 -8 -17 0 -25 9 -9 22
-2 55 30 49 48 107 67 107 36 0 -11 -9 -36 -20 -57 -23 -42 -26 -67 -7 -67 15
0 57 90 57 123 0 46 -44 61 -100 32 l-28 -15 48 112 c27 62 46 116 44 120 -8
13 -34 9 -34 -6z"/>
<path d="M9858 8442 c-51 -40 -58 -52 -30 -52 23 0 102 60 102 77 0 22 -23 14
-72 -25z"/>
<path d="M6560 8435 c0 -8 9 -15 20 -15 11 0 20 7 20 15 0 8 -9 15 -20 15 -11
0 -20 -7 -20 -15z"/>
<path d="M4260 8372 c-88 -39 -127 -136 -75 -187 27 -28 85 -34 104 -12 16 19
4 26 -33 20 -70 -11 -88 57 -31 114 28 28 40 34 60 29 27 -7 34 11 13 32 -13
13 -16 14 -38 4z"/>
<path d="M2281 8335 c-39 -36 -71 -104 -71 -152 0 -13 12 -35 26 -50 22 -22
31 -24 66 -19 51 8 103 35 92 46 -5 5 -32 2 -63 -6 -52 -16 -54 -16 -75 6 -17
18 -18 23 -6 28 27 9 108 97 115 125 8 29 -8 57 -31 57 -8 0 -32 -16 -53 -35z
m48 -25 c-11 -29 -61 -80 -79 -80 -14 0 29 68 57 90 33 26 34 26 22 -10z"/>
<path d="M4925 8337 c-52 -29 -55 -54 -10 -97 52 -50 44 -80 -21 -80 -19 0
-26 6 -31 30 -6 34 -26 35 -31 3 -9 -58 92 -89 138 -43 24 24 25 43 4 64 -8 9
-12 16 -7 16 4 0 -8 13 -27 29 l-34 29 34 21 c19 11 43 21 53 21 9 0 17 7 17
15 0 22 -39 18 -85 -8z"/>
<path d="M4444 8328 c-69 -35 -95 -107 -54 -148 26 -26 63 -25 111 2 63 35 76
102 27 148 -26 24 -32 24 -84 -2z m76 -41 c13 -24 13 -28 -6 -54 -26 -35 -68
-51 -92 -37 -28 18 -26 51 5 81 15 16 27 30 26 33 -1 3 11 5 25 4 18 0 32 -10
42 -27z"/>
<path d="M6353 8321 c-10 -10 -24 -20 -32 -23 -13 -4 -39 -76 -44 -120 -4 -39
20 -19 50 41 41 83 54 96 81 82 28 -15 42 7 17 26 -26 18 -51 16 -72 -6z"/>
<path d="M4611 8308 c-4 -13 -11 -41 -15 -63 -5 -22 -12 -46 -18 -52 -11 -14
-4 -43 10 -43 5 0 15 13 22 30 15 35 91 120 109 120 23 0 24 -32 2 -76 -24
-50 -27 -74 -8 -74 15 0 57 96 57 131 0 50 -41 63 -96 30 -27 -16 -31 -17 -30
-4 2 26 -23 27 -33 1z"/>
<path d="M5895 8316 c-96 -30 -112 -64 -49 -104 46 -30 33 -47 -37 -46 -40 0
-49 -3 -47 -15 7 -37 139 -15 155 25 6 17 -5 30 -58 66 l-24 16 37 16 c21 9
49 16 63 16 19 0 26 5 23 17 -4 22 -16 24 -63 9z"/>
<path d="M6664 8298 c-15 -13 -34 -23 -42 -23 -8 0 -20 -17 -27 -39 -7 -21
-18 -43 -24 -49 -15 -15 -14 -37 3 -37 13 0 69 75 64 85 -4 5 63 55 74 55 14
0 8 -34 -11 -64 -11 -17 -18 -33 -15 -38 10 -16 42 12 58 52 29 73 -18 106
-80 58z"/>
<path d="M2611 8280 c-35 -58 -8 -122 39 -92 36 22 42 15 35 -40 -10 -79 -13
-85 -49 -92 -50 -10 -88 -55 -94 -115 -8 -86 14 -125 58 -101 24 13 68 86 81
135 6 19 16 35 24 35 17 0 20 21 6 36 -5 5 -6 32 -1 64 17 118 20 190 7 190
-7 0 -19 -16 -26 -36 -12 -33 -54 -65 -67 -51 -9 8 16 67 27 67 15 0 10 17 -6
24 -10 4 -22 -5 -34 -24z m49 -267 c-1 -40 -59 -143 -82 -143 -13 0 -9 82 5
110 11 22 49 49 70 50 4 0 7 -8 7 -17z"/>
<path d="M6850 8272 c-89 -86 -21 -148 84 -77 l34 23 7 -35 c7 -37 1 -90 -16
-159 -11 -41 -12 -42 -61 -46 -70 -7 -103 -41 -103 -107 0 -119 85 -105 148
26 19 38 24 42 53 40 18 -1 30 -6 27 -11 -3 -5 0 -7 6 -5 23 8 16 24 -17 39
-25 12 -31 20 -27 35 19 69 26 138 20 193 -5 51 -12 69 -36 93 -39 40 -69 37
-119 -9z m80 -1 c0 -5 3 -16 6 -25 4 -10 -7 -21 -35 -35 -22 -12 -45 -21 -51
-21 -20 0 -10 29 21 59 30 30 59 41 59 22z m0 -326 c0 -13 -40 -82 -60 -102
-26 -29 -36 -29 -43 -2 -10 38 4 79 32 94 26 14 71 20 71 10z"/>
<path d="M6497 8294 c-4 -4 -7 -16 -7 -26 0 -10 -10 -32 -21 -47 -20 -27 -19
-51 1 -51 13 0 62 89 58 107 -3 18 -20 27 -31 17z"/>
<path d="M7500 8285 c-38 -7 -55 -15 -55 -25 0 -9 7 -14 20 -12 11 2 48 6 83
9 41 3 62 10 62 18 0 18 -47 23 -110 10z"/>
<path d="M8819 8243 c-23 -32 -56 -70 -73 -85 -24 -21 -28 -29 -19 -39 9 -9
20 -4 49 25 20 20 37 36 39 36 2 0 5 -10 7 -22 4 -31 40 -35 78 -8 l30 21 0
-36 c0 -39 22 -46 28 -9 1 10 8 36 14 56 6 20 8 44 4 54 -6 15 -12 13 -44 -18
-20 -20 -47 -41 -59 -47 -21 -11 -23 -9 -23 12 0 12 9 40 20 62 24 47 25 55 5
55 -8 0 -33 -26 -56 -57z"/>
<path d="M9683 8285 c-12 -8 -29 -35 -38 -59 -14 -37 -15 -50 -5 -80 19 -57
40 -62 116 -27 35 16 64 34 64 39 0 21 -15 20 -59 -3 -57 -31 -79 -31 -90 -2
-8 19 -4 24 29 39 46 20 74 58 65 88 -8 24 -50 27 -82 5z m41 -38 c-6 -17 -34
-31 -43 -21 -3 3 5 14 18 25 26 21 35 20 25 -4z"/>
<path d="M10411 8271 c-25 -19 -24 -51 2 -51 23 0 49 26 46 45 -5 26 -20 28
-48 6z"/>
<path d="M8627 8248 c-43 -53 -45 -111 -6 -123 25 -8 67 19 88 57 12 21 12 28
0 54 -18 38 -57 43 -82 12z m52 -60 c-13 -23 -46 -41 -54 -28 -7 12 20 67 37
73 17 5 28 -24 17 -45z"/>
<path d="M9111 8233 c-40 -38 -47 -67 -22 -92 17 -17 34 -21 91 -21 55 0 70 3
70 15 0 11 -16 15 -67 17 -61 3 -68 5 -71 25 -4 27 32 53 75 53 23 0 33 5 33
15 0 28 -75 19 -109 -12z"/>
<path d="M7515 8218 c-84 -14 -95 -18 -95 -34 0 -13 6 -15 33 -9 17 4 66 9
107 10 76 3 105 19 53 30 -15 4 -32 8 -38 9 -5 1 -32 -1 -60 -6z"/>
<path d="M2854 8189 c-10 -17 13 -36 27 -22 12 12 4 33 -11 33 -5 0 -12 -5
-16 -11z"/>
<path d="M2425 8160 c-9 -15 3 -29 25 -27 23 1 25 8 8 25 -15 15 -25 15 -33 2z"/>
<path d="M10391 8131 c-6 -11 -11 -27 -11 -35 0 -8 -12 -27 -27 -41 -21 -19
-35 -24 -55 -19 -31 6 -35 -3 -15 -30 13 -17 15 -17 55 3 46 24 69 52 78 98 7
36 -10 53 -25 24z"/>
<path d="M9344 7696 c-57 -25 -108 -81 -148 -164 -35 -72 -43 -81 -77 -91 -43
-13 -51 -21 -40 -40 7 -10 12 -10 29 0 12 7 24 11 27 7 3 -3 -16 -50 -42 -104
-51 -107 -54 -115 -36 -121 6 -2 33 42 62 104 28 59 55 115 60 123 4 8 32 20
61 25 73 15 82 40 11 33 -28 -3 -51 -3 -51 -1 0 2 15 34 34 72 46 89 86 124
159 135 25 3 33 16 17 26 -20 13 -29 12 -66 -4z"/>
<path d="M11254 7680 c-65 -30 -103 -67 -187 -180 -106 -140 -136 -264 -87
-360 28 -57 58 -90 82 -90 25 0 23 7 -11 40 -104 104 -80 246 73 436 77 96
133 138 182 137 26 -1 34 3 34 17 0 30 -25 30 -86 0z"/>
<path d="M9082 7669 c-35 -25 -53 -51 -91 -128 -44 -89 -49 -96 -81 -101 -43
-6 -51 -28 -12 -32 l30 -3 -34 -75 c-37 -82 -40 -100 -21 -100 7 0 30 41 52
92 38 88 42 93 79 103 50 14 59 35 17 35 -17 0 -31 2 -31 4 0 10 61 132 72
146 25 30 76 60 103 60 37 0 27 24 -11 27 -19 2 -44 -8 -72 -28z"/>
<path d="M5866 7672 c-2 -4 -9 -35 -15 -68 -6 -33 -31 -121 -56 -194 -25 -74
-45 -141 -45 -150 0 -27 66 -42 106 -25 58 24 96 119 62 153 -19 19 -59 14
-86 -10 -23 -21 -25 -22 -18 -3 58 154 91 305 68 305 -6 0 -13 -3 -16 -8z m32
-328 c5 -32 -44 -84 -79 -84 -39 0 -37 17 7 69 38 44 67 50 72 15z"/>
<path d="M6367 7663 c-18 -21 -71 -133 -108 -230 -17 -44 -29 -63 -41 -63 -20
0 -23 -11 -8 -26 8 -8 5 -27 -10 -63 -24 -61 -25 -82 -6 -75 8 3 27 37 41 75
15 38 32 69 38 69 32 0 88 22 84 33 -5 13 -5 13 -54 4 l-33 -6 17 42 c30 80
94 211 105 218 6 4 19 2 29 -4 23 -14 37 -1 23 21 -15 24 -57 27 -77 5z"/>
<path d="M10213 7638 c-63 -56 -140 -150 -184 -226 -20 -35 -30 -41 -66 -47
-30 -4 -43 -11 -43 -22 0 -12 7 -14 35 -10 19 3 35 4 35 3 0 -2 -14 -34 -31
-71 -20 -44 -27 -71 -21 -77 14 -14 29 -3 36 27 4 14 17 49 30 77 22 47 27 51
62 55 21 2 40 6 42 8 10 9 -11 25 -34 25 -13 0 -24 4 -24 9 0 17 95 137 161
203 61 60 72 78 48 78 -5 0 -25 -15 -46 -32z"/>
<path d="M6640 7652 c-26 -8 -81 -65 -103 -107 -12 -22 -34 -69 -48 -105 -24
-59 -30 -65 -60 -70 -21 -3 -34 -11 -34 -20 0 -10 8 -14 23 -12 27 4 27 -4 2
-62 -12 -30 -15 -48 -9 -52 15 -9 25 4 47 61 14 35 25 49 36 47 9 -2 24 1 34
7 15 8 14 11 -10 20 l-27 10 28 69 c53 128 102 189 145 178 14 -3 27 -3 29 1
7 12 -36 40 -53 35z"/>
<path d="M8466 7644 c-9 -8 -16 -11 -16 -6 0 7 -12 6 -34 0 -36 -11 -50 -37
-40 -75 3 -11 -1 -32 -10 -45 -22 -34 -86 -215 -86 -243 0 -25 29 -37 31 -12
2 30 11 62 37 130 l27 72 55 3 c57 3 129 -18 150 -43 19 -23 3 -63 -48 -117
-85 -91 -197 -124 -248 -73 -25 26 -44 26 -44 0 0 -7 12 -23 26 -34 65 -51
212 -7 291 86 49 59 63 85 63 116 0 28 -47 73 -86 83 -34 9 -30 18 15 39 22 9
52 30 66 45 22 23 25 31 16 49 -6 11 -20 25 -31 31 -30 16 -116 12 -134 -6z
m130 -50 c-7 -17 -114 -69 -165 -79 -24 -5 -32 -4 -26 5 4 6 7 27 7 46 0 42
20 53 113 63 63 7 83 -3 71 -35z"/>
<path d="M5107 7633 c-3 -5 -8 -24 -12 -43 -4 -19 -17 -54 -28 -77 -22 -44
-28 -47 -94 -43 -24 1 -33 -3 -33 -14 0 -12 11 -16 44 -16 l43 0 -20 -58 c-23
-64 -19 -97 16 -137 24 -29 86 -40 94 -17 3 7 -4 12 -17 12 -25 0 -80 51 -80
74 0 8 9 40 21 70 l20 55 68 7 c50 5 68 10 68 21 0 12 -12 14 -57 11 l-57 -4
23 50 c25 53 31 101 15 111 -5 3 -12 2 -14 -2z"/>
<path d="M11710 7574 c0 -9 -21 -54 -46 -100 -48 -88 -54 -92 -127 -84 -13 1
-18 -4 -15 -17 3 -14 11 -17 41 -15 20 2 37 1 37 -2 0 -4 -14 -31 -31 -61 -17
-30 -28 -59 -24 -65 10 -16 21 -5 60 66 l37 66 51 -4 c41 -2 52 0 52 12 0 10
-13 16 -42 18 -24 2 -43 6 -43 9 0 3 18 38 40 78 42 76 50 115 25 115 -8 0
-15 -7 -15 -16z"/>
<path d="M11446 7524 c-19 -31 -32 -63 -29 -71 7 -17 39 -12 35 6 -1 7 11 33
28 57 33 50 37 64 16 64 -8 0 -30 -25 -50 -56z"/>
<path d="M13034 7515 c-37 -35 -45 -48 -36 -57 9 -9 22 -2 57 32 42 41 57 70
36 70 -5 0 -30 -20 -57 -45z"/>
<path d="M12396 7470 c-20 -43 -36 -84 -36 -90 0 -6 -7 -22 -16 -35 -9 -14
-14 -25 -10 -25 3 0 -3 -9 -14 -20 -21 -21 -27 -50 -10 -50 6 0 27 16 47 35
52 50 73 47 73 -11 0 -65 24 -53 28 14 3 48 1 53 -22 62 -14 5 -33 7 -41 4
-13 -5 -12 3 5 47 12 30 30 68 41 85 22 37 25 64 5 64 -7 0 -30 -36 -50 -80z"/>
<path d="M13290 7530 c0 -11 6 -20 14 -20 51 0 25 -184 -41 -300 -38 -66 -104
-142 -119 -136 -14 5 -23 -12 -17 -31 3 -7 11 -13 18 -13 19 0 110 105 145
165 66 117 90 277 49 329 -24 31 -49 34 -49 6z"/>
<path d="M12771 7502 c-30 -26 -41 -41 -33 -46 7 -4 25 3 41 16 16 13 36 28
46 34 11 6 15 15 11 22 -11 18 -17 15 -65 -26z"/>
<path d="M4130 7408 c-110 -74 -102 -187 13 -190 54 -1 107 18 107 38 0 12 -5
12 -32 1 -41 -16 -117 -8 -131 14 -26 42 64 140 113 124 18 -6 21 -3 18 12 -5
27 -48 28 -88 1z"/>
<path d="M6903 7410 c-17 -10 -37 -28 -43 -39 -6 -12 -17 -21 -24 -21 -7 0
-18 -22 -24 -51 -16 -66 -15 -79 3 -79 8 0 15 5 15 11 0 6 14 40 32 76 37 75
74 103 101 75 12 -12 20 -13 28 -5 8 8 5 17 -10 32 -26 26 -37 26 -78 1z"/>
<path d="M8658 7383 c-55 -124 -25 -193 63 -147 31 16 92 101 83 115 -10 16
-23 9 -39 -21 -20 -39 -65 -80 -89 -80 -16 0 -18 6 -14 38 3 21 15 57 27 81
11 24 18 48 15 52 -11 19 -26 7 -46 -38z"/>
<path d="M4802 7410 c-39 -9 -72 -36 -72 -60 0 -9 9 -26 20 -38 26 -28 25 -48
-4 -67 -28 -18 -52 -11 -59 17 -7 24 -27 15 -27 -12 0 -29 43 -53 80 -45 58
13 79 79 38 123 -23 23 -23 24 -4 38 11 8 32 14 47 14 15 0 30 4 33 9 10 16
-19 28 -52 21z"/>
<path d="M4504 7383 c-3 -10 -16 -44 -29 -75 -28 -67 -16 -89 22 -42 65 77 98
107 101 90 2 -10 -3 -34 -11 -55 -16 -38 -8 -77 11 -56 16 18 43 121 36 138
-9 23 -46 21 -78 -4 -25 -19 -27 -20 -24 -4 4 24 -20 31 -28 8z"/>
<path d="M5997 7365 c-20 -43 -22 -124 -3 -150 12 -16 17 -17 43 -6 40 17 92
71 95 100 5 37 -20 36 -35 -1 -14 -32 -54 -68 -77 -68 -15 0 -12 77 5 111 15
28 13 49 -4 49 -4 0 -15 -16 -24 -35z"/>
<path d="M6642 7366 c-69 -79 -51 -136 46 -152 29 -4 40 -2 44 8 4 9 -2 14
-17 16 -12 1 -36 7 -51 13 l-29 11 25 19 c60 48 61 50 58 82 -4 46 -36 48 -76
3z m48 -14 c0 -11 -12 -24 -26 -30 -27 -13 -26 -5 4 31 19 22 22 21 22 -1z"/>
<path d="M7506 7387 c-33 -7 -61 -18 -64 -26 -4 -11 8 -12 64 -5 38 4 87 8
109 8 29 1 40 5 40 16 0 19 -68 23 -149 7z"/>
<path d="M9512 7385 c-28 -10 -37 -21 -53 -66 -10 -30 -18 -60 -19 -67 0 -25
33 -7 43 23 23 70 78 113 111 86 19 -16 32 5 16 24 -15 17 -51 18 -98 0z"/>
<path d="M10175 7356 c-25 -25 -49 -46 -54 -46 -8 0 -31 -74 -31 -99 0 -28 27
-6 47 37 26 57 67 101 106 114 32 12 31 31 -1 36 -14 2 -36 -11 -67 -42z"/>
<path d="M4313 7368 c-48 -53 -57 -107 -21 -132 33 -23 72 -19 107 10 39 32
40 64 4 110 -32 40 -61 43 -90 12z m81 -86 c-17 -26 -59 -38 -78 -22 -21 16
-20 28 4 67 l19 32 33 -29 c27 -25 31 -33 22 -48z"/>
<path d="M10322 7360 c-41 -29 -72 -75 -72 -104 0 -9 11 -23 24 -31 22 -15 27
-15 54 -1 26 13 43 35 46 58 1 3 4 10 9 14 12 12 8 71 -7 83 -10 8 -23 4 -54
-19z m38 -39 c0 -26 -38 -71 -61 -71 -28 0 -23 19 13 57 36 38 48 41 48 14z"/>
<path d="M12581 7350 c-48 -48 -53 -79 -15 -109 30 -24 70 -27 111 -9 37 16
36 15 29 27 -4 6 -18 6 -42 0 -37 -11 -94 -4 -94 11 0 5 20 18 44 29 55 24 77
58 50 78 -27 20 -39 16 -83 -27z"/>
<path d="M9283 7360 c-38 -22 -53 -48 -53 -87 0 -41 17 -53 76 -53 62 0 85 7
78 24 -3 9 -21 11 -58 8 -55 -4 -85 11 -44 23 75 22 114 61 93 94 -10 17 -57
13 -92 -9z m48 -30 c-21 -18 -61 -28 -61 -15 0 8 54 34 70 34 10 0 8 -6 -9
-19z"/>
<path d="M13502 7368 c-16 -16 -15 -38 1 -38 17 0 37 20 37 37 0 16 -22 17
-38 1z"/>
<path d="M10516 7345 c-20 -13 -36 -20 -36 -15 0 17 -30 11 -36 -7 -3 -10 -14
-36 -24 -59 -12 -28 -15 -45 -9 -55 8 -11 13 -9 26 11 23 34 101 110 113 110
6 0 1 -18 -10 -40 -11 -21 -20 -44 -20 -50 0 -22 38 -8 90 35 30 24 55 43 56
42 1 -1 -3 -22 -9 -46 -10 -39 -10 -44 8 -57 23 -17 39 -14 43 9 2 10 -3 17
-12 17 -21 0 -20 5 5 57 20 42 20 73 0 73 -5 0 -32 -16 -61 -35 -29 -19 -54
-35 -56 -35 -2 0 1 12 6 26 19 50 -15 59 -74 19z"/>
<path d="M11777 7342 c-42 -44 -32 -92 19 -92 36 0 54 11 70 42 14 27 14 32
-1 54 -21 32 -55 31 -88 -4z m60 -37 c-9 -21 -36 -30 -50 -16 -9 9 -6 16 13
31 27 20 47 12 37 -15z"/>
<path d="M11952 7357 c-35 -41 -33 -107 3 -121 22 -8 75 16 104 47 31 34 32
101 2 82 -6 -3 -11 -17 -11 -30 0 -26 -42 -65 -71 -65 -23 0 -26 37 -4 66 8
10 15 22 15 27 0 12 -27 8 -38 -6z"/>
<path d="M12170 7353 c-57 -21 -79 -89 -38 -117 29 -20 84 -21 92 -1 3 8 12
15 20 15 7 0 16 7 20 15 4 11 -1 15 -18 15 -13 0 -29 -7 -36 -15 -14 -17 -38
-19 -59 -6 -23 15 -3 48 40 65 54 22 34 49 -21 29z"/>
<path d="M7523 7277 c-93 -9 -118 -19 -99 -38 3 -2 56 0 118 6 89 8 113 13
113 25 0 19 -8 19 -132 7z"/>
<path d="M9653 7253 c-7 -2 -13 -11 -13 -19 0 -11 8 -14 28 -12 16 2 27 9 27
18 0 15 -21 22 -42 13z"/>
<path d="M13475 7240 c-3 -5 -4 -14 -1 -19 9 -13 -24 -49 -63 -70 -38 -19 -52
-41 -28 -41 56 0 139 84 124 124 -7 18 -23 21 -32 6z"/>
<path d="M11049 6746 c-20 -18 -46 -47 -58 -64 -33 -47 -100 -204 -103 -242
-2 -25 -13 -42 -50 -74 -50 -43 -58 -56 -34 -56 20 0 77 50 71 61 -8 12 26 -1
45 -17 21 -17 110 -30 110 -15 0 6 1 14 3 17 1 3 -17 7 -41 9 -72 6 -77 19
-30 78 47 59 158 280 158 315 0 32 -28 28 -71 -12z m-33 -154 c-56 -108 -108
-178 -91 -122 29 97 133 272 143 241 2 -6 -22 -59 -52 -119z"/>
<path d="M9607 6753 c-3 -5 -8 -30 -12 -58 -3 -27 -16 -83 -27 -123 -24 -81
-36 -92 -109 -92 -21 0 -39 -4 -39 -10 0 -12 64 -24 90 -17 24 6 24 7 5 -63
-17 -64 -19 -110 -5 -110 12 0 11 -3 35 100 10 41 23 78 29 82 6 4 26 8 44 8
22 0 32 5 32 15 0 10 -11 15 -35 15 -19 0 -35 1 -35 3 0 1 9 30 19 65 24 79
38 192 23 192 -6 0 -13 -3 -15 -7z"/>
<path d="M7022 6730 c-111 -68 -222 -257 -222 -378 0 -66 42 -147 98 -189 45
-34 88 -50 100 -38 11 10 -30 36 -47 30 -9 -3 -12 -3 -9 1 4 4 -10 19 -31 34
-53 39 -76 90 -76 171 0 55 6 77 38 142 45 91 137 195 179 204 19 4 28 11 26
21 -5 23 -20 24 -56 2z"/>
<path d="M6172 6693 c-55 -70 -106 -183 -110 -246 -5 -59 -20 -81 -91 -128
-15 -9 -21 -20 -17 -27 9 -14 54 9 88 45 l21 22 33 -26 c34 -26 68 -26 58 1
-3 8 -14 16 -25 19 -32 8 -33 34 -3 69 15 18 34 49 42 68 17 40 62 204 62 226
0 26 -28 15 -58 -23z m-7 -114 c-15 -59 -58 -149 -72 -149 -3 0 -3 16 0 35 6
39 76 190 84 182 2 -3 -3 -34 -12 -68z"/>
<path d="M11886 6621 l-18 -100 -44 -3 c-24 -2 -44 -7 -44 -13 0 -10 8 -12 56
-14 19 -1 23 -9 29 -65 8 -76 27 -99 76 -94 47 4 50 28 5 28 -41 0 -45 5 -48
75 l-3 50 54 5 c76 7 81 30 6 30 l-56 0 7 38 c3 20 12 61 19 91 14 56 13 71
-8 71 -8 0 -20 -37 -31 -99z"/>
<path d="M12330 6711 c0 -5 11 -29 25 -52 60 -104 93 -277 63 -332 -22 -41
-69 -94 -128 -143 -55 -45 -75 -74 -50 -74 17 0 154 124 185 169 54 77 43 227
-27 366 -30 59 -68 96 -68 66z"/>
<path d="M5430 6684 c-6 -15 -15 -46 -20 -69 -5 -23 -23 -79 -40 -124 -37
-102 -43 -164 -16 -169 15 -3 18 0 13 19 -4 14 9 68 33 138 21 64 41 129 44
145 3 15 12 38 20 51 8 12 12 25 9 29 -14 14 -34 4 -43 -20z"/>
<path d="M12050 6685 c0 -8 5 -15 12 -15 8 0 10 -46 5 -175 -3 -96 -2 -177 3
-180 4 -3 17 10 29 28 11 18 31 43 45 56 32 30 51 18 60 -38 5 -36 30 -70 42
-58 8 8 -26 115 -42 132 -23 23 -53 18 -82 -12 l-27 -28 3 129 c4 148 0 176
-28 176 -11 0 -20 -7 -20 -15z"/>
<path d="M7670 6656 c0 -7 -7 -37 -17 -65 l-16 -52 -44 7 c-34 5 -43 3 -43 -9
0 -9 14 -17 36 -21 28 -6 34 -11 29 -24 -18 -48 -27 -101 -21 -125 7 -31 47
-51 78 -41 24 7 18 29 -9 30 -47 3 -53 22 -26 103 l16 51 59 0 c45 0 58 3 58
15 0 11 -12 15 -50 15 -27 0 -50 1 -50 3 0 1 7 20 15 42 19 53 19 85 0 85 -8
0 -15 -6 -15 -14z"/>
<path d="M8036 6624 c-10 -26 -7 -44 8 -44 14 0 29 37 20 52 -8 13 -21 9 -28
-8z"/>
<path d="M9940 6566 c0 -17 5 -26 16 -26 10 0 14 7 12 22 -5 32 -28 35 -28 4z"/>
<path d="M9255 6559 c-60 -34 -59 -71 5 -130 28 -25 50 -51 50 -57 0 -15 -53
-42 -81 -42 -14 0 -19 5 -16 14 3 8 -1 17 -9 20 -19 7 -30 -22 -17 -43 14 -23
49 -25 99 -6 71 27 71 67 -1 134 -25 23 -45 46 -45 51 0 22 51 43 91 37 34 -4
40 -3 37 11 -4 21 -82 28 -113 11z"/>
<path d="M4302 6521 c-66 -48 -89 -114 -61 -175 20 -42 128 -72 169 -46 22 14
6 22 -47 24 -66 2 -103 27 -103 69 0 59 62 127 115 127 9 0 15 6 13 13 -8 23
-44 18 -86 -12z"/>
<path d="M4803 6496 c-28 -29 -42 -37 -37 -24 4 15 2 19 -12 16 -12 -2 -22
-20 -31 -58 -8 -30 -17 -65 -20 -77 -10 -43 21 -24 55 32 39 64 80 115 93 115
14 0 11 -47 -6 -87 -19 -44 -19 -63 -1 -63 8 0 21 20 29 48 27 84 29 108 12
126 -24 24 -33 21 -82 -28z"/>
<path d="M5496 6509 c-54 -47 -68 -135 -28 -166 33 -27 142 -9 142 22 0 13 -5
14 -22 8 -36 -12 -101 -9 -105 5 -3 6 2 12 10 12 20 0 85 73 93 104 13 55 -36
63 -90 15z m45 -31 c-11 -18 -29 -39 -41 -47 -34 -23 -26 16 11 50 41 38 56
37 30 -3z"/>
<path d="M7353 6525 c-42 -18 -41 -36 2 -84 42 -46 43 -54 10 -69 -38 -17 -55
-15 -55 8 0 23 -13 26 -29 6 -27 -32 15 -63 73 -52 33 6 76 38 76 56 0 6 -16
27 -35 49 -19 21 -35 43 -35 49 0 16 59 26 75 12 21 -17 38 -3 25 21 -13 23
-60 25 -107 4z"/>
<path d="M4977 6502 c-12 -13 -14 -26 -8 -53 5 -21 4 -43 -1 -53 -9 -16 -12
-16 -33 -2 -31 20 -35 20 -35 -3 0 -11 12 -23 30 -31 28 -12 33 -10 55 10 22
21 24 29 19 72 l-7 48 32 0 c21 0 31 5 31 15 0 22 -63 20 -83 -3z"/>
<path d="M4530 6481 c-54 -53 -50 -123 8 -136 41 -9 109 21 127 55 44 85 -65
151 -135 81z m103 -10 c9 -1 9 -53 -1 -67 -4 -6 -24 -17 -45 -25 -33 -11 -39
-11 -54 3 -14 14 -14 21 -3 48 15 36 35 49 70 45 14 -2 28 -4 33 -4z"/>
<path d="M11133 6488 c-48 -53 -60 -123 -27 -159 19 -21 75 -26 119 -9 30 11
29 38 -1 31 -10 -3 -37 -5 -59 -5 -50 -1 -58 22 -15 46 40 22 54 55 41 91 -13
33 -31 34 -58 5z m7 -62 l-22 -21 18 35 c10 21 19 30 22 21 2 -7 -6 -23 -18
-35z"/>
<path d="M11373 6490 c-18 -11 -33 -25 -33 -32 0 -6 -6 -4 -13 7 -20 26 -26
12 -54 -127 -9 -48 20 -33 47 24 50 105 103 143 93 66 -4 -24 -10 -44 -14 -46
-15 -6 -10 -30 7 -36 25 -10 31 0 38 65 5 50 3 66 -11 81 -20 22 -21 22 -60
-2z"/>
<path d="M5183 6493 c-31 -6 -73 -59 -73 -92 0 -37 35 -81 64 -81 58 0 103
117 63 168 -10 12 -14 13 -54 5z m22 -112 c-19 -38 -41 -40 -57 -5 -15 33 6
75 42 84 22 5 25 2 28 -21 2 -15 -4 -42 -13 -58z"/>
<path d="M10087 6470 c-25 -22 -37 -26 -45 -18 -8 8 -13 6 -18 -8 -3 -10 -15
-43 -26 -72 -16 -40 -18 -56 -9 -65 13 -13 29 5 60 64 31 57 80 104 93 91 9
-9 7 -23 -10 -57 -25 -51 -28 -75 -9 -75 14 0 57 95 57 126 0 50 -44 57 -93
14z"/>
<path d="M11555 6467 c-38 -38 -43 -58 -19 -78 12 -10 25 -10 57 -2 23 6 45 9
49 7 13 -8 28 -77 28 -128 l0 -48 -44 6 c-61 9 -96 -1 -96 -28 0 -12 9 -54 20
-94 11 -39 20 -74 20 -77 0 -3 -13 -5 -30 -5 -28 0 -30 2 -30 41 0 27 -4 38
-11 33 -7 -4 -1 7 12 25 18 24 20 34 11 43 -20 20 -33 -4 -39 -70 l-6 -61 -35
-3 c-51 -4 -54 -28 -4 -28 l39 0 9 -67 c7 -50 13 -68 24 -68 8 0 14 5 13 11
-1 6 -5 34 -9 63 l-7 53 34 -3 c86 -6 106 14 136 127 17 67 19 69 47 66 34 -4
32 21 -2 26 -19 3 -22 10 -22 54 0 55 -25 169 -45 208 -21 39 -59 38 -100 -3z
m73 -19 c2 -11 -9 -20 -33 -28 -47 -16 -54 -8 -21 25 28 28 49 29 54 3z m2
-254 c30 -7 31 -8 25 -43 -8 -45 -43 -126 -51 -118 -10 9 -43 150 -38 159 6
10 21 10 64 2z"/>
<path d="M12654 6485 c-3 -8 -3 -19 1 -25 10 -16 45 7 39 25 -8 19 -33 19 -40
0z"/>
<path d="M6275 6480 c-3 -5 5 -25 19 -43 43 -56 30 -135 -21 -125 -24 4 -29
62 -9 93 20 30 20 35 1 35 -22 0 -47 -45 -47 -84 0 -44 17 -74 44 -78 60 -10
110 57 88 118 -20 54 -34 75 -47 69 -8 -2 -11 -1 -8 4 3 5 1 12 -4 15 -5 4
-12 2 -16 -4z"/>
<path d="M9754 6476 c-11 -9 -29 -12 -43 -9 -22 5 -23 3 -17 -20 4 -17 -1 -41
-16 -71 -12 -25 -19 -48 -15 -52 14 -14 36 7 61 59 27 59 44 71 82 61 30 -8
31 10 2 30 -27 20 -29 20 -54 2z"/>
<path d="M10261 6460 c-23 -17 -47 -41 -53 -55 -13 -28 -4 -71 16 -78 23 -9
73 9 114 42 l38 30 12 -70 c7 -38 12 -83 12 -99 0 -28 -3 -30 -38 -30 -44 0
-76 -20 -97 -60 -21 -40 -19 -73 6 -104 45 -57 103 -24 135 79 16 50 19 53 41
44 12 -4 23 -6 23 -3 0 2 9 0 20 -6 11 -6 25 -8 31 -5 18 11 -10 33 -50 40
l-38 6 -8 77 c-5 42 -9 105 -11 140 -1 35 -5 66 -9 70 -3 4 -15 -4 -25 -18
-19 -24 -20 -24 -20 -4 0 21 -17 34 -44 34 -7 0 -32 -14 -55 -30z m75 -22 c5
-17 -1 -28 -25 -50 -32 -29 -81 -38 -81 -15 1 18 26 48 57 69 36 23 40 23 49
-4z m48 -295 c-21 -88 -69 -129 -94 -82 -24 45 17 109 70 109 28 0 30 -2 24
-27z"/>
<path d="M7782 6421 c-18 -85 -18 -86 -3 -86 7 0 21 19 30 41 22 55 39 74 67
74 15 0 24 6 24 15 0 11 -12 15 -53 14 l-53 -2 -12 -56z"/>
<path d="M6483 6462 c-26 -4 -63 -47 -63 -73 0 -32 29 -50 74 -46 l41 5 -9
-93 -9 -93 -60 -4 c-69 -5 -87 -21 -87 -77 0 -43 30 -97 60 -106 42 -13 91 40
105 116 5 27 11 35 27 35 28 -1 34 20 7 27 -20 5 -21 9 -14 87 4 45 13 107 20
138 13 54 8 81 -13 68 -5 -3 -12 -19 -15 -35 -5 -25 -13 -31 -42 -37 -45 -8
-62 5 -46 35 13 23 40 28 58 10 14 -14 25 3 17 24 -7 19 -22 24 -51 19z m22
-364 c-15 -66 -46 -106 -72 -90 -16 11 -33 49 -33 76 0 31 23 45 73 46 38 0
39 0 32 -32z"/>
<path d="M8109 6448 c-18 -8 -32 -28 -49 -69 -13 -33 -20 -62 -16 -66 12 -13
41 13 52 46 11 35 50 79 60 68 4 -3 -1 -24 -10 -47 -19 -49 -20 -70 -3 -70 15
0 51 98 45 126 -4 22 -40 28 -79 12z"/>
<path d="M8293 6429 c-37 -23 -50 -53 -33 -74 17 -20 48 -19 93 4 l37 19 10
-37 c11 -40 13 -153 4 -188 -6 -20 -13 -23 -60 -23 -64 0 -94 -23 -94 -70 0
-17 9 -39 20 -50 44 -44 111 -20 140 50 10 23 17 27 48 26 27 -1 37 3 37 14 0
8 -6 14 -14 12 -7 -1 -20 0 -30 3 -14 4 -16 22 -16 122 0 99 -4 125 -22 164
-18 40 -25 46 -54 47 -19 1 -48 -8 -66 -19z m52 -38 c-6 -5 -23 -12 -40 -16
l-30 -6 30 25 c19 16 33 22 39 16 6 -6 6 -13 1 -19z m45 -298 c0 -5 -9 -23
-20 -40 -28 -47 -90 -42 -90 7 0 9 5 21 12 28 13 13 98 17 98 5z"/>
<path d="M7965 6428 c-22 -72 -26 -90 -21 -96 4 -3 13 1 22 10 20 19 32 98 15
98 -6 0 -13 -6 -16 -12z"/>
<path d="M9876 6428 c-18 -69 -22 -99 -14 -104 14 -9 27 7 34 45 5 25 4 32 -4
27 -7 -4 -12 -2 -12 3 0 6 7 11 15 11 8 0 15 7 15 15 0 18 -29 20 -34 3z"/>
<path d="M10602 6408 c-7 -7 -12 -18 -12 -25 0 -14 39 -38 48 -29 11 12 11 40
0 53 -13 16 -21 16 -36 1z"/>
<path d="M5690 6365 c-10 -13 -11 -18 -1 -28 10 -9 15 -8 27 7 8 11 14 23 14
28 0 14 -27 9 -40 -7z"/>
<path d="M8691 6347 c-5 -14 -13 -41 -16 -61 -4 -20 -16 -47 -26 -60 -22 -29
-24 -46 -5 -46 26 0 50 52 78 170 6 24 -22 22 -31 -3z"/>
<path d="M12645 6270 c6 -26 1 -36 -28 -65 -39 -39 -35 -68 6 -40 32 20 57 58
57 84 0 30 -11 51 -27 51 -11 0 -13 -7 -8 -30z"/>
<path d="M9809 6216 c-43 -29 -69 -87 -69 -150 0 -40 -3 -44 -31 -52 -34 -10
-36 -29 -3 -29 19 1 23 -6 27 -48 4 -48 23 -75 40 -58 5 5 4 19 -3 30 -6 12
-10 36 -8 54 3 29 6 32 40 35 53 4 60 32 8 32 -39 0 -40 1 -40 35 0 75 48 140
104 140 21 0 31 5 31 15 0 26 -56 23 -96 -4z"/>
<path d="M5417 6213 c-11 -18 -27 -179 -27 -271 0 -75 3 -94 16 -99 19 -7 41
11 25 21 -14 9 -14 135 0 248 8 61 9 92 2 99 -6 6 -13 7 -16 2z"/>
<path d="M7210 6199 c-84 -50 -171 -168 -197 -266 -18 -69 -11 -145 18 -192
19 -32 114 -99 132 -93 6 2 13 -2 17 -7 9 -15 52 -18 57 -4 2 6 -13 17 -34 24
-61 20 -132 69 -150 103 -27 51 -23 151 10 217 43 86 98 151 160 188 31 18 54
37 51 42 -8 14 -26 11 -64 -12z"/>
<path d="M10799 6173 c0 -21 -2 -45 -5 -53 -2 -8 -15 -64 -29 -125 -23 -103
-23 -111 -7 -123 15 -12 17 -10 20 15 1 15 14 84 27 152 29 145 31 171 10 171
-11 0 -15 -11 -16 -37z"/>
<path d="M6116 6153 c-45 -63 -70 -142 -62 -198 5 -41 3 -46 -31 -74 -27 -23
-34 -34 -26 -42 12 -12 41 -1 62 25 11 12 19 10 61 -16 47 -29 90 -34 97 -12
2 6 -13 14 -35 17 -22 4 -48 17 -62 32 l-23 25 20 23 c11 12 28 36 36 53 17
33 41 190 31 205 -12 20 -36 6 -68 -38z m30 -70 c-6 -56 -41 -133 -59 -133
-16 0 1 87 28 140 14 27 28 50 32 50 3 0 3 -25 -1 -57z"/>
<path d="M10013 6189 c-46 -13 -64 -47 -72 -131 -5 -63 -9 -73 -26 -74 -11 -1
-26 -2 -32 -3 -7 -1 -13 -8 -13 -16 0 -11 11 -15 36 -15 l36 0 -4 -52 c-2 -32
1 -53 9 -55 12 -4 26 45 25 90 0 16 4 27 11 26 24 -3 37 1 37 12 0 5 -5 7 -10
4 -34 -21 -55 90 -27 145 17 34 64 56 89 41 37 -23 55 -1 21 25 -21 15 -35 16
-80 3z"/>
<path d="M7916 6160 c-38 -34 -60 -81 -70 -152 -6 -41 -10 -47 -33 -50 -35 -4
-43 -28 -9 -28 23 0 25 -4 28 -47 4 -67 26 -68 30 -1 3 50 5 53 31 56 15 2 27
-1 27 -7 0 -6 13 -11 29 -11 28 0 28 -1 23 -50 -4 -41 -2 -50 12 -50 11 0 16
9 16 33 0 38 12 59 30 55 8 -2 16 5 18 14 2 13 -1 16 -12 12 -12 -5 -16 0 -16
17 0 41 26 137 45 165 15 23 21 26 56 20 30 -5 39 -3 39 8 0 26 -51 34 -93 15
-31 -14 -53 -61 -68 -144 -12 -65 -13 -65 -46 -65 -20 0 -32 4 -28 10 4 6 -6
10 -24 10 -29 0 -30 2 -25 33 17 95 49 147 90 147 28 0 42 19 23 31 -23 14
-37 10 -73 -21z"/>
<path d="M12085 6170 c-9 -15 4 -30 21 -23 21 8 78 -56 92 -104 30 -99 -2
-173 -105 -244 -45 -31 -72 -36 -91 -17 -9 9 -15 9 -24 0 -9 -9 -7 -16 7 -32
34 -37 113 -3 192 83 78 84 83 205 12 295 -34 44 -89 66 -104 42z"/>
<path d="M11815 6159 c-5 -17 -31 -164 -40 -231 -8 -59 13 -66 38 -13 20 41
47 47 47 10 0 -38 27 -95 44 -95 17 0 22 25 7 35 -6 3 -13 25 -16 50 -10 63
-26 82 -57 68 l-25 -11 13 78 c7 44 15 83 18 88 3 6 -1 15 -9 22 -12 10 -16 9
-20 -1z"/>
<path d="M9336 6144 c-3 -9 -6 -69 -6 -134 0 -69 -4 -121 -10 -125 -15 -9 -12
-61 5 -75 48 -40 193 68 164 122 -12 22 -67 24 -95 3 -10 -8 -22 -15 -26 -15
-3 0 -5 54 -3 120 2 92 -1 120 -10 120 -7 0 -16 -7 -19 -16z m124 -232 c0 -27
-73 -82 -109 -82 -23 0 -9 26 31 58 37 30 78 42 78 24z"/>
<path d="M7486 6123 c-3 -16 -10 -64 -16 -108 -7 -44 -17 -105 -24 -135 -15
-65 -7 -96 29 -110 33 -13 84 7 113 45 26 33 28 62 6 93 -19 28 -54 28 -89 0
l-28 -22 6 24 c4 14 12 61 18 105 7 44 15 84 19 88 11 13 0 47 -15 47 -8 0
-16 -12 -19 -27z m88 -246 c15 -23 -38 -77 -76 -77 -34 0 -35 7 -3 50 39 53
58 60 79 27z"/>
<path d="M5563 6044 c-32 -16 -58 -66 -49 -95 2 -8 7 -26 10 -41 8 -36 57 -62
100 -54 39 8 81 40 72 55 -10 15 -33 14 -39 -3 -9 -22 -56 -29 -83 -11 -24 15
-34 55 -14 55 6 0 30 9 55 21 33 16 45 27 45 43 0 46 -40 58 -97 30z m61 -22
c5 -8 -63 -46 -70 -40 -5 6 10 24 31 36 24 14 32 15 39 4z"/>
<path d="M10919 6001 c-46 -46 -50 -80 -14 -116 18 -19 35 -25 70 -25 33 0 45
4 45 15 0 11 -11 15 -38 15 -48 0 -83 31 -61 53 8 7 20 12 28 9 8 -3 19 1 25
9 6 8 18 14 26 14 19 0 25 32 10 50 -21 25 -50 17 -91 -24z m71 4 c0 -2 -13
-11 -30 -20 -25 -13 -29 -13 -24 -1 6 16 54 35 54 21z"/>
<path d="M4323 6020 c-57 -23 -67 -104 -19 -149 18 -17 33 -22 67 -19 56 4 57
22 2 26 -45 3 -58 13 -68 52 -8 35 14 61 59 69 20 3 38 11 39 16 3 13 -52 17
-80 5z"/>
<path d="M4979 6014 c-11 -13 -10 -23 5 -62 23 -59 30 -98 19 -105 -4 -3 -23
1 -42 9 -27 11 -31 17 -22 28 14 17 0 29 -24 20 -38 -15 6 -75 65 -89 60 -14
78 41 41 127 -20 47 -13 74 12 49 16 -16 37 -14 37 4 0 32 -68 47 -91 19z"/>
<path d="M5163 5990 c-16 -10 -38 -34 -47 -55 -18 -36 -17 -38 1 -64 41 -54
118 -53 137 2 8 22 5 37 -15 77 -13 27 -29 51 -35 54 -6 2 -25 -4 -41 -14z
m47 -57 c23 -30 23 -51 -2 -66 -24 -16 -68 6 -68 34 0 22 26 59 41 59 4 0 17
-12 29 -27z"/>
<path d="M12390 5991 c0 -12 6 -21 16 -21 9 0 14 7 12 17 -5 25 -28 28 -28 4z"/>
<path d="M4506 5969 c-31 -37 -32 -44 -6 -87 40 -65 99 -63 142 6 26 43 13 79
-32 89 -17 3 -33 10 -36 14 -11 18 -43 8 -68 -22z m79 -24 c36 0 45 -27 19
-56 -25 -28 -61 -24 -78 9 -16 31 -4 68 17 55 7 -4 25 -8 42 -8z"/>
<path d="M4705 5990 c-3 -5 -3 -19 0 -31 5 -15 10 -17 20 -9 15 12 14 42 -2
47 -6 2 -14 -1 -18 -7z"/>
<path d="M10112 5980 c-53 -33 -67 -83 -33 -115 24 -21 121 -27 128 -7 3 8 -6
12 -29 12 -18 0 -43 3 -55 6 -22 6 -21 7 10 28 22 15 33 31 35 53 4 39 -16 47
-56 23z m14 -46 c-11 -7 -22 -11 -25 -8 -3 3 3 12 13 20 11 7 22 11 25 8 3 -3
-3 -12 -13 -20z"/>
<path d="M10272 5973 c-20 -55 -22 -66 -17 -84 4 -11 15 -19 26 -19 20 0 24
10 10 26 -4 5 -4 24 1 42 8 31 11 33 38 27 17 -4 30 -3 30 2 0 17 -24 33 -51
33 -20 0 -29 -7 -37 -27z"/>
<path d="M4749 5957 c-35 -32 -66 -98 -54 -117 10 -16 20 -5 54 54 16 30 35
58 42 61 17 11 29 -15 29 -63 0 -60 24 -51 28 11 6 89 -35 112 -99 54z"/>
<path d="M6283 5984 c-22 -10 -55 -73 -48 -94 16 -49 77 -67 123 -34 22 15 31
62 15 78 -5 4 -8 18 -8 29 0 18 -6 22 -35 24 -19 1 -40 0 -47 -3z m55 -57 c21
-14 14 -46 -13 -53 -35 -9 -55 2 -55 29 0 13 2 26 5 28 7 8 49 5 63 -4z"/>
<path d="M7662 5978 c-17 -17 -15 -90 4 -116 10 -14 24 -22 37 -20 24 3 69 64
65 87 -5 26 -23 21 -38 -12 -23 -49 -45 -42 -45 15 0 52 -6 63 -23 46z"/>
<path d="M9522 5958 c-18 -67 17 -105 81 -87 37 10 53 36 45 75 -6 32 -27 27
-30 -8 -3 -29 -7 -33 -37 -36 l-34 -3 6 45 c5 36 4 46 -8 46 -8 0 -18 -15 -23
-32z"/>
<path d="M11269 5961 c-32 -32 -37 -62 -14 -81 13 -11 31 -11 74 1 16 4 40
-74 41 -128 0 -32 -2 -33 -38 -33 -59 0 -75 -24 -70 -105 3 -55 8 -70 32 -93
l27 -27 23 26 c13 15 28 54 36 88 11 54 16 61 36 61 29 0 32 20 4 27 -16 4
-20 14 -20 44 0 54 -40 232 -54 241 -22 15 -48 8 -77 -21z m61 -21 c0 -21 -44
-49 -57 -37 -7 8 35 57 49 57 4 0 8 -9 8 -20z m26 -287 c-10 -63 -26 -113 -37
-113 -22 0 -38 94 -23 134 4 10 18 16 36 16 30 0 30 -1 24 -37z"/>
<path d="M11130 5965 c-9 -11 -16 -12 -25 -5 -17 14 -22 4 -26 -50 -5 -61 20
-66 44 -8 20 50 34 42 39 -21 2 -25 9 -46 16 -49 18 -6 16 98 -4 126 -18 26
-27 27 -44 7z"/>
<path d="M8150 5943 c-77 -65 -55 -126 58 -158 26 -7 52 9 52 33 0 11 -8 13
-38 8 -27 -4 -45 -1 -61 10 l-22 16 41 20 c25 13 42 29 46 44 15 57 -24 71
-76 27z m31 -34 c-35 -28 -51 -22 -17 7 15 14 31 22 35 19 3 -4 -5 -15 -18
-26z"/>
<path d="M8423 5945 c-38 -16 -55 -45 -51 -88 4 -43 34 -45 31 -2 -3 37 22 65
57 65 33 0 43 9 29 27 -14 16 -25 16 -66 -2z"/>
<path d="M6530 5924 c-74 -50 -64 -124 17 -124 26 0 36 -5 40 -20 3 -11 9 -20
12 -20 4 0 8 -6 8 -12 1 -7 4 -32 8 -55 7 -42 7 -43 -19 -43 -42 0 -95 -27
-107 -53 -15 -34 26 -118 64 -131 54 -19 85 17 102 117 6 36 7 37 51 37 60 0
55 23 -6 30 -42 5 -45 7 -52 45 -5 22 -12 49 -17 60 -5 11 -13 32 -19 47 -9
22 -18 27 -54 30 -34 2 -43 7 -43 22 0 10 12 28 27 39 22 16 30 18 42 8 19
-16 32 4 16 24 -16 20 -40 19 -70 -1z m93 -341 c-9 -55 -21 -83 -39 -90 -23
-8 -54 27 -61 69 -5 35 -4 37 28 46 19 6 44 11 56 11 20 1 21 -3 16 -36z"/>
<path d="M10426 5903 c-8 -19 8 -38 23 -29 16 10 13 46 -3 46 -8 0 -17 -8 -20
-17z"/>
<path d="M8794 5898 c-4 -6 -2 -14 4 -16 7 -2 17 -12 22 -23 14 -25 -5 -60
-68 -126 -39 -40 -46 -53 -34 -58 29 -11 142 121 142 166 0 18 -37 69 -50 69
-5 0 -12 -5 -16 -12z"/>
<path d="M12375 5857 c6 -40 4 -46 -25 -70 -17 -15 -38 -27 -46 -27 -8 0 -14
-7 -14 -15 0 -40 89 7 114 60 15 32 15 37 1 65 -23 44 -37 38 -30 -13z"/>
<path d="M5810 5877 c0 -21 11 -27 31 -16 27 14 23 29 -6 29 -14 0 -25 -6 -25
-13z"/>
</g>
</svg>
