<?xml version="1.0" standalone="no"?>
<!DOCTYPE svg PUBLIC "-//W3C//DTD SVG 20010904//EN"
 "http://www.w3.org/TR/2001/REC-SVG-20010904/DTD/svg10.dtd">
<svg version="1.0" xmlns="http://www.w3.org/2000/svg"
 width="1872.000000pt" height="528.000000pt" viewBox="0 0 1872.000000 528.000000"
 preserveAspectRatio="xMidYMid meet">

<g transform="translate(0.000000,528.000000) scale(0.100000,-0.100000)"
fill="#000000" stroke="none">
<path d="M2992 4518 c-7 -7 -12 -27 -12 -46 0 -53 -27 -144 -87 -294 -76 -191
-64 -216 41 -80 63 81 78 82 52 2 -9 -27 -16 -57 -16 -68 0 -25 25 -46 45 -38
13 4 14 10 5 26 -9 16 -7 33 5 71 18 52 14 99 -10 119 -11 9 -21 7 -46 -11
-20 -14 -30 -17 -26 -8 74 182 103 381 49 327z"/>
<path d="M15814 4482 c-6 -4 -13 -16 -17 -27 -19 -68 -85 -235 -128 -324 -27
-57 -49 -107 -49 -112 0 -16 35 -9 46 9 14 22 122 97 129 90 3 -3 -2 -22 -12
-42 -15 -33 -16 -40 -3 -63 20 -35 46 -51 61 -36 8 8 5 16 -12 32 -21 20 -22
22 -6 58 8 21 18 55 22 76 8 47 -8 49 -80 8 l-52 -29 37 91 c20 51 45 113 54
140 10 26 22 47 27 47 11 0 12 77 1 84 -4 2 -13 2 -18 -2z"/>
<path d="M14025 4467 c-2 -6 -11 -46 -20 -87 -10 -41 -44 -135 -77 -209 -32
-73 -58 -143 -56 -154 4 -29 38 -36 38 -8 0 12 25 78 56 147 50 115 94 251 94
295 0 20 -29 34 -35 16z"/>
<path d="M2670 4446 c-8 -8 -232 -12 -275 -4 -14 2 -20 -3 -20 -17 0 -17 9
-21 60 -27 33 -4 99 -5 148 -1 l87 6 -6 -34 c-3 -19 -28 -101 -55 -182 -39
-119 -46 -153 -39 -173 13 -33 35 -26 36 12 1 16 17 74 37 129 19 55 42 134
52 177 16 75 17 76 52 83 19 3 61 6 92 5 31 -1 62 -1 69 -1 20 1 14 29 -8 36
-28 9 -219 2 -230 -9z"/>
<path d="M13711 4438 c-20 -54 -81 -255 -81 -269 0 -8 -10 -19 -22 -24 -71
-31 -52 -149 22 -147 69 2 164 98 140 141 -13 25 -40 27 -81 6 l-30 -16 7 28
c4 15 22 75 40 132 19 56 35 117 37 133 3 38 -19 49 -32 16z m-1 -353 c-32
-33 -83 -59 -94 -48 -10 10 91 81 118 83 6 0 -5 -16 -24 -35z"/>
<path d="M15584 4448 c-4 -7 -9 -31 -10 -53 0 -22 -21 -87 -45 -144 -46 -109
-58 -121 -120 -121 -23 0 -29 -4 -29 -21 0 -19 5 -21 40 -17 22 2 40 3 40 3 0
0 -9 -26 -20 -58 -11 -31 -20 -70 -20 -87 0 -23 4 -30 20 -30 16 0 20 7 21 33
0 17 10 59 23 92 19 51 27 60 50 63 34 4 44 27 22 50 -14 17 -13 24 20 99 41
97 54 172 31 191 -12 11 -17 11 -23 0z"/>
<path d="M8846 4428 c-10 -38 -31 -97 -52 -143 -19 -45 -29 -55 -61 -65 -21
-7 -42 -17 -48 -22 -14 -13 15 -28 42 -22 21 6 21 6 7 -43 -21 -67 -13 -152
18 -176 16 -14 31 -17 57 -12 49 9 113 44 108 58 -5 16 -31 13 -89 -9 -26 -10
-50 -16 -53 -12 -17 17 -17 93 0 149 17 57 20 60 44 56 59 -12 66 -12 66 3 0
8 -15 22 -32 30 -18 8 -33 18 -33 22 0 3 14 36 30 73 33 74 39 125 15 125 -9
0 -17 -6 -19 -12z"/>
<path d="M13226 4385 c-14 -30 -35 -86 -47 -125 l-23 -70 -41 0 c-38 0 -65
-13 -65 -31 0 -5 22 -9 48 -11 l49 -3 -14 -69 c-8 -39 -21 -75 -29 -81 -17
-12 -10 -41 11 -49 22 -8 34 17 53 105 17 78 20 84 45 87 32 4 37 31 7 39 -27
7 -26 17 21 137 22 58 38 110 34 116 -13 21 -26 9 -49 -45z"/>
<path d="M10601 4404 c-32 -27 -40 -61 -19 -82 15 -15 73 -16 100 -1 17 9 19
17 13 47 -13 68 -43 80 -94 36z m37 -52 c-29 -5 -34 6 -12 22 17 13 20 12 25
-2 4 -12 0 -18 -13 -20z"/>
<path d="M10837 4307 c-194 -244 -290 -390 -285 -433 4 -39 30 -38 38 1 11 50
141 240 287 417 34 43 63 81 63 87 0 5 -7 11 -15 15 -10 4 -38 -23 -88 -87z"/>
<path d="M5816 4373 c-3 -10 -10 -48 -17 -86 -9 -57 -14 -68 -34 -73 -13 -3
-33 -3 -43 1 -26 7 -38 -11 -21 -31 8 -10 25 -14 47 -12 30 4 33 2 27 -19 -3
-12 -8 -49 -11 -81 -8 -68 7 -87 65 -85 39 2 131 39 131 53 0 20 -24 20 -81 1
-85 -30 -88 -27 -68 85 l11 62 57 7 c66 8 87 17 76 35 -6 9 -25 11 -66 6 l-59
-6 7 43 c11 63 9 110 -4 114 -6 2 -14 -4 -17 -14z"/>
<path d="M9967 4327 c-34 -36 -51 -46 -87 -52 -25 -4 -69 -17 -97 -30 -45 -20
-53 -28 -53 -50 0 -18 6 -29 20 -32 11 -3 20 -14 20 -25 0 -11 4 -27 9 -37 8
-13 -1 -40 -36 -109 -25 -50 -43 -98 -39 -107 7 -19 36 -20 36 -1 0 8 19 51
41 95 l42 81 54 0 c49 0 59 4 89 34 30 30 34 41 34 84 0 32 -5 54 -15 62 -22
18 -19 33 15 65 17 16 30 34 30 41 0 30 -24 23 -63 -19z m-114 -153 c-25 -40
-38 -53 -41 -42 -5 24 26 78 44 78 8 0 17 7 21 15 3 9 7 14 10 12 2 -3 -13
-31 -34 -63z m107 5 c0 -48 -27 -79 -70 -79 -16 0 -30 2 -30 5 0 3 12 24 26
48 54 87 74 94 74 26z m-179 4 c-8 -15 -10 -15 -11 -2 0 17 10 32 18 25 2 -3
-1 -13 -7 -23z"/>
<path d="M10302 4298 c-59 -60 -62 -61 -62 -36 0 72 -98 39 -138 -47 -14 -28
-24 -69 -24 -95 -1 -40 -7 -52 -54 -103 -72 -80 -107 -134 -100 -152 9 -24 30
-17 44 14 7 17 42 61 77 99 l64 69 49 -5 c44 -4 53 -1 83 26 31 28 34 35 33
87 0 55 1 56 59 115 54 54 66 79 41 87 -5 2 -37 -25 -72 -59z m-105 -69 c9 -9
1 -25 -34 -66 -25 -29 -47 -52 -49 -50 -8 7 18 77 37 101 23 29 30 31 46 15z
m43 -79 c0 -37 -31 -70 -65 -70 -14 0 -25 3 -25 7 0 7 81 93 87 93 2 0 3 -13
3 -30z"/>
<path d="M15345 4336 c-20 -29 -10 -51 18 -41 22 9 28 30 13 51 -12 16 -14 16
-31 -10z"/>
<path d="M7453 4294 c-3 -8 1 -23 10 -32 15 -14 17 -14 23 1 8 21 -1 47 -16
47 -6 0 -13 -7 -17 -16z"/>
<path d="M9609 4288 c-1 -7 -1 -17 0 -21 1 -4 -21 -59 -49 -121 -42 -96 -49
-118 -40 -140 14 -38 40 -34 38 7 0 19 19 75 46 136 26 57 46 113 44 125 -3
23 -37 36 -39 14z"/>
<path d="M13450 4260 c0 -25 4 -30 25 -30 15 0 25 6 25 14 0 28 -12 46 -31 46
-14 0 -19 -7 -19 -30z"/>
<path d="M14970 4209 c-30 -22 -72 -51 -92 -65 -21 -15 -38 -32 -38 -39 0 -29
30 -21 84 22 31 25 59 43 62 40 3 -2 -9 -37 -27 -75 -46 -104 -27 -129 54 -73
33 22 46 26 59 18 23 -15 50 11 77 74 23 52 21 69 -8 69 -12 0 -20 -12 -27
-42 -8 -37 -12 -43 -32 -40 -13 1 -36 -7 -52 -18 -35 -25 -44 -25 -31 -2 10
19 51 141 51 153 0 21 -31 12 -80 -22z"/>
<path d="M6406 4225 c-7 -19 32 -41 47 -26 7 7 6 15 -3 26 -16 19 -36 19 -44
0z"/>
<path d="M6703 4218 c-48 -34 -58 -59 -39 -95 8 -17 26 -37 39 -46 62 -40 72
-67 32 -85 -39 -18 -105 -16 -105 4 0 26 -54 14 -58 -13 -5 -31 36 -46 111
-41 67 5 110 32 115 72 3 22 -8 38 -54 83 l-58 55 29 24 c23 19 37 23 63 18
24 -5 32 -3 32 8 0 42 -58 50 -107 16z"/>
<path d="M3233 4223 c-20 -8 -98 -115 -111 -152 -20 -57 9 -84 90 -83 47 1
144 28 154 43 15 24 -14 30 -71 14 -59 -18 -116 -22 -134 -10 -18 11 5 42 36
48 39 8 93 60 93 90 0 13 -8 31 -18 40 -20 18 -20 18 -39 10z m2 -73 c-10 -11
-20 -18 -23 -15 -3 3 3 14 13 25 10 11 20 18 23 15 3 -3 -3 -14 -13 -25z"/>
<path d="M14125 4183 c-48 -32 -64 -52 -65 -76 0 -10 -7 -25 -15 -34 -14 -14
-14 -17 5 -37 11 -11 31 -33 44 -48 14 -16 34 -28 45 -28 26 0 185 121 189
143 6 30 -26 19 -84 -28 -95 -77 -101 -81 -124 -60 -30 27 -25 49 14 63 40 15
64 39 75 80 17 56 -21 68 -84 25z m39 -37 c-5 -12 -46 -36 -62 -36 -9 1 51 50
60 50 4 0 5 -6 2 -14z"/>
<path d="M4182 4153 c-48 -49 -74 -107 -65 -143 7 -25 59 -58 98 -61 61 -4
112 1 131 15 31 23 6 35 -56 26 -58 -7 -125 4 -115 21 4 5 15 9 25 9 28 0 110
82 110 109 0 25 -42 71 -65 71 -9 0 -37 -21 -63 -47z m82 -10 c10 -24 -54 -86
-84 -81 -21 3 -20 6 20 51 46 51 55 56 64 30z"/>
<path d="M5129 4168 c-24 -19 -53 -50 -64 -70 -19 -36 -19 -37 -1 -57 34 -38
144 -54 181 -28 29 22 10 35 -42 30 -26 -3 -59 -1 -72 4 -23 9 -22 10 23 37
48 28 68 65 49 94 -16 26 -29 24 -74 -10z"/>
<path d="M8226 4165 c-26 -20 -48 -30 -52 -24 -12 19 -26 3 -45 -51 -23 -66
-23 -70 -1 -70 9 0 28 16 42 35 30 42 113 110 118 96 2 -5 -11 -37 -28 -71
-35 -70 -37 -115 -5 -115 15 0 19 6 18 23 -2 12 11 49 27 82 32 63 37 99 18
118 -20 20 -44 14 -92 -23z"/>
<path d="M12568 4151 c-34 -37 -51 -48 -66 -44 -26 6 -36 -13 -58 -108 -9 -41
-32 -103 -51 -138 -26 -49 -31 -66 -22 -77 17 -21 31 -5 84 99 65 127 80 145
126 159 79 23 118 84 89 139 -18 33 -53 23 -102 -30z m70 -12 c-3 -22 -53 -67
-63 -58 -7 7 44 79 56 79 6 0 9 -10 7 -21z"/>
<path d="M4871 4171 c-10 -10 -21 -25 -23 -32 -4 -10 -11 -7 -25 11 -17 20
-23 22 -36 12 -15 -13 -12 -52 3 -52 24 0 -12 -209 -42 -247 -12 -15 -2 -33
18 -33 17 0 47 61 64 132 10 39 17 48 40 53 42 9 105 58 119 92 8 21 9 37 2
56 -9 24 -16 27 -56 27 -31 0 -51 -6 -64 -19z m89 -32 c0 -17 -66 -79 -84 -79
-20 0 -20 3 4 50 17 33 26 40 50 40 17 0 30 -5 30 -11z"/>
<path d="M12108 4175 c-35 -20 -120 -124 -116 -143 6 -29 25 -23 51 15 32 47
75 93 87 93 15 0 12 -28 -6 -67 -34 -70 11 -61 114 23 l33 27 -11 -28 c-6 -15
-8 -36 -4 -47 5 -16 14 -19 52 -16 35 2 48 7 50 21 3 13 -3 17 -28 17 -32 0
-32 0 -25 38 12 61 11 67 -12 70 -14 2 -36 -10 -61 -32 -22 -20 -42 -36 -46
-36 -3 0 -6 13 -6 30 0 19 -7 33 -19 40 -24 12 -20 12 -53 -5z"/>
<path d="M5364 4145 c-26 -28 -34 -45 -34 -74 0 -46 19 -65 63 -65 43 0 127
33 127 50 0 18 -27 18 -81 -1 -52 -19 -69 -14 -69 18 0 27 24 52 49 52 24 0
25 32 1 45 -19 10 -26 7 -56 -25z"/>
<path d="M7564 4145 c-29 -29 -25 -41 30 -94 20 -19 36 -38 36 -43 0 -4 -18
-13 -40 -19 -36 -11 -42 -10 -55 7 -10 14 -17 16 -25 8 -37 -37 26 -74 91 -55
80 24 89 65 28 123 -48 46 -43 62 17 53 36 -5 44 -3 44 9 0 41 -88 49 -126 11z"/>
<path d="M8423 4163 c-7 -3 -13 -13 -13 -22 0 -10 -9 -26 -19 -35 -25 -23 -43
-68 -39 -98 2 -18 10 -24 37 -26 60 -6 111 40 111 100 -1 36 -52 90 -77 81z
m37 -81 c0 -27 -29 -62 -51 -62 -26 0 -24 12 7 49 29 35 44 39 44 13z"/>
<path d="M12767 4111 c-59 -63 -64 -101 -14 -101 18 0 42 7 53 15 24 18 34 19
34 1 0 -23 41 -48 57 -34 11 9 10 14 -6 30 -22 20 -20 36 13 81 25 34 15 45
-45 53 -43 6 -45 5 -92 -45z m87 6 c-5 -13 -38 -41 -73 -62 -7 -4 -3 7 10 25
19 26 41 42 66 49 1 1 0 -5 -3 -12z"/>
<path d="M4625 4121 c-35 -15 -45 -16 -75 -5 -19 7 -43 13 -52 13 -29 1 -20
-29 12 -42 l29 -13 -34 -27 c-41 -33 -57 -58 -46 -76 6 -9 24 2 66 38 32 28
62 51 67 51 4 0 26 -16 48 -36 59 -53 87 -24 30 31 l-30 29 25 14 c25 13 30
32 9 39 -5 1 -27 -6 -49 -16z"/>
<path d="M11528 4107 c-77 -59 -80 -105 -10 -149 48 -30 150 -32 181 -4 30 27
12 41 -32 27 -45 -15 -112 -4 -144 23 l-25 22 42 38 c30 27 45 35 53 27 15
-15 47 -14 47 2 0 18 -32 47 -53 47 -8 0 -35 -15 -59 -33z"/>
<path d="M15226 4097 c-19 -51 -20 -77 -3 -77 12 0 57 75 57 96 0 10 -21 24
-34 24 -2 0 -11 -19 -20 -43z"/>
<path d="M7358 4082 c-27 -60 -30 -125 -5 -130 13 -3 17 3 17 22 0 14 9 49 20
78 24 64 24 64 4 72 -11 4 -21 -7 -36 -42z"/>
<path d="M11772 4108 c-18 -23 -9 -108 13 -124 38 -28 104 11 105 62 0 37 -37
74 -75 74 -18 0 -37 -6 -43 -12z m78 -62 c0 -7 -7 -19 -15 -26 -19 -16 -41 1
-32 24 8 20 47 21 47 2z"/>
<path d="M6470 4003 c0 -102 -1 -108 -34 -167 -19 -34 -48 -74 -64 -89 l-29
-28 -22 36 c-11 20 -26 33 -31 30 -28 -17 15 -105 52 -105 30 0 96 73 136 149
29 58 32 72 32 157 0 101 -5 124 -26 124 -11 0 -14 -22 -14 -107z"/>
<path d="M13322 4058 c2 -24 -1 -33 -12 -33 -21 0 -24 -7 -16 -32 12 -36 33
-35 56 4 27 46 23 87 -8 91 -21 3 -23 0 -20 -30z"/>
<path d="M6170 4006 c0 -14 21 -26 46 -26 8 0 14 9 14 20 0 16 -7 20 -30 20
-19 0 -30 -5 -30 -14z"/>
<path d="M10683 3930 c-24 -10 -31 -34 -13 -45 6 -3 10 -15 10 -25 0 -22 36
-50 63 -50 10 0 32 13 48 29 23 24 27 34 20 53 -15 41 -76 59 -128 38z m86
-44 c10 -12 8 -17 -9 -26 -29 -16 -45 -2 -24 21 20 23 19 22 33 5z"/>
<path d="M2984 3855 c-21 -32 -37 -89 -64 -219 -17 -84 -19 -110 -10 -122 20
-23 37 -17 85 27 l45 42 -6 -70 c-7 -77 4 -113 36 -113 23 0 25 12 9 39 -9 13
-9 42 -2 107 15 135 9 140 -76 59 l-58 -55 23 109 c24 114 44 174 63 185 14 9
3 36 -15 36 -7 0 -21 -11 -30 -25z"/>
<path d="M5564 3773 c-23 -72 -43 -93 -93 -93 -57 0 -101 -18 -101 -42 0 -17
4 -19 23 -13 12 4 43 10 69 12 l47 5 -14 -53 c-22 -82 -1 -135 66 -170 45 -23
88 -24 115 -5 26 19 12 30 -34 28 -46 -3 -103 31 -112 68 -9 34 13 120 36 137
10 7 36 13 58 13 23 0 47 4 55 9 25 16 1 31 -49 31 l-48 0 15 49 c16 47 13 81
-6 81 -5 0 -17 -26 -27 -57z"/>
<path d="M3595 3761 c-9 -16 3 -31 26 -31 14 0 19 6 17 17 -4 20 -33 29 -43
14z"/>
<path d="M2654 3644 c-17 -8 -48 -30 -67 -48 -86 -78 -47 -152 78 -150 70 1
155 33 155 60 0 11 -6 15 -17 11 -139 -39 -138 -39 -181 -28 -60 17 -53 48 22
101 48 32 75 37 94 18 17 -17 36 4 27 31 -8 26 -64 29 -111 5z"/>
<path d="M3993 3577 c-45 -46 -53 -60 -53 -91 0 -48 13 -72 51 -92 56 -28 178
-11 203 29 17 26 0 31 -45 13 -78 -31 -169 -14 -169 32 0 14 9 17 50 17 40 0
55 5 76 26 24 25 25 29 14 63 -11 34 -35 56 -61 56 -7 0 -36 -24 -66 -53z m97
-29 c0 -12 -36 -28 -64 -28 -34 0 -33 13 6 45 30 25 33 26 45 9 7 -10 13 -21
13 -26z"/>
<path d="M4892 3580 c-114 -82 -80 -180 63 -180 33 0 66 4 74 9 27 17 -1 31
-63 31 -49 0 -69 5 -87 20 -16 13 -18 18 -7 14 9 -3 34 0 54 6 48 16 73 69 49
106 -20 31 -33 30 -83 -6z m48 -39 c-6 -12 -15 -21 -20 -21 -4 0 -17 -3 -27
-6 -11 -4 -5 6 15 26 37 34 50 34 32 1z"/>
<path d="M5181 3596 c-31 -17 -71 -83 -71 -117 0 -15 9 -37 19 -50 17 -22 27
-24 97 -24 66 0 79 3 82 17 3 15 -7 18 -69 20 -90 4 -105 19 -74 75 26 48 53
64 66 41 6 -10 17 -18 24 -18 19 0 19 29 1 53 -16 20 -42 21 -75 3z"/>
<path d="M3242 3556 c-41 -45 -60 -86 -47 -105 10 -18 50 -13 79 10 l26 20 0
-28 c0 -30 15 -53 35 -53 8 0 12 23 11 67 -1 45 3 68 12 70 33 12 -10 63 -54
63 -13 0 -38 -18 -62 -44z m59 -14 c-12 -22 -50 -57 -56 -51 -6 7 45 69 56 69
6 0 6 -6 0 -18z"/>
<path d="M4660 3589 c-19 -6 -45 -21 -57 -34 -12 -14 -27 -25 -33 -25 -5 0
-10 -17 -10 -37 0 -21 -11 -90 -24 -153 -13 -63 -20 -119 -15 -124 24 -27 66
35 75 111 12 112 13 114 39 107 27 -7 58 8 98 44 35 33 37 84 5 106 -25 18
-29 18 -78 5z m55 -68 c-3 -12 -20 -28 -36 -36 -25 -14 -32 -14 -49 -2 -20 14
-20 14 0 40 20 25 66 40 83 26 5 -4 6 -16 2 -28z"/>
<path d="M4230 3532 c0 -10 7 -27 15 -38 19 -26 19 -32 -5 -39 -26 -8 -46 -43
-32 -57 7 -7 21 -3 42 14 l31 24 47 -23 c56 -27 117 -35 117 -14 0 8 -23 22
-54 32 -30 11 -56 21 -59 23 -2 3 15 10 37 17 47 14 69 35 54 50 -7 7 -27 3
-62 -11 -28 -11 -55 -20 -59 -20 -4 0 -16 14 -25 30 -20 33 -47 40 -47 12z"/>
<path d="M3466 3528 c-2 -7 -14 -41 -26 -75 -12 -35 -20 -69 -16 -78 9 -25 33
-17 39 13 3 15 13 48 22 74 17 48 15 78 -5 78 -6 0 -12 -6 -14 -12z"/>
<path d="M3700 3445 c0 -28 29 -35 49 -11 10 12 8 17 -8 25 -31 17 -41 13 -41
-14z"/>
<path d="M2676 2835 c4 -33 3 -45 -6 -45 -7 0 -34 -16 -61 -36 -79 -58 -75
-100 11 -139 45 -20 44 -16 28 -136 -13 -97 -14 -98 -76 -73 -42 16 -62 47
-62 95 0 24 -4 30 -17 27 -27 -5 -28 -65 -3 -106 20 -32 86 -71 122 -72 15 0
18 -14 20 -112 3 -98 5 -113 21 -116 15 -3 17 8 17 115 l1 118 41 25 c52 32
92 91 92 137 0 35 -27 69 -78 98 -16 9 -17 18 -9 78 l8 67 43 -21 c33 -16 46
-19 55 -10 15 15 -9 38 -59 56 -32 11 -40 19 -45 45 -7 30 -23 49 -42 50 -5 0
-5 -20 -1 -45z m0 -137 c-4 -29 -9 -54 -11 -56 -3 -3 -65 26 -75 35 -6 6 71
73 84 73 5 0 5 -24 2 -52z m89 -167 c3 -11 -1 -33 -9 -50 -15 -29 -65 -75 -73
-67 -3 2 1 40 7 85 l12 80 28 -14 c16 -8 31 -24 35 -34z"/>
<path d="M5856 2803 c-3 -4 -6 -18 -7 -32 0 -14 -12 -60 -28 -101 -26 -70 -30
-75 -66 -86 -45 -12 -66 -37 -48 -55 8 -8 16 -9 25 -2 42 33 45 23 20 -73 -25
-97 -24 -136 2 -115 8 7 22 44 31 84 9 40 21 84 27 99 10 28 13 28 143 41 11
1 20 9 20 17 0 12 -14 15 -68 15 -37 0 -67 3 -67 6 0 3 11 39 25 79 14 40 25
83 25 96 0 21 -22 39 -34 27z"/>
<path d="M8857 2784 c-4 -4 -7 -15 -7 -25 0 -10 -11 -43 -24 -73 -20 -45 -29
-55 -53 -58 -36 -4 -46 -38 -10 -38 23 0 24 -1 13 -41 -9 -35 -8 -45 11 -77
24 -43 90 -81 153 -89 37 -5 42 -4 38 13 -2 12 -16 21 -41 26 -53 11 -94 34
-113 64 -14 21 -15 31 -5 64 13 45 37 54 129 48 47 -2 57 0 60 14 4 20 -44 32
-113 26 -49 -3 -51 1 -19 63 20 39 22 83 4 86 -9 2 -19 1 -23 -3z"/>
<path d="M6475 2718 c-2 -7 -13 -43 -24 -80 -12 -37 -35 -94 -51 -127 -17 -32
-30 -72 -30 -88 0 -30 33 -83 51 -83 18 0 21 29 5 45 -23 24 -20 55 13 116 30
57 71 178 71 210 0 21 -28 26 -35 7z"/>
<path d="M9507 2706 c-3 -8 1 -22 8 -33 11 -15 16 -16 27 -5 9 9 10 17 2 29
-14 23 -30 27 -37 9z"/>
<path d="M6344 2663 c-4 -15 -24 -72 -46 -126 -40 -100 -46 -149 -17 -155 12
-2 18 7 22 37 3 23 21 78 40 123 42 99 49 141 25 146 -12 2 -19 -5 -24 -25z"/>
<path d="M5066 2661 c-9 -14 4 -41 19 -41 18 0 26 25 12 39 -13 13 -24 14 -31
2z"/>
<path d="M7330 2609 c-38 -22 -89 -77 -90 -95 0 -6 -7 -17 -15 -24 -23 -19
-18 -37 23 -75 53 -50 97 -60 186 -42 39 8 73 11 74 6 7 -17 45 -9 94 21 27
17 52 31 57 33 4 1 27 -22 50 -50 23 -29 48 -53 56 -53 27 0 26 20 -2 48 -15
16 -34 41 -42 55 -13 25 -13 29 8 51 36 38 8 64 -31 29 -17 -15 -20 -15 -41 4
-18 18 -83 43 -109 43 -5 0 -8 -9 -8 -19 0 -19 18 -31 49 -31 9 0 27 -7 39
-16 l23 -16 -53 -34 c-55 -35 -77 -41 -93 -25 -6 6 -38 3 -80 -6 -64 -14 -74
-14 -109 1 l-39 16 44 29 c90 58 115 101 85 146 -20 30 -31 31 -76 4z m50 -37
c0 -26 -92 -103 -107 -89 -7 8 33 63 60 82 23 16 47 20 47 7z"/>
<path d="M9798 2610 c-52 -28 -58 -57 -20 -91 28 -25 52 -59 52 -73 0 -10 -89
-6 -95 4 -8 13 -35 1 -35 -16 0 -7 9 -18 21 -24 27 -15 147 -9 153 7 9 21 -15
76 -47 110 -17 18 -29 34 -26 36 17 16 49 24 72 20 29 -6 37 13 15 35 -17 17
-47 14 -90 -8z"/>
<path d="M3335 2598 c-2 -7 -15 -49 -29 -93 -14 -44 -26 -88 -26 -98 0 -30 32
-15 44 20 14 40 71 122 91 130 27 10 29 -5 11 -99 -15 -82 -16 -93 -2 -106 13
-13 20 -13 42 -4 21 10 24 15 14 27 -7 8 -17 12 -22 9 -6 -4 -8 1 -5 12 14 48
28 143 25 169 -2 24 -8 31 -30 33 -15 2 -37 -2 -49 -9 -18 -9 -24 -8 -31 5
-11 19 -27 21 -33 4z"/>
<path d="M5489 2571 c-37 -37 -36 -52 2 -95 25 -29 28 -38 19 -56 -21 -39 -90
-16 -90 31 0 22 -25 26 -34 4 -8 -22 9 -60 36 -79 51 -36 123 -10 134 49 4 24
-1 37 -26 64 l-32 34 21 21 c16 16 23 18 33 8 18 -18 38 -14 38 8 0 20 -27 40
-55 40 -9 0 -30 -13 -46 -29z"/>
<path d="M3880 2575 c-9 -11 -22 -14 -40 -10 -26 6 -28 3 -40 -44 -7 -28 -16
-54 -21 -57 -5 -3 -9 -16 -9 -30 0 -37 25 -29 53 19 14 23 37 53 52 67 l26 24
-7 -42 c-6 -35 -4 -42 10 -42 22 0 55 17 84 43 l22 20 0 -26 c0 -43 18 -77 40
-77 21 0 28 24 10 35 -5 3 -10 33 -10 66 0 70 -9 74 -65 29 l-39 -31 -10 33
c-12 37 -36 47 -56 23z"/>
<path d="M3609 2553 c-29 -33 -55 -86 -63 -128 -3 -16 -14 -72 -25 -124 -21
-95 -20 -111 3 -111 13 0 43 94 62 188 5 24 12 32 28 32 42 0 86 57 86 109 0
65 -47 82 -91 34z m37 -79 c-9 -13 -23 -24 -31 -24 -14 0 -13 4 1 33 9 17 22
38 28 46 19 24 20 -26 2 -55z"/>
<path d="M8266 2565 c-45 -16 -63 -31 -82 -68 -30 -57 12 -106 103 -122 50 -8
85 1 81 22 -2 10 -20 15 -61 18 -57 3 -96 21 -80 35 4 4 25 13 45 20 42 13 68
43 68 76 0 28 -27 35 -74 19z m10 -50 c-11 -8 -25 -15 -30 -15 -6 0 -2 7 8 15
11 8 25 15 30 15 6 0 2 -7 -8 -15z"/>
<path d="M7966 2555 c-22 -8 -44 -13 -50 -12 -6 1 -12 -14 -14 -33 -1 -19 -9
-62 -17 -95 -8 -33 -17 -95 -21 -137 -6 -69 -5 -78 10 -78 23 0 44 52 58 144
11 72 12 74 34 64 45 -21 154 68 154 126 0 13 -7 27 -16 30 -27 10 -97 6 -138
-9z m102 -47 c-8 -13 -29 -33 -47 -45 -26 -17 -35 -19 -55 -10 -23 11 -23 13
-10 39 14 27 32 34 93 37 32 1 33 0 19 -21z"/>
<path d="M5244 2546 c-50 -22 -97 -96 -80 -125 11 -18 32 -2 45 35 9 26 23 40
48 51 44 18 51 11 34 -30 -19 -45 -19 -81 -1 -84 15 -3 50 82 50 123 0 43 -39
55 -96 30z"/>
<path d="M6028 2519 c-38 -32 -48 -47 -48 -71 0 -30 0 -31 48 -25 26 2 54 8
63 11 13 6 15 1 11 -22 -5 -38 13 -72 38 -72 23 0 25 12 8 39 -9 14 -8 27 5
60 33 81 14 112 -37 62 -17 -17 -47 -33 -66 -37 l-35 -6 35 31 c19 16 46 31
60 33 36 4 32 32 -5 36 -23 2 -41 -7 -77 -39z"/>
<path d="M8475 2527 c-72 -72 -33 -131 83 -125 45 2 58 7 60 21 3 14 -5 17
-51 17 -63 0 -87 7 -87 24 0 15 38 51 63 60 24 8 17 30 -12 34 -14 2 -33 -8
-56 -31z"/>
<path d="M9558 2555 c-3 -3 -3 -49 0 -103 4 -85 2 -104 -18 -150 -19 -45 -26
-52 -44 -46 -11 3 -30 8 -41 11 -11 3 -27 11 -35 19 -9 7 -21 10 -28 5 -25
-15 24 -58 79 -70 62 -14 72 -7 105 64 42 90 27 315 -18 270z"/>
<path d="M4990 2468 c-25 -54 -25 -65 -1 -78 23 -12 35 1 38 40 1 14 4 37 8
53 12 46 -23 34 -45 -15z"/>
<path d="M9227 2464 c-14 -15 -6 -34 14 -34 14 0 19 5 17 17 -3 18 -20 27 -31
17z"/>
<path d="M13463 1845 c-39 -17 -47 -40 -38 -124 5 -51 3 -76 -10 -109 -19 -47
-39 -62 -83 -62 -40 0 -82 -34 -64 -51 9 -10 21 -11 55 -2 78 21 76 -24 -7
-117 -29 -33 -56 -72 -59 -87 -12 -59 51 -132 132 -152 50 -13 115 -1 119 23
3 16 -1 18 -40 14 -55 -6 -106 8 -136 35 -52 48 -50 68 19 143 49 55 71 98 68
137 -2 19 9 57 25 92 26 55 27 65 21 137 -7 78 -7 78 20 88 37 14 43 13 50
-10 8 -26 35 -26 35 1 0 56 -41 73 -107 44z"/>
<path d="M5921 1806 c-6 -7 -17 -59 -23 -114 l-12 -101 -44 -7 c-33 -5 -42
-10 -40 -23 3 -12 13 -15 41 -14 20 1 37 -2 37 -7 0 -5 -7 -41 -15 -81 -16
-77 -14 -90 13 -73 11 7 22 38 31 87 l14 76 36 3 c48 4 50 32 2 36 l-33 3 7
76 c4 41 11 88 16 105 12 44 -5 64 -30 34z"/>
<path d="M12507 1803 c-18 -21 -77 -142 -77 -160 0 -8 -14 -13 -38 -13 -21 0
-42 -3 -45 -7 -11 -11 14 -33 37 -33 21 0 22 -4 21 -85 0 -78 2 -86 27 -111
19 -19 39 -28 75 -31 60 -6 117 8 121 30 3 15 -5 16 -71 11 -68 -6 -75 -5 -95
17 -17 17 -22 34 -21 73 2 80 10 101 44 104 107 9 135 14 135 27 0 19 -17 23
-88 17 l-63 -5 10 27 c20 52 44 91 64 108 18 14 19 19 8 32 -17 20 -24 20 -44
-1z"/>
<path d="M6097 1803 c-16 -26 -28 -106 -37 -233 -5 -80 -17 -169 -25 -199 -12
-37 -13 -57 -6 -64 15 -15 36 6 84 87 l42 71 3 -52 c2 -42 8 -56 29 -73 14
-11 29 -17 34 -14 15 9 10 34 -7 41 -13 5 -16 20 -13 92 4 80 3 86 -16 86 -12
0 -33 -19 -56 -52 l-36 -52 4 102 c4 85 15 166 35 246 3 16 -27 28 -35 14z"/>
<path d="M10335 1768 c-2 -7 -6 -31 -10 -53 -3 -22 -11 -57 -16 -77 -10 -38
-10 -38 -62 -38 -60 0 -94 -18 -84 -44 5 -13 11 -15 26 -6 18 9 91 15 91 7 0
-2 -9 -30 -20 -62 -28 -82 -26 -130 6 -162 23 -23 31 -25 81 -20 62 6 68 10
60 31 -5 12 -16 14 -51 10 -56 -8 -76 6 -76 51 0 27 33 137 47 154 1 2 53 11
115 20 96 14 113 19 116 35 4 21 17 21 -162 0 l-53 -7 15 71 c15 69 12 102 -8
102 -6 0 -12 -6 -15 -12z"/>
<path d="M15953 1768 c-24 -12 -30 -32 -12 -44 6 -3 16 -1 22 5 13 13 76 14
96 2 21 -13 11 -26 -59 -74 -66 -45 -82 -73 -65 -115 4 -10 8 -37 10 -62 1
-25 12 -65 24 -90 27 -58 26 -103 -1 -152 -24 -42 -70 -74 -90 -62 -6 4 -25
22 -41 41 -16 18 -35 33 -43 33 -26 0 -14 -29 31 -76 40 -42 47 -46 77 -40 64
13 127 101 128 179 0 21 -11 64 -25 97 -35 83 -33 96 14 104 49 7 67 27 51 55
-13 25 -31 26 -70 6 -26 -14 -30 -14 -30 -1 0 8 29 34 65 58 66 43 83 68 71
106 -12 38 -101 55 -153 30z"/>
<path d="M7537 1753 c-4 -3 -7 -30 -7 -58 0 -29 -11 -97 -25 -151 -43 -170
-30 -213 41 -136 l43 47 1 -48 c0 -41 3 -49 25 -59 20 -9 28 -9 38 1 9 10 8
15 -5 25 -11 8 -18 26 -18 45 0 69 -41 92 -87 50 l-22 -22 20 69 c27 94 38
244 17 244 -8 0 -18 -3 -21 -7z"/>
<path d="M4047 1744 c-3 -3 -3 -21 0 -39 3 -21 -6 -74 -26 -144 -36 -131 -39
-173 -11 -201 23 -23 29 -24 50 -9 13 8 12 12 -7 26 -30 20 -29 56 2 158 32
103 40 166 26 194 -12 21 -23 26 -34 15z"/>
<path d="M15366 1706 c-7 -18 -17 -47 -21 -65 -7 -33 -25 -42 -88 -45 -25 -1
-32 -6 -32 -21 0 -18 6 -20 49 -17 44 3 48 1 41 -15 -4 -10 -10 -45 -13 -79
-4 -58 -3 -61 28 -88 28 -23 40 -27 84 -24 39 2 52 7 54 21 3 14 -4 17 -43 17
-85 0 -101 28 -74 135 12 48 12 48 107 66 34 6 65 15 68 20 2 4 2 20 -2 34 -7
29 -34 34 -41 6 -3 -13 -17 -20 -50 -25 -26 -3 -48 -4 -50 -2 -2 2 4 22 13 45
16 41 14 71 -6 71 -5 0 -16 -15 -24 -34z"/>
<path d="M8066 1624 c-4 -9 -1 -23 5 -30 15 -18 49 0 49 26 0 25 -45 28 -54 4z"/>
<path d="M3264 1583 c-14 -15 -31 -35 -38 -43 -9 -9 -14 -46 -15 -98 -2 -74 0
-83 15 -80 14 2 21 22 31 81 7 43 18 88 24 99 10 19 12 19 41 -16 29 -35 51
-45 62 -27 3 5 -8 24 -24 42 -16 19 -30 37 -30 41 0 4 -9 12 -20 18 -17 9 -24
6 -46 -17z"/>
<path d="M8832 1579 c-24 -12 -49 -34 -58 -51 -8 -16 -19 -26 -24 -23 -13 8
-26 -25 -13 -34 5 -3 19 -27 32 -53 16 -33 31 -49 53 -57 59 -21 150 -8 156
22 3 16 -4 17 -66 11 -62 -6 -72 -4 -91 15 -11 11 -21 24 -21 29 0 4 25 20 56
36 62 33 91 73 71 99 -21 26 -50 28 -95 6z m56 -31 c-3 -7 -24 -24 -47 -37
-42 -23 -43 -23 -32 -3 17 33 88 68 79 40z"/>
<path d="M9520 1550 c-18 -19 -31 -26 -35 -20 -5 8 -11 7 -21 -1 -10 -8 -14
-31 -13 -73 1 -34 -4 -90 -11 -125 -11 -64 -7 -125 9 -136 33 -20 61 38 61
125 0 56 1 58 30 63 70 14 119 146 68 181 -33 23 -57 20 -88 -14z m70 -39 c0
-32 -43 -91 -66 -91 -17 0 -18 19 -3 57 24 63 69 85 69 34z"/>
<path d="M3477 1552 c-24 -26 -49 -103 -42 -129 3 -13 23 -35 45 -49 34 -23
48 -26 94 -22 55 5 91 22 80 39 -3 5 -33 7 -68 3 -57 -6 -65 -4 -91 18 l-29
25 18 47 c17 45 37 58 52 34 4 -7 -5 -22 -24 -38 -33 -28 -40 -44 -21 -56 15
-9 89 66 89 91 0 48 -71 73 -103 37z"/>
<path d="M9715 1526 c-52 -53 -59 -78 -34 -110 20 -25 118 -54 139 -41 25 15
8 34 -37 41 l-46 7 29 15 c68 34 83 74 42 112 -31 29 -46 25 -93 -24z m75 -15
c0 -12 -21 -28 -55 -41 l-30 -11 29 30 c29 30 56 41 56 22z"/>
<path d="M12107 1550 c-35 -28 -34 -59 3 -95 37 -35 38 -48 4 -64 -22 -10 -33
-8 -70 10 -26 12 -52 18 -62 14 -15 -6 -13 -9 11 -29 41 -33 93 -47 125 -35
68 26 81 74 32 117 -16 15 -30 32 -30 39 0 13 7 16 50 17 18 1 25 7 25 21 0
29 -53 32 -88 5z"/>
<path d="M3793 1534 c-3 -8 -11 -14 -18 -14 -8 0 -14 -28 -19 -87 -4 -49 -13
-124 -20 -168 -14 -88 -12 -108 13 -103 21 4 40 61 40 126 1 44 4 52 20 52 44
0 116 95 109 143 -4 28 -116 74 -125 51z m85 -58 c6 -7 -25 -60 -47 -80 -25
-23 -40 -13 -23 14 7 11 9 32 5 51 -6 32 -6 32 27 25 19 -3 35 -8 38 -10z"/>
<path d="M9074 1528 c-5 -7 9 -26 36 -49 l43 -37 -46 -29 c-51 -30 -54 -35
-34 -51 10 -9 26 -3 65 23 l51 35 46 -40 c25 -22 50 -40 56 -40 22 0 6 41 -26
67 -19 15 -35 31 -35 35 0 4 18 17 40 28 38 19 51 42 31 55 -6 3 -32 -8 -60
-25 l-50 -31 -49 36 c-55 39 -58 40 -68 23z"/>
<path d="M11283 1519 c-99 -49 -126 -146 -52 -184 31 -16 116 -20 138 -6 29
19 6 35 -47 32 -96 -5 -122 40 -57 98 37 32 44 35 83 31 28 -2 30 25 3 40 -25
13 -19 14 -68 -11z"/>
<path d="M6387 1518 c-10 -5 -30 -28 -44 -51 -63 -100 1 -167 142 -149 47 6
61 11 63 26 4 17 -1 19 -57 13 -68 -6 -131 7 -131 27 0 7 18 21 40 31 22 10
45 24 51 31 28 34 -26 94 -64 72z m33 -43 c0 -2 -10 -10 -22 -16 -21 -11 -22
-11 -9 4 13 16 31 23 31 12z"/>
<path d="M9945 1495 c-35 -35 -44 -70 -29 -110 10 -26 55 -43 129 -46 58 -3
70 -1 73 12 3 18 -34 29 -95 29 -46 0 -73 16 -73 44 0 28 36 62 61 58 21 -4
25 18 7 36 -19 19 -35 14 -73 -23z"/>
<path d="M11764 1510 c-40 -26 -84 -104 -67 -121 18 -18 41 -3 51 32 4 18 20
42 35 53 32 24 40 18 58 -49 6 -22 13 -46 15 -54 3 -11 7 -11 19 -1 21 17 19
41 -9 105 -28 62 -48 69 -102 35z"/>
<path d="M14410 1517 c-59 -30 -93 -129 -88 -253 2 -55 6 -69 20 -72 26 -5 40
35 44 122 2 45 3 84 4 89 0 4 8 2 18 -4 37 -23 106 14 117 63 13 53 -54 86
-115 55z m75 -46 c0 -7 -11 -21 -25 -30 -23 -15 -24 -15 -17 2 4 11 1 20 -8
23 -23 9 -6 25 23 22 15 -2 27 -9 27 -17z"/>
<path d="M14957 1509 c-15 -12 -34 -34 -43 -51 -14 -27 -14 -32 0 -54 20 -29
45 -36 117 -32 40 2 54 7 54 18 0 11 -15 16 -63 18 -73 3 -87 19 -52 58 16 16
34 24 57 24 31 0 33 2 23 20 -14 26 -57 26 -93 -1z"/>
<path d="M4165 1485 c-46 -48 -55 -93 -24 -118 16 -13 32 -17 54 -13 27 5 33
3 43 -19 13 -27 48 -45 88 -45 38 0 27 32 -14 42 -40 11 -49 30 -33 74 10 29
9 38 -9 73 -27 54 -59 55 -105 6z m65 -40 c0 -36 -28 -62 -56 -51 -17 6 -9 32
19 64 28 31 37 28 37 -13z"/>
<path d="M4719 1481 c-51 -50 -52 -87 -6 -137 46 -50 107 -58 170 -21 24 14
49 33 56 41 24 29 -14 30 -62 2 -45 -27 -91 -33 -117 -16 -8 5 -12 10 -10 12
3 2 14 8 25 14 29 16 58 70 50 94 -8 26 -33 50 -52 50 -8 0 -33 -17 -54 -39z
m71 -20 c0 -22 -36 -52 -53 -45 -17 6 -16 9 9 35 25 26 44 30 44 10z"/>
<path d="M14661 1474 c-47 -54 -56 -105 -22 -124 29 -15 126 -13 140 3 17 21
3 27 -61 27 -32 0 -58 4 -58 10 0 5 6 7 13 5 6 -2 32 6 57 18 51 25 63 56 34
88 -28 31 -58 23 -103 -27z m77 -6 c-2 -6 -15 -15 -28 -20 -23 -9 -23 -8 -5
12 20 22 39 27 33 8z"/>
<path d="M4471 1479 c-73 -73 -6 -165 115 -157 36 2 49 7 49 18 0 11 -15 16
-56 20 -86 8 -125 54 -80 94 15 14 23 15 45 5 39 -18 55 2 25 30 -32 29 -62
26 -98 -10z"/>
<path d="M7805 1484 c-50 -54 -39 -101 21 -91 30 5 32 4 38 -33 7 -44 31 -69
48 -52 9 9 9 17 0 34 -6 13 -14 47 -18 77 -6 51 -30 91 -54 91 -6 0 -22 -12
-35 -26z m35 -39 c-7 -9 -15 -13 -17 -11 -7 7 7 26 19 26 6 0 6 -6 -2 -15z"/>
<path d="M7228 1463 c-59 -64 -64 -113 -15 -144 26 -16 42 -19 84 -15 68 8
103 22 103 42 0 13 -6 15 -32 10 -82 -17 -113 -17 -133 -2 -20 14 -20 15 -1
50 18 33 46 56 46 36 0 -5 9 -14 20 -20 31 -17 38 15 10 46 -30 31 -50 30 -82
-3z"/>
<path d="M13820 1464 c-17 -15 -37 -39 -45 -54 -13 -25 -12 -32 8 -71 17 -35
30 -47 62 -57 54 -18 119 -12 123 11 3 14 -4 17 -45 17 -80 0 -130 38 -76 58
36 13 73 48 73 70 -1 26 -25 52 -48 52 -11 0 -34 -12 -52 -26z m60 -23 c0 -9
-44 -41 -56 -41 -4 0 3 11 16 25 24 26 40 32 40 16z"/>
<path d="M8062 1463 c-17 -34 -21 -91 -7 -110 20 -27 33 -7 37 61 3 61 -11 85
-30 49z"/>
<path d="M11473 1437 c-49 -49 -54 -77 -18 -112 18 -19 35 -25 65 -25 30 0 47
6 65 25 31 30 31 49 3 105 -31 62 -59 63 -115 7z m87 -37 c16 -39 -1 -62 -43
-58 -40 4 -60 35 -33 52 11 6 26 18 35 27 20 20 25 17 41 -21z"/>
<path d="M14055 1460 c-7 -11 8 -41 30 -60 13 -11 12 -15 -10 -36 -27 -25 -34
-64 -10 -64 8 0 19 8 24 19 6 10 24 24 41 31 28 12 34 11 60 -9 55 -40 87 -13
33 28 l-28 22 23 15 c23 17 31 54 11 54 -6 0 -24 -11 -41 -25 -38 -32 -48 -31
-83 5 -31 32 -40 36 -50 20z"/>
<path d="M8155 1198 c-24 -64 -75 -260 -75 -285 0 -27 4 -33 22 -33 12 0 40
17 61 38 l39 37 -7 -48 c-7 -48 4 -77 30 -77 9 0 12 24 11 88 -1 80 -3 87 -21
90 -14 2 -31 -10 -54 -38 -18 -23 -35 -39 -37 -37 -3 3 11 58 31 124 19 66 35
127 35 136 0 20 -28 23 -35 5z"/>
<path d="M9092 1167 c-19 -22 -42 -96 -36 -112 4 -8 15 -15 25 -15 14 0 19 7
19 29 0 16 7 37 16 45 17 17 16 57 -2 63 -6 2 -16 -2 -22 -10z"/>
<path d="M9387 1174 c-4 -4 -7 -16 -7 -26 0 -13 8 -18 30 -18 86 0 130 -178
66 -272 -43 -63 -200 -148 -275 -148 -33 0 -56 -14 -47 -29 21 -34 178 11 276
80 87 61 113 109 114 208 0 63 -4 84 -24 120 -14 24 -36 52 -50 62 -29 21 -73
33 -83 23z"/>
<path d="M7074 1098 c-58 -56 -85 -92 -115 -154 -89 -178 -48 -300 107 -320
68 -8 139 5 139 26 0 11 -17 15 -85 15 -48 1 -96 7 -111 14 -32 16 -59 60 -59
98 0 89 81 238 169 312 46 38 49 40 54 20 9 -33 32 -17 32 22 0 30 -3 34 -28
37 -23 3 -41 -9 -103 -70z"/>
<path d="M7525 1107 c-26 -78 -26 -111 0 -121 20 -7 26 7 31 69 3 41 0 54 -12
59 -8 3 -17 0 -19 -7z"/>
<path d="M6100 1080 c0 -24 6 -33 26 -40 47 -18 59 10 20 48 -32 30 -46 28
-46 -8z"/>
<path d="M8670 1067 c0 -28 17 -47 36 -40 19 7 18 28 -2 47 -22 22 -34 20 -34
-7z"/>
<path d="M3949 1054 c-5 -6 -7 -18 -4 -25 4 -11 32 -13 133 -11 139 3 156 6
150 25 -6 17 -266 27 -279 11z"/>
<path d="M5100 1041 c-28 -26 -31 -36 -37 -110 -6 -76 -5 -81 14 -81 17 0 21
9 26 66 7 68 27 114 51 114 7 0 25 -9 40 -21 29 -23 59 -19 50 5 -8 21 -66 56
-93 56 -12 0 -35 -13 -51 -29z"/>
<path d="M6203 1028 c-12 -15 -33 -118 -33 -160 0 -23 4 -29 17 -26 12 2 20
17 25 48 18 110 17 108 39 103 11 -3 26 -16 31 -29 11 -24 32 -32 43 -15 8 13
-13 55 -34 68 -30 19 -77 25 -88 11z"/>
<path d="M5332 990 c-48 -49 -58 -80 -37 -119 12 -24 24 -31 60 -37 25 -3 62
-2 83 3 28 7 43 6 59 -4 14 -9 27 -11 44 -4 l24 9 -7 -111 c-4 -60 -17 -148
-28 -194 -11 -47 -20 -91 -20 -99 0 -34 31 -8 80 66 29 44 56 80 60 80 4 0 13
-7 20 -15 18 -22 34 -3 26 29 -9 36 -50 35 -89 -1 -20 -19 -28 -22 -24 -11 3
9 9 63 12 120 4 57 16 136 27 177 13 49 16 77 10 83 -15 15 -29 2 -52 -42 -23
-46 -57 -69 -66 -46 -18 47 95 147 121 106 9 -15 35 -12 35 3 0 22 -34 47 -64
47 -34 0 -111 -69 -128 -116 -10 -29 -17 -34 -56 -40 -47 -7 -93 3 -99 22 -2
6 18 17 44 25 37 11 50 20 58 42 11 34 -2 61 -33 65 -14 2 -34 -11 -60 -38z
m53 -19 c-3 -6 -11 -11 -17 -11 -6 0 -6 6 2 15 14 17 26 13 15 -4z"/>
<path d="M5797 1010 c-15 -12 -31 -36 -35 -53 -23 -86 73 -167 150 -126 40 22
69 144 31 137 -11 -2 -20 -18 -25 -42 -10 -49 -24 -66 -54 -66 -56 0 -85 78
-43 116 12 10 24 18 28 17 3 -2 6 5 6 14 0 26 -27 27 -58 3z"/>
<path d="M6489 1006 c-42 -28 -79 -86 -79 -121 0 -13 11 -36 24 -51 20 -24 30
-28 72 -26 65 2 169 34 169 53 0 18 -32 17 -113 -5 -59 -16 -65 -16 -89 -1
l-26 17 52 18 c55 18 91 45 91 67 0 26 -31 73 -48 73 -10 0 -34 -11 -53 -24z
m55 -48 c-9 -14 -66 -40 -72 -33 -4 4 8 20 27 37 25 23 36 27 42 17 4 -7 5
-17 3 -21z"/>
<path d="M7815 997 c-79 -79 -52 -127 72 -127 66 0 74 2 71 18 -3 13 -15 18
-63 20 -80 3 -88 7 -75 31 5 11 17 27 26 35 14 14 18 14 45 1 54 -28 68 4 17
35 -44 27 -55 25 -93 -13z"/>
<path d="M8378 1009 c-21 -11 -58 -71 -58 -92 0 -29 35 -39 80 -23 l40 14 0
-27 c0 -35 17 -51 52 -51 33 0 40 29 9 37 -14 3 -21 17 -26 49 -4 29 -11 44
-21 44 -8 0 -19 11 -26 24 -13 30 -28 37 -50 25z m22 -63 c0 -7 -9 -16 -20
-19 -17 -4 -18 -2 -9 14 11 22 29 25 29 5z"/>
<path d="M4055 960 c-27 -5 -79 -9 -115 -9 -68 -1 -110 -19 -110 -47 0 -15 35
-20 44 -6 5 8 50 13 301 31 70 5 90 9 90 21 0 12 -16 15 -80 16 -44 1 -102 -2
-130 -6z"/>
<path d="M6081 957 c-18 -22 -41 -85 -41 -112 0 -18 5 -25 20 -25 19 0 24 10
21 38 -1 7 7 29 19 49 28 47 13 87 -19 50z"/>
<path d="M8640 941 c-5 -11 -10 -33 -10 -50 0 -24 4 -31 20 -31 15 0 20 7 20
28 0 15 3 37 6 50 8 28 -21 31 -36 3z"/>
</g>
</svg>
