<?xml version="1.0" standalone="no"?>
<!DOCTYPE svg PUBLIC "-//W3C//DTD SVG 20010904//EN"
 "http://www.w3.org/TR/2001/REC-SVG-20010904/DTD/svg10.dtd">
<svg version="1.0" xmlns="http://www.w3.org/2000/svg"
 width="1872.000000pt" height="844.000000pt" viewBox="0 0 1872.000000 844.000000"
 preserveAspectRatio="xMidYMid meet">

<g transform="translate(0.000000,844.000000) scale(0.100000,-0.100000)"
fill="#000000" stroke="none">
<path d="M10726 7928 c-2 -7 -13 -54 -25 -105 -13 -62 -38 -127 -75 -202 -31
-61 -56 -115 -56 -121 0 -22 41 -50 75 -50 45 0 113 27 125 51 6 10 10 40 10
67 0 63 -16 71 -74 37 -24 -14 -46 -25 -49 -25 -3 0 9 33 28 73 37 78 78 224
73 259 -3 25 -26 36 -32 16z m14 -379 c0 -25 -6 -32 -35 -45 -37 -15 -85 -19
-85 -6 0 5 105 78 118 81 1 1 2 -13 2 -30z"/>
<path d="M3756 7862 c-3 -5 -4 -26 -4 -48 1 -24 -13 -78 -36 -138 -66 -175
-59 -225 20 -151 20 19 38 34 40 33 1 -2 -3 -22 -9 -46 -8 -31 -8 -48 -1 -60
14 -21 51 -23 45 -2 -6 20 -5 56 4 108 8 41 7 42 -21 42 -16 0 -39 -7 -52 -15
-20 -15 -19 -7 18 95 45 126 52 190 21 190 -11 0 -22 -4 -25 -8z"/>
<path d="M13163 7839 c-6 -6 -9 -17 -7 -24 3 -7 -12 -56 -33 -109 -29 -77 -43
-101 -65 -112 -32 -17 -35 -29 -11 -42 14 -9 15 -16 5 -68 -9 -41 -9 -61 -1
-68 13 -14 39 18 39 48 0 12 5 38 11 59 l10 37 60 0 c52 0 60 2 57 18 -2 13
-15 18 -51 20 -26 2 -47 5 -47 8 0 10 61 170 76 198 12 24 12 31 2 37 -18 12
-32 11 -45 -2z"/>
<path d="M17395 7830 c-3 -5 -21 -10 -38 -10 -73 0 -129 -69 -92 -110 20 -22
46 -25 77 -9 l21 11 -21 -33 c-57 -94 -77 -144 -77 -200 0 -55 18 -95 37 -83
5 3 6 28 3 57 -7 60 4 92 70 201 24 40 51 88 60 108 16 33 16 36 -1 57 -20 23
-30 26 -39 11z m-25 -59 c0 -13 -22 -29 -53 -36 -33 -9 -36 8 -5 29 24 17 58
21 58 7z"/>
<path d="M2965 7810 c-63 -23 -85 -24 -85 -4 0 11 -8 14 -27 12 -24 -3 -28 -8
-30 -43 -1 -22 -18 -76 -38 -120 -61 -132 -67 -235 -15 -235 11 0 20 4 20 9 0
5 37 19 82 31 63 17 86 20 100 11 26 -16 38 -13 38 9 0 46 -58 47 -193 6 l-48
-15 7 37 c3 20 22 73 41 117 19 44 37 90 40 103 4 15 13 22 28 22 13 0 51 9
86 19 35 11 80 21 99 23 23 2 35 8 35 18 0 23 -80 23 -140 0z"/>
<path d="M5839 7828 c0 -2 -2 -10 -4 -18 -1 -9 -11 -41 -21 -73 -19 -60 -21
-62 -86 -57 -22 1 -28 -3 -28 -19 0 -21 17 -27 64 -23 14 2 16 -2 11 -15 -4
-10 -9 -43 -12 -73 -4 -46 -2 -59 17 -83 18 -23 29 -28 59 -25 26 2 37 8 39
22 6 28 -12 40 -37 24 -38 -23 -51 22 -30 106 l11 43 80 18 c73 17 101 35 84
52 -4 4 -37 -1 -74 -9 -37 -9 -68 -15 -69 -14 -7 7 32 102 45 112 20 15 7 34
-24 34 -13 0 -24 -1 -25 -2z"/>
<path d="M16894 7802 c-6 -4 -23 -26 -38 -49 -21 -35 -32 -43 -55 -43 -16 0
-36 -3 -45 -6 -18 -7 -22 -34 -4 -34 6 0 4 -8 -6 -19 -26 -29 -35 -73 -21
-107 9 -23 9 -33 -1 -49 -17 -28 -50 -153 -41 -161 13 -14 35 18 51 74 24 83
27 86 85 83 45 -2 55 1 80 27 57 57 51 163 -11 185 -9 3 -6 13 11 37 17 23 21
37 15 51 -5 10 -14 15 -20 11z m6 -193 c0 -42 -35 -79 -75 -79 l-34 0 27 48
c14 26 32 51 39 55 7 4 13 16 13 25 1 30 30 -18 30 -49z m-112 -4 c-23 -47
-44 -53 -27 -7 8 22 34 52 46 52 1 0 -7 -20 -19 -45z"/>
<path d="M7985 7778 c-2 -7 -18 -49 -33 -93 l-29 -80 -42 -3 c-33 -3 -42 -7
-39 -20 2 -11 15 -18 36 -20 30 -3 32 -6 32 -42 0 -26 8 -48 23 -66 20 -23 31
-27 82 -28 55 0 68 6 66 31 -1 5 -23 8 -50 8 -62 0 -83 17 -79 64 l3 36 60 5
c44 4 60 9 60 20 0 11 -14 16 -52 18 -29 2 -53 5 -53 7 0 3 11 34 25 71 14 36
25 75 25 85 0 21 -28 26 -35 7z"/>
<path d="M13396 7778 c-3 -7 -7 -34 -10 -59 -9 -78 -33 -127 -64 -131 -32 -4
-44 -38 -14 -38 19 0 19 -2 5 -42 -18 -52 -14 -113 7 -113 10 0 17 15 21 50
12 88 23 105 69 105 49 0 63 22 32 53 -19 19 -22 19 -28 4 -3 -9 -10 -17 -14
-17 -5 0 0 25 11 55 24 68 26 145 4 145 -9 0 -17 -6 -19 -12z"/>
<path d="M14974 7738 c-17 -46 -23 -53 -54 -59 -23 -5 -48 -22 -72 -49 -45
-51 -57 -99 -34 -135 17 -25 16 -27 -29 -87 -53 -71 -64 -103 -42 -125 18 -19
40 -8 32 16 -3 10 6 35 22 58 57 82 69 93 104 93 44 1 112 32 133 61 33 47 14
125 -35 141 -10 3 -8 17 9 62 27 70 27 76 3 76 -13 0 -24 -14 -37 -52z m-81
-170 c-30 -56 -46 -66 -51 -32 -3 24 42 84 65 84 11 0 8 -12 -14 -52z m98 42
c19 -11 26 -54 11 -76 -9 -15 -67 -44 -86 -44 -13 0 -9 14 16 65 18 36 34 65
36 65 2 0 12 -5 23 -10z"/>
<path d="M17080 7745 c-5 -14 -10 -32 -10 -38 0 -7 -13 -40 -29 -74 -37 -78
-45 -143 -16 -143 8 0 17 15 21 38 4 20 20 66 36 102 32 70 41 130 21 137 -7
3 -17 -7 -23 -22z"/>
<path d="M15945 7731 c-3 -6 -13 -36 -21 -67 -8 -31 -28 -88 -45 -126 -33 -75
-35 -111 -5 -116 24 -5 46 16 28 27 -10 6 -3 31 27 107 41 103 55 174 34 181
-6 2 -14 -1 -18 -6z"/>
<path d="M16422 7719 c-48 -24 -72 -56 -48 -65 8 -3 27 4 43 15 65 47 116 32
87 -25 -24 -47 -83 -102 -104 -97 -42 11 -130 -66 -130 -113 0 -35 25 -31 85
15 l52 39 16 -34 c15 -30 21 -34 54 -34 42 0 143 43 143 60 0 21 -29 21 -69 1
-58 -30 -87 -28 -99 8 -9 26 -7 32 34 72 41 40 74 93 74 118 0 20 -48 61 -72
61 -13 0 -42 -10 -66 -21z"/>
<path d="M12855 7710 c-8 -14 3 -30 21 -30 8 0 14 9 14 20 0 21 -24 28 -35 10z"/>
<path d="M15168 7704 c-28 -15 -36 -38 -19 -48 5 -4 23 2 40 11 23 14 33 15
42 6 14 -14 7 -26 -60 -110 -28 -36 -58 -61 -96 -78 -50 -24 -95 -65 -95 -87
0 -31 53 -12 139 49 l23 17 -2 -40 c-2 -21 -2 -45 -1 -51 2 -24 54 -13 97 20
45 34 58 59 41 76 -7 7 -23 -3 -51 -32 l-41 -42 -3 35 c-2 19 -8 40 -13 46 -6
7 10 35 45 79 63 78 73 107 51 141 -18 28 -56 31 -97 8z"/>
<path d="M15770 7643 c-18 -43 -35 -103 -37 -134 -5 -51 -3 -58 16 -68 11 -7
21 -10 22 -9 0 2 2 30 3 63 2 41 13 84 34 133 18 41 29 78 26 83 -14 24 -34 2
-64 -68z"/>
<path d="M2940 7682 c-76 -3 -100 -10 -100 -27 0 -12 14 -15 68 -15 79 0 112
8 112 25 0 17 -15 20 -80 17z"/>
<path d="M4769 7657 c-48 -32 -50 -65 -5 -115 20 -21 33 -42 29 -46 -4 -3 -29
-3 -56 0 -44 6 -49 5 -46 -11 7 -36 111 -43 139 -10 16 19 5 49 -32 91 -29 33
-30 36 -15 52 11 10 30 15 52 14 40 -3 45 10 13 32 -30 21 -39 20 -79 -7z"/>
<path d="M4965 7655 c-31 -30 -31 -53 -4 -107 20 -40 21 -42 3 -55 -21 -16
-34 -17 -34 -3 0 16 -30 12 -36 -5 -8 -20 13 -45 38 -45 30 0 76 28 83 51 5
14 -1 39 -15 70 -20 41 -21 51 -9 65 9 11 23 14 46 11 36 -6 51 6 33 28 -20
24 -77 19 -105 -10z"/>
<path d="M6935 7671 c-53 -22 -63 -86 -21 -130 14 -15 26 -35 26 -44 0 -19
-30 -23 -47 -6 -13 13 -33 4 -33 -16 0 -18 31 -35 63 -35 48 0 77 71 41 101
-8 7 -22 25 -29 40 -13 24 -12 28 4 43 12 11 27 14 48 10 17 -3 33 -2 37 4 14
23 -54 48 -89 33z"/>
<path d="M7163 7654 c-51 -30 -56 -60 -18 -106 14 -16 25 -38 25 -48 0 -24
-41 -55 -51 -38 -9 14 -39 3 -39 -15 0 -42 54 -45 103 -6 36 27 35 71 0 122
-26 38 -27 40 -8 53 12 9 31 12 52 8 38 -7 45 12 15 39 -24 22 -29 21 -79 -9z"/>
<path d="M8274 7665 c-8 -20 4 -35 27 -35 21 0 25 20 7 38 -16 16 -27 15 -34
-3z"/>
<path d="M4486 7627 c-33 -33 -68 -104 -64 -130 4 -30 49 -34 91 -8 l32 19 1
-28 c1 -36 20 -60 45 -60 22 0 25 23 5 39 -11 9 -13 28 -10 75 4 51 1 67 -13
84 -29 33 -59 37 -87 9z m59 -58 c-5 -14 -65 -59 -78 -59 -9 0 20 59 41 83 13
15 18 15 29 4 8 -7 11 -20 8 -28z"/>
<path d="M5194 7608 c-71 -74 -81 -113 -37 -148 22 -17 38 -20 87 -18 46 2 61
7 61 18 0 11 -16 16 -62 20 -34 3 -65 8 -68 12 -15 15 5 38 33 38 16 0 41 10
56 21 22 17 27 28 24 58 -2 30 -7 36 -28 39 -18 2 -36 -8 -66 -40z m56 -17 c0
-5 -7 -12 -16 -15 -24 -9 -28 -7 -14 9 14 17 30 20 30 6z"/>
<path d="M5462 7634 c-46 -32 -77 -125 -50 -152 24 -24 41 -14 34 19 -4 20 1
43 14 70 17 32 26 39 50 39 16 0 32 -4 35 -10 3 -5 13 -10 21 -10 17 0 19 31
2 48 -17 17 -79 15 -106 -4z"/>
<path d="M6605 7608 c-40 -47 -53 -83 -38 -107 16 -25 62 -25 95 -1 32 23 35
23 52 -12 6 -12 23 -29 38 -38 22 -12 30 -12 40 -2 11 11 9 16 -7 27 -40 29
-45 37 -45 77 0 32 -7 49 -27 70 -38 39 -65 36 -108 -14z m70 -8 c3 -5 1 -10
-4 -10 -6 0 -11 -10 -11 -23 0 -15 -9 -29 -25 -37 -37 -20 -41 -5 -11 40 27
40 40 48 51 30z"/>
<path d="M7420 7642 c-42 -13 -100 -91 -100 -132 0 -52 106 -99 160 -70 32 17
11 33 -46 36 -27 1 -53 8 -62 18 -15 15 -14 16 8 16 29 0 88 34 96 55 15 39
-21 89 -56 77z m20 -55 c0 -14 -49 -42 -57 -33 -5 5 38 46 49 46 4 0 8 -6 8
-13z"/>
<path d="M12548 7623 c-39 -44 -70 -101 -66 -125 4 -32 30 -28 46 7 40 83 51
100 70 103 13 2 23 -4 27 -17 7 -23 31 -28 38 -8 2 6 -2 24 -10 40 -11 21 -21
27 -46 27 -23 0 -41 -8 -59 -27z"/>
<path d="M10936 7590 c-44 -49 -54 -82 -32 -114 24 -37 78 -51 142 -37 55 13
73 26 57 42 -6 6 -28 6 -59 -1 -37 -8 -58 -8 -80 1 l-29 11 50 22 c64 29 80
48 65 75 -11 22 -40 41 -63 41 -8 0 -31 -18 -51 -40z m69 -9 c6 -11 -33 -36
-42 -27 -7 7 16 36 28 36 4 0 10 -4 14 -9z"/>
<path d="M3170 7594 c-17 -15 -40 -44 -50 -65 -18 -34 -18 -39 -4 -53 18 -19
38 -20 66 -5 17 9 24 7 42 -14 11 -14 31 -28 43 -32 31 -9 42 15 15 33 -26 17
-27 36 -7 76 20 38 19 44 -7 67 -32 26 -61 24 -98 -7z m64 -23 c6 -10 -28 -43
-64 -61 l-24 -13 18 29 c29 46 58 65 70 45z"/>
<path d="M11684 7593 c-34 -37 -74 -119 -74 -153 0 -23 4 -27 19 -23 18 5 51
57 51 81 0 6 10 28 22 48 l22 37 31 -37 c31 -37 45 -38 45 -3 0 22 -55 77 -77
77 -7 0 -25 -12 -39 -27z"/>
<path d="M3391 7554 c-59 -64 -72 -98 -47 -122 22 -22 90 -21 153 3 64 24 76
34 62 51 -9 11 -17 11 -47 -2 -55 -24 -111 -35 -128 -26 -12 7 -8 17 21 55 20
26 39 48 43 48 4 1 17 3 30 4 31 3 37 12 22 30 -24 29 -56 17 -109 -41z"/>
<path d="M11922 7593 c-47 -23 -92 -78 -92 -112 0 -21 10 -37 32 -56 29 -25
38 -27 91 -22 58 5 92 21 81 38 -3 5 -34 7 -68 3 -72 -7 -94 6 -48 30 47 25
92 66 92 86 0 21 -25 50 -43 50 -7 0 -27 -8 -45 -17z m48 -29 c0 -9 -28 -30
-62 -49 -41 -23 -34 -2 10 28 38 26 52 32 52 21z"/>
<path d="M7610 7588 c-52 -28 -59 -128 -10 -143 34 -11 45 9 20 33 -20 18 -21
23 -8 49 16 34 38 39 80 19 38 -20 58 -20 58 -2 0 36 -97 66 -140 44z"/>
<path d="M8697 7565 c-25 -19 -51 -35 -56 -35 -6 0 -11 -9 -11 -19 0 -11 -4
-23 -10 -26 -5 -3 -10 -15 -10 -26 0 -13 7 -19 23 -19 27 0 47 17 47 41 0 17
63 79 80 79 6 0 10 -15 10 -33 0 -36 24 -77 45 -77 23 0 28 20 11 39 -9 10
-16 31 -16 48 0 17 -3 38 -6 47 -10 27 -58 18 -107 -19z"/>
<path d="M9434 7580 c-43 -22 -77 -60 -87 -99 -5 -19 2 -32 28 -58 28 -28 40
-33 80 -33 50 0 89 15 80 31 -4 5 -30 9 -58 9 -31 0 -62 6 -75 16 -21 14 -21
17 -6 45 8 16 29 39 47 49 32 20 32 20 39 -1 9 -22 22 -18 38 11 7 14 6 23 -6
34 -20 21 -31 20 -80 -4z"/>
<path d="M12144 7575 c-9 -14 -22 -42 -29 -63 -30 -87 44 -103 132 -27 l42 35
3 -36 c2 -21 8 -39 15 -41 17 -6 59 45 82 99 17 42 18 50 6 55 -21 8 -41 -12
-50 -50 l-7 -32 -11 28 c-15 38 -42 34 -88 -12 -22 -22 -53 -44 -69 -50 l-30
-10 15 37 c9 20 22 44 30 52 8 9 15 22 15 28 0 22 -39 12 -56 -13z"/>
<path d="M13575 7546 c-25 -24 -45 -52 -45 -61 0 -27 54 -73 94 -81 45 -8 101
6 101 26 0 11 -14 15 -57 15 -83 0 -91 16 -24 49 45 22 56 32 56 51 0 26 -25
45 -59 45 -11 0 -41 -20 -66 -44z m84 0 c-2 -2 -15 -9 -29 -16 -23 -12 -24
-12 -11 3 7 10 20 17 29 17 8 0 13 -2 11 -4z"/>
<path d="M10003 7565 c-12 -9 -26 -15 -30 -14 -22 4 -33 -5 -62 -50 -19 -29
-29 -55 -25 -65 7 -19 30 -21 41 -3 15 23 113 110 119 104 3 -3 -4 -23 -15
-46 -25 -47 -26 -74 -6 -91 19 -15 37 -3 30 20 -3 10 4 38 16 63 28 58 21 97
-19 97 -15 0 -37 -7 -49 -15z"/>
<path d="M13895 7564 c-16 -8 -38 -23 -47 -31 -16 -15 -18 -15 -18 0 0 26 -18
29 -34 5 -19 -30 -32 -128 -17 -128 6 0 39 28 72 63 l60 62 -21 -44 c-26 -52
-20 -88 14 -97 43 -10 61 -1 64 34 4 36 -13 43 -34 15 -25 -35 -24 -5 2 51 21
45 23 60 14 71 -15 19 -18 18 -55 -1z"/>
<path d="M8403 7538 c-50 -34 -64 -70 -38 -98 39 -43 156 -7 163 51 4 33 -33
79 -61 78 -12 0 -41 -14 -64 -31z m82 -29 c12 -19 -26 -49 -62 -49 -43 0 -40
18 8 42 40 21 46 22 54 7z"/>
<path d="M9690 7544 c-37 -31 -62 -77 -54 -98 8 -20 55 -29 88 -16 35 13 36
13 36 -4 0 -8 11 -28 24 -43 19 -21 27 -25 36 -17 9 9 8 18 -6 39 -16 25 -16
29 0 82 14 43 15 58 6 67 -9 8 -15 7 -23 -5 -9 -14 -12 -14 -29 3 -24 24 -41
23 -78 -8z m82 -24 c16 0 -12 -29 -43 -46 -54 -28 -65 -13 -22 30 14 15 33 24
41 21 7 -3 18 -5 24 -5z"/>
<path d="M8244 7546 c-3 -7 -4 -35 -2 -62 3 -41 6 -49 23 -49 16 0 20 6 17 33
-1 18 2 41 7 51 7 12 6 22 -1 29 -16 16 -37 15 -44 -2z"/>
<path d="M12736 7520 c-20 -52 -20 -60 2 -60 20 0 57 74 46 91 -12 20 -33 6
-48 -31z"/>
<path d="M16042 7478 c2 -12 10 -23 18 -23 22 0 19 39 -3 43 -15 3 -18 -1 -15
-20z"/>
<path d="M15445 7450 c-6 -20 0 -40 14 -40 19 0 42 27 35 43 -9 23 -41 22 -49
-3z"/>
<path d="M7852 7293 c-5 -10 -17 -51 -27 -91 -9 -40 -37 -112 -61 -159 -69
-135 -57 -159 34 -68 30 30 57 54 58 52 2 -1 -2 -32 -8 -68 -12 -70 -7 -99 15
-99 10 0 16 17 20 53 4 28 9 75 13 103 7 59 -6 72 -50 49 -31 -16 -31 -14 -6
51 34 91 49 172 34 185 -9 8 -15 6 -22 -8z"/>
<path d="M3082 7288 c-7 -7 -12 -32 -12 -57 0 -29 -13 -77 -35 -131 -39 -93
-43 -127 -19 -137 12 -4 26 5 44 28 l28 33 15 -35 c8 -20 18 -45 21 -57 7 -22
30 -30 40 -14 5 8 -31 115 -48 140 -5 8 -17 11 -32 8 l-23 -6 19 42 c19 44 36
125 35 167 0 28 -15 37 -33 19z"/>
<path d="M11894 7289 c-4 -6 -8 -24 -10 -39 -2 -16 -15 -53 -28 -84 l-25 -56
-70 0 c-67 0 -71 -1 -71 -22 0 -38 14 -52 33 -34 8 9 32 16 52 16 35 0 36 -1
31 -32 -14 -86 -10 -148 9 -148 18 0 16 -8 21 68 7 99 15 112 68 112 56 0 76
8 69 26 -3 9 -20 14 -49 14 -24 0 -44 1 -44 3 0 2 11 30 24 63 32 78 36 118
14 122 -9 2 -19 -2 -24 -9z"/>
<path d="M2899 7288 c0 -2 -2 -19 -5 -38 -2 -19 -12 -64 -22 -100 -16 -56 -22
-65 -42 -65 -30 0 -37 -21 -12 -36 17 -10 18 -17 9 -51 -12 -50 11 -108 43
-108 24 0 25 13 4 46 -14 21 -15 31 -5 64 11 36 15 40 46 40 18 0 46 5 60 10
22 8 25 13 16 24 -8 10 -24 12 -53 8 -39 -5 -41 -4 -35 19 3 13 11 51 18 84 8
33 18 63 23 66 15 11 -2 39 -24 39 -11 0 -20 -1 -21 -2z"/>
<path d="M9487 7272 c-9 -10 -19 -41 -22 -68 -13 -111 -15 -116 -37 -109 -15
6 -32 -5 -75 -49 -65 -68 -67 -92 -9 -120 79 -39 127 16 146 169 20 162 19
156 43 153 16 -2 22 2 22 17 0 27 -45 32 -68 7z m-54 -257 c-1 -16 -11 -38
-22 -49 -18 -17 -24 -18 -47 -7 l-27 12 39 40 c43 44 60 45 57 4z"/>
<path d="M5891 7271 c-8 -5 -11 -16 -8 -24 3 -9 1 -31 -4 -50 -9 -35 -10 -36
-77 -42 -79 -9 -83 -11 -75 -32 5 -13 17 -14 68 -9 l62 6 -20 -68 c-25 -84
-19 -114 27 -136 28 -13 43 -14 85 -5 48 10 81 33 67 46 -4 4 -30 2 -59 -4
-56 -11 -97 -3 -97 21 0 33 41 144 56 150 9 3 31 6 51 6 27 0 34 4 31 18 -3
13 -13 17 -46 17 -37 0 -41 2 -35 20 11 30 9 88 -2 91 -5 2 -16 0 -24 -5z"/>
<path d="M15816 7248 c-8 -13 -29 -53 -47 -89 -30 -62 -34 -67 -63 -65 -25 1
-31 -3 -31 -19 0 -13 7 -20 20 -20 14 0 19 -6 17 -20 -14 -98 7 -145 63 -145
46 0 85 16 85 36 0 13 -8 15 -50 9 -47 -6 -50 -5 -59 18 -6 16 -6 38 0 61 9
32 13 35 57 41 77 10 94 15 89 28 -2 7 -25 12 -59 12 l-56 0 20 39 c11 22 29
52 40 67 21 28 21 60 1 66 -6 2 -18 -6 -27 -19z"/>
<path d="M7474 7225 c-7 -17 -81 -19 -219 -6 -52 5 -82 4 -87 -3 -17 -25 17
-34 147 -41 97 -5 135 -11 135 -20 0 -7 -14 -45 -31 -86 -30 -73 -48 -172 -35
-204 11 -31 36 3 36 49 0 23 16 85 37 143 l38 101 125 7 c156 8 172 11 168 33
-2 9 -8 16 -14 16 -5 -1 -66 -5 -135 -8 -122 -7 -127 -6 -132 14 -6 23 -25 27
-33 5z"/>
<path d="M10831 7211 c-19 -12 -9 -46 14 -46 14 0 19 6 17 20 -5 27 -15 36
-31 26z"/>
<path d="M2725 7200 c-4 -7 -3 -16 3 -22 14 -14 45 -2 40 15 -6 16 -34 21 -43
7z"/>
<path d="M4135 7200 c-4 -6 -4 -23 0 -39 4 -19 -4 -55 -25 -111 -32 -88 -38
-151 -17 -167 25 -20 149 -14 241 11 98 27 114 37 93 55 -11 9 -29 7 -78 -9
-35 -12 -101 -24 -146 -28 l-83 -8 0 26 c0 15 7 47 16 73 15 45 17 46 37 32
26 -18 71 -19 135 -4 49 12 81 33 69 46 -4 3 -35 1 -70 -6 -34 -6 -81 -11
-104 -9 -39 3 -42 5 -36 28 3 14 10 27 14 30 4 3 52 16 106 29 54 13 104 25
111 27 6 2 12 11 12 20 0 20 -52 16 -154 -12 l-68 -19 -15 23 c-17 24 -28 28
-38 12z"/>
<path d="M9210 7185 c0 -29 25 -44 43 -26 14 14 -2 44 -27 49 -11 3 -16 -4
-16 -23z"/>
<path d="M16342 7187 c-42 -40 -92 -112 -92 -133 0 -50 65 -106 105 -90 25 9
17 23 -22 43 -23 11 -39 26 -41 39 -4 25 41 82 75 95 18 6 23 15 21 31 -3 26
-27 33 -46 15z"/>
<path d="M16614 7185 c-10 -26 3 -42 38 -49 50 -9 78 -33 78 -65 0 -38 -52
-115 -99 -148 -40 -28 -55 -63 -27 -63 22 0 125 99 147 141 39 77 13 141 -69
170 -18 6 -32 15 -32 20 0 15 -30 10 -36 -6z"/>
<path d="M9655 7128 c-36 -18 -95 -98 -95 -127 0 -47 62 -91 128 -91 66 0 103
11 100 29 -3 13 -14 15 -65 13 -69 -4 -123 18 -123 51 0 10 5 15 11 12 6 -4
26 -4 45 -1 62 12 95 74 58 110 -18 18 -30 19 -59 4z m19 -65 c-34 -25 -51
-14 -19 14 20 18 30 22 33 13 3 -7 -3 -19 -14 -27z"/>
<path d="M13180 7133 c-24 -9 -50 -35 -50 -50 0 -7 11 -31 25 -53 24 -38 24
-40 6 -50 -24 -13 -71 -13 -71 -1 0 5 10 11 23 13 34 5 28 33 -8 33 -22 0 -33
-7 -45 -28 -14 -27 -14 -29 9 -48 28 -23 59 -24 106 -4 49 20 53 40 21 97 -24
43 -25 48 -9 49 10 1 25 2 33 3 8 0 15 10 15 21 0 21 -26 29 -55 18z"/>
<path d="M2265 7111 c-52 -33 -120 -110 -108 -122 17 -17 68 -7 67 13 -2 20
62 85 73 74 4 -4 -6 -45 -21 -92 -26 -76 -28 -87 -14 -100 19 -20 47 -5 73 38
l17 30 24 -35 c44 -66 72 -55 103 40 27 80 28 136 4 131 -12 -2 -21 -17 -26
-43 -17 -80 -28 -115 -37 -115 -4 0 -18 16 -30 35 -24 39 -35 42 -61 19 -17
-15 -17 -14 -1 35 11 37 13 58 6 78 -12 35 -31 38 -69 14z"/>
<path d="M12069 7110 c-41 -22 -99 -73 -99 -89 0 -6 9 -20 20 -31 41 -41 171
-13 178 38 4 23 -33 88 -53 96 -6 2 -27 -4 -46 -14z m47 -86 c-22 -16 -96 -19
-96 -4 0 5 17 21 37 35 l38 25 20 -21 c20 -20 20 -20 1 -35z"/>
<path d="M12817 7078 c-17 -30 -49 -59 -101 -93 -73 -47 -95 -75 -59 -75 9 0
35 11 59 25 26 15 45 21 49 15 10 -17 68 -11 103 10 l32 20 0 -24 c0 -24 24
-41 41 -31 5 4 8 16 7 28 0 12 7 36 16 52 19 36 21 75 3 75 -8 0 -24 -12 -38
-26 -28 -31 -107 -79 -116 -71 -3 3 9 23 26 44 33 40 42 93 17 93 -8 0 -25
-19 -39 -42z"/>
<path d="M13361 7084 c-34 -30 -41 -43 -41 -74 0 -68 68 -101 156 -75 59 17
84 39 65 58 -9 9 -16 8 -33 -2 -58 -36 -148 -30 -148 9 0 16 7 20 34 20 19 0
44 9 57 19 23 19 23 21 9 48 -23 41 -52 40 -99 -3z m59 -14 c0 -5 -8 -10 -17
-10 -15 0 -16 2 -3 10 19 12 20 12 20 0z"/>
<path d="M14825 7088 c-27 -17 -53 -32 -57 -33 -12 0 -22 -15 -25 -37 -2 -12
-19 -61 -38 -109 -39 -98 -46 -159 -17 -159 12 0 22 12 29 38 7 20 22 67 35
103 20 53 26 63 36 52 18 -18 71 -16 111 5 44 22 72 75 69 127 -3 40 -3 40
-48 43 -37 2 -54 -3 -95 -30z m101 -40 c-8 -42 -32 -66 -74 -74 -25 -5 -32 -3
-32 10 0 9 -7 16 -17 16 -14 0 -14 2 3 21 28 32 76 59 103 59 21 0 23 -3 17
-32z"/>
<path d="M8055 7078 c-15 -18 -32 -42 -37 -54 -6 -12 -19 -26 -30 -31 -18 -8
-18 -10 9 -40 50 -56 86 -60 198 -26 59 18 84 38 69 53 -8 8 -20 7 -40 0 -73
-28 -135 -39 -162 -29 l-27 11 45 23 c56 29 90 60 90 83 0 52 -75 58 -115 10z
m70 -18 c-3 -6 -21 -17 -38 -26 l-32 -17 24 27 c23 25 59 37 46 16z"/>
<path d="M10981 7084 c-38 -32 -40 -62 -6 -102 14 -17 25 -33 25 -36 0 -14
-48 -5 -54 10 -9 23 -38 -2 -34 -30 3 -19 10 -21 63 -21 l60 0 3 35 c2 28 -3
41 -23 60 -43 40 -31 60 40 70 27 3 41 11 43 23 3 14 -4 17 -41 17 -34 0 -53
-6 -76 -26z"/>
<path d="M9875 7067 c-43 -43 -47 -82 -10 -99 18 -8 35 -8 59 -1 28 9 35 7 45
-8 14 -23 42 -24 82 -3 50 25 20 52 -33 29 -14 -5 -18 -2 -18 14 0 12 -4 21
-9 21 -6 0 -11 17 -13 38 -3 34 -6 37 -36 40 -26 3 -39 -3 -67 -31z m65 -31
c0 -17 -7 -26 -26 -30 -37 -10 -41 0 -14 29 29 31 40 32 40 1z"/>
<path d="M14169 7075 c-95 -62 -116 -135 -48 -170 53 -28 194 -9 194 25 0 9
-8 14 -20 12 -91 -12 -134 -13 -153 -3 -31 17 -27 28 13 34 74 12 129 67 111
112 -8 22 -56 17 -97 -10z m42 -35 c-22 -19 -41 -26 -41 -15 0 5 51 34 60 34
3 0 -6 -9 -19 -19z"/>
<path d="M15128 7082 c-41 -27 -80 -89 -69 -110 23 -42 61 -66 108 -66 28 -1
48 4 50 11 5 14 -4 18 -61 28 -43 7 -40 16 12 30 50 14 70 50 51 91 -17 35
-53 42 -91 16z m55 -37 c7 -16 -1 -23 -43 -35 -37 -11 -37 -6 -4 25 31 29 40
31 47 10z"/>
<path d="M15433 7071 c-23 -11 -46 -28 -52 -39 -27 -50 1 -123 51 -135 37 -9
92 7 96 27 4 17 -1 18 -36 14 -49 -7 -82 12 -82 48 0 31 56 69 77 52 15 -12
29 13 19 37 -7 20 -22 19 -73 -4z"/>
<path d="M4963 7070 c-13 -5 -31 -23 -41 -39 -14 -22 -21 -28 -30 -19 -15 15
-44 2 -41 -19 4 -28 -11 -133 -27 -192 -16 -57 -13 -81 10 -81 10 0 19 16 26
43 6 23 20 68 32 100 18 51 23 57 48 57 41 0 112 82 108 124 -3 26 -7 31 -33
33 -16 1 -40 -2 -52 -7z m47 -38 c0 -11 -57 -72 -69 -72 -17 0 1 40 27 60 26
21 42 25 42 12z"/>
<path d="M9133 7028 c-15 -38 -18 -58 -11 -71 14 -27 31 -15 41 29 4 21 12 43
17 48 17 17 11 46 -9 46 -13 0 -24 -15 -38 -52z"/>
<path d="M10717 7062 c-31 -35 -38 -69 -17 -94 15 -18 21 -20 31 -11 9 9 9 15
1 26 -10 11 -8 20 8 40 36 45 15 81 -23 39z"/>
<path d="M5160 7041 c-11 -16 -27 -48 -35 -70 -13 -39 -13 -40 13 -57 37 -24
105 -25 110 -1 3 14 -4 17 -35 17 l-38 1 35 18 c73 39 88 85 34 109 -40 19
-61 14 -84 -17z m67 -19 c8 -5 0 -15 -23 -30 -37 -24 -43 -19 -18 16 16 24 22
26 41 14z"/>
<path d="M14586 7055 c-3 -9 -31 -28 -62 -42 -61 -28 -74 -23 -74 25 0 26 -27
30 -37 6 -3 -10 -2 -29 4 -45 9 -24 8 -28 -11 -33 -30 -7 -54 -52 -37 -69 10
-9 16 -8 29 9 30 37 50 37 95 -1 37 -32 75 -44 90 -29 10 10 -4 34 -22 34 -9
1 -29 11 -44 24 l-28 23 43 16 c49 19 101 63 95 80 -6 19 -34 20 -41 2z"/>
<path d="M4679 7032 l-46 -26 -31 22 c-16 12 -35 22 -41 22 -19 0 -12 -39 9
-50 29 -15 25 -25 -20 -57 -43 -30 -53 -63 -20 -63 11 0 20 3 20 8 0 4 22 22
49 41 51 34 64 34 89 -1 7 -10 20 -18 28 -18 21 0 17 36 -7 59 l-21 19 26 17
c25 17 34 39 18 49 -4 2 -28 -7 -53 -22z"/>
<path d="M5450 7030 c-36 -38 -40 -88 -11 -114 36 -33 171 -33 171 -1 0 16 -5
18 -67 15 -60 -2 -83 7 -83 34 0 28 29 56 59 56 34 0 23 34 -12 38 -21 3 -35
-5 -57 -28z"/>
<path d="M2660 7000 c-16 -30 -9 -74 13 -78 13 -3 17 3 17 27 0 16 5 33 10 36
6 3 10 13 10 21 0 21 -38 17 -50 -6z"/>
<path d="M6157 6924 c-16 -16 -6 -35 16 -32 12 2 22 10 22 18 0 16 -26 25 -38
14z"/>
<path d="M8007 6773 c-2 -5 -16 -45 -31 -89 l-27 -81 -47 -6 c-70 -8 -103 -23
-95 -43 4 -11 13 -14 32 -10 87 20 94 20 89 0 -26 -90 -30 -114 -24 -137 8
-34 56 -59 104 -55 26 2 38 8 40 21 3 14 -4 17 -33 17 -45 0 -75 15 -75 38 0
10 9 46 21 80 l21 62 55 -7 c50 -5 55 -4 51 13 -2 13 -15 21 -41 25 -20 3 -40
8 -43 11 -7 8 15 88 32 115 7 12 11 29 8 37 -6 17 -30 22 -37 9z"/>
<path d="M13041 6743 c-7 -16 -33 -61 -59 -100 -41 -66 -49 -73 -77 -73 -17 0
-34 -3 -38 -6 -12 -13 6 -34 30 -34 20 0 24 -4 18 -17 -40 -101 26 -162 128
-120 18 8 38 21 46 30 20 25 -6 31 -52 12 -80 -33 -114 -7 -83 66 14 34 19 37
70 43 72 8 106 22 106 42 0 14 -7 15 -35 10 -19 -3 -51 -9 -72 -13 -29 -5 -35
-4 -28 8 5 8 29 45 53 82 42 65 48 97 19 97 -8 0 -19 -12 -26 -27z"/>
<path d="M16230 6753 c0 -10 -16 -57 -36 -105 l-37 -86 -54 -7 c-41 -5 -53
-10 -53 -24 0 -26 9 -30 41 -19 17 6 32 8 35 6 2 -3 -7 -25 -21 -49 -31 -55
-34 -109 -5 -109 15 0 20 7 20 28 0 15 14 51 31 80 l30 53 62 -3 c50 -2 62 0
62 12 0 10 -16 18 -50 24 -27 5 -51 10 -53 11 -2 2 13 35 33 75 38 76 43 122
13 128 -12 2 -18 -3 -18 -15z"/>
<path d="M14080 6723 c-55 -148 -65 -163 -112 -163 -21 0 -28 -5 -28 -20 0
-16 7 -20 31 -20 24 0 30 -3 25 -16 -19 -49 -18 -63 9 -90 23 -23 32 -25 68
-20 52 9 69 23 65 54 -4 32 -28 41 -35 14 -6 -25 -51 -38 -69 -20 -9 10 -10
21 -1 48 11 32 15 35 57 38 25 2 49 8 55 13 14 14 -13 29 -52 29 l-32 0 15 38
c9 20 23 51 31 69 8 17 13 40 11 49 -5 29 -27 27 -38 -3z"/>
<path d="M2437 6733 c-2 -5 -10 -31 -17 -59 -14 -54 -9 -84 12 -84 14 0 43
124 33 141 -7 11 -22 12 -28 2z"/>
<path d="M6732 6708 c-6 -18 -33 -89 -62 -158 -64 -156 -65 -160 -50 -160 7 0
18 -7 25 -16 19 -26 90 -22 121 7 33 31 51 91 36 124 -14 30 -36 32 -78 6
l-32 -19 40 101 c21 55 38 110 36 121 -5 33 -26 29 -36 -6z m29 -261 c-7 -20
-22 -39 -36 -45 -25 -12 -55 -7 -55 9 0 10 92 81 98 75 2 -3 -1 -20 -7 -39z"/>
<path d="M14976 6660 c-32 -44 -62 -80 -66 -80 -4 0 -8 -10 -8 -22 0 -13 -4
-43 -7 -68 -6 -37 -3 -50 14 -72 27 -34 74 -47 135 -38 60 9 73 21 60 57 -12
34 -39 38 -38 6 0 -19 -5 -23 -30 -25 -82 -4 -113 19 -102 76 10 51 27 63 103
71 72 7 113 26 113 50 0 17 -14 19 -38 6 -9 -5 -44 -12 -76 -16 l-60 -8 46 58
c43 55 52 85 24 85 -7 0 -39 -36 -70 -80z"/>
<path d="M11786 6703 c-10 -11 -7 -71 5 -78 12 -8 49 22 49 40 0 15 -45 47
-54 38z"/>
<path d="M7068 6689 c-33 -19 -21 -39 21 -36 48 3 58 11 41 32 -14 17 -37 19
-62 4z"/>
<path d="M10399 6604 c-57 -29 -104 -145 -65 -160 23 -9 50 15 35 32 -12 14 0
45 33 81 16 17 25 20 42 13 31 -11 54 3 38 23 -18 21 -56 26 -83 11z"/>
<path d="M10559 6571 c-42 -44 -49 -56 -49 -91 0 -62 33 -90 104 -90 64 0 106
14 106 34 0 12 -12 14 -70 9 -80 -7 -100 3 -100 49 0 25 3 28 20 23 22 -7 67
14 93 43 15 16 16 24 7 41 -6 12 -15 21 -20 21 -4 0 -16 3 -25 6 -11 5 -31 -9
-66 -45z m71 0 c0 -5 -7 -12 -16 -15 -14 -5 -15 -4 -4 9 14 17 20 19 20 6z"/>
<path d="M3600 6554 c-27 -25 -52 -45 -57 -44 -4 1 -12 -20 -17 -47 -5 -26
-24 -97 -43 -157 -19 -60 -33 -118 -31 -130 5 -37 29 -23 47 29 10 28 28 76
40 107 11 32 21 67 21 78 0 16 7 20 38 20 67 0 121 51 122 113 0 90 -45 101
-120 31z m80 -28 c0 -25 -7 -40 -26 -55 -26 -21 -74 -29 -74 -13 0 12 45 71
67 87 27 21 33 18 33 -19z"/>
<path d="M8910 6579 c-51 -30 -120 -100 -120 -121 0 -25 19 -22 42 7 19 25
100 85 113 85 11 0 -4 -50 -31 -103 -35 -70 -32 -84 16 -77 8 1 30 13 48 27
26 19 36 22 47 13 8 -6 22 -9 33 -6 20 7 52 65 52 94 0 10 5 23 11 29 16 16 2
33 -27 33 -21 0 -24 -5 -24 -37 -1 -21 -7 -49 -15 -63 -14 -25 -14 -25 -15 -2
0 14 -6 22 -17 22 -9 0 -28 -10 -41 -22 -23 -21 -25 -22 -17 -3 16 39 28 112
22 128 -9 23 -35 21 -77 -4z"/>
<path d="M14613 6570 c-41 -24 -43 -57 -8 -98 30 -36 30 -38 5 -45 -14 -4 -23
2 -32 21 -17 34 -44 50 -59 35 -8 -8 -5 -20 12 -44 13 -19 31 -39 39 -46 18
-15 58 -8 83 14 21 20 22 62 2 69 -9 4 -21 16 -27 27 -8 16 -7 23 7 34 13 9
22 10 31 2 15 -13 34 -4 34 16 0 14 -29 35 -47 35 -4 0 -23 -9 -40 -20z"/>
<path d="M4084 6557 l-28 -25 27 -41 c31 -47 32 -54 11 -72 -13 -10 -17 -10
-24 1 -5 8 -6 18 -4 22 3 5 -2 11 -11 15 -31 11 -40 -40 -12 -74 16 -21 56
-15 82 12 30 29 32 60 6 99 -25 38 -19 46 30 46 33 0 40 3 37 18 -5 29 -79 29
-114 -1z"/>
<path d="M9240 6554 c-17 -15 -40 -44 -51 -66 -43 -85 22 -134 144 -109 72 15
100 28 94 44 -5 14 -23 13 -97 -4 -82 -18 -135 2 -109 42 7 10 11 11 17 2 10
-16 87 18 102 46 18 34 -11 71 -55 71 -7 0 -28 -12 -45 -26z m60 -23 c0 -5
-17 -19 -37 -31 l-38 -22 29 31 c30 31 46 39 46 22z"/>
<path d="M10124 6560 c-36 -23 -70 -80 -61 -104 8 -19 67 -22 86 -3 11 10 14
9 18 -1 9 -24 36 -43 56 -40 28 4 34 28 8 35 -12 3 -21 10 -22 17 0 6 -2 19
-4 29 -2 9 1 15 6 11 15 -9 22 26 11 52 -14 30 -54 32 -98 4z m66 -27 c0 -12
-71 -55 -78 -48 -9 9 45 55 64 55 8 0 14 -3 14 -7z"/>
<path d="M4336 6554 c-21 -20 -20 -32 4 -78 21 -42 20 -50 -12 -67 -20 -11
-21 -9 -15 24 4 24 1 37 -8 40 -20 8 -35 -14 -35 -50 0 -67 76 -78 116 -18 17
25 16 28 -4 71 -27 56 -27 58 2 50 29 -7 43 9 26 29 -16 20 -55 19 -74 -1z"/>
<path d="M5245 6558 c-35 -19 -75 -61 -75 -79 0 -24 15 -32 60 -32 32 0 36 -2
33 -21 -6 -29 27 -69 46 -57 12 8 13 12 1 26 -11 13 -11 22 0 55 7 22 17 40
22 40 18 0 6 40 -18 59 -30 24 -41 25 -69 9z m53 -53 c-14 -11 -69 -22 -73
-15 -9 15 48 40 63 28 7 -6 11 -12 10 -13z"/>
<path d="M7241 6552 c-94 -45 -122 -150 -50 -187 33 -18 115 -20 125 -4 10 17
-16 29 -61 29 -42 0 -65 13 -65 37 0 7 8 13 18 13 30 1 100 37 112 59 24 46
-25 80 -79 53z m39 -32 c0 -5 -15 -17 -32 -25 l-33 -16 28 25 c31 28 37 31 37
16z"/>
<path d="M16393 6563 c-7 -3 -13 -9 -13 -15 0 -6 -13 -26 -30 -45 -51 -58 -30
-113 44 -113 82 0 149 55 130 107 -15 43 -91 81 -131 66z m81 -59 c21 -20 20
-27 -4 -49 -25 -23 -110 -34 -110 -14 1 21 21 44 55 61 39 21 41 21 59 2z"/>
<path d="M11239 6521 c-43 -43 -46 -52 -23 -75 19 -20 51 -20 88 -1 16 9 31
13 34 10 6 -6 -48 -231 -66 -276 -10 -26 -12 -27 -57 -17 -25 5 -52 7 -60 4
-22 -8 -38 -85 -32 -155 8 -108 46 -116 105 -24 17 27 38 65 47 86 13 32 18
36 35 27 10 -5 26 -10 34 -10 25 0 18 29 -10 42 -18 9 -24 18 -21 32 3 12 16
66 30 121 32 124 50 231 42 256 -5 15 -10 17 -25 9 -13 -7 -21 -7 -25 0 -14
23 -58 9 -96 -29z m59 -36 c-1 -1 -14 -6 -28 -10 l-25 -7 25 27 c21 22 26 24
28 10 2 -9 2 -18 0 -20z m-50 -370 c6 -5 -64 -129 -75 -133 -14 -4 -18 61 -7
117 6 30 8 31 43 25 20 -4 37 -8 39 -9z"/>
<path d="M12109 6509 c-42 -43 -50 -57 -47 -83 6 -63 106 -54 143 13 l14 26 1
-30 c3 -69 -1 -202 -7 -233 -5 -30 -8 -33 -36 -30 -25 2 -35 -3 -54 -31 -29
-42 -43 -93 -43 -153 0 -56 21 -68 71 -43 23 13 39 34 62 86 22 49 36 69 49
69 22 0 23 23 2 41 -12 9 -14 23 -10 50 8 52 9 279 1 323 -8 38 -24 46 -46 20
-12 -14 -14 -14 -21 5 -11 31 -24 26 -79 -30z m69 -29 c-15 -45 -78 -82 -78
-47 0 15 47 62 70 70 8 3 16 6 17 6 1 1 -3 -13 -9 -29z m22 -369 c0 -26 -53
-124 -69 -129 -11 -4 -13 4 -8 41 9 67 35 116 58 110 11 -3 19 -13 19 -22z"/>
<path d="M14313 6544 c-42 -21 -103 -88 -103 -114 0 -29 38 -58 84 -65 53 -8
121 6 121 25 0 12 -16 15 -72 15 -71 0 -102 12 -88 35 5 7 11 8 19 1 15 -13
79 3 101 25 19 20 19 58 -1 78 -19 20 -21 19 -61 0z m26 -55 c-29 -18 -44 -9
-19 11 15 11 26 15 29 8 2 -6 -3 -14 -10 -19z"/>
<path d="M3785 6528 c-31 -24 -66 -94 -58 -115 7 -18 83 -16 107 2 18 14 21
13 32 -15 8 -19 20 -30 33 -30 28 0 38 21 17 35 -11 9 -16 24 -14 47 1 25 -5
42 -27 66 -33 38 -52 40 -90 10z m59 -35 c8 -19 -28 -52 -56 -53 -25 0 -22 9
9 42 31 33 38 34 47 11z"/>
<path d="M6393 6502 c-31 -34 -43 -56 -43 -78 0 -63 83 -62 139 1 34 39 37 55
20 88 -28 52 -63 49 -116 -11z m84 -18 c6 -17 -44 -64 -67 -64 -28 0 -25 16
10 52 29 29 50 33 57 12z"/>
<path d="M11503 6523 c-47 -32 -53 -40 -53 -80 0 -37 21 -53 69 -53 42 0 71
31 71 76 0 74 -31 95 -87 57z m44 -77 c-4 -9 -18 -16 -32 -16 -32 0 -34 32 -2
55 20 14 23 14 31 -4 5 -11 6 -27 3 -35z"/>
<path d="M11872 6515 c-28 -20 -52 -41 -52 -48 0 -6 -3 -22 -6 -34 -10 -37 27
-28 53 12 24 36 69 72 80 62 3 -4 0 -27 -6 -52 -12 -48 -9 -65 13 -65 8 0 18
23 26 59 22 105 -15 128 -108 66z"/>
<path d="M13214 6516 c-19 -19 -34 -41 -34 -50 0 -25 37 -56 68 -56 42 0 62
28 59 79 -5 69 -41 79 -93 27z m54 -49 c2 -11 -3 -17 -16 -17 -26 0 -34 11
-20 27 14 17 32 12 36 -10z"/>
<path d="M5485 6526 c-10 -7 -26 -11 -35 -9 -13 3 -26 -11 -49 -50 -55 -96
-32 -105 53 -20 43 43 59 54 68 45 9 -9 9 -23 0 -58 -10 -36 -10 -50 -1 -60
14 -17 34 -13 35 7 0 8 3 31 8 52 10 54 -9 107 -38 107 -12 0 -31 -6 -41 -14z"/>
<path d="M7543 6519 c-34 -21 -73 -76 -73 -101 0 -18 38 -54 66 -62 31 -9 106
10 121 30 18 25 0 41 -29 26 -40 -19 -65 -23 -92 -13 -35 14 -33 26 9 68 27
27 40 34 59 29 29 -7 43 9 26 29 -17 21 -49 18 -87 -6z"/>
<path d="M11716 6508 c-27 -101 -25 -127 7 -115 13 5 27 56 27 105 0 23 -28
32 -34 10z"/>
<path d="M7004 6489 c-3 -6 -1 -16 5 -22 28 -28 2 -128 -47 -180 -23 -24 -72
-57 -85 -57 -2 0 -2 14 1 30 6 41 -21 41 -38 0 -11 -26 -10 -33 5 -50 22 -24
36 -25 78 -4 78 40 137 136 137 222 -1 54 -36 93 -56 61z"/>
<path d="M2409 6457 c-53 -28 -77 -69 -62 -107 9 -23 6 -31 -19 -58 -55 -62
-26 -123 60 -128 32 -1 55 3 62 11 17 20 -14 38 -54 31 -23 -5 -37 -2 -45 8
-20 24 -4 51 50 80 51 28 60 51 21 51 -28 1 -46 19 -39 39 10 25 69 57 94 51
29 -7 41 14 18 32 -25 18 -35 17 -86 -10z"/>
<path d="M3063 6252 c-14 -31 -38 -95 -54 -142 -23 -68 -33 -86 -51 -90 -30
-8 -37 -40 -9 -40 18 0 21 -6 21 -49 0 -59 15 -104 33 -98 8 3 11 24 8 70 l-3
67 60 0 c60 0 88 14 61 31 -8 5 -35 9 -61 9 -27 0 -48 2 -48 4 0 11 56 168 76
215 28 63 29 67 8 75 -11 4 -22 -9 -41 -52z"/>
<path d="M15744 6223 c-79 -77 -114 -132 -139 -216 -25 -85 -16 -116 52 -177
57 -50 153 -96 180 -85 26 9 8 27 -45 47 -32 12 -75 41 -110 72 l-56 53 12 53
c19 80 50 137 116 207 48 52 61 61 73 51 19 -16 34 7 23 36 -13 37 -35 28
-106 -41z"/>
<path d="M8184 6248 c-4 -6 -20 -34 -34 -62 -26 -48 -31 -51 -75 -58 -46 -6
-69 -23 -59 -40 3 -4 23 -5 44 -2 l38 6 -15 -43 c-24 -72 -22 -127 6 -150 46
-38 221 -17 221 27 0 13 -6 15 -27 10 -16 -4 -56 -10 -91 -13 -78 -7 -95 4
-86 56 10 53 34 111 48 112 68 3 170 19 179 28 23 23 -7 30 -83 22 -41 -5 -76
-7 -78 -6 -2 2 6 18 17 36 22 36 27 74 12 84 -5 3 -13 0 -17 -7z"/>
<path d="M13246 6252 c-2 -4 -7 -33 -11 -65 -6 -50 -10 -57 -26 -52 -10 4 -85
-1 -166 -10 -82 -10 -171 -14 -200 -11 -47 5 -53 4 -53 -12 0 -10 5 -23 11
-29 12 -12 18 -12 239 12 182 20 193 20 185 -5 -8 -25 22 -71 41 -63 8 3 14
13 14 22 0 19 38 36 134 61 61 15 82 35 49 46 -42 15 -123 57 -134 70 -6 8
-20 14 -30 14 -11 0 -19 4 -19 9 0 11 -28 22 -34 13z"/>
<path d="M15285 6242 c-6 -4 -19 -33 -28 -65 -10 -32 -24 -60 -30 -61 -7 -2
-30 -8 -52 -12 -26 -6 -41 -15 -43 -27 -3 -17 1 -18 42 -12 l46 7 0 -51 c0
-57 15 -94 52 -127 29 -28 80 -39 108 -24 27 14 21 35 -11 36 -62 2 -70 5 -89
37 -13 21 -20 50 -20 85 l0 54 48 -4 c58 -4 67 21 12 36 -19 5 -36 10 -38 11
-2 2 5 21 14 44 17 43 10 88 -11 73z"/>
<path d="M2850 6111 c0 -24 18 -37 31 -24 13 13 1 43 -17 43 -8 0 -14 -9 -14
-19z"/>
<path d="M4820 6093 c-33 -23 -47 -41 -61 -81 -9 -28 -8 -36 7 -53 21 -23 45
-24 84 -4 l29 15 -10 -32 c-10 -35 10 -78 36 -78 21 0 27 17 11 32 -11 11 -11
24 -1 73 7 34 9 64 4 70 -5 5 -9 18 -9 30 0 45 -46 59 -90 28z m57 -43 c11
-17 9 -22 -21 -45 -30 -23 -66 -33 -66 -20 0 15 32 65 47 74 24 14 26 14 40
-9z"/>
<path d="M2349 6078 c-18 -33 -17 -107 1 -118 21 -13 44 8 29 27 -9 10 -9 23
0 54 17 56 -5 84 -30 37z"/>
<path d="M4013 6065 c-17 -7 -36 -22 -42 -33 -9 -17 -4 -28 36 -72 l47 -52
-23 -19 c-32 -26 -61 -25 -54 2 5 16 2 20 -12 18 -32 -7 -42 -35 -21 -58 25
-27 65 -27 107 2 48 32 48 58 0 115 -38 43 -40 48 -23 60 11 9 31 11 54 8 40
-7 57 6 38 29 -15 19 -65 19 -107 0z"/>
<path d="M5071 6056 c-13 -14 -33 -26 -45 -28 -12 -2 -22 -12 -24 -23 -2 -11
-8 -30 -14 -42 -11 -23 -5 -53 11 -53 6 0 17 12 25 28 19 36 94 108 103 98 4
-4 -1 -28 -10 -54 -25 -64 -25 -77 -2 -80 16 -2 23 8 39 58 25 77 16 114 -29
118 -22 2 -37 -4 -54 -22z"/>
<path d="M7297 6040 c-46 -42 -47 -42 -47 -16 0 19 -5 26 -19 26 -11 0 -23 -5
-27 -11 -5 -8 -10 -6 -16 5 -17 31 -37 18 -44 -30 -4 -30 -17 -58 -36 -80 -28
-32 -30 -54 -5 -54 6 0 32 20 58 45 39 40 46 43 45 24 -2 -37 16 -31 76 24 53
49 57 51 63 30 3 -12 -3 -38 -12 -58 -16 -33 -16 -37 -1 -52 22 -22 52 -10 45
19 -3 12 -1 30 4 41 14 25 4 79 -20 108 l-18 22 -46 -43z"/>
<path d="M7535 6026 c-64 -78 -56 -148 19 -161 40 -7 91 7 91 26 0 10 -10 13
-35 12 -48 -4 -80 5 -80 21 0 7 14 16 31 20 34 6 89 56 89 80 0 22 -28 46 -55
46 -16 0 -36 -15 -60 -44z m65 -12 c-8 -8 -23 -20 -34 -26 -19 -10 -18 -8 3
16 26 27 53 37 31 10z"/>
<path d="M3713 6005 c-44 -45 -53 -61 -53 -90 0 -29 5 -37 27 -46 18 -7 36 -6
56 0 26 10 32 8 49 -14 20 -26 58 -34 58 -13 0 6 -8 20 -17 30 -16 18 -16 22
0 67 15 44 16 52 2 85 -23 55 -56 50 -122 -19z m87 -20 c0 -14 -14 -35 -35
-54 -40 -35 -53 -38 -62 -15 -4 10 9 31 37 59 46 46 60 49 60 10z"/>
<path d="M5980 6032 c-33 -33 -49 -95 -30 -117 18 -21 63 -19 94 6 l26 20 0
-30 c0 -31 22 -51 54 -51 21 0 21 29 0 37 -12 5 -15 18 -12 66 3 58 2 61 -27
78 -44 25 -73 23 -105 -9z m70 -31 c8 -16 5 -23 -16 -40 -46 -36 -67 -25 -43
22 22 40 43 47 59 18z"/>
<path d="M6268 6043 c-41 -47 -78 -155 -58 -168 15 -9 40 13 40 37 0 26 38 98
52 98 6 0 20 -8 30 -17 14 -12 21 -14 30 -5 8 8 3 19 -20 41 -35 35 -52 38
-74 14z"/>
<path d="M6800 6034 c-6 -14 -10 -29 -10 -33 0 -4 -13 -22 -28 -40 -19 -24
-37 -34 -58 -35 -23 -1 -30 -6 -32 -25 -4 -22 -1 -23 35 -17 21 3 51 6 67 6
16 0 46 11 67 24 l37 25 6 -25 c12 -47 106 -60 106 -14 0 16 -6 20 -32 18 -32
-3 -33 -1 -36 37 -2 22 -7 44 -12 49 -5 5 -28 -7 -53 -28 -24 -20 -46 -36 -49
-36 -3 0 6 23 19 50 13 28 21 55 18 60 -11 19 -35 10 -45 -16z"/>
<path d="M6566 6041 c-3 -5 -15 -7 -25 -4 -27 7 -54 -10 -85 -56 -55 -79 -11
-136 74 -94 l41 21 -6 -31 c-3 -18 -13 -64 -21 -104 l-15 -72 -34 15 c-19 8
-53 14 -75 14 -34 0 -42 -4 -50 -26 -20 -51 15 -215 49 -233 10 -6 23 -6 33 0
20 11 75 99 84 133 3 13 15 26 26 29 16 5 18 9 9 25 -7 13 -5 39 9 93 24 93
34 202 23 253 -8 39 -26 56 -37 37z m-30 -73 c-6 -33 -29 -58 -53 -58 -20 0
-16 20 13 57 32 43 48 43 40 1z m-51 -290 c14 -6 25 -17 25 -24 0 -18 -19 -61
-48 -108 -19 -31 -26 -36 -33 -24 -12 21 -31 147 -24 159 8 13 49 11 80 -3z"/>
<path d="M7823 6026 c-15 -12 -33 -21 -39 -19 -13 4 -21 -6 -58 -70 -24 -41
-25 -48 -11 -53 11 -5 34 12 73 52 l57 59 5 -55 c4 -42 9 -56 23 -58 15 -3 17
5 17 70 0 68 -10 98 -31 98 -4 0 -20 -11 -36 -24z"/>
<path d="M13731 6005 c-18 -21 -31 -47 -31 -63 0 -15 -3 -37 -6 -48 -4 -15 0
-23 13 -28 10 -3 29 -13 43 -21 30 -18 69 -13 137 17 52 22 67 38 53 52 -5 5
-39 -3 -79 -19 -39 -16 -74 -25 -78 -22 -4 4 6 21 22 37 20 21 29 40 29 64 0
72 -53 88 -103 31z m67 -26 c1 -9 -10 -28 -25 -45 -27 -28 -28 -28 -31 -7 -6
44 48 94 56 52z"/>
<path d="M13997 6023 c-13 -13 -7 -33 23 -66 l29 -34 -24 -13 c-14 -7 -25 -20
-25 -27 0 -24 28 -26 56 -4 26 20 27 21 40 3 7 -10 16 -32 20 -48 7 -30 22
-46 36 -38 14 9 9 48 -11 88 l-20 37 35 21 c19 11 34 26 34 34 0 22 -27 28
-46 10 -37 -37 -54 -39 -85 -10 -16 15 -29 34 -29 41 0 14 -22 18 -33 6z"/>
<path d="M14892 6022 c-12 -4 -38 -20 -58 -35 -70 -57 -27 -127 84 -135 64 -5
137 18 129 40 -2 7 -13 12 -23 10 -100 -14 -135 -14 -159 2 -32 21 -32 39 0
60 27 18 55 21 55 6 0 -13 27 -13 35 1 4 5 4 21 1 35 -6 24 -20 28 -64 16z"/>
<path d="M9438 5988 c-58 -77 -60 -111 -7 -141 17 -9 62 -20 101 -24 65 -6 70
-5 66 13 -3 15 -16 21 -68 27 -36 4 -69 12 -73 16 -5 5 11 18 35 30 61 32 71
47 52 82 -22 43 -73 41 -106 -3z m72 -18 c0 -12 -40 -34 -47 -26 -9 8 17 36
33 36 8 0 14 -4 14 -10z"/>
<path d="M14597 5989 c-48 -39 -52 -89 -10 -116 38 -25 136 -25 141 0 3 14 -4
17 -47 17 -56 0 -68 14 -21 24 38 7 55 41 41 79 -15 38 -55 36 -104 -4z m73
-23 c0 -13 -58 -31 -67 -22 -5 5 46 35 60 36 4 0 7 -6 7 -14z"/>
<path d="M14348 5988 c-13 -13 -27 -23 -33 -23 -5 0 -13 -25 -16 -55 -4 -30
-14 -85 -23 -122 -10 -36 -16 -84 -14 -105 l3 -38 21 21 c14 14 25 46 34 97
12 71 15 77 37 77 26 0 78 23 106 48 40 36 6 103 -60 117 -25 5 -36 2 -55 -17z
m66 -28 c14 -5 26 -16 26 -25 0 -15 -55 -55 -75 -55 -16 0 -16 42 1 67 17 26
15 26 48 13z"/>
<path d="M9967 5993 c-4 -3 -7 -24 -7 -45 0 -35 -4 -41 -35 -54 -43 -18 -55
-18 -55 0 0 19 29 41 53 41 26 0 31 16 13 40 -14 19 -16 19 -43 4 -30 -18 -73
-74 -73 -95 0 -8 12 -21 26 -31 23 -14 32 -15 71 -4 25 6 47 10 48 9 2 -2 0
-37 -2 -78 l-5 -75 -46 4 c-35 2 -49 -1 -59 -15 -19 -26 -16 -94 6 -134 33
-62 89 -46 113 32 8 26 17 38 30 38 21 0 23 17 5 39 -10 12 -12 35 -7 91 13
152 -3 264 -33 233z m-22 -355 c-4 -18 -14 -44 -22 -57 -15 -23 -16 -24 -29
-6 -8 10 -14 36 -14 57 0 37 1 38 36 38 35 0 35 -1 29 -32z"/>
<path d="M2802 5957 c-17 -20 -36 -102 -29 -121 11 -28 31 -13 38 26 3 20 13
48 23 62 9 15 14 31 11 36 -9 14 -31 12 -43 -3z"/>
<path d="M8683 5943 c-7 -3 -13 -14 -13 -25 0 -12 -18 -38 -40 -59 -43 -41
-52 -69 -22 -69 31 0 102 88 102 127 0 24 -9 33 -27 26z"/>
<path d="M9693 5874 c-4 -11 1 -22 12 -30 25 -18 40 -3 26 25 -14 25 -29 27
-38 5z"/>
<path d="M10162 5863 c2 -12 12 -18 28 -18 36 0 33 29 -3 33 -23 3 -28 0 -25
-15z"/>
<path d="M2288 5760 c-54 -57 -76 -107 -89 -197 -14 -101 -7 -179 24 -245 40
-88 68 -107 190 -133 20 -4 29 -1 33 10 9 21 5 23 -54 35 -70 13 -98 34 -130
94 -23 45 -26 62 -26 146 0 128 16 185 65 243 22 26 47 47 55 47 19 0 18 26
-2 34 -24 9 -24 9 -66 -34z"/>
<path d="M4858 5688 c-50 -53 -68 -103 -68 -189 l0 -77 -50 -33 c-27 -19 -52
-40 -54 -47 -12 -28 26 -22 74 12 27 20 50 31 50 26 0 -20 49 -60 73 -60 29 0
38 16 26 48 -9 24 -24 29 -34 12 -5 -8 -11 -7 -21 1 -20 16 -18 27 12 61 66
79 93 186 61 247 -18 36 -34 36 -69 -1z m42 -68 c0 -39 -38 -132 -60 -145 -16
-10 -12 81 5 122 31 73 55 83 55 23z"/>
<path d="M4091 5653 c-6 -21 -15 -60 -22 -86 -11 -47 -12 -48 -43 -41 -52 13
-80 10 -84 -7 -2 -12 11 -19 50 -27 l53 -12 0 -69 c0 -60 3 -73 24 -95 19 -20
34 -26 65 -26 60 0 86 10 86 31 0 17 -5 19 -56 13 -49 -6 -59 -4 -70 11 -16
21 -18 102 -5 124 5 8 38 19 73 26 43 7 63 16 63 26 0 11 -13 13 -62 12 l-61
-3 14 53 c7 28 14 64 14 80 0 41 -27 34 -39 -10z"/>
<path d="M5994 5659 c-3 -6 -10 -64 -13 -128 -6 -98 -12 -124 -34 -168 -48
-92 -27 -99 53 -18 30 30 58 55 63 55 6 0 7 -19 4 -42 -6 -45 5 -78 28 -78 15
0 19 50 9 133 -7 56 -23 61 -66 20 l-28 -27 4 29 c3 17 8 76 11 133 4 85 3
102 -9 102 -8 0 -18 -5 -22 -11z"/>
<path d="M6730 5637 c0 -7 13 -26 29 -41 16 -15 31 -41 35 -56 7 -36 -18 -133
-46 -179 -31 -51 -126 -179 -138 -186 -6 -4 4 -22 25 -43 l35 -36 -28 -23
c-39 -31 -308 -163 -502 -245 -91 -38 -248 -107 -350 -153 -415 -186 -491
-219 -625 -270 -191 -73 -352 -104 -382 -74 -8 8 -14 5 -22 -10 -10 -19 -8
-23 16 -32 87 -34 328 34 658 185 173 78 482 215 687 302 239 102 490 225 540
265 36 29 37 29 48 9 16 -29 33 -25 49 13 8 17 23 45 35 61 28 41 56 97 56
113 0 17 -10 16 -81 -7 -34 -12 -64 -19 -66 -16 -3 2 16 34 42 71 80 111 108
212 79 284 -23 58 -94 109 -94 68z"/>
<path d="M5834 5628 c-5 -7 -15 -44 -24 -83 -14 -59 -21 -70 -41 -75 -30 -7
-31 -34 -1 -38 25 -4 26 -9 12 -83 -7 -37 -7 -56 1 -63 17 -18 36 18 43 84 l7
60 49 0 c28 0 50 4 50 8 0 18 -26 32 -57 32 -39 0 -40 8 -18 94 8 32 13 62 9
67 -7 13 -21 11 -30 -3z"/>
<path d="M2505 5527 c-54 -52 -57 -77 -12 -112 33 -24 141 -54 153 -42 16 15
-9 34 -57 46 -30 6 -63 18 -74 27 -19 14 -18 15 17 50 31 31 38 35 57 25 18
-10 22 -9 28 5 7 19 -20 44 -49 44 -10 0 -38 -19 -63 -43z"/>
<path d="M2798 5528 c-16 -30 -16 -122 0 -141 54 -65 182 17 155 99 -14 43
-38 37 -38 -10 -1 -39 -30 -76 -61 -76 -26 0 -39 45 -25 90 17 58 -5 85 -31
38z"/>
<path d="M3097 5522 c-35 -21 -43 -52 -28 -103 14 -45 52 -72 74 -50 9 9 7 16
-10 29 -13 9 -25 31 -29 49 -5 28 -3 34 19 44 18 8 30 8 46 0 18 -10 22 -9 28
5 7 20 -21 44 -51 44 -12 0 -34 -8 -49 -18z"/>
<path d="M5060 5498 c-39 -54 -47 -85 -29 -117 17 -30 78 -56 114 -47 32 8 33
36 1 36 -14 0 -37 5 -53 11 -26 10 -27 12 -9 23 61 36 82 88 48 119 -28 25
-39 21 -72 -25z m40 -34 c-18 -21 -24 -10 -8 15 7 12 14 17 16 11 2 -6 -2 -17
-8 -26z"/>
<path d="M3266 5507 c-27 -20 -34 -108 -12 -142 17 -26 40 -33 51 -14 4 5 0
18 -9 28 -21 23 -21 90 -1 98 9 3 24 -2 35 -12 18 -16 20 -17 26 -1 8 22 -23
56 -51 56 -11 0 -29 -6 -39 -13z"/>
<path d="M5293 5476 c-54 -62 -70 -93 -54 -109 14 -13 10 -17 68 67 46 65 57
60 50 -18 -5 -49 -3 -67 8 -76 24 -20 31 -5 33 69 2 59 0 73 -18 91 -29 29
-44 25 -87 -24z"/>
<path d="M3496 5478 c-15 -18 -31 -38 -36 -45 -17 -21 -4 -76 24 -100 30 -26
76 -29 141 -12 22 6 53 11 68 10 23 0 29 5 34 29 3 16 20 46 38 67 l33 38 10
-40 c6 -22 12 -49 14 -60 2 -11 11 -21 21 -23 13 -3 17 3 17 25 0 77 -39 137
-82 125 -23 -6 -75 -72 -90 -115 -6 -17 -14 -24 -17 -18 -5 8 -23 8 -62 -1
-56 -11 -109 -6 -109 12 0 6 11 10 25 10 56 0 96 78 59 114 -25 26 -60 19 -88
-16z m62 -24 c-3 -19 -34 -41 -43 -32 -4 3 -2 16 5 27 13 25 43 28 38 5z"/>
<path d="M5548 5460 c-29 -22 -39 -56 -26 -90 7 -20 13 -22 53 -18 45 6 45 6
44 -26 0 -17 -6 -56 -12 -86 -9 -42 -17 -56 -32 -58 -34 -7 -55 -33 -71 -90
-18 -61 -14 -101 17 -143 21 -30 56 -39 65 -16 2 7 13 55 23 106 10 50 21 95
25 98 5 5 17 -18 30 -59 8 -25 36 -23 36 2 0 31 -26 87 -45 98 -18 10 -16 38
17 220 10 53 10 65 -3 73 -9 6 -18 3 -26 -8 -12 -16 -13 -16 -13 0 0 24 -51
22 -82 -3z m82 -33 c0 -14 -40 -37 -65 -37 -12 0 -12 5 -3 25 8 18 19 25 40
25 17 0 28 -5 28 -13z m-56 -363 c-7 -42 -16 -79 -19 -82 -24 -25 -25 96 -1
133 28 43 34 28 20 -51z"/>
<path d="M4364 5345 c-4 -9 -2 -21 4 -27 15 -15 44 -1 40 19 -4 23 -36 29 -44
8z"/>
<path d="M6910 5330 c-9 -16 -8 -21 5 -26 23 -9 47 4 43 23 -5 26 -35 28 -48
3z"/>
<path d="M11611 4327 c-18 -22 -38 -78 -60 -165 -12 -45 -33 -113 -47 -151
-25 -68 -26 -69 -50 -56 -35 18 -70 7 -104 -32 -38 -42 -41 -94 -8 -117 36
-25 59 -19 104 28 56 59 98 149 135 293 17 65 40 135 50 156 25 47 10 79 -20
44z m-151 -413 c0 -12 -74 -84 -86 -84 -33 0 -2 81 36 92 15 5 50 -1 50 -8z"/>
<path d="M9339 4230 c-16 -51 -20 -73 -12 -81 15 -15 29 -5 38 28 3 15 14 43
24 64 13 27 15 41 8 48 -22 22 -35 9 -58 -59z"/>
<path d="M5525 4213 c-29 -105 -58 -187 -92 -266 -18 -44 -31 -83 -27 -88 11
-19 34 -7 73 39 45 52 49 45 25 -34 -17 -52 -14 -89 8 -82 16 6 40 94 42 153
1 50 1 50 -30 50 -30 0 -31 2 -22 25 22 56 68 216 68 238 0 13 -6 22 -15 22
-9 0 -20 -21 -30 -57z"/>
<path d="M7807 4214 c-16 -31 -37 -99 -48 -152 -19 -95 -28 -112 -60 -112 -9
0 -28 -10 -43 -21 -40 -31 -19 -46 34 -25 l41 16 -17 -32 c-9 -18 -26 -43 -37
-56 -16 -17 -18 -25 -9 -34 17 -17 67 34 88 88 11 30 23 44 38 46 25 4 30 44
5 42 -15 -1 -15 6 -3 70 15 76 38 147 61 183 8 12 12 27 8 33 -14 22 -32 8
-58 -46z"/>
<path d="M12422 4258 c-7 -7 -12 -17 -12 -24 0 -6 -32 -93 -70 -193 -57 -148
-68 -186 -59 -202 16 -30 55 -42 87 -25 42 22 102 85 102 106 0 27 -37 62 -63
60 -47 -4 -48 -2 -21 68 54 139 72 195 67 208 -6 17 -15 18 -31 2z m5 -335 c5
-14 -86 -85 -99 -77 -13 8 24 67 53 81 26 14 41 13 46 -4z"/>
<path d="M13473 4242 c-6 -4 -14 -18 -18 -31 -4 -14 -32 -81 -61 -149 -30 -69
-54 -133 -54 -143 0 -30 43 -28 77 3 l21 20 -10 -41 c-12 -48 0 -71 38 -71 28
0 30 7 9 30 -12 14 -12 23 5 79 24 75 24 77 5 85 -9 3 -30 -8 -50 -26 -41 -36
-43 -42 24 113 22 53 41 103 41 112 0 19 -12 28 -27 19z"/>
<path d="M5349 4188 c-13 -24 -35 -74 -49 -113 -25 -65 -30 -70 -61 -75 -26
-4 -34 -10 -34 -25 0 -16 6 -19 28 -17 27 3 28 2 23 -30 -12 -75 -10 -98 8
-98 14 0 17 11 31 92 6 36 7 37 53 40 35 2 48 7 50 21 3 14 -4 17 -38 17 -41
0 -42 1 -36 28 4 15 22 60 41 101 19 40 35 79 35 87 0 29 -30 12 -51 -28z"/>
<path d="M10741 4116 l-43 -115 -40 -6 c-29 -5 -38 -11 -36 -23 2 -11 13 -17
28 -17 l25 0 -14 -57 c-7 -31 -11 -64 -7 -73 8 -22 42 -14 38 8 -2 10 4 42 12
71 17 57 32 66 107 66 15 0 30 4 33 9 11 17 -24 33 -64 29 -22 -2 -40 -3 -40
-2 0 1 20 49 44 108 24 58 41 108 38 111 -3 3 -13 5 -21 5 -12 0 -29 -34 -60
-114z"/>
<path d="M10991 4216 c-6 -7 -27 -58 -45 -112 -19 -55 -48 -137 -66 -183 -45
-123 -31 -141 50 -65 l50 47 -17 -46 c-14 -38 -15 -48 -3 -62 16 -20 35 -14
35 11 0 10 9 45 20 77 17 52 18 59 4 73 -14 14 -20 12 -62 -20 l-46 -35 29 67
c15 37 36 94 45 127 9 33 25 74 35 92 10 17 16 34 13 37 -11 10 -30 7 -42 -8z"/>
<path d="M15525 4095 l-37 -114 -56 -3 c-43 -2 -57 -7 -57 -18 0 -11 13 -16
48 -18 38 -2 47 -6 43 -18 -19 -48 -36 -125 -31 -134 13 -22 33 -8 40 27 3 20
14 54 22 75 14 35 18 38 43 33 49 -11 47 31 -1 47 -10 3 22 123 48 181 14 33
15 40 2 48 -8 5 -17 9 -21 9 -4 0 -24 -52 -43 -115z"/>
<path d="M15745 4180 c-8 -16 -31 -80 -50 -142 -19 -62 -46 -135 -60 -162 -26
-52 -33 -110 -14 -122 14 -8 29 14 29 44 0 12 6 22 14 22 8 0 29 14 45 32 43
46 49 28 12 -37 -34 -60 -31 -85 11 -85 15 0 19 5 15 19 -3 11 6 42 20 68 44
88 16 141 -50 92 -27 -20 -30 -20 -22 -3 4 10 23 71 42 134 23 74 42 121 55
131 23 18 17 39 -12 39 -11 0 -26 -12 -35 -30z"/>
<path d="M2645 4165 c-33 -7 -100 -17 -150 -21 -100 -7 -132 -18 -116 -38 7
-9 33 -10 97 -4 49 4 89 6 91 4 2 -1 -4 -23 -12 -47 -20 -56 -45 -172 -45
-209 0 -19 7 -33 20 -40 19 -10 20 -8 20 32 0 51 21 143 50 221 21 56 21 56
75 67 30 6 64 9 75 5 14 -4 22 -1 26 10 4 9 4 18 1 21 -12 12 -77 12 -132 -1z"/>
<path d="M2847 4173 c-4 -3 -7 -17 -7 -30 0 -13 -18 -69 -40 -124 -22 -56 -43
-119 -46 -140 -6 -34 -4 -39 14 -39 11 0 35 19 57 46 20 25 39 43 41 41 2 -2
-3 -24 -13 -49 -9 -25 -13 -53 -10 -62 8 -20 37 -21 37 0 0 8 7 38 16 65 28
84 -8 128 -61 74 -14 -13 -25 -23 -25 -22 0 1 14 36 31 77 37 90 49 170 27
170 -8 0 -18 -3 -21 -7z"/>
<path d="M13923 4094 c-7 -18 9 -51 23 -46 14 3 11 55 -3 59 -7 3 -16 -3 -20
-13z"/>
<path d="M14384 4096 c-10 -26 1 -51 24 -54 24 -4 29 16 12 49 -13 23 -28 25
-36 5z"/>
<path d="M8011 4082 c-15 -27 10 -50 29 -27 11 13 11 19 -2 32 -15 14 -17 13
-27 -5z"/>
<path d="M8464 4021 c-84 -38 -96 -81 -36 -131 30 -25 34 -32 22 -40 -25 -16
-63 -12 -56 5 8 21 -17 29 -43 15 -23 -12 -27 -40 -9 -58 17 -17 93 -15 128 3
40 21 38 49 -5 92 -19 19 -35 39 -35 44 0 15 60 40 80 34 21 -7 33 6 24 28 -9
24 -28 26 -70 8z"/>
<path d="M13153 4020 c-16 -10 -40 -30 -52 -45 -56 -72 -30 -115 68 -115 62 0
87 11 78 32 -4 11 -19 13 -65 10 -35 -2 -62 0 -66 6 -4 6 8 27 26 47 28 32 35
36 65 30 28 -5 33 -3 33 14 0 31 -51 43 -87 21z"/>
<path d="M3053 4005 c-38 -16 -82 -78 -90 -127 -4 -28 -1 -40 17 -58 20 -20
30 -22 96 -18 53 2 79 8 91 21 25 25 6 40 -34 27 -47 -17 -127 -9 -131 13 -2
11 3 17 14 17 25 0 100 46 108 66 18 46 -23 79 -71 59z m32 -45 c-3 -6 -21
-17 -38 -26 l-32 -17 24 27 c23 25 59 37 46 16z"/>
<path d="M6404 3975 c-23 -25 -46 -45 -51 -45 -11 0 -28 -44 -58 -145 -10 -33
-30 -86 -46 -118 -24 -47 -27 -58 -15 -63 24 -9 31 0 77 101 24 52 49 95 55
95 17 0 100 77 122 113 31 50 35 73 17 91 -27 27 -56 19 -101 -29z m65 -17
c-20 -40 -59 -87 -80 -99 -20 -10 -20 -10 -4 20 19 37 74 101 86 101 6 0 4
-10 -2 -22z"/>
<path d="M9290 3989 c-23 -24 -30 -38 -26 -55 5 -17 1 -26 -16 -35 -82 -41
-75 -134 12 -160 43 -13 70 -7 70 16 0 10 -9 15 -28 15 -36 0 -72 26 -72 51 0
19 80 79 106 79 6 0 15 7 18 15 4 11 -3 17 -25 22 -28 5 -29 7 -13 24 21 24
74 26 74 3 0 -22 34 -14 38 9 5 26 -26 46 -70 47 -28 0 -44 -7 -68 -31z"/>
<path d="M10025 3995 c-16 -13 -37 -24 -45 -25 -13 0 -91 -132 -90 -152 0 -25
35 2 94 73 38 44 70 78 73 76 2 -3 -3 -22 -12 -43 -27 -64 11 -68 92 -8 21 15
21 15 16 -24 -5 -35 -2 -42 21 -57 22 -15 29 -15 42 -4 15 12 14 15 -6 31 -22
18 -22 20 -8 66 11 32 13 51 6 60 -16 19 -31 15 -77 -25 -38 -32 -43 -34 -36
-14 10 32 -2 71 -23 71 -9 0 -30 -11 -47 -25z"/>
<path d="M10387 4004 c-53 -29 -94 -123 -69 -160 12 -19 49 -34 82 -34 49 0
120 21 120 36 0 21 -12 23 -67 12 -58 -12 -103 -5 -103 16 0 8 16 15 45 18 55
7 75 22 75 57 0 30 -25 71 -43 71 -7 -1 -24 -8 -40 -16z m41 -51 c-2 -11 -14
-19 -33 -21 -30 -4 -30 -4 -11 17 23 26 49 28 44 4z"/>
<path d="M4133 3989 c-40 -25 -41 -49 -8 -104 26 -42 32 -74 15 -76 -30 -5
-35 -1 -40 26 -7 41 -34 40 -38 -2 -4 -37 26 -73 58 -73 26 0 70 43 70 68 0
10 -11 41 -25 68 -23 45 -24 50 -8 62 9 6 30 12 46 12 22 0 28 4 25 18 -5 25
-57 26 -95 1z"/>
<path d="M4405 3988 c-33 -26 -55 -75 -55 -122 0 -44 37 -76 87 -76 45 0 113
38 113 62 0 23 -18 23 -55 -2 -34 -22 -75 -26 -93 -8 -21 21 -13 33 43 61 61
30 70 52 35 87 -26 26 -41 25 -75 -2z m49 -27 c3 -4 -6 -13 -20 -19 -23 -11
-24 -10 -14 8 11 21 25 26 34 11z"/>
<path d="M6765 3977 c-8 -19 -22 -40 -31 -48 -28 -23 -46 -76 -34 -99 16 -31
65 -26 101 9 23 24 29 38 29 75 0 91 -38 128 -65 63z m21 -92 c-5 -21 -41 -44
-51 -33 -3 2 7 22 22 43 27 40 40 35 29 -10z"/>
<path d="M7003 3990 c-42 -25 -55 -46 -119 -194 -58 -133 -62 -151 -39 -159
14 -6 65 45 65 65 0 6 9 36 21 67 15 43 25 57 41 58 12 1 46 19 75 39 82 57
94 92 41 124 -41 25 -45 25 -85 0z m77 -41 c0 -10 -92 -81 -97 -75 -10 10 22
75 41 84 23 10 56 5 56 -9z"/>
<path d="M7187 3970 c-43 -51 -65 -113 -47 -135 25 -30 140 -12 160 25 24 45
-4 71 -31 29 -9 -13 -29 -22 -58 -26 -53 -7 -49 9 7 33 69 28 99 73 70 102
-25 25 -65 14 -101 -28z m59 -15 c-26 -19 -42 -19 -26 0 7 8 20 15 29 15 13
-1 13 -3 -3 -15z"/>
<path d="M8112 3966 c-78 -85 -92 -150 -40 -189 49 -36 178 -32 178 7 0 11
-16 13 -70 12 -52 -1 -73 3 -85 15 -15 15 -14 17 13 27 45 16 112 80 112 108
0 26 -32 64 -54 64 -7 0 -32 -20 -54 -44z m63 -28 c-4 -9 -25 -29 -48 -44
l-41 -27 18 29 c30 47 59 75 68 66 5 -5 6 -16 3 -24z"/>
<path d="M6625 3988 c-31 -18 -53 -49 -70 -97 -17 -49 -9 -67 23 -57 15 5 20
15 20 36 -1 32 25 79 45 81 6 1 22 0 35 -1 19 -1 42 24 31 34 -13 11 -67 14
-84 4z"/>
<path d="M11750 3993 c-8 -3 -28 -15 -43 -26 -30 -21 -32 -40 -12 -119 10 -39
-20 -50 -45 -18 -19 25 -40 20 -40 -9 0 -40 66 -63 105 -37 28 18 32 50 13
102 -14 41 3 68 38 60 26 -7 36 10 22 37 -9 18 -13 19 -38 10z"/>
<path d="M5671 3943 c-53 -79 -55 -121 -6 -135 33 -9 131 7 141 24 14 22 -14
31 -60 19 -42 -10 -76 -7 -76 8 0 3 17 15 38 26 40 22 54 63 31 91 -20 24 -36
16 -68 -33z"/>
<path d="M7410 3953 c-33 -41 -46 -74 -36 -98 9 -25 36 -18 36 9 0 14 12 39
27 56 24 29 31 31 64 26 41 -7 58 6 39 29 -8 9 -30 15 -55 15 -38 0 -48 -5
-75 -37z"/>
<path d="M12640 3956 c-17 -18 -37 -42 -45 -52 -14 -18 -14 -18 -15 4 0 17 -5
22 -17 20 -14 -3 -18 -13 -16 -48 2 -37 -3 -51 -31 -84 -57 -70 -79 -127 -56
-141 12 -8 42 14 35 25 -6 9 32 66 123 183 39 52 72 99 72 105 0 25 -21 20
-50 -12z"/>
<path d="M13633 3968 c-44 -31 -71 -83 -57 -106 13 -21 56 -27 84 -12 20 11
21 10 15 -24 -6 -32 -4 -37 19 -47 21 -10 29 -10 39 0 9 10 8 15 -5 25 -16 12
-16 16 2 64 22 58 25 82 10 82 -6 0 -20 9 -32 20 -28 25 -36 25 -75 -2z m61
-49 c-9 -15 -64 -41 -77 -36 -7 2 2 17 21 36 27 27 35 31 47 21 8 -7 12 -16 9
-21z"/>
<path d="M3845 3935 c-15 -24 -53 -69 -86 -100 -56 -51 -67 -75 -34 -75 7 0
27 11 43 25 26 22 30 23 44 9 18 -19 45 -8 91 34 l27 26 0 -32 c0 -34 18 -49
46 -38 13 5 14 9 4 21 -10 12 -9 27 5 76 14 51 14 63 3 71 -9 6 -26 -6 -58
-40 -25 -26 -58 -59 -74 -72 l-30 -25 33 58 c49 90 54 107 31 107 -12 0 -29
-16 -45 -45z"/>
<path d="M16380 3938 l-35 -39 0 33 c0 28 -4 33 -25 36 -15 2 -41 -8 -63 -22
-20 -14 -37 -21 -37 -16 0 6 -6 10 -14 10 -16 0 -88 -128 -80 -142 11 -18 32
-5 99 62 38 39 73 70 77 70 14 0 8 -16 -22 -61 -24 -37 -27 -46 -16 -57 17
-17 40 -6 96 45 l39 34 -6 -34 c-7 -45 17 -69 66 -65 25 2 37 8 39 21 3 14 -4
17 -33 17 -35 0 -36 2 -31 28 5 27 9 85 7 110 -2 22 -25 11 -61 -30z"/>
<path d="M3219 3903 c-16 -37 -28 -73 -27 -81 6 -31 26 -21 67 33 23 30 46 55
51 55 15 0 12 -36 -5 -77 -18 -42 -19 -69 -5 -78 13 -8 42 14 35 25 -3 4 2 24
10 44 18 43 19 98 3 114 -7 7 -22 12 -34 12 -13 0 -26 5 -29 10 -15 25 -38 6
-66 -57z"/>
<path d="M13989 3923 c-62 -58 -73 -77 -55 -92 11 -9 25 1 69 46 59 61 81 65
55 10 -10 -22 -13 -39 -7 -55 11 -29 45 -26 42 3 -1 11 4 37 12 58 18 46 18
42 -1 61 -28 28 -62 19 -115 -31z"/>
<path d="M14732 3947 c-46 -35 -74 -74 -70 -99 2 -19 10 -24 40 -26 20 -2 46
2 57 7 18 10 19 7 15 -72 -9 -150 -5 -143 -70 -139 -55 4 -56 3 -99 -41 -49
-52 -73 -124 -56 -170 22 -56 107 -27 172 60 20 26 42 58 48 70 l12 23 54 -31
c53 -30 85 -35 87 -14 1 9 -33 32 -100 67 -19 10 -22 17 -18 47 3 20 8 100 12
177 6 136 6 142 -14 153 -28 15 -34 14 -70 -12z m39 -56 c-12 -21 -48 -37 -59
-26 -4 4 9 20 28 36 36 30 50 26 31 -10z m-31 -320 c0 -13 -48 -82 -83 -118
-30 -32 -77 -45 -77 -22 0 33 27 95 53 120 22 22 38 29 68 29 21 0 39 -4 39
-9z"/>
<path d="M14495 3943 c-64 -34 -115 -91 -115 -128 0 -27 28 -16 50 19 18 31
75 76 94 76 3 0 4 -17 0 -38 -4 -28 -2 -41 10 -51 18 -15 19 -14 34 66 13 74
-9 90 -73 56z"/>
<path d="M15968 3945 c-14 -8 -36 -31 -48 -50 -13 -20 -30 -35 -41 -35 -12 0
-19 -7 -19 -20 0 -11 4 -20 9 -20 5 0 28 -16 51 -35 29 -24 52 -35 74 -35 44
0 96 19 96 35 0 17 -23 25 -41 14 -23 -14 -85 -10 -100 7 -10 13 -10 17 2 24
92 53 115 83 89 115 -15 19 -37 18 -72 0z m42 -29 c0 -2 -12 -11 -27 -20 l-28
-17 24 20 c23 21 31 25 31 17z"/>
<path d="M11163 3925 c-33 -14 -73 -67 -73 -97 0 -51 79 -62 140 -18 34 24 39
53 14 88 -24 35 -45 42 -81 27z m54 -58 c8 -13 -37 -47 -64 -47 -28 0 -29 10
-3 43 20 25 52 27 67 4z"/>
<path d="M14275 3915 c-8 -14 -22 -36 -30 -50 -22 -35 -19 -65 5 -65 11 0 23
8 26 18 3 9 15 38 28 64 13 26 21 50 18 53 -12 12 -32 3 -47 -20z"/>
<path d="M7922 3918 c-7 -7 -12 -18 -12 -25 0 -7 -9 -22 -20 -33 -15 -15 -18
-27 -13 -50 9 -47 32 -33 58 35 27 73 21 107 -13 73z"/>
<path d="M13842 3883 c-20 -39 -19 -63 2 -63 12 0 46 65 46 88 0 26 -31 10
-48 -25z"/>
<path d="M8814 3783 c-5 -20 -44 -96 -106 -211 -36 -65 -43 -73 -66 -70 -36 4
-44 -29 -8 -38 23 -5 24 -9 19 -57 -4 -43 -1 -57 16 -78 33 -43 137 -51 129
-11 -2 11 -15 16 -46 17 -26 1 -47 7 -53 16 -9 13 -5 106 4 116 3 2 33 7 68
11 51 6 64 11 67 26 4 17 -2 18 -56 14 -71 -5 -71 -11 4 116 53 89 71 137 59
156 -10 16 -25 12 -31 -7z"/>
<path d="M13568 3678 c-34 -51 -58 -110 -82 -196 -40 -139 -33 -212 19 -212
28 0 35 27 10 36 -22 9 -19 65 8 164 24 84 67 183 86 195 13 8 2 35 -14 35 -7
0 -19 -10 -27 -22z"/>
<path d="M6299 3653 c-5 -16 -33 -89 -62 -163 -49 -130 -67 -224 -42 -225 6 0
22 -9 37 -19 36 -24 67 -16 118 30 33 30 40 43 40 73 0 27 -7 44 -24 60 -28
26 -50 23 -96 -16 -17 -13 -30 -22 -30 -20 0 13 83 233 91 242 5 5 9 22 9 37
0 37 -27 37 -41 1z m51 -298 c0 -14 -14 -35 -35 -54 -41 -36 -48 -37 -66 -15
-11 14 -7 22 34 61 49 46 67 48 67 8z"/>
<path d="M9185 3638 c-25 -36 -38 -97 -25 -113 17 -21 39 -7 38 25 -1 15 9 43
20 62 12 19 19 38 15 41 -13 13 -32 7 -48 -15z"/>
<path d="M12801 3643 c-5 -10 -23 -71 -40 -136 -17 -65 -42 -141 -56 -168 -39
-79 -21 -89 57 -33 48 36 49 36 43 11 -9 -35 10 -67 40 -67 29 0 33 17 8 35
-15 11 -14 16 10 63 44 84 31 105 -34 56 -19 -14 -43 -30 -53 -36 -16 -9 -18
-8 -11 8 7 17 59 205 72 262 7 27 -21 31 -36 5z"/>
<path d="M6626 3638 c-2 -7 -9 -40 -16 -73 -7 -33 -28 -100 -46 -150 -19 -49
-34 -98 -32 -110 4 -27 44 -28 41 0 -1 10 13 58 32 105 36 93 61 200 52 225
-8 18 -26 20 -31 3z"/>
<path d="M10127 3624 c-4 -4 -7 -13 -7 -21 0 -8 -14 -50 -31 -94 -25 -66 -36
-83 -59 -90 -27 -10 -27 -12 -28 -94 0 -60 3 -87 13 -95 22 -18 34 -3 28 33
-3 22 2 51 17 85 24 55 51 72 116 72 l32 0 -14 -47 c-33 -110 -9 -128 62 -48
l53 59 -6 -42 c-7 -53 10 -76 49 -68 15 3 30 2 33 -3 17 -29 162 -14 236 25
24 12 28 18 19 29 -9 11 -20 10 -68 -6 -63 -22 -140 -29 -142 -14 -1 6 4 13
12 16 7 4 25 12 41 20 31 14 37 57 11 83 -30 31 -68 11 -95 -50 -11 -24 -29
-48 -40 -54 -18 -10 -19 -8 -17 47 3 49 0 58 -16 61 -11 2 -33 -11 -57 -34
l-39 -38 16 54 c20 68 58 144 85 171 20 20 20 49 1 49 -19 0 -58 -50 -86 -109
-16 -33 -33 -58 -37 -55 -4 2 -27 0 -51 -5 -23 -6 -44 -9 -45 -7 -2 2 8 29 22
61 26 58 30 105 9 112 -5 2 -13 0 -17 -3z m338 -243 c-3 -6 -11 -11 -17 -11
-6 0 -6 6 2 15 14 17 26 13 15 -4z"/>
<path d="M11495 3601 c-108 -31 -117 -40 -160 -143 -21 -51 -42 -99 -48 -106
-7 -8 -5 -18 6 -30 15 -17 17 -21 17 -42 0 -14 68 -12 149 5 39 8 84 12 101 9
24 -5 30 -3 30 10 0 32 -41 39 -132 22 -122 -23 -132 -22 -125 12 9 45 46 124
56 118 4 -3 35 1 67 10 51 13 87 21 117 23 4 1 7 7 7 15 0 25 -32 26 -110 6
-41 -10 -76 -17 -78 -15 -2 2 6 13 17 24 24 24 120 54 178 56 52 1 64 12 39
31 -25 18 -56 17 -131 -5z"/>
<path d="M2200 3566 c0 -29 21 -48 40 -36 11 7 12 14 2 34 -15 33 -42 34 -42
2z"/>
<path d="M12227 3564 c-4 -4 -7 -21 -7 -38 0 -18 -16 -64 -35 -104 -34 -72
-46 -127 -31 -150 12 -19 31 1 34 35 1 15 17 62 36 103 39 85 50 153 25 158
-8 1 -18 0 -22 -4z"/>
<path d="M4743 3524 c-17 -9 -39 -24 -49 -35 -25 -28 -65 -171 -52 -187 18
-21 35 3 54 76 9 37 26 77 37 89 27 30 73 39 96 19 20 -18 31 -12 31 15 0 38
-62 50 -117 23z"/>
<path d="M12344 3485 c-7 -18 3 -35 21 -35 18 0 26 15 19 34 -8 20 -33 21 -40
1z"/>
<path d="M2975 3476 c-15 -11 -17 -22 -12 -62 3 -27 8 -56 12 -64 10 -27 -18
-54 -48 -46 -15 3 -27 13 -27 21 0 10 -10 15 -30 15 -36 0 -39 -18 -7 -48 74
-69 174 -15 147 79 -17 59 -13 79 16 79 14 0 34 -5 45 -11 25 -13 51 -5 43 14
-13 34 -104 49 -139 23z"/>
<path d="M4915 3459 c-60 -53 -82 -121 -52 -160 18 -24 72 -49 105 -49 36 0
67 22 59 43 -5 13 -11 14 -36 4 -41 -15 -101 12 -101 46 0 23 38 83 62 99 31
19 41 7 15 -20 -53 -55 -25 -71 36 -21 43 35 46 52 15 73 -34 24 -64 19 -103
-15z"/>
<path d="M3832 3460 c-86 -52 -64 -200 30 -200 38 0 138 62 138 85 0 24 -32
17 -74 -15 -44 -33 -77 -38 -97 -14 -11 14 -9 19 16 37 74 53 89 82 59 111
-20 21 -32 20 -72 -4z m33 -40 c-10 -11 -23 -20 -28 -20 -6 0 -2 9 8 20 10 11
23 20 28 20 6 0 2 -9 -8 -20z"/>
<path d="M7614 3465 c-17 -7 -43 -27 -58 -46 -24 -28 -27 -39 -23 -73 8 -59
47 -90 103 -83 62 7 140 75 116 99 -7 7 -24 -1 -53 -26 -47 -40 -87 -47 -115
-19 -16 16 -15 18 13 30 16 6 44 28 62 48 25 28 29 40 21 54 -14 26 -32 31
-66 16z m1 -59 c-16 -13 -32 -22 -35 -19 -6 5 41 42 55 43 6 0 -3 -11 -20 -24z"/>
<path d="M5225 3458 c-11 -6 -22 -12 -24 -14 -2 -2 5 -26 15 -53 19 -54 13
-100 -15 -109 -11 -4 -13 4 -9 36 6 43 -9 61 -31 39 -12 -12 -15 -65 -5 -91
10 -26 41 -38 64 -26 45 24 58 87 34 168 -5 19 -3 22 21 22 20 0 26 4 23 18
-4 21 -45 27 -73 10z"/>
<path d="M7302 3449 c-24 -12 -47 -31 -51 -43 -11 -29 4 -84 30 -112 20 -21
31 -24 74 -22 36 2 50 7 50 18 0 10 -14 17 -47 20 -55 7 -56 7 -68 49 -7 26
-5 33 13 46 12 9 39 18 60 22 38 6 50 26 21 37 -25 10 -36 7 -82 -15z"/>
<path d="M12509 3447 c-43 -29 -47 -56 -15 -95 37 -43 34 -64 -6 -60 -27 2
-33 7 -33 27 0 28 -19 38 -40 21 -39 -32 10 -90 74 -90 44 0 57 8 69 41 11 27
3 49 -31 86 -24 27 -17 37 26 38 37 0 43 20 11 41 -18 13 -25 12 -55 -9z"/>
<path d="M2305 3433 c-57 -58 -84 -143 -45 -143 13 0 20 7 20 20 0 22 41 94
61 105 8 6 10 -13 8 -71 -3 -66 -1 -79 12 -82 20 -4 29 34 29 117 0 84 -33
105 -85 54z"/>
<path d="M3600 3431 c-35 -29 -35 -30 -40 -8 -8 30 -34 33 -71 6 -24 -17 -33
-19 -39 -9 -4 7 -15 10 -25 7 -9 -4 -14 -11 -11 -16 3 -5 -8 -34 -24 -65 -17
-31 -28 -61 -25 -66 7 -12 35 -13 35 -2 0 12 105 122 117 122 7 0 9 -14 6 -40
-7 -53 6 -52 67 6 l49 46 -16 -57 c-14 -49 -14 -58 -2 -66 29 -18 44 -5 47 41
8 121 8 125 -13 127 -11 2 -36 -10 -55 -26z"/>
<path d="M5510 3433 c-32 -27 -60 -77 -60 -108 0 -9 11 -27 25 -40 20 -21 33
-25 77 -24 68 1 103 11 103 29 0 12 -13 14 -62 12 -34 -2 -71 -1 -82 3 -29 9
-27 33 2 28 17 -3 34 5 60 30 40 38 43 45 25 69 -24 30 -54 30 -88 1z m40 -38
c-7 -9 -23 -21 -34 -27 l-21 -11 20 24 c11 13 24 27 30 31 16 11 19 0 5 -17z"/>
<path d="M7003 3443 c-3 -10 -16 -45 -29 -78 -35 -89 -16 -92 60 -10 l63 70
-1 -65 c-1 -50 2 -65 13 -65 20 0 32 50 26 105 -7 59 -17 68 -59 47 -29 -14
-35 -14 -40 -1 -7 19 -25 18 -33 -3z"/>
<path d="M15105 3420 c-26 -41 -75 -73 -102 -68 -15 3 -15 5 1 21 10 9 21 15
26 12 4 -3 13 2 19 9 18 21 -14 37 -50 24 -33 -11 -58 -62 -42 -87 17 -27 74
-25 117 4 21 14 41 24 44 21 18 -18 45 -122 49 -185 l5 -74 -27 21 c-15 12
-43 24 -62 28 -29 5 -39 2 -64 -22 -55 -53 -89 -195 -54 -224 26 -22 102 17
189 98 l47 44 6 86 c5 79 3 95 -26 178 -22 64 -29 101 -25 123 9 46 -19 41
-51 -9z m24 -345 l25 -24 -44 -40 c-51 -46 -106 -78 -117 -68 -10 11 14 95 39
135 17 28 25 33 47 27 14 -3 37 -17 50 -30z"/>
<path d="M15402 3449 c-39 -12 -82 -71 -89 -126 -8 -58 20 -78 106 -78 80 0
164 36 169 73 4 23 -21 31 -34 11 -12 -20 -88 -49 -130 -49 -44 0 -86 23 -69
38 6 5 31 15 57 22 59 16 81 38 72 74 -5 22 -33 49 -46 45 -2 0 -18 -5 -36
-10z m38 -43 c0 -11 -47 -36 -68 -36 -18 0 38 42 66 49 1 1 2 -5 2 -13z"/>
<path d="M6761 3416 c-43 -44 -39 -71 9 -70 19 0 43 4 53 8 13 6 17 3 17 -13
0 -32 36 -46 66 -26 28 18 22 39 -8 31 -19 -4 -20 -1 -15 38 7 52 -4 66 -53
66 -28 0 -44 -8 -69 -34z m68 -10 c-2 -2 -15 -9 -29 -16 -23 -12 -24 -12 -11
3 7 10 20 17 29 17 8 0 13 -2 11 -4z"/>
<path d="M8883 3433 c-4 -11 1 -22 15 -31 14 -9 22 -25 22 -42 0 -44 10 -60
37 -60 37 0 85 55 81 94 -4 38 -35 56 -101 56 -35 0 -49 -4 -54 -17z m114 -39
c3 -9 -3 -25 -16 -37 l-21 -21 0 30 c0 44 24 62 37 28z"/>
<path d="M13705 3436 c-27 -12 -55 -50 -55 -76 0 -24 34 -41 70 -35 32 5 38 3
43 -14 7 -27 53 -49 69 -33 9 9 5 18 -15 36 -23 21 -25 29 -17 51 14 36 13 41
-12 65 -25 23 -41 24 -83 6z m60 -36 c7 -12 -62 -47 -72 -36 -9 9 33 46 53 46
7 0 16 -4 19 -10z"/>
<path d="M5782 3403 c-43 -46 -72 -92 -72 -115 0 -37 21 -26 60 32 22 33 45
60 50 60 6 0 10 -20 10 -45 0 -26 5 -45 11 -45 6 0 31 21 56 48 l44 47 -5 -40
c-3 -22 -9 -49 -12 -61 -7 -25 21 -57 45 -52 22 4 27 38 6 38 -12 0 -15 5 -9
23 21 66 22 87 4 109 l-18 23 -38 -20 c-22 -11 -42 -21 -46 -23 -5 -2 -8 5 -8
15 0 20 -18 43 -33 43 -5 0 -26 -17 -45 -37z"/>
<path d="M3205 3411 c-35 -21 -64 -73 -65 -119 0 -26 5 -34 26 -42 40 -16 63
-12 89 15 21 20 25 34 25 79 0 36 -5 60 -16 70 -19 19 -21 19 -59 -3z m24
-117 c-15 -18 -49 -18 -49 0 0 29 22 75 38 78 13 3 18 -5 20 -30 2 -18 -2 -40
-9 -48z"/>
<path d="M2157 3402 c-23 -25 -50 -137 -42 -172 5 -21 13 -30 27 -30 17 0 19
4 14 33 -7 35 19 137 37 148 11 8 2 39 -11 39 -5 0 -16 -8 -25 -18z"/>
<path d="M11770 3398 c-58 -53 -61 -54 -54 -18 6 28 4 32 -12 28 -20 -3 -62
-101 -63 -145 -1 -36 21 -27 79 32 l55 56 5 -48 c4 -34 10 -49 22 -51 14 -3
17 8 20 70 3 66 -3 98 -21 98 -3 0 -17 -10 -31 -22z"/>
<path d="M13943 3389 c-51 -40 -83 -93 -65 -111 9 -9 16 -7 32 7 11 10 20 24
20 30 0 7 16 25 35 39 39 30 41 28 21 -28 -16 -47 -10 -76 15 -76 13 0 18 7
17 23 -1 13 4 37 11 54 35 84 -12 118 -86 62z"/>
<path d="M14373 3408 c-6 -7 -14 -30 -17 -51 -12 -66 32 -109 88 -87 37 14 86
69 86 97 0 38 -18 35 -45 -7 -30 -48 -63 -65 -85 -44 -12 12 -12 18 -2 34 16
26 15 45 -2 59 -10 8 -16 8 -23 -1z"/>
<path d="M11971 3400 c-33 -5 -53 -16 -78 -43 -36 -40 -41 -67 -17 -91 20 -21
53 -20 83 1 l24 16 -7 -50 c-3 -28 -13 -74 -22 -102 -15 -51 -15 -51 -57 -51
-23 0 -53 -7 -66 -16 -54 -38 -72 -174 -22 -174 24 0 86 54 121 105 27 40 34
44 60 38 23 -4 30 -2 30 11 0 9 -3 16 -7 16 -28 1 -32 17 -17 65 12 42 34 189
38 259 1 23 -7 25 -63 16z m9 -50 c0 -17 -47 -60 -65 -60 -22 0 -19 14 11 44
27 26 54 34 54 16z m-79 -327 c-5 -10 -26 -34 -47 -53 l-37 -35 7 34 c8 44 32
71 63 71 20 0 22 -3 14 -17z"/>
<path d="M14697 3362 c-39 -40 -45 -60 -25 -80 17 -17 46 -15 95 7 35 17 42
17 47 5 7 -18 65 -44 83 -37 22 9 14 28 -17 40 -32 12 -40 39 -18 61 8 8 9 15
2 22 -12 12 -44 3 -44 -12 0 -11 -102 -59 -109 -52 -7 7 40 43 57 44 21 0 9
35 -13 38 -13 2 -34 -12 -58 -36z"/>
<path d="M12271 3355 c-7 -19 -9 -44 -6 -56 9 -28 40 -20 42 11 1 14 5 37 9
53 5 22 3 27 -13 27 -13 0 -23 -12 -32 -35z"/>
<path d="M14112 3345 c-39 -33 -52 -83 -26 -102 18 -13 39 -12 78 3 14 5 16
-7 16 -100 0 -103 -1 -106 -22 -106 -34 0 -85 -35 -103 -69 -8 -17 -15 -50
-15 -74 0 -52 22 -77 66 -77 55 0 95 45 109 123 6 30 11 36 25 32 32 -10 35
17 5 41 l-28 22 5 161 c4 151 3 161 -14 161 -10 0 -18 -6 -18 -12 0 -7 -5 -5
-11 5 -14 24 -32 21 -67 -8z m56 -42 c-2 -9 -15 -20 -30 -24 -32 -8 -35 -3
-11 23 20 23 46 24 41 1z m9 -345 c-7 -52 -36 -92 -70 -96 -25 -3 -27 -1 -27
38 0 33 6 48 29 71 16 16 39 29 52 29 20 0 21 -4 16 -42z"/>
<path d="M15734 3285 c-8 -20 4 -65 17 -65 15 0 28 43 17 63 -11 21 -27 22
-34 2z"/>
<path d="M10500 3162 c0 -10 16 -34 36 -53 54 -51 74 -98 74 -170 0 -100 -44
-167 -160 -243 -66 -43 -83 -67 -61 -81 6 -3 48 21 93 54 122 86 168 161 168
273 0 77 -22 126 -82 191 -47 50 -68 59 -68 29z"/>
<path d="M13339 3143 c-18 -48 -69 -255 -74 -308 -6 -52 0 -71 24 -77 11 -2
15 12 17 57 1 33 17 114 34 180 18 66 33 131 34 144 2 35 -22 38 -35 4z"/>
<path d="M8784 3103 c-3 -16 -13 -48 -22 -73 -10 -28 -16 -89 -18 -161 -3
-100 -1 -119 14 -132 29 -26 43 -8 31 38 -15 54 -5 195 21 273 11 35 18 68 14
73 -11 19 -34 8 -40 -18z"/>
<path d="M9889 3103 c-6 -16 -16 -61 -22 -101 l-12 -74 -43 7 c-43 6 -43 6
-40 -22 3 -26 6 -28 41 -25 l39 3 -8 -33 c-5 -18 -9 -53 -9 -78 0 -36 4 -45
19 -48 26 -5 42 13 27 32 -10 12 -10 27 -1 71 l11 55 50 0 c43 0 50 3 47 18
-2 12 -15 18 -47 20 l-44 3 7 56 c4 31 14 72 23 90 14 30 14 36 2 44 -22 14
-29 11 -40 -18z"/>
<path d="M10082 3114 c-5 -11 -12 -47 -16 -80 -4 -34 -17 -105 -30 -159 -29
-119 -18 -131 49 -59 43 48 44 48 45 22 0 -15 5 -38 11 -51 12 -27 64 -61 79
-52 18 11 10 30 -20 47 -26 15 -30 23 -30 61 0 58 -19 76 -56 52 -14 -9 -27
-15 -29 -13 -2 2 5 53 15 113 16 92 17 112 5 124 -11 11 -15 10 -23 -5z"/>
<path d="M5870 3095 c-54 -28 -129 -105 -161 -166 -32 -61 -34 -174 -3 -216
34 -45 80 -71 162 -88 42 -9 85 -19 95 -22 16 -4 36 22 24 33 -3 3 -36 12 -73
20 -99 20 -129 32 -158 60 -31 31 -42 95 -27 151 27 98 136 206 212 208 46 1
56 9 39 30 -18 21 -58 18 -110 -10z"/>
<path d="M11176 3050 c-18 -38 -36 -78 -39 -89 -3 -13 -19 -23 -46 -31 -54
-14 -58 -44 -6 -38 33 4 35 2 35 -24 0 -71 84 -159 126 -133 24 15 17 29 -16
38 -35 9 -70 58 -70 99 0 29 11 35 80 40 23 2 35 8 35 18 0 11 -12 15 -51 15
-59 0 -59 -3 -9 95 25 50 27 80 5 80 -6 0 -26 -31 -44 -70z"/>
<path d="M5410 3020 c-34 -79 -35 -80 -71 -80 -19 0 -39 -3 -42 -7 -12 -11 15
-33 42 -33 25 0 26 -2 23 -45 -5 -53 10 -95 39 -114 29 -17 97 -16 142 3 31
13 37 20 37 45 0 21 -5 31 -15 31 -8 0 -15 -4 -15 -9 0 -41 -119 -60 -140 -22
-13 26 -13 98 1 106 6 4 45 12 87 19 55 9 77 16 77 26 0 19 -43 24 -103 11
-26 -5 -48 -8 -50 -6 -2 1 10 30 27 64 35 69 38 91 14 91 -13 0 -28 -24 -53
-80z"/>
<path d="M8011 3072 c-5 -9 -12 -42 -16 -73 -7 -53 -9 -57 -37 -63 -17 -3 -46
-6 -65 -6 -27 0 -34 -4 -31 -17 3 -15 14 -18 56 -18 28 1 52 -2 52 -5 0 -3 -4
-21 -10 -40 -13 -44 3 -104 33 -125 28 -20 110 -20 127 0 15 18 4 23 -60 27
-60 4 -75 31 -56 103 13 54 25 61 107 64 23 1 39 7 43 16 8 22 -16 29 -76 21
l-51 -7 7 43 c4 24 9 53 12 64 7 27 -22 40 -35 16z"/>
<path d="M13621 3050 c-99 -78 -157 -188 -131 -249 23 -57 95 -101 165 -101
29 0 36 3 33 17 -2 12 -17 20 -45 25 -69 11 -122 50 -123 91 -1 60 131 217
183 217 30 0 40 10 26 27 -20 23 -56 14 -108 -27z"/>
<path d="M14397 3063 c-13 -12 -7 -22 21 -35 91 -44 -21 -261 -151 -293 -35
-9 -56 -33 -37 -45 34 -21 160 56 207 127 42 63 53 94 53 154 0 40 -5 55 -25
74 -23 24 -54 32 -68 18z"/>
<path d="M13821 2991 c-40 -7 -53 -30 -23 -38 21 -5 21 -5 -1 -35 l-22 -30 23
-18 c12 -10 28 -20 35 -23 9 -3 8 -13 -5 -40 -14 -28 -24 -37 -43 -37 -16 0
-25 6 -25 15 0 18 -21 20 -38 3 -17 -17 -15 -45 4 -52 9 -3 33 -6 54 -6 30 0
44 6 64 31 14 17 29 42 32 56 8 32 -10 73 -33 73 -13 0 -7 9 21 33 62 53 43
84 -43 68z"/>
<path d="M2385 2968 c-34 -19 -76 -62 -91 -95 -14 -29 -14 -35 1 -67 21 -43
63 -59 145 -54 41 2 56 7 58 19 3 14 -9 17 -72 21 -93 4 -114 20 -71 51 17 12
50 40 75 63 38 36 42 44 31 58 -15 18 -47 20 -76 4z m-5 -52 c0 -2 -8 -10 -17
-17 -16 -13 -17 -12 -4 4 13 16 21 21 21 13z"/>
<path d="M3968 2965 c-28 -16 -68 -73 -68 -98 0 -8 -7 -17 -15 -21 -23 -8 -18
-34 8 -42 12 -4 36 -18 54 -31 44 -34 95 -40 143 -18 26 12 40 25 40 37 0 22
-8 23 -49 2 -34 -17 -95 -13 -107 8 -4 6 4 21 18 33 60 51 77 138 28 142 -14
2 -37 -4 -52 -12z m32 -57 c-16 -30 -41 -58 -52 -58 -18 0 -6 33 22 62 34 34
48 32 30 -4z"/>
<path d="M4622 2960 c-12 -5 -30 -23 -40 -39 -9 -17 -26 -32 -37 -33 -19 -3
-20 -11 -22 -141 -2 -124 0 -138 15 -135 19 4 30 36 31 100 1 46 19 78 45 78
7 0 31 17 54 38 34 32 42 46 42 75 0 26 -6 40 -22 51 -25 18 -33 19 -66 6z
m46 -54 c4 -19 -21 -52 -50 -67 -15 -8 -18 -6 -18 14 0 28 37 80 54 74 6 -2
13 -11 14 -21z"/>
<path d="M6339 2955 c-34 -19 -79 -85 -79 -117 0 -36 49 -75 103 -83 63 -10
111 -3 115 16 2 13 -9 17 -65 21 -71 5 -113 23 -113 47 0 21 49 81 66 81 7 0
14 -4 14 -10 0 -5 7 -10 15 -10 18 0 20 41 3 58 -15 15 -27 15 -59 -3z"/>
<path d="M12820 2944 c-6 -14 -10 -28 -10 -32 0 -4 -11 -24 -25 -45 -18 -26
-33 -37 -50 -37 -31 0 -33 22 -5 68 25 41 25 52 0 52 -15 0 -27 -13 -40 -42
-36 -80 -23 -118 40 -118 28 0 43 8 67 33 52 53 79 147 43 147 -6 0 -15 -12
-20 -26z"/>
<path d="M7100 2953 c-34 -12 -60 -47 -60 -79 0 -38 37 -121 57 -128 24 -9 25
20 4 63 -12 22 -21 51 -21 64 0 32 38 51 84 43 27 -5 36 -3 36 7 0 31 -53 47
-100 30z"/>
<path d="M9005 2936 c-49 -49 -43 -115 15 -153 51 -35 170 -27 170 11 0 13
-11 14 -62 10 -50 -5 -67 -2 -83 11 -11 9 -15 18 -10 21 46 21 90 53 93 67 4
18 -51 57 -81 57 -10 0 -29 -11 -42 -24z m63 -24 c8 -6 1 -13 -23 -25 l-34
-16 11 24 c12 26 24 30 46 17z"/>
<path d="M9323 2927 c-21 -19 -46 -37 -55 -40 -26 -9 -25 -73 1 -87 16 -8 21
-5 29 18 11 31 59 92 73 92 5 0 8 -24 7 -52 -3 -47 -1 -53 17 -53 18 0 20 6
19 68 0 68 -9 86 -41 87 -7 0 -30 -15 -50 -33z"/>
<path d="M13020 2953 c-26 -9 -58 -44 -71 -75 -11 -27 -10 -32 7 -45 10 -8 30
-12 45 -9 21 4 27 0 36 -24 14 -37 60 -61 74 -39 6 10 2 19 -16 32 -27 20 -32
51 -14 91 10 20 9 30 -5 51 -16 25 -27 28 -56 18z m5 -70 c-15 -13 -30 -22
-33 -18 -9 9 40 55 51 48 6 -4 -2 -16 -18 -30z"/>
<path d="M2797 2939 c-24 -14 -56 -85 -50 -110 6 -22 33 -32 67 -23 32 8 38
-13 34 -111 l-3 -70 -44 -3 c-85 -6 -127 -64 -98 -133 20 -47 49 -70 94 -76
57 -7 75 12 81 83 2 37 10 64 20 71 12 10 12 15 3 27 -18 21 -21 244 -4 258
22 18 14 45 -21 72 -38 28 -51 31 -79 15z m43 -59 c0 -19 -33 -44 -50 -38 -6
2 -1 18 10 36 21 34 40 35 40 2z m0 -349 c0 -27 -3 -56 -6 -65 -15 -38 -82 -3
-98 51 -10 32 25 63 69 63 l35 0 0 -49z"/>
<path d="M4862 2934 c-26 -18 -72 -94 -72 -118 0 -32 46 -66 89 -66 49 0 71 8
71 26 0 15 -7 17 -61 14 -54 -2 -54 13 -3 50 36 25 45 37 42 57 -2 14 -12 32
-23 39 -18 12 -24 11 -43 -2z m28 -38 c0 -2 -8 -10 -17 -17 -16 -13 -17 -12
-4 4 13 16 21 21 21 13z"/>
<path d="M12183 2940 c-31 -13 -79 -83 -88 -126 -16 -87 40 -127 142 -100 84
21 113 34 119 51 10 26 -2 28 -58 7 -126 -47 -177 -36 -163 34 4 21 10 33 12
27 7 -21 36 -14 70 15 43 37 50 66 21 86 -25 18 -25 18 -55 6z m17 -55 c-7 -9
-23 -21 -34 -27 -20 -11 -20 -10 -6 8 19 26 43 45 48 39 3 -2 -1 -12 -8 -20z"/>
<path d="M4223 2929 c-18 -18 -17 -24 17 -63 l30 -34 -25 -23 c-38 -36 -48
-56 -29 -63 9 -3 31 10 58 34 l43 40 49 -25 c27 -14 55 -25 62 -25 26 0 10 30
-28 52 -41 24 -47 32 -30 43 16 10 11 35 -7 35 -9 0 -27 -10 -39 -21 l-23 -21
-23 24 c-13 13 -27 32 -33 42 -8 14 -12 15 -22 5z"/>
<path d="M6862 2930 c-77 -18 -96 -82 -41 -138 35 -36 47 -39 55 -17 4 9 -4
23 -20 36 -28 22 -35 63 -12 72 7 3 34 9 60 12 46 7 61 27 30 39 -18 7 -28 7
-72 -4z"/>
<path d="M11393 2914 c-21 -32 -43 -80 -43 -94 0 -6 9 -19 20 -30 42 -42 161
-13 176 44 13 54 -20 91 -92 102 -37 6 -43 3 -61 -22z m101 -30 c47 -18 -8
-78 -66 -72 -27 2 -32 7 -30 23 7 39 57 64 96 49z"/>
<path d="M12468 2922 c-22 -9 -88 -70 -88 -82 0 -17 32 -40 55 -40 13 0 36 5
51 10 l26 10 -6 -42 c-13 -88 -56 -243 -84 -302 -27 -58 -31 -86 -12 -86 5 0
32 26 62 57 98 106 120 125 140 120 26 -7 36 22 13 39 -22 16 -44 6 -99 -45
-43 -40 -42 -47 -11 66 7 29 22 100 32 159 l18 105 -25 19 c-26 20 -44 23 -72
12z m47 -42 c6 -10 -52 -40 -77 -40 -16 0 42 49 59 50 6 0 15 -5 18 -10z"/>
<path d="M6573 2908 c-31 -39 -18 -115 28 -160 31 -32 56 -31 93 1 45 38 72
143 40 155 -22 8 -22 8 -34 -15 -8 -14 -8 -24 -1 -33 17 -20 -21 -81 -50 -81
-34 0 -66 64 -47 94 10 17 10 23 -3 36 -13 13 -18 14 -26 3z"/>
<path d="M7355 2908 c-11 -6 -43 -34 -71 -63 -38 -38 -49 -56 -41 -64 6 -6 15
-11 21 -11 5 0 20 -9 32 -21 40 -38 175 -35 182 5 3 16 -3 17 -65 11 -51 -5
-73 -3 -87 8 -18 13 -17 14 10 20 60 12 104 83 72 115 -15 15 -27 15 -53 0z
m20 -47 c-3 -6 -16 -16 -28 -22 -21 -11 -21 -10 2 15 23 25 40 29 26 7z"/>
<path d="M9549 2895 c-28 -15 -59 -56 -59 -78 0 -7 11 -24 25 -37 24 -22 48
-24 98 -4 16 6 18 0 15 -81 l-3 -87 -63 -25 c-69 -28 -89 -53 -78 -98 9 -34
74 -105 96 -105 39 0 90 100 90 175 0 25 30 16 41 -12 9 -24 11 -25 26 -10 24
24 3 65 -37 73 l-30 7 0 132 c0 135 -4 151 -40 153 -8 0 -24 3 -35 6 -11 3
-32 -1 -46 -9z m62 -41 c11 -14 10 -19 -10 -35 -48 -39 -93 -12 -47 28 32 27
39 28 57 7z m14 -331 c-9 -51 -32 -103 -44 -103 -13 0 -61 70 -61 88 0 13 73
51 99 52 10 0 12 -9 6 -37z"/>
<path d="M5056 2870 c-38 -46 -36 -94 7 -120 51 -32 157 -22 157 15 0 12 -9
14 -53 9 -60 -7 -97 6 -97 34 0 31 19 47 52 47 26 0 33 4 33 20 0 16 -8 21
-36 23 -30 3 -41 -2 -63 -28z"/>
<path d="M7617 2854 c-34 -27 -48 -46 -53 -71 -8 -43 11 -69 30 -39 6 10 27
39 46 64 l34 47 11 -38 c12 -42 38 -77 59 -77 23 0 27 29 6 40 -11 6 -22 26
-26 48 -13 73 -38 79 -107 26z"/>
<path d="M2586 2826 c-9 -14 -16 -30 -16 -35 0 -18 23 -24 34 -9 6 8 19 17 29
21 24 9 18 41 -9 45 -14 2 -27 -6 -38 -22z"/>
<path d="M3086 2793 c-12 -13 -5 -54 10 -60 21 -8 34 8 28 34 -6 22 -27 36
-38 26z"/>
<path d="M8320 2760 c-21 -38 15 -56 38 -20 7 12 10 25 7 30 -10 17 -34 11
-45 -10z"/>
<path d="M10805 2757 c-11 -7 -21 -12 -21 -12 -1 0 -5 -10 -8 -23 -11 -33 16
-38 48 -9 44 41 30 73 -19 44z"/>
<path d="M11740 2745 c-19 -23 -5 -45 30 -45 37 0 39 24 4 47 -18 12 -23 11
-34 -2z"/>
<path d="M2485 2263 c-74 -17 -314 -77 -380 -96 -53 -15 -80 -28 -80 -37 0
-22 34 -18 161 17 l111 31 -18 -48 c-26 -68 -79 -292 -79 -332 0 -18 4 -39 9
-47 15 -23 31 -2 31 40 0 42 61 299 82 344 10 21 9 28 -2 35 -9 6 -2 11 26 19
110 29 182 42 222 39 29 -2 47 1 49 9 9 25 -71 40 -132 26z"/>
<path d="M3891 2107 c-12 -40 -27 -102 -33 -136 -13 -67 -27 -81 -84 -81 -19
0 -25 -5 -22 -17 3 -13 13 -18 41 -18 25 0 36 -4 32 -12 -11 -31 -17 -113 -8
-113 16 0 30 22 38 60 12 65 15 69 48 72 24 2 33 8 35 26 4 24 -29 45 -36 24
-2 -7 -7 -12 -11 -12 -10 0 24 161 45 217 9 23 13 46 9 52 -16 27 -33 6 -54
-62z"/>
<path d="M4811 2093 c-11 -38 -28 -97 -38 -133 l-18 -65 -42 -3 c-43 -3 -70
-23 -58 -42 4 -6 20 -8 42 -4 36 7 36 7 27 -22 -14 -50 -11 -119 6 -119 8 0
16 9 17 20 2 11 8 43 13 71 l11 50 49 10 c44 9 50 9 46 -5 -21 -67 -24 -107
-12 -119 16 -17 39 -7 76 33 l24 26 11 -43 c8 -33 15 -44 33 -46 23 -3 32 21
12 33 -5 3 -10 29 -10 56 0 63 -17 71 -67 30 -20 -17 -38 -29 -40 -27 -2 2 21
62 52 133 30 71 55 135 55 141 0 6 7 18 16 27 19 19 11 48 -13 43 -11 -2 -33
-45 -65 -123 l-49 -120 -49 0 c-26 0 -46 4 -43 8 3 5 18 56 34 115 16 59 32
115 35 125 5 12 1 17 -15 17 -17 0 -24 -12 -40 -67z"/>
<path d="M14538 2065 l-43 -75 -45 0 c-51 0 -70 -13 -70 -47 0 -26 25 -32 34
-8 3 8 17 15 31 15 25 0 24 -2 -24 -62 -63 -81 -67 -96 -38 -139 20 -31 28
-34 76 -37 36 -2 61 2 77 13 38 24 20 35 -49 29 -56 -5 -63 -4 -75 16 -12 20
-8 28 44 97 32 41 63 77 70 80 7 2 24 -3 38 -12 24 -16 26 -16 32 -1 7 18 -12
46 -32 46 -25 0 -22 16 12 70 37 61 41 75 20 83 -10 4 -28 -17 -58 -68z"/>
<path d="M10497 2112 c-9 -10 -33 -57 -53 -105 -27 -64 -42 -87 -55 -87 -32 0
-70 -23 -67 -39 4 -17 20 -18 52 -6 16 7 17 5 11 -26 -9 -39 -20 -67 -37 -91
-10 -14 -10 -21 5 -35 24 -24 35 -9 61 84 l22 78 57 3 c81 4 77 42 -4 42 -27
0 -30 3 -24 23 13 41 56 131 67 138 12 8 4 39 -10 39 -5 0 -16 -8 -25 -18z"/>
<path d="M10866 1958 c-90 -184 -113 -253 -81 -246 11 2 25 22 36 53 9 28 37
88 61 136 23 47 52 104 62 127 11 23 23 42 28 42 14 0 5 53 -9 57 -7 3 -46
-65 -97 -169z"/>
<path d="M15307 2124 c-4 -4 -7 -14 -7 -23 0 -38 -65 -173 -111 -230 -52 -64
-59 -92 -33 -129 38 -55 101 -47 159 20 57 68 40 138 -33 138 -19 0 -22 3 -14
13 19 22 73 170 70 190 -3 21 -20 32 -31 21z m0 -280 c13 -36 -67 -111 -103
-97 -22 8 -17 26 22 71 37 43 70 54 81 26z"/>
<path d="M8842 2085 c-59 -11 -87 -25 -87 -43 0 -4 -19 -41 -43 -83 -51 -93
-72 -150 -72 -198 0 -54 44 -81 133 -81 78 0 125 16 155 55 45 57 37 137 -18
190 -17 16 -30 32 -30 37 0 5 25 24 55 43 58 38 70 66 36 85 -24 12 -47 11
-129 -5z m28 -77 c-66 -46 -72 -53 -55 -62 50 -29 96 -82 102 -118 5 -33 2
-41 -30 -73 -33 -33 -38 -35 -105 -35 -88 0 -107 15 -73 61 23 31 20 54 -6 45
-20 -8 -14 6 42 110 52 95 56 99 115 112 83 18 84 13 10 -40z"/>
<path d="M7503 2078 c-5 -7 -21 -50 -36 -96 -15 -46 -40 -102 -55 -125 -38
-55 -43 -73 -28 -86 9 -8 26 -4 62 14 27 14 50 25 50 25 1 0 -1 -11 -3 -24 -6
-29 12 -66 33 -66 19 0 30 30 15 40 -10 5 -10 17 -1 49 8 32 8 46 -1 57 -16
19 -23 18 -57 -11 -39 -33 -48 -32 -24 3 19 28 42 84 66 164 11 38 11 49 1 58
-9 7 -15 7 -22 -2z"/>
<path d="M16205 2078 c-2 -7 -17 -49 -33 -93 l-28 -80 -53 -3 c-43 -3 -52 -6
-49 -20 2 -12 15 -18 41 -20 20 -2 37 -4 37 -6 0 -18 -37 -104 -49 -113 -14
-10 -14 -13 -1 -27 32 -32 42 -23 69 64 l27 85 69 5 c56 4 70 8 73 23 3 15 -5
17 -57 17 -34 0 -61 2 -61 4 0 3 12 37 26 76 25 69 26 100 4 100 -6 0 -13 -6
-15 -12z"/>
<path d="M7143 2057 c-40 -22 -173 -158 -193 -198 -27 -52 -27 -132 0 -159 27
-27 61 -34 139 -27 66 6 198 41 216 58 5 6 5 13 -3 21 -9 9 -28 7 -84 -11 -86
-28 -195 -39 -226 -22 -33 18 -30 85 7 142 52 81 159 169 204 169 28 0 29 -1
22 -40 -5 -32 -3 -41 10 -46 24 -10 52 24 59 72 l6 41 -46 7 c-65 8 -86 7
-111 -7z"/>
<path d="M9483 2060 c-13 -5 -23 -16 -23 -24 0 -17 27 -29 35 -16 9 15 78 12
102 -5 46 -32 60 -141 23 -180 -19 -20 -98 -65 -115 -65 -3 0 4 18 15 41 23
45 51 174 43 195 -14 37 -37 2 -47 -70 -12 -91 -73 -199 -88 -154 -6 17 -40 1
-36 -18 4 -22 80 -63 85 -46 3 6 13 12 24 12 34 0 136 58 159 90 44 62 15 201
-49 234 -33 17 -93 20 -128 6z"/>
<path d="M3650 2031 c0 -28 21 -37 36 -16 16 22 10 35 -17 35 -12 0 -19 -7
-19 -19z"/>
<path d="M9213 2018 c-10 -12 -49 -122 -76 -211 -9 -31 -9 -40 3 -47 12 -7 11
-10 -4 -16 -10 -4 -27 -2 -37 4 -34 21 -73 -14 -43 -39 38 -31 216 30 269 93
33 38 50 104 36 134 -12 27 -99 93 -122 94 -9 0 -21 -6 -26 -12z m74 -60 c41
-29 48 -48 30 -91 -16 -38 -63 -78 -119 -101 l-36 -15 8 32 c5 18 20 64 35
102 14 39 28 76 30 83 6 17 14 15 52 -10z"/>
<path d="M6046 1991 c-3 -4 1 -17 9 -27 10 -15 16 -16 26 -7 6 6 9 19 6 27 -7
17 -32 22 -41 7z"/>
<path d="M7943 1984 c-8 -21 18 -46 36 -35 10 7 11 13 2 30 -14 25 -29 27 -38
5z"/>
<path d="M12014 1963 c3 -21 9 -59 12 -86 7 -51 17 -65 37 -49 7 5 52 23 101
40 82 29 105 43 106 65 0 4 -6 9 -12 11 -7 2 -50 16 -95 30 -45 14 -99 26
-119 26 l-36 0 6 -37z"/>
<path d="M10175 1977 c-82 -33 -93 -56 -50 -113 30 -39 31 -50 6 -64 -28 -14
-31 -13 -31 15 0 30 -25 34 -40 6 -32 -61 60 -90 113 -36 24 24 21 59 -9 95
-30 35 -25 45 23 59 24 7 33 6 37 -5 8 -21 36 -17 36 5 0 22 -25 51 -43 50 -7
0 -25 -6 -42 -12z"/>
<path d="M3084 1938 c-49 -37 -104 -91 -104 -104 0 -25 49 -23 53 2 2 10 61
64 71 64 12 0 6 -40 -15 -95 -11 -31 -18 -62 -15 -70 8 -21 32 -18 56 7 11 12
21 20 22 17 2 -2 8 -13 14 -24 25 -45 83 -25 114 40 11 23 20 53 20 68 0 14 4
29 10 32 14 8 -18 67 -33 62 -7 -2 -14 -31 -17 -68 -8 -102 -58 -158 -70 -78
-4 26 -10 34 -25 33 -19 0 -20 5 -17 68 4 62 3 68 -16 68 -10 0 -32 -10 -48
-22z"/>
<path d="M5177 1953 c-13 -12 -7 -41 8 -47 18 -6 30 16 21 39 -6 16 -18 19
-29 8z"/>
<path d="M11052 1935 c-74 -41 -101 -103 -67 -152 32 -46 195 -61 195 -18 0 8
-23 14 -70 17 -38 3 -77 11 -85 18 -21 17 -19 40 4 40 33 0 89 29 96 49 8 26
-11 61 -33 60 -9 -1 -27 -7 -40 -14z m33 -35 c-3 -5 -12 -10 -18 -10 -7 0 -6
4 3 10 19 12 23 12 15 0z"/>
<path d="M16873 1887 c-59 -60 -69 -99 -33 -132 36 -33 190 -32 190 0 0 17 -4
17 -72 15 -26 -1 -57 1 -68 5 -21 7 -28 25 -9 25 38 0 149 75 149 100 0 20
-34 40 -67 40 -30 0 -45 -9 -90 -53z m87 -7 c-14 -11 -38 -24 -55 -30 l-30
-10 33 30 c18 17 42 30 55 30 22 0 22 -1 -3 -20z"/>
<path d="M2465 1919 c-26 -13 -73 -86 -81 -127 -9 -42 9 -62 55 -62 65 0 114
78 82 129 -7 10 -5 18 6 26 14 10 13 13 -2 28 -18 19 -31 20 -60 6z m25 -100
c0 -23 -27 -49 -51 -49 -24 0 -24 4 3 58 20 41 22 43 35 27 7 -11 13 -27 13
-36z"/>
<path d="M4057 1891 c-61 -67 -68 -149 -15 -167 32 -11 137 -8 171 5 15 6 27
18 27 26 0 14 -8 15 -57 8 -69 -9 -123 -7 -134 4 -16 16 2 53 26 53 48 0 100
65 75 95 -22 26 -56 17 -93 -24z"/>
<path d="M13316 1915 c-34 -12 -55 -29 -56 -45 0 -3 9 -23 21 -44 19 -36 19
-40 4 -55 -8 -9 -30 -16 -48 -16 -38 0 -51 -29 -17 -40 30 -10 62 0 93 29 32
30 34 59 6 94 l-21 27 29 12 c15 7 40 12 56 13 29 0 34 9 15 28 -15 15 -33 15
-82 -3z"/>
<path d="M13506 1883 c-60 -53 -69 -74 -49 -116 25 -50 85 -55 185 -13 42 18
50 27 39 45 -7 10 -18 9 -57 -7 -70 -29 -104 -35 -120 -21 -26 22 -14 35 51
58 58 21 65 26 65 50 0 31 -16 51 -42 51 -10 0 -42 -21 -72 -47z"/>
<path d="M15507 1905 c-68 -47 -86 -117 -41 -162 24 -23 31 -25 86 -20 74 7
87 17 64 51 -20 32 -51 36 -43 6 4 -17 0 -20 -33 -20 -22 0 -41 4 -44 8 -2 4
19 20 48 35 77 41 95 91 40 116 -33 15 -34 15 -77 -14z m63 -35 c0 -5 -18 -19
-40 -30 -48 -24 -52 -12 -9 24 29 25 49 27 49 6z"/>
<path d="M11848 1915 c-2 -3 -40 -7 -84 -9 -80 -5 -95 -14 -75 -44 7 -12 19
-12 67 -2 33 7 102 15 154 19 79 5 95 9 98 24 3 15 -6 17 -76 17 -43 0 -81 -2
-84 -5z"/>
<path d="M13005 1907 c-11 -7 -49 -44 -85 -82 -126 -136 -125 -134 -112 -147
9 -9 21 -3 52 27 28 28 40 34 40 22 0 -22 36 -40 65 -33 13 3 37 17 54 31 l30
26 3 -33 c2 -25 8 -33 23 -33 15 0 20 7 21 30 1 17 7 56 15 87 11 47 11 60 0
70 -14 14 -31 -2 -63 -60 -16 -31 -94 -90 -104 -80 -9 10 25 78 62 124 38 46
37 73 -1 51z"/>
<path d="M16522 1825 c-72 -72 -92 -99 -84 -107 9 -9 20 -6 44 12 18 13 37 30
41 37 6 9 19 12 41 7 23 -4 45 0 72 14 l39 20 0 -47 c0 -41 3 -46 23 -49 13
-2 31 -1 40 3 15 6 14 9 -5 25 -28 22 -29 44 -5 91 31 60 11 76 -42 35 -38
-28 -96 -59 -96 -50 0 4 16 24 35 46 36 39 38 58 8 58 -9 0 -59 -43 -111 -95z"/>
<path d="M5393 1880 c-43 -26 -47 -64 -11 -109 18 -24 18 -26 2 -38 -28 -20
-65 -16 -71 7 -6 24 -22 22 -37 -4 -9 -14 -6 -21 13 -37 28 -23 71 -25 111 -4
43 22 48 57 16 100 l-26 34 25 17 c21 14 28 14 41 3 13 -10 17 -10 24 1 13 20
-7 50 -33 50 -12 0 -37 -9 -54 -20z"/>
<path d="M7673 1878 c-30 -33 -44 -64 -37 -82 7 -18 47 -31 63 -21 6 3 11 -2
11 -14 0 -33 11 -51 32 -51 16 0 18 5 12 34 -3 20 0 49 7 70 26 72 -38 119
-88 64z m57 -27 c0 -12 -42 -42 -49 -36 -5 6 29 45 41 45 4 0 8 -4 8 -9z"/>
<path d="M16315 1867 c-48 -48 -62 -157 -20 -157 11 0 15 10 15 35 0 75 57
145 82 101 14 -25 38 -20 38 9 0 26 -25 45 -60 45 -12 0 -37 -15 -55 -33z"/>
<path d="M3441 1873 c-38 -19 -78 -74 -87 -121 -6 -28 -4 -32 14 -32 16 0 24
9 32 38 11 44 43 76 83 86 31 7 35 21 9 35 -13 7 -28 5 -51 -6z"/>
<path d="M10624 1825 c-22 -35 -42 -65 -45 -65 -4 0 -12 13 -19 29 -13 33 -38
48 -46 27 -6 -15 19 -71 36 -81 6 -4 -21 -40 -65 -86 -62 -65 -76 -85 -73
-107 4 -32 31 -37 37 -7 2 11 35 53 74 95 77 83 167 212 167 241 0 38 -29 18
-66 -46z"/>
<path d="M14657 1851 c-21 -23 -37 -52 -37 -64 0 -53 68 -73 137 -41 89 43 76
122 -23 139 -38 6 -43 4 -77 -34z m116 -25 c8 -21 -27 -47 -72 -53 -49 -7 -55
10 -14 44 29 26 78 31 86 9z"/>
<path d="M5987 1865 c-20 -19 -50 -111 -42 -125 13 -22 34 -9 41 26 3 19 17
48 31 64 23 28 23 29 4 39 -15 8 -23 7 -34 -4z"/>
<path d="M6103 1827 c-50 -51 -67 -87 -41 -87 6 0 33 23 58 50 66 71 105 67
59 -6 -23 -38 -18 -77 9 -72 10 2 17 10 18 18 0 8 8 29 17 47 32 61 18 103
-37 103 -22 0 -42 -13 -83 -53z"/>
<path d="M3571 1838 c-20 -55 -21 -65 -7 -77 12 -10 17 -8 25 7 16 30 18 84 4
89 -7 3 -17 -6 -22 -19z"/>
<path d="M7870 1804 c-28 -64 -27 -96 3 -92 15 2 21 9 20 23 -1 10 5 31 13 47
8 15 14 36 14 48 0 36 -29 21 -50 -26z"/>
<path d="M5091 1786 c-24 -58 -25 -91 -2 -91 15 0 43 67 45 109 2 49 -19 40
-43 -18z"/>
<path d="M14922 1779 c-32 -12 -22 -34 14 -34 19 0 30 6 32 16 4 21 -17 29
-46 18z"/>
<path d="M15764 1749 c-10 -17 12 -32 35 -24 29 9 27 35 -3 35 -14 0 -28 -5
-32 -11z"/>
<path d="M17343 1743 c-7 -3 -13 -15 -13 -28 0 -14 -18 -40 -46 -69 -30 -29
-44 -51 -41 -61 10 -24 21 -18 76 39 38 41 51 62 51 85 0 32 -7 41 -27 34z"/>
<path d="M4355 1628 c-2 -7 -9 -51 -15 -98 -8 -71 -8 -87 5 -99 8 -8 17 -13
19 -10 3 3 10 42 15 87 5 45 14 89 21 97 6 8 9 19 5 25 -9 14 -45 13 -50 -2z"/>
<path d="M5554 1562 c-6 -4 -21 -37 -33 -74 -21 -63 -24 -67 -64 -81 -26 -8
-43 -21 -46 -32 -3 -15 2 -17 33 -12 l36 6 -16 -37 c-28 -64 -44 -125 -39
-143 8 -24 56 -39 97 -29 77 18 111 41 89 63 -7 7 -21 6 -48 -6 -104 -44 -114
-34 -72 74 18 46 37 87 43 92 6 4 33 5 59 1 44 -5 49 -4 45 12 -2 12 -17 21
-43 27 -22 6 -41 11 -43 12 -2 2 4 28 14 59 17 55 12 84 -12 68z"/>
<path d="M3515 1518 c-2 -7 -11 -42 -20 -78 -9 -36 -25 -93 -36 -127 -26 -79
-23 -148 6 -148 17 0 19 6 17 34 -3 30 19 123 63 266 13 45 10 65 -11 65 -8 0
-17 -6 -19 -12z"/>
<path d="M7409 1483 c-1 -5 0 -23 1 -40 1 -18 -9 -84 -21 -147 -19 -95 -20
-117 -10 -130 21 -26 44 -20 37 8 -3 14 3 70 14 126 21 106 24 147 14 174 -6
16 -33 23 -35 9z"/>
<path d="M2442 1395 c-37 -31 -82 -118 -82 -158 0 -45 48 -87 100 -87 49 0
108 23 116 45 10 26 -2 29 -46 11 -82 -33 -139 -9 -125 53 4 17 11 28 16 25
30 -18 129 50 129 88 0 49 -62 62 -108 23z m66 -27 c-5 -14 -66 -53 -73 -46
-2 2 7 16 21 31 25 28 59 37 52 15z"/>
<path d="M2970 1334 c-25 -64 -5 -114 44 -114 39 0 80 29 102 73 15 29 15 31
-2 44 -17 13 -20 11 -32 -19 -15 -36 -39 -57 -64 -58 -22 0 -25 42 -4 60 19
15 9 40 -15 40 -12 0 -23 -10 -29 -26z"/>
<path d="M6355 1348 c-31 -17 -74 -60 -96 -95 -22 -34 -19 -61 7 -88 20 -19
133 -21 159 -2 32 24 9 35 -63 29 -76 -5 -91 3 -71 39 10 20 12 20 21 6 12
-22 36 -21 75 2 37 23 49 52 32 83 -20 38 -33 43 -64 26z m32 -54 c4 -12 -46
-38 -55 -29 -3 2 3 14 13 25 19 21 36 22 42 4z"/>
<path d="M6786 1337 c-27 -20 -34 -102 -11 -127 51 -56 163 16 153 99 -4 37
-32 33 -36 -4 -7 -63 -83 -101 -90 -46 -2 13 2 35 9 48 16 30 1 49 -25 30z"/>
<path d="M2696 1307 c-37 -49 -49 -93 -30 -112 18 -18 29 -19 54 -5 15 8 18 7
15 -2 -52 -154 -79 -272 -76 -335 2 -43 37 -27 69 30 41 73 84 108 122 100 24
-4 30 -2 30 11 0 9 -11 22 -25 28 -36 16 -86 -9 -126 -64 -17 -24 -29 -34 -26
-23 80 275 101 374 86 390 -3 2 -19 8 -36 11 -26 5 -34 1 -57 -29z m54 -26 c0
-15 -38 -56 -45 -49 -9 9 21 58 35 58 6 0 10 -4 10 -9z"/>
<path d="M3194 1328 c-29 -14 -48 -51 -39 -78 6 -20 12 -22 51 -17 39 4 44 2
39 -13 -8 -25 4 -50 26 -50 14 0 18 7 17 28 -1 15 2 47 6 72 7 42 6 46 -20 58
-33 14 -51 14 -80 0z m36 -43 c-7 -8 -20 -15 -29 -15 -13 1 -13 3 3 15 26 19
42 19 26 0z"/>
<path d="M4343 1329 c-38 -11 -83 -62 -83 -94 0 -13 -11 -41 -25 -61 -14 -20
-25 -44 -25 -54 0 -31 37 -53 96 -58 51 -4 56 -3 52 14 -2 10 -10 20 -18 21
-65 8 -90 16 -90 27 0 20 44 56 84 67 26 7 36 15 36 31 0 17 -5 20 -35 16 -41
-5 -43 1 -12 29 33 30 50 33 74 11 21 -19 43 -18 43 3 0 12 -46 59 -57 58 -4
0 -22 -5 -40 -10z"/>
<path d="M5769 1321 c-14 -11 -31 -38 -38 -61 -17 -56 3 -90 53 -90 67 0 121
92 84 143 -21 27 -69 32 -99 8z m65 -67 c-11 -32 -35 -49 -58 -41 -14 6 -15
10 -3 39 9 21 20 32 30 30 10 -2 17 3 17 10 0 9 3 9 12 0 8 -8 9 -20 2 -38z"/>
<path d="M6540 1278 c-35 -61 -36 -71 -13 -93 11 -11 25 -15 45 -11 27 5 28 4
22 -22 -4 -15 -24 -76 -45 -137 -39 -110 -44 -139 -33 -169 11 -28 43 -17 93
29 33 31 57 45 75 45 41 0 31 34 -11 38 -26 3 -41 -5 -78 -39 -25 -23 -45 -37
-45 -31 0 6 10 37 21 68 12 31 34 102 50 156 16 55 38 112 49 128 11 15 20 37
20 48 0 26 -31 38 -45 18 -10 -12 -13 -12 -23 5 -22 34 -49 23 -82 -33z m78
-23 c-8 -19 -45 -45 -64 -45 -2 0 5 18 16 39 15 30 24 38 39 34 17 -4 18 -9 9
-28z"/>
<path d="M7020 1301 c-52 -52 -33 -96 40 -89 38 3 41 2 50 -30 11 -42 37 -72
62 -72 24 0 23 22 -1 44 -19 17 -44 97 -45 146 -1 22 -6 25 -39 28 -30 3 -43
-2 -67 -27z m83 -18 c10 -10 -25 -32 -52 -33 -23 0 -24 1 -6 20 18 20 46 26
58 13z"/>
<path d="M6015 1200 c-3 -6 -3 -19 0 -31 8 -24 38 -22 43 3 4 20 -33 44 -43
28z"/>
<path d="M4266 985 c-3 -9 -6 -34 -6 -56 0 -32 3 -39 20 -39 17 0 20 7 20 45
0 25 0 48 1 53 1 15 -29 12 -35 -3z"/>
<path d="M2415 621 c-16 -3 -29 -10 -27 -14 1 -4 2 -12 2 -18 0 -7 19 -8 58
-4 54 5 56 5 27 -8 -41 -19 -95 -66 -95 -82 0 -14 10 -19 68 -30 34 -7 69 -46
57 -65 -9 -15 -75 -46 -113 -53 -37 -7 -53 12 -32 38 10 12 9 16 -4 21 -39 15
-64 -58 -30 -87 33 -27 154 1 206 48 36 33 9 105 -49 130 -41 17 -38 21 37 54
54 25 64 38 43 61 -17 19 -84 23 -148 9z"/>
</g>
</svg>
