<?xml version="1.0" standalone="no"?>
<!DOCTYPE svg PUBLIC "-//W3C//DTD SVG 20010904//EN"
 "http://www.w3.org/TR/2001/REC-SVG-20010904/DTD/svg10.dtd">
<svg version="1.0" xmlns="http://www.w3.org/2000/svg"
 width="1872.000000pt" height="512.000000pt" viewBox="0 0 1872.000000 512.000000"
 preserveAspectRatio="xMidYMid meet">

<g transform="translate(0.000000,512.000000) scale(0.100000,-0.100000)"
fill="#000000" stroke="none">
<path d="M15395 4428 c-4 -18 -27 -66 -51 -106 -24 -40 -44 -76 -44 -81 0 -5
-19 -11 -42 -15 -72 -12 -97 -51 -28 -44 22 2 40 1 40 -3 0 -4 -9 -26 -20 -50
-25 -57 -26 -95 -1 -109 45 -23 173 1 179 34 4 17 0 18 -34 12 -22 -4 -59 -10
-83 -13 l-44 -6 7 28 c4 16 17 49 29 74 l22 46 68 -2 c54 -2 67 1 67 13 0 17
-39 34 -81 34 -16 0 -29 3 -29 6 0 3 15 32 34 64 36 61 59 127 50 142 -12 19
-33 6 -39 -24z"/>
<path d="M8734 4438 c-4 -7 -7 -27 -6 -45 3 -32 -39 -168 -76 -252 -17 -37
-19 -38 -30 -20 -17 27 -53 24 -99 -10 -53 -38 -71 -82 -49 -116 42 -64 152
-7 203 105 58 128 109 303 97 335 -7 18 -30 20 -40 3z m-117 -351 c20 -1 -5
-36 -40 -57 -36 -23 -62 -25 -73 -8 -10 16 65 81 86 72 8 -3 20 -7 27 -7z"/>
<path d="M13736 4395 c-9 -9 -16 -21 -16 -26 0 -5 -14 -43 -31 -84 -29 -68
-34 -75 -60 -75 -29 0 -56 -31 -44 -50 8 -13 35 -13 35 0 0 6 4 10 10 10 5 0
3 -16 -4 -37 -7 -21 -16 -62 -20 -90 -5 -43 -4 -53 8 -53 20 0 25 10 37 77 6
32 17 70 25 85 13 25 20 28 67 28 28 0 58 4 66 9 25 16 1 31 -50 31 -27 0 -49
3 -49 7 0 4 14 42 32 85 23 55 29 81 21 89 -7 7 -15 5 -27 -6z"/>
<path d="M10346 4388 c-3 -7 -14 -47 -26 -88 -12 -41 -31 -98 -42 -127 -17
-47 -22 -52 -38 -43 -44 23 -130 -44 -130 -101 0 -27 39 -69 63 -69 20 0 93
87 119 141 30 64 88 246 88 278 0 23 -28 30 -34 9z m-147 -354 c-12 -13 -28
-24 -36 -24 -24 0 -13 38 20 66 l32 27 3 -22 c2 -14 -6 -33 -19 -47z"/>
<path d="M2617 4363 c-4 -3 -4 -22 -1 -42 4 -27 -2 -55 -26 -111 -18 -41 -38
-78 -44 -82 -6 -4 -30 -8 -54 -8 -36 0 -43 -3 -40 -17 2 -13 15 -19 46 -21 36
-3 43 -6 37 -20 -35 -85 -43 -121 -29 -126 17 -7 34 20 64 101 22 62 22 62 69
68 63 9 73 13 68 28 -2 7 -22 12 -50 11 -26 0 -47 2 -47 5 0 3 11 33 25 66 13
33 25 76 25 96 0 43 -24 72 -43 52z"/>
<path d="M1886 4341 c-3 -9 -12 -46 -20 -82 -8 -36 -29 -103 -45 -149 -37
-102 -39 -120 -8 -120 12 0 31 -7 41 -15 32 -24 87 -18 137 13 90 59 109 110
66 186 -14 25 -22 46 -17 46 5 0 22 11 38 25 39 32 49 71 26 97 -15 16 -30 18
-116 17 -80 -2 -99 -5 -102 -18z m194 -29 c0 -23 -75 -72 -109 -72 -14 0 -21
-6 -21 -20 0 -13 7 -20 19 -20 26 0 71 -59 71 -92 0 -47 -95 -116 -146 -106
-24 4 -48 50 -32 59 6 4 8 14 5 23 -3 8 2 39 12 69 10 29 22 72 26 95 9 56 34
72 112 72 35 0 63 -4 63 -8z"/>
<path d="M8456 4351 c-3 -5 -13 -55 -21 -111 -8 -56 -18 -107 -21 -112 -3 -4
-15 -8 -27 -7 -64 6 -117 -29 -117 -75 0 -80 110 -72 157 11 21 37 53 168 53
216 0 14 7 30 15 37 14 12 14 15 -1 31 -19 21 -30 24 -38 10z m-70 -273 c9
-14 -31 -48 -58 -48 -27 0 -19 31 12 47 31 16 37 16 46 1z"/>
<path d="M14270 4253 c-29 -10 -72 -58 -97 -106 -26 -53 -28 -112 -3 -112 14
0 23 20 35 78 3 15 22 46 42 68 l36 40 39 -38 c27 -27 41 -34 49 -26 14 14 -1
43 -42 77 -32 27 -34 28 -59 19z"/>
<path d="M11944 4235 c-18 -7 -43 -32 -60 -59 -17 -28 -36 -46 -48 -46 -14 0
-17 -5 -13 -26 6 -32 -11 -75 -64 -164 -48 -83 -59 -120 -33 -120 22 1 64 62
101 150 22 49 31 60 50 60 35 0 78 25 103 59 64 91 42 179 -36 146z m19 -97
c-21 -36 -69 -75 -80 -64 -10 10 37 94 67 118 l25 20 3 -21 c2 -12 -5 -36 -15
-53z"/>
<path d="M6118 4204 c-50 -27 -54 -49 -14 -96 41 -47 45 -68 15 -68 -14 0 -19
5 -16 14 8 19 -16 38 -37 30 -43 -17 2 -84 57 -84 65 0 77 56 26 114 -35 40
-31 60 11 51 38 -8 50 13 20 37 -26 21 -27 21 -62 2z"/>
<path d="M4320 4190 c-24 -24 -25 -32 -4 -91 20 -55 15 -73 -26 -94 -40 -21
-49 -12 -26 25 16 28 16 31 0 37 -21 8 -54 -30 -54 -62 0 -27 24 -55 46 -55
25 0 93 39 104 59 14 28 13 63 -5 105 -9 20 -13 41 -10 46 8 13 42 13 67 -1
15 -8 23 -8 32 1 8 9 5 16 -13 31 -31 25 -85 25 -111 -1z"/>
<path d="M12368 4171 c-32 -33 -39 -46 -36 -73 4 -44 38 -53 38 -10 0 43 43
86 78 78 46 -12 65 -11 69 1 5 15 -48 43 -83 43 -17 0 -40 -13 -66 -39z"/>
<path d="M13285 4171 c-68 -42 -105 -103 -86 -140 22 -41 140 -51 188 -16 32
24 4 37 -53 24 -35 -8 -57 -8 -76 0 -39 15 -35 27 13 35 66 11 99 32 99 64 0
52 -34 65 -85 33z m35 -41 c-24 -15 -37 -11 -16 5 11 8 22 12 25 9 3 -3 -1 -9
-9 -14z"/>
<path d="M3420 4161 c-43 -22 -49 -53 -21 -92 27 -37 26 -49 -4 -49 -16 0 -25
6 -25 15 0 8 -9 15 -20 15 -27 0 -27 -45 -1 -60 25 -13 67 -13 90 0 32 17 33
41 5 82 -35 50 -23 63 52 62 35 -1 54 2 54 10 0 39 -73 48 -130 17z"/>
<path d="M6847 4120 l-55 -61 -7 56 c-5 46 -10 55 -26 55 -19 0 -20 -4 -13
-57 4 -32 10 -67 14 -78 5 -14 -5 -37 -38 -85 -55 -80 -84 -143 -76 -165 9
-23 39 -14 40 12 1 23 103 193 116 193 4 0 14 15 23 33 8 17 37 55 65 84 54
56 61 73 31 73 -11 0 -43 -27 -74 -60z"/>
<path d="M7230 4099 c-47 -44 -95 -84 -107 -89 -31 -13 -30 -40 1 -40 13 0 43
18 70 41 25 22 44 35 41 27 -16 -43 53 -55 104 -19 l31 22 0 -24 c0 -32 22
-49 57 -45 38 4 45 38 9 38 -29 0 -30 4 -15 65 20 81 6 86 -59 22 -73 -72 -91
-73 -52 -4 32 57 38 87 18 87 -7 -1 -51 -37 -98 -81z"/>
<path d="M12118 4151 c-81 -51 -71 -109 17 -97 33 4 43 1 53 -14 13 -21 52
-28 52 -10 0 6 -5 19 -12 29 -9 14 -8 23 5 42 21 29 22 49 3 49 -7 0 -19 7
-26 15 -18 22 -40 19 -92 -14z m82 -27 c0 -9 -63 -35 -78 -32 -13 3 -9 9 17
25 28 18 61 22 61 7z"/>
<path d="M5783 4159 c-55 -16 -99 -92 -72 -125 10 -12 25 -15 55 -11 38 4 43
2 49 -20 6 -24 40 -44 63 -36 19 8 14 30 -8 36 -26 7 -26 37 1 88 19 39 19 42
3 60 -18 20 -41 22 -91 8z m47 -48 c-13 -26 -50 -51 -73 -51 -18 0 -18 2 -5
23 16 23 54 47 76 47 9 0 10 -5 2 -19z"/>
<path d="M12540 4132 c-23 -22 -40 -48 -40 -61 0 -28 40 -44 76 -31 36 14 44
13 44 -10 0 -22 43 -55 60 -45 15 10 12 32 -6 39 -13 5 -16 17 -12 61 4 53 4
56 -25 70 -43 21 -52 19 -97 -23z m63 -32 c-10 -10 -29 -21 -43 -25 l-25 -7
29 30 c16 18 34 28 43 25 12 -5 12 -9 -4 -23z"/>
<path d="M12854 4138 c-9 -18 -32 -54 -51 -81 -35 -47 -38 -77 -8 -77 8 0 15
4 15 10 0 13 66 86 102 111 32 24 37 12 8 -21 -20 -23 -19 -40 4 -40 6 0 33
13 59 30 26 16 47 28 47 26 0 -2 -5 -17 -11 -34 -7 -21 -7 -36 0 -50 13 -24
58 -37 76 -22 19 16 7 43 -16 37 -27 -7 -31 6 -15 44 37 93 23 122 -38 75 -41
-31 -46 -32 -39 -7 7 25 -23 35 -58 17 -24 -12 -28 -12 -33 0 -9 23 -24 16
-42 -18z"/>
<path d="M13915 4139 c-42 -37 -67 -81 -59 -103 8 -21 66 -46 107 -46 45 0 94
18 101 36 8 20 -15 27 -48 14 -33 -12 -93 -13 -100 -1 -3 5 9 16 27 24 53 26
72 52 59 82 -16 34 -44 32 -87 -6z m50 -19 c-3 -5 -12 -10 -18 -10 -7 0 -6 4
3 10 19 12 23 12 15 0z"/>
<path d="M5040 4143 c-19 -9 -41 -17 -48 -19 -8 -1 -15 -4 -16 -6 -27 -50 -45
-103 -38 -110 13 -13 52 8 52 26 0 8 18 30 40 50 62 56 94 46 59 -18 -24 -44
-22 -79 5 -84 25 -5 44 14 29 29 -9 9 -8 17 1 33 50 79 -1 138 -84 99z"/>
<path d="M7008 4135 c-45 -39 -78 -95 -78 -131 0 -28 5 -35 25 -40 60 -15 129
43 130 109 1 24 4 48 9 55 23 37 -46 43 -86 7z m42 -54 c0 -33 -11 -51 -41
-66 -15 -8 -30 -15 -34 -15 -13 0 -3 36 21 67 28 37 54 43 54 14z"/>
<path d="M8045 4142 c-43 -27 -57 -47 -53 -78 4 -38 30 -52 68 -37 27 10 30 9
30 -7 0 -22 36 -50 63 -50 10 0 27 5 38 11 30 15 6 40 -31 33 -27 -6 -28 -5
-31 40 -2 25 0 46 4 46 5 0 7 12 5 28 -2 22 -9 28 -33 30 -16 1 -43 -6 -60
-16z m63 -34 c-6 -17 -67 -52 -76 -43 -9 9 45 55 64 55 9 0 14 -6 12 -12z"/>
<path d="M10690 4137 c-19 -13 -41 -22 -50 -20 -17 5 -90 -96 -90 -123 0 -22
27 -16 48 11 30 38 136 118 140 105 2 -6 -4 -33 -14 -60 -13 -37 -15 -53 -7
-61 17 -17 29 -4 47 56 31 97 -4 140 -74 92z"/>
<path d="M10955 4146 c-42 -18 -85 -72 -85 -105 0 -57 74 -92 152 -71 48 13
118 64 118 86 0 23 -28 16 -68 -15 -44 -35 -96 -47 -137 -30 l-30 11 55 12
c67 15 99 34 107 64 12 51 -47 76 -112 48z m73 -38 c-5 -15 -74 -40 -97 -36
-10 2 -4 11 19 25 38 25 84 31 78 11z"/>
<path d="M15551 4148 c-13 -7 -33 -25 -44 -40 -19 -26 -19 -28 -3 -53 32 -49
92 -55 121 -12 12 19 12 29 1 67 -14 49 -34 59 -75 38z m33 -57 c14 -16 15
-20 2 -30 -11 -9 -20 -10 -35 -1 -17 9 -19 15 -11 30 13 25 22 25 44 1z"/>
<path d="M2152 4072 c-48 -50 -69 -79 -63 -85 7 -7 19 -6 37 2 19 8 30 9 38 1
18 -18 64 -11 97 17 l32 28 -6 -25 c-9 -38 8 -55 51 -51 15 1 16 31 1 31 -6 0
-9 20 -8 52 4 71 -19 76 -71 19 -21 -23 -45 -41 -55 -41 -15 0 -14 4 6 38 12
20 26 41 31 47 12 14 10 45 -4 44 -7 0 -46 -35 -86 -77z"/>
<path d="M9280 4143 c-26 -9 -70 -56 -70 -75 0 -19 28 -38 55 -38 10 0 26 -11
37 -25 15 -19 29 -25 58 -25 50 0 90 15 90 35 0 14 -9 15 -61 9 l-62 -7 5 34
c3 19 8 41 11 49 12 28 -28 55 -63 43z m14 -58 c-4 -8 -16 -15 -28 -15 -21 1
-21 1 -2 15 25 19 37 19 30 0z"/>
<path d="M3126 4109 c-15 -18 -26 -43 -26 -60 0 -25 4 -29 29 -29 17 0 33 5
37 11 3 6 14 -7 25 -30 13 -29 24 -41 39 -41 25 0 25 6 0 55 -13 26 -17 42
-10 49 15 15 12 34 -10 56 -28 28 -54 25 -84 -11z m49 -19 c-3 -5 -11 -10 -16
-10 -6 0 -7 5 -4 10 3 6 11 10 16 10 6 0 7 -4 4 -10z"/>
<path d="M10389 4092 c-46 -52 -51 -87 -14 -104 48 -22 135 33 135 84 0 81
-58 91 -121 20z m81 -29 c0 -14 -68 -49 -77 -39 -3 3 4 18 16 34 15 22 27 29
41 25 11 -3 20 -12 20 -20z"/>
<path d="M4732 4100 c-85 -62 -81 -130 8 -130 95 0 125 56 74 138 -19 29 -33
28 -82 -8z m57 -81 c-14 -9 -79 -13 -79 -5 0 19 18 40 44 51 29 13 31 12 40
-12 6 -18 5 -28 -5 -34z"/>
<path d="M4501 4078 c-17 -23 -31 -50 -31 -60 0 -22 34 -58 55 -58 48 0 105
60 105 109 0 25 -36 51 -71 51 -20 0 -35 -11 -58 -42z m84 -28 c-9 -29 -53
-56 -67 -42 -17 17 16 62 42 55 12 -3 20 0 20 8 0 7 3 10 6 6 3 -3 3 -15 -1
-27z"/>
<path d="M15543 3905 c-55 -24 -122 -103 -171 -205 -25 -52 -46 -97 -48 -98
-1 -2 -22 -6 -46 -9 -54 -7 -68 -18 -68 -54 0 -34 25 -40 35 -9 4 14 15 20 35
20 l29 0 -13 -38 c-35 -99 -70 -143 -145 -184 -32 -17 -34 -38 -5 -38 31 0 96
42 124 82 17 22 42 74 57 114 l28 73 50 5 c28 3 64 4 80 3 20 -1 30 3 30 12 0
20 -51 33 -102 27 l-42 -6 10 27 c42 111 128 225 185 243 45 15 62 8 66 -27 4
-40 32 -37 36 4 6 62 -53 90 -125 58z"/>
<path d="M14343 3827 c-51 -148 -66 -177 -94 -177 -14 0 -30 5 -37 12 -16 16
-35 -3 -30 -28 3 -19 8 -21 62 -23 32 -1 31 5 10 -138 -5 -35 -4 -43 9 -43 19
0 35 45 43 124 l6 62 84 23 c89 25 97 29 85 50 -7 10 -23 9 -82 -8 -40 -11
-74 -20 -75 -18 -1 1 16 46 38 100 22 54 37 105 34 113 -11 30 -32 11 -53 -49z"/>
<path d="M4975 3855 c-16 -14 -45 -32 -62 -40 -37 -18 -44 -45 -13 -45 31 0
130 70 130 91 0 26 -19 23 -55 -6z"/>
<path d="M2422 3853 c-6 -10 -13 -34 -17 -53 -3 -19 -20 -92 -36 -162 -16 -69
-26 -133 -23 -141 7 -20 31 -12 71 26 l32 30 3 -48 c2 -32 9 -52 20 -59 23
-14 47 6 30 27 -6 7 -12 46 -14 87 -2 44 -8 75 -15 77 -6 2 -28 -18 -49 -44
-20 -26 -35 -41 -32 -33 3 9 18 72 33 140 15 69 32 130 37 137 5 7 7 17 3 23
-10 16 -33 12 -43 -7z"/>
<path d="M10981 3780 c-54 -93 -59 -97 -123 -91 -21 2 -34 -17 -20 -31 6 -6
22 -10 36 -10 14 0 26 -2 26 -3 0 -2 -9 -24 -20 -50 -39 -90 -25 -119 62 -131
51 -7 118 16 118 40 0 19 -3 19 -54 5 -47 -13 -106 -4 -106 16 0 8 11 40 25
70 l24 56 45 -6 c50 -8 96 9 77 28 -6 6 -27 10 -45 9 -19 -2 -37 2 -41 8 -6
10 48 109 67 121 13 8 6 51 -8 56 -6 2 -35 -37 -63 -87z"/>
<path d="M4581 3846 c-7 -8 -27 -52 -46 -98 -33 -80 -35 -83 -64 -80 -17 2
-35 0 -41 -3 -17 -11 9 -35 37 -35 20 0 24 -4 18 -17 -4 -10 -9 -41 -12 -70
-5 -48 -3 -54 25 -82 21 -22 40 -31 62 -31 45 0 100 28 100 51 0 23 -9 24 -46
4 -36 -19 -65 -19 -89 -1 -17 12 -18 20 -9 72 l9 59 70 5 c55 4 70 9 73 22 3
14 -7 18 -61 20 l-65 3 37 86 c35 80 40 109 21 109 -4 0 -13 -6 -19 -14z"/>
<path d="M6909 3746 c-53 -112 -55 -113 -92 -119 -46 -6 -52 -11 -43 -32 4
-12 13 -15 35 -10 l28 6 -1 -57 c-1 -57 -1 -58 39 -81 46 -26 139 -32 170 -10
31 23 9 36 -53 30 -98 -9 -135 22 -116 95 6 22 9 23 86 16 75 -6 80 -6 76 12
-3 15 -16 21 -68 27 -35 4 -66 10 -68 12 -2 2 19 49 47 105 28 56 49 105 46
111 -16 24 -36 0 -86 -105z"/>
<path d="M10225 3842 c-11 -8 -69 -125 -80 -159 -5 -17 -17 -25 -45 -29 -51
-8 -75 -26 -67 -49 5 -12 11 -14 20 -7 6 5 25 12 40 14 28 5 28 5 21 -36 -13
-68 -11 -110 6 -114 12 -2 19 16 30 75 l15 78 65 5 c49 4 65 9 65 20 0 11 -14
16 -57 18 -32 2 -58 5 -58 7 0 9 26 63 47 97 23 38 30 73 15 82 -4 2 -12 2
-17 -2z"/>
<path d="M3692 3813 c-6 -16 -21 -65 -32 -110 -18 -68 -26 -82 -43 -85 -28 -4
-36 -38 -9 -38 17 0 19 -7 18 -62 -1 -52 2 -63 17 -66 14 -3 17 4 17 40 0 24
3 53 6 66 6 22 10 23 61 16 50 -6 55 -5 51 12 -2 13 -17 22 -48 28 -25 5 -46
10 -47 10 -1 1 9 44 23 96 13 52 22 100 20 107 -8 21 -23 15 -34 -14z"/>
<path d="M5716 3786 c-44 -44 -67 -97 -81 -187 -5 -32 -10 -38 -40 -43 -44 -9
-84 -40 -69 -56 7 -7 21 -6 47 5 56 23 60 21 52 -32 -9 -64 -54 -156 -82 -168
-26 -11 -30 -33 -8 -41 45 -17 108 82 128 202 11 65 22 76 56 55 17 -11 41 -3
41 13 0 15 -42 36 -70 36 -16 0 -18 6 -13 38 9 67 25 104 60 143 41 45 53 48
53 14 0 -33 28 -33 40 1 14 37 -3 64 -41 64 -22 0 -41 -12 -73 -44z"/>
<path d="M2204 3743 c-11 -44 -27 -84 -38 -95 -15 -13 -17 -21 -9 -29 8 -8 10
-35 6 -80 -4 -48 -2 -73 7 -84 27 -32 35 -16 35 69 0 46 3 87 7 91 3 4 34 9
68 12 49 5 60 9 58 22 -3 12 -16 16 -56 16 -28 0 -52 4 -52 9 0 4 7 35 15 67
16 61 14 79 -10 79 -8 0 -20 -28 -31 -77z"/>
<path d="M8763 3788 c-8 -14 -47 -104 -65 -150 -7 -20 -17 -28 -33 -28 -13 0
-25 -6 -28 -14 -7 -17 1 -26 23 -26 15 0 16 -5 7 -45 -8 -33 -7 -48 3 -59 18
-23 27 -12 35 42 3 26 9 53 13 59 12 18 61 34 88 27 19 -5 24 -2 24 14 0 24
-30 37 -66 28 -13 -4 -24 -5 -24 -4 0 2 14 36 30 77 17 40 30 77 30 82 0 13
-28 11 -37 -3z"/>
<path d="M8946 3758 c-3 -7 -7 -29 -10 -48 -4 -19 -24 -78 -45 -130 -35 -86
-41 -120 -22 -120 4 0 32 18 62 41 50 38 54 39 57 19 2 -12 -2 -28 -9 -36 -9
-11 -8 -18 6 -34 33 -36 45 -25 45 41 0 95 -22 119 -73 79 -14 -11 -27 -20
-30 -20 -3 0 8 34 24 77 36 96 40 136 16 141 -9 2 -19 -2 -21 -10z"/>
<path d="M14084 3739 c-4 -7 1 -18 11 -26 29 -20 47 -16 43 10 -3 25 -41 36
-54 16z"/>
<path d="M12302 3713 c-23 -11 -32 -23 -33 -42 -2 -42 2 -75 12 -94 8 -14 5
-19 -13 -26 -17 -6 -24 -5 -26 6 -5 22 -37 11 -40 -14 -5 -31 26 -45 71 -32
50 13 61 38 44 91 -8 22 -12 49 -9 60 5 19 37 25 47 8 11 -17 35 -11 35 9 0
38 -45 55 -88 34z"/>
<path d="M7207 3713 c-13 -13 -7 -24 20 -34 33 -12 53 2 33 26 -13 15 -42 20
-53 8z"/>
<path d="M12569 3687 c-40 -18 -61 -39 -76 -76 -28 -65 14 -111 101 -111 62 0
106 18 106 42 0 17 -4 19 -22 13 -38 -12 -97 -17 -123 -11 -27 7 -35 36 -10
36 27 0 83 33 96 56 10 20 10 27 -6 44 -20 22 -29 23 -66 7z m41 -32 c0 -2
-14 -12 -31 -21 -17 -8 -28 -11 -24 -4 4 6 17 15 29 20 27 11 26 11 26 5z"/>
<path d="M13433 3687 c-58 -34 -151 -112 -146 -124 3 -7 9 -13 14 -13 14 0 59
30 103 69 51 44 57 27 17 -43 -17 -29 -31 -61 -31 -70 0 -27 44 -19 97 18 l49
34 11 -29 c6 -16 18 -29 27 -29 16 0 58 65 71 110 4 14 13 28 19 32 8 5 8 12
0 25 -22 35 -39 26 -53 -26 -14 -55 -40 -99 -41 -69 0 28 -39 33 -71 9 -38
-28 -40 -27 -23 15 18 43 15 98 -6 101 -8 2 -25 -3 -37 -10z"/>
<path d="M4963 3670 c-27 -16 -33 -26 -33 -56 0 -21 9 -49 22 -67 l22 -30 -48
6 c-45 6 -47 6 -44 -16 2 -17 11 -23 37 -25 79 -8 110 27 72 79 -27 36 -27 65
0 79 15 9 24 8 35 -1 21 -18 43 5 28 29 -16 24 -54 26 -91 2z"/>
<path d="M13775 3649 c-20 -18 -42 -44 -50 -60 -13 -25 -13 -30 4 -51 19 -23
20 -23 65 -7 25 9 43 13 40 8 -8 -13 15 -49 31 -49 9 0 14 9 14 23 -1 12 4 44
10 71 9 38 9 52 -1 65 -33 41 -66 41 -113 0z m80 -19 c6 -10 -41 -60 -56 -60
-4 0 -14 -3 -23 -6 -26 -10 -19 15 13 47 30 30 55 37 66 19z"/>
<path d="M9290 3662 c-8 -2 -28 -16 -43 -31 -97 -90 -78 -173 38 -170 74 2
109 12 113 32 3 16 -3 17 -75 11 -65 -5 -81 -4 -92 9 -16 20 -7 37 20 37 28 0
95 36 103 55 13 34 -26 69 -64 57z m19 -46 c-2 -2 -15 -9 -29 -15 -24 -11 -24
-11 -6 3 16 13 49 24 35 12z"/>
<path d="M10650 3662 c-22 -7 -70 -54 -70 -68 0 -7 14 -24 32 -37 l31 -25 -39
-20 c-34 -17 -41 -18 -53 -5 -17 19 -34 3 -29 -28 4 -34 39 -35 98 -3 63 34
71 56 33 96 -27 28 -27 30 -9 43 14 11 22 11 37 2 14 -9 21 -9 30 0 22 22 -24
56 -61 45z"/>
<path d="M11704 3656 c-38 -17 -84 -74 -84 -105 0 -16 10 -26 37 -37 31 -13
46 -14 100 -4 52 10 63 16 63 32 0 18 -4 20 -32 14 -72 -14 -104 -16 -118 -7
-12 8 -11 14 10 36 39 42 59 49 79 31 20 -18 31 -12 31 16 0 14 -38 41 -53 38
-1 -1 -16 -7 -33 -14z"/>
<path d="M2655 3640 c-51 -20 -83 -112 -52 -154 18 -25 83 -37 136 -25 61 14
78 24 85 55 9 36 -10 56 -29 30 -8 -10 -16 -23 -17 -28 -5 -15 -82 -28 -114
-19 -38 10 -43 36 -8 45 39 10 74 36 74 56 0 30 -42 52 -75 40z"/>
<path d="M3928 3640 c-26 -16 -58 -75 -58 -108 0 -36 25 -57 80 -67 51 -8 124
7 128 27 3 15 -6 17 -72 15 -49 -1 -79 2 -87 11 -11 10 -10 12 2 12 28 0 89
50 89 73 0 42 -41 60 -82 37z m37 -40 c-3 -5 -16 -15 -28 -21 -22 -12 -22 -12
-3 10 19 21 43 30 31 11z"/>
<path d="M10335 3599 c-61 -58 -70 -92 -34 -125 25 -23 140 -27 161 -6 19 19
-9 33 -49 26 -36 -7 -83 2 -83 15 0 4 26 21 57 38 66 34 83 55 67 81 -23 36
-60 27 -119 -29z"/>
<path d="M11918 3614 c-21 -19 -38 -44 -38 -54 0 -25 41 -36 86 -22 30 9 33 8
36 -12 3 -24 48 -49 72 -40 25 9 19 31 -10 38 -23 6 -26 11 -21 39 3 18 8 40
12 49 5 13 0 20 -20 28 -48 18 -78 12 -117 -26z m63 -24 c-13 -11 -30 -20 -39
-20 -13 0 -12 3 3 20 10 11 28 20 39 20 20 -1 20 -1 -3 -20z"/>
<path d="M14610 3637 c-27 -9 -36 -18 -38 -40 -2 -16 3 -36 11 -45 8 -10 20
-27 26 -39 10 -20 8 -24 -20 -38 -40 -21 -63 -13 -55 20 8 31 -18 45 -41 23
-13 -14 -13 -19 2 -51 9 -20 26 -39 36 -42 28 -9 82 11 110 41 l24 26 -28 50
c-30 53 -30 55 -7 58 30 5 40 0 40 -20 0 -29 28 -25 36 6 12 46 -36 71 -96 51z"/>
<path d="M15737 3620 c-47 -56 -44 -165 3 -140 22 12 26 25 10 35 -13 8 -2 55
18 78 20 23 45 22 67 -3 23 -25 35 -25 35 0 0 29 -39 60 -76 60 -23 0 -39 -8
-57 -30z"/>
<path d="M4157 3622 c-25 -28 -21 -50 18 -89 41 -41 44 -60 11 -69 -32 -8 -46
2 -46 30 0 12 -3 26 -7 29 -12 13 -33 -15 -33 -44 0 -55 74 -78 124 -38 37 29
34 67 -9 109 -38 37 -37 53 3 49 37 -4 57 8 41 27 -17 20 -82 18 -102 -4z"/>
<path d="M5955 3579 c-28 -28 -69 -60 -92 -71 -24 -10 -43 -23 -43 -29 0 -18
32 -22 64 -6 29 13 33 13 42 -1 17 -26 70 -19 119 16 l45 32 0 -31 c0 -17 6
-32 15 -36 23 -8 25 -3 27 66 2 88 -11 96 -70 39 -42 -41 -80 -68 -96 -68 -18
0 -1 36 35 75 38 41 44 65 16 65 -7 0 -35 -23 -62 -51z"/>
<path d="M6293 3614 c-62 -31 -121 -113 -97 -137 4 -3 32 21 63 54 65 68 87
76 76 27 -11 -52 -11 -71 2 -75 14 -5 43 58 43 92 0 22 -28 55 -46 55 -5 0
-24 -8 -41 -16z"/>
<path d="M7609 3597 c-24 -18 -52 -31 -61 -29 -11 2 -18 -2 -18 -11 0 -9 -11
-29 -25 -45 -26 -31 -33 -62 -14 -62 7 0 40 25 74 55 35 30 65 55 67 55 2 0 2
-15 0 -34 -3 -27 1 -37 23 -55 15 -11 38 -21 51 -21 34 0 30 29 -5 41 -28 10
-29 12 -28 71 1 36 -2 62 -9 65 -6 2 -30 -11 -55 -30z"/>
<path d="M15590 3605 c-7 -8 -18 -15 -25 -15 -23 0 -72 -49 -80 -77 -15 -60
77 -85 134 -37 37 31 39 59 10 108 -24 41 -23 41 -39 21z m20 -67 c0 -32 -68
-65 -84 -40 -7 12 18 41 45 51 26 9 39 6 39 -11z"/>
<path d="M7312 3576 c-38 -43 -46 -69 -32 -97 10 -19 18 -21 61 -17 53 5 89
30 89 60 0 18 -63 88 -80 88 -4 0 -21 -15 -38 -34z m73 -47 c10 -15 3 -19 -40
-26 -36 -6 -37 -5 -26 16 12 22 55 29 66 10z"/>
<path d="M14013 3594 c-10 -28 -8 -87 3 -91 13 -4 34 47 34 83 0 27 -27 33
-37 8z"/>
<path d="M6473 3578 c-11 -13 -28 -38 -37 -55 -16 -31 -15 -34 4 -53 21 -21
38 -24 110 -20 58 3 90 16 90 35 0 14 -8 15 -57 9 -58 -7 -103 -7 -110 0 -5 5
25 66 32 66 3 0 14 -6 25 -12 29 -18 44 1 24 30 -20 28 -55 28 -81 0z"/>
<path d="M7166 3578 c-3 -7 -9 -28 -15 -47 -12 -37 -3 -58 22 -48 15 6 32 81
22 98 -9 13 -25 11 -29 -3z"/>
<path d="M7941 3473 c-17 -27 -42 -63 -55 -81 -22 -30 -26 -62 -7 -62 11 0
101 118 112 146 9 26 5 44 -10 44 -4 0 -22 -21 -40 -47z"/>
<path d="M12854 3349 c-12 -28 -20 -37 -27 -30 -16 16 -81 13 -144 -5 -40 -12
-58 -13 -66 -5 -17 17 -34 13 -40 -8 -6 -26 -118 -37 -206 -21 -63 11 -91 5
-77 -18 11 -18 144 -35 212 -27 l65 7 -7 -29 c-9 -37 -70 -179 -96 -220 -20
-34 -17 -53 7 -53 22 0 105 182 140 305 3 13 82 35 157 44 l56 7 -79 -158
c-81 -160 -94 -209 -58 -216 9 -2 38 14 64 34 31 23 46 30 41 19 -10 -27 3
-55 25 -55 13 0 18 7 18 23 -1 12 4 43 11 68 13 45 9 79 -9 79 -5 0 -36 -28
-70 -62 l-62 -63 18 40 c31 69 154 310 164 320 5 5 9 22 9 37 0 42 -27 35 -46
-13z"/>
<path d="M1915 3323 c-9 -20 -23 -79 -33 -130 -15 -82 -19 -93 -37 -93 -24 0
-45 -18 -45 -38 0 -10 8 -12 31 -7 l31 7 -8 -49 c-14 -82 -11 -117 9 -121 12
-2 17 3 17 19 0 12 5 50 11 85 l11 62 44 4 45 3 -8 -30 c-13 -52 -10 -100 7
-100 8 0 39 31 70 69 60 76 75 72 44 -13 -28 -80 0 -115 30 -37 27 71 31 112
12 141 -25 38 -49 31 -87 -24 -18 -28 -35 -49 -36 -47 -2 2 57 196 86 280 6
16 8 33 5 37 -8 13 -34 11 -39 -3 -2 -7 -20 -69 -41 -137 -21 -68 -40 -119
-42 -112 -2 6 -22 11 -44 11 l-40 0 7 50 c4 28 14 74 22 103 26 89 27 107 9
107 -9 0 -22 -16 -31 -37z"/>
<path d="M10549 3343 c-1 -5 -3 -19 -4 -33 -4 -33 -34 -108 -79 -197 -45 -90
-47 -127 -6 -148 71 -37 140 -1 140 73 0 47 -14 62 -60 62 l-37 0 29 58 c42
85 60 150 47 173 -10 19 -28 26 -30 12z m11 -306 c0 -31 -18 -47 -51 -47 -40
0 -44 16 -12 45 36 32 63 33 63 2z"/>
<path d="M11364 3329 c-4 -7 -8 -30 -9 -53 -1 -27 -15 -63 -39 -104 -63 -106
-92 -216 -63 -240 19 -16 40 2 32 27 -10 33 2 60 25 54 11 -3 20 0 20 6 0 17
21 13 59 -12 78 -51 143 -87 157 -87 33 0 6 36 -49 67 -32 18 -70 41 -84 52
l-25 20 94 46 c104 51 134 75 124 100 -5 15 -9 14 -38 -7 -34 -24 -224 -118
-239 -118 -16 0 -10 21 25 79 43 73 59 122 50 155 -6 27 -28 35 -40 15z"/>
<path d="M16367 3334 c-4 -4 -7 -26 -7 -48 0 -30 -10 -58 -40 -106 -50 -82
-73 -139 -68 -176 5 -46 31 -36 40 16 4 24 29 80 55 125 40 68 47 88 48 134 0
50 -11 72 -28 55z"/>
<path d="M14847 3273 c-14 -32 -35 -82 -46 -110 -11 -29 -34 -80 -51 -113 -16
-33 -30 -66 -30 -75 0 -37 113 -45 165 -11 19 12 25 25 25 52 0 46 -20 52 -81
26 l-48 -20 20 39 c11 22 33 72 48 112 16 40 36 88 44 108 9 20 13 39 10 43
-16 16 -32 1 -56 -51z m18 -272 c-6 -5 -23 -12 -40 -16 l-30 -6 25 15 c28 17
60 22 45 7z"/>
<path d="M8078 3245 c-26 -45 -50 -75 -59 -75 -9 0 -22 -7 -29 -16 -11 -13
-10 -16 6 -20 20 -5 20 -6 1 -62 -22 -68 -12 -111 25 -114 63 -4 142 21 152
49 8 19 -18 27 -45 13 -39 -22 -82 -30 -95 -20 -12 11 -8 44 16 109 l13 34 58
-7 c48 -5 59 -3 59 9 0 18 -31 35 -64 35 -14 0 -26 2 -26 5 0 3 16 31 35 61
20 30 33 59 30 65 -15 23 -38 3 -77 -66z"/>
<path d="M3219 3283 c-47 -119 -82 -262 -73 -299 6 -25 33 -34 35 -11 1 6 2
21 3 32 1 11 3 30 4 42 2 18 10 23 57 28 31 4 58 6 60 4 2 -2 -3 -29 -11 -59
-19 -72 -18 -86 7 -111 27 -27 51 -10 31 21 -15 25 -1 92 53 249 22 67 32 108
25 115 -17 17 -35 -11 -59 -92 l-24 -80 -56 -5 c-31 -2 -58 -3 -60 -1 -2 2 8
40 22 85 15 44 27 87 27 95 0 25 -30 15 -41 -13z"/>
<path d="M3642 3268 c-5 -7 -24 -41 -41 -75 -27 -53 -36 -62 -69 -70 -23 -6
-38 -15 -40 -27 -3 -15 1 -18 25 -14 30 4 30 4 20 -33 -6 -27 -5 -45 5 -65 17
-38 60 -59 88 -44 33 17 25 40 -14 40 -40 0 -50 21 -35 75 8 26 16 35 39 39
17 3 44 9 60 12 17 3 30 12 30 20 0 15 -7 17 -57 14 -18 -1 -33 1 -33 4 0 4
14 30 30 60 25 44 28 55 17 65 -11 8 -17 8 -25 -1z"/>
<path d="M3869 3238 c-17 -24 -37 -55 -44 -69 -8 -15 -23 -29 -34 -32 -15 -3
-20 -13 -20 -33 1 -16 0 -48 -1 -72 -1 -23 3 -49 11 -58 33 -40 108 -56 144
-31 28 22 10 37 -38 31 -66 -7 -91 22 -74 89 7 25 11 27 60 28 77 2 111 11
115 33 4 17 -1 18 -68 11 -83 -8 -82 -9 -15 79 20 26 33 51 30 56 -13 20 -36
9 -66 -32z"/>
<path d="M6779 3205 c-43 -62 -45 -64 -87 -65 -36 0 -43 -3 -40 -17 2 -11 14
-19 32 -21 23 -3 27 -7 22 -25 -4 -12 -10 -47 -13 -78 -5 -53 -4 -56 28 -83
29 -25 39 -27 78 -22 24 3 50 11 57 17 24 20 4 31 -42 24 -26 -4 -52 -2 -65 5
-18 10 -21 19 -17 59 3 25 11 60 19 76 14 28 18 30 69 30 42 0 55 3 55 15 0 9
-16 19 -43 25 l-42 11 25 34 c14 18 30 37 36 41 15 9 4 39 -15 39 -7 0 -33
-29 -57 -65z"/>
<path d="M16208 3153 c-57 -122 -75 -180 -61 -194 16 -16 30 -4 37 33 4 18 27
75 52 126 25 52 44 101 42 109 -7 38 -27 17 -70 -74z"/>
<path d="M16594 3239 c-10 -16 23 -46 36 -33 6 6 8 18 4 27 -7 19 -29 22 -40
6z"/>
<path d="M13955 3206 c-22 -16 -13 -51 11 -42 9 3 22 6 30 6 19 0 18 36 -2 44
-20 8 -17 8 -39 -8z"/>
<path d="M13073 3194 c-8 -21 23 -52 37 -38 6 6 8 18 5 27 -9 22 -35 29 -42
11z"/>
<path d="M15744 3182 c-113 -62 -144 -141 -70 -176 43 -20 106 -22 106 -2 0
15 -10 19 -68 31 -50 10 -52 33 -6 73 55 48 74 54 95 28 14 -17 20 -19 30 -9
10 11 9 18 -8 40 -25 34 -39 37 -79 15z"/>
<path d="M5067 3158 c-13 -13 -31 -23 -42 -23 -14 0 -21 -12 -30 -55 -7 -30
-16 -70 -20 -87 -6 -28 -5 -33 11 -33 14 1 29 22 53 75 19 41 42 82 52 91 17
15 19 14 38 -17 25 -43 39 -59 51 -59 27 0 -15 101 -49 120 -28 15 -39 13 -64
-12z"/>
<path d="M5286 3125 c-46 -46 -65 -107 -45 -143 21 -37 60 -47 130 -32 69 15
100 33 83 50 -8 8 -26 7 -68 -5 -67 -20 -116 -13 -116 16 0 10 6 19 13 19 20
0 107 58 114 75 8 21 -25 55 -53 55 -13 0 -38 -15 -58 -35z m59 -15 c-3 -5
-16 -15 -28 -21 -22 -12 -22 -12 -3 10 19 21 43 30 31 11z"/>
<path d="M16930 3133 c-46 -30 -90 -77 -90 -95 0 -25 37 -41 81 -35 35 5 38 3
44 -23 6 -26 1 -78 -12 -122 -3 -13 -14 -18 -36 -18 -18 0 -42 -7 -54 -15 -60
-42 -84 -146 -35 -153 32 -5 87 32 121 81 26 38 33 42 72 42 37 0 44 3 44 19
0 16 -7 20 -35 20 -29 1 -35 4 -32 21 1 11 5 65 7 120 3 55 6 114 7 130 2 20
-1 29 -9 28 -7 -2 -13 2 -13 7 0 15 -33 12 -60 -7z m30 -53 c0 -21 -27 -40
-56 -40 -14 0 -12 6 11 30 33 35 45 38 45 10z m-36 -292 c-12 -22 -48 -59 -66
-69 -27 -15 -23 14 8 50 25 30 73 45 58 19z"/>
<path d="M6428 3120 c-45 -24 -47 -42 -12 -94 21 -31 24 -40 13 -47 -22 -14
-49 -11 -55 6 -10 24 -34 18 -34 -9 0 -35 24 -49 70 -43 70 9 88 43 52 95 -34
49 -34 52 -6 62 21 8 31 7 44 -5 23 -20 40 -19 40 4 0 43 -59 59 -112 31z"/>
<path d="M2278 3113 c-47 -54 -61 -128 -30 -155 30 -27 60 -30 124 -13 69 17
99 38 81 56 -7 7 -20 6 -44 -4 -46 -19 -103 -29 -123 -21 -24 9 -20 31 7 38
35 8 77 45 77 66 0 21 -35 50 -61 50 -9 0 -23 -8 -31 -17z m40 -35 c-2 -6 -10
-14 -16 -16 -7 -2 -10 2 -6 12 7 18 28 22 22 4z"/>
<path d="M4145 3110 c-16 -18 -20 -19 -27 -6 -14 25 -40 7 -33 -23 4 -20 -8
-55 -45 -134 -33 -68 -50 -117 -48 -134 4 -32 31 -38 36 -8 2 11 20 53 40 93
35 70 38 73 65 68 57 -12 140 48 140 100 0 57 -89 87 -128 44z m83 -32 c16
-16 -1 -44 -38 -63 -33 -17 -40 -18 -59 -6 -11 7 -8 16 14 45 28 37 61 46 83
24z"/>
<path d="M5549 3093 c-41 -37 -69 -80 -69 -107 0 -22 45 -31 88 -18 20 6 38
10 39 8 16 -15 -100 -268 -169 -369 -23 -33 -37 -65 -34 -73 8 -22 18 -16 88
52 80 77 108 96 128 84 24 -15 40 -12 40 9 0 31 -51 43 -94 22 l-35 -18 33 66
c33 65 67 157 102 274 14 49 15 60 4 67 -8 5 -17 7 -21 4 -4 -2 -9 5 -12 16
-8 31 -42 24 -88 -17z m41 -32 c0 -5 2 -16 5 -23 4 -9 -4 -19 -20 -26 -50 -23
-58 -11 -24 32 20 26 39 34 39 17z"/>
<path d="M9012 3095 c-36 -40 -56 -100 -42 -125 23 -44 118 -49 144 -8 15 25
1 32 -34 18 -23 -10 -37 -10 -55 -2 -21 10 -23 15 -14 39 5 15 18 39 29 53 17
22 21 24 41 12 31 -20 49 1 24 28 -27 30 -59 25 -93 -15z"/>
<path d="M13151 3113 c-42 -21 -66 -65 -51 -94 20 -36 5 -52 -41 -44 -39 7
-40 6 -37 -16 2 -20 10 -24 44 -27 33 -2 48 2 70 21 29 25 29 25 12 60 -16 33
-16 36 0 50 9 8 27 20 40 26 48 25 13 48 -37 24z"/>
<path d="M13849 3065 c-17 -35 -29 -72 -27 -82 7 -35 29 -17 53 41 13 32 29
64 34 69 18 18 12 37 -10 37 -15 0 -28 -16 -50 -65z"/>
<path d="M16481 3087 c-10 -23 -26 -48 -35 -56 -27 -23 -15 -61 19 -61 2 0 14
20 26 45 12 25 28 45 36 45 18 0 16 35 -3 54 -21 22 -22 21 -43 -27z"/>
<path d="M5806 3055 c-30 -74 -24 -110 19 -121 39 -10 101 35 116 85 6 22 9
47 6 55 -10 25 -34 8 -41 -29 -7 -35 -50 -79 -70 -72 -14 5 -9 30 16 85 18 37
19 45 7 53 -23 14 -26 12 -53 -56z"/>
<path d="M15906 3100 c-51 -33 -61 -73 -26 -105 18 -16 27 -17 60 -8 38 10 40
9 40 -13 0 -28 31 -49 48 -32 8 8 7 16 -1 29 -10 16 -7 29 18 74 21 40 26 58
18 66 -8 8 -17 4 -32 -12 -11 -13 -21 -26 -21 -30 0 -9 -81 -49 -98 -49 -20 0
-13 27 11 43 13 8 34 17 48 19 13 1 24 10 24 18 0 22 -55 22 -89 0z"/>
<path d="M16685 3108 c-36 -19 -95 -82 -95 -100 0 -28 17 -22 62 22 23 22 46
40 50 40 14 0 9 -21 -11 -47 -22 -27 -18 -53 8 -53 17 0 38 36 51 88 12 50
-20 75 -65 50z"/>
<path d="M6097 3090 c-14 -11 -33 -41 -43 -65 -20 -53 -10 -85 33 -104 48 -22
133 -6 133 24 0 14 -8 15 -55 10 -38 -5 -60 -4 -70 5 -23 19 -18 28 29 49 48
21 63 48 46 81 -14 25 -40 26 -73 0z"/>
<path d="M8285 3098 c-3 -13 -12 -51 -22 -102 -10 -49 44 -62 103 -25 29 17
34 26 34 58 0 55 -23 81 -71 81 -23 0 -41 -5 -44 -12z m75 -63 c0 -23 -24 -45
-49 -45 -17 0 -13 15 10 44 26 33 39 33 39 1z"/>
<path d="M9447 3104 c-4 -4 -7 -22 -7 -41 0 -32 -19 -60 -55 -81 -24 -13 -13
-44 12 -35 10 3 39 22 66 40 35 26 47 31 47 19 0 -24 24 -19 59 10 28 23 31
24 31 7 0 -24 40 -63 63 -63 24 0 21 27 -4 41 -18 9 -20 17 -15 54 9 54 -4 63
-51 35 -28 -16 -34 -18 -29 -5 11 29 -24 29 -54 0 l-28 -27 -4 23 c-3 23 -19
35 -31 23z"/>
<path d="M10774 3095 c-36 -15 -84 -69 -84 -95 0 -30 26 -43 75 -37 32 5 52 2
74 -11 25 -14 32 -15 43 -3 11 11 9 16 -9 28 -20 14 -21 16 -5 43 16 27 15 29
-8 52 -34 33 -51 38 -86 23z m56 -57 c0 -11 -62 -38 -87 -38 -14 0 -9 9 20 36
31 29 41 33 53 23 8 -6 14 -16 14 -21z"/>
<path d="M14040 3103 c-31 -11 -40 -34 -25 -63 7 -14 21 -32 29 -40 15 -11 15
-14 -1 -26 -29 -21 -63 -18 -63 7 0 29 -34 20 -38 -11 -7 -47 62 -66 119 -33
41 24 45 48 15 84 -32 37 -32 47 -3 51 12 2 22 10 22 18 0 16 -29 23 -55 13z"/>
<path d="M15072 3055 c-33 -55 -55 -72 -45 -35 7 28 -5 72 -20 67 -16 -5 -28
-82 -18 -110 7 -17 1 -30 -25 -61 -34 -39 -64 -111 -57 -133 9 -27 29 -11 46
36 10 28 38 73 66 103 27 29 61 71 75 93 15 22 33 40 39 40 7 0 12 11 12 25 0
17 -6 26 -20 28 -15 2 -28 -11 -53 -53z"/>
<path d="M9227 3070 c-59 -69 -41 -126 37 -117 48 7 79 36 79 76 0 69 -71 95
-116 41z m62 -62 c-20 -17 -59 -25 -59 -12 0 18 24 45 35 40 8 -3 17 0 21 6 4
7 9 6 15 -3 6 -10 2 -20 -12 -31z"/>
<path d="M11012 3084 c-28 -19 -64 -88 -56 -108 9 -23 57 -37 115 -34 40 2 54
7 54 18 0 11 -15 16 -59 20 -33 3 -61 10 -63 16 -2 6 6 23 17 37 17 21 25 25
39 17 31 -16 42 8 15 34 -20 20 -34 20 -62 0z"/>
<path d="M9808 3070 c-14 -10 -31 -32 -37 -48 -7 -16 -24 -33 -42 -39 -34 -13
-35 -38 -2 -38 10 -1 32 -11 48 -23 31 -25 60 -27 137 -11 74 16 94 27 77 44
-12 11 -26 11 -86 -3 -53 -11 -79 -12 -95 -5 -22 10 -22 11 17 27 21 9 43 22
47 29 12 18 9 62 -4 75 -17 17 -31 15 -60 -8z m32 -39 c0 -5 -7 -12 -16 -15
-14 -5 -15 -4 -4 9 14 17 20 19 20 6z"/>
<path d="M12964 3033 c-3 -10 -10 -30 -16 -45 -12 -31 -5 -58 15 -58 15 0 42
83 33 105 -7 20 -25 19 -32 -2z"/>
<path d="M11681 2966 c-7 -8 -11 -23 -9 -33 4 -22 38 -31 38 -9 0 8 9 18 21
21 11 4 18 12 16 18 -6 18 -52 20 -66 3z"/>
<path d="M3491 2867 c-16 -20 -38 -98 -51 -182 -15 -98 -17 -102 -46 -102 -48
0 -94 -64 -94 -131 0 -34 4 -41 30 -52 25 -10 34 -10 54 3 30 20 63 105 83
212 8 44 22 112 31 150 16 64 19 70 40 67 20 -3 23 0 20 20 -4 27 -48 37 -67
15z m-94 -363 c-6 -35 -31 -74 -49 -74 -13 0 -9 49 7 80 9 17 23 30 32 30 12
0 14 -7 10 -36z"/>
<path d="M2197 2844 c-4 -4 -7 -18 -7 -30 0 -21 -28 -106 -110 -337 -30 -85
-32 -108 -7 -107 11 1 31 24 106 120 l20 25 -11 -42 c-11 -45 -5 -93 13 -93
11 0 13 5 28 90 20 106 -9 132 -70 63 -18 -21 -29 -29 -24 -18 35 84 95 275
93 299 -3 29 -18 43 -31 30z"/>
<path d="M9053 2838 c-6 -7 -28 -51 -51 -98 -37 -77 -104 -162 -117 -148 -5 5
-9 60 -14 186 -1 24 -5 32 -20 32 -28 0 -48 -61 -71 -216 -10 -71 -24 -142
-29 -157 -8 -20 -7 -30 5 -42 9 -8 19 -13 23 -10 5 2 16 51 25 107 29 179 35
208 34 168 0 -66 2 -79 18 -94 8 -9 25 -16 36 -16 21 0 80 54 110 100 14 22
14 15 -3 -55 -10 -44 -18 -93 -19 -108 0 -39 26 -97 44 -97 24 0 27 16 9 48
-19 33 -15 68 33 262 27 110 30 150 10 150 -7 0 -18 -6 -23 -12z"/>
<path d="M13496 2838 c-2 -7 -7 -27 -10 -45 -6 -34 -179 -329 -240 -409 -39
-51 -52 -84 -42 -110 9 -22 29 -12 37 18 4 15 27 55 51 90 54 76 176 276 211
344 32 64 39 117 14 122 -9 2 -19 -2 -21 -10z"/>
<path d="M2067 2833 c-4 -3 -7 -14 -7 -23 0 -26 -42 -154 -53 -161 -5 -4 -27
-10 -48 -13 -24 -4 -39 -12 -39 -20 0 -18 20 -25 53 -19 26 5 27 4 19 -28 -13
-61 -9 -134 8 -134 11 0 17 17 22 60 12 103 20 119 59 125 47 7 54 40 9 40
-27 0 -31 3 -25 18 19 50 37 132 32 146 -7 17 -19 21 -30 9z"/>
<path d="M10842 2797 c-51 -16 -126 -89 -153 -149 -20 -44 -24 -70 -24 -148 0
-109 19 -159 78 -204 64 -49 228 -73 235 -35 2 13 -10 17 -68 23 -88 8 -128
24 -163 65 -72 86 -57 275 29 357 46 44 101 69 119 54 16 -14 35 -5 35 15 0
14 -31 36 -47 34 -4 -1 -23 -6 -41 -12z"/>
<path d="M6364 2712 c-20 -37 -42 -76 -49 -87 -6 -11 -19 -46 -29 -77 -16 -52
-16 -59 -2 -87 19 -35 46 -52 86 -53 42 -1 60 17 51 50 -10 36 -41 43 -41 9 0
-20 -4 -24 -21 -20 -11 3 -27 16 -35 28 -12 19 -12 27 3 67 l16 46 62 6 c35 3
69 4 77 1 8 -3 21 1 28 10 21 25 -4 35 -77 30 -35 -2 -63 -1 -63 2 0 4 14 30
30 60 34 60 36 69 15 77 -10 4 -25 -15 -51 -62z"/>
<path d="M9745 2768 c-3 -7 -21 -67 -40 -132 -36 -123 -45 -201 -22 -209 6 -3
34 16 61 42 l48 46 -6 -46 c-5 -35 -3 -49 8 -58 25 -21 31 -7 34 78 3 79 3 81
-21 81 -16 0 -35 -14 -57 -42 -19 -23 -35 -37 -37 -31 -2 6 12 66 32 133 19
67 35 128 35 136 0 17 -29 19 -35 2z"/>
<path d="M7428 2743 c-70 -59 -114 -130 -125 -200 -4 -25 -16 -47 -37 -65 -24
-21 -28 -29 -19 -39 9 -9 17 -8 38 5 25 17 27 16 45 -7 11 -14 30 -27 42 -30
36 -9 92 7 96 26 3 15 -4 17 -48 15 -50 -2 -70 9 -69 37 0 6 26 31 59 58 64
52 100 112 100 168 0 63 -30 74 -82 32z m42 -37 c0 -42 -62 -130 -112 -157
-38 -21 10 78 70 144 29 30 42 34 42 13z"/>
<path d="M14930 2741 c0 -11 25 -42 60 -72 42 -36 64 -64 72 -90 10 -34 8 -44
-18 -96 -32 -64 -97 -119 -236 -200 -78 -45 -91 -59 -63 -69 16 -7 138 63 239
137 57 42 72 60 98 114 44 95 36 129 -55 222 -72 74 -97 88 -97 54z"/>
<path d="M4593 2735 c-3 -10 8 -29 32 -52 32 -31 36 -40 32 -70 -3 -19 -22
-56 -42 -84 -35 -47 -41 -85 -13 -74 7 3 31 31 53 63 33 47 40 65 40 104 0 41
-5 52 -40 88 -43 44 -53 48 -62 25z"/>
<path d="M14492 2693 c-12 -27 -28 -65 -36 -86 -11 -26 -21 -38 -33 -37 -33 4
-43 0 -43 -16 0 -9 9 -18 20 -21 14 -4 20 -14 20 -34 0 -62 73 -91 164 -65 59
18 69 25 57 45 -6 10 -19 9 -60 -5 -71 -23 -116 -11 -116 31 0 30 1 30 65 35
49 4 65 9 65 20 0 11 -14 16 -52 18 -29 2 -53 5 -53 8 0 2 13 34 30 70 16 37
27 70 24 75 -12 21 -32 6 -52 -38z"/>
<path d="M4341 2688 c-134 -109 -118 -278 27 -278 41 0 79 20 69 37 -4 6 -28
8 -56 5 -40 -3 -52 -1 -70 17 -25 25 -28 79 -7 119 19 37 75 88 108 101 19 7
26 15 22 26 -10 25 -39 17 -93 -27z"/>
<path d="M7900 2708 c-51 -126 -47 -120 -87 -116 -33 3 -38 0 -41 -19 -3 -20
1 -23 31 -23 32 0 33 -2 29 -30 -6 -39 14 -85 46 -110 43 -34 182 -23 182 15
0 12 -12 14 -73 9 -80 -7 -101 2 -113 52 -12 47 9 71 68 79 74 9 88 14 88 32
0 13 -10 15 -64 10 l-64 -6 19 50 c11 27 19 56 19 64 0 23 -29 18 -40 -7z"/>
<path d="M13900 2700 c-52 -10 -120 -19 -151 -19 -59 -1 -86 -18 -75 -46 6
-16 36 -21 36 -6 0 5 25 11 55 13 38 2 55 -1 55 -9 0 -7 10 -17 21 -24 19 -10
21 -17 15 -57 -10 -74 -88 -136 -138 -110 -22 11 -24 54 -3 62 21 8 19 36 -3
36 -29 0 -52 -33 -52 -72 0 -57 49 -85 117 -66 83 23 137 120 114 207 -6 24
-10 46 -7 48 2 3 34 6 71 7 73 4 96 16 75 41 -7 8 -18 14 -24 14 -6 -1 -54
-10 -106 -19z"/>
<path d="M12507 2694 c-10 -10 12 -44 28 -44 21 0 28 19 15 35 -13 16 -32 19
-43 9z"/>
<path d="M11515 2679 c-16 -5 -64 -13 -105 -19 -77 -11 -102 -22 -84 -40 7 -7
32 -7 72 -2 l62 9 15 -53 c20 -70 19 -100 -5 -124 -37 -37 -91 -21 -109 31
-15 43 -14 46 9 52 20 5 29 47 11 47 -25 0 -60 -21 -66 -39 -17 -55 46 -151
99 -151 97 0 140 80 101 189 -14 41 -14 41 10 41 29 0 81 42 71 58 -8 14 -38
14 -81 1z"/>
<path d="M14000 2602 c-38 -39 -47 -75 -26 -108 30 -45 127 -61 134 -21 3 13
-4 17 -30 17 -19 0 -42 6 -53 13 -20 15 -13 37 11 37 8 0 29 7 45 16 24 12 30
21 27 42 -3 23 -8 27 -41 30 -30 3 -43 -2 -67 -26z"/>
<path d="M7574 2566 c-29 -30 -56 -66 -60 -81 -9 -36 17 -71 59 -79 46 -9 113
3 129 21 17 21 -7 33 -46 22 -43 -12 -69 -11 -90 4 -29 21 -5 57 38 57 19 0
40 8 49 18 24 26 22 69 -4 83 -19 10 -27 5 -75 -45z"/>
<path d="M12870 2581 c-40 -40 -48 -76 -24 -120 15 -29 27 -38 60 -45 74 -15
249 32 221 60 -4 4 -50 -1 -101 -11 -76 -15 -100 -16 -120 -7 -46 21 -26 62
30 62 42 0 60 21 43 52 -25 48 -67 51 -109 9z m67 -17 c-3 -3 -12 -4 -19 -1
-8 3 -5 6 6 6 11 1 17 -2 13 -5z"/>
<path d="M14200 2584 c-14 -37 -13 -42 16 -69 24 -23 25 -25 8 -32 -10 -3 -19
-2 -21 4 -20 58 -61 51 -45 -8 8 -33 10 -34 57 -32 51 2 90 28 80 54 -3 8 -19
22 -35 31 -36 21 -39 38 -6 38 25 0 51 22 39 33 -3 4 -24 7 -45 7 -32 0 -40
-4 -48 -26z"/>
<path d="M2385 2558 c-74 -76 -69 -159 12 -174 49 -9 146 23 151 50 4 20 0 20
-85 -5 -34 -10 -47 -10 -70 1 l-28 13 31 8 c63 17 115 104 82 137 -22 22 -50
13 -93 -30z m54 -26 c-13 -21 -48 -46 -55 -39 -3 2 9 19 26 37 32 34 50 36 29
2z"/>
<path d="M3571 2559 c-53 -72 -51 -139 4 -139 45 0 63 29 67 105 3 66 2 70
-19 73 -16 2 -30 -8 -52 -39z m20 -92 c-19 -19 -24 1 -10 35 l14 33 3 -29 c2
-16 -1 -33 -7 -39z"/>
<path d="M4024 2578 c-50 -57 -62 -109 -34 -144 30 -35 143 -35 178 0 23 23 2
44 -30 29 -37 -18 -69 -22 -94 -13 -26 10 -33 40 -10 40 19 0 76 48 76 64 0
17 -33 46 -52 46 -8 0 -23 -10 -34 -22z m41 -28 c-3 -5 -11 -10 -16 -10 -6 0
-7 5 -4 10 3 6 11 10 16 10 6 0 7 -4 4 -10z"/>
<path d="M9220 2586 c-43 -14 -93 -82 -93 -127 0 -86 137 -74 180 15 14 31 15
39 2 72 -17 44 -42 56 -89 40z m44 -52 c22 -22 20 -31 -13 -65 -29 -29 -74
-39 -86 -19 -12 19 45 100 71 100 7 0 20 -7 28 -16z"/>
<path d="M9472 2583 c-37 -18 -92 -77 -92 -98 0 -8 11 -27 24 -42 23 -27 29
-28 108 -28 67 0 83 3 83 15 0 12 -18 16 -78 20 -98 6 -111 20 -62 69 28 29
36 32 49 22 19 -16 36 -6 36 19 0 31 -31 41 -68 23z"/>
<path d="M11637 2563 c-38 -40 -46 -70 -25 -91 15 -15 54 -16 63 -2 9 15 35
12 35 -3 0 -24 26 -51 43 -44 15 6 15 10 1 42 -10 25 -13 51 -8 81 3 24 5 44
3 44 -2 1 -20 3 -39 6 -31 4 -40 0 -73 -33z m38 -43 c-10 -11 -23 -20 -28 -20
-6 0 0 11 13 25 27 29 42 25 15 -5z"/>
<path d="M11883 2590 c-32 -13 -29 -45 7 -90 17 -21 30 -43 30 -49 0 -13 -37
-15 -45 -1 -10 17 -36 -2 -33 -24 2 -17 11 -22 41 -24 77 -6 100 51 46 113
-32 36 -30 40 16 47 11 2 20 10 20 18 0 18 -49 24 -82 10z"/>
<path d="M12135 2580 c-10 -11 -21 -18 -24 -15 -14 8 -30 -12 -50 -64 -11 -30
-18 -58 -15 -63 10 -16 31 -8 42 18 16 33 64 94 76 94 5 0 6 -15 3 -34 -9 -57
14 -64 62 -20 31 27 41 32 41 19 0 -26 56 -77 82 -73 29 4 38 38 9 38 -28 0
-51 27 -51 59 0 26 -15 51 -31 51 -4 0 -21 -11 -37 -25 l-30 -25 -6 30 c-4 23
-11 30 -29 30 -13 0 -32 -9 -42 -20z"/>
<path d="M12720 2592 c-8 -2 -31 -14 -50 -25 -19 -12 -43 -21 -55 -22 -22 0
-54 -54 -55 -92 0 -34 13 -29 75 32 31 30 60 55 65 55 6 0 10 -22 10 -49 0
-45 21 -84 36 -68 11 10 10 167 -1 170 -5 2 -17 2 -25 -1z"/>
<path d="M6568 2576 c-10 -7 -24 -29 -32 -48 -37 -87 66 -123 119 -41 21 31
10 70 -26 88 -34 18 -39 18 -61 1z m57 -47 c8 -12 -23 -49 -41 -49 -23 0 -25
19 -4 40 22 22 36 25 45 9z"/>
<path d="M3802 2540 c-15 -16 -32 -30 -39 -30 -13 0 -27 -26 -39 -75 -5 -20
-2 -25 13 -25 12 0 35 23 62 61 23 33 45 58 48 55 3 -3 0 -25 -7 -49 -15 -55
-10 -91 13 -95 13 -3 17 3 17 27 0 17 5 51 12 75 11 40 10 47 -7 66 -25 28
-42 25 -73 -10z"/>
<path d="M9958 2533 c-34 -38 -40 -59 -22 -78 18 -17 42 -19 78 -5 17 6 26 6
26 0 0 -27 41 -50 90 -50 79 0 152 19 148 38 -2 10 -12 16 -23 14 -11 -1 -52
-5 -92 -9 -72 -6 -72 -6 -83 22 -6 15 -8 35 -5 45 7 21 -33 50 -68 50 -13 0
-35 -12 -49 -27z m67 -23 c7 -11 -44 -34 -54 -24 -6 6 27 34 40 34 4 0 11 -5
14 -10z"/>
<path d="M12449 2519 c-6 -12 -8 -32 -5 -45 7 -28 36 -33 36 -6 0 9 3 27 6 38
8 30 -22 40 -37 13z"/>
<path d="M15774 2363 c-9 -20 -23 -99 -33 -175 -14 -118 -18 -135 -29 -118
-20 33 -57 25 -108 -24 -56 -54 -57 -82 -4 -108 66 -32 97 -21 144 54 12 17
24 80 36 177 10 82 25 162 33 178 8 15 12 34 10 41 -9 24 -34 11 -49 -25z
m-59 -336 c10 10 -11 -27 -28 -49 -17 -21 -27 -22 -61 -7 -23 11 -24 14 -11
33 24 34 57 47 76 30 9 -8 19 -11 24 -7z"/>
<path d="M15162 2368 c-7 -7 -12 -24 -12 -39 0 -16 -11 -64 -25 -108 -25 -78
-27 -81 -65 -91 -43 -12 -58 -26 -42 -42 7 -7 20 -7 41 0 l31 11 0 -75 c0 -57
3 -74 14 -74 20 0 26 23 26 91 l0 59 41 -6 c36 -6 41 -5 37 12 -2 10 -16 22
-34 27 l-31 9 24 76 c13 41 24 90 25 109 1 40 -12 59 -30 41z"/>
<path d="M3770 2334 c-6 -14 -10 -33 -10 -42 0 -9 -7 -56 -16 -104 -15 -82
-18 -88 -41 -88 -13 0 -33 -5 -44 -11 -28 -15 -6 -41 27 -33 30 8 30 0 2 -88
-16 -50 -19 -71 -11 -79 19 -19 29 -3 54 86 23 85 24 86 54 85 47 -3 55 -1 55
14 0 15 -21 26 -52 26 -18 0 -20 4 -14 33 4 17 11 64 17 102 6 39 15 78 20 87
14 27 11 38 -11 38 -13 0 -24 -10 -30 -26z"/>
<path d="M5217 2286 c-3 -29 -13 -79 -23 -109 -15 -50 -20 -56 -50 -62 -18 -3
-41 -13 -50 -22 -14 -14 -14 -17 -1 -25 9 -4 27 -4 41 2 31 11 30 14 10 -41
-23 -64 -33 -109 -27 -125 5 -15 32 -20 34 -6 4 36 13 70 33 122 22 59 25 63
80 85 49 20 56 21 52 7 -3 -10 -17 -54 -31 -100 -33 -103 -25 -127 26 -80 19
18 42 44 52 58 11 15 16 18 13 7 -7 -24 10 -67 28 -67 11 0 14 16 15 70 1 88
-17 102 -61 50 -15 -19 -28 -32 -28 -28 0 3 20 65 45 137 48 140 55 181 30
181 -9 0 -17 -6 -19 -12 -6 -26 -59 -183 -63 -188 -2 -2 -8 2 -13 10 -8 12
-14 12 -45 -3 -20 -9 -37 -17 -39 -17 -1 0 6 33 16 73 21 83 20 130 -3 135
-13 2 -17 -9 -22 -52z"/>
<path d="M5979 2293 c-12 -27 -28 -65 -36 -85 -8 -21 -23 -39 -32 -39 -9 -1
-25 -2 -36 -3 -13 -1 -20 -8 -20 -21 0 -16 6 -20 33 -18 27 1 32 -2 27 -15 -4
-10 -9 -46 -12 -82 -4 -57 -2 -69 19 -100 21 -31 29 -35 68 -35 33 0 45 4 45
15 0 10 -12 16 -33 18 -48 5 -66 38 -59 111 10 90 12 93 71 90 45 -3 51 -1 51
16 0 16 -9 21 -47 25 l-47 5 29 65 c33 73 37 100 15 100 -9 0 -25 -20 -36 -47z"/>
<path d="M7981 2318 c-5 -13 -23 -69 -41 -124 l-31 -101 -43 4 c-38 5 -45 2
-74 -31 -17 -20 -37 -54 -44 -77 -11 -39 -10 -43 11 -60 42 -34 96 -18 134 40
24 36 85 195 106 278 6 23 17 43 24 46 9 3 9 9 1 23 -16 27 -33 28 -43 2z
m-108 -283 c8 -44 -68 -108 -88 -75 -12 19 45 100 71 100 6 0 14 -11 17 -25z"/>
<path d="M13637 2313 c-3 -4 -8 -24 -12 -43 -4 -19 -23 -68 -42 -109 -51 -112
-78 -208 -63 -226 14 -17 43 -8 36 11 -6 16 30 124 73 219 33 72 45 145 24
152 -6 2 -13 0 -16 -4z"/>
<path d="M2805 2298 c-2 -7 -9 -35 -15 -63 -6 -27 -17 -78 -26 -112 -15 -54
-19 -60 -31 -47 -8 8 -19 14 -24 14 -16 0 -48 -38 -75 -91 -21 -42 -24 -56
-15 -75 8 -19 19 -24 45 -24 51 0 86 48 124 173 18 56 36 121 41 145 5 24 17
49 27 56 9 7 14 18 10 24 -10 16 -55 15 -61 0z m-65 -254 c0 -12 -27 -63 -44
-81 -35 -40 -49 -28 -25 20 28 54 35 64 54 64 8 0 15 -2 15 -3z"/>
<path d="M4516 2298 c-3 -7 -19 -67 -36 -133 -38 -140 -38 -140 -56 -124 -17
14 -47 -9 -70 -53 -20 -40 -17 -65 11 -84 31 -20 53 -16 77 16 19 26 108 327
108 368 0 23 -28 32 -34 10z m-86 -309 c-11 -37 -29 -61 -41 -53 -15 9 -10 28
16 57 33 34 36 34 25 -4z"/>
<path d="M7187 2289 c-50 -27 -112 -122 -139 -217 l-21 -73 -41 3 c-32 2 -41
-1 -44 -14 -2 -12 6 -19 32 -24 20 -3 36 -10 36 -14 0 -20 -42 -125 -61 -151
-20 -29 -20 -59 1 -59 17 0 68 91 87 156 19 67 29 74 108 74 36 0 67 26 47 39
-7 4 -36 4 -65 0 -28 -3 -53 -5 -55 -4 -8 6 42 137 67 178 35 54 88 92 108 76
13 -11 33 -4 33 11 0 13 -30 40 -43 40 -7 -1 -29 -10 -50 -21z"/>
<path d="M9365 2279 c-4 -6 2 -20 13 -32 27 -30 45 -92 39 -131 -7 -47 -87
-185 -120 -208 -29 -20 -28 -38 2 -38 42 0 147 165 158 249 11 83 -62 210 -92
160z"/>
<path d="M11954 2263 c-3 -10 -19 -48 -37 -85 -27 -60 -34 -68 -58 -68 -38 0
-59 -9 -59 -26 0 -9 12 -14 36 -14 29 0 35 -3 30 -16 -17 -43 -17 -92 -2 -122
25 -49 126 -71 126 -27 0 10 -9 15 -28 15 -36 0 -72 26 -72 52 0 11 5 38 12
59 10 34 15 39 42 39 76 1 154 36 130 60 -6 6 -23 4 -49 -5 -22 -8 -52 -14
-68 -15 l-27 0 30 60 c33 66 39 110 15 110 -9 0 -18 -8 -21 -17z"/>
<path d="M8924 2214 c-82 -88 -106 -182 -59 -234 41 -45 178 -97 206 -79 11 8
10 12 -5 24 -11 8 -28 15 -38 15 -24 0 -97 36 -125 63 -26 24 -29 54 -9 102
19 45 92 123 119 127 33 5 27 32 -7 36 -24 3 -37 -6 -82 -54z"/>
<path d="M6885 2201 c-9 -16 3 -31 26 -31 14 0 19 6 17 17 -4 20 -33 29 -43
14z"/>
<path d="M12787 2203 c-4 -3 -7 -17 -7 -30 0 -16 6 -23 20 -23 16 0 20 7 20
30 0 28 -17 40 -33 23z"/>
<path d="M10120 2188 c0 -18 20 -38 38 -38 8 0 12 9 10 23 -3 25 -48 39 -48
15z"/>
<path d="M2225 2182 c-13 -9 -75 -106 -75 -118 -1 -5 -20 -34 -44 -64 -29 -37
-49 -54 -61 -52 -20 4 -36 -15 -28 -35 13 -33 71 -9 108 45 14 20 25 31 25 25
0 -23 40 -25 77 -3 l35 21 -6 -25 c-7 -30 24 -69 49 -60 20 8 20 34 0 34 -17
0 -16 10 11 107 8 28 14 56 14 62 0 23 -29 9 -50 -23 -11 -19 -37 -49 -58 -67
-31 -27 -38 -30 -40 -16 -2 10 10 39 28 65 17 25 33 57 37 70 6 26 -6 45 -22
34z"/>
<path d="M2948 2103 c-32 -34 -58 -85 -58 -113 0 -35 55 -61 125 -58 45 2 60
7 60 18 0 11 -16 16 -60 20 -59 5 -85 14 -85 29 0 4 13 8 29 8 39 0 79 27 87
60 15 60 -52 85 -98 36z m62 -23 c0 -11 -48 -45 -55 -38 -6 6 33 48 45 48 6 0
10 -4 10 -10z"/>
<path d="M2480 2100 c-14 -11 -30 -18 -37 -15 -29 10 -82 -92 -66 -128 10 -22
11 -22 39 12 90 106 97 113 106 97 5 -9 2 -32 -8 -58 -21 -57 -23 -92 -4 -96
11 -2 22 18 38 72 21 66 22 78 10 103 -16 34 -45 39 -78 13z"/>
<path d="M10300 2107 c-38 -19 -37 -50 4 -91 40 -39 42 -44 23 -70 -9 -12 -23
-17 -42 -14 -26 3 -30 7 -27 31 2 21 -1 27 -17 27 -27 0 -35 -33 -16 -70 14
-26 21 -30 59 -30 53 0 84 22 92 66 5 27 0 38 -30 71 -20 22 -33 43 -29 47 10
10 51 7 58 -4 10 -17 35 -11 35 8 0 40 -57 56 -110 29z"/>
<path d="M12940 2095 c-57 -30 -123 -97 -118 -121 5 -29 26 -27 42 4 14 27
104 97 113 88 2 -2 -3 -21 -11 -41 -9 -21 -16 -44 -16 -51 0 -25 35 -15 78 21
l41 35 3 -36 c3 -42 30 -66 50 -46 9 9 9 15 0 24 -7 7 -12 23 -12 38 -1 73
-28 89 -75 43 -27 -27 -27 -27 -20 -5 9 30 -2 72 -18 72 -6 -1 -32 -12 -57
-25z"/>
<path d="M3217 2093 c-23 -26 -58 -114 -55 -137 5 -36 30 -23 43 22 7 23 21
54 30 68 14 22 22 25 49 20 40 -8 51 2 29 26 -21 23 -75 24 -96 1z"/>
<path d="M3437 2092 c-21 -23 -21 -58 -2 -92 16 -29 19 -59 6 -79 -16 -24 -44
6 -37 40 6 33 -1 41 -25 28 -37 -19 -18 -92 28 -110 34 -13 57 -4 71 27 16 34
15 69 -4 105 -20 40 -13 58 20 52 32 -6 36 21 7 37 -28 15 -46 12 -64 -8z"/>
<path d="M8083 2084 c-34 -14 -76 -64 -88 -102 -9 -32 18 -72 51 -72 85 0 153
105 108 168 -17 25 -26 26 -71 6z m47 -55 c0 -26 -55 -82 -77 -77 -28 5 -26
24 8 62 35 41 69 48 69 15z"/>
<path d="M8309 2083 c-94 -66 -136 -116 -119 -144 7 -11 21 -2 63 42 29 31 63
61 75 68 19 10 22 9 22 -9 0 -12 -7 -34 -15 -50 -8 -16 -12 -35 -9 -44 7 -19
34 -29 38 -13 35 115 33 161 -4 165 -14 1 -37 -6 -51 -15z"/>
<path d="M8560 2082 c-14 -9 -37 -28 -52 -42 l-27 -26 19 -41 c10 -23 28 -46
39 -52 34 -18 104 -23 130 -9 37 20 21 33 -41 33 -46 0 -62 4 -80 23 -19 18
-20 22 -6 22 29 0 88 33 94 53 6 19 -20 57 -40 57 -6 0 -22 -8 -36 -18z"/>
<path d="M13758 2085 c-33 -18 -91 -103 -84 -122 3 -8 14 -13 24 -11 10 1 31
-6 46 -16 37 -24 162 -44 177 -29 19 19 2 30 -55 37 -30 3 -67 11 -82 16 l-27
11 34 17 c27 13 35 24 37 50 3 34 -11 62 -32 62 -6 -1 -23 -7 -38 -15z m30
-47 c-3 -7 -13 -15 -24 -17 -16 -3 -17 -1 -5 13 16 19 34 21 29 4z"/>
<path d="M14192 2078 c-21 -21 -24 -22 -33 -5 -14 24 -25 22 -60 -15 -26 -29
-29 -30 -24 -10 8 26 -22 44 -36 21 -16 -26 -22 -120 -9 -132 9 -9 15 -8 24 8
23 40 69 77 89 71 11 -3 29 0 40 5 16 9 18 8 12 -10 -13 -42 15 -79 45 -61 10
6 11 12 3 22 -7 8 -8 33 -4 66 4 29 5 54 3 57 -11 10 -28 4 -50 -17z"/>
<path d="M15345 2086 c-31 -14 -50 -33 -72 -73 -16 -28 -17 -63 -2 -63 6 0 24
-10 41 -21 36 -26 133 -33 133 -10 0 10 -18 19 -54 25 -51 10 -84 36 -46 36 9
0 33 16 52 35 60 60 27 107 -52 71z m35 -36 c0 -5 -13 -16 -30 -25 -24 -12
-28 -13 -24 -1 3 7 15 18 27 24 28 14 27 14 27 2z"/>
<path d="M5546 2059 c-60 -71 -37 -137 34 -99 16 9 21 6 26 -14 8 -33 39 -60
60 -52 15 6 15 8 -2 27 -14 15 -18 34 -17 68 4 98 -47 134 -101 70z m64 -12
c0 -2 -14 -16 -31 -33 l-31 -29 16 33 c9 17 23 32 31 32 8 0 15 -1 15 -3z"/>
<path d="M6843 2068 c-21 -27 -61 -165 -52 -179 8 -11 12 -11 24 5 12 16 65
163 65 181 0 10 -28 5 -37 -7z"/>
<path d="M11351 2058 c-19 -13 -32 -17 -28 -11 4 6 -1 14 -10 17 -17 7 -33 -9
-33 -32 0 -7 -11 -30 -25 -50 -26 -38 -32 -67 -15 -77 5 -3 37 23 71 59 34 37
65 66 70 66 17 0 9 -36 -17 -73 -14 -21 -24 -45 -22 -55 4 -22 38 -29 38 -7 0
9 11 33 25 53 37 54 31 132 -9 132 -6 0 -27 -10 -45 -22z"/>
<path d="M13310 2073 c-8 -3 -21 -11 -29 -17 -8 -6 -26 -11 -40 -11 -23 0 -26
-4 -27 -36 -2 -54 -13 -91 -38 -124 -35 -46 -58 -95 -52 -111 16 -42 74 17
105 107 15 46 22 54 49 60 40 8 77 32 98 64 15 23 15 27 0 50 -16 24 -35 29
-66 18z m30 -48 c0 -8 -13 -21 -30 -30 -26 -13 -30 -14 -30 -1 0 14 36 46 52
46 5 0 8 -7 8 -15z"/>
<path d="M14423 2059 c-49 -24 -61 -37 -73 -78 -7 -27 -5 -33 22 -56 35 -29
62 -38 109 -33 29 2 34 7 37 31 4 29 -7 34 -37 16 -11 -8 -29 -9 -47 -4 l-29
8 35 14 c73 30 104 89 61 113 -26 14 -30 13 -78 -11z m57 -29 c0 -13 -58 -42
-73 -37 -7 2 4 14 23 25 39 24 50 27 50 12z"/>
<path d="M3945 2058 c-11 -5 -31 -24 -43 -43 -41 -59 -14 -92 50 -61 40 21 38
21 38 -18 0 -21 6 -36 15 -39 20 -8 24 1 27 74 2 65 -6 94 -22 84 -5 -3 -18
-2 -27 3 -11 6 -26 6 -38 0z m15 -53 c-7 -9 -15 -13 -17 -11 -7 7 7 26 19 26
6 0 6 -6 -2 -15z"/>
<path d="M4111 2048 c-29 -78 -33 -100 -20 -109 10 -6 25 5 52 36 48 57 61 57
54 4 -6 -48 -1 -69 18 -69 17 0 32 107 18 129 -12 20 -50 26 -67 12 -10 -9
-15 -8 -20 4 -8 22 -25 18 -35 -7z"/>
<path d="M10009 2026 c-24 -54 -22 -99 4 -104 12 -3 17 3 17 21 0 13 6 43 14
65 13 35 13 42 0 53 -12 9 -18 3 -35 -35z"/>
<path d="M11525 2029 c-58 -52 -58 -100 0 -119 86 -28 177 59 127 120 -29 36
-85 35 -127 -1z m68 -28 c29 16 42 -3 20 -29 -21 -25 -62 -36 -82 -23 -12 8
-12 13 3 36 13 19 21 24 28 17 8 -8 17 -8 31 -1z"/>
<path d="M14689 2038 c-44 -27 -89 -102 -72 -119 8 -8 16 -5 30 12 39 50 86
90 102 87 19 -4 19 -50 0 -86 -10 -17 -10 -25 -1 -34 18 -18 41 10 53 63 8 36
7 47 -9 68 -24 33 -58 36 -103 9z"/>
<path d="M12690 2005 c-11 -25 -17 -52 -13 -61 6 -16 38 -15 38 1 1 6 7 27 14
47 12 37 9 58 -10 58 -5 0 -18 -20 -29 -45z"/>
<path d="M5385 1838 c-7 -18 -34 -80 -58 -138 -39 -94 -47 -106 -72 -110 -16
-3 -28 -8 -27 -12 1 -5 2 -12 2 -18 0 -5 7 -10 16 -10 12 0 14 -5 9 -17 -4
-10 -10 -43 -12 -74 -6 -70 13 -104 68 -121 30 -8 48 -8 77 0 47 14 81 47 64
64 -8 8 -20 4 -47 -12 -37 -23 -83 -23 -112 1 -16 14 -17 69 -2 119 l12 38 78
12 c79 13 100 23 81 42 -6 6 -31 7 -71 0 -33 -5 -61 -5 -61 -1 0 4 23 60 50
125 28 65 48 124 46 131 -9 23 -26 14 -41 -19z"/>
<path d="M10745 1838 c-4 -13 -23 -58 -43 -101 -36 -78 -36 -79 -69 -74 -18 3
-35 1 -39 -4 -8 -14 15 -39 35 -39 16 0 16 -6 8 -48 -13 -60 3 -97 53 -123 41
-22 108 -25 135 -6 29 22 10 35 -44 29 -40 -3 -56 0 -80 17 -35 25 -39 52 -17
106 14 32 18 34 68 37 42 2 54 7 56 22 5 25 -14 44 -30 28 -11 -11 -58 -18
-58 -8 0 2 14 33 30 69 34 75 36 90 16 106 -12 10 -16 8 -21 -11z"/>
<path d="M4170 1824 c-6 -14 -10 -31 -10 -38 0 -7 -23 -87 -51 -177 -63 -202
-68 -232 -43 -227 10 2 33 23 51 48 91 122 104 129 72 40 -20 -57 -19 -80 4
-80 27 0 62 148 42 180 -14 22 -54 9 -84 -27 l-30 -37 20 65 c28 91 69 242 69
255 0 25 -31 24 -40 -2z"/>
<path d="M16629 1774 l-32 -56 -48 6 c-44 6 -50 4 -65 -19 -13 -20 -14 -29 -5
-38 8 -8 15 -7 26 4 10 9 27 14 44 11 l28 -4 -24 -60 c-38 -92 -21 -149 58
-197 39 -24 91 -27 108 -8 14 18 4 27 -31 27 -67 0 -127 63 -113 119 4 14 16
47 27 74 l20 47 72 1 c92 2 131 10 131 29 0 12 -15 14 -87 11 -49 -2 -88 1
-88 5 0 5 9 23 20 39 11 17 20 38 20 48 0 34 -29 16 -61 -39z"/>
<path d="M15804 1803 c-3 -10 -26 -62 -52 -115 -38 -78 -51 -98 -68 -98 -31 0
-39 -28 -11 -35 20 -5 22 -11 19 -64 -3 -54 -2 -59 28 -84 25 -21 42 -27 80
-27 46 0 80 17 80 40 0 15 -21 23 -33 11 -16 -16 -83 -13 -101 5 -17 16 -22
89 -8 110 4 7 42 15 84 19 46 4 82 13 89 21 17 21 -12 28 -87 20 -65 -7 -66
-6 -59 16 11 35 33 74 51 92 17 18 36 84 28 98 -9 14 -35 8 -40 -9z"/>
<path d="M2495 1783 c-17 -83 -60 -247 -81 -307 -29 -83 -29 -86 -6 -86 18 0
65 44 95 90 16 24 17 23 15 -37 -1 -59 13 -100 32 -88 4 2 8 45 9 94 1 76 -2
92 -17 100 -13 7 -24 4 -46 -17 l-29 -27 7 25 c71 269 73 280 47 280 -14 0
-22 -8 -26 -27z"/>
<path d="M12062 1794 c-12 -8 -21 -25 -20 -37 1 -34 -79 -228 -102 -244 -26
-18 -26 -57 0 -83 38 -38 166 -20 184 25 12 32 6 73 -15 100 -18 21 -28 26
-54 23 l-33 -4 20 51 c63 157 69 203 20 169z m16 -266 c18 -18 14 -56 -7 -68
-11 -5 -38 -10 -61 -10 l-42 0 18 27 c20 32 54 62 70 63 5 0 15 -5 22 -12z"/>
<path d="M14563 1803 c-7 -3 -29 -56 -49 -119 -31 -100 -39 -114 -58 -114 -28
0 -68 -28 -60 -42 4 -5 20 -7 36 -4 27 5 29 4 23 -17 -4 -12 -15 -41 -25 -63
-11 -27 -15 -46 -9 -55 13 -20 43 22 64 88 17 55 32 67 71 57 17 -4 26 -1 30
10 9 23 -2 30 -48 35 -14 2 -9 28 23 122 29 87 29 112 2 102z"/>
<path d="M4027 1793 c-3 -5 -15 -56 -27 -114 l-22 -105 -41 -20 c-46 -21 -48
-40 -4 -36 25 2 27 0 21 -25 -4 -16 -13 -45 -20 -66 -12 -33 -11 -39 2 -44 20
-7 30 8 49 77 9 30 18 60 20 67 2 6 17 14 34 18 17 4 34 11 37 17 9 14 -17 29
-40 22 -16 -5 -18 -3 -11 22 20 81 35 169 31 181 -6 14 -22 18 -29 6z"/>
<path d="M8630 1696 c-52 -98 -57 -104 -81 -99 -36 7 -45 -12 -16 -32 22 -14
23 -19 14 -60 -12 -52 7 -91 50 -101 33 -9 78 7 78 26 0 11 -10 14 -42 12 -37
-3 -43 0 -48 20 -3 13 -2 37 3 53 8 28 13 31 68 37 75 10 84 14 84 34 0 14 -8
16 -61 10 l-61 -7 51 96 c29 52 49 100 46 105 -15 25 -35 3 -85 -94z"/>
<path d="M2301 1723 c-11 -38 -25 -89 -31 -114 -10 -38 -15 -46 -31 -42 -28 8
-69 -5 -69 -22 0 -11 11 -15 38 -15 l37 0 -4 -81 c-2 -50 1 -85 8 -92 18 -18
26 1 31 81 l5 77 43 3 c48 4 60 19 42 52 -11 20 -13 20 -29 6 -15 -13 -41 -22
-41 -13 1 4 48 181 55 205 6 18 3 22 -13 22 -17 0 -25 -12 -41 -67z"/>
<path d="M14702 1708 c-17 -46 -56 -132 -86 -192 -30 -59 -52 -114 -49 -122 9
-23 38 -16 88 22 43 34 47 35 39 13 -13 -40 -10 -73 7 -77 11 -2 19 11 28 50
7 29 11 64 10 78 -5 31 -37 39 -58 13 -54 -64 -56 -49 -6 54 64 132 91 204 82
226 -12 31 -23 17 -55 -65z"/>
<path d="M7949 1753 c-1 -4 0 -18 0 -30 1 -11 -18 -65 -42 -120 -78 -171 -94
-244 -54 -251 12 -3 17 3 17 20 0 36 34 135 76 222 42 89 52 158 22 164 -10 2
-18 0 -19 -5z"/>
<path d="M6183 1726 c-11 -13 -30 -56 -43 -95 -22 -63 -27 -71 -50 -71 -25 0
-50 -16 -50 -32 0 -4 14 -8 30 -8 30 0 30 -1 30 -55 0 -42 5 -60 20 -75 32
-32 130 -24 130 10 0 15 -8 18 -52 16 l-53 -1 0 50 0 50 47 5 c26 3 50 9 54
12 14 14 -9 28 -47 28 -37 0 -40 2 -33 23 18 58 46 127 54 132 11 6 2 35 -10
35 -5 0 -17 -11 -27 -24z"/>
<path d="M7801 1721 c-6 -11 -11 -26 -11 -33 0 -8 -16 -47 -36 -88 -63 -131
-90 -229 -66 -244 16 -10 29 10 35 51 3 24 26 88 52 144 56 119 68 164 50 179
-10 9 -16 6 -24 -9z"/>
<path d="M8882 1678 c2 -12 10 -23 18 -23 22 0 19 39 -3 43 -15 3 -18 -1 -15
-20z"/>
<path d="M7646 1683 c-9 -9 -7 -41 3 -47 14 -9 41 4 41 20 0 15 -34 37 -44 27z"/>
<path d="M7240 1610 c-64 -35 -130 -101 -130 -130 0 -29 25 -25 46 7 22 35 47
55 107 88 40 22 47 24 47 10 0 -26 -29 -80 -56 -106 -28 -26 -31 -47 -8 -56 9
-3 28 7 50 28 30 29 34 30 34 13 0 -56 56 -58 111 -3 36 36 40 45 37 82 -4 55
-32 59 -36 6 -4 -45 -57 -103 -72 -79 -5 8 -10 23 -10 32 0 9 -4 19 -9 22 -5
3 -7 25 -4 48 5 33 2 44 -12 55 -26 18 -32 17 -95 -17z"/>
<path d="M4396 1605 c-13 -14 -31 -49 -40 -79 -16 -50 -16 -57 -2 -85 11 -21
28 -34 56 -42 51 -15 123 -2 128 24 3 16 -2 18 -56 11 -53 -6 -62 -4 -81 15
-11 11 -21 24 -21 29 0 4 23 17 50 30 42 19 50 27 50 50 0 33 -25 72 -46 72
-8 0 -25 -11 -38 -25z m44 -34 c0 -16 -27 -37 -36 -28 -4 4 25 47 32 47 2 0 4
-9 4 -19z"/>
<path d="M16035 1599 c-69 -52 -82 -99 -39 -140 21 -20 36 -24 87 -24 49 0 62
3 62 15 0 11 -14 16 -49 18 -27 2 -58 10 -69 17 -20 14 -19 15 9 25 107 38
134 63 114 100 -16 30 -67 26 -115 -11z m74 -13 c-2 -2 -15 -9 -29 -16 -23
-12 -24 -12 -11 3 7 10 20 17 29 17 8 0 13 -2 11 -4z"/>
<path d="M16267 1612 c-23 -25 -22 -39 8 -94 21 -40 22 -47 9 -52 -26 -10 -51
-7 -64 9 -18 21 -40 19 -40 -4 0 -41 74 -65 120 -41 39 21 43 47 16 95 -14 24
-26 48 -26 54 0 5 17 11 38 13 53 4 51 32 -4 36 -29 2 -45 -2 -57 -16z"/>
<path d="M8971 1572 c-54 -58 -76 -95 -68 -116 9 -22 37 -20 37 2 0 18 89 127
97 118 2 -2 -5 -23 -17 -45 -20 -40 -20 -61 0 -61 5 0 37 23 71 52 52 43 61
47 54 27 -4 -13 -8 -37 -9 -54 -1 -26 3 -30 27 -33 19 -2 27 1 27 12 0 8 -5
18 -10 21 -7 4 -6 13 1 26 5 11 9 36 7 57 -4 47 -26 52 -72 17 l-34 -26 -4 23
c-2 17 -11 24 -32 26 -23 3 -37 -5 -75 -46z"/>
<path d="M10035 1590 c-76 -38 -94 -83 -49 -119 48 -38 143 -21 169 30 20 38
19 65 -5 89 -25 25 -63 25 -115 0z m41 -47 c13 -17 15 -17 28 0 17 22 26 22
26 -2 0 -42 -92 -70 -119 -37 -9 11 -6 18 15 35 32 25 33 25 50 4z"/>
<path d="M10282 1535 c-34 -41 -69 -75 -76 -75 -23 0 -41 -29 -27 -43 9 -9 18
-8 41 5 24 14 34 15 60 5 27 -10 37 -9 72 11 38 20 43 21 59 6 21 -19 73 -15
77 6 1 9 -4 24 -13 35 -15 20 -15 20 -30 0 -14 -18 -15 -15 -9 28 9 60 -12 64
-49 9 -24 -37 -81 -72 -94 -58 -4 4 3 13 15 22 28 19 76 100 67 114 -13 21
-31 8 -93 -65z"/>
<path d="M13422 1594 c-28 -19 -30 -79 -4 -123 17 -30 16 -31 -5 -52 -26 -26
-58 -19 -48 10 7 24 -11 37 -30 21 -21 -18 -18 -46 7 -70 30 -28 65 -25 99 9
32 32 37 67 14 97 -16 22 -20 70 -5 79 5 3 21 -2 35 -11 23 -15 25 -15 31 0 8
22 -23 56 -50 56 -12 0 -32 -7 -44 -16z"/>
<path d="M9331 1574 c-17 -14 -31 -32 -31 -40 0 -7 -6 -11 -14 -8 -17 7 -29
-23 -13 -33 7 -5 21 -21 31 -36 33 -53 144 -78 166 -38 15 29 12 41 -10 41
-11 0 -20 -4 -20 -10 0 -19 -59 -10 -85 13 l-26 22 29 19 c38 25 54 52 47 77
-9 26 -38 24 -74 -7z"/>
<path d="M12262 1580 c-37 -23 -72 -75 -72 -107 0 -11 14 -33 31 -47 26 -22
40 -26 94 -26 63 0 91 14 64 31 -8 5 -36 9 -62 9 -56 0 -87 14 -87 38 0 14 2
14 9 3 20 -31 141 27 141 68 0 25 -32 51 -61 51 -13 0 -39 -9 -57 -20z m72
-28 c6 -10 -20 -25 -69 -42 l-30 -10 33 30 c32 30 56 38 66 22z"/>
<path d="M12650 1592 c-30 -10 -88 -62 -100 -91 -24 -60 32 -104 128 -99 43 2
57 7 57 18 0 11 -16 16 -62 20 -40 3 -68 11 -79 22 -16 16 -15 19 24 59 41 41
42 41 68 24 33 -21 59 -13 45 14 -12 21 -58 40 -81 33z"/>
<path d="M5852 1575 c-48 -21 -50 -40 -13 -107 28 -52 30 -59 15 -65 -10 -3
-30 1 -46 10 -38 22 -48 21 -48 -3 0 -38 88 -65 122 -37 28 22 27 45 -2 101
-32 59 -30 64 24 76 37 7 42 34 6 37 -14 2 -40 -4 -58 -12z"/>
<path d="M5605 1547 c-37 -37 -53 -82 -38 -106 21 -33 75 -61 120 -61 37 0 44
3 41 18 -2 12 -16 19 -46 23 -59 8 -71 23 -32 39 40 16 62 50 58 87 -2 24 -8
28 -36 31 -26 3 -39 -3 -67 -31z m63 -19 c-3 -7 -20 -22 -39 -32 l-34 -19 29
31 c30 33 51 42 44 20z"/>
<path d="M8830 1521 c-17 -34 -28 -66 -25 -71 14 -22 32 -7 59 47 24 49 26 58
12 71 -13 13 -18 7 -46 -47z"/>
<path d="M13090 1556 c-35 -94 -17 -146 53 -146 71 0 135 53 140 116 2 23 -2
29 -18 29 -11 0 -20 -7 -21 -15 -2 -51 -44 -90 -98 -90 -33 0 -39 12 -26 59
16 60 -9 101 -30 47z"/>
<path d="M14890 1541 c-70 -73 -70 -128 0 -164 62 -32 260 -11 247 26 -2 7
-13 11 -23 9 -69 -9 -166 -14 -187 -8 -14 3 -33 14 -42 23 -16 15 -14 17 36
30 87 22 106 55 61 106 -24 27 -52 20 -92 -22z m49 -38 c-43 -18 -46 -17 -19
12 18 19 26 22 37 13 12 -9 8 -14 -18 -25z"/>
<path d="M2743 1553 c-38 -21 -69 -60 -78 -95 -9 -37 29 -78 80 -85 53 -7 109
8 113 31 3 15 -3 16 -55 11 -50 -6 -62 -4 -83 13 -29 23 -30 22 34 47 57 23
76 46 60 73 -15 24 -34 25 -71 5z"/>
<path d="M2992 1540 c-32 -23 -42 -26 -42 -14 0 9 -7 14 -17 12 -17 -3 -20
-11 -35 -103 -5 -29 26 -30 42 -1 7 14 31 39 52 57 38 30 40 30 32 8 -5 -13
-9 -42 -9 -64 0 -35 3 -40 24 -43 21 -3 23 -1 17 20 -3 12 -1 46 6 75 9 41 8
56 -2 68 -17 20 -21 20 -68 -15z"/>
<path d="M13653 1528 c-66 -72 -44 -141 52 -167 61 -17 78 -14 125 20 32 23
39 34 31 42 -9 9 -22 6 -55 -11 -39 -21 -47 -22 -90 -11 -48 12 -71 29 -39 29
10 0 33 14 51 30 25 23 33 37 30 58 -3 24 -8 27 -43 30 -32 2 -45 -2 -62 -20z
m48 -38 c-30 -26 -49 -26 -26 0 10 11 25 20 34 20 12 -1 10 -5 -8 -20z"/>
<path d="M12853 1520 c-60 -36 -52 -107 10 -97 21 3 36 -3 53 -20 39 -39 135
-24 118 20 -7 18 -34 24 -34 6 0 -6 -12 -9 -27 -7 -26 3 -28 7 -31 53 -5 69
-29 82 -89 45z m47 -26 c0 -9 -32 -33 -44 -34 -5 0 -1 9 9 20 18 20 35 26 35
14z"/>
<path d="M7572 1491 c-9 -17 -25 -31 -34 -31 -10 0 -18 -6 -18 -13 0 -15 31
-47 46 -47 9 0 44 76 44 97 0 26 -21 23 -38 -6z"/>
<path d="M11008 1483 c-1 -5 -2 -34 -2 -65 -1 -48 -5 -61 -30 -87 -30 -32 -61
-40 -68 -19 -6 18 -38 1 -38 -21 0 -47 80 -44 131 5 30 29 43 61 54 131 6 35
3 43 -14 52 -23 13 -30 14 -33 4z"/>
<path d="M9257 1273 c-4 -3 -7 -18 -7 -33 0 -14 -21 -69 -46 -121 -122 -250
-128 -320 -19 -209 27 28 52 50 56 50 3 0 6 -17 5 -37 -1 -27 3 -38 16 -41 13
-2 18 8 23 52 4 30 4 59 0 65 -10 17 -40 13 -69 -10 -15 -12 -29 -19 -32 -16
-3 2 20 55 51 117 30 62 55 125 55 140 0 28 -21 55 -33 43z"/>
<path d="M10587 1243 c-3 -5 -14 -42 -25 -83 -33 -122 -37 -128 -76 -136 -43
-7 -67 -31 -42 -40 9 -3 27 -3 41 0 l24 6 -15 -51 c-8 -28 -14 -60 -12 -72 4
-28 32 -29 36 -2 2 11 10 43 17 70 13 45 17 51 41 50 34 0 44 24 14 32 -24 7
-25 5 9 131 19 69 19 102 1 102 -5 0 -11 -3 -13 -7z"/>
<path d="M11815 1238 c-2 -7 -6 -51 -8 -98 -2 -50 -12 -103 -22 -129 l-18 -44
-19 27 c-27 36 -68 35 -112 -4 -42 -38 -52 -76 -32 -124 14 -35 46 -56 83 -56
32 0 90 77 123 162 36 92 58 256 36 270 -16 11 -26 10 -31 -4z m-99 -273 c4
-8 15 -15 26 -15 19 0 19 -1 -3 -39 -27 -49 -63 -71 -84 -50 -27 28 -27 62 0
92 29 30 53 35 61 12z"/>
<path d="M6188 1218 c-7 -13 -22 -45 -34 -73 -22 -50 -22 -50 -75 -55 -41 -4
-55 -9 -57 -22 -3 -15 4 -18 48 -18 46 0 51 -2 45 -17 -5 -10 -10 -46 -13 -80
-5 -73 10 -106 54 -117 31 -8 80 9 88 30 8 20 -18 28 -43 14 -15 -8 -27 -8
-41 0 -23 12 -27 69 -9 133 10 37 10 37 64 37 54 0 80 15 54 31 -8 5 -33 9
-56 9 l-42 0 21 48 c11 26 27 54 34 63 8 8 14 21 14 27 0 21 -39 13 -52 -10z"/>
<path d="M5113 1213 c-7 -3 -13 -19 -13 -37 0 -17 -9 -74 -21 -126 -21 -98
-21 -169 1 -195 22 -27 40 -1 27 40 -8 27 -5 57 11 142 29 143 28 187 -5 176z"/>
<path d="M4982 1193 c-17 -32 -53 -208 -55 -269 -2 -55 0 -59 21 -62 22 -3 23
-1 17 26 -3 18 5 81 21 158 14 71 27 135 28 143 2 21 -21 24 -32 4z"/>
<path d="M4880 1145 c0 -20 4 -26 18 -23 9 2 17 12 17 23 0 11 -8 21 -17 23
-14 3 -18 -3 -18 -23z"/>
<path d="M6985 1103 c-9 -32 -28 -95 -42 -141 -26 -89 -26 -105 7 -122 16 -9
22 -8 27 6 3 9 1 19 -5 23 -15 9 2 74 23 91 12 10 20 6 43 -20 16 -17 35 -49
41 -71 7 -21 15 -39 19 -40 4 0 18 -3 32 -5 22 -3 30 3 55 47 26 44 101 109
127 109 14 0 9 -28 -13 -69 -23 -45 -22 -84 2 -89 11 -2 18 6 22 25 3 15 14
52 25 82 11 29 17 62 15 72 -10 37 -95 17 -153 -36 -14 -13 -34 -25 -44 -27
-13 -2 -23 -17 -30 -43 l-11 -39 -13 40 c-6 22 -23 51 -37 64 -14 13 -25 26
-25 30 0 4 32 24 71 46 71 39 90 57 73 74 -6 6 -46 -12 -100 -44 l-91 -53 14
61 c8 33 15 64 16 70 1 5 -6 11 -15 14 -13 2 -21 -10 -33 -55z"/>
<path d="M10815 1136 c-57 -26 -77 -46 -66 -64 6 -10 21 -6 62 16 30 16 64 31
77 34 29 8 29 38 0 38 -13 0 -45 -11 -73 -24z"/>
<path d="M14012 1120 c-25 -18 -42 -38 -42 -50 0 -28 19 -24 60 10 38 33 70
39 70 13 0 -44 -94 -132 -185 -172 -60 -26 -85 -48 -85 -73 0 -26 26 -22 82
12 59 36 62 37 76 5 24 -52 121 -40 179 22 37 39 47 97 16 91 -10 -2 -19 -12
-21 -23 -5 -26 -30 -53 -64 -71 -40 -21 -67 -17 -80 11 -10 22 -6 29 49 82 62
61 90 122 71 157 -15 27 -79 20 -126 -14z"/>
<path d="M2166 1115 c-11 -8 -30 -15 -42 -15 -18 0 -22 -8 -29 -57 -13 -102
-12 -147 6 -151 11 -2 19 11 27 48 7 29 12 62 12 74 0 23 47 76 68 76 6 0 15
-15 20 -32 5 -20 16 -34 27 -37 16 -3 17 2 12 34 -11 67 -57 94 -101 60z"/>
<path d="M10355 1120 c-8 -14 13 -40 32 -40 20 0 12 44 -9 48 -9 2 -19 -2 -23
-8z"/>
<path d="M3504 1100 c-40 -16 -93 -164 -69 -196 18 -25 32 -10 37 39 6 53 34
113 56 122 11 4 23 -3 35 -20 15 -20 22 -23 33 -15 18 16 0 54 -33 69 -28 13
-31 13 -59 1z"/>
<path d="M4441 1070 c-63 -41 -81 -64 -64 -81 5 -5 33 8 71 36 34 25 64 45 67
45 10 0 4 -49 -11 -85 -8 -20 -27 -55 -41 -77 -24 -36 -25 -40 -10 -55 14 -14
20 -11 71 37 48 46 56 50 56 31 0 -12 7 -35 15 -51 29 -57 65 -44 94 35 12 31
21 66 21 78 0 12 7 33 16 45 18 26 12 52 -10 52 -20 0 -32 -24 -44 -90 -6 -30
-16 -68 -22 -85 -13 -35 -23 -24 -34 38 -8 42 -29 56 -58 38 -17 -11 -18 -10
-9 8 25 46 5 121 -33 121 -7 0 -41 -18 -75 -40z"/>
<path d="M3253 1078 c-108 -118 -69 -217 80 -206 30 2 43 8 45 21 3 14 -4 17
-47 17 -27 0 -62 5 -78 11 l-28 11 32 13 c48 20 73 50 73 88 0 32 -24 67 -47
67 -5 0 -19 -10 -30 -22z m34 -63 c-7 -16 -47 -40 -47 -27 0 17 44 65 48 53 2
-6 1 -18 -1 -26z"/>
<path d="M5686 1080 c-21 -13 -35 -16 -47 -10 -22 12 -34 -2 -58 -71 -23 -68
-24 -71 -22 -86 2 -27 30 -11 55 31 25 43 95 110 105 101 2 -3 -8 -28 -23 -55
-15 -28 -25 -57 -22 -65 7 -20 36 -19 36 0 0 9 11 33 25 55 27 43 32 89 13
108 -16 16 -27 14 -62 -8z"/>
<path d="M2423 1028 c-48 -74 -108 -138 -128 -138 -8 0 -15 -9 -15 -20 0 -25
27 -26 59 -1 23 18 24 18 43 -1 21 -21 47 -18 90 13 36 25 38 25 38 -14 0 -41
33 -78 52 -59 9 9 9 15 0 24 -7 7 -12 43 -12 90 0 62 -3 78 -15 78 -8 0 -21
-13 -30 -30 -14 -27 -84 -84 -93 -76 -6 7 32 87 61 129 25 37 27 67 3 67 -6 0
-30 -28 -53 -62z"/>
<path d="M2966 1078 c-3 -7 -7 -28 -10 -45 -3 -18 -15 -52 -26 -75 -25 -52
-25 -58 0 -58 13 0 26 13 39 39 26 51 69 101 87 101 22 0 17 -51 -10 -110 -24
-52 -25 -80 -2 -80 17 1 66 120 66 161 0 24 -7 42 -23 57 -28 26 -44 28 -69 5
-17 -15 -18 -15 -18 0 0 20 -29 23 -34 5z"/>
<path d="M8783 1083 c-27 -5 -133 -99 -133 -118 0 -27 20 -25 47 6 33 37 70
64 101 73 30 10 29 -17 -3 -69 -13 -22 -25 -48 -25 -57 0 -30 43 -21 84 18
l38 36 22 -38 c12 -22 31 -40 42 -42 49 -7 125 141 89 177 -12 13 -15 11 -25
-13 -5 -15 -10 -34 -10 -43 0 -15 -37 -83 -46 -83 -2 0 -13 18 -24 39 -25 50
-35 56 -63 38 -22 -14 -23 -14 -19 21 3 26 0 39 -14 49 -18 13 -22 14 -61 6z"/>
<path d="M2774 1069 c-21 -6 -37 -20 -48 -41 l-16 -33 0 27 c0 30 -18 47 -30
28 -4 -6 -10 -43 -14 -81 -3 -37 -11 -80 -18 -94 -9 -20 -9 -28 0 -37 19 -19
46 16 85 106 22 54 40 82 55 87 19 7 22 5 22 -15 0 -12 -9 -49 -20 -81 -15
-44 -17 -61 -9 -72 19 -23 39 -15 39 15 0 16 7 49 16 75 29 85 3 134 -62 116z"/>
<path d="M7735 1063 c-47 -25 -115 -84 -115 -99 0 -24 24 -16 80 26 29 22 60
40 67 40 30 0 6 -76 -36 -114 -23 -21 -28 -56 -8 -56 7 0 35 14 62 31 27 17
51 27 52 23 15 -43 31 -59 61 -62 44 -4 97 47 114 112 7 25 16 46 20 46 13 0
9 22 -8 41 -24 26 -44 13 -44 -29 0 -69 -56 -148 -89 -128 -5 4 -12 19 -16 35
-8 38 -30 57 -48 43 -10 -8 -12 -2 -9 27 3 30 -1 43 -19 60 -27 25 -26 25 -64
4z"/>
<path d="M9652 1007 c-49 -103 -58 -157 -27 -157 13 0 42 31 98 104 16 21 31
35 34 32 3 -2 -3 -28 -12 -56 -13 -40 -14 -54 -5 -65 15 -18 34 -19 61 -4 16
8 18 13 9 24 -6 8 -17 12 -25 9 -10 -4 -9 4 3 39 31 87 -26 133 -82 66 -31
-36 -34 -27 -6 16 25 38 25 55 1 55 -14 0 -28 -18 -49 -63z"/>
<path d="M9429 1037 c-49 -33 -63 -67 -45 -110 10 -26 24 -38 51 -47 39 -13
111 -8 127 8 21 21 -3 32 -58 26 -30 -4 -54 -4 -54 -1 0 3 23 21 50 41 51 37
64 68 38 94 -19 19 -72 14 -109 -11z m51 -47 c-37 -33 -60 -38 -60 -15 0 17
46 44 75 44 17 0 14 -5 -15 -29z"/>
<path d="M12436 1041 c-47 -31 -75 -73 -76 -111 0 -68 51 -100 129 -81 20 5
48 12 64 15 27 6 37 31 15 38 -7 3 -38 -2 -70 -9 -42 -10 -64 -11 -78 -3 -29
16 -25 40 6 40 46 0 114 53 114 89 0 17 -31 41 -53 41 -12 0 -35 -9 -51 -19z
m39 -46 c-40 -33 -70 -33 -32 0 15 14 36 25 45 25 13 -1 9 -7 -13 -25z"/>
<path d="M5824 1043 c-18 -3 -23 -14 -29 -59 -8 -68 5 -89 49 -80 31 6 76 42
76 60 0 17 -52 86 -64 85 -6 -1 -21 -4 -32 -6z m50 -68 c3 -9 -3 -19 -15 -26
-25 -13 -33 -7 -24 20 7 24 30 28 39 6z"/>
<path d="M12199 1031 c-13 -10 -29 -16 -34 -14 -6 2 -17 -13 -24 -32 -7 -19
-24 -49 -38 -65 -23 -28 -26 -60 -5 -60 5 0 38 35 73 77 49 59 65 73 67 58 2
-10 -1 -35 -8 -56 -13 -39 -8 -73 11 -67 6 2 17 22 25 43 35 102 -2 167 -67
116z"/>
<path d="M10767 1022 c-22 -24 -21 -44 3 -92 25 -49 25 -57 0 -65 -34 -11 -60
12 -60 51 0 28 -4 35 -16 32 -68 -13 -9 -128 65 -128 25 0 71 38 71 59 0 9 -9
34 -20 56 -11 22 -20 45 -20 52 0 15 26 17 35 3 10 -17 35 -11 35 8 0 42 -63
58 -93 24z"/>
<path d="M10295 994 c-39 -42 -47 -125 -14 -132 13 -2 18 8 21 43 3 26 14 56
26 68 19 22 20 47 1 47 -6 0 -21 -12 -34 -26z"/>
<path d="M11905 996 c-27 -27 -33 -74 -13 -94 18 -18 66 -14 87 7 15 15 19 30
16 63 -3 40 -5 43 -34 46 -22 2 -38 -4 -56 -22z m49 -41 c3 -9 -1 -18 -10 -22
-19 -7 -28 2 -21 22 8 19 23 19 31 0z"/>
<path d="M7481 965 c-48 -53 -56 -99 -18 -116 35 -16 98 9 116 45 12 26 11 33
-8 72 -11 24 -27 44 -35 44 -7 0 -32 -20 -55 -45z m63 -32 c8 -19 -9 -38 -41
-48 -30 -9 -31 17 -1 45 26 24 34 25 42 3z"/>
<path d="M4794 946 c-9 -36 -1 -70 17 -74 13 -2 18 6 21 37 2 22 2 45 0 50 -7
20 -32 11 -38 -13z"/>
<path d="M12775 870 c-13 -42 16 -53 46 -17 25 30 24 37 -10 37 -21 0 -32 -6
-36 -20z"/>
</g>
</svg>
