<?xml version="1.0" standalone="no"?>
<!DOCTYPE svg PUBLIC "-//W3C//DTD SVG 20010904//EN"
 "http://www.w3.org/TR/2001/REC-SVG-20010904/DTD/svg10.dtd">
<svg version="1.0" xmlns="http://www.w3.org/2000/svg"
 width="1872.000000pt" height="724.000000pt" viewBox="0 0 1872.000000 724.000000"
 preserveAspectRatio="xMidYMid meet">

<g transform="translate(0.000000,724.000000) scale(0.100000,-0.100000)"
fill="#000000" stroke="none">
<path d="M3280 6688 c-23 -46 -59 -110 -80 -143 -22 -34 -43 -75 -46 -93 -9
-47 -21 -48 -39 -5 -9 21 -27 49 -39 63 -31 33 -46 63 -46 93 0 14 -8 35 -19
48 -15 19 -21 21 -34 11 -15 -13 -23 -70 -47 -327 -9 -105 -13 -122 -33 -137
-17 -13 -19 -19 -10 -29 20 -20 87 15 80 42 -3 11 -1 68 4 127 6 59 12 136 15
172 l6 64 15 -34 c8 -19 24 -45 36 -58 12 -13 31 -42 42 -65 13 -28 28 -43 42
-45 27 -4 63 30 63 61 0 13 14 45 32 73 17 27 44 72 60 99 26 48 28 49 28 20
0 -16 -7 -79 -15 -140 -8 -60 -15 -130 -15 -155 0 -70 39 -112 69 -76 10 12 8
17 -10 26 -21 12 -21 16 -15 94 4 44 15 147 24 228 10 80 16 151 14 157 -2 6
-12 11 -22 11 -13 0 -31 -24 -60 -82z"/>
<path d="M5568 6743 c-1 -4 -2 -53 -2 -108 -1 -55 -7 -146 -15 -202 -18 -123
-10 -176 28 -181 21 -3 23 -1 16 20 -11 35 -18 106 -11 131 5 20 11 22 68 22
35 0 75 4 89 8 l25 8 0 -89 c-1 -75 2 -93 18 -111 22 -24 56 -28 56 -6 0 7 -8
18 -17 24 -21 11 -21 34 -8 300 8 157 7 163 -11 159 -17 -3 -20 -15 -24 -118
l-5 -114 -40 -12 c-45 -14 -95 -17 -119 -8 -14 5 -16 19 -11 93 6 97 -4 182
-23 189 -6 2 -13 0 -14 -5z"/>
<path d="M4093 6733 c-15 -6 -17 -30 -3 -35 12 -4 -11 -212 -36 -325 -9 -40
-13 -77 -9 -83 15 -24 43 -8 69 41 30 55 46 58 59 13 22 -73 53 -102 81 -74 8
9 6 16 -11 27 -13 9 -23 26 -23 38 0 13 -12 37 -26 54 -27 32 -61 40 -83 19
-11 -11 -12 -9 -8 7 12 42 39 294 34 309 -6 16 -21 19 -44 9z"/>
<path d="M6579 6629 c0 -2 -2 -42 -4 -89 -2 -47 -8 -116 -13 -155 -9 -76 -1
-143 19 -156 29 -18 33 11 12 84 -4 16 -1 18 16 12 13 -4 28 -1 36 5 12 10 27
3 81 -38 67 -52 124 -78 149 -68 27 10 16 23 -35 44 -48 20 -140 87 -140 101
0 4 35 31 78 61 42 29 87 62 100 73 22 21 30 47 12 47 -10 0 -148 -94 -235
-161 -27 -21 -51 -36 -53 -34 -10 9 23 221 35 228 20 12 16 37 -6 37 -11 0
-26 3 -35 6 -9 3 -16 5 -17 3z"/>
<path d="M14198 6520 c-12 -22 -25 -30 -44 -30 -64 0 -144 -80 -144 -143 0
-14 11 -38 24 -54 l24 -29 -39 -83 c-42 -90 -49 -125 -23 -119 8 2 34 45 57
96 l43 94 47 3 c56 3 111 40 121 81 8 31 -16 72 -51 88 -20 10 -20 11 9 58 28
46 30 68 5 68 -7 0 -20 -14 -29 -30z m-85 -139 c-29 -52 -41 -67 -50 -59 -17
14 -16 33 2 68 13 26 56 58 78 60 4 0 -10 -31 -30 -69z m108 -14 c9 -16 7 -24
-12 -43 -28 -28 -89 -44 -89 -24 0 7 11 32 25 56 19 33 29 41 45 37 11 -3 25
-14 31 -26z"/>
<path d="M16636 6480 c-45 -40 -60 -80 -39 -110 13 -18 23 -21 53 -17 l37 5
-13 -37 c-18 -48 -18 -162 -1 -186 24 -32 34 -9 29 72 -4 77 -4 79 42 166 54
104 57 121 20 114 -16 -3 -28 0 -31 9 -9 25 -60 16 -97 -16z m64 -27 c0 -20
-38 -63 -57 -63 -21 0 -15 22 14 52 31 32 43 35 43 11z"/>
<path d="M15011 6418 c-26 -95 -26 -161 2 -166 14 -3 17 4 17 45 0 26 9 77 20
111 25 78 25 92 2 92 -14 0 -23 -19 -41 -82z"/>
<path d="M15152 6474 c-16 -34 -64 -221 -60 -240 2 -10 11 -20 21 -22 13 -3
17 3 17 25 0 15 7 46 14 68 27 75 41 164 29 176 -8 8 -14 6 -21 -7z"/>
<path d="M16249 6478 c-1 -7 -1 -19 0 -25 1 -7 -3 -22 -9 -32 -8 -16 -17 -19
-43 -14 -61 10 -137 -50 -137 -107 0 -15 9 -39 21 -54 l21 -26 -31 -50 c-33
-54 -46 -93 -37 -109 9 -15 36 -2 36 18 0 9 16 41 36 72 29 44 45 59 74 68 75
22 112 76 92 131 -6 15 -3 37 7 65 13 36 13 46 2 59 -16 19 -31 21 -32 4z
m-77 -169 c-41 -55 -59 -61 -68 -22 -9 36 41 83 79 76 l26 -5 -37 -49z m54
-15 c-10 -14 -20 -23 -23 -21 -6 6 30 57 36 51 2 -2 -4 -15 -13 -30z"/>
<path d="M7066 6455 c-33 -13 -63 -30 -67 -37 -22 -34 -3 -69 50 -93 23 -10
41 -22 41 -27 0 -4 -19 -9 -42 -9 -70 -2 -73 -3 -73 -24 0 -18 5 -20 65 -16
72 3 90 13 90 45 0 30 -10 41 -57 65 -24 12 -43 25 -43 30 0 11 74 41 100 41
23 0 27 22 7 38 -9 8 -29 4 -71 -13z"/>
<path d="M14415 6451 c-47 -21 -72 -48 -59 -61 6 -6 28 0 58 15 76 39 88 16
30 -59 -21 -28 -51 -53 -74 -62 -42 -17 -70 -51 -70 -84 0 -28 31 -26 60 5 29
31 33 31 45 3 19 -42 129 -21 163 29 13 20 12 23 -1 29 -9 3 -28 -3 -44 -14
-15 -11 -40 -23 -56 -26 -22 -5 -29 -2 -36 16 -7 19 -3 29 22 53 68 67 86 131
45 159 -28 20 -34 20 -83 -3z"/>
<path d="M15781 6444 c-17 -14 -31 -32 -31 -39 0 -26 21 -27 47 -1 28 28 52
33 71 14 18 -18 15 -24 -24 -68 -24 -26 -45 -40 -61 -40 -29 0 -113 -77 -113
-104 0 -26 42 -19 87 14 l41 30 7 -27 c13 -55 40 -64 116 -41 28 8 39 17 39
30 0 17 -4 19 -32 12 -69 -16 -83 -12 -86 25 -3 26 3 40 27 65 27 29 51 73 51
97 0 5 -11 21 -25 34 -32 33 -75 32 -114 -1z"/>
<path d="M16462 6457 c-20 -23 -83 -211 -80 -237 2 -18 10 -26 26 -28 22 -3
23 -1 18 25 -5 21 3 56 29 121 19 50 35 98 35 106 0 21 -16 28 -28 13z"/>
<path d="M4390 6430 c-16 -17 -32 -45 -35 -62 -6 -27 -3 -36 20 -56 27 -23 43
-24 89 -6 10 4 16 1 16 -9 0 -19 12 -27 55 -37 63 -14 74 22 12 38 -29 7 -32
12 -35 51 -7 100 -67 140 -122 81z m67 -30 c16 -25 7 -49 -24 -61 -46 -17 -57
11 -22 55 25 31 30 32 46 6z"/>
<path d="M3772 6406 c-35 -40 -56 -98 -48 -130 7 -28 60 -56 104 -56 43 0 82
17 82 35 0 12 -9 14 -53 9 -57 -7 -97 6 -97 31 0 24 31 81 51 93 14 9 25 10
39 2 16 -9 22 -7 26 5 9 22 -14 45 -46 45 -19 0 -37 -11 -58 -34z"/>
<path d="M3525 6399 c-64 -56 -67 -143 -5 -169 36 -15 72 -5 106 31 37 39 37
85 0 133 -33 44 -55 45 -101 5z m86 -56 c18 -48 -36 -97 -81 -73 -24 13 -25
22 -4 65 9 20 25 35 37 37 29 5 36 1 48 -29z"/>
<path d="M5985 6375 c-34 -35 -53 -91 -41 -120 3 -8 17 -20 31 -27 34 -15 88
10 115 54 26 43 25 54 -7 84 -52 48 -61 49 -98 9z m80 -45 c7 -11 -47 -70 -65
-70 -16 0 -22 24 -11 51 6 18 17 25 39 27 17 1 34 -2 37 -8z"/>
<path d="M6220 6368 c-41 -67 -16 -118 56 -118 59 0 88 30 81 84 -7 48 -28 66
-79 66 -32 0 -41 -5 -58 -32z m96 -32 c8 -35 -2 -46 -42 -46 -27 0 -34 4 -34
19 0 20 35 51 57 51 7 0 15 -11 19 -24z"/>
<path d="M15260 6255 c-9 -11 -10 -19 -3 -26 14 -14 56 7 50 24 -6 19 -32 20
-47 2z"/>
<path d="M14664 6229 c-3 -6 -1 -16 4 -21 13 -13 45 8 36 23 -7 12 -31 11 -40
-2z"/>
<path d="M8131 6115 c-73 -40 -147 -158 -160 -253 -5 -44 -12 -54 -56 -91 -32
-27 -60 -41 -78 -41 -22 0 -28 -4 -25 -17 7 -32 71 -21 122 21 l45 36 20 -29
c23 -31 76 -55 113 -49 39 5 27 32 -16 39 -26 4 -48 16 -63 34 l-24 27 64 67
c69 72 95 127 99 215 3 53 -4 61 -41 41z m-1 -70 c0 -37 -43 -124 -80 -160
-33 -32 -40 -36 -40 -20 0 11 12 45 26 75 41 89 94 148 94 105z"/>
<path d="M12257 6063 c-4 -3 -7 -18 -7 -32 -1 -29 -29 -89 -79 -168 -40 -63
-52 -131 -26 -156 24 -25 36 -12 29 32 -6 40 3 65 54 143 54 81 81 188 49 188
-8 0 -17 -3 -20 -7z"/>
<path d="M4119 6058 c0 -2 -2 -22 -4 -45 -2 -26 -26 -91 -61 -165 -46 -97 -58
-134 -58 -173 -1 -44 2 -50 19 -50 14 0 19 6 18 20 -4 32 7 86 17 80 5 -3 29
10 54 28 l44 34 76 -21 c41 -12 84 -30 94 -39 24 -22 42 -22 42 1 0 29 -29 48
-97 67 -35 10 -63 21 -63 25 0 3 19 21 43 38 62 45 108 92 102 103 -10 16 -35
10 -58 -13 -22 -22 -105 -88 -189 -151 l-37 -28 45 95 c51 105 64 187 32 194
-10 2 -18 2 -19 0z"/>
<path d="M10557 6053 c-4 -3 -7 -16 -7 -27 0 -12 -12 -56 -26 -98 -23 -69 -28
-78 -50 -78 -34 0 -64 -17 -64 -36 0 -12 8 -13 35 -8 38 7 40 5 26 -44 -6 -18
-7 -40 -4 -48 11 -30 30 -12 43 41 13 55 13 55 51 55 47 0 69 8 69 26 0 10
-13 14 -46 14 -33 0 -44 4 -40 13 21 50 56 179 51 187 -7 11 -28 13 -38 3z"/>
<path d="M12120 6023 c0 -27 -32 -99 -85 -193 -31 -54 -34 -100 -6 -100 13 0
20 9 24 33 3 17 26 68 51 112 61 105 73 175 31 175 -10 0 -15 -9 -15 -27z"/>
<path d="M3317 6034 c-4 -4 -4 -23 -1 -43 4 -26 -4 -64 -30 -139 -19 -57 -37
-120 -38 -140 -5 -60 27 -49 86 28 61 81 71 86 62 29 -14 -83 -13 -94 11 -97
18 -3 23 1 22 20 0 13 3 42 7 66 15 94 -39 121 -102 50 -20 -24 -34 -34 -30
-23 59 162 71 246 36 253 -9 1 -19 0 -23 -4z"/>
<path d="M5117 6026 c-7 -17 18 -40 33 -31 15 9 12 32 -6 39 -21 8 -21 8 -27
-8z"/>
<path d="M15473 5972 c0 -21 -8 -63 -17 -94 -14 -49 -20 -57 -44 -60 -29 -3
-46 -38 -18 -38 20 0 20 -11 0 -54 -17 -35 -13 -71 7 -64 6 2 21 28 34 58 23
54 24 55 71 60 36 4 50 10 52 23 3 14 -4 17 -36 17 l-39 0 22 88 c13 48 21 90
18 95 -2 4 -15 7 -27 7 -20 0 -23 -5 -23 -38z"/>
<path d="M8906 5974 c-8 -22 -8 -22 13 -33 28 -15 48 11 26 33 -21 20 -31 20
-39 0z"/>
<path d="M14398 5979 c-73 -20 -135 -84 -178 -184 -17 -40 -23 -45 -50 -45
-39 0 -70 -16 -70 -35 0 -12 9 -14 41 -9 40 7 41 6 34 -16 -16 -50 -65 -151
-100 -206 -34 -53 -40 -84 -15 -84 17 0 81 109 126 215 l43 100 58 9 c78 11
83 13 83 32 0 14 -8 16 -60 11 l-59 -5 15 36 c20 50 61 100 98 123 40 24 44
24 48 -3 4 -30 20 -27 36 5 22 45 -1 70 -50 56z"/>
<path d="M6151 5951 c-17 -11 -17 -61 -1 -91 26 -49 -23 -70 -58 -25 -22 27
-52 34 -52 11 0 -25 59 -76 89 -76 29 0 71 32 71 54 0 7 -7 32 -15 55 -11 32
-11 41 -2 41 7 0 18 -5 25 -12 19 -19 50 15 32 36 -14 17 -66 21 -89 7z"/>
<path d="M11325 5940 c-11 -18 5 -30 39 -30 39 0 50 8 35 27 -13 15 -65 18
-74 3z"/>
<path d="M5265 5918 c-44 -25 -47 -69 -9 -109 14 -15 23 -32 20 -38 -7 -11
-37 -3 -47 12 -11 16 -39 -1 -39 -22 0 -28 63 -45 99 -28 37 17 40 65 6 97
-33 31 -32 43 6 61 18 8 31 19 31 24 -2 15 -44 17 -67 3z"/>
<path d="M6681 5914 c-19 -8 -41 -20 -49 -26 -8 -7 -24 -12 -36 -13 -17 0 -20
-5 -18 -27 2 -15 -4 -40 -12 -56 -14 -26 -14 -32 -1 -42 12 -10 18 -6 32 21
21 40 86 109 102 109 15 0 14 -23 -4 -46 -17 -23 -20 -54 -4 -54 6 0 29 16 52
35 22 19 42 34 43 32 1 -1 -1 -21 -6 -44 -8 -47 7 -80 31 -71 10 4 14 25 14
79 l0 74 -36 -1 c-27 -1 -38 4 -45 19 -12 27 -22 29 -63 11z"/>
<path d="M6387 5900 c-31 -24 -62 -100 -52 -129 15 -49 73 -47 114 5 25 32 27
85 5 119 -20 30 -33 31 -67 5z m43 -65 c0 -30 -37 -72 -52 -57 -13 13 17 82
36 82 10 0 16 -9 16 -25z"/>
<path d="M15734 5905 c-7 -18 3 -35 20 -35 14 0 28 35 18 44 -10 11 -33 6 -38
-9z"/>
<path d="M2413 5888 c-32 -35 -63 -91 -63 -113 0 -55 59 -60 118 -9 37 31 42
33 42 15 0 -40 83 -69 109 -38 14 18 4 27 -30 27 -32 0 -43 16 -54 75 -3 21
-14 45 -23 52 -27 20 -76 16 -99 -9z m30 -90 c-24 -25 -53 -37 -53 -22 0 11
23 50 43 72 l21 23 8 -22 c7 -17 2 -29 -19 -51z"/>
<path d="M7048 5889 c-16 -11 -28 -27 -28 -35 0 -12 -8 -13 -36 -8 -32 6 -36
4 -32 -12 2 -11 16 -23 36 -29 19 -5 32 -16 32 -26 0 -41 58 -56 141 -34 70
17 89 29 73 45 -7 7 -30 5 -72 -5 -89 -23 -138 -4 -70 26 39 17 58 59 38 83
-17 22 -49 19 -82 -5z m42 -34 c-7 -8 -17 -15 -22 -15 -6 0 -5 7 2 15 7 8 17
15 22 15 6 0 5 -7 -2 -15z"/>
<path d="M8829 5888 c-1 -2 -3 -12 -5 -23 -1 -11 -6 -37 -10 -57 -6 -34 -5
-38 15 -38 19 0 26 10 22 34 -1 4 5 19 14 33 20 30 13 53 -15 53 -11 0 -21 -1
-21 -2z"/>
<path d="M11287 5878 c-2 -7 -11 -36 -20 -64 -21 -64 -21 -74 -1 -74 19 0 56
82 52 117 -3 28 -26 43 -31 21z"/>
<path d="M11787 5865 c-84 -58 -41 -133 53 -91 12 5 15 -3 15 -41 0 -41 3 -48
20 -48 16 0 19 6 17 25 -2 14 2 49 9 78 12 50 11 54 -11 77 -30 32 -56 32
-103 0z m73 -21 c0 -13 -46 -43 -65 -43 -17 0 -16 3 10 24 28 23 55 33 55 19z"/>
<path d="M9048 5858 c-72 -60 -43 -148 49 -148 31 0 105 34 124 56 8 10 9 18
2 25 -7 7 -26 2 -58 -15 -69 -37 -115 -33 -115 9 0 31 26 50 69 50 29 0 36 4
36 20 0 31 -71 33 -107 3z"/>
<path d="M10999 5852 c-24 -16 -51 -31 -59 -34 -9 -3 -16 -18 -18 -33 -1 -16
-18 -57 -38 -92 -33 -60 -38 -93 -15 -93 18 0 48 39 61 80 10 32 18 40 37 40
29 0 92 31 114 56 37 43 29 104 -14 104 -13 0 -43 -13 -68 -28z m59 -34 c-9
-13 -30 -32 -48 -42 -31 -18 -32 -18 -28 0 3 18 61 64 81 64 5 0 3 -10 -5 -22z"/>
<path d="M11490 5854 c-64 -54 -18 -141 64 -117 17 5 32 17 34 26 3 15 -3 17
-40 15 -38 -3 -43 0 -46 19 -4 27 28 46 61 37 36 -8 45 23 11 36 -38 15 -49
13 -84 -16z"/>
<path d="M3792 5834 c-17 -20 -33 -50 -36 -68 -6 -25 -2 -35 19 -53 35 -30 58
-29 96 5 26 24 32 36 33 72 1 41 -2 46 -34 62 -46 23 -44 23 -78 -18z m78 -38
c0 -8 -10 -27 -23 -41 -40 -48 -74 -7 -35 43 14 17 58 15 58 -2z"/>
<path d="M13355 5832 c-57 -43 -66 -71 -34 -103 18 -18 29 -20 67 -16 40 4 48
2 65 -19 23 -30 57 -32 57 -4 0 10 -9 24 -20 30 -15 8 -20 21 -20 50 0 22 -5
40 -11 40 -5 0 -7 4 -4 10 9 15 -14 50 -33 50 -9 0 -39 -17 -67 -38z m62 -31
c2 -34 -17 -54 -48 -49 -35 5 -32 21 9 50 20 15 37 27 37 28 0 0 1 -13 2 -29z"/>
<path d="M5048 5844 c-26 -14 -39 -44 -19 -44 5 0 5 -13 -2 -29 -11 -31 -3
-65 15 -59 6 2 17 23 24 47 7 23 20 49 30 56 16 11 16 15 5 29 -16 19 -18 19
-53 0z"/>
<path d="M8291 5814 c-27 -31 -41 -56 -41 -75 0 -56 69 -62 128 -11 30 26 36
38 33 75 -1 15 -54 57 -73 57 -3 0 -25 -21 -47 -46z m83 -21 c6 -14 -49 -63
-70 -63 -19 0 -18 17 5 49 20 28 57 36 65 14z"/>
<path d="M8537 5826 c-53 -48 -46 -96 13 -96 28 1 51 16 68 45 10 18 11 17 12
-13 0 -18 -10 -75 -21 -126 l-22 -93 -42 4 c-34 4 -47 1 -71 -20 -26 -23 -29
-31 -29 -85 0 -73 21 -102 72 -102 45 0 69 27 84 95 10 47 15 56 31 51 61 -19
60 -19 56 0 -1 10 -17 26 -33 34 l-30 15 22 90 c12 50 22 118 22 153 1 58 -1
63 -25 72 -43 17 -69 11 -107 -24z m43 -36 c-6 -11 -18 -20 -27 -20 -14 0 -14
2 2 20 10 11 22 20 27 20 5 0 4 -9 -2 -20z m-13 -317 c-9 -66 -24 -93 -51 -93
-21 0 -26 6 -32 35 -4 21 -1 48 6 65 10 25 18 30 48 30 34 0 35 0 29 -37z"/>
<path d="M15058 5835 c-69 -46 -79 -82 -32 -126 33 -31 108 -33 112 -3 2 11
-4 27 -13 34 -13 11 -18 10 -29 -5 -10 -14 -16 -16 -34 -6 -12 6 -22 18 -22
26 0 17 64 68 68 55 5 -15 42 -12 42 3 0 16 -32 47 -46 46 -5 0 -25 -11 -46
-24z"/>
<path d="M10784 5810 l-27 -40 -24 35 c-41 60 -67 37 -33 -30 11 -21 20 -45
20 -52 0 -8 -30 -57 -66 -109 -62 -89 -83 -144 -59 -153 5 -2 19 13 30 33 26
47 173 269 203 306 13 16 21 34 17 40 -13 20 -35 9 -61 -30z"/>
<path d="M12480 5828 c-15 -37 -87 -111 -99 -104 -6 4 -17 22 -25 40 -14 34
-44 50 -67 35 -10 -6 -7 -14 14 -33 15 -14 27 -31 27 -37 0 -7 7 -20 15 -30
15 -15 13 -20 -22 -61 -68 -79 -156 -216 -150 -232 10 -26 29 -9 82 72 52 79
120 164 213 266 35 38 52 65 50 79 -4 29 -26 33 -38 5z"/>
<path d="M14487 5794 c-27 -30 -60 -57 -73 -60 -37 -10 -45 -64 -8 -64 8 0 14
6 14 13 0 14 49 39 62 31 16 -10 68 7 97 32 l29 24 -10 -40 c-8 -30 -7 -44 2
-55 18 -22 25 -12 39 49 19 88 -4 122 -53 77 -12 -10 -34 -27 -51 -37 l-30
-18 21 25 c42 47 50 80 20 78 -6 0 -33 -25 -59 -55z"/>
<path d="M3625 5830 c-4 -6 -14 -9 -23 -8 -11 2 -25 -13 -42 -45 l-25 -48 24
-20 c30 -25 50 -24 92 4 35 24 46 56 35 103 -5 17 -13 24 -31 24 -13 0 -27 -5
-30 -10z m25 -56 c0 -13 -10 -25 -26 -33 -34 -15 -40 -9 -24 28 14 35 50 39
50 5z"/>
<path d="M14775 5813 c-44 -23 -75 -54 -75 -75 0 -24 23 -23 46 3 10 12 31 27
46 35 37 19 46 0 18 -38 -21 -28 -21 -58 -1 -58 17 0 54 62 54 92 0 48 -39 67
-88 41z"/>
<path d="M16093 5805 c-53 -23 -103 -68 -103 -92 0 -28 25 -30 40 -3 11 21 88
70 110 70 9 0 11 -10 7 -34 -6 -40 17 -72 34 -45 18 28 10 87 -13 103 -27 19
-34 19 -75 1z"/>
<path d="M15815 5759 c-44 -39 -45 -78 -2 -93 38 -14 77 2 99 40 22 37 17 55
-19 72 -37 16 -37 16 -78 -19z m65 -22 c0 -19 -21 -37 -42 -37 -25 0 -23 14 5
33 27 20 37 21 37 4z"/>
<path d="M15611 5739 c-26 -42 -28 -82 -4 -77 22 4 51 84 36 99 -9 9 -17 3
-32 -22z"/>
<path d="M9540 5740 c-12 -7 -12 -12 -2 -22 19 -19 14 -45 -16 -80 l-29 -31
-7 27 c-5 19 -12 26 -24 24 -33 -7 -3 -98 33 -98 13 0 68 56 84 87 25 48 -3
115 -39 93z"/>
<path d="M8307 5554 c-4 -4 -7 -32 -7 -61 0 -30 -7 -83 -16 -118 -15 -60 -18
-64 -48 -67 -38 -4 -43 -32 -6 -36 24 -3 25 -6 22 -58 -4 -51 8 -84 29 -84 4
0 9 30 11 68 l3 67 70 8 c71 9 112 30 87 46 -7 4 -39 3 -72 -2 -33 -5 -63 -7
-66 -5 -3 3 2 34 11 68 24 94 13 205 -18 174z"/>
<path d="M4680 5539 c-55 -22 -98 -85 -134 -195 -16 -50 -18 -51 -54 -50 -27
1 -37 -3 -40 -16 -3 -14 3 -18 29 -18 31 0 32 -1 25 -37 -4 -21 -13 -75 -21
-120 -8 -45 -19 -92 -25 -103 -15 -27 -4 -43 20 -30 23 12 26 21 45 135 9 50
20 104 25 120 10 30 11 30 82 30 58 0 73 3 73 15 0 11 -16 16 -65 20 -74 6
-72 2 -37 93 14 37 36 72 60 93 41 37 58 42 77 19 15 -18 40 -20 40 -2 0 39
-55 64 -100 46z"/>
<path d="M2925 5518 c-2 -7 -9 -51 -15 -98 -15 -111 -17 -117 -40 -123 -26 -7
-26 -27 1 -34 18 -5 20 -12 17 -72 -2 -53 0 -66 12 -66 11 0 17 18 24 66 8 63
10 67 35 65 38 -2 39 17 2 33 -20 10 -30 20 -27 30 11 39 28 182 22 196 -7 18
-25 20 -31 3z"/>
<path d="M3066 5498 c-3 -13 -8 -44 -11 -71 -3 -26 -17 -79 -31 -119 -26 -79
-31 -130 -11 -146 18 -15 51 2 82 42 15 20 31 36 36 36 4 0 9 -26 11 -57 2
-44 7 -58 18 -58 22 0 26 109 5 141 -22 35 -49 30 -85 -16 -18 -23 -34 -39
-37 -36 -2 2 8 42 22 88 29 90 39 208 18 215 -7 3 -14 -6 -17 -19z"/>
<path d="M6756 5492 c-8 -15 -21 -53 -30 -84 -10 -31 -23 -59 -31 -62 -16 -6
-21 -36 -6 -36 4 0 12 -15 17 -32 13 -44 67 -80 114 -76 24 2 36 9 38 21 3 14
-4 17 -33 17 -34 0 -85 34 -85 58 0 10 57 22 108 22 27 0 33 4 30 18 -3 14
-14 17 -66 15 l-62 -1 7 26 c3 15 14 50 24 79 9 28 15 54 12 57 -12 12 -23 5
-37 -22z"/>
<path d="M6212 5493 c-5 -10 -17 -48 -26 -85 -15 -54 -22 -67 -39 -70 -28 -4
-36 -38 -9 -38 18 0 19 -4 11 -46 -6 -33 -5 -54 4 -73 15 -31 44 -36 38 -6 -4
24 -5 30 -3 78 l2 37 58 -2 c45 -2 57 0 57 12 0 9 -16 18 -45 23 -25 5 -46 10
-48 12 -2 2 6 37 18 79 11 42 18 81 15 86 -9 15 -23 12 -33 -7z"/>
<path d="M2723 5424 c-7 -20 11 -38 32 -30 13 4 14 10 5 26 -13 24 -28 26 -37
4z"/>
<path d="M7375 5339 c-24 -22 -47 -39 -52 -37 -11 4 -55 -90 -48 -102 8 -12
35 -13 35 -1 0 5 25 37 57 72 l56 63 -7 -52 c-6 -48 -5 -52 13 -52 11 0 36 14
56 31 l35 31 0 -26 c0 -34 29 -48 93 -44 38 2 52 7 52 18 0 11 -14 16 -52 18
l-52 3 -3 42 c-4 53 -27 60 -68 19 l-30 -30 0 32 c0 31 -15 56 -32 56 -5 0
-28 -18 -53 -41z"/>
<path d="M5878 5359 c-27 -15 -22 -46 13 -77 26 -23 30 -32 21 -48 -13 -24
-69 -57 -76 -45 -4 5 -1 22 4 37 13 33 6 56 -14 48 -21 -8 -37 -70 -26 -98 12
-31 35 -38 73 -22 42 18 75 55 83 92 5 26 1 35 -26 57 -35 30 -32 36 5 11 23
-15 25 -15 32 1 4 12 -1 24 -16 37 -26 20 -47 22 -73 7z"/>
<path d="M5235 5317 c6 -37 3 -48 -17 -72 -30 -34 -43 -28 -52 25 -8 50 -30
53 -72 9 -30 -32 -84 -65 -84 -52 1 5 7 19 15 33 19 32 19 50 0 50 -20 0 -45
-40 -52 -83 -5 -32 -3 -37 20 -42 27 -7 80 15 110 47 19 19 19 19 35 -14 20
-39 50 -47 87 -22 64 42 77 164 17 164 -10 0 -12 -10 -7 -43z"/>
<path d="M2332 5302 c-29 -26 -50 -51 -46 -55 14 -14 41 -7 64 18 13 14 25 23
27 21 2 -2 -8 -34 -22 -71 -32 -86 -32 -105 -1 -105 17 0 34 12 53 36 27 36
27 36 41 15 16 -24 44 -28 60 -8 6 7 14 32 18 54 4 29 12 43 25 46 26 7 14 34
-17 40 -29 5 -36 -4 -44 -58 l-7 -40 -11 28 c-14 33 -35 35 -58 5 -14 -20 -16
-20 -9 -3 21 60 14 126 -14 125 -3 0 -30 -22 -59 -48z"/>
<path d="M7003 5315 c-29 -29 -34 -40 -31 -72 3 -33 8 -41 41 -57 50 -24 140
-13 145 18 4 17 -1 18 -46 12 -29 -4 -62 -2 -78 5 l-29 11 50 25 c68 35 77 49
49 77 -26 26 -63 19 -101 -19z m57 -9 c0 -2 -7 -7 -16 -10 -8 -3 -12 -2 -9 4
6 10 25 14 25 6z"/>
<path d="M7774 5316 c-16 -13 -36 -35 -43 -49 -12 -23 -11 -29 8 -56 20 -28
28 -31 75 -31 54 0 94 19 82 38 -4 7 -23 9 -51 5 -24 -3 -52 -2 -62 1 -15 6
-9 12 27 29 39 19 45 26 45 52 0 25 -4 31 -26 33 -17 2 -37 -6 -55 -22z"/>
<path d="M4786 5305 c-37 -34 -38 -75 -3 -113 18 -19 30 -22 77 -20 52 3 55 5
58 31 2 19 -1 27 -12 27 -8 0 -18 -4 -21 -10 -3 -5 -20 -10 -37 -10 l-31 0 27
26 c61 61 6 128 -58 69z m39 -34 c-3 -6 -11 -11 -17 -11 -6 0 -6 6 2 15 14 17
26 13 15 -4z"/>
<path d="M3718 5280 c-30 -30 -39 -45 -36 -67 6 -53 81 -54 136 -3 19 18 20
18 41 -11 14 -18 31 -29 46 -29 32 0 32 11 0 38 -19 17 -25 32 -25 62 0 40
-14 52 -36 30 -8 -8 -15 -6 -24 5 -22 27 -60 18 -102 -25z m80 -23 c4 -18 -62
-56 -75 -44 -9 9 48 68 62 64 5 -2 11 -11 13 -20z"/>
<path d="M6359 5291 c-33 -34 -35 -43 -13 -65 19 -20 54 -20 80 -1 28 21 34
18 28 -13 -7 -35 16 -62 52 -62 30 0 33 30 4 37 -17 5 -19 11 -14 44 7 42 -9
74 -33 65 -8 -3 -16 1 -19 9 -10 25 -53 17 -85 -14z m46 -31 c-3 -5 -11 -10
-16 -10 -6 0 -7 5 -4 10 3 6 11 10 16 10 6 0 7 -4 4 -10z"/>
<path d="M8000 5298 c-36 -25 -76 -91 -65 -108 11 -19 35 -10 41 15 8 32 60
76 80 68 11 -4 13 -14 9 -33 -8 -35 13 -51 32 -25 24 33 16 73 -17 90 -38 19
-41 19 -80 -7z"/>
<path d="M8661 5294 c-36 -30 -39 -61 -11 -97 36 -45 1 -78 -40 -37 -38 38
-66 13 -29 -27 36 -38 68 -47 92 -26 35 33 40 61 15 105 -22 39 -22 40 -3 54
22 16 35 18 35 4 0 -15 26 -12 40 5 10 12 10 18 0 30 -19 23 -65 18 -99 -11z"/>
<path d="M2655 5247 c-11 -41 -2 -72 19 -72 16 0 19 8 20 45 1 35 -3 45 -16
48 -11 2 -19 -5 -23 -21z"/>
<path d="M8916 5184 c-7 -18 0 -34 15 -34 14 0 39 26 39 39 0 17 -47 13 -54
-5z"/>
<path d="M4736 4603 c-4 -21 -28 -101 -52 -177 -49 -150 -59 -218 -34 -223 8
-1 30 20 50 48 19 27 43 55 54 61 17 9 18 7 12 -23 -20 -112 -19 -136 3 -149
17 -9 26 -9 38 1 13 12 13 14 -2 25 -13 10 -16 21 -11 46 19 99 19 131 1 145
-26 18 -30 17 -70 -18 -19 -17 -35 -28 -35 -24 0 4 18 60 39 124 46 136 54
194 30 199 -12 2 -18 -7 -23 -35z"/>
<path d="M2673 4608 c-6 -7 -34 -58 -62 -114 -65 -124 -96 -165 -110 -144 -14
21 -31 103 -31 149 0 67 -36 132 -55 101 -5 -8 -75 -312 -95 -413 -5 -27 -12
-52 -15 -57 -3 -4 2 -13 10 -20 21 -18 37 27 78 215 34 158 35 159 42 110 21
-141 76 -176 137 -87 18 26 52 83 76 127 39 73 42 77 36 40 -3 -22 -19 -95
-35 -163 -39 -165 -38 -232 2 -232 16 0 17 6 12 49 -4 36 3 83 27 182 32 129
44 226 33 255 -6 17 -37 18 -50 2z"/>
<path d="M6047 4593 c-4 -4 -5 -21 -1 -38 7 -38 -6 -90 -53 -209 -34 -89 -41
-155 -16 -163 7 -3 21 13 32 34 23 45 81 104 81 82 0 -8 -9 -34 -20 -58 -25
-55 -25 -68 1 -82 26 -14 48 3 31 23 -8 10 -6 25 9 57 22 50 24 82 7 99 -18
18 -43 15 -63 -8 -23 -25 -39 -26 -26 -1 22 40 61 176 61 210 0 45 -23 74 -43
54z"/>
<path d="M16778 4553 c-24 -25 -57 -85 -97 -173 -48 -107 -65 -137 -85 -144
-20 -8 -30 -6 -46 9 -18 16 -23 17 -30 5 -18 -28 26 -76 61 -65 18 6 20 4 14
-17 -14 -44 -75 -136 -115 -172 -70 -63 -45 -93 26 -32 45 38 102 127 129 198
l17 46 77 7 c101 8 123 13 118 28 -3 8 -31 12 -91 10 -47 0 -86 0 -86 2 0 5
106 232 117 250 10 16 14 17 22 6 5 -8 16 -11 26 -8 12 5 15 17 13 44 -4 51
-25 52 -70 6z"/>
<path d="M8136 4572 c-3 -5 -21 -52 -40 -104 -50 -140 -61 -158 -95 -158 -29
0 -57 -21 -44 -33 3 -4 17 -7 31 -7 21 0 23 -3 17 -22 -3 -13 -9 -44 -12 -70
-5 -43 -3 -48 20 -59 32 -15 67 -6 106 27 33 27 42 64 16 64 -8 0 -15 -4 -15
-9 0 -11 -62 -51 -80 -51 -14 0 -10 45 9 92 9 23 17 27 68 33 86 9 103 14 103
29 0 20 -16 23 -79 15 -30 -4 -57 -7 -58 -5 -2 2 5 23 15 47 22 51 72 197 72
210 0 11 -27 12 -34 1z"/>
<path d="M3283 4348 c-21 -112 -37 -209 -35 -215 9 -27 30 -10 87 67 32 43 62
77 66 74 5 -3 6 -32 2 -65 -6 -56 -5 -61 13 -57 32 6 41 129 12 166 -17 20
-30 14 -81 -40 -29 -31 -47 -45 -44 -33 16 53 57 288 52 296 -4 5 -12 9 -19 9
-9 0 -26 -64 -53 -202z"/>
<path d="M6798 4533 c-3 -4 -6 -25 -7 -46 -1 -20 -22 -99 -47 -174 -25 -75
-43 -143 -42 -152 6 -33 31 -15 45 32 20 69 31 66 121 -36 31 -35 51 -45 65
-31 6 7 -77 112 -100 127 -22 14 -15 24 62 82 41 31 75 62 75 70 0 18 -20 31
-29 18 -5 -8 -67 -57 -142 -112 -17 -12 -16 -7 5 57 31 91 37 165 14 170 -9 2
-18 -1 -20 -5z"/>
<path d="M15512 4518 c-7 -7 -12 -26 -12 -42 0 -17 -19 -70 -41 -118 -38 -79
-45 -87 -73 -90 -40 -4 -51 -38 -12 -38 24 0 25 -2 20 -43 -5 -33 -2 -46 10
-56 23 -19 30 -8 31 45 1 55 16 70 85 79 57 8 91 28 74 45 -8 8 -24 8 -55 1
-70 -17 -71 -16 -34 61 44 92 49 198 7 156z"/>
<path d="M10076 4513 c-3 -4 -6 -21 -6 -40 0 -18 -19 -77 -43 -130 -63 -142
-70 -161 -63 -178 7 -20 36 -19 36 2 0 9 23 68 52 132 55 124 72 204 45 214
-8 3 -18 3 -21 0z"/>
<path d="M11829 4518 c0 -2 -2 -26 -3 -54 -3 -54 -54 -214 -68 -214 -4 0 -8 4
-8 9 0 16 -38 23 -60 11 -29 -16 -80 -89 -80 -115 0 -29 30 -55 64 -55 46 0
97 61 139 166 38 97 64 211 54 238 -5 13 -35 24 -38 14z m-105 -342 c-17 -27
-47 -41 -64 -31 -15 10 -13 17 21 58 31 37 32 38 46 18 12 -18 12 -24 -3 -45z"/>
<path d="M13955 4430 c-36 -76 -40 -80 -71 -80 -20 0 -34 -6 -38 -16 -9 -24 2
-35 29 -28 23 6 24 5 15 -27 -16 -54 4 -108 45 -125 19 -8 44 -14 55 -14 34 0
20 32 -18 42 -39 10 -56 45 -44 91 7 28 14 33 60 43 80 18 86 22 72 39 -7 9
-20 14 -29 11 -9 -2 -28 -7 -43 -10 l-27 -6 28 60 c16 34 28 68 27 77 -6 38
-26 19 -61 -57z"/>
<path d="M12343 4460 c-18 -10 -45 -38 -60 -61 -24 -37 -28 -54 -31 -131 l-4
-88 -59 0 c-52 0 -59 -2 -59 -20 0 -18 7 -20 56 -20 53 0 55 -1 48 -22 -19
-64 -73 -133 -130 -168 -38 -24 -45 -50 -13 -50 50 0 189 170 189 233 0 12 8
17 28 17 16 0 31 3 35 6 12 12 -6 34 -29 34 -23 0 -24 3 -24 71 0 75 8 98 48
142 22 23 31 26 59 21 38 -7 45 12 15 39 -24 21 -30 21 -69 -3z"/>
<path d="M12584 4406 c-59 -26 -96 -80 -124 -181 -16 -56 -19 -60 -51 -65 -46
-7 -54 -40 -10 -40 17 0 31 -3 31 -6 0 -6 -63 -118 -83 -146 -9 -14 -9 -20 1
-30 18 -17 48 21 99 120 32 63 40 72 63 72 33 0 61 27 41 39 -7 5 -24 6 -38 3
-25 -5 -26 -3 -19 28 12 65 53 139 88 160 40 24 48 25 48 5 0 -20 29 -19 37 0
6 17 -23 55 -41 55 -6 -1 -25 -7 -42 -14z"/>
<path d="M12080 4385 c-15 -18 -6 -45 14 -45 13 0 26 20 26 40 0 15 -29 19
-40 5z"/>
<path d="M9720 4359 c-19 -11 -41 -28 -48 -37 -7 -9 -22 -17 -34 -17 -24 0
-35 -26 -37 -81 -1 -17 -21 -71 -44 -120 -43 -88 -48 -114 -22 -114 16 0 73
96 90 154 8 26 18 40 26 37 8 -3 34 -5 57 -5 37 -1 48 4 68 29 30 37 38 65 30
110 -6 32 -29 65 -44 65 -4 0 -23 -9 -42 -21z m44 -45 c16 -43 -20 -104 -61
-104 -41 1 -46 15 -19 58 35 56 69 76 80 46z"/>
<path d="M5253 4354 c-54 -27 -53 -74 1 -104 14 -7 26 -20 26 -27 0 -23 -30
-27 -45 -7 -10 14 -17 16 -25 8 -19 -19 -7 -48 23 -58 41 -15 81 10 85 51 3
26 -3 36 -33 59 -34 26 -36 29 -19 41 10 7 28 13 40 13 23 0 48 22 37 33 -11
12 -57 7 -90 -9z"/>
<path d="M5034 4345 c-5 -12 -15 -14 -40 -9 -29 5 -38 2 -68 -28 -44 -44 -55
-82 -31 -109 11 -11 26 -17 37 -14 10 3 27 8 38 11 14 4 18 1 15 -9 -14 -36
35 -95 65 -77 10 6 9 13 -8 35 -24 30 -22 57 10 139 19 49 18 76 -2 76 -6 0
-13 -7 -16 -15z m-33 -63 c-20 -37 -81 -74 -81 -48 0 21 47 66 70 66 17 0 19
-3 11 -18z"/>
<path d="M7155 4334 c-39 -20 -65 -44 -65 -59 0 -7 16 -20 35 -31 19 -10 37
-24 39 -31 8 -21 -5 -45 -21 -39 -8 3 -19 6 -24 6 -5 0 -14 12 -19 26 -12 32
-34 27 -38 -9 -4 -29 24 -53 74 -62 42 -9 68 14 68 60 0 29 -7 43 -28 62 -35
30 -24 46 37 52 14 2 7 29 -9 35 -19 7 -14 9 -49 -10z"/>
<path d="M2993 4316 c-58 -48 -69 -119 -23 -144 44 -23 191 1 164 27 -3 3 -38
6 -77 6 -83 0 -94 13 -53 62 21 24 30 28 60 25 28 -3 36 -1 36 11 0 19 -6 23
-46 31 -25 6 -37 2 -61 -18z"/>
<path d="M3611 4316 c-46 -34 -63 -61 -59 -94 4 -38 51 -42 101 -8 l37 25 0
-27 c0 -15 4 -32 8 -38 20 -30 106 -26 100 5 -3 11 -13 15 -36 13 l-32 -2 0
66 c0 63 -1 66 -21 61 -12 -3 -28 0 -36 9 -19 19 -24 18 -62 -10z m47 -38 c-6
-18 -57 -53 -65 -44 -5 4 5 19 20 32 30 26 51 31 45 12z"/>
<path d="M9035 4321 c-63 -38 -92 -118 -58 -160 26 -32 90 -30 183 6 80 31
125 73 101 96 -10 10 -16 7 -31 -11 -32 -39 -169 -85 -209 -71 -22 9 -21 11
25 35 79 41 108 91 65 114 -27 14 -42 13 -76 -9z m47 -33 c-6 -7 -25 -21 -44
-31 l-33 -19 33 31 c32 31 66 45 44 19z"/>
<path d="M9459 4328 c-8 -8 -31 -24 -52 -37 l-38 -23 -15 21 c-8 11 -22 21
-30 21 -19 0 -18 -34 2 -51 14 -11 10 -16 -30 -36 -46 -23 -62 -53 -28 -53 9
0 37 12 61 25 l44 26 26 -24 c41 -39 67 -49 80 -33 10 11 4 20 -28 43 -22 15
-40 30 -40 33 0 3 19 19 42 35 41 30 53 55 31 62 -7 2 -18 -2 -25 -9z"/>
<path d="M10428 4313 c-38 -41 -59 -98 -48 -128 15 -39 40 -32 40 11 0 20 10
52 22 71 20 34 23 35 65 29 31 -4 43 -2 43 7 0 45 -83 51 -122 10z"/>
<path d="M6470 4317 c-45 -35 -64 -99 -38 -125 21 -21 74 -14 106 13 38 32 47
67 26 100 -18 28 -67 34 -94 12z m70 -48 c0 -17 -40 -49 -60 -49 -24 0 -26 17
-5 46 10 15 22 20 40 17 14 -3 25 -9 25 -14z"/>
<path d="M6267 4295 c-31 -29 -36 -74 -11 -99 38 -38 94 -1 94 62 0 65 -35 80
-83 37z m39 -60 c-3 -8 -10 -15 -16 -15 -14 0 -12 37 3 43 15 5 21 -8 13 -28z"/>
<path d="M10652 4304 c-47 -33 -68 -117 -36 -148 25 -26 58 -29 125 -10 101
27 138 51 109 69 -5 3 -35 -3 -67 -13 -32 -11 -74 -23 -93 -27 -34 -7 -34 -7
10 17 51 28 59 51 35 97 -18 35 -47 40 -83 15z m56 -47 c2 -9 -9 -22 -27 -31
-16 -9 -32 -24 -34 -33 -3 -12 -5 -9 -6 8 -1 30 35 82 53 76 6 -2 12 -11 14
-20z"/>
<path d="M10204 4276 c-36 -36 -46 -90 -22 -114 20 -20 63 -14 92 13 20 19 26
33 26 68 0 75 -40 89 -96 33z m51 -50 c0 -20 -30 -45 -41 -34 -3 4 -3 19 0 33
8 31 41 31 41 1z"/>
<path d="M15739 4289 c-21 -21 -22 -52 -3 -116 6 -20 3 -23 -25 -23 -19 0 -30
5 -28 12 1 7 -8 14 -20 16 -15 2 -23 -3 -28 -19 -10 -31 17 -49 72 -49 34 0
46 5 59 25 14 22 15 31 4 69 -7 25 -9 49 -5 55 8 15 38 14 53 -1 16 -16 35 3
30 28 -5 30 -80 32 -109 3z"/>
<path d="M16311 4275 c-17 -20 -31 -44 -31 -55 0 -31 43 -53 87 -45 46 8 63
21 63 48 0 21 -57 87 -76 87 -7 0 -26 -16 -43 -35z m60 -59 c-11 -5 -28 -6
-37 -2 -16 6 -16 8 0 25 17 18 19 18 37 3 19 -17 19 -17 0 -26z"/>
<path d="M2778 4273 c-55 -59 -64 -112 -23 -139 51 -34 135 10 135 71 0 29
-21 71 -44 87 -21 14 -42 8 -68 -19z m70 -57 c5 -22 -25 -56 -50 -56 -26 0
-33 26 -15 53 18 28 60 30 65 3z"/>
<path d="M8295 4276 c-9 -13 -20 -38 -25 -55 -7 -26 -5 -36 11 -52 25 -25 54
-18 92 22 33 35 37 83 8 99 -34 17 -69 12 -86 -14z m65 -29 c0 -7 -10 -24 -22
-37 l-23 -25 -3 23 c-4 26 13 52 34 52 8 0 14 -6 14 -13z"/>
<path d="M14700 4253 c-31 -36 -43 -44 -50 -34 -16 26 -40 4 -40 -37 0 -47
-20 -107 -61 -185 -25 -48 -28 -58 -15 -63 25 -9 37 5 76 90 38 82 38 82 72
78 84 -10 169 138 106 182 -33 24 -42 20 -88 -31z m70 -23 c0 -27 -58 -90 -82
-90 -20 0 -20 1 -3 28 23 35 66 82 77 82 4 0 8 -9 8 -20z"/>
<path d="M13015 4281 c-16 -4 -40 -13 -52 -19 -26 -14 -66 -94 -61 -124 5 -34
31 -28 39 9 10 52 35 81 79 93 23 6 49 8 60 5 26 -8 37 15 15 32 -20 14 -34
15 -80 4z"/>
<path d="M12712 4265 c-30 -21 -52 -67 -46 -93 11 -41 144 -67 152 -29 3 14
-4 17 -32 17 -39 0 -48 15 -16 25 24 7 37 51 23 74 -14 22 -53 25 -81 6z m48
-34 c0 -5 -7 -12 -16 -15 -24 -9 -28 -7 -14 9 14 17 30 20 30 6z"/>
<path d="M13512 4260 c-36 -22 -68 -79 -59 -104 4 -9 16 -16 28 -16 17 0 20 4
15 24 -5 19 1 30 25 50 36 31 85 36 74 9 -17 -41 -17 -53 -2 -53 19 0 47 37
47 62 0 47 -70 63 -128 28z"/>
<path d="M15173 4265 c-35 -15 -53 -57 -36 -83 12 -21 25 -24 43 -12 12 8 13
13 3 29 -11 18 -10 22 8 31 11 6 30 11 42 10 37 -3 47 -1 47 14 0 28 -55 34
-107 11z"/>
<path d="M13209 4255 c-31 -17 -59 -57 -59 -84 0 -30 38 -51 93 -51 54 0 87
13 87 36 0 12 -10 14 -52 8 -51 -6 -52 -6 -30 11 22 16 28 48 16 79 -7 19 -21
20 -55 1z"/>
<path d="M14920 4234 c-45 -40 -57 -68 -40 -89 14 -17 63 -20 91 -5 16 9 19 7
19 -9 0 -18 18 -31 42 -31 6 0 8 13 4 33 -4 23 0 44 15 71 11 21 18 45 15 52
-7 17 -36 19 -36 2 0 -9 -3 -9 -12 0 -21 21 -57 13 -98 -24z m73 -18 c6 -16
-58 -55 -70 -42 -4 4 6 19 22 32 35 28 41 29 48 10z"/>
<path d="M11970 4188 c-26 -28 -23 -63 5 -63 12 0 20 7 20 17 0 10 6 23 13 30
6 6 12 18 12 25 0 20 -27 15 -50 -9z"/>
<path d="M11057 4063 c-4 -3 -7 -15 -7 -25 0 -10 -38 -96 -85 -189 -47 -94
-85 -176 -85 -183 0 -8 7 -19 15 -26 11 -9 24 -3 66 37 32 29 50 40 45 28 -17
-45 -18 -81 -2 -94 20 -17 30 -8 33 27 1 15 5 48 8 73 9 58 -3 67 -54 42 l-39
-19 69 139 c67 134 84 197 56 197 -8 0 -17 -3 -20 -7z"/>
<path d="M3474 4032 c-6 -4 -18 -36 -26 -72 -9 -36 -24 -82 -32 -102 -15 -36
-19 -38 -62 -38 -38 0 -45 -3 -42 -17 2 -12 14 -19 35 -21 l32 -3 -20 -51
c-23 -58 -22 -113 1 -113 9 0 17 15 22 42 4 24 16 62 26 86 15 35 26 45 50 50
17 4 47 13 68 22 30 12 34 18 25 29 -11 13 -19 13 -57 1 -42 -12 -45 -12 -38
3 39 92 50 206 18 184z"/>
<path d="M13852 4008 c-7 -7 -12 -18 -12 -25 0 -8 -23 -63 -51 -122 -53 -113
-67 -127 -116 -115 -18 5 -23 2 -23 -15 0 -22 27 -41 49 -33 11 4 12 -2 6 -24
-24 -87 6 -110 34 -26 10 29 21 55 24 58 3 3 24 8 46 11 32 4 41 10 41 25 0
17 -5 20 -33 16 l-34 -4 49 103 c46 97 58 146 40 157 -5 3 -14 0 -20 -6z"/>
<path d="M8826 3998 c-2 -7 -11 -48 -21 -91 -9 -43 -22 -80 -29 -82 -6 -2 -24
-6 -39 -10 -38 -8 -33 -41 5 -38 l27 2 -15 -41 c-8 -22 -14 -56 -14 -75 0 -27
4 -34 18 -31 9 2 18 14 20 28 2 14 10 46 18 71 14 43 17 46 62 55 31 6 47 14
47 24 0 11 -10 14 -41 12 l-41 -2 18 67 c23 84 25 123 4 123 -9 0 -17 -6 -19
-12z"/>
<path d="M8987 3933 c-10 -31 -34 -92 -53 -136 -36 -82 -47 -137 -28 -144 6
-2 32 18 57 44 25 26 49 45 52 41 4 -4 2 -23 -5 -43 -9 -28 -9 -39 1 -51 26
-32 38 -7 42 96 2 31 -1 35 -25 38 -15 2 -37 -2 -48 -8 -21 -11 -21 -11 -4 22
25 48 63 170 57 185 -11 28 -30 10 -46 -44z"/>
<path d="M11556 3957 c-8 -12 -38 -78 -66 -145 -57 -137 -62 -185 -22 -190 21
-3 23 -1 17 30 -6 34 25 121 91 255 24 48 25 73 4 73 -5 0 -16 -10 -24 -23z"/>
<path d="M15182 3968 c-7 -7 -12 -18 -12 -26 0 -40 -82 -194 -165 -309 -14
-20 29 -53 70 -53 46 0 93 19 100 40 6 19 -12 70 -30 82 -5 4 -16 6 -22 3 -18
-6 -18 -6 32 94 50 99 62 141 48 165 -7 13 -12 13 -21 4z m-49 -322 c6 -16
-13 -26 -49 -26 -32 0 -30 16 4 28 37 14 39 14 45 -2z"/>
<path d="M6155 3952 c-5 -4 -11 -32 -11 -63 -1 -37 -12 -79 -33 -128 -40 -95
-41 -143 -2 -182 42 -42 79 -37 139 19 74 70 1 179 -89 132 -24 -13 -24 -13 1
42 26 60 36 148 18 170 -7 10 -17 14 -23 10z m73 -264 c21 -21 13 -46 -21 -72
-41 -31 -49 -32 -72 -6 -17 19 -17 21 1 43 41 49 68 59 92 35z"/>
<path d="M6873 3895 c-23 -25 -60 -81 -80 -125 -27 -56 -44 -81 -60 -85 -30
-7 -50 -43 -28 -51 8 -4 22 -1 30 6 13 11 13 8 1 -27 -7 -21 -30 -72 -51 -112
-24 -48 -33 -77 -27 -83 6 -6 15 -7 21 -3 15 9 79 137 101 200 18 53 32 62
101 64 42 1 72 27 45 37 -9 4 -39 4 -66 2 -28 -3 -50 -3 -50 -1 0 10 46 93 73
130 37 52 54 59 82 33 27 -25 45 -26 45 -1 0 24 -45 61 -73 61 -11 0 -40 -20
-64 -45z"/>
<path d="M3163 3914 c-8 -20 9 -36 30 -28 21 8 22 30 1 38 -22 8 -24 8 -31
-10z"/>
<path d="M15882 3884 c-54 -27 -96 -75 -125 -146 -11 -27 -23 -38 -45 -43 -39
-8 -61 -32 -38 -41 9 -3 25 -4 36 -1 18 5 18 2 -5 -42 -34 -68 -77 -111 -104
-104 -15 4 -21 1 -21 -10 0 -23 36 -40 59 -28 31 17 83 83 108 138 26 57 30
59 118 68 98 10 105 13 105 40 0 25 -18 33 -35 16 -6 -5 -41 -12 -79 -16 -78
-9 -78 -9 -31 65 29 47 108 102 104 73 -4 -25 3 -43 16 -43 8 0 15 3 16 8 0 4
3 20 5 35 5 27 -9 57 -25 57 -4 0 -31 -12 -59 -26z"/>
<path d="M13536 3881 c-3 -4 1 -17 9 -27 10 -15 16 -16 26 -7 6 6 9 19 6 27
-7 17 -32 22 -41 7z"/>
<path d="M2600 3843 c-39 -12 -63 -30 -76 -55 -19 -37 -18 -50 12 -94 28 -40
26 -56 -12 -80 -12 -9 -24 -10 -34 -4 -13 8 -11 12 8 26 29 20 15 39 -22 30
-54 -13 -54 -76 0 -96 48 -18 124 35 124 87 0 9 -12 34 -26 54 -21 31 -24 41
-14 59 15 29 56 43 82 29 15 -8 23 -8 32 1 8 9 5 16 -13 31 -24 19 -34 21 -61
12z"/>
<path d="M12919 3827 c-33 -23 -34 -24 -35 -98 0 -41 -1 -79 -2 -85 -3 -15
-47 -34 -79 -34 -26 0 -26 1 -7 14 15 12 16 17 7 27 -18 18 -63 -4 -63 -30 0
-75 151 -62 180 15 6 14 7 54 4 88 -6 60 -6 62 21 74 23 11 30 10 45 -3 19
-17 30 -11 30 16 0 19 -28 39 -53 39 -8 0 -29 -10 -48 -23z"/>
<path d="M13142 3747 c-56 -57 -100 -106 -96 -110 15 -15 41 -6 69 23 22 22
32 27 42 19 16 -14 58 -4 93 21 l26 18 -4 -33 c-4 -30 -1 -35 22 -41 34 -8 44
1 28 27 -10 16 -9 25 3 50 20 37 16 73 -7 77 -9 2 -37 -15 -61 -37 -24 -23
-47 -41 -51 -41 -4 0 8 21 27 48 44 61 52 82 29 82 -10 0 -64 -46 -120 -103z"/>
<path d="M10779 3813 c-32 -80 -54 -125 -70 -139 -15 -14 -18 -13 -27 15 -6
17 -18 31 -26 31 -10 0 -16 12 -18 38 -4 49 -34 55 -86 14 -20 -16 -56 -41
-80 -56 -40 -25 -50 -45 -25 -53 6 -2 41 17 78 42 37 25 69 45 71 45 10 0 2
-44 -12 -71 -28 -55 8 -83 41 -32 l18 26 14 -26 c19 -38 55 -36 87 6 34 45 87
159 82 174 -9 23 -36 14 -47 -14z"/>
<path d="M3921 3804 c-40 -34 -39 -57 4 -84 46 -28 65 -48 65 -66 0 -18 -37
-18 -70 1 -35 20 -60 19 -60 -3 0 -21 66 -52 110 -52 36 0 65 38 56 74 -3 13
-24 39 -46 56 -32 26 -38 35 -29 46 13 16 45 19 54 4 9 -15 35 -12 35 3 0 22
-34 47 -63 47 -14 0 -39 -12 -56 -26z"/>
<path d="M9196 3788 c-33 -32 -45 -54 -51 -86 -9 -53 7 -95 41 -111 31 -14 64
-6 131 31 62 35 81 54 65 70 -8 8 -25 2 -63 -22 -72 -44 -96 -52 -120 -40 -38
21 -14 90 31 90 47 0 70 79 30 100 -18 10 -27 5 -64 -32z"/>
<path d="M2785 3748 c-26 -40 -60 -83 -76 -96 -33 -26 -36 -40 -13 -49 9 -3
27 6 45 23 16 15 29 22 29 16 0 -22 39 -12 75 19 25 22 35 27 35 16 0 -41 82
-65 110 -32 19 23 2 36 -36 29 l-35 -6 7 40 c3 22 2 48 -4 58 -9 16 -13 15
-44 -20 -18 -21 -42 -42 -52 -48 -16 -9 -14 -1 11 43 16 30 28 60 26 67 -10
26 -32 9 -78 -60z"/>
<path d="M3103 3808 c-16 -20 -33 -78 -33 -109 0 -22 5 -29 20 -29 13 0 20 7
20 20 0 11 5 40 12 65 8 31 9 48 2 55 -8 8 -14 7 -21 -2z"/>
<path d="M6488 3785 c-134 -91 -79 -224 72 -172 19 7 35 19 35 27 0 16 -6 16
-86 4 -52 -7 -81 12 -32 22 38 8 107 56 111 78 4 19 -34 66 -52 66 -6 0 -28
-11 -48 -25z m34 -55 c-55 -33 -67 -31 -28 6 29 28 40 33 47 23 5 -9 -1 -18
-19 -29z"/>
<path d="M11712 3784 c-60 -48 -80 -120 -44 -164 13 -16 32 -24 68 -27 65 -5
148 17 153 42 3 16 -2 17 -40 11 -111 -18 -129 -18 -144 -6 -22 18 -18 28 13
35 37 8 102 62 102 84 0 23 -31 51 -56 51 -10 0 -34 -12 -52 -26z m68 -23 c0
-10 -34 -34 -65 -45 -16 -6 -14 -1 9 23 29 30 56 41 56 22z"/>
<path d="M3576 3761 c-45 -46 -49 -75 -16 -120 33 -48 75 -66 120 -52 61 18
142 111 97 111 -8 0 -24 -12 -38 -26 -51 -55 -98 -64 -133 -25 -16 17 -14 20
23 44 51 34 61 64 31 89 -31 25 -41 23 -84 -21z m49 -20 c-3 -6 -11 -11 -17
-11 -6 0 -6 6 2 15 14 17 26 13 15 -4z"/>
<path d="M13992 3780 c-18 -11 -40 -36 -49 -55 -9 -19 -20 -35 -25 -35 -18 0
32 -77 57 -88 42 -19 66 -15 163 33 71 34 92 49 92 65 0 11 -3 20 -6 20 -3 0
-47 -20 -96 -45 -97 -49 -114 -52 -143 -31 -17 12 -16 15 26 33 55 24 71 43
72 85 2 30 -1 33 -28 36 -17 1 -44 -6 -63 -18z m52 -34 c-5 -14 -53 -40 -61
-33 -5 6 46 47 58 47 5 0 6 -6 3 -14z"/>
<path d="M16513 3754 c-39 -40 -43 -49 -38 -77 12 -55 33 -70 90 -64 77 8 159
39 163 61 4 21 3 21 -109 -10 -37 -10 -73 -14 -84 -10 -17 6 -12 10 25 27 104
47 123 119 31 119 -28 0 -43 -9 -78 -46z m87 -5 c-8 -5 -28 -17 -45 -26 l-30
-16 24 27 c14 14 34 26 45 26 18 0 18 -2 6 -11z"/>
<path d="M7490 3752 c-29 -29 -40 -48 -40 -70 0 -82 62 -119 145 -88 54 21 81
44 66 59 -7 7 -26 3 -60 -12 -50 -21 -101 -21 -101 2 0 5 18 26 41 45 45 38
48 65 12 90 -22 14 -25 12 -63 -26z m50 -11 c0 -5 -12 -17 -27 -26 l-28 -18
24 27 c26 28 31 31 31 17z"/>
<path d="M4822 3762 c4 -20 40 -29 130 -31 63 -1 92 10 72 29 -5 4 -53 10
-107 13 -90 6 -98 5 -95 -11z"/>
<path d="M5350 3770 c0 -8 -28 -11 -87 -10 -123 2 -115 3 -103 -20 10 -18 21
-20 113 -20 112 0 139 9 121 37 -13 21 -44 30 -44 13z"/>
<path d="M7239 3767 c-31 -16 -60 -73 -57 -112 4 -37 32 -41 36 -5 9 76 52
107 73 53 9 -24 11 -25 25 -11 37 36 -28 99 -77 75z"/>
<path d="M13477 3766 c-21 -21 -32 -75 -18 -89 15 -15 27 -1 39 44 12 45 2 67
-21 45z"/>
<path d="M11183 3758 c-18 -22 -25 -88 -12 -104 18 -22 64 -17 98 12 37 31 39
53 8 82 -26 24 -79 29 -94 10z m71 -37 c7 -10 -29 -44 -42 -40 -15 6 5 49 22
49 8 0 17 -4 20 -9z"/>
<path d="M15402 3739 c-75 -38 -106 -111 -60 -143 31 -22 131 -21 153 0 17 17
17 64 0 66 -5 0 -14 -9 -20 -21 -8 -17 -18 -21 -60 -20 l-50 1 35 15 c85 37
109 73 72 106 -23 21 -19 21 -70 -4z m33 -35 c-28 -21 -55 -36 -55 -29 0 6 62
45 70 45 3 -1 -4 -8 -15 -16z"/>
<path d="M16246 3716 c-21 -25 -36 -54 -36 -70 0 -35 27 -34 42 2 25 57 75 91
93 62 9 -15 45 -12 45 4 0 20 -45 46 -79 46 -23 0 -38 -10 -65 -44z"/>
<path d="M6988 3718 c-23 -28 -24 -94 -2 -106 19 -11 78 0 99 18 8 7 15 25 15
41 0 61 -76 92 -112 47z m67 -44 c0 -12 -8 -20 -22 -22 -25 -4 -30 11 -10 33
16 19 32 13 32 -11z"/>
<path d="M16097 3728 c-2 -7 0 -21 5 -31 13 -25 -7 -47 -41 -47 l-26 0 29 23
c17 14 26 29 22 35 -11 19 -32 14 -65 -14 -53 -45 -36 -84 36 -84 33 0 50 6
68 25 28 27 30 42 13 80 -12 27 -33 33 -41 13z"/>
<path d="M14503 3633 c-7 -3 -13 -13 -13 -23 0 -11 -27 -48 -60 -83 -58 -62
-75 -97 -47 -97 14 0 80 66 120 121 36 49 36 95 0 82z"/>
<path d="M3250 3487 c0 -18 -18 -93 -40 -167 -22 -73 -37 -136 -34 -141 10
-17 38 -9 66 18 l28 27 0 -26 c0 -52 49 -71 119 -47 17 6 31 18 31 26 0 13
-10 14 -56 8 l-56 -7 6 39 c5 26 2 44 -8 58 -14 20 -15 20 -47 -4 -28 -21 -31
-22 -25 -5 4 10 19 58 32 106 28 96 28 141 2 146 -14 3 -18 -4 -18 -31z"/>
<path d="M9757 3503 c-4 -3 -7 -23 -7 -44 0 -73 -85 -270 -135 -311 -25 -22
-55 -23 -55 -3 0 20 45 65 65 65 8 0 15 9 15 20 0 27 -26 26 -67 -2 -38 -27
-58 -67 -49 -103 13 -49 92 -41 139 15 64 76 148 310 126 351 -10 20 -21 24
-32 12z"/>
<path d="M10025 3474 c-20 -109 -97 -245 -159 -283 -33 -21 -67 -28 -65 -13 3
30 19 47 45 47 38 0 39 26 2 39 -23 8 -32 6 -53 -14 -29 -28 -43 -84 -25 -105
17 -20 69 -19 100 1 67 45 110 100 149 188 45 102 56 168 30 174 -12 2 -18 -7
-24 -34z"/>
<path d="M10556 3498 c-2 -7 -7 -26 -11 -43 -12 -57 -97 -215 -115 -215 -10 0
-23 -7 -30 -16 -11 -13 -10 -16 7 -20 18 -5 20 -10 12 -37 -7 -24 -5 -35 6
-46 12 -13 15 -12 21 5 31 86 28 84 84 77 47 -5 52 -4 48 13 -2 13 -13 20 -33
22 -17 2 -33 7 -37 11 -5 4 10 44 33 90 41 85 56 160 32 168 -7 3 -15 -1 -17
-9z"/>
<path d="M11915 3443 c-40 -142 -45 -154 -75 -160 -29 -5 -45 -27 -34 -45 3
-5 15 -7 26 -5 15 4 18 2 12 -11 -20 -49 -28 -92 -17 -103 14 -14 33 -3 33 19
0 9 10 40 22 69 20 50 24 53 55 51 18 -1 36 1 40 6 10 10 -25 36 -48 36 -16 0
-16 4 3 57 23 67 28 134 11 140 -7 3 -18 -18 -28 -54z"/>
<path d="M12113 3493 c-7 -3 -13 -10 -13 -18 0 -7 -29 -85 -65 -173 -36 -89
-65 -170 -65 -181 0 -39 30 -32 81 20 49 50 58 48 38 -9 -13 -37 2 -72 31 -72
21 0 27 19 10 36 -7 7 -7 20 1 41 30 88 -15 133 -71 73 -17 -18 -30 -30 -30
-27 0 4 20 52 44 109 62 147 70 172 60 190 -5 8 -15 13 -21 11z"/>
<path d="M4925 3393 c-46 -98 -65 -157 -65 -209 0 -34 5 -45 28 -60 38 -26
154 -27 179 -2 26 27 6 39 -44 25 -28 -7 -54 -8 -80 -1 -35 8 -38 12 -41 46
l-3 37 93 3 c75 2 93 6 93 18 0 12 -17 16 -82 18 -46 2 -83 7 -83 13 0 5 18
46 40 90 23 44 38 84 35 89 -15 24 -36 4 -70 -67z"/>
<path d="M4116 3433 c-3 -4 -6 -25 -6 -48 0 -23 -7 -65 -15 -93 -15 -49 -18
-52 -50 -52 -43 0 -65 -9 -65 -26 0 -15 9 -17 54 -14 24 2 28 -1 21 -17 -4
-10 -10 -40 -13 -66 -4 -44 -3 -49 14 -45 13 2 21 16 26 45 12 71 22 83 76 83
26 0 53 4 61 9 25 16 1 31 -49 31 l-48 0 14 47 c18 61 18 139 0 146 -8 3 -17
3 -20 0z"/>
<path d="M6085 3428 c-2 -7 -6 -42 -10 -78 -5 -50 -11 -69 -28 -82 -18 -14
-20 -19 -9 -29 6 -7 12 -26 12 -42 0 -37 17 -68 34 -61 10 4 14 20 13 52 l-2
47 43 3 c61 5 54 42 -9 42 -18 0 -19 5 -13 80 6 71 5 80 -10 80 -9 0 -18 -6
-21 -12z"/>
<path d="M15860 3378 c-17 -35 -33 -78 -36 -95 -6 -31 -9 -33 -49 -33 -36 0
-44 -4 -49 -22 -7 -28 9 -47 26 -30 7 7 21 12 31 12 16 0 18 -5 13 -27 -28
-130 -29 -143 -1 -143 7 0 16 15 20 33 3 17 11 55 17 83 l11 51 44 -10 c30 -6
48 -6 55 1 17 17 0 30 -47 37 l-44 7 24 65 c12 35 31 70 40 77 21 15 16 50 -8
54 -13 3 -25 -13 -47 -60z"/>
<path d="M8095 3411 c-5 -17 -19 -20 -113 -26 -148 -9 -147 -8 -147 -25 0 -13
19 -15 118 -13 64 1 117 -1 117 -5 0 -4 -12 -40 -25 -81 l-26 -75 21 -20 c17
-17 22 -19 29 -7 5 8 7 20 4 28 -3 7 5 45 18 84 28 86 42 94 146 85 48 -5 74
-3 78 5 14 21 -13 30 -91 32 -62 2 -82 6 -92 20 -17 22 -29 22 -37 -2z"/>
<path d="M17149 3411 c-26 -21 -18 -45 12 -36 41 13 119 -64 119 -116 0 -35
-35 -99 -86 -157 -29 -33 -44 -58 -40 -68 9 -24 27 -13 80 52 82 100 104 171
71 233 -16 32 -63 74 -105 96 -25 13 -31 13 -51 -4z"/>
<path d="M16775 3386 c-42 -25 -78 -79 -90 -133 -11 -52 10 -106 59 -151 49
-45 82 -55 166 -50 43 2 56 7 58 21 3 15 -5 17 -63 17 -106 0 -166 39 -181
115 -13 72 66 173 125 158 20 -5 22 -2 19 18 -4 33 -43 35 -93 5z"/>
<path d="M15627 3380 c-67 -20 -145 -110 -167 -192 -8 -30 -16 -37 -38 -40
-33 -4 -37 -32 -4 -36 25 -4 26 -9 11 -71 -12 -53 -43 -99 -75 -111 -27 -11
-31 -28 -8 -37 45 -17 106 58 125 155 8 44 16 62 28 63 9 1 28 2 43 3 33 2 42
10 35 29 -4 10 -18 13 -45 11 -40 -3 -40 -3 -32 24 20 72 71 135 127 158 41
18 40 18 46 -6 3 -11 12 -20 21 -20 21 0 21 43 0 64 -17 18 -26 18 -67 6z"/>
<path d="M4652 3314 c-30 -21 -29 -64 3 -94 23 -22 24 -25 8 -42 -18 -20 -59
-24 -65 -6 -3 7 -12 9 -22 5 -17 -7 -17 -9 -3 -30 22 -34 76 -35 116 -2 38 32
39 54 5 94 -32 38 -23 55 22 46 29 -5 34 -3 34 13 0 34 -59 44 -98 16z"/>
<path d="M10190 3312 c0 -10 3 -22 7 -25 10 -11 32 13 26 29 -8 20 -33 17 -33
-4z"/>
<path d="M10720 3311 c0 -22 37 -38 52 -23 6 6 3 15 -7 26 -22 22 -45 20 -45
-3z"/>
<path d="M13820 3316 c-52 -14 -70 -40 -70 -104 0 -36 3 -43 18 -40 12 2 18
16 22 48 5 41 8 46 40 57 19 7 47 10 63 7 22 -5 27 -2 27 14 0 33 -26 38 -100
18z"/>
<path d="M2430 3294 c-51 -43 -89 -106 -83 -137 12 -61 85 -74 171 -31 58 29
83 60 57 70 -9 4 -24 -1 -33 -9 -26 -23 -87 -47 -119 -46 l-28 0 24 17 c38 26
101 92 101 105 0 19 -30 57 -45 57 -7 0 -27 -12 -45 -26z m20 -59 c-19 -19
-38 -35 -44 -35 -5 0 5 16 24 35 19 19 38 35 44 35 5 0 -5 -16 -24 -35z"/>
<path d="M13585 3306 c-44 -19 -95 -65 -95 -86 0 -25 24 -42 57 -38 23 2 30
-2 39 -27 9 -26 16 -30 50 -30 29 0 40 4 42 18 3 13 -3 17 -28 17 -30 0 -31 1
-25 33 4 17 16 41 26 53 23 25 24 38 3 58 -19 19 -29 19 -69 2z m9 -56 c-40
-30 -60 -38 -48 -19 8 13 65 49 78 49 5 0 -8 -13 -30 -30z"/>
<path d="M2974 3300 c-25 -10 -84 -76 -84 -94 0 -54 91 -82 148 -47 17 12 32
25 32 31 0 13 -33 13 -65 -2 -19 -8 -31 -8 -51 1 l-27 12 24 25 c13 15 34 30
47 35 24 9 30 34 10 42 -7 2 -22 1 -34 -3z"/>
<path d="M4365 3299 c-11 -6 -32 -27 -47 -46 -56 -73 -22 -154 64 -152 56 0
113 20 113 39 0 15 -4 16 -82 4 -23 -4 -49 -4 -57 -1 -20 8 -10 34 15 42 31
10 79 55 79 75 0 19 -35 51 -55 49 -5 0 -19 -5 -30 -10z m35 -38 c0 -11 -40
-41 -54 -41 -5 0 1 11 14 25 24 26 40 32 40 16z"/>
<path d="M13995 3268 c-75 -76 -73 -136 8 -178 l47 -25 66 35 c75 40 92 56 77
71 -8 8 -30 0 -76 -26 -64 -35 -67 -36 -97 -20 -17 9 -34 23 -37 31 -9 23 17
73 51 97 l31 22 -22 -29 c-46 -58 -17 -77 38 -25 28 26 31 34 23 57 -16 46
-57 42 -109 -10z"/>
<path d="M5721 3272 c-16 -16 -35 -48 -41 -72 -10 -38 -9 -46 8 -69 10 -14 34
-29 53 -33 39 -8 115 4 132 21 20 20 -10 29 -60 20 -72 -14 -132 26 -65 43 15
4 43 23 62 43 30 31 32 37 20 49 -8 8 -30 17 -47 21 -28 6 -37 2 -62 -23z m59
-22 c0 -5 -2 -10 -4 -10 -2 0 -12 -3 -20 -6 -12 -5 -15 -2 -10 10 7 17 34 22
34 6z"/>
<path d="M12765 3271 c-53 -38 -72 -73 -59 -109 13 -38 49 -54 107 -48 72 8
101 25 105 64 4 39 -23 45 -38 8 -7 -20 -19 -26 -56 -32 -79 -12 -105 22 -33
43 68 20 98 60 67 91 -19 19 -50 13 -93 -17z"/>
<path d="M2677 3245 c-42 -43 -51 -70 -30 -91 16 -16 42 -12 81 13 13 8 26 12
30 9 3 -3 3 -6 -1 -6 -3 0 -1 -13 4 -30 13 -36 45 -48 68 -26 15 15 14 17 -8
23 -22 6 -23 10 -19 65 4 56 3 60 -19 69 -44 17 -71 10 -106 -26z m44 -37
c-34 -26 -48 -22 -21 7 12 13 27 22 33 18 6 -4 1 -14 -12 -25z"/>
<path d="M12544 3265 c-44 -30 -59 -126 -21 -133 13 -3 17 4 17 30 0 18 7 44
16 57 14 20 22 22 60 16 34 -5 44 -3 44 7 0 37 -75 52 -116 23z"/>
<path d="M6340 3256 c-34 -19 -70 -70 -70 -99 0 -40 33 -61 96 -59 62 2 74 6
74 29 0 11 -11 14 -47 13 -74 -4 -83 -2 -83 19 0 29 56 72 85 65 27 -7 42 11
25 31 -15 18 -47 19 -80 1z"/>
<path d="M9312 3253 c-35 -17 -72 -57 -72 -79 0 -7 10 -20 22 -28 18 -13 26
-13 53 -1 l33 13 15 -40 c15 -37 18 -39 54 -36 45 4 54 31 11 36 -32 4 -43 29
-34 77 5 27 2 39 -14 55 -24 24 -26 24 -68 3z m28 -53 c-34 -27 -59 -27 -35 0
10 11 28 20 39 20 20 0 20 -1 -4 -20z"/>
<path d="M11134 3251 c-18 -11 -35 -24 -38 -29 -3 -6 -14 -8 -24 -6 -12 4 -22
-6 -34 -37 -10 -23 -15 -45 -12 -50 9 -16 31 -10 40 11 5 10 31 35 59 54 53
38 70 34 52 -15 -9 -24 -8 -32 5 -46 14 -14 18 -14 22 -2 2 8 8 28 13 44 6 17
6 44 1 63 -10 38 -36 42 -84 13z"/>
<path d="M12278 3226 c-40 -36 -48 -49 -48 -79 0 -55 31 -71 121 -65 47 4 76
11 87 22 23 23 0 38 -38 24 -42 -14 -124 -6 -128 12 -2 11 11 19 42 28 53 14
70 37 53 73 -19 36 -37 33 -89 -15z"/>
<path d="M8463 3240 c-20 -12 -35 -15 -39 -9 -8 14 -34 -9 -34 -31 0 -10 -11
-32 -25 -48 -30 -36 -32 -62 -5 -62 11 0 31 18 50 45 36 52 70 76 70 49 0 -10
-7 -25 -16 -35 -19 -22 -3 -59 25 -59 17 0 20 11 26 74 7 70 3 96 -13 96 -4 0
-21 -9 -39 -20z"/>
<path d="M10822 3236 c-55 -77 -49 -126 17 -126 23 0 51 9 72 23 28 19 34 29
32 56 0 18 -4 35 -7 39 -12 12 -106 19 -114 8z m88 -48 c0 -18 -33 -37 -64
-38 -27 0 -28 1 -14 22 22 33 78 44 78 16z"/>
<path d="M16018 3217 c-53 -41 -60 -72 -22 -116 34 -41 74 -61 119 -61 29 0
36 3 33 17 -2 11 -16 20 -38 23 -38 7 -85 34 -93 54 -4 9 2 12 16 9 30 -6 91
37 95 66 8 50 -49 54 -110 8z m62 -12 c0 -2 -10 -9 -22 -15 -22 -11 -22 -10
-4 4 21 17 26 19 26 11z"/>
<path d="M16268 3215 c-50 -28 -59 -133 -10 -123 17 4 18 10 7 40 -11 27 29
58 74 58 22 0 43 -4 46 -10 3 -5 13 -10 21 -10 17 0 19 31 2 48 -17 17 -107
14 -140 -3z"/>
<path d="M15138 3198 c-44 -25 -71 -73 -57 -100 15 -27 81 -27 112 -1 16 15
17 14 17 -6 0 -33 18 -61 40 -61 26 0 36 21 17 35 -10 7 -17 30 -19 66 -2 30
-7 53 -13 53 -5 -1 -16 7 -23 17 -17 24 -28 24 -74 -3z m45 -42 c-6 -27 -48
-52 -59 -34 -4 6 6 21 22 35 37 29 42 29 37 -1z"/>
<path d="M10614 3185 c-19 -29 -10 -68 14 -63 10 2 17 10 17 18 1 8 6 25 13
36 21 40 -18 48 -44 9z"/>
<path d="M10089 3178 c-34 -29 -42 -47 -29 -63 19 -22 27 -19 46 21 19 39 9
63 -17 42z"/>
<path d="M6596 3133 c-9 -24 9 -39 29 -23 8 7 15 19 15 26 0 20 -37 17 -44 -3z"/>
<path d="M8025 3129 c-148 -22 -172 -23 -209 -4 -17 9 -33 12 -38 7 -17 -17 5
-42 46 -53 40 -11 74 -8 356 30 31 4 46 11 48 24 4 22 -40 21 -203 -4z"/>
<path d="M5304 3075 c-3 -8 -3 -18 0 -23 3 -5 -3 -17 -14 -27 -25 -23 -26 -45
-2 -45 24 0 62 41 62 66 0 35 -35 58 -46 29z"/>
<path d="M14687 3014 c-4 -4 -7 -18 -7 -30 0 -24 -107 -275 -136 -319 -15 -23
-15 -27 0 -49 42 -66 166 -34 201 51 22 51 19 80 -9 98 -22 15 -28 15 -62 0
-20 -8 -38 -14 -40 -13 -1 2 16 44 39 93 24 53 41 106 41 129 1 37 -12 55 -27
40z m29 -306 c-12 -59 -63 -95 -119 -82 l-30 6 39 35 c44 39 95 73 108 73 5 0
6 -14 2 -32z"/>
<path d="M6946 2983 c-15 -15 -4 -44 22 -57 47 -24 65 -52 65 -99 0 -55 -36
-123 -83 -155 -38 -26 -45 -45 -17 -50 25 -5 84 42 106 86 52 101 46 176 -16
230 -46 40 -68 53 -77 45z"/>
<path d="M7841 2923 c-6 -27 -16 -79 -21 -118 -6 -38 -18 -96 -26 -128 -25
-96 -3 -102 74 -20 l53 58 -7 -72 c-6 -64 -5 -72 13 -81 26 -14 51 1 35 21 -8
10 -10 41 -5 106 5 84 5 91 -12 91 -10 0 -38 -21 -63 -47 -43 -46 -44 -47 -37
-18 4 17 13 70 20 119 7 48 18 93 23 98 15 15 3 38 -18 38 -13 0 -21 -13 -29
-47z"/>
<path d="M16747 2943 c-4 -3 -7 -18 -7 -33 0 -22 -29 -119 -55 -181 -3 -9 -19
-19 -35 -22 -16 -4 -44 -20 -64 -38 -55 -48 -45 -99 19 -99 46 0 76 40 123
160 55 144 66 188 51 206 -13 15 -22 18 -32 7z m-104 -303 c-10 -18 -25 -30
-38 -30 -17 1 -16 4 13 30 41 38 48 38 25 0z"/>
<path d="M2932 2928 c-17 -17 -15 -83 3 -98 23 -19 36 -2 29 36 -5 26 -2 35
10 40 9 3 16 12 16 20 0 17 -41 19 -58 2z"/>
<path d="M6128 2873 c-3 -37 -16 -99 -28 -136 -20 -63 -21 -70 -6 -85 14 -14
20 -12 65 26 47 40 49 41 55 19 3 -12 6 -32 6 -44 0 -24 35 -50 44 -34 6 10
-17 121 -29 140 -10 18 -28 13 -67 -19 l-36 -30 20 62 c23 75 21 161 -3 166
-13 2 -17 -10 -21 -65z"/>
<path d="M11971 2918 c-31 -81 -95 -228 -112 -256 -42 -71 -18 -81 53 -21 27
23 51 39 54 36 3 -2 -1 -25 -8 -51 -10 -39 -10 -49 1 -56 23 -14 40 0 41 33 6
120 -5 149 -47 121 l-23 -14 19 47 c11 27 29 71 41 100 22 51 22 83 0 83 -6 0
-14 -10 -19 -22z"/>
<path d="M14157 2934 c-4 -4 -7 -15 -7 -25 0 -10 -29 -78 -65 -151 -72 -144
-80 -190 -38 -196 20 -3 22 0 17 25 -4 21 10 59 59 159 69 139 83 186 57 192
-9 1 -19 0 -23 -4z"/>
<path d="M4131 2898 c-41 -42 -67 -130 -81 -273 -5 -61 -15 -126 -20 -145 -14
-49 -12 -70 5 -70 17 0 41 75 51 160 6 57 7 59 38 62 44 4 50 38 7 38 -28 0
-31 3 -31 33 0 47 23 119 50 157 19 26 27 30 50 25 35 -8 51 12 25 32 -30 21
-60 15 -94 -19z"/>
<path d="M5403 2897 c-9 -9 -14 -20 -11 -23 3 -3 -3 -37 -13 -77 -27 -103 -25
-152 7 -183 24 -25 28 -26 107 -19 45 4 84 9 86 11 2 2 1 11 -3 20 -5 14 -17
15 -79 10 l-72 -7 -14 32 c-14 32 -10 63 20 172 l10 37 99 0 c83 0 100 3 100
15 0 21 -11 24 -123 27 -84 3 -101 0 -114 -15z"/>
<path d="M6617 2900 c-36 -28 -67 -90 -67 -133 0 -23 8 -41 28 -59 30 -29 102
-52 133 -43 24 8 43 41 35 62 -6 14 -10 13 -30 -6 -25 -24 -60 -22 -103 7 -53
33 2 152 69 152 23 0 29 4 26 18 -5 26 -58 27 -91 2z"/>
<path d="M8633 2908 c-9 -15 -32 -174 -32 -234 -1 -29 4 -44 15 -48 26 -10 34
3 29 42 -3 20 0 81 8 135 11 78 11 99 1 108 -9 7 -15 6 -21 -3z"/>
<path d="M11720 2900 c-119 -21 -219 -25 -270 -10 -39 11 -70 5 -70 -14 0 -18
88 -36 175 -36 l74 0 -32 -67 c-40 -86 -46 -176 -11 -181 22 -3 41 23 24 33
-19 12 -9 60 27 140 21 44 42 83 47 87 6 4 56 12 113 19 84 10 103 16 101 28
-4 23 -54 23 -178 1z"/>
<path d="M14012 2908 c-7 -7 -12 -19 -12 -28 0 -9 -25 -65 -55 -125 -58 -117
-69 -165 -36 -165 25 0 48 27 34 41 -7 7 5 40 38 104 26 52 51 111 55 130 7
40 -5 62 -24 43z"/>
<path d="M4367 2888 c-8 -13 -23 -56 -33 -95 -14 -57 -22 -73 -36 -73 -25 0
-23 -27 2 -35 17 -5 20 -12 14 -40 -7 -40 12 -105 31 -105 22 0 28 20 15 45
-8 14 -10 37 -6 59 6 33 11 37 47 42 22 4 42 11 46 16 10 17 -20 29 -55 23
-34 -6 -34 -6 -27 27 4 18 15 58 25 88 10 30 16 58 14 62 -9 14 -23 8 -37 -14z"/>
<path d="M13854 2886 c-10 -25 0 -61 19 -64 12 -3 17 3 17 21 0 49 -23 76 -36
43z"/>
<path d="M10596 2838 c4 -29 11 -61 16 -70 4 -10 6 -29 2 -43 -7 -27 9 -55 32
-55 8 0 14 6 14 14 0 20 7 24 79 35 35 6 69 15 77 22 17 14 18 38 2 44 -90 31
-132 51 -163 75 -56 45 -67 41 -59 -22z"/>
<path d="M8756 2832 c-32 -17 -56 -39 -65 -59 -9 -18 -22 -33 -28 -33 -27 0
-11 -30 40 -75 63 -56 101 -77 130 -73 32 4 27 30 -8 40 -16 4 -51 26 -78 49
l-47 41 21 30 c12 17 41 39 65 49 40 18 60 40 47 53 -10 10 -26 6 -77 -22z"/>
<path d="M10006 2842 c-3 -5 -2 -19 1 -32 l6 -23 156 8 c86 4 180 8 210 9 59
2 76 17 40 37 -18 9 -47 9 -133 -1 -111 -12 -226 -11 -257 4 -10 4 -19 3 -23
-2z"/>
<path d="M13373 2763 c-87 -62 -113 -93 -78 -93 8 0 47 23 86 51 38 28 72 49
75 46 3 -3 -11 -41 -31 -85 -20 -44 -35 -88 -33 -98 7 -38 38 -26 98 35 59 61
60 61 60 32 0 -29 22 -61 41 -61 19 0 56 50 68 92 7 24 18 46 25 50 8 6 8 12
0 25 -17 27 -37 22 -47 -12 -5 -16 -17 -48 -27 -70 l-17 -39 -7 51 c-3 29 -11
55 -17 59 -6 3 -35 -20 -65 -52 l-54 -59 25 62 c30 75 34 133 8 133 -10 0 -60
-30 -110 -67z"/>
<path d="M9030 2813 c-24 -9 -50 -35 -50 -50 0 -8 18 -31 40 -50 45 -41 50
-59 19 -68 -35 -11 -68 2 -62 25 8 29 -33 27 -43 -2 -11 -35 38 -72 89 -65 85
12 103 75 36 129 -39 31 -39 32 -18 40 13 5 35 6 51 3 23 -6 28 -3 28 13 0 28
-46 41 -90 25z"/>
<path d="M15818 2802 c-9 -2 -24 -14 -32 -27 -17 -25 -171 -145 -187 -145 -5
0 -9 -7 -9 -15 0 -22 42 -19 73 5 31 25 33 25 40 -1 5 -19 11 -21 46 -16 22 3
54 15 70 26 l30 22 -2 -28 c-2 -25 2 -28 31 -31 24 -2 32 1 32 12 0 9 -5 16
-11 16 -10 0 -8 20 7 73 10 34 -25 29 -87 -12 -34 -23 -65 -41 -70 -41 -14 0
9 38 54 92 39 47 46 76 15 70z"/>
<path d="M4579 2751 c-82 -82 -32 -161 101 -161 53 0 61 2 58 18 -2 13 -16 18
-63 22 -88 7 -94 16 -38 53 55 37 66 67 31 91 -33 23 -46 20 -89 -23z m45 -32
c-16 -10 -31 -16 -33 -13 -8 8 42 43 52 37 5 -3 -4 -14 -19 -24z"/>
<path d="M16093 2783 c-15 -3 -23 -12 -23 -24 0 -10 3 -19 8 -19 4 0 13 -13
20 -30 19 -42 -8 -86 -45 -73 -15 5 -17 33 -3 33 13 0 13 27 0 35 -19 12 -50
-15 -50 -45 0 -36 43 -73 74 -64 50 14 97 100 66 119 -19 12 -11 26 9 15 52
-27 69 3 21 38 -29 22 -35 23 -77 15z"/>
<path d="M5432 2764 c3 -15 16 -20 68 -25 36 -4 69 -3 75 2 18 18 -15 33 -81
37 -60 4 -66 3 -62 -14z"/>
<path d="M12188 2764 c-51 -27 -76 -114 -43 -148 34 -34 160 -32 153 2 -3 13
-12 16 -43 14 -44 -4 -85 4 -85 17 0 4 20 16 45 26 52 19 71 45 56 74 -10 17
-33 32 -49 31 -4 -1 -19 -7 -34 -16z m32 -44 c-24 -15 -37 -11 -16 5 11 8 22
12 25 9 3 -3 -1 -9 -9 -14z"/>
<path d="M12441 2765 c-29 -13 -32 -18 -27 -41 19 -75 19 -82 -5 -95 -22 -11
-23 -11 -10 4 11 14 11 18 -3 23 -18 7 -46 -12 -46 -32 0 -25 31 -46 59 -39
49 12 63 34 59 95 -3 53 -2 55 25 58 29 4 37 26 11 36 -21 8 -24 8 -63 -9z"/>
<path d="M12646 2761 c-61 -40 -75 -114 -30 -150 33 -26 65 -26 148 -1 67 21
85 35 69 51 -7 7 -37 2 -85 -12 -41 -12 -83 -19 -93 -15 -22 8 -13 18 17 20
19 1 25 9 32 47 15 78 -3 96 -58 60z m14 -56 c-7 -9 -15 -13 -18 -10 -3 2 1
11 8 20 7 9 15 13 18 10 3 -2 -1 -11 -8 -20z"/>
<path d="M4862 2750 c-57 -35 -86 -155 -37 -155 17 0 20 6 17 37 -3 31 2 43
26 68 31 30 52 38 52 20 0 -16 40 -51 50 -45 19 12 10 46 -17 70 -34 30 -49
31 -91 5z"/>
<path d="M5906 2739 c-52 -61 -23 -119 59 -119 42 0 90 24 80 41 -4 5 -30 6
-60 3 -46 -6 -56 -4 -61 10 -8 21 22 56 48 56 21 0 23 11 6 28 -20 20 -45 14
-72 -19z"/>
<path d="M14919 2753 c-31 -19 -59 -62 -59 -90 0 -49 84 -76 165 -53 33 9 45
17 43 29 -2 9 -12 15 -23 13 -11 -1 -45 -5 -75 -7 -45 -5 -51 -4 -30 5 36 16
70 51 70 71 0 22 -26 49 -48 49 -9 0 -29 -8 -43 -17z m51 -33 c0 -11 -33 -30
-52 -30 -7 1 -3 9 11 20 25 22 41 26 41 10z"/>
<path d="M5681 2719 c-44 -31 -50 -53 -19 -73 13 -8 26 -6 52 7 30 14 36 14
36 2 0 -19 39 -45 67 -45 15 0 23 6 23 18 0 27 -16 46 -34 39 -16 -6 -21 8
-17 41 3 21 -19 42 -44 42 -12 0 -41 -14 -64 -31z"/>
<path d="M3749 2701 c-40 -41 -39 -78 3 -95 20 -9 41 -11 60 -6 24 7 28 6 28
-11 0 -23 34 -59 55 -59 19 0 20 24 1 39 -7 6 -16 29 -20 52 -7 43 -30 61 -49
36 -16 -21 -67 -27 -67 -8 0 20 32 41 55 35 30 -7 44 15 20 33 -29 20 -54 16
-86 -16z"/>
<path d="M8290 2698 c-27 -44 -26 -84 1 -99 26 -13 103 -7 124 11 44 36 -7
120 -72 120 -27 0 -37 -6 -53 -32z m90 -23 c20 -24 4 -45 -35 -45 -39 0 -46
17 -19 44 19 20 38 20 54 1z"/>
<path d="M16344 2720 c-30 -12 -64 -58 -64 -86 0 -13 9 -33 19 -43 36 -36 143
-42 149 -9 3 14 -6 17 -45 20 -56 4 -62 16 -14 32 42 14 56 35 47 69 -5 23
-12 27 -39 26 -17 0 -42 -4 -53 -9z m51 -40 c-3 -5 -15 -10 -26 -10 -11 0 -17
5 -14 10 3 6 15 10 26 10 11 0 17 -4 14 -10z"/>
<path d="M2882 2697 c-14 -15 -22 -34 -21 -53 2 -16 -5 -44 -15 -62 -21 -41
-24 -101 -5 -113 22 -13 95 -11 108 4 16 20 4 27 -45 27 -42 0 -43 0 -34 29
15 52 28 70 50 64 11 -3 27 0 35 7 20 17 2 40 -31 40 -27 0 -33 24 -8 34 9 3
29 6 46 6 23 0 29 4 26 18 -2 12 -14 18 -43 20 -32 2 -45 -2 -63 -21z"/>
<path d="M8072 2684 c-41 -50 -42 -87 -4 -103 21 -9 36 -9 58 -1 91 35 100
122 13 136 -32 6 -39 2 -67 -32z m88 -29 c0 -17 -56 -49 -70 -40 -15 9 7 45
33 54 26 10 37 5 37 -14z"/>
<path d="M13755 2660 c-37 -58 -30 -89 16 -75 13 5 19 14 18 28 -2 12 2 31 8
42 11 21 7 45 -8 45 -5 0 -20 -18 -34 -40z"/>
<path d="M9247 2683 c-12 -12 -7 -50 8 -63 17 -14 39 -4 31 16 -3 7 -1 16 4
19 19 12 10 35 -13 35 -13 0 -27 -3 -30 -7z"/>
<path d="M2325 2630 c-3 -5 -3 -20 1 -33 10 -40 -43 -124 -72 -113 -17 6 -38
-20 -30 -39 9 -25 44 -17 84 20 42 37 67 98 56 139 -6 26 -29 41 -39 26z"/>
<path d="M5403 2478 c-5 -7 -22 -46 -37 -86 -23 -60 -32 -73 -47 -69 -10 3
-23 -1 -29 -8 -9 -10 -6 -16 10 -25 18 -10 20 -17 15 -73 -7 -73 12 -113 65
-139 48 -23 132 4 103 33 -9 9 -20 9 -43 0 -29 -10 -34 -8 -62 20 -28 28 -30
34 -25 80 3 27 9 54 12 59 3 6 32 10 63 10 75 0 104 9 100 29 -3 13 -15 15
-77 12 -49 -2 -71 1 -67 7 4 6 17 40 31 76 20 53 22 66 11 75 -10 8 -16 8 -23
-1z"/>
<path d="M13508 2431 c-3 -31 -26 -96 -63 -177 -55 -121 -57 -128 -40 -140 22
-16 108 -19 134 -4 28 14 45 64 31 89 -13 25 -40 27 -81 6 l-30 -16 15 33 c7
18 26 59 41 92 33 69 40 158 14 164 -13 2 -17 -8 -21 -47z m22 -271 c-6 -12
-21 -20 -35 -20 -32 0 -31 6 3 24 37 21 45 20 32 -4z"/>
<path d="M3393 2403 c-17 -37 -41 -107 -53 -155 -13 -48 -26 -85 -31 -83 -12
8 -39 -6 -39 -21 0 -8 7 -14 15 -14 8 0 15 -2 15 -5 0 -18 -56 -112 -87 -146
-31 -34 -38 -38 -46 -24 -7 13 -12 14 -23 4 -18 -15 -18 -43 0 -58 34 -28 110
43 168 156 30 56 35 61 59 56 15 -3 30 0 34 6 8 14 -22 64 -35 56 -10 -6 32
156 51 198 14 31 32 31 37 -1 4 -27 28 -46 49 -38 12 5 14 9 5 18 -7 7 -12 21
-13 33 -1 31 -33 80 -56 83 -16 2 -26 -10 -50 -65z"/>
<path d="M6457 2448 c-2 -7 -23 -69 -46 -138 -51 -148 -59 -191 -37 -209 21
-18 51 -10 51 14 0 11 -6 19 -12 18 -20 -4 -16 15 33 146 25 68 44 135 42 149
-3 27 -26 42 -31 20z"/>
<path d="M11622 2439 c-59 -29 -101 -83 -138 -176 -28 -69 -36 -79 -65 -89
-19 -6 -36 -19 -37 -29 -3 -14 2 -17 27 -13 28 4 31 2 25 -16 -17 -54 -54
-124 -82 -155 -33 -36 -33 -51 -2 -51 25 0 92 103 116 178 l19 61 52 7 c29 3
59 4 66 1 24 -9 44 10 31 30 -16 26 -43 40 -52 27 -7 -12 -82 -29 -82 -19 0 3
11 33 25 67 26 65 71 120 116 144 26 13 27 12 33 -17 7 -39 30 -33 34 8 3 28
-18 63 -36 63 -4 0 -26 -10 -50 -21z"/>
<path d="M12971 2341 c-38 -99 -45 -109 -71 -115 -22 -4 -30 -11 -30 -27 0
-16 5 -20 20 -16 17 4 18 1 12 -27 -12 -55 -8 -111 7 -111 10 0 19 21 27 67 7
37 16 72 19 78 7 11 77 13 112 4 l23 -6 -26 -31 c-14 -16 -24 -39 -22 -51 2
-17 10 -21 38 -20 19 0 42 4 50 7 10 5 18 0 25 -15 8 -18 18 -23 50 -23 48 0
58 28 13 33 -32 4 -34 13 -11 53 13 22 14 32 5 41 -9 9 -16 7 -32 -7 -16 -14
-19 -15 -15 -4 9 25 -22 46 -46 31 -15 -10 -19 -9 -19 3 0 21 -32 35 -79 35
-23 0 -41 4 -41 9 0 4 14 41 30 82 17 40 29 82 28 93 -7 45 -27 20 -67 -83z
m174 -181 c3 -5 -9 -17 -27 -26 l-33 -17 24 27 c28 29 28 29 36 16z"/>
<path d="M4670 2393 c0 -26 -6 -70 -13 -98 -12 -46 -16 -50 -48 -56 -66 -10
-83 -39 -23 -39 30 0 35 -3 29 -17 -15 -40 -28 -112 -22 -127 12 -32 34 -17
39 27 3 23 12 59 21 80 15 35 18 37 64 37 26 0 54 4 62 9 25 16 1 31 -48 31
l-48 0 14 53 c18 70 14 141 -9 145 -15 3 -18 -4 -18 -45z"/>
<path d="M9030 2394 c-6 -14 -10 -31 -10 -38 0 -7 -22 -61 -50 -119 -27 -58
-50 -120 -50 -137 0 -26 4 -30 26 -30 23 0 25 3 20 25 -5 19 7 55 43 133 57
121 74 192 47 192 -9 0 -21 -12 -26 -26z"/>
<path d="M2840 2351 c-20 -50 12 -98 47 -69 13 10 13 14 -2 24 -13 10 -14 16
-5 33 6 12 8 26 5 31 -12 19 -33 10 -45 -19z"/>
<path d="M12519 2364 c-7 -9 -14 -22 -15 -30 -3 -19 -84 -164 -92 -164 -4 0
-13 9 -20 20 -42 68 -162 -66 -123 -139 27 -49 107 -14 163 70 48 72 128 225
128 244 0 20 -24 19 -41 -1z m-147 -216 l21 -21 -32 -29 c-41 -37 -66 -38 -57
-2 7 25 34 74 42 74 2 0 14 -10 26 -22z"/>
<path d="M14009 2287 c-63 -29 -73 -57 -39 -113 21 -33 21 -33 1 -43 -26 -15
-29 -14 -27 7 1 22 -24 22 -38 -1 -9 -15 -7 -22 13 -38 31 -26 45 -24 83 11
l33 29 -22 40 c-13 22 -23 44 -23 49 0 18 43 22 55 6 10 -14 12 -14 24 0 11
13 11 22 3 41 -13 27 -24 29 -63 12z"/>
<path d="M14284 2276 c-17 -8 -47 -28 -68 -46 -34 -30 -37 -37 -34 -79 3 -42
6 -48 39 -64 31 -15 46 -16 104 -8 72 10 97 23 79 41 -8 8 -30 8 -73 1 -67
-11 -111 -2 -111 23 0 9 19 19 50 26 49 12 90 46 90 76 0 13 -27 44 -38 44 -4
-1 -21 -7 -38 -14z m19 -47 c-11 -12 -27 -19 -34 -17 -9 3 -3 11 16 21 40 22
43 21 18 -4z"/>
<path d="M6094 2266 c-81 -36 -86 -129 -9 -162 61 -25 166 -7 173 31 3 15 -1
17 -30 11 -99 -18 -108 -18 -133 -2 -14 9 -25 25 -25 36 0 36 78 78 95 50 9
-15 35 -12 35 3 0 20 -33 47 -56 47 -10 -1 -33 -7 -50 -14z"/>
<path d="M6564 2261 c-95 -58 -100 -170 -8 -187 51 -9 124 13 124 38 0 17 -5
19 -26 14 -63 -16 -83 -17 -103 -7 -32 18 -26 28 37 58 65 32 78 60 40 87 -28
20 -26 20 -64 -3z m36 -30 c0 -5 -7 -12 -16 -15 -14 -5 -15 -4 -4 9 14 17 20
19 20 6z"/>
<path d="M8705 2264 c-44 -22 -70 -50 -97 -101 l-23 -44 28 -25 c22 -19 39
-24 80 -23 67 1 132 20 132 39 0 16 -8 16 -92 5 -28 -4 -63 -5 -77 -1 -25 6
-26 8 -12 35 17 32 81 91 99 91 7 0 18 -5 25 -12 17 -17 28 18 12 37 -16 19
-37 19 -75 -1z"/>
<path d="M5089 2250 c-20 -11 -39 -26 -43 -35 -8 -21 10 -65 42 -97 25 -27 21
-35 -12 -22 -9 3 -16 12 -16 20 0 16 -26 19 -35 4 -10 -17 23 -59 51 -66 33
-8 74 10 74 34 0 11 -9 27 -21 38 -12 10 -27 31 -35 45 -13 25 -12 28 12 44
18 12 36 15 59 11 39 -8 52 5 29 28 -21 21 -61 20 -105 -4z"/>
<path d="M9979 2225 c-13 -19 -52 -53 -86 -76 -39 -26 -63 -48 -63 -60 0 -32
20 -32 53 0 30 30 32 31 39 11 10 -28 55 -26 100 5 44 30 48 31 48 5 0 -24 34
-43 60 -35 26 8 26 35 0 35 -21 0 -25 19 -11 55 5 11 4 28 -1 38 -9 17 -13 16
-51 -15 -57 -46 -97 -70 -97 -59 0 5 16 32 35 60 20 28 33 56 30 61 -12 19
-33 10 -56 -25z"/>
<path d="M13730 2235 c-54 -27 -76 -50 -85 -87 -6 -23 -3 -29 19 -39 19 -9 35
-9 61 -2 32 10 34 9 37 -14 4 -31 37 -56 58 -43 12 7 12 12 -4 28 -16 18 -16
24 -3 64 8 23 13 46 10 51 -7 12 -33 8 -39 -7 -6 -14 -74 -46 -97 -46 -6 1 6
16 27 36 25 21 46 32 57 29 21 -7 34 24 17 41 -10 10 -22 8 -58 -11z"/>
<path d="M4845 2218 c-27 -32 -39 -57 -51 -102 -9 -39 31 -69 86 -64 51 5 106
28 102 43 -1 6 -17 9 -35 7 -89 -8 -110 -7 -115 7 -3 9 1 11 15 7 24 -8 103
57 103 83 0 23 -31 51 -57 51 -12 0 -33 -14 -48 -32z m65 -17 c0 -8 -43 -41
-55 -41 -3 0 2 11 11 25 16 24 44 34 44 16z"/>
<path d="M7435 2242 c-6 -4 -23 -24 -39 -45 -16 -22 -55 -60 -87 -85 -58 -45
-74 -72 -43 -72 9 0 33 13 53 30 32 25 40 27 52 15 8 -8 33 -16 56 -19 23 -3
51 -10 63 -16 26 -14 35 5 27 64 -5 35 -2 45 14 60 16 14 18 20 9 32 -22 26
-41 15 -63 -36 -18 -44 -49 -71 -63 -57 -3 3 9 30 26 61 34 60 32 95 -5 68z"/>
<path d="M9154 2231 c-82 -50 -86 -138 -8 -157 61 -15 173 22 136 45 -7 4 -33
4 -56 -2 -78 -18 -118 9 -83 54 16 21 57 43 57 30 0 -6 -13 -17 -30 -26 -16
-9 -30 -20 -30 -25 0 -35 74 -11 96 31 13 26 13 30 -6 49 -25 25 -37 25 -76 1z"/>
<path d="M9415 2226 c-83 -50 -85 -111 -4 -111 34 0 48 -5 62 -22 10 -13 25
-23 32 -23 23 0 28 20 9 41 -16 17 -16 24 -5 55 10 29 10 38 -1 52 -30 39 -40
40 -93 8z m34 -57 c-13 -10 -30 -19 -36 -19 -24 0 -13 20 20 40 39 24 52 7 16
-21z"/>
<path d="M10405 2231 c-16 -10 -39 -28 -49 -40 -24 -27 -36 -27 -36 0 0 14 -5
19 -17 17 -12 -2 -20 -17 -25 -46 -4 -23 -18 -64 -31 -90 -13 -26 -30 -65 -37
-86 -7 -21 -18 -50 -26 -64 -16 -30 -18 -58 -6 -66 15 -9 29 9 58 74 42 96 71
143 78 131 20 -32 135 17 171 73 23 34 23 86 0 102 -25 19 -44 17 -80 -5z m57
-47 c-8 -40 -88 -102 -118 -90 -20 8 17 59 66 92 39 27 57 26 52 -2z"/>
<path d="M6997 2233 c-4 -3 -7 -18 -7 -32 0 -14 -11 -44 -25 -66 -52 -85 -21
-87 69 -5 37 33 68 60 70 60 3 0 -2 -25 -11 -55 -20 -69 -13 -87 29 -83 36 3
50 27 20 35 -18 4 -19 7 -6 50 33 108 -3 133 -83 60 l-23 -20 0 31 c0 30 -16
42 -33 25z"/>
<path d="M9611 2164 c-67 -123 -51 -137 49 -43 66 62 84 65 55 9 -17 -32 -14
-60 4 -60 19 0 52 80 49 118 -4 46 -28 53 -72 22 -17 -13 -25 -17 -18 -9 18
19 15 39 -7 39 -14 0 -31 -22 -60 -76z"/>
<path d="M6766 2209 c-20 -15 -26 -29 -24 -48 3 -23 7 -26 41 -24 36 2 37 1
37 -31 0 -53 51 -86 80 -51 18 22 5 48 -21 40 -21 -7 -22 -5 -15 42 11 84 -38
119 -98 72z"/>
<path d="M7711 2200 c-22 -22 -31 -27 -31 -16 0 9 -8 16 -17 16 -20 0 -72
-100 -97 -189 -9 -30 -25 -69 -36 -88 -25 -43 -25 -63 -1 -63 15 0 32 24 67
94 45 90 48 94 71 85 54 -20 112 16 139 87 14 36 14 46 2 71 -19 41 -57 42
-97 3z m62 -43 c-2 -35 -32 -74 -62 -82 -43 -11 -44 10 -1 64 44 55 66 61 63
18z"/>
<path d="M3655 2196 c-24 -25 -42 -85 -31 -111 9 -24 36 -18 36 9 0 12 5 37
11 55 9 24 17 31 38 31 15 0 32 -5 39 -12 9 -9 15 -9 24 0 9 9 7 16 -7 32 -26
28 -79 27 -110 -4z"/>
<path d="M3480 2172 c-25 -31 -32 -59 -28 -103 3 -31 6 -34 40 -37 52 -4 88
31 88 86 0 47 -18 73 -53 77 -19 2 -33 -4 -47 -23z m58 -46 c4 -30 -12 -56
-34 -56 -17 0 -18 30 -2 65 14 32 32 27 36 -9z"/>
<path d="M11074 2182 c-33 -27 -56 -69 -49 -90 8 -26 56 -45 94 -37 41 9 94
70 85 98 -3 12 -11 28 -16 35 -15 18 -89 15 -114 -6z m46 -33 c0 -7 10 -9 25
-7 20 4 23 2 15 -11 -14 -27 -57 -46 -81 -35 l-20 9 21 28 c22 28 40 35 40 16z"/>
<path d="M12544 2146 c-24 -24 -44 -51 -44 -59 0 -29 37 -40 88 -27 39 9 47 9
54 -4 10 -17 43 -22 52 -7 3 5 -1 15 -10 22 -11 9 -13 22 -9 51 6 33 4 38 -13
38 -11 0 -25 7 -32 15 -20 24 -40 18 -86 -29z m86 -16 c0 -11 -70 -43 -78 -35
-10 10 49 54 65 48 7 -3 13 -9 13 -13z"/>
<path d="M8130 2131 c-5 -11 -10 -27 -10 -36 0 -44 -74 -148 -92 -129 -9 8
-30 -25 -23 -36 24 -38 111 34 139 115 10 28 22 58 27 68 5 10 7 22 4 27 -10
16 -34 11 -45 -9z"/>
<path d="M14597 2129 c-20 -12 -23 -59 -3 -59 7 0 21 11 29 24 20 29 3 51 -26
35z"/>
<path d="M2827 1488 c-64 -80 -114 -153 -156 -225 -23 -40 -46 -73 -51 -73 -6
0 -10 -11 -10 -23 0 -21 -37 -84 -96 -165 -24 -32 -4 -54 25 -28 20 18 83 110
112 163 14 26 24 31 74 37 32 3 60 5 62 2 2 -2 -3 -28 -12 -58 -22 -78 -25
-161 -4 -166 13 -2 18 9 23 55 3 32 16 86 27 120 17 51 25 63 50 72 34 12 38
30 8 38 -14 4 -18 11 -14 22 4 9 15 49 26 90 42 164 11 232 -64 139z m40 -61
c-3 -24 -18 -80 -32 -125 -24 -77 -28 -82 -54 -82 -16 0 -43 -3 -61 -7 l-33
-6 27 49 c29 54 144 214 153 214 3 0 3 -19 0 -43z"/>
<path d="M3777 1524 c-4 -4 -7 -23 -7 -43 0 -54 -44 -209 -90 -317 -23 -52
-38 -99 -35 -104 13 -21 33 -7 69 50 62 97 91 108 62 24 -9 -26 -16 -58 -16
-70 0 -24 28 -42 34 -21 35 117 38 138 21 164 -13 19 -23 24 -41 20 -20 -3
-24 -1 -19 12 21 51 55 212 53 245 -3 38 -16 54 -31 40z"/>
<path d="M14394 1510 c-9 -9 -162 -38 -399 -76 -49 -7 -145 -14 -212 -14 -120
0 -138 -5 -128 -32 5 -11 30 -13 128 -10 67 2 151 7 187 11 36 5 66 7 68 6 2
-1 -13 -45 -33 -96 -67 -173 -93 -256 -85 -269 11 -18 40 -4 40 20 0 11 29 95
64 187 l64 168 44 11 c58 16 237 39 244 32 5 -6 -92 -251 -127 -320 -43 -85
-8 -91 79 -12 34 31 63 52 63 47 3 -23 -5 -50 -28 -86 -28 -45 -24 -67 11 -67
27 0 42 15 26 25 -6 4 -3 20 9 43 38 76 33 112 -15 126 -15 5 -31 -1 -53 -20
l-32 -26 20 48 c104 260 105 265 102 302 -1 15 -23 16 -37 2z"/>
<path d="M3073 1487 c-4 -6 -6 -27 -4 -47 2 -36 -25 -135 -74 -268 -30 -83
-30 -127 -1 -127 14 0 19 9 21 40 2 22 19 81 38 130 34 89 50 150 61 231 5 36
3 42 -14 47 -11 3 -23 0 -27 -6z"/>
<path d="M3232 1478 c-6 -7 -18 -42 -27 -78 -9 -36 -30 -104 -46 -152 -29 -86
-51 -210 -41 -236 2 -7 12 -12 20 -10 12 2 17 19 20 63 2 33 19 107 37 165 39
125 75 246 75 254 0 11 -27 6 -38 -6z"/>
<path d="M4452 1458 c-7 -7 -12 -23 -12 -36 0 -13 -22 -91 -50 -172 -55 -164
-60 -194 -30 -210 18 -9 20 -8 20 15 0 48 22 115 37 115 18 0 58 -41 100 -103
21 -30 40 -47 53 -47 22 0 27 25 7 37 -8 4 -32 36 -55 70 -23 33 -47 63 -54
65 -6 2 24 31 67 64 73 55 104 94 74 94 -6 0 -50 -28 -98 -63 l-86 -63 27 80
c37 108 36 190 0 154z"/>
<path d="M7234 1363 c-65 -102 -76 -113 -120 -113 -36 0 -63 -23 -42 -36 7 -5
26 -7 42 -5 25 2 28 0 21 -16 -4 -10 -15 -44 -24 -75 -15 -57 -15 -57 9 -83
20 -22 31 -26 59 -21 46 7 86 35 72 49 -7 7 -22 7 -51 -3 -63 -21 -70 -6 -40
81 13 38 28 73 34 76 5 4 40 9 76 12 49 5 65 10 65 21 0 11 -14 16 -57 18
l-56 3 34 52 c18 29 42 64 54 79 25 33 25 48 0 48 -14 0 -36 -25 -76 -87z"/>
<path d="M12530 1403 c-7 -21 -31 -82 -53 -135 -34 -81 -44 -98 -62 -98 -28 0
-72 -41 -89 -82 -28 -66 33 -107 82 -55 35 37 162 341 162 388 0 33 -28 21
-40 -18z m-130 -313 c-20 -40 -40 -53 -40 -26 0 17 38 66 51 66 5 0 0 -18 -11
-40z"/>
<path d="M9449 1408 c0 -2 -1 -23 -2 -48 -2 -35 -18 -72 -65 -156 -34 -61 -62
-118 -62 -127 0 -31 50 -17 99 27 l24 21 -18 -34 c-13 -27 -15 -39 -6 -58 14
-30 35 -25 38 8 1 13 10 45 20 71 14 39 15 50 5 60 -11 11 -20 9 -52 -8 l-39
-22 26 41 c67 107 93 207 57 221 -17 6 -24 7 -25 4z"/>
<path d="M15342 1264 c-40 -28 -44 -48 -25 -120 l18 -66 -24 -19 c-13 -10 -29
-19 -36 -19 -18 0 -39 29 -40 54 0 14 -6 21 -20 21 -32 0 -31 -46 0 -84 33
-38 68 -40 116 -8 41 27 48 66 25 135 -19 55 -19 47 0 66 20 21 61 20 72 -1
11 -19 42 -11 42 11 0 40 -86 60 -128 30z"/>
<path d="M6461 1222 c-56 -58 -187 -333 -172 -360 7 -13 12 -12 34 12 14 14
41 58 62 96 20 39 41 68 46 64 16 -10 117 45 139 76 27 37 28 120 2 143 -32
29 -62 21 -111 -31z m89 -30 c0 -21 -7 -48 -16 -60 -16 -23 -72 -57 -81 -49
-2 3 3 22 11 42 9 21 16 46 16 56 0 19 35 49 57 49 8 0 13 -14 13 -38z"/>
<path d="M6235 1243 c-11 -3 -31 -13 -45 -23 -14 -10 -34 -19 -45 -22 -15 -3
-19 -10 -17 -30 1 -14 -17 -67 -41 -119 -54 -116 -83 -197 -74 -205 16 -16 38
11 81 96 25 51 46 98 46 105 0 7 9 11 23 8 40 -8 143 83 161 143 12 41 -28 62
-89 47z m45 -47 c0 -15 -94 -106 -110 -106 -17 0 -12 25 13 61 32 48 97 78 97
45z"/>
<path d="M10985 1228 c-35 -19 -75 -61 -75 -79 0 -10 16 -30 35 -45 l36 -27
-27 -28 c-27 -28 -28 -28 -56 -11 -18 10 -28 25 -28 40 0 36 -34 25 -38 -13
-2 -24 4 -34 30 -51 58 -38 73 -39 112 -2 52 50 54 71 10 112 l-37 34 34 21
c24 16 43 20 67 16 32 -6 37 0 26 29 -7 19 -59 21 -89 4z"/>
<path d="M11748 1209 c-14 -19 -38 -63 -53 -97 -23 -51 -26 -65 -15 -72 17
-10 42 9 95 71 48 57 65 63 35 13 -27 -43 -17 -60 26 -44 16 6 42 22 59 34 52
39 55 38 35 -8 -11 -24 -17 -51 -14 -60 7 -18 46 -31 69 -22 20 7 8 36 -16 36
-19 0 -19 1 0 38 57 112 58 145 3 123 -16 -7 -42 -26 -58 -42 -15 -16 -31 -29
-36 -29 -4 0 -8 18 -8 40 0 52 -21 53 -73 3 -32 -31 -36 -33 -23 -11 12 19 15
32 8 44 -8 14 -12 12 -34 -17z"/>
<path d="M14628 1231 c-59 -22 -127 -133 -114 -185 7 -29 52 -56 91 -56 37 0
114 21 121 32 13 21 -14 28 -69 17 -43 -9 -64 -9 -82 -1 -35 16 -32 42 4 42
27 0 72 27 98 60 31 37 -7 107 -49 91z m20 -57 c-4 -21 -52 -58 -68 -52 -8 2
-3 15 15 36 29 34 59 43 53 16z"/>
<path d="M4763 1205 c-31 -14 -53 -31 -53 -40 0 -8 20 -30 45 -47 24 -17 41
-36 38 -41 -3 -6 -30 -7 -64 -3 -49 5 -59 3 -59 -9 0 -20 40 -35 91 -35 43 0
85 31 75 57 -3 8 -6 19 -6 24 0 4 -13 15 -30 24 -16 9 -30 19 -30 24 0 14 51
31 76 25 24 -6 29 1 18 30 -9 22 -41 20 -101 -9z"/>
<path d="M5542 1218 c-17 -17 -15 -73 4 -110 18 -35 9 -51 -27 -46 -18 2 -23
8 -21 26 4 24 -16 30 -36 10 -51 -51 63 -107 116 -58 25 24 27 45 7 80 -8 14
-14 36 -15 49 0 22 2 23 45 18 39 -6 45 -4 45 12 0 29 -93 44 -118 19z"/>
<path d="M5855 1210 c-9 -28 -114 -140 -128 -137 -7 1 -12 -7 -12 -18 0 -16 6
-19 28 -17 19 2 27 -2 27 -13 0 -8 3 -15 8 -15 4 0 17 -3 29 -6 17 -5 35 6 79
47 47 45 56 50 50 29 -17 -56 -18 -76 -2 -89 13 -11 16 -11 20 0 2 8 13 46 25
84 32 105 37 145 18 145 -9 0 -23 -12 -31 -27 -17 -33 -144 -158 -153 -150 -3
3 15 42 41 85 25 43 46 84 46 90 0 20 -38 13 -45 -8z"/>
<path d="M10688 1224 c-3 -3 -4 -22 -1 -43 4 -32 1 -42 -27 -69 -59 -59 -101
-30 -62 42 15 26 19 43 13 49 -22 22 -71 -49 -71 -102 0 -35 31 -61 73 -61 63
0 144 119 116 172 -9 18 -30 24 -41 12z"/>
<path d="M13020 1209 c-63 -26 -69 -53 -27 -112 16 -23 17 -33 8 -53 -19 -42
-61 -24 -61 27 0 27 -21 54 -33 42 -12 -11 -7 -63 8 -92 26 -51 72 -55 109
-10 31 37 33 67 6 102 -11 14 -20 30 -20 36 0 18 39 33 78 29 31 -3 37 0 37
17 0 16 -7 20 -40 22 -22 1 -51 -2 -65 -8z"/>
<path d="M15843 1201 c-17 -11 -40 -17 -51 -14 -16 4 -21 -2 -27 -29 -4 -18
-18 -50 -31 -71 -14 -21 -22 -42 -19 -47 12 -20 35 -9 59 28 30 47 103 116 91
87 -25 -65 -17 -77 35 -50 28 15 30 14 30 -4 0 -27 24 -43 62 -39 45 4 53 38
9 38 -35 0 -36 3 -20 49 17 48 -1 62 -41 33 l-30 -23 0 25 c0 13 -7 27 -16 30
-20 8 -14 9 -51 -13z"/>
<path d="M3962 1191 c-35 -30 -55 -81 -43 -108 12 -27 52 -45 78 -36 59 21 79
79 43 125 -25 33 -55 40 -78 19z m52 -47 c11 -28 7 -43 -15 -54 -30 -17 -53 4
-37 34 19 37 42 46 52 20z"/>
<path d="M4141 1183 c-42 -53 -36 -121 11 -125 73 -5 98 17 98 83 0 38 -4 51
-19 59 -34 18 -68 12 -90 -17z m69 -43 c0 -30 -24 -51 -47 -43 -17 6 -16 24 3
51 22 32 44 28 44 -8z"/>
<path d="M10068 1199 c-20 -11 -64 -137 -51 -150 5 -5 34 15 68 47 33 31 68
60 77 65 16 8 17 7 8 -16 -5 -14 -16 -38 -25 -55 -17 -33 -20 -79 -5 -81 31
-5 35 -2 36 26 1 17 12 56 24 87 12 31 20 64 17 73 -10 24 -50 18 -96 -17 -35
-25 -41 -27 -30 -10 16 26 2 46 -23 31z"/>
<path d="M10390 1188 c-30 -32 -60 -93 -60 -121 0 -76 113 -60 147 20 13 32
13 40 -2 80 -13 34 -22 43 -40 43 -14 0 -34 -10 -45 -22z m55 -49 c9 -27 -23
-73 -54 -77 -27 -4 -27 10 1 59 24 43 43 50 53 18z"/>
<path d="M12655 1196 c-43 -19 -95 -81 -95 -115 0 -43 32 -65 93 -65 72 -1
127 12 127 29 0 21 -11 24 -70 14 -30 -5 -68 -6 -85 -3 l-30 7 39 14 c55 19
76 40 76 78 0 44 -17 57 -55 41z m15 -50 c0 -8 -7 -17 -16 -20 -25 -10 -30 2
-8 19 24 18 24 18 24 1z"/>
<path d="M15564 1202 c-12 -2 -40 -19 -63 -38 -42 -36 -52 -69 -29 -92 15 -15
72 -16 99 -2 16 9 19 7 19 -14 0 -25 31 -52 44 -39 3 4 3 22 0 41 -4 20 -2 43
6 56 10 19 9 29 -4 53 -16 32 -36 41 -72 35z m36 -51 c0 -16 -56 -51 -81 -51
-22 0 -22 0 6 30 27 28 75 41 75 21z"/>
<path d="M16187 1181 c-27 -18 -54 -45 -64 -65 -15 -32 -15 -37 1 -60 38 -59
112 -69 197 -26 21 11 45 20 54 20 18 0 30 24 20 39 -4 7 -24 3 -58 -10 -111
-44 -139 -46 -172 -13 -13 13 -13 17 -1 30 8 8 22 14 31 14 8 0 32 7 51 15 31
13 35 18 32 47 -4 44 -30 47 -91 9z"/>
<path d="M8362 1170 c-47 -33 -53 -60 -27 -110 15 -29 15 -30 -10 -30 -19 0
-25 5 -25 21 0 25 -27 23 -44 -3 -28 -45 66 -79 120 -44 l24 16 -23 46 -22 46
25 20 c14 11 38 25 53 30 33 12 31 32 -4 36 -15 2 -41 -9 -67 -28z"/>
<path d="M6853 1161 c-48 -35 -76 -87 -62 -114 15 -27 45 -17 41 15 -2 19 7
34 34 57 33 30 38 31 53 17 24 -22 41 -20 41 3 0 20 -34 51 -56 51 -6 0 -29
-13 -51 -29z"/>
<path d="M8648 1119 l-43 -70 -5 53 c-4 41 -9 54 -24 56 -17 4 -18 -3 -15 -80
l4 -84 -48 -54 c-88 -98 -120 -179 -74 -188 12 -3 17 3 17 20 0 28 34 81 105
163 29 33 71 92 95 130 24 39 49 77 57 86 19 22 16 39 -6 39 -13 0 -33 -23
-63 -71z"/>
<path d="M8872 1178 c-7 -7 -24 -13 -39 -14 -21 0 -29 -7 -35 -30 -4 -17 -19
-41 -33 -54 -28 -26 -32 -45 -11 -53 8 -3 40 21 76 58 35 35 67 62 72 59 14
-9 9 -35 -13 -65 -22 -31 -22 -60 -2 -67 7 -2 16 5 20 15 3 10 15 29 25 42 22
29 23 64 2 96 -18 27 -43 32 -62 13z"/>
<path d="M9092 1173 c-44 -22 -94 -80 -90 -106 2 -12 18 -30 37 -41 31 -18 39
-18 93 -7 80 16 108 30 108 54 0 15 -4 18 -22 12 -100 -31 -132 -36 -156 -25
l-25 11 29 30 c41 43 62 53 80 38 23 -19 37 3 18 29 -18 26 -28 27 -72 5z"/>
<path d="M9613 1170 c-41 -25 -95 -98 -91 -125 4 -30 43 -27 44 4 2 33 79 105
102 96 38 -16 50 -16 55 -1 4 11 -3 21 -23 31 -38 19 -48 19 -87 -5z"/>
<path d="M12121 1136 c-54 -58 -62 -83 -33 -108 31 -28 56 -29 102 -6 73 37
90 98 40 148 -31 31 -53 24 -109 -34z m99 -31 c0 -26 -69 -69 -94 -59 -24 9
-20 17 26 64 39 38 43 40 55 24 7 -10 13 -23 13 -29z"/>
<path d="M6645 1161 c-16 -9 -39 -33 -50 -53 -37 -69 13 -111 90 -76 28 13 55
55 55 85 0 27 -28 63 -48 62 -9 0 -30 -8 -47 -18z m35 -83 c-22 -18 -60 -25
-60 -10 0 18 32 51 53 54 30 4 35 -22 7 -44z"/>
<path d="M8069 1133 c-50 -45 -99 -115 -99 -140 0 -11 5 -24 12 -31 17 -17 79
-15 105 3 20 14 23 14 33 -5 9 -16 19 -20 43 -18 35 3 40 17 11 33 -11 5 -20
10 -21 11 -2 0 2 16 7 35 22 73 21 99 -5 125 -13 13 -29 24 -35 24 -5 0 -28
-17 -51 -37z m58 -43 c-5 -38 -62 -100 -94 -100 -13 0 -23 3 -23 8 0 4 20 33
45 65 51 64 77 74 72 27z"/>
<path d="M9802 1096 c-23 -25 -42 -52 -42 -60 0 -62 168 -34 178 31 4 28 -27
62 -63 69 -27 5 -36 0 -73 -40z m86 -8 c7 -7 12 -15 12 -19 0 -10 -57 -31 -75
-27 -15 3 -14 6 5 31 23 29 39 34 58 15z"/>
<path d="M13165 1040 c-8 -14 3 -30 21 -30 8 0 14 9 14 20 0 21 -24 28 -35 10z"/>
<path d="M3411 868 c-10 -24 -31 -78 -47 -121 l-29 -79 -36 6 c-20 3 -39 3
-42 0 -13 -13 14 -44 38 -44 22 0 23 -3 22 -62 -2 -52 1 -63 16 -66 13 -3 17
3 17 31 0 19 3 48 6 65 6 29 9 31 58 34 39 2 52 7 54 21 3 14 -4 17 -42 17
-25 0 -46 2 -46 5 0 2 18 51 40 107 44 114 47 128 25 128 -9 0 -24 -19 -34
-42z"/>
<path d="M6503 878 c-6 -7 -25 -59 -42 -115 l-32 -103 -32 0 c-37 0 -57 -15
-57 -42 0 -19 25 -25 35 -8 3 6 14 10 24 10 18 0 18 -3 4 -50 -18 -63 -14 -95
12 -95 14 0 19 6 18 20 -2 11 2 41 8 68 l11 47 49 -6 c41 -5 49 -4 49 9 0 10
-15 21 -40 28 -22 7 -40 13 -40 13 0 1 14 46 31 101 17 55 31 106 32 114 3 19
-18 25 -30 9z"/>
<path d="M7246 868 c-9 -12 -16 -26 -16 -31 0 -5 -14 -38 -31 -73 -28 -60 -32
-64 -65 -64 -27 0 -34 -4 -34 -20 0 -14 7 -20 23 -20 20 0 22 -4 19 -50 -4
-44 -1 -53 25 -79 34 -33 100 -49 133 -31 30 16 19 35 -21 36 -77 1 -99 16
-99 67 0 50 9 56 90 59 59 2 75 6 75 18 0 11 -17 16 -70 20 -39 3 -65 8 -58
13 7 4 22 34 34 67 12 33 28 65 35 71 8 6 14 18 14 25 0 22 -37 16 -54 -8z"/>
<path d="M5029 818 c-46 -58 -89 -141 -89 -173 0 -32 -13 -43 -50 -47 -47 -4
-48 -32 -2 -36 32 -3 32 -4 26 -40 -18 -99 -64 -217 -92 -238 -19 -14 -7 -34
19 -34 15 0 28 17 49 63 28 58 70 202 70 239 0 12 14 19 50 27 28 6 58 11 66
11 9 0 14 7 12 18 -4 18 -29 21 -84 10 l-32 -7 11 41 c10 42 84 159 103 165 5
2 17 -11 25 -29 16 -38 35 -35 33 5 -3 37 -30 77 -54 77 -12 0 -36 -21 -61
-52z"/>
<path d="M10287 843 c-4 -3 -7 -18 -7 -32 0 -13 -21 -70 -47 -125 -54 -115
-65 -191 -28 -191 17 0 20 7 21 45 0 32 14 72 47 139 48 96 62 171 34 171 -8
0 -17 -3 -20 -7z"/>
<path d="M10150 817 c0 -7 -20 -55 -44 -105 -51 -104 -64 -155 -46 -177 20
-24 30 -18 30 17 0 18 23 80 51 140 28 60 48 115 45 123 -7 19 -36 20 -36 2z"/>
<path d="M13152 759 c-35 -27 -72 -49 -83 -49 -12 0 -19 -7 -19 -20 0 -24 35
-27 65 -7 11 8 33 22 48 32 l28 18 -41 -84 c-23 -47 -39 -94 -37 -106 5 -28
-22 -35 -117 -32 -64 2 -71 0 -71 -17 0 -30 122 -31 234 -3 47 12 96 21 108
21 28 -2 36 10 19 33 -12 16 -16 16 -68 1 -31 -9 -59 -16 -62 -16 -14 0 -3 35
39 121 44 91 58 160 33 158 -7 0 -41 -23 -76 -50z"/>
<path d="M2617 776 c-7 -18 10 -32 40 -34 28 -1 39 14 23 33 -16 19 -56 19
-63 1z"/>
<path d="M9505 723 c-48 -25 -115 -83 -115 -99 0 -25 31 -15 77 26 25 22 50
40 54 40 17 0 9 -38 -22 -99 -38 -75 -30 -95 24 -62 35 22 35 22 42 1 9 -28
56 -27 82 3 29 31 73 111 73 130 0 11 8 17 21 17 14 0 19 5 17 18 -2 12 -13
17 -33 17 -26 0 -32 -5 -43 -40 -14 -42 -63 -125 -74 -125 -4 0 -8 17 -10 38
-2 26 -7 36 -18 35 -12 -2 -15 9 -15 54 0 65 -10 73 -60 46z"/>
<path d="M6924 696 c-26 -21 -27 -25 -15 -54 7 -17 21 -38 32 -48 24 -22 8
-44 -32 -44 -23 0 -29 5 -29 21 0 29 -34 21 -38 -9 -6 -40 16 -55 72 -49 36 3
55 11 68 27 23 28 23 30 -8 75 -28 41 -26 70 5 60 10 -3 23 1 30 9 10 12 8 17
-8 25 -30 16 -47 13 -77 -13z"/>
<path d="M8818 693 c-21 -8 -38 -21 -38 -28 0 -6 11 -33 25 -59 33 -62 32 -76
-4 -76 -17 0 -32 4 -36 10 -9 15 -35 0 -35 -20 0 -31 95 -45 126 -19 20 17 17
69 -6 107 -11 18 -20 37 -20 42 0 15 34 16 46 1 14 -18 34 -6 34 19 0 18 -27
41 -47 39 -4 0 -25 -7 -45 -16z"/>
<path d="M2758 685 c-38 -21 -45 -51 -19 -86 28 -38 26 -57 -5 -70 -35 -13
-40 -5 -26 34 15 43 15 47 -2 47 -21 0 -46 -40 -46 -72 0 -56 68 -70 118 -25
23 21 30 71 12 82 -5 3 -14 15 -20 25 -9 16 -5 22 20 35 33 17 41 45 13 45
-10 -1 -30 -7 -45 -15z"/>
<path d="M4035 678 c-30 -24 -55 -74 -55 -112 0 -13 12 -38 26 -55 43 -52 108
-40 202 36 23 19 42 41 42 49 0 23 -35 16 -61 -12 -30 -33 -91 -64 -123 -64
-33 0 -55 36 -27 45 33 10 101 64 101 80 0 21 -36 55 -59 55 -10 0 -31 -10
-46 -22z m58 -25 c7 -7 -41 -43 -57 -43 -5 0 1 11 14 25 25 26 32 29 43 18z"/>
<path d="M7496 679 c-37 -29 -33 -61 11 -104 29 -28 34 -38 24 -45 -17 -10
-42 -2 -57 18 -12 16 -34 8 -34 -12 0 -42 84 -63 120 -31 27 24 25 47 -6 76
-38 35 -49 60 -33 70 22 14 55 10 69 -6 18 -21 40 -19 40 4 0 48 -87 67 -134
30z"/>
<path d="M3531 674 c-46 -33 -85 -184 -47 -184 15 0 26 21 26 51 0 35 32 98
52 105 12 3 38 0 60 -7 28 -9 42 -9 50 -1 8 8 2 16 -23 31 -41 25 -86 27 -118
5z"/>
<path d="M5312 666 c-20 -26 -49 -142 -39 -152 13 -14 36 7 42 38 16 80 25 98
52 98 15 0 35 -8 45 -17 14 -13 21 -14 30 -5 9 9 6 18 -12 37 -32 35 -91 35
-118 1z"/>
<path d="M6674 677 c-67 -38 -101 -124 -66 -167 18 -22 28 -25 80 -25 58 1 98
17 86 37 -3 5 -31 6 -65 2 -36 -4 -59 -3 -59 3 0 6 22 24 50 41 72 45 79 97
15 115 -11 4 -30 1 -41 -6z m39 -42 c1 -12 -64 -57 -71 -50 -3 3 7 19 23 35
28 29 45 35 48 15z"/>
<path d="M8539 670 c-43 -23 -99 -84 -99 -108 0 -42 48 -54 101 -27 31 17 49
13 49 -10 0 -20 28 -45 51 -45 24 0 25 21 0 42 -16 13 -17 23 -10 69 6 34 5
55 -1 57 -6 2 -10 10 -10 17 0 12 -22 26 -38 25 -4 -1 -23 -9 -43 -20z m41
-51 c-12 -22 -67 -59 -88 -59 -18 0 3 31 41 58 41 29 62 30 47 1z"/>
<path d="M9830 664 c-59 -50 -77 -116 -40 -149 16 -15 31 -17 82 -12 76 7 138
28 152 50 17 27 1 29 -69 8 -82 -26 -145 -28 -145 -6 0 26 29 74 51 86 35 18
36 -1 1 -29 -32 -27 -42 -52 -21 -52 28 0 99 54 99 75 0 19 -39 55 -60 55 -10
0 -32 -12 -50 -26z"/>
<path d="M3738 618 c-24 -33 -51 -65 -60 -70 -10 -4 -26 -12 -35 -17 -10 -4
-18 -14 -18 -22 0 -22 43 -22 71 0 18 14 34 18 55 14 18 -3 38 0 54 11 24 16
25 15 25 -3 0 -32 11 -51 30 -51 23 0 35 16 19 25 -7 5 -8 29 -4 71 9 79 -5
84 -65 22 l-40 -43 20 45 c43 98 12 109 -52 18z"/>
<path d="M5140 650 c-63 -63 -46 -174 25 -156 56 14 85 71 69 135 -8 31 -13
36 -41 39 -22 2 -38 -3 -53 -18z m60 -48 c0 -32 -25 -72 -46 -72 -19 0 -18 49
2 78 22 31 44 28 44 -6z"/>
<path d="M2535 623 c-9 -21 -19 -57 -22 -80 -6 -42 -5 -43 22 -43 24 0 26 3
21 24 -3 13 1 43 9 66 19 54 19 70 0 70 -8 0 -22 -17 -30 -37z"/>
<path d="M11366 637 c-41 -25 -96 -98 -96 -128 0 -10 10 -25 22 -33 43 -31
203 -11 203 24 0 16 -6 16 -102 4 -70 -9 -86 -2 -71 31 9 19 14 22 24 14 35
-29 141 29 127 68 -17 50 -47 55 -107 20z m64 -27 c0 -14 -38 -32 -58 -28 -13
3 -10 8 13 21 35 19 45 21 45 7z"/>
<path d="M11808 624 c-32 -17 -48 -43 -48 -78 0 -28 27 -41 67 -31 23 6 24 4
18 -27 -22 -116 -26 -126 -53 -133 -101 -25 -160 -126 -119 -204 33 -65 103
-31 133 64 16 51 18 53 31 35 8 -11 19 -18 24 -15 12 8 12 88 -1 101 -7 7 -5
25 5 55 8 24 19 80 25 123 10 75 9 81 -12 103 -25 27 -33 28 -70 7z m42 -48
c0 -13 -39 -30 -48 -21 -8 7 20 35 34 35 8 0 14 -6 14 -14z m-78 -337 c-22
-57 -32 -74 -47 -74 -27 0 -33 57 -10 91 15 23 75 67 82 60 2 -2 -9 -36 -25
-77z"/>
<path d="M11577 553 c-13 -13 -7 -53 8 -53 21 0 37 34 23 48 -14 14 -22 15
-31 5z"/>
<path d="M10466 534 c-7 -19 10 -44 30 -44 17 0 18 14 4 41 -13 23 -26 24 -34
3z"/>
<path d="M12045 531 c-8 -13 23 -41 46 -41 24 0 24 12 1 33 -21 19 -38 22 -47
8z"/>
</g>
</svg>
