<?xml version="1.0" standalone="no"?>
<!DOCTYPE svg PUBLIC "-//W3C//DTD SVG 20010904//EN"
 "http://www.w3.org/TR/2001/REC-SVG-20010904/DTD/svg10.dtd">
<svg version="1.0" xmlns="http://www.w3.org/2000/svg"
 width="1872.000000pt" height="516.000000pt" viewBox="0 0 1872.000000 516.000000"
 preserveAspectRatio="xMidYMid meet">

<g transform="translate(0.000000,516.000000) scale(0.100000,-0.100000)"
fill="#000000" stroke="none">
<path d="M1835 4673 c-30 -7 -50 -29 -89 -95 -41 -68 -41 -68 -22 -68 8 0 32
29 54 64 32 50 47 65 72 71 17 4 34 5 36 2 7 -6 -40 -186 -71 -274 -26 -76
-32 -137 -14 -148 10 -7 89 70 89 87 0 4 4 8 9 8 5 0 12 -19 15 -43 4 -23 15
-57 26 -75 28 -45 76 -45 115 1 70 83 98 189 106 397 3 59 1 65 -18 68 -19 3
-20 -4 -27 -125 -8 -152 -25 -229 -63 -292 -40 -64 -74 -68 -97 -11 -9 22 -16
51 -16 63 0 33 -22 59 -43 52 -9 -4 -30 -25 -47 -48 -16 -23 -30 -36 -30 -30
0 7 15 58 33 115 45 140 72 252 64 272 -6 16 -38 19 -82 9z"/>
<path d="M15747 4643 c-4 -3 -7 -19 -7 -35 0 -17 -18 -60 -40 -98 l-41 -68
-35 11 c-45 14 -96 -9 -119 -54 -22 -42 -22 -111 -1 -144 18 -27 17 -28 -12
-69 -59 -83 -79 -146 -47 -146 8 0 15 6 15 14 0 8 23 48 52 90 44 65 57 77 87
82 51 9 86 29 110 63 26 36 27 72 2 102 -19 24 -19 24 3 69 43 84 56 121 56
155 0 33 -8 43 -23 28z m-151 -300 c-23 -36 -46 -65 -52 -64 -16 2 -22 46 -10
82 13 39 71 76 92 58 10 -8 3 -25 -30 -76z m92 0 c3 -22 -49 -73 -75 -73 -16
0 -19 -6 33 75 19 29 38 28 42 -2z"/>
<path d="M9700 4613 c0 -30 -71 -210 -91 -232 -11 -11 -32 -21 -47 -21 -26 -1
-70 -25 -61 -34 2 -2 24 -1 49 4 25 5 46 7 47 6 1 -1 -2 -19 -7 -41 -11 -47 3
-114 28 -132 23 -19 63 -15 92 7 33 25 23 32 -24 18 -31 -10 -39 -9 -47 3 -13
22 -15 77 -4 127 4 18 12 22 41 22 42 0 43 23 1 28 -15 2 -27 4 -27 6 0 1 18
50 40 109 43 114 49 147 25 147 -8 0 -15 -8 -15 -17z"/>
<path d="M13010 4568 c-16 -62 -49 -161 -58 -173 -4 -5 -20 -11 -37 -12 -50
-4 -77 -13 -72 -26 2 -7 8 -11 13 -11 5 1 26 4 46 8 l36 7 -34 -82 c-19 -45
-32 -84 -30 -87 14 -14 35 14 61 82 27 72 31 76 60 76 82 0 95 13 25 24 l-40
6 15 37 c21 50 54 181 47 187 -13 14 -22 3 -32 -36z"/>
<path d="M13921 4568 c-10 -24 -36 -85 -57 -137 -42 -101 -53 -111 -125 -111
-21 0 -39 -4 -39 -10 0 -14 46 -23 79 -17 l29 6 -24 -61 c-25 -65 -29 -88 -15
-88 8 0 61 109 61 128 0 16 23 30 64 38 l39 7 -33 -46 c-22 -30 -30 -52 -26
-64 6 -15 11 -13 37 15 35 38 77 67 85 59 3 -2 -2 -32 -10 -65 -19 -73 -19
-72 -1 -72 8 0 15 2 15 4 0 2 7 32 16 65 19 76 8 106 -36 97 l-29 -5 19 32
c27 46 60 151 60 189 0 46 -13 26 -44 -68 -15 -45 -32 -88 -39 -96 -11 -14
-87 -35 -87 -25 0 3 23 57 50 121 28 64 50 123 50 131 0 29 -21 14 -39 -27z"/>
<path d="M9084 4583 c-8 -2 -10 -18 -7 -42 3 -24 -3 -66 -17 -113 l-22 -74
-54 -1 c-30 -1 -54 2 -54 5 0 4 11 43 25 87 27 89 30 108 14 103 -12 -4 -64
-123 -74 -169 -6 -25 -11 -29 -38 -29 -42 0 -77 -10 -77 -21 0 -5 23 -9 50 -9
47 0 50 -1 45 -22 -10 -40 -13 -128 -5 -133 15 -9 30 23 38 83 5 34 11 64 13
66 2 2 27 7 55 11 l51 7 -10 -52 c-10 -54 -2 -77 17 -46 37 60 69 96 91 102
14 4 28 4 31 1 3 -3 -5 -34 -18 -71 -18 -52 -20 -68 -10 -78 8 -8 15 -9 22 -2
13 13 42 130 38 157 -4 30 -49 34 -93 8 -19 -11 -35 -18 -35 -16 0 2 9 28 21
57 22 57 37 182 23 190 -5 3 -14 3 -20 1z"/>
<path d="M12295 4543 c-3 -16 -19 -68 -36 -118 -61 -177 -71 -273 -30 -294 16
-9 18 -4 18 62 0 70 7 96 61 247 11 30 22 72 25 93 5 32 3 37 -13 37 -13 0
-21 -9 -25 -27z"/>
<path d="M17524 4543 c-4 -16 -12 -35 -19 -43 -7 -8 -20 -29 -29 -47 -10 -21
-21 -30 -30 -27 -8 3 -30 -2 -50 -11 -60 -29 -86 -118 -46 -160 l21 -22 -21
-47 c-24 -57 -24 -56 -5 -56 8 0 24 22 36 50 18 41 26 50 46 50 16 0 40 14 64
39 31 31 39 46 39 75 0 22 -7 43 -19 55 -16 16 -16 21 -5 43 7 14 22 48 33 77
17 42 18 51 6 51 -8 0 -18 -12 -21 -27z m-109 -223 c-27 -53 -45 -58 -45 -12
0 27 23 69 44 84 25 17 25 -24 1 -72z m75 24 c0 -23 -46 -82 -56 -72 -2 3 5
28 17 56 22 53 39 60 39 16z"/>
<path d="M11433 4543 c-3 -10 -30 -73 -60 -140 -32 -74 -53 -136 -53 -158 0
-43 15 -38 25 7 4 18 27 73 50 123 23 51 48 108 55 129 6 20 16 36 21 36 5 0
9 5 9 10 0 17 -40 11 -47 -7z"/>
<path d="M4815 4487 c-13 -30 -26 -75 -30 -100 -7 -47 -8 -47 -46 -47 -21 0
-40 -4 -43 -9 -7 -11 17 -21 48 -21 22 0 22 -3 15 -47 -13 -78 -11 -93 10 -93
16 0 20 10 26 60 7 60 24 90 50 90 23 0 105 39 105 50 0 11 -66 4 -108 -11
-22 -9 -23 -8 -16 44 3 28 15 67 25 85 19 33 18 52 -2 52 -6 0 -21 -24 -34
-53z"/>
<path d="M7825 4518 c-72 -205 -106 -367 -74 -356 8 3 17 26 21 60 5 43 56
220 85 296 3 6 -2 12 -11 12 -9 0 -19 -6 -21 -12z"/>
<path d="M15945 4496 c-9 -14 -48 -51 -87 -83 -117 -97 -126 -145 -24 -127
l54 10 -5 -53 c-4 -35 -1 -62 7 -79 17 -30 30 -15 30 36 0 19 3 52 7 73 5 34
8 38 29 33 18 -5 24 -2 24 10 0 9 -9 18 -20 21 -23 6 -23 5 15 110 12 34 20
65 17 68 -12 12 -32 4 -47 -19z m-27 -120 c-12 -38 -24 -47 -83 -60 -27 -6
-25 -2 30 48 33 30 61 53 62 52 1 -1 -3 -19 -9 -40z"/>
<path d="M7500 4478 c0 -35 -15 -100 -30 -133 -10 -20 -50 -135 -50 -142 0
-13 72 -43 104 -43 32 0 44 7 77 42 79 87 24 158 -76 99 -35 -20 -36 -20 -30
-2 3 11 7 28 10 38 2 10 8 39 15 64 14 54 10 101 -7 107 -9 2 -13 -7 -13 -30z
m110 -207 c0 -28 -60 -71 -98 -71 -41 0 -40 15 4 56 42 40 94 48 94 15z"/>
<path d="M11766 4498 c-3 -7 -7 -29 -10 -48 -3 -19 -8 -48 -11 -63 -8 -39 -54
-160 -65 -171 -6 -6 -10 -19 -10 -29 0 -14 5 -18 19 -14 13 3 21 -1 24 -14 7
-24 54 -25 83 -1 28 22 64 94 64 125 0 14 -7 30 -15 37 -13 11 -23 8 -62 -19
-34 -24 -44 -28 -38 -14 4 10 14 43 20 73 7 30 15 62 18 70 3 8 8 30 11 48 4
24 2 32 -10 32 -8 0 -16 -6 -18 -12z m64 -224 c0 -3 -7 -21 -15 -39 -21 -43
-86 -75 -81 -39 4 25 96 100 96 78z"/>
<path d="M16613 4480 c-24 -11 -43 -26 -43 -35 0 -19 -2 -19 55 6 39 17 49 19
56 8 5 -8 9 -17 9 -21 0 -16 -122 -168 -170 -211 -39 -35 -50 -51 -42 -59 8
-8 25 -4 64 14 l53 26 5 -27 c6 -28 35 -40 53 -22 8 8 6 11 -6 11 -13 0 -17 9
-17 36 0 36 -1 36 -32 30 l-32 -6 30 32 c48 51 91 110 110 150 16 35 16 38 0
62 -19 30 -36 31 -93 6z"/>
<path d="M16388 4450 c-46 -29 -61 -50 -37 -50 7 0 27 10 47 22 l35 22 -7 -29
c-12 -47 -70 -128 -134 -186 -34 -31 -62 -59 -62 -62 0 -16 35 -5 70 23 21 17
40 30 43 30 3 0 10 -13 16 -30 11 -33 38 -39 80 -17 36 18 31 32 -11 29 -28
-3 -38 0 -38 11 0 8 -6 20 -14 26 -13 11 -10 19 19 56 32 43 75 140 75 170 0
23 -31 17 -82 -15z"/>
<path d="M17805 4445 c-29 -28 -30 -36 -10 -75 14 -27 14 -30 -3 -39 -29 -15
-56 -74 -48 -104 8 -34 58 -62 85 -47 23 12 37 81 27 127 -6 27 -3 31 42 56
65 35 77 50 62 76 -11 22 -45 27 -70 11 -8 -5 -13 -10 -10 -11 3 0 15 -2 27
-3 39 -4 36 -13 -19 -44 -48 -27 -54 -29 -65 -14 -18 23 -16 40 7 52 14 7 20
7 20 0 0 -5 5 -10 10 -10 16 0 11 37 -6 44 -22 9 -22 9 -49 -19z m25 -164 c0
-39 -9 -61 -25 -61 -24 0 -28 21 -9 56 23 42 34 43 34 5z"/>
<path d="M10387 4453 c-4 -3 -7 -15 -7 -25 0 -22 26 -24 34 -2 10 25 -10 45
-27 27z"/>
<path d="M17094 4441 c-60 -37 -59 -59 1 -31 58 28 75 26 75 -9 0 -43 -56
-110 -126 -151 -75 -43 -94 -58 -94 -77 0 -27 32 -26 75 5 l43 30 6 -24 c9
-33 43 -48 80 -34 19 7 26 15 22 26 -3 9 -6 23 -6 32 0 12 -5 11 -24 -7 -53
-50 -43 40 11 104 38 44 46 67 41 116 -3 31 -6 34 -38 37 -21 1 -47 -5 -66
-17z"/>
<path d="M17622 4368 c-50 -106 -65 -153 -57 -178 10 -31 32 -24 38 13 3 18
23 76 46 128 45 106 48 119 26 119 -8 0 -31 -35 -53 -82z"/>
<path d="M7102 4394 c1 -9 9 -19 16 -22 9 -3 13 2 10 14 -1 9 -9 19 -16 22 -9
3 -13 -2 -10 -14z"/>
<path d="M2239 4365 c-37 -28 -79 -90 -79 -118 0 -27 38 -95 59 -107 35 -18
86 -12 115 15 40 37 33 61 -8 30 -42 -32 -101 -13 -119 38 -5 13 -1 17 16 17
30 0 61 23 86 64 27 44 26 60 -4 74 -32 15 -25 16 -66 -13z m39 -55 c-21 -29
-54 -47 -65 -36 -9 8 54 66 72 66 13 0 12 -5 -7 -30z"/>
<path d="M9725 4369 c-4 -6 -5 -12 -2 -15 7 -7 37 7 37 17 0 13 -27 11 -35 -2z"/>
<path d="M7942 4344 c-24 -10 -39 -27 -57 -66 -31 -65 -31 -80 -2 -113 17 -20
32 -26 63 -27 64 -1 129 46 94 67 -5 3 -21 -2 -35 -11 -28 -18 -82 -21 -97 -6
-17 17 1 49 31 55 16 3 42 17 57 30 26 23 28 27 15 50 -18 34 -30 38 -69 21z
m38 -42 c0 -5 -11 -14 -25 -20 -26 -12 -33 -4 -13 16 14 14 38 16 38 4z"/>
<path d="M10528 4344 c-33 -17 -36 -46 -8 -76 20 -22 27 -48 13 -48 -26 1 -53
14 -53 27 0 20 -34 12 -38 -9 -5 -24 55 -59 93 -56 26 3 30 7 33 35 2 18 -4
43 -12 55 -22 31 -21 35 19 49 19 7 35 19 35 26 0 18 -48 16 -82 -3z"/>
<path d="M14174 4340 c-18 -12 -38 -35 -45 -53 -7 -18 -18 -36 -23 -40 -8 -6
-7 -10 2 -14 6 -2 12 -10 12 -17 0 -22 45 -56 73 -56 36 0 90 23 116 49 43 43
17 56 -30 16 -36 -30 -93 -42 -114 -25 -22 19 -18 40 8 40 23 0 87 56 87 76 0
13 -33 44 -46 44 -5 0 -23 -9 -40 -20z m20 -57 c-16 -12 -32 -23 -36 -23 -15
0 15 48 36 58 33 15 33 -8 0 -35z"/>
<path d="M2925 4336 c-43 -19 -59 -43 -57 -84 3 -43 40 -87 90 -109 30 -12 37
-12 58 2 32 20 31 37 -1 29 -18 -4 -37 1 -65 20 -34 22 -40 32 -40 60 0 37 17
50 55 40 30 -8 41 12 19 37 -20 22 -20 22 -59 5z"/>
<path d="M5734 4315 c-39 -42 -54 -99 -31 -122 18 -18 46 -11 87 24 18 15 28
19 24 10 -7 -20 11 -54 36 -67 23 -12 50 -3 50 17 0 9 -6 13 -13 10 -30 -11
-42 11 -39 72 3 52 0 61 -20 75 -34 24 -57 19 -94 -19z m76 -18 c0 -24 -28
-56 -67 -76 -19 -10 -23 -9 -23 4 0 37 44 95 72 95 12 0 18 -7 18 -23z"/>
<path d="M5023 4328 c-11 -5 -29 -27 -40 -47 -10 -20 -22 -39 -26 -42 -10 -7
9 -58 30 -81 24 -27 62 -22 123 15 38 23 55 40 56 55 1 12 -5 22 -12 22 -8 0
-14 -6 -14 -12 0 -15 -90 -68 -114 -68 -15 0 -36 28 -36 49 0 5 13 12 30 16
52 11 92 84 54 99 -20 8 -24 7 -51 -6z m31 -32 c-3 -8 -17 -22 -31 -31 -24
-16 -24 -16 -14 4 6 11 19 25 29 30 22 13 22 13 16 -3z"/>
<path d="M6848 4321 c-29 -24 -63 -94 -55 -115 11 -27 22 -17 35 29 14 53 50
82 81 66 27 -15 41 7 16 26 -26 18 -48 16 -77 -6z"/>
<path d="M13052 4318 c-36 -39 -47 -84 -28 -113 9 -14 22 -25 29 -25 24 0 84
49 97 80 12 28 11 34 -6 50 -32 31 -66 34 -92 8z m59 -34 c12 -14 9 -20 -20
-46 -42 -37 -59 -26 -37 26 16 39 36 46 57 20z"/>
<path d="M4145 4318 c-29 -17 -43 -38 -55 -81 -13 -46 -5 -77 19 -77 14 0 18
8 18 38 0 52 18 82 54 89 35 7 47 22 28 34 -19 12 -40 11 -64 -3z"/>
<path d="M4304 4312 c-47 -38 -57 -96 -24 -149 22 -37 60 -51 96 -34 36 16 30
34 -8 27 -37 -6 -50 -1 -67 31 -15 30 -15 30 18 25 65 -9 97 53 49 98 -26 24
-37 25 -64 2z m56 -48 c0 -19 -47 -41 -61 -27 -6 6 -2 19 12 37 17 21 24 24
35 15 8 -6 14 -18 14 -25z"/>
<path d="M6462 4321 c-13 -8 -44 -96 -37 -103 2 -2 -7 -17 -20 -33 -30 -36
-37 -29 -55 56 -14 66 -26 81 -58 72 -26 -6 -29 -23 -4 -23 13 0 22 -16 35
-69 17 -66 40 -101 65 -101 14 0 82 102 82 124 0 30 13 46 36 46 29 0 31 15 5
30 -23 12 -32 12 -49 1z"/>
<path d="M10316 4288 c-9 -24 -16 -56 -16 -70 0 -29 18 -48 24 -26 32 119 34
130 20 135 -6 2 -18 -16 -28 -39z"/>
<path d="M11134 4320 c-47 -18 -71 -93 -39 -120 11 -9 22 -9 46 -1 30 10 30
10 25 -17 -3 -15 -8 -46 -11 -69 -6 -38 -9 -42 -25 -33 -10 6 -38 10 -62 10
-35 0 -50 -6 -71 -28 -59 -61 -55 -249 5 -268 39 -12 113 83 147 188 9 28 16
35 28 31 13 -5 15 -2 9 13 -4 10 -8 21 -9 24 0 3 5 43 11 90 21 144 22 147 4
163 -27 23 -36 25 -58 17z m46 -49 c0 -5 -12 -19 -27 -31 -25 -19 -28 -20 -31
-5 -2 9 2 22 8 30 14 17 50 20 50 6z m-48 -246 c-7 -41 -52 -126 -86 -162
l-34 -37 -11 41 c-13 47 -5 128 16 161 12 20 21 23 66 20 46 -3 52 -5 49 -23z"/>
<path d="M6603 4298 c-27 -30 -53 -82 -53 -106 0 -11 7 -26 16 -33 14 -11 22
-10 54 9 32 18 39 19 44 7 14 -38 31 1 39 90 3 31 -21 24 -41 -13 -18 -34 -82
-83 -82 -63 0 25 43 94 61 98 11 3 18 11 16 17 -7 20 -32 17 -54 -6z"/>
<path d="M7240 4290 c-17 -18 -33 -43 -36 -56 -12 -46 39 -71 81 -40 17 12 21
12 33 -5 7 -10 20 -19 28 -19 17 0 19 16 3 26 -7 4 -9 21 -5 45 8 49 -5 50
-48 4 -30 -32 -66 -47 -66 -27 0 17 33 54 57 63 13 5 23 15 20 22 -8 24 -38
18 -67 -13z"/>
<path d="M3106 4295 c-25 -26 -30 -62 -12 -90 19 -29 30 -30 67 -11 25 13 28
12 38 -10 12 -27 51 -33 51 -8 0 8 -4 13 -9 9 -15 -9 -22 28 -12 63 13 42 -5
52 -33 19 -11 -15 -34 -31 -49 -37 -26 -9 -28 -8 -25 12 2 17 12 24 33 28 41
7 40 34 -1 38 -19 2 -38 -3 -48 -13z"/>
<path d="M3860 4281 c-52 -51 -37 -110 35 -142 42 -19 46 -19 82 -3 l38 17
-46 6 c-58 8 -99 34 -99 64 0 27 37 54 53 38 19 -19 28 -12 25 17 -5 41 -49
43 -88 3z"/>
<path d="M7047 4248 c-8 -35 -12 -69 -9 -75 9 -26 21 -11 32 39 6 29 13 63 16
75 5 17 2 23 -9 23 -11 0 -20 -19 -30 -62z"/>
<path d="M9332 4294 c-37 -16 -59 -59 -41 -80 15 -18 49 -17 74 2 18 14 20 12
30 -28 6 -27 16 -43 25 -43 9 0 13 6 10 15 -2 8 -5 35 -5 60 -1 29 -8 53 -20
68 -22 25 -28 26 -73 6z m28 -44 c-28 -21 -33 -20 -24 4 3 9 16 16 28 16 20 0
20 -1 -4 -20z"/>
<path d="M11503 4265 c-30 -59 -29 -71 8 -90 41 -22 87 -12 95 21 11 43 -34
115 -71 114 -5 0 -20 -21 -32 -45z m62 -34 c17 -33 7 -46 -25 -36 -20 7 -25
21 -14 49 9 24 22 19 39 -13z"/>
<path d="M11972 4278 c-32 -18 -52 -36 -52 -48 0 -23 24 -32 56 -20 38 15 46
12 39 -11 -4 -13 0 -27 11 -40 21 -23 37 -24 54 -4 10 12 10 15 -3 15 -27 0
-29 19 -7 65 12 25 19 53 16 62 -6 14 -10 13 -34 -9 -28 -26 -65 -48 -79 -48
-4 1 9 10 30 21 36 19 45 33 29 43 -4 2 -31 -9 -60 -26z"/>
<path d="M4540 4287 c-31 -15 -49 -61 -34 -85 16 -25 53 -27 84 -4 l27 20 27
-34 c37 -47 49 -34 24 24 -20 44 -27 53 -45 54 -5 0 -14 9 -21 19 -15 22 -28
23 -62 6z m25 -59 c-19 -11 -30 -5 -21 11 4 6 14 7 22 4 15 -5 14 -7 -1 -15z"/>
<path d="M3371 4261 c-28 -30 -28 -30 -23 -5 2 14 0 24 -7 24 -6 0 -11 -8 -11
-18 0 -10 -4 -22 -10 -28 -5 -5 -13 -31 -16 -57 -8 -55 7 -63 31 -17 22 42 74
100 91 100 10 0 14 -12 14 -39 0 -49 8 -71 26 -71 20 0 19 89 -2 118 -22 31
-60 28 -93 -7z"/>
<path d="M16025 4199 c-10 -15 1 -23 20 -15 9 3 13 10 10 16 -8 13 -22 13 -30
-1z"/>
<path d="M16774 4199 c-7 -12 15 -31 28 -23 4 3 8 12 8 20 0 17 -26 19 -36 3z"/>
<path d="M8280 4143 c-4 -100 -3 -183 3 -183 4 0 11 0 15 0 5 0 9 17 10 38 1
20 4 54 7 74 7 37 -7 78 -25 78 -6 0 -10 -3 -10 -7z"/>
<path d="M12931 4017 c-14 -23 -36 -73 -51 -112 l-26 -70 -49 -5 c-65 -7 -73
-30 -11 -30 25 0 46 -2 46 -4 0 -2 -9 -29 -21 -59 -15 -38 -26 -54 -35 -50
-19 7 -18 -11 2 -27 21 -18 34 -2 69 83 21 50 33 67 47 67 24 0 58 18 58 30 0
5 -13 7 -30 4 -16 -4 -30 -4 -30 -2 0 14 54 155 66 172 17 25 18 46 2 46 -7 0
-24 -19 -37 -43z"/>
<path d="M4513 4034 c-4 -11 -13 -14 -30 -9 -38 9 -107 -27 -122 -64 -12 -27
-11 -43 8 -120 26 -111 26 -122 0 -155 -24 -31 -40 -32 -80 -9 -41 24 -48 58
-18 89 29 31 4 34 -35 3 -31 -25 -33 -57 -5 -93 48 -61 115 -72 160 -27 35 36
37 72 9 186 -11 44 -20 87 -20 96 0 22 41 58 70 61 23 3 25 -1 25 -34 0 -21 5
-39 10 -40 14 -4 68 100 61 117 -7 20 -25 19 -33 -1z"/>
<path d="M1967 3977 c-3 -19 -15 -66 -27 -105 l-21 -72 -54 0 c-30 0 -55 -4
-55 -9 0 -12 26 -21 62 -21 30 0 30 -1 23 -37 -11 -56 -11 -97 0 -103 5 -3 11
4 13 15 2 11 10 44 19 73 l14 52 45 0 44 0 -20 -50 c-36 -92 -22 -118 25 -49
61 87 122 112 97 39 -11 -30 -7 -60 7 -60 13 0 35 110 25 119 -24 23 -52 21
-83 -5 l-31 -26 11 28 c20 54 41 196 30 207 -16 16 -19 8 -32 -73 -15 -102
-19 -107 -69 -102 -33 3 -40 7 -35 21 13 34 45 156 45 173 0 32 -27 19 -33
-15z"/>
<path d="M3500 3988 c0 -2 -15 -46 -33 -98 l-32 -95 -57 -3 c-80 -4 -74 -32 6
-32 l33 0 -20 -58 c-17 -48 -19 -65 -10 -93 6 -21 12 -28 15 -19 3 8 15 48 28
88 24 74 40 92 82 92 22 0 48 16 48 30 0 3 -18 4 -40 2 l-40 -4 20 58 c21 61
27 134 10 134 -5 0 -10 -1 -10 -2z"/>
<path d="M3707 3958 c-8 -19 -22 -60 -31 -90 -14 -49 -20 -56 -46 -61 -34 -7
-41 -27 -10 -27 24 0 24 -5 4 -61 -18 -51 -20 -97 -4 -113 8 -8 9 -6 5 7 -4 9
-3 17 3 17 6 0 13 10 17 23 23 82 49 137 65 137 9 0 20 3 24 7 4 4 13 8 19 8
30 0 107 31 107 42 0 10 -6 10 -27 2 -16 -6 -41 -13 -58 -15 -16 -2 -38 -7
-49 -10 -16 -5 -18 -2 -13 18 23 90 28 131 19 140 -7 7 -15 0 -25 -24z"/>
<path d="M7285 3978 c-2 -7 -23 -62 -45 -123 -59 -155 -69 -190 -63 -215 9
-36 26 -17 49 56 12 38 35 103 53 146 31 75 41 148 21 148 -6 0 -12 -6 -15
-12z"/>
<path d="M14513 3973 c-27 -76 -47 -124 -67 -163 -28 -53 -48 -119 -39 -133 3
-5 26 11 52 36 57 55 89 73 104 58 8 -8 5 -19 -11 -38 -49 -62 -55 -74 -44
-85 23 -23 99 93 87 133 -13 40 -70 34 -124 -15 l-23 -21 25 51 c55 110 80
194 57 194 -6 0 -13 -8 -17 -17z"/>
<path d="M3146 3972 c-3 -5 -10 -39 -16 -77 -11 -66 -33 -124 -53 -136 -5 -4
-11 -22 -13 -40 -2 -19 -6 -45 -8 -59 -2 -14 -5 -31 -5 -37 -1 -7 -4 -12 -8
-12 -22 4 -25 -3 -7 -16 28 -21 44 -18 44 8 0 12 8 45 19 72 18 49 20 50 70
59 34 6 51 15 51 24 0 12 -9 13 -44 9 l-44 -6 13 52 c19 77 27 155 16 161 -5
4 -12 3 -15 -2z"/>
<path d="M6756 3971 c-5 -7 -14 -65 -32 -191 -5 -40 -49 -119 -71 -127 -41
-16 -30 63 13 92 24 15 33 45 14 45 -17 0 -77 -67 -84 -95 -9 -36 16 -75 49
-75 51 0 117 123 131 245 3 33 12 70 20 81 7 12 10 24 7 28 -9 9 -41 7 -47 -3z"/>
<path d="M12665 3940 c-7 -11 2 -30 13 -30 4 0 8 9 9 20 2 21 -11 27 -22 10z"/>
<path d="M3286 3908 c-2 -7 -24 -79 -50 -160 -44 -138 -55 -205 -31 -201 16 2
116 321 109 349 -7 26 -23 32 -28 12z"/>
<path d="M8250 3870 c-11 -11 -20 -27 -20 -35 0 -8 -16 -19 -39 -25 -66 -17
-63 -49 8 -113 41 -37 81 -54 100 -42 18 10 13 19 -19 33 -37 17 -95 70 -86
80 4 4 33 9 64 12 48 4 57 8 57 25 0 12 -9 21 -25 26 l-25 6 28 12 c16 6 42
11 58 11 19 0 29 5 29 15 0 25 -104 21 -130 -5z"/>
<path d="M11775 3871 c-44 -11 -73 -29 -86 -52 -9 -18 -5 -26 36 -64 44 -42
45 -44 26 -55 -25 -13 -61 2 -61 25 0 8 -4 15 -9 15 -12 0 -21 -26 -13 -35 4
-4 7 -12 7 -18 0 -6 12 -18 27 -27 25 -14 30 -13 63 4 58 31 56 71 -4 111 -17
11 -31 23 -31 27 0 13 78 48 94 42 10 -4 16 -1 16 9 0 12 -25 31 -33 26 -1 -1
-15 -4 -32 -8z"/>
<path d="M16404 3841 c-23 -16 -50 -41 -61 -55 -12 -14 -28 -26 -37 -26 -18 0
-22 -15 -6 -25 6 -3 10 -19 10 -34 0 -32 27 -61 58 -61 25 0 134 54 152 75 17
20 7 19 -75 -10 -88 -31 -105 -32 -105 -2 0 18 10 26 48 39 66 24 104 60 100
96 -4 38 -35 39 -84 3z m46 -26 c-16 -20 -95 -61 -85 -45 10 17 87 71 93 65 3
-2 -1 -12 -8 -20z"/>
<path d="M3945 3848 c-30 -16 -85 -70 -105 -102 -17 -27 -18 -27 -25 -7 -3 12
-10 21 -15 21 -17 0 -42 -62 -36 -89 3 -15 -6 -62 -21 -109 -14 -45 -23 -85
-20 -89 12 -12 35 19 63 83 25 60 32 67 80 90 63 30 121 93 130 142 10 54 -13
81 -51 60z m21 -61 c-5 -22 -99 -107 -118 -107 -17 0 32 77 73 115 43 39 57
36 45 -8z"/>
<path d="M6244 3850 c-11 -4 -37 -27 -57 -50 l-35 -42 -4 28 c-4 38 -28 41
-67 8 -18 -14 -31 -23 -29 -18 2 5 -1 10 -7 12 -15 3 -67 -130 -55 -142 6 -6
16 4 27 24 22 41 82 110 95 110 10 0 8 -22 -8 -84 -11 -47 20 -29 70 40 45 60
91 103 101 93 8 -9 -17 -94 -36 -126 -19 -30 -19 -53 0 -53 11 0 53 91 62 135
12 63 -8 85 -57 65z"/>
<path d="M8890 3845 c-15 -18 0 -26 37 -19 36 7 40 -1 18 -30 -22 -30 -48
-117 -38 -127 5 -5 23 1 43 16 38 28 50 31 50 12 0 -18 32 -47 51 -47 23 0 68
52 79 91 16 53 13 79 -9 79 -15 0 -20 -10 -25 -52 -7 -51 -37 -104 -51 -90 -4
4 -13 22 -20 40 -15 35 -35 41 -55 17 -26 -31 -20 -6 9 41 47 73 43 86 -24 83
-31 -1 -60 -8 -65 -14z"/>
<path d="M9313 3845 c-53 -22 -127 -105 -94 -105 5 0 12 -14 16 -30 8 -35 31
-50 77 -50 39 1 100 29 106 49 4 10 0 12 -14 6 -37 -15 -113 -18 -129 -5 -24
20 -18 29 43 58 40 19 58 33 60 49 5 32 -25 44 -65 28z m36 -29 c-2 -2 -20
-11 -39 -21 l-35 -18 19 22 c11 11 28 21 39 21 11 0 18 -2 16 -4z"/>
<path d="M15033 3845 c-17 -7 -39 -25 -48 -38 -9 -14 -25 -27 -36 -30 -13 -3
-20 -13 -18 -24 1 -10 -1 -26 -6 -36 -4 -10 -3 -23 3 -29 7 -7 22 8 47 48 45
72 60 84 103 84 34 0 36 12 4 29 -11 6 -28 5 -49 -4z"/>
<path d="M15979 3845 c-49 -18 -100 -45 -117 -62 -29 -28 0 -26 64 5 79 39 96
40 62 5 -14 -16 -38 -47 -53 -71 -38 -58 -23 -73 37 -38 54 31 54 31 61 6 15
-58 128 -11 148 62 12 46 7 68 -16 68 -12 0 -15 -6 -10 -19 13 -41 -42 -121
-82 -121 -8 0 -13 12 -13 30 0 38 -19 46 -60 25 l-31 -16 40 51 c64 80 53 106
-30 75z"/>
<path d="M5411 3821 c-29 -31 -51 -90 -51 -135 0 -46 24 -24 37 33 17 79 67
123 101 89 16 -16 21 -7 11 20 -13 33 -63 30 -98 -7z"/>
<path d="M9994 3816 c-47 -47 -48 -104 -4 -148 25 -24 36 -29 58 -24 66 15
119 41 104 50 -7 4 -12 3 -12 -2 0 -5 -11 -7 -25 -4 -14 2 -25 0 -25 -6 0 -14
-71 3 -81 20 -24 37 -4 89 41 108 26 11 33 10 49 -4 22 -20 31 -20 31 -2 0 21
-40 46 -73 46 -20 0 -40 -11 -63 -34z"/>
<path d="M11404 3764 c-57 -58 -87 -82 -98 -78 -10 4 -19 -2 -27 -20 -7 -14
-10 -29 -6 -32 7 -8 44 12 87 48 l35 28 5 -22 c8 -31 46 -35 81 -9 36 27 39
26 39 -3 0 -31 36 -42 50 -15 8 15 7 17 -5 13 -22 -9 -19 34 5 71 20 30 27 65
13 65 -4 0 -26 -20 -48 -44 -47 -49 -93 -82 -102 -72 -9 8 26 82 48 102 19 17
26 55 12 53 -5 0 -45 -38 -89 -85z"/>
<path d="M5194 3820 c-57 -36 -74 -120 -34 -160 23 -23 93 -27 135 -8 41 19
29 26 -35 21 -95 -9 -125 35 -49 72 48 23 69 56 49 80 -16 20 -29 19 -66 -5z
m36 -30 c-12 -22 -50 -46 -50 -31 0 9 47 51 57 51 2 0 -1 -9 -7 -20z"/>
<path d="M10525 3828 c-60 -34 -135 -122 -117 -140 5 -5 27 13 55 45 44 51
100 87 114 73 3 -3 -1 -33 -11 -67 -15 -57 -15 -79 3 -79 4 0 16 33 26 74 15
62 16 77 6 90 -16 19 -48 20 -76 4z"/>
<path d="M5031 3808 c-5 -13 -16 -49 -25 -80 -10 -32 -21 -58 -27 -58 -12 0
-49 61 -49 82 0 23 -19 33 -26 13 -10 -26 25 -105 53 -118 35 -16 50 -2 80 73
14 36 32 70 40 77 8 6 12 16 8 22 -11 19 -45 12 -54 -11z"/>
<path d="M13422 3813 c-67 -33 -92 -99 -47 -129 18 -12 27 -10 72 11 l52 24 3
-27 c2 -15 10 -28 19 -30 13 -2 18 9 23 48 8 57 3 70 -25 70 -10 0 -19 4 -19
9 0 11 -28 41 -38 41 -4 0 -22 -8 -40 -17z m52 -41 c9 -15 -34 -52 -59 -52
-31 0 -31 7 -3 37 22 23 52 30 62 15z"/>
<path d="M14158 3823 c-10 -2 -18 -13 -18 -23 0 -17 4 -18 26 -10 14 6 27 10
30 10 2 0 -6 -20 -18 -44 -26 -54 -20 -81 16 -65 20 9 27 8 46 -11 17 -17 29
-21 53 -16 38 8 48 17 80 78 26 49 25 58 -4 58 -11 0 -24 -18 -39 -56 -21 -52
-25 -55 -54 -52 -25 2 -31 7 -30 26 1 19 -3 23 -22 19 l-23 -4 20 39 c11 21
17 43 14 48 -6 10 -45 12 -77 3z"/>
<path d="M11945 3799 c-74 -35 -97 -110 -47 -149 23 -19 36 -21 88 -17 58 4
119 31 109 47 -3 4 -22 2 -42 -6 -59 -21 -106 -18 -131 9 -29 31 -28 37 7 37
41 0 95 40 99 73 3 23 0 27 -20 27 -13 -1 -41 -10 -63 -21z m55 -14 c0 -8 -61
-37 -67 -32 -3 3 8 12 24 21 29 16 43 19 43 11z"/>
<path d="M13696 3800 c-22 -11 -44 -20 -50 -20 -13 0 -46 -55 -46 -76 0 -23
18 -16 54 20 19 18 47 38 64 44 l29 10 -1 -41 c-1 -53 16 -57 32 -7 16 54 15
68 -7 80 -26 13 -29 13 -75 -10z"/>
<path d="M14765 3801 c-50 -23 -73 -48 -81 -88 -5 -26 -1 -37 19 -57 30 -30
55 -32 120 -10 47 16 67 41 25 31 -65 -17 -109 -19 -123 -7 -24 20 -18 28 23
35 49 8 105 56 95 82 -6 17 -22 33 -33 33 -3 0 -23 -9 -45 -19z m28 -56 c-21
-16 -63 -28 -71 -21 -9 9 20 37 52 50 26 11 32 10 34 -1 2 -8 -5 -21 -15 -28z"/>
<path d="M4514 3791 c-30 -19 -64 -74 -64 -106 0 -44 52 -85 110 -85 29 0 90
24 90 36 0 3 -26 2 -59 -2 -53 -6 -61 -4 -81 16 l-23 23 43 16 c24 9 52 28 62
42 16 22 17 29 7 52 -15 32 -41 35 -85 8z m36 -62 c-40 -34 -66 -39 -51 -10
17 30 64 61 76 50 7 -7 -1 -20 -25 -40z"/>
<path d="M4780 3792 c-24 -19 -61 -117 -53 -139 9 -22 26 -9 30 21 2 16 12 45
21 65 16 31 22 36 50 33 22 -1 32 2 32 12 0 29 -48 34 -80 8z"/>
<path d="M6420 3789 c-59 -49 -79 -118 -40 -139 16 -8 30 -6 64 9 83 36 109
88 66 131 -25 25 -58 25 -90 -1z m71 -42 c7 -12 1 -22 -23 -40 -65 -50 -103
-28 -54 30 27 32 62 37 77 10z"/>
<path d="M7420 3797 c-14 -7 -38 -36 -53 -64 -26 -49 -27 -54 -13 -86 26 -62
74 -76 141 -39 36 19 70 61 58 73 -7 7 -26 -1 -62 -26 -60 -40 -86 -44 -101
-16 -14 28 -13 41 8 48 9 3 36 24 59 46 34 33 40 44 32 59 -11 21 -34 23 -69
5z m11 -45 c-5 -10 -18 -25 -27 -33 -16 -13 -16 -12 0 19 9 17 21 32 27 32 6
0 6 -6 0 -18z"/>
<path d="M10265 3796 c-61 -27 -84 -84 -43 -110 13 -7 26 -6 52 6 34 17 35 17
38 -5 2 -12 10 -23 18 -25 25 -4 20 113 -6 133 -23 17 -22 17 -59 1z m45 -35
c0 -9 -52 -51 -64 -51 -11 0 -6 16 12 38 17 22 52 30 52 13z"/>
<path d="M6944 3773 c-34 -53 -105 -122 -120 -116 -20 8 -17 -14 4 -26 13 -8
25 -2 55 27 l37 36 0 -27 c0 -39 33 -35 86 9 l44 35 0 -34 c0 -43 21 -65 41
-41 9 11 10 17 2 22 -7 4 -13 27 -15 51 -2 25 -8 46 -14 48 -6 2 -32 -17 -59
-43 -27 -25 -51 -41 -53 -36 -2 6 6 32 17 58 12 26 21 50 21 55 0 19 -29 8
-46 -18z"/>
<path d="M13836 3793 c-10 -10 -7 -98 4 -109 6 -6 -14 -45 -56 -108 -38 -59
-64 -108 -62 -120 4 -25 19 -25 33 0 24 42 147 223 186 271 38 49 44 74 16 73
-7 -1 -28 -22 -47 -48 l-35 -47 -3 42 c-3 38 -21 61 -36 46z"/>
<path d="M14083 3788 c-25 -12 -31 -28 -10 -28 29 0 57 13 57 26 0 16 -16 17
-47 2z"/>
<path d="M15147 3779 c-46 -27 -62 -124 -27 -159 35 -35 114 -20 170 31 41 38
28 48 -27 20 -22 -10 -55 -22 -75 -26 -30 -6 -38 -4 -47 13 -16 30 -13 42 10
42 47 0 101 52 84 80 -8 13 -65 12 -88 -1z m53 -24 c0 -2 -13 -11 -30 -20 -33
-17 -38 -14 -14 9 14 15 44 22 44 11z"/>
<path d="M2282 3765 c-27 -20 -52 -66 -52 -98 0 -33 36 -77 64 -77 48 0 126
38 126 61 0 4 -27 -2 -60 -14 -46 -17 -64 -19 -77 -11 -26 16 -29 44 -4 44 30
0 93 59 89 84 -4 27 -54 33 -86 11z m29 -45 c-40 -34 -51 -32 -27 5 10 15 26
25 39 25 20 -1 19 -3 -12 -30z"/>
<path d="M12566 3740 c-30 -45 -32 -56 -12 -63 16 -6 66 59 66 86 0 30 -26 18
-54 -23z"/>
<path d="M2806 3551 c-4 -5 -1 -11 5 -13 8 -3 1 -31 -22 -86 -27 -67 -38 -84
-59 -89 -55 -13 -70 -48 -16 -38 l33 7 -5 -71 c-5 -79 10 -116 51 -126 33 -9
78 11 74 32 -3 18 -8 23 -28 23 -6 0 -9 -7 -5 -15 6 -18 -16 -20 -45 -5 -15 9
-19 21 -19 63 0 78 8 97 39 97 41 0 71 11 71 26 0 10 -11 12 -45 7 -25 -3 -45
-3 -45 0 0 4 11 36 25 72 13 36 20 63 15 60 -6 -3 -10 -1 -10 4 0 6 5 11 10
11 6 0 10 11 10 25 0 25 -23 35 -34 16z"/>
<path d="M9811 3541 c-6 -10 -17 -66 -26 -124 -27 -181 -62 -263 -118 -278
-58 -16 -75 17 -34 64 26 31 44 34 49 10 2 -14 5 -14 14 -2 18 22 -1 59 -29
59 -37 0 -87 -69 -87 -120 0 -29 43 -53 80 -45 44 10 99 61 122 114 10 24 28
101 39 170 11 69 27 133 35 142 8 9 11 19 7 22 -13 13 -42 7 -52 -12z"/>
<path d="M8173 3479 c-2 -51 0 -60 14 -57 13 2 17 17 20 61 3 49 1 57 -14 57
-15 0 -18 -10 -20 -61z"/>
<path d="M12354 3513 c-3 -10 -27 -65 -53 -123 l-47 -105 -62 -5 c-77 -6 -82
-24 -8 -28 l55 -3 -21 -34 c-24 -41 -49 -121 -41 -129 9 -9 33 14 33 31 0 27
81 142 103 145 27 4 35 28 9 28 -19 0 -18 5 15 82 38 88 53 158 34 158 -6 0
-14 -8 -17 -17z"/>
<path d="M12500 3511 c0 -20 -88 -204 -139 -289 -51 -87 -40 -105 30 -47 23
20 51 41 62 47 17 9 19 8 12 -8 -22 -55 -26 -76 -21 -91 5 -12 15 1 36 46 17
35 30 69 30 77 0 21 -53 17 -80 -6 -13 -11 -24 -19 -26 -18 -1 2 26 61 62 133
64 130 77 175 49 175 -8 0 -15 -8 -15 -19z"/>
<path d="M4296 3469 c-9 -28 -18 -74 -22 -103 -11 -89 -42 -179 -74 -216 l-31
-35 4 92 c3 69 1 95 -9 104 -13 11 -15 8 -101 -129 -8 -13 -16 -22 -19 -20 -2
3 7 58 21 124 14 65 25 143 25 172 0 45 -3 52 -20 52 -11 0 -20 -4 -20 -10 0
-5 5 -10 10 -10 12 0 7 -36 -26 -204 -27 -133 -31 -196 -11 -196 13 1 63 65
93 120 l19 35 10 -80 c9 -68 13 -80 29 -80 46 0 110 143 152 337 20 90 20 92
0 96 -10 2 -20 -13 -30 -49z"/>
<path d="M5695 3461 c5 -17 -36 -150 -84 -270 -24 -59 -24 -96 -2 -96 9 0 15
11 16 30 0 17 9 48 19 70 32 72 88 256 82 271 -8 22 -39 18 -31 -5z"/>
<path d="M15927 3400 c-41 -87 -87 -213 -87 -241 0 -18 27 -29 78 -29 41 0
100 52 108 96 8 42 -15 50 -73 23 -25 -11 -47 -19 -49 -16 -2 2 16 52 41 111
47 114 53 136 33 136 -7 0 -30 -36 -51 -80z m63 -190 c-13 -24 -54 -42 -84
-38 -17 3 -13 8 24 30 56 34 75 37 60 8z"/>
<path d="M5822 3458 c2 -6 -16 -68 -40 -137 -67 -191 -79 -238 -65 -252 10
-10 13 -9 16 2 2 8 18 57 36 109 54 158 83 260 77 276 -6 17 -29 19 -24 2z"/>
<path d="M15580 3460 c-20 -12 -5 -24 16 -12 9 5 12 12 7 15 -5 3 -15 2 -23
-3z"/>
<path d="M16225 3450 c5 -14 -12 -53 -54 -129 -66 -118 -78 -171 -42 -190 25
-14 30 -6 24 34 -4 27 6 52 57 144 47 85 61 117 56 136 -4 17 -13 25 -27 25
-16 0 -19 -4 -14 -20z"/>
<path d="M6655 3363 c-15 -49 -38 -113 -51 -145 -13 -31 -26 -75 -30 -97 -5
-34 -4 -41 10 -41 9 0 16 8 16 20 0 11 10 46 21 78 77 207 94 272 70 272 -4 0
-20 -39 -36 -87z"/>
<path d="M13453 3415 c-46 -20 -67 -57 -58 -103 12 -66 11 -76 -15 -88 -30
-16 -53 -1 -45 27 8 25 -7 24 -29 0 -31 -34 13 -80 69 -72 32 5 75 41 75 63 0
11 -5 39 -12 61 -11 38 -11 41 16 64 18 15 35 22 45 18 9 -4 22 -9 29 -12 20
-9 14 35 -7 47 -25 13 -29 12 -68 -5z"/>
<path d="M11107 3403 c-4 -3 -7 -12 -7 -20 0 -15 26 -18 34 -4 7 11 -18 33
-27 24z"/>
<path d="M1930 3359 c-30 -17 -56 -34 -58 -39 -2 -5 -10 -6 -18 -3 -9 3 -14
-2 -14 -16 0 -12 2 -21 5 -21 2 0 34 16 70 36 l66 36 -22 -58 c-12 -33 -33
-78 -46 -101 -37 -63 -18 -82 37 -37 17 15 32 25 33 23 2 -2 10 -21 20 -41 24
-53 57 -52 97 4 40 55 55 106 44 153 -13 54 -29 43 -30 -22 0 -46 -6 -67 -28
-100 -16 -24 -32 -43 -37 -43 -5 0 -19 21 -31 48 -15 31 -28 46 -39 44 -15 -2
-13 6 8 58 24 61 27 101 8 106 -5 2 -35 -11 -65 -27z"/>
<path d="M5520 3370 c0 -5 7 -10 15 -10 8 0 15 5 15 10 0 6 -7 10 -15 10 -8 0
-15 -4 -15 -10z"/>
<path d="M14990 3318 c-51 -83 -110 -159 -119 -153 -5 2 -17 36 -26 75 -9 39
-21 73 -26 76 -15 9 -21 -22 -11 -60 6 -22 7 -38 1 -42 -14 -8 -11 -36 3 -32
7 3 17 -4 23 -15 19 -37 40 -42 73 -18 35 24 142 179 142 205 0 32 -29 15 -60
-36z"/>
<path d="M13787 3294 c-13 -27 -36 -70 -51 -96 -42 -72 -14 -67 60 12 37 39
69 69 71 67 2 -2 -4 -21 -13 -42 -24 -57 -6 -63 66 -21 33 20 63 36 65 36 2 0
3 -14 3 -30 -2 -47 17 -58 31 -19 15 44 14 64 -5 80 -13 11 -23 9 -66 -15 -54
-30 -66 -29 -48 4 8 15 9 25 2 32 -11 11 -63 2 -59 -10 1 -4 -2 -9 -8 -10 -5
-2 -16 -9 -24 -15 -10 -9 -9 -2 3 22 12 22 14 37 8 43 -7 7 -18 -5 -35 -38z"/>
<path d="M15113 3293 c-23 -26 -43 -55 -43 -64 0 -26 27 -42 59 -36 27 6 30 4
33 -25 4 -39 28 -51 28 -14 0 14 5 46 12 71 7 24 9 47 5 51 -3 4 -22 -7 -42
-25 -33 -29 -65 -41 -65 -23 0 10 56 69 76 80 17 10 11 32 -8 32 -6 0 -31 -21
-55 -47z"/>
<path d="M9016 3309 c-42 -33 -100 -119 -120 -179 -10 -30 -34 -92 -53 -138
-20 -46 -33 -86 -29 -89 18 -18 70 69 102 170 18 58 27 69 38 42 7 -20 46 -19
73 3 25 19 83 137 83 168 0 46 -49 58 -94 23z m60 -34 c-20 -81 -64 -135 -106
-132 -27 2 -44 17 -19 17 5 0 8 4 5 9 -7 12 47 95 75 115 35 24 52 21 45 -9z"/>
<path d="M13560 3310 c-12 -11 -26 -20 -29 -20 -4 0 -15 -14 -25 -31 -17 -29
-17 -31 0 -51 14 -15 27 -19 51 -15 30 5 33 4 27 -17 -6 -25 29 -66 41 -47 3
6 4 15 0 20 -3 5 4 32 15 60 19 49 19 52 2 83 -22 40 -50 46 -82 18z m58 -38
c2 -15 -6 -25 -28 -37 -17 -9 -39 -15 -48 -13 -12 2 -9 11 17 41 36 40 54 43
59 9z"/>
<path d="M15365 3313 c-17 -9 -41 -25 -53 -37 -28 -25 -64 -91 -55 -100 12
-12 33 -6 33 9 0 8 9 24 20 35 11 11 20 24 20 30 0 12 41 35 56 32 13 -3 26
35 16 42 -4 2 -21 -3 -37 -11z"/>
<path d="M16368 3323 c-10 -2 -34 -27 -55 -56 -65 -88 -47 -156 41 -157 43 0
122 35 131 58 9 23 -2 26 -29 9 -38 -25 -128 -33 -145 -13 -19 23 -7 44 22 39
13 -3 42 4 65 16 84 43 59 129 -30 104z m47 -42 c7 -12 -43 -51 -66 -51 -24 0
-24 12 -1 32 28 25 58 33 67 19z"/>
<path d="M12645 3296 c-36 -16 -60 -41 -74 -78 -15 -39 4 -86 36 -94 34 -9
115 8 121 24 3 10 -9 12 -56 6 -54 -6 -61 -4 -71 14 -16 29 -14 32 15 32 38 0
95 30 104 54 10 26 -5 56 -28 56 -9 -1 -30 -7 -47 -14z m45 -26 c0 -15 -47
-42 -67 -38 -14 3 -11 9 17 26 39 24 50 27 50 12z"/>
<path d="M8305 3285 c-16 -9 -37 -24 -47 -35 -9 -11 -20 -20 -25 -20 -9 0 -63
-115 -63 -135 0 -36 23 -21 45 29 13 30 41 74 61 96 35 38 40 41 76 35 32 -6
37 -4 32 9 -5 14 -34 36 -46 36 -2 0 -16 -7 -33 -15z"/>
<path d="M2480 3268 c-19 -13 -37 -26 -38 -31 -2 -4 -15 -21 -28 -36 -22 -26
-32 -61 -18 -61 3 0 28 25 56 55 67 74 79 72 71 -9 -3 -40 -2 -66 5 -70 14 -9
22 19 25 93 1 46 -2 64 -13 71 -20 13 -20 13 -60 -12z"/>
<path d="M4358 3263 c-42 -44 -51 -78 -32 -119 22 -45 43 -56 106 -52 73 4 77
28 5 28 -40 0 -58 5 -70 18 -21 23 -21 32 -3 32 8 0 26 14 41 31 53 63 9 121
-47 62z m42 -12 c0 -14 -49 -68 -50 -55 0 11 38 64 46 64 2 0 4 -4 4 -9z"/>
<path d="M5185 3268 c-22 -11 -48 -28 -57 -38 -9 -10 -23 -20 -30 -23 -7 -2
-10 -8 -6 -12 5 -5 30 4 58 19 27 15 50 25 50 21 0 -3 -16 -29 -35 -58 -60
-88 -42 -119 38 -64 l50 35 16 -31 c20 -39 34 -43 59 -17 25 27 57 149 43 163
-19 19 -39 -13 -46 -73 -7 -61 -35 -107 -35 -57 0 51 -37 55 -99 10 -19 -14
-14 -2 22 52 26 38 47 75 47 82 0 19 -29 15 -75 -9z"/>
<path d="M6822 3279 c-42 -13 -48 -29 -32 -95 12 -49 12 -56 -5 -74 -17 -18
-20 -19 -33 -6 -13 12 -13 18 -2 31 18 22 7 28 -24 14 -17 -8 -26 -20 -26 -35
0 -25 43 -64 70 -64 43 0 71 82 50 145 -15 45 -4 59 45 58 37 -1 43 5 23 25
-14 14 -20 14 -66 1z"/>
<path d="M8695 3269 c-39 -23 -41 -53 -7 -92 12 -14 13 -20 3 -30 -10 -9 -15
-8 -27 8 -14 18 -15 18 -32 1 -16 -16 -16 -18 7 -37 30 -24 52 -24 85 2 31 25
32 38 6 72 -25 31 -25 34 1 47 15 9 24 8 35 0 11 -10 15 -9 20 4 4 9 4 19 1
22 -11 12 -74 13 -92 3z"/>
<path d="M9385 3229 c-53 -50 -69 -79 -43 -79 7 0 31 21 54 48 23 26 45 44 49
40 4 -3 -3 -28 -14 -53 -12 -26 -21 -56 -21 -66 0 -39 19 -17 46 52 20 52 25
75 18 87 -19 29 -33 24 -89 -29z"/>
<path d="M10531 3236 c-17 -24 -44 -55 -61 -70 -30 -24 -33 -53 -5 -42 7 2 15
-4 18 -15 7 -28 46 -24 80 9 l29 27 -4 -35 c-3 -37 13 -49 42 -30 13 9 13 11
1 19 -12 8 -11 18 6 65 13 35 17 59 11 62 -6 4 -36 -19 -67 -50 -31 -31 -60
-56 -64 -56 -14 0 4 43 33 80 16 19 31 45 35 58 11 39 -21 26 -54 -22z"/>
<path d="M10825 3273 c-54 -13 -69 -57 -35 -108 26 -40 25 -45 -10 -45 -17 0
-30 5 -30 13 0 6 -7 3 -16 -8 -13 -18 -13 -21 3 -32 26 -20 80 -16 103 7 21
21 19 37 -13 83 -18 26 -18 29 -3 46 10 10 30 21 47 25 16 3 29 10 29 16 0 10
-38 12 -75 3z"/>
<path d="M15645 3262 c-16 -11 -41 -31 -54 -46 -22 -24 -23 -28 -10 -42 14
-13 21 -13 67 5 51 20 52 20 52 1 0 -23 35 -44 58 -35 15 6 14 8 -5 15 -16 7
-23 21 -30 62 -9 61 -28 71 -78 40z m45 -22 c0 -11 -60 -44 -67 -36 -3 3 10
14 28 25 39 24 39 24 39 11z"/>
<path d="M2242 3250 c-36 -22 -58 -60 -49 -84 8 -20 49 -20 87 -1 30 15 30 15
30 -14 0 -37 17 -49 38 -27 12 12 13 16 3 16 -10 0 -12 11 -7 45 6 34 4 45 -6
45 -8 0 -21 9 -31 20 -21 25 -24 25 -65 0z m37 -52 c-12 -10 -28 -18 -37 -18
-11 0 -8 8 13 30 21 22 31 27 37 18 5 -8 0 -20 -13 -30z"/>
<path d="M6343 3237 c-27 -25 -36 -42 -36 -65 0 -57 44 -80 88 -46 18 14 20
13 25 -6 9 -37 25 -27 28 18 2 23 7 42 13 42 18 0 9 47 -14 68 -33 31 -61 27
-104 -11z m90 -13 c10 -11 -4 -32 -40 -60 -27 -21 -37 -24 -43 -13 -21 34 55
101 83 73z"/>
<path d="M14185 3255 c-46 -20 -80 -65 -76 -100 4 -42 27 -75 53 -75 35 0 146
41 152 56 7 17 -3 17 -79 -1 -84 -20 -95 -19 -95 9 0 20 6 24 40 30 48 8 106
55 97 79 -8 20 -49 21 -92 2z m55 -20 c0 -9 -62 -36 -73 -32 -7 3 4 12 23 20
37 17 50 20 50 12z"/>
<path d="M6998 3249 c-10 -5 -18 -15 -18 -20 0 -6 -9 -22 -20 -36 -29 -37 -27
-90 4 -104 20 -9 31 -7 63 10 54 31 74 69 58 109 -12 28 -41 52 -62 52 -4 0
-16 -5 -25 -11z m59 -83 c-4 -12 -65 -56 -78 -56 -21 0 -7 56 19 82 l27 27 18
-21 c10 -12 16 -26 14 -32z"/>
<path d="M8441 3233 c-72 -37 -88 -84 -45 -128 24 -23 110 -20 124 4 10 21 -3
40 -15 21 -12 -19 -73 -12 -85 10 -9 16 -8 20 6 20 35 0 96 24 105 43 8 14 6
23 -7 38 -22 24 -20 24 -83 -8z m54 -22 c-6 -5 -21 -12 -35 -15 -24 -7 -24 -6
-6 8 21 17 57 23 41 7z"/>
<path d="M9164 3226 c-61 -61 -35 -138 34 -102 39 20 49 34 57 80 13 65 -36
77 -91 22z m42 -62 c-6 -17 -36 -19 -36 -2 0 6 8 20 18 31 15 17 17 17 20 3 2
-10 1 -24 -2 -32z"/>
<path d="M11241 3239 c-42 -25 -131 -118 -131 -136 0 -24 24 -13 51 23 26 33
99 97 105 91 2 -1 -4 -24 -14 -49 -9 -26 -13 -50 -9 -55 11 -10 28 18 22 35
-3 7 0 10 5 7 6 -3 10 -5 10 -3 0 2 7 21 14 43 10 28 11 44 4 53 -14 16 -17
15 -57 -9z"/>
<path d="M11408 3233 c-42 -35 -48 -43 -48 -71 0 -34 40 -49 79 -29 l31 15 0
-71 c0 -116 -1 -117 -74 -110 -101 9 -156 -36 -156 -129 0 -130 79 -189 153
-114 36 36 87 128 87 157 0 23 19 34 33 20 6 -6 20 -11 31 -11 19 1 19 2 -6
24 -15 13 -31 25 -36 27 -5 3 -7 59 -3 139 4 74 5 145 3 158 -6 32 -52 29 -94
-5z m60 -35 c-15 -22 -68 -44 -68 -28 0 13 51 50 68 50 13 0 13 -3 0 -22z
m-39 -264 c30 -6 32 -9 25 -38 -15 -73 -86 -166 -125 -166 -64 0 -78 168 -16
198 26 12 71 15 116 6z"/>
<path d="M5454 3213 c-18 -44 -23 -87 -10 -91 9 -3 46 90 46 115 0 26 -20 12
-36 -24z"/>
<path d="M15440 3221 c-13 -24 -13 -68 -1 -76 10 -5 15 6 26 63 7 36 -8 44
-25 13z"/>
<path d="M10980 3160 c-12 -17 -20 -38 -18 -47 4 -23 28 -29 28 -6 0 10 9 29
20 43 23 30 25 40 6 40 -8 0 -24 -14 -36 -30z"/>
<path d="M2956 3134 c-35 -34 -7 -46 44 -19 17 9 30 20 30 25 0 16 -57 11 -74
-6z"/>
<path d="M10398 3114 c-28 -15 -34 -25 -22 -37 10 -10 64 22 64 38 0 18 -7 18
-42 -1z"/>
<path d="M16649 3114 c-10 -13 -10 -17 2 -25 18 -11 33 -6 37 13 4 22 -24 30
-39 12z"/>
<path d="M17622 2669 c-25 -13 -55 -39 -72 -64 -31 -44 -78 -157 -100 -237
-11 -44 -15 -47 -48 -50 -46 -4 -56 -28 -12 -28 22 0 31 -4 27 -12 -2 -7 -19
-46 -37 -86 -57 -127 -13 -102 52 30 25 51 38 67 55 67 20 1 45 21 26 21 -29
1 -33 17 -17 71 59 198 122 275 222 267 52 -3 66 12 27 30 -38 17 -75 15 -123
-9z"/>
<path d="M6433 2588 c-21 -27 -63 -120 -57 -129 3 -5 1 -9 -4 -9 -5 0 -15 -18
-22 -41 -8 -22 -18 -43 -24 -46 -5 -4 -37 -9 -69 -12 -38 -4 -62 -11 -65 -19
-3 -11 9 -13 57 -10 34 1 61 0 61 -3 0 -3 -9 -32 -21 -65 -11 -32 -21 -83 -21
-113 -1 -47 3 -58 25 -77 24 -20 67 -24 67 -5 -1 17 -19 32 -35 29 -38 -7 -37
72 2 184 19 52 19 53 139 63 136 13 122 39 -18 33 l-85 -3 24 57 c13 32 23 62
23 67 0 6 14 30 30 54 17 25 30 48 30 51 0 11 -27 6 -37 -6z"/>
<path d="M16942 2574 c-5 -11 -15 -37 -22 -59 -7 -22 -28 -75 -48 -117 -33
-75 -36 -78 -68 -78 -40 0 -45 -17 -9 -26 23 -6 24 -8 11 -33 -23 -43 -36
-103 -27 -119 6 -11 19 6 46 66 37 80 39 82 74 83 20 1 28 3 18 6 -9 2 -15 9
-12 14 4 5 -1 9 -11 9 -19 0 -20 -3 37 143 28 75 38 112 31 119 -7 7 -13 4
-20 -8z"/>
<path d="M13460 2458 c-38 -118 -67 -179 -121 -260 -51 -74 -33 -85 31 -20 56
57 110 98 110 84 0 -5 -7 -29 -15 -52 -18 -51 -20 -93 -3 -88 12 4 48 118 48
151 0 26 -28 32 -62 12 -29 -17 -30 -17 -20 1 23 43 92 255 87 264 -14 22 -23
6 -55 -92z"/>
<path d="M11796 2528 c-8 -13 -22 -50 -31 -83 -39 -140 -67 -216 -80 -211 -17
6 -70 -28 -90 -58 -32 -48 0 -116 43 -90 30 19 90 117 116 189 30 85 80 247
81 259 0 20 -25 16 -39 -6z m-136 -373 c-33 -48 -50 -57 -50 -26 0 27 38 71
61 71 18 0 17 -4 -11 -45z"/>
<path d="M1965 2509 c-10 -17 -27 -59 -40 -93 l-23 -61 -94 -1 c-72 0 -93 -4
-93 -14 0 -8 14 -17 31 -21 17 -3 51 -17 75 -30 56 -31 54 -50 -12 -107 -52
-46 -62 -72 -29 -72 12 0 20 -7 20 -16 0 -28 24 -9 50 39 17 33 36 51 60 61
33 14 36 14 57 -10 13 -14 26 -37 29 -52 10 -47 14 -54 27 -49 6 2 11 15 9 28
-1 13 -5 47 -8 76 -6 50 -6 52 27 68 52 27 159 98 159 107 0 4 -45 4 -100 1
l-100 -6 -2 34 c-1 19 -2 58 -2 88 -1 64 -18 76 -41 30z m15 -121 c0 -21 -5
-28 -20 -28 -23 0 -24 3 -8 47 13 37 28 27 28 -19z m0 -88 c0 -36 -27 -54 -53
-35 -13 9 -16 20 -11 39 5 21 12 26 35 26 25 0 29 -4 29 -30z m120 23 c-8 -3
-32 -14 -52 -25 l-38 -18 0 25 c0 24 3 25 53 24 28 0 45 -3 37 -6z m-210 -12
c0 -17 -14 -18 -40 -5 l-25 14 33 0 c17 0 32 -4 32 -9z m-66 -176 c-6 -16 -24
-21 -24 -7 0 11 11 22 21 22 5 0 6 -7 3 -15z"/>
<path d="M10696 2477 c-48 -157 -61 -173 -146 -179 -49 -4 -44 -22 8 -26 23
-2 42 -7 42 -11 0 -4 -9 -34 -20 -67 -11 -32 -18 -64 -16 -71 9 -23 24 -14 32
20 10 49 56 136 74 141 8 2 33 7 54 11 46 8 32 25 -21 25 l-31 0 34 95 c37
104 41 125 22 125 -7 0 -22 -28 -32 -63z"/>
<path d="M3021 2505 c-3 -47 -4 -55 -12 -55 -4 0 -13 -24 -19 -52 -7 -29 -30
-111 -51 -182 -21 -70 -36 -132 -33 -137 10 -16 20 -9 36 25 21 44 76 106 94
106 19 0 18 -48 -1 -93 -8 -20 -15 -46 -15 -57 0 -11 7 -20 15 -20 8 0 15 8
15 19 0 10 7 35 15 54 42 100 -11 168 -79 101 l-26 -27 15 49 c47 153 76 274
69 286 -10 16 -22 7 -23 -17z"/>
<path d="M12401 2504 c-10 -12 -11 -18 -2 -23 24 -15 -68 -285 -93 -275 -12 5
-29 -22 -41 -64 -9 -32 20 -62 60 -62 45 0 96 38 111 83 16 47 9 66 -27 74
-25 5 -27 8 -18 29 10 29 49 215 49 238 0 20 -21 20 -39 0z m14 -304 c9 -15
-59 -80 -84 -80 -16 0 -19 3 -12 13 6 6 22 27 37 45 26 32 48 40 59 22z"/>
<path d="M11366 2499 c-3 -8 -15 -43 -26 -79 -12 -36 -40 -113 -62 -173 -27
-72 -38 -115 -34 -132 8 -33 36 -33 36 0 0 14 16 67 35 116 19 50 35 98 35
108 0 9 10 46 22 84 16 51 19 70 10 79 -9 9 -13 8 -16 -3z"/>
<path d="M13323 2498 c-4 -7 -8 -15 -8 -18 -1 -3 -8 -18 -17 -35 -8 -16 -20
-46 -27 -65 -10 -34 -16 -37 -82 -55 -80 -22 -94 -29 -86 -42 4 -6 30 -5 69 3
34 7 65 11 67 8 3 -3 -15 -44 -39 -92 -48 -94 -51 -103 -33 -109 11 -4 77 118
100 183 9 27 19 34 62 45 63 16 73 34 19 36 -22 1 -42 4 -45 6 -2 3 7 33 21
68 15 34 26 66 26 71 0 12 -18 10 -27 -4z"/>
<path d="M8346 2458 c-23 -51 -77 -236 -82 -282 -3 -27 0 -48 10 -61 15 -19
15 -19 16 6 0 14 18 86 40 160 47 154 57 209 42 209 -6 0 -18 -15 -26 -32z"/>
<path d="M11240 2473 c-9 -11 -10 -18 -3 -20 6 -2 -14 -60 -49 -140 -43 -99
-58 -145 -56 -171 3 -39 28 -58 28 -22 0 12 20 70 45 129 47 112 75 194 75
224 0 21 -20 22 -40 0z"/>
<path d="M2675 2469 c-27 -5 -81 -12 -118 -15 -43 -4 -66 -11 -64 -18 5 -14
85 -13 209 4 71 10 109 11 143 3 46 -10 95 -7 95 7 0 19 -189 33 -265 19z"/>
<path d="M8090 2452 c0 -10 -4 -22 -9 -27 -17 -20 -99 -242 -104 -287 -6 -41
-4 -49 15 -63 68 -47 198 37 198 127 0 55 -44 62 -110 18 -24 -16 -45 -28 -47
-27 -1 2 16 49 38 106 49 126 59 171 35 171 -9 0 -16 -8 -16 -18z m70 -247 c0
-32 -25 -66 -65 -85 -87 -42 -98 -19 -25 52 49 47 90 62 90 33z"/>
<path d="M16520 2446 c0 -9 7 -16 16 -16 9 0 14 5 12 12 -6 18 -28 21 -28 4z"/>
<path d="M2707 2423 c-4 -3 -7 -20 -7 -37 0 -17 -14 -78 -30 -136 -37 -130
-50 -225 -29 -218 8 3 17 24 20 49 4 25 21 97 38 161 38 142 41 215 8 181z"/>
<path d="M7710 2385 c-7 -8 -10 -19 -6 -22 9 -9 38 8 38 22 -1 16 -18 16 -32
0z"/>
<path d="M9240 2391 c0 -9 24 -21 41 -21 5 0 9 7 9 15 0 9 -9 15 -25 15 -14 0
-25 -4 -25 -9z"/>
<path d="M15513 2365 c-39 -18 -57 -33 -70 -59 -16 -34 -16 -37 2 -56 13 -14
31 -20 62 -20 l43 0 0 -89 0 -88 -84 -5 c-135 -7 -171 -48 -164 -186 3 -66 6
-77 31 -98 27 -23 29 -23 65 -8 45 18 117 87 142 134 10 20 21 57 25 83 4 26
10 47 14 47 8 0 -2 257 -11 266 -5 4 -16 0 -26 -9 -18 -17 -63 -23 -75 -11 -5
5 18 64 26 64 1 0 20 7 42 14 28 10 44 11 53 4 18 -16 25 -3 12 21 -14 27 -23
26 -87 -4z m27 -362 c0 -61 -101 -195 -156 -209 -37 -9 -45 9 -42 93 4 84 20
108 82 122 72 16 116 13 116 -6z"/>
<path d="M5292 2333 c-47 -23 -86 -93 -79 -140 9 -52 38 -78 83 -75 47 4 58
10 43 28 -8 10 -8 14 0 14 6 0 11 5 11 10 0 15 -16 12 -34 -6 -22 -21 -54 -9
-62 23 -8 32 17 87 51 109 24 16 38 15 78 -1 14 -6 16 -3 11 11 -9 24 -33 44
-53 44 -9 0 -31 -8 -49 -17z"/>
<path d="M14889 2329 c-64 -29 -69 -48 -26 -97 22 -24 17 -35 -20 -46 -15 -5
-28 0 -42 15 l-21 23 0 -32 c0 -38 25 -54 70 -46 32 7 60 37 60 65 0 9 -9 28
-20 42 -11 14 -20 28 -20 31 0 9 52 29 73 28 20 -1 23 23 4 31 -8 3 -34 -4
-58 -14z"/>
<path d="M15090 2341 c-42 -13 -70 -35 -70 -54 0 -9 17 -34 37 -53 35 -34 36
-37 19 -50 -16 -11 -24 -11 -52 1 -20 8 -34 10 -34 4 0 -16 48 -59 65 -59 20
0 65 44 65 64 0 9 -14 31 -31 51 -18 20 -30 37 -28 39 16 14 73 36 94 36 37 0
27 24 -11 27 -16 1 -40 -2 -54 -6z"/>
<path d="M15254 2306 c-51 -51 -41 -101 19 -90 19 3 27 0 27 -10 0 -8 5 -18
11 -21 15 -10 61 4 54 15 -4 6 -11 8 -16 5 -18 -12 -21 26 -4 45 10 11 15 26
11 36 -5 13 -11 11 -41 -15 -34 -29 -65 -40 -65 -23 0 21 35 53 70 63 50 15
52 29 4 29 -28 0 -44 -8 -70 -34z"/>
<path d="M17020 2333 c-8 -3 -34 -21 -57 -40 -33 -26 -43 -41 -43 -63 0 -46
38 -81 93 -87 43 -5 47 -4 47 16 0 12 6 21 15 21 8 0 15 5 15 10 0 6 -11 10
-25 10 -16 0 -25 -6 -25 -15 0 -17 -18 -19 -54 -5 -36 13 -32 27 8 34 21 4 45
19 60 37 29 34 31 42 16 70 -11 19 -23 22 -50 12z m30 -36 c0 -20 -32 -46 -69
-57 -43 -12 -39 2 11 39 46 34 58 38 58 18z"/>
<path d="M14680 2323 c-29 -11 -89 -77 -95 -105 -13 -55 41 -105 101 -93 44 8
44 25 -1 25 -22 0 -43 8 -55 20 -24 24 -26 40 -4 40 51 0 119 81 91 109 -12
12 -14 12 -37 4z m0 -49 c-8 -8 -23 -20 -34 -26 -19 -10 -18 -8 3 16 26 27 53
37 31 10z"/>
<path d="M9353 2295 c-29 -13 -53 -28 -53 -34 0 -5 19 -23 42 -38 58 -39 62
-71 10 -88 -19 -5 -25 -3 -29 14 -7 26 -19 27 -32 3 -12 -23 -3 -37 32 -46 66
-16 119 55 80 108 -10 14 -27 29 -37 34 -18 7 -16 10 16 30 19 12 40 22 47 22
6 0 11 5 11 10 0 17 -32 11 -87 -15z"/>
<path d="M14464 2290 c-22 -17 -51 -45 -66 -63 l-28 -32 7 47 c8 62 -12 72
-64 32 -21 -16 -46 -28 -57 -29 -15 0 -22 -9 -27 -33 -4 -18 -19 -50 -34 -73
-19 -27 -25 -43 -18 -50 10 -10 31 11 96 100 18 24 43 51 56 60 24 15 24 15
18 -9 -16 -65 -19 -110 -8 -110 6 0 39 29 73 65 33 36 63 64 65 61 3 -2 -3
-18 -11 -35 -18 -34 -21 -67 -6 -76 6 -3 13 2 16 12 3 10 17 46 30 81 34 89
23 103 -42 52z"/>
<path d="M17215 2288 c-52 -61 -76 -154 -37 -146 9 2 16 9 15 14 -1 5 11 34
27 64 26 52 30 55 64 54 52 -2 42 27 -15 41 -21 5 -31 0 -54 -27z"/>
<path d="M4199 2287 c-93 -44 -99 -65 -38 -122 34 -31 38 -40 27 -50 -23 -22
-57 -28 -64 -11 -9 24 -24 19 -24 -8 0 -52 65 -59 110 -11 21 22 22 27 10 55
-7 18 -24 38 -37 47 -12 8 -23 20 -23 25 0 16 34 42 80 63 22 10 40 22 40 27
0 14 -33 8 -81 -15z"/>
<path d="M4601 2283 c-28 -26 -71 -128 -71 -166 0 -30 28 -18 38 16 30 103 38
120 58 133 17 12 27 12 48 3 35 -16 47 -2 17 22 -32 26 -55 24 -90 -8z"/>
<path d="M13614 2291 c-41 -25 -69 -66 -84 -119 -9 -37 -9 -47 5 -69 16 -24
21 -25 79 -20 74 6 116 24 116 49 0 10 -4 18 -10 18 -5 0 -10 -4 -10 -10 0
-14 -75 -32 -118 -28 -48 4 -56 31 -13 46 16 6 48 27 71 48 34 31 40 43 38 68
-4 38 -30 44 -74 17z m46 -25 c0 -13 -70 -76 -84 -76 -16 0 -2 26 30 56 38 37
54 42 54 20z"/>
<path d="M15722 2281 c-53 -39 -55 -44 -47 -97 9 -61 36 -88 82 -81 47 8 90
36 72 47 -7 5 -21 4 -30 -1 -32 -17 -69 -11 -78 14 -11 28 -8 33 26 42 55 13
81 63 51 93 -18 18 -31 15 -76 -17z m42 -38 c-21 -15 -44 -17 -44 -3 0 15 54
40 59 28 2 -6 -4 -17 -15 -25z"/>
<path d="M3909 2229 c-32 -68 -88 -129 -116 -129 -7 0 -13 -7 -13 -15 0 -21
19 -19 59 6 31 18 35 19 43 5 14 -24 39 -19 81 15 l37 30 0 -31 c0 -36 20 -48
56 -32 32 15 31 34 -1 26 -29 -7 -31 3 -14 75 15 69 -3 71 -50 7 -78 -105
-111 -89 -49 23 29 53 33 91 10 91 -4 0 -24 -32 -43 -71z"/>
<path d="M8427 2277 c-70 -43 -96 -111 -59 -156 24 -30 103 -39 137 -17 31 20
36 53 6 36 -46 -24 -131 -4 -131 31 0 32 62 89 97 89 27 -1 27 -1 8 -16 -11
-9 -34 -22 -52 -30 -34 -15 -49 -31 -38 -42 4 -4 10 -2 12 4 2 7 12 10 21 8
22 -6 76 28 98 61 35 53 -30 74 -99 32z"/>
<path d="M9950 2283 c-48 -16 -95 -54 -102 -82 -3 -9 -1 -31 4 -49 7 -26 18
-37 54 -53 25 -10 52 -19 60 -19 24 0 15 20 -13 31 -74 28 -85 81 -25 123 22
15 52 26 70 26 35 0 42 14 15 29 -12 6 -33 4 -63 -6z"/>
<path d="M17895 2271 c-66 -31 -95 -64 -95 -109 0 -51 38 -81 95 -74 47 6 44
18 -6 25 -23 3 -45 11 -49 17 -22 36 33 108 100 130 37 12 48 29 24 37 -5 2
-36 -10 -69 -26z"/>
<path d="M4354 2256 c-28 -28 -34 -41 -34 -78 0 -51 21 -78 62 -78 17 0 28 8
36 25 18 39 14 53 -7 26 -19 -25 -54 -26 -59 0 -2 9 12 21 38 33 46 20 64 47
56 82 -9 36 -50 32 -92 -10z m66 -4 c0 -11 -30 -37 -52 -45 -27 -9 -22 9 8 32
28 22 44 27 44 13z"/>
<path d="M5504 2271 c-43 -26 -64 -59 -64 -98 0 -57 66 -72 119 -27 24 20 31
34 31 63 0 20 5 42 11 48 7 7 1 14 -22 22 -41 14 -38 14 -75 -8z m51 -55 c8
-24 6 -31 -14 -47 -54 -44 -86 1 -38 55 26 31 39 29 52 -8z"/>
<path d="M7117 2253 c-13 -21 -36 -59 -51 -85 -52 -89 -70 -87 -82 9 -4 38
-11 53 -21 53 -13 0 -14 -10 -8 -57 12 -101 48 -129 96 -75 23 24 78 111 108
170 21 39 -16 26 -42 -15z"/>
<path d="M10789 2275 c-14 -7 -34 -32 -44 -54 -10 -23 -21 -41 -24 -41 -3 0
-7 -11 -7 -25 -3 -41 22 -28 44 23 25 57 44 76 71 69 19 -5 22 7 8 31 -10 15
-15 15 -48 -3z"/>
<path d="M11468 2283 c-10 -2 -18 -9 -18 -14 0 -5 -7 -9 -14 -9 -21 0 -65 -60
-72 -99 -9 -44 17 -71 68 -71 21 0 38 5 38 11 0 5 4 8 9 4 5 -3 22 6 38 21 21
20 23 24 8 18 -39 -14 -115 -28 -121 -22 -3 4 -3 20 0 35 6 25 11 29 34 25 15
-2 39 1 55 7 23 9 27 16 27 50 0 26 -5 41 -16 45 -9 3 -16 5 -17 5 -1 -1 -10
-3 -19 -6z m22 -52 c0 -9 -24 -21 -42 -21 -6 0 -6 6 2 15 14 16 40 20 40 6z"/>
<path d="M17634 2261 c-52 -37 -77 -76 -70 -107 7 -28 30 -31 82 -9 19 8 32
10 29 4 -7 -10 11 -39 24 -39 3 0 7 14 8 30 1 17 9 40 18 52 19 28 19 48 0 48
-8 0 -15 -4 -15 -9 0 -14 -62 -57 -92 -65 -16 -3 -28 -3 -28 2 0 16 73 82 97
88 27 7 31 34 5 34 -11 0 -37 -13 -58 -29z"/>
<path d="M5739 2215 c-29 -60 -86 -125 -109 -125 -6 0 -10 -4 -10 -10 0 -18
26 -11 54 15 24 22 29 24 42 10 9 -8 18 -15 20 -15 12 0 51 24 75 47 l26 24
-1 -37 c-1 -42 14 -53 40 -27 16 17 16 18 0 21 -19 4 -16 20 19 95 13 27 18
50 13 53 -5 3 -42 -28 -82 -70 -39 -42 -77 -76 -84 -76 -16 0 -16 -3 18 68 33
68 35 78 20 87 -5 3 -24 -23 -41 -60z"/>
<path d="M9191 2254 c-16 -35 -51 -141 -51 -154 0 -5 6 -10 13 -10 12 0 68
153 67 183 0 16 -18 5 -29 -19z"/>
<path d="M10920 2265 c0 -9 11 -20 24 -25 28 -10 56 -47 56 -72 0 -10 -13 -24
-30 -33 -56 -29 -66 -13 -24 42 23 31 25 53 4 53 -16 0 -62 -88 -58 -112 3
-20 9 -23 41 -22 90 3 128 89 68 152 -31 34 -81 44 -81 17z"/>
<path d="M5990 2256 c-5 -5 -10 -14 -10 -19 0 -5 -14 -28 -31 -52 -22 -30 -29
-50 -24 -62 6 -16 8 -16 23 6 28 40 99 111 111 111 15 0 14 -11 -10 -75 -19
-52 -19 -101 0 -79 15 18 52 135 49 157 -3 19 -9 22 -50 23 -26 0 -52 -4 -58
-10z"/>
<path d="M7480 2240 c-34 -36 -64 -116 -48 -126 13 -8 49 36 43 53 -6 19 45
75 62 69 22 -9 36 4 22 20 -18 22 -49 16 -79 -16z"/>
<path d="M10400 2259 c0 -5 -3 -8 -7 -6 -32 20 -148 -113 -122 -138 8 -7 14
-4 23 10 21 38 106 115 126 115 20 0 20 0 0 -50 -22 -57 -26 -94 -8 -88 16 6
59 133 52 153 -7 17 -64 21 -64 4z"/>
<path d="M16580 2254 c-41 -28 -100 -87 -100 -101 0 -23 18 -14 70 37 47 46
80 63 80 41 0 -5 -7 -28 -15 -51 -32 -92 -9 -111 25 -21 27 73 24 105 -10 109
-14 1 -36 -5 -50 -14z"/>
<path d="M7794 2251 c-27 -12 -74 -68 -74 -90 0 -41 56 -55 98 -25 13 9 24 14
25 13 18 -34 27 -45 41 -47 16 -4 16 -2 1 27 -8 17 -17 53 -18 79 -2 42 -4 47
-27 49 -14 1 -34 -2 -46 -6z m56 -30 c0 -16 -58 -71 -74 -71 -30 0 -12 33 34
64 27 18 40 20 40 7z"/>
<path d="M3166 2225 c-59 -63 -58 -127 1 -151 38 -16 100 -17 121 -1 23 18 12
25 -30 20 -45 -5 -116 15 -88 24 25 9 90 76 90 93 0 44 -59 53 -94 15z m64
-10 c0 -8 -62 -75 -70 -75 -13 0 0 36 21 59 17 19 49 29 49 16z"/>
<path d="M10124 2206 c-24 -24 -44 -52 -44 -63 0 -52 70 -54 130 -5 25 22 33
36 33 61 0 66 -57 69 -119 7z m94 -4 c8 -26 -85 -88 -105 -69 -10 10 25 55 54
70 31 17 45 16 51 -1z"/>
<path d="M12602 2201 c-18 -27 -42 -57 -52 -66 -19 -18 -20 -17 -20 8 0 14 5
38 10 53 13 33 -1 52 -21 28 -8 -10 -14 -41 -15 -76 -1 -55 -4 -63 -57 -134
-32 -42 -57 -82 -57 -89 0 -7 -3 -20 -6 -29 -4 -10 -1 -16 7 -16 8 1 40 38 72
83 31 45 89 122 127 172 39 49 70 95 70 102 0 27 -26 10 -58 -36z"/>
<path d="M16398 2228 c-8 -13 -25 -42 -36 -65 -18 -35 -19 -43 -7 -53 21 -18
57 -3 50 21 -4 11 -2 19 6 19 8 0 8 4 1 13 -8 9 -6 21 8 42 18 27 18 45 1 45
-5 0 -15 -10 -23 -22z"/>
<path d="M7245 2228 c-43 -24 -85 -72 -85 -99 0 -43 43 -47 113 -12 21 11 27
11 27 1 0 -7 8 -18 18 -25 18 -10 19 -8 14 40 -5 51 -35 107 -56 107 -6 0 -20
-6 -31 -12z m49 -34 c3 -9 3 -20 0 -26 -9 -15 -94 -51 -102 -43 -10 10 12 38
48 63 39 26 46 27 54 6z"/>
<path d="M7616 2208 c-28 -43 -46 -97 -35 -103 6 -4 12 -5 13 -4 9 10 56 110
56 119 0 18 -19 11 -34 -12z"/>
<path d="M4772 1998 c-5 -7 -28 -52 -50 -99 -41 -91 -52 -99 -128 -99 -13 0
-24 -4 -24 -10 0 -13 44 -23 69 -15 12 3 21 5 21 2 0 -2 -12 -37 -26 -77 -27
-78 -27 -114 1 -157 12 -18 25 -23 61 -23 46 0 104 23 104 41 0 6 -6 6 -19 -1
-11 -5 -40 -10 -64 -10 -40 0 -46 3 -57 31 -12 28 -10 41 14 114 l27 83 56 8
c33 5 58 15 61 23 4 11 -5 13 -47 8 -28 -3 -51 -4 -51 -2 0 3 18 44 40 91 22
48 40 91 40 95 0 13 -16 11 -28 -3z"/>
<path d="M3027 1994 c-3 -4 -48 -6 -99 -5 -102 3 -338 -19 -338 -30 0 -5 4
-10 9 -13 15 -10 414 14 428 26 33 27 8 -78 -56 -242 -60 -154 -53 -190 20
-106 60 67 121 75 95 11 -18 -43 -24 -107 -10 -112 5 -2 21 26 33 62 29 81 23
113 -22 122 -35 8 -33 8 -65 -2 -23 -7 -23 -7 -7 31 23 55 57 202 53 233 -3
25 -26 39 -41 25z"/>
<path d="M9318 1968 c-64 -65 -127 -223 -115 -287 4 -19 -3 -37 -24 -65 -47
-63 -36 -93 13 -34 25 31 27 32 45 15 24 -21 56 -22 73 -2 11 13 8 15 -18 15
-16 0 -35 7 -42 15 -10 12 -6 24 28 67 70 93 122 269 88 297 -12 10 -21 6 -48
-21z m21 -66 c-9 -57 -61 -171 -89 -197 -23 -21 -23 -22 -9 47 13 60 51 142
82 176 11 12 21 22 22 22 1 0 -1 -22 -6 -48z"/>
<path d="M7627 1958 c-25 -32 -26 -33 -40 -13 -9 11 -19 17 -23 12 -4 -4 -2
-13 4 -19 19 -19 14 -27 -23 -34 -41 -7 -42 -30 -1 -27 14 1 26 1 26 0 0 -1
-7 -23 -15 -49 -18 -61 -1 -75 23 -19 16 38 32 54 32 31 0 -5 9 -10 20 -10 17
0 19 3 11 18 -8 15 -5 17 31 14 49 -5 45 11 -7 28 -19 6 -35 14 -35 17 0 3 9
16 20 30 21 27 26 53 11 53 -5 0 -20 -15 -34 -32z"/>
<path d="M10000 1958 c-1 -13 -11 -61 -24 -108 -20 -75 -26 -85 -47 -88 -77
-9 -97 -32 -28 -32 38 0 41 -2 35 -22 -4 -13 -9 -56 -13 -97 -5 -61 -4 -73 8
-69 8 2 15 20 17 39 1 19 7 59 13 91 12 58 22 68 75 68 12 0 32 9 45 20 l24
20 -40 -5 c-22 -4 -49 -8 -61 -10 l-21 -5 24 88 c22 84 24 132 3 132 -6 0 -10
-10 -10 -22z"/>
<path d="M13160 1954 c-6 -14 -10 -31 -10 -37 0 -7 -12 -45 -27 -84 l-28 -73
-51 -15 c-29 -8 -64 -15 -79 -15 -17 0 -25 -5 -22 -12 4 -15 66 -16 111 -4 27
8 28 8 16 -14 -18 -34 -60 -161 -60 -183 0 -40 24 -8 50 68 15 44 33 94 41
112 13 32 46 49 77 39 19 -6 50 9 40 19 -4 4 -25 8 -47 8 -23 1 -41 3 -41 3 0
1 11 30 24 65 30 80 42 149 27 149 -6 0 -16 -12 -21 -26z"/>
<path d="M15950 1950 c-15 -28 -100 -246 -116 -299 -14 -43 -10 -91 7 -91 4 0
13 19 20 43 6 23 37 110 70 194 32 83 59 157 59 162 0 19 -29 12 -40 -9z"/>
<path d="M14123 1948 c-4 -7 -20 -51 -34 -98 -25 -81 -28 -85 -62 -95 -46 -13
-51 -29 -10 -33 l33 -3 -36 -71 c-40 -79 -40 -123 1 -73 13 17 36 57 52 90 32
69 38 75 76 75 38 0 36 29 -3 36 -33 7 -33 13 -3 98 15 45 17 73 4 81 -5 3
-13 0 -18 -7z"/>
<path d="M14235 1913 c-11 -74 -35 -152 -66 -215 -16 -32 -29 -64 -29 -73 0
-23 20 -18 42 10 24 31 114 79 134 71 11 -4 8 -16 -11 -58 -28 -59 -31 -78
-12 -78 6 1 24 28 39 61 21 46 25 65 18 84 -12 31 -39 32 -99 5 -51 -23 -57
-24 -43 -7 16 19 51 147 54 196 4 63 -19 66 -27 4z"/>
<path d="M2813 1898 c-16 -21 -31 -70 -38 -122 -4 -27 -20 -92 -36 -144 -20
-64 -26 -99 -19 -106 5 -5 12 -8 14 -5 9 10 65 208 72 254 3 28 13 65 20 84
15 35 5 63 -13 39z"/>
<path d="M8047 1843 c-4 -3 -7 -10 -7 -14 0 -11 29 -19 35 -10 6 11 -20 33
-28 24z"/>
<path d="M10827 1804 c-14 -15 -6 -34 14 -34 14 0 19 5 17 17 -3 18 -20 27
-31 17z"/>
<path d="M1638 1782 c-16 -9 -37 -36 -49 -61 -17 -36 -18 -48 -9 -72 19 -44
45 -63 81 -55 32 6 109 61 109 77 0 22 -32 19 -60 -4 -39 -33 -67 -42 -85 -27
-18 15 -19 30 -2 30 6 0 31 17 55 38 40 34 43 39 33 65 -12 31 -34 34 -73 9z
m46 -21 c3 -4 -12 -22 -33 -39 -33 -26 -38 -28 -34 -11 3 11 17 28 31 39 28
23 29 23 36 11z"/>
<path d="M7124 1783 c-12 -2 -30 -13 -39 -23 -26 -29 -13 -64 34 -84 26 -12
41 -26 44 -42 5 -27 -14 -47 -40 -42 -14 2 -17 11 -15 36 5 45 -13 40 -32 -9
-21 -51 -9 -69 43 -69 46 1 72 21 73 57 1 46 -11 70 -47 92 -19 11 -35 24 -35
28 0 13 58 32 80 26 13 -4 20 0 20 10 0 24 -30 31 -86 20z"/>
<path d="M6005 1761 c-16 -10 -38 -27 -47 -37 -22 -25 -48 -87 -48 -114 0 -34
28 -22 41 18 18 56 45 89 90 109 36 16 39 19 23 30 -23 17 -23 16 -59 -6z"/>
<path d="M6158 1765 c-28 -16 -68 -87 -68 -123 0 -54 83 -60 155 -10 50 33 63
118 18 118 -13 0 -14 -3 -5 -12 36 -36 -18 -97 -94 -106 -36 -4 -44 -2 -44 12
0 44 57 110 86 99 17 -6 18 9 2 25 -15 15 -17 15 -50 -3z"/>
<path d="M6848 1769 c-33 -18 -21 -53 34 -103 46 -42 50 -48 36 -62 -22 -22
-68 0 -68 34 0 24 -1 25 -20 7 -11 -10 -20 -23 -20 -30 0 -19 44 -54 77 -61
25 -5 34 -1 52 21 11 15 21 34 21 42 0 8 -20 35 -45 61 -25 25 -45 50 -45 54
0 12 55 9 68 -4 18 -18 27 -1 14 27 -9 20 -19 25 -49 25 -21 0 -46 -5 -55 -11z"/>
<path d="M4895 1737 c-36 -36 -53 -100 -40 -156 11 -52 73 -52 146 0 49 35 20
45 -38 13 -53 -30 -83 -28 -83 5 0 13 9 21 28 26 38 8 82 51 82 79 0 21 -37
66 -54 66 -4 0 -23 -15 -41 -33z m62 -23 c7 -18 -21 -49 -55 -59 -21 -6 -21
-5 -11 21 20 53 53 72 66 38z"/>
<path d="M5779 1733 c-22 -20 -51 -55 -64 -77 -33 -59 -99 -276 -87 -288 16
-16 25 -5 62 81 28 63 40 81 60 86 100 25 168 157 110 215 -27 27 -34 26 -81
-17z m67 -42 c-7 -44 -33 -80 -76 -105 l-33 -20 7 30 c5 16 9 38 10 50 4 30
65 94 83 87 11 -4 14 -15 9 -42z"/>
<path d="M6631 1762 c-20 -7 -59 -53 -65 -79 -8 -28 27 -109 53 -122 33 -18
86 -13 106 9 22 24 14 36 -13 21 -29 -16 -68 -14 -86 5 -23 23 -20 37 13 56
36 20 63 60 56 80 -8 19 -45 37 -64 30z m32 -46 c-22 -40 -63 -62 -63 -34 0
19 41 57 56 51 8 -3 11 -10 7 -17z"/>
<path d="M12116 1751 c-39 -26 -63 -64 -86 -140 -23 -72 -25 -94 -9 -89 7 2
22 35 35 73 35 105 82 158 108 123 13 -18 26 -14 26 8 0 13 -27 44 -38 44 -4
0 -20 -9 -36 -19z"/>
<path d="M3245 1748 c-55 -15 -85 -53 -85 -105 0 -35 32 -89 57 -95 45 -12
153 35 153 66 0 6 -5 4 -10 -4 -5 -8 -10 -12 -10 -7 0 4 -16 0 -36 -8 -49 -20
-94 -19 -110 3 -21 27 -17 37 16 38 32 1 78 27 87 50 7 20 -4 61 -19 66 -7 3
-26 1 -43 -4z m33 -45 c-3 -19 -74 -50 -86 -39 -4 4 6 19 21 32 33 28 70 32
65 7z"/>
<path d="M4451 1739 c-36 -22 -39 -46 -11 -79 24 -27 24 -38 4 -65 -14 -19
-16 -18 -53 24 -22 25 -41 39 -45 33 -3 -6 -2 -13 4 -17 5 -3 10 -14 10 -24 0
-26 48 -71 76 -71 17 0 29 10 44 40 25 49 25 61 -1 94 l-21 26 36 15 c32 14
48 34 29 36 -5 0 -15 2 -25 4 -9 2 -30 -6 -47 -16z"/>
<path d="M5184 1738 c-16 -12 -33 -27 -37 -33 -5 -6 -7 0 -4 12 5 22 -8 41
-20 29 -9 -8 -35 -124 -37 -161 -1 -21 4 -31 17 -33 13 -3 17 3 17 23 0 42 24
88 65 124 31 26 44 32 67 27 24 -5 29 -3 26 12 -5 27 -59 27 -94 0z"/>
<path d="M6407 1740 c-31 -25 -57 -70 -57 -99 0 -11 11 -32 24 -47 19 -23 32
-28 71 -28 30 -1 50 4 52 12 3 8 -5 12 -24 12 -40 0 -87 40 -79 67 12 39 46
73 73 73 15 0 23 5 21 13 -7 21 -53 19 -81 -3z"/>
<path d="M11007 1736 c-47 -17 -77 -43 -77 -67 0 -10 19 -31 43 -47 29 -20 41
-34 39 -48 -2 -10 -5 -21 -7 -22 -8 -8 -75 21 -84 35 -10 19 -41 11 -41 -11 0
-17 55 -53 85 -56 42 -5 55 1 71 31 20 40 8 67 -42 94 -19 10 -34 21 -34 25 0
15 29 31 79 43 28 6 50 16 48 22 -5 16 -38 16 -80 1z"/>
<path d="M12538 1739 c-33 -13 -35 -32 -8 -66 25 -32 26 -59 2 -72 -23 -12
-66 14 -58 35 6 16 -6 25 -22 15 -8 -5 -9 -17 -2 -43 8 -27 18 -39 41 -47 36
-12 53 -7 73 24 21 33 20 67 -4 97 -23 30 -18 38 28 38 22 0 32 4 30 13 -6 16
-45 19 -80 6z"/>
<path d="M12755 1738 c-54 -29 -74 -113 -37 -157 19 -23 77 -34 105 -19 26 13
20 25 -10 21 -45 -7 -83 12 -83 41 0 21 6 26 42 33 33 7 45 14 52 35 18 51
-18 75 -69 46z m45 -27 c0 -13 -41 -41 -59 -41 -10 0 -8 7 9 25 24 25 50 33
50 16z"/>
<path d="M13267 1725 c-40 -28 -47 -56 -23 -90 7 -11 17 -31 21 -44 7 -24 7
-24 -50 8 -40 22 -61 29 -68 22 -7 -7 -6 -15 4 -27 16 -20 106 -64 130 -64 35
0 33 79 -2 113 -26 24 -24 42 6 61 18 12 37 15 60 12 39 -6 44 0 18 20 -27 20
-54 17 -96 -11z"/>
<path d="M15456 1728 c-8 -13 -24 -48 -35 -79 -12 -30 -27 -64 -35 -75 -14
-18 -15 -18 -26 11 -6 16 -12 46 -13 66 -1 24 -8 41 -19 48 -23 14 -41 5 -33
-18 4 -9 11 -38 16 -65 12 -65 33 -96 64 -96 30 0 47 25 80 111 15 37 32 70
40 73 17 6 8 46 -11 46 -7 0 -20 -10 -28 -22z"/>
<path d="M3881 1726 c-7 -8 -20 -12 -31 -9 -16 4 -22 -4 -35 -51 -9 -31 -21
-58 -26 -61 -5 -4 -9 -19 -9 -36 0 -43 27 -37 41 9 11 37 77 138 84 130 2 -2
-3 -33 -11 -68 -22 -96 -4 -121 40 -52 30 48 94 117 102 109 3 -3 -3 -36 -13
-74 -19 -66 -20 -103 -4 -103 7 0 29 72 48 158 6 25 -12 52 -35 52 -9 0 -37
-22 -62 -49 l-47 -48 9 40 c5 22 7 46 4 54 -7 17 -40 17 -55 -1z"/>
<path d="M10110 1711 c-60 -60 -27 -151 54 -151 29 0 56 15 56 30 0 3 -16 4
-35 2 -66 -8 -72 4 -26 47 34 31 42 45 39 68 -5 42 -48 44 -88 4z m60 -14 c0
-13 -21 -36 -47 -51 -22 -12 -15 22 9 44 25 23 38 26 38 7z"/>
<path d="M12267 1716 c-56 -52 -77 -138 -42 -176 20 -23 83 -28 103 -8 7 7 12
8 12 3 0 -5 7 1 16 13 21 31 14 35 -24 16 -18 -8 -44 -14 -59 -12 -22 2 -29 9
-31 30 -3 22 2 30 25 40 38 16 83 58 83 78 0 43 -45 52 -83 16z m60 -23 c4
-11 -65 -59 -73 -50 -3 2 7 19 22 36 26 31 44 36 51 14z"/>
<path d="M14448 1720 c-28 -22 -48 -84 -41 -127 11 -62 71 -70 153 -20 58 34
83 75 38 62 -12 -4 -35 -15 -49 -25 -29 -20 -95 -41 -103 -32 -12 11 -5 32 10
32 24 0 74 58 74 86 0 21 -25 44 -48 44 -5 0 -21 -9 -34 -20z m37 -54 c-18
-27 -45 -35 -45 -13 0 7 10 23 21 36 29 31 47 13 24 -23z"/>
<path d="M4178 1705 c-19 -13 -41 -39 -47 -56 -14 -40 -15 -36 13 -54 22 -15
27 -15 58 1 18 9 40 23 50 31 15 13 16 11 11 -24 -6 -45 18 -76 40 -54 9 9 9
14 -2 20 -12 8 -12 16 -1 56 l13 47 -33 29 c-40 35 -55 36 -102 4z m58 -50
c-41 -37 -66 -44 -66 -21 0 21 51 55 80 55 24 0 23 -1 -14 -34z"/>
<path d="M8246 1707 c-13 -14 -30 -42 -36 -64 -11 -34 -10 -46 5 -77 25 -53
56 -65 102 -41 35 19 51 40 40 52 -3 3 -21 -4 -40 -16 -39 -24 -60 -20 -75 13
-9 21 -7 25 23 39 67 32 88 109 33 115 -19 2 -35 -5 -52 -21z m54 -13 c0 -14
-22 -43 -44 -58 l-26 -16 11 27 c5 16 17 34 26 41 18 13 33 16 33 6z"/>
<path d="M8928 1715 c-59 -33 -77 -124 -33 -165 20 -19 32 -22 71 -17 26 3 54
13 65 24 19 19 18 19 -45 15 -59 -4 -65 -2 -71 18 -4 12 -4 33 -1 46 7 26 59
64 89 64 11 0 17 6 15 13 -6 18 -59 19 -90 2z"/>
<path d="M9709 1701 c-32 -33 -35 -50 -15 -89 10 -19 11 -34 4 -52 -9 -25 -10
-25 -24 -5 -13 17 -16 18 -24 5 -14 -22 -12 -36 6 -54 20 -21 37 -20 57 2 20
22 25 95 8 116 -18 21 -4 54 30 71 16 9 29 20 29 25 0 21 -43 9 -71 -19z"/>
<path d="M10334 1699 c-46 -36 -52 -49 -53 -106 -1 -32 3 -43 14 -43 9 0 15 9
15 25 0 34 35 102 59 115 26 13 31 13 31 -5 0 -18 17 -20 23 -2 7 19 -12 47
-32 47 -10 0 -36 -14 -57 -31z"/>
<path d="M15996 1702 c-26 -51 -29 -96 -9 -121 19 -23 20 -23 55 -7 55 26 100
75 96 105 -4 32 -32 35 -36 3 -3 -21 -49 -63 -84 -75 -21 -7 -21 -8 -7 49 6
24 15 44 20 44 15 0 10 17 -6 24 -10 3 -20 -5 -29 -22z"/>
<path d="M16282 1710 c-60 -37 -66 -113 -14 -163 l28 -27 56 16 c52 15 108 53
108 74 0 14 -31 12 -49 -3 -9 -8 -38 -22 -65 -32 l-49 -18 -20 24 -19 24 33 7
c46 9 91 60 80 90 -11 30 -48 34 -89 8z m61 -17 c12 -11 -35 -53 -59 -53 -30
0 -22 25 15 45 30 16 35 17 44 8z"/>
<path d="M9467 1692 c-15 -15 -27 -33 -27 -39 0 -6 -9 -22 -20 -35 -17 -22
-18 -29 -7 -52 16 -34 34 -33 74 6 l33 32 1 -40 c1 -21 1 -43 0 -47 -2 -15 31
-19 55 -7 32 18 31 32 -3 24 l-26 -7 6 67 c8 80 0 83 -60 24 -44 -43 -61 -34
-24 13 29 38 40 64 32 77 -5 8 -15 4 -34 -16z"/>
<path d="M1375 1698 c-16 -5 -39 -10 -50 -11 -11 -1 -21 -10 -23 -21 -4 -21
-7 -21 111 9 37 10 67 21 67 26 0 10 -67 8 -105 -3z"/>
<path d="M15576 1689 c-38 -30 -61 -76 -45 -95 18 -21 48 -17 83 13 l31 26 5
-38 c8 -58 26 -54 33 7 4 29 9 63 13 75 7 26 -22 45 -36 23 -5 -8 -9 -9 -14
-1 -11 17 -41 13 -70 -10z m49 -35 c-11 -9 -29 -20 -40 -26 -17 -9 -16 -6 4
16 14 14 32 26 40 26 13 -1 12 -4 -4 -16z"/>
<path d="M7942 1647 c-34 -36 -46 -81 -30 -114 15 -32 51 -38 56 -9 3 14 0 17
-11 13 -38 -15 -24 68 17 102 9 8 16 17 16 22 0 17 -27 9 -48 -14z"/>
<path d="M11699 1656 c-2 -2 -53 -7 -114 -10 -81 -3 -110 -8 -110 -18 0 -13
47 -16 150 -8 62 4 72 8 79 26 5 14 3 18 -5 10z"/>
<path d="M10764 1595 c-3 -8 -3 -18 0 -23 8 -14 -21 -167 -39 -205 -15 -31
-70 -77 -93 -77 -14 0 -42 52 -42 80 0 11 -7 20 -15 20 -26 0 -10 -84 23 -122
54 -63 156 37 181 178 18 96 6 206 -15 149z"/>
<path d="M9375 1569 c-10 -15 1 -23 20 -15 9 3 13 10 10 16 -8 13 -22 13 -30
-1z"/>
<path d="M8100 1555 c0 -8 7 -15 15 -15 8 0 15 7 15 15 0 8 -7 15 -15 15 -8 0
-15 -7 -15 -15z"/>
<path d="M10482 1529 c2 -6 8 -10 13 -10 5 0 11 4 13 10 2 6 -4 11 -13 11 -9
0 -15 -5 -13 -11z"/>
<path d="M2310 1483 c-1 -35 -20 -169 -31 -215 l-11 -48 -45 0 c-31 0 -43 -4
-40 -12 2 -8 19 -13 39 -12 l36 1 -24 -76 c-28 -89 -30 -121 -9 -121 8 0 15 9
15 20 0 37 48 172 67 185 12 10 14 14 4 15 -8 0 -11 6 -6 18 3 9 13 65 21 124
7 59 15 113 16 120 2 6 -5 14 -14 16 -12 2 -18 -3 -18 -15z"/>
<path d="M6763 1433 c-89 -199 -92 -205 -110 -200 -66 18 -75 18 -71 0 2 -12
15 -20 38 -23 28 -4 34 -9 32 -25 -1 -11 -3 -42 -4 -69 -3 -75 39 -95 122 -59
43 19 55 40 18 29 -13 -3 -42 -9 -64 -12 -38 -6 -42 -4 -47 18 -4 14 -1 45 6
69 l13 44 64 5 c54 4 65 8 64 23 -1 9 2 17 8 17 5 0 7 4 4 9 -3 5 -15 7 -26 4
-11 -3 -17 -9 -14 -14 3 -5 -15 -9 -40 -9 l-44 0 49 114 c51 119 56 136 38
136 -5 0 -22 -26 -36 -57z"/>
<path d="M10582 1444 c-7 -8 -12 -22 -9 -32 3 -13 7 -10 16 12 13 33 11 40 -7
20z"/>
<path d="M13725 1448 c-2 -7 -5 -56 -8 -109 -7 -155 -57 -240 -144 -243 -48
-1 -51 14 -12 59 29 32 37 36 66 32 38 -6 51 6 29 28 -35 35 -118 -1 -151 -65
-20 -39 -19 -56 7 -80 28 -26 70 -26 125 1 77 37 123 148 123 302 0 50 4 76
10 72 6 -3 10 -1 10 4 0 15 -50 14 -55 -1z"/>
<path d="M3006 1439 c-3 -8 -12 -43 -21 -79 -37 -151 -28 -136 -96 -149 -39
-8 -59 -17 -56 -24 3 -7 8 -11 13 -11 5 1 28 4 51 8 l42 6 -20 -57 c-24 -70
-29 -144 -11 -150 7 -3 12 5 12 21 0 14 11 61 25 105 23 71 28 80 54 86 16 3
32 13 35 22 9 22 1 26 -24 13 -12 -6 -23 -10 -25 -8 -1 2 9 49 23 106 20 78
23 105 14 114 -9 9 -13 8 -16 -3z"/>
<path d="M14585 1442 c-6 -4 -16 -33 -22 -65 -12 -57 -39 -118 -102 -229 -26
-47 -30 -61 -21 -78 25 -47 118 -33 169 25 31 36 36 51 25 80 -9 22 -61 47
-84 40 -18 -6 -18 -3 5 47 47 102 63 203 30 180z m10 -272 c24 -27 13 -47 -37
-70 -87 -39 -109 -17 -47 46 49 49 58 52 84 24z"/>
<path d="M8565 1387 c-8 -18 -24 -74 -36 -123 -12 -49 -25 -91 -30 -95 -5 -3
-11 -25 -15 -50 -5 -42 -4 -45 28 -66 65 -44 123 -22 162 61 30 63 32 84 11
92 -22 9 -56 -2 -99 -31 -21 -14 -39 -25 -41 -23 -1 2 11 53 26 113 15 61 28
120 29 133 0 33 -19 27 -35 -11z m90 -243 c-8 -20 -15 -38 -15 -40 0 -2 -14
-11 -31 -20 -31 -15 -79 -12 -79 5 0 10 85 75 110 84 28 10 30 7 15 -29z"/>
<path d="M8874 1363 c-12 -32 -38 -98 -59 -147 -29 -70 -36 -95 -29 -115 12
-34 34 -39 34 -7 0 14 12 56 26 93 40 103 74 216 68 225 -11 17 -20 6 -40 -49z"/>
<path d="M16250 1343 c-116 -211 -145 -285 -116 -296 11 -5 16 -1 16 14 0 53
83 119 149 119 26 0 26 -1 1 -50 -21 -41 -27 -90 -10 -90 16 0 72 127 66 148
-4 11 -16 23 -28 29 -20 9 -19 11 18 33 83 50 135 93 125 103 -9 9 -112 -54
-224 -140 l-49 -36 15 34 c8 19 31 61 51 93 43 71 51 95 38 108 -6 6 -25 -18
-52 -69z"/>
<path d="M3136 1398 c-49 -172 -75 -256 -98 -312 -35 -85 -24 -106 24 -50 91
106 103 109 93 23 -6 -50 -5 -61 6 -57 21 7 36 113 19 133 -17 20 -42 19 -72
-4 -24 -20 -24 -19 14 107 21 70 38 137 38 150 0 23 -18 31 -24 10z"/>
<path d="M8194 1339 c-8 -14 11 -33 25 -25 6 4 11 11 11 16 0 13 -29 20 -36 9z"/>
<path d="M16680 1334 c0 -9 5 -14 12 -12 18 6 21 28 4 28 -9 0 -16 -7 -16 -16z"/>
<path d="M11638 1267 c-60 -116 -68 -135 -68 -174 0 -43 12 -57 24 -27 3 9 6
27 6 40 0 27 31 94 61 133 22 27 25 61 7 61 -7 0 -21 -15 -30 -33z"/>
<path d="M15416 1282 c-8 -13 10 -52 24 -52 14 0 12 23 -3 45 -10 12 -16 14
-21 7z"/>
<path d="M12011 1267 c-15 -15 -14 -30 2 -21 6 4 4 -1 -5 -11 -16 -17 -18 -17
-42 -2 -52 35 -117 13 -167 -56 -24 -33 -30 -51 -29 -87 3 -71 1 -80 -14 -80
-16 0 -46 -26 -46 -41 0 -16 17 -10 48 16 25 21 36 24 74 19 56 -8 93 10 142
68 26 30 36 51 36 76 0 24 7 40 25 54 30 23 31 38 6 60 -14 12 -22 13 -30 5z
m-63 -71 c10 -6 11 -11 0 -23 -15 -18 -124 -103 -132 -103 -17 0 -2 62 22 96
24 32 34 39 63 39 19 0 40 -4 47 -9z m10 -93 c-16 -34 -73 -73 -106 -73 -30 0
-29 1 54 68 61 50 75 52 52 5z"/>
<path d="M8937 1240 c-73 -64 -75 -149 -4 -184 33 -16 44 -17 82 -6 51 14 88
48 75 69 -7 12 -14 10 -42 -11 -44 -34 -73 -42 -100 -27 -50 26 -52 73 -4 123
35 38 72 47 83 21 9 -24 -26 -55 -69 -61 -21 -4 -38 -11 -38 -16 0 -18 94 2
118 25 28 26 29 72 3 87 -34 18 -69 11 -104 -20z"/>
<path d="M13936 1254 c-22 -8 -54 -26 -73 -40 -44 -34 -41 -63 9 -86 74 -35
57 -60 -36 -56 -65 3 -88 -14 -41 -32 68 -26 155 -2 155 43 0 30 -9 41 -47 61
-17 9 -34 20 -38 26 -8 13 50 48 103 62 24 6 41 16 39 22 -5 16 -27 17 -71 0z"/>
<path d="M4040 1208 c-12 -24 -39 -61 -61 -84 -22 -22 -36 -43 -33 -47 4 -4 1
-7 -8 -7 -14 0 -58 -40 -58 -53 0 -16 28 -5 63 24 22 18 38 26 37 18 -8 -56
22 -51 88 14 58 55 59 54 36 -24 -2 -9 2 -24 11 -33 13 -13 20 -13 35 -3 23
14 27 32 6 24 -27 -11 -26 0 15 152 8 30 -21 20 -47 -16 -15 -21 -48 -56 -72
-77 l-43 -40 21 53 c11 29 27 66 35 81 8 16 15 36 15 45 0 28 -18 16 -40 -27z"/>
<path d="M5531 1233 c-66 -33 -91 -115 -50 -167 23 -29 71 -35 103 -11 17 13
16 14 -13 13 -37 -1 -71 26 -71 58 0 42 40 76 98 82 55 5 65 15 33 32 -28 14
-61 12 -100 -7z"/>
<path d="M10209 1232 c-23 -11 -42 -33 -58 -64 -20 -41 -21 -52 -12 -80 25
-72 78 -96 142 -63 38 20 29 37 -11 22 -25 -9 -36 -9 -57 3 -32 18 -50 70 -24
70 15 0 87 34 103 49 13 12 -8 64 -29 72 -13 5 -33 2 -54 -9z m23 -64 c-45
-30 -61 -21 -23 13 26 24 36 28 42 18 5 -9 -1 -19 -19 -31z"/>
<path d="M12471 1215 c-34 -30 -40 -63 -16 -105 8 -14 14 -37 15 -52 0 -37
-23 -36 -62 3 -24 23 -33 27 -39 17 -5 -7 -9 -16 -9 -20 0 -16 47 -57 78 -67
66 -21 91 51 51 147 -13 31 -12 35 5 48 11 8 35 14 54 14 26 0 33 4 30 18 -6
30 -69 28 -107 -3z"/>
<path d="M1976 1208 c-16 -12 -35 -37 -43 -56 -12 -30 -12 -37 1 -57 18 -28
54 -41 69 -26 18 18 25 13 29 -16 2 -15 10 -29 18 -31 15 -2 21 23 24 102 1
38 -20 45 -35 12 -15 -32 -46 -43 -66 -24 -12 13 -11 19 12 47 24 27 31 31 61
25 40 -7 43 0 12 27 -30 24 -46 23 -82 -3z"/>
<path d="M3256 1201 c-19 -20 -30 -43 -33 -73 -5 -40 -2 -47 27 -71 25 -22 42
-27 84 -27 46 0 76 12 76 30 0 4 -27 4 -60 2 -48 -4 -65 -1 -80 13 -28 25 -25
32 18 40 65 12 94 62 56 99 -24 24 -57 19 -88 -13z m72 -23 c2 -10 -9 -22 -29
-32 -54 -27 -64 -18 -28 28 23 29 52 31 57 4z"/>
<path d="M4318 1207 c-27 -12 -48 -27 -48 -36 0 -8 21 -34 46 -57 49 -45 50
-59 6 -75 -31 -12 -76 -3 -66 13 4 6 1 9 -7 6 -8 -3 -15 -11 -16 -19 -9 -46
64 -63 117 -27 48 32 49 58 6 106 -20 22 -36 42 -36 46 0 3 18 15 40 26 76 39
40 54 -42 17z"/>
<path d="M4722 1191 c-36 -37 -90 -146 -79 -158 10 -10 25 7 48 54 24 50 75
113 91 113 5 0 18 -10 27 -22 15 -18 19 -19 24 -6 8 23 -21 58 -49 58 -15 0
-38 -15 -62 -39z"/>
<path d="M6031 1186 c-28 -41 -79 -86 -126 -112 -11 -6 -20 -15 -19 -20 1 -21
35 -12 79 22 27 20 45 29 42 20 -8 -20 2 -46 17 -46 6 0 28 14 49 31 l37 30 0
-24 c0 -32 26 -55 43 -38 9 9 9 14 -2 20 -10 6 -12 21 -8 50 3 23 1 43 -4 46
-4 3 -26 -11 -49 -31 -22 -20 -43 -34 -46 -31 -3 3 5 30 19 61 24 51 25 66 6
66 -5 0 -22 -20 -38 -44z"/>
<path d="M6342 1195 c-23 -20 -39 -29 -36 -21 3 9 1 16 -4 16 -14 0 -73 -110
-66 -122 3 -5 40 24 82 64 71 67 77 71 80 49 2 -13 -1 -44 -8 -69 -7 -31 -8
-48 -1 -55 16 -16 21 -5 34 68 18 105 -10 130 -81 70z"/>
<path d="M7922 1217 c-48 -27 -110 -157 -74 -157 13 0 54 59 48 69 -8 13 33
61 61 72 13 5 21 13 18 19 -8 13 -25 12 -53 -3z"/>
<path d="M10034 1195 c-7 -19 -14 -47 -14 -62 -1 -15 -7 -41 -14 -58 l-13 -30
-22 52 c-24 54 -55 91 -65 75 -5 -9 58 -137 74 -147 27 -17 80 62 80 120 0 13
7 28 16 33 11 6 14 16 9 31 -10 32 -34 25 -51 -14z"/>
<path d="M10475 1220 c-53 -21 -95 -105 -76 -152 14 -37 31 -35 31 2 0 41 35
107 60 115 11 3 29 3 40 0 23 -7 28 13 8 33 -14 14 -34 14 -63 2z"/>
<path d="M12691 1212 c-64 -35 -92 -131 -51 -172 14 -14 33 -20 65 -20 25 0
45 4 45 8 0 5 10 8 21 8 12 -1 24 4 26 10 2 7 -17 9 -57 6 -67 -5 -90 6 -90
43 0 18 4 22 19 18 20 -5 90 27 110 51 7 8 11 25 9 38 -4 30 -51 35 -97 10z
m40 -44 c-32 -29 -74 -39 -65 -15 7 18 76 57 88 50 5 -4 -5 -19 -23 -35z"/>
<path d="M12976 1219 c-34 -10 -63 -35 -82 -71 -41 -80 25 -132 125 -97 43 15
43 41 -2 28 -40 -11 -91 2 -95 25 -2 9 14 34 37 57 34 35 43 39 60 29 17 -9
21 -8 21 4 0 22 -31 34 -64 25z"/>
<path d="M13362 1191 c-55 -44 -92 -87 -92 -107 0 -28 30 -13 77 37 26 28 55
55 65 60 18 10 18 8 5 -23 -8 -18 -20 -45 -27 -60 -13 -27 -8 -58 9 -58 10 0
57 96 67 137 7 27 -11 53 -36 53 -10 0 -40 -18 -68 -39z"/>
<path d="M14735 1220 c-3 -6 -5 -44 -4 -86 2 -71 0 -78 -31 -122 -81 -114
-108 -159 -112 -185 -4 -21 -2 -27 10 -25 8 2 20 12 26 23 6 11 54 82 106 158
52 76 100 147 106 158 7 11 17 26 23 32 15 15 14 27 -3 27 -8 0 -33 -21 -55
-47 l-41 -48 0 57 c0 54 -11 80 -25 58z"/>
<path d="M5778 1199 c-52 -27 -74 -62 -60 -94 10 -21 19 -25 53 -25 32 0 46 6
67 29 56 60 56 59 25 86 -34 29 -38 30 -85 4z m48 -41 c10 -15 -24 -38 -55
-38 l-26 1 28 24 c31 28 42 31 53 13z"/>
<path d="M4498 1194 c-29 -15 -68 -80 -68 -111 0 -37 29 -63 68 -63 44 0 57 8
66 38 9 26 1 28 -21 6 -9 -9 -28 -14 -47 -12 -42 4 -48 40 -11 64 21 14 23 19
13 33 -9 11 -7 11 9 -2 23 -20 46 -14 71 16 33 39 -25 61 -80 31z m42 -24 c-8
-5 -19 -10 -25 -10 -5 0 -3 5 5 10 8 5 20 10 25 10 6 0 3 -5 -5 -10z"/>
<path d="M7487 1202 c-3 -4 -8 -25 -12 -47 -9 -48 -20 -72 -49 -103 l-21 -24
-10 84 c-8 63 -14 83 -25 83 -8 0 -14 -5 -13 -12 2 -7 6 -44 9 -83 8 -80 21
-106 50 -96 28 10 73 73 80 115 4 20 13 44 21 53 13 15 12 18 -6 27 -11 6 -22
8 -24 3z"/>
<path d="M9708 1193 c-71 -44 -92 -174 -31 -189 28 -7 124 11 162 31 24 12 24
13 5 23 -15 8 -37 7 -82 -5 -103 -26 -124 -2 -36 43 70 35 80 53 53 88 -24 30
-34 32 -71 9z m37 -49 c-11 -9 -33 -22 -49 -31 l-29 -15 22 31 c28 38 52 53
66 40 7 -7 3 -15 -10 -25z"/>
<path d="M13180 1202 c-30 -9 -80 -73 -80 -101 0 -30 27 -61 53 -61 27 0 97
74 97 102 0 40 -35 71 -70 60z m24 -48 c9 -8 16 -19 16 -24 0 -14 -68 -62 -79
-56 -11 7 -3 43 17 74 17 26 25 27 46 6z"/>
<path d="M15797 1192 c-10 -10 -17 -24 -17 -31 0 -18 -29 -71 -40 -71 -5 0
-10 14 -12 31 -2 18 -11 37 -20 43 -21 13 -35 2 -21 -16 6 -7 14 -34 17 -60 6
-37 11 -48 25 -48 18 0 59 51 82 103 11 24 18 27 58 27 l46 1 -24 19 c-29 25
-73 26 -94 2z"/>
<path d="M15971 1168 c-34 -34 -41 -48 -39 -72 6 -58 89 -61 131 -4 l20 26
-23 46 c-12 25 -27 46 -34 46 -7 0 -31 -19 -55 -42z m69 -50 c0 -10 -35 -28
-54 -28 -22 0 -20 12 6 45 20 26 22 27 35 9 7 -10 13 -21 13 -26z"/>
<path d="M16757 1204 c-19 -20 -6 -33 28 -27 19 3 35 3 35 -1 0 -3 -11 -34
-25 -68 -25 -62 -26 -74 -3 -65 16 6 61 121 56 144 -2 13 -14 19 -43 21 -23 2
-44 0 -48 -4z"/>
<path d="M7629 1176 c-30 -28 -54 -80 -45 -101 7 -19 46 -19 72 0 27 20 32 19
36 -12 2 -14 9 -28 16 -31 8 -3 12 12 12 52 0 31 -4 56 -10 56 -5 0 -26 -11
-46 -25 -44 -30 -58 -32 -44 -6 13 25 63 61 85 61 29 0 10 25 -21 28 -20 2
-37 -5 -55 -22z"/>
<path d="M8224 1156 c-28 -28 -35 -42 -32 -68 4 -39 24 -46 68 -24 30 14 31
14 42 -10 15 -32 43 -33 33 -1 -3 12 -9 33 -12 47 -7 38 -25 71 -46 81 -14 8
-25 3 -53 -25z m61 -25 c6 -10 -45 -54 -53 -46 -3 3 1 16 8 30 14 25 34 33 45
16z"/>
<path d="M15540 1173 c-83 -55 -150 -153 -105 -153 8 0 15 6 15 13 0 20 63 89
100 111 31 18 32 18 27 0 -18 -64 -28 -125 -22 -134 12 -20 21 -10 32 38 6 26
16 61 23 78 7 17 10 38 7 48 -8 21 -46 21 -77 -1z"/>
<path d="M16693 1157 c-24 -26 -63 -101 -63 -122 0 -17 19 0 32 29 9 18 30 49
47 68 40 46 26 70 -16 25z"/>
<path d="M16530 1145 c-21 -34 -21 -65 0 -65 5 0 10 6 10 14 0 7 9 25 20 39
23 30 26 47 6 47 -8 0 -24 -16 -36 -35z"/>
<path d="M16918 1149 c-21 -10 -44 -32 -53 -49 -13 -26 -13 -30 2 -45 12 -13
30 -16 75 -13 58 3 58 3 54 -22 -3 -14 -8 -45 -11 -70 -4 -25 -11 -63 -16 -85
l-10 -40 -53 -1 c-90 0 -146 -60 -132 -137 8 -41 58 -97 86 -97 26 0 86 74
109 134 l18 50 59 -2 c78 -3 100 11 42 26 -24 6 -52 13 -63 15 -23 3 -23 -2 5
171 l21 128 -27 29 c-32 34 -55 36 -106 8z m82 -29 c13 -9 12 -12 -4 -25 -18
-14 -96 -22 -96 -10 0 7 63 45 75 45 6 0 17 -5 25 -10z m-58 -336 c9 -8 -29
-94 -57 -129 -23 -28 -25 -29 -44 -11 -44 40 -32 114 22 136 26 10 71 13 79 4z"/>
<path d="M10680 1152 c0 -4 -15 -31 -34 -60 -35 -55 -46 -53 -46 6 0 35 -16
60 -29 47 -11 -12 3 -101 20 -121 8 -10 3 -29 -23 -76 -44 -80 -71 -162 -63
-188 9 -28 21 -18 41 38 9 26 50 113 90 194 41 81 74 152 74 158 0 5 -7 10
-15 10 -8 0 -15 -4 -15 -8z"/>
<path d="M15336 1099 c-39 -65 -45 -89 -21 -89 8 0 15 4 15 9 0 5 16 37 35 71
40 71 40 70 21 70 -7 0 -30 -27 -50 -61z"/>
<path d="M8059 1090 c-9 -30 -9 -44 -1 -52 8 -8 13 -6 17 8 4 10 11 29 16 42
13 32 11 42 -6 42 -8 0 -19 -17 -26 -40z"/>
<path d="M4590 945 c-5 -14 -10 -54 -10 -87 0 -34 -5 -90 -11 -124 l-11 -63
-21 20 c-34 32 -83 6 -118 -63 -42 -83 -13 -132 63 -107 83 27 122 116 137
306 5 59 10 114 12 122 8 28 -30 24 -41 -4z m-48 -320 c-16 -30 -74 -85 -87
-85 -33 0 -5 85 37 114 20 14 24 14 40 -1 10 -9 14 -21 10 -28z"/>
<path d="M1982 943 c3 -43 -38 -197 -78 -300 -24 -61 -41 -118 -38 -127 8 -21
34 -21 34 1 0 16 73 93 89 93 5 0 8 -23 7 -51 -1 -34 3 -53 12 -56 7 -3 12 4
12 16 0 26 8 26 32 4 13 -12 42 -19 89 -21 71 -4 99 6 99 35 0 13 -3 13 -15 3
-15 -13 -98 -6 -145 12 -24 9 -23 11 32 39 73 37 86 59 61 102 -28 48 -56 47
-108 -5 -24 -24 -48 -42 -54 -40 -7 2 -23 -4 -37 -13 -14 -9 -28 -15 -30 -12
-3 2 4 24 14 48 30 70 59 199 58 254 -1 20 -7 31 -18 33 -11 2 -17 -3 -16 -15z
m166 -279 c2 -12 -8 -25 -29 -36 -62 -36 -79 -16 -29 34 32 32 53 33 58 2z"/>
<path d="M1842 888 c-11 -35 -29 -98 -38 -140 l-17 -77 -41 -5 c-23 -3 -52 -4
-65 -3 -13 1 -26 -3 -28 -9 -5 -16 50 -25 60 -11 6 9 10 9 14 0 3 -8 14 -11
28 -7 l23 6 -18 -64 c-19 -69 -21 -119 -5 -125 6 -2 16 18 23 44 39 144 42
153 67 153 13 0 30 3 39 6 28 11 17 24 -19 24 -19 0 -35 3 -35 6 0 3 14 60 30
126 17 66 28 124 24 129 -11 19 -21 7 -42 -53z"/>
<path d="M4798 923 c-28 -32 -47 -79 -73 -179 -14 -55 -31 -111 -37 -127 -25
-64 -3 -111 57 -123 66 -12 145 55 145 123 0 47 -43 57 -109 25 l-38 -19 3 29
c7 53 35 152 61 211 17 38 23 61 16 68 -6 6 -15 3 -25 -8z m52 -315 c0 -7 -11
-26 -24 -42 -18 -23 -31 -30 -59 -30 -48 0 -57 11 -27 35 50 40 110 60 110 37z"/>
<path d="M6094 913 c-3 -10 -21 -58 -41 -108 -74 -188 -98 -275 -74 -275 14 0
26 22 51 95 12 39 38 107 57 152 32 80 43 153 23 153 -6 0 -13 -8 -16 -17z"/>
<path d="M5945 898 c-2 -7 -21 -57 -40 -111 -44 -116 -75 -224 -75 -254 0 -43
18 -32 38 25 11 31 38 109 61 172 23 64 43 129 44 144 2 30 -19 48 -28 24z"/>
<path d="M3661 883 c-19 -37 -59 -181 -70 -252 -9 -55 -9 -83 0 -108 15 -47
35 -37 31 16 -2 27 2 51 12 67 15 21 24 24 78 24 l61 0 -8 -42 c-20 -116 -2
-158 27 -61 21 69 23 119 6 130 -7 4 -31 10 -53 13 l-40 5 83 70 c45 38 82 76
82 82 0 30 -41 7 -134 -74 -112 -98 -110 -100 -60 55 13 40 24 77 24 82 0 17
-29 11 -39 -7z"/>
<path d="M5454 741 c-46 -21 -82 -71 -91 -125 -4 -28 -1 -39 21 -61 23 -23 33
-26 83 -23 75 4 80 24 9 32 -70 9 -83 24 -64 73 17 46 67 82 103 76 29 -6 34
13 8 33 -23 17 -20 17 -69 -5z"/>
<path d="M2875 716 c-10 -7 -25 -12 -31 -9 -16 6 -20 -3 -48 -99 -15 -50 -21
-87 -15 -92 11 -12 9 -14 39 54 56 126 100 164 70 60 -16 -56 3 -57 71 -1 35
28 64 49 65 48 2 -1 -1 -20 -6 -42 -13 -57 -12 -95 3 -95 13 0 41 145 31 161
-10 17 -40 9 -74 -21 -19 -16 -38 -29 -42 -30 -4 0 -8 17 -10 37 -3 42 -22 52
-53 29z"/>
<path d="M3369 671 c-42 -42 -49 -72 -23 -109 12 -17 25 -22 62 -22 44 0 92
20 92 39 0 4 -28 7 -62 7 -78 -1 -88 18 -34 68 20 18 36 38 36 44 0 24 -33 11
-71 -27z"/>
<path d="M5659 691 c-36 -19 -56 -57 -45 -86 6 -16 17 -17 65 -4 9 2 17 -6 21
-21 3 -15 14 -26 27 -28 20 -3 21 -1 13 28 -6 20 -5 40 2 55 8 19 8 28 -2 40
-26 31 -45 35 -81 16z m31 -36 c-7 -8 -18 -15 -24 -15 -6 0 -2 7 8 15 25 19
32 19 16 0z"/>
<path d="M3204 692 c-13 -10 -34 -59 -34 -82 0 -26 36 -43 73 -36 49 10 59 23
42 56 -17 34 -67 71 -81 62z m46 -84 c0 -4 -11 -8 -25 -8 -26 0 -29 7 -19 35
6 14 8 14 25 -1 11 -9 19 -21 19 -26z"/>
<path d="M5547 563 c-12 -12 -7 -22 8 -17 8 4 15 10 15 15 0 11 -14 12 -23 2z"/>
<path d="M6177 554 c-4 -4 -4 -11 -1 -15 8 -14 31 -10 38 6 5 15 -24 22 -37 9z"/>
</g>
</svg>
