<?xml version="1.0" standalone="no"?>
<!DOCTYPE svg PUBLIC "-//W3C//DTD SVG 20010904//EN"
 "http://www.w3.org/TR/2001/REC-SVG-20010904/DTD/svg10.dtd">
<svg version="1.0" xmlns="http://www.w3.org/2000/svg"
 width="1872.000000pt" height="364.000000pt" viewBox="0 0 1872.000000 364.000000"
 preserveAspectRatio="xMidYMid meet">

<g transform="translate(0.000000,364.000000) scale(0.100000,-0.100000)"
fill="#000000" stroke="none">
<path d="M2876 3153 c-3 -10 -11 -52 -17 -93 -11 -75 -59 -216 -118 -344 -17
-37 -28 -72 -25 -77 9 -15 22 -10 29 11 9 30 113 153 141 168 30 16 30 9 -1
-74 -29 -76 -32 -114 -10 -114 8 0 15 5 15 12 0 6 11 40 25 74 38 95 41 120
17 133 -24 13 -66 0 -98 -30 -19 -18 -18 -10 13 78 18 53 39 130 45 170 7 52
15 73 25 73 22 0 9 25 -14 28 -14 2 -23 -3 -27 -15z"/>
<path d="M12822 3140 c-46 -28 -67 -67 -114 -215 -23 -71 -46 -136 -52 -143
-5 -7 -11 -23 -12 -35 -1 -12 -6 -41 -9 -64 -6 -36 -5 -43 9 -43 9 0 16 4 16
10 0 5 9 34 21 65 18 49 23 55 49 55 16 0 32 5 35 10 4 6 -7 10 -24 10 -17 0
-31 4 -31 8 0 18 80 244 96 271 22 36 64 56 104 47 33 -6 35 -4 20 25 -14 25
-65 25 -108 -1z"/>
<path d="M6480 3108 c-10 -24 -26 -76 -35 -116 -16 -67 -21 -74 -51 -87 -41
-17 -46 -40 -8 -31 24 6 26 5 20 -16 -38 -133 -46 -188 -26 -188 14 0 24 24
50 123 l24 87 48 0 47 0 -26 -62 c-15 -35 -35 -76 -44 -91 -19 -32 -14 -67 8
-67 8 0 40 23 71 51 l57 50 3 -40 c3 -38 14 -52 26 -33 2 4 6 30 7 57 4 66
-15 70 -81 15 -28 -23 -50 -38 -50 -33 0 5 18 52 40 104 23 52 47 117 56 145
21 74 21 174 -1 153 -2 -3 -9 -38 -15 -77 -5 -40 -17 -88 -25 -107 -13 -33
-17 -35 -61 -35 l-46 0 7 38 c3 20 17 70 31 110 28 85 29 92 8 92 -8 0 -23
-19 -34 -42z"/>
<path d="M8562 3112 c-1 -39 -34 -140 -59 -178 -9 -15 -29 -24 -58 -28 -26 -4
-46 -13 -49 -23 -9 -23 -4 -25 33 -12 18 6 34 9 37 7 2 -3 -9 -34 -26 -69 -30
-65 -39 -132 -19 -145 14 -8 29 14 29 45 0 14 14 55 31 93 29 62 35 68 68 73
128 20 241 46 241 56 0 5 -21 7 -47 5 -27 -3 -84 -8 -128 -12 -67 -6 -78 -5
-69 7 18 22 57 136 51 151 -2 7 0 21 5 32 7 13 6 21 -3 27 -27 17 -37 9 -37
-29z"/>
<path d="M5860 3112 c0 -10 6 -24 13 -31 10 -10 9 -11 -4 -6 -13 5 -19 -10
-34 -77 -11 -46 -25 -94 -32 -108 -7 -14 -13 -33 -13 -44 0 -15 -5 -17 -35
-12 -28 6 -35 4 -35 -8 0 -9 12 -19 26 -22 17 -5 24 -12 21 -23 -25 -85 -29
-110 -22 -127 6 -15 13 0 33 64 22 72 28 83 51 88 64 13 109 29 105 35 -2 4
-1 9 3 12 5 2 1 2 -7 -1 -8 -2 -37 -7 -64 -10 -45 -4 -49 -3 -42 14 33 84 61
207 58 252 -2 26 -22 30 -22 4z"/>
<path d="M13275 3033 c-10 -54 -35 -149 -57 -211 -29 -85 -37 -121 -32 -147 8
-46 21 -44 30 3 4 20 22 79 40 129 37 105 79 286 70 308 -3 8 -11 15 -19 15
-9 0 -19 -31 -32 -97z"/>
<path d="M2485 3102 c-6 -4 -34 -37 -64 -74 -29 -38 -59 -68 -67 -68 -8 0 -14
-4 -14 -10 0 -34 89 36 145 114 13 18 15 18 26 -8 19 -40 -2 -113 -61 -210
-73 -121 -66 -140 20 -56 28 28 54 50 58 50 4 0 6 -26 4 -58 -2 -38 2 -72 12
-96 13 -32 20 -37 43 -34 34 4 112 114 136 191 30 97 42 184 27 202 -13 16
-35 21 -25 6 6 -10 -5 -60 -41 -191 -23 -80 -84 -190 -105 -190 -19 0 -31 57
-26 128 6 82 2 86 -52 45 l-36 -28 20 30 c43 66 59 111 59 166 1 43 -4 62 -18
78 -21 23 -26 24 -41 13z"/>
<path d="M14743 3020 c-23 -57 -31 -68 -46 -64 -23 7 -95 -26 -124 -58 -22
-23 -53 -97 -53 -125 0 -8 14 -28 30 -45 l30 -30 -30 -53 c-30 -53 -39 -99
-20 -110 6 -4 18 11 26 32 32 77 77 142 103 148 15 4 45 18 68 33 67 43 82 98
38 150 l-25 30 21 59 c11 32 30 65 40 75 25 22 24 28 -5 28 -21 0 -29 -10 -53
-70z m-58 -127 c-22 -60 -78 -143 -95 -143 -55 0 -12 125 51 147 47 16 52 16
44 -4z m65 -46 c14 -25 13 -28 -10 -51 -14 -13 -37 -26 -52 -30 l-28 -6 25 56
c14 31 25 59 25 61 0 13 27 -7 40 -30z"/>
<path d="M16864 3062 c-5 -4 -23 -33 -39 -64 -19 -39 -34 -58 -46 -58 -36 0
-88 -33 -104 -66 -19 -41 -19 -93 0 -121 14 -20 13 -27 -5 -74 -21 -52 -19
-89 4 -89 8 0 16 14 20 31 3 17 14 50 24 72 16 36 25 44 63 54 54 14 88 48 96
96 7 43 -10 70 -39 61 -18 -5 -17 -3 3 43 12 26 28 61 35 77 15 29 8 51 -12
38z m-120 -222 c-19 -38 -38 -70 -44 -70 -5 0 -10 18 -10 41 0 31 6 47 29 70
52 52 62 37 25 -41z m98 16 c3 -13 1 -31 -4 -40 -9 -17 -67 -50 -74 -43 -7 7
35 95 49 100 21 9 25 7 29 -17z"/>
<path d="M15545 3007 c-26 -41 -113 -241 -120 -278 -4 -23 -1 -40 9 -54 16
-22 15 -24 34 57 7 26 36 100 67 164 30 64 52 120 49 125 -9 15 -23 10 -39
-14z"/>
<path d="M15115 3004 c-27 -8 -66 -17 -86 -20 -34 -6 -109 -62 -109 -81 0 -16
15 -30 48 -47 37 -19 41 -39 10 -60 -15 -11 -34 -14 -60 -10 -43 7 -50 -6 -16
-30 30 -21 54 -20 93 4 64 40 66 94 3 126 l-32 16 29 22 c16 11 32 21 35 22 3
0 13 4 22 8 9 4 43 15 74 25 32 9 59 22 62 29 5 15 -10 14 -73 -4z"/>
<path d="M15722 2916 c-34 -43 -67 -96 -77 -125 -15 -47 -15 -53 0 -85 21 -44
72 -70 109 -56 57 21 15 138 -45 126 -27 -5 -28 -4 -18 21 14 36 74 117 110
147 35 30 37 46 5 46 -18 0 -40 -19 -84 -74z m12 -192 c9 -23 7 -44 -3 -44 -5
0 -19 9 -32 21 -13 11 -19 18 -13 15 7 -3 14 1 18 9 7 20 22 19 30 -1z"/>
<path d="M17092 2968 c-7 -7 -12 -16 -12 -21 0 -5 -16 -43 -37 -85 -38 -80
-54 -164 -33 -177 16 -10 21 -2 31 52 5 26 29 89 54 138 25 50 45 93 45 98 0
11 -35 8 -48 -5z"/>
<path d="M17273 2951 c-49 -36 -73 -68 -73 -98 0 -13 -15 -40 -34 -60 -45 -51
-59 -80 -52 -109 13 -50 104 -43 162 11 34 32 36 38 32 80 -5 37 -2 45 13 50
27 9 59 54 59 84 0 34 -26 71 -49 71 -10 0 -36 -13 -58 -29z m63 -55 c-4 -17
-15 -28 -34 -32 -15 -3 -35 -8 -44 -11 -30 -7 -20 13 23 52 45 40 67 36 55 -9z
m-70 -111 c12 -29 -6 -63 -40 -79 -37 -17 -76 -21 -76 -7 0 17 47 76 70 88 32
16 39 16 46 -2z"/>
<path d="M16381 2943 c-59 -30 -82 -56 -66 -72 7 -7 26 0 56 19 24 16 59 33
77 36 l32 6 -46 -80 c-34 -60 -59 -91 -95 -117 -54 -38 -68 -60 -51 -77 8 -8
26 1 66 30 56 43 86 53 86 29 0 -8 9 -22 19 -31 15 -14 26 -16 47 -9 15 5 30
15 32 23 3 7 0 10 -7 6 -21 -14 -51 4 -51 31 0 17 -7 27 -21 30 -24 7 -23 11
31 99 51 84 49 98 -10 102 -34 2 -59 -4 -99 -25z"/>
<path d="M6825 2901 c-7 -12 12 -24 25 -16 11 7 4 25 -10 25 -5 0 -11 -4 -15
-9z"/>
<path d="M7594 2870 c-27 -11 -72 -65 -80 -95 -3 -13 -15 -26 -27 -30 -21 -6
-21 -7 -3 -14 10 -4 24 -23 30 -42 16 -50 50 -63 114 -44 74 22 79 40 9 32
-30 -4 -63 -4 -71 -1 -22 8 -20 53 2 61 26 9 73 55 83 81 6 15 5 31 -1 43 -11
20 -23 23 -56 9z m19 -47 c-9 -25 -23 -42 -45 -54 -18 -10 -18 -9 -7 12 10 19
47 57 56 59 1 0 0 -8 -4 -17z"/>
<path d="M3099 2842 c-70 -46 -112 -137 -88 -188 19 -40 56 -42 119 -8 71 39
66 62 -6 26 -55 -27 -56 -27 -70 -7 -8 10 -13 24 -11 30 2 5 32 26 66 46 34
20 72 46 84 58 l22 22 -24 20 c-29 24 -58 24 -92 1z m61 -30 c0 -10 -80 -56
-86 -49 -7 7 55 57 72 57 8 0 14 -4 14 -8z"/>
<path d="M6998 2844 c-33 -17 -37 -57 -12 -106 15 -29 14 -31 -7 -54 -29 -31
-43 -31 -37 1 6 30 -3 32 -25 7 -22 -24 -21 -35 3 -57 17 -15 23 -16 51 -5 18
8 37 27 47 47 14 30 14 36 -1 68 -9 20 -17 42 -17 50 0 18 31 35 64 35 18 0
24 4 20 15 -8 19 -51 19 -86 -1z"/>
<path d="M7840 2818 c-18 -72 -31 -107 -39 -113 -5 -2 -20 22 -35 55 -28 63
-40 77 -51 60 -10 -17 61 -160 80 -160 21 0 52 55 67 118 6 30 18 56 25 59 18
7 6 23 -17 23 -14 0 -22 -11 -30 -42z"/>
<path d="M11125 2817 c-28 -28 -35 -43 -35 -75 0 -53 34 -82 96 -82 23 0 45 4
49 10 3 5 12 7 20 3 8 -3 15 0 15 5 0 6 -18 10 -40 10 -63 -1 -100 19 -100 53
0 43 34 73 76 66 25 -4 34 -2 34 8 0 17 -6 21 -48 30 -28 6 -37 2 -67 -28z"/>
<path d="M11645 2842 c-39 -8 -98 -61 -111 -99 -7 -20 -11 -40 -8 -45 10 -15
33 -8 39 13 12 37 65 89 92 89 22 0 25 -3 19 -27 -17 -76 -19 -103 -5 -103 16
0 49 84 49 123 0 35 -34 58 -75 49z"/>
<path d="M4147 2805 c-21 -20 -44 -50 -54 -68 l-16 -32 -16 46 c-18 54 -40 84
-53 71 -10 -10 15 -99 35 -127 13 -17 9 -27 -41 -104 -56 -88 -102 -176 -102
-198 0 -26 21 -12 36 22 8 19 34 61 57 93 24 31 67 97 96 145 29 48 68 108 87
133 19 24 34 46 34 49 0 16 -32 0 -63 -30z"/>
<path d="M5273 2830 c-32 -13 -56 -55 -49 -85 9 -34 46 -51 76 -35 12 6 24 9
27 6 15 -15 -11 -216 -28 -216 -6 0 -30 5 -55 11 -89 23 -134 -22 -134 -136 0
-138 47 -173 125 -92 24 25 50 66 61 98 18 49 22 54 47 51 32 -3 35 11 7 31
-19 13 -19 16 -4 88 9 46 13 99 10 139 -3 36 -5 80 -5 98 0 25 -6 34 -26 42
-15 6 -27 10 -28 9 -1 0 -12 -4 -24 -9z m31 -66 c-18 -26 -29 -30 -40 -12 -8
13 33 51 47 42 5 -3 2 -16 -7 -30z m-51 -295 c33 -9 37 -13 31 -32 -18 -61
-104 -170 -121 -153 -4 4 -9 40 -11 81 -4 64 -1 76 17 94 24 24 32 25 84 10z"/>
<path d="M5491 2794 c-34 -39 -41 -54 -41 -88 1 -62 18 -78 87 -80 45 -1 58 2
58 14 0 11 -9 14 -38 12 -46 -4 -67 11 -67 47 0 22 8 31 45 49 47 23 60 53 33
80 -20 20 -35 14 -77 -34z m54 -3 c-3 -6 -16 -16 -28 -22 -21 -11 -21 -10 2
15 23 25 40 29 26 7z"/>
<path d="M9974 2832 c-6 -4 -24 -27 -39 -52 l-28 -45 -8 29 c-10 36 -37 66
-60 66 -30 0 -32 -19 -4 -42 15 -14 28 -38 32 -60 5 -32 -1 -46 -41 -108 -69
-104 -95 -156 -85 -171 10 -17 2 -26 101 121 45 68 100 149 121 179 45 67 50
110 11 83z"/>
<path d="M12230 2823 c-41 -21 -50 -55 -26 -102 23 -43 20 -68 -10 -88 -24
-16 -27 -16 -36 0 -12 23 -25 21 -31 -5 -14 -54 44 -64 98 -17 39 34 46 74 20
119 -8 14 -14 31 -15 38 0 18 67 45 97 39 18 -3 23 0 21 12 -5 23 -75 26 -118
4z"/>
<path d="M12864 2808 c-39 -48 -57 -94 -44 -118 18 -34 46 -43 88 -29 20 7 43
12 51 10 7 -1 10 2 6 9 -3 6 -16 10 -28 9 -58 -5 -77 1 -77 24 0 16 12 28 43
43 47 24 59 51 31 71 -27 20 -40 16 -70 -19z m56 -7 c0 -5 -7 -12 -16 -15 -14
-5 -15 -4 -4 9 14 17 20 19 20 6z"/>
<path d="M3353 2813 c-14 -9 -23 -11 -23 -4 0 6 -6 11 -12 11 -13 -1 -78 -124
-78 -148 0 -22 38 -13 43 11 4 12 29 45 58 72 31 30 49 42 45 30 -13 -34 -24
-117 -19 -136 10 -36 19 -18 35 68 21 109 7 136 -49 96z"/>
<path d="M7997 2811 c-57 -37 -70 -77 -42 -131 17 -33 61 -49 117 -42 59 7 67
28 12 31 -64 3 -92 16 -100 46 -5 21 0 33 22 56 15 16 36 29 46 29 28 0 21
-15 -17 -36 -34 -18 -46 -34 -25 -34 20 0 75 27 89 44 12 14 11 19 -4 36 -22
24 -61 25 -98 1z"/>
<path d="M8281 2804 c-24 -20 -31 -22 -31 -10 0 25 -19 19 -30 -10 -6 -14 -26
-45 -45 -67 -19 -22 -35 -47 -35 -54 0 -27 44 -13 76 25 18 20 46 53 63 72
l30 35 1 -63 c0 -61 12 -102 29 -102 12 0 13 144 1 175 -12 31 -21 31 -59 -1z"/>
<path d="M9103 2815 c-8 -23 -1 -26 82 -36 87 -9 139 -3 131 17 -3 7 0 15 7
17 7 3 5 8 -7 12 -11 5 -27 3 -37 -3 -14 -9 -37 -9 -86 -2 -87 12 -83 13 -90
-5z"/>
<path d="M10073 2793 c-51 -53 -73 -93 -73 -129 0 -46 39 -54 92 -19 53 35 65
63 46 112 -9 21 -13 43 -11 50 10 29 -21 21 -54 -14z m37 -53 c14 -26 1 -50
-39 -73 -36 -21 -40 -11 -17 44 23 55 38 62 56 29z"/>
<path d="M10306 2799 c-21 -35 -30 -46 -101 -107 -32 -28 -45 -46 -39 -52 7
-7 24 0 52 20 23 16 44 25 47 20 12 -19 44 -9 81 25 20 19 37 35 38 35 1 0 1
-15 1 -32 0 -23 5 -33 15 -33 10 0 14 8 13 23 -2 13 4 39 12 59 25 60 3 65
-53 12 -83 -79 -90 -81 -54 -15 18 33 32 63 32 68 0 20 -27 5 -44 -23z"/>
<path d="M11385 2812 c-37 -23 -95 -88 -95 -106 0 -8 7 -20 16 -27 13 -11 23
-11 59 2 43 16 44 16 49 -7 4 -13 13 -24 22 -24 12 0 14 7 9 29 -5 22 0 41 17
70 18 31 20 43 11 52 -9 9 -16 4 -32 -22 -12 -19 -22 -37 -23 -41 -2 -4 -20
-14 -40 -23 -31 -12 -38 -13 -38 -2 0 19 68 87 86 87 16 0 15 21 -2 27 -5 2
-23 -5 -39 -15z"/>
<path d="M4511 2782 c-11 -21 -40 -57 -65 -80 -25 -23 -46 -47 -46 -52 0 -6
-3 -9 -7 -9 -19 3 -33 -2 -33 -11 0 -20 36 -10 72 20 29 24 37 27 42 15 8 -23
34 -18 76 15 40 31 50 27 50 -20 0 -11 10 -24 21 -31 17 -9 25 -8 37 5 15 15
15 16 -5 16 -23 0 -33 31 -33 101 0 41 -23 56 -34 21 -4 -10 -25 -36 -47 -58
l-41 -39 26 52 c27 54 34 93 16 93 -5 0 -18 -17 -29 -38z"/>
<path d="M4264 2802 c-8 -6 -25 -41 -55 -120 -14 -35 -11 -68 7 -83 13 -11 21
-10 51 6 41 23 81 67 89 101 5 19 0 33 -22 56 -35 36 -57 49 -70 40z m45 -68
c18 -23 19 -28 6 -48 -15 -22 -68 -66 -81 -66 -10 0 2 59 20 103 19 44 28 46
55 11z"/>
<path d="M13430 2736 c-24 -36 -48 -62 -52 -60 -4 3 -8 27 -8 55 0 37 -4 49
-15 49 -23 0 -23 -94 0 -120 12 -13 4 -29 -50 -109 -66 -96 -95 -162 -95 -214
0 -29 1 -29 18 -13 11 9 25 35 31 59 15 49 42 93 164 270 48 70 85 132 82 137
-13 22 -34 7 -75 -54z"/>
<path d="M6742 2763 c-18 -36 -35 -103 -28 -110 9 -9 29 13 31 34 1 10 7 28
13 40 14 26 16 53 2 53 -5 0 -13 -8 -18 -17z"/>
<path d="M12423 2749 c-24 -9 -83 -78 -83 -97 0 -20 46 -33 76 -22 19 8 29 6
41 -6 18 -17 54 -15 61 4 2 6 -4 12 -13 12 -15 0 -16 7 -11 44 7 41 5 45 -22
58 -17 9 -37 12 -49 7z m25 -51 c-8 -11 -25 -25 -39 -30 -21 -7 -21 -5 9 22
38 35 50 39 30 8z"/>
<path d="M15162 2708 c-19 -19 -14 -30 10 -26 13 2 24 11 26 21 4 20 -18 23
-36 5z"/>
<path d="M15893 2684 c-8 -21 13 -42 28 -27 13 13 5 43 -11 43 -6 0 -13 -7
-17 -16z"/>
<path d="M5615 2650 c3 -5 8 -10 11 -10 2 0 4 5 4 10 0 6 -5 10 -11 10 -5 0
-7 -4 -4 -10z"/>
<path d="M6952 2573 c2 -10 -3 -64 -11 -120 -13 -101 -14 -103 -40 -103 -35 0
-104 -25 -109 -39 -3 -9 14 -10 61 -5 l65 7 -18 -67 c-12 -43 -15 -68 -8 -72
15 -10 24 6 37 69 14 64 30 77 97 77 19 0 34 4 34 10 0 9 -65 26 -87 22 -16
-4 -16 11 1 128 8 52 12 98 10 102 -10 15 -34 8 -32 -9z"/>
<path d="M13720 2528 c-17 -29 -29 -62 -28 -73 4 -24 22 -23 27 1 2 10 14 35
27 56 13 21 24 44 24 53 0 29 -20 14 -50 -37z"/>
<path d="M13813 2530 c-32 -49 -42 -80 -24 -80 10 0 81 105 81 120 0 25 -28 6
-57 -40z"/>
<path d="M2188 2554 c-4 -3 -4 -20 -2 -37 3 -18 -4 -66 -14 -107 -15 -57 -24
-76 -38 -78 -47 -7 -64 -13 -64 -22 0 -6 16 -10 36 -10 36 0 36 -1 30 -32 -15
-70 -19 -138 -8 -138 17 0 26 20 42 100 l15 75 43 -3 c25 -2 42 1 42 7 0 6
-11 11 -24 11 -54 0 -55 5 -34 87 22 86 21 146 -2 151 -9 1 -19 0 -22 -4z"/>
<path d="M4235 2548 c-2 -7 -13 -51 -25 -98 -32 -128 -36 -134 -97 -141 -55
-7 -73 -14 -73 -30 0 -6 22 -7 60 -3 33 4 60 3 60 -2 0 -5 -7 -31 -15 -58 -16
-53 -20 -126 -7 -126 13 0 27 37 47 123 17 72 21 78 49 85 37 10 46 30 11 27
-14 -2 -25 -1 -25 2 0 2 12 49 26 103 15 54 24 105 21 114 -8 19 -26 21 -32 4z"/>
<path d="M2893 2526 c4 -9 2 -38 -3 -64 -5 -26 -12 -73 -15 -104 l-6 -57 -66
-3 c-42 -2 -68 -8 -71 -15 -3 -10 14 -13 61 -13 l64 0 -13 -52 c-16 -61 -18
-118 -4 -118 10 0 12 6 30 103 13 63 29 77 94 77 29 0 56 14 56 30 0 3 -26 3
-57 -1 -32 -3 -59 -5 -61 -4 -2 1 2 42 9 91 17 129 17 138 -5 142 -14 3 -17 0
-13 -12z"/>
<path d="M4330 2500 c0 -30 -37 -143 -85 -258 -46 -111 -20 -147 39 -53 20 33
50 70 66 81 l30 22 -6 -73 c-6 -59 -5 -71 7 -67 20 7 36 133 19 153 -16 20
-21 19 -62 -9 l-35 -23 27 73 c15 40 29 98 32 128 4 49 2 56 -14 56 -13 0 -18
-8 -18 -30z"/>
<path d="M8880 2417 c-47 -45 -100 -90 -118 -100 l-33 -19 7 39 c3 21 15 62
24 91 10 28 18 53 17 53 -1 1 -12 3 -25 4 -15 1 -21 -2 -19 -10 7 -16 -47
-211 -77 -279 -14 -31 -21 -58 -15 -61 16 -10 26 3 45 56 23 63 50 82 115 83
76 1 83 -26 33 -126 -26 -50 -29 -68 -15 -68 12 0 81 118 87 149 8 38 -29 81
-68 81 -30 0 -29 1 33 51 70 56 118 107 119 127 0 27 -29 8 -110 -71z"/>
<path d="M14971 2438 c-15 -35 -37 -85 -47 -113 -17 -42 -24 -50 -53 -56 -19
-4 -45 -3 -59 2 -13 5 -40 7 -58 3 l-34 -6 25 73 c27 80 33 133 13 127 -7 -3
-19 -22 -26 -44 -52 -149 -63 -172 -92 -184 -34 -14 -40 -30 -11 -30 15 0 18
-5 14 -22 -3 -13 -10 -28 -14 -34 -5 -6 0 -17 12 -27 18 -16 20 -16 28 5 5 13
12 38 16 56 8 37 27 50 90 58 31 5 45 3 45 -5 0 -8 11 -10 34 -5 l34 6 -13
-39 c-17 -45 -19 -87 -5 -78 5 3 22 32 37 63 31 66 37 72 81 72 20 0 31 4 27
10 -3 6 -19 10 -34 10 l-29 0 24 66 c13 36 31 79 40 95 16 32 13 59 -6 59 -6
0 -24 -28 -39 -62z"/>
<path d="M16574 2424 c-12 -10 -15 -17 -7 -20 19 -8 0 -54 -66 -157 -82 -129
-81 -155 2 -98 47 32 107 64 107 57 0 -3 -5 -17 -10 -31 -12 -33 3 -65 30 -65
24 0 90 31 90 42 0 11 -11 10 -49 -3 -41 -14 -46 -8 -27 30 38 72 7 91 -73 46
-51 -29 -59 -28 -33 6 28 35 48 78 60 130 7 26 14 54 18 63 8 21 -16 21 -42 0z"/>
<path d="M1490 2368 c-43 -47 -61 -103 -64 -191 -1 -40 3 -52 14 -52 10 0 18
22 26 77 11 74 37 131 69 158 13 10 19 9 34 -8 10 -12 21 -19 24 -16 14 14
-26 74 -50 74 -8 0 -31 -19 -53 -42z"/>
<path d="M11053 2382 c-37 -6 -48 -30 -48 -105 0 -62 -2 -71 -24 -85 -24 -17
-24 -16 -17 12 9 35 -9 32 -32 -7 -16 -27 -16 -29 2 -43 25 -17 52 -10 90 25
27 25 28 29 23 93 -5 59 -4 67 14 71 11 3 26 -2 34 -10 15 -15 45 -12 45 5 0
11 -30 38 -50 43 -8 3 -25 3 -37 1z"/>
<path d="M10180 2354 c0 -31 23 -28 28 4 2 15 -2 22 -12 22 -11 0 -16 -9 -16
-26z"/>
<path d="M1649 2343 c-37 -32 -59 -78 -59 -128 0 -67 31 -91 81 -65 27 15 24
26 -8 25 -23 0 -29 5 -31 25 -2 21 5 28 47 47 56 24 72 55 52 99 -14 31 -42
31 -82 -3z m51 -33 c0 -20 -46 -58 -57 -46 -5 5 44 66 54 66 2 0 3 -9 3 -20z"/>
<path d="M7861 2321 c-36 -21 -67 -43 -69 -49 -2 -7 -10 -12 -18 -12 -8 0 -14
-4 -14 -10 0 -16 13 -12 83 25 37 20 67 33 67 30 0 -3 -11 -28 -25 -55 -43
-85 -31 -104 40 -64 41 22 49 24 63 11 26 -22 49 -27 66 -14 22 17 59 128 47
140 -16 16 -37 -9 -51 -58 -15 -53 -23 -61 -40 -40 -16 19 -50 19 -78 -1 -22
-15 -22 -14 5 41 21 42 25 60 17 72 -16 26 -24 24 -93 -16z"/>
<path d="M9363 2330 c-18 -10 -39 -30 -48 -44 -9 -14 -23 -22 -30 -20 -18 7
-35 -27 -35 -70 0 -25 4 -36 15 -36 8 0 15 5 15 11 0 18 79 128 101 139 11 6
33 8 50 5 22 -5 29 -3 29 8 0 31 -51 35 -97 7z"/>
<path d="M1883 2333 c-31 -6 -73 -52 -73 -79 0 -13 14 -39 31 -59 18 -20 29
-39 25 -43 -4 -3 -11 0 -17 8 -8 13 -12 12 -24 -4 -35 -46 1 -65 63 -34 30 16
28 43 -9 89 -17 22 -28 46 -25 54 8 21 55 37 84 30 32 -8 44 2 32 26 -10 19
-35 22 -87 12z"/>
<path d="M11242 2315 c-16 -13 -42 -50 -58 -80 l-29 -56 28 -25 c30 -26 76
-31 121 -14 43 16 30 25 -36 25 -60 0 -63 1 -65 25 -2 14 3 33 11 43 12 16 17
16 35 5 18 -11 27 -10 59 7 42 23 51 48 26 76 -23 26 -57 24 -92 -6z m74 -16
c8 -14 -5 -26 -38 -34 -22 -6 -28 -4 -28 8 0 28 52 48 66 26z"/>
<path d="M6009 2303 c-11 -28 -39 -157 -39 -180 0 -30 29 -8 68 52 24 36 48
65 53 65 6 0 7 -25 3 -65 -6 -53 -4 -65 8 -65 8 0 19 18 26 45 30 114 1 156
-69 98 l-32 -27 7 46 c8 54 -8 74 -25 31z"/>
<path d="M14056 2298 c-14 -18 -31 -40 -39 -48 -7 -9 -19 -43 -26 -75 -7 -33
-24 -89 -38 -123 -17 -44 -22 -67 -15 -74 6 -6 15 -7 20 -4 11 6 46 107 57
162 5 25 12 33 37 38 36 7 93 63 102 101 15 61 -55 77 -98 23z m74 -6 c0 -23
-65 -91 -87 -92 -16 0 -7 26 24 68 21 28 63 45 63 24z"/>
<path d="M4516 2301 c-38 -26 -55 -57 -56 -103 0 -88 37 -118 116 -91 47 16
84 40 84 56 0 4 -9 3 -20 -3 -11 -6 -41 -15 -67 -19 -54 -10 -73 -1 -73 34 0
16 10 26 40 38 43 17 62 48 50 82 -10 27 -39 29 -74 6z m54 -25 c0 -12 -33
-36 -48 -36 -14 1 -12 5 7 20 21 19 41 26 41 16z"/>
<path d="M6267 2281 c-54 -50 -61 -73 -36 -106 25 -30 76 -41 124 -25 47 16
38 23 -30 24 -37 1 -60 7 -72 18 -16 16 -14 17 20 11 52 -8 89 17 85 59 -2 18
-12 37 -25 45 -20 14 -25 12 -66 -26z m61 -23 c-2 -14 -13 -24 -32 -29 -40
-11 -44 -4 -16 26 29 31 53 33 48 3z"/>
<path d="M9052 2294 c-70 -35 -106 -78 -98 -118 11 -56 60 -79 120 -56 41 15
30 25 -26 25 -52 0 -53 1 -53 30 0 27 4 30 42 37 64 11 103 34 103 63 0 41
-30 48 -88 19z m58 -19 c0 -2 -14 -12 -31 -20 -40 -21 -63 -13 -24 8 29 16 55
22 55 12z"/>
<path d="M8434 2296 c-30 -13 -64 -73 -64 -112 0 -25 24 -10 35 22 15 44 24
55 61 70 36 15 46 34 17 34 -10 -1 -32 -7 -49 -14z"/>
<path d="M11478 2290 c-72 -39 -104 -113 -53 -126 16 -4 37 1 61 15 40 24 51
22 35 -6 -17 -28 -68 -164 -81 -213 -6 -25 -28 -77 -47 -117 -33 -66 -38 -103
-13 -103 5 0 16 15 24 33 30 73 133 164 205 182 60 16 63 40 4 39 -29 -1 -56
-10 -85 -30 -67 -46 -75 -50 -62 -33 6 8 33 77 59 154 26 77 54 153 62 168 13
27 13 29 -6 34 -12 3 -21 9 -21 14 0 15 -43 9 -82 -11z m35 -44 c-15 -12 -39
-29 -53 -36 -24 -13 -24 -12 -10 5 16 20 70 55 83 55 5 0 -4 -11 -20 -24z"/>
<path d="M12003 2297 c-45 -25 -93 -78 -93 -102 0 -41 47 -71 101 -63 34 5 33
23 -1 25 -33 2 -70 19 -70 32 0 4 19 16 43 25 38 15 40 18 25 30 -16 12 -15
14 10 25 25 10 25 10 8 -4 -17 -13 -18 -15 -2 -21 18 -7 46 12 46 32 0 7 -9
18 -19 24 -24 12 -21 12 -48 -3z"/>
<path d="M15890 2303 c-8 -3 -35 -19 -59 -36 -39 -26 -45 -28 -53 -13 -7 12
-14 14 -28 6 -13 -7 -19 -6 -24 5 -8 23 -23 18 -34 -12 -6 -16 -22 -47 -36
-70 -38 -61 -13 -67 36 -9 43 50 54 54 39 13 -16 -41 5 -42 45 -2 34 34 125
97 131 91 2 -2 -4 -22 -12 -46 -17 -47 -20 -100 -6 -100 11 0 53 136 49 158
-3 18 -24 24 -48 15z"/>
<path d="M2286 2269 c-40 -48 -32 -119 14 -119 8 0 32 11 53 25 31 22 38 24
43 10 3 -8 12 -15 18 -15 13 0 16 74 3 86 -3 4 -25 -10 -47 -30 -44 -40 -70
-46 -70 -17 0 27 27 51 57 51 19 0 24 4 19 16 -3 9 -6 18 -6 20 0 2 -13 4 -29
4 -20 0 -37 -9 -55 -31z"/>
<path d="M8184 2264 c-34 -35 -43 -74 -25 -103 5 -7 29 -15 54 -18 37 -4 49
-1 66 16 18 18 21 29 16 54 -4 18 -11 36 -16 42 -5 5 -9 17 -9 27 0 32 -49 22
-86 -18z m86 -74 c0 -12 -46 -24 -65 -16 -20 7 -19 35 2 59 17 18 18 18 40 -8
13 -14 23 -30 23 -35z"/>
<path d="M12498 2280 c-126 -67 -60 -193 87 -166 49 9 36 22 -29 30 -57 8 -93
33 -83 61 11 26 69 56 100 51 22 -4 27 -2 27 13 0 35 -46 40 -102 11z"/>
<path d="M12793 2289 c-17 -5 -41 -21 -52 -35 -63 -80 27 -148 157 -119 44 9
40 23 -5 22 -52 -1 -123 21 -130 39 -7 19 23 50 57 58 24 7 23 5 -7 -22 -18
-16 -33 -32 -33 -35 0 -15 30 -5 60 19 23 20 30 34 28 53 -3 29 -24 35 -75 20z"/>
<path d="M10233 2270 c-18 -10 -38 -32 -46 -47 -17 -34 -16 -78 1 -78 6 0 12
3 12 8 -1 17 31 67 52 81 34 24 48 20 48 -13 0 -39 9 -61 26 -61 18 0 20 100
2 118 -18 18 -59 15 -95 -8z"/>
<path d="M11712 2275 c-7 -64 -3 -98 12 -113 15 -15 18 -14 43 4 34 25 86 111
73 119 -15 9 -28 -3 -49 -44 -11 -20 -27 -43 -35 -50 -14 -11 -16 -11 -18 5
-2 29 -1 41 6 69 5 20 3 25 -12 25 -10 0 -19 -7 -20 -15z"/>
<path d="M2533 2265 c-44 -19 -57 -47 -42 -90 13 -36 35 -46 45 -21 3 8 1 24
-5 35 -9 16 -7 23 11 35 12 9 39 16 60 16 44 0 50 16 12 30 -33 13 -42 12 -81
-5z"/>
<path d="M6530 2272 c0 -5 9 -18 20 -30 11 -12 20 -26 20 -31 0 -6 -25 -25
-55 -42 -30 -17 -55 -35 -55 -39 0 -21 21 -17 75 15 31 19 60 35 63 35 3 0 15
-9 27 -20 13 -12 25 -16 34 -11 10 7 8 13 -11 30 -12 12 -23 26 -23 30 0 4
-16 22 -36 39 -36 31 -59 41 -59 24z m10 -116 c0 -2 -7 -6 -15 -10 -8 -3 -15
-1 -15 4 0 6 7 10 15 10 8 0 15 -2 15 -4z"/>
<path d="M6626 2258 c-7 -27 11 -49 23 -29 9 15 3 51 -9 51 -4 0 -10 -10 -14
-22z"/>
<path d="M12237 2264 c-33 -18 -96 -84 -97 -101 0 -25 30 -13 70 27 59 59 93
51 69 -15 -11 -31 -11 -37 4 -52 15 -15 17 -15 22 3 4 10 11 29 16 42 15 37
11 61 -16 87 -28 29 -31 29 -68 9z"/>
<path d="M14417 2269 c-17 -10 -39 -46 -51 -84 -5 -16 1 -25 24 -39 32 -19 85
-16 143 6 46 18 30 28 -32 21 -33 -3 -68 -3 -77 1 -15 6 -11 11 24 32 43 26
51 41 30 62 -15 15 -37 15 -61 1z m43 -33 c0 -2 -7 -7 -16 -10 -8 -3 -12 -2
-9 4 6 10 25 14 25 6z"/>
<path d="M16281 2257 c-119 -60 -94 -195 30 -158 52 16 49 27 -8 30 -26 1 -52
6 -58 12 -17 17 17 62 62 84 24 11 42 26 40 34 -3 22 -19 22 -66 -2z"/>
<path d="M14234 2243 c-53 -50 -87 -101 -79 -120 6 -16 9 -14 28 12 44 60 89
104 110 107 29 4 24 22 -6 26 -15 2 -34 -7 -53 -25z"/>
<path d="M10105 2223 c-4 -15 -13 -44 -22 -65 -15 -35 -12 -58 7 -58 17 0 51
81 48 112 -4 41 -25 48 -33 11z"/>
<path d="M15995 2238 c-15 -50 -14 -87 3 -108 16 -19 22 -21 40 -11 26 14 92
98 92 117 0 25 -19 15 -69 -38 l-51 -53 7 53 c4 37 2 52 -6 52 -6 0 -13 -6
-16 -12z"/>
<path d="M15033 2233 c-30 -6 -29 -23 1 -23 19 0 22 -4 19 -23 -3 -13 2 -30
10 -39 13 -13 11 -20 -19 -59 -77 -99 -128 -217 -99 -228 5 -2 26 28 45 66 19
39 53 94 75 124 69 91 107 158 101 174 -9 24 -22 18 -45 -20 -22 -37 -47 -48
-38 -16 5 19 -9 52 -21 50 -4 -1 -17 -4 -29 -6z"/>
<path d="M13055 2131 c-8 -15 3 -31 21 -31 9 0 14 7 12 17 -4 20 -24 28 -33
14z"/>
<path d="M7147 2053 c-65 -94 -108 -143 -125 -143 -10 0 -28 7 -40 16 -60 42
-162 -68 -162 -174 0 -26 6 -57 14 -67 12 -17 7 -27 -52 -104 -81 -107 -131
-206 -114 -223 9 -9 15 -4 26 23 8 19 52 84 98 146 l83 112 50 -6 c75 -8 163
13 197 47 22 23 28 38 28 73 0 49 -20 106 -44 127 -20 16 -20 34 -1 50 26 21
106 150 100 160 -12 19 -26 10 -58 -37z m-161 -166 c21 -12 20 -14 -43 -99
-36 -48 -69 -85 -74 -82 -14 8 -10 83 6 117 13 27 69 78 85 77 3 -1 15 -6 26
-13z m104 -58 c28 -53 24 -106 -10 -130 -26 -19 -127 -36 -154 -26 -12 5 -2
24 47 88 34 44 66 87 72 95 15 22 23 17 45 -27z"/>
<path d="M12973 2047 c-5 -6 -16 -28 -23 -47 -7 -19 -39 -87 -70 -150 -86
-173 -121 -257 -114 -274 3 -9 9 -16 13 -16 4 0 25 36 46 81 22 44 45 85 52
91 18 14 150 15 165 0 8 -8 9 -18 1 -34 -43 -95 -44 -100 -26 -96 25 5 76 103
69 132 -7 28 -49 47 -105 49 l-41 2 23 18 c12 10 55 41 95 69 39 29 72 56 72
61 0 24 -111 -41 -196 -116 l-44 -38 55 113 c53 109 65 151 46 162 -5 3 -13 0
-18 -7z"/>
<path d="M8942 1993 c-23 -32 -60 -96 -84 -141 l-43 -84 -80 4 c-66 2 -80 0
-80 -12 0 -12 16 -16 70 -18 38 -2 71 -5 72 -6 1 -1 -6 -26 -17 -54 -24 -63
-25 -90 -4 -120 19 -28 68 -29 108 -3 l28 19 -53 -2 c-52 -1 -54 0 -57 27 -2
15 8 51 21 81 24 53 25 53 86 65 76 15 80 32 6 26 l-56 -6 37 73 c20 40 52 99
71 131 24 39 32 62 25 69 -6 6 -23 -10 -50 -49z"/>
<path d="M10861 1987 c-13 -34 -37 -92 -54 -128 l-29 -67 -70 -6 c-47 -5 -68
-11 -65 -19 3 -8 24 -11 65 -9 l60 3 -8 -33 c-4 -18 -13 -53 -19 -77 -8 -28
-9 -47 -3 -53 12 -12 16 -6 32 47 36 119 40 125 81 125 22 0 39 5 39 10 0 6 0
13 0 17 0 4 -14 6 -32 4 -29 -3 -30 -1 -24 26 4 15 23 67 42 116 32 79 36 107
16 107 -4 0 -18 -28 -31 -63z"/>
<path d="M16901 1925 l-34 -124 -46 -3 c-34 -2 -47 -7 -49 -20 -3 -15 4 -18
37 -18 23 0 41 -2 41 -3 0 -2 -9 -30 -20 -62 -22 -63 -26 -120 -10 -130 6 -3
12 0 13 7 2 7 16 52 32 100 27 84 28 86 62 90 42 5 49 -4 28 -36 -34 -52 14
-96 103 -96 39 0 55 5 77 26 33 30 29 39 -9 19 -30 -16 -57 -18 -93 -9 -25 7
-31 24 -9 24 20 0 68 59 64 79 -2 12 -16 16 -48 18 -25 1 -64 5 -88 9 -50 8
-50 -1 -6 142 26 82 26 112 2 112 -8 0 -26 -48 -47 -125z m149 -179 c0 -2 -16
-16 -35 -30 -41 -32 -46 -26 -9 9 24 22 44 32 44 21z"/>
<path d="M14512 2027 c-5 -6 -13 -28 -17 -47 -11 -51 -62 -159 -77 -164 -7 -2
-34 -10 -60 -17 -67 -19 -66 -44 1 -36 l49 6 -30 -72 c-16 -40 -33 -80 -39
-90 -14 -25 7 -53 27 -36 8 6 14 15 14 19 0 5 16 47 36 95 27 63 43 89 60 95
26 10 32 30 9 30 -11 0 -7 15 16 67 16 37 32 86 36 109 6 43 -7 64 -25 41z"/>
<path d="M5563 2007 c-61 -41 -98 -113 -127 -249 -5 -24 -13 -28 -66 -39 -33
-6 -65 -18 -72 -27 -12 -13 -7 -14 40 -8 29 4 59 9 68 13 18 7 19 13 -15 -102
-30 -105 -147 -278 -167 -249 -11 16 -42 22 -45 9 -2 -5 -23 -23 -48 -38 -26
-16 -65 -47 -88 -70 -48 -46 -48 -46 -29 32 23 91 30 164 16 159 -15 -5 -30
-48 -71 -208 -43 -172 -42 -165 -30 -189 18 -33 28 -25 34 26 3 29 12 52 23
60 35 25 116 43 165 37 70 -9 75 -15 60 -64 -16 -53 -6 -63 25 -25 26 33 32
86 10 104 -45 37 -211 23 -248 -21 -10 -11 -18 -15 -18 -9 0 6 10 20 23 30 12
11 36 31 52 46 17 14 47 37 68 52 36 25 38 25 51 7 22 -30 63 -8 129 71 67 80
118 179 143 278 16 66 17 68 44 62 39 -9 46 10 10 25 -21 9 -29 18 -26 29 3 9
10 39 17 66 7 28 20 66 30 86 20 40 87 99 113 99 9 0 16 7 16 15 0 22 -49 18
-87 -8z m-348 -687 c-3 -5 -12 -10 -18 -10 -7 0 -6 4 3 10 19 12 23 12 15 0z"/>
<path d="M14650 1918 c-28 -56 -76 -146 -107 -200 -41 -73 -53 -102 -45 -110
9 -9 21 -4 49 18 43 34 159 114 166 114 3 0 -1 -21 -9 -46 -10 -33 -11 -52 -3
-65 15 -30 23 -23 38 34 22 88 24 109 11 117 -13 8 -85 -30 -149 -78 l-34 -25
46 84 c73 133 125 243 120 252 -14 23 -37 -4 -83 -95z"/>
<path d="M4487 1988 c-4 -12 -11 -63 -18 -114 -12 -89 -13 -92 -45 -107 -34
-17 -90 -88 -96 -123 -4 -25 18 -54 42 -54 36 0 81 23 94 49 7 14 18 58 24 96
31 188 40 260 36 267 -10 16 -32 8 -37 -14z m-36 -250 c2 -18 -1 -50 -6 -74
-5 -21 -42 -44 -71 -44 -26 0 -12 50 26 90 38 41 49 47 51 28z"/>
<path d="M7697 2003 c-4 -3 -7 -56 -7 -117 0 -61 -3 -127 -6 -146 -6 -33 -8
-35 -45 -35 -31 0 -46 -8 -79 -40 -27 -26 -40 -48 -40 -66 0 -30 15 -39 67
-39 28 0 43 8 71 37 55 58 64 92 72 248 3 77 4 146 2 153 -4 13 -24 16 -35 5z
m-46 -361 c-21 -41 -37 -52 -77 -52 -35 0 -30 24 11 57 31 25 74 44 83 37 2
-1 -6 -20 -17 -42z"/>
<path d="M16290 1971 c0 -17 -6 -45 -14 -63 -74 -177 -100 -268 -75 -268 8 0
19 15 25 33 7 17 23 60 38 93 25 59 52 153 58 204 2 17 -2 26 -14 28 -14 3
-18 -3 -18 -27z"/>
<path d="M1873 1951 c2 -11 -10 -69 -29 -130 -35 -115 -46 -178 -34 -186 4 -3
17 28 29 68 12 39 33 107 47 151 13 43 22 87 19 97 -8 26 -39 25 -32 0z"/>
<path d="M1740 1915 c0 -13 -12 -75 -26 -136 -19 -82 -24 -117 -16 -133 12
-26 13 -25 46 124 30 133 33 170 11 170 -9 0 -15 -9 -15 -25z"/>
<path d="M14242 1864 c1 -9 9 -19 16 -22 9 -3 13 2 10 14 -1 9 -9 19 -16 22
-9 3 -13 -2 -10 -14z"/>
<path d="M2534 1822 c-6 -4 -14 -19 -18 -35 -10 -40 -96 -166 -96 -140 0 29
-37 113 -50 113 -5 0 -10 -3 -10 -7 0 -12 29 -96 42 -120 9 -19 2 -37 -57
-135 -38 -62 -72 -114 -75 -116 -11 -5 1 -52 14 -51 13 0 216 339 254 424 24
53 22 84 -4 67z"/>
<path d="M9153 1823 c-17 -6 -16 -28 2 -43 11 -9 18 -8 36 8 32 30 6 53 -38
35z"/>
<path d="M12045 1818 c-16 -6 -32 -14 -35 -18 -3 -4 -28 -19 -56 -33 -53 -27
-81 -53 -70 -64 4 -4 17 -1 29 7 42 26 139 71 149 68 5 -2 -11 -35 -36 -73
-73 -112 -58 -134 44 -65 32 22 61 40 64 40 4 0 6 -10 6 -23 0 -13 11 -34 24
-46 20 -19 28 -21 45 -12 29 16 51 51 51 82 0 14 9 34 20 44 27 25 25 33 -7
27 -35 -5 -53 -28 -53 -62 0 -15 -9 -35 -20 -45 -20 -18 -20 -17 -20 29 0 59
-18 68 -73 37 -22 -13 -37 -19 -35 -14 56 113 48 148 -27 121z"/>
<path d="M16663 1823 c-40 -8 -48 -28 -29 -78 10 -24 15 -54 11 -65 -8 -26
-42 -45 -48 -27 -3 9 -7 9 -20 -1 -39 -32 16 -63 63 -36 41 25 57 74 39 126
-10 33 -10 41 1 48 7 4 20 6 28 3 10 -4 13 0 10 13 -3 20 -18 24 -55 17z"/>
<path d="M1495 1776 c-43 -44 -65 -101 -50 -125 8 -15 78 -14 93 1 8 8 14 5
21 -15 15 -38 31 -33 31 8 0 20 7 52 15 72 19 46 19 53 -2 52 -10 0 -32 -19
-48 -42 -17 -23 -41 -43 -53 -45 -29 -4 -28 5 5 53 31 47 43 57 61 50 9 -3 12
1 10 12 -6 34 -39 26 -83 -21z"/>
<path d="M15359 1771 c-42 -42 -47 -61 -24 -84 11 -11 24 -13 51 -7 19 5 38
11 42 14 3 4 11 -8 16 -26 8 -22 19 -34 38 -39 36 -9 42 -1 15 21 -21 18 -21
18 -4 55 20 42 10 68 -18 45 -13 -10 -15 -9 -15 8 0 64 -44 70 -101 13z m78
-20 c11 -18 9 -21 -22 -31 -50 -16 -59 -9 -30 23 31 32 36 33 52 8z"/>
<path d="M15948 1776 c-55 -42 -64 -68 -35 -102 16 -18 36 -26 75 -31 66 -7
71 12 7 28 -66 17 -72 31 -30 68 35 30 75 41 75 21 0 -5 5 -10 10 -10 14 0 13
33 -2 48 -21 21 -53 13 -100 -22z"/>
<path d="M16375 1777 c-16 -17 -50 -49 -75 -69 -33 -27 -42 -39 -34 -48 8 -8
19 -4 43 15 26 23 32 24 37 11 9 -22 36 -20 69 6 l28 22 -6 -31 c-7 -36 11
-67 32 -54 8 5 10 14 5 22 -4 8 -7 28 -5 46 3 40 -19 52 -54 29 -36 -24 -38
-20 -10 24 42 67 23 85 -30 27z"/>
<path d="M4160 1764 c-48 -43 -58 -75 -36 -109 20 -30 89 -51 120 -37 23 11
23 11 -52 31 -41 12 -49 31 -13 31 10 0 30 10 45 21 22 17 26 27 21 48 -7 29
-23 51 -36 51 -5 0 -27 -16 -49 -36z m56 -33 c-7 -11 -66 -32 -66 -24 0 4 12
20 27 35 23 24 28 26 36 13 4 -8 6 -19 3 -24z"/>
<path d="M13790 1759 c-41 -21 -81 -39 -87 -39 -7 0 -13 -4 -13 -9 0 -19 27
-17 88 6 34 12 64 23 66 23 2 0 -8 -23 -24 -52 -45 -82 -27 -96 64 -51 l54 26
24 -28 c20 -23 28 -26 45 -17 11 6 30 34 41 62 19 47 20 51 4 48 -9 -2 -28
-20 -41 -40 -25 -39 -41 -41 -41 -7 0 26 -24 24 -77 -7 -25 -14 -46 -24 -48
-22 -2 1 12 26 31 53 40 60 45 95 12 94 -13 0 -57 -18 -98 -40z"/>
<path d="M17302 1793 c-22 -9 -112 -153 -112 -179 0 -32 23 -30 41 4 34 67 81
132 95 132 8 0 26 -7 39 -16 20 -13 25 -13 25 -3 -1 19 -21 43 -47 57 -12 7
-23 12 -25 11 -2 0 -9 -3 -16 -6z"/>
<path d="M10919 1762 c-52 -52 -74 -123 -47 -150 19 -19 62 -14 99 11 56 38
64 97 19 145 -27 28 -39 27 -71 -6z m56 -41 c18 -36 13 -52 -24 -74 -58 -34
-76 -16 -45 46 34 66 46 71 69 28z"/>
<path d="M12590 1764 c-47 -40 -89 -134 -60 -134 6 0 16 11 22 25 6 14 14 25
17 25 4 0 15 13 24 30 12 19 32 34 57 41 43 13 50 23 24 33 -30 11 -53 6 -84
-20z"/>
<path d="M3957 1759 c-30 -23 -67 -87 -67 -117 0 -42 65 -59 128 -33 30 13 43
31 22 31 -5 0 -10 -3 -10 -7 0 -7 -29 -8 -92 -4 -11 1 -18 9 -18 20 0 14 6 17
24 14 27 -6 77 20 94 47 9 15 7 24 -9 44 -25 31 -35 32 -72 5z m63 -40 c0 -13
-59 -41 -77 -37 -13 2 -9 10 16 36 26 26 36 30 47 21 8 -6 14 -15 14 -20z"/>
<path d="M2816 1724 c-21 -25 -56 -57 -77 -71 -22 -14 -39 -30 -39 -34 0 -18
39 -8 69 17 24 20 31 22 31 10 0 -25 41 -19 72 11 28 27 28 27 28 4 0 -29 17
-61 33 -61 8 0 12 24 13 80 0 48 -3 80 -9 80 -6 0 -32 -24 -58 -52 -46 -50
-48 -51 -38 -21 6 17 17 37 25 44 8 6 14 18 14 25 0 26 -25 13 -64 -32z"/>
<path d="M3633 1748 c-17 -36 -36 -135 -29 -147 12 -19 26 -12 37 17 14 37 99
122 122 122 22 0 18 -20 -19 -92 -27 -53 -30 -78 -11 -78 11 0 50 79 71 143 9
27 -11 57 -38 57 -13 0 -41 -13 -63 -29 l-39 -28 4 28 c5 36 -19 40 -35 7z"/>
<path d="M8036 1750 c-48 -24 -76 -49 -76 -67 0 -18 15 -17 31 3 17 21 67 46
85 42 12 -2 5 -17 -25 -61 -40 -56 -52 -97 -31 -97 6 0 29 16 50 37 22 20 54
44 70 54 29 18 30 18 30 0 0 -10 8 -29 18 -41 16 -19 21 -21 38 -10 36 23 94
101 94 126 0 32 -16 31 -37 -3 -22 -36 -64 -83 -75 -83 -4 0 -8 6 -8 13 0 7
-6 21 -13 31 -13 17 -15 17 -46 2 l-32 -17 15 30 c31 60 -11 79 -88 41z"/>
<path d="M9330 1750 c-25 -13 -39 -15 -47 -8 -15 12 -14 13 -19 -26 -1 -15
-10 -36 -18 -45 -20 -22 -20 -37 -2 -44 7 -3 29 13 50 39 42 50 61 57 46 18
-24 -63 4 -67 77 -12 85 65 86 66 69 23 -20 -48 -20 -81 0 -89 21 -8 50 14 33
25 -9 5 -7 19 6 57 10 27 15 57 12 66 -10 25 -50 19 -95 -14 l-41 -30 6 30 c5
27 3 30 -18 30 -13 -1 -40 -9 -59 -20z"/>
<path d="M9702 1750 c-42 -26 -73 -77 -66 -110 8 -36 68 -90 100 -90 32 0 86
25 109 50 17 19 17 20 0 26 -9 4 -20 3 -24 -3 -12 -19 -56 -43 -77 -43 -27 0
-70 33 -77 60 -3 11 -1 18 4 14 5 -3 9 3 9 13 0 14 2 15 9 4 18 -28 111 21
111 59 0 37 -52 47 -98 20z m49 -42 c-13 -10 -35 -18 -50 -18 l-26 1 29 23
c18 15 36 22 49 18 20 -5 20 -5 -2 -24z"/>
<path d="M12366 1719 c-66 -72 -29 -129 52 -79 35 21 41 49 20 95 -16 35 -30
32 -72 -16z m37 -54 c-35 -27 -43 -17 -15 20 14 19 18 20 25 8 6 -10 3 -19
-10 -28z"/>
<path d="M2567 1688 c-40 -67 -44 -101 -12 -107 29 -5 86 30 100 63 18 42 0
106 -29 106 -17 0 -32 -16 -59 -62z m63 -15 c0 -20 -39 -63 -57 -63 -19 0 -16
10 13 53 25 37 44 41 44 10z"/>
<path d="M5792 1737 c-30 -17 -52 -50 -68 -102 -10 -35 -10 -46 0 -61 13 -17
14 -17 24 2 5 10 13 33 17 51 10 49 41 83 76 83 35 0 40 25 7 34 -29 7 -29 8
-56 -7z"/>
<path d="M7814 1718 c-39 -42 -54 -70 -54 -102 0 -32 13 -40 54 -32 37 7 116
70 116 93 0 17 -56 73 -74 73 -6 0 -25 -15 -42 -32z m63 -5 c1 -10 3 -27 5
-37 2 -13 -8 -27 -31 -43 -60 -41 -68 -23 -21 50 31 50 45 58 47 30z"/>
<path d="M14152 1698 c-30 -71 -12 -87 23 -19 23 47 26 71 6 71 -4 0 -17 -23
-29 -52z"/>
<path d="M8500 1717 c-14 -13 -43 -35 -65 -48 l-40 -24 18 27 c9 15 17 34 17
43 0 33 -21 12 -56 -56 -44 -88 -35 -110 25 -56 22 20 53 43 69 51 l30 16 9
-37 c8 -36 36 -64 49 -50 4 3 1 13 -5 21 -8 9 -11 37 -9 72 3 65 -6 75 -42 41z"/>
<path d="M5549 1683 c-68 -28 -86 -113 -29 -143 59 -31 143 78 105 136 -18 27
-26 28 -76 7z m39 -25 c31 -31 -4 -93 -50 -86 -29 4 -27 42 4 75 25 26 29 28
46 11z"/>
<path d="M9070 1671 c-15 -38 -18 -93 -5 -98 6 -2 15 16 22 39 6 24 14 53 18
66 11 34 -20 28 -35 -7z"/>
<path d="M14826 1503 c-10 -27 -32 -86 -50 -133 -30 -81 -33 -85 -65 -90 -44
-6 -54 -30 -13 -30 l30 0 -24 -65 c-26 -71 -30 -100 -14 -110 10 -6 22 17 60
117 l22 56 67 4 67 3 -23 -34 c-29 -42 -29 -53 0 -86 19 -22 31 -27 77 -27
114 -2 138 17 31 24 -96 7 -105 16 -42 44 51 23 52 24 49 61 l-3 38 -102 3
c-57 1 -103 4 -103 7 0 2 14 43 30 92 58 169 58 173 37 173 -6 0 -20 -21 -31
-47z m144 -271 c0 -13 -23 -32 -39 -32 -11 0 -10 4 4 20 19 21 35 26 35 12z"/>
<path d="M8123 1517 c-6 -6 -15 -32 -21 -57 -6 -25 -24 -83 -40 -130 l-29 -85
-66 -3 c-47 -2 -67 -7 -67 -16 0 -9 16 -14 56 -14 31 0 57 -2 59 -4 3 -2 -2
-26 -10 -53 -8 -26 -15 -58 -15 -69 0 -20 1 -20 20 4 11 14 27 46 37 73 l17
47 49 0 c56 0 63 24 8 27 -18 1 -35 4 -37 6 -3 3 11 56 30 118 20 62 36 123
36 135 0 27 -14 38 -27 21z"/>
<path d="M12656 1498 c-2 -7 -19 -56 -36 -109 l-32 -97 -40 -5 c-45 -6 -53
-11 -43 -27 4 -7 19 -9 36 -5 33 8 35 3 14 -55 -17 -47 -20 -120 -6 -120 5 0
22 42 38 92 l29 93 63 17 c74 20 74 20 69 49 -3 21 -4 21 -18 7 -14 -14 -26
-19 -82 -34 -14 -4 -13 7 13 77 18 49 28 92 24 106 -6 25 -23 31 -29 11z"/>
<path d="M12826 1423 c-20 -49 -57 -123 -81 -165 -25 -43 -45 -82 -45 -88 0
-21 29 -9 71 30 38 35 119 83 127 75 1 -1 -7 -31 -18 -66 -23 -74 -26 -119 -7
-119 14 0 57 132 57 174 0 42 -23 50 -76 27 -25 -12 -48 -21 -49 -21 -2 0 14
39 35 88 47 109 57 152 37 152 -9 0 -29 -33 -51 -87z"/>
<path d="M11455 1466 c-102 -109 -171 -243 -163 -320 2 -24 -2 -32 -29 -45
-18 -9 -33 -19 -33 -23 0 -11 42 -10 59 1 10 6 22 5 35 -5 25 -17 105 -18 141
-2 39 18 30 25 -29 20 -30 -2 -62 1 -75 7 -21 12 -21 13 29 68 64 70 82 106
110 216 30 123 17 148 -45 83z m10 -97 c-22 -82 -44 -124 -95 -179 l-41 -45 6
40 c3 22 20 69 37 105 30 64 96 155 105 147 2 -3 -3 -33 -12 -68z"/>
<path d="M2111 1438 c-6 -29 -16 -82 -23 -117 -11 -56 -16 -65 -36 -66 -32 -2
-81 -53 -93 -97 -18 -69 28 -122 71 -83 26 24 87 173 99 242 5 32 11 82 13
112 4 74 -17 80 -31 9z m-47 -230 c-12 -41 -54 -118 -63 -118 -18 0 -22 39 -7
73 21 52 85 92 70 45z"/>
<path d="M3922 1401 l-12 -59 -84 -7 c-46 -4 -106 -4 -134 0 -79 11 -84 -36
-4 -49 63 -10 139 -35 162 -54 22 -18 22 -18 -63 -66 -90 -50 -109 -72 -81
-93 19 -14 54 -1 54 20 0 7 19 23 41 35 40 23 43 17 11 -21 -16 -18 -11 -34 7
-23 5 4 24 29 42 56 18 28 38 50 46 50 7 0 27 -21 44 -47 28 -46 58 -65 51
-34 -29 134 -28 147 13 173 43 29 46 54 5 63 -22 5 -31 14 -35 33 -12 56 -21
77 -36 80 -11 2 -18 -13 -27 -57z m14 -129 c-14 -14 -16 -14 -16 -1 0 20 23
44 29 28 2 -6 -4 -18 -13 -27z m-43 8 c-5 -18 -7 -18 -34 -4 -38 19 -37 24 5
24 29 0 33 -3 29 -20z m61 -76 c5 -14 4 -15 -9 -4 -17 14 -19 20 -6 20 5 0 12
-7 15 -16z"/>
<path d="M2686 1443 c-3 -3 -6 -21 -6 -38 0 -18 -6 -45 -14 -61 -38 -76 -73
-281 -52 -301 13 -13 24 14 35 84 6 40 22 108 36 150 25 78 33 157 16 167 -4
3 -11 3 -15 -1z"/>
<path d="M10577 1387 c-35 -103 -74 -233 -81 -269 -5 -30 -4 -38 8 -38 8 0 17
14 21 33 4 17 11 37 15 42 10 13 67 199 75 248 11 58 -17 47 -38 -16z"/>
<path d="M17323 1331 c-83 -14 -94 -50 -33 -107 22 -21 40 -42 40 -47 0 -14
-80 1 -108 19 -31 20 -38 12 -17 -19 30 -47 120 -62 155 -27 25 25 15 50 -39
97 l-36 31 29 12 c16 6 49 14 73 17 39 5 45 3 50 -16 3 -11 9 -21 14 -21 12 0
11 13 -1 44 -10 28 -36 31 -127 17z"/>
<path d="M14514 1321 c-71 -17 -81 -42 -47 -110 30 -57 25 -83 -16 -89 -17 -3
-21 2 -21 22 0 27 -7 31 -26 18 -19 -13 -23 -39 -8 -61 22 -30 77 -28 109 4
30 30 32 68 5 113 -11 18 -20 38 -20 46 0 13 61 36 99 36 25 0 28 15 5 24 -19
7 -39 6 -80 -3z"/>
<path d="M10026 1299 c-31 -24 -34 -62 -10 -113 20 -42 14 -63 -22 -72 -21 -5
-31 -2 -45 14 -23 29 -29 28 -29 -8 0 -59 74 -68 125 -17 36 36 38 59 8 102
-23 34 -16 62 18 74 18 6 43 11 55 11 27 0 32 15 8 24 -32 12 -82 5 -108 -15z"/>
<path d="M9788 1283 c-55 -43 -91 -123 -55 -123 19 0 37 21 37 44 0 23 47 76
67 76 17 0 16 -22 -3 -86 -22 -69 -12 -99 26 -74 13 8 13 11 1 19 -11 7 -11
17 4 60 34 102 -2 142 -77 84z"/>
<path d="M16812 1274 c-41 -33 -82 -96 -82 -127 0 -50 85 -85 157 -65 45 12
37 19 -24 22 -66 4 -93 20 -93 55 0 26 4 29 40 34 55 7 90 31 90 62 0 22 -24
45 -47 45 -4 0 -23 -12 -41 -26z m58 -17 c0 -14 -41 -37 -63 -37 -14 1 39 50
54 50 5 0 9 -6 9 -13z"/>
<path d="M17068 1291 c-64 -13 -84 -44 -55 -86 8 -11 22 -33 33 -50 l19 -30
-26 17 c-32 20 -41 14 -27 -18 15 -32 45 -40 69 -18 25 23 24 34 -7 82 -15 22
-26 44 -26 48 2 14 96 33 114 23 32 -17 40 -2 12 25 -16 17 -45 18 -106 7z"/>
<path d="M9304 1266 c-40 -19 -53 -30 -57 -52 -7 -33 16 -72 54 -91 30 -16
119 -17 119 -2 0 5 5 7 10 4 6 -3 10 -3 10 2 0 4 -23 9 -51 10 -68 3 -89 11
-98 36 -16 40 19 75 87 86 18 3 34 11 35 16 4 20 -59 15 -109 -9z"/>
<path d="M10312 1272 c-26 -20 -62 -71 -62 -89 0 -6 7 -18 15 -27 14 -14 20
-14 63 2 46 17 47 19 48 62 1 25 -1 51 -3 58 -7 17 -34 15 -61 -6z m36 -50 c3
-17 -4 -26 -30 -36 -18 -8 -35 -13 -37 -11 -2 2 7 20 19 40 24 39 43 41 48 7z"/>
<path d="M13049 1261 c-83 -53 -113 -123 -67 -155 38 -27 116 -20 236 19 39
13 24 26 -20 18 -24 -5 -77 -8 -118 -8 -68 0 -75 2 -75 20 0 16 6 19 29 17 64
-7 103 30 94 89 -4 34 -26 33 -79 0z m51 -26 c0 -8 -13 -21 -30 -30 -43 -22
-47 -19 -15 15 32 33 45 38 45 15z"/>
<path d="M13920 1269 c-19 -12 -46 -31 -59 -43 -23 -20 -24 -20 -16 -1 25 66
7 74 -50 24 -20 -17 -33 -24 -29 -15 3 9 10 16 15 16 5 0 9 5 9 11 0 6 -10 9
-22 7 -16 -2 -27 -16 -39 -49 -10 -25 -29 -63 -43 -84 -24 -35 -26 -55 -6 -55
4 0 36 33 71 73 35 39 59 63 55 52 -14 -37 -19 -75 -9 -75 5 0 29 21 53 46 39
40 87 74 105 74 3 0 5 -20 5 -45 0 -31 5 -47 15 -51 21 -8 38 5 26 20 -5 6
-11 34 -13 61 -4 59 -17 65 -68 34z"/>
<path d="M14171 1268 c-52 -25 -89 -88 -73 -123 16 -35 57 -40 113 -12 47 23
48 23 51 4 6 -38 28 -31 28 9 0 20 5 54 12 76 8 27 8 42 1 49 -8 8 -17 -2 -31
-35 -13 -28 -33 -53 -54 -66 -34 -21 -73 -26 -82 -12 -10 17 33 71 61 78 46
10 53 13 53 23 0 26 -37 30 -79 9z"/>
<path d="M15183 1262 c-35 -30 -89 -160 -73 -176 14 -14 34 8 70 79 44 87 53
93 84 60 26 -28 44 -19 26 15 -9 16 -60 51 -72 50 -2 -1 -17 -13 -35 -28z"/>
<path d="M15928 1276 c-21 -22 -45 -52 -57 -72 -11 -17 -11 -17 -6 4 6 19 3
23 -10 20 -12 -2 -30 -44 -65 -153 -60 -190 -58 -180 -40 -180 8 0 28 34 50
85 l36 85 45 5 c48 6 111 40 134 73 24 34 19 99 -8 125 -27 25 -59 28 -79 8z
m60 -28 c14 -14 16 -62 2 -87 -10 -20 -78 -51 -110 -51 -20 0 -19 2 6 53 43
85 75 112 102 85z"/>
<path d="M16113 1275 c-45 -32 -55 -155 -12 -155 15 0 18 5 13 24 -3 13 0 42
6 65 12 44 17 46 105 42 37 -3 39 -1 24 13 -23 24 -109 31 -136 11z"/>
<path d="M1624 1270 c-11 -4 -37 -27 -57 -51 l-37 -43 0 43 c0 51 -21 63 -54
32 -13 -13 -32 -21 -41 -19 -14 2 -22 -11 -37 -62 -11 -36 -22 -73 -25 -82 -3
-11 0 -18 8 -18 8 0 30 30 49 66 48 90 63 101 60 44 -5 -92 6 -92 77 -6 78 95
117 97 72 2 -21 -43 -20 -81 2 -74 14 5 58 106 59 135 0 12 -9 27 -19 33 -23
12 -29 12 -57 0z"/>
<path d="M1827 1248 c-37 -50 -47 -73 -47 -112 0 -65 63 -83 118 -33 29 27 28
60 -3 101 -22 29 -23 35 -10 46 22 18 18 30 -9 30 -16 0 -33 -11 -49 -32z m53
-99 c0 -18 -27 -39 -49 -39 -14 0 -14 46 0 71 10 20 11 20 30 3 10 -9 19 -25
19 -35z"/>
<path d="M6942 1254 c-44 -35 -97 -138 -78 -153 16 -14 24 -5 59 64 30 60 60
90 83 81 23 -9 37 3 23 20 -17 21 -50 17 -87 -12z"/>
<path d="M10726 1250 c-56 -67 -56 -139 0 -160 29 -11 84 -13 108 -4 33 13 14
24 -38 24 -65 0 -91 19 -81 59 9 39 39 76 66 79 l24 4 -24 -26 c-14 -14 -30
-26 -38 -26 -16 0 -17 -16 -2 -25 13 -9 77 35 85 58 16 51 -60 64 -100 17z"/>
<path d="M6413 1259 c-43 -12 -55 -38 -47 -97 5 -38 3 -51 -11 -62 -14 -11
-22 -10 -60 8 -36 18 -45 19 -55 7 -9 -11 -6 -17 12 -29 49 -32 84 -39 117
-22 35 18 43 41 39 105 -3 42 -2 44 32 56 35 12 48 38 20 42 -8 1 -30 -3 -47
-8z"/>
<path d="M7188 1254 c-30 -16 -68 -80 -68 -113 0 -48 41 -91 85 -91 26 0 125
41 125 52 0 5 -7 7 -16 4 -9 -3 -39 -9 -68 -12 -59 -7 -86 9 -86 50 0 20 7 25
40 30 49 8 78 43 60 75 -13 25 -34 26 -72 5z m46 -28 c-6 -16 -34 -30 -42 -21
-8 7 19 35 34 35 7 0 11 -6 8 -14z"/>
<path d="M9528 1254 c-85 -46 -47 -134 58 -134 72 0 95 53 52 117 -26 37 -63
43 -110 17z m95 -44 c5 -4 7 -18 5 -31 -2 -18 -10 -25 -34 -27 -66 -7 -113 40
-66 67 17 11 80 5 95 -9z"/>
<path d="M11588 1253 c-9 -10 -21 -34 -28 -55 -12 -32 -11 -40 4 -62 19 -30
51 -34 84 -10 28 19 29 65 2 89 -18 16 -19 20 -5 27 24 14 18 28 -13 28 -16 0
-36 -8 -44 -17z m50 -81 c2 -14 -4 -23 -18 -27 -29 -9 -43 6 -35 38 6 21 11
24 28 18 12 -5 23 -17 25 -29z"/>
<path d="M2316 1212 c-20 -28 -59 -67 -86 -88 -46 -35 -68 -64 -37 -50 6 3 20
9 30 12 9 4 17 13 17 21 0 8 5 11 11 8 5 -4 19 1 30 11 18 16 19 16 19 0 0
-38 62 -24 105 24 l20 22 5 -53 c3 -29 11 -54 18 -57 16 -5 17 154 1 164 -6 3
-24 -10 -41 -30 -29 -35 -66 -62 -74 -53 -2 2 5 25 17 52 30 69 11 79 -35 17z"/>
<path d="M2845 1205 c-29 -30 -58 -55 -66 -55 -10 0 -10 -3 -1 -12 7 -7 12
-22 12 -33 0 -38 33 -58 86 -52 26 2 49 9 53 14 3 4 18 14 34 20 15 7 27 17
27 23 0 12 -17 13 -24 2 -8 -13 -112 -36 -131 -28 -23 8 -15 50 10 54 69 13
124 68 104 105 -17 30 -49 19 -104 -38z m79 12 c-5 -14 -64 -52 -64 -42 0 9
51 55 61 55 5 0 6 -6 3 -13z"/>
<path d="M4377 1180 c-16 -45 -26 -87 -23 -95 8 -23 31 -8 44 29 15 40 68 116
82 116 13 0 13 -26 -2 -67 -17 -45 -3 -52 35 -17 60 56 63 57 59 20 -5 -42 12
-76 38 -76 24 0 26 15 4 24 -13 5 -15 16 -9 66 7 58 6 60 -16 60 -12 0 -33
-10 -46 -22 -23 -21 -23 -21 -23 -1 0 11 -7 27 -16 34 -13 11 -21 11 -44 -3
-24 -14 -29 -14 -34 -2 -11 27 -21 13 -49 -66z"/>
<path d="M11824 1251 c-26 -12 -74 -74 -74 -99 0 -11 7 -25 15 -32 13 -11 22
-10 51 3 19 10 36 17 38 17 7 0 -17 -127 -29 -157 -12 -28 -19 -33 -46 -33
-91 0 -153 -47 -175 -131 -41 -156 107 -128 193 37 26 50 30 53 70 56 51 4 62
22 16 26 -38 4 -38 6 -17 78 10 36 14 83 12 146 -3 98 -8 107 -54 89z m11 -70
c-3 -12 -13 -21 -21 -21 -18 0 -18 9 3 32 20 22 27 17 18 -11z m-45 -278 c0
-17 -66 -107 -99 -133 -31 -27 -37 -28 -47 -15 -25 33 11 115 61 140 31 15 85
20 85 8z"/>
<path d="M16499 1221 c-62 -62 -47 -111 38 -127 36 -7 103 3 103 14 0 4 -28
13 -61 19 -34 7 -66 16 -72 22 -15 15 15 55 57 75 40 19 39 36 -1 36 -16 0
-39 -14 -64 -39z"/>
<path d="M5416 1231 c-90 -60 -100 -141 -19 -165 26 -8 151 12 159 26 12 19
-7 21 -76 9 -51 -8 -76 -8 -91 0 -29 15 -21 51 11 55 32 3 97 31 105 44 9 14
-23 50 -44 50 -9 0 -29 -9 -45 -19z m54 -19 c0 -5 -16 -16 -35 -25 -42 -20
-47 -9 -7 15 30 19 42 22 42 10z"/>
<path d="M6680 1225 c0 -21 -53 -78 -94 -100 -35 -19 -48 -45 -23 -45 7 0 22
7 33 15 25 19 31 19 37 -5 7 -29 29 -25 80 14 l44 33 11 -30 c15 -40 25 -28
27 33 2 62 -7 63 -71 10 -27 -22 -52 -40 -56 -40 -5 0 3 22 17 50 29 56 32 80
10 80 -8 0 -15 -7 -15 -15z"/>
<path d="M8187 1233 c-12 -11 -8 -24 6 -17 6 4 2 -3 -10 -15 -28 -26 -40 -68
-26 -90 16 -26 94 -26 126 -1 36 28 34 57 -3 78 -21 12 -28 22 -24 35 4 14 -1
17 -29 17 -18 0 -37 -3 -40 -7z m64 -60 c34 -20 36 -29 10 -43 -25 -13 -71
-13 -71 0 0 12 22 60 28 60 2 0 17 -8 33 -17z"/>
<path d="M16273 1196 c-37 -49 -40 -62 -17 -94 23 -33 89 -28 117 10 l20 27
-24 48 c-33 63 -55 65 -96 9z m67 -36 c14 -26 5 -40 -25 -40 -32 0 -37 12 -19
38 19 27 30 28 44 2z"/>
<path d="M4767 1208 c-9 -7 -23 -26 -31 -42 -26 -51 12 -84 65 -56 16 9 19 7
19 -13 0 -23 17 -47 33 -47 5 0 6 13 2 30 -4 16 -1 45 6 63 7 19 9 42 5 52 -6
15 -12 12 -42 -24 -20 -23 -44 -41 -56 -41 -19 0 -19 2 -6 23 8 12 27 28 42
35 14 7 26 17 26 23 0 13 -43 11 -63 -3z"/>
<path d="M10940 1100 c0 -35 9 -38 33 -10 20 24 15 40 -14 40 -14 0 -19 -7
-19 -30z"/>
<path d="M5570 1110 c0 -5 5 -10 11 -10 5 0 7 5 4 10 -3 6 -8 10 -11 10 -2 0
-4 -4 -4 -10z"/>
<path d="M3127 1084 c-16 -16 -6 -35 16 -32 12 2 22 10 22 18 0 16 -26 25 -38
14z"/>
<path d="M2100 984 c-19 -2 -76 -9 -126 -15 -50 -5 -126 -10 -168 -10 -56 0
-76 -3 -73 -12 5 -17 60 -23 142 -16 349 32 355 32 344 44 -8 7 -82 13 -119 9z"/>
<path d="M2243 939 c-28 -10 -30 -29 -3 -29 24 0 25 -8 5 -46 -8 -16 -15 -36
-15 -44 0 -8 -13 -54 -30 -103 -28 -84 -30 -117 -6 -117 13 0 61 145 91 274 3
11 0 25 -6 33 -14 17 -6 16 66 -2 33 -9 77 -27 99 -41 36 -24 38 -28 33 -65
-6 -47 -65 -132 -125 -183 -37 -30 -51 -36 -92 -36 -52 0 -120 24 -133 46 -5
8 -13 12 -18 9 -15 -10 31 -66 67 -81 45 -19 118 -18 160 2 44 21 133 117 162
176 43 88 21 147 -74 189 -46 21 -149 31 -181 18z"/>
<path d="M1921 907 c-13 -17 -67 -171 -82 -236 -10 -45 -5 -81 12 -81 5 0 9
11 9 24 0 26 48 188 74 251 17 40 9 67 -13 42z"/>
<path d="M1657 594 c-16 -16 -4 -21 76 -32 126 -18 247 -14 247 8 0 4 -55 10
-122 14 -68 3 -139 8 -158 12 -19 3 -38 2 -43 -2z"/>
</g>
</svg>
