<?xml version="1.0" standalone="no"?>
<!DOCTYPE svg PUBLIC "-//W3C//DTD SVG 20010904//EN"
 "http://www.w3.org/TR/2001/REC-SVG-20010904/DTD/svg10.dtd">
<svg version="1.0" xmlns="http://www.w3.org/2000/svg"
 width="1639.000000pt" height="1229.000000pt" viewBox="0 0 1639.000000 1229.000000"
 preserveAspectRatio="xMidYMid meet">

<g transform="translate(0.000000,1229.000000) scale(0.100000,-0.100000)"
fill="#000000" stroke="none">
<path d="M3888 11934 c-3 -3 -4 -23 -1 -45 5 -32 3 -39 -11 -39 -9 0 -16 -7
-16 -16 0 -11 8 -14 28 -12 26 3 27 6 30 61 2 43 0 57 -11 57 -7 0 -16 -3 -19
-6z"/>
<path d="M1715 11874 c-53 -9 -122 -34 -138 -52 -22 -25 -34 -76 -16 -70 8 2
18 14 23 25 15 32 56 51 137 64 75 12 167 6 200 -12 15 -7 19 -21 19 -57 0
-61 -7 -70 -66 -86 -27 -7 -59 -16 -72 -20 -22 -7 -23 -5 -20 31 2 28 -1 38
-12 38 -10 0 -17 -14 -20 -45 -5 -42 -7 -45 -44 -55 -39 -11 -56 -28 -38 -39
5 -3 22 -2 39 3 l29 9 -23 -82 c-23 -79 -27 -133 -9 -129 5 1 19 43 32 93 33
129 38 134 80 70 26 -39 26 -42 14 -101 -10 -45 -10 -63 -1 -72 19 -19 40 13
47 75 8 73 0 104 -38 140 -25 23 -27 28 -12 28 11 0 42 11 71 24 63 30 87 68
78 124 -11 62 -14 68 -43 82 -28 13 -165 22 -217 14z"/>
<path d="M4760 11865 c-7 -8 -18 -79 -26 -157 -16 -176 -27 -224 -65 -284 -50
-78 -64 -35 -46 138 8 69 7 79 -9 85 -20 8 -28 -2 -104 -124 -35 -56 -56 -82
-58 -71 -2 10 10 73 27 140 34 140 46 237 33 257 -12 17 -52 5 -52 -15 0 -8
-11 -26 -25 -40 -14 -14 -25 -30 -25 -35 0 -21 35 -3 58 31 l23 34 -6 -44 c-4
-25 -19 -101 -35 -170 -66 -286 -36 -301 117 -60 19 30 32 48 30 39 -14 -45
-19 -159 -8 -192 23 -67 67 -57 116 28 31 52 43 108 60 275 7 74 16 142 20
151 9 23 -10 32 -25 14z"/>
<path d="M3064 11846 c-3 -9 -2 -22 4 -29 16 -20 4 -85 -37 -197 -71 -192 -76
-220 -42 -220 15 0 19 7 18 33 0 17 21 89 47 159 42 112 47 134 44 194 -3 66
-20 96 -34 60z"/>
<path d="M5587 11843 c-3 -5 -8 -37 -12 -73 -7 -70 -36 -172 -67 -233 -11 -23
-18 -53 -16 -75 3 -33 6 -37 35 -40 17 -2 46 4 62 13 41 21 85 87 76 114 -8
26 -46 37 -75 21 -12 -6 -24 -9 -27 -6 -3 2 4 33 15 68 11 35 23 86 27 113 3
28 8 62 11 78 4 20 2 27 -10 27 -8 0 -17 -3 -19 -7z m44 -322 c-26 -47 -111
-93 -111 -60 0 20 73 79 97 79 20 0 22 -3 14 -19z"/>
<path d="M5793 11839 c-9 -9 -9 -16 0 -30 16 -25 -3 -130 -48 -265 -24 -71
-32 -111 -26 -117 12 -12 44 10 35 24 -3 5 4 35 16 66 30 79 60 210 60 259 0
48 -19 81 -37 63z"/>
<path d="M6817 11833 c-3 -5 -8 -30 -12 -58 -10 -69 -44 -157 -68 -176 -11 -9
-17 -21 -13 -27 4 -7 0 -32 -8 -57 -11 -32 -13 -52 -6 -70 14 -38 30 -30 30
15 0 81 44 131 103 117 24 -7 41 1 45 21 1 8 -13 12 -48 12 -27 0 -50 2 -50 4
0 2 7 20 15 40 12 29 45 162 45 182 0 7 -29 4 -33 -3z"/>
<path d="M2849 11826 c0 -1 -3 -28 -5 -61 -5 -70 -48 -217 -69 -239 -18 -18
-20 -66 -2 -89 6 -9 26 -19 43 -23 24 -5 37 0 64 22 81 69 77 174 -7 161 -29
-5 -33 -3 -29 11 13 43 25 112 30 163 3 43 1 56 -10 56 -8 0 -14 -1 -15 -1z
m56 -266 c12 -19 -16 -79 -45 -100 -24 -17 -34 -19 -50 -10 -25 13 -25 15 1
56 32 53 79 79 94 54z"/>
<path d="M9712 11798 c-18 -13 -44 -46 -57 -73 -21 -42 -25 -64 -23 -123 1
-39 -1 -75 -5 -78 -4 -4 -23 -10 -44 -13 -52 -9 -55 -31 -4 -31 48 0 49 -2 13
-90 -22 -51 -34 -68 -60 -80 -35 -17 -33 -30 3 -30 33 0 62 39 94 125 16 44
33 80 37 81 5 1 21 5 37 8 16 4 27 13 27 22 0 13 -7 15 -33 11 l-33 -5 1 81
c1 90 16 131 60 166 21 16 32 18 51 10 32 -12 34 -12 34 4 0 12 -39 37 -58 37
-4 0 -22 -10 -40 -22z"/>
<path d="M10609 11800 c-8 -5 -34 -49 -58 -98 -41 -87 -43 -90 -82 -96 -46 -7
-51 -24 -9 -33 26 -5 29 -9 24 -27 -15 -45 -22 -89 -17 -102 8 -22 39 -26 77
-10 60 25 41 49 -20 26 -27 -10 -27 -10 -21 27 3 21 10 50 16 66 10 25 14 27
71 27 47 0 60 3 60 15 0 11 -12 15 -50 15 -42 0 -50 3 -50 19 0 10 6 24 14 30
8 7 18 26 21 42 4 16 18 43 32 60 26 31 22 55 -8 39z"/>
<path d="M5220 11751 c0 -26 -4 -61 -10 -77 -5 -16 -14 -48 -20 -71 -9 -38
-14 -43 -39 -43 -33 0 -42 -7 -34 -26 3 -9 13 -12 31 -7 21 5 24 3 19 -11 -4
-10 -10 -36 -13 -58 -6 -36 -5 -40 12 -36 14 2 21 15 26 51 8 59 20 75 61 79
26 2 32 8 33 26 2 30 -25 41 -42 17 -23 -31 -27 -10 -10 48 21 73 22 157 1
157 -11 0 -15 -12 -15 -49z"/>
<path d="M13228 11738 c-16 -42 -29 -62 -39 -59 -47 13 -58 11 -87 -14 -27
-23 -32 -34 -32 -70 0 -35 5 -48 25 -64 l26 -20 -29 -53 c-17 -29 -28 -59 -25
-65 7 -19 33 -15 33 5 1 36 56 113 97 133 47 23 57 49 43 100 -9 29 -6 42 19
94 16 32 27 63 25 67 -14 21 -33 2 -56 -54z m-59 -97 c11 -7 9 -16 -10 -50
-24 -43 -43 -52 -53 -25 -10 27 -7 52 10 68 17 18 32 20 53 7z m41 -51 c0 -10
-9 -24 -20 -30 -19 -10 -19 -10 -2 20 20 35 22 36 22 10z"/>
<path d="M2490 11766 c0 -8 3 -17 8 -20 7 -4 7 -29 4 -149 -2 -45 -3 -47 -26
-41 -32 8 -60 -8 -86 -51 -24 -39 -23 -83 2 -99 27 -16 84 16 107 61 37 73 56
274 29 301 -16 16 -38 15 -38 -2z m-5 -248 c4 4 0 -7 -9 -25 -17 -34 -54 -65
-68 -57 -15 9 -8 32 18 64 19 22 30 28 39 20 6 -5 15 -6 20 -2z"/>
<path d="M8376 11771 c-4 -5 -4 -16 -1 -24 3 -7 -17 -69 -44 -136 -57 -139
-71 -191 -49 -191 7 0 21 12 30 28 9 15 31 41 49 57 l32 30 -6 -25 c-3 -14
-11 -44 -17 -67 -13 -44 -9 -73 10 -73 5 0 10 8 10 18 0 9 9 46 20 81 15 48
18 67 9 77 -15 18 -39 18 -67 -2 l-22 -15 19 48 c11 26 29 68 40 93 24 53 28
110 7 110 -8 0 -17 -4 -20 -9z"/>
<path d="M13428 11749 c-10 -5 -18 -21 -18 -35 0 -17 -18 -45 -56 -84 -63 -66
-68 -95 -14 -80 l31 9 -7 -68 c-4 -48 -3 -71 6 -76 17 -11 22 -1 26 57 6 88 9
94 56 104 28 6 43 15 43 24 0 16 -16 18 -52 6 -31 -10 -30 13 2 82 30 66 25
86 -17 61z m-43 -148 c-3 -6 -11 -11 -17 -11 -6 0 -6 6 2 15 14 17 26 13 15
-4z"/>
<path d="M13985 11710 c-22 -49 -29 -54 -54 -41 -25 14 -70 -8 -110 -55 -34
-38 -39 -70 -17 -113 13 -25 13 -31 -1 -51 -20 -28 -34 -88 -22 -96 17 -10 50
7 47 25 -5 31 24 73 46 67 34 -9 81 20 114 69 37 56 40 85 13 110 -20 17 -20
18 5 56 13 21 24 45 24 54 0 30 -27 14 -45 -25z m-65 -91 c0 -6 -14 -30 -32
-53 -48 -63 -48 -62 -58 -46 -17 26 -11 51 19 81 29 29 71 39 71 18z m66 -23
c12 -32 -55 -116 -93 -116 -13 0 -23 3 -23 6 0 4 19 33 43 65 42 59 63 71 73
45z"/>
<path d="M14972 11696 c-10 -38 -14 -43 -35 -39 -31 6 -82 -20 -103 -51 -20
-32 -21 -107 -1 -120 13 -9 12 -16 -9 -58 -32 -64 -32 -104 1 -91 8 2 11 11 9
18 -3 7 6 36 20 64 23 44 30 51 56 51 32 0 94 48 103 79 2 10 -3 33 -11 52
-18 41 -20 52 -9 60 4 3 10 22 14 42 9 55 -20 49 -35 -7z m-44 -99 c-30 -58
-60 -97 -68 -92 -16 10 -11 71 6 86 24 20 58 36 67 32 4 -2 2 -14 -5 -26z m52
-28 c0 -20 -44 -69 -62 -69 -5 0 3 22 19 49 27 50 43 57 43 20z"/>
<path d="M15278 11696 c-43 -50 -54 -85 -38 -115 9 -18 7 -27 -15 -55 -29 -38
-32 -72 -9 -104 13 -19 22 -22 47 -16 99 21 179 141 116 175 l-21 11 21 22
c12 12 21 30 21 40 0 16 -65 87 -79 86 -4 -1 -23 -20 -43 -44z m85 -30 c7 -18
-10 -39 -50 -62 -24 -13 -36 -15 -44 -7 -16 16 15 71 43 76 41 8 46 7 51 -7z
m7 -130 c0 -41 -114 -121 -132 -93 -13 20 -9 34 18 66 25 30 64 42 64 21 0
-18 22 -10 27 10 6 21 23 18 23 -4z"/>
<path d="M14210 11715 c-7 -8 -9 -15 -4 -15 5 0 -22 -31 -60 -69 -79 -79 -79
-96 -4 -89 l50 5 -6 -29 c-8 -43 3 -78 24 -78 16 0 18 6 13 34 -8 50 3 86 27
86 11 0 20 7 20 15 0 8 -7 15 -16 15 -10 0 -14 6 -10 18 3 9 6 39 8 67 3 54
-16 72 -42 40z m5 -87 c-9 -41 -12 -44 -55 -52 l-35 -6 45 45 c24 25 46 45 48
45 2 0 1 -15 -3 -32z"/>
<path d="M14613 11700 c-23 -11 -44 -24 -48 -29 -12 -21 18 -21 60 -1 80 39
93 6 28 -69 -19 -23 -40 -41 -47 -41 -7 0 -27 -14 -45 -32 -23 -22 -29 -34
-21 -42 8 -8 22 -5 51 12 45 26 54 24 74 -24 8 -21 21 -34 32 -34 22 0 83 36
83 49 0 21 -21 21 -46 2 -27 -21 -44 -20 -44 3 0 7 -9 25 -20 38 l-19 25 24
23 c38 36 59 88 46 116 -13 30 -49 31 -108 4z"/>
<path d="M15111 11640 c-8 -33 -27 -88 -42 -121 -32 -68 -37 -99 -14 -99 8 0
15 7 15 15 0 9 11 37 24 63 28 56 67 182 60 194 -14 23 -31 2 -43 -52z"/>
<path d="M5009 11688 c-7 -16 -5 -59 2 -64 18 -10 32 13 25 40 -5 21 -22 35
-27 24z"/>
<path d="M3880 11663 c-26 -9 -60 -46 -60 -63 0 -9 -9 -25 -21 -36 -32 -29
-21 -99 20 -136 34 -30 46 -33 85 -18 38 14 33 34 -7 26 -41 -8 -73 13 -82 53
-9 42 9 69 47 73 37 4 50 27 19 35 -12 3 -21 9 -21 13 0 14 58 32 79 25 17 -5
21 -2 21 14 0 17 -6 21 -32 20 -18 0 -40 -3 -48 -6z"/>
<path d="M6590 11647 c-32 -11 -35 -16 -34 -47 1 -19 8 -54 15 -77 17 -55 3
-74 -35 -49 -15 9 -26 23 -26 30 0 8 -7 16 -15 20 -25 9 -18 -39 11 -73 30
-37 42 -38 78 -10 31 25 35 70 9 124 -15 31 -15 37 -3 46 8 5 27 7 42 5 34 -7
47 12 23 31 -22 15 -20 15 -65 0z"/>
<path d="M10782 11633 c5 -25 28 -28 28 -4 0 12 -6 21 -16 21 -9 0 -14 -7 -12
-17z"/>
<path d="M5902 11615 c-43 -36 -60 -73 -50 -111 13 -51 31 -59 83 -39 25 9 50
26 56 37 13 24 3 23 -62 -6 -35 -15 -37 -14 -42 4 -3 13 3 22 23 30 41 17 72
54 68 82 -4 33 -39 34 -76 3z m29 -36 c-35 -28 -51 -22 -17 7 15 14 31 22 35
19 3 -4 -5 -15 -18 -26z"/>
<path d="M3205 11594 c-63 -68 -68 -155 -9 -170 34 -9 111 22 119 47 10 30 0
33 -32 10 -42 -30 -81 -37 -90 -15 -4 12 1 22 18 33 13 9 41 32 63 52 34 31
37 38 27 57 -18 34 -58 28 -96 -14z m53 -16 c-18 -27 -67 -62 -54 -38 15 25
49 60 59 60 5 0 3 -10 -5 -22z"/>
<path d="M6916 11599 c-57 -68 -72 -130 -32 -137 15 -3 18 0 13 19 -12 45 54
126 93 114 18 -6 21 -3 18 12 -2 12 -13 19 -34 21 -25 2 -37 -3 -58 -29z"/>
<path d="M7274 11584 c-42 -44 -45 -81 -7 -90 14 -4 34 -2 44 4 16 10 18 7 21
-21 2 -24 8 -33 26 -35 23 -3 32 21 12 33 -13 8 -13 51 1 73 7 12 7 25 0 45
-15 40 -55 37 -97 -9z m66 0 c0 -14 -22 -45 -40 -54 -27 -15 -27 13 0 40 19
19 40 27 40 14z"/>
<path d="M7049 11581 c-23 -24 -29 -38 -29 -73 0 -62 18 -83 72 -83 59 1 98
13 98 30 0 14 -13 14 -84 0 -24 -5 -56 11 -56 28 0 7 19 19 42 27 74 26 90
100 21 100 -25 0 -43 -8 -64 -29z m69 -13 c-5 -14 -50 -40 -57 -33 -2 3 4 14
14 25 20 22 49 27 43 8z"/>
<path d="M7435 11548 c-10 -35 -21 -69 -23 -75 -7 -24 26 -13 43 15 23 35 66
82 77 82 5 0 1 -14 -8 -31 -11 -23 -13 -34 -5 -42 8 -8 24 1 56 33 l44 43 -6
-36 c-7 -45 3 -87 22 -87 20 0 29 19 16 34 -7 8 -9 31 -5 57 8 60 -11 79 -50
48 l-26 -20 0 20 c0 26 -30 28 -66 5 -19 -13 -24 -14 -22 -4 2 8 -4 15 -12 17
-11 2 -21 -15 -35 -59z"/>
<path d="M8806 11588 c-8 -13 -20 -45 -27 -73 -7 -27 -14 -45 -15 -40 -2 6 -8
29 -14 53 -6 25 -17 42 -25 42 -8 0 -15 -1 -15 -3 0 -14 30 -141 35 -145 14
-15 41 19 60 74 27 78 30 82 60 76 30 -5 34 13 6 28 -30 16 -49 12 -65 -12z"/>
<path d="M2019 11585 c-37 -20 -63 -78 -56 -127 10 -73 60 -97 129 -62 38 20
25 40 -16 24 -15 -5 -35 -10 -45 -10 -19 0 -47 49 -34 60 4 3 27 21 51 39 34
27 42 39 40 60 -4 31 -31 37 -69 16z m16 -45 c-16 -16 -31 -27 -34 -24 -6 6
45 54 56 54 4 0 -6 -13 -22 -30z"/>
<path d="M5400 11583 c-23 -9 -60 -45 -76 -74 -19 -37 1 -63 44 -57 20 3 33 0
36 -9 7 -17 28 -17 52 2 19 14 19 15 -3 21 -18 5 -21 10 -13 24 13 24 13 60 1
60 -6 0 -18 -14 -28 -30 -16 -28 -48 -48 -60 -37 -10 11 30 56 59 66 26 9 29
13 18 26 -7 8 -13 15 -14 14 0 0 -8 -3 -16 -6z"/>
<path d="M7778 11579 c-25 -14 -22 -53 7 -87 45 -54 25 -83 -29 -41 -29 23
-54 14 -43 -13 8 -21 85 -44 105 -31 28 17 26 60 -3 99 -30 39 -26 51 20 56
17 2 30 8 30 13 0 14 -66 17 -87 4z"/>
<path d="M8552 11559 c-40 -41 -49 -67 -28 -87 14 -15 19 -14 50 0 l34 17 5
-29 c6 -28 37 -47 57 -35 16 10 12 22 -10 28 -19 5 -21 12 -18 69 l3 63 -31 3
c-24 2 -38 -4 -62 -29z m35 -36 c-14 -15 -30 -23 -34 -19 -4 4 5 19 21 32 37
32 48 21 13 -13z"/>
<path d="M8996 11569 c-83 -65 -68 -183 20 -164 66 15 94 27 94 42 0 11 -6 14
-22 8 -13 -3 -44 -9 -70 -12 -47 -5 -48 -5 -48 21 0 19 5 26 20 26 11 0 34 13
51 28 24 22 30 33 25 50 -9 28 -36 28 -70 1z m29 -29 c-3 -5 -12 -10 -18 -10
-7 0 -6 4 3 10 19 12 23 12 15 0z"/>
<path d="M10240 11567 c-48 -33 -67 -69 -52 -102 13 -29 40 -37 108 -33 35 2
49 7 49 17 0 12 -13 14 -56 12 -42 -2 -59 2 -69 14 -13 15 -10 21 23 51 20 19
46 34 58 34 12 0 19 5 17 13 -8 21 -42 18 -78 -6z"/>
<path d="M2600 11551 c-22 -21 -30 -39 -30 -64 0 -48 21 -63 59 -44 29 14 31
14 46 -10 23 -34 38 -16 23 25 -10 26 -10 37 0 52 16 26 15 40 -3 40 -8 0 -21
-13 -30 -30 -13 -26 -42 -50 -59 -50 -11 0 -5 35 8 53 8 10 26 21 40 25 33 9
34 26 1 30 -17 2 -34 -6 -55 -27z"/>
<path d="M9810 11517 c-16 -35 -36 -69 -45 -77 -9 -7 -13 -20 -10 -28 4 -12 3
-12 -8 -3 -11 9 -17 8 -26 -3 -21 -25 8 -30 39 -8 16 13 36 19 48 15 13 -3 33
3 51 16 l30 22 -6 -36 c-4 -27 -2 -36 11 -41 22 -8 47 13 28 25 -10 6 -9 18 3
57 27 91 15 97 -53 27 -25 -26 -47 -42 -49 -36 -2 6 8 34 22 63 25 48 26 70 4
70 -6 0 -23 -28 -39 -63z"/>
<path d="M11205 11566 c-44 -19 -59 -40 -45 -65 6 -12 15 -21 20 -21 5 0 14
-9 19 -19 16 -30 -8 -44 -44 -25 -15 8 -31 12 -34 9 -11 -12 17 -40 48 -49 25
-7 35 -5 51 9 27 24 25 47 -6 85 -15 17 -24 33 -22 35 2 3 21 10 41 17 20 7
37 18 39 23 5 15 -34 16 -67 1z"/>
<path d="M2185 11539 c-27 -24 -35 -39 -35 -65 0 -28 5 -35 25 -40 16 -4 34 0
50 10 32 21 33 21 37 -16 3 -35 30 -50 52 -28 8 8 7 15 -6 24 -13 9 -18 27
-18 60 0 34 -4 46 -15 46 -8 0 -19 9 -25 20 -14 27 -23 25 -65 -11z m29 -24
c-4 -10 0 -15 12 -15 18 -1 18 -1 0 -15 -40 -30 -62 -10 -29 27 20 22 24 23
17 3z"/>
<path d="M10053 11551 c-22 -11 -37 -31 -52 -66 -25 -60 -25 -65 -6 -65 8 0
22 15 31 33 18 35 63 87 76 87 4 0 8 -16 8 -35 0 -19 -4 -35 -10 -35 -16 0
-11 -27 6 -34 28 -11 31 -7 37 41 10 89 -17 111 -90 74z"/>
<path d="M10992 11535 c-17 -14 -35 -25 -41 -25 -6 0 -11 -4 -11 -10 0 -5 -14
-25 -31 -45 -24 -27 -29 -39 -20 -48 8 -8 27 5 77 57 36 37 68 65 70 63 3 -2
-2 -25 -11 -51 -16 -47 -12 -90 8 -83 13 4 39 126 31 149 -8 25 -37 22 -72 -7z"/>
<path d="M4845 11530 c-10 -11 -26 -20 -35 -20 -13 0 -17 -12 -18 -65 -2 -78
18 -90 38 -22 23 78 38 98 66 91 22 -6 25 -4 22 12 -5 27 -50 30 -73 4z"/>
<path d="M10828 11526 c-57 -34 -78 -57 -78 -86 0 -45 53 -55 87 -17 27 30 40
56 44 91 5 37 -7 40 -53 12z m12 -44 c0 -16 -32 -52 -46 -52 -20 0 -18 10 8
37 22 23 38 30 38 15z"/>
<path d="M10695 11499 c-16 -25 -23 -45 -18 -50 14 -14 43 0 43 20 0 9 7 25
15 35 19 25 19 36 1 36 -7 0 -26 -19 -41 -41z"/>
<path d="M4974 11475 c-19 -46 -18 -67 3 -63 9 2 16 6 15 11 -1 4 4 22 12 41
13 30 12 35 0 40 -10 4 -20 -5 -30 -29z"/>
<path d="M13560 11496 c0 -8 -6 -16 -12 -19 -10 -4 -10 -7 0 -18 10 -11 15
-10 28 3 9 9 14 24 11 32 -8 20 -27 21 -27 2z"/>
<path d="M14342 11488 c-15 -15 -16 -51 0 -46 6 2 16 12 22 21 14 22 -4 43
-22 25z"/>
<path d="M1587 11294 c-3 -3 -1 -14 5 -24 13 -20 -4 -123 -23 -146 -7 -9 -31
-14 -61 -14 -66 0 -60 -24 6 -28 40 -3 47 -6 41 -20 -3 -9 -9 -47 -12 -84 -5
-59 -4 -68 11 -68 12 0 16 9 16 39 0 22 5 62 12 89 10 45 14 51 42 55 17 3 32
4 34 2 1 -1 -4 -20 -12 -42 -19 -55 -23 -95 -10 -100 6 -2 27 21 47 52 38 56
76 77 62 33 -16 -52 -17 -78 -4 -78 14 0 39 63 39 98 0 42 -41 54 -76 21 l-21
-20 19 81 c20 84 21 131 3 137 -6 2 -15 -28 -22 -67 -6 -39 -12 -73 -14 -74
-2 -2 -18 -7 -35 -10 l-31 -7 20 76 c15 60 16 79 7 91 -13 15 -32 18 -43 8z"/>
<path d="M3794 11273 c-3 -16 -10 -41 -15 -57 -13 -41 -11 -66 4 -66 14 0 50
126 41 142 -10 16 -24 7 -30 -19z"/>
<path d="M2221 11246 c-10 -24 -25 -61 -32 -81 -15 -40 -40 -55 -90 -55 -44 0
-31 -24 14 -28 35 -3 37 -5 30 -30 -10 -41 -8 -91 4 -103 16 -16 89 -13 113 4
29 20 15 27 -41 20 l-49 -6 0 36 c0 55 16 86 47 93 87 19 103 26 103 40 0 12
-6 15 -26 10 -53 -14 -84 -18 -84 -13 0 3 13 36 29 73 16 38 27 72 25 76 -11
17 -24 6 -43 -36z"/>
<path d="M5665 11233 c-21 -158 -45 -226 -93 -263 -30 -24 -46 -22 -50 8 -4
28 40 72 73 72 18 0 25 5 25 20 0 37 -70 14 -109 -36 -40 -51 -13 -125 41
-109 65 20 119 113 133 230 4 33 13 70 20 81 10 16 11 24 2 33 -22 22 -36 11
-42 -36z"/>
<path d="M5080 11238 c-1 -13 -9 -39 -18 -58 -14 -30 -23 -35 -55 -38 -43 -4
-46 -25 -5 -30 l26 -3 -14 -44 c-18 -52 -15 -104 7 -118 20 -13 159 30 159 49
0 18 -14 17 -84 -6 -33 -11 -61 -20 -63 -20 -9 0 0 60 15 99 18 46 28 53 105
66 57 9 42 31 -18 27 -43 -4 -47 -2 -40 15 4 10 10 33 13 51 3 25 1 32 -12 32
-10 0 -16 -9 -16 -22z"/>
<path d="M4630 11217 c0 -9 5 -17 12 -19 9 -3 4 -32 -19 -104 -18 -54 -35
-109 -38 -121 -8 -30 3 -63 20 -63 19 0 29 20 17 32 -11 11 -5 37 35 156 29
88 28 126 -4 130 -15 2 -23 -2 -23 -11z"/>
<path d="M4288 11156 c-19 -13 -41 -25 -48 -28 -12 -4 -41 -91 -44 -132 -2
-35 22 -27 34 11 21 64 58 120 89 133 16 6 35 9 40 5 16 -9 31 3 24 20 -8 22
-56 18 -95 -9z"/>
<path d="M2842 11130 c-59 -42 -78 -74 -64 -105 14 -30 27 -31 69 -5 l32 19 3
-21 c6 -38 28 -33 28 7 0 20 7 50 16 67 15 28 14 31 -5 49 -26 25 -31 24 -79
-11z m41 -30 c-6 -23 -61 -66 -70 -56 -7 7 56 76 68 76 4 0 5 -9 2 -20z"/>
<path d="M4434 11141 c-49 -30 -74 -72 -74 -125 0 -55 25 -86 69 -86 31 0 131
45 131 59 0 19 -16 18 -61 -4 -75 -38 -109 -30 -109 27 0 22 5 28 23 28 26 0
58 24 82 63 14 22 15 30 5 42 -16 20 -29 19 -66 -4z m12 -47 c-15 -14 -31 -22
-35 -19 -7 7 39 45 54 44 6 0 -3 -11 -19 -25z"/>
<path d="M3018 11133 c-21 -24 -73 -151 -65 -159 16 -16 37 10 61 75 21 54 32
70 49 73 12 2 21 8 20 13 -4 18 -49 16 -65 -2z"/>
<path d="M6380 11139 c-12 -8 -11 -13 10 -29 14 -11 41 -25 60 -31 l34 -12
-79 -72 c-58 -53 -77 -76 -72 -89 6 -14 13 -11 45 21 21 21 64 60 95 86 31 27
57 55 57 62 0 8 -19 19 -42 26 -24 7 -50 18 -58 24 -27 21 -36 24 -50 14z"/>
<path d="M3159 11113 c-38 -40 -49 -66 -49 -112 0 -50 27 -81 71 -81 39 0 99
28 99 46 0 18 -11 18 -46 -1 -54 -28 -94 -14 -94 32 0 16 9 27 33 36 43 19 69
50 65 79 -5 35 -47 36 -79 1z m51 -6 c0 -2 -12 -14 -27 -28 -24 -22 -24 -13 0
19 8 11 27 17 27 9z"/>
<path d="M4792 11084 c-43 -30 -70 -116 -39 -127 15 -5 45 9 75 36 l22 20 0
-22 c0 -31 18 -61 35 -61 17 0 20 26 5 35 -5 3 -10 30 -10 59 0 28 -5 57 -12
64 -17 17 -49 15 -76 -4z m48 -33 c-12 -24 -70 -66 -70 -52 0 16 51 71 66 71
11 0 12 -4 4 -19z"/>
<path d="M5334 11081 c-69 -42 -63 -133 10 -146 35 -7 76 7 76 27 0 6 -11 8
-31 4 -30 -6 -69 7 -69 23 0 4 17 13 38 19 45 14 75 43 70 69 -5 25 -56 28
-94 4z m62 -20 c-8 -12 -66 -32 -66 -22 0 9 39 29 58 30 7 1 11 -3 8 -8z"/>
<path d="M1858 11049 c-50 -52 -49 -85 0 -82 19 0 44 11 56 22 28 26 36 26 36
2 0 -30 11 -51 26 -51 17 0 17 5 3 69 -9 41 -16 53 -41 66 -17 8 -33 15 -36
15 -3 0 -23 -18 -44 -41z m56 -20 c-3 -5 -19 -16 -35 -25 l-31 -15 22 30 c13
16 29 27 36 24 8 -3 11 -9 8 -14z"/>
<path d="M6122 11043 c3 -15 15 -18 83 -18 87 0 139 10 130 25 -8 13 -72 13
-80 1 -3 -6 -18 -6 -38 0 -17 5 -47 9 -65 9 -26 0 -33 -4 -30 -17z"/>
</g>
</svg>
