<?xml version="1.0" standalone="no"?>
<!DOCTYPE svg PUBLIC "-//W3C//DTD SVG 20010904//EN"
 "http://www.w3.org/TR/2001/REC-SVG-20010904/DTD/svg10.dtd">
<svg version="1.0" xmlns="http://www.w3.org/2000/svg"
 width="1616.000000pt" height="828.000000pt" viewBox="0 0 1616.000000 828.000000"
 preserveAspectRatio="xMidYMid meet">

<g transform="translate(0.000000,828.000000) scale(0.100000,-0.100000)"
fill="#000000" stroke="none">
<path d="M12515 7828 c-4 -13 -23 -51 -42 -86 -31 -56 -36 -61 -54 -51 -45 24
-127 -43 -151 -122 -10 -35 -9 -49 5 -88 l16 -46 -56 -99 c-31 -54 -57 -108
-57 -120 -1 -27 27 -28 32 -1 2 11 27 62 55 113 l51 92 58 0 c83 0 144 37 163
99 12 39 -14 110 -46 127 l-29 14 26 41 c14 23 23 47 20 55 -3 8 0 14 7 14 14
0 48 66 39 75 -12 12 -31 3 -37 -17z m-109 -198 c-29 -55 -90 -150 -96 -150
-5 0 -11 13 -15 29 -8 36 15 93 50 126 22 20 30 22 45 13 10 -7 17 -14 16 -18z
m67 -12 c20 -15 34 -63 29 -96 -5 -34 -68 -72 -119 -72 -24 0 -43 2 -43 5 0
10 103 175 109 175 4 0 15 -6 24 -12z"/>
<path d="M5656 7832 c-3 -5 -14 -41 -25 -81 -11 -40 -28 -89 -38 -109 -17 -33
-21 -36 -65 -36 -63 -1 -67 -20 -5 -24 27 -2 47 -6 45 -10 -21 -41 -51 -112
-55 -133 -6 -31 14 -49 23 -22 4 10 20 51 36 91 27 66 32 72 59 72 19 0 29 5
29 15 0 8 -9 15 -20 15 -25 0 -25 3 -1 66 11 28 22 62 23 75 2 13 10 34 16 47
13 22 9 42 -8 42 -5 0 -11 -4 -14 -8z"/>
<path d="M13533 7819 c8 -30 -42 -142 -60 -134 -43 16 -63 17 -69 1 -3 -9 -15
-16 -26 -16 -32 0 -104 -79 -117 -127 -15 -55 4 -105 49 -128 29 -15 30 -18
17 -38 -46 -73 -67 -116 -61 -131 9 -23 39 -15 37 9 -1 11 14 46 33 77 29 47
40 58 62 58 40 0 112 39 159 87 38 37 43 48 43 87 0 39 -4 48 -40 78 l-39 34
29 74 c15 41 26 78 24 82 -3 5 -14 8 -26 8 -16 0 -19 -5 -15 -21z m-71 -177
c-7 -34 -95 -204 -108 -209 -25 -9 -64 36 -64 74 0 62 47 123 96 123 12 0 27
7 34 15 15 18 46 15 42 -3z m82 -23 c33 -26 34 -73 3 -110 -28 -33 -93 -76
-130 -85 l-28 -7 55 112 c31 61 60 111 65 111 4 0 20 -9 35 -21z"/>
<path d="M2424 7793 c-4 -15 -27 -69 -51 -120 -43 -90 -45 -93 -78 -93 -18 0
-40 -3 -49 -6 -27 -10 -7 -24 36 -24 34 0 39 -3 33 -17 -12 -31 -18 -91 -11
-118 11 -42 41 -65 87 -65 36 0 39 2 25 15 -8 8 -24 15 -35 15 -24 0 -51 36
-51 69 0 13 5 42 12 64 l12 39 53 -5 c54 -6 63 1 44 31 -6 9 -19 11 -45 7 -22
-5 -36 -3 -36 3 0 5 18 48 39 94 50 105 59 138 37 138 -9 0 -19 -12 -22 -27z"/>
<path d="M3435 7694 c-52 -120 -54 -122 -122 -127 -51 -3 -41 -27 11 -27 l44
0 -2 -56 c-1 -51 2 -58 32 -85 20 -18 42 -29 55 -27 27 4 35 28 9 28 -11 0
-30 8 -43 18 -17 15 -22 29 -22 65 1 62 8 70 54 64 22 -3 42 -1 45 5 9 14 -1
20 -41 27 l-34 6 44 99 c47 105 53 126 33 126 -7 0 -35 -52 -63 -116z"/>
<path d="M7201 7796 c-7 -8 -9 -31 -5 -58 13 -92 -50 -242 -117 -282 -33 -20
-39 -20 -39 -1 0 30 24 65 57 80 34 16 36 35 5 35 -44 0 -110 -90 -97 -131 9
-29 49 -34 87 -12 77 44 138 182 138 310 0 64 -9 83 -29 59z"/>
<path d="M3627 7737 c-4 -29 -18 -84 -31 -124 -18 -52 -21 -74 -13 -82 8 -8 7
-11 -4 -11 -19 0 -42 -71 -27 -85 7 -7 14 -4 22 10 18 31 92 105 106 105 13 0
11 -25 -11 -97 -10 -33 -10 -46 -1 -55 9 -9 12 -8 15 3 3 8 14 44 26 80 26 79
21 99 -24 99 -19 0 -37 -4 -40 -10 -3 -5 -15 -14 -25 -20 -18 -10 -18 -9 -4
25 8 20 12 40 9 45 -4 6 -2 10 4 10 11 0 31 85 31 130 0 19 -5 30 -14 30 -9 0
-15 -18 -19 -53z"/>
<path d="M5761 7768 c-5 -13 -19 -46 -30 -75 -25 -61 -26 -73 -7 -73 7 0 24
26 36 58 12 31 26 65 31 74 13 26 11 38 -6 38 -9 0 -19 -10 -24 -22z"/>
<path d="M8106 7767 c-10 -7 -29 -12 -42 -9 -14 2 -24 0 -24 -7 0 -7 -6 -11
-12 -9 -25 5 -68 -13 -68 -27 0 -19 -1 -19 73 5 34 11 73 22 86 25 29 5 100
-10 149 -32 21 -9 41 -15 46 -14 4 1 14 -6 21 -16 12 -16 8 -21 -42 -46 -59
-30 -71 -30 -54 1 16 31 13 42 -10 42 -16 0 -20 -5 -16 -20 3 -11 2 -20 -2
-20 -4 0 -13 -11 -19 -25 -9 -20 -19 -25 -49 -25 -53 0 -83 -10 -83 -26 0 -10
14 -14 50 -14 28 0 50 -2 50 -6 0 -3 -9 -25 -21 -50 -21 -48 -22 -75 -1 -82 7
-2 12 5 12 17 0 12 9 41 21 66 l21 44 36 -18 c21 -10 45 -28 55 -39 17 -18 17
-23 3 -57 -19 -46 -19 -45 -1 -45 14 0 45 59 45 87 0 18 -55 69 -93 84 l-29
12 92 43 c109 51 112 63 28 110 -94 53 -189 75 -222 51z"/>
<path d="M12723 7741 c-49 -36 -59 -49 -45 -63 8 -8 23 -1 52 25 37 34 70 48
70 29 0 -55 -87 -173 -182 -247 -55 -42 -67 -64 -42 -72 5 -2 34 17 63 42 29
25 54 45 56 45 2 0 -3 -21 -11 -46 -16 -55 -6 -84 32 -84 17 0 27 8 34 26 13
33 13 34 -5 34 -7 0 -19 -8 -24 -17 -9 -16 -10 -16 -11 3 0 12 7 41 15 65 9
24 13 49 10 57 -3 8 13 34 35 59 40 46 64 106 58 146 -5 35 -55 34 -105 -2z"/>
<path d="M15016 7743 c-4 -10 -22 -35 -41 -57 -35 -38 -35 -38 -68 -23 -49 22
-87 29 -87 16 0 -6 -20 -29 -45 -51 -71 -62 -94 -146 -60 -211 13 -26 12 -30
-26 -85 -29 -41 -39 -65 -37 -87 4 -39 20 -39 28 1 4 17 21 51 38 76 30 44 33
46 92 50 102 7 138 53 139 182 1 51 5 63 34 95 55 63 76 94 71 103 -9 14 -32
9 -38 -9z m-117 -112 c12 -8 7 -19 -25 -59 -21 -27 -57 -72 -79 -100 -22 -28
-43 -51 -47 -51 -11 -1 -21 66 -14 92 10 40 50 91 86 109 39 20 58 22 79 9z
m16 -127 c-9 -62 -39 -94 -95 -101 -38 -5 -43 -4 -35 8 60 80 130 159 133 150
2 -7 1 -32 -3 -57z"/>
<path d="M4936 7727 c-12 -12 -33 -46 -47 -74 -23 -49 -26 -52 -62 -53 -45 0
-47 -23 -3 -28 21 -3 26 -7 20 -20 -13 -32 -27 -120 -21 -136 4 -9 13 -16 22
-16 11 0 14 6 9 24 -3 13 2 51 11 84 l17 61 47 3 c36 2 47 7 49 22 5 26 -20
40 -35 20 -6 -9 -18 -14 -27 -12 -13 2 -11 11 11 56 15 28 35 55 45 58 22 7
24 34 3 34 -9 0 -26 -10 -39 -23z"/>
<path d="M13887 7729 c-20 -5 -55 -18 -77 -29 -32 -16 -40 -26 -40 -48 0 -15
-7 -38 -16 -50 -14 -20 -14 -23 0 -28 8 -3 31 -1 50 6 46 15 72 6 91 -30 34
-65 1 -128 -75 -145 -37 -8 -100 11 -100 31 0 18 -48 30 -62 16 -25 -25 72
-82 139 -82 36 0 90 26 118 57 22 24 25 35 22 82 -3 46 -9 59 -37 84 -25 23
-40 28 -66 25 -35 -4 -44 10 -26 39 12 19 78 43 122 45 44 1 61 15 39 29 -17
10 -31 10 -82 -2z"/>
<path d="M14493 7705 c-31 -14 -53 -31 -53 -40 0 -20 12 -19 52 4 18 11 47 21
63 23 25 3 29 0 27 -17 -10 -54 -83 -128 -198 -200 -26 -16 -50 -36 -52 -42
-6 -21 31 -15 70 12 47 32 58 31 58 0 0 -36 43 -77 77 -73 34 4 43 28 10 28
-31 0 -54 27 -58 66 -3 26 6 42 54 94 68 76 92 135 62 156 -27 20 -52 17 -112
-11z"/>
<path d="M15390 7714 c-19 -8 -38 -20 -42 -27 -4 -7 -8 -8 -8 -3 0 5 -11 -1
-25 -14 -31 -29 -33 -73 -5 -93 20 -14 20 -14 -4 -25 -30 -13 -106 -107 -106
-130 1 -41 44 -65 118 -64 97 1 172 57 172 129 0 36 -12 54 -46 67 l-27 12 42
18 c22 11 41 22 41 25 0 3 -10 22 -22 41 -13 19 -23 44 -23 55 0 25 -21 28
-65 9z m42 -62 c25 -18 23 -37 -7 -50 -55 -25 -120 -8 -99 25 18 30 78 66 83
51 2 -7 12 -19 23 -26z m-46 -133 c4 -8 9 -8 17 0 15 15 23 14 41 -5 23 -22
20 -48 -9 -82 -35 -41 -135 -59 -184 -32 -20 10 -20 12 -5 43 25 48 72 87 104
87 16 0 32 -5 36 -11z"/>
<path d="M3870 7682 c0 -11 22 -32 33 -32 4 0 5 5 2 10 -3 6 -1 10 5 10 6 0 8
5 5 10 -7 12 -45 14 -45 2z"/>
<path d="M9020 7653 c0 -29 -55 -135 -94 -181 -37 -45 -46 -71 -23 -73 80 -8
268 20 275 40 4 12 -6 13 -54 7 -121 -14 -184 -19 -184 -12 0 3 15 25 33 49
30 40 65 109 82 165 5 18 2 22 -14 22 -13 0 -21 -6 -21 -17z"/>
<path d="M15140 7645 c-6 -8 -9 -18 -6 -23 3 -5 -18 -55 -45 -111 -28 -56 -48
-108 -45 -116 9 -24 36 -18 36 8 0 12 20 62 45 112 44 86 54 128 36 139 -5 3
-14 -1 -21 -9z"/>
<path d="M7345 7611 c-49 -29 -85 -78 -85 -114 0 -38 7 -50 37 -66 45 -23 146
0 181 42 25 29 3 37 -34 12 -45 -30 -98 -41 -130 -26 -32 14 -31 39 1 39 14 0
45 15 70 33 36 28 44 40 45 67 0 28 -3 32 -27 32 -16 0 -42 -8 -58 -19z m55
-20 c0 -15 -64 -61 -85 -61 -15 0 -16 2 -4 17 15 17 69 53 82 53 4 0 7 -4 7
-9z"/>
<path d="M5671 7562 c-13 -32 -30 -72 -39 -89 -13 -25 -14 -35 -5 -44 15 -15
34 -1 74 58 28 40 65 70 75 60 2 -2 -3 -20 -11 -40 -18 -43 -19 -70 -4 -65 14
5 60 118 53 129 -10 16 -61 9 -88 -12 -29 -23 -30 -21 -17 15 7 17 6 27 -2 34
-9 7 -18 -5 -36 -46z"/>
<path d="M4005 7597 c-16 -12 -16 -18 -7 -47 14 -39 15 -70 3 -89 -15 -23 -65
3 -58 29 5 21 -1 24 -27 14 -42 -16 8 -79 69 -86 41 -4 58 30 51 103 -5 55 -5
56 19 51 18 -3 25 0 25 11 0 27 -45 35 -75 14z"/>
<path d="M5933 7601 c-36 -10 -61 -37 -74 -80 -26 -87 15 -126 105 -98 52 17
85 41 73 54 -4 3 -30 -4 -58 -16 -63 -26 -76 -26 -88 -3 -8 16 -4 20 27 31 51
18 72 39 72 72 0 32 -24 49 -57 40z m27 -39 c0 -16 -59 -62 -65 -51 -10 16 23
59 45 59 11 0 20 -4 20 -8z"/>
<path d="M6673 7580 l-40 -30 5 25 c4 22 1 25 -19 21 -18 -3 -23 -9 -21 -26 1
-12 -11 -47 -28 -78 -16 -31 -30 -59 -30 -64 0 -23 33 0 102 74 42 45 80 80
83 77 3 -3 -4 -26 -15 -50 -26 -57 -25 -75 4 -94 18 -12 30 -13 50 -6 37 15
34 39 -4 33 -36 -5 -39 10 -14 75 29 76 -2 95 -73 43z"/>
<path d="M4680 7593 c-8 -3 -32 -22 -52 -41 -68 -65 -60 -149 11 -124 29 10
31 9 31 -12 0 -24 22 -51 33 -40 3 4 4 19 0 34 -5 27 7 82 29 126 7 15 7 28
-1 43 -12 21 -23 24 -51 14z m20 -39 c0 -25 -56 -94 -77 -94 -24 0 -14 31 21
66 31 31 56 43 56 28z"/>
<path d="M6906 7591 c-6 -10 18 -34 26 -26 3 3 11 -1 17 -9 18 -22 4 -54 -30
-71 -26 -14 -32 -14 -50 -1 -11 7 -17 15 -12 17 16 8 44 72 35 81 -15 15 -52
-46 -52 -86 0 -29 5 -39 25 -48 47 -21 125 34 125 88 0 42 -66 85 -84 55z"/>
<path d="M2585 7570 c-10 -11 -26 -20 -35 -20 -13 0 -19 -12 -23 -52 -4 -29
-9 -64 -13 -77 -6 -18 -3 -22 11 -20 11 3 25 27 40 66 28 78 42 96 70 89 26
-7 36 0 28 20 -8 21 -57 17 -78 -6z"/>
<path d="M2833 7569 c-6 -6 -9 -19 -6 -28 4 -9 2 -13 -2 -8 -10 8 -211 -387
-217 -424 -4 -33 23 -32 32 1 4 14 55 121 114 239 61 121 104 217 99 222 -5 5
-14 4 -20 -2z"/>
<path d="M8745 7558 c-11 -6 -34 -24 -51 -40 -21 -19 -34 -26 -39 -19 -9 15
-25 4 -25 -17 0 -9 -6 -28 -13 -42 -7 -14 -14 -37 -15 -52 -1 -15 -9 -46 -17
-70 -29 -79 -30 -80 -9 -76 13 2 26 23 40 63 19 54 24 60 47 57 36 -4 133 93
143 143 10 54 -17 78 -61 53z m45 -38 c0 -5 -4 -10 -10 -10 -5 0 -10 -6 -10
-14 0 -18 -98 -108 -110 -101 -15 9 24 78 60 109 31 26 70 35 70 16z"/>
<path d="M8436 7516 c-67 -40 -86 -104 -43 -144 38 -36 127 -23 127 19 0 12
-27 12 -35 -1 -9 -14 -58 -13 -73 2 -22 22 -12 35 30 41 45 6 68 27 68 62 0
19 -17 45 -29 45 -4 0 -24 -11 -45 -24z m44 -26 c0 -11 -33 -30 -52 -30 -7 1
-3 9 11 20 25 22 41 26 41 10z"/>
<path d="M3834 7513 c-3 -10 -13 -35 -22 -56 -10 -25 -12 -41 -5 -48 7 -7 13
-6 20 3 12 15 43 94 43 108 0 17 -30 11 -36 -7z"/>
<path d="M2655 7509 c-4 -6 0 -16 8 -22 9 -7 19 -32 24 -56 11 -56 33 -67 33
-17 0 70 -43 132 -65 95z"/>
<path d="M12884 7419 c-8 -14 11 -33 25 -25 6 4 11 14 11 22 0 16 -26 19 -36
3z"/>
<path d="M14082 7378 c-16 -16 -15 -38 2 -38 18 0 39 27 31 40 -8 13 -18 13
-33 -2z"/>
<path d="M9089 6512 c-25 -16 -61 -48 -82 -72 -31 -37 -37 -51 -37 -89 0 -45
2 -47 105 -146 58 -55 105 -105 105 -111 0 -23 -54 -47 -115 -52 -75 -6 -155
23 -155 57 0 24 -11 32 -30 21 -23 -14 6 -64 48 -85 48 -23 149 -31 195 -16
50 17 87 48 87 75 0 25 -62 91 -74 79 -4 -5 -6 -3 -4 4 2 6 -27 40 -64 75 -60
56 -68 68 -68 101 0 31 8 45 48 85 50 51 88 72 127 72 24 0 25 -1 18 -60 -5
-52 -4 -60 11 -60 25 0 56 37 56 69 0 16 -10 39 -25 55 -33 36 -86 35 -146 -2z"/>
<path d="M5026 6388 c-3 -35 -14 -90 -24 -123 l-18 -60 -50 -1 c-35 0 -49 -5
-49 -15 0 -9 14 -15 43 -17 47 -3 48 -7 28 -73 -9 -27 -11 -51 -5 -60 13 -21
24 -2 39 66 15 72 24 85 61 85 19 0 30 6 34 21 9 29 1 33 -28 14 -14 -9 -28
-12 -31 -7 -3 5 3 41 14 81 24 84 26 151 6 151 -9 0 -15 -20 -20 -62z"/>
<path d="M9387 6364 c-10 -47 -27 -110 -38 -139 l-20 -55 -44 3 c-56 3 -62
-15 -10 -26 l40 -9 0 -54 c0 -61 18 -79 22 -22 6 68 16 82 61 84 47 2 65 11
56 26 -4 6 -24 8 -50 4 l-44 -6 15 38 c23 59 55 184 55 214 0 16 -5 28 -13 28
-8 0 -19 -32 -30 -86z"/>
<path d="M7155 6384 c-15 -44 -40 -98 -53 -111 -8 -7 -11 -21 -8 -29 10 -25
33 0 67 70 25 53 26 63 14 75 -12 13 -15 12 -20 -5z"/>
<path d="M10429 6377 c-74 -50 -122 -170 -105 -262 9 -47 55 -95 90 -95 37 0
32 17 -8 34 -27 11 -37 23 -47 55 -15 52 1 140 36 193 26 39 78 73 95 63 18
-11 32 5 19 21 -16 20 -41 17 -80 -9z"/>
<path d="M10675 6390 c-8 -13 3 -30 19 -30 8 0 30 -18 50 -40 29 -33 36 -48
36 -83 0 -49 -21 -86 -91 -167 -48 -56 -57 -74 -41 -84 10 -6 120 126 144 174
26 49 24 120 -4 156 -36 47 -47 56 -59 48 -8 -4 -9 -3 -5 4 3 6 -2 16 -13 21
-24 13 -28 14 -36 1z"/>
<path d="M7727 6373 c-4 -3 -7 -15 -7 -25 0 -11 -11 -36 -25 -56 -28 -41 -32
-62 -11 -62 17 0 79 116 72 136 -6 15 -18 18 -29 7z"/>
<path d="M8525 6340 c-4 -16 -4 -34 0 -40 3 -5 0 -7 -7 -5 -9 4 -20 -7 -30
-28 -18 -37 -50 -50 -105 -41 -17 3 -34 1 -37 -4 -11 -18 23 -34 64 -30 l40 3
-6 -37 c-10 -62 1 -86 47 -98 43 -12 82 -5 76 13 -2 6 -19 13 -38 14 -58 5
-62 9 -56 54 7 51 16 60 63 68 46 7 50 25 7 29 l-33 3 30 59 c35 70 35 70 11
70 -13 0 -21 -9 -26 -30z"/>
<path d="M1355 6338 c-2 -7 -12 -59 -21 -116 -13 -81 -14 -109 -5 -129 16 -36
25 -21 28 46 1 31 9 90 18 130 8 40 15 74 15 77 0 10 -31 3 -35 -8z"/>
<path d="M2000 6330 c0 -12 16 -30 40 -46 22 -15 40 -30 40 -33 0 -4 -15 -15
-34 -25 -48 -26 -129 -103 -124 -118 8 -24 37 -21 47 5 12 30 89 91 137 109
19 7 34 17 34 24 0 7 -22 26 -49 44 -27 17 -55 38 -61 46 -17 20 -30 18 -30
-6z"/>
<path d="M5920 6342 c0 -4 5 -13 12 -20 13 -13 52 3 43 19 -7 11 -55 12 -55 1z"/>
<path d="M6850 6333 c-30 -8 -72 -19 -92 -24 -37 -10 -54 -39 -22 -39 12 0 14
-8 9 -42 -3 -24 -8 -54 -9 -68 -3 -26 -9 -40 -50 -134 -43 -95 -21 -119 106
-114 44 2 82 7 85 12 11 17 -23 26 -74 20 -29 -3 -64 -3 -79 0 -24 6 -25 10
-19 42 3 20 14 50 24 67 19 34 44 117 40 132 -1 6 1 17 4 25 3 8 7 28 9 45 3
27 7 30 58 41 72 15 90 23 90 40 0 16 -7 16 -80 -3z"/>
<path d="M7920 6323 c-70 -16 -90 -27 -74 -42 5 -6 30 -4 63 5 30 7 56 12 58
10 2 -2 -14 -62 -35 -132 -22 -71 -43 -149 -47 -174 -12 -82 -11 -80 -52 -59
-44 23 -103 25 -103 5 0 -9 16 -16 44 -20 25 -4 56 -16 71 -27 14 -12 32 -18
40 -16 16 7 31 89 19 108 -4 8 -3 10 4 5 8 -5 12 1 12 16 1 13 21 86 46 163
25 77 46 147 47 155 3 20 -18 21 -93 3z"/>
<path d="M3435 6311 c-3 -5 -1 -12 5 -16 12 -7 30 2 30 16 0 12 -27 12 -35 0z"/>
<path d="M7363 6303 c-20 -7 -15 -30 6 -36 24 -6 31 0 31 25 0 18 -12 21 -37
11z"/>
<path d="M2576 6249 c-20 -17 -40 -29 -44 -25 -3 4 -12 -23 -19 -61 -7 -37
-15 -83 -19 -100 -5 -26 -3 -33 8 -33 10 0 23 26 38 81 29 101 64 144 111 134
26 -6 30 -4 27 12 -6 33 -61 29 -102 -8z"/>
<path d="M9742 6263 c4 -19 44 -28 54 -12 8 13 -13 29 -39 29 -12 0 -17 -6
-15 -17z"/>
<path d="M2779 6221 c-46 -45 -49 -51 -49 -99 0 -40 5 -56 22 -71 11 -11 25
-18 29 -15 4 2 11 -1 14 -6 16 -25 125 24 125 56 0 20 -20 17 -47 -8 -26 -24
-74 -28 -97 -8 -26 21 -18 35 27 47 47 13 67 41 67 93 0 74 -25 78 -91 11z
m61 -14 c0 -31 -19 -55 -52 -63 -37 -8 -36 6 3 51 36 41 49 44 49 12z"/>
<path d="M3615 6244 c-47 -24 -93 -81 -100 -126 -9 -51 9 -75 25 -32 26 71 34
86 62 109 34 29 53 32 66 9 8 -13 10 -14 21 0 10 12 9 18 -8 35 -25 25 -28 25
-66 5z"/>
<path d="M4775 6210 c-20 -28 -35 -57 -32 -64 4 -9 -3 -16 -16 -20 -32 -8 -37
-7 -34 6 3 14 -62 60 -74 52 -17 -10 -9 -21 32 -49 l41 -27 -41 -42 c-22 -23
-41 -47 -41 -54 0 -24 30 -11 67 28 l37 41 18 -36 c10 -19 22 -35 27 -35 19 0
18 15 -1 55 l-21 43 47 60 c25 33 46 65 46 71 0 28 -22 16 -55 -29z"/>
<path d="M3810 6233 c-38 -15 -90 -84 -90 -120 0 -45 64 -71 145 -59 31 5 45
12 45 23 0 12 -9 14 -50 8 -33 -5 -62 -3 -80 5 -38 16 -38 30 -1 30 16 0 36 7
45 15 8 8 19 15 24 15 14 0 44 49 40 67 -5 24 -39 31 -78 16z m22 -53 c-18
-17 -39 -30 -47 -30 -14 0 -13 3 1 24 8 14 23 27 32 29 42 11 45 5 14 -23z"/>
<path d="M4371 6224 c-12 -15 -21 -32 -21 -38 0 -6 -7 -24 -15 -40 -11 -20
-12 -33 -5 -40 5 -5 10 -20 10 -33 0 -57 36 -91 83 -78 34 10 107 49 107 58 0
18 -31 17 -58 -1 -15 -12 -40 -24 -54 -27 -28 -7 -39 5 -52 57 -5 22 -2 28 22
36 64 22 99 83 67 116 -24 24 -61 20 -84 -10z m59 -26 c-1 -22 -46 -66 -56
-55 -3 3 2 21 10 41 17 40 46 49 46 14z"/>
<path d="M5190 6209 c-66 -72 -73 -150 -15 -165 33 -8 87 7 93 25 4 11 -5 12
-41 7 -62 -9 -69 7 -19 49 43 37 60 78 41 101 -17 20 -27 18 -59 -17z m20 -44
c-7 -8 -17 -15 -23 -15 -5 0 -2 9 8 20 21 23 35 19 15 -5z"/>
<path d="M6458 6219 c-30 -15 -38 -25 -38 -48 0 -15 9 -36 20 -46 23 -21 25
-36 8 -53 -8 -8 -15 -8 -24 -1 -17 14 -35 3 -28 -16 10 -26 44 -28 70 -4 29
27 30 55 4 89 -11 14 -20 28 -20 32 0 12 60 39 71 33 5 -4 18 -4 27 0 16 6 15
8 -2 21 -26 18 -43 17 -88 -7z"/>
<path d="M2992 6210 c-72 -67 -51 -164 25 -115 25 17 26 17 20 -6 -3 -13 -11
-53 -17 -87 -6 -35 -16 -76 -21 -90 -6 -15 -17 -57 -24 -94 -17 -91 -5 -101
59 -48 26 21 56 42 66 45 11 4 20 10 20 15 0 23 -26 19 -71 -9 -40 -24 -49
-27 -45 -14 22 73 58 240 63 296 5 56 3 67 -9 67 -9 0 -23 -11 -32 -25 -17
-26 -46 -34 -46 -12 0 7 7 23 16 36 12 16 22 21 40 17 32 -8 39 9 12 28 -28
20 -30 20 -56 -4z"/>
<path d="M5435 6203 c-13 -16 -32 -39 -43 -52 l-19 -25 5 32 c3 25 1 32 -12
32 -9 0 -16 -7 -16 -15 0 -9 -9 -41 -20 -72 -14 -40 -17 -60 -9 -68 12 -11 16
-7 117 123 32 39 62 55 62 31 0 -5 -4 -8 -9 -5 -4 3 -17 -13 -27 -36 -10 -22
-24 -47 -32 -54 -16 -17 -7 -54 14 -54 8 0 14 6 14 14 0 8 10 36 22 63 12 26
23 63 25 81 4 29 2 32 -22 32 -17 0 -36 -10 -50 -27z"/>
<path d="M5643 6218 c-35 -17 -37 -43 -8 -93 22 -37 25 -48 15 -60 -19 -23
-57 -19 -63 6 -7 24 -27 16 -27 -10 0 -31 29 -46 83 -42 9 0 25 16 34 35 15
33 15 36 -11 80 -26 45 -26 45 -6 56 12 6 34 8 51 5 22 -5 29 -3 29 8 0 27
-55 35 -97 15z"/>
<path d="M7486 6189 c-33 -26 -33 -37 4 -85 16 -21 30 -47 30 -56 0 -27 -27
-21 -47 10 -28 43 -63 66 -63 41 0 -24 71 -99 94 -99 50 0 62 58 21 106 -14
16 -25 37 -25 46 0 23 45 35 66 18 21 -19 43 3 24 25 -18 21 -73 19 -104 -6z"/>
<path d="M8680 6194 c0 -9 -8 -28 -19 -42 -28 -41 -34 -78 -15 -96 37 -38 124
-1 124 53 0 18 -12 39 -38 64 -42 41 -52 45 -52 21z m60 -79 c0 -20 -28 -45
-51 -45 -24 0 -26 36 -3 61 13 14 21 16 35 8 11 -5 19 -16 19 -24z"/>
<path d="M6238 6164 c-34 -34 -35 -35 -31 -11 6 32 -16 47 -24 16 -4 -13 -19
-48 -35 -78 -21 -39 -26 -57 -18 -65 14 -14 95 69 84 86 -4 6 -3 8 3 5 6 -4
16 0 24 9 7 8 21 20 32 25 16 9 15 5 -7 -34 -29 -49 -34 -92 -11 -100 18 -7
27 6 19 27 -3 9 6 36 20 60 53 91 16 131 -56 60z"/>
<path d="M9543 6181 c-23 -19 -63 -100 -63 -127 0 -31 29 -11 45 30 10 25 27
54 40 66 21 20 23 20 29 3 7 -17 8 -17 17 0 8 13 7 22 -1 33 -17 19 -40 17
-67 -5z"/>
<path d="M9879 6176 c-18 -13 -40 -21 -49 -19 -19 5 -74 -83 -65 -106 5 -13
13 -9 40 20 44 48 104 93 112 85 4 -4 0 -34 -9 -67 -15 -54 -15 -60 0 -57 19
4 40 60 41 110 1 53 -24 65 -70 34z"/>
<path d="M3168 6165 c-27 -59 30 -130 89 -110 48 18 98 115 58 115 -8 0 -15
-6 -15 -14 0 -20 -49 -76 -65 -76 -25 0 -46 42 -39 77 7 40 -11 45 -28 8z"/>
<path d="M5972 6155 c-73 -82 -40 -143 54 -99 48 23 58 45 40 89 -8 19 -19 35
-25 35 -5 0 -16 2 -24 6 -8 3 -27 -9 -45 -31z m66 -32 c3 -23 -13 -39 -49 -48
-23 -6 -26 -4 -26 19 0 14 4 26 9 26 5 0 16 7 25 15 19 20 37 15 41 -12z"/>
<path d="M10083 6158 c-17 -13 -39 -36 -49 -52 -17 -29 -16 -30 6 -48 13 -11
32 -17 42 -15 22 6 35 -34 30 -98 -4 -42 -5 -44 -24 -34 -29 16 -91 -4 -111
-35 -22 -33 -32 -118 -18 -145 7 -11 21 -21 31 -21 25 0 91 59 115 103 14 27
23 33 41 29 28 -5 31 9 8 29 -11 9 -14 23 -11 44 2 16 1 57 -3 90 -5 44 -3 68
7 88 8 16 13 40 11 55 -4 36 -34 39 -75 10z m26 -48 c-13 -27 -24 -38 -34 -34
-8 4 -15 10 -15 14 0 7 57 60 65 60 2 0 -5 -18 -16 -40z m-16 -237 c11 -7 -31
-74 -67 -105 -16 -15 -33 -25 -38 -22 -13 8 -9 51 7 89 19 46 56 60 98 38z"/>
<path d="M3381 6139 c-15 -45 -14 -89 3 -89 11 0 28 56 31 104 1 24 -24 13
-34 -15z"/>
<path d="M5843 6148 c-19 -27 -39 -84 -35 -100 5 -24 32 -23 32 1 0 10 7 35
15 54 8 20 15 41 15 47 0 14 -16 13 -27 -2z"/>
<path d="M7315 6120 c-3 -5 0 -18 6 -28 7 -10 9 -30 6 -43 -10 -41 -67 -119
-87 -119 -28 0 -50 28 -50 62 0 38 -24 33 -28 -6 -5 -36 20 -71 59 -85 30 -10
34 -9 66 25 65 69 98 172 63 195 -19 11 -27 11 -35 -1z"/>
<path d="M9685 6096 c-16 -33 -14 -56 4 -56 11 0 42 70 36 81 -11 17 -24 9
-40 -25z"/>
<path d="M1446 6095 c-11 -29 -6 -55 9 -55 8 0 16 9 17 20 0 11 1 25 2 32 2
18 -21 21 -28 3z"/>
<path d="M7118 6094 c6 -3 9 -11 6 -16 -4 -7 -2 -8 4 -4 7 4 12 1 12 -8 0 -17
9 -20 34 -10 22 8 20 34 -1 35 -10 0 -29 2 -43 4 -14 2 -19 1 -12 -1z"/>
<path d="M4079 6064 c-14 -17 -12 -19 19 -28 18 -6 22 -3 22 12 0 25 -25 35
-41 16z"/>
<path d="M8120 6020 c0 -11 7 -20 15 -20 8 0 15 9 15 20 0 11 -7 20 -15 20 -8
0 -15 -9 -15 -20z"/>
<path d="M9844 5608 c-56 -38 -80 -74 -71 -109 3 -13 27 -55 52 -93 58 -88 61
-137 14 -191 -40 -45 -91 -49 -138 -9 -35 29 -38 40 -14 66 19 22 12 32 -16
23 -27 -8 -37 -50 -20 -82 21 -39 67 -63 120 -63 57 0 89 23 119 85 27 55 21
90 -24 160 -79 121 -80 137 -8 185 60 40 78 36 74 -13 -4 -45 22 -63 45 -31
28 38 -12 104 -62 104 -12 0 -45 -15 -71 -32z"/>
<path d="M10156 5503 c-21 -65 -42 -122 -46 -126 -4 -5 -34 -10 -66 -12 -45
-3 -60 -7 -62 -20 -3 -15 4 -16 52 -13 31 1 56 1 56 -2 0 -3 -11 -36 -25 -75
-22 -66 -21 -96 4 -81 6 4 11 14 11 21 0 8 12 44 26 80 l26 65 51 -2 c68 -4
76 19 9 28 l-49 6 39 114 c42 127 44 134 25 134 -7 0 -28 -48 -51 -117z"/>
<path d="M6734 5566 c-19 -14 -21 -22 -16 -84 5 -79 -6 -126 -74 -300 -25 -63
-43 -121 -40 -129 4 -11 19 -12 68 -7 35 3 81 7 102 8 22 0 41 6 43 13 6 17
-44 23 -114 15 -35 -5 -63 -5 -63 -1 0 4 18 51 39 105 56 142 72 203 73 284 1
41 6 74 12 76 6 2 48 0 94 -4 78 -8 106 -2 86 18 -5 4 -49 11 -99 15 -72 5
-94 3 -111 -9z"/>
<path d="M7174 5569 c-3 -6 -2 -15 4 -21 7 -7 6 -21 -4 -44 -34 -81 -3 -88 32
-7 24 54 25 58 8 70 -22 16 -31 16 -40 2z"/>
<path d="M8750 5573 c-76 -7 -100 -14 -100 -29 0 -12 12 -13 70 -8 39 4 70 5
70 3 -1 -17 -47 -146 -75 -211 -35 -79 -65 -193 -65 -246 0 -27 -1 -27 -70
-27 -42 -1 -75 -6 -82 -13 -19 -19 8 -33 39 -21 37 14 76 11 102 -7 29 -21 41
-7 41 47 0 67 22 154 65 259 56 139 88 237 80 250 -3 5 -14 9 -23 8 -9 0 -33
-3 -52 -5z"/>
<path d="M9350 5543 c0 -9 -19 -50 -42 -90 -44 -77 -39 -74 -128 -77 -15 -1
-25 -7 -25 -16 0 -11 12 -15 47 -14 l47 0 -16 -35 c-30 -73 -34 -86 -29 -107
3 -12 19 -27 35 -34 33 -13 91 -5 92 13 0 7 2 20 4 30 5 24 -20 21 -37 -5 -13
-20 -18 -21 -41 -11 -28 13 -28 23 8 110 15 36 21 42 51 45 41 4 48 21 12 28
l-27 5 40 65 c41 68 50 110 24 110 -8 0 -15 -8 -15 -17z"/>
<path d="M11283 5549 c-30 -11 -109 -112 -140 -178 -36 -75 -41 -165 -13 -209
21 -35 72 -62 114 -62 27 0 45 18 24 24 -7 2 -32 9 -55 15 -76 21 -93 101 -45
211 29 66 108 167 137 174 14 4 25 10 25 15 0 14 -23 19 -47 10z"/>
<path d="M8447 5505 c-30 -52 -33 -65 -13 -65 14 0 66 78 66 99 0 26 -27 8
-53 -34z"/>
<path d="M4950 5526 c0 -8 5 -18 10 -21 18 -11 11 -63 -16 -112 -28 -54 -40
-61 -102 -62 -30 -1 -42 -5 -39 -13 2 -8 23 -13 54 -13 l51 1 -14 -46 c-19
-63 -19 -140 1 -140 11 0 15 11 15 40 0 22 7 67 16 99 l16 58 61 14 c63 15 90
39 43 39 -14 0 -26 -4 -26 -9 0 -4 -13 -8 -30 -7 -16 1 -30 2 -30 4 0 1 9 20
20 42 23 45 25 78 8 115 -12 27 -38 34 -38 11z"/>
<path d="M11535 5510 c-3 -5 5 -15 18 -21 13 -6 36 -29 50 -52 53 -81 27 -216
-57 -300 -41 -42 -43 -47 -17 -47 25 0 78 61 107 124 18 38 24 69 24 119 0 77
-16 117 -62 160 -32 28 -53 34 -63 17z"/>
<path d="M1354 5458 c-25 -14 -74 -60 -74 -70 0 -17 34 -7 56 17 22 24 54 34
54 16 0 -22 -32 -96 -59 -135 -17 -24 -55 -68 -86 -97 -30 -29 -55 -56 -55
-61 0 -17 40 -7 67 16 l28 24 20 -36 c17 -31 26 -37 54 -37 19 0 36 6 39 13 2
8 -7 12 -26 12 -26 0 -32 6 -46 40 l-16 41 41 60 c45 66 72 136 67 170 -4 27
-37 41 -64 27z"/>
<path d="M7640 5455 c-20 -24 2 -41 24 -20 16 16 14 35 -3 35 -5 0 -14 -7 -21
-15z"/>
<path d="M10570 5455 c-10 -12 -9 -16 3 -21 20 -7 37 3 37 22 0 18 -24 18 -40
-1z"/>
<path d="M3513 5453 c-12 -4 -19 -43 -8 -43 3 0 17 7 30 16 35 23 18 44 -22
27z"/>
<path d="M5853 5453 c-17 -6 -16 -33 1 -33 17 0 38 24 29 33 -7 8 -12 8 -30 0z"/>
<path d="M2030 5399 c0 -7 20 -34 45 -60 44 -47 55 -69 36 -69 -16 0 -131
-111 -131 -125 0 -20 18 -28 47 -21 20 6 24 11 19 30 -4 18 3 30 34 55 22 18
54 37 70 43 17 5 30 13 30 18 0 11 -128 140 -140 140 -5 0 -10 -5 -10 -11z"/>
<path d="M3598 5350 c-22 -22 -43 -40 -47 -40 -9 0 -51 -94 -51 -114 0 -37 31
-12 60 48 29 62 78 116 104 116 6 0 17 -14 23 -31 15 -38 38 -30 28 10 -16 65
-60 69 -117 11z"/>
<path d="M2604 5366 c-13 -10 -23 -11 -32 -4 -7 6 -16 8 -20 4 -8 -8 -31 -153
-32 -198 0 -54 26 -29 45 44 29 105 75 166 90 119 3 -12 13 -21 21 -21 17 0
18 9 4 44 -11 30 -44 35 -76 12z"/>
<path d="M10365 5363 c-16 -8 -40 -25 -52 -36 -13 -11 -23 -15 -23 -9 0 7 -7
12 -15 12 -10 0 -15 -10 -15 -27 0 -16 -9 -48 -20 -72 -23 -51 -25 -61 -7 -61
13 0 62 75 62 95 0 19 80 75 108 75 30 0 38 24 11 34 -19 7 -13 8 -49 -11z"/>
<path d="M4383 5350 c-113 -68 -121 -260 -12 -260 28 0 118 30 125 42 12 20
-8 21 -65 3 -33 -10 -67 -15 -75 -12 -23 9 -40 51 -32 81 5 22 12 26 42 26 28
0 44 8 70 34 38 38 43 65 16 89 -24 21 -30 21 -69 -3z m57 -30 c0 -19 -48 -60
-70 -60 -27 0 -25 16 5 45 24 25 65 34 65 15z"/>
<path d="M3781 5325 c-73 -84 -44 -183 58 -200 47 -8 111 19 92 38 -8 8 -19 8
-41 0 -41 -15 -94 0 -108 31 -10 23 -8 26 34 42 65 25 97 91 55 114 -34 18
-58 11 -90 -25z m72 -1 c11 -11 -5 -35 -35 -50 -41 -21 -47 -10 -13 26 29 31
37 35 48 24z"/>
<path d="M6403 5340 c-18 -11 -33 -24 -33 -29 0 -5 18 -31 40 -56 44 -51 48
-66 24 -89 -20 -21 -44 -20 -60 2 -11 15 -14 15 -28 2 -22 -22 -6 -41 40 -47
30 -4 45 0 67 17 38 30 35 67 -8 124 -33 44 -34 46 -15 56 11 6 32 9 48 8 19
-2 27 2 27 12 0 24 -64 24 -102 0z"/>
<path d="M9416 5328 c-57 -57 -61 -145 -8 -167 41 -17 76 -5 118 41 33 37 36
45 31 85 -6 54 -10 59 -65 68 -39 6 -45 4 -76 -27z m106 -21 c15 -24 7 -57
-19 -86 -34 -36 -63 -45 -87 -28 -15 11 -17 21 -12 52 10 52 49 89 84 80 15
-4 30 -12 34 -18z"/>
<path d="M7765 5330 c-16 -17 -17 -25 -7 -59 15 -47 15 -77 2 -102 -15 -28
-50 -4 -50 34 0 22 -4 28 -17 25 -30 -6 -27 -45 6 -78 36 -37 54 -38 80 -4 22
28 27 90 12 129 -11 27 6 50 26 34 18 -16 30 -2 17 19 -16 25 -47 26 -69 2z"/>
<path d="M7925 5309 c-44 -39 -65 -78 -65 -119 0 -64 85 -60 110 6 11 28 9
144 -2 144 -4 0 -23 -14 -43 -31z m25 -68 c0 -29 -35 -75 -51 -66 -15 10 -10
37 11 73 23 37 40 34 40 -7z"/>
<path d="M10652 5320 c-18 -11 -40 -20 -50 -20 -11 0 -27 -23 -49 -71 -28 -61
-30 -71 -16 -76 9 -4 18 -2 20 4 17 50 114 155 130 140 3 -3 -2 -28 -12 -56
-17 -52 -17 -92 -1 -92 13 0 39 96 40 146 1 48 -15 54 -62 25z"/>
<path d="M2796 5309 c-44 -35 -65 -87 -56 -139 11 -61 37 -80 112 -80 59 0
103 14 94 29 -3 5 -36 6 -74 3 -55 -3 -71 -1 -85 13 -26 26 -21 50 11 53 35 2
82 54 82 90 0 53 -38 67 -84 31z m54 -27 c0 -29 -29 -62 -56 -62 -24 0 -24 1
-9 30 23 44 65 65 65 32z"/>
<path d="M5565 5313 c-46 -19 -65 -36 -65 -56 0 -25 11 -25 34 -2 13 13 42 29
65 36 22 7 41 18 41 26 0 17 -26 16 -75 -4z"/>
<path d="M6209 5313 c-13 -9 -37 -28 -53 -42 -30 -27 -30 -26 -9 27 3 6 -2 12
-11 12 -9 0 -29 -28 -51 -72 -54 -110 -46 -127 23 -54 24 25 61 59 82 76 l40
31 -22 -59 c-20 -57 -20 -92 2 -92 5 0 10 9 10 20 0 10 9 42 20 70 11 28 20
59 20 69 0 26 -23 32 -51 14z"/>
<path d="M4580 5306 c0 -7 7 -19 16 -27 8 -7 22 -25 30 -41 14 -28 14 -28 -31
-60 -25 -17 -45 -35 -45 -40 0 -16 34 -7 67 18 19 14 36 24 37 23 2 -2 11 -19
20 -36 9 -18 23 -33 31 -33 19 0 19 3 -5 50 l-20 40 31 28 c43 39 30 62 -15
27 l-33 -25 -13 28 c-20 39 -41 62 -57 62 -7 0 -13 -6 -13 -14z"/>
<path d="M5331 5306 c-7 -8 -28 -22 -47 -31 -20 -9 -39 -28 -45 -43 -6 -15
-17 -40 -25 -56 -16 -33 -18 -56 -6 -56 12 0 35 28 62 75 21 38 86 102 95 94
2 -2 -3 -37 -12 -77 -14 -70 -12 -116 6 -96 4 5 16 46 26 91 15 67 16 85 5 98
-16 19 -44 19 -59 1z"/>
<path d="M5930 5305 c-7 -8 -18 -15 -24 -15 -7 0 -27 -13 -45 -28 -27 -22 -34
-35 -33 -61 1 -43 18 -61 56 -61 56 0 110 71 104 138 -2 29 -8 38 -24 40 -11
2 -27 -4 -34 -13z m30 -49 c0 -28 -45 -81 -70 -81 -38 0 -38 36 0 69 34 28 70
35 70 12z"/>
<path d="M8071 5248 c-27 -62 -30 -74 -17 -86 12 -12 22 -6 70 44 l57 59 -7
-36 c-3 -21 -1 -46 5 -58 14 -25 61 -29 61 -6 0 8 -6 15 -14 15 -21 0 -26 24
-15 65 11 38 7 65 -10 65 -5 0 -32 -21 -61 -47 l-52 -47 21 42 c20 40 21 62 2
62 -4 0 -22 -32 -40 -72z"/>
<path d="M2987 5271 c-33 -40 -41 -65 -27 -91 12 -22 58 -27 91 -9 24 12 24
13 -32 -174 -48 -162 -56 -209 -36 -226 12 -10 18 -9 29 5 7 10 34 39 60 66
42 41 53 48 88 48 45 0 53 16 14 30 -31 12 -92 -16 -137 -63 l-29 -32 6 35 c5
31 63 237 102 362 8 26 14 54 14 62 0 29 -26 16 -39 -19 -20 -56 -101 -104
-101 -60 0 35 31 65 67 65 46 0 39 24 -9 28 -29 3 -40 -2 -61 -27z"/>
<path d="M3192 5261 c-23 -74 -11 -112 37 -129 37 -13 68 2 98 48 29 41 39 78
26 91 -7 7 -19 -9 -37 -45 -31 -62 -65 -81 -94 -52 -16 16 -12 50 13 109 5 13
2 17 -12 17 -14 0 -23 -11 -31 -39z"/>
<path d="M3430 5260 c-24 -47 -27 -110 -5 -110 10 0 15 10 15 30 0 17 9 48 20
70 24 47 24 50 5 50 -8 0 -24 -18 -35 -40z"/>
<path d="M7599 5293 c0 -5 -3 -39 -5 -77 -5 -80 -32 -147 -76 -193 -35 -37
-58 -33 -58 9 0 40 -24 32 -28 -9 -2 -23 3 -35 20 -47 35 -25 54 -19 91 27 51
62 66 97 78 184 7 43 16 81 22 84 5 4 6 12 3 18 -8 12 -46 15 -47 4z"/>
<path d="M10812 5266 c-63 -72 -27 -128 59 -92 15 7 16 2 7 -41 -18 -97 -16
-93 -49 -93 -51 0 -87 -25 -99 -69 -13 -49 -2 -146 19 -172 16 -20 16 -20 44
1 24 19 56 66 58 87 1 5 6 19 11 33 5 14 12 37 15 53 6 31 12 33 39 12 24 -18
44 -19 44 -2 0 8 -16 22 -35 33 -19 10 -35 21 -35 24 0 3 4 22 9 42 5 22 5 36
0 32 -5 -3 -9 0 -9 5 0 6 5 11 11 11 6 0 9 12 8 28 -1 15 4 46 11 70 16 50 9
60 -41 68 -31 5 -39 2 -67 -30z m75 -13 c4 -10 -3 -24 -21 -40 -50 -43 -76
-21 -35 31 23 30 47 34 56 9z m-37 -256 c0 -26 -39 -128 -59 -153 -25 -32 -32
-20 -34 62 -2 58 1 68 22 85 27 22 71 25 71 6z"/>
<path d="M5074 5276 c-65 -29 -98 -120 -58 -160 30 -31 154 -13 154 22 0 10
-6 12 -22 7 -43 -14 -100 -17 -110 -7 -7 7 2 17 28 30 54 28 76 55 72 89 -4
33 -21 38 -64 19z m29 -41 c-6 -17 -62 -50 -70 -42 -6 7 50 57 64 57 7 0 10
-7 6 -15z"/>
<path d="M10451 5239 c-22 -48 -27 -93 -10 -87 17 6 51 110 39 122 -6 6 -17
-6 -29 -35z"/>
<path d="M5526 5232 c-4 -12 -2 -31 4 -42 6 -11 8 -25 5 -30 -9 -14 -33 -12
-37 2 -3 7 -12 9 -22 5 -26 -10 -3 -47 30 -47 63 0 79 36 45 99 -17 32 -19 33
-25 13z"/>
<path d="M5750 5230 c0 -5 0 -13 1 -16 0 -4 -3 -10 -8 -13 -15 -11 -34 -52
-28 -61 12 -20 26 -9 45 36 24 55 25 64 5 64 -8 0 -15 -4 -15 -10z"/>
<path d="M7314 5179 c-3 -6 -2 -15 4 -21 13 -13 32 -2 32 18 0 16 -26 19 -36
3z"/>
<path d="M8892 5158 c-19 -19 -14 -30 10 -26 13 2 24 11 26 21 4 20 -18 23
-36 5z"/>
<path d="M4040 5115 c0 -10 7 -15 18 -13 21 4 19 22 -2 26 -10 2 -16 -3 -16
-13z"/>
<path d="M1490 5085 c0 -8 4 -15 9 -15 5 0 14 7 21 15 10 13 9 15 -9 15 -12 0
-21 -6 -21 -15z"/>
<path d="M9852 4661 c-31 -48 -64 -102 -73 -118 -14 -26 -24 -32 -75 -39 -42
-6 -59 -13 -59 -24 0 -8 5 -14 10 -13 6 1 27 4 48 8 l39 8 -31 -61 c-35 -69
-40 -121 -13 -144 21 -19 76 -30 108 -22 41 10 21 29 -37 34 -50 5 -54 7 -57
32 -2 15 10 53 28 88 l31 62 51 -7 c40 -6 49 -4 46 6 -3 8 -19 18 -36 23 -18
5 -32 13 -32 17 0 11 62 115 104 174 40 55 43 65 21 65 -9 0 -41 -40 -73 -89z"/>
<path d="M10505 4728 c-4 -9 -19 -12 -49 -10 -39 3 -49 0 -82 -31 -53 -48 -50
-86 13 -209 40 -78 48 -104 51 -160 4 -64 3 -69 -27 -99 -28 -27 -37 -31 -68
-26 -68 11 -92 60 -67 132 17 50 17 55 0 55 -13 0 -26 -25 -41 -78 -4 -14 0
-43 10 -69 13 -34 26 -48 51 -59 55 -23 90 -18 131 20 34 31 37 39 41 99 5 75
-6 114 -55 200 -21 37 -38 81 -40 108 -5 41 -2 48 22 67 15 12 41 22 56 22 27
0 29 -3 29 -39 0 -22 4 -42 9 -46 17 -10 42 26 41 58 -1 18 0 41 2 51 4 22
-20 34 -27 14z"/>
<path d="M8991 4675 c-38 -52 -53 -91 -32 -83 19 7 99 113 94 125 -9 22 -19
15 -62 -42z"/>
<path d="M7285 4663 c-9 -21 -23 -45 -32 -55 -20 -22 -10 -56 12 -38 19 16 66
111 59 121 -11 18 -24 8 -39 -28z"/>
<path d="M10782 4688 c-7 -7 -12 -19 -12 -28 0 -8 -22 -65 -49 -125 l-49 -110
-44 -1 c-62 -1 -65 -3 -44 -19 11 -8 32 -15 48 -15 15 0 28 -1 28 -3 0 -2 -7
-24 -16 -49 -17 -52 -16 -109 4 -116 8 -2 12 8 12 30 0 19 7 57 15 86 15 50
16 51 58 54 29 2 42 8 42 18 0 11 -9 14 -32 12 -18 -2 -33 0 -33 5 0 5 22 61
50 124 48 110 59 149 42 149 -4 0 -13 -5 -20 -12z"/>
<path d="M5029 4678 c0 -2 -3 -16 -5 -33 -3 -16 -12 -51 -20 -77 l-16 -48 -59
0 c-46 0 -59 -3 -59 -15 0 -11 13 -15 54 -15 l55 0 -25 -72 c-28 -84 -29 -151
-2 -156 15 -3 17 2 12 27 -7 33 8 98 37 167 17 41 18 41 81 48 88 10 108 16
108 32 0 10 -8 13 -24 10 -13 -2 -49 -7 -80 -11 -64 -8 -64 -8 -41 70 16 50
14 75 -5 75 -5 0 -10 -1 -11 -2z"/>
<path d="M6786 4664 c-12 -12 -16 -26 -12 -48 10 -57 -64 -336 -131 -488 -49
-112 -41 -148 25 -114 34 18 92 22 140 11 25 -6 32 -4 32 7 0 35 -112 42 -183
13 -18 -7 -18 -6 -1 31 60 137 140 403 150 500 l7 66 51 -6 c62 -6 128 4 134
22 3 10 -11 13 -59 11 -35 -1 -80 1 -100 5 -28 6 -39 4 -53 -10z"/>
<path d="M9299 4676 c-2 -2 -28 -6 -58 -9 -55 -6 -78 -18 -67 -36 5 -7 15 -7
32 -1 14 6 41 10 60 10 l35 0 -25 -42 c-28 -50 -89 -200 -136 -340 -36 -106
-50 -118 -90 -78 -24 24 -36 25 -43 6 -9 -23 17 -49 53 -53 18 -2 39 -8 46
-14 18 -15 34 -3 34 26 0 38 97 301 152 412 27 56 47 106 43 112 -6 11 -28 15
-36 7z"/>
<path d="M8433 4648 c-6 -7 -27 -63 -47 -125 l-37 -112 -33 6 c-28 4 -37 0
-69 -36 -55 -61 -50 -131 11 -131 59 0 80 32 142 223 27 83 47 127 56 127 18
0 18 34 0 49 -10 8 -16 8 -23 -1z m-93 -262 c0 -15 -32 -75 -49 -90 -24 -22
-51 -15 -51 13 0 30 48 81 76 81 13 0 24 -2 24 -4z"/>
<path d="M11951 4599 c-77 -51 -155 -137 -177 -194 -16 -43 -16 -47 0 -84 26
-56 172 -139 199 -112 6 6 -20 23 -64 44 -119 55 -137 93 -85 181 29 50 132
141 183 163 35 14 42 27 18 36 -8 4 -41 -12 -74 -34z"/>
<path d="M12285 4630 c-3 -5 5 -15 18 -21 14 -6 38 -34 54 -63 24 -44 28 -61
28 -131 0 -59 -5 -88 -19 -110 -19 -31 -87 -87 -131 -107 -25 -11 -29 -28 -9
-35 13 -4 100 53 140 93 61 62 70 203 19 303 -33 65 -82 100 -100 71z"/>
<path d="M1425 4625 c-5 -3 -32 -6 -60 -7 -36 -2 -50 -7 -50 -18 0 -12 12 -14
60 -12 l60 4 -38 -38 c-45 -45 -46 -74 -2 -89 46 -15 55 -24 55 -54 0 -39 -41
-81 -80 -81 -47 0 -90 26 -90 55 0 35 -18 41 -30 9 -9 -21 -7 -31 7 -46 32
-36 79 -53 135 -49 28 2 77 51 87 87 14 51 -1 81 -50 102 l-42 18 57 48 c65
56 71 76 24 75 -18 0 -37 -2 -43 -4z"/>
<path d="M5880 4572 c0 -5 6 -16 13 -27 18 -24 41 -11 27 16 -10 19 -40 27
-40 11z"/>
<path d="M2142 4554 c2 -9 17 -22 35 -28 18 -6 46 -29 63 -50 l31 -40 -38 -23
c-21 -13 -64 -38 -96 -54 -47 -24 -58 -34 -55 -51 4 -28 28 -36 34 -11 3 10
30 31 59 47 30 16 75 41 100 57 l46 29 -48 56 c-48 56 -88 84 -118 84 -10 0
-15 -7 -13 -16z"/>
<path d="M3445 4540 c-4 -7 -3 -16 3 -22 14 -14 45 -2 40 15 -6 16 -34 21 -43
7z"/>
<path d="M2645 4498 c-15 -18 -35 -33 -44 -33 -12 0 -18 -15 -23 -60 -4 -33
-12 -73 -18 -89 -14 -40 -13 -79 2 -74 7 3 25 44 40 93 36 116 79 178 109 159
5 -3 9 -12 9 -20 0 -8 4 -14 9 -14 19 0 22 22 7 45 -23 35 -58 32 -91 -7z"/>
<path d="M11144 4489 c-8 -14 11 -33 25 -25 16 10 13 36 -3 36 -8 0 -18 -5
-22 -11z"/>
<path d="M6483 4474 c-38 -19 -41 -36 -13 -81 18 -31 25 -59 22 -95 -3 -27
-62 -25 -69 2 -6 24 -41 27 -50 4 -9 -25 21 -46 74 -51 38 -4 52 -1 63 12 22
26 17 96 -9 139 l-23 36 25 9 c14 5 34 7 46 4 25 -6 30 21 5 31 -23 9 -36 7
-71 -10z"/>
<path d="M4425 4468 c-39 -21 -68 -54 -87 -97 -36 -84 3 -141 96 -141 53 0
101 18 95 35 -6 14 -42 7 -56 -11 -7 -10 -13 -11 -18 -5 -3 6 -17 11 -31 11
-33 0 -64 17 -64 35 0 8 -4 15 -10 15 -5 0 -10 5 -10 10 0 6 9 10 20 10 31 0
82 29 74 42 -5 7 -2 9 9 5 33 -13 62 64 35 91 -15 15 -27 15 -53 0z m28 -48
c-5 -20 -80 -67 -89 -57 -3 3 10 21 29 41 39 40 68 48 60 16z"/>
<path d="M3576 4438 c-14 -18 -34 -41 -43 -51 -21 -21 -32 -142 -15 -159 13
-13 11 -17 36 87 27 106 71 152 106 110 15 -19 30 -19 30 -2 0 22 -34 47 -62
47 -18 0 -35 -11 -52 -32z"/>
<path d="M4776 4419 l-47 -42 -37 36 c-37 36 -62 47 -62 27 0 -6 16 -24 35
-41 19 -17 35 -37 35 -44 0 -7 -27 -35 -60 -62 -33 -26 -60 -52 -60 -56 0 -25
33 -11 85 38 l60 55 18 -35 c9 -19 24 -35 33 -35 8 0 12 -4 9 -10 -3 -5 -1
-10 4 -10 16 0 13 13 -14 63 l-26 45 48 46 c34 34 44 49 36 57 -8 8 -24 0 -57
-32z"/>
<path d="M7825 4445 c-16 -8 -40 -22 -52 -31 -21 -15 -23 -15 -23 0 0 24 -28
19 -36 -6 -3 -12 -20 -43 -35 -69 -16 -25 -29 -51 -29 -58 0 -25 31 -9 66 35
40 48 121 110 131 100 4 -3 -11 -31 -31 -60 -39 -57 -42 -88 -9 -100 25 -10
42 13 20 25 -16 9 -15 14 13 54 41 60 53 94 39 111 -14 17 -16 17 -54 -1z"/>
<path d="M8005 4450 c-8 -13 3 -30 19 -30 7 0 -6 -20 -30 -44 -70 -69 -58
-126 26 -126 44 0 100 56 100 99 0 51 -94 134 -115 101z m79 -76 c11 -29 6
-45 -20 -69 -30 -28 -72 -33 -81 -9 -7 19 25 64 58 81 31 16 36 16 43 -3z"/>
<path d="M8514 4437 c-23 -14 -46 -37 -57 -59 -16 -32 -17 -41 -5 -65 20 -41
53 -53 122 -44 58 8 84 27 65 46 -6 6 -12 6 -18 -3 -5 -9 -28 -12 -72 -10 -57
3 -64 5 -67 24 -2 16 4 23 25 28 49 12 73 34 73 65 0 39 -19 44 -66 18z m27
-31 c-11 -13 -51 -29 -51 -20 0 3 51 33 59 34 2 0 -2 -6 -8 -14z"/>
<path d="M2806 4417 c-53 -69 -61 -142 -21 -182 19 -20 34 -25 75 -25 52 0 90
13 90 30 0 5 -27 7 -63 3 -70 -6 -97 8 -97 51 0 19 7 24 36 29 45 8 74 33 74
64 0 68 -53 85 -94 30z m59 -23 c0 -19 -48 -50 -53 -34 -5 14 30 61 42 57 6
-2 11 -12 11 -23z"/>
<path d="M3779 4427 c-19 -12 -43 -40 -53 -61 -19 -39 -19 -40 0 -75 27 -50
65 -67 117 -51 51 15 87 38 87 56 0 18 -19 18 -39 0 -45 -38 -100 -39 -131 -2
-11 14 -8 16 18 16 46 0 92 43 92 86 0 23 -6 37 -19 44 -27 14 -34 13 -72 -13z
m61 -32 c0 -20 -37 -52 -66 -58 -35 -6 -30 15 12 52 35 31 54 33 54 6z"/>
<path d="M6176 4425 c-3 -13 -22 -51 -41 -84 -19 -33 -35 -64 -35 -70 0 -23
29 -9 67 32 43 47 113 107 125 107 4 0 -9 -33 -28 -73 -34 -72 -37 -107 -8
-107 8 0 14 10 14 24 0 13 15 57 34 96 50 103 30 129 -52 70 -23 -16 -44 -30
-47 -30 -2 0 -2 14 2 30 4 23 2 30 -10 30 -8 0 -18 -11 -21 -25z"/>
<path d="M5383 4419 c-17 -11 -39 -31 -48 -45 -15 -24 -35 -25 -35 -1 0 8 3 8
9 -1 7 -11 10 -10 15 3 7 20 0 35 -17 35 -7 0 -18 -24 -25 -52 -7 -29 -15 -63
-18 -75 -10 -35 17 -29 43 10 31 45 101 112 109 104 4 -4 0 -30 -8 -59 -8 -29
-12 -61 -10 -71 7 -31 27 -12 35 34 19 103 19 121 6 130 -19 12 -19 12 -56
-12z"/>
<path d="M10876 4357 c-14 -46 -26 -89 -26 -95 0 -26 21 -9 44 36 13 26 31 56
40 67 15 20 15 20 16 -2 0 -27 18 -40 26 -19 11 28 -5 66 -26 66 -11 0 -20 7
-20 15 0 8 -6 15 -14 15 -8 0 -24 -33 -40 -83z"/>
<path d="M5598 4419 c-25 -14 -22 -36 7 -71 30 -36 32 -77 5 -106 -27 -29 -57
-17 -51 21 0 4 -6 7 -14 7 -18 0 -20 -43 -2 -58 32 -25 57 -24 87 7 36 36 41
94 11 133 -19 24 -19 24 0 36 24 15 52 15 66 1 18 -18 35 -1 23 22 -9 15 -21
19 -63 19 -29 0 -60 -5 -69 -11z"/>
<path d="M5937 4410 c-26 -21 -67 -95 -67 -122 0 -23 27 -48 51 -48 47 0 109
71 109 125 0 63 -43 84 -93 45z m63 -44 c0 -43 -70 -110 -92 -88 -11 11 11 69
36 95 26 26 56 22 56 -7z"/>
<path d="M5099 4400 c-44 -33 -81 -88 -69 -102 5 -7 19 -25 31 -40 18 -25 27
-28 75 -28 41 0 54 4 54 15 0 11 -12 15 -50 15 -38 0 -52 4 -60 19 -14 27 -13
29 19 36 32 7 71 39 71 60 0 47 -28 57 -71 25z m32 -34 c-6 -8 -22 -16 -34
-19 -22 -6 -22 -6 2 14 27 22 49 26 32 5z"/>
<path d="M9995 4411 c-3 -5 -1 -13 5 -16 7 -4 -1 -20 -20 -41 -47 -54 -38
-114 18 -114 31 0 59 16 72 40 25 47 -48 174 -75 131z m45 -101 c0 -27 -15
-40 -46 -40 -18 0 -18 30 1 57 20 29 45 19 45 -17z"/>
<path d="M3165 4377 c-10 -54 -2 -88 27 -110 18 -13 34 -18 52 -13 52 13 91
83 61 112 -21 21 -37 8 -30 -25 12 -57 -67 -82 -81 -25 -3 13 -3 40 0 59 5 27
4 35 -8 35 -9 0 -18 -13 -21 -33z"/>
<path d="M2981 4363 c-64 -78 -21 -138 71 -99 14 7 13 -6 -9 -110 -20 -95 -22
-119 -11 -125 10 -7 9 -9 -4 -9 -14 0 -18 -9 -18 -40 0 -47 19 -53 44 -15 9
14 41 37 71 52 54 25 70 43 40 43 -22 0 -86 -28 -106 -46 -13 -12 -10 14 17
143 36 168 40 213 23 213 -6 0 -17 7 -25 15 -26 26 -60 18 -93 -22z m90 -3
c15 0 -19 -58 -40 -70 -53 -28 -69 8 -26 54 16 17 32 26 41 22 9 -3 20 -6 25
-6z"/>
<path d="M3415 4392 c-13 -9 -35 -72 -35 -100 0 -13 6 -22 15 -22 8 0 15 9 15
20 0 11 7 37 15 57 15 36 10 59 -10 45z"/>
<path d="M11436 4349 c-49 -43 -56 -67 -30 -94 19 -18 49 -12 80 17 l22 19 6
-43 c4 -24 2 -67 -4 -95 l-11 -52 -48 1 c-57 0 -99 -19 -134 -62 -44 -52 -46
-140 -3 -156 37 -14 160 82 186 145 15 37 15 37 64 10 26 -14 42 -17 49 -10 7
7 -5 19 -36 38 -43 26 -46 30 -40 58 4 17 6 55 6 85 -1 30 -2 75 -2 99 -1 44
-22 81 -46 81 -7 0 -33 -18 -59 -41z m51 -32 c-23 -31 -67 -49 -67 -28 0 14
72 71 82 65 5 -3 -2 -20 -15 -37z m-7 -252 c0 -36 -107 -145 -142 -145 -46 0
-24 90 31 127 30 21 111 33 111 18z"/>
<path d="M5792 4367 c-15 -18 -52 -106 -52 -123 0 -28 26 -13 39 22 11 30 11
38 0 45 -11 7 -10 9 3 9 17 0 38 28 38 49 0 15 -15 14 -28 -2z"/>
<path d="M11240 4370 c-8 -5 -25 -10 -37 -10 -23 0 -53 -47 -53 -82 0 -26 25
-22 38 7 11 23 66 65 86 65 4 0 5 -10 1 -22 -16 -54 -23 -104 -15 -112 15 -16
58 120 47 149 -7 17 -44 20 -67 5z"/>
<path d="M11050 4300 c-23 -45 -26 -70 -7 -70 6 0 21 21 32 47 11 26 22 51 23
55 2 4 -3 8 -12 8 -9 0 -25 -18 -36 -40z"/>
<path d="M7440 4271 c-21 -41 -3 -54 34 -26 16 12 17 17 6 30 -17 20 -27 19
-40 -4z"/>
<path d="M9312 4278 c-17 -17 -15 -58 2 -58 13 0 26 28 26 58 0 15 -12 16 -28
0z"/>
<path d="M1527 4264 c-14 -14 -7 -35 11 -32 9 2 17 10 17 17 0 16 -18 25 -28
15z"/>
<path d="M4066 4262 c-2 -4 0 -18 5 -31 8 -19 12 -21 24 -11 8 7 15 18 15 25
0 14 -37 28 -44 17z"/>
<path d="M7383 3838 c-30 -15 -73 -78 -84 -125 -5 -21 -9 -74 -9 -118 0 -44
-4 -86 -9 -93 -6 -9 -25 -13 -61 -10 -33 2 -54 -1 -57 -8 -5 -14 29 -24 79
-24 l38 0 -20 -50 c-11 -28 -32 -74 -47 -103 -16 -28 -29 -55 -31 -59 -2 -5 3
-8 11 -8 19 0 50 50 88 138 20 49 34 68 50 72 30 7 35 28 8 32 -21 3 -22 7
-20 98 2 113 13 159 47 199 31 38 58 46 95 31 38 -16 51 -4 20 21 -25 21 -64
24 -98 7z"/>
<path d="M7735 3818 c-3 -7 -23 -83 -44 -168 -22 -85 -50 -190 -62 -232 -12
-43 -18 -85 -15 -95 14 -36 21 -16 98 292 22 88 44 168 49 178 10 19 4 37 -12
37 -5 0 -12 -6 -14 -12z"/>
<path d="M14345 3801 c-11 -23 -12 -31 -2 -34 8 -4 7 -6 -3 -6 -14 -1 -153
-273 -166 -328 -10 -36 11 -28 64 27 79 82 105 61 57 -44 -28 -60 -30 -72 -15
-81 10 -6 55 82 71 138 17 60 -23 90 -77 58 -19 -12 -33 -18 -31 -14 2 5 12
26 21 48 29 64 107 219 118 232 10 13 3 33 -12 33 -5 0 -16 -13 -25 -29z"/>
<path d="M13230 3817 c0 -2 -16 -48 -36 -103 -65 -178 -115 -346 -109 -362 10
-26 21 -2 60 121 20 65 54 166 76 224 44 119 45 123 24 123 -8 0 -15 -1 -15
-3z"/>
<path d="M2656 3780 c-27 -33 -38 -66 -66 -199 -10 -46 -24 -87 -31 -92 -8 -5
-40 -9 -71 -9 -45 0 -58 -3 -58 -15 0 -12 14 -15 65 -15 36 0 65 -2 65 -5 0
-16 -32 -121 -50 -162 -14 -33 -29 -53 -43 -57 -21 -5 -21 -6 -4 -23 18 -17
19 -17 42 9 27 31 62 120 77 196 l11 53 43 -7 c35 -5 44 -3 44 9 0 8 -10 17
-22 21 -33 8 -40 7 -33 -4 3 -5 2 -10 -4 -10 -18 0 -17 22 5 130 26 125 45
167 80 180 14 6 22 14 19 20 -12 19 -43 10 -69 -20z"/>
<path d="M5466 3764 c-9 -22 -29 -67 -44 -102 l-27 -63 -57 5 c-31 3 -60 1
-63 -4 -8 -13 28 -30 63 -30 16 0 31 -2 34 -5 3 -3 -1 -31 -8 -63 -21 -91 1
-142 63 -142 45 0 46 28 1 32 -31 3 -33 6 -36 45 -2 23 2 61 8 83 l11 42 56
-7 c44 -5 54 -4 51 7 -3 7 -23 17 -46 22 -23 5 -42 13 -42 18 0 5 11 30 24 56
36 72 50 122 38 134 -7 7 -16 -1 -26 -28z"/>
<path d="M14210 3773 c-6 -16 -15 -37 -20 -48 -5 -11 -24 -55 -44 -97 -36 -80
-40 -84 -111 -90 -19 -2 -31 -9 -33 -20 -3 -16 2 -17 44 -11 28 3 45 2 43 -3
-42 -102 -61 -166 -51 -176 12 -12 12 -12 60 112 27 69 31 75 61 78 35 4 42
21 11 29 -11 3 -20 6 -20 8 0 1 20 49 45 106 25 57 45 112 45 121 0 28 -19 21
-30 -9z"/>
<path d="M6471 3739 c-32 -30 -24 -65 38 -168 55 -91 62 -126 37 -186 -9 -22
-24 -37 -39 -40 -57 -15 -126 62 -98 107 9 15 9 23 0 34 -22 26 -35 15 -37
-32 -2 -56 19 -99 61 -124 82 -51 157 8 157 123 0 35 -10 61 -50 127 -54 90
-64 126 -39 143 24 15 68 0 79 -28 15 -39 40 -32 40 10 0 28 -4 35 -19 35 -11
0 -23 5 -26 10 -12 19 -80 11 -104 -11z"/>
<path d="M11295 3738 c-3 -13 -15 -49 -27 -80 l-20 -58 -54 0 c-41 0 -54 -4
-54 -15 0 -11 12 -15 49 -15 l50 0 -10 -32 c-24 -80 -39 -172 -30 -181 13 -13
26 16 41 93 6 36 18 80 25 98 12 27 19 32 49 32 19 0 38 5 42 11 10 17 -17 30
-48 23 l-28 -6 19 44 c29 69 36 108 17 108 -8 0 -17 -10 -21 -22z"/>
<path d="M13033 3744 c-9 -25 13 -40 26 -16 10 19 6 32 -11 32 -5 0 -11 -7
-15 -16z"/>
<path d="M5005 3668 c-46 -191 -102 -318 -141 -318 -33 0 -8 86 36 123 16 14
19 22 11 30 -8 8 -18 4 -37 -14 -53 -48 -70 -131 -34 -164 19 -17 57 -14 46 4
-3 5 2 8 11 7 24 -2 76 103 113 230 42 143 47 174 27 174 -10 0 -20 -22 -32
-72z"/>
<path d="M6070 3724 c0 -13 46 -24 100 -24 44 0 50 -12 44 -100 -15 -214 -87
-327 -154 -242 -18 22 -21 36 -16 75 3 26 2 47 -2 47 -19 0 -32 -28 -32 -68 0
-37 6 -50 34 -78 91 -91 174 4 195 223 5 54 8 109 7 123 -1 23 2 25 44 25 33
0 45 4 45 15 0 13 -21 15 -132 15 -92 0 -133 -3 -133 -11z"/>
<path d="M9657 3639 c-15 -56 -38 -127 -53 -159 -31 -70 -93 -133 -132 -136
-27 -2 -29 0 -26 33 3 46 66 123 100 123 15 0 24 6 24 15 0 10 -10 15 -29 15
-21 0 -39 -12 -70 -45 -64 -69 -73 -112 -33 -157 23 -27 55 -22 103 15 55 41
106 140 142 274 31 117 32 123 14 123 -9 0 -23 -36 -40 -101z"/>
<path d="M10642 3644 c4 -21 22 -23 26 -1 2 10 -3 17 -13 17 -10 0 -15 -6 -13
-16z"/>
<path d="M3782 3589 c-69 -59 -89 -89 -57 -89 7 0 18 6 22 13 4 8 25 29 45 46
l38 33 -26 -69 c-15 -37 -38 -100 -52 -140 l-27 -72 -80 -3 c-118 -4 -100 -23
25 -26 111 -2 200 13 208 37 3 10 -5 12 -39 6 -24 -3 -52 -9 -61 -11 -14 -4
-16 -1 -9 23 14 50 83 227 102 265 23 46 23 48 1 48 -10 0 -50 -27 -90 -61z"/>
<path d="M12747 3624 c-56 -38 -121 -134 -172 -255 -49 -119 -52 -129 -31
-129 8 0 29 37 51 89 22 53 42 88 49 85 34 -13 177 122 192 182 15 58 -26 71
-89 28z m63 -10 c0 -41 -136 -181 -157 -161 -3 3 10 27 28 54 18 26 32 57 31
68 -1 13 2 15 7 7 5 -9 16 -5 41 13 33 24 50 31 50 19z"/>
<path d="M8103 3595 c-80 -35 -94 -89 -38 -150 19 -21 32 -42 29 -47 -7 -12
-58 -10 -71 3 -14 14 -25 -3 -17 -24 17 -44 123 -19 124 30 0 6 -16 30 -35 53
-19 23 -35 48 -35 54 0 20 31 43 78 58 44 14 57 38 20 38 -13 -1 -37 -7 -55
-15z"/>
<path d="M13638 3605 c-3 -3 -18 -8 -34 -11 -36 -6 -74 -30 -74 -47 0 -6 9
-27 20 -45 23 -37 26 -72 8 -90 -17 -17 -49 -15 -64 6 -12 16 -13 16 -19 -1
-18 -44 66 -66 105 -27 25 25 26 81 3 121 -21 36 -11 48 46 56 45 6 62 20 40
34 -16 10 -24 11 -31 4z"/>
<path d="M7500 3576 c0 -10 9 -16 21 -16 24 0 21 23 -4 28 -10 2 -17 -3 -17
-12z"/>
<path d="M9035 3580 c-3 -5 -4 -14 0 -20 3 -5 -1 -25 -9 -44 -8 -19 -12 -37
-10 -40 2 -3 1 -4 -3 -1 -4 3 -21 -18 -39 -47 -43 -69 -28 -90 23 -33 73 81
136 145 140 141 2 -2 -7 -31 -21 -65 -30 -70 -33 -99 -10 -108 21 -8 44 15 26
26 -11 6 -8 21 13 71 14 34 25 72 23 84 -5 32 -39 31 -76 -4 -27 -24 -32 -26
-27 -10 12 37 -13 78 -30 50z"/>
<path d="M11875 3576 c-32 -14 -80 -64 -97 -101 -13 -30 6 -73 39 -86 32 -12
84 -1 91 20 4 11 -3 13 -32 8 -29 -5 -41 -2 -57 14 -20 20 -20 20 0 52 29 47
68 74 83 59 16 -16 25 -15 32 4 6 16 -9 44 -23 44 -3 -1 -20 -7 -36 -14z"/>
<path d="M12300 3567 c0 -20 -30 -78 -57 -110 -25 -31 -30 -57 -10 -57 6 0 47
30 90 66 79 68 104 76 74 25 -16 -28 -23 -61 -12 -61 10 0 81 48 94 64 21 26
26 19 22 -30 -2 -34 0 -45 9 -42 7 2 15 15 17 29 2 13 10 42 19 63 19 49 7 66
-30 42 -15 -9 -38 -24 -53 -33 -26 -17 -27 -17 -20 0 9 24 -2 47 -23 47 -9 0
-37 -16 -61 -34 -40 -32 -69 -42 -41 -14 17 17 15 58 -3 58 -8 0 -15 -6 -15
-13z"/>
<path d="M12907 3522 c-30 -63 -33 -82 -14 -82 12 0 67 105 67 128 0 30 -28 6
-53 -46z"/>
<path d="M13271 3542 c-66 -63 -69 -131 -6 -152 41 -14 108 -5 126 16 18 22 6
27 -38 15 -38 -10 -90 -4 -95 12 -2 5 15 15 37 22 46 16 95 69 95 102 0 20 -5
23 -40 23 -32 0 -47 -7 -79 -38z m77 -11 c-12 -20 -59 -51 -78 -51 -16 0 14
41 42 57 36 19 51 17 36 -6z"/>
<path d="M7842 3550 c-63 -39 -90 -119 -56 -168 12 -17 25 -22 59 -22 56 0 95
15 95 36 0 11 -5 14 -17 9 -37 -15 -93 -17 -108 -5 -20 17 -2 50 23 43 25 -6
82 51 82 82 0 14 -9 29 -19 35 -25 13 -20 13 -59 -10z m48 -28 c0 -11 -28 -36
-57 -51 -31 -16 -30 3 2 34 23 24 55 34 55 17z"/>
<path d="M9787 3533 c-52 -39 -69 -69 -69 -115 1 -51 9 -59 66 -65 52 -6 102
10 117 39 19 35 -7 46 -35 15 -38 -41 -116 -36 -116 8 0 22 24 41 44 36 39 -9
96 58 82 95 -9 22 -49 16 -89 -13z m43 -32 c-6 -12 -20 -21 -33 -21 -21 1 -20
2 8 25 33 27 42 26 25 -4z"/>
<path d="M14483 3531 c-55 -40 -73 -68 -73 -113 0 -67 38 -87 133 -72 28 5 37
11 37 26 0 16 -5 19 -22 14 -84 -24 -118 -16 -118 30 0 21 5 24 39 24 65 0
137 62 115 98 -19 29 -65 26 -111 -7z m59 -31 c-27 -25 -82 -42 -82 -25 0 11
76 55 95 55 17 -1 16 -4 -13 -30z"/>
<path d="M9287 3518 c-31 -41 -57 -93 -57 -112 0 -22 29 -46 56 -46 57 0 101
61 84 118 -22 79 -46 90 -83 40z m53 -62 c0 -34 -25 -66 -52 -66 -31 0 -20 56
20 103 19 21 32 7 32 -37z"/>
<path d="M12053 3515 c-50 -42 -69 -84 -54 -114 35 -65 156 -3 153 79 -1 39
-19 70 -41 70 -9 0 -36 -16 -58 -35z m67 -31 c0 -37 -16 -61 -49 -72 -58 -20
-60 27 -3 75 35 30 52 29 52 -3z"/>
<path d="M10971 3514 c-27 -34 -26 -36 5 -73 27 -33 26 -57 -2 -68 -11 -4 -23
2 -33 16 -17 22 -31 19 -31 -7 0 -40 68 -54 100 -22 26 26 25 54 -1 91 -25 36
-19 59 16 59 16 0 25 6 25 15 0 26 -56 18 -79 -11z"/>
<path d="M10725 3480 c-18 -35 -20 -101 -3 -118 22 -22 59 -13 94 22 28 28 34
42 34 76 0 34 -3 41 -17 38 -13 -2 -17 -11 -15 -34 3 -33 -35 -84 -63 -84 -20
0 -20 58 1 88 15 22 12 42 -6 42 -5 0 -16 -13 -25 -30z"/>
<path d="M2887 3470 c-26 -31 -53 -97 -43 -107 11 -12 34 7 40 34 13 49 35 75
60 69 28 -7 40 3 25 21 -19 22 -56 15 -82 -17z"/>
<path d="M5115 3490 c-28 -11 -62 -49 -75 -84 -9 -24 -7 -32 7 -48 39 -44 143
5 143 66 0 23 -35 77 -48 75 -4 0 -16 -4 -27 -9z m40 -50 c9 -29 -11 -57 -46
-65 -38 -9 -43 -4 -34 33 9 45 68 68 80 32z"/>
<path d="M2705 3459 c-28 -54 -46 -112 -39 -131 8 -26 51 -23 78 7 30 32 37
70 23 115 -16 46 -41 50 -62 9z m19 -100 c-36 -40 -37 -22 -2 59 l12 27 4 -33
c2 -22 -3 -41 -14 -53z"/>
<path d="M7450 3451 c-5 -11 -10 -27 -10 -37 0 -9 -8 -23 -17 -30 -17 -12 -17
-14 4 -35 27 -28 33 -23 40 33 3 24 10 48 15 55 10 13 3 33 -12 33 -5 0 -14
-9 -20 -19z"/>
<path d="M10583 3450 c8 -30 -19 -133 -52 -199 -32 -62 -69 -94 -104 -89 -20
3 -22 8 -20 61 2 73 -21 80 -35 10 -11 -51 -3 -87 23 -97 59 -22 121 16 165
105 34 67 64 181 55 210 -9 26 -39 25 -32 -1z"/>
<path d="M8311 3326 c-12 -18 -41 -52 -66 -75 -46 -42 -56 -61 -32 -61 27 0
154 149 140 164 -12 12 -22 6 -42 -28z"/>
<path d="M3006 3329 c-3 -8 -22 -65 -41 -126 l-36 -112 -50 -7 c-58 -8 -62
-29 -5 -29 28 0 36 -4 33 -15 -33 -107 -41 -150 -30 -161 10 -10 13 -9 16 2 2
8 15 50 29 94 26 85 21 81 111 100 15 3 27 12 27 20 0 17 0 17 -56 6 l-41 -8
25 76 c45 142 47 150 34 163 -9 9 -13 8 -16 -3z"/>
<path d="M3990 3311 c0 -12 6 -21 16 -21 9 0 14 7 12 17 -5 25 -28 28 -28 4z"/>
<path d="M3722 3198 c-7 -7 -12 -18 -12 -25 0 -7 -10 -33 -22 -58 -16 -32 -28
-45 -43 -45 -14 0 -21 -7 -22 -20 -1 -11 4 -20 11 -20 9 0 13 -16 12 -56 0
-50 3 -59 27 -80 28 -24 71 -31 96 -15 17 11 5 32 -14 24 -27 -10 -65 7 -75
33 -13 34 4 101 28 108 9 2 36 8 60 11 28 5 42 12 42 22 0 12 -9 14 -50 8 -27
-4 -50 -5 -50 -3 0 1 9 27 21 57 20 53 15 83 -9 59z"/>
<path d="M2213 3099 c-35 -22 -73 -91 -73 -132 0 -37 47 -87 85 -90 26 -2 30
1 30 23 0 22 -4 25 -35 25 -28 0 -36 5 -44 26 -18 53 62 159 99 129 20 -16 33
-4 19 18 -16 25 -44 25 -81 1z"/>
<path d="M3137 3061 c-53 -57 -68 -107 -43 -145 8 -14 24 -27 35 -31 25 -7
104 13 96 25 -3 4 1 10 7 13 7 2 11 7 8 10 -3 3 -25 0 -48 -8 -45 -16 -67 -12
-76 12 -11 29 4 50 48 67 61 23 82 49 68 81 -17 37 -44 31 -95 -24z m62 -3
c-8 -5 -23 -14 -34 -20 -17 -9 -16 -7 4 15 13 15 28 24 34 20 5 -3 3 -9 -4
-15z"/>
<path d="M3402 3055 c-33 -28 -52 -34 -32 -10 15 18 7 30 -14 22 -14 -6 -66
-109 -66 -133 0 -25 16 -15 78 48 34 34 64 59 67 56 2 -2 0 -20 -5 -39 -15
-51 -13 -109 4 -109 9 0 15 13 16 35 3 72 5 83 13 78 5 -3 7 12 5 33 -4 48
-24 54 -66 19z"/>
<path d="M2671 3045 c-24 -21 -31 -23 -31 -11 0 36 -21 12 -55 -61 -43 -94
-39 -128 8 -68 56 70 119 132 113 110 -24 -86 -23 -147 2 -132 10 7 23 78 26
142 1 50 -19 56 -63 20z"/>
<path d="M2396 3010 c-38 -42 -48 -94 -24 -118 22 -22 75 -14 110 16 41 38 43
85 4 119 -37 31 -48 29 -90 -17z m82 -37 c4 -35 -26 -63 -65 -63 -41 0 -24 72
20 90 32 13 42 7 45 -27z"/>
<path d="M13242 2580 c-76 -34 -198 -173 -260 -297 -68 -133 -81 -317 -29
-406 44 -75 213 -195 238 -170 7 7 -9 21 -47 42 -75 43 -152 116 -175 166 -45
98 -7 288 85 429 79 122 180 216 232 216 28 0 36 10 23 27 -14 17 -15 16 -67
-7z"/>
<path d="M5186 2571 c-10 -11 -15 -25 -11 -31 6 -10 -85 -202 -109 -227 -6 -7
-40 -16 -75 -20 -41 -5 -66 -13 -69 -22 -4 -12 8 -13 65 -8 l69 5 -17 -66
c-25 -95 -24 -128 6 -157 27 -27 91 -35 113 -13 22 22 13 28 -31 22 -33 -5
-47 -2 -60 11 -20 19 -20 33 -6 95 27 123 25 119 74 122 54 4 60 22 10 26 -19
2 -35 5 -35 8 0 2 27 58 60 124 33 66 60 127 60 135 0 21 -24 19 -44 -4z"/>
<path d="M4667 2493 c-4 -3 -7 -25 -7 -48 0 -63 -28 -213 -49 -259 -34 -78
-108 -173 -137 -178 -27 -4 -22 44 11 93 23 36 55 52 55 29 0 -5 7 -10 15 -10
22 0 18 38 -5 50 -31 17 -52 5 -88 -48 -59 -87 -53 -161 12 -148 59 12 152
146 185 266 22 82 44 237 35 251 -6 11 -18 12 -27 2z"/>
<path d="M2582 2460 c-37 -35 -53 -77 -64 -173 -6 -51 -16 -95 -22 -99 -6 -4
-30 -8 -54 -8 -31 0 -42 -4 -39 -12 2 -8 23 -13 54 -13 l50 1 -9 -40 c-5 -22
-23 -73 -40 -114 -22 -54 -28 -76 -19 -85 6 -6 12 -9 14 -6 14 18 60 140 74
193 l16 65 46 3 c57 4 52 23 -7 23 l-42 0 6 65 c8 91 21 135 48 166 21 25 25
26 56 16 43 -15 60 -15 60 1 0 14 -54 37 -86 37 -11 0 -30 -9 -42 -20z"/>
<path d="M15835 2470 c-3 -5 18 -34 48 -63 90 -87 137 -206 137 -342 0 -135
-31 -208 -131 -306 -54 -53 -65 -69 -52 -74 12 -4 37 15 89 69 91 94 115 151
122 288 7 149 -36 272 -131 376 -47 50 -73 67 -82 52z"/>
<path d="M13738 2400 c-48 -26 -57 -58 -29 -102 11 -18 33 -44 47 -58 38 -35
68 -105 55 -128 -18 -34 -61 -55 -98 -49 -45 8 -67 25 -53 42 16 20 -9 31 -27
12 -36 -35 24 -87 100 -87 42 0 117 60 117 93 -1 36 -34 98 -84 156 -26 29
-45 59 -43 65 2 6 18 19 35 29 31 19 32 19 55 -7 41 -44 68 -23 30 22 -26 31
-62 35 -105 12z"/>
<path d="M8202 2298 c-31 -149 -105 -288 -145 -273 -38 15 -2 110 50 134 29
13 30 31 2 31 -28 0 -86 -62 -97 -103 -11 -41 -1 -68 31 -87 24 -13 28 -13 54
6 61 45 125 195 148 347 6 38 4 47 -7 47 -10 0 -21 -30 -36 -102z"/>
<path d="M14277 2383 c-3 -4 -5 -39 -6 -77 -1 -76 -27 -214 -43 -234 -15 -17
7 -41 23 -25 15 15 38 108 45 186 4 37 10 67 14 67 3 0 28 -47 54 -104 59
-128 96 -176 135 -176 61 0 72 43 59 235 -7 110 -14 135 -33 135 -22 0 -24
-12 -9 -80 7 -36 14 -107 14 -158 0 -75 -3 -94 -16 -99 -28 -10 -66 41 -139
189 -65 131 -86 161 -98 141z"/>
<path d="M3662 2357 c-60 -32 -112 -75 -112 -92 0 -20 24 -19 41 2 21 25 100
73 121 73 25 0 23 -14 -14 -78 -33 -58 -135 -165 -179 -187 -33 -18 -101 -93
-96 -108 8 -24 26 -16 83 37 l59 54 6 -45 c6 -49 27 -73 65 -73 24 0 50 25 35
34 -5 3 -16 3 -25 0 -29 -11 -49 16 -42 57 3 22 2 40 -4 44 -6 4 14 33 45 68
62 69 115 153 115 185 0 23 -25 52 -43 52 -7 0 -32 -10 -55 -23z"/>
<path d="M13608 2375 c-3 -3 -49 -6 -104 -8 -80 -2 -99 -5 -99 -17 0 -11 13
-16 49 -18 28 -1 51 -4 52 -5 7 -6 24 -136 24 -177 0 -85 -65 -146 -110 -105
-11 10 -20 26 -20 37 0 11 -7 18 -20 18 -24 0 -26 -17 -4 -50 41 -62 89 -67
139 -17 45 45 50 71 39 199 l-9 108 32 0 c41 0 86 17 78 30 -6 10 -38 14 -47
5z"/>
<path d="M5960 2356 c0 -9 7 -16 16 -16 9 0 14 5 12 12 -6 18 -28 21 -28 4z"/>
<path d="M10580 2320 c0 -35 14 -39 30 -10 12 23 6 40 -16 40 -9 0 -14 -11
-14 -30z"/>
<path d="M13947 2316 c-39 -39 -57 -87 -57 -153 0 -111 142 -153 228 -67 33
33 35 37 29 93 -9 100 -43 144 -123 157 -38 6 -44 3 -77 -30z m106 -11 c49
-10 85 -123 56 -177 -6 -11 -26 -26 -44 -34 -106 -44 -168 19 -135 138 11 38
62 90 83 83 6 -2 25 -6 40 -10z"/>
<path d="M12452 2284 c-26 -18 -30 -74 -7 -114 21 -37 18 -56 -14 -92 -29 -32
-31 -32 -48 -15 -15 14 -16 21 -5 37 15 25 15 30 -1 30 -8 0 -22 -9 -32 -20
-15 -17 -16 -24 -7 -45 27 -59 92 -54 132 11 23 37 25 69 5 104 -34 60 -8 102
49 80 36 -13 46 -13 46 3 0 16 -42 37 -73 37 -13 0 -33 -7 -45 -16z"/>
<path d="M12657 2230 c-56 -36 -71 -67 -57 -119 12 -45 40 -74 72 -73 25 0 98
39 98 52 0 20 -22 20 -49 1 -36 -26 -67 -27 -81 -2 -16 31 -12 41 18 41 50 0
113 58 109 100 -3 38 -50 38 -110 0z m73 -19 c-13 -26 -50 -51 -73 -51 -26 0
-16 21 23 48 42 28 65 30 50 3z"/>
<path d="M9810 2243 c-27 -10 -70 -56 -70 -75 0 -10 9 -37 21 -59 26 -52 22
-93 -9 -97 -18 -3 -26 3 -35 27 -13 34 -24 39 -34 15 -15 -40 56 -96 97 -74
36 19 40 81 9 141 -19 38 -19 42 -4 65 9 14 29 27 46 31 16 3 28 11 26 17 -4
13 -26 17 -47 9z"/>
<path d="M12271 2236 c-31 -11 -36 -18 -53 -81 -18 -66 -18 -102 1 -90 5 3 15
22 21 43 7 20 19 52 28 70 13 29 19 33 43 28 34 -7 45 7 23 28 -18 18 -18 18
-63 2z"/>
<path d="M14915 2224 c-14 -15 -25 -33 -25 -40 0 -7 -6 -17 -14 -21 -7 -4 -16
-28 -19 -53 -3 -25 -13 -92 -22 -149 -17 -109 -17 -143 0 -141 12 2 44 139 44
191 1 36 2 36 40 35 52 -1 89 21 112 66 26 50 24 84 -6 113 -33 34 -78 33
-110 -1z m95 -25 c14 -26 7 -57 -21 -92 -16 -21 -29 -27 -59 -27 -38 0 -38 0
-30 33 18 74 41 107 76 107 13 0 28 -9 34 -21z"/>
<path d="M10741 2222 c-54 -27 -59 -42 -32 -108 18 -41 21 -61 14 -73 -14 -22
-41 -26 -69 -10 -31 16 -42 4 -19 -21 26 -29 89 -27 109 2 21 30 20 60 -5 114
-20 44 -20 46 -2 60 10 7 32 14 50 14 39 0 51 15 24 29 -26 14 -30 14 -70 -7z"/>
<path d="M15527 2216 c-28 -26 -35 -46 -15 -46 6 0 9 -3 6 -6 -4 -3 0 -21 8
-40 17 -40 14 -42 -54 -46 -66 -5 -55 -23 16 -26 59 -3 63 -2 72 23 7 19 6 36
-5 62 -19 45 -19 59 0 43 12 -10 16 -9 21 3 8 21 2 49 -12 54 -6 2 -23 -8 -37
-21z"/>
<path d="M9094 2173 c-80 -127 -110 -163 -146 -175 -7 -3 -9 -12 -5 -22 6 -15
10 -15 43 8 20 13 43 34 51 46 15 21 15 21 31 -12 22 -44 54 -48 88 -11 26 27
27 27 21 5 -11 -45 16 -69 42 -39 8 10 7 17 -1 25 -8 8 -4 30 16 82 31 84 30
80 8 80 -10 0 -26 -18 -40 -44 -13 -24 -39 -59 -58 -77 -29 -28 -36 -31 -44
-19 -13 20 -4 63 28 130 30 63 31 72 15 77 -7 3 -29 -22 -49 -54z"/>
<path d="M10573 2217 c-5 -6 -11 -32 -12 -57 -3 -68 -19 -117 -63 -202 -62
-120 -143 -191 -162 -142 -3 9 -6 34 -6 56 0 57 -24 44 -28 -15 -3 -39 1 -51
22 -72 22 -22 28 -23 55 -14 60 21 157 163 194 284 30 98 30 202 0 162z"/>
<path d="M15135 2199 c-29 -26 -35 -38 -33 -62 4 -43 31 -56 68 -35 29 17 30
16 30 -3 0 -24 17 -59 29 -59 11 0 11 109 0 116 -5 3 -9 13 -9 23 0 17 -29 51
-43 51 -3 0 -22 -14 -42 -31z m55 -28 c0 -18 -34 -51 -52 -51 -13 0 -9 24 8
48 19 27 44 29 44 3z"/>
<path d="M15653 2219 c-34 -10 -47 -41 -45 -107 3 -72 33 -87 102 -52 66 34
47 54 -23 25 -37 -15 -47 -12 -47 16 0 12 10 21 28 25 35 8 72 42 72 66 0 14
-41 43 -53 37 -1 0 -16 -5 -34 -10z m57 -34 c0 -8 -57 -34 -63 -29 -13 14 7
34 34 34 16 0 29 -2 29 -5z"/>
<path d="M2873 2207 c-4 -7 -21 -21 -36 -31 -29 -18 -59 -74 -72 -134 -5 -25
-3 -33 10 -38 22 -9 35 12 35 58 0 50 43 99 87 102 44 2 52 14 23 36 -30 23
-36 24 -47 7z"/>
<path d="M6580 2199 c-19 -11 -50 -35 -67 -52 l-33 -31 10 35 c14 46 13 59 -4
59 -8 0 -17 -14 -21 -32 -4 -18 -20 -57 -36 -87 -44 -83 -23 -89 54 -15 65 64
115 104 127 104 4 0 -3 -28 -17 -61 -22 -54 -23 -63 -10 -76 12 -13 21 -13 50
-4 35 12 65 37 55 46 -3 3 -19 0 -37 -6 -18 -6 -34 -9 -37 -6 -3 3 4 28 16 55
36 83 16 111 -50 71z"/>
<path d="M9563 2199 c-76 -48 -80 -162 -6 -190 30 -11 83 0 83 17 0 20 -31 34
-51 21 -23 -14 -49 -2 -49 23 0 14 10 24 30 32 33 11 60 52 60 93 0 31 -22 33
-67 4z m25 -41 c-9 -13 -24 -24 -34 -26 -15 -2 -13 2 9 23 35 31 44 32 25 3z"/>
<path d="M11790 2205 c-14 -8 -33 -14 -42 -15 -10 0 -18 -7 -18 -15 0 -8 -13
-35 -30 -61 -36 -58 -84 -180 -75 -194 3 -5 2 -10 -3 -10 -11 0 -36 -90 -27
-98 15 -15 43 22 78 104 38 88 39 90 70 86 60 -7 134 63 144 135 4 33 1 45
-16 62 -24 24 -46 26 -81 6z m60 -30 c15 -18 5 -66 -20 -98 -22 -28 -73 -52
-94 -44 -26 10 13 107 54 135 39 26 44 27 60 7z"/>
<path d="M12008 2205 c-31 -17 -68 -73 -68 -103 0 -12 11 -29 24 -37 22 -14
28 -14 59 -1 35 14 36 14 39 -11 5 -41 28 -41 28 0 0 19 7 54 15 77 20 57 19
63 -12 78 -34 15 -51 15 -85 -3z m70 -48 c-19 -52 -108 -94 -108 -51 0 27 63
82 92 81 23 -2 24 -4 16 -30z"/>
<path d="M10891 2169 c-44 -44 -57 -75 -46 -108 8 -26 48 -37 80 -23 47 21 75
121 45 157 -19 23 -34 18 -79 -26z m59 -24 c0 -52 -40 -98 -70 -80 -18 11 -11
33 21 70 37 41 49 44 49 10z"/>
<path d="M15332 2176 c-46 -52 -55 -126 -16 -126 20 0 39 51 22 61 -20 12 23
63 56 67 33 4 29 26 -6 30 -18 2 -33 -6 -56 -32z"/>
<path d="M6103 2180 c-18 -11 -33 -23 -33 -26 0 -3 8 -28 17 -54 14 -40 15
-51 4 -64 -18 -21 -41 -20 -43 2 0 9 -2 23 -2 29 -1 7 -5 13 -9 13 -38 0 -39
0 -32 -32 10 -44 22 -58 54 -58 58 0 85 45 63 108 -14 43 -14 46 4 59 11 8 29
11 42 8 19 -5 23 -2 20 12 -5 26 -47 27 -85 3z"/>
<path d="M7530 2100 c-28 -56 -48 -105 -45 -110 10 -17 25 -11 34 14 5 13 34
50 65 83 31 33 53 63 49 67 -3 3 3 6 15 6 l20 0 -19 -55 c-26 -74 -26 -125 0
-125 17 0 19 5 15 33 -4 21 4 56 20 100 31 82 32 87 5 87 -23 0 -79 -30 -79
-42 0 -4 -4 -8 -9 -8 -4 0 -6 11 -3 25 10 54 -20 21 -68 -75z"/>
<path d="M8302 2180 c-39 -24 -72 -75 -72 -113 0 -42 52 -91 88 -82 34 8 122
52 142 72 13 13 13 16 -4 29 -26 19 -36 18 -36 -4 0 -12 -16 -26 -44 -40 -54
-27 -92 -28 -106 -3 -16 31 -12 51 10 51 51 0 112 54 103 91 -7 25 -39 25 -81
-1z m43 -30 c-8 -13 -56 -33 -63 -26 -2 3 11 14 29 25 34 21 46 21 34 1z"/>
<path d="M7853 2170 c-44 -26 -67 -73 -60 -123 6 -47 17 -59 52 -59 46 0 105
74 105 132 0 20 -41 70 -57 70 -4 0 -22 -9 -40 -20z m63 -43 c12 -11 -18 -77
-43 -97 -47 -37 -72 19 -36 81 13 22 23 28 45 25 15 -1 31 -5 34 -9z"/>
<path d="M9376 2168 c-20 -28 -20 -46 -1 -91 19 -45 4 -87 -31 -87 -25 0 -35
18 -27 49 4 15 1 21 -11 21 -24 0 -31 -46 -12 -75 23 -35 77 -35 105 1 25 32
26 51 5 104 -16 40 -16 42 5 64 26 28 27 36 2 36 -11 0 -27 -10 -35 -22z"/>
<path d="M11076 2172 c-4 -10 -22 -45 -41 -77 -19 -31 -35 -61 -35 -66 0 -18
26 -8 70 26 25 19 57 44 72 55 l27 21 -14 -35 c-20 -47 -19 -79 3 -99 26 -24
62 -21 106 9 48 33 35 55 -15 25 -74 -45 -94 -18 -55 75 14 35 26 67 26 69 0
3 -11 5 -24 5 -13 0 -43 -18 -70 -41 -48 -42 -56 -42 -31 1 8 14 14 31 15 38
0 19 -28 14 -34 -6z"/>
<path d="M6280 2173 c-43 -17 -80 -107 -58 -143 7 -11 21 -23 30 -26 36 -11
111 48 123 96 12 50 -43 93 -95 73z m58 -40 c19 -37 -33 -99 -75 -91 -33 6 -3
91 35 101 29 8 31 7 40 -10z"/>
<path d="M2671 2148 c-12 -12 -27 -40 -33 -61 -16 -54 5 -93 48 -90 74 6 89
111 22 161 -14 11 -20 9 -37 -10z m49 -68 c0 -34 -31 -65 -48 -48 -16 16 -15
33 4 69 12 25 18 28 30 18 8 -6 14 -24 14 -39z"/>
<path d="M4714 2115 c-48 -51 -58 -126 -19 -141 67 -26 135 89 89 154 -21 30
-31 28 -70 -13z m56 -39 c0 -28 -36 -76 -56 -76 -19 0 -18 24 2 63 27 52 54
58 54 13z"/>
<path d="M5925 2120 c-4 -6 -9 -37 -11 -68 -2 -31 -11 -78 -19 -103 -16 -46
-78 -129 -97 -129 -5 0 -21 9 -35 20 -14 11 -20 20 -12 20 9 0 10 3 2 11 -6 6
-16 8 -22 5 -16 -10 -13 -36 4 -42 8 -4 15 -12 15 -20 0 -19 46 -29 75 -16 28
13 75 80 99 142 21 54 33 174 18 184 -6 3 -14 1 -17 -4z"/>
<path d="M6950 2016 c-6 -19 -24 -62 -41 -96 -33 -68 -35 -80 -15 -80 15 0
100 185 91 200 -11 19 -23 10 -35 -24z"/>
<path d="M14664 2026 c-8 -22 3 -49 19 -43 6 2 12 14 12 27 0 27 -22 39 -31
16z"/>
<path d="M3811 2006 c-12 -14 -5 -26 16 -26 15 0 18 26 4 34 -5 3 -14 0 -20
-8z"/>
<path d="M8299 1662 c-64 -41 -128 -146 -184 -304 l-27 -76 -69 -7 c-52 -5
-69 -11 -69 -22 0 -13 10 -15 65 -9 36 4 65 5 65 4 -1 -23 -46 -142 -73 -193
-36 -67 -40 -98 -10 -74 22 19 63 104 93 194 27 79 27 80 65 85 51 7 59 30 11
30 -20 0 -36 4 -36 10 0 13 42 125 74 193 30 65 113 157 142 157 28 0 36 10
23 27 -15 18 -19 17 -70 -15z"/>
<path d="M5312 1658 c-43 -21 -85 -123 -107 -255 -6 -36 -11 -43 -29 -43 -53
0 -136 -23 -136 -38 0 -11 8 -13 38 -8 20 3 54 9 75 12 l37 7 -15 -43 c-8 -23
-33 -75 -55 -115 -43 -77 -48 -95 -27 -95 11 0 104 171 120 222 4 10 19 18 39
20 40 4 44 22 5 26 -28 3 -28 5 -22 45 14 82 44 181 62 206 23 30 43 38 43 17
0 -20 19 -21 26 -2 6 15 -12 56 -24 55 -4 0 -17 -5 -30 -11z"/>
<path d="M2395 1567 c-51 -28 -85 -92 -86 -162 -2 -99 -1 -98 -121 -119 -29
-5 -38 -12 -38 -26 0 -22 4 -24 28 -11 9 5 39 12 66 16 l49 7 -8 -48 c-9 -65
-50 -182 -71 -205 -20 -22 -11 -38 14 -23 27 16 63 102 82 194 l17 85 38 5
c54 7 58 30 6 30 l-41 0 6 63 c3 34 10 76 16 94 12 40 61 83 95 83 18 0 24 5
21 17 -5 26 -28 26 -73 0z"/>
<path d="M7325 1568 c-2 -7 -23 -82 -46 -166 -39 -145 -42 -152 -59 -137 -14
13 -23 14 -38 6 -64 -34 -105 -181 -50 -181 10 0 39 20 63 45 49 51 70 100
117 271 19 70 35 111 42 108 7 -3 13 7 14 20 2 29 -35 58 -43 34z m-116 -337
c17 -11 4 -35 -40 -76 l-32 -30 6 33 c6 30 35 81 47 82 3 0 11 -4 19 -9z"/>
<path d="M8574 1556 c-3 -8 -3 -20 1 -26 3 -5 2 -10 -2 -10 -5 0 -15 -17 -22
-37 -7 -21 -35 -88 -62 -148 -54 -126 -75 -194 -66 -219 9 -23 27 -11 27 19 0
13 19 68 41 122 56 133 107 264 111 287 4 23 -20 34 -28 12z"/>
<path d="M14388 1503 c-9 -27 -37 -95 -62 -153 -65 -146 -91 -233 -76 -259 17
-33 30 -25 30 18 0 46 34 146 96 282 51 112 64 159 42 159 -8 0 -21 -20 -30
-47z"/>
<path d="M14221 1508 c-5 -13 -7 -36 -4 -50 5 -24 -14 -113 -36 -171 -10 -27
-11 -27 -36 -11 -21 13 -30 14 -53 5 -34 -14 -82 -85 -82 -122 0 -28 31 -59
59 -59 72 0 181 221 181 368 0 56 -15 76 -29 40z m-72 -272 c10 -12 4 -23 -32
-60 -30 -32 -49 -45 -61 -40 -23 9 -20 33 9 77 27 39 62 49 84 23z"/>
<path d="M3528 1503 c-78 -3 -98 -7 -98 -18 0 -12 14 -15 57 -15 l58 0 -50
-46 c-46 -42 -49 -47 -32 -59 9 -7 35 -15 57 -19 73 -12 77 -72 9 -150 -39
-44 -87 -68 -136 -68 -28 0 -71 36 -69 59 2 26 -19 25 -34 -1 -11 -21 -11 -29
2 -48 28 -43 62 -53 125 -40 71 15 125 50 159 104 54 85 35 159 -44 174 l-36
7 41 37 c23 20 58 40 79 45 40 10 64 47 27 43 -10 -1 -62 -4 -115 -5z"/>
<path d="M10111 1453 c-5 -21 -15 -59 -22 -86 -10 -43 -14 -47 -39 -45 -42 3
-79 -28 -107 -88 -27 -59 -27 -101 0 -118 24 -15 44 -1 94 70 41 57 97 201
105 268 5 44 -19 43 -31 -1z m-62 -194 c-22 -41 -81 -119 -90 -119 -26 0 9 98
47 131 41 35 65 28 43 -12z"/>
<path d="M8341 1401 c-8 -5 -11 -16 -8 -25 8 -20 37 -21 37 -1 0 8 0 18 1 22
1 12 -15 14 -30 4z"/>
<path d="M9465 1307 c-16 -34 -40 -77 -53 -95 -29 -43 -23 -75 9 -47 11 10 28
33 39 50 16 26 117 105 134 105 3 0 -4 -26 -15 -57 -24 -70 -27 -112 -8 -124
26 -16 45 -5 55 35 6 26 5 28 -15 21 -26 -8 -25 -11 -1 60 25 73 26 105 2 105
-10 0 -26 -6 -37 -13 -71 -48 -74 -50 -68 -28 3 11 11 22 19 25 22 8 17 21 -8
23 -19 1 -29 -11 -53 -60z"/>
<path d="M9776 1324 c-37 -35 -70 -108 -62 -140 9 -35 51 -42 95 -17 48 28 72
76 68 133 -3 43 -5 45 -38 48 -26 2 -41 -4 -63 -24z m50 -38 c23 6 25 4 19
-22 -8 -32 -57 -84 -80 -84 -23 0 -26 17 -10 56 19 47 38 70 43 55 2 -6 14 -8
28 -5z"/>
<path d="M10243 1334 c-18 -9 -33 -23 -33 -30 0 -17 14 -18 40 -2 10 7 22 9
26 5 9 -9 -24 -45 -57 -63 -24 -12 -27 -12 -32 6 -3 13 0 20 9 20 16 0 19 16
5 24 -12 7 -37 -31 -48 -75 -11 -39 0 -84 24 -93 25 -10 135 14 166 36 36 26
21 50 -16 25 -25 -16 -126 -39 -139 -30 -14 8 -9 53 5 47 7 -2 34 9 59 25 49
31 69 71 51 99 -14 23 -24 23 -60 6z"/>
<path d="M8671 1314 c-17 -14 -45 -46 -61 -69 -52 -76 -34 -125 47 -125 47 0
103 25 103 47 0 17 -20 16 -44 -2 -22 -17 -92 -20 -101 -5 -13 21 6 50 32 50
32 0 116 81 111 107 -5 29 -51 28 -87 -3z m37 -26 c-8 -12 -25 -28 -39 -37
-18 -11 -16 -6 10 22 39 42 50 48 29 15z"/>
<path d="M12330 1330 c-8 -5 -24 -7 -35 -4 -18 4 -25 -4 -46 -58 -14 -38 -30
-63 -39 -63 -9 0 -16 -11 -18 -29 -2 -16 1 -26 6 -22 15 9 -17 -113 -44 -167
-19 -37 -23 -52 -14 -61 18 -18 39 18 85 152 2 6 12 12 22 12 67 0 203 126
203 188 0 44 -78 79 -120 52z m80 -35 c27 -32 -35 -115 -115 -151 -27 -13 -50
-22 -52 -20 -6 5 29 110 44 133 30 46 99 67 123 38z"/>
<path d="M14770 1329 c-14 -6 -35 -20 -48 -32 -13 -12 -31 -22 -39 -22 -11 0
-23 -22 -38 -71 -12 -39 -43 -110 -68 -159 -49 -92 -56 -115 -33 -115 16 0 66
76 92 141 18 45 18 46 44 31 33 -19 65 -11 114 29 62 52 92 140 66 190 -12 21
-49 24 -90 8z m64 -63 c-2 -47 -19 -80 -58 -110 -45 -34 -71 -40 -90 -21 -9 9
-16 22 -16 28 0 27 67 113 100 130 50 25 65 19 64 -27z"/>
<path d="M2699 1290 c-45 -47 -83 -116 -75 -136 9 -24 20 -15 44 36 25 54 76
111 95 107 7 -1 12 5 12 13 0 31 -37 22 -76 -20z"/>
<path d="M4492 1305 c-17 -14 -35 -25 -39 -24 -4 2 -11 -8 -15 -22 -4 -13 -14
-48 -23 -77 -15 -50 -14 -72 4 -72 4 0 20 31 36 69 15 39 41 82 57 98 l29 28
19 -25 c17 -23 19 -24 26 -6 19 51 -45 72 -94 31z"/>
<path d="M5505 1308 c-31 -28 -80 -154 -63 -164 13 -9 38 23 38 48 0 31 38 96
60 103 12 4 27 2 35 -5 18 -15 31 6 15 25 -18 22 -55 18 -85 -7z"/>
<path d="M6744 1300 c-42 -25 -52 -27 -50 -14 3 35 -22 23 -37 -18 -10 -24
-30 -63 -47 -88 -28 -42 -40 -100 -21 -100 4 0 25 27 45 59 34 55 118 141 137
141 11 0 12 3 -11 -58 -33 -87 -22 -150 26 -140 26 5 29 28 5 28 -30 0 -27 38
9 129 40 102 31 112 -56 61z"/>
<path d="M6980 1320 c0 -5 -13 -16 -28 -24 -32 -16 -82 -101 -82 -138 0 -51
62 -75 108 -42 48 33 65 112 41 183 -10 28 -39 44 -39 21z m18 -87 c4 -42 -22
-91 -53 -99 -61 -15 -60 43 4 119 22 26 45 17 49 -20z"/>
<path d="M12570 1305 c-13 -14 -29 -25 -36 -25 -19 0 -33 -31 -40 -93 -4 -36
-3 -57 5 -61 6 -4 14 1 17 11 22 71 75 163 94 163 4 0 10 -9 13 -21 7 -26 33
-19 29 7 -9 49 -46 57 -82 19z"/>
<path d="M6085 1302 c-42 -26 -55 -44 -62 -86 -11 -70 57 -101 110 -52 25 23
26 23 32 5 8 -26 37 -40 56 -28 12 8 10 13 -8 26 -18 12 -23 25 -23 62 0 37
-5 53 -23 69 -28 27 -43 27 -82 4z m61 -55 c-12 -59 -77 -101 -93 -61 -8 22
23 79 50 92 35 15 50 4 43 -31z"/>
<path d="M11547 1302 c-24 -27 -21 -48 14 -97 49 -68 23 -113 -35 -60 -15 14
-32 23 -37 20 -18 -12 -8 -34 25 -54 91 -57 140 13 76 108 -22 34 -26 48 -18
58 13 16 40 17 55 2 20 -20 36 1 17 22 -22 24 -76 25 -97 1z"/>
<path d="M15232 1288 c-33 -33 -42 -32 -55 6 -6 19 -27 -6 -27 -32 0 -15 -14
-45 -30 -66 -19 -25 -27 -43 -21 -49 11 -11 40 10 120 86 31 29 51 43 47 32
-23 -57 -25 -86 -4 -107 15 -15 28 -19 51 -14 36 7 41 11 32 25 -3 6 -17 8
-31 5 -34 -9 -41 19 -21 77 9 25 17 52 17 58 0 23 -46 10 -78 -21z"/>
<path d="M4271 1270 c-16 -23 -37 -61 -47 -86 -15 -41 -15 -45 0 -69 38 -58
116 -3 116 81 0 25 -5 54 -11 66 -10 18 -9 19 19 13 18 -4 33 -2 37 5 10 16 2
21 -43 27 -38 5 -42 3 -71 -37z m39 -68 c0 -41 -23 -82 -46 -82 -20 0 -18 44
6 91 24 47 40 43 40 -9z"/>
<path d="M10833 1256 c-18 -29 -57 -73 -87 -97 -30 -24 -55 -52 -56 -62 0 -21
20 -13 63 27 15 14 30 26 32 26 2 0 1 -15 -2 -33 -10 -62 33 -70 93 -15 21 19
22 19 28 -6 3 -15 14 -26 22 -26 12 0 15 6 11 21 -3 12 3 39 14 60 41 81 13
93 -50 22 -22 -26 -41 -51 -41 -57 0 -5 -3 -6 -7 -3 -3 4 -12 2 -20 -5 -7 -6
-16 -9 -18 -6 -7 7 29 108 55 150 19 34 20 58 2 58 -4 0 -22 -25 -39 -54z"/>
<path d="M11124 1291 c-54 -25 -60 -51 -29 -119 25 -54 25 -76 -1 -86 -20 -8
-54 11 -54 29 0 17 -25 20 -35 5 -9 -15 17 -48 48 -61 35 -15 72 0 89 36 10
22 8 33 -10 71 -31 64 -29 82 13 100 20 8 44 13 53 12 10 -2 17 3 17 12 0 22
-44 23 -91 1z"/>
<path d="M13398 1294 c-32 -17 -37 -51 -14 -87 8 -12 16 -33 18 -47 5 -37 -24
-32 -42 7 -19 41 -45 45 -35 6 9 -40 44 -73 76 -73 44 0 51 42 19 105 -11 22
-18 45 -15 52 6 18 34 16 41 -2 4 -8 12 -15 20 -15 22 0 16 37 -8 54 -27 19
-26 19 -60 0z"/>
<path d="M7384 1262 c-97 -87 -85 -148 31 -165 47 -7 110 12 110 33 0 9 -6 13
-15 11 -36 -11 -120 -12 -139 -2 -29 16 -27 41 4 41 14 0 26 -1 28 -2 1 -1 12
4 25 11 21 11 52 69 52 97 0 28 -54 14 -96 -24z m44 -24 c-9 -13 -24 -25 -34
-27 -17 -3 -16 0 5 23 30 32 49 34 29 4z"/>
<path d="M14459 1294 c-1 -2 -2 -7 -3 -11 0 -5 -11 -21 -22 -38 -43 -61 -39
-106 12 -125 29 -12 79 6 107 37 25 28 25 89 1 112 -17 17 -92 36 -95 25z m79
-76 c4 -42 -23 -68 -70 -68 -24 0 -28 4 -28 28 0 29 25 66 50 75 32 12 45 2
48 -35z"/>
<path d="M5312 1274 c-50 -35 -68 -117 -32 -149 55 -50 139 72 100 146 -13 23
-38 24 -68 3z m48 -52 c0 -35 -26 -72 -51 -72 -24 0 -25 31 -2 71 23 38 53 39
53 1z"/>
<path d="M11266 1240 c-50 -53 -55 -72 -29 -110 40 -58 82 -64 151 -24 33 20
41 29 33 37 -9 9 -22 6 -51 -11 -51 -29 -74 -28 -99 4 -27 34 -26 42 2 37 29
-6 91 36 95 65 4 28 -14 52 -38 52 -9 0 -38 -22 -64 -50z m74 13 c0 -13 -44
-53 -59 -53 -10 0 -6 9 14 30 28 29 45 38 45 23z"/>
<path d="M12925 1275 c-61 -32 -80 -79 -50 -122 18 -25 85 -49 110 -39 15 5
15 8 1 21 -8 8 -25 15 -39 15 -31 0 -61 33 -53 58 8 23 63 52 100 52 16 0 26
6 26 15 0 20 -55 20 -95 0z"/>
<path d="M13566 1274 c-21 -21 -20 -50 5 -103 25 -57 12 -75 -31 -43 -35 26
-53 28 -48 5 5 -25 64 -56 93 -49 34 9 40 43 16 96 -30 65 -28 74 14 66 28 -6
35 -4 35 9 0 8 -12 20 -26 25 -34 13 -40 13 -58 -6z"/>
<path d="M14963 1263 c-58 -38 -83 -104 -49 -132 21 -17 118 -35 149 -27 44
11 31 23 -32 29 -32 2 -69 11 -82 18 -23 13 -23 13 18 20 57 10 82 25 94 56
24 64 -26 83 -98 36z m67 -23 c-11 -21 -48 -40 -76 -40 -21 0 -8 18 30 41 42
26 60 25 46 -1z"/>
<path d="M12676 1244 c-41 -42 -56 -80 -45 -112 24 -64 131 -36 165 44 24 56
0 104 -52 104 -25 0 -42 -9 -68 -36z m94 -36 c0 -40 -41 -80 -78 -76 -35 4
-40 35 -11 72 41 52 89 54 89 4z"/>
<path d="M13135 1244 c-56 -61 -44 -113 30 -133 56 -15 85 -14 85 4 0 9 -9 15
-25 15 -14 0 -42 7 -63 16 l-37 16 45 12 c77 19 96 96 26 104 -21 3 -35 -5
-61 -34z m75 -1 c0 -15 -35 -43 -54 -43 -19 1 -19 2 7 25 27 24 47 32 47 18z"/>
<path d="M2484 1256 c-3 -8 -18 -16 -34 -20 -23 -4 -31 -13 -41 -45 -24 -81
42 -121 102 -62 33 33 37 67 14 111 -17 32 -32 38 -41 16z m26 -66 c0 -23 -33
-60 -54 -60 -20 0 -27 26 -16 55 13 33 70 37 70 5z"/>
<path d="M8261 1184 c-12 -15 -21 -40 -21 -55 0 -32 18 -39 26 -11 3 9 12 30
20 45 26 52 10 66 -25 21z"/>
<path d="M9022 1143 c-5 -10 -12 -29 -15 -43 -3 -14 -20 -33 -37 -43 -16 -10
-30 -25 -30 -33 0 -42 85 21 100 74 5 20 10 43 10 50 0 18 -18 15 -28 -5z"/>
<path d="M3656 1141 c-9 -14 5 -42 18 -38 18 6 20 47 2 47 -8 0 -17 -4 -20 -9z"/>
<path d="M13769 1119 c-8 -15 -8 -24 0 -32 15 -15 46 16 38 37 -9 22 -24 20
-38 -5z"/>
<path d="M7572 819 c-68 -50 -87 -96 -86 -209 0 -57 -4 -98 -10 -102 -6 -4
-30 -8 -53 -8 -32 0 -43 -4 -43 -16 0 -12 11 -15 58 -13 l57 2 -2 -46 c-2 -59
-27 -137 -54 -166 -17 -18 -19 -25 -9 -34 27 -27 86 92 97 196 l6 55 48 7 c35
5 49 11 49 22 0 13 -9 15 -54 9 l-54 -6 -7 68 c-8 85 6 140 47 188 39 44 66
60 81 45 13 -13 47 -15 47 -2 0 11 -45 41 -63 41 -7 0 -32 -14 -55 -31z"/>
<path d="M7767 645 c-8 -18 11 -31 25 -17 11 11 3 32 -12 32 -4 0 -10 -7 -13
-15z"/>
<path d="M7202 608 c-7 -7 -12 -26 -12 -43 0 -34 -25 -65 -53 -65 -8 0 -26 15
-38 33 -12 17 -24 34 -26 36 -1 2 -20 -4 -42 -14 -34 -15 -53 -42 -53 -75 1
-17 24 -7 33 14 18 39 39 41 70 6 36 -39 80 -41 114 -4 14 15 26 34 26 43 1 9
3 28 5 43 3 31 -7 43 -24 26z"/>
<path d="M8368 558 c3 -47 1 -56 -21 -76 -36 -34 -59 -25 -77 28 -21 60 -45
63 -99 14 -23 -20 -41 -45 -41 -55 0 -27 9 -24 46 16 33 36 64 46 64 20 0 -48
54 -94 88 -76 77 42 113 180 46 181 -7 0 -9 -19 -6 -52z"/>
<path d="M7714 433 c-3 -16 -10 -44 -15 -63 -5 -19 -9 -41 -9 -48 0 -19 33
-10 36 10 1 9 7 39 13 68 14 63 14 60 -4 60 -8 0 -17 -12 -21 -27z"/>
<path d="M7870 436 c-14 -8 -33 -17 -42 -20 -10 -3 -18 -13 -18 -23 0 -10 -9
-36 -21 -57 -20 -38 -22 -76 -4 -78 6 -1 24 24 41 56 17 31 40 67 52 79 l22
21 0 -51 c0 -32 5 -55 14 -63 20 -15 61 -9 61 10 0 10 -8 14 -22 12 -20 -3
-22 1 -25 60 -3 69 -14 79 -58 54z"/>
</g>
</svg>
