<?xml version="1.0" standalone="no"?>
<!DOCTYPE svg PUBLIC "-//W3C//DTD SVG 20010904//EN"
 "http://www.w3.org/TR/2001/REC-SVG-20010904/DTD/svg10.dtd">
<svg version="1.0" xmlns="http://www.w3.org/2000/svg"
 width="1872.000000pt" height="392.000000pt" viewBox="0 0 1872.000000 392.000000"
 preserveAspectRatio="xMidYMid meet">

<g transform="translate(0.000000,392.000000) scale(0.100000,-0.100000)"
fill="#000000" stroke="none">
<path d="M15795 3420 c-3 -5 -4 -14 -1 -19 6 -9 -20 -151 -29 -159 -2 -3 -10
0 -17 6 -53 43 -192 -20 -230 -104 -14 -33 -16 -49 -8 -63 5 -11 10 -29 10
-40 0 -37 30 -96 59 -115 l29 -20 -27 -60 c-44 -98 -65 -162 -58 -180 10 -24
24 -19 32 12 3 15 23 68 42 118 36 91 37 92 74 97 57 7 111 38 136 76 31 45
32 135 2 192 -19 38 -19 44 -6 87 21 65 37 137 37 161 0 22 -33 30 -45 11z
m-65 -228 c0 -10 -4 -22 -9 -27 -6 -6 -24 -46 -42 -90 -17 -44 -38 -93 -46
-109 l-16 -30 -27 31 c-30 33 -48 111 -32 139 5 9 7 24 5 34 -5 19 57 66 103
79 35 10 64 -3 64 -27z m55 -68 c19 -41 15 -103 -10 -141 -14 -20 -100 -61
-110 -51 -7 7 86 228 95 228 4 0 15 -16 25 -36z"/>
<path d="M14868 3393 c0 -5 -2 -12 -2 -18 -4 -27 -61 -157 -73 -167 -11 -9
-22 -9 -46 0 -21 8 -35 8 -41 2 -6 -6 -19 -10 -31 -10 -50 0 -105 -77 -105
-147 0 -52 16 -106 39 -129 18 -19 18 -20 -7 -69 -13 -27 -42 -80 -64 -117
-40 -67 -47 -113 -18 -113 8 0 17 13 21 30 3 17 31 75 62 130 57 99 57 100 93
96 65 -5 147 41 171 96 20 48 8 146 -22 181 l-23 27 24 47 c13 26 25 51 26 55
1 5 10 27 20 51 11 23 16 47 13 52 -7 12 -34 13 -37 3z m-108 -236 c0 -4 -25
-55 -56 -113 -51 -95 -58 -104 -72 -90 -9 8 -18 38 -22 66 -7 57 14 120 47
138 21 13 103 12 103 -1z m75 -92 c8 -80 0 -96 -70 -130 -84 -41 -93 -31 -49
57 65 130 85 160 99 148 7 -6 16 -39 20 -75z"/>
<path d="M15993 3268 c-83 -87 -123 -182 -123 -293 0 -51 4 -65 23 -83 37 -35
82 -29 128 17 42 42 49 72 23 109 -21 30 -53 28 -101 -7 l-41 -30 5 42 c7 67
67 180 119 226 42 37 50 61 20 61 -6 0 -30 -19 -53 -42z m27 -291 c0 -46 -76
-91 -101 -61 -12 15 -9 21 25 50 47 40 76 44 76 11z"/>
<path d="M17089 3245 c-33 -46 -43 -53 -54 -35 -24 38 -119 -33 -157 -119 -24
-52 -19 -108 13 -153 l21 -29 -56 -86 c-31 -48 -55 -94 -54 -102 5 -25 27 -24
37 2 15 40 107 178 113 171 13 -12 74 17 118 55 44 38 45 40 45 97 -1 39 -7
70 -19 91 l-19 31 37 51 c34 46 40 71 16 71 -5 0 -23 -20 -41 -45z m-61 -95
c-31 -74 -94 -200 -100 -200 -12 0 -28 46 -28 81 0 66 73 148 118 131 7 -2 12
-8 10 -12z m46 -52 c10 -39 7 -83 -9 -105 -16 -22 -75 -63 -92 -63 -6 0 10 43
35 95 25 52 49 95 53 95 4 0 9 -10 13 -22z"/>
<path d="M16655 3256 c-11 -7 -40 -25 -64 -40 -40 -26 -42 -29 -27 -44 14 -15
17 -14 38 5 45 41 118 67 118 42 0 -6 -18 -41 -39 -77 -36 -62 -64 -91 -191
-202 -34 -29 -42 -42 -33 -50 8 -9 25 -2 67 30 l57 43 35 -42 c20 -22 43 -41
53 -41 22 0 81 61 81 83 0 25 -12 21 -45 -13 -16 -16 -32 -30 -36 -30 -5 0
-20 16 -35 35 l-27 36 35 37 c43 45 118 167 118 192 0 23 -37 50 -65 49 -11 0
-29 -6 -40 -13z"/>
<path d="M17463 3250 c-18 -10 -42 -38 -54 -62 -18 -35 -20 -47 -11 -72 10
-25 9 -31 -13 -48 -33 -26 -65 -81 -65 -112 0 -42 17 -64 58 -77 33 -10 44 -8
78 9 105 55 139 121 91 178 l-26 31 35 32 c41 39 44 74 9 114 -28 32 -58 34
-102 7z m78 -36 c25 -23 12 -51 -37 -80 -47 -28 -74 -26 -74 3 0 30 37 81 62
86 13 2 25 5 27 6 3 0 12 -6 22 -15z m-48 -165 c13 10 17 9 27 -9 7 -12 9 -33
6 -46 -8 -29 -86 -84 -120 -84 -26 0 -56 23 -56 43 0 23 40 78 72 97 29 17 32
18 44 2 10 -13 15 -14 27 -3z"/>
<path d="M17285 3239 c-4 -6 -5 -13 -2 -16 6 -5 -40 -141 -81 -241 -19 -46
-20 -53 -7 -59 9 -3 19 -3 22 1 14 14 113 307 107 317 -7 12 -31 11 -39 -2z"/>
<path d="M14998 3210 c-42 -23 -54 -38 -41 -51 7 -7 22 -3 44 9 49 28 88 36
95 18 15 -38 -78 -175 -161 -236 -63 -46 -84 -77 -61 -86 9 -3 31 7 53 25 21
17 42 31 48 31 5 0 18 -14 27 -30 26 -46 89 -37 121 18 24 42 2 55 -29 19 -30
-35 -55 -34 -76 2 -14 26 -14 32 -2 42 8 6 34 39 58 73 50 71 69 126 56 162
-8 20 -16 24 -52 24 -24 -1 -60 -10 -80 -20z"/>
<path d="M16260 2945 c-6 -8 -9 -19 -5 -25 3 -5 2 -10 -4 -10 -5 0 -12 5 -14
10 -3 6 -4 5 -3 -2 4 -18 46 -11 62 10 22 30 -11 47 -36 17z"/>
<path d="M15206 2935 c-10 -27 -7 -35 15 -35 15 0 20 5 17 22 -4 27 -23 35
-32 13z"/>
<path d="M3153 2890 c-59 -43 -98 -111 -123 -212 -18 -71 -26 -87 -43 -90 -28
-4 -34 -28 -8 -35 12 -3 21 -12 21 -21 0 -24 -32 -135 -42 -149 -15 -19 0 -35
21 -23 12 6 26 41 42 109 23 94 26 100 52 105 36 7 35 43 -1 38 -20 -3 -22 0
-16 25 34 154 78 218 177 253 16 5 25 14 22 20 -12 19 -62 10 -102 -20z"/>
<path d="M8852 2872 c-7 -5 -10 -15 -7 -24 8 -21 -50 -225 -87 -304 -36 -77
-42 -136 -15 -142 13 -3 17 3 17 29 0 17 15 66 34 108 19 42 49 129 66 194 36
134 34 165 -8 139z"/>
<path d="M2591 2861 c-9 -6 -15 -35 -17 -87 -4 -94 -22 -186 -37 -196 -6 -4
-12 -24 -13 -45 -2 -21 -11 -64 -22 -96 l-20 -58 29 -14 c51 -27 95 -19 137
23 41 42 72 45 87 9 24 -55 122 -55 165 0 30 39 9 53 -30 19 -17 -14 -40 -26
-50 -26 -49 0 -69 33 -26 44 53 13 78 117 29 124 -36 5 -82 -25 -91 -60 -11
-44 -29 -47 -24 -3 4 29 -1 40 -31 70 -22 22 -45 35 -62 35 -30 0 -30 -4 1
174 15 94 11 110 -25 87z m75 -336 c13 -19 13 -28 3 -47 -25 -47 -53 -77 -81
-89 -37 -15 -53 -2 -39 33 5 14 7 29 4 32 -3 3 0 26 7 52 20 69 67 78 106 19z
m145 -23 c-13 -25 -40 -46 -48 -39 -9 10 26 57 43 57 11 0 12 -4 5 -18z"/>
<path d="M13566 2841 c-4 -5 -4 -16 0 -24 8 -21 -40 -154 -96 -268 -58 -117
-54 -146 12 -83 24 23 54 47 67 54 23 12 23 11 16 -11 -14 -44 -12 -104 5
-104 9 0 15 10 16 25 0 14 7 44 14 67 10 34 11 45 0 58 -16 20 -40 19 -70 -2
-18 -13 -22 -13 -17 -2 69 161 104 270 92 289 -8 12 -32 13 -39 1z"/>
<path d="M13404 2825 c-17 -14 -18 -17 -2 -27 15 -11 14 -18 -13 -90 -46 -125
-39 -118 -125 -118 -66 0 -75 -2 -72 -17 3 -14 15 -19 58 -21 30 -1 58 -4 62
-5 4 -1 -7 -32 -23 -70 -28 -63 -31 -93 -7 -85 5 2 24 37 42 78 30 66 37 75
66 81 38 8 57 24 40 34 -6 4 -17 -1 -24 -10 -12 -17 -13 -17 -18 3 -3 12 9 58
29 107 19 47 37 101 40 120 5 30 3 35 -14 35 -10 0 -28 -7 -39 -15z"/>
<path d="M5689 2828 c0 -1 -2 -15 -4 -30 -5 -41 -43 -174 -76 -269 -31 -88
-35 -144 -10 -144 9 0 15 14 18 38 2 21 15 68 28 104 55 146 83 292 58 300 -7
3 -13 3 -14 1z"/>
<path d="M8288 2783 c-24 -28 -25 -33 -58 -159 -17 -65 -42 -138 -56 -162 -44
-75 -104 -94 -104 -33 0 35 21 59 58 67 47 10 54 14 49 27 -11 30 -105 0 -130
-42 -49 -84 26 -160 101 -104 46 34 80 103 112 228 17 66 40 132 51 147 10 15
19 32 19 38 0 16 -25 12 -42 -7z"/>
<path d="M10394 2792 c-6 -4 -24 -45 -39 -92 -41 -123 -71 -187 -112 -237 -41
-50 -90 -80 -105 -65 -25 25 81 143 108 121 15 -13 34 -4 34 16 0 26 -34 35
-66 19 -110 -57 -157 -194 -66 -194 34 0 61 17 109 69 48 52 77 107 123 237
17 49 35 93 40 98 9 9 3 36 -9 36 -3 0 -11 -4 -17 -8z"/>
<path d="M5495 2730 c-4 -7 -3 -16 3 -22 14 -14 45 -2 40 15 -6 16 -34 21 -43
7z"/>
<path d="M5870 2700 c0 -15 5 -20 18 -18 9 2 17 10 17 18 0 8 -8 16 -17 18
-13 2 -18 -3 -18 -18z"/>
<path d="M11744 2641 c-17 -10 -44 -36 -60 -57 -36 -48 -80 -141 -70 -151 14
-14 42 15 73 79 38 80 103 137 103 92 0 -19 20 -14 34 8 7 12 6 21 -3 32 -18
21 -39 20 -77 -3z"/>
<path d="M5255 2608 c-19 -23 -35 -32 -50 -30 -26 4 -40 -12 -28 -30 9 -15 4
-71 -6 -78 -10 -6 -42 -90 -36 -90 3 0 -2 -11 -11 -25 -8 -13 -13 -29 -9 -35
3 -5 2 -10 -3 -10 -11 0 -42 -71 -42 -95 0 -8 8 -15 18 -15 17 1 82 130 103
206 9 31 13 34 46 34 53 0 130 46 143 85 13 39 1 76 -32 99 -35 24 -63 19 -93
-16z m85 -29 c18 -32 4 -63 -35 -82 -73 -35 -104 -16 -68 41 40 61 84 78 103
41z"/>
<path d="M8964 2619 c-64 -18 -121 -103 -110 -164 9 -46 38 -69 79 -62 42 7
107 45 107 63 0 19 -14 18 -61 -7 -46 -23 -82 -22 -87 2 -2 11 7 18 27 22 37
8 121 86 121 113 0 22 -18 45 -34 43 -6 0 -25 -5 -42 -10z m26 -48 c-20 -38
-90 -79 -90 -53 0 11 51 58 70 65 27 10 31 7 20 -12z"/>
<path d="M9806 2594 c-35 -24 -36 -24 -36 -4 0 17 -5 21 -27 18 -22 -2 -28 -8
-29 -28 0 -14 -17 -52 -36 -85 -27 -44 -33 -63 -26 -73 9 -10 22 0 60 42 27
31 62 65 79 77 l30 21 -7 -64 c-7 -69 5 -108 31 -108 17 0 19 14 6 39 -9 17
-1 105 14 157 10 32 -17 36 -59 8z"/>
<path d="M9974 2566 c-36 -37 -55 -66 -60 -91 -8 -43 6 -80 34 -87 32 -9 99
27 122 64 25 41 25 66 3 98 -10 14 -16 32 -15 41 2 9 -5 19 -14 23 -12 5 -32
-9 -70 -48z m72 -41 c11 -28 -6 -65 -39 -85 -17 -11 -38 -20 -44 -20 -20 0
-15 59 8 91 22 32 66 40 75 14z"/>
<path d="M11264 2591 c-66 -31 -82 -47 -66 -63 7 -7 19 -4 39 9 23 16 85 43
99 43 14 0 -3 -34 -41 -85 -51 -68 -62 -92 -46 -108 8 -8 19 -5 38 11 16 12
45 31 66 42 35 19 38 20 43 3 18 -60 35 -83 57 -83 40 0 75 36 91 93 27 96 29
117 12 117 -20 0 -24 -9 -36 -71 -20 -103 -62 -128 -87 -52 -17 49 -34 58 -73
38 -43 -22 -45 -19 -15 21 18 23 28 50 29 73 1 31 -2 36 -24 39 -14 1 -53 -11
-86 -27z"/>
<path d="M4471 2592 c-19 -9 -44 -29 -54 -44 -18 -24 -19 -32 -8 -67 17 -60
101 -108 140 -82 20 13 4 31 -28 31 -36 0 -81 41 -81 74 0 32 47 71 66 55 16
-13 54 -3 54 15 0 17 -21 36 -39 36 -9 0 -31 -8 -50 -18z"/>
<path d="M10429 2570 c-21 -22 -45 -40 -53 -40 -20 0 -31 -19 -18 -32 6 -6 8
-25 5 -43 -7 -41 9 -70 47 -90 26 -13 37 -14 73 -3 23 7 49 18 57 25 8 6 26
21 40 32 41 33 1 38 -53 7 -24 -14 -47 -23 -50 -20 -4 4 -13 1 -21 -5 -23 -19
-56 3 -56 38 0 24 4 28 32 28 18 0 34 5 36 11 2 7 10 12 17 12 7 0 27 12 44
26 53 44 34 94 -35 94 -19 0 -39 -12 -65 -40z m87 -19 c-18 -20 -64 -36 -74
-27 -12 13 33 46 61 46 29 0 29 -1 13 -19z"/>
<path d="M3378 2573 c-50 -54 -75 -149 -42 -160 13 -4 34 40 34 72 0 36 48 88
75 81 26 -7 36 0 28 20 -9 25 -67 17 -95 -13z"/>
<path d="M5994 2567 c-27 -17 -58 -32 -69 -32 -14 0 -21 -9 -26 -33 -4 -18
-14 -41 -24 -52 -19 -21 -14 -53 7 -44 14 5 84 94 82 103 -1 3 17 15 40 27
l41 21 -3 -55 c-3 -46 -2 -53 13 -50 13 2 18 17 22 65 3 53 1 63 -15 72 -15 8
-29 4 -68 -22z"/>
<path d="M6235 2589 c-44 -12 -75 -45 -75 -79 0 -38 24 -60 66 -60 29 0 34 -4
34 -22 0 -27 -37 -208 -43 -215 -3 -2 -23 1 -46 8 -34 10 -44 9 -65 -5 -41
-27 -59 -71 -46 -112 12 -36 35 -54 70 -54 22 0 86 62 96 93 5 15 13 17 48 12
32 -5 45 -3 55 9 18 22 7 31 -34 28 -18 -2 -35 1 -39 6 -3 5 1 33 9 63 8 30
20 92 26 139 6 47 18 94 25 105 15 21 19 71 7 78 -20 11 -61 14 -88 6z m40
-56 c-8 -35 -15 -42 -45 -45 -19 -2 -26 2 -28 19 -3 23 30 53 61 53 16 0 18
-5 12 -27z m-102 -344 c30 -16 30 -15 17 -39 -41 -76 -100 -82 -100 -10 0 10
12 28 26 39 31 25 29 24 57 10z"/>
<path d="M7603 2574 c-24 -14 -43 -31 -43 -37 0 -7 -4 -6 -10 3 -11 18 -57 23
-66 8 -4 -6 1 -17 11 -24 17 -13 17 -16 -4 -70 -20 -53 -20 -74 -1 -74 4 0 22
24 39 54 30 55 99 132 108 122 3 -2 -7 -25 -22 -50 -24 -40 -25 -47 -11 -52
12 -4 35 11 76 50 58 56 111 77 95 39 -17 -43 -17 -89 0 -107 22 -21 42 -7 27
20 -6 11 -6 29 0 51 5 19 8 46 6 61 -2 22 -8 27 -33 28 -16 1 -44 -7 -61 -17
-31 -19 -32 -19 -37 1 -7 26 -23 25 -74 -6z"/>
<path d="M7924 2583 c-3 -12 -17 -24 -30 -27 -28 -7 -74 -71 -74 -103 0 -12
11 -34 24 -49 46 -54 127 -28 160 51 16 37 11 50 -37 106 -35 40 -38 42 -43
22z m34 -69 c30 -21 28 -38 -10 -79 -30 -32 -35 -34 -58 -22 -35 17 -37 56 -6
90 29 31 43 33 74 11z"/>
<path d="M4847 2582 c-3 -4 -4 -17 -3 -28 2 -10 -3 -28 -10 -39 -20 -32 -27
-82 -13 -91 8 -4 17 0 23 11 17 29 67 85 76 85 5 0 6 -16 3 -35 -9 -53 17 -56
75 -8 72 60 73 60 66 10 -6 -45 9 -93 26 -82 6 3 9 23 8 43 0 20 2 47 6 60 10
30 -2 62 -23 62 -26 0 -87 -45 -83 -61 2 -8 0 -11 -4 -7 -4 4 -14 2 -22 -5
-13 -10 -14 -8 -9 15 5 18 2 32 -9 42 -14 14 -18 14 -45 1 -28 -15 -29 -15
-26 7 2 22 -26 38 -36 20z"/>
<path d="M13693 2579 c-45 -13 -83 -62 -83 -108 0 -83 90 -126 176 -85 42 20
62 51 39 60 -9 4 -26 -2 -39 -15 -41 -39 -111 -29 -137 20 -8 16 -6 18 19 13
19 -4 34 -1 45 10 9 9 18 16 19 14 8 -6 58 36 63 53 14 43 -30 59 -102 38z
m37 -54 c-40 -29 -91 -36 -69 -9 16 20 46 33 78 33 24 1 23 0 -9 -24z"/>
<path d="M4661 2536 c-35 -44 -38 -71 -15 -104 23 -33 69 -29 105 9 36 39 37
68 3 104 -37 40 -57 38 -93 -9z m67 -18 c19 -19 14 -45 -10 -62 -30 -21 -37
-20 -47 7 -7 17 -4 27 12 45 24 25 29 26 45 10z"/>
<path d="M6910 2573 c-66 -24 -116 -139 -75 -173 21 -18 62 -16 84 4 16 15 19
15 31 1 16 -19 74 -20 90 0 17 20 4 38 -20 25 -23 -12 -50 -3 -50 17 0 8 7 27
15 44 15 28 14 32 -5 59 -21 29 -38 35 -70 23z m34 -60 c-12 -56 -67 -111 -83
-84 -13 20 6 68 36 91 37 29 55 26 47 -7z"/>
<path d="M8386 2513 c-46 -71 -88 -116 -119 -127 -10 -3 -17 -12 -15 -19 9
-24 37 -18 76 17 34 31 41 34 52 21 17 -20 39 -19 74 5 30 19 30 19 43 -1 9
-12 26 -19 45 -19 25 0 28 3 19 14 -7 8 -8 16 -4 18 4 3 2 3 -5 1 -26 -6 -32
8 -17 37 18 35 20 70 3 70 -7 0 -34 -22 -60 -50 -54 -57 -84 -66 -73 -22 3 15
18 44 32 64 23 34 24 58 2 58 -5 0 -29 -30 -53 -67z"/>
<path d="M12460 2562 c-38 -18 -38 -21 -29 -122 3 -36 1 -45 -13 -48 -9 -2
-25 6 -35 17 -22 26 -43 27 -43 3 0 -45 83 -78 115 -46 15 15 17 29 11 90 -5
66 -4 73 13 79 11 3 30 3 44 0 29 -8 44 9 27 30 -16 20 -47 19 -90 -3z"/>
<path d="M3574 2555 c-16 -7 -42 -27 -58 -45 -27 -30 -29 -33 -13 -45 9 -7 17
-23 17 -37 0 -58 80 -84 148 -49 23 12 42 26 42 32 0 18 -29 21 -52 5 -12 -9
-33 -16 -46 -16 -59 0 -87 52 -35 65 39 9 83 44 83 65 0 27 -49 41 -86 25z
m28 -41 c-12 -8 -28 -13 -35 -11 -7 3 -1 9 13 15 37 16 47 14 22 -4z"/>
<path d="M5465 2558 c-31 -94 -34 -120 -19 -149 18 -35 38 -28 31 11 -3 15 1
49 9 76 8 27 12 54 10 61 -7 17 -25 17 -31 1z"/>
<path d="M12204 2551 c-17 -10 -42 -33 -56 -51 l-25 -32 5 32 c4 29 2 31 -19
28 -19 -2 -24 -10 -25 -38 -1 -19 -25 -91 -53 -160 -58 -140 -62 -155 -41
-155 9 0 35 40 65 97 50 98 50 98 88 98 113 0 213 125 145 183 -26 22 -45 22
-84 -2z m74 -42 c5 -26 -45 -76 -94 -95 -24 -9 -47 -14 -50 -11 -10 10 24 63
61 96 39 34 77 38 83 10z"/>
<path d="M11905 2544 c-37 -19 -95 -74 -95 -89 0 -7 9 -20 20 -30 18 -16 26
-17 58 -8 20 5 45 14 55 18 14 6 17 2 17 -22 0 -16 3 -33 7 -36 10 -11 32 13
26 29 -3 7 0 28 6 46 17 49 0 56 -58 25 -27 -15 -59 -27 -72 -27 l-22 0 24 26
c35 37 57 48 74 34 8 -7 19 -9 25 -5 16 10 12 42 -6 49 -22 8 -25 8 -59 -10z"/>
<path d="M3160 2513 c-30 -38 -35 -69 -16 -98 38 -57 126 -11 126 65 0 44 -13
57 -57 58 -24 0 -38 -7 -53 -25z m80 -24 c0 -27 -25 -59 -47 -59 -30 0 -32 43
-2 64 21 14 49 12 49 -5z"/>
<path d="M5774 2513 c-3 -10 -11 -31 -16 -46 -12 -30 3 -60 21 -41 14 15 33
83 26 94 -10 16 -25 12 -31 -7z"/>
<path d="M11010 2325 c-11 -13 -10 -14 3 -9 19 7 20 18 -22 -151 -17 -66 -42
-148 -57 -183 -21 -50 -24 -66 -14 -75 9 -9 17 -5 33 18 30 42 134 145 147
145 5 0 1 -23 -11 -52 -31 -78 -33 -94 -15 -101 11 -4 19 0 22 11 3 9 14 39
25 66 48 122 -3 151 -102 59 l-27 -25 37 145 c20 79 35 149 33 155 -5 17 -37
15 -52 -3z"/>
<path d="M16155 2296 c-16 -12 -17 -16 -6 -30 11 -13 8 -29 -20 -105 l-34 -89
-68 -7 c-67 -7 -88 -18 -69 -37 7 -7 27 -6 62 1 29 6 55 9 58 7 2 -3 -10 -41
-28 -85 -31 -74 -34 -111 -11 -111 5 0 13 10 16 23 4 12 21 57 38 99 26 63 36
78 54 78 34 0 75 19 70 33 -2 7 -18 11 -40 9 -21 -2 -37 1 -37 6 0 5 13 43 29
83 36 89 42 132 21 136 -9 2 -24 -3 -35 -11z"/>
<path d="M8849 2298 c0 -2 -19 -64 -42 -138 l-43 -135 -48 3 c-42 3 -47 2 -44
-15 2 -13 14 -19 41 -21 30 -3 37 -7 33 -20 -18 -56 -23 -112 -11 -122 17 -14
21 -7 35 68 10 50 17 63 34 66 73 14 100 23 104 35 4 11 -6 13 -52 8 -55 -5
-57 -5 -50 16 4 12 20 64 35 115 16 51 31 97 34 101 7 12 -5 41 -16 41 -5 0
-9 -1 -10 -2z"/>
<path d="M11726 2281 c-4 -5 -3 -16 0 -25 8 -20 -49 -192 -92 -278 -19 -37
-34 -72 -34 -78 0 -20 31 -9 66 23 47 42 94 72 94 59 0 -6 -5 -23 -11 -38 -20
-56 16 -98 63 -73 23 12 15 29 -14 29 -17 0 -19 4 -14 28 19 82 19 92 1 98 -9
4 -33 -2 -53 -12 -21 -10 -40 -20 -43 -22 -4 -1 4 28 18 65 36 97 63 201 57
218 -7 17 -30 20 -38 6z"/>
<path d="M5325 2251 c-10 -17 4 -31 31 -31 19 0 25 5 22 18 -4 19 -43 29 -53
13z"/>
<path d="M4464 2240 c-6 -6 -6 -48 0 -115 11 -124 -2 -206 -37 -230 -27 -19
-42 -19 -61 1 -38 38 7 117 63 112 30 -3 36 19 10 35 -26 16 -90 -22 -112 -66
-16 -31 -17 -42 -7 -72 13 -41 35 -55 83 -55 64 0 101 73 99 195 -2 170 -12
221 -38 195z"/>
<path d="M5723 2243 c-7 -3 -13 -17 -13 -33 0 -15 -9 -57 -20 -93 l-20 -66
-55 -15 c-57 -17 -74 -31 -57 -48 6 -6 22 -4 47 6 21 9 40 15 41 13 5 -4 -34
-126 -47 -151 -8 -13 -7 -22 0 -29 18 -18 36 11 65 104 l26 87 46 11 c49 13
81 35 64 46 -5 3 -26 1 -47 -4 -20 -6 -38 -9 -40 -7 -2 1 3 21 11 44 19 54 30
128 19 134 -4 3 -14 3 -20 1z"/>
<path d="M8010 2229 c-62 -25 -105 -91 -129 -199 -22 -97 -16 -90 -79 -88 -45
2 -57 0 -57 -12 0 -11 14 -16 58 -18 31 -2 57 -5 57 -6 0 -2 -9 -35 -21 -72
-31 -100 -45 -124 -74 -124 -13 0 -27 -5 -31 -11 -7 -12 32 -48 52 -49 16 0
71 116 91 193 l17 65 51 14 c32 8 50 19 50 28 0 16 -11 17 -63 6 l-33 -8 7 39
c21 121 82 213 140 213 19 0 25 4 22 17 -4 21 -24 25 -58 12z"/>
<path d="M14844 2219 c-9 -15 11 -33 30 -26 9 4 13 13 10 22 -7 17 -30 20 -40
4z"/>
<path d="M2800 2113 c0 -101 -16 -158 -54 -196 -25 -25 -56 -22 -56 6 0 35 24
72 45 72 27 0 31 32 6 40 -31 9 -57 -10 -75 -56 -21 -52 -13 -96 20 -111 39
-18 84 9 119 73 26 48 29 64 30 149 1 106 -1 120 -21 120 -11 0 -14 -21 -14
-97z"/>
<path d="M3199 2198 c-1 -2 -3 -14 -4 -28 -1 -14 -7 -60 -14 -102 -7 -43 -10
-82 -6 -88 3 -5 1 -10 -4 -10 -7 0 -11 -24 -11 -60 0 -54 5 -65 27 -57 4 1 7
22 8 47 1 25 9 92 19 150 23 147 23 144 4 148 -10 2 -19 2 -19 0z"/>
<path d="M11274 2169 c-3 -6 -1 -16 4 -21 13 -13 45 8 36 23 -7 12 -31 11 -40
-2z"/>
<path d="M17072 2163 c2 -10 10 -18 18 -18 22 0 18 29 -3 33 -14 3 -18 -1 -15
-15z"/>
<path d="M10552 2090 c-34 -23 -62 -46 -62 -50 0 -19 22 -21 47 -3 51 36 78
53 86 53 5 0 -8 -30 -29 -67 -59 -105 -63 -115 -57 -129 8 -22 37 -16 64 12
43 46 57 49 72 12 32 -75 91 -88 123 -26 13 26 54 156 54 173 0 3 -7 5 -15 5
-15 0 -45 -59 -45 -91 0 -32 -33 -90 -50 -87 -8 2 -25 24 -38 51 -25 53 -40
57 -84 26 l-30 -22 27 43 c14 23 24 44 21 47 -3 4 1 11 9 17 9 6 17 25 18 41
3 47 -35 45 -111 -5z"/>
<path d="M9042 2103 c2 -10 10 -18 18 -18 22 0 18 29 -3 33 -14 3 -18 -1 -15
-15z"/>
<path d="M13703 2110 c-42 -10 -63 -27 -80 -67 -19 -48 -16 -69 16 -105 23
-26 36 -32 72 -32 55 -1 63 16 12 27 -47 10 -73 33 -73 67 0 39 22 63 71 74
28 7 44 17 44 26 0 18 -19 21 -62 10z"/>
<path d="M2212 2048 c-51 -51 -61 -58 -52 -35 29 79 -6 100 -61 38 l-38 -42 6
35 c5 33 4 36 -20 36 -32 0 -41 -13 -26 -38 9 -14 7 -35 -10 -96 -20 -73 -21
-96 -2 -96 4 0 22 28 40 63 18 34 43 76 57 92 l25 30 -16 -39 c-18 -42 -14
-66 9 -66 8 0 40 24 70 54 l55 53 -6 -63 c-7 -73 4 -94 48 -94 36 0 38 17 4
30 -29 11 -28 8 -14 86 6 32 12 64 12 69 1 6 6 13 11 16 11 8 -1 29 -17 29 -7
0 -40 -28 -75 -62z"/>
<path d="M16830 2076 c-76 -40 -86 -63 -45 -106 35 -37 27 -56 -26 -67 -44 -9
-62 -29 -36 -39 20 -7 93 13 112 32 23 24 18 52 -15 86 -17 17 -30 32 -28 33
2 1 26 14 55 29 56 28 70 43 56 57 -5 5 -36 -6 -73 -25z"/>
<path d="M12555 2090 c-49 -13 -105 -40 -105 -50 0 -21 29 -21 70 0 23 12 51
20 62 18 19 -3 16 -10 -30 -67 -29 -35 -52 -70 -52 -77 0 -26 20 -24 73 6 63
35 67 36 67 11 0 -11 11 -32 24 -47 l23 -28 45 17 c60 23 85 52 102 118 13 48
13 56 -1 72 -21 23 -37 22 -30 -2 8 -33 -13 -107 -37 -130 -12 -11 -35 -23
-52 -27 -28 -5 -31 -3 -40 33 -9 37 -11 38 -51 37 l-42 -1 25 29 c29 35 31 73
5 88 -11 5 -21 10 -23 9 -2 -1 -16 -5 -33 -9z"/>
<path d="M12932 2074 c-47 -28 -82 -85 -82 -134 0 -71 91 -108 175 -71 28 12
45 26 42 33 -5 15 -20 14 -64 -3 -22 -9 -43 -10 -70 -3 -33 8 -38 13 -41 41
-3 31 -2 32 30 27 40 -6 97 22 117 58 13 23 13 29 -2 52 -22 33 -50 33 -105 0z
m78 -28 c0 -19 -44 -46 -76 -46 -23 0 -25 2 -13 17 19 23 71 53 81 47 4 -3 8
-11 8 -18z"/>
<path d="M11424 2057 c-92 -63 -105 -154 -29 -190 38 -18 100 -23 109 -8 7 11
-20 35 -32 27 -5 -3 -25 -1 -45 5 -43 12 -57 46 -37 84 17 31 83 77 101 70 21
-7 43 11 36 29 -10 25 -51 19 -103 -17z"/>
<path d="M13884 2071 c-38 -23 -74 -68 -74 -92 0 -27 50 -62 81 -55 23 4 28 1
33 -20 9 -36 31 -24 32 17 1 20 9 47 18 61 29 44 29 74 1 92 -32 21 -53 20
-91 -3z m70 -30 c3 -5 -5 -24 -17 -42 -26 -39 -73 -52 -84 -23 -13 34 83 95
101 65z"/>
<path d="M14113 2083 c-7 -3 -13 -17 -13 -32 0 -15 -11 -50 -25 -77 -14 -27
-25 -52 -25 -56 0 -19 31 -5 47 20 10 15 23 33 30 39 6 7 20 24 31 37 48 62
92 13 74 -83 -6 -33 -6 -60 -1 -66 18 -18 32 15 37 87 4 64 1 76 -18 101 -24
31 -50 34 -85 11 -22 -15 -25 -15 -25 -1 0 19 -10 26 -27 20z"/>
<path d="M2424 2046 c-36 -36 -42 -64 -24 -111 14 -36 68 -58 109 -44 31 11
71 63 71 92 0 48 -50 97 -101 97 -11 0 -36 -15 -55 -34z m61 -16 c4 -6 15 -8
26 -5 24 8 37 -36 21 -70 -24 -53 -102 -39 -102 17 0 45 38 85 55 58z"/>
<path d="M4594 2058 c-30 -34 -44 -73 -44 -123 0 -34 5 -47 22 -59 41 -29 169
-15 182 19 8 23 -6 25 -67 8 -45 -13 -62 -14 -82 -5 -35 16 -31 38 10 52 19 6
45 25 57 42 20 28 20 33 7 57 -20 35 -59 39 -85 9z m56 -28 c0 -13 -37 -50
-50 -50 -10 0 -3 27 13 48 11 14 37 16 37 2z"/>
<path d="M6920 2038 c-56 -37 -65 -48 -68 -76 -6 -59 36 -79 98 -47 28 14 31
14 50 -5 30 -30 100 -25 100 7 0 11 -7 14 -27 10 -55 -10 -69 19 -36 74 18 29
17 30 -12 54 -17 13 -32 24 -35 25 -3 0 -35 -19 -70 -42z m71 -42 c-17 -31
-82 -68 -100 -56 -22 13 -6 37 46 69 53 33 75 28 54 -13z"/>
<path d="M3966 2047 c-75 -43 -100 -113 -62 -172 39 -60 186 -91 186 -39 0 10
-14 14 -47 14 -86 0 -142 56 -114 116 13 30 70 66 93 58 22 -6 33 13 18 31
-17 20 -28 19 -74 -8z"/>
<path d="M16522 2035 c-30 -34 -47 -85 -40 -121 2 -10 15 -25 31 -34 25 -14
30 -13 73 9 59 32 86 66 82 105 -4 41 -32 42 -35 1 -3 -48 -88 -104 -115 -77
-14 14 6 67 40 104 22 24 23 48 2 48 -4 0 -22 -16 -38 -35z"/>
<path d="M3383 2053 c-12 -2 -36 -18 -54 -34 -29 -27 -31 -32 -24 -75 9 -65
13 -73 47 -90 37 -19 82 -12 150 22 43 22 58 41 43 56 -3 3 -31 -8 -61 -24
-64 -31 -105 -36 -128 -12 -25 24 -19 41 17 48 19 3 43 16 54 29 61 67 45 97
-44 80z m18 -53 c-13 -11 -33 -20 -45 -20 -20 0 -20 1 4 20 14 11 34 20 45 19
19 0 19 -1 -4 -19z"/>
<path d="M9344 2043 c-3 -10 -19 -49 -36 -88 -38 -87 -44 -115 -28 -115 19 0
78 46 138 107 29 30 55 53 57 51 2 -2 -2 -26 -10 -52 -20 -67 -5 -100 47 -104
21 -2 46 2 58 8 25 13 28 45 3 37 -49 -15 -59 -17 -73 -8 -13 9 -12 18 3 77
16 60 17 69 3 82 -13 13 -18 13 -40 -1 -14 -9 -50 -43 -81 -74 l-56 -58 16 40
c25 59 35 97 29 106 -9 15 -24 10 -30 -8z"/>
<path d="M15152 2040 c-42 -26 -47 -39 -35 -110 6 -40 6 -63 -1 -70 -16 -16
-33 -12 -39 10 -7 26 -24 26 -32 -1 -9 -26 20 -59 52 -59 53 0 73 50 53 135
-11 47 0 64 51 74 20 4 34 13 34 21 0 23 -46 23 -83 0z"/>
<path d="M15554 2035 c-75 -45 -89 -141 -28 -193 34 -29 117 -29 122 1 3 16
-1 17 -32 11 -40 -7 -80 12 -88 43 -4 14 2 18 26 20 41 3 110 53 114 82 4 28
-24 61 -52 61 -12 0 -40 -11 -62 -25z m81 -24 c7 -12 -42 -47 -78 -56 -41 -11
-34 16 13 48 27 19 56 22 65 8z"/>
<path d="M4145 2036 c-42 -18 -59 -42 -59 -83 0 -46 40 -83 90 -83 47 0 68 12
94 55 21 33 21 37 6 60 -32 49 -86 70 -131 51z m35 -37 c0 -6 9 -9 19 -6 12 3
27 -3 37 -14 15 -17 15 -20 0 -44 -22 -33 -59 -42 -91 -21 -32 21 -33 59 -3
80 26 19 38 20 38 5z"/>
<path d="M5248 2033 c-34 -39 -49 -84 -46 -136 l3 -52 34 2 c39 1 56 15 48 38
-6 13 -10 13 -26 3 -11 -7 -23 -9 -26 -6 -11 11 7 78 31 114 32 47 17 76 -18
37z"/>
<path d="M16966 1990 c-38 -61 -44 -105 -16 -105 8 0 15 7 15 15 0 8 15 39 33
69 31 49 36 81 14 81 -5 0 -26 -27 -46 -60z"/>
<path d="M11238 2028 c-26 -22 -78 -106 -78 -127 0 -12 6 -21 15 -21 8 0 15 4
15 9 0 19 63 111 76 111 20 0 28 21 13 31 -18 12 -22 11 -41 -3z"/>
<path d="M14759 1998 c-12 -24 -37 -66 -56 -95 -31 -47 -36 -73 -14 -73 8 0
68 90 104 158 17 31 16 52 -3 52 -5 0 -19 -19 -31 -42z"/>
<path d="M15339 2010 c-29 -19 -50 -43 -59 -65 -8 -19 -17 -35 -21 -35 -3 0
-17 -28 -29 -62 -12 -35 -31 -83 -42 -107 -11 -25 -20 -56 -21 -69 -2 -30 20
-41 29 -15 4 10 20 48 37 86 26 59 33 67 58 67 17 0 46 15 77 39 87 69 119
134 82 171 -28 28 -57 25 -111 -10z m91 -31 c0 -21 -100 -129 -119 -129 -26 0
3 84 41 123 34 33 78 37 78 6z"/>
<path d="M15772 2020 c-35 -22 -72 -74 -72 -103 0 -10 13 -32 29 -48 26 -25
37 -29 85 -29 44 0 56 3 56 16 0 9 5 12 13 8 6 -4 9 -3 4 1 -4 5 -31 9 -61 9
-87 1 -111 42 -57 97 16 16 40 29 54 29 29 0 37 7 30 26 -7 20 -42 17 -81 -6z"/>
<path d="M8305 2016 c-47 -21 -107 -89 -103 -117 5 -39 24 -32 63 25 35 51 68
76 82 62 3 -3 0 -26 -7 -51 -14 -50 -3 -78 19 -51 18 22 26 113 11 131 -15 18
-26 18 -65 1z"/>
<path d="M8543 2019 c-73 -21 -112 -127 -61 -163 29 -21 92 -20 112 0 21 21
20 38 -1 29 -55 -22 -103 -10 -103 25 0 29 41 68 80 78 20 4 35 15 35 22 0 18
-21 21 -62 9z"/>
<path d="M9108 1984 c-46 -57 -50 -99 -14 -133 19 -17 31 -21 53 -17 30 7 85
52 102 84 30 56 -3 112 -66 112 -33 0 -43 -6 -75 -46z m112 2 c0 -2 3 -11 6
-19 7 -19 -62 -97 -85 -97 -20 0 -41 19 -41 36 0 21 49 72 73 77 34 7 47 7 47
3z"/>
<path d="M14905 2016 c-11 -8 -25 -12 -32 -9 -7 3 -16 -3 -20 -13 -4 -11 -24
-42 -45 -71 -42 -58 -46 -73 -20 -73 9 0 35 25 57 56 34 47 88 94 109 94 13 0
5 -42 -14 -80 -24 -47 -25 -60 -5 -60 17 0 65 89 65 123 0 13 -5 28 -12 35
-16 16 -60 15 -83 -2z"/>
<path d="M17168 2005 c-20 -14 -43 -22 -52 -19 -10 4 -20 -5 -32 -28 -9 -18
-28 -48 -41 -66 -20 -26 -23 -36 -13 -45 9 -9 24 1 64 44 71 75 134 118 147
98 14 -22 11 -32 -21 -93 -28 -53 -31 -76 -10 -76 5 0 22 24 39 54 67 117 17
198 -81 131z"/>
<path d="M17407 2002 c-46 -33 -56 -65 -31 -93 14 -16 28 -20 61 -17 49 4 50
1 32 -82 -10 -48 -12 -50 -44 -50 -61 0 -135 -88 -135 -160 0 -82 115 -27 170
80 20 38 22 40 70 40 57 0 103 15 98 32 -3 8 -26 11 -67 9 l-63 -3 6 49 c10
71 36 145 59 171 16 17 18 25 9 34 -10 10 -22 2 -59 -35 -45 -46 -82 -65 -102
-52 -21 12 -11 33 25 50 22 10 34 22 32 32 -5 26 -20 24 -61 -5z m22 -304
c-24 -46 -55 -80 -83 -95 -27 -14 -28 -14 -22 2 3 9 6 23 6 30 0 26 61 85 86
85 22 0 24 -2 13 -22z"/>
<path d="M2920 1999 c-17 -30 -7 -115 15 -139 28 -31 80 -26 116 10 27 27 30
35 27 87 -2 44 -7 58 -18 58 -11 0 -15 -13 -15 -53 0 -44 -4 -57 -24 -73 -27
-22 -32 -23 -54 -6 -16 11 -23 61 -15 111 4 27 -19 31 -32 5z"/>
<path d="M5376 2008 c-2 -7 -8 -35 -14 -63 -5 -27 -13 -61 -17 -74 -13 -41 28
-21 48 24 22 46 55 85 73 85 8 0 12 -20 11 -67 -2 -55 1 -68 13 -68 10 0 14 8
13 23 -2 13 1 41 6 63 5 22 7 48 4 59 -7 28 -47 36 -78 16 -22 -14 -25 -15
-25 -1 0 18 -29 20 -34 3z"/>
<path d="M8155 2010 c-3 -6 -4 -14 -1 -19 6 -10 -61 -91 -76 -91 -7 0 -9 15
-5 40 3 23 1 43 -5 47 -15 8 -38 -25 -38 -54 0 -31 28 -73 48 -73 18 0 122
105 122 124 0 16 -38 38 -45 26z"/>
<path d="M8974 2003 c-4 -10 -15 -37 -25 -60 -24 -54 -25 -86 -2 -81 10 2 20
16 23 34 4 17 15 44 25 61 18 31 15 63 -5 63 -6 0 -13 -8 -16 -17z"/>
<path d="M5803 1974 c-52 -51 -42 -113 23 -140 32 -13 39 -13 79 5 46 20 85
69 85 107 0 39 -39 63 -100 61 -47 -2 -60 -6 -87 -33z m145 -17 c17 -21 -20
-73 -62 -87 -47 -15 -76 0 -76 39 0 32 14 47 50 54 49 9 78 7 88 -6z"/>
<path d="M9835 1891 c-3 -6 -4 -15 0 -21 14 -22 -9 -62 -51 -86 -24 -14 -44
-30 -44 -34 0 -21 24 -20 64 4 47 27 70 67 64 112 -3 29 -22 43 -33 25z"/>
<path d="M12250 1874 c-50 -21 -87 -60 -125 -129 -48 -88 -68 -166 -69 -270 0
-99 19 -179 57 -236 27 -40 112 -99 144 -99 40 0 34 18 -13 41 -79 38 -111 73
-134 146 -64 206 30 479 180 524 41 13 49 32 14 36 -10 2 -35 -4 -54 -13z"/>
<path d="M7097 1824 c-4 -4 -7 -20 -7 -36 0 -35 -30 -159 -42 -174 -4 -6 -36
-15 -69 -18 -49 -6 -60 -10 -57 -24 4 -18 10 -19 74 -9 l42 7 -34 -102 c-37
-111 -41 -138 -21 -138 8 0 28 47 51 120 21 66 42 123 47 126 5 3 27 6 50 6
31 0 39 4 37 17 -3 11 -14 16 -40 16 -40 0 -40 0 -18 80 22 75 13 155 -13 129z"/>
<path d="M13745 1810 c-8 -13 3 -30 18 -30 18 0 78 -96 106 -170 46 -124 30
-245 -44 -325 -139 -151 -142 -155 -105 -155 32 0 131 108 170 185 47 94 52
177 17 287 -42 131 -135 251 -162 208z"/>
<path d="M11040 1808 c-1 -2 -2 -42 -4 -90 -5 -106 -42 -242 -64 -233 -50 19
-62 17 -97 -18 -53 -53 -46 -117 13 -117 64 0 106 46 142 154 46 138 57 306
20 306 -5 0 -10 -1 -10 -2z m-81 -361 c8 -11 7 -18 -7 -29 -62 -55 -114 -39
-57 17 27 28 47 31 64 12z"/>
<path d="M11386 1768 c-2 -7 -9 -47 -14 -88 -13 -88 -86 -317 -110 -343 -20
-22 -4 -36 33 -29 18 3 24 10 23 26 -1 11 17 80 40 151 42 131 69 266 57 285
-9 14 -25 13 -29 -2z"/>
<path d="M9195 1760 c-4 -6 -2 -17 4 -23 7 -9 1 -37 -20 -97 -70 -196 -81
-231 -75 -245 10 -26 23 -16 54 38 31 54 68 87 98 87 14 0 16 -7 10 -47 -12
-82 -12 -98 3 -98 14 0 40 79 41 127 0 55 -64 75 -110 33 -28 -25 -30 -17 -9
32 11 27 18 58 16 70 -2 12 0 20 4 17 13 -8 30 45 27 80 -3 31 -30 47 -43 26z"/>
<path d="M2257 1754 c-4 -4 -7 -28 -7 -54 0 -59 -32 -186 -65 -258 -29 -64
-30 -68 -10 -76 10 -3 18 1 22 12 13 33 83 119 107 130 42 19 47 -7 18 -91
-18 -53 -18 -91 0 -85 5 2 18 28 29 58 23 64 22 138 -2 153 -20 13 -62 2 -85
-21 -17 -16 -18 -16 -10 3 13 35 34 139 38 185 2 34 -1 45 -12 48 -9 1 -19 0
-23 -4z"/>
<path d="M8328 1741 c-28 -23 -71 -99 -88 -158 -12 -40 -15 -42 -49 -40 -48 3
-51 -27 -3 -31 17 -2 32 -5 32 -8 0 -2 -12 -33 -26 -69 -26 -64 -26 -101 -2
-93 7 3 16 18 20 34 21 87 44 134 63 135 41 2 65 6 71 12 13 13 -9 27 -42 27
-42 0 -43 9 -4 87 39 77 56 93 74 68 15 -21 36 -12 36 15 0 18 -27 40 -48 40
-5 0 -20 -9 -34 -19z"/>
<path d="M8987 1685 c-39 -81 -57 -96 -83 -70 -11 11 -20 13 -27 6 -14 -14 0
-42 24 -48 17 -5 20 -11 15 -32 -3 -14 -9 -49 -12 -78 -6 -48 -5 -54 24 -82
34 -34 90 -42 111 -17 15 18 -1 30 -30 21 -12 -4 -30 0 -44 9 -20 13 -25 25
-25 60 0 65 17 105 48 112 54 12 63 16 59 27 -2 7 -18 11 -35 10 l-31 -3 39
73 c22 41 37 77 33 80 -17 18 -34 1 -66 -68z"/>
<path d="M14863 1746 c-8 -14 -61 -19 -321 -32 -114 -6 -132 -9 -130 -23 4
-19 80 -24 189 -12 41 5 75 7 77 6 2 -2 -8 -41 -22 -86 -39 -132 -59 -226 -52
-245 12 -31 25 -2 55 117 16 63 36 134 44 158 9 25 14 48 12 52 -5 7 69 19
117 19 23 0 28 -4 25 -17 -23 -84 -63 -219 -79 -267 -31 -92 -12 -93 73 -5 70
73 96 81 66 19 -17 -32 -12 -70 8 -70 8 0 19 27 29 68 13 56 13 69 2 81 -18
17 -48 7 -92 -31 -39 -35 -41 -31 -15 48 34 109 55 200 48 217 -8 21 -23 22
-34 3z"/>
<path d="M13344 1736 c-3 -9 -3 -23 0 -32 3 -9 -3 -50 -14 -93 -39 -152 -36
-243 8 -249 17 -3 22 2 22 17 0 12 -4 21 -10 21 -17 0 -11 97 11 191 11 48 19
102 17 120 -3 35 -24 50 -34 25z"/>
<path d="M2031 1718 c-6 -13 -20 -59 -31 -104 l-21 -81 -72 -2 c-73 -2 -95
-10 -83 -30 8 -12 46 -15 46 -3 0 4 22 5 48 4 l48 -4 -15 -58 c-14 -53 -14
-60 3 -84 22 -34 82 -64 97 -49 15 15 -6 54 -26 47 -39 -15 -56 40 -34 107 16
48 23 52 74 51 34 -2 50 3 66 19 15 15 18 24 10 32 -7 7 -14 7 -24 -1 -13 -11
-97 -28 -97 -20 0 3 9 40 21 84 11 43 22 85 22 93 3 24 -22 24 -32 -1z"/>
<path d="M10579 1673 c-31 -32 -65 -70 -76 -85 l-21 -28 -5 33 c-3 17 -9 54
-13 80 -5 35 -10 47 -21 45 -16 -3 -74 -143 -105 -252 -10 -38 -26 -75 -34
-81 -17 -12 -9 -45 11 -45 17 0 48 67 40 88 -3 9 -3 13 1 9 4 -4 19 30 34 76
14 45 32 91 38 102 10 18 11 16 12 -15 0 -38 18 -81 36 -87 6 -2 35 26 64 62
28 37 54 65 56 62 3 -3 -5 -38 -17 -78 -27 -89 -32 -194 -9 -194 11 0 16 14
18 51 1 29 16 98 33 155 51 173 44 190 -42 102z"/>
<path d="M15895 1697 c-60 -34 -81 -73 -89 -164 -4 -43 -11 -85 -16 -92 -5
-10 -28 -15 -67 -15 -44 -1 -58 -5 -58 -16 0 -11 10 -14 40 -12 63 4 71 -7 45
-59 -12 -24 -47 -79 -76 -121 -30 -43 -54 -82 -54 -88 0 -48 106 82 163 201
31 66 33 68 77 75 89 13 109 50 21 38 l-47 -6 4 63 c7 115 26 149 99 174 21 7
38 19 38 27 0 22 -37 20 -80 -5z"/>
<path d="M16702 1688 c-7 -7 -12 -17 -12 -23 0 -7 -11 -38 -24 -71 -23 -58
-25 -59 -68 -64 -29 -3 -43 -10 -43 -20 0 -11 11 -15 38 -14 l39 0 -6 -40 c-4
-21 -14 -45 -23 -51 -21 -16 -10 -68 14 -63 16 3 22 21 47 130 5 24 11 27 54
30 34 2 47 7 47 18 0 11 -10 14 -44 12 -32 -2 -42 1 -38 10 3 7 13 33 22 58
10 25 25 53 33 62 24 29 -9 53 -36 26z"/>
<path d="M12967 1644 c-4 -4 -7 -35 -7 -68 0 -91 -5 -103 -43 -98 -43 5 -77
-27 -77 -72 0 -71 77 -86 121 -24 18 24 23 51 29 137 5 77 4 110 -4 119 -7 7
-15 9 -19 6z m-23 -219 c-14 -48 -64 -60 -64 -16 0 31 10 39 47 37 18 -1 21
-5 17 -21z"/>
<path d="M16910 1620 c0 -13 7 -20 19 -20 25 0 38 20 20 31 -23 15 -39 10 -39
-11z"/>
<path d="M3674 1598 c-4 -6 1 -17 10 -24 15 -10 16 -22 10 -76 -8 -73 -26
-114 -54 -123 -26 -8 -40 1 -40 29 0 12 -6 31 -14 41 -12 17 -17 18 -40 7 -17
-7 -24 -17 -20 -24 5 -8 2 -9 -9 -5 -10 3 -17 3 -17 -2 0 -8 -41 -23 -47 -17
-2 1 11 22 28 46 17 24 37 58 45 75 12 29 11 35 -2 46 -12 10 -22 10 -51 0
-68 -25 -123 -52 -123 -61 0 -20 22 -19 77 4 32 13 60 22 62 20 2 -2 -13 -29
-33 -60 -65 -98 -32 -147 58 -85 l44 31 7 -28 c15 -62 60 -78 106 -39 39 32
49 58 59 149 8 72 8 83 -8 94 -21 17 -39 17 -48 2z"/>
<path d="M5805 1598 c-42 -23 -65 -51 -59 -71 4 -13 2 -17 -5 -12 -7 4 -19 1
-27 -6 -38 -32 -110 -222 -97 -256 4 -10 2 -14 -4 -10 -6 4 -15 -17 -22 -50
-11 -47 -11 -57 2 -70 19 -19 22 -13 67 118 l32 97 38 6 c68 11 160 120 160
189 0 27 -35 77 -53 77 -7 0 -21 -6 -32 -12z m45 -49 c23 -41 -70 -169 -122
-169 -36 0 -10 88 44 146 45 49 62 54 78 23z"/>
<path d="M15120 1596 c0 -8 4 -17 8 -20 13 -8 35 11 28 23 -10 16 -36 14 -36
-3z"/>
<path d="M6030 1559 c-50 -30 -113 -100 -117 -129 -8 -66 -7 -75 6 -75 7 0 21
21 31 47 26 68 53 102 106 129 26 13 47 29 48 34 2 19 -39 15 -74 -6z"/>
<path d="M2497 1546 c-33 -31 -67 -98 -67 -134 0 -17 9 -37 21 -48 39 -35 179
-21 179 17 0 5 -24 6 -54 3 -79 -10 -106 0 -106 36 0 22 4 28 15 24 19 -8 33
25 15 36 -18 11 23 50 53 50 21 -1 21 -1 -5 -25 -26 -22 -38 -55 -20 -55 10 0
55 31 64 44 14 20 8 55 -11 66 -31 16 -56 12 -84 -14z"/>
<path d="M3880 1555 c-10 -12 -16 -13 -27 -4 -7 7 -17 9 -21 5 -9 -10 -41
-169 -35 -178 11 -20 30 -4 45 40 31 86 53 112 93 112 23 0 35 5 35 14 0 28
-69 36 -90 11z"/>
<path d="M6369 1545 c-19 -13 -44 -29 -56 -34 -13 -6 -23 -19 -23 -31 0 -12
-13 -48 -30 -82 -16 -33 -27 -64 -24 -69 3 -5 1 -9 -4 -9 -10 0 -62 -145 -62
-174 0 -22 29 -21 36 2 3 9 18 47 32 84 23 57 29 65 44 57 24 -13 65 9 111 60
41 46 60 80 75 134 10 35 9 41 -13 63 -30 30 -44 30 -86 -1z m63 -50 c-5 -40
-27 -80 -74 -131 -39 -43 -68 -56 -68 -32 0 6 8 36 18 67 30 98 133 177 124
96z"/>
<path d="M6812 1533 c-29 -27 -72 -124 -72 -163 0 -22 28 -28 34 -7 41 137 53
157 93 157 14 0 23 6 23 15 0 8 -4 15 -9 15 -5 0 -16 3 -24 6 -9 3 -28 -7 -45
-23z"/>
<path d="M9442 1544 c-12 -8 -31 -33 -42 -54 -16 -32 -18 -44 -9 -67 14 -36
38 -63 68 -75 45 -17 173 43 148 69 -4 3 -29 -4 -56 -16 -61 -26 -83 -26 -104
-3 -23 25 -21 32 6 32 38 0 70 24 83 62 11 32 11 40 -2 53 -20 19 -64 19 -92
-1z m57 -48 c-7 -15 -22 -26 -40 -28 -33 -5 -35 -1 -13 30 8 12 26 22 39 22
22 0 24 -2 14 -24z"/>
<path d="M4067 1530 c-23 -18 -67 -79 -67 -93 0 -3 7 -13 16 -21 18 -18 66
-21 95 -6 15 8 19 7 19 -4 0 -26 35 -60 55 -52 16 6 17 8 1 24 -9 10 -16 33
-16 50 0 37 -8 39 -71 17 -55 -20 -68 -7 -33 34 22 27 32 32 55 27 32 -6 46 8
29 29 -17 21 -53 19 -83 -5z"/>
<path d="M6587 1530 c-14 -11 -37 -40 -51 -65 -23 -42 -24 -49 -12 -83 21 -62
98 -80 141 -32 20 22 4 36 -25 20 -29 -16 -74 -9 -78 12 -2 12 8 22 31 32 62
25 91 103 48 126 -25 13 -24 13 -54 -10z m33 -50 c-12 -22 -50 -46 -50 -32 0
5 9 21 21 36 23 29 45 26 29 -4z"/>
<path d="M7261 1516 c-7 -29 -27 -61 -83 -141 -12 -16 -28 15 -28 57 0 47 -17
91 -33 85 -13 -4 -13 -13 2 -106 5 -35 14 -68 20 -74 6 -6 -4 -32 -30 -73 -68
-112 -90 -190 -51 -182 9 2 16 10 14 17 -4 21 54 132 133 251 103 155 121 200
80 200 -8 0 -18 -15 -24 -34z"/>
<path d="M12354 1502 c-10 -26 -23 -62 -31 -81 -17 -43 -16 -51 2 -51 9 0 28
20 43 44 15 24 32 52 39 62 10 16 11 12 10 -26 -3 -65 20 -64 89 5 31 31 59
54 61 51 3 -3 0 -19 -6 -37 -22 -64 -11 -97 29 -84 20 7 28 35 10 35 -7 0 -8
18 -4 50 7 52 -5 80 -32 80 -8 0 -36 -23 -62 -51 l-48 -51 0 48 1 49 -42 2
c-41 1 -42 0 -59 -45z"/>
<path d="M13479 1511 c-32 -32 -39 -46 -39 -78 0 -65 17 -78 100 -77 52 0 75
5 87 17 25 24 10 30 -45 18 -51 -10 -92 -5 -104 13 -13 19 -9 21 33 21 70 0
116 75 67 109 -35 25 -57 19 -99 -23z m81 -14 c0 -20 -22 -37 -47 -37 -27 0
-29 7 -6 32 19 21 53 24 53 5z"/>
<path d="M4566 1505 c-48 -29 -56 -31 -51 -15 4 14 1 22 -10 27 -21 7 -35 -12
-35 -49 0 -14 -15 -58 -34 -97 -36 -75 -73 -197 -63 -207 16 -16 35 11 66 92
57 148 68 168 115 201 24 17 54 34 66 38 21 7 22 5 16 -21 -9 -34 -52 -93 -69
-96 -7 -1 -25 -2 -42 -2 -23 -1 -30 -6 -30 -21 0 -33 53 -32 101 3 67 49 99
148 55 172 -25 13 -19 15 -85 -25z"/>
<path d="M5006 1515 c-25 -26 -56 -108 -56 -144 0 -12 7 -21 14 -21 10 0 21
22 32 59 23 82 71 129 88 86 7 -19 36 -20 36 -1 0 20 -39 46 -68 46 -12 0 -34
-11 -46 -25z"/>
<path d="M4364 1516 c-13 -10 -23 -11 -31 -4 -15 12 -43 -6 -43 -28 0 -15 -86
-247 -106 -286 -18 -35 -18 -68 0 -68 13 0 57 94 86 183 12 37 13 38 27 18 42
-61 146 33 145 131 -1 63 -34 86 -78 54z m44 -55 c4 -25 -40 -106 -63 -115 -8
-3 -15 -1 -15 4 0 5 -7 16 -15 24 -14 14 -14 18 2 43 23 36 65 73 78 69 6 -1
11 -12 13 -25z"/>
<path d="M4782 1513 c-19 -9 -44 -32 -58 -52 -61 -90 5 -158 115 -120 34 12
37 36 5 32 -63 -8 -97 -5 -105 8 -4 8 -5 15 -1 16 4 1 20 4 35 7 15 4 25 11
22 16 -3 5 1 7 9 4 24 -9 58 33 54 69 -4 39 -27 45 -76 20z m48 -28 c0 -12
-46 -45 -64 -45 -19 1 -18 3 9 25 27 22 55 33 55 20z"/>
<path d="M6157 1512 c-25 -15 -41 -36 -68 -93 -12 -26 13 -64 45 -67 50 -6
113 72 100 125 -13 55 -30 63 -77 35z m33 -42 c13 -8 13 -12 0 -36 -8 -15 -25
-33 -37 -42 -20 -13 -23 -13 -29 2 -6 15 31 86 44 86 4 0 14 -5 22 -10z"/>
<path d="M7988 1510 c-25 -19 -58 -76 -58 -99 0 -21 48 -61 73 -61 34 0 73 34
80 69 9 41 -9 86 -39 100 -31 14 -27 15 -56 -9z m62 -63 c0 -35 -22 -59 -50
-55 -33 4 -36 31 -10 68 18 25 25 28 41 20 10 -6 19 -21 19 -33z"/>
<path d="M11477 1498 c-60 -80 -71 -134 -37 -168 46 -46 122 -53 165 -15 26
21 27 25 11 31 -9 4 -22 2 -29 -5 -14 -14 -69 -14 -101 0 -28 13 -42 38 -23
43 54 14 74 26 100 58 29 36 29 38 13 63 -24 37 -68 34 -99 -7z m64 -27 c-12
-21 -29 -35 -55 -45 -18 -6 -18 -5 -1 21 21 34 45 54 57 47 4 -3 4 -13 -1 -23z"/>
<path d="M15252 1518 c-28 -14 -36 -46 -29 -103 7 -49 -5 -65 -31 -42 -21 19
-54 25 -58 12 -5 -15 7 -28 44 -48 31 -18 34 -18 58 -2 23 15 25 22 23 73 -4
70 4 84 44 80 26 -2 32 1 32 17 0 24 -46 31 -83 13z"/>
<path d="M10691 1494 c-25 -21 -31 -33 -31 -65 0 -43 31 -85 57 -75 8 3 21 6
29 6 23 0 64 47 64 73 0 13 -7 38 -16 55 -20 41 -60 43 -103 6z m70 -34 c24
-13 24 -25 -1 -50 -26 -26 -56 -26 -63 2 -12 45 21 70 64 48z"/>
<path d="M16224 1506 c-13 -10 -23 -11 -31 -4 -14 11 -33 2 -33 -16 0 -7 -11
-35 -25 -62 -31 -60 -17 -86 21 -39 43 54 87 95 99 95 27 0 38 -28 25 -61 -9
-20 -10 -33 -3 -40 14 -14 30 8 38 53 6 31 3 41 -19 62 -29 30 -44 32 -72 12z"/>
<path d="M16465 1513 c-30 -7 -83 -50 -90 -72 -9 -30 20 -77 56 -90 40 -14 76
-14 84 0 9 14 3 19 -31 25 -51 9 -63 15 -70 36 -8 27 23 58 67 67 20 4 34 13
34 21 0 16 -19 21 -50 13z"/>
<path d="M12677 1480 c-64 -76 -33 -143 57 -126 57 11 87 65 66 117 -7 16 -13
29 -14 30 0 0 -19 2 -42 5 -37 5 -44 2 -67 -26z m91 -39 c5 -32 -15 -51 -54
-51 -38 0 -45 20 -19 57 20 29 69 25 73 -6z"/>
<path d="M16861 1458 c-28 -62 -31 -98 -8 -98 6 0 20 24 30 53 23 68 24 79 9
84 -7 3 -20 -13 -31 -39z"/>
<path d="M13045 1471 c-24 -77 6 -124 81 -125 39 -1 50 3 67 26 25 34 30 113
7 113 -10 0 -17 -14 -21 -42 -7 -55 -24 -75 -58 -67 -38 9 -46 21 -46 66 0 44
-19 62 -30 29z"/>
<path d="M15960 1449 c-12 -23 -20 -54 -18 -72 3 -29 7 -32 39 -35 39 -3 53 8
88 71 25 46 26 60 4 55 -9 -2 -29 -23 -43 -48 -26 -44 -60 -65 -60 -38 0 8 9
31 20 52 19 38 19 56 0 56 -5 0 -19 -18 -30 -41z"/>
<path d="M11072 1467 c-21 -24 -24 -64 -8 -95 20 -38 47 -47 84 -28 29 15 76
92 66 108 -12 18 -31 6 -47 -31 -19 -43 -42 -57 -63 -40 -17 14 -18 51 -3 66
11 11 5 33 -10 33 -5 0 -13 -6 -19 -13z"/>
<path d="M15067 1463 c-2 -5 -4 -21 -6 -38 -1 -16 -3 -39 -4 -50 -1 -12 4 -20
13 -20 17 0 36 74 27 99 -7 17 -23 21 -30 9z"/>
<path d="M17010 1445 c-55 -41 -60 -55 -30 -85 22 -22 79 -27 98 -8 7 7 12 36
12 65 0 49 -2 53 -23 53 -13 0 -38 -11 -57 -25z m48 -42 c-3 -30 -24 -39 -48
-23 -13 9 -11 13 10 30 34 27 42 25 38 -7z"/>
<path d="M17176 1433 c-20 -21 -36 -43 -36 -50 0 -31 34 -22 100 25 23 16 24
16 17 -2 -12 -32 19 -68 55 -64 40 4 48 26 11 30 -25 3 -28 7 -28 43 0 37 -2
40 -27 40 -14 0 -30 3 -34 8 -13 13 -22 8 -58 -30z"/>
<path d="M13955 1380 c-8 -12 2 -30 17 -30 6 0 16 -7 23 -17 12 -16 35 -11 35
8 0 14 -38 49 -54 49 -8 0 -18 -4 -21 -10z"/>
<path d="M8307 1254 c-38 -20 -47 -29 -41 -42 16 -35 15 -140 -1 -265 -18
-135 -25 -370 -12 -383 4 -5 18 -2 30 5 12 8 51 15 87 16 48 1 65 5 65 15 0
16 -39 29 -70 24 -11 -1 -35 -5 -54 -8 l-34 -6 6 132 c4 73 14 185 22 248 9
67 13 138 10 171 -8 66 -4 69 90 78 44 4 60 10 60 21 0 28 -102 24 -158 -6z"/>
<path d="M3545 1260 c-3 -5 -13 -51 -21 -102 -15 -94 -51 -213 -86 -281 -10
-21 -16 -42 -13 -47 13 -21 33 -8 50 33 21 48 72 107 93 107 11 0 13 -16 11
-77 -3 -64 -1 -78 11 -78 11 0 17 19 24 72 7 61 6 76 -8 98 -17 25 -50 33 -61
15 -3 -5 -11 -10 -16 -10 -6 0 -7 4 -4 10 11 17 55 251 49 261 -7 12 -21 12
-29 -1z"/>
<path d="M2056 1235 c-9 -9 -16 -30 -16 -47 0 -41 -23 -130 -67 -264 -49 -150
-33 -187 37 -86 48 68 91 112 112 112 16 0 15 -6 -7 -65 -27 -72 -32 -115 -12
-115 6 0 25 41 42 91 32 100 29 122 -20 127 -22 3 -37 -6 -76 -47 -27 -28 -49
-50 -49 -48 0 1 9 25 19 52 10 28 31 104 46 169 27 120 24 154 -9 121z"/>
<path d="M3352 1237 c-6 -7 -9 -22 -6 -33 2 -10 -4 -48 -13 -84 l-18 -65 -58
0 c-55 -1 -85 -14 -74 -32 4 -6 31 -8 62 -5 30 2 55 3 55 1 0 -2 -11 -40 -25
-84 -29 -93 -30 -105 -10 -105 9 0 17 6 20 13 2 6 14 47 27 91 19 63 28 80 48
88 23 9 23 11 8 22 -15 11 -15 17 4 87 11 40 21 83 22 94 1 23 -26 31 -42 12z"/>
<path d="M5854 1236 c-65 -29 -123 -140 -139 -266 -11 -90 -8 -87 -68 -79 -53
7 -80 -2 -61 -21 6 -6 34 -13 62 -17 29 -3 52 -6 52 -7 0 -1 -11 -39 -23 -86
-26 -93 -37 -118 -74 -168 -24 -32 -24 -52 0 -52 31 0 127 220 127 290 0 12
10 17 33 18 44 2 90 19 82 31 -3 6 -28 7 -55 4 -58 -7 -57 -11 -36 107 22 125
69 202 132 219 30 8 40 34 14 38 -8 1 -29 -4 -46 -11z"/>
<path d="M6715 1220 c-3 -5 -3 -14 0 -20 3 -5 -3 -40 -14 -77 -11 -37 -25 -87
-31 -110 -9 -37 -14 -42 -43 -45 -42 -4 -45 -34 -4 -31 25 2 28 -1 24 -20 -14
-56 -19 -125 -9 -131 16 -10 26 13 37 84 l10 65 48 3 c39 3 48 6 45 20 -3 13
-12 16 -41 14 l-38 -3 7 38 c4 21 17 73 30 116 13 43 21 84 17 92 -6 17 -29
20 -38 5z"/>
<path d="M10034 1199 c-3 -6 -1 -16 5 -22 12 -12 14 -53 5 -109 -6 -33 -10
-37 -43 -43 -20 -3 -50 -1 -66 5 -19 7 -31 8 -39 0 -18 -18 11 -34 74 -38 50
-4 60 -7 56 -21 -22 -80 -13 -173 18 -179 15 -3 17 2 11 42 -9 57 3 156 18
161 7 2 25 6 40 10 39 8 28 31 -13 27 -29 -2 -32 0 -26 20 13 46 18 107 12
132 -7 27 -39 36 -52 15z"/>
<path d="M16085 1198 c-17 -49 -48 -149 -76 -241 -30 -98 -31 -109 -17 -124
20 -20 41 -7 34 20 -4 18 9 69 79 296 8 25 12 48 9 53 -8 12 -24 10 -29 -4z"/>
<path d="M15769 1173 c-54 -45 -58 -54 -59 -130 l0 -72 -47 -13 c-29 -8 -48
-19 -48 -28 0 -16 9 -16 63 -5 39 9 41 -3 7 -43 -27 -32 -31 -47 -16 -57 13
-7 48 31 69 75 13 26 15 48 10 85 -12 96 -10 111 22 142 17 15 40 28 53 28 15
0 22 6 22 20 0 31 -37 30 -76 -2z"/>
<path d="M14253 1093 c-41 -160 -68 -258 -73 -263 -12 -12 -8 -29 10 -45 23
-21 42 -11 34 19 -3 12 7 67 22 121 15 55 35 131 45 169 10 38 16 72 13 77
-15 25 -31 1 -51 -78z"/>
<path d="M13855 1098 c-3 -13 -5 -32 -4 -43 1 -11 1 -37 1 -57 -2 -36 -3 -37
-31 -32 -36 8 -67 -9 -91 -49 -38 -61 -21 -127 32 -127 48 0 103 61 117 132
15 69 11 190 -6 195 -7 3 -15 -6 -18 -19z m-25 -178 c13 -8 13 -12 0 -36 -8
-15 -28 -36 -43 -48 -24 -18 -29 -19 -37 -6 -14 21 -12 31 10 68 20 32 43 40
70 22z"/>
<path d="M6876 1102 c-8 -14 20 -34 41 -30 28 5 22 33 -9 36 -14 2 -29 -1 -32
-6z"/>
<path d="M2502 1063 c-30 -12 -33 -42 -8 -86 26 -43 36 -103 22 -125 -5 -9
-20 -10 -44 -6 -46 8 -67 23 -52 38 17 17 12 28 -11 24 -12 -2 -27 -11 -33
-20 -9 -14 -6 -23 16 -45 34 -34 124 -45 151 -18 25 25 22 93 -8 151 -30 58
-29 52 -7 57 9 2 32 -5 50 -16 31 -18 62 -18 62 2 0 5 -18 18 -40 30 -39 20
-71 25 -98 14z"/>
<path d="M11029 1044 l-46 -25 -5 -91 c-6 -100 -3 -118 18 -118 10 0 14 14 14
48 1 26 5 67 9 92 13 65 75 109 83 58 2 -12 9 -23 17 -26 8 -3 11 0 7 7 -4 6
-2 11 3 11 18 0 12 29 -9 50 -25 25 -34 25 -91 -6z"/>
<path d="M7518 1042 c-40 -5 -54 -26 -38 -60 7 -15 21 -51 31 -80 l18 -53 -32
3 c-26 2 -32 7 -30 26 3 25 -5 28 -31 9 -47 -35 41 -95 99 -69 32 15 32 44 1
122 l-25 60 24 6 c13 3 33 0 45 -6 16 -9 25 -9 33 -1 22 22 -40 50 -95 43z"/>
<path d="M8848 1025 c-52 -35 -70 -97 -48 -162 15 -41 46 -54 100 -42 49 11
120 46 120 59 0 20 -21 19 -72 -5 -55 -26 -93 -32 -103 -16 -3 5 3 12 14 16
27 8 99 89 107 120 14 56 -53 74 -118 30z m73 -43 c-5 -10 -27 -34 -48 -53
l-38 -33 -3 27 c-4 36 11 61 50 80 37 18 55 9 39 -21z"/>
<path d="M9429 1042 c-14 -2 -43 -18 -63 -36 -20 -19 -39 -30 -42 -25 -3 5
-13 9 -24 9 -16 0 -19 -12 -25 -97 -3 -54 -10 -108 -16 -121 -15 -37 -11 -92
7 -99 23 -9 32 12 40 95 6 69 8 73 28 68 11 -3 30 -9 42 -12 42 -11 114 97
114 171 0 29 -29 51 -61 47z m24 -39 c8 -14 -22 -98 -43 -121 -24 -25 -39 -27
-64 -9 -23 17 -9 53 39 101 34 34 59 45 68 29z"/>
<path d="M11887 1043 c-10 -15 10 -35 29 -31 26 5 24 32 -3 36 -11 2 -23 -1
-26 -5z"/>
<path d="M15890 1036 c0 -18 30 -30 43 -17 5 5 6 14 3 20 -10 16 -46 13 -46
-3z"/>
<path d="M3753 1007 c-15 -13 -35 -26 -44 -29 -15 -6 -24 -42 -32 -123 -4 -43
27 -19 46 35 24 71 51 100 93 100 42 0 53 17 19 30 -38 15 -50 13 -82 -13z"/>
<path d="M11305 1013 c-32 -8 -95 -75 -106 -114 -14 -46 10 -103 52 -124 34
-18 130 -20 147 -3 21 21 13 26 -32 21 -57 -7 -90 2 -116 29 -20 22 -25 52
-14 82 5 13 10 12 34 -5 25 -19 32 -20 65 -9 47 15 75 66 57 105 -12 25 -36
30 -87 18z m50 -62 c-7 -23 -53 -40 -64 -24 -3 6 -12 12 -20 15 -9 2 3 13 29
26 48 23 66 18 55 -17z"/>
<path d="M12051 993 c-11 -16 -27 -35 -34 -43 -24 -26 -40 -160 -20 -167 16
-6 39 41 59 121 18 74 39 93 62 58 17 -26 28 -28 35 -8 9 22 -31 66 -58 66
-14 0 -32 -11 -44 -27z"/>
<path d="M3974 1000 c-33 -13 -74 -73 -74 -107 0 -39 26 -71 65 -81 40 -11 90
-1 90 18 0 11 -10 14 -42 12 -32 -3 -46 1 -62 17 -30 30 -26 37 18 33 33 -3
41 0 58 25 27 38 32 55 21 76 -9 18 -39 21 -74 7z m32 -55 c-18 -27 -24 -29
-44 -17 -10 7 -8 12 5 24 19 16 45 28 52 22 2 -2 -4 -15 -13 -29z"/>
<path d="M6990 1000 c0 -5 -16 -30 -35 -56 -41 -53 -42 -62 -14 -98 46 -59
139 -11 139 72 0 30 -6 42 -34 65 -36 28 -56 34 -56 17z m41 -60 c25 -14 24
-33 -5 -67 -20 -23 -28 -26 -43 -17 -26 16 -27 37 -3 67 24 31 24 31 51 17z"/>
<path d="M7258 986 c-26 -17 -39 -21 -47 -13 -15 15 -25 3 -56 -75 -24 -63
-26 -88 -6 -88 5 0 27 27 50 59 44 63 97 114 111 106 4 -3 3 -22 -2 -42 -14
-51 -15 -108 -3 -110 13 -2 46 114 43 152 -4 40 -41 45 -90 11z"/>
<path d="M9045 1000 c-4 -6 10 -31 30 -56 42 -50 39 -60 -22 -89 -32 -16 -34
-18 -19 -33 14 -15 20 -13 62 16 l45 33 31 -26 c28 -24 48 -26 48 -3 0 5 -12
19 -26 30 l-25 21 30 31 c31 32 42 72 19 63 -7 -2 -11 -11 -10 -18 2 -8 0 -11
-4 -6 -4 4 -20 -4 -35 -19 l-27 -25 -37 45 c-39 47 -49 54 -60 36z"/>
<path d="M10202 997 c-20 -9 -23 -16 -19 -43 3 -18 17 -50 31 -71 43 -62 29
-88 -29 -55 -28 17 -36 18 -45 7 -18 -22 44 -56 95 -53 35 3 40 6 43 31 2 17
-8 48 -27 81 -17 29 -31 58 -31 64 0 14 57 21 70 8 14 -14 35 8 27 28 -8 19
-79 21 -115 3z"/>
<path d="M2254 978 c-56 -62 -66 -95 -38 -123 18 -18 65 -15 91 7 15 12 16 10
10 -14 -6 -22 -3 -30 14 -39 28 -15 45 1 30 30 -7 13 -8 34 -3 58 5 21 8 52 8
68 -1 28 -3 30 -46 33 -37 2 -50 -1 -66 -20z m74 -17 c11 -6 7 -16 -18 -45
-55 -62 -97 -40 -44 23 27 32 40 37 62 22z"/>
<path d="M4142 980 c-7 -11 -15 -39 -18 -63 -6 -53 21 -102 61 -110 32 -6 108
18 126 39 18 22 -13 28 -56 10 -47 -20 -60 -20 -79 0 -25 24 -19 41 19 54 36
12 53 44 41 75 -9 24 -78 20 -94 -5z m58 -19 c0 -12 -20 -25 -27 -18 -7 7 6
27 18 27 5 0 9 -4 9 -9z"/>
<path d="M9783 976 c-25 -22 -28 -31 -28 -88 0 -56 2 -63 20 -63 18 0 20 6 17
53 -5 63 8 82 54 82 36 0 54 17 33 31 -25 16 -68 9 -96 -15z"/>
<path d="M16149 981 c-70 -55 -74 -141 -9 -174 43 -21 135 -20 135 2 0 10 -14
15 -50 16 -88 3 -132 47 -60 61 37 7 75 44 75 73 0 42 -51 54 -91 22z m51 -31
c0 -12 -40 -34 -47 -26 -9 8 17 36 33 36 8 0 14 -4 14 -10z"/>
<path d="M13180 967 c0 -13 -9 -50 -20 -83 -24 -72 -24 -84 -4 -84 8 0 22 17
30 38 25 59 56 104 65 95 5 -5 5 -23 -1 -41 -21 -74 9 -80 82 -15 l53 47 5
-52 c6 -56 20 -78 45 -69 14 6 14 9 -1 32 -11 17 -14 35 -10 60 7 35 -6 75
-24 75 -5 0 -33 -19 -62 -43 l-54 -44 4 34 c5 41 -14 66 -45 60 -13 -2 -26 0
-29 4 -11 18 -34 8 -34 -14z"/>
<path d="M16346 978 c-2 -7 -14 -42 -25 -77 -12 -36 -21 -71 -21 -78 0 -28 29
-11 59 35 17 27 42 59 57 73 l26 24 -7 -60 c-8 -65 7 -94 41 -81 13 5 14 9 4
21 -9 11 -11 33 -6 71 10 85 -16 106 -73 58 -31 -26 -31 -26 -29 -4 3 25 -19
40 -26 18z"/>
<path d="M16596 969 c-31 -24 -48 -61 -40 -84 8 -19 56 -45 83 -45 13 0 21 -8
23 -22 2 -13 11 -24 22 -26 16 -3 18 0 12 22 -4 18 1 41 18 74 23 46 22 83 -2
69 -5 -4 -17 2 -27 13 -23 26 -56 25 -89 -1z m74 -34 c25 -31 -9 -63 -55 -51
-29 7 -32 22 -8 48 20 22 46 23 63 3z"/>
<path d="M6374 961 c-35 -22 -74 -78 -74 -109 0 -48 127 -104 165 -72 26 22
16 30 -34 30 -37 0 -56 6 -76 23 l-25 22 19 32 c27 43 74 67 102 52 17 -9 23
-8 30 2 21 34 -60 49 -107 20z"/>
<path d="M9554 961 c-20 -12 -37 -34 -44 -56 -11 -33 -10 -39 11 -61 26 -28
66 -31 108 -9 33 16 41 33 41 80 0 60 -57 82 -116 46z m79 -42 c8 -30 -1 -46
-34 -60 -26 -10 -33 -10 -46 4 -24 23 -4 64 34 70 15 2 31 5 34 6 4 0 9 -8 12
-20z"/>
<path d="M12243 943 c-66 -71 -63 -66 -52 -106 12 -45 42 -67 90 -67 40 0 109
25 109 40 0 18 -18 19 -62 4 -33 -11 -52 -12 -71 -5 -25 10 -37 30 -19 32 111
11 164 67 112 119 -31 31 -67 25 -107 -17z m85 -25 c2 -11 -8 -20 -33 -28 -50
-16 -60 -9 -35 23 24 31 63 34 68 5z"/>
<path d="M13544 965 c-47 -32 -55 -113 -14 -135 25 -13 84 9 99 38 38 70 -24
140 -85 97z m50 -31 c9 -3 16 -12 16 -20 0 -19 -36 -54 -55 -54 -20 0 -19 39
2 62 18 21 16 20 37 12z"/>
<path d="M14369 965 c-39 -21 -79 -79 -79 -115 0 -22 9 -41 30 -62 29 -28 34
-30 81 -24 68 9 99 22 99 42 0 13 -6 15 -32 9 -76 -16 -108 -17 -123 -5 -27
22 -18 40 20 40 39 0 105 50 105 80 0 37 -60 58 -101 35z m55 -34 c3 -4 -2
-15 -12 -23 -42 -36 -80 -26 -42 12 21 21 45 26 54 11z"/>
<path d="M16876 973 c-4 -4 -18 -7 -33 -8 -22 0 -28 -7 -38 -43 -7 -23 -19
-49 -25 -57 -7 -8 -9 -22 -6 -31 6 -15 8 -15 27 2 12 10 27 31 35 46 16 32 42
58 56 58 11 0 7 -41 -7 -72 -14 -33 24 -33 58 -1 18 17 42 36 55 42 21 11 22
10 22 -43 0 -38 4 -55 15 -59 20 -8 22 0 16 73 -6 62 -7 65 -33 68 -15 2 -38
-4 -50 -12 -21 -15 -23 -14 -34 14 -12 28 -41 40 -58 23z"/>
<path d="M17184 970 c-21 -8 -64 -86 -64 -116 0 -9 15 -31 34 -50 31 -31 39
-34 93 -34 62 0 102 18 89 39 -4 6 -15 9 -24 7 -10 -3 -38 -7 -65 -7 -36 -2
-51 2 -61 17 -17 22 -10 28 47 38 61 11 76 80 21 104 -29 14 -41 14 -70 2z
m55 -39 c19 -12 6 -28 -30 -36 -38 -9 -42 -4 -23 23 16 23 31 27 53 13z"/>
<path d="M11510 957 c-32 -17 -61 -73 -51 -101 7 -16 17 -21 45 -21 20 0 36
-2 36 -4 0 -2 -18 -75 -41 -163 -33 -129 -38 -162 -28 -174 11 -13 17 -10 49
21 25 25 50 38 81 43 29 5 44 13 44 22 0 23 -40 23 -90 1 -42 -18 -46 -19 -41
-3 20 68 76 315 76 335 0 40 -42 63 -80 44z m38 -44 c4 -13 -32 -53 -48 -53
-15 0 -12 17 6 46 17 25 34 28 42 7z"/>
<path d="M15874 953 c-3 -10 -11 -31 -17 -47 -8 -23 -8 -31 1 -34 7 -2 10 -8
6 -13 -3 -5 -1 -9 5 -9 12 0 44 96 36 110 -10 16 -25 12 -31 -7z"/>
<path d="M6183 933 c-16 -16 -35 -32 -43 -35 -8 -2 -15 -19 -17 -41 -3 -55 27
-50 55 9 12 25 28 44 34 42 6 -2 12 -26 12 -54 1 -36 5 -49 16 -49 12 0 15 14
15 64 0 55 -3 66 -22 78 -21 14 -25 13 -50 -14z"/>
<path d="M11639 921 c-14 -48 0 -94 37 -118 20 -13 26 -13 58 2 44 21 68 57
64 98 -3 36 -33 46 -34 12 -1 -37 -14 -62 -40 -76 -38 -20 -57 9 -49 74 6 39
4 47 -9 47 -9 0 -20 -16 -27 -39z"/>
<path d="M11887 953 c-2 -4 -7 -29 -11 -54 -5 -35 -3 -49 9 -59 19 -16 24 -4
27 64 2 30 -1 50 -9 53 -6 2 -13 0 -16 -4z"/>
<path d="M5951 924 c-47 -60 -10 -166 53 -150 35 9 78 68 74 102 -4 39 -24 41
-32 3 -7 -36 -32 -69 -52 -69 -37 0 -40 84 -3 93 24 7 24 23 0 37 -16 8 -23 5
-40 -16z"/>
<path d="M13986 925 c-25 -38 -21 -90 10 -114 16 -12 32 -17 43 -13 28 11 74
70 67 87 -8 21 -35 19 -43 -2 -12 -35 -35 -54 -50 -42 -18 16 -16 32 8 63 21
26 18 46 -5 46 -8 0 -21 -11 -30 -25z"/>
<path d="M6819 928 c-1 -2 -2 -14 -4 -28 -1 -14 -4 -29 -5 -35 -5 -21 1 -35
15 -35 16 0 31 60 21 85 -4 12 -24 21 -27 13z"/>
<path d="M12585 860 c-3 -5 2 -21 11 -35 21 -32 13 -62 -31 -115 -36 -43 -45
-70 -22 -70 12 0 61 54 84 94 17 29 16 87 -3 114 -16 24 -29 28 -39 12z"/>
<path d="M17494 826 c-3 -9 -4 -23 0 -31 7 -18 -37 -71 -76 -91 -30 -16 -33
-40 -4 -38 55 5 143 115 120 151 -15 24 -33 28 -40 9z"/>
<path d="M10526 821 c-4 -5 -3 -16 0 -25 9 -23 -15 -84 -48 -122 -28 -31 -30
-54 -7 -54 39 0 109 152 92 197 -6 15 -29 17 -37 4z"/>
<path d="M15075 820 c-11 -18 5 -29 38 -28 18 0 51 -5 74 -11 32 -9 48 -9 64
-1 28 15 18 22 -49 37 -71 15 -119 16 -127 3z"/>
<path d="M15360 821 c-30 -3 -54 -9 -52 -13 1 -5 2 -11 2 -15 0 -5 36 -8 80
-8 44 0 80 4 80 8 0 5 5 5 10 2 6 -3 10 -1 10 5 0 11 -44 31 -63 28 -7 -1 -37
-4 -67 -7z"/>
<path d="M14707 804 c-4 -4 -4 -17 -1 -29 4 -16 -1 -27 -17 -39 -13 -9 -28
-16 -34 -16 -5 0 -3 4 5 10 8 5 11 12 7 16 -4 4 -13 2 -19 -4 -15 -15 5 -62
26 -62 12 0 76 63 76 75 0 2 -4 15 -10 29 -9 26 -21 32 -33 20z"/>
<path d="M4575 788 c-16 -5 -57 -10 -90 -11 -46 -2 -60 -6 -60 -17 0 -12 16
-15 93 -14 105 2 105 2 77 -89 -21 -70 -65 -293 -65 -331 0 -31 -3 -34 -37
-39 -21 -4 -42 -2 -50 5 -25 20 -39 -7 -19 -37 14 -21 20 -23 36 -15 10 5 34
10 52 10 48 0 56 9 56 65 0 60 35 245 63 333 19 56 19 67 7 104 -15 47 -21 50
-63 36z"/>
<path d="M2704 699 c-3 -6 -3 -37 0 -69 4 -32 4 -81 0 -108 -6 -44 -8 -48 -29
-44 -30 5 -76 -20 -110 -60 -22 -26 -26 -39 -21 -67 7 -46 28 -65 71 -65 27 0
44 8 70 35 42 41 52 86 56 252 3 102 1 120 -13 128 -11 6 -19 5 -24 -2z m-23
-269 c18 -10 18 -13 4 -47 -19 -44 -42 -64 -75 -60 -20 2 -26 8 -28 33 -2 25
3 37 28 58 35 29 43 31 71 16z"/>
<path d="M2890 600 c0 -24 27 -37 43 -21 8 8 8 11 -1 11 -7 0 -12 7 -12 15 0
8 -7 15 -15 15 -8 0 -15 -9 -15 -20z"/>
<path d="M3032 490 c-18 -4 -44 -17 -56 -29 -13 -12 -30 -21 -37 -19 -10 2
-15 -14 -20 -62 -6 -72 -4 -80 17 -80 8 0 14 10 14 24 0 56 46 126 82 126 10
0 27 -5 38 -12 10 -7 22 -9 26 -5 8 7 -15 68 -25 66 -3 -1 -21 -5 -39 -9z"/>
<path d="M2835 478 c-40 -111 -48 -188 -20 -188 8 0 15 3 16 8 1 4 3 24 4 45
5 54 23 104 40 111 8 3 12 12 9 21 -7 18 -43 20 -49 3z"/>
<path d="M3172 481 c-8 -5 -11 -17 -7 -33 4 -16 -3 -48 -19 -88 -31 -75 -31
-80 -8 -80 12 0 25 15 36 40 29 66 129 135 112 78 -4 -13 -10 -49 -13 -82 -5
-53 -4 -58 13 -54 11 2 18 11 16 21 -1 9 4 43 13 76 28 110 13 129 -68 86
l-49 -25 4 25 c6 28 -11 48 -30 36z"/>
<path d="M4073 480 c-27 -11 -51 -46 -58 -86 -8 -40 63 -153 97 -155 58 -4
115 4 137 18 35 23 7 34 -50 21 -61 -14 -90 -6 -113 33 -15 26 -16 33 -5 40 8
5 17 9 21 9 3 0 20 12 37 26 65 55 15 126 -66 94z m53 -42 c9 -14 -31 -48 -57
-48 -25 0 -24 15 1 40 22 22 45 26 56 8z"/>
<path d="M3809 439 l-39 -42 0 32 c0 38 -21 49 -58 30 -15 -7 -34 -13 -42 -14
-8 0 -16 -9 -18 -20 -2 -11 -10 -37 -18 -58 -14 -37 -12 -57 6 -57 4 0 22 24
39 54 46 83 72 90 53 14 -8 -30 -8 -46 0 -55 12 -15 29 0 87 75 47 61 71 54
71 -23 0 -43 9 -65 26 -65 20 0 18 87 -4 130 -25 52 -55 51 -103 -1z"/>
<path d="M3454 460 c-29 -11 -64 -58 -64 -85 0 -26 39 -65 66 -65 11 0 29 7
41 15 21 15 22 14 25 -21 3 -42 30 -66 49 -47 9 9 9 16 -2 29 -9 11 -13 36
-10 80 2 54 0 64 -17 73 -42 22 -68 28 -88 21z m52 -44 c19 -14 19 -15 -5 -40
-27 -29 -53 -33 -70 -12 -8 10 -6 19 10 40 23 30 37 32 65 12z"/>
<path d="M2254 315 c-4 -10 -1 -21 7 -26 18 -11 156 -12 163 0 12 18 -24 32
-76 30 -29 -2 -61 1 -70 5 -13 6 -20 3 -24 -9z"/>
<path d="M1974 285 c-8 -21 5 -37 25 -30 10 3 51 6 90 6 62 1 72 3 69 17 -3
14 -18 17 -91 19 -67 1 -89 -2 -93 -12z"/>
</g>
</svg>
