<?xml version="1.0" standalone="no"?>
<!DOCTYPE svg PUBLIC "-//W3C//DTD SVG 20010904//EN"
 "http://www.w3.org/TR/2001/REC-SVG-20010904/DTD/svg10.dtd">
<svg version="1.0" xmlns="http://www.w3.org/2000/svg"
 width="1872.000000pt" height="1404.000000pt" viewBox="0 0 1872.000000 1404.000000"
 preserveAspectRatio="xMidYMid meet">

<g transform="translate(0.000000,1404.000000) scale(0.100000,-0.100000)"
fill="#000000" stroke="none">
<path d="M14792 13532 c-7 -5 -10 -16 -7 -24 4 -9 -3 -35 -15 -58 -12 -23 -23
-51 -25 -61 -4 -22 -35 -56 -35 -40 0 18 -68 12 -109 -9 -53 -26 -108 -93
-116 -140 -7 -40 12 -99 42 -132 20 -22 11 -46 -57 -148 -28 -41 -50 -83 -50
-92 0 -30 27 -20 47 16 65 121 109 185 123 179 53 -22 126 14 181 90 36 50 36
67 -1 141 l-30 58 45 92 c24 50 46 100 47 111 3 21 -19 30 -40 17z m-124 -234
c7 -9 -6 -40 -44 -108 -30 -52 -58 -96 -63 -98 -15 -5 -41 54 -41 92 0 28 9
45 43 81 45 46 84 58 105 33z m83 -85 l18 -42 -30 -41 c-46 -63 -122 -101
-135 -67 -8 21 96 199 114 195 8 -2 23 -22 33 -45z"/>
<path d="M8037 13516 c-9 -10 -18 -43 -22 -83 -15 -167 -32 -223 -93 -299 -27
-34 -77 -62 -89 -50 -17 16 14 62 54 81 26 12 42 27 43 38 0 22 -12 22 -61 -3
-44 -23 -79 -71 -79 -111 0 -74 92 -60 161 26 53 66 79 135 90 237 5 51 14
108 20 126 13 41 0 61 -24 38z"/>
<path d="M15793 13518 c-5 -7 -25 -48 -44 -90 l-34 -78 -50 0 c-59 0 -106 -25
-135 -72 -28 -45 -27 -140 0 -191 l21 -39 -51 -94 c-46 -88 -64 -154 -40 -154
6 0 13 0 18 0 4 0 7 12 7 28 0 15 22 66 48 114 47 86 48 87 81 81 79 -13 162
52 190 148 22 73 21 77 -22 119 l-39 36 40 92 c28 63 37 96 30 103 -7 7 -13 6
-20 -3z m-113 -233 c0 -10 -49 -103 -79 -150 -29 -46 -30 -46 -42 -23 -19 35
-17 119 4 151 15 23 24 27 67 27 28 0 50 -2 50 -5z m84 -24 c34 -37 -1 -136
-65 -183 -17 -13 -38 -18 -61 -16 l-36 3 60 108 c33 59 66 107 73 107 6 0 20
-9 29 -19z"/>
<path d="M11423 13488 c-6 -7 -16 -33 -23 -58 -6 -25 -24 -65 -40 -90 -16 -25
-36 -62 -46 -82 -15 -31 -23 -37 -53 -40 -40 -3 -51 -31 -14 -36 l21 -3 -25
-56 c-43 -93 -46 -121 -17 -150 22 -22 31 -24 67 -19 45 7 73 28 63 45 -5 8
-13 8 -27 0 -11 -5 -34 -9 -52 -7 -30 3 -32 6 -29 36 1 18 16 60 32 92 31 62
33 63 120 72 14 2 25 9 25 18 0 11 -10 14 -42 12 -24 -2 -43 0 -43 3 0 4 20
44 43 88 53 99 75 163 60 178 -7 7 -13 6 -20 -3z"/>
<path d="M7825 13458 c-2 -7 -9 -46 -15 -87 -28 -194 -118 -342 -167 -276 -18
26 -17 33 17 67 20 19 37 28 49 25 10 -2 25 -1 32 4 11 8 10 12 -5 24 -31 23
-52 18 -96 -23 -32 -31 -40 -46 -40 -74 0 -44 25 -68 71 -68 39 0 65 19 97 72
29 47 69 172 77 243 4 33 12 65 17 72 5 7 7 17 3 23 -9 14 -35 13 -40 -2z"/>
<path d="M17229 13421 c-20 -47 -23 -49 -52 -45 -50 8 -117 -32 -146 -85 -31
-56 -31 -122 -2 -162 l21 -29 -40 -78 c-22 -44 -40 -89 -40 -100 0 -37 20 -34
35 5 8 21 29 66 47 99 31 61 33 62 80 66 54 6 119 45 136 83 15 33 0 111 -26
137 -19 20 -19 20 10 74 28 51 31 84 9 84 -6 0 -20 -22 -32 -49z m-110 -199
c-52 -95 -48 -91 -65 -68 -31 43 0 142 53 170 25 13 29 12 41 -5 12 -17 8 -29
-29 -97z m121 -3 c0 -34 -5 -42 -37 -63 -38 -25 -93 -44 -93 -32 0 9 59 125
78 155 l16 23 18 -22 c10 -13 18 -38 18 -61z"/>
<path d="M16788 13445 c-20 -7 -58 -26 -83 -41 -41 -24 -45 -28 -32 -42 14
-13 19 -12 47 8 24 17 122 60 137 60 2 0 3 -7 3 -17 0 -44 -137 -203 -181
-210 -54 -8 -137 -93 -120 -122 11 -18 42 -7 97 35 46 35 64 37 64 5 0 -28 44
-62 89 -68 34 -5 46 -2 61 15 27 29 25 36 -7 27 -67 -19 -107 3 -116 62 -6 34
-2 41 42 87 76 81 103 128 99 172 -3 35 -6 39 -33 41 -16 1 -47 -4 -67 -12z"/>
<path d="M17763 13441 c3 -14 -2 -20 -22 -24 -15 -3 -39 -17 -55 -32 -25 -23
-28 -31 -23 -69 6 -43 6 -43 -49 -81 -53 -37 -84 -77 -84 -110 0 -60 75 -114
169 -122 67 -5 113 16 149 68 32 46 26 124 -14 176 l-27 35 26 22 c60 49 53
106 -16 140 -46 21 -61 20 -54 -3z m77 -65 c0 -54 -130 -105 -143 -55 -6 23
23 58 51 60 9 1 24 2 32 3 8 0 14 9 14 18 -1 15 0 16 22 1 13 -8 24 -21 24
-27z m-94 -125 c-3 -5 1 -14 8 -20 11 -10 16 -8 24 5 8 14 12 12 30 -14 37
-51 34 -112 -7 -153 -25 -25 -37 -29 -85 -29 -86 0 -146 33 -146 80 0 14 6 33
13 42 21 27 86 70 124 84 46 16 45 16 39 5z"/>
<path d="M10054 13428 c-19 -24 -116 -336 -112 -360 5 -35 32 -29 34 9 1 17
13 62 27 100 14 37 36 101 48 141 17 58 28 76 46 83 14 5 23 15 21 22 -6 17
-53 21 -64 5z"/>
<path d="M6401 13398 c-5 -13 -16 -41 -24 -63 -9 -22 -26 -74 -37 -115 -11
-41 -28 -94 -36 -117 -18 -49 -16 -97 4 -85 7 5 30 71 52 148 50 174 58 195
83 215 11 9 17 21 13 28 -12 19 -46 12 -55 -11z"/>
<path d="M17484 13403 c-21 -58 -79 -194 -106 -245 -16 -32 -27 -65 -24 -74 8
-21 39 -13 42 11 1 11 28 76 59 145 31 69 58 136 58 149 2 29 -20 40 -29 14z"/>
<path d="M16115 13394 c-11 -3 -51 -11 -90 -19 -38 -8 -86 -16 -105 -17 -23
-2 -35 -8 -35 -18 0 -19 81 -16 166 6 31 8 68 14 82 14 l24 0 -44 -85 c-24
-46 -49 -87 -55 -91 -6 -4 -34 -8 -62 -9 -68 -2 -71 -28 -5 -35 l46 -5 -28
-70 c-29 -72 -36 -105 -20 -105 15 0 30 25 50 81 34 98 40 106 85 115 48 11
59 40 14 37 -16 -1 -28 0 -28 2 0 4 19 40 72 132 l29 53 -26 10 c-27 10 -35
11 -70 4z"/>
<path d="M14940 13339 c-31 -13 -80 -58 -80 -75 0 -28 22 -23 54 10 24 26 42
36 65 36 25 0 31 -4 31 -22 0 -32 -78 -156 -118 -186 -76 -59 -102 -85 -102
-103 0 -28 25 -23 65 12 l36 32 33 -32 c44 -43 96 -51 126 -21 16 16 19 25 11
33 -8 8 -14 8 -23 -1 -22 -22 -65 -14 -92 18 l-25 31 38 51 c91 119 110 197
55 218 -30 12 -41 12 -74 -1z"/>
<path d="M3701 13320 c-10 -6 -10 -12 -2 -29 7 -13 8 -21 2 -21 -5 0 -26 -30
-46 -67 -19 -38 -44 -79 -54 -92 l-18 -24 -28 69 c-15 38 -33 85 -40 104 -14
38 -32 50 -41 26 -6 -16 70 -206 87 -216 4 -3 -17 -44 -47 -90 -70 -107 -81
-128 -85 -165 -3 -21 1 -31 11 -33 11 -2 19 11 27 40 7 24 58 113 114 198 90
137 159 261 159 289 0 13 -25 20 -39 11z"/>
<path d="M9767 13259 c-50 -26 -89 -89 -85 -136 5 -54 43 -78 119 -76 62 2
129 19 129 33 0 15 -28 19 -62 9 -55 -15 -113 -11 -139 11 l-24 19 28 1 c86 1
166 107 111 147 -23 17 -31 16 -77 -8z m63 -32 c0 -20 -33 -52 -69 -67 -40
-16 -47 -9 -25 25 27 41 94 71 94 42z"/>
<path d="M3814 13243 c-33 -35 -58 -122 -45 -156 29 -76 145 -8 158 93 5 33 1
42 -22 64 -36 33 -60 33 -91 -1z m79 -41 c8 -40 -40 -112 -75 -112 -22 0 -24
36 -4 84 22 52 69 69 79 28z"/>
<path d="M4084 13218 c-21 -29 -53 -71 -71 -92 -18 -21 -30 -42 -28 -47 3 -4
-8 -6 -25 -4 -32 4 -43 -5 -34 -28 13 -35 37 -28 86 24 30 32 48 45 48 35 0
-43 56 -26 107 32 l33 37 0 -46 c0 -49 16 -73 46 -67 26 5 29 29 5 35 -24 6
-28 44 -12 100 7 23 6 35 -4 43 -10 8 -26 -4 -68 -52 -31 -34 -59 -59 -63 -55
-4 3 5 31 20 60 14 30 26 59 26 65 0 27 -31 8 -66 -40z"/>
<path d="M4874 13246 c-105 -29 -149 -124 -83 -180 25 -22 41 -26 89 -26 32 0
71 5 85 10 30 11 29 37 -1 32 -10 -1 -36 -5 -56 -9 -50 -8 -85 3 -104 32 -14
22 -14 26 2 54 21 36 55 56 84 48 30 -8 50 2 50 23 0 25 -18 29 -66 16z"/>
<path d="M6540 13232 c-30 -31 -30 -32 -15 -68 26 -62 15 -104 -27 -104 -14 0
-18 8 -18 36 0 28 -3 35 -17 32 -25 -5 -30 -64 -7 -89 22 -25 55 -24 87 1 35
27 44 78 22 120 -16 31 -16 33 6 56 17 18 20 27 11 36 -8 8 -19 3 -42 -20z"/>
<path d="M10195 13251 c-11 -5 -28 -18 -39 -29 -16 -19 -17 -27 -7 -84 11 -63
11 -63 -16 -85 -39 -32 -45 -29 -41 19 4 49 -17 64 -32 23 -15 -39 -12 -63 10
-85 22 -22 39 -19 88 18 34 24 34 24 30 100 -3 74 -2 76 22 82 16 4 25 13 25
25 0 22 -13 27 -40 16z"/>
<path d="M8499 13230 c-44 -23 -89 -74 -89 -100 0 -42 70 -63 120 -36 22 13
25 12 35 -7 14 -28 39 -42 61 -33 17 7 17 9 -8 28 -34 24 -34 28 -3 79 25 38
25 65 2 56 -7 -2 -19 1 -27 8 -27 23 -54 24 -91 5z m60 -39 c18 -18 18 -20 2
-35 -23 -21 -83 -44 -98 -39 -34 12 17 74 75 92 1 1 11 -8 21 -18z"/>
<path d="M5404 13204 c-19 -19 -31 -29 -28 -21 3 8 0 18 -6 22 -14 9 -40 -13
-40 -34 0 -10 -12 -41 -26 -70 -20 -40 -24 -55 -15 -64 12 -12 18 -7 108 107
52 66 64 63 33 -8 -23 -55 -25 -89 -7 -105 17 -14 27 -4 27 26 0 13 10 52 22
87 12 34 19 70 15 79 -10 28 -47 19 -83 -19z"/>
<path d="M5185 13175 c-34 -37 -58 -55 -74 -55 l-24 0 24 26 c13 14 34 30 47
35 26 10 25 32 -1 37 -21 4 -107 -75 -107 -98 0 -45 71 -50 124 -9 l26 20 0
-41 c0 -34 3 -41 17 -38 12 2 18 14 19 38 2 19 7 55 13 79 17 78 3 80 -64 6z"/>
<path d="M6132 13214 c-44 -30 -66 -106 -40 -132 15 -15 64 -16 73 -2 12 19
25 10 25 -19 0 -33 22 -56 46 -47 13 5 14 9 4 21 -8 10 -10 32 -6 68 12 97
-40 154 -102 111z m58 -33 c0 -5 -7 -12 -16 -15 -10 -4 -13 -13 -9 -25 5 -18
-17 -41 -39 -41 -12 0 -5 46 10 68 15 21 54 31 54 13z"/>
<path d="M6761 13221 c-8 -5 -19 -7 -26 -5 -29 11 -69 -73 -54 -114 19 -50
110 -48 143 3 24 36 21 91 -6 109 -26 18 -37 19 -57 7z m42 -66 c-3 -34 -26
-55 -60 -55 -29 0 -37 18 -24 53 7 17 16 25 25 21 8 -3 17 0 21 6 14 23 40 5
38 -25z"/>
<path d="M7403 13210 c-67 -44 -78 -140 -16 -140 16 0 40 7 56 14 25 14 27 13
27 -3 0 -25 26 -45 47 -37 12 5 14 9 5 18 -15 15 -16 74 -2 83 17 11 11 35 -9
35 -13 0 -21 8 -23 23 -4 30 -44 33 -85 7z m36 -27 c-4 -25 3 -35 21 -30 11 3
20 4 20 2 0 -7 -56 -43 -77 -49 -33 -11 -31 28 3 59 28 26 35 30 33 18z"/>
<path d="M10375 13220 c-30 -12 -72 -60 -90 -103 -28 -68 5 -133 70 -139 52
-4 86 4 112 26 22 19 25 27 16 37 -9 9 -18 7 -39 -10 -32 -25 -95 -28 -118 -5
-9 8 -16 28 -16 43 0 24 7 31 45 46 48 18 65 38 65 78 0 28 -16 38 -45 27z m5
-44 c0 -2 -8 -10 -17 -17 -16 -13 -17 -12 -4 4 13 16 21 21 21 13z"/>
<path d="M8704 13198 c-4 -7 0 -16 9 -22 14 -9 12 -16 -19 -58 -36 -50 -44
-88 -20 -88 8 0 17 4 20 8 3 4 32 29 65 55 l60 48 -2 -42 c-1 -30 4 -45 18
-55 21 -16 44 -18 64 -5 19 12 4 31 -25 31 -29 0 -31 18 -9 80 25 72 8 77 -64
20 -53 -42 -59 -43 -40 -9 18 35 -36 71 -57 37z"/>
<path d="M11498 13126 c-10 -7 -15 -16 -11 -19 3 -4 2 -7 -4 -7 -31 0 -34 -96
-4 -115 38 -23 141 42 141 89 0 50 -80 84 -122 52z m81 -40 c10 -11 6 -20 -16
-40 -54 -50 -100 -22 -51 31 24 26 50 30 67 9z"/>
<path d="M16295 13040 c-9 -15 4 -30 26 -30 12 0 19 7 19 20 0 21 -33 29 -45
10z"/>
<path d="M15147 13033 c-15 -14 -7 -43 12 -43 24 0 33 13 25 34 -6 16 -25 21
-37 9z"/>
<path d="M12886 12941 c-23 -25 -40 -85 -57 -193 l-13 -88 -42 0 c-100 0 -199
-138 -132 -184 12 -9 42 -16 66 -16 81 0 117 63 153 270 21 122 33 164 57 192
13 16 10 38 -7 38 -4 0 -16 -9 -25 -19z m-97 -320 c16 -10 2 -61 -27 -99 -20
-26 -83 -35 -103 -15 -16 16 17 71 61 100 36 25 48 27 69 14z"/>
<path d="M9196 12922 c-2 -4 -22 -54 -45 -112 -22 -58 -57 -132 -77 -164 -20
-33 -37 -71 -37 -85 -2 -23 3 -26 32 -29 57 -6 96 6 138 43 65 55 65 125 0
125 -18 0 -42 -7 -54 -15 -19 -13 -17 -4 18 83 21 53 43 105 49 114 5 10 10
22 10 27 0 11 -28 22 -34 13z m22 -273 c-4 -31 -66 -76 -113 -85 l-40 -7 25
28 c33 37 100 85 117 85 9 0 13 -8 11 -21z"/>
<path d="M4087 12873 c-42 -32 -107 -115 -126 -162 -11 -24 -20 -31 -41 -31
-15 0 -30 -6 -33 -14 -7 -18 1 -26 24 -26 17 0 17 -2 -1 -46 -25 -56 -30 -109
-12 -109 7 0 25 35 40 80 l27 80 40 3 c63 4 85 11 85 28 0 12 -9 13 -50 8 -32
-4 -50 -3 -50 4 0 5 18 37 41 71 42 63 85 101 114 101 21 0 16 34 -5 38 -9 1
-32 -10 -53 -25z"/>
<path d="M4926 12891 c-3 -5 -3 -17 0 -25 4 -9 -8 -50 -26 -91 l-32 -74 -62
-3 c-46 -2 -61 -7 -61 -18 0 -11 10 -14 42 -12 22 2 44 -1 47 -6 3 -5 -6 -38
-20 -72 -25 -61 -29 -116 -9 -114 6 0 14 14 19 30 4 16 20 58 35 93 l26 64 45
1 c34 1 45 5 48 19 3 14 -4 17 -37 17 l-41 0 30 61 c22 42 30 72 28 97 -3 35
-20 53 -32 33z"/>
<path d="M7391 12815 c-33 -61 -36 -64 -75 -67 -48 -4 -58 -31 -13 -36 32 -4
32 -2 7 -72 -25 -71 -25 -105 1 -131 18 -18 28 -20 78 -14 62 7 74 14 62 33
-5 9 -19 10 -52 4 -24 -5 -50 -7 -57 -4 -18 6 -14 64 9 126 21 54 23 55 68 62
25 4 55 8 66 9 11 1 20 8 20 16 0 10 -13 14 -52 13 -29 -1 -53 2 -53 6 0 4 14
26 31 49 30 42 33 71 7 71 -7 0 -28 -29 -47 -65z"/>
<path d="M5060 12808 c-22 -91 -33 -126 -66 -212 -19 -50 -32 -96 -30 -103 9
-22 26 -15 37 14 21 55 58 93 91 93 27 0 30 -2 23 -22 -11 -36 -14 -88 -4 -88
9 0 35 55 45 95 8 34 -22 58 -68 53 -42 -4 -44 -1 -24 46 7 18 17 53 21 77 4
24 12 49 17 56 12 15 2 33 -17 33 -8 0 -19 -18 -25 -42z"/>
<path d="M7030 12815 c-12 -32 -6 -45 21 -45 17 0 20 6 17 32 -4 40 -25 48
-38 13z"/>
<path d="M8371 12816 c-14 -17 -7 -36 14 -36 22 0 29 20 13 36 -13 13 -16 13
-27 0z"/>
<path d="M9663 12774 c-8 -21 13 -42 28 -27 13 13 5 43 -11 43 -6 0 -13 -7
-17 -16z"/>
<path d="M3822 12763 c4 -21 33 -25 33 -3 0 8 -8 16 -18 18 -14 3 -18 -1 -15
-15z"/>
<path d="M6361 12770 c-25 -11 -24 -3 -6 -130 8 -57 -12 -93 -40 -70 -13 11
-15 23 -10 57 8 53 -7 56 -30 6 -17 -35 -17 -38 0 -70 30 -56 79 -53 110 7 19
36 19 66 0 119 -13 38 -13 41 6 51 16 9 24 6 44 -16 13 -14 29 -23 34 -19 16
9 13 41 -3 54 -20 17 -77 22 -105 11z"/>
<path d="M12019 12749 c-8 -15 -8 -24 0 -32 15 -15 46 16 38 37 -9 22 -24 20
-38 -5z"/>
<path d="M11015 12747 c-11 -6 -31 -12 -45 -12 -16 0 -25 -6 -25 -15 0 -8 -12
-51 -27 -94 -27 -81 -28 -96 -4 -96 14 0 35 38 55 100 21 64 71 107 102 87 27
-17 46 4 24 27 -19 19 -52 20 -80 3z"/>
<path d="M2043 12730 c-32 -13 -56 -55 -51 -87 3 -16 11 -49 18 -75 16 -55 4
-78 -40 -78 -34 0 -59 25 -42 42 19 19 14 28 -12 28 -35 0 -44 -35 -19 -69 40
-53 106 -53 146 2 l21 27 -22 67 c-19 60 -20 70 -7 89 8 13 27 24 42 26 36 4
46 38 11 37 -13 0 -33 -4 -45 -9z"/>
<path d="M6808 12693 c-15 -10 -41 -45 -58 -78 -27 -54 -29 -61 -14 -72 24
-17 44 -5 44 29 0 63 46 108 103 99 13 -2 18 3 15 16 -4 25 -55 28 -90 6z"/>
<path d="M7129 12685 c-19 -14 -42 -36 -52 -48 -27 -34 -87 -154 -80 -161 4
-3 1 -6 -5 -6 -7 0 -12 -7 -12 -16 0 -9 -9 -28 -20 -44 -11 -15 -17 -30 -13
-34 3 -3 1 -6 -5 -6 -7 0 -12 -9 -12 -20 0 -44 31 -16 71 64 40 79 45 84 70
79 35 -7 76 16 127 71 34 37 42 53 42 84 0 21 -5 43 -12 50 -19 19 -62 14 -99
-13z m74 -39 c-4 -54 -87 -128 -127 -113 -16 6 -15 11 6 49 24 42 93 101 112
95 6 -2 10 -16 9 -31z"/>
<path d="M8483 12701 c-32 -9 -66 -40 -60 -55 3 -8 9 -34 12 -60 7 -45 6 -46
-19 -46 -18 0 -24 4 -20 15 4 10 0 15 -14 15 -30 0 -37 -32 -12 -52 29 -24 65
-23 90 2 22 22 24 40 10 89 -13 46 3 65 47 58 51 -9 58 23 8 36 -11 3 -30 2
-42 -2z"/>
<path d="M9355 12682 c-87 -47 -109 -136 -40 -162 29 -11 118 -14 128 -4 15
15 -6 32 -36 28 -51 -7 -92 8 -95 37 -3 22 0 24 43 24 58 1 101 38 91 79 -8
33 -28 33 -91 -2z m55 -17 c0 -6 -56 -35 -67 -35 -4 1 8 9 27 20 39 22 40 22
40 15z"/>
<path d="M11205 12695 c-22 -8 -41 -15 -43 -15 -2 0 -10 -16 -18 -36 -13 -30
-17 -34 -30 -23 -12 10 -17 10 -27 0 -9 -10 -7 -16 10 -31 13 -10 27 -29 32
-43 6 -14 22 -34 36 -43 22 -15 33 -15 84 -4 74 15 90 25 74 41 -10 10 -25 9
-69 -1 -61 -15 -89 -7 -89 26 0 13 17 25 63 42 42 16 67 32 74 48 24 52 -16
68 -97 39z m55 -31 c0 -5 -64 -34 -75 -34 -4 0 -3 5 0 11 12 18 75 38 75 23z"/>
<path d="M6541 12655 c-45 -49 -46 -53 -30 -89 15 -33 70 -58 117 -54 53 4 49
29 -6 33 -44 4 -82 27 -82 51 0 7 18 28 40 45 22 18 40 38 40 46 0 27 -39 12
-79 -32z"/>
<path d="M5280 12668 c-25 -13 -53 -37 -63 -54 -16 -30 -17 -35 -2 -72 21 -51
55 -67 113 -53 55 12 92 37 92 61 0 25 -21 26 -42 1 -31 -37 -123 -38 -123 -3
0 6 25 24 55 39 59 30 74 58 45 87 -21 20 -22 20 -75 -6z m50 -26 c0 -10 -71
-45 -77 -38 -5 5 56 46 70 46 4 0 7 -4 7 -8z"/>
<path d="M11475 12675 c-61 -32 -88 -104 -49 -132 22 -16 58 -17 86 -2 19 10
20 9 14 -14 -3 -14 -33 -83 -67 -153 -83 -176 -140 -314 -133 -325 7 -12 34
-11 34 1 0 11 130 89 203 122 51 23 65 50 21 42 -30 -5 -135 -57 -176 -86 -16
-11 -28 -17 -28 -14 0 7 166 371 207 453 14 30 22 60 19 69 -6 15 -10 14 -34
-8 -45 -41 -75 -58 -104 -58 -35 0 -37 22 -3 55 28 29 53 32 71 8 12 -17 14
-17 31 0 41 40 -31 73 -92 42z"/>
<path d="M12177 12670 c-14 -11 -30 -20 -36 -20 -6 0 -13 -12 -16 -27 -4 -16
-15 -52 -25 -82 -11 -30 -17 -58 -14 -63 14 -21 34 -3 53 50 12 32 31 73 42
92 19 30 23 32 60 26 29 -5 39 -3 39 7 0 39 -62 49 -103 17z"/>
<path d="M2353 12658 c-79 -39 -55 -208 29 -208 33 0 92 23 102 39 14 22 -5
31 -34 16 -45 -24 -88 -20 -102 9 -14 31 -4 56 21 56 25 0 63 48 59 74 -3 24
-41 31 -75 14z m27 -43 c-7 -8 -17 -15 -22 -15 -6 0 -5 7 2 15 7 8 17 15 22
15 6 0 5 -7 -2 -15z"/>
<path d="M9669 12621 c-11 -28 -27 -56 -35 -62 -18 -15 -18 -49 0 -49 7 0 21
11 29 24 16 23 136 110 144 103 2 -2 -11 -34 -28 -70 -28 -61 -31 -87 -9 -87
10 0 68 121 70 147 1 10 2 24 1 31 -2 20 -54 14 -92 -12 -35 -24 -35 -24 -35
-4 2 41 -23 29 -45 -21z"/>
<path d="M12386 12639 c-53 -36 -66 -55 -66 -99 0 -51 38 -80 104 -80 63 0
104 13 112 35 10 24 0 27 -39 10 -52 -21 -103 -19 -128 6 -28 28 -20 41 29 44
51 4 86 25 106 64 31 58 -41 71 -118 20z m84 -8 c0 -15 -26 -31 -61 -37 l-34
-5 40 25 c43 28 55 31 55 17z"/>
<path d="M2142 12635 c-36 -30 -55 -94 -41 -135 10 -27 43 -45 62 -33 6 3 25
7 43 9 42 4 77 22 68 35 -7 12 -76 2 -85 -12 -8 -14 -59 7 -59 25 0 8 13 17
30 21 41 9 80 42 80 69 0 50 -51 61 -98 21z m49 -35 c-24 -21 -41 -26 -41 -12
0 15 24 32 45 32 19 -1 19 -1 -4 -20z"/>
<path d="M8293 12643 c-13 -38 -33 -79 -50 -106 -16 -24 -16 -29 -3 -37 8 -5
18 -6 22 -2 17 18 77 145 72 153 -9 15 -34 10 -41 -8z"/>
<path d="M11721 12641 c-6 -10 -13 -37 -17 -60 -7 -46 11 -85 46 -96 38 -12
140 72 140 116 0 28 -7 24 -60 -32 -61 -65 -85 -64 -84 1 1 25 5 55 9 68 9 28
-19 31 -34 3z"/>
<path d="M3765 12640 c-3 -5 -4 -14 -1 -18 3 -5 -4 -33 -15 -62 -11 -29 -18
-59 -15 -66 9 -24 34 -15 39 14 2 15 13 49 23 75 16 42 17 49 4 57 -19 12 -27
12 -35 0z"/>
<path d="M6943 12638 c-21 -26 -44 -79 -38 -88 13 -20 31 -8 49 33 11 23 20
46 20 51 1 15 -20 18 -31 4z"/>
<path d="M9973 12635 c-20 -9 -39 -28 -50 -50 -23 -48 -10 -69 46 -73 34 -3
41 -6 37 -20 -3 -9 -15 -52 -27 -94 l-22 -78 -68 0 c-77 0 -99 -14 -99 -60 0
-39 37 -108 62 -115 45 -15 95 30 124 109 9 26 17 31 50 33 62 5 84 12 84 28
0 11 -12 13 -59 8 l-59 -5 25 83 c15 53 20 85 13 87 -14 5 -13 22 3 22 18 0
60 67 51 82 -16 28 -50 58 -64 57 -8 0 -30 -6 -47 -14z m54 -55 c-6 -14 -11
-26 -12 -26 0 -1 -15 -5 -32 -9 -26 -5 -33 -3 -33 9 0 25 35 54 63 53 22 -2
23 -4 14 -27z m-80 -307 c-5 -34 -42 -84 -66 -90 -25 -6 -39 9 -53 56 -11 37
7 51 68 51 46 0 53 -3 51 -17z"/>
<path d="M11963 12633 c-3 -10 -16 -43 -29 -73 -16 -40 -19 -59 -12 -68 6 -7
14 -9 18 -5 15 17 61 144 55 153 -10 16 -25 12 -32 -7z"/>
<path d="M9574 12585 c-25 -54 -26 -85 -4 -85 6 0 13 8 16 18 3 9 14 36 25 60
19 42 18 62 -2 62 -6 0 -22 -25 -35 -55z"/>
<path d="M1730 12515 c-9 -11 -10 -19 -3 -26 7 -7 7 -22 2 -42 -5 -18 -27
-106 -49 -197 -23 -91 -45 -176 -50 -190 -5 -14 -11 -38 -12 -55 -3 -26 0 -30
27 -33 92 -10 104 -7 145 33 69 67 75 142 14 165 -27 11 -46 6 -86 -22 -16
-11 -28 -15 -28 -10 0 6 13 61 29 123 43 174 54 223 50 244 -5 25 -23 29 -39
10z m78 -407 c5 -38 -60 -108 -99 -108 -39 0 -46 22 -19 65 46 74 112 98 118
43z"/>
<path d="M3510 12468 c-1 -2 -2 -39 -4 -83 -5 -114 -63 -309 -112 -380 -19
-27 -18 -45 4 -45 10 0 27 18 41 45 37 70 112 131 133 109 4 -3 -5 -37 -18
-76 -18 -50 -22 -74 -15 -81 15 -15 24 -3 50 71 26 74 25 102 -8 119 -20 9
-32 9 -59 -3 -32 -13 -34 -13 -27 4 18 47 45 185 47 247 3 59 0 70 -14 73 -10
2 -18 2 -18 0z"/>
<path d="M3288 12444 c-4 -3 -4 -20 -2 -37 3 -18 -6 -70 -19 -117 l-24 -85
-63 0 c-39 0 -65 -4 -67 -12 -6 -17 10 -23 67 -24 42 -1 50 -4 46 -18 -20 -65
-46 -168 -46 -179 0 -7 7 -12 16 -10 11 2 24 32 41 98 13 52 28 99 32 103 5 5
40 13 80 19 52 8 71 14 71 26 0 12 -11 13 -69 8 l-69 -7 24 88 c27 96 28 146
4 151 -9 1 -19 0 -22 -4z"/>
<path d="M5497 12364 c-4 -4 -4 -16 -2 -28 5 -19 -8 -69 -80 -314 -28 -95 -28
-142 0 -142 11 0 15 11 15 40 0 22 14 83 31 135 18 57 27 104 24 117 -5 12 -3
18 3 14 12 -7 25 22 16 36 -4 6 -1 14 5 18 16 9 20 122 5 127 -5 2 -13 0 -17
-3z"/>
<path d="M5175 12351 c-72 -21 -143 -127 -169 -251 l-13 -65 -59 0 c-46 0 -59
-3 -59 -15 0 -11 17 -18 57 -24 57 -9 57 -9 51 -40 -30 -168 -57 -244 -107
-300 -20 -22 -23 -32 -15 -43 15 -17 28 -6 68 54 37 55 66 143 82 245 l12 77
46 6 c25 4 52 8 59 11 18 5 10 40 -9 35 -53 -13 -89 -13 -89 1 0 28 32 134 53
176 28 57 92 109 112 92 16 -13 35 -5 35 15 0 19 -30 33 -55 26z"/>
<path d="M1950 12177 c0 -13 30 -196 36 -214 4 -15 -16 -67 -69 -175 -42 -84
-77 -164 -79 -177 -4 -35 20 -38 33 -4 6 15 38 82 70 148 59 121 149 328 149
342 0 5 7 21 15 37 10 19 12 33 6 39 -15 15 -36 -7 -50 -52 -6 -22 -20 -58
-30 -81 -17 -38 -19 -39 -25 -18 -3 13 -6 41 -7 63 -1 58 -12 89 -32 93 -9 2
-17 2 -17 -1z"/>
<path d="M2909 12132 c-61 -62 -65 -128 -8 -157 24 -13 37 -14 64 -5 42 14 85
63 85 96 0 37 -25 78 -55 92 -38 17 -44 16 -86 -26z m102 -43 c12 -30 11 -33
-19 -60 -36 -33 -63 -37 -86 -13 -19 18 -19 19 -5 47 21 40 42 57 69 57 21 0
31 -7 41 -31z"/>
<path d="M3705 12147 c-71 -40 -93 -119 -45 -167 32 -32 170 -26 170 7 0 12
-9 14 -45 8 -60 -9 -103 1 -110 26 -8 24 19 49 45 42 9 -3 31 8 49 23 24 20
31 34 29 53 -4 35 -40 38 -93 8z m55 -26 c0 -10 -61 -34 -68 -27 -4 5 47 35
61 36 4 0 7 -4 7 -9z"/>
<path d="M5897 12150 c-21 -4 -45 -14 -53 -22 -13 -13 -11 -18 17 -46 18 -18
41 -34 51 -38 24 -7 36 -53 17 -65 -23 -14 -44 -10 -83 16 -44 30 -46 30 -46
7 0 -45 92 -82 141 -56 57 29 47 96 -20 135 -32 19 -33 22 -17 31 10 6 33 8
52 5 37 -6 52 6 34 28 -13 16 -33 17 -93 5z"/>
<path d="M3965 12138 c-40 -22 -68 -58 -69 -88 -1 -16 -4 -30 -8 -30 -5 0 -8
-13 -8 -30 0 -23 5 -30 19 -30 14 0 21 10 26 38 11 60 34 100 65 110 24 9 29
7 33 -9 6 -23 23 -25 31 -3 16 43 -40 70 -89 42z"/>
<path d="M5285 12130 c-8 -14 13 -40 32 -40 20 0 12 44 -9 48 -9 2 -19 -2 -23
-8z"/>
<path d="M5588 12100 c-22 -22 -44 -40 -49 -40 -14 0 -21 -20 -11 -33 5 -7 13
-23 17 -37 11 -38 35 -60 64 -60 32 0 113 40 119 58 5 17 -23 15 -59 -4 -41
-21 -83 -15 -87 12 -3 18 4 22 38 28 94 15 126 116 37 116 -21 0 -41 -12 -69
-40z m82 -6 c0 -13 -54 -44 -76 -44 -20 0 44 52 74 59 1 1 2 -6 2 -15z"/>
<path d="M5256 12058 c-10 -33 -26 -109 -26 -123 0 -10 7 -15 17 -13 17 3 48
110 39 135 -7 17 -25 17 -30 1z"/>
<path d="M6082 11963 c2 -10 10 -18 18 -18 8 0 16 8 18 18 2 12 -3 17 -18 17
-15 0 -20 -5 -18 -17z"/>
<path d="M3785 11444 c-71 -7 -179 -16 -240 -19 -277 -16 -411 -28 -419 -35
-4 -5 -5 -13 -2 -18 7 -12 78 -3 87 11 4 5 10 4 14 -3 6 -9 32 -10 101 -5 52
4 94 5 94 2 0 -3 -29 -100 -65 -216 -36 -116 -65 -220 -65 -230 0 -17 -12 -19
-122 -25 -68 -3 -132 -5 -143 -4 -14 2 -20 -3 -20 -17 0 -23 27 -24 191 -12
78 6 93 5 105 -9 12 -14 14 -14 24 0 9 12 36 16 125 18 73 2 115 7 117 14 6
17 -27 26 -44 12 -11 -9 -16 -9 -22 1 -6 9 -33 12 -94 9 l-86 -3 6 25 c3 14
34 117 68 230 l63 205 43 7 c24 4 130 15 234 24 105 9 193 18 198 21 12 7 8
33 -5 32 -7 -1 -71 -8 -143 -15z"/>
<path d="M11027 11444 c-28 -15 -34 -28 -17 -39 14 -9 7 -47 -21 -110 -4 -11
-20 -51 -34 -90 -14 -38 -37 -93 -50 -121 -39 -83 -64 -151 -58 -158 15 -15
31 -2 58 49 17 30 33 55 36 55 3 0 10 10 16 23 11 25 78 65 89 54 4 -3 -3 -30
-15 -58 -23 -58 -28 -103 -9 -97 17 6 57 106 58 144 0 57 -35 69 -92 31 l-34
-24 58 159 c72 195 73 212 15 182z"/>
<path d="M16944 11443 c-6 -22 -135 -276 -143 -283 -32 -28 -64 -131 -51 -165
12 -31 93 -63 115 -45 20 16 13 23 -38 35 -51 12 -57 34 -29 99 l20 44 69 7
c94 9 103 13 78 31 -15 11 -33 13 -69 8 l-49 -6 68 130 c42 79 66 136 62 146
-8 21 -26 21 -33 -1z"/>
<path d="M8697 11394 c-3 -4 -4 -25 -1 -48 5 -42 -13 -105 -87 -300 -26 -69
-30 -89 -20 -99 13 -13 12 -14 103 96 66 79 110 67 87 -23 -14 -53 -11 -64 13
-55 29 11 39 133 13 155 -25 20 -84 5 -123 -32 l-34 -33 17 40 c32 74 75 228
75 267 0 30 -4 38 -18 38 -10 0 -22 -3 -25 -6z"/>
<path d="M13495 11389 c-4 -6 -5 -13 -2 -16 3 -3 1 -17 -5 -32 -6 -14 -23 -62
-38 -106 l-27 -80 -74 0 c-59 0 -74 -3 -74 -15 0 -11 18 -18 63 -24 34 -5 62
-12 62 -15 0 -15 -98 -199 -104 -196 -3 3 1 -3 9 -12 9 -11 18 -14 24 -8 11
13 73 136 100 198 14 33 26 47 40 47 35 0 51 12 51 37 0 22 -4 25 -26 20 -16
-3 -24 0 -21 7 2 6 16 47 32 92 27 75 29 114 6 114 -5 0 -13 -5 -16 -11z"/>
<path d="M10789 11383 c-4 -35 -10 -58 -34 -123 -15 -41 -31 -80 -36 -86 -8
-10 -50 -19 -132 -28 -33 -3 -41 -11 -32 -27 7 -11 44 -9 122 7 l32 6 -25 -83
c-13 -46 -29 -92 -34 -101 -14 -25 -12 -48 4 -48 13 0 49 87 76 185 11 39 13
40 57 40 31 0 48 5 51 14 3 10 0 12 -11 8 -9 -3 -19 -2 -22 3 -4 6 -15 10 -26
10 -10 0 -19 3 -19 8 0 4 16 49 35 101 19 51 35 100 35 107 0 14 -39 20 -41 7z"/>
<path d="M14880 11375 c0 -8 -13 -56 -30 -107 -35 -111 -115 -257 -147 -269
-37 -14 -46 -43 -22 -73 17 -22 28 -26 73 -26 68 0 130 32 174 89 37 49 41 82
11 112 -25 25 -64 21 -109 -11 l-28 -20 34 67 c36 70 87 231 78 245 -9 14 -34
9 -34 -7z m40 -320 c0 -60 -121 -137 -188 -120 -17 5 -22 9 -13 13 8 2 28 21
45 40 73 83 156 119 156 67z"/>
<path d="M16017 11363 c-4 -3 -7 -18 -8 -32 0 -14 -8 -51 -17 -81 l-18 -55
-54 -5 c-40 -4 -55 -9 -55 -20 0 -11 11 -15 43 -14 40 1 43 -1 37 -20 -22 -72
-26 -109 -15 -136 21 -50 105 -74 86 -24 -4 9 -9 14 -13 11 -3 -4 -14 -2 -24
4 -24 12 -25 58 -3 122 l16 47 78 -1 c43 -1 83 2 89 6 25 15 -4 25 -73 25
l-74 0 20 76 c19 72 19 104 0 104 -5 0 -12 -3 -15 -7z"/>
<path d="M5157 11304 c-4 -4 -7 -18 -7 -32 0 -13 -20 -75 -45 -137 -45 -114
-55 -160 -41 -183 12 -19 25 -15 92 34 l64 45 0 -39 c0 -52 51 -97 79 -69 16
16 14 27 -7 27 -29 0 -42 21 -42 66 0 24 -4 46 -10 49 -12 7 -43 -8 -100 -49
-22 -16 -43 -27 -46 -24 -3 3 16 59 42 124 46 117 59 183 38 191 -5 2 -13 0
-17 -3z"/>
<path d="M15214 11279 c-10 -17 13 -36 27 -22 12 12 4 33 -11 33 -5 0 -12 -5
-16 -11z"/>
<path d="M4473 11190 c-12 -5 -30 -21 -39 -36 -17 -26 -17 -29 5 -90 25 -69
20 -97 -20 -109 -27 -9 -71 23 -79 55 -7 31 -27 37 -35 11 -14 -44 46 -101
105 -101 70 0 99 65 65 147 -8 19 -15 44 -15 54 0 25 36 42 68 33 65 -18 85 6
26 31 -41 17 -50 17 -81 5z"/>
<path d="M12607 11150 c-25 -22 -49 -40 -55 -40 -5 0 -12 -19 -15 -42 -2 -24
-10 -56 -17 -73 -7 -16 -14 -43 -16 -59 -2 -15 -13 -49 -24 -73 -25 -56 -26
-86 -4 -81 11 2 27 30 43 76 21 59 30 72 48 72 50 0 160 111 170 173 4 29 1
40 -20 61 -36 35 -57 33 -110 -14z m91 -37 c3 -26 -5 -41 -39 -78 -38 -41 -96
-82 -104 -73 -1 2 5 27 13 57 10 35 29 68 53 93 45 48 73 48 77 1z"/>
<path d="M12001 11132 c-48 -46 -51 -51 -51 -99 0 -97 44 -120 165 -89 69 18
75 22 75 47 0 20 -10 24 -25 11 -22 -19 -137 -46 -153 -36 -24 16 -24 28 0 39
13 6 21 13 18 18 -3 4 10 15 29 25 46 24 68 63 55 99 -16 48 -54 43 -113 -15z
m79 -6 c0 -20 -34 -59 -70 -80 l-32 -18 7 23 c7 26 68 89 85 89 5 0 10 -6 10
-14z"/>
<path d="M13084 11128 c-31 -30 -54 -62 -54 -74 0 -11 -7 -29 -15 -40 -20 -27
-19 -56 3 -52 10 2 30 29 47 65 32 67 70 113 92 113 8 0 25 -12 39 -27 29 -31
54 -20 35 16 -12 21 -60 51 -81 51 -7 0 -36 -24 -66 -52z"/>
<path d="M7118 11141 l-33 -29 29 -55 c17 -31 27 -61 23 -70 -10 -26 -46 -21
-59 8 -13 28 -31 28 -36 1 -5 -24 24 -54 61 -62 26 -5 35 -2 54 20 29 34 29
41 -2 102 l-25 49 26 21 c15 12 23 27 20 33 -11 17 -23 13 -58 -18z"/>
<path d="M16734 11149 c-7 -12 15 -31 31 -26 6 2 11 11 13 20 4 19 -32 24 -44
6z"/>
<path d="M6555 11134 c-35 -18 -42 -27 -54 -73 -13 -44 -4 -85 26 -117 22 -24
29 -26 81 -21 63 5 132 34 132 54 0 15 -31 18 -45 4 -16 -14 -105 -32 -127
-26 -21 7 -38 43 -38 79 0 61 83 103 105 54 13 -30 31 -24 28 10 -4 49 -52 65
-108 36z"/>
<path d="M8399 11142 c-40 -11 -116 -62 -130 -89 -16 -30 -5 -52 40 -75 43
-21 167 -33 204 -19 47 18 20 31 -64 31 -79 0 -149 18 -149 39 0 17 53 60 88
72 19 6 51 8 72 5 39 -6 61 7 43 25 -13 13 -72 19 -104 11z"/>
<path d="M12254 11135 c-4 -8 6 -41 21 -72 l28 -57 -39 -32 c-30 -26 -36 -36
-27 -45 9 -9 21 -5 50 18 l38 30 38 -24 c37 -23 67 -25 67 -4 0 6 -15 18 -32
27 -18 9 -34 18 -36 19 -2 2 17 22 42 45 25 24 46 51 46 61 0 27 -10 24 -50
-17 -58 -60 -67 -61 -88 -12 -11 24 -22 51 -25 61 -8 21 -26 22 -33 2z"/>
<path d="M13663 11139 c-18 -5 -37 -19 -44 -30 -9 -17 -6 -27 18 -60 51 -71
55 -82 36 -96 -23 -17 -52 -16 -59 2 -11 27 -36 18 -32 -12 4 -39 46 -50 95
-26 54 26 56 64 9 123 -20 25 -36 48 -36 52 0 14 61 20 76 7 22 -18 39 2 25
30 -13 23 -35 25 -88 10z"/>
<path d="M4637 11122 c-42 -46 -51 -148 -16 -183 27 -27 62 -19 107 24 34 33
59 94 49 121 -9 23 -37 8 -37 -21 0 -45 -45 -102 -82 -103 -35 0 -30 99 8 141
9 10 13 23 9 28 -9 15 -20 14 -38 -7z"/>
<path d="M4886 11119 c-30 -24 -65 -90 -66 -125 0 -35 45 -69 91 -68 38 1 69
17 69 36 0 5 -21 6 -48 2 -59 -8 -78 9 -68 59 8 42 47 80 83 81 40 1 37 30 -3
34 -19 2 -40 -5 -58 -19z"/>
<path d="M7317 11103 c-20 -20 -37 -40 -37 -45 0 -4 -6 -8 -14 -8 -22 0 -31
-21 -15 -34 8 -6 20 -23 26 -39 16 -34 69 -67 108 -67 38 0 113 34 121 54 12
30 -7 35 -43 11 -45 -31 -112 -34 -136 -7 -23 25 -22 27 21 40 100 30 128 132
37 132 -23 0 -42 -10 -68 -37z m86 -19 c-7 -18 -55 -44 -80 -44 -14 0 -9 9 19
35 36 34 73 39 61 9z"/>
<path d="M11176 11115 c-58 -53 -70 -141 -25 -186 31 -31 123 -27 177 8 23 15
42 35 42 45 0 24 -10 23 -48 -6 -37 -27 -118 -42 -138 -25 -23 19 -16 33 30
60 53 32 69 78 40 110 -23 26 -46 24 -78 -6z m54 -29 c0 -16 -22 -41 -51 -56
-23 -13 -24 -8 -4 30 19 37 55 54 55 26z"/>
<path d="M12842 11122 c-58 -45 -82 -130 -43 -152 28 -14 87 -12 119 4 38 20
54 54 50 107 -3 43 -4 44 -35 43 -18 -1 -33 2 -33 7 0 15 -34 10 -58 -9z m96
-38 c2 -1 1 -16 -3 -33 -10 -46 -76 -76 -114 -52 -17 11 -8 41 24 75 20 21 30
25 57 19 18 -3 35 -7 36 -9z"/>
<path d="M3672 11118 c-7 -7 -12 -18 -12 -25 0 -18 -41 -136 -52 -150 -10 -13
-3 -33 12 -33 5 0 35 38 67 85 32 47 61 85 64 85 4 0 0 -22 -8 -50 -21 -71
-15 -104 20 -108 15 -2 27 1 27 7 0 6 9 11 20 11 21 0 38 25 26 38 -4 4 -21
-1 -38 -11 -17 -10 -33 -16 -35 -14 -2 3 5 36 15 74 14 47 17 75 10 86 -13 24
-22 21 -64 -15 -31 -27 -35 -29 -25 -10 18 34 -1 56 -27 30z"/>
<path d="M6831 11095 c-67 -77 -15 -138 69 -81 l35 23 2 -30 c1 -17 11 -40 22
-51 19 -18 21 -18 27 -2 4 9 2 22 -5 29 -6 6 -11 30 -11 54 0 32 -5 45 -17 50
-10 4 -24 15 -31 25 -21 29 -56 22 -91 -17z m69 -25 c0 -21 -32 -43 -57 -38
-13 2 -11 9 11 36 29 33 46 34 46 2z"/>
<path d="M9700 11094 c-44 -40 -51 -73 -25 -123 17 -34 33 -41 86 -41 39 0
131 39 144 61 18 28 -15 27 -66 -1 -54 -29 -83 -36 -113 -24 -17 6 -22 34 -7
34 16 0 81 71 81 89 0 22 -19 41 -42 41 -10 0 -36 -16 -58 -36z m35 -34 c-16
-16 -34 -30 -39 -30 -12 1 49 60 61 60 4 0 -6 -13 -22 -30z"/>
<path d="M14484 11095 c-25 -15 -50 -41 -65 -70 -22 -42 -23 -47 -9 -73 29
-52 134 -39 189 23 50 58 38 116 -27 135 -47 13 -40 14 -88 -15z m106 -55 c0
-32 -35 -67 -81 -80 -71 -21 -94 24 -39 78 25 25 38 30 75 30 42 -1 45 -3 45
-28z"/>
<path d="M8886 11089 c-50 -39 -71 -104 -41 -129 19 -16 69 1 105 35 l25 24 0
-52 c0 -40 4 -52 15 -52 9 0 16 10 17 25 8 122 9 120 -22 145 -37 30 -64 31
-99 4z m68 -28 c6 -10 -58 -71 -74 -71 -17 0 -11 26 11 54 20 26 53 34 63 17z"/>
<path d="M15129 11108 c-1 -1 -3 -23 -5 -48 -4 -46 -111 -271 -133 -278 -5 -2
-13 8 -17 22 -7 29 -22 34 -30 11 -10 -24 4 -62 24 -67 42 -11 61 10 127 144
53 107 65 140 63 172 -2 22 -9 41 -15 44 -7 2 -13 2 -14 0z"/>
<path d="M15302 11085 c-54 -46 -51 -128 6 -155 41 -18 152 -23 152 -6 0 9
-19 16 -57 21 -57 7 -103 27 -103 45 0 5 16 14 36 19 63 17 92 59 62 89 -20
20 -65 14 -96 -13z m68 -15 c0 -11 -50 -34 -57 -26 -3 2 8 11 24 20 34 19 33
18 33 6z"/>
<path d="M15582 11082 c-79 -74 -40 -148 87 -168 34 -5 41 -4 41 9 0 11 -15
20 -42 27 -87 22 -100 36 -82 85 10 24 58 47 73 32 15 -15 36 5 28 27 -11 27
-71 20 -105 -12z"/>
<path d="M17074 11099 c-11 -6 -29 -24 -38 -40 -22 -38 -9 -77 33 -102 36 -21
44 -21 86 -1 26 12 35 24 40 52 6 34 4 40 -31 70 -39 34 -55 37 -90 21z m66
-47 c46 -37 -6 -90 -55 -58 -31 20 -32 40 -3 60 28 20 31 20 58 -2z"/>
<path d="M5808 11080 c-47 -24 -96 -95 -82 -118 16 -25 57 -26 103 -3 48 25
51 25 51 7 0 -14 36 -46 52 -46 3 0 14 8 24 18 17 16 16 17 -12 22 -26 5 -30
10 -34 51 -9 76 -44 100 -102 69z m59 -37 c6 -17 -63 -65 -88 -61 -21 3 -21 5
14 41 35 37 66 46 74 20z"/>
<path d="M9187 11093 c-4 -3 -24 -7 -44 -8 -34 -1 -39 -4 -48 -35 -5 -19 -18
-47 -29 -62 -18 -27 -16 -58 3 -58 6 0 26 25 47 55 39 60 59 75 98 75 39 0 47
-26 25 -84 -19 -48 -19 -83 1 -71 16 10 50 95 50 126 0 44 -76 90 -103 62z"/>
<path d="M9424 11064 c-31 -15 -64 -60 -64 -88 0 -39 62 -37 121 4 16 12 32
21 34 19 2 -2 1 -43 -2 -91 l-6 -86 -36 -7 c-93 -18 -141 -64 -141 -138 0 -31
7 -46 34 -73 42 -42 60 -43 96 -4 28 30 70 124 70 156 0 13 8 14 40 9 52 -9
55 15 5 34 l-36 13 7 109 c7 113 -1 147 -33 135 -8 -3 -24 1 -36 9 -19 12 -26
12 -53 -1z m43 -41 c4 -10 -58 -45 -66 -37 -2 2 6 15 19 29 24 25 41 28 47 8z
m27 -270 c-10 -45 -55 -134 -70 -140 -19 -7 -51 22 -58 53 -13 52 46 112 112
114 19 0 22 -4 16 -27z"/>
<path d="M7809 10953 c-2 -68 -19 -95 -58 -91 -20 2 -27 -2 -29 -18 -4 -28 22
-37 57 -20 35 19 45 32 59 82 17 59 15 74 -8 74 -15 0 -20 -7 -21 -27z"/>
<path d="M8787 10953 c-4 -3 -7 -11 -7 -17 0 -6 5 -5 12 2 6 6 9 14 7 17 -3 3
-9 2 -12 -2z"/>
<path d="M6182 10866 c-43 -47 -72 -121 -72 -187 0 -46 -9 -53 -79 -54 -58 -1
-76 -16 -41 -35 15 -8 35 -8 66 -2 42 9 44 9 44 -15 0 -55 -77 -163 -116 -163
-19 0 -18 -29 1 -36 40 -16 129 95 147 183 8 36 14 44 28 40 18 -5 50 9 50 21
0 4 -12 9 -26 10 -42 3 -46 10 -39 66 13 95 60 172 97 160 23 -7 35 21 18 41
-20 24 -35 18 -78 -29z"/>
<path d="M2155 10890 c-3 -5 -1 -17 5 -27 9 -14 5 -39 -19 -113 -16 -52 -42
-146 -56 -209 l-27 -113 28 -24 c36 -29 79 -30 122 -4 63 39 90 119 56 168
-24 34 -69 27 -121 -21 -13 -11 -23 -16 -23 -11 0 17 50 191 65 228 20 48 20
122 -1 130 -20 8 -22 8 -29 -4z m89 -356 c19 -48 -83 -144 -119 -114 -24 20
-18 37 28 85 45 46 80 57 91 29z"/>
<path d="M7247 10853 c-8 -16 -35 -69 -61 -120 l-46 -92 -48 -3 c-33 -2 -47
-7 -47 -18 0 -11 10 -14 40 -12 l40 3 0 -60 c0 -54 3 -64 31 -91 33 -34 89
-46 89 -20 0 8 -9 16 -20 18 -51 10 -85 74 -66 125 10 25 15 27 66 27 30 0 55
4 55 8 0 18 -26 32 -58 32 -30 0 -33 2 -26 23 3 12 26 59 51 104 41 75 47 103
23 103 -5 0 -15 -12 -23 -27z"/>
<path d="M5290 10838 c-5 -13 -25 -61 -44 -108 l-34 -85 -64 0 c-49 0 -63 -3
-63 -15 0 -10 14 -17 47 -20 26 -3 50 -8 53 -11 3 -3 -6 -31 -20 -63 -31 -70
-32 -111 -5 -126 11 -6 25 -8 30 -5 13 8 7 45 -8 54 -8 5 -3 26 19 71 17 36
35 68 41 71 5 4 34 9 63 13 68 8 85 14 85 33 0 15 -21 14 -112 -3 -16 -3 -28
-3 -28 -1 0 3 14 37 31 77 17 40 28 79 25 87 -3 8 -2 12 3 9 11 -7 23 22 15
35 -9 16 -24 10 -34 -13z"/>
<path d="M3497 10784 c-4 -4 -7 -23 -7 -41 0 -19 -18 -79 -40 -135 -49 -125
-59 -168 -36 -168 8 0 22 12 30 28 8 15 30 43 50 61 44 42 59 34 46 -24 -14
-60 -12 -95 4 -95 21 0 23 6 31 92 7 76 7 78 -16 87 -18 7 -33 4 -58 -10 -31
-18 -33 -18 -26 -2 34 80 46 120 48 160 2 42 -10 63 -26 47z"/>
<path d="M3355 10768 c-2 -7 -11 -38 -20 -68 -9 -30 -19 -66 -23 -79 -5 -17
-19 -28 -52 -37 -25 -8 -51 -12 -58 -9 -13 5 -29 -21 -20 -31 3 -2 30 -1 61 4
l55 9 -18 -53 c-27 -77 -29 -108 -7 -112 11 -2 17 3 18 15 0 10 10 49 22 88
19 57 27 70 47 75 14 3 26 14 28 24 3 15 -1 18 -17 13 -26 -6 -26 0 -1 87 11
38 17 73 14 77 -8 13 -24 11 -29 -3z"/>
<path d="M7496 10716 c-20 -31 -15 -44 16 -42 27 1 34 24 15 50 -13 17 -14 17
-31 -8z"/>
<path d="M4820 10695 c-19 -23 1 -40 30 -25 17 9 19 14 9 26 -15 18 -23 18
-39 -1z"/>
<path d="M2426 10619 c-19 -17 -45 -46 -56 -65 -45 -72 19 -145 108 -122 49
12 132 81 116 97 -7 8 -22 3 -53 -20 -58 -42 -94 -53 -120 -39 -24 12 -28 40
-6 40 22 0 95 69 95 90 0 16 -29 50 -43 50 -3 0 -22 -14 -41 -31z m24 -44
c-13 -14 -26 -23 -28 -20 -7 7 29 45 41 45 6 0 0 -11 -13 -25z"/>
<path d="M4632 10622 c-31 -5 -73 -61 -88 -119 -17 -64 -17 -93 0 -93 14 0 28
34 41 97 4 18 15 44 27 58 17 22 25 25 55 19 27 -5 35 -4 31 6 -6 20 -40 37
-66 32z"/>
<path d="M4408 10606 c-15 -8 -37 -16 -49 -18 -15 -2 -26 -14 -32 -33 -5 -16
-16 -37 -24 -46 -8 -9 -16 -39 -18 -65 -2 -27 -14 -85 -26 -129 -25 -93 -29
-136 -12 -142 11 -4 24 31 62 175 9 32 17 42 33 42 39 0 84 39 117 99 33 62
39 99 19 119 -16 16 -37 15 -70 -2z m42 -42 c0 -30 -54 -115 -82 -130 -37 -19
-39 -18 -32 14 12 52 36 91 67 111 39 25 47 26 47 5z"/>
<path d="M7913 10589 c-20 -13 -34 -16 -38 -9 -11 18 -35 11 -45 -15 -5 -13
-20 -41 -33 -62 -25 -39 -29 -85 -9 -105 8 -8 15 0 27 28 16 39 75 107 107
125 14 8 14 4 -3 -31 -24 -49 -25 -115 -3 -124 27 -10 48 -6 74 14 19 14 22
22 14 30 -9 9 -18 8 -38 -5 -39 -26 -42 -2 -11 83 34 95 23 113 -42 71z"/>
<path d="M3697 10584 c-40 -22 -76 -84 -70 -120 9 -51 40 -74 97 -74 57 0 116
18 116 36 0 22 -17 24 -54 9 -49 -21 -82 -19 -108 7 l-22 22 34 7 c72 15 122
121 60 126 -14 2 -37 -4 -53 -13z m33 -44 c-12 -23 -50 -46 -50 -30 0 13 37
50 50 50 7 0 7 -6 0 -20z"/>
<path d="M4901 10554 c-17 -14 -31 -21 -31 -15 0 6 -7 8 -15 5 -8 -4 -15 -12
-15 -19 0 -7 -7 -26 -15 -41 -19 -36 -19 -74 -2 -74 8 0 26 22 40 49 24 44 63
81 84 81 5 0 8 -26 8 -57 0 -43 4 -58 14 -58 10 0 15 17 18 64 5 94 -25 117
-86 65z"/>
<path d="M6529 10561 c-13 -10 -29 -16 -36 -14 -15 5 -96 -148 -84 -160 14
-14 27 -2 67 58 40 61 93 110 105 98 4 -4 0 -36 -9 -70 -13 -49 -14 -65 -4
-75 16 -16 20 -11 42 73 17 68 18 75 3 91 -21 23 -54 23 -84 -1z"/>
<path d="M6234 10562 c-39 -26 -56 -120 -28 -160 18 -27 46 -28 100 -3 32 15
45 28 61 67 29 67 31 88 11 92 -10 2 -19 -5 -23 -20 -23 -82 -55 -118 -105
-118 -16 0 -20 7 -20 39 0 22 8 48 19 62 25 33 15 61 -15 41z"/>
<path d="M6765 10552 c-84 -53 -95 -121 -25 -157 30 -15 77 -20 104 -9 22 9
10 24 -20 24 -14 0 -40 7 -59 14 -45 19 -45 45 -3 81 25 21 39 26 65 22 33 -6
53 7 36 24 -19 19 -68 20 -98 1z"/>
<path d="M7400 10528 c-34 -56 -52 -186 -25 -181 6 1 15 25 22 54 6 28 16 56
22 62 6 6 11 20 11 32 0 12 5 26 11 32 12 12 4 33 -12 33 -5 0 -18 -15 -29
-32z"/>
<path d="M7606 10526 c-39 -36 -44 -60 -20 -94 19 -27 87 -31 122 -6 45 31 12
134 -43 134 -13 0 -40 -15 -59 -34z m70 -14 c6 -4 14 -17 18 -29 9 -27 -22
-46 -59 -37 -29 7 -32 29 -8 56 17 19 31 22 49 10z"/>
<path d="M4757 10543 c-17 -31 -39 -125 -30 -134 6 -6 13 -5 20 3 16 20 44
118 38 128 -7 12 -22 13 -28 3z"/>
<path d="M8141 10421 c-19 -12 -6 -43 16 -39 10 2 18 12 18 22 0 22 -14 29
-34 17z"/>
<path d="M2715 10348 c-22 -4 -157 -12 -300 -18 -354 -13 -427 -18 -439 -30
-22 -22 14 -26 149 -19 77 4 244 13 370 19 246 11 275 15 275 36 0 19 -10 21
-55 12z"/>
<path d="M2305 10229 c-60 -5 -146 -13 -190 -20 -44 -6 -97 -14 -118 -16 -41
-6 -50 -13 -38 -31 6 -10 26 -9 92 2 146 25 320 36 571 36 245 0 292 6 243 28
-30 14 -382 14 -560 1z"/>
<path d="M16655 9900 c-3 -5 9 -25 28 -42 54 -52 90 -154 91 -258 1 -76 -2
-91 -28 -138 -32 -57 -101 -126 -116 -117 -18 11 -31 -5 -20 -26 15 -28 32
-24 81 20 100 88 143 214 114 337 -33 144 -120 273 -150 224z"/>
<path d="M16335 9840 c-13 -21 8 -30 66 -30 l59 0 0 -72 c0 -40 5 -113 10
-162 10 -88 8 -110 -22 -188 -10 -27 -14 -28 -82 -29 -88 -1 -120 -10 -124
-33 -3 -16 1 -17 35 -12 21 4 72 7 114 8 l76 2 22 73 c22 71 23 81 13 206 -6
73 -8 154 -5 181 4 35 2 50 -8 57 -19 12 -146 11 -154 -1z"/>
<path d="M15808 9810 c-9 -24 -17 -88 -39 -335 -19 -211 -21 -205 82 -205 36
0 70 -5 77 -12 9 -9 13 -7 18 7 11 29 -22 45 -93 45 -72 0 -67 -11 -53 123 5
51 14 144 20 207 15 153 16 159 37 154 10 -3 45 -1 78 3 43 6 60 12 60 23 0
12 -17 15 -89 15 -85 0 -89 -1 -98 -25z"/>
<path d="M11561 9821 c-23 -6 -24 -9 -26 -126 -3 -102 -8 -135 -34 -219 -34
-109 -43 -202 -20 -217 22 -15 154 -4 154 12 0 10 -16 14 -62 14 -34 0 -65 3
-69 8 -9 9 6 86 41 217 17 63 26 125 27 188 l2 93 61 -6 c33 -4 65 -8 70 -9 6
0 10 6 10 14 0 9 -20 18 -60 27 -67 14 -62 13 -94 4z"/>
<path d="M12001 9787 c-25 -25 2 -32 106 -30 l106 2 -7 -70 c-3 -39 -16 -112
-27 -162 -12 -51 -25 -110 -28 -132 -4 -23 -10 -46 -14 -52 -10 -16 -72 -33
-119 -33 -42 0 -55 -12 -32 -31 12 -10 27 -10 77 -1 125 25 114 17 120 83 4
32 15 95 26 141 22 94 52 281 45 287 -8 8 -245 6 -253 -2z"/>
<path d="M7769 9788 c-1 -2 -3 -13 -4 -26 -1 -13 -22 -61 -46 -108 -48 -92
-60 -99 -120 -69 -29 15 -49 13 -49 -5 0 -14 55 -40 85 -40 14 0 25 -1 25 -2
0 -2 -11 -25 -25 -52 -35 -68 -33 -156 2 -156 12 0 14 9 9 43 -5 34 -1 54 23
104 26 55 34 63 69 72 22 6 53 8 69 5 20 -4 33 -1 42 10 18 22 -5 30 -73 24
l-53 -4 38 77 c41 81 50 129 24 129 -8 0 -16 -1 -16 -2z"/>
<path d="M8193 9778 c-13 -6 -23 -17 -23 -25 0 -8 -4 -12 -9 -9 -11 7 -87 -75
-130 -141 -87 -131 -97 -284 -24 -381 27 -36 78 -66 95 -56 7 4 8 3 4 -4 -5
-8 0 -12 13 -12 35 0 34 20 -2 35 -82 34 -127 107 -127 206 0 83 56 191 154
296 44 48 59 57 97 62 30 4 44 11 44 21 0 19 -60 24 -92 8z"/>
<path d="M16045 9742 c-3 -3 -5 -11 -5 -19 0 -9 14 -13 44 -13 55 0 63 -10 31
-40 -34 -32 -31 -48 10 -56 39 -7 93 -56 102 -92 8 -33 -11 -68 -48 -87 -41
-22 -127 -13 -164 17 -28 22 -58 18 -49 -6 18 -47 171 -73 235 -41 36 19 69
70 69 106 0 30 -48 96 -91 123 l-30 18 33 24 c17 13 36 24 40 24 4 0 8 9 8 20
0 17 -7 20 -47 22 -27 1 -67 2 -90 3 -24 1 -45 0 -48 -3z"/>
<path d="M11855 9728 c-31 -17 -95 -81 -95 -95 0 -23 22 -14 66 27 43 39 67
49 79 31 9 -16 -41 -81 -142 -183 -67 -69 -94 -102 -89 -113 5 -15 10 -14 40
4 42 26 50 26 85 0 26 -19 30 -20 64 -6 43 18 67 54 42 63 -10 4 -24 -2 -36
-15 -23 -25 -42 -27 -59 -6 -7 8 -19 15 -26 15 -23 0 -17 11 42 68 109 107
151 193 102 207 -48 14 -54 14 -73 3z"/>
<path d="M16984 9669 c-9 -15 12 -33 30 -26 9 4 16 13 16 22 0 17 -35 21 -46
4z"/>
<path d="M7264 9659 c-9 -16 12 -33 31 -25 14 5 15 9 5 21 -15 18 -26 19 -36
4z"/>
<path d="M8610 9629 c0 -5 -4 -8 -10 -4 -12 7 -79 -53 -111 -99 -13 -19 -31
-37 -40 -39 -10 -3 -23 -26 -33 -61 -9 -30 -30 -85 -47 -121 -31 -67 -35 -105
-11 -113 13 -4 30 29 67 136 13 35 26 59 30 53 11 -18 57 -12 92 12 41 27 120
140 129 183 4 22 1 36 -11 47 -18 19 -55 23 -55 6z m30 -48 c0 -24 -63 -119
-98 -148 -29 -24 -72 -31 -72 -11 0 22 63 109 107 148 46 40 63 43 63 11z"/>
<path d="M4281 9614 c-33 -24 -81 -103 -81 -135 0 -42 17 -78 43 -90 30 -14
97 3 121 30 29 32 10 43 -32 21 -40 -22 -77 -26 -87 -10 -3 5 13 26 35 46 67
61 89 123 51 144 -25 13 -22 13 -50 -6z m16 -67 c-17 -32 -57 -66 -57 -49 0
15 61 94 68 88 3 -4 -2 -21 -11 -39z"/>
<path d="M7043 9559 c-44 -45 -51 -57 -76 -132 -15 -43 -15 -48 -1 -54 20 -7
29 7 49 72 13 46 64 115 85 115 4 0 10 -6 13 -12 4 -10 7 -10 18 0 10 9 11 17
3 30 -20 31 -49 25 -91 -19z"/>
<path d="M8804 9587 c-44 -26 -94 -70 -94 -83 0 -8 -12 -33 -26 -55 -24 -39
-26 -69 -5 -69 6 0 24 24 40 53 40 72 58 95 88 114 24 16 26 16 43 -8 17 -22
19 -22 26 -6 9 25 -12 67 -33 67 -10 -1 -27 -6 -39 -13z"/>
<path d="M9259 9576 c-64 -44 -83 -138 -36 -171 39 -27 147 -16 147 15 0 15
-6 16 -45 9 -83 -16 -114 15 -81 79 13 26 37 42 79 56 10 3 17 12 15 19 -8 21
-42 18 -79 -7z"/>
<path d="M12938 9567 c-21 -12 -38 -26 -38 -30 0 -5 -10 -22 -21 -39 -22 -30
-58 -197 -59 -265 0 -60 26 -38 56 47 18 50 35 82 46 86 29 9 107 103 118 142
7 28 6 41 -5 59 -19 29 -49 29 -97 0z m72 -34 c-1 -10 -6 -27 -13 -39 -13 -22
-63 -84 -69 -84 -2 0 -1 23 1 52 2 38 9 56 25 69 27 24 56 24 56 2z"/>
<path d="M13163 9565 c-22 -18 -38 -44 -53 -90 -20 -61 -20 -85 0 -85 14 0 40
55 40 83 0 48 65 99 85 67 9 -15 35 -12 35 3 0 20 -33 47 -56 47 -10 0 -33
-11 -51 -25z"/>
<path d="M13839 9575 c-65 -35 -79 -116 -29 -159 51 -42 190 -47 198 -6 2 12
-12 15 -77 15 -69 0 -84 3 -102 21 l-21 22 26 -5 c35 -7 103 38 112 74 12 47
-50 69 -107 38z m71 -34 c0 -15 -50 -42 -73 -39 l-22 3 23 23 c21 21 72 31 72
13z"/>
<path d="M14102 9574 c-12 -8 -22 -19 -22 -23 0 -4 15 -28 34 -52 19 -24 38
-56 41 -71 6 -24 4 -28 -13 -28 -36 0 -52 11 -52 36 0 26 -10 30 -28 12 -33
-33 5 -76 76 -85 27 -4 42 -1 51 11 19 23 0 88 -41 140 l-31 39 39 -7 c66 -11
87 -11 90 -1 4 13 -65 45 -97 45 -14 0 -35 -7 -47 -16z"/>
<path d="M15470 9511 l0 -76 -20 30 c-11 17 -23 47 -26 68 -7 40 -20 55 -35
40 -23 -23 49 -183 82 -183 19 0 41 72 35 115 -7 42 -7 42 23 37 36 -5 101 15
101 31 0 8 -26 12 -80 13 l-80 1 0 -76z"/>
<path d="M6822 9560 c-47 -29 -88 -99 -102 -178 -7 -37 -21 -91 -32 -121 -22
-67 -22 -71 1 -71 15 0 24 16 42 75 21 65 27 75 47 75 51 0 110 48 137 112 21
52 19 75 -10 103 -29 30 -40 31 -83 5z m66 -49 c8 -50 -53 -131 -99 -131 -22
0 -23 5 -7 66 21 76 98 124 106 65z"/>
<path d="M9500 9538 c-36 -49 -39 -98 -10 -145 24 -40 51 -47 134 -38 45 4 66
11 71 22 8 23 -11 41 -27 25 -7 -7 -39 -12 -75 -12 -68 0 -83 12 -83 64 0 23
4 26 33 26 38 0 57 15 57 45 0 25 -29 55 -53 55 -9 0 -30 -19 -47 -42z m65 -8
c3 -6 -1 -13 -10 -16 -19 -8 -30 0 -20 15 8 14 22 14 30 1z"/>
<path d="M11148 9575 c-6 -6 -1 -116 8 -172 9 -60 64 -29 84 47 l11 42 47 -7
c50 -7 112 9 96 24 -5 5 -45 11 -89 13 l-80 3 -17 -50 -17 -50 -1 40 c-1 89
-18 134 -42 110z"/>
<path d="M4565 9538 c-30 -28 -38 -42 -39 -74 -1 -38 0 -39 36 -42 20 -2 46 2
58 8 19 10 20 8 20 -33 0 -25 -3 -58 -6 -75 -6 -28 -9 -30 -62 -34 -68 -6 -86
-25 -77 -83 7 -48 32 -92 62 -112 19 -13 24 -12 42 6 11 11 30 52 41 90 12 38
28 72 37 75 12 5 13 9 3 21 -10 12 -11 44 -7 123 4 59 8 116 9 127 2 15 -3 20
-22 21 -14 1 -33 5 -42 9 -11 4 -28 -4 -53 -27z m64 -17 c24 -15 -21 -71 -58
-71 -18 0 -12 33 11 57 24 25 27 26 47 14z m-13 -292 c-3 -16 -14 -49 -24 -72
l-18 -42 -18 27 c-10 15 -20 45 -23 67 -6 42 -1 46 66 50 21 1 23 -2 17 -30z"/>
<path d="M8968 9522 c-36 -52 -41 -98 -13 -118 66 -48 203 47 175 121 -11 29
-17 32 -83 38 -47 5 -48 4 -79 -41z m32 -2 c0 -5 -4 -10 -10 -10 -5 0 -10 5
-10 10 0 6 5 10 10 10 6 0 10 -4 10 -10z m96 -5 c14 -36 -66 -103 -106 -90
-26 8 -25 36 0 68 18 23 35 29 88 36 7 0 15 -6 18 -14z"/>
<path d="M13594 9548 c-82 -63 -83 -132 -4 -177 43 -24 99 -22 121 5 16 20 2
36 -21 24 -46 -25 -120 8 -120 54 0 29 51 79 72 71 21 -8 33 12 18 30 -17 21
-32 19 -66 -7z"/>
<path d="M14818 9550 c-14 -11 -33 -38 -42 -61 -14 -34 -14 -45 -4 -67 16 -32
50 -40 84 -18 18 12 24 13 24 4 1 -25 37 -61 54 -55 16 6 16 9 -3 36 -25 34
-27 69 -6 85 32 23 -21 96 -71 96 -6 0 -23 -9 -36 -20z m49 -57 c-9 -57 -67
-95 -67 -45 0 27 38 82 56 82 14 0 16 -7 11 -37z"/>
<path d="M15010 9555 c-16 -19 -40 -101 -40 -137 0 -18 5 -28 14 -28 20 0 26
11 36 76 11 68 15 72 42 55 31 -19 45 2 19 28 -24 24 -53 27 -71 6z"/>
<path d="M7394 9546 c-18 -8 -35 -19 -39 -25 -4 -7 -15 -9 -25 -6 -15 5 -23
-3 -38 -38 -11 -25 -25 -48 -31 -51 -18 -12 -12 -36 9 -36 11 0 20 4 20 9 0
22 123 131 134 120 2 -2 -3 -32 -12 -67 -14 -57 -14 -65 1 -79 20 -20 39 -8
31 22 -3 13 2 49 11 80 24 85 10 101 -61 71z"/>
<path d="M9760 9547 c-19 -7 -36 -20 -38 -29 -2 -9 18 -43 44 -74 41 -52 44
-59 28 -65 -22 -7 -44 -1 -44 12 0 16 -28 10 -34 -8 -9 -23 5 -34 52 -40 32
-4 44 -1 61 16 25 25 20 39 -35 107 -28 35 -31 43 -17 48 8 4 30 4 48 0 20 -4
35 -1 40 6 17 28 -52 45 -105 27z"/>
<path d="M14323 9543 c-7 -18 7 -91 28 -140 18 -44 5 -51 -44 -25 -45 24 -67
28 -67 13 0 -16 50 -50 91 -62 69 -21 87 18 48 105 -11 26 -19 58 -17 71 3 24
4 24 32 10 30 -16 56 -14 56 4 0 16 -55 41 -90 41 -19 0 -33 -6 -37 -17z"/>
<path d="M9972 9534 c-31 -21 -28 -36 18 -89 22 -25 40 -50 40 -55 0 -24 -76
-27 -102 -3 -15 13 -21 14 -31 4 -9 -10 -6 -18 17 -38 29 -25 53 -26 119 -7
47 14 39 71 -17 123 -14 14 -26 28 -26 32 0 13 43 18 63 8 29 -16 49 7 23 27
-26 19 -76 18 -104 -2z"/>
<path d="M10479 9512 c-41 -42 -58 -86 -42 -111 14 -22 50 -25 78 -7 24 16 25
15 31 -8 8 -34 31 -53 46 -38 8 8 8 15 -1 26 -8 10 -10 33 -5 74 6 53 4 62
-15 81 -30 30 -48 26 -92 -17z m71 -18 c0 -26 -19 -53 -50 -69 -28 -15 -30
-14 -30 4 0 24 46 81 66 81 8 0 14 -7 14 -16z"/>
<path d="M13357 9529 c-73 -55 -74 -141 -2 -163 40 -12 105 45 120 105 14 57
-66 96 -118 58z m83 -50 c0 -23 -51 -79 -73 -79 -8 0 -20 6 -26 14 -17 20 11
73 41 79 49 9 58 7 58 -14z"/>
<path d="M10736 9517 c-13 -13 -31 -27 -39 -30 -17 -6 -32 -86 -18 -100 9 -9
19 3 63 83 14 25 23 31 45 28 22 -2 28 1 28 17 0 31 -49 32 -79 2z"/>
<path d="M15164 9504 c-58 -60 -40 -139 31 -137 20 1 35 -4 35 -10 0 -7 13
-40 29 -74 16 -34 27 -64 24 -67 -4 -3 -16 -6 -28 -6 -28 0 -94 -27 -117 -48
-29 -25 -21 -58 25 -107 36 -37 50 -45 80 -45 23 0 45 8 64 24 24 21 28 32 31
93 4 65 1 75 -33 140 -39 74 -43 104 -30 200 7 51 7 53 -19 63 -43 16 -56 12
-92 -26z m82 -20 c-3 -9 -9 -28 -13 -42 -10 -44 -45 -56 -62 -24 -15 28 21 82
55 82 20 0 25 -4 20 -16z m61 -355 c-8 -63 -20 -79 -62 -79 -26 0 -40 8 -64
37 -23 28 -28 40 -19 50 12 15 91 41 127 42 23 1 24 -1 18 -50z"/>
<path d="M16961 9513 c3 -44 -9 -70 -44 -92 -23 -14 -35 -17 -44 -9 -7 6 -13
7 -13 3 0 -4 -7 -2 -15 5 -24 20 -17 -5 10 -34 l25 -27 41 23 c22 12 49 37 60
55 25 40 23 96 -4 101 -14 3 -17 -3 -16 -25z"/>
<path d="M7184 9483 c-25 -61 -29 -93 -11 -93 17 0 62 105 52 121 -12 18 -25
8 -41 -28z"/>
<path d="M10921 9485 c-58 -49 -31 -115 40 -100 l29 7 0 -91 0 -91 -56 0 c-48
0 -59 -4 -85 -29 -21 -22 -29 -39 -29 -66 0 -99 70 -127 141 -56 22 21 42 53
45 70 5 25 11 31 33 31 34 0 55 14 48 32 -3 10 -15 13 -37 10 l-32 -5 6 44 c3
24 7 94 8 154 l3 110 -41 3 c-33 2 -48 -2 -73 -23z m79 -25 c0 -21 -27 -40
-60 -40 -18 0 -19 3 -10 21 10 18 40 36 63 38 4 1 7 -8 7 -19z m-25 -312 c-18
-60 -74 -110 -99 -89 -23 19 -29 61 -11 87 13 20 24 24 66 24 48 0 50 -1 44
-22z"/>
<path d="M4417 9453 c-13 -12 -7 -54 8 -60 23 -8 28 1 20 36 -6 30 -15 38 -28
24z"/>
<path d="M4784 9429 c-10 -17 23 -46 38 -31 8 8 8 15 -2 27 -15 18 -26 19 -36
4z"/>
<path d="M9380 9424 c0 -8 5 -12 10 -9 6 3 10 10 10 16 0 5 -4 9 -10 9 -5 0
-10 -7 -10 -16z"/>
<path d="M5768 9414 c-29 -15 -37 -41 -15 -49 6 -2 28 -1 47 3 28 6 35 12 35
32 0 31 -28 36 -67 14z"/>
<path d="M12390 9400 c0 -33 -22 -75 -53 -101 -13 -11 -18 -23 -14 -34 10 -25
28 -14 66 39 39 55 49 118 19 124 -14 3 -18 -3 -18 -28z"/>
<path d="M10165 9390 c-13 -15 -15 -24 -8 -31 15 -15 55 7 51 28 -5 25 -22 26
-43 3z"/>
<path d="M6107 9394 c-8 -8 2 -55 15 -69 11 -12 47 32 48 58 0 12 -8 17 -28
17 -16 0 -32 -3 -35 -6z"/>
<path d="M5498 9377 c-7 -8 -18 -12 -25 -10 -18 6 -26 -16 -12 -33 11 -13 15
-13 23 -2 6 7 24 14 41 16 36 4 39 7 32 27 -8 19 -41 20 -59 2z"/>
<path d="M14550 9345 c-9 -11 -10 -19 -3 -26 14 -14 56 7 50 24 -6 19 -32 20
-47 2z"/>
<path d="M7028 8879 c-50 -13 -65 -28 -77 -74 -6 -25 -9 -50 -6 -55 3 -5 3
-33 -1 -62 -6 -43 -14 -60 -44 -90 -22 -23 -47 -38 -61 -38 -30 0 -92 -37 -84
-50 4 -6 28 -7 58 -4 66 8 82 -6 73 -68 -20 -146 -19 -175 2 -196 12 -12 34
-24 49 -27 16 -3 47 -10 71 -15 46 -11 62 -7 62 15 0 9 -17 16 -47 20 -124 17
-137 35 -108 146 18 71 15 111 -11 140 -12 13 -9 20 21 49 40 39 55 84 59 177
2 55 6 69 25 84 26 21 57 24 96 9 35 -13 51 -3 30 20 -18 20 -70 29 -107 19z"/>
<path d="M5275 8830 c-12 -19 6 -30 47 -30 24 0 49 -7 59 -16 16 -14 16 -20 4
-55 -8 -22 -26 -54 -40 -73 -30 -40 -31 -49 -4 -92 16 -27 18 -34 6 -34 -8 0
-20 -7 -28 -16 -11 -13 -10 -21 5 -49 21 -39 16 -93 -12 -118 -19 -17 -97 -47
-124 -47 -10 0 -18 5 -18 11 0 6 -8 9 -17 7 -27 -5 -21 -31 10 -46 39 -19 129
9 176 55 33 33 34 35 29 102 -5 66 -5 68 23 80 35 15 37 35 5 56 -37 25 -38
41 -5 93 42 68 47 112 18 151 -20 28 -28 31 -75 31 -29 0 -56 -4 -59 -10z"/>
<path d="M6010 8808 c0 -2 -1 -113 -2 -248 -1 -206 1 -245 13 -245 17 0 17 2
20 255 2 249 2 240 -16 240 -8 0 -15 -1 -15 -2z"/>
<path d="M6220 8587 c-41 -21 -39 -67 5 -116 25 -28 39 -53 42 -81 6 -41 6
-41 -23 -34 -42 10 -44 12 -44 45 0 24 -4 30 -17 27 -31 -6 -28 -54 3 -83 22
-20 36 -25 67 -23 24 2 44 10 51 20 16 26 -9 107 -45 143 -16 17 -29 41 -29
54 0 22 3 23 45 19 48 -6 64 4 45 27 -15 18 -66 19 -100 2z"/>
<path d="M5754 8556 c-23 -10 -36 -27 -53 -68 -25 -62 -21 -84 25 -132 25 -27
31 -28 86 -23 61 5 88 19 88 44 0 11 -6 13 -22 8 -80 -24 -93 -25 -117 -7 -36
27 -35 35 12 57 117 55 99 172 -19 121z m54 -48 c-9 -13 -30 -32 -48 -42 l-32
-19 7 24 c9 30 41 59 67 59 19 0 19 -2 6 -22z"/>
<path d="M6475 8553 c-87 -13 -119 -128 -52 -190 40 -37 108 -58 137 -43 31
17 23 37 -13 31 -25 -4 -89 23 -106 46 -29 36 -26 43 17 43 50 0 82 23 82 60
0 22 -25 66 -33 59 -1 -1 -15 -4 -32 -6z m25 -48 c0 -16 -30 -35 -54 -35 -22
0 -9 30 18 40 30 13 36 12 36 -5z"/>
<path d="M7851 8238 c-10 -24 -54 -97 -97 -163 -96 -147 -151 -252 -138 -265
14 -14 26 0 63 74 19 38 68 118 108 178 40 60 73 111 73 114 0 2 11 22 25 45
14 22 23 44 20 49 -13 22 -37 8 -54 -32z"/>
<path d="M10410 8252 c0 -45 -36 -152 -91 -272 -27 -59 -49 -114 -49 -124 0
-26 29 -19 40 10 16 42 131 150 169 159 18 4 35 4 39 1 3 -4 -9 -42 -26 -84
-35 -86 -39 -112 -18 -112 14 0 86 174 86 209 0 44 -83 38 -150 -10 -33 -24
-41 -27 -35 -13 65 159 84 256 53 262 -14 3 -18 -3 -18 -26z"/>
<path d="M8511 8242 c-5 -10 -21 -63 -35 -118 -43 -168 -54 -196 -83 -220 -23
-19 -26 -26 -17 -41 25 -43 128 -68 174 -43 51 27 90 156 58 188 -18 18 -69
14 -106 -8 -19 -12 -31 -16 -28 -11 6 9 66 225 69 250 3 22 -21 24 -32 3z m77
-277 c1 -11 -8 -40 -20 -65 -26 -51 -64 -69 -110 -51 l-28 10 17 36 c18 38 97
98 123 93 8 -2 16 -12 18 -23z"/>
<path d="M8062 8227 c-12 -13 -22 -27 -22 -33 0 -10 -166 -245 -238 -337 -41
-52 -47 -78 -19 -76 7 0 26 20 42 44 17 25 73 104 126 177 53 73 104 147 113
165 9 18 25 37 36 43 11 6 17 16 14 25 -9 21 -27 18 -52 -8z"/>
<path d="M9041 8154 c-8 -18 -9 -30 -2 -37 15 -15 43 12 39 36 -5 31 -23 31
-37 1z"/>
<path d="M13667 8108 c-13 -35 -28 -77 -31 -94 -7 -30 -8 -31 -54 -26 -41 3
-52 0 -80 -23 -25 -21 -32 -35 -32 -62 0 -91 63 -122 124 -60 25 24 42 60 71
147 20 63 44 127 51 142 18 35 18 38 -5 38 -14 0 -25 -17 -44 -62z m-63 -188
c-16 -40 -60 -83 -75 -74 -6 3 -15 17 -20 31 -13 34 11 71 48 75 63 7 63 7 47
-32z"/>
<path d="M11898 8098 c-21 -11 -38 -27 -38 -36 0 -10 -11 -44 -25 -77 -29 -71
-32 -108 -9 -103 10 2 28 35 48 87 20 54 40 91 56 103 29 21 56 16 65 -13 8
-25 35 -24 35 1 0 29 -36 60 -67 59 -16 0 -45 -9 -65 -21z"/>
<path d="M12864 8109 c-3 -6 -2 -15 4 -21 11 -11 52 6 52 22 0 14 -47 13 -56
-1z"/>
<path d="M10947 8043 c-21 -21 -35 -30 -31 -21 6 18 -20 37 -33 24 -12 -12
-34 -189 -24 -199 12 -12 31 0 31 19 0 28 59 132 90 158 38 32 47 32 77 5 20
-20 23 -20 29 -5 10 27 -24 56 -65 56 -29 0 -44 -8 -74 -37z"/>
<path d="M13257 8035 c-50 -35 -71 -77 -63 -129 9 -52 31 -76 70 -76 36 0 118
38 124 57 6 20 -26 27 -43 9 -23 -23 -86 -38 -102 -24 -22 18 -15 36 16 43 34
7 101 76 101 103 0 47 -47 54 -103 17z m63 -23 c0 -11 -39 -47 -67 -61 -34
-18 -29 5 9 40 31 28 58 38 58 21z"/>
<path d="M10656 8029 c-34 -27 -62 -82 -70 -141 -6 -43 -4 -50 19 -74 21 -21
31 -24 58 -19 43 9 112 50 131 77 28 39 0 41 -49 4 -75 -57 -125 -61 -125 -9
0 36 9 49 40 58 33 10 80 54 80 75 0 18 -30 50 -47 50 -6 0 -22 -9 -37 -21z
m44 -28 c0 -12 -42 -42 -49 -36 -5 6 29 45 41 45 4 0 8 -4 8 -9z"/>
<path d="M11158 8039 c-40 -15 -88 -93 -82 -133 11 -66 15 -76 34 -86 36 -19
116 -15 149 9 53 38 34 64 -23 30 -50 -29 -112 -20 -119 19 -6 33 1 52 18 46
19 -8 84 37 91 63 14 53 -12 73 -68 52z m12 -59 c-45 -39 -65 -38 -22 0 18 17
38 30 45 30 6 -1 -4 -14 -23 -30z"/>
<path d="M13024 8005 c-26 -24 -51 -46 -57 -48 -17 -5 -38 -90 -26 -102 8 -7
15 -4 23 8 50 80 75 114 104 135 l33 25 6 -22 c3 -13 12 -21 22 -19 22 4 25
32 6 52 -28 28 -61 19 -111 -29z"/>
<path d="M8710 8014 c-35 -30 -60 -73 -60 -104 0 -11 12 -33 26 -47 24 -24 30
-25 96 -21 70 5 101 19 83 37 -6 6 -33 7 -66 2 -105 -14 -133 20 -48 58 56 26
80 60 59 86 -19 23 -55 18 -90 -11z m44 -29 c-10 -8 -23 -14 -29 -14 -5 0 -1
6 9 14 11 8 24 15 30 15 5 0 1 -7 -10 -15z"/>
<path d="M12085 8009 c-19 -17 -40 -48 -46 -69 -10 -32 -9 -44 7 -76 11 -22
29 -44 42 -50 44 -21 157 14 138 44 -4 6 -20 5 -43 -4 -55 -19 -80 -17 -97 8
-20 29 -20 48 -1 48 9 0 34 9 55 20 48 24 61 61 35 90 -25 28 -49 25 -90 -11z
m65 -22 c0 -14 -40 -37 -62 -37 -6 0 -1 11 12 25 26 27 50 33 50 12z"/>
<path d="M9149 7996 c-20 -13 -43 -24 -53 -23 -12 1 -22 -10 -31 -36 -7 -22
-23 -49 -34 -61 -21 -22 -29 -66 -12 -66 5 0 20 14 33 32 44 60 128 138 148
138 29 0 26 -48 -6 -110 -24 -47 -27 -89 -4 -75 19 11 70 130 70 162 0 63 -50
81 -111 39z"/>
<path d="M9385 7994 c-41 -21 -65 -53 -65 -89 0 -54 41 -71 100 -40 28 14 30
14 30 -3 0 -23 -36 -187 -44 -200 -3 -5 -29 -12 -58 -14 -70 -7 -88 -30 -88
-113 0 -68 14 -91 49 -80 34 11 95 79 112 125 16 45 16 45 65 45 37 0 49 4 52
16 3 18 -46 33 -73 23 -19 -8 -20 -13 15 161 16 83 30 153 30 158 0 13 -31 7
-36 -8 -5 -12 -10 -10 -26 10 -23 29 -24 30 -63 9z m39 -40 c4 -10 12 -14 23
-9 13 4 11 -1 -6 -19 -24 -26 -75 -49 -85 -39 -13 13 -5 35 20 58 31 29 40 31
48 9z m-34 -345 c0 -25 -34 -81 -61 -100 -26 -18 -30 -19 -35 -4 -4 9 -3 35 2
58 8 35 14 43 39 48 47 10 55 10 55 -2z"/>
<path d="M12367 7975 c-37 -26 -54 -62 -43 -90 6 -17 33 -19 69 -6 l25 10 -19
-62 c-47 -150 -99 -331 -99 -344 0 -24 18 -14 78 46 41 42 71 63 100 71 38 10
52 27 36 42 -10 11 -68 -11 -111 -43 -24 -16 -43 -26 -43 -22 0 9 59 201 99
322 20 60 20 66 4 83 -22 25 -52 23 -96 -7z m61 -27 c-6 -18 -55 -44 -65 -35
-9 9 35 46 55 47 8 0 12 -6 10 -12z"/>
<path d="M12574 7973 c-22 -35 -31 -118 -14 -138 25 -30 102 -12 143 33 24 26
35 92 16 92 -8 0 -21 -18 -31 -40 -20 -48 -82 -85 -99 -60 -11 18 -2 66 18 97
14 21 11 43 -6 43 -5 0 -17 -12 -27 -27z"/>
<path d="M8953 7973 c-3 -10 -12 -33 -19 -52 -18 -43 -18 -71 0 -71 15 0 60
116 50 131 -9 15 -24 10 -31 -8z"/>
<path d="M12815 7968 c-36 -106 -37 -118 -11 -118 14 0 49 107 40 121 -8 13
-24 11 -29 -3z"/>
<path d="M9855 7890 c-4 -6 -2 -17 5 -25 9 -10 2 -25 -32 -69 -24 -31 -44 -51
-46 -46 -5 15 -32 12 -38 -5 -4 -8 -1 -21 5 -29 20 -24 59 -6 98 46 64 86 69
96 57 115 -13 22 -40 28 -49 13z"/>
<path d="M11410 7768 c-12 -13 -19 -31 -16 -42 3 -10 -9 -56 -27 -103 l-32
-84 -45 3 c-55 4 -65 -22 -12 -33 18 -4 35 -9 37 -11 5 -5 -41 -155 -57 -186
-8 -15 -8 -26 -1 -33 19 -19 39 15 69 117 20 68 34 98 46 102 10 2 15 9 11 16
-4 6 1 5 10 -2 19 -16 80 -7 74 11 -4 12 -13 14 -69 16 l-27 1 35 87 c39 102
50 148 35 157 -5 4 -19 -4 -31 -16z"/>
<path d="M8526 7748 c-2 -7 -19 -59 -37 -115 -33 -99 -35 -103 -64 -104 -16
-1 -38 -2 -47 -3 -10 -1 -18 -4 -18 -8 0 -5 0 -12 0 -17 0 -6 18 -11 39 -13
l39 -3 -24 -75 c-26 -83 -31 -130 -11 -130 7 0 22 37 36 88 35 126 36 129 86
135 23 4 58 4 79 0 40 -6 46 5 18 30 -14 13 -28 14 -74 8 l-56 -7 29 85 c16
47 33 93 38 101 10 20 3 40 -15 40 -8 0 -16 -6 -18 -12z"/>
<path d="M6505 7720 c-4 -7 -3 -16 3 -22 13 -13 -10 -92 -48 -168 -35 -70 -71
-185 -64 -205 10 -24 34 -18 34 8 0 30 29 113 69 197 41 88 58 156 45 177 -14
22 -30 27 -39 13z"/>
<path d="M6067 7703 c-4 -3 -7 -34 -7 -68 0 -34 -7 -85 -16 -114 -13 -44 -19
-52 -35 -48 -30 8 -89 -12 -115 -38 -16 -16 -24 -36 -24 -59 0 -49 8 -65 42
-82 26 -14 32 -14 52 0 25 16 98 156 115 221 6 22 11 64 12 93 1 29 6 55 11
58 9 6 -8 44 -21 44 -4 0 -11 -3 -14 -7z m-67 -280 c0 -20 -48 -103 -60 -103
-13 0 -40 30 -39 43 1 26 16 50 40 63 33 18 59 17 59 -3z"/>
<path d="M10944 7599 c-10 -17 13 -36 27 -22 12 12 4 33 -11 33 -5 0 -12 -5
-16 -11z"/>
<path d="M10464 7538 c-26 -24 -53 -56 -61 -73 -7 -16 -22 -43 -32 -60 -21
-35 -54 -162 -46 -176 4 -5 2 -9 -3 -9 -9 0 -42 -102 -42 -128 0 -7 6 -12 14
-12 11 0 53 90 80 173 3 9 15 17 28 17 76 1 182 154 176 255 -3 48 -4 50 -35
53 -26 3 -41 -5 -79 -40z m81 -35 c-16 -87 -92 -193 -138 -193 -11 0 -4 41 14
85 7 17 13 38 14 48 1 9 10 26 19 36 9 9 14 21 11 24 -3 4 -2 5 1 2 4 -2 20 7
36 20 37 31 52 24 43 -22z"/>
<path d="M9750 7521 c-26 -4 -35 -11 -35 -26 0 -22 2 -22 80 -5 28 6 78 8 113
4 59 -6 64 -5 60 12 -3 17 -14 19 -93 20 -50 1 -106 -1 -125 -5z"/>
<path d="M10725 7514 c-16 -9 -39 -17 -50 -18 -20 -1 -28 -19 -61 -134 -14
-50 -15 -65 -5 -75 10 -9 15 -8 27 7 8 11 14 29 14 41 0 41 53 128 89 147 33
16 36 17 54 1 16 -15 20 -15 27 -3 12 19 -16 50 -44 50 -12 0 -34 -7 -51 -16z"/>
<path d="M6634 7508 c-32 -8 -75 -55 -88 -95 -4 -12 -2 -40 4 -63 20 -74 116
-101 180 -50 23 19 24 21 8 34 -10 7 -18 19 -18 25 0 15 -21 10 -22 -4 -1 -48
-55 -59 -93 -20 -33 32 -31 45 6 45 17 0 39 5 50 10 22 12 49 60 49 88 0 26
-38 41 -76 30z m36 -43 c0 -22 -37 -55 -60 -55 -26 0 -25 11 5 44 26 29 55 35
55 11z"/>
<path d="M11660 7505 c-10 -12 -10 -19 -2 -27 15 -15 48 14 38 31 -10 15 -21
14 -36 -4z"/>
<path d="M5380 7493 c-14 -10 -32 -16 -42 -15 -12 2 -28 -21 -57 -83 -23 -47
-39 -90 -36 -95 13 -22 33 -7 55 39 12 27 43 69 67 93 l45 43 -8 -35 c-20 -92
-1 -101 58 -25 l43 56 3 -66 c2 -50 7 -67 21 -75 13 -6 24 -5 36 4 20 15 12
38 -10 29 -13 -4 -15 7 -13 68 3 70 2 74 -19 77 -15 2 -32 -6 -48 -24 -23 -25
-25 -25 -25 -7 0 18 -17 33 -39 33 -3 0 -18 -8 -31 -17z"/>
<path d="M5745 7491 c-3 -5 -18 -12 -34 -16 -61 -13 -95 -88 -67 -144 41 -79
137 -66 171 24 17 42 16 59 -7 118 -10 27 -50 38 -63 18z m45 -84 c0 -39 -25
-83 -52 -90 -36 -10 -68 18 -68 57 0 39 21 61 70 73 40 11 50 3 50 -40z"/>
<path d="M7136 7479 c-96 -75 -77 -229 28 -229 36 0 157 57 164 78 6 19 -24
14 -78 -13 -53 -27 -109 -32 -128 -13 -7 7 -12 27 -12 45 0 32 1 33 40 33 67
0 113 65 74 104 -21 22 -56 20 -88 -5z m58 -42 c-4 -11 -17 -17 -38 -17 l-31
1 29 25 c30 26 52 21 40 -9z"/>
<path d="M6147 7462 c-23 -26 -36 -65 -30 -95 6 -32 56 -77 85 -77 30 0 110
86 106 113 -5 32 -27 32 -39 0 -14 -37 -48 -73 -69 -73 -9 0 -25 9 -35 20 -20
22 -14 63 12 92 14 16 11 38 -6 38 -4 0 -15 -8 -24 -18z"/>
<path d="M7385 7470 c-3 -5 10 -34 29 -64 l35 -55 -34 -25 c-18 -14 -40 -26
-47 -26 -25 0 -54 -27 -42 -40 12 -12 70 9 117 42 l28 20 44 -41 c46 -43 59
-48 70 -31 4 6 -14 29 -40 52 -44 39 -45 41 -29 59 9 11 23 19 30 19 17 0 37
37 24 45 -5 3 -28 -7 -51 -22 -41 -27 -42 -27 -56 -8 -8 11 -21 35 -29 53 -14
31 -37 42 -49 22z"/>
<path d="M7711 7456 c-12 -13 -30 -23 -39 -22 -11 1 -18 -8 -20 -24 -2 -14
-12 -51 -23 -83 -11 -32 -17 -62 -14 -67 3 -5 2 -11 -3 -14 -5 -3 -17 -39 -27
-80 -15 -62 -16 -77 -6 -90 8 -9 19 -16 27 -16 14 0 48 97 59 173 7 44 8 45
32 36 64 -24 143 53 143 141 0 65 -83 95 -129 46z m83 -22 c19 -18 19 -24 5
-61 -14 -37 -48 -73 -70 -73 -23 0 -49 27 -49 51 0 22 67 99 86 99 7 0 20 -7
28 -16z"/>
<path d="M8713 7470 c-74 -17 -82 -57 -23 -111 34 -32 39 -40 31 -60 -12 -33
-71 -31 -107 2 -18 17 -27 20 -36 11 -17 -17 26 -60 73 -72 97 -26 148 66 74
136 -19 18 -35 37 -35 43 0 17 68 25 86 11 12 -10 17 -11 27 -1 9 10 7 17 -12
32 -25 20 -29 21 -78 9z"/>
<path d="M8215 7461 c-33 -14 -56 -46 -81 -115 -19 -54 -21 -66 -9 -76 16 -13
20 -9 46 67 30 87 61 114 87 73 13 -22 32 -19 32 6 0 15 -35 54 -47 53 -5 0
-17 -4 -28 -8z"/>
<path d="M11067 7450 c-16 -13 -28 -16 -32 -10 -14 23 -32 5 -64 -66 -45 -97
-31 -117 27 -42 22 30 55 64 72 76 l31 23 -16 -37 c-8 -20 -15 -52 -15 -71 0
-28 3 -34 18 -31 9 2 16 10 14 17 -1 7 7 42 18 78 11 36 17 69 14 74 -9 15
-40 10 -67 -11z"/>
<path d="M9890 7438 c-25 -5 -79 -11 -120 -12 -54 -3 -75 -7 -75 -17 0 -7 14
-17 30 -22 40 -11 230 24 230 43 0 18 -11 19 -65 8z"/>
<path d="M7938 7413 c-72 -76 -48 -143 50 -143 45 0 76 28 85 75 7 38 -5 60
-44 79 -45 22 -61 20 -91 -11z m102 -55 c0 -48 -55 -74 -95 -44 -17 12 -18 18
-7 40 10 22 18 26 57 26 40 0 45 -3 45 -22z"/>
<path d="M10873 7428 c-6 -7 -13 -25 -17 -40 -3 -15 -13 -34 -22 -42 -17 -18
-16 -47 4 -54 12 -4 56 82 64 123 4 22 -15 30 -29 13z"/>
<path d="M11606 7361 c-4 -6 -2 -18 5 -29 9 -15 5 -28 -22 -72 -18 -30 -39
-63 -47 -72 -15 -18 -9 -38 11 -38 7 0 34 37 61 82 46 76 49 83 35 106 -16 29
-34 38 -43 23z"/>
<path d="M6828 7308 c-8 -21 2 -38 22 -38 25 0 35 17 20 35 -15 18 -36 19 -42
3z"/>
<path d="M5031 6748 c-24 -9 -27 -21 -7 -37 10 -8 16 -9 21 -1 10 16 57 12 71
-7 20 -27 17 -52 -13 -109 -29 -55 -29 -50 5 -116 2 -3 -6 -9 -17 -13 -35 -11
-43 -39 -21 -68 24 -30 19 -72 -17 -134 -23 -39 -25 -41 -56 -32 -18 5 -40 18
-49 30 -20 24 -51 19 -46 -8 4 -24 76 -63 115 -63 26 0 37 7 61 44 40 58 56
133 36 163 -19 31 -19 32 21 49 36 15 46 38 20 48 -8 3 -20 17 -26 30 -10 21
-7 32 15 71 23 38 26 53 21 86 -11 65 -66 93 -134 67z"/>
<path d="M12923 6430 c-50 -30 -97 -108 -168 -277 l-69 -163 -36 0 c-40 0 -77
-21 -67 -38 4 -6 24 -8 47 -5 l40 6 -14 -39 c-8 -22 -26 -65 -41 -96 -14 -32
-24 -62 -20 -68 16 -25 33 -2 70 95 37 97 42 105 67 105 34 0 47 19 18 27 -28
7 -26 13 51 197 47 110 72 158 104 192 39 41 45 44 63 33 25 -16 36 -8 28 19
-9 28 -39 33 -73 12z"/>
<path d="M14455 6350 c-3 -5 -4 -14 -1 -19 4 -5 3 -11 -2 -13 -4 -1 -22 -42
-40 -90 -49 -131 -110 -258 -124 -259 -140 -8 -151 -11 -142 -33 4 -10 21 -12
70 -8 l65 5 -14 -34 c-8 -19 -27 -60 -41 -92 -34 -75 -44 -137 -23 -137 9 0
19 17 26 45 6 25 29 84 50 130 43 93 58 103 132 91 48 -8 65 0 48 20 -7 9 -31
14 -65 14 -30 0 -54 2 -54 4 0 2 20 46 44 97 53 112 108 267 100 280 -7 12
-21 11 -29 -1z"/>
<path d="M17344 6323 c-3 -16 -14 -53 -25 -83 -10 -30 -21 -71 -23 -90 -14
-122 -16 -127 -48 -128 -44 -1 -77 -28 -100 -79 -32 -73 -35 -116 -8 -143 48
-48 141 15 155 105 3 25 10 47 15 50 5 3 7 18 4 33 -5 29 4 81 34 182 11 36
22 91 26 123 6 48 5 57 -8 57 -9 0 -18 -12 -22 -27z m-79 -385 c-9 -65 -45
-118 -81 -118 -21 0 -24 5 -24 33 0 40 32 112 57 126 10 6 26 11 36 11 17 0
18 -6 12 -52z"/>
<path d="M14626 6315 c-9 -9 -16 -27 -16 -39 0 -38 -80 -267 -123 -351 -68
-135 -77 -154 -77 -165 0 -26 32 -1 77 59 50 67 98 110 109 98 11 -10 -18 -88
-39 -108 -26 -24 -16 -52 14 -41 37 14 78 146 55 178 -13 17 -16 17 -54 2
l-40 -16 29 70 c45 110 102 309 91 320 -6 6 -15 3 -26 -7z"/>
<path d="M11920 6284 c0 -14 -13 -65 -30 -112 -43 -129 -110 -358 -110 -380 0
-10 3 -22 7 -25 10 -11 33 14 33 36 0 24 57 221 107 369 36 105 38 138 8 138
-9 0 -15 -9 -15 -26z"/>
<path d="M11726 6268 c-40 -139 -58 -203 -59 -220 -2 -25 -32 -37 -112 -46
-44 -5 -60 -11 -60 -22 0 -19 51 -25 101 -11 21 6 39 9 41 8 1 -2 -11 -36 -28
-77 -23 -57 -27 -75 -17 -82 10 -6 9 -8 -3 -8 -9 0 -19 -10 -23 -22 -9 -37 -7
-50 10 -46 9 2 28 40 48 98 50 142 55 150 88 150 18 0 28 5 28 15 0 8 -6 15
-14 15 -27 0 -27 20 -1 123 15 56 28 108 28 116 2 18 -22 27 -27 9z"/>
<path d="M6005 6238 c-2 -7 -6 -35 -10 -61 -11 -81 -34 -157 -76 -251 -43 -94
-56 -171 -30 -171 9 0 18 19 26 55 6 30 23 78 37 105 43 85 97 288 84 321 -7
17 -25 18 -31 2z"/>
<path d="M6286 6238 c-2 -7 -9 -60 -15 -118 -6 -58 -18 -131 -27 -162 -14 -49
-20 -57 -38 -56 -28 3 -89 -35 -110 -67 -30 -46 -16 -96 32 -110 18 -5 31 1
61 32 49 50 107 218 117 343 5 60 12 89 23 97 13 9 14 16 5 30 -14 22 -43 29
-48 11z m-92 -363 c12 -12 13 -22 5 -43 -12 -33 -48 -72 -65 -72 -36 0 -15 68
28 91 11 6 17 17 14 25 -7 18 -1 18 18 -1z"/>
<path d="M3410 6209 c-55 -14 -367 -22 -450 -11 -77 10 -105 3 -82 -20 13 -13
184 -29 176 -16 -2 4 0 9 5 12 5 3 11 -1 15 -9 3 -9 19 -15 41 -15 30 0 35 -3
35 -22 0 -21 -51 -194 -96 -324 -18 -54 -13 -97 8 -76 7 7 18 31 24 55 7 23
33 109 58 190 25 82 46 157 46 166 0 15 10 18 62 20 64 2 189 17 220 27 21 6
12 34 -11 33 -9 -1 -32 -5 -51 -10z"/>
<path d="M3587 6203 c-4 -3 -7 -17 -7 -30 0 -14 -34 -109 -75 -212 -41 -104
-75 -193 -75 -200 0 -22 20 -10 74 47 51 53 116 102 116 87 0 -4 -7 -34 -15
-66 -16 -62 -13 -88 9 -70 20 17 52 159 39 172 -16 16 -64 -2 -113 -41 l-39
-31 30 73 c64 154 89 229 83 254 -6 24 -15 30 -27 17z"/>
<path d="M9310 6168 c-23 -96 -70 -229 -109 -308 -23 -47 -41 -93 -41 -102 0
-38 27 -15 53 45 31 72 56 87 144 87 85 0 127 -56 92 -122 -15 -28 3 -45 25
-23 11 11 16 34 16 69 0 59 -22 91 -68 102 -88 20 -92 11 59 113 76 51 139
100 139 107 0 8 -3 14 -7 14 -19 0 -272 -168 -322 -213 -15 -14 -22 -16 -18
-7 24 64 68 206 73 240 5 33 4 40 -9 40 -11 0 -20 -15 -27 -42z"/>
<path d="M10470 6177 c0 -58 -38 -189 -80 -273 -40 -82 -122 -174 -155 -174
-20 0 -20 36 1 97 23 69 40 84 88 81 54 -4 57 23 4 36 -29 7 -42 6 -62 -8 -60
-39 -102 -194 -64 -233 24 -24 68 -4 129 57 85 84 155 244 174 398 6 48 5 52
-14 52 -17 0 -21 -6 -21 -33z"/>
<path d="M5177 6154 c-4 -4 -7 -17 -7 -29 0 -38 -40 -147 -91 -248 -71 -142
-63 -178 21 -92 50 51 118 101 126 93 2 -3 -4 -29 -16 -57 -11 -28 -20 -61
-20 -71 0 -32 28 -23 39 13 5 17 17 53 27 79 20 52 10 78 -29 78 -21 0 -72
-35 -107 -73 -23 -23 -27 -12 -7 18 34 52 100 236 95 267 -3 22 -19 33 -31 22z"/>
<path d="M3810 6031 c0 -27 13 -33 35 -17 21 15 12 36 -16 36 -12 0 -19 -7
-19 -19z"/>
<path d="M10630 6030 c0 -24 26 -38 42 -22 8 8 8 15 -2 27 -18 21 -40 19 -40
-5z"/>
<path d="M10812 6006 c-43 -23 -122 -157 -122 -206 0 -40 28 -19 51 38 27 68
65 128 85 136 8 3 26 -1 39 -10 29 -19 44 -1 20 26 -22 24 -47 30 -73 16z"/>
<path d="M4912 6003 c-35 -7 -37 -28 -12 -106 21 -63 22 -73 9 -96 -20 -36
-56 -40 -69 -7 -9 25 -56 63 -66 54 -9 -10 38 -89 63 -105 31 -20 68 -9 96 29
25 34 24 79 -3 147 l-20 51 23 0 c12 0 37 -9 56 -21 33 -20 61 -14 46 10 -7
13 -80 52 -92 50 -4 -1 -18 -4 -31 -6z"/>
<path d="M8323 5971 c-67 -43 -80 -58 -65 -73 7 -7 21 -2 44 15 45 33 88 60
88 55 0 -3 -25 -38 -55 -78 -56 -75 -70 -122 -40 -134 18 -6 55 13 55 29 0 5
11 15 25 22 24 11 25 10 25 -27 0 -48 19 -64 66 -57 81 13 134 85 118 159 -11
48 -49 82 -60 53 -5 -11 -1 -21 9 -27 22 -12 22 -76 1 -107 -25 -34 -78 -55
-104 -39 -11 7 -20 19 -20 26 0 7 5 10 10 7 6 -4 10 8 10 29 0 46 -21 48 -73
5 -20 -17 -37 -28 -37 -24 0 4 20 33 45 65 59 77 72 105 55 125 -18 22 -30 19
-97 -24z"/>
<path d="M12090 5995 c-6 -8 -9 -19 -5 -25 3 -5 0 -10 -7 -10 -7 0 -33 -31
-58 -70 -50 -77 -57 -75 -61 19 -3 57 -11 75 -30 69 -18 -6 -13 -144 5 -173
12 -18 5 -32 -62 -130 -41 -60 -84 -129 -94 -152 -10 -23 -24 -43 -31 -46 -9
-3 -9 -8 2 -20 22 -27 37 -20 50 23 6 22 50 97 98 167 47 71 119 177 159 237
67 98 79 126 55 126 -5 0 -14 -7 -21 -15z"/>
<path d="M12879 5973 c-18 -21 -39 -38 -47 -38 -9 0 -24 -24 -38 -60 -48 -125
-17 -144 46 -29 23 41 53 87 66 102 22 26 23 26 24 6 0 -13 8 -24 21 -27 19
-5 21 -3 15 25 -13 67 -40 74 -87 21z"/>
<path d="M15845 5998 c-2 -7 -9 -31 -15 -53 -7 -22 -25 -64 -42 -94 -29 -53
-32 -90 -5 -74 8 4 44 43 81 86 56 64 106 109 106 94 0 -2 -11 -18 -25 -37
-55 -74 -10 -96 71 -34 l47 36 -7 -27 c-17 -67 -17 -81 -3 -93 8 -7 22 -10 31
-6 18 7 22 30 5 36 -8 3 -5 27 10 78 12 45 17 78 12 83 -6 6 -32 -9 -67 -39
-49 -43 -56 -46 -49 -24 4 14 7 27 7 30 1 44 -49 41 -101 -6 l-40 -35 10 36
c10 36 6 55 -12 55 -5 0 -11 -6 -14 -12z"/>
<path d="M11000 5974 c-97 -82 -71 -216 40 -205 29 3 100 33 100 42 0 12 -42
11 -76 -2 -38 -14 -72 -4 -86 26 -14 31 -11 34 41 39 66 6 100 50 81 101 -13
34 -58 34 -100 -1z m70 -27 c0 -22 -22 -37 -54 -37 l-29 0 23 25 c25 27 60 34
60 12z"/>
<path d="M15429 5972 c-72 -46 -101 -133 -61 -182 23 -28 96 -36 130 -14 34
23 18 33 -43 27 -52 -6 -55 -5 -65 22 -20 53 48 136 113 139 31 1 28 30 -3 34
-15 2 -44 -9 -71 -26z"/>
<path d="M16194 5989 c-4 -7 0 -17 8 -23 14 -10 12 -20 -18 -81 -31 -65 -36
-95 -17 -95 5 0 28 27 52 59 23 33 52 68 63 78 21 18 21 18 15 -17 -3 -19 -8
-43 -12 -52 -5 -12 -2 -20 9 -24 11 -4 37 10 76 40 33 26 60 45 60 43 0 -3 -7
-23 -15 -47 -17 -48 -7 -80 25 -80 21 0 29 35 11 42 -6 2 -2 27 8 58 18 53 14
90 -9 90 -5 0 -32 -20 -60 -45 -28 -25 -52 -45 -53 -45 -1 0 0 22 1 50 5 63
-16 76 -56 37 l-26 -26 -11 22 c-12 25 -40 34 -51 16z"/>
<path d="M16643 5990 c-38 -16 -56 -55 -51 -112 8 -75 48 -96 100 -51 14 13
17 12 23 -7 10 -32 29 -19 37 26 4 21 10 54 14 72 8 41 -15 44 -38 5 -23 -40
-75 -86 -86 -79 -20 12 -24 66 -8 91 16 24 55 37 40 14 -7 -12 15 -31 28 -23
12 8 10 48 -4 62 -14 14 -24 14 -55 2z"/>
<path d="M16920 5983 c-14 -10 -31 -18 -39 -18 -8 0 -27 -23 -42 -52 -23 -42
-25 -54 -15 -62 11 -9 25 2 66 49 28 33 56 57 61 54 5 -3 9 -23 9 -44 0 -44 8
-70 21 -70 5 0 9 31 9 68 0 90 -19 110 -70 75z"/>
<path d="M6888 5956 c-13 -26 -14 -36 -5 -45 9 -9 8 -11 -4 -6 -13 5 -22 -8
-42 -57 -13 -34 -22 -68 -20 -75 8 -20 31 -15 38 7 3 10 26 46 50 79 24 32 42
61 40 63 -2 2 9 9 26 15 24 9 30 9 26 0 -29 -78 -48 -149 -43 -162 8 -22 42
-14 38 9 -2 10 8 51 22 92 33 95 33 114 2 114 -14 0 -28 -5 -31 -10 -3 -6 -21
-18 -38 -27 -29 -15 -31 -15 -19 0 8 9 11 21 7 27 -12 19 -31 10 -47 -24z"/>
<path d="M15666 5975 c-59 -21 -90 -57 -89 -101 1 -50 31 -78 79 -76 49 2 71
24 85 86 22 98 4 120 -75 91z m44 -54 c0 -68 -47 -112 -85 -81 -33 28 -11 76
45 99 37 15 40 13 40 -18z"/>
<path d="M7418 5967 c-27 -6 -48 -16 -48 -23 0 -20 12 -23 58 -14 23 4 42 6
42 4 0 -3 -21 -36 -46 -74 -69 -103 -46 -128 53 -58 40 29 63 31 63 4 0 -26
45 -56 78 -52 59 6 89 52 94 137 2 43 0 54 -12 54 -11 0 -17 -15 -21 -53 -9
-70 -32 -104 -67 -100 -18 2 -31 12 -41 33 -24 51 -46 53 -105 12 l-30 -21 32
45 c42 63 49 94 24 108 -12 6 -22 10 -24 10 -2 -1 -24 -6 -50 -12z"/>
<path d="M11303 5969 c-99 -29 -98 -180 1 -208 60 -16 156 13 130 39 -7 7 -21
7 -42 -1 -37 -13 -95 -5 -111 15 -6 7 -14 27 -17 44 -5 25 -1 36 20 57 22 22
32 25 61 19 38 -7 45 4 19 30 -17 18 -17 18 -61 5z"/>
<path d="M13316 5950 c-27 -24 -34 -27 -32 -13 0 10 -6 18 -14 18 -18 0 -103
-172 -95 -194 7 -17 11 -13 118 109 l47 55 -20 -54 c-16 -40 -18 -57 -9 -67
15 -18 33 -8 108 62 l60 55 -6 -50 c-7 -65 14 -104 55 -99 15 2 27 9 28 18 0
8 4 23 9 33 11 25 -1 32 -30 19 l-25 -12 0 65 c0 59 -2 65 -21 65 -11 0 -45
-24 -76 -52 -33 -31 -53 -45 -49 -33 4 10 10 38 13 62 7 53 -10 57 -61 13z"/>
<path d="M13058 5953 c-23 -26 -68 -115 -68 -134 0 -42 79 -66 128 -40 32 17
62 70 62 109 0 63 -84 108 -122 65z m80 -71 c4 -42 -36 -85 -76 -80 -36 4 -39
28 -7 82 23 40 28 43 53 37 21 -6 28 -14 30 -39z"/>
<path d="M7164 5943 c-44 -45 -58 -137 -24 -168 17 -15 24 -16 50 -5 38 16 90
74 90 101 0 11 -7 35 -14 54 -13 30 -20 35 -50 35 -19 0 -42 -8 -52 -17z m76
-61 c0 -27 -44 -82 -66 -82 -35 0 -21 81 19 112 27 20 47 7 47 -30z"/>
<path d="M14753 5939 c-42 -27 -74 -83 -76 -133 -2 -34 2 -42 23 -52 48 -23
222 15 228 50 3 16 0 18 -19 12 -52 -16 -145 -35 -171 -36 -21 0 -28 5 -28 20
0 13 7 20 20 20 31 0 74 25 104 60 30 37 31 43 10 64 -21 22 -53 20 -91 -5z
m39 -49 c-38 -35 -69 -41 -52 -10 13 24 38 39 65 39 17 0 15 -4 -13 -29z"/>
<path d="M3930 5943 c-51 -19 -63 -63 -30 -106 11 -14 20 -28 20 -31 0 -10
-29 -7 -50 7 -17 10 -22 9 -30 -3 -22 -35 50 -61 99 -35 39 19 39 29 1 72 -35
39 -29 59 18 65 16 2 27 9 27 18 0 16 -30 23 -55 13z"/>
<path d="M8989 5927 c-14 -12 -32 -21 -41 -19 -19 4 -27 -17 -32 -84 -2 -27
-5 -55 -7 -63 -2 -8 3 -16 12 -18 11 -3 19 9 28 39 15 48 47 107 71 125 9 7
28 10 48 7 24 -5 32 -3 32 9 0 34 -77 37 -111 4z"/>
<path d="M8748 5924 c-30 -16 -88 -99 -88 -126 0 -29 37 -60 63 -53 88 26 139
85 118 137 -5 15 -23 34 -38 42 -24 12 -32 12 -55 0z m57 -45 c13 -20 -6 -60
-38 -79 -64 -40 -87 -16 -44 47 27 39 68 56 82 32z"/>
<path d="M5721 5902 c-6 -11 -8 -22 -5 -25 9 -9 -34 -74 -59 -92 -30 -21 -44
-19 -62 9 -15 22 -15 27 0 56 15 30 13 50 -5 50 -15 0 -40 -56 -40 -87 1 -32
15 -55 48 -72 50 -27 148 61 154 138 3 38 -15 52 -31 23z"/>
<path d="M5392 5895 c-49 -36 -68 -117 -34 -148 46 -42 129 5 138 78 4 25 1
46 -8 57 -19 26 -68 32 -96 13z m71 -44 c13 -13 -10 -59 -39 -77 -25 -17 -27
-17 -40 1 -25 34 12 100 50 89 12 -3 25 -10 29 -13z"/>
<path d="M10549 5863 c-43 -110 -46 -126 -23 -121 17 3 68 124 58 139 -10 17
-24 9 -35 -18z"/>
<path d="M3737 5818 c-16 -51 -15 -68 4 -68 11 0 32 46 43 93 5 22 3 27 -12
27 -13 0 -23 -14 -35 -52z"/>
<path d="M2783 5725 c-66 -80 -163 -296 -163 -364 0 -22 -10 -38 -41 -65 -23
-19 -47 -32 -54 -30 -8 3 -18 -4 -24 -15 -30 -55 7 -60 66 -10 l47 41 11 -46
c7 -26 21 -53 31 -61 33 -25 94 -17 94 12 0 12 -7 14 -28 10 -37 -7 -50 2 -62
44 -17 58 -11 72 65 158 90 101 115 158 118 275 2 96 -13 109 -60 51z m24 -84
c-6 -76 -43 -152 -102 -216 l-46 -50 6 35 c11 53 52 148 98 223 23 37 43 67
46 67 2 0 1 -27 -2 -59z"/>
<path d="M5266 5668 c-3 -13 -15 -70 -26 -128 -12 -58 -29 -121 -37 -140 -12
-30 -16 -33 -24 -17 -23 40 -101 6 -130 -56 -23 -51 -24 -100 -3 -121 14 -14
19 -14 52 -1 20 9 48 24 62 34 30 22 82 146 105 251 8 41 21 93 28 115 11 37
12 46 8 75 -2 20 -31 10 -35 -12z m-101 -368 c-8 -16 -33 -39 -55 -50 l-40
-20 0 32 c1 41 20 77 50 93 19 10 26 9 42 -7 17 -17 17 -21 3 -48z"/>
<path d="M15071 5646 c-6 -8 -33 -61 -59 -118 -26 -56 -64 -131 -85 -166 -65
-111 -44 -124 47 -27 34 36 69 65 79 65 16 0 17 -6 11 -60 -4 -41 -3 -60 4
-60 16 0 30 30 32 70 3 61 1 70 -25 82 -19 9 -29 8 -50 -6 -14 -9 -25 -14 -25
-11 0 2 18 44 40 91 44 96 45 98 28 88 -7 -4 -8 -3 -4 4 4 7 14 12 22 12 8 0
14 7 14 15 0 8 0 18 1 22 1 14 -18 14 -30 -1z"/>
<path d="M6443 5643 c-7 -3 -13 -10 -13 -17 0 -7 -34 -95 -75 -197 -41 -101
-75 -190 -75 -196 0 -21 29 -14 41 10 25 49 120 129 135 114 3 -2 -7 -26 -21
-52 -14 -28 -25 -64 -25 -86 0 -58 31 -48 35 10 1 15 16 53 34 85 24 45 28 62
20 72 -16 20 -40 17 -92 -11 l-46 -24 19 47 c10 26 35 85 54 132 20 47 36 90
36 97 0 15 -11 22 -27 16z"/>
<path d="M11737 5618 c-11 -8 -22 -43 -31 -93 -18 -101 -40 -161 -57 -157 -34
8 -82 -11 -118 -49 l-38 -40 -7 39 c-7 44 -40 92 -63 92 -26 0 -79 -46 -107
-94 -28 -48 -34 -94 -14 -114 30 -30 139 -2 173 44 8 11 11 7 12 -17 5 -68 52
-78 111 -25 64 58 119 178 142 309 6 34 18 72 25 83 21 32 3 45 -28 22z m-291
-284 c8 -19 12 -44 9 -55 -11 -33 -97 -66 -125 -49 -13 8 -12 16 9 55 23 44
63 85 83 85 5 0 16 -16 24 -36z m194 -18 c0 -22 -80 -106 -101 -106 -31 0 -23
43 16 83 36 37 85 51 85 23z"/>
<path d="M14839 5578 c-50 -98 -67 -115 -118 -122 -55 -7 -92 -29 -76 -45 7
-7 25 -6 59 4 45 14 48 13 41 -3 -52 -127 -65 -207 -35 -207 10 0 17 15 21 45
4 25 17 72 30 105 21 53 28 60 54 63 56 5 62 12 28 30 l-31 17 40 67 c36 61
42 88 18 88 -5 0 -19 -19 -31 -42z"/>
<path d="M15580 5605 c7 -9 15 -13 17 -11 7 7 -7 26 -19 26 -6 0 -6 -6 2 -15z"/>
<path d="M13901 5551 c-39 -55 -47 -60 -85 -63 -28 -2 -41 -8 -41 -18 0 -11 9
-14 31 -12 l32 3 -21 -42 c-11 -23 -22 -65 -25 -93 -3 -44 -1 -54 21 -74 35
-33 129 -35 158 -3 21 22 18 41 -5 41 -8 0 -19 -7 -26 -15 -7 -9 -29 -15 -51
-15 -30 0 -42 6 -55 25 -14 22 -14 29 0 77 23 78 37 94 87 96 23 2 49 7 58 12
9 4 20 8 26 8 5 0 11 6 14 13 3 9 -12 11 -58 6 l-61 -5 20 26 c43 56 52 71 45
82 -11 18 -20 11 -64 -49z"/>
<path d="M15538 5565 c-15 -30 -15 -34 -1 -39 18 -7 16 -9 33 23 10 19 9 26
-2 36 -11 11 -16 8 -30 -20z"/>
<path d="M16993 5534 c-8 -21 13 -42 28 -27 13 13 5 43 -11 43 -6 0 -13 -7
-17 -16z"/>
<path d="M13425 5520 c-10 -31 4 -44 26 -24 10 9 19 23 19 31 0 21 -38 15 -45
-7z"/>
<path d="M16057 5493 c-36 -30 -57 -56 -57 -70 0 -12 -4 -23 -9 -25 -13 -4
-71 -106 -71 -123 0 -38 34 -7 83 78 31 50 69 105 86 121 30 29 31 29 45 10
21 -28 39 -7 23 26 -19 38 -40 35 -100 -17z"/>
<path d="M15506 5502 c-4 -12 -23 -24 -51 -32 -52 -14 -74 -35 -57 -52 8 -8
15 -8 24 -1 7 6 22 12 34 15 19 5 18 -1 -17 -86 -26 -64 -34 -93 -25 -98 15
-10 32 15 56 81 11 31 28 72 38 91 17 33 20 35 65 32 36 -2 47 0 47 11 0 17
-21 27 -56 27 -13 0 -23 5 -21 12 4 21 -31 20 -37 0z"/>
<path d="M17165 5457 c-30 -29 -59 -51 -64 -49 -9 3 -71 -110 -71 -130 0 -4 8
-8 18 -8 11 0 34 25 60 64 52 79 117 140 140 131 28 -11 34 -11 39 1 6 16 -25
44 -48 44 -11 0 -44 -24 -74 -53z"/>
<path d="M2972 5473 c-5 -10 -6 -27 -2 -38 6 -18 8 -18 24 7 17 26 15 48 -4
48 -5 0 -13 -8 -18 -17z"/>
<path d="M12749 5480 c-41 -12 -79 -41 -85 -64 -3 -12 2 -38 11 -59 18 -43 11
-63 -31 -96 -34 -27 -54 -27 -54 0 0 23 -18 21 -34 -4 -16 -24 4 -51 40 -55
22 -2 41 8 77 39 51 44 56 62 35 131 -10 34 -9 40 8 53 10 8 33 18 49 23 17 5
30 14 30 22 0 17 -13 20 -46 10z"/>
<path d="M17651 5464 c-88 -44 -98 -89 -34 -156 14 -14 22 -31 18 -37 -11 -19
-103 -61 -118 -55 -23 8 -29 -24 -7 -36 15 -8 31 -5 72 16 29 14 61 33 71 42
26 23 21 60 -13 99 -16 18 -30 40 -30 48 0 18 68 59 99 60 31 0 38 20 13 34
-15 8 -31 5 -71 -15z"/>
<path d="M9019 5451 c-19 -16 -43 -29 -52 -28 -16 2 -34 -38 -83 -185 -11 -31
30 -22 44 10 51 113 109 192 141 192 8 0 25 -12 37 -27 20 -24 23 -26 29 -11
10 24 -31 78 -58 78 -13 0 -38 -13 -58 -29z"/>
<path d="M13150 5433 c-23 -27 -56 -77 -72 -111 -28 -59 -29 -65 -14 -80 20
-20 35 -7 41 37 4 38 43 107 79 140 23 22 26 22 42 7 26 -26 41 -4 20 28 -24
38 -49 32 -96 -21z"/>
<path d="M6904 5462 c-13 -8 -54 -98 -54 -118 0 -8 -4 -14 -10 -14 -5 0 -10
-8 -10 -17 0 -9 -7 -24 -16 -34 -16 -18 -12 -54 5 -47 5 2 32 31 61 66 29 34
60 67 71 72 17 10 17 8 3 -37 -25 -83 -26 -91 -14 -112 14 -27 30 -18 30 17 0
15 9 56 20 91 12 36 18 71 16 78 -6 15 -52 18 -61 3 -3 -5 -15 -15 -26 -20
-19 -11 -19 -10 -4 26 15 37 10 60 -11 46z"/>
<path d="M7953 5457 c-13 -5 -39 -34 -59 -63 -59 -85 -49 -164 21 -164 34 0
88 41 108 83 16 32 17 42 6 74 -7 21 -13 44 -13 52 -1 20 -37 30 -63 18z m29
-54 c42 -38 -5 -133 -66 -133 -21 0 -26 5 -26 27 0 24 54 123 68 123 3 0 14
-7 24 -17z"/>
<path d="M9271 5416 c-23 -31 -39 -61 -36 -66 3 -6 0 -10 -7 -10 -8 0 -29 -16
-48 -34 -18 -19 -42 -36 -54 -38 -12 -2 -21 -10 -21 -18 0 -27 36 -22 76 10
39 31 39 31 39 7 0 -53 39 -60 90 -16 l35 30 6 -32 c9 -40 25 -57 40 -42 8 8
8 17 0 31 -11 21 -1 67 34 146 11 25 13 42 7 48 -15 15 -27 4 -60 -56 -27 -47
-94 -116 -113 -116 -12 0 19 88 48 140 21 37 25 52 16 61 -8 8 -22 -3 -52 -45z"/>
<path d="M10403 5454 c-74 -36 -143 -153 -112 -190 17 -20 62 -17 93 7 25 20
26 20 26 1 0 -20 29 -52 48 -52 17 0 15 25 -3 40 -18 15 -14 34 21 102 26 51
30 78 13 78 -6 0 -17 7 -25 15 -19 18 -21 18 -61 -1z m37 -53 c0 -32 -62 -104
-98 -113 -45 -12 -15 62 45 111 46 38 53 39 53 2z"/>
<path d="M16236 5450 c-54 -27 -64 -38 -87 -88 -25 -55 -27 -108 -5 -131 30
-29 186 -10 186 23 0 9 -18 9 -75 2 -91 -11 -101 -5 -88 51 8 36 11 38 63 50
62 14 93 42 88 82 -4 33 -31 37 -82 11z m44 -30 c0 -12 -48 -32 -63 -27 -6 2
5 11 24 20 41 20 39 20 39 7z"/>
<path d="M17395 5459 c-39 -11 -111 -72 -130 -110 -22 -42 -19 -86 8 -103 18
-11 34 -12 90 -2 37 6 68 15 67 19 0 4 0 12 0 18 0 11 -48 8 -113 -7 -26 -6
-28 -4 -25 17 2 17 11 25 33 29 46 10 90 36 119 70 30 37 31 43 10 64 -17 18
-17 18 -59 5z m15 -54 c-14 -13 -43 -32 -65 -41 l-40 -16 24 25 c22 25 76 56
96 57 5 0 -2 -11 -15 -25z"/>
<path d="M4675 5453 c-61 -15 -115 -90 -115 -161 0 -64 35 -76 86 -30 21 19
21 19 28 -12 4 -22 11 -31 22 -28 13 2 17 16 18 64 1 42 9 72 24 98 12 20 22
39 22 41 0 5 -57 36 -62 34 -2 -1 -12 -4 -23 -6z m10 -80 c-58 -102 -108 -128
-86 -46 14 51 55 90 99 92 10 1 5 -14 -13 -46z"/>
<path d="M7808 5418 c-22 -23 -54 -62 -70 -86 -16 -24 -32 -41 -35 -39 -2 3
-6 36 -7 74 -3 61 -6 68 -25 71 -24 4 -24 7 -5 -144 5 -39 -1 -50 -71 -155
-42 -62 -75 -119 -73 -127 6 -30 24 -21 48 25 23 43 151 220 240 332 19 24 45
47 58 52 26 10 25 32 -2 37 -11 2 -33 -14 -58 -40z"/>
<path d="M13575 5434 c-22 -14 -55 -40 -73 -57 -18 -18 -40 -32 -50 -32 -11 0
-19 -11 -23 -35 -3 -19 -24 -64 -46 -100 -88 -145 -103 -177 -88 -190 11 -9
22 0 56 46 23 32 57 87 75 123 18 37 33 60 33 54 2 -24 72 -15 113 13 72 50
117 194 63 202 -12 2 -39 -9 -60 -24z m43 -51 c-20 -73 -95 -136 -139 -117
-17 8 -15 13 18 53 35 42 108 101 124 101 4 0 3 -16 -3 -37z"/>
<path d="M16566 5453 c-4 -4 -22 -6 -41 -4 -28 2 -42 -5 -79 -40 -45 -41 -62
-88 -33 -90 25 -3 53 4 80 17 15 8 27 12 27 9 0 -19 -110 -206 -192 -328 -25
-37 -37 -64 -33 -75 5 -13 17 -5 57 41 59 68 122 107 180 113 40 4 66 14 37
14 -11 0 -11 2 1 10 25 16 -66 12 -105 -4 -19 -8 -35 -13 -35 -11 0 3 19 35
42 72 49 80 103 195 112 240 7 30 -4 50 -18 36z m-51 -60 c-11 -8 -33 -22 -50
-30 l-30 -16 25 28 c25 27 61 47 70 38 3 -3 -4 -11 -15 -20z"/>
<path d="M5914 5426 c-43 -14 -70 -28 -72 -38 -4 -21 27 -32 47 -15 9 8 25 17
36 19 11 3 29 9 40 14 12 5 2 -14 -30 -54 -67 -84 -80 -109 -65 -128 19 -22
41 -17 95 25 52 42 65 44 65 7 0 -43 34 -70 82 -67 23 1 85 57 104 92 19 38
19 109 -1 109 -8 0 -16 -10 -17 -22 -2 -32 -3 -40 -12 -65 -8 -26 -71 -83 -91
-83 -19 0 -35 31 -35 68 0 16 -7 35 -15 42 -12 10 -24 6 -67 -27 -80 -59 -86
-61 -47 -12 90 112 101 128 95 137 -12 19 -45 19 -112 -2z"/>
<path d="M8230 5442 c0 -12 -82 -146 -91 -150 -4 -2 -19 -14 -34 -28 -14 -13
-39 -31 -56 -39 -30 -16 -36 -29 -19 -40 12 -7 73 28 101 59 17 17 23 18 39 8
33 -20 57 -14 101 27 40 39 41 39 36 13 -7 -37 9 -62 38 -62 29 0 34 24 9 38
-15 9 -15 15 4 78 28 90 13 103 -43 37 -114 -135 -145 -143 -81 -21 20 38 34
74 31 79 -8 11 -35 12 -35 1z"/>
<path d="M9589 5425 c-31 -20 -36 -22 -35 -7 0 9 -4 17 -11 17 -12 0 -93 -152
-93 -174 0 -26 28 -7 70 46 42 52 112 113 132 113 13 0 9 -58 -7 -97 -18 -43
-19 -76 -2 -71 15 6 32 40 48 100 25 91 -25 126 -102 73z"/>
<path d="M16655 5400 c-33 -66 -33 -103 2 -130 20 -16 36 -20 58 -16 53 11
181 156 137 156 -4 0 -34 -27 -67 -60 -46 -47 -66 -60 -85 -58 -34 4 -38 47
-10 95 21 35 21 63 0 63 -5 0 -21 -22 -35 -50z"/>
<path d="M3317 5405 c-41 -43 -68 -110 -56 -142 12 -34 53 -54 119 -60 65 -6
140 17 140 44 0 17 -19 17 -65 -3 -30 -12 -46 -13 -88 -4 -86 18 -100 43 -34
61 65 17 93 35 107 69 16 39 3 55 -51 65 -33 6 -40 3 -72 -30z m87 -13 c9 -15
-11 -33 -50 -47 -21 -7 -41 -11 -43 -9 -3 2 8 18 24 34 28 29 58 39 69 22z"/>
<path d="M6664 5407 c-56 -38 -84 -85 -84 -139 0 -45 25 -63 73 -52 49 10 107
43 107 59 0 19 -9 19 -48 -1 -17 -8 -47 -18 -67 -21 -30 -5 -35 -3 -35 13 0
13 21 31 62 54 65 37 89 70 72 98 -17 26 -28 24 -80 -11z m16 -42 c-19 -14
-36 -25 -39 -25 -10 0 53 49 63 50 6 0 -5 -11 -24 -25z"/>
<path d="M11067 5403 c-56 -88 -107 -180 -107 -191 0 -22 27 -12 46 16 48 75
163 172 203 172 6 0 -5 -27 -24 -59 -38 -64 -46 -118 -19 -128 22 -8 40 12 26
30 -12 14 -6 28 51 131 18 34 14 52 -15 59 -24 7 -83 -15 -110 -40 -19 -17
-25 -4 -7 14 12 12 4 33 -11 33 -6 0 -20 -17 -33 -37z"/>
<path d="M12875 5414 c-47 -32 -60 -47 -85 -98 -19 -41 -17 -59 8 -88 29 -34
170 -15 149 19 -4 6 -24 6 -57 -1 -43 -9 -53 -8 -68 7 -16 17 -15 20 8 63 26
51 54 73 103 83 38 8 43 35 7 39 -15 2 -42 -8 -65 -24z"/>
<path d="M16912 5428 c-7 -7 -12 -17 -12 -24 0 -6 -9 -31 -20 -55 -11 -24 -20
-52 -20 -61 0 -30 27 -20 40 15 7 17 21 51 31 75 24 53 13 82 -19 50z"/>
<path d="M4787 5344 c-15 -48 -26 -89 -23 -91 11 -12 36 9 74 59 44 60 69 84
79 74 4 -3 1 -36 -6 -72 -12 -56 -11 -68 0 -75 8 -4 17 -5 20 -1 11 12 25 136
19 162 -8 35 -41 36 -80 3 l-33 -28 7 28 c5 22 3 27 -11 27 -14 0 -25 -21 -46
-86z"/>
<path d="M3110 5403 c-14 -9 -28 -21 -32 -27 -4 -6 -16 -11 -28 -11 -16 0 -27
-14 -45 -60 -37 -90 -17 -119 29 -42 30 51 91 117 107 117 8 0 9 -10 4 -32
-15 -72 -17 -106 -6 -112 15 -10 30 33 38 106 5 46 3 62 -8 69 -20 13 -31 11
-59 -8z"/>
<path d="M11888 5408 c-16 -5 -44 -34 -68 -70 -52 -78 -52 -96 0 -131 28 -19
141 -24 184 -7 25 9 37 40 15 40 -5 0 -8 -4 -5 -8 2 -4 -33 -8 -80 -7 -65 0
-88 4 -101 18 -9 9 -15 18 -12 19 2 2 31 17 64 34 62 31 108 84 98 110 -6 16
-54 18 -95 2z m52 -33 c0 -8 -80 -58 -85 -53 -10 9 44 58 65 58 11 0 20 -2 20
-5z"/>
<path d="M15205 5376 c-80 -80 -71 -138 16 -102 12 5 18 0 23 -19 10 -41 29
-24 41 38 6 31 19 65 29 76 15 17 16 23 6 36 -24 29 -67 18 -115 -29z m41 -30
c-9 -14 -26 -31 -38 -37 -22 -12 -22 -11 -8 7 29 39 54 64 58 59 3 -2 -3 -16
-12 -29z"/>
<path d="M2907 5363 c-13 -21 -36 -133 -31 -147 13 -33 30 -14 43 47 7 34 13
71 14 81 2 20 -17 33 -26 19z"/>
<path d="M13312 5358 c-21 -27 -59 -114 -55 -125 8 -23 32 -14 39 15 4 15 18
44 31 65 22 35 23 57 4 57 -5 0 -13 -6 -19 -12z"/>
<path d="M3811 5237 c-5 -13 -11 -34 -13 -48 -1 -13 -19 -41 -38 -62 -43 -48
-53 -64 -45 -77 9 -14 35 -12 35 2 0 7 14 26 31 44 31 32 74 138 63 155 -9 16
-24 10 -33 -14z"/>
<path d="M5207 5204 c-4 -4 -7 -16 -7 -26 0 -17 -65 -183 -78 -198 -2 -3 -29
-5 -60 -5 -44 0 -57 -4 -57 -15 0 -11 13 -16 48 -18 26 -2 47 -5 47 -8 0 -3
-12 -28 -26 -56 -40 -78 -67 -169 -55 -181 19 -19 38 2 45 50 3 26 24 82 45
123 l39 75 53 3 c54 3 83 17 73 33 -3 5 -29 7 -57 6 l-53 -3 34 83 c18 46 34
95 35 110 2 25 -13 40 -26 27z"/>
<path d="M6705 5104 c-44 -24 -95 -75 -110 -111 -7 -17 -19 -66 -26 -107 l-13
-75 -80 -3 c-73 -3 -81 -5 -81 -23 0 -18 6 -19 78 -16 l79 3 -7 -34 c-4 -18
-30 -101 -58 -185 -42 -125 -55 -153 -72 -155 -20 -3 -29 -33 -10 -33 6 0 16
-4 23 -9 8 -5 18 -4 23 1 14 14 129 355 129 384 0 21 6 28 30 33 37 7 41 36 5
36 -14 0 -25 2 -25 4 0 2 7 39 16 82 22 107 39 133 116 174 46 25 44 25 51 -1
8 -30 32 -18 32 17 0 26 -4 29 -35 31 -19 2 -48 -5 -65 -13z"/>
<path d="M7671 5068 c-5 -13 -22 -57 -37 -98 -15 -41 -31 -79 -34 -83 -4 -4
-36 -11 -71 -15 -47 -5 -64 -11 -64 -22 0 -12 12 -14 64 -11 59 3 63 2 57 -15
-17 -42 -35 -149 -26 -158 11 -11 30 1 30 21 0 38 33 149 48 161 9 6 41 12 72
12 43 0 57 3 57 15 0 18 -54 30 -96 20 -35 -8 -36 -14 13 104 26 61 28 91 6
91 -6 0 -15 -10 -19 -22z"/>
<path d="M7984 5080 c-26 -10 -39 -39 -24 -54 8 -8 15 -6 24 7 7 9 21 17 30
17 11 0 16 6 14 17 -4 20 -17 24 -44 13z"/>
<path d="M2847 4923 c-31 -70 -105 -195 -110 -187 -3 5 -10 36 -17 69 -14 71
-34 105 -52 87 -9 -9 -9 -18 -1 -34 6 -13 19 -55 28 -95 l16 -71 -66 -125
c-40 -77 -62 -128 -55 -132 17 -10 27 2 64 78 20 40 52 97 72 127 20 30 58 93
84 140 25 47 56 102 68 123 13 21 20 42 17 48 -13 19 -33 8 -48 -28z"/>
<path d="M3455 4918 c-30 -26 -38 -29 -46 -17 -8 12 -12 11 -24 -5 -8 -11 -15
-27 -15 -36 0 -8 -9 -40 -20 -70 -20 -54 -20 -80 -1 -80 6 0 17 15 26 33 26
54 88 139 117 160 25 19 28 19 52 4 14 -10 30 -17 36 -17 18 0 11 28 -12 44
-35 25 -73 19 -113 -16z"/>
<path d="M4857 4920 c-33 -26 -33 -37 -3 -94 36 -69 15 -132 -36 -104 -13 7
-27 19 -31 26 -9 14 -37 16 -37 3 0 -36 46 -71 94 -71 32 0 66 43 66 83 0 16
-10 49 -22 73 -27 54 -14 77 41 72 27 -2 36 1 36 12 0 25 -76 25 -108 0z"/>
<path d="M4286 4911 c-79 -53 -72 -152 14 -196 41 -21 77 -19 90 5 10 18 8 20
-28 20 -103 0 -129 115 -34 151 19 7 27 6 38 -8 18 -25 44 -1 28 25 -16 25
-73 26 -108 3z"/>
<path d="M3112 4851 c-46 -85 -43 -139 10 -167 27 -14 32 -13 65 3 53 26 94
82 100 137 4 30 2 46 -5 46 -15 0 -32 -33 -32 -61 0 -31 -73 -101 -102 -97
-41 6 -38 76 7 142 14 21 23 42 20 47 -13 21 -32 6 -63 -50z"/>
<path d="M8009 4887 c-19 -13 -40 -39 -48 -60 -13 -35 -13 -40 6 -65 31 -41
93 -42 133 -2 25 25 25 52 3 107 -21 50 -42 55 -94 20z m71 -81 c0 -18 -8 -27
-31 -35 -58 -20 -80 29 -34 75 l25 24 20 -20 c11 -11 20 -31 20 -44z"/>
<path d="M8243 4878 c-35 -63 -76 -158 -71 -164 12 -11 50 8 107 56 l58 48 -1
-35 c-1 -27 5 -40 24 -54 23 -18 32 -18 77 -9 28 6 54 18 57 25 6 17 -13 32
-23 18 -3 -5 -26 -9 -51 -9 -55 1 -62 21 -30 77 22 40 20 59 -5 59 -8 0 -42
-23 -75 -51 -34 -28 -63 -49 -66 -47 -2 3 7 26 21 52 24 44 25 66 5 66 -4 0
-16 -15 -27 -32z"/>
<path d="M2952 4880 c-58 -36 -96 -126 -73 -176 6 -13 19 -24 29 -24 26 0 114
60 120 82 2 10 8 18 13 18 5 0 9 22 9 50 0 38 -4 52 -19 60 -28 14 -42 13 -79
-10z m68 -39 c0 -38 -19 -70 -57 -95 -21 -14 -42 -26 -47 -26 -14 0 0 76 20
104 17 22 34 31 72 35 6 0 12 -8 12 -18z"/>
<path d="M5262 4877 c-40 -42 -49 -126 -19 -164 16 -22 55 -14 89 16 30 26 32
33 31 85 -1 32 -7 64 -13 72 -19 22 -64 17 -88 -9z m62 -33 c17 -45 -9 -104
-46 -104 -19 0 -20 5 -16 45 6 47 22 75 43 75 7 0 16 -7 19 -16z"/>
<path d="M5665 4849 c-92 -78 -95 -79 -88 -19 5 44 4 50 -13 50 -10 0 -31 -12
-47 -27 l-28 -28 3 30 c2 21 -1 30 -11 30 -10 0 -20 -23 -31 -65 -9 -36 -22
-75 -28 -88 -13 -22 -9 -42 8 -42 5 0 25 24 45 54 52 79 62 85 61 34 -1 -58
17 -59 91 -5 l59 44 -4 -51 c-5 -65 9 -78 89 -84 49 -4 59 -2 59 12 0 12 -9
16 -34 16 -19 0 -47 5 -61 10 -25 9 -27 14 -20 47 4 20 15 54 26 75 10 20 19
42 19 48 0 24 -40 7 -95 -41z"/>
<path d="M4510 4846 c-20 -37 -22 -49 -14 -86 6 -28 18 -50 35 -62 25 -19 28
-19 58 -3 45 23 93 100 89 145 -2 23 -8 35 -18 35 -10 0 -14 -8 -13 -23 4 -31
-32 -98 -62 -118 -20 -13 -28 -14 -40 -4 -23 19 -19 89 6 116 12 12 18 27 14
33 -13 22 -33 10 -55 -33z"/>
<path d="M7298 4860 c-44 -13 -89 -51 -104 -86 -18 -43 -18 -88 0 -104 17 -13
95 -11 114 3 20 16 -4 26 -48 20 -46 -6 -55 6 -40 51 15 45 41 67 97 81 29 7
48 18 48 26 0 17 -30 21 -67 9z"/>
<path d="M7030 4845 c-6 -8 -21 -13 -31 -12 -19 2 -33 -25 -66 -125 -11 -36
27 -18 54 25 33 51 73 97 86 97 6 0 7 -27 3 -69 -9 -107 26 -106 39 0 10 79 2
99 -39 99 -19 0 -39 -7 -46 -15z"/>
<path d="M7831 4807 c-25 -51 -26 -63 -6 -71 16 -6 43 41 47 83 5 41 -19 34
-41 -12z"/>
<path d="M6735 4788 c-29 -62 -30 -76 -9 -106 36 -52 120 -48 149 8 18 34 20
106 4 116 -16 10 -29 -15 -29 -58 0 -42 -21 -68 -54 -68 -48 0 -58 37 -26 101
20 38 20 59 -1 59 -5 0 -21 -24 -34 -52z"/>
<path d="M8672 4752 c-14 -4 -16 -38 -3 -46 14 -9 61 18 59 33 -3 14 -33 21
-56 13z"/>
</g>
</svg>
