<?xml version="1.0" standalone="no"?>
<!DOCTYPE svg PUBLIC "-//W3C//DTD SVG 20010904//EN"
 "http://www.w3.org/TR/2001/REC-SVG-20010904/DTD/svg10.dtd">
<svg version="1.0" xmlns="http://www.w3.org/2000/svg"
 width="1616.000000pt" height="628.000000pt" viewBox="0 0 1616.000000 628.000000"
 preserveAspectRatio="xMidYMid meet">

<g transform="translate(0.000000,628.000000) scale(0.100000,-0.100000)"
fill="#000000" stroke="none">
<path d="M2965 5949 c-16 -5 -52 -28 -79 -52 l-50 -44 14 -49 c8 -27 38 -85
68 -128 30 -44 58 -90 63 -103 14 -38 -2 -83 -46 -129 -68 -72 -122 -58 -167
44 l-21 46 34 28 c24 20 30 31 22 39 -8 8 -20 2 -46 -22 -47 -45 -51 -66 -25
-119 26 -51 84 -90 135 -90 68 0 162 122 149 194 -3 17 -31 67 -60 110 -45 64
-93 163 -83 172 60 54 93 74 122 74 l33 0 -13 -43 c-22 -73 -23 -121 -3 -125
13 -2 24 12 43 55 35 77 28 118 -20 139 -19 8 -36 14 -37 13 -2 0 -16 -5 -33
-10z"/>
<path d="M12425 5813 c-15 -32 -34 -73 -42 -90 -14 -31 -16 -32 -36 -18 -12 8
-28 15 -36 15 -21 0 -99 -68 -117 -102 -21 -40 -11 -91 22 -115 l25 -19 -50
-74 c-56 -82 -75 -140 -47 -140 9 0 16 8 16 19 0 10 25 57 56 105 50 76 59 86
86 86 39 0 79 22 117 65 38 44 39 68 2 105 -15 16 -25 32 -21 37 3 4 19 37 35
73 15 36 35 70 43 76 8 6 12 16 8 22 -15 25 -36 10 -61 -45z m-102 -157 c17
-13 16 -17 -20 -74 -21 -34 -44 -61 -50 -62 -21 0 -45 47 -37 72 8 26 60 78
78 78 6 0 19 -7 29 -14z m87 -41 c9 -11 8 -20 -8 -43 -22 -30 -87 -70 -97 -60
-10 10 63 118 79 118 7 0 19 -7 26 -15z"/>
<path d="M7981 5826 c-8 -9 -8 -16 -2 -20 16 -10 -42 -182 -62 -184 -6 0 -33
-2 -59 -3 -33 -1 -48 -6 -48 -15 0 -10 14 -14 51 -14 45 0 50 -2 44 -17 -4
-10 -9 -44 -12 -75 -5 -49 -3 -58 11 -58 11 0 16 9 16 33 0 40 16 97 32 120 8
11 33 20 66 24 51 6 64 15 41 29 -6 3 -15 0 -20 -7 -7 -12 -9 -12 -9 0 0 10
-8 12 -29 8 l-29 -6 28 94 c15 52 25 97 22 100 -10 9 -29 5 -41 -9z"/>
<path d="M8715 5760 c-15 -24 -85 -275 -81 -287 3 -7 1 -13 -4 -13 -13 0 -13
-67 0 -75 12 -7 16 4 26 70 3 28 9 44 11 38 3 -7 14 -13 24 -13 22 0 81 27 90
42 4 6 23 2 45 -9 38 -18 39 -20 37 -66 -3 -49 9 -61 27 -28 33 62 -11 126
-86 126 l-45 0 43 38 c24 20 62 49 86 63 37 23 57 54 34 54 -18 0 -101 -61
-170 -123 -71 -66 -102 -85 -82 -49 15 26 40 122 32 122 -4 0 0 5 8 10 13 9
13 11 0 20 -9 6 -10 10 -3 10 14 0 45 59 37 71 -7 12 -21 11 -29 -1z"/>
<path d="M14005 5758 c-2 -7 -7 -31 -11 -53 -3 -22 -9 -34 -11 -27 -12 32 -80
-14 -112 -75 -16 -32 -14 -95 5 -121 15 -22 14 -28 -30 -119 -25 -52 -46 -97
-46 -99 0 -2 8 -4 18 -4 12 0 30 28 59 90 34 73 46 90 64 90 32 0 87 37 104
70 22 42 18 74 -11 109 -24 29 -25 33 -13 68 7 21 17 43 22 50 5 7 6 17 2 23
-9 14 -35 13 -40 -2z m-45 -128 c0 -5 -12 -39 -26 -76 -19 -45 -29 -62 -35
-52 -15 23 -10 72 11 106 18 30 50 44 50 22z m70 -70 c0 -24 -44 -76 -70 -83
-26 -7 -25 1 8 79 27 64 27 64 45 43 9 -12 17 -29 17 -39z"/>
<path d="M14352 5704 c-52 -58 -67 -96 -50 -127 7 -14 6 -22 -5 -30 -48 -40
-62 -112 -27 -147 24 -24 79 -26 119 -5 39 20 81 72 81 100 0 27 -43 65 -74
65 -17 0 -9 11 37 51 31 28 57 58 57 66 0 15 -67 83 -81 83 -4 0 -30 -25 -57
-56z m86 -7 c6 -5 12 -15 12 -21 0 -14 -69 -71 -98 -80 -33 -11 -29 27 8 73
29 38 54 47 78 28z m-7 -184 c17 -17 0 -51 -39 -78 -81 -55 -149 -5 -92 68 17
22 27 25 70 23 28 -1 55 -7 61 -13z"/>
<path d="M13186 5723 c-8 -16 -51 -61 -96 -102 -100 -91 -102 -107 -11 -102
59 3 63 2 57 -15 -4 -11 -15 -47 -24 -81 -13 -48 -14 -65 -5 -74 10 -10 13 -9
16 2 2 8 15 50 29 93 22 74 26 81 57 88 35 10 38 35 2 31 -25 -3 -25 -9 -5 66
8 34 13 65 9 70 -3 5 -1 12 5 16 15 9 12 35 -5 35 -8 0 -21 -12 -29 -27z m-18
-116 c-12 -48 -25 -57 -81 -57 -27 0 -26 2 30 54 32 30 59 53 61 51 1 -1 -3
-23 -10 -48z"/>
<path d="M12970 5664 c-61 -148 -92 -234 -88 -251 5 -28 33 -22 34 7 0 14 26
88 57 166 31 77 57 143 57 147 0 4 -6 7 -14 7 -8 0 -28 -32 -46 -76z"/>
<path d="M14171 5663 c-12 -43 -33 -116 -47 -162 -23 -77 -26 -128 -5 -105 11
12 43 112 75 237 30 116 29 107 12 107 -8 0 -22 -30 -35 -77z"/>
<path d="M12552 5703 c-41 -27 -55 -53 -29 -53 7 0 28 11 47 25 88 65 88 -3 1
-122 -24 -34 -38 -43 -60 -43 -31 0 -83 -37 -102 -71 -16 -32 14 -34 71 -5 30
15 50 21 47 14 -7 -21 12 -48 33 -48 14 0 20 7 20 21 0 11 -4 17 -10 14 -6 -4
-10 7 -10 24 0 20 13 48 36 77 67 89 90 154 62 182 -20 20 -61 14 -106 -15z"/>
<path d="M13705 5708 c-42 -15 -58 -29 -46 -41 6 -6 26 -3 55 8 26 10 49 15
52 12 17 -17 -96 -157 -126 -157 -16 0 -80 -61 -80 -76 0 -25 39 -15 80 22 48
44 76 41 66 -8 -3 -18 -1 -37 5 -44 15 -19 54 -18 69 2 8 8 9 14 4 13 -33 -6
-44 2 -44 34 0 18 -7 42 -15 54 -13 19 -13 22 2 34 30 25 73 102 73 131 0 25
-3 28 -32 27 -18 0 -46 -5 -63 -11z"/>
<path d="M8355 5690 c-11 -17 5 -32 21 -19 7 6 11 15 8 20 -7 12 -21 11 -29
-1z"/>
<path d="M9078 5603 c-18 -20 -11 -42 23 -76 27 -26 35 -66 18 -96 -26 -47
-97 -34 -85 15 8 31 -7 38 -29 14 -18 -20 -18 -21 2 -48 29 -39 59 -52 94 -40
71 25 79 116 16 185 -17 20 -18 23 -4 29 8 3 25 0 37 -6 26 -14 38 -5 24 18
-16 24 -76 27 -96 5z"/>
<path d="M5423 5587 c-6 -13 -16 -50 -23 -83 -18 -87 -26 -96 -44 -52 -9 21
-16 47 -16 58 0 35 -19 63 -35 50 -11 -9 -10 -21 5 -71 45 -147 90 -144 120 9
l13 62 33 -6 c45 -8 46 16 2 36 -18 7 -36 15 -39 17 -3 2 -10 -7 -16 -20z"/>
<path d="M6840 5590 c0 -11 7 -20 15 -20 20 0 19 -40 -3 -65 -19 -23 -62 -55
-74 -55 -21 0 -6 62 22 93 30 34 38 57 21 57 -13 0 -78 -75 -86 -99 -3 -12
-13 -21 -21 -21 -10 0 -14 -14 -16 -52 -1 -58 -2 -66 -11 -88 -3 -8 -8 -29
-11 -46 -3 -18 -8 -43 -12 -58 -4 -19 -2 -26 9 -26 14 0 35 47 69 159 12 37
19 45 53 57 76 25 127 112 93 156 -22 26 -48 30 -48 8z"/>
<path d="M3125 5558 c-22 -26 -25 -38 -21 -71 7 -45 18 -57 59 -57 39 0 67 32
67 78 0 80 -57 107 -105 50z m63 -10 c17 -17 15 -63 -3 -78 -39 -32 -71 19
-41 66 18 27 27 29 44 12z"/>
<path d="M3319 5587 c0 -1 -2 -21 -5 -45 -2 -24 -13 -61 -24 -82 -24 -47 -24
-50 -5 -50 8 0 26 17 39 38 13 20 35 48 49 60 l25 24 -5 -40 c-3 -22 -1 -42 4
-45 5 -3 26 16 46 43 33 44 78 72 93 57 3 -3 1 -22 -5 -44 -15 -52 -14 -83 2
-83 9 0 19 25 27 71 13 67 12 72 -5 85 -24 18 -63 8 -96 -23 -22 -20 -27 -22
-32 -9 -7 18 -42 22 -52 6 -10 -17 -25 -11 -25 9 0 10 -7 21 -15 25 -8 3 -15
4 -16 3z"/>
<path d="M3690 5583 c-28 -10 -59 -46 -71 -81 -11 -34 -10 -37 24 -69 26 -23
46 -33 69 -33 35 0 131 40 143 60 14 23 -6 22 -64 -4 -65 -29 -83 -31 -113
-15 -19 10 -18 12 13 27 18 9 42 31 52 49 18 31 18 32 -2 52 -22 22 -26 23
-51 14z m28 -45 c-6 -17 -56 -53 -64 -45 -12 11 26 57 47 57 12 0 19 -5 17
-12z"/>
<path d="M5722 5558 c-10 -18 -30 -52 -43 -76 l-23 -43 -43 46 c-25 29 -49 45
-59 43 -21 -4 -31 -28 -11 -28 7 0 33 -20 56 -45 l43 -46 -63 -107 c-34 -59
-75 -129 -91 -156 -16 -26 -27 -55 -23 -64 3 -9 9 -12 14 -6 22 22 281 480
281 495 0 23 -21 15 -38 -13z"/>
<path d="M6524 5573 c-3 -10 -16 -43 -29 -73 -30 -73 -36 -102 -24 -120 8 -12
15 -9 40 20 17 19 44 52 60 73 l28 38 3 -53 c3 -46 6 -53 26 -56 15 -2 22 2
22 12 0 9 -5 16 -11 16 -12 0 -8 93 5 123 18 38 -24 15 -78 -44 -31 -33 -56
-57 -56 -54 0 4 11 30 25 58 25 49 27 77 5 77 -6 0 -13 -8 -16 -17z"/>
<path d="M8128 5570 c-14 -11 -30 -20 -35 -20 -11 0 -47 -120 -39 -128 12 -12
33 9 44 44 16 55 56 94 93 94 40 0 34 24 -7 28 -19 2 -40 -5 -56 -18z"/>
<path d="M6913 5553 c-4 -9 -2 -18 4 -20 8 -3 4 -21 -9 -53 -19 -46 -19 -80
-1 -80 5 0 32 21 61 46 35 30 52 40 52 30 0 -21 23 -20 69 4 l39 19 -11 -34
c-20 -67 24 -106 84 -74 28 14 13 31 -22 24 -40 -9 -46 12 -20 71 12 25 21 53
21 60 0 21 -28 17 -63 -10 -53 -39 -61 -41 -48 -18 15 28 14 52 -2 52 -7 0
-37 -25 -67 -55 -29 -30 -55 -53 -57 -51 -3 2 3 21 12 42 8 21 13 44 11 51 -8
19 -45 16 -53 -4z"/>
<path d="M8442 5550 c-39 -24 -66 -74 -57 -107 6 -25 56 -53 95 -53 34 0 22
26 -17 36 -30 7 -39 14 -41 34 -4 35 20 64 54 65 33 0 43 20 16 34 -14 7 -26
5 -50 -9z"/>
<path d="M4686 5535 c-4 -13 -10 -14 -26 -5 -29 16 -55 4 -73 -32 -26 -54 -3
-69 64 -43 13 5 15 -1 9 -45 -5 -42 -4 -50 10 -50 12 0 19 18 28 73 7 39 14
81 15 91 2 24 -18 32 -27 11z m-57 -56 c-16 -10 -23 -4 -14 10 3 6 11 8 17 5
6 -4 5 -9 -3 -15z"/>
<path d="M4821 5524 c-12 -15 -21 -30 -21 -35 0 -4 -6 -14 -14 -22 -8 -8 -18
-31 -21 -51 -12 -61 17 -42 53 35 24 54 36 70 48 65 23 -9 37 3 23 20 -18 22
-45 17 -68 -12z"/>
<path d="M8265 5507 c-9 -14 -19 -42 -22 -62 -9 -54 15 -42 38 20 21 55 11 82
-16 42z"/>
<path d="M4961 5501 c-41 -41 -17 -131 35 -131 32 0 74 42 74 73 0 57 -72 95
-109 58z m53 -31 c14 -5 26 -15 26 -21 0 -17 -30 -49 -46 -49 -16 0 -29 43
-20 65 6 18 7 18 40 5z"/>
<path d="M5136 5488 c-10 -18 -16 -46 -14 -63 6 -57 87 -41 102 20 18 71 -54
106 -88 43z m57 -15 c8 -14 -12 -53 -28 -53 -16 0 -19 17 -9 44 6 17 29 22 37
9z"/>
<path d="M12651 5431 c-11 -20 -5 -31 16 -31 7 0 13 11 13 25 0 29 -15 33 -29
6z"/>
<path d="M13261 5420 c-26 -22 -22 -51 6 -44 22 6 46 41 38 54 -9 14 -17 12
-44 -10z"/>
<path d="M4645 5303 c-6 -40 -9 -44 -28 -38 -67 19 -92 17 -117 -10 -49 -52
-24 -185 34 -185 27 0 66 41 96 100 18 35 23 38 55 35 42 -4 46 12 6 26 -27
10 -29 13 -20 42 13 44 11 64 -5 70 -10 4 -16 -7 -21 -40z m-56 -64 c39 -14
39 -25 -1 -80 -51 -72 -63 -75 -78 -19 -11 41 -7 74 12 98 13 15 26 15 67 1z"/>
<path d="M2539 5138 c0 -1 -2 -32 -4 -68 -2 -38 -20 -123 -43 -205 -22 -77
-42 -153 -44 -170 l-3 -30 124 1 c79 0 126 4 128 11 6 18 -47 25 -134 18 -67
-6 -83 -5 -83 6 0 8 14 61 30 119 43 148 68 272 60 294 -6 17 -28 34 -31 24z"/>
<path d="M3761 4948 c-81 -81 -173 -237 -187 -318 -7 -40 -68 -110 -96 -110
-22 0 -24 -26 -3 -34 8 -3 20 0 27 7 7 7 26 22 42 35 l28 22 30 -25 c23 -20
41 -25 83 -25 29 0 60 3 69 6 26 10 18 26 -11 24 -71 -5 -104 1 -124 21 l-21
21 34 37 c60 64 135 164 163 221 29 56 40 149 19 157 -6 2 -30 -16 -53 -39z
m33 -35 c-12 -51 -56 -127 -121 -210 -36 -46 -66 -83 -68 -83 -6 0 21 74 45
121 36 70 130 199 146 199 3 0 1 -12 -2 -27z"/>
<path d="M10200 4904 c-8 -20 -8 -29 1 -34 14 -9 3 -86 -14 -101 -7 -5 -28
-20 -47 -32 -68 -44 -71 -95 -5 -117 30 -10 34 -15 30 -38 -2 -15 -7 -53 -10
-84 -4 -32 -10 -58 -15 -58 -21 0 -41 14 -65 46 -22 28 -24 38 -14 50 16 19 3
31 -19 18 -45 -29 -6 -110 64 -136 33 -12 35 -15 30 -48 -15 -94 -26 -239 -20
-253 7 -19 29 -23 39 -7 4 6 2 17 -4 24 -6 7 -9 15 -7 17 2 2 7 47 10 99 3 52
8 104 10 115 3 11 5 26 5 33 1 6 12 12 25 12 35 0 76 53 76 96 0 40 -12 67
-45 104 -27 31 -37 57 -25 65 6 4 10 17 10 30 0 27 35 44 53 26 14 -14 37 -14
37 0 0 17 -32 38 -57 39 -20 0 -21 3 -12 32 14 49 11 104 -6 118 -12 10 -16 7
-25 -16z m-20 -201 c0 -10 -3 -28 -6 -40 -5 -19 -9 -20 -30 -11 -29 14 -30 22
-4 48 25 25 40 26 40 3z m48 -148 c18 -38 15 -72 -8 -95 -31 -31 -44 -25 -36
18 3 20 6 52 6 70 0 39 22 43 38 7z"/>
<path d="M13685 4874 c-55 -59 -108 -143 -140 -220 -34 -82 -46 -97 -91 -119
-19 -9 -34 -20 -34 -25 0 -19 18 -19 53 0 36 19 36 19 42 -1 9 -28 71 -57 92
-43 28 18 29 38 1 31 -29 -8 -68 16 -68 42 0 9 14 27 31 40 44 32 100 124 138
226 40 106 32 130 -24 69z m-20 -101 c-26 -63 -85 -153 -99 -153 -9 0 52 119
81 158 32 42 37 41 18 -5z"/>
<path d="M6441 4877 c-6 -8 -8 -16 -5 -20 6 -6 -53 -168 -97 -266 -16 -35 -29
-68 -29 -72 0 -18 22 -8 47 21 14 17 33 35 43 40 17 9 18 7 13 -25 -9 -58 19
-43 40 22 22 69 13 84 -36 55 l-35 -20 40 102 c49 123 59 156 52 167 -8 13
-20 11 -33 -4z"/>
<path d="M4035 4836 c-16 -11 -17 -17 -8 -27 9 -9 7 -23 -9 -63 -51 -128 -98
-269 -92 -277 10 -17 31 9 44 57 10 36 21 49 55 69 23 14 54 25 69 25 27 0 27
0 24 -62 -2 -35 1 -65 6 -68 5 -3 15 22 23 54 17 74 2 106 -50 106 -31 0 -30
2 62 88 58 55 92 93 87 100 -10 17 -36 15 -36 -2 0 -8 -12 -24 -27 -36 -16
-12 -56 -49 -91 -82 -35 -33 -65 -58 -68 -55 -3 2 6 33 20 68 40 101 37 139
-9 105z"/>
<path d="M9241 4803 c-10 -21 -29 -76 -42 -121 -18 -67 -25 -82 -38 -76 -37
16 -89 -7 -115 -50 -15 -24 42 -76 84 -76 39 0 50 20 89 160 18 63 39 125 47
137 16 26 18 49 4 58 -5 3 -18 -11 -29 -32z m-82 -256 c-11 -42 -33 -48 -69
-19 -20 16 -21 19 -6 31 13 11 76 31 83 26 1 0 -2 -18 -8 -38z"/>
<path d="M12090 4817 c0 -25 -54 -167 -93 -244 -26 -51 -34 -83 -20 -83 3 0
30 23 60 51 30 28 57 49 60 46 3 -4 -2 -25 -11 -48 -12 -29 -14 -45 -7 -52 7
-7 14 -7 19 -1 15 17 44 113 37 124 -9 15 -47 12 -72 -5 -19 -13 -16 -1 23 95
50 124 52 140 24 140 -14 0 -20 -7 -20 -23z"/>
<path d="M14647 4805 c-4 -8 -1 -15 5 -15 7 0 7 -4 0 -12 -5 -7 -13 -24 -17
-38 -4 -14 -36 -83 -72 -154 -40 -81 -60 -133 -54 -139 6 -6 33 10 73 42 l63
51 3 -37 c2 -21 8 -43 14 -50 20 -24 118 -10 118 16 0 5 -21 9 -47 8 l-48 -2
3 53 c2 42 0 52 -13 52 -21 0 -54 -17 -82 -43 -13 -11 -23 -18 -23 -15 0 3 23
54 51 113 50 105 66 174 43 182 -6 2 -14 -3 -17 -12z"/>
<path d="M14071 4788 c-5 -13 -16 -59 -26 -103 -22 -104 -24 -112 -33 -98 -4
6 -19 14 -34 18 -56 14 -123 -89 -83 -128 36 -37 115 -3 142 61 13 31 57 200
66 251 4 24 -22 24 -32 -1z m-77 -224 c23 -9 20 -20 -11 -49 -49 -44 -93 -22
-59 30 16 25 39 31 70 19z"/>
<path d="M2745 4703 c-5 -45 -13 -63 -32 -79 -22 -19 -23 -24 -12 -43 17 -26
36 -27 43 -3 9 26 68 62 104 62 49 0 43 33 -13 72 -25 18 -45 35 -45 40 0 4
-9 8 -19 8 -16 0 -21 -10 -26 -57z"/>
<path d="M3900 4741 c0 -12 6 -21 16 -21 9 0 14 7 12 17 -5 25 -28 28 -28 4z"/>
<path d="M5279 4657 c-41 -37 -101 -129 -98 -149 2 -7 -7 -34 -18 -60 -28 -62
-32 -92 -13 -95 10 -2 25 19 45 65 20 47 35 68 48 69 59 5 151 137 127 183
-15 29 -49 24 -91 -13z m61 -13 c0 -40 -79 -138 -96 -121 -9 9 27 82 53 110
30 31 43 34 43 11z"/>
<path d="M5034 4653 c-4 -10 -17 -46 -30 -80 -13 -34 -24 -66 -24 -72 0 -25
22 -19 52 16 18 20 48 53 65 72 l33 36 -7 -62 c-5 -52 -3 -63 9 -63 11 0 17
15 22 46 9 66 8 78 -8 100 -14 18 -17 17 -61 -26 l-46 -45 16 37 c8 21 15 42
15 48 0 17 -30 11 -36 -7z"/>
<path d="M5597 4644 c-42 -28 -47 -29 -47 -10 0 24 -19 29 -45 12 -22 -15 -25
-15 -25 -1 0 37 -28 8 -59 -61 -25 -54 -31 -78 -24 -85 8 -8 16 -3 26 17 9 16
32 45 52 64 34 32 36 33 20 7 -14 -21 -15 -31 -7 -39 12 -12 18 -9 110 60 35
27 35 27 10 -41 -8 -20 -7 -31 2 -42 15 -18 51 -20 68 -3 20 20 14 31 -14 24
-24 -6 -26 -5 -20 16 27 100 13 124 -47 82z"/>
<path d="M6555 4662 c-21 -14 -55 -65 -49 -73 3 -5 0 -9 -5 -9 -6 0 -11 -11
-11 -25 0 -41 66 -54 108 -22 16 13 15 58 -2 82 -7 11 -12 28 -10 38 2 17 -13
22 -31 9z m25 -93 c0 -18 -40 -33 -53 -20 -5 5 -1 23 8 41 15 30 17 31 30 13
8 -10 15 -25 15 -34z"/>
<path d="M6675 4661 c-3 -6 -3 -16 0 -21 4 -6 -5 -33 -19 -60 -14 -27 -26 -54
-26 -60 0 -21 26 -9 57 27 18 21 30 30 27 21 -12 -34 23 -30 75 8 29 20 54 35
56 33 2 -2 -1 -23 -8 -46 -8 -33 -8 -45 3 -57 16 -20 24 -13 27 22 1 15 5 48
9 75 6 42 5 47 -12 47 -11 0 -36 -11 -56 -25 -46 -31 -46 -31 -40 2 4 22 2 25
-14 21 -44 -12 -48 -12 -49 1 0 18 -21 26 -30 12z"/>
<path d="M12732 4648 c-37 -41 -45 -76 -24 -112 35 -59 109 -58 182 4 51 44
27 59 -30 18 -46 -34 -104 -43 -120 -18 -6 10 2 18 31 31 46 21 69 60 49 84
-18 22 -63 18 -88 -7z m56 -20 c-6 -16 -36 -34 -44 -25 -9 9 15 37 33 37 8 0
13 -5 11 -12z"/>
<path d="M4242 4647 c-26 -12 -79 -110 -62 -115 5 -2 10 -14 10 -27 0 -29 10
-36 58 -38 42 -1 102 33 102 59 0 20 -16 18 -49 -7 -30 -22 -72 -23 -79 -2 -2
7 7 17 20 22 38 14 78 58 78 84 0 36 -33 46 -78 24z m25 -53 c-32 -27 -49 -31
-41 -9 7 17 56 46 64 38 3 -2 -8 -16 -23 -29z"/>
<path d="M7825 4635 c-39 -39 -27 -105 24 -123 56 -21 61 -21 71 -2 6 11 9 20
8 21 -2 1 -18 2 -37 3 -32 2 -61 26 -61 51 0 7 9 20 20 30 11 10 20 13 20 7 0
-14 26 -16 34 -3 11 18 -6 41 -31 41 -13 0 -35 -11 -48 -25z"/>
<path d="M11092 4634 c-24 -19 -36 -23 -46 -15 -18 15 -26 4 -26 -35 0 -19 -6
-34 -15 -38 -9 -3 -15 -18 -15 -34 0 -16 -9 -55 -20 -88 -22 -63 -20 -99 4
-73 8 8 21 38 31 67 11 35 22 52 33 52 55 0 136 94 130 152 -4 43 -31 47 -76
12z m28 -69 c-12 -20 -35 -42 -52 -51 -27 -14 -29 -14 -26 3 3 19 28 53 68 91
21 20 26 21 28 8 2 -9 -6 -32 -18 -51z"/>
<path d="M11462 4644 c-12 -8 -19 -20 -16 -26 4 -7 2 -8 -5 -4 -6 4 -31 -9
-58 -31 -35 -28 -45 -33 -39 -18 26 69 14 99 -29 71 -22 -15 -25 -15 -25 -1 0
35 -27 9 -58 -56 -45 -94 -32 -108 34 -34 l52 59 -5 -47 c-5 -40 -3 -47 12
-47 9 0 39 19 67 41 27 23 51 40 53 38 2 -2 -1 -23 -8 -46 -9 -34 -8 -45 6
-67 19 -29 39 -33 56 -12 13 15 -1 32 -18 21 -15 -9 -22 30 -11 60 5 14 8 31
4 36 -3 5 -1 9 4 9 12 0 33 56 25 64 -9 9 -17 7 -41 -10z"/>
<path d="M14432 4646 c-47 -16 -56 -37 -37 -82 21 -50 20 -98 -1 -90 -9 3 -18
6 -20 6 -2 0 -4 9 -4 20 0 13 -5 18 -16 13 -23 -9 -13 -45 18 -63 55 -30 85
29 57 113 -14 44 -5 57 43 57 31 0 47 18 27 31 -18 11 -26 10 -67 -5z"/>
<path d="M6974 4614 c-44 -46 -46 -93 -7 -124 20 -16 37 -20 59 -17 43 7 104
48 104 70 0 22 -5 22 -43 -7 -42 -31 -72 -39 -97 -26 -28 15 -25 37 8 45 37 9
72 44 72 72 0 19 -5 23 -31 23 -23 0 -41 -10 -65 -36z m56 -9 c-7 -8 -17 -15
-22 -15 -6 0 -5 7 2 15 7 8 17 15 22 15 6 0 5 -7 -2 -15z"/>
<path d="M10888 4630 c-17 -13 -28 -16 -30 -9 -7 20 -48 0 -48 -23 0 -11 -7
-36 -16 -55 -14 -27 -14 -36 -4 -46 10 -9 14 -9 17 1 3 7 24 34 47 59 l42 46
0 -48 c-1 -30 4 -50 12 -52 8 -3 12 5 12 24 0 15 4 44 10 63 7 26 7 38 -3 48
-11 10 -18 9 -39 -8z"/>
<path d="M14166 4609 c-19 -16 -38 -39 -41 -50 -9 -28 13 -51 45 -47 15 1 34
-5 44 -15 20 -20 32 -22 41 -6 4 6 0 16 -9 22 -15 11 -14 16 10 51 l27 39 -24
18 c-34 26 -53 24 -93 -12z m46 -39 c-32 -30 -70 -42 -56 -17 18 31 39 47 63
47 l26 -1 -33 -29z"/>
<path d="M3837 4623 c-11 -20 -30 -113 -24 -120 12 -11 25 9 38 59 10 35 10
51 2 59 -6 6 -13 7 -16 2z"/>
<path d="M12230 4601 c-54 -53 -51 -113 6 -119 56 -6 98 66 59 98 -12 10 -13
15 -4 20 15 10 3 30 -17 30 -9 0 -28 -13 -44 -29z m46 -46 c8 -20 -13 -45 -37
-45 -21 0 -24 12 -9 41 13 23 38 25 46 4z"/>
<path d="M12374 4593 c-30 -72 -32 -80 -24 -94 7 -10 17 -5 44 26 31 35 35 37
36 18 0 -35 13 -34 66 3 85 61 88 62 81 20 -7 -44 0 -66 20 -66 11 0 13 13 11
62 -4 78 -18 84 -92 35 -50 -33 -53 -34 -48 -12 5 27 -13 41 -32 26 -10 -9
-15 -8 -20 4 -9 25 -25 17 -42 -22z"/>
<path d="M13696 4604 c-34 -35 -52 -94 -37 -121 22 -43 100 -32 135 19 26 37
19 64 -23 97 -21 17 -41 31 -44 31 -2 0 -16 -12 -31 -26z m54 -34 c42 0 27
-65 -17 -76 -36 -9 -55 2 -48 28 11 36 38 74 43 60 2 -6 12 -12 22 -12z"/>
<path d="M8682 4594 c-43 -34 -55 -63 -34 -86 18 -22 29 -22 63 -4 23 12 26
12 25 -2 0 -9 7 -18 17 -20 10 -2 17 3 17 12 0 9 -4 16 -10 16 -5 0 0 16 12
36 l21 35 -21 6 c-11 3 -23 11 -26 19 -8 21 -27 17 -64 -12z m47 -23 c8 -14 5
-21 -13 -31 -36 -19 -56 -8 -29 15 12 10 20 22 17 27 -3 4 -1 8 5 8 6 0 15 -8
20 -19z"/>
<path d="M8027 4590 c-16 -13 -27 -31 -27 -45 0 -30 41 -59 70 -50 24 8 44 41
34 57 -4 6 -7 20 -8 32 -1 29 -36 32 -69 6z m41 -43 c2 -12 -3 -17 -17 -17
-23 0 -24 1 -15 25 8 19 28 15 32 -8z"/>
<path d="M8225 4590 c-17 -19 -19 -19 -31 -2 -12 16 -13 16 -19 -3 -4 -11 -11
-30 -16 -43 -25 -62 1 -82 39 -29 15 22 22 26 22 14 0 -23 22 -22 54 4 27 21
28 21 41 3 46 -64 40 -62 75 -24 30 32 31 32 25 8 -10 -40 9 -41 56 -3 l44 34
13 -24 c13 -26 20 -29 46 -19 23 9 20 24 -4 24 -16 0 -20 7 -20 30 0 35 -13
38 -58 10 -33 -20 -33 -20 -27 -1 8 25 -9 35 -35 21 -17 -9 -19 -14 -9 -26 8
-9 8 -14 1 -14 -6 0 -16 9 -22 21 -14 25 -35 20 -36 -10 -2 -33 -12 -36 -25
-7 -13 28 -45 35 -69 14 -12 -11 -12 -10 -1 4 27 36 -13 52 -44 18z"/>
<path d="M8875 4598 c-27 -15 -44 -39 -45 -60 0 -26 12 -22 42 12 37 43 60 40
56 -7 -4 -48 17 -54 32 -9 21 63 -25 98 -85 64z"/>
<path d="M9457 4504 c-4 -4 -7 -23 -7 -41 0 -34 -22 -64 -66 -89 -15 -9 -16
-15 -7 -25 10 -10 19 -6 49 16 39 30 63 75 60 114 -1 25 -16 37 -29 25z"/>
<path d="M4892 4398 c-6 -7 -20 -44 -32 -83 -12 -38 -35 -104 -52 -145 -54
-134 -48 -152 24 -74 43 46 76 70 85 60 3 -3 0 -28 -7 -56 -9 -37 -9 -55 -2
-62 14 -14 31 28 37 88 3 30 0 48 -11 58 -21 21 -27 20 -63 -10 -26 -22 -31
-23 -28 -7 2 10 7 25 10 33 10 24 67 197 67 204 0 10 -17 6 -28 -6z"/>
<path d="M8616 4360 c-27 -25 -53 -62 -67 -95 -18 -43 -27 -54 -50 -59 -18 -3
-29 -12 -29 -22 0 -12 6 -14 29 -9 29 6 29 6 21 -31 -12 -52 -41 -79 -68 -65
-15 8 -23 8 -28 0 -8 -14 22 -39 46 -39 27 0 71 55 84 106 11 42 16 50 42 55
16 3 41 2 56 -2 28 -8 44 3 33 20 -3 6 -28 10 -56 9 -28 0 -53 2 -55 5 -20 20
87 139 119 135 14 -2 22 2 22 12 0 9 -11 16 -27 18 -20 2 -38 -7 -72 -38z"/>
<path d="M6550 4366 c0 -8 -16 -72 -37 -142 -25 -88 -33 -129 -25 -132 7 -2
12 -12 12 -22 0 -22 28 -40 60 -40 12 0 37 15 56 34 33 33 42 64 28 100 -7 19
-55 21 -86 5 -11 -6 -22 -8 -25 -5 -3 3 6 43 21 90 30 96 32 126 11 126 -8 0
-15 -6 -15 -14z m66 -243 c-7 -30 -40 -63 -62 -63 -12 0 -34 29 -34 44 0 11
64 46 84 46 15 0 17 -5 12 -27z"/>
<path d="M10639 4343 c-84 -90 -165 -211 -175 -262 -6 -30 -33 -55 -63 -56 -8
0 -16 -6 -18 -12 -5 -15 44 -18 65 -4 9 5 23 -2 42 -20 33 -33 84 -41 78 -11
-2 9 -10 18 -18 18 -8 1 -20 2 -25 3 -6 0 -16 10 -22 21 -11 17 -8 22 30 44
85 50 147 142 167 245 16 83 -4 94 -61 34z m21 -68 c-7 -25 -25 -65 -40 -89
-30 -47 -120 -117 -120 -93 0 24 158 243 168 232 3 -2 -1 -25 -8 -50z"/>
<path d="M12922 4280 c-43 -94 -48 -100 -77 -101 -16 -1 -35 -1 -41 0 -6 1
-17 -5 -24 -14 -16 -19 8 -30 50 -21 36 7 36 6 9 -45 -19 -38 -20 -69 -2 -69
4 0 21 30 37 65 28 64 29 65 68 65 32 0 39 3 36 18 -3 12 -12 16 -31 15 -24
-2 -27 1 -21 20 3 12 21 51 40 86 32 61 35 81 13 81 -6 0 -31 -45 -57 -100z"/>
<path d="M13088 4350 c-16 -47 -86 -190 -108 -220 -19 -27 -27 -60 -14 -60 4
0 24 16 45 35 42 38 77 48 63 18 -10 -25 -11 -72 0 -75 5 -2 16 19 24 46 18
56 8 82 -31 79 l-25 -1 40 86 c22 48 45 90 50 93 6 4 7 12 4 18 -13 21 -37 11
-48 -19z"/>
<path d="M2950 4355 c0 -8 -16 -49 -36 -92 -44 -92 -64 -149 -64 -175 0 -29
22 -17 33 18 5 16 29 75 54 132 42 95 49 132 23 132 -5 0 -10 -7 -10 -15z"/>
<path d="M4746 4306 c-15 -52 -18 -55 -56 -61 -26 -4 -40 -12 -40 -22 0 -12 7
-14 30 -10 l29 6 -21 -54 c-13 -34 -18 -64 -14 -80 7 -28 46 -51 70 -42 22 9
20 27 -3 27 -39 0 -45 25 -21 90 12 33 28 60 36 60 19 0 29 21 14 30 -9 6 -8
14 4 38 20 38 21 72 2 72 -9 0 -21 -21 -30 -54z"/>
<path d="M2819 4288 c-9 -35 -30 -100 -47 -145 -26 -70 -29 -83 -17 -93 12
-10 16 -9 19 1 3 8 21 59 40 114 43 123 55 185 34 185 -9 0 -19 -22 -29 -62z"/>
<path d="M11650 4335 c-7 -8 -10 -15 -6 -15 11 0 -85 -182 -120 -229 -51 -66
-31 -76 57 -28 69 37 69 37 63 13 -11 -45 3 -66 44 -66 20 0 43 4 51 9 24 15
2 30 -34 24 -40 -6 -42 -1 -20 51 14 34 14 37 -2 43 -10 4 -37 -4 -65 -19 -26
-14 -48 -25 -48 -24 0 0 27 54 60 120 33 65 57 122 54 127 -8 13 -20 11 -34
-6z"/>
<path d="M6193 4298 c-5 -7 -18 -35 -28 -63 -17 -47 -59 -105 -77 -105 -4 0
-14 16 -22 35 -15 35 -47 48 -61 25 -3 -5 -10 -10 -15 -10 -6 0 4 22 20 49 35
56 37 71 11 71 -24 0 -151 -59 -151 -70 0 -19 28 -16 74 7 l49 25 -20 -34
c-11 -19 -28 -46 -37 -60 -15 -23 -15 -27 -1 -38 13 -10 22 -8 55 14 l40 26
14 -35 c12 -27 21 -35 40 -35 15 0 26 4 26 8 0 5 11 14 24 20 24 11 37 34 70
121 17 44 10 76 -11 49z"/>
<path d="M11047 4293 c-4 -3 -7 -30 -7 -58 0 -66 -41 -151 -89 -182 -36 -25
-51 -22 -51 7 0 21 36 50 62 50 10 0 18 7 18 15 0 26 -49 17 -81 -14 -35 -36
-40 -85 -9 -101 65 -35 180 100 180 212 0 26 5 48 12 50 6 2 8 10 4 16 -8 13
-29 16 -39 5z"/>
<path d="M14374 4289 c-8 -14 11 -33 25 -25 16 10 13 36 -3 36 -8 0 -18 -5
-22 -11z"/>
<path d="M2645 4270 c-10 -17 12 -37 25 -24 8 8 6 15 -4 23 -10 9 -16 9 -21 1z"/>
<path d="M6317 4252 c-43 -31 -87 -95 -87 -128 0 -12 8 -32 18 -44 15 -18 28
-22 75 -21 57 0 102 15 93 30 -3 5 -36 6 -74 3 -59 -4 -70 -2 -76 13 -12 33 3
55 39 55 19 0 37 5 40 11 4 5 18 14 31 19 44 17 40 91 -5 90 -9 -1 -33 -13
-54 -28z m38 -37 c-40 -33 -70 -33 -32 0 15 14 36 25 45 25 13 -1 9 -7 -13
-25z"/>
<path d="M2257 4208 c-26 -18 -47 -39 -47 -45 0 -22 31 -14 67 18 71 62 104
13 42 -64 -19 -23 -28 -44 -25 -54 6 -13 14 -9 46 22 l39 38 35 -31 c28 -25
41 -30 58 -23 23 8 91 119 82 133 -11 18 -25 5 -49 -42 -14 -28 -32 -53 -40
-57 -8 -3 -30 8 -49 23 -26 22 -33 35 -29 52 7 30 -22 62 -56 62 -15 0 -48
-15 -74 -32z"/>
<path d="M7156 4219 c-37 -29 -69 -88 -116 -212 -44 -119 -46 -127 -26 -127 7
0 30 36 50 81 28 61 41 79 53 75 8 -3 34 3 58 13 72 32 94 106 49 169 -19 27
-34 28 -68 1z m55 -45 c5 -15 7 -35 4 -45 -8 -24 -53 -59 -75 -59 -16 0 -16 4
-4 53 20 74 56 99 75 51z"/>
<path d="M13504 4227 c-61 -35 -125 -121 -109 -147 12 -20 26 -9 44 33 25 57
66 90 103 83 33 -7 39 17 9 34 -24 12 -21 12 -47 -3z"/>
<path d="M5115 4219 c-48 -27 -85 -73 -85 -105 0 -45 23 -64 73 -63 64 2 126
27 114 47 -5 6 -21 5 -49 -5 -56 -19 -102 -14 -106 12 -2 16 3 21 23 23 14 1
39 9 56 17 25 14 30 21 27 48 -3 35 -21 43 -53 26z m11 -44 c-11 -8 -25 -15
-30 -15 -6 0 -2 7 8 15 11 8 25 15 30 15 6 0 2 -7 -8 -15z"/>
<path d="M7610 4190 c-12 -45 -52 -83 -58 -54 -2 9 5 29 17 45 13 17 17 30 10
34 -27 18 -77 -71 -59 -105 14 -25 36 -25 78 0 l34 21 -7 -33 c-28 -144 -25
-138 -62 -138 -49 0 -70 -14 -92 -64 -38 -86 -36 -166 4 -166 24 0 79 63 109
126 25 53 31 60 52 56 28 -5 33 14 8 32 -14 11 -14 19 0 89 17 79 21 154 10
181 -11 29 -33 17 -44 -24z m-30 -266 c0 -3 -11 -29 -25 -58 -24 -51 -70 -105
-80 -94 -10 10 17 107 36 133 18 22 69 36 69 19z"/>
<path d="M14499 4223 c-39 -6 -63 -36 -50 -62 6 -11 11 -38 11 -61 l0 -42 -25
16 c-29 19 -55 21 -55 4 0 -16 55 -48 81 -48 24 0 33 36 26 106 l-6 54 34 0
c37 0 56 17 34 31 -8 5 -16 8 -19 7 -3 0 -17 -3 -31 -5z"/>
<path d="M3583 4184 c-26 -20 -33 -22 -33 -10 0 9 -7 16 -15 16 -15 0 -21 -25
-7 -33 4 -2 1 -2 -5 -1 -7 2 -13 -3 -13 -11 0 -8 -25 -63 -56 -121 -41 -80
-52 -110 -44 -118 16 -15 64 43 88 104 13 34 23 46 41 48 66 7 154 78 149 121
-4 38 -61 41 -105 5z m71 -18 c-11 -30 -114 -92 -114 -70 0 4 19 24 42 46 41
38 83 52 72 24z"/>
<path d="M3754 4167 c-49 -49 -54 -67 -23 -98 26 -26 92 -24 97 3 3 14 -3 17
-34 15 -54 -3 -50 14 9 43 42 20 52 30 52 50 0 20 -6 26 -28 28 -22 3 -38 -6
-73 -41z"/>
<path d="M7815 4200 c-26 -10 -61 -49 -70 -78 -12 -40 28 -72 89 -72 54 0 96
16 104 39 4 11 -2 12 -24 5 -16 -4 -51 -8 -79 -9 -39 0 -50 4 -53 18 -2 11 3
17 15 17 29 0 63 29 63 54 0 27 -16 37 -45 26z"/>
<path d="M13243 4194 c-45 -22 -103 -89 -103 -117 0 -13 9 -32 20 -42 25 -23
97 -15 146 16 39 24 44 42 12 37 -13 -2 -22 -8 -21 -15 1 -6 -3 -10 -10 -10
-7 1 -32 -2 -55 -7 -49 -9 -68 1 -58 31 5 15 13 18 34 16 59 -9 129 48 105 86
-14 22 -32 24 -70 5z m22 -44 c-10 -11 -28 -20 -39 -20 -20 0 -20 1 4 20 34
27 59 27 35 0z"/>
<path d="M13636 4195 c-71 -37 -119 -97 -108 -137 9 -35 120 -66 137 -38 3 6
15 10 26 10 10 0 19 7 19 15 0 18 -33 20 -58 4 -26 -16 -86 2 -90 27 -2 16 6
23 39 33 60 18 89 40 89 66 0 30 -21 37 -54 20z"/>
<path d="M3920 4163 c-7 -21 -19 -49 -27 -62 -10 -16 -12 -26 -4 -34 7 -7 27
6 66 42 31 28 61 51 66 51 9 0 -2 -36 -22 -68 -13 -21 -5 -56 12 -50 15 5 52
115 45 133 -8 21 -43 18 -77 -6 l-30 -21 7 26 c10 43 -22 33 -36 -11z"/>
<path d="M11399 4181 c-22 -18 -23 -21 -11 -53 24 -60 25 -67 7 -75 -13 -4
-25 2 -41 20 -23 27 -34 26 -34 -4 0 -38 80 -65 108 -37 17 17 15 53 -4 90
-13 25 -14 32 -2 39 7 5 21 6 31 3 14 -5 18 -1 15 13 -5 25 -40 28 -69 4z"/>
<path d="M7330 4153 c-48 -43 -51 -76 -7 -81 15 -2 27 1 27 5 0 17 40 8 46 -9
7 -23 36 -24 33 0 -1 9 1 29 6 45 9 33 -16 77 -45 77 -11 0 -38 -16 -60 -37z
m75 -3 c7 -11 -28 -35 -65 -45 -24 -6 -23 -5 8 24 34 33 47 37 57 21z"/>
<path d="M8761 4128 c-28 -34 -51 -68 -51 -75 0 -30 30 -9 69 47 37 53 45 59
68 54 21 -6 24 -3 21 12 -2 12 -13 20 -30 22 -22 3 -35 -7 -77 -60z"/>
<path d="M14276 4136 c-34 -50 -43 -76 -30 -89 11 -10 34 5 34 22 0 9 11 33
25 53 27 39 30 54 16 62 -4 3 -25 -18 -45 -48z"/>
<path d="M2621 4149 c-11 -19 -25 -40 -31 -47 -14 -15 -6 -42 12 -42 18 1 61
101 49 113 -6 6 -17 -3 -30 -24z"/>
<path d="M3294 4147 c-29 -26 -37 -41 -38 -71 -2 -57 19 -65 75 -28 54 37 70
66 57 105 -14 38 -49 35 -94 -6z m70 -32 c-8 -19 -73 -59 -82 -51 -12 12 23
60 48 67 31 7 41 3 34 -16z"/>
<path d="M11149 4141 c-64 -63 -49 -117 26 -94 31 10 34 9 37 -11 2 -15 10
-21 27 -21 13 0 26 6 29 13 2 6 -3 12 -12 12 -20 0 -20 1 1 45 12 25 14 38 6
43 -5 4 -13 17 -17 30 -12 35 -52 29 -97 -17z m68 2 c-4 -3 -2 -12 3 -18 7 -9
4 -17 -12 -27 -30 -19 -68 -32 -68 -22 0 12 62 74 74 74 5 0 6 -3 3 -7z"/>
<path d="M8637 4142 c-68 -27 -59 -96 11 -90 29 2 38 9 49 35 11 27 10 34 -5
51 -16 18 -19 18 -55 4z m30 -47 c-7 -17 -47 -21 -47 -5 0 11 41 31 49 24 2
-2 1 -10 -2 -19z"/>
<path d="M10724 4151 c-5 -3 -15 -15 -22 -26 -7 -11 -21 -33 -32 -50 -17 -25
-18 -32 -6 -50 28 -42 111 -24 129 28 8 24 4 33 -26 66 -19 21 -39 36 -43 32z
m34 -83 c2 -19 -2 -27 -20 -32 -53 -14 -63 1 -26 41 26 28 42 25 46 -9z"/>
<path d="M12065 4039 c-4 -6 -2 -15 5 -19 8 -5 4 -14 -16 -29 -14 -11 -31 -21
-35 -21 -5 0 -9 -7 -9 -15 0 -25 36 -17 70 15 21 20 30 37 28 52 -3 25 -32 36
-43 17z"/>
<path d="M7684 3943 c-13 -52 -76 -167 -135 -245 -85 -114 -79 -125 29 -53 37
25 75 45 85 45 16 0 17 -2 1 -31 -21 -41 -11 -82 18 -77 23 3 35 38 12 38 -11
0 -11 6 3 34 17 36 13 63 -11 72 -11 4 -46 -8 -99 -34 -5 -2 7 18 27 45 47 65
110 199 102 218 -9 24 -25 18 -32 -12z"/>
<path d="M9350 3951 c0 -28 -55 -153 -111 -252 -27 -48 -49 -89 -49 -93 0 -13
38 -5 51 10 7 9 33 30 58 46 35 25 43 27 36 12 -11 -25 -12 -73 -2 -76 15 -5
48 104 36 118 -12 15 -52 3 -81 -23 -26 -23 -23 -13 25 79 50 98 72 161 64
182 -9 22 -27 20 -27 -3z"/>
<path d="M2447 3933 c-4 -3 -7 -16 -7 -28 0 -11 -15 -66 -33 -121 -45 -132
-53 -174 -33 -174 9 0 18 12 22 28 3 15 21 74 40 132 40 125 45 198 11 163z"/>
<path d="M6936 3908 c-19 -17 -31 -44 -44 -103 -18 -77 -20 -80 -46 -77 -51 6
-129 -107 -104 -152 12 -21 57 -20 83 2 42 36 66 84 85 171 23 103 36 141 49
141 13 0 22 28 11 35 -5 3 -20 -5 -34 -17z m-80 -223 c10 -26 -65 -109 -83
-91 -10 10 19 76 40 91 27 19 36 19 43 0z"/>
<path d="M13555 3908 c-2 -7 -9 -31 -16 -53 -6 -22 -25 -64 -41 -92 -22 -40
-34 -51 -44 -45 -22 12 -74 2 -74 -14 0 -10 12 -14 39 -14 l39 0 -34 -62 c-36
-68 -41 -88 -21 -88 7 0 29 34 50 75 l37 75 45 0 c33 0 45 4 45 15 0 11 -11
15 -36 15 l-35 0 25 48 c32 60 58 131 50 143 -8 13 -24 11 -29 -3z"/>
<path d="M6571 3848 c-13 -35 -48 -116 -78 -180 -30 -65 -53 -126 -51 -135 4
-24 33 -23 31 1 0 10 16 53 37 96 37 79 53 119 51 133 -1 4 3 7 8 7 10 0 25
48 22 68 -1 6 2 12 7 12 11 0 33 46 25 54 -16 16 -30 1 -52 -56z"/>
<path d="M13711 3883 c-18 -41 -177 -276 -201 -298 -21 -19 -27 -45 -9 -45 5
0 40 24 77 53 66 51 140 93 149 83 3 -2 -11 -26 -31 -52 -35 -45 -45 -74 -27
-74 19 0 93 109 89 132 -4 32 -29 33 -90 4 -29 -14 -53 -24 -55 -22 -2 1 17
31 40 67 59 87 97 153 97 167 0 23 -27 12 -39 -15z"/>
<path d="M9809 3872 c-12 -36 -33 -74 -91 -167 -27 -42 -48 -85 -48 -95 0 -32
41 -25 91 15 42 33 44 34 49 13 7 -29 32 -42 63 -34 26 6 39 36 16 36 -5 0 -7
-5 -3 -12 5 -8 2 -9 -10 -5 -10 4 -22 7 -27 7 -4 0 -6 13 -3 30 9 44 -17 49
-69 14 -71 -49 -70 -49 -52 -12 10 18 27 47 40 63 26 34 85 149 85 165 0 22
-32 8 -41 -18z"/>
<path d="M11296 3870 c-8 -17 -10 -27 -4 -24 7 5 9 1 5 -9 -12 -32 9 -17 26
17 24 52 -1 67 -27 16z"/>
<path d="M11190 3867 c0 -21 -89 -199 -105 -211 -18 -13 -9 -56 11 -56 8 0 14
4 14 10 0 5 25 60 55 122 57 117 66 148 40 148 -8 0 -15 -6 -15 -13z"/>
<path d="M11060 3815 c0 -17 5 -25 13 -22 6 2 12 12 12 22 0 10 -6 20 -12 23
-8 2 -13 -6 -13 -23z"/>
<path d="M11235 3745 c-39 -77 -59 -171 -35 -163 8 2 19 29 26 60 7 30 27 79
43 107 36 60 35 57 17 64 -10 4 -26 -17 -51 -68z"/>
<path d="M9500 3795 c0 -8 7 -15 15 -15 8 0 15 7 15 15 0 8 -7 15 -15 15 -8 0
-15 -7 -15 -15z"/>
<path d="M3642 3778 c-3 -13 -20 -52 -39 -87 -18 -35 -33 -68 -33 -72 0 -23
32 -4 70 41 43 52 97 96 106 87 3 -3 -2 -27 -12 -54 -16 -46 -15 -83 3 -83 10
0 35 93 37 135 1 25 -3 30 -25 33 -17 2 -38 -7 -60 -25 -27 -23 -32 -25 -25
-8 18 45 18 55 1 55 -9 0 -19 -10 -23 -22z"/>
<path d="M3964 3790 c-11 -4 -34 -25 -52 -46 -17 -22 -38 -47 -47 -56 -8 -10
-15 -29 -15 -43 0 -14 -9 -58 -20 -98 -11 -39 -21 -74 -21 -77 -1 -3 -4 -11
-7 -18 -2 -7 -2 -15 1 -19 15 -14 35 11 66 85 27 63 41 83 68 97 87 47 129
136 81 169 -25 18 -25 18 -54 6z m42 -44 c7 -19 -18 -56 -57 -86 -28 -20 -31
-21 -24 -4 4 10 10 33 13 49 2 17 9 36 14 43 14 16 47 15 54 -2z"/>
<path d="M4985 3786 c-41 -18 -85 -61 -85 -83 0 -10 -7 -27 -15 -37 -18 -24
-20 -66 -2 -66 6 0 22 24 35 54 37 85 102 134 135 101 20 -19 37 -19 37 -1 0
17 -38 46 -60 46 -8 -1 -28 -7 -45 -14z"/>
<path d="M10749 3796 c-3 -3 -26 -7 -51 -10 -54 -5 -68 -11 -68 -32 0 -23 23
-26 63 -9 68 28 75 19 24 -33 -73 -74 -56 -107 33 -62 49 25 48 25 52 -2 4
-31 32 -34 67 -8 27 18 61 70 61 92 0 19 -31 6 -44 -20 -8 -15 -23 -36 -35
-46 -21 -19 -21 -19 -21 12 0 39 -14 41 -73 11 l-42 -21 43 45 c46 47 53 80
16 85 -11 2 -22 1 -25 -2z"/>
<path d="M2519 3769 c-15 -15 -19 -28 -14 -49 11 -48 9 -88 -5 -105 -17 -21
-30 -19 -30 6 0 24 -23 21 -28 -5 -5 -24 16 -46 43 -46 40 0 65 54 58 123 -6
61 -6 61 50 57 39 -2 35 26 -4 34 -45 9 -47 8 -70 -15z"/>
<path d="M4109 3788 c-1 -1 -3 -23 -4 -47 -2 -30 -13 -58 -35 -89 -22 -32 -28
-48 -21 -55 8 -8 20 -1 41 23 16 19 32 42 35 50 3 8 20 26 37 39 l30 24 -21
-41 c-22 -43 -27 -72 -13 -72 5 0 25 15 44 34 46 45 78 62 78 42 0 -8 -5 -27
-10 -42 -21 -53 13 -86 64 -63 36 17 33 31 -6 27 -29 -2 -32 0 -29 17 3 11 5
38 5 60 1 36 -1 40 -24 39 -14 -1 -33 -4 -42 -9 -14 -5 -18 -2 -18 13 0 27
-19 32 -52 16 -25 -13 -27 -12 -30 8 -2 18 -25 38 -29 26z"/>
<path d="M5437 3756 c-19 -13 -43 -26 -52 -28 -10 -2 -23 -22 -32 -48 -8 -25
-35 -89 -60 -142 -37 -78 -50 -97 -67 -97 -170 3 -282 -7 -290 -26 -4 -10 23
-12 137 -8 78 3 148 10 155 16 8 6 17 6 26 -2 18 -15 138 -12 148 3 5 8 8 7 8
-1 0 -16 34 -17 61 -3 13 8 19 7 19 0 0 -7 24 -10 68 -9 37 1 83 -2 102 -5 36
-7 71 6 56 21 -4 4 -83 9 -174 10 -92 1 -182 5 -199 9 -27 5 -33 3 -33 -10 0
-9 -5 -16 -11 -16 -6 0 -8 7 -4 18 56 147 56 148 84 145 58 -8 151 77 151 137
0 26 -26 60 -47 60 -6 0 -26 -11 -46 -24z m63 -35 c0 -25 -44 -78 -82 -97 -36
-18 -38 -17 -31 19 12 61 113 131 113 78z"/>
<path d="M12341 3763 c-41 -21 -84 -84 -84 -125 0 -39 33 -68 77 -68 61 0 131
29 113 47 -3 3 -28 -1 -55 -7 -27 -7 -61 -10 -76 -6 -23 6 -27 11 -24 38 3 27
7 31 38 34 61 7 115 59 91 88 -17 20 -37 20 -80 -1z m35 -39 c-23 -16 -50 -19
-41 -3 8 12 48 29 55 22 3 -3 -4 -11 -14 -19z"/>
<path d="M5134 3741 c-46 -32 -81 -80 -66 -90 5 -3 12 -16 16 -29 14 -45 89
-58 161 -28 42 18 48 41 8 32 -73 -18 -119 -18 -132 -2 -12 14 -10 16 11 16
25 0 67 27 101 64 21 24 21 30 1 50 -23 24 -56 19 -100 -13z m76 -10 c0 -15
-60 -61 -81 -61 -29 0 -23 17 18 45 39 26 63 32 63 16z"/>
<path d="M8895 3756 c-47 -14 -62 -46 -21 -46 14 0 26 4 26 9 0 10 69 25 77
17 8 -8 -25 -56 -69 -98 -21 -21 -38 -42 -38 -48 0 -18 35 -10 70 15 l34 25
12 -29 c20 -47 85 -57 130 -18 21 18 28 35 32 75 4 42 2 52 -10 52 -11 0 -17
-14 -21 -47 -6 -52 -28 -76 -67 -71 -22 3 -25 9 -28 47 -3 37 -6 42 -23 38
-17 -5 -18 -3 -4 16 8 12 15 31 15 43 0 35 -41 43 -115 20z"/>
<path d="M11900 3752 c-43 -21 -82 -101 -60 -126 21 -27 57 -18 100 22 43 42
52 79 24 106 -19 19 -20 19 -64 -2z m45 -51 c-7 -23 -63 -67 -72 -57 -4 4 -2
19 3 34 7 19 17 28 37 30 15 2 27 8 27 14 0 6 3 9 6 5 3 -3 3 -15 -1 -26z"/>
<path d="M13904 3757 c-12 -7 -38 -26 -58 -44 -65 -58 -41 -123 45 -123 61 0
149 27 149 45 0 19 -6 19 -62 -1 -51 -17 -129 -16 -135 3 -2 6 11 14 29 18 79
17 110 51 83 91 -18 27 -22 28 -51 11z m24 -39 c-3 -7 -20 -18 -39 -25 l-34
-14 28 26 c30 27 51 33 45 13z"/>
<path d="M2171 3725 c-52 -60 -35 -120 29 -100 15 5 18 3 14 -9 -7 -19 13 -56
31 -56 12 0 14 9 10 38 -4 26 0 48 14 75 15 30 17 39 6 43 -7 3 -15 14 -18 25
-8 32 -51 24 -86 -16z m62 -15 c3 -14 -3 -26 -20 -40 -46 -36 -58 -19 -22 31
24 34 35 36 42 9z"/>
<path d="M5655 3750 c-30 -11 -95 -87 -95 -109 0 -44 68 -73 117 -49 58 28 66
85 20 139 -17 20 -27 25 -42 19z m29 -59 c36 -40 -14 -92 -69 -71 -31 12 -31
21 1 59 30 36 44 38 68 12z"/>
<path d="M12084 3743 c-3 -10 -16 -38 -28 -63 -13 -25 -21 -51 -18 -59 2 -8 0
-11 -6 -7 -12 7 -112 -152 -112 -178 0 -9 7 -16 15 -16 8 0 15 4 15 8 0 4 16
32 35 61 19 30 31 59 28 65 -3 6 -3 8 2 4 4 -4 16 2 26 14 15 17 19 18 19 5 0
-54 104 -7 140 63 11 22 18 40 15 40 -3 0 2 11 11 26 21 31 7 49 -29 40 -34
-8 -118 -85 -94 -86 10 0 33 11 51 25 18 14 36 25 40 25 14 0 -35 -79 -65
-105 -29 -23 -33 -25 -41 -10 -6 10 -6 21 2 30 8 10 8 14 -2 18 -10 3 -9 12 5
37 9 17 17 40 17 50 0 26 -19 35 -26 13z"/>
<path d="M12541 3684 c-39 -59 -47 -76 -35 -81 15 -5 58 27 97 75 24 29 35 21
13 -10 -33 -47 -10 -96 39 -84 14 4 25 11 25 17 0 6 9 8 20 4 11 -3 20 -2 20
4 0 17 -15 20 -53 11 -35 -8 -37 -7 -31 13 4 11 15 34 25 51 35 58 13 87 -38
51 -20 -14 -21 -13 -16 5 11 42 -18 17 -66 -56z"/>
<path d="M7064 3731 c-35 -21 -74 -71 -74 -94 0 -24 21 -25 69 -5 38 16 42 16
37 2 -9 -23 3 -62 21 -69 22 -8 28 1 16 27 -7 16 -6 34 3 60 7 20 10 47 7 60
-4 18 -3 20 6 8 7 -10 11 -11 11 -3 0 13 -31 33 -52 33 -7 0 -27 -9 -44 -19z
m56 -20 c0 -11 -45 -44 -73 -54 -28 -10 -3 29 31 47 32 18 42 19 42 7z"/>
<path d="M11014 3733 c-12 -42 -31 -68 -47 -65 -22 4 -35 -27 -16 -39 8 -5 19
-9 25 -9 16 0 64 72 64 97 0 28 -19 40 -26 16z"/>
<path d="M2715 3726 c-42 -18 -89 -88 -81 -120 19 -76 131 -44 165 47 15 38
14 44 -9 67 -23 23 -34 24 -75 6z m55 -52 c0 -28 -49 -84 -73 -84 -8 0 -20 7
-27 15 -10 12 -10 18 1 33 35 46 54 62 76 62 18 0 23 -5 23 -26z"/>
<path d="M7240 3712 c-24 -19 -24 -21 -11 -71 16 -64 4 -86 -42 -77 -23 5 -28
3 -25 -12 7 -39 99 -17 111 27 2 10 -2 37 -10 61 -16 46 -9 60 30 60 10 0 17
6 15 13 -7 20 -43 19 -68 -1z"/>
<path d="M9421 3687 c-23 -48 -26 -63 -11 -72 9 -5 60 83 60 105 0 26 -30 6
-49 -33z"/>
<path d="M6627 3682 c-9 -10 -17 -22 -17 -25 0 -4 -9 -16 -20 -27 -24 -24 -25
-43 -4 -64 16 -17 74 -22 74 -7 0 5 8 11 18 14 32 8 33 44 4 79 -15 18 -26 34
-24 37 9 15 -17 9 -31 -7z m41 -69 c3 -17 -3 -24 -23 -29 -36 -9 -49 6 -29 34
19 28 48 25 52 -5z"/>
<path d="M9529 3670 c-45 -23 -54 -45 -34 -76 17 -27 47 -37 95 -32 50 5 51
28 2 28 -77 0 -96 27 -41 55 29 15 32 15 50 -1 27 -24 44 -6 23 24 -18 27 -47
27 -95 2z"/>
<path d="M12726 3625 c4 -8 10 -12 15 -9 11 6 2 24 -11 24 -5 0 -7 -7 -4 -15z"/>
<path d="M8008 3553 c-9 -20 -21 -28 -38 -28 -38 0 -32 -29 7 -33 35 -4 63 25
63 65 0 31 -16 29 -32 -4z"/>
<path d="M11385 3448 c-77 -157 -99 -188 -134 -188 -40 0 -61 -9 -61 -26 0
-11 9 -13 41 -8 l41 7 -21 -41 c-25 -48 -27 -82 -6 -82 8 0 15 6 15 13 0 6 11
35 24 64 23 49 27 52 65 55 50 4 59 22 14 26 -18 2 -33 5 -33 7 0 2 29 58 65
124 36 65 65 126 65 135 0 40 -29 7 -75 -86z"/>
<path d="M11550 3512 c0 -20 -12 -45 -118 -237 -40 -71 -72 -136 -72 -142 0
-26 30 -11 66 33 20 25 46 50 57 56 21 11 21 3 2 -59 -5 -17 -3 -23 8 -23 19
0 39 50 35 86 -4 36 -40 44 -70 17 -21 -18 -21 -18 -8 7 7 14 37 67 67 118 59
100 78 162 49 162 -9 0 -16 -8 -16 -18z"/>
<path d="M7714 3463 c-4 -16 -20 -60 -36 -100 -30 -74 -53 -93 -114 -93 -13 0
-26 -5 -30 -11 -12 -19 10 -28 49 -20 20 5 37 7 37 5 0 -2 -13 -25 -30 -51
-33 -52 -36 -63 -17 -63 7 0 29 25 48 56 43 70 56 84 78 84 31 0 81 22 75 32
-4 6 -23 7 -46 4 -36 -6 -40 -5 -33 11 29 71 55 156 50 164 -11 17 -25 9 -31
-18z"/>
<path d="M10710 3448 c-25 -19 -57 -58 -76 -93 -25 -46 -40 -61 -60 -65 -35
-6 -42 -28 -11 -32 l25 -3 -29 -60 c-15 -32 -26 -61 -24 -63 12 -13 38 13 55
55 30 73 34 78 74 83 46 6 52 24 9 28 l-33 3 19 38 c26 50 96 112 117 104 12
-4 15 -1 12 13 -5 30 -32 27 -78 -8z"/>
<path d="M13331 3383 c-18 -38 -53 -103 -77 -145 -47 -83 -56 -122 -26 -116
10 2 18 14 20 31 3 21 13 31 48 47 27 13 53 18 69 14 25 -6 65 -59 65 -87 0
-21 20 -33 30 -17 16 26 -45 130 -76 130 -29 0 -12 18 52 56 63 37 84 58 71
70 -3 4 -45 -18 -94 -48 -48 -30 -94 -58 -101 -62 -15 -9 62 149 78 159 17 10
11 35 -8 35 -12 0 -28 -22 -51 -67z"/>
<path d="M4795 3431 c-10 -17 21 -29 72 -29 36 -1 53 4 57 14 4 10 -2 14 -20
14 -14 0 -22 -4 -19 -10 3 -5 2 -10 -4 -10 -5 0 -11 4 -13 8 -4 12 -66 23 -73
13z"/>
<path d="M7486 3433 c-3 -4 -6 -17 -6 -30 0 -26 27 -32 36 -8 6 16 -19 48 -30
38z"/>
<path d="M9153 3365 c-11 -8 -35 -38 -54 -67 -18 -29 -34 -55 -36 -57 -1 -2
-9 2 -17 8 -16 13 -32 -2 -21 -20 16 -26 10 -67 -22 -140 -19 -44 -31 -84 -28
-89 14 -23 32 -5 70 72 34 71 44 83 70 88 71 15 127 87 120 156 -5 60 -38 80
-82 49z m51 -40 c12 -47 -47 -135 -91 -135 -18 0 -7 50 15 68 11 8 12 12 3 12
-15 0 10 46 37 68 23 17 29 15 36 -13z"/>
<path d="M6396 3285 c-45 -98 -61 -143 -54 -151 13 -13 31 11 64 82 34 74 74
114 117 114 9 0 17 5 17 10 0 18 -30 23 -58 11 -18 -9 -28 -9 -30 -2 -8 24
-23 7 -56 -64z"/>
<path d="M8070 3341 c-19 -11 -34 -24 -32 -30 1 -6 -4 -11 -11 -11 -15 0 -63
-82 -69 -116 -6 -42 17 -28 43 26 34 70 77 111 121 115 44 4 42 3 28 20 -17
20 -38 19 -80 -4z"/>
<path d="M9349 3345 c-31 -17 -91 -103 -87 -124 6 -28 34 -36 69 -18 33 16 34
16 39 -6 3 -12 13 -23 21 -25 11 -2 15 8 15 40 0 24 4 53 8 66 11 29 -17 30
-38 1 -8 -12 -28 -30 -45 -40 -41 -25 -41 -5 1 45 26 32 35 37 59 32 36 -7 46
8 17 28 -27 19 -26 19 -59 1z"/>
<path d="M7252 3322 c-40 -20 -50 -51 -26 -91 15 -25 15 -32 4 -46 -7 -9 -20
-13 -31 -10 -23 8 -37 -21 -20 -38 14 -14 70 13 89 44 11 17 10 26 -9 56 -22
35 -22 36 -4 49 10 8 34 14 52 14 23 0 33 5 33 15 0 8 -6 15 -14 15 -8 0 -20
2 -28 4 -7 3 -28 -3 -46 -12z"/>
<path d="M9534 3315 c-24 -14 -47 -38 -55 -56 -12 -29 -11 -33 10 -50 13 -11
33 -19 46 -19 22 0 23 -1 10 -47 -7 -27 -16 -61 -20 -77 -5 -22 -9 -26 -18
-17 -17 17 -65 13 -86 -8 -23 -23 -41 -81 -41 -133 0 -53 8 -68 40 -68 32 0
82 51 109 110 11 24 21 34 34 32 21 -4 22 11 2 28 -11 9 -14 23 -9 49 9 56 37
144 50 161 21 28 25 79 7 100 -22 26 -29 25 -79 -5z m42 -60 c-12 -29 -20 -36
-38 -33 -35 5 -29 38 12 66 40 27 47 18 26 -33z m-76 -240 c7 -8 10 -25 6 -38
-8 -35 -64 -107 -82 -107 -14 0 -16 9 -12 54 7 86 53 133 88 91z"/>
<path d="M13781 3318 c-50 -26 -67 -47 -58 -73 6 -13 17 -16 51 -14 44 4 44 4
40 -26 -2 -16 -6 -65 -10 -107 -6 -76 -16 -103 -28 -73 -8 23 -84 19 -126 -6
-48 -29 -70 -58 -70 -96 0 -43 41 -76 84 -67 56 11 109 48 138 94 24 39 29 61
37 170 6 69 13 136 17 150 4 17 -1 33 -13 48 l-18 23 -44 -23z m22 -39 c-11
-12 -29 -19 -39 -17 -16 3 -14 7 11 21 41 23 53 21 28 -4z m-29 -282 c17 -13
17 -16 -13 -49 -54 -62 -142 -79 -149 -30 -9 60 109 117 162 79z"/>
<path d="M6600 3304 c-41 -23 -84 -60 -86 -74 0 -3 -4 -22 -8 -43 -13 -60 29
-88 93 -61 50 21 39 36 -21 28 -50 -7 -51 -7 -45 17 4 13 7 27 7 31 0 3 24 17
53 31 28 13 63 33 77 44 21 18 22 23 11 37 -18 21 -28 20 -81 -10z"/>
<path d="M6821 3295 c-24 -19 -49 -35 -55 -35 -12 0 -126 -237 -126 -263 0
-33 31 -17 49 26 10 23 31 73 47 111 22 51 43 81 83 118 29 27 56 47 58 44 3
-2 -10 -32 -27 -65 -31 -58 -53 -75 -63 -48 -4 9 -7 9 -18 -1 -12 -11 -10 -16
10 -33 13 -10 29 -19 37 -19 19 0 95 140 92 170 -4 37 -36 36 -87 -5z"/>
<path d="M9708 3291 c-51 -45 -63 -82 -42 -123 19 -37 49 -51 93 -43 44 8 111
50 111 70 0 21 -24 19 -45 -5 -10 -11 -36 -25 -58 -31 -33 -9 -42 -8 -58 7
-29 26 -23 41 19 48 79 12 126 107 56 114 -23 2 -40 -6 -76 -37z m82 -1 c0
-12 -59 -50 -78 -50 -19 0 -5 19 32 41 35 21 46 24 46 9z"/>
<path d="M10420 3303 c0 -12 -6 -26 -13 -30 -24 -14 -47 -57 -47 -85 0 -54 80
-45 123 14 17 23 19 34 11 65 -7 31 -13 38 -34 38 -14 0 -28 5 -32 10 -4 6 -8
0 -8 -12z m47 -49 c8 -21 -27 -66 -55 -70 -30 -5 -28 17 4 55 29 35 42 38 51
15z"/>
<path d="M12665 3293 c-22 -15 -41 -30 -43 -35 -2 -4 -10 -8 -18 -8 -7 0 -21
-17 -29 -37 -9 -21 -36 -72 -61 -114 -24 -42 -44 -83 -44 -92 0 -30 26 -18 46
20 41 79 59 101 77 91 37 -20 96 21 132 93 28 54 31 79 13 97 -17 17 -29 15
-73 -15z m50 -34 c-20 -62 -88 -132 -109 -112 -18 18 -3 54 40 92 52 46 79 54
69 20z"/>
<path d="M13995 3306 c-50 -22 -67 -48 -63 -97 3 -40 7 -46 41 -63 32 -15 48
-17 90 -10 71 13 79 39 8 31 -65 -8 -111 7 -111 37 0 17 6 22 31 24 49 4 89
29 89 56 0 36 -33 45 -85 22z m41 -31 c-19 -15 -46 -20 -46 -10 0 6 40 24 55
24 6 0 1 -6 -9 -14z"/>
<path d="M7010 3274 c-46 -32 -60 -52 -60 -86 0 -35 30 -52 76 -43 56 10 90
84 60 130 -20 31 -32 31 -76 -1z m52 -49 c-4 -23 -38 -55 -58 -55 -26 0 -27
30 -3 56 28 30 66 29 61 -1z"/>
<path d="M7818 3254 c-57 -70 -46 -118 20 -93 41 16 62 39 62 68 0 26 -24 71
-38 71 -4 0 -24 -21 -44 -46z m52 -27 c0 -14 -46 -44 -55 -36 -2 3 2 15 11 27
17 24 44 30 44 9z"/>
<path d="M12822 3270 c-72 -52 -94 -128 -34 -118 15 3 36 9 46 13 16 7 18 5
13 -10 -8 -20 8 -45 30 -45 11 0 14 7 10 22 -3 11 1 34 9 49 19 37 18 84 -2
103 -21 21 -25 21 -72 -14z m56 -27 c-3 -17 -78 -66 -87 -57 -7 7 62 74 77 74
7 0 12 -8 10 -17z"/>
<path d="M13554 3266 c-44 -44 -38 -71 15 -62 35 5 36 5 36 -27 0 -22 5 -32
15 -32 9 0 14 7 12 18 -2 10 6 34 17 53 25 42 26 54 6 54 -8 0 -15 7 -15 15 0
28 -50 17 -86 -19z m61 -9 c-11 -8 -28 -17 -37 -20 -15 -5 -16 -4 -5 13 6 11
23 20 37 20 24 0 24 -1 5 -13z"/>
<path d="M4756 3273 c-3 -7 0 -15 5 -19 6 -3 137 -6 292 -5 155 1 363 -3 461
-8 99 -6 184 -7 189 -4 43 26 -165 41 -665 45 -211 2 -279 0 -282 -9z"/>
<path d="M8134 3282 c-16 -10 -23 -62 -13 -89 5 -14 17 -23 30 -23 19 0 19 -2
-9 -37 -17 -21 -69 -80 -115 -131 -119 -129 -165 -202 -128 -202 4 0 22 21 39
48 17 26 66 86 109 132 43 47 105 117 137 155 32 39 69 78 82 88 26 20 32 47
11 47 -8 0 -22 -9 -32 -20 -10 -11 -26 -20 -35 -20 -10 0 -23 -7 -30 -15 -22
-27 -33 -17 -27 25 5 41 -1 54 -19 42z"/>
<path d="M11638 3272 c-40 -24 -64 -78 -48 -108 28 -50 169 -69 178 -23 2 13
-8 15 -55 11 -88 -6 -129 36 -52 53 45 10 72 40 59 65 -13 24 -46 25 -82 2z
m48 -21 c-3 -5 -16 -11 -28 -14 -22 -6 -22 -5 -4 8 22 17 40 20 32 6z"/>
<path d="M13033 3240 c-66 -61 -57 -103 24 -116 36 -5 43 -3 53 16 10 19 9 21
-12 20 -50 -4 -78 0 -78 13 0 17 77 87 86 78 4 -3 5 1 2 9 -8 27 -32 21 -75
-20z"/>
<path d="M7356 3219 c-27 -53 -33 -79 -17 -79 11 0 71 101 71 119 0 28 -30 6
-54 -40z"/>
<path d="M4967 3102 c-9 -10 -17 -32 -17 -48 0 -16 -34 -107 -75 -203 -41 -96
-75 -180 -75 -187 0 -28 26 -12 93 57 38 39 70 69 72 67 2 -2 -1 -23 -7 -46
-6 -23 -7 -50 -3 -59 6 -17 7 -17 17 1 17 30 36 124 27 137 -10 17 -46 1 -98
-46 l-39 -36 58 141 c72 171 87 217 73 231 -6 6 -15 3 -26 -9z"/>
<path d="M3012 3074 c-46 -19 -90 -87 -120 -186 l-27 -88 -43 0 c-52 0 -55
-24 -3 -26 18 -1 34 -4 36 -6 2 -2 -9 -30 -26 -62 -16 -33 -27 -61 -25 -64 14
-13 37 13 62 67 20 43 34 61 47 61 24 0 57 18 57 31 0 7 -13 9 -36 4 -31 -5
-35 -4 -30 12 3 10 8 32 12 48 13 56 51 130 82 159 25 23 37 28 61 23 32 -7
45 2 35 26 -7 18 -41 19 -82 1z"/>
<path d="M2527 3053 c-32 -3 -47 -8 -44 -16 5 -15 376 -17 374 -2 -1 6 -9 13
-17 17 -15 7 -227 7 -313 1z"/>
<path d="M2874 3039 c-8 -14 11 -33 25 -25 6 4 11 11 11 16 0 13 -29 20 -36 9z"/>
<path d="M1957 3033 c-2 -4 -10 -25 -17 -47 l-12 -39 -59 7 c-73 7 -77 -6 -17
-62 l41 -39 -19 -34 c-11 -19 -32 -40 -48 -47 -37 -18 -33 -56 7 -60 23 -3 30
2 42 32 8 19 24 40 34 46 17 9 24 5 48 -25 36 -44 58 -47 49 -5 -18 90 -22 81
54 143 66 54 87 87 57 87 -8 0 -40 -9 -72 -20 -32 -11 -60 -20 -62 -20 -3 0
-3 19 -2 42 3 38 -11 63 -24 41z m77 -114 c-10 -11 -27 -25 -36 -30 -14 -8
-18 -6 -18 9 0 16 21 29 69 41 2 1 -4 -8 -15 -20z m-124 -15 c0 -14 -3 -14
-15 -4 -8 7 -15 14 -15 16 0 2 7 4 15 4 8 0 15 -7 15 -16z m36 -52 c-12 -11
-17 7 -9 34 l8 29 3 -28 c2 -16 1 -31 -2 -35z"/>
<path d="M15012 3028 c-5 -7 -19 -36 -30 -65 -15 -40 -17 -53 -7 -57 17 -6 71
112 58 125 -6 6 -14 5 -21 -3z"/>
<path d="M2677 3013 c-3 -5 -15 -42 -27 -83 -12 -41 -38 -112 -58 -157 -40
-93 -29 -87 -162 -88 -42 0 -55 -4 -55 -15 0 -9 10 -15 23 -16 12 -1 22 3 22
9 0 5 7 4 15 -3 11 -9 34 -9 105 0 50 6 113 9 139 5 30 -4 51 -3 55 4 10 15
-10 23 -75 28 -32 3 -59 8 -59 10 0 2 13 35 30 74 32 75 70 196 70 223 0 16
-15 22 -23 9z"/>
<path d="M10414 3003 c-3 -10 -18 -46 -35 -80 -27 -60 -31 -63 -64 -63 -24 0
-35 -5 -35 -15 0 -9 9 -15 25 -15 31 0 31 -6 -1 -70 -20 -41 -23 -54 -14 -63
10 -9 14 -9 17 1 3 7 19 41 36 75 31 59 34 62 72 65 59 4 87 11 80 22 -3 6
-28 10 -55 10 l-49 0 24 53 c13 28 25 61 27 71 4 25 -20 33 -28 9z"/>
<path d="M12010 2986 c0 -13 20 -26 41 -26 15 0 10 27 -7 34 -24 9 -34 7 -34
-8z"/>
<path d="M10880 2969 c0 -12 -27 -65 -59 -118 -74 -120 -101 -174 -101 -201 0
-37 18 -21 47 43 16 34 53 100 82 147 57 92 76 150 47 150 -10 0 -16 -8 -16
-21z"/>
<path d="M7212 2958 c0 -13 -17 -61 -37 -108 -66 -151 -77 -182 -66 -193 14
-14 31 1 31 26 0 30 9 41 47 61 44 22 70 20 98 -8 22 -22 24 -31 18 -72 -5
-38 -3 -46 8 -42 8 2 18 22 24 42 12 52 -16 106 -63 120 l-32 9 67 49 c38 27
83 57 101 66 17 8 32 22 32 29 0 29 -33 14 -152 -73 -48 -35 -90 -64 -92 -64
-3 0 6 31 19 69 28 77 31 111 11 111 -7 0 -14 -10 -14 -22z"/>
<path d="M9864 2966 c-10 -8 -16 -18 -11 -22 10 -10 59 8 65 24 5 17 -30 15
-54 -2z"/>
<path d="M11289 2973 c-1 -5 -2 -15 -3 -23 -1 -8 -12 -43 -26 -77 -21 -54 -28
-61 -46 -57 -37 9 -92 -21 -111 -61 -16 -33 -16 -39 -2 -63 8 -15 25 -28 37
-30 41 -6 72 26 113 116 22 48 47 103 57 122 19 40 18 80 -4 80 -8 0 -15 -3
-15 -7z m-74 -193 c6 -10 -29 -68 -50 -82 -17 -12 -32 -9 -39 8 -15 38 69 107
89 74z"/>
<path d="M13394 2906 c-22 -48 -41 -77 -55 -81 -11 -4 -36 -20 -55 -37 -33
-29 -36 -30 -53 -14 -11 10 -17 25 -14 37 4 12 0 19 -9 19 -20 0 -43 -28 -59
-72 -10 -30 -10 -39 0 -52 16 -19 52 -21 69 -4 9 9 13 7 18 -5 3 -9 16 -17 29
-17 30 0 109 88 125 138 7 20 25 62 40 93 27 54 29 69 8 69 -5 0 -25 -33 -44
-74z m-64 -135 c-5 -11 -24 -30 -41 -42 -30 -21 -31 -21 -20 -1 9 16 58 60 69
62 1 0 -2 -9 -8 -19z m-124 -40 c-11 -18 -39 -13 -32 5 3 9 6 21 6 27 0 6 7 4
16 -5 9 -9 13 -21 10 -27z"/>
<path d="M14636 2953 c-2 -10 -11 -44 -18 -75 -10 -48 -16 -57 -30 -52 -21 6
-64 -36 -85 -84 -17 -40 -3 -72 31 -72 43 0 78 61 112 195 13 50 24 93 24 98
0 15 -29 6 -34 -10z m-46 -172 c0 -16 -41 -81 -51 -81 -16 0 -9 37 12 64 21
26 39 34 39 17z"/>
<path d="M10750 2938 c0 -11 -27 -72 -60 -135 -62 -118 -77 -168 -50 -168 8 0
16 10 18 23 2 13 30 74 63 136 59 113 73 166 44 166 -9 0 -15 -9 -15 -22z"/>
<path d="M14911 2812 c-40 -81 -49 -130 -26 -135 5 -1 12 12 16 28 3 17 22 64
42 105 33 69 37 90 18 90 -4 0 -26 -40 -50 -88z"/>
<path d="M5280 2791 c-22 -44 -44 -82 -50 -86 -6 -4 -10 11 -11 39 -2 62 -2
63 -16 78 -15 14 -16 11 -13 -67 1 -45 7 -65 21 -80 20 -20 20 -20 43 8 13 16
36 55 51 88 16 32 35 59 42 59 7 0 13 4 13 8 0 10 -22 32 -32 32 -4 0 -26 -36
-48 -79z"/>
<path d="M11891 2835 c-17 -20 -34 -47 -37 -60 -7 -27 10 -55 32 -55 21 0 28
22 11 35 -14 10 -14 14 2 38 10 15 26 33 36 41 17 12 14 36 -5 36 -4 0 -22
-16 -39 -35z"/>
<path d="M10154 2851 c6 -8 1 -10 -17 -6 -19 5 -29 0 -46 -22 -22 -27 -23 -35
-5 -105 6 -25 4 -28 -20 -28 -14 0 -26 5 -26 10 0 6 -7 10 -15 10 -8 0 -15 -6
-15 -13 0 -22 22 -37 55 -37 53 0 69 37 43 96 -12 25 -10 29 25 59 26 23 34
35 26 41 -8 4 -9 3 -5 -5z"/>
<path d="M12997 2853 c-4 -3 -7 -13 -7 -22 0 -9 -18 -40 -40 -69 -56 -73 -31
-79 55 -12 36 29 68 50 71 48 2 -3 0 -17 -6 -32 -13 -36 -13 -79 1 -74 12 4
49 110 49 141 0 25 -28 21 -68 -9 l-34 -27 7 32 c5 23 3 31 -8 31 -7 0 -17 -3
-20 -7z"/>
<path d="M14114 2843 c-4 -10 -18 -41 -31 -70 -16 -32 -23 -59 -18 -70 6 -17
8 -16 23 5 10 13 31 40 48 60 l31 35 -5 -31 c-5 -40 12 -42 50 -5 l28 27 0
-25 c0 -21 27 -74 30 -59 1 3 3 38 6 78 5 83 -4 90 -47 40 -23 -28 -27 -29
-22 -11 7 31 -22 41 -49 17 -20 -19 -21 -19 -14 4 6 16 3 22 -9 22 -8 0 -18
-8 -21 -17z"/>
<path d="M15068 2852 c-33 -13 -87 -72 -93 -104 -10 -45 30 -80 88 -76 55 4
62 28 9 28 -34 0 -72 19 -72 35 0 2 21 10 47 19 57 19 83 42 83 71 0 30 -26
41 -62 27z m16 -46 c-10 -8 -27 -17 -37 -20 -15 -4 -16 -2 -5 11 13 16 50 33
57 27 3 -2 -4 -11 -15 -18z"/>
<path d="M15265 2830 l-27 -28 20 -45 c15 -33 17 -48 9 -56 -16 -16 -24 -14
-46 11 -18 19 -21 19 -27 5 -10 -28 3 -46 41 -53 30 -5 41 -3 58 15 20 19 20
24 8 53 -25 60 -20 81 19 94 44 14 45 28 3 31 -22 1 -38 -7 -58 -27z"/>
<path d="M5419 2818 c-54 -42 -62 -76 -25 -113 21 -21 34 -26 69 -23 28 2 41
7 39 16 -2 10 2 11 15 4 17 -10 73 3 73 17 0 17 -15 19 -58 5 -58 -17 -94 -18
-110 -2 -18 18 -15 25 18 31 38 8 72 42 68 70 -5 34 -40 32 -89 -5z m42 -18
c-13 -11 -28 -20 -35 -20 -6 0 3 9 19 20 38 25 47 25 16 0z"/>
<path d="M9967 2833 c-11 -11 -17 -13 -17 -5 0 27 -28 8 -72 -52 -27 -34 -48
-68 -48 -74 0 -21 26 -13 56 19 16 17 46 45 68 62 38 30 38 30 31 6 -4 -13
-13 -31 -20 -39 -18 -21 -22 -52 -8 -57 16 -6 78 119 70 141 -8 21 -38 20 -60
-1z"/>
<path d="M11982 2789 c-29 -33 -52 -65 -52 -70 0 -18 46 -9 83 16 l37 26 0
-24 c0 -14 7 -30 15 -37 19 -16 65 -5 65 16 0 12 -6 15 -26 10 -28 -7 -28 -3
-8 67 8 24 -21 22 -59 -5 l-32 -23 24 33 c15 21 20 37 14 43 -6 6 -29 -13 -61
-52z"/>
<path d="M10515 2822 c-45 -29 -78 -69 -72 -86 8 -20 40 -20 78 0 37 19 47 12
29 -20 -14 -27 -8 -56 13 -56 15 0 40 102 35 146 -4 36 -39 43 -83 16z m55
-20 c0 -4 -21 -18 -46 -30 -50 -25 -50 -12 0 19 34 21 46 24 46 11z"/>
<path d="M14695 2810 c-22 -43 -19 -77 9 -95 22 -15 27 -15 55 -1 16 9 37 26
45 38 20 29 21 68 1 68 -8 0 -15 -9 -15 -20 0 -26 -34 -60 -60 -60 -24 0 -25
15 -5 54 15 28 13 46 -5 46 -5 0 -16 -13 -25 -30z"/>
<path d="M3520 2768 c-33 -58 -35 -59 -38 -32 -5 54 -12 74 -28 74 -12 0 -14
-7 -10 -27 18 -92 12 -117 -47 -205 -61 -92 -91 -153 -82 -169 10 -15 23 -1
45 48 11 25 40 73 65 108 67 94 155 237 155 252 0 30 -27 8 -60 -49z"/>
<path d="M3808 2747 c-43 -45 -78 -85 -78 -89 0 -17 27 -7 50 17 24 25 24 25
32 5 7 -20 38 -29 38 -10 0 6 5 10 12 10 7 0 23 11 38 25 l25 24 0 -32 c0 -45
30 -50 33 -5 1 18 3 46 4 62 4 43 -16 42 -59 -3 -51 -55 -59 -52 -23 8 62 100
30 95 -72 -12z"/>
<path d="M10935 2812 c-44 -28 -62 -52 -70 -94 -6 -32 -4 -38 19 -53 23 -15
30 -15 68 -4 65 22 62 41 -6 33 -79 -10 -76 19 7 50 55 21 79 42 75 65 -5 23
-57 25 -93 3z m51 -21 c-3 -5 -16 -11 -28 -14 -22 -6 -22 -5 -4 8 22 17 40 20
32 6z"/>
<path d="M13499 2807 c-24 -13 -50 -34 -57 -48 -15 -29 -7 -68 16 -86 23 -17
94 -16 118 2 21 16 20 17 -51 19 -41 1 -50 4 -50 19 0 14 14 24 50 35 52 18
67 40 45 67 -16 19 -19 19 -71 -8z"/>
<path d="M14357 2819 c-19 -11 -57 -80 -57 -103 0 -9 11 -23 25 -32 23 -15 28
-15 70 5 38 18 45 25 45 50 0 20 -8 35 -22 46 -13 8 -23 21 -23 27 0 16 -17
19 -38 7z m31 -55 c30 -9 28 -31 -6 -48 -39 -20 -57 -8 -41 27 13 29 14 30 47
21z"/>
<path d="M3643 2798 c-38 -42 -73 -103 -73 -125 0 -49 62 -50 107 -2 36 40 45
75 28 114 -16 41 -33 44 -62 13z m37 -52 c0 -31 -36 -76 -61 -76 -26 0 -24 10
11 58 34 47 50 53 50 18z"/>
<path d="M5044 2783 c-19 -20 -34 -45 -34 -55 0 -23 32 -24 64 -3 23 15 24 15
34 -15 6 -17 18 -30 27 -30 13 0 15 5 9 23 -5 12 -7 33 -6 47 5 80 -37 95 -94
33z m46 -8 c-7 -9 -15 -13 -19 -10 -3 3 1 10 9 15 21 14 24 12 10 -5z"/>
<path d="M9737 2799 c-42 -32 -62 -76 -46 -105 20 -37 69 -28 69 12 0 27 -3
28 -32 13 -16 -9 -19 -8 -13 3 16 27 51 60 73 69 25 10 21 29 -6 29 -9 0 -30
-10 -45 -21z"/>
<path d="M6647 2790 c-14 -11 -30 -20 -35 -20 -6 0 -18 -23 -28 -52 -9 -28
-32 -85 -50 -125 -19 -41 -34 -83 -34 -94 0 -38 20 -18 54 56 19 42 41 75 49
75 8 0 33 13 55 30 66 47 93 118 53 140 -27 14 -35 13 -64 -10z m35 -62 c-21
-33 -60 -64 -69 -55 -8 8 36 85 54 96 30 16 37 -5 15 -41z"/>
<path d="M6943 2782 c-46 -39 -58 -77 -33 -102 11 -11 33 -20 51 -20 26 0 30
3 27 23 -2 17 -9 22 -31 20 -15 -1 -27 3 -27 10 0 18 52 67 72 67 10 0 18 7
18 15 0 24 -42 17 -77 -13z"/>
<path d="M8136 2785 c-14 -15 -14 -20 -1 -52 8 -19 15 -44 15 -54 0 -20 -15
-26 -25 -9 -11 18 -26 10 -23 -12 5 -34 52 -37 73 -5 15 23 15 28 1 62 -22 51
-21 55 15 55 20 0 29 4 27 13 -7 19 -63 20 -82 2z"/>
<path d="M6768 2750 c-41 -41 -44 -56 -15 -74 11 -7 25 -6 51 6 34 17 35 17
38 -5 2 -12 10 -23 20 -25 14 -3 15 4 11 40 -3 24 -9 47 -14 53 -5 5 -9 17 -9
27 0 31 -40 20 -82 -22z m67 -10 c-10 -16 -65 -42 -65 -31 0 13 40 41 58 41 7
0 10 -5 7 -10z"/>
<path d="M7459 2767 c-43 -29 -60 -71 -37 -93 15 -15 19 -15 49 0 40 20 37 21
41 -11 5 -45 28 -40 30 6 0 23 1 47 2 54 1 16 -43 11 -64 -8 -9 -8 -23 -15
-31 -15 -8 0 0 13 19 31 28 25 38 29 68 23 38 -7 47 8 15 26 -30 16 -55 12
-92 -13z"/>
<path d="M7640 2762 c-33 -33 -39 -72 -15 -92 12 -10 24 -10 54 -1 21 6 41 11
45 11 8 0 8 -133 0 -154 -4 -11 -19 -16 -48 -16 -23 0 -52 -7 -64 -16 -32 -22
-58 -80 -65 -143 -11 -97 26 -119 91 -52 21 21 51 63 67 93 15 29 33 56 39 60
5 4 12 60 14 125 4 143 -2 156 -68 129 -38 -15 -41 -15 -47 1 -7 18 29 53 54
53 8 0 13 6 11 13 -8 23 -38 18 -68 -11z m68 -300 c2 -12 -2 -22 -8 -22 -6 0
-10 -5 -8 -12 2 -6 -2 -19 -9 -27 -53 -62 -72 -89 -68 -95 3 -3 2 -4 -2 -1 -3
3 -12 0 -20 -6 -15 -13 -16 -8 -13 56 2 43 12 66 44 105 26 33 79 34 84 2z"/>
<path d="M7909 2763 c-64 -55 -71 -125 -12 -139 33 -9 115 7 121 23 3 10 -13
12 -59 10 -52 -2 -64 1 -67 15 -2 11 6 18 27 23 40 9 93 58 85 79 -10 25 -59
19 -95 -11z m60 -6 c-2 -1 -12 -9 -22 -16 -15 -12 -17 -12 -11 3 3 9 13 16 22
16 8 0 13 -1 11 -3z"/>
<path d="M8418 2679 c-13 -17 -23 -36 -23 -44 0 -7 -16 -42 -35 -79 -34 -63
-37 -66 -80 -72 -66 -9 -80 -14 -80 -30 0 -14 34 -13 92 3 15 3 13 -6 -12 -59
-47 -99 -35 -158 29 -141 27 7 22 27 -7 31 -30 5 -28 25 13 110 31 66 37 72
65 72 20 0 30 5 30 15 0 8 -9 15 -20 15 -11 0 -20 3 -20 8 0 4 23 47 50 96 28
49 50 92 50 97 0 20 -31 7 -52 -22z"/>
<path d="M2132 2588 c-16 -16 -15 -28 3 -28 17 0 16 -12 -15 -120 -11 -36 -26
-89 -34 -119 -21 -72 -20 -81 7 -81 12 0 38 -2 58 -6 29 -5 41 -1 68 21 27 23
32 34 29 63 -4 46 -31 56 -86 32 l-40 -18 19 66 c27 93 41 171 35 188 -7 17
-28 18 -44 2z m88 -278 c0 -37 -66 -64 -88 -37 -9 10 -2 19 30 40 44 28 58 27
58 -3z"/>
<path d="M6911 2571 c-6 -11 -11 -26 -11 -33 0 -7 -10 -45 -21 -85 -19 -63
-24 -70 -39 -61 -65 41 -157 -103 -95 -148 25 -19 70 -18 89 1 14 15 86 229
101 302 7 36 -9 53 -24 24z m-70 -211 c17 0 -26 -95 -46 -99 -23 -4 -46 25
-38 47 10 29 46 63 61 57 7 -3 18 -5 23 -5z"/>
<path d="M2607 2573 c-2 -5 -4 -24 -6 -43 -4 -72 -20 -109 -49 -116 -47 -10
-52 -13 -52 -29 0 -13 7 -15 37 -9 31 6 35 4 30 -9 -3 -9 -9 -40 -13 -68 -6
-42 -4 -51 7 -47 8 3 20 33 28 71 l14 66 50 8 c70 11 78 38 10 31 l-49 -5 13
65 c8 36 12 71 9 79 -6 14 -22 18 -29 6z"/>
<path d="M5184 2562 c-6 -4 -19 -32 -30 -62 -18 -50 -22 -55 -49 -55 -17 1
-43 4 -58 8 -24 7 -28 5 -25 -10 2 -12 17 -21 46 -27 34 -7 42 -12 36 -25 -3
-9 -8 -35 -11 -57 -5 -35 -2 -44 18 -58 31 -21 109 -22 109 -1 0 10 -10 15
-34 15 -51 0 -66 9 -66 39 1 52 24 75 91 91 74 18 93 41 27 34 -24 -3 -49 -7
-55 -9 -18 -6 -16 5 8 60 20 45 16 73 -7 57z"/>
<path d="M9685 2458 c-31 -62 -60 -117 -66 -124 -10 -12 -39 -101 -39 -121 0
-32 27 -8 43 38 21 59 62 89 120 89 46 0 53 -14 32 -63 -15 -37 -13 -63 6 -51
14 8 39 73 39 99 0 29 -17 43 -60 47 l-35 3 55 40 c30 22 69 47 85 56 32 17
46 49 22 49 -8 0 -58 -32 -112 -71 l-97 -70 46 87 c42 82 48 104 26 104 -5 0
-34 -50 -65 -112z"/>
<path d="M14800 2545 c0 -9 -29 -72 -65 -140 -66 -127 -77 -165 -50 -165 8 0
15 7 15 15 0 9 29 72 65 141 66 127 77 164 50 164 -8 0 -15 -7 -15 -15z"/>
<path d="M14924 2528 c-3 -13 -22 -49 -41 -80 -31 -50 -83 -174 -83 -197 0 -5
6 -11 14 -14 11 -4 20 12 35 61 11 37 39 98 61 136 48 82 59 116 37 116 -9 0
-19 -10 -23 -22z"/>
<path d="M10987 2524 c-14 -14 -7 -25 13 -22 12 2 21 8 21 13 0 12 -24 18 -34
9z"/>
<path d="M6006 2441 c-15 -17 -17 -31 -11 -96 7 -72 6 -77 -11 -73 -14 2 -20
13 -22 41 -4 48 -26 44 -30 -5 -2 -29 2 -40 24 -57 32 -25 41 -24 66 10 17 22
18 31 8 74 -6 27 -8 60 -5 73 5 22 9 23 55 17 40 -6 50 -4 50 8 0 30 -99 36
-124 8z"/>
<path d="M3627 2430 c-14 -11 -29 -20 -34 -20 -9 0 -31 -57 -40 -102 -9 -49
22 -32 41 22 10 28 30 59 44 70 23 18 27 19 42 5 16 -14 18 -14 23 -1 7 17
-17 46 -37 46 -7 0 -25 -9 -39 -20z"/>
<path d="M6420 2393 c-16 -83 -18 -88 -40 -108 -18 -17 -19 -16 -24 6 -3 13
-9 42 -13 64 -12 57 -29 40 -25 -25 4 -68 16 -90 47 -90 33 0 71 59 80 123 6
40 10 46 22 36 9 -8 17 -9 23 -3 14 14 -17 54 -40 54 -15 0 -21 -12 -30 -57z"/>
<path d="M9131 2426 c-18 -14 -39 -34 -47 -44 -8 -12 -21 -18 -31 -16 -15 4
-27 -18 -66 -118 -26 -68 -47 -126 -47 -130 0 -5 6 -8 14 -8 12 0 43 59 61
119 6 19 12 22 36 17 23 -4 36 1 64 26 48 42 87 110 83 145 -4 36 -26 39 -67
9z m39 -26 c0 -31 -76 -120 -102 -120 -16 0 -17 3 -7 23 13 26 90 107 101 107
4 0 8 -5 8 -10z"/>
<path d="M3778 2417 c-57 -48 -75 -125 -35 -152 40 -26 177 5 177 40 0 8 -5
15 -11 15 -5 0 -8 -4 -4 -9 3 -6 -3 -10 -12 -10 -10 1 -41 -3 -68 -8 -58 -11
-75 -8 -75 13 0 8 10 14 25 14 51 0 107 64 91 105 -8 22 -57 18 -88 -8z m52
-27 c-9 -18 -40 -40 -54 -40 -13 0 -5 20 16 40 29 27 53 27 38 0z"/>
<path d="M4672 2390 c-11 -27 -35 -68 -53 -90 -25 -31 -30 -43 -21 -52 9 -9
19 -3 42 23 82 94 92 103 85 84 -20 -53 -28 -93 -22 -108 8 -22 67 -23 67 -2
0 8 -9 15 -20 15 -26 0 -25 14 5 78 38 82 34 92 -27 67 -13 -5 -15 -2 -11 14
4 14 1 21 -10 21 -8 0 -23 -22 -35 -50z"/>
<path d="M8433 2424 c-3 -8 -3 -18 1 -21 3 -4 -3 -17 -15 -29 -24 -26 -23 -72
3 -88 25 -15 99 12 114 43 17 33 -1 71 -38 78 -15 3 -28 9 -28 13 0 16 -31 19
-37 4z m74 -60 c7 -20 -15 -43 -47 -46 -36 -4 -38 27 -3 45 37 20 43 20 50 1z"/>
<path d="M3408 2388 c-60 -65 -56 -115 8 -105 28 5 33 2 38 -19 9 -35 28 -25
32 16 2 19 9 47 15 62 9 23 8 33 -5 53 -22 34 -52 31 -88 -7z m66 -5 c7 -7
-52 -73 -66 -73 -16 0 -7 25 19 52 28 29 35 33 47 21z"/>
<path d="M9421 2374 c-44 -50 -54 -97 -25 -108 34 -13 83 -6 94 13 14 27 13
31 -10 31 -11 0 -20 -4 -20 -10 0 -5 -11 -10 -25 -10 -14 0 -25 6 -25 13 0 19
59 87 76 87 8 0 14 7 14 15 0 30 -39 14 -79 -31z"/>
<path d="M6160 2373 c-28 -26 -41 -47 -43 -68 -2 -28 0 -30 33 -29 19 0 42 4
50 7 12 6 18 -1 25 -25 17 -58 29 -35 29 57 l1 90 -27 3 c-20 2 -38 -6 -68
-35z m70 -12 c-11 -21 -58 -61 -71 -61 -19 0 -7 30 22 54 37 32 65 35 49 7z"/>
<path d="M6554 2391 c-18 -11 -38 -28 -45 -38 -8 -11 -22 -22 -31 -26 -15 -5
-15 -9 3 -46 23 -49 50 -65 99 -58 32 4 80 35 80 52 0 7 -29 0 -65 -14 -35
-14 -70 -8 -79 15 -4 11 1 18 14 21 15 4 17 9 10 23 -8 14 -4 21 15 34 31 20
41 21 25 1 -7 -8 -19 -15 -27 -15 -12 0 -12 -3 2 -16 14 -15 18 -15 40 0 29
19 41 52 25 71 -16 20 -29 19 -66 -4z"/>
<path d="M10345 2367 c-50 -48 -56 -76 -25 -107 33 -33 170 -19 170 17 0 11
-6 14 -22 9 -56 -16 -108 -18 -123 -6 -24 20 -18 28 24 40 48 13 87 56 70 76
-20 24 -47 15 -94 -29z"/>
<path d="M11092 2395 c-42 -19 -47 -35 -28 -92 26 -76 16 -95 -30 -52 -12 12
-27 18 -33 14 -18 -10 5 -41 44 -59 62 -30 82 13 50 104 -8 23 -15 44 -15 46
0 11 68 19 88 11 32 -15 41 1 13 24 -27 22 -45 23 -89 4z"/>
<path d="M9244 2364 c-63 -67 -56 -125 11 -85 40 23 49 26 40 11 -11 -18 7
-60 25 -60 24 0 36 20 19 31 -11 7 -12 13 -1 41 24 60 25 68 8 68 -9 0 -16 7
-16 15 0 29 -51 17 -86 -21z m56 -13 c0 -9 -44 -41 -56 -41 -4 0 3 11 16 25
24 26 40 32 40 16z"/>
<path d="M11450 2386 c0 -8 -16 -37 -35 -66 -31 -47 -37 -70 -17 -70 4 0 30
18 57 41 27 22 62 47 78 55 l28 15 -7 -46 c-4 -33 -3 -49 6 -55 18 -11 91 10
98 29 3 9 13 21 21 28 14 10 14 12 -1 18 -19 8 -61 -12 -53 -25 5 -8 -33 -26
-40 -18 -3 2 0 21 6 42 9 31 8 42 -4 53 -13 13 -21 11 -66 -11 -28 -15 -51
-22 -51 -17 0 6 5 13 10 16 17 10 11 25 -10 25 -11 0 -20 -6 -20 -14z"/>
<path d="M12539 2345 c-23 -30 -45 -55 -50 -55 -5 0 -11 12 -15 28 -12 55 -16
63 -27 59 -15 -5 -10 -62 8 -97 12 -24 9 -31 -46 -115 -33 -49 -58 -94 -56
-100 6 -16 34 -18 34 -2 0 18 80 140 160 243 35 45 63 85 63 88 0 3 -7 6 -15
6 -8 0 -33 -25 -56 -55z"/>
<path d="M10118 2371 c-37 -29 -63 -88 -48 -107 17 -19 47 -17 98 6 l42 19 -1
-52 c-2 -83 -10 -101 -49 -108 -55 -9 -80 -27 -102 -75 -26 -61 -18 -104 21
-104 33 0 69 31 108 92 22 33 33 42 51 40 28 -4 31 24 3 33 -17 5 -18 10 -10
38 5 17 9 57 9 89 0 45 -3 57 -17 61 -17 4 -17 5 0 6 11 1 17 9 17 25 0 42
-24 42 -46 1 -12 -22 -82 -61 -92 -51 -12 12 26 61 56 71 16 6 30 15 31 20 3
19 -45 16 -71 -4z m62 -279 c0 -5 -13 -27 -30 -50 -32 -45 -65 -68 -75 -53 -9
16 25 88 48 99 27 13 57 15 57 4z"/>
<path d="M10921 2303 c-14 -102 -39 -157 -99 -225 -44 -48 -72 -61 -72 -32 0
8 -7 23 -16 32 -15 15 -16 14 -9 -7 4 -15 3 -26 -4 -31 -9 -5 -7 -13 6 -29 15
-19 23 -21 44 -13 34 13 119 108 146 163 22 46 49 190 39 215 -12 32 -24 9
-35 -73z"/>
<path d="M11257 2364 c-42 -27 -77 -78 -77 -110 0 -30 31 -54 69 -54 64 0 97
71 72 159 -9 33 -20 34 -64 5z m43 -68 c0 -36 -25 -66 -57 -66 -46 0 -38 53
15 97 30 25 42 17 42 -31z"/>
<path d="M14548 2360 c-33 -34 -33 -53 3 -60 13 -3 24 -11 24 -19 0 -28 23
-21 34 10 14 40 4 99 -16 99 -8 0 -28 -14 -45 -30z m37 -20 c-3 -5 -11 -10
-16 -10 -6 0 -7 5 -4 10 3 6 11 10 16 10 6 0 7 -4 4 -10z"/>
<path d="M4872 2368 c-19 -25 -42 -77 -42 -97 0 -41 52 -48 93 -13 21 19 22
42 0 87 -17 36 -34 44 -51 23z m32 -54 c7 -19 -10 -44 -30 -44 -17 0 -18 14
-4 41 13 23 26 24 34 3z"/>
<path d="M9931 2343 c-41 -50 -42 -83 -2 -83 17 0 33 5 37 11 4 8 12 2 21 -15
7 -14 20 -26 28 -26 18 0 18 5 5 30 -6 11 -6 28 -2 41 11 29 -13 79 -38 79
-10 0 -32 -17 -49 -37z m43 -29 c-34 -28 -52 -31 -33 -6 21 28 41 42 52 35 5
-3 -4 -16 -19 -29z"/>
<path d="M12651 2342 c-48 -51 -65 -85 -57 -116 5 -19 13 -26 31 -26 41 0 65
33 65 89 0 28 5 53 10 56 14 9 13 35 -2 35 -6 0 -27 -17 -47 -38z m-1 -98
c-30 -35 -40 -8 -12 34 17 26 17 26 20 4 2 -13 -2 -30 -8 -38z"/>
<path d="M12824 2348 c-22 -43 -74 -88 -101 -88 -14 0 -23 -6 -23 -15 0 -25
27 -28 62 -7 24 15 38 18 50 11 13 -7 28 -4 55 9 37 20 37 20 48 -2 12 -23 46
-29 53 -8 2 6 -3 12 -12 12 -12 0 -16 10 -16 34 0 40 -12 52 -31 30 -12 -14
-61 -44 -74 -44 -3 0 4 18 15 40 20 39 20 60 0 60 -5 0 -17 -14 -26 -32z"/>
<path d="M15006 2320 c-33 -32 -64 -56 -69 -53 -9 6 -5 45 8 76 5 12 3 17 -9
17 -30 0 -48 -69 -27 -109 8 -14 -2 -30 -55 -82 -100 -98 -155 -179 -123 -179
5 0 7 5 4 10 -3 6 0 10 8 10 8 0 26 17 41 38 27 39 182 194 269 269 44 38 54
64 24 62 -7 0 -39 -27 -71 -59z"/>
<path d="M2280 2322 c0 -57 12 -72 57 -72 43 0 86 40 81 76 -4 31 -22 36 -26
8 -4 -29 -36 -57 -59 -52 -13 2 -19 14 -21 46 -2 28 -8 42 -18 42 -10 0 -14
-13 -14 -48z"/>
<path d="M13920 2322 c-22 -22 -40 -47 -40 -56 0 -20 33 -21 64 -1 22 15 22
14 18 -15 -6 -44 20 -39 36 8 19 54 19 67 1 66 -9 -1 -16 5 -15 14 2 30 -25
23 -64 -16z m50 -6 c0 -2 -7 -7 -16 -10 -8 -3 -12 -2 -9 4 6 10 25 14 25 6z"/>
<path d="M14417 2327 c-17 -39 -59 -73 -77 -62 -7 5 -9 20 -5 41 4 26 2 34 -8
34 -27 0 -38 -75 -15 -98 32 -32 121 15 133 69 11 47 -10 59 -28 16z"/>
<path d="M13657 2332 c-10 -10 -17 -23 -17 -29 0 -6 -7 -13 -14 -16 -23 -9
-50 -67 -37 -80 8 -8 24 1 56 33 45 44 45 44 45 17 0 -37 23 -35 69 5 l36 32
3 -30 c4 -34 22 -58 33 -47 4 4 5 30 1 58 -9 60 -26 67 -71 30 l-31 -27 0 26
c0 16 -6 26 -15 26 -8 0 -15 5 -15 10 0 16 -26 11 -43 -8z"/>
<path d="M14151 2341 c-7 -5 -22 -6 -32 -4 -13 4 -22 -3 -31 -23 -6 -16 -19
-37 -27 -47 -11 -13 -12 -20 -3 -29 9 -9 18 -5 40 19 15 17 40 39 56 49 33 21
32 26 8 -53 -7 -20 -7 -35 -1 -38 13 -9 29 3 29 21 0 8 7 28 16 45 8 16 12 39
9 49 -7 21 -39 26 -64 11z"/>
<path d="M10637 2274 c-14 -14 -7 -35 11 -32 9 2 17 10 17 17 0 16 -18 25 -28
15z"/>
<path d="M11889 2253 c-1 -5 -2 -12 -4 -18 -1 -5 -3 -16 -3 -24 -1 -8 -23 -34
-49 -58 -35 -33 -44 -46 -35 -55 9 -9 22 -2 56 31 48 47 72 91 62 116 -6 15
-25 21 -27 8z"/>
<path d="M8837 2193 c-4 -3 -7 -13 -7 -20 0 -8 -17 -40 -39 -71 -21 -31 -48
-76 -60 -99 -20 -41 -24 -43 -66 -43 -33 0 -45 -4 -45 -15 0 -10 10 -15 30
-15 36 0 37 -8 5 -80 -30 -71 -20 -88 36 -58 21 11 39 26 39 34 0 17 -5 17
-31 4 -23 -13 -23 -10 -4 37 19 45 44 75 57 67 11 -7 135 15 162 28 40 21 -2
27 -77 11 -42 -9 -80 -14 -83 -10 -6 6 13 43 79 150 20 32 33 65 30 73 -6 15
-16 18 -26 7z"/>
<path d="M7807 2164 c-4 -4 -7 -14 -7 -23 0 -9 -14 -53 -31 -98 -28 -71 -35
-82 -60 -87 -18 -3 -29 -12 -29 -21 0 -12 6 -15 20 -10 25 8 25 7 0 -46 -22
-49 -26 -93 -9 -87 7 2 24 35 39 73 26 66 30 70 59 70 36 0 43 16 12 30 -26
12 -26 13 3 83 28 66 36 113 20 119 -5 2 -13 0 -17 -3z"/>
<path d="M3186 2148 c-3 -7 -9 -35 -16 -63 -6 -27 -29 -93 -50 -146 -46 -114
-59 -169 -39 -169 8 0 26 34 43 83 15 45 41 118 56 162 40 117 45 145 25 145
-8 0 -17 -6 -19 -12z"/>
<path d="M2716 2123 c-3 -16 -10 -57 -17 -93 -13 -71 -28 -90 -71 -90 -19 0
-28 -5 -28 -16 0 -13 7 -15 35 -11 40 7 40 8 20 -57 -19 -61 -19 -66 -1 -66
13 0 46 86 46 119 0 6 4 11 10 11 5 0 9 10 8 23 0 12 7 60 16 106 19 101 19
101 2 101 -8 0 -17 -12 -20 -27z"/>
<path d="M3076 2138 c-2 -7 -12 -42 -21 -78 -9 -36 -30 -109 -47 -163 -28 -91
-31 -127 -10 -127 10 0 102 318 102 354 0 26 -18 36 -24 14z"/>
<path d="M4902 2117 c-10 -18 -27 -56 -36 -84 -17 -52 -32 -63 -83 -63 -25 0
-35 -11 -25 -27 5 -8 19 -9 43 -4 l36 8 -15 -68 c-15 -67 -12 -93 8 -73 5 5
16 38 24 74 9 36 19 66 23 68 56 19 86 59 39 50 -25 -5 -27 -3 -21 21 3 14 15
43 26 64 34 66 18 96 -19 34z"/>
<path d="M5660 2054 c-19 -53 -42 -100 -51 -105 -10 -5 -36 -9 -58 -9 -30 0
-41 -4 -41 -15 0 -11 12 -15 45 -15 l44 0 -19 -45 c-24 -55 -29 -97 -13 -102
7 -3 17 13 23 39 23 82 46 115 91 129 56 18 67 45 15 35 -20 -4 -36 -5 -36 -2
0 2 14 38 30 79 33 82 37 107 18 107 -7 0 -29 -43 -48 -96z"/>
<path d="M4986 2038 c-21 -57 -49 -127 -63 -156 -19 -38 -23 -56 -15 -64 8 -8
25 4 60 43 47 51 81 62 54 18 -15 -23 -7 -59 12 -59 14 0 26 42 26 90 0 38
-27 46 -62 20 -15 -11 -28 -19 -28 -17 0 2 18 48 40 103 38 91 43 124 22 124
-5 0 -26 -46 -46 -102z"/>
<path d="M3541 2078 c-5 -13 -15 -59 -21 -103 -17 -113 -65 -197 -105 -182
-37 15 -5 97 39 97 11 0 16 6 14 18 -5 25 -48 16 -76 -16 -17 -21 -22 -37 -20
-72 3 -39 7 -46 31 -54 63 -22 127 66 148 204 6 41 15 83 20 92 13 26 11 38
-6 38 -9 0 -19 -10 -24 -22z"/>
<path d="M10320 2008 c-19 -46 -35 -87 -35 -93 0 -5 -6 -16 -12 -23 -18 -19
-37 -88 -29 -107 7 -20 26 -10 26 15 0 40 62 64 114 44 19 -7 21 -35 4 -52 -9
-9 -9 -15 -1 -23 9 -9 17 -3 32 22 12 19 21 37 21 41 0 17 -56 48 -89 48 l-36
1 26 22 c15 12 52 42 83 66 40 30 54 47 47 54 -7 7 -21 2 -46 -16 -19 -15 -51
-39 -70 -53 l-36 -27 10 26 c7 18 7 27 -2 31 -7 2 -4 5 6 5 16 1 19 5 21 34 1
6 7 18 14 26 7 7 11 18 9 24 -9 29 -26 10 -57 -65z"/>
<path d="M11519 2049 c-14 -28 3 -48 26 -29 19 16 19 36 0 44 -9 3 -19 -3 -26
-15z"/>
<path d="M4670 2040 c0 -13 7 -20 20 -20 24 0 27 25 4 34 -23 9 -24 8 -24 -14z"/>
<path d="M2180 2028 c0 -12 4 -30 10 -38 8 -12 10 -12 15 2 9 23 3 50 -12 56
-8 2 -13 -5 -13 -20z"/>
<path d="M7363 1999 c-13 -4 -43 -28 -67 -53 -68 -67 -75 -142 -16 -166 31
-13 77 -7 122 16 24 13 27 12 22 -1 -4 -10 0 -15 14 -15 13 0 43 27 83 75 34
41 63 75 66 75 7 0 -10 -55 -28 -92 -22 -43 -24 -68 -6 -68 33 1 81 186 50
197 -7 2 -33 -15 -58 -38 -42 -39 -45 -40 -35 -15 13 35 13 46 -1 46 -5 0 -24
-29 -40 -65 -16 -36 -33 -63 -38 -61 -5 3 -21 -1 -37 -8 -76 -37 -133 -24
-121 26 5 20 15 27 46 32 49 8 101 49 101 82 0 29 -27 45 -57 33z m27 -38 c0
-13 -67 -54 -81 -49 -6 2 6 16 28 31 40 28 53 33 53 18z"/>
<path d="M4318 1969 c-27 -17 -48 -35 -48 -40 0 -14 33 -10 54 6 35 26 36 16
6 -34 -34 -54 -40 -101 -13 -101 9 0 35 11 58 25 l42 24 13 -24 c28 -52 81
-20 95 59 6 28 4 36 -8 36 -16 0 -27 -20 -27 -50 0 -9 -7 -23 -15 -30 -12 -10
-16 -8 -25 14 -12 32 -32 33 -77 5 -19 -12 -36 -20 -38 -18 -2 2 12 30 30 61
19 31 35 65 37 75 5 29 -32 25 -84 -8z"/>
<path d="M7870 1961 c-36 -38 -69 -106 -56 -118 12 -12 33 7 39 34 8 42 59 93
92 93 35 0 28 24 -9 28 -22 3 -36 -5 -66 -37z"/>
<path d="M9650 1983 c-36 -25 -56 -51 -86 -113 -33 -69 -104 -273 -97 -282 14
-24 35 4 79 101 42 95 52 109 69 105 45 -11 134 84 135 143 0 25 -36 63 -60
63 -8 0 -27 -8 -40 -17z m60 -28 c24 -29 -37 -125 -80 -125 -18 0 -20 4 -14
23 5 12 8 32 7 45 -1 13 11 32 29 47 34 29 41 30 58 10z"/>
<path d="M12985 1991 c-7 -12 3 -87 17 -122 8 -24 2 -37 -66 -129 -78 -106
-83 -115 -67 -125 10 -5 157 192 200 268 13 23 32 54 42 69 21 29 24 48 9 48
-12 0 -67 -74 -75 -101 -10 -32 -22 -13 -30 46 -6 52 -16 67 -30 46z"/>
<path d="M6460 1952 c-64 -61 -50 -121 22 -94 21 8 28 8 27 -1 -3 -28 2 -37
22 -37 15 0 19 5 14 19 -3 10 2 36 12 57 14 28 15 38 5 41 -6 3 -9 9 -6 14 8
14 -15 39 -37 39 -10 0 -36 -17 -59 -38z m78 -13 c2 -13 -62 -59 -82 -59 -14
0 -4 21 25 50 32 32 52 35 57 9z"/>
<path d="M13372 1938 c-35 -63 -66 -93 -96 -93 -21 -1 -22 3 -18 52 4 49 3 53
-21 64 -34 15 -48 4 -82 -65 -39 -81 -18 -120 49 -86 29 14 36 15 36 4 0 -8 7
-17 15 -20 17 -7 47 14 39 27 -3 5 1 6 9 3 8 -3 18 -1 22 5 4 8 11 6 21 -4 22
-21 38 -19 72 10 17 14 32 25 34 25 2 0 2 -16 0 -35 -4 -31 -1 -35 18 -35 18
0 21 4 17 21 -3 12 3 45 14 73 10 28 19 54 19 59 0 18 -27 3 -82 -49 -33 -30
-62 -53 -65 -50 -2 2 9 31 26 63 34 64 38 83 17 83 -8 0 -27 -24 -44 -52z
m-142 -35 c0 -28 -35 -73 -57 -73 -11 0 -10 7 2 37 28 66 55 84 55 36z"/>
<path d="M2463 1954 c-38 -30 -41 -54 -12 -101 20 -32 20 -36 6 -50 -13 -14
-19 -14 -32 -3 -20 16 -33 4 -19 -18 25 -39 94 -15 94 32 0 12 -9 36 -21 55
-25 41 -21 53 25 75 20 9 36 21 36 26 0 19 -45 9 -77 -16z"/>
<path d="M6628 1932 c-10 -27 -29 -61 -43 -76 -14 -15 -25 -31 -25 -37 0 -20
38 -7 67 24 23 24 32 45 37 85 9 69 -13 71 -36 4z"/>
<path d="M6703 1954 c-32 -25 -46 -60 -20 -51 6 2 11 10 10 16 -2 6 6 11 17
11 23 0 24 -6 5 -40 -17 -29 -20 -80 -5 -80 6 0 13 8 16 18 4 9 17 44 29 77
13 32 21 63 19 67 -10 15 -39 8 -71 -18z"/>
<path d="M2847 1949 c-15 -11 -34 -34 -43 -51 -14 -28 -14 -32 0 -46 12 -12
20 -13 40 -4 23 10 24 9 23 -15 -1 -14 3 -27 8 -30 14 -4 46 99 35 111 -5 5
-25 -2 -47 -15 -34 -20 -36 -21 -23 -4 8 11 23 28 35 37 14 12 17 20 9 28 -8
8 -18 5 -37 -11z"/>
<path d="M8065 1925 c-24 -63 -41 -74 -50 -35 -7 32 -26 47 -45 35 -8 -5 -8
-11 1 -21 19 -23 29 -86 17 -108 -6 -12 -41 -59 -77 -106 -101 -130 -109 -143
-100 -168 5 -12 11 -22 13 -22 3 0 14 20 25 45 11 25 47 78 79 118 69 84 167
235 159 244 -3 3 0 12 8 20 19 18 19 43 1 43 -8 0 -22 -20 -31 -45z"/>
<path d="M11014 1956 c-33 -15 -68 -62 -79 -109 -10 -38 17 -67 61 -67 45 0
84 16 84 36 0 11 -5 14 -16 10 -32 -12 -92 -18 -97 -9 -13 22 6 52 37 58 47
10 76 32 76 59 0 18 -19 39 -33 36 -1 -1 -16 -7 -33 -14z m21 -36 c-3 -5 -10
-10 -16 -10 -5 0 -9 5 -9 10 0 6 7 10 16 10 8 0 12 -4 9 -10z"/>
<path d="M2733 1945 c-7 -21 -2 -25 25 -18 12 3 22 12 22 19 0 19 -39 18 -47
-1z"/>
<path d="M3222 1935 c-59 -49 -63 -137 -8 -151 30 -7 99 14 90 28 -4 6 -22 8
-44 4 -27 -4 -41 -2 -50 9 -16 19 -7 31 30 39 37 7 83 50 78 74 -5 29 -60 27
-96 -3z m58 -13 c0 -9 -44 -32 -58 -32 -10 1 38 40 49 40 5 0 9 -4 9 -8z"/>
<path d="M11642 1948 c-14 -14 -16 -47 -2 -82 5 -14 7 -33 4 -41 -9 -22 -42
-18 -49 5 -8 26 -25 16 -25 -15 0 -50 66 -56 96 -10 16 25 12 77 -8 102 -11
14 -1 20 40 25 12 2 24 8 25 13 3 15 -66 18 -81 3z"/>
<path d="M12018 1925 c-33 -24 -45 -30 -44 -18 3 35 -22 21 -42 -24 -27 -63
-14 -76 35 -37 56 45 61 46 56 21 -10 -52 80 -83 152 -53 48 20 36 42 -13 25
-34 -12 -97 -5 -107 11 -3 5 1 23 10 39 16 33 20 71 6 71 -4 0 -28 -16 -53
-35z"/>
<path d="M13991 1929 c-44 -43 -50 -75 -19 -105 26 -27 85 -40 107 -25 18 12
4 33 -19 26 -30 -10 -70 12 -70 38 0 27 31 60 58 62 9 0 23 5 31 9 11 7 11 10
0 17 -26 17 -58 9 -88 -22z"/>
<path d="M5145 1942 c-21 -15 -57 -75 -62 -102 -5 -35 24 -55 67 -45 47 10 61
34 48 82 -11 45 -37 76 -53 65z m25 -88 c0 -15 -8 -23 -25 -26 -35 -7 -40 7
-14 43 23 33 39 26 39 -17z"/>
<path d="M14185 1931 c-75 -46 -86 -94 -22 -99 32 -3 37 -7 37 -28 0 -15 6
-24 15 -24 8 0 15 8 15 17 0 9 5 31 12 50 15 42 5 51 -31 30 -16 -9 -37 -17
-48 -17 -15 1 -13 5 11 26 20 18 36 24 52 20 30 -8 42 13 19 31 -24 17 -24 17
-60 -6z"/>
<path d="M14340 1925 c-6 -14 -10 -29 -10 -32 0 -3 -14 -23 -31 -45 -23 -28
-29 -42 -21 -50 8 -8 27 4 68 41 32 28 61 51 65 51 4 0 9 -15 11 -32 2 -28 7
-33 28 -33 18 0 24 5 22 16 -1 9 4 19 13 23 26 10 17 29 -11 22 -22 -6 -25 -4
-19 14 9 27 -18 37 -53 19 -15 -7 -30 -15 -34 -17 -3 -2 -4 6 -1 16 8 31 -16
37 -27 7z"/>
<path d="M2150 1910 c0 -17 -9 -48 -20 -69 -18 -36 -18 -51 1 -51 13 0 46 71
54 113 7 33 5 37 -14 37 -17 0 -21 -6 -21 -30z"/>
<path d="M5300 1898 c-49 -69 -59 -78 -81 -78 -14 0 -19 -5 -17 -17 2 -14 15
-18 58 -20 59 -2 90 9 90 32 0 8 5 15 11 15 6 0 8 -7 5 -16 -7 -20 10 -44 31
-44 12 0 14 7 9 31 -3 18 0 45 9 65 23 57 -5 53 -63 -8 -28 -29 -54 -50 -58
-46 -3 4 8 28 25 54 33 51 36 60 21 69 -5 3 -23 -14 -40 -37z"/>
<path d="M9841 1921 c-29 -29 -53 -79 -49 -104 3 -23 34 -28 69 -13 12 5 18 1
23 -18 3 -14 13 -26 22 -26 12 0 14 7 9 31 -4 17 -7 47 -7 67 0 38 -20 82 -38
82 -6 0 -19 -9 -29 -19z m39 -46 c0 -18 -53 -60 -58 -46 -5 15 38 72 49 66 5
-4 9 -12 9 -20z"/>
<path d="M10568 1900 c-21 -23 -38 -48 -38 -56 0 -25 32 -28 71 -7 l38 21 -1
-30 c-1 -16 4 -34 9 -39 15 -15 48 -7 48 11 0 8 -6 14 -14 12 -11 -2 -12 8 -6
54 5 45 4 55 -7 52 -7 -3 -19 1 -26 9 -21 20 -32 16 -74 -27z m57 -10 c-3 -5
-16 -15 -28 -21 -22 -12 -22 -12 -3 10 19 21 43 30 31 11z"/>
<path d="M10760 1918 c-40 -43 -14 -84 44 -67 16 5 34 5 39 0 4 -4 7 -39 5
-77 l-3 -69 -45 -7 c-74 -12 -115 -82 -108 -186 2 -39 7 -48 24 -50 27 -4 78
53 117 131 17 34 36 57 50 61 21 6 21 7 3 20 -10 8 -15 19 -12 25 4 5 7 41 7
79 1 125 -64 201 -121 140z m60 -17 c0 -10 -30 -24 -37 -17 -3 3 -2 9 2 15 8
13 35 15 35 2z m5 -252 c-10 -32 -72 -134 -90 -149 -13 -11 -15 -8 -15 21 0
81 42 149 92 149 15 0 18 -5 13 -21z"/>
<path d="M11779 1901 c-40 -39 -47 -67 -29 -102 13 -24 66 -26 98 -3 16 11 22
25 22 54 0 21 -4 41 -9 44 -5 3 -7 15 -4 26 9 35 -35 24 -78 -19z m57 -36 c7
-30 -10 -55 -38 -55 -29 0 -33 28 -8 56 30 30 38 30 46 -1z"/>
<path d="M2231 1888 c-31 -32 -41 -68 -18 -68 6 1 21 15 32 33 26 41 39 38 45
-10 3 -25 10 -38 20 -38 8 0 13 7 11 15 -2 8 -3 26 -2 39 1 26 -24 61 -44 61
-7 0 -27 -14 -44 -32z"/>
<path d="M4602 1867 c-26 -62 -26 -67 -8 -67 16 0 60 96 51 110 -12 19 -22 9
-43 -43z"/>
<path d="M11496 1899 c-3 -8 -12 -41 -21 -74 -9 -33 -25 -75 -35 -95 -21 -41
-87 -107 -97 -97 -6 7 8 82 22 120 5 12 2 17 -9 17 -16 0 -46 -83 -46 -130 0
-27 16 -50 35 -50 25 0 96 74 124 130 38 76 59 166 43 182 -8 8 -13 8 -16 -3z"/>
<path d="M10027 1880 c-59 -47 -37 -100 40 -100 47 0 87 15 78 30 -3 5 -29 6
-59 3 -61 -6 -77 6 -46 37 14 14 28 18 45 14 18 -4 25 -2 25 9 0 31 -47 35
-83 7z"/>
<path d="M8828 1863 c-50 -52 -26 -103 48 -103 54 0 84 23 84 64 0 40 -14 53
-65 61 -35 6 -43 3 -67 -22z m57 -13 c4 -6 15 -8 26 -5 14 5 19 2 19 -12 0
-28 -20 -43 -56 -43 -41 0 -50 14 -30 45 18 27 31 31 41 15z"/>
<path d="M12501 1836 c-6 -7 -8 -15 -5 -18 3 -3 -18 -25 -45 -48 -51 -43 -65
-70 -36 -70 8 0 15 4 15 8 0 4 23 25 50 45 36 27 50 44 50 62 0 29 -14 40 -29
21z"/>
<path d="M11233 1823 c-18 -7 -16 -33 1 -33 25 0 46 12 46 26 0 14 -23 17 -47
7z"/>
<path d="M3930 1738 c-11 -24 -20 -48 -20 -55 0 -6 -16 -50 -36 -97 -38 -91
-40 -93 -113 -98 -58 -5 -51 -28 8 -28 l51 0 -20 -50 c-24 -61 -25 -72 -4 -68
9 2 24 27 35 58 23 64 29 71 92 94 26 10 47 22 47 26 0 18 -19 19 -54 5 -20
-8 -36 -14 -36 -12 0 11 84 224 92 234 11 13 3 33 -13 33 -6 0 -19 -19 -29
-42z"/>
<path d="M6976 1718 c-19 -71 -57 -169 -93 -240 -25 -48 -41 -93 -37 -99 4 -7
26 9 60 45 29 31 58 56 63 56 6 0 6 -14 -1 -36 -10 -38 -3 -93 11 -78 4 5 13
33 19 63 9 40 9 57 1 67 -14 17 -41 18 -58 2 -16 -15 -18 -23 35 116 19 49 32
96 30 103 -7 17 -26 17 -30 1z"/>
<path d="M8089 1689 c-7 -23 -18 -42 -23 -44 -48 -11 -124 -41 -139 -53 -32
-28 -18 -64 35 -92 27 -14 48 -28 48 -31 0 -4 -11 -32 -25 -63 -25 -56 -39
-65 -80 -50 -18 7 -57 78 -48 88 4 3 -1 6 -10 6 -27 0 -29 -17 -8 -59 22 -43
55 -71 83 -71 23 0 24 1 -17 -80 -37 -73 -42 -95 -24 -105 13 -9 19 -3 23 22
3 11 20 52 40 90 26 53 42 73 66 83 39 16 80 65 80 94 0 13 -8 30 -19 40 -18
16 -18 18 3 86 20 68 22 70 54 70 38 0 40 23 3 28 -17 3 -21 8 -17 23 3 10 9
28 12 39 5 14 2 20 -9 20 -10 0 -21 -16 -28 -41z m-35 -101 c-4 -13 -12 -37
-18 -55 l-11 -32 -40 22 c-22 13 -40 29 -40 36 0 7 20 22 45 32 62 25 73 24
64 -3z m3 -154 c5 -13 -45 -80 -54 -71 -5 6 32 87 40 87 4 0 10 -7 14 -16z"/>
<path d="M11932 1690 l-33 -20 7 -88 c8 -105 -7 -146 -56 -157 -16 -4 -34 -4
-40 0 -13 8 -42 -14 -35 -25 3 -4 25 -11 50 -15 55 -8 66 -27 36 -63 -46 -58
-63 -103 -58 -151 6 -56 34 -81 87 -81 43 0 90 15 90 28 0 5 -29 8 -64 8 -35
-1 -67 2 -71 6 -4 3 -9 24 -12 45 -4 32 1 47 36 99 42 64 50 91 29 112 -9 9
-6 18 13 38 22 24 24 34 24 126 1 92 3 102 22 115 16 11 27 12 41 4 15 -8 23
-7 32 4 9 11 7 16 -9 24 -29 16 -52 13 -89 -9z"/>
<path d="M2417 1694 c-4 -4 -7 -21 -7 -38 0 -17 -18 -88 -41 -159 -40 -129
-46 -182 -20 -182 20 0 39 34 24 43 -9 6 -2 40 28 132 22 69 40 140 41 158 1
33 -13 58 -25 46z"/>
<path d="M6801 1625 c-23 -35 -41 -69 -41 -74 0 -19 -41 -33 -88 -29 -37 2
-47 0 -47 -12 0 -11 14 -16 51 -18 l52 -3 -19 -50 c-25 -64 -24 -84 3 -103 28
-20 30 -20 56 3 27 23 19 32 -20 24 -30 -6 -30 -5 -23 28 10 48 43 109 58 109
22 0 51 26 43 39 -5 8 -13 8 -28 0 -21 -11 -20 -10 2 27 13 22 34 54 47 72 22
30 24 52 3 52 -4 0 -27 -29 -49 -65z"/>
<path d="M14085 1680 c-12 -19 5 -28 43 -23 28 4 44 0 65 -17 32 -25 35 -50 7
-75 -35 -32 -80 -107 -80 -134 0 -15 7 -36 15 -47 13 -20 12 -21 -8 -17 -12 2
-28 -1 -36 -6 -12 -8 -13 -14 -2 -37 11 -24 41 -152 41 -174 0 -35 -94 -57
-106 -25 -8 21 -31 19 -31 -2 -1 -48 60 -67 117 -38 47 25 54 47 40 134 -7 42
-17 84 -22 94 -8 15 -4 17 31 17 54 0 60 15 22 54 -38 40 -36 65 13 123 44 52
66 85 66 100 0 7 -16 28 -35 48 -31 31 -42 35 -85 35 -27 0 -52 -4 -55 -10z"/>
<path d="M3669 1662 c-29 -25 -18 -46 16 -30 25 11 33 32 16 42 -5 3 -19 -2
-32 -12z"/>
<path d="M13749 1633 c-6 -15 -10 -56 -10 -91 0 -59 -2 -63 -20 -57 -32 10
-87 -4 -109 -27 -29 -32 -26 -82 6 -107 32 -25 110 -29 140 -7 17 13 19 25 16
143 -3 108 -1 132 12 142 18 15 12 31 -10 31 -8 0 -19 -12 -25 -27z m-31 -179
c27 -8 38 -44 22 -73 -13 -25 -75 -29 -104 -8 -25 18 -17 58 14 74 28 14 36
15 68 7z"/>
<path d="M5713 1633 c-23 -9 -15 -35 10 -31 12 2 22 9 22 17 0 16 -14 22 -32
14z"/>
<path d="M4672 1554 c-12 -8 -19 -20 -16 -26 4 -6 3 -8 -3 -5 -6 4 -18 -2 -28
-13 -9 -10 -23 -16 -30 -14 -7 3 -17 -9 -25 -28 -7 -18 -19 -47 -26 -65 -8
-17 -14 -33 -14 -36 0 -3 -19 -45 -41 -92 -31 -64 -39 -89 -30 -98 15 -15 21
-6 65 94 l38 87 38 0 c53 1 84 24 115 85 27 55 32 96 13 115 -16 16 -29 15
-56 -4z m22 -86 c-26 -52 -55 -78 -86 -78 -26 0 -29 3 -23 23 4 12 33 47 63
77 51 49 57 53 60 33 2 -12 -4 -37 -14 -55z"/>
<path d="M2114 1550 c-46 -18 -120 -126 -109 -159 11 -37 98 -49 165 -24 16 6
27 9 48 11 17 3 15 32 -2 32 -8 0 -17 -4 -21 -9 -3 -6 -13 -9 -23 -9 -9 1 -37
-2 -62 -5 -81 -12 -91 22 -27 98 29 33 40 39 71 38 23 -1 36 4 36 12 0 23 -38
31 -76 15z"/>
<path d="M2487 1529 c-53 -40 -71 -104 -41 -147 19 -27 54 -28 112 -2 46 21
55 40 20 40 -16 0 -19 -3 -10 -9 9 -5 -5 -10 -39 -14 -37 -5 -55 -3 -61 6 -5
8 2 15 22 20 39 10 82 63 78 96 -4 34 -43 39 -81 10z m53 -18 c0 -4 -12 -20
-26 -35 -15 -14 -31 -26 -35 -26 -17 0 -9 21 17 45 28 26 44 32 44 16z"/>
<path d="M5484 1534 c-57 -29 -59 -36 -33 -98 16 -41 20 -59 12 -67 -13 -13
-33 -3 -33 17 0 8 -7 14 -15 14 -22 0 -18 -32 5 -58 27 -29 46 -28 67 4 17 26
16 37 -14 127 -4 13 4 21 31 32 20 8 36 19 36 24 0 17 -28 19 -56 5z"/>
<path d="M2665 1508 c-65 -77 -49 -151 25 -114 26 12 29 12 33 -6 8 -29 33
-16 29 15 -1 14 4 43 13 63 19 45 19 44 -4 44 -10 0 -24 7 -31 15 -19 23 -35
18 -65 -17z m54 -22 c8 -10 5 -19 -14 -40 -46 -50 -65 -28 -27 32 17 25 25 27
41 8z"/>
<path d="M2819 1459 c-51 -102 -41 -119 29 -47 l52 53 0 -47 c0 -71 39 -96
105 -66 32 15 35 43 3 33 -13 -4 -34 -8 -48 -9 -21 -1 -25 4 -28 32 -2 19 1
48 7 65 16 45 -1 57 -40 28 l-31 -23 7 31 c12 57 -14 33 -56 -50z"/>
<path d="M4380 1516 c-27 -44 -97 -113 -129 -126 -40 -16 -43 -45 -4 -35 14 3
38 15 51 26 25 19 25 19 39 -1 15 -21 48 -27 58 -10 13 21 21 9 17 -25 -3 -27
-1 -35 12 -35 9 0 16 8 16 20 0 23 44 115 60 125 14 8 13 35 -1 35 -6 0 -36
-23 -66 -50 -48 -44 -73 -55 -73 -31 0 4 15 33 34 64 19 30 31 58 28 61 -12
12 -28 5 -42 -18z"/>
<path d="M9736 1500 c-24 -22 -48 -40 -54 -40 -6 0 -14 -10 -17 -22 -4 -13
-16 -43 -27 -67 -11 -24 -20 -59 -21 -77 -1 -17 -5 -30 -8 -28 -3 2 -10 -17
-16 -42 -10 -41 -4 -62 15 -50 4 2 21 38 37 80 23 58 35 76 49 76 29 0 123
101 135 146 20 74 -26 86 -93 24z m64 -16 c-21 -54 -100 -137 -116 -121 -12
12 27 76 66 110 52 44 63 46 50 11z"/>
<path d="M5978 1494 c-62 -58 -45 -112 25 -86 17 6 33 10 35 7 3 -3 -3 -33
-12 -68 l-17 -62 -39 3 c-33 3 -44 -1 -68 -25 -35 -34 -58 -122 -42 -154 25
-46 113 6 146 86 14 33 23 43 34 39 28 -12 70 -16 70 -7 0 5 -16 17 -35 26
-40 19 -40 16 -20 81 8 27 15 78 15 112 0 52 -3 65 -19 74 -28 15 -32 13 -73
-26z m52 -22 c0 -18 -47 -48 -58 -37 -6 6 38 55 50 55 4 0 8 -8 8 -18z m-40
-229 c-1 -44 -76 -133 -99 -119 -14 9 8 88 31 114 26 27 68 30 68 5z"/>
<path d="M8335 1478 c-13 -29 -30 -61 -37 -70 -9 -12 -9 -21 -2 -28 7 -7 24 0
55 23 24 18 61 44 82 56 l38 23 -27 -49 c-16 -29 -25 -56 -21 -66 8 -20 27
-23 27 -3 0 7 11 34 25 60 47 89 30 112 -51 65 -49 -27 -55 -29 -45 -11 15 29
14 52 -4 52 -9 0 -26 -23 -40 -52z"/>
<path d="M5210 1493 c-27 -72 -36 -86 -78 -124 -35 -30 -43 -42 -34 -51 9 -9
19 -5 42 17 23 22 33 26 42 17 17 -17 23 -15 62 19 l35 30 -6 -34 c-4 -26 -1
-36 12 -41 18 -6 45 9 45 25 0 5 -6 9 -14 9 -13 0 -13 7 1 46 11 34 13 48 4
57 -8 8 -24 -2 -61 -38 -55 -54 -60 -53 -29 6 21 43 22 80 2 87 -7 2 -18 -9
-23 -25z"/>
<path d="M5815 1502 c-17 -10 -36 -17 -42 -15 -7 3 -16 -4 -20 -14 -3 -10 -19
-34 -35 -54 -57 -74 -26 -81 39 -9 49 54 98 86 108 70 3 -5 -6 -32 -20 -59
-28 -56 -32 -81 -12 -81 13 0 67 113 67 142 0 16 -27 38 -47 38 -4 0 -22 -8
-38 -18z"/>
<path d="M8915 1508 c-11 -6 -30 -20 -42 -31 -20 -18 -23 -18 -23 -4 0 9 -7
17 -15 17 -8 0 -15 -8 -15 -17 0 -10 -11 -38 -25 -62 -47 -81 -24 -84 47 -6
28 31 59 60 69 66 18 9 18 7 -1 -42 -12 -29 -17 -56 -13 -60 5 -5 32 7 60 26
29 19 54 35 56 35 2 0 2 -13 -1 -29 -5 -35 15 -45 62 -28 46 16 45 33 0 30
l-36 -2 22 36 c30 51 13 64 -42 33 -24 -12 -51 -29 -60 -37 -15 -14 -16 -12
-6 20 11 35 6 67 -9 67 -4 0 -17 -6 -28 -12z"/>
<path d="M10502 1499 c-18 -12 -39 -34 -47 -50 -20 -37 -19 -103 1 -123 28
-29 181 -11 192 23 3 10 -4 11 -39 5 -24 -5 -64 -9 -89 -9 -44 0 -45 1 -48 35
l-3 35 50 1 c75 1 100 32 65 82 -19 27 -40 28 -82 1z m61 -22 c8 -20 -4 -32
-35 -35 -34 -3 -36 11 -6 32 27 19 34 20 41 3z"/>
<path d="M3624 1502 c-16 -10 -53 -82 -56 -111 -4 -32 23 -49 54 -34 13 6 31
14 41 17 9 3 17 15 17 26 0 16 -5 21 -22 18 -13 -2 -23 -10 -22 -18 1 -9 -7
-16 -17 -16 -11 0 -19 4 -19 7 0 19 21 60 40 79 27 27 14 52 -16 32z"/>
<path d="M7113 1481 c-49 -35 -63 -58 -63 -100 0 -37 40 -71 84 -71 37 0 136
44 136 61 0 13 -24 9 -91 -17 -39 -15 -52 -16 -74 -6 -21 10 -26 18 -23 39 2
16 10 29 18 30 90 11 91 12 88 51 -4 48 -23 51 -75 13z m42 -21 c-3 -5 -11
-10 -16 -10 -6 0 -7 5 -4 10 3 6 11 10 16 10 6 0 7 -4 4 -10z"/>
<path d="M9925 1491 c-33 -19 -101 -134 -90 -151 11 -18 20 -10 49 45 31 60
67 95 97 95 11 0 19 7 19 15 0 21 -38 19 -75 -4z"/>
<path d="M12335 1477 c-34 -34 -45 -76 -27 -103 11 -17 68 -44 92 -44 35 0 22
25 -22 40 -31 11 -44 21 -46 37 -4 27 41 73 70 73 27 0 17 24 -11 28 -14 2
-33 -8 -56 -31z"/>
<path d="M8603 1487 c-12 -7 -31 -24 -43 -39 -26 -33 -130 -252 -130 -273 0
-30 31 -14 46 23 42 107 46 112 69 106 31 -8 74 16 118 65 42 47 45 68 16 105
-22 28 -42 32 -76 13z m57 -37 c14 -27 0 -53 -52 -90 -49 -36 -58 -37 -58 -9
0 24 69 118 87 119 7 0 17 -9 23 -20z"/>
<path d="M5596 1430 c-21 -34 -35 -67 -32 -75 6 -17 26 -20 26 -5 0 5 14 31
30 57 29 46 39 83 21 83 -4 0 -25 -27 -45 -60z"/>
<path d="M12990 1475 c-10 -12 -16 -13 -27 -4 -20 17 -30 2 -38 -58 -9 -71 14
-69 65 6 23 33 24 34 33 13 11 -25 39 -29 56 -8 9 10 8 16 -4 26 -8 7 -15 9
-15 4 0 -5 -7 2 -16 14 -18 26 -36 28 -54 7z"/>
<path d="M13090 1475 c-13 -15 -5 -39 11 -30 5 4 9 -13 9 -38 0 -42 17 -67 34
-50 5 6 1 59 -10 111 -5 25 -26 29 -44 7z"/>
<path d="M13263 1470 c-29 -13 -44 -27 -49 -44 -7 -27 2 -63 13 -53 3 4 12 2
19 -4 9 -7 19 -7 33 0 16 9 20 8 23 -9 5 -34 22 -28 30 10 4 19 10 47 14 63 4
17 2 27 -5 27 -6 0 -11 7 -11 15 0 20 -16 19 -67 -5z m51 -22 c-16 -29 -38
-48 -56 -48 -28 0 -22 18 15 40 37 23 51 25 41 8z"/>
<path d="M10302 1446 c-20 -19 -46 -36 -57 -38 -23 -4 -57 -68 -44 -83 6 -6
34 16 74 55 35 35 68 61 72 57 4 -4 1 -23 -6 -42 -13 -36 -9 -55 13 -55 16 0
35 91 24 119 -11 30 -32 26 -76 -13z"/>
<path d="M12727 1460 c-22 -18 -27 -19 -27 -6 0 9 -7 16 -15 16 -8 0 -15 -8
-15 -19 0 -10 -3 -33 -6 -50 -9 -42 7 -40 51 7 19 20 33 29 29 20 -6 -18 11
-58 26 -58 5 0 25 14 45 32 l36 31 -6 -26 c-8 -32 2 -67 20 -67 14 0 19 65 9
103 -7 23 -37 22 -59 -3 -24 -27 -33 -25 -37 7 -4 35 -19 38 -51 13z"/>
<path d="M13423 1460 c-36 -21 -57 -55 -49 -76 9 -23 23 -16 45 22 16 26 27
35 43 32 26 -3 38 -38 14 -38 -26 0 -29 -21 -7 -43 26 -27 41 -15 48 39 8 67
-38 98 -94 64z"/>
<path d="M10127 1462 c-12 -2 -16 -9 -12 -22 8 -26 -10 -57 -44 -75 -26 -13
-30 -13 -35 1 -3 8 1 31 9 51 8 20 13 38 11 41 -13 12 -36 -11 -47 -47 -10
-34 -9 -44 5 -66 9 -14 22 -25 30 -25 28 0 94 59 106 95 13 39 6 54 -23 47z"/>
<path d="M12536 1453 c-11 -10 -15 -12 -11 -4 5 8 4 12 -2 8 -5 -3 -15 -24
-23 -46 -12 -37 -11 -43 5 -61 21 -23 63 -26 89 -7 22 16 24 61 4 85 -9 9 -13
23 -11 30 7 18 -30 15 -51 -5z m42 -65 c-3 -24 -25 -33 -46 -20 -20 13 -3 42
25 42 20 0 24 -4 21 -22z"/>
<path d="M10237 1441 c-3 -13 0 -18 12 -16 18 2 22 26 5 32 -6 2 -14 -5 -17
-16z"/>
<path d="M9516 979 c-9 -92 -11 -96 -50 -103 -34 -7 -86 -46 -86 -66 0 -6 21
-33 46 -60 l46 -49 -13 -86 c-8 -55 -17 -85 -25 -85 -18 0 -54 49 -61 82 -6
29 -17 36 -28 17 -17 -27 47 -129 81 -129 17 0 18 11 -6 -106 -22 -104 -20
-144 6 -144 12 0 15 6 11 22 -5 17 28 210 36 212 1 1 20 10 41 21 85 44 95
103 29 176 -33 37 -35 42 -28 86 13 92 13 93 46 81 31 -11 59 -5 59 12 0 5 -7
10 -15 10 -8 0 -26 5 -41 12 -25 12 -26 15 -20 68 4 30 8 64 9 75 1 11 -5 21
-14 23 -13 2 -18 -10 -23 -69z m-27 -171 c-4 -24 -8 -50 -9 -58 0 -10 -11 -4
-31 17 -35 34 -34 58 3 73 42 16 46 13 37 -32z m62 -196 c12 -30 -3 -57 -41
-77 -29 -15 -30 -15 -30 9 0 14 5 48 11 76 11 51 11 51 31 33 11 -10 24 -28
29 -41z"/>
<path d="M5655 833 c-15 -49 -30 -99 -34 -113 -7 -22 -15 -26 -61 -30 -67 -6
-81 -29 -18 -31 24 -1 46 -1 50 0 4 0 -6 -27 -22 -62 -33 -68 -38 -127 -14
-151 28 -28 134 -14 134 17 0 12 -8 12 -44 4 -85 -19 -96 12 -45 124 l32 68
51 3 c37 2 51 7 51 18 0 12 -11 14 -46 13 l-47 -3 27 88 c15 48 33 97 39 108
6 12 8 24 5 28 -19 18 -33 -2 -58 -81z"/>
<path d="M2402 853 c-69 -103 -142 -231 -182 -317 -21 -46 -44 -86 -51 -88 -8
-3 -10 -11 -6 -23 7 -17 9 -17 32 5 14 13 30 38 37 57 7 18 19 33 28 33 8 0
31 3 50 6 l35 6 -3 -46 c-4 -51 14 -65 23 -18 3 15 10 43 15 62 5 19 11 51 14
70 10 69 45 216 61 253 15 37 13 57 -5 57 -5 0 -27 -26 -48 -57z m-21 -161
c-11 -50 -26 -100 -32 -111 -11 -17 -75 -39 -85 -28 -3 3 26 56 112 204 10 17
20 31 21 29 2 -1 -6 -44 -16 -94z"/>
<path d="M2556 895 c-16 -17 -13 -40 5 -30 5 4 9 4 9 1 0 -13 -56 -181 -96
-285 -50 -131 -53 -151 -24 -151 11 0 20 3 21 8 4 54 12 88 37 147 41 100 94
273 90 298 -4 27 -22 32 -42 12z"/>
<path d="M8452 848 c-62 -61 -113 -170 -119 -255 -6 -76 -14 -90 -61 -110 -18
-7 -30 -18 -27 -23 9 -14 45 -12 45 2 0 6 3 8 6 5 4 -3 15 -2 26 4 16 8 23 5
40 -17 25 -31 80 -57 103 -48 25 10 12 28 -26 35 -33 7 -69 40 -69 63 0 6 19
31 40 55 59 63 89 120 105 197 30 143 13 168 -63 92z m43 -35 c-18 -106 -38
-152 -86 -205 l-48 -53 0 35 c0 50 47 161 92 215 21 25 40 45 43 45 3 0 2 -17
-1 -37z"/>
<path d="M8733 798 c-7 -12 -37 -128 -67 -268 -7 -30 -11 -63 -8 -73 8 -32 27
-11 32 37 8 60 34 87 93 93 57 7 72 -14 57 -79 -13 -56 -12 -58 5 -58 14 0 35
56 35 97 0 36 -42 76 -78 75 -18 0 -32 1 -32 4 0 12 115 114 141 124 27 12 41
40 19 40 -35 0 -160 -99 -160 -126 0 -8 -4 -13 -9 -11 -5 1 -17 -7 -26 -18
-12 -15 -15 -16 -12 -4 3 10 11 46 18 80 7 35 17 67 22 70 11 7 1 29 -13 29
-5 0 -12 -6 -17 -12z"/>
<path d="M11364 716 c-8 -22 3 -33 18 -18 9 9 9 15 0 24 -9 9 -13 7 -18 -6z"/>
<path d="M14742 685 c-57 -25 -53 -51 20 -134 35 -41 37 -46 21 -55 -10 -5
-39 -10 -66 -10 -37 -1 -47 -4 -45 -16 5 -22 45 -24 110 -4 37 11 58 23 58 32
0 8 -25 44 -56 80 l-56 66 42 18 c23 10 39 22 35 28 -8 13 -23 12 -63 -5z"/>
<path d="M3562 673 c-34 -7 -56 -64 -48 -124 5 -36 3 -51 -9 -63 -23 -23 -61
-20 -79 6 -12 17 -19 19 -28 10 -9 -9 -7 -16 8 -33 30 -33 61 -41 94 -24 40
21 53 50 46 101 -9 66 6 94 48 94 30 0 55 14 44 25 -7 7 -54 12 -76 8z"/>
<path d="M11067 674 c-10 -11 -8 -134 3 -173 22 -79 60 -58 96 54 19 56 31 82
38 75 13 -13 36 -13 36 0 0 19 -39 53 -53 47 -8 -3 -27 -43 -42 -89 -15 -46
-31 -87 -35 -92 -11 -12 -23 70 -18 129 3 45 -8 66 -25 49z"/>
<path d="M13345 659 c-41 -30 -82 -90 -91 -133 -9 -51 20 -49 36 2 27 81 88
134 122 105 16 -14 18 -14 24 2 5 12 1 23 -11 31 -26 19 -45 17 -80 -7z"/>
<path d="M13980 664 c-25 -29 -52 -38 -62 -20 -11 19 -38 22 -38 4 0 -7 7 -21
15 -31 12 -17 8 -26 -45 -89 -34 -40 -56 -76 -53 -84 8 -20 21 -17 34 9 7 12
28 42 48 66 l36 44 12 -32 c13 -31 27 -39 37 -22 3 5 -1 25 -9 44 -16 39 -15
42 41 86 14 11 23 25 19 31 -9 14 -20 13 -35 -6z"/>
<path d="M2637 632 c-43 -44 -44 -49 -17 -95 17 -29 18 -36 6 -53 -14 -19 -15
-19 -45 4 -43 31 -60 18 -25 -19 35 -36 66 -37 94 -2 23 30 21 65 -7 95 -14
16 -13 20 16 48 29 30 41 60 23 60 -4 0 -25 -17 -45 -38z"/>
<path d="M8605 661 c-3 -5 -1 -12 5 -16 12 -7 30 2 30 16 0 12 -27 12 -35 0z"/>
<path d="M8979 645 c-14 -7 -36 -34 -49 -59 -28 -56 -19 -87 34 -113 29 -14
42 -14 74 -5 46 14 101 67 85 83 -7 7 -20 1 -41 -19 -43 -41 -79 -48 -111 -24
-36 26 -33 44 8 47 54 5 106 83 65 99 -23 9 -36 7 -65 -9z m22 -46 c-35 -28
-51 -22 -17 7 15 14 31 22 35 19 3 -4 -5 -15 -18 -26z"/>
<path d="M14136 639 c-20 -10 -36 -15 -36 -9 0 5 -7 10 -15 10 -8 0 -19 -17
-26 -42 -6 -24 -15 -53 -20 -66 -10 -24 -5 -42 11 -42 5 0 16 16 25 35 19 39
59 85 75 85 15 0 13 -11 -10 -48 -20 -32 -19 -52 0 -52 5 0 35 21 65 46 31 25
59 44 61 42 2 -3 -3 -26 -12 -52 -15 -43 -15 -49 -1 -63 11 -12 19 -13 36 -4
25 14 28 31 5 31 -13 0 -15 6 -8 28 12 41 11 105 -3 109 -6 2 -27 -10 -46 -26
-19 -17 -37 -31 -39 -31 -3 0 -3 13 0 29 5 38 -16 45 -62 20z"/>
<path d="M14452 640 c-39 -24 -65 -76 -51 -102 11 -20 68 -25 86 -7 8 8 14 5
23 -11 8 -15 19 -20 37 -18 32 4 44 28 14 28 -24 0 -25 5 -11 47 26 72 -27
106 -98 63z m65 -26 c7 -18 -42 -63 -69 -64 -28 0 -21 26 13 54 35 30 47 32
56 10z"/>
<path d="M2792 635 c-12 -9 -20 -20 -17 -24 2 -5 -5 -25 -15 -47 -24 -46 -26
-97 -4 -118 13 -14 19 -14 43 -1 38 19 77 66 91 109 23 72 -38 123 -98 81z
m68 -46 c0 -48 -46 -119 -78 -119 -21 0 -9 61 18 100 12 17 19 30 15 30 -3 0
-3 5 0 10 3 6 15 10 26 10 15 0 19 -7 19 -31z"/>
<path d="M4143 628 c-12 -13 -28 -40 -37 -61 -13 -33 -19 -38 -43 -35 -26 3
-28 6 -25 44 2 23 -1 45 -7 48 -6 4 -32 -12 -57 -36 -41 -37 -46 -40 -41 -20
12 49 -18 68 -55 35 -17 -15 -18 -15 -18 0 0 40 -27 11 -52 -57 -45 -120 -33
-129 37 -30 49 69 65 77 46 23 -26 -74 -6 -78 61 -12 41 40 48 44 48 26 0 -34
28 -55 69 -52 22 2 47 -4 65 -16 30 -20 80 -24 131 -11 46 12 23 31 -33 28
-28 -2 -61 -1 -72 3 -21 7 -20 9 15 37 20 17 40 40 45 52 19 51 -38 76 -77 34z
m47 -21 c0 -17 -38 -53 -46 -44 -7 7 25 57 37 57 5 0 9 -6 9 -13z"/>
<path d="M4964 640 c-11 -4 -33 -22 -47 -40 -35 -41 -37 -105 -5 -145 19 -24
26 -27 66 -22 28 3 51 12 59 23 29 40 3 62 -30 24 -22 -26 -63 -26 -77 0 -12
23 -6 40 16 40 8 0 29 7 45 16 28 14 30 19 27 62 -3 50 -14 59 -54 42z m26
-50 c0 -22 -32 -43 -58 -38 -14 3 -13 8 10 31 32 32 48 34 48 7z"/>
<path d="M5355 634 c-8 -9 -14 -24 -11 -33 2 -9 9 -38 16 -64 7 -26 10 -50 7
-54 -4 -3 -27 0 -53 6 -25 7 -49 9 -52 6 -13 -13 28 -36 76 -42 49 -5 51 -5
58 22 4 15 2 44 -5 65 -17 56 -14 80 8 80 11 0 23 -4 26 -10 9 -15 35 -12 35
5 0 33 -76 47 -105 19z"/>
<path d="M5994 613 c-31 -34 -63 -90 -78 -140 -6 -19 -3 -23 12 -23 15 0 24
12 36 47 19 56 56 113 74 113 6 0 12 -4 12 -10 0 -5 7 -10 15 -10 22 0 18 37
-4 50 -28 14 -30 14 -67 -27z"/>
<path d="M6633 630 c-24 -10 -43 -24 -43 -30 0 -5 -9 -19 -20 -30 -17 -17 -19
-26 -11 -60 13 -59 36 -88 74 -95 46 -9 107 17 107 44 0 12 -4 21 -10 21 -5 0
-10 -8 -10 -17 0 -9 -3 -14 -6 -11 -3 4 -18 2 -34 -2 -40 -11 -65 -3 -79 26
-17 37 -14 44 19 44 48 0 103 73 86 115 -7 20 -22 19 -73 -5z m38 -38 c-15
-28 -38 -44 -58 -40 -16 3 -15 7 9 31 32 32 64 38 49 9z"/>
<path d="M6843 637 c-31 -17 -73 -77 -73 -104 0 -27 28 -43 55 -32 33 13 35
11 35 -43 0 -84 -7 -98 -46 -98 -55 0 -77 -30 -72 -97 3 -39 11 -60 27 -76
l22 -22 24 28 c13 15 32 49 42 76 17 48 17 48 50 39 33 -9 53 -5 53 12 0 4
-17 12 -37 17 -44 10 -41 -3 -30 172 7 100 6 125 -5 132 -17 11 -18 11 -45 -4z
m12 -59 c-8 -34 -20 -48 -42 -48 -20 0 -15 16 13 49 33 39 37 39 29 -1z m-15
-259 c0 -17 -42 -109 -50 -109 -20 0 -26 90 -8 108 15 15 58 16 58 1z"/>
<path d="M7265 643 c-24 -6 -45 -22 -45 -34 0 -5 16 -26 35 -48 27 -29 35 -47
35 -76 0 -30 -3 -36 -16 -31 -9 3 -19 6 -23 6 -3 0 -21 14 -39 30 -32 29 -62
39 -62 21 0 -13 69 -71 98 -82 42 -16 69 -4 76 35 8 40 -3 71 -39 114 -29 34
-30 33 27 36 25 2 34 16 18 26 -16 10 -32 11 -65 3z"/>
<path d="M9948 588 c-44 -81 -48 -92 -37 -109 7 -11 22 0 70 50 33 35 62 61
65 58 3 -3 1 -22 -6 -42 -13 -39 -7 -69 13 -63 6 3 13 13 14 24 1 10 5 42 9
70 9 67 -6 76 -58 34 l-40 -32 16 30 c20 38 20 42 2 42 -8 0 -30 -28 -48 -62z"/>
<path d="M12256 631 c-16 -11 -40 -32 -53 -47 l-23 -27 6 31 c5 24 3 32 -8 32
-10 0 -21 -31 -37 -97 -13 -54 -35 -129 -48 -166 -23 -64 -25 -105 -4 -93 12
8 71 171 71 197 0 19 0 19 40 -1 50 -25 71 -25 104 1 55 43 75 125 40 159 -30
28 -56 32 -88 11z m72 -53 c4 -35 -23 -86 -52 -99 -18 -8 -31 -7 -55 5 -36 19
-37 22 -11 61 44 68 112 87 118 33z"/>
<path d="M10230 630 c-8 -5 -25 -10 -37 -10 -13 0 -23 -5 -23 -11 0 -10 -46
-120 -76 -183 -18 -38 -19 -96 0 -96 8 0 24 29 39 73 14 39 32 90 40 112 16
41 67 95 92 95 16 0 11 -19 -25 -91 -20 -38 -22 -40 -39 -25 -16 14 -19 15
-24 2 -8 -20 16 -49 38 -45 35 7 105 139 92 174 -7 17 -54 20 -77 5z"/>
<path d="M10431 631 c-7 -5 -21 -7 -30 -5 -11 3 -24 -14 -45 -57 -38 -82 -22
-97 30 -29 40 53 57 53 29 0 -15 -28 -14 -31 1 -37 13 -5 28 5 54 35 19 23 39
42 43 42 4 0 7 -14 7 -30 0 -23 6 -33 25 -40 30 -11 85 6 85 26 0 11 -9 13
-41 8 l-41 -7 7 42 c9 52 -11 63 -55 31 l-32 -23 4 24 c3 25 -17 35 -41 20z"/>
<path d="M5153 617 c-31 -17 -62 -61 -69 -95 -5 -25 -2 -33 20 -48 26 -16 28
-16 57 5 21 16 29 18 29 8 0 -8 7 -20 15 -27 12 -10 18 -10 30 0 14 12 13 15
-4 31 -15 14 -18 27 -14 54 4 23 0 43 -11 60 -19 28 -22 29 -53 12z m27 -51
c0 -33 -32 -71 -54 -63 -14 6 -15 10 -5 29 15 30 40 58 51 58 4 0 8 -11 8 -24z"/>
<path d="M5778 605 c-84 -84 -56 -173 51 -163 48 5 53 28 6 28 -80 0 -106 51
-35 70 46 12 66 40 50 70 -15 27 -42 25 -72 -5z m37 -24 c-3 -6 -11 -11 -17
-11 -6 0 -6 6 2 15 14 17 26 13 15 -4z"/>
<path d="M6981 604 c-41 -52 -16 -98 38 -71 l30 15 24 -62 c24 -58 47 -157 47
-197 0 -15 -7 -17 -54 -12 -48 5 -55 3 -70 -18 -21 -30 -20 -65 2 -108 21 -42
52 -55 81 -35 73 52 87 206 33 359 -18 49 -32 99 -32 110 0 50 -65 62 -99 19z
m59 -12 c0 -12 -23 -32 -37 -32 -11 0 -11 4 -1 20 13 20 38 28 38 12z m68
-357 c7 -7 -11 -52 -29 -74 -25 -31 -49 -20 -63 27 -13 45 7 66 53 57 20 -4
37 -8 39 -10z"/>
<path d="M11417 612 c-22 -24 -21 -34 3 -82 23 -46 26 -76 7 -83 -22 -8 -39 8
-35 34 2 16 -2 24 -12 24 -10 0 -16 -12 -18 -37 -3 -34 -1 -37 33 -48 28 -9
39 -9 51 1 34 28 36 48 10 104 -28 61 -19 81 28 69 28 -7 34 4 14 24 -18 18
-63 14 -81 -6z"/>
<path d="M11606 618 c-2 -7 -9 -33 -16 -58 -6 -25 -20 -59 -31 -76 -20 -34
-25 -64 -9 -64 5 0 25 24 43 53 36 54 103 124 112 116 2 -3 -5 -29 -16 -59
-11 -29 -19 -62 -17 -73 4 -28 28 -34 28 -8 0 11 11 51 25 88 14 37 23 73 21
80 -8 21 -42 15 -74 -12 -36 -30 -42 -31 -42 -6 0 23 -19 38 -24 19z"/>
<path d="M13137 618 c-29 -8 -42 -19 -55 -45 -15 -31 -15 -37 -1 -61 23 -42
80 -43 120 -2 25 25 30 36 24 58 -7 27 -33 63 -44 61 -3 -1 -23 -6 -44 -11z
m57 -44 c15 -38 -47 -81 -79 -54 -20 17 -19 26 5 50 24 24 65 26 74 4z"/>
<path d="M3667 600 c-36 -29 -60 -76 -53 -105 13 -52 68 -72 98 -37 26 28 32
79 14 107 -15 23 -15 25 0 25 8 0 14 6 12 13 -7 21 -43 19 -71 -3z m32 -49
c13 -24 -5 -81 -25 -81 -26 0 -36 37 -19 70 18 35 30 38 44 11z"/>
<path d="M7714 609 c-7 -12 12 -29 34 -29 19 0 14 18 -7 30 -14 7 -22 7 -27
-1z"/>
<path d="M11894 578 c-26 -59 -71 -118 -90 -118 -9 0 -14 -6 -12 -12 8 -23 38
-20 60 5 20 23 22 23 39 6 20 -20 41 -17 73 10 15 14 18 14 16 1 -4 -28 0 -40
15 -40 8 0 15 8 15 18 0 9 10 45 22 79 12 35 18 66 14 70 -4 5 -20 -6 -34 -23
-15 -17 -39 -45 -55 -62 -15 -18 -32 -32 -37 -32 -15 0 -12 35 5 77 19 44 19
63 2 63 -8 0 -22 -19 -33 -42z"/>
<path d="M11270 538 c-18 -66 -18 -73 -1 -73 13 0 41 71 41 108 0 38 -27 14
-40 -35z"/>
<path d="M8556 553 c-3 -3 -6 -28 -6 -55 0 -36 4 -48 15 -48 11 0 15 12 15 49
0 47 -9 68 -24 54z"/>
<path d="M12613 488 c10 -37 -3 -66 -38 -88 -30 -19 -71 -19 -60 0 8 13 -9 20
-25 10 -11 -7 -12 -14 -4 -27 28 -45 78 -41 131 12 32 32 41 63 27 99 -10 26
-37 20 -31 -6z"/>
<path d="M7730 484 c0 -17 22 -14 28 4 2 7 -3 12 -12 12 -9 0 -16 -7 -16 -16z"/>
</g>
</svg>
