<?xml version="1.0" standalone="no"?>
<!DOCTYPE svg PUBLIC "-//W3C//DTD SVG 20010904//EN"
 "http://www.w3.org/TR/2001/REC-SVG-20010904/DTD/svg10.dtd">
<svg version="1.0" xmlns="http://www.w3.org/2000/svg"
 width="1618.000000pt" height="1214.000000pt" viewBox="0 0 1618.000000 1214.000000"
 preserveAspectRatio="xMidYMid meet">

<g transform="translate(0.000000,1214.000000) scale(0.100000,-0.100000)"
fill="#000000" stroke="none">
<path d="M7617 11702 c-9 -9 -21 -39 -27 -65 -5 -26 -22 -70 -38 -98 l-27 -50
-59 3 c-77 4 -90 -18 -17 -28 28 -4 51 -9 51 -13 0 -3 -11 -33 -25 -66 -28
-68 -32 -127 -10 -145 19 -16 49 -9 53 14 3 15 0 17 -19 11 -21 -7 -22 -5 -16
36 3 24 17 70 31 102 l26 57 45 0 c25 0 45 -2 45 -4 0 -2 -16 -37 -35 -77 -19
-41 -35 -79 -35 -86 0 -29 31 -10 73 45 45 57 90 92 104 78 4 -4 -7 -35 -25
-69 -35 -66 -39 -87 -19 -87 17 0 89 152 82 172 -14 35 -67 28 -114 -15 -20
-19 -17 -10 17 58 21 44 50 108 62 143 17 47 27 62 42 62 32 0 14 25 -20 28
-27 3 -32 0 -32 -17 0 -23 -56 -169 -72 -188 -6 -7 -15 -10 -21 -6 -6 4 -8 0
-4 -10 3 -10 2 -17 -3 -17 -6 0 -10 5 -10 10 0 6 -14 10 -31 10 l-30 0 25 48
c43 83 76 164 70 173 -8 14 -19 11 -37 -9z"/>
<path d="M2633 11668 c-4 -7 -6 -21 -5 -31 2 -10 -3 -28 -11 -40 -8 -12 -22
-46 -31 -74 -10 -29 -22 -55 -27 -58 -4 -3 -31 -9 -59 -12 -63 -7 -61 -28 2
-27 l45 0 -19 -60 c-19 -62 -21 -113 -3 -108 6 1 10 8 10 15 1 6 11 44 23 84
l22 72 48 6 c26 3 57 7 69 9 20 3 20 0 -14 -78 -59 -137 -55 -167 12 -76 42
57 98 107 103 92 2 -6 -6 -29 -17 -51 -23 -44 -27 -76 -11 -86 6 -3 13 2 16
12 3 10 17 43 30 74 13 31 21 64 18 73 -8 21 -43 21 -72 0 -13 -9 -25 -14 -27
-12 -3 2 13 49 34 104 50 128 58 164 36 164 -8 0 -17 -6 -19 -12 -25 -93 -50
-159 -64 -166 -9 -5 -37 -10 -62 -11 -25 -2 -48 -5 -52 -8 -14 -8 -9 13 22 87
30 72 39 130 21 130 -6 0 -13 -6 -18 -12z"/>
<path d="M3785 11668 c-2 -7 -20 -62 -40 -121 -19 -59 -49 -138 -65 -174 -29
-64 -38 -103 -23 -103 4 0 31 26 59 58 29 31 55 54 59 50 4 -4 2 -27 -5 -52
-14 -49 -7 -74 15 -56 8 6 17 37 21 67 6 48 4 58 -11 70 -16 11 -22 10 -41 -2
-35 -22 -36 -20 -13 38 12 28 32 87 45 129 14 42 29 80 34 83 6 4 8 11 5 16
-9 13 -35 11 -40 -3z"/>
<path d="M5002 11657 c1 -12 -9 -51 -21 -86 l-24 -62 -38 6 c-32 6 -39 4 -39
-9 0 -10 12 -19 30 -22 17 -4 30 -7 30 -8 0 0 -9 -25 -20 -54 -27 -71 -27
-155 1 -183 23 -23 52 -22 57 3 2 11 -5 18 -20 20 -21 3 -23 8 -22 64 1 77 30
153 62 159 12 3 34 7 48 10 36 8 24 31 -14 27 -18 -2 -32 -2 -32 0 0 2 9 32
20 66 25 80 25 92 0 92 -14 0 -19 -6 -18 -23z"/>
<path d="M6841 11664 c-29 -20 -38 -47 -61 -166 -27 -140 -60 -198 -112 -198
-14 0 -15 4 -7 29 12 33 36 57 62 62 27 6 26 23 -1 27 -29 4 -69 -30 -89 -76
-39 -92 54 -106 122 -19 24 32 39 83 66 227 9 45 20 71 38 87 31 29 17 51 -18
27z"/>
<path d="M8597 11674 c-4 -4 -4 -17 -1 -28 5 -22 -133 -317 -155 -331 -6 -3
-11 -13 -11 -21 0 -26 29 -14 56 24 35 47 86 102 95 102 4 0 0 -30 -8 -66 -11
-47 -12 -69 -4 -77 15 -15 18 -11 36 81 20 99 13 118 -34 91 l-29 -17 45 94
c27 57 43 105 41 121 -3 26 -18 39 -31 27z"/>
<path d="M3585 11574 c-29 -51 -59 -90 -72 -95 -25 -9 -30 -25 -11 -31 9 -3 9
-12 0 -38 -18 -50 -15 -114 6 -140 17 -21 21 -22 55 -11 20 7 39 17 43 22 11
18 -6 23 -36 12 -20 -8 -31 -8 -39 0 -14 14 -13 73 2 117 10 30 19 36 66 50
72 21 83 46 16 35 l-48 -7 18 29 c57 86 76 123 70 132 -12 20 -19 11 -70 -75z"/>
<path d="M11713 11643 c-7 -3 -13 -14 -13 -25 0 -11 -18 -53 -40 -94 l-41 -73
-57 -3 c-42 -2 -57 -7 -57 -18 0 -11 11 -14 48 -11 l48 3 -25 -51 c-31 -59
-33 -102 -8 -124 20 -18 62 -23 62 -8 0 5 -11 16 -25 25 -32 21 -31 36 2 102
l27 53 64 -2 c80 -2 98 18 22 25 -28 3 -53 7 -55 10 -3 3 13 41 35 84 22 43
40 84 40 91 0 15 -11 22 -27 16z"/>
<path d="M5584 11613 c-3 -10 -34 -85 -69 -168 -73 -173 -83 -215 -50 -215 9
0 15 9 15 25 0 32 20 75 35 75 7 0 18 7 25 15 8 10 18 12 29 6 9 -5 32 -11 51
-15 50 -9 84 -34 70 -51 -9 -10 -6 -16 10 -25 25 -13 36 6 26 46 -7 27 -71 63
-113 64 -13 0 -23 3 -23 8 0 9 86 72 178 131 59 38 77 61 49 61 -23 0 -177
-110 -178 -128 0 -9 -3 -12 -5 -5 -4 8 -22 0 -53 -22 -27 -19 -51 -35 -54 -35
-3 0 14 45 38 100 24 55 45 110 47 122 4 26 -20 36 -28 11z"/>
<path d="M13270 11565 l-33 -64 -41 5 c-39 5 -43 4 -74 -37 -41 -54 -48 -81
-33 -128 10 -34 8 -42 -36 -128 -38 -73 -45 -94 -36 -104 7 -7 14 -11 15 -8 2
2 22 43 46 91 43 86 43 87 76 81 41 -6 83 14 125 62 40 46 44 105 7 132 -23
17 -23 19 -7 53 9 19 19 37 22 40 10 8 29 48 29 59 0 6 -6 11 -14 11 -7 0 -28
-29 -46 -65z m-101 -166 c-31 -45 -44 -58 -50 -48 -15 24 -10 46 17 78 16 19
35 31 50 31 24 0 24 -1 -17 -61z m109 15 c2 -24 -5 -40 -30 -67 -32 -33 -82
-57 -95 -44 -6 6 25 61 65 115 30 41 56 39 60 -4z"/>
<path d="M1972 11598 c-7 -7 -12 -23 -12 -37 0 -15 -11 -60 -24 -101 -30 -94
-51 -229 -38 -242 5 -5 34 -12 65 -15 98 -10 182 49 194 136 5 33 1 41 -31 69
-19 17 -51 34 -71 38 -19 3 -35 10 -35 15 0 5 16 26 35 48 19 21 38 52 41 70
l7 31 -60 0 c-33 0 -64 -5 -71 -12z m88 -29 c0 -5 -20 -31 -45 -57 l-44 -47
15 49 c8 28 20 54 27 58 18 11 47 10 47 -3z m-13 -154 c64 -19 87 -44 78 -84
-13 -59 -97 -109 -166 -99 -30 4 -35 38 -19 123 16 81 23 85 107 60z"/>
<path d="M14846 11529 c-19 -33 -34 -45 -72 -58 -76 -25 -117 -109 -84 -171 8
-15 4 -33 -21 -82 -17 -35 -34 -65 -38 -68 -3 -3 -6 -14 -6 -24 0 -31 24 -30
35 1 5 15 22 52 37 80 23 43 33 53 54 53 69 0 149 65 149 120 0 31 -22 60 -46
60 -20 0 -18 10 16 63 34 53 37 67 16 67 -8 0 -26 -19 -40 -41z m-66 -103 c0
-18 -52 -105 -62 -106 -19 0 -6 61 18 89 28 33 44 39 44 17z m88 -43 c4 -28
-30 -66 -73 -81 -20 -8 -39 -12 -42 -9 -4 5 37 84 59 114 13 17 52 0 56 -24z"/>
<path d="M15247 11563 c-4 -3 -2 -12 3 -18 8 -10 0 -21 -29 -44 -22 -18 -43
-41 -46 -51 -9 -28 3 -60 23 -60 11 0 6 -11 -20 -37 -65 -69 -74 -109 -32
-142 32 -25 62 -20 117 17 41 27 70 63 81 99 6 18 0 29 -24 51 l-31 28 22 20
c55 50 60 110 8 121 -16 3 -29 9 -29 14 0 10 -34 12 -43 2z m73 -66 c0 -36
-75 -92 -107 -80 -21 8 -15 22 25 58 37 35 82 47 82 22z m-27 -147 c31 0 18
-36 -28 -79 -70 -65 -137 -53 -101 17 22 42 66 74 91 68 11 -3 28 -6 38 -6z"/>
<path d="M13866 11548 c-3 -7 -4 -20 -4 -28 1 -8 -17 -58 -40 -111 -55 -130
-60 -149 -34 -149 15 0 21 8 25 33 2 17 25 79 51 136 25 57 46 110 46 117 0
17 -39 19 -44 2z"/>
<path d="M15069 11550 c-1 -5 -3 -14 -4 -20 -1 -5 -3 -16 -4 -23 0 -7 -30 -62
-66 -122 -36 -60 -65 -117 -65 -126 0 -36 19 -28 38 14 11 25 37 71 57 103 42
65 85 152 85 172 0 14 -39 17 -41 2z"/>
<path d="M13435 11522 c-39 -25 -59 -48 -46 -56 6 -4 28 5 50 19 45 30 78 30
73 0 -6 -31 -88 -122 -130 -142 -24 -11 -38 -26 -40 -40 -4 -29 17 -30 49 -4
24 19 24 19 36 -10 12 -30 33 -36 81 -23 37 10 27 34 -15 31 -32 -2 -37 1 -44
25 -5 20 -3 31 9 40 31 26 92 110 92 128 0 48 -61 64 -115 32z"/>
<path d="M14047 11509 c-38 -31 -87 -104 -87 -130 0 -8 -7 -27 -15 -42 -19
-37 -11 -52 34 -67 32 -10 43 -10 69 4 70 36 59 94 -16 82 -47 -7 -53 4 -28
53 16 30 90 101 106 101 6 0 10 7 10 15 0 24 -33 17 -73 -16z m-6 -200 c-25
-20 -42 -21 -48 -2 -2 6 6 13 19 16 48 9 53 7 29 -14z"/>
<path d="M14490 11481 c-25 -10 -45 -24 -45 -30 0 -16 5 -16 63 3 29 10 56 16
59 12 12 -11 -47 -92 -88 -121 -55 -39 -99 -84 -99 -101 0 -20 7 -18 52 17
l39 32 16 -22 c23 -34 58 -43 98 -26 51 21 44 36 -11 28 -41 -5 -49 -3 -63 16
-17 22 -16 24 27 66 29 29 42 50 38 60 -3 9 -2 13 4 10 12 -7 24 39 16 60 -7
20 -50 18 -106 -4z"/>
<path d="M4728 11479 c-35 -20 -41 -47 -19 -85 24 -40 26 -62 9 -99 -13 -30
-16 -30 -47 -9 -19 13 -22 24 -19 55 3 32 0 39 -14 39 -15 0 -18 -9 -18 -44 0
-37 5 -48 31 -70 41 -35 65 -33 89 7 24 39 26 86 3 125 -14 25 -15 32 -4 46
17 20 41 21 41 1 0 -8 9 -15 20 -15 25 0 26 22 2 43 -21 19 -49 21 -74 6z"/>
<path d="M11016 11465 c-58 -39 -100 -87 -115 -130 -7 -22 -34 -81 -58 -132
-40 -82 -47 -113 -25 -113 8 0 52 83 87 164 23 53 27 58 38 41 33 -44 108 -3
167 93 28 45 31 56 22 77 -16 34 -67 34 -116 0z m87 -11 c17 -18 -82 -144
-113 -144 -12 0 -20 11 -24 32 -5 24 -1 37 16 56 43 47 103 74 121 56z"/>
<path d="M3925 11438 c-27 -21 -55 -73 -55 -103 0 -30 55 -75 93 -75 37 0 87
37 87 64 0 27 -17 25 -39 -4 -21 -29 -43 -36 -75 -24 -21 8 -21 24 0 24 25 0
84 65 84 92 0 50 -48 63 -95 26z m65 -29 c0 -16 -47 -59 -65 -59 -25 0 -17 26
16 54 29 25 49 27 49 5z"/>
<path d="M9160 11440 c-14 -11 -32 -20 -40 -20 -17 0 -154 -295 -145 -311 13
-19 23 -6 65 82 30 63 46 87 53 80 20 -20 63 -11 106 20 47 34 74 85 69 133
-3 29 -6 31 -43 34 -28 1 -48 -4 -65 -18z m80 -26 c0 -48 -69 -124 -113 -124
-32 0 -20 48 24 95 43 46 89 61 89 29z"/>
<path d="M5355 11431 c-17 -10 -43 -33 -58 -50 -46 -55 -31 -91 36 -91 46 0
47 21 2 27 -16 3 -32 6 -34 9 -7 7 71 83 92 90 18 6 19 25 1 31 -5 2 -23 -5
-39 -16z"/>
<path d="M8737 11433 c-61 -25 -96 -118 -67 -174 13 -24 66 -26 99 -3 30 22
14 39 -22 23 -14 -6 -33 -9 -41 -6 -22 9 -22 67 -1 67 28 0 92 39 97 58 6 20
-7 52 -20 51 -4 0 -24 -7 -45 -16z m33 -28 c0 -2 -15 -12 -32 -20 l-33 -16 24
21 c22 19 41 26 41 15z"/>
<path d="M6527 11420 c-21 -17 -26 -17 -31 -5 -9 23 -21 18 -33 -15 -7 -18 -7
-30 -2 -30 6 0 7 -5 4 -10 -4 -6 -10 -8 -14 -5 -14 8 -33 -47 -21 -59 8 -8 25
4 61 44 53 58 53 58 33 -25 -10 -38 20 -32 33 8 22 62 25 93 10 105 -11 10
-20 8 -40 -8z"/>
<path d="M5114 11410 c-42 -27 -72 -84 -58 -108 16 -25 50 -26 82 -3 l28 20
11 -30 c8 -20 16 -27 27 -23 12 5 13 10 5 26 -8 15 -7 33 6 70 20 61 7 86 -21
42 -34 -56 -114 -115 -114 -85 0 19 51 70 73 73 25 3 30 31 7 35 -8 2 -29 -6
-46 -17z"/>
<path d="M6337 11410 c-15 -12 -36 -34 -48 -51 -29 -40 -11 -63 43 -56 31 4
37 2 40 -14 2 -11 8 -21 13 -22 12 -2 31 124 22 147 -9 22 -39 20 -70 -4z m43
-34 c0 -17 -17 -31 -50 -41 -25 -7 -25 -7 4 24 32 34 46 39 46 17z"/>
<path d="M8881 11395 c-35 -40 -36 -44 -18 -70 10 -12 22 -16 41 -13 21 4 26
2 25 -11 -1 -9 -1 -22 0 -30 2 -23 31 8 31 33 0 11 9 35 20 51 26 39 25 48 -7
63 -42 19 -58 15 -92 -23z m55 -32 c-29 -24 -46 -29 -46 -13 0 20 39 50 56 43
15 -5 13 -10 -10 -30z"/>
<path d="M9824 11420 c-33 -13 -74 -69 -74 -101 0 -34 30 -46 72 -30 22 8 27
7 31 -11 7 -25 27 -15 27 14 0 11 9 33 21 49 12 18 18 37 14 47 -5 14 -11 11
-38 -20 -45 -51 -97 -75 -97 -44 0 22 41 67 59 64 27 -4 44 11 30 28 -13 16
-16 16 -45 4z"/>
<path d="M10004 11415 c-25 -17 -54 -74 -54 -105 0 -34 22 -19 37 26 16 48 39
67 64 54 24 -13 29 -13 29 5 0 13 -29 35 -47 35 -5 0 -18 -7 -29 -15z"/>
<path d="M10194 11416 c-73 -32 -99 -124 -43 -155 32 -18 140 -5 147 18 4 11
-6 13 -52 7 -62 -7 -96 4 -96 32 0 13 2 14 9 3 7 -11 16 -9 50 10 45 25 61 59
41 84 -15 18 -16 18 -56 1z m31 -36 c-10 -16 -65 -42 -65 -31 0 13 40 41 58
41 7 0 10 -5 7 -10z"/>
<path d="M7860 11382 c-65 -65 -65 -131 0 -166 30 -16 41 -17 77 -7 33 9 44
18 49 37 9 33 0 40 -22 16 -30 -31 -68 -35 -98 -11 -40 32 -34 55 17 62 30 4
50 14 70 37 38 42 32 64 -16 68 -33 3 -43 -2 -77 -36z m57 -17 c-15 -14 -35
-25 -44 -25 -33 0 28 48 62 49 6 0 -3 -11 -18 -24z"/>
<path d="M11176 11380 c-57 -63 -39 -114 26 -77 20 11 28 13 27 4 -3 -26 2
-37 15 -37 8 0 14 8 14 18 -1 9 3 34 7 55 5 25 4 37 -4 37 -6 0 -11 9 -11 20
0 33 -34 24 -74 -20z m47 -23 c-24 -25 -59 -44 -48 -25 16 27 36 45 50 45 13
0 12 -4 -2 -20z"/>
<path d="M11354 11378 c-34 -30 -64 -76 -64 -98 0 -22 31 -9 41 18 21 56 79
93 92 60 4 -10 8 -9 16 2 12 17 0 35 -30 43 -13 4 -32 -5 -55 -25z"/>
<path d="M2312 11392 c-12 -4 -36 -20 -52 -35 -55 -52 -30 -119 45 -119 69 0
93 53 58 127 -9 19 -19 35 -22 34 -3 -1 -16 -4 -29 -7z m36 -92 c-3 -21 -9
-25 -41 -28 -60 -5 -64 45 -6 75 20 11 26 10 37 -5 7 -9 12 -28 10 -42z"/>
<path d="M14150 11286 c-10 -13 -9 -17 5 -22 19 -8 45 4 48 21 3 17 -39 17
-53 1z"/>
<path d="M13592 11278 c-19 -19 -14 -28 18 -28 34 0 39 14 12 29 -13 7 -23 6
-30 -1z"/>
<path d="M3038 11131 c-9 -44 -37 -128 -62 -186 -25 -59 -46 -111 -46 -116 0
-23 29 -5 58 36 30 43 94 86 108 72 3 -3 -2 -26 -11 -51 -16 -41 -14 -66 4
-66 11 0 44 104 39 126 -4 25 -49 30 -89 10 -29 -14 -30 -14 -23 2 24 54 54
154 60 200 5 42 4 52 -8 52 -11 0 -19 -23 -30 -79z"/>
<path d="M2922 11188 c-16 -16 -15 -28 2 -28 11 0 7 -20 -16 -87 -16 -49 -34
-93 -40 -100 -5 -7 -37 -13 -71 -15 -47 -2 -62 -7 -62 -18 0 -12 12 -14 58
-12 31 2 57 2 57 -1 0 -6 -27 -72 -47 -115 -12 -25 -13 -36 -4 -45 15 -15 25
-2 41 48 7 22 23 61 36 87 21 42 28 47 61 50 49 4 57 28 9 28 -20 0 -36 1 -36
3 1 1 16 47 34 102 18 55 31 103 29 108 -7 11 -38 8 -51 -5z"/>
<path d="M12689 11178 c0 -13 -20 -70 -43 -128 l-42 -105 -53 1 c-43 2 -52 -1
-49 -15 2 -11 16 -17 45 -19 l41 -3 -23 -57 c-13 -31 -21 -60 -18 -64 9 -16
24 -7 33 20 37 102 34 99 136 118 62 12 94 22 94 31 0 16 -28 16 -107 -1 -35
-7 -63 -13 -63 -11 0 1 20 55 45 121 25 65 45 122 45 126 0 4 -9 8 -20 8 -14
0 -20 -7 -21 -22z"/>
<path d="M4087 11173 c-4 -3 -3 -11 2 -17 6 -7 0 -33 -16 -70 -22 -54 -25 -86
-6 -86 13 0 66 148 59 165 -6 15 -27 20 -39 8z"/>
<path d="M4924 11153 c-3 -10 -20 -52 -38 -93 l-32 -75 -43 1 c-33 1 -41 -3
-39 -15 2 -8 14 -18 28 -21 27 -6 28 -8 16 -63 -10 -46 13 -80 53 -75 34 4 40
28 7 28 -34 0 -40 16 -23 65 14 40 13 40 100 59 45 10 32 28 -18 24 -25 -2
-45 -2 -45 -1 0 1 16 36 35 79 19 42 35 83 35 90 0 20 -30 17 -36 -3z"/>
<path d="M13586 11160 c-36 -11 -86 -66 -129 -142 -28 -50 -37 -58 -70 -63
-42 -8 -46 -30 -5 -30 l25 1 -23 -63 c-13 -35 -24 -70 -24 -78 0 -28 28 -15
35 16 4 17 18 55 31 84 21 49 26 54 59 57 45 4 50 22 8 26 l-33 3 39 57 c49
72 84 104 107 100 13 -2 20 4 22 20 4 24 1 25 -42 12z"/>
<path d="M7468 11115 c-40 -46 -47 -65 -24 -65 18 0 76 72 76 94 0 25 -12 19
-52 -29z"/>
<path d="M9162 11148 c-11 -15 -42 -102 -42 -121 0 -7 -5 -28 -10 -48 -9 -33
-12 -35 -45 -31 -42 5 -78 -16 -99 -56 -29 -56 21 -98 87 -73 33 13 61 67 91
179 13 49 31 102 40 120 9 17 16 33 16 37 0 10 -28 5 -38 -7z m-90 -262 c-17
-30 -65 -56 -78 -43 -4 3 -4 17 0 31 7 29 50 56 78 48 18 -4 18 -5 0 -36z"/>
<path d="M10261 11146 c-6 -7 -9 -20 -6 -27 3 -8 -3 -36 -13 -64 l-18 -50 -47
3 c-37 3 -47 0 -47 -11 0 -10 14 -18 40 -22 l39 -7 -16 -39 c-21 -54 -11 -107
22 -115 14 -3 32 -3 41 0 22 8 11 32 -13 28 -30 -4 -36 24 -18 78 17 51 33 60
109 60 40 1 75 25 58 42 -9 9 -18 9 -37 0 -23 -11 -95 -17 -95 -9 0 2 9 30 20
62 11 32 20 64 20 72 0 17 -24 17 -39 -1z"/>
<path d="M2322 11135 c-12 -9 -41 -50 -64 -92 -23 -42 -50 -78 -60 -81 -21 -5
-24 -20 -4 -28 12 -5 11 -14 -5 -61 -10 -30 -16 -60 -13 -65 11 -17 31 12 49
73 10 34 24 63 29 65 6 1 30 8 54 14 27 7 42 16 42 26 0 16 -13 15 -73 -2 -18
-6 -18 -4 -2 28 29 56 85 108 118 108 41 0 29 24 -14 28 -19 1 -44 -4 -57 -13z"/>
<path d="M11808 11130 c-17 -13 -28 -34 -32 -62 -10 -60 -61 -162 -105 -208
-41 -44 -61 -50 -61 -21 0 26 38 71 61 71 11 0 19 7 19 16 0 11 -8 14 -32 12
-57 -5 -103 -105 -63 -138 11 -9 22 -9 48 -1 52 18 141 154 162 249 3 17 17
42 31 57 38 41 17 61 -28 25z"/>
<path d="M13309 11118 c-1 -7 -1 -16 0 -21 0 -4 -17 -49 -38 -100 -46 -106
-66 -186 -52 -200 16 -16 28 1 33 46 3 23 23 86 46 139 56 130 60 148 33 148
-12 0 -22 -6 -22 -12z"/>
<path d="M6757 11113 c-12 -11 -8 -23 8 -23 8 0 15 7 15 15 0 16 -12 20 -23 8z"/>
<path d="M8165 11076 c-9 -19 -25 -42 -35 -51 -18 -16 -18 -15 -13 26 8 60
-19 48 -31 -14 -4 -26 -13 -47 -20 -47 -6 0 -31 9 -55 20 -42 20 -68 19 -55
-2 4 -6 26 -19 50 -29 l43 -20 -44 -43 c-44 -42 -53 -60 -37 -70 10 -6 24 4
38 28 5 11 24 30 41 43 l32 25 11 -41 c8 -30 16 -41 30 -41 24 0 24 -1 5 44
l-15 36 48 0 c27 0 57 -6 68 -15 25 -19 44 -19 44 0 0 21 -52 45 -99 45 l-39
0 39 60 c37 54 43 80 19 80 -5 0 -16 -15 -25 -34z"/>
<path d="M12480 11098 c0 -7 5 -20 10 -28 8 -13 11 -13 26 2 9 9 13 21 10 27
-10 15 -46 14 -46 -1z"/>
<path d="M13991 11050 c-14 -56 -42 -97 -59 -86 -6 3 -13 20 -17 36 -5 21 -13
30 -26 30 -23 0 -24 -9 -4 -46 24 -47 20 -54 -35 -54 -38 0 -50 -4 -50 -15 0
-10 10 -15 28 -15 l27 0 -32 -31 c-18 -16 -33 -34 -33 -39 0 -17 18 -20 30 -5
21 25 90 78 96 73 2 -3 -4 -25 -15 -49 -11 -24 -17 -47 -15 -51 11 -17 24 -7
39 29 l15 36 28 -24 c33 -30 77 -59 92 -59 23 0 7 27 -30 50 -23 14 -47 35
-55 46 -13 21 -12 21 46 27 70 6 79 11 56 34 -13 13 -19 14 -29 5 -16 -16 -71
-16 -66 1 3 6 38 36 79 65 41 29 76 57 77 63 7 18 -37 9 -65 -14 -66 -53 -63
-52 -53 -15 13 44 12 58 -3 58 -7 0 -19 -22 -26 -50z"/>
<path d="M5152 11064 c4 -21 22 -23 26 -1 2 10 -3 17 -13 17 -10 0 -15 -6 -13
-16z"/>
<path d="M4274 11028 c-21 -24 -42 -44 -46 -44 -5 -1 -13 -2 -19 -3 -7 0 -9
-11 -5 -25 3 -13 -1 -45 -9 -72 -8 -28 -11 -52 -6 -57 12 -12 31 0 31 19 0 21
58 145 78 167 17 19 17 18 22 -9 8 -43 25 -30 25 18 0 58 -22 60 -71 6z"/>
<path d="M9764 10970 c-36 -27 -51 -34 -50 -23 3 35 -24 21 -59 -32 -53 -79
-36 -87 52 -25 79 55 89 59 73 30 -6 -12 -10 -35 -8 -53 3 -27 7 -32 33 -35
31 -3 95 30 95 48 0 15 -23 12 -46 -5 -25 -19 -54 -19 -54 0 0 8 9 37 20 65
19 47 19 71 2 69 -4 0 -30 -18 -58 -39z"/>
<path d="M2037 10965 c-43 -54 -53 -90 -33 -120 52 -79 176 38 132 123 -23 45
-62 44 -99 -3z m72 -13 c15 -28 -7 -89 -33 -96 -41 -11 -47 -7 -44 26 2 23 9
34 22 36 30 6 47 27 33 41 -8 8 -8 11 1 11 6 0 16 -8 21 -18z"/>
<path d="M3242 10980 c-45 -28 -65 -77 -53 -131 11 -48 23 -59 66 -58 60 0
163 54 164 87 1 19 -18 14 -51 -13 -30 -26 -97 -48 -126 -43 -27 5 -27 45 0
51 13 4 40 24 62 45 33 35 36 43 27 61 -15 26 -46 27 -89 1z m49 -29 c-12 -21
-60 -55 -68 -47 -3 3 8 19 25 36 35 34 59 41 43 11z"/>
<path d="M5550 10982 c-39 -21 -70 -72 -70 -114 0 -36 32 -68 68 -68 32 0 113
39 120 58 6 18 -23 14 -65 -8 -47 -25 -69 -25 -83 -1 -14 27 -13 31 11 31 42
0 109 50 109 82 0 11 -11 23 -26 28 -31 12 -23 13 -64 -8z m55 -32 c-9 -15
-66 -43 -73 -36 -10 11 31 46 55 46 14 0 21 -4 18 -10z"/>
<path d="M6060 10983 c-48 -20 -68 -40 -75 -74 -4 -16 -13 -29 -21 -29 -27 0
-14 -20 26 -40 55 -28 130 -38 130 -17 0 10 -14 17 -45 21 -47 7 -58 20 -27
30 23 8 70 56 72 76 6 44 -10 53 -60 33z m9 -49 c-13 -14 -32 -30 -42 -36 -16
-8 -17 -7 -8 11 10 17 54 49 70 51 3 0 -6 -12 -20 -26z"/>
<path d="M6255 10969 c-33 -29 -35 -30 -35 -9 0 34 -32 21 -35 -15 -1 -16 -6
-45 -9 -62 -10 -42 14 -45 39 -5 27 42 67 82 83 82 14 0 14 -11 -4 -97 -9 -45
12 -43 31 3 27 65 16 134 -22 134 -7 0 -28 -14 -48 -31z"/>
<path d="M6825 10983 c-3 -10 -17 -41 -30 -68 -45 -91 -31 -98 44 -23 28 28
53 49 56 46 3 -2 0 -19 -5 -37 -5 -18 -6 -39 -3 -47 7 -20 38 -35 57 -28 22 9
20 25 -4 31 -23 6 -25 26 -9 72 16 46 0 60 -44 39 -32 -15 -33 -15 -33 5 1 26
-22 34 -29 10z"/>
<path d="M6640 10948 c-18 -41 -17 -66 4 -80 17 -12 33 -9 50 8 23 23 19 35
-9 28 -29 -7 -32 4 -10 45 14 27 11 41 -7 41 -5 0 -17 -19 -28 -42z"/>
<path d="M7095 10970 c-52 -26 -64 -46 -56 -95 4 -28 13 -43 31 -52 33 -17 93
-16 135 1 42 18 48 41 8 32 -68 -16 -102 -17 -122 -7 -30 16 -27 41 5 41 57 0
110 54 84 85 -17 20 -37 19 -85 -5z m56 -24 c-13 -15 -60 -30 -69 -22 -5 6 54
35 72 36 5 0 3 -6 -3 -14z"/>
<path d="M11217 10984 c-3 -3 -4 -11 -1 -17 2 -7 -19 -38 -46 -70 -49 -58 -62
-87 -37 -87 7 0 18 9 24 20 13 19 111 90 126 90 4 0 -2 -18 -13 -41 -25 -48
-23 -92 4 -97 16 -3 18 0 12 22 -7 27 9 67 47 119 30 40 11 55 -42 33 -23 -9
-41 -12 -41 -7 0 6 5 13 10 16 18 11 11 25 -13 25 -13 0 -26 -3 -30 -6z"/>
<path d="M4376 10961 c-19 -21 -36 -74 -36 -112 0 -33 29 -60 56 -53 40 11
136 149 117 168 -13 13 -23 5 -37 -27 -17 -42 -73 -107 -92 -107 -21 0 -17 49
6 95 11 22 20 43 20 47 0 14 -16 9 -34 -11z"/>
<path d="M4531 10916 c-17 -35 -31 -67 -31 -70 0 -16 27 -2 72 39 53 47 75 57
63 28 -16 -43 -17 -79 -1 -93 13 -10 20 -10 29 -1 9 9 9 14 -2 20 -10 7 -10
19 5 65 24 75 10 87 -56 49 -25 -14 -39 -20 -32 -12 16 18 15 39 -2 39 -8 0
-29 -29 -45 -64z"/>
<path d="M5233 10956 c-21 -18 -33 -22 -41 -14 -14 14 -34 0 -28 -20 3 -10 -1
-30 -9 -46 -19 -36 -19 -56 0 -56 8 0 15 4 15 9 0 14 81 113 87 107 3 -3 -4
-25 -16 -49 -11 -24 -21 -46 -21 -50 0 -17 28 -4 58 27 17 18 48 43 68 55 l36
21 -7 -30 c-8 -36 2 -70 19 -70 9 0 14 14 14 38 1 20 2 48 4 62 4 35 -30 38
-81 6 l-40 -25 -3 26 c-4 36 -20 39 -55 9z"/>
<path d="M8555 10949 c-57 -51 -40 -127 23 -103 l27 10 0 -50 c0 -45 3 -51 23
-54 25 -4 27 1 10 28 -10 15 -10 28 0 62 31 102 25 111 -35 58 -39 -35 -53
-38 -53 -11 0 24 55 67 65 51 5 -8 11 -7 21 1 11 9 11 15 3 25 -18 22 -46 16
-84 -17z"/>
<path d="M9960 10940 c-54 -57 -66 -110 -29 -133 24 -15 60 -2 102 39 49 48
49 88 0 117 l-33 19 -40 -42z m64 -6 c9 -3 16 -14 16 -24 0 -20 -66 -80 -87
-80 -24 0 -13 40 20 75 38 40 32 36 51 29z"/>
<path d="M11872 10963 c-18 -9 -41 -26 -51 -39 -11 -13 -24 -24 -29 -24 -17 0
-23 -18 -13 -37 5 -10 12 -26 15 -36 8 -25 54 -39 106 -32 56 9 80 21 80 41 0
12 -5 14 -17 9 -47 -20 -113 -27 -128 -15 -22 18 -19 27 14 33 36 7 91 53 91
76 0 16 -18 41 -29 41 -4 0 -21 -8 -39 -17z m28 -31 c0 -4 -13 -16 -30 -25
-35 -21 -41 -7 -7 16 25 18 37 21 37 9z"/>
<path d="M12420 10965 c-7 -8 -10 -15 -7 -15 3 0 -3 -19 -13 -42 -23 -50 -25
-78 -7 -78 11 0 57 103 57 128 0 19 -17 22 -30 7z"/>
<path d="M12885 10973 c-47 -12 -56 -38 -30 -87 22 -41 4 -60 -47 -52 -30 5
-38 3 -38 -9 0 -37 71 -39 109 -4 25 24 26 36 5 78 -19 38 -18 40 27 44 22 2
34 8 34 17 0 16 -27 21 -60 13z"/>
<path d="M6438 10954 c-32 -17 -48 -43 -48 -78 0 -29 25 -35 61 -16 23 13 25
-2 7 -96 l-11 -64 -52 6 c-32 4 -60 2 -73 -5 -42 -22 -46 -118 -6 -162 38 -42
95 -10 132 74 15 34 27 47 41 47 25 0 27 15 4 28 -14 8 -15 17 -5 68 20 103
24 184 11 200 -14 17 -27 17 -61 -2z m32 -33 c0 -12 -42 -42 -49 -36 -5 6 29
45 41 45 4 0 8 -4 8 -9z m-58 -250 l27 -6 -27 -49 c-36 -66 -57 -78 -81 -47
-10 13 -17 31 -15 40 13 69 14 71 42 70 15 -1 39 -4 54 -8z"/>
<path d="M11430 10924 c-88 -80 -10 -157 85 -83 27 22 32 53 13 94 -16 36 -50
32 -98 -11z m74 -10 c11 -28 -3 -52 -36 -63 -56 -20 -66 12 -17 53 36 30 45
32 53 10z"/>
<path d="M5051 10936 c-9 -11 -9 -15 0 -18 10 -3 10 -15 -1 -52 -9 -34 -10
-50 -2 -58 12 -12 26 15 41 83 11 50 -12 77 -38 45z"/>
<path d="M8797 10930 c-14 -11 -31 -19 -38 -18 -16 4 -70 -94 -59 -106 6 -6
32 14 68 52 74 80 115 85 76 11 -18 -35 -12 -68 9 -50 20 16 40 85 32 110 -8
28 -53 28 -88 1z"/>
<path d="M12979 10927 c-29 -20 -34 -29 -33 -60 2 -46 28 -77 65 -77 55 0 129
21 129 37 0 12 -8 13 -42 7 -73 -14 -112 -11 -116 8 -2 11 8 20 31 27 49 17
81 49 66 67 -17 21 -62 17 -100 -9z"/>
<path d="M5593 10713 c-32 -49 -67 -107 -77 -131 -18 -39 -22 -42 -54 -40 -45
4 -56 -20 -13 -28 17 -4 31 -7 31 -8 0 0 -7 -23 -15 -49 -23 -77 -1 -112 65
-98 31 6 32 8 17 23 -10 10 -25 14 -38 11 -21 -6 -22 -3 -17 33 3 21 11 51 17
67 9 23 16 27 51 27 29 0 40 4 40 15 0 10 -10 15 -31 15 -27 0 -30 3 -23 23 8
26 105 180 116 185 11 5 10 30 -1 37 -5 3 -36 -34 -68 -82z"/>
<path d="M10915 10790 c-4 -6 -5 -14 -2 -16 7 -7 -34 -128 -62 -182 -24 -46
-69 -72 -127 -72 -24 0 -34 -5 -34 -15 0 -18 54 -21 95 -5 l27 10 -23 -37
c-12 -21 -33 -54 -46 -73 -26 -39 -29 -60 -10 -60 6 0 35 38 62 85 39 64 57
85 79 92 36 10 47 33 16 33 -17 0 -20 4 -15 18 35 80 76 197 73 210 -4 19 -24
27 -33 12z"/>
<path d="M9205 10750 c-3 -5 18 -41 46 -81 127 -174 130 -296 9 -432 -49 -56
-153 -132 -193 -142 -34 -9 -44 -23 -21 -32 48 -18 254 149 304 246 30 60 37
143 16 213 -15 53 -130 238 -147 238 -4 0 -11 -4 -14 -10z"/>
<path d="M4466 10718 c-16 -22 -34 -73 -56 -159 -10 -41 -14 -45 -36 -41 -51
9 -114 -67 -100 -122 8 -32 39 -50 64 -37 28 15 90 130 103 190 19 95 48 161
70 161 10 0 19 7 19 15 0 23 -47 18 -64 -7z m-91 -239 c8 -12 -40 -89 -55 -89
-19 0 -22 28 -6 58 20 38 48 53 61 31z"/>
<path d="M2493 10657 c-2 -85 -28 -212 -49 -244 -8 -13 -22 -23 -30 -23 -10 0
-14 -6 -10 -15 3 -8 1 -15 -4 -15 -6 0 -10 4 -10 9 0 5 -9 11 -21 14 -16 4
-19 10 -14 29 9 30 34 58 52 58 19 0 16 19 -4 27 -22 8 -83 -58 -83 -91 0 -60
77 -76 131 -28 36 32 54 90 70 229 12 96 9 123 -13 123 -9 0 -14 -21 -15 -73z"/>
<path d="M2092 10708 c-6 -7 -22 -59 -36 -114 -28 -111 -72 -217 -80 -193 -3
7 -10 68 -16 134 -12 140 -17 165 -36 165 -28 0 -51 -56 -93 -230 -11 -47 -23
-95 -27 -107 -5 -17 -2 -23 9 -23 18 0 41 63 62 172 8 42 21 92 28 110 l14 33
6 -50 c4 -27 9 -86 13 -130 3 -44 10 -88 15 -97 30 -57 90 29 129 183 11 46
26 97 32 112 13 32 -1 57 -20 35z"/>
<path d="M7192 10703 c-85 -41 -183 -208 -203 -346 -11 -72 -10 -79 12 -124
18 -36 35 -54 69 -70 24 -13 53 -23 65 -22 11 0 14 3 7 6 -6 2 -10 9 -6 14 3
5 2 8 -3 7 -4 -1 -19 4 -33 11 -77 42 -98 95 -76 199 27 132 122 278 197 304
16 5 29 16 29 24 0 18 -17 17 -58 -3z"/>
<path d="M15781 10637 c-6 -16 -11 -40 -11 -55 0 -43 -12 -102 -20 -102 -4 0
-10 9 -13 20 -11 41 -102 15 -125 -35 -23 -50 -8 -105 28 -105 24 0 26 18 4
35 -23 16 -6 65 29 85 24 13 28 13 40 -4 9 -12 19 -16 27 -11 9 5 6 -5 -6 -25
-11 -19 -30 -37 -43 -40 -20 -4 -21 -7 -9 -17 42 -35 102 56 117 177 11 83 0
126 -18 77z"/>
<path d="M7426 10641 c-8 -12 21 -34 33 -27 6 4 8 13 4 21 -6 17 -29 20 -37 6z"/>
<path d="M8280 10628 c-11 -12 -38 -52 -60 -89 -22 -38 -45 -71 -50 -74 -6 -4
-8 -11 -5 -16 4 -5 2 -9 -4 -9 -10 0 -61 -68 -61 -82 0 -20 31 -5 47 22 15 27
22 30 66 30 48 0 49 -1 43 -25 -9 -35 2 -51 20 -28 7 10 14 24 14 31 0 8 10
22 23 33 19 16 20 18 4 19 -14 0 -17 5 -11 22 21 67 21 188 0 188 -3 0 -14
-10 -26 -22z m0 -135 c-11 -51 -12 -53 -46 -53 -36 0 -43 10 -20 32 7 8 21 30
31 48 10 19 23 41 29 49 17 22 20 -13 6 -76z"/>
<path d="M8734 10629 c-3 -6 -2 -15 3 -20 13 -13 43 -1 43 17 0 16 -36 19 -46
3z"/>
<path d="M10622 10623 c2 -10 10 -18 18 -18 22 0 18 29 -3 33 -14 3 -18 -1
-15 -15z"/>
<path d="M4250 10610 c0 -23 10 -26 28 -8 18 18 15 28 -8 28 -13 0 -20 -7 -20
-20z"/>
<path d="M5756 10614 c-4 -9 -4 -19 -1 -23 8 -7 41 14 38 25 -4 17 -30 15 -37
-2z"/>
<path d="M3423 10575 c-18 -8 -44 -32 -60 -57 -28 -44 -124 -314 -115 -323 16
-15 30 3 56 70 28 72 30 75 62 75 54 0 123 85 138 170 7 38 1 52 -29 68 -15 7
-29 7 -52 -3z m53 -39 c8 -20 -31 -105 -63 -138 -15 -16 -37 -28 -50 -28 -27
0 -27 -1 -7 59 28 86 103 152 120 107z"/>
<path d="M3592 10523 c-53 -58 -88 -121 -74 -135 7 -7 19 3 36 30 14 22 40 57
57 77 l33 37 17 -24 c16 -21 18 -21 24 -5 8 19 -19 67 -37 67 -6 0 -32 -21
-56 -47z"/>
<path d="M13445 10534 c-33 -20 -79 -54 -101 -76 l-41 -40 1 37 c1 48 -21 65
-58 45 -14 -7 -26 -22 -26 -32 0 -22 4 -22 37 -1 l26 17 -7 -29 c-15 -62 -71
-110 -119 -103 -20 3 -19 6 19 48 48 53 49 88 2 43 -26 -23 -29 -24 -19 -6 15
29 14 53 -1 53 -7 0 -31 -40 -52 -88 -22 -48 -59 -116 -83 -151 -27 -40 -42
-70 -38 -80 5 -13 12 -9 36 19 16 19 45 57 64 85 32 45 38 49 69 47 19 -2 48
4 65 12 16 9 32 16 35 16 3 0 -6 -23 -19 -51 -22 -48 -24 -79 -5 -79 5 0 37
43 73 96 40 59 68 91 72 83 12 -18 88 -5 130 24 46 31 75 73 75 108 0 51 -53
52 -135 3z m105 -8 c0 -23 -46 -72 -84 -90 -45 -21 -69 -21 -64 2 2 9 10 16
16 15 7 -2 12 6 12 16 0 13 16 29 43 45 47 29 77 33 77 12z"/>
<path d="M8438 10518 c-35 -35 -50 -62 -82 -148 -48 -133 -52 -150 -35 -150 8
0 31 38 51 83 l37 82 42 1 c35 0 47 6 75 37 38 41 44 79 18 115 -23 34 -57 27
-106 -20z m80 0 c34 -34 -9 -98 -65 -98 -31 0 -34 2 -28 23 7 21 63 87 75 87
3 0 11 -5 18 -12z"/>
<path d="M11446 10530 l-48 -31 7 -49 c6 -42 4 -50 -14 -59 -11 -7 -32 -9 -47
-5 -22 6 -25 4 -22 -12 7 -41 103 -22 114 23 4 13 4 38 1 56 -4 29 -1 34 40
59 24 16 41 32 38 38 -9 15 -17 13 -69 -20z"/>
<path d="M12789 10552 c-58 -25 -152 -143 -131 -164 11 -11 11 -10 72 68 40
52 72 74 78 55 5 -16 32 -13 32 3 0 12 -27 48 -33 45 -1 0 -9 -3 -18 -7z"/>
<path d="M2617 10530 c-15 -12 -36 -39 -46 -60 l-19 -39 33 -35 c26 -28 40
-36 68 -36 48 0 87 16 87 36 0 11 -5 14 -16 10 -36 -14 -65 -18 -89 -12 -35 9
-31 23 9 40 40 17 59 46 54 84 -4 36 -44 41 -81 12z m53 -23 c0 -16 -27 -41
-52 -50 -26 -9 -22 6 8 37 29 29 44 33 44 13z"/>
<path d="M4760 10537 c-28 -15 -31 -42 -9 -94 16 -38 5 -55 -29 -46 -18 4 -20
8 -11 19 16 20 -18 31 -37 12 -22 -22 -7 -46 36 -59 71 -21 103 28 65 101 -17
32 0 57 17 26 8 -14 13 -15 24 -5 20 16 17 36 -5 49 -24 12 -21 12 -51 -3z"/>
<path d="M5610 10535 c0 -9 6 -12 15 -9 8 4 15 10 15 15 0 5 -7 9 -15 9 -8 0
-15 -7 -15 -15z"/>
<path d="M6625 10536 c-17 -7 -36 -20 -44 -29 -14 -18 -15 -15 35 -84 19 -27
11 -43 -22 -43 -21 0 -23 3 -14 19 13 26 -4 36 -25 15 -22 -22 -15 -46 17 -62
35 -16 75 -1 84 32 6 24 -21 86 -38 86 -4 0 -8 6 -8 14 0 20 33 25 46 7 10
-13 14 -13 28 -2 21 18 20 38 -3 51 -23 12 -19 12 -56 -4z"/>
<path d="M10980 10522 c-25 -16 -51 -40 -59 -55 -17 -32 -8 -97 16 -114 20
-16 99 -17 108 -3 10 16 -16 43 -29 30 -17 -17 -55 -11 -66 9 -16 32 -12 38
32 53 50 16 88 60 72 85 -16 26 -26 25 -74 -5z m26 -37 c-11 -8 -25 -15 -30
-15 -6 0 -2 7 8 15 11 8 25 15 30 15 6 0 2 -7 -8 -15z"/>
<path d="M11197 10524 c-12 -14 -32 -30 -43 -34 -13 -5 -24 -21 -28 -39 -3
-17 -9 -44 -12 -61 -5 -23 -3 -30 9 -30 14 0 54 86 48 105 -1 6 0 7 4 3 4 -4
19 7 32 23 15 18 32 28 40 25 20 -8 33 2 26 19 -9 24 -51 17 -76 -11z"/>
<path d="M12338 10523 c-27 -14 -48 -32 -48 -40 0 -19 12 -16 61 12 24 14 47
25 52 25 20 0 2 -36 -38 -79 -68 -72 -55 -98 21 -43 63 45 62 45 62 6 0 -20 6
-40 14 -45 19 -12 73 -11 101 2 26 12 67 75 67 103 0 26 -27 18 -34 -10 -10
-39 -50 -74 -85 -74 -28 0 -30 3 -33 43 -2 35 -7 43 -25 45 -19 3 -21 6 -13
23 14 26 -4 59 -33 59 -12 0 -43 -12 -69 -27z"/>
<path d="M13884 10524 c-21 -15 -41 -31 -42 -36 -2 -5 -15 -22 -28 -37 -26
-32 -32 -71 -10 -71 7 0 19 13 26 30 15 36 102 119 108 102 5 -16 32 -15 32 1
0 16 -20 37 -36 37 -6 0 -29 -12 -50 -26z"/>
<path d="M14085 10526 c-21 -21 -23 -29 -15 -58 14 -48 12 -75 -6 -82 -22 -8
-49 13 -34 28 17 17 12 36 -10 36 -12 0 -22 -9 -26 -24 -14 -55 43 -93 92 -61
25 16 26 21 21 74 -6 59 2 81 31 81 9 0 11 -7 7 -21 -6 -17 -3 -20 11 -17 23
4 30 34 14 53 -19 22 -58 18 -85 -9z"/>
<path d="M14662 10530 c-44 -20 -84 -72 -80 -104 5 -33 33 -42 72 -24 29 14
35 15 40 2 3 -8 13 -14 22 -14 12 0 15 6 11 21 -3 12 3 39 14 60 23 46 23 49
4 49 -8 0 -15 4 -15 9 0 18 -28 19 -68 1z m42 -28 c8 -14 -22 -51 -56 -68 -37
-19 -42 -15 -26 20 16 36 70 67 82 48z"/>
<path d="M14866 10526 c-17 -13 -37 -21 -45 -19 -12 3 -22 -13 -39 -59 -28
-77 -31 -93 -14 -93 7 0 27 27 45 59 35 63 86 111 94 89 3 -7 11 -13 19 -13
21 0 17 38 -5 50 -25 13 -21 14 -55 -14z"/>
<path d="M4550 10529 c-38 -16 -59 -39 -66 -74 -11 -61 33 -102 93 -86 44 12
36 37 -11 33 -25 -3 -42 1 -47 10 -14 21 -11 25 25 32 48 9 72 39 58 71 -13
27 -16 28 -52 14z m20 -38 c0 -5 -9 -11 -20 -14 -22 -6 -28 8 -7 16 19 8 27 8
27 -2z"/>
<path d="M13651 10526 c-49 -18 -81 -59 -81 -105 0 -52 25 -73 81 -69 61 4 62
26 2 30 -40 3 -48 6 -51 24 -3 18 4 23 35 29 52 9 105 51 101 78 -4 27 -38 32
-87 13z m42 -31 c-11 -8 -33 -19 -48 -25 -38 -14 -22 8 19 26 41 18 55 18 29
-1z m-6 -131 c-3 -3 -12 -4 -19 -1 -8 3 -5 6 6 6 11 1 17 -2 13 -5z"/>
<path d="M15441 10526 c-19 -10 -29 -11 -42 -3 -10 6 -20 9 -22 7 -12 -17 -67
-130 -67 -139 0 -25 28 -8 58 34 30 42 113 97 127 83 3 -3 -3 -31 -14 -62 -19
-55 -16 -71 11 -61 16 6 44 127 33 144 -9 15 -55 13 -84 -3z"/>
<path d="M6404 10498 c-21 -18 -45 -32 -55 -30 -23 4 -65 -114 -48 -135 13
-15 29 -8 29 12 0 19 86 132 111 145 13 7 19 7 19 0 0 -5 7 -10 15 -10 18 0
20 21 3 38 -19 19 -34 14 -74 -20z"/>
<path d="M7539 10518 c-97 -24 -110 -133 -18 -153 57 -13 151 17 136 42 -5 7
-21 6 -49 -4 -67 -23 -156 3 -92 27 44 17 84 50 84 70 0 24 -17 29 -61 18z
m-3 -43 c-20 -15 -36 -19 -36 -10 0 5 38 23 50 24 3 0 -4 -6 -14 -14z"/>
<path d="M8673 10512 c-28 -21 -56 -87 -48 -113 12 -38 76 -48 97 -15 14 21 8
25 -27 19 -33 -5 -35 -4 -35 21 0 15 11 38 25 52 39 38 29 67 -12 36z"/>
<path d="M9782 10509 c-23 -12 -50 -34 -59 -50 -10 -16 -23 -29 -30 -29 -15 0
-17 -16 -3 -25 6 -3 10 -16 10 -28 0 -41 27 -67 71 -67 39 0 100 20 126 42 26
22 -8 27 -51 7 -51 -23 -102 -25 -110 -3 -9 24 -7 34 7 34 24 0 108 62 120 88
9 20 8 26 -8 38 -24 18 -22 18 -73 -7z m20 -49 c-18 -17 -40 -30 -50 -30 -13
1 -9 8 16 30 18 17 40 30 50 30 13 -1 9 -8 -16 -30z"/>
<path d="M15061 10523 c-24 -10 -60 -57 -61 -79 0 -25 15 -40 50 -49 34 -8 80
27 80 60 0 20 -39 77 -51 74 -2 0 -10 -3 -18 -6z m37 -63 c6 -18 -25 -39 -48
-33 -22 6 -26 23 -8 41 14 14 51 9 56 -8z"/>
<path d="M15187 10495 c-29 -61 7 -109 61 -83 32 16 73 74 65 94 -8 21 -33 17
-33 -6 0 -23 -33 -60 -55 -60 -19 0 -19 29 0 54 20 26 19 36 -3 36 -11 0 -25
-14 -35 -35z"/>
<path d="M2157 10492 c-35 -37 -36 -84 -2 -117 13 -14 32 -25 42 -25 46 0 88
63 72 107 -7 20 -62 63 -80 63 -3 0 -17 -13 -32 -28z m57 -22 c30 -11 35 -49
10 -74 -19 -20 -23 -20 -46 1 -21 18 -24 53 -6 71 14 14 11 14 42 2z"/>
<path d="M4028 10510 c-11 -7 -19 -30 -23 -65 -5 -33 -14 -60 -26 -71 -18 -16
-18 -14 -17 48 1 67 -6 93 -23 83 -11 -8 -12 -145 0 -164 14 -21 58 -5 76 28
8 16 17 48 21 71 l7 41 38 -6 c31 -5 39 -4 39 8 0 8 -14 20 -31 26 -38 13 -39
13 -61 1z"/>
<path d="M6089 10469 c-49 -53 -53 -74 -20 -112 13 -16 24 -18 70 -12 72 9
123 33 108 50 -10 10 -17 10 -37 0 -42 -21 -117 -28 -123 -11 -4 10 4 16 28
20 39 8 100 70 91 93 -3 8 -6 17 -6 19 0 2 -14 4 -32 4 -25 0 -41 -10 -79 -51z
m79 9 c-6 -17 -56 -53 -64 -45 -8 7 41 57 56 57 7 0 10 -5 8 -12z"/>
<path d="M8900 10507 c-33 -17 -36 -42 -10 -89 12 -22 20 -42 17 -45 -12 -11
-47 10 -47 29 0 11 -5 18 -12 16 -7 -3 -13 -15 -13 -29 0 -29 45 -54 81 -45
30 8 32 47 4 83 -32 40 -27 56 15 49 30 -6 35 -4 35 12 0 31 -30 39 -70 19z"/>
<path d="M3733 10486 c-11 -14 -26 -39 -33 -56 -10 -25 -10 -34 4 -55 42 -64
143 7 134 95 -3 33 -5 35 -44 38 -35 3 -45 -1 -61 -22z m77 -31 c0 -14 -11
-37 -25 -50 -13 -14 -21 -25 -18 -25 4 0 4 -2 1 -5 -11 -11 -38 8 -38 27 0 34
32 78 57 78 18 0 23 -6 23 -25z"/>
<path d="M5943 10490 c-20 -12 -35 -15 -38 -9 -7 11 -73 8 -92 -4 -18 -11 -64
-98 -57 -109 3 -5 30 14 61 43 30 28 57 48 60 45 3 -3 -1 -14 -10 -24 -19 -21
-23 -52 -7 -52 6 0 30 20 53 45 47 49 79 60 70 24 -3 -11 -12 -23 -19 -26 -24
-9 -17 -43 9 -43 19 0 25 8 36 50 10 40 10 54 1 65 -16 20 -29 19 -67 -5z"/>
<path d="M9956 10457 c-14 -32 -26 -64 -26 -72 0 -27 19 -26 34 2 8 15 26 39
41 53 26 23 27 23 16 3 -32 -61 4 -70 73 -17 45 34 47 35 41 11 -4 -14 -2 -28
4 -31 14 -9 31 26 31 63 0 40 -20 40 -71 0 l-40 -31 12 26 c18 38 0 53 -37 33
-25 -13 -30 -13 -40 1 -10 13 -16 7 -38 -41z"/>
<path d="M10290 10485 c-40 -29 -41 -30 -34 -10 4 9 0 15 -10 15 -18 0 -66
-78 -66 -108 0 -32 21 -27 53 13 34 43 49 45 34 5 -6 -16 -8 -32 -4 -36 4 -4
33 12 66 34 33 23 64 42 70 42 6 0 2 -19 -9 -46 -19 -43 -19 -64 0 -64 14 0
21 33 8 42 -10 6 -8 8 5 8 15 0 22 11 18 33 0 4 4 7 10 7 16 0 6 42 -13 53
-12 8 -26 4 -59 -18 l-43 -28 18 27 c17 26 16 56 -2 56 -4 0 -23 -11 -42 -25z"/>
<path d="M4182 10479 c-36 -96 -37 -100 -22 -109 20 -12 60 104 42 122 -8 8
-13 5 -20 -13z"/>
<path d="M5669 10443 c-13 -32 -25 -61 -27 -65 -2 -4 3 -8 12 -8 9 0 28 25 46
60 35 70 35 70 12 70 -13 0 -26 -18 -43 -57z"/>
<path d="M7307 10456 c-23 -24 -52 -49 -64 -55 -13 -6 -23 -18 -23 -26 0 -17
18 -19 40 -5 10 6 20 4 32 -6 23 -21 41 -9 26 16 -11 17 -8 25 25 58 20 21 37
43 37 50 0 24 -32 11 -73 -32z"/>
<path d="M12858 10469 c-21 -11 -38 -26 -38 -34 0 -19 37 -38 63 -31 14 3 26
-3 39 -20 23 -28 38 -23 38 12 0 14 7 36 16 49 15 22 15 25 1 31 -9 3 -21 3
-27 -1 -5 -3 -10 -1 -10 4 0 17 -41 12 -82 -10z m51 -23 c-2 -2 -15 -7 -29
-10 l-25 -7 25 15 c21 12 42 14 29 2z"/>
<path d="M10540 10462 c0 -5 -9 -18 -21 -30 -22 -24 -22 -53 -2 -59 7 -3 17 7
22 20 6 14 15 28 20 32 16 10 13 45 -4 45 -8 0 -15 -4 -15 -8z"/>
<path d="M11848 10459 c-10 -5 -18 -17 -18 -26 0 -11 5 -13 18 -7 9 4 52 10
95 13 42 3 78 11 80 16 3 14 -153 18 -175 4z"/>
<path d="M5530 10411 c0 -11 26 -22 34 -14 3 3 3 10 0 14 -7 12 -34 11 -34 0z"/>
<path d="M7704 10389 c-3 -6 -1 -16 4 -21 13 -13 45 8 36 23 -7 12 -31 11 -40
-2z"/>
<path d="M7378 10353 c-21 -5 -24 -33 -4 -33 25 0 46 12 46 26 0 14 -10 16
-42 7z"/>
<path d="M12707 10293 c-4 -3 -7 -18 -7 -31 0 -14 -13 -52 -29 -86 -15 -34
-31 -70 -35 -81 -5 -17 -13 -20 -41 -17 -45 5 -88 -5 -82 -21 2 -7 23 -12 53
-12 l49 0 0 -67 c0 -72 18 -107 49 -95 20 8 21 27 2 27 -17 0 -26 45 -18 90
l7 35 87 1 c67 0 90 4 103 18 10 9 16 19 13 21 -2 2 -35 -1 -74 -7 -39 -6 -83
-8 -97 -4 l-27 6 20 50 c11 28 31 73 46 101 14 28 23 57 20 65 -6 15 -28 19
-39 7z"/>
<path d="M7830 10245 c-6 -14 -10 -32 -10 -38 0 -7 -17 -46 -38 -87 -21 -41
-39 -78 -40 -83 -1 -4 -13 -27 -27 -51 -30 -52 -44 -116 -25 -116 6 0 14 10
18 23 3 12 32 75 64 139 32 64 58 121 58 126 0 5 7 23 15 38 8 16 15 37 15 46
0 29 -19 31 -30 3z"/>
<path d="M4125 10174 l-37 -77 -59 6 c-44 4 -59 2 -59 -8 0 -14 31 -25 72 -25
27 0 27 0 12 -35 -29 -70 -7 -139 44 -133 34 4 42 28 8 28 -35 0 -44 37 -21
95 15 41 20 45 50 45 60 0 95 11 95 31 0 15 -4 16 -32 8 -18 -5 -43 -9 -54 -9
-21 0 -21 1 7 58 31 61 34 78 20 87 -5 3 -26 -29 -46 -71z"/>
<path d="M5965 10223 c-165 -15 -179 -18 -170 -33 7 -11 190 -4 209 7 12 8 0
-27 -50 -144 -24 -57 -44 -111 -44 -122 0 -14 -10 -19 -50 -24 -27 -3 -72 -3
-100 0 -41 5 -50 3 -50 -9 0 -23 81 -30 212 -18 62 6 142 11 178 13 111 4 65
22 -56 22 l-111 0 13 35 c7 19 32 82 56 140 l44 105 54 8 c51 7 134 3 163 -9
7 -2 21 2 32 11 19 14 19 15 1 8 -12 -4 -17 -3 -13 4 7 12 -62 24 -127 22 -23
-1 -108 -8 -191 -16z"/>
<path d="M2036 10190 c-115 -58 -142 -229 -44 -290 27 -17 43 -20 83 -15 131
16 175 110 114 241 -11 23 -19 45 -18 50 8 43 -61 51 -135 14z m85 -22 c26
-22 48 -64 59 -113 18 -81 -17 -126 -108 -141 -32 -5 -43 -1 -69 20 -17 15
-34 40 -38 55 -15 67 37 162 98 180 43 12 41 13 58 -1z"/>
<path d="M6359 10193 c-5 -15 -26 -53 -45 -84 -29 -49 -40 -58 -67 -61 -20 -2
-32 -8 -32 -18 0 -10 8 -14 23 -13 26 3 26 3 7 -33 -31 -59 -10 -98 46 -87 20
4 27 11 27 29 0 26 -25 33 -46 12 -18 -18 -15 0 9 47 20 41 24 43 76 49 60 7
93 20 93 37 0 11 -12 10 -103 -8 l-28 -6 40 67 c23 36 41 73 41 81 0 25 -30
16 -41 -12z"/>
<path d="M2334 10186 c-18 -14 -17 -17 32 -68 68 -70 84 -96 84 -134 0 -45
-19 -93 -42 -105 -16 -9 -26 -4 -59 29 -25 26 -39 49 -39 65 0 32 -16 43 -28
20 -19 -34 34 -121 87 -143 26 -11 35 -10 57 5 32 21 54 72 54 127 0 49 -13
72 -79 142 l-46 48 53 -6 c54 -7 69 4 33 24 -28 15 -84 12 -107 -4z"/>
<path d="M10510 10181 c-5 -11 -21 -55 -35 -98 -23 -73 -67 -153 -83 -153 -46
1 -37 73 11 78 30 4 38 35 12 46 -25 9 -85 -56 -85 -92 0 -35 35 -66 67 -60
31 6 82 86 108 174 17 55 33 88 46 94 11 6 17 15 14 21 -10 16 -44 10 -55 -10z"/>
<path d="M4340 10130 c0 -13 7 -20 19 -20 28 0 35 17 12 29 -27 15 -31 14 -31
-9z"/>
<path d="M10297 10133 c-13 -12 -7 -23 13 -23 11 0 20 7 20 15 0 15 -21 21
-33 8z"/>
<path d="M12047 10113 c-8 -10 -22 -44 -30 -75 -8 -31 -25 -70 -37 -85 l-21
-28 1 70 c2 95 2 95 -15 95 -16 0 -18 -16 -17 -108 0 -53 13 -82 38 -82 21 0
57 56 79 123 18 54 23 62 48 65 29 4 37 26 11 36 -26 10 -40 7 -57 -11z"/>
<path d="M3183 10105 c-39 -27 -83 -110 -99 -186 -8 -41 -22 -89 -30 -107 -9
-19 -13 -36 -10 -39 13 -14 37 11 63 65 21 45 33 60 49 60 52 0 114 77 114
141 0 70 -39 100 -87 66z m53 -40 c9 -36 -4 -76 -34 -107 -30 -32 -69 -39 -54
-10 5 9 13 35 16 57 7 37 39 85 58 85 4 0 10 -11 14 -25z"/>
<path d="M14322 10105 c-39 -17 -78 -92 -68 -131 8 -31 57 -61 111 -70 65 -9
209 63 161 82 -8 3 -27 -3 -42 -15 -56 -44 -144 -45 -187 -3 -24 25 -15 42 23
42 41 0 90 44 90 81 0 25 -4 29 -27 29 -16 -1 -43 -7 -61 -15z m58 -24 c0 -14
-42 -41 -63 -41 -17 0 -18 2 -6 16 21 25 69 42 69 25z"/>
<path d="M4973 10100 c-70 -16 -80 -47 -32 -96 33 -34 32 -54 -2 -54 -27 0
-61 19 -54 30 8 13 -9 20 -24 11 -19 -12 -5 -46 25 -59 38 -18 82 -14 104 8
27 27 25 37 -15 75 -31 28 -34 34 -20 45 10 8 29 10 55 6 31 -5 40 -3 40 9 0
12 -31 37 -42 34 -2 -1 -18 -5 -35 -9z"/>
<path d="M9482 10073 c-21 -21 -46 -42 -56 -48 -22 -12 -129 -244 -121 -264 9
-23 39 13 75 90 18 39 37 72 44 74 133 37 186 98 140 163 -21 31 -41 28 -82
-15z m68 -26 c0 -29 -23 -51 -74 -72 -42 -18 -54 -15 -34 6 7 8 26 31 41 52
32 43 67 50 67 14z"/>
<path d="M10883 10100 c-32 -13 -29 -46 8 -87 20 -24 27 -39 20 -46 -15 -15
-41 -1 -41 23 0 25 -16 26 -28 3 -13 -25 -5 -41 30 -59 27 -14 32 -14 54 1 32
21 30 47 -8 90 -26 30 -29 38 -17 46 8 5 31 7 52 4 38 -5 46 2 25 23 -14 14
-63 15 -95 2z"/>
<path d="M11770 10092 c-19 -9 -45 -32 -57 -51 -49 -72 -15 -131 74 -131 46 0
51 2 57 26 4 15 5 28 3 30 -7 7 -37 -7 -37 -17 0 -10 -63 -12 -73 -3 -3 4 16
17 43 31 53 26 64 37 74 70 5 15 1 28 -13 42 -25 25 -27 25 -71 3z m48 -39
c-3 -19 -63 -63 -85 -63 -11 0 -11 5 2 30 16 32 40 49 68 50 12 0 17 -6 15
-17z"/>
<path d="M13583 10098 c-15 -18 -33 -87 -33 -125 0 -43 31 -65 71 -51 35 12
99 81 99 107 0 22 -25 46 -34 32 -3 -5 -3 -16 0 -25 8 -21 -57 -86 -85 -86
-26 0 -28 30 -5 96 16 47 8 78 -13 52z"/>
<path d="M13854 10090 c-42 -21 -74 -64 -74 -98 0 -11 12 -30 28 -42 23 -19
36 -21 86 -17 54 5 82 20 70 39 -3 4 -16 3 -30 -2 -36 -14 -87 -12 -109 3 -16
13 -15 14 20 20 45 7 85 42 85 73 0 37 -30 46 -76 24z m40 -34 c-5 -14 -47
-36 -67 -36 -17 1 41 50 58 50 8 0 12 -6 9 -14z"/>
<path d="M14190 10084 c-6 -14 -10 -36 -10 -50 0 -28 -44 -74 -69 -74 -39 0
-53 52 -29 105 6 14 8 28 5 31 -12 12 -37 -18 -47 -57 -25 -91 60 -144 130
-81 30 26 49 77 50 130 0 30 -18 28 -30 -4z"/>
<path d="M10090 10017 c-67 -101 -85 -105 -86 -22 -2 81 -2 83 -19 61 -22 -29
-20 -119 3 -139 26 -24 44 -21 74 11 37 39 96 127 100 147 7 42 -21 19 -72
-58z"/>
<path d="M7855 10072 c-60 -37 -65 -65 -21 -102 21 -17 20 -36 -1 -44 -11 -5
-23 1 -35 16 -23 31 -43 13 -25 -22 15 -31 50 -37 83 -16 30 20 32 58 4 86
-11 11 -20 24 -20 30 0 15 39 32 60 25 15 -5 20 -2 20 13 0 11 -7 23 -16 26
-20 8 -14 9 -49 -12z"/>
<path d="M8000 10078 c0 -7 -14 -41 -32 -75 -36 -68 -33 -95 11 -101 29 -4 89
42 97 74 8 32 -12 79 -42 99 -28 18 -34 19 -34 3z m43 -62 c10 -26 -5 -57 -35
-72 -38 -20 -43 -14 -22 28 29 59 47 72 57 44z"/>
<path d="M9653 10058 c-37 -40 -76 -115 -64 -123 12 -7 35 16 61 63 25 44 58
70 64 50 13 -42 17 -49 26 -43 13 8 13 41 0 66 -16 29 -52 23 -87 -13z"/>
<path d="M10682 10078 c-44 -12 -96 -82 -87 -118 11 -42 34 -60 80 -60 54 0
105 18 105 37 0 12 -6 13 -27 7 -16 -4 -48 -8 -73 -8 -35 -1 -45 3 -48 17 -2
11 3 17 15 17 31 0 80 37 85 64 8 39 -10 55 -50 44z m18 -38 c0 -11 -48 -45
-55 -38 -6 6 33 48 45 48 6 0 10 -4 10 -10z"/>
<path d="M12145 10046 c-62 -64 -68 -134 -14 -151 22 -7 106 12 115 26 13 21
-9 26 -45 12 -46 -18 -71 -12 -71 17 0 13 7 20 20 20 34 0 79 28 96 61 21 41
12 59 -27 59 -25 0 -42 -10 -74 -44z m73 2 c-6 -18 -57 -53 -65 -44 -5 4 5 19
20 32 30 26 51 31 45 12z"/>
<path d="M13452 10059 c-27 -52 -68 -89 -96 -89 -32 0 -33 11 -2 46 15 18 34
28 52 29 41 0 39 29 -2 33 -24 2 -39 -4 -63 -28 -60 -60 -50 -115 20 -108 21
2 36 1 34 -2 -16 -27 -94 -242 -95 -265 -4 -62 -1 -75 20 -75 24 0 120 86 120
106 0 23 -16 16 -62 -25 -41 -38 -43 -39 -46 -17 -4 33 90 278 129 337 24 34
33 75 20 84 -6 3 -19 -8 -29 -26z"/>
<path d="M3370 10059 c-46 -28 -59 -48 -60 -85 0 -47 40 -79 99 -79 48 0 89
21 73 37 -4 4 -23 3 -41 -3 -27 -10 -39 -9 -67 4 -46 22 -44 42 5 43 62 3 83
19 79 62 -3 31 -7 37 -28 40 -14 1 -41 -7 -60 -19z m60 -24 c0 -19 -35 -37
-63 -33 -20 3 -19 6 13 26 41 26 50 27 50 7z"/>
<path d="M3604 10042 c-38 -35 -80 -113 -67 -126 13 -13 23 -5 42 32 11 21 34
54 51 72 31 33 33 34 46 15 10 -14 17 -16 25 -8 8 8 8 16 -2 30 -22 29 -51 24
-95 -15z"/>
<path d="M7533 10035 c-43 -46 -54 -80 -31 -103 15 -15 53 -16 79 -2 16 9 19
7 19 -10 0 -31 23 -19 31 16 3 16 13 42 21 58 15 29 15 31 -12 58 -16 15 -36
28 -46 28 -10 0 -37 -20 -61 -45z m77 -19 c0 -15 -11 -33 -26 -45 -53 -42 -78
-19 -38 34 31 42 64 47 64 11z"/>
<path d="M3818 10053 c-35 -22 -61 -72 -46 -90 12 -15 42 -17 67 -3 16 8 20 5
24 -19 4 -18 15 -32 27 -36 29 -9 39 4 16 20 -16 12 -18 22 -12 69 5 48 4 57
-13 66 -26 13 -31 13 -63 -7z m29 -48 c-42 -37 -65 -32 -30 7 9 10 26 18 37
18 19 -1 19 -2 -7 -25z"/>
<path d="M9860 10063 c1 -5 7 -19 15 -33 8 -14 14 -33 15 -42 0 -26 -40 -58
-72 -58 -39 0 -36 24 8 68 23 23 32 38 25 45 -16 16 -91 -64 -91 -97 0 -38 36
-58 82 -45 68 18 95 78 63 139 -14 27 -46 42 -45 23z"/>
<path d="M12302 10009 c-43 -62 -50 -79 -31 -79 14 0 69 32 69 41 0 4 9 9 20
12 17 4 20 0 20 -24 0 -22 6 -30 24 -35 31 -7 67 -2 66 11 0 10 -4 12 -41 14
-22 1 -22 8 -4 69 9 27 -11 30 -55 7 -26 -14 -29 -14 -24 0 4 8 10 15 15 15 5
0 9 7 9 15 0 31 -28 13 -68 -46z"/>
<path d="M2921 10034 c-16 -21 -21 -39 -19 -68 3 -39 5 -41 39 -44 26 -2 42 3
62 22 46 42 31 100 -29 112 -26 5 -35 1 -53 -22z m79 -36 c0 -19 -32 -48 -52
-48 -31 0 -20 52 12 61 28 7 40 3 40 -13z"/>
<path d="M10219 10013 c-11 -27 -27 -52 -35 -56 -11 -6 -12 -13 -3 -28 6 -11
15 -19 20 -17 13 4 69 135 61 142 -13 14 -24 3 -43 -41z"/>
<path d="M4695 10019 c-27 -17 -44 -24 -36 -16 13 16 8 37 -10 37 -9 0 -69
-115 -69 -132 0 -19 26 -5 70 36 26 24 61 51 79 60 l32 17 -26 -52 c-21 -41
-24 -53 -13 -60 18 -12 33 -6 33 13 0 8 9 33 19 56 34 76 2 93 -79 41z"/>
<path d="M4445 10016 c-30 -30 -31 -82 -3 -100 24 -15 69 3 87 35 12 22 12 29
0 55 -19 39 -51 42 -84 10z m55 -41 c0 -21 -17 -35 -41 -35 -15 0 -10 32 7 51
20 22 34 16 34 -16z"/>
<path d="M4291 9993 c-8 -70 -6 -88 9 -88 8 0 16 9 16 20 1 11 5 37 9 58 6 32
5 37 -12 37 -13 0 -20 -8 -22 -27z"/>
<path d="M5202 9974 c2 -11 11 -20 22 -22 13 -3 17 1 14 14 -2 11 -11 20 -22
22 -13 3 -17 -1 -14 -14z"/>
<path d="M6915 9939 c-4 -5 -29 -72 -56 -147 -26 -75 -64 -176 -84 -225 -22
-53 -34 -95 -30 -107 10 -32 20 -24 33 27 7 26 27 78 43 116 36 81 119 315
119 334 0 16 -16 17 -25 2z"/>
<path d="M2674 9875 c-25 -17 -57 -87 -79 -176 -16 -64 -17 -65 -51 -65 -49 0
-76 -30 -82 -93 -5 -58 14 -91 53 -91 43 0 64 40 94 178 25 115 58 199 87 225
36 31 17 50 -22 22z m-110 -302 c-15 -61 -33 -95 -51 -91 -13 2 -19 14 -21 40
-4 52 12 78 49 78 27 0 29 -2 23 -27z"/>
<path d="M11022 9880 c-112 -45 -240 -199 -258 -308 -5 -32 -16 -51 -46 -78
-23 -20 -46 -33 -54 -30 -20 7 -31 -24 -13 -35 20 -13 22 -12 70 26 39 30 45
32 60 20 35 -33 133 -5 101 27 -9 9 -15 9 -24 0 -15 -15 -55 -16 -63 -1 -4 6
31 50 77 97 108 111 208 258 193 282 -7 12 -13 12 -43 0z m-17 -67 c-51 -80
-109 -154 -160 -203 -47 -45 -56 -50 -50 -30 23 79 99 180 180 238 41 29 51
27 30 -5z"/>
<path d="M3614 9866 c-15 -11 -16 -17 -7 -27 9 -9 4 -26 -20 -75 l-31 -64 -49
0 c-59 0 -61 -23 -3 -28 34 -3 37 -6 32 -25 -4 -12 -12 -48 -17 -80 -10 -49
-9 -61 5 -83 15 -22 23 -25 63 -22 28 2 48 8 51 16 3 9 -4 13 -19 12 -79 -7
-86 6 -61 105 l17 70 45 5 c31 3 45 10 45 20 0 11 -9 14 -37 12 l-37 -3 39 82
c21 46 36 87 34 91 -8 12 -28 10 -50 -6z"/>
<path d="M3790 9862 c0 -4 5 -13 11 -19 14 -14 -2 -74 -48 -178 -34 -79 -48
-164 -28 -171 6 -2 30 14 54 36 24 22 47 40 52 40 4 0 0 -24 -10 -52 -19 -55
-18 -78 2 -78 10 0 24 40 42 123 2 10 7 27 10 38 10 32 -25 23 -81 -20 l-52
-39 10 36 c6 21 18 53 28 72 10 19 28 65 40 102 25 76 22 118 -10 118 -11 0
-20 -4 -20 -8z"/>
<path d="M11310 9845 c-7 -9 -10 -18 -7 -21 5 -6 -73 -163 -149 -300 -25 -46
-27 -54 -14 -69 29 -35 133 3 182 68 31 39 40 68 29 85 -10 17 -60 19 -88 3
-12 -6 -24 -11 -27 -11 -3 0 23 56 59 124 35 68 61 126 58 130 -11 11 -30 7
-43 -9z m10 -261 c0 -23 -48 -76 -84 -93 -54 -26 -59 -26 -45 2 7 12 15 29 19
37 15 33 110 79 110 54z"/>
<path d="M12552 9832 c-14 -11 -21 -26 -20 -43 1 -14 -8 -41 -20 -61 -13 -21
-20 -43 -16 -54 4 -14 3 -15 -4 -6 -7 11 -14 7 -32 -18 -31 -44 -94 -101 -98
-89 -4 9 12 43 39 88 8 13 38 47 68 75 61 60 67 94 9 49 -21 -15 -37 -32 -38
-37 0 -4 -11 -17 -25 -28 -33 -26 -85 -116 -85 -148 0 -14 -4 -31 -8 -38 -15
-23 -74 -61 -88 -55 -9 3 -14 -2 -14 -17 0 -19 4 -21 28 -16 15 4 40 16 55 27
l28 20 26 -20 c31 -25 59 -27 67 -5 11 29 6 36 -23 29 -50 -11 -46 13 11 68
79 76 195 254 184 283 -7 18 -16 17 -44 -4z"/>
<path d="M12842 9800 c-8 -17 -15 -36 -16 -43 -9 -47 -111 -233 -148 -270 -22
-22 -23 -41 -2 -61 17 -18 69 -22 79 -6 4 6 10 8 15 5 14 -9 69 63 76 101 8
45 -5 70 -35 66 -26 -4 -26 -4 3 61 23 49 49 117 63 160 9 30 -21 19 -35 -13z
m-22 -250 c0 -24 -30 -79 -51 -94 -26 -18 -69 -22 -69 -6 0 10 55 77 80 97 18
15 40 17 40 3z"/>
<path d="M5880 9775 c0 -13 -12 -49 -27 -79 -27 -55 -27 -55 -77 -58 -47 -3
-65 -17 -35 -27 7 -2 9 1 4 10 -6 11 -5 12 6 2 7 -7 24 -13 37 -13 20 0 22 -3
15 -22 -4 -13 -8 -45 -8 -73 0 -49 1 -50 45 -72 24 -13 55 -23 67 -23 35 0 27
27 -10 34 -72 13 -88 42 -66 116 12 39 17 41 132 53 9 1 17 7 17 12 0 6 -27
10 -60 9 l-59 -1 25 48 c28 55 32 109 9 109 -9 0 -15 -9 -15 -25z"/>
<path d="M9872 9653 c-34 -82 -62 -154 -62 -160 0 -21 28 -15 35 7 6 20 73 80
88 80 5 0 7 -13 3 -30 -3 -16 -9 -43 -12 -60 -9 -43 12 -38 31 7 30 71 2 135
-46 105 -11 -7 -22 -12 -24 -10 -2 2 14 44 35 93 43 98 47 115 27 115 -7 0
-41 -66 -75 -147z"/>
<path d="M9747 9783 c-10 -3 -17 -12 -15 -22 2 -9 -12 -40 -31 -69 -29 -46
-37 -52 -67 -52 -25 0 -34 -4 -34 -16 0 -11 6 -15 20 -11 30 8 32 -5 9 -73
-18 -57 -19 -64 -4 -86 17 -26 39 -30 79 -14 41 15 32 33 -14 27 -49 -6 -52 2
-28 74 18 54 20 56 64 65 51 10 56 30 6 27 -31 -2 -32 -1 -21 20 7 12 27 42
46 66 47 62 44 78 -10 64z"/>
<path d="M8493 9763 c-18 -6 -16 -33 1 -33 19 0 31 19 20 30 -5 4 -15 5 -21 3z"/>
<path d="M11120 9706 c0 -10 9 -16 21 -16 24 0 21 23 -4 28 -10 2 -17 -3 -17
-12z"/>
<path d="M4013 9653 c-20 -11 -42 -37 -57 -67 -24 -47 -24 -50 -8 -75 24 -37
43 -50 73 -51 42 0 114 37 127 64 16 35 -3 44 -31 14 -33 -36 -83 -53 -112
-40 -30 14 -32 28 -6 37 27 8 91 76 91 96 0 10 -9 23 -19 29 -25 13 -21 13
-58 -7z m37 -31 c0 -9 -36 -44 -58 -57 -12 -6 -12 -3 -2 16 7 13 17 30 23 37
11 14 37 16 37 4z"/>
<path d="M5026 9647 c-8 -12 -22 -50 -29 -84 -20 -85 -28 -94 -43 -52 -7 18
-13 48 -13 64 -1 36 -15 60 -29 51 -13 -8 -4 -75 18 -141 30 -88 66 -62 97 69
7 33 21 66 30 73 16 12 12 43 -6 43 -6 0 -17 -10 -25 -23z"/>
<path d="M5435 9638 c-4 -18 -18 -49 -31 -70 -13 -21 -24 -45 -24 -54 0 -22
33 -14 44 11 8 19 96 88 103 81 2 -2 -3 -22 -12 -45 -23 -67 14 -122 69 -101
35 12 30 30 -8 30 -31 0 -36 3 -36 23 0 13 7 45 16 70 16 46 14 77 -4 77 -5 0
-26 -11 -47 -25 -43 -30 -50 -28 -36 9 9 22 8 26 -8 26 -14 0 -22 -10 -26 -32z"/>
<path d="M7430 9649 c-19 -11 -47 -35 -62 -52 -23 -27 -26 -29 -21 -9 4 15 1
22 -9 22 -15 0 -38 -39 -38 -64 0 -8 -7 -19 -16 -27 -8 -7 -13 -21 -10 -32 2
-10 -11 -51 -30 -90 -19 -39 -34 -82 -34 -94 0 -48 26 -20 61 65 l35 87 55 5
c61 6 113 31 129 60 6 11 14 42 17 68 4 37 2 52 -12 65 -21 21 -23 21 -65 -4z
m46 -61 c-4 -23 -12 -48 -18 -56 -19 -22 -65 -42 -98 -42 -31 0 -41 16 -15 26
8 4 15 12 15 19 0 18 86 95 106 95 14 0 15 -7 10 -42z"/>
<path d="M5195 9625 c-44 -46 -79 -119 -71 -149 6 -26 31 -36 93 -36 41 0 113
26 113 41 0 17 -21 19 -49 4 -32 -16 -98 -20 -118 -7 -18 12 -4 52 19 52 32 0
92 36 110 67 38 66 -40 89 -97 28z m75 -3 c0 -11 -28 -36 -59 -52 -19 -10 -22
-10 -16 2 24 42 75 76 75 50z"/>
<path d="M7945 9609 c-50 -70 -116 -140 -125 -134 -5 3 -16 -2 -25 -11 -15
-15 -15 -19 -2 -32 14 -13 21 -10 61 23 25 21 46 42 46 48 0 5 8 2 19 -7 19
-17 65 -14 77 5 10 17 20 9 22 -18 3 -35 15 -47 41 -38 24 7 28 25 6 25 -9 0
-15 9 -15 25 0 14 7 42 15 62 29 69 10 73 -47 8 -22 -25 -46 -45 -54 -45 -20
0 -18 6 16 67 17 29 30 57 30 63 0 25 -31 6 -65 -41z"/>
<path d="M11876 9638 c-37 -14 -52 -16 -62 -7 -18 15 -44 4 -44 -17 0 -16 -13
-64 -29 -104 -3 -8 -8 14 -11 49 -3 42 -10 66 -19 69 -20 7 -12 -165 9 -178
22 -14 46 19 66 90 11 41 20 57 30 53 16 -6 111 24 120 39 13 21 -13 24 -60 6z"/>
<path d="M2073 9626 c-18 -15 -39 -47 -49 -73 -17 -44 -17 -46 1 -59 12 -9 31
-12 51 -8 26 5 32 2 37 -15 5 -22 33 -38 45 -27 3 4 1 16 -6 26 -18 29 -15 46
14 96 30 52 24 69 -32 80 -24 4 -37 0 -61 -20z m70 -12 c8 -9 -16 -55 -39 -75
-57 -49 -75 -13 -23 46 30 34 48 42 62 29z"/>
<path d="M4724 9616 c-73 -73 -25 -166 85 -166 22 0 46 3 55 6 22 9 21 38 -1
31 -33 -9 -38 -9 -64 -8 -15 0 -37 9 -49 19 l-23 19 37 22 c51 32 71 64 56 90
-17 32 -57 26 -96 -13z m64 -13 c-4 -20 -68 -61 -68 -43 0 13 49 60 62 60 5 0
8 -8 6 -17z"/>
<path d="M12580 9636 c0 -9 7 -16 16 -16 17 0 14 22 -4 28 -7 2 -12 -3 -12
-12z"/>
<path d="M2320 9630 c-8 -6 -27 -7 -42 -4 -26 5 -28 2 -47 -61 -12 -37 -18
-71 -15 -76 10 -17 24 -9 38 25 15 37 54 76 87 88 24 9 24 7 -7 -63 -25 -56
-27 -89 -4 -89 5 0 10 6 10 14 0 7 11 39 25 70 14 31 25 65 25 75 0 28 -40 40
-70 21z"/>
<path d="M8173 9618 c-27 -13 -29 -35 -7 -82 17 -35 14 -66 -7 -66 -6 0 -13 9
-16 20 -6 24 -31 27 -40 5 -7 -21 25 -55 52 -55 27 0 55 30 55 59 0 12 -7 36
-16 53 -18 36 -7 50 36 46 17 -2 25 2 25 12 0 19 -51 24 -82 8z"/>
<path d="M10080 9608 c-42 -29 -73 -85 -65 -118 14 -58 70 -65 153 -19 66 36
76 43 71 58 -3 6 -31 -3 -69 -24 -75 -39 -105 -43 -120 -15 -9 16 -8 20 6 20
27 0 114 60 114 79 0 44 -41 52 -90 19z m35 -33 c-26 -22 -55 -33 -55 -21 0 7
64 46 75 45 6 0 -3 -11 -20 -24z"/>
<path d="M6922 9598 c-53 -57 -67 -126 -31 -151 27 -19 57 -11 96 26 40 38 49
76 28 116 -19 38 -61 42 -93 9z m68 -50 c0 -38 -34 -78 -67 -78 -27 0 -29 16
-8 65 13 33 50 59 68 48 4 -2 7 -18 7 -35z"/>
<path d="M8531 9588 c-11 -18 -30 -46 -41 -63 -25 -37 -25 -45 -2 -45 11 0 26
14 37 34 17 32 79 75 91 64 3 -4 1 -23 -5 -45 -15 -51 -14 -83 2 -83 8 0 18
23 25 58 20 95 21 92 -54 107 -28 5 -34 2 -53 -27z"/>
<path d="M7106 9595 c-76 -58 -71 -145 9 -145 47 0 64 8 80 41 20 38 19 62 -6
93 -23 29 -54 33 -83 11z m69 -45 c4 -13 0 -31 -10 -46 -13 -20 -23 -25 -48
-22 -39 4 -45 25 -17 61 26 33 66 36 75 7z"/>
<path d="M8347 9527 c-42 -80 -43 -87 -23 -87 17 0 90 136 81 151 -12 18 -20
8 -58 -64z"/>
<path d="M8784 9581 c-56 -34 -82 -92 -48 -105 26 -10 53 -7 85 10 l30 15 -3
-57 -3 -58 -48 -12 c-26 -7 -63 -24 -82 -39 -31 -23 -35 -31 -35 -71 0 -119
112 -108 169 17 29 65 46 66 53 4 5 -45 23 -36 26 13 3 37 0 44 -25 58 l-28
16 0 111 0 111 -30 3 c-17 2 -43 -5 -61 -16z m66 -26 c0 -18 -45 -49 -79 -52
-25 -3 -25 -2 11 32 39 37 68 45 68 20z m-15 -227 c-17 -54 -40 -90 -67 -104
-38 -19 -58 -5 -58 41 0 35 26 59 79 75 45 14 53 12 46 -12z"/>
<path d="M11012 9551 c-35 -53 -41 -81 -17 -81 8 0 15 6 15 13 0 7 14 32 31
55 27 37 31 62 10 62 -4 0 -22 -22 -39 -49z"/>
<path d="M11453 9532 c-35 -36 -63 -70 -63 -74 0 -14 23 -9 43 9 18 17 19 17
28 0 13 -23 44 -22 85 3 l32 21 7 -21 c9 -28 30 -20 31 11 0 13 4 39 8 57 6
27 5 32 -11 32 -10 0 -27 -14 -38 -30 -18 -28 -74 -64 -84 -55 -5 6 27 73 39
80 14 9 12 35 -2 34 -7 -1 -41 -31 -75 -67z"/>
<path d="M12995 9581 c-72 -46 -120 -110 -98 -132 5 -5 24 12 46 41 40 53 85
83 120 78 14 -2 22 2 22 12 0 23 -55 24 -90 1z"/>
<path d="M13403 9563 c-44 -31 -103 -94 -103 -112 0 -23 29 -10 62 27 18 21
47 49 65 62 26 19 35 21 47 11 22 -18 39 -5 26 20 -15 27 -50 24 -97 -8z"/>
<path d="M13665 9458 c-55 -67 -124 -149 -154 -182 -53 -60 -94 -132 -85 -148
11 -17 24 -6 42 35 10 23 43 69 73 102 30 33 66 74 79 91 14 17 58 70 98 118
64 75 80 106 54 106 -4 0 -52 -55 -107 -122z"/>
<path d="M13117 9522 c-57 -58 -44 -97 24 -73 28 10 34 8 46 -9 22 -31 31 -24
29 23 -3 47 -8 49 -71 22 l-40 -17 26 27 c14 14 34 28 45 29 25 4 24 30 -1 34
-13 2 -34 -12 -58 -36z"/>
<path d="M13576 9493 c6 -43 27 -84 38 -72 2 2 1 29 -2 59 -5 41 -11 56 -24
58 -16 3 -17 -3 -12 -45z"/>
<path d="M12505 9500 c-11 -16 -26 -30 -32 -30 -16 0 -16 -6 -3 -31 15 -26 28
-24 42 9 7 15 18 35 26 44 13 16 10 38 -6 38 -4 0 -16 -14 -27 -30z"/>
<path d="M13890 9508 c0 -31 10 -40 30 -28 13 8 11 13 -7 32 l-23 22 0 -26z"/>
<path d="M7535 9418 c-54 -47 -120 -145 -153 -227 -32 -80 -97 -150 -139 -151
-28 0 -37 -14 -18 -30 18 -15 41 -6 93 36 l32 27 0 -25 c0 -25 31 -60 63 -71
21 -8 67 8 67 23 0 5 -17 10 -38 10 -46 0 -62 14 -62 55 0 24 11 40 56 79 101
89 186 233 169 286 -9 28 -29 25 -70 -12z m34 -40 c-15 -55 -135 -218 -160
-218 -24 0 64 151 130 223 33 36 42 34 30 -5z"/>
<path d="M6190 9393 c-11 -25 -32 -77 -47 -114 -28 -73 -38 -79 -124 -79 -28
0 -39 -4 -39 -15 0 -12 12 -14 60 -12 33 2 60 0 60 -4 0 -4 -9 -26 -20 -50
-24 -54 -27 -129 -5 -129 10 0 15 11 15 35 0 19 12 64 27 100 22 54 32 67 55
73 34 9 38 26 8 30 -24 4 -24 7 25 119 18 42 31 81 29 85 -11 17 -24 6 -44
-39z"/>
<path d="M6335 9398 c-12 -56 -60 -189 -100 -276 -52 -114 -38 -126 49 -42 36
35 66 59 66 53 0 -6 -7 -30 -15 -54 -9 -24 -13 -49 -11 -56 7 -17 39 -17 33 0
-2 6 2 29 9 51 28 77 7 128 -35 88 -10 -9 -27 -23 -39 -29 l-22 -13 21 53 c36
88 79 220 79 239 0 31 -28 20 -35 -14z"/>
<path d="M14324 9405 c-9 -14 -32 -77 -50 -141 -33 -115 -56 -165 -93 -198
-23 -21 -60 -18 -75 7 -13 21 -2 42 38 71 21 17 30 18 45 9 20 -13 31 -8 31
13 0 23 -37 36 -62 23 -42 -21 -88 -72 -88 -97 0 -59 48 -91 104 -68 47 20 90
94 126 221 39 135 48 155 73 155 25 0 16 24 -11 28 -13 2 -27 -6 -38 -23z"/>
<path d="M3496 9384 c-3 -9 -6 -27 -6 -40 0 -13 -16 -64 -36 -112 -54 -128
-45 -211 25 -227 52 -11 116 36 145 107 38 89 -48 140 -129 77 -14 -11 -25
-19 -25 -16 0 2 11 35 24 73 34 97 42 154 23 154 -8 0 -18 -7 -21 -16z m104
-234 c0 -57 -67 -121 -117 -112 -30 5 -37 32 -18 70 22 44 62 72 101 72 31 0
34 -3 34 -30z"/>
<path d="M4740 9305 l-32 -95 -53 0 c-49 0 -76 -12 -61 -27 3 -4 28 -6 55 -4
l48 2 -25 -86 c-17 -62 -21 -90 -14 -97 13 -13 21 5 51 109 17 58 25 72 43 75
28 4 36 28 9 28 -19 0 -19 3 10 86 28 80 30 104 9 104 -4 0 -23 -43 -40 -95z"/>
<path d="M4916 9388 c-11 -36 -38 -115 -75 -218 -23 -63 -41 -123 -41 -132 0
-26 27 -22 34 5 6 26 98 117 117 117 11 0 9 -33 -7 -102 -5 -21 -3 -28 9 -28
19 0 47 107 36 138 -11 30 -45 28 -92 -3 l-37 -26 29 78 c16 43 36 96 45 118
17 40 15 65 -4 65 -6 0 -12 -6 -14 -12z"/>
<path d="M5405 9388 c-3 -7 -7 -26 -9 -43 -2 -16 -12 -50 -23 -75 -11 -25 -23
-56 -28 -69 -6 -21 -11 -23 -47 -17 -34 6 -39 4 -36 -11 2 -11 14 -19 31 -21
15 -2 27 -5 27 -6 0 -2 -7 -23 -15 -46 -18 -52 -20 -103 -3 -98 7 3 15 19 19
37 4 18 14 52 23 76 16 41 20 44 81 60 42 12 65 23 65 33 0 10 -7 13 -22 9
-86 -20 -91 -20 -84 -2 28 75 55 168 51 176 -9 13 -25 11 -30 -3z"/>
<path d="M9381 9343 c-60 -60 -125 -165 -146 -235 -9 -32 -21 -46 -56 -65 -58
-33 -66 -40 -51 -55 8 -8 22 -4 57 19 l47 30 24 -24 c20 -20 30 -22 66 -17 55
9 83 23 71 35 -6 6 -26 6 -53 0 -48 -11 -66 -7 -75 17 -4 11 2 24 17 37 52 46
107 121 98 135 -7 11 -14 8 -32 -15 -13 -17 -36 -43 -51 -60 l-28 -30 30 61
c32 66 105 164 122 164 6 0 -1 -21 -15 -46 -24 -43 -26 -64 -7 -64 14 0 71
116 71 144 0 41 -26 32 -89 -31z"/>
<path d="M2127 9376 c-45 -16 -67 -34 -67 -52 0 -20 27 -17 34 2 4 9 9 15 11
12 8 -8 -37 -132 -52 -145 -8 -6 -12 -20 -9 -30 3 -10 -3 -52 -14 -92 -12 -40
-19 -76 -16 -79 16 -15 34 16 50 88 l19 82 45 -5 c66 -7 77 -24 78 -115 0 -97
1 -102 17 -102 8 0 13 24 14 80 3 97 -13 146 -51 156 -36 9 -32 22 6 26 42 4
78 55 78 109 0 72 -54 96 -143 65z m101 -28 c17 -17 15 -55 -4 -87 -12 -21
-28 -29 -68 -37 l-52 -9 20 67 c12 38 28 69 36 72 30 8 56 6 68 -6z"/>
<path d="M1717 9318 c-32 -47 -38 -68 -19 -68 10 0 82 97 82 110 0 25 -29 6
-63 -42z"/>
<path d="M7787 9341 c-2 -11 0 -25 7 -32 8 -9 8 -10 -1 -5 -8 5 -17 -3 -25
-21 -6 -15 -28 -64 -49 -108 -49 -106 -52 -120 -38 -147 16 -31 28 -38 66 -38
23 0 38 8 57 30 29 35 52 101 43 124 -9 22 -46 20 -86 -5 -20 -12 -31 -15 -28
-7 3 7 21 49 41 93 45 104 53 135 33 135 -8 0 -17 -9 -20 -19z m28 -233 c-15
-50 -41 -83 -68 -86 -30 -4 -35 9 -12 28 8 7 15 18 15 24 0 6 -5 4 -10 -4 -9
-13 -10 -13 -10 0 0 14 25 36 60 52 26 12 32 9 25 -14z"/>
<path d="M1635 9340 c-3 -5 -4 -14 0 -20 3 -5 3 -21 -1 -35 -5 -20 -9 -23 -15
-13 -5 7 -9 23 -9 35 0 26 -18 39 -32 25 -8 -8 -8 -19 0 -39 6 -15 14 -45 18
-65 l6 -38 -61 0 c-49 0 -61 -3 -61 -16 0 -11 8 -15 28 -14 15 1 38 1 52 1 25
-2 25 -2 -9 -31 -18 -15 -30 -33 -27 -39 10 -16 46 -14 46 3 0 7 7 19 15 26
13 10 14 5 12 -40 -3 -71 18 -78 27 -8 4 28 9 55 12 60 3 4 19 -8 36 -27 16
-19 36 -35 44 -35 18 0 18 14 -1 30 -9 7 -25 27 -37 43 l-21 30 46 -7 c30 -5
47 -4 47 3 0 14 -33 31 -60 31 -18 0 -19 3 -10 20 12 22 5 44 -11 34 -6 -4 -7
13 -3 45 5 43 4 51 -9 51 -9 0 -19 -4 -22 -10z"/>
<path d="M9710 9293 c-6 -15 -36 -79 -68 -141 -45 -89 -54 -114 -43 -121 7 -5
11 -13 7 -19 -8 -13 20 -42 41 -42 26 0 83 49 114 98 35 56 36 69 5 84 -20 9
-32 7 -65 -10 l-40 -21 39 77 c21 42 40 86 42 96 5 31 -21 30 -32 -1z m40
-179 c0 -30 -92 -125 -107 -111 -13 13 11 69 40 92 30 23 67 33 67 19z"/>
<path d="M12235 9288 c-4 -13 -15 -46 -27 -75 -19 -50 -21 -51 -53 -46 -28 5
-38 -1 -79 -39 -34 -33 -46 -52 -46 -74 0 -63 62 -75 111 -21 28 29 119 202
119 225 0 5 7 15 15 22 18 15 11 30 -15 30 -11 0 -21 -9 -25 -22z m-77 -157
c10 -6 3 -21 -28 -60 -34 -43 -44 -50 -56 -40 -22 18 -17 33 23 72 39 40 41
41 61 28z"/>
<path d="M11996 9251 c-12 -14 -14 -21 -6 -26 17 -10 47 22 34 35 -7 7 -16 4
-28 -9z"/>
<path d="M9547 9243 c-14 -13 -6 -24 15 -21 27 4 36 28 11 28 -11 0 -23 -3
-26 -7z"/>
<path d="M7642 9228 c5 -15 37 -18 41 -3 1 6 -9 12 -22 13 -16 3 -22 -1 -19
-10z"/>
<path d="M11204 9224 c-51 -25 -139 -116 -175 -181 l-33 -61 -126 -6 c-69 -3
-206 -9 -304 -12 l-179 -7 34 48 c19 26 51 67 72 91 48 54 39 80 -10 32 -19
-18 -48 -52 -65 -76 -28 -40 -31 -42 -44 -25 -16 21 -18 59 -4 68 15 9 0 35
-21 35 -28 0 -27 -87 1 -122 18 -24 18 -26 2 -41 -26 -23 -454 -37 -1147 -37
-319 0 -663 -5 -765 -10 -206 -12 -500 -13 -690 -2 -69 4 -168 3 -220 -3 -52
-5 -130 -9 -173 -10 -62 0 -77 -3 -75 -14 2 -8 14 -18 28 -21 28 -8 163 7 167
18 3 7 413 -2 518 -12 33 -3 139 -1 235 5 96 5 564 14 1040 19 476 5 905 12
954 16 l88 7 -62 -81 c-38 -50 -60 -88 -56 -97 7 -18 26 -20 26 -2 1 6 29 48
63 92 54 69 68 80 102 87 39 7 586 30 592 25 1 -2 -11 -36 -28 -77 -21 -53
-27 -76 -19 -84 14 -14 28 4 78 98 l36 69 360 -6 c199 -3 462 -12 586 -21 636
-42 1570 -45 1979 -6 98 9 107 12 97 29 -7 10 -125 5 -156 -6 -8 -3 -49 -7
-90 -7 -706 -16 -933 -17 -1235 -7 -312 11 -789 34 -910 46 -27 2 -76 5 -107
5 l-56 0 29 30 c23 23 30 37 27 61 -2 18 -10 35 -18 39 -8 4 -25 12 -37 18
-19 10 -26 6 -58 -29 -32 -35 -36 -47 -33 -80 l4 -39 -149 0 -148 0 35 31 c49
42 116 146 116 178 0 28 -16 51 -34 51 -6 0 -25 -7 -42 -16z m46 -40 c0 -36
-126 -184 -157 -184 -18 0 -17 10 13 74 38 82 144 164 144 110z m290 -110 c0
-28 -19 -52 -50 -63 -25 -8 -32 -7 -37 5 -10 26 13 63 35 57 11 -2 23 0 26 6
10 16 26 13 26 -5z"/>
<path d="M12661 9226 c-54 -18 -60 -36 -33 -108 23 -63 19 -87 -13 -74 -13 4
-15 13 -10 36 5 23 3 30 -9 30 -8 0 -20 -10 -27 -21 -16 -30 17 -73 59 -77 26
-3 34 2 43 22 10 21 8 35 -10 82 -24 65 -17 84 30 84 18 0 29 5 29 14 0 21
-21 25 -59 12z"/>
<path d="M6468 9183 c-35 -39 -48 -66 -48 -105 0 -42 22 -74 56 -82 46 -12
166 56 141 80 -3 3 -16 -1 -29 -10 -12 -8 -40 -22 -60 -31 -36 -14 -39 -14
-58 5 -30 30 -26 50 10 50 34 0 100 59 100 89 0 40 -75 43 -112 4z m58 -32
c-27 -28 -66 -47 -66 -31 0 21 44 60 68 60 l26 0 -28 -29z"/>
<path d="M11395 9191 c-17 -10 -49 -40 -71 -67 -64 -77 -80 -115 -46 -113 18
0 82 80 82 103 0 26 51 57 82 51 31 -7 37 5 12 29 -20 20 -22 20 -59 -3z"/>
<path d="M11782 9127 c-65 -95 -78 -106 -86 -71 -7 28 1 65 17 75 13 9 0 29
-18 29 -24 0 -40 -74 -26 -121 23 -76 47 -63 141 74 42 60 46 72 30 82 -5 3
-31 -27 -58 -68z"/>
<path d="M12363 9171 c-53 -39 -75 -98 -52 -140 17 -28 31 -29 102 -10 21 5
41 17 44 25 8 21 -4 29 -21 15 -8 -7 -34 -13 -57 -14 -34 -2 -44 2 -47 15 -2
12 6 19 32 23 49 10 88 48 84 83 -4 38 -35 39 -85 3z m42 -31 c-10 -11 -25
-20 -34 -20 -11 1 -8 8 13 26 32 29 48 24 21 -6z"/>
<path d="M2570 9171 c-18 -14 -29 -17 -42 -10 -14 8 -20 6 -24 -8 -16 -51 -39
-99 -53 -111 -22 -18 -89 -34 -111 -27 -33 11 -22 35 24 55 48 20 69 48 64 83
-9 62 -120 3 -135 -71 -9 -49 -6 -63 19 -84 25 -22 57 -22 128 1 45 15 58 25
76 57 24 44 81 104 98 104 7 0 8 -3 1 -8 -10 -7 -35 -90 -35 -117 0 -30 29
-14 91 50 34 36 64 64 65 62 2 -1 -2 -22 -8 -45 -12 -49 -4 -92 18 -92 12 0
14 7 9 29 -3 17 0 52 9 81 27 89 -6 95 -87 16 l-54 -54 8 37 c14 59 11 71 -13
71 -13 0 -34 -9 -48 -19z m-181 -45 c-11 -22 -59 -43 -59 -25 0 9 49 49 61 49
5 0 4 -11 -2 -24z"/>
<path d="M3712 9170 c-18 -11 -40 -36 -49 -55 -15 -32 -16 -38 0 -69 11 -24
25 -36 47 -41 35 -8 107 2 116 16 12 20 -7 27 -46 17 -29 -8 -48 -7 -66 0 -28
14 -32 42 -5 42 10 0 30 9 45 21 77 60 41 120 -42 69z m29 -41 c-35 -28 -51
-22 -17 7 15 14 31 22 35 19 3 -4 -5 -15 -18 -26z"/>
<path d="M3988 9177 c-7 -8 -20 -12 -30 -9 -13 3 -19 -6 -28 -40 -6 -23 -15
-56 -20 -72 -27 -81 7 -75 43 8 35 79 61 106 85 88 47 -34 68 -25 32 13 -26
27 -62 33 -82 12z"/>
<path d="M9910 9180 c-8 -5 -25 -7 -37 -4 -20 5 -27 -3 -58 -71 -19 -42 -32
-81 -29 -86 10 -17 24 -9 35 17 13 35 55 85 90 107 26 17 30 17 35 3 7 -18 34
-22 34 -5 0 39 -37 60 -70 39z"/>
<path d="M13601 9106 c-48 -79 -62 -116 -42 -116 5 0 36 30 69 68 51 57 122
114 122 98 0 -2 -13 -26 -30 -53 -36 -59 -42 -96 -16 -101 25 -5 46 16 27 28
-12 7 -7 21 27 76 22 37 39 71 36 76 -10 16 -60 7 -98 -18 -32 -22 -36 -23
-27 -6 10 18 6 32 -9 32 -4 0 -30 -38 -59 -84z"/>
<path d="M14414 9180 c-11 -4 -35 -25 -53 -46 -30 -33 -33 -42 -28 -81 6 -56
14 -64 72 -70 71 -9 155 37 115 62 -5 3 -23 -4 -39 -16 -23 -17 -38 -20 -67
-16 -49 8 -62 29 -26 41 34 11 89 51 101 75 6 10 7 27 4 39 -6 23 -39 28 -79
12z m46 -34 c0 -18 -18 -32 -63 -51 -46 -19 -41 -2 10 38 40 30 53 33 53 13z"/>
<path d="M2876 9148 c-48 -42 -60 -104 -28 -139 19 -19 27 -21 79 -15 57 7 93
27 93 53 0 17 -9 17 -30 -2 -10 -9 -40 -16 -71 -18 -48 -2 -54 0 -57 19 -2 16
4 23 22 28 34 8 86 54 86 76 0 17 -19 30 -44 30 -7 0 -29 -15 -50 -32z m39
-23 c-16 -13 -34 -24 -40 -24 -5 0 4 11 20 24 17 14 35 25 40 25 6 0 -3 -11
-20 -25z"/>
<path d="M3212 9148 c-30 -30 -32 -31 -32 -11 0 29 -17 38 -38 21 -34 -29 -45
-32 -37 -9 5 17 2 21 -14 21 -15 0 -21 -6 -21 -22 0 -13 -11 -47 -25 -76 -24
-51 -25 -72 -5 -72 5 0 16 12 25 28 37 69 96 111 68 50 -5 -13 -8 -29 -6 -35
5 -14 33 -18 33 -5 1 4 21 30 45 57 l45 50 -7 -64 c-5 -55 -4 -66 12 -77 14
-10 22 -11 32 -3 18 15 17 29 -2 29 -14 0 -15 11 -9 75 6 69 5 75 -12 75 -11
0 -34 -15 -52 -32z"/>
<path d="M5061 9154 c-17 -14 -38 -39 -47 -55 -30 -58 24 -92 79 -49 31 25 33
25 40 -1 8 -32 30 -18 32 21 1 19 6 45 10 58 12 35 -11 27 -67 -23 -53 -47
-68 -54 -68 -31 0 21 57 74 77 72 26 -2 22 28 -3 32 -12 2 -35 -9 -53 -24z"/>
<path d="M10243 9161 c-31 -19 -93 -99 -93 -120 0 -23 26 -9 49 25 30 43 80
86 92 78 17 -10 31 7 18 22 -15 19 -28 18 -66 -5z"/>
<path d="M13884 9152 c-77 -66 -68 -142 15 -142 48 0 103 57 99 102 -2 23 -10
36 -25 43 -13 5 -23 13 -23 17 0 17 -37 6 -66 -20z m74 -28 c19 11 14 -29 -6
-54 -11 -14 -30 -22 -52 -23 -48 -3 -52 25 -9 69 29 30 34 32 44 17 7 -9 17
-13 23 -9z"/>
<path d="M8009 9106 c-24 -29 -61 -63 -81 -75 -21 -12 -38 -26 -38 -31 0 -18
37 -11 66 12 15 13 25 17 21 11 -12 -19 4 -43 28 -43 12 0 40 14 61 31 39 31
39 31 44 8 6 -25 29 -38 32 -17 3 27 4 34 17 70 7 21 10 42 6 48 -10 16 -43
-6 -65 -43 -11 -18 -20 -28 -20 -23 0 5 -10 0 -22 -11 -59 -52 -65 -30 -13 47
19 29 35 56 35 61 0 24 -32 4 -71 -45z"/>
<path d="M8210 9141 c-6 -12 -6 -22 -1 -25 5 -4 12 -23 16 -44 8 -49 40 -102
60 -102 21 0 45 59 45 110 l0 41 64 -3 c105 -4 105 26 0 35 -80 6 -94 -2 -95
-61 0 -26 -4 -56 -8 -67 -8 -19 -8 -19 -19 2 -7 12 -17 44 -23 72 -12 58 -23
70 -39 42z"/>
<path d="M9490 9153 c-15 -4 -70 -98 -70 -120 0 -32 22 -18 46 29 15 29 34 58
43 65 18 13 5 32 -19 26z"/>
<path d="M10014 9141 c-68 -41 -96 -112 -46 -119 12 -2 38 6 57 18 l35 22 0
-26 c0 -13 5 -28 11 -32 14 -8 29 14 22 33 -3 7 2 31 11 52 l15 40 -31 15
c-39 20 -37 20 -74 -3z m46 -31 c0 -13 -79 -65 -87 -57 -3 4 9 20 27 37 32 30
60 39 60 20z"/>
<path d="M11886 9099 c-27 -53 -33 -79 -16 -79 11 0 60 93 60 115 0 29 -17 15
-44 -36z"/>
<path d="M7557 9122 c-26 -29 -38 -71 -27 -93 16 -29 30 -23 30 14 0 18 7 42
15 53 28 37 13 61 -18 26z"/>
<path d="M3801 8878 c-44 -116 -41 -113 -96 -113 -30 0 -50 -5 -52 -12 -6 -17
42 -35 72 -27 l24 6 -15 -48 c-18 -62 -18 -138 1 -154 18 -15 45 -10 59 12 13
21 0 36 -16 20 -7 -7 -16 -12 -20 -12 -13 0 -9 67 8 135 13 52 20 65 36 65 11
0 28 5 39 10 23 13 27 45 4 36 -8 -3 -22 -9 -30 -12 -21 -9 -19 3 15 86 28 68
31 90 10 90 -5 0 -22 -37 -39 -82z"/>
<path d="M5887 8939 c-10 -6 -16 -18 -13 -27 2 -9 -10 -51 -28 -92 l-32 -75
-39 0 c-29 0 -40 -4 -40 -15 0 -9 10 -15 28 -16 37 -1 38 -4 26 -48 -24 -89
13 -140 97 -134 71 5 70 28 0 28 -52 0 -57 2 -67 27 -7 19 -7 41 1 73 l11 46
47 0 c53 -1 102 10 102 23 0 4 -28 9 -62 10 -35 1 -64 4 -65 5 -2 2 14 45 36
97 44 107 44 125 -2 98z"/>
<path d="M6635 8940 c-4 -6 -8 -29 -9 -51 -2 -24 -29 -93 -70 -177 -68 -139
-84 -197 -56 -197 9 0 17 13 21 35 3 19 31 87 63 150 60 121 91 211 82 236 -6
16 -22 18 -31 4z"/>
<path d="M3956 8918 c-25 -134 -39 -187 -65 -247 -17 -38 -31 -74 -31 -80 0
-27 30 -6 64 44 47 71 72 74 61 8 -12 -76 -11 -88 4 -88 10 0 19 20 26 61 16
90 -5 131 -56 104 -20 -11 -21 -10 -15 6 11 28 34 123 41 172 6 34 4 42 -9 42
-9 0 -18 -10 -20 -22z"/>
<path d="M2750 8909 c0 -11 -10 -54 -22 -95 -23 -82 -37 -95 -97 -98 -24 -1
-36 -6 -36 -16 0 -11 11 -14 47 -11 l46 2 -14 -57 c-11 -39 -12 -60 -5 -67 15
-15 21 -6 37 64 16 70 35 92 71 83 17 -5 23 -2 23 10 0 10 -11 19 -28 22 l-29
6 19 66 c22 81 23 112 3 112 -9 0 -15 -9 -15 -21z"/>
<path d="M2906 8908 c-3 -7 -7 -28 -10 -47 -3 -19 -26 -77 -51 -129 -67 -140
-57 -171 25 -86 25 25 53 50 62 55 15 8 15 5 7 -26 -12 -41 -5 -71 17 -79 31
-12 39 10 21 54 -4 8 -5 31 -4 50 3 50 -29 52 -82 5 l-40 -36 40 90 c48 109
60 161 35 161 -9 0 -18 -6 -20 -12z"/>
<path d="M7920 8837 c0 -7 -7 -37 -16 -67 -16 -56 -34 -55 -34 3 0 35 -26 36
-34 2 -6 -22 -9 -24 -27 -15 -24 13 -59 4 -59 -16 0 -9 10 -14 28 -14 30 0 72
-24 72 -42 0 -10 -18 -8 -82 8 -45 11 -35 -21 12 -36 l40 -13 -34 -37 c-39
-43 -53 -77 -38 -92 7 -7 17 2 30 28 11 22 31 49 44 61 l23 22 -4 -46 c-2 -35
0 -44 10 -41 8 3 15 13 17 24 1 10 5 30 8 43 l5 25 13 -25 c9 -19 18 -23 41
-20 45 5 50 12 24 32 l-24 19 23 0 c38 0 20 25 -21 28 -20 2 -37 5 -37 8 0 13
29 51 63 82 38 35 49 72 22 72 -8 0 -15 -6 -15 -14 0 -7 -7 -19 -15 -26 -12
-10 -13 -6 -8 24 4 29 2 36 -11 36 -9 0 -16 -6 -16 -13z"/>
<path d="M2512 8793 c5 -26 38 -29 38 -4 0 15 -6 21 -21 21 -14 0 -19 -5 -17
-17z"/>
<path d="M2081 8729 c-67 -37 -69 -38 -51 -49 10 -6 31 0 66 21 47 27 84 37
84 24 0 -3 -20 -35 -44 -71 -51 -73 -62 -102 -48 -116 7 -7 25 0 57 22 l47 32
22 -21 c25 -24 47 -26 79 -10 32 17 37 28 37 82 0 62 -24 60 -28 -2 -3 -34 -8
-44 -29 -52 -21 -8 -29 -5 -49 17 l-24 25 -37 -22 c-40 -25 -39 -21 19 59 49
66 47 86 -7 89 -29 2 -55 -6 -94 -28z"/>
<path d="M5160 8734 c-6 -14 -10 -32 -10 -39 0 -24 -41 -125 -50 -125 -17 0
-44 52 -50 94 -3 27 -10 41 -20 41 -11 0 -14 -10 -12 -40 7 -77 57 -149 90
-129 23 14 61 90 69 137 4 27 10 37 24 37 29 0 31 16 4 34 -32 21 -34 21 -45
-10z"/>
<path d="M4149 8742 c-25 -11 -63 -45 -82 -74 -24 -39 -21 -73 10 -104 22 -23
32 -26 70 -21 49 5 101 43 83 61 -6 6 -16 4 -28 -7 -30 -27 -79 -33 -102 -12
-35 32 -20 55 34 55 46 0 83 69 54 98 -13 13 -16 14 -39 4z m11 -52 c-6 -11
-21 -20 -33 -20 l-22 1 24 19 c30 26 45 26 31 0z"/>
<path d="M4847 8706 c-20 -18 -37 -40 -37 -49 0 -8 -7 -20 -15 -27 -18 -15
-19 -30 -2 -30 6 0 18 -13 25 -30 16 -36 40 -44 91 -30 37 10 61 33 61 59 0
18 -28 12 -42 -8 -18 -25 -55 -36 -73 -21 -24 20 -18 36 25 64 47 31 73 67 64
90 -11 27 -57 19 -97 -18z m63 -1 c0 -8 -55 -55 -65 -55 -5 0 5 14 23 30 31
29 42 35 42 25z"/>
<path d="M5293 8721 c-17 -11 -36 -29 -42 -40 -6 -11 -17 -26 -25 -34 -21 -21
-6 -79 24 -94 22 -11 75 -10 138 3 12 2 22 11 22 20 0 11 -8 14 -32 10 -39 -7
-86 -10 -110 -8 -30 3 -20 27 17 41 43 15 77 57 73 90 -4 33 -25 36 -65 12z
m17 -46 c-13 -14 -28 -25 -33 -25 -6 0 0 11 13 25 13 14 28 25 33 25 6 0 0
-11 -13 -25z"/>
<path d="M5474 8713 c-4 -10 -17 -47 -31 -82 -35 -90 -19 -101 50 -35 28 27
63 59 76 69 l24 20 -15 -25 c-20 -33 -30 -77 -23 -101 8 -23 59 -26 81 -5 22
23 17 27 -21 20 -36 -6 -36 -6 -29 22 4 16 18 51 32 77 13 27 21 51 18 54 -13
13 -62 -11 -107 -54 -27 -25 -49 -43 -49 -41 0 3 7 22 15 41 8 20 15 41 15 47
0 17 -30 11 -36 -7z"/>
<path d="M7150 8711 c-18 -14 -29 -17 -42 -10 -14 8 -22 2 -42 -28 -34 -52
-117 -237 -119 -267 -4 -47 18 -31 62 47 40 71 46 77 76 77 57 0 135 71 152
138 13 53 -40 79 -87 43z m60 -21 c0 -6 -9 -29 -20 -51 -21 -40 -71 -79 -102
-79 -24 0 -23 12 3 28 11 7 18 20 15 27 -3 9 12 29 36 50 41 35 68 45 68 25z"/>
<path d="M2456 8698 c-2 -7 -11 -35 -20 -62 -11 -34 -13 -53 -6 -60 6 -6 13
-6 18 0 9 9 42 109 42 125 0 14 -30 11 -34 -3z"/>
<path d="M6705 8700 c-46 -17 -93 -106 -75 -140 15 -27 45 -33 79 -16 38 20
61 53 61 89 0 53 -27 81 -65 67z m35 -60 c0 -32 -11 -50 -41 -66 -27 -13 -30
-13 -36 2 -3 9 2 32 12 50 24 45 65 54 65 14z"/>
<path d="M6858 8680 c-23 -14 -58 -73 -58 -99 0 -13 10 -26 26 -33 22 -10 32
-9 62 7 52 28 69 63 53 104 -10 24 -20 31 -40 31 -14 0 -34 -5 -43 -10z m46
-72 c-28 -30 -54 -42 -67 -29 -13 13 16 59 46 70 31 12 45 -14 21 -41z"/>
<path d="M7314 8559 c-7 -12 15 -31 28 -23 4 3 8 12 8 20 0 17 -26 19 -36 3z"/>
<path d="M8828 8559 c-2 -7 -44 -15 -103 -20 -55 -4 -136 -13 -180 -19 -44 -7
-111 -10 -150 -8 -41 2 -71 -1 -72 -7 -6 -23 95 -33 199 -20 l55 7 -7 -49 c-5
-27 -16 -67 -25 -89 -20 -48 -65 -207 -65 -229 0 -24 23 -13 31 16 4 13 28 90
54 171 28 89 44 156 40 168 -5 16 -2 20 17 21 13 0 62 4 109 7 l86 7 -13 -56
c-7 -32 -31 -105 -54 -163 -63 -167 -48 -193 45 -77 73 90 89 97 69 30 -15
-50 -16 -106 -1 -101 4 1 7 3 7 5 0 1 9 35 20 76 12 41 19 80 16 88 -11 27
-50 13 -98 -37 -26 -27 -48 -48 -48 -45 0 3 11 33 25 68 24 57 75 234 75 257
0 14 -27 13 -32 -1z"/>
<path d="M11390 8551 c0 -10 -22 -63 -49 -117 -70 -143 -147 -352 -133 -366
14 -14 32 -2 32 21 0 30 73 217 134 344 31 64 56 122 56 127 0 6 -9 10 -20 10
-13 0 -20 -7 -20 -19z"/>
<path d="M14768 8438 l-63 -123 -50 -8 c-82 -12 -95 -17 -95 -33 0 -12 7 -14
30 -10 17 3 44 9 60 12 36 7 35 8 10 -47 -24 -53 -26 -99 -5 -99 9 0 15 9 15
21 0 12 12 48 26 80 l27 58 58 12 c37 7 59 17 59 25 0 10 -11 12 -45 8 l-44
-5 40 88 c23 48 45 92 50 98 12 12 12 45 -1 45 -5 0 -38 -55 -72 -122z"/>
<path d="M10630 8524 c0 -33 -43 -159 -58 -171 -9 -7 -28 -13 -44 -13 -18 0
-28 -5 -28 -15 0 -8 9 -15 20 -15 11 0 20 5 20 10 0 7 6 6 13 -2 10 -9 12 -22
6 -48 -15 -63 -11 -125 9 -143 23 -21 33 -21 77 0 42 20 46 37 8 30 -69 -14
-68 -14 -71 21 -2 18 2 57 8 87 l11 54 46 3 c63 4 71 28 10 28 l-45 0 24 75
c28 88 30 115 9 115 -8 0 -15 -7 -15 -16z"/>
<path d="M13323 8508 c-5 -7 -16 -29 -23 -48 -29 -77 -113 -236 -136 -258 -14
-14 -21 -28 -17 -35 4 -7 8 -29 8 -49 0 -39 18 -56 23 -22 2 10 10 38 18 60
13 36 20 43 58 54 47 13 101 6 109 -13 3 -7 -2 -32 -10 -56 -10 -29 -11 -47
-5 -53 13 -13 36 31 46 84 6 31 3 39 -20 57 -15 12 -40 21 -55 21 -16 0 -29 5
-29 12 0 6 3 9 6 5 3 -3 37 19 75 48 38 29 75 55 81 58 10 3 10 8 2 17 -16 16
-37 4 -130 -71 -40 -33 -75 -59 -78 -59 -4 0 12 37 35 82 52 103 72 159 61
170 -5 5 -13 3 -19 -4z"/>
<path d="M14295 8468 c-3 -7 -13 -40 -23 -73 -11 -35 -45 -100 -80 -152 -59
-87 -74 -123 -53 -123 5 0 12 -8 16 -18 6 -21 45 -42 75 -42 26 0 87 60 106
105 26 64 -21 103 -85 71 -17 -9 -31 -15 -31 -12 0 2 16 30 35 62 20 33 43 84
52 114 9 30 18 61 20 68 3 6 -2 12 -11 12 -9 0 -19 -6 -21 -12z m13 -275 c3
-22 -37 -77 -69 -94 -24 -13 -59 5 -59 30 0 20 31 51 75 74 36 19 49 17 53
-10z"/>
<path d="M7130 8370 c-96 -3 -503 -6 -905 -6 -626 -1 -1306 -14 -1425 -29 -19
-3 -298 -7 -620 -11 -472 -5 -653 -3 -940 11 -195 9 -592 19 -882 22 -481 5
-529 4 -553 -11 -31 -20 -33 -37 -2 -29 12 3 41 8 65 10 23 3 42 10 42 15 0 7
4 7 13 1 7 -6 202 -13 492 -17 264 -3 629 -13 810 -21 345 -16 1141 -18 1480
-4 671 28 854 31 1445 30 360 -1 817 3 1015 9 229 7 378 8 408 2 39 -8 50 -7
54 5 3 7 3 17 -1 20 -9 9 -294 11 -496 3z"/>
<path d="M10024 8332 c-7 -4 -24 -42 -39 -84 -15 -43 -33 -85 -40 -95 -12 -17
-14 -16 -25 12 -7 17 -9 50 -6 75 6 45 -4 77 -21 67 -13 -8 -15 -116 -2 -156
15 -46 23 -54 47 -47 21 7 47 54 87 156 23 62 23 87 -1 72z"/>
<path d="M9030 8304 c-38 -33 -73 -99 -65 -124 11 -34 45 -68 74 -75 51 -11
152 78 122 108 -12 12 -31 1 -31 -18 0 -18 -53 -55 -78 -55 -11 0 -25 7 -33
16 -14 18 -6 27 44 46 45 17 73 88 45 116 -19 19 -44 14 -78 -14z m51 -42 c-9
-17 -62 -52 -79 -52 -9 0 31 55 52 72 25 20 42 8 27 -20z"/>
<path d="M9718 8293 c-15 -10 -35 -33 -45 -53 -10 -19 -24 -40 -32 -46 -11 -9
-11 -13 1 -25 8 -8 18 -27 22 -42 9 -37 43 -51 100 -43 35 6 46 12 46 25 0 27
-10 31 -36 15 -27 -18 -63 -15 -77 7 -7 12 2 27 42 67 39 39 51 58 51 82 0 25
-4 30 -22 30 -13 0 -35 -8 -50 -17z m30 -38 c-6 -14 -21 -31 -33 -39 -21 -14
-23 -14 -18 5 5 16 47 59 59 59 2 0 -2 -11 -8 -25z"/>
<path d="M12496 8287 c-33 -12 -61 -28 -64 -34 -6 -20 26 -27 43 -9 9 9 22 16
28 16 7 0 23 3 36 7 31 8 22 -8 -42 -76 -68 -72 -58 -92 24 -45 34 19 63 33
63 32 37 -63 44 -65 102 -36 29 14 71 108 58 129 -8 14 -34 -2 -34 -23 0 -27
-26 -74 -45 -82 -27 -10 -33 -7 -47 22 -10 19 -20 26 -37 24 l-22 -2 21 30
c25 35 23 64 -5 67 -11 1 -47 -8 -79 -20z"/>
<path d="M10088 8259 c-59 -50 -80 -105 -54 -144 21 -31 58 -33 106 -4 34 21
50 37 50 52 0 13 -19 7 -56 -18 -42 -28 -69 -32 -78 -10 -9 25 3 40 50 63 46
23 71 59 61 86 -10 25 -28 19 -79 -25z"/>
<path d="M13008 8263 c-29 -31 -68 -104 -68 -127 0 -38 22 -21 48 36 35 77 56
97 82 80 24 -14 37 2 20 23 -19 23 -54 18 -82 -12z"/>
<path d="M13539 8271 l-23 -19 29 -42 c22 -32 27 -45 18 -58 -13 -23 -73 -29
-73 -8 0 23 -15 27 -27 7 -15 -24 -2 -41 39 -50 78 -18 125 51 77 113 -24 30
-17 51 11 34 25 -16 35 -5 20 21 -13 26 -41 27 -71 2z"/>
<path d="M11612 8272 c-6 -2 -12 -8 -12 -14 0 -5 -7 -16 -15 -24 -18 -19 -29
-59 -22 -79 16 -41 119 -18 137 31 6 15 8 34 5 44 -6 19 -73 49 -93 42z m28
-43 c0 -6 7 -9 15 -5 10 3 15 -1 15 -13 0 -23 -19 -40 -51 -43 -24 -3 -27 4
-18 42 7 26 39 41 39 19z"/>
<path d="M10270 8268 c0 -2 -11 -34 -25 -73 -24 -72 -19 -110 10 -69 7 11 31
41 51 65 30 35 36 39 30 19 -22 -81 -16 -110 25 -110 26 0 34 20 10 27 -25 6
-25 7 -6 68 8 27 12 52 9 57 -9 15 -37 8 -62 -14 l-24 -23 7 28 c6 21 4 27 -9
27 -9 0 -16 -1 -16 -2z"/>
<path d="M11862 8245 c-16 -13 -32 -22 -35 -19 -14 14 -144 -267 -132 -287 4
-5 10 -9 15 -9 12 0 56 69 78 123 15 38 20 42 53 43 45 1 97 36 114 77 14 33
11 52 -13 80 -21 24 -45 21 -80 -8z m66 -37 c5 -38 -70 -100 -99 -83 -21 14
60 120 85 112 6 -2 12 -15 14 -29z"/>
<path d="M12821 8235 c-65 -75 -14 -144 63 -84 23 18 27 27 24 68 -3 41 -6 46
-29 49 -19 2 -34 -6 -58 -33z m59 -24 c0 -23 -25 -51 -46 -51 -20 0 -17 20 8
47 26 28 38 29 38 4z"/>
<path d="M15145 8252 c-41 -26 -95 -89 -95 -112 0 -40 75 -64 121 -40 32 18
23 33 -16 26 -41 -8 -78 1 -72 17 2 6 30 24 63 41 48 25 59 36 59 56 0 31 -21
36 -60 12z"/>
<path d="M15318 8235 c-68 -50 -77 -104 -21 -126 32 -12 102 -8 106 6 1 6 -14
11 -33 13 -89 7 -110 33 -42 52 45 12 75 41 70 67 -5 29 -30 25 -80 -12z"/>
<path d="M15520 8256 c0 -7 -17 -33 -39 -57 -73 -84 -66 -126 12 -74 29 19 66
43 84 54 l32 20 -11 -24 c-14 -32 5 -57 40 -53 31 4 42 28 13 28 -25 0 -26 11
-5 52 34 65 -23 52 -136 -31 l-35 -26 38 43 c38 43 49 82 22 82 -8 0 -15 -6
-15 -14z"/>
<path d="M11414 8252 c-21 -13 -54 -91 -54 -126 0 -52 35 -58 98 -19 39 24 48
35 50 62 4 36 -20 71 -48 71 -9 0 -20 4 -26 10 -5 5 -14 6 -20 2z m54 -54 c23
-23 13 -47 -28 -68 -49 -25 -50 -25 -50 5 0 24 39 75 58 75 4 0 13 -5 20 -12z"/>
<path d="M14412 8231 c-76 -56 -89 -97 -41 -133 21 -16 35 -18 77 -12 52 7 93
27 80 39 -4 4 -29 2 -56 -4 -48 -10 -92 -6 -92 9 0 4 15 11 34 14 48 9 88 49
84 84 -4 38 -35 39 -86 3z m35 -37 c-25 -21 -57 -32 -57 -19 0 9 74 54 79 49
3 -3 -7 -17 -22 -30z"/>
<path d="M14788 8248 c-17 -6 -28 -17 -28 -29 0 -23 -1 -23 39 -3 18 9 34 14
37 12 2 -3 -12 -26 -31 -51 -19 -25 -35 -51 -35 -56 0 -14 36 -14 62 0 16 9
23 7 35 -10 22 -32 63 -27 100 12 58 62 79 107 50 107 -8 0 -18 -10 -24 -23
-32 -71 -103 -114 -103 -64 0 31 -9 38 -31 26 -24 -12 -24 -7 1 33 31 51 -2
72 -72 46z"/>
<path d="M7670 8216 c0 -17 -85 -277 -101 -307 -23 -45 -24 -59 -5 -59 8 0 27
31 44 73 36 87 93 278 86 289 -5 8 -24 11 -24 4z"/>
<path d="M6788 8158 c-11 -9 -24 -64 -43 -172 -35 -208 -61 -277 -115 -306
-28 -15 -54 15 -46 54 8 39 54 87 80 84 13 -2 22 4 24 15 6 27 -50 22 -87 -9
-57 -48 -65 -138 -16 -170 33 -22 71 -6 106 44 40 58 55 105 84 272 15 85 31
161 37 168 16 19 -4 35 -24 20z"/>
<path d="M7500 8153 c0 -10 -24 -82 -52 -160 -58 -156 -46 -143 -135 -147 -54
-2 -42 -21 15 -24 46 -3 53 -6 47 -20 -24 -59 -45 -129 -45 -149 0 -48 22 -16
52 75 29 88 32 92 60 92 16 0 27 4 23 9 -3 5 5 11 17 13 28 4 36 28 9 28 -12
0 -21 -4 -21 -10 0 -5 -9 -10 -21 -10 -16 0 -19 4 -14 18 35 88 88 243 92 270
4 25 2 32 -11 32 -9 0 -16 -8 -16 -17z"/>
<path d="M2435 8073 c-3 -16 -14 -62 -23 -103 l-18 -75 -63 -11 c-63 -12 -92
-26 -73 -38 5 -3 34 -1 63 4 29 6 54 8 57 5 2 -2 -6 -45 -18 -95 -16 -66 -20
-94 -12 -102 14 -14 17 -6 46 110 l22 87 42 6 c49 6 60 15 44 31 -7 7 -12 8
-12 2 0 -6 -13 -9 -30 -6 -36 5 -36 11 -8 106 20 70 20 106 -1 106 -6 0 -13
-12 -16 -27z"/>
<path d="M2576 8073 c-3 -3 -6 -15 -6 -26 0 -25 -75 -249 -101 -298 -20 -41
-25 -79 -9 -79 5 0 15 10 21 23 34 66 121 159 135 144 2 -2 -5 -30 -16 -62
-24 -71 -26 -125 -5 -125 10 0 15 10 15 30 0 16 10 59 21 95 18 53 19 68 9 80
-17 21 -42 19 -74 -6 -33 -26 -33 -18 4 81 17 45 30 94 30 110 0 29 -12 45
-24 33z"/>
<path d="M4735 8026 c-83 -36 -179 -178 -177 -262 1 -84 47 -120 139 -111 l52
5 3 -41 c2 -29 8 -42 18 -42 12 0 14 11 12 50 l-2 50 52 35 c132 89 169 238
70 283 -15 7 -35 20 -44 30 -21 20 -80 22 -123 3z m95 -26 c-8 -5 -23 -10 -33
-10 -25 0 -97 -38 -97 -51 0 -13 25 -8 85 15 52 20 95 20 124 0 50 -36 4 -154
-85 -215 l-43 -29 -6 37 c-4 21 -7 44 -8 52 -1 8 -6 13 -12 10 -5 -2 -9 -30
-8 -61 l1 -57 -34 -7 c-48 -9 -102 3 -114 26 -16 29 -11 91 9 137 24 52 96
132 136 149 36 16 108 19 85 4z"/>
<path d="M9640 8025 c0 -8 -9 -39 -21 -70 -18 -49 -23 -55 -50 -55 -16 0 -29
-5 -29 -11 0 -8 -4 -8 -14 0 -10 8 -16 8 -25 -3 -17 -20 0 -28 49 -20 l41 7
-21 -52 c-24 -63 -27 -131 -5 -131 10 0 15 10 15 33 0 17 9 57 19 87 19 59 17
57 118 76 14 3 20 9 17 18 -4 9 -18 12 -48 9 -33 -4 -44 -2 -49 11 -3 8 -2 18
4 21 10 7 39 71 39 86 0 5 -9 9 -20 9 -11 0 -20 -7 -20 -15z"/>
<path d="M4154 8003 c-3 -10 -17 -44 -31 -75 -24 -52 -29 -57 -62 -60 -38 -3
-46 -21 -11 -26 11 -2 20 -4 20 -5 0 -1 -7 -20 -15 -42 -22 -61 -19 -102 10
-130 27 -28 76 -33 94 -12 15 19 4 27 -29 21 -41 -9 -64 19 -56 69 12 74 30
94 88 104 37 6 54 13 56 25 3 14 -3 15 -37 11 -23 -3 -41 -3 -41 1 0 4 11 29
25 56 14 27 25 56 25 65 0 21 -29 19 -36 -2z"/>
<path d="M9141 7855 c-45 -136 -53 -170 -45 -192 14 -41 29 -33 31 18 1 25 22
103 47 174 48 135 54 165 34 165 -8 0 -36 -70 -67 -165z"/>
<path d="M9066 7988 c-2 -7 -9 -35 -16 -63 -6 -27 -32 -96 -56 -153 -49 -110
-59 -157 -34 -157 9 0 18 16 23 45 5 25 13 50 17 55 4 6 24 51 44 100 41 100
55 168 37 179 -6 4 -13 1 -15 -6z"/>
<path d="M10185 7883 c-16 -43 -34 -87 -42 -99 -19 -31 -22 -119 -3 -119 8 0
14 6 12 14 -6 29 20 82 46 92 35 13 107 1 138 -23 21 -17 25 -27 22 -62 -2
-31 1 -41 12 -41 19 0 26 70 10 100 -16 29 -56 51 -109 60 -27 4 -39 10 -31
15 7 4 8 10 4 12 -5 3 -4 3 3 2 15 -4 135 68 141 84 7 23 -24 12 -107 -38 -58
-35 -81 -45 -76 -33 4 10 12 32 17 48 6 17 15 34 19 40 14 15 10 25 -10 25
-14 0 -25 -19 -46 -77z"/>
<path d="M3595 7910 c-16 -5 -47 -11 -67 -14 l-38 -7 0 -64 c0 -35 -5 -76 -11
-92 -10 -26 -11 -27 -23 -10 -8 9 -17 49 -20 87 -7 68 -18 92 -31 69 -4 -6 -4
-44 0 -86 7 -80 26 -113 66 -113 27 0 48 51 52 127 3 53 6 58 28 61 39 5 89
23 89 32 0 15 -14 17 -45 10z"/>
<path d="M3300 7893 c-46 -17 -90 -91 -90 -152 0 -46 20 -71 58 -71 51 1 149
58 124 74 -5 3 -31 -6 -58 -20 -57 -29 -88 -28 -92 2 -2 15 4 23 18 27 14 4
19 10 14 18 -4 7 -3 10 4 6 13 -9 60 46 68 78 10 39 -7 52 -46 38z m10 -40 c0
-13 -48 -68 -54 -63 -7 7 33 70 45 70 5 0 9 -3 9 -7z"/>
<path d="M6210 7863 c-49 -34 -84 -94 -76 -129 7 -28 40 -32 73 -9 19 13 21
13 17 -3 -6 -23 11 -46 29 -39 9 3 13 14 10 31 -3 16 4 42 21 71 l25 46 -24
25 c-29 28 -42 30 -75 7z m25 -68 c-29 -36 -62 -61 -72 -51 -8 8 36 74 60 91
35 25 42 1 12 -40z"/>
<path d="M2725 7859 c-34 -17 -65 -72 -65 -116 0 -43 35 -93 65 -93 19 0 131
56 140 70 17 28 -12 26 -71 -7 -63 -34 -66 -35 -84 -18 -29 26 -25 42 15 55
35 12 75 52 75 76 0 16 -28 44 -43 43 -7 0 -21 -5 -32 -10z m22 -66 c-8 -8
-23 -13 -33 -11 -17 3 -16 7 11 33 26 27 30 28 33 11 2 -10 -3 -25 -11 -33z"/>
<path d="M7790 7863 c-65 -25 -115 -104 -104 -162 8 -39 56 -81 94 -81 38 0
120 74 102 92 -8 8 -18 3 -39 -19 -34 -37 -65 -48 -93 -33 -21 11 -36 52 -25
69 3 6 18 11 32 11 37 0 95 61 91 97 -3 29 -26 39 -58 26z m30 -33 c0 -19 -49
-60 -71 -60 l-22 0 24 26 c19 21 45 38 67 43 1 1 2 -4 2 -9z"/>
<path d="M3653 7844 c-73 -36 -96 -135 -39 -162 25 -12 35 -12 81 5 47 18 53
18 63 4 9 -14 12 -14 32 5 12 12 25 39 30 60 8 35 7 37 -6 20 -19 -26 -18 0 1
34 19 34 19 52 -2 48 -10 -2 -25 -26 -37 -62 -12 -33 -28 -61 -36 -62 -8 -2
-33 -9 -56 -15 -23 -7 -49 -9 -60 -4 -16 7 -14 9 14 15 36 8 78 42 85 69 6 23
-10 61 -25 61 -7 0 -28 -8 -45 -16z m37 -34 c0 -15 -38 -50 -55 -50 -21 0 -19
10 7 37 22 24 48 31 48 13z"/>
<path d="M3874 7832 c-28 -24 -54 -72 -40 -72 3 0 22 16 43 35 20 19 39 33 40
31 2 -2 -5 -24 -14 -50 -13 -35 -15 -51 -7 -64 14 -21 49 -23 49 -2 0 8 -6 14
-12 13 -17 -4 -16 7 2 50 8 20 15 48 15 62 0 34 -35 33 -76 -3z"/>
<path d="M5688 7837 c-14 -13 -28 -38 -32 -55 -18 -96 -20 -88 20 -113 40 -25
110 -28 145 -6 28 17 56 74 43 87 -8 8 -16 3 -29 -17 -27 -41 -46 -52 -87 -53
-45 0 -56 13 -23 28 14 7 35 32 47 56 18 38 20 49 10 71 -15 33 -60 34 -94 2z
m66 -26 c8 -13 -37 -75 -57 -79 -21 -4 -22 19 -2 58 15 29 47 40 59 21z"/>
<path d="M6409 7831 l-36 -30 5 24 c9 47 -17 25 -48 -41 -40 -83 -29 -101 27
-42 22 24 55 54 73 67 l33 24 -7 -34 c-3 -19 -15 -47 -27 -62 -12 -17 -18 -35
-14 -47 8 -25 24 -26 31 -2 3 9 15 36 25 59 25 54 22 107 -6 111 -11 1 -36
-11 -56 -27z"/>
<path d="M7577 7828 c-19 -21 -26 -25 -19 -11 9 17 9 22 -4 27 -16 6 -30 -17
-19 -34 3 -5 2 -10 -3 -10 -15 0 -63 -99 -60 -123 2 -12 10 -22 18 -22 14 0
32 25 95 126 30 49 48 50 39 3 -11 -57 -11 -87 3 -91 7 -3 16 22 24 66 10 57
10 73 -1 86 -19 23 -39 18 -73 -17z"/>
<path d="M9286 7839 c-33 -26 -33 -39 5 -93 37 -52 35 -83 -5 -65 -14 7 -30
25 -37 40 -12 30 -23 36 -34 19 -10 -17 24 -69 57 -86 24 -12 36 -14 54 -5 34
15 31 58 -7 110 -29 41 -29 43 -12 57 10 7 37 14 61 14 30 0 42 4 42 15 0 24
-91 20 -124 -6z"/>
<path d="M5230 7828 c-68 -34 -91 -109 -49 -162 27 -34 82 -35 130 -3 37 25
51 57 25 57 -9 0 -16 -5 -16 -10 0 -17 -66 -43 -93 -36 -42 10 -47 56 -5 56
11 0 33 9 49 21 80 57 47 120 -41 77z m50 -27 c0 -13 -46 -41 -67 -41 -15 1
-13 5 10 25 28 25 57 33 57 16z"/>
<path d="M5471 7805 c-17 -25 -31 -50 -31 -56 0 -5 -4 -9 -8 -9 -11 0 -82 -70
-82 -81 0 -16 37 -9 55 11 17 19 18 19 35 -2 17 -21 18 -22 45 -4 15 10 42 33
60 52 18 19 36 34 39 34 4 0 5 -19 4 -42 -3 -37 0 -43 17 -46 19 -3 21 3 21
78 0 48 -4 80 -10 80 -6 0 -41 -30 -78 -67 -37 -37 -71 -63 -75 -59 -4 4 8 36
27 72 24 46 31 67 23 75 -7 7 -19 -3 -42 -36z"/>
<path d="M8572 7817 c-42 -28 -61 -62 -62 -109 0 -62 45 -89 115 -66 25 8 41
20 43 32 3 15 0 17 -14 11 -77 -31 -114 -22 -114 26 0 44 62 103 97 94 20 -5
24 -2 21 12 -5 26 -47 26 -86 0z"/>
<path d="M9716 7809 c-48 -57 -27 -107 40 -94 23 4 34 3 30 -4 -10 -15 36 -43
49 -30 7 7 5 14 -6 22 -11 9 -13 21 -8 46 4 22 3 39 -4 47 -7 7 -18 20 -25 29
-20 24 -48 18 -76 -16z m53 -51 c-12 -10 -27 -18 -35 -18 -22 0 -16 37 8 55
21 14 24 14 36 -2 11 -15 10 -21 -9 -35z"/>
<path d="M9968 7824 c-39 -21 -68 -83 -65 -136 2 -24 7 -43 13 -43 38 1 85 19
95 36 14 28 4 35 -25 19 -27 -14 -56 -8 -56 12 0 26 42 80 71 91 30 12 34 30
8 34 -8 1 -26 -4 -41 -13z"/>
<path d="M4981 7793 c-14 -48 -14 -99 -1 -124 18 -32 76 -25 115 14 42 42 64
109 45 133 -13 15 -15 15 -26 -1 -6 -9 -10 -24 -7 -34 12 -45 -53 -112 -93
-97 -16 6 -17 29 -2 120 6 36 -21 27 -31 -11z"/>
<path d="M8800 7820 c-46 -29 -80 -66 -80 -86 0 -42 46 -50 97 -16 22 14 22
14 12 -16 -13 -38 -8 -84 9 -90 9 -3 13 2 10 14 -2 11 8 56 23 102 23 68 25
84 14 88 -8 3 -19 3 -25 -1 -5 -3 -10 -1 -10 4 0 14 -30 14 -50 1z m50 -29 c0
-16 -65 -61 -86 -61 -15 0 -12 7 18 35 36 34 68 45 68 26z"/>
<path d="M10502 7717 c-8 -9 -5 -19 8 -37 15 -20 20 -22 34 -11 20 17 20 28 2
47 -18 17 -30 18 -44 1z"/>
</g>
</svg>
