<?xml version="1.0" standalone="no"?>
<!DOCTYPE svg PUBLIC "-//W3C//DTD SVG 20010904//EN"
 "http://www.w3.org/TR/2001/REC-SVG-20010904/DTD/svg10.dtd">
<svg version="1.0" xmlns="http://www.w3.org/2000/svg"
 width="1618.000000pt" height="1214.000000pt" viewBox="0 0 1618.000000 1214.000000"
 preserveAspectRatio="xMidYMid meet">

<g transform="translate(0.000000,1214.000000) scale(0.100000,-0.100000)"
fill="#000000" stroke="none">
<path d="M7071 11766 c-50 -67 -61 -93 -100 -221 -17 -55 -34 -105 -39 -112
-5 -9 -19 -9 -47 -3 -25 6 -44 5 -50 -1 -13 -13 11 -29 43 -29 32 0 35 -18 13
-83 -13 -36 -16 -59 -10 -63 15 -9 22 1 44 69 19 59 22 62 58 68 43 7 52 13
42 29 -4 7 -19 9 -36 5 l-28 -6 24 68 c13 37 31 93 39 124 9 31 34 84 57 118
36 55 45 62 66 56 20 -5 24 -2 21 12 -2 11 -14 19 -30 21 -22 3 -33 -6 -67
-52z"/>
<path d="M2625 11705 c-16 -7 -26 -14 -22 -14 5 -1 -5 -13 -22 -27 -17 -14
-31 -32 -31 -40 0 -25 27 -15 57 21 30 38 78 53 127 41 24 -6 26 -11 26 -61 0
-42 -5 -60 -22 -80 -26 -28 -93 -54 -85 -31 3 7 8 39 12 71 6 46 5 56 -5 50
-10 -6 -12 -4 -7 9 4 9 3 15 -1 13 -4 -2 -16 -7 -27 -11 -19 -7 -19 -8 -2 -21
17 -12 18 -19 8 -66 -6 -29 -19 -58 -28 -64 -14 -10 -15 -16 -5 -27 9 -12 7
-30 -8 -86 -24 -87 -26 -132 -5 -132 9 0 15 9 15 23 0 12 10 61 22 110 17 68
26 87 39 87 34 0 68 -23 84 -57 14 -30 15 -42 5 -81 -6 -26 -16 -50 -22 -53
-14 -9 -1 -29 17 -29 21 0 49 103 40 147 -3 20 -19 49 -35 65 -27 27 -28 29
-9 38 31 17 49 64 49 129 0 51 -3 62 -22 75 -28 20 -102 20 -143 1z"/>
<path d="M13410 11701 c-5 -11 -10 -26 -10 -33 0 -7 -11 -37 -25 -67 -25 -53
-25 -53 -50 -37 -19 13 -33 14 -66 7 -50 -11 -76 -34 -100 -86 -31 -67 -25
-97 32 -176 9 -12 3 -30 -30 -89 -29 -51 -41 -83 -39 -104 4 -41 20 -36 33 11
5 21 25 66 43 99 32 58 36 62 78 68 54 7 117 38 138 68 25 35 20 89 -12 134
-28 39 -28 39 -10 69 17 29 48 121 48 144 0 18 -18 13 -30 -8z m-115 -173 c31
-14 31 -19 2 -66 -12 -20 -34 -58 -47 -85 -14 -26 -29 -46 -35 -44 -5 2 -18
20 -29 41 -16 33 -17 43 -7 78 14 44 51 88 75 88 8 0 27 -5 41 -12z m101 -134
c-4 -14 -21 -31 -44 -42 -41 -21 -92 -36 -92 -27 0 9 40 86 67 129 l25 38 25
-37 c17 -25 23 -44 19 -61z"/>
<path d="M10407 11693 c-12 -11 -8 -23 8 -23 8 0 15 7 15 15 0 16 -12 20 -23
8z"/>
<path d="M10790 11676 c0 -14 -14 -64 -31 -111 -25 -70 -36 -88 -58 -96 -25
-10 -25 -11 -7 -24 18 -13 18 -16 -3 -76 -24 -72 -26 -99 -8 -99 7 0 24 38 39
89 l28 89 46 7 c54 8 94 24 94 38 0 9 -51 4 -107 -9 -22 -6 -22 -6 7 82 34 98
37 134 15 134 -9 0 -15 -9 -15 -24z"/>
<path d="M3660 11648 c0 -39 -40 -209 -69 -292 -23 -64 -27 -116 -11 -116 6 0
12 6 14 13 2 6 18 59 34 117 39 131 73 290 66 301 -13 22 -34 8 -34 -23z"/>
<path d="M7592 11648 c-5 -7 -15 -53 -22 -103 -14 -101 -41 -199 -65 -232 -21
-30 -45 -30 -45 0 0 28 26 67 46 67 15 0 19 25 5 34 -14 9 -68 -41 -79 -73
-22 -63 37 -105 84 -60 33 31 59 106 79 229 10 58 22 110 27 117 10 13 3 33
-11 33 -5 0 -13 -6 -19 -12z"/>
<path d="M10395 11633 c-4 -16 -26 -84 -51 -153 -46 -131 -66 -208 -58 -222 3
-4 12 -8 20 -8 9 0 14 11 14 34 0 19 22 96 49 173 61 174 68 203 47 203 -9 0
-18 -12 -21 -27z"/>
<path d="M6006 11638 c-2 -7 -16 -48 -31 -90 l-27 -78 -40 0 c-45 0 -50 -23
-6 -28 25 -3 26 -4 20 -67 -5 -63 -4 -65 32 -101 27 -27 40 -34 48 -26 8 8 3
19 -20 41 -34 31 -42 74 -22 125 8 21 16 26 45 26 39 0 75 15 75 31 0 6 -19 7
-50 3 l-50 -7 25 67 c26 70 32 116 15 116 -6 0 -12 -6 -14 -12z"/>
<path d="M8485 11638 c-59 -191 -64 -198 -132 -198 -19 0 -24 4 -20 18 52 168
54 182 33 182 -9 0 -18 -18 -25 -48 -5 -27 -20 -75 -31 -106 -19 -50 -24 -56
-43 -50 -36 11 -52 10 -52 -5 0 -8 14 -18 31 -23 l31 -8 -18 -64 c-18 -68 -16
-106 7 -106 10 0 14 12 14 38 0 40 27 132 38 132 4 1 26 5 49 9 l42 8 -21 -51
c-30 -74 -33 -96 -15 -96 9 0 18 8 21 18 9 26 93 118 101 110 4 -4 2 -28 -4
-54 -9 -34 -9 -50 -1 -58 8 -8 13 -7 20 4 12 20 24 116 15 129 -8 14 -40 14
-65 1 -16 -8 -14 3 15 83 45 128 49 147 30 147 -9 0 -17 -6 -20 -12z"/>
<path d="M9685 11563 c-27 -123 -54 -202 -73 -212 -9 -6 -12 -11 -5 -11 7 0
10 -7 6 -16 -8 -21 33 -53 67 -54 57 0 120 69 120 133 0 36 -23 51 -70 44 -22
-3 -40 -2 -40 1 0 4 11 49 23 100 21 84 22 92 6 92 -13 0 -21 -18 -34 -77z
m81 -175 c-6 -33 -56 -88 -79 -88 -6 0 -18 4 -25 9 -35 22 33 111 85 111 23 0
25 -3 19 -32z"/>
<path d="M14271 11617 c-6 -8 -9 -16 -6 -19 3 -3 -1 -21 -9 -40 l-15 -35 -41
11 c-48 12 -79 -1 -114 -47 -30 -40 -30 -141 0 -181 l21 -29 -50 -84 c-27 -45
-53 -83 -58 -83 -5 0 -9 -7 -9 -15 0 -18 50 -21 50 -2 0 6 22 48 48 92 l47 80
40 -3 c63 -5 102 6 140 42 50 47 48 87 -6 155 l-41 52 21 50 c20 46 21 69 2
69 -5 0 -14 -6 -20 -13z m-53 -125 c-1 -4 -23 -47 -48 -95 -40 -79 -46 -86
-60 -72 -10 10 -15 35 -15 71 0 50 3 58 30 80 28 22 101 35 93 16z m71 -57
c42 -48 40 -76 -6 -114 -30 -25 -47 -31 -85 -31 l-48 0 45 90 c25 50 49 90 54
90 5 0 23 -16 40 -35z"/>
<path d="M15012 11600 c-53 -25 -63 -34 -60 -52 4 -25 28 -37 28 -13 0 19 103
70 125 61 18 -7 12 -26 -33 -94 -23 -35 -58 -69 -110 -105 -72 -49 -102 -87
-69 -87 8 0 35 16 60 35 25 19 48 35 51 35 3 0 6 -20 6 -45 0 -35 4 -47 21
-56 42 -22 167 17 140 44 -7 7 -14 7 -25 -2 -8 -7 -34 -13 -58 -14 l-43 -2 -3
53 c-3 47 0 57 31 95 58 70 82 124 69 153 -16 33 -51 31 -130 -6z"/>
<path d="M15411 11565 c-23 -55 -35 -63 -36 -25 0 21 -5 23 -50 14 -26 -5 -34
-15 -59 -72 -31 -73 -32 -138 -2 -171 15 -16 14 -22 -14 -72 -29 -54 -40 -109
-20 -109 6 0 13 8 16 18 3 9 16 41 29 69 25 53 25 53 69 51 24 -1 55 4 69 11
52 28 63 114 22 175 l-25 37 25 51 c28 55 31 78 13 78 -7 0 -24 -25 -37 -55z
m-59 -66 c26 -14 20 -43 -23 -123 -29 -54 -33 -57 -46 -41 -23 33 -10 117 25
158 18 20 18 20 44 6z m66 -74 c30 -66 3 -125 -57 -125 l-37 0 35 74 c20 41
39 75 42 75 3 1 11 -10 17 -24z"/>
<path d="M13625 11593 c-50 -17 -73 -39 -59 -53 8 -8 22 -5 48 11 20 11 43 18
51 15 14 -5 14 -9 1 -34 -23 -44 -135 -174 -171 -199 -30 -20 -45 -42 -45 -64
0 -18 27 -8 55 21 35 37 53 38 80 3 17 -21 27 -25 48 -20 34 9 61 37 49 49 -6
6 -20 3 -38 -8 -22 -15 -28 -16 -32 -5 -2 7 -12 21 -22 31 -16 16 -14 21 42
91 66 81 81 112 73 140 -10 31 -36 38 -80 22z"/>
<path d="M4100 11576 c0 -22 17 -28 40 -16 29 16 25 30 -10 30 -19 0 -30 -5
-30 -14z"/>
<path d="M15594 11576 c-8 -20 -1 -40 16 -48 13 -5 12 -7 -2 -7 -31 -2 -73
-255 -43 -263 5 -2 13 23 17 55 4 31 16 96 28 143 24 104 25 134 5 134 -9 0
-18 -6 -21 -14z"/>
<path d="M14565 11553 c-10 -16 -54 -62 -98 -104 -103 -97 -94 -116 39 -83 20
5 21 3 14 -36 -10 -55 -1 -120 16 -120 9 0 13 16 12 58 -1 82 7 100 44 104 34
3 52 28 21 28 -39 0 -42 12 -23 89 11 41 17 78 14 83 -9 14 -21 9 -39 -19z
m-18 -111 c-8 -32 -16 -42 -32 -42 -11 0 -31 -3 -45 -7 -20 -5 -14 5 30 45 30
27 56 49 57 48 1 0 -4 -20 -10 -44z"/>
<path d="M15809 11565 c-27 -14 -53 -60 -44 -76 4 -5 1 -9 -4 -9 -6 0 -11 -15
-11 -33 0 -32 -18 -57 -52 -70 -28 -10 -50 -52 -42 -82 17 -68 194 -74 194 -7
0 9 -13 39 -29 67 l-29 50 39 28 c22 16 37 33 33 38 -3 5 2 9 10 9 16 0 46 37
46 57 0 38 -62 55 -111 28z m58 -58 c-12 -15 -37 -38 -56 -50 l-34 -21 7 30
c14 54 33 74 71 71 l34 -2 -22 -28z m-71 -168 c21 -41 23 -53 12 -60 -31 -20
-118 -2 -118 25 0 22 22 66 30 61 4 -2 16 2 26 10 10 8 20 15 21 15 2 0 14
-23 29 -51z"/>
<path d="M7160 11506 c0 -7 6 -19 14 -25 19 -16 32 5 16 24 -16 19 -30 19 -30
1z"/>
<path d="M9425 11482 c-26 -5 -65 -41 -76 -71 -19 -48 32 -87 79 -62 14 7 17
4 19 -16 1 -26 20 -46 35 -37 4 3 5 18 1 35 -3 17 1 48 12 75 9 25 16 46 14
47 -52 27 -67 33 -84 29z m32 -49 c4 -10 -3 -24 -21 -40 -34 -29 -56 -30 -56
-1 0 45 63 79 77 41z"/>
<path d="M9962 11479 c-48 -14 -50 -29 -17 -111 4 -10 -1 -24 -14 -37 -27 -27
-37 -26 -44 0 -7 26 -33 19 -29 -7 6 -37 12 -44 36 -44 30 0 86 45 86 70 0 10
-7 34 -15 54 -17 40 -21 35 53 61 16 6 6 25 -11 24 -7 0 -27 -5 -45 -10z"/>
<path d="M2932 11463 c-70 -34 -86 -130 -31 -185 27 -27 35 -30 73 -25 55 8
96 26 96 44 0 17 -9 16 -53 -2 -50 -21 -73 -19 -97 7 -26 28 -26 48 0 48 44 0
110 52 110 87 0 17 -29 43 -48 43 -9 0 -32 -8 -50 -17z m50 -48 c-15 -22 -67
-43 -77 -33 -8 8 27 50 49 57 35 14 48 3 28 -24z"/>
<path d="M3172 11474 c-7 -3 -17 -14 -22 -24 -8 -16 -2 -28 35 -70 47 -53 58
-95 29 -107 -21 -8 -47 8 -54 33 -7 25 -30 29 -30 5 0 -33 11 -51 43 -67 28
-15 32 -15 56 4 46 34 41 86 -14 144 -19 20 -35 39 -35 42 0 2 15 6 33 8 42 4
44 32 2 35 -16 1 -36 -1 -43 -3z"/>
<path d="M3927 11465 c-62 -17 -74 -28 -88 -79 -35 -129 -39 -129 -59 -8 -7
46 -17 76 -26 79 -23 8 -27 -3 -16 -39 6 -18 13 -54 17 -81 8 -59 45 -108 68
-89 8 7 18 25 21 40 30 126 32 130 90 146 30 9 56 23 60 31 6 18 -3 18 -67 0z"/>
<path d="M10942 11454 c-34 -23 -52 -67 -52 -124 0 -68 13 -90 51 -90 33 0
129 38 129 51 0 18 -20 17 -67 -3 -63 -26 -83 -20 -83 27 0 31 3 35 25 35 29
0 95 55 95 79 0 40 -56 55 -98 25z m58 -34 c-12 -22 -56 -47 -65 -38 -10 10 8
40 29 48 38 15 48 12 36 -10z"/>
<path d="M4252 11436 c-16 -15 -40 -26 -52 -26 -19 0 -21 -4 -16 -25 4 -14 0
-41 -9 -61 -15 -36 -13 -54 5 -54 6 0 23 29 39 64 29 65 67 104 85 86 6 -6 2
-39 -12 -92 -13 -52 -17 -87 -11 -92 15 -16 25 4 44 88 20 88 14 129 -21 134
-12 2 -35 -8 -52 -22z"/>
<path d="M10127 11428 c-33 -44 -40 -70 -27 -102 28 -75 130 -36 130 49 0 27
-45 85 -65 85 -8 0 -25 -15 -38 -32z m63 -33 c14 -37 -3 -75 -35 -75 -21 0
-25 5 -25 30 0 61 42 92 60 45z"/>
<path d="M8652 11433 c-18 -9 -42 -29 -54 -45 -18 -26 -19 -34 -9 -69 16 -52
49 -73 106 -67 49 6 82 25 66 41 -5 5 -17 5 -29 -2 -30 -16 -78 -13 -96 5 -27
26 -19 35 44 49 16 4 60 51 60 65 0 13 -30 40 -43 40 -7 0 -27 -8 -45 -17z
m30 -54 c-25 -23 -60 -16 -40 8 16 20 52 33 57 21 2 -5 -6 -18 -17 -29z"/>
<path d="M3413 11425 c-65 -28 -90 -119 -44 -156 47 -38 108 -15 135 50 16 41
12 76 -12 104 -18 20 -36 21 -79 2z m65 -56 c5 -60 -52 -111 -86 -77 -19 19
-14 63 11 85 46 42 71 40 75 -8z"/>
<path d="M7231 11424 c-29 -20 -81 -102 -81 -126 0 -28 18 -21 36 15 27 51 57
87 72 87 12 0 14 -12 8 -64 -7 -71 5 -95 23 -44 15 41 14 121 -1 136 -16 16
-29 15 -57 -4z"/>
<path d="M4461 11404 c-34 -28 -41 -67 -18 -98 13 -18 46 -19 97 -5 11 3 15
-9 18 -59 l4 -63 -544 5 c-540 5 -1555 23 -1593 28 -14 2 -19 -2 -16 -12 14
-59 12 -196 -4 -261 -12 -50 -14 -74 -6 -82 7 -7 12 -5 17 9 9 23 88 104 103
104 15 0 13 -46 -4 -104 -10 -34 -12 -53 -5 -60 15 -15 24 1 39 63 17 67 17
97 1 116 -18 22 -44 19 -77 -9 l-28 -24 3 92 c5 150 -4 140 110 132 53 -3 205
-6 338 -7 l240 0 -28 -55 c-15 -31 -30 -71 -34 -89 -5 -30 -11 -34 -45 -40
-26 -4 -39 -12 -39 -22 0 -12 7 -14 30 -9 35 6 36 2 15 -66 -8 -27 -11 -48 -8
-48 4 0 2 -5 -5 -12 -16 -16 -15 -48 1 -48 8 0 23 33 37 83 12 45 27 87 32 92
5 6 32 15 60 20 28 6 54 16 56 24 4 11 -6 12 -52 7 l-57 -8 7 29 c4 15 18 51
33 78 19 37 32 51 51 53 20 2 22 1 10 -7 -9 -7 -10 -11 -3 -11 7 0 16 7 20 15
8 13 38 13 233 5 124 -5 424 -10 667 -10 436 0 441 0 436 -20 -4 -15 -14 -20
-40 -20 -40 0 -88 -22 -97 -45 -20 -54 13 -135 55 -135 27 0 65 40 84 88 l16
39 37 -12 c20 -7 39 -11 42 -8 5 5 -23 29 -55 49 -14 7 -16 17 -11 38 6 25 10
28 49 25 50 -3 148 9 168 22 11 6 11 11 2 20 -9 9 -23 9 -57 0 -25 -6 -69 -11
-99 -11 l-54 0 -6 93 c-7 103 -13 127 -32 127 -7 0 -18 7 -25 15 -18 21 -34
19 -69 -11z m63 -65 c-21 -23 -57 -21 -62 3 -2 9 6 26 17 37 l21 21 21 -21
c20 -20 20 -21 3 -40z m16 -268 c0 -20 -30 -78 -50 -96 -22 -19 -22 -19 -36 0
-21 29 -17 71 8 89 24 17 78 22 78 7z"/>
<path d="M4070 11394 c-32 -84 -42 -126 -32 -136 15 -15 32 -1 32 26 0 13 7
40 15 59 17 42 20 77 5 77 -6 0 -15 -12 -20 -26z"/>
<path d="M5265 11399 c-38 -10 -80 -18 -92 -18 -23 -1 -40 -18 -29 -28 4 -4
50 2 104 12 109 20 122 24 122 35 0 16 -38 16 -105 -1z"/>
<path d="M6148 11397 c-38 -36 -45 -83 -17 -113 29 -31 69 -31 99 1 28 30 30
70 6 108 -23 34 -55 35 -88 4z m70 -60 c-4 -37 -31 -57 -55 -41 -24 15 -18 54
10 76 28 22 49 6 45 -35z"/>
<path d="M10435 11371 c-8 -59 -1 -87 26 -101 41 -23 122 46 131 110 5 37 -24
32 -34 -6 -10 -38 -50 -77 -75 -72 -15 3 -18 13 -18 57 0 71 -21 79 -30 12z"/>
<path d="M7096 11346 c-19 -65 -20 -106 -3 -106 7 0 17 24 24 58 7 31 15 67
19 80 5 16 2 22 -9 22 -10 0 -21 -19 -31 -54z"/>
<path d="M14679 11289 c-15 -29 3 -46 25 -24 9 9 16 23 16 31 0 21 -28 17 -41
-7z"/>
<path d="M13784 11279 c-10 -17 13 -36 27 -22 12 12 4 33 -11 33 -5 0 -12 -5
-16 -11z"/>
<path d="M2299 11183 c-1 -5 -1 -11 -1 -14 1 -3 -10 -33 -23 -65 -23 -57 -25
-59 -61 -59 -49 0 -56 -22 -9 -31 36 -6 36 -7 30 -48 -13 -82 34 -170 80 -152
23 8 18 23 -12 38 -32 16 -46 57 -38 116 6 40 8 42 41 42 27 0 34 4 34 20 0
16 -5 19 -30 13 l-31 -6 27 61 c25 59 27 92 4 92 -5 0 -11 -3 -11 -7z"/>
<path d="M5749 11153 c-1 -5 -1 -45 1 -89 2 -102 -20 -152 -91 -198 -23 -14
-28 -15 -38 -2 -17 20 33 116 61 116 10 0 18 7 18 16 0 11 -8 14 -27 12 -22
-2 -35 -15 -60 -58 -40 -66 -42 -94 -8 -116 30 -19 51 -13 103 31 56 47 75 97
73 193 0 46 -3 88 -6 93 -7 11 -24 12 -26 2z"/>
<path d="M6164 11123 c-3 -10 -10 -29 -16 -43 -31 -76 -59 -162 -54 -167 3 -3
-1 -11 -10 -17 -23 -18 -30 -89 -10 -105 12 -10 20 -11 27 -4 8 8 7 13 0 17
-18 11 -13 32 34 153 35 90 43 118 33 125 -10 6 -8 8 5 8 11 0 17 8 17 25 0
29 -18 34 -26 8z"/>
<path d="M1814 11028 c-16 -18 -36 -43 -45 -56 -9 -13 -19 -23 -23 -23 -21 3
-25 -2 -20 -27 3 -15 -6 -89 -20 -163 -29 -152 -30 -159 -17 -159 24 0 40 36
51 117 18 136 16 130 47 126 83 -11 165 127 117 195 -22 31 -56 28 -90 -10z
m72 -25 c14 -52 -49 -133 -102 -133 -33 0 -6 76 49 138 27 29 45 28 53 -5z"/>
<path d="M3835 11033 c-28 -7 -81 -60 -96 -95 -10 -24 -9 -31 7 -49 18 -20 46
-22 84 -5 10 4 21 -4 32 -24 9 -16 28 -32 42 -36 27 -6 81 15 75 31 -4 10 -10
10 -45 0 -50 -16 -63 50 -20 108 l20 28 -29 24 c-31 25 -36 26 -70 18z m31
-49 c-3 -9 -6 -22 -6 -30 0 -15 -56 -54 -77 -54 -21 0 -15 31 13 67 17 22 33
33 51 33 19 0 24 -4 19 -16z"/>
<path d="M5165 11020 c-3 -5 -16 -10 -28 -10 -17 0 -31 -17 -60 -71 -35 -65
-40 -89 -17 -89 5 0 18 17 29 38 18 35 101 124 101 109 0 -4 -9 -25 -20 -46
-16 -33 -17 -41 -5 -51 11 -9 25 -1 70 40 31 28 59 50 61 48 2 -2 -3 -24 -10
-49 -15 -48 -7 -79 20 -79 19 0 31 30 15 39 -9 6 -9 18 0 53 23 83 -6 101 -70
42 l-40 -35 6 35 c5 33 4 36 -20 36 -14 0 -29 -4 -32 -10z"/>
<path d="M5480 11007 c-31 -16 -90 -93 -90 -118 0 -28 36 -59 68 -59 36 0 90
34 102 64 11 29 -2 80 -26 107 -20 22 -22 22 -54 6z m38 -39 c17 -17 15 -64
-4 -82 -22 -23 -62 -30 -79 -16 -20 17 -20 20 16 68 32 44 47 50 67 30z"/>
<path d="M1996 10978 c-48 -64 -26 -134 35 -111 27 10 30 9 35 -13 3 -13 13
-24 21 -24 12 0 14 8 9 34 -4 22 -1 49 10 76 20 49 13 59 -43 67 -37 5 -43 2
-67 -29z m76 -8 c12 0 -18 -49 -41 -67 -23 -18 -31 -16 -31 7 0 30 30 72 47
66 8 -4 19 -6 25 -6z"/>
<path d="M6320 10993 c-21 -8 -65 -43 -54 -43 5 0 -2 -7 -14 -16 -37 -25 -25
-105 20 -133 21 -13 103 -17 137 -6 12 3 26 16 32 27 10 19 9 20 -12 13 -13
-4 -47 -10 -76 -12 -42 -4 -55 -1 -72 16 -28 28 -27 51 2 51 52 0 122 53 115
87 -3 19 -48 28 -78 16z m30 -43 c-28 -22 -80 -43 -80 -32 0 14 64 50 90 51
10 0 6 -6 -10 -19z"/>
<path d="M5809 10928 c-25 -49 -18 -91 22 -120 21 -16 30 -17 55 -8 59 23 119
105 107 149 -6 25 -36 29 -31 4 10 -44 -55 -123 -100 -123 -30 0 -45 45 -27
80 8 16 15 36 15 45 0 28 -19 16 -41 -27z"/>
<path d="M2856 10919 c-20 -29 -26 -50 -24 -77 3 -35 5 -37 41 -40 30 -3 43 2
67 27 37 37 38 67 3 103 -36 38 -56 35 -87 -13z m72 -11 c17 -17 15 -31 -8
-56 -45 -48 -80 -12 -44 43 18 27 34 31 52 13z"/>
<path d="M6617 10824 c-14 -14 -7 -35 11 -32 9 2 17 10 17 17 0 16 -18 25 -28
15z"/>
<path d="M5484 10353 c-3 -10 -16 -43 -29 -73 -12 -30 -25 -63 -28 -72 -5 -14
-18 -18 -63 -18 -70 0 -71 -23 -1 -28 26 -2 47 -5 47 -6 0 -2 -7 -23 -15 -47
-16 -45 -22 -129 -11 -148 15 -23 23 -9 25 44 1 30 10 78 20 107 l18 53 54 5
c39 4 54 9 54 20 0 11 -11 14 -48 11 -47 -3 -49 -2 -42 21 4 13 16 40 26 60
21 40 25 88 9 88 -6 0 -13 -8 -16 -17z"/>
<path d="M7744 10318 c-14 -22 -39 -70 -55 -105 -26 -59 -30 -63 -61 -63 -47
0 -79 -11 -75 -24 2 -7 22 -10 50 -8 l45 3 -5 -58 c-9 -99 24 -139 107 -131
53 5 50 28 -3 28 -69 0 -89 37 -71 129 6 26 11 31 35 31 33 0 39 19 9 27 -16
4 -19 11 -14 27 10 34 77 156 86 156 4 0 8 7 8 15 0 29 -30 15 -56 -27z"/>
<path d="M11843 10338 c-6 -7 -18 -43 -27 -81 -9 -37 -48 -132 -86 -210 -39
-79 -70 -151 -70 -160 0 -26 26 -20 45 10 47 72 146 156 163 139 3 -4 -9 -37
-28 -75 -18 -38 -30 -76 -27 -85 9 -22 40 -21 35 2 -3 9 8 43 24 74 15 32 28
69 28 83 0 50 -58 45 -120 -11 -22 -20 -40 -33 -40 -30 0 4 18 41 39 84 47 94
97 250 84 263 -6 6 -14 5 -20 -3z"/>
<path d="M7910 10338 c-1 -2 -2 -28 -5 -58 -5 -84 -31 -195 -60 -257 -14 -30
-25 -59 -25 -64 0 -22 31 -5 61 34 34 43 68 76 82 77 12 0 8 -68 -5 -72 -10
-4 -10 -10 -1 -31 26 -57 46 -20 41 74 -3 47 -6 54 -25 57 -13 2 -36 -6 -53
-18 l-29 -21 13 38 c18 51 40 207 33 227 -5 13 -26 23 -27 14z"/>
<path d="M9617 10333 c-4 -3 -7 -15 -7 -25 0 -10 -4 -18 -9 -18 -5 0 -28 -32
-51 -71 l-43 -71 -51 4 c-40 2 -51 0 -51 -12 0 -11 15 -17 50 -21 28 -3 45 -7
39 -7 -15 -3 -47 -89 -46 -125 1 -38 20 -57 58 -60 34 -2 42 25 9 31 -50 10
-51 24 -13 115 19 44 23 47 59 47 21 0 41 5 44 10 3 6 11 10 16 10 6 0 7 -5 3
-12 -4 -7 -3 -8 5 -4 21 13 1 26 -41 26 -47 0 -47 -3 16 99 41 67 48 91 27 91
-4 0 -11 -3 -14 -7z"/>
<path d="M3130 10324 c0 -4 -7 -52 -16 -108 -23 -142 -70 -239 -136 -281 -35
-22 -58 -13 -58 20 0 54 43 108 98 122 36 9 43 26 13 31 -59 9 -141 -78 -141
-149 0 -63 40 -85 99 -54 72 37 131 153 155 303 20 122 20 122 1 122 -8 0 -15
-3 -15 -6z"/>
<path d="M11116 10297 c-17 -19 -51 -75 -76 -125 -29 -58 -51 -91 -62 -91 -29
-2 -48 -13 -48 -28 0 -11 7 -13 26 -9 24 6 26 5 20 -16 -3 -13 -9 -42 -12 -65
-6 -36 -4 -43 10 -43 9 0 16 8 16 17 0 9 7 42 16 74 14 49 19 57 41 57 38 0
50 18 22 32 -13 7 -25 14 -27 15 -3 2 54 104 82 148 13 19 24 26 37 22 14 -5
19 -1 19 13 0 35 -30 35 -64 -1z"/>
<path d="M11700 10319 c0 -7 -20 -53 -44 -104 l-44 -93 -63 -6 c-35 -3 -75 -4
-89 -3 -17 1 -26 -4 -28 -17 -4 -17 2 -18 77 -14 45 3 81 4 81 4 0 -1 -13 -33
-30 -71 -41 -98 -38 -145 12 -145 23 0 23 19 1 35 -16 12 -15 18 14 91 28 74
33 79 63 84 41 6 53 30 15 30 -15 0 -25 3 -23 8 44 85 88 184 88 196 0 9 -7
16 -15 16 -8 0 -15 -5 -15 -11z"/>
<path d="M5084 10305 c-4 -8 -4 -25 0 -38 7 -29 -28 -145 -69 -228 -31 -60
-68 -99 -95 -99 -16 0 -12 53 7 80 24 36 35 41 54 24 8 -8 19 -11 22 -7 14 14
6 34 -18 45 -50 23 -109 -48 -103 -125 3 -39 5 -42 34 -45 44 -4 88 36 128
117 46 93 91 246 80 275 -8 20 -33 21 -40 1z"/>
<path d="M10337 10288 c-13 -18 -37 -54 -52 -80 -26 -47 -28 -48 -77 -48 -60
0 -63 -23 -4 -28 31 -3 36 -6 30 -20 -43 -102 -46 -161 -9 -198 20 -20 34 -25
63 -22 25 2 38 8 40 20 3 14 -3 16 -31 11 -68 -11 -88 58 -43 152 l23 50 81
19 c86 20 129 46 76 46 -16 0 -51 -7 -78 -15 -27 -8 -51 -13 -54 -11 -6 7 45
90 68 111 11 10 20 24 20 32 0 24 -29 14 -53 -19z"/>
<path d="M12744 10306 c-65 -29 -106 -104 -134 -248 l-11 -57 -42 -3 c-29 -2
-42 -8 -42 -18 0 -11 10 -14 39 -12 l40 4 -19 -29 c-11 -15 -30 -47 -43 -70
-13 -24 -28 -45 -33 -48 -16 -10 -10 -25 10 -25 15 0 33 24 68 90 l48 90 58
12 c34 7 57 17 57 25 0 15 -32 17 -76 4 l-31 -9 15 72 c26 128 73 196 137 196
20 0 26 4 23 17 -4 23 -25 26 -64 9z"/>
<path d="M14089 10289 c-7 -13 -25 -55 -39 -94 l-27 -70 -52 -9 c-33 -6 -51
-15 -51 -24 0 -11 10 -13 45 -10 25 3 45 5 45 4 0 0 -11 -32 -25 -71 -28 -81
-31 -115 -10 -115 8 0 15 7 15 16 0 20 50 166 61 178 4 5 29 14 55 21 69 17
72 40 5 32 -28 -3 -50 -3 -47 1 2 4 16 38 31 75 18 47 24 72 17 79 -7 7 -14 2
-23 -13z"/>
<path d="M2235 10290 c-3 -5 -4 -14 -1 -18 6 -11 -37 -189 -69 -285 -14 -42
-23 -82 -20 -87 8 -14 -101 -13 -126 1 -15 7 -24 7 -35 -1 -22 -19 -8 -29 54
-34 45 -5 654 -16 1002 -20 30 0 199 4 376 8 l321 9 6 -23 c9 -34 1 -40 -49
-40 -81 0 -121 -73 -73 -134 16 -20 29 -26 60 -26 53 0 89 35 89 84 l0 35 50
-2 c62 -3 66 15 6 27 -44 8 -46 10 -46 41 l0 33 238 -4 c239 -3 302 3 302 32
0 17 -9 17 -125 3 -54 -6 -154 -8 -252 -4 l-163 7 0 47 c0 70 -7 85 -46 97
-30 10 -39 8 -67 -10 -35 -24 -54 -64 -43 -91 5 -13 15 -16 49 -13 23 3 49 8
58 12 13 6 16 2 12 -18 l-5 -26 -167 -1 c-91 0 -249 -4 -351 -8 -102 -4 -273
-4 -380 1 -107 4 -261 8 -342 9 -118 1 -145 4 -141 15 3 8 -2 17 -11 20 -9 3
-13 10 -10 15 3 5 -4 9 -15 9 -10 0 -21 -5 -23 -12 -5 -14 -118 -25 -118 -11
0 6 9 36 21 69 24 69 69 255 69 284 0 21 -24 28 -35 10z m1505 -290 c0 -19
-40 -50 -65 -50 -30 0 -32 13 -5 40 21 21 70 28 70 10z m-1413 -106 c-3 -3
-12 -4 -19 -1 -8 3 -5 6 6 6 11 1 17 -2 13 -5z m1413 -157 c0 -66 -83 -94
-104 -35 -14 39 14 68 66 68 36 0 38 -1 38 -33z"/>
<path d="M13090 10259 c0 -7 -7 -17 -16 -23 -8 -7 -24 -50 -35 -96 -11 -46
-38 -124 -59 -172 -22 -48 -40 -95 -40 -104 0 -28 34 -10 40 21 4 17 19 53 33
82 15 29 38 96 51 149 14 53 32 104 41 114 10 11 14 24 10 29 -8 14 -25 14
-25 0z"/>
<path d="M6320 10205 c0 -8 7 -15 15 -15 8 0 15 7 15 15 0 8 -7 15 -15 15 -8
0 -15 -7 -15 -15z"/>
<path d="M3320 10176 c0 -15 24 -28 34 -19 13 14 5 33 -14 33 -11 0 -20 -6
-20 -14z"/>
<path d="M6905 10132 c-60 -20 -66 -39 -31 -92 14 -21 28 -50 32 -64 5 -21 2
-26 -18 -31 -32 -8 -75 9 -83 34 -7 24 -35 29 -35 7 0 -8 10 -27 23 -41 47
-54 147 -39 147 23 0 15 -14 47 -30 72 -28 42 -29 46 -12 58 9 7 37 12 62 11
34 -2 44 1 42 12 -8 32 -28 34 -97 11z"/>
<path d="M12867 10135 c-4 -8 -2 -17 3 -20 13 -8 52 14 45 26 -9 14 -42 11
-48 -6z"/>
<path d="M5559 10101 c-49 -49 -57 -116 -18 -156 25 -25 122 -26 147 -1 23 22
11 28 -38 17 -91 -20 -136 30 -60 69 47 24 74 61 65 90 -11 33 -52 25 -96 -19z
m65 -5 c-7 -19 -54 -50 -62 -41 -8 7 43 55 58 55 5 0 7 -6 4 -14z"/>
<path d="M5843 10127 c-13 -6 -23 -13 -23 -17 0 -4 -11 -18 -23 -31 -15 -15
-28 -46 -35 -83 -15 -74 -15 -76 2 -76 13 0 46 81 46 114 0 31 42 67 74 64 16
-2 31 2 33 8 6 18 -48 33 -74 21z"/>
<path d="M5167 10103 c-29 -31 -57 -91 -57 -123 0 -51 73 -75 149 -49 30 11
39 38 10 31 -54 -13 -106 -13 -117 0 -10 13 -5 18 28 31 28 11 44 26 56 50 16
34 16 37 0 61 -21 33 -36 33 -69 -1z m53 -21 c0 -14 -31 -52 -51 -62 -24 -13
-24 -3 1 38 18 28 50 44 50 24z"/>
<path d="M6435 10100 c-16 -11 -37 -17 -47 -14 -22 6 -33 -13 -18 -31 9 -11 9
-15 1 -15 -6 0 -18 -17 -28 -37 -9 -21 -19 -41 -21 -45 -2 -5 3 -8 12 -8 9 0
16 4 16 8 0 14 114 132 128 132 19 0 14 -56 -9 -110 -21 -48 -20 -80 1 -80 6
0 12 6 14 13 2 6 11 35 20 62 38 118 7 175 -69 125z"/>
<path d="M6629 10081 c-47 -47 -52 -89 -15 -126 25 -25 99 -42 136 -30 37 12
16 28 -39 31 -33 2 -60 9 -72 20 -24 21 -25 43 -1 38 9 -2 35 6 57 19 32 18
41 29 43 55 3 31 2 32 -34 32 -29 0 -44 -8 -75 -39z m76 -1 c-8 -13 -66 -43
-71 -37 -7 7 47 47 63 47 8 0 11 -5 8 -10z"/>
<path d="M8835 10109 c-71 -40 -86 -96 -37 -141 29 -29 76 -51 86 -41 3 4 6
15 6 25 0 15 -5 18 -20 13 -24 -8 -70 34 -70 63 0 24 44 55 79 56 34 1 35 30
1 33 -14 2 -34 -2 -45 -8z"/>
<path d="M9763 10110 c-23 -9 -70 -74 -73 -100 -11 -80 17 -100 110 -80 33 7
63 17 66 22 14 22 -14 26 -64 12 -29 -9 -59 -13 -67 -10 -26 10 -16 35 17 44
39 10 93 78 82 105 -7 18 -36 21 -71 7z m22 -54 c-10 -15 -26 -26 -39 -26 -19
1 -18 4 12 31 39 35 51 33 27 -5z"/>
<path d="M9913 10048 c-11 -40 -23 -81 -28 -90 -5 -13 -3 -18 7 -18 8 0 29 22
46 48 31 49 113 105 129 89 4 -4 2 -21 -5 -37 -7 -17 -17 -43 -24 -60 -9 -22
-9 -33 -1 -41 15 -15 65 95 61 136 -4 41 -43 45 -103 10 l-45 -26 6 31 c5 22
3 30 -8 30 -10 0 -22 -25 -35 -72z"/>
<path d="M6011 10092 c-13 -9 -31 -17 -39 -17 -20 0 -69 -112 -55 -126 7 -7
23 8 50 47 49 73 68 82 59 28 -4 -22 -9 -47 -12 -57 -3 -10 1 -20 11 -23 19
-8 78 45 102 89 21 41 28 26 14 -29 -9 -35 -9 -49 0 -60 15 -18 26 -10 27 18
0 13 5 44 11 70 25 109 -20 102 -102 -17 -25 -34 -28 -29 -16 24 7 31 6 47 -2
57 -14 17 -18 17 -48 -4z"/>
<path d="M8998 10087 c-79 -67 -54 -147 44 -134 55 7 82 35 73 75 -3 17 -13
36 -21 43 -8 6 -14 18 -14 25 0 22 -52 17 -82 -9z m74 -35 c4 -4 9 -18 10 -32
3 -21 -3 -26 -35 -34 -30 -8 -41 -7 -53 6 -15 15 -15 19 2 47 16 26 23 31 44
26 14 -4 28 -10 32 -13z"/>
<path d="M9166 10036 c-51 -104 -47 -124 12 -63 21 22 32 43 32 62 0 21 3 26
9 16 7 -11 15 -10 46 9 20 12 38 20 41 18 2 -3 -5 -30 -17 -61 -18 -46 -19
-60 -9 -72 16 -19 34 -19 49 -1 10 11 8 16 -5 24 -17 10 -17 12 0 50 36 79 1
115 -69 72 -29 -18 -35 -19 -35 -6 0 38 -20 20 -54 -48z"/>
<path d="M8103 10079 c-17 -11 -38 -37 -47 -60 -14 -35 -15 -42 -1 -63 20 -30
56 -46 103 -46 52 0 82 10 82 26 0 11 -13 12 -57 8 -43 -4 -63 -2 -78 9 l-20
16 20 6 c48 15 70 32 78 62 18 63 -18 82 -80 42z m53 -25 c-3 -9 -6 -19 -6
-24 0 -4 -14 -13 -31 -19 -40 -14 -39 -14 -39 2 0 12 57 57 73 57 5 0 6 -7 3
-16z"/>
<path d="M12034 10072 c-26 -20 -74 -102 -74 -125 0 -8 12 -29 26 -46 22 -26
33 -31 71 -31 50 0 113 31 113 56 0 20 -17 17 -47 -6 -38 -30 -98 -27 -119 5
-20 31 -15 37 34 42 69 7 108 55 82 102 -13 26 -56 28 -86 3z m56 -31 c0 -21
-16 -36 -47 -44 -28 -6 -29 3 -2 37 24 30 49 34 49 7z"/>
<path d="M13735 10049 c-54 -49 -62 -72 -40 -105 13 -20 23 -25 46 -22 17 3
30 -1 33 -9 9 -22 38 -16 31 6 -3 12 4 33 20 56 29 44 30 47 10 85 -21 41 -47
38 -100 -11z m75 -4 c0 -17 -42 -83 -55 -89 -28 -10 -35 -7 -35 18 0 15 12 34
31 50 28 24 59 34 59 21z"/>
<path d="M2513 10064 c-3 -9 -17 -28 -29 -42 -51 -54 -12 -110 66 -97 22 4 40
12 40 18 0 5 3 7 7 4 13 -13 53 36 53 65 0 33 -28 53 -88 62 -34 5 -44 3 -49
-10z m91 -30 c46 -18 -5 -75 -68 -77 -45 -1 -53 7 -35 39 19 37 64 53 103 38z"/>
<path d="M3279 10075 c-1 -3 -2 -8 -3 -12 -1 -5 -14 -35 -29 -67 -15 -33 -26
-67 -25 -75 5 -27 32 -17 39 14 3 17 16 52 28 78 11 27 19 53 15 58 -6 10 -23
12 -25 4z"/>
<path d="M3438 10055 c-12 -14 -28 -23 -35 -21 -8 3 -22 -15 -38 -48 -14 -29
-25 -56 -25 -60 0 -20 32 5 79 62 29 35 58 61 64 59 18 -6 20 -51 3 -91 -10
-23 -11 -38 -5 -42 16 -9 28 8 43 58 27 88 -32 145 -86 83z"/>
<path d="M6266 10068 c-2 -7 -13 -40 -25 -74 -25 -72 -25 -74 -7 -74 14 0 50
82 57 129 4 25 -18 42 -25 19z"/>
<path d="M13184 10058 c-23 -26 -54 -103 -54 -134 0 -30 41 -64 78 -64 44 0
102 30 102 52 0 23 -2 22 -42 -2 -40 -24 -71 -25 -92 -4 -23 22 -20 41 7 48
13 3 36 17 51 31 21 19 27 33 24 58 -2 26 -8 33 -28 35 -17 2 -33 -5 -46 -20z
m27 -51 c-29 -29 -36 -16 -9 18 14 18 23 24 26 16 2 -7 -5 -22 -17 -34z"/>
<path d="M2721 10036 c-24 -25 -32 -41 -29 -62 3 -25 7 -29 33 -28 17 0 37 4
47 8 11 5 18 2 22 -12 8 -23 29 -34 51 -26 21 9 19 25 -5 31 -22 6 -26 36 -10
78 9 23 7 27 -16 35 -41 16 -58 12 -93 -24z m79 -3 c-1 -18 -53 -63 -72 -63
-15 0 -8 24 14 47 20 22 58 32 58 16z"/>
<path d="M10778 10024 c-35 -18 -49 -44 -41 -75 14 -56 58 -75 99 -41 46 37
51 77 13 115 -22 21 -35 21 -71 1z m58 -40 c8 -31 -25 -70 -50 -61 -25 10 -20
62 7 75 32 16 36 15 43 -14z"/>
<path d="M4153 10007 c-14 -22 19 -29 101 -22 65 5 86 10 86 21 0 12 -17 14
-91 12 -50 -2 -93 -7 -96 -11z"/>
<path d="M12810 9973 c-28 -63 -34 -90 -21 -97 6 -4 23 21 41 60 34 76 36 84
15 84 -8 0 -23 -21 -35 -47z"/>
<path d="M7127 9924 c-4 -4 -4 -17 -1 -30 6 -22 -34 -160 -56 -194 -6 -10 -31
-17 -70 -20 -76 -6 -79 -24 -5 -28 30 -2 55 -4 55 -5 0 -1 -11 -33 -24 -70
-23 -67 -24 -111 -2 -104 6 2 14 21 18 43 3 21 15 62 25 89 16 44 22 51 52 55
44 6 54 30 13 30 l-29 0 33 98 c19 53 33 106 32 117 -3 20 -28 32 -41 19z"/>
<path d="M7295 9908 c-2 -7 -10 -46 -19 -85 -8 -40 -38 -133 -65 -205 -60
-161 -60 -161 -38 -166 9 -2 17 2 17 10 1 32 110 152 125 136 2 -2 -2 -26 -10
-53 -17 -54 -13 -80 15 -95 26 -14 49 14 23 28 -16 9 -16 16 -5 71 7 34 10 66
7 71 -11 18 -53 10 -84 -16 -17 -14 -31 -24 -31 -22 0 3 11 32 25 66 31 76 77
251 69 263 -8 13 -24 11 -29 -3z"/>
<path d="M1810 9776 l-44 -105 -47 1 c-26 0 -53 -3 -59 -7 -21 -13 2 -25 50
-25 l49 0 -10 -32 c-11 -40 -14 -117 -5 -145 8 -24 51 -46 77 -38 31 10 22 33
-13 37 -32 3 -33 5 -36 50 -2 26 2 65 8 87 8 32 14 38 30 34 23 -6 26 9 6 26
-17 15 -7 50 42 148 17 33 28 63 25 67 -18 18 -33 -3 -73 -98z"/>
<path d="M1954 9817 c6 -26 -25 -218 -50 -304 -14 -50 -13 -73 5 -73 4 0 20
24 36 53 29 55 72 107 88 107 9 0 7 -20 -9 -107 -5 -25 -3 -33 8 -33 20 0 52
124 38 150 -16 31 -57 25 -93 -12 -29 -31 -30 -32 -24 -8 7 25 36 188 40 225
1 14 -5 21 -22 23 -21 3 -23 1 -17 -21z"/>
<path d="M5323 9751 c-12 -44 -30 -97 -40 -118 -16 -34 -22 -38 -61 -41 -34
-3 -43 -7 -40 -20 2 -13 12 -16 36 -14 37 4 39 -5 17 -67 -15 -43 -11 -75 9
-68 6 2 13 12 14 23 2 10 10 42 18 71 14 49 17 52 42 47 31 -5 58 9 48 25 -4
6 -18 11 -32 11 -13 0 -24 3 -24 8 0 4 16 52 34 107 19 55 32 103 30 107 -15
23 -31 -1 -51 -71z"/>
<path d="M5120 9784 c0 -48 -87 -305 -108 -320 -16 -12 -16 -13 0 -19 37 -15
53 -2 60 50 4 28 18 76 32 107 26 58 59 196 50 210 -3 4 -12 8 -20 8 -9 0 -14
-11 -14 -36z"/>
<path d="M5507 9724 c-14 -14 -7 -25 13 -22 12 2 21 8 21 13 0 12 -24 18 -34
9z"/>
<path d="M4189 9683 c-15 -15 -32 -37 -38 -48 -7 -12 -10 -14 -9 -5 3 15 -2
20 -21 20 -4 0 -11 -23 -14 -51 -4 -28 -15 -65 -26 -83 -18 -28 -19 -35 -7
-51 12 -17 14 -17 34 5 12 13 28 44 37 70 17 52 70 140 83 140 5 0 15 -18 22
-40 14 -42 37 -49 32 -10 -4 39 -26 75 -47 78 -12 2 -31 -9 -46 -25z"/>
<path d="M4398 9650 c-9 -5 -28 -31 -43 -56 -46 -78 -22 -158 45 -156 49 1
145 72 98 72 -7 0 -26 -9 -43 -20 -38 -25 -71 -25 -85 -1 -15 29 -13 61 4 55
22 -9 75 24 82 50 13 53 -16 81 -58 56z m30 -42 c-2 -6 -15 -18 -28 -27 -21
-14 -23 -14 -16 -1 16 27 28 40 38 40 5 0 8 -5 6 -12z"/>
<path d="M4643 9653 c-17 -6 -16 -33 2 -76 11 -27 12 -42 4 -66 -9 -25 -14
-29 -25 -20 -8 7 -11 21 -8 35 5 18 2 24 -10 24 -24 0 -31 -46 -11 -76 23 -36
55 -29 79 19 19 39 17 57 -11 126 -4 10 3 12 36 6 33 -5 41 -4 41 8 0 22 -62
35 -97 20z"/>
<path d="M2199 9638 c-16 -5 -36 -26 -50 -53 -19 -36 -21 -49 -13 -81 6 -24
18 -44 34 -53 23 -12 33 -12 85 5 38 12 61 25 63 36 3 15 -1 15 -55 -1 -66
-19 -89 -18 -96 8 -3 13 5 23 29 34 52 25 79 96 41 110 -7 2 -24 0 -38 -5z
m21 -37 c0 -13 -29 -41 -41 -41 -10 0 -5 13 14 38 11 14 27 16 27 3z"/>
<path d="M6699 9635 c-29 -15 -53 -63 -47 -92 4 -24 41 -28 72 -7 l26 16 0
-34 c0 -35 14 -58 37 -58 7 0 13 7 13 15 0 8 -5 15 -11 15 -12 0 -8 72 6 115
5 17 0 23 -28 33 -40 14 -36 15 -68 -3z m51 -34 c0 -13 -60 -55 -67 -47 -11
10 27 56 47 56 11 0 20 -4 20 -9z"/>
<path d="M6514 9608 c-28 -25 -34 -28 -26 -12 12 22 7 34 -14 34 -7 0 -17 -23
-24 -52 -6 -29 -33 -118 -61 -197 -28 -78 -48 -145 -45 -148 16 -16 37 16 71
106 35 93 40 101 65 101 60 0 165 134 140 180 -17 31 -63 26 -106 -12z m76
-19 c0 -30 -92 -124 -114 -116 -15 6 -15 10 3 46 22 42 74 91 97 91 8 0 14 -9
14 -21z"/>
<path d="M4795 9597 c-36 -55 -31 -130 10 -149 21 -9 30 -7 61 17 47 36 95
145 63 145 -5 0 -21 -24 -34 -53 -27 -63 -66 -95 -85 -72 -16 20 -5 78 20 100
11 10 17 22 14 26 -10 16 -33 9 -49 -14z"/>
<path d="M5615 9600 c-10 -11 -25 -20 -34 -20 -14 0 -71 -99 -71 -122 0 -23
29 -2 59 41 48 71 80 99 91 81 5 -9 0 -31 -17 -63 -22 -45 -23 -51 -9 -65 14
-14 16 -14 21 4 4 10 15 38 26 62 23 52 24 66 3 86 -21 22 -47 20 -69 -4z"/>
<path d="M5825 9595 c-41 -14 -85 -56 -85 -79 0 -24 29 -39 63 -33 l32 5 -3
-84 -3 -84 -27 6 c-15 3 -34 8 -43 10 -30 8 -68 -18 -78 -50 -10 -38 2 -141
19 -162 7 -7 23 -14 35 -14 30 0 91 71 107 122 8 28 17 38 35 40 29 4 31 22 2
26 -20 3 -21 7 -16 100 3 54 12 109 20 124 15 30 11 88 -7 88 -6 -1 -29 -7
-51 -15z m25 -35 c0 -17 -39 -50 -60 -50 -26 0 -17 21 18 43 31 19 42 21 42 7z
m-46 -266 c24 -9 19 -45 -13 -96 -37 -58 -50 -66 -68 -43 -13 19 -19 126 -6
138 8 9 66 9 87 1z"/>
<path d="M5432 9527 c-24 -57 -28 -91 -11 -85 14 5 60 118 53 129 -11 18 -21
8 -42 -44z"/>
<path d="M7475 9460 c-4 -6 -3 -16 3 -22 6 -6 12 -6 17 2 4 6 3 16 -3 22 -6 6
-12 6 -17 -2z"/>
<path d="M2211 9106 c-7 -8 -14 -27 -17 -43 -2 -15 -23 -86 -46 -158 -40 -125
-66 -179 -131 -274 -29 -42 -31 -44 -40 -23 -7 14 -6 41 2 79 6 33 7 61 2 66
-5 5 -33 -21 -67 -63 -32 -40 -60 -68 -61 -63 -2 5 17 90 42 189 25 98 45 184
45 190 0 25 -41 22 -81 -6 -48 -32 -119 -98 -119 -111 0 -17 39 -9 50 11 10
19 97 90 110 90 4 0 -12 -78 -36 -172 -24 -95 -44 -190 -44 -210 0 -56 30 -51
77 13 34 45 38 48 41 27 7 -65 14 -87 29 -92 22 -9 46 15 109 111 51 78 72
132 156 401 12 39 -1 62 -21 38z"/>
<path d="M9099 8963 c-3 -42 -9 -64 -47 -168 -53 -148 -68 -215 -53 -244 17
-31 27 -19 29 36 0 30 19 99 46 178 54 151 66 215 42 215 -9 0 -17 -8 -17 -17z"/>
<path d="M12109 8885 c-39 -76 -47 -85 -71 -85 -18 0 -28 -5 -28 -15 0 -8 7
-15 16 -15 9 0 14 -6 11 -12 -36 -96 -41 -117 -29 -142 16 -36 68 -61 98 -47
30 13 31 33 2 30 -34 -4 -66 10 -73 30 -6 20 30 127 46 137 6 3 43 9 82 13 90
8 102 29 16 30 -34 0 -64 3 -67 5 -2 3 12 34 32 71 34 59 39 85 17 85 -4 0
-27 -38 -52 -85z"/>
<path d="M10097 8949 c-12 -7 -16 -17 -12 -30 8 -23 -30 -143 -52 -164 -8 -8
-25 -15 -38 -15 -30 0 -41 -16 -25 -36 10 -11 16 -12 27 -3 7 7 16 10 18 7 6
-5 -16 -71 -40 -123 -17 -35 -17 -70 0 -70 5 0 26 45 46 99 38 105 46 114 107
115 49 1 35 26 -15 26 l-39 0 33 93 c18 51 33 97 33 102 0 13 -20 12 -43 -1z"/>
<path d="M11420 8901 c0 -12 6 -21 16 -21 9 0 14 7 12 17 -5 25 -28 28 -28 4z"/>
<path d="M3267 8884 c-9 -10 12 -34 30 -34 19 0 12 34 -8 38 -8 1 -18 0 -22
-4z"/>
<path d="M8672 8878 c-5 -7 -13 -43 -17 -80 l-7 -68 -38 0 c-44 0 -94 -36
-104 -74 -14 -58 39 -111 88 -88 37 16 75 106 91 213 8 52 15 97 15 102 0 11
-17 8 -28 -5z m-42 -193 c0 -22 -25 -68 -45 -85 -15 -13 -20 -12 -35 8 -21 26
-16 57 13 77 28 20 67 19 67 0z"/>
<path d="M5122 8825 c-16 -34 -15 -35 7 -35 19 0 31 25 24 48 -7 19 -19 14
-31 -13z"/>
<path d="M2266 8773 c-35 -31 -55 -56 -55 -71 -1 -12 -8 -39 -16 -59 -19 -45
-19 -63 -1 -63 9 0 24 24 36 58 28 74 56 119 87 139 23 16 26 15 35 0 12 -23
38 -21 38 3 0 20 -27 40 -54 40 -9 0 -40 -21 -70 -47z"/>
<path d="M9891 8796 c-8 -10 -9 -16 -1 -21 13 -8 30 3 30 21 0 18 -14 18 -29
0z"/>
<path d="M10925 8789 c-66 -38 -115 -120 -154 -256 -16 -54 -37 -115 -47 -135
-9 -21 -15 -41 -11 -44 15 -15 36 10 85 105 46 87 57 101 79 101 59 0 122 66
145 153 9 34 9 53 2 65 -13 20 -71 27 -99 11z m75 -32 c0 -63 -74 -167 -119
-167 -19 0 -19 1 1 41 10 22 18 50 18 62 -4 39 0 46 28 61 34 19 72 20 72 3z
m-145 -112 c-9 -20 -19 -34 -22 -31 -4 3 2 21 12 41 25 44 30 39 10 -10z"/>
<path d="M2830 8783 c-39 -15 -90 -85 -116 -157 -15 -42 -29 -76 -33 -76 -87
-4 -802 -22 -921 -24 -133 -2 -165 -6 -165 -17 0 -19 32 -20 385 -9 168 5 394
12 503 15 l197 5 -16 -38 c-24 -54 -30 -102 -12 -102 9 0 23 26 38 69 l23 70
86 3 c47 2 88 2 90 1 2 -1 -6 -26 -18 -54 -24 -59 -26 -79 -8 -79 6 0 24 31
40 69 l27 68 143 6 c78 4 235 10 350 13 l207 7 0 -76 c0 -74 -1 -77 -25 -82
-14 -3 -36 -7 -50 -10 -57 -12 -88 -132 -45 -175 25 -25 31 -25 64 1 27 21 76
107 76 133 0 9 10 13 31 12 42 -1 49 20 9 27 l-30 7 0 79 0 80 33 5 c17 3 134
10 258 16 167 9 237 9 268 0 39 -10 61 -7 61 8 0 4 -21 14 -46 21 -38 11 -87
12 -287 2 -133 -7 -252 -13 -264 -15 -28 -4 -28 5 -3 79 11 32 20 62 20 67 0
17 -32 7 -37 -12 -6 -23 -7 -24 -32 -8 -15 9 -24 8 -45 -6 -33 -21 -66 -73
-66 -103 0 -18 -6 -23 -28 -23 l-28 0 10 61 c10 58 9 62 -13 80 -23 19 -24 19
-58 -1 -19 -11 -38 -18 -43 -15 -8 5 -60 -96 -60 -116 0 -21 30 -6 49 24 30
50 68 87 87 87 14 0 15 -6 9 -42 -4 -24 -8 -51 -8 -60 -1 -13 -15 -18 -72 -23
-38 -4 -93 -5 -122 -3 l-52 3 18 41 c11 23 22 56 26 74 6 27 4 31 -11 28 -11
-2 -21 -14 -24 -28 -3 -14 -14 -46 -25 -71 -18 -44 -22 -47 -64 -53 -24 -3
-69 -6 -99 -6 l-55 0 44 23 c77 41 148 157 119 192 -19 22 -36 18 -76 -17 -21
-18 -45 -32 -54 -30 -13 2 -19 -6 -24 -32 -4 -18 -18 -50 -31 -70 -14 -20 -25
-43 -25 -50 0 -13 -62 -27 -114 -26 -21 1 -21 1 1 13 42 23 95 104 101 152 7
63 -17 87 -68 68z m35 -34 c15 -24 -7 -81 -49 -124 -49 -51 -66 -56 -66 -19 0
34 26 87 60 124 30 32 45 37 55 19z m227 -21 c-6 -25 -109 -135 -118 -126 -9
9 23 65 63 109 40 44 64 52 55 17z m546 -73 c-11 -24 -73 -64 -83 -53 -9 9 22
65 41 76 9 5 25 7 35 5 15 -4 16 -9 7 -28z m-18 -307 c0 -7 -13 -35 -28 -63
-18 -34 -33 -50 -47 -50 -34 0 -33 75 1 109 19 19 74 21 74 4z"/>
<path d="M11184 8771 c-18 -11 -35 -24 -38 -30 -10 -15 -24 -14 -22 2 0 6 -3
14 -9 17 -5 3 -13 -17 -18 -44 -4 -27 -14 -58 -22 -70 -20 -27 -19 -36 4 -36
11 0 23 12 30 29 18 41 91 111 123 118 16 3 28 12 28 19 0 20 -40 17 -76 -5z"/>
<path d="M11635 8780 c-11 -5 -32 -9 -47 -9 -22 -1 -29 -8 -38 -38 -18 -57
-60 -117 -72 -105 -6 6 -10 37 -9 71 1 91 -26 96 -33 5 -5 -56 21 -134 44
-134 19 1 77 86 92 134 8 26 17 36 31 36 32 0 88 23 84 35 -5 13 -27 16 -52 5z"/>
<path d="M12970 8782 c-14 -2 -33 -11 -43 -20 -34 -31 -39 -50 -26 -107 11
-50 10 -57 -7 -76 l-19 -21 -18 23 c-12 15 -21 19 -28 12 -14 -14 -2 -38 26
-53 20 -11 28 -10 49 4 33 21 42 57 28 115 -14 59 3 91 48 91 19 0 30 5 30 14
0 19 -9 23 -40 18z"/>
<path d="M7992 8764 c-12 -23 -62 -171 -62 -184 0 -26 29 -5 58 43 40 67 92
119 92 94 0 -10 -7 -34 -15 -54 -11 -27 -12 -39 -4 -49 16 -19 41 -3 84 53
l35 46 -1 -58 c-1 -46 2 -61 17 -72 21 -15 60 -14 57 2 -1 6 3 16 9 23 16 19
1 27 -27 14 l-25 -12 0 59 c0 105 -18 117 -69 46 -18 -25 -34 -45 -35 -45 -2
0 -1 23 2 50 4 46 3 50 -16 50 -12 0 -37 -14 -57 -31 l-36 -32 12 27 c15 33
-3 60 -19 30z"/>
<path d="M13640 8769 c-14 -6 -35 -20 -47 -31 -13 -12 -23 -16 -23 -10 0 27
-29 10 -35 -20 -4 -18 -16 -48 -27 -65 -37 -62 -116 -231 -111 -237 14 -14 25
-2 68 71 l45 77 43 -3 c36 -2 50 3 77 26 71 59 111 158 78 191 -14 14 -34 14
-68 1z m50 -48 c0 -22 -56 -107 -83 -126 -12 -8 -34 -15 -49 -15 -23 0 -27 4
-24 23 3 12 5 25 5 29 2 17 78 92 106 104 34 14 45 10 45 -15z"/>
<path d="M7167 8752 c-22 -25 -34 -131 -17 -161 11 -21 14 -22 27 -8 12 12 12
18 2 34 -8 13 -9 36 -5 66 8 51 8 52 36 37 28 -15 35 5 10 30 -25 25 -32 25
-53 2z"/>
<path d="M5737 8742 c-22 -25 -21 -35 8 -90 24 -46 34 -102 17 -102 -15 0 -42
36 -42 54 0 11 -6 16 -17 14 -51 -10 11 -102 64 -96 25 3 28 7 31 46 2 32 -4
57 -23 94 -21 41 -24 53 -13 60 13 8 27 7 61 -7 20 -8 24 14 5 33 -18 18 -73
14 -91 -6z"/>
<path d="M6460 8742 c-19 -9 -42 -32 -51 -50 -10 -18 -21 -32 -25 -32 -16 3
-16 -20 0 -26 9 -3 16 -17 16 -31 0 -14 13 -37 30 -54 29 -29 33 -30 87 -23
71 8 106 21 98 34 -4 6 -22 8 -41 5 -19 -3 -50 -7 -69 -10 -26 -4 -39 -1 -55
15 -33 33 -25 61 25 93 48 30 69 72 44 88 -19 12 -19 12 -59 -9z m13 -44 c-13
-12 -26 -18 -30 -14 -4 4 1 14 11 22 31 22 43 17 19 -8z"/>
<path d="M2425 8707 c-14 -24 -25 -53 -25 -63 0 -42 48 -58 86 -29 26 20 29
19 42 -10 19 -41 32 -29 32 30 0 30 -5 55 -10 55 -6 0 -29 -13 -52 -30 -67
-49 -87 -36 -47 30 21 34 22 34 30 12 9 -25 27 -29 35 -8 9 24 -15 56 -41 56
-18 0 -31 -11 -50 -43z"/>
<path d="M6743 8734 c-3 -8 -3 -44 0 -80 4 -35 3 -64 -2 -64 -9 0 -32 44 -55
103 -8 20 -19 37 -25 37 -16 0 -24 -20 -13 -33 5 -7 14 -28 21 -47 15 -48 68
-110 93 -110 20 0 20 4 13 91 -7 90 -7 91 15 79 23 -12 65 -10 65 3 0 9 -70
37 -93 37 -7 0 -15 -7 -19 -16z"/>
<path d="M8358 8731 c-26 -21 -52 -86 -46 -117 4 -24 42 -42 74 -36 14 2 38
18 54 34 72 72 -3 181 -82 119z m82 -53 c0 -47 -81 -92 -96 -54 -8 20 24 84
44 89 26 6 52 -12 52 -35z"/>
<path d="M11792 8743 c-30 -6 -90 -66 -98 -99 -4 -17 -1 -31 8 -41 13 -13 19
-13 52 1 20 8 36 11 36 6 0 -5 11 -17 25 -26 20 -13 28 -14 40 -4 18 15 10 30
-16 30 -23 0 -22 -2 -5 46 25 73 13 98 -42 87z m3 -68 c-26 -33 -60 -53 -72
-41 -9 9 63 76 82 76 13 0 11 -6 -10 -35z"/>
<path d="M4900 8731 c-80 -41 -97 -52 -114 -74 -36 -48 2 -89 57 -62 16 8 32
15 34 15 6 0 3 -194 -3 -218 -6 -20 -11 -22 -33 -16 -43 13 -93 6 -114 -14
-37 -38 1 -142 53 -142 23 0 87 53 95 81 4 12 15 19 31 19 15 0 24 6 24 15 0
8 -6 15 -13 15 -23 0 -8 303 18 373 8 18 -8 22 -35 8z m-41 -87 c-12 -13 -32
-24 -43 -24 -18 1 -15 6 18 37 44 40 65 29 25 -13z m-15 -300 c14 -5 14 -9 1
-35 -18 -34 -59 -64 -75 -54 -17 10 -31 55 -25 76 5 14 16 19 45 19 21 0 45
-3 54 -6z"/>
<path d="M4195 8724 c-86 -20 -155 -46 -155 -59 0 -19 2 -19 76 5 34 10 89 22
123 26 39 4 60 11 58 18 -4 11 -67 18 -102 10z"/>
<path d="M5507 8719 c-10 -6 -29 -28 -43 -50 -22 -35 -23 -44 -14 -79 6 -22
20 -46 33 -55 28 -19 90 -19 127 0 41 21 39 39 -2 31 -83 -18 -95 -18 -111 -1
-23 22 -22 54 1 49 22 -6 82 31 82 50 0 27 -23 66 -39 66 -9 0 -24 -5 -34 -11z
m29 -57 c-8 -8 -22 -12 -32 -10 -17 3 -17 5 5 27 19 19 25 21 32 10 5 -9 3
-19 -5 -27z"/>
<path d="M6936 8708 c-50 -43 -49 -130 1 -156 30 -16 95 -22 115 -11 20 11 16
29 -8 29 -9 0 -12 -5 -8 -11 5 -8 1 -8 -14 0 -11 6 -30 11 -41 11 -23 0 -54
27 -46 41 4 5 15 9 26 9 11 0 34 14 51 30 28 28 29 32 15 53 -20 31 -59 33
-91 5z m61 -25 c5 -14 -32 -36 -53 -31 -13 3 -12 6 2 26 16 24 44 26 51 5z"/>
<path d="M7424 8658 c-20 -40 -63 -111 -96 -159 -58 -84 -89 -168 -58 -157 8
2 18 17 23 34 5 16 36 68 69 117 32 48 62 95 65 105 4 9 19 39 35 65 32 54 34
67 13 67 -8 0 -30 -31 -51 -72z"/>
<path d="M9177 8710 c-29 -23 -57 -69 -57 -94 0 -8 11 -27 24 -43 22 -25 29
-27 86 -26 72 2 100 10 100 26 0 8 -26 12 -82 12 l-83 0 -3 28 c-3 22 0 27 20
27 39 0 90 37 86 63 -4 31 -55 35 -91 7z m43 -25 c-33 -19 -49 -19 -24 0 10 8
26 14 34 14 9 0 4 -6 -10 -14z"/>
<path d="M10207 8712 c-41 -25 -45 -57 -13 -114 l27 -48 -31 0 c-17 0 -40 5
-50 10 -22 12 -39 -5 -22 -22 18 -18 79 -26 104 -14 32 16 33 39 2 85 -30 45
-27 66 11 83 21 9 31 9 46 0 25 -16 39 -15 39 3 0 35 -68 45 -113 17z"/>
<path d="M5282 8708 c-7 -7 -12 -18 -12 -25 0 -7 -4 -13 -10 -13 -5 0 -7 6 -4
14 7 17 -14 32 -27 19 -6 -6 -6 -35 1 -79 17 -105 42 -122 54 -37 15 108 11
103 72 103 41 0 54 4 54 15 0 12 -13 15 -58 15 -32 0 -63 -5 -70 -12z"/>
<path d="M8752 8704 c-17 -12 -22 -25 -22 -63 0 -106 92 -110 147 -6 23 45 25
55 14 69 -22 26 -44 20 -37 -9 12 -47 -40 -113 -78 -99 -21 8 -21 62 1 86 23
26 4 43 -25 22z"/>
<path d="M11275 8680 c-13 -29 -15 -44 -7 -52 7 -7 16 1 31 30 24 48 26 62 8
62 -8 0 -22 -18 -32 -40z"/>
<path d="M12258 8701 c-30 -24 -58 -79 -58 -115 0 -16 11 -38 26 -53 22 -22
31 -25 70 -19 45 6 118 37 129 56 12 19 -6 32 -23 17 -28 -24 -109 -50 -136
-43 -50 12 -45 80 6 90 49 10 80 34 76 59 -4 31 -55 35 -90 8z m47 -21 c-3 -5
-14 -10 -23 -10 -15 0 -15 2 -2 10 20 13 33 13 25 0z"/>
<path d="M13116 8709 c-77 -22 -125 -127 -74 -163 27 -19 69 -21 86 -4 20 20
14 31 -14 24 -36 -9 -64 2 -64 24 0 32 58 90 90 90 17 0 30 7 34 17 4 10 4 14
0 10 -4 -4 -12 -3 -18 2 -6 4 -24 5 -40 0z"/>
<path d="M13840 8713 c-31 -12 -71 -58 -80 -95 -28 -100 44 -135 153 -75 38
21 50 47 22 47 -9 0 -28 -9 -43 -19 -52 -36 -96 -35 -104 2 -2 14 9 23 46 37
63 25 88 48 84 79 -2 21 -9 26 -33 28 -16 1 -37 -1 -45 -4z m50 -33 c0 -11
-81 -52 -89 -45 -7 7 22 37 44 45 28 12 45 12 45 0z"/>
<path d="M5071 8653 c-15 -75 -14 -116 2 -111 13 5 40 135 32 156 -10 26 -23
10 -34 -45z"/>
<path d="M13308 8699 c-30 -12 -68 -65 -68 -97 0 -32 48 -65 85 -58 35 7 65
39 65 71 0 33 -28 95 -43 94 -6 0 -24 -5 -39 -10z m40 -52 c34 -22 -8 -80 -49
-70 -29 8 -34 29 -15 58 16 24 37 28 64 12z"/>
<path d="M9807 8633 c-19 -42 -23 -62 -16 -75 14 -26 29 -22 29 7 0 30 27 87
47 98 17 10 7 27 -16 27 -12 0 -26 -18 -44 -57z"/>
<path d="M7236 8661 c-6 -10 96 -101 113 -101 20 0 11 16 -37 63 -47 46 -66
56 -76 38z"/>
<path d="M14045 8530 c-24 -27 -5 -52 19 -27 9 9 16 20 16 26 0 20 -18 20 -35
1z"/>
<path d="M7473 8528 c-4 -7 -31 -56 -59 -108 -46 -86 -54 -96 -87 -104 -43
-11 -50 -36 -11 -36 21 0 25 -4 20 -17 -4 -9 -10 -36 -13 -59 -4 -34 -1 -46
16 -63 11 -11 31 -21 44 -21 33 0 97 20 97 30 0 14 -20 22 -33 13 -19 -14 -67
-16 -83 -3 -18 16 -18 40 2 89 13 33 21 40 52 46 46 9 52 12 46 29 -3 8 -16
11 -35 8 l-30 -4 36 66 c20 36 34 66 31 66 -4 0 2 10 14 22 11 12 20 27 20 34
0 19 -17 26 -27 12z"/>
<path d="M6856 8468 c-3 -7 -7 -24 -10 -38 -3 -14 -40 -89 -81 -168 -68 -128
-83 -172 -58 -172 4 0 26 22 48 49 37 45 114 111 128 111 13 0 6 -36 -13 -67
-12 -20 -15 -35 -9 -38 12 -8 41 14 33 26 -3 5 -1 9 4 9 17 0 33 60 21 81 -14
28 -49 23 -97 -12 -40 -29 -42 -30 -33 -7 5 12 28 57 50 98 39 71 54 140 31
140 -6 0 -12 -6 -14 -12z"/>
<path d="M5916 8458 c-3 -7 -7 -36 -9 -63 -14 -137 -112 -287 -161 -246 -22
18 -20 74 2 94 10 10 33 17 50 17 36 0 45 25 13 35 -34 10 -90 -21 -106 -59
-21 -49 -2 -106 38 -120 84 -30 172 107 201 312 5 34 3 42 -9 42 -9 0 -17 -6
-19 -12z"/>
<path d="M8686 8434 c-4 -14 -18 -49 -32 -77 -28 -56 -84 -213 -84 -234 0 -32
28 -9 40 31 15 54 68 96 121 96 53 0 63 -11 56 -62 -3 -24 -9 -52 -13 -62 -5
-14 -3 -17 12 -14 21 4 32 34 33 95 1 45 -23 73 -63 73 -12 0 11 20 59 53 44
28 79 56 78 62 -3 20 -24 16 -52 -12 -16 -15 -34 -29 -40 -31 -15 -3 -94 -52
-101 -62 -6 -9 -50 -23 -50 -17 0 3 13 33 29 68 40 85 48 119 28 119 -8 0 -18
-12 -21 -26z"/>
<path d="M13100 8448 c0 -14 -36 -102 -94 -233 -39 -87 -49 -165 -21 -165 11
0 15 11 15 38 0 21 16 72 36 117 96 215 108 255 79 255 -8 0 -15 -6 -15 -12z"/>
<path d="M13754 8433 c-10 -32 -54 -138 -64 -153 -5 -9 -31 -17 -67 -20 -70
-6 -77 -24 -10 -28 26 -2 47 -7 47 -11 0 -5 -9 -28 -20 -52 -22 -49 -27 -103
-8 -97 6 2 19 26 28 54 41 117 38 113 96 130 30 8 54 20 54 25 0 16 -27 21
-50 9 -12 -6 -23 -10 -26 -8 -2 2 9 35 25 74 27 66 30 94 10 94 -5 0 -12 -8
-15 -17z"/>
<path d="M12242 8408 c-7 -7 -12 -17 -12 -22 0 -6 -27 -71 -61 -144 -56 -123
-67 -170 -38 -160 6 2 18 24 26 48 8 25 39 96 69 159 49 103 57 131 35 131 -4
0 -12 -5 -19 -12z"/>
<path d="M11085 8389 c-8 -12 14 -31 30 -26 6 2 10 10 10 18 0 17 -31 24 -40
8z"/>
<path d="M11215 8316 c-17 -7 -36 -20 -44 -29 -7 -10 -19 -17 -25 -17 -6 0
-19 -26 -29 -58 -19 -63 -21 -82 -8 -82 13 0 27 21 40 60 23 71 108 129 125
85 8 -22 26 -18 26 4 0 11 -10 27 -22 35 -26 19 -25 19 -63 2z"/>
<path d="M6460 8298 c-78 -41 -63 -66 17 -27 24 12 46 19 48 17 3 -2 -20 -38
-50 -79 -80 -108 -73 -144 17 -89 33 20 56 29 64 24 68 -52 81 -53 108 -11 22
32 26 122 6 122 -9 0 -15 -11 -16 -32 -4 -84 -36 -110 -70 -58 -20 31 -32 31
-78 0 -20 -13 -36 -21 -36 -17 0 4 21 34 46 67 26 35 44 68 42 80 -4 29 -44
30 -98 3z"/>
<path d="M8977 8306 c-48 -18 -62 -29 -81 -70 -22 -46 -20 -82 4 -106 17 -17
31 -20 78 -18 43 2 58 7 60 19 2 14 -5 15 -47 11 -51 -5 -81 7 -81 32 0 7 21
17 46 24 43 12 104 59 104 81 0 11 -28 41 -38 41 -4 -1 -24 -7 -45 -14z m43
-36 c0 -11 -81 -52 -89 -45 -7 7 22 37 44 45 28 12 45 12 45 0z"/>
<path d="M9227 8306 c-52 -14 -87 -40 -87 -65 0 -9 20 -37 45 -61 25 -24 45
-49 45 -55 0 -14 -43 -35 -70 -35 -10 0 -23 7 -27 15 -6 9 -13 11 -23 5 -12
-7 -11 -12 5 -30 16 -18 27 -21 59 -17 52 7 92 38 89 68 -2 14 -23 41 -49 64
-43 39 -45 41 -27 57 10 9 42 22 71 30 54 14 73 31 37 35 -11 1 -41 -4 -68
-11z"/>
<path d="M10143 8307 c-27 -9 -36 -20 -49 -62 -9 -27 -20 -54 -24 -60 -15 -21
-17 -55 -4 -66 11 -9 15 -8 19 2 33 97 50 132 72 149 32 25 52 25 69 3 11 -15
15 -16 26 -4 11 12 11 13 -1 6 -10 -6 -13 -4 -8 7 13 35 -33 47 -100 25z"/>
<path d="M5526 8301 c-3 -5 -21 -16 -39 -25 -51 -24 -123 -166 -84 -166 6 0
28 28 47 61 19 34 48 70 63 81 l28 20 -15 -37 c-9 -21 -16 -46 -16 -57 0 -27
45 -68 75 -68 31 0 33 18 2 29 -48 19 -52 36 -25 101 14 32 23 61 20 64 -9 9
-50 7 -56 -3z"/>
<path d="M8115 8268 c-22 -18 -34 -25 -28 -17 13 17 8 29 -13 29 -12 0 -94
-148 -94 -169 0 -25 27 -7 97 67 71 74 73 75 53 34 -36 -74 -4 -84 66 -20 l45
41 -6 -39 c-7 -45 12 -81 39 -71 17 7 23 37 6 37 -5 0 -10 25 -10 55 0 68 -17
72 -72 18 l-39 -38 16 44 c24 70 3 80 -60 29z"/>
<path d="M10324 8288 c-30 -14 -64 -79 -64 -121 0 -27 7 -41 28 -57 23 -19 35
-21 87 -16 33 3 66 12 73 20 17 17 6 42 -11 27 -7 -5 -33 -12 -58 -16 -57 -8
-89 6 -89 39 0 20 6 25 46 31 70 10 104 54 68 89 -17 18 -49 20 -80 4z m54
-35 c-3 -16 -57 -38 -67 -27 -8 8 38 44 56 44 8 0 13 -7 11 -17z"/>
<path d="M10780 8260 c-20 -39 -26 -95 -12 -116 4 -6 17 -16 29 -23 39 -20
116 25 125 73 5 32 -20 29 -37 -3 -16 -31 -52 -48 -80 -37 -23 8 -18 59 9 99
13 19 22 38 18 41 -14 15 -33 3 -52 -34z"/>
<path d="M8372 8261 c-50 -37 -75 -72 -66 -95 10 -27 85 -39 107 -17 7 7 16 1
29 -19 10 -17 25 -30 33 -30 19 0 19 17 1 36 -13 13 -13 20 0 55 25 73 12 79
-42 19 -26 -29 -44 -40 -65 -40 -19 0 -29 5 -29 14 0 18 61 66 87 70 10 2 18
9 18 17 0 25 -30 20 -73 -10z"/>
<path d="M11355 8267 c-45 -26 -85 -79 -85 -114 0 -34 42 -73 79 -73 34 0 131
39 131 52 0 19 -30 18 -70 -2 -48 -24 -95 -20 -103 9 -7 28 5 40 45 44 21 2
49 12 63 21 40 26 31 87 -13 86 -4 0 -25 -10 -47 -23z m55 -26 c0 -12 -56 -34
-72 -29 -8 3 -1 11 17 21 34 18 55 21 55 8z"/>
<path d="M5217 8260 c-21 -13 -47 -62 -47 -88 0 -11 9 -30 19 -43 19 -23 20
-23 55 -6 35 16 36 16 36 -3 0 -11 7 -20 15 -20 9 0 15 9 15 25 0 13 7 43 16
66 15 36 15 42 2 56 -19 19 -88 27 -111 13z m82 -35 c6 -7 -44 -63 -66 -73
-17 -9 -23 -7 -27 4 -9 24 -8 29 15 58 17 22 27 26 48 21 14 -4 28 -8 30 -10z"/>
<path d="M7012 8239 c-17 -17 -36 -44 -43 -60 -10 -25 -9 -32 7 -50 21 -23 53
-20 96 11 27 20 27 20 30 -3 2 -12 10 -23 19 -25 13 -2 15 8 15 59 -1 71 -17
86 -41 39 -14 -27 -67 -70 -87 -70 -17 0 -7 40 16 67 20 22 27 26 37 16 18
-18 29 -16 29 5 0 21 -18 42 -36 42 -6 0 -25 -14 -42 -31z"/>
<path d="M11005 8218 c-28 -60 -31 -78 -12 -78 7 0 24 26 38 57 13 32 26 61
27 65 2 4 -4 8 -13 8 -10 0 -26 -21 -40 -52z"/>
<path d="M13864 8260 c-48 -18 -38 -32 31 -42 13 -2 21 -12 23 -29 4 -36 -40
-71 -82 -67 -36 3 -37 24 -4 70 19 28 19 28 -1 28 -29 0 -64 -70 -52 -103 12
-30 41 -38 87 -24 98 30 114 124 29 169 -5 3 -20 2 -31 -2z"/>
<path d="M10534 8250 c-36 -14 -65 -59 -53 -81 11 -21 26 -23 63 -9 39 15 34
-7 -33 -145 -33 -67 -63 -133 -66 -147 -10 -41 12 -42 46 -3 18 20 51 46 73
58 40 20 46 22 75 25 10 2 11 5 2 16 -14 17 -54 8 -107 -23 -19 -11 -34 -18
-34 -16 0 3 18 40 40 83 23 42 52 112 65 155 23 74 23 77 5 87 -22 12 -47 12
-76 0z m32 -39 c-20 -22 -59 -35 -53 -18 4 12 45 37 61 37 5 0 1 -9 -8 -19z"/>
<path d="M12562 8250 c-67 -16 -107 -81 -78 -125 24 -36 146 -59 146 -27 0 5
-19 12 -41 16 -62 10 -81 23 -77 54 3 30 32 48 91 57 23 4 37 11 37 20 0 16
-25 18 -78 5z"/>
<path d="M12303 8223 c-4 -10 -15 -30 -26 -44 -15 -21 -17 -31 -8 -47 15 -28
43 -35 89 -22 58 15 70 63 27 105 -28 29 -73 33 -82 8z m73 -45 c7 -24 -1 -33
-39 -42 -35 -8 -46 14 -23 48 18 28 52 25 62 -6z"/>
<path d="M12750 8233 c-34 -12 -60 -47 -60 -79 0 -43 28 -60 72 -45 25 9 35 8
49 -5 23 -21 43 -10 29 16 -10 19 -4 50 13 61 5 4 2 18 -8 33 -17 26 -55 33
-95 19z m64 -32 c9 -14 -45 -61 -71 -61 -20 0 -24 4 -21 22 5 33 77 64 92 39z"/>
<path d="M4557 8033 c-4 -3 -7 -58 -8 -122 0 -64 -4 -136 -8 -161 -8 -53 0
-95 18 -95 10 0 14 36 17 155 2 85 6 172 9 193 4 27 2 37 -8 37 -8 0 -17 -3
-20 -7z"/>
<path d="M4100 7990 c0 -6 6 -26 14 -45 20 -47 30 -118 22 -160 -9 -46 -61
-105 -92 -105 -44 0 -58 60 -23 104 17 22 27 26 50 21 22 -5 29 -3 29 8 0 33
-59 36 -95 4 -40 -34 -46 -103 -13 -141 29 -34 65 -37 106 -7 61 43 86 140 61
236 -6 22 -12 51 -13 65 -2 17 -10 26 -24 28 -12 2 -22 -2 -22 -8z"/>
<path d="M1864 7843 c-88 -96 -56 -224 52 -209 53 7 114 36 114 53 0 17 -10
16 -46 -1 -56 -28 -100 -30 -123 -7 -29 29 -26 50 7 57 60 12 120 96 92 129
-22 26 -60 18 -96 -22z m71 -3 c9 -14 -49 -73 -68 -69 -15 3 -13 9 13 42 32
38 44 44 55 27z"/>
<path d="M3772 7853 c-46 -23 -72 -59 -72 -102 0 -47 21 -77 66 -91 44 -15 81
-6 117 28 41 39 37 77 -16 135 -23 26 -47 47 -52 47 -6 0 -25 -8 -43 -17z m86
-69 c27 -17 29 -55 4 -77 -66 -60 -163 6 -122 83 8 15 18 17 52 13 24 -3 53
-12 66 -19z"/>
<path d="M3450 7845 c-7 -8 -20 -15 -29 -15 -15 0 -21 -15 -67 -152 -4 -12 -1
-18 9 -18 9 0 30 31 51 76 20 43 39 75 42 72 3 -3 0 -27 -7 -52 -9 -37 -9 -50
1 -59 9 -9 25 2 71 53 60 66 66 66 50 -4 -13 -55 1 -86 39 -86 34 0 41 19 10
27 -22 6 -25 29 -10 103 5 29 5 49 -2 57 -15 19 -63 -10 -94 -57 -15 -22 -27
-40 -28 -40 -1 0 -2 23 -1 52 0 53 -13 70 -35 43z"/>
<path d="M4693 7850 c-38 -15 -56 -55 -51 -111 6 -58 39 -100 93 -116 50 -16
125 3 125 31 0 10 -11 10 -50 2 -60 -12 -115 9 -130 50 -14 35 -12 44 5 38 27
-11 64 6 78 34 16 30 12 51 -11 70 -18 14 -28 14 -59 2z m44 -55 c-9 -22 -37
-31 -48 -14 -13 22 -11 29 14 38 26 10 42 -1 34 -24z"/>
<path d="M2105 7808 c10 -60 53 -163 76 -184 19 -17 21 -17 37 0 14 13 17 33
16 99 l-2 83 45 2 c47 2 63 7 63 23 0 5 -32 9 -71 9 l-72 0 7 -84 c5 -55 3
-86 -4 -91 -14 -9 -51 79 -58 138 -4 38 -8 47 -24 47 -18 0 -19 -5 -13 -42z"/>
<path d="M2405 7825 c-56 -20 -77 -50 -72 -103 3 -24 13 -52 23 -64 17 -18 27
-20 87 -15 44 3 74 10 85 20 23 24 10 30 -35 18 -21 -6 -55 -11 -76 -11 -30 0
-39 5 -46 23 -8 19 -5 23 23 30 47 13 60 21 74 51 14 29 8 66 -11 66 -7 -1
-30 -7 -52 -15z m35 -39 c0 -16 -22 -26 -53 -26 -22 1 -22 1 2 20 27 23 51 26
51 6z"/>
<path d="M2625 7815 c-14 -13 -25 -32 -25 -41 0 -16 -2 -16 -15 2 -12 16 -16
17 -24 4 -5 -8 -7 -19 -3 -25 4 -5 9 -30 12 -55 7 -66 31 -60 46 12 12 64 27
88 55 88 26 0 33 17 10 29 -27 15 -29 14 -56 -14z"/>
<path d="M4256 7818 c-9 -12 -16 -42 -16 -66 0 -37 6 -50 34 -78 40 -40 64
-43 104 -9 40 33 55 74 45 115 -13 50 -37 53 -31 4 12 -93 -72 -148 -112 -74
-15 28 -12 76 5 94 8 8 15 19 15 25 0 19 -28 12 -44 -11z"/>
<path d="M2963 7812 c-6 -4 -27 -42 -47 -85 -19 -42 -40 -77 -47 -77 -7 0 -31
20 -55 45 -41 45 -64 56 -64 33 1 -15 55 -77 87 -99 l22 -15 -51 -80 c-85
-132 -106 -196 -74 -223 18 -15 30 1 21 29 -8 26 28 104 92 200 28 41 71 118
96 170 42 88 48 119 20 102z"/>
<path d="M4920 7670 c0 -11 7 -20 15 -20 8 0 15 9 15 20 0 11 -7 20 -15 20 -8
0 -15 -9 -15 -20z"/>
<path d="M10345 7248 c-2 -7 -9 -33 -15 -58 -7 -25 -25 -77 -41 -116 -29 -68
-31 -72 -71 -80 -53 -12 -66 -38 -16 -32 l35 4 -19 -44 c-11 -23 -18 -53 -16
-65 4 -28 34 -30 31 -2 -1 11 8 42 19 68 l21 49 49 -6 c58 -8 65 8 12 30 -27
12 -34 19 -29 32 14 32 62 177 69 205 5 21 3 27 -9 27 -9 0 -18 -6 -20 -12z"/>
<path d="M2305 7229 c-17 -4 -66 -14 -110 -22 l-80 -13 -6 -40 c-6 -34 -19
-85 -76 -289 -7 -27 -11 -60 -8 -73 l6 -23 -146 2 c-142 2 -169 -2 -149 -20
13 -13 407 -20 1537 -27 l997 -6 0 -28 c0 -51 -9 -60 -57 -60 -36 0 -50 -6
-75 -31 -28 -27 -30 -34 -24 -75 9 -72 48 -114 89 -98 22 8 56 65 72 117 8 27
18 41 26 38 56 -16 77 9 23 28 -30 11 -35 17 -30 34 3 12 6 34 6 49 0 27 1 27
72 30 46 2 73 7 76 16 3 9 -16 12 -72 12 l-76 0 -2 53 c-1 28 -1 76 1 105 2
41 0 52 -13 52 -8 0 -17 -4 -21 -9 -3 -5 -20 -7 -38 -4 -58 9 -111 -58 -92
-117 8 -24 48 -26 85 -5 42 24 50 19 50 -30 l0 -45 -309 0 -310 0 -3 23 c-3
21 -7 22 -50 10 -30 -9 -43 38 -29 101 13 56 23 66 71 66 16 0 31 6 33 13 4 9
6 9 6 0 1 -16 31 -5 31 11 0 9 -17 11 -60 8 l-59 -4 40 103 c22 57 44 108 50
115 6 7 4 16 -6 24 -12 10 -18 4 -38 -42 -13 -29 -34 -84 -48 -122 -26 -74
-44 -89 -91 -75 -17 4 -30 3 -34 -3 -10 -15 7 -26 46 -30 28 -2 34 -7 32 -23
-15 -114 -15 -132 7 -154 l21 -21 -91 0 c-60 0 -88 3 -84 10 4 6 2 16 -4 23
-7 9 -7 26 1 55 12 48 6 62 -21 45 -16 -10 -20 -9 -24 8 -12 45 -87 -5 -103
-68 -14 -53 30 -79 75 -45 27 19 28 20 39 1 7 -10 12 -21 12 -24 0 -3 -59 -5
-132 -5 l-132 0 22 20 c12 12 28 31 36 43 15 24 26 120 14 125 -23 7 -28 -3
-28 -47 0 -39 -5 -56 -25 -78 -25 -28 -25 -28 -41 -8 -15 20 -15 74 1 123 5
16 3 22 -8 22 -39 0 -49 -139 -12 -180 18 -20 17 -20 -84 -20 -61 0 -100 4
-96 9 3 5 0 13 -6 16 -14 9 -3 73 26 150 23 63 65 222 65 249 0 9 -6 16 -14
16 -8 0 -18 -23 -26 -62 -7 -35 -30 -118 -51 -186 -42 -131 -46 -161 -27 -180
9 -9 2 -12 -34 -12 l-47 0 -6 44 c-4 25 -4 62 0 84 12 75 -44 95 -107 37 -41
-37 -49 -73 -22 -99 20 -20 43 -20 72 0 21 14 22 14 22 -6 0 -12 5 -30 10 -41
10 -18 7 -19 -73 -19 -46 0 -112 3 -145 6 -60 7 -61 7 -47 28 8 11 15 36 15
56 0 65 9 78 62 97 45 16 68 36 56 48 -2 3 -27 -4 -55 -15 -28 -10 -53 -17
-55 -14 -13 12 -30 -31 -35 -86 -3 -33 -9 -63 -14 -65 -7 -5 -30 50 -46 115
-5 22 -16 36 -27 38 -16 3 -18 0 -12 -19 4 -13 12 -43 17 -66 6 -23 21 -58 34
-78 l24 -35 -92 1 c-51 1 -117 4 -147 8 l-55 7 61 13 c72 15 93 26 79 40 -6 6
-50 1 -117 -14 -60 -12 -108 -20 -109 -16 -6 34 26 151 45 163 6 4 25 8 41 8
43 0 105 19 105 32 0 7 -22 9 -70 4 -82 -7 -81 -9 -52 93 l18 65 100 21 c107
23 128 31 119 46 -7 11 -19 10 -60 -2z m428 -315 c19 -19 -50 -93 -73 -79 -17
10 -11 27 17 57 26 27 43 34 56 22z m1526 -10 c11 -11 -61 -64 -89 -64 -17 0
-12 25 11 54 17 22 27 26 48 21 14 -4 28 -8 30 -11z m-916 -47 c14 8 -21 -36
-43 -54 -35 -29 -40 -5 -9 46 18 30 22 33 31 18 5 -10 15 -14 21 -10z m917
-262 c0 -19 -44 -116 -59 -129 -16 -15 -19 -15 -35 3 -9 10 -19 34 -23 54 -7
48 22 77 77 77 22 0 40 -2 40 -5z"/>
<path d="M14451 7188 c-11 -24 -32 -70 -46 -103 -14 -33 -33 -77 -42 -97 -15
-35 -18 -37 -67 -40 -62 -4 -67 -21 -8 -28 l42 -5 -35 -73 c-19 -41 -33 -78
-29 -83 8 -13 34 -11 34 4 0 6 14 44 32 84 l32 71 48 4 c26 2 48 2 48 2 0 -1
-18 -41 -41 -89 -31 -66 -38 -90 -29 -99 9 -8 26 5 70 54 32 36 57 67 55 70
-2 3 5 6 16 6 17 0 19 -5 13 -26 -11 -37 -10 -79 1 -80 14 -2 38 98 30 127 -3
13 -12 23 -19 23 -19 0 -76 -48 -76 -64 0 -7 -6 -13 -14 -13 -13 0 50 140 139
308 28 53 31 69 12 69 -12 0 -27 -27 -108 -192 l-33 -68 -48 0 c-51 0 -56 4
-34 35 7 11 26 52 41 90 15 39 34 79 41 90 8 11 14 27 14 37 0 34 -19 27 -39
-14z"/>
<path d="M7705 7178 c-9 -24 -30 -76 -47 -115 l-30 -73 -55 0 c-66 0 -70 -22
-4 -30 l42 -5 -46 -87 c-42 -80 -56 -128 -37 -128 4 0 32 49 61 109 53 107 55
109 100 122 50 15 57 35 10 31 -16 -1 -29 -1 -29 1 0 18 75 184 86 190 18 10
9 27 -16 27 -12 0 -23 -14 -35 -42z"/>
<path d="M7836 7158 c-14 -35 -26 -69 -26 -76 0 -7 -7 -20 -15 -29 -12 -12
-13 -18 -4 -29 9 -12 9 -13 -3 -9 -17 7 -51 -40 -93 -128 -44 -94 -15 -118 47
-37 35 47 82 80 94 67 4 -4 -2 -31 -14 -60 -24 -57 -28 -91 -11 -85 17 6 58
108 59 145 0 45 -28 51 -86 19 l-46 -26 18 28 c9 15 28 43 40 62 13 19 35 64
49 100 15 36 31 73 36 83 10 18 4 37 -10 37 -4 0 -20 -28 -35 -62z"/>
<path d="M10955 7188 c-11 -30 -66 -182 -104 -286 -44 -120 -49 -152 -27 -152
9 0 19 20 27 53 6 28 36 113 66 187 57 143 74 210 54 210 -6 0 -14 -6 -16 -12z"/>
<path d="M13601 7190 c-8 -4 -21 -32 -28 -62 -8 -29 -24 -73 -36 -98 -20 -42
-25 -45 -67 -50 -33 -4 -46 -10 -48 -23 -3 -15 2 -17 37 -11 23 4 41 4 41 0 0
-4 -11 -29 -25 -56 -38 -76 -58 -141 -47 -152 14 -14 32 -1 33 25 0 12 17 60
38 107 28 63 42 85 57 86 47 3 54 5 54 19 0 9 -10 15 -26 15 -21 0 -25 4 -19
18 4 9 13 35 20 57 7 22 20 57 30 79 17 40 10 62 -14 46z"/>
<path d="M7058 7143 c-69 -129 -71 -132 -111 -139 -41 -6 -46 -27 -9 -32 26
-4 26 -5 7 -68 -21 -69 -19 -98 11 -133 28 -33 75 -42 115 -20 31 16 12 29
-35 23 -40 -6 -46 -4 -61 20 -16 24 -16 34 -6 79 21 96 27 101 110 107 100 7
108 28 12 32 l-70 3 45 78 c41 70 48 97 25 97 -5 0 -20 -21 -33 -47z"/>
<path d="M13732 7136 c0 -19 -16 -69 -35 -113 -19 -43 -49 -112 -67 -153 -18
-41 -36 -79 -41 -84 -14 -16 -10 -46 6 -46 8 0 15 5 15 10 0 17 91 110 124
127 23 12 28 12 24 2 -41 -111 -47 -174 -18 -174 9 0 14 8 12 20 -1 11 7 52
19 92 12 39 19 78 16 87 -9 23 -39 20 -81 -9 -20 -14 -39 -25 -41 -25 -2 0 14
38 35 86 52 113 72 172 65 195 -11 33 -33 22 -33 -15z"/>
<path d="M6564 7133 c-12 -56 -28 -101 -76 -216 -46 -110 -53 -147 -29 -147 5
0 13 9 16 21 8 24 61 76 89 85 31 10 36 -9 14 -59 -11 -26 -18 -50 -15 -54 11
-11 36 18 52 62 13 33 14 47 6 64 -14 25 -57 28 -89 5 -12 -8 -22 -12 -22 -9
0 3 15 43 34 89 19 45 38 99 41 120 4 21 14 40 21 43 19 7 7 23 -16 23 -13 0
-22 -9 -26 -27z"/>
<path d="M10825 7148 c-2 -7 -9 -31 -16 -53 -6 -22 -24 -67 -40 -100 -54 -118
-80 -187 -77 -208 5 -35 25 -30 31 8 3 20 27 83 52 140 26 57 48 110 49 117 2
7 8 26 14 41 7 16 12 37 12 48 0 21 -18 26 -25 7z"/>
<path d="M5460 7135 c0 -8 9 -15 20 -15 11 0 20 7 20 15 0 8 -9 15 -20 15 -11
0 -20 -7 -20 -15z"/>
<path d="M11808 7067 c-19 -88 -45 -145 -96 -212 -35 -46 -93 -95 -113 -95 -5
0 -9 9 -9 20 0 56 75 136 117 125 20 -5 24 -2 21 12 -2 11 -14 19 -30 21 -61
7 -166 -135 -139 -187 48 -89 233 107 275 292 19 83 20 97 3 97 -9 0 -19 -27
-29 -73z"/>
<path d="M13402 7116 c1 -10 8 -17 13 -17 15 1 12 24 -3 29 -9 3 -13 -2 -10
-12z"/>
<path d="M3872 7094 c4 -21 22 -23 26 -1 2 10 -3 17 -13 17 -10 0 -15 -6 -13
-16z"/>
<path d="M12967 7040 c-63 -26 -97 -49 -97 -66 0 -16 26 -19 35 -4 6 9 73 42
114 55 35 11 24 -11 -49 -96 -39 -45 -69 -86 -67 -92 7 -21 25 -17 75 16 l50
35 -1 -44 c-2 -49 10 -66 48 -66 37 0 72 36 91 96 9 28 23 62 31 74 8 13 12
27 8 30 -14 15 -41 -19 -61 -76 -25 -72 -39 -92 -67 -92 -19 0 -19 4 -13 70 3
41 2 70 -3 70 -5 0 -24 -12 -43 -27 -31 -26 -31 -25 10 26 73 93 45 134 -61
91z"/>
<path d="M5553 6990 c-42 -25 -41 -43 2 -91 35 -40 37 -62 6 -78 -22 -12 -62
5 -68 30 -6 21 -33 23 -40 2 -6 -18 43 -61 80 -69 26 -5 35 -2 59 25 15 17 28
38 28 46 0 8 -16 33 -36 55 -20 22 -35 42 -33 44 20 17 55 26 84 20 39 -7 48
8 16 26 -30 15 -62 12 -98 -10z"/>
<path d="M6223 6980 c-24 -10 -43 -26 -43 -35 0 -20 8 -19 55 5 38 19 65 26
65 15 0 -3 -22 -33 -50 -67 -27 -34 -50 -68 -50 -75 0 -17 24 -16 60 2 28 14
29 14 46 -15 10 -16 24 -32 32 -35 41 -15 115 65 110 120 -2 19 -9 30 -18 30
-9 0 -14 -8 -13 -20 5 -44 -31 -95 -66 -95 -6 0 -18 14 -27 31 -12 25 -21 30
-39 26 -24 -4 -23 -3 8 35 51 64 59 76 52 88 -10 16 -76 11 -122 -10z"/>
<path d="M8535 6981 c-3 -6 -3 -16 1 -23 4 -7 7 -45 5 -84 -5 -170 61 -186 99
-25 12 51 15 54 65 77 52 22 73 40 61 51 -3 3 -36 -7 -74 -23 l-69 -28 -12
-61 c-7 -34 -16 -67 -21 -74 -12 -20 -23 43 -16 92 9 65 -17 132 -39 98z"/>
<path d="M4842 6966 c-59 -15 -70 -22 -56 -36 7 -7 30 -6 69 5 33 8 74 15 92
15 23 0 33 5 33 15 0 19 -61 19 -138 1z"/>
<path d="M5372 6968 c-27 -35 -72 -141 -67 -159 11 -35 75 -37 75 -3 0 11 -6
13 -20 9 -30 -10 -26 18 14 91 32 57 35 74 16 74 -4 0 -12 -6 -18 -12z"/>
<path d="M8898 6955 c-29 -20 -37 -22 -42 -10 -13 35 -56 -4 -56 -51 0 -8 -14
-45 -31 -80 -22 -45 -28 -69 -21 -76 7 -7 24 11 55 59 48 73 127 156 127 133
0 -7 -13 -37 -30 -67 -16 -29 -30 -57 -30 -63 0 -25 40 -5 90 46 90 91 105 92
74 5 -8 -25 -13 -55 -9 -68 7 -29 46 -39 85 -23 36 15 42 45 8 35 -13 -4 -30
-9 -40 -11 -27 -8 -29 11 -7 81 18 59 19 69 6 82 -18 19 -45 7 -101 -46 l-38
-36 16 33 c20 38 18 76 -4 80 -8 1 -31 -9 -52 -23z m-55 -50 c-3 -9 -8 -14
-10 -11 -3 3 -2 9 2 15 9 16 15 13 8 -4z"/>
<path d="M9982 6945 c-54 -48 -70 -87 -48 -119 19 -30 47 -40 93 -31 45 8 38
31 -8 27 -25 -2 -40 3 -52 16 -17 19 -16 21 15 63 19 24 44 46 56 49 30 7 33
24 5 28 -14 2 -36 -10 -61 -33z"/>
<path d="M11154 6943 c-17 -21 -46 -64 -67 -95 -54 -83 -67 -76 -67 38 0 50
-3 64 -15 64 -22 0 -21 -132 2 -170 16 -28 16 -30 -8 -62 -29 -38 -125 -197
-135 -221 -4 -11 -1 -17 9 -17 8 0 42 45 76 103 34 56 104 164 157 241 61 88
92 142 86 148 -6 6 -20 -4 -38 -29z"/>
<path d="M7972 6933 c-28 -21 -53 -47 -56 -58 -19 -71 11 -115 80 -115 49 0
112 24 121 46 9 24 -1 25 -42 4 -44 -22 -105 -26 -123 -8 -7 7 -12 22 -12 35
0 19 8 25 44 34 53 13 79 38 74 71 -5 35 -29 33 -86 -9z m58 -7 c0 -2 -7 -7
-16 -10 -8 -3 -12 -2 -9 4 6 10 25 14 25 6z"/>
<path d="M10556 6930 c-57 -64 -45 -131 20 -102 21 10 24 9 25 -11 1 -12 1
-25 0 -29 -2 -11 17 -10 24 2 3 5 6 25 7 45 1 19 5 35 10 35 4 0 8 11 8 25 0
30 -26 34 -35 5 -6 -20 -65 -58 -65 -42 0 16 51 77 71 84 11 4 17 12 14 18
-13 21 -44 9 -79 -30z"/>
<path d="M12293 6949 c-18 -11 -33 -26 -33 -32 0 -5 12 -30 26 -54 41 -71 29
-81 -68 -57 -20 4 -28 3 -28 -7 0 -8 -10 -15 -22 -16 -13 -1 -37 -5 -54 -8
-72 -15 -103 43 -34 64 48 14 100 56 100 81 0 10 -7 23 -16 31 -13 11 -22 9
-57 -9 -49 -26 -85 -75 -93 -124 -5 -30 -2 -38 21 -56 29 -23 60 -28 70 -12 3
5 12 7 20 4 7 -3 29 2 49 11 26 13 39 14 55 6 31 -17 79 -13 101 9 25 25 25
27 -5 75 -13 22 -25 45 -25 51 0 15 48 36 55 24 11 -18 26 -10 23 13 -4 30
-44 33 -85 6z m-176 -54 c-15 -14 -33 -25 -40 -25 -7 0 1 12 16 25 15 14 33
25 40 25 7 0 -1 -12 -16 -25z"/>
<path d="M9747 6929 c-60 -50 -68 -129 -11 -129 13 0 36 7 49 16 22 14 25 14
25 1 0 -18 26 -41 39 -33 6 4 5 17 -2 36 -8 22 -8 38 1 64 27 75 -32 102 -101
45z m73 -18 c0 -23 -55 -81 -76 -81 -24 0 -15 37 17 69 35 35 59 40 59 12z"/>
<path d="M3816 6938 c-22 -77 -37 -149 -31 -157 10 -17 38 -13 31 4 -3 8 1 36
9 62 17 56 19 103 5 103 -6 0 -12 -6 -14 -12z"/>
<path d="M3989 6923 c-28 -24 -32 -25 -41 -10 -15 29 -25 19 -31 -30 -4 -27
-9 -60 -13 -75 -9 -41 22 -37 39 5 18 42 65 97 83 97 17 0 18 -20 2 -72 -8
-27 -8 -42 -1 -49 17 -17 36 28 37 89 1 47 -2 55 -21 63 -17 6 -30 2 -54 -18z"/>
<path d="M10356 6901 c-23 -65 -18 -93 17 -105 52 -19 103 33 132 132 12 43
-26 21 -42 -23 -22 -65 -75 -107 -89 -71 -3 7 2 30 10 51 19 46 20 65 3 65 -7
0 -21 -22 -31 -49z"/>
<path d="M13300 6935 c0 -9 -9 -33 -20 -55 -19 -37 -18 -74 2 -68 11 4 37 68
45 111 4 20 1 27 -11 27 -9 0 -16 -7 -16 -15z"/>
<path d="M6719 6917 c-39 -33 -62 -76 -55 -102 7 -28 37 -37 70 -19 25 13 26
12 26 -21 0 -34 12 -51 29 -41 5 4 6 18 2 33 -5 18 -1 39 10 63 28 59 32 80
16 80 -8 0 -20 7 -27 15 -17 21 -41 19 -71 -8z m70 -34 c9 -5 -65 -63 -81 -63
-25 0 -23 10 13 53 27 32 33 36 48 25 9 -7 18 -13 20 -15z"/>
<path d="M11841 6898 c-48 -65 -39 -128 17 -128 57 0 101 46 102 106 0 48 -14
64 -56 64 -26 0 -38 -8 -63 -42z m89 -28 c0 -31 -39 -70 -71 -70 -39 0 -9 83
35 100 28 10 36 4 36 -30z"/>
<path d="M14720 6902 c-43 -43 -53 -89 -26 -124 22 -29 102 -51 139 -38 50 16
84 46 70 61 -8 8 -21 5 -53 -14 -36 -21 -46 -23 -73 -14 -18 5 -38 12 -46 14
-8 2 7 21 39 49 40 37 50 52 48 73 -2 20 -9 27 -31 29 -22 3 -37 -6 -67 -36z
m36 -37 c-40 -38 -46 -41 -46 -25 0 17 47 60 66 60 12 0 6 -10 -20 -35z"/>
<path d="M2516 6611 c-4 -6 -4 -39 0 -74 l6 -64 -31 5 c-25 3 -37 -2 -66 -31
-37 -37 -43 -62 -24 -115 22 -64 82 -46 127 39 19 36 23 57 21 120 -1 42 1 81
4 86 4 6 -2 18 -12 27 -12 11 -21 13 -25 7z m-15 -174 c15 -11 15 -17 4 -42
-7 -17 -24 -41 -38 -54 l-26 -24 -11 27 c-15 40 -13 54 15 81 27 28 33 29 56
12z"/>
<path d="M2015 6521 c-103 -64 -105 -150 -5 -218 40 -28 130 -33 130 -8 0 11
-12 15 -44 15 -80 0 -142 65 -120 127 12 35 71 76 100 69 26 -7 37 3 23 21
-16 18 -49 16 -84 -6z"/>
<path d="M2652 6493 c-19 -7 -52 -78 -52 -112 0 -17 11 -42 27 -61 23 -28 31
-32 63 -27 47 6 95 36 81 50 -6 6 -22 4 -44 -7 -47 -21 -63 -20 -81 6 -22 32
-20 43 9 46 53 4 98 53 87 94 -3 13 -14 18 -41 17 -20 0 -42 -3 -49 -6z m58
-36 c0 -16 -43 -41 -59 -36 -18 6 17 49 40 49 10 0 19 -6 19 -13z"/>
<path d="M2217 6462 c-9 -10 -22 -33 -28 -50 -14 -41 7 -77 50 -87 52 -11 110
35 111 87 0 55 -96 91 -133 50z m99 -44 c11 -35 -44 -75 -78 -56 -18 9 -23 34
-12 62 9 23 82 19 90 -6z"/>
<path d="M2897 6319 c3 -11 12 -19 20 -17 20 4 18 21 -5 29 -16 6 -19 4 -15
-12z"/>
<path d="M2015 5817 c-65 -31 -148 -123 -175 -194 -27 -74 -26 -141 3 -184
l23 -34 89 2 c101 1 175 19 175 40 0 11 -6 14 -22 9 -50 -14 -159 -27 -194
-24 -51 4 -67 33 -61 109 8 98 82 204 171 245 69 32 78 31 64 -6 -5 -17 -7
-42 -4 -56 16 -61 80 15 67 79 -6 29 -10 32 -46 35 -26 1 -58 -6 -90 -21z"/>
<path d="M11986 5813 c-12 -12 -6 -33 9 -33 8 0 15 6 15 14 0 17 -14 28 -24
19z"/>
<path d="M10592 5803 c-12 -5 -52 -78 -52 -95 0 -24 32 -2 54 38 34 61 34 72
-2 57z"/>
<path d="M6500 5790 c0 -22 -93 -248 -120 -293 -55 -89 -29 -92 55 -7 84 85
104 79 66 -17 -17 -46 -18 -73 -1 -73 13 0 52 116 48 146 -2 23 -9 30 -31 32
-16 2 -35 -2 -43 -9 -27 -22 -24 -4 16 97 43 108 48 134 25 134 -8 0 -15 -5
-15 -10z"/>
<path d="M2730 5748 c0 -37 -30 -121 -97 -275 -12 -29 25 -10 65 32 66 70 86
58 60 -39 -9 -36 -9 -48 1 -60 20 -24 30 -19 29 17 0 17 3 53 7 79 5 33 4 52
-5 63 -15 18 -51 20 -69 3 -11 -11 -12 -8 -6 12 4 14 14 41 22 60 18 45 33
119 26 137 -3 7 -11 13 -19 13 -10 0 -14 -13 -14 -42z"/>
<path d="M3017 5744 c-9 -10 4 -34 19 -34 8 0 14 9 14 20 0 19 -19 27 -33 14z"/>
<path d="M8651 5686 c-18 -35 -31 -69 -27 -75 11 -17 21 -7 51 51 15 29 34 57
41 61 18 10 9 27 -14 27 -11 0 -30 -24 -51 -64z"/>
<path d="M9862 5668 c3 -7 13 -15 22 -16 12 -3 17 1 14 10 -3 7 -13 15 -22 16
-12 3 -17 -1 -14 -10z"/>
<path d="M8965 5636 c-59 -32 -60 -34 -73 -92 -17 -83 -19 -106 -5 -111 6 -2
20 23 33 62 25 75 56 117 101 135 24 10 36 11 50 2 23 -14 36 2 19 23 -19 23
-60 17 -125 -19z"/>
<path d="M12082 5640 c-16 -10 -33 -23 -36 -28 -3 -6 -14 -8 -24 -6 -13 4 -24
-10 -44 -53 -33 -70 -36 -84 -23 -89 6 -3 35 28 65 66 51 68 76 90 99 90 18 0
13 -27 -14 -80 -14 -27 -25 -58 -25 -69 0 -27 19 -37 26 -14 3 10 17 43 31 73
42 95 14 152 -55 110z"/>
<path d="M13264 5618 c-50 -46 -74 -85 -74 -121 0 -33 18 -47 64 -47 86 0 151
85 116 151 -7 13 -7 19 0 19 5 0 10 9 10 20 0 16 -7 20 -35 20 -28 0 -45 -9
-81 -42z m70 -20 c23 -33 20 -56 -13 -89 -35 -35 -101 -42 -101 -11 0 20 21
54 58 95 31 33 36 33 56 5z"/>
<path d="M13549 5643 c-9 -10 -30 -41 -48 -70 -34 -54 -83 -98 -116 -104 -11
-3 -20 -11 -20 -19 0 -27 31 -21 78 15 26 20 47 31 47 25 0 -15 40 -12 73 4
26 14 27 14 21 -9 -11 -43 4 -67 38 -63 17 2 36 11 42 20 13 21 0 36 -16 20
-16 -16 -38 -15 -38 2 0 7 13 40 30 72 40 79 25 92 -38 32 -43 -41 -82 -66
-82 -52 0 4 14 33 32 65 20 39 28 63 21 70 -6 6 -15 3 -24 -8z"/>
<path d="M5298 5624 c-10 -21 -9 -35 5 -74 28 -80 19 -110 -34 -110 -26 0 -44
14 -44 34 0 18 -25 18 -32 0 -10 -27 50 -76 85 -68 68 16 89 64 61 136 -24 61
-20 78 21 78 20 0 30 5 30 15 0 10 -10 15 -27 15 -22 0 -25 -2 -13 -10 9 -6
10 -10 3 -10 -6 0 -15 5 -18 10 -11 17 -25 11 -37 -16z"/>
<path d="M5403 5635 c0 -8 4 -12 9 -9 5 3 6 10 3 15 -9 13 -12 11 -12 -6z"/>
<path d="M10034 5637 c-41 -24 -94 -72 -94 -86 0 -7 -9 -29 -21 -47 -19 -31
-19 -54 1 -54 4 0 20 21 35 48 32 55 93 122 112 122 8 0 13 -12 13 -31 0 -38
24 -34 28 5 6 49 -29 69 -74 43z"/>
<path d="M11182 5640 c-29 -12 -82 -97 -82 -132 0 -36 20 -44 60 -25 29 15 30
15 30 -7 0 -22 17 -46 33 -46 5 0 6 13 2 29 -4 18 -1 41 8 58 25 48 30 99 12
117 -18 18 -30 19 -63 6z m32 -78 c-38 -39 -84 -68 -84 -53 0 22 30 69 57 90
23 19 28 20 41 7 13 -12 11 -18 -14 -44z"/>
<path d="M11393 5635 c-28 -20 -63 -77 -63 -103 0 -31 34 -46 72 -33 23 8 29
8 25 -2 -2 -6 -14 -42 -26 -79 -22 -66 -23 -68 -57 -68 -40 0 -74 -29 -74 -64
0 -87 36 -120 77 -70 13 16 28 44 34 62 10 31 13 33 42 26 50 -10 52 -10 52 5
0 8 -15 19 -32 23 -18 5 -33 12 -33 16 0 16 61 179 87 230 20 42 23 56 14 65
-10 9 -16 8 -27 -8 -10 -13 -17 -16 -22 -9 -13 20 -47 24 -69 9z m77 -36 c0
-16 -43 -58 -70 -67 -40 -14 -47 0 -20 43 19 30 26 35 56 32 19 -1 34 -5 34
-8z m-110 -291 c0 -7 -10 -29 -21 -48 l-22 -35 -9 25 c-12 32 5 70 32 70 11 0
20 -6 20 -12z"/>
<path d="M8020 5578 c-37 -64 -117 -138 -151 -138 -12 0 -19 -7 -19 -20 0 -28
18 -25 75 11 42 27 49 29 57 15 12 -22 27 -20 70 9 32 21 35 22 31 6 -7 -29
15 -61 42 -61 36 0 55 10 55 31 0 16 -3 17 -25 7 -46 -21 -50 2 -15 73 17 35
36 69 42 77 9 10 8 16 -3 23 -10 6 -18 3 -28 -14 -21 -32 -119 -127 -131 -127
-18 0 -11 25 25 80 19 30 35 62 35 72 0 35 -26 17 -60 -44z"/>
<path d="M11871 5585 c-34 -59 -40 -95 -16 -95 8 0 15 7 15 15 0 8 14 39 30
68 27 49 30 67 9 67 -4 0 -21 -25 -38 -55z"/>
<path d="M6108 5607 c-26 -12 -55 -31 -63 -42 -9 -11 -14 -14 -10 -7 8 15 -21
17 -30 1 -18 -28 22 -22 108 15 36 16 38 16 28 -1 -5 -10 -30 -46 -55 -81 -25
-34 -46 -66 -46 -71 0 -25 24 -18 72 20 l52 41 9 -31 c4 -17 19 -38 32 -47 23
-15 28 -15 69 6 37 18 47 29 60 67 19 57 20 63 3 63 -14 0 -37 -40 -37 -65 0
-19 -39 -45 -67 -45 -23 0 -35 25 -30 65 2 16 -4 20 -29 19 l-31 -2 24 44 c25
44 25 75 1 73 -7 0 -34 -10 -60 -22z"/>
<path d="M11638 5589 c-31 -33 -39 -47 -36 -73 4 -39 35 -46 77 -16 l30 21 3
-43 c4 -57 21 -55 29 3 4 26 12 56 18 67 15 28 14 52 -3 52 -8 0 -16 7 -20 15
-11 29 -57 17 -98 -26z m78 -1 c7 -11 -59 -78 -78 -78 -17 0 -7 29 21 59 31
33 45 38 57 19z"/>
<path d="M12985 5535 c0 -68 4 -98 13 -104 10 -6 5 -19 -22 -54 -37 -48 -76
-119 -76 -137 0 -25 28 -6 47 33 11 23 71 109 132 191 83 111 109 152 101 160
-9 8 -16 6 -26 -9 -125 -168 -132 -176 -138 -149 -4 14 -4 46 0 70 7 51 -1 94
-19 94 -9 0 -13 -25 -12 -95z"/>
<path d="M2251 5583 c-55 -69 -31 -142 37 -117 27 10 30 9 39 -17 16 -42 37
-38 29 6 -5 24 -2 46 9 70 16 33 14 55 -6 55 -6 0 -17 7 -25 15 -24 23 -60 18
-83 -12z m71 -23 c16 -18 15 -20 -13 -45 -36 -30 -59 -32 -59 -6 0 19 36 71
49 71 3 0 14 -9 23 -20z"/>
<path d="M5533 5595 c-88 -30 -123 -120 -66 -165 42 -33 88 -22 136 31 20 23
37 50 37 61 0 54 -55 91 -107 73z m62 -46 c18 -19 18 -22 3 -47 -25 -42 -74
-67 -104 -54 -47 22 -19 100 41 115 36 9 42 7 60 -14z"/>
<path d="M7651 5583 c-11 -15 -35 -50 -53 -76 -34 -53 -48 -50 -48 11 0 41
-16 72 -37 72 -11 0 -14 -6 -9 -22 4 -13 12 -51 18 -85 l11 -62 -52 -81 c-54
-83 -90 -155 -91 -177 0 -30 29 -9 44 31 17 45 117 199 201 311 55 74 60 84
48 96 -7 7 -17 0 -32 -18z"/>
<path d="M7795 5598 c-34 -19 -73 -59 -85 -89 -10 -24 -10 -33 3 -53 21 -32
48 -37 94 -16 56 25 84 100 48 130 -8 7 -15 19 -15 26 0 17 -18 18 -45 2z m29
-44 c22 -22 20 -41 -9 -69 -26 -26 -70 -33 -78 -12 -6 17 19 63 45 81 27 19
23 19 42 0z"/>
<path d="M9145 5591 c-89 -55 -119 -165 -52 -190 27 -10 102 -4 131 11 31 17
3 28 -49 20 -69 -11 -85 -6 -85 26 0 39 10 48 55 55 23 4 47 16 58 28 15 19
16 25 4 42 -19 29 -27 30 -62 8z m21 -36 c-11 -8 -25 -15 -30 -15 -6 0 -2 7 8
15 11 8 25 15 30 15 6 0 2 -7 -8 -15z"/>
<path d="M9373 5594 c-69 -34 -97 -134 -37 -134 14 0 34 5 46 11 11 6 22 9 24
6 3 -2 -27 -69 -66 -147 -65 -132 -84 -190 -61 -190 6 0 13 4 16 10 13 20 101
64 139 70 27 3 41 10 41 20 0 21 -67 15 -117 -11 -21 -11 -38 -17 -38 -15 0 3
26 58 58 123 65 133 105 223 106 238 1 6 -6 10 -14 10 -8 1 -25 6 -37 13 -26
15 -21 15 -60 -4z m54 -52 c-23 -25 -68 -52 -87 -52 -17 0 -12 17 16 49 20 25
32 30 59 28 l34 -2 -22 -23z"/>
<path d="M10238 5595 c-37 -20 -71 -94 -63 -137 8 -39 22 -60 51 -76 17 -9 29
-7 62 9 22 11 46 27 53 35 20 24 -17 28 -47 5 -45 -36 -74 -25 -88 31 -6 25
-3 28 34 38 22 6 52 21 67 34 24 21 26 26 15 50 -13 30 -42 33 -84 11z m52
-25 c0 -13 -62 -51 -70 -44 -6 7 47 54 61 54 5 0 9 -5 9 -10z"/>
<path d="M6672 5580 c-32 -19 -62 -71 -62 -105 0 -28 46 -65 82 -65 48 0 78
10 78 27 0 11 -8 12 -35 7 -19 -3 -46 -3 -60 0 -20 5 -25 12 -25 39 0 34 33
77 59 77 19 0 2 -20 -25 -30 -29 -11 -32 -30 -5 -30 33 0 51 11 67 42 12 23
13 33 3 44 -16 19 -38 18 -77 -6z"/>
<path d="M2488 5571 c-38 -31 -53 -74 -38 -111 14 -34 37 -43 100 -38 43 3 71
28 31 28 -12 0 -21 -5 -21 -12 0 -9 -3 -9 -12 0 -7 7 -22 12 -35 12 -33 0 -47
33 -29 69 17 32 34 41 78 41 42 0 31 24 -13 28 -24 2 -44 -4 -61 -17z"/>
<path d="M2950 5525 c-21 -64 -23 -96 -6 -96 11 0 57 141 50 153 -12 19 -24 4
-44 -57z"/>
<path d="M6831 5515 c-45 -81 -49 -95 -26 -95 14 0 55 47 55 63 0 11 66 67 79
67 15 0 14 -11 -4 -53 -18 -44 -19 -77 -2 -77 13 0 47 100 47 136 0 13 -8 24
-21 27 -24 6 -49 -1 -49 -14 0 -5 -4 -9 -10 -9 -5 0 -10 7 -10 15 0 32 -20 12
-59 -60z"/>
<path d="M9588 5573 c-39 -45 -50 -104 -25 -136 6 -9 26 -20 43 -23 28 -5 37
-1 73 35 48 48 61 85 37 109 -14 15 -18 15 -26 2 -5 -9 -5 -19 1 -27 8 -9 0
-23 -28 -54 -35 -37 -42 -40 -61 -30 -12 6 -22 21 -22 32 0 25 27 79 40 79 6
0 10 7 10 15 0 20 -23 19 -42 -2z"/>
<path d="M4476 5572 c-3 -3 -6 -11 -6 -19 0 -21 204 -14 208 7 2 12 -15 15
-97 16 -55 1 -102 -1 -105 -4z"/>
<path d="M3135 5550 c-10 -11 -26 -20 -35 -20 -12 0 -24 -18 -39 -59 -25 -68
-25 -71 -8 -71 6 1 30 28 52 62 46 71 68 89 87 70 10 -10 9 -22 -5 -61 -20
-58 -22 -81 -4 -81 13 0 47 93 47 126 -1 51 -61 72 -95 34z"/>
<path d="M9796 5509 c-13 -43 -16 -63 -8 -71 12 -12 37 38 48 97 11 61 -19 42
-40 -26z"/>
<path d="M3336 5530 c-45 -40 -56 -85 -27 -114 l22 -21 39 22 40 21 0 -27 c0
-27 -2 -29 -67 -37 -38 -4 -290 -8 -561 -9 -403 0 -494 -3 -501 -14 -6 -9 -11
-10 -15 -2 -5 7 -86 11 -257 10 -159 0 -269 4 -303 12 -60 13 -126 5 -126 -15
0 -17 -64 -15 845 -21 402 -2 782 0 845 5 63 4 116 7 118 5 2 -2 -2 -21 -7
-43 -10 -35 -17 -42 -54 -54 -31 -10 -43 -19 -45 -36 -5 -32 17 -92 33 -92 17
0 48 39 65 80 13 31 14 31 62 25 45 -6 50 -5 46 11 -3 19 -8 21 -60 23 -27 1
-27 1 -14 43 14 49 12 49 213 67 173 16 242 15 249 -4 9 -22 34 -18 34 5 0 28
-30 40 -102 40 -67 0 -268 -16 -330 -26 l-38 -6 0 85 c0 68 -3 86 -16 91 -31
12 -54 6 -88 -24z m74 -17 c-1 -36 -71 -96 -85 -73 -10 16 18 63 45 77 33 17
40 16 40 -4z m-60 -300 c-1 -5 -7 -19 -14 -32 -14 -24 -14 -24 -20 -3 -4 12
-4 26 -1 32 7 12 35 14 35 3z"/>
<path d="M12452 5448 c2 -30 -29 -77 -59 -89 -25 -9 -32 -39 -8 -39 40 0 115
100 101 135 -9 24 -36 18 -34 -7z"/>
<path d="M8290 5368 c0 -13 -20 -61 -44 -108 -43 -84 -45 -85 -81 -84 -28 1
-35 -2 -33 -15 2 -9 13 -17 26 -19 12 -2 22 -5 22 -6 0 -1 -11 -30 -25 -64
-30 -73 -31 -93 -7 -115 20 -18 106 -23 131 -8 23 15 3 30 -34 24 -44 -7 -85
3 -85 22 0 9 13 44 29 80 27 59 32 64 73 75 61 17 88 31 88 47 0 15 -21 17
-35 4 -6 -4 -25 -11 -42 -14 l-33 -6 39 77 c46 92 53 125 29 130 -13 3 -18 -3
-18 -20z"/>
<path d="M10785 5344 c-8 -20 -15 -38 -15 -40 0 -3 -31 -74 -70 -159 -67 -148
-81 -195 -60 -195 5 0 20 19 34 43 28 47 83 104 92 95 3 -3 -7 -29 -22 -58
-20 -38 -24 -54 -16 -62 14 -14 12 -16 45 49 31 60 34 85 12 103 -13 11 -21 9
-46 -9 l-30 -22 15 33 c72 168 89 206 101 224 8 12 11 24 8 28 -15 15 -34 3
-48 -30z"/>
<path d="M6704 5343 c-18 -56 -83 -210 -121 -283 -70 -138 -56 -162 39 -64 61
64 118 105 118 84 0 -5 -12 -39 -27 -75 -20 -48 -24 -68 -16 -76 18 -18 46 -2
40 22 -3 11 3 39 14 62 23 51 24 80 4 97 -20 17 -65 -3 -121 -52 -32 -28 -35
-29 -21 -8 19 30 114 249 123 285 5 19 2 25 -10 25 -9 0 -19 -8 -22 -17z"/>
<path d="M12770 5342 c0 -11 -31 -84 -69 -164 -76 -158 -101 -232 -83 -250 8
-8 14 -4 22 16 5 15 10 36 10 46 0 10 34 86 75 169 74 151 89 201 60 201 -8 0
-15 -8 -15 -18z"/>
<path d="M13576 5233 c-35 -71 -80 -155 -100 -188 -20 -33 -36 -65 -36 -72 0
-19 17 -24 32 -9 91 96 152 156 158 156 19 0 17 -31 -4 -77 -19 -40 -21 -51
-10 -61 11 -10 17 -3 34 36 31 69 35 96 15 115 -24 25 -50 21 -91 -15 l-36
-32 61 122 c34 67 61 129 61 137 0 38 -25 5 -84 -112z"/>
<path d="M10600 5288 c-44 -85 -45 -87 -98 -90 -34 -2 -47 -7 -47 -18 0 -10
10 -15 33 -14 17 0 32 -3 32 -7 0 -4 -11 -31 -25 -61 -39 -84 -31 -188 15
-188 28 0 34 17 10 30 -29 15 -26 80 8 160 23 55 32 66 56 70 31 5 49 30 22
30 -21 0 -21 0 19 67 38 63 43 83 21 83 -8 0 -28 -28 -46 -62z"/>
<path d="M13480 5324 c-6 -16 -34 -68 -61 -116 -48 -84 -52 -88 -85 -88 -40 0
-48 -27 -10 -32 l24 -3 -29 -60 c-16 -33 -27 -65 -25 -72 8 -19 36 -16 36 3 0
9 12 42 26 74 l25 57 62 9 c69 10 76 30 10 27 -24 -1 -43 1 -43 4 0 3 17 36
38 72 48 84 66 131 53 144 -7 7 -14 0 -21 -19z"/>
<path d="M11764 5309 c-36 -69 -114 -303 -104 -313 6 -6 26 4 56 27 56 44 64
45 64 13 0 -45 81 -76 109 -43 13 16 5 28 -15 20 -8 -3 -25 -2 -39 1 -22 6
-25 11 -25 56 0 59 -10 62 -59 20 -19 -16 -37 -28 -39 -25 -6 5 35 128 66 198
18 41 22 61 14 69 -7 7 -15 1 -28 -23z"/>
<path d="M12672 5288 c-11 -24 -43 -91 -71 -150 -28 -59 -51 -114 -51 -122 0
-8 -7 -19 -16 -24 -20 -11 -10 -32 16 -32 13 0 21 10 26 33 3 17 35 94 70 171
35 76 64 144 64 152 0 28 -19 13 -38 -28z"/>
<path d="M5595 5285 c-33 -19 -61 -38 -63 -43 -7 -22 18 -20 64 5 60 32 85 53
78 64 -7 12 -11 11 -79 -26z"/>
<path d="M4999 5288 c-1 -7 -1 -19 0 -26 6 -39 -43 -206 -72 -249 -37 -55 -80
-84 -98 -66 -18 18 -3 57 36 99 28 29 38 34 49 25 22 -18 32 7 12 27 -15 15
-19 15 -43 2 -44 -25 -93 -97 -93 -135 0 -61 58 -73 115 -24 53 47 83 105 105
205 24 110 26 154 5 154 -8 0 -16 -6 -16 -12z"/>
<path d="M5760 5278 c0 -23 -85 -155 -97 -151 -17 6 -55 -16 -48 -28 4 -5 15
-9 26 -9 16 0 18 -3 9 -19 -18 -35 -12 -88 14 -118 19 -22 32 -28 64 -28 47 0
60 9 46 32 -15 23 -34 28 -34 8 0 -12 -6 -15 -22 -10 -43 13 -59 58 -39 110 6
16 16 19 59 16 49 -2 92 11 92 28 0 5 -27 6 -60 4 -41 -4 -60 -2 -60 6 0 6 15
35 34 64 43 64 55 107 32 107 -9 0 -16 -6 -16 -12z"/>
<path d="M13779 5122 c-57 -58 -58 -60 -48 -96 12 -42 48 -70 93 -70 41 1 136
43 136 60 0 19 -14 18 -60 -6 -51 -26 -102 -26 -125 0 -21 24 -22 23 35 39 54
16 110 69 110 105 0 24 -3 26 -41 26 -37 0 -48 -6 -100 -58z m101 8 c-13 -24
-76 -57 -87 -46 -11 11 54 66 78 66 17 0 18 -3 9 -20z"/>
<path d="M12369 5121 c-22 -21 -39 -46 -39 -54 0 -39 57 -60 101 -37 16 9 19
7 19 -10 0 -11 7 -20 15 -20 8 0 15 7 15 15 0 9 7 30 16 46 15 29 14 32 -11
65 -35 46 -66 45 -116 -5z m91 -10 c8 -16 5 -23 -24 -40 -64 -40 -97 -18 -46
29 37 35 55 38 70 11z"/>
<path d="M6953 5130 c-68 -41 -96 -114 -49 -126 13 -3 34 -1 45 6 19 9 21 8
21 -14 0 -30 33 -72 48 -62 9 5 8 13 -2 29 -11 16 -13 37 -8 82 12 98 -1 118
-55 85z m28 -42 c-9 -26 -58 -65 -68 -55 -7 8 55 77 69 77 4 0 4 -10 -1 -22z"/>
<path d="M7089 5114 c-13 -33 -7 -131 10 -163 29 -54 89 -8 114 88 9 37 16 48
24 40 8 -8 13 -7 18 1 9 15 -39 65 -54 56 -6 -4 -11 -22 -11 -39 0 -48 -18
-102 -39 -121 -27 -25 -36 -6 -36 81 0 80 -9 100 -26 57z"/>
<path d="M10903 5110 c-34 -31 -86 -123 -76 -134 13 -13 31 -5 37 17 3 12 22
43 41 70 30 40 39 46 60 41 27 -7 33 4 13 24 -19 19 -40 14 -75 -18z"/>
<path d="M5066 5087 c-53 -50 -66 -89 -41 -117 22 -25 39 -25 91 -1 58 26 73
65 45 120 -12 23 -28 41 -36 41 -8 0 -35 -19 -59 -43z m70 -22 c9 -37 -1 -54
-42 -71 -66 -27 -68 7 -5 74 28 28 39 28 47 -3z"/>
<path d="M5261 5068 c-16 -29 -40 -68 -51 -85 -19 -28 -20 -34 -6 -39 9 -4 40
15 83 49 37 31 69 54 71 52 2 -2 -2 -22 -9 -44 -11 -36 -10 -44 3 -58 20 -19
68 -10 68 13 0 12 -6 15 -26 10 -28 -7 -28 -1 2 73 31 74 7 80 -74 19 l-56
-42 22 36 c23 37 29 68 13 68 -5 0 -23 -24 -40 -52z"/>
<path d="M7379 5093 c-84 -71 -67 -183 27 -183 48 0 104 27 104 50 0 24 -16
35 -27 17 -19 -33 -91 -49 -111 -24 -5 6 -12 21 -14 32 -2 15 4 20 34 26 64
10 100 63 66 97 -19 19 -44 14 -79 -15z m45 -38 c-22 -16 -44 -19 -44 -6 0 6
10 17 22 25 29 21 51 3 22 -19z"/>
<path d="M9557 5102 c-31 -21 -77 -79 -77 -99 0 -7 9 -17 21 -23 16 -9 26 -8
45 5 13 8 24 14 24 12 0 -11 -23 -128 -31 -159 -10 -37 -10 -38 -34 -22 -32
21 -61 10 -86 -29 -34 -57 -19 -177 22 -177 19 0 45 32 78 98 19 37 24 41 42
32 31 -17 43 -1 19 25 -22 23 -22 25 -7 87 9 35 18 83 22 108 11 72 25 121 35
115 15 -9 22 15 10 30 -17 20 -49 19 -83 -3z m-1 -70 c-36 -36 -46 -19 -10 19
16 17 30 25 33 18 2 -6 -8 -23 -23 -37z m-50 -257 c7 -17 -45 -117 -63 -123
-17 -5 -17 77 -1 113 13 28 55 35 64 10z"/>
<path d="M9743 5078 c-41 -45 -48 -79 -22 -112 29 -36 63 -34 105 8 46 46 48
98 4 121 -41 21 -52 19 -87 -17z m87 -40 c0 -24 -48 -70 -69 -66 -24 5 -25 51
-1 81 18 23 24 25 45 15 14 -6 25 -20 25 -30z"/>
<path d="M11495 5079 c-36 -32 -54 -84 -36 -102 8 -8 22 -8 52 0 l41 11 -7
-52 c-12 -82 -19 -93 -54 -88 -48 7 -103 -53 -130 -142 -26 -86 -28 -126 -3
-126 35 1 118 92 161 178 22 43 23 44 59 36 54 -11 95 -10 99 2 2 6 -25 16
-61 23 -63 13 -64 13 -55 39 10 32 28 194 22 205 -8 13 -22 7 -28 -13 -4 -11
-19 -27 -35 -35 -37 -19 -39 -19 -33 4 6 24 32 48 57 52 27 5 31 25 6 32 -14
4 -32 -4 -55 -24z m-1 -265 c13 -5 12 -12 -8 -52 -25 -49 -105 -146 -113 -138
-11 11 42 143 68 168 30 31 30 31 53 22z"/>
<path d="M8396 5069 c-31 -37 -33 -62 -6 -89 26 -26 60 -25 95 2 23 18 26 26
22 55 -8 46 -23 63 -57 63 -19 0 -37 -10 -54 -31z m80 -31 c11 -36 -41 -63
-65 -34 -9 11 -10 20 -1 35 15 28 56 28 66 -1z"/>
<path d="M11021 5050 c-33 -45 -25 -100 15 -102 40 -3 74 13 89 42 27 53 17
70 -51 83 -26 5 -34 1 -53 -23z m72 -18 c16 -7 16 -9 2 -30 -9 -12 -27 -22
-41 -22 -26 0 -30 11 -14 41 11 20 23 22 53 11z"/>
<path d="M11245 5033 c-14 -33 -15 -41 -3 -63 26 -47 92 -30 124 31 19 38 18
48 -8 58 -31 12 -40 4 -26 -19 10 -16 8 -23 -12 -45 -34 -36 -54 -33 -47 8 3
17 7 38 9 46 8 32 -22 19 -37 -16z"/>
<path d="M4013 4942 c-101 -119 -149 -218 -178 -361 -28 -137 -1 -229 88 -294
41 -31 93 -42 101 -22 4 10 -3 17 -22 21 -145 30 -185 195 -101 414 39 102
131 237 172 253 19 7 13 37 -8 37 -6 0 -30 -22 -52 -48z"/>
<path d="M2720 4880 c0 -16 -11 -55 -25 -86 -28 -62 -16 -59 -112 -37 -17 4
-23 1 -23 -11 0 -16 45 -40 59 -32 4 3 13 1 20 -3 9 -6 7 -16 -8 -43 -53 -88
-32 -169 44 -172 52 -1 56 20 6 28 -62 10 -67 53 -15 144 21 36 30 42 57 42
48 0 77 11 77 27 0 12 -9 14 -46 8 -45 -6 -46 -6 -39 17 4 13 14 35 21 50 19
37 18 98 -1 98 -10 0 -15 -10 -15 -30z"/>
<path d="M5387 4823 c-14 -14 -6 -33 13 -33 29 0 43 -41 44 -135 1 -65 -4 -89
-23 -129 -24 -48 -121 -155 -193 -212 -27 -21 -35 -33 -28 -44 7 -11 22 -3 72
40 123 107 171 172 195 262 15 58 16 76 5 140 -15 87 -56 141 -85 111z"/>
<path d="M4982 4769 c1 -13 8 -23 13 -21 15 3 12 35 -3 40 -9 3 -13 -3 -10
-19z"/>
<path d="M2403 4710 c-18 -11 -33 -25 -33 -32 0 -7 16 -35 35 -62 40 -56 43
-76 16 -100 -27 -24 -63 -17 -79 17 -7 15 -17 25 -23 22 -16 -11 -10 -44 13
-65 41 -38 108 -19 137 38 12 23 3 45 -52 125 -10 15 -9 21 7 33 23 16 66 19
66 4 0 -5 7 -10 15 -10 8 0 15 6 15 13 0 40 -65 49 -117 17z"/>
<path d="M3123 4696 c-31 -22 -53 -31 -55 -24 -7 21 -26 -1 -33 -39 -4 -20
-15 -54 -26 -75 -10 -20 -19 -43 -19 -49 0 -7 -16 -46 -36 -87 -32 -69 -38
-102 -16 -102 9 0 12 7 81 172 51 123 62 140 120 177 59 38 65 38 56 4 -14
-61 -99 -161 -120 -143 -9 8 -14 5 -18 -9 -3 -11 -2 -22 1 -25 27 -28 111 44
151 128 47 101 7 134 -86 72z"/>
<path d="M3315 4696 c-22 -16 -23 -62 0 -110 19 -40 17 -64 -7 -80 -21 -13
-40 2 -42 33 0 12 -4 21 -8 21 -5 0 -12 0 -18 0 -17 0 -11 -36 11 -64 25 -32
59 -33 87 -3 26 27 28 63 7 103 -30 58 -7 107 34 70 23 -21 31 -20 31 4 0 35
-59 52 -95 26z"/>
<path d="M2870 4674 c-86 -73 -77 -184 15 -184 38 0 95 24 95 40 0 13 -37 13
-45 0 -9 -14 -68 -13 -83 2 -17 17 -15 38 4 38 21 0 71 36 85 62 15 28 3 68
-20 68 -11 0 -33 -12 -51 -26z m34 -35 c-10 -11 -27 -25 -37 -31 -18 -9 -18
-8 -1 16 17 27 45 48 53 40 2 -2 -4 -13 -15 -25z"/>
<path d="M4146 4659 c-29 -31 -36 -47 -34 -71 4 -44 30 -58 68 -36 l30 17 0
-29 c0 -31 13 -45 35 -36 11 4 11 11 3 34 -9 23 -8 40 5 78 16 48 16 49 -6 66
-35 28 -61 22 -101 -23z m68 5 c14 -5 14 -9 1 -33 -12 -25 -54 -61 -70 -61
-13 0 -2 36 21 67 28 36 26 35 48 27z"/>
<path d="M5027 4673 c-4 -3 -7 -16 -7 -27 0 -12 -9 -40 -20 -63 -29 -65 -6
-63 62 3 57 56 60 58 55 30 -6 -34 7 -76 23 -76 7 0 10 23 8 62 -4 75 -23 86
-69 42 l-29 -28 0 32 c0 30 -9 40 -23 25z"/>
<path d="M4446 4639 c-26 -20 -56 -68 -56 -88 0 -25 36 -29 79 -10 l44 19 -6
-72 c-8 -102 -9 -104 -63 -100 -56 5 -79 -13 -88 -68 -8 -49 13 -105 43 -113
29 -7 63 23 86 75 11 24 24 46 30 50 5 4 11 20 11 35 1 15 5 64 9 108 6 66 5
87 -9 112 -10 21 -12 34 -5 38 14 9 -8 35 -31 35 -9 0 -29 -9 -44 -21z m37
-31 c-8 -32 -53 -66 -53 -39 0 7 49 61 55 61 2 0 1 -10 -2 -22z m-9 -256 c9
-15 -42 -112 -59 -112 -28 0 -37 49 -19 108 4 13 70 17 78 4z"/>
<path d="M4661 4634 c-51 -43 -56 -60 -26 -90 26 -25 40 -27 89 -8 12 5 16 0
16 -20 0 -16 6 -26 15 -26 11 0 15 11 15 38 0 20 3 47 6 60 4 15 2 22 -7 22
-8 0 -19 10 -24 23 -14 32 -47 32 -84 1z m59 -19 c0 -8 5 -15 12 -15 6 0 3 -9
-7 -20 -21 -23 -75 -27 -75 -6 0 15 45 56 61 56 5 0 9 -7 9 -15z"/>
<path d="M4886 4585 c-29 -67 -29 -95 0 -95 10 0 14 5 10 15 -3 8 6 38 19 67
28 60 31 78 12 78 -7 0 -25 -29 -41 -65z"/>
<path d="M5692 4533 c2 -10 10 -18 18 -18 22 0 18 29 -3 33 -14 3 -18 -1 -15
-15z"/>
</g>
</svg>
