<?xml version="1.0" standalone="no"?>
<!DOCTYPE svg PUBLIC "-//W3C//DTD SVG 20010904//EN"
 "http://www.w3.org/TR/2001/REC-SVG-20010904/DTD/svg10.dtd">
<svg version="1.0" xmlns="http://www.w3.org/2000/svg"
 width="1618.000000pt" height="1214.000000pt" viewBox="0 0 1618.000000 1214.000000"
 preserveAspectRatio="xMidYMid meet">

<g transform="translate(0.000000,1214.000000) scale(0.100000,-0.100000)"
fill="#000000" stroke="none">
<path d="M7935 11703 c-4 -21 -20 -72 -37 -114 -32 -81 -42 -89 -114 -89 -15
0 -24 -6 -24 -16 0 -13 9 -15 46 -12 41 3 45 2 39 -17 -29 -93 -9 -176 50
-201 39 -16 63 -11 45 11 -6 7 -21 16 -34 19 -41 10 -56 73 -36 148 14 48 40
62 101 54 29 -4 50 -2 54 4 8 13 -37 30 -82 30 -29 0 -34 3 -30 18 3 9 19 55
35 102 17 47 28 88 25 93 -12 19 -31 3 -38 -30z"/>
<path d="M2673 11715 c-21 -14 -78 -168 -98 -262 -4 -22 -13 -33 -31 -37 -13
-4 -24 -14 -24 -22 0 -11 6 -15 20 -11 24 6 25 -7 6 -78 -14 -52 -13 -65 7
-65 7 0 18 32 27 78 l15 77 43 13 c23 8 42 20 42 28 0 16 -5 17 -46 5 l-31 -9
9 42 c16 70 60 190 76 209 10 12 25 17 40 14 17 -3 22 0 20 12 -4 22 -48 25
-75 6z"/>
<path d="M3322 11683 c-6 -27 -19 -84 -27 -128 -26 -136 -40 -169 -80 -184
-19 -7 -35 -19 -35 -27 0 -17 14 -18 42 -3 19 10 20 9 14 -12 -3 -13 -9 -45
-13 -71 -5 -40 -3 -48 11 -48 19 0 23 40 4 40 -8 0 -6 5 4 10 9 6 19 28 23 50
6 36 10 40 43 46 76 13 113 25 109 37 -4 12 -8 12 -86 1 -43 -7 -44 -7 -37 17
4 13 14 61 22 106 8 46 24 108 35 140 23 69 23 73 1 73 -12 0 -21 -13 -30 -47z"/>
<path d="M5214 11706 c-36 -16 -58 -58 -89 -170 -20 -74 -24 -80 -56 -90 -39
-13 -37 -32 3 -29 26 3 26 2 16 -35 -5 -20 -21 -59 -34 -87 -17 -36 -20 -51
-11 -57 20 -12 33 9 63 102 23 72 33 90 49 91 39 2 45 4 45 14 0 5 -11 11 -26
12 -14 1 -28 4 -31 6 -9 10 42 172 62 195 15 18 34 26 61 28 50 3 48 2 34 19
-15 18 -45 19 -86 1z"/>
<path d="M5974 11706 c-3 -8 -1 -23 5 -34 15 -28 4 -75 -36 -155 l-34 -68 -51
3 c-69 4 -76 -18 -9 -27 l50 -7 -18 -46 c-30 -75 -35 -112 -17 -112 8 0 17 10
21 23 3 12 15 47 26 78 l20 56 54 10 53 9 -29 -80 c-33 -91 -35 -106 -14 -106
8 0 15 7 15 15 0 21 93 115 114 115 13 0 15 -4 6 -19 -5 -11 -10 -28 -10 -39
0 -11 -10 -26 -22 -35 -26 -17 -23 -24 12 -29 22 -3 26 2 39 47 20 76 19 96
-6 106 -16 6 -31 2 -58 -17 l-36 -24 6 22 c4 13 16 48 27 78 31 84 69 222 64
228 -15 15 -34 -14 -51 -79 -24 -93 -49 -161 -57 -153 -4 3 -12 3 -19 -2 -13
-8 -69 -14 -69 -8 0 3 14 31 30 64 35 70 49 184 23 194 -21 8 -23 8 -29 -8z"/>
<path d="M8610 11707 c-57 -44 -160 -266 -160 -343 0 -46 -29 -81 -61 -76 -20
3 -23 -5 -13 -32 9 -23 27 -20 54 9 l24 25 22 -20 c17 -17 32 -21 80 -18 74 4
77 22 4 26 -87 4 -91 22 -24 96 31 33 69 88 85 120 28 57 63 202 53 218 -8 12
-47 9 -64 -5z m16 -111 c-18 -78 -49 -136 -109 -201 -42 -46 -46 -35 -18 46
44 129 128 273 139 240 2 -6 -3 -45 -12 -85z"/>
<path d="M12751 11614 c-35 -74 -43 -85 -56 -74 -8 7 -22 10 -30 6 -8 -3 -27
-1 -42 5 -35 13 -53 -3 -35 -32 9 -13 10 -25 4 -32 -22 -27 -35 -95 -24 -126
10 -29 8 -38 -28 -97 -40 -64 -49 -97 -30 -109 6 -3 17 0 25 9 9 8 11 17 6 21
-6 3 5 31 24 63 l33 57 49 -3 c42 -3 55 1 81 23 41 34 52 86 27 132 -10 18
-21 33 -26 33 -4 0 15 43 42 95 53 103 57 115 34 115 -8 0 -31 -36 -54 -86z
m-81 -129 c0 -15 -65 -104 -72 -97 -10 10 7 70 28 93 13 14 44 17 44 4z m66
-90 c-3 -16 -16 -38 -27 -47 -22 -18 -74 -24 -83 -10 -3 5 13 37 36 72 l40 64
20 -24 c14 -17 18 -33 14 -55z"/>
<path d="M2217 11612 c-16 -17 -16 -23 -1 -73 20 -67 14 -146 -16 -216 -28
-66 -59 -96 -96 -91 -26 3 -29 8 -32 41 -3 30 2 42 25 65 16 15 38 32 48 38
31 19 6 39 -28 23 -80 -36 -108 -178 -39 -196 65 -17 104 9 144 93 18 38 32
88 35 123 6 67 -5 211 -16 211 -4 0 -15 -8 -24 -18z"/>
<path d="M14475 11582 c-17 -31 -32 -49 -40 -46 -18 7 -89 -39 -112 -73 -38
-54 -55 -139 -34 -172 6 -9 -4 -34 -31 -77 -45 -72 -55 -126 -24 -132 15 -3
18 0 14 15 -5 20 9 57 47 121 17 27 25 32 59 32 103 0 199 116 159 194 -8 17
-22 38 -30 48 -13 14 -11 22 12 68 36 71 18 91 -20 22z m-65 -107 c0 -8 -80
-148 -91 -159 -13 -14 -11 34 3 75 17 50 47 89 69 89 10 0 19 -2 19 -5z m68
-30 c22 -48 15 -76 -33 -122 -33 -31 -54 -43 -76 -43 l-30 0 42 78 c59 107 62
112 75 112 6 0 16 -11 22 -25z"/>
<path d="M14782 11603 c-71 -35 -109 -126 -64 -154 16 -10 14 -14 -20 -50 -43
-45 -68 -112 -51 -137 23 -38 89 -23 143 33 35 36 40 63 25 132 -5 24 -2 36
14 52 26 26 28 87 3 118 -16 21 -18 22 -50 6z m33 -67 c0 -34 -41 -71 -68 -60
-25 9 -21 41 8 70 33 33 60 28 60 -10z m-25 -145 c15 -29 -3 -65 -47 -95 -84
-57 -98 -8 -23 78 36 41 54 45 70 17z"/>
<path d="M13664 11581 c-5 -11 -46 -58 -91 -106 -98 -102 -104 -120 -37 -110
26 3 52 9 58 11 7 3 11 -19 11 -68 0 -57 3 -73 15 -73 11 0 13 12 11 52 -3 71
5 93 35 93 17 0 24 6 24 19 0 14 -5 18 -20 14 -26 -7 -26 7 5 95 14 39 25 76
25 82 0 17 -27 11 -36 -9z m-43 -143 c-7 -18 -19 -27 -39 -30 l-30 -4 36 42
c37 43 51 39 33 -8z"/>
<path d="M14097 11553 c-42 -21 -77 -42 -77 -46 -1 -21 35 -15 96 17 37 20 69
34 72 32 7 -7 -44 -113 -73 -150 -15 -20 -35 -38 -45 -41 -39 -12 -103 -125
-71 -125 5 0 28 20 52 45 24 25 50 45 57 45 7 0 23 -22 35 -50 22 -51 34 -59
55 -38 8 8 5 18 -13 40 -14 16 -25 36 -25 44 0 7 -9 19 -19 26 -19 11 -18 13
10 55 40 58 69 122 69 156 0 38 -29 36 -123 -10z"/>
<path d="M3180 11570 c-12 -7 -12 -12 -3 -21 9 -9 16 -9 27 1 26 21 5 39 -24
20z"/>
<path d="M13413 11543 c-9 -3 -13 -26 -13 -64 0 -33 -9 -100 -20 -151 -19 -81
-19 -93 -6 -107 18 -18 18 -18 36 89 20 129 30 224 22 231 -4 4 -13 4 -19 2z"/>
<path d="M2820 11530 c0 -12 41 -30 52 -24 4 3 5 11 1 19 -6 17 -53 21 -53 5z"/>
<path d="M12911 11529 c-38 -15 -81 -49 -81 -65 0 -20 17 -17 53 10 18 13 42
27 55 31 20 6 21 4 12 -19 -29 -76 -83 -147 -131 -172 -36 -18 -63 -59 -55
-80 5 -13 14 -10 53 22 31 25 48 34 51 25 2 -7 14 -24 27 -39 23 -27 23 -27
59 -9 20 9 36 20 36 25 0 15 -13 22 -24 13 -25 -20 -46 -15 -64 14 l-18 30 33
46 c44 62 76 135 68 159 -7 22 -34 25 -74 9z"/>
<path d="M3538 11509 c-21 -11 -24 -49 -5 -49 16 0 41 40 30 51 -4 4 -16 3
-25 -2z"/>
<path d="M2347 11462 c-23 -25 -47 -87 -47 -119 1 -57 49 -89 109 -73 38 10
69 35 58 46 -11 11 -48 -8 -43 -22 6 -16 -10 -19 -19 -4 -3 6 -17 10 -29 10
-13 0 -29 7 -36 15 -10 12 -10 15 3 15 21 0 84 56 92 81 9 28 -20 69 -49 69
-12 0 -30 -8 -39 -18z m53 -42 c0 -18 -43 -60 -61 -60 -11 0 8 51 28 72 18 20
33 15 33 -12z"/>
<path d="M2934 11416 c-25 -25 -49 -44 -52 -43 -9 3 -12 -7 -12 -38 0 -36 26
-32 46 8 22 41 46 71 62 74 8 2 11 -15 9 -59 -1 -49 1 -63 13 -65 12 -3 15 11
15 79 0 104 -14 111 -81 44z"/>
<path d="M7222 11451 c-9 -5 -17 -31 -47 -156 l-8 -30 -13 30 c-7 17 -13 41
-14 55 0 26 -25 70 -39 70 -4 0 -16 -6 -27 -14 -18 -14 -18 -15 7 -24 21 -8
27 -19 32 -53 7 -50 36 -94 63 -94 16 0 22 14 35 77 23 110 24 111 59 105 29
-6 49 6 30 18 -21 13 -68 23 -78 16z"/>
<path d="M7607 11453 c-3 -5 -8 -24 -12 -43 -4 -19 -16 -52 -26 -74 -17 -37
-18 -56 0 -56 4 0 22 20 40 45 18 25 41 50 51 55 18 10 19 8 14 -35 -5 -29 -2
-50 6 -60 21 -25 26 -18 27 38 1 28 3 63 5 77 4 32 -23 38 -60 11 l-28 -20 4
28 c4 27 -11 51 -21 34z"/>
<path d="M6235 11417 c-43 -43 -52 -79 -31 -123 27 -59 92 -68 165 -23 24 15
31 23 23 31 -8 8 -15 8 -24 1 -7 -6 -30 -16 -51 -23 -32 -10 -42 -9 -62 4 -32
21 -33 46 -2 46 13 0 34 9 47 20 13 11 27 20 32 20 12 0 10 54 -4 68 -22 22
-59 13 -93 -21z m75 -11 c0 -18 -47 -48 -68 -44 -14 3 -12 8 12 31 31 29 56
35 56 13z"/>
<path d="M6944 11439 c-31 -9 -84 -54 -84 -71 0 -5 -12 -20 -26 -33 -15 -14
-22 -25 -16 -25 5 0 13 -18 17 -40 10 -62 33 -83 88 -82 42 1 118 30 131 50 8
14 -36 12 -65 -4 -15 -7 -46 -14 -68 -14 -36 0 -40 3 -51 35 -14 42 -7 55 29
55 32 0 106 58 114 90 3 11 -1 27 -10 35 -16 17 -16 17 -59 4z m36 -39 c0 -14
-77 -63 -92 -58 -19 7 46 68 71 68 12 0 21 -4 21 -10z"/>
<path d="M7388 11434 c-37 -20 -48 -43 -48 -103 0 -38 5 -56 20 -71 24 -24 39
-25 87 -5 l37 16 -21 21 c-20 19 -50 17 -38 -3 10 -15 -24 -22 -40 -9 -28 23
-18 55 20 69 46 16 71 52 55 80 -13 24 -34 26 -72 5z m42 -27 c0 -14 -49 -42
-57 -34 -4 4 45 47 53 47 2 0 4 -6 4 -13z"/>
<path d="M9136 11409 c-15 -11 -33 -18 -41 -15 -14 5 -27 -8 -31 -29 -2 -10
-38 -88 -53 -115 -5 -8 -14 -33 -21 -55 -7 -22 -23 -62 -36 -88 -27 -55 -30
-77 -11 -77 7 0 29 36 50 80 34 76 38 80 69 80 83 0 198 106 198 183 0 54 -74
76 -124 36z m89 -20 c29 -46 -91 -169 -165 -169 -20 0 -20 0 -1 38 11 21 38
62 61 90 32 41 46 52 70 52 16 0 32 -5 35 -11z"/>
<path d="M2768 11412 c-19 -4 -23 -14 -11 -25 3 -4 7 -26 7 -49 1 -48 26 -67
26 -19 0 16 4 41 9 55 11 28 -3 45 -31 38z"/>
<path d="M8683 11377 c-51 -69 -59 -92 -39 -122 11 -16 26 -25 43 -25 52 0
123 69 123 118 0 23 -53 72 -78 72 -9 0 -31 -20 -49 -43z m95 -31 c4 -20 -59
-86 -82 -86 -38 0 -30 50 15 101 21 23 27 25 44 14 11 -7 21 -20 23 -29z"/>
<path d="M8914 11400 c-33 -13 -84 -84 -84 -117 0 -60 44 -69 108 -23 62 44
71 120 17 140 -11 4 -29 4 -41 0z m46 -51 c0 -25 -64 -93 -82 -87 -25 9 -19
41 13 74 38 39 69 45 69 13z"/>
<path d="M3606 11356 c-49 -45 -54 -66 -24 -103 19 -24 65 -15 91 17 23 27 24
34 15 67 -17 67 -28 69 -82 19z m54 -41 c0 -23 -25 -45 -49 -45 -20 0 -11 47
12 63 27 18 37 13 37 -18z"/>
<path d="M3830 11370 c-13 -10 -27 -15 -30 -10 -3 5 -11 10 -18 12 -15 4 -54
-100 -40 -108 5 -3 26 10 48 30 30 27 35 36 22 38 -9 2 -2 6 16 9 28 5 32 3
32 -18 0 -31 34 -63 66 -63 37 0 64 17 57 36 -4 11 -9 12 -16 5 -15 -15 -50
-14 -65 1 -7 7 -12 29 -12 50 0 44 -19 50 -60 18z"/>
<path d="M4856 11344 c-64 -78 -12 -141 72 -86 30 19 39 59 21 91 -22 39 -58
37 -93 -5z m74 -28 c0 -20 -51 -59 -63 -47 -16 16 -3 45 23 52 38 11 40 10 40
-5z"/>
<path d="M3094 11346 c-18 -29 -15 -71 5 -71 8 0 15 9 16 20 1 11 6 32 10 48
9 34 -9 36 -31 3z"/>
<path d="M3455 11309 c-4 -25 -3 -45 4 -52 15 -15 18 -9 26 46 6 39 5 47 -8
47 -10 0 -18 -14 -22 -41z"/>
<path d="M13736 11283 c-9 -22 10 -41 25 -26 13 13 5 43 -10 43 -5 0 -12 -8
-15 -17z"/>
<path d="M13047 11273 c-13 -12 -7 -33 8 -33 8 0 15 9 15 20 0 20 -11 26 -23
13z"/>
<path d="M1737 10963 c-4 -3 -7 -16 -7 -29 0 -12 -15 -91 -34 -176 -39 -177
-52 -294 -35 -314 14 -18 92 -18 221 -2 54 6 101 8 105 4 4 -4 -3 -25 -15 -47
l-23 -39 23 -9 c18 -7 29 -3 53 19 37 34 82 58 121 63 21 3 30 10 32 27 4 26
-12 40 -49 40 -26 0 -89 57 -89 80 0 6 -6 10 -12 10 -17 0 -48 -55 -48 -84 0
-21 -6 -23 -124 -36 -69 -7 -135 -10 -148 -7 -23 6 -24 10 -20 69 2 35 19 133
37 218 33 151 39 182 36 208 -1 13 -14 16 -24 5z"/>
<path d="M5465 10800 c-4 -6 -5 -23 -3 -39 1 -16 -2 -35 -8 -42 -6 -8 -28 -52
-49 -99 -57 -128 -59 -130 -117 -130 -59 0 -63 -23 -5 -28 l36 -3 -25 -49
c-26 -52 -29 -66 -15 -75 6 -3 24 24 42 59 32 64 34 65 78 71 61 9 111 24 111
35 0 5 -29 7 -65 4 l-66 -4 30 58 c49 96 81 184 81 219 0 32 -12 43 -25 23z"/>
<path d="M4999 10738 c-33 -86 -92 -213 -102 -220 -6 -3 -25 -4 -44 -1 -25 4
-33 2 -33 -10 0 -18 21 -27 49 -20 19 5 21 1 21 -35 0 -50 28 -90 54 -75 15 8
15 11 -4 28 -25 23 -27 73 -2 81 31 10 44 19 40 29 -2 6 -11 9 -20 8 -10 -2
-18 -1 -18 2 0 3 24 58 54 122 30 64 53 120 50 125 -12 19 -30 5 -45 -34z"/>
<path d="M7752 10747 c0 -19 -24 -84 -61 -160 -83 -174 -99 -223 -82 -239 11
-11 14 -10 18 0 8 21 103 132 113 132 6 0 6 -9 1 -23 -16 -42 -17 -82 -2 -82
12 0 25 34 48 123 9 37 -39 29 -87 -14 l-40 -36 60 127 c33 70 63 145 66 166
6 35 4 39 -14 39 -16 0 -20 -7 -20 -33z"/>
<path d="M9980 10755 c-11 -13 -11 -18 -2 -24 9 -6 9 -28 -3 -96 -9 -49 -18
-92 -21 -95 -3 -3 -33 -9 -67 -15 -76 -12 -73 -31 4 -27 l57 3 -15 -71 c-14
-70 -12 -107 6 -96 5 3 12 23 16 43 3 21 11 59 17 86 l10 47 44 0 c35 0 42 3
38 15 -4 9 -11 15 -18 14 -6 -1 -22 -1 -35 0 -21 1 -23 4 -17 34 7 32 24 135
29 172 3 25 -25 31 -43 10z"/>
<path d="M11105 10703 c-15 -38 -54 -127 -86 -200 -58 -128 -65 -168 -30 -161
10 2 15 12 14 25 -2 12 16 62 38 110 48 102 119 274 119 285 0 4 -6 8 -13 8
-8 0 -26 -30 -42 -67z"/>
<path d="M6536 10751 c-3 -5 -4 -15 -1 -23 3 -8 -1 -33 -10 -57 -8 -24 -13
-47 -10 -51 3 -5 1 -12 -5 -15 -14 -9 -45 -86 -42 -102 2 -7 -2 -13 -7 -13
-15 0 -53 -79 -47 -97 5 -11 20 -3 62 36 62 57 100 69 84 26 -5 -14 -6 -25 -3
-25 4 0 2 -5 -5 -12 -22 -22 -13 -45 21 -53 37 -10 46 -10 70 0 14 6 17 2 17
-24 0 -21 5 -31 15 -31 10 0 15 10 15 30 0 16 7 47 16 69 14 36 14 41 -2 66
-14 21 -22 25 -43 20 -14 -4 -36 -16 -48 -27 l-22 -21 2 28 c3 42 -22 52 -69
29 l-39 -19 43 107 c48 121 56 160 30 166 -9 2 -19 -1 -22 -7z m148 -300 c6
-9 -28 -43 -61 -60 -35 -18 -38 6 -4 39 29 30 55 38 65 21z"/>
<path d="M8566 10738 c-23 -79 -76 -228 -102 -284 -45 -100 -55 -139 -40 -160
17 -23 38 -9 30 21 -4 15 7 53 30 107 53 124 117 309 110 319 -8 13 -24 11
-28 -3z"/>
<path d="M6994 10713 c-3 -10 -23 -55 -45 -99 -44 -88 -52 -94 -140 -94 -21 0
-41 -4 -44 -10 -8 -13 37 -23 85 -18 22 2 40 3 40 2 0 -1 -9 -23 -20 -49 -27
-64 -26 -101 5 -121 30 -19 100 -11 109 13 9 22 6 23 -38 13 -56 -12 -69 -4
-61 37 10 57 46 122 69 125 12 2 20 9 19 16 -2 6 2 12 7 12 13 0 13 27 -1 32
-6 2 3 31 21 70 30 63 32 88 9 88 -5 0 -12 -8 -15 -17z"/>
<path d="M8390 10709 c-6 -11 -25 -66 -42 -122 -17 -56 -37 -115 -45 -132 -22
-43 -84 -105 -106 -105 -33 0 -15 42 33 78 40 30 63 62 45 62 -15 0 -53 -25
-87 -58 -83 -79 -11 -158 75 -83 46 41 81 109 112 221 15 52 33 105 41 117 8
12 14 27 14 33 0 18 -29 11 -40 -11z"/>
<path d="M12634 10653 l-40 -78 -51 -3 c-33 -2 -53 -8 -57 -17 -4 -12 4 -15
39 -15 25 0 45 -3 45 -6 0 -3 -13 -32 -30 -63 -42 -79 -44 -121 -7 -138 24
-11 67 0 67 17 0 5 -13 10 -30 10 -41 0 -40 25 7 116 l37 72 61 8 c43 7 60 13
60 24 0 8 -7 13 -15 12 -8 -2 -32 -6 -53 -9 l-39 -4 36 64 c39 69 43 87 23 87
-7 0 -31 -35 -53 -77z"/>
<path d="M6403 10713 c-7 -2 -10 -15 -7 -31 2 -15 -4 -54 -14 -87 l-18 -60
-67 -5 c-85 -6 -92 -24 -11 -28 l62 -3 -11 -35 c-6 -19 -21 -46 -35 -59 -20
-20 -22 -27 -12 -45 6 -12 16 -20 22 -18 5 2 23 38 40 80 23 57 36 78 51 80
27 4 33 26 9 30 -19 3 -19 4 -2 60 32 98 29 136 -7 121z"/>
<path d="M14053 10664 c-10 -16 -19 -53 -21 -90 -4 -56 -7 -64 -24 -64 -12 0
-40 -20 -64 -44 -69 -69 -58 -126 25 -126 41 0 59 29 78 132 23 127 44 186 66
192 26 6 12 26 -18 26 -15 0 -31 -10 -42 -26z m-39 -211 c-13 -56 -28 -78 -54
-78 -37 0 -35 25 6 68 43 44 57 47 48 10z"/>
<path d="M5185 10610 c-10 -11 -15 -23 -11 -27 8 -8 59 20 64 36 6 19 -34 12
-53 -9z"/>
<path d="M2792 10584 c2 -11 11 -20 22 -22 13 -3 17 1 14 14 -2 11 -11 20 -22
22 -13 3 -17 -1 -14 -14z"/>
<path d="M11696 10549 c-27 -18 -55 -48 -66 -69 -11 -21 -25 -40 -31 -42 -14
-5 26 -75 51 -88 21 -11 100 -13 124 -4 9 3 16 12 16 19 0 10 -15 12 -62 8
-52 -5 -63 -3 -75 12 -17 24 -17 35 2 35 43 0 135 82 135 121 0 24 -15 39 -39
39 -4 0 -29 -14 -55 -31z m55 -27 c-17 -32 -86 -80 -98 -68 -9 9 73 86 91 86
13 0 15 -4 7 -18z"/>
<path d="M13552 10562 c-32 -25 -62 -73 -62 -99 0 -29 31 -46 63 -34 21 8 24
7 20 -8 -5 -20 21 -46 37 -36 6 4 8 15 5 24 -3 10 3 37 13 60 18 39 18 44 4
76 -18 40 -44 45 -80 17z m48 -34 c0 -27 -37 -68 -62 -68 -26 0 -22 14 13 55
36 40 49 44 49 13z"/>
<path d="M4477 10540 c-79 -50 -114 -135 -65 -161 23 -13 73 -14 121 -3 20 4
27 12 27 28 0 13 -3 25 -6 28 -10 10 -44 -4 -44 -19 0 -22 -84 -14 -88 10 -3
14 4 17 36 17 33 0 45 6 71 35 17 20 31 42 31 50 0 11 -25 45 -34 45 -1 0 -23
-13 -49 -30z m23 -52 c-40 -32 -59 -20 -20 13 22 18 36 25 39 17 2 -6 -6 -20
-19 -30z"/>
<path d="M11956 10548 c-9 -12 -21 -48 -27 -80 -13 -66 -30 -95 -49 -83 -8 5
-11 24 -7 58 5 58 0 87 -18 87 -8 0 -12 -24 -13 -78 -2 -67 1 -82 18 -97 16
-15 25 -16 44 -7 24 10 31 27 65 151 10 35 36 49 61 33 17 -10 21 -10 27 4 14
38 -76 48 -101 12z"/>
<path d="M12813 10540 c-38 -23 -40 -37 -13 -82 23 -39 26 -68 6 -68 -19 0
-48 29 -41 41 4 5 -3 9 -14 9 -30 0 -27 -34 5 -59 71 -56 124 6 77 88 -23 39
-7 61 32 43 22 -10 25 -9 25 8 0 11 -9 24 -19 30 -25 13 -20 13 -58 -10z"/>
<path d="M3555 10507 c-72 -70 -49 -116 35 -72 30 15 30 15 30 -14 0 -16 4
-32 8 -35 12 -7 62 20 95 52 l27 26 0 -25 c0 -31 10 -45 38 -53 18 -6 22 -4
22 13 0 12 -6 21 -16 21 -12 0 -15 9 -12 37 2 30 -1 38 -15 41 -10 2 -25 -2
-34 -10 -15 -12 -15 -11 -4 10 6 12 9 27 6 32 -11 18 -32 -1 -44 -39 -6 -21
-18 -44 -26 -51 -14 -11 -14 -10 -5 14 13 34 13 56 0 56 -5 0 -31 -13 -56 -30
-26 -16 -50 -27 -53 -24 -8 7 60 63 77 64 6 0 12 7 12 15 0 28 -40 15 -85 -28z"/>
<path d="M9418 10530 c-26 -16 -92 -114 -79 -118 6 -2 11 -9 11 -16 0 -38 89
-67 141 -46 29 12 36 39 8 31 -32 -8 -89 -5 -100 6 -9 9 -1 17 32 33 59 30 79
49 79 75 0 34 -56 55 -92 35z m50 -28 c14 -9 -4 -30 -46 -52 -36 -18 -39 -3
-7 30 31 33 34 34 53 22z"/>
<path d="M10132 10503 c-35 -37 -62 -89 -62 -118 0 -8 10 -25 21 -36 18 -18
29 -20 64 -16 47 7 95 26 95 38 0 4 -17 5 -37 2 -85 -13 -98 -10 -101 21 -2
15 0 26 5 23 15 -10 111 40 123 63 9 18 8 25 -6 41 -27 30 -62 24 -102 -18z
m73 -3 c6 -9 -50 -50 -69 -50 -6 0 3 14 19 30 31 32 40 36 50 20z"/>
<path d="M10349 10538 c-1 -2 -3 -15 -5 -30 -1 -15 -12 -48 -23 -74 -12 -26
-21 -53 -21 -60 0 -29 27 -12 47 29 33 67 69 106 94 100 15 -4 20 -2 17 7 -8
25 -36 36 -58 22 -12 -7 -20 -8 -20 -2 0 8 -28 15 -31 8z"/>
<path d="M12110 10514 c-55 -47 -77 -117 -45 -144 26 -22 145 -11 145 14 0 9
-18 13 -61 12 -67 -1 -92 17 -40 29 34 7 81 50 81 74 0 20 -19 41 -36 41 -7 0
-26 -12 -44 -26z m26 -40 c-15 -14 -31 -22 -35 -19 -3 4 7 18 23 31 15 14 31
22 35 19 3 -4 -7 -18 -23 -31z"/>
<path d="M12364 10528 c-10 -6 -29 -20 -41 -31 -22 -19 -22 -19 -16 2 4 14 1
21 -9 21 -13 0 -68 -108 -68 -132 0 -19 23 -4 71 47 29 30 54 53 56 51 2 -2
-8 -29 -23 -60 -15 -31 -24 -60 -20 -63 11 -11 56 16 50 31 -3 8 6 37 20 65
14 28 26 55 26 60 0 15 -25 20 -46 9z"/>
<path d="M13692 10474 c-67 -105 -54 -122 39 -49 32 25 60 45 63 45 4 0 0 -12
-7 -27 -21 -41 -28 -81 -17 -88 12 -8 60 95 60 129 0 35 -30 34 -77 -1 l-35
-27 20 34 c20 31 21 50 3 50 -4 0 -26 -30 -49 -66z"/>
<path d="M2928 10514 c-33 -17 -34 -28 -8 -72 25 -41 25 -62 0 -62 -11 0 -20
7 -20 15 0 20 -29 19 -37 -1 -9 -24 25 -45 67 -42 30 3 35 7 38 32 2 16 -5 44
-15 63 -16 30 -16 35 -3 43 8 5 27 10 43 10 17 0 27 5 27 15 0 20 -55 19 -92
-1z"/>
<path d="M4705 10520 c-10 -17 -46 -33 -43 -19 2 6 -2 13 -9 16 -14 5 -67 -93
-58 -107 10 -15 19 -12 51 18 16 15 37 33 46 41 16 12 17 11 12 -17 -5 -23 -1
-35 16 -52 28 -28 53 -11 27 18 -13 15 -15 25 -7 53 6 18 10 40 10 46 0 15
-36 17 -45 3z"/>
<path d="M7828 10480 c-45 -45 -49 -83 -9 -88 13 -2 28 1 34 7 17 17 27 13 27
-10 0 -12 5 -19 13 -17 15 5 43 109 34 131 -12 30 -56 20 -99 -23z m72 1 c0
-14 -69 -65 -77 -58 -7 7 54 67 68 67 5 0 9 -4 9 -9z"/>
<path d="M8830 10510 c-12 -8 -13 -15 -2 -52 21 -71 23 -82 13 -97 -8 -12 -13
-12 -36 3 -20 13 -24 20 -15 31 15 18 -6 31 -25 15 -32 -26 -10 -67 47 -89 15
-6 34 -8 42 -5 22 9 29 84 11 127 -14 34 -14 38 1 44 9 3 26 1 37 -6 26 -17
46 1 27 24 -14 17 -76 20 -100 5z"/>
<path d="M10548 10491 c-18 -15 -38 -26 -45 -24 -6 2 -15 -6 -18 -19 -4 -13
-16 -35 -26 -50 -22 -31 -24 -48 -5 -48 7 0 26 18 41 41 28 39 84 93 91 87 2
-2 -3 -22 -11 -43 -8 -22 -14 -48 -15 -57 0 -29 29 -21 36 10 3 15 12 44 20
66 11 29 12 41 3 52 -17 21 -35 17 -71 -15z"/>
<path d="M8066 10489 c-26 -21 -28 -21 -41 -3 -12 18 -14 17 -25 -11 -7 -17
-21 -46 -31 -66 -23 -45 -23 -49 -1 -49 10 0 25 11 32 25 7 14 34 41 59 61 54
42 63 31 36 -41 -17 -43 -14 -88 4 -69 5 5 19 39 31 76 18 55 20 71 10 83 -17
21 -43 19 -74 -6z"/>
<path d="M10737 10492 c-37 -25 -56 -52 -57 -79 0 -28 38 -40 71 -22 15 7 24
8 26 2 8 -24 31 -45 42 -39 8 5 8 13 0 27 -7 15 -7 29 0 51 14 39 14 38 -3 38
-8 0 -13 8 -12 17 2 25 -33 27 -67 5z m51 -34 c-5 -14 -69 -50 -77 -43 -2 3 6
16 19 30 24 26 65 35 58 13z"/>
<path d="M5599 10457 c-20 -23 -41 -52 -48 -65 -14 -27 -31 -20 -31 12 0 32
-25 64 -40 50 -8 -8 -9 -18 -2 -30 5 -11 14 -38 19 -62 10 -42 9 -43 -53 -132
-57 -81 -104 -160 -104 -175 0 -3 7 -5 15 -5 8 0 24 18 35 40 11 22 48 80 83
129 34 49 79 115 99 148 21 32 48 70 60 86 14 18 19 30 12 37 -7 7 -22 -5 -45
-33z"/>
<path d="M8565 10463 c-55 -60 -54 -109 4 -133 49 -20 161 4 136 29 -6 6 -29
6 -63 -1 -45 -9 -56 -9 -70 5 -18 19 -14 26 16 32 36 6 61 25 76 53 19 37 10
52 -30 52 -28 0 -42 -8 -69 -37z m61 -12 c-10 -10 -27 -21 -38 -24 -19 -5 -19
-5 3 19 28 30 62 35 35 5z"/>
<path d="M2753 10473 c-3 -10 -17 -42 -29 -71 -20 -45 -21 -54 -8 -59 8 -3 16
-4 18 -2 7 11 46 123 46 135 0 20 -19 17 -27 -3z"/>
<path d="M9584 10468 c-4 -6 4 -19 19 -30 34 -25 34 -33 -3 -55 -29 -17 -41
-43 -19 -43 6 0 24 9 41 21 16 12 31 20 32 18 2 -2 11 -19 20 -36 9 -18 21
-33 26 -33 20 0 19 20 -1 55 l-22 36 21 15 c30 21 52 44 52 55 0 15 -20 10
-53 -15 -18 -13 -40 -23 -49 -23 -10 0 -16 3 -13 5 6 6 -25 42 -36 42 -4 0
-11 -5 -15 -12z"/>
<path d="M5080 10430 c-22 -42 -25 -66 -11 -74 5 -3 21 18 35 48 30 62 31 66
11 66 -8 0 -24 -18 -35 -40z"/>
<path d="M3820 10405 c0 -8 5 -15 10 -15 6 0 10 7 10 15 0 8 -4 15 -10 15 -5
0 -10 -7 -10 -15z"/>
<path d="M12531 10195 c-41 -86 -54 -105 -75 -110 -14 -3 -38 -7 -52 -10 -39
-9 -23 -30 20 -27 l37 3 -16 -30 c-19 -38 -20 -95 -1 -110 27 -23 106 -12 106
14 0 12 -9 13 -45 8 -42 -5 -45 -4 -45 18 0 13 8 43 18 66 16 39 20 43 62 48
25 4 51 7 59 8 8 1 16 8 19 16 4 11 -6 13 -47 9 -28 -3 -51 -4 -51 -2 0 2 20
45 45 96 50 103 51 108 30 108 -9 0 -34 -41 -64 -105z"/>
<path d="M6056 10258 c-3 -7 -7 -26 -10 -43 -3 -16 -25 -87 -48 -157 -23 -70
-39 -131 -35 -134 3 -4 32 16 62 45 82 74 103 69 65 -15 -19 -41 -20 -64 -1
-64 9 0 51 99 51 121 0 41 -46 50 -91 18 -16 -11 -29 -17 -29 -13 0 4 13 48
29 98 37 115 42 156 21 156 -6 0 -12 -6 -14 -12z"/>
<path d="M3729 10243 c-1 -5 -1 -15 0 -23 0 -8 -8 -42 -18 -75 -18 -58 -20
-60 -57 -65 -27 -3 -40 -11 -42 -23 -3 -16 1 -17 32 -11 20 3 36 3 36 0 0 -4
-13 -33 -30 -66 -33 -65 -38 -100 -15 -100 8 0 15 6 15 13 0 6 14 44 32 84 31
68 35 72 75 83 52 13 56 30 8 30 -40 0 -40 2 -20 60 8 23 15 55 15 71 0 19 -5
29 -15 29 -8 0 -16 -3 -16 -7z"/>
<path d="M5924 10233 c-10 -33 -24 -58 -68 -128 -38 -61 -47 -70 -70 -67 -32
3 -36 -23 -6 -33 16 -5 19 -12 13 -28 -25 -75 25 -126 106 -109 53 11 51 32
-2 32 -64 0 -77 7 -77 42 0 53 15 68 68 68 52 0 104 26 81 41 -7 4 -21 3 -30
-2 -22 -11 -79 -12 -79 -1 0 5 20 40 44 78 52 81 67 124 42 124 -9 0 -19 -8
-22 -17z"/>
<path d="M7710 10235 c0 -9 -14 -51 -30 -95 -27 -69 -34 -79 -58 -82 -30 -3
-39 -34 -9 -31 20 1 20 3 -9 -79 -16 -47 -14 -78 6 -78 5 0 12 17 16 38 3 20
16 57 27 82 25 51 60 63 102 36 45 -30 62 -13 25 24 -13 13 -33 20 -56 20 -41
0 -41 -7 0 101 14 37 22 70 19 73 -12 12 -33 6 -33 -9z"/>
<path d="M9367 10187 c-13 -29 -39 -90 -57 -135 -18 -45 -37 -82 -42 -82 -6 0
-5 7 2 15 21 25 -3 40 -24 16 -16 -17 -16 -24 -5 -58 26 -77 76 -90 146 -36
41 30 51 65 28 99 -14 22 -22 25 -50 21 -39 -6 -40 -11 14 107 33 73 37 91 22
101 -5 3 -20 -19 -34 -48z m27 -202 c12 -31 -25 -69 -74 -77 -36 -5 -35 19 3
57 37 37 61 44 71 20z"/>
<path d="M9104 10203 c-4 -15 -27 -81 -51 -146 -48 -131 -53 -160 -25 -155 11
2 19 16 24 43 3 22 22 83 42 135 20 52 37 106 38 119 4 34 -20 38 -28 4z"/>
<path d="M9206 10223 c-3 -4 -6 -13 -6 -22 0 -9 -25 -70 -55 -136 -30 -65 -55
-132 -55 -147 0 -40 27 -36 33 5 2 17 27 82 54 142 59 128 66 152 48 159 -7 2
-16 2 -19 -1z"/>
<path d="M9966 10168 c-8 -24 -31 -88 -51 -142 -39 -107 -42 -149 -11 -154 16
-3 18 1 13 24 -6 33 1 54 17 54 6 0 19 9 29 20 25 30 106 28 136 -3 18 -20 20
-28 11 -51 -13 -35 -13 -36 5 -36 15 0 35 37 35 66 0 26 -56 74 -87 75 -26 0
-26 1 -9 12 15 9 154 100 175 114 2 1 1 9 -3 18 -5 14 -14 11 -58 -21 -100
-71 -231 -146 -223 -127 4 10 15 41 25 69 10 28 24 60 30 71 14 21 8 53 -9 53
-5 0 -16 -19 -25 -42z"/>
<path d="M11186 10184 c-9 -24 -7 -54 4 -54 10 0 30 41 30 61 0 15 -27 10 -34
-7z"/>
<path d="M7275 10150 c-3 -5 -4 -14 -1 -19 7 -10 37 -8 36 2 0 4 0 12 0 17 0
6 -6 10 -14 10 -8 0 -18 -4 -21 -10z"/>
<path d="M12743 10144 c-8 -22 15 -43 27 -24 5 8 10 21 10 28 0 17 -30 15 -37
-4z"/>
<path d="M3066 10121 c-3 -4 -8 -47 -10 -94 -3 -48 -9 -94 -14 -102 -15 -27
-36 11 -42 74 -4 41 -9 56 -20 56 -12 0 -14 -11 -11 -55 4 -64 23 -106 51
-115 44 -14 70 43 70 153 0 34 4 62 8 62 5 0 30 -6 55 -14 44 -13 66 -8 53 13
-6 10 -85 31 -115 31 -11 0 -22 -4 -25 -9z"/>
<path d="M13302 10120 c-57 -13 -60 -23 -24 -95 18 -36 32 -72 32 -80 0 -20
-36 -38 -61 -30 -29 10 -54 52 -40 68 12 15 5 27 -15 27 -21 0 -27 -45 -10
-78 27 -52 101 -66 140 -26 23 22 20 57 -9 114 -34 68 -33 74 15 67 45 -6 63
9 35 30 -11 7 -21 13 -24 12 -3 -1 -21 -5 -39 -9z"/>
<path d="M11635 10089 c-20 -18 -43 -45 -52 -62 -12 -23 -17 -27 -24 -16 -5 8
-9 27 -9 42 0 19 -4 27 -12 24 -13 -4 -15 -79 -3 -145 8 -43 38 -41 43 3 5 47
73 140 101 140 31 0 38 21 12 34 -17 9 -26 6 -56 -20z"/>
<path d="M2324 10067 c-35 -35 -44 -51 -44 -78 1 -57 39 -89 109 -89 46 0 93
18 88 34 -3 6 -11 9 -18 7 -51 -13 -101 -12 -124 3 -30 20 -32 48 -4 87 28 40
56 54 75 38 19 -16 31 -3 18 19 -21 33 -53 26 -100 -21z"/>
<path d="M8710 10087 c-30 -15 -70 -82 -70 -119 0 -40 44 -71 90 -63 40 7 55
19 46 34 -4 7 -16 7 -36 0 -33 -12 -70 2 -70 27 0 19 29 77 44 86 23 16 46 8
52 -17 9 -34 30 -25 27 11 -2 28 -25 54 -47 54 -6 0 -22 -6 -36 -13z"/>
<path d="M12013 10080 c-106 -47 -88 -147 26 -153 39 -2 44 0 46 21 2 30 -11
37 -41 22 -27 -15 -74 0 -74 22 1 35 57 72 95 62 19 -5 25 -2 25 10 0 29 -33
36 -77 16z"/>
<path d="M2802 10065 c-28 -23 -30 -23 -25 -5 7 26 -25 28 -33 3 -3 -10 -13
-35 -21 -55 -9 -20 -13 -44 -9 -53 5 -14 15 -7 52 34 53 59 92 86 79 55 -15
-37 -23 -99 -14 -108 13 -14 19 -4 35 64 11 47 12 66 3 76 -17 20 -34 17 -67
-11z"/>
<path d="M13062 10058 c-30 -31 -32 -31 -32 -10 0 34 -27 26 -34 -10 -4 -18
-18 -50 -32 -71 -20 -30 -23 -42 -14 -51 9 -8 27 6 76 58 35 37 62 71 60 75
-3 4 4 7 13 7 18 0 18 -2 0 -53 -10 -30 -16 -60 -12 -68 8 -24 33 -18 33 8 0
13 7 45 16 70 9 26 13 54 10 62 -9 25 -50 17 -84 -17z"/>
<path d="M2556 10050 c-34 -40 -34 -84 -2 -105 24 -16 68 -13 94 8 29 23 -5
119 -45 125 -13 2 -30 -8 -47 -28z m59 -30 c24 -27 13 -50 -25 -50 -32 0 -38
16 -20 51 13 24 22 24 45 -1z"/>
<path d="M11313 10055 c-24 -13 -43 -20 -43 -14 0 5 -7 9 -15 9 -8 0 -15 -6
-15 -14 0 -7 -11 -34 -25 -60 -14 -26 -25 -51 -25 -57 0 -21 30 -7 47 22 18
29 98 99 115 99 14 0 9 -29 -12 -70 -22 -43 -25 -66 -11 -75 10 -5 45 62 62
119 9 31 -3 66 -24 66 -7 0 -31 -11 -54 -25z"/>
<path d="M11743 10070 c-29 -12 -63 -67 -63 -102 0 -38 26 -49 75 -32 64 22
91 75 65 125 -11 20 -40 24 -77 9z m57 -50 c0 -22 -45 -60 -71 -60 -23 0 -24
12 -4 50 21 42 75 49 75 10z"/>
<path d="M12190 10029 c-43 -54 -47 -75 -18 -93 13 -7 26 -6 52 6 l35 17 3
-26 c2 -15 8 -28 15 -30 15 -5 23 108 9 122 -6 6 -12 17 -14 25 -4 15 -20 30
-34 30 -4 0 -26 -23 -48 -51z m45 2 c-3 -6 2 -14 12 -19 15 -9 12 -13 -18 -31
-41 -25 -49 -13 -18 29 21 28 38 42 24 21z"/>
<path d="M12835 10070 c3 -6 -10 -25 -29 -44 -58 -54 -42 -116 30 -116 63 0
92 58 62 127 -7 15 -17 31 -23 35 -15 11 -47 9 -40 -2z m41 -67 c9 -35 -7 -58
-42 -58 -38 0 -42 24 -8 58 33 34 42 34 50 0z"/>
<path d="M3490 10057 c-26 -20 -81 -108 -87 -138 -9 -48 19 -35 44 19 34 75
61 104 92 100 18 -2 26 2 26 12 0 19 -54 25 -75 7z"/>
<path d="M3892 10044 c-27 -19 -28 -34 -3 -79 18 -35 18 -75 -1 -75 -5 0 -20
11 -34 25 -28 28 -44 32 -44 10 0 -34 69 -75 104 -62 8 3 18 22 21 41 6 27 2
44 -15 72 -19 30 -20 38 -9 45 8 5 26 6 42 3 23 -5 27 -2 27 15 0 17 -6 21
-33 21 -18 0 -43 -7 -55 -16z"/>
<path d="M3243 10038 c-26 -12 -53 -65 -53 -102 0 -32 32 -66 63 -66 58 0 148
43 129 62 -8 8 -18 6 -35 -5 -35 -23 -94 -32 -112 -17 -24 20 -17 38 19 50 46
15 73 46 60 68 -13 21 -41 25 -71 10z m27 -38 c-24 -15 -37 -11 -16 5 11 8 22
12 25 9 3 -3 -1 -9 -9 -14z"/>
<path d="M6223 10025 c-38 -30 -59 -85 -44 -113 14 -27 34 -33 87 -25 47 6 65
20 44 33 -10 6 -9 9 1 13 10 4 9 6 -3 6 -10 1 -18 -3 -18 -8 0 -12 -63 -21
-74 -10 -5 5 10 17 38 28 50 22 70 53 54 84 -12 24 -48 21 -85 -8z m55 -17
c-5 -13 -68 -54 -68 -44 0 8 54 56 63 56 5 0 7 -6 5 -12z"/>
<path d="M7864 10042 c-5 -4 -24 -24 -42 -45 -59 -70 -32 -120 49 -92 53 19
79 42 79 70 0 34 -63 83 -86 67z m46 -47 c7 -8 10 -21 7 -29 -6 -16 -83 -43
-93 -33 -8 8 47 75 62 76 6 1 17 -6 24 -14z"/>
<path d="M8871 10015 c-39 -44 -33 -70 15 -62 27 5 33 2 32 -11 -3 -35 2 -52
16 -52 9 0 16 19 20 61 6 50 4 64 -10 80 -24 27 -38 24 -73 -16z m48 -16 c-22
-14 -33 -10 -19 6 7 8 17 12 22 9 6 -4 5 -10 -3 -15z"/>
<path d="M11112 9990 c-23 -59 -26 -89 -8 -93 8 -2 56 115 56 139 0 35 -27 8
-48 -46z"/>
<path d="M6394 9983 c-29 -65 -41 -113 -28 -113 4 0 25 17 47 38 21 20 35 30
32 21 -11 -29 13 -31 55 -4 37 23 40 24 40 6 0 -26 25 -44 50 -36 24 8 21 31
-4 27 -12 -2 -16 5 -16 33 0 39 -13 44 -49 19 -22 -16 -23 -16 -12 4 26 50 -8
58 -60 15 -32 -27 -33 -27 -16 -3 21 30 22 50 2 50 -9 0 -26 -24 -41 -57z"/>
<path d="M12682 10033 c-10 -4 -10 -8 0 -21 7 -10 8 -14 3 -9 -11 9 -57 -72
-51 -90 10 -25 22 -13 51 47 28 58 27 84 -3 73z"/>
<path d="M7221 9983 c-35 -55 -37 -66 -16 -87 18 -17 40 -12 72 17 29 26 18
43 -14 22 -36 -24 -45 -14 -22 23 12 18 29 32 41 32 27 0 19 34 -9 38 -17 3
-29 -8 -52 -45z"/>
<path d="M7460 10022 c-8 -3 -27 -13 -41 -23 -23 -16 -28 -17 -33 -4 -3 8 -14
15 -25 15 -17 0 -19 -5 -14 -33 3 -23 0 -37 -11 -46 -16 -14 -22 -51 -8 -51 4
0 34 25 66 55 32 30 62 55 67 55 12 0 11 -27 -2 -52 -9 -16 -8 -24 5 -36 21
-21 25 -15 32 55 7 62 -1 77 -36 65z"/>
<path d="M9750 10006 c-38 -26 -80 -77 -80 -99 0 -36 70 -50 125 -25 26 12 29
36 4 29 -37 -10 -99 -13 -99 -4 0 13 71 79 93 87 19 6 19 27 1 33 -5 2 -25 -8
-44 -21z"/>
<path d="M9502 9974 c-46 -39 -53 -67 -22 -84 14 -8 29 -7 56 5 44 18 44 18
44 2 0 -25 26 -51 45 -43 17 6 17 7 0 26 -14 16 -15 24 -7 50 29 82 -41 109
-116 44z m88 -4 c0 -15 -61 -50 -85 -50 -17 1 -15 5 15 30 34 30 70 40 70 20z"/>
<path d="M13470 9879 c0 -24 23 -21 28 4 2 10 -3 17 -12 17 -10 0 -16 -9 -16
-21z"/>
<path d="M8440 9704 c0 -27 28 -30 165 -22 120 7 1669 3 1764 -4 20 -2 36 2
38 9 2 6 -4 12 -14 13 -10 0 -83 5 -163 10 -219 14 -1790 9 -1790 -6z"/>
<path d="M8426 9551 c-4 -5 -2 -12 3 -15 4 -3 213 -8 462 -11 250 -2 482 -8
517 -11 35 -4 313 -3 618 1 443 6 554 10 554 20 0 7 -4 15 -10 17 -5 2 -182
-1 -392 -5 -211 -4 -513 -5 -673 -2 -655 14 -1073 16 -1079 6z"/>
<path d="M12187 9483 c-3 -5 -8 -28 -11 -53 -4 -25 -24 -90 -45 -145 l-38
-100 -68 -8 c-38 -4 -75 -12 -82 -19 -23 -19 3 -25 62 -15 30 6 58 7 62 4 3
-4 -6 -37 -20 -75 -15 -37 -27 -76 -27 -86 0 -39 24 -6 57 81 l35 92 49 3 c61
4 69 22 11 26 -29 2 -42 7 -38 15 2 7 20 59 39 117 34 100 41 130 38 158 -1
13 -17 16 -24 5z"/>
<path d="M2326 9461 c-4 -5 -3 -16 0 -25 3 -8 -11 -107 -32 -220 -20 -112 -34
-211 -31 -220 4 -9 14 -16 22 -16 13 0 15 6 11 28 -4 15 7 94 24 177 40 202
48 285 27 285 -9 0 -18 -4 -21 -9z"/>
<path d="M6962 9445 c-44 -37 -77 -98 -117 -221 -20 -60 -45 -116 -55 -125
-11 -9 -17 -19 -15 -21 3 -3 -5 -4 -18 -3 -31 3 -47 -5 -47 -21 0 -17 10 -17
45 -4 24 9 26 8 20 -7 -16 -39 -17 -63 -3 -63 8 0 21 19 29 43 12 32 25 46 52
60 42 20 50 43 12 33 -14 -4 -25 -5 -25 -3 0 15 64 187 85 229 41 81 75 112
75 68 0 -27 19 -25 29 3 10 25 -3 57 -24 57 -7 0 -27 -11 -43 -25z"/>
<path d="M5270 9448 c-1 -1 -2 -28 -4 -58 -2 -32 -24 -118 -54 -209 -29 -84
-52 -158 -52 -162 0 -23 29 -6 39 23 21 60 87 128 110 114 5 -3 2 -33 -7 -65
-13 -49 -14 -62 -3 -75 16 -19 34 -11 27 12 -3 10 1 39 9 66 8 28 13 58 9 68
-8 27 -49 33 -81 13 -25 -17 -26 -17 -19 0 47 124 67 263 39 273 -7 2 -13 2
-13 0z"/>
<path d="M7646 9442 c-2 -4 -1 -14 4 -21 4 -8 4 -27 -1 -44 -5 -16 -6 -34 -3
-38 3 -5 1 -9 -4 -9 -5 0 -14 -19 -21 -42 -7 -24 -27 -69 -44 -101 l-32 -58
-50 2 c-74 2 -85 0 -85 -16 0 -12 13 -15 59 -15 l58 0 -17 -52 c-17 -50 -13
-77 8 -64 5 3 13 18 16 33 16 68 27 83 61 83 32 0 64 23 48 33 -5 3 -21 4 -35
3 l-26 -3 34 66 c37 72 77 212 68 236 -7 16 -30 20 -38 7z"/>
<path d="M15131 9369 c-22 -46 -48 -105 -59 -131 -18 -42 -24 -47 -62 -55 -50
-10 -57 -27 -13 -31 l31 -3 -20 -46 c-14 -32 -17 -48 -9 -56 13 -13 13 -14 43
54 l26 56 66 7 c36 4 69 12 72 18 8 12 -14 28 -30 22 -7 -3 -29 -6 -49 -7 -45
-4 -45 -5 21 136 34 73 42 101 34 109 -8 8 -21 -10 -51 -73z"/>
<path d="M5120 9428 c0 -7 -14 -48 -32 -91 -28 -68 -35 -78 -65 -86 -18 -5
-42 -7 -53 -4 -14 4 -20 0 -20 -11 0 -12 10 -16 44 -16 l45 0 -20 -67 c-24
-86 -24 -118 1 -143 25 -25 31 -25 64 1 32 25 21 49 -13 28 -35 -23 -45 -1
-31 67 19 93 34 122 66 126 35 4 43 26 11 30 l-25 3 29 70 c32 79 36 105 14
105 -8 0 -15 -6 -15 -12z"/>
<path d="M6548 9416 c-15 -16 -30 -51 -42 -98 -46 -182 -45 -180 -77 -173 -16
4 -37 4 -48 0 -41 -13 -87 -126 -70 -173 15 -39 75 -23 121 33 26 31 54 108
88 245 24 96 37 130 56 148 14 12 22 27 19 32 -10 15 -20 12 -47 -14z m-100
-312 c2 -1 -6 -20 -17 -42 -20 -39 -64 -82 -84 -82 -17 0 0 79 24 115 21 30
25 32 48 22 14 -6 27 -12 29 -13z"/>
<path d="M2175 9400 c-13 -25 -13 -31 -2 -36 11 -4 11 -18 -3 -82 -16 -75 -17
-77 -46 -77 -38 0 -40 -29 -2 -33 l27 -3 -15 -49 c-18 -62 -21 -117 -6 -132
14 -14 19 -2 25 62 3 25 9 61 14 80 8 33 11 35 51 35 54 0 58 18 6 29 l-41 8
14 62 c8 33 17 85 20 114 5 43 3 52 -11 52 -8 0 -23 -14 -31 -30z"/>
<path d="M11557 9424 c-4 -4 -7 -19 -8 -33 0 -14 -15 -73 -33 -131 l-32 -105
-90 -1 c-68 -1 -89 -5 -89 -15 0 -11 21 -15 83 -17 75 -3 83 -5 77 -20 -32
-79 -46 -135 -36 -145 11 -11 16 -1 55 106 10 26 21 47 26 47 5 0 8 12 8 28 0
15 13 71 31 125 17 53 32 111 33 128 3 30 -10 47 -25 33z"/>
<path d="M9588 9343 c-31 -43 -80 -103 -108 -133 -27 -30 -50 -57 -50 -61 0
-4 -25 -30 -56 -59 -43 -39 -54 -54 -45 -63 8 -8 26 4 74 50 59 58 65 61 124
68 l61 7 -16 -62 c-14 -52 -15 -62 -2 -70 11 -7 17 4 31 53 9 34 28 105 42
157 14 52 27 115 29 140 5 69 -18 62 -84 -27z m37 -65 c-9 -40 -19 -78 -23
-84 -4 -6 -31 -14 -61 -18 l-55 -7 37 43 c21 24 54 66 75 94 20 29 39 50 40
49 2 -2 -4 -36 -13 -77z"/>
<path d="M10200 9391 c0 -16 -25 -101 -55 -187 -30 -87 -55 -171 -55 -187 0
-41 23 -29 32 18 5 21 31 102 59 181 49 138 58 193 32 202 -9 2 -13 -7 -13
-27z"/>
<path d="M11669 9408 c0 -2 -2 -31 -4 -66 -4 -68 -41 -208 -82 -310 -18 -46
-22 -67 -14 -75 13 -13 10 -16 49 54 17 30 40 63 51 73 20 18 20 17 18 -24 -3
-67 20 -62 29 6 8 65 -5 83 -43 58 -27 -17 -28 -14 -7 57 28 92 44 202 32 216
-9 11 -27 18 -29 11z"/>
<path d="M13313 9322 c-18 -37 -43 -93 -57 -124 -14 -32 -30 -58 -35 -58 -6 0
-11 -8 -11 -18 0 -10 -3 -22 -7 -26 -5 -4 -9 -17 -10 -29 -1 -12 -5 -41 -9
-64 -5 -36 -4 -43 10 -43 10 0 16 8 16 24 0 42 29 95 67 121 84 56 125 15 93
-95 -6 -22 -6 -38 0 -44 19 -19 31 10 37 85 5 65 3 76 -15 92 -19 18 -19 19
42 75 69 65 76 72 76 90 0 23 -19 12 -61 -33 -49 -53 -124 -110 -156 -117
l-22 -6 19 47 c10 25 33 74 50 108 28 56 32 83 12 83 -4 0 -21 -30 -39 -68z"/>
<path d="M3636 9327 c-14 -10 -16 -16 -7 -21 17 -11 63 2 58 17 -6 18 -30 20
-51 4z"/>
<path d="M12941 9296 c-7 -8 -8 -16 -4 -19 15 -9 63 5 63 19 0 18 -44 18 -59
0z"/>
<path d="M7397 9268 c-10 -5 -15 -13 -12 -19 9 -14 42 -11 48 5 7 18 -14 27
-36 14z"/>
<path d="M7830 9265 c0 -8 7 -15 15 -15 8 0 15 7 15 15 0 8 -7 15 -15 15 -8 0
-15 -7 -15 -15z"/>
<path d="M7050 9254 c0 -10 7 -14 22 -12 22 3 39 28 18 28 -6 0 -8 -6 -4 -12
6 -10 4 -10 -7 0 -18 16 -29 15 -29 -4z"/>
<path d="M8833 9227 c-13 -5 -23 -16 -23 -24 0 -18 35 -17 50 2 18 22 0 35
-27 22z"/>
<path d="M2391 9211 c-40 -40 -35 -146 9 -186 34 -31 147 -1 126 33 -4 7 -16
6 -34 -4 -38 -19 -69 -18 -82 5 -16 30 -12 51 9 51 25 0 61 45 61 76 0 42 -56
58 -89 25z m54 -21 c10 -16 -14 -50 -35 -50 -14 0 -18 5 -13 18 13 37 35 52
48 32z"/>
<path d="M2596 9218 c-13 -47 -27 -151 -22 -164 12 -32 31 -6 41 57 l10 64 38
-1 c30 -1 37 2 37 17 0 19 -8 23 -47 20 -11 -1 -24 3 -28 8 -9 15 -25 14 -29
-1z"/>
<path d="M3797 9212 c-24 -26 -21 -53 8 -92 27 -37 33 -80 11 -80 -8 0 -23 12
-34 28 -16 21 -23 24 -33 15 -9 -9 -4 -20 24 -47 39 -40 45 -42 71 -23 26 19
23 70 -7 117 -15 22 -27 44 -27 49 0 15 41 24 53 12 15 -15 47 -14 47 2 0 16
-42 37 -74 37 -13 0 -30 -8 -39 -18z"/>
<path d="M10654 9204 c-21 -15 -41 -30 -44 -33 -3 -4 -12 -10 -21 -13 -8 -3
-27 -41 -41 -84 -15 -44 -38 -107 -53 -142 -25 -59 -26 -82 -4 -82 10 0 52 89
70 149 10 35 12 36 50 33 54 -6 96 14 130 61 36 50 39 99 7 121 -31 22 -49 20
-94 -10z m70 -10 c29 -11 18 -54 -23 -95 -31 -31 -46 -39 -75 -39 -26 0 -36 4
-36 16 0 22 50 84 85 106 35 21 29 20 49 12z"/>
<path d="M12658 9195 c-24 -19 -50 -38 -59 -41 -10 -3 -26 -34 -39 -72 -12
-37 -39 -102 -61 -146 -41 -83 -47 -106 -26 -106 12 0 97 157 97 179 0 6 14
11 31 11 38 0 64 13 107 54 57 53 78 116 50 144 -21 21 -55 13 -100 -23z m82
-14 c0 -44 -87 -131 -131 -131 -27 0 -23 21 11 66 16 21 30 45 30 52 0 7 4 10
10 7 5 -3 20 1 32 9 30 21 48 20 48 -3z"/>
<path d="M3600 9200 c-12 -12 -35 -51 -51 -87 -22 -46 -39 -70 -64 -85 -19
-11 -35 -24 -35 -29 0 -14 34 -10 58 7 21 15 25 15 41 0 22 -20 81 -21 106 -2
18 13 18 14 -3 20 -12 4 -27 4 -32 1 -15 -9 -60 3 -60 16 0 5 17 36 38 67 48
72 54 88 37 102 -11 9 -19 6 -35 -10z"/>
<path d="M2761 9173 c-43 -52 -43 -103 -1 -145 29 -29 34 -30 83 -24 54 8 84
23 70 37 -5 5 -24 4 -43 -1 -50 -14 -68 -12 -90 10 -23 23 -27 52 -7 44 17 -6
59 10 80 31 23 22 21 62 -2 75 -35 18 -59 11 -90 -27z m75 -5 c9 -14 -31 -48
-57 -48 -19 0 -19 1 3 30 23 31 42 38 54 18z"/>
<path d="M13588 9188 c-35 -12 -43 -49 -22 -104 21 -56 10 -73 -34 -50 -17 9
-35 23 -40 32 -5 9 -14 14 -20 10 -20 -12 9 -56 47 -72 72 -30 108 10 78 87
-21 54 -13 71 31 67 20 -2 37 2 39 8 6 18 -48 32 -79 22z"/>
<path d="M4426 9159 c-55 -64 -42 -115 26 -106 34 5 39 2 44 -19 9 -34 35 -31
33 4 -1 15 1 42 5 60 9 40 -3 41 -48 7 -31 -23 -66 -33 -66 -19 0 8 40 74 45
74 2 0 15 -4 28 -9 32 -12 42 -3 20 21 -24 27 -58 22 -87 -13z"/>
<path d="M4654 9175 c-10 -8 -26 -15 -35 -15 -11 0 -22 -18 -33 -51 -22 -67
-7 -86 24 -31 13 22 36 50 51 61 28 21 29 21 29 2 0 -11 -4 -30 -9 -43 -16
-43 -17 -83 -2 -83 19 0 53 133 40 157 -12 22 -38 23 -65 3z"/>
<path d="M14185 9176 c-133 -60 -108 -233 32 -220 49 4 63 10 63 26 0 7 -16 8
-45 4 -44 -7 -81 4 -97 28 -13 20 -9 25 31 36 52 14 93 62 89 104 -4 36 -26
43 -73 22z m40 -38 c-9 -31 -42 -58 -72 -58 -24 0 -24 0 -8 28 28 46 92 70 80
30z"/>
<path d="M4799 9141 c-66 -66 -46 -132 36 -117 20 4 44 19 59 37 30 36 30 36
11 83 -21 50 -54 49 -106 -3z m75 -17 c12 -30 6 -44 -25 -59 -57 -30 -80 5
-34 50 28 29 50 32 59 9z"/>
<path d="M5443 9170 c-27 -11 -53 -59 -53 -99 0 -17 10 -42 24 -58 19 -22 31
-27 64 -26 48 2 85 19 79 36 -3 7 -11 10 -18 8 -8 -3 -33 -6 -56 -9 -35 -3
-43 0 -53 18 -6 12 -10 23 -8 24 2 1 23 8 48 16 46 16 70 50 57 84 -7 18 -48
20 -84 6z m57 -29 c0 -16 -41 -40 -58 -34 -12 5 -11 9 8 25 24 19 50 24 50 9z"/>
<path d="M6581 9160 c-25 -12 -49 -33 -62 -55 -12 -19 -25 -35 -30 -35 -5 0
-9 -7 -9 -15 0 -8 3 -15 8 -15 4 0 15 -14 24 -30 9 -17 29 -35 44 -40 45 -18
137 11 121 37 -5 7 -20 6 -47 -3 -43 -15 -83 -7 -93 20 -4 10 4 18 29 26 58
19 109 108 71 123 -8 3 -33 -3 -56 -13z m29 -28 c0 -14 -40 -52 -55 -52 -22 0
-7 28 24 45 31 17 31 17 31 7z"/>
<path d="M5662 9146 c-13 -17 -22 -22 -29 -15 -19 19 -36 -20 -41 -92 -6 -92
11 -90 50 7 28 70 52 99 72 86 14 -8 36 -12 36 -5 0 2 -5 13 -10 24 -15 27
-55 24 -78 -5z"/>
<path d="M10242 9138 c-44 -71 -36 -128 16 -128 75 0 114 97 58 142 -31 26
-52 22 -74 -14z m68 -40 c0 -38 -49 -75 -64 -49 -10 15 15 70 32 74 24 5 32
-1 32 -25z"/>
<path d="M12842 9158 c-5 -7 -13 -23 -16 -35 -4 -11 -13 -27 -21 -33 -18 -15
-20 -50 -2 -50 7 0 18 12 24 28 16 37 35 65 51 75 6 4 12 12 12 17 0 14 -36
12 -48 -2z"/>
<path d="M14462 9153 c-6 -10 -17 -43 -26 -73 -24 -81 -30 -88 -56 -65 -11 10
-26 38 -32 62 -11 46 -24 61 -38 47 -14 -14 19 -100 48 -129 47 -48 81 -19
114 95 10 35 18 46 36 48 30 5 23 26 -11 30 -17 2 -29 -3 -35 -15z"/>
<path d="M15232 9154 c-27 -19 -28 -38 -4 -56 45 -31 30 -78 -24 -78 -34 0
-35 1 -29 30 8 37 -8 40 -31 5 -22 -34 -12 -52 36 -65 54 -15 79 -5 96 35 14
35 7 76 -16 90 -19 11 0 25 36 25 24 0 34 5 34 15 0 20 -68 20 -98 -1z"/>
<path d="M10427 9152 c-21 -9 -57 -65 -57 -90 1 -50 54 -65 98 -27 38 32 40
55 10 95 -23 32 -24 32 -51 22z m38 -66 c0 -24 -35 -48 -55 -36 -12 7 -12 12
0 35 16 30 55 31 55 1z"/>
<path d="M13005 9140 c-65 -43 -84 -102 -43 -139 39 -37 114 -39 125 -4 3 7
-13 11 -41 11 -82 -2 -99 39 -40 92 31 27 42 31 70 25 35 -6 43 2 22 23 -18
18 -59 14 -93 -8z"/>
<path d="M7125 9125 c-19 -16 -32 -20 -36 -13 -13 20 -38 0 -44 -36 -4 -19
-13 -40 -21 -47 -8 -6 -14 -18 -14 -25 0 -29 30 -12 80 44 46 50 51 54 45 29
-3 -16 -2 -34 4 -40 5 -7 10 -15 10 -19 3 -22 16 -4 18 24 11 114 7 123 -42
83z"/>
<path d="M7862 9107 c-46 -47 -52 -77 -22 -107 29 -29 57 -25 96 14 38 38 44
77 18 114 -22 32 -45 27 -92 -21z m76 -25 c2 -13 -7 -32 -22 -47 -21 -21 -29
-24 -46 -15 -29 15 -25 35 13 64 37 29 51 29 55 -2z"/>
<path d="M8113 9110 c-48 -37 -62 -33 -30 7 6 9 4 15 -7 19 -20 8 -17 12 -50
-60 -43 -95 -33 -99 61 -24 l65 52 -6 -31 c-10 -46 15 -67 72 -59 48 6 78 24
65 37 -5 5 -24 4 -43 -1 -66 -19 -67 -16 -47 83 5 25 -31 15 -80 -23z"/>
<path d="M14576 9120 c-61 -54 -56 -139 8 -156 34 -8 106 13 106 32 0 12 -6
15 -22 11 -13 -3 -35 -9 -49 -12 -16 -4 -30 -1 -36 7 -24 28 -18 39 32 56 47
16 50 19 50 52 0 30 -3 35 -27 38 -18 2 -37 -7 -62 -28z m62 -12 c-3 -7 -15
-14 -29 -16 -23 -2 -23 -2 -5 13 24 18 39 20 34 3z"/>
<path d="M14864 9131 c-18 -11 -35 -24 -38 -30 -12 -18 -24 -12 -19 9 4 14 0
20 -11 20 -9 0 -16 -5 -16 -11 0 -6 -13 -31 -30 -56 -16 -24 -30 -46 -30 -49
0 -17 45 4 99 46 36 28 66 50 67 50 2 0 -6 -19 -16 -42 -23 -50 -25 -68 -7
-68 12 0 67 112 67 138 0 18 -30 15 -66 -7z"/>
<path d="M6975 9107 c-8 -13 -18 -37 -21 -55 -5 -25 -3 -32 10 -32 9 0 16 6
16 13 0 7 8 29 19 49 10 21 16 40 13 43 -10 10 -22 5 -37 -18z"/>
<path d="M11773 9100 c-42 -41 -57 -85 -37 -105 13 -13 19 -13 50 0 32 13 34
13 34 -6 0 -10 7 -19 15 -19 9 0 15 9 15 25 0 13 8 40 17 59 16 35 16 36 -7
56 -32 27 -51 25 -87 -10z m51 -32 c-35 -43 -64 -60 -64 -39 0 19 43 61 62 61
21 0 21 0 2 -22z"/>
<path d="M7265 9086 c-17 -26 -17 -75 -1 -79 6 -1 14 14 19 33 5 19 13 39 18
45 13 14 11 25 -6 25 -8 0 -22 -11 -30 -24z"/>
<path d="M7720 9068 c-23 -50 -25 -78 -7 -78 7 0 21 24 31 53 21 59 21 60 7
65 -6 2 -20 -16 -31 -40z"/>
<path d="M8795 9050 c-8 -27 10 -49 26 -33 13 13 8 45 -8 50 -6 2 -14 -6 -18
-17z"/>
<path d="M10792 8914 c-5 -11 -17 -44 -27 -74 -10 -30 -26 -71 -36 -91 -17
-35 -20 -37 -88 -43 -45 -5 -71 -12 -75 -21 -8 -22 4 -24 62 -13 29 6 55 8 58
5 4 -3 -3 -21 -14 -39 -23 -38 -44 -107 -36 -120 8 -13 34 11 34 32 0 9 14 45
31 79 30 60 33 63 62 57 16 -3 34 -6 38 -6 5 0 -2 -22 -16 -49 -32 -64 -16
-77 33 -27 19 21 48 44 64 52 41 21 45 0 13 -63 -14 -28 -25 -56 -25 -63 0
-24 25 -2 52 46 48 85 24 145 -45 112 l-35 -17 54 115 c57 121 63 144 39 144
-8 0 -15 -5 -15 -10 0 -21 -104 -230 -109 -221 -4 5 -18 12 -33 16 -26 7 -27
8 -14 34 29 57 58 163 48 173 -7 7 -13 4 -20 -8z"/>
<path d="M13461 8898 c-23 -62 -67 -160 -99 -223 -42 -84 -53 -118 -42 -135
11 -17 30 -3 30 21 0 23 18 61 34 71 18 12 89 9 116 -5 32 -16 37 -49 12 -92
-18 -29 -19 -34 -5 -39 19 -7 16 -10 37 31 19 39 21 83 3 107 -7 10 -35 24
-61 30 l-48 12 108 56 c104 53 142 88 96 88 -11 0 -22 -4 -24 -8 -3 -9 -199
-115 -203 -110 -2 2 17 48 41 102 24 54 41 103 38 107 -9 16 -24 9 -33 -13z"/>
<path d="M5526 8888 c-8 -13 -27 -49 -43 -81 -23 -49 -31 -57 -48 -52 -35 11
-48 10 -52 -3 -3 -7 8 -17 25 -23 30 -10 30 -11 25 -69 -6 -67 9 -116 39 -125
19 -7 48 10 48 27 0 6 -9 8 -20 5 -26 -7 -40 19 -40 70 0 55 8 61 70 60 51 -2
55 0 56 21 1 22 -1 23 -54 16 l-54 -7 41 80 c22 43 41 84 41 91 0 19 -18 14
-34 -10z"/>
<path d="M8199 8903 c-15 -2 -34 -12 -42 -21 -18 -21 -44 -101 -53 -165 -3
-26 -10 -50 -15 -53 -5 -3 -9 0 -9 5 0 15 -44 14 -83 -3 -71 -29 -113 -121
-67 -146 27 -15 100 5 133 36 36 33 52 68 66 139 27 137 39 165 76 181 19 8
35 19 35 24 0 6 -3 9 -7 9 -5 -1 -20 -4 -34 -6z m-124 -283 c-19 -36 -45 -57
-88 -68 -31 -9 -39 -8 -44 4 -14 37 61 95 118 91 25 -2 26 -3 14 -27z"/>
<path d="M9374 8875 c-30 -45 -64 -126 -51 -120 6 4 5 0 -4 -7 -22 -18 -81
-137 -74 -148 10 -16 21 -12 74 30 l50 40 -24 -53 c-28 -59 -32 -95 -10 -103
22 -9 38 5 25 21 -9 10 -4 31 20 85 17 39 28 75 25 80 -10 17 -35 11 -71 -17
l-35 -26 23 49 c13 27 38 78 56 113 22 41 30 67 24 73 -7 7 -16 1 -28 -17z"/>
<path d="M12822 8863 c-29 -59 -123 -227 -133 -237 -20 -21 -8 -41 31 -54 33
-10 46 -10 73 2 35 14 87 69 87 91 0 29 -32 47 -72 42 l-38 -5 29 51 c64 113
71 129 66 138 -11 18 -25 9 -43 -28z m23 -193 c11 -18 -51 -70 -84 -70 -40 0
-39 11 4 49 36 31 68 40 80 21z"/>
<path d="M2153 8847 c-24 -27 -50 -82 -68 -143 -4 -12 -51 -24 -96 -24 -20 0
-29 -5 -29 -16 0 -14 9 -16 60 -11 l60 5 -6 -26 c-13 -61 -26 -83 -45 -77 -22
7 -23 4 -8 -29 7 -15 17 -22 26 -19 19 8 49 70 58 121 6 38 10 42 35 42 39 0
60 9 60 26 0 11 -9 13 -40 8 -49 -8 -51 1 -14 74 29 59 57 80 80 61 19 -15 28
-6 19 20 -10 34 -57 28 -92 -12z"/>
<path d="M3552 8868 c-7 -7 -12 -22 -12 -35 0 -13 -13 -53 -29 -88 l-30 -65
-58 0 c-33 0 -64 5 -71 12 -9 9 -15 9 -24 -1 -11 -10 -9 -15 6 -27 20 -14 44
-17 103 -14 l31 1 -20 -40 c-23 -46 -29 -102 -12 -108 6 -2 14 10 17 27 14 66
47 125 80 140 31 15 40 38 11 32 -18 -4 -18 -6 11 66 34 85 33 136 -3 100z"/>
<path d="M3639 8853 c-1 -5 -1 -15 0 -23 1 -9 -21 -72 -49 -140 -54 -134 -54
-168 1 -106 59 68 103 71 80 6 -6 -18 -8 -36 -5 -42 9 -15 32 10 40 45 l8 32
6 -40 c4 -33 9 -41 29 -43 38 -6 140 20 158 40 21 23 10 35 -20 21 -28 -14
-99 -33 -121 -33 -32 0 -15 27 23 39 40 11 101 72 101 99 0 41 -88 12 -141
-46 l-33 -35 -14 21 c-16 24 -42 28 -73 12 -19 -11 -19 -9 2 42 22 58 49 139
49 151 0 4 -9 7 -20 7 -11 0 -21 -3 -21 -7z m201 -171 c0 -4 -15 -16 -32 -26
l-33 -18 28 26 c30 27 37 31 37 18z"/>
<path d="M14486 8841 c-4 -5 -4 -16 0 -24 3 -8 -9 -35 -27 -60 -24 -35 -40
-47 -68 -52 -19 -4 -44 -11 -54 -16 -28 -16 -9 -30 29 -23 l35 6 -20 -33 c-43
-70 -19 -112 62 -107 55 3 64 13 41 43 -14 19 -16 19 -28 3 -16 -22 -55 -23
-62 -3 -8 20 41 102 66 110 11 4 34 4 50 0 23 -5 30 -3 30 8 0 16 -21 27 -51
27 -19 0 -19 2 4 33 30 40 38 62 31 82 -7 17 -30 20 -38 6z"/>
<path d="M11307 8823 c-4 -3 -7 -12 -7 -20 0 -17 26 -17 33 1 8 21 -11 35 -26
19z"/>
<path d="M12613 8803 c-3 -10 -24 -58 -46 -108 -42 -92 -55 -173 -30 -182 8
-3 12 7 11 29 -1 21 16 72 45 136 46 100 57 142 37 142 -6 0 -13 -8 -17 -17z"/>
<path d="M12473 8788 c-6 -7 -10 -20 -11 -28 0 -14 -61 -163 -83 -202 -15 -28
-11 -38 16 -38 21 0 25 5 25 29 0 16 20 74 45 129 25 55 45 104 45 111 0 15
-25 14 -37 -1z"/>
<path d="M6365 8739 c-3 -9 -5 -20 -3 -25 5 -18 -33 -75 -57 -86 -47 -21 -73
15 -40 58 18 24 19 54 2 54 -16 0 -47 -62 -47 -94 0 -49 62 -72 108 -40 23 16
72 86 72 102 0 4 -6 17 -14 28 -13 17 -15 17 -21 3z"/>
<path d="M6451 8701 c-57 -56 -66 -90 -29 -115 39 -28 118 -16 118 16 0 5 -18
5 -40 2 -74 -12 -91 34 -21 55 52 15 67 34 53 66 -7 14 -16 25 -21 25 -5 0
-32 -22 -60 -49z"/>
<path d="M4898 8730 c-9 -6 -29 -42 -44 -82 -30 -79 -37 -77 -49 15 -4 32 -11
47 -21 47 -13 0 -14 -10 -9 -57 9 -72 32 -125 54 -121 9 2 28 35 46 82 21 55
38 82 53 89 24 11 25 30 1 34 -8 2 -21 -2 -31 -7z"/>
<path d="M6913 8733 c-12 -2 -38 -22 -57 -44 -61 -67 -44 -132 38 -146 41 -6
92 11 106 38 12 22 13 59 1 59 -13 0 -33 -28 -27 -38 6 -10 -36 -32 -62 -32
-30 0 -63 30 -60 53 2 16 11 22 35 23 36 2 93 38 93 59 0 12 -32 38 -42 34 -2
-1 -13 -4 -25 -6z m12 -43 c-3 -5 -14 -10 -23 -10 -15 0 -15 2 -2 10 20 13 33
13 25 0z"/>
<path d="M9730 8722 c-25 -20 -26 -14 23 -102 13 -22 16 -35 8 -43 -12 -12
-41 8 -41 29 0 8 -7 14 -15 14 -26 0 -16 -37 16 -65 41 -34 62 -29 73 17 8 33
6 42 -18 77 -34 49 -27 65 26 58 33 -4 39 -3 36 11 -5 26 -78 28 -108 4z"/>
<path d="M11043 8717 c-18 -12 -38 -34 -44 -49 -15 -36 -3 -95 21 -108 26 -14
103 -13 118 2 22 22 13 27 -41 21 -39 -4 -56 -2 -65 10 -10 12 -7 15 20 21 53
11 78 32 78 69 0 59 -32 71 -87 34z m57 -37 c0 -12 -12 -22 -36 -30 -48 -16
-53 -6 -14 30 34 31 50 32 50 0z"/>
<path d="M13760 8723 c-65 -28 -66 -52 -5 -95 51 -36 53 -51 12 -76 -34 -21
-58 -9 -69 36 -8 31 -21 41 -32 24 -10 -16 15 -82 34 -92 36 -19 71 -11 107
25 29 29 33 37 23 55 -6 11 -29 32 -50 46 -22 15 -40 28 -40 31 0 8 56 25 83
25 29 -1 38 22 11 32 -22 8 -34 7 -74 -11z"/>
<path d="M4612 8713 c-67 -33 -81 -131 -25 -168 23 -15 33 -16 79 -6 49 11 84
34 71 47 -2 3 -30 -2 -61 -11 -45 -13 -60 -14 -71 -5 -24 20 -18 34 22 55 40
22 74 70 66 91 -7 19 -40 17 -81 -3z m32 -34 c-25 -27 -54 -43 -54 -29 0 9 57
50 69 50 2 0 -4 -9 -15 -21z"/>
<path d="M6666 8708 c-35 -55 -32 -117 6 -135 29 -13 56 -3 91 34 33 35 49
103 24 103 -9 0 -17 -13 -21 -33 -7 -40 -47 -80 -73 -75 -23 5 -22 61 1 87 9
10 16 23 16 29 0 20 -29 13 -44 -10z"/>
<path d="M9491 8713 c-69 -36 -88 -95 -45 -137 20 -21 113 -21 140 -1 22 17
20 17 -60 19 -66 1 -86 20 -32 30 50 10 88 43 84 75 -4 33 -39 39 -87 14z m44
-32 c-24 -23 -82 -41 -70 -21 7 12 61 39 80 40 5 0 1 -9 -10 -19z"/>
<path d="M11405 8723 c-62 -16 -135 -99 -135 -154 0 -33 17 -21 48 34 36 64
73 91 113 83 35 -7 49 12 24 31 -11 7 -21 12 -24 12 -3 -1 -15 -4 -26 -6z"/>
<path d="M12022 8713 c-38 -19 -82 -67 -82 -92 0 -50 67 -86 128 -68 47 15 39
27 -17 27 -46 0 -81 17 -81 39 0 14 60 69 81 74 13 4 26 -2 37 -14 19 -22 42
-25 42 -6 0 18 -42 57 -61 57 -8 0 -29 -8 -47 -17z"/>
<path d="M2264 8710 c-26 -10 -69 -61 -94 -111 -25 -47 -25 -59 -2 -59 20 1
56 46 47 60 -3 5 6 26 21 46 21 27 33 35 51 31 28 -5 39 8 23 28 -14 17 -17
17 -46 5z"/>
<path d="M2379 8713 c-1 -5 -1 -12 0 -16 1 -5 -12 -24 -29 -43 -36 -41 -46
-75 -30 -103 16 -31 60 -27 93 7 36 38 39 114 5 143 -25 20 -37 24 -39 12z
m31 -85 c0 -47 -46 -89 -65 -58 -10 16 36 90 57 90 4 0 8 -14 8 -32z"/>
<path d="M2608 8691 c-29 -19 -54 -28 -67 -24 -16 4 -21 1 -21 -13 0 -11 -9
-34 -20 -52 -45 -73 -16 -69 59 8 58 59 90 77 76 43 -4 -10 -10 -28 -12 -40
-8 -34 24 -30 70 8 l37 30 0 -30 c0 -44 38 -68 80 -51 17 7 30 16 30 20 0 14
-13 18 -34 10 -39 -15 -50 2 -37 53 6 25 11 51 11 56 0 21 -27 10 -60 -24 -19
-19 -37 -35 -41 -35 -4 0 -5 16 -2 35 7 44 -7 45 -69 6z"/>
<path d="M6005 8694 c-34 -37 -40 -62 -19 -85 21 -23 43 -24 89 -4 l35 14 -7
-27 c-3 -15 -33 -81 -65 -147 -74 -154 -76 -183 -5 -133 17 12 48 23 71 24 27
1 41 6 41 15 0 18 -48 23 -86 10 -16 -5 -29 -8 -29 -5 0 2 19 41 41 87 41 80
89 207 89 234 0 19 -27 16 -35 -4 -5 -15 -9 -12 -20 15 -12 26 -20 32 -45 32
-21 0 -39 -9 -55 -26z m76 -31 c7 -19 3 -23 -27 -33 -48 -16 -61 -2 -33 34 24
31 48 31 60 -1z"/>
<path d="M7567 8684 c-46 -35 -62 -64 -55 -101 4 -22 66 -30 98 -13 18 9 20 8
20 -14 0 -13 7 -26 15 -29 17 -7 29 8 20 23 -4 6 8 36 25 67 l32 56 -29 23
c-39 32 -70 29 -126 -12z m100 -9 c10 -29 -60 -85 -107 -85 -32 0 -24 25 22
64 44 38 75 46 85 21z"/>
<path d="M8720 8712 c-41 -19 -109 -75 -116 -95 -3 -12 -26 -63 -50 -113 -52
-108 -64 -154 -41 -154 9 0 19 10 22 23 17 54 49 117 59 116 31 -4 49 4 87 38
90 82 120 222 39 185z m20 -37 c0 -3 -11 -28 -25 -55 -24 -47 -79 -100 -103
-100 -16 0 -15 5 4 43 29 57 124 143 124 112z"/>
<path d="M9077 8714 c-4 -4 -4 -36 -1 -70 6 -55 4 -63 -14 -73 -16 -9 -23 -7
-35 12 -14 20 -16 21 -22 4 -8 -19 19 -57 40 -57 7 0 25 10 40 22 26 20 27 25
22 80 l-5 58 35 0 c23 0 33 4 31 13 -5 13 -79 22 -91 11z"/>
<path d="M11231 8684 c-23 -39 -33 -102 -16 -105 6 -1 15 14 20 33 6 19 18 46
28 61 21 32 22 47 3 47 -8 0 -24 -16 -35 -36z"/>
<path d="M4985 8677 c-40 -40 -50 -72 -36 -110 14 -37 51 -50 104 -36 23 6 56
11 73 12 19 2 45 17 73 42 66 62 70 62 68 10 -1 -31 3 -49 13 -55 22 -14 26
-1 22 67 -4 73 -16 82 -68 47 l-36 -25 6 26 c5 18 2 27 -9 31 -19 8 -27 1 -29
-23 -3 -32 -39 -92 -55 -92 -9 0 -39 -3 -68 -7 -46 -6 -52 -4 -63 16 -13 24
-1 40 31 40 28 0 69 40 69 66 0 38 -53 33 -95 -9z m51 -12 c-11 -8 -25 -15
-30 -15 -6 0 -2 7 8 15 11 8 25 15 30 15 6 0 2 -7 -8 -15z"/>
<path d="M12936 8670 c-60 -66 -43 -126 26 -91 l36 18 -9 -30 c-10 -36 -5 -47
25 -47 31 0 39 10 21 30 -12 14 -13 23 -4 51 7 19 15 38 20 43 9 10 -7 46 -25
58 -25 17 -55 6 -90 -32z m81 -7 c4 -11 -62 -63 -79 -63 -15 0 -8 19 18 50 26
30 54 36 61 13z"/>
<path d="M13178 8675 c-66 -44 -86 -95 -50 -128 29 -26 102 -20 102 8 0 9 -11
12 -40 8 -32 -5 -41 -2 -46 12 -10 24 56 85 91 85 28 0 35 24 9 34 -22 8 -25
8 -66 -19z"/>
<path d="M14643 8689 c-54 -16 -90 -78 -61 -107 28 -28 127 0 129 36 2 31 -3
57 -13 70 -12 14 -11 14 -55 1z m28 -45 c11 -14 10 -18 -6 -30 -41 -30 -76
-12 -43 23 26 27 31 28 49 7z"/>
<path d="M7813 8670 c-19 -11 -35 -15 -38 -10 -12 19 -23 10 -44 -33 -12 -24
-21 -46 -21 -50 0 -15 28 -6 46 14 25 28 103 73 112 65 3 -4 -2 -28 -11 -54
-23 -59 -25 -74 -11 -79 13 -4 54 85 54 119 0 49 -35 60 -87 28z"/>
<path d="M8825 8664 c-9 -15 -20 -44 -22 -64 -4 -31 -1 -40 18 -54 34 -23 54
-20 94 15 24 21 35 40 35 58 -1 31 -24 66 -39 56 -14 -8 -14 -35 -1 -35 20 0
9 -39 -16 -59 -51 -40 -79 -15 -50 45 29 61 15 89 -19 38z"/>
<path d="M12233 8669 c-31 -11 -56 -53 -48 -79 6 -18 13 -21 42 -18 28 3 37 0
41 -14 2 -10 8 -18 13 -18 16 0 21 28 9 50 -9 18 -18 21 -41 16 -32 -6 -38 4
-13 25 12 10 20 10 35 1 26 -16 42 -7 29 17 -12 23 -39 31 -67 20z"/>
<path d="M10263 8515 c-44 -19 -75 -70 -109 -180 -28 -90 -30 -95 -57 -95
-102 0 -164 -109 -86 -150 29 -16 81 4 102 39 9 15 37 91 62 168 49 153 72
188 129 198 21 4 36 13 36 21 0 18 -35 17 -77 -1z m-160 -319 c3 -7 -3 -27
-14 -45 -14 -24 -26 -31 -49 -31 -25 0 -30 4 -30 23 0 44 79 89 93 53z"/>
<path d="M7340 8513 c-14 -2 -68 -11 -120 -20 -52 -8 -140 -18 -195 -22 -79
-5 -100 -9 -100 -21 0 -12 15 -14 85 -12 47 2 93 5 103 8 13 4 17 -1 17 -25 0
-33 -51 -183 -86 -252 -30 -60 -35 -102 -11 -107 12 -2 17 3 17 19 0 13 22 75
49 138 27 64 55 144 61 178 l12 61 82 12 c44 7 123 15 175 19 62 4 96 10 99
19 3 9 -17 12 -80 11 -45 -1 -94 -3 -108 -6z"/>
<path d="M4095 8423 c-35 -128 -35 -128 -91 -129 -68 -2 -72 -3 -50 -19 11 -8
35 -15 54 -15 29 0 33 -3 27 -17 -4 -10 -14 -38 -22 -63 -9 -25 -22 -52 -29
-61 -11 -13 -12 -19 -1 -33 18 -25 28 -10 61 91 l27 82 51 3 c35 2 53 8 55 18
4 13 3 13 -6 0 -7 -10 -11 -11 -11 -2 0 7 -14 12 -35 12 -19 0 -35 3 -35 8 0
4 11 42 25 85 29 91 30 97 11 97 -9 0 -21 -22 -31 -57z"/>
<path d="M10887 8474 c-4 -4 -7 -16 -7 -26 0 -10 -14 -52 -31 -92 l-32 -73
-50 -9 c-68 -12 -80 -40 -14 -31 45 6 46 6 38 -16 -5 -12 -21 -42 -35 -67 -14
-25 -26 -53 -26 -62 0 -38 22 -14 65 72 l45 90 40 0 c29 0 40 4 40 15 0 10
-10 15 -34 15 l-35 0 29 63 c31 67 41 118 24 124 -5 2 -13 0 -17 -3z"/>
<path d="M11015 8468 c-2 -7 -6 -29 -9 -49 -4 -19 -35 -95 -71 -168 -36 -72
-65 -134 -65 -137 0 -15 33 1 71 34 41 36 80 62 93 62 11 0 6 -28 -15 -74 -20
-45 -20 -76 0 -76 9 0 39 75 48 123 10 52 -33 73 -83 41 -13 -9 -27 -15 -29
-12 -2 2 9 30 25 62 42 83 73 173 67 191 -8 18 -26 20 -32 3z"/>
<path d="M12822 8413 c-23 -38 -44 -76 -48 -86 -5 -15 -13 -17 -45 -12 -32 6
-39 4 -39 -9 0 -9 6 -16 13 -16 32 -1 37 -15 21 -65 -27 -91 8 -159 70 -135
33 12 25 30 -14 30 -21 0 -29 6 -34 24 -7 28 20 125 37 132 7 2 41 5 77 7 49
1 65 6 65 17 0 11 -12 13 -55 11 -30 -1 -58 -8 -62 -14 -4 -6 -10 -8 -14 -5
-3 4 15 41 40 83 44 73 56 105 37 105 -5 0 -27 -30 -49 -67z"/>
<path d="M13760 8467 c0 -17 -50 -114 -136 -263 -62 -108 -80 -167 -52 -176 7
-3 -6 -41 -38 -106 -41 -84 -53 -102 -71 -102 -14 0 -23 -6 -23 -15 0 -8 9
-15 20 -15 17 0 19 -3 11 -17 -5 -10 -12 -40 -16 -67 -11 -70 15 -57 33 17 13
54 15 56 50 59 45 4 56 28 13 28 -17 0 -31 4 -31 8 0 5 22 53 49 106 34 66 46
99 38 102 -30 11 -15 60 54 183 123 217 129 228 129 250 0 12 -6 21 -15 21 -8
0 -15 -6 -15 -13z"/>
<path d="M2170 8438 c-6 -18 -18 -45 -26 -60 -8 -14 -14 -39 -14 -55 0 -50
-11 -57 -79 -50 -35 4 -61 3 -61 -3 0 -15 22 -24 71 -30 l46 -5 -23 -79 c-28
-93 -31 -136 -9 -136 9 0 15 10 15 26 0 14 12 66 27 115 23 76 30 90 45 86 25
-7 35 13 13 29 -17 12 -16 17 9 98 30 98 30 96 12 96 -7 0 -19 -15 -26 -32z"/>
<path d="M6563 8458 c-5 -7 -22 -35 -37 -62 l-28 -49 -109 7 c-88 6 -109 4
-109 -6 0 -18 48 -45 111 -64 30 -9 49 -20 46 -27 -2 -7 -26 -23 -53 -35 -109
-52 -128 -111 -30 -95 26 4 42 15 62 45 30 42 63 66 73 51 3 -5 23 -34 43 -66
41 -62 65 -75 53 -29 -4 15 -9 52 -12 83 l-5 55 60 37 c70 43 90 63 75 78 -7
7 -27 6 -64 -5 -29 -9 -54 -16 -55 -16 -1 0 2 19 7 42 8 32 7 45 -4 55 -11 11
-16 12 -24 1z m-12 -91 c-10 -9 -11 -8 -5 6 3 10 9 15 12 12 3 -3 0 -11 -7
-18z m69 -32 c0 -2 -9 -9 -20 -15 -12 -6 -20 -7 -20 -1 0 5 8 12 18 14 9 3 18
5 20 6 1 0 2 -1 2 -4z m-140 -24 c0 -18 -16 -20 -56 -6 l-39 14 48 1 c26 0 47
-4 47 -9z m70 -1 c0 -5 -14 -17 -31 -26 -31 -16 -32 -10 -6 24 11 14 37 16 37
2z m-10 -77 c-1 -27 -1 -27 -15 -9 -12 16 -12 22 -2 28 17 11 17 11 17 -19z
m-165 -63 c-10 -11 -21 -17 -24 -14 -3 3 3 12 13 20 28 20 32 17 11 -6z m-38
-32 c-3 -8 -6 -5 -6 6 -1 11 2 17 5 13 3 -3 4 -12 1 -19z"/>
<path d="M9530 8456 c0 -9 -12 -45 -27 -81 -21 -52 -31 -65 -49 -65 -45 0 -84
-13 -84 -28 0 -11 9 -14 44 -10 l44 5 -29 -61 c-16 -33 -30 -72 -31 -85 -5
-39 19 -35 32 6 7 21 25 63 41 94 27 54 30 57 75 64 72 10 89 20 92 49 1 14
-2 26 -7 26 -21 0 -41 -13 -41 -26 0 -8 -8 -14 -17 -14 -10 0 -28 -3 -40 -6
l-23 -6 24 53 c32 71 35 92 14 97 -11 2 -18 -3 -18 -12z"/>
<path d="M2297 8408 c-9 -75 -33 -162 -62 -222 -17 -35 -21 -54 -14 -61 8 -7
16 -2 27 15 28 42 71 82 82 75 13 -8 13 -48 -1 -62 -15 -15 -1 -36 22 -30 10
3 25 -3 35 -14 22 -25 70 -24 112 1 27 17 43 40 27 40 -13 0 -54 -24 -50 -30
2 -4 -13 -4 -33 -1 -30 5 -38 11 -40 31 -2 21 2 25 24 27 28 1 71 28 88 55 13
22 -9 48 -40 48 -13 0 -41 -15 -62 -34 -37 -34 -38 -34 -51 -14 -9 15 -19 19
-40 15 l-28 -6 17 72 c32 137 33 147 12 147 -16 0 -20 -10 -25 -52z m183 -164
c0 -11 -34 -33 -50 -33 -10 0 -8 6 9 19 23 20 41 26 41 14z"/>
<path d="M3720 8444 c0 -8 -18 -56 -39 -107 -62 -146 -77 -202 -63 -232 14
-29 37 -24 29 7 -7 25 15 101 64 215 42 99 48 133 24 133 -8 0 -15 -7 -15 -16z"/>
<path d="M3569 8443 c-1 -5 -1 -16 0 -25 3 -23 -19 -94 -63 -205 -20 -51 -36
-102 -36 -113 0 -39 25 -19 42 33 9 28 35 103 57 166 30 86 38 119 30 133 -10
18 -28 25 -30 11z"/>
<path d="M8721 8431 c-10 -10 -26 -43 -36 -72 -44 -134 -115 -232 -187 -255
-31 -10 -32 2 -5 49 28 48 65 77 97 77 11 0 20 7 20 15 0 27 -56 18 -95 -17
-68 -59 -94 -150 -47 -160 23 -6 83 25 128 64 36 32 114 174 114 209 0 9 11
33 25 53 14 20 25 41 25 46 0 16 -19 11 -39 -9z"/>
<path d="M4666 8376 c-4 -18 -27 -80 -53 -136 -51 -115 -67 -190 -39 -190 10
0 16 8 16 24 0 40 20 84 47 101 67 44 193 3 233 -76 12 -22 25 -37 30 -34 41
25 -46 122 -135 152 l-58 19 69 41 c38 22 97 54 131 72 62 31 81 47 68 59 -8
9 -179 -79 -262 -135 -35 -24 -63 -40 -63 -35 0 4 11 34 25 67 13 33 25 70 25
83 0 35 -27 26 -34 -12z"/>
<path d="M11904 8311 c-18 -11 -44 -35 -59 -55 -23 -30 -27 -43 -22 -74 8 -50
46 -82 97 -82 48 0 70 8 70 26 0 10 -10 12 -44 8 -49 -7 -81 6 -89 35 -4 16 1
21 24 26 40 9 91 70 87 103 -4 34 -24 38 -64 13z m11 -61 c-9 -10 -25 -20 -35
-23 -17 -4 -18 -2 -10 13 14 26 54 53 58 40 2 -6 -3 -19 -13 -30z"/>
<path d="M12142 8307 c-12 -12 -26 -47 -32 -77 -6 -30 -13 -65 -16 -77 -5 -27
-35 -31 -54 -8 -12 15 -10 71 5 108 5 13 2 17 -13 17 -21 0 -32 -34 -32 -94 1
-52 46 -91 86 -76 30 12 35 22 50 102 17 90 26 101 76 93 31 -6 38 -4 38 9 0
9 -3 16 -7 17 -5 0 -24 2 -44 5 -27 3 -40 -1 -57 -19z"/>
<path d="M3782 8283 c-41 -20 -49 -36 -30 -66 24 -37 27 -55 13 -67 -12 -10
-17 -7 -25 15 -12 31 -30 25 -30 -10 0 -32 34 -51 65 -37 33 15 39 45 19 87
-22 47 -9 60 57 58 34 -1 49 3 49 12 0 29 -67 33 -118 8z"/>
<path d="M9225 8293 c-51 -13 -68 -54 -40 -97 9 -13 13 -31 9 -40 -7 -18 -44
-22 -61 -5 -6 6 -19 9 -29 7 -17 -3 -17 -5 4 -26 60 -60 158 7 107 74 -21 28
-18 40 15 54 23 10 33 10 44 1 19 -16 32 5 16 24 -13 15 -28 17 -65 8z"/>
<path d="M14310 8278 c-23 -11 -48 -31 -57 -45 -14 -21 -17 -22 -28 -7 -14 20
-35 11 -35 -14 0 -21 -73 -166 -106 -209 -27 -36 -30 -53 -10 -53 8 0 40 38
71 85 55 83 57 86 89 80 68 -13 166 61 166 124 0 54 -32 68 -90 39z m60 -37
c0 -29 -46 -78 -86 -91 -60 -20 -63 1 -7 59 52 54 93 68 93 32z"/>
<path d="M9008 8272 c-16 -9 -28 -20 -28 -25 0 -4 -11 -12 -25 -17 -14 -5 -25
-17 -25 -25 0 -9 -9 -33 -20 -55 -24 -47 -24 -50 -5 -50 12 0 42 45 56 85 2 6
19 23 37 39 25 22 39 27 62 23 37 -8 47 7 18 27 -28 20 -36 20 -70 -2z"/>
<path d="M3143 8260 c-72 -44 -69 -121 5 -160 19 -9 30 -9 53 0 40 17 36 30
-9 30 -41 0 -72 23 -72 52 0 19 55 68 76 68 8 0 14 -7 14 -15 0 -8 7 -15 15
-15 18 0 20 31 3 48 -17 17 -48 15 -85 -8z"/>
<path d="M8068 8217 c-59 -80 -83 -101 -116 -102 -20 0 -28 -6 -30 -22 -5 -31
24 -30 71 1 28 20 37 22 41 10 8 -21 47 -17 88 11 35 24 36 24 41 4 7 -26 27
-15 27 14 1 12 7 33 15 47 17 30 19 60 4 60 -6 0 -36 -27 -67 -60 -32 -33 -63
-60 -70 -60 -22 0 -12 27 28 76 40 49 51 84 27 84 -7 0 -34 -28 -59 -63z"/>
<path d="M11174 8266 c-42 -18 -64 -52 -64 -97 0 -48 36 -79 90 -79 32 0 39 4
44 26 9 33 -2 45 -18 21 -16 -20 -45 -22 -71 -3 -17 12 -16 14 18 25 36 12 67
43 67 67 0 7 -8 21 -17 32 -16 19 -21 20 -49 8z m26 -40 c0 -15 -16 -30 -42
-39 -24 -8 -23 8 2 33 23 23 40 26 40 6z"/>
<path d="M12519 8260 c-19 -10 -41 -26 -48 -34 -8 -10 -22 -14 -36 -10 -19 5
-27 -2 -49 -42 -17 -31 -23 -51 -17 -57 12 -12 41 8 41 27 0 6 12 17 28 23 15
7 42 25 61 40 l34 28 -26 -50 c-30 -56 -33 -77 -13 -94 16 -14 31 1 23 23 -3
8 10 43 29 79 40 77 32 97 -27 67z"/>
<path d="M8768 8240 c-103 -69 -79 -180 32 -150 66 18 64 46 -2 31 -20 -5 -43
-4 -52 1 -20 11 -21 38 -1 38 8 0 15 8 15 18 0 13 2 14 9 3 10 -16 36 -5 66
29 14 16 17 25 9 37 -16 26 -27 25 -76 -7z m42 -15 c0 -2 -10 -9 -22 -15 -22
-11 -22 -10 -4 4 21 17 26 19 26 11z"/>
<path d="M4414 8235 c-24 -14 -49 -40 -59 -60 -15 -33 -15 -38 -1 -60 20 -30
58 -41 103 -29 42 11 40 30 -2 27 -52 -4 -75 5 -75 30 0 24 28 56 68 76 20 11
31 41 15 41 -5 0 -27 -11 -49 -25z"/>
<path d="M8340 8245 c-18 -10 -27 -10 -32 -2 -4 7 -13 -2 -22 -23 -8 -19 -24
-48 -36 -63 -12 -15 -19 -34 -16 -43 4 -11 22 2 71 52 35 38 67 65 71 61 4 -3
-5 -30 -19 -58 -25 -51 -26 -79 -3 -79 15 0 61 132 53 154 -8 19 -33 20 -67 1z"/>
<path d="M9588 8225 c-45 -30 -58 -63 -32 -82 21 -15 48 -17 72 -4 15 8 18 5
17 -16 0 -47 20 -34 38 22 16 51 16 58 1 80 -21 32 -50 32 -96 0z m70 -23 c4
-14 -65 -49 -75 -38 -10 10 45 58 60 53 6 -2 13 -9 15 -15z"/>
<path d="M12237 8210 c-21 -22 -37 -48 -37 -58 0 -45 63 -87 108 -71 33 13 27
29 -12 29 -32 0 -66 20 -66 40 0 5 13 11 29 15 56 12 83 76 35 83 -14 2 -33
-10 -57 -38z"/>
<path d="M3319 8210 c-53 -52 -30 -89 39 -66 21 7 23 5 18 -12 -4 -11 0 -24 9
-32 16 -14 18 -11 30 45 11 54 10 60 -5 60 -8 0 -21 8 -28 18 -18 24 -29 22
-63 -13z m51 -19 c0 -5 -7 -12 -16 -15 -24 -9 -28 -7 -14 9 14 17 30 20 30 6z"/>
<path d="M4181 8208 c-39 -40 -38 -72 2 -76 16 -2 35 2 43 9 11 9 14 8 14 -9
0 -23 25 -46 40 -37 8 5 8 11 0 20 -9 11 -8 23 1 50 17 45 4 69 -38 73 -23 2
-37 -5 -62 -30z m79 -5 c0 -11 -61 -45 -68 -38 -9 9 30 45 50 45 10 0 18 -3
18 -7z"/>
<path d="M9790 8232 c0 -5 -13 -29 -30 -53 -53 -78 -35 -92 39 -30 45 38 101
63 101 45 0 -5 -7 -28 -17 -52 -12 -32 -13 -46 -5 -54 8 -8 17 1 32 36 24 57
25 79 4 97 -13 11 -23 11 -59 -2 -37 -14 -42 -14 -41 -1 1 8 -5 17 -11 19 -7
3 -13 0 -13 -5z"/>
<path d="M13953 8225 c-22 -15 -53 -73 -53 -99 0 -8 11 -23 25 -32 21 -14 30
-14 54 -4 47 19 71 47 71 84 0 19 -6 38 -12 43 -24 19 -64 23 -85 8z m65 -52
c-3 -31 -55 -67 -77 -54 -10 7 -10 14 3 39 14 28 30 38 64 41 9 1 12 -8 10
-26z"/>
<path d="M13746 8180 c-67 -72 -54 -121 28 -106 48 9 42 32 -8 28 -43 -3 -45
6 -10 47 37 44 63 57 81 39 12 -12 11 -18 -6 -39 -13 -17 -17 -30 -11 -40 8
-12 13 -11 29 6 32 32 36 70 12 94 -34 34 -63 27 -115 -29z"/>
<path d="M7204 8205 c-33 -22 -56 -79 -45 -108 5 -13 17 -27 26 -31 22 -8 81
18 94 43 13 24 10 93 -4 103 -16 12 -49 9 -71 -7z m53 -52 c7 -18 -25 -53 -49
-53 -21 0 -24 30 -6 59 12 20 46 17 55 -6z"/>
<path d="M5077 8094 c-9 -10 4 -34 19 -34 8 0 14 9 14 20 0 19 -19 27 -33 14z"/>
<path d="M6687 8044 c-3 -20 -18 -67 -32 -105 -25 -65 -29 -69 -58 -70 -18 -1
-37 -1 -44 0 -18 2 -27 -20 -12 -30 23 -15 39 -10 32 9 -6 15 -5 16 13 2 10
-8 20 -15 22 -16 2 -1 -9 -22 -24 -45 -36 -57 -74 -145 -67 -153 14 -14 25 -4
44 42 11 26 36 74 55 107 l36 61 79 19 c76 18 111 37 91 49 -5 3 -40 -3 -77
-14 -38 -11 -70 -18 -72 -17 -2 2 8 36 22 75 14 39 25 83 25 97 0 39 -27 30
-33 -11z"/>
<path d="M9937 8064 c-4 -4 -7 -18 -7 -31 0 -12 -17 -55 -38 -95 -63 -119 -56
-113 -118 -110 -44 3 -54 1 -54 -12 0 -12 11 -16 45 -16 25 0 45 -2 45 -5 0
-3 -9 -23 -20 -45 -24 -47 -26 -80 -5 -80 8 0 15 8 15 17 0 10 12 41 26 70 25
48 30 52 78 63 84 19 89 21 78 32 -14 14 -68 6 -64 -10 2 -10 -2 -10 -17 0
-19 11 -18 15 19 88 40 80 53 130 34 137 -5 2 -13 0 -17 -3z"/>
<path d="M14260 8044 c0 -9 -20 -59 -45 -111 l-46 -95 -35 7 c-22 4 -41 2 -50
-6 -20 -17 -8 -29 32 -29 38 0 40 -4 19 -40 -21 -37 -18 -68 10 -95 31 -32 80
-34 95 -4 11 19 9 20 -23 14 -62 -12 -83 38 -42 101 9 14 29 23 57 28 24 3 59
8 78 11 19 3 50 8 68 11 20 3 32 11 32 21 0 11 -6 14 -22 8 -13 -4 -38 -6 -56
-6 -18 1 -51 -3 -73 -9 -23 -6 -43 -9 -46 -6 -3 3 13 44 36 91 26 54 40 94 36
106 -8 23 -25 25 -25 3z"/>
<path d="M9532 8022 c-11 -15 -49 -88 -85 -163 -73 -152 -109 -202 -141 -197
-33 5 -31 40 4 77 24 27 35 32 56 27 21 -6 25 -4 22 11 -2 11 -14 19 -31 21
-39 5 -107 -63 -107 -106 0 -63 70 -85 116 -35 30 32 91 144 130 238 16 38 44
84 62 102 32 32 35 53 7 53 -7 0 -22 -12 -33 -28z"/>
<path d="M5811 7998 c-10 -24 -26 -65 -35 -93 -9 -27 -23 -60 -30 -73 -11 -21
-14 -22 -25 -8 -46 55 -161 -30 -161 -119 0 -52 57 -71 103 -35 43 34 116 154
148 242 17 46 39 90 50 98 22 17 16 30 -13 30 -13 0 -25 -14 -37 -42z m-103
-201 c20 -24 -72 -125 -103 -113 -27 10 -17 56 19 92 35 35 66 43 84 21z"/>
<path d="M11145 8003 c-4 -16 -19 -64 -34 -108 l-27 -80 -42 3 c-31 3 -42 0
-42 -10 0 -8 10 -14 21 -15 42 -3 43 -19 5 -80 -38 -62 -45 -93 -21 -93 8 0
15 5 15 12 0 6 18 42 41 79 38 63 42 67 65 58 35 -13 44 -11 44 6 0 8 -12 18
-26 21 -29 7 -30 2 10 133 14 46 23 87 20 92 -10 17 -24 9 -29 -18z"/>
<path d="M7366 7999 c-31 -24 -91 -139 -101 -192 -6 -31 -9 -35 -25 -25 -14 9
-24 8 -44 -5 -35 -23 -58 -60 -50 -81 8 -20 55 -46 83 -46 26 0 35 18 55 110
10 42 34 107 55 145 30 57 44 72 71 81 19 6 36 16 38 23 6 19 -54 12 -82 -10z
m-128 -278 c5 -32 -11 -46 -37 -32 -26 14 -27 29 -3 47 23 18 36 12 40 -15z"/>
<path d="M8157 7994 c-7 -16 -24 -54 -36 -86 l-23 -56 -49 5 c-28 3 -58 2 -67
-2 -29 -11 15 -35 65 -35 l44 0 -15 -28 c-8 -15 -17 -44 -21 -65 -6 -29 -4
-37 8 -37 8 0 18 12 21 28 4 15 14 46 23 70 15 39 18 42 54 42 32 0 39 3 39
20 0 16 -5 19 -30 14 -16 -4 -30 -4 -30 0 0 3 12 35 26 72 19 45 23 69 16 76
-7 7 -15 2 -25 -18z"/>
<path d="M11970 7983 c-6 -21 -23 -63 -38 -93 -27 -55 -27 -55 -85 -64 -67
-10 -73 -32 -8 -29 22 1 41 1 41 -1 0 -1 -11 -30 -25 -64 -25 -61 -25 -92 1
-92 9 0 14 11 14 28 0 15 13 51 28 81 28 57 40 64 145 86 15 3 27 12 27 21 0
12 -7 14 -32 9 -18 -4 -35 -10 -38 -14 -6 -7 -50 -10 -50 -3 0 2 14 34 30 72
33 76 37 100 15 100 -8 0 -19 -16 -25 -37z"/>
<path d="M4162 7928 c-17 -46 -51 -130 -76 -187 -51 -114 -54 -129 -30 -138
22 -8 48 25 33 43 -7 9 3 40 35 111 62 137 97 233 91 244 -13 21 -25 5 -53
-73z"/>
<path d="M13700 7978 c-11 -18 -28 -53 -37 -78 -31 -86 -65 -165 -79 -185 -16
-22 -19 -55 -5 -55 5 0 27 24 50 54 37 49 74 76 88 63 10 -11 -8 -45 -27 -50
-26 -7 -26 -29 0 -45 18 -11 22 -8 40 28 27 53 26 88 -2 99 -13 5 -33 5 -45 0
l-22 -8 19 53 c21 62 49 118 63 127 11 8 1 29 -14 29 -5 0 -18 -15 -29 -32z"/>
<path d="M4385 7976 c-9 -13 -23 -70 -30 -125 -15 -106 -43 -169 -86 -191 -27
-15 -49 -6 -49 19 0 27 47 81 71 81 10 0 19 7 19 15 0 24 -53 19 -77 -7 -46
-51 -56 -103 -25 -131 26 -24 56 -21 92 9 46 39 71 98 86 202 7 51 18 100 25
109 7 8 14 21 15 29 4 23 -24 16 -41 -10z"/>
<path d="M8312 7938 c-44 -77 -112 -225 -112 -243 0 -8 7 -15 15 -15 8 0 15 3
15 8 0 11 101 112 113 112 6 0 7 -21 3 -54 -4 -35 -2 -57 5 -61 16 -10 20 -2
26 59 9 85 -19 107 -80 64 l-31 -22 47 88 c26 49 47 94 47 102 0 28 -19 13
-48 -38z m-55 -150 c-3 -8 -6 -5 -6 6 -1 11 2 17 5 13 3 -3 4 -12 1 -19z"/>
<path d="M3543 7953 c-29 -83 -51 -128 -89 -189 -41 -67 -54 -104 -36 -104 4
0 25 14 46 30 43 33 78 42 56 15 -16 -19 1 -41 24 -32 21 8 21 60 1 77 -12 10
-21 10 -41 1 l-26 -12 24 43 c23 39 78 168 78 182 0 14 -31 4 -37 -11z"/>
<path d="M12344 7867 c-48 -28 -124 -104 -140 -138 -27 -62 -1 -97 28 -36 46
95 124 166 159 144 23 -14 37 -1 23 21 -14 21 -43 25 -70 9z"/>
<path d="M3293 7849 c-28 -10 -31 -52 -6 -104 15 -31 15 -37 2 -49 -14 -15
-31 -19 -60 -17 -21 1 -33 31 -19 45 14 14 13 26 -4 26 -43 0 -44 -68 0 -96
21 -14 31 -15 65 -5 51 15 69 48 50 94 -26 63 -26 77 1 77 13 0 29 -5 36 -12
9 -9 15 -9 24 0 26 26 -45 59 -89 41z"/>
<path d="M8497 7835 c-33 -24 -67 -78 -67 -105 0 -15 11 -36 25 -50 21 -20 31
-22 76 -17 58 7 138 52 122 68 -7 7 -27 1 -58 -15 -51 -28 -103 -34 -123 -14
-13 13 -16 39 -4 36 23 -6 82 16 106 41 39 40 29 71 -22 71 -20 0 -45 -7 -55
-15z m63 -25 c0 -11 -52 -40 -71 -40 -7 0 -2 11 11 25 23 25 60 34 60 15z"/>
<path d="M12693 7830 c-50 -22 -53 -38 -18 -84 31 -41 32 -58 3 -54 -16 2 -22
9 -20 21 2 11 -4 17 -18 17 -24 0 -27 -31 -5 -54 26 -25 55 -29 76 -10 24 22
24 52 -1 84 -11 14 -20 30 -20 37 0 17 34 25 75 17 41 -7 46 6 10 30 -30 20
-31 20 -82 -4z"/>
<path d="M2035 7770 c-25 -38 -49 -70 -54 -70 -6 0 -13 21 -16 48 -9 63 -13
74 -25 67 -14 -9 -12 -80 4 -119 13 -32 13 -33 -51 -117 -76 -98 -103 -139
-103 -156 0 -26 26 -12 47 25 11 20 61 89 110 152 101 130 164 225 156 234
-14 14 -25 3 -68 -64z"/>
<path d="M5433 7821 c-26 -16 -32 -17 -37 -5 -7 19 -36 18 -36 -1 0 -9 -11
-38 -25 -65 -44 -87 -28 -94 42 -19 87 93 137 98 81 8 -28 -46 -36 -79 -19
-79 5 0 24 25 41 55 54 95 29 152 -47 106z"/>
<path d="M6115 7808 c-27 -18 -59 -33 -70 -33 -12 0 -20 -7 -20 -17 0 -9 -4
-20 -8 -24 -11 -11 -9 -72 3 -79 6 -3 13 2 17 12 10 30 74 104 105 123 16 10
39 15 50 12 16 -4 19 -1 16 14 -5 30 -39 27 -93 -8z"/>
<path d="M10850 7829 c-35 -14 -39 -25 -33 -85 7 -66 -15 -111 -47 -94 -10 5
-20 19 -22 30 -4 30 -23 25 -23 -6 0 -34 44 -69 74 -59 33 10 53 59 50 122 -3
62 12 80 58 68 21 -5 24 -3 19 10 -3 9 -6 19 -6 21 0 7 -44 3 -70 -7z"/>
<path d="M5149 7793 c-25 -42 -59 -75 -101 -98 -16 -9 -28 -20 -28 -25 0 -15
33 -12 57 5 19 13 21 13 26 -5 7 -27 29 -25 65 5 29 25 30 25 35 4 9 -34 26
-18 53 46 38 94 32 97 -51 24 -31 -27 -60 -48 -62 -45 -3 3 9 28 26 56 29 47
33 70 11 70 -5 0 -19 -17 -31 -37z"/>
<path d="M5873 7823 c-12 -2 -38 -22 -57 -44 -41 -45 -48 -95 -18 -122 33 -30
118 -15 106 18 -4 9 0 15 10 15 9 0 16 5 16 10 0 6 -12 10 -26 10 -17 0 -28
-6 -31 -20 -3 -11 -11 -20 -18 -20 -53 0 -63 44 -12 54 42 8 80 46 75 77 -3
24 -11 28 -45 22z m-3 -53 c-33 -26 -52 -25 -21 0 13 11 28 20 35 20 6 0 0 -9
-14 -20z"/>
<path d="M12415 7812 c-62 -39 -68 -70 -24 -126 20 -26 27 -28 75 -24 33 3 62
12 74 23 27 25 15 38 -20 20 -39 -20 -85 -19 -106 2 -16 17 -14 19 45 46 52
23 62 31 59 50 -4 30 -61 35 -103 9z m55 -19 c-8 -3 -24 -10 -35 -15 -20 -9
-20 -9 -1 6 11 9 27 16 35 15 14 0 14 -1 1 -6z"/>
<path d="M2391 7755 c-37 -36 -72 -65 -78 -65 -18 0 -24 -30 -7 -37 10 -3 30
8 54 32 l39 38 -2 -29 c-3 -43 29 -43 78 1 l40 35 3 -29 c4 -34 25 -56 47 -47
20 7 19 36 -1 36 -14 0 -16 8 -10 56 6 50 4 55 -11 52 -10 -2 -25 -17 -34 -33
-8 -17 -22 -31 -30 -33 -8 -2 -22 -11 -32 -20 -17 -15 -17 -15 -7 12 6 16 19
41 30 56 24 34 25 40 4 40 -9 0 -46 -29 -83 -65z"/>
<path d="M6315 7806 c-18 -13 -19 -18 -7 -61 11 -42 11 -50 -4 -66 -24 -27
-39 -24 -68 13 -22 29 -26 30 -32 14 -14 -37 44 -84 89 -72 43 10 62 49 50
101 -11 47 -1 62 28 44 21 -13 39 -11 39 6 0 31 -62 45 -95 21z"/>
<path d="M9533 7768 c-78 -67 -89 -89 -53 -108 14 -8 28 -7 53 4 31 12 35 12
45 -5 22 -34 41 -23 36 19 -9 63 -10 64 -50 37 -59 -40 -74 -31 -27 17 35 35
44 39 57 29 21 -18 39 -5 26 18 -18 34 -38 31 -87 -11z"/>
<path d="M9964 7766 c-31 -33 -44 -55 -44 -75 0 -43 26 -47 81 -12 47 29 48
29 39 6 -13 -33 20 -75 46 -59 27 16 31 38 5 31 -25 -6 -28 15 -6 53 18 32 19
64 2 57 -9 -3 -13 3 -13 17 1 17 -6 22 -33 24 -28 3 -39 -3 -77 -42z m89 0 c4
-9 -10 -24 -38 -41 -29 -19 -41 -33 -38 -43 4 -10 1 -13 -8 -10 -26 9 -20 34
16 71 38 39 59 46 68 23z"/>
<path d="M11233 7791 c-36 -23 -88 -104 -79 -126 9 -25 25 -17 41 22 9 21 26
48 37 60 22 24 62 31 73 13 9 -15 25 -12 25 4 0 15 -37 46 -55 46 -5 0 -24 -9
-42 -19z"/>
<path d="M13874 7796 c-17 -8 -41 -30 -53 -50 -22 -34 -22 -38 -7 -61 18 -27
69 -35 82 -13 5 7 10 4 15 -10 13 -33 23 -27 42 26 22 61 21 78 -3 102 -23 23
-34 24 -76 6z m56 -61 c-8 -9 -26 -23 -42 -31 -48 -25 -66 6 -25 43 30 28 49
33 66 17 12 -11 12 -16 1 -29z"/>
<path d="M11591 7787 c-13 -6 -33 -24 -44 -39 l-21 -28 21 -27 c16 -22 30 -29
65 -31 47 -3 98 11 98 27 0 6 -28 9 -67 8 -62 -2 -68 0 -71 19 -5 32 20 47 90
53 4 1 5 8 2 16 -7 18 -40 19 -73 2z"/>
<path d="M2192 7774 c-26 -18 -52 -65 -52 -93 0 -24 51 -63 58 -43 2 7 8 10
13 7 5 -4 20 5 34 19 18 18 25 36 25 64 0 59 -32 79 -78 46z m46 -59 c-2 -29
-7 -35 -31 -41 -34 -7 -41 -2 -32 25 5 16 34 39 63 50 1 1 2 -15 0 -34z"/>
<path d="M3632 7782 c-15 -5 -16 -32 0 -32 7 0 6 -6 -4 -17 -26 -30 -29 -54
-12 -81 13 -20 21 -23 51 -19 44 8 73 33 73 64 0 31 -17 63 -33 63 -7 0 -23 6
-37 13 -14 8 -31 12 -38 9z m76 -64 c16 -16 -2 -44 -33 -52 -38 -10 -47 1 -30
35 16 30 42 38 63 17z"/>
<path d="M6725 7759 c-25 -22 -35 -39 -35 -60 0 -37 21 -46 68 -29 30 11 36
10 44 -4 12 -21 28 -11 27 17 0 12 3 34 7 50 5 23 3 27 -14 27 -11 0 -22 7
-26 15 -9 23 -32 18 -71 -16z m63 -18 c16 -10 1 -24 -41 -40 -31 -12 -34 -5
-11 27 16 23 31 27 52 13z"/>
<path d="M11454 7782 c-6 -4 -17 -20 -25 -37 -15 -31 -63 -65 -75 -52 -4 4 -2
18 4 32 8 17 8 26 1 31 -18 10 -32 -12 -33 -53 -1 -34 2 -38 26 -41 41 -5 85
24 108 70 19 40 16 65 -6 50z"/>
<path d="M12026 7757 c-15 -19 -26 -43 -26 -55 0 -28 43 -56 73 -48 52 13 113
87 100 122 -9 24 -20 16 -42 -29 -22 -45 -59 -71 -86 -61 -8 4 -15 11 -15 18
1 16 32 52 53 59 10 4 15 11 12 17 -12 20 -45 9 -69 -23z"/>
<path d="M3957 7773 c-2 -5 -10 -24 -16 -44 -14 -44 -54 -84 -76 -75 -22 8
-30 36 -17 57 27 43 6 67 -22 27 -50 -70 28 -154 93 -100 27 21 71 111 64 129
-6 14 -19 17 -26 6z"/>
<path d="M6903 7759 c4 -16 -2 -38 -18 -66 -35 -59 -15 -64 48 -11 72 62 81
66 72 37 -4 -13 -12 -27 -18 -31 -8 -4 -7 -15 2 -34 7 -17 15 -24 22 -17 13
13 40 123 33 134 -8 13 -42 11 -51 -3 -4 -7 -18 -18 -30 -25 -19 -11 -22 -10
-25 10 -2 12 -12 23 -22 25 -15 3 -18 0 -13 -19z"/>
<path d="M6953 7597 c-10 -13 -34 -56 -53 -96 l-35 -72 -50 3 c-39 2 -50 0
-50 -12 0 -10 13 -16 41 -18 l42 -3 -24 -67 c-28 -79 -29 -100 -8 -130 16 -23
66 -30 94 -12 22 14 3 25 -36 21 -27 -2 -34 1 -36 16 -3 38 3 70 23 120 20 49
23 52 65 59 45 6 84 28 72 39 -4 4 -27 3 -51 -3 l-45 -9 20 46 c11 25 33 63
50 84 27 34 30 57 8 57 -5 0 -17 -11 -27 -23z"/>
<path d="M7104 7583 c-4 -15 -22 -59 -39 -98 -61 -133 -107 -257 -100 -273 5
-13 17 -4 58 40 47 51 107 99 107 85 0 -3 -9 -27 -20 -53 -21 -47 -23 -91 -6
-87 13 3 49 102 50 138 2 44 -31 44 -89 -1 -26 -20 -46 -30 -43 -23 3 8 29 67
57 131 28 64 52 127 54 139 3 33 -21 35 -29 2z"/>
<path d="M10124 7531 c-38 -32 -86 -77 -106 -100 -44 -51 -98 -151 -98 -180 0
-12 -4 -20 -9 -17 -13 8 -71 -17 -71 -31 0 -16 24 -17 51 -2 17 8 25 5 49 -21
25 -26 35 -31 58 -26 43 10 82 28 82 37 0 15 -22 21 -33 10 -17 -17 -84 -14
-91 5 -3 9 -6 17 -6 19 0 2 31 26 68 53 85 64 178 161 197 206 8 20 15 51 15
71 0 50 -22 46 -106 -24z m66 -25 c-6 -20 -34 -60 -60 -90 -47 -51 -149 -136
-164 -136 -9 0 21 57 58 109 29 41 166 164 174 156 2 -2 -1 -20 -8 -39z"/>
<path d="M4780 7570 c0 -5 -15 -16 -34 -24 -48 -20 -63 -48 -76 -146 -16 -124
-27 -156 -59 -179 -53 -38 -85 -18 -61 38 12 29 46 51 80 51 11 0 20 7 20 15
0 39 -100 4 -125 -45 -48 -93 29 -150 109 -80 41 36 51 64 66 185 6 49 15 95
19 103 4 8 25 24 47 36 40 22 58 56 30 56 -9 0 -16 -4 -16 -10z"/>
<path d="M6220 7548 c0 -13 -36 -95 -80 -183 -84 -168 -91 -210 -23 -135 38
42 93 78 93 62 0 -5 -7 -29 -15 -52 -16 -46 -12 -80 9 -80 8 0 16 18 20 43 3
23 9 58 12 79 5 30 3 37 -15 43 -11 3 -29 1 -40 -4 -11 -6 -22 -11 -24 -11 -3
0 17 48 43 108 57 126 61 145 38 150 -13 2 -18 -3 -18 -20z"/>
<path d="M9065 7560 c-3 -5 -4 -14 0 -20 3 -5 -10 -41 -30 -80 l-35 -70 -56 0
c-67 0 -72 -23 -5 -28 36 -3 41 -6 36 -20 -42 -99 -44 -109 -29 -131 21 -29
92 -30 117 -1 9 11 17 22 17 25 0 9 -49 5 -55 -5 -3 -5 -17 -10 -31 -10 -32 0
-32 26 1 90 26 52 32 55 128 64 42 4 52 10 42 26 -4 7 -27 9 -67 4 l-60 -7 36
71 c20 39 36 78 36 87 0 17 -35 21 -45 5z"/>
<path d="M5997 7507 c-3 -18 -21 -67 -41 -110 -33 -71 -38 -77 -66 -77 -33 0
-41 -19 -11 -27 20 -5 20 -6 0 -55 -18 -47 -18 -75 2 -63 5 4 19 28 30 56 21
47 23 49 61 49 42 0 78 14 78 31 0 6 -19 7 -52 3 -29 -4 -49 -3 -46 2 3 5 20
41 38 79 38 84 50 145 28 145 -10 0 -17 -13 -21 -33z"/>
<path d="M4013 7486 c7 -17 -24 -121 -64 -223 -27 -69 -29 -108 -6 -100 7 2
15 17 18 33 4 16 23 72 42 124 19 52 38 114 42 138 6 39 5 42 -15 42 -15 0
-20 -5 -17 -14z"/>
<path d="M3181 7481 c-8 -5 -10 -14 -7 -20 8 -13 46 -15 46 -2 0 16 -25 30
-39 22z"/>
<path d="M2185 7430 c-22 -27 -43 -50 -47 -50 -11 0 -38 -104 -28 -114 9 -9
14 -2 59 84 24 48 37 60 89 87 9 4 -11 43 -21 43 -7 0 -30 -22 -52 -50z"/>
<path d="M5817 7464 c-3 -4 -1 -16 4 -27 9 -16 13 -17 20 -6 13 21 11 39 -4
39 -8 0 -17 -3 -20 -6z"/>
<path d="M1944 7377 c-47 -47 -63 -89 -44 -112 18 -22 44 -18 79 11 l31 26 0
-37 c0 -28 4 -36 16 -33 12 2 16 20 20 76 2 39 0 72 -5 72 -5 0 -11 9 -14 20
-8 31 -36 24 -83 -23z m61 -14 c4 -13 -4 -27 -29 -50 -60 -56 -74 -41 -26 25
33 46 44 51 55 25z"/>
<path d="M2342 7394 c-34 -27 -62 -72 -62 -99 0 -9 13 -30 29 -46 22 -21 39
-29 66 -29 57 0 131 38 111 57 -3 3 -23 -2 -46 -11 -55 -22 -86 -20 -112 6
l-22 22 44 13 c72 21 109 70 78 101 -19 19 -50 14 -86 -14z m59 -23 c-11 -20
-71 -46 -71 -31 0 9 59 50 73 50 4 0 3 -9 -2 -19z"/>
<path d="M8257 7414 c-4 -4 -7 -38 -7 -76 0 -72 19 -128 44 -128 14 0 36 62
36 103 0 35 31 51 86 43 33 -4 44 -2 44 8 0 28 -84 35 -130 11 -26 -13 -30
-21 -30 -55 0 -21 -5 -42 -11 -45 -7 -5 -10 16 -8 66 2 67 -6 91 -24 73z"/>
<path d="M7265 7392 c-17 -11 -39 -32 -50 -48 -10 -16 -24 -35 -31 -41 -10
-10 -9 -19 2 -43 32 -62 92 -76 173 -39 62 27 42 44 -27 22 -94 -30 -155 17
-70 55 54 24 70 43 66 79 -4 34 -24 39 -63 15z m35 -32 c0 -5 -15 -17 -32 -26
l-33 -17 24 27 c25 27 41 33 41 16z"/>
<path d="M10616 7350 c-47 -44 -53 -47 -48 -25 3 18 0 25 -12 25 -9 0 -16 -5
-16 -11 0 -21 -54 -133 -97 -204 -48 -78 -50 -85 -25 -85 10 0 29 22 49 58 51
92 53 94 92 82 88 -25 215 105 177 181 -21 43 -59 37 -120 -21z m94 -11 c0
-48 -74 -119 -124 -119 -21 0 -36 5 -36 12 0 18 125 138 143 138 12 0 17 -9
17 -31z"/>
<path d="M3520 7366 c-4 -13 -13 -41 -19 -63 -6 -21 -17 -47 -25 -58 -13 -18
-15 -16 -21 27 -4 25 -4 56 0 68 6 18 3 21 -12 18 -14 -3 -19 -14 -21 -59 -7
-136 62 -147 104 -16 l17 55 51 6 c60 8 85 21 71 35 -7 7 -25 7 -54 0 -30 -7
-48 -6 -55 1 -16 16 -26 12 -36 -14z"/>
<path d="M8063 7365 c-52 -32 -87 -86 -79 -121 11 -41 50 -74 89 -74 42 0 96
22 120 48 26 29 4 38 -31 12 -41 -30 -98 -37 -122 -15 -11 10 -20 22 -20 26 0
4 20 17 46 29 51 25 77 58 72 92 -4 32 -26 32 -75 3z m31 -36 c-10 -12 -32
-28 -49 -36 -29 -14 -29 -13 7 21 40 39 74 50 42 15z"/>
<path d="M8535 7374 c-62 -31 -92 -111 -61 -159 13 -20 24 -25 61 -25 51 0 95
17 95 37 0 21 -31 15 -37 -7 -5 -20 -23 -28 -23 -10 0 6 -13 10 -28 10 -29 0
-52 16 -52 36 0 7 21 20 48 29 71 25 77 30 80 60 6 45 -29 57 -83 29z m55 -25
c0 -11 -69 -43 -77 -35 -5 5 56 46 70 46 4 0 7 -5 7 -11z"/>
<path d="M5409 7366 c-63 -24 -99 -46 -99 -61 0 -20 10 -19 61 9 45 24 99 41
99 31 0 -3 -22 -36 -50 -72 -27 -36 -50 -72 -50 -79 0 -23 41 -16 77 12 l34
26 23 -21 c32 -30 72 -27 107 8 20 21 29 39 29 63 0 18 3 43 6 56 5 16 2 22
-9 22 -18 0 -27 -21 -27 -65 0 -37 -31 -75 -60 -75 -9 0 -25 9 -35 20 -22 25
-42 25 -68 3 -27 -24 -14 -1 31 56 27 34 33 47 25 60 -13 21 -49 23 -94 7z"/>
<path d="M8695 7368 c-2 -7 -16 -45 -30 -84 -41 -117 -32 -123 55 -31 l59 62
-16 -53 c-16 -49 -16 -54 0 -69 13 -14 21 -14 42 -5 32 15 33 34 0 28 -14 -3
-25 -3 -25 0 0 2 9 31 21 64 35 101 14 116 -58 43 -26 -27 -43 -39 -39 -28 15
40 18 73 7 79 -6 4 -13 1 -16 -6z"/>
<path d="M3229 7339 c-35 -22 -53 -43 -68 -79 -24 -55 -25 -66 -11 -75 5 -3
20 16 34 43 24 46 86 112 106 112 14 0 12 -21 -5 -70 -8 -23 -15 -54 -15 -67
0 -48 23 -17 45 60 20 68 21 80 8 92 -21 22 -43 18 -94 -16z"/>
<path d="M3704 7361 c-10 -10 -3 -23 11 -17 21 8 19 1 -10 -28 -31 -31 -41
-71 -24 -92 19 -23 93 -13 125 17 27 25 32 70 11 91 -8 7 -12 19 -10 25 3 9
-11 12 -47 10 -28 -1 -54 -4 -56 -6z m96 -70 c0 -24 -19 -39 -57 -47 -44 -9
-48 9 -12 50 25 30 34 34 50 26 10 -6 19 -19 19 -29z"/>
<path d="M4323 7355 c-39 -17 -63 -61 -63 -114 0 -55 22 -75 73 -67 48 8 97
35 97 54 0 8 -3 12 -8 10 -102 -45 -132 -46 -132 -3 0 21 5 25 29 25 69 0 115
46 91 91 -12 22 -42 24 -87 4z m57 -24 c0 -29 -14 -41 -49 -41 l-36 1 28 24
c28 25 57 33 57 16z"/>
<path d="M10196 7299 c-59 -63 -68 -91 -35 -112 34 -21 126 28 141 75 10 30
-15 98 -36 98 -7 0 -38 -27 -70 -61z m68 -5 c22 -8 4 -39 -37 -64 -64 -39 -76
-20 -22 35 39 39 37 37 59 29z"/>
<path d="M4029 7345 c-8 -8 16 -134 27 -145 26 -26 58 -6 89 55 27 53 33 60
58 57 35 -4 37 25 2 34 -40 10 -55 -2 -82 -66 -15 -33 -31 -59 -37 -57 -6 2
-14 25 -18 51 -10 70 -21 90 -39 71z"/>
<path d="M5731 7295 c-25 -66 -26 -75 -7 -75 7 0 23 26 35 59 25 69 25 71 7
71 -8 0 -23 -24 -35 -55z"/>
<path d="M10375 7328 c-59 -66 -70 -109 -34 -128 64 -35 165 69 127 129 -18
29 -67 28 -93 -1z m69 -40 c-10 -33 -21 -45 -54 -57 -35 -12 -46 -1 -29 31 17
31 39 47 67 48 20 0 22 -4 16 -22z"/>
<path d="M3070 7285 c-23 -56 -22 -89 2 -80 8 3 19 24 25 48 6 23 14 52 18 65
5 16 3 22 -8 22 -8 0 -24 -23 -37 -55z"/>
<path d="M10837 7224 c-11 -11 3 -24 24 -24 12 0 19 5 17 13 -5 14 -31 21 -41
11z"/>
<path d="M8710 5640 c0 -22 -4 -40 -10 -40 -5 0 -10 -13 -10 -29 0 -39 -9 -61
-26 -61 -8 0 -14 -4 -14 -10 0 -5 -9 -10 -20 -10 -11 0 -20 -7 -20 -15 0 -10
10 -15 30 -15 23 0 30 -4 30 -20 0 -11 -4 -20 -10 -20 -6 0 -10 -33 -10 -80 0
-61 3 -80 14 -80 9 0 15 25 20 93 3 50 11 94 16 95 6 2 10 10 10 17 0 15 31
25 78 25 17 0 32 5 32 10 0 6 6 10 14 10 8 0 18 5 22 11 5 9 -12 10 -66 5
l-72 -7 6 48 c4 26 10 63 13 81 4 25 2 32 -11 32 -12 0 -16 -10 -16 -40z"/>
<path d="M8143 5623 c-8 -3 -13 -22 -13 -46 0 -70 -17 -117 -43 -117 -12 0
-29 -5 -37 -10 -12 -8 -11 -10 8 -10 12 0 22 -4 22 -10 0 -5 7 -10 15 -10 12
0 15 -13 15 -57 0 -41 3 -54 10 -43 5 8 10 30 10 48 0 17 5 32 10 32 6 0 10 9
10 20 0 16 7 20 30 20 17 0 30 -4 30 -10 0 -5 7 -10 15 -10 8 0 15 9 15 20 0
17 -7 20 -45 20 l-46 0 5 33 c12 81 16 137 9 136 -4 0 -14 -3 -20 -6z"/>
<path d="M7970 5540 c0 -5 -7 -10 -15 -10 -9 0 -19 -8 -22 -17 -4 -10 -11 -21
-17 -25 -8 -5 -7 -8 1 -8 6 0 14 -14 18 -30 4 -17 15 -35 26 -40 25 -14 25
-61 -1 -83 -31 -26 -56 -21 -72 13 -7 17 -16 30 -20 30 -5 0 -8 10 -8 22 0 17
-3 19 -11 11 -17 -17 8 -101 32 -108 11 -4 19 -11 19 -16 0 -5 9 -9 20 -9 11
0 20 5 20 10 0 6 6 10 13 10 25 0 57 49 57 85 0 19 -4 35 -10 35 -5 0 -10 7
-10 15 0 8 -9 20 -20 27 -11 7 -20 17 -20 21 0 15 24 33 53 41 38 9 36 36 -3
36 -16 0 -30 -4 -30 -10z"/>
<path d="M7284 5476 c-3 -8 -16 -17 -30 -20 -15 -4 -24 -14 -24 -26 0 -11 -4
-20 -9 -20 -4 0 -11 -21 -14 -47 -4 -27 -9 -58 -13 -70 -5 -19 -2 -23 14 -23
16 0 23 11 33 50 7 28 16 50 20 50 4 0 10 16 13 35 12 61 21 45 18 -31 -3 -63
-1 -74 13 -74 9 0 21 13 26 30 6 17 15 30 20 30 5 0 14 11 19 25 10 27 30 34
30 12 0 -15 33 -57 44 -57 3 0 6 9 6 20 0 11 -4 20 -10 20 -5 0 -10 11 -10 24
0 30 -9 56 -20 56 -12 0 -76 -62 -83 -80 -3 -8 -6 10 -6 41 -1 41 -5 58 -16
63 -9 3 -18 -1 -21 -8z"/>
<path d="M7075 5450 c-4 -6 -15 -8 -25 -5 -19 6 -16 22 -36 -220 -4 -41 -10
-75 -15 -75 -5 0 -9 -7 -9 -15 0 -13 -73 -15 -597 -15 -548 0 -642 -4 -621
-25 3 -4 275 -7 605 -8 329 -1 753 -6 943 -10 368 -9 1570 10 1570 24 0 5 132
10 294 11 232 2 292 0 289 -9 -3 -7 -11 -13 -19 -13 -8 0 -19 -9 -26 -20 -7
-11 -18 -20 -25 -20 -7 0 -18 -9 -25 -20 -7 -11 -18 -20 -25 -20 -7 0 -13 -9
-13 -20 0 -25 29 -27 52 -2 37 37 55 52 66 52 6 0 15 6 19 13 4 6 22 19 38 27
17 8 34 21 38 27 4 7 15 13 22 13 8 0 15 4 15 8 0 5 11 14 25 20 38 18 31 39
-15 47 -22 4 -40 11 -40 16 0 5 -11 11 -25 15 -14 3 -25 10 -25 15 0 5 -6 9
-13 9 -18 0 -67 23 -67 32 0 9 -70 31 -77 24 -8 -7 33 -43 58 -51 11 -4 19
-11 19 -16 0 -5 7 -9 15 -9 7 0 18 -6 22 -13 4 -7 23 -19 41 -26 17 -8 32 -17
32 -21 0 -13 -169 -19 -665 -25 -274 -4 -462 -10 -466 -16 -3 -6 -275 -12
-692 -16 l-687 -6 0 36 c0 21 4 37 9 37 5 0 12 15 15 33 4 23 15 38 31 45 14
6 25 16 25 21 0 5 7 17 16 25 16 17 32 96 26 134 -3 18 -10 22 -37 22 -19 0
-37 -5 -40 -10z m45 -36 c0 -44 -21 -112 -37 -119 -14 -5 -15 3 -9 52 4 32 11
60 16 61 6 2 10 10 10 18 0 8 5 14 10 14 6 0 10 -12 10 -26z"/>
<path d="M8285 5449 c-28 -14 -47 -60 -43 -106 l3 -38 61 -1 62 -1 4 66 c3 36
3 69 1 73 -8 16 -31 -5 -37 -34 -11 -54 -76 -104 -76 -58 0 11 5 20 10 20 6 0
10 6 10 13 0 7 11 23 25 35 41 35 28 54 -20 31z"/>
<path d="M8490 5453 c-36 -14 -60 -54 -60 -99 0 -31 4 -44 14 -44 17 0 26 22
26 61 0 16 4 29 8 29 5 0 17 8 28 18 11 11 33 24 49 30 l30 10 -40 0 c-22 0
-47 -2 -55 -5z"/>
<path d="M6840 5422 c-24 -27 -25 -27 -28 -4 -4 24 -22 31 -22 7 0 -8 -4 -15
-9 -15 -9 0 -31 -107 -31 -153 0 -15 5 -27 10 -27 6 0 10 9 10 20 0 11 5 20
10 20 6 0 10 5 10 11 0 18 33 82 52 101 17 17 18 16 18 -37 0 -30 3 -55 8 -55
4 0 13 -13 20 -30 10 -21 21 -30 38 -30 31 0 32 26 0 34 -20 5 -24 14 -30 63
-4 32 -4 73 0 91 5 27 4 32 -12 32 -11 0 -30 -13 -44 -28z"/>
<path d="M5198 5368 c9 -9 15 -9 24 0 9 9 7 12 -12 12 -19 0 -21 -3 -12 -12z"/>
<path d="M8806 4961 c-10 -15 15 -123 31 -139 7 -7 13 -27 13 -43 0 -22 5 -29
19 -29 20 0 31 18 31 50 0 10 4 21 9 24 10 6 71 -15 71 -25 0 -4 17 -13 37
-20 21 -6 44 -18 51 -26 7 -7 22 -13 33 -13 10 0 19 -4 19 -8 0 -5 18 -15 40
-22 22 -7 40 -17 40 -22 0 -5 11 -13 25 -18 14 -5 31 -14 38 -20 49 -41 63
-51 83 -56 12 -3 25 -12 28 -20 3 -8 11 -14 18 -14 8 0 21 -8 29 -17 9 -10 26
-25 39 -33 13 -8 32 -23 42 -32 10 -10 22 -18 27 -18 6 0 12 -4 15 -9 4 -5
-10 -4 -29 2 -19 6 -35 14 -35 19 0 5 -13 14 -30 19 -16 6 -30 15 -30 20 0 5
-6 9 -14 9 -8 0 -21 6 -28 14 -8 7 -38 19 -68 27 -30 7 -57 17 -60 21 -3 4
-39 13 -80 20 -41 7 -77 15 -80 19 -3 3 -43 9 -90 13 -47 4 -86 11 -88 16 -5
13 -42 13 -42 1 0 -5 -40 -12 -90 -16 -49 -4 -90 -11 -90 -15 0 -4 -21 -10
-47 -14 -94 -12 -123 -18 -123 -26 0 -5 -22 -14 -50 -21 -27 -7 -50 -16 -50
-21 0 -4 -9 -8 -20 -8 -11 0 -23 -6 -26 -14 -3 -7 -23 -19 -45 -26 -21 -7 -39
-17 -39 -22 0 -4 -7 -8 -15 -8 -8 0 -24 -9 -35 -20 -11 -11 -31 -22 -45 -26
-14 -3 -30 -15 -36 -25 -5 -11 -15 -19 -22 -19 -7 0 -18 -9 -25 -20 -7 -11
-17 -20 -22 -20 -21 0 -230 -209 -230 -230 0 -5 -9 -15 -20 -23 -10 -7 -24
-25 -29 -40 -6 -15 -15 -27 -21 -27 -5 0 -10 -6 -10 -14 0 -7 -7 -19 -15 -26
-8 -7 -15 -21 -15 -31 0 -21 -26 -26 -32 -7 -9 26 -38 -2 -38 -36 0 -19 -6
-39 -13 -43 -14 -9 -31 -62 -42 -133 -4 -25 -12 -48 -17 -51 -5 -3 -11 -51
-15 -107 l-6 -102 -39 0 c-21 0 -38 -4 -38 -10 0 -5 4 -10 8 -10 5 0 16 -25
26 -55 9 -30 21 -55 27 -55 5 0 9 -13 9 -29 0 -16 3 -36 6 -45 5 -13 8 -13 24
2 11 11 19 38 23 82 4 42 11 68 21 76 9 6 16 17 17 25 2 36 18 -32 18 -78 1
-29 5 -53 9 -53 5 0 14 -41 21 -92 6 -51 16 -95 20 -98 4 -3 16 -38 26 -77 9
-40 21 -73 25 -73 4 0 13 -22 20 -50 7 -27 16 -50 20 -50 5 0 14 -17 21 -37 6
-21 18 -41 25 -46 7 -4 15 -21 19 -37 4 -16 12 -33 18 -37 7 -5 19 -21 27 -38
8 -16 27 -42 43 -57 15 -15 27 -31 27 -37 0 -9 114 -131 123 -131 3 0 21 -15
40 -34 20 -19 44 -37 55 -40 11 -4 23 -13 26 -21 3 -8 12 -15 21 -15 8 0 15
-4 15 -8 0 -5 18 -15 40 -22 22 -7 40 -17 40 -21 0 -5 20 -14 45 -20 25 -6 45
-15 45 -20 0 -8 -170 -16 -252 -11 -28 2 -38 -2 -38 -13 0 -12 17 -15 100 -15
73 0 100 3 100 13 0 8 2 9 8 1 4 -6 53 -14 112 -18 145 -9 200 -16 200 -27 0
-5 20 -9 45 -9 31 0 45 4 45 14 0 13 -59 26 -121 26 -16 0 -29 4 -29 9 0 5
-18 12 -40 16 -22 4 -40 10 -40 14 0 4 -22 14 -50 21 -27 7 -50 17 -50 21 0 4
-16 10 -36 13 -19 4 -38 14 -41 22 -3 7 -11 14 -18 14 -8 0 -20 6 -27 13 -7 7
-27 18 -45 24 -34 12 -46 22 -127 101 -30 28 -59 52 -65 52 -6 0 -11 5 -11 12
0 11 -22 37 -77 93 -13 12 -23 27 -23 33 0 6 -6 15 -13 19 -7 4 -19 23 -26 41
-8 17 -17 32 -20 32 -4 0 -15 25 -25 55 -9 30 -21 55 -25 55 -4 0 -13 19 -20
42 -7 22 -19 47 -26 54 -7 8 -16 32 -20 54 -4 22 -10 40 -14 40 -8 0 -41 152
-41 187 0 12 -4 23 -9 25 -14 5 -31 219 -31 385 0 138 10 213 30 213 4 0 15
20 24 45 10 25 21 45 26 45 4 0 13 14 20 30 7 17 19 30 26 30 8 0 14 6 14 14
0 7 12 26 28 43 15 16 36 43 47 58 11 16 28 36 38 44 9 9 17 21 17 28 0 7 6
13 14 13 8 0 33 18 55 40 22 22 43 40 47 40 4 0 17 10 28 23 12 12 33 29 45
37 13 8 29 20 35 26 6 5 26 17 44 25 17 7 32 17 32 20 0 4 14 12 30 18 17 5
30 14 30 19 0 5 20 15 45 21 25 6 45 15 45 20 0 5 17 12 37 16 21 4 41 11 44
16 3 5 34 15 70 21 35 7 67 17 71 22 10 15 466 15 476 0 4 -6 40 -16 80 -23
39 -7 72 -17 72 -22 0 -5 9 -9 19 -9 11 0 26 -6 33 -13 7 -7 32 -18 56 -25 23
-7 42 -16 42 -20 0 -5 16 -14 36 -21 20 -7 44 -20 54 -30 10 -9 35 -29 55 -46
20 -16 47 -40 59 -52 13 -13 26 -23 30 -23 16 0 140 -139 153 -172 8 -21 19
-38 24 -38 5 0 14 -11 19 -25 5 -14 13 -25 18 -25 5 0 14 -17 20 -38 7 -21 20
-48 31 -60 10 -12 21 -45 25 -72 4 -28 10 -50 15 -50 9 0 31 -89 31 -125 0
-13 6 -25 13 -28 16 -5 18 -454 1 -465 -6 -4 -17 -37 -24 -74 -8 -38 -17 -68
-21 -68 -4 0 -10 -18 -14 -40 -4 -22 -12 -46 -19 -53 -7 -7 -21 -36 -30 -65
-10 -28 -21 -52 -26 -52 -5 0 -11 -13 -15 -30 -4 -16 -12 -33 -19 -37 -7 -5
-21 -27 -31 -50 -11 -24 -23 -43 -27 -43 -5 0 -13 -11 -18 -25 -5 -14 -14 -25
-20 -25 -5 0 -10 -7 -10 -15 0 -9 -8 -19 -17 -22 -18 -7 -52 -42 -53 -55 0
-11 -46 -58 -56 -58 -5 0 -17 -8 -26 -17 -8 -10 -27 -27 -42 -38 -14 -11 -36
-28 -47 -37 -12 -10 -32 -18 -45 -18 -12 0 -30 -7 -38 -16 -9 -8 -32 -18 -51
-21 -19 -3 -35 -9 -35 -13 0 -5 -18 -11 -41 -15 -22 -4 -43 -13 -45 -20 -3 -7
-23 -15 -45 -19 -41 -6 -54 -31 -21 -39 9 -3 0 -5 -20 -6 -23 -1 -38 -6 -38
-13 0 -8 -14 -13 -37 -13 -244 -3 -283 -5 -283 -20 0 -13 22 -15 134 -15 77 0
136 4 138 10 2 5 37 11 78 14 78 5 110 13 110 26 0 4 19 10 41 13 23 3 45 10
48 15 3 6 25 15 49 21 23 7 42 15 42 19 0 5 23 14 50 21 28 7 50 17 50 22 0 5
11 11 25 15 14 3 25 10 25 14 0 5 17 14 37 21 20 6 46 20 57 30 11 11 26 19
33 19 7 0 13 5 13 10 0 6 7 10 15 10 9 0 34 18 56 41 22 23 43 38 46 35 3 -3
8 -28 11 -56 2 -28 8 -53 12 -55 4 -3 21 0 38 6 22 7 34 21 42 45 6 19 15 34
20 34 5 0 11 14 15 31 4 19 15 33 26 36 21 6 26 43 6 43 -7 0 -18 9 -25 20
-10 16 -23 20 -66 20 -34 0 -57 5 -60 13 -5 10 -7 10 -12 0 -3 -7 -12 -13 -19
-13 -20 0 -25 -25 -12 -66 10 -33 9 -38 -7 -48 -11 -6 -26 -19 -35 -28 -8 -10
-21 -18 -29 -18 -7 0 -15 -7 -18 -15 -4 -8 -12 -15 -19 -15 -8 0 -20 -6 -27
-13 -7 -7 -28 -20 -45 -28 -18 -7 -33 -17 -33 -20 0 -4 -13 -12 -30 -18 -16
-5 -30 -15 -30 -20 0 -6 -7 -11 -15 -11 -8 0 -15 5 -15 10 0 6 6 10 14 10 8 0
21 8 28 18 7 9 25 23 41 31 15 8 27 18 27 21 0 4 23 30 50 58 28 28 50 55 50
59 0 4 12 19 25 32 14 13 25 29 25 37 0 8 5 14 10 14 6 0 18 16 27 35 9 19 20
35 23 35 3 0 12 16 20 35 8 19 17 35 21 35 4 0 15 20 25 45 9 25 20 45 24 45
5 0 14 23 21 50 7 28 16 50 20 50 4 0 13 20 20 45 7 25 16 45 20 45 46 0 46
769 0 800 -4 3 -14 22 -20 43 -7 20 -16 37 -21 37 -4 0 -13 15 -21 33 -7 17
-16 34 -19 37 -3 3 -14 22 -23 43 -10 20 -21 37 -25 37 -4 0 -14 15 -22 33 -7
17 -22 41 -32 51 -10 11 -18 26 -18 33 0 7 -9 17 -20 23 -11 6 -20 17 -20 24
0 7 -42 55 -92 105 -117 116 -129 126 -150 134 -10 3 -18 11 -18 16 0 5 -11
12 -25 15 -14 4 -25 13 -25 21 0 8 -7 15 -15 15 -8 0 -19 9 -25 20 -6 11 -17
20 -26 20 -8 0 -17 7 -20 15 -4 8 -12 15 -19 15 -6 0 -22 9 -35 20 -13 11 -34
23 -47 26 -13 4 -23 9 -23 13 0 4 -17 13 -37 20 -21 8 -43 20 -51 27 -7 8 -20
14 -28 14 -8 0 -14 4 -14 8 0 9 -59 32 -83 32 -9 0 -17 6 -17 14 0 8 -13 17
-30 21 -16 4 -30 11 -30 16 0 5 -12 9 -27 9 -16 0 -23 4 -17 8 5 4 18 24 27
44 9 20 23 38 30 41 28 10 -10 22 -83 25 -50 3 -80 0 -84 -7z m-1132 -1283 c7
-27 7 -228 -1 -210 -6 14 -33 16 -33 2 0 -5 -4 -10 -10 -10 -14 0 -12 63 5
153 8 43 15 81 15 83 0 14 19 0 24 -18z m1729 -1369 c-18 -5 -33 -13 -33 -18
0 -5 -27 -14 -60 -21 -33 -7 -60 -17 -60 -21 0 -5 -7 -9 -15 -9 -33 0 -12 19
35 31 28 7 50 16 50 21 0 9 57 26 90 26 21 0 20 -1 -7 -9z"/>
<path d="M8890 3920 c0 -89 0 -90 -25 -90 -19 0 -25 -5 -24 -22 0 -13 3 -17 6
-10 7 18 41 15 46 -5 3 -10 8 -39 12 -65 3 -27 11 -48 16 -48 5 0 14 -11 19
-25 6 -15 17 -25 30 -25 11 0 20 -4 20 -10 0 -15 60 -12 76 4 22 22 17 26 -31
26 -60 0 -82 22 -97 94 -14 64 -7 76 44 76 37 0 58 10 58 26 0 12 -12 13 -65
8 l-65 -7 0 82 c0 47 -4 81 -10 81 -6 0 -10 -37 -10 -90z"/>
<path d="M8390 3810 c0 -28 5 -50 10 -50 6 0 10 -27 10 -60 0 -33 -3 -60 -8
-60 -7 0 -42 73 -42 89 0 5 -5 11 -11 13 -6 2 -14 19 -18 38 -4 23 -13 36 -25
38 -16 4 -18 0 -12 -29 3 -18 10 -35 15 -39 4 -3 14 -22 22 -42 7 -21 16 -38
20 -38 4 0 10 -13 14 -29 8 -35 29 -55 50 -47 12 4 15 26 15 116 l0 110 39 0
c22 0 43 5 46 11 10 15 7 15 -62 22 l-63 7 0 -50z"/>
<path d="M8131 3799 c-11 -12 -23 -35 -26 -50 -4 -16 -13 -29 -21 -29 -18 0
-18 -39 0 -46 8 -3 17 -20 20 -38 3 -17 19 -46 35 -64 27 -29 36 -32 85 -32
31 0 56 4 56 9 0 5 9 13 20 16 32 10 23 25 -15 25 -19 0 -35 -4 -35 -10 0 -5
-16 -10 -35 -10 -45 0 -86 40 -92 90 -5 36 -4 37 31 43 41 7 86 43 86 69 0 46
-74 65 -109 27z m64 -35 c0 -12 -8 -20 -22 -22 -13 -2 -23 -8 -23 -13 0 -5 -7
-9 -15 -9 -21 0 -19 7 13 40 30 32 47 33 47 4z"/>
<path d="M8508 3755 c-22 -30 -23 -92 -2 -133 13 -27 21 -32 52 -32 52 0 82
10 82 26 0 8 -9 14 -20 14 -11 0 -20 -4 -20 -10 0 -17 -39 -11 -60 10 -24 24
-26 50 -5 50 8 0 15 5 15 10 0 6 6 10 14 10 18 0 30 33 21 60 -9 29 -55 26
-77 -5z m42 -25 c-6 -11 -17 -20 -25 -20 -19 0 -19 5 1 24 22 23 37 20 24 -4z"/>
<path d="M8650 3710 c0 -38 4 -70 9 -70 5 0 12 -10 16 -22 6 -20 8 -20 12 -5
2 9 8 17 13 17 4 0 11 21 15 47 5 33 9 42 16 32 5 -8 9 -24 9 -36 0 -13 4 -23
8 -23 5 0 14 -11 20 -25 14 -31 56 -43 77 -22 21 21 19 27 -9 27 -45 0 -55 10
-62 61 -4 27 -15 58 -25 70 -17 20 -18 20 -37 1 -11 -11 -22 -26 -24 -33 -3
-8 -8 1 -12 19 -13 55 -26 35 -26 -38z"/>
<path d="M8546 3334 c-3 -9 -6 -36 -6 -60 0 -24 -4 -44 -10 -44 -6 0 -10 -32
-10 -75 0 -41 4 -75 9 -75 5 0 11 -9 14 -20 4 -17 14 -20 72 -20 41 0 64 4 60
10 -3 6 -24 10 -46 10 -66 0 -73 14 -70 148 1 65 7 120 13 123 6 4 3 9 -5 12
-9 3 -18 -1 -21 -9z"/>
<path d="M9190 3322 c0 -5 -12 -12 -27 -15 -27 -6 -53 -43 -53 -74 0 -9 -8
-11 -25 -7 -29 7 -30 5 -10 -60 8 -27 15 -71 15 -98 0 -26 4 -48 9 -48 5 0 11
-10 13 -22 2 -13 11 -24 21 -26 14 -3 17 4 17 32 0 20 -4 36 -10 36 -5 0 -10
16 -10 35 0 24 5 35 15 35 8 0 15 -4 15 -10 0 -5 11 -10 25 -10 14 0 25 3 25
8 0 4 10 12 23 17 19 9 22 18 25 80 2 59 0 73 -17 90 -34 34 -51 46 -51 37z
m33 -56 c19 -15 25 -106 7 -106 -5 0 -10 -7 -10 -15 0 -20 -56 -20 -76 -1 -16
16 -19 86 -4 86 6 0 10 6 10 13 0 34 41 47 73 23z"/>
<path d="M8798 3222 c-10 -2 -18 -7 -18 -11 0 -4 -10 -18 -21 -30 -12 -13 -18
-26 -13 -30 5 -3 15 -18 23 -33 20 -39 62 -38 101 3 22 24 30 28 30 15 0 -9 8
-20 18 -23 9 -4 21 -12 25 -20 9 -15 45 -17 66 -4 7 5 16 31 18 58 8 74 -5 82
-120 80 -50 -1 -100 -3 -109 -5z m197 -62 c0 -28 -4 -36 -22 -38 -29 -4 -48
30 -33 59 7 13 19 19 33 17 18 -2 22 -10 22 -38z m-135 12 c0 -34 -24 -56 -53
-48 -31 7 -34 19 -9 45 23 25 62 27 62 3z"/>
<path d="M7067 3113 c-11 -10 -8 -53 3 -53 6 0 10 5 10 10 0 6 7 10 15 10 8 0
15 -5 15 -10 0 -6 11 -15 24 -20 15 -5 27 -20 31 -39 4 -17 11 -31 16 -31 5 0
9 -59 9 -135 0 -83 -4 -135 -10 -135 -15 0 -12 -27 4 -33 18 -7 26 13 26 69 0
24 5 44 10 44 6 0 10 35 10 85 0 47 -3 85 -8 85 -4 0 -13 18 -19 39 -12 37
-52 91 -67 91 -4 0 -14 7 -22 15 -16 16 -36 19 -47 8z"/>
<path d="M6563 3065 c-7 -8 -13 -38 -13 -67 0 -65 -8 -98 -25 -98 -6 0 -23
-10 -36 -21 l-24 -21 36 4 37 4 5 -70 c2 -39 10 -72 16 -74 6 -2 11 -10 11
-18 0 -8 7 -14 16 -14 13 0 15 5 9 23 -14 38 -18 177 -6 177 6 0 11 -4 11 -10
0 -5 14 -10 30 -10 43 0 37 17 -10 30 -39 10 -40 12 -39 53 1 23 4 53 8 67 8
26 3 60 -8 60 -3 -1 -12 -7 -18 -15z"/>
<path d="M6868 3050 c-9 -6 -19 -24 -23 -40 -4 -17 -11 -30 -15 -30 -16 0 -40
-101 -40 -163 0 -81 21 -121 69 -136 21 -6 46 -11 55 -11 9 0 16 -4 16 -10 0
-5 21 -10 46 -10 65 0 52 23 -19 34 -31 4 -57 12 -57 17 0 5 -9 9 -20 9 -11 0
-23 7 -26 15 -4 8 -12 15 -20 15 -7 0 -17 12 -20 26 -8 31 2 125 14 133 4 3
14 25 21 49 6 24 25 56 42 71 16 15 29 31 29 35 0 9 -33 7 -52 -4z"/>
<path d="M6376 3024 c-4 -9 -4 -19 -2 -22 10 -9 36 8 36 23 0 20 -26 19 -34
-1z"/>
<path d="M6114 2910 c3 -18 13 -38 21 -44 20 -15 28 -68 13 -87 -7 -9 -23 -21
-35 -28 -25 -13 -31 -41 -9 -41 8 0 30 16 50 36 l37 37 33 -37 c19 -20 39 -36
45 -36 6 0 11 -4 11 -10 0 -5 7 -10 15 -10 8 0 15 5 15 10 0 6 -4 10 -10 10
-5 0 -10 6 -10 13 0 6 -16 27 -35 46 -19 19 -35 37 -35 41 0 4 11 19 25 35 14
15 29 41 32 59 l6 31 -29 -31 c-16 -17 -36 -41 -46 -54 l-16 -22 -7 21 c-3 12
-10 21 -15 21 -5 0 -13 15 -18 32 -5 20 -16 34 -27 36 -15 4 -17 -1 -11 -28z"/>
<path d="M5890 2900 c-7 -16 -16 -30 -20 -30 -11 0 -30 -57 -30 -90 0 -24 14
-44 54 -77 18 -15 136 -18 136 -3 0 6 7 10 15 10 8 0 15 7 15 15 0 8 -9 15
-20 15 -11 0 -20 -4 -20 -10 0 -5 -20 -10 -45 -10 -25 0 -45 5 -45 10 0 6 -9
10 -19 10 -11 0 -23 5 -26 10 -3 6 3 10 14 10 12 0 21 4 21 8 0 5 11 14 24 20
31 14 44 69 26 112 -18 43 -62 42 -80 0z m47 -51 c-6 -47 -4 -44 -36 -54 -23
-7 -24 -6 -17 26 6 32 32 67 50 68 5 1 6 -17 3 -40z"/>
<path d="M4338 2858 c-21 -23 -38 -48 -38 -55 0 -7 -4 -13 -9 -13 -5 0 -15
-26 -22 -57 -7 -32 -16 -60 -20 -63 -4 -3 -10 -45 -14 -93 -7 -83 -6 -89 11
-85 21 4 32 35 33 101 1 26 6 47 11 47 6 0 10 9 10 20 0 16 7 20 30 20 18 0
33 6 36 15 4 8 12 15 20 15 8 0 14 7 14 15 0 7 7 18 17 23 24 14 31 113 8 135
-26 26 -47 20 -87 -25z m66 -45 c-7 -50 -34 -85 -75 -98 -21 -7 -22 -5 -16 31
4 22 12 43 19 49 7 5 19 22 25 38 8 17 20 27 33 27 20 0 21 -4 14 -47z"/>
<path d="M4537 2860 c-9 -22 -21 -40 -26 -40 -5 0 -15 -22 -22 -50 -7 -27 -16
-50 -21 -50 -4 0 -8 -7 -8 -15 0 -25 29 -17 36 10 3 14 10 25 15 25 4 0 16 25
26 56 14 47 21 56 45 61 30 6 37 27 12 37 -30 11 -39 6 -57 -34z"/>
<path d="M5281 2881 c-18 -33 -13 -59 19 -91 34 -34 39 -67 13 -77 -10 -4 -22
-11 -26 -17 -6 -8 -10 -7 -14 2 -2 6 -11 12 -19 12 -8 0 -14 9 -14 20 0 11 -5
20 -11 20 -16 0 -2 -52 18 -67 20 -16 67 -17 94 -3 28 15 27 95 -1 110 -11 6
-23 22 -26 35 -3 14 -11 25 -18 25 -22 0 19 20 42 20 35 0 21 24 -16 28 -22 2
-34 -2 -41 -17z"/>
<path d="M5460 2878 c-33 -36 -18 -106 28 -127 12 -6 22 -17 22 -25 0 -8 6
-17 13 -19 9 -4 8 -8 -3 -16 -24 -17 -58 -13 -70 9 -14 26 -40 26 -40 -1 0
-12 8 -23 20 -26 11 -3 20 -9 20 -14 0 -5 20 -9 45 -9 25 0 45 4 45 9 0 5 8
17 17 27 13 13 14 19 5 22 -6 2 -12 9 -12 15 0 7 -16 27 -35 46 -46 45 -48 86
-5 96 40 9 40 35 0 35 -17 0 -38 -9 -50 -22z"/>
<path d="M6366 2874 c-10 -26 -7 -152 4 -159 6 -4 10 20 10 63 0 61 2 70 20
75 13 3 18 10 14 21 -8 21 -40 21 -48 0z"/>
<path d="M4710 2850 c0 -11 -6 -23 -14 -26 -24 -9 -37 -56 -28 -99 7 -35 12
-40 38 -43 20 -2 39 5 58 22 26 21 28 29 24 68 -8 66 -78 136 -78 78z m43 -88
c-1 -38 -1 -37 -30 -46 -21 -7 -23 -4 -23 32 0 45 6 54 35 50 16 -2 20 -10 18
-36z"/>
<path d="M4895 2844 c-14 -15 -25 -33 -25 -40 0 -8 -4 -14 -10 -14 -5 0 -10
-7 -10 -15 0 -8 4 -15 8 -15 5 0 14 -11 20 -25 6 -14 16 -25 22 -25 7 0 18 -7
26 -15 20 -19 74 -20 74 -1 0 7 -13 16 -29 19 -34 7 -81 47 -81 69 0 23 46 68
70 68 12 0 18 5 15 10 -12 19 -56 10 -80 -16z"/>
<path d="M5088 2842 c-32 -35 -42 -70 -34 -118 8 -41 42 -59 94 -49 30 5 31 7
16 22 -13 14 -17 14 -25 2 -6 -10 -9 -10 -9 -1 0 6 -9 12 -20 12 -13 0 -20 7
-20 20 0 15 7 20 25 20 20 0 25 6 30 34 15 80 -11 107 -57 58z m42 -31 c0 -10
-7 -22 -16 -25 -22 -8 -23 -6 -13 22 10 27 29 29 29 3z"/>
<path d="M5640 2695 c0 -8 9 -15 20 -15 11 0 20 7 20 15 0 8 -9 15 -20 15 -11
0 -20 -7 -20 -15z"/>
<path d="M5388 2407 c-15 -13 -39 -32 -54 -43 -31 -22 -74 -66 -74 -75 0 -15
-41 -16 -55 -2 -13 13 -17 12 -32 -3 -13 -13 -14 -19 -5 -22 16 -5 16 -29 0
-35 -19 -8 13 -28 33 -22 16 6 44 -22 75 -73 10 -18 22 -32 25 -32 4 0 11 -9
14 -20 3 -11 13 -20 21 -20 8 0 19 -11 24 -25 10 -26 31 -40 50 -33 6 2 -4 19
-22 39 -18 20 -42 49 -53 64 -11 16 -25 33 -30 39 -24 26 -43 64 -36 74 4 7
65 13 176 16 94 3 160 3 148 0 -27 -6 -30 -23 -5 -26 59 -5 223 -6 255 -2 43
7 49 21 10 27 l-28 4 28 2 c16 0 30 -5 33 -14 8 -20 179 -22 188 -2 5 10 7 10
12 0 7 -16 234 -19 234 -3 0 6 11 10 25 10 14 0 25 -4 25 -10 0 -5 18 -10 40
-10 22 0 40 5 40 10 0 7 148 10 425 10 277 0 425 -3 425 -10 0 -6 35 -10 85
-10 50 0 85 4 85 10 0 6 7 10 15 10 8 0 15 -4 15 -10 0 -15 47 -12 53 3 4 9 6
9 6 0 1 -20 157 -18 165 2 5 13 -19 15 -174 15 -113 0 -180 4 -180 10 0 14
-27 12 -33 -2 -4 -10 -6 -10 -6 0 -1 15 -211 18 -211 2 0 -5 -9 -10 -20 -10
-11 0 -20 5 -20 10 0 6 -118 10 -335 10 -217 0 -335 -4 -335 -10 0 -5 -7 -10
-15 -10 -8 0 -15 5 -15 10 0 13 -147 13 -152 1 -1 -6 -45 -11 -97 -12 -70 -1
-95 2 -102 12 -8 14 -19 14 -721 19 -24 0 -23 27 0 35 32 9 114 91 110 109 -2
14 -7 13 -30 -7z"/>
<path d="M7830 2232 c-8 -3 -18 -10 -22 -16 -5 -8 -8 -7 -8 2 0 6 -11 12 -25
12 -15 0 -25 -6 -25 -15 0 -12 29 -14 194 -12 179 2 220 7 203 23 -7 7 -296
13 -317 6z"/>
</g>
</svg>
