<?xml version="1.0" standalone="no"?>
<!DOCTYPE svg PUBLIC "-//W3C//DTD SVG 20010904//EN"
 "http://www.w3.org/TR/2001/REC-SVG-20010904/DTD/svg10.dtd">
<svg version="1.0" xmlns="http://www.w3.org/2000/svg"
 width="1618.000000pt" height="1214.000000pt" viewBox="0 0 1618.000000 1214.000000"
 preserveAspectRatio="xMidYMid meet">

<g transform="translate(0.000000,1214.000000) scale(0.100000,-0.100000)"
fill="#000000" stroke="none">
<path d="M12784 11939 c-28 -28 -32 -29 -47 -15 -32 32 -58 34 -104 9 -65 -37
-86 -69 -80 -123 2 -25 7 -52 10 -60 4 -10 -10 -26 -43 -50 -28 -19 -50 -43
-50 -52 0 -28 18 -21 69 25 45 39 52 42 108 44 72 1 117 22 143 66 23 36 26
87 8 106 -11 10 -7 17 16 36 16 12 25 28 22 34 -11 17 -19 14 -52 -20z m-84
-49 l25 -1 -30 -21 c-16 -13 -46 -40 -66 -60 -39 -43 -49 -41 -49 9 0 44 41
88 73 79 12 -3 33 -6 47 -6z m78 -48 c2 -15 -8 -34 -31 -57 -31 -31 -41 -35
-83 -35 l-49 1 64 60 c67 62 94 70 99 31z"/>
<path d="M15120 11948 c-1 -21 -2 -22 -14 -5 -15 20 -35 22 -70 5 -33 -15 -42
-43 -22 -73 22 -34 20 -47 -14 -80 -32 -30 -40 -74 -17 -93 19 -16 64 -25 92
-18 40 10 50 50 25 102 l-21 42 36 48 c35 46 43 83 18 92 -8 2 -13 -6 -13 -20z
m-37 -38 c3 -11 -2 -25 -10 -32 -12 -10 -18 -9 -29 7 -13 17 -13 21 3 32 23
18 30 16 36 -7z m-17 -127 c18 -24 17 -62 -2 -70 -17 -6 -64 12 -64 25 0 11
39 62 47 62 3 0 12 -8 19 -17z"/>
<path d="M13668 11940 c-42 -23 -54 -38 -40 -52 6 -6 22 0 47 16 40 27 65 33
65 15 0 -5 -27 -45 -61 -88 -41 -54 -73 -84 -100 -96 -40 -18 -53 -45 -21 -45
9 1 28 7 42 15 33 19 64 19 80 0 7 -8 23 -15 36 -15 15 0 24 6 24 15 0 8 -7
15 -15 15 -22 0 -57 39 -49 53 4 7 27 37 51 68 59 75 57 120 -5 119 -9 -1 -34
-10 -54 -20z"/>
<path d="M14270 11930 c-30 -16 -68 -29 -83 -30 -18 0 -27 -5 -25 -12 8 -24
56 -19 117 11 70 36 81 38 81 14 0 -22 -87 -133 -104 -133 -7 0 -23 -11 -35
-24 -13 -13 -34 -27 -47 -30 -13 -4 -24 -14 -24 -22 0 -13 7 -15 38 -9 20 3
47 13 59 21 30 19 30 19 37 -16 6 -34 49 -61 67 -43 7 7 2 15 -14 26 -15 10
-27 30 -31 51 -6 32 -2 41 39 91 46 57 57 99 33 123 -19 19 -48 14 -108 -18z"/>
<path d="M14590 11941 c-5 -11 -25 -25 -45 -31 -42 -14 -81 -58 -97 -111 -10
-35 -9 -45 5 -72 17 -31 17 -34 -8 -94 -27 -67 -34 -138 -13 -131 7 3 16 22
20 44 3 21 15 60 27 86 20 47 20 47 48 33 15 -8 35 -15 44 -15 23 0 67 37 84
70 30 57 10 151 -35 165 -24 8 -25 18 -5 35 8 7 15 19 15 26 0 21 -28 17 -40
-5z m-55 -109 c-13 -26 -29 -61 -35 -77 -10 -27 -12 -28 -22 -12 -19 35 36
137 74 137 4 0 -4 -21 -17 -48z m89 6 c22 -31 20 -74 -4 -113 -25 -40 -42 -48
-76 -35 -30 12 -29 23 11 113 27 61 45 70 69 35z"/>
<path d="M13004 11925 c-20 -17 -25 -28 -18 -35 8 -8 3 -38 -16 -103 -16 -52
-24 -96 -19 -101 15 -17 28 6 48 86 11 42 27 90 35 107 31 59 15 84 -30 46z"/>
<path d="M14794 11939 c-3 -6 -2 -14 4 -18 7 -4 4 -32 -8 -86 -24 -101 -26
-185 -5 -185 11 0 15 12 15 48 0 27 9 84 20 127 26 100 26 125 1 125 -11 0
-23 -5 -27 -11z"/>
<path d="M13449 11920 c-20 -10 -39 -26 -43 -35 -8 -22 22 -31 37 -12 13 17
58 37 83 37 12 0 13 -4 3 -22 -22 -42 -94 -120 -136 -150 -41 -28 -53 -50 -34
-63 5 -3 17 2 26 12 12 12 35 17 74 17 43 1 56 5 56 16 0 8 -12 17 -28 20
l-28 5 56 70 c69 87 72 119 10 122 -24 2 -54 -5 -76 -17z"/>
<path d="M13920 11726 c0 -17 27 -29 35 -16 4 6 3 15 0 20 -9 15 -35 12 -35
-4z"/>
<path d="M13075 11710 c-3 -5 -4 -14 0 -20 8 -13 35 -1 35 16 0 16 -26 19 -35
4z"/>
<path d="M6675 11180 c-16 -4 -46 -8 -66 -9 -53 -2 -136 -64 -168 -126 -14
-27 -41 -70 -58 -95 -25 -35 -37 -69 -54 -152 l-21 -107 25 -63 c14 -35 28
-80 31 -101 4 -20 19 -50 34 -66 15 -16 39 -45 55 -64 19 -25 41 -40 70 -48
23 -6 59 -20 79 -30 20 -10 44 -16 53 -13 12 5 15 0 13 -27 -3 -29 0 -34 18
-33 19 0 20 -5 18 -60 -1 -34 -5 -207 -8 -385 -4 -178 -9 -328 -13 -334 -3 -6
-29 -7 -64 -4 -53 6 -65 3 -152 -37 -118 -55 -156 -93 -217 -218 -40 -82 -49
-109 -55 -178 -5 -54 -12 -83 -21 -87 -26 -10 -330 -3 -1174 27 -162 6 -330
10 -374 9 -64 -2 -80 1 -88 15 -6 11 -16 14 -34 10 -22 -6 -24 -3 -24 32 -1
49 -48 170 -86 219 -16 20 -40 60 -54 89 -50 103 -196 169 -373 167 -87 -1
-90 -2 -212 -62 -111 -55 -128 -67 -173 -123 -27 -33 -59 -80 -71 -103 -27
-53 -51 -146 -51 -194 0 -71 41 -212 91 -314 45 -90 56 -105 116 -150 106 -81
109 -83 204 -90 49 -4 92 -11 95 -16 7 -11 47 -12 60 0 5 4 44 21 86 36 42 15
85 36 95 47 10 11 44 38 75 59 78 53 135 138 169 254 l27 90 131 3 c72 2 195
-2 273 -8 267 -20 866 -42 1193 -45 111 -1 120 -2 123 -20 2 -11 13 -55 24
-97 31 -118 88 -177 249 -258 49 -25 78 -33 124 -34 78 -2 86 -17 80 -141 -2
-49 -4 -219 -5 -376 l-1 -286 -67 -7 c-37 -3 -88 -6 -113 -6 -29 0 -55 -7 -70
-18 -13 -10 -45 -30 -70 -44 -41 -24 -88 -81 -128 -157 -54 -100 -70 -290 -36
-411 17 -60 26 -72 108 -152 49 -49 94 -88 100 -88 22 0 140 -60 153 -78 10
-14 28 -16 121 -14 107 3 108 4 143 36 19 18 56 48 82 66 108 75 207 277 211
429 2 70 -1 81 -32 136 -18 33 -54 86 -80 119 -110 140 -112 141 -225 171
l-68 19 3 398 4 399 30 -5 c17 -3 58 3 95 14 36 11 78 20 94 20 21 0 42 13 77
48 27 26 62 60 80 76 38 35 92 148 115 239 l17 68 236 -3 c130 -1 423 3 651 9
228 7 502 14 608 16 l193 4 -6 -36 c-6 -40 37 -254 56 -278 24 -29 148 -103
214 -128 54 -21 92 -28 164 -30 52 -2 101 1 110 6 9 5 55 26 102 48 74 33 92
46 127 92 54 72 100 181 112 268 9 66 8 77 -19 154 -58 167 -108 243 -182 277
-30 13 -66 32 -81 43 -17 11 -62 22 -117 29 -88 11 -92 10 -149 -15 -33 -15
-66 -27 -73 -27 -23 -1 -114 -91 -162 -162 -25 -37 -53 -94 -62 -126 l-16 -58
-72 -14 c-42 -8 -142 -15 -237 -16 -317 -3 -928 -22 -939 -29 -7 -3 -110 -3
-230 1 l-219 7 -7 72 c-12 131 -85 253 -213 357 l-77 62 -91 0 c-51 1 -96 5
-101 9 -8 9 -4 563 6 773 1 30 103 68 158 60 46 -7 133 21 180 58 42 34 98
153 114 240 13 78 6 147 -21 211 -10 24 -22 61 -26 82 -12 69 -35 111 -72 136
-20 13 -58 46 -84 72 -42 43 -54 49 -120 62 -95 19 -156 23 -193 13z m115 -45
c23 -8 60 -15 82 -15 34 0 46 -6 77 -38 20 -21 57 -56 83 -76 36 -29 50 -49
58 -80 6 -22 22 -75 35 -116 28 -85 32 -173 12 -241 -22 -72 -69 -159 -96
-178 -39 -26 -110 -44 -168 -42 -28 1 -61 -3 -72 -9 -17 -8 -19 -8 -15 4 7 18
-13 31 -29 18 -23 -18 -99 -21 -131 -5 -16 9 -51 23 -76 32 -35 12 -58 30 -93
73 -26 31 -49 70 -52 85 -4 15 -16 56 -28 90 -20 62 -20 64 -3 155 15 76 26
105 61 158 23 36 50 77 59 93 26 43 90 84 133 86 21 1 54 5 73 10 19 5 38 9
41 10 4 1 26 -6 49 -14z m-2683 -1684 c103 -27 180 -81 198 -139 3 -12 22 -43
41 -67 54 -71 89 -169 87 -240 -1 -75 -44 -217 -77 -256 -14 -16 -27 -38 -31
-49 -4 -11 -34 -39 -68 -62 -34 -22 -73 -51 -87 -63 -25 -21 -80 -44 -151 -63
-30 -8 -38 -7 -47 9 -16 25 -32 24 -32 -1 0 -23 -4 -24 -29 -11 -9 5 -41 12
-69 16 -52 6 -66 13 -178 99 -42 33 -111 178 -141 296 -21 85 -23 102 -12 155
16 85 59 172 115 232 37 40 75 66 159 108 101 50 115 54 180 54 39 1 102 -8
142 -18z m2863 -82 c112 -82 184 -199 200 -322 5 -45 5 -73 -1 -75 -5 -2 -9
-14 -9 -27 0 -39 -29 -139 -56 -196 -16 -33 -53 -79 -95 -120 -60 -56 -78 -68
-127 -79 -79 -19 -112 -21 -230 -20 -99 1 -106 3 -183 41 -44 23 -102 63 -133
92 -49 48 -55 59 -76 137 -26 98 -29 242 -6 306 26 74 84 179 116 209 17 17
66 46 108 66 l77 35 175 1 175 0 65 -48z m2418 -3 c38 -3 72 -11 89 -23 15
-11 47 -28 71 -38 68 -29 124 -114 172 -259 29 -87 23 -158 -21 -257 -60 -138
-93 -169 -230 -221 -116 -44 -293 -23 -383 46 -17 12 -45 30 -62 39 -17 9 -36
29 -42 44 -24 63 -44 188 -38 238 9 75 52 193 92 252 44 64 127 143 151 143
10 1 38 12 63 25 25 13 52 22 61 19 9 -2 44 -6 77 -8z m-2593 -1757 c56 -17
65 -24 134 -109 133 -165 153 -235 110 -376 -39 -126 -104 -227 -186 -287 -26
-19 -59 -47 -72 -61 -29 -31 -51 -34 -51 -6 0 22 8 21 -120 5 -29 -4 -42 -1
-46 9 -3 7 -15 14 -27 14 -48 -1 -136 49 -211 119 -90 84 -105 117 -113 248
-7 114 21 227 77 314 37 58 46 65 125 118 68 45 254 51 380 12z"/>
<path d="M9157 11133 c-13 -13 -7 -21 21 -28 37 -8 100 -54 119 -86 23 -38 10
-75 -37 -107 -21 -15 -38 -31 -36 -36 6 -23 27 -14 70 27 37 35 46 50 46 78 0
45 -47 102 -111 134 -51 26 -62 29 -72 18z"/>
<path d="M8892 11108 c-39 -50 -53 -119 -31 -160 16 -31 88 -58 158 -59 34 -1
65 1 69 5 12 12 -18 23 -68 25 -113 4 -165 55 -128 124 15 29 34 47 42 40 3
-4 6 3 6 15 0 25 -31 31 -48 10z"/>
<path d="M8375 11033 c3 -21 9 -48 12 -60 6 -28 -30 -65 -60 -61 -13 2 -23 11
-25 23 -8 49 -13 50 -46 11 -44 -53 -60 -43 -53 35 3 33 1 61 -3 64 -27 17
-45 -120 -20 -150 16 -19 50 -19 77 0 18 13 22 13 33 0 21 -25 68 -18 101 14
32 33 33 39 18 111 -7 33 -16 50 -26 50 -12 0 -14 -8 -8 -37z"/>
<path d="M8476 11032 c-8 -14 6 -122 16 -122 6 0 32 23 59 50 69 70 89 66 99
-19 7 -64 30 -66 30 -3 0 58 -28 102 -65 102 -14 0 -40 -14 -60 -31 -37 -33
-35 -34 -51 19 -4 14 -20 16 -28 4z"/>
<path d="M7544 11010 c-24 -9 -64 -56 -64 -75 0 -18 31 -41 73 -55 42 -13 58
-37 36 -51 -14 -10 -67 -7 -106 6 -33 11 -30 -23 3 -35 65 -25 144 -1 144 43
0 33 -11 44 -63 66 -26 11 -47 24 -47 28 1 24 53 59 71 48 12 -8 41 14 33 26
-7 11 -52 11 -80 -1z"/>
<path d="M7718 10960 c-27 -31 -28 -36 -28 -146 0 -71 4 -114 10 -114 17 0 30
47 30 106 l0 55 33 -6 c24 -5 39 -1 59 14 55 44 35 108 -37 117 -36 5 -43 2
-67 -26z m86 -6 c23 -9 20 -51 -4 -64 -16 -9 -22 -8 -26 5 -3 8 -12 15 -20 15
-17 0 -18 22 -2 38 13 13 28 15 52 6z"/>
<path d="M7946 10949 c-30 -35 -33 -61 -10 -83 21 -22 57 -20 79 4 21 23 35
26 35 6 0 -17 26 -39 38 -32 11 6 -31 131 -44 131 -4 0 -12 -13 -17 -30 -12
-36 -35 -65 -53 -65 -36 0 -20 56 18 62 13 2 24 11 26 21 6 30 -43 21 -72 -14z"/>
<path d="M7506 9913 c-13 -13 -5 -60 24 -143 43 -120 40 -169 -10 -195 -32
-17 -40 -12 -40 26 0 20 8 33 30 46 32 18 40 43 15 43 -8 0 -29 -13 -47 -29
-58 -52 -37 -141 31 -126 17 3 42 20 56 37 34 40 33 92 -5 206 -16 50 -30 100
-30 111 0 21 -13 35 -24 24z"/>
<path d="M7357 9844 c-9 -9 -9 -241 -1 -283 8 -40 41 -40 35 -1 -2 14 -5 81
-7 149 -3 116 -10 151 -27 135z"/>
<path d="M7232 9778 c-18 -18 -15 -25 13 -30 31 -6 37 0 24 23 -11 22 -20 24
-37 7z"/>
<path d="M7056 9761 c-4 -6 -5 -19 -2 -29 3 -9 6 -50 8 -90 1 -45 7 -77 15
-84 9 -8 14 -6 18 8 11 37 31 69 40 67 6 -1 12 -19 15 -39 3 -21 11 -39 18
-42 20 -6 15 82 -7 109 -17 22 -20 22 -43 7 l-24 -16 -3 46 c-2 48 -22 84 -35
63z"/>
<path d="M6862 9720 c-45 -28 -68 -82 -51 -122 24 -59 125 -79 168 -34 26 28
10 48 -18 22 -22 -20 -70 -21 -99 0 -52 36 -9 113 71 123 53 7 55 25 2 29 -27
2 -51 -4 -73 -18z"/>
<path d="M7227 9644 c-9 -9 -9 -67 -1 -88 3 -9 13 -16 21 -16 13 0 15 9 9 47
-6 48 -17 69 -29 57z"/>
<path d="M7287 9400 c-14 -11 -31 -20 -38 -20 -15 0 -6 -207 10 -223 18 -18
31 5 31 58 l0 54 35 -1 c44 -2 72 23 81 70 6 31 3 39 -20 59 -33 28 -65 29
-99 3z m77 -26 c19 -18 19 -16 6 -48 -7 -20 -17 -26 -39 -26 -25 0 -29 4 -34
33 -8 49 34 75 67 41z"/>
<path d="M8176 9369 c-14 -11 -26 -26 -26 -32 0 -6 19 -31 42 -54 42 -42 42
-43 16 -43 -15 0 -28 6 -31 13 -3 9 -7 9 -17 0 -23 -21 -4 -43 39 -43 83 0 90
18 31 79 -22 22 -40 45 -40 50 0 13 34 23 53 16 20 -8 34 15 16 26 -23 15 -55
10 -83 -12z"/>
<path d="M10092 9354 c-35 -43 -46 -86 -32 -133 5 -19 7 -37 4 -40 -3 -3 -29
-8 -57 -11 -36 -3 -52 -9 -52 -19 0 -12 14 -14 62 -12 61 2 63 1 74 -26 7 -15
12 -48 13 -73 1 -33 5 -45 16 -45 21 0 25 57 6 110 l-14 44 31 3 c43 4 41 22
-3 26 -43 4 -50 14 -50 78 0 41 5 57 25 78 21 23 29 26 40 16 12 -10 16 -9 21
3 19 49 -44 50 -84 1z"/>
<path d="M7947 9342 c-34 -35 -34 -72 -1 -111 28 -33 75 -42 115 -21 35 19 22
32 -26 24 -31 -4 -50 -2 -60 6 -14 11 -13 14 6 24 34 17 45 41 33 73 -13 38
-34 39 -67 5z m43 -26 c0 -14 -29 -31 -38 -21 -6 6 18 35 29 35 5 0 9 -6 9
-14z"/>
<path d="M8333 9350 c-18 -11 -33 -24 -33 -29 0 -6 20 -24 45 -41 53 -36 59
-55 15 -46 -25 5 -30 2 -30 -14 0 -20 9 -24 45 -20 56 6 62 61 10 91 -42 25
-44 36 -7 45 39 10 46 15 31 25 -22 13 -41 11 -76 -11z"/>
<path d="M7761 9311 c-32 -30 -40 -66 -21 -101 18 -34 130 -39 130 -6 0 10
-10 13 -37 9 -49 -6 -78 14 -70 49 4 13 18 30 32 36 27 12 35 42 11 42 -8 0
-28 -13 -45 -29z"/>
<path d="M10620 9316 c-5 -14 -10 -76 -12 -138 -1 -91 2 -119 16 -146 9 -18
23 -31 29 -29 19 6 21 39 3 49 -19 11 -21 49 -4 66 7 7 31 12 54 12 35 0 47
-5 68 -31 14 -17 26 -41 26 -54 0 -27 17 -42 31 -28 13 13 -8 78 -35 110 -16
18 -36 28 -66 32 l-43 6 47 49 c25 27 46 53 46 58 0 21 -29 3 -83 -49 l-59
-58 5 82 c5 84 -5 115 -23 69z"/>
<path d="M11078 9303 c-125 -131 -93 -263 64 -263 53 0 89 13 75 26 -4 4 -32
7 -61 5 -128 -6 -162 71 -81 182 20 26 42 47 51 47 17 0 16 31 -1 37 -6 2 -27
-14 -47 -34z"/>
<path d="M11320 9323 c0 -10 16 -29 35 -41 42 -29 78 -75 95 -124 12 -31 11
-42 -4 -83 -21 -53 -61 -105 -83 -105 -16 0 -13 -22 4 -27 32 -11 123 116 123
171 0 54 -26 103 -88 164 -67 65 -82 73 -82 45z"/>
<path d="M7437 9299 c-41 -24 -62 -114 -32 -139 12 -10 18 -10 30 0 20 16 19
40 -1 40 -11 0 -14 6 -8 23 10 34 35 57 61 57 14 0 23 6 23 15 0 17 -45 20
-73 4z"/>
<path d="M7569 9293 c-12 -80 3 -113 51 -113 32 0 48 16 56 57 5 25 1 34 -17
47 -24 16 -88 22 -90 9z m74 -39 c10 -10 -12 -44 -28 -44 -15 0 -21 31 -8 43
8 9 28 9 36 1z"/>
<path d="M10451 9186 c-43 -24 -60 -76 -45 -133 4 -13 13 -23 21 -23 12 0 13
8 8 40 -9 54 13 90 55 90 20 0 30 5 30 15 0 8 -4 15 -9 15 -5 0 -15 2 -23 5
-7 2 -24 -2 -37 -9z"/>
<path d="M10250 9177 c-14 -7 -34 -29 -44 -48 -17 -32 -18 -40 -7 -68 16 -38
48 -48 90 -27 44 23 55 48 38 88 -22 52 -47 70 -77 55z m32 -44 c26 -24 23
-58 -7 -71 -33 -15 -33 -15 -44 6 -6 11 -5 28 4 50 16 37 21 38 47 15z"/>
<path d="M3514 8465 c-34 -23 -47 -69 -41 -135 5 -54 3 -60 -14 -60 -10 0 -19
-7 -19 -15 0 -10 10 -15 29 -15 27 0 30 -4 39 -47 7 -33 7 -50 0 -54 -10 -7
19 -49 34 -49 11 0 10 59 -3 104 -13 45 -2 58 46 54 21 -2 30 1 30 12 0 12
-12 15 -52 14 -58 -2 -63 5 -63 81 0 46 21 82 57 96 13 5 21 13 18 19 -9 14
-37 12 -61 -5z"/>
<path d="M3896 8382 c-3 -5 1 -69 9 -143 12 -106 19 -138 35 -153 18 -19 20
-19 26 -2 4 10 2 21 -4 25 -6 3 -17 64 -26 135 -13 120 -25 161 -40 138z"/>
<path d="M2825 8360 c-3 -6 0 -16 8 -24 8 -8 19 -28 26 -44 12 -28 10 -34 -17
-74 -32 -47 -72 -87 -72 -72 0 5 -23 7 -50 6 -35 -3 -58 1 -75 12 -27 18 -33
36 -12 36 20 0 75 62 82 93 9 34 -17 67 -51 67 -28 0 -70 -49 -79 -92 -4 -18
-12 -38 -17 -45 -6 -8 -3 -18 11 -32 12 -12 21 -25 21 -31 0 -29 150 -57 174
-32 4 4 17 7 29 7 14 0 33 17 56 52 l36 51 26 -44 c32 -55 44 -68 58 -60 6 4
-4 31 -28 70 -29 47 -36 67 -29 80 5 9 8 24 6 33 -3 15 -4 15 -20 -1 -17 -16
-19 -15 -35 18 -16 35 -36 46 -48 26z m-138 -46 c4 -13 -35 -74 -52 -81 -24
-9 -28 2 -15 41 15 46 57 71 67 40z"/>
<path d="M3706 8362 c-2 -4 -1 -14 4 -22 7 -11 12 -12 21 -3 6 6 8 16 5 22 -8
13 -23 14 -30 3z"/>
<path d="M3067 8322 c-45 -49 -42 -134 6 -167 23 -16 87 -21 87 -6 0 31 -13
41 -45 35 -28 -5 -34 -3 -40 16 -4 12 -5 22 -3 23 79 41 89 54 65 91 -20 30
-47 33 -70 8z m43 -26 c0 -16 -28 -42 -36 -33 -7 6 18 47 28 47 5 0 8 -6 8
-14z"/>
<path d="M4078 8260 c-25 -22 -49 -51 -52 -66 -9 -34 10 -91 34 -104 29 -15
100 -12 146 7 37 16 42 21 42 51 0 37 -17 39 -33 4 -22 -48 -129 -57 -152 -12
-15 30 -4 46 37 55 61 13 98 63 68 93 -21 21 -44 13 -90 -28z m58 -9 c-16 -17
-56 -35 -56 -25 0 4 62 44 69 44 2 0 -4 -9 -13 -19z"/>
<path d="M3247 8272 c-19 -21 -37 -66 -37 -93 0 -11 13 -34 30 -50 25 -26 36
-30 72 -27 52 4 57 22 7 26 -75 6 -98 71 -43 123 13 12 24 26 24 31 0 15 -37
8 -53 -10z"/>
<path d="M3707 8263 c-3 -5 -3 -40 1 -79 5 -51 11 -69 22 -69 11 0 14 11 11
50 -2 28 -4 61 -5 74 -1 25 -20 39 -29 24z"/>
<path d="M8822 7121 c2 -5 21 -29 43 -53 86 -92 91 -113 45 -197 -35 -64 -35
-61 -12 -61 23 0 72 98 72 143 0 37 -20 70 -80 133 -37 39 -77 60 -68 35z"/>
<path d="M8629 7091 c-39 -31 -73 -112 -65 -156 8 -43 74 -119 116 -133 48
-17 57 9 10 28 -39 16 -86 70 -95 109 -8 40 28 118 61 133 26 12 33 38 10 38
-7 0 -24 -9 -37 -19z"/>
<path d="M7461 7002 c-11 -16 -27 -48 -35 -73 -14 -40 -14 -47 2 -79 17 -34
18 -35 78 -35 37 0 68 5 77 14 27 22 11 28 -43 17 -35 -7 -56 -7 -67 0 -28 17
-25 31 7 44 39 16 70 55 70 89 0 56 -55 70 -89 23z m59 -19 c0 -17 -37 -63
-52 -63 -15 0 -8 27 13 54 23 30 39 34 39 9z"/>
<path d="M7680 7006 c0 -3 9 -21 21 -40 20 -34 20 -36 3 -64 -9 -17 -32 -37
-51 -46 -19 -9 -31 -21 -28 -26 11 -18 35 -10 74 25 l39 35 12 -30 c19 -46 49
-80 71 -80 25 0 24 5 -6 38 -14 15 -32 46 -41 69 -15 39 -15 43 0 58 17 18 22
55 6 55 -5 0 -15 -10 -21 -22 l-12 -22 -19 27 c-17 23 -48 37 -48 23z"/>
<path d="M7964 6985 c-108 -45 -96 -195 16 -195 53 0 118 26 103 41 -8 8 -20
8 -44 0 -45 -15 -85 -14 -103 5 -24 23 -20 44 8 44 30 0 86 51 86 79 0 30 -29
42 -66 26z m16 -50 c-24 -25 -50 -33 -50 -16 0 13 41 41 59 41 10 0 8 -7 -9
-25z"/>
<path d="M8186 6960 c-45 -50 -46 -80 -5 -115 26 -21 38 -25 63 -19 77 16 90
46 16 37 -85 -10 -104 25 -45 84 19 19 35 39 35 44 0 21 -30 6 -64 -31z"/>
<path d="M8795 6328 c-36 -43 -135 -228 -135 -253 0 -7 -16 -19 -35 -25 -42
-14 -50 -46 -9 -36 23 6 25 4 19 -11 -4 -10 -10 -42 -13 -70 -4 -49 -3 -53 17
-53 17 0 20 4 15 28 -7 35 11 106 32 127 8 8 28 15 44 15 16 0 35 3 44 6 27
10 7 24 -35 24 -23 0 -39 5 -39 12 0 19 69 150 106 201 29 40 38 46 59 41 18
-4 25 -2 25 9 0 15 -20 27 -45 27 -7 0 -30 -19 -50 -42z"/>
<path d="M1945 6246 c-27 -18 -79 -60 -115 -94 -52 -48 -62 -62 -48 -67 11 -4
35 11 78 52 78 74 170 132 170 108 0 -18 -50 -126 -96 -206 -30 -52 -54 -103
-54 -112 0 -34 23 -26 83 29 l61 57 17 -57 c21 -70 34 -86 69 -86 32 0 71 43
110 120 18 34 60 226 60 273 0 4 -12 6 -27 4 -20 -3 -29 -10 -31 -27 -2 -12 1
-26 7 -30 16 -9 -11 -155 -39 -210 -33 -64 -61 -100 -80 -100 -18 0 -40 39
-40 69 0 33 -22 81 -36 81 -8 0 -35 -19 -61 -42 l-47 -43 28 45 c47 77 97 193
99 230 2 32 0 35 -28 37 -20 2 -47 -9 -80 -31z"/>
<path d="M7052 6268 c-7 -7 -12 -19 -12 -27 0 -8 -12 -52 -27 -97 l-27 -83
-50 -7 c-28 -4 -66 -6 -83 -5 -18 1 -33 -3 -33 -9 0 -20 48 -30 97 -21 27 5
50 8 52 6 1 -2 -7 -33 -19 -70 -21 -62 -21 -103 -1 -90 5 3 17 31 26 63 33
116 29 113 155 127 8 1 21 3 28 4 6 0 12 6 12 12 0 9 -22 10 -74 6 l-73 -5 30
95 c28 91 28 130 -1 101z"/>
<path d="M7226 6269 c-3 -8 -12 -62 -21 -121 -16 -112 -22 -135 -57 -206 -15
-30 -19 -45 -11 -53 7 -7 22 7 49 47 22 32 54 67 71 77 30 17 33 17 39 2 4 -9
-3 -38 -16 -64 -23 -50 -24 -91 -2 -99 7 -2 12 6 12 23 0 14 9 43 20 65 22 44
25 72 10 101 -13 24 -36 24 -76 0 l-32 -19 8 31 c20 79 33 208 22 219 -8 8
-13 8 -16 -3z"/>
<path d="M3770 6243 c0 -15 -9 -54 -19 -87 -27 -87 -72 -306 -66 -317 13 -20
35 -8 35 19 0 36 37 212 61 288 23 74 25 124 4 124 -10 0 -15 -10 -15 -27z"/>
<path d="M10054 6254 c-6 -16 -80 -149 -91 -164 -2 -2 -24 -7 -49 -10 -55 -6
-58 -24 -5 -28 l39 -3 -19 -50 c-26 -66 -25 -140 1 -164 25 -23 93 -13 88 13
-4 20 -38 29 -48 12 -13 -22 -30 0 -30 38 0 20 10 65 22 99 l21 62 76 17 c99
22 101 22 101 31 0 4 -8 17 -16 28 -14 18 -16 19 -27 4 -14 -18 -93 -46 -103
-36 -3 3 11 34 32 69 20 35 39 66 40 69 2 4 -3 12 -11 19 -12 10 -16 9 -21 -6z"/>
<path d="M3638 6253 c-3 -4 -5 -22 -6 -39 -1 -17 -22 -102 -47 -189 -30 -106
-42 -162 -35 -169 5 -5 12 -7 15 -4 11 11 95 323 98 362 2 35 -14 60 -25 39z"/>
<path d="M8962 6173 c-16 -38 -39 -89 -50 -115 -15 -34 -28 -49 -46 -54 -28
-7 -36 -34 -11 -34 19 0 19 -1 -1 -50 -16 -40 -14 -70 6 -70 5 0 10 7 10 15 0
8 11 39 24 69 24 53 25 54 75 61 36 5 51 11 51 22 0 13 -8 15 -44 10 l-44 -6
20 51 c31 81 57 128 73 128 20 0 19 26 -1 34 -27 10 -30 7 -62 -61z"/>
<path d="M5630 6191 c0 -12 6 -21 16 -21 9 0 14 7 12 17 -5 25 -28 28 -28 4z"/>
<path d="M3504 6189 c-10 -17 23 -46 38 -31 8 8 8 15 -2 27 -15 18 -26 19 -36
4z"/>
<path d="M8330 6170 c-6 -10 -12 -43 -15 -72 -10 -102 -12 -107 -48 -101 -60
9 -129 -74 -107 -132 15 -39 47 -32 98 21 56 59 79 111 88 198 4 42 12 70 20
73 8 3 14 11 14 19 0 21 -38 17 -50 -6z m-57 -206 c8 -8 -41 -72 -65 -85 -15
-8 -18 -6 -18 16 0 41 60 91 83 69z"/>
<path d="M8520 6176 c0 -8 5 -18 10 -21 13 -8 42 14 34 26 -9 15 -44 10 -44
-5z"/>
<path d="M4422 6144 c-12 -8 -36 -43 -54 -77 -17 -34 -34 -64 -39 -67 -16 -11
17 -95 44 -110 23 -13 33 -13 82 0 31 8 56 20 55 25 -1 11 -16 11 -75 2 -44
-8 -59 -2 -68 28 -5 16 3 26 39 47 53 33 76 77 65 128 -8 40 -19 45 -49 24z
m-8 -105 c-15 -16 -29 -27 -32 -25 -2 3 9 28 25 57 26 50 28 51 31 25 3 -20
-4 -37 -24 -57z"/>
<path d="M12400 6112 c-44 -22 -76 -44 -78 -54 -4 -19 22 -25 33 -8 9 14 86
53 92 46 3 -3 -7 -22 -23 -42 -62 -77 -74 -98 -64 -108 6 -6 23 -3 47 9 49 25
51 25 66 -5 20 -41 67 -39 116 5 41 37 61 83 61 138 0 48 -24 25 -37 -34 -9
-40 -20 -61 -45 -81 -49 -42 -78 -34 -78 23 0 21 -21 25 -52 8 -16 -9 -12 0
14 32 44 54 61 86 53 99 -10 16 -25 12 -105 -28z"/>
<path d="M12739 6059 c-58 -57 -63 -65 -66 -111 -4 -68 25 -98 94 -98 55 0
147 22 169 41 26 21 -1 30 -41 14 -21 -9 -68 -19 -105 -22 -62 -5 -69 -4 -79
15 -18 33 -4 72 25 72 63 0 125 48 126 98 2 74 -42 71 -123 -9z m89 4 c-3 -30
-55 -67 -84 -61 -13 2 -7 13 26 46 49 49 63 52 58 15z"/>
<path d="M4750 6096 c0 -8 -19 -35 -42 -61 l-43 -47 -27 21 c-32 26 -49 10
-22 -21 18 -19 18 -21 -24 -56 -23 -21 -42 -40 -42 -44 0 -17 29 -6 72 27 l45
36 69 -25 c37 -14 72 -22 76 -20 16 10 -11 31 -66 49 l-55 19 45 49 c44 49 57
87 29 87 -8 0 -15 -6 -15 -14z"/>
<path d="M3098 6052 c-43 -26 -78 -52 -78 -59 0 -22 21 -25 43 -5 27 24 107
74 107 67 0 -3 -16 -37 -35 -75 -40 -80 -44 -110 -16 -110 11 0 22 4 25 8 3 5
23 21 44 36 l40 27 25 -25 c15 -14 35 -26 45 -26 30 0 64 33 67 65 1 17 6 38
10 48 11 26 -2 33 -25 12 -11 -10 -20 -31 -20 -46 0 -17 -7 -32 -18 -38 -22
-12 -37 -3 -46 27 -9 28 -31 28 -70 -1 -55 -41 -56 -39 -21 35 59 124 45 135
-77 60z"/>
<path d="M7438 6057 c-29 -24 -60 -55 -68 -70 -13 -24 -13 -28 6 -54 23 -31
64 -42 127 -33 60 8 43 25 -30 30 -62 5 -68 7 -71 29 -2 14 0 21 7 17 15 -9
120 45 127 66 7 22 -12 58 -31 58 -8 0 -38 -19 -67 -43z m72 -2 c0 -2 -19 -14
-42 -26 l-43 -21 30 26 c27 23 55 34 55 21z"/>
<path d="M11720 6077 c-25 -13 -46 -30 -48 -39 -2 -8 9 -30 24 -47 33 -39 24
-52 -39 -54 -36 -2 -49 2 -61 18 -14 19 -15 19 -22 2 -12 -32 20 -52 82 -51
86 2 117 43 74 97 -11 14 -20 28 -20 31 0 13 74 35 97 30 21 -6 24 -3 21 12
-5 28 -55 28 -108 1z"/>
<path d="M5993 6037 c-75 -83 -86 -152 -29 -179 27 -12 150 3 187 23 29 15 23
32 -8 25 -115 -26 -154 -29 -170 -13 -13 12 -14 23 -7 48 5 18 16 33 24 34 32
5 91 35 96 50 10 26 -5 65 -25 65 -11 0 -41 -24 -68 -53z m57 -2 c-7 -8 -17
-15 -23 -15 -5 0 -2 9 8 20 21 23 35 19 15 -5z"/>
<path d="M2358 6069 c-25 -14 -68 -91 -68 -122 0 -15 10 -37 21 -48 19 -19 29
-21 81 -15 57 6 158 41 158 56 0 16 -14 15 -77 -6 -77 -27 -125 -30 -141 -11
-9 10 0 21 41 48 54 35 70 67 47 95 -14 16 -38 18 -62 3z m42 -38 c0 -10 -50
-44 -56 -38 -8 7 37 57 47 52 5 -4 9 -10 9 -14z"/>
<path d="M9687 6029 c-30 -27 -60 -49 -66 -49 -11 0 -41 -51 -41 -70 0 -23 29
-7 76 43 83 87 83 87 60 -3 -16 -62 -18 -82 -9 -91 10 -10 13 -9 17 2 26 87
46 168 46 185 0 39 -26 34 -83 -17z"/>
<path d="M11467 5993 c-26 -51 -47 -81 -51 -75 -5 9 -13 9 -27 2 -34 -19 -42
-2 -37 71 4 52 2 69 -8 69 -25 0 -35 -120 -14 -161 12 -22 59 -26 79 -6 7 6
-11 -28 -40 -78 -56 -96 -83 -160 -73 -176 8 -14 34 9 34 30 0 9 18 48 41 86
76 130 169 312 162 319 -15 14 -25 2 -66 -81z"/>
<path d="M3456 6038 c-30 -141 -30 -148 -12 -148 16 0 21 13 30 75 4 22 9 52
12 68 4 20 2 27 -10 27 -9 0 -18 -10 -20 -22z"/>
<path d="M11121 6015 c-41 -45 -52 -80 -29 -103 17 -17 59 -15 86 4 20 14 23
14 28 0 3 -9 15 -16 25 -16 21 0 25 15 8 25 -6 4 -8 22 -4 46 5 31 4 39 -8 39
-9 0 -18 -9 -22 -20 -13 -42 -95 -81 -95 -45 0 8 14 30 31 50 25 28 36 34 57
28 21 -5 24 -3 19 11 -4 10 -7 20 -7 22 0 2 -11 4 -24 4 -15 0 -38 -16 -65
-45z"/>
<path d="M4954 6031 c-30 -18 -64 -74 -64 -103 0 -38 59 -60 100 -38 15 8 21
6 30 -10 6 -11 17 -20 25 -20 11 0 12 6 4 30 -8 21 -7 40 1 65 10 32 10 39 -7
58 -36 43 -45 45 -89 18z m61 -42 c9 -27 -40 -81 -70 -77 -26 4 -23 44 7 75
27 29 55 30 63 2z"/>
<path d="M5222 6015 l-30 -25 -5 22 c-4 12 -9 19 -13 16 -12 -12 -53 -141 -48
-150 10 -16 20 -8 68 57 45 59 66 72 66 41 0 -29 23 -36 51 -15 l28 19 3 -26
c4 -34 27 -49 61 -40 35 8 34 24 0 28 -26 3 -28 6 -25 46 3 48 -11 54 -46 22
-28 -26 -41 -25 -52 5 -12 31 -21 31 -58 0z"/>
<path d="M5555 6031 c-15 -26 -34 -93 -29 -106 10 -25 34 -17 34 10 0 14 7 42
15 62 8 19 15 37 15 39 0 8 -29 3 -35 -5z"/>
<path d="M5713 6023 c-3 -10 -16 -45 -29 -77 -13 -33 -21 -63 -18 -68 10 -16
25 -8 35 20 12 32 78 102 96 102 18 0 16 -41 -3 -68 -18 -27 -15 -67 6 -67 8
0 14 7 12 16 -1 9 5 29 13 45 24 46 20 92 -10 106 -21 9 -28 8 -45 -7 -18 -16
-20 -16 -20 -2 0 22 -29 22 -37 0z"/>
<path d="M9082 6012 c-37 -30 -64 -96 -52 -127 4 -11 19 -26 34 -33 35 -17
106 -7 106 15 0 12 -7 14 -31 9 -84 -17 -107 34 -44 102 20 21 35 31 35 23 0
-8 -12 -27 -26 -42 -41 -42 -25 -58 20 -19 30 27 36 39 34 64 -4 41 -33 44
-76 8z"/>
<path d="M9282 6020 c-35 -38 -57 -150 -28 -150 8 0 15 15 19 39 8 66 28 96
62 96 42 0 41 29 -2 33 -22 2 -37 -3 -51 -18z"/>
<path d="M9441 6014 c-38 -32 -58 -92 -42 -122 15 -28 54 -37 91 -22 36 15 43
46 8 35 -38 -11 -61 -11 -65 2 -3 7 6 17 19 22 40 16 71 57 64 85 -8 34 -35
34 -75 0z m49 -13 c0 -5 -15 -20 -32 -32 -29 -20 -31 -21 -18 -4 14 18 41 44
48 45 1 0 2 -4 2 -9z"/>
<path d="M8431 6012 c-6 -11 -11 -29 -11 -39 0 -10 -7 -31 -15 -46 -13 -25
-13 -29 1 -34 22 -8 30 5 43 66 12 58 2 89 -18 53z"/>
<path d="M10815 6017 c-45 -26 -85 -61 -85 -74 0 -20 14 -16 55 17 21 17 42
30 46 30 5 0 -4 -24 -21 -53 -16 -30 -30 -63 -30 -75 0 -29 27 -29 57 0 21 20
24 20 41 5 29 -26 81 -21 114 10 32 30 35 55 12 108 -11 27 -18 35 -26 27 -8
-8 -8 -23 2 -53 13 -40 13 -42 -9 -60 -36 -29 -70 -25 -82 11 -13 37 -22 37
-49 3 -20 -26 -20 -27 -9 -3 7 14 23 42 37 62 13 20 21 42 17 47 -8 14 -45 13
-70 -2z"/>
<path d="M11941 5819 c-5 -13 -19 -68 -31 -122 -14 -61 -27 -100 -36 -104 -8
-3 -40 0 -71 6 -31 6 -58 9 -61 6 -14 -14 27 -35 78 -41 l58 -6 -13 -57 c-15
-60 -14 -66 9 -58 8 3 18 28 23 59 7 46 12 54 36 60 15 5 39 11 54 16 14 4 28
13 31 20 3 10 -8 11 -49 6 -52 -7 -52 -7 -45 17 30 108 47 202 38 211 -8 8
-14 4 -21 -13z"/>
<path d="M12071 5787 c-6 -14 -17 -61 -25 -104 -8 -43 -26 -111 -40 -152 -24
-69 -26 -91 -7 -91 5 0 27 27 50 60 23 32 45 61 49 64 4 2 7 -17 7 -42 0 -45
1 -47 30 -47 17 0 38 -9 52 -22 23 -24 78 -29 133 -14 28 8 36 51 11 59 -8 3
-11 0 -7 -7 9 -14 -34 -31 -79 -31 -45 0 -53 15 -15 28 50 18 80 56 80 100 0
52 -19 68 -57 50 -30 -14 -82 -83 -83 -109 0 -14 -19 -29 -35 -29 -3 0 -3 23
-2 52 2 64 -18 75 -59 31 -25 -27 -26 -27 -19 -5 4 13 15 63 25 110 10 48 19
93 21 101 7 25 -21 23 -30 -2z m209 -200 c0 -24 -31 -59 -62 -70 -27 -10 -22
14 13 56 35 43 49 47 49 14z"/>
<path d="M4206 5788 c-3 -7 -7 -30 -9 -50 -3 -21 -25 -101 -48 -179 -35 -117
-41 -147 -33 -177 15 -58 34 -52 31 10 -1 38 10 93 40 193 55 183 60 215 39
215 -9 0 -18 -6 -20 -12z"/>
<path d="M3784 5757 c-3 -10 -4 -27 -1 -38 3 -12 3 -18 -1 -15 -5 6 -35 -111
-49 -191 -7 -44 11 -43 59 4 l38 37 0 -32 c0 -20 6 -35 15 -39 9 -3 17 -4 19
-2 8 10 -10 103 -21 106 -6 2 -27 -10 -46 -26 l-35 -31 13 37 c24 71 39 183
27 195 -8 8 -13 7 -18 -5z"/>
<path d="M4457 5753 c-4 -3 -7 -45 -7 -92 0 -97 -21 -153 -72 -196 -35 -30
-78 -34 -78 -7 0 42 77 125 88 93 6 -17 32 -13 32 4 0 9 -11 21 -25 27 -21 10
-30 8 -53 -9 -68 -51 -92 -129 -48 -158 21 -14 28 -14 58 -2 43 18 105 90 118
136 5 20 10 65 10 102 0 38 5 70 12 77 10 10 10 15 -2 22 -18 12 -25 12 -33 3z"/>
<path d="M8886 5735 c-5 -13 -14 -76 -21 -138 -1 -12 -3 -26 -4 -31 0 -5 -24
-6 -51 -4 -43 4 -50 3 -48 -11 2 -11 17 -17 51 -19 49 -3 53 -8 48 -60 -2 -18
2 -23 16 -20 13 3 18 13 18 41 0 26 4 37 15 38 8 0 33 1 54 2 60 3 57 24 -4
29 -28 1 -54 0 -58 -4 -12 -12 5 141 17 156 7 9 7 16 -1 24 -16 16 -25 15 -32
-3z"/>
<path d="M10791 5690 c-6 -28 -11 -60 -11 -71 0 -17 -4 -19 -35 -13 -28 5 -35
3 -35 -9 0 -9 13 -18 30 -22 34 -8 37 -22 16 -83 -10 -28 -11 -44 -5 -48 6 -3
14 -2 19 2 12 14 30 74 30 100 0 21 5 24 39 24 l38 0 -10 -45 c-17 -73 1 -76
64 -10 l54 57 7 -46 c3 -26 12 -54 19 -62 18 -22 31 -2 19 30 -5 15 -10 40
-10 55 0 59 -49 64 -95 10 -14 -17 -25 -27 -25 -22 1 22 40 156 49 167 8 10 8
16 -2 24 -20 17 -33 1 -48 -63 -14 -60 -14 -60 -53 -63 l-38 -3 7 48 c4 26 11
53 17 60 12 14 2 33 -17 33 -8 0 -18 -20 -24 -50z"/>
<path d="M4035 5710 c-7 -12 11 -40 26 -40 14 0 10 26 -5 39 -10 9 -16 9 -21
1z"/>
<path d="M8277 5713 c-3 -5 -8 -24 -12 -43 -14 -73 -26 -100 -45 -100 -25 0
-50 -10 -50 -20 0 -5 15 -10 33 -12 30 -3 32 -5 32 -43 0 -22 3 -41 8 -42 21
-8 27 1 27 37 0 36 3 40 25 40 16 0 25 6 25 15 0 9 -10 15 -26 15 -19 0 -24 4
-20 18 3 9 10 37 16 62 6 25 13 53 16 63 5 17 -20 25 -29 10z"/>
<path d="M14522 5698 c-14 -14 -16 -38 -3 -38 6 0 17 10 27 23 11 15 15 16 11
5 -4 -12 -1 -18 8 -18 24 0 37 -36 26 -75 -13 -48 -69 -122 -97 -129 -33 -9
-30 -26 4 -26 45 0 116 93 128 166 5 34 2 45 -17 67 -28 31 -69 43 -87 25z"/>
<path d="M14248 5682 c-82 -54 -120 -180 -68 -227 20 -18 69 -34 88 -28 22 8
13 33 -12 33 -37 0 -57 11 -66 36 -16 41 33 143 78 163 12 6 22 17 22 26 0 19
-9 19 -42 -3z"/>
<path d="M10626 5671 c-8 -13 20 -45 32 -37 20 12 14 46 -7 46 -11 0 -22 -4
-25 -9z"/>
<path d="M2410 5657 c-36 -18 -36 -44 0 -82 35 -36 35 -61 -1 -83 -18 -12 -23
-12 -30 -1 -11 19 -34 -4 -26 -25 17 -43 117 15 117 67 0 14 -12 40 -27 57
-29 35 -21 50 25 50 13 0 22 6 22 15 0 19 -45 20 -80 2z"/>
<path d="M9085 5661 c-9 -16 13 -51 30 -45 9 4 11 12 6 27 -9 24 -26 33 -36
18z"/>
<path d="M2147 5627 c-15 -35 -120 -137 -142 -137 -21 0 -40 -29 -27 -42 11
-11 52 12 105 60 l27 26 0 -37 c0 -32 3 -37 24 -37 14 0 46 16 72 36 l47 36
-6 -36 c-5 -32 -3 -36 16 -36 21 0 22 5 22 70 0 39 -3 70 -7 70 -3 0 -32 -25
-63 -55 -32 -30 -62 -55 -67 -55 -12 0 -1 53 23 109 10 24 16 47 13 52 -10 17
-24 9 -37 -24z"/>
<path d="M4982 5628 c-37 -39 -67 -106 -113 -248 -38 -120 -38 -122 -22 -127
11 -4 68 103 87 164 4 12 27 31 52 44 26 12 58 39 75 62 69 95 1 186 -79 105z
m76 -31 c3 -22 -6 -38 -42 -74 -26 -25 -49 -44 -51 -41 -8 8 26 112 43 131 22
25 46 17 50 -16z"/>
<path d="M3535 5619 c-20 -18 -43 -45 -50 -60 -14 -26 -13 -30 8 -54 19 -22
33 -27 92 -31 70 -5 104 4 91 24 -4 7 -26 9 -54 6 -58 -6 -106 7 -110 29 -2
10 13 34 33 54 33 33 39 35 80 30 35 -5 45 -3 45 7 0 17 -22 26 -65 26 -24 0
-45 -9 -70 -31z"/>
<path d="M7980 5637 c-59 -20 -47 -48 46 -103 17 -10 17 -12 -6 -24 -13 -7
-39 -13 -57 -12 -42 2 -45 -24 -4 -33 33 -7 105 24 114 50 7 18 -23 48 -64 65
-16 7 -29 16 -29 20 0 10 37 20 73 20 38 0 30 24 -9 27 -16 1 -45 -3 -64 -10z"/>
<path d="M2611 5593 c-35 -42 -41 -54 -41 -95 0 -64 24 -88 85 -88 47 0 95 17
95 33 0 5 -7 4 -15 -3 -8 -7 -15 -8 -15 -2 0 5 -18 7 -45 4 -53 -6 -75 8 -75
49 0 27 3 29 35 29 61 0 109 72 73 108 -24 24 -56 13 -97 -35z m79 3 c0 -21
-28 -46 -51 -46 -16 0 -18 3 -9 20 18 33 60 51 60 26z"/>
<path d="M5150 5618 c-50 -54 -85 -184 -52 -195 7 -3 12 5 12 21 0 49 57 166
81 166 5 0 15 -11 21 -25 11 -25 38 -35 38 -15 0 6 -7 24 -15 40 -19 37 -55
40 -85 8z"/>
<path d="M10283 5620 c-34 -20 -44 -50 -18 -50 8 0 15 4 15 8 0 5 11 14 25 20
61 28 59 8 -5 -69 -27 -33 -50 -67 -50 -75 0 -30 30 -25 90 15 34 23 64 41 66
41 3 0 17 -13 31 -30 13 -16 31 -30 39 -30 17 0 38 46 48 103 6 30 4 37 -9 37
-17 0 -20 -7 -30 -62 -7 -46 -19 -48 -40 -8 -19 37 -31 37 -76 4 -60 -45 -76
-48 -38 -8 50 54 62 79 49 104 -14 26 -55 26 -97 0z"/>
<path d="M6253 5619 c-64 -19 -75 -72 -22 -110 39 -27 38 -49 -2 -49 -22 0
-32 5 -36 20 -7 25 -19 26 -26 1 -7 -29 23 -51 69 -51 72 0 82 30 29 89 -19
21 -35 43 -35 49 0 11 32 24 63 26 9 1 17 4 17 9 0 4 0 12 0 17 0 12 -13 12
-57 -1z"/>
<path d="M6475 5617 c-82 -46 -106 -141 -47 -187 27 -22 84 -26 126 -10 46 17
31 33 -24 25 -39 -5 -56 -3 -75 9 -31 21 -32 42 -2 50 13 3 36 15 50 27 50 38
24 116 -28 86z m21 -43 c-3 -9 -6 -19 -6 -23 0 -4 -6 -8 -12 -8 -7 0 -22 -4
-33 -8 -16 -6 -14 -1 9 23 32 34 52 42 42 16z"/>
<path d="M6736 5615 c-79 -28 -83 -58 -20 -140 19 -26 33 -49 31 -52 -3 -2
-29 0 -58 6 -35 6 -58 6 -64 0 -15 -15 12 -27 81 -35 100 -10 106 6 39 97 -25
34 -45 65 -45 69 0 13 70 37 119 39 11 1 11 4 1 16 -15 18 -33 18 -84 0z"/>
<path d="M12954 5606 c-21 -12 -40 -29 -42 -38 -2 -9 14 -35 35 -58 36 -40 36
-43 18 -56 -18 -14 -32 -17 -85 -18 -32 -1 -34 -30 -2 -34 12 -2 45 4 72 13
67 22 76 52 31 99 -17 17 -31 37 -31 44 0 14 34 33 73 41 15 3 29 11 30 16 4
19 -60 13 -99 -9z"/>
<path d="M6040 5607 c-44 -15 -48 -36 -16 -83 14 -21 23 -41 20 -46 -8 -13
-41 -9 -54 7 -13 16 -40 21 -40 7 0 -22 43 -52 73 -52 60 0 72 34 33 93 -28
41 -25 47 20 47 39 0 52 15 25 29 -11 6 -21 11 -23 10 -2 0 -19 -5 -38 -12z"/>
<path d="M13159 5571 c-35 -36 -52 -63 -64 -105 -9 -31 -30 -87 -46 -123 -17
-36 -28 -67 -25 -70 15 -15 37 14 67 86 24 60 38 81 51 81 29 0 94 37 117 66
38 48 26 114 -21 114 -23 0 -42 -12 -79 -49z m91 -6 c0 -14 -9 -34 -19 -44
-24 -24 -81 -55 -88 -48 -14 14 69 117 94 117 7 0 13 -11 13 -25z"/>
<path d="M13897 5548 c-15 -35 -27 -66 -27 -70 0 -18 25 -4 86 48 36 30 68 53
71 50 3 -2 -2 -19 -11 -37 -21 -43 -20 -49 8 -49 21 0 24 6 30 50 4 28 4 55 1
60 -10 17 -40 11 -75 -15 -41 -30 -40 -30 -37 -4 5 45 -19 27 -46 -33z"/>
<path d="M5527 5572 c-41 -42 -52 -84 -33 -121 21 -40 47 -53 98 -49 59 4 63
28 5 28 -53 0 -77 19 -77 59 0 31 34 81 55 81 7 0 15 7 19 15 10 26 -38 17
-67 -13z"/>
<path d="M13375 5588 c-92 -50 -83 -122 11 -93 l42 12 6 -28 c4 -20 12 -29 25
-29 26 0 37 18 16 26 -14 6 -15 15 -10 55 6 41 4 49 -9 49 -9 0 -16 5 -16 10
0 13 -40 12 -65 -2z m40 -47 c-14 -14 -65 -25 -65 -14 0 15 54 43 65 32 6 -6
6 -12 0 -18z"/>
<path d="M5301 5554 c-16 -20 -32 -48 -36 -61 -6 -27 17 -73 38 -73 27 1 96
40 112 63 21 33 17 101 -7 105 -13 3 -15 -3 -11 -36 5 -34 2 -41 -27 -65 -39
-34 -70 -36 -70 -5 0 24 46 78 67 78 7 0 13 7 13 15 0 29 -47 17 -79 -21z"/>
<path d="M5754 5555 c-41 -43 -53 -95 -30 -129 19 -30 49 -40 76 -26 29 15 25
33 -6 27 -26 -5 -54 14 -54 37 0 8 16 16 36 19 45 8 64 23 64 53 0 23 -24 54
-42 54 -6 0 -26 -16 -44 -35z m56 -20 c0 -8 -4 -15 -9 -15 -5 0 -18 -3 -28 -7
-17 -6 -17 -5 1 15 22 26 36 28 36 7z"/>
<path d="M8410 5558 c-33 -36 -38 -69 -14 -89 13 -10 23 -10 57 0 23 7 52 12
65 12 22 -1 27 13 16 43 -3 9 -11 16 -18 16 -6 0 -16 10 -21 23 -16 35 -50 33
-85 -5z m69 -17 c19 -19 19 -20 -14 -35 -58 -28 -74 -13 -33 31 26 28 23 28
47 4z"/>
<path d="M13577 5541 c-32 -58 -34 -82 -8 -105 21 -19 53 -15 90 13 23 17 24
17 46 -5 43 -43 114 5 115 79 0 47 -23 47 -28 0 -6 -59 -72 -85 -72 -29 0 40
-19 41 -59 2 -36 -35 -81 -48 -81 -23 0 6 11 32 25 56 28 49 31 61 12 61 -8 0
-26 -22 -40 -49z"/>
<path d="M8640 5548 c-28 -38 -35 -113 -10 -113 9 0 16 10 17 25 0 14 1 33 2
43 1 11 9 17 25 17 31 0 40 14 26 40 -15 28 -33 25 -60 -12z"/>
<path d="M7325 5561 c-8 -14 2 -18 88 -32 58 -10 80 -10 89 -1 13 13 9 15 -76
31 -72 13 -93 14 -101 2z"/>
<path d="M9376 5541 c-54 -56 -16 -101 74 -87 l39 6 6 -54 c4 -30 4 -68 0 -85
-5 -26 -11 -31 -34 -31 -34 0 -95 -39 -99 -64 -10 -48 30 -106 71 -106 33 0
63 37 77 93 12 44 14 47 46 47 38 0 45 18 17 41 -13 11 -17 11 -20 2 -3 -7
-10 -13 -17 -13 -8 0 -11 18 -9 63 4 80 -16 171 -40 175 -11 2 -17 -3 -17 -16
0 -30 -70 -47 -85 -21 -11 17 26 50 48 43 14 -5 18 -2 15 13 -5 29 -41 27 -72
-6z m110 -306 c-20 -78 -43 -100 -76 -70 -42 38 -8 93 59 95 20 0 22 -4 17
-25z"/>
<path d="M9196 5539 c-35 -28 -61 -78 -47 -92 7 -7 17 2 32 27 46 78 91 67 81
-21 -4 -35 -2 -45 9 -41 34 11 34 119 -1 138 -28 15 -44 12 -74 -11z"/>
<path d="M10607 5553 c-4 -3 -7 -16 -7 -28 0 -11 -5 -26 -11 -32 -16 -16 -3
-45 18 -41 12 2 18 16 21 56 3 47 -4 63 -21 45z"/>
<path d="M9046 5542 c-3 -5 -8 -26 -11 -48 -8 -46 15 -88 36 -67 10 10 9 15 0
27 -10 12 -11 23 -2 47 6 18 11 36 11 40 0 12 -27 12 -34 1z"/>
<path d="M3954 5526 c-9 -24 0 -61 15 -61 8 0 14 14 16 38 1 26 -2 37 -12 37
-7 0 -16 -6 -19 -14z"/>
<path d="M8507 5412 c-3 -4 6 -39 19 -77 51 -149 15 -315 -67 -315 -24 0 -26
42 -3 64 17 18 44 21 44 6 0 -16 20 -12 27 6 3 9 0 20 -8 25 -45 28 -109 -15
-109 -75 0 -33 21 -66 41 -66 18 0 64 28 86 52 46 50 57 191 24 297 -10 34
-17 61 -14 61 3 0 0 7 -7 15 -14 16 -26 19 -33 7z"/>
<path d="M6679 5358 c-1 -7 -1 -47 0 -88 1 -41 -5 -119 -12 -173 -8 -54 -10
-100 -5 -103 12 -8 28 5 28 23 0 37 33 133 46 133 17 0 23 -26 26 -110 2 -37
7 -64 13 -63 14 3 23 100 14 143 -9 38 -44 74 -65 66 -10 -4 -14 16 -16 86 -2
62 -7 93 -15 96 -7 2 -13 -2 -14 -10z"/>
<path d="M7806 5361 c-7 -11 -22 -211 -21 -286 0 -64 15 -64 60 -1 33 46 35
48 35 22 0 -31 31 -96 55 -116 29 -24 30 0 2 50 -15 26 -27 61 -27 77 0 16 -6
37 -13 48 -14 17 -15 17 -33 -2 -10 -11 -25 -28 -32 -39 -10 -16 -12 1 -8 96
3 63 6 124 8 134 3 20 -16 33 -26 17z"/>
<path d="M12467 5278 c-6 -114 -22 -174 -42 -158 -18 15 -63 -8 -99 -50 -29
-35 -31 -43 -16 -71 14 -26 60 -25 94 2 55 43 100 184 94 299 -5 101 -25 86
-31 -22z m-51 -199 c7 -12 -44 -69 -63 -69 -23 0 -14 38 15 59 31 24 38 25 48
10z"/>
<path d="M5510 5335 c0 -18 5 -25 20 -25 21 0 24 8 14 34 -10 25 -34 19 -34
-9z"/>
<path d="M3323 5338 c-17 -22 -23 -48 -39 -166 -19 -150 -40 -190 -84 -162
-22 14 -1 60 37 79 36 18 44 41 13 41 -25 0 -86 -57 -95 -87 -9 -31 34 -73 74
-73 46 0 61 33 82 178 10 70 23 140 29 156 11 32 0 55 -17 34z"/>
<path d="M3945 5303 c8 -35 13 -39 26 -26 15 15 2 53 -18 53 -12 0 -14 -6 -8
-27z"/>
<path d="M6515 5320 c-3 -5 -3 -20 0 -31 4 -11 4 -36 1 -54 -6 -29 -11 -33
-45 -39 -22 -3 -42 -12 -44 -18 -4 -10 -6 -10 -6 0 -1 14 -47 17 -56 3 -5 -9
28 -34 36 -27 2 2 28 6 57 10 l52 7 0 -76 c0 -60 3 -75 15 -75 12 0 15 15 15
75 0 73 1 75 24 75 14 0 27 4 30 9 8 13 -19 32 -36 26 -12 -5 -15 6 -14 56 1
59 -12 86 -29 59z"/>
<path d="M12960 5307 c0 -7 -16 -48 -35 -92 -46 -106 -62 -179 -45 -200 17
-21 24 -12 26 33 1 21 21 86 44 145 23 59 39 111 35 117 -9 14 -25 13 -25 -3z"/>
<path d="M8254 5295 c-4 -10 -2 -26 5 -36 9 -15 8 -19 -4 -19 -12 0 -15 -18
-15 -104 0 -116 12 -166 41 -166 21 0 26 26 7 33 -10 3 -13 42 -13 150 0 139
-6 181 -21 142z"/>
<path d="M2641 5253 c-5 -21 -11 -51 -13 -68 -3 -28 -5 -30 -42 -27 -48 5 -46
-18 3 -32 18 -5 30 -14 27 -21 -2 -6 -7 -42 -11 -80 -6 -55 -5 -67 6 -63 13 4
17 20 33 111 6 33 10 37 36 37 20 0 30 5 30 15 0 10 -10 15 -29 15 -28 0 -28
0 -20 48 4 26 10 59 14 75 6 21 4 27 -9 27 -9 0 -19 -14 -25 -37z"/>
<path d="M8080 5284 c0 -13 21 -44 30 -44 6 0 10 11 10 25 0 18 -5 25 -20 25
-11 0 -20 -3 -20 -6z"/>
<path d="M2782 5257 c-6 -6 -18 -50 -28 -97 -9 -47 -23 -103 -31 -124 -9 -26
-10 -43 -4 -49 13 -13 30 1 72 63 48 70 62 66 58 -15 -5 -79 11 -89 30 -18 11
43 11 55 0 79 -20 40 -60 44 -88 8 -26 -33 -26 -30 -1 74 11 46 20 85 20 88 0
9 -18 3 -28 -9z"/>
<path d="M5631 5191 c-30 -42 -81 -153 -75 -163 9 -14 34 -9 34 8 0 20 70 154
80 154 12 0 21 -46 21 -116 1 -65 7 -76 29 -50 13 16 7 105 -12 164 -13 42
-48 44 -77 3z"/>
<path d="M11142 5205 c-44 -19 -54 -57 -27 -109 22 -42 19 -49 -20 -43 -19 3
-37 2 -40 -3 -10 -16 24 -31 62 -28 31 2 39 7 41 27 2 13 -4 41 -14 63 -16 36
-16 40 -1 55 10 10 31 17 52 16 29 -1 35 2 33 15 -4 21 -45 24 -86 7z"/>
<path d="M13078 5187 c-53 -41 -70 -72 -64 -116 6 -41 29 -68 66 -76 39 -9
142 12 153 30 4 9 12 13 18 10 5 -4 9 -1 9 6 0 7 -10 9 -27 5 -105 -23 -132
-26 -157 -17 -14 6 -26 15 -26 20 0 5 -2 15 -5 23 -4 10 5 13 33 13 47 0 112
45 112 76 0 65 -47 76 -112 26z m79 -30 c-7 -18 -74 -50 -87 -42 -16 10 6 40
42 58 34 17 55 9 45 -16z"/>
<path d="M5230 5187 c-74 -39 -61 -82 33 -108 65 -17 38 -48 -51 -58 -66 -7
-76 -24 -17 -29 80 -7 162 38 139 76 -12 18 -38 33 -91 53 -18 6 -33 15 -33
18 0 11 68 41 91 41 26 0 20 24 -7 28 -11 1 -40 -8 -64 -21z"/>
<path d="M6940 5203 c-42 -16 -90 -82 -90 -126 0 -46 31 -70 101 -78 73 -9
129 -2 129 16 0 8 -22 12 -75 13 -118 1 -148 19 -79 48 39 17 84 59 84 80 0
15 -35 54 -47 53 -5 0 -15 -3 -23 -6z m34 -42 c7 -11 -33 -47 -61 -56 -30 -9
-30 9 2 40 24 25 49 32 59 16z"/>
<path d="M9991 5191 c-12 -12 -21 -40 -25 -82 -4 -35 -10 -74 -13 -86 -4 -16
-1 -23 10 -23 18 0 23 14 32 90 10 74 20 92 49 84 27 -6 46 14 25 27 -23 14
-58 10 -78 -10z"/>
<path d="M10918 5198 c-36 -13 -36 -38 2 -71 50 -45 26 -66 -50 -46 -32 9 -13
-27 20 -37 78 -26 120 40 60 96 l-30 28 25 6 c14 4 37 3 51 0 24 -6 25 -5 15
15 -13 23 -46 27 -93 9z"/>
<path d="M1963 5193 c-7 -2 -13 -19 -13 -36 0 -18 -9 -52 -20 -76 -23 -49 -25
-67 -10 -76 7 -4 24 22 42 62 27 61 61 103 74 90 2 -2 -1 -27 -8 -56 -9 -39
-9 -54 0 -63 9 -9 25 1 68 46 l56 57 -7 -64 c-7 -60 -5 -66 15 -80 20 -14 26
-14 51 -1 41 21 37 36 -7 28 l-36 -7 7 49 c4 27 9 56 11 65 5 17 -19 49 -36
49 -5 0 -27 -21 -49 -46 l-40 -46 6 49 c4 41 2 51 -12 56 -9 4 -25 2 -35 -3
-13 -7 -21 -7 -25 0 -7 11 -13 11 -32 3z"/>
<path d="M4140 5153 c-87 -87 -76 -136 33 -149 49 -6 57 -4 57 10 0 11 -9 16
-32 17 -18 1 -44 4 -58 8 -24 7 -24 7 10 28 84 52 118 123 62 131 -17 3 -37
-10 -72 -45z m60 -2 c-12 -23 -70 -67 -70 -53 0 8 68 70 78 72 1 0 -2 -9 -8
-19z"/>
<path d="M5465 5188 c-4 -10 -4 -26 0 -35 10 -24 12 -72 3 -66 -5 2 -8 -12 -8
-31 0 -30 14 -55 25 -44 2 2 7 37 10 78 5 59 4 79 -8 95 -14 19 -16 19 -22 3z"/>
<path d="M12154 5186 c-3 -9 -24 -33 -45 -55 -60 -60 -51 -131 18 -131 50 0
113 62 113 113 0 39 -23 72 -58 82 -15 4 -24 2 -28 -9z m49 -67 c21 -33 -48
-101 -87 -86 -25 10 -19 42 14 77 31 33 56 36 73 9z"/>
<path d="M12720 5146 c0 -49 -3 -57 -35 -85 -45 -39 -92 -43 -101 -7 -6 25 10
64 34 82 12 9 12 12 -1 22 -12 11 -19 8 -36 -14 -46 -58 -33 -135 24 -146 33
-7 100 26 125 62 25 36 29 140 5 140 -11 0 -15 -13 -15 -54z"/>
<path d="M2356 5160 c-53 -63 -54 -139 -2 -171 49 -30 116 -24 116 11 0 16 -4
17 -30 7 -25 -9 -36 -9 -58 3 -31 18 -43 60 -17 60 27 0 73 29 80 50 8 27 -19
70 -44 70 -11 0 -31 -14 -45 -30z m43 -42 c-40 -34 -55 -14 -18 23 17 17 23
19 30 8 6 -10 2 -20 -12 -31z"/>
<path d="M9755 5165 c-14 -13 -25 -29 -25 -36 0 -6 -7 -17 -16 -23 -15 -12
-19 -41 -27 -230 -4 -91 48 -31 59 69 5 40 11 55 20 51 23 -9 103 25 125 52
65 83 -62 192 -136 117z m105 -25 c36 -36 19 -79 -37 -101 -35 -13 -83 -11
-83 4 0 27 22 87 36 102 21 21 60 19 84 -5z"/>
<path d="M10415 5171 c-95 -58 -97 -149 -3 -170 35 -8 39 -7 52 21 13 26 13
30 -1 35 -9 4 -21 -1 -28 -10 -16 -22 -28 -21 -49 2 -13 14 -14 24 -7 44 14
35 57 63 74 48 17 -14 27 -4 27 26 0 29 -23 30 -65 4z"/>
<path d="M10634 5156 c-29 -29 -34 -41 -34 -79 0 -37 5 -49 25 -65 49 -39 125
-37 125 4 0 10 -11 12 -42 8 -31 -4 -48 -1 -63 11 -14 12 -16 18 -7 22 7 2 18
10 25 16 7 7 19 13 27 15 38 9 51 44 30 83 -16 29 -48 23 -86 -15z m61 -29
c-8 -18 -65 -42 -65 -26 0 5 12 22 26 36 27 26 50 21 39 -10z"/>
<path d="M11767 5156 c-36 -27 -44 -30 -40 -15 4 12 0 19 -10 19 -8 0 -18 -11
-21 -24 -3 -13 -22 -47 -41 -77 -20 -29 -33 -59 -30 -67 4 -10 30 10 88 72 46
47 89 86 96 86 14 0 9 -10 -32 -62 -24 -32 -26 -39 -13 -44 21 -8 67 11 127
53 l48 33 -6 -50 c-4 -33 -2 -55 7 -65 17 -20 70 -20 70 0 0 10 -10 15 -26 15
-26 0 -26 2 -21 43 4 23 9 57 13 75 9 43 -10 42 -67 -1 -24 -19 -54 -39 -66
-45 -22 -12 -22 -12 2 30 13 23 22 45 19 50 -11 18 -55 6 -97 -26z"/>
<path d="M4966 5125 c-16 -31 -51 -75 -77 -99 -27 -24 -49 -49 -49 -55 0 -21
26 -11 60 24 37 38 50 43 50 20 0 -21 37 -19 70 5 l29 21 3 -42 c4 -55 28 -65
28 -12 1 21 7 56 15 78 8 22 15 50 15 63 0 27 -26 30 -35 3 -6 -20 -84 -101
-97 -101 -9 0 18 90 31 103 6 6 11 19 11 29 0 35 -25 17 -54 -37z"/>
<path d="M5809 5131 c-39 -39 -41 -42 -27 -64 17 -25 65 -34 108 -19 32 12 32
10 45 -80 l7 -48 -40 0 c-77 0 -111 -67 -64 -129 40 -54 104 -31 123 43 7 29
17 46 30 49 10 3 17 1 13 -4 -3 -5 0 -9 5 -9 21 0 11 31 -12 39 -20 8 -25 21
-36 88 -7 43 -13 87 -12 98 2 37 -9 64 -27 64 -9 0 -29 3 -45 7 -23 5 -33 0
-68 -35z m77 1 c6 -4 13 -15 17 -25 5 -13 0 -20 -19 -27 -67 -26 -98 0 -48 39
29 23 34 24 50 13z m54 -249 c0 -34 -24 -83 -42 -89 -37 -12 -66 54 -36 84 13
13 78 17 78 5z"/>
<path d="M7559 5150 c-41 -22 -89 -80 -89 -108 0 -10 11 -29 24 -41 20 -19 36
-23 106 -24 113 -3 119 18 8 27 -111 9 -129 26 -85 77 31 37 84 62 114 54 20
-5 24 -2 21 12 -5 25 -55 27 -99 3z"/>
<path d="M3873 5134 c-21 -33 -30 -129 -13 -149 7 -8 23 -15 35 -15 28 0 53
26 38 41 -8 8 -13 7 -17 0 -4 -6 -14 -11 -23 -11 -13 0 -15 9 -11 50 3 28 13
59 23 69 16 19 14 41 -5 41 -5 0 -17 -12 -27 -26z"/>
<path d="M10177 5153 c-4 -3 -7 -13 -7 -22 0 -8 -9 -34 -20 -57 -37 -75 7
-126 74 -85 35 22 46 39 46 72 0 23 -28 81 -44 91 -14 10 -41 10 -49 1z m63
-94 c0 -20 -48 -62 -61 -53 -16 10 -9 51 13 79 20 26 22 27 35 9 7 -10 13 -26
13 -35z"/>
<path d="M2990 5088 c-35 -48 -39 -92 -10 -108 40 -22 110 19 110 65 0 24 -44
85 -61 85 -5 0 -22 -19 -39 -42z m64 -30 c13 -22 -9 -48 -40 -48 -28 0 -31 16
-8 48 17 25 32 25 48 0z"/>
<path d="M8040 5071 c0 -11 5 -23 10 -26 6 -3 10 -15 10 -26 0 -19 24 -26 35
-10 8 14 -26 81 -42 81 -7 0 -13 -9 -13 -19z"/>
<path d="M4333 4994 c-9 -25 13 -40 32 -20 9 9 13 20 10 26 -9 15 -35 12 -42
-6z"/>
<path d="M4061 4977 c-8 -11 -6 -18 8 -31 18 -17 20 -16 26 3 11 36 -12 54
-34 28z"/>
<path d="M3384 4959 c-10 -17 13 -36 27 -22 12 12 4 33 -11 33 -5 0 -12 -5
-16 -11z"/>
<path d="M10695 4588 c-27 -80 -83 -383 -87 -478 -2 -42 0 -55 12 -57 12 -3
15 8 17 49 3 69 47 323 72 413 11 38 17 73 15 77 -8 12 -24 9 -29 -4z"/>
<path d="M5736 4573 c-3 -4 -6 -20 -6 -37 0 -17 -10 -79 -21 -138 l-21 -106
-34 -6 c-18 -4 -58 -7 -89 -7 -40 -1 -55 -5 -55 -15 0 -9 13 -14 38 -15 51 -2
94 1 114 7 16 5 17 -1 11 -70 -5 -67 -4 -76 11 -76 10 0 16 9 17 23 1 12 2 29
3 37 2 8 3 34 4 56 2 36 6 43 32 54 36 15 42 43 6 34 l-23 -5 23 118 c13 65
24 123 24 129 0 14 -25 26 -34 17z"/>
<path d="M5865 4523 c-10 -96 -24 -173 -49 -278 -13 -55 -22 -103 -20 -107 11
-18 24 -4 54 59 58 126 85 135 75 27 -6 -62 -5 -76 6 -72 7 2 18 33 25 69 11
62 6 100 -15 113 -13 8 -67 -18 -75 -36 -4 -7 -4 -2 -1 12 3 14 12 73 20 131
8 58 17 113 21 123 4 11 1 16 -14 16 -18 0 -21 -8 -27 -57z"/>
<path d="M8642 4538 c-6 -6 -19 -55 -28 -108 l-17 -98 -84 -7 c-62 -5 -83 -10
-83 -21 0 -12 14 -13 80 -8 l80 6 0 -30 c0 -64 -11 -92 -36 -92 -30 0 -30 -9
0 -37 44 -42 52 -32 62 82 5 53 11 75 20 75 16 0 18 16 4 25 -13 8 -5 75 16
154 15 54 9 82 -14 59z"/>
<path d="M8765 4458 c-4 -46 -20 -134 -36 -196 -16 -62 -29 -122 -29 -133 0
-37 27 -18 48 34 29 70 73 123 95 114 9 -3 17 -17 17 -30 0 -29 35 -77 56 -77
9 0 14 -11 14 -29 0 -17 10 -42 24 -58 22 -25 30 -28 81 -26 60 3 99 18 89 34
-3 6 -18 8 -32 4 -59 -13 -105 -9 -118 10 -21 28 -18 65 5 65 10 0 33 13 50
29 25 23 31 37 31 69 0 74 -40 68 -89 -13 -18 -30 -37 -55 -42 -55 -15 0 -39
32 -39 53 0 28 -26 67 -45 67 -8 0 -30 -13 -48 -30 l-35 -30 15 68 c18 86 22
204 7 209 -8 3 -14 -24 -19 -79z m265 -198 c0 -19 -39 -64 -48 -55 -4 4 37 75
44 75 2 0 4 -9 4 -20z"/>
<path d="M10092 4448 c-9 -67 -60 -246 -97 -340 -14 -36 24 -18 44 20 24 46
75 102 94 102 8 0 18 -15 23 -32 6 -22 20 -38 43 -50 18 -9 40 -26 48 -38 21
-29 83 -25 99 7 6 13 13 22 15 20 2 -1 1 2 -3 7 -4 6 -15 2 -26 -7 -23 -21
-58 -22 -65 -3 -3 8 11 32 34 55 27 29 39 51 39 71 0 41 -10 60 -30 60 -26 0
-56 -42 -71 -100 -7 -28 -15 -50 -18 -50 -16 1 -30 18 -36 43 -4 16 -18 35
-32 44 -22 15 -26 15 -54 -6 -16 -12 -29 -19 -29 -17 0 3 11 40 24 83 32 102
44 213 23 213 -10 0 -17 -22 -25 -82z m202 -222 c-9 -14 -20 -26 -25 -26 -9 0
8 45 25 69 19 25 19 -15 0 -43z"/>
<path d="M10521 4453 c-7 -43 -22 -114 -33 -158 -22 -88 -29 -188 -13 -193 6
-1 13 22 17 52 4 30 14 83 23 118 18 69 45 213 45 241 0 9 -6 17 -13 17 -9 0
-18 -27 -26 -77z"/>
<path d="M2687 4514 c-3 -3 3 -22 13 -42 43 -85 33 -239 -21 -323 -40 -63 -92
-84 -141 -58 -18 10 -20 19 -17 92 4 86 -3 100 -37 70 -10 -10 -28 -25 -38
-33 -18 -14 -19 -13 -12 14 4 17 30 77 57 134 27 58 49 113 49 123 0 27 -55
25 -102 -4 -51 -31 -120 -96 -113 -108 10 -15 17 -11 65 32 49 43 96 72 110
67 5 -2 -13 -49 -40 -104 -86 -178 -90 -229 -15 -185 20 11 38 21 41 21 2 0 4
-22 4 -50 0 -27 4 -50 10 -50 5 0 7 -6 4 -14 -7 -19 34 -46 69 -46 122 0 208
168 178 350 -16 100 -38 139 -64 114z"/>
<path d="M12239 4503 c-4 -49 -37 -224 -42 -229 -3 -3 -24 -8 -47 -11 -23 -3
-39 -10 -37 -17 5 -15 55 -20 71 -7 10 8 11 0 5 -42 -12 -81 -11 -107 5 -107
15 0 26 42 26 101 0 33 4 41 26 49 14 6 42 7 62 4 34 -5 37 -9 39 -41 1 -19 9
-45 17 -58 20 -30 87 -50 116 -35 24 13 25 32 4 94 -18 53 -52 75 -90 57 -15
-6 -25 -6 -32 1 -6 6 -38 11 -71 12 -49 1 -60 4 -56 16 4 14 35 204 35 215 0
8 -30 6 -31 -2z m216 -310 c8 -20 15 -39 15 -44 0 -15 -58 -10 -74 7 -20 19
-20 28 -1 44 8 6 14 15 13 18 -4 35 30 17 47 -25z"/>
<path d="M4112 4448 c-21 -95 -52 -302 -52 -345 0 -32 4 -43 15 -43 11 0 15
11 15 41 0 23 12 109 26 193 31 174 33 198 18 203 -6 2 -16 -20 -22 -49z"/>
<path d="M4246 4458 c-3 -18 -17 -104 -31 -190 -15 -86 -24 -162 -20 -168 11
-18 38 -12 32 9 -2 10 6 76 18 147 36 203 38 234 21 234 -9 0 -17 -13 -20 -32z"/>
<path d="M14160 4462 c-91 -13 -121 -24 -107 -39 4 -3 47 -1 96 5 48 7 102 12
120 12 20 0 31 5 31 14 0 21 -35 23 -140 8z"/>
<path d="M4817 4464 c-4 -4 -7 -41 -7 -82 0 -85 -18 -163 -59 -255 -39 -87
-71 -100 -71 -28 0 42 31 94 60 101 27 7 27 24 -1 28 -50 8 -109 -105 -88
-168 25 -70 89 -40 131 62 41 97 56 167 59 260 2 75 -6 100 -24 82z"/>
<path d="M14557 4463 c-15 -14 -6 -33 16 -33 14 0 40 -15 60 -35 31 -30 37
-43 37 -79 0 -32 -6 -50 -25 -70 -48 -52 -130 -71 -174 -40 -19 14 -22 23 -18
50 9 56 81 130 98 102 11 -17 39 -1 39 21 0 31 -16 34 -63 13 -107 -48 -142
-187 -56 -222 63 -27 174 12 215 74 20 32 20 110 -1 142 -18 27 -92 84 -110
84 -6 0 -15 -3 -18 -7z"/>
<path d="M15182 4392 c-13 -42 -39 -112 -59 -155 l-36 -77 22 -24 c62 -66 161
-12 161 87 0 42 -15 57 -57 57 -18 0 -33 1 -33 3 0 2 11 37 25 77 28 82 31
110 13 110 -7 0 -23 -35 -36 -78z m56 -174 c4 -38 -38 -80 -76 -76 -38 4 -39
30 -1 73 39 44 72 45 77 3z"/>
<path d="M7344 4439 c-7 -12 12 -29 33 -29 19 0 27 21 12 31 -19 12 -36 11
-45 -2z"/>
<path d="M6090 4420 c0 -15 5 -20 18 -18 9 2 17 10 17 18 0 8 -8 16 -17 18
-13 2 -18 -3 -18 -18z"/>
<path d="M3904 4419 c-3 -6 -2 -15 4 -21 11 -11 52 6 52 22 0 14 -47 13 -56
-1z"/>
<path d="M15416 4411 c-3 -4 1 -17 9 -27 11 -15 16 -16 26 -7 10 10 9 15 -1
28 -14 17 -26 19 -34 6z"/>
<path d="M12940 4385 c0 -16 6 -25 15 -25 9 0 15 9 15 25 0 16 -6 25 -15 25
-9 0 -15 -9 -15 -25z"/>
<path d="M14147 4353 c-13 -32 -32 -82 -42 -110 -9 -29 -21 -55 -25 -58 -5 -3
-38 -8 -74 -12 -65 -6 -82 -17 -65 -44 6 -9 11 -11 17 -3 9 13 195 39 218 30
23 -9 37 3 23 20 -6 8 -26 14 -45 14 l-33 0 23 68 c13 38 31 82 40 100 20 38
20 52 2 52 -7 0 -25 -26 -39 -57z"/>
<path d="M9822 4350 c-51 -37 -53 -61 -12 -116 48 -63 37 -95 -44 -129 -30
-13 -41 -13 -52 -4 -22 18 -42 -4 -24 -26 34 -41 163 22 184 91 5 15 -4 36
-29 72 -19 28 -35 56 -35 61 0 14 64 51 88 51 11 0 24 -4 27 -10 9 -15 35 -12
35 5 0 8 -9 19 -19 25 -35 18 -77 11 -119 -20z"/>
<path d="M6246 4319 c-30 -24 -35 -72 -10 -107 21 -30 15 -96 -9 -100 -10 -2
-25 5 -32 15 -11 14 -16 15 -26 6 -20 -20 17 -53 57 -53 36 0 47 13 58 69 4
25 1 42 -15 67 -28 47 -22 77 19 89 17 5 32 15 32 22 0 20 -44 15 -74 -8z"/>
<path d="M15543 4328 c-30 -14 -29 -29 3 -67 14 -17 23 -38 20 -46 -8 -22 -53
-18 -73 5 -16 18 -43 27 -43 14 0 -11 23 -49 34 -56 25 -17 82 -8 105 15 24
27 21 47 -13 86 l-21 24 27 -7 c31 -7 45 8 28 29 -14 17 -36 18 -67 3z"/>
<path d="M6865 4267 c-26 -55 -135 -180 -165 -190 -11 -3 -12 -7 -4 -17 16
-16 45 0 92 52 l37 41 5 -48 c7 -66 29 -79 70 -40 l30 29 0 -30 c0 -28 28 -82
30 -59 4 39 12 166 14 195 2 52 -15 52 -33 0 -20 -57 -45 -103 -65 -119 -14
-12 -16 -8 -16 29 0 23 12 75 26 117 18 52 23 78 16 85 -8 8 -19 -6 -37 -45z"/>
<path d="M7136 4304 c-45 -44 -52 -107 -15 -135 23 -17 23 -20 8 -46 -10 -20
-21 -27 -37 -25 -17 2 -22 -2 -22 -17 0 -15 6 -21 23 -21 24 0 56 28 77 69 10
20 9 26 -14 50 -33 34 -33 61 -1 99 14 17 25 33 25 36 0 12 -29 6 -44 -10z"/>
<path d="M3455 4254 c-66 -50 -91 -84 -65 -84 6 0 30 15 53 33 66 53 68 53 46
-12 -12 -34 -19 -78 -17 -103 4 -62 32 -63 97 -3 l50 47 15 -35 c35 -84 102
-67 135 34 9 29 9 41 -5 68 -15 30 -17 31 -29 14 -12 -15 -12 -20 0 -32 23
-24 -11 -101 -45 -101 -18 0 -40 45 -40 81 0 39 -24 30 -84 -32 l-60 -64 -4
30 c-1 17 9 64 23 105 14 41 27 82 28 90 4 29 -30 17 -98 -36z"/>
<path d="M11969 4297 c-9 -6 -21 -22 -28 -34 -10 -20 -7 -28 29 -67 44 -48 41
-60 -17 -72 -27 -5 -33 -16 -24 -41 3 -8 88 31 99 44 20 27 14 43 -25 79 -31
28 -36 38 -27 52 6 9 24 19 40 22 16 3 29 10 29 15 0 15 -58 17 -76 2z"/>
<path d="M7463 4276 c-37 -31 -85 -120 -81 -149 5 -39 30 -24 47 29 20 61 46
104 66 104 17 0 24 -24 27 -95 4 -66 22 -64 28 3 6 60 -8 105 -38 121 -17 9
-26 6 -49 -13z"/>
<path d="M11509 4288 c-52 -14 -93 -59 -93 -104 0 -28 7 -43 32 -65 28 -25 40
-29 95 -29 34 0 69 5 77 10 11 7 11 10 2 10 -7 0 -11 4 -8 8 2 4 -24 6 -59 4
-58 -4 -66 -2 -90 22 -19 20 -24 32 -19 49 12 39 36 57 95 69 36 7 59 17 59
25 0 15 -38 16 -91 1z"/>
<path d="M2862 4283 c-16 -6 -47 -67 -56 -110 -9 -41 16 -96 50 -112 48 -22
129 -6 118 24 -5 11 -2 14 12 9 14 -5 16 -4 8 5 -8 9 -18 8 -40 -4 -37 -19
-64 -19 -92 1 -36 25 -29 58 18 77 42 16 49 33 31 80 -10 26 -28 37 -49 30z
m17 -74 c-8 -5 -17 -9 -21 -9 -12 0 -9 25 4 38 9 9 14 9 21 -4 6 -11 5 -19 -4
-25z"/>
<path d="M7677 4279 c-21 -12 -47 -61 -47 -88 0 -19 26 -41 48 -41 5 0 25 11
45 24 44 30 47 25 47 -85 l0 -79 -29 0 c-38 0 -88 -42 -96 -80 -13 -61 35
-150 81 -150 30 0 54 45 61 116 7 64 17 74 47 45 23 -22 46 -28 46 -12 0 5
-18 25 -40 45 l-40 36 -1 82 c-1 126 -11 182 -31 186 -11 2 -18 -3 -18 -12 0
-13 -4 -12 -20 4 -23 23 -28 24 -53 9z m37 -45 c3 -8 11 -12 17 -8 8 4 9 3 5
-5 -4 -6 -20 -18 -36 -26 -36 -19 -48 -4 -26 30 19 29 31 32 40 9z m48 -301
c-7 -68 -25 -118 -42 -118 -19 0 -42 48 -43 92 -1 40 29 73 68 73 21 0 22 -3
17 -47z"/>
<path d="M14948 4249 c-55 -58 -48 -109 15 -109 39 0 87 30 94 58 3 14 -1 39
-10 58 -22 46 -52 44 -99 -7z m62 -24 c0 -8 6 -15 13 -15 23 -1 -35 -40 -59
-40 -37 0 -30 35 11 58 27 15 35 15 35 -3z"/>
<path d="M6035 4258 c-25 -82 -29 -167 -6 -142 10 10 31 103 31 134 0 22 -18
27 -25 8z"/>
<path d="M7302 4257 c-14 -17 -21 -136 -9 -144 17 -10 25 12 29 85 5 71 1 84
-20 59z"/>
<path d="M11836 4263 c-3 -3 -6 -17 -6 -30 0 -31 -27 -83 -43 -83 -32 0 -51
28 -50 69 2 46 -20 58 -31 17 -16 -65 26 -120 87 -114 25 2 36 10 49 38 25 52
21 130 -6 103z"/>
<path d="M4894 4169 c1 -77 4 -93 20 -105 11 -8 23 -14 27 -14 17 0 61 46 80
81 19 37 19 42 4 73 -18 38 -28 44 -90 51 l-43 5 2 -91z m94 39 c18 -18 15
-49 -8 -85 -21 -36 -44 -43 -54 -17 -10 25 -7 84 4 84 6 0 10 7 10 15 0 18 31
20 48 3z"/>
<path d="M13080 4251 c-23 -4 -36 -12 -38 -25 -4 -16 0 -18 35 -12 21 4 47 10
58 13 13 4 7 -9 -23 -43 -34 -38 -42 -54 -40 -78 3 -30 5 -31 52 -31 31 0 51
5 54 13 2 8 -9 12 -37 12 -24 0 -41 5 -41 11 0 7 21 36 46 66 66 77 50 95 -66
74z"/>
<path d="M13325 4246 c-36 -16 -82 -67 -91 -101 -8 -31 11 -64 44 -76 15 -6
67 -13 116 -16 74 -5 88 -4 84 8 -3 10 -30 16 -87 21 -75 6 -131 26 -131 46 0
23 46 75 76 88 44 18 82 15 47 -4 -12 -6 -32 -13 -45 -15 -13 -2 -25 -12 -27
-22 -3 -15 2 -17 30 -11 18 3 44 13 57 22 70 46 10 96 -73 60z"/>
<path d="M12597 4226 c-9 -13 -24 -23 -33 -22 -11 1 -17 -7 -19 -24 -1 -14 -5
-40 -9 -57 -12 -52 19 -42 45 15 l21 47 10 -32 c10 -38 20 -41 56 -12 l26 20
12 -33 c6 -18 19 -35 29 -37 15 -2 16 1 10 20 -4 13 -7 41 -7 61 1 20 -3 40
-9 44 -6 3 -28 -8 -50 -25 l-39 -32 0 46 c0 51 -18 60 -43 21z"/>
<path d="M3880 4224 c-20 -23 -19 -98 1 -102 12 -2 15 5 15 30 0 18 4 45 8 61
9 30 -4 36 -24 11z"/>
<path d="M15381 4221 c-6 -11 -11 -43 -11 -71 0 -76 -18 -134 -52 -169 -35
-36 -72 -40 -88 -11 -14 25 -30 26 -30 1 0 -30 28 -51 66 -51 26 0 43 9 72 38
44 44 62 99 62 184 0 30 5 59 10 64 8 8 6 15 -4 23 -12 10 -17 9 -25 -8z"/>
<path d="M12877 4213 c-8 -13 9 -103 21 -115 19 -19 22 -5 14 57 -6 53 -22 79
-35 58z"/>
<path d="M10984 4084 c1 -40 -3 -49 -36 -80 -21 -19 -47 -34 -59 -34 -12 0
-19 -5 -17 -12 8 -23 38 -20 77 5 42 28 83 98 61 105 -10 4 -10 6 0 12 15 9 4
50 -14 50 -9 0 -13 -15 -12 -46z"/>
<path d="M9220 4085 c0 -3 5 -14 12 -24 9 -15 8 -42 -6 -124 -22 -138 -40
-187 -82 -231 -36 -37 -88 -50 -97 -23 -12 35 47 107 122 146 16 9 20 16 12
24 -15 15 -51 -3 -105 -54 -74 -67 -82 -136 -20 -159 36 -14 83 9 122 57 47
60 60 101 86 286 12 82 12 89 -5 97 -19 11 -39 13 -39 5z"/>
<path d="M12211 4023 c-13 -9 -43 -58 -67 -109 l-43 -92 -60 -7 c-36 -4 -62
-12 -65 -21 -8 -20 4 -23 54 -14 25 5 48 9 52 10 9 0 -22 -81 -58 -151 -17
-34 -22 -55 -16 -61 17 -17 27 -3 72 107 l43 107 54 -7 c43 -5 53 -4 53 8 0
10 -14 18 -40 22 -22 4 -42 10 -45 14 -2 5 13 45 35 89 44 91 69 108 115 78
27 -18 47 -14 39 8 -6 17 -48 36 -77 36 -13 0 -33 -7 -46 -17z"/>
<path d="M8966 4018 c-2 -7 -11 -35 -21 -63 -60 -165 -86 -252 -83 -279 4 -46
22 -38 30 14 6 41 19 81 77 242 12 32 21 67 21 78 0 22 -19 28 -24 8z"/>
<path d="M5474 4005 c-3 -8 -3 -19 1 -25 3 -5 2 -10 -4 -10 -5 0 -13 -21 -17
-47 -3 -27 -10 -55 -15 -64 -9 -19 -90 -41 -129 -37 -17 2 -25 -2 -25 -12 0
-19 51 -25 101 -11 21 6 40 9 42 7 2 -2 -13 -41 -34 -85 -25 -56 -34 -85 -27
-92 13 -13 56 67 50 93 -3 11 0 18 9 18 7 0 19 18 25 39 13 45 31 56 61 40 23
-12 33 -6 24 16 -3 8 -19 18 -36 22 -22 4 -29 10 -26 22 3 9 8 34 12 56 4 22
11 45 16 52 11 13 3 33 -13 33 -5 0 -12 -7 -15 -15z"/>
<path d="M5669 4018 c0 -2 -2 -30 -5 -63 -7 -86 -32 -203 -55 -254 -41 -93 -8
-98 45 -7 42 71 86 120 86 94 0 -9 -7 -35 -15 -58 -20 -55 -19 -59 9 -71 19
-9 35 -6 83 13 l60 24 9 -30 c5 -17 20 -37 34 -44 32 -16 102 -10 137 13 36
24 16 30 -47 15 -43 -10 -54 -10 -75 4 -36 24 -31 38 23 63 27 12 54 33 61 47
24 44 -4 95 -44 80 -8 -3 -30 -29 -49 -57 -27 -42 -44 -56 -85 -72 -28 -11
-51 -23 -51 -27 0 -4 -9 -6 -20 -5 -24 2 -24 4 -4 73 12 43 13 58 4 69 -18 22
-34 18 -70 -15 l-31 -29 5 27 c9 42 26 164 26 190 0 13 -6 22 -15 22 -8 0 -15
-1 -16 -2z m331 -222 c0 -15 -50 -60 -58 -52 -6 7 37 66 49 66 5 0 9 -6 9 -14z"/>
<path d="M3143 3998 c-25 -39 -33 -66 -44 -141 -13 -88 -36 -125 -75 -119 -27
4 -74 -14 -74 -29 0 -7 10 -9 28 -5 15 4 45 9 66 12 l39 6 -6 -76 c-5 -61 -4
-76 7 -76 16 0 26 43 26 110 0 53 8 60 67 60 51 0 37 24 -16 28 l-43 3 7 57
c11 92 26 142 47 153 10 5 16 14 13 20 -9 13 -32 11 -42 -3z"/>
<path d="M8547 4003 c-2 -4 -5 -26 -5 -48 0 -25 -15 -76 -40 -133 -22 -51 -36
-95 -31 -98 5 -3 29 8 54 25 41 27 45 28 45 11 0 -27 20 -68 36 -74 21 -8 25
10 9 40 -8 16 -15 44 -15 62 0 35 -14 41 -46 17 -33 -25 -34 -17 -7 43 27 61
35 134 17 152 -7 7 -14 8 -17 3z"/>
<path d="M8784 3976 c-6 -16 11 -46 27 -46 15 0 10 37 -6 50 -12 10 -16 9 -21
-4z"/>
<path d="M3706 3957 c-2 -6 -9 -52 -16 -101 -6 -49 -22 -118 -36 -154 -18 -48
-21 -68 -13 -76 8 -8 17 -3 33 18 11 17 35 46 53 65 l31 36 7 -30 c11 -51 24
-75 41 -75 11 0 14 5 9 18 -4 9 -13 37 -19 62 -14 50 -33 61 -70 36 -24 -15
-24 -15 -16 22 5 20 11 66 15 102 4 36 9 68 11 71 2 4 -3 10 -11 13 -9 3 -17
0 -19 -7z"/>
<path d="M2625 3940 c-4 -7 -2 -17 4 -23 17 -17 13 -117 -8 -162 -27 -60 -98
-145 -121 -145 -30 0 -40 30 -21 64 24 42 49 56 62 34 14 -25 29 -22 29 6 0
24 -16 36 -50 36 -10 0 -32 -16 -49 -35 -23 -27 -31 -45 -31 -75 0 -43 18 -60
64 -60 31 0 106 82 142 156 21 44 24 62 22 130 -2 64 -6 79 -20 82 -9 2 -19
-2 -23 -8z"/>
<path d="M4045 3930 c-8 -13 14 -42 26 -34 5 3 9 14 9 25 0 20 -24 26 -35 9z"/>
<path d="M11378 3926 c-57 -21 -88 -44 -88 -68 0 -11 18 -40 40 -64 22 -24 40
-48 40 -53 0 -15 -68 -31 -101 -24 -22 4 -29 2 -29 -10 0 -22 53 -31 97 -16
77 24 82 49 23 113 -22 24 -40 48 -40 53 0 13 66 43 95 43 18 0 25 5 25 20 0
23 -11 24 -62 6z"/>
<path d="M9985 3883 c-43 -22 -85 -64 -78 -77 4 -6 -3 -3 -14 7 -25 22 -30 16
-43 -55 -5 -29 -26 -95 -47 -146 -27 -67 -34 -95 -26 -103 15 -15 39 23 68
108 22 65 24 68 62 76 89 17 186 150 141 195 -15 15 -26 15 -63 -5z m45 -29
c0 -4 -9 -23 -21 -43 -25 -46 -85 -89 -101 -73 -14 14 11 55 56 94 28 25 66
37 66 22z"/>
<path d="M8275 3879 c-38 -11 -123 -76 -143 -110 -35 -61 25 -118 109 -104 59
10 51 34 -10 33 -49 -1 -81 13 -81 36 0 15 77 89 109 106 13 7 36 9 52 6 34
-7 45 7 23 28 -17 18 -17 18 -59 5z"/>
<path d="M11095 3874 c-73 -38 -82 -70 -34 -120 l32 -33 -36 -15 c-20 -8 -45
-12 -57 -9 -18 5 -21 2 -18 -13 2 -11 13 -20 26 -22 31 -5 112 36 112 56 0 9
-14 31 -32 49 l-32 33 26 27 c15 14 43 29 64 32 20 3 39 12 42 19 6 18 -56 15
-93 -4z"/>
<path d="M10123 3848 c-34 -38 -95 -147 -88 -158 12 -19 24 -10 46 35 32 64
78 117 96 111 22 -9 36 3 22 20 -17 21 -53 17 -76 -8z"/>
<path d="M10305 3852 c-38 -27 -75 -86 -75 -117 0 -48 35 -71 83 -56 35 12 70
43 80 73 9 25 -12 86 -33 98 -22 12 -41 13 -55 2z m50 -78 c0 -34 -4 -41 -34
-56 -18 -9 -39 -14 -47 -11 -32 12 -4 85 40 103 33 13 41 6 41 -36z"/>
<path d="M12689 3812 c-81 -69 -78 -68 -67 -22 6 22 8 43 5 47 -12 12 -35 -18
-41 -55 -4 -20 -9 -49 -12 -64 -8 -41 11 -35 76 21 56 49 56 49 52 20 -2 -16
0 -29 4 -29 5 0 35 16 67 36 32 20 59 34 60 33 21 -40 26 -44 62 -44 48 0 59
22 13 27 -29 3 -33 7 -36 36 -2 17 -9 32 -15 32 -7 0 -36 -16 -64 -35 -52 -35
-52 -35 -43 -9 22 57 1 59 -61 6z"/>
<path d="M3402 3828 c-44 -12 -122 -88 -122 -119 0 -51 35 -69 143 -77 66 -4
79 -3 75 9 -3 9 -30 17 -84 22 -43 4 -85 14 -93 21 -20 21 -5 53 42 87 33 24
50 30 82 27 29 -2 40 1 40 11 0 20 -43 29 -83 19z"/>
<path d="M10755 3809 c-20 -18 -43 -45 -51 -60 -19 -38 -18 -92 4 -111 22 -21
86 -38 102 -28 19 12 2 30 -29 30 -15 0 -35 8 -44 18 -18 20 -22 33 -9 30 14
-4 90 41 96 57 15 40 0 95 -26 95 -4 0 -23 -14 -43 -31z m45 -29 c0 -21 -42
-54 -61 -48 -12 4 36 68 52 68 5 0 9 -9 9 -20z"/>
<path d="M4410 3800 c-17 -18 -30 -43 -30 -55 0 -55 73 -75 108 -30 l20 25 11
-50 c6 -28 11 -73 11 -100 0 -47 -1 -50 -26 -50 -17 0 -40 -13 -64 -38 -62
-62 -76 -189 -23 -209 25 -10 94 72 119 143 l22 59 13 -28 c12 -27 29 -32 36
-10 2 6 -7 23 -20 39 -20 24 -25 44 -31 114 -16 229 -25 251 -67 168 -30 -59
-62 -77 -76 -42 -8 22 36 66 60 58 14 -5 18 -2 15 13 -6 31 -45 28 -78 -7z
m106 -322 c-11 -55 -65 -148 -86 -148 -34 0 -5 127 36 159 40 32 58 28 50 -11z"/>
<path d="M10547 3803 c-19 -16 -45 -45 -57 -65 -22 -40 -19 -58 17 -90 21 -19
113 -36 113 -20 0 6 3 17 6 26 5 12 0 16 -20 16 -14 0 -26 -4 -26 -9 0 -11
-39 -3 -57 12 -7 5 -13 18 -13 27 0 24 47 79 77 91 25 9 32 39 10 39 -8 0 -30
-12 -50 -27z"/>
<path d="M12495 3808 c18 -59 17 -65 -10 -87 -29 -22 -65 -28 -65 -11 0 23 31
70 46 70 9 0 14 6 12 13 -14 39 -88 -26 -88 -77 0 -54 61 -62 115 -15 37 33
43 60 23 104 -15 32 -43 35 -33 3z"/>
<path d="M12315 3810 c-24 -9 -97 -102 -122 -155 -12 -25 -14 -38 -6 -46 7 -7
20 6 41 45 17 30 46 71 64 91 26 30 36 36 59 31 36 -7 45 8 17 28 -25 18 -25
18 -53 6z"/>
<path d="M8708 3778 c-20 -32 -39 -89 -32 -99 11 -18 34 -9 34 14 0 12 9 40
20 62 24 47 24 45 6 45 -7 0 -20 -10 -28 -22z"/>
<path d="M2766 3760 c-62 -55 -71 -139 -19 -180 39 -30 123 -26 123 7 0 11 -9
13 -44 8 -37 -6 -47 -4 -66 15 -33 33 -23 62 26 75 45 11 74 31 74 49 0 15
-37 56 -50 56 -5 0 -25 -14 -44 -30z m54 -25 c0 -8 -6 -15 -14 -15 -8 0 -23
-3 -33 -7 -17 -6 -17 -5 1 15 22 25 46 29 46 7z"/>
<path d="M4164 3744 c-19 -20 -32 -39 -29 -44 3 -4 -2 -13 -10 -20 -19 -16
-20 -50 -1 -50 11 0 28 32 23 44 -1 2 6 13 17 25 10 11 16 26 14 33 -4 9 4 13
23 14 31 1 32 -4 7 -84 -10 -34 -5 -62 11 -62 5 0 11 12 14 28 3 15 10 47 16
71 7 24 9 52 6 62 -10 32 -53 24 -91 -17z"/>
<path d="M3936 3734 c-12 -32 -6 -112 9 -118 12 -4 14 4 13 45 0 28 4 55 11
62 16 16 13 27 -8 27 -10 0 -22 -7 -25 -16z"/>
<path d="M7335 3738 c-2 -7 -9 -31 -14 -53 -5 -22 -22 -83 -38 -135 -32 -104
-34 -106 -125 -109 -24 -1 -38 -6 -38 -14 0 -22 8 -24 62 -16 29 5 54 7 56 4
10 -9 -24 -112 -43 -128 -11 -10 -15 -16 -8 -13 6 4 16 -1 21 -10 13 -23 29
-10 37 29 4 17 13 55 21 84 l15 52 67 3 c79 4 83 23 5 24 -29 0 -55 2 -58 5
-3 3 6 43 20 89 14 46 25 91 25 100 0 9 7 31 16 48 15 31 12 52 -7 52 -5 0
-12 -6 -14 -12z"/>
<path d="M14097 3643 c-3 -37 -21 -122 -40 -188 -42 -145 -57 -213 -50 -232
10 -25 30 5 37 53 3 25 22 103 42 172 24 83 37 149 38 191 1 89 -19 92 -27 4z"/>
<path d="M8290 3686 c0 -9 7 -16 16 -16 9 0 14 5 12 12 -6 18 -28 21 -28 4z"/>
<path d="M8020 3584 c-18 -46 -100 -385 -100 -411 0 -41 27 -26 34 20 4 23 27
123 51 222 27 110 41 183 35 189 -6 6 -14 -2 -20 -20z"/>
<path d="M5718 3570 c-8 -14 -21 -59 -27 -100 -24 -159 -81 -260 -147 -260
-24 0 -25 3 -19 33 8 34 60 97 82 97 7 0 13 6 13 14 0 32 -24 25 -70 -21 -59
-59 -75 -113 -42 -145 18 -18 24 -19 56 -8 80 26 130 116 157 280 7 41 18 82
26 91 7 8 13 22 13 30 0 12 -2 12 -9 0 -7 -11 -9 -11 -13 0 -3 9 -10 6 -20
-11z"/>
<path d="M7916 3578 c-2 -7 -14 -49 -26 -93 -13 -44 -34 -116 -48 -160 -13
-44 -26 -88 -29 -99 -4 -13 -1 -17 12 -15 12 3 29 45 66 164 26 88 49 170 49
182 0 25 -18 41 -24 21z"/>
<path d="M13783 3483 c-7 -54 -21 -127 -32 -163 -13 -42 -17 -68 -11 -74 6 -6
10 -18 10 -28 0 -29 41 -50 76 -38 38 13 84 83 84 126 0 58 -50 82 -98 48 -22
-15 -23 -15 -17 8 22 97 27 209 10 215 -6 2 -15 -37 -22 -94z m95 -173 c4 -36
-37 -94 -70 -98 -22 -3 -26 1 -31 30 -5 28 0 38 29 66 40 38 68 39 72 2z"/>
<path d="M10215 3560 c-9 -15 4 -30 26 -30 23 0 26 25 3 34 -21 8 -22 8 -29
-4z"/>
<path d="M11989 3568 c0 -2 -10 -34 -22 -73 -24 -75 -33 -82 -109 -84 -28 -1
-38 -5 -38 -17 0 -14 9 -16 59 -11 l58 5 -33 -103 c-19 -57 -31 -111 -28 -119
10 -27 34 -19 34 11 0 15 14 71 32 125 23 70 37 98 48 98 37 0 120 31 120 45
0 18 0 18 -67 -1 -30 -9 -56 -14 -59 -12 -2 3 3 27 11 54 17 57 19 84 5 84 -5
0 -10 -1 -11 -2z"/>
<path d="M13436 3545 c-4 -14 -4 -30 -1 -35 9 -15 25 -12 25 5 0 8 4 15 9 15
5 0 7 9 4 20 -7 28 -30 25 -37 -5z"/>
<path d="M3685 3498 c-3 -7 -6 -24 -8 -38 -4 -22 -9 -25 -55 -28 -37 -2 -52
-7 -52 -18 0 -10 13 -14 46 -14 43 0 46 -1 40 -22 -13 -44 -19 -117 -12 -143
10 -37 53 -75 87 -75 16 0 29 5 29 11 0 5 5 7 10 4 6 -3 10 -2 10 3 0 5 -15 9
-32 10 -42 1 -78 41 -78 85 0 32 15 105 22 112 2 3 43 11 91 18 91 15 103 19
93 35 -5 8 -77 2 -144 -13 -30 -6 -30 -6 -25 33 5 38 -12 69 -22 40z"/>
<path d="M8152 3450 c-2 -23 1 -28 13 -24 18 7 20 54 2 54 -7 0 -14 -13 -15
-30z"/>
<path d="M14516 3455 c-70 -35 -88 -53 -84 -89 2 -24 12 -36 46 -54 23 -13 42
-27 42 -32 0 -10 -45 -27 -92 -36 -28 -5 -38 -11 -38 -25 0 -30 51 -24 116 12
68 39 69 61 4 99 -61 36 -59 57 10 91 30 16 65 28 78 29 13 0 22 6 22 15 0 23
-47 18 -104 -10z"/>
<path d="M11085 3446 c-11 -8 -29 -13 -40 -10 -17 4 -23 -3 -34 -43 -8 -26
-25 -72 -38 -102 -16 -37 -20 -58 -13 -65 12 -12 12 -13 49 61 29 59 89 138
98 130 2 -2 -3 -33 -12 -68 -8 -35 -15 -72 -15 -81 0 -42 51 -6 113 80 21 28
40 52 42 52 2 0 1 -26 -2 -57 -4 -48 -2 -62 15 -83 16 -19 23 -22 33 -13 9 9
8 16 -6 29 -14 15 -16 28 -11 76 7 56 -4 98 -23 98 -5 0 -33 -32 -61 -70 -29
-39 -55 -69 -57 -66 -2 2 1 21 7 43 23 77 0 123 -45 89z"/>
<path d="M12685 3448 c-19 -52 -44 -141 -50 -178 -10 -64 -18 -75 -37 -53 -18
21 -48 107 -48 138 0 12 -10 34 -21 49 -28 35 -45 20 -25 -20 8 -16 19 -51 25
-77 18 -77 38 -116 67 -129 23 -11 28 -10 44 9 9 12 20 41 24 65 4 24 16 73
27 111 l21 67 48 0 c49 0 73 13 44 24 -29 11 -114 7 -119 -6z"/>
<path d="M14213 3407 c-64 -67 -83 -120 -59 -165 23 -45 111 -68 142 -37 9 8
14 15 12 16 -2 0 -25 2 -52 4 -38 2 -54 8 -68 25 -27 33 -19 51 29 67 55 19
95 65 91 107 -5 51 -36 46 -95 -17z m67 8 c0 -21 -45 -65 -67 -65 -13 0 -7 10
22 40 44 45 45 46 45 25z"/>
<path d="M2472 3443 c-19 -7 -67 -82 -87 -138 -10 -27 -26 -57 -37 -65 -24
-20 -35 -88 -28 -185 4 -59 9 -80 19 -80 9 0 14 14 16 40 1 22 8 71 15 108 10
51 17 67 27 63 8 -3 30 1 49 9 42 17 60 56 70 149 6 58 5 66 -9 60 -10 -4 -18
-25 -23 -62 -12 -96 -26 -122 -72 -122 -19 0 -22 4 -16 28 15 58 46 116 80
147 27 25 32 34 22 42 -7 6 -19 8 -26 6z"/>
<path d="M10384 3439 c-53 -19 -141 -187 -113 -213 8 -8 13 -7 16 2 3 7 11 19
19 26 8 8 14 28 14 44 0 36 53 112 78 112 10 0 23 -5 29 -11 17 -17 35 -1 23
20 -11 22 -39 31 -66 20z"/>
<path d="M11470 3424 c-41 -35 -89 -106 -96 -142 -9 -43 10 -70 57 -82 23 -6
43 -10 44 -8 8 7 -11 25 -40 39 -24 12 -30 21 -28 43 3 34 2 34 37 40 63 11
104 61 92 110 -8 33 -26 33 -66 0z m36 -30 c-3 -9 -6 -17 -6 -20 0 -2 -14 -11
-31 -20 l-31 -16 27 36 c28 37 52 49 41 20z"/>
<path d="M13157 3419 c-15 -12 -35 -35 -44 -53 -9 -17 -22 -35 -29 -41 -16
-13 -27 -96 -15 -114 12 -19 31 -5 31 24 0 34 37 116 68 148 19 20 35 27 64
27 27 0 38 4 38 15 0 24 -79 19 -113 -6z"/>
<path d="M7422 3405 c-35 -29 -66 -90 -58 -112 8 -21 29 -11 33 16 7 50 80
115 91 82 5 -15 32 -14 32 2 0 41 -55 48 -98 12z"/>
<path d="M9403 3388 c-45 -42 -82 -105 -83 -141 0 -10 13 -32 30 -48 25 -26
36 -30 72 -27 54 4 52 21 -3 29 -24 3 -48 14 -56 25 -13 17 -11 20 18 28 43
13 119 86 119 115 0 31 -18 61 -36 61 -8 0 -35 -19 -61 -42z m67 -11 c0 -21
-29 -56 -60 -72 -53 -28 -55 -11 -4 45 36 40 64 52 64 27z"/>
<path d="M10549 3397 c-17 -17 -40 -50 -51 -71 -16 -32 -18 -43 -9 -64 11 -22
16 -24 54 -19 73 10 108 80 76 151 -18 38 -37 39 -70 3z m51 -56 c0 -35 -18
-58 -52 -67 -22 -5 -28 -3 -28 10 0 40 51 103 72 90 5 -3 8 -18 8 -33z"/>
<path d="M12880 3403 c-34 -28 -60 -77 -60 -113 0 -12 11 -32 25 -46 27 -27
46 -23 93 19 l22 20 0 -21 c0 -24 18 -40 24 -20 3 7 7 41 11 76 5 50 3 62 -8
62 -8 0 -18 -11 -21 -24 -8 -31 -68 -96 -89 -96 -40 0 -22 91 24 124 13 9 36
16 52 16 39 0 30 24 -10 28 -21 2 -40 -5 -63 -25z"/>
<path d="M2914 3401 c-34 -21 -69 -96 -76 -161 -2 -29 0 -35 17 -35 15 0 19 6
17 24 -3 34 25 115 48 136 18 17 32 17 73 0 26 -11 22 20 -5 39 -29 20 -36 20
-74 -3z"/>
<path d="M6394 3390 c-54 -39 -98 -102 -89 -128 10 -34 53 -53 131 -59 l74 -6
0 27 c0 21 -5 26 -25 26 -14 0 -25 -5 -25 -11 0 -13 -70 -5 -101 12 -30 16
-22 38 31 92 41 41 54 48 75 43 33 -8 50 1 34 20 -19 23 -62 16 -105 -16z"/>
<path d="M6648 3391 c-74 -72 -64 -171 18 -171 36 0 84 46 84 82 0 27 -50 118
-64 117 -6 -1 -23 -13 -38 -28z m67 -73 c8 -33 -25 -71 -58 -66 -35 5 -36 60
-2 94 23 23 29 24 40 13 8 -8 17 -26 20 -41z"/>
<path d="M6862 3411 c-11 -7 -28 -74 -35 -135 -4 -38 19 -24 63 37 l45 62 5
-57 c5 -57 25 -87 58 -88 19 0 14 24 -8 38 -16 10 -20 23 -20 72 0 79 -19 89
-67 37 -34 -38 -40 -36 -23 7 10 27 2 39 -18 27z"/>
<path d="M10722 3407 c-5 -6 -12 -34 -15 -62 -4 -27 -9 -62 -13 -77 -9 -41 17
-36 40 6 10 19 34 49 53 68 l34 33 -7 -77 c-5 -57 -3 -82 6 -93 16 -19 40 -19
40 0 0 8 -5 15 -10 15 -7 0 -10 34 -8 92 3 82 1 93 -15 96 -11 2 -32 -11 -53
-34 l-35 -37 6 35 c7 37 -6 57 -23 35z"/>
<path d="M8561 3394 c-36 -25 -81 -104 -81 -141 0 -61 78 -68 125 -11 l25 30
2 -44 c5 -147 -4 -194 -39 -203 -87 -21 -132 -87 -133 -191 0 -64 11 -84 45
-84 51 0 103 76 129 191 8 33 17 64 21 67 3 3 38 8 78 11 55 5 72 10 72 21 0
8 -7 13 -15 12 -8 -2 -40 -5 -72 -5 l-56 -2 1 105 c2 203 -24 280 -57 169 -20
-65 -31 -79 -67 -79 -20 0 -29 5 -29 17 0 26 46 98 75 117 14 9 23 21 20 26
-9 14 -17 12 -44 -6z m34 -481 c-18 -68 -64 -133 -92 -133 -24 0 -13 121 13
157 24 33 87 68 93 52 2 -6 -5 -41 -14 -76z"/>
<path d="M9827 3403 c-20 -33 36 -203 66 -203 7 0 23 10 34 23 19 21 123 176
123 183 0 2 -8 4 -17 4 -11 0 -38 -32 -72 -85 -30 -47 -58 -85 -62 -85 -11 0
-39 77 -46 126 -5 41 -15 55 -26 37z"/>
<path d="M10166 3398 c-9 -25 -26 -119 -26 -138 0 -11 6 -20 14 -20 10 0 18
23 27 73 7 39 13 76 14 81 0 15 -25 19 -29 4z"/>
<path d="M11657 3374 c-55 -34 -87 -79 -87 -120 0 -25 27 -15 40 15 20 49 98
116 115 99 3 -2 0 -35 -6 -72 -8 -49 -8 -71 0 -79 17 -17 22 -4 33 82 8 63 8
84 -2 96 -18 22 -29 19 -93 -21z"/>
<path d="M13366 3398 c-38 -139 -43 -178 -22 -178 9 0 18 11 21 28 4 15 10 45
15 67 15 65 16 88 3 92 -7 3 -15 -1 -17 -9z"/>
<path d="M9588 3378 c-1 -12 -2 -43 -3 -68 -1 -25 -3 -52 -6 -60 -2 -10 3 -15
15 -15 13 0 22 10 28 30 4 17 21 46 37 65 40 46 50 31 43 -61 -4 -57 -2 -69
10 -69 12 0 16 18 21 77 3 43 1 85 -4 95 -15 27 -49 22 -85 -13 l-32 -31 1 32
c2 38 -22 55 -25 18z"/>
<path d="M13550 3374 c-53 -45 -76 -114 -48 -142 18 -18 42 -15 72 9 l26 20 0
-30 c0 -21 5 -31 15 -31 10 0 15 10 15 33 0 19 7 56 15 82 13 46 13 50 -5 67
-27 25 -53 22 -90 -8z m65 -14 c14 -22 -74 -124 -92 -106 -12 11 8 55 39 85
34 33 43 37 53 21z"/>
<path d="M3132 3383 c-7 -2 -25 -23 -41 -46 -34 -51 -32 -97 7 -127 42 -33
128 -20 92 13 -10 9 -12 8 -7 -5 4 -10 2 -18 -3 -18 -6 0 -10 4 -10 8 0 4 -15
12 -32 17 -37 11 -50 42 -21 51 42 13 85 35 79 41 -3 4 1 15 10 25 14 14 14
20 4 33 -12 14 -52 19 -78 8z m58 -32 c0 -12 -46 -41 -65 -41 -21 0 -19 9 8
31 23 19 57 25 57 10z"/>
<path d="M5093 3361 c-17 -11 -44 -41 -59 -66 -22 -39 -25 -50 -16 -71 13 -26
55 -34 69 -11 4 6 18 18 30 24 19 11 21 10 17 -2 -9 -22 5 -67 19 -62 7 2 13
18 14 36 1 18 7 55 13 82 11 44 10 52 -5 69 -23 25 -42 25 -82 1z m57 -30 c0
-32 -89 -116 -105 -99 -17 16 57 108 87 108 10 0 18 -4 18 -9z"/>
<path d="M7565 3343 c-42 -62 -27 -123 31 -123 66 0 112 109 62 144 -37 26
-65 20 -93 -21z m69 1 c38 -15 1 -94 -44 -94 -27 0 -27 39 1 74 23 29 21 28
43 20z"/>
<path d="M2675 3343 c-43 -46 -59 -82 -46 -109 15 -34 44 -30 90 11 l39 35 9
-37 c5 -24 15 -39 27 -41 15 -3 17 0 11 19 -4 13 -10 46 -14 74 -3 27 -11 50
-17 50 -6 0 -27 -20 -46 -45 -33 -44 -68 -64 -68 -39 0 22 51 80 68 77 10 -2
17 4 17 12 0 27 -42 23 -70 -7z"/>
<path d="M8283 3357 c-31 -17 -103 -120 -103 -148 0 -25 28 -4 53 41 28 49 69
90 92 90 7 0 18 -7 25 -15 10 -12 9 -27 -7 -76 -12 -37 -16 -62 -10 -66 15 -9
35 24 48 83 10 46 10 56 -5 78 -18 29 -56 34 -93 13z"/>
<path d="M3363 3325 c-35 -30 -40 -32 -36 -14 8 30 -18 20 -34 -12 -17 -36
-27 -99 -15 -99 6 0 37 28 70 62 l59 61 -10 -62 c-9 -58 -8 -64 11 -84 17 -16
24 -19 34 -9 9 9 8 16 -5 30 -15 16 -15 27 -6 76 17 95 -1 109 -68 51z"/>
<path d="M5360 3342 c-8 -2 -25 -14 -38 -26 -20 -17 -24 -18 -33 -6 -8 13 -12
12 -24 -4 -8 -11 -15 -28 -15 -39 0 -10 -5 -27 -10 -37 -7 -13 -7 -21 1 -26 7
-4 32 16 61 50 63 71 83 75 61 11 -17 -50 -11 -95 12 -95 11 0 14 7 10 23 -3
12 1 42 10 66 8 24 15 50 15 57 0 17 -30 33 -50 26z"/>
<path d="M8075 3290 c-19 -37 -25 -131 -9 -137 8 -2 15 16 19 49 4 29 13 63
21 75 18 29 18 43 -1 43 -8 0 -22 -14 -30 -30z"/>
<path d="M14695 3250 c-9 -15 5 -52 18 -47 19 6 21 57 3 57 -8 0 -18 -5 -21
-10z"/>
<path d="M11498 3233 c-10 -3 -18 -9 -18 -14 0 -15 30 -23 43 -10 14 14 -2 29
-25 24z"/>
<path d="M9042 2797 c-77 -25 -118 -95 -153 -262 -22 -104 -23 -105 -52 -105
-34 0 -33 -23 2 -28 24 -4 23 -13 -10 -90 -19 -45 -16 -72 8 -72 9 0 13 6 10
14 -3 7 1 26 9 41 7 14 18 44 24 66 10 37 13 39 61 45 60 8 61 29 0 28 l-41
-1 6 36 c12 68 45 195 59 220 26 50 79 85 130 86 11 0 20 7 20 15 0 19 -30 22
-73 7z"/>
<path d="M7353 2787 c-5 -6 -11 -30 -12 -52 -3 -58 -45 -222 -76 -296 -15 -35
-32 -76 -38 -91 -12 -29 -6 -45 13 -33 6 4 26 39 44 79 20 43 47 84 70 104 62
54 77 38 46 -52 -11 -33 -20 -69 -20 -82 0 -26 18 -43 24 -22 2 7 13 46 26 86
12 41 19 84 16 97 -8 32 -39 40 -78 21 -17 -9 -32 -16 -33 -16 -1 0 5 35 15
78 32 139 33 219 3 179z"/>
<path d="M9165 2769 c-47 -41 -58 -65 -96 -196 -17 -59 -35 -110 -40 -113 -15
-10 -24 -178 -9 -195 20 -24 27 -9 23 42 -3 27 0 67 6 89 11 40 12 41 88 64
66 20 74 24 54 32 -15 5 -40 3 -71 -6 l-48 -14 23 83 c43 156 74 203 142 214
52 9 55 31 4 31 -31 0 -49 -7 -76 -31z"/>
<path d="M7145 2723 c-4 -21 -14 -65 -23 -98 l-17 -60 -50 -9 c-64 -10 -105
-26 -105 -38 0 -9 80 -4 123 8 21 6 21 1 2 -36 -21 -40 -45 -159 -34 -166 16
-10 26 5 33 48 3 24 16 69 28 100 21 53 25 57 60 63 20 4 47 4 58 0 18 -6 21
-3 18 12 -3 14 -13 18 -51 18 -26 0 -47 1 -47 3 0 13 33 141 40 153 5 10 4 21
-3 28 -19 19 -26 13 -32 -26z"/>
<path d="M4195 2700 c-3 -11 -4 -24 -1 -29 4 -5 2 -11 -2 -13 -15 -5 -72 -208
-72 -253 0 -24 6 -48 13 -54 20 -16 26 -5 20 38 -4 27 7 79 36 178 22 77 41
143 41 147 0 15 -29 4 -35 -14z"/>
<path d="M4067 2703 c-4 -3 -7 -15 -7 -25 0 -11 -18 -83 -41 -160 -41 -144
-45 -183 -19 -183 9 0 14 8 12 20 -1 11 15 81 37 155 52 182 56 200 38 200 -7
0 -17 -3 -20 -7z"/>
<path d="M4880 2708 c0 -2 -2 -32 -4 -68 -4 -79 -39 -211 -69 -265 -20 -35
-27 -40 -57 -40 -30 0 -36 4 -39 25 -7 51 55 124 85 99 11 -9 15 -8 20 4 9 23
-4 37 -33 37 -51 0 -126 -115 -107 -164 9 -24 57 -46 85 -39 58 14 97 84 129
231 24 109 26 182 5 182 -8 0 -15 -1 -15 -2z"/>
<path d="M11506 2678 c-2 -7 -11 -40 -19 -73 -24 -92 -78 -226 -93 -232 -8 -3
-11 -9 -8 -14 3 -5 0 -9 -5 -9 -18 0 -13 -46 7 -62 44 -38 106 -26 151 29 70
85 42 165 -44 129 l-32 -14 34 97 c33 96 42 161 23 161 -6 0 -12 -6 -14 -12z
m44 -269 c0 -22 -33 -80 -54 -94 -29 -21 -86 -20 -86 1 0 28 84 104 114 104
14 0 26 -5 26 -11z"/>
<path d="M12045 2660 c-4 -6 -24 -57 -45 -113 -42 -110 -46 -114 -123 -116
-58 -1 -42 -26 16 -26 26 0 47 -3 47 -6 0 -16 -53 -119 -61 -119 -15 0 -10
-37 6 -44 15 -6 36 32 84 151 12 29 20 34 72 44 60 12 99 32 87 45 -4 3 -35 0
-68 -9 -61 -15 -61 -15 -54 7 5 17 38 103 71 184 6 14 -23 16 -32 2z"/>
<path d="M3917 2644 c-7 -7 13 -54 24 -54 13 0 18 16 12 38 -5 21 -23 29 -36
16z"/>
<path d="M5100 2611 c0 -11 4 -22 9 -25 12 -8 34 21 26 34 -11 17 -35 11 -35
-9z"/>
<path d="M8620 2626 c0 -2 -7 -43 -15 -92 -11 -59 -26 -107 -47 -144 -42 -74
-78 -120 -94 -120 -17 0 -28 41 -19 69 8 26 73 71 91 64 8 -3 14 1 14 11 0 27
-27 29 -65 6 -76 -47 -98 -118 -51 -165 35 -35 59 -23 111 55 57 86 74 127 91
220 17 96 17 100 -1 100 -8 0 -15 -2 -15 -4z"/>
<path d="M2340 2560 c-65 -36 -105 -74 -96 -89 12 -19 35 -12 52 15 18 26 108
78 126 72 5 -2 -18 -59 -53 -126 -48 -94 -60 -125 -51 -134 9 -9 23 -4 57 20
25 18 49 32 53 32 4 0 14 -15 22 -33 28 -60 109 -46 144 26 26 56 20 157 -10
157 -10 0 -12 -14 -7 -63 5 -58 3 -65 -22 -95 -36 -43 -64 -39 -88 11 -9 20
-21 37 -25 37 -4 0 -23 -8 -42 -19 l-35 -19 48 97 c26 53 46 105 45 116 -5 32
-54 30 -118 -5z"/>
<path d="M6302 2559 c-28 -11 -57 -29 -63 -41 -9 -17 -5 -25 30 -58 45 -43 48
-55 25 -88 -21 -30 -83 -31 -91 -2 -6 24 -21 26 -30 4 -8 -21 24 -50 63 -59
27 -5 38 -1 68 25 51 45 50 87 -1 130 -36 29 -37 32 -20 45 11 7 41 19 68 26
27 7 49 19 49 26 0 18 -36 15 -98 -8z"/>
<path d="M8787 2574 c-4 -4 -7 -18 -7 -31 0 -28 23 -27 28 1 4 20 -11 40 -21
30z"/>
<path d="M5795 2560 c-3 -5 2 -21 11 -35 21 -32 13 -62 -27 -103 -55 -56 -96
-33 -79 44 10 43 0 63 -19 40 -18 -21 -19 -109 -2 -129 15 -19 63 -22 92 -6
11 5 33 28 49 51 35 47 38 92 11 126 -21 24 -27 27 -36 12z"/>
<path d="M6012 2550 c-33 -31 -27 -54 25 -99 50 -42 50 -53 2 -65 -19 -4 -34
0 -52 14 -30 24 -37 25 -37 6 0 -8 12 -24 27 -36 21 -17 35 -20 63 -15 41 8
80 30 80 47 0 7 -23 33 -52 60 -58 53 -56 66 7 77 49 8 49 25 0 29 -30 2 -46
-3 -63 -18z"/>
<path d="M5228 2544 c-38 -20 -37 -57 2 -86 17 -12 30 -30 30 -40 0 -25 -44
-52 -73 -44 -29 7 -41 -2 -26 -21 32 -38 129 12 129 66 0 18 -11 37 -32 56
-30 27 -30 29 -13 42 11 7 27 10 38 7 14 -5 18 -2 15 13 -4 23 -35 27 -70 7z"/>
<path d="M12765 2544 c-116 -60 -143 -185 -45 -208 30 -7 60 8 45 23 -6 5 -23
11 -40 13 -24 2 -31 8 -33 31 -3 24 0 27 27 27 33 0 86 39 96 70 7 21 -2 60
-13 60 -4 0 -20 -7 -37 -16z m16 -43 c-13 -24 -58 -53 -65 -42 -6 9 16 31 49
49 27 15 27 15 16 -7z"/>
<path d="M5444 2531 c-41 -25 -59 -75 -43 -119 16 -46 99 -85 99 -47 0 8 -8
15 -18 15 -55 0 -69 87 -19 124 23 17 31 18 47 8 27 -17 32 -15 28 11 -4 30
-52 34 -94 8z"/>
<path d="M12516 2508 c-38 -34 -49 -51 -53 -84 -5 -36 -2 -43 22 -62 33 -26
108 -30 131 -7 14 13 10 15 -36 15 -28 0 -60 5 -71 10 -25 14 -25 50 -1 50 10
0 40 14 66 30 40 26 47 35 44 58 -5 45 -46 42 -102 -10z m74 4 c0 -9 -37 -34
-65 -44 -12 -5 -6 4 15 22 34 30 50 37 50 22z"/>
<path d="M12996 2519 c-20 -17 -40 -29 -44 -25 -3 4 0 11 7 15 7 5 10 14 7 20
-15 24 -35 8 -51 -41 -9 -29 -25 -68 -36 -86 -20 -34 -25 -62 -11 -62 4 0 37
36 75 80 71 84 94 99 82 53 -16 -59 -13 -68 28 -71 34 -3 38 0 37 26 -1 4 -10
6 -20 4 -17 -3 -19 2 -13 45 4 37 2 52 -10 61 -13 11 -21 8 -51 -19z"/>
<path d="M3489 2496 c-24 -13 -43 -28 -42 -34 2 -6 -4 -9 -12 -6 -8 4 -15 1
-15 -4 0 -22 21 -23 49 -3 31 22 81 44 81 35 0 -3 -16 -35 -36 -70 -20 -35
-33 -71 -30 -79 11 -30 37 -27 88 9 l52 36 24 -25 c29 -32 52 -32 82 0 29 30
42 125 18 125 -11 0 -17 -14 -21 -46 -2 -25 -12 -53 -21 -63 -16 -15 -19 -14
-37 12 -26 34 -45 34 -100 -2 -24 -17 -45 -28 -47 -26 -2 2 13 33 33 69 20 37
34 73 31 81 -8 22 -47 18 -97 -9z"/>
<path d="M7554 2495 c-35 -35 -64 -103 -55 -129 13 -33 52 -54 113 -59 55 -5
57 -5 48 14 -8 14 -21 19 -53 19 -24 0 -51 6 -61 13 -16 11 -13 14 24 31 52
23 74 62 59 105 -14 38 -40 40 -75 6z m28 -67 c-11 -11 -28 -18 -38 -16 -15 3
-13 9 17 42 32 37 34 38 37 16 2 -13 -5 -31 -16 -42z"/>
<path d="M12436 2508 c-21 -74 -41 -110 -66 -123 -50 -26 -58 -21 -49 28 11
58 11 57 -8 57 -10 0 -29 -16 -41 -35 -26 -37 -90 -90 -99 -82 -3 3 9 30 26
60 33 58 39 87 19 86 -16 0 -79 -126 -78 -155 0 -43 54 -33 111 22 l26 25 7
-24 c3 -14 12 -27 19 -30 17 -7 84 17 107 38 22 20 63 122 55 136 -9 13 -25
11 -29 -3z"/>
<path d="M2770 2493 c-32 -23 -80 -102 -80 -133 0 -53 36 -67 134 -54 71 10
51 29 -30 29 -64 0 -69 2 -72 22 -2 16 1 21 10 18 16 -7 86 53 89 75 5 51 -15
68 -51 43z m17 -47 c-3 -8 -16 -20 -27 -26 -22 -12 -22 -11 1 19 23 31 36 35
26 7z"/>
<path d="M9498 2495 c-29 -16 -64 -97 -75 -171 -6 -46 4 -55 36 -35 12 7 12
13 3 24 -9 11 -8 27 8 72 27 78 46 98 86 92 37 -6 48 1 33 20 -15 17 -57 16
-91 -2z"/>
<path d="M5040 2481 c0 -10 -9 -38 -20 -62 -22 -49 -26 -93 -9 -87 13 4 59
121 59 149 0 11 -7 19 -15 19 -8 0 -15 -9 -15 -19z"/>
<path d="M10675 2493 c-28 -7 -55 -33 -55 -54 0 -9 14 -30 30 -46 17 -15 30
-33 30 -40 0 -21 -59 -55 -84 -49 -28 7 -40 -3 -25 -21 20 -23 66 -15 104 18
43 38 44 64 3 106 -38 39 -31 52 31 60 25 4 41 11 41 19 0 14 -34 17 -75 7z"/>
<path d="M3860 2475 c0 -8 5 -15 12 -15 7 0 5 -5 -5 -12 -23 -18 -35 -98 -15
-98 17 0 44 112 33 130 -9 15 -25 12 -25 -5z"/>
<path d="M11682 2467 c-52 -55 -61 -136 -20 -173 23 -21 109 -26 115 -6 3 8
-6 12 -29 12 -34 0 -78 23 -78 41 0 5 16 23 35 40 38 34 49 59 40 89 -8 27
-36 25 -63 -3z m24 -43 c-10 -14 -20 -23 -23 -20 -3 3 2 17 11 32 10 14 20 23
23 20 3 -3 -2 -17 -11 -32z"/>
<path d="M9292 2450 c-9 -17 -26 -46 -36 -63 -32 -53 -14 -129 35 -146 31 -11
59 -6 59 11 0 5 5 6 12 2 6 -4 8 -3 4 4 -3 6 -20 10 -38 10 -59 -2 -82 72 -29
90 42 15 65 54 54 89 -14 40 -40 41 -61 3z m32 -35 c-4 -8 -10 -15 -15 -15 -4
0 -6 7 -3 15 4 8 10 15 15 15 4 0 6 -7 3 -15z"/>
<path d="M9683 2467 c-33 -18 -82 -89 -83 -119 0 -48 84 -85 144 -62 27 10 7
24 -37 24 -37 1 -77 17 -77 32 0 3 18 17 40 32 50 33 70 70 49 91 -11 11 -18
11 -36 2z m7 -41 c0 -2 -8 -10 -17 -17 -16 -13 -17 -12 -4 4 13 16 21 21 21
13z"/>
<path d="M10354 2448 c-50 -44 -69 -90 -52 -126 18 -37 55 -54 103 -46 22 3
46 10 54 14 19 10 -11 19 -65 18 -53 -1 -64 6 -64 44 0 21 10 40 34 64 37 37
56 43 56 19 0 -9 -16 -25 -35 -36 -34 -20 -44 -42 -26 -53 15 -10 91 65 91 89
0 52 -44 58 -96 13z"/>
<path d="M9881 2425 c-19 -17 -29 -21 -25 -11 4 11 1 16 -10 16 -19 0 -36 -38
-36 -79 0 -15 -5 -32 -11 -38 -12 -12 -5 -33 11 -33 4 0 22 25 39 55 63 111
123 89 71 -26 -23 -52 -28 -98 -7 -77 7 7 25 41 40 76 28 62 28 63 10 100 -23
46 -42 50 -82 17z"/>
<path d="M10134 2408 c-43 -39 -46 -45 -41 -81 9 -65 70 -112 138 -105 48 5
50 28 2 28 -86 0 -140 75 -91 127 34 36 57 47 73 33 16 -13 28 1 19 24 -11 29
-52 18 -100 -26z"/>
<path d="M8685 2366 c-4 -19 -5 -42 -3 -52 5 -30 22 -21 29 16 3 19 10 43 14
53 5 13 2 17 -13 17 -16 0 -23 -8 -27 -34z"/>
<path d="M7276 2243 c-3 -4 -6 -47 -6 -98 0 -106 -21 -196 -56 -242 -37 -48
-57 -57 -85 -34 -22 17 -22 21 -9 45 10 19 28 31 57 39 44 11 54 23 28 33 -23
9 -83 -15 -105 -43 -36 -47 -16 -105 42 -118 22 -6 34 1 71 34 35 33 49 55 65
109 25 79 35 269 16 276 -7 3 -15 2 -18 -1z"/>
<path d="M9586 2149 c-34 -41 -41 -70 -27 -126 15 -58 8 -64 -75 -62 -62 2
-84 -4 -84 -23 0 -7 32 -9 95 -6 l95 4 8 -41 c10 -52 -2 -122 -29 -158 -15
-21 -18 -32 -10 -40 39 -39 92 127 68 216 -7 26 -6 27 18 21 19 -5 25 -2 25
10 0 9 -13 19 -32 24 -28 7 -35 15 -46 57 -12 42 -12 52 2 81 10 22 25 36 43
40 47 10 54 14 48 24 -3 5 -21 10 -40 10 -25 0 -40 -8 -59 -31z"/>
<path d="M9951 1991 c-1 -101 2 -151 9 -156 6 -4 13 -5 14 -4 2 2 5 71 7 154
4 130 2 150 -12 153 -14 2 -16 -16 -18 -147z"/>
<path d="M2620 2089 c-34 -14 -60 -39 -60 -58 1 -9 24 -32 53 -51 42 -29 52
-41 52 -64 0 -37 -41 -70 -76 -61 -14 3 -33 19 -43 36 -19 33 -31 37 -40 13
-9 -22 42 -73 80 -80 56 -10 114 36 114 91 0 36 -22 64 -72 94 -21 13 -38 25
-38 27 0 13 75 34 101 29 22 -5 29 -3 29 8 0 27 -52 35 -100 16z"/>
<path d="M3663 2045 l-38 -46 -5 32 c-7 48 -30 50 -30 2 0 -21 -9 -58 -21 -82
-14 -33 -17 -47 -8 -55 8 -8 20 0 42 29 18 21 49 57 69 80 l37 40 -9 -35 c-29
-103 1 -139 89 -109 44 15 20 32 -33 23 l-39 -6 8 48 c21 131 2 156 -62 79z"/>
<path d="M4844 2071 c-34 -20 -68 -70 -79 -112 -8 -33 16 -84 47 -100 26 -14
102 -13 129 1 37 20 19 29 -44 23 -51 -4 -66 -2 -80 11 -25 25 -21 34 18 50
56 24 87 60 79 93 -7 29 -22 53 -33 53 -3 0 -20 -9 -37 -19z m34 -43 c-3 -21
-66 -74 -76 -64 -6 7 36 74 51 80 23 9 28 6 25 -16z"/>
<path d="M2860 2048 c-11 -18 -20 -36 -20 -39 0 -4 -8 -6 -17 -5 -10 0 -19 -7
-21 -19 -2 -11 -8 -30 -15 -43 -8 -17 -8 -28 0 -41 11 -17 -4 -149 -22 -193
-5 -14 -2 -18 13 -18 22 0 22 1 40 110 7 42 10 45 46 51 20 3 47 16 59 28 43
43 20 201 -29 201 -8 0 -23 -15 -34 -32z m55 -61 c8 -54 -7 -95 -39 -103 -40
-10 -44 -3 -30 54 15 57 42 105 55 97 4 -3 11 -24 14 -48z"/>
<path d="M3287 2063 c-3 -4 -8 -35 -12 -69 -5 -48 -3 -63 9 -73 13 -11 21 -10
50 7 l34 20 6 -29 c10 -52 74 -51 101 2 22 42 17 142 -7 147 -16 3 -17 -3 -12
-55 5 -48 3 -62 -13 -82 -29 -35 -47 -19 -38 34 8 59 -9 66 -50 21 -41 -45
-58 -47 -51 -3 11 65 11 80 -1 84 -6 2 -13 0 -16 -4z"/>
<path d="M5035 2059 c-4 -6 2 -20 12 -32 11 -12 25 -35 32 -52 12 -28 11 -31
-28 -67 -23 -20 -41 -44 -41 -53 0 -23 10 -19 53 23 l39 37 16 -25 c38 -56 75
-91 85 -81 8 8 4 18 -9 33 -12 13 -31 38 -43 56 l-23 33 27 27 c43 42 60 71
48 83 -7 7 -21 -3 -42 -30 -18 -23 -36 -41 -41 -41 -4 0 -13 14 -19 32 -12 33
-38 68 -52 68 -4 0 -11 -5 -14 -11z"/>
<path d="M8444 2027 c-34 -30 -38 -39 -38 -85 -1 -64 24 -100 83 -120 48 -16
104 -7 109 19 2 11 -10 14 -63 14 -54 0 -69 4 -81 19 -19 27 -19 28 29 51 53
25 75 62 61 102 -14 43 -54 43 -100 0z m73 -14 c7 -18 -47 -73 -71 -73 -22 0
-8 42 23 67 31 27 40 28 48 6z"/>
<path d="M8950 2042 c-39 -21 -80 -75 -80 -104 0 -37 29 -75 70 -92 48 -19 90
-21 90 -3 0 9 3 8 9 -2 7 -10 13 -11 30 -2 36 20 24 26 -50 26 -65 0 -73 2
-95 28 -24 28 -33 54 -15 42 16 -10 89 26 106 51 21 32 16 68 -10 72 -11 1
-36 -6 -55 -16z m36 -41 c-10 -11 -31 -24 -47 -30 -26 -9 -28 -8 -16 10 12 19
68 51 76 43 2 -2 -4 -13 -13 -23z"/>
<path d="M9737 2053 c-3 -5 -1 -18 4 -31 7 -20 11 -21 29 -10 24 15 26 34 4
42 -21 8 -32 8 -37 -1z"/>
<path d="M13535 2013 c-15 -25 -52 -71 -82 -101 -30 -30 -52 -62 -51 -71 5
-23 11 -18 83 60 85 92 120 159 84 159 -4 0 -19 -21 -34 -47z"/>
<path d="M3068 2027 c-60 -49 -55 -129 9 -135 22 -2 38 3 52 17 l21 21 15 -30
c9 -17 20 -30 25 -30 18 0 21 20 6 42 -9 12 -16 41 -16 64 0 71 -57 97 -112
51z m66 -22 c11 -31 -24 -85 -56 -85 -26 0 -24 48 4 77 25 27 43 29 52 8z"/>
<path d="M9225 2034 c-61 -32 -93 -82 -81 -129 12 -46 99 -80 130 -50 24 24 9
37 -33 30 -29 -5 -41 -2 -55 14 -37 41 20 112 94 116 22 2 35 8 35 16 0 20
-55 22 -90 3z"/>
<path d="M5334 2021 c-37 -23 -68 -83 -58 -114 17 -57 74 -84 144 -69 54 12
42 27 -22 28 -64 1 -88 15 -88 50 0 18 5 24 23 24 46 0 98 21 106 43 21 54
-42 76 -105 38z m76 -20 c0 -13 -9 -17 -50 -25 l-35 -7 24 21 c24 21 61 27 61
11z"/>
<path d="M5643 2016 c-81 -68 -57 -152 50 -171 30 -6 37 -4 37 8 0 15 -7 19
-63 31 -36 8 -49 42 -31 78 18 35 47 50 80 42 22 -6 25 -4 22 12 -5 30 -59 30
-95 0z"/>
<path d="M6639 1993 c-38 -35 -40 -40 -35 -76 13 -76 44 -97 94 -61 19 13 22
13 22 0 0 -8 7 -13 16 -12 16 2 19 20 27 140 2 38 2 38 -40 42 -38 4 -48 0
-84 -33z m86 -13 c8 -14 -45 -110 -61 -110 -15 0 -19 6 -28 43 -5 21 -1 33 18
52 26 26 60 33 71 15z"/>
<path d="M6894 2006 c-12 -10 -23 -11 -31 -5 -14 13 -23 -1 -45 -71 -22 -67
-22 -70 -3 -70 8 0 22 18 31 40 9 22 30 52 47 66 27 23 32 24 46 10 13 -14 13
-24 3 -73 -8 -37 -8 -61 -2 -67 13 -13 20 -4 31 41 14 62 11 108 -9 126 -23
21 -42 21 -68 3z"/>
<path d="M8686 2012 c-3 -5 4 -32 16 -61 l22 -51 -28 -29 c-19 -20 -26 -36
-22 -47 6 -15 11 -12 35 17 l29 34 29 -27 c16 -16 34 -28 41 -28 21 0 13 27
-13 44 -31 20 -31 26 0 72 26 38 29 65 10 70 -5 2 -18 -14 -28 -36 -10 -22
-22 -40 -26 -40 -4 0 -13 15 -19 34 -14 38 -37 62 -46 48z"/>
<path d="M10092 1999 c-46 -23 -82 -65 -82 -97 0 -38 32 -61 112 -81 87 -22
148 -19 148 8 0 15 -9 17 -57 14 -65 -4 -150 21 -167 49 -13 21 0 36 16 20 20
-20 63 -13 111 19 50 33 60 61 28 79 -30 15 -62 12 -109 -11z m86 -21 c-8 -22
-66 -50 -88 -43 -25 8 -17 23 24 41 39 17 69 18 64 2z"/>
<path d="M4165 1896 c4 -19 2 -43 -5 -55 -14 -26 -89 -75 -112 -73 -21 1 -24
-26 -4 -34 19 -7 99 40 131 78 34 40 33 118 -2 118 -10 0 -12 -8 -8 -34z"/>
<path d="M9745 1908 c-10 -27 -10 -91 1 -95 11 -4 36 86 28 99 -8 12 -24 9
-29 -4z"/>
<path d="M13637 1818 c-20 -35 -37 -68 -37 -74 0 -7 -21 -15 -46 -19 -28 -4
-44 -11 -41 -18 4 -12 26 -14 57 -6 9 3 14 -2 11 -11 -22 -93 -24 -141 -8
-174 20 -43 51 -64 97 -66 63 -3 80 0 80 15 0 12 -13 15 -55 15 -87 0 -118 46
-96 144 16 73 21 77 79 78 30 0 56 5 62 13 16 19 0 25 -58 21 -29 -2 -52 -1
-52 3 0 4 16 33 35 65 32 53 37 76 16 76 -4 0 -24 -28 -44 -62z"/>
<path d="M7407 1832 c-38 -23 -72 -91 -91 -185 -9 -42 -16 -79 -16 -82 0 -3
-33 -5 -72 -5 -85 0 -118 -7 -118 -25 0 -9 22 -11 91 -7 l92 5 -7 -26 c-12
-51 -44 -113 -73 -143 -29 -32 -33 -54 -8 -54 21 0 75 87 101 160 13 37 30 66
39 68 19 4 19 19 0 29 -12 7 -12 17 0 75 25 122 79 194 124 166 24 -15 39 -3
25 20 -15 23 -53 25 -87 4z"/>
<path d="M12891 1807 c-6 -6 -11 -34 -11 -63 0 -28 -3 -79 -6 -113 -7 -60 -7
-61 -25 -42 -15 16 -24 18 -50 11 -81 -23 -117 -102 -69 -150 24 -24 32 -24
68 -6 71 37 101 101 109 237 3 54 10 99 15 99 13 0 9 27 -6 33 -7 3 -19 0 -25
-6z m-54 -252 c13 -14 13 -18 -1 -40 -22 -34 -69 -58 -85 -42 -19 19 -12 55
15 76 32 25 50 26 71 6z"/>
<path d="M3557 1794 c-3 -4 3 -18 13 -32 48 -60 0 -211 -94 -301 -27 -27 -39
-32 -48 -23 -14 14 8 91 29 99 18 7 17 33 -1 33 -39 0 -79 -107 -56 -149 29
-56 118 7 176 123 45 91 55 173 29 222 -17 32 -34 42 -48 28z"/>
<path d="M7836 1688 c-10 -62 -27 -147 -38 -188 -24 -89 -27 -122 -12 -127 7
-2 17 17 24 47 16 68 49 105 104 119 100 25 131 11 116 -54 -14 -61 -12 -125
4 -125 9 0 15 21 20 68 3 37 9 77 12 89 10 35 -27 63 -83 63 l-47 0 34 35 c19
19 42 37 51 40 18 6 16 35 -2 35 -4 0 -43 -31 -86 -70 -43 -38 -81 -70 -84
-70 -3 0 1 37 9 83 18 97 21 159 7 164 -6 2 -18 -46 -29 -109z"/>
<path d="M6387 1735 c-18 -38 -57 -237 -57 -293 0 -21 4 -32 12 -30 7 3 22 63
35 141 12 76 29 150 38 167 18 36 19 50 2 50 -7 0 -21 -16 -30 -35z"/>
<path d="M6502 1758 c-7 -7 -12 -20 -12 -30 0 -10 -11 -67 -25 -126 -28 -118
-32 -252 -7 -260 9 -3 12 17 12 78 0 53 8 115 24 178 35 136 38 159 28 166 -5
3 -14 0 -20 -6z"/>
<path d="M6227 1684 c-14 -15 -6 -34 14 -34 14 0 19 5 17 17 -3 18 -20 27 -31
17z"/>
<path d="M11233 1658 c-49 -13 -58 -39 -33 -94 25 -57 25 -66 2 -87 -24 -22
-70 -22 -94 -1 -16 16 -18 15 -24 0 -10 -26 18 -47 63 -48 77 -1 120 53 93
116 -7 17 -13 42 -14 56 -1 22 3 25 33 26 19 0 36 5 38 11 7 19 -29 31 -64 21z"/>
<path d="M12120 1657 c0 -2 -5 -28 -10 -57 -11 -60 -51 -120 -80 -120 -19 0
-36 32 -25 49 9 16 -27 30 -52 20 -28 -10 -28 -9 -2 36 38 63 21 68 -85 22
-73 -31 -96 -45 -96 -60 0 -10 3 -17 8 -15 62 30 127 58 135 58 5 0 4 -8 -4
-17 -24 -29 -43 -72 -35 -80 6 -6 21 -2 77 21 12 5 18 0 23 -18 8 -32 45 -57
73 -50 30 8 82 85 92 136 5 24 10 49 12 57 2 8 -4 17 -13 19 -10 2 -18 2 -18
-1z"/>
<path d="M12237 1611 c-93 -99 -73 -170 47 -171 45 0 58 7 24 14 -13 3 -37 11
-75 27 -26 10 -32 49 -8 49 24 0 93 38 103 57 14 23 -5 73 -28 73 -9 0 -38
-22 -63 -49z m46 -26 c-35 -27 -48 -16 -17 16 23 24 30 27 32 14 2 -9 -5 -23
-15 -30z"/>
<path d="M11412 1633 c2 -11 -8 -26 -27 -38 -41 -28 -53 -66 -31 -99 34 -52
126 -22 126 41 0 36 -38 113 -57 113 -8 0 -13 -7 -11 -17z m32 -76 c23 -37
-36 -76 -64 -42 -11 13 -9 19 10 40 26 28 38 28 54 2z"/>
<path d="M13040 1635 c0 -9 -16 -35 -35 -58 -44 -51 -48 -98 -11 -123 21 -13
29 -14 52 -2 63 31 83 99 47 161 -21 35 -53 49 -53 22z m40 -86 c0 -55 -71
-94 -78 -43 -3 24 52 89 68 79 5 -3 10 -19 10 -36z"/>
<path d="M13262 1610 c-33 -24 -41 -26 -46 -14 -8 20 -28 7 -24 -14 2 -9 -5
-25 -14 -34 -19 -19 -24 -48 -9 -48 6 0 27 16 48 36 21 19 46 39 56 45 14 8
17 5 17 -20 0 -22 8 -35 26 -47 33 -22 53 -5 24 21 -13 12 -20 31 -20 56 0 21
-4 40 -9 43 -5 3 -27 -8 -49 -24z"/>
<path d="M10671 1616 c-41 -15 -46 -26 -33 -65 15 -44 -5 -76 -48 -77 -42 0
-51 -20 -14 -34 23 -9 33 -8 53 8 43 31 58 66 44 101 -11 30 -10 31 28 43 22
6 38 16 36 22 -5 16 -27 16 -66 2z"/>
<path d="M4491 1580 c-34 -22 -68 -40 -76 -40 -21 0 -29 -19 -10 -26 18 -7 53
8 103 44 18 13 35 22 38 19 3 -2 -11 -31 -31 -63 -39 -66 -41 -76 -21 -93 11
-10 23 -8 55 8 51 27 53 27 73 -9 41 -73 112 -11 133 118 5 34 4 42 -8 42 -16
0 -27 -20 -27 -53 -1 -32 -37 -107 -52 -107 -7 0 -21 14 -30 30 -19 34 -44 38
-90 14 -16 -9 -29 -12 -27 -7 2 4 19 37 37 72 53 100 33 115 -67 51z"/>
<path d="M10463 1601 c-30 -25 -29 -46 2 -77 14 -14 25 -29 25 -34 0 -18 -42
-32 -76 -25 -35 6 -43 -2 -22 -23 19 -19 73 -14 102 9 33 26 33 59 0 90 -23
22 -24 24 -8 36 10 7 31 13 47 13 41 0 29 24 -14 27 -22 2 -42 -4 -56 -16z"/>
<path d="M3015 1599 c-59 -17 -105 -135 -64 -162 21 -13 67 5 105 40 l27 24
-7 -24 c-4 -16 -1 -29 8 -36 19 -16 23 -7 31 82 l7 77 -25 0 c-14 0 -31 2 -39
4 -7 2 -26 0 -43 -5z m65 -38 c0 -28 -102 -113 -117 -97 -8 8 15 67 34 88 17
19 83 26 83 9z"/>
<path d="M5837 1575 c-32 -19 -64 -35 -71 -35 -20 0 -40 -27 -26 -35 14 -8 47
3 92 31 l37 23 -25 -47 c-27 -52 -24 -82 8 -82 19 0 79 27 88 40 3 4 12 9 20
12 11 3 18 -7 25 -36 15 -63 38 -59 74 13 17 33 27 62 23 65 -13 8 -28 -7 -47
-44 -10 -19 -19 -30 -21 -25 -1 6 -5 22 -8 38 -8 35 -26 34 -92 -4 -65 -37
-70 -25 -19 47 59 83 39 97 -58 39z"/>
<path d="M10190 1572 c-43 -41 -50 -70 -28 -117 13 -28 39 -38 88 -33 53 5 50
28 -4 28 -35 0 -48 5 -56 19 -17 32 -12 38 35 50 52 13 78 48 55 76 -20 24
-46 18 -90 -23z m56 -10 c-3 -5 -16 -12 -28 -15 -22 -6 -22 -6 2 13 25 19 37
20 26 2z"/>
<path d="M4887 1570 c-68 -60 -70 -124 -4 -134 108 -17 127 -17 127 -3 0 17
-29 27 -80 27 -66 1 -67 15 -6 54 59 38 69 58 37 76 -29 15 -37 13 -74 -20z
m48 -10 c-3 -5 -16 -15 -28 -21 -21 -10 -21 -9 2 10 25 23 36 27 26 11z"/>
<path d="M9405 1584 c-16 -8 -37 -22 -46 -30 -8 -8 -25 -14 -37 -14 -18 0 -22
-6 -22 -33 0 -29 -23 -138 -50 -237 -5 -20 -6 -38 -1 -43 16 -16 39 35 57 123
10 47 18 86 19 88 1 1 15 -2 30 -8 38 -14 83 1 123 43 36 38 48 75 30 99 -20
25 -68 31 -103 12z m75 -49 c0 -33 -53 -75 -96 -75 -45 0 -45 25 -1 67 50 48
97 52 97 8z"/>
<path d="M8609 1569 c-63 -37 -89 -108 -51 -142 25 -23 41 -21 83 7 l36 25 16
-35 c9 -19 23 -34 32 -34 19 0 19 19 0 44 -8 11 -15 37 -15 58 0 27 -4 38 -15
38 -8 0 -12 6 -9 14 5 13 -20 46 -34 46 -4 0 -23 -10 -43 -21z m42 -31 c0 -7
2 -21 4 -30 4 -20 -51 -71 -69 -65 -24 8 -17 47 13 77 31 32 50 38 52 18z"/>
<path d="M3186 1552 c-32 -34 -40 -84 -13 -90 12 -2 17 3 17 20 0 32 27 68 51
68 17 0 19 -7 19 -60 0 -44 4 -60 14 -60 16 0 28 94 15 128 -13 34 -67 30
-103 -6z"/>
<path d="M9578 1551 c-31 -36 -55 -118 -40 -133 16 -16 29 -2 30 32 1 39 35
96 53 91 8 -2 22 -6 32 -8 28 -8 20 26 -9 37 -36 14 -40 13 -66 -19z"/>
<path d="M9945 1568 c-40 -22 -45 -50 -19 -105 19 -39 52 -64 89 -69 31 -3 33
14 3 25 -31 12 -65 51 -73 83 -8 30 15 48 59 48 16 0 26 6 26 15 0 18 -55 20
-85 3z"/>
<path d="M6190 1555 c-17 -20 -27 -115 -12 -115 15 0 20 10 23 50 2 19 7 41
13 48 15 20 -8 37 -24 17z"/>
<path d="M7423 1528 c-21 -42 -22 -123 -2 -144 12 -11 22 -12 41 -5 57 22 77
104 37 155 -28 35 -55 33 -76 -6z m67 -56 c0 -31 -17 -62 -35 -62 -23 0 -28
44 -10 86 16 37 17 38 31 20 8 -11 14 -31 14 -44z"/>
<path d="M9736 1529 c-26 -20 -56 -68 -56 -88 0 -20 33 -41 65 -41 49 0 79 29
77 74 -3 74 -35 95 -86 55z m54 -54 c0 -34 -13 -45 -51 -45 -28 0 -24 32 7 63
32 32 44 27 44 -18z"/>
<path d="M7583 1512 c-25 -16 -44 -79 -33 -108 13 -34 26 -22 33 30 6 47 13
54 57 58 19 2 35 8 35 13 0 12 -75 18 -92 7z"/>
<path d="M8441 1318 c-5 -13 -21 -76 -36 -140 -15 -65 -42 -149 -60 -187 -23
-47 -30 -73 -23 -77 11 -7 47 32 48 52 0 15 55 84 82 102 21 15 21 15 14 -45
-11 -95 7 -112 80 -77 32 15 37 15 71 -1 63 -30 230 -1 207 37 -5 7 -9 6 -15
-4 -5 -10 -30 -14 -92 -13 -94 0 -112 7 -79 31 31 22 65 91 58 119 -7 26 -38
41 -61 28 -31 -18 -65 -77 -65 -114 0 -32 -4 -39 -36 -54 -20 -9 -37 -15 -39
-13 -2 2 -1 28 3 58 4 30 6 63 4 73 -4 21 -40 23 -68 3 -19 -14 -19 -11 5 87
13 56 27 109 31 117 8 18 2 40 -11 40 -5 0 -13 -10 -18 -22z m216 -244 c-8
-16 -24 -38 -36 -48 -21 -19 -21 -19 -21 7 0 31 48 93 62 79 6 -6 4 -20 -5
-38z"/>
<path d="M4484 1299 c-8 -14 21 -43 35 -35 8 5 8 13 1 27 -12 21 -25 25 -36 8z"/>
<path d="M8190 1210 l-22 -100 -39 -1 c-76 -3 -113 -14 -103 -31 4 -6 32 -8
71 -4 59 6 64 5 59 -11 -18 -60 -35 -168 -27 -176 14 -14 24 10 43 102 10 46
20 87 23 89 3 3 33 7 68 8 43 2 62 7 62 16 0 9 -17 13 -62 13 -70 0 -66 -12
-37 106 17 71 18 89 1 89 -9 0 -22 -34 -37 -100z"/>
<path d="M6975 1258 c-3 -24 -9 -68 -13 -98 -7 -51 -9 -55 -35 -58 -16 -2 -41
1 -57 7 -20 7 -32 7 -36 0 -10 -17 9 -28 63 -36 l52 -8 -24 -70 c-16 -45 -21
-73 -15 -79 6 -6 13 -6 18 -1 10 12 42 111 42 130 0 9 20 16 58 20 70 8 82 12
82 25 0 5 -18 10 -41 10 -24 0 -38 -4 -34 -10 3 -5 1 -10 -4 -10 -6 0 -11 5
-11 10 0 6 -8 10 -19 10 -16 0 -18 5 -11 43 19 106 21 157 6 157 -10 0 -17
-15 -21 -42z"/>
<path d="M10295 1279 c-4 -6 -4 -13 -1 -16 8 -8 36 5 36 17 0 13 -27 13 -35
-1z"/>
<path d="M7160 1238 c0 -54 -34 -187 -61 -240 -11 -22 -17 -47 -14 -56 5 -14
17 -6 58 39 56 60 92 82 83 51 -2 -9 -7 -43 -11 -74 -5 -48 -4 -58 9 -58 17 0
26 35 29 120 l2 55 -33 -2 c-18 0 -42 -9 -53 -18 -18 -18 -19 -17 -3 36 20 68
24 180 7 186 -9 3 -13 -8 -13 -39z"/>
<path d="M6760 1251 c0 -5 6 -14 14 -20 16 -13 32 2 21 19 -8 12 -35 13 -35 1z"/>
<path d="M12336 1194 c-9 -8 -16 -17 -16 -19 0 -20 38 -110 62 -148 17 -26 28
-50 25 -53 -3 -4 -31 17 -61 46 -49 46 -76 57 -76 30 0 -5 27 -32 61 -60 99
-82 147 -61 86 39 -43 71 -61 117 -53 136 7 19 40 19 56 0 17 -21 30 -19 30 5
0 38 -83 56 -114 24z"/>
<path d="M11303 1133 c-71 -70 -107 -128 -101 -165 5 -36 25 -31 31 7 7 45 65
122 123 166 44 32 57 59 30 59 -7 0 -45 -30 -83 -67z"/>
<path d="M11044 1142 c-42 -38 -94 -104 -94 -119 0 -4 -19 -67 -41 -140 -39
-122 -44 -163 -20 -163 13 0 67 144 75 200 15 100 16 102 34 84 21 -21 94 -14
131 13 36 27 51 101 27 137 -24 38 -62 34 -112 -12z m90 -16 c11 -43 -12 -85
-53 -97 -49 -14 -87 2 -72 30 14 26 89 91 105 91 8 0 17 -11 20 -24z"/>
<path d="M11463 1155 c-66 -53 -91 -125 -54 -159 51 -46 138 42 120 122 -13
57 -28 66 -66 37z m35 -59 c5 -37 -22 -76 -53 -76 -33 0 -33 24 1 73 29 43 47
44 52 3z"/>
<path d="M11866 1159 c-14 -11 -33 -34 -41 -50 -14 -27 -14 -32 5 -69 21 -41
57 -65 74 -49 5 5 -5 22 -25 40 l-34 32 26 7 c65 18 90 51 69 90 -14 26 -40
26 -74 -1z m44 -24 c0 -16 -38 -40 -48 -30 -4 4 4 15 17 26 28 23 31 23 31 4z"/>
<path d="M12123 1173 c-60 -7 -66 -67 -17 -145 27 -43 30 -58 10 -58 -8 0 -24
16 -36 35 -24 38 -40 45 -40 17 0 -25 58 -92 80 -92 20 0 40 27 40 55 0 8 -11
33 -24 54 -14 21 -26 52 -28 67 -3 28 -1 29 42 32 56 3 76 10 64 21 -13 12
-54 18 -91 14z"/>
<path d="M2785 1116 c-24 -25 -47 -56 -50 -69 -8 -29 16 -81 42 -92 52 -21 72
-23 84 -9 15 19 10 23 -31 28 -41 5 -72 38 -62 66 10 26 71 90 86 90 7 0 17
-5 24 -12 9 -9 13 -7 18 5 9 24 -4 37 -37 37 -22 0 -41 -12 -74 -44z"/>
<path d="M5629 1141 l-24 -19 28 -56 c34 -71 35 -104 4 -111 -27 -7 -62 6 -97
35 -14 12 -19 19 -12 15 11 -6 12 -3 3 14 -11 20 -41 30 -41 13 0 -16 59 -91
79 -101 34 -19 80 -13 107 14 28 28 26 50 -12 127 l-24 48 22 5 c13 2 36 6 51
7 45 5 36 23 -14 26 -34 2 -52 -2 -70 -17z"/>
<path d="M9685 1149 c-11 -6 -32 -25 -47 -43 -15 -17 -28 -25 -28 -18 0 6 -6
12 -14 12 -9 0 -19 -20 -26 -52 -7 -29 -21 -70 -31 -92 -18 -38 -17 -56 1 -56
5 0 28 34 51 76 46 83 81 129 111 145 18 10 19 8 12 -28 -3 -21 -13 -52 -21
-70 -36 -78 31 -54 145 51 l33 31 -8 -30 c-4 -16 -8 -55 -8 -85 0 -42 3 -55
15 -55 11 0 14 10 12 40 -2 23 4 61 12 85 34 99 9 113 -70 41 -31 -28 -64 -56
-73 -61 -17 -8 -17 -5 -8 40 5 27 7 56 4 65 -7 17 -33 19 -62 4z"/>
<path d="M11660 1133 c-36 -30 -60 -72 -60 -106 0 -59 82 -105 136 -77 33 18
30 34 -6 27 -42 -9 -89 10 -96 39 -8 31 23 85 59 102 30 15 34 27 12 36 -8 3
-28 -6 -45 -21z"/>
<path d="M3556 1119 c-35 -27 -34 -63 4 -122 17 -26 30 -50 30 -52 0 -12 -46
-3 -75 15 -31 19 -33 19 -30 3 2 -10 4 -21 4 -24 2 -12 54 -29 92 -29 55 0 58
18 15 87 -41 66 -44 88 -17 102 14 8 22 7 31 -4 15 -19 30 -19 30 -2 0 16 -31
47 -47 47 -6 0 -22 -9 -37 -21z"/>
<path d="M3769 1117 c-19 -12 -42 -38 -51 -56 -36 -71 22 -130 133 -134 87 -3
90 18 4 28 -47 5 -73 13 -92 29 l-26 23 29 6 c38 7 98 48 102 69 4 19 -31 58
-52 58 -7 0 -28 -10 -47 -23z m61 -21 c9 -12 4 -18 -29 -35 -59 -31 -71 -25
-29 14 43 40 42 40 58 21z"/>
<path d="M4603 1127 c-23 -7 -50 -20 -60 -29 -23 -24 -5 -55 47 -86 45 -25 48
-32 23 -54 -33 -28 -42 -28 -66 -2 -32 34 -48 13 -20 -24 30 -40 67 -40 103
-2 17 18 30 40 30 49 0 19 -32 52 -67 70 -41 21 -27 38 41 52 53 10 62 15 51
26 -16 15 -25 15 -82 0z"/>
<path d="M5357 1118 c-21 -10 -46 -33 -57 -51 -10 -18 -26 -40 -36 -49 -16
-17 -16 -18 2 -24 10 -4 29 -17 42 -30 37 -36 129 -44 129 -11 0 7 -16 12 -43
13 -41 1 -74 16 -74 35 0 5 9 9 19 9 11 0 26 7 35 15 8 8 19 15 24 15 23 0 31
84 9 93 -7 2 -30 -4 -50 -15z m22 -53 c-8 -7 -25 -16 -39 -20 -23 -6 -23 -4 9
26 23 21 36 28 39 20 2 -7 -2 -19 -9 -26z"/>
<path d="M6313 1130 c-18 -4 -44 -15 -58 -24 -21 -14 -24 -20 -15 -36 13 -23
45 -28 36 -5 -7 20 21 33 89 41 l58 7 -19 -32 c-10 -17 -40 -54 -67 -82 -42
-44 -52 -69 -29 -69 4 0 32 16 62 35 64 41 70 42 70 12 0 -27 34 -67 56 -67
44 0 76 43 89 118 6 35 4 42 -9 42 -11 0 -18 -13 -22 -41 -13 -78 -84 -120
-84 -50 0 38 -14 54 -43 49 l-24 -5 23 35 c28 40 31 67 8 76 -20 8 -80 6 -121
-4z"/>
<path d="M3247 1113 c-4 -3 -7 -29 -7 -56 0 -42 5 -54 34 -83 20 -20 44 -34
59 -34 36 0 77 46 77 85 0 37 -31 82 -48 71 -17 -10 -15 -46 3 -46 25 0 18
-48 -10 -66 -23 -15 -27 -15 -50 0 -29 19 -40 53 -32 102 5 32 -8 46 -26 27z"/>
<path d="M4852 1110 c-53 -13 -62 -27 -31 -54 29 -25 54 -88 45 -112 -5 -12
-10 -13 -28 -3 -13 7 -29 20 -36 31 -17 23 -32 23 -32 0 0 -27 42 -62 83 -69
33 -5 37 -3 43 21 9 36 -3 89 -26 119 -11 14 -20 27 -20 30 0 2 18 7 41 11 25
4 39 11 36 19 -5 15 -32 18 -75 7z"/>
<path d="M5040 1094 c-23 -60 3 -165 43 -172 46 -9 130 97 125 157 -4 45 -28
54 -28 11 0 -39 -19 -77 -60 -115 -26 -25 -33 -27 -40 -15 -18 27 -23 83 -11
115 14 41 14 45 -4 45 -9 0 -20 -12 -25 -26z"/>
<path d="M10009 1088 c-54 -72 -62 -101 -29 -118 15 -8 27 -7 50 5 31 16 31
16 24 -10 -8 -32 3 -78 19 -72 7 2 13 29 14 66 1 34 7 70 13 81 15 27 12 50
-5 50 -8 0 -15 -7 -15 -16 0 -21 -54 -74 -75 -74 -16 0 -16 2 0 28 10 15 28
39 41 53 23 25 23 39 -1 39 -6 0 -22 -14 -36 -32z"/>
<path d="M4410 1015 c-12 -94 -11 -113 8 -101 12 7 36 161 28 181 -13 34 -24
10 -36 -80z"/>
<path d="M10190 1034 c-21 -66 -21 -99 1 -92 12 4 50 138 42 151 -11 18 -23 2
-43 -59z"/>
<path d="M3049 1073 c-32 -13 -52 -44 -43 -67 7 -18 55 -21 85 -6 16 9 19 7
19 -8 0 -25 36 -62 60 -62 27 0 25 23 -2 35 -20 9 -23 18 -23 65 l0 55 -34 0
c-19 0 -46 -5 -62 -12z m46 -32 c-6 -5 -21 -12 -35 -16 -22 -7 -23 -6 -11 9 7
9 23 16 34 16 13 0 17 -4 12 -9z"/>
<path d="M10287 1051 c-40 -45 -69 -95 -60 -105 16 -16 41 -4 46 22 7 34 58
92 81 92 21 0 21 -55 1 -90 -18 -32 -18 -40 0 -40 35 0 61 120 33 148 -24 24
-64 14 -101 -27z"/>
<path d="M6685 1036 c-20 -31 -17 -101 5 -101 11 0 14 9 12 36 -2 24 2 42 13
53 16 15 13 36 -5 36 -5 0 -17 -11 -25 -24z"/>
</g>
</svg>
