<?xml version="1.0" standalone="no"?>
<!DOCTYPE svg PUBLIC "-//W3C//DTD SVG 20010904//EN"
 "http://www.w3.org/TR/2001/REC-SVG-20010904/DTD/svg10.dtd">
<svg version="1.0" xmlns="http://www.w3.org/2000/svg"
 width="1618.000000pt" height="1214.000000pt" viewBox="0 0 1618.000000 1214.000000"
 preserveAspectRatio="xMidYMid meet">

<g transform="translate(0.000000,1214.000000) scale(0.100000,-0.100000)"
fill="#000000" stroke="none">
<path d="M12463 11965 l-29 -35 -55 20 c-67 25 -88 20 -145 -32 -49 -45 -56
-79 -29 -132 8 -15 15 -30 15 -32 0 -2 -19 -14 -42 -28 -48 -28 -75 -63 -60
-78 6 -6 21 1 40 19 59 54 88 72 103 62 22 -13 106 -11 144 5 46 20 59 48 52
115 -6 53 -4 59 23 88 29 31 40 63 21 63 -5 0 -22 -16 -38 -35z m-67 -57 c4
-6 2 -14 -4 -16 -7 -2 -44 -28 -82 -58 -64 -49 -70 -52 -80 -34 -17 32 -11 63
17 92 23 24 34 28 84 28 34 0 61 -5 65 -12z m34 -83 c0 -47 -37 -75 -101 -75
-27 0 -49 4 -49 8 0 22 126 116 141 106 5 -3 9 -20 9 -39z"/>
<path d="M13792 11930 c-23 -17 -42 -35 -42 -40 0 -17 25 -11 48 10 24 22 52
26 52 8 0 -16 -136 -151 -167 -167 -23 -12 -32 -41 -13 -41 6 0 28 9 50 20 54
28 84 26 108 -7 14 -19 24 -25 31 -18 18 18 -24 75 -54 75 -14 0 -25 4 -25 8
0 4 23 30 50 57 55 54 66 96 31 115 -26 13 -22 14 -69 -20z"/>
<path d="M14181 11951 c-8 -5 -11 -16 -8 -25 10 -25 -22 -36 -52 -18 -39 22
-93 9 -125 -29 -21 -25 -26 -41 -26 -85 0 -50 -2 -54 -23 -54 -29 0 -64 -24
-49 -34 6 -3 28 -3 49 2 21 5 52 5 70 0 62 -16 97 15 122 109 8 29 21 48 41
60 31 18 33 23 22 60 -5 16 -11 20 -21 14z m-76 -71 c4 -6 -5 -20 -19 -31 -15
-11 -24 -25 -21 -30 4 -5 -2 -6 -11 -2 -14 5 -16 3 -10 -12 4 -11 4 -16 0 -12
-4 4 -16 0 -26 -10 -17 -15 -18 -14 -18 19 0 43 16 66 55 77 41 12 43 12 50 1z
m-10 -100 c-15 -34 -23 -40 -48 -40 -26 0 -28 2 -16 17 22 27 74 72 78 67 2
-2 -4 -22 -14 -44z"/>
<path d="M12616 11938 c-2 -7 -9 -31 -16 -53 -34 -114 -47 -174 -40 -185 13
-21 27 -2 35 47 4 26 18 77 31 112 14 36 22 71 20 78 -7 17 -26 17 -30 1z"/>
<path d="M13023 11919 c-24 -16 -43 -34 -43 -39 0 -21 23 -19 51 4 17 14 35
26 41 26 17 0 -52 -79 -96 -109 -58 -41 -90 -77 -82 -96 5 -14 9 -14 35 -1 16
9 36 23 45 31 13 14 16 14 16 2 0 -34 62 -36 84 -2 15 23 15 26 1 32 -9 3 -21
1 -28 -6 -17 -17 -27 -13 -27 8 0 11 23 46 50 77 32 37 50 66 48 79 -5 31 -47
29 -95 -6z"/>
<path d="M13228 11934 c-16 -8 -28 -23 -28 -34 0 -23 25 -27 34 -5 5 14 56 22
56 9 0 -16 -131 -149 -172 -175 -27 -16 -48 -36 -48 -44 0 -20 16 -19 48 4 15
10 37 22 50 25 18 6 22 4 22 -16 0 -26 17 -48 37 -48 7 0 32 12 55 26 31 20
37 28 27 35 -9 5 -26 1 -46 -11 -35 -20 -48 -13 -38 21 4 11 2 26 -4 33 -8 10
3 27 44 70 59 61 70 97 36 116 -26 13 -40 12 -73 -6z"/>
<path d="M14478 11938 c-20 -5 -44 -18 -53 -28 -16 -18 -16 -21 4 -56 l22 -37
-26 -36 c-14 -21 -25 -49 -25 -63 0 -51 107 -44 127 8 3 9 -2 32 -11 52 l-18
36 40 36 c43 38 62 68 55 88 -5 14 -61 14 -115 0z m43 -61 c-39 -40 -41 -41
-55 -22 -9 11 -16 25 -16 31 0 11 90 43 104 36 4 -3 -10 -23 -33 -45z m-21
-139 c0 -13 -38 -28 -54 -22 -21 8 -20 16 6 49 l21 27 13 -23 c7 -13 13 -27
14 -31z"/>
<path d="M14267 11848 c-10 -40 -17 -80 -17 -89 0 -9 -9 -24 -21 -35 -19 -17
-19 -19 -3 -31 10 -7 21 -13 25 -13 10 0 27 50 34 105 4 28 13 65 21 84 18 44
18 51 -4 51 -15 0 -22 -15 -35 -72z"/>
<path d="M6610 11751 c0 -4 -16 -11 -36 -14 -53 -9 -101 -46 -125 -96 -45 -95
-38 -124 58 -237 65 -77 65 -84 -17 -126 -61 -33 -121 -38 -117 -10 3 22 -15
28 -28 8 -19 -31 7 -51 66 -50 44 0 66 7 115 37 86 51 88 68 19 143 -56 60
-95 120 -94 146 1 64 80 158 132 158 21 0 21 -5 1 -112 -8 -43 10 -52 39 -20
23 25 30 169 9 177 -19 7 -22 6 -22 -4z"/>
<path d="M5115 11721 c-3 -6 0 -11 7 -11 9 0 9 -3 2 -8 -6 -4 -14 -32 -17 -62
-3 -30 -15 -81 -27 -112 -20 -50 -26 -57 -58 -65 -50 -12 -57 -37 -8 -31 20 2
36 4 36 3 0 0 -7 -25 -15 -55 -18 -68 -19 -80 -1 -80 8 0 20 27 32 73 l19 72
39 5 c22 3 41 11 44 18 4 12 -7 16 -45 12 -27 -2 -28 5 -8 53 8 20 19 65 24
99 5 35 11 69 13 77 4 17 -27 27 -37 12z"/>
<path d="M12690 11715 c-10 -12 -9 -16 5 -21 19 -8 40 9 31 25 -10 15 -21 14
-36 -4z"/>
<path d="M13473 11723 c-24 -5 -30 -18 -13 -28 16 -10 72 5 67 18 -4 13 -21
17 -54 10z"/>
<path d="M1836 11667 c-76 -38 -80 -39 -93 -21 -14 19 -15 19 -29 0 -16 -23
-18 -38 -5 -51 6 -6 0 -50 -15 -115 -26 -108 -28 -180 -6 -188 8 -2 12 10 13
40 2 65 12 103 29 104 8 1 57 2 108 2 70 2 93 5 90 14 -6 18 -61 25 -141 18
-44 -4 -66 -2 -63 5 2 5 9 36 16 68 7 31 18 57 23 57 5 0 44 17 86 37 42 20
91 39 110 42 53 9 52 31 -1 29 -28 -1 -71 -15 -122 -41z"/>
<path d="M6883 11693 c-15 -6 -17 -33 -3 -33 20 0 -1 -204 -23 -227 -3 -2 -30
-4 -61 -4 -41 0 -56 -4 -56 -14 0 -19 32 -27 75 -19 41 7 41 7 19 -82 -12 -47
-14 -68 -6 -76 13 -13 29 21 43 97 5 27 13 52 17 56 4 4 37 9 74 12 72 5 92
12 82 29 -5 7 -33 9 -80 5 -56 -5 -72 -4 -70 6 22 71 36 217 25 240 -10 18
-15 19 -36 10z"/>
<path d="M3861 11636 c-6 -7 -9 -20 -6 -29 7 -16 -15 -132 -40 -212 -18 -56
-13 -95 11 -95 12 0 15 6 11 21 -3 11 1 42 9 67 14 45 35 143 49 225 4 28 3
37 -8 37 -8 0 -20 -6 -26 -14z"/>
<path d="M3150 11599 c-59 -14 -271 -48 -346 -55 -81 -7 -105 -17 -87 -35 8
-8 16 -8 31 0 10 6 22 8 24 6 7 -7 227 23 337 45 52 11 113 20 135 21 23 0 35
3 28 6 -6 2 -10 9 -6 14 6 11 -68 10 -116 -2z"/>
<path d="M11624 11591 c-16 -10 -44 -35 -63 -56 -91 -104 -126 -310 -67 -400
22 -34 92 -79 111 -72 20 8 8 37 -16 37 -22 0 -56 26 -72 55 -32 59 -21 208
21 291 21 40 91 131 98 127 13 -9 44 -1 44 11 0 23 -25 26 -56 7z"/>
<path d="M13517 11593 c-13 -22 -17 -74 -7 -92 16 -32 33 -26 27 9 -4 20 -1
34 9 45 13 12 14 19 4 30 -14 16 -26 19 -33 8z"/>
<path d="M13756 11592 c-3 -5 4 -27 15 -49 21 -44 49 -160 49 -211 0 -38 -28
-98 -62 -129 -36 -34 -109 -63 -129 -52 -24 12 -29 11 -29 -4 0 -8 12 -19 26
-25 56 -26 185 66 214 153 30 92 -46 378 -84 317z"/>
<path d="M5350 11566 c0 -17 27 -29 35 -16 4 6 3 15 0 20 -9 15 -35 12 -35 -4z"/>
<path d="M10952 11553 c4 -22 38 -30 38 -10 0 8 -7 18 -16 21 -23 9 -26 8 -22
-11z"/>
<path d="M12395 11538 c-2 -7 -6 -24 -9 -38 -3 -14 -13 -48 -22 -76 l-17 -51
-44 5 c-29 3 -43 1 -43 -7 0 -12 7 -15 53 -25 23 -5 27 -12 27 -39 0 -17 4
-38 9 -46 16 -24 29 -2 24 38 l-5 39 46 7 c55 9 57 30 3 30 -42 0 -41 -1 -5
92 20 52 19 83 -2 83 -6 0 -12 -6 -15 -12z"/>
<path d="M11860 11493 c-24 -54 -23 -76 4 -81 14 -3 17 0 13 13 -4 9 2 34 13
56 20 38 20 59 0 59 -5 0 -18 -21 -30 -47z"/>
<path d="M8283 11504 c-65 -23 -67 -49 -7 -102 l49 -43 -24 -20 c-28 -23 -61
-25 -61 -3 0 21 -24 12 -28 -11 -8 -37 53 -47 104 -16 41 25 50 58 21 82 -12
10 -35 29 -52 43 l-30 24 30 12 c17 7 40 12 53 12 15 0 22 7 22 19 0 23 -19
23 -77 3z"/>
<path d="M9185 11511 c-11 -18 3 -28 75 -56 39 -15 70 -30 70 -35 0 -4 -36
-43 -80 -86 -44 -42 -80 -86 -80 -96 0 -10 2 -18 4 -18 2 0 48 43 101 96 119
117 119 118 -30 181 -22 9 -43 19 -47 21 -3 1 -9 -2 -13 -7z"/>
<path d="M2980 11488 c0 -13 -12 -71 -27 -129 l-27 -106 -94 -13 c-62 -8 -96
-18 -99 -27 -3 -8 -4 -15 -2 -17 2 -2 40 2 84 10 44 8 92 12 107 10 15 -3 30
-1 33 4 8 12 67 12 120 0 22 -5 44 -5 48 -1 16 16 -23 32 -92 38 -59 5 -71 9
-67 22 18 62 45 171 50 199 5 27 3 32 -14 32 -14 0 -20 -7 -20 -22z"/>
<path d="M5155 11500 c3 -5 10 -10 16 -10 5 0 9 5 9 10 0 6 -7 10 -16 10 -8 0
-12 -4 -9 -10z"/>
<path d="M7189 11503 c-9 -2 -26 -23 -39 -46 -13 -23 -27 -44 -31 -47 -4 -3
-8 -32 -10 -65 -3 -50 -1 -60 14 -63 14 -3 17 4 17 35 0 21 11 63 23 93 23 57
31 61 85 45 16 -5 22 -3 22 7 0 17 -58 46 -81 41z"/>
<path d="M10015 11486 c-14 -14 -31 -25 -37 -23 -7 1 -13 -21 -16 -58 -9 -115
-8 -129 9 -133 13 -2 20 15 33 80 27 129 22 121 67 114 55 -9 48 21 -8 38 -17
5 -29 1 -48 -18z"/>
<path d="M7969 11454 l-49 -47 0 31 c0 17 -5 34 -11 37 -17 11 -53 -3 -84 -31
-21 -19 -30 -23 -36 -13 -4 8 -11 10 -15 6 -10 -9 -54 -120 -54 -134 0 -27 26
-11 53 31 30 47 105 121 114 112 3 -3 -2 -28 -11 -55 -19 -60 -19 -61 -3 -61
7 0 39 27 71 60 32 33 62 60 66 60 4 0 3 -21 -2 -46 -11 -52 1 -94 28 -94 12
0 14 5 8 18 -9 21 -9 44 0 108 12 73 -10 78 -75 18z"/>
<path d="M4619 11466 c-27 -19 -41 -38 -53 -77 -10 -28 -15 -54 -12 -57 3 -3
6 -3 6 1 0 3 11 -5 25 -19 20 -20 33 -25 67 -22 55 4 64 28 11 28 -56 0 -71
19 -33 42 38 23 68 82 54 105 -16 25 -26 25 -65 -1z m26 -45 c-8 -25 -45 -49
-45 -29 0 13 41 60 48 54 2 -3 1 -14 -3 -25z"/>
<path d="M5750 11465 c-5 -14 -10 -36 -10 -48 0 -17 -10 -26 -44 -38 -58 -21
-79 -9 -46 25 13 15 32 26 43 26 25 0 17 24 -10 28 -22 3 -97 -72 -90 -91 10
-30 89 -47 126 -27 16 8 19 3 25 -52 13 -128 15 -123 -61 -137 -36 -7 -79 -19
-95 -27 -38 -20 -38 -62 1 -106 23 -26 36 -32 67 -31 32 1 45 8 71 38 17 20
35 50 38 66 5 24 12 29 36 29 19 0 29 5 29 15 0 8 -3 14 -7 14 -38 -6 -40 0
-48 111 -5 78 -3 115 5 125 14 17 9 97 -7 103 -7 2 -17 -8 -23 -23z m-10 -361
c-21 -55 -50 -84 -82 -84 -36 0 -68 24 -68 51 0 23 12 30 75 45 80 20 86 18
75 -12z"/>
<path d="M2212 11465 c-53 -23 -102 -82 -102 -122 0 -46 31 -42 41 5 9 46 46
81 91 89 46 7 56 18 29 32 -24 13 -19 13 -59 -4z"/>
<path d="M3632 11463 c-18 -8 -40 -28 -49 -44 -13 -23 -22 -27 -44 -22 -29 6
-50 -13 -25 -23 22 -9 20 -47 -9 -143 -24 -82 -24 -111 0 -111 14 0 45 80 45
116 0 18 5 23 28 22 49 -2 120 50 151 109 18 36 13 80 -11 97 -28 20 -44 20
-86 -1z m62 -19 c9 -4 16 -18 16 -35 0 -55 -117 -147 -140 -109 -12 19 11 70
51 112 37 39 45 43 73 32z"/>
<path d="M5456 11446 c-26 -26 -36 -31 -40 -20 -9 23 -26 16 -26 -11 0 -15 -7
-40 -16 -57 -24 -46 -3 -58 33 -17 15 18 45 51 65 74 l37 40 1 -67 c0 -51 3
-68 14 -68 14 0 29 103 19 140 -8 31 -48 25 -87 -14z"/>
<path d="M12123 11465 c-13 -9 -23 -20 -23 -25 0 -5 18 -29 40 -55 52 -60 46
-80 -21 -71 -50 7 -61 -1 -34 -24 24 -20 83 -16 107 7 26 27 19 59 -22 107
-34 38 -28 46 37 46 52 0 36 24 -18 28 -28 2 -52 -3 -66 -13z"/>
<path d="M2000 11458 c0 -6 7 -19 15 -28 19 -21 12 -43 -20 -60 -25 -13 -55
-8 -55 10 0 6 11 21 25 34 30 28 32 46 7 46 -27 0 -52 -32 -59 -72 -4 -29 -1
-38 17 -51 24 -17 53 -12 92 15 36 25 45 61 24 93 -17 26 -46 34 -46 13z"/>
<path d="M4001 11433 c-18 -21 -37 -45 -44 -53 -34 -41 18 -110 83 -110 46 0
90 15 90 30 0 8 -17 9 -54 5 -57 -7 -96 5 -96 29 0 8 12 17 28 21 47 11 72 33
72 63 0 29 -16 52 -36 52 -7 0 -26 -17 -43 -37z m49 -12 c0 -13 -29 -35 -37
-28 -7 8 15 37 28 37 5 0 9 -4 9 -9z"/>
<path d="M10700 11463 c-13 -3 -16 -17 -14 -65 1 -51 5 -65 24 -80 30 -25 72
-23 98 5 23 25 42 68 42 98 0 33 -21 16 -39 -30 -39 -107 -108 -62 -80 53 4
20 -6 26 -31 19z"/>
<path d="M4372 11430 l-42 -30 0 25 c0 37 -23 31 -75 -19 -36 -35 -45 -40 -45
-25 0 35 -27 20 -33 -18 -4 -21 -9 -53 -13 -70 -9 -47 15 -43 45 7 14 22 40
54 58 72 l33 32 0 -32 c0 -43 16 -40 64 8 22 22 43 40 47 40 4 0 9 -21 11 -47
3 -46 4 -48 37 -51 20 -2 37 2 42 9 12 20 0 30 -27 23 -25 -7 -26 -6 -22 47 3
48 1 54 -17 57 -12 2 -40 -11 -63 -28z"/>
<path d="M4830 11443 c-14 -9 -31 -24 -38 -33 -9 -11 -12 -12 -10 -1 4 21 -19
24 -30 4 -15 -28 -19 -98 -5 -98 6 0 30 24 53 53 23 28 46 52 50 52 5 0 10
-19 12 -42 2 -23 9 -43 16 -46 10 -3 12 11 10 59 -3 71 -15 82 -58 52z"/>
<path d="M7364 11441 c-74 -45 -94 -112 -49 -157 20 -20 33 -25 68 -22 29 2
42 8 42 18 0 11 -9 14 -36 12 -34 -3 -69 16 -69 37 0 4 22 16 50 28 50 21 70
52 56 88 -7 20 -25 19 -62 -4z m36 -29 c0 -9 -44 -32 -58 -32 -10 1 38 40 49
40 5 0 9 -4 9 -8z"/>
<path d="M11063 11423 c-40 -40 -70 -110 -59 -138 9 -24 31 -13 32 16 2 37 19
71 54 104 28 27 32 28 41 13 15 -27 31 -21 27 10 -5 44 -48 42 -95 -5z"/>
<path d="M11280 11438 c-62 -42 -77 -138 -24 -158 25 -10 105 2 134 20 26 16
-2 33 -34 20 -33 -12 -93 -13 -100 -1 -3 5 5 12 18 15 14 3 39 18 56 32 25 21
30 33 28 58 -4 40 -32 45 -78 14z m44 -32 c-7 -19 -64 -52 -64 -37 0 11 61 64
66 58 3 -2 2 -12 -2 -21z"/>
<path d="M5282 11433 c-6 -10 -16 -46 -23 -81 -10 -47 -10 -65 -1 -74 13 -13
13 -14 37 86 10 44 13 72 6 79 -6 6 -13 2 -19 -10z"/>
<path d="M10208 11433 c-45 -52 -46 -107 -1 -143 14 -11 40 -20 58 -20 39 0
105 26 105 41 0 11 -10 10 -91 -7 -28 -6 -69 10 -69 26 0 6 6 10 14 10 8 0 27
11 43 24 24 21 26 27 18 52 -13 35 -53 44 -77 17z m45 -26 c5 -13 -30 -43 -40
-34 -7 7 16 47 26 47 5 0 11 -6 14 -13z"/>
<path d="M10533 11430 c-5 -17 -7 -18 -27 -6 -44 29 -109 -30 -104 -93 3 -32
7 -36 33 -39 22 -2 39 5 63 27 l32 30 0 -38 c0 -22 -11 -81 -25 -132 -55 -207
-59 -229 -47 -241 9 -9 24 1 65 39 29 28 69 58 88 68 39 21 52 36 39 49 -5 5
-39 -12 -84 -42 -42 -29 -76 -50 -76 -48 0 2 11 41 24 87 34 118 45 182 49
277 3 66 1 82 -11 82 -7 0 -16 -9 -19 -20z m-13 -37 c0 -1 -14 -18 -31 -38
-30 -34 -59 -46 -59 -24 0 14 21 53 33 60 8 6 57 7 57 2z"/>
<path d="M7584 11430 c-42 -17 -80 -90 -64 -121 14 -24 34 -24 75 1 l33 20 6
-25 c10 -38 35 -32 33 8 0 17 3 49 7 70 11 48 -13 51 -42 5 -10 -18 -33 -41
-51 -51 -30 -18 -31 -18 -31 1 0 25 36 62 61 62 14 0 19 6 17 17 -4 20 -17 24
-44 13z"/>
<path d="M9080 11414 c-30 -8 -93 -18 -140 -22 -65 -5 -85 -11 -88 -23 -2 -13
7 -15 60 -11 35 2 103 12 153 23 49 10 108 19 132 19 32 0 43 4 43 15 0 20
-83 19 -160 -1z"/>
<path d="M10906 11418 c-20 -63 -26 -112 -16 -122 8 -8 13 -7 20 4 9 14 12 29
14 93 2 30 -11 47 -18 25z"/>
<path d="M12744 11411 c-66 -41 -90 -99 -57 -140 14 -17 30 -23 68 -24 36 -2
50 2 50 12 0 9 -14 14 -43 15 -25 1 -47 9 -53 17 -13 21 -11 28 9 27 58 -5 94
28 84 78 -6 31 -24 36 -58 15z m23 -44 c-3 -8 -18 -17 -34 -20 l-28 -5 29 24
c29 26 43 26 33 1z"/>
<path d="M3233 11358 l-38 -52 -5 29 c-3 17 -11 30 -19 30 -10 0 -14 -18 -16
-68 -1 -37 1 -70 5 -72 5 -3 32 26 61 65 54 71 69 74 69 18 0 -43 19 -43 65 2
38 38 43 40 48 21 5 -20 52 -40 64 -27 3 3 -6 17 -20 30 -15 14 -27 32 -27 41
0 27 -32 16 -65 -22 l-33 -38 -7 48 c-10 64 -33 63 -82 -5z"/>
<path d="M12576 11395 c-8 -8 -18 -24 -21 -35 -3 -11 -13 -20 -22 -20 -11 0
-14 -6 -9 -22 3 -13 6 -36 6 -51 0 -46 20 -26 43 43 20 58 25 65 47 63 14 -1
32 1 40 3 12 5 12 8 -4 20 -26 18 -61 18 -80 -1z"/>
<path d="M13202 11385 c-26 -22 -31 -23 -36 -9 -4 9 -10 14 -13 10 -8 -8 -43
-97 -43 -108 0 -18 27 -5 62 28 27 27 36 32 32 17 -3 -11 1 -25 10 -32 13 -11
23 -9 62 13 26 15 48 25 48 24 1 -2 6 -16 12 -33 6 -20 17 -31 32 -33 25 -4
32 25 7 34 -9 4 -15 19 -15 38 0 18 -3 36 -7 39 -3 4 -30 -7 -60 -24 l-55 -31
7 46 c8 53 0 57 -43 21z"/>
<path d="M12968 11374 c-34 -18 -51 -48 -43 -74 7 -24 39 -34 62 -22 14 8 21
4 35 -19 21 -35 44 -39 33 -6 -4 12 -8 36 -9 54 -2 45 -11 49 -46 19 -18 -14
-37 -23 -42 -19 -15 9 37 53 63 53 10 0 19 7 19 15 0 19 -36 19 -72 -1z"/>
<path d="M5543 10911 c-4 -15 -13 -21 -33 -21 -40 0 -104 -51 -129 -103 -29
-60 -21 -103 31 -168 100 -126 109 -158 56 -185 -23 -12 -47 -15 -89 -11 -72
6 -99 21 -99 52 0 14 -4 25 -9 25 -17 0 -33 -29 -26 -50 10 -31 59 -51 139
-57 63 -4 75 -2 106 19 62 42 51 101 -37 205 -59 69 -69 105 -42 160 22 45 72
83 109 83 21 0 22 -4 18 -44 -7 -60 2 -73 36 -51 30 20 34 54 11 89 -8 13 -14
33 -13 46 4 29 -22 39 -29 11z"/>
<path d="M2930 10873 c-8 -3 -40 -23 -70 -44 -119 -81 -169 -161 -177 -284 -9
-137 58 -203 211 -207 48 -2 80 1 83 7 2 6 -11 12 -29 13 -135 10 -199 38
-224 98 -31 75 -3 202 62 274 40 44 150 120 174 120 10 0 23 -7 30 -15 10 -12
10 -15 -3 -15 -21 0 -35 -66 -18 -83 34 -34 77 63 50 111 -15 27 -55 38 -89
25z"/>
<path d="M5737 10833 c-7 -12 -26 -118 -33 -187 -6 -63 -2 -61 -74 -44 -8 2
-15 -5 -18 -14 -2 -13 7 -18 41 -23 l44 -7 -5 -80 c-4 -66 -2 -80 9 -76 9 3
16 29 21 77 3 40 8 74 11 77 2 2 26 6 52 7 71 3 72 27 2 27 l-55 0 5 68 c3 37
9 85 15 107 5 22 10 46 11 54 2 16 -18 27 -26 14z"/>
<path d="M11570 10812 c0 -58 -51 -156 -184 -355 -144 -214 -171 -263 -156
-287 11 -17 41 -5 34 14 -8 21 13 57 160 275 103 154 137 213 158 276 14 44
24 83 21 87 -9 15 -33 8 -33 -10z"/>
<path d="M12803 10696 c-32 -65 -41 -75 -69 -80 -40 -8 -64 -33 -44 -46 8 -5
17 -5 20 -1 3 5 15 11 27 15 21 7 21 5 12 -26 -5 -18 -9 -55 -9 -81 0 -40 5
-54 29 -78 16 -16 40 -29 54 -29 36 0 88 21 84 34 -4 12 -13 12 -63 1 -25 -6
-36 -3 -54 15 -20 20 -22 30 -17 84 9 94 8 93 93 101 54 6 74 11 74 22 0 11
-13 13 -65 9 -36 -3 -65 -3 -65 0 0 2 13 31 30 63 27 55 29 71 8 71 -4 0 -25
-33 -45 -74z"/>
<path d="M1795 10740 c-27 -11 -77 -27 -109 -35 -70 -18 -73 -20 -57 -39 9
-11 9 -28 -4 -78 -8 -34 -20 -74 -26 -88 -6 -14 -12 -56 -12 -95 -2 -56 1 -70
13 -70 9 0 14 8 13 20 -1 11 3 40 8 65 10 48 13 50 124 84 22 6 41 17 43 24 3
18 -41 14 -94 -8 -26 -11 -49 -19 -51 -16 -3 2 4 41 14 86 16 71 21 82 43 86
14 3 52 15 85 26 33 12 72 21 88 20 21 0 27 3 25 16 -5 24 -45 25 -103 2z"/>
<path d="M10092 10725 c2 -14 8 -26 13 -26 6 0 11 12 13 26 2 18 -1 25 -13 25
-12 0 -15 -7 -13 -25z"/>
<path d="M10525 10740 c-9 -15 37 -51 50 -39 6 6 6 16 -1 27 -13 21 -40 27
-49 12z"/>
<path d="M4387 10703 c-12 -11 -8 -22 13 -33 16 -9 22 -8 27 6 8 21 -24 44
-40 27z"/>
<path d="M8337 10673 c-14 -13 -5 -20 87 -67 89 -46 94 -49 78 -66 -18 -18
-40 -20 -494 -37 -140 -5 -178 -9 -178 -20 0 -17 141 -18 378 -2 92 6 184 9
206 7 l38 -3 -58 -48 c-33 -26 -71 -53 -86 -60 -16 -6 -28 -19 -28 -27 0 -13
1 -13 10 0 6 10 10 11 10 3 0 -23 19 -13 101 53 86 70 154 140 154 157 0 6
-33 28 -73 48 -40 21 -82 45 -94 54 -24 16 -41 19 -51 8z"/>
<path d="M12080 10621 l-35 -6 -5 -87 c-7 -112 -18 -124 -59 -64 -17 25 -34
59 -37 76 -8 36 -22 48 -30 25 -17 -44 64 -175 107 -175 28 0 51 60 53 136 l1
62 59 8 c72 11 90 35 24 33 -23 -1 -59 -4 -78 -8z"/>
<path d="M10256 10594 c-19 -13 -40 -32 -45 -42 -9 -15 -12 -15 -20 -2 -12 18
-26 6 -27 -23 -1 -25 -37 -196 -58 -275 -15 -55 -12 -86 7 -79 11 3 33 83 57
200 11 56 13 58 26 38 44 -63 164 26 164 121 0 39 -21 73 -49 81 -11 3 -34 -5
-55 -19z m70 -39 c9 -37 -3 -74 -36 -106 -34 -35 -62 -37 -79 -6 -11 20 -9 29
10 63 41 72 93 97 105 49z"/>
<path d="M10926 10598 c-3 -13 -6 -35 -6 -49 0 -39 -37 -81 -68 -77 -38 4 -37
22 2 66 41 45 43 52 16 52 -11 0 -20 -4 -20 -9 0 -4 -13 -22 -30 -39 -16 -18
-30 -41 -30 -51 0 -52 78 -69 123 -27 15 14 29 22 31 18 7 -12 36 -160 36
-186 0 -25 -1 -25 -59 -20 -83 7 -126 -12 -142 -64 -23 -79 6 -138 73 -148 67
-11 125 41 149 133 11 42 11 42 63 45 37 2 51 7 51 18 0 11 -12 13 -50 11
l-51 -2 -12 78 c-34 223 -43 265 -58 270 -6 2 -14 -6 -18 -19z m43 -400 c-18
-78 -72 -121 -127 -102 -36 13 -53 74 -31 112 17 30 47 39 119 34 l47 -4 -8
-40z"/>
<path d="M13131 10607 c-45 -16 -78 -59 -65 -86 5 -11 31 -35 58 -53 72 -48
71 -60 0 -57 -46 2 -59 0 -59 -12 0 -18 69 -28 113 -17 25 7 32 14 32 33 0 22
-17 40 -99 103 l-24 19 21 21 c23 23 76 30 87 12 9 -15 25 -12 25 4 0 13 -37
47 -50 45 -3 0 -20 -5 -39 -12z"/>
<path d="M11731 10593 c-41 -21 -91 -97 -91 -141 0 -23 8 -40 25 -56 31 -29
104 -40 121 -19 9 10 13 11 16 2 6 -17 48 -1 48 18 0 12 -6 13 -27 7 -65 -18
-153 4 -153 39 0 6 3 8 6 4 9 -9 75 20 101 45 31 29 39 74 17 99 -21 23 -20
23 -63 2z m45 -39 c-3 -9 -6 -20 -6 -25 0 -11 -60 -49 -77 -49 -20 0 -16 12
18 53 31 37 77 53 65 21z"/>
<path d="M10628 10575 c-25 -29 -79 -146 -72 -157 9 -14 29 -8 42 12 7 12 10
25 7 30 -6 10 18 60 44 92 22 28 32 11 30 -53 -2 -62 2 -76 20 -64 14 8 14
120 1 146 -15 26 -46 24 -72 -6z"/>
<path d="M12249 10577 c-70 -43 -105 -106 -81 -144 19 -31 130 -45 151 -20 16
20 5 25 -43 20 -49 -6 -86 9 -86 36 0 14 6 17 24 14 34 -7 104 32 112 62 6 26
-9 55 -30 55 -6 0 -27 -10 -47 -23z m46 -27 c-8 -13 -66 -43 -71 -37 -7 7 47
47 63 47 8 0 11 -5 8 -10z"/>
<path d="M9798 10574 c-32 -17 -60 -68 -77 -139 -17 -72 -39 -315 -29 -321 18
-11 26 10 43 111 18 106 18 106 54 121 48 20 66 38 102 102 25 43 30 61 26 89
-4 20 -12 40 -19 45 -20 12 -70 9 -100 -8z m90 -44 c5 -48 -99 -182 -123 -159
-3 3 2 25 10 49 11 31 12 46 4 56 -23 28 36 87 81 82 18 -2 26 -10 28 -28z"/>
<path d="M10459 10587 c0 -1 -2 -20 -5 -42 -2 -22 -6 -64 -10 -92 -5 -43 -3
-53 9 -53 10 0 16 15 20 48 3 26 9 65 13 88 5 33 3 42 -10 47 -9 4 -16 5 -17
4z"/>
<path d="M12506 10578 c-38 -22 -84 -76 -104 -121 -11 -25 -18 -48 -14 -51 12
-12 22 -5 38 27 23 45 72 105 96 118 18 10 19 7 17 -53 -3 -65 3 -88 25 -88
10 0 12 19 9 78 -3 42 -6 83 -8 90 -5 15 -33 15 -59 0z"/>
<path d="M6008 10543 c-44 -47 -58 -73 -58 -112 0 -50 61 -78 103 -47 27 21
20 29 -22 22 -30 -5 -40 -2 -45 10 -11 28 -6 44 13 44 30 0 81 33 87 57 7 25
-11 63 -29 63 -7 0 -29 -17 -49 -37z m52 -13 c0 -5 -15 -17 -32 -26 l-33 -17
24 27 c25 27 41 33 41 16z"/>
<path d="M6366 10568 c-3 -7 -7 -31 -10 -53 -3 -22 -9 -58 -15 -79 -10 -40 -7
-56 8 -56 5 0 27 29 50 65 23 36 49 65 57 65 14 0 13 -2 0 -16 -19 -18 -22
-84 -4 -84 6 0 31 21 55 46 l43 47 0 -44 c0 -44 21 -89 42 -89 6 0 7 9 3 23
-4 12 -10 47 -14 77 -7 67 -28 76 -73 33 l-29 -28 3 40 c4 54 -25 61 -64 14
l-27 -34 -1 37 c0 37 -16 61 -24 36z"/>
<path d="M3603 10559 c-28 -10 -29 -28 -3 -79 11 -21 17 -46 14 -54 -9 -24
-43 -30 -65 -11 -17 16 -19 16 -25 1 -17 -44 54 -62 100 -25 30 24 32 51 7 99
-17 32 -18 35 -2 47 22 16 3 34 -26 22z"/>
<path d="M4475 10533 c-3 -21 -10 -51 -15 -67 -9 -29 -6 -46 9 -46 5 0 25 27
46 60 21 33 39 60 41 60 10 0 34 -63 34 -90 0 -32 11 -38 29 -17 21 26 -26
137 -58 137 -10 0 -26 -10 -34 -22 l-16 -23 0 23 c-1 38 -29 26 -36 -15z"/>
<path d="M5893 10550 c-18 -11 -33 -24 -33 -30 0 -5 -9 -10 -20 -10 -12 0 -20
-7 -20 -17 0 -10 -3 -35 -6 -55 -10 -58 17 -49 49 17 14 30 38 62 52 71 14 9
25 23 25 30 0 19 -9 18 -47 -6z"/>
<path d="M10016 10558 c-12 -39 -26 -140 -21 -148 3 -6 12 -10 19 -10 9 0 15
22 19 68 3 37 9 75 12 85 5 12 2 17 -9 17 -9 0 -18 -6 -20 -12z"/>
<path d="M6174 10533 c-36 -56 -43 -76 -33 -95 12 -21 48 -24 74 -4 17 12 20
11 30 -6 18 -37 27 -24 30 45 2 71 -9 83 -32 36 -7 -13 -22 -32 -34 -41 -44
-37 -53 -13 -14 38 20 26 22 34 11 43 -10 9 -18 5 -32 -16z"/>
<path d="M6790 10553 c-34 -13 -70 -46 -70 -63 0 -10 21 -36 46 -58 27 -23 44
-44 40 -51 -11 -17 -31 -13 -51 9 -21 23 -35 26 -35 7 0 -23 40 -57 65 -57 25
0 65 31 65 51 0 10 -16 26 -80 78 -25 21 -25 21 -5 34 11 6 31 14 45 17 14 3
25 12 25 20 0 16 -21 22 -45 13z"/>
<path d="M3301 10536 c-7 -8 -18 -40 -26 -71 -11 -49 -11 -57 2 -62 18 -7 35
16 27 37 -3 8 -2 12 1 8 3 -3 17 5 30 18 38 38 48 31 40 -26 -6 -40 -4 -50 8
-50 25 0 37 106 15 128 -18 18 -39 15 -66 -10 l-25 -23 13 24 c14 28 0 50 -19
27z"/>
<path d="M4312 10478 c2 -40 8 -73 13 -73 11 0 26 111 18 132 -3 7 -12 13 -20
13 -11 0 -13 -15 -11 -72z"/>
<path d="M4729 10527 c-42 -28 -61 -64 -48 -89 12 -22 38 -23 83 -4 l34 14 6
-36 c3 -21 6 -72 6 -114 0 -74 -1 -78 -22 -78 -49 0 -95 -20 -107 -46 -25 -57
46 -136 103 -115 44 17 66 47 66 91 0 34 3 40 20 40 12 0 30 9 42 20 19 18 20
20 4 26 -10 4 -22 2 -29 -5 -6 -6 -19 -11 -29 -11 -16 0 -18 10 -18 77 0 104
-21 233 -37 233 -7 0 -13 5 -13 10 0 17 -25 11 -61 -13z m47 -36 c-14 -26 -53
-47 -66 -35 -6 7 56 64 70 64 6 0 4 -13 -4 -29z m44 -333 c0 -40 -25 -68 -61
-68 -56 0 -68 80 -14 91 66 14 75 11 75 -23z"/>
<path d="M3111 10514 c-28 -36 -27 -80 1 -95 17 -9 28 -8 55 6 41 23 49 47 26
85 -22 38 -54 39 -82 4z m54 -39 c0 -13 -8 -21 -22 -23 -24 -3 -28 4 -17 33 9
22 39 14 39 -10z"/>
<path d="M4121 10503 l-45 -35 -16 22 c-16 22 -18 22 -44 5 -14 -10 -31 -25
-37 -34 -8 -13 -9 -13 -5 4 3 11 2 26 -3 34 -10 16 -34 5 -28 -13 3 -7 -3 -32
-14 -56 -39 -87 -21 -92 52 -14 49 50 54 53 61 35 9 -26 12 -26 64 4 l42 25 6
-25 c7 -26 42 -43 58 -27 7 7 3 14 -12 22 -17 9 -21 19 -18 47 2 20 -1 37 -7
39 -5 1 -30 -13 -54 -33z"/>
<path d="M2053 10511 c-17 -11 -35 -26 -40 -33 -4 -7 -15 -13 -23 -13 -11 0
-16 -13 -18 -47 -4 -58 17 -66 36 -14 15 40 78 100 97 92 8 -3 18 1 25 8 8 10
7 15 -6 20 -25 10 -37 7 -71 -13z"/>
<path d="M1804 10493 c-29 -31 -39 -63 -30 -98 5 -20 12 -25 40 -25 48 0 88
34 80 67 -4 14 -8 35 -9 47 -1 11 -3 24 -4 29 -3 18 -54 5 -77 -20z m53 -40
c1 -39 -9 -53 -39 -53 -24 0 -23 31 3 64 28 35 35 33 36 -11z"/>
<path d="M3733 10498 c-16 -21 -23 -76 -13 -103 23 -60 140 -5 156 72 9 47
-13 50 -32 4 -16 -40 -50 -71 -79 -71 -18 0 -21 60 -4 77 11 11 5 33 -10 33
-5 0 -13 -6 -18 -12z"/>
<path d="M3334 9933 c-4 -13 -37 -28 -117 -52 -147 -44 -180 -58 -172 -72 4
-6 16 -8 27 -6 17 5 19 2 13 -20 -3 -14 -9 -39 -12 -55 -4 -18 -16 -34 -34
-44 -34 -17 -40 -49 -9 -41 11 3 20 4 20 2 0 -2 -7 -36 -15 -75 -10 -46 -12
-78 -6 -88 8 -14 11 -13 19 8 5 14 15 54 22 90 6 36 17 70 23 77 7 6 43 18 80
25 37 8 67 18 65 23 -4 12 -59 12 -106 0 l-33 -8 6 39 c14 76 22 83 134 120
58 19 111 34 117 34 18 0 24 13 17 38 -6 26 -33 29 -39 5z"/>
<path d="M1853 9867 c-21 -30 -54 -81 -73 -115 -19 -34 -68 -112 -107 -174
-40 -62 -73 -116 -73 -120 0 -17 30 -7 41 15 29 55 62 82 119 98 l57 15 -1
-73 c-1 -93 17 -96 25 -4 4 38 11 75 15 83 5 7 9 16 10 21 1 4 3 10 4 15 1 4
2 15 1 24 -1 9 7 56 18 103 23 93 27 150 12 160 -5 3 -27 -19 -48 -48z m0
-134 l-26 -110 -50 -16 c-28 -9 -52 -15 -53 -14 -2 2 10 23 25 47 15 25 49 82
76 127 27 46 50 81 52 80 1 -2 -9 -53 -24 -114z"/>
<path d="M4057 9860 c-4 -33 -30 -127 -58 -210 -28 -82 -49 -157 -47 -167 7
-36 24 -20 40 40 9 34 32 109 51 167 59 178 67 230 33 230 -9 0 -15 -21 -19
-60z"/>
<path d="M4242 9904 c-15 -30 -131 -386 -134 -414 -4 -31 25 -35 30 -5 2 11
33 109 69 218 44 135 62 202 55 209 -7 7 -13 4 -20 -8z"/>
<path d="M2370 9773 c0 -122 -16 -172 -73 -230 -36 -38 -57 -42 -57 -10 1 38
37 107 57 107 12 0 19 7 19 20 0 44 -59 7 -87 -54 -21 -47 -24 -97 -7 -114 37
-37 102 8 148 102 29 59 31 67 28 171 -2 76 -7 110 -15 113 -10 3 -13 -23 -13
-105z"/>
<path d="M7725 9853 c-12 -65 -90 -288 -112 -320 -24 -36 -29 -48 -14 -39 5 3
12 -1 15 -10 9 -24 29 -12 33 20 2 15 12 49 22 74 54 137 92 267 84 288 -8 23
-22 16 -28 -13z"/>
<path d="M7545 9848 c-2 -7 -13 -53 -25 -102 -11 -49 -34 -129 -50 -178 -34
-102 -36 -116 -14 -125 19 -7 44 14 28 25 -7 5 3 53 32 147 46 155 63 245 45
245 -7 0 -14 -6 -16 -12z"/>
<path d="M9722 9798 c-17 -17 -15 -25 8 -31 26 -7 37 11 18 29 -11 11 -16 12
-26 2z"/>
<path d="M7401 9776 c-10 -12 -8 -17 8 -25 22 -12 34 -1 25 23 -8 20 -18 20
-33 2z"/>
<path d="M3330 9759 c-13 -8 -12 -12 4 -24 25 -19 36 -19 36 -1 0 22 -23 36
-40 25z"/>
<path d="M5247 9714 c-31 -19 -57 -42 -57 -50 0 -22 16 -17 71 21 28 19 55 35
61 35 5 0 -5 -20 -22 -45 -46 -67 -76 -151 -60 -170 14 -17 39 -8 81 31 l26
24 11 -25 c23 -51 109 -19 138 51 8 19 14 51 14 73 0 22 5 41 12 43 15 5 1 28
-18 28 -19 0 -34 -41 -28 -75 2 -14 -3 -42 -12 -61 -28 -59 -84 -72 -84 -19 0
43 -29 43 -67 0 -18 -21 -35 -36 -38 -33 -8 8 23 75 62 133 19 30 32 59 28 64
-12 21 -61 11 -118 -25z"/>
<path d="M5723 9718 c-39 -28 -73 -86 -73 -126 0 -43 33 -79 78 -86 44 -7 104
5 109 21 3 9 -15 12 -62 10 -56 -2 -69 1 -81 17 -22 30 -18 66 6 66 27 0 70
22 94 49 17 19 18 24 6 46 -17 31 -36 32 -77 3z m52 -29 c-8 -12 -66 -42 -71
-36 -8 8 57 57 67 51 5 -3 7 -10 4 -15z"/>
<path d="M7035 9699 c-22 -12 -47 -27 -55 -34 -8 -6 -34 -23 -57 -35 -24 -13
-43 -29 -43 -36 0 -17 28 -25 37 -11 5 7 20 20 36 30 15 9 39 25 53 34 l26 16
-26 -37 c-36 -54 -51 -103 -36 -121 17 -20 21 -19 65 10 20 15 38 25 39 23 21
-48 47 -59 78 -31 37 34 86 157 67 169 -20 12 -39 -6 -39 -38 0 -18 -10 -51
-23 -72 -23 -41 -47 -58 -47 -34 0 8 -6 23 -14 33 -14 19 -15 19 -52 -7 -21
-15 -40 -26 -42 -23 -9 8 12 47 54 101 60 78 52 102 -21 63z"/>
<path d="M8505 9688 c-27 -16 -51 -46 -70 -88 -9 -19 -21 -44 -27 -54 -9 -17
-5 -25 26 -53 30 -28 43 -33 86 -33 41 0 50 3 50 18 0 12 2 14 8 4 11 -16 42
-5 42 15 0 11 -6 14 -22 9 -54 -16 -100 -18 -124 -6 -32 18 -30 31 7 52 18 11
27 22 23 29 -5 8 -3 9 5 4 17 -10 61 33 61 61 0 52 -22 66 -65 42z m27 -55
c-12 -21 -72 -59 -72 -44 0 17 73 87 77 74 2 -7 0 -20 -5 -30z"/>
<path d="M8686 9693 c-11 -12 -6 -43 14 -83 19 -38 19 -39 2 -52 -10 -7 -26
-25 -36 -40 -28 -43 1 -45 38 -2 l33 38 42 -33 c28 -22 46 -30 52 -24 7 7 0
19 -19 35 -16 13 -35 35 -41 47 -11 20 -10 22 6 20 26 -3 53 11 53 28 0 8 5
11 12 7 7 -4 8 -3 4 4 -4 7 -1 12 9 12 11 0 15 7 13 22 -4 30 -24 34 -32 6 -3
-13 -26 -37 -50 -55 l-43 -31 -17 34 c-9 19 -16 41 -16 49 0 16 -14 27 -24 18z"/>
<path d="M10141 9675 c-17 -15 -39 -40 -48 -56 -10 -16 -23 -29 -29 -29 -8 0
-11 -17 -10 -50 3 -65 25 -90 81 -90 56 0 145 17 162 32 25 21 -1 27 -57 12
-77 -20 -137 -18 -148 4 -14 26 3 58 35 70 52 17 85 56 81 94 -4 42 -26 47
-67 13z m36 -39 c-3 -8 -21 -23 -39 -32 l-33 -17 20 24 c39 48 65 60 52 25z"/>
<path d="M8937 9663 c-64 -67 -68 -153 -8 -153 17 0 42 11 60 25 l30 26 3 -28
c2 -15 9 -28 16 -28 9 0 14 19 16 65 4 79 1 87 -35 105 -39 21 -52 19 -82 -12z
m68 -15 c14 -6 25 -16 25 -21 0 -16 -77 -87 -94 -87 -25 0 -20 47 10 86 30 39
26 37 59 22z"/>
<path d="M9866 9655 c-30 -23 -46 -30 -46 -21 0 8 -4 17 -9 21 -10 6 -31 -35
-51 -97 -6 -21 -16 -40 -21 -43 -16 -10 -10 -25 10 -25 11 0 37 25 66 65 46
62 82 95 105 95 6 0 9 -8 6 -17 -2 -10 -8 -42 -11 -70 -6 -45 -4 -53 9 -53 9
0 16 3 16 8 0 4 5 35 10 70 11 66 2 102 -25 102 -7 0 -34 -16 -59 -35z"/>
<path d="M9177 9602 c-58 -119 -48 -135 29 -46 27 30 57 60 68 66 17 9 18 7
12 -16 -5 -20 -3 -26 11 -26 9 0 24 6 32 13 9 7 28 18 43 24 30 13 41 1 31
-36 -7 -27 22 -71 47 -71 23 0 26 15 6 27 -7 5 -16 33 -19 67 -3 32 -8 60 -11
63 -8 9 -53 -6 -70 -22 -19 -19 -36 -19 -36 0 0 26 -30 29 -61 6 -16 -12 -29
-17 -29 -12 0 5 5 13 10 16 16 10 12 25 -7 25 -12 -1 -30 -26 -56 -78z"/>
<path d="M2032 9645 c-25 -21 -30 -22 -28 -7 2 35 -28 16 -40 -24 -6 -22 -19
-55 -28 -72 -9 -17 -16 -36 -16 -42 0 -20 30 -9 47 18 28 45 84 112 93 112 5
0 7 -29 3 -65 -5 -54 -3 -65 9 -65 12 0 17 17 23 75 9 102 -5 119 -63 70z"/>
<path d="M3656 9628 c-42 -49 -54 -82 -36 -103 17 -21 32 -19 71 8 l34 23 -3
-53 c-3 -44 -1 -53 13 -53 14 0 16 8 13 49 -1 27 0 47 3 45 12 -7 20 49 10 59
-8 8 -19 4 -38 -11 -42 -33 -83 -54 -83 -42 0 22 73 90 97 90 36 0 23 24 -14
28 -25 3 -37 -4 -67 -40z"/>
<path d="M7316 9663 c-3 -3 -6 -18 -6 -33 0 -14 -7 -35 -15 -46 -16 -22 -19
-50 -6 -58 13 -8 51 69 51 104 0 29 -12 45 -24 33z"/>
<path d="M9617 9663 c-4 -3 -7 -14 -7 -24 0 -9 -11 -41 -24 -70 -14 -29 -23
-56 -20 -61 9 -14 34 -9 34 7 0 9 8 32 19 53 27 54 36 102 18 102 -7 0 -17 -3
-20 -7z"/>
<path d="M3448 9621 c-19 -23 -40 -41 -45 -41 -12 0 -44 -90 -37 -102 11 -17
22 -6 67 66 62 97 77 103 77 31 0 -54 11 -72 24 -38 4 9 1 20 -6 25 -11 6 -10
8 0 8 9 0 12 13 10 43 -3 37 -6 42 -29 45 -21 2 -34 -6 -61 -37z"/>
<path d="M4260 9635 c-11 -30 -13 -88 -4 -134 5 -25 11 -31 28 -29 26 4 32 31
10 52 -15 16 -16 36 -2 110 5 30 -21 31 -32 1z"/>
<path d="M4394 9603 c-87 -131 -157 -245 -176 -290 -12 -29 -28 -53 -36 -53
-22 0 -8 -25 16 -28 14 -2 24 3 28 15 26 76 90 187 195 339 26 38 28 54 7 54
-4 0 -20 -17 -34 -37z"/>
<path d="M3237 9596 c-3 -7 -9 -34 -12 -60 -6 -37 -4 -46 8 -46 9 0 17 14 22
38 3 20 9 47 12 60 6 25 -21 32 -30 8z"/>
<path d="M7723 9121 c-10 -16 -32 -108 -72 -303 -11 -51 -19 -63 -44 -67 -41
-5 -112 -73 -123 -117 -8 -32 2 -70 21 -78 25 -9 80 19 108 55 30 41 46 94 91
313 20 94 40 174 46 180 14 14 12 36 -3 36 -7 0 -17 -8 -24 -19z m-105 -429
c-12 -50 -57 -102 -87 -102 -46 0 -8 82 52 115 21 11 37 24 37 29 0 5 2 7 4 5
3 -3 0 -24 -6 -47z"/>
<path d="M8418 9119 c-61 -9 -98 -24 -98 -39 0 -19 22 -21 56 -5 48 23 269 32
355 16 60 -12 133 -44 172 -74 28 -23 21 -61 -17 -95 -38 -33 -159 -96 -174
-91 -5 2 6 49 24 104 38 117 41 138 17 133 -11 -2 -20 -16 -24 -38 -3 -19 -19
-74 -34 -122 -24 -73 -33 -88 -50 -87 -43 1 -231 27 -247 34 -13 5 -18 3 -18
-9 0 -23 30 -32 155 -46 61 -7 112 -14 114 -16 3 -2 -3 -28 -12 -57 -27 -86
-32 -137 -14 -137 9 0 17 14 22 38 3 20 15 67 26 103 18 64 21 67 57 74 50 9
171 80 201 117 28 35 31 80 7 106 -26 29 -106 70 -171 87 -65 16 -248 19 -347
4z"/>
<path d="M2756 9088 c-3 -13 -6 -38 -6 -55 0 -18 -13 -113 -29 -210 -30 -181
-30 -248 -1 -248 10 0 13 14 11 60 -1 33 9 125 23 205 29 170 36 261 20 267
-6 2 -14 -6 -18 -19z"/>
<path d="M5650 9080 c-8 -16 -7 -25 4 -42 10 -14 12 -27 6 -38 -5 -10 -17 -75
-25 -145 -9 -70 -22 -140 -30 -156 -29 -55 -105 -91 -118 -56 -7 20 27 93 48
100 9 4 27 4 40 1 12 -3 26 -1 29 5 8 13 -25 31 -57 31 -49 0 -110 -106 -87
-149 26 -49 77 -46 133 7 45 43 56 72 72 206 9 70 20 138 25 152 7 18 6 32 -2
47 -7 12 -11 27 -10 34 5 21 -17 24 -28 3z"/>
<path d="M7475 9081 c-12 -21 -94 -304 -110 -383 -13 -62 -14 -82 -5 -93 18
-22 30 -8 30 33 0 49 21 138 72 300 27 90 37 137 30 144 -6 6 -12 6 -17 -1z"/>
<path d="M2405 9057 c-157 -54 -288 -217 -289 -361 -1 -68 19 -107 77 -148 29
-21 42 -23 142 -22 67 1 120 6 134 13 41 22 9 30 -78 19 -115 -14 -163 -5
-205 37 -40 39 -51 88 -35 147 29 109 106 207 206 261 l51 27 -14 -61 c-15
-63 -12 -79 11 -79 17 0 72 46 86 72 29 54 -27 115 -86 95z m65 -63 c0 -7 -11
-26 -26 -41 l-25 -28 6 35 c12 66 15 72 31 59 8 -6 14 -17 14 -25z"/>
<path d="M6800 9041 c-66 -14 -187 -90 -257 -163 -56 -57 -103 -149 -103 -199
0 -91 55 -154 145 -169 64 -10 162 -4 183 13 6 5 12 6 12 2 0 -4 7 -2 15 5 23
19 3 35 -24 20 -12 -6 -65 -11 -117 -11 -106 -1 -131 9 -164 64 -57 93 29 248
195 352 70 43 133 63 128 40 -1 -5 -12 -34 -24 -63 -17 -37 -20 -55 -12 -63
15 -15 49 4 72 41 14 25 16 37 7 84 -6 31 -13 55 -16 55 -3 -1 -21 -4 -40 -8z"/>
<path d="M11162 8952 l-60 -88 -77 4 c-83 5 -108 -5 -85 -33 7 -8 37 -22 66
-31 49 -14 53 -17 43 -35 -18 -35 -60 -93 -71 -100 -6 -4 -8 -15 -4 -24 6 -17
8 -17 27 1 11 10 36 44 55 76 31 50 40 58 66 58 23 0 29 -4 24 -16 -3 -9 -6
-25 -6 -38 0 -14 -12 -28 -36 -41 -43 -23 -67 -56 -58 -79 8 -22 28 -15 32 10
2 17 47 54 65 54 3 0 12 -18 21 -40 9 -22 20 -40 25 -40 5 0 23 17 40 37 22
27 31 48 31 74 0 35 2 38 55 60 82 34 73 49 -30 48 -47 -1 -88 1 -92 5 -3 3 6
52 21 108 14 57 26 106 26 111 0 23 -26 -3 -78 -81z m5 -80 c-9 -31 -15 -39
-25 -33 -11 7 -9 15 9 44 13 20 25 34 26 33 2 -1 -3 -21 -10 -44z m-92 -42 c7
-11 -9 -11 -45 0 -24 8 -24 8 7 9 17 1 35 -3 38 -9z m125 -90 c-23 -15 -28
-12 -22 16 4 24 6 24 21 9 14 -14 14 -17 1 -25z m19 -76 c-15 -30 -26 -30 -35
-2 -5 16 0 27 17 41 22 18 24 18 27 2 2 -10 -2 -28 -9 -41z"/>
<path d="M3460 8991 c0 -16 -5 -53 -11 -82 l-11 -51 -49 6 c-39 5 -49 4 -49
-7 0 -15 29 -27 68 -27 27 0 28 -16 7 -110 -18 -83 -19 -133 -3 -128 8 3 21
54 33 124 l21 119 44 7 c76 13 91 18 84 29 -4 7 -27 9 -64 5 l-57 -7 7 46 c10
64 7 98 -7 103 -9 2 -13 -7 -13 -27z"/>
<path d="M7053 8983 c-3 -10 -12 -34 -20 -53 -30 -72 -113 -312 -113 -326 0
-8 7 -17 16 -21 11 -4 37 15 81 58 63 62 65 63 58 32 -7 -33 11 -82 25 -67 4
5 10 35 13 66 4 45 2 58 -10 62 -22 9 -20 10 -84 -51 -32 -31 -59 -51 -59 -45
0 10 74 212 104 284 18 43 21 78 6 78 -6 0 -13 -8 -17 -17z"/>
<path d="M1545 8968 c-2 -7 -10 -37 -17 -66 l-13 -54 -50 -4 c-70 -5 -135 -24
-135 -40 0 -27 37 -35 101 -24 34 6 63 10 65 7 9 -8 -39 -127 -71 -177 -27
-42 -32 -57 -24 -72 10 -19 11 -19 33 4 12 13 20 29 18 35 -2 7 24 40 59 73
l63 61 21 -72 c27 -95 45 -102 45 -16 0 35 -5 79 -12 97 -11 32 -10 35 35 77
43 40 60 73 39 73 -5 0 -31 -7 -58 -15 -27 -8 -50 -15 -51 -15 -2 0 -3 17 -3
39 0 66 -31 128 -45 89z m15 -113 c0 -14 -4 -25 -9 -25 -4 0 -6 11 -3 25 2 14
6 25 8 25 2 0 4 -11 4 -25z m64 -56 c-12 -13 -20 -16 -22 -9 -3 7 2 16 9 21
25 16 32 9 13 -12z m-59 -30 c8 -23 2 -32 -35 -59 l-29 -21 14 48 c8 26 15 51
15 55 0 15 29 -4 35 -23z"/>
<path d="M7272 8857 c-14 -16 -6 -27 20 -27 13 0 18 6 16 17 -4 22 -22 27 -36
10z"/>
<path d="M2880 8813 c0 -10 -7 -48 -16 -85 -15 -63 -15 -69 0 -93 25 -38 60
-42 105 -12 51 34 75 85 64 138 -11 57 -27 49 -31 -15 -3 -48 -7 -58 -38 -85
-41 -37 -48 -38 -67 -10 -13 18 -13 28 -1 77 18 75 18 102 -1 102 -8 0 -15 -8
-15 -17z"/>
<path d="M3183 8810 c-54 -24 -62 -52 -34 -115 12 -26 21 -56 21 -67 0 -23
-25 -34 -44 -19 -11 9 -15 8 -20 -5 -17 -44 55 -45 87 -2 l20 27 -27 61 c-15
33 -24 65 -20 71 3 6 26 20 51 31 24 10 41 23 38 29 -9 13 -25 11 -72 -11z"/>
<path d="M3594 8799 c-31 -11 -71 -68 -79 -110 -7 -38 9 -83 38 -107 21 -18
93 -18 111 0 21 22 13 26 -44 20 -50 -5 -50 -4 -66 33 -8 20 -14 38 -12 39 2
1 25 11 51 24 52 24 62 39 53 76 -7 28 -23 36 -52 25z m24 -45 c-2 -9 -19 -22
-38 -30 l-35 -15 30 30 c32 34 48 40 43 15z"/>
<path d="M9863 8803 c-27 -5 -73 -47 -73 -67 0 -8 11 -28 25 -44 13 -16 22
-32 18 -36 -3 -3 -26 -6 -50 -6 -60 0 -52 -24 9 -28 32 -2 51 2 68 16 l24 20
-33 37 c-33 38 -33 38 -13 57 11 11 35 21 53 23 45 4 43 3 29 20 -13 15 -17
16 -57 8z"/>
<path d="M10520 8797 c-37 -20 -30 -61 20 -112 58 -60 54 -66 -37 -61 -67 5
-75 4 -62 -9 20 -21 134 -32 154 -15 28 23 18 59 -32 107 -44 43 -45 46 -28
59 10 8 26 14 34 15 44 3 51 5 53 14 4 15 -74 17 -102 2z"/>
<path d="M3836 8769 c-14 -17 -26 -35 -26 -40 0 -6 -12 -21 -26 -34 -29 -27
-62 -141 -45 -158 12 -12 31 0 31 19 0 23 59 156 81 183 19 23 20 23 33 6 17
-24 40 -11 26 15 -6 11 -19 24 -29 30 -16 8 -24 4 -45 -21z"/>
<path d="M4170 8780 c-74 -14 -133 -62 -123 -100 3 -11 20 -31 39 -45 19 -14
34 -30 34 -36 0 -18 -65 -10 -83 11 -9 11 -21 20 -27 20 -16 0 -11 -23 10 -48
33 -40 140 -27 140 16 0 9 -18 33 -40 52 -28 23 -39 40 -35 51 7 20 67 49 100
49 26 0 43 17 29 29 -5 4 -25 5 -44 1z"/>
<path d="M5049 8767 c-18 -12 -47 -44 -63 -71 -28 -45 -29 -49 -15 -74 19 -33
39 -31 97 9 l42 30 -2 -32 c-5 -59 17 -40 40 35 27 91 27 102 3 116 -31 16
-65 12 -102 -13z m75 -16 c15 -24 -110 -138 -130 -119 -3 4 6 27 20 52 33 56
94 94 110 67z"/>
<path d="M10023 8765 c-27 -11 -33 -20 -33 -45 0 -17 10 -44 22 -61 19 -26 20
-31 8 -39 -8 -5 -23 -7 -32 -4 -13 4 -18 0 -18 -15 0 -37 79 -24 94 15 4 11
-4 32 -20 55 -33 48 -26 67 26 75 24 4 40 12 40 20 0 18 -45 18 -87 -1z"/>
<path d="M10208 8738 c-42 -46 -53 -75 -44 -112 7 -27 58 -50 98 -44 34 5 24
22 -19 31 -50 10 -56 19 -48 59 5 18 10 27 12 21 12 -33 103 3 103 40 0 59
-50 61 -102 5z m72 2 c0 -12 -42 -31 -50 -23 -6 5 30 33 42 33 4 0 8 -5 8 -10z"/>
<path d="M5276 8745 c-27 -18 -36 -21 -36 -10 0 24 -20 17 -30 -11 -15 -39
-13 -94 4 -94 8 0 17 9 21 19 3 11 25 37 48 58 l42 38 3 -35 c5 -71 13 -100
28 -100 12 0 13 13 10 70 -3 39 -8 75 -11 80 -10 17 -40 11 -79 -15z"/>
<path d="M8863 8750 c-49 -29 -91 -128 -66 -153 11 -12 33 14 33 39 0 47 38
93 78 94 24 0 28 10 10 28 -16 16 -17 15 -55 -8z"/>
<path d="M9274 8736 c-32 -32 -35 -40 -32 -82 4 -62 34 -86 96 -77 32 4 42 10
42 24 0 22 -20 36 -30 20 -4 -7 -22 -11 -41 -9 -30 3 -34 7 -37 36 -4 41 20
79 54 88 13 4 23 11 21 18 -8 24 -39 16 -73 -18z"/>
<path d="M9523 8755 c-56 -39 -83 -134 -44 -155 31 -16 75 -12 88 9 7 10 9 22
6 25 -11 11 -51 6 -56 -6 -3 -10 -7 -10 -17 -1 -17 16 -4 69 13 54 21 -16 91
12 95 39 7 45 -42 65 -85 35z m51 -24 c3 -5 -1 -12 -10 -15 -27 -11 -37 -7
-24 9 14 17 26 19 34 6z"/>
<path d="M9066 8741 c-82 -55 -71 -151 17 -151 72 0 94 56 55 137 -17 35 -35
38 -72 14z m54 -56 c9 -28 9 -39 0 -50 -23 -28 -80 -12 -80 21 0 17 40 64 55
64 7 0 19 -16 25 -35z"/>
<path d="M7192 8698 c-5 -7 -12 -31 -14 -53 -2 -30 1 -40 12 -40 10 0 16 12
18 35 2 19 8 39 13 45 5 5 9 13 9 17 0 13 -26 9 -38 -4z"/>
<path d="M4177 8193 c-3 -5 -10 -36 -16 -69 -5 -32 -12 -71 -16 -86 -8 -29 5
-37 23 -15 15 18 34 159 23 170 -5 5 -11 5 -14 0z"/>
<path d="M7616 8164 c-3 -9 -6 -25 -6 -36 0 -43 -53 -256 -77 -310 -37 -83
-49 -90 -83 -50 -32 39 -48 87 -56 173 -7 69 -20 103 -34 94 -15 -9 -46 -87
-81 -202 -18 -59 -38 -115 -46 -124 -7 -8 -13 -21 -13 -27 0 -7 -4 -12 -10
-12 -5 0 -10 -12 -10 -26 0 -19 4 -25 18 -22 24 5 45 52 93 208 23 74 43 131
45 125 1 -5 10 -44 19 -87 13 -63 23 -84 56 -122 23 -25 47 -46 55 -46 39 0
105 158 139 335 9 50 21 95 26 101 12 15 1 44 -16 44 -7 0 -16 -7 -19 -16z"/>
<path d="M12874 8153 c-4 -16 -26 -69 -49 -119 l-42 -90 -74 -13 c-41 -7 -81
-14 -89 -15 -8 0 -15 -8 -15 -16 0 -17 51 -16 114 0 19 5 37 8 39 5 2 -2 -5
-32 -16 -67 -27 -83 -30 -103 -14 -103 8 0 26 37 44 94 l30 94 54 -6 c41 -4
54 -2 54 8 0 16 -22 25 -60 25 l-29 0 38 84 c48 104 59 146 37 146 -9 0 -19
-12 -22 -27z"/>
<path d="M11347 8153 c-3 -5 -8 -30 -11 -58 -10 -71 -62 -227 -102 -307 -19
-37 -34 -70 -34 -73 0 -20 40 5 104 65 42 39 80 70 86 70 5 0 9 -23 7 -54 -1
-30 2 -58 6 -62 14 -14 27 19 27 72 0 82 -30 95 -101 40 l-45 -34 33 97 c35
100 62 219 55 239 -4 13 -19 16 -25 5z"/>
<path d="M13733 8148 c-5 -7 -22 -48 -38 -91 -16 -46 -34 -81 -44 -84 -9 -2
-24 -9 -33 -14 -36 -19 -38 -8 -8 50 32 65 50 141 32 141 -14 0 -32 -32 -32
-56 0 -9 -16 -50 -37 -90 -40 -80 -53 -88 -125 -70 -21 4 -44 6 -53 2 -33 -12
-12 -25 53 -31 l68 -7 -22 -47 c-39 -83 -42 -177 -5 -168 9 2 14 10 12 18 -10
31 0 94 24 148 24 53 29 58 76 72 27 9 49 14 49 12 0 -1 -20 -48 -45 -103 -45
-100 -52 -125 -37 -134 12 -7 24 4 81 82 69 94 84 94 61 -3 -6 -27 -5 -44 2
-53 19 -22 27 0 30 78 3 72 2 75 -21 78 -15 2 -33 -6 -52 -23 -27 -27 -26 -22
28 121 31 82 60 151 65 152 4 2 8 10 8 18 0 17 -24 18 -37 2z"/>
<path d="M2265 8124 c-42 -21 -101 -81 -116 -116 -16 -38 -2 -84 47 -158 84
-128 93 -169 42 -200 -42 -25 -145 -27 -190 -4 -27 14 -30 19 -25 50 5 29 3
35 -11 32 -21 -4 -29 -63 -11 -84 42 -51 170 -65 245 -26 23 12 44 28 48 37
18 48 -2 109 -66 203 -50 73 -61 107 -44 145 15 36 47 69 91 91 38 20 46 7 38
-61 -6 -51 -5 -53 18 -53 58 1 75 87 27 137 -25 27 -51 29 -93 7z m91 -90 c-4
-9 -9 -15 -11 -12 -3 3 -3 13 1 22 4 9 9 15 11 12 3 -3 3 -13 -1 -22z"/>
<path d="M4531 8103 c-5 -21 -15 -71 -22 -112 -7 -40 -19 -79 -27 -87 -7 -8
-33 -14 -58 -14 -34 0 -44 -4 -44 -16 0 -13 9 -15 50 -12 56 3 55 15 15 -104
-19 -57 -20 -71 -9 -85 11 -15 13 -16 17 -3 31 108 62 196 71 202 6 4 35 8 64
8 51 0 68 12 36 24 -9 3 -36 6 -60 6 -25 0 -43 4 -40 8 2 4 12 48 20 97 9 49
21 92 27 96 14 8 3 29 -16 29 -8 0 -18 -17 -24 -37z"/>
<path d="M14325 8108 c-4 -18 -41 -103 -82 -188 -76 -155 -95 -225 -63 -225 8
0 15 9 16 20 2 46 5 55 18 55 8 0 16 7 20 15 3 8 12 15 21 15 8 0 15 4 15 9 0
19 77 61 113 61 43 0 59 -20 78 -92 6 -27 15 -48 20 -48 18 0 20 23 5 73 -15
53 -43 88 -81 101 -17 6 -13 13 35 56 30 27 63 52 73 55 20 8 23 35 3 35 -8 0
-73 -50 -145 -110 -72 -61 -131 -107 -131 -103 0 4 24 57 54 118 60 121 78
185 53 185 -9 0 -18 -13 -22 -32z"/>
<path d="M3554 8089 c-3 -6 -1 -15 6 -19 7 -4 8 -9 3 -11 -5 -2 -26 -82 -47
-178 -37 -166 -38 -175 -22 -207 14 -31 19 -34 60 -34 61 0 88 14 119 63 48
73 29 167 -32 167 -15 0 -46 -13 -68 -29 l-41 -30 15 62 c23 95 42 210 37 219
-7 11 -22 10 -30 -3z m104 -261 c29 -29 -1 -123 -48 -148 -31 -16 -84 -9 -88
13 -6 29 37 104 71 126 37 24 49 25 65 9z"/>
<path d="M11142 8053 c-7 -27 -17 -72 -23 -100 l-11 -53 -75 0 c-55 0 -74 -3
-71 -12 3 -8 29 -14 71 -16 37 -2 67 -5 67 -7 0 -2 -7 -30 -15 -63 -16 -61
-15 -137 1 -137 5 0 12 27 16 60 4 33 14 80 21 105 13 44 14 45 65 53 29 5 50
12 47 17 -3 4 3 7 12 6 9 0 18 5 20 12 6 15 -9 15 -74 -2 l-53 -14 6 26 c3 15
12 53 20 85 17 73 18 87 1 87 -7 0 -18 -21 -25 -47z"/>
<path d="M8036 8078 c-3 -7 -7 -44 -11 -83 -3 -38 -11 -89 -17 -113 -10 -40
-12 -42 -29 -26 -25 22 -52 11 -82 -36 -52 -77 -45 -127 15 -109 77 22 127
113 142 259 4 36 9 77 12 93 4 20 2 27 -11 27 -8 0 -17 -6 -19 -12z m-48 -264
c8 -4 -44 -57 -69 -69 -39 -21 -39 -2 2 54 26 37 32 41 47 30 9 -8 18 -14 20
-15z"/>
<path d="M3000 7933 c-31 -166 -37 -237 -18 -231 7 3 16 24 19 49 3 24 14 87
24 139 21 109 24 162 10 167 -6 2 -21 -52 -35 -124z"/>
<path d="M9192 8028 c2 -12 11 -22 22 -24 31 -4 39 6 20 27 -23 26 -46 25 -42
-3z"/>
<path d="M6347 8023 c-4 -3 -7 -17 -7 -30 0 -33 24 -24 28 10 3 26 -7 35 -21
20z"/>
<path d="M11620 8020 c0 -12 32 -50 42 -50 15 0 8 48 -8 54 -23 9 -34 7 -34
-4z"/>
<path d="M13964 8019 c-9 -16 12 -33 31 -25 14 5 15 9 5 21 -15 18 -26 19 -36
4z"/>
<path d="M4146 7997 c-9 -7 -16 -17 -15 -22 1 -6 0 -17 -4 -25 -22 -58 -37
-119 -31 -133 3 -10 1 -17 -5 -17 -15 0 -33 -69 -29 -110 2 -23 8 -35 18 -35
11 0 14 9 12 32 -2 18 13 86 32 150 40 133 50 173 44 173 -2 0 -12 -6 -22 -13z"/>
<path d="M3882 7977 c-14 -16 -6 -27 20 -27 13 0 18 6 16 17 -4 22 -22 27 -36
10z"/>
<path d="M4270 7950 c0 -23 22 -27 39 -7 13 16 5 27 -21 27 -11 0 -18 -7 -18
-20z"/>
<path d="M5416 7961 c-3 -5 14 -21 38 -35 25 -14 54 -38 65 -52 l21 -26 -75
-70 c-71 -66 -95 -104 -81 -127 10 -16 38 0 31 17 -4 11 18 39 74 92 45 42 81
83 81 91 0 8 -17 31 -37 50 -66 62 -104 82 -117 60z"/>
<path d="M9960 7930 c-24 -24 -25 -35 -5 -90 17 -47 15 -55 -15 -63 -13 -3
-24 1 -30 14 -15 28 -40 24 -40 -6 0 -47 78 -56 116 -14 17 18 17 23 1 71 -19
61 -10 82 35 76 32 -5 48 9 27 23 -24 15 -68 10 -89 -11z"/>
<path d="M10184 7886 c-45 -46 -62 -93 -45 -125 21 -39 77 -35 100 7 16 30 16
131 0 147 -12 12 -20 7 -55 -29z m22 -104 c-8 -8 -22 -12 -31 -8 -20 7 -12 41
19 74 l21 24 3 -38 c2 -23 -2 -42 -12 -52z"/>
<path d="M9293 7908 c-32 -16 -35 -35 -11 -77 32 -55 3 -101 -45 -72 -16 10
-21 10 -28 0 -22 -36 51 -53 96 -23 29 19 34 68 10 100 -22 29 -18 41 16 53
17 6 28 15 24 21 -8 13 -33 12 -62 -2z"/>
<path d="M11789 7898 c-19 -11 -50 -36 -70 -55 -36 -34 -36 -34 -32 -9 7 36
-23 35 -32 -1 -3 -16 -17 -50 -31 -76 -28 -56 -29 -67 -10 -67 8 0 37 29 65
65 46 58 128 131 138 122 2 -2 -10 -37 -27 -77 -17 -41 -28 -81 -25 -89 8 -22
21 -4 55 78 47 114 37 150 -31 109z"/>
<path d="M10458 7870 c-42 -36 -46 -38 -51 -20 -8 32 -38 25 -36 -7 1 -16 -3
-41 -10 -56 -26 -67 0 -63 62 8 27 30 56 59 65 64 15 8 17 4 14 -40 -4 -56 4
-60 49 -28 l29 20 0 -35 c0 -47 38 -84 56 -54 4 6 -1 17 -10 23 -14 11 -16 23
-10 79 8 79 -4 86 -54 29 l-33 -38 6 33 c6 31 -6 62 -25 62 -4 0 -28 -18 -52
-40z"/>
<path d="M8142 7875 c-73 -61 -94 -146 -42 -172 36 -18 126 -17 134 2 4 12 -5
15 -52 15 -32 0 -63 5 -70 12 -20 20 -14 48 13 58 14 5 24 15 23 22 -2 6 8 12
21 12 31 1 50 30 35 53 -16 26 -29 26 -62 -2z m38 -19 c0 -2 -7 -7 -16 -10 -8
-3 -12 -2 -9 4 6 10 25 14 25 6z"/>
<path d="M11942 7875 c-28 -35 -37 -82 -21 -101 18 -22 111 -14 139 11 23 21
24 18 9 -60 -12 -65 -57 -188 -72 -194 -29 -11 -83 -73 -103 -116 -41 -86 -26
-149 29 -124 29 13 57 62 82 139 10 30 23 61 31 69 9 10 46 16 119 19 72 3
105 8 102 16 -3 7 -40 11 -108 11 l-105 -1 27 76 c25 71 46 176 41 210 -11 72
-33 81 -51 20 -13 -44 -38 -60 -92 -60 -34 0 -36 13 -8 59 26 43 11 64 -19 26z
m28 -456 c-25 -63 -47 -99 -60 -99 -27 0 9 99 53 148 30 32 32 15 7 -49z"/>
<path d="M12908 7841 c-20 -67 -16 -89 17 -97 28 -7 92 22 106 48 20 37 -20
90 -76 102 -29 6 -30 5 -47 -53z m86 -3 c15 -21 14 -24 -2 -39 -9 -9 -27 -20
-39 -24 -19 -5 -23 -2 -23 14 0 32 18 71 34 71 8 0 22 -10 30 -22z"/>
<path d="M6470 7876 c-60 -33 -130 -176 -86 -176 7 0 16 12 19 28 12 60 95
148 118 125 8 -8 8 -30 -1 -81 -12 -67 -10 -102 7 -102 8 0 33 133 33 172 0
22 -27 48 -48 48 -9 -1 -28 -7 -42 -14z"/>
<path d="M10773 7868 c-61 -69 -70 -123 -27 -157 32 -25 98 -28 149 -7 39 17
49 42 13 32 -88 -25 -158 -15 -158 23 0 14 12 22 44 30 44 11 76 33 76 52 0
49 -62 66 -97 27z m59 -23 c0 -5 -14 -16 -32 -23 -33 -13 -34 -9 -7 26 11 14
38 12 39 -3z"/>
<path d="M4805 7837 c-8 -18 -31 -64 -53 -101 l-39 -68 -21 44 c-11 23 -24 56
-28 71 -3 15 -11 26 -18 24 -17 -6 -9 -55 19 -114 l26 -53 -42 -77 c-23 -43
-52 -94 -64 -113 -30 -48 -67 -162 -57 -172 12 -12 26 9 41 61 12 43 66 140
203 371 63 107 83 160 57 160 -5 0 -16 -15 -24 -33z"/>
<path d="M7726 7849 c-28 -22 -59 -96 -54 -129 5 -34 31 -47 62 -31 36 19 52
64 38 107 -6 19 -6 34 -1 34 5 0 9 6 9 14 0 23 -27 26 -54 5z m8 -116 c-32
-50 -45 -18 -18 45 l16 37 9 -30 c6 -21 4 -36 -7 -52z"/>
<path d="M9110 7840 c0 -11 -12 -43 -26 -70 -14 -27 -23 -54 -19 -60 10 -16
35 -12 35 5 0 9 9 33 20 55 24 47 26 90 5 90 -8 0 -15 -9 -15 -20z"/>
<path d="M14032 7835 c-19 -15 -33 -21 -37 -15 -11 18 -23 11 -34 -20 -6 -17
-19 -43 -31 -57 -21 -27 -26 -53 -11 -53 6 0 34 25 63 56 29 31 61 60 71 66
18 9 19 6 16 -55 -4 -67 5 -93 21 -67 13 20 12 127 0 151 -14 25 -22 24 -58
-6z"/>
<path d="M3234 7835 c-36 -15 -63 -54 -71 -100 -4 -27 -2 -34 15 -40 23 -7 55
6 88 37 21 19 22 19 28 -7 6 -25 50 -54 63 -42 3 4 -4 18 -16 31 -18 19 -22
33 -19 66 3 38 1 42 -28 54 -25 11 -36 11 -60 1z m46 -38 c0 -16 -35 -49 -68
-67 -22 -11 -23 -10 -17 12 15 49 85 94 85 55z"/>
<path d="M5263 7840 c-13 -5 -23 -14 -23 -19 0 -14 23 -19 42 -9 11 5 43 4 83
-3 63 -11 95 -8 95 8 0 9 -115 33 -152 32 -13 0 -33 -4 -45 -9z"/>
<path d="M2440 7820 c-47 -47 -51 -98 -11 -142 27 -31 30 -32 76 -22 27 5 51
15 53 23 4 11 -5 13 -46 7 -47 -6 -52 -5 -67 18 -18 27 -13 59 13 89 12 14 25
17 49 12 25 -4 33 -2 33 8 0 32 -71 36 -100 7z"/>
<path d="M6277 7789 c-10 -28 -17 -62 -17 -76 0 -41 24 -21 38 33 25 90 25 94
10 94 -9 0 -22 -20 -31 -51z"/>
<path d="M2691 7798 c-37 -38 -47 -68 -31 -97 12 -24 44 -27 80 -6 35 20 48
18 52 -7 2 -12 9 -23 16 -26 15 -5 17 71 1 100 -11 20 -11 20 -37 -5 -34 -31
-70 -50 -82 -42 -15 10 -12 21 16 54 20 24 31 30 50 25 17 -4 24 -2 24 9 0 15
-20 27 -45 27 -7 0 -27 -15 -44 -32z"/>
<path d="M11536 7791 c-19 -41 -18 -82 2 -89 7 -2 12 6 12 21 0 13 7 41 15 60
18 44 18 47 2 47 -8 0 -22 -17 -31 -39z"/>
<path d="M13866 7823 c-9 -9 -46 -93 -46 -104 0 -5 7 -9 15 -9 14 0 39 47 51
97 6 22 -5 31 -20 16z"/>
<path d="M3830 7805 c-16 -19 -19 -128 -5 -135 6 -2 13 21 17 55 4 32 12 63
18 69 5 5 10 14 10 18 0 14 -27 9 -40 -7z"/>
<path d="M4222 7807 c-7 -8 -15 -35 -18 -61 -5 -36 -4 -46 8 -46 9 0 18 19 25
53 11 54 5 78 -15 54z"/>
<path d="M2515 7593 c-3 -21 -11 -59 -17 -85 l-10 -48 -49 0 c-37 0 -49 -4
-49 -15 0 -11 12 -15 45 -15 50 0 52 -4 36 -87 -4 -23 -5 -47 -1 -54 15 -24
28 3 35 71 l7 70 42 10 c72 18 89 25 94 39 5 14 -1 14 -99 -6 -27 -5 -27 -5
-18 38 22 112 22 119 6 119 -9 0 -17 -14 -22 -37z"/>
<path d="M1737 7593 c-2 -4 -8 -39 -12 -76 -3 -37 -15 -102 -25 -145 -17 -72
-17 -78 -2 -93 9 -9 25 -26 34 -38 19 -22 57 -27 88 -11 27 14 60 73 60 106 0
64 -59 106 -112 80 -29 -15 -29 -15 -24 12 3 15 8 50 11 77 3 28 7 59 8 69 2
19 -17 34 -26 19z m101 -216 c20 -16 14 -64 -14 -96 -29 -34 -55 -39 -75 -15
-14 18 -20 94 -7 94 5 0 17 9 28 20 19 19 40 18 68 -3z"/>
<path d="M7295 7588 c-2 -7 -20 -69 -40 -137 -20 -69 -41 -133 -46 -142 -5
-10 -9 -25 -9 -33 0 -33 30 -14 76 49 26 36 52 65 57 65 6 0 7 -22 3 -54 -6
-55 7 -84 25 -55 12 19 11 106 -1 130 -10 18 -40 27 -40 12 0 -5 -12 -16 -26
-27 l-26 -19 7 34 c4 19 18 65 31 102 13 38 22 73 18 78 -8 13 -24 11 -29 -3z"/>
<path d="M5840 7541 c0 -15 6 -21 21 -21 14 0 19 5 17 17 -5 26 -38 29 -38 4z"/>
<path d="M7107 7501 c-8 -90 -14 -97 -107 -111 -59 -9 -80 -16 -80 -28 0 -12
9 -13 53 -8 28 4 63 10 76 13 21 5 23 3 17 -13 -23 -61 -44 -154 -35 -160 16
-9 21 1 46 88 27 93 36 108 67 108 37 0 66 12 66 27 0 11 -9 13 -45 7 l-45 -6
10 26 c15 41 13 116 -4 116 -9 0 -15 -18 -19 -59z"/>
<path d="M4079 7528 c-1 -7 0 -25 1 -39 0 -14 -8 -53 -19 -85 -16 -51 -25
-115 -22 -161 1 -7 8 -13 16 -13 11 0 15 12 15 50 0 27 11 82 23 123 23 70 25
92 13 123 -7 17 -26 19 -27 2z"/>
<path d="M7517 7469 c-25 -15 -57 -86 -57 -127 0 -84 50 -130 125 -114 35 7
40 12 43 37 2 18 -1 25 -5 18 -14 -21 -61 -33 -87 -23 -29 11 -32 15 -41 63
-7 35 -6 37 19 37 16 0 37 11 51 26 28 30 29 33 15 68 -10 28 -33 33 -63 15z
m26 -61 c-9 -10 -20 -18 -25 -18 -14 0 -9 28 8 45 24 23 39 -3 17 -27z"/>
<path d="M8383 7448 c-30 -32 -83 -133 -83 -160 0 -7 -16 -73 -37 -146 -26
-95 -33 -136 -26 -143 18 -18 30 -3 37 43 4 24 17 79 30 123 21 74 25 80 56
88 42 11 104 50 124 79 22 31 20 74 -5 114 -27 44 -56 44 -96 2z m73 -23 c24
-37 10 -81 -34 -109 -47 -29 -82 -41 -82 -27 0 24 41 116 61 137 28 30 35 30
55 -1z"/>
<path d="M8606 7436 c-53 -56 -83 -156 -47 -156 5 0 14 15 21 33 44 117 61
137 117 137 23 0 33 5 33 15 0 11 -11 15 -42 15 -36 0 -47 -6 -82 -44z"/>
<path d="M9703 7450 c-57 -34 -42 -69 59 -142 22 -16 21 -16 -49 -23 -55 -6
-73 -11 -73 -23 0 -12 12 -14 75 -8 42 4 82 9 90 13 31 11 15 43 -42 80 -66
44 -75 64 -38 81 32 15 75 16 75 2 0 -5 7 -10 15 -10 18 0 20 21 3 38 -18 18
-79 14 -115 -8z"/>
<path d="M3485 7438 c-76 -59 -109 -154 -67 -191 34 -31 181 -15 169 17 -3 6
-11 9 -18 7 -43 -12 -110 -12 -124 -1 -19 16 -20 41 -1 34 20 -8 70 20 96 53
16 20 19 34 14 57 -11 50 -28 56 -69 24z m35 -42 c0 -27 -33 -56 -63 -56 -16
0 -14 6 13 40 36 46 50 50 50 16z"/>
<path d="M9055 7446 c-51 -22 -95 -81 -95 -126 0 -53 29 -80 87 -80 32 0 43 4
43 15 0 11 -11 15 -38 15 -46 0 -62 14 -62 53 0 36 60 97 94 97 29 0 39 10 25
27 -14 16 -16 16 -54 -1z"/>
<path d="M5923 7397 c-37 -38 -53 -62 -53 -80 0 -44 18 -40 41 8 23 48 77 101
90 88 4 -4 4 -26 -1 -48 -13 -56 -12 -75 4 -75 9 0 18 21 25 61 20 113 -21
130 -106 46z"/>
<path d="M9513 7435 c-31 -22 -29 -49 7 -87 37 -38 36 -69 -2 -82 -22 -8 -32
-6 -48 9 -30 27 -50 5 -21 -24 29 -29 81 -28 109 2 21 23 30 72 14 79 -4 2
-18 17 -30 34 -24 35 -17 49 28 56 14 1 25 8 25 13 0 17 -59 17 -82 0z"/>
<path d="M3704 7422 c-6 -4 -26 -30 -43 -59 -27 -43 -30 -56 -21 -73 14 -26
39 -25 81 3 l34 23 17 -21 c17 -20 17 -20 18 5 0 14 3 42 6 63 5 30 4 37 -10
37 -9 0 -16 -6 -16 -13 0 -15 -45 -59 -77 -76 -28 -14 -31 3 -8 35 8 12 12 24
9 27 -3 3 8 13 25 22 18 9 29 20 26 25 -7 12 -26 13 -41 2z"/>
<path d="M3891 7406 c-25 -27 -74 -152 -66 -167 13 -20 35 -8 35 19 0 15 12
51 26 80 25 50 47 66 57 40 3 -10 8 -10 17 -2 9 9 9 17 1 33 -15 28 -42 27
-70 -3z"/>
<path d="M8783 7406 c-80 -67 -46 -179 42 -142 36 15 70 69 61 98 -3 7 -7 25
-10 41 -5 22 -12 27 -35 27 -17 0 -42 -11 -58 -24z m67 -43 c0 -43 -23 -73
-57 -73 -34 0 -32 52 3 85 38 36 54 32 54 -12z"/>
<path d="M9220 7394 c-48 -43 -62 -94 -35 -124 14 -15 31 -20 70 -20 63 0 138
27 113 41 -9 5 -28 5 -46 -2 -16 -6 -50 -9 -73 -7 -42 3 -44 4 -42 33 2 33 57
90 75 79 6 -4 -5 -15 -27 -26 -28 -15 -35 -22 -26 -31 9 -9 21 -7 49 8 39 21
51 47 32 70 -20 24 -47 17 -90 -21z"/>
<path d="M5776 7408 c-14 -56 -36 -155 -36 -165 0 -7 6 -13 13 -13 15 0 61
166 51 181 -8 13 -24 11 -28 -3z"/>
<path d="M4273 7398 c-5 -7 -20 -37 -33 -65 -28 -62 -42 -58 -60 17 -7 28 -16
50 -20 50 -19 0 -21 -23 -5 -76 11 -39 22 -58 36 -61 18 -5 17 -9 -16 -69 -40
-71 -58 -154 -32 -154 9 0 17 14 22 38 6 31 70 178 120 275 24 45 14 80 -12
45z"/>
<path d="M1464 7364 c-60 -63 -34 -122 39 -85 35 18 36 18 41 -4 6 -24 31 -39
48 -29 5 3 2 14 -8 25 -15 17 -16 23 -3 62 19 60 19 61 -35 64 -44 3 -51 0
-82 -33z m76 -1 c0 -13 -53 -63 -67 -63 -19 0 -16 11 14 42 25 26 53 37 53 21z"/>
<path d="M2008 7384 c-35 -18 -50 -67 -33 -109 12 -32 32 -40 71 -31 48 12 84
112 52 144 -16 16 -57 15 -90 -4z m59 -40 c14 -14 14 -18 -4 -42 -27 -36 -57
-36 -61 1 -6 50 33 74 65 41z"/>
<path d="M2286 7393 c-3 -3 -6 -18 -6 -33 0 -32 -39 -94 -62 -98 -21 -4 -28
28 -17 75 5 23 4 42 -1 47 -18 18 -32 -11 -34 -69 -1 -48 2 -60 22 -76 21 -17
27 -17 50 -5 34 17 72 84 72 124 0 31 -11 47 -24 35z"/>
<path d="M9943 7245 c-3 -9 -3 -18 0 -21 10 -10 47 7 47 22 0 19 -39 18 -47
-1z"/>
<path d="M10790 6860 c0 -8 -93 -212 -119 -260 -5 -8 -31 -19 -60 -23 -42 -7
-51 -12 -51 -29 0 -15 4 -18 18 -13 9 4 31 9 49 12 l32 5 -15 -47 c-16 -56
-18 -138 -4 -166 12 -21 50 -25 81 -9 16 9 17 14 6 30 -14 24 -27 26 -27 4 0
-9 -7 -14 -17 -12 -25 5 -28 69 -7 147 l17 63 68 -6 c58 -6 69 -5 69 8 0 10
-16 16 -57 21 -32 4 -61 7 -65 8 -4 1 22 62 57 135 36 73 65 135 65 137 0 3
-9 5 -20 5 -11 0 -20 -4 -20 -10z"/>
<path d="M2506 6779 c-2 -8 -9 -61 -15 -119 -14 -140 -26 -173 -85 -238 -81
-88 -120 -89 -132 -1 -8 60 -24 70 -65 40 -33 -25 -34 -23 -14 25 8 20 12 41
8 47 -3 6 -1 7 5 3 8 -5 12 0 12 13 0 11 4 22 9 25 12 8 35 132 26 145 -9 15
-51 14 -67 -2 -7 -7 -29 -22 -48 -34 -19 -12 -48 -35 -64 -52 -24 -25 -27 -34
-17 -44 10 -10 16 -7 32 15 11 15 42 40 69 57 28 17 50 36 50 41 0 6 5 8 11 4
16 -10 3 -65 -43 -181 -53 -133 -45 -160 27 -103 21 17 43 30 49 29 7 0 6 -3
-1 -6 -16 -6 -16 -17 -3 -64 14 -50 54 -68 100 -44 48 25 109 93 136 150 29
62 55 278 36 297 -9 9 -12 8 -16 -3z"/>
<path d="M4006 6768 c-8 -35 -54 -285 -66 -357 -12 -66 -7 -115 11 -109 6 2
12 30 15 63 2 33 19 137 38 230 18 94 31 176 28 183 -7 19 -21 14 -26 -10z"/>
<path d="M4716 6762 c-3 -5 0 -26 5 -47 7 -23 8 -65 4 -104 -9 -86 -12 -93
-35 -79 -38 24 -135 -66 -147 -136 -7 -42 17 -86 46 -86 55 0 141 134 161 251
16 93 10 203 -12 207 -9 2 -19 -1 -22 -6z m-16 -274 c0 -22 -63 -120 -87 -135
-21 -14 -26 -14 -34 -2 -13 20 -11 36 7 76 27 55 114 102 114 61z"/>
<path d="M7031 6713 c-5 -21 -15 -68 -22 -105 -14 -75 -19 -78 -88 -58 -19 5
-38 7 -43 4 -19 -12 16 -34 63 -40 27 -4 47 -10 44 -13 -11 -19 -43 -207 -36
-214 13 -13 27 15 39 83 18 97 32 141 45 139 45 -5 65 2 69 26 3 14 2 28 -3
31 -14 8 -49 -15 -49 -34 -1 -15 -2 -15 -11 1 -8 14 -6 41 10 107 25 105 25
110 6 110 -8 0 -18 -16 -24 -37z"/>
<path d="M12567 6743 c-12 -11 -7 -33 7 -33 7 0 16 9 19 20 5 19 -12 28 -26
13z"/>
<path d="M7182 6688 c-11 -29 -23 -77 -27 -105 -4 -29 -18 -92 -31 -140 -27
-101 -29 -113 -11 -113 6 1 28 32 47 71 19 39 45 80 58 91 l22 21 0 -60 c0
-54 2 -61 25 -71 14 -7 34 -12 44 -12 10 0 26 -11 35 -24 29 -45 126 -46 182
-1 37 29 24 45 -19 22 -54 -28 -100 -31 -127 -9 l-24 19 37 18 c41 19 97 77
97 100 0 20 -36 55 -56 55 -23 0 -74 -57 -96 -107 -10 -24 -24 -43 -31 -43
-27 1 -36 19 -39 80 -4 79 -22 89 -70 38 l-31 -33 7 30 c4 17 12 53 16 80 12
71 30 115 46 115 8 0 11 6 8 15 -13 33 -42 16 -62 -37z m268 -195 c0 -18 -57
-73 -76 -73 -19 0 -3 32 34 72 26 28 42 29 42 1z"/>
<path d="M3850 6688 c-1 -68 -18 -174 -45 -266 -31 -108 -32 -132 -4 -125 11
3 18 11 15 19 -3 7 6 52 20 99 25 88 43 198 44 273 0 31 -4 42 -15 42 -11 0
-15 -11 -15 -42z"/>
<path d="M12563 6692 c-6 -4 -13 -21 -15 -37 -2 -17 -5 -32 -8 -35 -12 -12
-54 -189 -55 -230 0 -60 18 -67 26 -10 3 25 16 80 28 123 12 43 20 85 17 93
-3 8 -2 14 3 14 4 0 12 20 18 45 10 45 8 51 -14 37z"/>
<path d="M4892 6648 c4 -27 33 -36 42 -13 8 22 -1 35 -25 35 -15 0 -20 -6 -17
-22z"/>
<path d="M3714 6637 c-7 -20 3 -37 21 -37 23 0 26 16 5 35 -18 16 -20 16 -26
2z"/>
<path d="M8286 6598 c-18 -18 -41 -33 -51 -33 -20 0 -37 -47 -54 -145 -12 -71
0 -104 20 -54 6 16 31 70 55 121 42 90 70 120 101 109 22 -9 36 3 22 20 -20
24 -59 16 -93 -18z"/>
<path d="M9033 6591 c-33 -31 -36 -56 -14 -107 12 -26 21 -52 21 -59 0 -20
-38 -62 -60 -68 -19 -5 -21 -2 -18 26 3 30 -1 34 -31 29 -5 -1 -9 -18 -9 -37
0 -46 25 -61 73 -45 63 21 95 99 60 146 -18 23 -19 76 -3 92 7 7 23 12 36 12
31 0 24 24 -9 28 -14 2 -34 -6 -46 -17z"/>
<path d="M6122 6574 c-64 -39 -65 -65 -6 -125 26 -27 45 -51 41 -55 -3 -3 -27
-9 -53 -12 -37 -4 -49 -1 -56 12 -12 21 -24 20 -32 -1 -5 -11 -1 -22 10 -30
34 -25 147 -11 166 20 10 17 -18 63 -57 93 -19 14 -35 30 -35 35 0 5 17 20 39
34 28 19 46 24 65 19 28 -7 34 4 14 24 -18 18 -49 14 -96 -14z"/>
<path d="M2625 6549 c-49 -45 -81 -114 -71 -153 9 -38 48 -59 109 -58 55 0
107 15 107 31 0 5 -33 7 -78 4 -66 -5 -81 -3 -95 12 -22 22 -18 49 8 53 32 7
89 48 104 75 11 21 12 32 3 52 -16 35 -36 31 -87 -16z m65 -17 c0 -11 -17 -26
-45 -40 -43 -21 -45 -21 -35 -3 11 21 58 61 71 61 5 0 9 -8 9 -18z"/>
<path d="M5855 6567 c-23 -13 -44 -34 -49 -50 -8 -23 -5 -34 22 -72 l31 -45
-30 -16 c-17 -8 -42 -14 -57 -12 -19 2 -27 -2 -27 -12 0 -24 58 -24 104 0 48
24 52 45 17 87 -37 44 -36 63 3 90 19 13 47 23 62 23 19 0 29 5 29 15 0 23
-58 18 -105 -8z"/>
<path d="M8490 6578 c-39 -14 -70 -48 -96 -103 -43 -90 -22 -145 55 -145 23 0
48 8 64 20 14 11 30 20 36 20 6 0 11 7 11 15 0 22 -36 18 -59 -6 -22 -24 -78
-23 -94 2 -24 39 57 169 105 169 29 0 18 -20 -33 -59 -50 -38 -58 -51 -34 -51
24 0 113 67 120 91 12 38 -30 64 -75 47z"/>
<path d="M5065 6570 c-42 -16 -49 -36 -35 -95 17 -72 5 -90 -58 -81 -37 5 -43
3 -40 -11 5 -28 52 -37 93 -17 43 20 53 51 36 112 -13 49 -9 62 19 62 10 0 21
4 24 9 9 15 -18 29 -39 21z"/>
<path d="M5634 6568 c-5 -7 -9 -37 -9 -66 0 -44 -4 -57 -24 -73 -26 -22 -61
-25 -79 -7 -16 16 -15 77 2 110 10 18 11 30 4 34 -20 12 -40 -24 -45 -83 -5
-53 -3 -63 16 -82 31 -31 83 -28 123 8 28 25 32 36 36 90 5 63 -7 96 -24 69z"/>
<path d="M11797 6565 c-21 -7 -47 -21 -57 -30 -17 -16 -17 -18 1 -78 10 -34
16 -70 13 -79 -6 -19 -11 -21 -54 -22 -31 -1 -39 -32 -11 -41 28 -9 72 14 90
47 14 24 13 32 -3 84 l-18 58 22 18 c12 10 36 18 52 18 22 0 29 4 26 17 -4 23
-17 24 -61 8z"/>
<path d="M9875 6560 c-11 -4 -34 -14 -52 -20 -58 -22 -52 -67 16 -127 l36 -31
-30 -12 c-16 -6 -39 -9 -51 -6 -28 7 -39 -7 -19 -24 27 -22 135 10 135 40 0 5
-18 26 -41 47 -64 59 -67 71 -22 90 21 8 50 15 66 15 29 -1 34 7 15 26 -14 14
-25 14 -53 2z"/>
<path d="M9445 6549 c-4 -6 -4 -13 -1 -16 3 -3 2 -11 -3 -17 -6 -6 -19 -45
-30 -85 -33 -119 -16 -121 90 -9 43 45 80 80 83 77 3 -3 -4 -34 -15 -68 -17
-51 -19 -68 -10 -87 9 -20 17 -25 43 -22 40 4 48 25 11 30 -32 3 -32 6 -7 100
31 114 -10 113 -118 0 -32 -33 -58 -59 -58 -58 0 2 9 29 20 61 11 32 20 69 20
82 0 24 -14 31 -25 12z"/>
<path d="M3318 6512 c-37 -20 -68 -43 -68 -49 0 -20 19 -15 88 22 35 20 66 34
68 32 3 -2 -18 -38 -47 -80 -28 -42 -48 -81 -44 -86 11 -18 44 -12 83 14 20
14 41 25 45 25 5 0 22 -13 37 -30 33 -36 54 -38 74 -7 16 24 48 138 41 145
-14 14 -35 -14 -45 -62 -6 -31 -16 -59 -22 -62 -5 -4 -23 8 -38 25 -16 17 -33
31 -37 31 -5 0 -30 -13 -56 -30 l-46 -29 45 66 c76 111 43 142 -78 75z"/>
<path d="M5248 6530 c-112 -88 -75 -237 46 -186 39 16 49 36 17 33 -11 0 -18
-4 -15 -8 5 -9 -59 -5 -75 5 -18 11 -13 55 10 92 23 38 47 54 79 54 30 0 20
24 -11 28 -14 2 -37 -6 -51 -18z"/>
<path d="M8693 6518 c-28 -29 -52 -88 -45 -108 12 -36 59 -35 100 2 22 21 22
21 22 1 0 -21 29 -53 48 -53 17 0 15 19 -4 37 -11 11 -13 24 -8 42 11 41 10
76 -3 76 -6 0 -22 -16 -35 -34 -13 -19 -38 -43 -56 -54 -31 -18 -32 -18 -32 0
0 30 37 81 62 85 29 4 26 22 -5 26 -14 2 -31 -6 -44 -20z"/>
<path d="M4846 6521 c-14 -22 -36 -107 -36 -138 0 -23 5 -33 15 -33 10 0 15
10 15 27 0 14 8 50 17 80 12 38 14 56 6 64 -7 7 -13 8 -17 0z"/>
<path d="M9230 6520 c0 -5 11 -26 25 -46 38 -56 33 -104 -15 -129 -15 -8 -37
-11 -48 -8 -32 8 -30 62 3 101 28 33 32 52 12 52 -28 0 -61 -63 -62 -115 0
-44 3 -51 28 -63 37 -18 72 -9 108 28 33 32 37 71 15 123 -20 49 -66 88 -66
57z"/>
<path d="M12660 6506 c-48 -32 -77 -87 -65 -122 13 -35 51 -63 97 -70 49 -8
108 3 108 21 0 11 -11 13 -50 8 -55 -6 -105 9 -120 38 -16 29 -12 41 10 34 24
-8 104 35 114 60 9 24 -12 55 -37 54 -12 0 -38 -11 -57 -23z m60 -16 c0 -11
-59 -50 -75 -50 -13 1 52 60 65 60 6 0 10 -5 10 -10z"/>
<path d="M13406 6499 c-50 -39 -74 -120 -40 -133 26 -10 58 -6 78 9 29 22 36
19 36 -20 0 -24 5 -35 15 -35 10 0 15 10 15 31 0 36 13 64 48 102 19 20 23 30
14 39 -8 8 -20 3 -47 -21 -48 -42 -111 -81 -130 -81 -26 0 -17 36 17 69 31 31
41 32 81 16 13 -5 17 -2 17 13 0 37 -62 44 -104 11z"/>
<path d="M11975 6477 c-78 -78 -48 -166 49 -150 52 8 48 35 -4 31 -47 -2 -65
11 -56 45 10 43 40 70 74 69 34 -1 39 7 20 26 -21 21 -49 13 -83 -21z"/>
<path d="M12225 6477 c-37 -37 -46 -82 -23 -105 14 -14 67 -16 88 -2 12 8 16
3 20 -22 7 -42 30 -50 30 -10 0 16 5 44 11 61 14 39 -2 66 -23 39 -38 -46
-108 -65 -108 -29 0 34 35 66 72 66 45 0 46 29 0 33 -26 3 -39 -3 -67 -31z"/>
<path d="M10870 6486 c0 -10 -12 -37 -26 -61 -44 -75 -17 -115 57 -85 35 15
89 74 89 98 -1 33 -28 54 -74 59 -39 5 -46 3 -46 -11z m79 -30 c17 -21 -5 -62
-44 -81 -34 -15 -55 -19 -55 -9 0 21 64 102 81 103 4 1 12 -5 18 -13z"/>
<path d="M13755 6480 c-4 -6 -10 -8 -15 -5 -4 2 -19 -4 -33 -15 -27 -22 -48
-27 -29 -8 17 17 15 28 -6 28 -13 0 -25 -16 -40 -53 -24 -56 -27 -77 -13 -77
13 0 32 26 24 33 -3 4 1 7 10 7 8 0 22 6 29 13 16 15 65 47 73 47 3 0 1 -9 -5
-20 -17 -32 -17 -100 0 -110 23 -15 60 -12 66 4 3 9 12 12 21 9 11 -4 14 -2
11 8 -3 8 -14 12 -24 10 -51 -11 -59 -7 -55 24 1 17 9 42 17 57 8 15 14 34 14
43 0 17 -35 21 -45 5z"/>
<path d="M3672 6468 c-5 -7 -12 -35 -13 -63 -3 -39 0 -51 13 -53 12 -2 17 9
21 55 5 61 -2 83 -21 61z"/>
<path d="M2755 6232 c4 -19 -9 -88 -34 -191 -40 -160 -43 -204 -15 -180 8 6
14 21 14 33 0 12 8 53 19 91 53 196 60 275 25 275 -12 0 -14 -7 -9 -28z"/>
<path d="M3781 6228 c-6 -13 -25 -61 -44 -108 -33 -84 -34 -85 -71 -88 -44 -4
-44 -26 0 -30 27 -3 29 -5 26 -40 -5 -48 11 -87 42 -107 22 -14 30 -15 63 -4
42 14 70 35 60 45 -3 4 -25 -1 -47 -10 -50 -20 -75 -10 -85 33 -8 39 4 101 18
96 26 -9 150 10 155 24 4 11 -10 13 -77 9 -72 -4 -81 -3 -76 11 30 84 62 151
73 151 20 0 10 34 -11 38 -10 2 -21 -5 -26 -20z"/>
<path d="M2896 6191 c-9 -15 23 -36 36 -23 5 5 7 15 4 21 -9 13 -33 14 -40 2z"/>
<path d="M4144 6176 c-8 -21 3 -36 27 -36 14 0 18 6 15 23 -4 26 -33 35 -42
13z"/>
<path d="M2477 6107 c-18 -18 -40 -45 -50 -59 -16 -23 -22 -25 -38 -15 -25 16
-35 2 -19 -29 11 -20 12 -29 2 -45 -7 -11 -10 -24 -7 -29 4 -6 2 -10 -3 -10
-13 0 -55 -106 -47 -119 3 -6 2 -11 -4 -11 -12 0 -51 -85 -51 -111 0 -11 7
-19 15 -19 12 0 97 160 119 224 4 13 10 15 19 8 14 -12 70 5 112 32 39 25 85
95 85 128 0 88 -73 118 -133 55z m93 -16 c16 -32 12 -55 -20 -98 -35 -47 -88
-76 -123 -67 -30 7 -27 30 13 89 61 88 108 116 130 76z"/>
<path d="M1870 6063 c-64 -23 -110 -137 -80 -194 13 -23 50 -25 89 -4 28 14
29 13 35 -10 7 -28 41 -51 51 -34 4 5 0 18 -8 27 -30 35 -30 60 2 109 17 26
31 54 31 64 0 25 -28 32 -42 9 -11 -18 -13 -17 -30 11 -18 30 -22 31 -48 22z
m27 -54 c3 -11 11 -18 19 -15 22 8 -20 -76 -48 -97 -54 -41 -78 14 -37 83 33
54 57 65 66 29z"/>
<path d="M2176 6026 c-18 -24 -31 -33 -45 -29 -14 3 -20 -2 -23 -21 -3 -15 -1
-26 6 -26 8 0 8 -2 0 -8 -6 -4 -19 -39 -28 -79 -16 -72 -62 -210 -76 -228 -4
-5 -11 -20 -14 -32 -6 -18 -3 -23 11 -23 14 0 27 21 51 83 18 45 35 97 38 115
6 29 10 32 40 32 26 0 43 9 73 39 71 71 90 135 57 185 -24 37 -58 34 -90 -8z
m72 -25 c6 -40 -7 -71 -50 -117 -45 -49 -59 -55 -55 -21 1 12 -3 21 -9 20 -12
-2 26 73 61 120 24 32 49 31 53 -2z"/>
<path d="M3079 6045 c-34 -19 -79 -85 -79 -117 0 -37 38 -77 83 -87 23 -6 37
-5 37 1 0 6 7 7 16 4 10 -4 14 -1 12 6 -3 7 -24 16 -48 19 -45 6 -70 28 -70
62 0 26 72 97 99 97 12 0 21 6 21 15 0 19 -36 19 -71 0z"/>
<path d="M2815 5995 c-17 -46 -14 -80 7 -73 6 2 17 26 24 54 17 63 17 64 0 64
-7 0 -21 -20 -31 -45z"/>
<path d="M4284 6020 c-31 -12 -74 -72 -74 -101 0 -49 40 -62 99 -33 40 20 51
42 48 96 -3 38 -6 43 -27 45 -14 1 -35 -2 -46 -7z m42 -52 c5 -16 0 -27 -20
-45 -55 -47 -86 -20 -45 38 24 34 55 38 65 7z"/>
<path d="M4480 6019 c0 -6 -16 -37 -35 -69 -19 -32 -35 -63 -35 -69 0 -29 34
-18 101 33 l73 55 12 -28 c14 -34 41 -45 76 -32 32 12 53 37 38 46 -7 4 -17 2
-23 -4 -22 -22 -57 -13 -68 19 -6 17 -18 30 -27 30 -8 0 -39 -18 -69 -40 -58
-44 -64 -43 -33 8 24 39 26 62 5 62 -8 0 -15 -5 -15 -11z"/>
<path d="M4050 5961 c-21 -41 -18 -71 6 -71 8 0 14 10 14 23 0 13 7 32 15 43
19 25 19 44 0 44 -8 0 -24 -18 -35 -39z"/>
<path d="M3280 5952 c-48 -48 -53 -86 -15 -104 21 -10 35 -8 75 9 46 20 50 20
50 4 0 -26 36 -55 57 -46 17 6 16 8 -4 22 -24 16 -32 66 -13 78 11 7 14 45 3
45 -17 0 -51 -43 -46 -58 4 -9 2 -13 -4 -9 -6 4 -30 0 -54 -8 -52 -19 -70 -8
-45 29 18 28 49 48 68 44 7 -2 13 4 13 12 0 32 -45 22 -85 -18z"/>
<path d="M6900 5823 c-36 -44 -48 -84 -52 -173 l-4 -64 -42 -11 c-24 -5 -44
-14 -45 -20 -3 -14 43 -19 55 -7 22 22 38 0 38 -49 0 -56 -22 -99 -52 -99 -26
0 -18 -24 9 -28 14 -2 30 8 47 31 21 28 26 45 26 95 l0 62 55 0 c42 0 55 3 55
15 0 14 -41 21 -94 15 -17 -2 -18 4 -14 78 3 58 10 88 26 115 28 43 52 55 59
27 3 -11 9 -20 14 -20 16 0 21 27 9 49 -17 33 -54 26 -90 -16z"/>
<path d="M5444 5689 c-9 -15 12 -33 30 -26 9 4 16 13 16 22 0 17 -35 21 -46 4z"/>
<path d="M5782 5593 c-37 -32 -72 -95 -72 -129 0 -37 31 -73 64 -76 69 -4 146
16 146 39 0 11 -6 14 -22 8 -48 -15 -128 -18 -143 -5 -19 16 -20 50 -1 50 22
0 86 65 86 87 0 19 -17 43 -31 43 -4 0 -16 -8 -27 -17z m22 -36 c-2 -7 -14
-19 -27 -26 -21 -13 -21 -12 2 13 27 29 33 32 25 13z"/>
<path d="M7274 5589 c-37 -10 -104 -80 -104 -107 0 -25 35 -56 55 -48 19 7 15
31 -5 31 -27 0 -21 26 13 60 29 29 43 35 76 35 44 0 53 13 22 30 -11 5 -21 10
-23 9 -2 0 -17 -5 -34 -10z"/>
<path d="M7090 5555 c-9 -11 -7 -16 9 -25 21 -11 29 -62 13 -86 -12 -18 -52
-36 -68 -30 -19 7 -18 67 1 92 18 24 19 34 1 34 -40 0 -63 -111 -30 -144 54
-55 161 38 135 117 -14 41 -44 62 -61 42z"/>
<path d="M5401 5547 c-36 -45 -45 -142 -13 -154 18 -7 79 24 87 45 11 30 -8
28 -54 -5 l-24 -18 6 43 c3 24 12 51 21 61 9 10 16 23 16 29 0 16 -25 15 -39
-1z"/>
<path d="M5565 5441 c-8 -15 3 -31 21 -31 9 0 14 7 12 17 -4 20 -24 28 -33 14z"/>
<path d="M3819 5058 c0 -1 -2 -23 -4 -48 -8 -83 -36 -189 -82 -312 -25 -68
-48 -138 -50 -155 -8 -50 26 -58 138 -37 97 19 119 28 104 43 -6 6 -41 3 -98
-9 -94 -20 -122 -17 -113 9 2 9 26 75 51 146 53 148 73 226 77 304 2 37 -1 55
-9 58 -7 3 -13 3 -14 1z"/>
<path d="M12327 4975 c-10 -30 -24 -91 -32 -136 -8 -46 -20 -86 -27 -90 -6 -4
-31 -10 -54 -14 -24 -3 -46 -10 -49 -16 -10 -16 24 -22 65 -11 22 5 40 9 40 8
-1 -11 -43 -132 -51 -147 -8 -16 -8 -24 0 -32 16 -16 25 -1 57 98 15 44 30 84
34 89 5 5 34 11 66 15 35 4 59 11 62 20 4 11 -9 13 -62 9 -56 -3 -65 -2 -62
12 3 8 10 43 16 77 6 35 18 82 26 105 14 41 13 68 -3 68 -4 0 -16 -25 -26 -55z"/>
<path d="M6868 4923 c-25 -43 -70 -123 -100 -178 -30 -55 -71 -128 -91 -162
-20 -35 -31 -65 -26 -68 13 -9 27 2 44 35 11 22 12 30 2 33 -9 4 -9 6 1 6 7 1
23 12 35 26 13 16 44 31 77 40 87 23 89 22 79 -30 -5 -25 -13 -54 -19 -64 -7
-14 -6 -22 6 -32 22 -18 30 -3 43 86 14 105 17 378 4 382 -5 2 -30 -31 -55
-74z m15 -217 c-10 -6 -25 -11 -33 -12 -8 -1 -30 -4 -47 -8 -40 -9 -40 -11 37
128 l55 99 3 -98 c2 -86 0 -100 -15 -109z"/>
<path d="M8819 4973 c-26 -70 -146 -472 -150 -503 -3 -29 1 -40 15 -40 8 0 16
17 19 45 4 24 18 80 31 122 13 43 43 141 67 218 23 77 48 147 55 156 8 9 11
19 7 22 -14 15 -34 6 -44 -20z"/>
<path d="M12103 4958 c-6 -24 -28 -99 -48 -168 -71 -236 -76 -255 -73 -289 4
-45 28 -54 28 -11 0 40 18 110 81 317 27 89 49 169 49 178 0 33 -27 13 -37
-27z"/>
<path d="M4767 4963 c-11 -21 -12 -44 -6 -93 7 -58 12 -154 10 -187 -1 -10 -7
-10 -25 -1 -49 22 -156 -69 -156 -131 0 -34 27 -78 51 -84 26 -7 53 5 92 42
65 60 79 121 65 298 -7 98 -7 138 1 146 16 16 14 37 -4 37 -8 0 -21 -12 -28
-27z m3 -323 c-1 -29 -38 -97 -65 -118 -37 -29 -63 -28 -77 4 -15 32 8 80 53
109 37 24 89 27 89 5z"/>
<path d="M8335 4953 c-4 -20 -21 -82 -39 -137 -50 -151 -72 -254 -59 -267 9
-9 17 1 34 35 25 55 56 79 95 74 64 -7 61 -71 -5 -115 -40 -27 -57 -25 -53 5
4 30 -16 27 -30 -4 -11 -22 -10 -28 7 -40 10 -8 26 -14 35 -14 31 0 98 53 115
90 15 34 15 40 1 67 -8 17 -23 33 -31 37 -31 11 -84 6 -100 -10 -9 -9 -18 -15
-19 -13 -2 2 7 42 21 89 14 47 26 90 27 95 2 6 8 23 14 38 7 16 15 46 18 68 5
31 3 39 -9 39 -9 0 -17 -14 -22 -37z"/>
<path d="M9163 4978 c-4 -7 -21 -64 -38 -127 l-30 -114 -50 -14 c-52 -15 -75
-29 -75 -44 0 -12 33 -12 46 0 11 10 64 24 64 16 0 -3 -16 -49 -36 -101 -19
-53 -33 -98 -30 -101 11 -12 34 7 40 34 4 15 21 62 37 105 29 74 32 78 67 83
53 9 62 13 62 26 0 7 -16 10 -45 7 -25 -2 -45 -2 -45 -1 0 15 54 201 61 208
14 14 11 35 -5 35 -8 0 -18 -6 -23 -12z"/>
<path d="M7925 4968 c-2 -7 -13 -47 -24 -88 -11 -42 -41 -134 -66 -205 -25
-70 -43 -137 -39 -147 8 -26 34 -23 32 5 -1 12 22 92 50 177 62 191 81 257 74
265 -9 9 -22 6 -27 -7z"/>
<path d="M2375 4950 c-43 -21 -185 -145 -185 -161 0 -22 33 -5 88 49 33 31 75
65 92 75 l31 19 -14 -34 c-8 -18 -26 -61 -41 -95 -36 -87 -76 -211 -76 -239 0
-39 29 -29 87 28 l53 52 0 -37 c0 -58 23 -93 75 -112 54 -21 108 -15 140 15
30 28 53 112 71 261 16 129 13 159 -16 159 -21 0 -34 -37 -15 -48 22 -13 -19
-291 -50 -339 -18 -28 -66 -38 -110 -23 -49 16 -65 44 -65 112 0 76 -16 76
-86 1 l-54 -58 16 55 c9 30 39 109 66 175 69 166 68 183 -7 145z"/>
<path d="M13255 4943 c-16 -2 -88 -15 -160 -28 -175 -33 -317 -47 -392 -39
-59 6 -63 5 -63 -14 0 -20 5 -20 133 -17 72 2 170 11 217 19 47 9 87 16 90 16
14 0 4 -55 -31 -185 -40 -152 -79 -251 -106 -270 -15 -11 -15 -13 5 -24 20
-10 23 -7 45 36 46 90 127 364 127 426 0 23 6 26 67 37 37 7 103 16 147 19 50
4 81 11 84 19 3 9 -14 12 -65 11 -37 -1 -81 -4 -98 -6z"/>
<path d="M11375 4900 c-183 -55 -210 -65 -210 -81 0 -14 13 -15 53 -3 l23 7
-22 -54 c-75 -184 -97 -280 -68 -287 13 -2 17 8 22 47 8 68 22 91 55 91 47 1
187 46 187 61 0 16 3 17 -108 -13 -47 -12 -89 -20 -92 -16 -3 3 9 45 28 94 39
99 27 91 195 138 108 31 139 49 90 53 -13 1 -81 -16 -153 -37z"/>
<path d="M3267 4903 c-3 -5 -8 -33 -12 -63 -3 -30 -15 -91 -26 -135 -26 -109
-29 -178 -8 -183 12 -2 16 7 17 48 1 61 14 80 54 80 75 0 137 -66 123 -130 -5
-23 -3 -30 9 -30 9 0 18 11 22 25 16 62 -33 138 -102 158 l-45 13 85 85 c82
80 101 109 74 109 -7 0 -55 -43 -106 -96 -52 -52 -91 -87 -88 -77 3 10 10 50
16 88 5 39 12 80 15 93 4 15 1 22 -9 22 -8 0 -17 -3 -19 -7z"/>
<path d="M8935 4890 c-10 -17 4 -62 18 -57 13 5 12 46 -2 60 -5 5 -12 4 -16
-3z"/>
<path d="M13456 4748 c-59 -185 -76 -270 -57 -292 19 -22 33 -9 26 23 -6 29
27 165 75 305 33 99 36 116 18 116 -8 0 -33 -63 -62 -152z"/>
<path d="M8600 4825 c0 -11 7 -15 23 -13 12 2 22 8 22 13 0 6 -10 11 -22 13
-16 2 -23 -2 -23 -13z"/>
<path d="M5801 4793 c-19 -65 -24 -70 -66 -50 -40 19 -65 22 -65 7 0 -9 50
-45 75 -53 5 -2 2 -15 -8 -30 -24 -37 -22 -54 9 -54 18 0 28 7 34 23 13 33 24
30 74 -16 24 -22 46 -40 50 -40 14 0 5 31 -19 67 l-26 37 31 24 c44 35 40 56
-9 47 l-40 -7 -3 38 c-4 51 -24 54 -37 7z"/>
<path d="M7635 4780 c-8 -12 20 -24 35 -15 6 3 8 11 5 16 -8 12 -32 12 -40 -1z"/>
<path d="M7203 4745 c-39 -16 -66 -56 -89 -128 -10 -31 -22 -53 -26 -49 -5 5
-10 48 -11 96 -2 71 -5 86 -17 83 -12 -2 -14 -19 -12 -91 5 -150 42 -197 78
-98 51 143 78 173 140 158 21 -6 25 -4 22 10 -4 24 -49 34 -85 19z"/>
<path d="M14595 4735 c-55 -23 -112 -107 -100 -146 13 -41 112 -80 146 -58 20
13 -6 29 -47 29 -38 0 -74 32 -67 59 7 29 71 91 93 91 24 0 33 15 17 28 -8 7
-21 6 -42 -3z"/>
<path d="M10213 4700 c-16 -28 -22 -31 -50 -25 -39 7 -46 -15 -13 -38 11 -8
17 -17 13 -20 -3 -4 -1 -7 5 -7 7 0 12 -5 12 -11 0 -6 -7 -9 -15 -6 -20 8 -47
-81 -31 -106 16 -26 31 -17 31 17 0 23 8 36 34 53 43 29 48 29 79 -7 27 -30
62 -40 62 -18 0 7 -12 24 -26 39 -34 35 -26 56 26 76 22 9 40 23 40 31 0 15
-12 14 -92 -4 -23 -5 -27 -3 -30 22 -4 39 -23 41 -45 4z m-3 -94 c0 -3 -4 -8
-10 -11 -5 -3 -10 -1 -10 4 0 6 5 11 10 11 6 0 10 -2 10 -4z"/>
<path d="M13872 4706 c-25 -33 -55 -113 -48 -131 8 -21 26 -19 26 3 0 9 11 41
25 71 23 50 27 53 54 48 34 -7 45 1 30 20 -19 22 -65 16 -87 -11z"/>
<path d="M14782 4710 c-31 -14 -47 -29 -57 -54 -41 -97 6 -156 124 -156 59 0
81 7 81 26 0 15 -16 19 -24 6 -9 -14 -126 5 -147 24 -42 38 -10 112 57 134 19
7 38 9 42 5 11 -11 -30 -35 -60 -35 -20 0 -28 -5 -28 -18 0 -25 9 -32 29 -23
9 5 33 16 54 25 34 15 38 20 35 49 -3 28 -7 32 -33 35 -16 1 -49 -7 -73 -18z"/>
<path d="M9345 4653 c-19 -38 -44 -79 -55 -93 l-20 -25 0 57 c0 56 -14 83 -30
58 -9 -15 -7 -82 4 -122 6 -21 0 -38 -29 -83 -51 -80 -103 -184 -120 -242 -18
-60 -18 -63 -1 -63 9 0 21 21 30 55 21 70 69 162 149 283 35 53 77 121 93 149
18 32 36 53 47 53 20 0 22 11 5 28 -23 23 -37 12 -73 -55z"/>
<path d="M11830 4694 c-8 -19 -7 -31 2 -41 10 -12 13 -10 23 14 12 29 9 53 -6
53 -5 0 -14 -12 -19 -26z"/>
<path d="M14327 4694 c-20 -13 -40 -24 -46 -24 -5 0 -13 -15 -16 -32 -4 -18
-16 -45 -26 -60 -24 -33 -24 -38 1 -38 12 0 28 16 46 48 31 53 63 92 77 92 9
0 4 -79 -9 -132 -8 -33 10 -38 26 -7 17 31 29 121 20 145 -13 32 -34 35 -73 8z"/>
<path d="M8034 4700 c-40 -16 -74 -68 -74 -114 0 -73 39 -86 108 -36 41 29 42
30 54 10 13 -20 38 -28 38 -12 0 5 -7 23 -16 40 -8 18 -13 41 -9 52 5 15 2 20
-12 20 -10 0 -23 10 -28 22 -11 26 -30 31 -61 18z m65 -47 c12 -7 -26 -66 -54
-83 -45 -28 -55 -25 -55 16 0 26 8 43 30 65 30 31 28 31 79 2z"/>
<path d="M2777 4680 c-14 -11 -31 -38 -37 -58 -18 -66 35 -109 101 -82 36 15
46 49 28 93 -8 17 -14 39 -14 47 0 24 -48 24 -78 0z m52 -46 c12 -15 21 -33
21 -41 0 -17 -44 -38 -64 -30 -18 7 -21 49 -6 78 14 26 25 24 49 -7z"/>
<path d="M4133 4688 c-43 -11 -73 -56 -73 -107 0 -53 26 -81 78 -81 45 0 76
20 98 62 21 41 12 70 -33 106 -33 25 -43 28 -70 20z m65 -58 c26 -25 26 -23 7
-59 -15 -31 -33 -41 -70 -41 -27 0 -42 16 -46 52 -8 58 64 89 109 48z"/>
<path d="M11671 4677 c-10 -25 -15 -75 -12 -120 1 -19 9 -31 26 -39 21 -10 30
-7 62 15 l37 26 11 -22 c13 -26 55 -36 55 -13 0 9 -7 16 -16 16 -10 0 -14 6
-11 18 16 56 16 70 2 82 -8 7 -15 8 -15 3 0 -17 -83 -93 -101 -93 -30 0 -32
65 -4 133 5 12 2 17 -9 17 -9 0 -20 -10 -25 -23z"/>
<path d="M14095 4689 c-67 -38 -95 -100 -59 -130 12 -10 22 -10 47 -1 17 6 31
11 32 9 0 -1 6 -14 13 -29 6 -16 19 -28 28 -28 11 0 14 5 9 18 -16 37 -17 53
-6 84 14 39 -4 66 -23 34 -17 -30 -57 -66 -72 -66 -44 0 15 76 66 87 17 3 29
11 27 17 -5 15 -38 18 -62 5z"/>
<path d="M3031 4676 c-33 -12 -60 -46 -61 -78 0 -9 -4 -18 -10 -20 -14 -4 0
-48 15 -48 8 0 16 18 20 41 8 46 35 79 65 79 13 0 20 7 20 20 0 23 -2 23 -49
6z"/>
<path d="M7338 4683 c-20 -5 -64 -69 -73 -105 -5 -20 -2 -29 13 -37 16 -8 28
-5 58 15 22 15 41 30 42 35 7 18 22 8 22 -15 0 -34 10 -56 25 -56 17 0 27 27
13 36 -6 4 -8 28 -6 61 3 29 2 55 -1 57 -13 7 -77 13 -93 9z m29 -61 c-43 -45
-67 -58 -67 -37 0 24 51 71 77 71 22 0 21 -2 -10 -34z"/>
<path d="M7580 4670 c-6 -12 -9 -24 -6 -27 3 -4 1 -12 -4 -19 -6 -6 -13 -35
-17 -63 -5 -43 -3 -51 11 -51 11 0 16 9 16 28 0 16 7 52 16 81 17 58 6 92 -16
51z"/>
<path d="M11465 4655 c-73 -77 -40 -165 36 -99 22 19 26 18 34 -13 4 -16 11
-34 17 -40 14 -18 38 -16 38 2 0 8 -4 15 -10 15 -13 0 -13 90 0 110 7 11 2 21
-17 37 -36 32 -60 29 -98 -12z m74 -4 c9 -6 10 -11 2 -15 -6 -4 -8 -12 -5 -18
4 -6 3 -8 -3 -5 -6 4 -21 -5 -33 -18 -13 -14 -27 -25 -32 -25 -17 0 -7 38 17
64 26 28 33 30 54 17z"/>
<path d="M13637 4673 c-36 -19 -70 -84 -61 -120 9 -39 20 -50 54 -57 37 -7 60
1 60 21 0 11 -7 13 -23 9 -34 -8 -66 17 -51 41 6 10 22 18 34 18 33 0 65 46
51 73 -14 27 -31 31 -64 15z m33 -35 c0 -19 -13 -33 -32 -36 -22 -4 -23 6 -1
30 19 21 33 23 33 6z"/>
<path d="M4341 4653 c-44 -55 -38 -105 13 -111 21 -3 36 5 62 33 l34 36 0 -29
c0 -44 58 -85 86 -61 22 18 16 29 -16 29 -17 0 -32 6 -34 13 -2 6 -9 31 -15
55 -9 31 -17 42 -31 42 -11 0 -20 5 -20 10 0 22 -59 10 -79 -17z m68 -17 c8
-10 5 -19 -14 -40 -24 -26 -55 -35 -55 -16 0 21 31 70 44 70 7 0 19 -6 25 -14z"/>
<path d="M8535 4670 c-3 -5 -14 -35 -25 -66 -18 -56 -17 -88 3 -81 9 3 46 116
47 145 0 14 -16 16 -25 2z"/>
<path d="M8829 4625 c-12 -19 -27 -35 -35 -35 -19 0 -17 -10 5 -39 20 -26 41
-21 41 9 0 24 21 70 32 70 4 0 8 7 8 15 0 27 -30 16 -51 -20z"/>
<path d="M13165 4595 c-14 -13 -25 -33 -25 -44 0 -30 41 -53 87 -49 46 4 53
23 27 79 -21 47 -52 52 -89 14z m75 -56 c0 -10 -31 -12 -54 -3 -21 8 -20 31 2
43 13 8 21 6 35 -10 9 -12 17 -25 17 -30z"/>
<path d="M10708 4494 c-4 -3 -4 -36 -1 -74 4 -46 0 -92 -12 -144 l-17 -78 -22
21 c-29 28 -48 26 -87 -6 -77 -65 -76 -173 2 -173 67 0 114 66 150 211 30 115
20 277 -13 243z m-68 -299 c7 -8 16 -12 21 -9 12 7 11 2 -6 -39 -25 -60 -97
-100 -111 -62 -9 23 15 83 43 105 31 24 37 25 53 5z"/>
<path d="M11293 4481 c-40 -25 -56 -57 -79 -153 l-18 -77 -40 -3 c-55 -4 -61
-28 -7 -28 23 0 41 -3 41 -7 0 -5 -12 -43 -27 -85 -15 -42 -24 -81 -19 -85 12
-13 33 24 57 103 18 55 28 74 43 76 11 2 21 9 24 17 3 8 0 11 -5 8 -5 -3 -15
-2 -21 2 -14 9 -4 73 24 149 18 47 61 77 95 67 17 -6 20 -3 17 12 -5 25 -46
27 -85 4z"/>
<path d="M12318 4428 c-20 -63 -26 -73 -48 -76 -69 -7 -90 -14 -90 -28 0 -12
9 -13 48 -8 l48 6 0 -107 c-1 -94 1 -108 18 -121 23 -17 26 -17 46 -3 11 8 12
12 2 16 -37 15 -44 36 -40 115 3 43 7 80 10 84 3 3 33 6 67 8 34 1 64 5 67 9
14 14 -10 25 -57 25 -28 1 -53 2 -55 4 -2 2 5 33 16 68 10 35 17 67 14 72 -12
20 -24 3 -46 -64z"/>
<path d="M11078 4450 c-32 -25 -47 -62 -67 -163 l-16 -81 -44 -11 c-63 -15
-69 -40 -8 -33 l46 5 -16 -36 c-19 -43 -22 -73 -8 -77 9 -3 28 37 49 99 3 9
15 17 26 17 24 0 27 25 4 38 -13 7 -14 17 -4 73 6 35 20 84 31 108 16 38 22
43 44 39 30 -6 42 7 25 27 -17 20 -33 19 -62 -5z"/>
<path d="M7621 4366 c-1 -103 -17 -205 -41 -260 -23 -54 -26 -80 -8 -74 14 5
19 14 57 101 32 73 56 86 65 37 3 -16 9 -44 12 -61 7 -35 26 -46 57 -32 18 8
26 5 48 -18 17 -19 40 -29 72 -34 52 -8 97 0 97 16 0 8 -5 7 -15 -1 -8 -7 -15
-8 -15 -3 0 6 -22 13 -49 17 -30 4 -55 14 -67 27 -18 20 -18 21 1 35 10 8 24
14 29 14 20 1 66 49 66 69 0 26 -26 51 -54 51 -32 0 -74 -45 -86 -91 -6 -21
-19 -43 -30 -49 -21 -11 -23 -7 -35 62 -8 50 -28 70 -60 58 -23 -9 -24 -7 -20
18 18 119 15 192 -10 192 -10 0 -13 -20 -14 -74z m275 -157 c8 -13 -23 -44
-53 -54 -29 -8 -29 5 -2 39 22 27 43 33 55 15z"/>
<path d="M6493 4404 c-3 -9 -1 -50 5 -92 16 -116 -10 -226 -52 -220 -13 2 -22
12 -24 25 -4 27 33 101 50 99 19 -2 23 17 5 28 -20 13 -42 -6 -68 -55 -38 -75
-19 -133 41 -127 31 3 38 9 60 53 22 44 24 60 21 135 -2 47 -4 104 -4 128 -1
43 -21 59 -34 26z"/>
<path d="M7416 4404 c-3 -9 -6 -41 -6 -72 0 -92 -4 -98 -68 -111 -30 -6 -71
-11 -90 -11 -22 0 -32 -4 -29 -12 4 -15 81 -17 138 -5 l36 7 -8 -52 c-14 -98
-17 -148 -8 -153 7 -5 22 11 24 25 1 3 5 39 9 80 12 105 17 115 68 128 35 10
45 9 54 -3 6 -8 16 -15 23 -15 16 0 13 26 -6 45 -16 16 -29 16 -95 0 l-24 -6
7 78 c4 43 5 81 2 86 -7 12 -21 8 -27 -9z"/>
<path d="M9750 4408 c-36 -5 -93 -7 -127 -5 -48 4 -63 1 -63 -9 0 -7 5 -16 11
-20 13 -8 129 -6 169 2 15 3 2 -9 -33 -29 -32 -19 -70 -44 -84 -57 -25 -22
-26 -23 -8 -36 10 -8 26 -14 35 -14 78 0 118 -66 84 -137 -28 -56 -72 -75
-157 -68 -87 7 -152 32 -136 51 17 20 2 36 -22 23 -13 -6 -19 -18 -17 -32 5
-35 80 -66 174 -73 70 -5 84 -3 124 18 105 54 105 201 1 239 l-45 16 40 25
c21 13 65 39 97 57 31 18 57 39 57 47 0 15 -6 16 -100 2z"/>
<path d="M10853 4364 c-8 -20 13 -42 27 -28 12 12 3 44 -11 44 -5 0 -12 -7
-16 -16z"/>
<path d="M11390 4264 c-17 -15 -37 -39 -46 -55 -13 -25 -13 -33 0 -64 17 -39
52 -58 100 -53 42 4 37 22 -7 29 -67 11 -88 47 -38 66 41 15 66 55 51 82 -14
27 -22 26 -60 -5z m30 -29 c0 -2 -10 -10 -22 -16 -21 -11 -22 -11 -9 4 13 16
31 23 31 12z"/>
<path d="M11592 4265 c-52 -44 -78 -171 -33 -163 12 2 16 15 16 49 1 60 25 96
70 105 40 7 42 27 3 32 -16 2 -37 -7 -56 -23z"/>
<path d="M11728 4260 c-32 -24 -58 -79 -58 -118 0 -31 29 -62 57 -62 21 0 15
28 -7 35 -32 10 -23 32 17 46 20 6 47 23 59 36 19 21 21 29 12 54 -12 35 -43
39 -80 9z m52 -25 c0 -18 -44 -49 -62 -43 -8 3 -3 14 16 31 33 30 46 34 46 12z"/>
<path d="M11980 4240 c-25 -22 -51 -38 -59 -37 -15 2 -61 -67 -61 -90 0 -27
30 -11 76 40 68 74 72 75 60 17 -12 -62 0 -80 58 -80 43 0 76 14 63 26 -4 5
-28 7 -52 5 -41 -2 -45 -1 -45 21 0 13 9 43 20 67 11 24 20 49 20 57 0 25 -34
14 -80 -26z"/>
<path d="M5949 4232 c-56 -57 -65 -127 -19 -152 22 -12 74 9 83 32 3 7 6 1 6
-13 1 -36 23 -62 44 -53 17 6 17 8 1 25 -12 14 -14 28 -9 61 4 24 12 49 17 55
6 7 8 20 4 28 -5 15 -63 55 -80 55 -4 0 -26 -17 -47 -38z m78 -13 c15 -15 -3
-53 -41 -88 -42 -39 -72 -11 -45 42 28 53 61 71 86 46z"/>
<path d="M6205 4230 c-3 -5 -15 -10 -25 -10 -24 0 -27 -5 -35 -62 -6 -38 -4
-48 7 -48 8 0 19 15 26 34 13 35 48 73 58 63 4 -3 1 -27 -5 -53 -13 -50 -8
-79 14 -88 18 -7 30 11 17 27 -6 8 -6 30 1 63 6 28 7 58 4 67 -7 18 -52 23
-62 7z"/>
<path d="M10796 4191 c-3 -5 -5 -20 -5 -32 1 -13 -2 -39 -6 -56 -5 -20 -4 -33
3 -33 18 0 29 25 35 78 5 41 3 52 -8 52 -8 0 -16 -4 -19 -9z"/>
<path d="M2855 4086 c-33 -19 -71 -46 -84 -60 -24 -25 -24 -25 -6 -71 11 -31
42 -71 90 -119 82 -82 94 -112 74 -183 -16 -58 -54 -83 -126 -83 -76 0 -130
25 -148 67 -9 20 -19 32 -26 28 -12 -8 -4 -52 14 -74 24 -28 91 -51 155 -51
96 0 141 30 163 111 20 76 7 111 -75 197 -40 42 -81 92 -91 111 l-17 35 33 27
c46 37 124 73 143 66 21 -8 20 -46 -3 -76 l-18 -24 -12 36 c-12 36 -24 46 -35
29 -9 -15 21 -97 36 -100 8 -2 29 13 47 33 36 42 42 92 13 118 -28 25 -60 21
-127 -17z"/>
<path d="M11753 4105 c-7 -21 -2 -25 25 -18 12 3 22 12 22 19 0 19 -39 18 -47
-1z"/>
<path d="M4935 4058 c-2 -7 -6 -38 -9 -68 -3 -30 -13 -86 -21 -125 -8 -38 -15
-73 -15 -77 0 -5 -9 -8 -20 -8 -29 0 -70 -21 -70 -37 0 -16 14 -17 40 -1 30
19 33 4 11 -59 -24 -67 -28 -127 -9 -121 7 3 16 22 19 44 4 21 16 62 27 89 16
40 25 51 45 53 14 2 34 -1 44 -6 19 -10 43 -6 43 7 0 12 -48 31 -76 31 -23 0
-24 2 -17 38 4 20 8 49 8 65 0 15 4 27 8 27 4 0 7 6 6 13 -3 13 9 100 18 130
5 20 -25 25 -32 5z"/>
<path d="M4577 4043 c-4 -3 -7 -21 -7 -39 0 -18 -6 -63 -14 -101 -8 -37 -17
-81 -20 -98 -3 -16 -15 -68 -26 -114 -16 -61 -18 -87 -10 -95 13 -13 29 8 30
39 0 11 11 65 25 120 13 54 22 101 20 103 -2 3 0 13 6 23 14 26 24 169 12 169
-5 0 -13 -3 -16 -7z"/>
<path d="M3617 4013 c-2 -4 -12 -46 -21 -93 -32 -172 -37 -288 -10 -297 7 -2
13 32 17 101 3 58 14 144 23 191 12 59 14 89 7 96 -6 6 -13 7 -16 2z"/>
<path d="M6605 3970 c-8 -16 -20 -63 -27 -105 l-12 -75 -62 0 c-35 0 -65 -4
-69 -9 -9 -15 8 -20 68 -22 64 -2 63 3 25 -108 -12 -37 -15 -58 -8 -65 16 -16
25 1 51 92 l23 84 43 -7 c24 -3 52 -3 64 0 36 12 14 30 -40 32 -29 1 -55 4
-58 7 -9 8 18 139 34 164 14 22 10 42 -7 42 -5 0 -16 -13 -25 -30z"/>
<path d="M4050 3969 c-7 -12 -13 -42 -14 -65 0 -23 -3 -40 -6 -37 -3 2 -10
-37 -16 -89 -7 -51 -15 -100 -18 -109 -4 -9 3 -26 18 -42 47 -51 148 -30 180
37 18 38 14 79 -12 109 -21 24 -83 22 -116 -4 l-26 -20 6 48 c4 26 12 77 20
113 13 68 5 99 -16 59z m118 -255 c3 -35 -1 -45 -24 -63 -30 -23 -86 -28 -102
-8 -8 9 -6 24 8 54 21 48 44 64 85 60 28 -2 30 -5 33 -43z"/>
<path d="M8105 3970 c-8 -13 3 -30 21 -30 18 0 18 14 0 29 -10 8 -16 9 -21 1z"/>
<path d="M6305 3958 c-43 -15 -113 -65 -126 -89 -9 -18 -1 -30 75 -102 47 -46
86 -88 86 -95 0 -7 -11 -24 -25 -37 -20 -21 -34 -25 -84 -25 -45 0 -62 4 -69
17 -11 19 -44 11 -37 -9 10 -25 47 -39 106 -40 66 -1 102 17 129 65 13 23 13
30 -2 61 -10 19 -47 58 -83 86 -36 29 -65 58 -65 65 0 15 62 57 112 75 20 8
34 18 31 23 -3 5 6 1 21 -8 29 -19 42 -15 33 10 -7 17 -56 19 -102 3z"/>
<path d="M7234 3893 c-23 -104 -19 -99 -69 -95 -36 3 -45 1 -45 -12 0 -12 10
-16 40 -16 22 0 40 -1 40 -2 0 -2 -7 -39 -15 -82 -8 -44 -13 -82 -9 -85 11
-11 32 30 39 77 12 87 15 92 45 92 40 0 76 39 51 54 -5 3 -14 -1 -21 -9 -7 -8
-21 -15 -31 -15 -15 0 -17 4 -10 23 4 12 11 39 15 60 6 29 4 37 -8 37 -9 0
-18 -12 -22 -27z"/>
<path d="M4335 3870 c-10 -16 3 -29 25 -23 24 6 26 19 4 27 -21 8 -22 8 -29
-4z"/>
<path d="M4706 3873 c-12 -12 -6 -33 9 -33 8 0 15 6 15 14 0 17 -14 28 -24 19z"/>
<path d="M8573 3805 c-29 -13 -53 -31 -53 -39 0 -7 15 -27 34 -44 63 -55 70
-93 20 -112 -33 -13 -71 -3 -55 13 18 18 13 25 -13 20 -27 -5 -39 -25 -30 -48
7 -18 63 -30 96 -20 85 26 91 82 17 161 l-30 31 27 12 c23 10 29 10 36 -3 13
-22 25 -20 31 6 6 20 -7 48 -22 48 -3 0 -30 -11 -58 -25z"/>
<path d="M7441 3785 c-71 -64 -91 -143 -47 -184 19 -18 33 -21 85 -20 47 2 61
5 57 16 -3 7 -1 13 4 13 6 0 10 -5 10 -11 0 -5 5 -7 10 -4 24 15 -4 22 -63 18
-51 -4 -66 -2 -80 11 -28 29 -21 45 24 52 44 7 103 51 111 82 3 10 1 28 -3 40
-13 35 -61 29 -108 -13z m79 -14 c0 -25 -53 -63 -83 -59 -21 3 -20 5 15 41 39
41 68 48 68 18z"/>
<path d="M8230 3794 c-105 -89 -87 -234 29 -234 39 0 126 27 140 44 20 24 -2
25 -59 6 -75 -26 -115 -26 -134 2 -27 38 -20 57 29 78 25 11 57 31 70 44 64
64 -4 119 -75 60z m70 -13 c0 -14 -59 -61 -76 -61 -12 0 -12 4 2 25 24 37 74
61 74 36z"/>
<path d="M6791 3784 c-12 -15 -21 -31 -21 -35 0 -5 -9 -9 -20 -9 -20 0 -23 -9
-34 -112 -5 -41 -3 -48 12 -48 13 0 23 20 40 77 13 42 32 87 41 100 l18 22 23
-25 c33 -34 49 -15 21 25 -27 38 -53 39 -80 5z"/>
<path d="M8026 3788 c-3 -13 -10 -47 -17 -76 -8 -39 -8 -57 -1 -64 12 -12 12
-12 30 52 22 75 24 110 8 110 -9 0 -18 -10 -20 -22z"/>
<path d="M3103 3758 c-47 -49 -48 -95 -4 -139 21 -21 39 -29 63 -29 l33 1 -43
25 c-25 16 -45 36 -48 51 -8 29 9 72 31 78 49 16 48 15 35 30 -18 22 -33 19
-67 -17z"/>
<path d="M3765 3757 c-39 -39 -53 -80 -35 -102 16 -19 51 -19 76 0 27 21 39
18 52 -10 13 -28 42 -34 42 -9 0 8 -7 23 -16 31 -11 11 -14 27 -11 48 4 26 0
34 -27 53 -18 12 -36 22 -40 22 -4 0 -23 -15 -41 -33z m64 -21 c9 -11 5 -19
-19 -40 -29 -24 -60 -34 -60 -20 0 4 9 22 21 40 22 36 40 42 58 20z"/>
<path d="M5241 3767 c-31 -80 -78 -168 -140 -262 -39 -58 -71 -113 -71 -120 0
-7 -7 -16 -16 -19 -15 -6 -15 -8 1 -26 21 -24 31 -19 38 18 3 16 32 69 65 118
94 142 152 258 152 302 0 21 -20 13 -29 -11z"/>
<path d="M6929 3759 c-32 -34 -43 -63 -37 -100 2 -20 9 -24 38 -23 19 0 42 4
51 8 12 5 17 -2 25 -30 17 -69 31 -50 28 38 -1 46 -2 84 -3 86 -1 2 -18 -15
-39 -38 -42 -43 -72 -52 -72 -21 0 27 49 83 67 77 22 -9 36 4 22 20 -19 23
-49 16 -80 -17z"/>
<path d="M7722 3765 c-45 -38 -54 -58 -42 -91 9 -24 14 -26 46 -21 43 7 63 22
80 62 l13 30 0 -40 c1 -39 -19 -137 -40 -202 -8 -27 -16 -33 -38 -33 -55 0
-101 -58 -101 -128 0 -90 61 -77 118 26 31 58 36 62 69 62 42 0 41 23 -1 28
-19 3 -26 8 -22 18 17 44 38 144 42 202 6 79 -5 100 -57 108 -29 5 -41 1 -67
-21z m58 -23 c0 -24 -20 -49 -47 -56 -33 -10 -36 9 -7 43 29 35 54 40 54 13z
m-44 -349 c-13 -27 -33 -57 -45 -67 -21 -19 -21 -19 -21 17 0 41 41 97 71 97
18 0 18 -2 -5 -47z"/>
<path d="M5062 3758 c-7 -9 -7 -18 3 -32 8 -10 11 -24 8 -32 -15 -40 45 -121
71 -94 8 9 5 16 -11 27 -16 11 -23 26 -24 52 -2 72 -23 107 -47 79z"/>
<path d="M3310 3753 c-75 -28 -58 -113 22 -113 22 0 31 -7 42 -35 14 -33 34
-44 49 -28 4 3 0 15 -10 25 -9 10 -16 31 -15 48 1 37 -9 43 -43 30 -32 -12
-65 -4 -65 15 0 16 33 37 53 34 32 -4 40 1 27 16 -13 15 -33 18 -60 8z"/>
<path d="M4298 3727 c-17 -13 -33 -81 -23 -97 11 -18 35 3 35 32 0 16 5 38 10
48 12 23 -2 34 -22 17z"/>
<path d="M4643 3718 c-15 -19 -24 -106 -13 -113 12 -7 25 24 35 83 7 42 -3 55
-22 30z"/>
<path d="M11734 3355 c-4 -8 -13 -15 -20 -15 -46 0 -196 -99 -231 -151 -51
-77 -39 -188 25 -235 54 -39 92 -76 92 -89 0 -24 -51 -54 -132 -80 -91 -29
-128 -32 -128 -10 0 8 -4 15 -9 15 -16 0 -23 -19 -16 -40 8 -27 62 -27 149 1
84 25 151 65 166 98 11 23 7 29 -58 90 -79 75 -92 96 -92 145 0 49 13 79 54
118 38 37 181 117 191 106 3 -3 -1 -32 -9 -64 -9 -33 -12 -62 -7 -67 21 -21
101 59 101 100 0 11 -9 32 -20 46 -11 14 -20 30 -20 36 0 17 -30 13 -36 -4z
m29 -107 l-21 -20 11 42 c10 37 12 39 21 20 7 -16 5 -26 -11 -42z"/>
<path d="M4345 3228 c-2 -7 -12 -44 -23 -83 -11 -38 -38 -133 -61 -210 -49
-164 -60 -235 -39 -252 9 -8 19 -9 28 -3 12 8 12 10 2 10 -26 0 5 142 89 408
16 51 27 97 24 102 -3 4 0 10 7 12 13 5 2 28 -13 28 -5 0 -11 -6 -14 -12z"/>
<path d="M3990 3197 c-195 -80 -317 -265 -286 -431 10 -52 57 -101 111 -116
73 -20 215 4 215 37 0 10 -6 13 -17 9 -9 -4 -46 -12 -82 -18 -88 -15 -145 2
-179 52 -21 31 -23 44 -19 105 5 87 34 150 96 214 56 58 109 93 179 120 l52
21 -15 -30 c-34 -65 -2 -99 35 -37 24 39 25 60 4 81 -20 21 -28 20 -94 -7z"/>
<path d="M12196 3163 c-4 -16 -34 -113 -67 -216 -57 -178 -67 -235 -44 -240 5
-1 12 14 16 33 3 19 34 122 68 229 33 107 61 200 61 207 0 26 -28 14 -34 -13z"/>
<path d="M12558 3124 c-8 -16 -28 -63 -43 -106 -28 -73 -30 -76 -66 -82 -35
-6 -68 -30 -56 -42 3 -4 20 -1 38 5 18 6 34 9 37 6 3 -2 -7 -37 -21 -76 -15
-39 -24 -76 -21 -81 11 -18 32 13 54 83 13 39 30 73 38 76 8 3 43 2 78 -4 58
-8 64 -7 64 8 0 15 -13 19 -70 25 -38 3 -70 8 -70 9 0 2 16 45 36 95 23 61 32
96 26 102 -7 7 -15 0 -24 -18z"/>
<path d="M2070 3121 c0 -24 18 -37 31 -24 13 13 1 43 -17 43 -8 0 -14 -9 -14
-19z"/>
<path d="M12824 3061 c-39 -81 -50 -91 -105 -91 -29 0 -57 -24 -40 -34 5 -4
28 -2 50 3 26 5 41 5 41 -1 0 -5 -11 -49 -25 -98 -28 -101 -30 -120 -12 -120
8 0 23 42 41 109 15 60 33 114 39 120 6 6 27 11 47 11 41 0 65 13 55 29 -4 8
-22 10 -52 5 l-45 -7 31 55 c32 56 38 83 22 92 -5 3 -26 -30 -47 -73z"/>
<path d="M7245 3109 c-4 -6 -5 -12 -4 -13 2 -2 90 -9 194 -15 142 -9 200 -17
232 -31 83 -36 81 -90 -7 -184 -55 -59 -154 -125 -167 -112 -4 3 8 50 26 105
36 108 38 164 8 169 -16 3 -18 -1 -12 -28 5 -23 -3 -63 -31 -151 l-39 -119
-55 -11 c-30 -6 -83 -9 -117 -6 -56 4 -63 3 -63 -13 0 -23 38 -29 130 -19 175
19 324 106 396 232 33 59 31 92 -9 132 -41 41 -85 54 -212 60 -55 3 -113 8
-128 10 -19 3 -26 1 -21 -7 4 -6 3 -8 -4 -4 -20 12 -111 16 -117 5z"/>
<path d="M13060 3062 c0 -12 23 -32 37 -32 18 0 16 27 -3 34 -21 8 -34 8 -34
-2z"/>
<path d="M9690 3016 c0 -10 9 -16 21 -16 24 0 21 23 -4 28 -10 2 -17 -3 -17
-12z"/>
<path d="M5070 3006 c0 -10 9 -16 21 -16 24 0 21 23 -4 28 -10 2 -17 -3 -17
-12z"/>
<path d="M12268 2979 c-22 -12 -23 -32 -3 -49 12 -10 16 -7 25 16 13 32 2 47
-22 33z"/>
<path d="M9042 2964 c-12 -8 -22 -22 -22 -30 0 -8 -4 -13 -9 -10 -13 8 -49
-70 -77 -169 -14 -49 -34 -116 -45 -149 -21 -62 -20 -72 6 -62 22 8 51 78 66
159 11 60 15 67 36 67 13 0 41 9 62 20 87 44 118 127 65 169 -32 25 -52 26
-82 5z m78 -57 c0 -33 -26 -64 -70 -87 -55 -28 -64 -26 -56 11 8 44 44 99 70
109 28 10 56 -6 56 -33z"/>
<path d="M9505 2944 c-42 -22 -75 -54 -75 -75 0 -10 15 -29 33 -44 31 -25 32
-26 12 -41 -11 -9 -35 -23 -53 -30 -33 -15 -35 -34 -3 -34 28 0 101 58 101 79
0 11 -15 31 -32 46 l-33 26 30 25 c17 14 42 27 58 31 30 6 38 33 10 33 -10 0
-31 -7 -48 -16z"/>
<path d="M11863 2931 c-23 -16 -48 -40 -57 -53 -13 -18 -16 -19 -16 -5 0 9 -6
17 -14 17 -10 0 -16 -16 -19 -52 -2 -29 -21 -96 -41 -148 -51 -131 -51 -130
-32 -130 15 0 53 68 85 153 6 15 16 27 23 27 23 0 96 54 127 94 46 58 42 126
-8 126 -5 0 -26 -13 -48 -29z m57 -26 c0 -29 -59 -99 -102 -121 -37 -19 -37
-3 0 54 23 34 85 92 99 92 2 0 3 -11 3 -25z"/>
<path d="M2186 2877 c-20 -30 -36 -63 -36 -73 1 -67 35 -92 97 -70 35 12 56
46 23 37 -47 -13 -73 -12 -81 0 -14 22 -11 29 15 29 36 0 68 45 64 89 -2 28
-8 37 -25 39 -16 2 -30 -9 -57 -51z m44 -26 c-6 -12 -18 -21 -26 -21 -12 0
-11 6 7 32 24 33 38 24 19 -11z"/>
<path d="M4705 2884 c-9 -22 -23 -57 -31 -78 -8 -22 -19 -45 -26 -53 -8 -10
-8 -17 0 -25 8 -8 25 2 63 36 29 26 65 56 81 67 l29 21 -8 -29 c-4 -15 -7 -46
-8 -68 0 -34 3 -40 22 -43 21 -3 22 0 17 45 -4 31 0 64 10 93 26 77 6 73 -118
-22 -28 -21 -29 -21 -22 -3 29 70 30 75 19 86 -9 9 -16 2 -28 -27z"/>
<path d="M1967 2892 c-24 -26 -57 -103 -57 -134 0 -25 22 -58 39 -58 24 0 71
24 71 36 0 17 3 16 -38 5 -26 -8 -34 -7 -38 4 -9 24 17 88 48 117 29 27 30 48
4 48 -7 0 -20 -8 -29 -18z"/>
<path d="M4445 2891 c-6 -10 -18 -33 -28 -51 -43 -75 -11 -138 61 -118 70 19
98 59 82 119 -9 32 -18 43 -45 55 -45 19 -58 18 -70 -5z m85 -76 c0 -39 -16
-54 -64 -62 -34 -5 -36 -4 -36 21 0 40 26 84 52 88 33 6 48 -10 48 -47z"/>
<path d="M9257 2881 c-18 -16 -42 -45 -52 -65 -16 -29 -17 -37 -6 -50 29 -35
135 -7 147 39 9 38 -21 104 -48 105 -4 0 -22 -13 -41 -29z m53 -36 c7 -8 10
-22 6 -30 -7 -18 -52 -37 -80 -33 -18 3 -17 6 13 41 37 41 43 44 61 22z"/>
<path d="M9855 2880 c-22 -10 -48 -21 -58 -24 -23 -7 -52 -69 -43 -93 7 -16
11 -13 37 19 32 39 96 84 106 74 3 -3 1 -28 -4 -56 -8 -39 -7 -52 3 -61 16
-13 19 -8 32 76 15 91 4 101 -73 65z"/>
<path d="M13376 2878 c-3 -13 -7 -32 -8 -43 -3 -19 -52 -45 -63 -33 -11 10 8
40 31 49 28 10 31 27 7 36 -24 9 -75 -51 -71 -85 3 -24 7 -27 45 -27 l42 0 6
-69 c8 -79 2 -89 -64 -100 -45 -7 -81 -44 -81 -83 0 -28 50 -83 75 -83 28 0
74 55 87 103 l12 46 48 -6 c34 -4 48 -2 48 6 0 7 5 9 12 5 6 -4 8 -3 5 3 -4 6
-27 13 -52 16 -25 2 -48 6 -50 8 -7 8 -7 175 0 227 6 44 5 52 -9 52 -8 0 -18
-10 -20 -22z m-26 -332 c-21 -65 -68 -88 -91 -45 -19 36 3 66 53 77 24 5 45 7
46 6 2 -1 -1 -19 -8 -38z"/>
<path d="M7832 2875 c-29 -21 -62 -86 -62 -124 0 -41 41 -87 86 -95 19 -4 41
-3 47 3 7 5 16 9 22 9 5 0 11 5 13 11 2 6 -17 9 -49 9 -43 -1 -55 2 -70 21
-11 13 -19 32 -19 43 0 52 59 123 83 99 7 -7 0 -20 -23 -41 -23 -22 -30 -34
-23 -41 8 -8 22 -1 49 24 35 32 38 38 29 64 -12 34 -49 42 -83 18z"/>
<path d="M10157 2884 c-4 -4 -7 -20 -7 -35 0 -18 -7 -32 -19 -39 -23 -12 -71
-14 -71 -2 0 16 18 33 36 36 24 4 25 30 2 34 -22 4 -68 -41 -68 -67 0 -11 11
-28 25 -37 24 -15 29 -15 65 -1 l40 15 0 -33 c0 -29 -40 -158 -52 -171 -3 -2
-26 0 -53 5 -57 11 -85 1 -108 -39 -32 -54 -16 -120 29 -120 37 0 79 25 110
65 19 26 34 35 55 35 33 0 41 27 9 32 -18 3 -19 5 -6 29 36 69 48 130 42 207
-5 72 -15 100 -29 86z m-80 -332 c25 -16 -72 -100 -103 -88 -12 5 -15 14 -10
38 3 17 11 37 17 45 12 14 76 18 96 5z"/>
<path d="M13134 2867 c-16 -13 -34 -22 -41 -20 -7 3 -16 -12 -23 -36 -6 -22
-15 -43 -20 -46 -15 -9 -12 -45 3 -45 7 0 21 16 31 35 21 39 82 105 96 105 16
0 12 -28 -10 -70 -21 -41 -26 -80 -11 -80 16 0 62 113 59 145 -4 40 -43 46
-84 12z"/>
<path d="M5200 2860 c-11 -11 -26 -17 -34 -14 -10 4 -23 -10 -40 -45 -47 -92
-22 -113 38 -32 20 26 43 54 52 62 15 12 16 8 9 -47 -5 -49 -4 -63 9 -73 9 -8
16 -12 17 -10 5 26 8 139 4 157 -7 27 -29 28 -55 2z"/>
<path d="M5409 2863 c-8 -2 -23 -17 -33 -33 -13 -24 -15 -34 -6 -51 10 -17 19
-20 48 -17 21 3 45 8 55 12 15 7 17 0 17 -80 0 -125 -4 -134 -52 -134 -76 0
-118 -41 -118 -116 0 -48 16 -74 45 -74 33 0 94 56 117 108 16 36 23 42 51 43
56 2 62 4 65 19 2 12 -7 14 -44 12 -46 -4 -46 -4 -40 24 3 16 8 89 11 162 5
110 4 132 -8 132 -8 0 -20 -13 -26 -29 -18 -42 -91 -71 -91 -35 0 9 9 18 20
21 34 9 24 44 -11 36z m55 -342 c8 -12 -49 -98 -74 -111 -28 -15 -40 -5 -40
36 0 45 37 84 79 84 16 0 32 -4 35 -9z"/>
<path d="M8521 2856 c-7 -8 -9 -31 -5 -59 5 -32 3 -52 -6 -62 -10 -12 -10 -19
-1 -28 8 -8 22 1 56 38 l44 50 1 -31 c0 -50 25 -50 80 2 l49 45 3 -28 c3 -32
41 -45 51 -19 4 10 1 16 -8 16 -10 0 -15 10 -15 29 0 16 -7 34 -16 42 -13 11
-22 5 -65 -42 l-50 -54 4 33 c6 50 -15 59 -56 22 -35 -30 -65 -41 -50 -17 10
16 13 66 3 72 -4 3 -13 -1 -19 -9z"/>
<path d="M4994 2847 c-9 -26 -9 -96 1 -97 11 -1 37 89 29 102 -8 12 -24 10
-30 -5z"/>
<path d="M8097 2821 c-42 -47 -53 -80 -37 -111 25 -46 111 -50 106 -4 -4 35
-12 39 -42 19 -22 -14 -28 -15 -35 -4 -12 19 -12 19 12 58 11 18 29 35 40 38
11 3 19 12 17 21 -6 28 -25 23 -61 -17z"/>
<path d="M8339 2853 c-1 -5 -1 -11 -1 -14 1 -3 -12 -19 -28 -34 -36 -35 -37
-49 -5 -80 26 -27 68 -32 109 -14 31 15 39 44 21 85 -16 39 -92 84 -96 57z
m53 -50 c10 -9 18 -26 18 -38 0 -37 -55 -48 -85 -18 -16 15 -15 18 12 44 34
33 32 33 55 12z"/>
<path d="M9601 2817 c-13 -38 -6 -67 15 -67 9 0 14 11 14 28 0 15 3 37 6 50
10 37 -23 27 -35 -11z"/>
<path d="M12934 2820 c-4 -16 -17 -36 -30 -45 -28 -18 -23 -35 10 -35 24 0 38
22 52 83 5 21 3 27 -10 27 -10 0 -19 -11 -22 -30z"/>
<path d="M12172 2788 c-18 -18 -15 -40 6 -36 9 2 18 13 20 26 4 24 -7 29 -26
10z"/>
<path d="M10550 2753 c0 -10 -18 -47 -40 -83 -42 -68 -49 -90 -27 -90 13 1 99
142 101 168 0 9 -7 18 -16 20 -12 2 -18 -3 -18 -15z"/>
<path d="M2412 2723 c2 -10 10 -18 18 -18 22 0 18 29 -3 33 -14 3 -18 -1 -15
-15z"/>
<path d="M6390 2697 c0 -38 -41 -103 -84 -130 -29 -19 -37 -53 -10 -43 29 11
71 51 98 92 30 47 36 114 11 114 -10 0 -15 -10 -15 -33z"/>
<path d="M2084 2679 c-3 -6 -1 -15 6 -19 17 -11 50 0 50 16 0 17 -46 19 -56 3z"/>
</g>
</svg>
