<?xml version="1.0" standalone="no"?>
<!DOCTYPE svg PUBLIC "-//W3C//DTD SVG 20010904//EN"
 "http://www.w3.org/TR/2001/REC-SVG-20010904/DTD/svg10.dtd">
<svg version="1.0" xmlns="http://www.w3.org/2000/svg"
 width="1618.000000pt" height="1214.000000pt" viewBox="0 0 1618.000000 1214.000000"
 preserveAspectRatio="xMidYMid meet">

<g transform="translate(0.000000,1214.000000) scale(0.100000,-0.100000)"
fill="#000000" stroke="none">
<path d="M12335 11663 c-9 -20 -18 -47 -22 -61 -3 -15 -11 -21 -20 -18 -26 10
-118 -51 -142 -94 -27 -49 -23 -81 17 -123 l26 -28 -33 -65 c-18 -35 -30 -71
-27 -79 8 -23 36 -18 36 6 0 12 10 43 22 70 21 45 26 49 57 49 37 0 93 30 116
63 22 31 19 66 -11 124 l-25 52 25 62 c14 34 23 66 20 71 -11 17 -24 7 -39
-29z m-55 -133 c0 -15 -62 -150 -69 -150 -12 0 -28 16 -40 38 -10 19 -9 28 6
55 23 40 103 84 103 57z m60 -75 c13 -39 13 -39 -25 -72 -32 -27 -75 -44 -75
-29 0 17 74 155 80 149 4 -4 13 -26 20 -48z"/>
<path d="M14102 11623 c-11 -21 -25 -55 -31 -75 -12 -37 -13 -38 -52 -32 -48
8 -71 -9 -95 -72 -19 -51 -13 -105 16 -134 19 -19 19 -21 -15 -89 -37 -74 -41
-86 -25 -96 5 -3 27 29 48 72 36 73 41 78 74 81 20 2 49 15 68 31 27 22 34 37
40 78 7 56 -2 91 -27 110 -15 11 -14 18 10 75 15 35 27 69 27 76 0 24 -20 11
-38 -25z m-65 -148 c3 -2 -41 -116 -54 -139 -9 -16 -11 -16 -23 -1 -18 22 -16
87 6 123 15 26 22 30 43 25 15 -3 27 -7 28 -8z m63 -65 c0 -38 -5 -53 -26 -74
-25 -25 -64 -36 -64 -18 0 5 8 26 19 48 10 21 24 56 32 76 17 50 39 33 39 -32z"/>
<path d="M14382 11603 c-36 -31 -37 -64 -3 -107 17 -21 31 -40 31 -41 0 -1
-21 -17 -46 -35 -44 -31 -46 -35 -41 -72 6 -42 31 -78 55 -78 49 0 100 82 88
143 -6 27 -1 36 34 68 58 53 55 91 -9 122 -44 22 -83 22 -109 0z m55 -36 c-2
-13 17 -14 45 -2 32 13 33 -23 2 -56 -33 -35 -41 -36 -71 -7 -25 23 -30 57
-12 75 14 14 39 6 36 -10z m3 -184 c0 -13 -13 -37 -29 -55 -32 -36 -45 -32
-56 13 -5 22 0 31 31 57 40 33 54 29 54 -15z"/>
<path d="M14240 11595 c0 -8 -13 -56 -29 -107 -39 -121 -44 -178 -16 -178 10
0 15 10 15 34 0 19 9 62 19 95 10 34 17 61 14 61 -3 0 -1 6 4 13 6 6 13 28 17
48 5 28 3 38 -9 43 -9 3 -15 0 -15 -9z"/>
<path d="M12476 11588 c-78 -250 -102 -365 -75 -356 7 2 19 32 26 67 7 34 28
113 48 175 19 62 35 115 35 119 0 12 -31 7 -34 -5z"/>
<path d="M12892 11565 c-28 -20 -52 -39 -52 -44 0 -18 14 -19 39 -2 14 10 41
26 59 35 l33 17 -7 -28 c-10 -45 -72 -129 -117 -158 -61 -40 -87 -66 -87 -87
0 -28 41 -22 78 13 l32 30 0 -38 c0 -46 14 -63 52 -63 34 0 39 27 6 32 -21 3
-23 7 -20 62 2 49 8 66 41 112 43 60 59 117 40 140 -18 22 -40 17 -97 -21z"/>
<path d="M13118 11559 c-45 -29 -57 -47 -42 -62 3 -3 27 10 54 29 26 19 52 34
59 34 38 0 -24 -143 -93 -215 -58 -61 -71 -84 -57 -98 10 -9 20 -3 49 31 20
23 42 42 47 42 6 0 24 -17 41 -37 21 -25 36 -34 47 -30 20 7 23 27 5 27 -7 1
-22 15 -34 33 -11 18 -28 31 -38 31 -16 -2 -16 -1 1 25 68 103 89 168 66 200
-20 29 -50 26 -105 -10z"/>
<path d="M13740 11553 c-42 -7 -100 -35 -100 -50 0 -16 14 -17 43 -1 29 15 97
27 97 17 0 -5 -9 -33 -20 -63 -21 -54 -85 -126 -113 -126 -8 0 -23 -10 -34
-22 -64 -71 -40 -105 30 -42 l42 39 3 -28 c6 -51 82 -80 82 -31 0 23 -3 25
-25 20 -23 -6 -25 -4 -25 30 0 25 9 49 26 72 33 42 64 122 64 162 0 32 -6 34
-70 23z"/>
<path d="M13333 11315 c-3 -9 -2 -19 1 -23 8 -8 38 10 44 26 6 18 -38 14 -45
-3z"/>
<path d="M12537 11313 c-14 -13 -6 -23 18 -23 16 0 25 6 25 15 0 15 -31 21
-43 8z"/>
<path d="M9002 11238 c-8 -8 -8 -15 -2 -24 13 -15 -26 -140 -80 -258 -22 -47
-40 -91 -40 -96 0 -21 23 -8 67 36 49 48 91 80 98 73 2 -3 -1 -24 -7 -47 -12
-47 -4 -92 15 -92 9 0 14 16 15 48 1 26 3 63 5 82 2 29 -2 36 -20 38 -12 2
-40 -9 -63 -23 l-41 -26 14 28 c25 48 77 213 77 244 0 30 -17 38 -38 17z"/>
<path d="M9594 11232 c-5 -4 -9 -32 -10 -62 0 -30 -8 -72 -17 -94 l-17 -39
-75 5 c-58 4 -75 2 -75 -8 0 -15 24 -22 85 -26 22 -2 39 -7 38 -13 -2 -5 -12
-36 -24 -69 -22 -65 -19 -103 6 -70 8 10 15 26 15 34 0 8 11 38 24 67 23 50
26 52 68 55 43 3 53 23 11 23 -33 1 -36 9 -20 57 24 71 30 135 14 141 -8 3
-18 2 -23 -1z"/>
<path d="M2697 11223 c-6 -10 -22 -91 -37 -189 -8 -52 -23 -92 -53 -145 -65
-113 -90 -117 -127 -20 -15 41 -28 61 -39 61 -9 0 -40 -21 -69 -46 -28 -25
-52 -40 -52 -34 0 6 29 80 65 164 67 158 75 190 50 200 -16 6 -128 -50 -180
-90 -18 -13 -37 -24 -43 -24 -7 0 -12 -7 -12 -15 0 -26 25 -17 115 40 89 56
111 65 102 43 -3 -7 -33 -78 -67 -157 -36 -85 -60 -154 -58 -170 4 -37 36 -38
73 -4 76 71 71 70 90 14 18 -55 56 -93 83 -84 57 20 129 141 154 258 9 44 22
98 28 120 17 60 17 79 -2 83 -9 2 -18 -1 -21 -5z"/>
<path d="M4187 11213 c-2 -4 -5 -22 -5 -40 0 -17 -15 -82 -32 -144 -34 -123
-36 -182 -7 -187 16 -3 17 1 12 30 -4 23 4 69 25 146 34 122 42 192 23 199 -6
2 -13 0 -16 -4z"/>
<path d="M9296 11188 c-2 -7 -14 -46 -27 -85 -22 -70 -25 -73 -59 -79 -53 -8
-62 -13 -57 -27 2 -7 16 -11 35 -9 18 2 32 2 32 0 0 -2 -9 -27 -20 -56 -11
-29 -20 -62 -20 -73 0 -37 22 -14 45 46 35 95 35 95 64 95 25 0 61 29 61 50 0
17 -38 11 -49 -7 -22 -40 -19 -2 4 66 14 40 23 76 20 82 -9 13 -25 11 -29 -3z"/>
<path d="M4039 11188 c0 -1 -2 -30 -3 -63 -2 -33 -15 -102 -30 -152 -26 -90
-30 -131 -13 -136 8 -2 41 106 68 225 13 56 9 120 -8 126 -7 2 -13 2 -14 0z"/>
<path d="M7964 11166 c6 -24 -16 -91 -84 -260 -30 -74 -33 -106 -11 -106 6 0
14 12 17 28 4 15 26 74 49 132 58 143 68 177 61 206 -4 13 -14 24 -22 24 -12
0 -15 -6 -10 -24z"/>
<path d="M5355 11160 c-4 -7 -9 -27 -11 -45 -1 -18 -21 -89 -44 -158 -41 -124
-47 -176 -22 -185 8 -2 12 7 12 26 0 16 18 83 39 148 22 66 42 136 46 156 8
40 -6 80 -20 58z"/>
<path d="M7202 11113 c2 -10 10 -18 18 -18 22 0 18 29 -3 33 -14 3 -18 -1 -15
-15z"/>
<path d="M3862 11104 c4 -21 22 -23 26 -1 2 10 -3 17 -13 17 -10 0 -15 -6 -13
-16z"/>
<path d="M4754 11036 c-28 -13 -55 -29 -59 -35 -3 -7 5 -27 19 -46 28 -36 34
-83 14 -103 -19 -19 -28 -14 -28 14 0 31 -24 28 -28 -5 -7 -49 53 -70 82 -29
23 33 20 100 -5 132 l-21 26 34 14 c18 7 41 16 51 20 19 6 19 27 1 32 -5 2
-32 -8 -60 -20z"/>
<path d="M7732 11040 c-32 -13 -92 -60 -92 -72 0 -6 -14 -39 -31 -74 -16 -35
-27 -69 -24 -74 3 -6 1 -10 -4 -10 -15 0 -61 -94 -61 -125 0 -47 26 -25 69 57
41 80 44 82 75 80 25 -3 44 5 77 30 87 67 113 138 63 177 -29 23 -38 24 -72
11z m68 -57 c0 -39 -90 -133 -127 -133 -47 0 -1 124 56 152 38 19 71 10 71
-19z"/>
<path d="M9825 11030 c-16 -11 -42 -36 -56 -55 -16 -21 -30 -32 -34 -26 -8 14
-45 14 -45 2 0 -6 4 -12 8 -15 14 -9 1 -68 -13 -62 -20 7 -25 -3 -15 -30 7
-18 1 -45 -25 -113 -39 -101 -41 -111 -20 -111 18 0 35 33 64 122 16 47 26 65
36 62 36 -14 153 73 186 138 25 49 19 85 -17 98 -33 13 -34 13 -69 -10z m70
-48 c-20 -53 -101 -131 -153 -147 -20 -6 -21 -4 -12 19 16 44 56 101 94 134
31 27 40 30 57 21 14 -7 18 -16 14 -27z"/>
<path d="M3453 10994 c-80 -43 -101 -64 -67 -64 9 0 45 16 81 37 72 40 72 40
16 -49 -26 -43 -30 -86 -8 -94 8 -3 42 12 76 35 34 23 65 41 69 41 4 0 13 -13
19 -30 14 -41 36 -38 67 10 33 50 46 140 20 140 -11 0 -16 -9 -16 -30 0 -36
-25 -100 -38 -100 -5 0 -12 9 -15 20 -8 31 -48 25 -107 -15 -29 -20 -55 -34
-57 -32 -2 2 15 35 37 73 68 117 52 130 -77 58z"/>
<path d="M6962 10992 c-57 -29 -58 -32 -31 -99 12 -30 11 -34 -11 -58 -24 -25
-24 -25 -35 -5 -13 24 -25 16 -25 -16 0 -51 58 -42 96 16 l26 39 -20 40 -21
39 50 21 c27 12 49 28 49 36 0 21 -17 18 -78 -13z"/>
<path d="M2756 10979 c-19 -17 -41 -42 -48 -57 -17 -34 -7 -101 18 -119 35
-25 181 -8 171 21 -3 6 -11 9 -18 7 -42 -12 -120 -12 -134 -1 -22 18 -18 40 5
40 29 0 76 26 84 45 11 30 6 62 -12 78 -24 22 -26 22 -66 -14z m54 -28 c0 -20
-35 -51 -57 -51 -20 0 -16 21 9 47 26 28 48 30 48 4z"/>
<path d="M4918 10999 c-31 -17 -68 -93 -68 -136 0 -34 6 -46 31 -68 31 -26 59
-30 66 -9 2 5 -11 17 -29 25 -55 24 -49 96 13 155 16 15 29 31 29 36 0 11 -21
10 -42 -3z"/>
<path d="M8081 10974 c-77 -69 -74 -141 6 -163 66 -19 133 -10 133 16 0 12 -8
13 -39 8 -21 -3 -57 -1 -80 5 -34 9 -41 15 -41 35 0 16 6 25 15 25 23 0 95 39
101 55 8 21 -14 55 -36 55 -11 0 -38 -16 -59 -36z m67 -9 c-2 -1 -19 -10 -38
-19 l-35 -17 28 26 c16 14 33 23 38 19 6 -3 9 -7 7 -9z"/>
<path d="M5464 10980 c-31 -12 -74 -72 -80 -112 -13 -76 52 -146 117 -128 41
12 114 63 114 80 0 8 -11 17 -24 18 -16 3 -22 -1 -19 -10 6 -17 -59 -57 -93
-58 -30 0 -55 23 -64 61 -6 24 -3 27 37 37 56 14 83 42 74 76 -8 31 -34 46
-62 36z m26 -48 c0 -11 -11 -24 -25 -30 -41 -19 -48 -14 -25 18 24 34 50 40
50 12z"/>
<path d="M7293 10951 c-23 -16 -44 -35 -48 -41 -3 -5 -10 -8 -15 -5 -4 3 -13
-2 -20 -10 -7 -8 -9 -15 -5 -15 4 0 0 -11 -9 -25 -18 -27 -21 -55 -7 -55 5 0
28 23 50 52 39 48 100 102 108 94 2 -2 -1 -15 -7 -30 -24 -65 -8 -71 57 -21
25 19 49 35 54 35 4 0 9 -17 11 -37 2 -26 8 -38 18 -38 11 0 14 10 12 40 -6
81 -21 92 -77 55 l-30 -20 -5 23 c-8 32 -40 32 -87 -2z"/>
<path d="M3804 10943 c-3 -16 -10 -40 -14 -55 -9 -28 4 -48 20 -32 12 12 30
96 24 106 -10 16 -24 7 -30 -19z"/>
<path d="M6383 10946 c-34 -29 -68 -98 -60 -120 9 -23 49 -19 91 9 l36 24 0
-33 c0 -37 30 -72 55 -63 22 9 19 24 -6 30 -19 5 -21 11 -16 44 3 21 9 48 13
61 9 32 -25 30 -57 -4 -22 -23 -69 -54 -84 -54 -8 0 22 56 41 74 9 10 24 14
35 11 24 -8 39 23 18 36 -22 14 -35 11 -66 -15z"/>
<path d="M5048 10940 c-9 -6 -22 -26 -28 -45 -10 -30 -9 -40 4 -60 19 -29 60
-33 92 -11 18 13 22 13 38 -6 13 -14 21 -17 28 -10 8 8 8 15 -1 26 -8 9 -10
31 -5 66 6 42 4 52 -7 48 -7 -2 -17 -18 -21 -36 -9 -34 -51 -72 -79 -72 -14 0
-19 7 -19 30 0 35 27 54 65 44 18 -4 25 -2 25 9 0 26 -58 36 -92 17z"/>
<path d="M7104 10923 c-3 -16 -12 -46 -20 -68 -17 -50 -17 -55 0 -55 15 0 40
54 50 113 6 29 4 37 -8 37 -9 0 -18 -12 -22 -27z"/>
<path d="M8484 10415 c-6 -15 -5 -23 15 -100 13 -51 14 -189 1 -236 -14 -50
-41 -71 -99 -77 -60 -5 -77 14 -56 65 16 37 93 87 120 77 13 -5 16 -2 13 12
-5 29 -39 28 -90 -5 -77 -49 -106 -116 -71 -160 38 -47 161 -21 199 42 23 40
32 218 14 287 -7 25 -14 60 -17 78 -5 34 -20 42 -29 17z"/>
<path d="M14015 10388 c-37 -13 -82 -53 -102 -92 -13 -25 -42 -155 -43 -193 0
-8 -15 -13 -41 -13 -33 0 -40 -3 -37 -17 3 -14 12 -17 40 -15 28 2 38 -2 42
-15 9 -29 9 -116 1 -140 -10 -31 10 -30 30 1 13 20 14 36 7 91 l-9 67 38 -5
c45 -6 75 16 37 27 -13 3 -35 6 -50 6 -25 0 -26 2 -22 38 19 133 40 186 89
218 28 18 104 23 143 10 17 -7 22 -5 22 8 0 32 -82 46 -145 24z"/>
<path d="M6357 10363 c-13 -12 -7 -33 9 -33 15 0 16 -11 11 -87 -3 -49 -8 -95
-12 -105 -5 -11 -24 -18 -66 -23 -43 -5 -59 -11 -59 -22 0 -13 9 -15 56 -9
l56 6 -6 -32 c-16 -94 -18 -116 -6 -123 17 -10 18 -6 31 79 10 69 14 79 37 87
15 6 46 7 70 4 38 -5 43 -4 40 12 -2 14 -15 19 -60 21 l-56 3 5 97 c5 84 3
100 -11 115 -19 18 -29 21 -39 10z"/>
<path d="M9560 10338 c-1 -1 -2 -23 -4 -48 -2 -25 -9 -64 -15 -87 -14 -50 -34
-59 -117 -49 -44 5 -54 3 -54 -8 0 -19 56 -30 116 -23 l44 5 0 -52 c0 -113 37
-166 116 -166 49 0 94 14 94 30 0 7 -19 9 -59 4 -36 -4 -66 -2 -79 5 -25 13
-42 67 -42 133 l0 46 73 12 c39 6 81 14 92 18 11 3 28 6 37 7 24 2 34 13 22
24 -5 5 -36 4 -74 -4 -36 -7 -84 -16 -106 -19 l-41 -6 14 62 c16 68 14 109 -4
116 -7 2 -13 2 -13 0z"/>
<path d="M7456 10308 c-9 -27 -30 -265 -28 -307 3 -57 6 -61 51 -61 85 0 185
122 139 168 -26 26 -70 14 -116 -34 l-44 -46 7 68 c3 38 11 99 16 136 6 37 8
72 4 78 -9 14 -25 13 -29 -2z m144 -230 c0 -36 -76 -108 -115 -108 -14 0 -13
5 7 41 13 23 34 50 47 60 27 21 61 25 61 7z"/>
<path d="M4659 10258 c-7 -13 -8 -23 -2 -25 10 -4 0 -132 -17 -200 -12 -51
-13 -93 -1 -93 4 0 25 25 45 55 20 30 43 55 52 55 11 0 14 -5 9 -17 -4 -10 -9
-42 -12 -70 -5 -45 -3 -53 11 -53 11 0 16 9 16 28 0 15 5 44 11 65 5 21 7 47
4 57 -8 25 -51 27 -78 3 -19 -18 -20 -17 -14 37 20 177 20 180 4 180 -9 0 -22
-10 -28 -22z"/>
<path d="M2170 10210 c-27 -27 -25 -58 5 -102 29 -42 34 -105 10 -114 -9 -4
-29 -1 -46 6 -29 12 -31 16 -25 52 8 49 -16 53 -31 4 -12 -40 -3 -60 37 -81
96 -49 150 44 84 144 -21 33 -25 47 -17 59 15 25 39 26 63 2 17 -17 21 -18 26
-5 9 23 -25 55 -58 55 -15 0 -37 -9 -48 -20z"/>
<path d="M2922 10187 c-6 -7 -18 -57 -26 -111 -8 -53 -17 -100 -20 -103 -12
-13 -54 40 -66 83 -15 51 -36 75 -46 50 -3 -9 -2 -22 4 -29 5 -6 13 -27 17
-44 8 -40 56 -93 83 -93 32 0 43 24 60 131 l15 101 39 -6 c29 -5 38 -3 38 8 0
25 -79 36 -98 13z"/>
<path d="M2646 10165 c-20 -7 -44 -21 -51 -32 -17 -23 -36 -125 -25 -137 13
-13 30 3 30 28 0 82 33 121 101 119 21 -1 41 2 44 7 14 22 -50 32 -99 15z"/>
<path d="M2388 10153 c-37 -45 -54 -88 -47 -125 9 -56 34 -78 85 -78 49 0 97
18 91 34 -3 6 -11 9 -18 7 -43 -14 -97 -12 -112 4 -22 21 -22 55 -1 55 25 0
73 32 80 53 7 24 -21 67 -45 67 -10 0 -25 -8 -33 -17z m46 -28 c3 -8 -4 -21
-17 -30 -32 -23 -39 -18 -22 15 17 33 30 38 39 15z"/>
<path d="M3354 10150 c-27 -11 -70 -66 -79 -102 -4 -15 -13 -29 -21 -32 -10
-4 -11 -12 -3 -36 16 -45 35 -37 43 16 7 58 40 112 74 125 14 6 43 7 64 4 30
-5 38 -4 38 8 0 25 -72 35 -116 17z"/>
<path d="M12149 10145 c-15 -8 -29 -21 -33 -30 -7 -19 8 -59 34 -93 11 -13 20
-29 20 -33 0 -15 -43 -10 -62 8 -14 12 -21 14 -30 5 -24 -24 49 -66 95 -54 36
9 38 37 7 83 -16 24 -30 52 -30 61 0 23 36 41 65 34 27 -7 45 12 24 25 -21 13
-60 10 -90 -6z"/>
<path d="M7722 10133 c-16 -13 -24 -34 -28 -75 -8 -69 -1 -96 21 -78 10 8 15
31 15 70 0 56 1 58 31 64 18 3 29 11 27 18 -7 20 -43 21 -66 1z"/>
<path d="M7970 10141 c0 -5 -16 -19 -35 -31 -39 -24 -68 -70 -63 -102 2 -12
15 -30 30 -41 22 -17 33 -19 54 -11 59 20 93 118 60 169 -16 24 -46 35 -46 16z
m26 -56 c9 -22 -15 -84 -37 -95 -23 -13 -59 3 -59 26 0 18 62 84 79 84 7 0 14
-7 17 -15z"/>
<path d="M8641 10115 c-24 -28 -31 -45 -31 -79 0 -77 54 -117 136 -101 52 9
36 28 -25 29 -65 1 -85 22 -78 79 7 48 32 77 69 77 18 0 28 5 28 15 0 10 -10
15 -34 15 -26 0 -41 -8 -65 -35z"/>
<path d="M9197 10135 c-27 -13 -42 -39 -34 -58 3 -9 28 -27 54 -41 26 -13 57
-31 68 -39 19 -15 18 -16 -19 -23 -25 -4 -46 -3 -59 5 -24 15 -35 6 -21 -17
14 -22 57 -27 111 -12 64 18 58 41 -27 90 -38 22 -71 44 -74 49 -8 13 43 32
68 25 30 -7 43 12 18 25 -22 12 -57 10 -85 -4z"/>
<path d="M3104 10130 c-28 -11 -82 -75 -90 -106 -11 -44 19 -91 66 -104 46
-12 80 -6 80 16 0 10 -13 14 -45 14 -37 0 -47 4 -62 26 -15 24 -15 27 -1 35 9
5 14 17 11 27 -5 21 52 76 68 66 17 -10 9 -24 -26 -41 -19 -9 -35 -20 -35 -24
0 -19 22 -18 59 2 45 23 54 54 25 83 -17 18 -20 18 -50 6z"/>
<path d="M6570 10131 c0 -5 18 -27 41 -49 24 -24 39 -49 37 -59 -4 -19 -60
-35 -95 -26 -29 7 -30 39 -2 54 14 7 18 14 11 21 -27 27 -77 -27 -65 -71 11
-44 139 -52 175 -10 22 26 9 66 -37 115 -30 32 -65 45 -65 25z"/>
<path d="M11954 10127 c-31 -16 -54 -50 -54 -80 0 -26 8 -37 55 -71 19 -15 19
-15 -7 -16 -15 0 -38 4 -52 10 -40 15 -34 -17 7 -36 25 -12 38 -13 60 -5 44
17 46 40 4 75 -20 17 -37 38 -37 47 0 20 26 44 63 58 15 6 27 15 27 20 0 12
-42 11 -66 -2z"/>
<path d="M12409 10090 c-46 -48 -50 -82 -14 -106 23 -15 29 -15 70 -2 42 14
45 14 45 -2 0 -19 43 -70 59 -70 23 0 21 22 -4 42 -24 19 -26 25 -20 69 4 27
4 49 0 49 -4 0 -23 -13 -42 -30 -36 -32 -103 -43 -103 -17 0 21 59 72 83 72
33 0 27 29 -6 33 -23 3 -37 -5 -68 -38z"/>
<path d="M8108 10093 c-35 -36 -49 -74 -37 -96 12 -21 64 -22 99 -2 32 18 40
18 40 2 0 -8 9 -22 20 -32 18 -16 20 -16 26 -1 3 9 2 22 -4 29 -6 7 -12 35
-14 62 -2 39 -7 50 -20 50 -9 0 -20 4 -24 8 -17 16 -61 6 -86 -20z m73 -19
c11 -14 10 -20 -14 -40 -55 -47 -92 -19 -42 31 28 29 38 31 56 9z"/>
<path d="M11345 10109 c-11 -7 -28 -21 -38 -33 l-18 -21 3 25 c2 17 -2 26 -14
28 -16 3 -18 -5 -18 -55 0 -37 -6 -67 -16 -81 -9 -13 -13 -30 -10 -39 9 -23
34 1 58 57 20 46 54 90 71 90 5 0 7 -22 5 -50 -3 -31 0 -57 7 -67 11 -15 15
-14 49 12 20 15 36 30 36 34 1 3 11 19 25 35 l23 29 11 -41 c13 -45 58 -89 74
-73 7 7 2 18 -15 34 -15 14 -28 40 -33 65 -3 22 -13 47 -22 54 -13 10 -19 8
-37 -17 -11 -17 -34 -45 -51 -64 l-30 -35 -5 60 c-5 63 -17 74 -55 53z"/>
<path d="M11709 10089 c-59 -63 -60 -151 -3 -178 33 -15 42 -14 60 4 14 13 13
15 -10 15 -31 0 -69 34 -64 58 2 11 14 17 37 18 18 1 40 9 48 17 30 29 12 97
-24 97 -8 0 -28 -14 -44 -31z m51 -23 c0 -16 -7 -26 -22 -29 -32 -9 -35 0 -8
28 29 31 30 31 30 1z"/>
<path d="M12704 10086 c-57 -57 -42 -121 28 -114 24 2 38 11 53 35 11 18 23
32 26 33 20 1 74 -222 63 -264 -5 -20 -10 -22 -64 -18 -52 4 -61 2 -84 -21
-34 -34 -42 -72 -25 -121 11 -33 19 -42 42 -44 40 -5 127 62 143 111 4 12 12
15 30 11 30 -8 34 21 4 31 -17 5 -19 12 -14 48 10 78 -44 273 -91 322 -32 36
-70 32 -111 -9z m86 -1 c0 -3 -9 -24 -21 -46 -15 -31 -25 -40 -42 -37 -31 4
-33 33 -3 63 22 22 66 35 66 20z m59 -364 c21 -13 5 -46 -41 -86 -50 -42 -65
-44 -79 -8 -12 32 -5 65 17 87 17 17 80 21 103 7z"/>
<path d="M4941 10097 c-6 -8 -18 -33 -26 -57 -14 -39 -14 -46 0 -67 9 -13 25
-23 40 -23 27 0 65 42 65 72 0 27 -26 74 -45 82 -22 8 -21 8 -34 -7z m40 -51
c13 -27 -3 -66 -26 -66 -16 0 -19 28 -9 68 8 29 22 28 35 -2z"/>
<path d="M5316 10060 c5 -41 3 -54 -11 -70 -10 -11 -26 -20 -37 -20 -15 0 -17
5 -12 24 10 42 -5 49 -36 16 -39 -42 -74 -38 -78 7 -2 18 2 41 7 52 8 14 8 22
1 26 -39 24 -57 -96 -20 -130 15 -13 29 -16 59 -11 23 3 42 2 46 -4 12 -20 62
-10 89 16 20 21 26 37 26 70 0 52 -8 74 -26 74 -12 0 -13 -10 -8 -50z"/>
<path d="M8943 10099 c-37 -11 -56 -38 -51 -76 5 -42 29 -50 77 -25 l41 22 0
-24 c0 -49 79 -97 88 -53 3 12 -3 17 -21 17 -28 0 -37 16 -37 68 0 26 -8 44
-24 60 -26 24 -27 24 -73 11z m47 -38 c0 -11 -48 -51 -61 -51 -13 0 -11 34 3
48 14 14 58 16 58 3z"/>
<path d="M10556 10059 c-54 -48 -66 -81 -41 -109 23 -25 51 -25 92 0 l32 19
19 -26 c14 -19 24 -24 37 -19 17 6 16 8 -5 31 -20 21 -22 31 -17 75 6 48 5 51
-19 60 -40 15 -48 13 -98 -31z m76 -20 c-3 -29 -57 -81 -79 -77 -29 6 -24 25
18 67 45 45 66 48 61 10z"/>
<path d="M13030 10068 c-45 -72 -36 -114 30 -148 49 -25 162 -31 199 -11 35
20 12 36 -31 22 -52 -17 -168 9 -190 43 -14 20 -8 26 26 26 45 0 57 16 42 60
-16 49 -49 53 -76 8z m50 -23 c0 -8 -7 -15 -15 -15 -16 0 -20 12 -8 23 11 12
23 8 23 -8z"/>
<path d="M14675 10071 c-16 -31 -74 -81 -93 -81 -7 0 -12 16 -12 39 0 22 -6
44 -15 51 -13 11 -21 6 -52 -26 -22 -23 -44 -38 -55 -36 -13 2 -18 -3 -18 -22
0 -14 -5 -37 -12 -51 -8 -18 -8 -29 -1 -36 8 -8 21 4 46 42 19 30 44 63 56 73
21 19 21 19 21 -7 0 -63 38 -76 95 -32 l32 24 -1 -39 c-1 -57 27 -84 78 -75
22 3 46 11 53 17 22 18 0 29 -33 16 -17 -6 -39 -8 -49 -4 -18 7 -18 13 1 134
5 35 4 42 -9 42 -9 0 -23 -13 -32 -29z"/>
<path d="M14046 10074 c-12 -31 -6 -151 7 -163 21 -17 24 -6 19 74 -4 72 -4
75 17 75 12 0 31 -5 41 -10 13 -7 21 -7 25 0 3 5 1 10 -5 10 -6 0 -9 4 -6 9 8
12 -18 21 -59 21 -21 0 -35 -6 -39 -16z"/>
<path d="M14247 10029 c-75 -56 -59 -145 25 -137 62 6 75 76 25 132 l-22 26
-28 -21z m43 -49 c16 -30 3 -60 -26 -60 -30 0 -40 23 -26 56 14 29 37 31 52 4z"/>
<path d="M3906 9926 c4 -19 -3 -33 -35 -65 -23 -23 -41 -45 -41 -51 0 -23 31
-7 69 36 47 53 57 104 21 104 -17 0 -19 -5 -14 -24z"/>
<path d="M9737 9839 c-42 -35 -70 -84 -88 -153 -13 -53 -18 -55 -124 -59 -55
-2 -70 -5 -70 -17 0 -11 8 -14 30 -12 38 5 31 5 89 3 l49 -1 -6 -37 c-10 -57
-76 -186 -93 -179 -7 3 -16 1 -20 -5 -7 -12 14 -39 32 -39 12 0 86 125 97 165
3 11 11 39 17 63 11 42 11 42 53 40 36 -3 42 0 45 19 3 20 0 21 -38 16 -41 -6
-41 -6 -34 23 4 16 7 35 7 44 0 17 2 20 58 83 23 26 50 47 60 47 11 0 19 7 19
15 0 25 -43 17 -83 -16z"/>
<path d="M10942 9748 c-19 -131 -94 -268 -148 -268 -41 0 -28 34 33 89 55 48
65 69 26 57 -10 -3 -39 -27 -65 -52 -67 -65 -65 -124 4 -124 66 0 142 112 173
255 9 44 21 88 26 97 13 25 12 28 -14 28 -21 0 -24 -7 -35 -82z"/>
<path d="M8927 9803 c-4 -3 -7 -13 -7 -21 0 -9 -23 -74 -51 -146 -34 -87 -48
-137 -44 -153 8 -33 29 -24 31 13 1 16 25 89 53 162 28 73 49 137 46 142 -7
12 -19 13 -28 3z"/>
<path d="M3906 9721 c-11 -114 -10 -113 -75 -109 -45 2 -56 0 -56 -12 0 -11
14 -16 52 -18 l52 -3 3 -66 c2 -42 8 -68 16 -71 9 -3 12 14 12 60 l0 64 50 14
c52 14 87 41 76 59 -4 6 -26 0 -57 -15 -28 -14 -52 -24 -55 -22 -2 3 3 42 11
88 15 85 14 92 -9 96 -9 1 -15 -17 -20 -65z"/>
<path d="M7464 9715 l-35 -75 -54 0 c-37 0 -55 -4 -55 -12 0 -10 -3 -9 -9 1
-10 15 -34 5 -28 -12 2 -6 29 -10 71 -8 62 2 68 1 62 -15 -33 -86 -7 -148 67
-159 48 -7 97 8 97 30 0 18 -1 18 -36 5 -36 -14 -92 -2 -105 22 -8 14 -7 34 1
69 l12 49 43 0 c30 0 45 5 49 16 10 26 7 34 -14 34 -11 0 -20 -4 -20 -10 0 -5
-9 -10 -21 -10 -24 0 -20 22 17 87 28 49 30 63 8 63 -9 0 -28 -28 -50 -75z"/>
<path d="M8790 9757 c0 -20 -4 -37 -9 -39 -14 -5 -81 -197 -81 -234 0 -48 23
-40 31 12 4 21 24 82 44 134 40 100 48 150 28 157 -9 3 -13 -7 -13 -30z"/>
<path d="M10257 9763 c-4 -3 -3 -11 3 -18 10 -13 -45 -206 -63 -217 -8 -5 -7
-14 1 -33 15 -32 28 -26 36 19 4 21 19 45 38 61 27 23 38 26 72 21 68 -11 79
-46 35 -109 -17 -23 -18 -28 -5 -33 22 -9 33 2 52 51 23 61 8 100 -47 117 -46
13 -41 24 32 66 27 15 49 33 49 40 0 28 -54 3 -135 -63 -30 -25 -55 -42 -55
-39 0 3 7 30 16 60 9 31 13 62 10 70 -6 15 -28 19 -39 7z"/>
<path d="M5254 9737 c-107 -62 -170 -179 -199 -364 -7 -48 -16 -96 -20 -105
-5 -13 -2 -18 11 -18 14 0 28 22 54 83 19 45 40 98 46 117 6 20 16 34 24 32
28 -7 67 21 111 81 51 68 79 118 79 141 0 40 -62 59 -106 33z m68 -46 c-3 -28
-83 -143 -115 -166 -21 -15 -22 -14 -28 17 -4 18 -9 40 -13 48 -4 9 6 30 26
54 59 72 136 100 130 47z m-186 -156 c-8 -45 -36 -135 -42 -135 -7 0 3 52 23
113 16 51 26 63 19 22z"/>
<path d="M6598 9705 c-16 -9 -29 -21 -29 -28 -3 -30 4 -54 22 -73 27 -29 26
-74 -2 -74 -12 0 -23 8 -26 20 -6 24 -16 25 -34 4 -28 -34 67 -74 99 -42 19
19 14 82 -9 112 -27 34 -19 53 26 62 20 3 34 11 32 18 -6 17 -49 17 -79 1z"/>
<path d="M5459 9671 c-36 -39 -79 -131 -79 -172 0 -37 23 -14 40 39 36 110 97
166 139 128 26 -23 39 -1 15 25 -29 32 -72 25 -115 -20z"/>
<path d="M6330 9686 c-69 -37 -73 -51 -22 -95 23 -20 42 -42 42 -49 0 -16 -47
-16 -53 1 -3 9 -7 9 -17 0 -24 -23 -3 -43 44 -43 35 0 48 5 56 20 14 26 -9 72
-44 88 -14 6 -26 16 -26 21 0 12 66 51 86 51 19 0 13 24 -7 28 -8 1 -34 -8
-59 -22z"/>
<path d="M11895 9691 c-61 -37 -99 -106 -134 -241 -13 -47 -29 -100 -37 -118
-14 -32 -12 -52 6 -52 15 0 52 70 75 142 21 68 24 71 56 75 42 4 99 42 133 86
65 85 -8 164 -99 108z m83 -23 c25 -25 2 -68 -60 -115 -67 -49 -111 -7 -62 59
43 57 96 82 122 56z"/>
<path d="M3587 9672 c-24 -25 -26 -32 -17 -56 5 -15 23 -35 40 -44 53 -30 32
-68 -31 -55 -23 4 -31 12 -36 34 -3 16 -10 29 -15 29 -16 0 -20 -29 -6 -56 22
-46 104 -56 143 -18 22 22 11 52 -34 91 -30 26 -34 35 -25 50 6 10 24 20 40
23 38 7 37 24 -1 28 -23 2 -37 -4 -58 -26z"/>
<path d="M13523 9678 c-19 -21 -20 -28 -11 -75 8 -40 8 -56 -2 -68 -18 -21
-40 -19 -40 5 0 11 -4 20 -10 20 -12 0 -30 -33 -30 -54 0 -22 63 -21 96 1 25
16 26 19 20 85 -7 70 -5 74 32 69 8 -2 12 5 10 16 -5 27 -41 27 -65 1z"/>
<path d="M14056 9685 c-46 -16 -76 -42 -76 -66 0 -11 21 -40 46 -65 25 -26 42
-50 37 -54 -4 -4 -27 -10 -50 -14 -33 -5 -44 -3 -51 10 -11 20 -32 10 -32 -16
0 -32 87 -37 148 -8 33 17 27 44 -23 97 -25 26 -45 51 -45 54 0 11 44 31 83
36 21 4 38 10 38 16 1 18 -37 23 -75 10z"/>
<path d="M13293 9671 c-68 -32 -75 -75 -17 -120 34 -26 27 -34 -31 -34 -31 0
-45 -5 -45 -13 0 -20 42 -27 89 -14 58 15 63 36 17 77 -23 21 -35 40 -32 49 8
21 73 46 98 38 16 -5 19 -2 16 13 -5 25 -44 27 -95 4z"/>
<path d="M3330 9668 c-37 -14 -68 -47 -80 -84 -20 -61 22 -99 79 -70 29 15 29
15 40 -15 9 -25 15 -30 37 -27 32 4 45 28 16 28 -26 0 -34 24 -26 77 5 35 3
43 -9 43 -9 0 -18 -8 -21 -18 -10 -29 -45 -62 -66 -62 -30 0 -26 45 7 78 24
24 28 25 31 9 4 -21 21 -18 36 6 16 26 -11 48 -44 35z"/>
<path d="M10589 9651 c-81 -52 -117 -109 -99 -156 11 -28 39 -38 100 -33 68 5
64 28 -4 28 -63 0 -76 13 -60 58 9 25 85 92 105 92 5 0 9 -11 9 -23 0 -26 -34
-47 -75 -47 -16 0 -25 -6 -25 -15 0 -22 58 -19 98 5 27 17 32 26 32 58 0 34
-14 62 -30 62 -3 0 -26 -13 -51 -29z"/>
<path d="M4420 9642 c-45 -45 -70 -162 -35 -162 19 0 32 30 40 92 7 56 25 70
79 61 43 -7 50 12 10 27 -41 16 -64 12 -94 -18z"/>
<path d="M5863 9659 c-25 -9 -63 -64 -63 -91 0 -26 21 -66 39 -73 28 -12 111
-15 111 -5 0 6 5 9 11 8 6 -2 14 3 17 11 4 11 -4 12 -40 7 -84 -13 -124 24
-93 84 11 21 23 30 40 30 15 0 25 6 25 14 0 19 -20 25 -47 15z"/>
<path d="M6095 9651 c-93 -56 -83 -161 16 -161 43 0 79 14 79 31 0 6 -19 7
-50 3 -55 -7 -80 5 -80 37 0 15 5 18 24 13 13 -3 40 1 60 10 42 18 48 47 14
70 -28 20 -27 20 -63 -3z m31 -36 c-23 -17 -36 -19 -36 -6 0 11 18 19 40 20
11 0 10 -3 -4 -14z"/>
<path d="M7705 9660 c-3 -5 -3 -10 2 -10 4 0 -7 -9 -25 -20 -47 -29 -73 -76
-61 -109 13 -33 26 -41 69 -41 74 0 125 61 101 121 -19 51 -70 85 -86 59z m55
-85 c0 -39 -16 -54 -64 -62 -28 -4 -37 -2 -42 11 -10 25 17 68 49 80 15 6 27
14 27 19 0 5 7 4 15 -3 8 -7 15 -27 15 -45z"/>
<path d="M8523 9650 c-42 -25 -73 -68 -73 -100 0 -39 22 -55 59 -42 27 9 30 8
35 -14 6 -24 46 -36 46 -14 0 6 -4 10 -10 10 -17 0 -11 25 21 84 16 32 29 65
27 74 -4 23 -68 25 -105 2z m44 -52 c-11 -27 -58 -68 -79 -68 -5 0 -8 9 -8 21
0 26 52 79 78 79 18 0 19 -3 9 -32z"/>
<path d="M13729 9641 c-79 -49 -100 -103 -60 -152 17 -21 28 -24 78 -23 64 1
112 19 95 36 -6 6 -23 6 -48 -1 -54 -15 -68 -14 -94 7 -35 28 -20 62 28 62 20
0 52 9 70 20 27 16 33 26 30 48 -4 39 -41 40 -99 3z m52 -21 c-21 -18 -51 -27
-51 -15 0 6 53 34 65 34 6 0 -1 -9 -14 -19z"/>
<path d="M2974 9639 c-10 -12 -29 -25 -41 -30 -13 -5 -23 -17 -23 -28 0 -11
-10 -41 -22 -66 -16 -33 -19 -48 -11 -56 8 -8 21 8 48 59 20 38 47 80 61 93
l24 22 0 -29 c-1 -16 -7 -47 -15 -69 -24 -67 -1 -66 63 3 31 34 60 62 64 62 4
0 8 -28 10 -62 3 -57 5 -63 26 -66 15 -2 22 2 22 12 0 9 -4 16 -10 16 -6 0
-10 30 -10 70 0 66 -1 70 -23 70 -12 0 -39 -16 -60 -36 l-37 -36 0 34 c0 57
-32 75 -66 37z"/>
<path d="M5612 9640 c-95 -58 -86 -163 15 -177 34 -4 45 -1 76 26 44 39 55 80
31 120 -17 28 -51 51 -77 51 -7 0 -27 -9 -45 -20z m93 -44 c32 -49 -26 -117
-87 -100 -48 14 -54 46 -17 89 38 43 80 48 104 11z"/>
<path d="M4170 9637 c-14 -6 -36 -33 -49 -60 -20 -41 -22 -51 -11 -76 21 -51
111 -70 150 -31 24 24 9 26 -26 3 -15 -9 -28 -13 -32 -7 -4 5 -19 15 -34 21
-35 15 -37 43 -4 43 29 0 76 42 76 69 0 19 -24 51 -38 51 -4 0 -18 -6 -32 -13z
m40 -34 c0 -15 -35 -43 -53 -43 -20 0 -20 1 3 25 22 23 50 34 50 18z"/>
<path d="M12105 9636 c-67 -30 -125 -118 -101 -151 17 -24 35 -12 29 19 -7 36
52 97 102 105 21 3 40 12 43 20 3 10 0 12 -12 8 -9 -4 -16 -2 -16 3 0 13 -9
12 -45 -4z"/>
<path d="M13006 9614 c-82 -63 -98 -132 -34 -153 28 -9 55 -9 116 -2 6 0 12 8
12 17 0 12 -8 14 -42 9 -47 -7 -102 8 -96 27 2 6 27 18 56 27 68 22 86 39 73
73 -15 40 -35 40 -85 2z m54 -18 c0 -8 -7 -17 -16 -20 -30 -11 -37 -6 -19 14
21 23 35 26 35 6z"/>
<path d="M2195 9628 c-68 -37 -91 -94 -54 -134 23 -25 71 -32 97 -15 9 5 22 0
39 -17 17 -17 28 -21 35 -14 8 8 6 15 -5 26 -12 12 -14 23 -6 48 8 28 5 36
-19 63 -53 59 -56 60 -87 43z m50 -52 l23 -25 -27 -25 c-30 -29 -62 -33 -80
-12 -14 17 0 51 28 73 23 18 31 16 56 -11z"/>
<path d="M10042 9618 c-23 -26 -62 -118 -62 -148 0 -42 26 -17 43 39 10 33 26
70 37 83 16 20 22 21 39 11 19 -12 51 -8 51 6 0 35 -77 41 -108 9z"/>
<path d="M12217 9604 c-49 -49 -57 -81 -27 -106 27 -22 59 -23 105 -3 40 16
59 54 50 97 -8 33 -9 34 -55 43 -32 6 -39 2 -73 -31z m91 -38 c-4 -36 -45 -62
-84 -52 -31 8 -30 18 6 59 23 27 35 33 55 29 22 -4 26 -9 23 -36z"/>
<path d="M12459 9603 c-60 -51 -78 -128 -37 -157 12 -9 41 -16 64 -16 33 0 45
5 58 25 20 30 20 35 2 35 -8 0 -16 -7 -20 -15 -5 -15 -51 -20 -80 -9 -9 3 -16
16 -16 28 0 31 46 94 72 98 29 4 34 24 8 31 -13 3 -31 -4 -51 -20z"/>
<path d="M9788 9571 c-52 -53 -59 -80 -28 -111 24 -24 32 -25 76 -4 44 21 64
50 64 91 0 34 -29 73 -52 73 -7 0 -34 -22 -60 -49z m80 -20 c6 -39 -58 -91
-84 -69 -18 13 -5 45 28 74 35 29 52 27 56 -5z"/>
<path d="M15105 9463 c-11 -54 -37 -139 -62 -203 -33 -83 -43 -137 -32 -168
13 -35 29 -17 29 33 0 26 12 76 29 117 33 84 71 207 71 232 0 27 -29 18 -35
-11z"/>
<path d="M15237 9405 c-4 -25 -20 -71 -36 -102 -40 -79 -73 -196 -69 -244 4
-59 22 -52 29 11 7 67 32 145 71 223 16 32 30 73 32 91 2 18 6 38 9 43 8 12
-1 23 -18 23 -7 0 -15 -20 -18 -45z"/>
<path d="M6876 9428 c-3 -7 -10 -44 -16 -81 -7 -37 -18 -74 -26 -81 -7 -7 -40
-16 -73 -20 -46 -5 -61 -11 -61 -23 0 -13 9 -15 60 -9 33 4 60 5 60 2 0 -3
-11 -34 -24 -68 -31 -81 -37 -110 -27 -127 13 -21 31 -4 31 29 0 29 44 153 63
177 5 7 24 15 43 19 19 3 37 10 39 15 3 4 11 6 18 4 19 -7 44 12 32 24 -7 7
-28 6 -65 -4 -30 -8 -55 -15 -56 -15 -1 0 5 22 12 49 18 73 21 114 7 118 -7 3
-15 -1 -17 -9z"/>
<path d="M8070 9414 c-34 -29 -82 -116 -99 -182 -12 -43 -20 -48 -86 -54 -18
-2 -30 -9 -30 -18 0 -11 11 -14 46 -12 l45 3 -12 -88 c-22 -149 -23 -153 -44
-153 -27 0 -25 -27 2 -36 15 -4 25 -1 34 11 15 20 34 102 34 145 0 16 5 52 11
80 11 51 11 51 47 48 28 -2 37 1 37 12 0 8 -10 16 -23 18 -35 5 -37 27 -11 94
25 64 88 143 96 121 5 -15 33 -18 33 -4 0 46 -35 53 -80 15z"/>
<path d="M6085 9373 c-20 -146 -15 -136 -68 -149 -26 -7 -56 -10 -67 -7 -14 4
-20 0 -20 -12 0 -15 8 -17 65 -13 55 3 64 2 61 -12 -3 -8 -8 -36 -12 -62 -5
-39 -3 -48 9 -48 11 0 18 19 27 70 l12 70 38 0 c49 0 93 16 84 31 -4 8 -25 9
-62 5 l-54 -6 6 45 c3 25 9 65 12 90 5 37 3 45 -9 45 -11 0 -18 -14 -22 -47z"/>
<path d="M9091 9406 c-6 -7 -18 -51 -26 -97 -26 -150 -66 -257 -102 -277 -23
-13 -71 5 -79 30 -4 15 4 30 32 59 21 21 46 39 56 39 10 0 18 7 18 15 0 30
-46 15 -93 -29 -52 -49 -59 -78 -27 -118 23 -30 69 -42 106 -28 37 15 80 119
115 279 16 75 29 137 29 138 0 8 -19 1 -29 -11z"/>
<path d="M14187 9413 c-4 -3 -7 -22 -7 -41 0 -20 -8 -59 -17 -89 -13 -41 -22
-55 -40 -58 -13 -3 -35 -7 -49 -10 -39 -9 -23 -30 20 -27 35 3 37 2 31 -20 -4
-13 -14 -35 -21 -50 -17 -34 -18 -68 -1 -68 6 0 23 33 37 73 l26 72 44 5 c31
3 45 10 45 20 0 11 -9 14 -37 12 -43 -4 -44 -1 -23 58 24 68 19 150 -8 123z"/>
<path d="M13140 9386 c-5 -15 -10 -35 -10 -44 -1 -9 -9 -39 -19 -67 l-17 -50
-64 -5 c-86 -7 -95 -30 -12 -30 l59 0 -14 -43 c-10 -32 -11 -50 -4 -70 16 -41
31 -32 31 17 0 70 13 94 57 102 21 5 41 7 46 6 4 -1 7 2 7 8 0 13 -46 24 -61
14 -9 -5 -10 -1 -5 17 31 108 38 151 28 161 -8 8 -14 4 -22 -16z"/>
<path d="M2166 9388 c-3 -7 -7 -45 -10 -85 -4 -42 -19 -106 -36 -153 -17 -45
-28 -86 -24 -91 9 -16 24 -10 33 14 23 58 111 150 128 134 3 -4 -2 -27 -11
-51 -20 -53 -18 -121 4 -121 10 0 15 13 16 45 1 25 7 63 14 86 7 23 10 48 7
57 -10 25 -51 20 -88 -10 l-32 -28 6 25 c21 87 27 151 17 170 -12 23 -19 25
-24 8z"/>
<path d="M8652 9379 c-7 -11 -10 -29 -7 -39 3 -11 -8 -72 -26 -137 -37 -137
-41 -176 -18 -181 12 -2 16 5 16 25 0 15 14 82 32 148 33 128 42 196 26 201
-6 2 -16 -5 -23 -17z"/>
<path d="M3646 9295 l-18 -95 -52 -1 c-61 -1 -98 -10 -96 -24 0 -6 27 -9 65
-7 72 4 70 7 55 -68 -10 -53 -4 -90 16 -90 10 0 14 15 15 53 2 91 8 101 64
107 61 6 70 25 13 29 -23 1 -44 3 -45 5 -2 1 4 38 12 81 9 44 13 85 11 92 -12
31 -23 7 -40 -82z"/>
<path d="M11039 9329 c-24 -17 -73 -59 -108 -93 -40 -39 -61 -54 -58 -41 20
77 28 128 23 142 -10 25 -18 10 -42 -88 -13 -49 -30 -104 -39 -122 -9 -17 -19
-58 -22 -90 -6 -54 -5 -59 13 -55 15 2 19 12 20 43 2 47 16 86 38 105 13 10
28 11 64 4 l47 -9 -1 -58 c-1 -32 -6 -63 -13 -70 -16 -16 -14 -37 5 -37 33 0
59 133 34 179 -5 11 -27 21 -52 25 l-43 8 69 63 c38 36 85 72 103 80 32 15 40
34 17 42 -6 2 -30 -11 -55 -28z"/>
<path d="M8468 9343 c-25 -6 -23 -29 3 -36 13 -3 22 0 26 9 7 19 -7 32 -29 27z"/>
<path d="M14392 9329 c-14 -23 2 -36 23 -19 19 15 19 26 2 33 -7 3 -19 -3 -25
-14z"/>
<path d="M5422 9283 c-7 -3 -27 -24 -45 -46 -17 -23 -39 -42 -47 -42 -11 0
-19 -22 -29 -82 -14 -82 -10 -126 10 -106 6 6 24 50 40 99 20 60 40 99 61 121
37 38 44 40 51 13 7 -27 27 -25 27 3 0 38 -29 56 -68 40z"/>
<path d="M15450 9233 c-23 -27 -60 -74 -83 -106 l-41 -58 -23 63 c-12 35 -23
69 -23 76 0 6 -7 12 -15 12 -19 0 -19 -33 0 -70 9 -16 18 -49 21 -72 5 -41 3
-46 -49 -106 -51 -59 -109 -160 -123 -216 -4 -16 -1 -25 10 -29 10 -4 16 -1
16 9 0 34 96 186 179 284 26 30 63 78 83 105 20 28 55 68 77 90 22 22 40 46
41 53 0 25 -30 10 -70 -35z"/>
<path d="M5576 9229 c-33 -26 -67 -91 -68 -132 -1 -40 32 -67 81 -67 46 0 54
7 39 33 -9 17 -8 19 6 14 10 -4 15 -3 11 3 -10 16 -43 12 -53 -6 -14 -25 -52
-9 -52 21 0 19 7 26 28 31 48 10 71 22 88 49 15 23 15 27 0 50 -20 30 -45 32
-80 4z m54 -21 c0 -19 -32 -48 -53 -48 -19 0 -18 3 8 30 30 32 45 38 45 18z"/>
<path d="M5796 9234 c-24 -23 -20 -39 20 -71 39 -32 39 -51 -3 -78 -23 -15
-26 -15 -38 1 -12 17 -13 17 -22 -2 -28 -54 41 -62 93 -10 42 42 43 61 2 103
-25 26 -29 36 -20 45 7 7 12 16 12 20 0 14 -28 9 -44 -8z"/>
<path d="M13883 9239 c-32 -12 -102 -85 -109 -114 -6 -26 9 -55 30 -55 6 0 24
7 40 15 36 19 36 19 36 -3 0 -21 27 -62 41 -62 12 0 12 37 -1 45 -17 11 -11
43 22 109 32 66 32 90 -1 69 -10 -6 -22 -8 -27 -3 -5 4 -19 4 -31 -1z m27 -45
c0 -19 -68 -84 -87 -84 -23 0 -14 23 24 62 39 40 63 48 63 22z"/>
<path d="M8744 9230 c-33 -13 -93 -90 -100 -128 -9 -45 5 -83 34 -98 26 -13
72 -7 69 10 -1 6 4 10 11 8 8 -1 11 2 8 7 -3 5 -24 7 -45 4 -33 -5 -40 -2 -46
16 -3 12 -4 35 0 50 5 25 13 31 45 36 21 3 48 17 60 30 22 23 22 25 6 50 -9
14 -17 25 -19 24 -1 0 -11 -4 -23 -9z m6 -50 c-24 -15 -37 -11 -16 5 11 8 22
12 25 9 3 -3 -1 -9 -9 -14z"/>
<path d="M10250 9218 c0 -53 -21 -96 -58 -122 -21 -14 -41 -26 -45 -26 -4 0
-7 16 -7 35 0 50 -22 54 -73 15 -71 -56 -73 -57 -36 -10 53 66 63 88 48 106
-16 19 -53 18 -98 -5 -43 -23 -65 -46 -57 -60 4 -6 26 2 53 19 75 48 96 37 45
-22 -59 -69 -75 -98 -62 -113 18 -21 21 -20 86 31 58 45 59 45 62 20 7 -58 53
-58 120 1 38 34 43 44 48 96 6 49 4 57 -10 57 -10 0 -16 -8 -16 -22z"/>
<path d="M10645 9226 c-17 -7 -43 -28 -58 -45 -31 -37 -63 -131 -53 -157 9
-24 19 -9 40 60 24 79 61 116 115 116 46 0 54 16 15 30 -14 6 -26 10 -27 10
-1 -1 -16 -7 -32 -14z"/>
<path d="M6556 9215 c-55 -19 -88 -45 -111 -88 -14 -27 -17 -41 -10 -53 16
-24 30 -22 31 6 2 55 50 97 132 115 18 3 32 13 32 21 0 17 -23 17 -74 -1z"/>
<path d="M14770 9214 c-49 -33 -90 -78 -90 -99 0 -47 44 -58 97 -25 l32 19 12
-39 c14 -46 32 -65 55 -56 14 5 13 9 -5 32 -24 31 -27 80 -6 108 8 11 15 26
15 33 0 23 -25 14 -61 -23 -51 -54 -109 -80 -109 -50 0 18 88 86 112 86 25 0
18 24 -8 28 -10 1 -30 -5 -44 -14z"/>
<path d="M2414 9205 c-44 -30 -68 -121 -44 -166 17 -30 75 -26 107 9 31 33 53
81 45 101 -8 26 -55 71 -72 71 -8 0 -25 -7 -36 -15z m74 -67 c4 -34 -43 -90
-72 -86 -31 4 -28 79 4 113 21 22 26 24 44 11 12 -7 22 -25 24 -38z"/>
<path d="M2867 9213 c-4 -3 -7 -28 -7 -55 0 -36 -5 -53 -22 -70 l-23 -23 -5
50 c-4 38 -9 49 -20 47 -8 -2 -16 -7 -18 -12 -2 -5 -28 -28 -58 -51 -69 -53
-81 -45 -55 37 13 37 16 63 10 69 -14 14 -23 -2 -44 -73 -30 -103 8 -130 94
-69 l48 35 14 -31 c19 -43 31 -43 73 -3 36 33 37 37 35 95 -2 58 -7 70 -22 54z"/>
<path d="M3780 9179 c-34 -48 -38 -88 -12 -112 33 -30 81 -19 135 31 44 42 30
89 -33 107 -14 3 -33 9 -42 11 -12 4 -27 -9 -48 -37z m114 -19 c14 -14 0 -38
-36 -60 -64 -39 -102 -3 -57 54 18 23 27 27 53 22 17 -4 34 -10 40 -16z"/>
<path d="M10395 9213 c-11 -2 -30 -6 -42 -9 -34 -7 -73 -71 -73 -121 0 -67 38
-90 99 -59 51 27 76 86 65 156 -6 40 -10 42 -49 33z m17 -50 c5 -62 -36 -127
-77 -121 -33 5 -33 67 0 107 30 35 74 43 77 14z"/>
<path d="M11406 9204 c-20 -20 -48 -116 -44 -151 5 -48 32 -34 33 17 2 66 29
122 57 120 45 -4 52 -1 38 15 -16 20 -64 19 -84 -1z"/>
<path d="M11675 9197 c-48 -27 -55 -55 -25 -97 14 -19 19 -37 15 -51 -9 -26
-39 -21 -43 9 -5 34 -32 28 -32 -8 0 -50 66 -69 94 -28 21 30 20 60 -4 91 -11
14 -20 30 -20 35 0 16 76 42 121 42 60 0 45 24 -17 28 -36 1 -59 -4 -89 -21z"/>
<path d="M12563 9199 c-75 -37 -94 -99 -40 -129 25 -14 30 -13 67 8 30 17 40
19 40 9 0 -18 38 -62 47 -54 3 4 1 19 -6 33 -10 22 -9 35 6 72 17 44 17 45 -6
63 -30 24 -56 24 -108 -2z m81 -18 c7 -10 -30 -51 -66 -75 -26 -17 -58 -13
-58 8 0 36 108 94 124 67z"/>
<path d="M12774 9212 c-6 -4 -17 -30 -24 -58 -15 -61 -2 -108 32 -117 44 -12
140 63 150 117 6 34 -21 28 -35 -7 -15 -34 -70 -77 -100 -77 -25 0 -30 39 -12
89 15 44 10 67 -11 53z"/>
<path d="M14480 9201 c-40 -22 -90 -66 -90 -80 0 -39 138 -127 162 -103 6 6
10 13 7 14 -2 2 -30 16 -62 31 -74 35 -81 52 -36 89 27 24 40 28 67 23 36 -7
41 4 14 28 -22 20 -19 20 -62 -2z"/>
<path d="M13520 9175 c-19 -20 -36 -31 -38 -25 -2 6 1 17 8 24 8 11 8 16 0 21
-19 12 -37 -16 -50 -80 -6 -33 -14 -70 -17 -82 -9 -39 20 -26 45 20 25 48 98
133 86 102 -14 -40 -16 -75 -5 -75 7 0 39 23 72 50 69 57 84 62 74 23 -13 -55
-11 -77 8 -81 14 -3 18 1 15 15 -3 10 2 30 9 45 7 16 11 39 7 53 -9 36 -52 33
-106 -8 l-44 -33 4 33 c4 27 1 33 -15 33 -10 0 -35 -16 -53 -35z"/>
<path d="M6228 9159 c-46 -48 -59 -77 -46 -101 12 -25 44 -22 96 8 25 15 42
22 38 16 -9 -15 11 -62 26 -62 9 0 13 17 14 53 1 28 3 61 5 72 3 13 -1 20 -11
20 -8 0 -23 8 -32 18 -27 26 -47 21 -90 -24z m92 -20 c0 -10 -87 -69 -102 -69
-18 0 -6 27 27 63 30 32 38 36 55 27 11 -6 20 -15 20 -21z"/>
<path d="M8386 9188 c-21 -74 -27 -121 -18 -130 13 -13 39 45 44 98 3 36 -17
62 -26 32z"/>
<path d="M11172 9175 c-17 -14 -34 -35 -37 -46 -4 -10 -11 -17 -16 -14 -5 4
-12 -2 -16 -11 -4 -10 -2 -19 5 -22 7 -2 12 -14 12 -26 0 -32 20 -55 59 -66
29 -8 34 -7 38 10 8 28 1 35 -32 35 -23 0 -31 5 -33 22 -3 17 7 26 53 47 53
24 56 27 53 58 -4 44 -42 50 -86 13z m58 -14 c0 -12 -21 -28 -50 -35 l-25 -7
28 25 c29 26 47 33 47 17z"/>
<path d="M13206 9149 c-61 -72 -57 -129 9 -129 25 0 41 9 69 40 41 46 46 80
14 110 -32 29 -52 25 -92 -21z m84 -24 c0 -25 -51 -76 -74 -73 -27 4 -23 31
10 76 21 27 28 30 45 22 10 -6 19 -17 19 -25z"/>
<path d="M14287 9184 c-4 -4 -7 -15 -7 -25 0 -9 -9 -39 -20 -65 -19 -42 -19
-49 -6 -63 13 -12 16 -12 20 0 2 8 11 34 19 59 9 25 17 56 19 69 3 24 -12 38
-25 25z"/>
<path d="M8147 9138 c-37 -50 -39 -56 -27 -78 13 -25 50 -26 81 -1 24 18 24
18 25 -5 2 -33 11 -54 24 -54 6 0 10 31 10 79 0 73 -2 79 -22 85 -46 12 -67 6
-91 -26z m73 -8 c0 -6 -11 -22 -25 -35 -42 -43 -66 -21 -25 23 22 23 50 30 50
12z"/>
<path d="M6567 8989 c-45 -37 -61 -65 -108 -189 l-36 -95 -40 0 c-22 0 -41 -3
-42 -7 -4 -23 2 -28 34 -28 19 0 35 -3 35 -7 0 -5 -11 -29 -24 -55 -13 -26
-21 -49 -18 -52 16 -17 33 1 54 59 18 53 28 67 48 71 42 9 50 13 50 23 0 5
-13 11 -29 13 l-29 3 35 93 c25 64 48 105 74 132 43 44 69 51 69 19 0 -24 23
-21 28 5 5 23 -16 46 -42 46 -12 0 -38 -14 -59 -31z"/>
<path d="M4967 8983 c-4 -3 -7 -20 -8 -37 0 -17 -10 -69 -22 -116 l-22 -85
-72 -6 c-74 -7 -93 -13 -93 -30 0 -7 27 -8 75 -4 48 4 75 2 75 -4 0 -6 -12
-56 -26 -112 -14 -55 -23 -103 -20 -106 15 -15 33 11 43 63 6 33 18 84 27 114
14 50 19 56 43 55 14 0 28 6 30 13 3 6 -1 12 -9 12 -37 1 -40 15 -19 98 28
109 27 175 -2 145z"/>
<path d="M10666 8968 c-2 -7 -9 -42 -15 -77 -5 -35 -12 -66 -15 -68 -3 -3 -21
-5 -40 -6 -51 -1 -48 -27 3 -27 l38 0 5 -70 c7 -94 26 -122 80 -118 25 2 45
10 52 20 13 21 0 36 -16 20 -17 -17 -53 -15 -68 3 -6 8 -14 41 -17 75 l-6 60
66 0 c76 0 97 6 97 28 0 13 -12 14 -80 8 -88 -7 -87 -8 -71 54 19 74 21 110 5
110 -8 0 -16 -6 -18 -12z"/>
<path d="M3586 8953 c-3 -3 -6 -21 -6 -38 0 -17 -13 -76 -30 -131 -16 -54 -36
-127 -43 -160 -24 -101 4 -109 55 -15 18 33 72 71 101 71 21 0 22 -24 2 -80
-17 -49 -20 -100 -5 -100 6 0 12 6 14 13 2 6 13 43 24 80 26 86 18 117 -28
117 -37 0 -65 -13 -103 -48 l-27 -26 16 55 c8 30 24 83 35 118 10 35 19 80 19
101 0 38 -10 56 -24 43z"/>
<path d="M2877 8943 c-2 -5 -4 -31 -5 -60 -1 -29 -11 -78 -23 -108 -26 -71
-95 -171 -131 -193 -26 -15 -29 -15 -44 0 -32 32 1 116 48 120 14 1 25 8 25
16 0 9 -11 12 -35 10 -43 -4 -71 -38 -79 -97 -5 -35 -2 -46 17 -66 38 -41 71
-33 125 28 25 28 61 82 79 119 34 66 63 194 52 223 -6 16 -22 20 -29 8z"/>
<path d="M13733 8882 c3 -40 2 -74 -2 -76 -4 -3 -36 -1 -71 4 -69 10 -82 7
-73 -15 6 -17 63 -21 63 -4 0 6 7 3 16 -5 8 -9 27 -16 41 -16 22 0 24 -3 18
-30 -9 -43 -10 -133 -1 -148 15 -25 26 1 27 66 1 100 8 116 49 120 38 4 63 19
54 33 -3 5 -22 6 -43 3 l-38 -6 -9 68 c-6 43 -14 69 -23 72 -12 4 -13 -8 -8
-66z"/>
<path d="M9406 8933 c-4 -4 -4 -57 0 -118 7 -101 6 -109 -9 -97 -40 34 -127
-33 -127 -96 0 -52 68 -88 125 -66 34 13 47 62 46 173 -1 58 -4 120 -7 137 -3
19 -1 35 6 39 8 5 8 10 -1 21 -13 16 -22 18 -33 7z m-18 -249 c42 -12 17 -104
-29 -104 -31 0 -59 19 -59 39 0 22 37 71 53 71 7 0 22 -3 35 -6z"/>
<path d="M11030 8926 c0 -14 48 -32 57 -22 3 3 3 12 0 21 -8 19 -57 20 -57 1z"/>
<path d="M13067 8933 c-4 -3 -7 -32 -7 -64 l0 -58 -55 -6 c-40 -5 -55 -12 -55
-23 0 -12 10 -14 54 -8 l53 6 6 -41 c3 -23 3 -55 1 -73 -5 -32 9 -66 22 -53 4
4 8 43 8 87 l1 80 28 0 c16 0 37 -5 47 -10 13 -7 21 -7 26 1 11 19 -26 39 -69
39 l-40 0 5 65 c4 47 2 65 -6 65 -7 0 -16 -3 -19 -7z"/>
<path d="M6290 8839 c0 -6 -11 -20 -24 -30 -26 -20 -77 -141 -80 -187 -1 -36
17 -39 27 -4 5 15 20 58 34 96 22 58 31 70 59 82 37 15 41 23 22 42 -15 15
-38 16 -38 1z"/>
<path d="M8095 8822 c-55 -14 -102 -27 -104 -28 -2 -2 -1 -10 2 -17 5 -12 13
-13 54 -2 26 7 61 15 78 19 l29 7 -19 -21 c-11 -12 -64 -59 -117 -103 -122
-100 -126 -117 -29 -117 109 0 191 11 191 26 0 10 -23 12 -107 8 l-108 -4 50
42 c93 80 205 192 202 202 -5 16 -17 15 -122 -12z"/>
<path d="M5812 8765 c-36 -37 -62 -59 -58 -50 17 45 18 65 3 65 -18 0 -31 -37
-46 -130 -6 -36 -26 -117 -44 -180 -19 -63 -36 -121 -38 -129 -2 -8 3 -16 12
-18 12 -3 23 19 47 89 17 51 35 112 38 136 7 42 7 42 41 36 31 -6 38 -2 78 40
58 60 87 117 83 164 -2 30 -7 38 -27 40 -18 3 -38 -12 -89 -63z m73 -37 c-36
-71 -111 -128 -129 -99 -8 12 73 121 110 150 29 23 29 23 32 3 2 -12 -4 -36
-13 -54z"/>
<path d="M12372 8814 c-12 -8 -22 -22 -22 -30 0 -8 -6 -13 -12 -11 -15 2 -23
-88 -13 -140 10 -55 35 -42 35 18 0 73 19 139 39 139 9 0 22 -5 29 -12 18 -18
36 4 20 24 -20 25 -51 30 -76 12z"/>
<path d="M6006 8789 c-14 -17 -29 -41 -32 -55 -3 -13 -10 -24 -16 -24 -9 0 -5
-23 14 -72 9 -24 16 -28 47 -28 21 0 46 7 57 15 10 8 15 15 10 15 -5 0 -3 7 4
15 10 12 9 16 -4 21 -18 7 -49 -13 -40 -27 3 -5 -6 -9 -20 -9 -33 0 -46 38
-20 57 10 7 24 13 31 13 7 0 13 5 13 10 0 6 6 10 13 10 12 0 57 42 57 53 0 16
-35 37 -60 37 -19 0 -36 -10 -54 -31z m72 -10 c-5 -14 -68 -53 -68 -42 0 16
40 53 56 53 9 0 14 -5 12 -11z"/>
<path d="M6895 8791 c-45 -27 -69 -58 -109 -137 -41 -81 -42 -84 -21 -84 8 0
31 33 54 78 44 87 64 108 117 127 21 7 40 18 42 24 6 18 -50 13 -83 -8z"/>
<path d="M7064 8782 c-21 -16 -45 -36 -52 -44 -7 -9 -21 -14 -30 -11 -13 3
-24 -10 -45 -52 -15 -30 -27 -60 -27 -65 0 -26 33 -5 72 47 45 59 114 120 124
111 3 -4 -4 -28 -15 -53 -43 -98 -17 -112 59 -32 l50 52 0 -42 c0 -54 27 -75
80 -64 50 10 46 35 -5 35 l-40 1 -3 63 c-4 77 -15 79 -71 15 l-41 -48 15 45
c26 76 -2 92 -71 42z"/>
<path d="M12807 8790 c-39 -31 -34 -55 17 -85 48 -28 81 -61 69 -68 -4 -2 -22
-8 -40 -11 -25 -6 -34 -3 -47 16 -12 16 -19 19 -27 11 -16 -16 5 -51 35 -59
27 -6 102 12 112 27 15 24 -9 61 -61 95 -42 28 -53 40 -44 50 6 7 20 14 32 16
12 2 22 8 22 13 0 19 -41 16 -68 -5z"/>
<path d="M14005 8801 c-50 -13 -95 -40 -95 -59 0 -10 20 -38 45 -62 24 -24 42
-47 39 -52 -10 -15 -66 -8 -80 10 -12 16 -13 16 -19 0 -14 -35 1 -48 58 -48
91 0 102 40 31 106 l-45 43 30 15 c16 9 43 16 60 16 34 0 51 18 30 31 -8 5
-16 8 -19 8 -3 -1 -18 -4 -35 -8z"/>
<path d="M4225 8738 c-15 -122 -38 -157 -90 -144 -18 5 -26 16 -31 41 -3 19
-11 35 -17 35 -5 0 -29 -16 -53 -35 l-43 -36 20 47 c12 25 30 61 41 81 28 47
14 58 -48 37 -59 -19 -72 -30 -57 -45 8 -8 19 -6 42 5 17 9 31 15 31 12 0 -2
-14 -32 -31 -66 -36 -72 -36 -106 0 -102 13 1 35 13 49 27 28 28 42 32 42 11
0 -20 39 -46 70 -46 59 0 94 54 105 163 5 56 4 67 -8 67 -11 0 -17 -16 -22
-52z"/>
<path d="M11263 8775 c-18 -8 -37 -22 -44 -33 -12 -20 -13 -20 -41 1 -21 15
-31 18 -39 10 -16 -16 -3 -45 18 -41 15 2 19 -5 21 -39 4 -51 27 -59 37 -13 9
43 52 90 81 90 28 0 30 -7 9 -37 -22 -32 -7 -107 23 -111 16 -3 22 2 22 16 0
11 -5 22 -10 24 -6 2 -4 20 7 46 14 37 20 43 42 40 25 -3 26 -6 29 -80 2 -59
6 -78 19 -82 9 -4 21 -1 27 5 8 8 8 13 -1 16 -9 3 -13 28 -13 74 0 57 -4 73
-21 90 -14 14 -28 19 -44 15 -13 -3 -38 0 -57 8 -28 12 -38 12 -65 1z"/>
<path d="M11592 8770 c-21 -13 -41 -38 -54 -67 -19 -43 -19 -48 -4 -80 28 -60
152 -93 231 -63 43 16 19 28 -44 23 -126 -12 -220 61 -112 87 51 12 74 30 85
66 8 27 -16 54 -47 54 -12 0 -37 -9 -55 -20z m68 -30 c0 -22 -55 -51 -79 -42
-10 4 -5 13 18 34 37 33 61 36 61 8z"/>
<path d="M2186 8738 c-43 -49 -65 -112 -49 -136 19 -31 62 -27 99 9 l34 33 -5
-29 c-6 -32 14 -80 30 -74 6 2 9 11 7 19 -7 35 -1 89 13 130 19 55 19 60 -4
60 -10 0 -21 7 -25 15 -3 9 -18 15 -35 15 -22 0 -38 -10 -65 -42z m78 -20 c5
-28 1 -37 -31 -70 -75 -77 -97 -22 -27 69 32 42 50 42 58 1z"/>
<path d="M8533 8756 c-49 -41 -72 -166 -32 -174 19 -3 33 36 19 53 -15 18 8
83 36 101 16 11 35 14 55 10 25 -5 30 -3 27 12 -5 29 -69 28 -105 -2z"/>
<path d="M10955 8738 c-9 -57 -2 -143 10 -143 6 0 12 32 15 72 3 40 11 78 18
85 19 19 15 28 -12 28 -21 0 -26 -6 -31 -42z"/>
<path d="M13469 8769 c-14 -5 -31 -21 -37 -34 -16 -34 -4 -145 15 -145 10 0
13 15 11 65 -1 40 2 69 10 77 14 14 77 17 110 5 17 -6 22 -5 22 8 0 30 -76 44
-131 24z"/>
<path d="M8780 8750 c-6 -11 -17 -20 -25 -20 -26 0 -75 -72 -75 -111 0 -47 25
-69 79 -69 104 0 163 86 113 163 -37 55 -74 70 -92 37z m59 -46 c50 -64 -3
-133 -95 -122 -24 2 -30 8 -32 34 -4 36 35 84 69 84 15 0 19 5 15 15 -9 25 21
17 43 -11z"/>
<path d="M9633 8757 c-4 -7 -24 -23 -44 -35 -38 -23 -69 -73 -69 -112 0 -12
14 -35 30 -52 25 -24 36 -29 58 -23 79 20 118 127 72 203 -21 34 -34 40 -47
19z m37 -91 c0 -16 -9 -44 -21 -62 -24 -39 -56 -45 -83 -15 -30 33 0 91 59
116 35 15 45 7 45 -39z"/>
<path d="M9857 8745 c-57 -27 -61 -30 -52 -44 4 -7 18 -6 42 4 20 8 38 13 40
11 3 -2 -8 -29 -22 -60 -22 -46 -24 -60 -15 -71 19 -23 34 -18 91 28 l53 44
16 -31 c31 -63 111 -30 94 38 -4 18 -1 33 10 45 16 17 16 19 0 25 -31 12 -52
-20 -46 -71 6 -56 -14 -56 -41 0 -9 20 -21 37 -27 37 -5 0 -32 -21 -61 -46
-28 -25 -53 -43 -56 -41 -2 3 5 22 15 43 48 95 34 124 -41 89z"/>
<path d="M10230 8749 c0 -11 -10 -49 -22 -84 -18 -51 -20 -67 -10 -77 10 -10
25 1 77 52 54 53 65 61 65 43 0 -34 19 -68 48 -85 47 -27 57 -9 17 28 -33 30
-36 38 -33 76 5 63 -20 62 -83 -4 -41 -42 -50 -48 -44 -28 4 14 9 42 12 63 4
29 2 37 -11 37 -9 0 -16 -8 -16 -21z"/>
<path d="M12507 8732 c-35 -36 -45 -65 -29 -87 17 -25 73 -55 102 -55 37 0 37
23 -1 29 -31 4 -79 38 -79 56 0 14 55 65 71 65 5 0 9 -9 9 -20 0 -16 -7 -20
-30 -20 -20 0 -30 -5 -30 -15 0 -16 55 -21 77 -7 9 6 12 47 4 85 0 4 -14 7
-29 7 -19 0 -40 -12 -65 -38z"/>
<path d="M6617 8699 c-62 -67 -75 -95 -57 -128 25 -48 115 -13 140 55 13 32
-1 134 -18 134 -4 0 -33 -28 -65 -61z m51 -61 c-12 -34 -42 -61 -64 -56 -31 6
-26 26 17 73 37 40 44 44 50 28 3 -10 2 -30 -3 -45z"/>
<path d="M13238 8735 c-63 -43 -78 -96 -32 -117 21 -10 35 -9 76 6 47 16 52
16 60 2 16 -29 31 -18 24 17 -4 17 -7 46 -7 63 1 25 -5 32 -32 42 -45 16 -47
16 -89 -13z m66 -11 c40 -15 5 -64 -55 -79 -51 -13 -44 35 10 68 31 20 26 18
45 11z"/>
<path d="M8283 8735 c-35 -15 -73 -77 -73 -119 0 -14 11 -38 24 -53 22 -26 29
-28 86 -26 58 2 99 18 85 32 -4 3 -37 4 -76 2 -67 -3 -69 -2 -79 24 -6 15 -9
28 -8 29 2 1 23 8 47 16 25 9 53 27 65 43 l21 29 -24 19 c-27 22 -27 22 -68 4z
m47 -35 c0 -8 -51 -40 -65 -40 -10 0 -5 19 11 34 17 18 54 22 54 6z"/>
<path d="M2423 8714 c-32 -19 -45 -36 -57 -72 -10 -28 -13 -49 -7 -55 13 -13
31 1 31 25 0 24 71 98 94 98 22 0 20 -18 -8 -73 -20 -40 -21 -49 -9 -59 18
-14 23 -7 49 68 14 41 16 59 8 72 -17 26 -54 25 -101 -4z"/>
<path d="M5079 8719 c-28 -28 -59 -98 -52 -118 11 -31 26 -41 57 -41 63 0 113
62 96 120 -5 17 -14 38 -21 46 -17 20 -56 17 -80 -7z m69 -56 c4 -38 -26 -73
-63 -73 -32 0 -34 31 -5 78 27 45 64 42 68 -5z"/>
<path d="M3765 8670 c-37 -62 -44 -100 -20 -120 37 -31 135 39 135 98 0 37
-24 68 -55 74 -22 5 -30 -2 -60 -52z m81 -5 c8 -31 -17 -72 -52 -85 -33 -13
-34 -13 -34 8 0 22 55 102 70 102 5 0 12 -11 16 -25z"/>
<path d="M14157 8600 c-6 -22 7 -35 23 -25 15 9 12 45 -4 45 -7 0 -16 -9 -19
-20z"/>
<path d="M4722 7698 c-21 -21 -13 -31 22 -25 19 3 56 -1 82 -9 30 -9 92 -14
168 -14 67 0 267 -7 446 -15 376 -17 1970 -14 2270 3 96 6 357 13 580 17 223
3 549 10 725 17 343 12 945 5 1055 -13 36 -6 126 -14 200 -18 74 -4 213 -19
308 -32 l172 -24 0 -107 c0 -60 4 -110 10 -113 6 -3 10 -11 10 -16 0 -6 -4 -8
-9 -4 -23 14 -38 -291 -27 -540 6 -137 5 -276 -3 -440 -6 -132 -11 -366 -11
-520 0 -154 -5 -318 -10 -365 -13 -111 -13 -358 -1 -496 6 -60 10 -305 9 -544
0 -239 0 -547 1 -683 l2 -248 -73 6 c-40 4 -98 11 -128 15 -30 5 -235 12 -455
15 -1123 15 -1368 17 -1810 21 -264 2 -1000 7 -1635 13 -635 5 -1253 10 -1372
10 -171 0 -225 4 -254 16 -20 8 -63 15 -95 15 -32 0 -61 5 -64 10 -4 6 -9 8
-13 6 -6 -3 -6 179 0 409 0 11 -5 45 -10 76 -6 31 -8 66 -5 78 3 11 1 21 -4
21 -6 0 -6 21 -2 53 4 28 3 88 -3 131 -6 53 -5 109 2 171 6 50 13 204 15 341
10 591 0 1827 -16 1936 -5 37 -9 192 -9 345 0 153 -3 315 -7 361 -5 73 -8 82
-26 82 -14 0 -17 -4 -11 -17 4 -10 9 -175 11 -368 2 -192 8 -377 12 -410 5
-32 8 -143 9 -245 0 -102 3 -372 7 -600 l8 -414 -26 17 c-15 9 -33 17 -41 17
-8 0 -24 14 -36 30 -17 24 -19 34 -10 45 19 23 3 36 -28 22 -37 -16 -42 -25
-42 -81 l0 -49 -112 6 c-355 20 -338 18 -338 41 0 45 -39 159 -63 184 -14 15
-46 60 -71 99 -48 75 -75 96 -138 107 -23 4 -53 22 -80 46 -31 30 -51 40 -74
40 -18 0 -70 9 -116 20 -65 15 -92 17 -118 10 -19 -6 -56 -10 -82 -10 -66 0
-140 -32 -207 -89 -31 -27 -63 -52 -72 -57 -32 -18 -136 -144 -142 -171 -3
-15 -23 -55 -45 -88 -34 -54 -40 -71 -51 -165 -12 -98 -12 -110 8 -179 11 -41
32 -91 45 -111 13 -20 35 -59 50 -87 16 -33 49 -71 93 -108 98 -84 128 -101
243 -141 96 -33 111 -36 175 -29 38 3 93 7 120 9 34 1 63 10 92 29 24 15 51
27 60 27 10 1 54 20 98 43 63 33 91 56 135 108 82 99 140 261 140 390 0 48 0
48 41 59 30 8 74 9 160 1 64 -6 145 -11 178 -11 l61 0 2 -37 c0 -21 0 -48 -1
-60 -3 -37 37 -29 109 22 35 25 68 45 73 45 11 0 1 -838 -11 -940 -13 -102 -7
-444 8 -500 9 -33 10 -110 6 -285 -4 -132 -8 -253 -9 -270 -2 -24 2 -30 18
-30 18 0 20 6 17 55 -3 45 -1 53 9 43 7 -8 38 -13 70 -13 31 0 74 -7 95 -16
33 -14 158 -16 1093 -20 581 -3 1279 -9 1551 -15 272 -6 997 -14 1611 -18 614
-4 1121 -11 1127 -15 7 -4 60 -9 119 -11 60 -2 141 -7 181 -11 66 -6 72 -8 72
-29 0 -24 22 -49 33 -38 4 3 7 17 7 30 0 27 -3 26 75 13 63 -11 139 -4 129 11
-7 12 -64 12 -64 -1 0 -5 -5 -10 -10 -10 -6 0 -9 5 -8 12 2 8 -22 16 -67 22
-68 11 -69 12 -77 46 -4 19 -8 62 -8 95 0 33 -3 103 -6 156 -3 53 -1 172 5
265 10 159 3 624 -16 1109 -3 84 -1 216 6 300 13 167 24 724 26 1355 1 228 6
474 12 545 6 72 9 134 6 138 -3 4 -4 35 -4 68 l0 60 -28 -6 c-15 -3 -111 6
-214 20 -103 14 -218 25 -255 25 -38 0 -115 7 -173 16 -119 18 -806 25 -1244
12 -137 -4 -430 -10 -650 -14 -220 -3 -416 -7 -435 -10 -206 -23 -2077 -27
-2430 -5 -91 6 -235 11 -320 11 -108 1 -167 5 -195 15 -49 18 -97 19 -113 3z
m-1112 -1613 c30 -8 73 -15 96 -15 33 0 46 -6 73 -34 35 -36 58 -48 126 -65
36 -9 47 -21 95 -92 113 -167 125 -211 111 -384 -17 -210 -105 -370 -242 -439
-39 -20 -75 -36 -80 -36 -24 0 -109 -44 -109 -56 0 -14 -17 -16 -180 -15 -129
0 -267 62 -397 178 -45 39 -130 194 -153 276 -15 55 -17 79 -10 119 6 28 10
65 10 82 0 19 18 60 45 106 25 41 45 81 45 90 0 42 210 229 301 268 26 11 58
17 79 15 19 -3 46 0 60 6 35 14 67 13 130 -4z"/>
<path d="M9426 7532 c-2 -4 -8 -70 -11 -147 -7 -125 -6 -142 9 -154 22 -18 48
1 28 21 -32 32 0 109 42 101 36 -7 48 -26 50 -78 1 -58 18 -62 28 -6 10 57
-11 99 -52 108 -17 3 -30 8 -30 10 0 14 43 63 60 68 11 4 20 13 20 21 0 29
-40 13 -80 -33 l-42 -48 5 60 c2 33 2 66 0 73 -5 13 -19 16 -27 4z"/>
<path d="M9036 7468 c-2 -7 -7 -52 -10 -100 -3 -47 -10 -97 -14 -109 l-9 -23
-16 25 c-8 13 -21 44 -28 69 -16 60 -33 79 -47 54 -5 -11 -13 -37 -17 -59 l-8
-40 -22 70 c-14 46 -27 71 -38 73 -19 4 -22 -18 -8 -46 6 -9 18 -42 27 -72 22
-74 42 -110 58 -110 17 0 26 21 26 63 l1 32 19 -36 c44 -84 79 -76 97 22 7 35
12 83 13 106 0 24 5 43 13 46 9 3 9 9 1 23 -13 23 -33 29 -38 12z"/>
<path d="M10200 7436 c0 -8 -25 -64 -55 -124 -30 -61 -55 -115 -55 -122 0 -24
26 -2 50 42 18 34 32 48 55 54 48 12 49 11 57 -35 8 -48 20 -67 37 -57 6 4 7
17 1 34 -4 15 -11 42 -14 61 -5 28 -4 31 8 22 10 -9 15 -8 19 3 6 15 -11 36
-29 36 -7 0 -20 23 -29 50 -15 46 -45 70 -45 36z m30 -92 c0 -6 -11 -16 -25
-22 l-24 -11 16 34 c16 33 32 32 33 -1z"/>
<path d="M9854 7398 c-39 -19 -65 -109 -41 -142 21 -29 38 -11 31 33 -9 54 9
84 47 79 37 -6 48 19 13 32 -14 6 -26 10 -27 9 -1 0 -12 -5 -23 -11z"/>
<path d="M9657 7389 c-28 -16 -67 -86 -67 -118 0 -47 25 -64 81 -58 51 6 105
35 92 48 -5 5 -28 1 -52 -7 -57 -19 -85 -15 -89 14 -3 18 2 23 25 28 16 3 40
14 53 24 21 16 23 22 15 47 -11 31 -31 38 -58 22z m33 -34 c0 -2 -10 -10 -22
-16 -21 -11 -22 -11 -9 4 13 16 31 23 31 12z"/>
<path d="M9263 7378 c-24 -12 -33 -35 -33 -95 0 -32 4 -43 15 -43 10 0 15 10
15 33 0 57 11 78 42 84 16 3 27 11 25 17 -5 15 -37 17 -64 4z"/>
<path d="M9130 7367 c-38 -19 -67 -79 -55 -114 16 -43 54 -43 94 2 32 37 39
72 21 106 -12 22 -25 24 -60 6z m40 -51 c0 -23 -50 -70 -62 -58 -19 19 10 72
38 72 14 0 24 -6 24 -14z"/>
<path d="M8328 7194 c-126 -45 -191 -103 -271 -241 -36 -63 -43 -82 -71 -205
-22 -94 -20 -125 15 -217 26 -69 39 -88 99 -144 50 -47 82 -69 121 -82 30 -10
67 -24 83 -33 16 -8 47 -14 68 -14 27 1 38 -4 38 -14 0 -11 15 -14 65 -14 59
0 76 5 163 50 95 48 160 105 215 191 26 39 49 181 48 296 0 92 -3 109 -32 179
-26 62 -48 94 -107 155 -64 68 -82 81 -140 101 -98 34 -184 31 -294 -8z m275
-35 c52 -17 72 -31 125 -87 104 -110 135 -191 128 -328 -5 -119 -20 -204 -43
-247 -35 -68 -111 -136 -197 -178 -93 -45 -117 -49 -109 -19 5 20 3 20 -48 14
-89 -12 -121 -8 -195 20 -48 19 -90 45 -131 82 -53 47 -65 65 -93 137 l-31 82
21 105 c32 155 101 278 196 350 110 83 256 110 377 69z"/>
<path d="M5740 6585 c-9 -11 -11 -37 -7 -85 5 -70 5 -70 -21 -76 -47 -10 -53
-14 -46 -25 3 -6 22 -9 40 -7 l34 4 0 -61 c0 -60 12 -96 27 -82 4 5 6 42 4 83
-3 79 -5 77 53 78 42 1 44 24 2 31 -19 4 -39 4 -44 1 -12 -7 -26 96 -17 123 8
25 -9 35 -25 16z"/>
<path d="M5169 6395 l-43 -84 -16 27 c-9 15 -21 40 -26 56 -12 35 -39 55 -53
41 -12 -12 -21 -254 -10 -261 17 -10 29 39 30 123 0 68 2 82 10 63 14 -36 58
-90 72 -90 7 1 27 33 46 73 33 70 34 71 41 42 4 -16 8 -62 9 -101 1 -77 19
-119 42 -96 10 9 10 15 1 24 -7 7 -12 39 -12 71 0 78 -20 185 -36 191 -7 3
-29 -28 -55 -79z"/>
<path d="M6117 6469 c-22 -13 -57 -81 -57 -112 0 -26 22 -52 33 -40 4 3 7 23
7 43 0 52 31 88 77 92 20 2 38 9 41 16 5 15 -74 16 -101 1z"/>
<path d="M5556 6439 c-32 -38 -33 -64 -2 -110 37 -54 37 -74 1 -74 -25 0 -30
4 -27 22 4 26 -17 41 -29 22 -24 -39 4 -79 56 -79 37 0 65 21 65 49 0 10 -14
39 -32 66 -30 45 -31 49 -17 74 8 14 25 27 37 29 30 5 28 32 -2 32 -15 0 -34
-12 -50 -31z"/>
<path d="M5876 6424 c-54 -54 -21 -154 50 -154 42 0 94 25 94 45 0 19 -15 19
-45 -1 -29 -19 -79 -15 -83 7 -2 9 12 26 33 40 39 27 42 35 19 67 -20 29 -35
28 -68 -4z m29 -40 c-23 -23 -32 -8 -9 17 10 11 20 16 22 10 2 -6 -4 -18 -13
-27z"/>
<path d="M5343 6384 c-9 -15 -17 -47 -17 -73 -1 -45 0 -46 31 -49 18 -2 41 1
52 7 14 8 20 7 25 -4 6 -17 46 -21 46 -4 0 6 -6 17 -14 25 -10 9 -12 26 -9 52
5 37 3 41 -27 56 -46 22 -67 20 -87 -10z m66 -30 c10 -22 9 -30 -5 -45 -39
-44 -69 -12 -42 46 14 32 32 32 47 -1z"/>
<path d="M13326 6322 c-10 -9 -7 -24 4 -17 5 3 0 -20 -10 -51 -21 -61 -19 -74
11 -74 15 0 18 5 14 23 -3 12 3 39 14 61 11 21 18 42 16 46 -6 10 -43 19 -49
12z"/>
<path d="M15097 6278 c-12 -39 -14 -55 -5 -65 17 -21 33 -10 34 23 1 16 5 44
9 62 6 25 4 32 -7 32 -8 0 -21 -21 -31 -52z"/>
<path d="M12963 6303 l-43 -4 0 -132 c0 -73 -5 -170 -10 -215 -13 -100 0 -159
38 -173 38 -15 127 -7 127 11 0 12 -13 15 -58 15 -65 0 -77 10 -71 59 19 160
26 267 20 326 -7 69 -7 70 19 80 18 7 33 7 46 -1 11 -5 32 -9 47 -7 35 4 36
32 2 35 -14 1 -36 4 -50 6 -14 2 -44 2 -67 0z"/>
<path d="M15330 6295 c0 -11 12 -15 51 -15 l51 0 -8 -47 c-5 -27 -7 -137 -5
-245 l3 -198 -105 0 c-74 0 -108 -4 -116 -13 -20 -25 8 -32 123 -29 137 4 128
-8 125 181 -4 198 -3 241 6 314 l8 67 -67 0 c-52 0 -66 -3 -66 -15z"/>
<path d="M11492 6278 c-7 -7 -12 -18 -12 -25 0 -47 -135 -330 -182 -379 -13
-15 -16 -24 -8 -29 17 -11 54 29 90 96 17 32 32 59 34 59 1 0 0 -27 -2 -60 -5
-67 14 -110 47 -110 25 0 87 72 117 135 l23 50 1 -65 c2 -83 11 -114 34 -118
16 -3 17 0 9 30 -12 50 -7 183 12 281 9 49 14 91 11 94 -17 18 -39 -20 -75
-132 -23 -69 -48 -138 -55 -153 -22 -40 -75 -94 -86 -87 -24 15 6 206 56 358
17 50 9 78 -14 55z"/>
<path d="M14843 6208 c-21 -24 -47 -54 -57 -68 -12 -17 -20 -21 -23 -12 -12
31 -72 107 -86 110 -24 5 -21 -21 4 -44 21 -19 42 -53 59 -99 10 -26 -9 -53
-129 -185 -45 -50 -49 -60 -23 -60 10 0 49 38 91 90 41 50 76 90 77 90 2 0 17
-28 34 -62 37 -74 60 -102 73 -89 5 5 -1 24 -15 47 -13 22 -34 62 -46 91 -21
50 -22 53 -5 81 31 49 69 90 89 94 12 2 20 13 22 31 5 40 -19 34 -65 -15z"/>
<path d="M13638 6123 c-23 -6 -24 -43 -2 -43 13 0 15 -7 9 -37 -11 -60 -45
-123 -66 -123 -30 0 -53 56 -54 130 0 51 -3 65 -15 65 -11 0 -16 -15 -18 -60
-4 -100 58 -192 110 -164 25 14 63 93 78 161 15 75 9 85 -42 71z"/>
<path d="M14174 6122 c-23 -15 -34 -53 -34 -117 0 -68 13 -110 31 -99 6 3 7
34 3 78 -9 105 22 151 62 91 15 -24 44 -35 44 -17 0 5 -12 23 -26 40 -26 31
-57 40 -80 24z"/>
<path d="M12415 6109 c-4 -5 -11 -7 -16 -4 -5 4 -22 -2 -39 -12 -39 -22 -38
-50 0 -98 34 -42 29 -58 -16 -53 -22 2 -28 8 -26 21 2 13 -2 18 -15 15 -25 -5
-29 -44 -5 -57 36 -19 93 -17 108 4 20 27 18 37 -17 84 -29 41 -29 43 -12 57
10 7 30 14 46 14 16 0 27 5 27 14 0 17 -27 29 -35 15z"/>
<path d="M13788 6109 c-29 -16 -22 -63 17 -114 41 -52 40 -85 -1 -85 -21 0
-24 5 -24 36 0 24 -4 34 -12 32 -17 -6 -22 -66 -7 -84 18 -22 75 -18 93 8 24
33 20 54 -19 106 -20 25 -34 53 -33 61 4 18 58 28 58 12 0 -6 7 -11 15 -11 18
0 20 21 3 38 -15 15 -66 15 -90 1z"/>
<path d="M12157 6081 c-38 -45 -44 -177 -9 -189 9 -3 12 17 12 71 0 59 4 80
19 98 19 23 20 23 39 6 26 -24 41 -3 16 24 -24 27 -48 24 -77 -10z"/>
<path d="M14404 6090 c-29 -11 -54 -48 -47 -69 4 -9 21 -33 40 -54 31 -34 44
-77 24 -77 -4 0 -32 19 -60 41 -39 31 -55 39 -64 30 -8 -8 -2 -18 23 -40 85
-72 132 -77 138 -14 2 22 -6 41 -33 73 -20 24 -35 50 -33 58 4 22 57 38 80 23
24 -15 28 -14 28 8 0 30 -49 40 -96 21z"/>
<path d="M11767 6070 c-37 -30 -36 -72 3 -112 17 -16 30 -34 30 -39 0 -15 -49
-22 -65 -9 -20 17 -32 4 -19 -18 7 -11 24 -17 49 -17 30 0 42 6 59 28 l21 28
-38 35 c-20 19 -37 41 -37 49 0 20 28 45 52 45 25 0 18 24 -8 28 -11 2 -32 -7
-47 -18z"/>
<path d="M11948 6073 c-43 -49 -49 -100 -18 -150 13 -22 29 -34 52 -38 37 -7
77 -4 96 8 20 13 3 28 -24 21 -42 -11 -90 4 -102 32 -17 36 -16 38 23 57 34
16 54 54 40 76 -10 17 -50 13 -67 -6z m32 -28 c-7 -9 -15 -13 -19 -10 -3 3 1
10 9 15 21 14 24 12 10 -5z"/>
<path d="M13978 6067 c-54 -46 -55 -90 -1 -139 27 -25 104 -51 116 -39 14 14
1 28 -35 35 -36 7 -78 32 -78 46 0 5 18 19 40 30 29 15 40 27 40 43 0 49 -39
60 -82 24z m38 -32 c-26 -19 -42 -19 -26 0 7 8 20 15 29 15 13 -1 13 -3 -3
-15z"/>
<path d="M12587 6073 c-11 -10 -8 -43 3 -43 15 0 24 30 13 41 -5 5 -12 6 -16
2z"/>
<path d="M6005 5990 c-181 -15 -298 -86 -360 -217 -19 -39 -44 -103 -55 -140
-12 -37 -30 -98 -42 -135 -25 -80 -20 -114 27 -213 26 -54 57 -95 137 -176
135 -139 146 -145 238 -152 41 -3 107 -10 145 -17 l70 -12 81 46 c45 25 87 46
92 46 19 0 100 102 131 166 17 35 36 85 43 111 7 26 14 51 17 55 4 4 26 3 50
-3 45 -10 55 -14 206 -92 50 -25 155 -69 235 -97 80 -29 215 -83 300 -122 85
-39 184 -82 220 -95 36 -13 84 -36 108 -49 l42 -25 -17 -29 c-9 -16 -15 -32
-12 -34 3 -3 49 -7 103 -10 54 -2 102 -8 107 -13 6 -6 -2 -37 -20 -79 -22 -52
-31 -92 -36 -164 -7 -87 -5 -102 19 -170 17 -49 35 -82 52 -95 15 -11 47 -41
73 -66 25 -26 87 -68 136 -95 l90 -48 102 -1 c93 0 104 2 123 23 11 12 26 22
33 22 7 0 23 9 37 20 15 12 41 20 64 20 34 0 45 7 87 52 71 78 96 130 115 244
18 113 14 232 -12 291 -9 21 -23 61 -31 88 -35 118 -93 180 -205 218 -100 35
-158 34 -291 -4 -95 -28 -114 -38 -174 -88 -37 -31 -81 -75 -98 -98 -30 -42
-45 -52 -45 -32 0 17 -120 149 -135 149 -8 0 -19 -16 -25 -35 -6 -19 -16 -35
-21 -35 -6 0 -29 11 -52 24 -23 13 -80 39 -127 57 -47 18 -132 54 -190 82
-102 48 -247 106 -366 146 -62 21 -191 80 -284 131 -30 16 -78 35 -106 41
l-51 11 -2 126 c-1 101 -5 134 -21 170 -41 93 -153 205 -268 269 -83 46 -81
45 -237 33z m195 -63 c30 -17 68 -39 84 -47 41 -21 151 -143 178 -198 28 -57
36 -198 19 -314 -20 -124 -102 -273 -171 -307 -19 -10 -57 -30 -84 -46 -47
-26 -53 -27 -135 -20 -47 4 -112 8 -143 9 -71 3 -85 13 -200 132 -106 108
-131 145 -157 229 -18 57 -18 62 -1 110 9 27 20 68 24 90 4 22 26 84 48 138
34 81 49 105 93 145 43 40 67 52 141 75 52 15 113 26 148 26 32 0 61 3 64 6
12 12 40 3 92 -28z m2270 -923 c41 -14 84 -31 96 -39 32 -21 80 -103 99 -170
9 -33 21 -65 26 -71 5 -6 13 -42 18 -80 14 -94 -10 -260 -46 -324 -40 -70
-102 -130 -135 -130 -16 0 -46 -9 -68 -20 -22 -11 -50 -20 -63 -20 -37 0 -87
-20 -87 -36 0 -10 -12 -12 -52 -8 -71 7 -208 76 -261 132 -23 24 -54 50 -68
57 -40 22 -69 116 -69 224 1 70 6 99 28 156 39 98 90 173 154 228 63 53 112
77 218 106 99 26 121 26 210 -5z m-703 -170 c-3 -3 -12 -4 -19 -1 -8 3 -5 6 6
6 11 1 17 -2 13 -5z"/>
<path d="M12566 5943 c-12 -12 -6 -33 9 -33 8 0 15 6 15 14 0 17 -14 28 -24
19z"/>
<path d="M8956 5273 c-4 -9 -10 -60 -13 -112 -3 -53 -9 -105 -13 -116 -7 -18
-9 -17 -29 15 -11 19 -21 45 -21 57 0 21 -16 40 -26 30 -2 -2 -10 -33 -16 -68
-12 -72 -16 -68 -44 51 -11 43 -22 70 -31 70 -7 0 -13 -10 -12 -22 1 -38 54
-211 66 -215 13 -5 43 47 43 74 0 13 9 8 38 -20 31 -30 61 -47 62 -34 1 1 3
45 6 97 3 52 9 117 15 143 5 26 9 52 9 57 0 17 -28 11 -34 -7z"/>
<path d="M9320 5140 c0 -117 3 -151 13 -148 7 3 13 26 15 54 4 60 15 74 57 74
39 0 45 -11 45 -86 0 -41 4 -54 15 -54 12 0 15 14 15 65 0 57 -3 69 -26 91
-15 16 -32 24 -43 21 -17 -4 -16 0 5 31 13 19 31 40 41 47 9 7 13 17 9 24 -12
19 -42 -5 -81 -62 l-36 -52 2 70 c2 59 0 71 -14 73 -15 3 -17 -12 -17 -148z"/>
<path d="M10119 5250 c-15 -4 -40 -18 -56 -30 -29 -21 -30 -24 -25 -89 4 -55
1 -70 -13 -85 -15 -15 -16 -19 -2 -34 8 -9 17 -26 18 -36 5 -23 29 -34 29 -13
0 12 7 13 42 5 53 -11 92 4 108 42 16 39 -3 96 -40 119 -28 17 -28 17 -9 41
23 31 25 76 3 84 -18 7 -20 7 -55 -4z m41 -38 c0 -14 -43 -49 -67 -55 -16 -3
-23 -1 -23 9 0 8 5 14 11 14 5 0 8 4 4 9 -3 6 3 14 12 20 22 13 63 14 63 3z
m7 -110 c6 -4 17 -20 22 -35 15 -38 -1 -67 -36 -67 -42 0 -94 22 -88 38 3 7 5
27 5 43 0 28 2 29 43 29 23 0 47 -4 54 -8z"/>
<path d="M9180 5160 c-11 -11 -20 -24 -20 -30 0 -13 27 -13 36 1 3 6 17 8 30
5 29 -8 32 10 7 30 -24 18 -30 17 -53 -6z"/>
<path d="M9586 5153 c-63 -67 -53 -155 20 -169 26 -5 39 -3 45 7 5 8 9 10 9 5
0 -6 5 -5 11 1 19 19 1 33 -27 23 -34 -13 -64 3 -64 36 0 19 6 26 30 30 38 8
52 26 48 61 -4 39 -38 42 -72 6z m39 -22 c-3 -6 -11 -11 -17 -11 -6 0 -6 6 2
15 14 17 26 13 15 -4z"/>
<path d="M9734 5148 c-10 -16 -6 -85 6 -109 21 -38 32 -21 24 38 l-7 56 36 -6
c40 -6 52 0 36 20 -14 16 -85 17 -95 1z"/>
<path d="M9054 5142 c-40 -28 -57 -99 -29 -122 21 -17 64 -4 76 24 9 18 7 32
-10 65 -12 22 -22 41 -24 41 -1 0 -7 -4 -13 -8z m16 -72 c0 -19 -17 -36 -27
-26 -3 3 -2 17 1 31 7 28 26 25 26 -5z"/>
<path d="M9154 5084 c-8 -31 -1 -59 15 -59 8 0 14 15 16 41 2 30 -1 41 -11 41
-8 0 -17 -10 -20 -23z"/>
<path d="M2989 4913 c-1 -5 -1 -12 0 -17 16 -82 19 -105 14 -128 -4 -23 -12
-28 -50 -34 -56 -8 -51 -30 7 -27 39 2 42 0 36 -20 -3 -12 -9 -55 -13 -94 -5
-64 -4 -73 11 -73 11 0 16 9 16 28 0 15 5 62 12 105 11 74 13 77 38 77 25 0
50 16 50 32 0 5 -17 6 -37 4 l-38 -5 -2 53 c-2 58 -17 106 -33 106 -5 0 -11
-3 -11 -7z"/>
<path d="M2239 4903 c-1 -5 0 -45 1 -89 l2 -82 -51 -17 c-28 -9 -51 -20 -51
-25 0 -16 21 -22 35 -10 8 7 15 10 15 6 0 -3 10 -2 23 3 22 9 22 8 19 -65 -3
-62 -1 -74 12 -74 12 0 16 11 16 49 0 81 9 109 36 113 32 4 31 22 -1 26 -25 3
-25 5 -23 76 1 40 -2 78 -6 84 -8 13 -25 16 -27 5z"/>
<path d="M2361 4897 c-8 -10 -9 -17 -1 -22 14 -9 12 -116 -5 -210 -8 -44 -14
-92 -15 -107 0 -50 24 -30 50 40 20 54 30 68 49 70 30 5 41 -12 34 -55 -4 -25
-2 -33 10 -33 25 0 34 76 12 100 -25 28 -53 34 -78 17 l-23 -15 4 97 c3 71 0
101 -10 114 -12 17 -16 17 -27 4z"/>
<path d="M1843 4869 c-6 -25 -110 -230 -138 -273 -10 -14 -24 -26 -31 -26 -16
0 -19 -16 -4 -25 21 -13 50 7 71 49 17 34 31 47 70 64 l49 20 -6 -38 c-10 -62
22 -131 48 -104 3 3 -1 18 -9 34 -12 25 -12 44 -2 130 11 87 11 106 -2 142
-18 49 -38 60 -46 27z m27 -98 c0 -46 -3 -51 -36 -70 -19 -12 -37 -21 -39 -21
-2 0 11 31 28 70 18 38 35 70 40 70 4 0 7 -22 7 -49z"/>
<path d="M3851 4862 c-6 -11 -16 -42 -21 -69 -10 -46 -13 -50 -60 -68 -28 -11
-50 -25 -50 -32 0 -17 13 -16 55 1 l35 15 0 -57 c0 -67 17 -98 67 -118 25 -11
39 -12 54 -4 26 14 15 30 -20 30 -15 0 -35 6 -44 13 -21 15 -32 73 -23 122 7
34 9 36 39 33 27 -2 33 1 35 19 3 20 0 22 -27 17 -26 -6 -31 -3 -31 13 0 11 5
35 11 52 14 40 -2 66 -20 33z"/>
<path d="M5752 4814 c-31 -21 -51 -64 -45 -96 11 -58 101 -110 142 -81 33 22
25 34 -18 27 -34 -5 -43 -3 -65 19 -41 41 -27 107 23 107 24 0 29 25 5 34 -20
8 -16 9 -42 -10z"/>
<path d="M6133 4815 c-30 -21 -29 -31 9 -65 33 -31 31 -53 -3 -32 -16 10 -20
10 -26 -4 -8 -21 13 -34 60 -34 33 0 37 3 37 24 0 14 -13 38 -31 55 -33 33
-27 44 21 39 17 -2 25 2 25 12 0 21 -64 25 -92 5z"/>
<path d="M6315 4820 c-57 -22 -52 -66 10 -96 41 -19 45 -34 11 -34 -16 0 -26
7 -29 22 -5 18 -8 19 -21 9 -32 -26 30 -80 74 -66 52 17 45 58 -16 95 -41 26
-35 40 22 49 52 8 57 31 7 30 -21 0 -47 -4 -58 -9z"/>
<path d="M5180 4778 c-11 -18 -22 -52 -26 -76 -8 -55 4 -213 17 -227 18 -18
30 18 25 72 -4 52 -4 52 30 63 40 14 84 72 84 111 0 36 -50 89 -84 89 -19 0
-32 -9 -46 -32z m77 -20 c30 -28 29 -49 -3 -87 -31 -38 -67 -43 -59 -8 3 12 7
38 8 57 2 35 13 60 24 60 4 0 17 -10 30 -22z"/>
<path d="M5572 4794 c-50 -35 -68 -115 -31 -135 32 -17 97 5 104 34 6 22 -29
117 -43 117 -4 0 -18 -7 -30 -16z m33 -54 c9 -17 13 -35 10 -40 -8 -13 -65
-13 -65 0 0 13 29 70 35 70 2 0 12 -14 20 -30z"/>
<path d="M5380 4758 c-23 -52 -26 -106 -5 -114 23 -9 38 5 24 22 -16 20 7 102
24 85 15 -15 37 -14 37 2 0 17 -32 47 -49 47 -6 0 -21 -19 -31 -42z"/>
<path d="M5929 4781 c-31 -25 -33 -89 -4 -121 17 -18 28 -21 67 -18 48 5 85
25 71 39 -4 4 -26 3 -49 -3 -42 -12 -74 -6 -74 12 0 5 8 10 19 10 44 0 54 61
15 87 -19 12 -24 11 -45 -6z m39 -39 c2 -7 -3 -12 -12 -12 -9 0 -16 7 -16 16
0 17 22 14 28 -4z"/>
<path d="M3203 4782 c-23 -3 -31 -26 -14 -36 11 -7 45 18 40 30 -2 5 -14 8
-26 6z"/>
<path d="M4114 4770 c-29 -12 -83 -82 -90 -118 -8 -42 26 -112 67 -136 63 -37
143 -2 202 90 30 45 34 64 14 64 -7 0 -23 -18 -35 -39 -31 -55 -86 -101 -121
-101 -64 0 -116 82 -87 137 22 42 54 73 76 73 11 0 20 -3 20 -7 0 -13 -36 -63
-55 -77 -21 -15 -12 -36 15 -36 12 0 26 12 35 33 8 17 23 45 33 60 17 27 16
29 -7 48 -25 21 -35 22 -67 9z"/>
<path d="M2593 4740 c-12 -5 -33 -27 -47 -49 -24 -38 -25 -42 -11 -75 27 -65
88 -85 139 -45 21 17 26 18 26 5 0 -9 4 -16 10 -16 12 0 30 33 30 55 0 22 52
95 67 95 9 0 13 -29 15 -97 2 -78 6 -98 18 -98 12 0 14 16 13 85 -2 47 -3 95
-3 107 0 12 -10 27 -21 34 -17 9 -26 7 -48 -8 -14 -11 -33 -22 -41 -25 -9 -3
-22 -29 -29 -57 -7 -28 -17 -49 -22 -46 -4 3 -20 -2 -34 -11 -31 -21 -73 -11
-84 19 -7 19 -4 23 23 30 62 17 89 74 47 97 -22 11 -19 11 -48 0z m37 -39 c0
-5 -14 -14 -32 -20 -31 -11 -31 -11 -13 9 19 21 45 27 45 11z"/>
<path d="M2067 4704 c-3 -3 -3 -29 0 -57 4 -43 2 -57 -15 -77 -17 -20 -24 -23
-39 -14 -20 12 -32 84 -14 84 17 0 13 27 -6 34 -22 9 -31 -2 -33 -39 -4 -57 0
-74 22 -95 28 -26 59 -25 86 3 29 31 40 65 34 109 -4 36 -23 64 -35 52z"/>
<path d="M3345 4695 c-50 -18 -75 -48 -75 -90 0 -57 88 -103 146 -76 33 15 20
34 -16 26 -42 -9 -100 20 -100 50 0 33 45 65 91 65 32 0 60 14 48 24 -15 12
-61 12 -94 1z"/>
<path d="M3575 4686 c-54 -23 -86 -99 -49 -113 15 -6 29 -2 87 22 13 6 17 2
17 -17 0 -24 32 -68 50 -68 15 0 12 26 -5 40 -10 8 -15 31 -15 71 0 55 -2 60
-26 69 -14 6 -26 10 -27 10 -1 -1 -16 -7 -32 -14z m45 -37 c-11 -19 -70 -52
-79 -43 -7 6 32 46 54 55 32 13 36 10 25 -12z"/>
<path d="M3150 4611 c0 -17 -4 -32 -10 -36 -13 -8 4 -50 21 -50 10 0 15 17 17
58 2 46 0 57 -13 57 -10 0 -15 -10 -15 -29z"/>
<path d="M1466 3912 c-3 -6 2 -39 11 -75 22 -84 12 -129 -37 -168 -49 -38 -80
-46 -80 -21 0 11 10 31 21 46 17 22 27 26 49 21 34 -7 48 10 21 24 -49 27
-105 -9 -117 -76 -15 -79 57 -81 137 -4 46 44 49 50 49 97 -1 95 -34 189 -54
156z"/>
<path d="M1665 3901 c-9 -16 3 -31 26 -31 14 0 19 6 17 17 -4 20 -33 29 -43
14z"/>
<path d="M2630 3822 c-62 -24 -65 -51 -9 -88 53 -36 64 -60 23 -49 -43 11 -53
11 -55 0 -2 -11 32 -30 73 -40 23 -6 29 -3 36 16 14 37 2 59 -44 89 l-44 28
30 12 c16 7 39 10 50 7 25 -6 36 9 20 28 -15 19 -24 18 -80 -3z"/>
<path d="M1764 3806 c-43 -19 -49 -42 -18 -72 20 -21 22 -29 13 -40 -6 -8 -20
-14 -30 -14 -23 0 -25 -18 -3 -27 23 -9 63 13 76 43 11 24 10 28 -15 46 -32
23 -27 38 14 38 31 0 36 9 17 28 -15 15 -15 15 -54 -2z"/>
<path d="M2354 3785 c-43 -41 -37 -57 27 -77 22 -6 39 -14 39 -18 0 -11 -47
-40 -65 -40 -17 0 -21 -25 -5 -35 13 -8 60 18 90 50 l25 27 -28 24 c-15 13
-36 24 -46 24 -30 0 -32 12 -5 32 16 13 33 18 49 14 27 -7 45 12 24 25 -29 18
-68 9 -105 -26z"/>
<path d="M3096 3813 c-13 -13 -5 -23 33 -42 21 -11 57 -41 79 -66 73 -83 78
-206 16 -346 l-25 -55 -49 24 c-78 38 -84 29 -49 -75 18 -52 28 -99 25 -115
-6 -30 13 -52 41 -46 10 2 27 21 39 43 11 22 36 50 55 62 67 43 73 49 66 66
-4 11 -18 17 -39 17 -57 0 -62 10 -34 70 62 134 58 271 -12 364 -38 49 -131
113 -146 99z m144 -563 c0 -5 -7 -10 -15 -10 -8 0 -15 5 -15 10 0 6 7 10 15
10 8 0 15 -4 15 -10z m-60 -79 c0 -6 -4 -13 -10 -16 -5 -3 -10 1 -10 9 0 9 5
16 10 16 6 0 10 -4 10 -9z"/>
<path d="M1943 3794 c-44 -19 -67 -55 -58 -94 10 -46 84 -76 124 -51 22 14 3
31 -28 25 -21 -5 -35 0 -50 15 -28 28 -15 61 30 76 19 7 34 18 34 25 0 19 -15
20 -52 4z"/>
<path d="M2150 3759 c0 -11 4 -28 10 -38 13 -25 -14 -61 -45 -61 -32 0 -52 35
-29 48 9 5 14 14 10 21 -12 19 -36 12 -47 -13 -13 -28 0 -58 35 -82 21 -13 28
-13 58 -1 42 18 66 64 49 95 -6 11 -8 28 -5 36 4 12 0 16 -15 16 -15 0 -21 -6
-21 -21z"/>
<path d="M1606 3733 c-10 -64 -7 -93 9 -93 8 0 15 8 15 19 0 10 3 39 6 65 5
37 4 46 -8 46 -10 0 -18 -14 -22 -37z"/>
<path d="M11257 3248 c-14 -46 -35 -119 -48 -163 -12 -44 -25 -84 -29 -88 -4
-4 -32 -8 -64 -8 -73 -1 -71 -23 3 -27 49 -3 52 -5 47 -25 -19 -76 -27 -130
-22 -143 9 -24 23 -8 30 33 13 75 31 135 41 139 5 2 28 5 49 7 58 4 59 27 2
27 -25 0 -46 3 -46 6 0 7 30 108 66 227 28 91 29 97 10 97 -8 0 -23 -31 -39
-82z"/>
<path d="M5737 3228 c-22 -17 -39 -62 -67 -179 l-24 -97 -63 -22 c-36 -13 -63
-28 -63 -36 0 -18 10 -18 69 5 l48 18 -13 -53 c-8 -28 -23 -71 -33 -95 -20
-44 -19 -59 2 -59 12 0 23 25 57 139 22 73 26 78 59 83 38 5 39 28 1 28 -25 0
-30 3 -26 18 3 9 15 56 27 104 12 48 27 95 34 105 13 17 14 17 32 0 34 -30 46
0 13 33 -23 23 -30 24 -53 8z"/>
<path d="M7526 3202 c-9 -17 -32 -99 -52 -183 -19 -84 -40 -161 -45 -171 -13
-24 -16 -167 -4 -168 6 0 13 19 17 42 3 24 11 61 17 83 5 22 24 105 42 185 17
80 38 162 47 183 19 50 1 74 -22 29z"/>
<path d="M12900 3166 c0 -41 -39 -163 -62 -192 -4 -6 -28 -60 -53 -120 -32
-78 -42 -111 -34 -119 8 -7 14 -4 23 10 17 31 106 119 112 112 3 -3 -2 -39
-12 -80 -9 -41 -14 -82 -11 -92 10 -24 33 -12 29 15 -1 13 7 56 18 96 12 41
18 79 15 84 -9 15 -48 12 -73 -6 -13 -9 -25 -14 -27 -12 -3 2 11 36 29 75 53
111 78 186 74 228 -5 57 -28 58 -28 1z"/>
<path d="M3996 3153 c-3 -21 -6 -62 -6 -92 0 -57 -19 -143 -51 -229 -25 -68
-24 -87 3 -106 31 -22 74 -20 125 5 72 35 106 104 78 159 -28 54 -70 50 -137
-13 -16 -14 -28 -25 -28 -24 0 1 7 25 16 52 9 28 19 93 24 145 5 52 12 105 16
118 5 18 2 22 -14 22 -15 0 -21 -9 -26 -37z m112 -265 c7 -7 12 -26 12 -44 0
-56 -92 -117 -150 -99 -11 3 -20 10 -20 14 0 12 124 141 136 141 5 0 15 -5 22
-12z"/>
<path d="M6647 3183 c-3 -5 -8 -26 -12 -48 -4 -22 -14 -59 -22 -82 -12 -34
-21 -43 -47 -48 -81 -17 -106 -26 -106 -42 0 -11 6 -14 23 -9 62 17 97 18 97
4 0 -14 -42 -159 -55 -190 -5 -13 -3 -18 8 -18 22 0 25 7 58 123 16 55 31 103
34 105 2 2 20 5 40 6 33 1 59 21 49 37 -2 4 -22 5 -44 2 l-40 -6 14 34 c20 48
30 125 18 133 -6 3 -13 3 -15 -1z"/>
<path d="M2230 3155 c-170 -50 -200 -61 -200 -73 0 -16 30 -28 39 -15 11 17
261 70 278 60 5 -3 28 -6 53 -8 58 -3 80 -22 80 -68 0 -57 -27 -168 -55 -228
-26 -58 -32 -98 -15 -108 10 -6 19 11 54 107 17 46 56 98 75 98 5 0 17 -23 26
-50 20 -59 38 -80 70 -80 16 0 25 -7 29 -25 9 -36 47 -57 97 -53 53 4 63 24
13 26 -56 2 -73 11 -80 39 -6 21 -2 30 22 47 40 29 74 63 74 75 0 6 -8 15 -18
20 -28 15 -63 -8 -91 -57 -32 -59 -59 -55 -84 13 -24 66 -35 78 -69 73 l-27
-4 5 70 c7 81 -6 129 -33 125 -10 -2 -32 5 -50 14 -38 20 -128 21 -193 2z"/>
<path d="M4326 3152 c-10 -16 -89 -309 -95 -354 -7 -48 1 -88 19 -88 5 0 10
22 10 50 0 29 19 117 45 209 25 87 45 166 45 175 0 17 -15 22 -24 8z"/>
<path d="M10532 3134 c2 -11 11 -20 22 -22 13 -3 17 1 14 14 -2 11 -11 20 -22
22 -13 3 -17 -1 -14 -14z"/>
<path d="M7055 3118 c-20 -65 -35 -118 -40 -144 -6 -29 -10 -32 -57 -37 -56
-7 -63 -11 -54 -26 4 -6 25 -8 52 -4 l45 6 -7 -29 c-4 -16 -15 -62 -25 -103
-11 -41 -19 -78 -19 -83 0 -16 29 -8 33 10 3 9 15 58 28 109 l23 92 45 3 c52
3 54 22 2 25 -18 1 -35 4 -37 6 -2 2 5 37 16 78 11 41 20 82 20 92 0 20 -19
23 -25 5z"/>
<path d="M11433 3113 c-15 -5 -17 -29 -5 -37 12 -7 52 4 52 15 0 12 -33 27
-47 22z"/>
<path d="M2236 2988 c-4 -57 -9 -144 -13 -194 -4 -62 -2 -93 5 -98 17 -11 25
42 39 282 5 96 4 112 -9 112 -12 0 -16 -21 -22 -102z"/>
<path d="M8121 3009 c-59 -20 -108 -60 -117 -95 -7 -29 18 -76 50 -94 35 -18
33 -25 -14 -47 -40 -18 -54 -43 -24 -43 22 0 81 37 93 58 8 13 0 26 -35 58
-24 22 -44 46 -44 53 0 23 48 59 108 81 35 13 62 29 62 36 0 17 -11 16 -79 -7z"/>
<path d="M10467 3024 c-4 -4 -7 -26 -7 -48 0 -42 -29 -118 -49 -130 -13 -9
-15 -46 -2 -46 13 0 48 50 65 92 27 65 22 161 -7 132z"/>
<path d="M12517 3015 c-50 -17 -117 -64 -117 -81 0 -19 25 -18 41 2 11 14 81
54 94 54 13 0 2 -23 -41 -87 -70 -104 -78 -122 -59 -129 10 -4 31 6 55 25 l38
31 19 -38 c14 -29 24 -38 49 -40 36 -4 85 32 110 79 17 34 10 97 -13 106 -22
9 -27 -4 -14 -36 10 -24 10 -34 -3 -59 -18 -35 -52 -62 -77 -62 -11 0 -24 16
-35 46 -13 35 -21 44 -36 41 -10 -3 -18 -4 -18 -2 0 1 16 29 35 61 53 88 44
114 -28 89z"/>
<path d="M11865 3005 c-16 -8 -52 -39 -78 -68 l-48 -52 20 42 c24 49 26 63 8
63 -8 0 -33 -41 -57 -91 -39 -81 -41 -92 -28 -106 14 -14 23 -6 86 74 39 49
83 95 99 103 15 8 32 16 37 19 10 5 3 -9 -26 -51 -26 -38 -23 -80 9 -112 23
-24 32 -26 72 -21 76 10 91 15 91 29 0 13 -47 13 -105 1 -23 -5 -55 21 -55 46
0 10 14 40 31 68 17 27 28 54 24 60 -9 15 -45 13 -80 -4z"/>
<path d="M7857 2973 c-66 -49 -71 -77 -21 -121 37 -32 38 -34 20 -48 -11 -8
-32 -15 -48 -15 -40 -2 -45 -3 -54 -11 -13 -13 43 -27 74 -19 80 23 96 69 37
111 -19 14 -35 28 -35 32 0 12 87 78 103 78 10 0 14 5 11 15 -9 23 -35 17 -87
-22z"/>
<path d="M8703 2975 c-65 -44 -103 -97 -103 -146 0 -63 66 -123 123 -112 43 8
34 33 -12 33 -47 0 -81 35 -81 82 0 37 66 109 126 138 43 21 50 40 16 40 -10
0 -41 -16 -69 -35z"/>
<path d="M9736 2977 c-14 -18 -38 -42 -54 -54 l-29 -22 4 43 c5 45 -4 60 -30
50 -8 -3 -36 -37 -61 -75 -25 -38 -48 -69 -50 -69 -2 0 3 19 11 42 14 40 10
80 -6 62 -16 -18 -53 -133 -49 -155 2 -13 10 -24 18 -24 16 0 130 160 130 182
0 7 5 13 10 13 13 0 13 -1 -5 -43 -19 -46 -19 -77 0 -77 8 0 39 20 69 45 l55
44 -6 -47 c-5 -42 -2 -52 20 -78 19 -22 28 -26 37 -17 9 8 7 16 -10 33 -16 16
-21 30 -17 50 3 15 9 50 13 79 5 43 4 51 -9 51 -9 0 -27 -15 -41 -33z"/>
<path d="M10230 2964 c-44 -41 -49 -43 -46 -22 1 13 5 29 9 35 9 15 -12 28
-24 16 -5 -5 -14 -35 -19 -65 -5 -31 -14 -65 -22 -77 -9 -15 -9 -24 -2 -31 8
-8 27 9 68 59 55 68 91 99 104 87 11 -12 15 -116 3 -116 -6 0 -11 -7 -11 -16
0 -10 7 -14 23 -12 19 3 22 10 25 55 2 29 -2 70 -8 93 -14 54 -38 52 -100 -6z"/>
<path d="M9247 2982 c-10 -10 -14 -22 -10 -27 5 -4 3 -5 -4 -1 -7 3 -24 -6
-38 -21 l-27 -28 7 25 c4 14 10 31 12 38 6 14 -23 17 -32 3 -3 -5 -9 -29 -14
-53 -5 -24 -13 -53 -16 -65 -13 -41 17 -26 73 34 l52 58 -20 -48 c-24 -59 -25
-77 -4 -77 23 0 106 71 100 86 -5 13 18 27 28 17 3 -4 6 -25 6 -48 0 -44 22
-75 53 -75 24 0 21 17 -4 31 -19 10 -21 17 -16 62 3 29 8 62 12 75 5 16 3 22
-7 22 -18 0 -51 -34 -41 -43 3 -4 -2 -7 -11 -7 -10 0 -31 -14 -48 -30 -17 -17
-32 -29 -34 -27 -3 2 5 25 16 51 11 26 20 52 20 57 0 16 -36 10 -53 -9z"/>
<path d="M9861 2981 c-6 -10 -13 -44 -17 -74 -6 -51 -4 -58 19 -81 14 -14 33
-26 42 -26 31 0 82 28 102 56 22 32 50 130 41 140 -13 12 -26 -7 -39 -56 -15
-58 -56 -102 -94 -102 -46 0 -51 22 -29 130 7 36 -9 44 -25 13z"/>
<path d="M10884 2989 c-25 -13 -54 -59 -54 -88 0 -26 28 -41 56 -31 19 7 22 5
22 -17 0 -14 6 -29 13 -34 11 -7 15 2 20 39 8 58 -1 69 -41 52 -39 -16 -47 -8
-26 25 13 20 22 24 41 19 27 -7 35 12 13 34 -14 14 -16 14 -44 1z"/>
<path d="M3385 2968 c-15 -11 -40 -39 -55 -60 -16 -22 -31 -34 -35 -28 -15 24
-25 6 -25 -44 0 -29 -9 -111 -20 -182 -24 -154 -25 -184 -6 -184 13 0 28 63
52 218 5 35 10 42 23 36 46 -19 61 -16 95 20 37 38 76 129 76 174 0 37 -26 72
-54 72 -13 0 -36 -10 -51 -22z m70 -28 c10 -33 -23 -128 -59 -167 -28 -31 -35
-34 -54 -24 -33 17 -30 75 7 133 45 71 93 98 106 58z"/>
<path d="M10626 2962 c-40 -29 -65 -65 -66 -95 0 -33 29 -75 61 -86 39 -13 79
-14 79 -2 0 5 3 17 7 27 5 15 1 16 -40 10 -40 -6 -47 -4 -61 16 -9 12 -16 29
-16 37 0 21 77 91 100 91 11 0 20 7 20 15 0 24 -41 17 -84 -13z"/>
<path d="M3589 2965 c-29 -16 -63 -85 -74 -152 -6 -38 -5 -43 13 -43 15 0 19
8 20 35 3 69 66 169 80 127 2 -7 10 -12 17 -12 19 0 12 31 -11 46 -15 10 -24
10 -45 -1z"/>
<path d="M6300 2967 c-52 -18 -52 -51 0 -108 22 -24 40 -47 40 -51 0 -5 -10
-18 -21 -29 -17 -17 -30 -20 -66 -16 -24 2 -52 12 -62 21 -21 20 -31 20 -31 3
0 -26 38 -48 92 -54 48 -5 57 -3 86 22 44 37 42 66 -8 118 -22 22 -39 46 -37
52 2 5 27 14 55 19 29 6 51 14 49 20 -5 16 -56 17 -97 3z"/>
<path d="M8975 2964 c4 -11 9 -37 11 -59 6 -47 -22 -92 -50 -82 -24 9 -19 45
9 71 30 28 31 36 7 36 -46 0 -78 -86 -46 -121 21 -24 69 -20 89 8 34 45 27
154 -10 162 -14 2 -16 -1 -10 -15z"/>
<path d="M11312 2902 c-42 -106 -47 -129 -32 -147 17 -20 29 -10 28 24 -1 28
36 136 54 156 13 15 9 45 -6 45 -9 0 -27 -31 -44 -78z"/>
<path d="M7615 2951 c-68 -42 -122 -182 -86 -225 23 -27 111 -15 111 15 0 8
-15 9 -45 5 l-45 -7 0 35 c0 45 9 66 24 60 18 -7 67 13 94 38 26 25 29 60 6
82 -20 20 -23 20 -59 -3z m43 -37 c-4 -19 -54 -51 -64 -41 -10 9 35 57 53 57
8 0 13 -7 11 -16z"/>
<path d="M11543 2959 c-54 -16 -92 -85 -73 -134 10 -26 14 -27 53 -22 62 8 88
42 84 110 -4 57 -10 62 -64 46z m31 -54 c9 -34 -7 -61 -40 -69 -46 -12 -53 30
-13 73 26 28 45 26 53 -4z"/>
<path d="M4418 2940 c-44 -34 -88 -113 -88 -157 0 -67 62 -99 133 -69 62 25
44 48 -20 26 -43 -16 -83 2 -83 35 0 29 24 60 40 50 22 -13 100 46 100 77 0
18 -33 58 -49 58 -4 0 -20 -9 -33 -20z m47 -40 c0 -16 -63 -56 -72 -46 -9 9
49 67 62 63 5 -2 10 -10 10 -17z"/>
<path d="M7179 2947 c-8 -7 -34 -36 -57 -65 -59 -75 -57 -137 5 -170 36 -20
113 -13 113 9 0 5 -19 9 -43 9 -55 0 -89 23 -85 58 2 21 9 26 37 30 45 5 76
26 91 63 23 56 -17 100 -61 66z m34 -46 c-7 -28 -38 -53 -59 -49 -15 3 -13 9
15 40 34 39 53 43 44 9z"/>
<path d="M3797 2944 c-3 -4 0 -16 8 -28 19 -26 19 -40 -1 -81 -16 -33 -64 -62
-83 -50 -28 16 -7 85 37 122 23 20 24 23 9 29 -37 14 -87 -59 -87 -126 0 -33
4 -42 24 -51 77 -36 178 84 135 160 -15 26 -31 36 -42 25z"/>
<path d="M5394 2913 c-36 -37 -64 -88 -64 -117 0 -8 10 -27 23 -42 20 -23 28
-26 60 -20 50 9 95 49 103 91 5 27 0 45 -20 80 -33 56 -53 57 -102 8z m96 -64
c0 -27 -23 -58 -53 -72 -45 -22 -54 -21 -67 2 -13 25 0 58 41 105 l32 36 23
-32 c13 -17 24 -35 24 -39z"/>
<path d="M13032 2904 c-40 -48 -53 -102 -36 -143 14 -33 53 -57 78 -48 22 9
20 27 -3 27 -24 0 -51 26 -51 49 0 12 13 22 40 30 49 15 67 48 48 89 -19 39
-42 38 -76 -4z m48 -19 c0 -17 -7 -28 -22 -34 -32 -12 -33 -7 -8 28 26 38 30
38 30 6z"/>
<path d="M4672 2921 c-7 -4 -23 -6 -35 -4 -18 4 -26 -3 -40 -32 -9 -19 -17
-44 -17 -53 0 -10 -7 -27 -15 -38 -16 -22 -20 -54 -5 -54 5 0 27 27 50 59 49
74 60 81 60 42 0 -37 19 -50 37 -25 22 32 76 85 81 80 2 -3 -6 -34 -18 -70
-27 -83 -18 -109 37 -104 46 4 58 28 14 28 -36 0 -39 14 -16 80 8 23 15 55 15
71 0 38 -30 39 -76 4 l-33 -25 -3 22 c-3 24 -17 32 -36 19z"/>
<path d="M6690 2904 c-55 -47 -75 -108 -44 -138 21 -22 60 -20 100 5 l34 21 0
-29 c0 -28 15 -53 33 -53 5 0 6 14 2 30 -4 17 -1 54 5 81 17 70 1 83 -36 31
-65 -91 -164 -97 -103 -7 30 43 65 63 81 47 17 -17 38 -15 38 3 0 17 -30 35
-59 35 -11 0 -33 -12 -51 -26z"/>
<path d="M13277 2909 c-9 -5 -21 -8 -25 -5 -4 2 -12 2 -18 -2 -13 -9 -94 -132
-94 -143 0 -23 29 -4 67 46 40 51 98 94 111 81 3 -3 -1 -37 -8 -75 -14 -74
-10 -101 14 -101 12 0 14 7 10 29 -4 17 1 52 11 81 16 47 16 53 1 75 -17 26
-40 31 -69 14z"/>
<path d="M6157 2648 c-34 -111 -45 -378 -15 -378 5 0 6 -4 3 -10 -3 -5 -2 -10
3 -10 17 0 20 25 11 76 -11 57 5 247 27 309 17 50 17 65 1 65 -7 0 -21 -24
-30 -52z"/>
<path d="M9534 2653 c-3 -10 -16 -40 -29 -68 -48 -97 -105 -240 -105 -261 0
-12 8 -25 18 -29 33 -12 149 -18 156 -7 6 11 -13 16 -96 28 -27 3 -48 9 -48
13 0 14 89 219 114 261 29 51 33 80 11 80 -9 0 -18 -8 -21 -17z"/>
<path d="M10786 2651 c-3 -5 -3 -16 0 -25 10 -27 -47 -246 -73 -277 -7 -8 -13
-25 -13 -37 0 -19 6 -22 43 -22 59 0 143 26 167 52 22 24 28 95 9 129 -16 31
-54 41 -93 25 l-33 -14 14 61 c8 33 13 71 11 85 -3 27 -22 40 -32 23z m102
-193 c7 -7 12 -29 12 -50 0 -28 -6 -41 -22 -52 -27 -17 -116 -41 -124 -33 -3
3 0 24 6 47 19 70 94 122 128 88z"/>
<path d="M5020 2643 c0 -5 4 -34 10 -66 10 -66 -2 -116 -28 -115 -9 1 -44 -4
-76 -11 -33 -6 -65 -11 -72 -11 -14 0 -11 32 11 132 7 31 10 59 7 62 -18 18
-29 -2 -41 -71 -21 -128 -18 -124 -69 -106 -24 8 -46 12 -49 9 -11 -11 17 -33
55 -44 l37 -11 0 -88 c0 -94 18 -133 22 -48 2 28 5 69 8 91 l6 42 76 11 c42 6
78 10 80 7 2 -2 -5 -27 -17 -55 -11 -28 -20 -61 -20 -71 0 -35 37 -22 79 28
95 113 90 108 101 92 5 -8 10 -31 10 -51 0 -58 11 -99 27 -99 11 0 12 13 7 68
-8 89 -21 122 -48 122 -23 0 -66 -40 -106 -98 -12 -18 -24 -31 -26 -29 -3 2
12 45 31 96 34 89 35 93 24 156 -7 44 -16 65 -25 65 -8 0 -14 -3 -14 -7z"/>
<path d="M8756 2618 c-2 -7 -9 -47 -16 -88 -18 -123 -84 -242 -124 -227 -23 9
-20 36 10 74 16 21 33 33 50 33 15 0 24 6 24 15 0 10 -10 15 -29 15 -21 0 -39
-11 -65 -41 -31 -33 -37 -47 -34 -77 2 -30 8 -38 31 -46 42 -15 74 8 113 80
33 59 81 245 68 265 -8 13 -24 11 -28 -3z"/>
<path d="M10240 2620 c-12 -8 -12 -14 3 -44 9 -20 19 -64 23 -100 8 -82 -19
-148 -73 -174 -34 -16 -35 -16 -54 7 -24 30 -24 41 4 82 20 28 29 34 56 31 26
-2 32 1 29 15 -2 13 -14 19 -40 21 -35 3 -40 0 -68 -44 -33 -52 -36 -73 -18
-107 26 -49 64 -59 114 -28 46 28 73 79 83 159 14 111 -17 208 -59 182z"/>
<path d="M11342 2501 c-34 -136 -41 -206 -20 -199 6 2 19 44 29 94 10 49 24
116 33 149 19 72 20 85 3 85 -8 0 -24 -47 -45 -129z"/>
<path d="M2680 2508 c-7 -62 -18 -132 -26 -157 -17 -55 -18 -88 -4 -96 19 -12
59 24 85 75 23 46 27 49 48 39 25 -11 57 -57 57 -82 0 -16 27 -43 36 -34 3 3
0 23 -5 45 -11 40 -53 94 -81 104 -13 5 -13 8 2 23 11 12 16 13 15 4 -4 -33
20 -16 46 32 50 92 -5 88 -78 -7 -17 -21 -36 -39 -44 -39 -8 0 -16 -6 -18 -12
-3 -7 0 -13 7 -13 6 0 -1 -22 -16 -50 -15 -28 -28 -49 -30 -48 -1 2 4 26 11
54 13 51 35 208 35 252 0 12 -6 22 -14 22 -10 0 -17 -30 -26 -112z"/>
<path d="M6773 2538 c6 -80 -2 -112 -31 -116 -15 -2 -22 -9 -20 -20 2 -10 11
-16 23 -14 18 2 22 -7 33 -75 6 -42 16 -81 22 -87 17 -17 22 21 11 74 -6 28
-11 64 -11 80 0 29 2 30 45 30 38 0 45 3 45 19 0 22 -19 38 -29 25 -3 -5 -19
-11 -35 -12 -24 -3 -28 -1 -22 14 4 10 4 47 0 81 -5 47 -10 63 -22 63 -12 0
-14 -11 -9 -62z"/>
<path d="M3010 2576 c0 -25 12 -46 26 -46 15 0 18 18 8 44 -8 20 -34 21 -34 2z"/>
<path d="M4632 2543 c2 -10 14 -19 26 -21 19 -3 23 1 20 15 -2 10 -14 19 -26
21 -19 3 -23 -1 -20 -15z"/>
<path d="M12558 2533 c-7 -8 -20 -32 -29 -52 -10 -20 -18 -30 -18 -23 -1 6 -8
12 -16 12 -13 0 -14 -12 -9 -72 4 -40 8 -75 10 -77 11 -12 34 13 34 36 0 38
41 153 54 153 6 0 22 -9 36 -20 29 -22 50 -26 50 -7 0 13 -28 34 -72 54 -22 9
-29 9 -40 -4z"/>
<path d="M4275 2532 c-39 -8 -135 -55 -135 -67 0 -23 11 -22 66 7 58 28 84 35
84 20 0 -5 -20 -40 -45 -78 -69 -107 -56 -124 40 -49 32 24 61 42 65 40 4 -3
10 -18 14 -35 7 -37 51 -80 81 -80 33 0 50 27 51 79 0 25 4 54 8 63 5 11 3 16
-6 14 -30 -4 -38 -19 -38 -72 0 -40 -4 -54 -14 -54 -21 0 -53 45 -60 85 -10
50 -30 53 -77 15 l-40 -32 30 54 c17 30 31 62 31 70 0 17 -24 26 -55 20z"/>
<path d="M7233 2506 c-25 -21 -28 -32 -31 -97 -4 -81 9 -129 34 -129 13 0 15
5 9 23 -14 40 -17 131 -5 161 10 26 14 28 50 23 30 -4 40 -2 40 8 0 16 -6 20
-42 29 -20 4 -34 0 -55 -18z"/>
<path d="M12846 2520 c-41 -13 -75 -47 -69 -71 3 -10 24 -34 47 -51 92 -73 89
-101 -6 -53 -61 31 -70 31 -66 3 6 -46 138 -80 168 -43 17 20 -20 78 -71 112
-59 39 -49 63 32 78 28 5 38 3 42 -9 8 -21 24 -20 24 2 1 40 -35 51 -101 32z"/>
<path d="M1857 2491 c-58 -34 -61 -37 -52 -50 4 -7 27 0 65 19 33 17 64 30 70
30 5 0 -9 -36 -31 -79 -24 -45 -39 -86 -36 -95 9 -22 40 -20 62 4 18 20 18 20
38 -12 24 -40 35 -48 69 -48 40 0 78 20 84 47 3 12 1 46 -6 74 -10 41 -10 53
0 59 15 9 5 30 -15 30 -29 0 -35 -35 -18 -95 16 -55 16 -58 -2 -71 -44 -33
-95 -1 -95 58 0 35 -19 36 -50 3 -13 -14 -25 -23 -27 -21 -3 2 13 35 34 74 32
60 36 72 24 86 -20 23 -59 19 -114 -13z"/>
<path d="M8143 2483 c-47 -44 -76 -95 -71 -126 2 -17 11 -23 36 -25 29 -3 41
4 83 46 52 52 59 48 33 -17 -17 -44 -16 -102 4 -109 8 -2 12 8 12 31 0 19 7
51 15 70 8 20 18 60 21 91 6 54 6 56 -20 66 -46 17 -71 11 -113 -27z m87 -2
c0 -17 -65 -95 -92 -111 -55 -30 -43 16 20 83 33 34 72 49 72 28z"/>
<path d="M5840 2499 c-67 -27 -116 -111 -91 -158 15 -27 79 -43 159 -39 101 6
90 25 -17 29 -70 3 -94 8 -108 22 -17 17 -17 19 2 54 11 20 36 44 55 54 30 17
36 17 57 4 28 -19 43 -19 43 0 0 8 -13 21 -30 30 -33 17 -36 17 -70 4z"/>
<path d="M8465 2493 c-16 -9 -45 -28 -64 -42 -32 -24 -34 -24 -23 -4 16 28 15
33 -3 33 -9 0 -20 -12 -26 -27 -6 -16 -17 -42 -25 -60 -21 -51 1 -49 64 5 51
44 92 72 105 72 3 0 -6 -34 -20 -75 -23 -69 -25 -105 -6 -105 8 0 64 175 63
196 0 7 -7 15 -16 18 -19 7 -13 9 -49 -11z"/>
<path d="M6543 2475 c-37 -16 -57 -47 -47 -77 3 -11 24 -40 45 -63 33 -35 37
-44 25 -54 -8 -6 -20 -10 -27 -9 -8 2 -14 -4 -14 -12 0 -26 51 -24 69 2 24 33
20 45 -24 89 -52 51 -53 83 -5 99 19 6 39 9 44 6 5 -3 17 -3 27 1 16 6 16 7
-2 20 -23 16 -50 16 -91 -2z"/>
<path d="M9874 2448 c-39 -36 -45 -46 -42 -77 3 -31 7 -36 31 -39 15 -2 43 6
62 17 33 19 35 19 35 2 0 -26 34 -66 49 -57 9 6 9 11 1 21 -18 22 -28 69 -19
93 7 19 3 29 -20 53 -16 16 -34 29 -40 29 -7 0 -32 -19 -57 -42z m76 -17 c0
-21 -53 -71 -76 -71 -23 0 -16 32 13 62 31 33 63 37 63 9z"/>
<path d="M11550 2483 c-55 -21 -119 -104 -107 -137 10 -24 52 -19 88 11 l32
27 -5 -34 c-6 -39 6 -80 22 -80 7 0 10 34 9 98 -2 123 -4 128 -39 115z m-5
-63 c-16 -30 -61 -67 -71 -57 -7 6 65 87 77 87 5 0 3 -13 -6 -30z"/>
<path d="M6277 2473 c-2 -5 -7 -36 -11 -70 -8 -72 7 -112 47 -130 42 -20 80
-3 95 43 18 52 7 164 -15 164 -13 0 -15 -9 -10 -52 3 -29 3 -69 -1 -88 -10
-46 -52 -55 -77 -16 -16 24 -16 36 1 129 4 20 2 27 -10 27 -8 0 -17 -3 -19 -7z"/>
<path d="M7490 2463 c-47 -24 -49 -48 -8 -90 l33 -34 -25 -21 c-16 -13 -34
-18 -53 -15 -21 3 -27 0 -25 -12 5 -26 59 -25 98 1 46 31 48 51 10 89 -17 18
-29 38 -26 45 7 18 74 30 89 15 18 -18 29 -13 25 12 -2 18 -10 22 -43 25 -24
1 -54 -5 -75 -15z"/>
<path d="M11727 2460 c-22 -18 -26 -18 -31 -4 -10 27 -36 -3 -36 -42 0 -18 -4
-36 -10 -39 -15 -9 -13 -58 2 -53 7 3 20 20 31 39 27 50 77 95 88 78 13 -21
11 -61 -7 -113 -12 -35 -13 -51 -5 -59 18 -18 45 59 46 131 0 45 -4 65 -15 72
-22 14 -34 12 -63 -10z"/>
<path d="M11951 2425 c-54 -60 -60 -81 -36 -119 19 -29 101 -66 151 -69 50 -3
55 19 7 26 -47 8 -123 46 -137 69 -8 13 -2 27 31 65 35 41 46 48 73 45 25 -2
31 1 28 15 -2 12 -14 19 -34 21 -27 3 -38 -5 -83 -53z"/>
<path d="M12285 2465 c-21 -8 -47 -24 -57 -37 -23 -30 -23 -99 0 -127 29 -36
162 -57 162 -26 0 8 -8 15 -17 15 -48 1 -100 14 -115 28 -29 24 -22 42 15 42
53 0 105 72 77 105 -15 18 -15 18 -65 0z m35 -38 c0 -20 -22 -37 -47 -37 -29
0 -29 14 -1 34 27 19 48 21 48 3z"/>
<path d="M7003 2425 c-24 -25 -43 -54 -43 -65 0 -58 44 -90 122 -90 35 0 39 2
36 23 -2 14 -9 21 -18 18 -36 -9 -85 -2 -97 15 -18 25 -16 43 5 38 28 -8 94
19 102 41 12 33 -6 65 -36 65 -19 0 -40 -13 -71 -45z m75 -2 c-2 -12 -14 -19
-33 -21 l-30 -2 24 20 c29 25 44 26 39 3z"/>
<path d="M9679 2439 c-52 -56 -48 -104 13 -135 61 -32 102 13 86 94 -14 80
-49 94 -99 41z m65 -21 c11 -41 7 -86 -8 -91 -15 -6 -66 28 -66 43 0 12 50 70
60 70 4 0 10 -10 14 -22z"/>
<path d="M11062 2449 c-33 -22 -62 -65 -62 -93 0 -20 34 -38 57 -29 10 3 28
15 39 25 l21 19 7 -49 c7 -51 35 -90 56 -77 8 5 6 13 -6 26 -21 24 -30 145
-12 167 9 10 8 16 -3 23 -23 15 -62 10 -97 -12z m47 -31 c-19 -37 -41 -58 -60
-58 -16 0 -17 4 -8 23 10 22 54 56 72 57 4 0 2 -10 -4 -22z"/>
<path d="M2262 2426 c-33 -49 -42 -87 -27 -123 16 -38 39 -47 82 -32 40 13 49
40 33 98 -6 23 -8 46 -5 51 6 9 -32 40 -50 40 -5 0 -20 -15 -33 -34z m65 -101
c-1 -15 -9 -20 -32 -20 -25 0 -31 4 -33 27 -2 15 5 42 14 60 l17 33 19 -40
c10 -22 17 -49 15 -60z"/>
<path d="M2450 2415 c-15 -18 -35 -136 -27 -158 3 -9 12 -17 19 -17 9 0 13 18
14 58 1 77 17 106 54 99 33 -7 44 1 29 20 -15 17 -73 17 -89 -2z"/>
<path d="M2952 2363 c0 -32 -2 -67 -4 -78 -2 -13 3 -20 12 -20 21 0 37 97 22
130 -19 40 -29 29 -30 -32z"/>
<path d="M4592 2393 c-1 -15 -3 -41 -5 -58 -1 -21 3 -30 15 -33 12 -2 17 4 18
25 0 15 1 41 3 58 1 20 -3 30 -14 33 -11 2 -16 -5 -17 -25z"/>
<path d="M3367 2399 c-19 -11 -47 -60 -47 -84 0 -8 9 -24 19 -34 17 -17 26
-18 53 -10 18 5 38 16 45 25 10 14 13 11 17 -20 3 -20 9 -53 13 -73 6 -36 6
-53 -1 -97 -2 -13 -17 -24 -49 -33 -25 -7 -53 -23 -62 -35 -22 -33 -20 -103 5
-128 52 -52 130 9 130 102 0 25 3 28 32 26 41 -4 47 16 8 28 l-30 9 -4 95 c-3
81 -20 184 -33 199 -2 3 -19 -12 -38 -33 -54 -59 -100 -37 -49 23 28 34 23 58
-9 40z m93 -378 c0 -65 -45 -115 -77 -89 -19 15 -16 72 5 90 41 36 72 35 72
-1z"/>
<path d="M3117 2388 c-18 -14 -68 -133 -59 -142 3 -3 13 -6 22 -6 13 0 19 11
23 40 3 23 13 53 23 68 l18 27 12 -30 c7 -17 13 -43 14 -60 1 -46 11 -75 26
-75 19 0 9 100 -15 150 -18 39 -37 47 -64 28z"/>
<path d="M9104 2306 c-3 -9 -4 -22 -1 -28 8 -23 -11 -202 -27 -255 -19 -59
-106 -163 -137 -163 -27 0 -26 68 2 104 24 30 69 56 99 56 11 0 20 7 20 15 0
18 -41 20 -73 4 -74 -38 -120 -124 -95 -177 42 -87 183 30 222 183 20 80 26
266 9 272 -7 3 -16 -2 -19 -11z"/>
<path d="M5430 2273 c-7 -16 -18 -55 -25 -88 -31 -146 -29 -142 -93 -156 -72
-15 -97 -28 -85 -40 7 -7 33 -5 74 5 35 8 64 14 65 13 0 -1 -3 -44 -8 -96 -4
-52 -6 -96 -3 -99 13 -13 27 20 31 74 10 124 11 124 52 124 59 0 85 -10 71
-26 -14 -16 -4 -62 18 -86 20 -22 71 -23 101 -2 60 42 -11 172 -75 136 -10 -6
-33 -4 -62 5 -25 7 -54 12 -63 9 -24 -6 -23 12 8 119 14 50 28 100 31 113 8
32 -21 29 -37 -5z m190 -324 c0 -43 -72 -50 -83 -8 -4 15 2 25 26 40 30 18 33
18 45 2 6 -9 12 -24 12 -34z"/>
<path d="M4000 2220 c0 -11 -25 -94 -55 -185 -30 -90 -55 -171 -55 -180 0 -26
30 -16 49 18 51 86 66 106 87 118 13 7 26 10 29 8 2 -3 0 -32 -5 -64 -10 -59
-4 -74 25 -75 8 0 13 111 7 158 -3 21 -59 13 -91 -14 -17 -14 -31 -24 -31 -21
0 2 16 50 35 106 38 111 44 151 20 151 -8 0 -15 -9 -15 -20z"/>
<path d="M9917 2193 c-8 -16 -20 -45 -26 -65 -11 -32 -16 -37 -48 -40 -46 -4
-58 -28 -14 -28 l30 0 -19 -42 c-27 -60 -26 -103 5 -134 21 -21 33 -25 72 -22
55 4 73 28 21 28 -86 0 -103 29 -68 114 l21 54 76 8 c51 6 78 14 81 23 4 12
-8 13 -67 8 -39 -3 -71 -4 -71 -3 0 15 32 75 41 78 13 4 3 48 -11 48 -5 0 -16
-12 -23 -27z"/>
<path d="M2431 2188 c-5 -13 -12 -52 -15 -88 -11 -97 -26 -179 -39 -207 -11
-24 -60 -57 -70 -47 -9 10 12 67 34 90 21 22 21 24 4 30 -37 14 -88 -93 -65
-136 13 -25 36 -25 77 0 47 28 63 68 80 198 13 101 20 131 41 175 2 4 -6 7
-17 7 -13 0 -25 -9 -30 -22z"/>
<path d="M7107 2193 c-4 -3 -7 -12 -7 -20 0 -7 -22 -72 -50 -143 -27 -71 -50
-134 -50 -139 0 -15 31 -42 41 -35 5 3 7 21 3 39 -6 32 -4 34 42 55 79 36 133
18 172 -59 19 -38 42 -52 42 -26 0 48 -82 135 -127 135 -26 0 -26 0 -7 21 10
11 40 34 66 52 30 18 45 34 39 40 -16 16 -50 -3 -115 -64 -55 -51 -86 -71 -86
-55 0 3 13 37 29 78 41 101 47 128 29 128 -8 0 -18 -3 -21 -7z"/>
<path d="M10145 2189 c-13 -34 -85 -272 -85 -280 0 -22 29 -5 63 36 55 65 71
61 62 -15 -6 -49 -4 -60 8 -60 15 0 27 46 27 108 0 25 -6 35 -25 44 -22 10
-29 8 -50 -12 -14 -13 -25 -20 -25 -16 0 4 12 47 27 97 20 67 24 92 15 101 -9
9 -13 8 -17 -3z"/>
<path d="M10644 2188 c-5 -7 -20 -42 -34 -78 l-25 -65 -58 -9 c-69 -11 -71
-32 -3 -29 41 1 47 -1 40 -15 -4 -9 -9 -45 -12 -79 -4 -53 -2 -63 12 -63 12 0
16 11 17 48 0 26 6 63 13 82 13 35 14 35 81 40 42 3 70 10 73 18 3 9 -14 12
-62 12 l-65 0 25 67 c15 41 21 70 16 75 -6 6 -13 5 -18 -4z"/>
<path d="M4656 2020 c-6 -76 -11 -92 -29 -105 -39 -27 -56 -19 -59 27 -4 50
-24 61 -39 21 -12 -34 -58 -83 -76 -83 -7 0 -13 9 -13 20 0 26 29 101 49 123
13 16 13 19 1 27 -20 13 -34 -4 -59 -68 -41 -103 -18 -162 49 -127 17 9 35 24
41 34 11 16 13 16 34 -5 20 -20 28 -22 56 -14 51 15 62 33 75 125 13 89 11
115 -11 115 -9 0 -15 -28 -19 -90z"/>
<path d="M1899 2048 c-29 -31 -59 -96 -59 -131 0 -39 39 -57 75 -33 24 16 25
16 25 -3 0 -31 11 -51 27 -51 11 0 14 7 10 26 -2 14 0 62 5 107 8 72 7 83 -9
94 -25 19 -50 16 -74 -9z m59 -25 c13 -25 -36 -107 -66 -111 -12 -2 -22 2 -22
8 0 18 30 83 47 102 20 23 30 23 41 1z"/>
<path d="M7908 2037 c-57 -43 -80 -102 -55 -141 22 -33 62 -34 94 -4 l23 21 0
-21 c0 -24 27 -55 41 -46 5 3 5 14 -2 26 -12 22 -4 104 12 113 5 4 9 10 9 15
0 15 -51 70 -65 70 -7 0 -33 -15 -57 -33z m70 -58 c-11 -31 -61 -79 -83 -79
-41 0 -18 81 34 116 32 22 37 23 48 8 8 -11 8 -24 1 -45z"/>
<path d="M8715 2058 c-29 -96 -38 -119 -46 -123 -5 -4 -9 -13 -9 -21 0 -29 30
-13 76 41 26 30 52 55 57 55 4 0 7 -23 5 -51 -4 -71 16 -75 30 -6 19 96 -6
123 -67 72 l-30 -26 6 36 c4 23 2 35 -6 35 -6 0 -13 -6 -16 -12z"/>
<path d="M4247 2011 c-55 -58 -66 -91 -43 -126 25 -38 69 -34 113 10 32 32 35
39 28 73 -4 20 -8 43 -9 50 -1 7 -12 19 -23 27 -19 14 -24 11 -66 -34z m58
-11 c15 -25 8 -74 -15 -92 -67 -54 -89 11 -27 80 23 24 33 27 42 12z"/>
<path d="M8491 2047 c-19 -23 -41 -85 -41 -115 0 -94 140 -60 194 47 23 45 24
61 5 61 -5 0 -17 -17 -28 -39 -37 -71 -121 -118 -137 -76 -9 22 15 84 37 96
16 8 18 13 8 25 -14 17 -23 18 -38 1z"/>
<path d="M6256 2027 c-38 -30 -20 -43 28 -20 20 9 39 14 42 10 4 -4 -11 -35
-34 -69 -22 -34 -39 -65 -36 -70 10 -16 35 -7 75 29 33 30 42 34 50 22 5 -8 9
-19 9 -25 0 -16 34 -44 53 -44 9 0 28 10 43 23 22 19 28 34 32 81 4 53 3 58
-14 54 -15 -3 -19 -12 -19 -52 -1 -76 -52 -100 -71 -34 -13 45 -37 57 -65 33
l-22 -20 17 27 c10 15 16 37 14 50 -5 34 -63 37 -102 5z"/>
<path d="M6609 2008 c-36 -40 -45 -71 -30 -104 9 -20 18 -24 51 -24 57 0 84
29 77 82 -6 42 -31 78 -54 78 -8 0 -28 -15 -44 -32z m65 -41 c12 -32 -6 -57
-41 -57 -33 0 -39 24 -13 60 25 35 41 35 54 -3z"/>
<path d="M8126 2016 c-32 -19 -42 -32 -52 -72 -8 -33 -9 -55 -2 -67 14 -26 33
-15 31 18 -5 60 48 118 98 108 36 -7 41 21 7 31 -35 9 -40 8 -82 -18z"/>
<path d="M6772 2015 c-46 -33 -69 -119 -37 -145 12 -10 16 -9 21 4 3 9 4 26 1
38 -7 25 16 73 38 82 9 3 30 6 47 6 42 0 31 24 -13 28 -19 1 -44 -4 -57 -13z"/>
<path d="M8306 2003 c-16 -15 -35 -38 -43 -50 -43 -65 63 -104 110 -41 17 23
19 34 11 70 -11 54 -38 61 -78 21z m49 -33 c9 -28 -12 -60 -40 -60 -35 0 -38
15 -9 49 30 36 40 38 49 11z"/>
<path d="M10332 2013 c-7 -3 -22 -23 -33 -45 -35 -68 2 -112 59 -72 21 15 22
14 22 -13 0 -15 4 -34 9 -42 15 -24 29 -2 24 38 -3 21 0 47 5 58 8 14 8 23 0
31 -8 8 -22 2 -52 -26 -33 -29 -42 -33 -44 -20 -5 25 16 58 44 68 14 6 22 14
19 20 -6 10 -31 12 -53 3z"/>
<path d="M2097 1957 c-31 -31 -47 -58 -56 -92 -20 -79 2 -78 42 1 19 38 45 78
57 89 l22 20 -6 -65 c-5 -45 -3 -72 6 -89 14 -25 35 -26 30 -1 -2 8 -4 51 -5
95 -2 75 -3 80 -24 83 -16 2 -36 -10 -66 -41z"/>
<path d="M10712 1868 c-13 -13 -16 -41 -5 -51 11 -12 33 14 33 39 0 26 -10 30
-28 12z"/>
</g>
</svg>
