<?xml version="1.0" standalone="no"?>
<!DOCTYPE svg PUBLIC "-//W3C//DTD SVG 20010904//EN"
 "http://www.w3.org/TR/2001/REC-SVG-20010904/DTD/svg10.dtd">
<svg version="1.0" xmlns="http://www.w3.org/2000/svg"
 width="1618.000000pt" height="1214.000000pt" viewBox="0 0 1618.000000 1214.000000"
 preserveAspectRatio="xMidYMid meet">

<g transform="translate(0.000000,1214.000000) scale(0.100000,-0.100000)"
fill="#000000" stroke="none">
<path d="M6117 11723 c-13 -12 -7 -61 8 -67 10 -3 15 1 15 12 0 10 6 24 12 30
10 10 10 15 -2 22 -18 12 -25 12 -33 3z"/>
<path d="M11896 11722 c-2 -4 -7 -25 -11 -47 -13 -69 -23 -89 -40 -75 -19 16
-105 3 -105 -17 0 -7 -10 -27 -21 -43 -32 -43 -22 -116 19 -148 l30 -23 -30
-64 c-16 -36 -28 -72 -26 -81 5 -29 27 -27 33 3 3 15 17 51 30 79 20 45 28 52
59 58 48 9 116 73 116 109 0 15 -13 41 -30 61 l-31 35 15 56 c8 31 23 63 33
71 16 12 16 15 3 24 -18 12 -37 13 -44 2z m-59 -160 c8 -5 3 -28 -19 -82 -17
-41 -33 -77 -35 -80 -11 -12 -53 53 -53 81 0 53 69 105 107 81z m67 -57 c21
-32 14 -58 -25 -85 -51 -37 -61 -23 -32 48 14 34 29 62 33 62 4 0 15 -11 24
-25z"/>
<path d="M1296 11708 c-2 -7 -9 -33 -16 -58 -7 -25 -18 -53 -25 -63 -11 -16
-13 -15 -25 13 -7 16 -15 30 -17 30 -7 0 -63 -59 -90 -94 -27 -35 -30 -91 -8
-123 14 -20 13 -25 -15 -69 -41 -65 -40 -105 2 -83 12 6 17 17 14 26 -4 8 3
31 15 50 19 30 26 34 51 29 33 -7 82 14 92 39 9 26 7 62 -6 90 -9 21 -9 31 4
53 15 26 58 146 58 164 0 13 -30 9 -34 -4z m-86 -159 c9 -16 6 -28 -14 -62
-45 -74 -45 -74 -56 -57 -19 29 -11 69 21 105 17 19 33 35 35 35 2 0 8 -9 14
-21z m40 -105 c0 -27 -23 -47 -49 -42 -20 3 -19 4 7 45 27 42 42 41 42 -3z"/>
<path d="M1552 11708 c-7 -7 -12 -18 -12 -26 0 -20 -59 -98 -119 -157 -68 -66
-67 -79 7 -72 31 3 64 8 72 11 13 5 16 -3 18 -40 2 -44 15 -74 33 -74 4 0 5
25 2 56 -5 46 -3 58 10 66 13 7 14 13 6 26 -8 13 -8 45 -1 112 10 95 6 120
-16 98z m-10 -116 c-7 -2 -12 -21 -12 -43 0 -42 -14 -53 -85 -66 l-30 -5 31
25 c16 14 43 44 58 66 16 23 33 38 39 34 8 -5 7 -8 -1 -11z"/>
<path d="M3226 11688 c-3 -18 -10 -73 -16 -122 -10 -80 -38 -186 -60 -225 -9
-17 -60 85 -84 171 -18 63 -30 77 -44 51 -20 -37 -104 -294 -98 -300 16 -17
35 17 70 127 l39 123 22 -64 c26 -79 72 -159 91 -159 15 0 56 84 74 150 6 21
15 76 20 122 6 46 15 93 22 105 13 25 5 53 -16 53 -8 0 -16 -14 -20 -32z"/>
<path d="M8790 11705 c0 -14 -37 -31 -95 -43 -37 -7 -40 -11 -38 -38 2 -16 -3
-94 -10 -174 l-13 -145 -28 55 c-16 30 -48 87 -73 127 -28 45 -45 85 -46 109
-3 36 -28 66 -43 51 -13 -13 20 -104 70 -189 28 -47 63 -109 79 -137 25 -48
50 -71 63 -58 13 13 35 156 30 195 -3 23 -3 70 1 103 5 54 9 62 32 70 14 5 39
15 54 24 16 8 35 15 44 15 19 0 46 27 38 39 -8 14 -65 10 -65 -4z"/>
<path d="M4169 11648 c-29 -35 -60 -69 -71 -76 -21 -15 -24 -42 -5 -42 21 0
161 162 150 174 -13 13 -24 4 -74 -56z"/>
<path d="M4981 11696 c-6 -7 -29 -55 -51 -107 -54 -125 -63 -138 -94 -132 -30
6 -35 -11 -9 -26 16 -8 13 -17 -30 -79 -49 -72 -56 -92 -33 -92 8 0 35 34 61
75 25 41 49 76 53 79 4 2 28 7 53 11 l47 7 -5 -45 c-5 -46 11 -92 28 -81 6 3
9 20 8 38 -4 68 0 84 27 90 29 8 27 30 -4 34 -17 3 -20 9 -16 35 19 141 23
190 18 198 -8 14 -40 11 -53 -5z m14 -108 c-11 -122 -11 -125 -53 -131 -20 -4
-37 -5 -39 -4 -1 2 10 28 25 58 15 30 35 76 45 102 11 26 21 47 24 47 3 0 2
-33 -2 -72z"/>
<path d="M6842 11698 c-7 -7 -12 -35 -12 -62 0 -28 -6 -73 -14 -101 -11 -45
-15 -50 -39 -47 -36 4 -44 -15 -12 -30 23 -10 26 -16 21 -42 -21 -106 -19
-156 9 -156 20 0 28 19 15 35 -10 12 -10 29 0 81 11 55 16 67 38 75 14 5 38 7
53 4 16 -4 30 -1 34 6 11 17 -16 30 -57 27 -42 -4 -45 2 -29 62 15 56 23 148
13 154 -5 3 -14 0 -20 -6z"/>
<path d="M5569 11698 c0 -1 -1 -41 -3 -88 -3 -90 -3 -93 -35 -184 -12 -33 -21
-67 -21 -78 0 -28 24 -22 43 12 22 36 82 84 96 76 5 -4 12 -19 16 -35 8 -37
27 -54 56 -49 32 4 37 28 6 28 -19 0 -26 8 -36 40 -16 53 -48 62 -94 27 l-33
-25 18 72 c21 80 21 197 1 204 -7 2 -13 2 -14 0z"/>
<path d="M12067 11683 c-12 -11 -8 -23 7 -23 8 0 17 -9 21 -20 7 -23 -70 -277
-92 -302 -10 -11 -11 -18 -4 -23 20 -12 51 5 51 28 0 12 18 76 40 142 42 125
47 154 30 186 -10 19 -40 26 -53 12z"/>
<path d="M10131 11554 l3 -95 -41 -19 c-98 -44 -102 -157 -7 -176 26 -5 38 -1
65 24 38 34 41 57 21 190 -7 46 -10 103 -6 127 6 42 5 45 -16 45 -21 0 -22 -3
-19 -96z m22 -166 c3 -18 0 -44 -7 -58 -9 -21 -18 -25 -51 -25 -37 0 -40 2
-43 31 -2 25 3 37 28 58 44 36 66 34 73 -6z"/>
<path d="M12733 11614 c-29 -20 -53 -40 -53 -44 0 -20 23 -21 43 -2 12 11 32
25 44 31 79 41 52 -37 -73 -206 -30 -40 -54 -77 -54 -83 0 -18 26 -10 66 20
21 16 42 30 46 30 4 0 8 -15 10 -32 2 -28 8 -34 31 -36 30 -4 61 14 51 29 -3
5 -17 6 -31 3 -25 -7 -26 -5 -20 24 8 42 -13 60 -51 43 l-27 -13 21 24 c12 12
40 52 63 87 47 74 56 132 22 151 -27 14 -30 13 -88 -26z"/>
<path d="M13856 11629 c-9 -13 -16 -27 -16 -32 0 -5 -10 -31 -21 -58 -19 -43
-25 -50 -47 -47 -31 4 -42 -21 -13 -29 12 -3 21 -7 21 -10 0 -11 -74 -163 -79
-163 -30 1 -53 57 -41 99 11 40 59 107 85 119 20 10 20 10 1 18 -13 5 -21 3
-24 -4 -2 -7 -7 -10 -12 -7 -12 7 -61 -62 -77 -108 -18 -53 -8 -103 27 -129
l28 -20 -25 -54 c-26 -57 -27 -89 -3 -89 8 0 14 6 12 13 -4 22 50 132 65 132
24 0 112 49 123 69 17 32 12 74 -14 111 l-23 34 24 56 c13 30 29 65 35 78 17
34 -4 51 -26 21z m-21 -233 c12 -35 0 -54 -53 -84 l-41 -23 32 71 c32 74 46
81 62 36z"/>
<path d="M6124 11623 c-6 -10 -16 -41 -23 -70 -12 -47 -15 -52 -44 -55 -37 -4
-50 -28 -14 -28 13 0 26 -3 30 -6 3 -3 -5 -37 -19 -74 -13 -37 -24 -77 -24
-89 0 -23 18 -29 24 -8 2 6 16 46 31 89 22 64 31 77 53 84 15 4 33 6 41 5 13
-2 31 15 31 32 0 5 -21 5 -47 1 -43 -6 -46 -5 -39 12 9 22 21 124 15 124 -2 0
-9 -8 -15 -17z"/>
<path d="M3664 11616 c-3 -7 2 -41 10 -74 22 -82 20 -108 -9 -158 -24 -41 -51
-64 -74 -64 -18 0 -12 35 9 63 23 30 26 47 6 47 -8 0 -24 -15 -35 -34 -37 -60
-20 -127 29 -111 53 17 120 104 120 157 0 55 -25 178 -38 183 -7 2 -15 -1 -18
-9z"/>
<path d="M13425 11589 c-82 -55 -92 -66 -77 -81 9 -9 18 -6 39 14 34 32 93 68
112 68 10 0 12 -8 7 -32 -14 -69 -117 -210 -170 -232 -41 -17 -76 -50 -76 -71
0 -23 17 -18 65 16 42 30 43 30 74 15 17 -9 38 -30 46 -46 9 -17 20 -28 25
-25 20 12 9 39 -30 76 l-40 38 52 68 c83 110 107 182 72 217 -22 23 -32 20
-99 -25z"/>
<path d="M12481 11580 c-37 -38 -45 -60 -21 -60 4 0 24 16 43 35 45 45 62 46
53 3 -8 -38 -71 -123 -143 -193 -29 -29 -53 -57 -53 -63 0 -28 24 -20 68 23
41 41 48 45 57 30 27 -47 42 -57 81 -59 28 -1 39 3 39 14 0 8 -9 15 -20 16
-46 2 -53 6 -69 43 l-18 38 41 54 c63 84 67 150 8 157 -19 2 -36 -7 -66 -38z"/>
<path d="M5850 11585 c0 -13 8 -16 38 -13 20 2 37 8 37 13 0 6 -17 11 -37 13
-30 3 -38 0 -38 -13z"/>
<path d="M14365 11580 c-3 -5 6 -20 21 -33 l27 -24 -55 -31 c-31 -18 -58 -32
-62 -32 -4 0 -11 12 -16 26 -9 21 -7 29 7 40 10 7 28 14 41 14 13 0 22 6 22
15 0 24 -55 18 -86 -9 -27 -22 -27 -25 -16 -65 13 -41 13 -41 -28 -79 -46 -45
-52 -83 -19 -126 39 -50 128 -26 145 38 3 15 -2 43 -15 70 l-20 46 65 36 c73
41 83 68 38 103 -30 23 -40 26 -49 11z m-64 -202 c24 -59 7 -98 -42 -98 -29 0
-49 23 -49 54 0 16 56 76 70 76 4 0 14 -14 21 -32z"/>
<path d="M14070 11543 c0 -26 -71 -218 -100 -272 -9 -17 -9 -26 -1 -34 16 -16
21 -6 81 146 52 133 62 187 35 187 -10 0 -15 -10 -15 -27z"/>
<path d="M5248 11512 c-15 -2 -34 -12 -42 -23 -13 -20 -14 -20 -19 2 -10 39
-28 14 -33 -46 -2 -33 -5 -69 -7 -79 -4 -33 20 -28 32 6 22 63 58 106 91 110
27 3 29 5 18 18 -8 9 -24 14 -40 12z"/>
<path d="M6299 11446 c-37 -35 -46 -51 -47 -80 -2 -57 24 -77 101 -75 70 3
126 24 108 42 -7 7 -18 7 -36 -1 -38 -17 -120 -15 -135 3 -16 19 -16 19 51 53
56 28 73 58 49 88 -20 23 -42 16 -91 -30z m56 -16 c-10 -11 -25 -20 -34 -20
-11 1 -8 8 13 26 32 29 48 24 21 -6z"/>
<path d="M6595 11462 c-40 -25 -70 -81 -61 -116 10 -39 69 -61 154 -57 12 1
22 7 22 16 0 11 -12 15 -47 15 -54 0 -96 18 -101 42 -2 8 13 32 32 52 29 32
38 36 55 27 26 -14 36 2 15 23 -20 21 -32 20 -69 -2z"/>
<path d="M7287 11472 c-11 -2 -27 -23 -38 -45 -13 -30 -19 -36 -19 -20 0 26
-16 38 -26 21 -4 -7 -8 -48 -7 -93 0 -107 17 -106 55 4 15 47 32 89 38 95 7 7
22 6 46 -3 39 -14 53 -9 35 13 -15 18 -60 33 -84 28z"/>
<path d="M7885 11460 c-9 -10 -14 -23 -11 -28 10 -16 46 -1 46 19 0 27 -15 31
-35 9z"/>
<path d="M5351 11444 c-43 -55 -39 -104 10 -130 34 -17 70 -15 77 4 2 7 -6 12
-20 12 -28 0 -68 26 -68 44 0 7 10 25 21 40 15 20 29 26 48 24 18 -2 26 2 26
12 0 10 -12 16 -36 18 -30 3 -41 -2 -58 -24z"/>
<path d="M5856 11459 c-11 -35 -26 -110 -26 -128 0 -15 6 -21 21 -21 15 0 19
5 15 15 -3 8 0 40 6 70 8 41 8 59 0 67 -8 8 -13 8 -16 -3z"/>
<path d="M7093 11463 c-18 -6 -16 -33 2 -33 11 0 15 -11 15 -35 0 -64 -65
-104 -120 -75 -23 12 -35 62 -21 87 6 12 6 25 1 33 -16 26 -35 -7 -35 -60 0
-64 33 -102 89 -102 67 0 111 45 120 123 5 41 3 47 -17 56 -12 5 -28 8 -34 6z"/>
<path d="M7504 11460 c-31 -12 -72 -66 -85 -109 -13 -44 -5 -103 15 -120 39
-32 143 -20 192 23 39 33 22 53 -19 22 -60 -45 -152 -45 -163 0 -10 37 3 74
26 74 42 0 100 32 107 58 11 46 -25 72 -73 52z m46 -41 c0 -9 -59 -39 -75 -39
-16 0 -1 23 27 40 31 19 48 18 48 -1z"/>
<path d="M4152 11444 c-27 -19 -28 -48 -1 -118 11 -31 18 -60 14 -66 -11 -18
-53 -10 -84 16 l-31 26 0 -25 c0 -34 22 -49 79 -55 52 -5 87 17 77 47 -3 9
-15 44 -28 79 -20 55 -21 64 -8 72 8 5 22 7 30 4 37 -15 50 -16 50 -3 0 14
-43 39 -65 39 -6 0 -21 -7 -33 -16z"/>
<path d="M3311 11424 c-25 -32 -27 -71 -5 -102 12 -17 25 -22 60 -22 83 0 112
66 53 121 -40 37 -80 38 -108 3z m80 -25 c34 -24 37 -44 10 -59 -55 -29 -98 5
-70 56 15 29 23 30 60 3z"/>
<path d="M3797 11420 c-60 -52 -55 -122 13 -170 39 -28 93 -32 98 -7 3 13 -3
17 -31 17 -40 0 -87 38 -87 70 0 12 4 18 10 15 5 -3 26 1 45 11 39 18 55 55
35 79 -19 23 -46 18 -83 -15z m53 -25 c-7 -8 -22 -15 -34 -15 -21 1 -21 1 -2
15 27 21 53 20 36 0z"/>
<path d="M9813 11405 c-43 -45 -55 -75 -30 -75 7 0 30 20 51 45 20 25 42 43
47 40 5 -4 6 -30 3 -59 -4 -36 -3 -56 5 -61 17 -10 19 -7 26 61 6 49 4 63 -10
77 -26 26 -45 21 -92 -28z"/>
<path d="M9635 11431 c-50 -21 -75 -79 -51 -116 21 -32 61 -33 94 -2 19 16 24
18 19 5 -6 -17 16 -43 30 -35 4 3 6 37 5 77 -3 65 -6 71 -23 67 -10 -3 -22 -1
-25 4 -6 11 -22 11 -49 0z m29 -92 c-24 -27 -54 -25 -54 4 0 49 49 80 64 40 6
-18 3 -29 -10 -44z"/>
<path d="M8857 11409 c-63 -17 -73 -51 -33 -110 l25 -36 -30 -29 c-35 -33 -37
-55 -6 -88 34 -38 88 -39 113 -1 15 23 15 27 -6 70 l-22 46 23 17 c41 28 69
64 69 87 0 27 -22 48 -42 40 -8 -3 -25 -2 -39 3 -13 5 -37 5 -52 1z m33 -40
c0 -8 12 -10 35 -6 19 3 35 2 35 -3 0 -5 -19 -24 -42 -44 l-41 -36 -24 32
c-27 37 -27 40 -11 56 15 15 48 16 48 1z m-2 -151 c7 -7 12 -25 12 -40 0 -24
-4 -28 -30 -28 -38 0 -55 28 -34 58 17 25 34 28 52 10z"/>
<path d="M1620 11353 c-21 -27 -22 -44 -2 -51 7 -2 16 7 21 21 5 13 17 27 26
31 9 3 13 10 10 16 -11 18 -33 11 -55 -17z"/>
<path d="M12114 11339 c-12 -20 13 -32 35 -17 12 8 18 18 14 21 -10 11 -41 8
-49 -4z"/>
<path d="M7882 11318 c-14 -14 -16 -38 -4 -38 14 0 43 36 35 43 -9 10 -17 9
-31 -5z"/>
<path d="M12974 11315 c-4 -9 -4 -18 -1 -21 10 -10 48 7 44 19 -6 19 -36 20
-43 2z"/>
<path d="M2274 11258 c-44 -53 -92 -166 -107 -254 -14 -78 -16 -82 -66 -129
-33 -31 -48 -51 -40 -55 6 -4 -1 -7 -15 -7 -33 0 -40 -7 -32 -28 5 -14 9 -14
35 -1 16 9 31 19 33 23 2 5 22 25 45 47 l42 39 14 -35 c20 -47 61 -78 106 -78
20 0 41 4 47 8 13 9 13 68 -1 63 -5 -2 -16 -6 -22 -8 -7 -3 -13 -11 -13 -19 0
-23 -39 -16 -65 12 -14 15 -27 41 -31 60 -5 29 -1 39 31 76 60 71 108 178 107
242 -1 86 -21 99 -68 44z m1 -165 c-20 -38 -47 -81 -61 -98 l-26 -30 7 35 c13
66 45 150 78 203 l32 52 3 -47 c3 -39 -3 -60 -33 -115z"/>
<path d="M2617 11153 c-2 -4 -7 -37 -11 -73 -4 -36 -16 -102 -27 -148 -23
-100 -24 -142 -5 -142 8 0 16 6 19 13 3 9 9 8 23 -4 31 -26 53 -30 88 -15 66
27 101 114 65 160 -32 41 -99 33 -142 -18 l-19 -21 6 25 c18 74 29 211 19 221
-6 6 -13 7 -16 2z m131 -254 c4 -46 -33 -89 -77 -89 -28 0 -29 2 -29 45 0 36
5 49 26 65 15 12 37 20 51 18 22 -3 26 -9 29 -39z"/>
<path d="M2465 11061 c-10 -17 15 -45 29 -31 7 7 5 15 -6 26 -11 11 -18 13
-23 5z"/>
<path d="M3488 11055 c-3 -3 -25 -9 -49 -13 -36 -7 -44 -12 -42 -28 13 -98
-14 -207 -44 -182 -19 16 -49 75 -57 115 -8 36 -30 60 -41 44 -6 -10 15 -83
37 -125 17 -34 60 -76 78 -76 28 0 65 94 64 160 l-1 58 54 12 c31 8 53 19 53
27 0 12 -41 19 -52 8z"/>
<path d="M2962 10999 c-29 -53 -103 -149 -115 -149 -19 -1 -46 -45 -37 -59 11
-19 49 9 90 66 33 45 34 45 42 22 19 -50 54 -51 107 -4 l39 35 7 -37 c3 -21
13 -48 21 -60 16 -26 44 -31 44 -8 0 8 -4 15 -10 15 -13 0 -30 66 -30 118 0
54 -16 54 -53 1 -33 -45 -71 -74 -87 -64 -15 9 -12 66 5 99 30 57 8 81 -23 25z"/>
<path d="M2445 10873 c9 -54 13 -63 25 -63 7 0 10 18 8 47 -2 37 -7 49 -21 51
-16 3 -17 -1 -12 -35z"/>
<path d="M12650 10808 c0 -18 -8 -62 -19 -98 l-18 -65 -58 3 c-71 3 -72 -18
-1 -32 41 -8 47 -12 41 -30 -3 -12 -8 -42 -12 -68 -5 -40 -3 -48 11 -48 9 0
16 8 16 21 0 11 5 40 11 64 11 42 13 44 52 47 55 4 62 28 8 28 l-40 0 20 70
c23 86 25 140 4 140 -10 0 -15 -10 -15 -32z"/>
<path d="M10823 10803 c-11 -15 -52 -83 -92 -151 -40 -67 -82 -127 -93 -133
-10 -6 -17 -16 -15 -22 2 -7 -12 -40 -31 -75 -34 -62 -36 -92 -7 -92 9 0 15 9
15 23 0 12 14 46 31 76 29 50 33 53 61 47 17 -3 48 -6 70 -6 38 0 40 -1 34
-26 -18 -72 -19 -84 -2 -84 9 0 18 11 21 28 3 15 10 43 15 62 20 79 51 293 48
333 -4 52 -27 60 -55 20z m12 -151 c-24 -158 -22 -152 -60 -152 -18 0 -46 3
-63 6 l-30 6 52 87 c29 47 66 108 81 136 16 27 30 44 33 37 2 -7 -4 -60 -13
-120z"/>
<path d="M7148 10799 c-9 -5 -22 -25 -28 -45 -10 -30 -10 -38 1 -45 11 -7 11
-9 -2 -9 -12 0 -21 -17 -31 -57 -13 -54 -16 -58 -51 -66 -48 -12 -53 -43 -6
-33 30 6 31 5 24 -22 -3 -15 -15 -45 -26 -68 -23 -48 -23 -54 -4 -54 17 0 37
36 56 100 16 54 22 60 74 60 22 0 46 4 54 9 26 17 2 28 -49 23 l-50 -5 4 29
c2 16 6 36 9 44 3 8 11 33 18 55 6 22 19 48 27 58 19 21 5 40 -20 26z"/>
<path d="M11476 10798 c-2 -7 -9 -33 -16 -58 -7 -25 -32 -92 -56 -148 -63
-148 -58 -167 24 -102 27 22 52 40 54 40 2 0 2 -19 0 -43 -3 -30 1 -47 12 -56
21 -18 39 -5 26 19 -5 10 -9 40 -7 66 3 60 -16 68 -68 29 -19 -15 -35 -25 -35
-22 0 3 9 26 20 52 11 26 17 52 13 57 -3 6 -2 8 4 5 11 -7 53 105 53 140 0 25
-18 41 -24 21z"/>
<path d="M11950 10776 c0 -36 -35 -142 -54 -163 -6 -7 -22 -14 -36 -16 -14 -2
-26 -12 -28 -21 -3 -14 1 -16 24 -10 24 6 26 5 20 -12 -21 -52 -37 -118 -31
-131 8 -24 17 -10 45 75 24 73 27 77 58 80 38 4 45 32 8 32 l-25 0 24 58 c32
78 36 142 10 142 -10 0 -15 -10 -15 -34z"/>
<path d="M9865 10767 c-8 -20 -26 -73 -39 -118 -26 -93 -32 -97 -113 -98 -41
-1 -53 -4 -53 -17 0 -13 11 -15 65 -12 44 2 65 -1 65 -8 0 -21 -42 -149 -56
-171 -11 -18 -11 -23 2 -34 21 -17 25 -10 59 109 16 53 32 102 37 107 5 6 37
12 71 15 80 6 80 24 0 28 -41 2 -63 7 -63 15 0 7 14 54 31 105 23 68 28 97 20
105 -8 8 -15 0 -26 -26z"/>
<path d="M4865 10714 c-71 -13 -145 -23 -162 -24 -39 0 -44 -17 -8 -26 37 -9
365 47 365 63 0 18 -41 15 -195 -13z"/>
<path d="M5080 10725 c-8 -9 -6 -14 6 -19 26 -10 44 -7 44 8 0 19 -37 27 -50
11z"/>
<path d="M9076 10725 c4 -8 2 -15 -3 -15 -8 0 -23 -43 -39 -112 -5 -25 -11
-28 -45 -28 -21 0 -39 -5 -39 -11 0 -5 -4 -7 -10 -4 -5 3 -10 1 -10 -4 0 -6
20 -11 44 -11 l44 0 -23 -77 c-13 -43 -22 -79 -20 -81 14 -15 34 16 53 81 l22
76 43 3 c50 4 52 22 2 26 -19 2 -35 6 -35 10 0 4 9 38 20 76 11 38 17 73 14
77 -9 15 -24 10 -18 -6z"/>
<path d="M11715 10700 c-8 -12 20 -24 35 -15 6 3 8 11 5 16 -8 12 -32 12 -40
-1z"/>
<path d="M4895 10660 c4 -11 -3 -63 -15 -115 -21 -88 -21 -141 -1 -119 11 12
51 191 51 227 0 21 -5 27 -21 27 -16 0 -19 -4 -14 -20z"/>
<path d="M4332 10658 c-6 -6 -12 -18 -12 -25 0 -11 -6 -10 -30 2 -52 27 -100
17 -100 -21 0 -28 35 -54 72 -54 28 0 28 0 13 -30 -8 -16 -27 -37 -41 -46 -16
-11 -24 -24 -22 -38 4 -30 32 -31 48 -1 7 14 33 36 56 49 40 22 44 23 49 7 3
-10 16 -28 29 -40 20 -19 28 -21 45 -12 27 15 26 18 -5 65 -21 31 -24 40 -13
47 8 5 17 9 22 9 4 0 7 7 7 15 0 11 -11 15 -40 15 -32 0 -40 4 -40 18 0 10 -6
26 -13 35 -10 14 -15 15 -25 5z m-52 -53 l25 -14 -31 -1 c-17 0 -37 7 -44 15
-10 12 -9 15 6 15 11 -1 30 -7 44 -15z m60 -60 c-7 -8 -16 -15 -21 -15 -5 0
-6 7 -3 15 4 8 13 15 21 15 13 0 13 -3 3 -15z"/>
<path d="M7895 10650 c-8 -13 3 -50 16 -50 12 0 12 47 0 55 -5 3 -12 1 -16 -5z"/>
<path d="M13053 10615 c-12 -8 -31 -43 -42 -77 -25 -73 -26 -88 -7 -88 9 0 22
26 35 69 21 70 42 91 68 70 21 -18 41 4 23 26 -16 19 -49 19 -77 0z"/>
<path d="M12323 10591 c-39 -24 -83 -78 -83 -102 0 -40 35 -59 108 -59 66 0
104 12 89 27 -5 4 -39 6 -76 4 -76 -3 -101 11 -82 48 17 32 62 62 83 56 13 -5
18 -1 18 13 0 28 -23 33 -57 13z"/>
<path d="M12042 10546 c-69 -74 -66 -125 8 -147 43 -13 98 1 85 21 -9 14 -21
12 -38 -5 -13 -13 -16 -13 -21 0 -3 8 -12 15 -19 15 -8 0 -20 6 -26 13 -8 11
-3 17 24 30 41 19 68 57 63 89 -5 37 -32 32 -76 -16z m43 -15 c-3 -6 -16 -16
-28 -22 -21 -11 -21 -10 2 15 23 25 40 29 26 7z"/>
<path d="M13245 10572 c-37 -23 -85 -78 -85 -97 0 -47 39 -71 132 -81 75 -7
94 5 60 39 -18 17 -22 18 -27 6 -8 -20 -99 -10 -122 14 -15 15 -14 17 11 27
15 5 35 10 44 10 35 0 63 30 60 63 -4 39 -30 46 -73 19z m45 -27 c0 -8 -11
-17 -25 -21 -37 -9 -42 2 -8 20 35 19 33 19 33 1z"/>
<path d="M6313 10542 c-69 -54 -68 -54 -68 -14 0 49 -23 52 -70 11 -28 -25
-39 -29 -45 -19 -13 20 -40 4 -40 -25 0 -14 -11 -43 -25 -65 -50 -79 -19 -84
43 -7 51 64 100 112 107 105 3 -3 -2 -24 -10 -48 -8 -23 -15 -46 -15 -51 0
-21 31 -5 96 50 38 33 70 58 72 56 2 -1 -6 -18 -17 -36 -47 -77 -16 -113 75
-87 61 17 75 44 18 34 -22 -3 -49 -9 -61 -12 -31 -9 -29 7 8 72 47 84 15 101
-68 36z"/>
<path d="M8377 10569 c-10 -6 -32 -29 -48 -52 -17 -23 -38 -42 -47 -42 -13 0
-16 -7 -14 -29 3 -29 -48 -181 -75 -223 -15 -22 -11 -43 7 -43 12 0 69 111 85
165 11 35 17 41 47 46 88 14 145 106 102 167 -17 24 -30 27 -57 11z m43 -62
c0 -26 -63 -87 -89 -87 l-21 0 21 41 c29 59 68 96 80 78 5 -8 9 -22 9 -32z"/>
<path d="M11025 10570 c-11 -4 -36 -23 -55 -41 -19 -18 -43 -32 -52 -31 -20 3
-32 -30 -26 -72 4 -38 19 -36 41 6 32 60 91 111 126 110 33 -1 43 21 15 32
-19 7 -24 7 -49 -4z"/>
<path d="M12745 10570 c-3 -5 -9 -32 -12 -60 -5 -44 -3 -54 17 -75 40 -43 106
-28 147 34 28 41 28 52 5 81 -23 28 -48 19 -30 -10 30 -47 -37 -115 -89 -91
-22 10 -24 16 -20 49 3 20 8 47 12 60 5 16 3 22 -8 22 -9 0 -19 -4 -22 -10z"/>
<path d="M6798 10559 c-26 -14 -22 -33 12 -73 17 -19 28 -40 25 -49 -7 -17
-48 -37 -75 -37 -11 0 -20 -7 -20 -15 0 -23 52 -19 91 8 47 31 50 67 9 107
-30 29 -30 32 0 34 22 2 18 31 -5 33 -11 2 -28 -2 -37 -8z"/>
<path d="M11182 10516 c-59 -62 -67 -96 -28 -121 26 -17 81 -17 81 0 0 6 -11
12 -25 13 -27 4 -50 19 -50 33 0 16 82 99 97 99 8 0 13 6 11 13 -10 27 -37 15
-86 -37z"/>
<path d="M6558 10539 c-22 -12 -58 -72 -58 -96 0 -47 64 -67 120 -38 24 13 30
22 30 49 0 28 -7 40 -38 64 -28 22 -42 28 -54 21z m36 -49 c48 -18 23 -70 -34
-70 -28 0 -36 25 -16 55 19 29 17 28 50 15z"/>
<path d="M9191 10502 c-47 -44 -52 -52 -42 -71 14 -25 21 -26 68 -6 45 19 43
20 43 -11 0 -45 25 -21 32 31 4 27 5 52 2 57 -3 4 -23 -6 -46 -22 -58 -42 -83
-38 -33 5 22 19 46 35 53 35 18 0 9 24 -10 28 -8 2 -38 -19 -67 -46z"/>
<path d="M9454 10525 c-10 -8 -31 -15 -46 -15 -21 0 -31 -8 -43 -35 -9 -19
-23 -39 -31 -46 -15 -12 -20 -49 -6 -49 4 0 34 25 67 55 93 86 95 87 95 17 0
-41 5 -64 15 -72 8 -7 15 -9 16 -4 10 141 -12 191 -67 149z"/>
<path d="M7977 10471 c-55 -55 -68 -86 -38 -86 7 0 25 18 39 39 15 21 38 46
52 55 23 15 24 15 16 -4 -31 -82 -10 -97 53 -39 l40 35 3 -33 c2 -21 9 -34 20
-36 15 -3 16 3 11 50 -3 29 -10 57 -14 63 -6 5 -25 -6 -49 -30 l-40 -39 9 31
c10 33 -1 53 -28 53 -8 0 -41 -27 -74 -59z"/>
<path d="M11653 10518 c-5 -7 -15 -28 -23 -46 -10 -25 -10 -35 0 -47 17 -21
26 -12 34 35 3 22 11 40 16 40 6 0 10 7 10 15 0 18 -24 20 -37 3z"/>
<path d="M5030 10473 c-28 -64 -24 -107 12 -111 14 -2 44 6 66 17 l39 20 11
-24 c23 -51 113 -17 99 37 -4 15 1 30 15 45 32 35 9 51 -25 19 -20 -18 -27
-35 -27 -61 0 -29 -3 -36 -17 -33 -12 2 -19 14 -21 36 -3 31 -24 44 -37 22 -7
-12 -49 -34 -82 -44 -30 -9 -30 11 -3 65 20 38 20 59 0 59 -5 0 -18 -21 -30
-47z"/>
<path d="M5435 10511 c-26 -12 -65 -49 -65 -62 0 -33 22 -49 67 -49 115 0 160
101 51 115 -18 3 -42 1 -53 -4z m66 -32 c16 -8 18 -13 9 -24 -14 -17 -73 -30
-96 -21 -15 6 -15 8 1 26 10 11 21 17 26 15 4 -3 10 -1 14 5 8 13 21 13 46 -1z"/>
<path d="M8539 10498 c-50 -30 -79 -118 -43 -132 39 -15 76 -6 110 28 35 35
43 70 24 107 -13 23 -50 22 -91 -3z m71 -37 c0 -26 -48 -71 -76 -71 -33 0 -31
30 4 62 43 41 72 44 72 9z"/>
<path d="M8722 10494 c-27 -19 -55 -71 -48 -90 9 -24 22 -15 39 26 11 29 22
41 44 45 46 11 53 14 53 25 0 16 -63 12 -88 -6z"/>
<path d="M7782 10468 c-17 -35 -26 -125 -13 -133 14 -8 31 36 31 80 0 19 5 37
10 40 15 9 12 35 -3 35 -8 0 -19 -10 -25 -22z"/>
<path d="M7093 10223 c1 -87 -1 -104 -24 -154 -30 -64 -75 -102 -116 -97 -24
2 -28 8 -28 33 0 22 8 35 34 52 31 21 36 22 57 8 29 -19 34 -19 34 0 0 8 -11
22 -25 31 -24 16 -28 16 -66 -1 -52 -24 -86 -83 -68 -118 16 -30 28 -37 70
-37 48 0 109 53 139 122 20 44 24 71 24 153 1 87 -1 100 -16 103 -16 3 -17 -7
-15 -95z"/>
<path d="M3851 10248 c-50 -68 -74 -143 -67 -210 l6 -58 -55 -40 c-31 -23 -53
-45 -50 -51 10 -15 19 -11 68 26 25 19 48 35 50 35 3 0 10 -14 17 -30 21 -50
90 -93 90 -56 0 8 -8 17 -19 21 -10 3 -29 26 -42 50 l-24 44 32 33 c66 68 99
184 73 252 -14 38 -44 32 -79 -16z m59 -36 c0 -65 -67 -201 -91 -186 -17 10
-4 95 22 146 39 79 69 96 69 40z"/>
<path d="M12339 10283 c-3 -19 4 -64 22 -137 17 -74 17 -117 -1 -141 -10 -12
6 -55 19 -55 6 0 13 10 15 23 15 73 15 101 -4 178 -11 46 -20 96 -20 112 0 17
-5 27 -15 27 -8 0 -15 -3 -16 -7z"/>
<path d="M2990 10253 c0 -10 0 -47 0 -84 l-1 -65 -33 -1 c-45 -1 -73 -18 -96
-56 -40 -65 -20 -107 53 -107 66 0 101 78 108 240 4 73 2 85 -13 88 -11 2 -17
-3 -18 -15z m-20 -218 c-7 -25 -21 -50 -31 -55 -26 -15 -59 -12 -65 4 -9 24
28 77 59 83 15 3 30 10 33 15 14 22 16 -5 4 -47z"/>
<path d="M6555 10240 c-4 -6 -4 -28 0 -50 14 -83 -28 -189 -87 -221 -27 -15
-37 -3 -68 79 -15 39 -32 67 -40 67 -8 0 -19 -18 -26 -42 -7 -24 -25 -66 -40
-93 -20 -36 -24 -54 -17 -61 11 -11 33 20 75 104 l14 27 13 -37 c17 -49 49
-83 76 -83 35 0 101 69 116 120 17 58 18 192 2 197 -6 2 -14 -1 -18 -7z"/>
<path d="M9644 10222 c-7 -4 -13 -47 -16 -102 -4 -97 -19 -144 -50 -164 -23
-14 -53 14 -72 68 -8 22 -22 62 -31 89 -9 26 -23 47 -31 47 -18 0 -18 4 11
-87 44 -133 89 -182 139 -150 40 26 59 83 64 186 l4 93 27 -6 c14 -3 36 -8 49
-12 16 -5 22 -2 22 9 0 25 -88 48 -116 29z"/>
<path d="M11077 10224 c-4 -4 -7 -35 -7 -69 0 -56 -2 -63 -25 -73 -14 -6 -25
-16 -25 -21 0 -17 20 -23 35 -11 13 11 15 7 16 -21 1 -19 1 -49 0 -66 -2 -18
2 -33 8 -33 21 0 33 42 27 90 -7 51 0 60 48 60 28 0 63 24 49 33 -6 4 -32 3
-58 -2 l-47 -9 4 61 c3 56 -7 79 -25 61z"/>
<path d="M10549 10218 c0 -1 -1 -56 -2 -120 -2 -107 -4 -119 -24 -138 -29 -26
-20 -47 26 -61 46 -14 101 6 127 46 36 54 -17 107 -76 75 -19 -10 -20 -8 -21
80 -2 114 -2 113 -16 118 -7 2 -13 2 -14 0z m108 -235 c7 -20 -35 -53 -67 -53
-27 0 -30 2 -20 19 22 42 78 63 87 34z"/>
<path d="M12085 10199 c-8 -11 25 -40 37 -33 14 9 9 23 -11 34 -14 7 -22 7
-26 -1z"/>
<path d="M12195 10198 c-4 -9 -2 -25 4 -37 6 -11 11 -63 11 -116 0 -90 10
-135 29 -135 8 0 5 176 -5 236 -2 17 -11 39 -18 50 -13 17 -15 17 -21 2z"/>
<path d="M4207 10193 c-3 -5 -8 -65 -12 -135 -4 -71 -11 -128 -16 -128 -17 0
-9 -29 10 -40 11 -5 43 -10 71 -10 44 0 56 5 81 29 16 16 29 37 29 46 0 21
-53 75 -73 75 -9 0 -29 -12 -46 -26 l-31 -26 6 105 c5 70 3 106 -4 111 -6 3
-13 3 -15 -1z m121 -232 c5 -32 -21 -51 -70 -51 -45 0 -47 8 -12 50 33 39 77
39 82 1z"/>
<path d="M1396 10182 c-9 -15 29 -124 68 -198 48 -91 80 -129 100 -121 13 5
16 26 16 130 l0 124 39 18 c21 9 54 20 72 24 18 3 34 12 37 19 7 21 -53 14
-117 -14 l-61 -27 0 -116 c0 -115 -1 -116 -19 -92 -32 42 -80 144 -94 201 -13
51 -29 71 -41 52z"/>
<path d="M11730 10156 c-19 -7 -36 -20 -38 -29 -4 -21 14 -21 48 -2 41 23 41
18 3 -53 -23 -42 -34 -74 -30 -85 6 -16 10 -16 57 3 64 25 82 25 105 0 11 -12
31 -20 52 -20 38 0 47 14 55 93 4 36 2 47 -8 47 -16 0 -37 -46 -28 -61 3 -5 2
-18 -1 -29 -7 -23 -40 -27 -52 -6 -18 29 -49 36 -94 21 -23 -8 -44 -14 -45
-12 -2 2 12 30 31 61 19 32 35 65 35 72 0 17 -42 17 -90 0z"/>
<path d="M12880 10163 c-56 -11 -64 -42 -26 -113 37 -71 40 -87 16 -95 -13 -4
-31 0 -45 9 -33 22 -46 -1 -15 -26 27 -22 58 -23 88 -2 29 20 28 37 -8 112
-17 34 -29 66 -26 71 10 15 76 23 91 11 18 -15 31 6 15 25 -12 15 -40 17 -90
8z"/>
<path d="M4010 10146 c0 -8 10 -22 22 -30 30 -22 48 -3 23 24 -21 23 -45 26
-45 6z"/>
<path d="M13524 10138 c-15 -12 -42 -37 -58 -56 l-31 -33 0 48 c0 38 -4 48
-18 51 -16 3 -17 -1 -12 -31 4 -21 1 -47 -9 -71 -17 -40 -14 -56 8 -56 8 0 45
32 84 71 39 39 75 68 80 65 6 -3 8 -24 5 -45 -8 -61 4 -110 31 -122 25 -12
106 4 106 21 0 14 -23 18 -55 8 -44 -12 -58 11 -51 84 3 32 3 64 0 73 -9 22
-47 19 -80 -7z"/>
<path d="M7250 10137 c-61 -48 -93 -140 -65 -184 15 -23 21 -24 83 -20 76 4
111 12 126 27 18 18 -2 23 -48 11 -65 -16 -133 -14 -140 4 -11 30 11 61 53 74
46 13 76 50 66 81 -7 23 -50 27 -75 7z m44 -31 c-5 -12 -45 -36 -61 -36 -4 0
4 11 17 25 25 27 53 34 44 11z"/>
<path d="M8947 10105 c-52 -36 -51 -72 3 -115 48 -38 43 -54 -17 -47 -37 4
-43 2 -41 -12 5 -22 114 -23 128 -1 15 24 12 31 -35 73 -25 22 -45 45 -45 51
0 6 16 21 35 34 35 22 46 42 22 42 -7 0 -29 -11 -50 -25z"/>
<path d="M13239 10113 c-37 -25 -49 -44 -49 -79 0 -82 119 -122 151 -50 9 20
8 32 -10 68 -12 24 -32 51 -45 60 -21 15 -25 16 -47 1z m44 -41 c20 -22 35
-63 30 -79 -6 -18 -59 -16 -77 3 -21 20 -20 53 1 76 20 22 26 22 46 0z"/>
<path d="M2450 10083 c-73 -89 -37 -154 45 -82 29 26 35 28 33 13 -4 -54 3
-94 17 -94 12 0 15 16 15 80 0 67 -3 83 -20 100 -29 29 -55 25 -90 -17z m60
-12 c0 -13 -60 -75 -66 -68 -10 9 36 77 52 77 8 0 14 -4 14 -9z"/>
<path d="M8543 10103 c-29 -19 -29 -52 -2 -87 30 -39 22 -61 -24 -60 -29 1
-37 -2 -37 -16 0 -35 62 -34 99 1 27 25 26 36 -4 81 -29 42 -24 66 13 70 14 2
27 9 30 16 5 18 -48 14 -75 -5z"/>
<path d="M8741 10090 c-24 -18 -51 -50 -63 -76 -21 -41 -21 -47 -7 -72 8 -15
27 -31 42 -36 32 -12 98 3 105 23 3 10 -6 12 -45 6 -40 -5 -53 -3 -67 10 -20
20 -17 36 10 50 87 45 118 81 94 110 -17 20 -21 19 -69 -15z m39 -14 c0 -2 -8
-10 -17 -17 -16 -13 -17 -12 -4 4 13 16 21 21 21 13z"/>
<path d="M5080 10099 c-25 -6 -64 -7 -86 -4 -46 7 -54 -2 -54 -58 0 -42 -18
-107 -30 -107 -12 0 -33 41 -54 108 -10 28 -21 52 -26 52 -16 0 -22 -22 -12
-43 5 -12 17 -43 27 -69 15 -43 54 -88 76 -88 16 0 41 62 46 115 l6 52 72 6
c84 8 105 14 105 33 0 16 -6 16 -70 3z"/>
<path d="M6662 10085 c-78 -65 -29 -155 69 -126 53 16 76 51 59 91 -26 62 -79
76 -128 35z m96 -40 c9 -18 7 -26 -6 -38 -44 -37 -92 -31 -92 12 0 36 15 49
55 49 24 0 35 -6 43 -23z"/>
<path d="M1910 10085 c-9 -11 -22 -14 -46 -9 -40 7 -84 -16 -84 -45 0 -10 9
-29 20 -43 19 -25 19 -25 -1 -66 -24 -49 -19 -94 14 -117 32 -22 55 -18 87 14
33 33 31 56 -7 108 l-24 32 41 42 c30 31 40 49 38 67 -4 31 -20 38 -38 17z
m-41 -54 c8 -14 6 -22 -8 -35 -18 -16 -20 -16 -35 5 -11 17 -13 26 -4 36 15
19 36 16 47 -6z m-2 -123 c28 -26 30 -64 4 -78 -27 -14 -28 -13 -46 13 -12 19
-13 30 -4 55 13 38 16 39 46 10z"/>
<path d="M2640 10080 c-19 -35 -41 -120 -35 -130 11 -17 19 -11 69 50 28 33
53 60 58 60 4 0 8 -27 8 -60 0 -47 3 -60 15 -60 16 0 18 10 15 80 -2 51 -14
80 -34 80 -8 0 -30 -18 -50 -40 -39 -44 -42 -44 -24 -5 16 34 -4 58 -22 25z"/>
<path d="M4516 10037 c-13 -29 -42 -69 -65 -90 -23 -20 -41 -41 -41 -47 0 -18
23 -11 51 16 26 24 29 25 49 11 26 -18 61 -9 98 25 l22 21 0 -20 c0 -11 9 -31
19 -44 16 -20 22 -22 33 -11 11 11 10 14 -2 22 -11 7 -14 25 -12 75 3 52 0 65
-11 65 -8 0 -20 -13 -25 -29 -12 -34 -76 -86 -97 -78 -12 5 -10 15 11 62 13
31 22 61 19 66 -13 20 -27 7 -49 -44z"/>
<path d="M8269 10063 c-24 -69 -33 -83 -80 -129 -27 -26 -49 -52 -49 -56 0
-18 28 -6 60 27 29 30 35 32 45 18 10 -13 15 -14 36 -3 13 7 35 23 49 36 l25
23 1 -40 c2 -46 15 -65 40 -55 13 5 15 9 6 18 -15 15 -15 61 -1 111 5 20 7 42
4 47 -3 5 -33 -18 -66 -52 -33 -33 -62 -59 -64 -56 -3 3 4 31 15 63 11 31 17
61 14 66 -10 17 -24 9 -35 -18z"/>
<path d="M13065 10053 c-33 -49 -33 -97 -1 -118 22 -14 28 -14 60 -1 42 17 54
52 36 97 -29 68 -58 75 -95 22z m65 -33 c15 -36 1 -60 -36 -60 -29 0 -33 33
-8 68 20 29 29 28 44 -8z"/>
<path d="M9909 10028 c-19 -18 -52 -53 -73 -77 l-39 -44 -19 23 c-22 28 -20
59 5 74 14 9 21 7 36 -13 15 -20 19 -21 24 -7 16 40 -32 69 -79 47 -46 -21
-48 -79 -4 -126 16 -18 17 -25 7 -64 -11 -40 -10 -44 12 -62 24 -20 52 -18 79
4 15 12 8 54 -14 78 -23 26 -17 38 53 110 46 48 63 73 56 80 -7 7 -21 0 -44
-23z m-85 -194 c10 -26 7 -34 -14 -34 -11 0 -20 4 -20 9 0 17 12 41 20 41 4 0
11 -7 14 -16z"/>
<path d="M10755 10040 c-14 -44 -8 -83 15 -102 29 -23 41 -23 74 3 28 22 35
64 16 100 -14 25 -45 26 -35 2 18 -42 18 -66 0 -79 -9 -7 -23 -10 -31 -7 -16
6 -19 69 -4 78 17 10 11 25 -9 25 -11 0 -23 -9 -26 -20z"/>
<path d="M12087 10044 c-9 -9 -9 -57 -1 -78 3 -9 12 -16 20 -16 11 0 13 10 8
43 -7 45 -16 62 -27 51z"/>
<path d="M4005 9940 c-9 -15 23 -80 39 -80 18 0 20 12 7 38 -5 9 -12 25 -15
35 -6 19 -21 23 -31 7z"/>
<path d="M5300 9896 c0 -66 -63 -152 -107 -144 -11 2 -18 -3 -18 -12 0 -30 52
-23 90 12 36 33 78 129 68 155 -9 23 -33 15 -33 -11z"/>
<path d="M7292 9788 c-7 -7 -12 -43 -12 -89 0 -44 -5 -81 -10 -84 -8 -5 -8
-11 -1 -19 6 -7 15 -37 21 -66 6 -29 15 -59 22 -67 17 -21 30 0 18 31 -11 29
-14 116 -4 116 14 0 107 -87 120 -112 18 -35 49 -39 38 -5 -8 24 -36 66 -45
67 -3 0 -22 15 -42 33 l-36 32 74 40 c41 22 75 45 75 52 0 20 -24 15 -65 -12
-20 -14 -60 -34 -87 -45 l-50 -19 3 74 c4 78 0 92 -19 73z"/>
<path d="M2887 9774 c-3 -3 -3 -28 0 -54 3 -27 1 -62 -5 -79 -6 -17 -14 -58
-18 -91 -8 -77 6 -78 60 -8 l39 51 11 -26 c15 -35 73 -97 91 -97 23 0 18 20
-10 42 -59 46 -63 91 -14 160 22 30 20 62 -3 52 -7 -3 -40 -38 -73 -79 -33
-41 -61 -72 -64 -70 -2 3 2 24 8 47 21 75 6 180 -22 152z"/>
<path d="M2088 9722 c-71 -43 -97 -72 -65 -72 6 0 23 -3 36 -7 20 -5 22 -3 17
14 -5 15 2 24 34 42 22 12 40 19 40 16 0 -4 -16 -43 -35 -86 -19 -44 -35 -87
-35 -94 0 -24 29 -17 70 15 43 34 50 36 50 16 0 -8 12 -24 26 -35 51 -40 108
17 97 97 -8 59 -33 57 -33 -2 0 -24 -3 -51 -6 -60 -10 -27 -41 -18 -63 19 -24
41 -30 42 -61 15 -13 -11 -25 -19 -27 -17 -2 2 8 28 21 58 32 70 43 129 25
129 -8 -1 -49 -22 -91 -48z"/>
<path d="M6547 9746 c-45 -16 -69 -37 -108 -90 -61 -83 -25 -177 72 -191 76
-11 214 -2 214 14 0 11 -19 13 -92 12 -104 -2 -168 11 -183 39 -18 33 -11 76
20 118 40 55 81 76 137 68 50 -7 60 13 18 32 -31 14 -31 14 -78 -2z"/>
<path d="M6783 9663 c0 -49 -3 -97 -5 -108 -5 -30 27 -30 67 0 l35 27 0 -36
c0 -26 7 -44 25 -61 27 -28 55 -33 55 -10 0 8 -4 15 -9 15 -20 0 -41 33 -41
65 0 70 -19 81 -69 40 l-30 -26 6 55 c7 64 -3 126 -20 126 -8 0 -12 -27 -14
-87z"/>
<path d="M5666 9709 c-15 -4 -37 -16 -47 -25 -35 -32 -24 -58 51 -119 63 -52
90 -81 90 -99 0 -3 -11 -6 -25 -6 -35 0 -105 37 -105 55 0 8 -7 15 -15 15 -21
0 -19 -33 3 -53 46 -41 148 -61 171 -33 19 22 3 47 -83 128 -77 75 -80 79 -62
93 23 17 69 20 96 5 26 -14 39 9 14 24 -32 19 -58 23 -88 15z"/>
<path d="M5362 9673 c-6 -16 -16 -46 -23 -68 -27 -90 -51 -112 -90 -82 -19 14
-89 116 -89 128 0 5 -6 9 -14 9 -7 0 -24 -24 -37 -52 -28 -64 -34 -183 -9
-183 11 0 15 15 15 60 1 33 8 75 16 93 l14 33 35 -52 c19 -29 52 -61 72 -73
36 -21 36 -21 59 -1 12 11 30 38 40 60 16 35 19 37 19 15 0 -43 47 -100 82
-100 24 0 23 26 -1 33 -36 9 -53 50 -52 131 0 57 -3 76 -13 76 -8 0 -18 -12
-24 -27z"/>
<path d="M7630 9650 c-11 -11 -20 -24 -20 -30 0 -5 -7 -10 -16 -10 -14 0 -16
-8 -10 -46 3 -26 6 -57 6 -70 0 -39 30 -30 31 9 0 17 6 52 12 77 11 42 14 45
46 45 45 0 51 20 10 34 -40 14 -35 15 -59 -9z"/>
<path d="M2446 9619 c-62 -68 -69 -115 -22 -137 32 -14 90 2 111 31 23 33 19
81 -11 116 -14 17 -29 31 -34 31 -4 0 -24 -18 -44 -41z m69 -30 c11 -33 -3
-68 -29 -75 -61 -15 -74 12 -34 68 23 33 54 36 63 7z"/>
<path d="M2616 9638 c-9 -12 -16 -30 -16 -40 0 -10 -4 -18 -10 -18 -16 0 -11
-33 9 -59 26 -34 42 -19 34 34 -7 55 7 75 54 75 49 0 37 24 -14 28 -34 3 -44
-1 -57 -20z"/>
<path d="M7835 9641 c-62 -42 -88 -112 -45 -126 17 -5 72 5 116 22 8 3 14 -1
14 -9 0 -21 46 -61 60 -53 8 5 5 14 -10 30 -20 21 -21 27 -10 60 15 46 -1 72
-25 38 -18 -25 -74 -53 -109 -53 -35 0 -33 12 10 50 28 24 42 30 61 25 20 -5
24 -2 21 12 -5 25 -47 27 -83 4z"/>
<path d="M7030 9611 c-39 -38 -48 -76 -25 -101 21 -23 50 -25 84 -6 23 13 26
11 46 -18 20 -30 65 -49 65 -27 0 6 -4 11 -10 11 -14 0 -40 55 -40 85 0 29
-12 32 -31 8 -21 -25 -79 -47 -92 -34 -15 15 23 65 52 69 25 4 28 27 5 36 -23
9 -23 9 -54 -23z"/>
<path d="M3915 9619 c-5 -5 -26 -20 -45 -32 -21 -14 -38 -35 -44 -55 -8 -28
-6 -36 14 -57 26 -28 46 -31 84 -13 32 14 40 38 32 93 -4 27 -3 46 4 50 6 3 8
11 5 16 -8 12 -37 11 -50 -2z m9 -71 c9 -37 7 -47 -13 -58 -43 -23 -71 15 -40
54 25 32 45 33 53 4z"/>
<path d="M4106 9585 l-24 -25 -6 22 -7 23 -10 -25 c-13 -31 -2 -110 15 -110 6
0 18 17 25 38 15 42 38 72 56 72 21 0 48 -39 54 -76 3 -21 11 -36 16 -36 15 2
18 51 4 83 -25 61 -84 77 -123 34z"/>
<path d="M8140 9492 c0 -5 9 -17 20 -27 16 -15 23 -16 33 -6 9 10 8 15 -7 27
-22 16 -46 19 -46 6z"/>
<path d="M3065 8971 c-6 -4 -56 -14 -112 -21 -80 -9 -103 -16 -103 -28 0 -16
-9 -16 180 8 95 12 117 24 76 40 -33 12 -30 12 -41 1z"/>
<path d="M3696 8955 c-3 -9 -6 -47 -6 -83 0 -108 -4 -114 -64 -111 -39 2 -51
0 -51 -11 0 -11 15 -16 52 -18 l52 -3 6 -47 c8 -60 24 -110 36 -118 18 -11 22
5 11 48 -6 24 -14 59 -17 79 -5 36 -4 37 32 46 24 6 39 15 41 27 3 15 0 18
-21 12 -14 -3 -33 -9 -42 -12 -14 -6 -16 -3 -12 12 12 40 12 187 1 191 -6 2
-14 -3 -18 -12z"/>
<path d="M2027 8908 c-4 -13 -7 -39 -7 -58 0 -38 -37 -270 -44 -277 -12 -12
-146 218 -146 250 0 8 -9 22 -20 32 -35 32 -33 -6 6 -85 49 -101 153 -260 170
-260 7 0 16 10 19 23 13 61 45 282 45 317 0 39 1 40 35 40 24 0 35 5 35 15 0
9 -9 15 -22 15 -13 0 -33 3 -44 6 -16 4 -23 0 -27 -18z"/>
<path d="M7490 8909 c0 -12 26 -48 62 -85 35 -37 58 -68 52 -72 -5 -4 -43 -29
-84 -57 -89 -60 -160 -125 -160 -148 0 -26 16 -20 44 16 14 17 72 64 128 102
68 46 104 77 106 91 2 14 -13 37 -47 70 -28 27 -51 55 -51 63 0 14 -28 40 -42
41 -5 0 -8 -9 -8 -21z"/>
<path d="M2889 8893 c-1 -4 0 -43 1 -85 1 -67 -1 -78 -15 -78 -10 0 -15 -6
-13 -16 2 -8 8 -15 13 -14 6 0 12 -38 15 -87 3 -55 9 -88 17 -90 9 -3 13 22
15 94 l3 98 65 0 c36 0 66 5 67 10 4 15 -47 26 -94 21 l-42 -6 -3 77 c-2 50
-7 78 -15 81 -7 2 -13 0 -14 -5z"/>
<path d="M6484 8816 c-65 -29 -57 -67 24 -119 72 -46 106 -81 99 -101 -8 -21
-73 -31 -104 -17 -38 17 -52 -2 -19 -24 53 -35 156 -2 156 50 0 24 -68 93
-117 118 -16 9 -35 22 -42 31 -10 12 -7 17 19 31 17 9 46 15 63 13 23 -2 32 1
32 12 0 20 -70 24 -111 6z"/>
<path d="M6255 8794 c-50 -26 -77 -65 -102 -149 -8 -26 -10 -20 -16 46 -4 42
-9 84 -13 93 -9 22 -30 14 -26 -10 2 -10 7 -107 12 -214 6 -107 12 -201 15
-207 16 -43 45 38 45 126 0 71 4 77 48 73 52 -5 94 31 121 104 28 73 26 90 -8
125 -34 34 -36 34 -76 13z m65 -45 c26 -48 -50 -175 -100 -167 -37 5 -45 29
-30 82 23 84 103 136 130 85z m-173 -186 c-3 -10 -5 -4 -5 12 0 17 2 24 5 18
2 -7 2 -21 0 -30z"/>
<path d="M4123 8765 c-28 -20 -44 -76 -36 -131 8 -60 27 -74 47 -35 10 19 12
32 6 36 -6 3 -10 3 -11 -2 0 -4 -4 2 -9 14 -20 50 21 110 60 86 29 -19 39 6
10 29 -27 22 -39 23 -67 3z"/>
<path d="M5507 8752 c-26 -29 -17 -190 11 -200 11 -3 13 14 10 89 l-3 94 38 3
c48 4 45 26 -4 30 -24 2 -40 -3 -52 -16z"/>
<path d="M5974 8745 c18 -70 18 -111 1 -128 -20 -20 -68 -22 -83 -4 -6 7 -12
42 -14 77 -4 86 -22 83 -26 -4 -3 -60 0 -72 19 -92 32 -34 91 -33 126 2 23 24
25 31 20 83 -8 72 -15 91 -34 91 -11 0 -13 -7 -9 -25z"/>
<path d="M7365 8750 c-77 -11 -162 -20 -188 -21 -45 -2 -70 -19 -54 -36 4 -3
100 6 216 21 115 15 215 25 222 24 8 -2 14 4 14 12 0 22 -47 22 -210 0z"/>
<path d="M4365 8750 c-38 -15 -67 -57 -72 -103 -4 -36 -1 -48 20 -72 20 -24
33 -29 78 -31 57 -3 111 19 102 42 -3 9 -13 8 -43 -3 -48 -19 -105 -10 -121
18 -15 29 -5 46 30 54 36 8 81 41 81 60 0 8 -10 21 -22 29 -25 18 -25 18 -53
6z m45 -37 c0 -7 -72 -35 -77 -30 -8 9 49 46 63 40 8 -3 14 -7 14 -10z"/>
<path d="M5684 8726 c-27 -27 -34 -42 -34 -73 0 -52 17 -73 66 -80 84 -11 116
72 57 150 -16 20 -34 36 -41 37 -8 0 -29 -15 -48 -34z m70 -28 c36 -51 9 -110
-41 -92 -37 13 -46 45 -22 83 22 37 42 39 63 9z"/>
<path d="M4005 8697 c5 -34 3 -47 -15 -70 -21 -27 -61 -36 -86 -19 -21 14 -36
55 -30 84 5 24 3 29 -12 26 -23 -4 -28 -58 -7 -97 19 -38 66 -64 100 -55 39
10 85 69 85 109 0 44 -9 65 -27 65 -11 0 -13 -9 -8 -43z"/>
<path d="M3141 8695 c-39 -44 -48 -81 -30 -113 27 -49 106 -84 139 -63 19 13
9 21 -32 28 -42 6 -65 19 -78 42 -8 16 -3 22 38 43 52 25 63 49 36 79 -24 27
-38 24 -73 -16z m53 -14 c3 -5 -1 -12 -10 -15 -27 -11 -37 -7 -24 9 14 17 26
19 34 6z"/>
<path d="M3387 8719 c-9 -5 -26 -28 -37 -50 -18 -34 -19 -43 -8 -67 19 -39 65
-42 101 -6 15 15 29 25 30 23 2 -2 8 -17 15 -32 11 -27 37 -45 48 -34 3 3 -2
16 -11 30 -8 13 -19 44 -23 67 -9 55 -26 61 -48 18 -23 -46 -44 -68 -66 -68
-12 0 -18 7 -18 24 0 30 37 77 58 74 10 -2 17 4 17 12 0 18 -33 24 -58 9z"/>
<path d="M2133 8705 c-30 -21 -29 -48 2 -102 l26 -43 -26 -43 c-30 -53 -32
-90 -5 -117 27 -27 85 -27 100 -1 15 30 12 81 -9 128 -18 39 -18 42 -1 60 47
51 48 97 4 113 -50 19 -69 20 -91 5z m71 -44 c17 -18 17 -21 1 -45 -10 -14
-19 -26 -21 -26 -7 0 -44 65 -44 78 0 19 45 14 64 -7z m6 -214 c0 -31 -24 -46
-49 -30 -25 16 -25 50 0 85 l23 32 13 -30 c6 -16 12 -42 13 -57z"/>
<path d="M5287 8705 c-68 -23 -106 -70 -87 -106 27 -49 114 -54 151 -10 15 18
17 13 28 -82 7 -56 14 -110 17 -119 4 -14 -3 -17 -38 -20 -36 -3 -44 -7 -52
-31 -20 -55 27 -168 72 -175 32 -5 62 50 62 116 0 50 1 52 28 52 19 0 29 5 29
15 0 10 -10 15 -29 15 -34 0 -42 17 -52 105 -16 142 -30 221 -40 231 -19 20
-50 23 -89 9z m59 -45 c-3 -11 -9 -29 -12 -40 -11 -38 -104 -39 -104 -1 0 24
56 61 93 61 24 0 27 -3 23 -20z m58 -388 c-2 -101 -31 -110 -60 -18 -22 68
-15 88 28 84 l33 -3 -1 -63z"/>
<path d="M5511 8344 c0 -11 3 -14 6 -6 3 7 2 16 -1 19 -3 4 -6 -2 -5 -13z"/>
<path d="M7530 8171 c-82 -25 -150 -82 -150 -126 0 -37 63 -108 146 -165 95
-64 113 -85 114 -127 0 -64 -88 -94 -167 -56 -45 21 -61 54 -43 88 15 28 9 41
-14 32 -19 -8 -30 -49 -22 -82 13 -51 121 -101 190 -88 30 6 84 58 92 89 11
42 -26 95 -101 147 -73 50 -140 110 -156 140 -16 28 -2 53 48 86 49 33 109 41
131 19 7 -7 12 -33 12 -59 0 -47 13 -70 30 -53 5 5 10 41 11 79 l3 70 -30 1
c-16 0 -38 3 -49 6 -11 3 -31 3 -45 -1z"/>
<path d="M2951 8156 c-36 -13 -81 -58 -81 -82 0 -30 40 -93 82 -128 76 -65
108 -113 108 -162 0 -48 -25 -84 -58 -84 -33 0 -113 32 -119 48 -4 8 -1 24 6
35 22 35 -4 42 -29 7 -21 -29 -21 -32 -5 -56 19 -29 67 -52 128 -60 78 -11
127 58 104 148 -8 33 -28 61 -90 123 -44 44 -83 91 -88 104 -13 33 12 67 58
80 53 15 53 15 53 -21 0 -52 11 -78 31 -78 23 0 39 29 39 69 0 25 -7 36 -32
51 -37 23 -58 24 -107 6z m106 -78 c-3 -7 -5 -2 -5 12 0 14 2 19 5 13 2 -7 2
-19 0 -25z"/>
<path d="M7847 8143 c-4 -3 -7 -25 -7 -47 -1 -23 -6 -79 -13 -126 l-13 -85
-42 -3 c-28 -2 -42 -8 -42 -18 0 -10 12 -14 45 -14 l45 0 0 -59 c0 -66 17
-124 34 -118 6 2 9 13 8 23 -2 10 -6 51 -9 90 l-5 72 43 7 c63 9 79 15 79 27
0 7 -21 9 -60 5 -70 -6 -65 -19 -46 133 8 58 12 108 9 113 -5 9 -17 9 -26 0z"/>
<path d="M8797 8111 c-61 -54 -58 -87 29 -271 51 -108 53 -138 9 -158 -55 -25
-105 -1 -105 51 0 31 46 68 75 61 19 -5 25 -2 25 10 0 23 -43 30 -78 12 -56
-29 -68 -127 -19 -161 43 -30 133 -10 157 34 18 34 11 62 -46 185 -67 145 -71
178 -22 217 24 21 30 31 22 39 -9 9 -20 4 -47 -19z"/>
<path d="M3237 8084 c-4 -4 -7 -68 -8 -143 0 -75 -4 -158 -9 -186 -4 -27 -4
-54 0 -59 5 -5 33 18 64 50 54 57 55 58 56 31 0 -36 17 -67 35 -67 17 0 20 21
6 36 -5 5 -11 27 -13 49 -4 53 -28 57 -74 11 l-35 -35 2 156 c2 145 -3 177
-24 157z"/>
<path d="M11623 8045 c-32 -13 -40 -25 -27 -37 3 -4 20 0 37 7 43 18 83 20
205 11 88 -7 102 -11 98 -25 -2 -9 -7 -46 -11 -83 -4 -37 -12 -71 -18 -75 -7
-4 -50 -10 -97 -13 -66 -4 -85 -8 -85 -20 0 -16 58 -19 153 -6 49 6 52 6 52
-16 1 -38 27 -123 36 -120 11 3 10 53 -3 114 -10 46 -10 47 19 59 17 7 57 30
90 51 54 35 59 41 56 71 -4 45 -46 63 -191 82 -146 19 -271 19 -314 0z m406
-46 c95 -20 88 -55 -22 -111 l-59 -29 6 28 c3 15 8 49 12 76 3 26 8 47 10 47
1 0 25 -5 53 -11z"/>
<path d="M6845 8020 c-32 -13 -105 -86 -105 -104 0 -26 14 -19 62 29 84 84
101 52 38 -71 -45 -90 -58 -108 -82 -117 -21 -7 -128 -136 -128 -154 0 -29 40
-10 89 41 39 42 50 49 45 31 -6 -25 10 -63 35 -82 35 -27 121 -4 121 33 0 18
-14 18 -30 -1 -19 -23 -67 -19 -84 8 -21 33 -7 114 31 173 72 111 92 193 54
214 -22 11 -20 11 -46 0z"/>
<path d="M11000 8019 c-132 -10 -218 -11 -230 -4 -5 3 -12 0 -15 -6 -17 -27
16 -31 194 -24 168 7 181 9 181 26 0 11 -3 18 -7 17 -5 0 -60 -5 -123 -9z"/>
<path d="M10303 7988 c-35 -11 -63 -24 -63 -28 0 -19 21 -19 82 0 80 25 81 25
32 -8 -110 -74 -117 -87 -60 -111 46 -20 76 -60 76 -101 0 -30 -43 -43 -130
-37 -60 3 -77 8 -88 25 -14 22 -52 19 -52 -4 0 -41 167 -71 248 -45 45 15 47
18 50 56 3 48 -24 97 -68 124 l-31 18 71 49 c79 53 88 78 30 81 -19 1 -63 -8
-97 -19z"/>
<path d="M3507 7994 c-13 -13 -7 -24 14 -24 11 0 19 5 17 12 -5 14 -22 21 -31
12z"/>
<path d="M4074 7966 c-6 -17 2 -36 17 -36 12 0 12 37 -1 45 -6 3 -13 -1 -16
-9z"/>
<path d="M2170 7964 c0 -3 5 -14 11 -25 8 -15 6 -32 -5 -67 -37 -111 -42 -202
-11 -202 9 0 13 15 13 49 0 27 10 82 22 122 23 79 17 129 -15 129 -8 0 -15 -3
-15 -6z"/>
<path d="M10925 7948 c-20 -58 -24 -110 -10 -150 24 -72 19 -85 -40 -92 -27
-3 -64 -6 -82 -6 -34 0 -51 -16 -35 -32 6 -6 48 -4 123 7 64 10 131 14 156 10
34 -5 43 -3 43 8 0 16 -29 27 -75 27 -29 0 -32 4 -50 58 -22 64 -24 97 -7 129
12 22 7 53 -9 53 -5 0 -12 -6 -14 -12z"/>
<path d="M12716 7878 c-11 -16 -16 -46 -16 -100 0 -125 29 -109 35 19 1 32 3
62 4 67 0 5 18 6 39 2 43 -6 57 1 41 21 -19 22 -85 16 -103 -9z"/>
<path d="M12928 7855 c-61 -57 -70 -83 -38 -115 24 -24 87 -27 116 -5 21 16
18 18 -46 19 -37 1 -45 4 -45 19 0 14 14 24 50 35 52 18 67 40 45 67 -19 23
-42 17 -82 -20z m52 -5 c0 -5 -5 -10 -11 -10 -5 0 -7 5 -4 10 3 6 8 10 11 10
2 0 4 -4 4 -10z"/>
<path d="M13219 7876 c-44 -14 -47 -37 -10 -75 51 -52 35 -79 -28 -46 -27 13
-41 11 -41 -6 0 -13 56 -39 83 -39 51 0 62 50 22 98 -14 17 -25 32 -25 35 0 3
21 7 48 9 26 2 46 8 45 13 -3 16 -58 23 -94 11z"/>
<path d="M13388 7878 c-46 -16 -37 -49 21 -76 64 -29 72 -48 22 -57 -21 -3
-44 -5 -52 -3 -8 2 -14 -4 -14 -12 0 -20 71 -25 105 -7 38 19 37 51 -2 81 -19
14 -45 29 -58 34 -24 9 -23 10 14 17 27 5 41 4 46 -5 9 -15 30 -5 30 15 0 25
-60 33 -112 13z"/>
<path d="M8279 7840 c-46 -48 -53 -96 -19 -130 23 -23 29 -24 63 -11 24 9 26
7 51 -72 52 -168 57 -193 47 -221 -14 -36 -34 -33 -70 11 -32 38 -26 59 12 47
18 -6 33 17 23 35 -8 12 -65 -3 -85 -24 -13 -13 -13 -18 0 -41 27 -52 69 -85
103 -82 26 3 33 9 45 43 13 38 12 47 -29 180 -29 97 -42 158 -42 198 1 62 -11
72 -44 36 -13 -14 -15 -22 -6 -27 6 -5 9 -18 5 -30 -8 -32 -57 -27 -61 5 -4
30 33 81 64 89 27 7 27 27 0 32 -10 2 -33 -13 -57 -38z"/>
<path d="M11150 7785 c0 -90 8 -103 37 -57 22 35 64 82 75 82 4 0 8 -7 8 -16
0 -27 31 -84 46 -84 18 0 18 11 -1 46 -8 16 -15 36 -15 45 0 20 -20 39 -41 39
-9 0 -31 -14 -48 -32 l-31 -32 0 47 c0 35 -4 47 -15 47 -12 0 -15 -16 -15 -85z"/>
<path d="M4230 7852 c-30 -10 -51 -36 -65 -86 -11 -35 -12 -53 -5 -60 15 -15
51 33 46 59 -6 26 19 59 38 52 11 -4 16 -25 18 -74 2 -52 6 -68 18 -68 12 0
14 12 12 65 -2 36 -6 73 -8 83 -6 21 -34 36 -54 29z"/>
<path d="M3650 7834 c-7 -7 -18 -31 -25 -51 l-13 -38 -11 28 c-11 28 -39 33
-32 6 15 -63 22 -160 15 -226 -4 -43 -8 -82 -9 -88 0 -5 8 -11 18 -13 12 -3
17 3 17 19 0 13 4 48 10 78 5 31 12 73 16 95 4 29 8 36 17 27 21 -21 74 -13
96 15 25 32 28 79 5 88 -9 3 -14 12 -11 20 7 18 -32 52 -60 54 -12 0 -27 -6
-33 -14z m80 -65 c26 -62 -31 -107 -73 -59 -21 25 -21 25 4 77 20 41 22 43 39
28 10 -9 24 -30 30 -46z"/>
<path d="M3841 7836 c-6 -7 -8 -15 -5 -19 6 -6 -13 -318 -22 -366 -5 -24 -3
-31 9 -31 16 0 29 47 42 158 6 47 9 52 32 52 35 0 83 51 83 88 0 16 -10 44
-23 63 -18 26 -30 34 -54 34 -18 0 -29 4 -26 11 6 17 -24 25 -36 10z m94 -76
c8 -16 15 -36 15 -45 0 -22 -36 -55 -61 -55 -19 0 -20 4 -14 53 11 80 33 98
60 47z"/>
<path d="M8000 7824 c-56 -48 -77 -116 -44 -148 24 -24 78 -20 112 9 l30 25
25 -33 c20 -25 28 -29 37 -20 10 9 7 18 -14 43 -19 23 -26 43 -26 72 0 45 -23
50 -28 5 -5 -39 -58 -89 -91 -85 -35 4 -38 34 -8 78 20 30 28 35 60 33 42 -3
47 9 15 31 -29 21 -31 21 -68 -10z"/>
<path d="M8515 7828 c-38 -30 -59 -82 -44 -111 23 -44 41 -57 81 -57 32 0 38
3 38 21 0 18 -5 20 -37 17 -29 -2 -38 1 -41 15 -2 10 3 17 11 17 8 0 26 9 41
21 28 22 35 66 14 87 -17 17 -32 15 -63 -10z m45 -33 c0 -15 -35 -38 -51 -33
-13 4 19 48 37 48 8 0 14 -7 14 -15z"/>
<path d="M12477 7815 c-82 -56 -44 -145 56 -130 l42 7 12 -64 c7 -35 16 -73
19 -85 6 -21 4 -22 -24 -17 -53 11 -80 -2 -87 -40 -10 -52 36 -124 91 -140 58
-18 80 94 45 229 -11 44 -20 110 -20 147 0 38 -3 72 -6 78 -11 19 -25 -1 -25
-35 0 -39 -2 -41 -50 -50 -23 -4 -41 -1 -54 8 -28 21 -12 52 39 77 25 12 43
26 39 31 -9 16 -38 10 -77 -16z m112 -321 c27 -6 31 -11 31 -38 0 -49 -11 -76
-30 -76 -32 0 -76 72 -64 105 7 17 17 18 63 9z"/>
<path d="M4406 7799 c-34 -40 -35 -85 -1 -101 20 -9 33 -7 74 14 l49 24 31
-126 c17 -69 31 -131 31 -137 0 -8 -14 -13 -35 -13 -46 0 -81 -24 -106 -71
-25 -49 -24 -90 2 -123 23 -30 56 -33 98 -11 37 19 81 71 81 96 0 11 7 27 15
36 14 14 14 18 1 38 -9 13 -30 81 -47 152 -46 189 -68 253 -84 253 -8 0 -15
-5 -15 -12 0 -9 -3 -9 -12 0 -21 21 -55 13 -82 -19z m64 -10 c0 -8 4 -8 13 -1
10 8 13 6 14 -8 2 -23 -32 -50 -64 -50 -27 0 -29 17 -7 48 16 23 44 30 44 11z
m128 -407 c3 -38 -1 -47 -31 -77 -84 -84 -148 3 -71 95 22 26 33 31 63 28 35
-3 36 -4 39 -46z"/>
<path d="M12081 7775 c-22 -58 -27 -105 -12 -105 13 0 28 23 28 41 0 9 5 31
12 47 11 27 16 30 37 22 15 -6 26 -6 30 1 3 6 4 12 3 13 -7 6 -68 36 -73 36
-2 0 -14 -25 -25 -55z"/>
<path d="M4061 7807 c-13 -16 -18 -108 -6 -126 17 -29 29 -2 28 63 -2 75 -5
83 -22 63z"/>
<path d="M12278 7810 c-23 -14 -58 -73 -58 -98 0 -55 105 -65 155 -14 32 32
32 63 -1 96 -28 27 -66 33 -96 16z m74 -37 c23 -21 23 -36 -1 -57 -18 -16 -85
-25 -97 -13 -11 11 16 62 39 74 32 15 38 15 59 -4z"/>
<path d="M3457 7803 c-3 -5 -7 -30 -8 -57 -3 -43 0 -51 19 -59 28 -13 40 -2
24 23 -7 11 -12 35 -12 54 0 33 -13 55 -23 39z"/>
<path d="M2244 7736 c-8 -22 3 -49 19 -43 6 2 12 14 12 27 0 27 -22 39 -31 16z"/>
<path d="M6971 7668 c-6 -16 -5 -27 4 -37 18 -18 31 -8 30 25 0 35 -22 43 -34
12z"/>
<path d="M10464 7669 c-9 -15 11 -33 30 -26 9 4 13 13 10 22 -7 17 -30 20 -40
4z"/>
<path d="M1785 7611 c-2 -5 4 -20 15 -33 10 -14 21 -35 25 -49 5 -22 -1 -27
-64 -56 -81 -38 -202 -150 -270 -251 -149 -220 -227 -536 -238 -963 -8 -278
15 -429 74 -499 23 -28 28 -30 41 -17 15 16 8 42 -9 31 -5 -3 -18 14 -29 38
-69 156 -66 571 6 931 55 275 139 442 302 599 70 69 161 128 197 128 6 0 17
-16 24 -35 10 -29 17 -35 42 -35 19 0 29 5 29 14 0 8 11 36 25 63 15 28 25 60
23 77 -3 27 -8 31 -58 42 -88 19 -129 23 -135 15z m165 -60 c0 -6 -4 -13 -10
-16 -5 -3 -10 1 -10 9 0 9 5 16 10 16 6 0 10 -4 10 -9z m-50 -98 c-1 -24 -2
-26 -11 -10 -5 9 -7 22 -4 27 10 17 15 11 15 -17z"/>
<path d="M7320 6807 c-105 -31 -212 -99 -195 -127 4 -7 15 -3 32 14 32 32 167
88 216 90 39 1 57 -13 57 -45 0 -23 -81 -131 -122 -163 -19 -14 -48 -29 -65
-32 l-31 -6 14 58 c14 61 12 74 -12 74 -9 0 -14 -10 -14 -29 0 -15 -14 -72
-31 -126 -32 -101 -42 -185 -23 -192 7 -2 14 16 18 44 8 59 35 143 46 143 4 0
16 -12 26 -27 14 -21 19 -46 19 -98 0 -54 3 -70 15 -73 13 -2 16 11 15 77 0
50 -5 85 -12 93 -17 16 -16 38 0 38 42 0 187 171 187 220 0 62 -58 90 -140 67z"/>
<path d="M11472 6774 c-1 -21 -11 -54 -22 -76 -24 -46 -26 -78 -5 -78 8 0 15
7 15 15 0 8 9 32 20 52 23 44 27 123 7 123 -9 0 -14 -13 -15 -36z"/>
<path d="M15592 6787 c-15 -17 -20 -121 -7 -125 13 -4 38 119 27 130 -5 5 -14
3 -20 -5z"/>
<path d="M8101 6756 c-6 -7 -9 -20 -6 -28 4 -9 -19 -81 -49 -162 -31 -81 -56
-155 -56 -166 0 -22 19 -37 24 -18 6 23 67 190 93 257 33 85 40 131 21 131 -9
0 -21 -6 -27 -14z"/>
<path d="M5862 6728 c0 -13 -9 -65 -21 -116 -20 -79 -25 -92 -41 -87 -25 8
-88 -57 -95 -99 -11 -57 -3 -91 23 -94 35 -5 58 22 91 107 33 87 84 288 75
302 -11 18 -34 9 -32 -13z m-72 -280 c-11 -31 -30 -64 -42 -74 l-21 -19 6 44
c4 31 15 53 38 77 18 19 34 32 36 30 2 -2 -6 -28 -17 -58z"/>
<path d="M8796 6733 c-10 -11 -7 -55 4 -48 6 3 10 1 10 -4 0 -6 -4 -11 -10
-11 -5 0 -10 -6 -10 -14 0 -8 -13 -19 -30 -24 -32 -12 -80 -54 -80 -72 0 -6
14 -24 31 -40 l31 -28 -19 -59 c-17 -49 -24 -58 -46 -61 -16 -2 -34 5 -47 18
-27 27 -46 13 -25 -18 9 -11 31 -24 51 -28 27 -5 34 -10 29 -23 -16 -40 -37
-152 -31 -167 10 -27 28 -10 32 31 2 22 11 68 20 102 13 48 21 63 39 67 32 8
85 60 85 84 0 11 -11 34 -25 50 -24 29 -24 29 -8 80 17 54 25 59 90 53 12 -1
25 4 29 10 11 18 -18 30 -58 24 l-38 -5 0 39 c0 38 -10 57 -24 44z m-28 -163
c-13 -38 -22 -44 -38 -25 -10 13 -9 19 5 35 29 32 46 26 33 -10z m32 -132 c0
-8 -53 -59 -57 -54 -3 2 1 16 24 86 4 12 7 12 19 -4 8 -11 14 -23 14 -28z"/>
<path d="M6636 6723 c-3 -3 -6 -20 -7 -37 0 -17 -8 -53 -18 -81 -16 -45 -21
-51 -52 -56 -40 -6 -59 -16 -59 -30 0 -7 15 -8 40 -4 l40 7 -20 -47 c-11 -26
-20 -56 -20 -67 0 -36 23 -13 44 44 12 31 25 60 29 64 4 4 37 10 75 13 80 7
85 25 6 28 -31 1 -57 3 -59 5 -3 2 2 26 10 53 8 26 15 61 15 76 0 28 -12 44
-24 32z"/>
<path d="M3193 6708 c-5 -7 -15 -33 -22 -58 -7 -25 -33 -89 -58 -143 -52 -113
-48 -139 12 -93 19 15 35 30 35 34 0 4 8 12 19 19 16 10 18 8 17 -25 -1 -27 3
-37 14 -37 11 0 15 13 15 54 0 30 -5 56 -11 58 -6 2 -27 -8 -47 -22 l-37 -25
19 38 c18 37 45 108 47 127 2 18 17 50 27 56 10 7 1 29 -12 29 -5 0 -13 -6
-18 -12z"/>
<path d="M3035 6698 c-2 -7 -9 -33 -15 -58 -27 -109 -27 -109 -81 -116 -34 -5
-49 -11 -49 -22 0 -11 9 -13 40 -9 22 3 40 3 40 1 0 -3 -9 -22 -20 -44 -24
-47 -25 -60 -6 -60 8 0 27 27 42 60 18 41 32 60 45 60 22 0 69 20 69 30 0 15
-13 18 -37 9 -14 -5 -28 -8 -30 -5 -6 5 18 99 29 113 11 14 1 53 -13 53 -5 0
-12 -6 -14 -12z"/>
<path d="M9900 6626 c0 -24 -3 -64 -6 -88 -5 -38 -9 -45 -25 -41 -80 21 -154
-112 -103 -185 20 -29 40 -28 71 6 43 47 71 114 82 203 22 160 22 149 0 149
-16 0 -19 -7 -19 -44z m-32 -165 c11 -7 11 -14 -1 -42 -18 -43 -66 -101 -78
-93 -20 12 -9 82 17 113 27 32 40 37 62 22z"/>
<path d="M2124 6625 c-8 -45 -15 -49 -94 -55 -49 -4 -65 -9 -65 -20 0 -12 12
-14 63 -12 39 3 62 0 62 -7 0 -6 -12 -40 -26 -75 -26 -61 -27 -96 -4 -96 5 0
10 6 10 14 0 8 14 51 32 95 l31 81 44 0 c32 0 43 4 43 15 0 11 -11 15 -36 15
l-36 0 7 40 c5 32 4 40 -9 40 -9 0 -18 -13 -22 -35z"/>
<path d="M13903 6644 c-7 -18 6 -45 26 -52 9 -3 11 6 9 29 -3 36 -24 50 -35
23z"/>
<path d="M15266 6629 c-34 -26 -34 -68 -1 -107 30 -36 30 -35 4 -88 -29 -60
-23 -115 13 -132 24 -11 33 -11 63 4 54 25 61 101 14 150 l-21 23 22 30 c12
17 26 31 31 31 5 0 9 7 9 15 0 26 -35 16 -60 -17 l-23 -31 -24 27 c-13 16 -23
38 -21 49 4 29 52 46 79 29 16 -10 20 -10 25 2 9 25 -5 36 -45 36 -24 0 -48
-8 -65 -21z m73 -192 c18 -23 25 -75 11 -92 -7 -8 -25 -15 -41 -15 -26 0 -29
4 -29 30 0 33 25 90 39 90 5 0 14 -6 20 -13z"/>
<path d="M7865 6621 c-11 -5 -42 -32 -68 -60 -27 -28 -52 -49 -56 -46 -12 7
-27 -15 -35 -50 -4 -16 -27 -84 -52 -151 -48 -132 -51 -144 -31 -144 16 0 65
86 82 144 7 23 19 42 26 42 8 1 24 2 36 3 36 2 84 52 119 125 37 77 44 130 18
140 -9 3 -16 6 -17 5 -1 0 -11 -4 -22 -8z m25 -44 c0 -7 -15 -44 -34 -83 -35
-75 -71 -107 -112 -102 l-24 3 20 41 c11 22 43 66 71 97 48 55 79 72 79 44z"/>
<path d="M3390 6606 c0 -17 27 -29 35 -16 4 6 3 15 0 20 -9 15 -35 12 -35 -4z"/>
<path d="M14491 6580 c-18 -4 -45 -20 -59 -34 -38 -38 -23 -73 48 -109 30 -15
59 -32 64 -37 14 -14 -43 -33 -81 -26 -28 4 -33 2 -33 -15 0 -16 7 -19 40 -19
22 0 57 7 76 15 30 12 35 19 32 42 -2 23 -13 33 -65 58 -34 16 -65 35 -67 42
-8 21 31 53 64 53 28 0 35 -8 31 -37 -1 -7 5 -13 14 -13 8 0 15 6 15 14 0 8 2
20 5 28 12 32 -29 51 -84 38z"/>
<path d="M4529 6568 c-1 -7 -1 -16 0 -20 0 -4 -5 -5 -12 -2 -19 7 -47 -28 -54
-69 -4 -30 -2 -37 20 -52 34 -22 80 -12 107 22 28 36 25 56 -14 97 -36 39 -45
43 -47 24z m51 -73 c0 -30 -46 -60 -76 -48 -19 7 -11 51 14 69 13 9 21 9 39
-3 13 -9 23 -17 23 -18z"/>
<path d="M4314 6551 c-43 -26 -76 -75 -72 -107 4 -36 48 -69 82 -60 14 3 26
14 26 22 0 12 -6 15 -22 11 -28 -8 -58 9 -58 33 0 26 57 80 91 87 16 3 29 12
29 19 0 20 -40 17 -76 -5z"/>
<path d="M10878 6540 c-16 -16 -36 -30 -44 -30 -9 0 -14 -11 -14 -30 0 -17
-16 -80 -36 -140 -19 -61 -32 -115 -29 -120 13 -21 24 -8 44 53 l21 63 40 -4
c52 -5 86 17 111 71 53 118 -13 217 -93 137z m77 -21 c12 -37 -4 -106 -32
-133 -26 -26 -76 -35 -88 -17 -9 16 32 112 62 143 32 33 49 36 58 7z"/>
<path d="M13250 6559 c-14 -6 -45 -9 -70 -7 l-45 2 -11 -72 c-6 -40 -13 -75
-17 -78 -10 -10 -19 40 -15 87 2 36 0 44 -16 47 -17 4 -18 -2 -14 -72 3 -66 7
-79 30 -102 14 -15 30 -24 36 -20 5 3 13 27 16 53 17 128 14 120 54 121 47 2
92 21 92 38 0 16 -6 16 -40 3z"/>
<path d="M4717 6543 c-3 -10 -17 -44 -31 -76 -34 -76 -15 -88 44 -25 36 37 43
41 51 26 7 -14 15 -15 34 -8 23 9 24 8 15 -16 -13 -33 -13 -94 0 -94 21 0 24
6 26 40 1 19 5 53 9 76 7 38 5 42 -16 47 -14 4 -26 1 -31 -6 -5 -8 -8 -4 -8
11 0 28 -4 28 -46 -4 l-35 -27 11 27 c5 15 10 32 10 37 0 16 -28 10 -33 -8z"/>
<path d="M7540 6539 c-61 -25 -102 -87 -102 -157 0 -77 55 -108 124 -71 28 15
13 24 -40 24 -47 0 -47 0 -50 36 -3 33 0 37 25 43 41 11 121 65 128 87 13 41
-29 60 -85 38z m50 -29 c0 -11 -87 -70 -102 -70 -18 0 25 49 55 64 38 18 47
20 47 6z"/>
<path d="M15055 6538 c-3 -7 -6 -47 -7 -88 -3 -68 -5 -75 -25 -78 -18 -3 -27
8 -52 61 -17 36 -31 72 -31 80 0 21 -19 32 -32 19 -14 -14 48 -157 79 -182 32
-25 48 -25 73 0 16 16 20 33 20 90 0 70 0 70 25 64 38 -9 32 22 -6 35 -40 14
-39 14 -44 -1z"/>
<path d="M2230 6519 c0 -11 -7 -34 -16 -51 -11 -21 -13 -33 -5 -41 12 -12 41
8 41 29 0 28 39 54 81 54 28 0 39 4 37 13 -3 8 -28 13 -71 14 -61 1 -67 -1
-67 -18z"/>
<path d="M3551 6520 c-35 -22 -34 -16 -15 -108 8 -37 -18 -62 -47 -44 -16 10
-21 10 -25 -2 -9 -23 4 -36 37 -36 56 0 88 66 58 122 -10 18 -8 25 11 40 12
10 31 18 42 18 25 0 18 24 -8 28 -10 1 -34 -7 -53 -18z"/>
<path d="M11556 6527 c-11 -8 -28 -12 -38 -9 -12 3 -18 -1 -18 -12 0 -9 -11
-38 -24 -64 -25 -52 -72 -220 -63 -229 16 -15 38 12 57 74 l22 68 39 0 c51 0
91 31 108 85 12 38 12 47 0 69 -17 30 -55 38 -83 18z m57 -30 c15 -38 -22 -97
-70 -111 -47 -14 -37 63 13 103 31 24 50 27 57 8z"/>
<path d="M13512 6532 c-32 -5 -42 -32 -49 -127 -5 -72 -4 -85 9 -85 12 0 17
19 22 82 4 44 9 85 13 91 3 5 23 7 44 4 34 -4 60 6 46 19 -9 9 -63 20 -85 16z"/>
<path d="M2397 6515 c-4 -8 -3 -15 2 -15 4 0 6 -11 4 -24 -6 -30 29 -69 54
-59 14 5 12 -2 -9 -38 -36 -62 -65 -120 -73 -147 -6 -20 -4 -23 11 -20 11 2
20 12 22 23 2 11 19 45 37 75 74 126 114 210 103 216 -10 7 -28 -10 -53 -49
-5 -9 -22 -19 -37 -22 -25 -6 -27 -4 -30 31 -3 39 -21 56 -31 29z"/>
<path d="M4980 6505 c-6 -14 -10 -29 -10 -33 0 -4 -11 -24 -25 -44 -30 -44
-30 -48 -6 -48 10 0 34 17 52 38 18 20 41 43 52 51 18 13 18 11 12 -43 -9 -69
1 -72 68 -21 l46 35 -1 -30 c-1 -29 20 -66 31 -54 3 3 6 27 6 52 1 26 4 59 9
75 12 40 -10 35 -69 -18 l-50 -44 -5 37 c-10 63 -27 77 -62 45 -16 -14 -18
-15 -18 0 0 28 -20 29 -30 2z"/>
<path d="M11880 6492 c-30 -29 -40 -47 -40 -70 0 -68 85 -80 135 -20 21 24 25
37 19 62 -8 38 -31 66 -55 66 -10 0 -36 -17 -59 -38z m55 -32 c7 0 16 6 18 13
3 6 6 -3 6 -20 1 -27 -5 -35 -30 -48 -32 -17 -59 -8 -59 21 0 20 43 61 48 46
2 -7 10 -12 17 -12z"/>
<path d="M13328 6514 c-117 -36 -119 -167 -2 -192 25 -5 54 -7 65 -5 36 10 14
28 -41 35 -34 4 -59 13 -67 24 -18 25 -17 29 12 32 73 6 136 70 105 107 -15
18 -12 18 -72 -1z m42 -34 c0 -13 -38 -36 -73 -44 -36 -8 -28 8 17 35 34 21
56 24 56 9z"/>
<path d="M13690 6520 c-34 -8 -36 -35 -5 -71 33 -40 19 -62 -34 -57 -27 2 -36
-1 -36 -12 0 -37 104 -23 119 15 10 26 8 31 -21 65 l-26 32 28 -4 c16 -1 30 2
32 9 6 17 -28 31 -57 23z"/>
<path d="M13850 6526 c0 -2 -7 -32 -16 -66 -17 -68 -12 -110 12 -110 12 0 15
7 11 27 -3 15 1 51 9 81 8 29 12 58 8 63 -5 9 -24 13 -24 5z"/>
<path d="M6355 6505 c-39 -20 -65 -52 -65 -80 0 -32 25 -38 70 -15 33 17 40
18 50 5 7 -8 16 -12 21 -9 14 8 -1 87 -19 102 -20 15 -21 15 -57 -3z m45 -29
c0 -6 -66 -46 -75 -46 -5 0 2 11 15 25 20 21 60 35 60 21z"/>
<path d="M12081 6494 c-26 -33 -27 -79 -2 -119 21 -36 96 -74 112 -58 8 8 1
16 -25 28 -44 21 -76 59 -76 90 0 25 21 47 41 43 8 -2 14 5 14 17 0 31 -39 31
-64 -1z"/>
<path d="M9438 6489 c-16 -11 -28 -16 -28 -10 0 6 -7 11 -15 11 -8 0 -15 -7
-15 -15 0 -9 -11 -38 -25 -65 -41 -81 -27 -113 19 -42 27 41 76 95 82 90 2 -2
-3 -28 -11 -58 -10 -39 -11 -57 -3 -67 17 -20 28 -15 28 13 0 14 7 53 15 85
22 82 8 99 -47 58z"/>
<path d="M9588 6445 c-29 -62 -29 -67 -14 -90 22 -34 60 -32 97 4 37 37 38 79
3 120 -14 17 -32 31 -40 31 -9 0 -28 -29 -46 -65z m72 0 c16 -19 6 -57 -20
-73 -39 -24 -52 6 -25 58 17 34 27 37 45 15z"/>
<path d="M11712 6493 c-26 -23 -66 -118 -58 -138 10 -27 21 -16 40 38 24 68
42 87 83 87 23 0 33 5 33 15 0 22 -72 20 -98 -2z"/>
<path d="M12308 6488 c-67 -39 -71 -130 -7 -163 48 -25 139 -18 139 11 0 11
-9 13 -40 8 -52 -8 -86 1 -105 30 -22 32 -11 53 24 48 46 -6 73 14 69 51 -4
40 -29 45 -80 15z m47 -27 c-3 -6 -16 -11 -28 -11 -21 1 -21 1 3 15 27 14 36
13 25 -4z"/>
<path d="M12549 6488 l-29 -18 16 -37 c9 -21 18 -44 21 -50 8 -20 -15 -15 -37
7 -25 25 -40 26 -40 1 0 -35 75 -69 105 -47 16 12 16 16 -4 62 -21 46 -21 49
-5 61 22 16 46 17 62 1 9 -9 13 -7 18 5 3 9 3 21 -1 27 -10 16 -72 9 -106 -12z"/>
<path d="M12722 6494 c-30 -21 -28 -51 8 -84 17 -15 30 -31 30 -34 0 -10 -40
-7 -61 5 -12 6 -28 8 -37 4 -14 -5 -14 -7 1 -22 24 -24 115 -24 131 -1 9 14 4
25 -29 58 -33 34 -37 42 -25 51 8 5 30 8 47 5 35 -5 55 11 32 25 -22 14 -73
10 -97 -7z"/>
<path d="M5321 6474 c-58 -48 -27 -85 42 -50 25 14 27 13 27 -3 0 -20 37 -58
47 -48 3 4 1 18 -5 32 -7 14 -12 37 -12 50 0 24 -25 45 -54 45 -8 0 -28 -12
-45 -26z m44 -14 c-3 -5 -12 -10 -18 -10 -7 0 -6 4 3 10 19 12 23 12 15 0z"/>
<path d="M5530 6475 c-19 -14 -43 -39 -53 -55 -18 -29 -18 -30 -1 -37 11 -4
19 -2 22 6 3 8 17 27 32 44 32 36 60 32 60 -9 0 -36 24 -25 28 13 2 23 -3 35
-20 47 -29 20 -28 21 -68 -9z"/>
<path d="M10069 6482 c-48 -24 -80 -75 -72 -115 9 -48 21 -66 48 -73 33 -8
135 23 135 41 0 18 0 18 -66 -1 -43 -12 -58 -13 -69 -4 -23 19 -18 47 8 54 42
10 77 45 77 76 0 36 -19 43 -61 22z m21 -38 c-17 -19 -50 -37 -50 -27 0 7 48
42 59 43 2 0 -2 -7 -9 -16z"/>
<path d="M14003 6480 c-79 -48 -74 -140 7 -140 31 0 67 21 77 44 12 28 -1 87
-23 103 -23 17 -23 17 -61 -7z m52 -61 c0 -28 -5 -35 -28 -43 -35 -13 -52 3
-43 39 6 24 39 47 61 41 6 -1 10 -18 10 -37z"/>
<path d="M14275 6488 c-11 -6 -40 -29 -64 -52 l-43 -41 17 33 c17 34 14 67 -6
60 -11 -4 -59 -130 -59 -155 0 -27 25 -11 92 59 37 39 70 69 73 67 2 -3 -1
-24 -7 -47 -12 -48 1 -92 27 -92 17 0 19 14 5 40 -7 14 -6 32 6 65 23 68 8 90
-41 63z"/>
<path d="M3315 6439 c-4 -27 -4 -53 -1 -56 12 -12 26 13 32 60 6 38 4 47 -9
47 -11 0 -17 -15 -22 -51z"/>
<path d="M10608 6477 c-31 -7 -48 -16 -48 -25 0 -12 9 -13 48 -7 26 4 59 7 75
6 30 -1 38 23 11 33 -18 7 -24 7 -86 -7z"/>
<path d="M14689 6373 c-11 -13 -11 -17 -1 -20 6 -3 12 -11 12 -19 0 -8 4 -14
8 -14 12 0 52 57 45 64 -12 12 -51 6 -64 -11z"/>
<path d="M12890 6360 c-12 -22 -6 -40 12 -40 13 0 37 30 38 48 0 20 -38 14
-50 -8z"/>
<path d="M4602 5871 c-48 -46 -82 -110 -106 -196 -10 -33 -19 -68 -22 -77 -3
-9 -17 -18 -31 -20 -15 -2 -29 -9 -31 -17 -3 -10 3 -13 25 -9 29 4 30 3 23
-26 -21 -83 -21 -85 0 -83 15 1 20 8 20 28 0 41 20 89 38 91 10 0 22 2 27 3 6
2 20 3 33 4 13 1 22 7 22 17 0 14 -8 16 -45 12 -54 -7 -54 -7 -20 101 30 94
102 186 137 175 15 -5 19 -2 16 13 -6 33 -42 26 -86 -16z"/>
<path d="M10692 5893 c-5 -10 -22 -58 -37 -107 -31 -105 -66 -187 -95 -223
-24 -30 -26 -53 -5 -53 8 0 15 4 15 9 0 5 27 37 61 72 46 48 62 60 69 49 11
-17 3 -59 -22 -124 -19 -50 -13 -76 18 -76 15 0 31 43 17 47 -6 2 -2 28 9 60
33 96 4 157 -56 118 l-24 -16 34 103 c18 57 38 110 43 120 7 11 6 20 -4 28
-11 9 -16 7 -23 -7z"/>
<path d="M2369 5865 c-1 -3 -2 -8 -4 -12 -1 -5 -5 -21 -10 -38 -36 -136 -71
-249 -92 -293 -18 -39 -22 -57 -14 -65 13 -13 9 -17 54 64 35 64 65 100 69 83
1 -5 2 -36 2 -69 1 -57 2 -60 26 -59 14 0 37 4 53 9 21 5 27 4 27 -8 0 -26 30
-47 66 -47 44 0 114 28 114 46 0 17 0 17 -43 -1 -48 -20 -96 -19 -104 1 -4 10
8 30 33 55 33 33 38 45 38 86 1 42 -2 48 -21 51 -27 4 -58 -40 -74 -104 -9
-35 -16 -43 -41 -48 -48 -10 -49 -9 -42 42 5 39 3 52 -11 66 -10 10 -26 15
-36 13 -24 -6 -24 -10 7 98 38 134 39 135 20 135 -9 0 -17 -2 -17 -5z m176
-285 c-24 -45 -29 -31 -8 21 11 27 19 38 21 27 2 -9 -4 -31 -13 -48z"/>
<path d="M5139 5828 c0 -24 -8 -74 -17 -113 -17 -67 -19 -70 -50 -75 -42 -6
-46 -24 -6 -28 31 -3 31 -4 24 -40 -21 -99 -21 -104 -2 -100 13 2 19 19 27 68
l10 65 38 6 c42 7 52 13 43 28 -4 6 -20 8 -38 4 -35 -7 -34 -23 -5 132 15 76
13 95 -9 95 -10 0 -14 -13 -15 -42z"/>
<path d="M9403 5828 c-12 -13 -32 -65 -47 -121 -34 -131 -62 -191 -103 -227
-28 -25 -38 -28 -53 -20 -11 6 -20 13 -20 16 0 3 20 30 45 58 25 29 45 56 45
60 0 19 -33 0 -74 -44 -56 -60 -60 -96 -13 -118 79 -38 151 60 207 280 12 46
30 92 41 104 10 11 19 23 19 27 0 15 -28 6 -47 -15z"/>
<path d="M11700 5827 c-33 -12 -55 -40 -63 -83 -2 -10 -12 -46 -22 -79 -10
-33 -26 -96 -35 -140 l-16 -80 -38 74 c-26 52 -42 101 -52 159 -17 105 -22
122 -38 122 -21 0 -25 -11 -14 -39 6 -14 16 -59 24 -100 16 -90 101 -283 123
-279 10 2 23 44 42 134 31 154 75 262 115 284 26 15 34 32 17 37 -4 1 -24 -4
-43 -10z"/>
<path d="M8892 5803 c-13 -35 -38 -119 -46 -155 -4 -19 -11 -25 -21 -22 -22 9
-72 -32 -101 -82 -22 -38 -25 -49 -16 -70 14 -29 41 -31 76 -3 39 31 72 94 96
184 33 125 40 145 57 145 22 0 10 24 -14 28 -14 2 -23 -5 -31 -25z m-78 -245
c-21 -41 -62 -81 -74 -73 -13 8 13 57 47 89 34 32 48 24 27 -16z"/>
<path d="M10487 5824 c-4 -4 -7 -21 -7 -37 0 -17 -10 -57 -22 -90 l-22 -59
-52 6 c-33 4 -55 2 -59 -5 -12 -18 9 -27 68 -28 15 -1 27 -5 27 -9 0 -5 -15
-34 -34 -65 -44 -73 -52 -97 -33 -97 15 0 53 60 84 133 15 34 19 37 55 37 42
0 78 14 78 31 0 6 -19 7 -50 3 -27 -4 -50 -4 -50 -1 0 3 9 26 19 50 31 73 30
162 -2 131z"/>
<path d="M3820 5805 c0 -12 13 -15 58 -16 48 0 54 -2 35 -11 -13 -6 -23 -16
-23 -22 0 -6 23 -31 51 -55 57 -49 79 -91 79 -150 0 -73 -73 -119 -145 -91
-34 13 -41 36 -22 70 16 26 14 40 -5 40 -4 0 -18 -20 -30 -45 -19 -38 -20 -48
-9 -69 16 -28 51 -46 92 -46 43 0 123 44 137 75 32 69 1 181 -64 233 -19 15
-34 30 -34 33 0 10 70 39 95 39 16 0 25 6 25 15 0 13 -20 15 -120 15 -100 0
-120 -2 -120 -15z"/>
<path d="M2129 5808 c0 -1 -2 -23 -4 -48 -2 -25 -10 -63 -18 -85 -13 -39 -16
-40 -67 -45 -73 -7 -80 -30 -10 -30 52 0 52 0 46 -27 -4 -16 -10 -54 -13 -87
-4 -47 -3 -58 8 -54 8 3 15 15 17 29 1 13 7 50 13 81 l11 56 48 7 c54 7 87 26
76 44 -4 6 -12 8 -18 5 -6 -4 -29 -10 -50 -14 -43 -8 -44 -6 -24 62 16 52 15
100 -3 106 -6 2 -11 2 -12 0z"/>
<path d="M8380 5742 c0 -22 -19 -85 -46 -150 -32 -79 -44 -123 -42 -149 4 -50
28 -57 28 -7 0 21 20 86 45 150 47 117 59 194 30 194 -11 0 -15 -11 -15 -38z"/>
<path d="M7742 5728 c-13 -13 -4 -38 14 -38 15 0 19 35 6 44 -5 3 -14 0 -20
-6z"/>
<path d="M10244 5725 c-7 -17 10 -35 34 -35 18 0 15 14 -8 35 -18 17 -20 17
-26 0z"/>
<path d="M2945 5634 c-41 -41 -45 -51 -45 -93 0 -73 20 -86 111 -73 68 10 100
24 86 38 -3 3 -38 1 -77 -6 -81 -14 -93 -8 -88 36 2 23 13 34 51 55 26 14 55
33 64 42 23 23 9 47 -27 47 -23 0 -41 -11 -75 -46z m75 12 c0 -2 -7 -7 -16
-10 -8 -3 -12 -2 -9 4 6 10 25 14 25 6z"/>
<path d="M2706 5655 c-9 -9 -16 -19 -16 -23 0 -11 40 -75 61 -98 18 -20 19
-22 3 -35 -13 -11 -18 -11 -21 -1 -6 17 -30 15 -37 -4 -7 -19 10 -44 29 -44
19 0 75 49 75 65 0 7 -16 32 -35 55 -48 57 -46 73 5 68 32 -3 40 0 38 12 -5
22 -81 26 -102 5z"/>
<path d="M5862 5640 c-54 -53 -45 -122 20 -156 31 -16 31 -17 12 -31 -13 -10
-32 -12 -56 -9 -29 5 -38 3 -38 -8 0 -31 70 -35 118 -6 17 11 32 26 32 34 0 8
-19 27 -42 43 -31 21 -44 37 -46 57 -4 32 28 73 61 78 34 5 33 28 -1 28 -20 0
-40 -10 -60 -30z"/>
<path d="M5523 5638 c-11 -13 -31 -43 -43 -68 -13 -25 -27 -48 -32 -51 -15
-10 -5 -43 15 -47 9 -2 17 2 17 10 0 20 45 111 64 130 9 10 24 14 32 11 12 -4
15 -1 12 13 -5 28 -40 29 -65 2z"/>
<path d="M8631 5632 c-6 -11 -11 -31 -11 -44 -1 -42 -73 -107 -106 -94 -19 7
-18 35 5 78 19 33 18 48 0 48 -15 0 -49 -68 -49 -98 0 -59 48 -78 107 -42 40
24 62 58 74 111 11 48 -2 74 -20 41z"/>
<path d="M4666 5594 c-34 -61 -35 -116 -1 -149 25 -26 59 -33 70 -15 3 6 -6
15 -22 21 -52 20 -58 56 -12 83 39 23 55 56 40 85 -19 35 -47 26 -75 -25z m35
-17 c-10 -9 -11 -8 -5 6 3 10 9 15 12 12 3 -3 0 -11 -7 -18z"/>
<path d="M4853 5618 c-32 -36 -63 -91 -63 -114 0 -40 44 -40 88 -1 l22 20 0
-30 c0 -17 7 -36 15 -43 18 -15 17 -20 19 63 1 37 -2 67 -7 67 -5 0 -29 -18
-55 -40 -25 -22 -47 -38 -50 -36 -8 9 48 95 69 106 11 6 17 15 14 21 -10 15
-30 10 -52 -13z"/>
<path d="M5267 5634 c-4 -4 -7 -36 -7 -71 0 -50 4 -67 20 -83 28 -28 57 -25
91 9 24 24 29 38 29 75 0 34 -4 46 -15 46 -11 0 -15 -11 -15 -38 0 -50 -40
-93 -65 -72 -12 10 -16 29 -14 74 2 55 -7 77 -24 60z"/>
<path d="M5674 5608 c-32 -38 -63 -104 -64 -133 0 -39 28 -65 71 -65 43 0 79
14 79 31 0 6 -18 7 -48 3 -37 -5 -51 -2 -61 10 -13 16 -8 68 7 64 4 -1 24 4
45 11 48 16 65 52 42 87 -21 32 -38 30 -71 -8z m46 -23 c0 -8 -9 -19 -19 -25
-30 -15 -33 -12 -15 15 18 28 34 33 34 10z"/>
<path d="M6607 5594 c-53 -52 -67 -88 -45 -110 21 -21 60 -9 102 32 l36 35 0
-50 c0 -48 13 -73 30 -55 7 9 -1 90 -17 154 -13 54 -46 52 -106 -6z m73 2 c0
-18 -45 -73 -70 -86 -37 -20 -31 10 11 55 43 47 59 55 59 31z"/>
<path d="M8981 5585 c-64 -69 -50 -125 30 -125 35 0 39 3 39 25 0 27 -26 35
-48 13 -6 -6 -14 -9 -17 -7 -2 3 18 18 45 34 52 30 66 51 55 85 -12 37 -57 26
-104 -25z m79 5 c0 -11 -72 -61 -79 -55 -2 3 8 19 24 35 28 29 55 39 55 20z"/>
<path d="M9847 5600 c-51 -32 -63 -50 -53 -77 6 -15 11 -13 32 15 14 18 40 40
57 48 32 16 31 16 -9 -27 -47 -49 -63 -78 -57 -96 5 -15 44 -17 59 -5 5 5 26
19 46 31 l38 23 10 -26 c12 -32 37 -43 55 -25 24 26 56 92 48 100 -12 12 -28
-1 -48 -40 l-17 -35 -15 27 c-17 34 -38 34 -85 2 -54 -37 -55 -31 -3 27 25 28
45 58 43 67 -5 27 -50 24 -101 -9z"/>
<path d="M6828 5593 c-33 -37 -63 -112 -49 -126 14 -14 26 -2 40 44 13 41 48
82 62 74 17 -11 31 6 18 21 -18 22 -43 17 -71 -13z"/>
<path d="M7048 5597 c-14 -12 -33 -36 -42 -54 -21 -42 -21 -117 0 -137 21 -21
81 -20 123 3 44 23 25 35 -33 20 -63 -16 -76 -8 -76 41 0 26 4 39 10 35 12 -8
97 44 105 63 8 22 -14 52 -38 52 -12 0 -34 -10 -49 -23z m32 -37 c-37 -29 -50
-24 -16 6 15 14 31 22 35 19 3 -4 -5 -15 -19 -25z"/>
<path d="M7838 5580 c-22 -22 -43 -39 -46 -39 -24 4 -29 -3 -23 -33 6 -29 31
-53 31 -30 0 14 90 112 102 112 7 0 9 -21 5 -60 -4 -33 -3 -62 3 -65 15 -9 30
31 30 82 0 84 -39 96 -102 33z"/>
<path d="M8044 5556 c-48 -51 -59 -101 -27 -127 32 -27 204 -6 176 22 -5 5
-32 5 -63 0 -101 -16 -128 18 -65 84 30 32 38 36 65 30 27 -6 31 -4 28 12 -2
12 -14 19 -37 21 -28 3 -39 -3 -77 -42z"/>
<path d="M7674 5563 c-3 -16 -12 -48 -20 -72 -14 -45 -12 -61 9 -61 13 0 50
138 41 152 -10 16 -24 7 -30 -19z"/>
<path d="M10160 5520 c-26 -54 -31 -73 -22 -82 14 -14 12 -17 50 66 36 76 38
86 19 86 -7 0 -28 -32 -47 -70z"/>
<path d="M11717 5520 c-30 -24 -34 -56 -13 -105 12 -28 11 -32 -11 -56 -14
-15 -27 -44 -30 -67 -5 -35 -2 -42 22 -58 27 -18 28 -18 51 10 19 21 24 39 24
82 0 53 2 56 55 110 48 49 70 93 48 94 -5 1 -33 3 -63 6 -47 5 -60 2 -83 -16z
m68 -27 c11 -15 15 -15 31 -3 11 8 -1 -7 -26 -33 -24 -26 -47 -44 -51 -39 -18
18 -20 60 -4 76 21 21 35 20 50 -1z m-55 -175 c0 -44 -15 -67 -31 -51 -10 10
-9 20 4 48 21 44 27 44 27 3z"/>
<path d="M11981 5421 c-8 -5 -11 -16 -7 -26 5 -14 9 -15 21 -5 16 13 21 40 8
40 -5 0 -14 -4 -22 -9z"/>
<path d="M10421 4958 c-6 -18 -17 -65 -25 -104 -8 -38 -21 -87 -30 -107 -13
-32 -19 -37 -39 -32 -46 12 -113 -70 -105 -126 6 -42 37 -35 89 21 62 66 93
131 119 250 27 120 27 122 13 127 -6 2 -16 -11 -22 -29z m-122 -319 c-29 -36
-49 -49 -49 -31 0 11 30 55 48 69 31 25 31 0 1 -38z"/>
<path d="M2665 4947 c-58 -32 -59 -68 -6 -157 53 -89 58 -116 32 -168 -31 -60
-79 -66 -96 -11 -4 10 -13 19 -22 19 -21 0 -9 -49 19 -72 45 -39 94 -16 133
61 24 48 15 99 -34 180 -23 37 -41 75 -41 84 0 29 59 59 105 54 22 -3 46 -6
54 -8 26 -7 23 21 -4 31 -43 16 -97 11 -140 -13z"/>
<path d="M9175 4938 c-2 -7 -10 -44 -17 -83 l-14 -69 -49 -11 c-33 -7 -50 -15
-50 -25 0 -16 13 -17 58 -5 21 6 27 4 27 -9 0 -28 -49 -138 -67 -152 -27 -20
-4 -38 24 -19 19 14 73 133 73 163 0 7 14 18 30 23 34 12 40 29 10 29 -24 0
-25 14 -5 95 8 33 14 63 15 68 0 12 -30 8 -35 -5z"/>
<path d="M2936 4928 c-2 -7 -8 -40 -14 -73 -7 -33 -28 -110 -49 -171 -24 -72
-34 -117 -29 -130 7 -18 8 -18 24 4 10 13 31 40 48 60 l31 35 6 -40 c8 -46 31
-73 49 -55 8 8 8 15 -2 27 -7 8 -14 30 -16 47 -6 45 -18 55 -55 41 -26 -10
-30 -10 -25 3 22 58 56 195 56 226 0 36 -17 53 -24 26z"/>
<path d="M9694 4929 c-3 -6 -2 -15 3 -20 5 -5 6 -40 2 -82 -13 -123 -17 -134
-41 -133 -33 1 -104 -123 -88 -153 14 -26 40 -27 73 -1 18 15 35 50 60 132 44
139 55 210 37 244 -14 25 -34 31 -46 13z m-39 -307 c-9 -30 -24 -56 -35 -62
-14 -8 -20 -8 -20 0 0 13 61 122 66 117 2 -2 -3 -27 -11 -55z"/>
<path d="M11349 4928 c-1 -1 -7 -48 -13 -102 l-11 -99 -29 -3 c-69 -7 -123
-116 -78 -157 25 -23 65 -14 86 18 34 52 68 209 71 324 0 12 -22 29 -26 19z
m-48 -275 c-22 -56 -57 -86 -68 -57 -9 25 27 87 57 95 14 4 26 7 27 8 2 1 -6
-20 -16 -46z"/>
<path d="M7000 4880 c0 -22 -7 -58 -16 -80 -15 -36 -21 -41 -75 -56 -33 -9
-62 -21 -65 -25 -10 -16 25 -21 61 -9 20 7 38 10 40 8 5 -5 -44 -139 -57 -155
-10 -13 -3 -33 13 -33 10 0 21 24 64 135 15 40 37 78 51 88 l24 18 -21 -53
c-42 -104 -43 -109 -28 -124 13 -12 22 -8 64 27 l50 41 6 -37 c7 -40 23 -57
53 -53 28 4 31 26 4 30 -20 3 -23 10 -26 51 -4 59 -21 62 -80 11 -23 -19 -42
-33 -42 -31 0 7 56 152 75 195 33 74 0 87 -43 17 l-28 -46 4 61 c4 50 2 60
-12 60 -12 0 -16 -10 -16 -40z"/>
<path d="M6800 4852 c0 -15 6 -20 25 -18 32 1 30 30 -3 34 -16 3 -22 -2 -22
-16z"/>
<path d="M3686 4851 c-3 -4 3 -16 13 -25 21 -19 35 -8 25 18 -7 17 -29 22 -38
7z"/>
<path d="M7996 4838 c-3 -13 -10 -45 -15 -73 -6 -27 -26 -88 -45 -135 -52
-125 -24 -132 57 -15 26 36 42 26 42 -26 0 -32 4 -44 15 -44 24 0 25 86 2 116
-17 20 -23 22 -44 12 l-25 -11 13 39 c8 21 17 58 20 81 4 24 11 48 15 54 10
12 2 24 -17 24 -8 0 -16 -10 -18 -22z"/>
<path d="M7866 4828 c-2 -7 -9 -31 -15 -53 -17 -66 -32 -80 -84 -76 -26 1 -48
-2 -52 -9 -10 -16 0 -22 37 -25 18 -2 38 -3 44 -4 8 -1 5 -19 -8 -56 -11 -30
-18 -62 -14 -71 10 -25 20 -9 46 68 19 60 25 69 53 76 39 10 48 32 13 32 l-25
0 19 56 c11 31 17 60 14 65 -8 13 -24 11 -28 -3z"/>
<path d="M2050 4768 c-6 -24 -15 -59 -21 -78 -5 -19 -9 -53 -9 -75 0 -23 -5
-46 -12 -53 -16 -16 3 -35 28 -30 15 2 18 12 16 53 -1 28 6 86 17 130 11 44
17 83 15 87 -11 18 -24 5 -34 -34z"/>
<path d="M3136 4791 c-8 -12 21 -34 33 -27 6 4 8 13 4 21 -6 17 -29 20 -37 6z"/>
<path d="M10791 4744 c-7 -26 -23 -68 -36 -95 -28 -54 -16 -80 18 -38 31 38
81 93 100 108 14 11 12 3 -7 -39 -20 -42 -22 -57 -14 -81 5 -16 16 -29 23 -29
18 0 28 17 15 25 -17 10 -11 43 15 95 47 93 25 117 -51 54 -44 -35 -44 -35
-34 -8 11 29 7 54 -8 54 -6 0 -15 -21 -21 -46z"/>
<path d="M5770 4760 c-29 -29 -25 -51 15 -90 39 -38 42 -47 21 -76 -14 -19
-15 -19 -29 0 -13 17 -14 18 -20 2 -9 -22 9 -56 29 -56 25 0 64 50 64 83 0 21
-10 39 -37 64 l-38 34 28 23 c15 12 27 25 27 29 0 15 -41 6 -60 -13z"/>
<path d="M6380 4751 c-30 -16 -56 -36 -58 -45 -5 -22 17 -20 48 4 14 11 31 20
38 20 6 0 12 5 12 12 0 8 3 9 10 2 15 -15 -3 -59 -46 -110 -19 -23 -34 -47
-34 -53 0 -19 34 -12 73 15 21 14 39 24 40 22 31 -59 34 -63 64 -66 43 -4 75
37 71 92 -4 52 -28 62 -28 11 0 -77 -49 -105 -70 -39 -11 31 -16 35 -39 32
l-27 -4 18 35 c42 83 11 114 -72 72z"/>
<path d="M11493 4726 c-31 -31 -59 -56 -63 -56 -15 0 -10 -99 6 -114 30 -30
164 -13 164 21 0 11 -6 13 -22 8 -48 -14 -115 -17 -123 -6 -12 21 4 59 27 65
13 3 45 22 71 42 40 29 48 40 45 62 -6 49 -42 41 -105 -22z m77 15 c0 -4 -19
-20 -42 -35 l-43 -27 37 35 c39 37 48 42 48 27z"/>
<path d="M3466 4751 c-15 -10 -36 -37 -46 -59 -32 -70 -83 -250 -76 -267 11
-30 31 -9 56 61 19 53 29 69 42 66 22 -4 94 88 108 139 20 72 -21 101 -84 60z
m57 -23 c10 -29 -58 -147 -75 -130 -15 15 2 81 29 113 27 32 39 36 46 17z"/>
<path d="M5249 4725 c-47 -44 -89 -103 -89 -124 0 -15 27 -14 33 2 10 27 101
130 105 119 2 -7 -6 -33 -18 -58 -34 -69 -14 -75 52 -15 l55 51 7 -40 c5 -30
13 -44 31 -52 14 -6 28 -9 31 -6 9 10 -7 57 -20 55 -6 -1 -12 12 -14 30 -5 50
-24 58 -61 27 l-31 -26 0 29 c0 26 -15 53 -29 53 -4 0 -27 -20 -52 -45z"/>
<path d="M5588 4753 c-48 -55 -64 -146 -30 -176 20 -19 68 -22 92 -7 21 13 4
25 -38 25 -29 0 -38 4 -40 20 -2 14 8 26 34 40 52 28 68 55 53 89 -14 31 -48
35 -71 9z m42 -25 c0 -14 -30 -48 -42 -48 -5 0 -1 14 9 30 18 31 33 39 33 18z"/>
<path d="M3269 4750 c-40 -24 -76 -104 -94 -210 -10 -58 -20 -117 -23 -132 -6
-37 15 -37 29 -1 6 15 17 59 25 98 8 38 20 72 27 74 7 2 31 23 55 46 46 46 56
90 26 119 -18 18 -23 19 -45 6z m31 -51 c0 -21 -50 -79 -69 -79 -13 0 11 54
37 83 20 23 32 22 32 -4z"/>
<path d="M4826 4728 c-70 -57 -85 -131 -37 -179 29 -28 91 -42 91 -20 0 27
-13 40 -29 32 -20 -11 -34 -4 -50 26 -17 33 -4 68 39 107 28 25 44 33 60 29
20 -5 21 -4 11 16 -16 29 -40 26 -85 -11z"/>
<path d="M8888 4734 c-50 -26 -55 -37 -36 -79 8 -19 8 -31 0 -50 -13 -28 -32
-33 -32 -9 0 9 -6 14 -12 12 -7 -3 -13 -16 -13 -29 0 -18 6 -25 26 -27 49 -6
86 68 59 118 -8 14 -5 21 14 34 13 8 36 18 50 22 27 7 31 27 5 31 -8 1 -35 -9
-61 -23z"/>
<path d="M11038 4733 c-14 -15 -33 -41 -43 -56 -36 -57 19 -98 97 -73 40 13
49 53 21 94 -10 15 -18 34 -18 42 0 25 -30 22 -57 -7z m51 -57 c17 -32 7 -46
-33 -46 -43 0 -48 7 -30 41 18 35 46 37 63 5z"/>
<path d="M9814 4716 c-41 -41 -48 -98 -13 -117 18 -9 27 -6 59 20 l39 31 3
-38 c2 -22 8 -37 16 -37 9 0 14 22 17 73 3 46 1 72 -6 72 -6 0 -31 -20 -56
-45 -48 -48 -63 -55 -63 -27 1 23 26 56 38 48 13 -8 46 30 37 43 -12 20 -37
11 -71 -23z"/>
<path d="M10094 4728 c-42 -11 -85 -62 -91 -109 -7 -53 19 -54 35 -1 17 55 34
74 77 81 41 7 57 26 28 33 -10 2 -32 1 -49 -4z"/>
<path d="M3788 4693 c-13 -16 -35 -46 -48 -68 -13 -22 -28 -43 -33 -46 -5 -4
-6 -12 -3 -18 13 -20 33 -11 46 19 17 40 67 110 80 110 6 0 10 -27 10 -61 0
-44 3 -60 13 -57 13 5 22 88 12 125 -8 32 -45 30 -77 -4z"/>
<path d="M3956 4707 c-17 -13 -36 -59 -36 -87 0 -20 25 -50 42 -50 5 0 23 14
38 30 l28 31 7 -53 c4 -29 5 -71 3 -93 -3 -35 -6 -40 -28 -41 -60 -2 -72 -5
-95 -29 -45 -44 -28 -167 26 -195 42 -23 102 50 117 143 6 33 12 43 30 45 27
4 30 32 3 32 -17 0 -19 10 -23 94 -3 66 -9 101 -21 120 -22 33 -27 32 -52 -7
-11 -18 -25 -31 -30 -29 -16 5 -6 46 15 61 11 7 20 17 20 21 0 14 -28 19 -44
7z m71 -337 c-7 -56 -40 -115 -63 -115 -39 0 -60 101 -27 137 10 12 30 18 56
18 l40 0 -6 -40z"/>
<path d="M6704 4703 c-4 -10 -15 -42 -27 -71 -15 -38 -18 -55 -10 -63 13 -13
36 -2 28 12 -4 5 -1 9 5 9 7 0 10 6 7 13 -2 6 4 31 15 55 10 24 18 48 18 53 0
16 -30 9 -36 -8z"/>
<path d="M8181 4683 c-59 -71 -75 -128 -45 -157 27 -27 94 -13 94 19 0 18 -2
18 -35 3 -18 -8 -29 -8 -36 -1 -18 18 -1 47 47 76 41 24 45 30 42 59 -4 46
-29 47 -67 1z"/>
<path d="M9253 4701 c-50 -31 -69 -85 -39 -110 11 -10 21 -9 46 4 31 16 32 16
26 -3 -8 -24 2 -52 18 -52 8 0 13 15 14 35 1 19 6 44 12 56 7 11 8 28 4 37 -4
9 -8 24 -8 32 -1 23 -37 23 -73 1z m61 -20 c7 -11 -72 -66 -82 -57 -7 8 52 66
68 66 5 0 11 -4 14 -9z"/>
<path d="M9430 4684 c-43 -39 -58 -70 -42 -86 8 -8 18 0 33 26 12 20 30 41 41
47 18 10 19 7 16 -47 -4 -81 16 -80 31 2 9 50 9 69 0 80 -18 22 -36 17 -79
-22z"/>
<path d="M5025 4703 c-27 -7 -55 -43 -55 -73 0 -43 26 -70 69 -70 70 0 104 68
60 124 -20 25 -33 29 -74 19z m55 -42 c14 -27 13 -37 -6 -55 -25 -26 -63 -20
-70 9 -12 49 53 88 76 46z"/>
<path d="M3611 4678 c-16 -43 -21 -107 -10 -114 18 -11 26 8 33 74 6 63 -6 84
-23 40z"/>
<path d="M3087 4643 c-9 -17 6 -83 19 -83 10 0 14 13 14 45 0 33 -4 45 -14 45
-8 0 -17 -3 -19 -7z"/>
<path d="M2107 4583 c-4 -3 -7 -15 -7 -25 0 -19 16 -23 39 -9 12 8 12 12 2 25
-15 17 -24 20 -34 9z"/>
<path d="M13376 4155 c-81 -28 -172 -147 -191 -249 -7 -33 -10 -36 -44 -38
-20 -1 -49 -1 -64 0 -22 2 -28 -1 -25 -15 3 -15 13 -18 61 -15 l58 3 -7 -28
c-3 -15 -16 -48 -28 -73 -18 -36 -27 -44 -45 -42 -18 3 -22 -1 -19 -15 2 -10
13 -19 25 -21 30 -4 75 60 92 130 l13 55 51 9 c72 13 78 39 7 29 l-53 -7 7 28
c29 123 175 270 208 210 13 -24 28 -20 28 9 0 35 -27 46 -74 30z"/>
<path d="M3205 4090 c-3 -5 -11 -54 -16 -108 -14 -144 -11 -138 -74 -157 -31
-9 -59 -23 -62 -31 -8 -22 4 -29 30 -16 12 7 37 17 55 22 l34 9 -7 -52 c-3
-29 -11 -65 -17 -80 -9 -23 -8 -31 3 -38 22 -13 30 4 41 89 l10 80 35 7 c40 7
40 30 0 30 -22 -1 -27 4 -27 25 0 29 17 189 22 209 4 17 -18 26 -27 11z"/>
<path d="M2920 4065 c-8 -22 -13 -24 -30 -15 -41 22 -132 -45 -164 -121 -25
-61 -7 -101 85 -190 43 -41 79 -82 79 -90 0 -9 -10 -25 -22 -36 -48 -44 -134
-71 -122 -39 3 8 0 17 -7 22 -8 4 -10 3 -5 -4 4 -7 1 -12 -8 -12 -26 0 -19
-39 9 -52 37 -17 150 41 172 87 22 47 7 78 -68 139 -64 52 -89 89 -89 132 0
55 78 139 123 132 18 -2 23 -10 25 -48 4 -52 16 -70 35 -52 14 15 19 172 5
172 -5 0 -13 -11 -18 -25z"/>
<path d="M7503 3988 c-18 -46 -37 -96 -43 -112 -10 -28 -12 -29 -70 -23 -45 4
-60 2 -60 -8 0 -15 31 -25 76 -25 l31 0 -10 -45 c-14 -60 0 -104 40 -128 20
-11 41 -16 53 -12 25 8 27 37 3 34 -58 -9 -85 41 -64 118 12 44 25 53 77 53
24 0 34 5 34 15 0 11 -11 15 -39 15 l-40 0 18 53 c11 30 26 68 35 85 19 37 21
62 3 62 -7 0 -27 -37 -44 -82z"/>
<path d="M11166 4052 c-3 -6 -17 -46 -30 -89 -13 -43 -38 -118 -56 -167 -42
-118 -30 -132 45 -51 l54 60 1 -33 c0 -40 16 -72 35 -72 22 0 29 22 10 32 -14
9 -16 19 -10 64 6 49 5 54 -13 54 -10 0 -38 -19 -61 -42 l-42 -43 21 55 c41
103 73 221 62 232 -6 6 -12 6 -16 0z"/>
<path d="M13396 3897 c-33 -83 -67 -169 -78 -189 -20 -41 -7 -64 17 -32 16 22
145 343 145 362 0 6 -6 12 -12 12 -7 0 -40 -69 -72 -153z"/>
<path d="M6122 3968 c-9 -37 -14 -84 -25 -233 -1 -20 3 -30 12 -30 17 0 19 11
30 150 5 61 12 120 16 133 5 16 3 22 -8 22 -9 0 -19 -16 -25 -42z"/>
<path d="M5679 3953 c0 -26 -6 -64 -13 -83 -11 -30 -18 -36 -55 -42 -49 -8
-63 -16 -55 -29 3 -6 22 -8 46 -4 l39 7 -30 -61 c-34 -65 -40 -121 -16 -141 8
-7 23 -9 32 -5 17 6 17 7 1 19 -10 7 -18 23 -18 35 0 36 67 158 89 164 24 6
28 27 5 27 -12 0 -13 5 -7 23 13 36 10 130 -4 134 -9 3 -13 -10 -14 -44z"/>
<path d="M8225 3988 c-2 -7 -11 -38 -20 -68 -10 -30 -19 -61 -21 -68 -4 -13
-11 -16 -54 -26 -40 -8 -67 -32 -53 -46 9 -10 17 -9 34 4 24 17 59 22 59 9 0
-5 -9 -39 -19 -78 -19 -69 -19 -85 -1 -85 9 0 22 40 50 147 10 39 13 42 47 45
49 4 57 28 9 28 -42 0 -43 5 -16 79 11 30 17 58 14 62 -8 13 -24 11 -29 -3z"/>
<path d="M6005 3933 c-4 -21 -20 -87 -35 -146 -24 -92 -26 -109 -14 -114 8 -3
16 -4 17 -2 7 12 57 230 60 258 3 48 -20 52 -28 4z"/>
<path d="M6624 3946 c-7 -19 3 -36 22 -36 10 0 14 8 12 22 -4 26 -26 36 -34
14z"/>
<path d="M5864 3929 c-3 -6 -2 -15 4 -21 12 -12 43 -7 43 7 1 14 -39 26 -47
14z"/>
<path d="M3887 3904 c-10 -11 3 -24 24 -24 10 0 19 7 19 15 0 15 -31 21 -43 9z"/>
<path d="M12366 3865 c-34 -26 -46 -31 -46 -19 0 28 -24 9 -31 -25 -4 -17 -14
-40 -23 -50 -18 -20 -21 -41 -6 -41 6 0 39 29 74 65 72 74 90 81 74 33 -19
-61 -20 -78 -8 -93 10 -12 16 -13 26 -4 10 8 11 16 5 23 -7 8 -5 26 4 51 35
98 9 120 -69 60z"/>
<path d="M2007 3867 c-27 -22 -48 -71 -40 -94 3 -7 13 -13 24 -13 16 0 18 5
13 26 -5 18 0 32 17 50 23 25 59 33 59 13 0 -10 -65 -118 -157 -260 -39 -60
-25 -74 33 -34 30 21 47 26 76 22 25 -3 41 0 49 9 15 19 -8 27 -65 23 l-44 -4
16 30 c8 17 41 69 73 117 33 48 59 93 59 101 0 41 -69 50 -113 14z"/>
<path d="M7909 3867 c-44 -29 -48 -59 -13 -104 35 -45 24 -69 -30 -66 -29 2
-36 -1 -36 -16 0 -25 21 -32 64 -20 60 16 73 67 31 117 -14 17 -25 35 -25 41
0 13 58 44 70 36 5 -3 12 0 16 6 7 11 -12 29 -32 29 -6 0 -26 -10 -45 -23z"/>
<path d="M11839 3853 c-24 -21 -36 -28 -26 -16 11 12 16 26 13 32 -13 20 -36
-2 -65 -64 -17 -35 -35 -66 -41 -70 -13 -8 -13 -35 1 -35 6 0 42 33 80 73 59
61 68 68 63 44 -17 -77 -5 -81 71 -22 32 25 60 43 63 41 2 -3 -4 -18 -14 -34
-22 -39 -13 -64 23 -60 29 3 45 28 18 28 -12 0 -15 5 -10 18 15 37 23 71 17
76 -14 15 -53 3 -93 -28 l-44 -33 4 43 c1 24 -1 44 -6 44 -5 0 -29 -17 -54
-37z"/>
<path d="M9574 3857 c-27 -23 -27 -25 -15 -70 12 -40 11 -49 -5 -76 -10 -17
-26 -31 -36 -31 -19 0 -22 -8 -12 -34 11 -28 34 -17 65 32 30 47 34 84 14 134
-5 12 2 21 24 33 17 8 31 20 31 25 0 18 -39 10 -66 -13z"/>
<path d="M9757 3844 c-20 -21 -37 -41 -37 -45 0 -5 -6 -6 -14 -3 -23 9 -29
-85 -7 -116 17 -23 25 -25 82 -22 67 2 123 27 98 42 -7 5 -20 5 -28 0 -9 -4
-39 -11 -68 -15 -43 -5 -53 -4 -61 11 -14 25 -3 51 24 58 13 4 40 20 59 38 27
23 35 38 33 57 -5 40 -37 38 -81 -5z m53 -3 c0 -5 -15 -20 -32 -32 l-33 -22
29 31 c32 34 36 37 36 23z"/>
<path d="M13833 3861 c-5 -19 -7 -20 -17 -5 -11 15 -15 15 -43 1 -42 -22 -85
-75 -81 -101 5 -32 42 -31 92 2 25 17 46 28 48 26 7 -6 -11 -140 -22 -168 -6
-17 -22 -29 -49 -37 -93 -28 -142 -129 -92 -190 19 -23 21 -23 48 -9 34 19 68
68 90 131 18 50 31 59 89 59 29 0 60 20 49 32 -3 3 -28 3 -57 0 -50 -5 -51 -4
-45 19 15 54 28 160 25 205 -3 50 -25 72 -35 35z m-23 -43 c0 -10 -80 -61 -86
-55 -8 7 56 64 71 64 8 0 15 -4 15 -9z m-30 -293 c-36 -94 -82 -145 -95 -105
-18 55 33 125 92 129 9 1 10 -6 3 -24z"/>
<path d="M9296 3863 c-4 -4 -16 -27 -26 -51 -11 -24 -50 -75 -87 -113 -49 -51
-64 -72 -56 -80 8 -8 23 0 54 32 42 44 42 44 49 19 9 -38 44 -37 98 1 24 18
42 26 40 18 -8 -21 10 -49 32 -49 21 0 28 26 9 32 -8 3 -7 21 5 62 22 76 9 91
-31 37 -30 -41 -98 -101 -114 -101 -18 0 -8 46 21 108 17 35 30 70 30 78 0 15
-12 19 -24 7z"/>
<path d="M11358 3825 c-58 -45 -74 -79 -43 -91 8 -3 31 4 51 15 20 12 38 21
39 19 1 -2 8 -14 15 -27 6 -13 15 -19 20 -15 11 12 -2 137 -15 141 -5 2 -36
-17 -67 -42z m42 -8 c0 -2 -10 -12 -22 -23 l-23 -19 19 23 c18 21 26 27 26 19z"/>
<path d="M11598 3852 c-32 -21 -88 -96 -88 -117 0 -27 25 -16 44 19 27 50 60
78 101 85 20 3 37 11 38 16 4 18 -67 16 -95 -3z"/>
<path d="M12165 3858 c-56 -31 -105 -97 -98 -130 7 -29 52 -34 93 -11 44 26
61 57 58 108 -3 43 -18 53 -53 33z m25 -54 c0 -20 -54 -74 -74 -74 -27 0 -18
30 19 67 34 34 55 37 55 7z"/>
<path d="M7673 3828 c-54 -58 -68 -113 -39 -153 16 -23 76 -26 100 -5 23 18 5
33 -25 21 -32 -12 -59 3 -59 32 0 16 12 28 43 43 37 18 42 24 42 54 0 47 -22
49 -62 8z"/>
<path d="M10898 3851 c-31 -3 -59 -9 -63 -13 -13 -12 6 -28 28 -24 12 3 48 8
80 11 40 5 57 11 57 21 0 15 -7 15 -102 5z"/>
<path d="M12511 3832 c-35 -49 -25 -73 34 -88 17 -4 33 -9 38 -11 4 -2 -13
-32 -38 -67 -48 -68 -108 -193 -96 -200 14 -9 29 10 54 66 28 64 141 229 181
267 25 24 35 51 17 51 -4 0 -29 -20 -53 -45 -41 -41 -47 -44 -76 -36 -50 15
-53 20 -35 47 25 39 1 54 -26 16z"/>
<path d="M5420 3843 c-24 -9 -50 -35 -50 -50 0 -8 11 -29 25 -47 31 -40 31
-51 3 -70 -33 -24 -40 -20 -36 22 2 28 -1 37 -12 37 -11 0 -15 -12 -15 -50 0
-46 2 -50 26 -53 32 -4 89 41 89 70 0 12 -12 37 -26 56 -22 28 -24 36 -13 43
15 9 34 12 62 10 21 -3 23 25 1 33 -18 7 -33 7 -54 -1z"/>
<path d="M6726 3802 c-67 -69 -101 -121 -87 -135 9 -9 18 -4 36 18 13 17 24
35 25 40 0 6 18 29 40 50 l40 39 -16 -47 c-15 -44 -15 -49 0 -72 22 -34 86
-32 86 2 0 11 -7 13 -29 8 -39 -8 -43 3 -24 62 30 93 0 108 -71 35z"/>
<path d="M10633 3843 c-7 -2 -13 -11 -13 -19 0 -8 -11 -14 -27 -15 -50 -2 -56
-4 -60 -15 -6 -19 19 -22 79 -12 54 9 57 11 56 39 -1 28 -9 33 -35 22z"/>
<path d="M3612 3817 c-48 -51 -12 -129 42 -93 23 14 24 13 35 -25 13 -44 17
-131 6 -148 -3 -6 -30 -11 -59 -11 -66 0 -86 -19 -86 -79 0 -47 23 -101 44
-101 17 0 70 59 92 103 9 17 22 35 28 39 24 15 24 144 1 218 -23 71 -33 81
-52 53 -20 -30 -45 -30 -41 -1 2 13 15 29 31 36 15 7 25 17 22 23 -11 16 -41
10 -63 -14z m58 -315 c0 -14 -59 -102 -69 -102 -18 0 -31 87 -14 103 9 10 83
9 83 -1z"/>
<path d="M4174 3804 c-19 -25 -28 -48 -28 -77 l-1 -42 40 0 40 0 -1 -55 c0
-30 -4 -76 -8 -103 l-7 -47 -39 6 c-30 5 -42 2 -59 -15 -54 -54 -2 -261 57
-225 15 10 40 75 56 147 6 23 9 26 26 17 29 -15 38 9 11 31 -22 18 -22 20 -10
111 13 106 4 201 -21 206 -8 1 -20 -7 -25 -20 -6 -12 -16 -23 -22 -26 -23 -7
-14 34 17 74 33 44 36 54 16 54 -8 0 -27 -16 -42 -36z m25 -360 c5 -5 -28
-141 -39 -163 -12 -23 -31 24 -37 90 -7 70 7 94 46 84 14 -4 28 -9 30 -11z"/>
<path d="M3362 3809 c-33 -22 -62 -65 -62 -93 0 -37 64 -42 103 -8 15 13 17
13 17 0 0 -8 9 -23 20 -33 16 -14 23 -16 32 -7 9 9 8 15 -7 25 -14 11 -17 23
-13 60 5 41 3 48 -18 62 -30 19 -32 19 -72 -6z m58 -28 c0 -16 -40 -59 -60
-64 -31 -8 -33 8 -4 42 24 29 64 43 64 22z"/>
<path d="M13515 3810 c-55 -36 -82 -89 -53 -106 16 -10 65 -6 88 6 15 8 19 6
22 -13 5 -34 33 -28 34 8 1 17 5 45 9 63 10 43 -7 42 -49 -3 -23 -24 -42 -35
-61 -35 -28 0 -28 0 -10 20 10 12 34 30 52 41 18 11 31 25 27 30 -8 13 -25 10
-59 -11z"/>
<path d="M3964 3798 c-47 -54 -75 -100 -70 -114 9 -24 23 -14 58 45 45 74 56
75 60 7 4 -68 20 -77 30 -17 14 81 -34 129 -78 79z"/>
<path d="M4862 3803 c-6 -9 -28 -19 -53 -22 -24 -3 -44 -10 -44 -16 0 -16 44
-18 62 -3 10 7 14 8 10 1 -9 -14 31 -6 52 11 12 9 13 8 6 -3 -5 -10 -4 -12 3
-7 7 4 12 18 12 32 0 29 -33 34 -48 7z"/>
<path d="M6555 3748 c-14 -29 -25 -61 -25 -70 0 -30 28 -20 35 12 4 16 17 45
31 65 29 43 29 45 4 45 -15 0 -28 -14 -45 -52z"/>
<path d="M5817 3772 c-19 -21 -31 -92 -18 -111 12 -19 33 -4 26 19 -3 10 1 35
10 56 17 42 7 64 -18 36z"/>
<path d="M3831 3743 c-15 -51 -14 -68 4 -83 8 -7 15 -11 16 -9 0 2 2 20 3 39
2 19 7 47 11 63 6 21 4 27 -8 27 -10 0 -20 -15 -26 -37z"/>
<path d="M8617 3673 c-4 -3 -7 -16 -7 -27 -1 -41 -38 -106 -75 -127 -19 -12
-35 -27 -35 -35 0 -48 101 36 125 104 9 26 21 55 26 64 5 10 9 20 9 23 0 7
-36 6 -43 -2z"/>
<path d="M2220 3585 c0 -28 12 -32 30 -10 14 16 6 35 -16 35 -8 0 -14 -10 -14
-25z"/>
<path d="M8926 3179 c-2 -8 -7 -31 -10 -52 -3 -22 -32 -98 -66 -170 -58 -127
-72 -177 -50 -177 6 0 13 8 16 18 3 9 32 77 65 150 67 148 84 215 63 233 -10
8 -15 8 -18 -2z"/>
<path d="M8277 3134 c-8 -16 -20 -47 -25 -69 -6 -22 -16 -59 -22 -83 -6 -23
-15 -40 -20 -37 -17 11 -80 -7 -80 -22 0 -12 8 -13 40 -8 22 4 40 5 40 3 0
-11 -43 -114 -57 -134 -11 -17 -13 -28 -6 -35 17 -17 40 15 74 105 31 82 32
83 77 97 48 15 68 39 33 39 -11 0 -31 -4 -45 -10 -24 -9 -25 -8 -19 23 3 18
15 56 25 85 14 37 17 57 10 64 -7 7 -15 1 -25 -18z"/>
<path d="M2070 3093 c-64 -17 -75 -25 -66 -48 5 -14 9 -15 21 -5 10 8 103 39
122 40 1 0 -16 -17 -39 -38 -28 -27 -39 -44 -35 -55 3 -9 12 -14 20 -11 21 8
77 -50 77 -79 0 -33 -73 -99 -103 -95 -17 2 -22 9 -21 30 1 24 -1 26 -18 17
-29 -15 -20 -61 13 -73 39 -13 78 1 121 43 53 54 53 98 -1 152 l-39 39 27 21
c14 11 37 28 50 38 53 39 -21 54 -129 24z"/>
<path d="M2743 3095 c2 -5 24 -13 48 -17 56 -9 301 -10 334 -2 62 15 6 23
-183 27 -138 2 -201 0 -199 -8z"/>
<path d="M8670 3077 c0 -13 -4 -27 -8 -32 -5 -6 -17 -32 -27 -60 -9 -27 -42
-92 -72 -142 -59 -101 -63 -141 -6 -78 18 20 33 32 33 27 0 -6 -4 -14 -10 -17
-14 -9 -13 -48 2 -63 7 -7 25 -12 42 -12 36 0 98 62 116 115 11 33 10 39 -11
61 -25 26 -49 30 -81 13 -25 -13 -24 -8 16 88 36 86 43 123 22 123 -10 0 -16
-8 -16 -23z m38 -239 c2 -19 -7 -38 -34 -67 -41 -46 -81 -57 -69 -18 4 12 8
35 10 50 1 19 12 35 31 48 37 25 58 21 62 -13z"/>
<path d="M6441 3034 c-12 -15 -26 -45 -32 -68 -26 -102 -66 -206 -79 -206 -8
0 -20 83 -20 145 0 55 -10 85 -27 85 -10 0 -13 -11 -9 -47 3 -27 8 -78 11
-116 15 -179 66 -150 140 80 20 61 42 114 50 117 19 7 19 36 1 36 -8 0 -24
-12 -35 -26z"/>
<path d="M3832 3003 c-37 -18 -94 -92 -110 -143 -6 -19 -19 -88 -28 -153 -14
-94 -15 -120 -5 -130 21 -20 48 26 68 114 16 70 20 79 41 79 14 0 43 20 76 53
62 59 86 119 65 159 -22 42 -52 48 -107 21z m76 -47 c5 -42 -15 -82 -61 -121
-22 -19 -44 -35 -48 -35 -14 0 -22 69 -10 84 6 7 9 20 6 28 -8 21 61 80 88 76
16 -2 23 -11 25 -32z m-171 -213 c-3 -10 -5 -4 -5 12 0 17 2 24 5 18 2 -7 2
-21 0 -30z"/>
<path d="M2897 2896 c-15 -57 -27 -122 -27 -144 0 -30 -5 -42 -17 -46 -29 -9
-105 -10 -150 -2 -58 10 -60 -16 -3 -33 45 -13 86 -10 227 20 51 10 95 19 98
19 3 0 5 7 5 16 0 12 -7 14 -27 10 -16 -3 -46 -8 -67 -12 l-39 -7 7 64 c4 35
18 95 31 134 23 71 24 85 1 85 -7 0 -23 -42 -39 -104z"/>
<path d="M4036 2970 c-37 -33 -79 -111 -90 -168 -5 -28 -3 -33 12 -30 10 2 18
14 20 28 6 52 56 134 92 152 19 10 35 24 35 30 0 25 -34 19 -69 -12z"/>
<path d="M6572 2969 c-69 -64 -93 -169 -51 -223 16 -21 28 -26 53 -24 19 2 31
9 31 18 0 10 -8 14 -27 12 -30 -4 -48 20 -48 62 0 19 8 29 33 40 73 33 100 81
67 121 -17 20 -32 19 -58 -6z m38 -32 c0 -8 -8 -21 -17 -29 -45 -38 -58 -30
-22 16 22 28 39 34 39 13z"/>
<path d="M7979 2983 c-1 -5 -1 -11 0 -15 0 -4 -6 -5 -14 -2 -20 8 -20 -32 0
-66 24 -41 18 -68 -17 -90 -28 -17 -34 -18 -36 -5 -6 25 -32 17 -32 -9 0 -46
53 -43 108 7 26 24 29 65 7 108 -18 33 -13 49 16 49 10 0 19 7 19 15 0 15 -49
22 -51 8z"/>
<path d="M5392 2965 c-18 -8 -35 -21 -38 -29 -9 -22 12 -52 46 -66 36 -15 38
-39 7 -68 -27 -26 -50 -28 -67 -7 -14 17 -40 20 -40 5 0 -20 41 -50 68 -50 42
0 111 73 99 104 -4 9 -25 27 -49 42 l-43 27 30 13 c17 7 42 13 58 14 17 0 27
5 27 15 0 19 -53 19 -98 0z"/>
<path d="M6769 2965 c-42 -23 -88 -152 -60 -169 15 -10 43 31 36 53 -7 24 18
77 44 91 11 5 32 10 46 10 37 0 27 24 -11 27 -16 2 -41 -4 -55 -12z"/>
<path d="M9025 2958 c-11 -6 -40 -29 -64 -51 -45 -41 -45 -42 -42 -118 1 -28
56 -50 101 -40 19 4 35 11 35 16 0 6 3 15 7 21 4 6 5 14 1 18 -12 12 -42 6
-51 -10 -5 -9 -18 -14 -33 -12 -19 2 -24 9 -24 33 0 27 5 31 48 43 52 15 81
46 75 84 -3 26 -24 33 -53 16z m6 -52 c-6 -7 -22 -16 -34 -19 -20 -5 -19 -3 7
19 29 26 48 26 27 0z"/>
<path d="M5127 2927 c-43 -40 -41 -64 9 -102 19 -14 34 -32 34 -40 0 -22 -39
-38 -75 -32 -37 6 -46 2 -38 -19 3 -9 20 -14 45 -14 96 0 129 61 63 119 -19
17 -35 37 -35 44 0 8 16 22 35 33 19 10 34 23 32 29 -8 22 -36 15 -70 -18z"/>
<path d="M7434 2918 c-10 -24 -45 -70 -76 -104 -64 -68 -73 -94 -32 -94 21 0
25 4 21 19 -3 12 4 28 19 42 l24 22 0 -25 c0 -14 7 -31 15 -38 13 -11 23 -5
65 37 l49 49 3 -35 c5 -55 24 -48 32 11 3 29 9 68 12 86 8 43 -13 43 -44 -1
-12 -17 -41 -52 -63 -77 l-40 -45 6 40 c4 22 18 58 31 81 13 22 24 48 24 57 0
32 -27 17 -46 -25z"/>
<path d="M7676 2949 c-3 -8 -10 -41 -17 -74 -6 -33 -14 -65 -16 -72 -3 -7 1
-13 9 -13 9 0 27 20 43 43 15 24 40 52 56 61 28 16 29 16 29 -1 0 -10 -7 -45
-15 -78 -18 -75 -18 -75 0 -75 17 0 33 51 42 132 5 50 3 58 -12 65 -12 4 -34
-2 -57 -15 -36 -19 -39 -19 -33 -3 3 10 -1 24 -10 31 -12 10 -16 10 -19 -1z"/>
<path d="M4399 2920 c-52 -51 -24 -95 42 -66 24 11 42 -62 40 -162 l-1 -53
-37 2 c-77 4 -111 -29 -97 -95 18 -89 96 -88 135 0 16 35 25 44 44 44 16 0 25
6 25 15 0 8 -8 15 -18 15 -28 0 -29 5 -20 71 7 50 4 74 -13 131 -11 38 -26 71
-34 74 -7 3 -26 -3 -41 -12 -27 -18 -27 -18 -16 3 6 11 23 24 38 27 21 6 24 9
14 21 -18 21 -28 19 -61 -15z m64 -316 c9 -9 -12 -60 -32 -78 -24 -21 -48 -11
-54 22 -8 40 9 62 47 62 18 0 35 -3 39 -6z"/>
<path d="M4647 2925 c-9 -9 -21 -35 -27 -58 -6 -23 -17 -57 -26 -76 -10 -22
-12 -37 -5 -44 16 -16 27 -1 45 60 31 103 33 106 67 99 25 -5 30 -3 27 12 -4
23 -60 28 -81 7z"/>
<path d="M4207 2921 c-61 -13 -90 -115 -42 -147 51 -34 114 21 101 88 -9 49
-26 66 -59 59z m28 -63 c6 -26 3 -35 -14 -49 -43 -35 -70 10 -35 59 22 31 41
27 49 -10z"/>
<path d="M4863 2915 c-54 -38 -80 -126 -47 -159 26 -27 134 -20 134 9 0 9 -17
12 -57 11 -47 -1 -58 2 -61 16 -2 12 5 19 21 23 14 4 37 19 52 35 49 51 14
104 -42 65z m27 -35 c-6 -11 -20 -25 -33 -31 -18 -10 -17 -6 7 20 34 36 41 39
26 11z"/>
<path d="M8404 2920 c-44 -18 -96 -102 -79 -129 11 -19 57 -12 92 15 18 14 33
21 33 16 0 -6 -7 -12 -15 -16 -22 -8 -18 -34 6 -41 25 -8 20 -15 46 68 20 62
20 69 5 74 -9 4 -18 1 -20 -6 -3 -8 -9 -5 -19 8 -16 23 -18 24 -49 11z m34
-39 c10 -6 4 -16 -24 -40 -21 -17 -44 -31 -52 -31 -27 0 30 79 58 80 3 0 11
-4 18 -9z"/>
<path d="M6947 2768 c-77 -156 -95 -213 -67 -213 8 0 17 13 20 30 4 17 39 97
78 177 40 80 72 148 72 152 0 3 -6 6 -14 6 -8 0 -46 -64 -89 -152z"/>
<path d="M6870 2874 c0 -58 47 -121 72 -96 6 6 -1 20 -16 35 -18 18 -26 37
-26 62 0 24 -4 35 -15 35 -11 0 -15 -11 -15 -36z"/>
<path d="M3122 2832 c-50 -121 -34 -138 38 -39 25 34 49 60 55 60 5 -1 14 -19
20 -40 6 -21 16 -38 23 -38 15 0 16 10 2 63 -12 48 -30 60 -66 44 -15 -7 -24
-8 -24 -2 0 6 -6 10 -12 10 -7 0 -24 -26 -36 -58z"/>
<path d="M2287 2773 c-11 -11 -8 -43 4 -43 12 0 38 29 39 43 0 9 -34 9 -43 0z"/>
</g>
</svg>
