<?xml version="1.0" standalone="no"?>
<!DOCTYPE svg PUBLIC "-//W3C//DTD SVG 20010904//EN"
 "http://www.w3.org/TR/2001/REC-SVG-20010904/DTD/svg10.dtd">
<svg version="1.0" xmlns="http://www.w3.org/2000/svg"
 width="1618.000000pt" height="1214.000000pt" viewBox="0 0 1618.000000 1214.000000"
 preserveAspectRatio="xMidYMid meet">

<g transform="translate(0.000000,1214.000000) scale(0.100000,-0.100000)"
fill="#000000" stroke="none">
<path d="M12951 11698 c-5 -18 -13 -48 -16 -67 -7 -31 -9 -33 -38 -27 -17 3
-38 13 -47 21 -18 16 -40 20 -40 8 0 -5 7 -17 15 -27 14 -18 12 -22 -20 -48
-63 -53 -69 -143 -12 -183 l21 -15 -27 -55 c-28 -58 -37 -130 -14 -123 6 3 13
15 15 29 2 13 15 52 29 86 24 56 30 61 63 67 46 7 108 61 116 101 4 22 -1 40
-20 68 -23 34 -25 43 -17 75 6 20 13 49 16 65 3 15 12 27 20 27 8 0 15 7 15
15 0 9 -9 15 -24 15 -19 0 -27 -8 -35 -32z m-58 -145 c3 -5 -12 -43 -32 -87
-35 -77 -36 -78 -54 -58 -22 24 -16 61 21 115 23 34 54 48 65 30z m67 -94
c-13 -27 -44 -53 -77 -63 l-22 -7 25 58 c46 102 43 100 65 65 16 -24 17 -34 9
-53z"/>
<path d="M13185 11650 c-3 -5 -4 -10 -1 -10 2 0 -6 -27 -19 -59 -17 -45 -20
-62 -11 -72 8 -9 8 -10 -1 -5 -15 8 -22 -5 -67 -126 -30 -79 -35 -102 -26
-118 14 -26 30 -17 30 16 0 14 19 73 41 132 23 59 48 125 55 147 8 22 19 48
24 57 6 10 10 25 10 33 0 17 -25 21 -35 5z"/>
<path d="M14686 11619 c-9 -57 -22 -78 -44 -72 -13 3 -31 -10 -60 -42 -50 -56
-63 -106 -39 -147 16 -27 15 -32 -8 -83 -33 -75 -37 -125 -10 -125 10 0 15 10
15 30 0 16 11 54 24 83 23 53 25 54 70 59 77 9 122 68 104 136 -5 20 -18 37
-34 44 -13 6 -23 14 -21 17 21 37 36 83 34 106 -4 44 -24 41 -31 -6z m-55
-136 c-10 -21 -26 -56 -35 -77 -12 -28 -20 -36 -27 -29 -18 18 0 70 36 108 42
45 50 44 26 -2z m67 -15 c35 -35 -9 -118 -63 -118 -31 0 -31 7 2 75 28 56 40
64 61 43z"/>
<path d="M15185 11608 c-4 -9 -4 -22 0 -28 6 -10 -80 -100 -96 -100 -3 0 -11
11 -17 24 -13 28 -3 40 41 51 28 8 38 35 12 35 -31 0 -83 -29 -90 -49 -3 -11
1 -34 10 -52 16 -30 16 -32 -10 -59 -36 -38 -31 -70 16 -93 62 -30 87 -6 65
65 l-13 43 66 61 c55 51 64 64 53 76 -6 8 -8 19 -4 23 4 5 2 5 -5 2 -6 -4 -13
-1 -16 5 -3 9 -7 8 -12 -4z m-98 -244 c-9 -9 -47 6 -47 18 0 6 8 20 18 31 17
19 17 18 26 -12 5 -17 6 -34 3 -37z"/>
<path d="M5357 11589 c-9 -14 -17 -59 -20 -110 -7 -121 -32 -165 -101 -176
-28 -4 -36 -2 -36 10 0 17 50 62 80 72 21 7 28 35 10 35 -23 0 -68 -30 -99
-65 -30 -34 -31 -39 -18 -58 23 -34 98 -30 137 8 37 35 60 108 60 187 0 33 5
69 11 80 17 31 -5 46 -24 17z"/>
<path d="M14895 11598 c-41 -121 -85 -261 -85 -273 0 -8 6 -15 13 -15 9 0 84
203 105 287 4 17 -27 17 -33 1z"/>
<path d="M2045 11589 c-14 -22 8 -28 172 -45 l63 -6 -6 -56 c-3 -32 -10 -85
-15 -119 -11 -64 -5 -107 14 -100 7 2 12 15 12 28 0 22 17 175 21 192 1 4 2
18 3 31 1 19 5 22 26 18 19 -3 27 1 34 19 5 13 7 27 4 31 -4 8 -72 6 -88 -3
-12 -7 -181 5 -212 15 -12 4 -24 2 -28 -5z"/>
<path d="M2479 11588 c-6 -20 -11 -59 -19 -138 -5 -52 -12 -110 -16 -127 -9
-48 13 -42 35 10 10 23 28 51 40 61 21 19 21 19 22 -10 1 -52 8 -85 20 -100
20 -25 27 -2 19 64 -9 72 -24 96 -56 88 -29 -8 -38 26 -24 89 10 46 7 65 -11
65 -5 0 -9 -1 -10 -2z"/>
<path d="M13598 11550 c-27 -17 -48 -37 -48 -45 0 -22 14 -19 65 17 24 17 48
28 52 25 14 -15 -37 -94 -112 -174 -82 -89 -94 -129 -19 -68 46 38 74 40 74 6
0 -19 36 -36 45 -21 7 11 -25 71 -41 77 -11 4 -6 15 19 47 103 126 81 210 -35
136z"/>
<path d="M4167 11563 c-4 -3 -7 -39 -7 -78 0 -104 -8 -132 -51 -177 -40 -43
-72 -48 -77 -12 -4 25 49 74 78 74 24 0 36 18 22 32 -15 15 -65 -7 -102 -45
-35 -36 -39 -78 -10 -107 27 -27 69 -11 119 46 43 49 51 76 51 174 0 44 4 70
12 72 6 2 8 10 4 16 -8 13 -29 16 -39 5z"/>
<path d="M13825 11548 c-62 -27 -61 -26 -48 -39 8 -8 24 -6 58 6 102 39 80
-30 -52 -164 -46 -46 -83 -87 -83 -92 0 -16 23 -9 56 16 40 30 50 31 64 5 6
-11 15 -18 21 -15 15 10 11 33 -10 54 -19 19 -19 20 10 47 40 38 89 116 89
140 0 20 -34 64 -48 64 -4 -1 -29 -10 -57 -22z"/>
<path d="M14360 11543 c-72 -26 -85 -36 -76 -52 5 -7 26 -2 63 14 59 27 93 32
93 14 0 -35 -86 -139 -144 -173 -51 -30 -83 -73 -67 -89 7 -7 25 2 60 31 27
23 52 42 54 42 3 0 10 -14 16 -30 11 -33 32 -46 58 -35 16 6 16 8 -3 23 -11 9
-28 29 -37 43 -15 25 -15 28 9 50 46 43 85 112 82 143 -4 43 -32 48 -108 19z"/>
<path d="M6300 11535 c0 -18 24 -30 40 -20 8 5 8 11 -1 21 -15 19 -39 18 -39
-1z"/>
<path d="M2987 11470 c-37 -29 -36 -68 3 -102 17 -14 30 -33 30 -42 0 -35 -81
-61 -108 -34 -9 9 -13 7 -18 -6 -14 -36 61 -49 115 -21 53 27 55 70 5 125
l-36 40 31 17 c30 17 36 33 15 40 -6 2 -23 -6 -37 -17z"/>
<path d="M8011 11469 c-23 -10 -41 -22 -41 -27 0 -5 -8 -12 -19 -15 -17 -4
-27 -38 -34 -111 -4 -43 22 -23 42 33 27 75 58 101 118 101 31 0 43 4 41 12
-8 23 -64 26 -107 7z"/>
<path d="M4561 11445 c-17 -19 -37 -35 -45 -35 -10 0 -17 -15 -20 -47 -3 -27
-17 -82 -31 -123 -28 -83 -30 -100 -15 -100 17 0 49 61 61 118 9 36 16 49 23
42 26 -26 120 14 137 58 11 29 4 89 -13 110 -20 24 -64 14 -97 -23z m84 -24
c3 -17 1 -39 -5 -50 -14 -27 -66 -54 -90 -46 -17 5 -18 10 -8 33 20 47 58 92
78 92 12 0 21 -10 25 -29z"/>
<path d="M2727 11440 c-19 -16 -42 -30 -51 -30 -9 0 -16 -7 -16 -15 0 -8 3
-15 8 -15 4 0 7 -22 7 -49 0 -57 32 -101 72 -101 31 0 29 18 -2 30 -29 11 -49
54 -40 87 4 17 13 23 33 23 58 0 91 49 56 84 -21 22 -28 20 -67 -14z m53 -19
c0 -9 -24 -21 -42 -21 -6 0 -6 6 2 15 14 16 40 20 40 6z"/>
<path d="M6738 11449 c-21 -11 -38 -26 -38 -34 0 -8 18 -31 40 -51 22 -21 40
-43 40 -50 0 -19 -47 -29 -65 -14 -12 10 -16 9 -21 -5 -15 -39 60 -48 102 -12
26 22 26 24 11 54 -9 16 -27 38 -41 47 -15 9 -26 20 -26 25 0 11 47 29 84 33
16 2 31 9 34 16 6 20 -78 14 -120 -9z"/>
<path d="M3159 11431 c-16 -16 -29 -37 -29 -45 0 -9 -7 -16 -15 -16 -23 0 -19
-7 29 -55 49 -50 82 -57 111 -25 10 11 24 20 32 20 7 0 13 6 13 14 0 18 -51 8
-67 -13 -11 -14 -15 -14 -39 -1 -39 21 -40 36 -4 55 39 20 58 58 40 80 -19 22
-38 18 -71 -14z m31 -26 c-7 -9 -15 -13 -17 -11 -7 7 7 26 19 26 6 0 6 -6 -2
-15z"/>
<path d="M7750 11439 c-19 -12 -45 -30 -57 -42 -25 -22 -30 -66 -11 -85 17
-17 63 -15 100 4 16 9 27 11 23 5 -10 -16 4 -51 21 -51 8 0 14 10 14 26 0 15
5 44 12 66 7 24 8 42 2 46 -5 4 -9 13 -10 20 -1 6 -2 17 -2 22 -3 17 -55 11
-92 -11z m73 -23 c13 -33 -71 -96 -108 -82 -28 10 -15 36 32 66 52 33 68 37
76 16z"/>
<path d="M6465 11438 c-11 -6 -37 -27 -57 -46 -61 -58 -50 -122 24 -135 40 -8
100 4 105 20 3 8 -17 13 -64 15 -54 2 -68 6 -71 20 -3 16 9 23 90 56 31 13 45
47 28 67 -15 18 -28 18 -55 3z m21 -37 c-3 -5 -16 -11 -28 -14 -22 -6 -22 -5
-4 8 22 17 40 20 32 6z"/>
<path d="M8195 11431 c-22 -10 -48 -32 -57 -49 -46 -79 -1 -152 92 -152 59 0
95 12 104 35 5 15 2 16 -21 10 -72 -18 -117 -17 -140 5 -32 29 -29 50 6 50 49
0 88 19 106 54 34 63 -7 85 -90 47z m65 -31 c-12 -22 -48 -40 -82 -40 -18 0
-19 2 -7 17 15 17 65 42 87 43 10 0 10 -5 2 -20z"/>
<path d="M4762 11410 c-54 -39 -68 -65 -52 -96 23 -41 117 -60 128 -25 3 10
-5 12 -36 9 -22 -2 -38 0 -36 3 2 4 -4 10 -14 14 -14 5 -10 10 20 26 43 22 73
62 64 84 -8 22 -28 18 -74 -15z"/>
<path d="M4997 11411 c-19 -17 -41 -31 -48 -31 -12 -1 -59 -83 -59 -103 0 -23
34 1 74 53 46 58 82 88 93 76 3 -3 0 -32 -7 -65 -12 -56 -8 -87 9 -76 12 7 34
117 29 146 -5 37 -48 37 -91 0z"/>
<path d="M5500 11426 c-36 -20 -67 -66 -74 -112 -6 -33 -3 -43 13 -58 24 -21
82 -25 125 -7 42 17 19 38 -26 25 -18 -5 -43 -8 -55 -6 -27 4 -38 31 -15 38
56 18 76 30 98 60 46 59 3 97 -66 60z m50 -25 c0 -11 -58 -61 -71 -61 -18 0
-9 19 22 44 32 27 49 33 49 17z"/>
<path d="M6024 11409 c-23 -17 -50 -49 -60 -71 -18 -40 -18 -40 5 -59 32 -26
101 -26 101 0 0 15 -7 18 -37 17 -58 -2 -56 26 6 83 28 26 48 50 44 54 -10 11
-15 9 -59 -24z"/>
<path d="M4313 11413 c-91 -44 -75 -145 25 -157 47 -5 41 19 -10 36 -23 7 -43
18 -45 23 -1 6 20 20 47 32 36 16 50 27 50 42 0 31 -30 42 -67 24z m26 -26
c-2 -1 -13 -9 -24 -17 -19 -14 -19 -14 -6 3 7 9 18 17 24 17 6 0 8 -1 6 -3z"/>
<path d="M5757 11410 c-14 -11 -31 -20 -39 -20 -20 0 -64 -108 -50 -122 7 -7
21 7 45 45 37 58 70 87 99 87 23 0 22 -14 -2 -69 -21 -46 -26 -81 -10 -81 10
0 49 81 57 122 11 55 -49 78 -100 38z"/>
<path d="M6221 11358 c-17 -48 -21 -77 -10 -84 17 -10 27 7 34 59 8 50 -8 67
-24 25z"/>
<path d="M13198 11312 c-32 -19 -37 -42 -10 -42 21 0 52 29 52 48 0 16 -10 15
-42 -6z"/>
<path d="M13947 11302 c-20 -22 -22 -42 -4 -42 19 0 50 37 42 49 -9 16 -20 14
-38 -7z"/>
<path d="M6080 11284 c0 -9 7 -14 17 -12 25 5 28 28 4 28 -12 0 -21 -6 -21
-16z"/>
<path d="M2311 10773 c-5 -10 -16 -56 -25 -103 -9 -47 -25 -116 -36 -155 -36
-125 -21 -148 37 -60 18 27 42 58 53 69 21 21 21 21 36 2 8 -12 14 -42 14 -72
0 -29 5 -56 11 -59 16 -11 19 -3 20 59 3 101 -55 146 -110 87 l-28 -30 18 82
c19 82 35 147 46 180 3 11 0 17 -10 17 -9 0 -20 -8 -26 -17z"/>
<path d="M10974 10761 c-49 -22 -113 -77 -124 -105 -15 -41 8 -71 95 -127 47
-30 85 -57 85 -60 0 -19 -146 -27 -152 -8 -5 14 -38 0 -38 -16 0 -19 24 -25
93 -24 73 0 131 18 135 40 3 19 -23 41 -118 102 -83 54 -90 80 -31 126 38 31
99 61 122 61 7 0 10 -18 7 -52 -3 -58 9 -71 41 -39 43 43 13 121 -46 121 -16
0 -46 -9 -69 -19z"/>
<path d="M11267 10754 c-48 -25 -87 -73 -87 -107 0 -33 30 -71 86 -111 89 -62
103 -102 43 -126 -24 -10 -35 -9 -69 8 -22 11 -42 16 -45 12 -11 -19 9 -39 51
-50 39 -11 50 -11 80 3 77 37 67 104 -27 168 -58 39 -89 73 -89 95 0 22 52 74
87 89 54 23 63 20 63 -21 0 -28 3 -35 18 -32 24 4 28 55 6 79 -23 25 -59 23
-117 -7z"/>
<path d="M2936 10758 c-2 -7 -7 -35 -10 -62 -3 -27 -8 -51 -9 -53 -2 -1 -27
-7 -56 -13 -60 -11 -74 -18 -65 -31 3 -5 27 -7 55 -3 56 8 56 9 36 -76 -7 -30
-11 -63 -9 -73 7 -32 27 -12 33 34 4 24 12 63 18 86 11 40 13 42 54 45 51 4
52 22 1 26 -36 3 -36 3 -28 40 11 56 10 85 -3 89 -7 3 -15 -1 -17 -9z"/>
<path d="M2642 10708 c-6 -24 -14 -60 -17 -80 -3 -21 -11 -39 -18 -40 -7 0
-16 -2 -22 -3 -5 -2 -25 -3 -42 -4 -23 -1 -33 -6 -33 -17 0 -14 9 -16 51 -12
l51 5 -6 -36 c-19 -99 -19 -114 -5 -109 12 4 20 29 43 131 5 21 12 27 32 27
30 0 84 26 84 42 0 10 -7 9 -86 -9 -17 -4 -20 0 -18 24 2 15 8 44 13 63 14 46
14 60 -3 60 -7 0 -18 -18 -24 -42z"/>
<path d="M13278 10739 c-22 -12 -23 -29 -4 -29 11 0 14 -9 10 -32 -11 -88 -25
-187 -31 -220 -3 -20 -2 -54 2 -75 l7 -38 17 22 c14 17 19 49 24 160 4 76 9
149 13 163 7 34 -15 63 -38 49z"/>
<path d="M9770 10733 c-66 -5 -90 -12 -90 -26 0 -8 -12 -24 -26 -38 -54 -50
-68 -121 -34 -177 37 -60 128 -78 223 -46 106 36 114 106 31 257 -8 15 -19 27
-24 27 -4 0 -14 1 -22 3 -7 2 -33 2 -58 0z m78 -70 c102 -93 50 -203 -96 -203
-59 0 -99 24 -112 67 -34 112 122 214 208 136z"/>
<path d="M11577 10703 c-3 -5 -15 -52 -26 -104 -11 -52 -28 -121 -37 -155 -10
-33 -15 -68 -11 -77 8 -21 39 -21 92 -2 22 8 75 14 118 15 58 0 78 3 75 13 -7
20 -154 21 -206 1 -24 -9 -45 -14 -47 -12 -3 2 6 44 20 94 37 137 50 213 38
225 -6 6 -13 7 -16 2z"/>
<path d="M13686 10660 c-10 -22 -22 -71 -27 -108 -12 -84 -15 -94 -46 -165
-30 -70 -25 -78 47 -85 94 -9 190 51 190 119 0 41 -38 63 -111 64 l-58 0 5 40
c9 69 26 135 35 141 14 8 11 34 -4 34 -7 0 -21 -18 -31 -40z m122 -224 c36
-36 -50 -106 -129 -106 -47 0 -50 5 -33 48 24 59 60 85 107 79 22 -3 47 -12
55 -21z"/>
<path d="M6729 10632 c-81 -52 -141 -149 -123 -199 16 -47 58 -68 128 -67 64
2 124 21 118 39 -4 11 -6 11 -78 -4 -66 -13 -121 1 -136 34 -18 41 32 124 104
170 l28 17 -6 -45 c-8 -55 7 -67 41 -33 26 26 32 64 15 97 -15 26 -38 24 -91
-9z"/>
<path d="M13492 10643 c5 -25 28 -28 28 -4 0 12 -6 21 -16 21 -9 0 -14 -7 -12
-17z"/>
<path d="M3943 10615 c-27 -19 -86 -103 -89 -125 -1 -8 -13 -55 -28 -104 -28
-95 -33 -141 -15 -152 19 -11 29 9 47 97 15 67 22 85 38 87 49 7 65 14 95 39
18 15 41 47 51 70 16 37 17 47 6 71 -16 33 -70 42 -105 17z m76 -40 c5 -28
-24 -76 -62 -102 -43 -29 -67 -30 -67 -1 0 26 44 104 68 118 25 15 56 8 61
-15z"/>
<path d="M3137 10610 c-9 -6 -30 -34 -46 -61 -21 -37 -30 -46 -35 -34 -3 9 -2
13 4 10 6 -3 10 3 10 14 0 12 -6 21 -13 21 -15 0 -33 -61 -42 -139 -3 -29 -13
-73 -21 -98 -15 -45 -13 -80 5 -69 5 4 24 46 41 94 l32 89 50 12 c52 14 128
75 128 103 0 43 -74 81 -113 58z m61 -36 c17 -12 20 -19 12 -33 -11 -21 -63
-54 -98 -63 -20 -6 -22 -3 -16 15 7 24 17 40 48 75 23 26 25 26 54 6z"/>
<path d="M7850 10613 c-8 -3 -27 -17 -42 -30 -15 -15 -31 -22 -38 -18 -17 11
-30 -14 -30 -56 0 -20 -7 -56 -15 -80 -11 -29 -12 -46 -5 -53 14 -14 22 -2 55
84 35 92 65 125 105 116 37 -7 47 8 18 28 -24 17 -25 17 -48 9z"/>
<path d="M4422 10598 c-7 -7 -12 -26 -12 -42 0 -17 -7 -53 -15 -80 -8 -28 -11
-54 -7 -58 12 -12 25 7 46 64 21 58 38 73 65 59 25 -14 30 -14 27 2 -4 28 -19
39 -51 35 -22 -3 -31 0 -28 8 6 17 -12 25 -25 12z"/>
<path d="M8400 10599 c-32 -13 -60 -39 -60 -55 0 -7 13 -28 29 -46 44 -51 56
-79 40 -90 -14 -9 -60 -5 -91 7 -13 5 -18 2 -18 -9 0 -35 93 -48 130 -18 29
24 23 54 -25 116 -34 45 -34 46 -13 57 12 6 35 12 52 13 42 2 51 36 9 35 -15
0 -39 -5 -53 -10z"/>
<path d="M10064 10568 c-23 -26 -45 -42 -56 -40 -15 3 -18 -4 -18 -35 0 -21
-10 -77 -22 -125 -18 -69 -20 -90 -10 -100 19 -19 31 1 46 73 l13 64 41 2 c44
1 106 33 116 59 10 26 7 84 -5 107 -27 50 -56 49 -105 -5z m76 -7 c19 -36 12
-78 -16 -100 -32 -25 -69 -27 -78 -5 -7 18 17 68 47 102 25 27 33 28 47 3z"/>
<path d="M4186 10566 c-41 -54 -49 -84 -31 -113 17 -25 43 -25 75 2 30 24 40
27 38 8 -3 -35 2 -51 18 -57 24 -9 35 3 22 24 -10 15 -10 29 0 65 14 52 16 85
5 85 -5 0 -30 -25 -56 -55 -49 -56 -77 -69 -77 -36 0 26 39 72 58 69 11 -2 18
5 20 20 5 37 -40 29 -72 -12z"/>
<path d="M4701 10587 c-14 -6 -34 -27 -45 -46 l-19 -33 27 -55 c28 -58 27 -73
-5 -73 -15 0 -19 6 -17 23 2 14 -2 22 -12 22 -10 0 -15 -10 -15 -30 0 -57 79
-67 99 -13 7 19 3 36 -14 72 -29 56 -20 99 20 104 34 5 49 20 30 32 -19 12
-20 12 -49 -3z"/>
<path d="M10515 10558 c-47 -44 -79 -94 -69 -109 10 -17 21 -9 60 46 53 74 64
76 64 15 0 -27 -4 -60 -10 -74 -11 -29 -3 -59 14 -53 16 5 36 135 27 177 -10
49 -32 49 -86 -2z"/>
<path d="M5155 10565 c-14 -13 -25 -28 -25 -33 0 -5 -8 -12 -18 -15 -32 -8
-47 -147 -17 -147 9 0 15 9 15 23 0 13 9 42 20 65 11 22 20 45 20 50 0 5 12
19 26 33 l26 24 18 -22 c34 -42 56 -20 24 25 -20 29 -59 28 -89 -3z"/>
<path d="M4886 10568 c-11 -6 -35 -26 -53 -44 -44 -44 -47 -102 -7 -133 33
-26 134 -31 134 -7 0 19 -18 24 -56 19 -41 -7 -74 12 -74 41 0 20 6 24 41 29
66 9 109 63 77 95 -15 15 -37 15 -62 0z m44 -27 c0 -12 -21 -28 -50 -35 l-25
-7 28 25 c29 26 47 33 47 17z"/>
<path d="M7554 10561 c-40 -24 -84 -81 -84 -108 0 -11 7 -26 15 -33 15 -12 46
-7 102 16 6 3 14 -8 18 -25 7 -33 30 -58 39 -42 4 5 1 20 -5 33 -8 19 -7 39 6
87 15 60 15 64 -2 77 -25 19 -53 17 -89 -5z m66 -22 c0 -26 -37 -70 -69 -83
-45 -18 -58 -6 -35 29 29 44 104 83 104 54z"/>
<path d="M7999 10560 c-42 -22 -99 -84 -99 -106 0 -48 65 -84 151 -84 49 0 89
13 89 28 0 5 -35 8 -78 7 -59 0 -84 4 -106 19 l-29 18 59 20 c82 28 116 54
112 87 -2 21 -9 26 -33 28 -16 2 -46 -6 -66 -17z m71 -18 c0 -8 -80 -52 -94
-52 -14 0 7 22 38 41 33 20 56 25 56 11z"/>
<path d="M10295 10524 c-25 -25 -45 -51 -45 -58 0 -6 9 -22 19 -36 16 -20 28
-24 72 -25 33 0 54 5 56 13 3 8 -9 12 -41 12 -24 0 -48 5 -51 10 -3 6 0 10 9
10 22 0 76 49 76 70 0 19 -25 50 -40 50 -5 0 -30 -21 -55 -46z m65 -3 c0 -11
-40 -41 -54 -41 -5 0 1 11 14 25 24 26 40 32 40 16z"/>
<path d="M3375 10540 c-12 -20 18 -28 92 -26 88 2 106 8 74 25 -20 11 -160 11
-166 1z"/>
<path d="M12890 10541 c-22 -4 -36 -12 -38 -23 -4 -20 -1 -21 48 -9 20 4 43 5
52 2 19 -6 15 -9 -99 -80 -51 -32 -69 -64 -40 -73 26 -9 200 7 204 19 3 9 -20
13 -82 15 l-86 3 63 37 c85 50 126 84 113 96 -14 13 -92 21 -135 13z"/>
<path d="M7069 10494 c-15 -18 2 -24 72 -24 68 0 119 12 119 28 0 13 -180 9
-191 -4z"/>
<path d="M13482 10468 c-21 -81 -24 -108 -12 -108 6 0 12 6 14 13 2 6 11 35
20 62 20 61 20 75 2 75 -7 0 -18 -18 -24 -42z"/>
<path d="M5780 10370 c0 -11 -7 -38 -16 -60 -14 -34 -20 -40 -42 -38 -19 2
-27 -2 -30 -15 -3 -16 2 -18 35 -15 34 3 40 8 61 48 26 52 29 100 7 100 -8 0
-15 -9 -15 -20z"/>
<path d="M8763 10358 c5 -19 -4 -36 -38 -78 -25 -30 -45 -61 -45 -67 0 -29 28
-9 73 52 51 68 58 107 23 113 -15 3 -18 0 -13 -20z"/>
<path d="M12057 10363 c-7 -11 -2 -51 8 -76 12 -28 -21 -64 -88 -98 -75 -38
-75 -38 -57 -49 9 -5 33 1 69 21 72 37 88 50 100 81 18 49 -11 156 -32 121z"/>
<path d="M2149 10088 c0 -7 -2 -60 -4 -118 -2 -58 -10 -140 -19 -183 -17 -82
-20 -154 -10 -182 9 -22 53 -43 141 -66 85 -21 103 -23 103 -10 0 12 -64 37
-116 45 -22 4 -55 16 -72 26 -38 23 -41 52 -17 176 19 105 33 253 27 292 -4
30 -31 47 -33 20z"/>
<path d="M7680 9913 c-25 -9 -61 -46 -87 -90 -18 -32 -25 -58 -26 -110 l-2
-68 -73 -7 c-78 -6 -88 -10 -77 -28 4 -7 31 -8 81 -4 65 6 74 5 74 -10 0 -29
-20 -56 -47 -67 -24 -9 -25 -11 -11 -25 29 -29 73 12 88 81 4 21 12 31 28 33
31 5 28 32 -3 32 -24 0 -25 2 -25 64 0 55 4 70 33 112 26 40 38 50 65 52 34 3
44 25 16 36 -9 3 -16 6 -17 5 -1 0 -9 -3 -17 -6z"/>
<path d="M5544 9863 c-30 -32 -98 -172 -109 -221 -4 -19 -7 -49 -7 -68 0 -35
-11 -50 -43 -56 -30 -5 -26 -34 5 -30 14 2 29 7 34 12 4 4 24 -3 44 -16 25
-17 47 -24 71 -22 46 4 54 28 9 28 -34 0 -78 23 -78 41 0 6 16 30 36 52 74 87
119 218 95 280 -13 34 -25 34 -57 0z m36 -36 c0 -39 -35 -136 -66 -183 -48
-72 -59 -78 -50 -26 14 93 116 275 116 209z"/>
<path d="M10410 9872 c0 -19 -51 -110 -168 -297 -150 -241 -173 -280 -170
-294 5 -24 25 -23 31 2 4 12 32 63 63 112 141 222 274 450 274 472 0 14 -6 23
-15 23 -8 0 -15 -8 -15 -18z"/>
<path d="M5866 9788 c-20 -94 -50 -206 -71 -259 -13 -35 -11 -49 6 -49 4 0 19
20 33 44 30 51 80 96 106 96 11 0 24 -9 30 -20 10 -18 6 -26 -23 -55 -35 -35
-71 -47 -61 -21 9 22 -14 29 -25 7 -19 -34 -13 -51 15 -51 40 0 94 30 115 64
25 42 24 53 -10 87 -26 26 -33 28 -58 18 -15 -6 -39 -20 -52 -32 -23 -21 -24
-21 -17 -2 11 30 56 223 56 240 0 8 -6 15 -14 15 -8 0 -19 -28 -30 -82z"/>
<path d="M4165 9828 c-2 -13 -9 -41 -13 -63 -5 -22 -22 -84 -37 -137 -24 -80
-26 -100 -15 -112 18 -22 33 -20 27 4 -3 11 10 74 28 139 19 66 35 134 37 152
4 37 -19 52 -27 17z"/>
<path d="M14353 9833 c-3 -10 -26 -70 -52 -133 -33 -84 -46 -129 -46 -167 0
-69 18 -68 27 1 6 47 67 218 99 279 10 19 4 37 -12 37 -5 0 -12 -8 -16 -17z"/>
<path d="M14210 9828 c0 -6 -24 -64 -52 -127 -45 -98 -53 -125 -53 -176 0 -43
4 -60 13 -60 9 0 14 19 16 60 3 47 15 85 55 172 54 120 60 143 36 143 -8 0
-15 -5 -15 -12z"/>
<path d="M4027 9823 c-4 -3 -7 -20 -7 -38 0 -17 -11 -74 -25 -126 -25 -95 -30
-140 -18 -152 10 -10 33 13 27 27 -3 7 7 57 21 110 32 127 33 211 2 179z"/>
<path d="M9935 9798 c-7 -18 -23 -67 -35 -108 -12 -42 -31 -81 -41 -89 -20
-14 -26 -41 -9 -41 6 0 7 -23 3 -60 -5 -52 -4 -60 11 -60 10 0 16 8 16 25 0
13 5 46 11 74 10 48 11 50 52 56 61 9 77 15 77 27 0 7 -20 9 -55 6 -63 -5 -61
-13 -23 92 11 30 22 67 25 83 7 38 -15 35 -32 -5z"/>
<path d="M4843 9740 c-49 -36 -100 -109 -109 -157 -12 -65 28 -113 95 -113 66
0 189 55 168 76 -4 4 -28 -2 -52 -14 -25 -12 -69 -25 -99 -28 -51 -6 -55 -5
-71 20 -16 24 -16 32 -5 69 21 71 150 185 150 132 0 -8 -5 -14 -11 -12 -15 3
-31 -55 -19 -67 6 -6 19 -1 35 14 24 23 32 60 19 94 -10 25 -56 19 -101 -14z"/>
<path d="M5720 9750 c-13 -9 -12 -12 5 -25 16 -13 21 -13 33 -1 26 26 -6 47
-38 26z"/>
<path d="M13410 9728 c-88 -38 -100 -70 -50 -133 17 -21 30 -44 30 -52 0 -19
-67 -46 -97 -38 -20 5 -24 2 -21 -12 3 -14 13 -18 43 -17 100 2 131 55 75 132
-16 23 -30 45 -30 50 0 12 54 41 92 49 32 7 34 9 19 24 -15 15 -20 15 -61 -3z"/>
<path d="M11916 9709 c-43 -34 -49 -61 -26 -121 10 -28 17 -55 13 -61 -3 -5
-23 -7 -44 -4 -30 4 -39 2 -39 -9 0 -20 43 -34 76 -25 40 10 51 34 35 73 -8
18 -16 49 -18 69 -4 30 -1 40 18 52 17 12 26 14 36 5 18 -15 30 -1 17 20 -16
25 -37 25 -68 1z"/>
<path d="M12387 9702 c-24 -27 -21 -70 8 -104 29 -35 30 -41 10 -58 -12 -10
-24 -11 -50 -2 -23 6 -37 7 -41 0 -18 -29 72 -49 111 -24 32 21 32 56 0 94
-28 33 -33 70 -10 78 19 8 20 34 2 34 -8 0 -21 -8 -30 -18z"/>
<path d="M6577 9680 c-51 -32 -95 -104 -83 -135 10 -26 30 -12 37 26 10 45 69
99 109 99 32 0 37 9 18 28 -18 18 -29 15 -81 -18z"/>
<path d="M13715 9668 c-42 -37 -48 -40 -42 -19 13 50 -23 69 -58 31 -10 -12
-24 -19 -31 -16 -12 5 -94 -131 -94 -155 0 -25 29 -3 62 49 21 32 50 69 64 83
l27 24 -7 -47 c-9 -59 0 -61 58 -13 l42 34 -4 -33 c-4 -36 18 -62 44 -52 15 6
15 8 -1 27 -18 19 -18 21 3 65 38 76 10 86 -63 22z"/>
<path d="M6147 9671 c-60 -54 -105 -161 -67 -161 10 0 30 38 36 68 4 21 54 82
67 82 7 0 22 -7 34 -15 34 -24 42 3 9 32 -34 29 -38 29 -79 -6z"/>
<path d="M8622 9680 c-12 -11 -25 -20 -29 -20 -5 0 -14 -26 -20 -57 -7 -32
-15 -68 -19 -80 -5 -17 -2 -23 9 -23 10 0 23 22 36 63 30 90 43 105 93 109 61
4 62 28 1 28 -35 0 -55 -6 -71 -20z"/>
<path d="M11214 9693 c-12 -2 -30 -13 -40 -24 -9 -10 -23 -19 -31 -19 -15 0
-39 -51 -79 -168 -15 -43 -35 -91 -45 -108 -22 -36 -25 -74 -6 -74 16 0 27 22
73 140 18 47 33 77 34 68 1 -45 94 -3 137 61 25 37 31 99 11 119 -12 12 -16
13 -54 5z m36 -53 c0 -54 -53 -110 -102 -110 l-28 0 15 38 c9 20 28 49 42 65
32 33 73 37 73 7z"/>
<path d="M13922 9674 c-86 -68 -80 -161 10 -152 30 3 39 0 44 -14 9 -30 23
-20 35 25 6 23 16 48 21 54 6 7 7 20 4 30 -6 13 -14 9 -47 -25 -61 -64 -121
-53 -85 16 21 41 61 65 85 52 22 -11 34 0 25 24 -9 24 -55 19 -92 -10z"/>
<path d="M10555 9679 c-29 -8 -51 -25 -83 -64 -8 -9 -22 -45 -31 -80 -15 -54
-16 -67 -5 -76 11 -9 15 -7 20 7 12 40 36 101 52 134 13 26 26 36 55 43 27 7
37 14 37 28 0 21 -1 21 -45 8z"/>
<path d="M10940 9672 c-43 -21 -50 -53 -20 -94 25 -34 19 -48 -20 -48 -22 0
-28 -4 -24 -15 4 -8 17 -15 31 -15 62 0 81 44 42 94 -19 25 -20 29 -6 43 8 8
29 18 46 22 18 3 32 11 32 16 -1 17 -44 15 -81 -3z"/>
<path d="M7865 9658 c-24 -22 -64 -133 -51 -145 14 -15 34 10 40 51 4 25 15
55 25 68 17 20 22 21 46 10 26 -12 45 -9 45 7 0 9 -45 31 -65 31 -8 0 -26 -10
-40 -22z"/>
<path d="M9680 9658 c-23 -25 -23 -23 -10 -67 11 -40 -1 -68 -36 -81 -27 -11
-31 -28 -8 -37 10 -4 27 6 47 26 28 28 32 38 32 88 0 52 2 57 24 63 37 9 38
30 2 30 -18 0 -38 -9 -51 -22z"/>
<path d="M12121 9655 c-77 -66 -92 -144 -33 -178 34 -20 89 -17 76 5 -5 8 -2
9 10 5 11 -4 15 -3 10 4 -4 6 -20 8 -38 5 -25 -5 -37 -2 -51 13 -25 28 -14 47
44 71 27 12 57 30 67 41 16 18 16 20 -1 39 -24 27 -47 25 -84 -5z m59 -13 c0
-5 -17 -16 -37 -25 l-38 -17 30 25 c31 26 45 31 45 17z"/>
<path d="M8768 9643 c-39 -42 -68 -95 -68 -125 0 -23 6 -29 40 -39 32 -10 45
-10 65 1 25 13 34 40 14 40 -5 0 -8 -4 -5 -9 6 -9 -71 -7 -80 2 -13 13 8 47
29 47 34 0 99 58 95 84 -5 34 -57 34 -90 -1z m39 -29 c-21 -14 -41 -24 -43
-21 -8 7 47 47 65 47 9 0 -1 -11 -22 -26z"/>
<path d="M8993 9651 c-55 -34 -110 -156 -76 -168 7 -2 31 15 55 40 24 24 60
56 81 72 l38 28 -7 -29 c-3 -16 -26 -67 -49 -114 -48 -95 -113 -255 -140 -343
-21 -67 -10 -96 19 -51 28 41 85 93 127 115 22 11 39 24 39 29 0 20 -39 9 -89
-24 -28 -19 -51 -33 -51 -31 0 13 85 213 124 294 52 106 64 154 46 176 -15 18
-30 11 -106 -52 -56 -44 -56 -45 -38 -13 11 18 34 39 52 47 18 8 32 19 30 25
-7 19 -21 19 -55 -1z"/>
<path d="M11393 9648 c-94 -67 -80 -168 18 -139 43 13 56 39 46 91 -4 16 -2
32 4 36 12 7 -7 34 -25 34 -6 0 -26 -10 -43 -22z m31 -44 c13 -33 6 -55 -20
-64 -47 -18 -58 9 -23 54 24 30 34 33 43 10z"/>
<path d="M2424 9649 c-4 -7 -3 -14 2 -16 5 -2 45 -24 88 -49 l79 -47 -24 -18
c-13 -10 -48 -29 -76 -41 -51 -22 -70 -48 -37 -48 19 0 119 53 153 80 13 11
21 26 18 34 -5 12 -140 96 -178 111 -10 4 -20 1 -25 -6z"/>
<path d="M3153 9645 c-45 -19 -43 -51 7 -108 22 -25 40 -50 40 -56 0 -15 -35
-31 -62 -28 -15 1 -23 -3 -23 -13 0 -21 51 -25 80 -6 49 32 49 50 0 107 -25
29 -45 57 -45 61 0 11 45 28 76 28 15 0 24 6 24 15 0 19 -53 19 -97 0z"/>
<path d="M3415 9640 c-9 -10 -27 -18 -38 -17 -17 2 -22 -6 -29 -42 -4 -24 -14
-54 -23 -67 -19 -29 -19 -54 0 -54 8 0 23 21 34 46 23 52 77 124 93 124 7 0 9
-18 5 -50 -8 -63 5 -65 57 -10 50 53 59 51 51 -10 -6 -41 -4 -51 10 -56 21 -8
46 13 28 24 -9 6 -10 17 -4 38 19 66 -28 97 -83 53 -25 -19 -26 -20 -26 -2 0
43 -45 56 -75 23z"/>
<path d="M6276 9618 c-65 -75 -32 -118 50 -67 33 20 34 20 34 1 0 -27 27 -49
42 -34 9 9 9 15 0 24 -7 7 -12 27 -12 45 0 18 -2 33 -5 33 -3 0 -27 -13 -53
-30 -27 -16 -52 -30 -56 -30 -4 0 2 14 14 30 14 19 30 30 46 30 26 0 31 9 12
28 -20 20 -35 14 -72 -30z"/>
<path d="M7682 9638 c-45 -49 -50 -108 -11 -128 24 -14 75 11 84 41 10 32 -4
88 -25 99 -25 13 -23 13 -48 -12z m41 -76 c-5 -10 -18 -18 -27 -20 -22 -5 -21
35 1 60 17 19 18 19 27 -2 7 -14 6 -27 -1 -38z"/>
<path d="M10672 9612 c-78 -76 -82 -134 -8 -140 31 -3 36 0 36 17 0 12 5 21
10 21 6 0 10 5 10 11 0 6 -14 9 -32 7 -23 -2 -32 -8 -30 -18 3 -11 0 -12 -8
-4 -17 17 -1 42 34 54 41 13 79 52 74 76 -6 34 -34 26 -86 -24z"/>
<path d="M3735 9617 c-35 -35 -51 -76 -41 -102 7 -19 49 -19 86 0 29 15 30 15
30 -7 0 -32 15 -52 34 -45 18 7 22 27 5 27 -8 0 -10 15 -5 48 3 27 3 51 0 55
-4 3 -25 -9 -47 -28 -69 -59 -108 -37 -45 25 25 26 37 31 60 26 24 -5 29 -3
26 12 -2 11 -14 18 -36 20 -26 3 -39 -3 -67 -31z"/>
<path d="M6851 9580 c-23 -38 -46 -72 -53 -76 -18 -11 -48 35 -48 73 0 26 -4
34 -16 31 -8 -2 -15 -6 -15 -10 1 -5 1 -21 1 -37 0 -17 11 -42 26 -60 l25 -31
-57 -86 c-41 -61 -57 -96 -58 -121 -1 -48 20 -54 27 -8 6 34 83 159 132 215
32 36 95 145 95 164 0 32 -18 15 -59 -54z"/>
<path d="M9461 9621 c-17 -16 -38 -46 -47 -66 -14 -33 -14 -39 1 -61 12 -19
24 -24 58 -24 39 1 112 29 77 30 -13 0 -13 1 0 10 21 14 -5 13 -31 -1 -11 -5
-33 -9 -50 -7 l-30 3 56 43 c55 43 66 67 43 90 -19 19 -44 14 -77 -17z m24
-41 c-16 -16 -31 -28 -34 -25 -2 3 8 19 24 35 16 16 31 28 34 25 2 -3 -8 -19
-24 -35z"/>
<path d="M11624 9616 c-36 -31 -40 -32 -40 -14 2 41 -22 29 -29 -14 -5 -30
-18 -53 -42 -75 -30 -29 -37 -53 -14 -53 5 0 44 35 87 78 l79 77 5 -64 c7 -92
27 -91 32 1 5 107 -11 121 -78 64z"/>
<path d="M9177 9585 c-9 -20 -17 -51 -17 -69 0 -66 74 -90 123 -38 28 29 63
112 47 112 -6 0 -10 5 -10 11 0 5 5 7 12 3 7 -4 8 -3 4 5 -11 17 -23 5 -37
-37 -20 -62 -47 -94 -78 -90 -32 4 -40 42 -17 87 19 37 20 51 3 51 -7 0 -21
-16 -30 -35z"/>
<path d="M5639 9544 c-22 -50 -19 -77 8 -72 12 2 19 14 20 33 1 17 5 42 9 58
11 45 -15 32 -37 -19z"/>
<path d="M12798 9459 c-10 -48 -19 -67 -45 -90 -36 -31 -42 -49 -17 -49 30 0
81 65 88 112 4 24 9 53 13 66 4 16 1 22 -11 22 -11 0 -19 -18 -28 -61z"/>
<path d="M4254 9334 c-29 -49 -73 -152 -74 -170 0 -12 -45 -24 -91 -24 -19 0
-29 -5 -29 -15 0 -8 7 -15 15 -15 8 0 15 4 15 10 0 6 9 6 25 0 14 -5 32 -7 40
-4 12 5 15 -2 15 -29 0 -45 9 -67 26 -67 11 0 14 12 12 52 -3 50 -2 51 30 60
43 11 45 43 2 33 l-29 -6 15 43 c20 58 67 143 79 143 17 0 36 16 30 26 -4 5
-17 9 -30 9 -18 0 -31 -12 -51 -46z"/>
<path d="M4672 9332 c0 -27 -3 -67 -7 -90 -6 -39 -8 -41 -48 -44 -54 -4 -63
-28 -9 -28 l39 0 -11 -40 c-8 -31 -7 -46 3 -61 7 -12 8 -18 2 -14 -6 3 -11 2
-11 -3 0 -6 6 -12 13 -15 9 -3 14 6 15 32 2 20 7 51 13 69 10 29 15 33 41 30
42 -4 49 20 9 28 -36 7 -34 3 -20 78 12 65 6 106 -15 106 -10 0 -14 -14 -14
-48z"/>
<path d="M5639 9300 l-22 -60 -53 0 c-43 0 -52 -3 -48 -15 4 -10 20 -15 45
-15 l40 0 -16 -30 c-25 -48 -20 -105 11 -129 29 -23 101 -29 135 -10 31 16 13
26 -39 21 -64 -6 -92 9 -92 49 0 17 7 46 16 64 14 30 20 33 74 39 32 4 61 12
64 19 3 9 5 9 5 0 1 -17 31 -4 31 14 0 11 -8 13 -27 9 -63 -12 -113 -17 -113
-13 0 3 9 26 20 52 24 56 25 65 6 65 -9 0 -24 -24 -37 -60z"/>
<path d="M5240 9248 c0 -16 19 -38 33 -38 4 0 7 10 5 22 -3 25 -38 39 -38 16z"/>
<path d="M2433 9221 c-50 -37 -73 -72 -73 -115 0 -51 23 -70 79 -62 55 8 65
17 57 51 -8 30 -31 29 -31 -1 0 -15 -7 -19 -35 -19 -29 0 -36 4 -38 23 -3 17
2 22 17 22 33 0 91 58 91 90 0 40 -23 43 -67 11z m22 -41 c-10 -11 -25 -20
-34 -20 -11 1 -7 8 14 25 34 28 47 25 20 -5z"/>
<path d="M3159 9235 c-29 -16 -44 -48 -54 -111 -4 -27 -2 -44 5 -49 19 -12 28
8 29 68 1 16 12 39 26 53 20 20 31 24 59 19 19 -4 36 -2 40 3 15 24 -69 38
-105 17z"/>
<path d="M2685 9228 c-11 -5 -29 -21 -41 -35 -17 -20 -21 -21 -20 -6 1 24 -15
32 -24 13 -11 -22 -31 -81 -37 -107 -8 -35 18 -28 45 10 12 18 36 47 53 63
l31 29 -7 -47 c-9 -60 4 -62 58 -10 l40 37 -7 -30 c-4 -16 -10 -40 -13 -52 -4
-16 0 -25 12 -29 21 -8 46 13 28 24 -8 5 -9 13 -3 22 6 8 10 34 10 58 0 51
-19 56 -63 15 l-30 -28 6 32 c7 38 -9 56 -38 41z"/>
<path d="M2927 9209 c-39 -23 -62 -110 -35 -137 35 -35 140 9 146 61 7 58 -61
105 -111 76z m65 -36 c25 -22 23 -38 -8 -62 -37 -29 -74 -28 -74 3 0 25 35 76
52 76 6 0 20 -7 30 -17z"/>
<path d="M2220 9173 c-17 -21 -29 -30 -26 -20 3 9 3 24 0 32 -7 17 -49 20 -59
5 -3 -6 -18 -7 -32 -4 -21 6 -24 4 -21 -12 3 -11 -8 -45 -24 -77 -27 -53 -29
-77 -9 -77 5 0 21 25 36 55 15 30 38 64 51 76 l24 22 0 -26 c0 -14 -5 -38 -10
-53 -15 -38 6 -58 27 -27 32 48 63 78 64 63 0 -8 2 -23 5 -32 2 -10 6 -26 7
-35 2 -9 9 -19 15 -21 9 -3 12 21 12 82 0 100 -10 108 -60 49z"/>
<path d="M4821 9175 c-17 -20 -31 -32 -31 -28 0 23 -19 -19 -24 -52 -10 -67
-22 -118 -52 -224 -6 -19 -4 -22 12 -19 18 3 26 26 59 163 4 17 10 24 12 18 9
-25 60 -14 97 20 45 43 54 77 29 119 -28 48 -62 49 -102 3z m74 -19 c19 -28
12 -47 -28 -84 -25 -24 -25 -24 -45 -4 -17 17 -18 21 -4 48 17 35 42 64 53 64
5 0 16 -11 24 -24z"/>
<path d="M3355 9160 c-35 -36 -75 -37 -90 -2 -16 36 -42 21 -30 -18 7 -22 60
-54 75 -45 12 7 -61 -148 -73 -156 -16 -11 1 -41 20 -37 10 2 20 16 24 33 7
35 72 166 102 207 31 42 9 56 -28 18z"/>
<path d="M5070 9177 c-25 -12 -63 -78 -76 -129 -5 -24 -3 -28 15 -28 12 0 21
3 22 8 7 78 31 116 77 120 36 4 41 16 13 32 -24 12 -21 12 -51 -3z"/>
<path d="M5311 9121 c-49 -49 -77 -99 -63 -113 7 -7 19 3 35 29 40 63 122 124
102 76 -4 -10 -10 -40 -13 -67 -4 -38 -2 -48 9 -44 14 5 30 67 33 123 1 27 -2
30 -31 33 -26 3 -39 -4 -72 -37z"/>
<path d="M4286 9116 c-54 -50 -46 -106 15 -106 14 0 38 9 53 21 14 11 26 16
26 11 0 -18 50 -33 73 -21 46 24 58 41 51 73 -14 65 -40 72 -89 23 l-33 -33
-11 22 c-5 13 -19 28 -30 33 -16 9 -26 5 -55 -23z m54 -10 c0 -2 3 -11 6 -19
7 -18 -21 -47 -47 -47 -23 0 -24 18 -3 48 13 19 44 31 44 18z m133 -16 c5 -21
-17 -40 -47 -40 -20 0 -20 10 0 38 19 27 40 28 47 2z"/>
<path d="M5167 9073 c-3 -16 -2 -32 3 -37 14 -14 30 4 30 35 0 37 -26 39 -33
2z"/>
<path d="M6519 8553 c-49 -26 -57 -35 -91 -103 -20 -41 -45 -103 -55 -137 -11
-41 -23 -63 -35 -66 -22 -6 -24 -27 -2 -27 11 0 14 -6 8 -22 -12 -37 -10 -53
6 -53 9 0 18 15 24 43 l9 42 56 1 c31 1 68 0 84 -1 18 -1 27 3 27 13 0 22 -25
28 -96 21 l-65 -7 7 29 c13 51 42 113 85 175 46 69 91 95 133 79 21 -8 24 -7
19 8 -15 40 -42 41 -114 5z"/>
<path d="M4837 8563 c-4 -3 -7 -17 -7 -30 0 -13 -7 -55 -16 -92 l-15 -69 -47
-7 c-76 -11 -92 -16 -92 -32 0 -15 11 -15 103 3 l27 6 -30 -83 c-38 -104 -40
-156 -6 -165 36 -9 111 35 92 53 -3 4 -22 -1 -41 -10 -20 -9 -38 -17 -40 -17
-13 0 -2 54 27 137 l32 92 40 3 c55 4 61 28 7 28 -23 0 -41 1 -41 3 0 1 7 27
15 57 23 85 19 150 -8 123z"/>
<path d="M9600 8501 c-5 -11 -15 -55 -20 -98 -17 -127 -16 -125 -51 -118 -34
8 -111 -32 -130 -66 -16 -30 -3 -68 28 -80 41 -15 88 6 121 54 38 55 49 91 57
179 4 40 13 86 21 102 20 42 -4 68 -26 27z m-60 -261 c0 -16 -50 -68 -69 -73
-11 -3 -28 1 -38 8 -17 13 -17 14 2 35 34 39 105 59 105 30z"/>
<path d="M2275 8459 c-65 -47 -137 -157 -156 -238 -9 -42 9 -91 42 -115 45
-31 239 -14 239 21 0 11 -6 13 -22 9 -13 -4 -60 -10 -104 -13 -74 -5 -83 -4
-103 16 -29 29 -27 85 6 151 29 58 120 160 143 160 10 0 9 -4 -3 -18 -24 -27
-22 -72 2 -72 43 0 61 42 41 94 -12 32 -44 34 -85 5z"/>
<path d="M11613 8435 c-12 -9 -15 -17 -8 -24 13 -13 55 -3 55 14 0 20 -26 25
-47 10z"/>
<path d="M5668 8380 c-9 -6 -27 -27 -39 -47 -22 -35 -24 -36 -29 -15 -3 13 -9
24 -15 25 -10 2 -19 -33 -34 -139 -11 -73 -31 -143 -58 -202 -12 -25 -13 -36
-4 -45 8 -8 15 -6 26 9 19 24 55 119 55 144 0 34 12 50 37 50 32 0 72 22 107
59 33 34 47 112 27 150 -12 22 -44 27 -73 11z m46 -73 c0 -50 -19 -79 -67
-104 -51 -26 -60 -14 -33 42 27 59 74 117 90 112 6 -2 11 -24 10 -50z"/>
<path d="M12055 8364 c-28 -14 -56 -33 -62 -42 -19 -24 -16 -76 7 -105 11 -14
20 -30 20 -35 0 -16 -64 -42 -89 -35 -19 5 -22 2 -19 -13 5 -27 41 -29 92 -3
55 27 63 53 31 95 -14 18 -25 42 -25 53 0 24 63 68 110 78 35 6 41 33 7 33
-12 0 -45 -12 -72 -26z"/>
<path d="M6161 8351 c-11 -11 -36 -52 -55 -90 -19 -38 -48 -78 -63 -89 -23
-17 -26 -23 -15 -33 18 -19 64 30 111 117 38 70 50 78 94 59 20 -9 24 17 5 33
-29 22 -57 23 -77 3z"/>
<path d="M10609 8320 c-38 -39 -57 -94 -45 -125 11 -28 50 -16 99 31 26 26 47
44 47 41 0 -10 -91 -257 -124 -337 -39 -92 -45 -130 -21 -130 8 0 15 4 15 9 0
5 20 36 44 68 30 42 58 67 90 83 26 12 45 27 44 32 -2 5 -7 9 -11 9 -4 -1 -13
-1 -21 -1 -8 0 -35 -15 -59 -34 l-45 -35 13 32 c37 90 105 299 105 324 0 34
-38 73 -70 73 -14 0 -39 -16 -61 -40z m71 -13 c0 -23 -74 -106 -85 -95 -11 11
7 56 35 87 34 37 50 40 50 8z"/>
<path d="M11734 8347 c-11 -7 -40 -28 -62 -48 -40 -34 -42 -39 -42 -92 0 -80
37 -115 91 -86 25 13 14 31 -15 23 -29 -7 -49 16 -44 51 2 21 11 30 41 40 71
24 108 80 75 113 -15 15 -17 15 -44 -1z m26 -36 c0 -11 -69 -55 -76 -48 -6 6
54 57 67 57 5 0 9 -4 9 -9z"/>
<path d="M2930 8342 c-72 -31 -125 -133 -88 -170 17 -17 48 -15 84 7 l32 19 4
-28 c2 -16 0 -36 -4 -45 -10 -17 12 -31 37 -21 12 4 13 10 4 30 -8 17 -8 41
-1 83 5 32 8 61 5 66 -9 14 -21 6 -40 -25 -20 -33 -87 -78 -99 -66 -11 12 5
55 33 88 23 28 31 32 65 27 37 -5 59 7 42 23 -14 12 -57 19 -74 12z"/>
<path d="M3663 8320 c-29 -17 -53 -35 -53 -41 0 -16 56 -69 73 -69 8 0 20 -7
27 -15 20 -24 -6 -48 -43 -41 -23 5 -28 3 -25 -12 5 -27 56 -28 84 -1 38 36
29 68 -28 96 -27 13 -48 28 -48 34 0 9 61 40 103 53 10 3 15 10 12 16 -11 18
-49 10 -102 -20z"/>
<path d="M5000 8335 c-7 -9 -9 -19 -5 -23 4 -4 10 -2 12 5 4 12 46 -25 63 -57
9 -17 6 -26 -19 -50 -31 -31 -81 -41 -81 -16 0 20 39 66 56 66 8 0 14 7 14 15
0 18 -30 20 -52 3 -47 -39 -60 -94 -29 -122 26 -24 75 -8 120 38 28 29 32 39
26 63 -8 32 -32 63 -50 63 -7 0 -15 7 -19 15 -7 19 -20 19 -36 0z"/>
<path d="M5863 8330 c-40 -24 -63 -67 -63 -119 0 -57 26 -72 99 -60 57 9 77
20 67 38 -4 6 -15 7 -30 2 -21 -9 -67 -14 -93 -12 -32 3 -9 38 47 73 64 39 77
68 41 88 -26 14 -31 13 -68 -10z m46 -32 c-8 -5 -27 -16 -44 -24 l-30 -15 33
31 c18 17 38 28 44 24 7 -4 6 -10 -3 -16z"/>
<path d="M3322 8295 c-43 -39 -53 -54 -63 -102 -13 -55 -13 -56 15 -79 30 -27
71 -30 125 -10 48 17 55 42 10 32 -88 -19 -107 -19 -117 0 -15 28 -3 74 18 74
24 0 35 30 12 30 -12 1 -6 11 22 35 22 19 43 35 48 35 18 0 6 -28 -22 -53 -53
-47 -30 -58 32 -15 36 25 44 54 22 79 -26 29 -47 23 -102 -26z"/>
<path d="M6806 8317 c-23 -23 -86 -163 -86 -192 0 -37 27 -4 57 70 41 98 57
117 90 104 58 -22 75 3 18 27 -45 19 -52 18 -79 -9z"/>
<path d="M8098 8329 c-33 -19 -39 -45 -23 -92 18 -55 13 -72 -27 -86 -25 -9
-29 -13 -18 -26 10 -13 16 -13 39 0 54 27 57 40 35 128 -8 33 9 57 42 57 15 0
24 6 24 15 0 17 -45 20 -72 4z"/>
<path d="M10003 8320 c-59 -26 -65 -57 -27 -127 27 -50 27 -54 11 -70 -15 -15
-17 -15 -17 -2 0 20 -27 21 -35 1 -15 -40 53 -57 79 -20 22 31 20 53 -10 104
-14 24 -24 51 -21 58 7 17 69 48 88 44 8 -2 14 4 14 12 0 22 -34 22 -82 0z"/>
<path d="M11329 8317 c-39 -26 -103 -136 -88 -151 12 -13 22 -2 56 64 25 49
34 57 76 70 26 8 47 21 47 28 0 20 -54 14 -91 -11z"/>
<path d="M7859 8293 c-43 -39 -79 -99 -79 -133 0 -35 40 -45 88 -21 35 18 41
19 46 5 7 -18 32 -12 28 6 -2 7 2 26 8 41 20 48 2 52 -46 10 -96 -84 -127 -43
-40 54 l36 40 18 -24 c26 -32 46 -20 29 17 -23 52 -35 53 -88 5z"/>
<path d="M9776 8305 c-20 -14 -48 -37 -62 -53 -18 -19 -24 -22 -20 -9 17 53
18 67 4 67 -12 0 -53 -84 -75 -152 -11 -36 24 -17 87 48 63 63 116 101 127 90
3 -3 -9 -34 -26 -70 -34 -71 -39 -106 -16 -106 8 0 15 7 15 17 0 9 14 45 30
80 33 70 36 83 18 101 -18 18 -41 15 -82 -13z"/>
<path d="M11104 8311 c-36 -22 -70 -66 -79 -103 -12 -49 33 -96 81 -84 31 8
31 26 0 26 -23 0 -56 23 -56 38 1 16 17 28 39 29 28 2 81 50 81 73 0 15 -18
40 -29 40 -4 0 -20 -9 -37 -19z m19 -43 c-13 -12 -26 -18 -30 -14 -4 4 1 14
11 22 31 22 43 17 19 -8z"/>
<path d="M11500 8263 c-17 -38 -34 -83 -37 -102 -5 -28 -3 -33 13 -29 10 2 20
12 20 23 2 24 41 125 56 142 10 12 3 33 -11 33 -5 0 -23 -30 -41 -67z"/>
<path d="M3178 8310 c-21 -4 -48 -15 -59 -26 -40 -35 -65 -124 -35 -124 7 0
19 20 26 45 14 49 41 75 78 75 30 0 64 18 57 31 -7 10 -13 10 -67 -1z"/>
<path d="M8407 8299 c-9 -13 -30 -54 -48 -91 -18 -38 -37 -68 -41 -68 -4 0
-12 19 -19 43 -6 23 -15 53 -19 67 -7 27 -36 35 -33 10 4 -40 32 -124 46 -137
14 -15 12 -23 -24 -94 -41 -83 -49 -119 -24 -119 8 0 15 7 15 15 0 8 41 97 91
196 59 118 87 185 81 191 -7 7 -15 2 -25 -13z"/>
<path d="M8795 8310 c-28 -11 -88 -78 -104 -118 -12 -28 -11 -35 3 -57 13 -20
25 -25 55 -25 26 0 41 5 45 16 7 18 0 34 -15 34 -6 0 -7 -4 -4 -10 4 -6 -6
-10 -23 -10 -17 0 -32 6 -35 14 -12 31 56 120 100 131 13 3 23 11 21 17 -6 16
-19 18 -43 8z"/>
<path d="M10865 8308 c-39 -107 -44 -145 -23 -166 20 -20 45 -14 84 21 61 52
91 147 48 147 -9 0 -14 -11 -14 -29 0 -32 -34 -87 -67 -109 -20 -13 -23 -13
-29 2 -4 10 3 44 14 76 11 32 17 61 14 64 -9 10 -22 7 -27 -6z"/>
<path d="M7050 8284 c-14 -10 -41 -33 -62 -52 -27 -25 -36 -30 -35 -17 4 35
-22 26 -32 -12 -13 -45 -14 -73 -3 -73 4 0 39 30 77 67 63 62 91 73 66 24 -16
-29 -13 -71 4 -78 9 -3 38 8 65 25 l50 31 0 -24 c0 -36 27 -57 69 -53 24 2 36
8 36 18 0 11 -9 14 -33 12 -42 -4 -50 15 -28 71 29 76 15 89 -35 32 -31 -35
-97 -81 -105 -73 -2 3 3 21 11 41 30 72 11 98 -45 61z"/>
<path d="M8475 8263 c-8 -21 -26 -59 -40 -86 -14 -26 -25 -52 -25 -57 0 -23
29 -8 54 28 14 21 42 54 62 73 l36 34 -4 -35 c-3 -19 -11 -56 -18 -82 -14 -47
-9 -71 11 -51 15 15 48 150 42 173 -6 24 -40 26 -70 5 -21 -15 -22 -14 -17 10
7 38 -15 30 -31 -12z"/>
<path d="M6624 8277 c-3 -9 -17 -17 -29 -17 -29 0 -65 -55 -65 -98 0 -61 79
-77 120 -24 23 28 25 54 9 103 -15 45 -27 57 -35 36z m6 -36 c0 -5 3 -22 6
-38 7 -36 -15 -63 -52 -63 -33 0 -32 39 2 79 25 30 44 40 44 22z"/>
<path d="M2588 8221 c-31 -3 -59 -9 -63 -13 -14 -13 6 -27 33 -22 15 2 43 6
62 8 19 2 38 4 43 5 13 2 8 31 -5 30 -7 -1 -39 -5 -70 -8z"/>
<path d="M7874 7643 c-10 -27 -58 -155 -103 -273 -50 -131 -59 -170 -38 -170
8 0 18 12 21 28 6 24 29 85 116 312 15 41 30 84 32 94 4 25 -20 33 -28 9z"/>
<path d="M9780 7628 c-56 -29 -88 -78 -72 -113 6 -14 31 -38 54 -54 112 -77
119 -93 67 -142 -40 -38 -88 -46 -128 -23 -41 24 -53 9 -18 -22 33 -28 74 -31
120 -8 56 28 87 64 87 101 0 38 -19 60 -90 104 -62 38 -73 55 -55 90 14 27 77
59 115 59 16 0 20 -7 20 -35 0 -23 5 -35 14 -35 29 0 35 59 8 83 -26 23 -70
21 -122 -5z"/>
<path d="M12841 7613 c-61 -170 -73 -195 -102 -205 -30 -10 -40 -38 -14 -38
18 0 19 5 -5 -58 -24 -62 -25 -72 -6 -72 8 0 20 17 27 38 6 20 20 54 31 75 15
31 23 37 51 37 46 0 78 11 74 24 -2 7 -22 10 -50 8 l-45 -3 35 93 c20 51 36
102 37 112 2 34 -20 27 -33 -11z"/>
<path d="M11066 7608 c-8 -13 -24 -69 -37 -125 -12 -57 -26 -103 -31 -103 -5
0 -6 5 -3 10 12 19 -31 10 -68 -15 -45 -31 -70 -76 -61 -110 9 -36 38 -49 72
-33 49 24 89 101 118 227 15 64 33 123 40 132 8 8 14 21 14 27 0 20 -29 13
-44 -10z m-66 -246 c0 -4 -13 -29 -30 -55 -19 -31 -37 -47 -50 -47 -34 0 -25
43 15 79 34 29 65 40 65 23z"/>
<path d="M3675 7601 c-101 -47 -108 -87 -31 -164 30 -30 57 -64 61 -76 12 -37
-32 -71 -116 -90 -49 -12 -71 3 -62 39 6 24 -9 26 -27 5 -10 -12 -10 -21 0
-45 15 -37 35 -43 95 -30 58 13 82 25 118 58 45 43 35 74 -51 164 -50 52 -50
67 0 98 36 22 79 26 108 10 24 -13 38 6 19 25 -25 23 -72 26 -114 6z"/>
<path d="M9257 7613 c-4 -3 -7 -16 -7 -28 0 -12 -7 -44 -15 -72 l-15 -50 -56
-6 c-61 -6 -69 -10 -59 -27 4 -7 24 -8 56 -4 l49 7 -25 -67 c-26 -69 -33 -120
-14 -114 5 2 21 37 35 77 35 105 39 109 82 113 25 2 37 8 37 18 0 11 -9 14
-32 12 -37 -4 -37 -6 -19 68 16 66 8 99 -17 73z"/>
<path d="M4004 7591 c-44 -20 -94 -76 -94 -105 0 -27 17 -53 65 -97 58 -54 65
-76 31 -105 -31 -27 -99 -49 -104 -34 -5 13 -29 13 -37 0 -4 -6 -1 -18 6 -26
22 -27 120 -1 172 44 37 32 15 89 -60 155 -47 41 -50 63 -16 99 35 38 86 60
118 52 27 -7 33 4 13 24 -17 17 -46 15 -94 -7z"/>
<path d="M4366 7598 c-2 -7 -7 -29 -9 -49 -3 -19 -31 -89 -62 -155 -82 -170
-84 -227 -7 -205 17 5 62 12 99 16 65 7 98 19 88 34 -4 7 -91 0 -174 -14 l-44
-8 7 27 c4 15 32 80 62 144 55 117 77 203 55 216 -6 4 -13 1 -15 -6z"/>
<path d="M7465 7600 c-7 -12 2 -30 16 -30 5 0 9 9 9 20 0 21 -15 27 -25 10z"/>
<path d="M14713 7593 c-7 -3 -13 -11 -13 -18 0 -7 -21 -49 -47 -92 -68 -115
-94 -223 -60 -252 20 -16 26 -5 20 38 -7 51 9 99 67 198 27 45 51 91 55 102 6
21 -3 31 -22 24z"/>
<path d="M2400 7581 c-69 -21 -132 -75 -165 -140 -22 -43 -30 -137 -16 -173
26 -67 119 -85 238 -46 55 18 79 33 124 78 59 59 74 94 57 141 -11 32 -60 72
-122 100 -24 10 -49 26 -56 34 -14 16 -22 17 -60 6z m110 -72 c66 -29 100 -66
100 -106 0 -54 -78 -125 -165 -152 -75 -23 -122 -26 -158 -10 -88 40 -44 224
68 288 26 14 96 5 155 -20z"/>
<path d="M9462 7578 c-14 -14 -16 -52 -2 -43 21 13 9 -25 -40 -124 -52 -107
-57 -125 -38 -137 29 -18 158 -1 158 21 0 11 -15 13 -70 8 l-70 -6 51 106 c38
81 49 115 47 143 -3 40 -16 52 -36 32z"/>
<path d="M14261 7573 c-8 -16 -61 -205 -61 -221 0 -4 -5 1 -11 11 -16 27 -35
21 -84 -26 -49 -47 -58 -83 -29 -112 19 -18 58 -13 85 11 31 28 69 113 95 210
14 55 29 103 35 109 14 14 11 35 -6 35 -8 0 -18 -8 -24 -17z m-93 -274 c-30
-54 -78 -74 -78 -33 0 23 55 74 80 74 l21 0 -23 -41z"/>
<path d="M6326 7558 c-3 -7 -9 -42 -16 -78 -13 -74 -46 -153 -86 -205 -32 -42
-44 -44 -44 -7 0 41 36 94 62 90 25 -4 37 19 14 28 -9 3 -27 3 -40 0 -29 -7
-66 -77 -66 -123 0 -30 21 -63 40 -63 20 0 90 96 114 155 27 67 57 194 49 208
-7 11 -23 8 -27 -5z"/>
<path d="M8665 7520 c-3 -5 -1 -19 5 -31 15 -27 35 -10 25 20 -7 22 -20 27
-30 11z"/>
<path d="M2787 7446 c-57 -60 -74 -90 -81 -138 -4 -25 -20 -96 -35 -157 -15
-61 -26 -113 -23 -116 19 -19 33 5 54 95 20 85 26 100 43 100 40 1 104 39 129
77 35 53 45 127 21 153 -28 31 -72 26 -108 -14z m88 -6 c13 -21 -8 -92 -37
-125 -25 -29 -93 -65 -102 -53 -9 11 39 131 63 157 29 31 64 40 76 21z"/>
<path d="M12525 7461 c-16 -10 -39 -28 -49 -40 -11 -11 -24 -21 -31 -21 -6 0
-19 -26 -29 -57 -10 -32 -31 -85 -47 -119 -34 -70 -37 -97 -12 -92 12 2 29 34
52 93 19 49 36 84 39 77 11 -34 110 16 138 69 25 49 14 109 -20 109 -6 0 -24
-8 -41 -19z m45 -43 c0 -27 -73 -97 -100 -95 -25 2 -25 2 1 43 39 64 99 95 99
52z"/>
<path d="M14802 7410 c-23 -16 -53 -48 -68 -70 -48 -72 -13 -110 102 -110 41
0 54 4 54 15 0 11 -12 15 -49 15 -57 0 -109 16 -95 29 5 5 33 16 63 25 63 18
91 40 91 71 0 22 -28 55 -47 55 -5 0 -29 -13 -51 -30z m66 -27 c-2 -10 -24
-25 -53 -36 l-50 -18 34 35 c37 38 75 49 69 19z"/>
<path d="M15048 7423 c-20 -8 -39 -22 -42 -30 -6 -15 11 -52 45 -95 13 -16 19
-33 15 -43 -6 -18 -24 -17 -133 2 -21 3 -33 1 -33 -6 0 -17 31 -29 101 -36 60
-6 69 -5 88 14 17 17 19 25 10 48 -6 15 -21 42 -35 60 -31 41 -30 46 6 60 28
11 30 10 25 -7 -3 -10 -2 -21 3 -24 13 -8 29 13 37 47 7 25 5 27 -21 26 -16
-1 -46 -8 -66 -16z"/>
<path d="M5520 7375 c-32 -55 -112 -135 -136 -135 -8 0 -14 -9 -14 -20 0 -11
2 -20 5 -20 11 0 55 24 55 30 0 3 14 17 31 29 30 23 31 23 24 2 -9 -30 3 -61
24 -61 10 0 36 16 59 36 l42 36 0 -29 c0 -40 24 -72 41 -55 10 9 10 15 1 24
-7 7 -9 31 -5 70 3 32 2 58 -2 58 -4 0 -34 -25 -67 -56 -33 -30 -62 -53 -64
-51 -6 6 26 108 47 148 17 34 16 49 -2 49 -4 0 -22 -25 -39 -55z"/>
<path d="M5801 7411 c-19 -15 -22 -24 -18 -52 20 -109 20 -103 -9 -132 -14
-15 -31 -27 -35 -27 -5 0 -9 -7 -9 -15 0 -25 30 -17 66 19 37 37 44 75 22 136
-10 31 -9 35 15 55 15 11 27 24 27 28 0 13 -35 6 -59 -12z"/>
<path d="M7199 7415 c-28 -15 -79 -86 -79 -109 0 -27 38 -40 65 -22 32 21 32
21 39 -15 8 -43 30 -32 32 17 1 21 5 49 9 62 11 31 -12 28 -55 -8 -19 -17 -38
-30 -42 -30 -29 0 32 77 65 82 25 3 30 31 7 35 -8 1 -27 -4 -41 -12z"/>
<path d="M7545 7390 c-75 -52 -140 -160 -96 -160 5 0 31 31 59 68 45 61 94
103 107 91 2 -3 -6 -36 -20 -75 -15 -44 -21 -72 -15 -78 15 -15 23 0 50 83 24
75 21 103 -11 109 -8 1 -41 -16 -74 -38z"/>
<path d="M11462 7414 c-12 -8 -31 -32 -42 -53 -10 -21 -27 -41 -36 -45 -13 -5
-15 -9 -6 -18 7 -7 12 -22 12 -33 0 -52 88 -76 124 -34 18 22 18 22 -18 15
-83 -16 -101 23 -31 66 57 34 80 69 65 97 -13 25 -37 27 -68 5z m27 -50 c-7
-8 -21 -20 -31 -25 -18 -10 -19 -9 -7 13 15 29 43 50 47 37 2 -5 -2 -17 -9
-25z"/>
<path d="M12945 7420 c-4 -6 0 -21 8 -33 14 -21 13 -23 -11 -22 -35 0 -67 -52
-53 -87 12 -32 41 -40 80 -20 37 18 48 50 32 101 -12 43 -45 79 -56 61z m35
-98 c0 -23 -19 -42 -42 -42 -21 0 -24 30 -6 48 18 18 48 15 48 -6z"/>
<path d="M3010 7390 c-46 -50 -51 -118 -10 -140 23 -12 80 -2 87 17 8 19 -5
29 -19 15 -16 -16 -43 -15 -58 3 -8 10 -9 15 -2 15 19 0 82 61 82 79 0 21 -19
41 -38 41 -8 0 -27 -14 -42 -30z m35 -30 c-10 -11 -20 -18 -23 -15 -3 3 3 14
13 25 10 11 20 18 23 15 3 -3 -3 -14 -13 -25z"/>
<path d="M6887 7393 c-26 -27 -27 -27 -27 -5 0 13 -6 22 -15 22 -8 0 -15 -6
-15 -14 0 -8 -16 -51 -35 -97 -32 -77 -36 -99 -15 -99 4 0 22 22 40 50 17 27
44 65 60 84 l27 36 -5 -45 c-6 -57 12 -60 66 -10 l39 35 -5 -50 c-5 -56 9 -71
50 -49 14 8 18 14 10 17 -6 2 -9 9 -5 15 4 7 -1 6 -10 -2 -20 -16 -21 -10 -6
59 15 71 3 79 -52 35 l-44 -35 -5 37 c-6 46 -18 50 -53 16z"/>
<path d="M7360 7373 c-28 -63 -30 -96 -6 -101 12 -3 17 1 14 10 -3 7 3 35 13
61 11 26 19 54 19 62 0 30 -20 14 -40 -32z"/>
<path d="M8054 7394 c-9 -16 -35 -57 -58 -90 -40 -61 -41 -61 -58 -41 -13 15
-18 37 -18 84 0 47 -3 64 -12 61 -8 -3 -14 -29 -16 -71 -3 -59 0 -70 21 -91
l23 -23 -58 -69 c-78 -91 -118 -152 -118 -181 0 -32 26 -29 34 5 9 34 53 98
131 187 110 126 175 229 157 247 -7 7 -16 0 -28 -18z"/>
<path d="M8726 7399 c-24 -19 -66 -94 -66 -117 0 -7 9 -12 20 -12 15 0 20 7
20 25 0 33 1 35 27 63 25 27 60 24 49 -4 -3 -9 -9 -33 -12 -55 -5 -31 -3 -39
8 -39 20 0 42 104 28 130 -14 27 -47 31 -74 9z"/>
<path d="M10485 7385 c-79 -80 -47 -150 43 -95 l34 21 -7 -21 c-7 -21 9 -50
26 -50 5 0 9 14 9 30 0 17 6 46 14 65 22 51 3 85 -46 85 -29 0 -45 -8 -73 -35z
m95 -15 c-9 -17 -87 -70 -103 -70 -15 0 -5 21 24 55 22 25 39 35 60 35 26 0
29 -2 19 -20z"/>
<path d="M10694 7373 c-15 -27 -33 -59 -41 -72 -11 -17 -12 -26 -3 -35 8 -8
24 2 61 42 28 28 53 52 56 52 3 0 3 -22 -1 -50 -5 -40 -4 -50 8 -50 8 0 17 13
20 30 3 17 8 42 11 58 3 16 0 36 -8 47 -14 18 -16 18 -40 2 -20 -13 -25 -14
-21 -3 3 8 1 17 -5 20 -5 4 -22 -15 -37 -41z"/>
<path d="M11880 7398 c-73 -50 -102 -136 -60 -178 23 -23 55 -26 64 -7 5 9 7
9 12 0 4 -9 11 -10 25 -3 25 14 26 45 2 35 -36 -15 -64 -17 -78 -5 -44 37 26
143 95 145 33 0 33 29 0 33 -15 2 -41 -7 -60 -20z"/>
<path d="M13604 7403 c-14 -44 -38 -90 -66 -126 -21 -26 -27 -42 -20 -49 7 -7
19 0 39 23 15 18 47 54 71 79 47 49 47 49 26 -35 -9 -34 6 -32 67 11 l50 37
-22 -42 c-25 -48 -17 -64 27 -59 33 4 46 28 14 28 -12 0 -20 3 -18 8 2 4 14
28 28 55 34 67 18 78 -50 31 -48 -33 -52 -34 -47 -14 3 12 3 28 0 36 -6 17
-45 18 -62 2 -10 -11 -12 -9 -9 6 4 25 -20 33 -28 9z"/>
<path d="M12078 7383 c-33 -35 -82 -139 -74 -158 3 -8 14 -15 24 -15 15 0 18
6 15 24 -5 25 35 114 61 135 10 8 26 11 42 7 21 -6 25 -4 22 11 -6 31 -59 29
-90 -4z"/>
<path d="M13936 7379 c-15 -17 -33 -44 -42 -60 -13 -26 -13 -30 6 -49 15 -15
28 -19 43 -14 41 12 49 25 43 67 -4 23 -2 45 5 53 12 15 4 34 -16 34 -7 0 -25
-14 -39 -31z m24 -76 c0 -7 -9 -13 -20 -13 -23 0 -24 4 -9 32 9 17 13 18 20 7
5 -8 9 -20 9 -26z"/>
<path d="M3237 7378 c-35 -19 -67 -68 -67 -104 0 -24 29 -15 36 11 6 25 66 85
85 85 7 0 8 -7 4 -17 -13 -33 -18 -103 -7 -103 12 0 45 104 40 128 -5 24 -47
24 -91 0z"/>
<path d="M4923 7395 c3 -6 -23 -9 -74 -6 -67 3 -79 1 -79 -13 0 -13 13 -16 79
-16 80 0 105 11 81 33 -7 7 -10 7 -7 2z"/>
<path d="M5993 7393 c-7 -2 -31 -27 -53 -55 -57 -72 -52 -128 11 -128 34 0 84
18 75 27 -4 4 -27 6 -51 4 -34 -2 -45 1 -45 12 0 8 10 17 23 21 32 8 97 65 97
85 0 31 -26 47 -57 34z m0 -62 c-18 -15 -33 -34 -34 -42 0 -11 -2 -11 -6 -1
-6 15 44 72 61 72 6 -1 -4 -13 -21 -29z"/>
<path d="M11666 7379 c-22 -17 -25 -18 -19 -4 4 13 1 16 -13 13 -10 -2 -19 -8
-20 -13 0 -6 -4 -19 -8 -30 -30 -79 -36 -97 -31 -106 11 -17 23 -9 48 34 14
23 34 51 46 61 21 19 21 19 21 -10 0 -16 -4 -46 -9 -67 -9 -39 -1 -56 17 -34
14 16 34 130 26 150 -9 25 -31 27 -58 6z"/>
<path d="M14479 7345 c-21 -44 -70 -85 -102 -85 -27 0 -31 39 -7 72 12 16 19
32 16 35 -3 4 -6 1 -6 -7 0 -9 -3 -10 -13 -1 -11 8 -17 3 -30 -25 -17 -35 -14
-89 4 -78 5 3 9 -1 9 -9 0 -24 24 -26 67 -7 47 21 90 73 99 118 10 48 -12 40
-37 -13z"/>
<path d="M8592 7322 c-24 -64 -27 -82 -11 -82 11 0 59 101 59 125 0 35 -27 11
-48 -43z"/>
<path d="M12350 7360 c-9 -4 -27 -34 -40 -64 -14 -31 -30 -56 -37 -56 -6 0
-14 18 -18 41 -6 36 -27 60 -41 46 -8 -8 16 -90 32 -108 13 -14 8 -29 -35
-122 -55 -117 -64 -152 -41 -152 8 0 16 9 18 20 2 11 45 103 95 205 51 102 93
188 95 193 5 10 -9 8 -28 -3z"/>
<path d="M6973 7125 c-37 -16 -60 -56 -83 -145 -17 -63 -19 -66 -71 -92 -29
-16 -61 -28 -70 -28 -24 0 -34 -19 -14 -26 13 -5 50 5 119 35 9 4 4 -32 -15
-102 -9 -34 -13 -38 -37 -35 -37 4 -42 -14 -9 -32 25 -14 28 -13 48 6 13 13
29 53 40 99 10 43 20 80 23 83 3 3 22 5 41 4 19 -1 35 2 35 7 0 17 -30 33 -51
28 -19 -5 -20 -3 -14 31 8 46 42 124 58 134 7 4 22 8 35 8 17 0 22 5 20 17 -4
23 -17 25 -55 8z"/>
<path d="M7666 7096 c5 -36 0 -59 -26 -123 -18 -43 -35 -80 -39 -83 -3 -3 -6
-14 -7 -25 0 -11 -4 -35 -8 -52 -6 -26 -4 -33 8 -33 9 0 20 17 28 47 13 44 17
48 53 56 22 4 57 7 78 7 26 0 37 4 37 15 0 11 -11 15 -41 15 -24 0 -38 -4 -34
-10 5 -8 -52 -3 -63 5 -2 2 8 30 22 64 14 33 26 73 26 88 0 43 -11 73 -26 73
-10 0 -12 -11 -8 -44z"/>
<path d="M11602 7093 c-11 -27 -25 -65 -32 -85 -11 -35 -14 -38 -51 -38 -50 0
-55 -27 -5 -32 l33 -3 -42 -88 c-23 -48 -38 -90 -32 -94 15 -9 32 16 70 102
34 77 37 80 71 83 44 4 47 20 7 28 l-30 6 25 67 c38 98 38 101 21 101 -8 0
-23 -21 -35 -47z"/>
<path d="M3926 7108 c-3 -7 -10 -55 -16 -107 -11 -99 -24 -133 -62 -168 -33
-30 -62 -33 -66 -7 -5 33 25 95 48 101 26 7 26 33 1 33 -42 0 -91 -98 -77
-154 9 -35 38 -41 85 -17 72 37 92 92 114 305 2 22 -21 34 -27 14z"/>
<path d="M3685 7071 c-8 -15 3 -31 21 -31 9 0 14 7 12 17 -4 20 -24 28 -33 14z"/>
<path d="M9253 6998 c-21 -24 -45 -58 -52 -75 -11 -26 -21 -34 -50 -39 -54 -9
-63 -13 -58 -27 4 -11 25 -12 72 -2 20 4 20 1 14 -65 -6 -72 -20 -100 -49
-100 -9 0 -17 -7 -17 -15 0 -26 27 -25 58 3 26 24 32 37 36 83 8 103 6 101 67
94 33 -4 56 -3 60 3 9 15 -7 22 -63 29 l-50 6 19 37 c11 21 38 54 61 74 41 34
41 36 17 36 -17 0 -38 -14 -65 -42z"/>
<path d="M11800 7016 c0 -21 11 -25 38 -15 28 11 20 29 -14 29 -14 0 -24 -6
-24 -14z"/>
<path d="M7890 6999 c0 -25 33 -22 38 4 2 12 -3 17 -17 17 -15 0 -21 -6 -21
-21z"/>
<path d="M2952 7000 c-49 -20 -102 -197 -56 -188 11 2 17 16 19 43 5 85 52
139 101 116 32 -14 34 -14 34 4 0 29 -52 43 -98 25z"/>
<path d="M2757 6976 c-39 -36 -62 -97 -91 -235 -30 -142 -31 -151 -13 -151 8
0 23 34 38 82 21 69 28 82 47 83 50 4 123 107 124 176 1 69 -54 92 -105 45z
m71 -44 c5 -50 -55 -142 -92 -142 -11 0 -6 91 5 113 19 36 52 68 69 65 9 -2
16 -16 18 -36z"/>
<path d="M5981 6963 c-15 -52 -14 -96 3 -118 12 -17 18 -18 40 -7 25 11 25 10
-11 -46 -20 -31 -46 -73 -59 -92 -27 -43 -48 -106 -39 -120 10 -16 22 -3 36
38 13 41 30 70 141 240 43 65 73 121 68 126 -4 4 -35 -19 -69 -54 -33 -34 -66
-60 -73 -57 -14 4 -16 45 -4 95 11 48 -20 44 -33 -5z"/>
<path d="M11305 6973 c-22 -15 -48 -27 -58 -28 -13 0 -25 -15 -37 -45 -9 -25
-45 -103 -79 -174 -33 -71 -61 -133 -61 -137 0 -5 6 -9 13 -9 7 0 39 52 70
115 52 105 59 114 76 103 25 -15 84 15 125 65 23 29 30 48 30 85 1 40 -2 47
-19 50 -11 1 -38 -10 -60 -25z m39 -68 c-16 -34 -50 -65 -86 -78 -29 -10 -28
20 2 61 16 22 26 43 22 48 -4 4 -2 4 4 1 5 -3 23 3 40 14 36 24 43 7 18 -46z"/>
<path d="M5575 6959 c-68 -60 -96 -147 -54 -170 18 -9 28 -6 65 19 42 30 43
30 46 9 2 -12 12 -23 22 -25 15 -3 18 0 13 17 -3 11 6 48 19 81 23 56 24 80 4
80 -4 0 -20 -20 -34 -44 -39 -66 -126 -132 -126 -96 0 18 37 84 56 101 11 9
32 19 47 23 32 8 32 29 0 34 -13 2 -36 -10 -58 -29z"/>
<path d="M10259 6970 c-85 -45 -114 -125 -64 -175 28 -29 85 -34 105 -10 14
16 10 18 -33 15 -29 -2 -67 24 -67 44 0 7 28 25 63 41 53 25 63 34 65 59 2 16
-2 32 -10 37 -17 11 -17 11 -59 -11z m41 -28 c0 -10 -70 -45 -77 -39 -4 5 58
47 70 47 4 0 7 -4 7 -8z"/>
<path d="M10515 6973 c-16 -9 -39 -17 -49 -17 -12 -1 -30 -21 -52 -61 -55 -97
-41 -115 28 -38 70 78 89 95 94 90 3 -3 -2 -30 -11 -61 -16 -55 -14 -93 3 -82
13 8 44 130 40 157 -4 29 -16 32 -53 12z"/>
<path d="M10898 6971 c-27 -21 -88 -129 -88 -155 0 -9 6 -16 13 -16 15 0 60
65 62 91 2 31 44 72 66 65 10 -3 28 -9 39 -12 27 -8 26 11 -2 30 -30 21 -60
20 -90 -3z"/>
<path d="M3480 6954 c-6 -14 -10 -30 -10 -35 0 -20 -39 -85 -68 -112 l-30 -28
-6 33 c-3 18 -7 49 -9 68 -4 66 -22 41 -21 -31 1 -110 41 -129 104 -49 27 34
80 148 80 172 0 19 -31 6 -40 -18z"/>
<path d="M4282 6963 c-44 -22 -74 -61 -66 -87 3 -12 15 -33 25 -49 25 -35 16
-49 -26 -45 -39 3 -56 -9 -35 -22 37 -24 120 1 120 35 0 7 -11 27 -25 43 -14
17 -25 39 -25 50 0 22 55 62 84 62 9 0 16 7 16 15 0 19 -26 19 -68 -2z"/>
<path d="M5313 6923 l-54 -58 18 47 c9 26 14 50 11 54 -10 9 -42 -4 -66 -27
-18 -16 -22 -17 -22 -4 0 8 -6 15 -14 15 -15 0 -26 -21 -26 -49 0 -10 -13 -44
-28 -75 -16 -30 -27 -58 -24 -61 14 -13 30 -1 52 38 28 50 71 109 77 104 2 -2
-4 -21 -12 -42 -17 -38 -14 -65 6 -65 6 0 44 35 85 78 40 42 74 72 74 65 0 -6
-8 -31 -18 -55 -30 -68 -35 -113 -17 -132 9 -8 22 -13 30 -10 17 7 19 20 5 29
-16 10 -11 56 10 104 11 24 20 56 20 72 0 25 -4 29 -27 29 -20 0 -41 -15 -80
-57z"/>
<path d="M5837 6960 c-14 -11 -32 -20 -40 -20 -15 0 -46 -30 -31 -30 5 0 4 -4
-1 -8 -21 -15 -37 -64 -24 -76 8 -8 14 -6 23 9 18 32 106 119 112 112 4 -3 0
-28 -9 -54 -26 -84 -28 -100 -12 -113 17 -14 14 -21 39 85 20 87 20 101 0 109
-24 9 -29 8 -57 -14z"/>
<path d="M8486 6958 c-12 -18 -13 -32 -5 -68 17 -76 -24 -116 -74 -72 -11 9
-17 11 -13 5 4 -8 2 -13 -6 -13 -18 0 22 -36 49 -44 14 -5 30 1 50 18 26 22
28 30 28 93 0 60 2 68 18 65 13 -2 18 2 15 15 -5 28 -44 28 -62 1z"/>
<path d="M3160 6956 c0 -7 5 -27 11 -44 8 -22 7 -36 -1 -52 -15 -27 -98 -66
-112 -52 -13 13 14 65 49 91 23 17 25 22 14 30 -22 14 -47 -3 -77 -54 -46 -80
-12 -122 72 -90 48 18 94 65 94 96 0 28 -27 89 -39 89 -6 0 -11 -6 -11 -14z"/>
<path d="M10694 6960 c-33 -13 -93 -77 -100 -107 -11 -40 25 -65 89 -61 69 4
76 28 9 28 -73 0 -83 18 -36 69 22 25 45 41 58 41 29 0 39 10 25 27 -13 15
-16 15 -45 3z"/>
<path d="M4018 6933 c-85 -93 -76 -157 22 -165 31 -3 35 0 35 21 0 27 -21 41
-27 17 -2 -13 -7 -14 -28 -3 -29 15 -33 49 -6 53 65 9 105 48 86 84 -15 28
-52 25 -82 -7z m52 -13 c0 -9 -32 -30 -46 -30 -4 0 1 9 11 20 19 21 35 26 35
10z"/>
<path d="M8216 6905 l-45 -34 6 29 c4 24 2 30 -12 30 -12 0 -16 -6 -12 -20 3
-11 2 -18 -3 -15 -8 5 -30 -69 -30 -99 0 -29 25 -16 65 33 37 45 91 88 100 79
2 -2 0 -21 -5 -43 -5 -22 -10 -48 -10 -57 0 -20 26 -25 28 -5 0 6 6 34 12 60
7 26 9 54 6 62 -9 25 -52 17 -100 -20z"/>
<path d="M3597 6923 c-12 -22 -38 -127 -33 -139 8 -21 38 -17 35 4 -2 9 3 41
10 70 9 36 10 57 3 64 -5 5 -12 6 -15 1z"/>
<path d="M7397 6889 c-41 -47 -50 -81 -30 -109 15 -22 55 -26 97 -10 41 15 30
29 -21 27 -39 -2 -48 1 -51 16 -4 22 43 87 64 87 7 0 14 7 14 15 0 28 -39 15
-73 -26z"/>
<path d="M7980 6917 c-37 -29 -60 -71 -60 -108 0 -33 4 -40 26 -45 27 -7 70
17 85 47 12 25 26 99 18 93 -5 -3 -9 0 -9 6 0 6 -4 9 -9 5 -5 -3 -12 -1 -16 5
-8 13 -16 12 -35 -3z m32 -62 c-4 -32 -31 -65 -54 -65 -16 0 -7 48 13 74 29
37 46 34 41 -9z"/>
<path d="M9534 6920 c-38 -15 -97 -141 -76 -162 14 -14 45 9 38 27 -2 7 4 30
14 53 18 41 45 63 67 55 17 -6 28 18 12 28 -17 10 -27 10 -55 -1z"/>
<path d="M11124 6922 c-6 -4 -14 -17 -18 -30 -4 -12 -19 -36 -33 -52 -29 -35
-47 -28 -58 21 -4 17 -13 29 -22 29 -20 0 -11 -54 15 -89 18 -24 17 -26 -16
-89 -37 -70 -54 -125 -45 -150 5 -13 8 -12 20 4 7 10 13 26 13 36 0 25 55 133
98 192 19 26 43 64 54 84 18 35 14 58 -8 44z"/>
<path d="M7203 6888 c-42 -30 -85 -137 -50 -126 6 3 18 18 26 34 15 31 60 84
72 84 5 0 9 -25 11 -55 4 -81 22 -73 26 13 l3 72 -28 0 c-16 0 -43 -10 -60
-22z"/>
<path d="M11686 6857 c-28 -57 -32 -77 -16 -77 11 0 57 77 62 104 7 40 -21 24
-46 -27z"/>
<path d="M11893 6875 c-28 -28 -34 -41 -31 -67 3 -30 6 -33 38 -36 47 -4 70
16 79 65 15 78 -27 97 -86 38z m46 -61 c-14 -17 -49 -19 -49 -2 0 7 12 25 28
41 l27 29 3 -27 c2 -14 -2 -33 -9 -41z"/>
<path d="M7813 6888 c-46 -65 -66 -138 -38 -138 8 0 15 8 15 18 0 9 11 35 25
57 25 41 32 75 16 75 -5 0 -13 -6 -18 -12z"/>
<path d="M12117 6893 c-4 -3 -7 -13 -7 -20 0 -8 -11 -29 -25 -47 -27 -35 -33
-66 -12 -66 6 0 35 21 62 45 l50 45 7 -32 c7 -34 31 -58 58 -58 34 0 80 22 80
38 0 14 2 14 9 3 6 -10 10 -10 16 -1 13 21 -2 22 -54 3 -47 -16 -52 -16 -67
-1 -14 14 -15 22 -5 49 15 44 -3 55 -46 29 -32 -18 -32 -18 -38 1 -7 20 -17
24 -28 12z"/>
<path d="M7000 6875 c-19 -22 -25 -112 -10 -130 20 -24 56 -18 89 15 40 40 49
70 25 87 -24 17 -44 17 -44 -2 0 -8 5 -15 10 -15 18 0 11 -26 -13 -48 -37 -35
-50 -29 -44 21 3 23 9 52 13 65 7 25 -7 29 -26 7z"/>
<path d="M9375 6871 c-40 -23 -74 -84 -59 -108 17 -28 51 -27 79 1 19 19 25
35 25 70 0 25 -3 47 -7 49 -5 2 -21 -3 -38 -12z m15 -49 c0 -20 -36 -59 -46
-50 -8 8 24 68 36 68 6 0 10 -8 10 -18z"/>
<path d="M12960 6343 c0 -27 -21 -67 -94 -183 -62 -97 -245 -368 -287 -424
-42 -56 -81 -148 -72 -171 9 -24 27 -12 34 23 4 18 18 46 31 64 14 18 39 58
56 89 17 31 63 103 103 160 39 57 81 120 93 139 72 110 116 180 140 221 29 51
35 109 11 109 -10 0 -15 -10 -15 -27z"/>
<path d="M2507 6344 c-4 -4 -7 -32 -7 -63 0 -59 -16 -152 -51 -309 -20 -84
-20 -95 -6 -109 19 -19 40 -8 28 15 -5 10 -3 41 5 77 60 265 73 431 31 389z"/>
<path d="M2806 6318 c-2 -7 -9 -62 -15 -123 -6 -60 -22 -153 -36 -205 l-25
-95 35 -32 c58 -55 120 -39 156 41 25 55 25 110 -1 136 -22 22 -70 26 -102 9
-17 -9 -19 -8 -14 8 3 10 8 44 10 75 3 32 7 61 10 66 11 18 9 126 -2 130 -7 2
-14 -2 -16 -10z m92 -300 c30 -30 -8 -143 -51 -153 -59 -15 -84 33 -51 98 33
64 72 85 102 55z"/>
<path d="M4145 6291 c-26 -42 -55 -136 -55 -181 0 -56 -9 -68 -58 -75 -76 -11
-92 -16 -92 -32 0 -11 7 -14 23 -10 12 3 44 9 71 13 44 6 48 5 43 -12 -3 -11
-9 -35 -12 -54 -10 -49 -33 -90 -50 -90 -8 0 -15 -4 -15 -9 0 -14 28 -33 40
-26 19 12 48 80 60 141 l12 61 55 6 c59 6 68 10 59 26 -4 6 -29 8 -60 5 l-53
-5 8 66 c5 36 20 93 35 126 26 57 28 60 56 53 25 -5 29 -3 26 13 -2 12 -13 19
-35 21 -28 3 -35 -2 -58 -37z"/>
<path d="M4761 6258 c-5 -13 -21 -67 -36 -120 -27 -93 -30 -97 -60 -102 -20
-4 -32 -12 -32 -22 0 -12 7 -14 28 -10 l27 5 -15 -62 c-19 -84 -20 -99 -6
-104 15 -5 16 -4 39 100 15 67 20 77 39 77 29 0 36 9 24 31 -7 13 -6 19 1 19
7 0 10 6 7 13 -2 6 -11 11 -20 9 -17 -3 -18 -8 23 124 13 39 13 64 0 64 -6 0
-14 -10 -19 -22z"/>
<path d="M7445 6238 c-2 -7 -11 -38 -21 -68 -9 -30 -26 -79 -36 -108 l-20 -53
-46 2 c-36 3 -47 0 -47 -11 0 -10 13 -16 43 -18 40 -3 42 -4 36 -30 -4 -15
-12 -40 -20 -56 -15 -32 -11 -48 12 -39 8 3 22 32 31 64 16 59 17 59 54 59 47
0 69 8 69 26 0 10 -11 12 -45 7 -30 -4 -45 -2 -45 5 0 7 16 58 35 114 19 57
35 106 35 111 0 12 -30 8 -35 -5z"/>
<path d="M2625 6210 c-10 -16 16 -43 28 -31 11 11 2 41 -12 41 -5 0 -13 -5
-16 -10z"/>
<path d="M15311 6201 c-17 -11 -5 -51 15 -51 8 0 14 9 14 20 0 11 0 23 1 27 1
12 -15 14 -30 4z"/>
<path d="M8610 6186 c0 -8 4 -17 8 -20 13 -8 35 11 28 23 -10 16 -36 14 -36
-3z"/>
<path d="M12082 6161 c-12 -7 -12 -12 -1 -30 15 -23 39 -28 39 -8 0 23 -24 47
-38 38z"/>
<path d="M13151 6142 c-5 -10 -15 -48 -21 -85 -12 -65 -13 -67 -42 -67 -87 0
-163 -115 -109 -164 58 -52 149 53 177 205 9 46 22 91 30 100 19 21 18 29 -6
29 -10 0 -24 -8 -29 -18z m-64 -224 c-43 -73 -97 -99 -97 -46 0 30 63 88 95
88 l27 0 -25 -42z"/>
<path d="M14479 6077 c-37 -25 -124 -160 -114 -177 10 -15 25 -12 32 8 4 9 22
43 40 74 34 58 73 88 106 81 22 -6 23 23 1 31 -24 9 -28 8 -65 -17z"/>
<path d="M4478 6073 c-29 -33 -31 -61 -8 -100 l22 -37 -24 -17 c-17 -14 -20
-21 -12 -29 9 -9 18 -8 37 5 36 23 41 45 17 77 -26 36 -27 78 0 85 11 3 20 12
20 19 0 20 -34 17 -52 -3z"/>
<path d="M15036 6069 c-22 -17 -26 -28 -26 -69 0 -52 -16 -72 -51 -63 -13 4
-19 0 -19 -11 0 -24 44 -30 74 -11 28 19 29 19 30 85 1 42 3 45 36 56 19 6 36
16 38 23 6 19 -54 12 -82 -10z"/>
<path d="M2083 6067 c-12 -20 21 -32 84 -29 l65 2 -92 -76 c-116 -96 -117
-110 -5 -105 88 4 138 17 116 30 -7 5 -43 7 -80 4 l-66 -4 55 51 c30 28 74 63
97 78 38 24 56 51 36 53 -51 5 -206 2 -210 -4z"/>
<path d="M5801 6054 c-22 -28 -28 -78 -11 -89 17 -10 11 -41 -11 -61 -17 -15
-22 -16 -29 -4 -12 20 -35 -2 -27 -24 10 -25 51 -19 80 12 27 28 36 75 17 87
-27 17 6 75 43 75 9 0 17 7 17 15 0 26 -56 18 -79 -11z"/>
<path d="M7185 6068 c-33 -18 -65 -51 -65 -67 0 -8 9 -34 21 -58 26 -54 14
-76 -39 -71 -44 4 -54 -18 -17 -32 22 -8 35 -7 64 7 45 22 50 49 21 109 -25
50 -20 63 30 84 17 7 30 19 30 26 0 17 -18 18 -45 2z"/>
<path d="M7934 6061 c-38 -23 -74 -79 -74 -115 0 -39 38 -54 81 -32 40 20 37
20 41 -4 4 -27 20 -30 24 -5 2 11 6 35 9 53 9 46 -17 53 -51 13 -16 -19 -35
-31 -50 -31 -34 0 -30 23 11 68 27 29 35 33 35 19 0 -10 6 -17 13 -14 14 4 16
59 2 64 -5 1 -24 -6 -41 -16z"/>
<path d="M11825 6063 c-41 -21 -75 -54 -75 -71 0 -9 8 -24 17 -34 15 -17 15
-21 3 -29 -8 -5 -27 -12 -43 -16 -32 -7 -44 -20 -29 -35 12 -12 90 20 111 46
12 14 11 20 -9 41 -12 13 -19 28 -15 34 9 15 66 44 89 45 11 1 21 7 24 15 3 8
0 11 -7 7 -6 -4 -11 -2 -11 3 0 15 -20 13 -55 -6z"/>
<path d="M14848 6064 c-34 -18 -35 -40 -6 -71 l22 -23 -42 -17 c-23 -9 -42
-22 -42 -30 0 -17 6 -16 62 3 58 19 67 39 32 75 -26 27 -26 27 -6 38 12 6 28
11 36 11 9 0 16 7 16 15 0 19 -36 19 -72 -1z"/>
<path d="M15370 6065 c-8 -8 -30 -27 -49 -43 -30 -25 -32 -31 -22 -50 25 -47
108 -15 111 43 4 68 -8 83 -40 50z m10 -59 c0 -15 -37 -32 -48 -22 -6 6 27 35
41 36 4 0 7 -6 7 -14z"/>
<path d="M15535 6071 c-3 -5 -1 -12 5 -16 6 -4 3 -16 -10 -32 -22 -29 -27 -63
-7 -63 6 0 27 9 45 20 40 25 42 25 42 1 0 -37 12 -51 41 -51 16 0 29 5 29 13
0 8 4 7 10 -3 8 -13 10 -12 10 3 0 13 -5 17 -17 13 -35 -11 -46 8 -40 63 7 60
-8 68 -50 24 -14 -16 -20 -20 -13 -11 7 10 10 25 6 33 -6 16 -41 21 -51 6z"/>
<path d="M5543 6051 c-59 -37 -109 -164 -72 -186 16 -11 55 3 87 30 l30 25 6
-31 c9 -47 32 -31 28 19 -2 26 2 50 12 64 9 12 16 28 16 35 0 23 -29 14 -44
-14 -16 -32 -60 -75 -93 -92 -20 -10 -23 -9 -23 9 0 31 25 74 61 104 25 21 38
26 61 20 25 -5 29 -3 26 13 -5 26 -56 28 -95 4z"/>
<path d="M8940 6031 c-33 -31 -41 -45 -38 -68 4 -40 50 -43 102 -8 l39 26 -5
-68 c-3 -37 -11 -80 -17 -95 -9 -24 -16 -28 -51 -28 -30 0 -47 -7 -65 -25 -28
-27 -30 -38 -14 -83 21 -60 59 -50 110 28 30 47 35 50 74 50 26 0 48 6 55 15
14 17 9 18 -48 15 -34 -2 -34 -1 -25 32 4 18 8 78 8 132 0 110 -13 132 -41 73
-16 -34 -77 -78 -89 -65 -12 12 26 56 57 67 17 6 28 16 26 23 -9 26 -37 18
-78 -21z m50 -279 c0 -12 -57 -78 -63 -72 -15 16 -16 50 -2 64 17 16 65 22 65
8z"/>
<path d="M11599 6055 c-36 -20 -41 -39 -23 -86 15 -37 15 -41 -1 -59 -19 -21
-50 -26 -60 -10 -11 18 -25 10 -25 -15 0 -22 4 -25 39 -25 53 0 91 31 91 75 0
19 -4 37 -10 40 -31 19 3 65 49 65 12 0 21 7 21 15 0 19 -46 19 -81 0z"/>
<path d="M15217 6059 c-19 -11 -47 -60 -47 -84 0 -26 28 -16 38 14 6 16 22 37
36 46 39 26 15 48 -27 24z"/>
<path d="M3478 6050 c-56 -10 -68 -16 -68 -37 0 -10 5 -13 18 -8 33 13 102 22
127 17 28 -5 36 21 9 32 -18 7 -21 7 -86 -4z"/>
<path d="M4285 6028 c-42 -50 -61 -96 -49 -116 15 -23 50 -27 79 -8 22 15 24
14 30 -3 8 -25 31 -44 44 -36 7 4 5 15 -5 30 -13 20 -14 31 -5 56 23 65 1 82
-34 26 -21 -33 -69 -66 -81 -55 -9 10 43 96 67 108 11 6 17 15 14 21 -11 17
-33 9 -60 -23z"/>
<path d="M6044 6023 c-8 -21 -22 -55 -32 -77 -17 -36 -19 -37 -34 -22 -9 9
-20 36 -24 61 -7 47 -34 65 -34 23 1 -67 36 -138 60 -123 5 3 -12 -39 -36 -93
-47 -104 -52 -122 -31 -122 8 0 25 28 40 63 14 34 50 119 81 189 31 71 56 130
56 133 0 3 -7 5 -16 5 -8 0 -22 -17 -30 -37z"/>
<path d="M6416 6020 c-84 -78 -84 -140 0 -140 46 0 84 13 84 30 0 5 -22 6 -50
3 -40 -5 -51 -3 -56 11 -9 22 20 63 62 88 35 21 46 48 19 48 -9 0 -35 -18 -59
-40z"/>
<path d="M7548 6031 c-31 -36 -52 -86 -45 -106 9 -21 37 -7 37 19 0 37 36 81
71 86 49 8 49 30 1 30 -32 0 -45 -6 -64 -29z"/>
<path d="M8130 5974 c-22 -48 -40 -93 -40 -100 0 -27 26 -13 77 44 53 56 53
57 52 27 -1 -16 -1 -36 0 -42 2 -25 37 -13 81 27 l45 41 6 -29 c8 -40 17 -52
40 -52 22 0 26 25 4 34 -10 3 -15 19 -15 45 0 22 -5 43 -11 47 -6 3 -27 -9
-47 -28 -73 -68 -75 -68 -67 -15 7 48 3 53 -29 41 -9 -3 -13 -11 -9 -18 3 -6
2 -8 -2 -3 -5 4 -19 0 -32 -9 l-24 -15 15 30 c18 34 21 61 6 61 -6 0 -28 -39
-50 -86z"/>
<path d="M13259 6023 c-39 -40 -69 -92 -69 -117 0 -40 85 -70 131 -45 29 15
14 28 -29 22 -23 -3 -44 1 -56 10 -28 21 -9 46 54 71 61 25 81 47 64 74 -20
32 -56 26 -95 -15z m47 -19 c-30 -21 -44 -16 -17 7 13 11 27 17 30 13 3 -3 -3
-12 -13 -20z"/>
<path d="M14250 6035 c-25 -18 -37 -22 -46 -14 -10 8 -15 4 -19 -18 -6 -29
-21 -67 -86 -221 -36 -84 -41 -112 -20 -112 7 0 76 140 100 203 6 16 16 25 22
22 29 -19 130 51 150 103 23 59 -40 82 -101 37z m70 -19 c0 -38 -83 -103 -111
-85 -11 7 -5 18 33 54 47 45 78 57 78 31z"/>
<path d="M14603 6027 c-23 -17 -47 -45 -54 -61 -11 -26 -10 -31 10 -47 35 -28
61 -25 61 8 0 20 -3 24 -11 16 -6 -6 -17 -9 -25 -6 -26 10 -1 32 52 48 58 17
74 35 54 60 -19 23 -41 18 -87 -18z"/>
<path d="M6147 6043 c-3 -4 -8 -24 -12 -43 -4 -19 -20 -60 -36 -91 -26 -52
-28 -69 -9 -69 4 0 29 30 55 66 57 77 92 105 105 84 10 -17 3 -64 -16 -104
-15 -32 -6 -53 18 -43 21 7 42 126 29 160 -14 36 -49 36 -92 0 l-32 -27 8 25
c4 13 8 28 9 33 1 11 -21 19 -27 9z"/>
<path d="M10048 6020 c-115 -76 -85 -204 40 -171 25 7 42 18 42 26 0 17 -26
20 -35 5 -7 -11 -45 -13 -69 -4 -29 11 -19 63 19 101 29 29 39 34 65 28 32 -7
41 10 18 33 -18 18 -30 15 -80 -18z"/>
<path d="M13922 6020 c-23 -17 -42 -35 -42 -40 0 -6 -5 -10 -11 -10 -8 0 -8 4
1 15 12 14 6 35 -10 35 -13 0 -72 -108 -65 -120 10 -17 18 -12 78 41 l57 51 0
-31 c0 -17 4 -31 10 -31 7 0 107 43 130 57 3 2 6 -9 5 -23 0 -47 21 -36 33 17
20 84 16 86 -55 35 -27 -18 -58 -36 -70 -39 -22 -5 -22 -4 -7 24 14 28 12 49
-5 49 -4 0 -27 -14 -49 -30z"/>
<path d="M8502 5989 c-21 -50 -21 -69 -1 -69 10 0 33 47 44 93 13 49 -20 31
-43 -24z"/>
<path d="M10925 6023 c-16 -8 -37 -22 -47 -30 -11 -10 -18 -11 -23 -4 -3 6
-13 11 -21 11 -10 0 -13 -7 -8 -24 3 -14 -2 -39 -14 -62 -24 -48 -82 -192 -82
-205 0 -5 7 -9 16 -9 15 0 77 120 103 202 14 43 70 94 114 104 15 3 31 4 33 1
3 -3 -20 -32 -52 -66 -41 -45 -60 -59 -69 -51 -15 13 -25 3 -25 -27 0 -43 38
-27 107 44 86 90 96 133 30 133 -18 -1 -45 -8 -62 -17z"/>
<path d="M11132 6006 c-22 -33 -62 -126 -62 -146 0 -26 30 -6 40 28 20 63 60
126 73 113 13 -13 47 -15 47 -2 0 13 -41 41 -60 41 -8 0 -25 -15 -38 -34z"/>
<path d="M13518 6032 c-10 -4 -33 -22 -53 -40 -35 -33 -46 -79 -27 -108 19
-29 98 -48 90 -21 -3 6 -13 14 -24 16 -51 9 -59 53 -15 95 15 15 40 30 54 34
15 4 28 12 29 17 4 12 -31 17 -54 7z"/>
<path d="M7720 5990 c-40 -40 -52 -85 -32 -117 11 -17 57 -33 71 -24 13 9 0
23 -32 34 -13 5 -17 15 -15 34 3 24 7 28 31 25 55 -6 97 44 65 76 -21 21 -47
13 -88 -28z m65 0 c-3 -5 -11 -10 -16 -10 -6 0 -7 5 -4 10 3 6 11 10 16 10 6
0 7 -4 4 -10z"/>
<path d="M11335 6005 c-69 -42 -112 -132 -74 -156 8 -5 29 -9 47 -9 25 0 32 4
32 20 0 16 -5 19 -30 14 -45 -10 -37 11 15 35 25 12 54 30 65 41 24 24 26 65
4 74 -20 8 -13 10 -59 -19z m34 -31 c-7 -8 -26 -22 -43 -30 l-31 -15 33 30
c34 33 65 44 41 15z"/>
<path d="M11932 5977 c-31 -47 -32 -52 -16 -64 20 -15 34 -9 34 15 0 9 9 31
20 47 11 17 20 36 20 43 0 27 -27 8 -58 -41z"/>
<path d="M12322 6018 c-7 -7 -12 -15 -12 -20 0 -4 -13 -28 -30 -54 -16 -26
-27 -51 -24 -55 11 -18 33 -8 90 43 l59 51 5 -39 c7 -46 16 -64 35 -64 22 0
29 22 11 32 -13 7 -17 20 -15 47 4 51 -5 63 -39 50 -15 -6 -37 -20 -49 -31
-25 -23 -29 -18 -12 14 13 24 -1 44 -19 26z"/>
<path d="M13674 6011 c-43 -26 -71 -83 -58 -118 8 -23 16 -29 48 -31 70 -6
116 73 67 115 -11 9 -17 22 -14 28 8 22 -12 25 -43 6z m39 -100 c-13 -21 -67
-21 -71 0 -2 9 9 31 24 48 l27 32 15 -31 c11 -23 13 -37 5 -49z"/>
<path d="M2626 5999 c-9 -13 -16 -28 -16 -33 0 -5 -10 -20 -22 -33 -18 -19
-20 -28 -12 -41 19 -30 38 -19 54 33 8 28 19 56 24 63 16 26 -11 35 -28 11z"/>
<path d="M8707 5994 c-15 -8 -32 -12 -37 -9 -10 6 -16 -7 -39 -75 -12 -37 2
-69 18 -40 37 64 57 90 79 99 23 11 24 11 17 -16 -11 -41 -11 -58 0 -62 13 -4
46 84 39 104 -8 19 -41 19 -77 -1z"/>
<path d="M10533 5989 c-28 -18 -33 -19 -33 -5 0 36 -27 13 -38 -31 -6 -27 -14
-56 -17 -65 -13 -34 17 -18 62 32 50 56 68 64 52 23 -11 -29 -6 -53 11 -53 6
0 32 16 57 35 25 19 49 35 52 35 3 0 6 -21 6 -47 0 -34 4 -48 15 -51 12 -2 15
10 15 65 0 67 -1 68 -25 65 -14 -1 -42 -14 -62 -27 l-37 -24 6 34 c5 30 3 35
-13 35 -11 0 -34 -10 -51 -21z"/>
<path d="M12133 5993 c-45 -25 -75 -67 -71 -100 2 -23 8 -29 36 -31 38 -4 87
27 96 61 6 27 -6 79 -20 84 -5 2 -24 -5 -41 -14z m10 -89 c-22 -17 -53 -18
-53 -2 0 7 15 27 33 46 l32 33 3 -31 c2 -22 -2 -36 -15 -46z"/>
<path d="M10245 5976 c-51 -51 -44 -129 12 -134 40 -4 91 22 105 53 16 35 -6
81 -44 94 -42 15 -46 14 -73 -13z m86 -39 c13 -23 2 -44 -32 -57 -53 -22 -77
9 -44 57 18 25 62 25 76 0z"/>
<path d="M6713 5826 c0 -29 -8 -59 -26 -89 -30 -51 -33 -67 -14 -67 16 0 62
82 72 127 8 38 -1 73 -19 73 -8 0 -13 -15 -13 -44z"/>
<path d="M9429 5853 c-1 -5 0 -18 1 -31 2 -26 -21 -56 -63 -82 -23 -14 -25
-19 -14 -29 11 -8 23 -4 55 19 44 32 66 81 50 113 -9 17 -27 23 -29 10z"/>
<path d="M2642 5773 c-33 -36 -82 -124 -82 -150 0 -25 -23 -62 -42 -66 -21 -6
-19 -34 2 -29 8 2 10 -3 6 -13 -3 -9 -9 -34 -12 -56 -5 -30 -3 -39 7 -39 9 0
19 20 27 52 6 28 14 54 17 57 4 3 30 8 58 11 66 6 68 24 4 28 -48 3 -49 4 -42
30 14 57 48 121 80 152 34 33 35 33 55 15 30 -27 50 -5 21 24 -31 31 -59 26
-99 -16z"/>
<path d="M2019 5788 c0 -2 -2 -14 -5 -28 -22 -129 -21 -127 -71 -137 -55 -9
-55 -28 0 -27 44 1 46 -7 17 -91 -11 -32 -18 -60 -15 -63 14 -15 34 15 54 82
21 70 26 77 52 83 25 5 49 28 49 47 0 12 -42 5 -57 -9 -8 -9 -17 -15 -18 -13
-2 2 3 32 10 68 18 83 18 90 0 90 -8 0 -15 -1 -16 -2z"/>
<path d="M1654 5728 c3 -13 6 -29 6 -35 0 -25 28 -13 33 14 6 34 1 43 -25 43
-16 0 -19 -5 -14 -22z"/>
<path d="M2133 5588 c-60 -64 -68 -105 -27 -137 39 -31 114 -27 114 6 0 12 -8
14 -35 9 -35 -7 -75 6 -75 24 0 5 17 18 38 29 54 27 65 43 52 75 -13 34 -30
33 -67 -6z m37 -21 c0 -8 -7 -14 -15 -14 -11 0 -12 4 -4 14 6 7 13 13 15 13 2
0 4 -6 4 -13z"/>
<path d="M1725 5569 c-34 -38 -65 -94 -65 -119 0 -26 29 -6 46 32 25 56 61 98
85 98 25 0 24 -21 -2 -71 -20 -40 -22 -78 -6 -82 5 -1 15 14 22 33 7 19 19 49
25 66 7 17 10 42 6 57 -5 23 -12 27 -40 27 -27 0 -41 -8 -71 -41z"/>
<path d="M3438 5594 c-67 -21 -74 -54 -18 -87 35 -21 60 -45 60 -58 0 -13 -67
-11 -75 1 -5 8 -12 7 -22 -1 -13 -11 -13 -14 3 -26 36 -26 134 -9 134 23 0 15
-37 57 -66 75 -19 11 -34 24 -34 29 0 9 83 31 102 28 7 -2 13 4 13 12 0 20
-39 22 -97 4z"/>
<path d="M2987 5589 c-22 -13 -47 -61 -47 -92 0 -31 26 -53 71 -61 42 -7 69 0
69 20 0 10 -13 14 -44 14 -57 0 -76 20 -55 58 8 15 25 28 37 30 15 2 22 9 20
20 -4 20 -27 25 -51 11z"/>
<path d="M2344 5576 c-28 -20 -60 -104 -45 -119 8 -8 16 2 31 35 20 47 46 76
57 65 8 -8 43 11 43 23 0 15 -63 12 -86 -4z"/>
<path d="M3197 5569 c-21 -12 -47 -67 -47 -97 0 -22 26 -54 58 -71 23 -12 42
-8 42 11 0 6 -3 9 -6 5 -4 -3 -12 -1 -20 6 -7 7 -21 19 -30 27 -16 13 -15 15
12 26 40 17 66 48 62 76 -3 26 -41 35 -71 17z m43 -27 c0 -13 -23 -32 -39 -32
-11 0 -10 4 4 20 19 21 35 26 35 12z"/>
<path d="M1576 5521 c-19 -54 -18 -92 2 -99 7 -2 12 7 12 25 0 15 9 47 19 70
11 23 17 44 13 47 -15 16 -30 2 -46 -43z"/>
<path d="M2719 5547 c-47 -39 -58 -88 -23 -101 17 -7 63 10 86 31 17 15 18 14
18 -5 0 -31 11 -52 27 -52 11 0 12 9 8 38 -12 71 -15 82 -29 82 -8 0 -16 7
-20 15 -8 22 -37 18 -67 -8z m63 -29 c-6 -7 -24 -21 -41 -31 -35 -20 -43 -6
-14 25 19 21 72 26 55 6z"/>
<path d="M3615 5390 c-8 -12 20 -24 35 -15 6 3 8 11 5 16 -8 12 -32 12 -40 -1z"/>
<path d="M8150 4966 c-30 -12 -67 -26 -82 -29 -28 -7 -36 -21 -19 -31 5 -3 28
1 51 9 24 8 45 13 48 11 8 -8 -38 -196 -69 -288 -32 -91 -35 -143 -9 -143 10
0 14 8 12 24 -2 13 8 57 23 97 25 69 29 74 56 74 41 0 95 -24 108 -48 16 -29
14 -55 -9 -119 -24 -68 -24 -73 -7 -73 18 0 47 72 54 135 5 45 2 54 -21 82
-15 17 -46 38 -69 46 l-42 15 30 7 c56 15 121 53 159 95 31 34 36 47 31 68
-21 84 -132 115 -245 68z m183 -32 c65 -47 6 -120 -136 -170 -22 -8 -42 -13
-44 -10 -5 5 25 156 38 185 9 21 14 23 63 19 30 -2 64 -13 79 -24z"/>
<path d="M4333 4931 c-10 -25 -30 -60 -46 -78 -16 -18 -25 -37 -22 -44 12 -19
74 51 95 108 24 64 23 60 5 60 -8 0 -22 -20 -32 -46z"/>
<path d="M5927 4922 c-80 -12 -97 -18 -94 -31 2 -9 8 -15 13 -14 75 14 114 14
114 1 0 -8 -16 -79 -36 -158 -20 -78 -34 -156 -32 -171 4 -28 3 -29 -41 -31
-25 0 -53 -1 -61 -2 -8 -1 -16 -9 -18 -18 -3 -15 8 -16 115 -11 112 4 173 16
173 33 0 4 -31 6 -70 4 l-70 -3 0 30 c0 16 15 89 34 162 19 72 36 143 38 156
4 30 44 44 103 36 41 -5 72 6 62 22 -9 14 -123 12 -230 -5z"/>
<path d="M3445 4903 c-4 -15 -10 -99 -14 -186 -7 -171 -13 -189 -57 -160 -13
8 -34 38 -48 66 -19 42 -85 220 -102 275 -9 32 -24 -4 -24 -60 0 -33 -10 -106
-22 -161 -28 -131 -29 -180 -5 -185 14 -3 17 1 12 20 -5 21 37 243 48 254 2 3
12 -18 21 -46 41 -126 99 -210 145 -210 10 0 26 9 37 21 16 17 20 45 27 177 4
87 9 170 10 186 3 38 -19 45 -28 9z"/>
<path d="M3894 4915 c-4 -10 -1 -61 6 -115 6 -54 9 -113 5 -132 -21 -105 -74
-165 -113 -126 -30 30 6 99 63 119 37 14 37 29 0 29 -47 0 -122 -88 -108 -127
12 -35 46 -63 76 -63 43 0 81 47 103 126 16 59 16 77 5 168 -7 56 -11 108 -9
115 5 20 -21 25 -28 6z"/>
<path d="M5232 4899 c-39 -15 -130 -117 -162 -182 -60 -121 -24 -208 87 -207
60 1 183 34 183 49 0 17 -13 17 -77 0 -99 -26 -144 -24 -173 6 -43 46 -13 138
79 237 52 57 56 59 65 39 6 -14 17 -21 30 -19 17 2 22 11 24 46 3 46 -7 51
-56 31z"/>
<path d="M7301 4891 c-18 -18 -21 -33 -21 -98 l0 -78 -40 -17 c-59 -24 -90
-106 -55 -142 26 -26 61 -1 95 67 26 53 30 71 30 145 0 66 4 90 17 104 26 29
1 46 -26 19z m-53 -263 c-24 -43 -45 -51 -40 -15 3 26 30 57 49 57 11 0 9 -10
-9 -42z"/>
<path d="M5547 4893 c-2 -5 -4 -20 -5 -35 -1 -15 -22 -82 -48 -147 -25 -66
-44 -131 -42 -143 3 -22 7 -23 96 -23 50 0 92 3 92 7 0 19 -47 30 -102 24 -32
-3 -58 -2 -58 2 0 4 20 61 45 127 54 143 65 195 42 195 -9 0 -18 -3 -20 -7z"/>
<path d="M1657 4882 c-3 -4 -7 -47 -8 -96 -2 -64 0 -91 9 -94 7 -2 15 3 18 12
9 24 46 19 83 -12 32 -27 34 -30 27 -75 -5 -34 -14 -52 -31 -63 -23 -15 -27
-15 -57 3 -19 11 -35 30 -38 44 -8 40 -36 30 -32 -11 5 -64 72 -98 135 -69 33
15 48 44 54 103 4 43 1 55 -17 74 -31 33 -63 52 -93 54 -26 2 -27 5 -27 56 l0
55 38 -7 c117 -20 115 -19 110 -5 -8 25 -159 52 -171 31z"/>
<path d="M9049 4863 c-1 -5 -1 -12 0 -16 1 -5 -20 -57 -47 -115 -96 -209 -102
-247 -35 -232 21 5 73 12 116 16 72 6 77 8 77 30 0 24 -14 32 -24 15 -3 -4
-36 -11 -73 -15 -37 -4 -78 -9 -90 -12 l-22 -6 23 64 c13 34 39 95 59 134 44
86 57 144 33 144 -9 0 -17 -3 -17 -7z"/>
<path d="M8703 4710 c-36 -33 -53 -58 -53 -74 0 -13 -16 -75 -35 -136 -39
-124 -41 -140 -21 -140 16 0 47 75 66 162 11 49 15 55 25 41 11 -14 16 -15 44
-4 35 15 87 70 102 108 15 40 -21 94 -64 93 -7 0 -36 -23 -64 -50z m85 8 c21
-21 13 -54 -25 -91 -39 -40 -58 -46 -67 -21 -7 17 5 43 41 92 26 35 33 38 51
20z"/>
<path d="M6788 4708 c-51 -18 -76 -117 -35 -142 13 -8 24 -7 47 6 28 16 29 16
39 -13 6 -16 17 -29 27 -29 13 0 15 5 9 23 -11 31 -8 93 6 118 6 12 7 25 2 29
-14 13 -67 18 -95 8z m52 -41 c0 -16 -55 -77 -71 -77 -14 0 -5 56 12 77 14 17
59 17 59 0z"/>
<path d="M3592 4675 c-77 -78 -34 -188 56 -141 37 19 46 44 37 101 -4 30 -13
48 -30 59 -13 9 -26 16 -27 15 -2 0 -18 -15 -36 -34z m66 -75 c-2 -14 -13 -30
-28 -37 -21 -11 -27 -10 -37 4 -19 25 -16 41 13 70 26 26 27 26 41 7 8 -10 13
-30 11 -44z"/>
<path d="M4045 4701 c-40 -17 -60 -51 -60 -103 0 -42 4 -53 28 -74 33 -29 95
-32 132 -8 35 23 23 33 -23 21 -21 -6 -50 -7 -64 -4 -31 8 -52 53 -42 91 7 31
60 64 76 48 17 -17 1 -41 -33 -50 -18 -4 -34 -13 -37 -20 -6 -19 39 -14 76 8
37 23 43 57 14 83 -20 18 -36 20 -67 8z"/>
<path d="M6960 4690 c-6 -12 -18 -42 -25 -68 -20 -67 -4 -76 41 -23 42 49 54
43 54 -27 0 -31 4 -42 13 -39 8 2 12 24 12 60 -1 67 -20 96 -53 78 -17 -9 -19
-8 -15 8 7 27 -14 35 -27 11z"/>
<path d="M4329 4677 c-58 -29 -63 -61 -20 -119 17 -23 31 -46 31 -50 0 -14
-38 -9 -54 7 -20 20 -26 19 -26 -5 0 -26 32 -42 78 -38 50 4 52 27 8 87 -20
27 -36 55 -36 64 0 8 18 22 40 31 39 15 49 29 31 40 -4 3 -28 -5 -52 -17z"/>
<path d="M8424 4690 c-12 -4 -31 -29 -43 -55 -19 -40 -21 -52 -11 -75 16 -39
58 -54 116 -44 66 12 74 40 10 31 -25 -4 -58 -2 -73 4 l-28 11 30 15 c43 22
85 64 85 85 0 11 -11 23 -26 28 -29 12 -32 12 -60 0z m47 -44 c-5 -6 -23 -19
-39 -29 -29 -17 -30 -17 -25 3 3 11 14 27 25 35 23 16 54 9 39 -9z"/>
<path d="M1913 4533 c-18 -7 -16 -33 2 -33 8 0 15 2 15 4 0 2 3 11 6 20 6 16
0 19 -23 9z"/>
</g>
</svg>
