<?xml version="1.0" standalone="no"?>
<!DOCTYPE svg PUBLIC "-//W3C//DTD SVG 20010904//EN"
 "http://www.w3.org/TR/2001/REC-SVG-20010904/DTD/svg10.dtd">
<svg version="1.0" xmlns="http://www.w3.org/2000/svg"
 width="1618.000000pt" height="1214.000000pt" viewBox="0 0 1618.000000 1214.000000"
 preserveAspectRatio="xMidYMid meet">

<g transform="translate(0.000000,1214.000000) scale(0.100000,-0.100000)"
fill="#000000" stroke="none">
<path d="M5977 11710 c-27 -23 -39 -46 -57 -109 -16 -57 -28 -82 -41 -86 -21
-7 -25 -21 -9 -27 7 -2 6 -18 -4 -44 -8 -23 -17 -67 -21 -98 -6 -46 -5 -56 8
-56 10 0 16 16 21 51 9 67 34 141 54 155 8 6 12 16 8 23 -11 17 33 143 56 164
11 9 31 17 44 17 28 0 42 19 23 31 -25 15 -48 10 -82 -21z"/>
<path d="M6812 11666 c-6 -42 -27 -107 -47 -152 -52 -112 -86 -205 -79 -215
11 -19 22 -7 62 74 23 45 51 88 61 94 17 11 19 8 24 -33 3 -30 12 -50 25 -60
11 -8 23 -28 27 -44 9 -39 34 -52 97 -48 74 4 77 28 4 28 -51 0 -58 2 -69 27
-10 22 -9 27 3 31 8 3 34 24 59 47 37 35 43 46 37 68 -10 41 -40 34 -81 -19
-19 -26 -35 -51 -35 -55 0 -5 -7 -9 -15 -9 -17 0 -30 41 -22 73 4 12 2 29 -3
37 -8 13 -13 13 -40 -2 -16 -9 -30 -16 -30 -14 0 2 9 24 20 49 21 47 51 183
42 192 -18 17 -30 -3 -40 -69z m153 -224 l-28 -27 24 31 c13 17 26 30 28 27 3
-2 -8 -16 -24 -31z"/>
<path d="M3320 11710 c-33 -17 -120 -133 -120 -161 0 -23 32 -2 53 36 25 45
80 105 98 105 8 0 9 -14 4 -47 -12 -80 -40 -147 -117 -275 -40 -68 -74 -129
-76 -135 -7 -28 28 -11 49 25 25 41 127 172 134 172 3 0 2 -34 -2 -75 -6 -80
3 -105 39 -105 21 0 88 60 88 79 0 16 -27 13 -33 -3 -3 -8 -1 -17 6 -20 7 -3
3 -4 -9 -1 -12 3 -27 -1 -34 -10 -32 -38 -38 2 -18 111 12 70 7 85 -22 66 -29
-18 -30 -16 -8 41 29 76 49 189 36 204 -14 17 -26 16 -68 -7z"/>
<path d="M6682 11703 c-6 -15 -21 -65 -33 -111 -23 -88 -35 -102 -89 -102 -45
0 -33 -24 14 -28 24 -2 36 -8 33 -15 -27 -71 -57 -191 -49 -199 15 -15 27 10
57 119 30 108 34 113 98 113 20 0 27 5 27 20 0 18 -4 20 -41 14 -47 -8 -46
-14 -16 94 10 35 12 52 4 52 -6 0 -1 9 11 20 12 11 27 19 34 18 7 -2 13 4 13
12 0 9 -11 16 -26 18 -21 2 -28 -3 -37 -25z"/>
<path d="M3880 11698 c-2 -109 -22 -254 -40 -296 -25 -57 -52 -87 -73 -79 -16
6 -30 47 -16 47 5 0 9 6 9 13 0 7 9 31 20 52 20 40 20 72 -1 60 -6 -4 -8 -13
-5 -21 3 -8 -1 -14 -9 -14 -14 0 -29 -38 -40 -102 -6 -29 -3 -40 14 -57 27
-27 34 -27 74 9 54 47 77 114 88 254 4 67 9 127 9 134 0 6 -7 12 -15 12 -8 0
-15 -6 -15 -12z"/>
<path d="M5186 11702 c-2 -4 -9 -44 -15 -88 -13 -105 -17 -114 -52 -114 -19 0
-29 -5 -29 -15 0 -9 9 -15 25 -15 22 0 24 -3 17 -32 -10 -48 -9 -107 3 -109 6
-1 13 20 17 48 12 84 20 97 61 97 48 1 48 20 1 24 -28 3 -34 7 -30 19 6 14 21
103 29 167 2 20 -17 33 -27 18z"/>
<path d="M14290 11643 c0 -10 -8 -37 -17 -60 -13 -30 -24 -43 -38 -43 -27 0
-76 -33 -91 -62 -19 -34 -17 -88 6 -133 l20 -40 -25 -62 c-14 -35 -25 -73 -25
-84 0 -37 22 -14 45 46 36 97 34 95 70 95 22 0 48 11 77 33 35 27 44 40 46 70
4 42 -25 92 -59 102 -21 7 -20 23 7 79 8 16 14 35 14 43 0 7 5 13 11 13 5 0 7
5 4 10 -11 17 -45 11 -45 -7z m-72 -216 c-11 -34 -24 -66 -29 -71 -10 -11 -29
35 -29 68 0 34 36 75 59 69 19 -5 19 -6 -1 -66z m89 31 c36 -34 31 -72 -14
-103 -36 -24 -73 -33 -73 -17 0 4 9 32 20 62 12 30 23 61 25 68 6 17 15 15 42
-10z"/>
<path d="M12605 11642 c-5 -4 -11 -17 -11 -29 -1 -12 -11 -47 -24 -78 -18 -44
-27 -55 -45 -55 -18 0 -22 4 -18 20 4 17 0 20 -24 20 -39 0 -70 -24 -88 -67
-28 -67 -14 -135 32 -155 16 -7 29 -13 31 -13 1 -1 -14 -37 -33 -80 -37 -80
-42 -120 -15 -120 9 0 14 7 12 18 -2 11 3 33 11 50 9 18 26 57 40 88 16 36 37
64 58 79 66 45 82 81 59 132 -8 18 -4 40 19 102 33 86 31 114 -4 88z m-75
-196 c0 -19 -54 -118 -67 -123 -21 -8 -53 30 -53 64 0 48 17 63 70 63 28 0 50
-2 50 -4z m20 -70 l-21 -21 11 29 c17 45 24 53 28 32 2 -10 -6 -28 -18 -40z"/>
<path d="M13384 11640 c-31 -12 -46 -57 -34 -100 9 -32 8 -37 -30 -75 -64 -66
-52 -113 33 -122 63 -7 74 10 58 89 l-12 60 67 63 c65 61 74 85 33 85 -11 0
-19 -7 -19 -17 0 -9 -20 -36 -45 -58 l-44 -41 -11 29 c-12 36 1 57 36 57 26 0
30 10 12 28 -14 14 -15 14 -44 2z m1 -227 c6 -41 5 -43 -17 -43 -13 0 -33 6
-43 14 -18 13 -18 15 9 51 32 42 41 38 51 -22z"/>
<path d="M14866 11621 c-4 -5 1 -14 10 -19 13 -7 9 -15 -27 -45 -23 -21 -48
-37 -55 -37 -7 0 -17 14 -23 31 -15 42 -15 42 15 35 21 -6 25 -4 22 11 -4 22
-43 29 -64 13 -18 -16 -18 -44 2 -81 15 -30 14 -31 -20 -70 -38 -41 -43 -63
-25 -102 16 -35 51 -51 95 -44 76 13 86 44 42 133 l-20 41 57 56 c31 30 55 61
53 69 -5 16 -54 23 -62 9z m-50 -197 c23 -56 19 -72 -23 -80 -31 -6 -39 -3
-55 16 -25 31 -23 47 12 81 34 34 46 31 66 -17z"/>
<path d="M13175 11567 c-9 -23 -17 -53 -19 -67 -2 -14 -6 -32 -10 -40 -13 -32
-36 -116 -36 -132 0 -10 4 -18 8 -18 23 0 67 161 49 179 -8 8 -7 11 4 11 9 0
21 16 28 38 7 20 14 42 17 48 3 6 -2 14 -10 17 -10 4 -19 -6 -31 -36z"/>
<path d="M14509 11538 c0 -35 -4 -85 -9 -113 -24 -132 -24 -135 -3 -135 15 0
20 7 20 28 0 15 5 56 11 92 17 96 16 190 -3 190 -12 0 -15 -14 -16 -62z"/>
<path d="M4523 11547 c-50 -54 -66 -83 -60 -108 4 -14 -3 -21 -29 -29 -38 -13
-43 -24 -17 -38 15 -9 15 -17 -6 -102 -12 -51 -20 -103 -16 -117 12 -50 30
-14 49 99 l19 115 36 -1 c33 -1 37 2 68 63 27 51 33 74 31 110 -4 61 -24 63
-75 8z m27 -86 c-25 -57 -58 -94 -47 -52 3 14 2 30 -3 37 -7 7 2 27 27 60 33
42 38 46 41 27 2 -12 -7 -44 -18 -72z"/>
<path d="M13930 11569 c-44 -20 -100 -65 -100 -81 0 -16 26 -7 64 22 40 30
103 56 113 46 22 -22 -79 -168 -129 -185 -42 -15 -98 -58 -98 -77 0 -24 32
-16 87 22 43 30 55 34 72 24 12 -6 21 -15 21 -20 0 -17 48 -42 70 -35 25 8 27
37 2 33 -10 -2 -34 11 -54 28 l-35 30 29 35 c60 70 83 140 56 167 -17 17 -46
15 -98 -9z"/>
<path d="M4893 11541 c-39 -25 -50 -44 -54 -98 -4 -49 2 -57 30 -48 17 5 19
10 9 30 -6 13 -8 34 -5 47 7 28 55 58 92 58 36 0 27 24 -11 28 -16 1 -43 -6
-61 -17z"/>
<path d="M12740 11524 c-6 -14 -10 -37 -10 -52 0 -44 -27 -144 -41 -153 -10
-6 -10 -10 0 -23 7 -9 18 -13 23 -10 5 3 7 8 4 11 -3 3 1 11 9 19 7 7 18 46
24 86 6 40 16 86 21 102 16 48 -12 67 -30 20z"/>
<path d="M4718 11528 c-22 -19 -58 -83 -58 -104 1 -25 23 -54 42 -54 8 0 22 8
32 19 11 12 25 16 41 13 26 -5 33 6 14 25 -7 7 -5 23 7 52 12 32 14 45 5 54
-14 14 -23 4 -45 -54 -9 -26 -25 -54 -36 -64 -18 -16 -20 -16 -26 -1 -7 18 39
96 56 96 6 0 10 7 10 15 0 18 -21 19 -42 3z"/>
<path d="M5989 11532 c-27 -2 -38 -9 -42 -23 -4 -15 -1 -19 11 -15 9 3 30 7
46 10 57 10 44 33 -15 28z"/>
<path d="M7754 11513 c-82 -55 -124 -113 -124 -173 0 -30 29 -70 51 -70 40 0
90 26 104 53 8 17 13 32 11 35 -10 9 -44 -10 -49 -27 -5 -21 -56 -34 -74 -19
-35 29 12 120 87 168 27 18 50 36 50 40 0 20 -19 17 -56 -7z"/>
<path d="M8003 11500 c-46 -10 -88 -48 -114 -103 -21 -45 -22 -51 -8 -75 20
-37 59 -40 113 -8 64 37 101 119 76 165 -12 24 -28 29 -67 21z m42 -49 c9 -22
-15 -74 -46 -99 -37 -30 -84 -39 -92 -17 -9 21 25 88 58 113 28 22 72 24 80 3z"/>
<path d="M8400 11468 c-16 -18 -30 -35 -30 -39 0 -4 -9 -9 -19 -12 -15 -3 -21
-17 -26 -53 -3 -27 -11 -60 -16 -73 -7 -16 -7 -27 1 -35 15 -15 23 -2 60 91
35 90 64 125 101 121 16 -2 24 2 24 12 0 10 -12 16 -32 18 -27 3 -39 -3 -63
-30z"/>
<path d="M8777 11470 c-42 -37 -70 -102 -62 -141 9 -39 50 -69 94 -69 59 0
179 66 158 86 -3 4 -34 -8 -68 -25 -98 -49 -149 -39 -149 28 0 34 3 38 20 34
14 -4 31 6 55 30 29 29 34 39 26 59 -12 34 -34 33 -74 -2z m43 -18 c0 -9 -25
-33 -49 -47 -10 -6 -12 -4 -6 6 22 38 55 63 55 41z"/>
<path d="M8565 11465 c-28 -27 -30 -38 -14 -84 22 -63 -21 -113 -53 -61 -15
23 -38 27 -38 5 0 -25 38 -55 68 -55 54 0 77 58 52 126 -8 21 -7 31 6 45 10
11 25 19 36 19 10 0 18 7 18 15 0 24 -48 18 -75 -10z"/>
<path d="M6452 11474 c-23 -10 -1 -24 39 -24 28 0 39 4 37 13 -5 13 -54 20
-76 11z"/>
<path d="M5744 11459 c-7 -13 14 -39 32 -39 24 0 15 -21 -28 -64 -43 -43 -64
-37 -34 9 21 31 20 35 -4 35 -38 0 -53 -82 -19 -103 20 -13 78 24 109 71 19
26 22 39 14 59 -9 28 -59 50 -70 32z"/>
<path d="M8119 11428 c-18 -69 -22 -137 -9 -153 22 -26 56 -17 88 23 36 46 82
125 82 140 0 29 -29 7 -54 -40 -28 -53 -73 -108 -88 -108 -13 0 -9 61 7 114
19 61 19 66 0 66 -8 0 -19 -17 -26 -42z"/>
<path d="M3582 11438 c-12 -12 -22 -17 -22 -11 0 7 -9 11 -20 10 -15 -1 -18
-6 -14 -23 3 -12 -4 -43 -15 -69 -25 -56 -26 -65 -7 -65 7 0 27 26 44 59 31
57 58 89 67 79 3 -2 7 -22 10 -43 5 -46 24 -68 44 -55 11 6 12 12 4 22 -6 7
-13 30 -16 51 -10 68 -36 83 -75 45z"/>
<path d="M12815 11340 c-7 -12 2 -30 16 -30 5 0 9 9 9 20 0 21 -15 27 -25 10z"/>
<path d="M13543 11334 c-9 -25 13 -40 26 -16 10 19 6 32 -11 32 -5 0 -11 -7
-15 -16z"/>
<path d="M9366 11251 c-3 -5 -30 -21 -61 -35 -118 -58 -238 -211 -221 -281 16
-62 131 -132 203 -123 47 5 34 29 -19 33 -56 3 -125 40 -144 76 -18 36 -5 80
44 144 57 76 208 171 188 118 -4 -9 -1 -20 6 -25 10 -6 8 -8 -4 -8 -18 0 -26
-39 -12 -53 20 -20 84 60 84 105 0 37 -49 75 -64 49z m31 -63 c-3 -8 -6 -5 -6
6 -1 11 2 17 5 13 3 -3 4 -12 1 -19z"/>
<path d="M8067 11171 c-56 -55 -70 -81 -44 -81 15 0 117 103 117 118 0 26 -19
16 -73 -37z"/>
<path d="M3995 11205 c-3 -8 -8 -23 -11 -32 -19 -57 -107 -415 -111 -450 -4
-33 -2 -43 10 -43 9 0 16 14 20 43 7 44 109 440 121 468 5 11 2 19 -9 23 -9 3
-18 0 -20 -9z"/>
<path d="M3785 11130 c-3 -5 -5 -24 -5 -42 1 -18 -10 -77 -23 -130 -31 -122
-51 -237 -42 -246 8 -8 24 16 29 43 2 11 16 75 31 143 14 68 28 133 29 145 1
13 5 27 8 32 11 19 6 65 -8 65 -7 0 -15 -4 -19 -10z"/>
<path d="M7684 11134 c-7 -3 -9 -34 -6 -87 4 -81 4 -83 -30 -127 -28 -37 -40
-46 -71 -48 -49 -4 -50 19 -2 62 40 37 43 46 16 46 -10 0 -33 -16 -50 -35 -51
-58 -36 -109 31 -107 45 1 73 19 105 65 23 33 29 55 35 126 6 86 -1 115 -28
105z"/>
<path d="M4957 11103 c-4 -3 -7 -27 -7 -53 0 -26 -5 -61 -11 -79 -9 -27 -16
-31 -46 -31 -28 0 -44 -8 -74 -39 -44 -43 -52 -87 -21 -114 68 -62 159 56 181
235 4 40 7 76 4 81 -5 9 -17 9 -26 0z m-44 -199 c9 -10 -34 -84 -56 -96 -22
-11 -47 6 -47 32 0 36 81 85 103 64z"/>
<path d="M5142 11055 c2 -14 8 -26 13 -26 6 0 11 12 13 26 2 18 -1 25 -13 25
-12 0 -15 -7 -13 -25z"/>
<path d="M3686 11048 c9 -31 12 -34 25 -21 15 15 4 43 -16 43 -12 0 -15 -6 -9
-22z"/>
<path d="M5941 11057 c-52 -18 -60 -39 -33 -90 12 -23 22 -49 22 -59 0 -20
-51 -40 -71 -27 -21 13 -39 11 -39 -6 0 -46 105 -38 137 12 17 25 16 28 -9 73
-29 53 -24 70 22 70 32 0 41 7 33 26 -6 17 -17 17 -62 1z"/>
<path d="M10345 11047 c-50 -29 -76 -79 -73 -137 4 -62 22 -57 28 9 5 44 11
58 38 82 18 16 43 29 57 29 29 0 33 15 7 29 -13 7 -28 4 -57 -12z"/>
<path d="M6128 11049 c-39 -15 -41 -34 -7 -89 40 -65 36 -84 -19 -88 -33 -2
-42 0 -42 12 0 21 -14 20 -31 0 -11 -14 -10 -18 6 -30 22 -16 98 -19 126 -4
27 15 24 62 -7 116 -15 25 -24 47 -21 50 3 3 24 8 47 11 23 3 39 10 37 17 -5
15 -55 17 -89 5z"/>
<path d="M10513 11043 c-31 -6 -60 -45 -79 -108 -16 -50 -15 -85 3 -85 5 0 14
24 21 53 15 63 41 101 73 105 45 6 53 11 39 27 -13 15 -17 16 -57 8z"/>
<path d="M2125 11021 c-55 -26 -79 -46 -71 -59 4 -7 27 0 66 20 91 48 90 41
-15 -106 -60 -83 -43 -101 34 -36 26 22 51 40 57 40 5 0 18 -17 29 -38 25 -47
65 -54 114 -20 56 38 73 69 75 135 1 45 -2 58 -14 58 -11 0 -15 -13 -16 -52
-1 -62 -22 -97 -71 -121 -35 -17 -36 -16 -52 7 -39 57 -60 72 -81 61 -16 -9
-15 -3 10 32 16 24 31 54 32 68 3 21 -2 25 -27 28 -16 1 -48 -6 -70 -17z"/>
<path d="M7113 11021 c3 -12 -13 -46 -44 -93 -27 -40 -49 -76 -49 -80 0 -5 9
-8 20 -8 11 0 20 4 20 9 0 12 72 80 112 105 31 20 32 20 23 1 -5 -11 -10 -38
-13 -61 -4 -44 15 -71 43 -60 19 7 20 26 0 26 -21 0 -19 35 5 98 18 46 18 53
5 58 -9 4 -33 -5 -55 -20 -42 -27 -62 -34 -42 -14 7 7 12 22 12 35 0 17 -6 23
-21 23 -16 0 -20 -5 -16 -19z"/>
<path d="M8119 11025 c-38 -21 -41 -39 -18 -96 24 -62 18 -89 -20 -89 -15 0
-32 5 -39 12 -15 15 -26 4 -18 -17 9 -24 56 -38 83 -26 41 19 49 55 29 116
-21 60 -18 71 27 83 18 5 31 12 30 18 -4 15 -46 15 -74 -1z"/>
<path d="M10831 11007 c-19 -12 -43 -27 -55 -34 -21 -13 -66 -80 -66 -100 0
-19 30 -16 37 4 10 26 101 113 119 113 13 0 15 -7 9 -37 -4 -20 -13 -46 -21
-57 -18 -26 -18 -46 0 -46 17 0 56 89 56 127 0 29 -15 53 -34 53 -6 0 -26 -10
-45 -23z"/>
<path d="M11376 10983 c-14 -27 -36 -65 -49 -87 l-24 -38 -22 36 c-13 20 -26
49 -30 64 -10 35 -37 37 -32 2 4 -31 23 -68 50 -99 24 -27 24 -25 -49 -137
-57 -87 -89 -152 -96 -191 -3 -18 -1 -23 4 -15 5 8 13 13 17 12 5 -1 17 20 27
46 10 25 40 79 65 118 90 137 193 318 187 327 -11 18 -24 8 -48 -38z"/>
<path d="M7824 11010 c-11 -4 -34 -24 -52 -44 -55 -63 -39 -111 42 -130 35 -8
96 11 96 30 0 16 -26 19 -35 5 -9 -16 -105 2 -105 19 0 5 17 17 37 27 21 10
44 30 53 45 13 24 13 29 0 42 -10 9 -22 11 -36 6z m0 -45 c-4 -8 -11 -15 -16
-15 -6 0 -5 6 2 15 7 8 14 15 16 15 2 0 1 -7 -2 -15z"/>
<path d="M2593 10991 c-17 -11 -42 -34 -54 -50 -12 -17 -30 -33 -39 -36 -12
-4 -17 -19 -18 -60 -1 -48 2 -57 24 -71 29 -19 88 -15 148 10 28 11 36 20 29
27 -7 7 -28 5 -67 -6 -66 -19 -106 -14 -106 15 0 30 21 69 42 75 10 4 18 10
18 14 0 4 16 13 35 20 42 15 62 45 44 67 -15 18 -18 18 -56 -5z"/>
<path d="M7405 10997 c-8 -4 -22 -21 -30 -37 -38 -73 3 -122 71 -85 49 26 69
67 52 103 -10 21 -20 27 -46 27 -18 1 -39 -3 -47 -8z m65 -46 c0 -21 -47 -64
-64 -58 -20 6 -18 35 3 56 27 27 61 28 61 2z"/>
<path d="M10596 10989 c-53 -41 -71 -117 -31 -132 18 -8 75 11 75 25 0 5 -14
8 -32 6 -18 -2 -33 2 -35 9 -3 7 3 10 14 7 11 -3 34 9 61 31 35 31 40 40 32
56 -14 25 -51 24 -84 -2z m35 -29 c-13 -11 -28 -20 -35 -20 -6 1 0 10 13 20
13 11 28 20 35 20 6 -1 0 -10 -13 -20z"/>
<path d="M5231 10987 c-11 -14 -9 -50 4 -92 4 -14 -1 -30 -15 -48 -26 -32 -41
-34 -60 -7 -17 24 -36 26 -44 4 -4 -9 -5 -18 -4 -18 2 -1 15 -10 30 -19 41
-25 62 -21 98 19 27 31 31 42 25 68 -4 17 -7 48 -7 69 0 39 -8 46 -27 24z"/>
<path d="M5435 10987 c-25 -19 -11 -41 15 -24 20 12 28 37 12 37 -5 0 -16 -6
-27 -13z"/>
<path d="M11028 10979 c-43 -22 -58 -45 -58 -88 0 -70 55 -118 105 -91 30 16
22 34 -11 26 -34 -9 -66 26 -62 67 3 35 58 80 84 70 9 -3 14 2 14 16 0 26 -23
27 -72 0z"/>
<path d="M3202 10928 c-45 -29 -82 -56 -82 -59 0 -22 35 -11 90 27 35 24 67
44 72 44 4 0 -12 -28 -37 -62 -25 -33 -44 -66 -42 -72 8 -23 39 -16 86 18 27
20 53 36 59 36 6 0 13 -13 17 -29 9 -41 38 -65 69 -57 29 7 106 99 106 126 0
20 -23 43 -33 33 -4 -3 -7 -18 -7 -33 0 -26 -57 -100 -78 -100 -5 0 -19 23
-30 50 -12 28 -27 50 -35 50 -8 0 -33 -14 -55 -30 -50 -36 -52 -32 -11 20 32
40 37 82 9 88 -9 1 -53 -21 -98 -50z"/>
<path d="M5056 10971 c-4 -5 -4 -15 -1 -23 3 -8 -1 -42 -9 -76 -9 -40 -11 -64
-4 -68 15 -9 24 6 37 58 16 67 14 118 -3 118 -8 0 -17 -4 -20 -9z"/>
<path d="M5590 10954 c-20 -51 -1 -124 35 -138 43 -16 115 63 115 126 0 27 -4
38 -15 38 -10 0 -15 -10 -15 -34 0 -37 -41 -96 -66 -96 -23 0 -38 50 -25 84 6
16 8 33 5 37 -10 16 -24 9 -34 -17z"/>
<path d="M9886 10958 c-23 -32 -20 -62 9 -96 31 -37 62 -45 111 -29 62 22 55
38 -14 31 -56 -6 -61 -5 -77 19 -13 21 -14 30 -5 48 10 17 14 19 21 8 11 -19
34 4 26 25 -9 24 -53 20 -71 -6z"/>
<path d="M10156 10942 c-3 -21 -14 -47 -25 -56 -19 -17 -20 -17 -30 3 -6 11
-11 34 -11 51 0 25 -4 31 -17 28 -32 -6 -6 -117 30 -131 33 -13 87 60 87 117
0 41 -27 32 -34 -12z"/>
<path d="M5387 10952 c-9 -10 -23 -35 -32 -55 -14 -33 -14 -41 -1 -65 16 -32
76 -55 114 -46 39 11 26 33 -18 32 -68 -1 -91 42 -50 95 11 14 20 30 20 35 0
20 -17 22 -33 4z"/>
<path d="M9426 10939 c-28 -33 -33 -58 -14 -77 33 -33 125 9 112 52 -9 30 -34
56 -55 56 -9 0 -29 -14 -43 -31z m62 -31 c2 -9 -5 -19 -17 -23 -30 -9 -43 2
-30 26 12 23 42 21 47 -3z"/>
<path d="M3631 10928 c-5 -18 -13 -48 -16 -66 -6 -29 -4 -33 11 -30 12 2 21
15 25 38 3 19 10 47 14 63 11 41 -21 36 -34 -5z"/>
<path d="M9670 10951 c-8 -6 -24 -8 -35 -5 -16 4 -24 -5 -43 -48 -36 -86 -27
-90 45 -18 51 51 89 66 79 33 -17 -61 -17 -83 -2 -83 17 0 28 34 30 89 1 33
-2 36 -29 39 -16 1 -37 -2 -45 -7z"/>
<path d="M2072 10733 c-30 -58 -113 -359 -105 -380 8 -21 28 -10 31 18 6 39
62 241 72 258 8 13 9 12 10 -6 1 -71 35 -69 96 6 27 33 49 59 51 58 1 -2 -7
-63 -18 -135 -22 -139 -21 -162 7 -162 12 0 15 6 11 23 -4 12 5 87 18 167 17
110 20 148 12 157 -15 16 -21 11 -87 -66 l-55 -65 -6 30 c-4 16 -7 46 -8 66
-1 42 -16 57 -29 31z"/>
<path d="M6391 10728 c-5 -13 -12 -42 -15 -65 -8 -46 -20 -53 -93 -53 -33 0
-43 -4 -43 -16 0 -13 10 -15 60 -12 l59 3 -6 -75 c-5 -72 -4 -77 22 -108 25
-30 32 -33 74 -30 32 2 47 8 49 19 2 12 -7 15 -45 15 -64 -1 -79 23 -69 117
l8 67 44 0 c40 0 49 6 42 27 -2 4 -20 7 -41 6 -36 -2 -39 0 -33 20 15 61 18
107 7 107 -6 0 -15 -10 -20 -22z"/>
<path d="M4496 10722 c-3 -5 0 -26 5 -47 6 -22 8 -66 4 -104 -6 -65 -38 -151
-56 -151 -5 0 -9 -7 -9 -15 0 -28 30 -15 56 25 33 49 52 171 38 244 -9 47 -25
68 -38 48z"/>
<path d="M3107 10713 c-4 -3 -7 -19 -7 -35 0 -16 -16 -86 -36 -155 -36 -131
-41 -198 -14 -198 11 0 14 9 12 33 -2 19 6 64 17 100 23 79 47 172 55 225 5
28 4 37 -7 37 -7 0 -17 -3 -20 -7z"/>
<path d="M2696 10698 c-3 -7 -7 -55 -10 -107 -6 -114 -33 -176 -86 -204 l-35
-17 -3 31 c-4 32 20 69 44 69 19 0 28 21 13 30 -19 12 -68 -17 -79 -46 -15
-38 -12 -90 5 -104 38 -32 134 42 155 120 14 52 31 220 24 232 -8 12 -24 10
-28 -4z"/>
<path d="M7149 10688 c0 -2 -2 -28 -3 -58 -2 -30 -18 -102 -35 -160 -48 -159
-33 -187 90 -175 52 5 69 11 69 22 0 13 -11 15 -69 9 -97 -10 -100 -4 -56 154
38 135 45 210 20 210 -8 0 -15 -1 -16 -2z"/>
<path d="M5725 10580 c-3 -5 -11 -38 -16 -71 -11 -67 -25 -103 -38 -94 -5 2
-17 36 -26 75 -9 39 -21 73 -26 76 -24 14 -24 -13 -2 -93 24 -87 37 -113 54
-113 17 0 58 76 65 120 3 25 13 55 21 68 7 12 11 27 8 32 -8 13 -32 13 -40 0z"/>
<path d="M5409 10546 c-44 -30 -89 -116 -61 -116 5 0 15 -11 22 -25 7 -14 21
-25 30 -25 9 0 21 -5 27 -11 15 -15 108 -2 124 17 18 22 6 26 -46 14 -47 -11
-79 -7 -103 13 -9 7 -1 17 35 41 52 34 80 74 70 99 -9 25 -56 21 -98 -7z m61
-25 c-11 -22 -78 -66 -86 -58 -10 9 11 37 42 58 39 25 58 25 44 0z"/>
<path d="M2394 10541 c-12 -9 -30 -40 -40 -68 -17 -48 -17 -52 -1 -77 24 -37
59 -34 102 9 43 44 44 69 4 118 -35 42 -36 43 -65 18z m48 -48 c10 -9 18 -21
18 -27 0 -14 -51 -66 -66 -66 -27 0 -23 60 8 97 14 17 18 16 40 -4z"/>
<path d="M5864 10532 c-58 -43 -67 -57 -60 -96 12 -65 32 -71 158 -52 24 4 50
27 95 85 10 13 12 8 11 -28 -1 -37 3 -48 26 -68 29 -24 51 -29 61 -13 3 5 -8
16 -25 25 -33 17 -38 44 -20 120 16 69 -16 71 -66 5 -18 -25 -25 -29 -22 -15
2 12 -3 20 -11 20 -8 0 -22 -23 -33 -55 l-18 -55 -55 -3 c-50 -3 -56 -1 -64
20 -11 30 -8 34 33 42 44 8 70 38 62 71 -8 32 -24 32 -72 -3z m41 -22 c-3 -5
-11 -10 -16 -10 -6 0 -7 5 -4 10 3 6 11 10 16 10 6 0 7 -4 4 -10z"/>
<path d="M3978 10523 c-44 -48 -61 -81 -54 -108 5 -19 13 -25 34 -25 15 0 37
7 49 15 19 13 22 13 27 0 3 -8 1 -15 -5 -15 -14 0 -7 -52 7 -57 7 -2 14 11 17
29 2 18 11 59 18 90 13 55 12 57 -12 77 -33 27 -51 26 -81 -6z m47 -54 c-15
-28 -43 -49 -64 -49 -18 0 -13 14 20 59 24 34 33 40 44 31 13 -10 12 -16 0
-41z"/>
<path d="M2800 10512 c-61 -30 -94 -112 -62 -152 17 -21 27 -24 71 -22 54 2
111 25 111 43 0 7 -9 9 -22 5 -13 -4 -49 -10 -80 -13 -54 -5 -58 -4 -58 15 0
16 9 24 36 31 39 11 84 47 84 67 0 13 -27 44 -38 44 -4 0 -23 -8 -42 -18z m38
-34 c-3 -7 -20 -18 -39 -26 l-34 -14 24 26 c25 27 56 35 49 14z"/>
<path d="M4187 10504 c-20 -14 -37 -29 -37 -34 0 -6 -7 -10 -15 -10 -8 0 -21
-13 -30 -30 -35 -68 -7 -67 57 3 l48 52 -6 -46 c-4 -31 -2 -49 6 -54 6 -4 14
-5 17 -2 10 11 16 134 6 140 -5 3 -26 -5 -46 -19z"/>
<path d="M4383 10498 c-45 -49 -63 -80 -63 -109 0 -36 23 -53 62 -45 45 9 62
21 55 39 -5 14 -9 14 -37 0 -43 -21 -56 -7 -37 39 8 19 29 46 47 60 19 15 30
30 26 37 -11 17 -20 14 -53 -21z"/>
<path d="M7804 10490 c-12 -5 -29 -19 -38 -32 -9 -12 -17 -19 -17 -15 -1 4 -2
13 -3 20 0 6 -7 12 -15 12 -17 0 -25 -81 -10 -91 6 -3 5 -11 -2 -20 -6 -8 -7
-14 -2 -14 6 0 6 -25 1 -66 -6 -42 -6 -70 1 -77 15 -15 31 2 31 36 0 18 3 48
6 69 l6 36 53 -5 c45 -5 56 -2 74 16 25 25 27 61 6 100 -20 40 -47 49 -91 31z
m71 -63 c8 -24 6 -31 -10 -43 -21 -16 -63 -18 -83 -5 -11 7 -11 15 2 45 14 34
19 37 48 34 26 -2 35 -9 43 -31z"/>
<path d="M7370 10458 c-24 -39 -26 -91 -5 -108 19 -16 81 -7 106 16 22 20 24
46 7 77 -31 58 -78 65 -108 15z m80 -31 c18 -31 9 -44 -38 -53 -29 -6 -32 -4
-32 18 0 29 28 70 43 65 7 -2 19 -15 27 -30z"/>
<path d="M7563 10448 c-30 -34 -35 -58 -18 -84 30 -46 145 -17 145 36 0 23
-59 70 -87 70 -11 0 -29 -10 -40 -22z m85 -41 c17 -13 -14 -36 -50 -37 -23 0
-28 4 -28 23 0 47 30 52 78 14z"/>
<path d="M7966 10384 c-10 -26 4 -35 29 -18 14 9 22 20 19 25 -9 15 -41 10
-48 -7z"/>
<path d="M5499 10055 c-1 -3 -2 -9 -3 -14 0 -5 -14 -22 -30 -37 -45 -45 -89
-120 -134 -229 -51 -125 -69 -160 -74 -144 -3 8 -11 10 -22 6 -21 -8 -12 -27
14 -27 19 0 18 -3 -6 -67 -33 -88 -39 -113 -26 -113 15 0 31 31 62 120 28 80
37 87 112 89 36 1 54 13 44 30 -3 4 -29 4 -58 0 -28 -5 -53 -7 -55 -5 -6 6 85
215 108 249 33 48 81 97 95 97 22 0 28 23 9 37 -19 13 -34 17 -36 8z"/>
<path d="M2797 9943 c-11 -10 -8 -43 4 -43 24 0 -29 -206 -78 -305 -14 -27
-40 -66 -57 -85 -32 -36 -32 -36 -48 -15 -17 22 -37 106 -41 170 -3 60 -25 56
-88 -19 -29 -36 -55 -64 -56 -62 -1 1 23 53 53 114 61 123 73 175 38 180 -25
4 -178 -94 -169 -108 10 -16 22 -12 72 24 27 18 58 39 70 45 29 15 28 13 -48
-149 -32 -69 -60 -136 -61 -150 -5 -47 26 -32 86 40 32 38 63 70 67 70 5 0 9
-12 9 -27 0 -16 5 -46 11 -68 6 -22 10 -41 8 -42 -2 -1 7 -13 20 -27 30 -31
65 -33 89 -5 9 11 25 30 35 42 83 97 163 427 103 427 -7 0 -16 -3 -19 -7z"/>
<path d="M7697 9893 c-2 -5 -4 -20 -5 -34 -1 -14 -15 -62 -32 -107 l-31 -81
-52 -8 c-38 -6 -53 -13 -55 -26 -3 -16 1 -18 30 -13 19 3 42 8 51 11 12 5 9
-10 -14 -70 -17 -43 -28 -84 -24 -93 9 -24 21 -5 53 83 l29 80 68 5 c38 3 70
10 72 16 5 15 -46 25 -90 17 l-34 -5 34 101 c20 55 33 107 29 116 -6 16 -22
20 -29 8z"/>
<path d="M7160 9838 c-19 -79 -57 -175 -90 -230 -17 -27 -27 -54 -24 -60 4 -6
3 -8 -4 -4 -12 7 -26 -29 -17 -44 4 -7 24 5 49 28 48 44 85 67 94 58 3 -4 0
-22 -7 -42 -22 -61 10 -58 35 2 26 62 -19 97 -74 58 -12 -8 -22 -13 -22 -11 0
2 15 37 34 78 38 84 70 194 61 209 -13 21 -23 8 -35 -42z"/>
<path d="M9005 9883 c-11 -3 -24 -12 -28 -20 -7 -11 -12 -11 -23 -3 -10 9 -22
9 -46 1 -18 -7 -64 -14 -103 -17 -65 -5 -89 -16 -82 -38 2 -6 10 -12 18 -15
11 -3 12 -1 3 10 -10 12 -1 14 55 16 36 0 95 9 131 18 36 9 88 19 115 22 62 5
78 10 71 21 -6 10 -79 13 -111 5z"/>
<path d="M4127 9873 c-2 -5 -10 -30 -16 -58 -7 -27 -17 -59 -22 -70 -5 -11
-27 -85 -50 -164 -29 -100 -38 -146 -30 -154 13 -13 22 9 62 153 18 63 44 153
60 199 15 47 26 89 23 93 -6 10 -22 10 -27 1z"/>
<path d="M10990 9858 c0 -7 -9 -31 -20 -53 -35 -70 -121 -317 -118 -339 5 -34
22 -21 34 26 5 24 16 57 22 73 7 17 24 62 39 100 14 39 36 96 49 127 28 67 29
78 9 78 -8 0 -15 -6 -15 -12z"/>
<path d="M4237 9782 c-10 -37 -19 -74 -20 -82 -1 -8 -5 -17 -8 -20 -7 -5 -66
-184 -79 -237 -9 -39 9 -63 30 -39 6 9 9 20 5 25 -3 6 6 50 21 98 14 48 27 93
28 98 0 6 4 12 7 15 6 5 69 189 69 203 0 4 -8 7 -17 7 -14 0 -22 -17 -36 -68z"/>
<path d="M4956 9832 c-3 -5 -12 -42 -21 -83 -8 -42 -26 -106 -38 -145 -20 -57
-25 -65 -31 -46 -5 14 -15 22 -30 22 -32 0 -92 -48 -112 -90 -15 -30 -15 -37
-3 -60 9 -14 25 -26 40 -28 31 -4 86 33 117 78 23 35 76 192 88 265 3 22 14
48 22 58 14 16 14 19 2 27 -19 12 -27 12 -34 2z m-104 -295 c15 -12 15 -15 -4
-45 -26 -41 -74 -68 -93 -52 -19 16 -7 46 32 80 38 34 41 35 65 17z"/>
<path d="M10863 9828 c-24 -33 -123 -301 -123 -334 0 -30 23 -28 28 2 5 25 89
248 112 296 17 35 16 48 0 48 -4 0 -12 -6 -17 -12z"/>
<path d="M8916 9809 c-3 -8 -10 -32 -16 -54 -14 -49 -92 -219 -102 -223 -8 -4
-11 -32 -4 -32 2 0 11 -3 20 -6 10 -4 16 -1 16 8 0 7 16 47 36 88 20 41 47
105 59 142 20 57 21 69 9 79 -11 9 -15 8 -18 -2z"/>
<path d="M9215 9792 c-27 -5 -93 -70 -115 -112 -39 -78 -33 -152 15 -184 61
-40 191 -6 222 58 24 51 10 140 -27 178 -16 15 -36 28 -44 28 -9 0 -16 6 -16
14 0 19 -10 24 -35 18z m51 -66 c38 -11 65 -106 45 -155 -15 -35 -68 -61 -125
-61 -44 0 -66 15 -80 54 -9 26 12 94 41 132 31 41 57 47 119 30z"/>
<path d="M5570 9740 c0 -15 5 -20 18 -18 9 2 17 10 17 18 0 8 -8 16 -17 18
-13 2 -18 -3 -18 -18z"/>
<path d="M3926 9713 c-8 -19 8 -38 23 -29 16 10 13 46 -3 46 -8 0 -17 -8 -20
-17z"/>
<path d="M10242 9708 c-7 -7 -22 -13 -34 -13 -18 0 -25 -12 -46 -85 -13 -47
-26 -93 -29 -104 -4 -13 -1 -17 11 -15 10 3 27 28 41 62 33 82 74 140 94 131
9 -3 22 -8 29 -11 15 -7 16 19 0 35 -16 16 -51 15 -66 0z"/>
<path d="M2106 9681 c-9 -15 6 -71 19 -71 20 0 58 48 52 64 -7 17 -62 22 -71
7z"/>
<path d="M2848 9663 c-15 -16 -30 -40 -33 -56 -4 -15 -11 -30 -16 -32 -17 -11
32 -74 67 -85 41 -14 97 -6 114 16 18 21 6 28 -27 17 -34 -12 -88 -6 -104 13
-8 10 -2 22 30 52 40 38 47 55 35 86 -9 24 -37 19 -66 -11z m28 -39 c-10 -14
-20 -23 -23 -20 -3 3 2 17 11 32 10 14 20 23 23 20 3 -3 -2 -17 -11 -32z"/>
<path d="M10358 9670 c-41 -22 -78 -68 -78 -98 0 -27 48 -64 79 -60 33 4 40
28 9 28 -13 0 -33 6 -43 14 -18 13 -18 16 -5 41 15 28 87 71 98 60 4 -4 -5
-16 -21 -27 -28 -21 -36 -48 -14 -48 7 0 26 13 41 29 22 23 27 36 22 55 -8 32
-35 33 -88 6z"/>
<path d="M12783 9660 c-62 -46 -64 -64 -11 -132 l28 -36 -31 -11 c-48 -17 -87
-13 -106 9 -23 26 -33 25 -33 -3 0 -47 107 -64 168 -27 40 24 40 40 2 83 -36
41 -37 57 -7 85 15 15 30 19 46 15 20 -5 22 -2 19 18 -4 34 -27 34 -75 -1z"/>
<path d="M10572 9653 c-48 -31 -74 -76 -62 -107 11 -30 43 -31 77 -2 l30 25
-5 -49 c-4 -41 -2 -50 12 -50 11 0 16 9 16 29 0 16 7 48 15 71 20 57 19 87 -4
100 -28 14 -32 13 -79 -17z m58 -32 c-5 -10 -17 -21 -25 -25 -9 -3 -13 -11
-10 -16 4 -6 3 -9 -2 -8 -4 1 -18 -3 -30 -10 -20 -11 -23 -10 -23 6 0 10 10
28 23 39 47 43 87 51 67 14z"/>
<path d="M11844 9661 c-17 -10 -41 -32 -53 -47 -22 -29 -22 -29 -17 -4 3 14 1
32 -4 40 -7 12 -12 12 -34 1 -14 -8 -27 -21 -29 -30 -3 -9 -5 -3 -6 12 0 16
-6 27 -12 25 -12 -4 -79 -175 -71 -183 12 -12 23 -2 46 43 13 26 36 58 50 71
l26 24 0 -46 c0 -26 4 -47 9 -47 4 0 32 27 61 61 29 33 54 59 55 57 2 -2 0
-31 -4 -66 -9 -73 5 -106 33 -83 12 10 13 17 6 26 -6 8 -10 44 -8 86 2 42 -1
73 -7 75 -5 2 -24 -5 -41 -15z"/>
<path d="M12053 9667 c-42 -23 -74 -78 -71 -122 3 -37 7 -42 50 -63 43 -22 68
-23 68 -3 0 5 -20 16 -45 25 -59 23 -59 46 0 76 61 31 71 44 57 75 -13 28 -26
30 -59 12z m27 -32 c0 -2 -10 -10 -22 -16 -21 -11 -22 -11 -9 4 13 16 31 23
31 12z"/>
<path d="M6750 9660 c-8 -4 -29 -14 -47 -20 -29 -11 -52 -44 -40 -57 5 -4 60
30 77 47 3 3 15 6 28 8 l23 2 -20 -28 c-11 -16 -38 -50 -60 -77 -23 -27 -41
-53 -41 -58 0 -23 35 -14 84 23 49 36 56 38 56 21 0 -12 11 -28 24 -36 22 -15
27 -15 54 -1 48 25 131 143 117 166 -10 17 -35 11 -35 -7 0 -25 -68 -121 -91
-128 -26 -9 -39 2 -39 31 0 30 -21 40 -51 24 -20 -11 -20 -10 5 22 35 47 35
78 -1 77 -16 0 -35 -4 -43 -9z"/>
<path d="M11163 9633 c-10 -16 -29 -51 -42 -80 -27 -59 -41 -60 -41 -5 0 43
-27 89 -42 74 -6 -6 -6 -17 1 -30 16 -31 13 -80 -5 -90 -21 -12 -10 -32 17
-32 25 0 24 -6 -4 -44 -29 -39 -103 -168 -112 -195 -21 -67 -4 -96 21 -34 24
61 63 132 121 220 30 46 67 112 83 147 16 36 34 67 40 71 15 9 12 25 -4 25 -8
0 -23 -12 -33 -27z"/>
<path d="M5923 9630 c-59 -36 -95 -149 -57 -181 22 -18 113 -23 158 -7 48 16
63 42 19 33 -117 -23 -163 -15 -163 30 0 15 5 23 13 20 20 -8 77 33 91 67 25
58 -2 75 -61 38z m31 -33 c-5 -14 -44 -41 -50 -34 -6 5 35 47 46 47 5 0 7 -6
4 -13z"/>
<path d="M12485 9639 c-11 -7 -32 -23 -47 -36 -21 -21 -26 -22 -25 -8 3 35
-21 25 -33 -12 -7 -21 -21 -55 -31 -75 -12 -24 -15 -39 -8 -43 14 -9 35 10 81
73 37 50 100 93 114 79 4 -4 -7 -34 -24 -67 -33 -62 -38 -85 -23 -94 13 -8 83
139 79 166 -2 17 -10 24 -33 25 -16 2 -39 -2 -50 -8z"/>
<path d="M3592 9609 c-59 -29 -83 -52 -69 -65 3 -3 25 6 49 20 24 13 55 29 71
35 25 10 27 9 18 -8 -6 -10 -26 -37 -46 -61 -44 -53 -58 -77 -50 -90 9 -15 22
-12 77 15 l50 25 16 -21 17 -20 42 30 c43 31 57 60 51 102 -4 32 -22 26 -26
-8 -2 -15 -15 -40 -29 -55 -25 -26 -25 -26 -45 -6 -19 19 -19 19 -55 -2 -19
-11 -37 -19 -39 -17 -2 2 17 30 41 63 25 32 44 66 42 74 -4 26 -50 22 -115
-11z"/>
<path d="M7325 9629 c-68 -39 -88 -99 -40 -121 19 -8 31 -8 52 1 18 8 29 9 37
1 16 -16 26 -12 26 11 0 11 5 30 11 41 8 15 8 23 0 31 -9 9 -17 5 -34 -14 -41
-48 -87 -60 -87 -24 0 18 44 47 73 49 28 1 29 30 2 33 -11 2 -29 -2 -40 -8z"/>
<path d="M12203 9613 c-46 -41 -63 -73 -52 -100 10 -27 18 -28 64 -9 38 16 40
15 25 -15 -8 -13 -7 -25 0 -39 15 -27 26 -18 35 27 4 20 15 54 26 75 23 46 25
72 4 64 -9 -3 -18 1 -21 9 -9 23 -47 18 -81 -12z m65 -25 c2 -9 -12 -25 -31
-37 -63 -39 -79 -20 -25 30 34 31 51 33 56 7z"/>
<path d="M5510 9628 c0 -2 -12 -34 -26 -73 -29 -80 -33 -106 -19 -112 9 -3 75
152 75 177 0 8 -29 15 -30 8z"/>
<path d="M5724 9616 c-17 -8 -40 -25 -51 -40 -17 -21 -22 -23 -27 -10 -7 19
-26 9 -26 -14 0 -9 -7 -30 -15 -46 -37 -70 -4 -76 47 -8 46 59 86 97 95 89 8
-9 -27 -87 -40 -87 -5 0 -4 -7 3 -15 20 -24 28 -18 50 32 30 69 35 94 19 104
-18 11 -18 11 -55 -5z"/>
<path d="M5050 9607 c-13 -7 -37 -37 -54 -68 -27 -50 -29 -59 -18 -84 12 -27
14 -27 77 -22 68 6 85 12 85 28 0 15 -60 10 -66 -6 -4 -11 -11 -12 -24 -5 -9
5 -20 7 -22 4 -3 -2 -11 2 -17 10 -10 12 -7 18 16 32 49 31 73 57 73 80 0 32
-21 45 -50 31z m20 -37 c0 -5 -10 -15 -22 -21 -23 -12 -23 -12 -4 10 21 23 26
26 26 11z"/>
<path d="M3875 9549 c-12 -37 -14 -54 -6 -62 7 -7 15 -1 25 24 26 62 30 89 13
89 -10 0 -22 -19 -32 -51z"/>
<path d="M13482 9504 c-41 -24 -50 -38 -34 -47 9 -6 92 42 92 53 0 20 -19 17
-58 -6z"/>
<path d="M8684 9479 c-10 -17 44 -27 151 -30 77 -2 110 1 113 9 2 7 -2 14 -10
17 -26 9 -249 12 -254 4z"/>
<path d="M13043 9483 c-16 -6 -17 -33 -2 -33 19 0 50 21 44 31 -7 10 -22 11
-42 2z"/>
<path d="M13235 9480 c-8 -13 3 -30 20 -30 14 0 27 24 18 34 -10 9 -31 7 -38
-4z"/>
<path d="M4348 9428 c-34 -30 -53 -70 -69 -145 -12 -58 -14 -61 -51 -72 -21
-7 -38 -18 -38 -26 0 -18 14 -19 42 -4 11 6 21 9 23 7 4 -4 -14 -97 -30 -160
-6 -22 -4 -28 9 -28 16 0 26 28 47 138 8 41 16 61 24 58 15 -5 44 14 30 20
-34 15 -36 20 -25 72 12 54 43 108 72 126 13 8 23 7 39 -2 25 -16 37 -7 23 16
-17 26 -65 26 -96 0z"/>
<path d="M8293 9430 c-37 -22 -75 -90 -99 -178 l-17 -61 -69 -12 c-38 -7 -71
-16 -74 -21 -10 -16 27 -20 79 -10 29 6 53 9 54 8 1 -1 -11 -41 -28 -90 -16
-49 -27 -91 -23 -95 12 -12 42 40 60 105 9 36 22 67 28 69 50 14 50 14 26 35
-22 19 -22 19 -5 72 26 80 64 144 93 157 21 10 27 9 35 -4 7 -13 12 -14 23 -4
13 10 12 14 -2 30 -22 24 -41 24 -81 -1z"/>
<path d="M4512 9375 c-31 -28 -62 -69 -78 -103 -15 -31 -34 -65 -43 -75 -14
-17 -14 -20 0 -31 14 -9 15 -24 10 -85 -5 -57 -4 -74 6 -78 8 -3 15 -4 17 -2
4 4 16 130 16 167 0 19 5 22 36 22 38 0 44 22 8 28 -31 6 -37 18 -21 49 21 40
92 112 122 123 32 12 32 30 1 30 -14 0 -44 -18 -74 -45z"/>
<path d="M5429 9388 c0 -2 -2 -13 -3 -26 -2 -16 2 -22 13 -20 22 4 28 48 7 48
-9 0 -16 -1 -17 -2z"/>
<path d="M6722 9318 c-16 -29 -35 -68 -42 -85 -13 -36 -42 -43 -82 -22 -15 8
-23 8 -31 0 -14 -14 2 -27 53 -41 34 -9 35 -11 32 -52 -1 -24 3 -54 10 -68 15
-28 52 -38 73 -20 19 16 9 32 -15 25 -21 -7 -40 20 -40 57 0 34 15 51 44 51
33 0 34 15 1 23 -14 3 -25 7 -25 9 0 10 36 84 56 116 28 44 30 59 10 59 -8 0
-28 -24 -44 -52z"/>
<path d="M2565 9350 c-3 -5 -4 -14 -1 -19 7 -10 -20 -221 -33 -269 -6 -19 -6
-34 0 -37 14 -9 26 2 34 32 13 54 80 153 103 153 5 0 4 -22 -2 -50 -9 -43 -7
-52 9 -70 14 -15 28 -20 47 -18 19 3 28 0 28 -9 0 -21 47 -60 80 -67 35 -6 84
9 75 24 -3 5 -13 10 -21 10 -8 0 -13 -4 -10 -9 8 -12 -58 12 -78 28 -23 19
-20 35 15 72 38 41 38 84 -1 84 -20 0 -30 -10 -51 -50 -17 -34 -32 -50 -45
-50 -17 0 -19 6 -16 73 3 68 3 72 -18 72 -13 0 -40 -18 -62 -40 l-41 -40 6 30
c4 16 9 59 13 95 6 55 4 65 -9 65 -9 0 -19 -4 -22 -10z m245 -184 c0 -2 -8
-10 -17 -17 -16 -13 -17 -12 -4 4 13 16 21 21 21 13z"/>
<path d="M3924 9333 c4 -16 9 -59 13 -97 6 -65 5 -69 -13 -61 -45 19 -65 17
-90 -6 -57 -53 -72 -127 -30 -154 31 -21 61 -9 108 43 48 53 60 95 56 194 -4
89 -10 108 -35 108 -12 0 -14 -6 -9 -27z m-20 -187 l27 -14 -34 -43 c-38 -51
-87 -67 -87 -29 0 24 15 56 38 83 18 21 22 21 56 3z"/>
<path d="M2410 9311 c-5 -21 -13 -59 -16 -85 -8 -59 -29 -69 -121 -60 -60 6
-65 5 -61 -11 3 -17 13 -19 84 -19 l80 -1 -4 -77 c-4 -67 -2 -78 12 -78 13 0
16 10 16 49 0 87 9 111 40 111 16 0 30 7 34 15 4 11 -2 15 -24 15 -26 0 -30 4
-30 28 0 15 7 52 15 82 18 68 18 70 0 70 -8 0 -19 -16 -25 -39z"/>
<path d="M5410 9304 c-6 -14 -10 -29 -10 -33 0 -5 -14 -11 -31 -15 -30 -6 -32
-26 -2 -26 12 0 14 -6 9 -27 -4 -16 -10 -54 -13 -85 -5 -54 -4 -59 25 -88 34
-33 92 -43 92 -15 0 9 -9 15 -25 15 -14 0 -35 10 -46 21 -18 18 -21 30 -16 73
3 28 10 64 16 79 l11 28 73 -7 c50 -4 81 -2 97 6 32 17 11 34 -25 20 -17 -6
-32 -7 -39 -1 -13 11 -14 11 -62 11 -37 0 -38 2 -17 58 3 6 -2 12 -11 12 -9 0
-21 -12 -26 -26z"/>
<path d="M6920 9309 c0 -16 4 -19 23 -13 28 8 30 10 22 23 -12 20 -45 13 -45
-10z"/>
<path d="M9560 9304 c-89 -13 -95 -16 -87 -39 7 -16 27 -21 27 -6 0 5 39 12
88 15 139 10 174 16 169 29 -5 15 -90 16 -197 1z"/>
<path d="M4120 9280 c-11 -21 -8 -23 28 -14 12 4 22 13 22 20 0 21 -38 17 -50
-6z"/>
<path d="M9880 9291 c-16 -4 -26 -15 -28 -31 -2 -13 -15 -32 -28 -43 -54 -42
-68 -107 -32 -152 46 -59 139 -72 204 -29 99 66 128 118 104 189 -17 52 -60
75 -135 74 -33 -1 -71 -4 -85 -8z m154 -32 c30 -14 50 -65 40 -103 -6 -25 -65
-81 -111 -105 -48 -25 -135 1 -156 46 -17 38 13 90 68 114 52 23 60 43 15 37
-36 -5 -39 -1 -7 12 32 13 122 12 151 -1z"/>
<path d="M6410 9231 c-26 -27 -43 -59 -59 -112 -12 -41 -35 -114 -51 -164 -26
-85 -28 -114 -5 -97 16 11 66 122 55 122 -5 0 1 11 14 25 13 14 27 25 31 25
15 0 85 62 104 94 27 43 27 86 0 120 -28 35 -46 33 -89 -13z m80 -44 c0 -10
-7 -31 -16 -45 -19 -31 -87 -91 -79 -71 7 20 17 71 18 96 1 12 13 33 27 48 23
24 25 25 37 9 7 -10 13 -26 13 -37z"/>
<path d="M7524 9242 c-40 -32 -48 -59 -29 -107 15 -40 15 -46 0 -74 -19 -38
-66 -64 -100 -55 -27 7 -33 -4 -13 -24 45 -45 167 51 153 121 -3 15 -8 41 -11
58 -5 25 -1 36 27 65 28 29 30 34 13 34 -10 0 -29 -8 -40 -18z"/>
<path d="M4800 9223 c-33 -27 -86 -122 -91 -163 -3 -17 1 -26 14 -28 12 -2 17
3 17 18 0 46 71 160 101 160 10 0 19 6 19 14 0 26 -29 25 -60 -1z"/>
<path d="M9577 9173 c-13 -38 -32 -94 -41 -125 -21 -73 -31 -77 -150 -56 -30
5 -31 -21 -1 -32 37 -14 297 1 302 17 3 9 -17 13 -66 15 l-71 3 40 115 c45
130 45 130 26 130 -8 0 -24 -29 -39 -67z"/>
<path d="M8555 9216 c-52 -23 -120 -116 -113 -157 5 -32 22 -22 36 21 8 22 29
56 47 76 27 29 38 34 60 28 24 -6 26 -4 23 16 -4 29 -15 33 -53 16z"/>
<path d="M11351 9214 c-36 -25 -81 -104 -81 -141 0 -48 34 -67 102 -58 63 9
80 16 70 32 -5 7 -23 8 -60 2 -65 -10 -82 -4 -82 27 0 19 5 24 26 24 35 0 80
28 93 58 9 19 8 29 -4 48 -18 28 -32 30 -64 8z m39 -38 c0 -14 -36 -46 -52
-46 -14 0 -8 20 12 40 24 24 40 26 40 6z"/>
<path d="M4551 9184 c-37 -46 -44 -74 -31 -123 14 -53 47 -67 108 -47 22 7 31
36 11 36 -5 0 -8 -4 -5 -8 6 -10 -56 -8 -72 2 -25 15 -12 51 28 78 39 27 47
48 34 82 -10 27 -41 18 -73 -20z m30 -27 c-13 -12 -20 -15 -16 -7 14 26 28 41
33 35 3 -3 -5 -16 -17 -28z"/>
<path d="M6200 9185 c-5 -13 -14 -26 -21 -30 -6 -4 -20 -27 -31 -51 -20 -47
-15 -74 20 -93 44 -23 126 52 126 115 0 61 -76 108 -94 59z m60 -64 c0 -34
-40 -81 -70 -81 -26 0 -27 34 0 78 14 22 27 32 45 32 21 0 25 -5 25 -29z"/>
<path d="M7265 9189 c-16 -10 -36 -26 -42 -36 -7 -9 -23 -17 -35 -18 -17 -1
-24 -10 -29 -32 -3 -17 -16 -47 -28 -67 -12 -19 -19 -40 -16 -46 10 -16 30 4
65 64 34 60 110 129 110 99 0 -10 -9 -38 -20 -62 -24 -53 -25 -74 -4 -69 20 4
67 141 59 169 -8 23 -21 23 -60 -2z"/>
<path d="M5102 9155 c-60 -44 -75 -45 -50 -5 14 22 6 35 -16 27 -20 -8 -61
-139 -52 -163 8 -18 8 -18 19 1 17 29 105 115 118 115 6 0 8 -7 5 -16 -30 -78
-9 -131 39 -100 29 19 25 37 -5 29 -24 -7 -25 -10 1 72 12 41 17 71 11 77 -5
5 -33 -9 -70 -37z"/>
<path d="M11730 9190 c-36 -9 -90 -59 -90 -85 0 -21 35 -37 65 -29 23 6 25 3
25 -24 0 -16 -3 -43 -6 -59 -6 -28 -10 -31 -57 -36 -70 -8 -101 -42 -94 -101
8 -71 23 -96 55 -96 49 0 112 82 112 145 0 16 7 25 25 29 29 7 33 26 7 33 -16
4 -18 13 -14 66 3 34 11 74 18 89 17 34 18 78 2 77 -7 -1 -29 -5 -48 -9z m8
-52 c-15 -23 -58 -38 -58 -20 0 12 41 41 59 41 11 1 11 -3 -1 -21z m-28 -227
c0 -47 -47 -121 -76 -121 -21 0 -39 75 -26 104 16 36 102 50 102 17z"/>
<path d="M4883 9158 c-47 -51 -67 -96 -54 -125 13 -29 55 -46 93 -38 41 10 37
35 -6 29 -23 -3 -40 2 -56 16 -20 17 -21 21 -7 35 9 8 22 13 30 10 8 -4 24 9
42 34 23 34 25 43 15 56 -17 21 -22 19 -57 -17z"/>
<path d="M8354 9164 c3 -9 6 -18 6 -20 0 -3 5 -2 10 1 6 3 1 -10 -11 -30 -21
-35 -46 -55 -69 -55 -17 0 -2 41 26 71 29 30 30 39 6 39 -19 0 -72 -74 -72
-100 0 -41 51 -53 92 -20 53 41 70 130 26 130 -14 0 -18 -5 -14 -16z"/>
<path d="M7023 9149 c-107 -25 -110 -149 -4 -149 69 0 121 74 90 129 -17 30
-29 33 -86 20z m59 -58 c-6 -56 -79 -82 -106 -39 -17 28 29 70 74 66 31 -3 35
-6 32 -27z"/>
<path d="M4041 9094 c-9 -41 -10 -59 -2 -67 17 -17 28 2 36 66 5 46 4 57 -8
57 -9 0 -18 -20 -26 -56z"/>
<path d="M6861 9117 c-6 -8 -14 -28 -17 -45 -5 -25 -3 -32 9 -32 19 0 23 5 31
53 7 38 -2 48 -23 24z"/>
<path d="M11528 9099 c-21 -12 -24 -39 -4 -39 7 0 19 7 26 15 17 21 1 37 -22
24z"/>
<path d="M11906 9065 c-10 -15 -12 -26 -5 -30 12 -8 39 13 39 31 0 24 -18 24
-34 -1z"/>
<path d="M10153 9053 c-7 -2 -13 -19 -13 -36 0 -62 -52 -116 -101 -105 -8 2
-14 -4 -14 -12 0 -10 12 -16 32 -18 45 -4 101 46 109 99 4 23 12 39 20 39 17
0 18 12 2 28 -13 13 -16 13 -35 5z"/>
<path d="M2946 8625 c-3 -8 -15 -15 -26 -15 -28 0 -54 -14 -118 -63 -57 -43
-82 -80 -82 -122 0 -38 15 -62 86 -137 55 -56 64 -71 64 -103 0 -66 -43 -122
-101 -131 -69 -11 -99 45 -77 144 11 47 -18 43 -31 -5 -16 -55 -13 -84 9 -120
25 -42 54 -56 103 -50 94 13 163 154 110 226 -34 46 -63 72 -73 66 -6 -3 -10
-1 -10 6 0 7 -9 22 -20 34 -12 12 -23 38 -26 57 -5 29 -1 41 25 71 35 39 117
97 138 97 9 0 13 -14 13 -44 0 -51 14 -66 38 -42 13 12 14 19 4 28 -7 7 -12
19 -11 28 0 9 4 6 10 -8 5 -13 13 -20 19 -17 14 8 12 25 -4 57 -12 23 -12 27
1 32 8 3 11 10 8 16 -9 15 -42 12 -49 -5z"/>
<path d="M7589 8528 c-62 -60 -84 -100 -102 -189 l-13 -63 -58 3 c-51 2 -57 0
-54 -16 2 -14 11 -17 43 -15 22 1 46 -2 54 -7 20 -13 6 -77 -30 -134 -24 -38
-34 -47 -49 -42 -17 5 -20 2 -20 -24 0 -91 104 26 139 156 10 37 15 42 43 45
37 4 51 28 16 28 -45 0 -51 12 -38 76 16 77 62 150 110 173 34 16 38 16 47 2
16 -24 28 -4 17 27 -15 44 -44 39 -105 -20z"/>
<path d="M8815 8570 c-4 -6 0 -21 8 -34 44 -67 60 -291 29 -393 -22 -68 -89
-173 -132 -205 -37 -27 -39 -42 -4 -34 45 12 132 131 163 224 37 110 21 336
-30 419 -23 36 -25 38 -34 23z"/>
<path d="M8545 8517 c-113 -114 -171 -314 -134 -463 13 -50 76 -116 89 -93 5
7 -4 24 -25 43 -27 26 -34 42 -40 91 -17 136 38 306 130 398 26 26 51 47 56
47 5 0 9 7 9 15 0 29 -32 15 -85 -38z"/>
<path d="M8136 8538 c-2 -7 -9 -37 -15 -66 -6 -30 -23 -83 -37 -118 -14 -35
-34 -93 -44 -128 -15 -54 -16 -65 -4 -70 9 -4 18 10 29 46 35 119 100 115 139
-7 18 -57 33 -76 41 -53 8 20 -32 128 -56 154 l-21 23 71 46 c65 42 87 65 61
65 -17 0 -71 -29 -121 -66 -26 -19 -51 -34 -57 -34 -5 0 1 34 14 75 28 90 34
136 17 142 -7 3 -15 -1 -17 -9z"/>
<path d="M3736 8433 c-9 -60 -28 -144 -42 -187 -38 -121 -18 -144 41 -46 20
33 40 62 44 64 4 3 8 -15 9 -40 0 -42 19 -73 45 -74 11 0 9 28 -3 35 -5 3 -10
28 -10 54 0 66 -18 80 -59 45 -34 -28 -36 -28 -21 11 6 15 17 68 24 119 8 50
17 99 21 109 5 13 2 17 -13 17 -17 0 -21 -13 -36 -107z"/>
<path d="M5181 8340 c-46 -34 -47 -42 -8 -112 25 -45 17 -68 -22 -68 -42 0
-61 9 -61 31 0 23 -13 25 -30 4 -11 -13 -9 -20 9 -39 28 -30 76 -38 119 -20
26 11 32 18 32 44 0 17 -10 48 -22 69 l-22 38 29 27 c33 31 45 30 63 -7 16
-33 32 -35 32 -4 0 26 -38 67 -62 67 -8 0 -34 -14 -57 -30z"/>
<path d="M4147 8343 c-12 -12 -7 -23 10 -23 14 0 12 -5 -9 -27 -57 -63 -75
-122 -46 -151 33 -33 111 5 144 70 30 58 -8 138 -65 138 -15 0 -31 -3 -34 -7z
m71 -57 c18 -35 2 -78 -40 -107 -34 -24 -58 -19 -58 13 0 24 46 78 66 78 23 0
27 23 8 38 -12 9 -14 13 -4 10 8 -3 21 -17 28 -32z"/>
<path d="M3975 8330 c-4 -6 -10 -8 -15 -5 -13 8 -23 -12 -41 -83 -10 -39 -13
-65 -7 -68 13 -9 24 5 37 48 7 20 21 48 32 62 16 20 25 24 54 19 42 -7 48 12
9 27 -33 13 -61 13 -69 0z"/>
<path d="M4625 8331 c-3 -6 -4 -20 0 -30 3 -10 -1 -24 -10 -31 -22 -18 -45
-64 -45 -90 0 -55 89 -81 131 -39 18 18 20 28 14 63 -3 22 -7 54 -8 71 -1 21
-8 31 -22 33 -11 2 -27 11 -37 19 -11 10 -18 11 -23 4z m56 -111 c14 -48 1
-70 -41 -70 -25 0 -40 15 -40 40 0 12 50 70 60 70 5 0 15 -18 21 -40z"/>
<path d="M3503 8307 c-80 -55 -85 -148 -8 -163 19 -3 47 -3 62 1 27 7 26 8
-18 20 -60 16 -69 22 -69 47 0 23 63 88 86 88 8 0 14 7 14 15 0 21 -29 18 -67
-8z"/>
<path d="M3277 8313 c-15 -26 -47 -144 -42 -153 10 -16 23 -12 30 11 9 29 75
100 86 93 5 -2 6 -26 2 -51 -5 -37 -3 -45 8 -41 21 7 36 93 19 113 -14 17 -46
20 -55 5 -10 -16 -23 -12 -21 6 1 18 -19 31 -27 17z"/>
<path d="M3144 8283 c-8 -34 -45 -103 -55 -103 -4 0 -13 23 -20 51 -12 47 -31
70 -46 56 -3 -3 6 -40 20 -81 l25 -75 -39 -93 c-41 -99 -49 -148 -24 -148 9 0
15 9 15 23 0 28 61 173 118 280 23 43 42 87 42 98 0 29 -29 23 -36 -8z"/>
<path d="M4333 8298 c-13 -17 -53 -125 -53 -143 0 -8 7 -15 15 -15 8 0 15 3
15 8 0 11 79 104 102 121 20 14 21 13 14 -52 -7 -62 4 -114 22 -103 4 2 7 46
7 98 0 87 -1 93 -21 96 -12 2 -35 -9 -53 -24 l-32 -27 7 27 c7 27 -6 35 -23
14z"/>
<path d="M4936 8302 c-3 -5 -1 -23 5 -40 13 -39 -9 -85 -51 -107 -43 -22 -53
-12 -46 49 3 28 7 60 9 71 1 12 -4 20 -12 20 -19 0 -44 -107 -32 -138 21 -54
64 -59 119 -12 41 34 56 75 45 121 -8 37 -26 54 -37 36z"/>
<path d="M7842 8294 c-35 -24 -82 -94 -82 -121 0 -38 25 -26 45 23 22 54 57
84 86 77 17 -5 20 -2 17 13 -4 25 -37 29 -66 8z"/>
<path d="M7642 8282 c-12 -12 -28 -38 -37 -58 -12 -30 -13 -41 -2 -63 17 -34
53 -31 90 9 34 38 34 62 -1 101 l-29 32 -21 -21z m38 -43 c9 -16 8 -26 -5 -45
-20 -31 -45 -31 -45 -1 0 20 25 67 35 67 2 0 9 -9 15 -21z"/>
<path d="M5767 8183 c-4 -3 -7 -24 -7 -46 0 -34 -7 -47 -50 -90 -27 -27 -50
-54 -50 -58 0 -41 115 69 131 124 7 25 7 43 -1 57 -12 22 -14 23 -23 13z"/>
<path d="M9064 8167 c-3 -8 -5 -21 -3 -28 4 -34 -3 -52 -37 -89 -30 -33 -33
-41 -20 -46 35 -13 98 84 92 141 -3 32 -23 45 -32 22z"/>
<path d="M9331 7689 c-11 -18 -26 -58 -32 -88 -6 -30 -38 -114 -71 -186 -33
-73 -62 -151 -65 -179 l-6 -49 39 9 c21 5 59 9 84 10 63 2 64 2 49 20 -11 13
-26 15 -76 11 -42 -4 -63 -3 -63 5 0 5 27 72 61 147 34 75 70 169 80 210 11
41 24 80 31 88 8 10 8 17 0 25 -8 8 -16 1 -31 -23z"/>
<path d="M8521 7658 c-5 -13 -12 -39 -16 -58 -13 -63 -47 -131 -64 -126 -58
17 -71 18 -71 2 0 -9 15 -19 40 -26 l40 -11 -15 -36 c-36 -86 -7 -183 56 -183
19 0 29 5 29 15 0 9 -9 15 -25 15 -46 0 -59 67 -29 151 l17 46 70 9 c45 6 72
14 75 23 4 12 -7 13 -62 7 -36 -3 -66 -4 -66 -1 0 2 11 38 25 79 27 80 31 116
15 116 -6 0 -14 -10 -19 -22z"/>
<path d="M2833 7648 c-6 -10 -58 -13 -202 -13 -141 0 -195 -3 -198 -12 -3 -9
35 -12 149 -12 84 -1 175 -4 201 -7 48 -7 49 -7 44 -38 -2 -17 -24 -86 -48
-154 -32 -91 -41 -127 -33 -139 12 -20 30 -14 26 10 -1 10 18 74 43 143 25 68
45 137 45 152 l0 29 87 7 c117 10 143 16 143 33 0 11 -9 13 -37 9 -102 -15
-173 -18 -173 -7 0 15 -37 14 -47 -1z"/>
<path d="M4022 7644 c-5 -10 -3 -47 5 -92 27 -156 10 -246 -56 -285 -46 -27
-61 -22 -61 18 0 42 32 75 71 75 33 0 44 13 24 30 -17 14 -48 6 -88 -22 -39
-28 -50 -61 -37 -109 10 -35 14 -39 44 -39 81 0 150 94 149 204 0 34 -6 87
-13 120 -9 43 -9 60 -1 66 14 8 5 36 -15 44 -7 3 -17 -2 -22 -10z"/>
<path d="M7495 7624 c-33 -7 -69 -12 -80 -9 -29 6 -58 -19 -50 -44 9 -30 -82
-302 -108 -323 -30 -23 -11 -43 27 -28 15 5 53 10 85 10 89 0 151 11 151 26 0
11 -20 13 -107 7 -89 -5 -106 -4 -101 8 3 8 13 39 23 69 9 30 21 59 26 64 4 5
35 8 69 7 60 -1 100 10 100 29 0 6 -7 10 -16 10 -8 0 -13 -3 -11 -7 3 -5 -26
-7 -64 -5 -78 4 -74 -4 -44 95 l12 42 84 17 c46 9 97 17 112 18 41 0 29 25
-14 27 -19 1 -61 -5 -94 -13z"/>
<path d="M3042 7603 c-5 -10 -13 -40 -17 -68 -7 -53 -46 -179 -65 -216 -9 -16
-9 -24 -1 -32 9 -9 18 -4 36 18 13 17 22 36 20 43 -2 6 1 12 7 12 6 0 28 16
49 35 22 19 44 35 49 35 15 0 12 -57 -6 -91 -8 -17 -14 -40 -12 -51 6 -45 24
-25 46 52 18 61 20 84 12 100 -17 32 -60 26 -102 -15 l-36 -35 18 69 c26 99
35 161 21 161 -5 0 -14 -8 -19 -17z"/>
<path d="M3330 7442 c-32 -28 -47 -52 -61 -97 -12 -38 -15 -63 -9 -69 14 -14
24 1 39 52 15 55 71 118 112 126 37 7 29 26 -10 26 -19 0 -43 -13 -71 -38z"/>
<path d="M10000 7444 c-14 -10 -42 -33 -63 -53 -37 -35 -39 -35 -35 -11 2 16
-2 25 -11 25 -9 0 -21 -31 -36 -90 -13 -49 -37 -128 -54 -175 -35 -94 -37
-110 -18 -110 8 0 30 43 52 102 21 56 41 96 43 89 8 -23 51 -32 85 -17 34 14
117 94 129 124 13 33 8 100 -8 116 -20 21 -53 20 -84 0z m68 -60 c3 -36 -2
-46 -43 -91 -47 -53 -103 -83 -110 -60 -20 68 -4 105 74 165 56 42 75 39 79
-14z"/>
<path d="M4243 7433 c-65 -12 -70 -104 -11 -170 23 -25 17 -43 -16 -43 -28 0
-50 24 -42 45 3 9 2 13 -4 10 -6 -3 -10 0 -10 7 0 23 -20 -15 -20 -39 0 -47
90 -72 123 -35 24 26 21 44 -13 88 -38 47 -37 83 3 102 22 11 31 11 43 1 23
-19 40 4 19 25 -16 16 -29 17 -72 9z"/>
<path d="M7632 7377 c6 -72 43 -162 67 -162 21 0 50 44 75 116 l23 64 52 9
c34 7 51 15 51 24 0 12 -10 14 -51 9 -62 -8 -82 -24 -99 -80 -16 -54 -38 -97
-49 -97 -13 0 -32 61 -40 123 -3 30 -12 52 -20 55 -11 4 -13 -8 -9 -61z"/>
<path d="M3493 7414 c-39 -17 -63 -60 -63 -113 0 -46 18 -61 74 -61 42 0 66 8
66 24 0 7 -20 11 -52 11 -42 0 -53 4 -56 17 -2 12 8 22 32 32 39 16 69 56 64
83 -4 23 -25 25 -65 7z m13 -50 c-30 -21 -44 -16 -17 7 13 11 27 17 30 13 3
-3 -3 -12 -13 -20z"/>
<path d="M7935 7379 c-72 -67 -81 -146 -19 -169 30 -12 84 -4 110 14 22 16 9
39 -14 27 -42 -21 -72 -21 -92 -1 -27 27 -18 43 41 70 53 25 72 58 49 85 -18
22 -26 19 -75 -26z m55 -4 c0 -2 -10 -9 -22 -15 -22 -11 -22 -10 -4 4 21 17
26 19 26 11z"/>
<path d="M3684 7400 c-27 -11 -64 -70 -64 -103 0 -37 27 -49 69 -31 19 8 34
13 35 12 9 -25 28 -44 46 -46 22 -4 22 -4 4 27 -17 29 -17 32 -1 66 21 44 21
55 2 55 -9 0 -21 -11 -27 -25 -11 -25 -65 -65 -87 -65 -19 0 -12 28 15 57 17
19 27 24 31 16 8 -20 33 -15 33 7 0 25 -29 40 -56 30z"/>
<path d="M8133 7388 c-11 -15 -53 -125 -53 -139 0 -20 21 -7 70 44 29 28 49
44 46 34 -3 -10 -9 -36 -12 -57 -10 -59 27 -86 77 -59 28 15 13 31 -22 24 -29
-7 -30 -6 -27 34 2 23 6 41 9 41 9 0 29 72 23 82 -10 16 -31 8 -64 -27 -39
-40 -50 -44 -43 -15 3 11 9 20 14 20 5 0 9 7 9 15 0 18 -14 20 -27 3z"/>
<path d="M9502 7384 c-23 -9 -39 -26 -53 -58 -24 -54 -17 -93 18 -107 41 -15
46 -10 19 22 -25 29 -25 32 -11 67 19 44 19 44 50 47 30 4 55 -27 48 -56 -3
-11 -21 -30 -40 -43 -27 -19 -31 -25 -20 -34 10 -9 21 -6 45 11 61 42 63 120
5 151 -24 12 -33 12 -61 0z"/>
<path d="M9683 7376 c-100 -84 -62 -206 46 -145 23 13 47 36 56 56 15 31 15
36 -2 71 -23 47 -58 54 -100 18z m75 -49 c4 -33 -10 -52 -51 -74 -26 -13 -31
-13 -44 0 -13 13 -13 18 1 45 35 68 88 84 94 29z"/>
<path d="M6207 7253 c-4 -3 -7 -19 -7 -33 0 -20 -13 -39 -45 -69 -45 -42 -65
-51 -65 -29 0 8 -6 6 -17 -4 -13 -14 -14 -20 -3 -32 7 -9 18 -16 25 -16 22 0
109 75 124 106 7 16 17 37 23 47 14 28 -14 52 -35 30z"/>
<path d="M14299 6753 c-16 -38 -44 -101 -61 -142 l-31 -74 -68 6 c-55 5 -69 3
-69 -8 0 -8 15 -17 38 -20 83 -15 81 -11 52 -85 -23 -59 -25 -80 -7 -80 6 0
25 36 40 79 27 78 28 79 71 90 24 6 49 18 57 27 13 16 11 17 -28 11 -24 -4
-43 -5 -43 -2 0 7 41 106 75 179 14 30 25 62 25 70 0 35 -21 13 -51 -51z"/>
<path d="M11337 6778 c-9 -58 -53 -231 -77 -302 -25 -71 -32 -139 -15 -144 5
-2 14 23 21 55 7 32 19 76 28 98 8 22 27 85 40 140 13 55 26 107 29 115 18 51
17 70 -2 70 -14 0 -20 -9 -24 -32z"/>
<path d="M4420 6785 c0 -8 -13 -43 -29 -78 -78 -171 -126 -412 -81 -412 11 0
14 9 12 36 -6 66 51 269 109 393 16 33 26 63 23 68 -9 14 -34 9 -34 -7z"/>
<path d="M10929 6778 c0 -1 -2 -34 -3 -73 -4 -89 -41 -188 -98 -260 -49 -63
-104 -98 -117 -76 -10 15 3 54 26 82 7 8 13 20 13 25 0 10 47 34 68 34 21 0 8
25 -14 28 -29 4 -87 -50 -114 -108 -19 -41 -21 -54 -12 -75 33 -73 156 14 231
162 44 88 65 250 34 261 -7 2 -13 2 -14 0z"/>
<path d="M4254 6755 c-4 -8 -4 -22 0 -30 3 -8 1 -15 -3 -15 -5 0 -15 -24 -21
-52 -7 -29 -25 -94 -41 -145 -34 -105 -41 -168 -20 -168 8 0 15 14 17 35 3 19
11 55 19 80 34 102 84 294 79 302 -8 13 -24 9 -30 -7z"/>
<path d="M9440 6740 c0 -12 -10 -39 -21 -62 -12 -23 -27 -58 -34 -77 -8 -24
-20 -37 -36 -41 -28 -7 -33 -37 -6 -32 18 3 18 -5 1 -69 -8 -28 14 -113 32
-126 24 -17 58 -16 96 3 43 22 23 41 -25 23 -53 -19 -67 -3 -67 75 0 33 4 66
8 73 5 8 41 13 97 15 69 2 90 6 90 17 0 11 -18 14 -88 12 -102 -3 -100 -7 -46
103 32 65 37 106 14 106 -8 0 -15 -9 -15 -20z"/>
<path d="M13016 6738 c-3 -7 -12 -38 -22 -68 -9 -30 -25 -79 -36 -107 l-19
-53 -61 0 c-73 0 -77 -23 -5 -28 26 -2 47 -5 47 -6 0 -2 -11 -34 -25 -70 -30
-78 -30 -78 -9 -74 9 2 27 33 43 73 l27 70 42 -3 c53 -4 60 22 9 32 l-34 6 34
96 c18 53 33 104 33 114 0 23 -19 36 -24 18z"/>
<path d="M13872 6718 c-12 -41 -61 -170 -101 -267 -34 -81 -39 -111 -16 -111
8 0 15 7 15 16 0 9 18 59 41 112 22 54 54 134 69 179 24 68 26 84 15 93 -11 9
-16 5 -23 -22z"/>
<path d="M7619 6738 c0 -1 -2 -25 -4 -53 -1 -27 -21 -104 -44 -171 -46 -135
-47 -144 -26 -144 8 0 15 6 15 14 0 12 25 48 75 109 22 25 30 21 48 -24 9 -24
24 -43 36 -46 11 -3 23 -14 26 -24 17 -51 94 -80 165 -62 62 16 47 32 -29 31
-110 -2 -135 37 -57 87 54 34 77 78 53 102 -15 15 -19 14 -51 -8 -19 -13 -45
-40 -58 -61 -13 -21 -28 -38 -35 -38 -7 0 -18 19 -25 43 -18 62 -37 67 -85 25
-21 -20 -21 -20 3 64 26 86 28 148 7 156 -7 2 -13 2 -14 0z m226 -227 c-3 -6
-16 -16 -28 -22 -21 -11 -21 -10 2 15 23 25 40 29 26 7z"/>
<path d="M5284 6703 c17 -88 18 -183 2 -231 -30 -91 -133 -179 -168 -144 -28
28 53 122 108 126 30 1 29 30 -2 34 -30 4 -105 -56 -128 -102 -57 -117 86
-131 170 -17 53 73 65 121 60 247 -4 103 -6 109 -26 112 -19 3 -21 0 -16 -25z"/>
<path d="M7385 6648 c-9 -35 -19 -68 -20 -74 -2 -6 -31 -14 -65 -17 -66 -6
-76 -10 -65 -26 4 -7 26 -9 61 -5 37 5 54 3 54 -5 0 -6 -9 -45 -21 -86 -21
-76 -19 -95 7 -95 9 0 14 11 14 31 0 18 9 63 20 100 23 76 29 79 110 60 41 -9
60 -5 60 14 0 9 -22 15 -70 20 -79 8 -80 9 -51 84 10 28 16 52 13 55 -16 17
-31 -1 -47 -56z"/>
<path d="M4075 6638 c10 -33 23 -44 36 -31 8 8 7 17 -3 32 -18 29 -41 28 -33
-1z"/>
<path d="M5474 6624 c3 -9 6 -18 6 -20 0 -2 7 -4 15 -4 8 0 15 9 15 20 0 14
-7 20 -21 20 -15 0 -19 -4 -15 -16z"/>
<path d="M3737 6576 c-26 -18 -61 -39 -77 -46 -17 -7 -30 -16 -30 -21 0 -21
25 -18 75 10 l55 31 -39 -63 c-46 -75 -66 -129 -58 -151 10 -25 22 -20 89 40
l63 56 5 -38 c8 -61 31 -55 89 22 28 37 51 78 51 90 0 34 -17 30 -34 -8 -8
-18 -28 -49 -45 -68 l-30 -35 -1 43 c0 34 -4 42 -18 42 -21 0 -92 -69 -92 -90
0 -7 -3 -10 -7 -7 -3 4 -13 1 -21 -6 -25 -20 -6 25 50 119 45 75 55 114 31
114 -5 0 -29 -15 -56 -34z"/>
<path d="M12781 6578 c-9 -25 -4 -48 10 -48 12 0 31 49 23 61 -9 16 -24 10
-33 -13z"/>
<path d="M6412 6568 c-18 -18 -14 -44 12 -75 51 -62 58 -96 25 -137 -25 -32
-34 -27 -34 20 0 47 -18 44 -28 -6 -15 -77 43 -99 88 -33 35 52 32 90 -10 151
-19 28 -31 53 -26 56 5 3 12 -2 15 -11 10 -24 30 0 21 26 -7 23 -43 29 -63 9z"/>
<path d="M13410 6532 c-67 -67 -116 -192 -75 -192 8 0 18 12 21 28 18 72 95
182 129 182 7 0 18 -7 25 -15 15 -19 30 -19 30 -2 0 21 -34 47 -59 47 -14 0
-42 -19 -71 -48z"/>
<path d="M2403 6546 c-57 -27 -93 -58 -93 -81 0 -22 37 -18 43 5 5 18 105 75
115 65 2 -2 -21 -45 -52 -96 -80 -133 -75 -157 15 -67 l53 53 11 -51 c14 -64
21 -74 51 -74 62 0 158 154 140 224 -9 38 -31 27 -32 -15 -1 -19 -6 -51 -13
-70 -13 -40 -84 -115 -100 -105 -5 4 -13 26 -17 51 -7 48 -25 71 -49 61 -20
-7 -19 -2 8 44 17 31 20 43 11 57 -16 26 -33 26 -91 -1z"/>
<path d="M6097 6563 c-4 -3 -7 -24 -7 -45 0 -30 -8 -47 -36 -78 -20 -22 -42
-40 -50 -40 -23 0 -37 40 -30 86 4 34 2 44 -9 44 -20 0 -31 -82 -15 -120 25
-61 91 -49 141 25 31 45 47 135 25 135 -7 0 -16 -3 -19 -7z"/>
<path d="M10610 6560 c0 -6 -4 -9 -9 -6 -13 9 -73 -41 -104 -86 -36 -55 -34
-98 6 -112 38 -14 109 23 138 71 19 30 20 42 13 86 -6 37 -14 53 -26 55 -10 2
-18 -2 -18 -8z m3 -118 c-27 -37 -89 -70 -103 -56 -18 18 12 75 61 118 l44 37
9 -36 c7 -30 5 -42 -11 -63z"/>
<path d="M6245 6535 c-37 -36 -30 -74 22 -122 31 -30 29 -50 -7 -58 -37 -8
-70 2 -70 21 0 18 -14 18 -30 -2 -23 -27 11 -49 76 -49 47 0 59 4 75 24 10 13
19 27 19 31 0 5 -18 30 -40 55 -22 25 -40 50 -40 55 0 20 32 40 56 34 17 -4
24 -2 24 9 0 15 -20 27 -46 27 -8 0 -26 -11 -39 -25z"/>
<path d="M10996 6539 c-41 -32 -59 -75 -53 -126 6 -59 30 -83 80 -83 37 0 127
44 127 62 0 19 -24 16 -57 -7 -21 -14 -50 -25 -65 -25 -31 0 -58 32 -58 70 0
24 3 26 34 22 42 -5 74 12 86 44 22 58 -39 86 -94 43z m64 -22 c0 -20 -22 -37
-49 -37 l-24 0 23 25 c25 27 50 33 50 12z"/>
<path d="M12143 6545 c-52 -22 -59 -48 -29 -105 31 -59 32 -76 7 -90 -21 -10
-51 -4 -51 11 0 5 -5 9 -11 9 -7 0 -17 7 -23 15 -10 13 -13 13 -24 -5 -11 -17
-10 -21 5 -27 10 -3 29 -15 42 -25 31 -23 52 -23 85 3 32 25 34 61 6 107 -25
41 -25 69 0 77 11 4 18 10 15 15 -3 4 5 6 16 3 15 -4 20 -2 17 7 -6 20 -19 21
-55 5z"/>
<path d="M5592 6540 c-39 -16 -47 -51 -23 -98 25 -49 25 -47 5 -66 -17 -18
-74 -22 -74 -6 0 6 -7 10 -16 10 -10 0 -14 -7 -12 -22 2 -19 10 -24 46 -26 83
-6 119 44 84 117 l-20 41 21 15 c12 8 28 15 35 15 18 0 10 24 -9 27 -8 1 -24
-2 -37 -7z"/>
<path d="M8411 6532 c-70 -35 -98 -142 -49 -184 35 -31 147 -18 182 21 23 25
4 37 -27 16 -33 -21 -113 -31 -132 -15 -22 18 -19 24 23 47 57 33 84 66 80 99
-4 36 -29 41 -77 16z m47 -34 c-3 -7 -20 -23 -39 -36 -42 -29 -54 -9 -15 25
29 25 60 31 54 11z"/>
<path d="M8702 6513 c-11 -21 -27 -64 -36 -96 -9 -32 -21 -55 -25 -52 -5 2
-12 34 -16 70 -6 63 -18 86 -35 69 -9 -11 17 -175 31 -189 6 -6 16 -6 27 1 16
11 30 41 67 147 15 44 19 47 51 47 24 0 34 5 34 15 0 9 -9 15 -24 15 -13 0
-31 3 -40 6 -10 4 -21 -6 -34 -33z"/>
<path d="M9111 6501 l-47 -51 4 36 c6 51 -20 41 -31 -12 -5 -21 -16 -53 -24
-71 -29 -60 -3 -56 59 9 33 35 57 55 54 46 -18 -61 -18 -88 4 -118 17 -24 25
-29 34 -20 8 8 7 15 -6 24 -20 14 -17 62 7 119 36 87 9 106 -54 38z"/>
<path d="M10185 6532 c-22 -12 -41 -39 -73 -105 -27 -55 -40 -93 -34 -99 12
-12 23 2 63 82 30 60 71 110 90 110 14 0 10 -52 -6 -80 -18 -31 -19 -60 -2
-60 13 1 93 98 90 109 -1 4 7 8 18 8 22 2 22 5 5 -73 -13 -64 -7 -94 19 -94 9
0 12 8 9 26 -3 15 0 51 6 80 19 90 -10 127 -61 78 l-27 -26 -7 24 c-13 41 -38
47 -90 20z"/>
<path d="M14649 6527 c-33 -23 -34 -24 -31 -89 2 -64 2 -66 -27 -78 -16 -6
-46 -11 -68 -10 -54 3 -58 1 -45 -12 37 -37 146 -17 172 33 8 15 8 29 1 51 -6
17 -11 39 -11 49 0 20 47 49 80 49 11 0 20 7 20 15 0 23 -52 18 -91 -8z"/>
<path d="M5764 6521 c-40 -24 -77 -99 -68 -135 7 -30 48 -66 75 -66 21 0 34
16 19 25 -6 4 -8 11 -4 16 3 6 -6 9 -23 7 -26 -3 -28 0 -31 35 -3 32 2 43 31
72 19 19 43 35 52 35 20 0 15 24 -6 28 -8 1 -28 -6 -45 -17z"/>
<path d="M8867 6515 c-37 -26 -77 -89 -77 -122 0 -10 7 -29 16 -41 20 -28 91
-32 101 -4 4 9 13 22 21 28 11 8 12 13 4 18 -13 8 -52 -10 -52 -24 0 -17 -47
-11 -54 6 -9 23 -9 22 34 44 22 11 40 24 40 29 0 16 -13 20 -31 10 -32 -17
-12 15 22 35 31 18 31 18 19 -3 -14 -27 -4 -47 16 -30 8 7 13 18 10 25 -3 7
-1 16 5 20 12 7 -8 34 -25 34 -6 0 -28 -11 -49 -25z"/>
<path d="M11872 6520 c-36 -22 -72 -74 -72 -106 0 -34 25 -47 74 -41 41 6 44
4 50 -18 4 -14 13 -25 21 -25 11 0 13 9 9 43 -5 36 -2 51 20 85 14 23 26 44
26 46 0 8 -62 36 -79 36 -9 0 -31 -9 -49 -20z m59 -27 c3 -35 -2 -48 -27 -70
-27 -25 -74 -31 -74 -10 1 23 26 58 56 78 36 23 44 24 45 2z"/>
<path d="M14332 6495 c-55 -49 -71 -98 -49 -144 16 -33 55 -53 79 -40 24 13
14 29 -17 29 -18 0 -26 7 -31 24 -10 41 -1 60 31 66 64 13 116 68 93 98 -19
23 -56 12 -106 -33z m78 11 c0 -9 -61 -48 -67 -43 -3 3 10 15 28 26 36 22 39
23 39 17z"/>
<path d="M13935 6511 c-41 -24 -67 -66 -63 -99 4 -34 34 -40 79 -17 31 16 32
16 24 -1 -14 -35 -10 -49 13 -52 19 -3 22 1 22 27 0 17 9 51 21 76 11 24 18
49 14 56 -4 6 -10 7 -14 2 -16 -22 -105 -93 -117 -93 -39 0 15 69 69 89 29 11
28 31 -1 31 -9 0 -31 -8 -47 -19z"/>
<path d="M4006 6449 c-14 -38 -26 -82 -26 -95 0 -35 23 -26 31 12 3 16 16 53
28 82 20 50 21 72 2 72 -5 0 -20 -32 -35 -71z"/>
<path d="M2788 6493 c-8 -10 -22 -31 -30 -48 -43 -87 -27 -135 46 -135 53 0
76 8 76 26 0 10 -12 12 -51 7 -37 -4 -53 -2 -59 7 -10 16 -2 40 13 40 5 0 25
12 44 26 28 21 34 32 31 57 -2 26 -8 33 -29 35 -15 2 -31 -4 -41 -15z m42 -28
c0 -8 -9 -19 -19 -25 -30 -15 -33 -12 -15 15 18 28 34 33 34 10z"/>
<path d="M5406 6502 c-6 -11 -36 -140 -36 -158 0 -9 5 -14 12 -12 12 4 58 164
50 173 -8 7 -20 6 -26 -3z"/>
<path d="M13558 6480 c-70 -38 -99 -109 -59 -149 25 -25 101 -37 131 -21 30
16 17 25 -41 26 -53 1 -86 21 -76 47 3 9 14 13 30 10 25 -5 86 20 99 41 13 19
9 54 -8 60 -24 9 -36 7 -76 -14z m62 -20 c0 -13 -58 -42 -73 -37 -7 2 4 14 23
25 39 24 50 27 50 12z"/>
<path d="M12736 6473 c-3 -3 -6 -14 -6 -24 0 -9 -9 -36 -20 -60 -22 -49 -26
-93 -9 -87 13 4 59 121 59 149 0 19 -13 32 -24 22z"/>
<path d="M13079 6283 c-9 -10 -28 -38 -42 -63 -15 -25 -40 -61 -57 -80 -30
-34 -30 -35 -46 -15 -10 14 -14 36 -12 70 2 39 0 50 -13 53 -19 4 -33 -25 -60
-130 -11 -45 -25 -90 -30 -101 -20 -35 -27 -116 -13 -128 15 -13 15 -13 32 66
16 73 46 175 52 175 3 0 13 -14 22 -30 9 -17 24 -30 32 -30 19 0 70 53 103
108 13 23 27 42 30 42 15 0 -54 -267 -77 -295 -6 -7 -5 -16 2 -23 19 -19 38
-14 38 11 0 12 14 64 30 116 16 52 32 117 35 145 4 28 8 60 10 72 3 11 -1 29
-8 38 -12 16 -14 16 -28 -1z"/>
<path d="M12332 6205 c-40 -64 -50 -74 -70 -69 -13 2 -27 2 -33 -2 -15 -9 9
-34 33 -34 17 0 18 -5 11 -37 -4 -21 -7 -68 -7 -105 0 -57 4 -71 24 -93 27
-28 80 -35 80 -10 0 9 -9 15 -24 15 -38 0 -49 24 -49 104 1 116 1 116 89 116
59 0 74 3 74 15 0 12 -14 15 -70 15 -38 0 -70 3 -70 8 0 10 71 115 83 123 11
8 1 29 -14 29 -5 0 -31 -34 -57 -75z"/>
<path d="M4764 6228 c27 -182 28 -207 11 -259 -24 -71 -47 -92 -81 -77 -22 10
-25 17 -20 42 7 35 23 56 42 56 8 0 14 7 14 15 0 23 -34 18 -58 -8 -12 -13
-25 -37 -28 -55 -5 -26 -1 -36 24 -62 17 -16 37 -30 45 -30 29 0 66 42 88 98
20 54 21 63 9 167 -15 139 -19 155 -37 155 -13 0 -14 -8 -9 -42z"/>
<path d="M13642 6223 c-44 -100 -114 -305 -108 -319 5 -12 19 -4 64 37 l57 52
3 -36 c5 -58 28 -46 36 19 3 30 4 60 0 65 -7 11 -44 -10 -87 -49 l-28 -26 15
42 c8 23 13 42 9 42 -3 0 -1 6 4 13 6 6 23 46 38 87 15 41 32 80 37 87 10 12
3 33 -11 33 -4 0 -17 -21 -29 -47z"/>
<path d="M10362 6201 c-30 -32 -50 -61 -47 -69 8 -21 42 5 84 62 49 68 25 72
-37 7z"/>
<path d="M4357 6243 c-4 -3 -7 -31 -7 -62 0 -31 -7 -81 -15 -111 -16 -62 -66
-162 -83 -168 -12 -4 -57 134 -68 208 -7 51 -30 94 -45 85 -22 -14 -125 -313
-112 -326 16 -16 30 7 52 86 13 44 33 104 43 134 l20 53 29 -111 c33 -130 52
-171 78 -171 39 0 111 153 130 275 13 87 3 134 -22 108z"/>
<path d="M9145 6236 c-78 -23 -125 -45 -125 -60 0 -20 32 -30 42 -12 27 48
242 69 296 29 36 -27 38 -54 7 -91 -30 -36 -72 -50 -132 -44 -49 5 -51 12 -23
67 14 28 17 42 9 52 -17 19 -26 8 -45 -52 -16 -50 -20 -55 -46 -55 -33 0 -36
-15 -7 -39 l21 -17 -26 -59 c-18 -40 -23 -62 -16 -69 14 -14 23 -2 49 66 l23
57 36 -15 c48 -20 82 -52 82 -78 0 -33 17 -53 31 -39 10 10 10 21 0 53 -9 31
-23 48 -55 68 l-42 27 46 1 c80 1 150 62 150 131 0 30 -17 51 -58 73 -37 19
-160 22 -217 6z"/>
<path d="M9774 6225 c-4 -8 -3 -22 0 -31 3 -8 2 -13 -3 -9 -10 5 -16 -9 -76
-180 -42 -118 -45 -130 -25 -130 8 0 19 -6 23 -12 20 -32 111 10 150 70 17 26
24 86 10 88 -56 8 -80 7 -101 -7 -23 -15 -24 -15 -17 8 8 24 58 161 69 189 5
10 1 19 -9 23 -9 3 -18 0 -21 -9z m56 -240 c0 -25 -29 -63 -66 -86 -28 -17
-37 -19 -49 -9 -22 18 -19 26 25 70 42 42 90 55 90 25z"/>
<path d="M2703 6197 c-11 -18 -28 -54 -38 -81 l-19 -48 -48 5 c-26 3 -50 2
-53 -3 -8 -13 28 -30 62 -30 l28 0 0 -73 c0 -99 19 -129 78 -125 31 2 43 8 45
21 3 16 -1 17 -30 12 -23 -4 -38 -2 -45 7 -17 21 -25 75 -18 118 l7 40 84 -6
c78 -6 84 -6 85 12 0 11 3 13 6 6 5 -14 23 -7 23 10 0 7 -14 8 -40 4 -22 -3
-64 -3 -94 0 l-55 7 20 51 c12 28 27 58 35 67 18 20 18 39 0 39 -8 0 -23 -15
-33 -33z"/>
<path d="M6856 6218 c-13 -51 -45 -136 -78 -205 -21 -46 -38 -87 -38 -92 0
-19 28 -29 103 -36 66 -6 77 -5 77 8 0 12 -16 17 -70 23 -38 3 -70 11 -70 16
0 5 14 40 31 76 17 37 40 92 51 122 11 30 24 60 29 66 5 6 3 16 -3 22 -15 15
-28 15 -32 0z"/>
<path d="M7120 6191 c0 -25 15 -35 36 -23 19 11 20 22 2 33 -22 14 -38 10 -38
-10z"/>
<path d="M11285 6192 c-64 -27 -70 -34 -83 -98 -7 -33 -27 -98 -46 -145 -21
-52 -31 -88 -25 -95 6 -7 25 -8 56 -3 27 4 72 8 101 8 41 1 52 4 52 17 0 15
-11 16 -89 11 l-88 -6 20 55 c19 52 21 54 56 54 38 0 121 28 121 41 0 16 -17
18 -56 4 -21 -8 -49 -14 -62 -15 -21 0 -23 3 -17 33 4 17 14 48 23 66 17 35
40 47 125 65 15 4 25 11 22 16 -9 15 -65 11 -110 -8z"/>
<path d="M13914 6196 c-4 -10 -2 -22 4 -28 8 -8 13 -7 18 6 4 10 2 22 -4 28
-8 8 -13 7 -18 -6z"/>
<path d="M5217 6184 c-11 -12 13 -44 33 -44 25 0 25 12 2 33 -20 19 -26 20
-35 11z"/>
<path d="M7295 6180 c-8 -14 -95 -278 -95 -290 0 -6 9 -10 20 -10 11 0 20 -4
20 -9 0 -16 36 -22 62 -11 26 12 73 80 83 121 10 42 -17 57 -71 37 -24 -8 -44
-11 -44 -6 0 24 44 134 56 141 12 7 13 12 3 23 -13 16 -25 18 -34 4z m35 -245
c-12 -19 -30 -40 -41 -46 -16 -8 -21 -5 -29 17 -12 32 6 59 55 80 40 17 45 -2
15 -51z"/>
<path d="M5419 6111 c-16 -16 -29 -36 -29 -44 0 -8 25 -38 55 -68 64 -63 75
-104 28 -115 -26 -7 -53 13 -66 49 -3 9 -8 9 -17 1 -9 -9 -8 -19 4 -43 18 -33
51 -47 90 -37 77 19 68 100 -19 169 -39 31 -43 47 -17 70 16 15 21 15 46 2 36
-19 46 -19 46 0 0 16 -49 45 -75 45 -9 0 -30 -13 -46 -29z"/>
<path d="M4949 6082 c-63 -42 -79 -64 -72 -107 12 -78 43 -115 98 -115 31 0
65 16 65 31 0 6 -16 8 -44 4 -39 -6 -45 -4 -65 21 l-22 29 27 7 c37 10 94 67
94 93 0 22 -28 55 -46 55 -5 0 -21 -8 -35 -18z m35 -64 c-28 -30 -54 -42 -67
-29 -7 7 1 21 27 47 34 34 39 36 48 20 7 -13 5 -23 -8 -38z"/>
<path d="M7551 6054 c-30 -56 -78 -109 -99 -109 -8 0 -24 -12 -35 -27 -17 -23
-18 -30 -7 -43 12 -14 19 -11 61 31 l48 47 3 -39 c5 -58 36 -58 94 -1 24 24
44 43 44 40 0 -2 -6 -19 -14 -38 -13 -30 -13 -34 1 -40 24 -9 30 3 42 84 16
100 3 108 -48 33 -22 -34 -51 -68 -63 -77 -22 -15 -23 -14 -26 9 -2 14 8 53
22 89 29 72 32 87 13 87 -6 0 -23 -21 -36 -46z"/>
<path d="M10454 6068 c-37 -33 -39 -40 -19 -120 11 -42 -2 -76 -35 -93 -41
-21 -77 -19 -83 5 -8 30 -27 24 -27 -9 0 -17 6 -31 16 -35 50 -19 130 9 154
55 12 21 9 90 -5 135 -5 16 1 26 29 45 37 25 47 49 21 49 -8 0 -31 -14 -51
-32z"/>
<path d="M13225 6058 c-75 -59 -71 -180 5 -151 25 9 29 8 34 -11 8 -30 24 -10
37 49 15 69 17 108 6 123 -14 19 -51 14 -82 -10z m69 -17 c7 -11 -41 -84 -66
-100 -28 -17 -33 -7 -19 39 15 51 68 89 85 61z"/>
<path d="M14258 6059 c-94 -49 -89 -171 7 -187 61 -10 140 0 140 18 0 12 -14
14 -76 12 -60 -3 -79 0 -92 13 -33 32 -21 43 37 38 48 -5 55 -3 70 18 19 27
21 80 4 97 -17 17 -47 14 -90 -9z m72 -32 c0 -30 -18 -47 -49 -47 -41 0 -55
14 -34 32 49 42 83 48 83 15z"/>
<path d="M7925 6036 c-8 -19 -15 -48 -15 -64 0 -44 -11 -92 -22 -92 -19 0 -40
74 -35 123 5 38 3 49 -9 54 -24 9 -33 -15 -27 -71 6 -60 37 -132 60 -140 26
-10 52 23 58 73 3 25 8 60 11 78 l5 31 66 -1 c82 -2 99 18 21 26 -29 3 -63 8
-76 12 -19 6 -24 2 -37 -29z"/>
<path d="M10124 6029 c-89 -142 -97 -152 -111 -133 -7 10 -13 36 -13 58 0 55
-10 86 -26 86 -18 0 -9 -109 12 -160 l15 -36 -59 -94 c-71 -115 -87 -153 -75
-175 8 -13 18 0 50 67 22 46 66 119 96 163 103 147 160 246 149 257 -7 7 -19
-3 -38 -33z"/>
<path d="M11690 6060 l-74 -5 -12 -58 c-6 -32 -14 -60 -16 -63 -3 -2 -13 17
-23 43 -21 57 -31 71 -44 58 -11 -12 41 -147 58 -153 20 -7 39 29 52 92 l12
58 48 -5 c37 -5 53 -2 70 12 29 24 18 27 -71 21z"/>
<path d="M4470 6050 c-8 -5 -15 -13 -15 -17 -1 -4 -9 -22 -18 -40 -23 -43 -21
-79 4 -104 26 -26 73 -20 108 16 31 30 31 71 2 119 -23 37 -50 46 -81 26z m60
-50 c19 -35 8 -73 -24 -88 -24 -12 -30 -12 -43 1 -19 19 -11 59 17 87 25 25
37 25 50 0z"/>
<path d="M13857 6053 c-4 -3 -7 -14 -7 -23 0 -9 -14 -42 -31 -74 -18 -33 -28
-61 -23 -66 14 -14 27 0 56 60 36 73 45 110 26 110 -8 0 -18 -3 -21 -7z"/>
<path d="M14052 6024 l-42 -35 -10 26 c-14 37 -28 23 -28 -28 1 -28 -7 -57
-23 -84 -13 -23 -21 -45 -17 -49 14 -13 34 4 58 50 24 47 90 116 111 116 8 0
9 -12 3 -37 -13 -64 -11 -97 7 -101 12 -2 16 5 16 25 0 15 3 49 8 74 6 36 4
49 -10 62 -22 23 -25 22 -73 -19z"/>
<path d="M13397 6016 c-69 -90 -64 -190 9 -172 30 8 26 32 -5 29 -11 -2 -21 3
-22 10 0 6 -2 20 -4 30 -2 9 1 17 6 17 5 0 9 6 9 13 0 7 13 28 30 47 16 19 29
41 30 48 0 23 -28 12 -53 -22z"/>
<path d="M11788 6012 c-60 -44 -77 -108 -36 -136 27 -19 48 -20 83 -4 29 13
36 45 8 33 -39 -16 -54 -17 -68 -5 -26 22 -18 36 20 32 29 -4 40 1 70 31 31
31 35 39 25 57 -15 28 -57 25 -102 -8z m70 -14 c-6 -18 -55 -44 -65 -35 -9 9
35 46 55 47 8 0 12 -6 10 -12z"/>
<path d="M5236 6022 c-3 -6 -5 -64 -4 -129 2 -104 0 -124 -20 -169 -48 -108
-132 -90 -145 30 -5 43 -15 56 -27 36 -20 -32 12 -126 52 -154 54 -38 111 -9
149 76 21 48 24 65 22 177 -2 115 -11 158 -27 133z"/>
<path d="M2969 6013 c-17 -3 -33 -17 -47 -42 -27 -48 -27 -61 -1 -95 16 -20
29 -26 57 -26 40 1 56 10 90 54 29 38 28 70 -4 95 -26 20 -40 22 -95 14z m72
-33 c26 -14 24 -33 -7 -69 -31 -38 -77 -42 -94 -10 -14 26 11 69 40 69 10 0
22 5 25 10 8 13 12 12 36 0z"/>
<path d="M7082 6008 c-33 -40 -54 -154 -22 -122 9 9 50 113 50 127 0 11 -16 8
-28 -5z"/>
<path d="M9600 5984 c0 -65 -84 -123 -110 -75 -14 28 -12 52 6 73 16 16 15 18
-1 24 -36 14 -57 -52 -35 -111 31 -82 170 -13 170 85 0 29 -4 40 -15 40 -11 0
-15 -11 -15 -36z"/>
<path d="M11964 6003 c-4 -10 -19 -47 -35 -82 -17 -37 -26 -68 -21 -73 5 -5
33 17 65 52 31 33 59 60 63 60 3 0 3 -11 0 -24 -12 -49 38 -103 73 -81 16 9
-6 46 -23 39 -15 -6 -29 53 -14 62 4 3 8 16 8 30 0 31 -23 31 -65 0 l-31 -24
4 29 c5 32 -15 41 -24 12z"/>
<path d="M14565 5938 c-2 -7 -6 -30 -10 -51 -4 -27 -20 -53 -56 -90 -53 -55
-59 -67 -31 -67 9 0 37 25 62 54 52 64 74 119 59 147 -11 22 -18 24 -24 7z"/>
<path d="M8220 5899 c0 -25 -37 -114 -62 -151 -22 -33 -23 -50 -1 -46 21 4 84
129 90 180 5 31 2 38 -11 38 -10 0 -16 -8 -16 -21z"/>
<path d="M5984 5893 c-11 -34 -57 -118 -75 -139 -11 -11 -19 -23 -19 -27 0
-15 28 -6 47 16 28 31 83 131 83 151 0 22 -29 21 -36 -1z"/>
<path d="M2738 5815 c-50 -18 -88 -45 -88 -61 0 -18 -4 -19 65 17 48 25 65 29
99 24 48 -8 96 -49 96 -81 0 -25 -69 -117 -99 -134 -24 -12 -61 -13 -61 -2 0
5 7 31 15 58 19 64 19 104 0 104 -9 0 -15 -9 -15 -22 0 -31 -31 -138 -40 -138
-12 0 -28 23 -35 53 -4 15 -14 27 -22 27 -25 0 -7 -61 26 -92 l30 -27 -29 -81
c-17 -44 -30 -90 -30 -101 0 -32 32 -19 36 14 1 16 14 59 29 96 24 64 28 68
57 69 39 1 71 24 126 91 50 61 54 98 17 146 -16 22 -38 36 -69 44 -54 13 -61
13 -108 -4z"/>
<path d="M3436 5815 c-3 -8 0 -15 6 -15 7 0 7 -4 0 -12 -5 -7 -13 -29 -17 -48
-11 -59 -36 -132 -68 -203 -21 -48 -27 -71 -20 -78 13 -13 70 76 65 101 -2 11
-1 12 6 2 6 -10 13 -8 27 8 24 26 61 26 68 0 3 -11 2 -18 -3 -15 -10 6 -40
-68 -40 -101 0 -14 5 -24 11 -22 15 5 51 106 53 148 l1 35 -51 0 c-51 -1 -52
0 -42 24 11 29 38 155 38 177 0 19 -26 18 -34 -1z"/>
<path d="M6230 5809 c-36 -11 -98 -23 -139 -27 -50 -5 -76 -12 -79 -21 -4 -12
11 -13 90 -8 l95 5 -7 -31 c-4 -18 -24 -79 -43 -137 -20 -58 -37 -116 -39
-130 -5 -37 25 -32 33 5 3 17 23 82 42 145 20 63 39 127 41 141 5 21 15 28 58
40 28 8 53 20 56 27 5 17 -29 14 -108 -9z"/>
<path d="M3271 5783 c-6 -21 -15 -59 -22 -85 -13 -55 -35 -63 -69 -26 -16 17
-23 19 -32 10 -20 -20 22 -55 74 -61 3 -1 -2 -34 -13 -73 -22 -87 -25 -129 -6
-122 7 2 19 30 25 62 24 115 31 132 56 132 36 0 84 20 90 37 10 25 0 27 -38 9
-45 -21 -69 -21 -62 2 3 9 10 40 17 67 7 28 16 55 20 61 10 12 2 24 -17 24 -7
0 -18 -17 -23 -37z"/>
<path d="M4256 5803 c-14 -48 -18 -113 -7 -113 14 0 26 30 36 88 5 34 4 42 -8
42 -9 0 -18 -8 -21 -17z"/>
<path d="M7155 5748 c-16 -105 -22 -117 -62 -120 -49 -4 -57 -28 -9 -28 41 0
42 -3 21 -83 -18 -70 -19 -110 -3 -105 6 2 21 44 32 94 l22 89 39 1 c58 1 60
2 40 24 -14 15 -26 19 -45 15 l-27 -6 17 81 c16 76 16 80 -1 80 -13 0 -19 -11
-24 -42z"/>
<path d="M7747 5763 c-2 -5 -17 -52 -33 -105 -18 -64 -32 -94 -38 -88 -39 39
-156 -38 -156 -102 0 -29 9 -42 38 -57 19 -10 29 -9 60 6 49 24 77 69 108 172
15 47 33 101 41 118 15 33 12 63 -6 63 -5 0 -12 -3 -14 -7z m-67 -220 c-1 -23
-49 -89 -72 -97 -64 -22 -78 26 -21 73 34 28 93 43 93 24z"/>
<path d="M6700 5724 c0 -11 8 -14 25 -12 35 4 36 22 3 25 -19 1 -28 -3 -28
-13z"/>
<path d="M4369 5697 c-19 -12 -35 -31 -37 -41 -2 -10 12 -43 31 -74 41 -69 49
-96 33 -118 -11 -15 -15 -15 -42 -1 -49 25 -67 52 -60 87 5 26 3 31 -12 28
-23 -4 -27 -49 -7 -88 21 -41 97 -77 130 -62 27 13 40 58 26 93 -5 14 -23 47
-40 74 -17 27 -31 52 -31 57 0 4 14 14 30 23 23 12 35 13 51 4 31 -16 50 5 23
26 -27 21 -56 18 -95 -8z"/>
<path d="M6402 5656 c-21 -15 -28 -26 -20 -28 7 -3 -6 -8 -30 -11 -42 -7 -55
-23 -27 -33 8 -3 31 3 50 15 l35 20 -29 -57 c-57 -110 -48 -153 18 -88 l38 37
12 -40 c14 -47 24 -56 49 -42 47 25 107 201 68 201 -9 0 -17 -3 -17 -7 -1 -5
-3 -21 -5 -38 -3 -32 -45 -125 -55 -125 -8 0 -19 38 -19 68 0 36 -28 39 -57 6
-29 -34 -28 -30 16 58 43 88 35 107 -27 64z"/>
<path d="M6851 5648 c-41 -22 -49 -44 -27 -81 54 -91 52 -87 37 -96 -23 -15
-55 4 -76 45 -26 51 -24 49 -37 36 -19 -19 28 -99 65 -111 42 -15 54 -14 77 9
19 19 19 23 5 56 -8 19 -23 46 -34 60 -27 35 -17 52 35 60 27 4 43 11 41 18
-5 16 -58 18 -86 4z"/>
<path d="M3643 5604 c-35 -38 -43 -54 -43 -85 0 -33 5 -41 30 -54 24 -12 39
-14 66 -6 76 21 89 57 53 142 -28 63 -49 64 -106 3z m87 -42 c14 -41 14 -44
-5 -58 -11 -8 -36 -14 -55 -12 -46 4 -51 34 -14 83 34 45 55 42 74 -13z"/>
<path d="M3942 5611 c-22 -16 -44 -36 -48 -43 -6 -9 -10 -4 -14 17 -6 36 -36
42 -33 7 2 -13 -8 -45 -22 -72 -28 -56 -32 -90 -10 -90 8 0 15 4 15 9 0 13 51
73 104 121 43 40 48 42 42 20 -21 -72 -27 -108 -21 -138 7 -38 46 -68 72 -56
10 4 22 8 27 8 5 1 11 7 14 15 3 10 -2 12 -24 8 -15 -3 -34 -3 -41 0 -23 9
-25 65 -4 132 12 35 21 70 21 77 0 23 -34 16 -78 -15z"/>
<path d="M3033 5533 c-34 -76 -28 -77 -63 14 -8 19 -14 23 -22 15 -8 -8 -5
-28 11 -75 l21 -64 -40 -84 c-40 -85 -54 -149 -34 -156 7 -2 17 16 23 43 13
50 74 179 91 189 5 3 10 14 10 23 0 25 49 126 66 135 18 10 9 27 -15 27 -12 0
-27 -21 -48 -67z"/>
<path d="M6660 5564 c-6 -15 -14 -47 -17 -71 -5 -36 -3 -42 9 -38 12 5 39 89
39 122 1 21 -22 11 -31 -13z"/>
<path d="M7354 5567 c-11 -7 -36 -25 -56 -41 l-35 -29 23 -48 c13 -26 33 -53
44 -59 25 -13 80 -6 91 11 13 22 0 28 -32 16 -28 -11 -33 -10 -55 17 -31 35
-28 46 21 63 65 22 96 63 59 77 -22 9 -36 7 -60 -7z"/>
<path d="M14035 5058 c-2 -7 -11 -55 -20 -105 -9 -51 -31 -154 -51 -229 -35
-136 -41 -214 -16 -222 8 -2 12 10 12 43 0 25 11 85 24 133 30 106 76 323 76
357 0 27 -18 43 -25 23z"/>
<path d="M11395 5048 c-2 -7 -11 -40 -19 -73 -9 -33 -36 -121 -61 -195 -60
-177 -61 -180 -42 -180 8 0 23 22 35 51 25 58 81 134 92 122 3 -4 12 -27 19
-50 6 -23 23 -55 36 -71 14 -17 25 -40 25 -52 0 -54 49 -83 134 -79 65 4 63
29 -1 29 -102 0 -134 53 -63 102 24 17 49 47 62 73 20 41 21 47 6 61 -12 12
-20 13 -34 6 -27 -15 -59 -51 -82 -95 l-21 -39 -15 30 c-8 16 -20 50 -26 75
-14 54 -30 63 -64 36 -14 -11 -26 -19 -26 -17 0 2 18 62 40 133 22 72 40 133
40 138 0 12 -30 8 -35 -5z m186 -315 c-5 -10 -21 -29 -36 -43 l-28 -25 28 43
c27 41 56 61 36 25z"/>
<path d="M13362 5008 c-13 -16 -39 -109 -48 -170 l-6 -47 -72 -3 c-53 -2 -71
-7 -71 -17 0 -11 15 -14 68 -12 l69 2 -6 -28 c-6 -30 -9 -81 -7 -126 2 -58 77
-96 132 -67 23 13 26 40 4 40 -8 0 -15 -4 -15 -10 0 -16 -57 -12 -74 6 -17 16
-22 94 -10 153 l7 31 98 0 c81 0 99 3 99 15 0 12 -17 15 -96 15 l-95 0 7 48
c3 26 15 72 25 102 11 30 20 59 22 64 4 14 -19 18 -31 4z"/>
<path d="M6445 4998 c-2 -7 -9 -40 -16 -73 -6 -33 -31 -112 -55 -176 -67 -178
-59 -189 53 -71 57 58 73 71 69 52 -13 -56 -18 -110 -12 -134 5 -22 12 -26 44
-26 20 0 48 9 61 19 l25 19 15 -32 c50 -98 166 26 120 128 -7 14 -18 27 -26
31 -21 8 -77 -29 -91 -60 -7 -15 -16 -24 -20 -21 -5 3 -19 -8 -31 -24 -14 -19
-31 -30 -46 -30 -30 0 -33 26 -10 109 8 30 12 58 9 63 -14 22 -55 5 -103 -44
l-51 -53 40 113 c43 121 61 222 41 222 -6 0 -13 -6 -16 -12z m279 -314 c11
-30 6 -61 -15 -88 -23 -29 -44 -34 -53 -10 -12 31 -6 56 22 84 32 34 38 36 46
14z"/>
<path d="M11195 4970 c4 -18 2 -51 -5 -76 -12 -41 -16 -45 -64 -59 -28 -9 -79
-19 -113 -22 -43 -4 -63 -10 -63 -19 0 -19 70 -18 144 1 33 9 60 14 61 13 2
-2 -19 -61 -46 -133 -26 -71 -48 -140 -49 -152 0 -35 27 -27 34 9 3 17 28 89
54 160 46 125 48 128 78 128 16 0 35 -5 42 -12 16 -16 29 -1 16 20 -6 9 -25
18 -43 20 -28 3 -31 6 -24 25 4 12 8 44 8 72 0 40 -3 50 -18 53 -16 3 -18 -1
-12 -28z"/>
<path d="M4401 4919 c-10 -51 -10 -63 1 -70 10 -7 9 -9 -3 -9 -12 0 -20 -16
-28 -57 -17 -89 -24 -178 -17 -208 13 -51 28 -19 31 65 2 47 15 135 29 197 30
128 31 143 13 143 -8 0 -18 -24 -26 -61z"/>
<path d="M8097 4963 c-12 -11 -8 -63 4 -63 16 0 5 -157 -15 -222 -18 -59 -52
-108 -76 -108 -35 0 -53 55 -59 180 -5 89 -9 115 -20 115 -10 0 -20 -28 -33
-90 -21 -105 -43 -172 -63 -199 -15 -19 -15 -19 -15 2 0 13 -6 22 -15 22 -8 0
-15 -5 -15 -11 0 -5 6 -7 13 -3 8 6 8 3 -2 -9 -17 -21 -7 -47 18 -47 26 0 60
49 81 117 l17 56 7 -43 c13 -85 64 -143 105 -121 59 32 97 124 107 256 10 128
-7 201 -39 168z"/>
<path d="M4275 4940 c-3 -5 -3 -15 0 -20 4 -6 -8 -84 -25 -175 -30 -156 -32
-211 -8 -203 6 2 12 22 14 43 2 22 15 106 30 186 15 80 24 153 21 163 -7 18
-23 21 -32 6z"/>
<path d="M8505 4938 c-3 -7 -1 -44 4 -80 5 -37 6 -81 2 -100 -16 -68 -68 -148
-117 -179 -49 -30 -64 -25 -64 19 0 54 23 82 66 82 24 0 34 4 32 13 -5 14 -41
21 -72 13 -57 -14 -81 -160 -29 -180 26 -10 100 32 138 78 68 83 85 145 75
274 -4 53 -24 88 -35 60z"/>
<path d="M2495 4928 c-32 -17 -75 -61 -75 -75 0 -22 21 -15 61 22 29 26 48 35
74 35 44 0 45 -13 4 -81 -47 -80 -89 -167 -89 -184 0 -25 25 -17 48 15 30 41
42 38 42 -10 0 -22 4 -48 9 -58 5 -9 12 -25 15 -34 3 -9 16 -24 30 -34 58 -37
147 16 204 124 54 101 59 207 12 264 -15 18 -21 20 -31 11 -10 -10 -8 -17 9
-36 70 -75 -26 -314 -138 -342 -28 -7 -70 24 -70 51 0 8 -3 13 -7 11 -5 -3 -6
20 -4 50 3 57 -9 78 -37 68 -17 -6 -17 -6 38 99 44 84 44 87 26 101 -23 18
-92 19 -121 3z"/>
<path d="M5128 4849 c-25 -14 -22 -49 7 -119 38 -91 31 -139 -19 -126 -28 7
-59 56 -50 79 3 8 1 18 -5 21 -6 4 -8 13 -4 21 3 10 -1 15 -15 15 -27 0 -35
-14 -23 -37 5 -10 12 -30 15 -44 8 -37 41 -75 77 -88 27 -9 33 -8 55 14 32 32
31 78 -2 156 -28 68 -26 96 5 79 25 -13 38 4 21 25 -14 17 -38 19 -62 4z"/>
<path d="M4133 4835 c-3 -9 -3 -18 0 -22 10 -10 37 6 37 22 0 20 -29 20 -37 0z"/>
<path d="M5543 4829 c-17 -11 -36 -33 -43 -49 -7 -17 -16 -30 -21 -30 -5 0 -6
-19 -3 -42 19 -130 40 -154 130 -145 56 6 94 28 94 54 0 17 -14 17 -30 -2 -14
-17 -89 -30 -119 -20 -13 4 -24 20 -31 43 -16 58 -13 69 27 89 51 25 78 64 64
91 -16 29 -34 32 -68 11z m37 -34 c0 -15 -47 -51 -55 -43 -7 7 34 58 46 58 5
0 9 -7 9 -15z"/>
<path d="M10276 4828 c-25 -35 -19 -55 30 -108 50 -54 52 -78 9 -98 -22 -10
-27 -8 -41 13 -9 14 -14 36 -12 50 6 29 -10 45 -23 24 -17 -27 -9 -69 20 -101
27 -30 30 -31 60 -18 37 15 61 45 61 76 0 12 -21 45 -46 73 -39 43 -44 54 -34
67 7 8 22 13 34 12 13 -2 21 3 21 12 0 10 -12 16 -32 18 -23 2 -35 -3 -47 -20z"/>
<path d="M5310 4789 c-14 -22 -34 -50 -45 -60 -13 -13 -16 -22 -9 -27 6 -4 14
-25 17 -47 10 -61 45 -87 115 -83 75 4 84 28 10 28 -59 0 -70 5 -87 37 -17 33
-14 53 9 53 33 0 70 44 70 83 0 67 -44 76 -80 16z m34 -50 c-17 -19 -34 -25
-34 -11 0 4 10 23 22 42 21 33 23 34 26 12 2 -13 -4 -32 -14 -43z"/>
<path d="M9596 4773 c-13 -21 -40 -53 -60 -72 -19 -19 -33 -38 -30 -43 3 -4 0
-8 -7 -8 -14 0 -79 -67 -79 -81 0 -24 33 -3 75 46 52 60 65 67 65 32 0 -48 40
-61 84 -26 l27 21 -7 -26 c-4 -17 0 -35 11 -52 22 -33 27 -27 29 38 2 29 6 70
11 91 7 34 6 37 -13 37 -15 0 -28 -12 -42 -40 -18 -35 -45 -60 -66 -60 -13 0
5 72 30 120 23 44 24 60 4 60 -4 0 -19 -17 -32 -37z"/>
<path d="M9852 4794 c-27 -19 -28 -49 -2 -105 25 -56 25 -86 1 -99 -26 -13
-51 -3 -51 22 0 10 -4 16 -10 13 -5 -3 -10 -2 -10 4 0 5 5 13 10 16 15 9 12
25 -4 25 -33 0 -28 -81 8 -105 30 -21 59 -18 84 8 27 29 28 68 2 126 -25 54
-25 68 0 76 22 7 28 35 7 35 -7 0 -23 -7 -35 -16z"/>
<path d="M10008 4783 c-50 -54 -62 -109 -33 -150 23 -32 99 -59 130 -45 37 17
30 30 -15 28 -25 0 -49 7 -66 20 -37 27 -35 38 6 42 48 5 70 27 70 72 0 64
-47 81 -92 33z m60 -35 c-3 -29 -7 -33 -35 -36 -39 -4 -43 11 -11 45 31 34 50
30 46 -9z"/>
<path d="M3763 4772 c-29 -15 -53 -33 -53 -39 0 -19 15 -16 71 13 28 14 53 24
54 22 2 -2 -18 -37 -46 -78 -33 -50 -49 -83 -47 -100 3 -22 8 -25 43 -24 26 0
52 9 73 24 l31 23 20 -24 c18 -22 21 -23 46 -9 46 24 77 81 73 131 -2 31 -7
44 -18 44 -11 0 -14 -10 -12 -42 3 -36 -2 -47 -31 -79 l-33 -37 -13 32 c-8 17
-18 31 -24 31 -5 0 -27 -16 -48 -35 -34 -31 -79 -47 -79 -29 0 10 40 74 77
123 18 24 33 52 33 62 0 28 -54 24 -117 -9z"/>
<path d="M12651 4778 c-5 -13 -14 -54 -20 -93 -22 -130 -27 -133 -66 -32 -32
83 -49 107 -66 90 -8 -8 -7 -17 4 -34 9 -13 25 -49 37 -79 52 -132 94 -118
120 40 8 45 19 79 28 86 14 10 14 14 3 28 -18 22 -30 20 -40 -6z"/>
<path d="M2952 4743 c-41 -44 -62 -90 -62 -135 0 -56 30 -78 107 -78 44 1 128
27 93 29 -13 1 -13 2 0 12 12 8 9 9 -10 4 -54 -14 -118 -17 -139 -6 -24 13
-32 74 -8 65 23 -8 97 65 97 95 0 27 -16 51 -33 51 -5 0 -25 -17 -45 -37z m48
-17 c0 -7 -17 -26 -37 -42 -37 -28 -36 -23 1 29 22 29 36 35 36 13z"/>
<path d="M8596 4745 c-54 -54 -60 -131 -15 -176 18 -18 30 -20 70 -17 61 6 66
11 45 43 -20 30 -40 33 -31 5 5 -17 2 -20 -22 -20 -48 0 -73 42 -33 55 62 20
95 79 70 126 -16 29 -45 23 -84 -16z m64 -26 c0 -11 -14 -28 -32 -39 -58 -35
-63 -23 -17 33 32 38 49 41 49 6z"/>
<path d="M7020 4751 c0 -10 9 -21 20 -24 26 -7 27 -61 3 -112 -27 -56 -63 -40
-63 27 0 52 -21 50 -62 -6 -34 -45 -84 -83 -96 -72 -3 4 4 37 16 74 26 80 27
92 8 92 -14 0 -42 -76 -53 -145 -11 -68 56 -71 117 -5 l36 39 11 -29 c6 -16
23 -35 37 -41 34 -16 56 3 86 72 18 44 20 55 9 87 -15 47 -27 62 -50 62 -12 0
-19 -7 -19 -19z"/>
<path d="M12319 4746 c-20 -14 -48 -46 -62 -71 -21 -37 -24 -50 -16 -78 10
-38 39 -73 69 -82 26 -8 123 20 140 40 20 24 4 29 -40 11 -58 -23 -105 -21
-124 6 -23 32 -20 48 9 48 16 0 42 16 71 44 37 35 45 50 42 73 -4 38 -41 42
-89 9z m61 -17 c0 -16 -68 -79 -86 -79 -21 0 -3 31 37 64 33 28 49 33 49 15z"/>
<path d="M12798 4723 c-58 -63 -68 -132 -23 -170 39 -34 95 -29 95 8 0 22 -11
24 -28 7 -9 -9 -18 -9 -37 0 -29 13 -34 48 -7 56 27 10 92 70 92 87 0 44 -55
51 -92 12z m37 -33 c-16 -16 -33 -30 -38 -30 -4 0 1 14 13 30 12 17 29 30 38
30 12 0 9 -8 -13 -30z"/>
<path d="M14612 4704 c-30 -30 -37 -33 -44 -20 -5 9 -16 16 -25 16 -12 0 -14
-7 -9 -30 3 -17 0 -42 -6 -58 -6 -15 -10 -33 -9 -40 1 -6 -12 -55 -29 -107
-32 -101 -36 -130 -20 -140 11 -7 36 48 58 132 l16 62 46 -6 c54 -6 117 20
143 61 26 40 22 112 -8 141 -35 36 -70 32 -113 -11z m92 -10 c24 -24 20 -86
-6 -111 -46 -41 -95 -54 -128 -34 -31 20 61 161 105 161 7 0 21 -7 29 -16z"/>
<path d="M8177 4714 c-36 -19 -57 -63 -57 -118 0 -35 5 -48 19 -56 41 -21 121
38 121 90 0 32 -25 86 -43 93 -7 3 -25 -2 -40 -9z m53 -77 c0 -26 -38 -67 -62
-67 -26 0 -24 59 3 94 20 26 22 26 40 10 11 -9 19 -26 19 -37z"/>
<path d="M12968 4713 c-16 -18 -41 -93 -34 -101 2 -2 -2 -15 -9 -29 -13 -25
-11 -53 5 -53 4 0 26 26 48 58 61 88 70 92 64 33 -5 -58 10 -91 43 -91 34 0
39 15 10 28 -28 13 -31 38 -14 108 19 73 0 79 -62 19 -43 -42 -50 -46 -44 -25
4 14 11 29 16 35 11 12 12 35 1 35 -5 0 -16 -8 -24 -17z"/>
<path d="M4088 4658 c-10 -35 -12 -59 -6 -71 13 -25 28 -11 28 26 1 18 7 43
15 57 19 33 18 40 -4 40 -14 0 -22 -13 -33 -52z"/>
<path d="M14095 4700 c-4 -6 -2 -17 4 -24 8 -9 6 -24 -6 -54 -13 -34 -14 -47
-4 -68 10 -24 16 -26 49 -21 46 8 86 37 90 67 4 25 -36 73 -80 96 -32 17 -45
18 -53 4z m82 -62 c32 -30 29 -47 -12 -64 -55 -23 -60 -14 -33 59 13 33 15 33
45 5z"/>
<path d="M14339 4666 c-20 -14 -42 -39 -49 -57 -13 -29 -12 -33 9 -50 33 -27
110 -26 139 1 12 12 22 27 22 34 0 21 -62 95 -80 96 -3 0 -21 -11 -41 -24z
m65 -35 c30 -33 17 -56 -32 -59 -53 -4 -65 17 -32 54 28 29 41 30 64 5z"/>
<path d="M13106 4571 c-7 -11 22 -23 35 -15 5 3 9 9 9 15 0 12 -37 12 -44 0z"/>
<path d="M2308 4463 c-49 -53 -58 -73 -58 -141 0 -56 -1 -59 -32 -73 -41 -18
-52 -45 -15 -35 14 3 32 9 41 12 24 9 22 -108 -2 -156 -16 -33 -27 -38 -61
-29 -23 7 -24 -19 -1 -31 61 -33 101 23 110 150 l5 85 43 3 c28 2 42 8 42 18
0 10 -13 14 -50 14 l-50 0 0 46 c0 73 44 138 87 128 25 -7 32 13 11 34 -19 19
-32 14 -70 -25z"/>
<path d="M3170 4293 c-6 -32 -17 -80 -25 -107 -14 -47 -13 -66 4 -66 4 0 31
33 61 74 30 41 55 74 57 73 1 -2 -2 -20 -7 -42 -14 -61 -12 -90 9 -116 25 -31
36 -19 22 23 -9 25 -9 49 0 101 10 54 10 70 0 80 -10 9 -22 2 -58 -38 l-45
-50 8 40 c11 60 10 78 -3 82 -7 3 -16 -18 -23 -54z"/>
<path d="M3482 4295 c-19 -16 -32 -21 -39 -14 -17 17 -29 -11 -42 -96 -7 -44
-24 -113 -37 -154 -27 -81 -29 -136 -4 -136 10 0 21 25 35 82 13 53 25 83 33
83 27 0 73 43 97 91 29 56 33 129 9 153 -20 20 -17 21 -52 -9z m38 -50 c0 -54
-40 -123 -83 -146 -16 -9 -17 -7 -11 18 9 36 51 132 65 150 19 22 29 15 29
-22z"/>
<path d="M2651 4297 c-35 -17 -61 -66 -68 -126 -5 -41 -3 -51 9 -51 10 0 17
14 21 45 9 59 33 105 56 105 21 0 44 23 34 33 -9 10 -25 8 -52 -6z"/>
<path d="M3820 4259 l-45 -52 0 39 c0 46 -22 55 -63 27 -15 -10 -35 -18 -45
-18 -13 0 -24 -19 -42 -70 -28 -78 -31 -105 -12 -105 7 0 21 24 31 52 17 49
89 138 102 126 3 -3 0 -26 -7 -52 -21 -84 -5 -87 62 -15 49 52 59 59 55 39
-17 -84 -18 -140 -2 -164 14 -23 19 -24 48 -14 39 13 68 36 68 55 0 17 -2 17
-45 -9 -30 -17 -38 -19 -45 -7 -9 14 -4 80 11 139 24 94 -3 105 -71 29z"/>
<path d="M2440 4250 c0 -11 7 -37 15 -57 20 -47 19 -66 -5 -88 -27 -24 -41
-10 -47 47 -4 34 -1 49 12 62 14 13 15 20 6 29 -10 9 -17 6 -33 -13 -39 -48
-9 -170 42 -170 23 0 70 48 70 72 0 36 -35 138 -47 138 -7 0 -13 -9 -13 -20z"/>
<path d="M7466 4252 c-3 -5 -11 -42 -17 -83 -16 -104 -22 -115 -65 -126 -52
-12 -59 -37 -9 -31 35 4 36 3 31 -21 -13 -53 -17 -186 -7 -201 15 -21 37 2 24
25 -10 17 -1 109 17 176 11 40 10 39 125 55 28 3 56 11 63 16 21 18 13 30 -15
24 -16 -3 -56 -10 -91 -14 l-63 -9 6 26 c7 26 23 110 27 145 3 20 -16 33 -26
18z"/>
<path d="M6792 4178 c-7 -7 -12 -33 -12 -59 0 -90 -7 -106 -53 -115 -48 -10
-47 -30 1 -28 l34 1 -7 -69 c-6 -57 -5 -70 6 -66 16 5 26 44 28 102 l1 38 65
-7 c65 -7 73 -3 56 24 -7 11 -25 14 -61 12 l-51 -3 6 49 c3 26 8 64 11 84 6
39 -5 56 -24 37z"/>
<path d="M6593 4093 c-32 -6 -65 -51 -57 -77 3 -12 22 -38 42 -58 31 -33 35
-41 26 -64 -13 -37 -56 -68 -83 -59 -23 7 -61 72 -54 92 6 17 -13 25 -26 9
-25 -29 44 -136 87 -136 29 0 84 34 97 61 23 44 18 72 -20 109 -20 19 -35 44
-35 57 0 19 8 25 45 34 26 7 45 17 45 25 0 14 -21 16 -67 7z"/>
<path d="M5770 4010 c-6 -11 -19 -19 -28 -18 -12 2 -18 -8 -25 -42 -4 -25 -14
-66 -22 -91 -19 -58 -19 -69 -1 -69 14 0 40 48 70 131 9 25 23 54 32 65 15 18
15 18 10 -6 -12 -62 -18 -148 -9 -153 14 -9 25 3 73 72 43 61 45 62 51 36 10
-36 28 -55 50 -55 24 0 24 12 -1 35 -14 12 -20 31 -20 57 0 54 -22 48 -78 -22
l-45 -54 7 47 c4 26 4 56 1 67 -8 27 -51 26 -65 0z"/>
<path d="M5550 4000 c-11 -11 -20 -25 -20 -31 0 -8 -5 -8 -15 1 -8 7 -12 17
-8 23 4 6 1 7 -7 2 -8 -5 -10 -21 -6 -51 3 -24 1 -46 -3 -49 -5 -3 -9 -24 -10
-48 0 -44 -17 -179 -27 -210 -3 -11 -12 -16 -22 -13 -65 19 -1389 12 -1408 -7
-4 -4 -3 -11 2 -15 5 -5 229 -5 497 0 557 10 912 1 927 -22 8 -12 13 -13 30
-2 16 10 77 10 298 2 351 -12 661 -13 944 0 316 13 863 29 1278 36 195 3 358
8 363 11 4 2 7 2 7 -1 0 -3 -33 -27 -72 -54 -91 -62 -116 -88 -99 -105 8 -8
16 -8 25 -2 94 67 274 188 286 193 44 15 47 52 4 52 -14 0 -43 9 -66 21 -23
12 -58 27 -80 35 -21 7 -58 27 -82 44 -49 33 -76 38 -76 15 0 -8 5 -15 11 -15
6 0 39 -19 73 -43 33 -23 80 -51 104 -61 36 -17 40 -21 26 -29 -9 -5 -205 -13
-438 -18 -501 -9 -1088 -26 -1386 -39 -253 -11 -811 -13 -991 -4 l-126 7 8 41
c5 23 11 51 14 63 3 13 23 34 44 47 87 56 118 246 40 246 -11 0 -28 -9 -39
-20z m50 -61 c0 -47 -19 -98 -45 -119 -17 -14 -18 -12 -12 54 10 104 57 158
57 65z"/>
<path d="M7215 4006 c-53 -24 -79 -61 -79 -113 -1 -37 3 -48 17 -51 14 -3 17
4 17 47 0 59 24 84 90 95 26 4 40 11 37 19 -5 17 -47 19 -82 3z"/>
<path d="M6973 3997 c-58 -32 -91 -121 -58 -157 23 -26 53 -25 82 1 20 20 23
20 29 5 13 -35 31 -16 30 32 -1 26 3 62 7 80 8 28 6 32 -12 32 -16 0 -22 -8
-27 -39 -8 -51 -54 -107 -78 -98 -29 12 -13 66 31 105 39 34 36 61 -4 39z"/>
<path d="M5263 3956 c-32 -32 -42 -38 -37 -23 11 36 10 42 -6 42 -11 0 -22
-27 -38 -90 -28 -107 -30 -127 -17 -131 6 -2 24 27 42 64 17 37 45 83 62 102
l30 35 1 -63 c0 -103 34 -155 90 -137 31 10 25 36 -7 33 -42 -5 -55 30 -50
130 6 99 -4 104 -70 38z"/>
<path d="M7564 3417 c4 -23 19 -67 34 -97 14 -30 27 -64 27 -75 0 -13 7 -20
20 -20 15 0 21 10 28 43 9 48 14 48 90 10 22 -11 45 -17 53 -14 8 3 14 0 14
-7 1 -12 136 -79 154 -77 5 1 12 -3 15 -8 3 -5 26 -20 51 -32 24 -12 56 -30
70 -40 14 -10 61 -40 105 -68 44 -29 88 -57 99 -64 34 -23 156 -119 156 -123
0 -2 -37 19 -82 46 -46 27 -89 47 -96 44 -7 -3 -11 -1 -8 4 6 8 -122 67 -194
89 -117 36 -207 54 -295 59 -55 3 -103 10 -106 14 -3 5 -43 4 -90 -2 -46 -5
-103 -12 -126 -15 -24 -3 -49 -12 -57 -20 -9 -9 -16 -10 -18 -3 -7 21 -311
-73 -350 -108 -10 -9 -18 -13 -18 -9 0 10 -243 -132 -260 -153 -3 -3 -21 -17
-40 -31 -53 -37 -90 -72 -85 -80 3 -4 -3 -7 -13 -6 -9 0 -16 -5 -14 -12 1 -8
-2 -11 -6 -8 -20 12 -177 -163 -283 -316 -43 -63 -50 -69 -47 -43 5 49 -25 38
-34 -12 -4 -23 -14 -53 -22 -66 -34 -51 -96 -307 -96 -394 0 -35 -5 -38 -44
-24 -17 7 -27 6 -35 -3 -7 -9 1 -31 32 -82 31 -52 41 -80 42 -114 1 -33 4 -44
15 -42 22 5 37 32 32 58 -5 30 23 115 48 142 29 31 26 45 -10 44 -3 0 -16 -3
-29 -7 l-24 -7 7 70 c8 81 64 248 66 197 7 -217 37 -452 73 -590 43 -160 55
-191 122 -330 70 -143 137 -243 231 -344 116 -125 209 -195 360 -272 l134 -69
-47 -1 c-27 -1 -59 -3 -73 -5 -14 -2 -48 -4 -77 -5 -40 -1 -50 -4 -46 -15 8
-22 129 -19 142 4 6 9 11 11 11 5 0 -10 26 -13 94 -13 57 0 107 -5 127 -14 19
-7 81 -19 137 -27 89 -11 105 -10 113 2 7 11 9 11 9 -3 0 -16 11 -18 88 -18
93 0 213 13 327 34 49 9 72 9 77 2 5 -7 12 -5 20 6 7 10 35 22 61 28 136 30
536 217 520 243 -4 6 -1 7 6 3 13 -9 121 58 121 74 0 23 17 7 33 -29 11 -25
15 -49 11 -66 -6 -25 -5 -27 17 -20 13 4 25 11 27 16 2 4 10 5 17 2 10 -3 25
18 49 71 24 53 43 79 60 88 33 14 33 25 1 40 -14 6 -25 17 -25 24 0 18 -29 25
-76 18 -30 -4 -49 -1 -67 11 -24 16 -26 15 -47 -15 -15 -21 -19 -35 -12 -43 5
-7 12 -24 15 -38 6 -23 0 -30 -61 -71 -37 -25 -110 -69 -162 -98 -52 -30 -100
-60 -107 -68 -6 -8 -16 -11 -22 -7 -6 3 21 32 62 64 75 60 131 117 182 186 17
22 35 45 41 50 23 21 143 203 173 262 17 34 45 97 62 140 17 43 42 98 56 122
20 34 23 48 15 61 -6 10 -7 35 -2 66 16 95 18 154 5 154 -8 0 -15 -26 -21 -72
-4 -40 -8 -77 -9 -83 -3 -19 -46 -160 -66 -215 -41 -109 -102 -222 -178 -328
-42 -60 -75 -114 -73 -122 3 -8 0 -10 -8 -5 -14 8 -100 -80 -100 -102 0 -8 -4
-12 -8 -9 -6 4 -126 -81 -189 -134 -7 -6 -15 -10 -18 -9 -17 3 -73 -16 -89
-30 -11 -9 -16 -10 -12 -3 6 9 -3 9 -31 -3 -21 -9 -62 -26 -90 -37 -50 -18
-63 -31 -45 -42 4 -2 45 11 92 29 120 46 130 49 130 33 0 -15 -57 -40 -166
-74 -72 -22 -75 -22 -69 -3 8 24 -10 32 -50 21 -37 -10 -45 -39 -13 -45 18 -3
16 -5 -9 -6 -17 0 -39 -8 -48 -18 -12 -11 -19 -13 -24 -5 -5 9 -17 9 -46 0
-73 -20 -452 -13 -488 9 -6 4 -7 1 -2 -6 5 -9 2 -10 -11 -3 -11 6 -66 27 -124
48 -58 20 -131 50 -162 66 -32 15 -58 25 -58 21 0 -5 -4 -3 -8 3 -4 6 -25 21
-47 32 -71 35 -217 156 -290 238 -86 97 -108 127 -167 229 -163 281 -237 583
-241 976 l-1 156 41 69 c23 38 57 91 77 118 19 27 32 54 29 59 -3 6 -1 7 5 3
6 -3 30 19 55 51 25 32 63 76 86 97 22 22 38 43 35 48 -3 4 1 8 8 8 8 0 47 27
88 61 41 33 83 65 93 71 10 5 16 12 13 15 -3 3 14 15 37 28 23 12 83 45 134
74 146 84 327 145 500 170 40 6 134 11 210 11 158 1 276 -19 438 -75 54 -18
103 -31 109 -28 5 3 6 2 3 -4 -3 -5 22 -23 56 -39 125 -59 288 -181 378 -284
31 -35 57 -56 66 -53 8 3 11 0 8 -9 -4 -9 9 -35 27 -59 141 -186 220 -418 234
-686 3 -79 10 -143 15 -143 14 0 11 172 -6 341 -14 133 -20 164 -48 224 -34
75 -101 195 -114 204 -5 3 -13 17 -19 31 -14 30 -125 182 -167 227 -17 18 -34
30 -38 27 -5 -3 -6 1 -4 8 5 12 -54 78 -69 78 -3 0 -27 21 -55 46 -70 64 -152
124 -162 118 -5 -3 -9 0 -9 5 0 10 -81 66 -215 149 -61 37 -354 179 -389 188
-14 3 -26 8 -26 11 0 13 35 69 53 83 35 29 12 38 -94 39 l-101 0 6 -42z m119
-43 c-6 -17 -23 -9 -23 11 0 8 6 12 14 9 8 -3 12 -12 9 -20z"/>
<path d="M5530 1395 c0 -8 0 -18 0 -22 0 -5 13 -8 28 -8 73 0 125 -82 126
-200 1 -38 -3 -110 -7 -159 -6 -69 -6 -87 4 -84 21 7 29 56 32 183 2 134 -9
187 -49 235 -43 50 -134 88 -134 55z"/>
<path d="M4946 1372 c-3 -5 -8 -50 -12 -101 -5 -72 -11 -94 -23 -98 -52 -16
-71 -27 -71 -40 0 -11 6 -13 20 -9 65 20 60 22 60 -30 1 -96 33 -175 61 -147
9 9 8 16 -4 27 -16 17 -31 104 -25 147 3 22 7 24 51 22 26 -2 47 1 47 7 0 14
-35 30 -66 30 l-27 0 7 68 c12 111 12 125 -1 129 -6 2 -14 0 -17 -5z"/>
<path d="M5300 1329 c-52 -57 -100 -187 -100 -269 0 -45 30 -95 72 -116 35
-18 160 -54 191 -54 34 0 18 29 -20 35 -135 23 -199 57 -209 112 -16 84 63
283 112 283 18 0 15 31 -3 37 -7 3 -26 -10 -43 -28z"/>
<path d="M4723 1305 c-3 -9 -3 -18 0 -22 10 -10 37 6 37 22 0 20 -29 20 -37 0z"/>
<path d="M4410 1207 c0 -8 17 -41 39 -74 l38 -59 -32 -36 c-18 -19 -40 -38
-49 -41 -19 -7 -22 -37 -4 -37 7 0 33 20 58 45 l47 46 53 -56 c58 -58 87 -71
74 -33 -4 12 -29 42 -56 67 l-49 44 34 36 c45 47 61 77 45 87 -7 4 -18 -2 -27
-17 -9 -13 -28 -37 -43 -54 -26 -30 -27 -30 -42 -10 -9 11 -25 39 -37 63 -20
40 -49 57 -49 29z"/>
<path d="M4184 1200 c-25 -10 -84 -118 -84 -156 0 -32 40 -77 85 -94 38 -15
100 -12 143 5 47 20 27 37 -29 23 -50 -13 -122 -2 -143 21 -16 17 -15 19 14
24 63 13 103 81 80 138 -15 36 -38 49 -66 39z m37 -54 c8 -17 8 -29 0 -45 -16
-29 -55 -53 -74 -45 -15 5 -14 10 4 47 38 74 52 83 70 43z"/>
<path d="M2587 1151 c-38 -46 -101 -175 -94 -194 8 -22 27 -22 27 1 0 29 92
184 102 170 4 -7 8 -8 8 -3 0 6 5 3 10 -5 8 -12 10 -11 10 7 0 58 -25 68 -63
24z"/>
<path d="M3452 1160 c-29 -18 -33 -25 -27 -48 3 -15 24 -45 46 -68 35 -36 39
-44 30 -66 -12 -32 -43 -43 -73 -27 -13 7 -25 12 -28 11 -3 -1 -4 8 -2 18 2
13 -2 20 -12 20 -21 0 -20 -8 4 -47 46 -75 150 -38 150 54 0 7 -19 34 -41 58
-47 51 -46 75 1 75 32 0 42 23 14 34 -23 9 -26 8 -62 -14z"/>
<path d="M2352 1138 c-15 -17 -38 -43 -51 -56 -14 -15 -32 -59 -47 -111 -24
-88 -46 -239 -38 -253 18 -29 50 33 59 115 11 94 12 97 47 97 37 0 92 39 114
81 19 38 22 123 4 143 -21 26 -59 19 -88 -16z m66 -38 c5 -48 -4 -75 -39 -109
-30 -30 -89 -44 -89 -21 0 18 48 106 76 139 32 38 48 36 52 -9z"/>
<path d="M3663 1158 c-21 -10 -33 -35 -33 -72 0 -10 25 -43 56 -73 45 -44 53
-57 44 -69 -20 -23 -68 -17 -96 13 -20 22 -27 24 -34 13 -14 -22 6 -47 54 -65
38 -15 48 -15 72 -3 60 29 54 82 -17 130 -32 23 -39 34 -39 62 0 34 13 46 50
46 10 0 20 7 24 15 4 11 -2 15 -27 14 -18 0 -42 -5 -54 -11z"/>
<path d="M3030 1136 c-36 -11 -80 -65 -80 -97 0 -42 83 -109 135 -109 38 0 26
20 -20 36 -37 12 -85 54 -85 74 0 5 12 22 26 39 18 22 35 31 55 31 31 0 37 11
17 28 -9 7 -24 6 -48 -2z"/>
<path d="M4715 1138 c-6 -20 -7 -38 -6 -105 1 -49 4 -63 16 -63 17 0 17 1 15
86 -1 55 1 62 20 67 12 3 19 10 15 16 -9 15 -55 14 -60 -1z"/>
<path d="M2780 1125 c0 -8 6 -15 13 -15 6 -1 -2 -7 -18 -14 -52 -23 -75 -115
-37 -149 29 -26 65 -21 100 16 41 43 42 80 2 135 -30 42 -60 55 -60 27z m54
-71 c11 -29 6 -50 -18 -73 -33 -31 -60 -24 -64 16 -5 53 65 101 82 57z"/>
<path d="M3212 1096 c-47 -51 -55 -93 -25 -136 23 -34 33 -40 68 -40 33 0 49
8 53 28 1 9 -8 11 -37 6 -33 -5 -41 -3 -55 17 -22 32 -21 34 17 34 26 0 35 6
48 33 19 37 12 95 -12 100 -9 1 -34 -18 -57 -42z m44 -41 c-4 -14 -13 -25 -21
-25 -26 0 -27 21 -4 46 25 27 35 18 25 -21z"/>
<path d="M3865 960 c-9 -15 4 -30 26 -30 23 0 26 25 3 34 -21 8 -22 8 -29 -4z"/>
<path d="M3505 575 c-135 -112 -135 -112 -147 -92 -11 20 -48 23 -48 4 0 -7 5
-18 12 -25 8 -8 8 -15 -1 -26 -7 -8 -10 -20 -6 -26 9 -14 32 -13 39 3 5 13 9
9 96 -102 30 -39 61 -68 68 -66 6 2 12 -4 12 -13 0 -25 55 -77 65 -62 4 6 -18
40 -52 78 -91 103 -174 220 -130 183 8 -6 17 -7 23 -2 5 5 149 11 319 14 171
3 290 2 265 -1 -33 -5 -46 -12 -48 -26 -4 -17 0 -18 35 -11 21 4 62 7 92 6 46
-1 52 1 41 14 -9 11 -9 15 -1 15 6 0 14 -6 17 -13 6 -15 144 -22 144 -6 0 6 6
6 19 -1 27 -14 38 -13 45 6 4 11 2 15 -8 11 -7 -3 -23 1 -35 9 -33 24 -279 35
-601 28 l-285 -6 25 27 c14 15 52 48 85 73 65 50 76 62 69 74 -9 14 -17 9
-109 -67z"/>
<path d="M4876 453 c-3 -4 -32 -5 -63 -4 -38 2 -59 -2 -64 -11 -7 -10 -9 -10
-9 0 0 9 -42 12 -179 12 -159 -1 -179 -3 -183 -18 -4 -16 8 -17 146 -13 93 2
154 7 158 14 4 7 11 7 22 -2 11 -9 43 -12 118 -8 130 6 343 8 668 7 140 0 269
2 286 6 19 3 34 2 38 -5 10 -15 202 -15 212 0 4 7 9 7 13 2 3 -6 19 -13 34
-17 24 -6 28 -4 25 11 -3 16 -17 18 -117 21 -85 2 -117 -1 -123 -10 -6 -10
-10 -10 -17 2 -13 18 -261 27 -261 9 0 -8 -4 -8 -13 -1 -14 12 -679 16 -691 5z"/>
<path d="M3776 424 c-4 -11 11 -14 79 -14 47 0 88 0 93 -1 4 0 8 7 10 16 3 13
-10 15 -87 14 -67 -1 -91 -5 -95 -15z"/>
<path d="M6117 425 c4 -13 20 -15 87 -12 44 2 92 9 106 15 20 9 3 11 -87 11
-97 1 -112 -1 -106 -14z"/>
<path d="M6333 423 c-15 -12 -13 -13 13 -13 17 0 35 5 41 11 8 8 13 7 18 -2 5
-8 4 -10 -3 -5 -7 4 -12 3 -12 -2 0 -12 155 -15 308 -6 76 5 112 10 109 18 -6
17 -451 15 -474 -1z"/>
<path d="M6830 425 c7 -9 16 -12 19 -7 3 5 13 12 21 15 8 3 0 6 -19 6 -29 1
-32 -1 -21 -14z"/>
<path d="M6878 413 c6 -2 18 -2 25 0 6 3 1 5 -13 5 -14 0 -19 -2 -12 -5z"/>
</g>
</svg>
