<?xml version="1.0" standalone="no"?>
<!DOCTYPE svg PUBLIC "-//W3C//DTD SVG 20010904//EN"
 "http://www.w3.org/TR/2001/REC-SVG-20010904/DTD/svg10.dtd">
<svg version="1.0" xmlns="http://www.w3.org/2000/svg"
 width="1618.000000pt" height="1214.000000pt" viewBox="0 0 1618.000000 1214.000000"
 preserveAspectRatio="xMidYMid meet">

<g transform="translate(0.000000,1214.000000) scale(0.100000,-0.100000)"
fill="#000000" stroke="none">
<path d="M3990 11673 c0 -27 -10 -88 -22 -136 l-23 -89 -37 6 c-39 6 -59 -7
-39 -27 8 -8 16 -9 29 -1 29 18 39 -4 34 -79 -4 -57 -2 -67 12 -67 12 0 16 10
16 43 0 68 9 87 39 88 40 1 96 24 96 40 0 8 -7 12 -15 10 -8 -2 -32 -8 -53
-14 -21 -5 -41 -7 -45 -3 -3 4 4 46 16 94 12 48 22 98 22 113 0 14 5 30 11 36
15 15 3 33 -22 33 -16 0 -19 -7 -19 -47z"/>
<path d="M7857 11713 c-4 -3 -7 -21 -7 -38 0 -18 -7 -49 -15 -69 -9 -20 -22
-71 -30 -112 -8 -42 -20 -83 -27 -91 -15 -19 -22 -123 -8 -123 6 0 13 6 16 14
4 11 12 13 29 6 52 -20 120 34 132 104 9 55 -44 84 -98 55 -19 -10 -20 -8 -13
28 3 21 15 64 25 95 11 32 19 66 19 77 0 11 5 21 12 23 15 5 3 38 -15 38 -8 0
-17 -3 -20 -7z m61 -294 c1 -8 -8 -31 -20 -50 -18 -25 -32 -35 -56 -37 -26 -3
-32 0 -32 15 0 21 25 61 49 81 20 16 55 12 59 -9z"/>
<path d="M10976 11707 c-43 -13 -62 -36 -53 -61 9 -23 37 -20 37 4 0 24 55 41
107 33 29 -5 38 -13 50 -41 8 -19 12 -45 9 -57 -3 -12 -46 -56 -95 -98 -69
-58 -93 -86 -106 -121 -19 -49 -12 -91 18 -110 24 -16 29 -3 11 33 -15 29 -14
34 6 76 14 29 44 62 88 97 84 66 100 85 108 125 8 40 -29 123 -54 123 -10 0
-33 2 -52 5 -19 2 -53 -1 -74 -8z"/>
<path d="M5667 11703 c-3 -5 -13 -47 -22 -93 -25 -136 -45 -212 -66 -259 -23
-52 -23 -61 -5 -61 13 0 51 54 98 139 20 37 38 40 38 7 0 -14 5 -37 10 -51 9
-22 15 -26 39 -23 28 4 28 4 23 -44 -5 -56 15 -88 56 -88 39 0 142 41 142 56
0 19 -10 18 -70 -6 -28 -11 -59 -20 -70 -20 -43 0 -35 115 10 137 40 20 66 83
34 83 -23 0 -74 -32 -74 -47 0 -12 -37 -43 -52 -43 -4 0 -11 18 -14 41 -4 22
-14 49 -23 60 l-16 20 -28 -21 -28 -22 5 23 c27 128 37 202 28 211 -5 5 -12 6
-15 1z"/>
<path d="M13217 11703 c-4 -3 -7 -14 -7 -24 0 -27 -32 -102 -39 -92 -3 4 -15
13 -26 19 -22 12 -26 10 -121 -81 -64 -62 -78 -109 -48 -165 10 -19 29 -39 42
-45 27 -12 27 -12 2 -77 -11 -29 -20 -56 -20 -60 0 -7 30 -12 30 -5 0 1 9 27
19 57 16 49 23 57 63 77 86 41 115 102 87 181 -9 27 -6 43 21 113 29 76 33
109 12 109 -5 0 -12 -3 -15 -7z m-68 -161 c8 -14 -1 -40 -40 -115 -28 -53 -53
-97 -57 -97 -13 1 -39 25 -51 48 -20 37 -4 78 52 132 54 53 80 62 96 32z m31
-115 c0 -18 -10 -39 -29 -58 -46 -46 -54 -34 -20 32 16 34 28 68 25 78 -5 12
-2 11 9 -3 8 -11 15 -33 15 -49z"/>
<path d="M5419 11698 c0 -2 -2 -39 -3 -83 -1 -44 -5 -86 -9 -93 -5 -7 -31 -12
-68 -12 -80 0 -77 -24 4 -28 l56 -3 -6 -37 c-3 -20 -14 -68 -23 -107 -10 -38
-15 -73 -12 -77 17 -18 32 14 51 106 11 54 22 100 24 102 2 3 24 8 47 12 62
10 67 35 6 31 -52 -5 -50 -10 -37 96 8 58 0 95 -19 95 -6 0 -10 -1 -11 -2z"/>
<path d="M7115 11663 c-7 -37 -18 -84 -71 -286 -14 -55 -24 -108 -22 -118 7
-46 25 -13 49 93 15 62 36 147 47 188 12 41 22 93 24 114 4 52 -19 60 -27 9z"/>
<path d="M7250 11668 c0 -48 -17 -102 -58 -188 -29 -61 -36 -87 -36 -140 -1
-50 2 -65 14 -67 12 -3 15 9 16 59 0 52 8 79 44 158 33 72 43 107 44 149 1 35
-3 55 -11 58 -9 3 -13 -6 -13 -29z"/>
<path d="M8590 11664 c0 -14 -13 -93 -30 -176 -42 -208 -39 -255 9 -204 20 22
21 25 6 33 -12 7 -14 17 -10 36 4 15 12 27 17 27 5 0 24 10 40 22 31 21 31 21
67 2 43 -23 61 -55 61 -111 0 -39 13 -63 28 -49 10 10 2 97 -12 130 -7 18 -29
40 -49 51 -21 11 -37 22 -37 26 0 7 134 119 168 140 24 15 30 39 9 39 -16 0
-137 -98 -137 -110 0 -6 -6 -10 -13 -10 -8 0 -24 -11 -37 -25 -13 -14 -29 -25
-36 -25 -6 0 -19 -12 -29 -26 -9 -14 -19 -23 -22 -21 -2 3 2 41 11 84 20 107
26 160 20 178 -10 24 -24 17 -24 -11z"/>
<path d="M15084 11582 c-41 -75 -54 -91 -77 -96 -30 -6 -33 -33 -3 -28 22 4
21 3 -22 -72 -37 -64 -39 -66 -55 -48 -9 10 -17 29 -17 41 0 33 28 88 56 110
13 10 24 24 24 30 0 20 -26 12 -52 -16 -62 -67 -76 -146 -33 -189 24 -24 25
-26 9 -57 -9 -18 -25 -39 -35 -47 -13 -10 -17 -22 -13 -37 11 -39 29 -25 64
47 28 57 38 70 57 70 89 0 152 120 96 182 -14 15 -11 24 28 97 32 60 41 83 32
92 -8 8 -23 -12 -59 -79z m-14 -177 c0 -25 -8 -40 -31 -59 -49 -42 -66 -34
-36 17 13 23 30 52 36 65 16 30 31 19 31 -23z"/>
<path d="M13346 11638 c-16 -25 -18 -31 -37 -168 -7 -47 -18 -100 -26 -118 -7
-18 -11 -38 -7 -44 4 -7 3 -8 -4 -4 -12 7 -14 1 -16 -57 -5 -97 66 102 88 247
8 58 21 114 28 125 9 15 10 23 1 32 -8 8 -15 5 -27 -13z"/>
<path d="M9685 11618 c-8 -18 -20 -59 -27 -90 -8 -41 -17 -58 -31 -62 -24 -6
-17 -30 9 -34 20 -3 20 -6 8 -80 -13 -82 -10 -100 11 -82 8 6 16 44 20 86 l7
74 57 0 c68 0 101 8 101 25 0 8 -21 10 -80 7 -73 -4 -80 -3 -80 14 0 35 29
126 44 143 21 23 20 31 -4 31 -14 0 -26 -11 -35 -32z"/>
<path d="M10377 11643 c-5 -8 -14 -100 -22 -241 -3 -46 -6 -86 -6 -90 -3 -20
3 -32 16 -32 11 0 15 11 15 39 0 39 20 71 44 71 19 0 109 -32 132 -47 12 -8
27 -27 34 -43 7 -17 19 -30 26 -30 18 0 18 14 -1 50 -18 35 -57 63 -113 81
l-43 14 61 40 c33 21 70 55 81 74 29 48 9 61 -26 16 -27 -37 -111 -96 -161
-115 l-27 -11 7 110 c4 66 2 112 -3 115 -5 4 -12 3 -14 -1z"/>
<path d="M2130 11619 c-25 -4 -89 -8 -142 -9 -74 -1 -98 -4 -98 -14 0 -20 65
-26 165 -16 50 5 94 10 99 10 5 0 -10 -21 -34 -47 -58 -65 -202 -293 -196
-309 6 -15 35 -20 37 -6 3 27 15 49 81 152 41 63 91 133 112 155 21 22 42 48
47 57 13 25 -16 36 -71 27z"/>
<path d="M2982 11583 c-58 -44 -69 -63 -37 -63 8 0 34 17 59 39 34 29 50 37
70 34 37 -8 34 -40 -15 -128 -44 -80 -57 -157 -29 -162 8 -2 44 24 80 58 l65
60 5 -55 c6 -65 28 -96 67 -96 34 1 84 42 108 90 22 43 28 190 8 197 -9 3 -13
-9 -13 -40 0 -85 -18 -149 -52 -184 -52 -53 -88 -37 -88 41 0 19 -6 37 -12 39
-10 4 -10 6 0 6 17 1 16 51 -2 51 -8 0 -45 -29 -83 -64 -37 -35 -70 -62 -73
-60 -2 3 19 50 48 105 29 55 52 107 52 115 0 23 -46 64 -73 64 -13 0 -51 -21
-85 -47z"/>
<path d="M3485 11610 c-3 -5 -5 -24 -4 -42 2 -46 -8 -123 -25 -197 -14 -62
-13 -91 5 -91 5 0 13 10 18 23 11 28 79 107 92 107 7 0 8 -26 3 -70 -5 -57 -4
-70 7 -70 10 0 18 22 26 72 6 39 9 77 6 84 -13 34 -60 23 -101 -24 l-24 -27 6
25 c10 49 25 203 20 211 -7 12 -21 11 -29 -1z"/>
<path d="M15593 11585 c-38 -16 -43 -46 -18 -95 14 -27 14 -30 -5 -40 -27 -15
-52 -65 -45 -93 8 -32 50 -75 80 -83 43 -11 58 12 52 76 -3 30 -9 67 -12 81
-6 25 -2 29 57 60 56 30 63 37 63 64 0 25 -4 30 -24 30 -13 0 -26 -6 -28 -12
-3 -7 3 -13 13 -13 16 0 16 -2 4 -14 -12 -12 -107 -66 -115 -66 -2 0 -8 13
-15 29 -16 40 -5 54 36 46 26 -4 34 -3 34 9 0 9 -9 20 -19 26 -23 12 -19 12
-58 -5z m27 -193 c7 -20 10 -50 8 -64 -3 -26 -5 -27 -28 -15 -48 24 -56 82
-16 109 19 13 25 9 36 -30z"/>
<path d="M4600 11577 c0 -20 9 -25 31 -20 28 8 24 33 -6 33 -14 0 -25 -6 -25
-13z"/>
<path d="M14087 11573 c-3 -3 -1 -15 5 -28 9 -20 5 -30 -30 -73 l-40 -51 -28
30 c-28 29 -28 30 -10 59 16 28 16 31 1 36 -22 9 -35 -6 -42 -49 -5 -32 -2
-40 25 -65 l31 -29 -34 -33 c-44 -43 -60 -81 -45 -109 16 -31 62 -27 103 9 38
33 52 78 35 114 -9 22 -6 30 36 79 25 30 46 61 46 69 0 17 -44 51 -53 41z
m-53 -208 c14 -38 -44 -105 -80 -91 -15 6 -15 9 1 34 22 34 56 72 66 72 4 0 9
-7 13 -15z"/>
<path d="M14633 11541 c-40 -19 -74 -63 -60 -77 3 -4 22 7 42 25 20 17 40 31
45 31 4 0 15 3 24 6 41 16 -4 -99 -66 -168 -18 -21 -38 -38 -43 -38 -14 0 -65
-52 -65 -67 0 -24 29 -13 87 34 53 43 58 45 67 28 29 -52 96 -97 96 -65 0 5 6
7 14 4 16 -6 30 11 21 26 -4 7 -12 7 -18 2 -24 -17 -62 1 -77 38 -7 16 -18 31
-26 34 -11 4 -9 13 10 41 38 56 61 124 49 144 -15 23 -52 24 -100 2z"/>
<path d="M15358 11471 c-4 -65 -11 -101 -27 -131 -11 -22 -21 -47 -21 -55 0
-21 29 -19 36 3 4 9 12 31 20 48 13 31 19 61 29 167 5 51 3 57 -14 57 -16 0
-19 -11 -23 -89z"/>
<path d="M13762 11538 c-8 -8 -9 -15 -1 -25 8 -9 7 -30 -4 -75 -33 -136 -41
-198 -29 -210 9 -9 13 -8 16 3 14 38 65 302 60 310 -7 13 -28 11 -42 -3z"/>
<path d="M8352 11490 c-70 -43 -114 -156 -76 -194 20 -21 83 -20 113 0 29 21
14 41 -18 24 -36 -19 -76 -9 -79 20 -4 34 51 114 88 130 17 7 30 19 30 26 0
19 -19 17 -58 -6z"/>
<path d="M9458 11490 c-49 -26 -49 -49 2 -104 44 -47 48 -61 24 -70 -35 -14
-64 -6 -74 19 -12 33 -44 35 -34 3 11 -38 35 -58 70 -58 94 0 111 47 44 123
l-41 46 30 16 c17 8 40 15 51 15 30 0 20 24 -11 27 -13 2 -41 -6 -61 -17z"/>
<path d="M6664 11455 c-42 -45 -62 -105 -46 -140 15 -32 54 -48 88 -35 33 13
22 30 -21 30 -24 0 -35 5 -40 19 -8 26 16 80 49 111 23 21 30 22 46 12 26 -16
30 -15 30 7 0 10 -7 22 -16 25 -33 13 -58 5 -90 -29z"/>
<path d="M10164 11447 c-80 -80 -67 -137 33 -137 40 0 53 4 53 15 0 11 -12 15
-49 15 -28 0 -53 5 -56 10 -12 19 39 85 83 109 13 7 20 16 17 22 -12 19 -39 8
-81 -34z"/>
<path d="M6836 11415 c-48 -59 -50 -63 -40 -89 8 -22 40 -20 80 5 l34 21 0
-36 c0 -33 13 -55 23 -39 3 5 8 38 12 76 5 55 4 67 -8 67 -8 0 -17 -7 -20 -15
-7 -16 -85 -70 -92 -63 -8 8 69 98 83 98 18 0 9 24 -10 28 -10 2 -35 -20 -62
-53z"/>
<path d="M8041 11444 c-41 -34 -58 -96 -36 -130 20 -30 48 -30 101 0 l41 23
11 -29 c8 -22 16 -29 33 -26 25 3 39 28 16 28 -22 0 -30 34 -22 86 5 36 3 44
-9 44 -9 0 -18 -11 -22 -25 -8 -31 -78 -95 -104 -95 -16 0 -20 7 -20 35 0 59
64 107 98 73 9 -9 13 -7 18 6 16 41 -60 49 -105 10z"/>
<path d="M3735 11444 c-9 -9 -27 -38 -41 -66 -41 -82 -12 -114 57 -62 32 24
34 24 37 5 4 -27 28 -45 49 -36 17 6 17 7 0 19 -15 12 -16 19 -6 66 14 67 0
85 -29 38 -18 -29 -49 -58 -90 -82 -7 -4 -2 15 13 43 14 29 32 54 40 58 19 7
19 33 1 33 -8 0 -22 -7 -31 -16z"/>
<path d="M4535 11440 c-4 -6 -2 -17 4 -24 16 -19 3 -96 -15 -96 -15 0 -18 -18
-8 -44 16 -42 50 14 60 97 6 49 4 56 -14 66 -14 8 -23 8 -27 1z"/>
<path d="M4713 11443 c-18 -7 -16 -68 3 -105 16 -31 12 -78 -7 -78 -6 0 -16
14 -22 30 -13 33 -37 41 -37 11 0 -26 38 -71 60 -71 11 0 27 11 36 25 17 27
15 58 -7 113 -13 30 -12 35 5 47 29 22 6 43 -31 28z"/>
<path d="M9894 11431 c-38 -23 -74 -68 -74 -92 0 -43 78 -63 134 -34 27 14 30
14 43 -5 17 -23 43 -27 43 -5 0 8 -5 15 -11 15 -12 0 -8 69 6 103 5 12 2 17
-9 17 -10 0 -23 -14 -31 -33 -23 -56 -77 -87 -124 -72 -28 9 -26 21 9 56 21
22 36 29 50 24 24 -8 40 22 19 36 -19 12 -20 12 -55 -10z"/>
<path d="M14157 11295 c-37 -26 -45 -39 -29 -49 12 -7 93 54 86 65 -8 14 -16
11 -57 -16z"/>
<path d="M13420 11265 c0 -8 7 -15 15 -15 8 0 15 7 15 15 0 8 -7 15 -15 15 -8
0 -15 -7 -15 -15z"/>
<path d="M2119 11268 c-1 -2 -3 -15 -5 -30 -2 -22 1 -28 15 -28 28 0 46 26 31
45 -10 13 -37 21 -41 13z"/>
<path d="M10964 11049 c-12 -20 12 -32 35 -17 11 7 21 16 21 20 0 12 -48 9
-56 -3z"/>
<path d="M15643 10510 c-27 -11 -33 -60 -8 -60 8 0 15 6 15 14 0 19 46 29 70
16 21 -11 36 -67 26 -102 -3 -13 -30 -49 -61 -81 -78 -83 -91 -151 -39 -208
11 -12 12 -23 5 -41 -7 -18 -5 -45 5 -90 15 -64 15 -65 -16 -149 -41 -111 -54
-129 -89 -129 -16 0 -31 6 -35 15 -8 21 -26 19 -26 -4 0 -23 17 -37 54 -44 39
-7 69 14 89 61 74 178 71 167 57 240 -16 88 -12 106 25 112 44 8 38 33 -9 41
-45 7 -56 21 -56 71 0 36 30 85 72 115 52 40 74 133 43 192 -19 39 -71 51
-122 31z"/>
<path d="M11804 10406 c-53 -52 -52 -66 7 -197 52 -114 52 -209 0 -209 -19 0
-71 -43 -71 -59 0 -18 18 -21 46 -6 15 8 30 12 32 10 2 -2 -8 -28 -23 -58 -34
-72 -60 -200 -51 -261 10 -67 38 -83 113 -66 48 12 75 32 61 45 -3 3 -28 -2
-57 -11 -60 -17 -76 -11 -86 37 -10 45 14 165 47 238 30 64 36 84 57 183 11
53 5 76 -48 188 -37 78 -40 119 -8 148 26 25 87 41 87 23 0 -13 26 -15 35 -2
10 17 -26 41 -62 41 -29 0 -44 -8 -79 -44z"/>
<path d="M7273 10424 c-48 -24 -71 -82 -84 -210 -6 -60 -13 -115 -15 -121 -2
-7 -18 -13 -36 -13 -39 0 -63 -13 -54 -28 4 -7 24 -9 50 -6 l44 6 5 -39 c3
-21 5 -51 6 -66 0 -16 8 -35 16 -43 14 -14 15 -6 11 76 l-4 91 29 6 c32 6 44
17 34 32 -3 6 -18 6 -36 1 l-31 -9 7 87 c4 48 15 109 24 136 25 77 89 109 106
55 8 -23 23 -25 32 -2 4 10 -3 24 -21 40 -32 27 -40 28 -83 7z"/>
<path d="M3804 10361 c3 -21 3 -66 0 -99 -7 -65 -3 -62 -93 -80 -19 -4 -36
-13 -39 -21 -4 -12 6 -13 56 -8 l60 6 -4 -62 c-3 -34 -6 -86 -9 -115 -3 -46
-1 -53 13 -50 14 3 18 21 23 108 4 58 7 109 8 114 0 5 17 6 37 3 40 -7 88 8
79 23 -4 6 -14 10 -23 9 -10 -1 -32 -1 -51 0 l-34 1 6 68 c8 84 0 142 -21 142
-11 0 -13 -8 -8 -39z"/>
<path d="M6767 10377 c-3 -7 1 -31 9 -52 57 -165 67 -258 33 -330 -35 -74 -85
-74 -76 1 6 54 24 79 43 63 21 -17 31 18 11 38 -26 27 -63 -6 -82 -71 -15 -50
-15 -58 0 -85 32 -63 111 -29 140 60 22 66 16 157 -18 261 -17 53 -21 78 -13
81 7 3 4 12 -8 26 -22 24 -32 26 -39 8z"/>
<path d="M7451 10355 c-37 -42 -59 -116 -63 -208 l-3 -68 -43 -11 c-31 -8 -42
-15 -39 -27 3 -16 7 -16 60 0 l29 8 -2 -97 c-3 -120 -3 -117 15 -102 11 9 15
35 15 106 0 87 1 94 20 94 26 0 25 12 -1 36 -19 17 -21 27 -17 90 3 48 13 88
29 120 21 43 27 49 52 46 32 -4 38 21 8 38 -27 14 -25 14 -60 -25z"/>
<path d="M3305 10360 c-3 -5 -4 -14 -1 -18 2 -4 -4 -89 -14 -187 -24 -218 -24
-215 -5 -215 9 0 18 8 21 18 16 49 39 93 60 112 36 35 46 18 38 -66 -6 -62 -4
-74 8 -74 21 0 35 138 18 169 -17 33 -63 28 -95 -11 l-26 -33 5 45 c24 198 28
241 23 255 -7 17 -23 20 -32 5z"/>
<path d="M9958 10365 c-3 -3 -3 -64 0 -136 l5 -130 -61 6 c-39 3 -63 1 -67 -6
-11 -16 -1 -20 62 -26 l58 -5 -6 -87 c-6 -93 -4 -111 16 -111 9 0 13 23 14 84
1 47 4 92 7 100 3 8 26 17 54 21 49 7 90 28 78 40 -6 6 -43 0 -108 -16 -12 -3
-16 9 -18 61 -2 36 -8 68 -15 72 -9 6 -8 8 2 8 11 0 13 12 8 56 -6 54 -17 81
-29 69z"/>
<path d="M15197 10363 c-15 -14 -6 -33 16 -33 13 0 42 -13 64 -29 90 -65 122
-220 68 -328 -14 -28 -48 -72 -75 -97 -28 -26 -50 -48 -50 -50 0 -2 7 -7 16
-10 21 -8 105 79 135 140 32 67 38 175 13 245 -23 62 -73 123 -125 149 -41 21
-52 24 -62 13z"/>
<path d="M2870 10352 c-35 -11 -110 -75 -110 -93 0 -27 6 -24 57 21 31 27 55
40 74 40 35 0 36 -5 3 -82 -30 -71 -64 -199 -64 -239 0 -61 30 -44 115 67 28
37 29 38 35 14 3 -13 11 -25 18 -28 10 -3 12 8 10 44 -3 52 -23 69 -37 32 -6
-12 -10 -17 -10 -10 -1 21 -18 5 -57 -54 -20 -30 -38 -53 -40 -52 -8 8 27 139
55 207 26 61 40 121 28 121 -1 0 -16 4 -32 8 -17 5 -37 7 -45 4z"/>
<path d="M5706 10299 c-3 -34 -6 -131 -6 -215 0 -130 2 -154 15 -154 8 0 15 8
16 18 3 73 13 122 31 161 19 44 21 45 28 21 5 -14 11 -46 15 -73 7 -50 35 -87
67 -87 10 0 23 -11 29 -23 14 -31 60 -57 101 -59 52 -2 97 12 108 32 14 26 -4
35 -32 16 -38 -27 -131 -15 -144 18 -3 7 5 25 19 39 13 14 32 42 43 62 l19 37
-24 19 c-48 39 -87 10 -98 -71 -4 -30 -10 -40 -22 -38 -21 4 -41 46 -41 89 0
47 -19 99 -35 99 -7 0 -24 -13 -38 -30 l-25 -29 -4 42 c-2 23 -1 58 4 77 12
56 10 110 -6 110 -9 0 -15 -20 -20 -61z m262 -222 c2 -9 -8 -29 -22 -44 -29
-31 -34 -19 -15 36 12 33 32 37 37 8z"/>
<path d="M5525 10327 c-4 -9 -2 -24 5 -32 17 -20 8 -164 -11 -175 -16 -11
-106 -2 -136 12 -26 13 -38 6 -30 -16 7 -17 24 -22 111 -31 l58 -7 -4 -99 c-3
-90 -2 -99 14 -99 16 0 18 10 18 89 0 115 3 121 52 121 47 0 78 15 78 36 0 12
-5 14 -17 8 -10 -4 -38 -9 -62 -12 -38 -4 -42 -2 -38 14 6 19 10 86 8 135 -1
15 -10 37 -20 50 -18 22 -20 22 -26 6z"/>
<path d="M1940 10308 c-78 -40 -79 -90 -5 -181 25 -31 45 -59 45 -63 0 -3 -16
-24 -35 -45 -56 -63 -44 -91 44 -105 30 -5 47 -2 66 10 32 21 32 53 1 99 l-25
36 45 66 c27 41 44 78 44 96 0 29 -6 33 -47 29 -14 -1 -23 4 -23 13 0 15 -44
67 -57 67 -5 0 -29 -10 -53 -22z m84 -61 c17 -32 24 -37 43 -32 13 3 23 2 23
-3 0 -12 -56 -98 -69 -106 -6 -4 -9 -13 -5 -19 9 -20 -56 56 -83 95 -29 43
-26 79 9 96 38 18 61 10 82 -31z m22 -271 c8 -25 -14 -38 -56 -30 -51 8 -53
16 -18 58 l31 38 18 -23 c10 -13 21 -32 25 -43z"/>
<path d="M3144 10309 c4 -13 10 -75 13 -136 6 -121 -7 -183 -48 -224 -28 -28
-64 -7 -85 47 -20 54 -46 68 -37 21 10 -53 32 -87 68 -104 31 -15 36 -15 60 1
15 10 38 42 52 72 22 48 25 68 23 152 -2 137 -11 186 -34 190 -16 3 -18 0 -12
-19z"/>
<path d="M13271 10322 c-1 -7 -5 -11 -9 -8 -4 2 -41 -7 -82 -20 -53 -18 -87
-24 -117 -20 -32 4 -43 2 -43 -8 0 -16 30 -26 78 -26 37 0 36 5 23 -143 -9
-98 5 -197 28 -205 12 -4 13 5 6 49 -10 67 -10 79 -1 211 l8 106 41 11 c52 13
81 33 74 52 -4 10 -6 11 -6 1z"/>
<path d="M14931 10274 c-51 -58 -75 -129 -75 -219 0 -77 14 -113 61 -157 30
-28 94 -58 125 -58 32 0 17 32 -16 36 -38 4 -102 47 -120 81 -25 50 -29 107
-11 175 19 74 58 140 79 132 16 -6 36 24 29 44 -9 23 -31 12 -72 -34z"/>
<path d="M7007 10294 c-8 -8 21 -44 35 -44 5 0 8 10 6 22 -3 23 -27 35 -41 22z"/>
<path d="M9375 10276 c-15 -22 -16 -36 -7 -108 6 -46 9 -118 7 -160 -3 -51 0
-80 7 -84 7 -4 14 -2 16 4 2 8 12 6 29 -8 34 -27 85 -26 118 3 30 26 42 83 28
137 -8 29 -15 37 -46 44 -44 11 -84 -6 -101 -44 -10 -21 -12 -12 -21 70 -6 52
-7 108 -3 125 11 40 -6 53 -27 21z m163 -207 c16 -10 17 -19 11 -63 -12 -74
-60 -99 -107 -56 -21 20 -21 22 -7 58 29 68 61 87 103 61z"/>
<path d="M14349 10273 c-6 -16 -15 -49 -21 -75 -11 -44 -13 -47 -46 -50 -49
-4 -55 -28 -8 -28 l36 0 1 -62 c0 -82 17 -129 51 -145 36 -18 58 -7 58 29 0
24 -4 29 -17 25 -10 -2 -24 -6 -32 -8 -18 -5 -29 31 -30 103 -1 49 2 58 20 63
11 4 23 4 26 1 10 -9 32 14 27 28 -3 8 -16 11 -35 8 -29 -4 -30 -3 -23 24 4
16 13 44 20 63 18 43 18 51 -1 51 -9 0 -20 -12 -26 -27z"/>
<path d="M12849 10200 c-11 -57 -13 -60 -41 -60 -23 0 -29 -4 -26 -17 2 -10
12 -18 23 -18 17 0 21 -9 26 -65 3 -36 11 -75 17 -87 24 -44 110 -42 152 2 28
30 11 34 -38 9 -65 -32 -102 -1 -102 89 0 51 1 51 74 73 42 13 46 34 6 29 -18
-3 -41 -7 -51 -10 -23 -8 -23 -2 -5 58 14 47 12 57 -10 57 -8 0 -18 -24 -25
-60z"/>
<path d="M13940 10238 c1 -18 25 -48 39 -48 15 0 14 33 -1 48 -16 16 -38 15
-38 0z"/>
<path d="M4600 10206 c0 -20 27 -39 46 -32 15 6 15 8 -1 26 -21 23 -45 26 -45
6z"/>
<path d="M10357 10203 c-15 -14 -7 -53 11 -54 10 0 12 -3 5 -6 -9 -3 -13 -29
-13 -78 0 -86 -12 -127 -35 -119 -14 6 -32 54 -37 103 -5 43 -27 34 -51 -21
-28 -62 -74 -121 -89 -112 -6 4 -8 38 -6 83 2 62 0 76 -12 76 -12 0 -16 -16
-18 -75 -3 -79 10 -120 38 -120 19 0 70 51 99 100 l21 35 0 -28 c0 -30 39 -77
63 -77 19 0 51 36 43 49 -3 5 -1 11 6 13 14 5 12 181 -2 186 -6 2 -6 10 0 21
12 24 -5 42 -23 24z"/>
<path d="M7740 10127 c-25 -56 -33 -242 -11 -242 10 0 14 24 17 93 2 51 11
109 19 128 12 29 19 34 46 34 27 0 30 2 19 15 -7 8 -26 15 -42 15 -25 0 -32
-6 -48 -43z"/>
<path d="M9662 10143 c-7 -3 -23 -26 -35 -51 -17 -35 -21 -57 -16 -85 10 -60
37 -80 114 -85 60 -4 65 -3 58 14 -6 17 -5 17 10 5 15 -12 17 -11 17 2 0 14
-10 15 -64 10 -56 -5 -66 -3 -85 16 -29 29 -26 46 10 61 61 26 76 63 39 100
-21 21 -26 22 -48 13z m28 -52 c0 -17 -27 -37 -37 -27 -7 7 17 46 27 46 6 0
10 -9 10 -19z"/>
<path d="M3526 10110 c-43 -38 -71 -103 -56 -130 13 -24 58 -27 86 -5 27 20
34 19 34 -9 0 -20 16 -36 36 -36 2 0 1 12 -2 27 -9 34 -9 36 0 100 11 84 -34
109 -98 53z m70 -26 c-4 -14 -13 -36 -22 -48 -16 -26 -61 -53 -70 -43 -22 21
45 117 81 117 13 0 16 -6 11 -26z"/>
<path d="M8339 10125 c-82 -45 -76 -235 7 -235 33 0 64 17 64 35 0 17 -16 20
-25 5 -11 -17 -54 -11 -65 9 -14 27 -12 90 3 121 7 14 29 33 50 43 37 19 42
37 9 37 -9 -1 -29 -7 -43 -15z"/>
<path d="M10513 10119 c-17 -11 -41 -39 -52 -63 -36 -73 -23 -128 32 -141 100
-23 121 -25 130 -16 12 12 -19 26 -79 37 -22 3 -47 11 -56 16 -22 11 -24 40
-3 32 50 -20 113 57 97 118 -10 40 -27 44 -69 17z m37 -48 c0 -20 -8 -35 -22
-45 -50 -36 -65 -7 -22 43 32 39 44 39 44 2z"/>
<path d="M10717 10129 c-25 -15 -67 -106 -67 -147 0 -64 64 -99 135 -72 27 10
30 38 4 32 -53 -14 -77 -13 -92 3 -20 20 -22 45 -4 45 19 0 87 73 87 94 0 25
-18 56 -33 56 -7 0 -20 -5 -30 -11z m33 -39 c0 -13 -59 -78 -60 -65 0 16 39
75 50 75 5 0 10 -4 10 -10z"/>
<path d="M10957 10117 c-15 -12 -37 -35 -48 -52 l-20 -30 6 43 c5 33 4 42 -8
42 -11 0 -19 -25 -31 -90 -23 -123 -9 -143 36 -53 13 25 40 64 61 87 l37 41
-6 -86 c-7 -95 4 -119 53 -119 32 0 90 27 97 45 9 24 -13 27 -40 6 -32 -25
-72 -27 -81 -5 -3 9 -2 46 4 82 16 111 -1 137 -60 89z"/>
<path d="M4763 10115 c-37 -26 -25 -76 38 -156 35 -45 36 -49 3 -49 -25 0 -75
41 -86 70 -4 11 -8 12 -18 4 -16 -15 -1 -43 41 -78 25 -22 40 -26 73 -24 58 4
59 29 2 113 -25 36 -46 72 -46 80 0 19 33 27 63 16 18 -7 28 -7 33 0 18 30
-68 50 -103 24z"/>
<path d="M7901 10103 c-12 -14 -24 -43 -27 -64 -4 -26 -12 -39 -26 -42 -21 -6
-16 -27 7 -27 7 0 16 -14 20 -30 11 -49 39 -56 149 -37 22 4 62 67 77 122 6
22 18 48 27 58 15 17 16 17 29 -5 17 -31 16 -78 -3 -123 -16 -38 -16 -81 0
-78 12 2 46 110 46 146 0 32 -23 91 -39 101 -19 12 -51 -4 -57 -30 -5 -19 -11
-23 -30 -18 -27 7 -28 5 -40 -80 -6 -39 -14 -60 -24 -63 -60 -13 -82 -14 -95
-3 -24 20 -18 51 16 86 33 34 41 73 19 99 -17 21 -25 19 -49 -12z m24 -43 c-4
-12 -9 -19 -12 -17 -3 3 -2 15 2 27 4 12 9 19 12 17 3 -3 2 -15 -2 -27z"/>
<path d="M8564 10120 c-11 -5 -26 -22 -32 -39 -7 -17 -17 -44 -23 -60 -23 -62
59 -161 133 -161 34 0 138 70 138 92 0 24 -3 23 -56 -17 -57 -44 -84 -51 -121
-31 -32 16 -46 31 -56 58 -5 14 2 21 28 32 46 19 70 57 58 92 -10 31 -39 45
-69 34z m40 -45 c6 -16 -26 -55 -44 -55 -13 0 -13 26 0 51 13 23 36 25 44 4z"/>
<path d="M7551 10084 c-19 -24 -27 -46 -46 -126 -5 -19 -1 -32 15 -48 19 -19
31 -22 80 -18 58 4 98 24 82 40 -4 4 -22 3 -39 -3 -40 -13 -98 -8 -98 9 0 7
18 23 40 35 45 25 55 58 35 108 -15 36 -42 37 -69 3z m49 -44 c0 -10 -10 -26
-22 -35 -21 -14 -23 -14 -26 0 -5 21 26 67 38 60 6 -4 10 -15 10 -25z"/>
<path d="M12405 10086 c-19 -28 -14 -42 38 -115 25 -34 27 -42 15 -60 -19 -32
-56 -38 -81 -13 -17 18 -18 23 -7 37 16 20 4 33 -18 19 -27 -17 -26 -51 2 -79
35 -35 79 -33 117 4 41 42 37 74 -18 133 -37 39 -28 62 25 66 58 4 50 26 -11
30 -40 3 -48 0 -62 -22z"/>
<path d="M7023 10088 c-6 -7 -11 -46 -12 -86 -2 -64 0 -73 14 -70 14 2 17 17
18 81 0 81 -4 96 -20 75z"/>
<path d="M13488 10088 c-9 -7 -23 -26 -31 -43 l-15 -30 -7 27 c-10 38 -29 52
-47 35 -7 -7 -18 -12 -25 -10 -13 5 -38 -91 -31 -122 6 -33 19 -22 40 33 11
28 22 52 26 52 4 0 15 -14 24 -30 9 -17 21 -30 26 -30 4 0 18 21 31 48 26 52
29 50 51 -35 10 -41 23 -53 34 -34 9 15 -21 112 -41 132 -16 16 -22 17 -35 7z"/>
<path d="M14092 10083 c-16 -6 -62 -96 -62 -121 0 -33 25 -46 60 -32 16 7 34
18 41 26 9 11 16 9 40 -9 25 -18 31 -19 39 -7 6 10 3 18 -11 28 -14 10 -19 25
-19 58 0 32 -4 44 -12 42 -7 -3 -15 -13 -17 -24 -5 -31 -50 -84 -72 -84 -24 0
-24 6 4 55 12 22 32 41 45 45 13 3 23 10 23 15 0 11 -39 17 -59 8z"/>
<path d="M14558 10074 c-16 -8 -28 -21 -28 -28 0 -7 -10 -26 -21 -41 -14 -16
-18 -29 -12 -33 6 -4 13 -17 17 -29 12 -37 54 -63 101 -63 23 0 48 6 54 13 16
20 5 25 -43 20 -35 -4 -48 -1 -65 16 -30 30 -26 48 12 56 42 9 57 22 57 50 0
56 -21 67 -72 39z m39 -37 c-3 -8 -15 -17 -26 -20 -17 -4 -19 -2 -11 13 16 30
48 35 37 7z"/>
<path d="M4580 10038 c0 -24 -2 -67 -3 -97 -1 -36 2 -56 11 -58 8 -3 12 6 12
27 0 17 5 50 11 73 7 30 7 51 0 70 -15 40 -29 33 -31 -15z"/>
<path d="M13651 10066 c-6 -7 -20 -12 -30 -9 -16 4 -20 -4 -27 -64 -11 -91
-11 -88 5 -88 8 0 22 23 33 55 31 92 39 90 43 -14 2 -50 22 -40 57 26 31 59
33 61 35 33 5 -53 23 -105 37 -105 22 0 25 10 10 38 -8 15 -14 44 -14 64 0 73
-53 84 -80 17 l-14 -32 -10 43 c-12 47 -26 59 -45 36z"/>
<path d="M12629 10041 c-23 -24 -29 -38 -29 -74 0 -47 15 -68 62 -86 31 -12
80 -1 86 20 3 11 2 12 -6 0 -7 -9 -12 -10 -16 -2 -4 6 -18 11 -32 11 -32 0
-64 17 -64 33 0 7 14 21 30 31 17 9 28 22 24 27 -3 5 0 8 7 7 17 -4 23 30 9
47 -19 22 -38 18 -71 -14z m51 -15 c0 -2 -12 -11 -26 -21 -25 -16 -25 -16 -14
4 9 17 40 30 40 17z"/>
<path d="M13912 10031 c2 -27 0 -37 -9 -34 -6 2 -17 -5 -23 -17 -10 -18 -8
-26 11 -46 13 -13 27 -23 33 -21 6 2 12 38 14 80 3 67 1 77 -13 77 -14 0 -16
-8 -13 -39z"/>
<path d="M2217 9934 c-14 -14 -7 -35 11 -32 9 2 17 10 17 17 0 16 -18 25 -28
15z"/>
<path d="M12988 9873 c-11 -14 1 -21 37 -22 202 -4 269 1 263 20 -5 15 -288
16 -300 2z"/>
<path d="M3130 9813 c0 -3 12 -31 27 -62 31 -62 37 -145 15 -197 -20 -47 -118
-85 -137 -53 -17 27 47 129 81 129 8 0 14 7 14 15 0 18 -23 19 -51 4 -29 -15
-79 -98 -79 -129 0 -43 31 -64 85 -57 92 13 129 62 130 172 0 56 -6 82 -27
128 -16 33 -33 57 -42 57 -9 0 -16 -3 -16 -7z"/>
<path d="M6508 9795 c-1 -6 -2 -48 -3 -95 l0 -85 -33 -3 c-20 -2 -32 -8 -29
-15 5 -18 38 -21 48 -5 6 8 9 -5 10 -37 1 -66 12 -100 29 -100 8 0 14 7 12 15
-2 8 -6 35 -9 61 l-5 46 47 5 c44 5 70 22 59 39 -2 4 -21 3 -41 -2 -21 -5 -41
-9 -44 -9 -3 0 -9 39 -13 87 -3 48 -11 92 -16 97 -6 6 -11 6 -12 1z"/>
<path d="M6691 9777 c-62 -17 -70 -43 -10 -31 49 10 141 11 328 4 89 -4 125
-2 128 7 6 15 -44 21 -237 27 -114 4 -179 2 -209 -7z"/>
<path d="M7496 9782 c-2 -4 -3 -61 -2 -127 3 -129 20 -215 42 -215 16 0 17 10
4 65 -12 54 1 62 34 20 16 -19 33 -32 39 -28 5 3 7 2 4 -4 -4 -6 0 -19 8 -29
8 -10 15 -32 15 -47 0 -31 22 -33 28 -3 7 32 -7 61 -53 111 -25 27 -42 52 -37
55 4 4 53 40 110 80 56 40 102 79 102 87 0 21 -19 15 -63 -21 -23 -18 -73 -54
-110 -80 -56 -38 -71 -44 -86 -35 -15 10 -16 19 -10 58 13 77 11 121 -5 121
-8 0 -17 -3 -20 -8z"/>
<path d="M8122 9749 c-27 -11 -24 -36 4 -30 10 2 43 5 72 8 48 4 53 3 50 -13
-1 -10 -28 -35 -58 -56 -76 -52 -140 -121 -140 -151 0 -13 8 -31 18 -40 24
-22 92 -23 92 -2 0 11 -11 15 -35 15 -71 0 -55 48 41 120 114 85 135 115 102
148 -14 14 -112 15 -146 1z"/>
<path d="M6865 9587 c0 -120 3 -152 13 -152 11 0 15 31 18 129 6 137 1 176
-19 176 -9 0 -12 -39 -12 -153z"/>
<path d="M5114 9706 c-78 -36 -84 -69 -22 -126 31 -29 40 -42 32 -50 -13 -13
-59 -16 -92 -6 -16 5 -22 3 -22 -8 0 -21 15 -28 65 -28 50 -1 85 22 85 56 0
12 -17 36 -42 57 -50 43 -45 57 28 85 41 15 53 33 28 41 -5 1 -32 -8 -60 -21z"/>
<path d="M5330 9709 c-13 -6 -32 -17 -42 -26 -21 -19 -15 -32 36 -86 54 -58
49 -71 -24 -64 -61 7 -85 -4 -51 -22 21 -12 100 -15 125 -5 30 11 18 58 -26
108 -33 38 -38 50 -27 57 16 10 41 13 82 10 34 -3 38 24 5 33 -31 8 -48 7 -78
-5z"/>
<path d="M4186 9670 c-39 -35 -81 -113 -72 -135 3 -8 15 -15 26 -15 17 0 19 4
14 25 -4 16 1 36 16 60 27 44 57 65 92 65 30 0 38 14 12 24 -31 12 -54 6 -88
-24z"/>
<path d="M3948 9679 c-42 -24 -101 -149 -113 -239 -1 -8 -5 -22 -8 -30 -13
-37 4 -87 26 -73 5 3 7 1 3 -5 -9 -15 13 -27 26 -14 7 7 8 16 2 24 -7 8 -7 36
-1 75 9 62 9 63 30 48 30 -21 59 -19 86 6 59 55 68 177 17 211 -15 11 -48 9
-68 -3z m63 -40 c24 -45 -12 -149 -53 -157 -25 -5 -48 26 -48 64 0 36 33 108
44 97 3 -3 6 -1 6 5 0 20 39 13 51 -9z"/>
<path d="M4356 9675 c-15 -8 -35 -15 -42 -15 -21 0 -54 -60 -54 -97 0 -46 30
-73 81 -73 84 0 131 106 78 174 -24 30 -25 31 -63 11z m54 -79 c0 -56 -73 -99
-108 -64 -31 31 10 108 58 108 11 0 20 6 20 13 1 26 30 -29 30 -57z"/>
<path d="M4790 9643 c-39 -35 -51 -99 -26 -138 14 -22 24 -25 59 -24 51 3 87
15 87 29 0 8 -18 9 -56 4 -59 -7 -74 0 -74 40 0 14 5 17 24 12 37 -9 86 53 72
91 -9 22 -54 15 -86 -14z m50 -18 c0 -17 -27 -32 -37 -21 -4 3 2 13 13 21 24
18 24 18 24 0z"/>
<path d="M5796 9655 c-11 -8 -29 -12 -41 -9 -19 5 -23 -3 -43 -68 -27 -92 -31
-123 -14 -123 7 0 26 32 42 70 28 66 69 115 98 115 15 0 15 2 1 -77 -13 -76
-6 -113 21 -113 22 0 26 10 9 27 -8 8 -7 32 1 86 7 42 10 83 7 91 -8 20 -55
20 -81 1z"/>
<path d="M7055 9660 c-9 -15 43 -36 56 -23 6 6 8 16 5 22 -9 14 -53 14 -61 1z"/>
<path d="M5993 9641 c-17 -11 -37 -30 -43 -42 -15 -27 -15 -80 -1 -106 23 -43
133 -69 182 -43 35 19 20 27 -50 26 -54 -1 -73 3 -90 18 -31 28 -26 39 24 60
30 12 47 26 51 41 15 60 -17 80 -73 46z m47 -26 c0 -12 -47 -45 -64 -45 -14 0
10 32 33 45 33 18 31 18 31 0z"/>
<path d="M6150 9635 c0 -2 16 -33 35 -69 l36 -64 -26 -20 c-27 -21 -33 -42
-12 -42 6 0 23 9 36 19 24 19 25 19 59 -15 35 -33 62 -44 62 -24 0 6 -16 24
-35 41 -19 17 -35 34 -35 38 0 3 25 26 55 50 49 40 70 71 46 71 -5 0 -34 -21
-64 -46 -31 -25 -60 -43 -65 -41 -4 3 -19 28 -32 56 -16 34 -30 51 -42 51 -10
0 -18 -2 -18 -5z"/>
<path d="M2883 9595 c-19 -19 -39 -35 -44 -35 -5 0 -9 -8 -9 -19 0 -10 -3 -33
-6 -50 -11 -53 20 -37 45 24 13 31 31 60 41 65 15 8 18 4 23 -31 3 -22 12 -51
21 -64 18 -28 46 -33 46 -10 0 8 -4 15 -9 15 -12 0 -31 56 -31 89 0 27 -16 51
-33 51 -5 0 -25 -16 -44 -35z"/>
<path d="M4538 9607 c-33 -28 -48 -57 -48 -96 0 -34 30 -71 57 -71 30 0 83 24
83 37 0 16 -21 17 -54 2 -20 -9 -29 -9 -41 1 -32 26 -7 92 41 110 15 6 22 15
18 25 -8 21 -24 19 -56 -8z"/>
<path d="M7223 9605 c-47 -33 -49 -140 -3 -165 24 -13 81 -13 115 0 41 16 20
30 -35 23 -62 -7 -80 6 -80 58 0 51 22 71 74 67 31 -2 41 1 41 12 0 22 -83 25
-112 5z"/>
<path d="M2623 9597 c-38 -21 -73 -77 -73 -117 0 -67 63 -92 116 -47 l26 23
28 -28 c16 -15 33 -28 39 -28 19 0 12 27 -11 42 -17 11 -22 25 -23 64 -1 52
-20 98 -36 89 -5 -4 -9 -1 -9 4 0 15 -30 13 -57 -2z m52 -26 c3 -5 1 -12 -5
-16 -15 -10 -12 -35 5 -35 41 0 -17 -70 -60 -73 -27 -2 -30 1 -33 29 -2 24 5
40 31 68 35 36 51 44 62 27z"/>
<path d="M7067 9563 c-2 -5 -7 -36 -11 -70 -6 -57 -5 -63 11 -63 15 0 18 11
21 70 2 42 -1 70 -7 70 -5 0 -12 -3 -14 -7z"/>
<path d="M5506 9494 c-11 -11 -14 -20 -8 -26 16 -16 47 -5 47 16 0 26 -19 31
-39 10z"/>
<path d="M8118 9273 c-17 -20 -13 -43 7 -43 17 0 38 36 30 50 -9 15 -20 12
-37 -7z"/>
<path d="M3447 8910 c-10 -72 -28 -160 -41 -198 -34 -100 -40 -142 -22 -142 9
0 18 12 22 28 3 15 16 61 29 102 27 88 58 267 53 306 -7 65 -24 26 -41 -96z"/>
<path d="M4977 9004 c-4 -4 -7 -54 -7 -110 0 -123 -21 -192 -76 -248 -29 -30
-42 -36 -67 -34 -17 2 -32 8 -34 15 -7 20 50 74 86 82 48 9 53 31 7 31 -27 0
-46 -9 -76 -36 -71 -65 -64 -124 16 -124 39 0 50 5 88 43 63 64 84 127 87 267
2 105 -4 134 -24 114z"/>
<path d="M3257 8993 c-4 -3 -7 -16 -7 -27 0 -12 -7 -61 -16 -109 -14 -77 -20
-90 -40 -97 -29 -11 -32 -30 -4 -30 22 0 24 -11 11 -79 -10 -49 -5 -71 14 -71
8 0 15 26 19 79 7 79 7 80 41 91 18 6 45 8 59 4 20 -5 26 -2 26 9 0 21 -34 30
-77 22 -30 -5 -34 -4 -29 12 8 29 26 145 26 176 0 26 -9 34 -23 20z"/>
<path d="M7722 8894 c-24 -46 -73 -225 -79 -286 -6 -64 -5 -68 14 -68 22 0 38
26 23 35 -6 4 -10 18 -10 32 0 29 61 93 89 93 19 0 48 -54 60 -111 3 -18 12
-34 19 -37 22 -7 13 63 -16 121 l-29 57 74 51 c53 37 72 54 64 62 -8 8 -35 -5
-93 -46 -86 -58 -146 -83 -136 -56 34 92 49 152 40 161 -7 7 -13 4 -20 -8z"/>
<path d="M2200 8864 l-10 -26 -35 22 c-42 26 -69 20 -91 -21 -35 -70 9 -100
87 -60 22 12 38 18 35 13 -9 -15 -37 -223 -34 -255 5 -50 28 -46 28 5 0 55 37
273 50 298 15 27 12 50 -5 50 -9 0 -20 -12 -25 -26z m-55 -43 c0 -14 -52 -38
-61 -28 -3 3 0 15 6 27 13 24 55 25 55 1z"/>
<path d="M4077 8833 c-2 -5 -5 -28 -6 -53 -2 -62 -17 -103 -42 -118 -22 -14
-49 -2 -49 23 0 7 -7 18 -15 25 -13 11 -25 5 -76 -35 l-61 -48 31 62 c17 33
29 61 27 61 -3 0 1 12 9 27 26 49 -8 58 -67 18 -20 -14 -42 -25 -47 -25 -6 0
-11 -7 -11 -15 0 -23 32 -18 62 9 14 14 28 22 31 20 3 -3 -13 -44 -35 -90 -33
-68 -38 -87 -28 -99 15 -18 28 -12 95 44 44 36 50 39 59 23 26 -48 60 -52 104
-14 28 24 33 36 42 100 6 41 8 78 4 83 -6 11 -21 12 -27 2z"/>
<path d="M12027 8799 c-81 -53 -139 -138 -173 -247 -10 -36 -11 -49 -1 -61 10
-12 9 -14 -4 -9 -12 5 -21 -12 -43 -79 -26 -80 -28 -122 -6 -108 15 9 50 82
43 89 -4 3 -2 6 4 6 10 0 45 75 83 175 9 22 13 25 25 15 20 -16 75 -5 109 21
41 32 66 91 66 152 0 84 -27 97 -103 46z m73 -49 c0 -21 -4 -49 -9 -62 -21
-55 -103 -106 -123 -76 -10 15 -6 87 6 106 12 19 108 82 118 76 4 -3 8 -23 8
-44z m-210 -207 c-11 -17 -11 -17 -6 0 3 10 6 24 7 30 0 9 2 9 5 0 3 -7 0 -20
-6 -30z"/>
<path d="M8945 8789 c-57 -29 -95 -73 -95 -109 0 -37 34 -49 77 -26 29 15 30
14 26 -8 -6 -32 13 -66 37 -66 24 0 27 25 4 34 -12 4 -14 14 -9 38 9 47 36
108 46 103 17 -11 20 17 3 36 -22 24 -40 24 -89 -2z m28 -51 c-18 -32 -79 -76
-89 -65 -13 12 10 49 44 72 53 36 69 33 45 -7z"/>
<path d="M13504 8803 c-12 -2 -30 -13 -40 -24 -16 -18 -16 -24 -5 -52 19 -45
25 -103 12 -111 -18 -12 -47 3 -59 29 -15 32 -32 32 -32 1 0 -31 45 -68 78
-64 14 2 34 15 46 31 20 27 20 28 2 75 -26 69 -25 77 9 80 38 4 55 20 35 32
-8 5 -17 9 -20 8 -3 0 -15 -3 -26 -5z"/>
<path d="M9134 8768 c-11 -22 -13 -33 -5 -36 6 -2 11 -8 11 -13 0 -4 -6 -6
-14 -3 -8 3 -16 -4 -20 -19 -3 -13 -19 -41 -36 -62 -16 -21 -30 -42 -30 -46 0
-26 37 0 109 78 45 47 83 84 86 81 3 -3 -4 -35 -15 -72 -22 -69 -20 -106 6
-106 9 0 14 11 14 34 0 19 9 63 20 98 11 34 20 71 20 81 0 30 -38 19 -85 -24
-48 -44 -53 -44 -30 0 13 27 11 41 -6 41 -5 0 -16 -14 -25 -32z"/>
<path d="M12480 8784 c0 -8 -5 -12 -10 -9 -15 9 -87 -66 -96 -100 -4 -15 -2
-35 3 -44 15 -25 76 -25 123 -1 45 23 63 57 54 98 -12 50 -74 97 -74 56z m43
-61 c8 -44 -63 -97 -108 -79 -20 7 -19 17 8 57 16 23 31 34 47 34 19 0 24 5
22 19 -3 17 -1 18 11 8 8 -7 17 -24 20 -39z"/>
<path d="M12980 8793 c-69 -25 -115 -137 -72 -176 22 -20 63 -30 81 -18 20 13
3 32 -23 25 -26 -6 -49 16 -44 42 2 10 17 22 33 27 41 13 85 45 85 62 0 14
-27 46 -38 44 -4 0 -14 -3 -22 -6z m1 -54 c-13 -11 -27 -17 -30 -13 -7 7 28
34 43 34 6 -1 0 -10 -13 -21z"/>
<path d="M13228 8779 c-35 -26 -35 -43 -2 -82 l25 -30 -24 -24 c-14 -15 -36
-25 -56 -25 -37 -1 -47 -11 -27 -27 32 -27 136 31 136 76 0 11 -11 30 -25 43
-14 13 -25 26 -25 30 0 3 14 14 30 24 17 9 28 22 25 27 -9 14 -27 10 -57 -12z"/>
<path d="M10534 8775 c-19 -14 -19 -15 3 -55 26 -48 22 -63 -22 -90 -43 -26
-91 -26 -105 0 -11 20 -40 28 -40 11 0 -4 9 -20 21 -35 16 -20 29 -26 60 -26
46 0 72 11 112 48 31 29 34 57 11 90 -12 18 -13 26 -4 37 11 14 6 35 -9 35 -4
0 -16 -7 -27 -15z"/>
<path d="M11201 8773 c-81 -40 -116 -144 -61 -184 48 -36 240 -35 240 0 0 4
-39 7 -87 7 -49 0 -100 3 -115 7 -53 14 -43 85 18 130 27 20 50 24 77 12 24
-10 23 21 -2 35 -25 13 -30 13 -70 -7z"/>
<path d="M12300 8768 c-19 -13 -49 -43 -68 -67 -26 -34 -32 -52 -30 -80 2 -24
8 -36 18 -36 11 0 14 8 12 28 -7 57 82 152 130 139 16 -4 19 -1 16 14 -5 28
-39 28 -78 2z"/>
<path d="M3576 8747 c-101 -132 -53 -252 52 -132 29 32 32 42 30 93 -1 31 -7
60 -12 64 -22 16 -46 7 -70 -25z m52 -61 c3 -20 -4 -36 -24 -57 -52 -55 -70
-29 -34 49 23 51 53 55 58 8z"/>
<path d="M5107 8760 c-5 -18 -2 -21 14 -17 12 3 23 -1 28 -12 8 -15 5 -16 -25
-13 -28 4 -40 -2 -69 -31 -53 -53 -43 -107 23 -124 56 -14 128 64 117 127 -12
69 -75 119 -88 70z m58 -80 c10 -16 -24 -70 -51 -80 -30 -12 -64 3 -64 26 0
26 47 64 79 64 16 0 33 -4 36 -10z"/>
<path d="M5867 8758 c-8 -13 -26 -45 -41 -71 -15 -27 -30 -46 -33 -43 -3 2 -8
29 -12 58 -4 40 -10 54 -24 56 -17 3 -18 -1 -12 -45 4 -26 13 -61 21 -77 14
-28 12 -33 -48 -128 -33 -54 -67 -98 -75 -98 -16 0 -17 -22 -1 -38 21 -21 35
-13 52 29 9 23 30 60 45 83 30 45 171 285 171 292 0 14 -32 0 -43 -18z"/>
<path d="M6238 8708 c-21 -39 -51 -75 -76 -93 -45 -33 -50 -43 -26 -52 10 -4
27 6 47 25 31 31 31 31 42 9 20 -40 74 -35 129 13 l34 31 -10 -35 c-13 -43 1
-66 41 -66 30 0 51 16 51 39 0 12 -3 12 -12 3 -19 -19 -48 -15 -48 8 0 11 12
49 27 85 21 52 24 68 14 78 -14 13 -10 17 -68 -67 -34 -48 -85 -86 -115 -86
-23 0 -23 18 2 82 39 104 19 119 -32 26z"/>
<path d="M8024 8759 c-48 -14 -104 -81 -104 -124 0 -80 116 -122 218 -80 48
21 26 36 -32 23 -82 -19 -156 8 -156 56 0 33 50 85 88 92 25 5 32 3 32 -9 0
-17 -48 -47 -74 -47 -19 0 -31 -19 -20 -30 11 -11 79 13 105 36 25 23 25 70 0
84 -11 5 -21 10 -23 9 -2 0 -17 -5 -34 -10z"/>
<path d="M10988 8755 c-16 -6 -43 -26 -62 -44 -32 -31 -34 -32 -39 -11 -7 28
-27 17 -27 -14 0 -13 -7 -43 -15 -67 -18 -49 -13 -78 9 -60 8 7 17 23 20 38 9
35 108 133 134 133 28 0 29 -34 2 -75 -21 -32 -26 -60 -11 -69 10 -6 58 83 53
98 -2 4 2 14 8 21 8 10 8 20 1 33 -13 25 -39 31 -73 17z"/>
<path d="M12706 8740 c-64 -72 -82 -132 -50 -164 18 -18 95 -22 125 -5 33 17
11 28 -46 22 -45 -5 -56 -3 -61 11 -9 24 12 69 52 107 19 18 34 39 34 46 0 22
-26 14 -54 -17z"/>
<path d="M10232 8719 c-69 -45 -115 -98 -110 -126 5 -30 53 -27 112 5 l55 29
-2 -56 c-2 -41 2 -56 11 -56 9 0 15 17 17 50 2 28 8 63 14 78 17 43 14 104 -5
111 -24 9 -25 9 -92 -35z m56 -46 c-24 -26 -108 -73 -130 -73 -18 0 40 57 97
96 41 28 51 31 53 18 2 -9 -7 -27 -20 -41z"/>
<path d="M10804 8743 c-4 -10 -14 -36 -23 -58 -10 -22 -22 -51 -27 -63 -8 -21
-12 -14 -28 52 -12 47 -24 76 -33 76 -17 0 -17 -9 8 -111 l22 -87 -31 -63
c-32 -67 -65 -169 -57 -177 13 -13 32 12 44 59 8 30 31 88 51 129 50 99 90
196 90 215 0 8 5 15 10 15 6 0 10 7 10 15 0 21 -29 19 -36 -2z"/>
<path d="M5994 8739 c-37 -19 -61 -79 -56 -140 1 -9 12 -21 25 -26 51 -24 134
45 123 101 -7 32 -42 76 -60 75 -6 0 -20 -5 -32 -10z m44 -31 c24 -31 23 -57
-2 -83 -14 -14 -34 -25 -46 -25 -16 0 -20 6 -20 34 0 31 31 86 50 86 4 0 12
-6 18 -12z"/>
<path d="M7102 8738 c-6 -6 -12 -17 -12 -24 0 -7 -13 -10 -32 -8 -32 3 -33 2
-56 -64 -34 -98 -37 -112 -20 -112 9 0 23 19 32 43 19 51 52 98 88 126 l25 20
-10 -52 c-13 -73 -13 -79 -1 -84 6 -2 27 21 47 51 36 54 82 95 94 83 3 -3 -2
-24 -11 -47 -18 -46 -21 -93 -5 -88 17 6 52 116 45 144 -11 41 -71 26 -118
-31 -16 -19 -16 -19 -15 15 2 28 -2 36 -18 38 -11 1 -26 -3 -33 -10z"/>
<path d="M7417 8740 c-16 -5 -35 -15 -44 -22 -23 -19 -51 -87 -46 -109 7 -27
49 -24 89 6 41 32 44 31 44 -4 0 -37 31 -77 53 -68 13 5 15 12 8 29 -5 13 -14
22 -21 20 -9 -2 -11 19 -8 75 3 77 3 78 -22 80 -14 1 -38 -2 -53 -7z m3 -82
c-60 -53 -77 -49 -45 12 10 19 27 33 48 38 48 13 47 -6 -3 -50z"/>
<path d="M2287 8574 c-13 -13 -7 -44 8 -44 8 0 15 7 15 15 0 8 0 18 1 22 1 10
-16 15 -24 7z"/>
<path d="M3007 8513 c-3 -5 -11 -52 -18 -106 l-13 -98 -33 3 c-34 3 -60 -13
-49 -30 4 -6 22 -8 41 -5 l35 6 -5 -81 c-5 -76 -4 -80 14 -75 17 4 19 14 19
75 0 83 7 91 74 83 27 -3 49 -1 53 5 8 13 -37 30 -82 30 l-35 0 7 63 c4 34 11
72 16 85 13 34 11 52 -5 52 -8 0 -17 -3 -19 -7z"/>
<path d="M6837 8437 c-43 -123 -67 -226 -70 -297 -2 -65 0 -75 16 -78 15 -3
18 0 13 16 -12 36 12 177 49 286 32 97 36 126 17 126 -4 0 -15 -24 -25 -53z"/>
<path d="M7886 8426 c-40 -13 -55 -29 -37 -40 5 -3 22 -1 38 5 50 19 80 21 97
4 9 -9 16 -23 16 -32 0 -8 -40 -56 -89 -107 -92 -95 -111 -127 -91 -151 23
-27 42 -18 35 15 -6 27 -1 36 53 88 124 118 144 161 97 207 -27 28 -57 30
-119 11z"/>
<path d="M2500 8342 c-16 -13 -21 -24 -16 -37 6 -17 8 -17 29 4 15 14 36 21
61 21 51 0 42 24 -11 28 -27 2 -47 -3 -63 -16z"/>
<path d="M2672 8312 c-70 -58 -91 -122 -51 -158 17 -15 36 -19 102 -19 56 0
82 4 85 13 3 9 -15 12 -76 10 -67 -3 -82 0 -91 14 -18 29 -13 43 17 44 44 2
107 36 110 61 5 32 -15 63 -41 63 -12 0 -37 -13 -55 -28z m63 -12 c9 -15 -11
-37 -42 -45 -37 -9 -39 0 -7 29 32 28 40 31 49 16z"/>
<path d="M7097 8333 c-2 -5 -12 -31 -21 -59 -24 -73 -73 -116 -101 -88 -13 13
-15 27 -9 72 5 44 4 54 -7 50 -17 -6 -34 -78 -25 -112 8 -34 33 -56 61 -56 35
0 91 63 110 124 9 28 19 57 21 64 6 13 -22 17 -29 5z"/>
<path d="M3439 8280 c-18 -22 -38 -40 -45 -40 -13 0 -20 -21 -30 -97 -6 -45
-4 -53 10 -53 9 0 16 8 16 18 0 21 43 114 71 153 16 23 24 27 34 19 16 -13 28
1 19 24 -11 28 -42 18 -75 -24z"/>
<path d="M6357 8298 c-8 -13 -29 -48 -48 -78 -19 -30 -33 -58 -32 -61 4 -13
-28 -19 -32 -6 -3 6 -8 43 -12 80 -10 88 -28 82 -27 -8 1 -71 19 -130 41 -130
22 0 143 181 143 213 0 20 -19 14 -33 -10z"/>
<path d="M6516 8289 c-28 -22 -56 -68 -56 -94 0 -28 42 -39 83 -21 37 15 37
15 32 -7 -8 -30 11 -77 30 -77 18 0 19 11 4 43 -8 18 -6 35 10 78 12 29 21 57
21 62 0 17 -23 5 -51 -27 -28 -33 -81 -60 -93 -49 -8 9 26 63 47 75 13 6 23 6
33 -2 11 -10 15 -9 20 3 15 40 -37 50 -80 16z"/>
<path d="M2453 8278 c-20 -41 -44 -161 -35 -170 15 -15 33 17 49 89 8 37 15
74 16 82 3 24 -19 23 -30 -1z"/>
<path d="M4758 8280 c-47 -25 -78 -65 -78 -101 0 -38 31 -39 84 -3 31 21 40
24 47 13 5 -8 9 -17 9 -21 0 -13 81 -29 111 -23 41 9 31 29 -13 30 -20 0 -34
-4 -31 -9 3 -4 -7 0 -22 10 -23 15 -26 23 -22 50 4 25 0 37 -17 53 -26 25 -22
25 -68 1z m45 -27 c4 -3 -14 -21 -40 -40 -25 -18 -48 -31 -51 -29 -8 9 20 46
46 60 31 17 36 18 45 9z"/>
<path d="M7244 8261 c-101 -62 -99 -191 4 -191 54 1 109 15 128 34 22 22 10
32 -21 18 -41 -19 -123 -26 -140 -12 -21 17 -19 63 4 91 18 22 19 22 18 4 -2
-16 3 -19 22 -17 35 4 61 31 61 64 0 22 -4 28 -22 28 -13 0 -37 -9 -54 -19z
m41 -30 c-3 -6 -14 -11 -23 -11 -15 1 -15 2 2 15 21 16 32 13 21 -4z"/>
<path d="M3628 8245 c-23 -16 -39 -21 -43 -14 -13 19 -27 3 -45 -51 -23 -67
-24 -70 -6 -70 8 0 29 20 47 45 28 38 68 75 83 75 2 0 -2 -19 -8 -42 -7 -24
-10 -54 -6 -68 5 -21 12 -25 39 -22 37 3 91 28 91 42 0 14 -22 12 -64 -5 -36
-15 -36 -15 -36 9 0 13 6 41 14 62 23 69 -1 83 -66 39z"/>
<path d="M3166 8252 c-8 -13 -10 -105 -2 -129 23 -72 126 -4 141 95 6 34 4 42
-9 42 -11 0 -18 -13 -23 -42 -4 -27 -17 -53 -35 -71 -31 -31 -48 -28 -48 9 0
13 -4 24 -10 24 -5 0 -10 5 -10 11 0 5 5 7 10 4 6 -4 10 8 10 29 0 33 -12 47
-24 28z"/>
<path d="M7824 7869 c-3 -6 -2 -15 4 -21 13 -13 32 -2 32 18 0 16 -26 19 -36
3z"/>
<path d="M7306 7718 c-8 -13 -17 -48 -21 -78 -3 -30 -7 -68 -9 -85 -8 -68 -37
-167 -66 -222 -17 -32 -33 -74 -36 -95 -5 -30 -3 -38 16 -48 56 -30 160 27
180 98 26 93 0 153 -58 131 -13 -5 -27 -7 -30 -4 -3 2 2 40 11 82 9 43 19 104
23 135 3 32 12 63 20 69 8 6 14 18 14 25 0 22 -28 16 -44 -8z m46 -345 c5 -25
-19 -103 -39 -125 -18 -20 -88 -42 -103 -33 -15 9 53 146 80 161 34 18 58 17
62 -3z"/>
<path d="M6123 7670 c3 -11 0 -18 -6 -17 -16 3 -86 -176 -73 -185 7 -5 7 -8
-2 -8 -11 0 -30 -34 -36 -65 -1 -5 -11 -30 -22 -55 -31 -68 -36 -96 -20 -109
11 -10 26 -3 70 34 55 45 56 45 56 19 0 -41 50 -84 98 -84 50 0 72 8 72 26 0
17 -5 17 -48 5 -27 -8 -36 -6 -62 16 -17 13 -30 31 -30 39 0 8 14 41 30 74 52
102 35 137 -23 48 -19 -29 -46 -64 -60 -77 -14 -13 -23 -29 -20 -37 4 -10 0
-12 -11 -8 -9 3 -24 0 -33 -7 -15 -12 -16 -12 -9 6 5 11 24 60 42 109 19 49
52 133 74 188 22 55 40 102 40 104 0 2 -7 4 -16 4 -11 0 -15 -6 -11 -20z"/>
<path d="M10767 7674 c-4 -4 -7 -14 -7 -22 0 -16 -53 -170 -106 -304 -38 -99
-40 -108 -19 -108 8 0 21 16 29 35 9 19 30 49 48 65 51 47 62 39 46 -32 -13
-54 -1 -78 38 -78 29 0 32 20 4 27 -23 6 -23 4 -9 62 16 73 -5 102 -56 75 -15
-8 -29 -13 -30 -12 -2 2 17 57 41 123 24 66 45 131 46 144 3 24 -12 38 -25 25z"/>
<path d="M5091 7656 c-7 -8 -13 -27 -14 -43 -1 -15 -7 -32 -13 -38 -27 -24
-88 -267 -82 -329 5 -60 23 -46 30 25 7 76 46 225 83 318 14 36 25 68 25 73 0
13 -16 9 -29 -6z"/>
<path d="M3203 7630 c-24 -10 -43 -24 -43 -30 0 -6 -4 -9 -9 -6 -13 8 -123
-115 -117 -131 3 -7 0 -12 -6 -10 -15 3 -47 -89 -48 -138 -1 -102 102 -164
229 -139 21 5 31 12 31 25 0 11 5 19 10 19 6 0 10 7 10 15 0 23 -28 18 -54
-10 -41 -44 -128 -29 -176 32 -16 21 -21 39 -19 78 2 27 5 52 8 55 3 3 15 22
26 44 25 49 110 139 153 160 l32 17 0 -50 c0 -61 20 -83 44 -49 20 29 21 87 0
116 -18 27 -18 27 -71 2z"/>
<path d="M10537 7620 c-6 -24 12 -38 24 -19 13 21 11 39 -5 39 -7 0 -16 -9
-19 -20z"/>
<path d="M5270 7575 c-6 -30 -8 -60 -4 -67 4 -7 3 -10 -1 -5 -5 4 -25 -46 -45
-110 -20 -65 -46 -137 -59 -161 -21 -41 -21 -62 0 -62 5 0 14 11 20 24 10 20
15 23 29 13 27 -16 94 7 135 49 41 41 46 81 15 132 -17 28 -24 31 -47 26 -16
-4 -36 -14 -47 -23 -17 -15 -18 -15 -13 4 3 11 16 56 27 100 12 44 26 88 31
98 11 21 4 37 -16 37 -8 0 -18 -21 -25 -55z m76 -231 c5 -29 2 -40 -17 -61
-27 -29 -85 -57 -99 -48 -17 11 -11 41 16 81 50 75 89 86 100 28z"/>
<path d="M4935 7567 c-8 -20 -14 -40 -13 -44 0 -5 -3 -19 -9 -33 -56 -137 -98
-274 -89 -295 7 -19 33 -14 28 5 -2 7 6 44 18 82 11 38 18 74 14 80 -4 7 -3 8
4 4 11 -7 16 7 15 42 -1 6 3 12 7 12 8 0 33 62 49 125 15 54 -3 71 -24 22z"/>
<path d="M9234 7527 c-29 -39 -62 -92 -74 -117 -34 -69 -68 -109 -118 -141
-57 -36 -82 -38 -82 -5 0 16 18 43 54 78 35 35 52 58 47 66 -10 17 -104 -66
-120 -107 -16 -36 -11 -71 11 -84 24 -16 99 9 105 34 3 11 11 18 19 15 7 -3
18 2 24 9 18 21 27 10 22 -25 -3 -20 0 -30 9 -30 7 0 9 -3 6 -7 -12 -11 25
-43 48 -43 58 0 83 12 87 41 4 23 1 29 -15 29 -10 0 -21 -9 -24 -20 -4 -14
-14 -20 -34 -20 -36 0 -53 30 -46 82 7 52 64 170 116 238 22 30 41 60 41 67 0
30 -28 8 -76 -60z"/>
<path d="M2285 7551 c-14 -23 -31 -53 -37 -66 -10 -23 -16 -25 -72 -21 -99 6
-103 2 -109 -101 -1 -18 -6 -33 -11 -33 -14 0 4 -54 26 -77 18 -20 19 -23 5
-23 -17 0 -87 -95 -87 -117 0 -30 28 -7 68 56 37 57 48 67 67 64 33 -7 81 22
115 69 33 45 38 82 16 114 -13 19 -12 25 15 70 16 27 35 57 41 66 9 13 10 20
1 29 -8 8 -18 1 -38 -30z m-79 -126 c3 -8 -1 -22 -10 -30 -9 -9 -16 -20 -16
-24 0 -4 -8 -16 -18 -27 -9 -10 -27 -32 -39 -48 l-23 -28 -9 25 c-9 23 -3 68
14 110 14 34 91 50 101 22z m44 -57 c0 -22 -79 -108 -99 -108 -13 0 -14 -1 43
82 38 57 56 65 56 26z"/>
<path d="M10512 7514 l-22 -74 -55 0 c-42 0 -55 -3 -55 -15 0 -11 12 -15 46
-15 43 0 46 -1 40 -22 -4 -13 -8 -30 -9 -38 -1 -8 -5 -17 -8 -20 -13 -10 -39
-114 -31 -122 12 -12 26 9 41 61 7 25 24 69 36 98 26 57 32 60 128 53 18 -1
27 3 27 13 0 18 -42 27 -87 20 -38 -6 -41 4 -18 60 18 44 19 63 2 70 -8 3 -20
-21 -35 -69z"/>
<path d="M12515 7550 c-7 -11 12 -40 25 -40 4 0 10 11 12 25 4 19 1 25 -13 25
-10 0 -21 -5 -24 -10z"/>
<path d="M10317 7544 c-8 -9 11 -44 24 -44 6 0 9 10 7 22 -3 22 -19 34 -31 22z"/>
<path d="M1917 7513 c-4 -3 -7 -17 -7 -31 0 -13 -16 -75 -36 -138 -33 -102
-39 -154 -16 -140 5 3 17 36 27 73 10 37 22 76 26 85 16 31 38 129 32 143 -6
16 -16 19 -26 8z"/>
<path d="M9958 7439 c-72 -36 -93 -59 -69 -74 5 -3 12 -1 16 5 9 15 105 62
105 52 0 -5 -13 -27 -29 -49 -49 -67 -64 -103 -51 -118 14 -17 30 -11 94 31
l50 33 18 -29 c11 -20 23 -28 33 -24 34 14 58 99 36 133 -14 23 -34 2 -27 -30
9 -49 -15 -82 -29 -39 -9 29 -36 25 -95 -16 -57 -39 -57 -37 14 71 72 109 60
119 -66 54z"/>
<path d="M8651 7433 c-27 -32 -31 -46 -31 -94 0 -61 -18 -89 -58 -89 -22 0
-31 -24 -13 -34 13 -9 57 10 81 34 16 16 20 33 20 80 0 55 3 62 35 94 40 41
42 46 16 46 -11 0 -33 -17 -50 -37z"/>
<path d="M13162 7457 c-19 -6 -41 -21 -50 -35 -14 -22 -14 -27 13 -77 30 -59
28 -79 -9 -97 -20 -9 -30 -8 -50 6 -31 20 -36 20 -36 2 0 -21 39 -46 71 -46
31 0 79 50 79 81 0 11 -11 39 -25 62 -27 47 -24 60 20 74 17 5 31 17 33 26 4
19 1 19 -46 4z"/>
<path d="M12657 7448 c-35 -13 -43 -46 -24 -106 14 -42 14 -48 0 -64 -20 -22
-53 -24 -53 -3 0 19 -14 19 -30 0 -38 -46 60 -66 105 -20 29 29 30 40 8 91
-24 57 -24 61 11 75 17 7 34 18 38 23 5 7 8 3 8 -8 0 -15 3 -17 11 -9 28 28
-19 41 -74 21z"/>
<path d="M14445 7448 c-79 -43 -193 -218 -142 -218 6 0 23 23 35 50 43 94 121
158 176 144 30 -7 43 11 17 25 -25 14 -60 13 -86 -1z"/>
<path d="M6413 7439 c-52 -15 -56 -35 -22 -119 16 -40 28 -79 25 -87 -7 -18
-32 -17 -40 2 -9 24 -26 17 -26 -10 0 -31 40 -51 71 -35 31 17 34 57 9 114
-36 81 -36 94 -6 106 15 5 32 9 39 7 7 -1 12 5 12 13 0 18 -20 21 -62 9z"/>
<path d="M8260 7350 c-67 -64 -101 -103 -94 -110 6 -6 23 4 49 27 22 20 52 48
68 62 l27 25 -11 -32 c-13 -37 -6 -77 15 -85 18 -7 82 36 78 52 -1 7 3 11 10
8 7 -2 21 3 32 12 18 15 18 15 10 -9 -13 -38 -11 -93 4 -97 7 -3 12 4 12 17 0
12 12 60 26 107 20 66 23 88 14 97 -9 8 -16 5 -28 -14 -9 -14 -41 -51 -72 -82
-87 -89 -104 -75 -45 37 32 62 36 85 16 85 -4 0 -54 -45 -111 -100z"/>
<path d="M12865 7431 c-71 -33 -113 -98 -95 -145 10 -28 76 -52 111 -41 31 10
17 27 -24 31 -46 4 -57 10 -57 34 0 30 12 53 20 40 11 -17 72 -15 109 4 23 13
31 23 31 44 0 53 -29 63 -95 33z m65 -25 c0 -24 -27 -37 -67 -34 l-38 4 45 22
c53 26 60 26 60 8z"/>
<path d="M5736 7400 c-28 -31 -36 -48 -36 -78 0 -53 27 -76 88 -77 61 0 70 18
12 25 -25 3 -51 9 -57 13 -36 22 10 122 59 129 34 5 34 28 0 28 -22 0 -39 -10
-66 -40z"/>
<path d="M7484 7423 c-36 -36 -57 -128 -36 -160 4 -6 20 -17 36 -23 49 -18
189 20 172 48 -3 6 -23 4 -48 -5 -53 -19 -114 -21 -129 -6 -8 8 0 22 35 56 35
33 45 49 40 63 -17 46 -41 56 -70 27z m22 -61 c-24 -24 -31 -6 -10 25 16 24
19 26 22 9 2 -10 -3 -25 -12 -34z"/>
<path d="M4659 7378 c-46 -50 -68 -96 -54 -118 9 -15 27 -12 78 14 l47 23 0
-33 c0 -24 5 -34 15 -34 9 0 15 9 15 21 0 12 5 39 12 61 17 56 0 68 -43 30
-36 -31 -99 -67 -99 -56 0 13 71 102 85 108 17 6 20 36 4 36 -7 0 -33 -23 -60
-52z"/>
<path d="M8846 7409 c-14 -11 -40 -40 -56 -64 -50 -73 -36 -122 38 -132 35 -5
42 -3 42 12 0 13 -6 16 -29 13 -17 -2 -28 -1 -26 3 3 4 -2 9 -10 13 -28 10
-17 41 19 54 73 27 107 77 74 110 -16 16 -21 15 -52 -9z m34 -29 c0 -5 -9 -14
-20 -20 -22 -12 -27 -1 -8 18 14 14 28 16 28 2z"/>
<path d="M9072 7419 c2 -7 10 -15 17 -17 8 -3 12 1 9 9 -2 7 -10 15 -17 17 -8
3 -12 -1 -9 -9z"/>
<path d="M4442 7384 c-61 -51 -75 -83 -56 -120 19 -38 42 -54 73 -54 26 1 61
21 61 35 0 4 -16 4 -35 1 -82 -16 -101 43 -35 106 23 21 50 38 60 38 11 0 20
7 20 15 0 27 -45 16 -88 -21z"/>
<path d="M5456 7389 c-15 -12 -25 -24 -22 -27 3 -3 -3 -11 -14 -19 -14 -10
-20 -26 -20 -52 0 -47 32 -67 77 -50 16 6 28 9 29 7 0 -2 8 3 17 11 15 12 17
11 17 -6 0 -31 42 -73 73 -73 17 0 27 5 27 15 0 9 -9 15 -25 15 -42 0 -59 66
-32 120 9 18 10 31 2 47 -20 43 -51 18 -58 -47 -4 -36 -31 -59 -69 -60 -22 0
-28 5 -28 22 0 31 46 86 75 90 14 2 26 8 26 13 0 19 -47 16 -75 -6z"/>
<path d="M11991 7386 c-5 -13 -23 -46 -40 -73 -34 -55 -38 -73 -18 -73 19 0
49 35 40 45 -5 4 -3 5 3 2 15 -9 47 32 39 51 -5 13 -4 14 6 5 9 -10 19 -7 41
12 16 14 36 25 44 25 8 0 14 7 14 15 0 23 -35 18 -68 -10 -36 -30 -46 -32 -32
-6 14 26 13 31 -5 31 -9 0 -20 -11 -24 -24z"/>
<path d="M14118 7359 c-38 -41 -48 -58 -48 -85 0 -50 31 -62 99 -39 76 25 105
81 61 120 -20 19 -28 41 -10 30 6 -3 10 1 10 9 0 11 -10 16 -32 16 -26 0 -42
-10 -80 -51z m102 -42 c-1 -31 -42 -57 -89 -57 -39 0 -39 15 -1 69 l31 42 29
-21 c17 -12 30 -27 30 -33z"/>
<path d="M3676 7368 c-27 -58 -44 -118 -35 -123 4 -3 33 20 63 52 59 60 75 64
57 12 -16 -46 -14 -86 5 -93 23 -9 37 3 23 20 -9 11 -9 24 0 53 15 52 14 81
-5 88 -23 9 -65 -13 -58 -31 4 -10 0 -14 -14 -13 -16 1 -19 5 -11 18 12 23 12
49 -1 49 -5 0 -16 -15 -24 -32z"/>
<path d="M10267 7348 c-10 -29 -20 -61 -24 -70 -3 -12 0 -18 9 -18 17 0 44 53
53 104 11 58 -18 46 -38 -16z"/>
<path d="M12417 7340 c-31 -69 -34 -93 -11 -88 10 2 22 22 31 50 7 26 18 50
23 53 14 9 12 45 -3 45 -7 0 -25 -27 -40 -60z"/>
<path d="M3494 7379 c-57 -16 -96 -86 -70 -128 10 -16 53 -14 82 5 18 13 23
13 19 3 -7 -19 10 -43 24 -35 6 4 11 16 11 28 0 11 8 42 17 69 10 26 15 50 13
52 -12 10 -68 14 -96 6z m46 -49 c-41 -58 -90 -78 -90 -36 0 30 21 47 68 57
20 3 38 7 40 8 2 0 -6 -12 -18 -29z"/>
<path d="M11600 7310 c-72 -89 -82 -110 -51 -110 14 0 21 6 21 20 0 11 3 20 8
20 4 0 27 25 50 55 24 30 48 54 55 52 7 -1 12 7 12 18 0 43 -32 24 -95 -55z"/>
<path d="M12148 7340 l-57 -40 10 32 c10 36 8 41 -13 33 -15 -6 -28 -46 -28
-86 0 -24 30 -25 56 -1 10 10 36 27 56 39 39 23 52 15 37 -22 -12 -32 -10 -55
6 -61 18 -7 50 22 34 32 -6 3 -9 20 -6 38 5 37 -8 76 -25 75 -7 0 -39 -18 -70
-39z"/>
<path d="M11465 7329 c-45 -42 -46 -42 -39 -15 6 23 4 27 -11 24 -12 -2 -23
-22 -35 -63 -10 -33 -33 -94 -52 -135 -47 -98 -64 -148 -54 -157 15 -15 40 15
65 79 24 61 28 66 51 61 50 -9 128 74 143 153 2 11 7 27 11 36 11 25 3 52 -16
56 -9 2 -38 -16 -63 -39z m40 -45 c-17 -56 -52 -110 -81 -123 -18 -8 -23 -6
-28 12 -3 12 1 31 8 42 24 35 97 115 106 115 5 0 3 -21 -5 -46z"/>
<path d="M11765 7363 c-31 -8 -44 -22 -55 -61 -19 -71 31 -102 106 -66 43 21
52 53 27 96 -19 33 -39 41 -78 31z m51 -49 c15 -22 15 -27 3 -39 -8 -8 -29
-17 -47 -21 -30 -6 -32 -5 -32 21 0 30 25 65 46 65 8 0 21 -12 30 -26z"/>
<path d="M2415 7247 c-10 -8 -15 -19 -11 -25 10 -16 24 -15 42 2 31 31 6 49
-31 23z"/>
<path d="M9391 7153 c-6 -21 -11 -45 -11 -53 0 -8 -24 -74 -54 -147 -42 -103
-51 -134 -41 -143 9 -7 23 5 54 49 41 59 89 106 99 97 2 -3 -8 -41 -23 -85
-27 -77 -28 -117 -3 -109 7 3 14 16 15 29 1 14 10 47 20 74 11 28 19 66 19 85
-1 50 -36 54 -83 8 l-34 -33 20 48 c26 59 62 198 55 209 -11 17 -24 6 -33 -29z"/>
<path d="M7845 7137 c-9 -14 -30 -73 -46 -132 -16 -59 -39 -125 -50 -146 -11
-22 -16 -39 -12 -39 5 0 2 -4 -6 -9 -14 -9 -9 -41 7 -41 5 0 15 14 22 30 7 17
17 30 22 30 6 0 8 7 4 15 -3 8 -2 14 2 13 4 -2 28 20 54 47 l48 50 0 -52 c0
-28 3 -58 6 -67 7 -18 59 -22 69 -6 10 17 25 11 25 -9 0 -38 29 -54 88 -49 29
3 57 9 60 14 4 5 16 9 27 9 11 0 20 7 20 15 0 8 -7 13 -15 11 -52 -14 -120
-23 -134 -18 -29 12 -18 48 29 89 25 22 45 43 45 47 0 4 -9 17 -20 29 -28 30
-55 15 -82 -46 -25 -57 -40 -72 -69 -72 -20 0 -21 3 -15 49 3 27 4 56 0 65
-10 26 -49 18 -84 -16 -26 -26 -32 -29 -28 -13 34 129 50 180 59 192 9 10 9
17 2 24 -8 8 -16 4 -28 -14z m225 -200 c0 -7 -9 -18 -20 -25 -18 -11 -19 -10
-8 13 12 26 28 34 28 12z"/>
<path d="M3676 7138 c-2 -7 -14 -51 -27 -97 l-22 -83 -38 6 c-21 3 -40 2 -44
-3 -7 -12 26 -31 54 -31 12 0 21 -3 21 -7 0 -16 -19 -126 -25 -144 -4 -13 -2
-19 9 -19 21 0 24 7 37 90 8 53 17 79 33 92 15 14 17 21 9 24 -17 8 -16 28 6
99 18 58 18 85 0 85 -5 0 -11 -6 -13 -12z"/>
<path d="M2527 7134 c-4 -4 -7 -18 -7 -31 0 -27 25 -31 34 -6 7 18 -16 48 -27
37z"/>
<path d="M7647 7113 c-4 -3 -7 -14 -7 -24 0 -10 -7 -36 -16 -58 -16 -40 -16
-40 -77 -43 -81 -4 -92 -28 -13 -28 31 0 56 -2 56 -5 0 -4 -6 -18 -14 -33 -18
-36 -38 -131 -30 -144 10 -15 34 20 34 49 0 12 11 48 25 78 l24 56 54 -2 c29
-1 59 1 65 5 27 16 9 26 -47 26 l-59 0 18 58 c10 31 16 60 13 65 -5 9 -17 9
-26 0z"/>
<path d="M9161 7078 c-10 -24 -26 -64 -35 -90 -18 -48 -18 -48 -61 -45 -56 3
-62 -15 -9 -27 l41 -8 -20 -68 c-21 -70 -19 -100 8 -100 11 0 15 6 11 18 -4
11 3 48 14 83 l20 64 76 29 c70 27 96 47 80 63 -3 3 -25 -3 -48 -15 -24 -12
-55 -26 -69 -31 l-27 -10 29 75 c16 42 29 82 29 90 0 28 -22 13 -39 -28z"/>
<path d="M10334 7071 c-2 -2 -4 -10 -4 -18 0 -10 19 -13 74 -13 41 0 77 -4 81
-10 3 -5 -36 -42 -86 -81 -98 -78 -149 -138 -149 -176 0 -29 42 -73 70 -73 28
0 25 18 -5 32 -67 31 -32 90 123 208 73 55 95 91 73 113 -11 11 -168 27 -177
18z"/>
<path d="M9942 7015 c-17 -8 -42 -31 -54 -51 -20 -34 -22 -35 -29 -15 -5 11
-15 21 -23 21 -11 0 -13 -13 -9 -63 4 -40 1 -72 -7 -86 -9 -18 -9 -26 0 -35
16 -15 35 13 55 80 26 89 91 148 137 123 31 -17 45 5 17 25 -28 19 -44 20 -87
1z"/>
<path d="M3472 6993 c4 -39 28 -42 28 -4 0 21 -5 31 -16 31 -11 0 -14 -8 -12
-27z"/>
<path d="M2663 7000 c-28 -12 -29 -29 -3 -80 22 -44 25 -72 10 -101 -22 -40
-74 -13 -75 39 0 30 -14 34 -29 9 -15 -24 16 -82 51 -94 15 -6 38 -7 49 -2 26
9 49 65 31 73 -9 3 -9 5 1 5 17 1 15 29 -8 79 l-19 42 22 1 c47 3 52 4 52 19
0 18 -49 24 -82 10z"/>
<path d="M5933 6936 c6 -71 29 -118 58 -114 10 2 18 0 19 -5 0 -4 -24 -58 -54
-120 -51 -104 -60 -133 -57 -195 2 -46 26 -15 32 41 6 57 57 166 148 321 22
38 38 73 36 77 -3 4 2 9 10 13 19 7 20 36 1 36 -8 0 -29 -29 -47 -64 -18 -36
-36 -64 -39 -64 -3 1 -13 -2 -23 -7 -30 -13 -48 16 -54 84 -4 43 -10 61 -20
61 -11 0 -13 -13 -10 -64z"/>
<path d="M4449 6946 c-34 -48 -47 -60 -29 -27 14 27 13 51 -2 51 -12 0 -83
-160 -83 -185 0 -5 7 -11 16 -13 10 -2 34 26 70 80 51 78 54 81 57 53 8 -79
54 -123 118 -110 19 3 34 2 34 -3 0 -5 13 -15 29 -21 37 -16 100 -5 125 22 20
20 19 20 -5 14 -69 -17 -95 -18 -113 -4 -19 14 -18 15 3 36 66 66 89 134 51
146 -42 13 -98 -47 -107 -115 -7 -47 -32 -60 -68 -36 -27 17 -33 36 -37 105
-2 25 -8 46 -15 48 -6 2 -26 -16 -44 -41z m244 -27 c-10 -17 -26 -38 -37 -47
-18 -16 -18 -16 -11 8 12 38 36 70 52 70 11 0 11 -6 -4 -31z"/>
<path d="M4192 6964 c-25 -18 -45 -83 -36 -119 15 -61 96 -75 138 -24 32 38
33 76 3 120 -26 38 -69 48 -105 23z m86 -51 c37 -50 -33 -124 -76 -81 -16 16
-15 81 0 96 16 16 58 7 76 -15z"/>
<path d="M5558 6975 c-3 -3 -3 -35 0 -71 4 -53 2 -68 -13 -84 -25 -27 -45 -9
-45 41 0 50 -12 50 -74 -1 -26 -22 -50 -40 -51 -40 -2 0 5 25 16 56 33 94 10
115 -75 68 -73 -41 -56 -62 19 -24 21 11 40 19 41 17 1 -1 -8 -33 -22 -71 -13
-38 -24 -75 -24 -83 0 -25 35 -13 85 28 l50 41 8 -31 c11 -43 47 -60 81 -37
32 20 43 61 36 133 -5 51 -17 73 -32 58z"/>
<path d="M6920 6967 c-31 -15 -77 -106 -86 -171 -10 -72 17 -56 37 23 22 84
47 116 90 117 54 2 55 4 30 24 -27 23 -37 24 -71 7z"/>
<path d="M8829 6973 c-10 -2 -20 -12 -23 -21 -3 -9 -15 -33 -26 -52 -36 -62
-21 -120 31 -120 45 0 91 23 127 64 40 45 40 69 3 107 -29 28 -64 35 -112 22z
m91 -43 c26 -26 25 -32 -5 -69 -28 -32 -86 -57 -112 -47 -31 12 8 109 51 126
33 13 44 12 66 -10z"/>
<path d="M9612 6960 c-32 -30 -52 -74 -59 -129 -5 -41 -2 -52 17 -71 18 -18
29 -21 63 -16 55 9 139 46 134 60 -5 14 -17 12 -95 -15 -57 -20 -65 -21 -79
-6 -11 11 -14 25 -9 49 5 27 13 36 50 51 52 21 79 48 74 74 -5 27 -67 30 -96
3z m68 -14 c0 -2 -16 -13 -35 -25 -38 -22 -45 -18 -18 11 14 15 53 26 53 14z"/>
<path d="M2444 6949 c-12 -20 -33 -131 -27 -146 8 -20 22 -16 27 10 3 12 9 42
14 67 5 25 11 51 13 59 5 17 -17 26 -27 10z"/>
<path d="M5716 6911 c-39 -52 -46 -91 -20 -111 13 -11 23 -10 58 8 l44 21 6
-29 c6 -33 35 -53 57 -40 11 8 10 12 -9 26 -24 17 -24 16 -10 99 2 12 -3 21
-14 23 -11 2 -18 -3 -18 -12 0 -18 -60 -66 -83 -66 -10 0 -17 3 -17 8 0 19 54
84 78 94 25 10 26 11 7 18 -35 15 -43 11 -79 -39z"/>
<path d="M3421 6868 c-23 -91 -25 -111 -10 -106 13 4 60 137 52 151 -12 20
-30 1 -42 -45z"/>
<path d="M6641 6872 c-23 -26 -41 -56 -42 -67 -5 -80 52 -109 122 -62 82 55
77 155 -8 171 -29 5 -36 0 -72 -42z m104 -11 c15 -49 -38 -116 -88 -109 -57 8
-7 128 54 128 18 0 30 -6 34 -19z"/>
<path d="M10262 6428 c0 -13 -3 -33 -7 -45 -5 -17 -3 -23 8 -23 18 0 42 53 33
75 -9 23 -34 18 -34 -7z"/>
</g>
</svg>
