<?xml version="1.0" standalone="no"?>
<!DOCTYPE svg PUBLIC "-//W3C//DTD SVG 20010904//EN"
 "http://www.w3.org/TR/2001/REC-SVG-20010904/DTD/svg10.dtd">
<svg version="1.0" xmlns="http://www.w3.org/2000/svg"
 width="1618.000000pt" height="1214.000000pt" viewBox="0 0 1618.000000 1214.000000"
 preserveAspectRatio="xMidYMid meet">

<g transform="translate(0.000000,1214.000000) scale(0.100000,-0.100000)"
fill="#000000" stroke="none">
<path d="M3917 11653 c-40 -63 -68 -135 -74 -188 -7 -58 -37 -104 -93 -141
-71 -47 -106 -5 -57 67 12 19 37 43 54 54 34 21 43 45 18 45 -22 0 -101 -75
-115 -109 -17 -43 -9 -83 21 -100 36 -20 68 -9 128 45 33 30 51 40 51 30 0 -8
14 -31 31 -51 27 -30 37 -35 75 -35 47 0 107 20 119 40 13 21 -3 22 -48 5 -36
-14 -51 -15 -86 -5 -35 9 -45 18 -57 47 -15 34 -14 39 9 92 48 108 88 221 82
231 -12 20 -35 9 -58 -27z"/>
<path d="M15076 11610 l-18 -70 -52 0 c-61 0 -92 -18 -112 -66 -30 -72 -13
-141 43 -172 15 -9 15 -13 -6 -47 -14 -25 -19 -41 -12 -48 14 -14 30 0 47 43
11 27 30 47 65 69 71 44 101 126 64 177 -13 19 -12 28 7 86 20 61 20 98 1 98
-5 0 -17 -31 -27 -70z m-44 -130 c-4 -37 -59 -150 -73 -150 -26 0 -49 33 -49
71 0 73 36 111 100 106 20 -2 24 -7 22 -27z m48 -36 c0 -31 -25 -76 -51 -92
-15 -10 -15 -5 6 41 14 29 25 58 25 65 0 6 5 12 10 12 6 0 10 -12 10 -26z"/>
<path d="M2092 11571 c-34 -54 -65 -107 -69 -117 -3 -11 -9 -21 -13 -24 -4 -3
-29 -47 -56 -99 -32 -62 -57 -96 -72 -102 -26 -10 -21 -29 7 -29 23 0 41 20
80 91 30 54 33 57 81 63 28 4 56 9 63 12 9 3 17 -14 25 -55 12 -56 31 -88 45
-74 10 9 8 48 -2 59 -5 5 -12 25 -16 45 -6 33 -5 37 20 43 31 8 28 32 -3 28
-21 -3 -22 0 -22 85 0 48 4 102 8 118 9 31 6 55 -7 55 -4 0 -35 -44 -69 -99z
m38 -86 l0 -84 -37 -7 c-21 -3 -44 -13 -50 -22 -9 -11 -13 -12 -13 -3 0 8 -6
11 -15 7 -20 -7 -19 6 3 26 9 9 37 50 62 92 25 41 46 76 48 76 1 0 2 -38 2
-85z"/>
<path d="M13207 11627 c-3 -18 -15 -49 -27 -70 -17 -29 -25 -35 -36 -26 -19
15 -49 3 -79 -32 -27 -33 -32 -73 -14 -113 10 -22 7 -32 -30 -87 -32 -48 -39
-65 -30 -75 14 -17 39 -1 39 23 0 28 54 93 72 87 28 -8 96 15 113 39 22 31 19
72 -8 103 l-23 27 32 60 c31 58 35 97 9 97 -7 0 -15 -15 -18 -33z m-89 -176
c-26 -44 -42 -51 -46 -22 -5 32 16 61 44 61 l25 0 -23 -39z m68 2 c18 -25 17
-47 -3 -66 -25 -22 -73 -33 -73 -17 0 13 51 100 59 100 2 0 10 -8 17 -17z"/>
<path d="M6790 11639 c0 -7 11 -22 25 -35 23 -21 25 -30 25 -104 0 -77 -2 -83
-29 -111 -16 -16 -36 -29 -44 -29 -25 0 -94 57 -127 104 -48 71 -60 62 -70
-57 -6 -61 -12 -84 -26 -94 -14 -10 -15 -16 -6 -25 10 -10 17 -7 34 10 18 17
23 36 26 92 2 38 8 70 13 70 5 0 9 -6 9 -14 0 -19 96 -105 126 -112 28 -7 75
10 98 35 23 25 32 88 25 170 -4 61 -10 77 -28 92 -26 21 -51 25 -51 8z"/>
<path d="M7397 11603 c-16 -35 -22 -68 -23 -126 -1 -76 -2 -79 -35 -107 -51
-44 -99 -36 -99 15 0 28 38 68 57 61 8 -3 19 -3 24 0 16 9 -11 34 -37 34 -37
0 -101 -98 -74 -115 6 -3 8 -10 5 -15 -8 -13 36 -40 66 -40 14 0 45 14 68 31
24 17 44 29 45 27 1 -2 8 -16 16 -32 9 -18 32 -37 60 -49 39 -18 51 -19 98 -9
36 8 61 8 80 1 35 -13 162 7 162 26 0 7 3 20 6 29 9 22 -18 20 -38 -3 -16 -19
-100 -37 -118 -26 -6 4 -1 18 14 36 51 60 43 139 -14 139 -43 0 -71 -48 -68
-115 2 -49 2 -49 -35 -58 -28 -7 -45 -5 -74 10 -53 25 -69 62 -53 120 7 24 13
81 14 125 1 99 -14 112 -47 41z m14 -98 c-6 -35 -9 -41 -10 -20 -1 30 9 78 15
73 2 -2 -1 -26 -5 -53z m262 -91 c-1 -15 -14 -39 -28 -53 l-25 -26 0 36 c0 38
25 82 43 76 7 -2 11 -17 10 -33z"/>
<path d="M15540 11626 c0 -8 9 -18 20 -21 30 -9 24 -34 -16 -71 -41 -40 -60
-43 -70 -11 -9 28 -8 32 14 32 10 0 17 8 17 20 0 16 -6 19 -25 17 -49 -7 -61
-34 -37 -82 12 -23 10 -28 -20 -56 -40 -38 -45 -92 -13 -124 23 -23 68 -26 94
-7 20 14 26 83 12 124 -7 19 -2 26 28 44 63 37 85 105 44 133 -28 20 -48 20
-48 2z m-46 -252 c-6 -24 -36 -40 -54 -29 -5 3 -14 15 -20 25 -8 15 -4 26 22
55 l31 36 14 -31 c7 -18 10 -43 7 -56z"/>
<path d="M2420 11607 c0 -7 5 -18 11 -24 17 -17 23 -135 9 -192 -13 -54 -64
-112 -98 -110 -10 0 -12 3 -4 6 6 2 12 17 12 31 0 37 13 54 41 56 32 2 35 24
4 32 -34 8 -63 -19 -75 -69 -9 -41 0 -99 16 -104 17 -6 97 65 119 106 27 48
32 236 7 264 -18 20 -42 23 -42 4z"/>
<path d="M14053 11581 c-29 -24 -29 -51 -2 -85 12 -15 20 -28 18 -29 -2 -2
-23 -15 -46 -30 -33 -21 -43 -34 -43 -53 0 -35 53 -84 91 -84 37 0 49 24 49
100 0 56 3 64 30 87 39 32 38 55 -4 87 -41 31 -63 32 -93 7z m87 -58 c0 -7 -9
-17 -20 -23 -17 -9 -24 -7 -40 12 -24 29 -24 35 -3 46 19 11 62 -14 63 -35z
m-50 -133 c0 -37 -4 -52 -16 -57 -16 -6 -64 32 -64 52 0 8 64 53 78 55 1 0 2
-23 2 -50z"/>
<path d="M14578 11560 c-20 -11 -39 -24 -43 -29 -12 -20 16 -21 54 -1 77 39
89 20 45 -68 -15 -29 -45 -68 -70 -89 -54 -43 -71 -70 -55 -86 8 -8 23 0 54
31 23 23 48 42 55 42 7 0 20 -16 29 -35 19 -40 52 -53 90 -36 21 10 24 16 18
44 -4 17 -11 36 -15 41 -11 11 -31 -29 -24 -48 13 -34 -26 -14 -47 24 -13 22
-27 40 -31 40 -5 0 2 19 16 43 32 55 46 109 34 130 -12 23 -64 21 -110 -3z"/>
<path d="M13883 11555 c-3 -9 -3 -18 0 -21 4 -4 -15 -103 -38 -201 -4 -18 -1
-23 14 -23 15 0 22 9 26 38 4 20 13 72 22 115 8 43 12 85 9 93 -7 19 -25 18
-33 -1z"/>
<path d="M15280 11528 c0 -18 -11 -75 -25 -126 -30 -111 -29 -101 -8 -98 13 2
23 26 40 92 27 106 30 164 8 164 -10 0 -15 -10 -15 -32z"/>
<path d="M13425 11540 c-3 -5 -3 -19 0 -32 3 -13 -3 -63 -15 -111 -24 -105
-25 -117 -5 -117 8 0 15 5 15 10 0 6 0 11 1 13 0 1 11 46 23 100 13 53 21 108
18 122 -4 25 -25 34 -37 15z"/>
<path d="M5610 11480 c-32 -32 -40 -47 -40 -76 0 -19 4 -44 10 -54 21 -38 135
-37 185 2 34 26 19 47 -17 24 -37 -24 -109 -31 -133 -13 -11 9 -18 17 -15 19
3 2 31 16 63 32 99 50 116 106 32 106 -39 0 -50 -5 -85 -40z m89 -6 c-12 -15
-81 -54 -96 -54 -4 0 8 16 27 35 20 21 44 35 58 35 21 0 23 -2 11 -16z"/>
<path d="M5454 11502 c-12 -2 -34 -16 -50 -33 -24 -26 -29 -39 -32 -99 -4 -59
-2 -70 12 -70 18 0 19 6 17 70 -3 63 25 98 82 102 23 2 41 8 39 13 -3 12 -40
22 -68 17z"/>
<path d="M3490 11474 c-64 -40 -96 -150 -53 -182 32 -24 153 4 153 35 0 16 -1
16 -61 -3 -57 -19 -79 -14 -79 19 0 19 7 26 29 30 39 8 89 72 74 95 -14 23
-33 25 -63 6z m10 -49 c-13 -14 -28 -25 -33 -25 -6 0 0 11 13 25 13 14 28 25
33 25 6 0 0 -11 -13 -25z"/>
<path d="M2861 11432 c-54 -55 -69 -88 -51 -121 14 -28 42 -27 78 4 l29 24 12
-25 c7 -16 18 -24 28 -22 23 4 30 38 8 38 -11 0 -15 6 -11 18 13 45 17 90 8
96 -6 3 -22 -14 -36 -38 -31 -53 -75 -91 -89 -77 -13 13 14 57 61 98 28 25 34
35 25 44 -9 9 -23 0 -62 -39z"/>
<path d="M4969 11457 c-19 -12 -45 -44 -59 -70 -23 -44 -24 -49 -10 -74 13
-24 23 -28 64 -31 53 -3 109 14 103 32 -3 6 -11 9 -18 6 -8 -2 -36 -4 -63 -5
-67 0 -77 18 -42 72 28 43 71 70 82 52 4 -6 11 -6 20 2 11 9 11 15 3 25 -16
20 -41 17 -80 -9z"/>
<path d="M7022 11460 c-13 -5 -30 -26 -38 -46 -14 -32 -13 -38 1 -60 21 -32
68 -32 100 0 29 29 42 73 28 95 -12 19 -58 24 -91 11z m51 -67 c-11 -16 -30
-29 -42 -31 -17 -3 -21 2 -21 22 0 28 16 42 43 38 9 -2 17 2 17 9 0 10 3 10
12 1 9 -9 7 -18 -9 -39z"/>
<path d="M2670 11396 c-12 -36 -30 -76 -39 -88 -18 -22 -18 -21 -40 50 -18 57
-27 72 -42 72 -10 0 -19 -7 -19 -15 0 -8 5 -15 10 -15 6 0 10 -8 10 -18 0 -10
3 -22 7 -26 5 -4 12 -26 18 -48 5 -23 18 -46 28 -52 15 -9 23 -6 43 19 13 17
34 56 46 88 18 51 24 57 49 57 15 0 31 5 34 11 9 14 6 16 -41 24 l-42 6 -22
-65z"/>
<path d="M5207 11453 c-14 -13 -7 -34 11 -32 9 1 23 1 30 0 14 -1 32 -40 25
-57 -11 -29 -112 -47 -114 -21 -3 24 3 42 19 60 25 28 0 45 -27 18 -50 -50
-30 -121 35 -121 77 0 131 44 118 95 -11 42 -75 81 -97 58z"/>
<path d="M3087 11444 c-4 -4 -16 -7 -28 -8 -17 -1 -26 -13 -41 -55 -12 -36
-15 -58 -8 -65 11 -11 9 -14 44 47 21 37 32 47 49 45 20 -3 22 -9 22 -67 0
-38 5 -66 11 -68 12 -4 24 41 24 92 0 49 -49 102 -73 79z"/>
<path d="M3226 11410 c-20 -51 -20 -70 0 -98 11 -16 24 -22 42 -20 31 3 38 33
8 33 -33 0 -42 29 -23 70 21 43 21 55 3 55 -8 0 -21 -18 -30 -40z"/>
<path d="M14297 11303 c-13 -12 -7 -23 13 -23 11 0 20 7 20 15 0 15 -21 21
-33 8z"/>
<path d="M13512 11283 c5 -25 28 -28 28 -4 0 12 -6 21 -16 21 -9 0 -14 -7 -12
-17z"/>
<path d="M1365 10780 c-4 -7 -3 -16 3 -22 7 -7 9 -64 5 -169 l-6 -159 39 0
c21 0 63 -7 93 -15 30 -8 58 -12 63 -9 21 13 -19 34 -89 46 l-75 12 4 160 c3
143 1 161 -14 164 -9 2 -19 -2 -23 -8z"/>
<path d="M3520 10751 c-40 -13 -105 -48 -120 -66 -18 -21 -4 -32 21 -17 11 7
39 23 62 35 23 11 45 26 49 31 5 7 8 6 8 -2 0 -9 7 -11 20 -7 93 29 73 -96
-26 -164 -46 -32 -57 -28 -49 19 8 47 0 66 -21 49 -8 -6 -14 -29 -14 -50 0
-21 -3 -40 -7 -42 -5 -3 -33 -1 -63 4 -30 5 -58 5 -63 0 -14 -14 17 -30 68
-35 26 -3 49 -7 51 -8 1 -2 -6 -30 -17 -62 -19 -57 -20 -86 -1 -86 5 0 20 36
33 80 19 68 26 80 44 80 12 0 43 16 68 35 140 107 110 252 -43 206z"/>
<path d="M6819 10711 c-51 -52 -35 -97 66 -185 82 -73 92 -89 70 -122 -19 -29
-40 -30 -84 -3 -22 13 -40 37 -54 70 -12 27 -27 49 -34 49 -16 0 -16 -5 0 -52
23 -65 87 -118 142 -118 33 0 75 44 75 79 0 19 -20 45 -78 101 -93 88 -106
109 -92 144 12 33 38 33 50 0 13 -34 44 -29 48 8 3 21 -3 30 -27 42 -41 22
-48 20 -82 -13z"/>
<path d="M6552 10708 c-10 -10 -101 -13 -139 -4 -18 4 -34 3 -37 -3 -12 -19
38 -33 113 -32 l76 1 22 -45 c12 -25 18 -43 13 -40 -11 7 -14 -8 -4 -17 10
-11 15 -186 6 -192 -6 -3 -32 9 -58 27 -36 23 -50 39 -52 60 -4 30 -14 34 -32
12 -16 -19 4 -52 53 -89 50 -38 93 -51 114 -35 13 12 15 29 10 114 -4 55 -14
124 -22 153 -9 30 -14 56 -12 58 2 2 30 8 63 12 33 4 56 11 54 17 -6 11 -156
15 -168 3z"/>
<path d="M4163 10565 c-12 -8 -31 -31 -43 -50 -12 -19 -26 -33 -31 -29 -17 10
-28 -6 -20 -29 5 -12 4 -35 0 -51 -5 -16 -6 -33 -3 -37 8 -13 34 2 34 20 1 43
75 161 102 161 4 0 8 -9 8 -20 0 -11 7 -20 15 -20 18 0 20 41 3 58 -16 16 -39
15 -65 -3z"/>
<path d="M1706 10552 c-15 -14 -3 -33 33 -52 33 -16 62 -55 49 -64 -114 -79
-147 -111 -130 -128 8 -8 18 -4 39 18 15 16 52 45 80 64 57 38 61 48 37 85
-19 29 -99 86 -108 77z"/>
<path d="M3650 10510 c-26 -28 -60 -105 -60 -137 0 -15 26 -18 35 -3 4 6 8 25
10 42 7 53 62 113 73 80 5 -17 32 -15 32 2 0 15 -36 46 -53 46 -5 0 -22 -14
-37 -30z"/>
<path d="M3811 10505 c-71 -64 -78 -129 -18 -165 17 -11 49 -20 70 -20 45 0
97 24 97 45 0 19 -19 19 -44 0 -24 -18 -66 -19 -100 -4 -45 21 -40 38 29 81
65 40 76 57 53 75 -32 25 -49 22 -87 -12z m54 -15 c-3 -6 -21 -17 -38 -26
l-32 -15 28 25 c28 26 54 35 42 16z"/>
<path d="M4309 10523 c-54 -33 -77 -114 -43 -147 22 -23 90 -20 121 4 22 17
23 21 9 26 -9 3 -23 1 -30 -6 -8 -6 -30 -10 -48 -8 -45 4 -48 30 -5 46 18 6
46 25 62 42 23 24 26 32 15 45 -16 19 -48 19 -81 -2z m36 -29 c-36 -28 -61
-36 -30 -10 17 14 35 26 40 26 6 -1 1 -8 -10 -16z"/>
<path d="M4540 10471 c-42 -44 -57 -90 -46 -143 14 -72 61 -80 101 -15 15 23
24 33 21 22 -9 -35 -36 -315 -36 -376 0 -73 20 -80 45 -15 21 55 76 109 140
137 56 25 80 45 65 54 -18 11 -158 -64 -189 -102 l-30 -36 5 59 c5 55 17 164
33 294 13 116 -17 136 -55 37 -13 -33 -29 -66 -35 -74 -11 -13 -14 -13 -26 3
-20 28 -15 76 12 116 26 38 66 60 73 39 7 -22 34 -12 30 12 -2 17 -11 23 -36
25 -28 3 -40 -3 -72 -37z"/>
<path d="M5225 10500 c-22 -5 -61 -11 -87 -15 -33 -4 -48 -11 -48 -21 0 -12
10 -13 53 -9 96 10 166 27 171 41 6 16 -24 17 -89 4z"/>
<path d="M11204 9930 c-55 -22 -94 -122 -94 -241 l0 -78 -62 -3 c-49 -2 -64
-7 -66 -19 -3 -15 5 -16 62 -12 l66 6 0 -66 c0 -79 -6 -96 -37 -108 -29 -11
-21 -29 12 -29 36 0 55 45 55 129 0 64 2 70 22 73 12 2 23 9 26 16 3 9 -3 13
-19 10 -24 -3 -24 -3 -23 97 0 109 11 141 60 185 20 18 25 20 21 8 -8 -23 11
-34 29 -16 12 12 12 17 -2 36 -17 24 -19 25 -50 12z"/>
<path d="M5931 9902 c-74 -37 -71 -87 10 -170 90 -92 121 -161 84 -192 -19
-16 -69 1 -125 41 -26 19 -48 28 -58 24 -14 -6 -12 -10 13 -31 44 -36 125 -74
156 -74 60 0 79 88 33 156 -15 21 -51 65 -80 96 -58 61 -69 99 -35 118 31 16
76 12 105 -11 30 -23 51 -18 36 10 -8 16 -76 51 -98 51 -4 0 -22 -8 -41 -18z"/>
<path d="M7956 9878 c-15 -103 1 -409 23 -431 21 -21 28 5 16 57 -7 30 -11 57
-8 60 2 2 -3 16 -12 30 -10 14 -13 26 -7 26 6 0 12 54 14 133 3 72 7 138 9
146 2 8 -3 16 -12 18 -13 3 -18 -6 -23 -39z"/>
<path d="M8945 9897 c-4 -9 -3 -23 3 -30 16 -19 25 -120 14 -160 -9 -33 -8
-37 8 -37 24 0 33 53 24 137 -7 70 -36 124 -49 90z"/>
<path d="M8672 9848 c-64 -45 -72 -55 -47 -64 15 -6 87 49 79 60 -2 3 1 3 6
-2 6 -5 -5 -59 -30 -147 -52 -180 -42 -219 33 -133 24 28 37 36 37 26 0 -28
22 -67 46 -83 21 -13 28 -14 57 -1 46 19 137 133 120 150 -12 12 -20 6 -52
-44 -36 -56 -65 -80 -97 -80 -22 0 -36 24 -50 83 -8 35 -21 34 -62 -5 l-33
-33 7 30 c6 26 55 191 78 263 12 35 -21 28 -92 -20z"/>
<path d="M7816 9863 c-4 -9 -1 -20 5 -24 12 -7 7 -245 -7 -331 -5 -29 -3 -38
8 -38 10 0 18 22 26 78 13 81 16 289 6 316 -8 21 -30 20 -38 -1z"/>
<path d="M10286 9808 c-4 -40 -9 -98 -11 -128 -3 -30 -8 -87 -11 -126 -5 -49
-3 -73 5 -78 17 -11 22 13 24 106 1 45 5 85 8 88 4 3 10 51 13 108 6 86 5 102
-7 102 -11 0 -16 -19 -21 -72z"/>
<path d="M2384 9848 c29 -101 36 -140 36 -193 0 -38 -6 -69 -14 -81 -15 -19
-15 -19 -31 1 -8 11 -40 61 -71 112 -30 51 -59 95 -64 98 -5 3 -13 -2 -18 -12
-14 -26 -19 -287 -7 -293 13 -7 23 65 24 170 l1 85 44 -75 c88 -149 121 -169
153 -93 29 71 -4 303 -44 303 -11 0 -14 -6 -9 -22z"/>
<path d="M3587 9854 c-4 -4 -7 -56 -7 -114 0 -80 4 -111 14 -119 8 -7 16 -8
19 -4 2 4 3 60 1 123 -2 105 -9 132 -27 114z"/>
<path d="M2855 9838 c-20 -59 -24 -99 -15 -152 7 -46 6 -64 -5 -87 -8 -15 -15
-36 -15 -45 0 -10 -3 -15 -6 -11 -4 3 -13 0 -21 -8 -20 -21 -40 -19 -53 4 -16
30 4 71 34 71 29 0 44 18 22 26 -26 10 -70 -11 -84 -40 -28 -56 14 -117 72
-102 14 3 36 22 50 42 l24 36 11 -34 c15 -44 56 -68 96 -57 19 6 40 5 57 -2
38 -15 106 -2 119 23 15 29 5 33 -36 13 -21 -9 -47 -14 -60 -11 l-24 6 35 51
c19 28 34 63 34 78 0 37 -26 71 -55 71 -39 0 -60 -42 -60 -125 l-1 -70 -29 0
c-37 0 -59 40 -56 100 1 22 3 83 4 135 2 83 0 95 -16 98 -9 2 -19 -2 -22 -10z
m201 -183 c6 -26 -21 -85 -44 -93 -15 -5 -16 43 -1 87 13 37 36 41 45 6z"/>
<path d="M6961 9812 c-6 -21 -14 -52 -17 -70 -6 -30 -9 -32 -51 -32 -46 0 -83
-14 -83 -30 0 -6 24 -7 59 -4 l59 7 4 -71 c2 -51 9 -76 22 -91 36 -39 139 -39
149 0 7 26 -9 34 -29 15 -23 -23 -61 -19 -89 9 -20 19 -25 34 -25 72 0 26 4
54 8 61 5 7 34 14 68 16 32 2 61 4 63 5 2 1 -2 8 -10 17 -10 13 -24 14 -66 9
l-53 -6 7 33 c3 18 10 41 14 50 13 25 11 48 -6 48 -8 0 -19 -16 -24 -38z"/>
<path d="M4841 9822 c-14 -26 3 -40 25 -21 12 10 17 9 28 -7 8 -10 28 -36 45
-57 43 -55 73 -139 65 -186 -9 -59 -18 -67 -47 -49 -41 28 -82 73 -107 122
-24 44 -50 61 -50 33 0 -22 74 -130 109 -160 47 -39 80 -45 102 -18 42 52 30
162 -27 246 -13 20 -24 38 -24 40 0 3 27 5 61 5 42 0 59 4 57 12 -7 20 -66 38
-180 54 -40 5 -48 3 -57 -14z"/>
<path d="M10420 9821 c0 -6 6 -11 13 -11 6 0 4 -5 -5 -11 -10 -6 -18 -22 -18
-37 0 -15 -7 -74 -15 -132 -12 -78 -13 -113 -6 -134 16 -39 32 -22 27 29 -2
24 3 74 10 112 18 101 22 185 7 190 -7 3 -13 0 -13 -6z"/>
<path d="M6496 9783 c-12 -12 -6 -33 9 -33 8 0 15 6 15 14 0 17 -14 28 -24 19z"/>
<path d="M3883 9735 c-33 -14 -41 -29 -24 -39 5 -3 22 1 38 9 22 11 38 12 64
5 18 -6 35 -10 36 -10 2 0 3 8 3 19 0 13 -10 20 -31 25 -42 8 -49 7 -86 -9z"/>
<path d="M10163 9733 c-14 -5 -18 -35 -6 -46 3 -4 13 2 21 14 15 22 6 40 -15
32z"/>
<path d="M13394 9715 c-23 -13 -54 -41 -70 -62 -15 -21 -34 -42 -41 -46 -7 -4
-13 -21 -13 -37 0 -17 -11 -73 -25 -126 -14 -53 -22 -100 -19 -105 14 -22 34
18 54 107 19 83 23 92 37 79 8 -8 22 -15 31 -15 37 1 147 126 135 156 -3 8 -1
14 5 14 8 0 9 18 3 53 -2 16 -58 6 -97 -18z m76 -10 c0 -22 -35 -81 -71 -119
-45 -50 -59 -56 -59 -27 0 11 -6 21 -12 23 -12 4 -4 22 34 69 26 32 108 73
108 54z"/>
<path d="M13768 9711 c-34 -27 -90 -127 -86 -154 2 -12 10 -23 18 -25 11 -2
21 15 33 57 22 75 46 105 83 106 19 0 29 5 29 15 0 23 -48 24 -77 1z"/>
<path d="M13942 9687 c-50 -51 -63 -98 -38 -145 18 -36 43 -46 108 -44 54 1
99 19 106 42 2 9 0 11 -5 5 -4 -6 -42 -12 -84 -13 -71 -3 -78 -2 -93 20 -23
32 -20 45 12 51 41 9 92 45 92 65 0 23 -27 62 -43 62 -7 0 -32 -19 -55 -43z
m66 -15 c2 -6 -13 -18 -34 -27 -50 -21 -52 -19 -19 15 29 30 45 34 53 12z"/>
<path d="M9852 9656 c-38 -30 -79 -59 -91 -65 -12 -7 -21 -16 -21 -21 0 -22
40 -8 89 31 28 22 51 39 51 36 0 -3 -14 -34 -30 -69 -17 -37 -28 -72 -24 -82
10 -27 48 -18 94 21 l43 37 15 -22 c16 -24 54 -29 70 -9 6 7 13 39 16 70 3 44
1 57 -9 57 -17 0 -25 -24 -23 -68 1 -36 -5 -47 -21 -37 -6 3 -8 17 -5 31 8 32
-20 44 -45 18 -43 -45 -93 -85 -99 -80 -3 4 14 46 38 94 24 48 45 91 45 96 1
24 -28 12 -93 -38z"/>
<path d="M5172 9693 c-18 -7 -42 -57 -42 -87 0 -29 27 -59 46 -52 8 3 21 9 29
12 10 4 15 0 15 -10 0 -26 49 -71 63 -57 8 8 5 17 -12 35 -18 19 -23 36 -23
75 1 50 -11 72 -29 54 -5 -5 -10 -21 -11 -36 -2 -26 -32 -47 -46 -33 -12 13
14 61 41 74 42 20 14 43 -31 25z"/>
<path d="M5570 9693 c-23 -8 -50 -35 -45 -43 3 -4 -2 -10 -10 -14 -9 -3 -15
-19 -15 -41 0 -30 3 -35 23 -35 12 0 32 7 44 15 19 14 21 13 27 -10 7 -29 53
-46 66 -24 11 17 2 32 -16 25 -19 -7 -28 33 -15 68 15 37 14 43 -6 50 -10 3
-22 8 -28 10 -5 2 -17 2 -25 -1z m30 -42 c0 -15 -64 -64 -68 -53 -6 18 29 62
49 62 11 0 19 -4 19 -9z"/>
<path d="M6194 9688 c-25 -12 -44 -48 -44 -84 0 -40 51 -84 97 -84 42 0 83 23
83 46 0 18 -10 17 -34 -1 -42 -32 -99 -13 -111 37 -8 33 23 68 60 68 16 0 25
6 25 15 0 17 -43 19 -76 3z"/>
<path d="M6360 9680 c-15 -28 -9 -152 8 -158 10 -3 12 12 11 61 -2 72 3 87 32
87 30 0 18 24 -14 28 -18 2 -29 -3 -37 -18z"/>
<path d="M11850 9679 c-9 -16 -7 -29 10 -64 28 -58 24 -100 -10 -100 -20 0
-26 6 -28 28 -3 26 -25 37 -36 18 -12 -18 16 -70 42 -79 74 -25 103 44 61 146
-13 30 -12 34 4 43 9 6 15 14 12 20 -11 16 -44 10 -55 -12z"/>
<path d="M12734 9681 c-18 -11 -34 -24 -38 -29 -3 -5 -16 -7 -29 -5 -22 4 -25
0 -35 -49 -5 -29 -8 -56 -5 -60 9 -15 24 -8 33 16 10 28 48 74 70 86 13 7 15
2 12 -28 -4 -47 16 -77 46 -68 28 9 29 36 2 36 -22 0 -25 17 -12 65 9 30 6 55
-6 55 -4 0 -21 -9 -38 -19z"/>
<path d="M5320 9667 c0 -13 15 -53 33 -88 46 -91 65 -88 93 14 20 71 18 97 -5
82 -5 -3 -15 -30 -22 -60 -7 -30 -15 -55 -19 -55 -7 0 -30 47 -50 103 -12 33
-30 36 -30 4z"/>
<path d="M9046 9661 c-29 -31 -61 -125 -49 -145 4 -6 8 -19 8 -30 2 -21 39
-52 74 -61 25 -6 81 11 81 26 0 15 -20 20 -40 9 -26 -14 -70 5 -86 39 -11 21
-8 27 32 65 46 44 58 88 32 114 -17 17 -21 16 -52 -17z m34 -27 c0 -7 -11 -26
-25 -41 l-25 -28 10 28 c5 15 9 31 9 35 -2 14 1 19 16 19 8 0 15 -6 15 -13z"/>
<path d="M13526 9659 c-15 -74 5 -129 45 -129 29 0 121 89 117 114 -4 29 -25
31 -32 3 -3 -14 -22 -39 -42 -56 -30 -26 -38 -30 -51 -20 -11 10 -13 25 -8 66
5 43 4 53 -8 53 -8 0 -17 -14 -21 -31z"/>
<path d="M2564 9671 c3 -4 -5 -18 -19 -31 -25 -23 -41 -70 -36 -105 8 -57 66
-62 118 -10 31 31 35 40 30 70 -3 20 -1 35 5 37 23 8 -4 28 -37 28 -19 0 -37
5 -40 10 -3 6 -11 10 -16 10 -6 0 -8 -4 -5 -9z m56 -61 c14 -27 4 -57 -26 -76
-32 -21 -54 -11 -54 23 1 30 16 56 40 66 25 9 29 8 40 -13z"/>
<path d="M6662 9643 c-20 -21 -39 -37 -44 -35 -12 3 -10 -262 2 -293 9 -23 13
-25 25 -15 18 15 21 150 4 167 -15 15 -3 33 22 33 68 0 114 99 73 158 -22 31
-41 28 -82 -15z m68 -40 c0 -12 -11 -35 -24 -50 -24 -27 -25 -28 -39 -8 -13
17 -13 24 4 56 28 56 58 57 59 2z"/>
<path d="M12490 9648 c-60 -40 -67 -128 -11 -136 31 -5 91 17 91 34 0 8 5 13
12 12 6 -2 16 10 22 25 8 22 7 35 -5 55 -20 36 -64 40 -109 10z m84 -31 c15
-23 -38 -77 -76 -77 -16 0 -28 5 -28 13 1 35 16 60 44 73 36 15 46 14 60 -9z"/>
<path d="M11703 9628 c6 -38 -17 -94 -44 -108 -42 -23 -64 16 -45 78 5 16 3
22 -8 22 -38 0 -45 -83 -9 -122 17 -19 63 -25 63 -8 0 6 7 10 15 10 8 0 26 17
40 38 31 47 32 114 1 120 -16 3 -18 -1 -13 -30z"/>
<path d="M11395 9613 c-10 -15 -20 -45 -23 -68 -4 -37 -1 -45 24 -64 18 -14
39 -21 58 -19 40 4 47 28 9 28 -47 0 -67 21 -59 60 9 47 23 60 57 53 22 -4 29
-2 29 10 0 14 -28 27 -61 27 -9 0 -25 -12 -34 -27z"/>
<path d="M3850 9615 c0 -13 14 -15 87 -13 58 2 88 7 91 16 3 9 -19 12 -87 12
-75 0 -91 -3 -91 -15z"/>
<path d="M11229 9623 c-1 -5 -1 -11 0 -15 0 -5 -3 -8 -9 -8 -15 0 -40 -56 -40
-90 0 -23 6 -33 22 -39 49 -18 118 25 118 73 0 37 -37 86 -65 86 -14 0 -26 -3
-26 -7z m51 -53 c11 -26 10 -33 -5 -50 -22 -24 -65 -27 -65 -4 0 26 31 84 45
84 7 0 18 -14 25 -30z"/>
<path d="M6517 9604 c-12 -13 -7 -71 6 -83 20 -16 26 -4 20 37 -6 40 -15 56
-26 46z"/>
<path d="M10121 9556 c0 -34 5 -58 13 -66 20 -16 24 -3 19 63 -7 76 -31 79
-32 3z"/>
<path d="M1780 9368 c0 -96 -17 -184 -47 -241 l-16 -32 -23 50 c-12 28 -28 83
-35 122 -19 115 -54 139 -61 43 -2 -25 -6 -47 -9 -50 -3 -3 -20 -50 -38 -105
-17 -55 -35 -112 -40 -127 -6 -17 -6 -30 0 -34 14 -8 26 3 34 33 3 16 23 80
43 143 35 113 36 114 43 75 10 -55 47 -152 66 -170 23 -23 35 -15 65 45 32 67
47 139 49 250 2 72 0 85 -14 88 -15 3 -17 -8 -17 -90z"/>
<path d="M3590 9361 c0 -28 17 -35 29 -13 11 21 6 32 -16 32 -7 0 -13 -9 -13
-19z"/>
<path d="M2243 9348 c-15 -20 -50 -109 -58 -148 -9 -40 -58 -109 -100 -139
l-30 -21 -3 29 c-3 30 21 91 36 91 5 0 13 -5 19 -11 8 -8 13 -7 18 2 5 7 -1
19 -15 31 -22 18 -24 18 -42 1 -47 -42 -66 -129 -35 -160 12 -13 19 -13 49 0
18 8 46 28 60 46 30 35 38 38 38 16 0 -23 37 -55 65 -55 14 0 34 -9 45 -20 11
-11 32 -20 48 -20 43 0 103 20 109 36 7 20 -3 29 -19 17 -7 -6 -34 -14 -61
-17 -64 -10 -70 9 -17 61 42 43 49 67 26 98 -14 19 -16 18 -50 -18 -20 -21
-39 -52 -44 -70 -14 -54 -64 -46 -77 12 -4 18 3 45 19 82 33 73 51 148 39 160
-6 6 -13 5 -20 -3z m117 -197 c0 -6 -12 -23 -26 -38 -28 -30 -28 -29 10 35 9
14 16 16 16 3z"/>
<path d="M5585 9300 c-11 -17 -19 -38 -17 -46 2 -9 -1 -13 -6 -10 -6 3 -12 -4
-16 -17 -5 -20 -106 -134 -106 -120 0 4 -10 -2 -22 -13 -49 -43 -58 -48 -58
-32 0 9 11 31 24 51 13 19 22 38 20 41 -2 3 -1 4 2 2 11 -8 85 36 81 48 -10
29 -93 -22 -134 -84 -25 -36 -30 -79 -11 -98 14 -14 32 -5 112 59 l61 50 6
-30 c4 -17 14 -42 22 -55 17 -25 53 -43 64 -32 4 3 14 -1 24 -10 23 -20 97
-12 130 15 19 15 20 19 6 24 -12 4 -14 2 -10 -11 5 -13 3 -14 -7 -5 -8 7 -22
8 -43 2 -58 -16 -59 -9 -8 40 34 34 51 58 51 75 0 27 -23 56 -45 56 -20 0 -74
-70 -87 -112 -14 -46 -40 -50 -57 -10 -16 39 -2 98 43 173 20 33 36 65 36 70
0 21 -36 7 -55 -21z m135 -154 c0 -6 -18 -30 -40 -51 -48 -47 -51 -36 -10 29
28 43 50 53 50 22z"/>
<path d="M7594 9319 c-5 -8 -3 -10 7 -4 12 8 12 6 0 -9 -20 -24 -1 -42 28 -24
21 13 29 38 12 38 -5 0 -16 3 -24 6 -8 3 -18 0 -23 -7z"/>
<path d="M3995 9271 c-13 -27 -27 -67 -31 -89 -5 -30 -18 -52 -55 -88 -35 -34
-52 -45 -60 -37 -15 15 15 83 41 90 25 7 26 33 1 33 -44 0 -98 -112 -70 -146
20 -24 54 -16 98 25 l42 38 33 -33 c41 -41 92 -46 121 -14 22 24 12 39 -15 22
-30 -18 -54 -15 -84 13 -30 28 -32 44 -10 87 17 33 44 115 44 136 0 29 -32 8
-55 -37z"/>
<path d="M7920 9251 c-34 -9 -36 -42 -6 -79 15 -16 26 -36 26 -44 0 -37 -61
-52 -79 -20 -7 12 -13 14 -21 6 -17 -17 -2 -41 33 -54 26 -9 36 -7 57 8 53 40
56 76 8 128 -23 26 -10 39 28 30 21 -6 25 -3 22 11 -4 20 -29 25 -68 14z"/>
<path d="M7365 9216 c-11 -9 -27 -16 -35 -16 -34 -1 -130 -236 -130 -317 0
-45 28 -22 55 45 44 108 47 112 72 112 28 0 96 60 113 99 6 16 10 42 8 57 -2
24 -8 30 -33 32 -16 2 -39 -4 -50 -12z m55 -33 c0 -26 -35 -79 -65 -99 -38
-25 -50 -7 -30 42 22 55 95 99 95 57z"/>
<path d="M1860 9211 c0 -6 0 -13 -1 -16 0 -2 -13 -18 -29 -35 -16 -17 -32 -46
-36 -65 -14 -78 48 -101 113 -41 31 28 37 40 36 71 -1 21 -10 49 -21 64 -19
26 -62 41 -62 22z m50 -87 c0 -49 -71 -99 -86 -60 -7 19 22 73 47 86 13 8 18
18 15 28 -5 13 -2 12 9 -2 8 -11 15 -34 15 -52z"/>
<path d="M7043 9210 c-26 -11 -83 -86 -83 -110 0 -9 5 -21 12 -28 16 -16 77
-15 108 3 35 20 38 19 42 -12 2 -18 10 -29 21 -31 16 -3 18 1 12 26 -7 33 4
63 38 100 23 25 18 34 -32 51 -40 13 -87 13 -118 1z m101 -29 c18 -7 18 -8 -5
-30 -33 -31 -93 -61 -124 -61 -31 0 -31 5 -3 46 34 49 81 65 132 45z"/>
<path d="M4991 9169 c-33 -22 -65 -48 -71 -57 -6 -11 -10 -12 -10 -4 0 7 13
27 29 45 30 31 32 47 6 47 -29 0 -116 -183 -96 -203 7 -7 17 -1 32 19 31 40
140 146 146 140 3 -2 -3 -29 -13 -60 -16 -51 -16 -58 -2 -72 10 -10 23 -14 37
-9 26 8 28 35 2 35 -20 0 -20 1 0 57 36 106 25 119 -60 62z"/>
<path d="M7555 9175 c-51 -56 -72 -148 -40 -175 28 -24 135 33 110 58 -3 3
-23 -4 -44 -16 -21 -12 -41 -22 -45 -22 -12 0 -6 66 9 87 8 12 12 29 8 39 -5
13 -3 16 9 12 17 -7 38 9 38 29 0 21 -19 15 -45 -12z"/>
<path d="M3452 9165 c-41 -35 -60 -81 -40 -101 13 -13 21 -13 69 5 30 12 55
21 56 21 1 0 3 -17 5 -37 2 -31 7 -39 26 -41 15 -2 22 2 22 12 0 9 -4 16 -10
16 -12 0 -13 50 -1 69 13 20 -3 47 -39 66 -40 21 -54 19 -88 -10z m76 -19 c23
-12 23 -13 -26 -34 -57 -25 -62 -26 -62 -13 0 11 47 61 57 61 4 -1 19 -7 31
-14z"/>
<path d="M5151 9143 c-39 -49 -41 -106 -4 -111 27 -4 103 34 103 51 0 17 -20
42 -45 55 -14 8 -16 12 -5 12 13 0 13 1 0 10 -22 14 -26 13 -49 -17z m59 -53
c0 -9 -51 -32 -58 -26 -2 3 1 19 8 36 12 29 14 30 31 14 11 -10 19 -20 19 -24z"/>
<path d="M3675 9141 c-20 -12 -33 -30 -39 -54 -11 -41 0 -62 18 -33 6 10 19
28 28 40 17 21 17 21 16 -15 -1 -20 2 -41 6 -48 16 -26 27 -3 30 62 4 75 -3
81 -59 48z"/>
<path d="M8078 9059 c-27 -15 -23 -42 5 -34 30 10 41 21 33 34 -9 13 -16 13
-38 0z"/>
<path d="M2937 8620 c-51 -40 -64 -147 -27 -220 11 -22 34 -61 50 -87 34 -52
37 -89 15 -138 -24 -49 -70 -66 -119 -43 -20 9 -24 16 -20 35 4 12 2 23 -3 23
-13 0 -43 -34 -43 -48 0 -16 74 -52 107 -52 41 0 92 35 109 75 26 63 18 103
-33 185 -45 70 -48 79 -48 142 0 57 4 70 24 92 43 45 75 24 48 -31 -16 -32
-12 -63 8 -63 17 0 35 31 35 59 0 12 5 21 10 21 17 0 11 18 -14 44 -28 31 -64
33 -99 6z"/>
<path d="M5889 8590 c-9 -5 -29 -38 -44 -72 -25 -56 -29 -74 -27 -155 l1 -92
-56 -3 c-78 -4 -85 -28 -9 -28 52 0 56 -2 56 -23 0 -33 -52 -132 -69 -132 -21
0 -24 -20 -6 -35 12 -10 18 -10 30 0 21 18 75 129 75 157 0 20 5 23 35 23 24
0 35 5 35 15 0 10 -10 15 -31 15 l-31 0 4 113 c3 88 8 118 23 142 28 46 44 55
71 45 25 -10 37 -1 25 18 -10 16 -63 24 -82 12z"/>
<path d="M7734 8518 c-7 -18 -25 -65 -42 -104 -16 -39 -35 -96 -42 -127 -22
-109 11 -127 84 -46 l46 51 0 -35 c0 -67 95 -115 160 -82 30 15 48 40 37 51
-2 3 -20 -4 -38 -15 -39 -22 -77 -19 -108 10 -26 25 -27 54 -1 104 24 47 24
45 2 45 -10 0 -49 -32 -86 -71 -38 -38 -70 -69 -72 -67 -8 9 29 137 61 205 19
42 35 84 35 94 0 31 -24 22 -36 -13z"/>
<path d="M4755 8393 c-10 -43 -22 -96 -27 -117 -13 -53 -59 -98 -95 -94 -25 3
-28 7 -26 38 2 45 33 71 74 63 22 -4 29 -2 29 10 0 19 -52 32 -77 19 -53 -29
-81 -112 -48 -145 34 -34 119 -11 146 40 l12 23 14 -29 c18 -36 51 -51 94 -42
29 6 38 3 62 -22 26 -28 30 -29 85 -23 31 4 63 13 71 20 16 17 5 42 -12 27 -7
-5 -33 -12 -58 -16 -36 -5 -49 -3 -62 10 -23 22 -22 27 14 61 38 36 59 75 59
109 0 62 -72 8 -105 -80 -14 -36 -24 -47 -49 -54 -73 -20 -99 42 -72 171 21
99 21 102 3 106 -9 2 -19 -21 -32 -75z m205 -123 c-6 -11 -13 -20 -16 -20 -2
0 0 9 6 20 6 11 13 20 16 20 2 0 0 -9 -6 -20z"/>
<path d="M4490 8375 c0 -17 5 -25 13 -22 6 2 12 12 12 22 0 10 -6 20 -12 23
-8 2 -13 -6 -13 -23z"/>
<path d="M7137 8373 c-13 -12 -7 -33 8 -33 22 0 19 -52 -6 -84 -11 -15 -39
-36 -60 -47 l-39 -20 -10 26 c-6 15 -10 33 -10 41 0 16 -22 18 -69 4 l-35 -10
37 38 c46 47 50 75 10 66 -16 -4 -49 -17 -75 -30 -26 -13 -54 -24 -63 -24 -8
0 -15 -7 -15 -15 0 -21 34 -19 82 6 l41 21 -36 -43 c-20 -23 -37 -46 -37 -51
0 -17 29 -19 57 -5 46 24 77 25 81 2 10 -52 52 -59 119 -20 48 29 73 68 73
115 0 52 -30 87 -53 63z"/>
<path d="M7514 8370 c-27 -10 -63 -58 -98 -127 -31 -63 -33 -83 -6 -83 13 0
20 7 20 20 0 50 73 160 106 160 13 0 25 4 29 9 9 15 -28 30 -51 21z"/>
<path d="M2491 8316 c-20 -21 -22 -28 -11 -41 27 -33 75 -7 68 37 -4 32 -29
33 -57 4z"/>
<path d="M3145 8308 c-29 -17 -53 -48 -66 -86 -13 -39 6 -77 43 -84 32 -6 96
11 79 22 -11 6 -11 9 0 14 8 3 3 3 -11 0 -28 -7 -26 -7 -57 -5 -36 2 -30 37 7
44 58 12 79 53 47 95 -11 15 -16 15 -42 0z m25 -43 c0 -8 -7 -15 -15 -15 -9 0
-12 -6 -8 -17 6 -15 5 -16 -9 -3 -15 14 -15 17 -1 33 20 21 33 22 33 2z"/>
<path d="M3819 8305 c-29 -16 -39 -34 -45 -80 -8 -58 23 -89 46 -46 8 15 7 22
-5 29 -13 6 -14 14 -6 35 12 30 39 47 75 47 16 0 26 6 26 15 0 20 -55 19 -91
0z"/>
<path d="M4312 8308 c-19 -19 -14 -50 18 -98 37 -55 40 -85 8 -77 -91 20 -89
20 -82 3 14 -36 124 -46 137 -11 7 16 -12 65 -43 110 -11 17 -20 36 -20 43 0
14 46 16 55 2 9 -15 35 -12 35 5 0 31 -83 48 -108 23z"/>
<path d="M5973 8312 c-18 -11 -51 -91 -59 -140 -6 -38 -5 -42 14 -42 16 0 20
6 20 28 -1 31 19 100 35 120 5 7 17 11 26 10 9 -2 16 4 16 12 0 17 -33 24 -52
12z"/>
<path d="M3548 8263 c-11 -27 -30 -61 -41 -76 -24 -35 -33 -25 -42 45 -5 34
-11 48 -22 48 -13 0 -15 -8 -10 -45 8 -55 32 -115 47 -115 18 0 57 47 80 98
12 26 27 50 33 53 12 8 2 39 -13 39 -6 0 -20 -21 -32 -47z"/>
<path d="M3685 8298 c-27 -12 -63 -66 -71 -105 -11 -57 48 -90 111 -61 14 6
25 17 25 25 0 16 -5 16 -46 1 -26 -9 -36 -9 -48 1 -25 21 -19 36 19 50 40 14
69 50 59 74 -8 21 -25 26 -49 15z m15 -32 c0 -2 -8 -10 -17 -17 -16 -13 -17
-12 -4 4 13 16 21 21 21 13z"/>
<path d="M7326 8301 c-3 -5 -14 -7 -25 -4 -20 5 -63 -43 -76 -85 -11 -38 18
-72 64 -72 79 0 111 57 74 135 -17 35 -27 43 -37 26z m20 -67 c12 -45 -51 -85
-83 -53 -23 23 12 73 51 75 20 2 28 -4 32 -22z"/>
<path d="M3292 8283 c-49 -24 -70 -95 -37 -123 13 -10 19 -10 35 5 27 24 26
49 0 42 -25 -6 -25 4 -2 33 13 16 30 23 57 24 43 1 58 20 23 30 -33 8 -39 7
-76 -11z"/>
<path d="M6320 8290 c-8 -5 -22 -7 -31 -5 -11 4 -21 -10 -37 -48 -12 -29 -22
-58 -22 -65 0 -20 28 -14 35 8 8 24 53 80 65 80 4 0 4 -19 -1 -42 -15 -64 2
-66 59 -9 71 71 102 64 72 -15 -12 -31 -4 -67 13 -61 7 2 13 12 13 23 1 10 6
37 12 58 21 74 -28 101 -94 51 l-33 -25 -3 27 c-3 30 -23 39 -48 23z"/>
<path d="M6601 8260 c-35 -36 -40 -45 -34 -73 8 -42 18 -54 53 -62 37 -8 50
-1 43 26 -4 15 -12 19 -32 17 -22 -3 -26 1 -26 22 0 18 6 26 23 28 12 2 22 8
22 13 0 5 6 9 14 9 20 0 29 16 21 40 -10 31 -41 24 -84 -20z"/>
<path d="M6080 8254 c-17 -15 -28 -29 -26 -32 3 -3 1 -11 -6 -19 -19 -23 13
-47 51 -38 36 8 37 31 2 27 -34 -3 -23 30 16 48 41 19 51 40 18 40 -13 0 -38
-12 -55 -26z"/>
<path d="M4486 8242 c-3 -6 -9 -32 -13 -58 -5 -38 -3 -46 8 -42 18 6 36 85 22
99 -7 7 -13 7 -17 1z"/>
<path d="M6151 8226 c-23 -25 -21 -57 3 -37 9 7 12 3 11 -17 0 -32 29 -38 32
-7 1 11 4 35 8 53 7 27 5 32 -12 32 -11 0 -30 -11 -42 -24z"/>
<path d="M10120 7669 c-42 -65 -100 -204 -100 -240 0 -19 -5 -21 -67 -19 -87
3 -88 3 -73 -15 8 -10 31 -15 71 -15 l59 0 0 -30 c0 -20 -9 -40 -25 -56 -25
-25 -26 -44 -1 -44 25 0 50 40 51 82 1 37 4 43 29 49 15 4 35 5 43 2 11 -4 14
-2 11 8 -3 8 -11 13 -18 11 -7 -1 -21 0 -32 4 -26 8 -19 47 28 151 44 95 79
144 99 137 10 -4 15 0 15 15 0 16 -6 21 -25 21 -20 0 -34 -13 -65 -61z"/>
<path d="M5327 7703 c-3 -4 -10 -50 -16 -101 -6 -51 -20 -116 -31 -143 -22
-59 -65 -119 -85 -119 -21 0 -42 47 -55 123 -7 37 -16 69 -21 72 -15 10 -69
-76 -85 -134 -29 -106 -36 -121 -50 -121 -8 0 -14 -7 -14 -15 0 -23 38 -18 54
8 8 12 22 51 31 87 9 35 24 78 32 95 l16 30 12 -58 c14 -68 42 -111 77 -115
53 -6 130 122 143 240 3 29 11 70 17 91 10 31 9 40 -4 53 -9 9 -18 12 -21 7z"/>
<path d="M8235 7595 c-9 -31 -15 -65 -12 -75 3 -11 2 -20 -3 -20 -4 0 -10 -15
-13 -32 -3 -18 -9 -52 -12 -75 -7 -40 -6 -43 15 -43 15 0 20 5 17 14 -5 12 24
162 50 264 4 15 1 22 -9 22 -10 0 -22 -21 -33 -55z"/>
<path d="M10378 7552 c-45 -106 -88 -236 -88 -268 0 -28 17 -40 24 -17 41 142
65 211 97 278 20 44 35 83 33 87 -14 22 -32 -1 -66 -80z"/>
<path d="M10509 7533 c-63 -147 -84 -231 -73 -283 12 -53 30 -51 27 3 -3 54
26 159 77 276 37 84 42 111 22 111 -4 0 -28 -48 -53 -107z"/>
<path d="M11200 7588 c-21 -98 -37 -123 -81 -134 -45 -10 -50 -30 -6 -26 15 1
27 -2 27 -6 0 -28 -35 -104 -52 -113 -19 -10 -19 -11 -2 -30 22 -25 28 -18 63
72 24 64 32 74 55 77 30 4 34 19 9 30 -10 4 -19 15 -19 24 -1 10 2 16 6 13 8
-5 21 38 25 77 1 10 4 21 8 24 12 13 7 44 -7 44 -9 0 -18 -20 -26 -52z"/>
<path d="M3264 7606 c-3 -14 -7 -43 -7 -65 -1 -23 -5 -41 -8 -41 -9 0 -39
-135 -39 -176 0 -19 3 -34 7 -34 4 0 24 17 45 37 l38 37 0 -27 c0 -29 12 -33
54 -17 36 13 35 43 -1 34 -20 -5 -25 -4 -21 7 19 50 19 59 2 59 -10 0 -35 -16
-55 -36 l-38 -37 3 29 c2 16 6 36 9 44 11 27 36 134 39 169 4 41 -18 54 -28
17z"/>
<path d="M5732 7600 c-7 -19 -7 -32 -1 -36 13 -7 2 -67 -23 -126 -18 -43 -38
-63 -38 -39 0 16 -36 19 -67 6 -36 -15 -73 -72 -73 -111 0 -34 8 -48 33 -57
28 -10 64 19 118 97 50 71 81 154 94 249 6 42 4 47 -13 47 -13 0 -24 -10 -30
-30z m-82 -242 c0 -24 -56 -88 -77 -88 -28 0 -5 77 31 102 22 16 46 8 46 -14z"/>
<path d="M13585 7614 c-53 -19 -95 -61 -95 -94 0 -30 28 -59 110 -116 150
-105 170 -137 106 -168 -45 -21 -91 -20 -143 3 -43 20 -63 45 -63 81 0 30 -24
20 -28 -11 -7 -56 82 -118 168 -119 53 0 109 27 129 62 24 42 1 67 -183 201
-41 30 -66 55 -66 67 0 34 89 80 156 80 25 0 38 -7 50 -25 15 -23 12 -45 -7
-45 -5 0 -9 6 -9 14 0 20 -13 27 -30 16 -11 -7 -11 -13 4 -34 19 -30 45 -33
76 -8 22 18 22 19 5 53 -10 19 -25 39 -34 46 -21 17 -97 15 -146 -3z"/>
<path d="M2898 7596 c-16 -5 -28 -17 -29 -25 0 -10 -2 -11 -5 -4 -4 9 -21 4
-60 -15 -30 -14 -54 -29 -54 -33 0 -21 26 -16 91 16 39 20 73 35 74 33 6 -6
-38 -102 -87 -189 -81 -145 -64 -179 40 -80 38 37 62 54 62 44 0 -28 42 -101
65 -113 34 -18 81 -3 111 35 36 48 46 90 38 173 -5 62 -9 72 -26 72 -14 0 -18
-5 -15 -17 26 -93 14 -173 -32 -217 -36 -34 -58 -31 -89 14 -19 28 -23 43 -18
78 8 59 -11 56 -85 -14 l-59 -57 55 105 c30 58 61 123 69 146 14 38 14 43 -2
50 -10 5 -29 4 -44 -2z"/>
<path d="M14740 7538 c-15 -42 -16 -43 -75 -53 -42 -7 -60 -14 -60 -25 0 -16
8 -17 69 -5 l39 8 -8 -39 c-21 -99 14 -164 88 -164 46 0 86 18 67 30 -7 4 -30
5 -51 3 -71 -10 -96 41 -68 140 9 32 14 37 40 37 36 0 72 17 64 31 -4 5 -24 6
-46 3 l-40 -7 14 36 c9 19 13 38 9 41 -14 15 -29 3 -42 -36z"/>
<path d="M11725 7561 c-3 -6 -4 -15 -1 -20 6 -9 -11 -165 -21 -191 -7 -20 -11
-123 -5 -134 9 -15 31 38 32 75 0 50 26 73 68 58 35 -12 42 -27 47 -99 4 -55
11 -73 26 -65 14 9 11 102 -5 140 -8 19 -26 40 -41 47 -24 11 -24 12 -8 31 10
11 42 35 72 54 37 24 50 38 43 45 -13 13 -81 -26 -146 -83 l-46 -41 7 49 c11
72 10 136 -4 140 -6 2 -14 -1 -18 -6z"/>
<path d="M12594 7529 c-11 -19 37 -49 75 -47 43 3 66 -24 81 -99 15 -72 8
-142 -16 -161 -50 -36 -147 25 -157 100 -6 46 -13 56 -28 41 -18 -18 9 -92 50
-135 30 -32 45 -41 82 -45 38 -4 50 -1 75 20 28 25 29 28 29 114 0 72 -5 96
-23 132 -28 53 -19 64 45 58 48 -5 58 0 42 20 -15 17 -69 17 -135 -3 -49 -14
-55 -14 -70 0 -18 19 -40 21 -50 5z"/>
<path d="M4085 7521 c-6 -10 21 -41 36 -41 13 0 11 24 -3 38 -14 14 -25 15
-33 3z"/>
<path d="M8382 7510 c-39 -24 -74 -75 -70 -103 4 -28 37 -34 88 -13 36 14 38
14 43 -5 5 -17 9 -19 26 -9 23 12 28 30 9 30 -6 0 -4 7 5 18 19 21 22 42 6 42
-5 0 -39 -15 -74 -34 -75 -40 -93 -31 -44 21 24 24 40 33 57 30 26 -5 39 10
23 26 -17 17 -37 16 -69 -3z"/>
<path d="M8634 7495 c-4 -11 -20 -39 -35 -62 -32 -46 -39 -93 -14 -93 17 0 52
51 62 90 10 38 73 82 73 50 0 -5 7 -10 15 -10 8 0 15 6 15 14 0 23 -25 36 -68
33 -32 -1 -44 -7 -48 -22z"/>
<path d="M14267 7504 c-14 -14 -7 -35 11 -32 9 2 17 10 17 17 0 16 -18 25 -28
15z"/>
<path d="M5380 7489 c0 -7 8 -18 17 -25 17 -11 16 -14 -8 -33 -55 -43 -61
-131 -9 -131 31 0 70 44 70 80 0 16 5 30 10 30 17 0 11 16 -21 53 -31 36 -59
48 -59 26z m24 -140 c-23 -26 -40 -9 -23 22 18 35 33 42 37 18 2 -11 -4 -29
-14 -40z"/>
<path d="M7445 7469 c-19 -17 -35 -36 -35 -41 0 -6 -11 -21 -25 -34 -14 -13
-25 -26 -25 -30 0 -4 -23 -66 -51 -137 -37 -96 -47 -132 -38 -138 16 -10 43 8
63 43 18 30 20 34 38 116 9 40 16 52 31 52 53 0 147 92 147 143 0 61 -50 74
-105 26z m73 -20 c7 -38 -81 -125 -114 -112 -21 8 1 47 60 105 30 30 49 32 54
7z"/>
<path d="M7799 7451 c-38 -26 -48 -41 -78 -114 -19 -47 -34 -99 -35 -116 -1
-17 -3 -31 -6 -31 -4 0 -12 -16 -19 -35 -12 -35 -8 -60 10 -49 14 8 64 111 79
160 11 38 16 42 50 47 85 11 150 106 104 151 -23 24 -55 19 -105 -13z m85 -17
c9 -22 -10 -52 -47 -74 -46 -29 -59 -26 -55 12 2 24 12 38 37 55 40 27 57 29
65 7z"/>
<path d="M9290 7444 c-41 -18 -90 -62 -90 -81 0 -23 29 -14 56 17 28 30 86 56
104 45 5 -3 10 -17 10 -29 0 -13 8 -34 18 -46 24 -29 62 -22 103 20 32 32 37
61 14 80 -19 16 -29 7 -30 -27 0 -34 -51 -75 -65 -53 -5 8 -10 25 -10 37 0 49
-46 65 -110 37z"/>
<path d="M5821 7431 c-12 -12 -21 -25 -21 -31 0 -5 -8 -17 -18 -27 -14 -14
-17 -29 -14 -66 5 -64 31 -82 101 -72 28 4 49 11 48 17 -1 6 4 13 12 16 10 3
11 0 5 -9 -7 -12 -5 -12 9 0 23 18 12 32 -17 21 -13 -5 -46 -10 -73 -12 l-48
-3 -3 36 c-3 31 1 38 35 60 30 19 38 30 38 54 0 37 -26 44 -54 16z"/>
<path d="M6636 7435 c-6 -17 9 -29 24 -20 14 9 12 22 -4 28 -8 3 -17 -1 -20
-8z"/>
<path d="M7589 7423 c-37 -42 -51 -80 -39 -104 14 -25 60 -25 94 2 29 23 33
54 12 84 -7 11 -14 25 -14 30 -2 21 -29 15 -53 -12z m51 -60 c0 -13 -30 -33
-49 -33 -17 0 -13 29 6 54 16 21 19 22 30 7 7 -9 13 -21 13 -28z"/>
<path d="M8039 7418 c-18 -43 -55 -47 -52 -5 1 17 -3 27 -12 27 -18 0 -28 -17
-15 -25 5 -3 10 -11 10 -16 0 -6 -4 -7 -10 -4 -13 8 -13 -1 0 -26 12 -22 56
-25 81 -6 20 15 39 51 39 71 0 28 -26 17 -41 -16z"/>
<path d="M4204 7425 c-44 -18 -48 -30 -24 -70 31 -51 21 -85 -25 -85 -18 0
-37 5 -40 10 -10 17 -25 11 -25 -9 0 -20 10 -25 71 -35 43 -7 57 5 66 58 4 24
0 44 -11 60 -21 32 -21 33 9 48 37 20 19 40 -21 23z"/>
<path d="M6600 7432 c-8 -2 -23 -11 -32 -19 -16 -14 -15 -18 9 -54 14 -21 23
-45 19 -54 -7 -20 -43 -19 -55 3 -9 16 -10 16 -16 0 -17 -45 16 -66 69 -44 42
17 48 48 19 97 -16 27 -16 30 0 41 19 15 9 37 -13 30z"/>
<path d="M14465 7428 c-28 -16 -62 -54 -70 -78 -3 -11 -10 -20 -14 -20 -5 0
-11 -17 -14 -37 -4 -21 -11 -60 -17 -88 -12 -55 -6 -99 13 -92 14 4 24 41 32
120 l6 57 37 0 c73 0 133 61 113 114 -14 35 -49 45 -86 24z m53 -51 c3 -20 -3
-29 -27 -41 -66 -34 -88 -11 -37 40 40 40 59 40 64 1z"/>
<path d="M11261 7395 c-34 -39 -35 -43 -22 -64 9 -14 42 -12 85 5 15 6 17 4
11 -14 -9 -31 3 -62 25 -62 26 0 34 17 14 28 -15 8 -14 13 4 55 11 26 17 49
12 52 -5 3 -32 -6 -61 -20 -28 -15 -53 -24 -56 -21 -9 9 19 37 45 47 13 5 20
13 17 19 -12 20 -44 9 -74 -25z"/>
<path d="M2445 7399 c-5 -14 -2 -25 6 -30 20 -12 25 -11 44 7 21 22 14 38 -17
42 -20 2 -28 -2 -33 -19z"/>
<path d="M6703 7413 c-18 -7 -16 -33 2 -33 8 0 15 9 15 20 0 11 -1 20 -2 19
-2 0 -9 -3 -15 -6z"/>
<path d="M6733 7401 c2 -10 -4 -29 -14 -42 -46 -60 -4 -109 66 -77 31 14 41
49 25 87 -17 41 -88 71 -77 32z m42 -87 c-43 -32 -61 -7 -23 33 l23 24 9 -22
c8 -17 6 -24 -9 -35z"/>
<path d="M13885 7396 c-28 -29 -40 -66 -31 -102 9 -35 88 -71 122 -55 36 16
29 31 -15 31 -51 0 -86 28 -78 61 13 46 24 56 48 41 29 -18 43 -2 23 26 -20
28 -39 28 -69 -2z"/>
<path d="M10136 7388 c-35 -57 -30 -118 9 -118 34 0 108 72 103 101 -5 34 -25
34 -33 0 -6 -28 -60 -80 -71 -68 -3 2 2 24 10 48 9 24 16 47 16 52 0 15 -20 6
-34 -15z"/>
<path d="M10921 7391 c-17 -17 -18 -25 -9 -53 20 -65 21 -88 4 -88 -16 0 -29
13 -60 55 -14 19 -15 19 -22 2 -15 -41 66 -104 104 -80 17 10 19 33 10 118 -3
28 -1 30 32 30 24 0 35 5 35 15 0 25 -70 25 -94 1z"/>
<path d="M3397 7375 c-4 -8 -2 -17 4 -20 5 -4 7 -10 4 -15 -5 -8 49 -60 81
-78 17 -9 15 -15 -18 -69 -54 -87 -108 -193 -108 -210 0 -31 24 -5 64 68 80
148 139 247 162 275 13 15 24 33 24 41 0 27 -27 12 -59 -32 -18 -25 -37 -45
-42 -45 -24 0 -79 53 -79 76 0 26 -24 33 -33 9z"/>
<path d="M3982 7325 c-24 -65 -23 -85 4 -85 8 0 14 10 14 24 0 13 7 40 16 61
15 36 13 65 -3 65 -5 0 -19 -29 -31 -65z"/>
<path d="M12885 7380 c-27 -10 -44 -31 -55 -70 -7 -25 -5 -35 11 -51 22 -22
28 -23 64 -9 22 9 29 6 50 -18 13 -15 25 -21 25 -14 0 8 5 10 13 6 6 -4 4 2
-7 14 -19 21 -19 23 1 115 5 24 3 28 -12 25 -10 -1 -23 -16 -28 -33 -13 -42
-36 -65 -64 -65 -25 0 -30 18 -12 52 8 16 17 19 40 14 21 -4 29 -2 29 9 0 20
-31 34 -55 25z"/>
<path d="M14085 7367 c-14 -22 -24 -122 -12 -133 14 -14 27 10 27 51 0 61 6
73 36 67 29 -5 32 13 5 28 -29 15 -39 13 -56 -13z"/>
<path d="M11495 7356 c-20 -20 -25 -34 -23 -59 3 -31 5 -32 50 -35 38 -2 49 1
57 16 6 11 7 22 4 26 -10 10 -43 7 -43 -4 0 -5 -9 -10 -20 -10 -26 0 -25 24 2
50 16 15 19 23 11 31 -9 9 -18 5 -38 -15z"/>
<path d="M13150 7358 c-37 -91 -51 -120 -55 -116 -3 3 -13 28 -23 57 -10 29
-22 51 -27 49 -29 -9 22 -152 52 -146 32 6 103 178 74 178 -6 0 -16 -10 -21
-22z"/>
<path d="M13218 7338 c-17 -18 -34 -42 -38 -53 -9 -24 5 -55 26 -55 20 0 30
30 13 41 -21 13 36 68 64 61 20 -5 19 -7 -11 -32 -18 -14 -32 -34 -32 -43 0
-16 2 -16 25 -1 25 16 25 16 25 -14 0 -35 22 -57 47 -47 17 6 17 7 0 20 -20
14 -22 72 -5 108 12 23 1 42 -17 27 -9 -8 -14 -6 -19 5 -9 25 -46 17 -78 -17z"/>
<path d="M14242 7293 c4 -39 28 -42 28 -4 0 21 -5 31 -16 31 -11 0 -14 -8 -12
-27z"/>
<path d="M2988 6755 c-2 -3 0 -37 5 -77 13 -106 3 -244 -21 -298 l-20 -45 -56
116 c-30 64 -58 135 -62 157 -7 43 -27 56 -38 26 -31 -81 -47 -316 -23 -331
18 -11 25 13 18 60 -7 43 -2 99 15 176 4 20 15 3 55 -85 56 -124 80 -155 107
-138 28 18 61 130 62 209 0 171 -15 257 -42 230z"/>
<path d="M4387 6733 c-10 -9 -9 -43 2 -43 4 0 5 -21 1 -47 -4 -27 -9 -104 -11
-173 -3 -105 -2 -125 11 -127 13 -3 16 18 20 124 7 186 5 252 -6 263 -6 6 -13
7 -17 3z"/>
<path d="M4159 6718 c-1 -7 0 -46 1 -86 2 -78 -18 -213 -33 -223 -14 -10 3
-89 24 -110 10 -10 26 -19 34 -19 24 0 64 48 77 92 10 34 9 42 -9 66 -14 19
-30 27 -50 27 -30 0 -30 0 -21 40 5 22 9 67 8 100 -3 87 -2 95 16 95 26 0 9
25 -19 28 -17 2 -27 -2 -28 -10z m70 -300 c10 -27 -3 -70 -29 -93 -17 -15 -19
-15 -33 5 -13 18 -12 25 6 65 23 49 43 57 56 23z"/>
<path d="M4856 6648 c-9 -36 -7 -147 5 -218 12 -73 12 -75 33 -67 12 5 14 12
7 31 -23 58 84 82 135 31 18 -19 25 -34 23 -58 -3 -42 9 -77 27 -77 12 0 13
10 9 53 -4 28 -11 65 -17 80 -12 30 -54 57 -90 57 -20 0 -17 6 28 53 89 94 99
106 87 118 -7 7 -23 -4 -54 -40 -52 -62 -148 -143 -160 -135 -5 3 -9 39 -9 81
0 57 4 81 17 95 15 17 15 18 -9 18 -18 0 -27 -7 -32 -22z"/>
<path d="M5273 6624 c-9 -23 11 -38 26 -20 13 16 7 36 -10 36 -5 0 -12 -7 -16
-16z"/>
<path d="M2381 6536 c-17 -20 -7 -46 18 -46 29 0 33 15 13 40 -16 20 -19 20
-31 6z"/>
<path d="M3172 6503 c-16 -6 -42 -68 -42 -99 0 -34 43 -60 75 -46 38 17 60 58
49 90 -10 28 -61 63 -82 55z m47 -57 c14 -16 5 -43 -18 -55 -35 -18 -52 9 -31
50 12 22 33 25 49 5z"/>
<path d="M3314 6498 c-14 -22 -16 -126 -3 -134 8 -5 34 17 70 57 32 35 59 62
59 59 1 -3 3 -31 4 -63 4 -89 15 -95 178 -100 79 -2 108 14 71 40 -13 9 -23
23 -23 32 -1 13 -3 13 -16 -4 -8 -11 -12 -25 -10 -32 4 -9 -4 -13 -23 -13 -60
0 -64 9 -21 53 42 44 49 71 27 102 -32 43 -90 -10 -103 -93 -5 -32 -11 -42
-25 -42 -16 0 -19 8 -19 59 0 33 -3 66 -6 75 -11 29 -50 17 -95 -29 l-45 -45
4 39 c4 39 -10 62 -24 39z m296 -42 c0 -7 -13 -25 -30 -41 l-30 -28 10 32 c5
18 14 39 21 47 12 15 29 10 29 -10z"/>
<path d="M4680 6482 c-19 -16 -24 -29 -24 -70 0 -28 6 -57 12 -65 18 -21 56
-29 86 -17 39 14 31 30 -14 30 -34 0 -42 4 -50 26 -13 34 7 79 35 79 27 0 26
29 -1 33 -11 2 -31 -6 -44 -16z"/>
<path d="M5640 6468 c-20 -33 -26 -81 -14 -112 10 -27 60 -19 99 15 19 17 35
26 35 19 0 -6 18 -42 39 -78 61 -104 61 -108 2 -122 -123 -29 -138 -133 -26
-176 77 -29 115 4 115 102 0 36 3 44 16 42 27 -5 28 21 2 31 -14 5 -28 24 -37
47 -7 22 -32 70 -54 108 -23 38 -44 87 -47 110 -7 59 -31 50 -45 -17 -6 -32
-38 -67 -60 -67 -24 0 -18 55 10 88 30 36 31 42 5 42 -12 0 -28 -13 -40 -32z
m218 -354 c-6 -69 -23 -89 -64 -74 -35 14 -64 39 -64 55 0 24 36 57 70 65 63
15 63 15 58 -46z"/>
<path d="M4481 6479 c-15 -6 -21 -15 -17 -24 3 -8 1 -15 -4 -15 -17 0 -11 -68
7 -85 20 -21 76 -15 104 11 27 24 24 70 -6 99 -26 26 -45 30 -84 14z m79 -71
c0 -21 -41 -44 -64 -35 -17 7 -21 44 -8 63 20 31 72 11 72 -28z"/>
<path d="M5410 6455 c-13 -14 -31 -25 -40 -25 -13 0 -17 -12 -18 -66 -2 -49 1
-65 10 -62 7 3 16 21 19 42 6 39 33 82 62 100 25 15 38 -8 35 -61 -1 -23 1
-46 6 -50 12 -12 26 20 26 62 0 78 -53 110 -100 60z"/>
<path d="M5246 6408 c-9 -79 -7 -98 8 -98 15 0 33 120 21 140 -13 21 -22 8
-29 -42z"/>
<path d="M6078 6343 c-21 -5 -24 -43 -5 -43 18 0 49 34 40 43 -7 7 -8 7 -35 0z"/>
<path d="M1412 5860 c-35 -8 -60 -26 -50 -35 3 -3 35 0 71 6 56 10 79 10 151
-4 46 -10 107 -17 135 -17 l51 0 1 -42 c1 -110 18 -271 28 -281 12 -12 26 -1
56 46 9 14 14 14 47 1 21 -9 35 -21 32 -28 -6 -16 13 -68 29 -78 34 -22 177 0
177 27 0 10 -10 10 -44 3 -25 -5 -62 -8 -83 -6 -35 3 -38 6 -41 36 -2 22 1 32
11 32 40 0 88 86 57 105 -14 9 -65 -21 -83 -48 -16 -25 -16 -25 -62 -8 -44 15
-47 15 -59 -1 -21 -28 -26 -22 -26 30 0 26 -3 91 -7 145 l-6 97 -61 0 c-34 0
-93 7 -131 15 -76 16 -140 18 -193 5z m608 -273 c0 -2 -10 -12 -22 -23 l-23
-19 19 23 c18 21 26 27 26 19z"/>
<path d="M5395 5830 c-3 -5 -9 -102 -12 -216 -6 -186 -5 -206 10 -203 14 4 17
32 21 211 4 187 0 238 -19 208z"/>
<path d="M5470 5743 c-24 -160 -14 -280 25 -313 26 -22 33 -1 13 40 -23 46
-26 164 -8 259 14 72 13 101 -3 101 -10 0 -18 -28 -27 -87z"/>
<path d="M1615 5800 c-3 -5 -3 -15 1 -21 3 -6 8 -79 10 -161 3 -169 9 -208 30
-208 12 0 13 10 9 48 -3 26 -7 108 -9 182 -2 74 -6 143 -11 153 -8 19 -21 22
-30 7z"/>
<path d="M4960 5680 c-49 -15 -130 -61 -130 -76 0 -20 9 -18 74 17 31 17 60
29 63 25 3 -3 -19 -47 -50 -98 -31 -51 -59 -105 -63 -120 -11 -46 29 -36 92
24 30 28 55 49 57 47 1 -2 10 -21 20 -41 30 -67 93 -59 116 16 14 46 8 141
-10 141 -10 0 -14 -14 -15 -50 -3 -88 -4 -93 -20 -109 -21 -21 -32 -13 -54 40
-11 24 -25 44 -32 44 -7 0 -34 -21 -62 -47 -58 -56 -56 -47 13 66 66 109 66
140 1 121z"/>
<path d="M5230 5675 c0 -7 8 -16 17 -19 21 -8 40 9 21 20 -21 14 -38 13 -38
-1z"/>
<path d="M7580 5660 c0 -16 5 -21 23 -18 12 2 22 10 22 18 0 8 -10 16 -22 18
-18 3 -23 -2 -23 -18z"/>
<path d="M6980 5657 c-23 -12 -78 -97 -62 -97 4 0 1 -4 -7 -9 -22 -14 3 -121
28 -121 16 0 17 7 13 49 -10 109 19 161 89 161 28 0 39 4 37 13 -6 17 -68 20
-98 4z"/>
<path d="M3720 5649 c-76 -31 -81 -85 -15 -156 50 -53 53 -70 13 -92 -25 -15
-29 -14 -46 4 -10 11 -16 27 -14 34 3 8 -1 12 -9 9 -17 -6 -15 -53 2 -74 16
-20 58 -17 97 6 48 29 44 68 -13 129 -25 26 -45 55 -45 64 0 23 49 57 82 57
19 0 28 4 26 13 -6 16 -46 19 -78 6z"/>
<path d="M6715 5614 c-14 -15 -25 -31 -25 -36 0 -5 -12 -13 -27 -19 -26 -10
-27 -12 -10 -23 9 -7 17 -21 17 -30 0 -9 12 -29 26 -43 22 -22 31 -25 70 -19
53 7 87 23 79 37 -6 9 -50 5 -96 -7 -19 -5 -49 20 -49 41 0 7 15 17 33 20 57
13 87 33 87 60 0 48 -67 60 -105 19z m70 -13 c7 -12 -26 -31 -51 -31 -16 0
-16 1 1 20 19 21 40 26 50 11z"/>
<path d="M3506 5615 c-25 -25 -38 -85 -34 -160 4 -84 22 -90 26 -8 5 117 19
156 46 133 19 -15 31 -8 23 14 -10 27 -44 38 -61 21z"/>
<path d="M6096 5609 c-78 -61 -69 -163 17 -184 32 -9 87 11 87 31 0 17 -14 18
-42 3 -28 -15 -74 6 -82 37 -12 46 36 103 87 104 17 0 27 5 27 15 0 23 -62 19
-94 -6z"/>
<path d="M2878 5612 c-22 -9 -77 -80 -84 -109 -19 -74 51 -120 174 -114 12 1
22 7 22 15 0 10 -18 15 -64 18 -68 4 -106 25 -106 58 0 9 14 36 31 59 27 38
34 42 66 39 33 -3 56 13 36 25 -18 10 -59 15 -75 9z"/>
<path d="M3899 5584 c-40 -65 -23 -162 32 -179 37 -12 128 5 156 29 31 27 18
41 -21 21 -47 -25 -120 -30 -139 -10 -20 20 -22 45 -4 45 24 0 97 59 97 79 0
26 -32 51 -67 51 -25 0 -36 -7 -54 -36z m84 -8 c5 -13 -47 -56 -67 -56 -9 0 3
40 16 58 14 16 45 15 51 -2z"/>
<path d="M6535 5608 c-3 -7 -11 -44 -18 -83 l-12 -69 -33 67 c-33 66 -52 84
-52 50 0 -29 76 -168 91 -168 13 0 29 52 44 147 4 28 9 36 21 31 12 -4 15 -1
12 13 -4 22 -46 32 -53 12z"/>
<path d="M6268 5587 c-54 -46 -63 -103 -22 -144 21 -21 32 -25 66 -20 69 9
111 70 88 127 -25 61 -84 77 -132 37z m78 -15 c24 -16 34 -50 23 -76 -22 -48
-100 -59 -114 -15 -16 50 51 118 91 91z"/>
<path d="M3101 5583 c-30 -25 -34 -112 -7 -142 36 -39 100 -20 131 39 22 42
19 66 -12 95 -33 30 -81 33 -112 8z m90 -32 l24 -20 -20 -38 c-36 -69 -113
-48 -83 24 10 26 13 33 17 48 3 12 41 3 62 -14z"/>
<path d="M3397 5584 c-4 -4 -4 -23 -1 -44 11 -70 -44 -150 -80 -115 -19 19
-30 76 -23 114 7 32 1 42 -19 34 -19 -7 -19 -93 0 -138 8 -19 27 -40 41 -47
22 -10 30 -8 53 8 35 26 62 80 62 125 0 36 -20 76 -33 63z"/>
<path d="M5242 5498 c2 -38 8 -63 16 -66 9 -3 12 14 12 62 0 53 -3 66 -15 66
-13 0 -15 -11 -13 -62z"/>
<path d="M7550 5475 c-16 -19 -2 -38 19 -26 9 6 10 14 4 25 -9 16 -11 16 -23
1z"/>
<path d="M7274 5028 c-4 -6 0 -16 9 -23 14 -10 16 -24 12 -71 -3 -32 -7 -130
-9 -216 -3 -121 -1 -161 9 -175 13 -17 14 -17 20 -1 4 9 5 21 2 25 -3 4 -1
105 3 223 5 129 4 222 -1 233 -11 19 -34 23 -45 5z"/>
<path d="M6454 5008 c-4 -7 -7 -53 -5 -104 l3 -91 -56 -23 c-31 -12 -56 -29
-56 -36 0 -19 17 -17 68 6 l42 19 0 -69 c0 -122 37 -177 108 -158 49 13 42 37
-10 35 -40 -2 -43 0 -55 33 -15 43 -17 160 -3 160 6 0 21 -7 34 -16 15 -9 27
-11 30 -5 8 12 -20 40 -52 52 -24 9 -24 11 -21 106 3 67 0 97 -8 100 -6 2 -15
-2 -19 -9z"/>
<path d="M4860 4953 c-1 -5 -3 -55 -5 -111 -3 -57 -12 -149 -20 -205 -15 -98
-11 -128 14 -113 6 4 11 18 11 31 0 14 12 55 27 92 l27 68 13 -44 c14 -51 48
-91 75 -91 10 0 18 -6 18 -13 0 -61 168 -64 218 -4 21 24 -2 28 -44 7 -47 -24
-116 -26 -135 -4 -11 13 -8 19 20 41 31 24 70 91 71 120 0 6 -7 19 -16 27 -13
14 -19 14 -42 2 -27 -14 -72 -81 -72 -107 0 -8 -4 -20 -9 -28 -15 -24 -38 3
-56 64 -18 64 -29 73 -56 49 -20 -18 -20 -18 -13 104 6 109 5 122 -10 122 -9
0 -16 -3 -16 -7z m230 -288 c-21 -34 -40 -46 -40 -24 0 14 19 50 39 73 26 30
27 -7 1 -49z"/>
<path d="M4396 4901 c-16 -3 -31 -12 -33 -18 -3 -9 13 -13 60 -12 86 1 217
-29 217 -50 -3 -101 -21 -275 -30 -286 -15 -18 -4 -35 23 -35 21 0 22 5 25
103 1 56 5 111 7 122 2 11 4 38 4 61 l1 41 76 6 c80 6 90 9 80 26 -5 7 -33 9
-79 5 -54 -5 -92 -1 -152 14 -98 25 -161 32 -199 23z"/>
<path d="M7828 4763 c-28 -30 -61 -100 -53 -113 3 -5 0 -12 -6 -15 -7 -5 -10
5 -7 30 4 44 -17 60 -30 23 -4 -13 -6 -80 -4 -150 3 -98 7 -128 17 -128 14 0
35 78 35 128 0 26 2 27 40 24 66 -7 110 48 110 135 0 88 -51 120 -102 66z m60
-15 c19 -19 14 -89 -8 -125 -15 -25 -27 -33 -49 -33 -17 0 -33 5 -36 10 -14
23 49 160 74 160 4 0 12 -5 19 -12z"/>
<path d="M5835 4749 c-9 -17 -22 -61 -29 -97 l-12 -66 -21 60 c-12 32 -23 69
-25 82 -4 29 -22 29 -25 0 -4 -36 50 -183 68 -186 18 -3 34 30 44 93 10 68 25
104 46 110 25 8 20 29 -9 33 -15 2 -25 -6 -37 -29z"/>
<path d="M5571 4744 c-65 -54 -81 -135 -36 -179 19 -20 34 -25 78 -25 48 0 77
12 77 31 0 4 -26 5 -58 2 -67 -6 -92 9 -92 55 0 32 46 105 61 97 11 -8 -2 -33
-30 -59 -24 -22 -28 -46 -7 -46 19 0 64 55 72 87 5 17 1 31 -13 45 -20 19 -20
19 -52 -8z"/>
<path d="M7397 4745 c-34 -23 -50 -55 -28 -55 5 0 11 -19 15 -41 14 -85 45
-101 96 -50 48 47 52 109 10 151 -26 26 -48 25 -93 -5z m83 -38 c13 -24 13
-30 -4 -61 -24 -45 -41 -51 -60 -22 -12 19 -13 31 -4 62 16 61 41 68 68 21z"/>
<path d="M6191 4734 c-12 -15 -21 -32 -21 -38 0 -6 -4 -5 -9 3 -18 29 -41 4
-42 -46 -1 -26 -3 -63 -5 -80 -7 -60 21 -36 52 43 41 107 54 114 54 27 0 -78
18 -116 53 -111 29 4 30 43 2 43 -17 0 -20 8 -22 60 -6 128 -21 152 -62 99z"/>
<path d="M8088 4748 c-6 -17 15 -58 29 -58 21 0 44 42 31 57 -13 16 -55 17
-60 1z"/>
<path d="M4038 4727 c-9 -46 21 -66 42 -28 17 33 12 51 -14 51 -17 0 -25 -7
-28 -23z"/>
<path d="M7571 4716 c-45 -72 -13 -170 52 -164 25 2 36 12 54 43 27 47 29 85
8 125 -13 26 -21 30 -54 30 -34 0 -42 -5 -60 -34z m99 -50 c0 -29 -36 -86 -55
-86 -31 0 -47 78 -22 111 7 9 17 14 24 12 6 -2 15 1 19 8 9 16 34 -17 34 -45z"/>
<path d="M5956 4721 c-11 -12 -15 -25 -10 -33 4 -7 3 -10 -1 -5 -16 14 -34
-49 -25 -90 11 -48 43 -75 84 -71 27 3 31 7 33 36 3 36 -8 41 -36 13 -18 -18
-20 -19 -35 -2 -26 29 -19 55 19 75 54 29 62 96 12 96 -13 0 -32 -9 -41 -19z
m44 -19 c0 -11 -22 -32 -32 -32 -5 0 -4 9 2 20 11 20 30 28 30 12z"/>
<path d="M8955 4088 c-4 -24 -9 -52 -11 -63 -15 -75 -35 -249 -41 -349 -5
-100 -4 -118 8 -114 10 3 17 41 26 149 10 125 20 205 48 382 5 29 3 37 -9 37
-9 0 -17 -15 -21 -42z"/>
<path d="M10355 4068 c-2 -7 -8 -35 -14 -63 -5 -27 -21 -92 -36 -143 -27 -97
-31 -192 -8 -199 7 -3 26 22 42 54 29 56 30 57 31 25 0 -42 21 -92 49 -116 18
-16 25 -17 46 -8 25 12 43 38 32 48 -3 3 -16 -2 -30 -10 -28 -19 -36 -13 -59
44 -13 35 -11 101 6 163 7 21 5 27 -8 27 -10 0 -30 -28 -53 -75 -20 -41 -38
-73 -40 -71 -2 2 1 24 7 50 6 26 8 52 5 57 -4 5 -2 9 4 9 5 0 19 39 30 88 12
48 24 97 27 110 5 16 2 22 -10 22 -9 0 -19 -6 -21 -12z"/>
<path d="M6736 4062 c-3 -4 2 -28 10 -52 9 -24 16 -86 17 -144 2 -100 1 -104
-36 -179 -29 -59 -44 -78 -64 -83 -36 -9 -55 18 -47 66 7 39 30 87 50 108 19
18 8 35 -15 22 -47 -24 -83 -138 -61 -191 14 -33 50 -47 89 -33 29 10 84 95
104 159 15 50 12 225 -5 284 -13 43 -30 61 -42 43z"/>
<path d="M8797 4063 c-12 -11 -8 -23 8 -23 21 0 19 -91 -4 -290 -10 -85 -16
-158 -14 -162 2 -5 10 -8 16 -8 22 0 59 427 41 474 -6 16 -35 22 -47 9z"/>
<path d="M7485 4050 c-4 -6 -4 -23 0 -37 3 -14 3 -50 -1 -79 -7 -62 -15 -67
-113 -69 -37 -1 -66 -6 -68 -12 -6 -16 66 -26 122 -18 l46 7 -8 -53 c-11 -75
-10 -178 2 -181 6 -2 11 6 12 17 1 11 7 68 14 127 12 107 12 107 48 133 21 14
39 25 42 25 3 0 2 -24 -2 -52 -20 -138 -3 -163 54 -82 28 40 33 44 42 27 5
-10 25 -32 43 -50 21 -21 32 -41 32 -60 0 -32 22 -68 51 -83 39 -21 143 29
124 60 -4 7 -15 3 -32 -10 -34 -26 -89 -27 -103 -1 -19 36 -11 68 25 104 39
39 49 92 19 104 -24 9 -46 -8 -71 -55 -19 -39 -22 -41 -37 -27 -9 9 -19 28
-22 43 -14 67 -22 68 -64 6 -18 -25 -33 -44 -35 -42 -2 2 1 26 5 53 13 82 16
190 5 191 -5 1 -16 -17 -22 -41 -9 -28 -25 -52 -47 -68 l-33 -26 1 76 c1 50
-3 77 -11 80 -6 2 -14 -1 -18 -7z m335 -229 c0 -11 -39 -59 -40 -49 0 14 23
58 32 58 4 0 8 -4 8 -9z"/>
<path d="M9699 4052 c0 -4 0 -58 1 -120 1 -94 -1 -113 -14 -117 -9 -3 -24 -8
-33 -12 -26 -9 -31 -10 -53 -12 -11 0 -20 -8 -20 -17 0 -13 6 -15 30 -10 17 3
43 9 58 12 l29 6 -8 -59 c-4 -32 -10 -70 -14 -85 -4 -17 -3 -28 3 -28 21 0 33
31 41 105 6 54 14 80 27 89 16 12 16 14 1 22 -13 7 -17 26 -19 77 -1 40 -6 67
-12 67 -7 0 -7 3 0 8 11 7 18 33 15 58 -1 13 -31 28 -32 16z"/>
<path d="M5215 4021 c-16 -4 -58 -13 -92 -21 l-63 -14 -2 -175 -3 -176 -33 52
c-33 51 -92 179 -126 276 -10 26 -24 47 -32 47 -20 0 -18 -24 6 -67 11 -21 20
-44 20 -51 0 -8 20 -55 44 -105 74 -154 126 -219 148 -185 4 7 8 90 8 184 l0
171 68 17 c94 25 92 24 92 41 0 8 -1 14 -2 14 -2 -1 -16 -5 -33 -8z"/>
<path d="M5365 4022 c-28 -6 -75 -52 -75 -75 0 -26 15 -53 73 -125 l50 -63
-27 -28 c-36 -38 -34 -73 9 -116 40 -39 73 -45 98 -17 25 27 20 72 -12 116
l-27 39 32 61 c71 135 69 199 -9 209 -24 3 -44 1 -48 -5 -4 -6 -13 -7 -25 -1
-11 5 -28 8 -39 5z m140 -52 c6 -18 -21 -98 -54 -158 l-17 -34 -41 54 c-59 75
-74 107 -62 130 13 23 52 33 78 18 17 -8 22 -8 27 3 7 19 62 9 69 -13z m-47
-279 c26 -46 28 -69 6 -78 -18 -7 -74 43 -74 66 0 14 28 49 41 50 3 1 15 -16
27 -38z"/>
<path d="M9490 3859 c-33 -13 -70 -49 -70 -67 0 -8 18 -37 40 -64 22 -28 40
-54 40 -58 0 -4 -9 -15 -19 -24 -14 -13 -28 -16 -50 -11 -32 7 -40 -2 -19 -23
18 -18 62 -14 92 9 41 32 33 73 -27 137 -28 29 -30 34 -16 48 9 8 32 21 50 27
19 7 37 17 39 22 7 14 -30 16 -60 4z"/>
<path d="M8470 3838 c-37 -14 -69 -47 -96 -101 -22 -42 -23 -51 -12 -75 29
-59 111 -66 122 -10 3 17 4 33 2 35 -8 9 -46 -18 -46 -32 0 -12 -5 -12 -25 -3
-34 15 -32 49 5 102 30 44 47 56 81 56 21 0 26 25 7 33 -7 2 -24 0 -38 -5z"/>
<path d="M8603 3814 c-9 -15 -17 -47 -17 -73 -1 -40 2 -46 21 -49 13 -2 27 5
37 20 16 22 16 22 16 -16 0 -30 3 -37 18 -34 9 2 17 9 16 16 -1 6 -2 27 -3 45
-1 17 -6 39 -11 47 -9 13 -15 10 -40 -18 -31 -34 -37 -26 -19 26 5 16 19 32
31 35 11 3 17 10 13 16 -12 20 -44 11 -62 -15z"/>
<path d="M10091 3806 c-54 -57 -57 -169 -4 -182 26 -7 74 14 81 35 5 15 -31
14 -45 0 -7 -7 -19 -9 -27 -6 -31 12 -12 113 27 146 10 7 17 17 17 22 0 17
-27 9 -49 -15z"/>
<path d="M9882 3794 c-60 -42 -71 -154 -15 -154 8 0 25 11 38 24 l24 24 6 -28
c7 -32 30 -56 39 -42 3 6 1 24 -5 41 -6 18 -9 49 -5 69 9 57 -2 82 -33 82 -15
0 -37 -7 -49 -16z m45 -50 c-8 -16 -27 -40 -41 -53 l-26 -24 0 22 c0 29 17 62
44 83 28 23 41 7 23 -28z"/>
<path d="M10915 3789 c-9 -28 6 -42 39 -33 35 8 43 24 21 41 -27 19 -53 16
-60 -8z"/>
<path d="M4087 3778 c-21 -11 -22 -37 -2 -44 17 -7 45 12 45 31 0 18 -23 25
-43 13z"/>
<path d="M6234 3766 c-34 -24 -59 -90 -48 -128 8 -27 15 -34 40 -36 19 -2 36
3 44 12 17 22 27 20 33 -5 3 -12 11 -19 19 -16 7 2 11 11 8 18 -2 8 -3 43 -2
78 1 50 -2 67 -16 77 -23 18 -53 17 -78 0z m54 -49 c4 -30 -31 -87 -53 -87
-20 0 -28 36 -14 62 31 61 62 72 67 25z"/>
<path d="M6407 3732 c-27 -27 -37 -47 -37 -69 0 -36 17 -53 26 -26 12 41 39
85 57 95 19 10 20 8 13 -40 -7 -53 7 -106 26 -100 11 4 13 123 2 161 -9 29
-47 20 -87 -21z"/>
<path d="M4923 3165 c-28 -20 -44 -74 -33 -117 5 -18 29 -86 54 -150 51 -131
66 -212 44 -242 -35 -45 -148 57 -148 133 0 23 -18 37 -31 24 -15 -15 11 -85
48 -131 65 -80 135 -95 162 -36 24 53 9 126 -57 293 -40 98 -50 149 -36 185 9
23 31 19 93 -14 51 -27 71 -30 71 -10 0 6 -130 80 -142 80 -2 0 -13 -7 -25
-15z"/>
<path d="M6214 3115 c-3 -26 -4 -69 -1 -96 6 -47 5 -49 -21 -55 -45 -10 -52
-13 -52 -25 0 -8 15 -10 46 -6 l45 5 -2 -91 c-1 -57 2 -92 9 -95 17 -5 22 13
23 83 1 47 -3 70 -12 76 -10 6 -11 9 -1 9 6 0 12 7 12 15 0 8 14 17 35 21 21
4 40 15 46 27 10 18 9 19 -12 13 -75 -21 -77 -21 -84 16 -4 20 -5 59 -3 88 4
69 -18 81 -28 15z"/>
<path d="M5635 3080 c-4 -6 2 -28 13 -50 10 -22 15 -41 11 -42 -14 -5 -13
-242 0 -267 20 -36 31 -14 25 47 -5 47 -3 60 11 72 15 12 19 11 37 -10 52 -66
76 -130 48 -130 -16 0 -11 -27 6 -34 25 -10 34 2 34 48 0 42 -36 114 -73 145
-9 7 -17 18 -17 23 0 12 79 123 114 161 29 32 33 47 11 47 -13 0 -47 -39 -119
-139 -47 -64 -56 -61 -56 19 0 93 -22 147 -45 110z"/>
<path d="M6453 2940 c-46 -28 -42 -53 17 -111 30 -29 50 -57 50 -70 0 -19 -4
-21 -32 -15 -18 3 -47 21 -65 38 -28 27 -33 29 -39 15 -8 -22 10 -44 57 -68
68 -34 112 -19 112 38 0 19 -16 41 -53 77 l-52 50 21 18 c17 13 28 15 48 7 30
-11 51 2 31 19 -27 22 -62 23 -95 2z"/>
<path d="M4173 2898 c-13 -30 -6 -48 18 -48 20 0 44 44 33 61 -10 17 -41 9
-51 -13z"/>
<path d="M5923 2877 c-46 -43 -49 -84 -8 -127 30 -31 99 -49 132 -35 10 5 24
9 31 11 19 4 25 11 18 23 -4 6 -18 6 -39 0 -60 -17 -137 11 -137 51 0 13 7 16
29 12 36 -5 91 23 91 47 0 24 -31 51 -58 51 -12 0 -39 -15 -59 -33z m77 -12
c0 -16 -46 -32 -58 -20 -8 8 26 35 45 35 7 0 13 -7 13 -15z"/>
<path d="M6934 2895 c-6 -15 12 -45 27 -45 13 0 39 30 39 46 0 20 -59 19 -66
-1z"/>
<path d="M5199 2869 c-38 -53 -28 -147 18 -168 23 -10 30 -9 52 7 40 29 47 75
19 130 -31 61 -60 71 -89 31z m66 -82 c0 -49 -1 -52 -25 -52 -23 0 -25 4 -28
50 -3 38 1 52 14 62 26 19 38 1 39 -60z"/>
<path d="M5416 2847 c-14 -18 -31 -48 -37 -66 -10 -28 -9 -37 8 -59 25 -34 88
-56 126 -45 37 10 31 28 -9 29 -92 3 -115 30 -80 95 18 34 28 43 45 41 17 -1
22 3 19 15 -6 32 -44 27 -72 -10z"/>
<path d="M7759 2258 c0 -29 -8 -84 -18 -122 -20 -77 -29 -84 -97 -85 -42 -1
-71 -21 -59 -41 3 -6 12 -7 18 -3 15 9 107 21 107 14 -1 -3 -7 -35 -15 -71
-18 -84 -20 -163 -2 -158 6 3 13 18 15 34 1 16 9 68 18 116 l16 87 47 3 c33 2
46 7 46 18 0 11 -10 14 -42 12 l-41 -3 22 88 c13 49 22 100 20 114 -1 13 -3
30 -3 37 -1 6 -8 12 -16 12 -11 0 -15 -13 -16 -52z"/>
<path d="M7987 2294 c-4 -4 -7 -25 -7 -47 0 -22 -5 -69 -11 -104 -11 -64 -11
-64 -43 -61 -22 2 -31 -1 -31 -12 0 -9 11 -16 28 -18 15 -2 27 -6 27 -10 0
-23 -41 -137 -55 -152 -17 -18 -11 -50 10 -50 13 0 44 74 65 156 l13 52 61 8
c44 7 61 13 61 24 0 15 -12 16 -84 4 -33 -5 -33 -5 -26 23 4 15 9 58 11 95 2
37 5 73 6 79 3 13 -15 23 -25 13z"/>
<path d="M5095 2268 c-16 -6 -32 -14 -35 -17 -6 -8 -36 -10 -137 -11 -76 -1
-111 -12 -85 -29 16 -10 31 -138 18 -151 -8 -8 -7 -13 3 -19 11 -7 13 -26 8
-88 -7 -91 -14 -113 -33 -113 -24 0 -15 -30 11 -40 41 -15 157 -32 182 -25 43
10 25 30 -30 32 -89 3 -120 12 -112 31 4 9 9 56 12 105 l6 87 44 0 c24 0 53
-5 63 -10 13 -7 21 -7 26 1 11 19 -14 32 -71 37 -63 5 -70 12 -77 84 -6 54 -8
52 87 67 84 13 113 20 154 37 28 12 33 17 21 24 -18 11 -17 11 -55 -2z"/>
<path d="M5937 2274 c-4 -4 -7 -56 -7 -115 l0 -108 -45 1 c-25 0 -48 -2 -51
-5 -14 -14 11 -27 51 -27 l44 0 3 -95 c4 -125 22 -125 26 -1 l3 95 57 3 c48 3
57 6 59 23 2 11 0 16 -2 10 -3 -6 -30 -8 -61 -7 l-56 4 4 111 c3 104 -4 132
-25 111z"/>
<path d="M6823 2237 c-91 -38 -101 -45 -101 -67 0 -14 -11 -71 -25 -126 -30
-115 -40 -217 -24 -233 23 -23 147 2 147 29 0 5 6 7 14 4 8 -3 17 -1 21 5 3 6
14 11 24 11 23 0 69 35 59 45 -10 11 -78 -17 -78 -33 0 -7 -4 -11 -9 -7 -5 3
-39 -6 -74 -19 -36 -13 -68 -22 -71 -19 -10 10 -5 116 7 158 12 36 18 41 92
73 107 46 108 46 104 57 -6 15 -41 8 -105 -21 -31 -14 -59 -23 -61 -20 -11 11
10 88 25 94 10 3 22 11 27 18 14 17 139 64 170 64 37 0 27 24 -11 27 -16 2
-74 -16 -131 -40z"/>
<path d="M7506 2171 c-7 -10 22 -37 30 -28 9 8 -3 37 -15 37 -5 0 -12 -4 -15
-9z"/>
<path d="M8432 2083 c-7 -3 -19 -18 -28 -34 -8 -16 -19 -27 -24 -24 -5 3 -15
-7 -23 -22 -18 -38 -11 -183 9 -183 13 0 16 7 13 26 0 4 4 10 11 14 6 4 16 40
21 81 13 92 30 122 64 113 29 -7 31 -2 9 20 -16 16 -29 19 -52 9z"/>
<path d="M8613 2070 c-67 -40 -66 -81 5 -147 24 -23 41 -46 38 -52 -12 -18
-74 -13 -85 7 -12 21 -35 4 -26 -20 20 -52 145 -34 145 22 0 9 -23 40 -51 69
l-52 52 23 24 c29 31 57 40 76 24 23 -19 40 4 19 25 -22 21 -53 20 -92 -4z"/>
<path d="M7232 2016 l-47 -44 0 36 c0 37 0 37 -45 39 -48 2 -60 -7 -60 -49 0
-14 -9 -47 -19 -71 -11 -25 -17 -48 -14 -51 10 -9 33 -7 33 3 0 8 69 131 74
131 0 0 -1 -22 -2 -50 -5 -66 8 -65 74 7 30 31 55 55 58 52 2 -2 0 -26 -6 -54
-12 -64 1 -105 36 -105 26 0 53 24 37 34 -5 3 -16 4 -24 0 -23 -8 -27 19 -11
86 8 34 12 66 8 71 -12 20 -47 7 -92 -35z"/>
<path d="M5331 2032 c-5 -9 -14 -44 -20 -77 -6 -32 -15 -63 -20 -68 -12 -12
-50 63 -54 105 -2 23 -8 34 -21 36 -17 4 -18 -1 -13 -35 11 -69 63 -153 94
-153 16 0 31 36 45 110 5 30 14 59 19 65 14 14 11 35 -6 35 -8 0 -19 -8 -24
-18z"/>
<path d="M5470 2027 c-34 -27 -50 -67 -50 -122 0 -49 4 -60 29 -86 16 -16 39
-29 51 -29 24 0 80 27 80 39 0 18 -14 19 -41 5 -30 -15 -63 -7 -81 20 -13 18
-9 76 5 77 6 1 22 3 34 4 13 1 29 8 37 14 20 17 29 60 15 77 -14 17 -59 18
-79 1z m50 -30 c0 -19 -21 -37 -42 -37 -22 0 -23 8 -1 32 19 21 43 24 43 5z"/>
<path d="M7466 2028 c-16 -47 -25 -123 -17 -131 16 -16 28 1 35 50 3 26 7 57
8 67 3 22 -20 34 -26 14z"/>
<path d="M8165 2030 c-63 -26 -95 -123 -56 -171 11 -15 33 -29 48 -32 35 -7
85 2 77 14 -3 5 2 9 10 9 9 0 16 4 16 9 0 6 -23 7 -53 4 -42 -4 -57 -2 -71 12
-28 29 -17 59 26 66 46 7 68 25 68 53 0 39 -25 53 -65 36z m35 -39 c0 -10 -24
-21 -47 -21 -13 0 -13 3 -3 15 13 16 50 21 50 6z"/>
<path d="M4249 2003 c-7 -18 -6 -30 1 -37 16 -16 44 6 48 38 5 37 -34 37 -49
-1z"/>
<path d="M8885 2011 c-3 -6 -2 -11 3 -11 5 0 7 -11 4 -25 -4 -22 -1 -25 22
-25 25 0 27 3 24 33 -2 24 -8 33 -25 35 -11 2 -24 -2 -28 -7z"/>
<path d="M5647 2003 c-3 -4 -8 -47 -12 -94 -10 -118 5 -123 52 -20 33 75 52
99 54 69 0 -7 1 -37 3 -65 2 -56 20 -90 32 -59 3 9 4 44 2 77 -3 45 -10 65
-27 82 l-22 22 -30 -35 -31 -35 4 29 c3 27 -14 47 -25 29z"/>
<path d="M11849 1622 c-122 -78 -127 -128 -30 -324 56 -113 63 -133 58 -170
-7 -54 -32 -75 -60 -50 -19 16 -20 16 -31 -2 -6 -11 -39 -50 -73 -88 -76 -84
-107 -158 -97 -227 10 -66 88 -248 121 -283 36 -38 62 -53 75 -40 5 5 -4 19
-27 36 -39 30 -57 61 -104 180 -36 89 -42 161 -18 217 8 20 43 66 78 102 51
53 68 65 86 61 16 -5 31 2 53 24 50 50 43 100 -31 252 -74 150 -82 193 -46
236 14 17 46 41 70 54 43 23 46 23 71 7 31 -21 56 -22 56 -2 0 8 -6 15 -14 15
-7 0 -19 7 -26 15 -19 23 -61 18 -111 -13z"/>
<path d="M4914 1534 c-41 -21 -90 -71 -109 -110 -17 -36 -21 -129 -5 -119 5 3
7 0 4 -9 -7 -17 34 -83 87 -140 117 -128 97 -257 -32 -202 -66 28 -137 115
-123 150 7 19 -16 22 -33 5 -9 -9 -6 -23 12 -58 29 -57 67 -94 125 -120 62
-28 105 -27 135 4 50 50 26 138 -70 251 -65 76 -85 117 -85 172 0 66 81 157
133 150 21 -3 22 -7 19 -90 -3 -71 -1 -88 10 -88 14 0 38 59 38 94 0 9 5 16
10 16 6 0 10 7 10 15 0 8 -6 15 -12 15 -7 0 -20 15 -28 32 -19 40 -49 51 -86
32z"/>
<path d="M14585 1539 c-8 -11 11 -29 31 -29 24 0 67 -60 75 -105 12 -63 5 -85
-56 -176 -87 -130 -116 -238 -67 -253 12 -4 18 -18 19 -48 1 -24 20 -91 42
-151 57 -150 52 -235 -16 -304 -43 -43 -97 -46 -133 -8 -23 24 -50 33 -50 17
0 -16 66 -72 90 -75 62 -10 126 36 160 116 31 70 23 152 -25 276 -41 106 -46
152 -21 180 25 27 12 41 -31 34 -35 -6 -36 -6 -29 23 11 46 62 146 102 198 20
27 40 65 45 85 11 47 1 122 -20 154 -33 50 -102 89 -116 66z"/>
<path d="M5132 1447 c-5 -6 -7 -29 -3 -50 3 -21 5 -74 3 -118 l-4 -79 -44 0
c-32 0 -44 -4 -44 -15 0 -11 12 -15 45 -15 52 0 51 2 35 -114 -7 -46 -7 -73
-1 -79 15 -15 28 29 36 121 l7 80 45 7 c57 8 53 31 -6 27 l-41 -2 0 119 c0
116 -7 144 -28 118z"/>
<path d="M9516 1394 c-9 -8 -16 -19 -16 -23 0 -5 -11 -6 -25 -4 -18 4 -32 -3
-54 -25 -17 -16 -33 -27 -35 -24 -11 10 -162 -154 -185 -202 -31 -64 -39 -137
-18 -170 37 -55 196 -100 292 -82 65 13 33 29 -60 31 -97 2 -163 23 -199 63
-25 29 -16 98 21 161 31 53 129 154 190 195 51 34 68 26 78 -35 4 -24 12 -39
21 -39 12 0 13 12 8 66 -6 61 -6 65 15 71 11 3 21 12 21 19 0 19 -35 18 -54
-2z"/>
<path d="M10269 1393 c0 -5 0 -64 1 -132 l1 -124 -25 5 c-14 3 -30 2 -37 -2
-19 -12 0 -30 32 -30 l29 0 0 -75 c0 -70 9 -91 26 -63 4 7 7 42 6 79 l-3 67
43 7 c60 9 98 25 98 41 0 16 -14 18 -38 5 -9 -5 -36 -12 -59 -16 l-43 -7 0
106 c0 59 4 108 10 111 6 3 10 11 10 16 0 6 -4 7 -10 4 -5 -3 -10 -1 -10 4 0
12 -30 15 -31 4z"/>
<path d="M7985 1350 c-3 -5 0 -29 6 -52 7 -24 13 -92 13 -153 1 -122 -14 -165
-66 -194 -34 -20 -58 -2 -58 44 0 27 9 42 51 79 41 37 48 47 34 52 -11 5 -32
-8 -66 -42 -44 -43 -49 -53 -49 -91 0 -81 61 -108 124 -53 63 56 79 152 55
327 -11 76 -28 108 -44 83z"/>
<path d="M9687 1354 c-4 -4 -4 -32 -1 -63 2 -31 -1 -105 -8 -164 -18 -149 -17
-242 1 -242 12 0 16 19 18 85 1 47 8 129 14 183 15 129 3 228 -24 201z"/>
<path d="M12285 1327 c-44 -44 -50 -72 -39 -179 6 -58 6 -88 -1 -88 -5 0 -22
-6 -37 -14 -20 -10 -28 -11 -31 -3 -2 7 -8 9 -12 5 -4 -4 -5 -15 -1 -24 6 -16
19 -16 80 2 16 5 17 2 11 -37 -4 -24 -14 -49 -22 -56 -18 -14 -10 -43 11 -43
15 0 46 83 46 122 0 11 7 18 20 18 16 0 20 -7 20 -34 0 -35 32 -86 54 -86 21
0 46 34 46 62 0 14 -7 41 -15 61 -14 34 -15 35 -69 32 -64 -4 -63 -7 -71 107
-6 74 -4 87 15 117 18 29 25 32 51 27 34 -7 41 17 10 34 -28 14 -29 14 -66
-23z m115 -354 c0 -13 -6 -23 -14 -23 -17 0 -27 37 -19 69 l6 23 13 -23 c7
-13 13 -34 14 -46z"/>
<path d="M13665 1283 c0 -27 -3 -70 -7 -96 -4 -27 -12 -83 -18 -126 -14 -93
-11 -136 10 -136 11 0 14 9 12 31 -2 17 4 71 12 120 8 49 18 126 22 172 6 76
5 82 -12 82 -16 0 -19 -8 -19 -47z"/>
<path d="M13847 1238 c-7 -19 11 -60 23 -53 16 10 12 65 -4 65 -8 0 -16 -6
-19 -12z"/>
<path d="M6119 1171 c-16 -16 -29 -33 -29 -38 0 -4 21 -33 46 -63 55 -66 77
-107 64 -115 -15 -9 -80 23 -80 39 0 9 -9 16 -20 16 -32 0 -24 -36 14 -59 74
-46 133 -36 122 21 -3 16 -28 57 -56 91 -27 34 -50 67 -50 74 0 18 38 36 64
29 11 -3 28 -1 36 4 13 9 13 11 0 20 -31 20 -80 11 -111 -19z"/>
<path d="M10727 1182 c-56 -61 -66 -262 -13 -262 16 0 32 33 18 38 -5 1 -6 16
-4 32 3 18 0 30 -7 30 -18 0 -13 68 9 110 22 43 31 48 50 25 12 -15 30 -12 30
5 0 15 -31 40 -49 40 -10 0 -25 -8 -34 -18z"/>
<path d="M10910 1177 c-52 -18 -53 -54 -2 -109 44 -49 72 -88 72 -101 0 -16
-54 4 -81 29 -28 27 -39 30 -39 11 0 -40 84 -87 130 -72 40 13 23 62 -47 138
-24 26 -43 53 -40 60 4 14 39 25 85 26 21 1 32 6 32 16 0 19 -58 20 -110 2z"/>
<path d="M5274 1155 c-18 -27 -35 -157 -23 -177 9 -14 38 -3 46 18 3 9 0 20
-7 24 -16 10 -9 93 10 115 7 8 24 15 37 15 36 0 23 23 -15 27 -24 3 -34 -1
-48 -22z"/>
<path d="M5831 1143 c-22 -26 -31 -32 -31 -20 0 9 -6 17 -14 17 -9 0 -15 -22
-20 -77 -4 -43 -10 -88 -13 -100 -3 -16 -1 -23 10 -23 23 0 36 22 47 81 10 53
60 144 67 122 2 -6 -3 -41 -12 -78 -18 -81 -18 -75 1 -75 9 0 21 12 27 28 6
15 28 42 49 61 l38 33 1 -48 c1 -65 12 -99 29 -99 8 0 13 7 11 15 -2 8 -5 43
-7 78 -4 74 -8 82 -38 82 -25 0 -61 -33 -52 -48 3 -5 -1 -9 -9 -9 -10 0 -13 7
-9 24 9 36 -4 73 -25 73 -11 0 -33 -17 -50 -37z"/>
<path d="M5467 1158 c-21 -11 -67 -99 -67 -127 0 -52 97 -95 126 -56 8 11 14
22 14 27 0 11 -48 10 -52 -2 -5 -15 -47 0 -53 20 -6 18 33 110 46 110 17 0 21
-24 6 -35 -10 -7 -17 -17 -17 -24 0 -17 25 -13 50 7 23 19 23 19 5 50 -22 37
-35 43 -58 30z"/>
<path d="M5643 1145 c-34 -24 -76 -103 -69 -130 8 -31 38 -40 75 -21 29 16 30
15 33 -11 2 -14 9 -28 16 -31 9 -3 12 15 12 67 0 56 -3 71 -15 71 -8 0 -15 -6
-15 -14 0 -18 -59 -68 -70 -61 -18 11 32 101 61 110 21 7 26 35 6 35 -7 0 -22
-7 -34 -15z"/>
<path d="M6523 1142 c-16 -16 -14 -53 3 -59 13 -4 78 56 70 65 -12 11 -59 7
-73 -6z"/>
<path d="M4264 1136 c-9 -25 0 -71 15 -71 21 0 35 29 27 58 -7 29 -33 36 -42
13z"/>
<path d="M10088 1139 c-30 -17 -21 -61 22 -122 37 -52 39 -56 20 -62 -45 -14
-71 16 -61 69 1 5 -5 4 -13 -4 -24 -19 -20 -67 7 -84 42 -27 65 -28 86 -7 27
27 26 51 -4 92 -48 67 -52 79 -27 98 34 25 8 43 -30 20z"/>
<path d="M10480 1125 c-19 -20 -24 -37 -25 -77 0 -48 3 -54 35 -75 40 -28 115
-29 115 -3 0 11 -9 14 -32 12 -43 -5 -93 25 -93 55 0 23 2 24 70 27 33 1 39
37 11 65 -28 28 -52 26 -81 -4z m60 -20 c11 -13 8 -15 -20 -15 -28 0 -31 2
-20 15 7 8 16 15 20 15 4 0 13 -7 20 -15z"/>
<path d="M13021 1119 c-30 -49 -36 -94 -17 -124 22 -33 20 -81 -5 -116 -21
-30 -63 -40 -72 -16 -3 9 -8 8 -20 -3 -21 -19 -10 -36 29 -44 27 -6 38 -2 67
24 20 17 41 47 47 65 6 19 16 35 21 35 15 0 10 27 -5 33 -8 3 -22 18 -32 32
-16 24 -16 28 1 70 18 47 26 52 71 35 19 -8 30 -8 38 0 16 16 -4 29 -56 36
-45 6 -48 5 -67 -27z"/>
<path d="M7505 1114 c-24 -24 -55 -90 -55 -117 0 -58 63 -65 109 -12 30 35 31
35 31 11 0 -37 18 -78 33 -73 6 2 10 11 9 18 -2 8 -8 38 -13 68 -8 49 -6 56
11 68 24 17 17 36 -9 28 -10 -3 -24 1 -31 10 -16 20 -64 19 -85 -1z m69 -22
c10 -16 -33 -92 -59 -104 -30 -14 -39 -7 -31 24 16 62 71 111 90 80z"/>
<path d="M12492 1098 c-16 -20 -26 -154 -12 -163 17 -11 21 -2 28 72 7 64 9
68 32 69 41 2 43 3 30 19 -15 18 -64 20 -78 3z"/>
<path d="M9890 1088 c0 -7 7 -22 15 -32 30 -40 5 -106 -40 -106 -32 0 -48 32
-46 92 1 49 -11 62 -27 31 -14 -26 -4 -94 17 -123 12 -17 29 -26 53 -28 29 -3
40 2 62 28 30 36 33 77 11 120 -15 30 -45 41 -45 18z"/>
<path d="M13233 1071 c-76 -55 -96 -122 -47 -160 32 -25 84 -28 84 -6 0 9 -9
15 -22 15 -31 1 -58 23 -58 46 1 23 65 94 85 94 16 0 21 25 6 34 -5 3 -26 -7
-48 -23z"/>
<path d="M13428 1080 c-29 -23 -60 -92 -52 -115 10 -25 41 -17 64 15 24 33 40
31 40 -4 0 -22 17 -46 33 -46 10 0 0 65 -14 92 -13 24 -38 23 -66 -4 -13 -12
-23 -17 -23 -11 0 14 46 63 60 63 5 0 10 7 10 15 0 21 -23 19 -52 -5z"/>
<path d="M7692 1078 c-7 -7 -12 -18 -12 -25 0 -6 -7 -16 -16 -21 -9 -5 -14
-18 -12 -32 5 -39 27 -35 46 10 17 40 18 41 34 23 9 -10 18 -31 20 -46 5 -41
23 -38 26 4 2 30 -3 42 -28 68 -35 34 -41 36 -58 19z"/>
<path d="M8897 1083 c-4 -3 -7 -15 -7 -25 0 -13 8 -18 28 -18 38 0 46 9 25 32
-17 19 -35 23 -46 11z"/>
<path d="M14230 1076 c0 -20 -49 -76 -66 -76 -19 0 -18 39 1 46 19 8 20 34 1
34 -19 0 -46 -39 -46 -65 0 -47 49 -59 94 -24 l27 21 -6 -68 c-3 -38 -8 -88
-11 -111 l-5 -42 -43 5 c-36 5 -47 3 -65 -15 -26 -26 -27 -54 -1 -96 37 -61
79 -53 111 20 18 41 23 44 74 55 43 9 61 19 90 52 26 29 34 43 26 51 -8 8 -20
0 -43 -27 -26 -29 -42 -39 -76 -43 -41 -6 -43 -5 -38 18 9 44 17 239 11 259
-7 23 -35 27 -35 6z m-42 -314 c22 -7 22 -7 5 -42 -21 -42 -42 -45 -62 -8 -13
22 -13 29 -2 42 14 17 22 18 59 8z"/>
<path d="M11272 1068 c-30 -30 -5 -56 39 -38 33 14 34 16 15 36 -18 17 -38 18
-54 2z"/>
<path d="M13962 1040 c-52 -37 -79 -77 -64 -92 8 -8 18 -4 36 13 14 13 26 29
26 34 0 6 14 19 32 29 30 19 31 19 24 1 -4 -11 -10 -38 -13 -62 -4 -33 -3 -43
9 -43 9 0 18 20 26 59 20 97 -2 115 -76 61z"/>
<path d="M13782 1018 c-18 -22 -30 -82 -21 -106 12 -31 29 -18 29 21 0 18 6
44 14 59 18 35 2 54 -22 26z"/>
</g>
</svg>
