<?xml version="1.0" standalone="no"?>
<!DOCTYPE svg PUBLIC "-//W3C//DTD SVG 20010904//EN"
 "http://www.w3.org/TR/2001/REC-SVG-20010904/DTD/svg10.dtd">
<svg version="1.0" xmlns="http://www.w3.org/2000/svg"
 width="1618.000000pt" height="1214.000000pt" viewBox="0 0 1618.000000 1214.000000"
 preserveAspectRatio="xMidYMid meet">

<g transform="translate(0.000000,1214.000000) scale(0.100000,-0.100000)"
fill="#000000" stroke="none">
<path d="M14665 11696 c-20 -15 -20 -15 1 -23 l21 -8 -27 -82 c-14 -45 -29
-85 -32 -88 -9 -9 -38 6 -32 16 3 6 0 16 -6 24 -19 23 -48 0 -76 -58 -38 -82
-31 -159 18 -198 20 -16 20 -17 -17 -100 -41 -91 -50 -144 -25 -144 9 0 14 7
12 17 -1 10 8 39 21 65 13 26 32 71 41 99 15 45 21 53 48 58 18 3 48 23 70 46
31 33 38 48 38 80 0 31 -6 43 -30 62 l-29 23 25 75 c41 125 33 176 -21 136z
m-48 -236 c3 0 -49 -155 -54 -160 -3 -3 -13 6 -24 19 -23 28 -25 90 -4 131 14
26 17 28 47 19 18 -5 34 -9 35 -9z m73 -65 c0 -21 -76 -102 -86 -92 -3 3 16
68 41 136 8 21 45 -16 45 -44z"/>
<path d="M13003 11688 c-5 -7 -19 -40 -32 -73 -13 -33 -27 -63 -30 -67 -3 -3
-22 -1 -41 6 -50 17 -90 4 -119 -40 -40 -59 -24 -136 35 -167 l22 -12 -39 -65
c-42 -71 -53 -115 -29 -115 8 0 16 9 18 20 2 11 23 53 45 92 29 50 48 73 61
73 29 0 85 39 101 69 15 29 11 62 -12 97 -12 19 -11 30 13 88 16 40 32 66 41
66 10 0 13 6 9 16 -3 9 -6 18 -6 20 0 9 -28 3 -37 -8z m-95 -174 c22 -4 22 -5
-13 -74 -19 -39 -42 -70 -50 -70 -25 0 -55 42 -55 77 0 57 41 80 118 67z m62
-64 c0 -19 -10 -36 -31 -55 -17 -14 -33 -24 -36 -22 -7 8 50 116 59 111 4 -3
8 -18 8 -34z"/>
<path d="M13080 11628 c0 -72 -46 -287 -66 -309 -16 -18 -16 -21 -2 -35 13
-14 17 -13 32 11 17 26 54 197 63 295 2 30 5 59 6 64 1 6 -6 12 -15 14 -15 3
-18 -4 -18 -40z"/>
<path d="M13609 11615 c-47 -26 -57 -86 -22 -127 13 -14 13 -19 0 -40 -42 -65
-24 -150 34 -162 69 -14 106 52 69 124 -11 21 -24 41 -30 45 -17 11 -11 24 30
67 43 45 57 75 43 89 -17 17 -97 20 -124 4z m81 -25 c12 -8 8 -17 -26 -51 -45
-45 -64 -45 -64 1 0 45 52 74 90 50z m-25 -196 c15 -32 15 -37 1 -59 -11 -16
-22 -22 -36 -18 -33 9 -42 46 -24 93 19 46 31 43 59 -16z"/>
<path d="M14208 11578 c-43 -22 -75 -45 -72 -49 7 -12 51 -11 59 1 7 12 99 60
115 60 5 0 10 -18 10 -39 0 -51 -79 -173 -126 -196 -36 -17 -84 -69 -84 -91 0
-25 29 -15 74 26 51 47 71 50 81 13 14 -56 66 -83 95 -48 16 19 3 40 -16 24
-20 -16 -40 -5 -48 28 -4 15 -14 35 -22 44 -13 14 -9 24 31 84 43 63 46 72 43
124 -3 54 -4 56 -33 58 -19 2 -57 -12 -107 -39z"/>
<path d="M14881 11594 c-24 -30 -26 -41 -10 -46 8 -3 3 -38 -15 -111 -21 -83
-24 -112 -16 -128 18 -33 34 -16 35 37 1 27 11 90 23 139 32 135 27 165 -17
109z"/>
<path d="M13470 11561 c0 -28 -15 -97 -35 -161 -39 -126 -40 -130 -22 -130 25
0 107 304 90 333 -2 4 -11 7 -19 7 -10 0 -14 -13 -14 -49z"/>
<path d="M15110 11591 c-32 -9 -36 -34 -12 -74 l19 -33 -23 -28 c-45 -52 -24
-168 33 -182 41 -11 56 17 50 96 -3 36 -8 74 -12 85 -5 16 3 25 35 45 48 29
64 52 55 80 -9 27 -39 27 -32 0 4 -15 -4 -27 -26 -44 -53 -38 -55 -39 -72 -6
-12 24 -13 30 -2 30 7 0 18 -5 25 -12 9 -9 13 -7 18 5 8 22 -2 47 -18 46 -7
-1 -24 -4 -38 -8z m37 -209 c3 -28 2 -59 -1 -69 -7 -17 -9 -16 -27 6 -21 26
-25 81 -8 113 15 29 28 11 36 -50z"/>
<path d="M13170 11355 c-7 -14 -10 -28 -7 -32 9 -8 47 27 47 44 0 22 -26 15
-40 -12z"/>
<path d="M13808 11309 c-27 -15 -21 -31 9 -27 17 2 29 10 31 21 4 19 -14 22
-40 6z"/>
<path d="M4675 11271 c-3 -6 3 -31 14 -54 18 -39 51 -175 51 -212 0 -34 -42
-113 -66 -124 -31 -14 -62 3 -71 38 -5 19 1 31 30 58 20 18 46 33 56 33 25 0
37 18 17 26 -45 17 -136 -53 -136 -105 0 -38 33 -78 71 -86 43 -10 76 16 106
82 21 46 24 63 18 110 -17 137 -68 269 -90 234z"/>
<path d="M8594 11256 c-90 -39 -174 -125 -160 -162 3 -8 2 -12 -4 -9 -5 3 -12
-11 -16 -31 -3 -19 -16 -44 -28 -55 -14 -13 -17 -22 -10 -27 20 -12 21 -46 2
-91 -13 -31 -15 -48 -8 -55 16 -16 29 4 43 74 l13 64 62 11 c60 11 93 28 80
41 -3 3 -34 0 -67 -7 -34 -6 -64 -10 -66 -7 -13 12 30 113 62 149 39 44 99 79
133 79 15 0 20 5 18 17 -4 22 -17 25 -54 9z"/>
<path d="M4047 11253 c-12 -11 -7 -81 5 -85 9 -3 8 -9 -5 -22 -13 -14 -17 -35
-17 -95 0 -102 35 -208 53 -158 2 6 -2 30 -10 52 -11 31 -13 68 -8 164 4 68 9
130 12 137 5 14 -18 20 -30 7z"/>
<path d="M8714 11188 c-58 -53 -65 -67 -109 -219 -44 -150 -44 -152 -25 -156
12 -3 21 14 34 69 11 40 22 77 27 82 4 5 31 14 61 20 42 10 54 17 56 34 4 23
-7 29 -23 13 -12 -11 -85 -26 -85 -17 0 3 9 30 20 60 21 55 85 126 115 126 8
0 15 7 15 15 0 28 -40 15 -86 -27z"/>
<path d="M9744 11213 c-3 -10 -21 -57 -40 -104 -19 -48 -34 -92 -34 -99 0 -10
-16 -11 -66 -6 -51 5 -65 4 -62 -6 5 -14 40 -26 84 -27 31 -1 32 -2 36 -61 5
-73 33 -110 83 -110 31 0 65 25 65 48 0 17 -15 15 -30 -3 -16 -19 -54 -19 -70
0 -7 9 -15 37 -18 64 l-4 48 77 6 c75 7 115 22 98 37 -4 4 -41 3 -81 -3 -40
-5 -75 -7 -79 -3 -3 3 10 50 30 104 38 100 45 132 27 132 -6 0 -13 -8 -16 -17z"/>
<path d="M3891 11206 c-8 -9 -9 -16 -2 -21 6 -3 10 -23 9 -43 -3 -111 5 -253
17 -268 18 -26 36 -9 25 24 -5 15 -11 92 -12 171 -3 144 -10 170 -37 137z"/>
<path d="M7135 11208 c-2 -7 -11 -56 -20 -109 -8 -53 -24 -118 -35 -144 -11
-25 -20 -51 -20 -56 0 -16 30 -9 37 9 8 23 89 148 100 155 4 3 8 -17 9 -44 0
-49 23 -89 50 -89 8 0 17 -12 20 -27 10 -44 23 -53 71 -53 54 0 55 22 2 30
-53 8 -51 43 6 104 31 31 45 55 43 69 -6 37 -25 29 -73 -33 -67 -85 -86 -80
-89 23 -1 64 -23 73 -68 30 l-30 -28 6 30 c14 75 18 145 7 145 -7 0 -14 -6
-16 -12z"/>
<path d="M11125 11208 c-3 -7 -18 -65 -33 -128 -32 -127 -36 -195 -12 -195 10
0 14 8 12 28 -2 16 11 85 28 155 18 70 32 131 33 136 3 14 -23 19 -28 4z"/>
<path d="M6953 11188 c-6 -7 -11 -24 -11 -38 0 -14 -5 -51 -11 -82 l-12 -57
-67 -6 c-95 -9 -96 -9 -94 -20 2 -6 34 -10 76 -9 l73 1 -1 -58 c-1 -32 3 -59
9 -59 6 -1 11 5 12 12 1 7 5 34 8 61 6 44 8 47 36 47 24 0 30 4 27 18 -3 11
-12 16 -27 14 -19 -2 -22 1 -18 20 21 88 29 150 20 159 -6 6 -13 5 -20 -3z"/>
<path d="M2112 11155 c-79 -40 -107 -66 -98 -92 6 -15 9 -14 29 9 21 25 125
84 133 75 8 -7 -33 -112 -80 -204 -71 -142 -60 -177 27 -88 58 60 72 66 82 35
10 -33 52 -59 88 -55 41 5 89 61 111 128 22 67 22 185 0 194 -25 9 -41 -14
-26 -37 29 -47 4 -171 -45 -222 -39 -41 -80 -38 -99 7 -19 45 -50 46 -100 3
l-36 -32 36 73 c37 72 76 181 76 212 0 30 -28 28 -98 -6z"/>
<path d="M4867 11183 c-13 -12 -7 -23 22 -38 39 -20 54 0 20 26 -26 20 -32 22
-42 12z"/>
<path d="M8205 11178 c-2 -7 -6 -48 -10 -92 -10 -131 -63 -246 -111 -246 -49
0 -17 85 35 95 30 6 45 20 37 34 -14 22 -49 10 -87 -28 -30 -30 -39 -46 -39
-72 0 -43 9 -56 41 -64 72 -18 159 156 159 318 0 20 5 39 10 42 6 4 8 11 5 16
-9 13 -35 11 -40 -3z"/>
<path d="M5075 11130 c-16 -11 -36 -23 -42 -26 -14 -7 -18 -64 -5 -64 4 0 19
-21 32 -46 l25 -45 -29 -26 -29 -25 -17 22 c-22 29 -45 18 -29 -13 25 -46 46
-47 94 -6 41 37 43 59 10 114 -34 55 -32 72 11 92 37 18 47 36 22 40 -7 1 -26
-7 -43 -17z"/>
<path d="M8327 11144 c-11 -12 13 -44 33 -44 30 0 32 16 5 34 -27 18 -29 18
-38 10z"/>
<path d="M3770 11086 c0 -33 18 -43 35 -20 12 16 12 21 -2 32 -25 18 -33 15
-33 -12z"/>
<path d="M5987 11088 c-27 -15 -20 -54 13 -80 17 -13 45 -35 63 -51 l32 -27
-24 -20 c-29 -25 -86 -27 -99 -4 -5 9 -14 14 -21 10 -32 -20 8 -56 64 -56 32
0 51 7 74 26 50 42 38 75 -46 128 -56 34 -57 56 -3 56 28 0 40 4 40 14 0 17
-66 20 -93 4z"/>
<path d="M5710 11062 c-44 -36 -18 -104 50 -132 16 -7 31 -18 34 -25 8 -21
-42 -28 -69 -11 -19 13 -25 13 -34 2 -25 -30 63 -58 109 -34 43 23 33 58 -27
97 -74 47 -72 91 3 91 27 0 32 15 8 24 -27 10 -51 7 -74 -12z"/>
<path d="M11405 11069 c-10 -14 3 -109 18 -138 7 -13 20 -25 30 -27 21 -3 21
-3 2 32 -8 16 -17 55 -21 86 -6 56 -15 70 -29 47z"/>
<path d="M4867 11064 c-11 -11 -8 -129 3 -159 11 -30 37 -29 31 1 -2 10 -5 50
-6 88 -1 64 -11 87 -28 70z"/>
<path d="M9057 11035 c-31 -24 -56 -56 -83 -109 -23 -44 -45 -76 -54 -76 -13
0 -13 1 0 10 15 11 9 10 -65 -5 -34 -7 -65 10 -58 32 2 10 27 28 53 41 54 26
73 58 46 78 -24 17 -52 7 -83 -30 -88 -104 -51 -176 77 -147 31 7 48 7 57 -1
16 -13 44 7 37 26 -7 19 33 102 67 135 17 17 41 34 55 37 13 3 24 12 24 19 0
27 -30 23 -73 -10z m-192 -65 c-3 -5 -12 -10 -18 -10 -7 0 -6 4 3 10 19 12 23
12 15 0z"/>
<path d="M10911 11047 c-14 -16 -19 -30 -15 -42 6 -14 4 -17 -8 -12 -9 3 -19
0 -22 -8 -3 -8 -13 -11 -25 -8 -24 6 -42 -24 -22 -37 9 -5 2 -40 -28 -136 -46
-144 -47 -154 -27 -154 10 0 27 38 51 116 29 91 39 114 51 110 32 -12 65 6 86
47 30 60 38 95 28 123 -12 31 -40 31 -69 1z m23 -92 c-20 -43 -51 -64 -60 -40
-4 10 9 38 32 73 37 53 39 54 42 29 2 -14 -4 -42 -14 -62z"/>
<path d="M3405 11039 c-22 -12 -51 -24 -65 -28 -32 -10 -34 -37 -2 -33 13 2
45 14 70 27 60 31 66 16 22 -62 -40 -70 -29 -85 33 -44 46 32 67 38 67 21 0
-18 40 -50 63 -50 48 0 114 102 96 148 -12 31 -35 22 -31 -11 5 -52 -48 -117
-84 -103 -8 3 -14 14 -14 24 0 34 -25 46 -60 29 -16 -9 -30 -14 -30 -12 0 1 7
19 15 38 18 44 18 42 -1 61 -20 20 -30 20 -79 -5z"/>
<path d="M5269 11041 c-14 -11 -34 -38 -44 -60 -33 -75 8 -138 97 -148 47 -5
93 10 83 28 -4 5 -22 7 -40 3 -50 -9 -101 11 -115 46 -10 25 -9 34 7 62 10 18
30 38 44 45 13 7 24 18 24 25 0 21 -29 20 -56 -1z"/>
<path d="M11477 10878 c-49 -100 -90 -191 -91 -203 -1 -11 -6 -27 -10 -34 -10
-16 -1 -25 17 -18 8 3 17 20 21 39 4 18 45 109 91 202 47 94 85 176 85 183 0
43 -36 -10 -113 -169z"/>
<path d="M5524 11026 c-3 -8 2 -26 11 -40 10 -15 15 -35 11 -48 -7 -29 -54
-80 -66 -73 -16 10 -32 87 -25 122 6 36 -12 46 -34 19 -13 -16 2 -102 25 -148
24 -46 72 -31 114 37 17 28 20 43 14 80 -7 48 -39 81 -50 51z"/>
<path d="M11217 11016 c-34 -32 -45 -73 -24 -93 15 -16 25 -14 90 12 13 5 16
3 11 -8 -7 -21 34 -63 48 -49 7 7 4 20 -11 40 -12 17 -18 32 -14 34 5 1 16 17
26 35 26 47 2 53 -37 10 -29 -32 -80 -57 -92 -45 -9 10 38 58 57 58 10 0 19 7
19 15 0 23 -44 18 -73 -9z"/>
<path d="M12083 11010 c-47 -28 -43 -57 13 -113 25 -26 44 -52 42 -59 -3 -7
-23 -14 -45 -16 -32 -2 -46 2 -61 18 -23 25 -39 11 -23 -19 16 -30 73 -45 116
-31 63 21 56 78 -19 143 l-31 27 24 21 c18 14 32 18 53 14 21 -5 28 -3 28 8 0
32 -51 35 -97 7z"/>
<path d="M9153 10975 c-23 -25 -47 -45 -53 -45 -5 0 -10 -7 -10 -15 0 -8 9
-15 20 -15 10 0 24 -9 30 -20 6 -11 29 -24 53 -30 23 -6 49 -14 56 -18 11 -6
31 8 72 50 56 58 89 75 74 41 -5 -10 -10 -32 -13 -50 -3 -25 1 -34 22 -48 27
-18 57 -17 63 1 2 6 -10 14 -27 17 -36 8 -38 24 -9 86 35 79 14 86 -76 23 -27
-19 -42 -26 -32 -15 9 11 17 22 17 25 0 10 -27 3 -44 -12 -14 -10 -14 -15 -4
-21 10 -7 9 -9 -4 -9 -9 0 -20 -9 -23 -20 -5 -15 -15 -20 -44 -20 -22 0 -44 6
-51 15 -15 18 -15 17 27 39 37 18 56 47 47 70 -11 28 -47 17 -91 -29z"/>
<path d="M11859 10999 c-15 -29 -39 -117 -39 -146 0 -34 30 -29 31 5 0 15 8
50 17 77 15 45 20 50 50 53 44 4 36 26 -11 30 -29 3 -38 -1 -48 -19z"/>
<path d="M2518 10993 c-21 -25 -48 -79 -48 -98 0 -9 11 -27 25 -40 20 -21 34
-25 80 -25 42 0 55 3 55 15 0 11 -12 15 -49 15 -33 0 -55 6 -66 17 -16 15 -14
19 29 61 26 24 45 50 43 56 -6 19 -52 18 -69 -1z"/>
<path d="M3744 10973 c4 -21 9 -45 11 -53 2 -8 4 -21 4 -27 1 -14 31 -18 31
-5 0 5 -5 34 -11 65 -8 39 -17 57 -27 57 -11 0 -13 -8 -8 -37z"/>
<path d="M11684 10996 c-17 -8 -38 -23 -45 -33 -8 -11 -22 -22 -33 -26 -14 -6
-16 -10 -7 -21 6 -7 9 -20 6 -28 -10 -25 32 -66 73 -72 44 -7 94 5 100 24 4
10 -4 12 -34 7 -53 -9 -98 4 -101 29 -2 14 11 26 56 47 65 31 78 48 55 72 -19
18 -30 18 -70 1z m31 -35 c-6 -5 -21 -12 -35 -15 l-25 -7 25 15 c28 17 50 21
35 7z"/>
<path d="M8262 10903 c2 -27 8 -48 13 -48 6 0 11 21 13 48 3 38 0 47 -13 47
-13 0 -16 -9 -13 -47z"/>
<path d="M7407 10892 c-10 -2 -16 -9 -14 -15 5 -15 19 -18 37 -7 19 12 2 28
-23 22z"/>
<path d="M12507 10751 l-37 -79 -47 1 c-39 2 -48 -1 -51 -16 -3 -16 1 -18 27
-12 60 13 63 0 21 -108 -34 -87 -37 -119 -11 -103 4 3 25 51 46 106 l38 100
52 0 c38 0 55 4 59 15 4 12 -4 15 -45 15 -48 0 -50 1 -43 23 3 12 17 43 30 69
27 54 30 68 10 68 -7 0 -29 -36 -49 -79z"/>
<path d="M9952 10666 l-42 -133 -70 -7 c-54 -6 -70 -11 -70 -23 0 -13 10 -14
65 -8 36 3 65 5 65 3 0 -2 -7 -28 -15 -58 -18 -68 -18 -70 -1 -70 8 0 20 25
30 63 l17 63 35 -4 c42 -5 45 12 4 26 l-29 11 13 43 c7 24 26 77 41 118 40
111 40 110 19 110 -15 0 -27 -26 -62 -134z"/>
<path d="M1713 10773 c-15 -6 -17 -30 -3 -35 5 -2 0 -41 -12 -95 -21 -92 -22
-93 -52 -94 -81 -2 -91 -4 -94 -21 -3 -14 5 -16 56 -11 l60 6 -16 -57 c-11
-42 -13 -59 -4 -68 8 -8 12 -8 15 3 3 8 11 37 19 64 13 46 17 50 47 53 17 2
35 10 38 19 8 20 -17 35 -34 21 -21 -17 -25 -4 -14 38 36 137 34 194 -6 177z"/>
<path d="M1874 10748 c-13 -19 -93 -342 -87 -350 9 -16 22 -6 52 40 40 63 76
96 95 89 19 -8 20 -35 2 -102 -9 -33 -10 -56 -4 -68 14 -26 25 -13 32 40 19
122 19 124 1 143 -26 28 -54 25 -92 -12 -18 -18 -33 -27 -33 -21 0 6 13 61 30
124 17 64 26 117 21 122 -5 5 -12 3 -17 -5z"/>
<path d="M4097 10652 c-26 -53 -47 -102 -47 -108 0 -6 -17 -29 -38 -52 -39
-42 -86 -62 -104 -44 -17 17 37 99 93 138 27 20 49 38 49 40 0 2 -10 4 -23 4
-56 0 -164 -132 -151 -184 11 -46 78 -47 131 -2 l28 24 10 -36 c8 -30 16 -38
38 -40 33 -4 38 22 7 38 -31 17 -26 68 15 136 20 32 33 64 31 71 -3 7 -1 13 3
13 11 0 41 86 33 94 -16 16 -31 -2 -75 -92z"/>
<path d="M4796 10691 c-57 -110 -62 -115 -118 -126 -72 -14 -80 -40 -9 -32 50
6 52 5 45 -16 -28 -87 -24 -140 11 -163 20 -13 27 -13 64 2 37 15 43 20 40 40
0 4 5 10 11 14 8 5 9 10 2 14 -6 4 -19 -2 -29 -13 -10 -11 -31 -24 -46 -30
-25 -10 -29 -8 -37 14 -6 16 -4 42 5 80 8 31 15 58 15 60 0 3 25 5 56 5 67 0
70 20 5 33 l-42 8 22 37 c12 20 31 52 41 69 18 31 17 53 -2 53 -4 0 -20 -22
-34 -49z"/>
<path d="M13333 10708 c-35 -37 -103 -141 -103 -158 0 -6 -4 -9 -9 -6 -5 3
-15 -2 -22 -11 -20 -23 -109 -93 -120 -93 -23 0 -4 36 46 86 43 43 51 56 38
61 -11 4 -33 -11 -70 -50 -46 -48 -54 -61 -51 -89 2 -27 8 -34 30 -36 17 -2
34 4 47 17 12 12 25 21 29 21 5 0 17 9 27 20 25 28 35 25 35 -9 0 -60 70 -98
114 -61 26 20 18 29 -19 23 -41 -7 -65 9 -65 43 0 41 47 133 100 193 27 31 50
63 50 69 0 22 -26 12 -57 -20z"/>
<path d="M2411 10708 c-4 -13 -14 -47 -22 -75 l-13 -53 -43 0 c-32 0 -43 -4
-43 -15 0 -10 10 -15 29 -15 17 0 32 -4 35 -8 2 -4 -2 -37 -9 -72 -18 -84 -19
-143 -2 -138 6 3 13 15 15 29 1 13 9 61 18 106 17 87 16 86 87 99 45 8 51 15
33 39 -13 18 -15 18 -30 2 -14 -14 -56 -25 -56 -14 0 1 7 24 15 51 18 58 19
86 5 86 -6 0 -14 -10 -19 -22z"/>
<path d="M5680 10707 c-9 -8 -16 -31 -16 -62 -1 -28 -14 -84 -28 -126 -14 -42
-26 -79 -26 -83 0 -4 16 -14 35 -22 32 -13 38 -13 73 5 67 34 119 109 101 143
-17 32 -75 21 -128 -26 -23 -20 -24 -20 -17 -1 15 41 36 169 29 176 -5 4 -15
2 -23 -4z m110 -171 c0 -23 -87 -96 -115 -96 -34 0 -32 10 13 52 57 54 102 74
102 44z"/>
<path d="M7324 10712 c-6 -4 -17 -38 -23 -77 -18 -101 -47 -162 -94 -196 -45
-32 -67 -37 -67 -13 0 41 73 114 113 114 9 0 17 7 17 16 0 26 -67 10 -102 -23
-91 -87 -67 -196 30 -136 77 48 105 94 132 221 18 85 16 109 -6 94z"/>
<path d="M8176 10684 c-4 -19 -16 -59 -28 -89 l-20 -54 -51 -3 c-66 -4 -77
-28 -13 -28 25 0 46 -2 46 -5 0 -3 -12 -33 -26 -67 -16 -40 -22 -64 -16 -70
13 -13 32 -2 32 17 0 8 11 39 24 69 24 53 26 55 68 58 37 3 42 6 40 23 -5 28
-10 31 -32 17 -36 -22 -38 -13 -14 56 13 37 24 77 24 90 0 36 -27 26 -34 -14z"/>
<path d="M11546 10701 c-4 -6 -1 -19 6 -30 10 -16 10 -33 -1 -83 -16 -81 -30
-105 -85 -156 -69 -63 -123 -51 -57 12 23 22 36 27 55 22 31 -8 37 18 9 32
-50 26 -149 -70 -123 -118 8 -14 21 -20 47 -20 32 0 45 8 98 63 55 56 64 70
79 133 21 85 18 147 -6 152 -9 2 -19 -1 -22 -7z"/>
<path d="M8971 10621 c-51 -69 -52 -69 -101 -69 -72 -1 -149 -37 -166 -78 -18
-44 -18 -50 6 -74 28 -28 47 -25 114 15 50 30 58 32 63 17 13 -38 46 -62 84
-62 48 0 92 17 86 33 -2 6 -11 10 -18 8 -148 -38 -160 38 -32 201 40 52 48 78
23 78 -4 0 -31 -31 -59 -69z m-95 -130 c-15 -16 -50 -41 -78 -56 -42 -23 -52
-25 -63 -14 -34 36 47 98 129 99 l40 0 -28 -29z"/>
<path d="M3330 10632 c0 -10 -16 -55 -35 -102 -33 -77 -38 -110 -18 -110 5 0
19 23 33 51 26 55 115 159 106 124 -3 -11 -15 -57 -27 -102 -18 -68 -20 -85
-9 -98 19 -23 35 -12 32 21 -2 17 6 64 17 104 33 119 25 151 -30 111 -35 -26
-39 -26 -39 -1 0 11 -7 20 -15 20 -8 0 -15 -8 -15 -18z"/>
<path d="M3774 10595 c-38 -40 -60 -101 -50 -138 7 -29 54 -52 86 -42 29 9 20
28 -13 29 -15 1 -32 7 -38 13 -15 15 -2 73 17 73 8 0 26 11 39 24 13 13 26 21
29 18 8 -7 8 22 0 42 -10 25 -34 19 -70 -19z"/>
<path d="M3584 10601 c-44 -20 -84 -81 -84 -129 0 -33 13 -47 51 -57 28 -7 89
17 89 35 0 14 -36 12 -59 -2 -15 -9 -23 -9 -35 1 -23 19 -20 46 7 60 76 40 97
58 97 81 0 27 -22 30 -66 11z"/>
<path d="M12186 10594 c-28 -16 -28 -18 -23 -79 3 -47 1 -70 -10 -85 -20 -28
-54 -22 -71 13 -14 30 -32 28 -32 -4 0 -51 76 -77 121 -40 21 17 24 28 24 90
0 76 8 91 53 91 13 0 22 6 22 15 0 20 -46 19 -84 -1z"/>
<path d="M5893 10578 c-54 -60 -62 -133 -19 -163 21 -16 107 -21 120 -7 4 4
13 7 19 7 7 0 12 7 12 15 0 8 -7 13 -15 11 -107 -29 -164 4 -104 60 35 32 46
56 39 79 -8 26 -27 25 -52 -2z"/>
<path d="M6625 10560 c-34 -49 -106 -111 -157 -135 -24 -11 -38 -24 -38 -36 0
-27 10 -24 76 20 52 35 59 38 62 21 5 -30 32 -32 78 -5 l43 25 3 -27 c2 -17 9
-28 18 -28 9 0 14 8 12 21 -1 11 7 42 18 69 13 31 17 52 11 58 -8 8 -31 -9
-129 -101 -31 -28 -23 1 19 70 56 92 54 88 31 88 -11 0 -31 -17 -47 -40z"/>
<path d="M11899 10543 c-57 -59 -109 -133 -109 -153 0 -38 19 -29 48 22 16 29
46 71 65 93 28 32 38 38 48 28 21 -21 31 -15 27 15 -5 42 -36 40 -79 -5z"/>
<path d="M6826 10521 c-3 -27 -16 -61 -27 -76 -16 -20 -19 -29 -10 -38 8 -8
19 -3 43 20 42 39 139 103 156 103 15 0 10 -25 -14 -72 -16 -31 -18 -68 -4
-68 11 0 47 79 55 124 5 23 2 36 -10 46 -13 11 -21 10 -53 -8 -20 -12 -54 -30
-74 -42 l-38 -20 11 27 c11 31 6 53 -14 53 -10 0 -17 -17 -21 -49z"/>
<path d="M7864 10551 c-52 -24 -60 -44 -34 -86 18 -29 18 -34 5 -45 -9 -8 -29
-13 -46 -13 -18 0 -29 -6 -29 -14 0 -21 25 -26 65 -13 49 16 62 47 40 90 -20
39 -12 50 42 59 24 4 38 12 38 21 0 22 -34 22 -81 1z"/>
<path d="M12621 10541 c-15 -16 -34 -44 -41 -62 -13 -29 -12 -33 9 -50 28 -23
43 -24 81 -4 27 14 30 14 30 0 0 -21 19 -19 26 3 3 9 14 34 25 55 17 32 18 38
5 43 -10 4 -26 -6 -42 -25 -33 -40 -79 -65 -100 -53 -12 7 -11 13 8 42 13 19
34 37 48 40 31 7 33 34 2 38 -15 2 -32 -7 -51 -27z"/>
<path d="M2094 10538 c-89 -100 -73 -188 23 -134 l40 23 11 -29 c15 -39 32
-27 28 20 -1 20 2 52 7 71 14 54 -7 59 -36 8 -37 -63 -97 -100 -97 -59 0 28
51 97 60 81 7 -10 11 -10 24 0 12 11 14 17 5 27 -17 21 -43 17 -65 -8z"/>
<path d="M7615 10505 c-76 -76 -114 -155 -74 -155 5 0 14 11 19 25 10 27 81
125 90 125 13 0 50 42 45 51 -11 17 -24 9 -80 -46z"/>
<path d="M12898 10530 c-16 -16 -31 -30 -32 -30 -2 0 -1 11 2 25 3 18 0 25
-11 25 -9 0 -19 -16 -26 -43 -6 -24 -20 -55 -31 -69 -11 -15 -20 -29 -20 -32
0 -19 31 1 88 56 68 65 84 66 58 3 -20 -46 -20 -65 -2 -65 16 0 62 133 51 149
-12 20 -46 11 -77 -19z"/>
<path d="M4995 10540 c-3 -5 -4 -10 -2 -10 3 0 -11 -16 -30 -35 -28 -28 -34
-41 -31 -67 2 -27 8 -34 30 -36 64 -8 128 60 107 115 -5 15 -16 31 -22 35 -17
11 -45 10 -52 -2z m45 -52 c0 -27 -37 -68 -62 -68 -34 0 -12 55 28 70 15 6 22
15 18 22 -4 7 -3 8 4 4 7 -4 12 -17 12 -28z"/>
<path d="M7384 10520 c-40 -26 -61 -72 -48 -107 12 -35 75 -68 109 -56 36 12
31 28 -10 29 -62 2 -106 64 -46 64 35 0 72 40 64 70 -7 25 -29 25 -69 0z m31
-30 c-3 -5 -11 -10 -16 -10 -6 0 -7 5 -4 10 3 6 11 10 16 10 6 0 7 -4 4 -10z"/>
<path d="M8350 10518 c-1 -7 -19 -25 -40 -40 -41 -29 -52 -62 -28 -86 18 -18
43 -15 98 13 69 35 79 57 41 95 -30 30 -71 40 -71 18z m57 -45 c5 -14 -44 -49
-80 -58 -18 -5 -27 -3 -27 5 0 16 41 49 63 50 9 0 17 5 17 11 0 13 22 7 27 -8z"/>
<path d="M10853 10473 c-25 -37 -61 -73 -101 -101 -44 -31 -60 -48 -53 -55 7
-7 27 1 65 26 31 20 62 34 70 31 19 -7 86 14 86 27 0 5 4 9 10 9 5 0 8 -17 7
-37 -1 -28 2 -38 15 -41 14 -3 17 3 16 21 -1 14 9 48 22 76 17 38 21 54 12 63
-8 8 -24 -1 -61 -34 -48 -43 -100 -71 -84 -45 4 7 20 32 35 56 32 51 34 61 13
61 -8 0 -31 -26 -52 -57z"/>
<path d="M11684 10516 c-57 -25 -91 -94 -66 -133 10 -16 56 -32 78 -28 11 2
31 6 47 10 15 3 27 12 27 20 0 17 -2 17 -50 6 -72 -16 -110 24 -45 48 19 7 35
17 35 22 0 5 6 9 14 9 19 0 29 30 15 46 -14 17 -16 17 -55 0z"/>
<path d="M8508 10498 c-49 -28 -63 -60 -39 -89 14 -17 29 -22 76 -23 51 -1 60
2 63 18 2 10 -6 32 -18 48 -16 22 -19 33 -11 41 33 33 -17 37 -71 5z m56 -67
l21 -24 -39 6 c-56 9 -67 24 -36 49 18 15 25 17 28 6 3 -7 14 -24 26 -37z"/>
<path d="M10058 10499 c-54 -40 -57 -129 -6 -148 49 -18 122 37 122 93 0 68
-60 97 -116 55z m81 -31 c10 -27 -9 -72 -34 -82 -48 -18 -72 4 -54 51 20 52
73 71 88 31z"/>
<path d="M11154 10496 c-18 -8 -35 -19 -39 -26 -5 -8 -11 -6 -19 6 -9 12 -15
14 -20 6 -4 -7 -1 -12 6 -12 8 0 6 -5 -5 -11 -26 -15 -51 -69 -38 -82 8 -8 24
2 59 35 41 41 102 78 102 62 0 -2 -11 -31 -25 -64 -29 -70 -30 -72 -9 -68 18
3 77 135 70 155 -7 17 -42 16 -82 -1z"/>
<path d="M3946 10303 c-3 -3 -6 -18 -6 -32 -1 -14 -9 -55 -19 -91 l-18 -65
-49 -8 c-87 -15 -94 -17 -94 -28 0 -8 22 -10 65 -7 39 2 65 0 65 -6 0 -5 -9
-43 -21 -84 -20 -71 -19 -116 1 -96 6 6 21 50 33 100 l23 89 64 0 c45 0 64 4
68 14 3 10 -3 13 -27 9 -18 -3 -34 -1 -37 4 -3 4 -16 8 -30 8 -29 0 -30 14 -9
84 8 27 15 62 15 77 0 28 -12 44 -24 32z"/>
<path d="M4663 10298 c-4 -7 -8 -24 -9 -39 -1 -14 -25 -81 -54 -149 -55 -133
-76 -230 -48 -230 11 0 17 14 20 48 3 26 30 107 61 180 64 152 78 202 54 202
-9 0 -19 -6 -24 -12z"/>
<path d="M2010 10251 c0 -16 -20 -87 -45 -158 -55 -155 -52 -145 -39 -150 6
-2 29 27 52 64 22 37 53 80 69 96 l30 28 0 -47 c0 -37 5 -51 22 -66 13 -10 29
-18 37 -18 8 0 14 -7 14 -15 0 -9 12 -28 26 -42 22 -22 31 -25 71 -19 57 8
113 34 113 53 0 11 -5 13 -17 8 -52 -22 -111 -35 -130 -30 -33 8 -29 41 7 72
17 14 40 44 51 66 19 35 19 41 5 55 -13 14 -17 13 -41 -2 -14 -9 -38 -39 -53
-66 -40 -73 -68 -63 -74 25 -4 59 -22 68 -69 34 l-31 -22 8 24 c19 57 31 115
27 127 -10 24 -33 12 -33 -17z m214 -176 c-9 -14 -19 -23 -22 -20 -5 4 26 45
35 45 2 0 -4 -11 -13 -25z"/>
<path d="M1835 10238 c-2 -7 -16 -48 -32 -90 l-28 -78 -62 0 c-49 0 -63 -3
-63 -15 0 -12 13 -15 59 -15 l59 0 -19 -72 c-22 -81 -21 -113 1 -113 10 0 16
12 17 40 2 22 11 65 20 95 18 54 19 55 61 58 33 3 42 7 42 22 0 15 -6 17 -40
13 l-41 -6 27 69 c38 100 39 104 20 104 -9 0 -18 -6 -21 -12z"/>
<path d="M3225 10068 c-25 -50 -50 -97 -57 -105 -18 -22 -32 11 -38 92 -4 55
-9 70 -22 73 -15 3 -16 -5 -11 -70 9 -124 55 -172 101 -105 33 50 101 194 95
201 -15 15 -26 0 -68 -86z"/>
<path d="M4940 10140 c0 -12 -7 -35 -16 -51 -8 -17 -14 -47 -12 -67 3 -32 7
-37 32 -40 93 -11 162 93 101 153 -33 33 -105 36 -105 5z m100 -61 c0 -22 -55
-69 -81 -69 -13 0 -19 7 -19 23 0 30 24 73 39 69 6 -1 14 5 18 13 5 14 8 14
24 -1 11 -9 19 -25 19 -35z"/>
<path d="M5211 10112 c-35 -33 -40 -35 -35 -15 5 18 2 23 -13 23 -15 0 -22
-15 -36 -86 -17 -83 -69 -229 -88 -248 -14 -15 -11 -46 4 -46 12 0 39 50 85
160 19 45 20 46 58 42 36 -3 45 1 92 45 46 44 52 53 52 90 0 32 -5 46 -22 57
-34 24 -53 20 -97 -22z m73 2 c10 -4 16 -18 16 -37 0 -23 -10 -40 -42 -69 -50
-46 -78 -50 -78 -12 0 31 33 88 63 109 25 17 21 17 41 9z"/>
<path d="M2933 10111 c-28 -20 -45 -43 -55 -73 -15 -41 -14 -45 9 -82 25 -38
26 -38 73 -33 54 7 124 37 101 45 -7 2 -38 -1 -68 -8 -42 -9 -57 -9 -68 0 -22
18 -19 25 22 39 50 18 83 54 83 89 0 58 -37 67 -97 23z m56 -47 c-16 -20 -69
-47 -77 -40 -12 12 18 53 49 69 30 14 34 14 37 1 2 -8 -2 -22 -9 -30z"/>
<path d="M3626 10109 c-20 -17 -40 -28 -46 -24 -18 11 -37 -12 -60 -74 -17
-47 -26 -59 -43 -59 -12 0 -41 -6 -64 -13 -34 -10 -44 -10 -57 0 -25 21 -19
35 25 56 49 24 83 64 73 88 -13 36 -81 6 -129 -57 -26 -35 -27 -38 -13 -74 18
-48 52 -61 111 -43 23 7 51 14 63 15 11 1 25 6 31 9 20 13 74 98 68 108 -4 5
-1 9 5 9 7 0 26 11 42 25 17 14 32 24 34 23 2 -2 -4 -31 -13 -64 -16 -60 -14
-94 7 -94 5 0 10 8 10 18 0 9 7 47 17 83 26 102 4 126 -61 68z m-229 -69 c-14
-11 -29 -20 -34 -20 -10 1 39 39 51 40 5 0 -3 -9 -17 -20z"/>
<path d="M4752 10118 c-21 -27 -52 -98 -52 -121 0 -50 59 -64 106 -24 26 22
26 26 20 90 -7 65 -8 67 -36 67 -15 0 -32 -6 -38 -12z m42 -44 c20 -51 -3 -94
-50 -94 -13 0 -15 6 -11 30 7 33 35 80 47 80 4 0 11 -7 14 -16z"/>
<path d="M5390 9915 c0 -8 7 -15 15 -15 8 0 15 7 15 15 0 8 -7 15 -15 15 -8 0
-15 -7 -15 -15z"/>
<path d="M2713 9530 c-4 -14 -14 -20 -37 -20 -17 -1 -58 -2 -91 -4 -33 -2
-130 -7 -215 -11 -142 -6 -280 -15 -481 -31 -65 -6 -77 -4 -82 10 -8 21 -67
22 -67 1 0 -8 12 -22 26 -32 25 -16 40 -16 263 0 347 25 470 28 1078 27 524 0
584 2 560 26 -3 3 -105 5 -226 4 -201 -1 -221 1 -221 16 0 18 9 18 -351 -2
-113 -7 -116 -6 -122 15 -7 27 -27 27 -34 1z"/>
<path d="M3736 9423 c-7 -71 0 -425 9 -453 5 -15 -11 -16 -147 -13 -84 1 -312
4 -506 7 -310 4 -356 6 -372 21 -14 12 -20 13 -26 4 -7 -12 -133 -11 -623 8
-117 4 -162 3 -157 -5 4 -7 -5 -7 -26 2 -18 7 -43 12 -55 11 -18 -2 -22 5 -28
54 -8 65 -8 212 1 259 8 42 -4 102 -20 102 -21 0 -17 -457 4 -470 11 -7 11
-10 2 -10 -10 0 -13 -36 -13 -157 0 -87 -2 -247 -6 -355 -4 -146 -3 -201 6
-212 8 -10 9 -16 1 -21 -13 -8 -12 -94 3 -235 12 -103 12 -142 4 -230 -1 -17
3 -25 13 -25 26 0 31 112 13 280 -8 83 -20 153 -25 156 -7 4 -7 8 0 10 7 3 13
148 18 413 l7 409 256 -8 c141 -4 337 -10 436 -14 l180 -6 -5 -340 c-9 -654
-6 -970 8 -970 11 0 14 73 16 365 3 361 11 668 22 847 l6 92 281 -4 c637 -11
732 -14 735 -24 5 -14 52 9 52 25 0 7 -5 14 -12 16 -19 7 -32 260 -24 492 2
70 -21 52 -28 -21z"/>
<path d="M8662 9417 c-9 -11 -6 -31 13 -88 32 -92 41 -175 23 -209 -33 -61
-95 -16 -68 50 7 16 18 30 26 30 18 0 28 20 16 32 -24 24 -82 -42 -82 -92 0
-29 26 -76 45 -84 9 -3 31 1 50 8 27 12 36 23 45 58 14 52 7 123 -20 202 -11
32 -18 67 -17 78 2 25 -16 34 -31 15z"/>
<path d="M9440 9395 c-7 -8 -10 -24 -7 -35 3 -11 2 -18 -2 -15 -8 4 -41 -101
-41 -130 0 -8 -7 -15 -16 -15 -12 0 -15 -6 -11 -21 4 -13 -4 -42 -19 -70 -13
-27 -24 -55 -24 -64 0 -32 21 -13 51 47 40 79 45 83 99 83 45 0 45 0 54 -42 6
-27 15 -43 24 -43 12 0 13 10 9 45 -6 43 -6 45 19 45 36 0 25 24 -13 28 -29 3
-33 8 -64 95 -37 107 -41 113 -59 92z m33 -107 c23 -63 25 -98 6 -98 -5 0 -7
4 -4 10 4 6 -6 7 -26 3 l-31 -6 7 39 c4 21 8 51 9 67 2 40 21 33 39 -15z"/>
<path d="M9607 9384 c-17 -17 -5 -34 23 -34 28 0 29 -2 28 -45 0 -40 -3 -45
-21 -43 -33 5 -32 -22 2 -35 34 -12 43 -40 45 -129 2 -86 21 -52 22 38 l0 86
36 13 c76 26 124 79 98 110 -19 22 -216 55 -233 39z m196 -50 c9 -5 13 -14 9
-20 -12 -20 -76 -54 -99 -54 -20 0 -23 5 -23 38 0 21 3 42 7 45 9 9 85 3 106
-9z"/>
<path d="M9989 9363 c-7 -20 -7 -64 1 -148 12 -130 17 -155 30 -155 17 0 17
16 5 130 -8 63 -11 134 -8 158 7 49 -11 58 -28 15z"/>
<path d="M2900 9373 c-45 -15 -51 -62 -15 -115 15 -22 21 -39 15 -43 -6 -3
-10 -19 -10 -34 0 -38 48 -82 92 -84 29 -2 33 1 36 27 3 20 -6 40 -28 68 l-32
40 30 31 c54 58 68 107 31 107 -15 0 -19 -5 -15 -16 4 -9 -9 -30 -34 -57 l-40
-42 -21 24 c-30 36 -21 56 25 56 36 0 59 17 39 28 -16 9 -58 15 -73 10z m90
-240 c0 -15 -27 -7 -52 15 -19 16 -24 43 -11 56 9 9 63 -52 63 -71z"/>
<path d="M2661 9344 c-16 -20 -21 -42 -22 -88 -1 -33 -4 -74 -8 -91 l-7 -30
-28 55 c-16 30 -36 66 -46 80 -10 14 -18 30 -18 35 -1 6 -8 11 -17 13 -18 4
-34 -30 -17 -36 7 -2 28 -34 49 -70 57 -105 92 -135 108 -94 3 9 9 57 12 106
5 70 10 92 26 106 10 10 16 23 12 29 -10 17 -22 13 -44 -15z"/>
<path d="M8186 9362 c-3 -5 2 -28 10 -53 9 -24 18 -75 21 -112 l6 -69 -32 16
c-17 9 -53 44 -78 76 -27 35 -54 60 -65 60 -16 0 -18 -10 -18 -120 0 -99 3
-120 15 -120 11 0 15 20 17 98 l3 97 34 -47 c18 -25 53 -57 76 -69 38 -20 45
-21 60 -9 18 15 18 12 1 202 -4 41 -36 73 -50 50z"/>
<path d="M8869 9247 c-101 -68 -61 -164 71 -170 70 -3 78 18 10 27 -84 11
-124 37 -80 51 28 9 80 54 80 70 0 15 -27 45 -39 45 -5 0 -23 -10 -42 -23z
m36 -33 c-11 -9 -28 -20 -39 -26 -14 -8 -17 -7 -11 4 18 29 28 38 49 38 21 -1
21 -1 1 -16z"/>
<path d="M8402 9230 c-75 -46 -54 -140 31 -140 29 0 77 35 77 56 0 22 -50 104
-63 104 -7 0 -27 -9 -45 -20z m70 -64 c12 -17 9 -25 -13 -36 -32 -18 -69 -4
-69 25 0 43 56 51 82 11z"/>
<path d="M10365 8970 c-3 -6 -3 -19 0 -31 4 -11 -1 -49 -11 -85 -16 -60 -19
-65 -53 -74 -20 -5 -42 -10 -48 -10 -7 0 -13 -7 -13 -16 0 -14 7 -15 41 -10
36 6 41 4 35 -10 -3 -9 -11 -37 -18 -61 -6 -25 -17 -47 -24 -50 -8 -3 -14 -14
-14 -25 0 -14 6 -19 22 -16 18 2 27 18 48 88 24 80 28 85 55 88 17 2 36 8 43
14 22 19 12 29 -23 22 -19 -3 -35 -5 -35 -3 0 2 7 29 15 59 19 72 20 130 1
130 -8 0 -18 -5 -21 -10z"/>
<path d="M10940 8942 c0 -15 11 -23 45 -32 25 -7 59 -25 75 -40 25 -23 30 -36
30 -72 0 -45 -12 -73 -83 -196 -41 -70 -44 -82 -23 -82 7 0 22 17 31 38 10 20
28 51 40 67 66 89 85 182 50 242 -20 34 -60 57 -77 47 -6 -4 -8 -2 -5 3 4 6
-5 15 -21 21 -15 5 -35 13 -44 17 -14 5 -18 2 -18 -13z"/>
<path d="M9096 8930 c-55 -11 -104 -17 -108 -14 -5 3 -14 1 -21 -4 -17 -14
-110 -32 -163 -32 -31 0 -46 -5 -51 -15 -3 -9 -3 -18 0 -21 2 -3 51 2 107 11
57 8 105 13 107 11 5 -5 -18 -98 -27 -111 -16 -22 -62 -177 -56 -190 10 -27
35 -17 34 14 -1 30 34 146 58 192 7 14 16 45 20 68 5 31 12 42 28 46 64 14
156 27 193 27 44 0 60 19 27 32 -21 8 -34 7 -148 -14z"/>
<path d="M10738 8937 c-31 -14 -84 -77 -104 -126 -20 -47 -17 -118 6 -169 15
-34 29 -47 65 -63 43 -19 65 -19 65 2 0 5 -8 9 -19 9 -48 0 -101 75 -101 145
0 68 65 168 115 177 21 3 28 29 10 34 -5 2 -22 -2 -37 -9z"/>
<path d="M8604 8868 c-9 -43 -9 -43 -56 -46 -39 -3 -48 -7 -48 -22 0 -15 6
-17 40 -13 l40 6 -16 -38 c-21 -52 -20 -121 2 -146 24 -27 117 -24 122 4 3 15
-1 17 -25 11 -63 -16 -87 -2 -85 48 3 43 6 58 22 91 11 23 19 27 57 27 27 0
42 4 38 10 -3 6 1 7 9 4 9 -3 16 -1 16 5 0 7 -20 11 -50 11 -49 0 -49 0 -40
26 14 36 12 64 -4 64 -7 0 -17 -18 -22 -42z"/>
<path d="M2039 8888 c0 -2 -2 -21 -4 -43 -8 -74 -16 -97 -31 -91 -8 3 -26 -2
-40 -11 l-25 -16 7 54 c3 30 7 59 8 64 0 6 -6 10 -14 10 -23 0 -40 -132 -27
-209 4 -20 32 -44 41 -36 2 3 -1 24 -7 47 -6 23 -9 44 -6 47 2 2 23 7 47 11
34 5 43 4 41 -7 -8 -42 29 -105 47 -77 4 6 11 6 20 -2 17 -14 99 -15 117 -1 7
5 25 12 40 14 24 5 30 1 42 -28 24 -59 47 -38 24 22 -7 21 -7 34 2 51 19 35
-6 76 -41 68 -34 -8 -83 -62 -77 -86 5 -17 -1 -19 -44 -19 -46 0 -49 2 -57 32
-10 41 -32 49 -33 11 l-1 -28 -10 29 c-7 20 -7 50 2 102 11 72 9 94 -11 94 -5
0 -9 -1 -10 -2z m251 -177 c0 -12 -29 -41 -41 -41 -13 0 -11 24 3 38 14 14 38
16 38 3z"/>
<path d="M3754 8877 c-10 -27 1 -150 14 -155 9 -3 12 18 12 82 0 52 -4 86 -10
86 -6 0 -13 -6 -16 -13z"/>
<path d="M3173 8770 c5 -44 3 -60 -6 -61 -6 0 -25 -1 -42 -2 -50 -3 -44 -22 8
-25 33 -2 47 -7 47 -18 0 -7 -7 -14 -15 -14 -20 0 -19 -10 5 -40 17 -21 21
-23 30 -10 5 8 10 27 10 43 0 31 15 36 23 7 4 -15 14 -20 37 -20 21 0 38 -8
49 -22 12 -14 24 -19 35 -15 16 6 16 9 -3 33 -11 14 -17 32 -15 39 7 17 -26
64 -45 65 -8 0 -22 -7 -31 -15 -8 -8 -25 -12 -35 -9 -16 4 -21 15 -23 56 -4
57 -8 68 -24 68 -7 0 -9 -20 -5 -60z m131 -91 c-18 -20 -44 -26 -44 -10 0 14
42 41 52 35 5 -3 2 -15 -8 -25z"/>
<path d="M3531 8811 c-12 -21 -15 -169 -5 -195 10 -26 32 -18 39 14 4 17 8 30
10 30 2 0 17 -13 33 -30 31 -30 72 -40 72 -17 0 6 -14 18 -30 25 -38 17 -48
53 -26 98 14 31 14 35 1 41 -9 3 -17 4 -19 2 -2 -2 -15 -24 -30 -49 l-28 -45
5 68 c5 69 -4 92 -22 58z"/>
<path d="M2428 8785 c-49 -52 -49 -50 -46 -166 2 -77 7 -114 15 -116 18 -6 29
47 12 58 -10 6 -11 9 -1 9 7 0 12 13 12 30 0 23 10 41 39 68 48 46 60 82 37
117 -21 31 -39 32 -68 0z m38 -64 c-9 -16 -23 -31 -32 -35 -14 -5 -16 -1 -10
26 3 17 14 40 23 50 15 16 18 17 25 4 6 -10 3 -27 -6 -45z"/>
<path d="M2935 8778 c-34 -30 -27 -45 42 -87 52 -32 55 -35 34 -43 -14 -5 -40
-4 -63 3 -43 11 -54 8 -45 -15 7 -19 95 -30 130 -17 43 17 32 48 -30 90 -28
20 -49 39 -46 44 3 5 25 6 49 2 69 -10 54 22 -18 39 -20 4 -34 0 -53 -16z"/>
<path d="M8145 8787 c-74 -34 -71 -81 6 -124 l51 -27 -22 -18 c-24 -20 -80
-25 -80 -7 0 16 -42 6 -54 -13 -15 -24 -4 -30 51 -30 62 0 127 29 131 59 3 18
-9 30 -52 58 -31 20 -56 40 -56 46 0 6 14 16 30 22 17 6 30 16 30 22 0 6 3 7
8 0 9 -13 49 -35 62 -35 15 0 12 26 -3 39 -23 18 -70 22 -102 8z"/>
<path d="M9150 8753 c0 -25 1 -26 16 -11 9 9 13 21 10 27 -13 20 -26 11 -26
-16z"/>
<path d="M2096 8751 c-21 -24 -5 -37 23 -19 28 17 40 1 13 -18 -19 -13 -31
-44 -18 -44 18 0 76 45 76 59 0 42 -63 56 -94 22z"/>
<path d="M8304 8717 c-56 -56 -59 -92 -13 -132 27 -22 39 -25 85 -23 72 4 73
22 3 28 -94 8 -117 47 -46 78 49 22 70 44 65 69 -7 36 -47 27 -94 -20z m66 8
c0 -2 -10 -9 -22 -15 -22 -11 -22 -10 -4 4 21 17 26 19 26 11z"/>
<path d="M9565 8732 c-84 -53 -82 -171 3 -197 39 -12 122 14 134 41 16 34 2
41 -26 15 -17 -16 -38 -23 -69 -24 -48 -2 -61 5 -71 39 -5 18 0 23 34 33 45
13 73 48 68 83 -4 30 -34 34 -73 10z m45 -21 c0 -16 -30 -41 -48 -41 -13 1
-10 7 11 25 31 27 37 30 37 16z"/>
<path d="M3391 8704 c-27 -35 -26 -59 4 -89 26 -26 41 -30 64 -16 19 12 5 31
-23 31 -33 0 -41 35 -14 60 11 10 17 23 13 29 -10 17 -22 13 -44 -15z"/>
<path d="M9835 8719 c-20 -10 -41 -55 -52 -110 -7 -39 16 -53 64 -39 84 25
108 72 66 128 -22 30 -47 36 -78 21z m65 -70 c0 -10 -5 -21 -10 -24 -6 -4 -7
-11 -4 -17 4 -6 2 -8 -4 -4 -6 3 -23 1 -38 -4 -15 -6 -29 -9 -31 -6 -9 8 8 44
33 71 20 22 27 25 39 15 8 -7 15 -21 15 -31z"/>
<path d="M10042 8717 c-16 -18 -25 -63 -17 -86 3 -11 22 -30 41 -42 29 -18 40
-20 59 -11 47 21 102 137 66 137 -8 0 -18 -14 -23 -31 -4 -17 -19 -43 -33 -58
l-25 -27 -30 21 c-33 23 -39 50 -15 70 8 7 15 19 15 26 0 17 -24 18 -38 1z"/>
<path d="M3747 8388 c-10 -481 -9 -585 3 -593 5 -3 12 0 14 7 3 7 7 214 11
461 6 383 5 447 -8 447 -12 0 -15 -53 -20 -322z"/>
<path d="M9281 8688 c-43 -29 -70 -65 -73 -98 -5 -41 23 -30 49 20 23 42 39
60 56 60 7 0 5 -16 -9 -55 -2 -5 0 -17 6 -25 8 -12 17 -7 55 30 l45 44 0 -47
c0 -37 3 -45 15 -41 11 5 15 22 15 65 0 76 -20 89 -61 39 l-28 -33 2 29 c3 38
-27 43 -72 12z"/>
<path d="M9104 8643 c-3 -10 -12 -32 -21 -49 -12 -25 -12 -36 -3 -53 19 -37
28 -21 47 87 6 34 -13 47 -23 15z"/>
<path d="M9410 8465 c0 -8 12 -39 27 -68 44 -86 30 -193 -34 -259 -33 -34 -51
-35 -59 -4 -9 35 -1 68 21 94 16 19 26 22 52 17 37 -7 42 4 15 28 -24 22 -34
21 -66 -4 -50 -39 -71 -124 -40 -167 22 -32 60 -28 97 11 75 79 93 200 44 294
-15 29 -27 56 -27 60 1 5 -6 9 -14 11 -9 2 -16 -3 -16 -13z"/>
<path d="M10800 8455 c0 -8 15 -21 34 -30 39 -19 54 -50 63 -136 4 -43 1 -66
-14 -100 -25 -57 -80 -120 -101 -117 -22 4 -28 -30 -7 -38 23 -9 99 67 130
130 43 86 28 217 -32 274 -36 33 -73 43 -73 17z"/>
<path d="M8126 8428 c-38 -31 -38 -32 -34 -90 l4 -59 -55 2 c-43 2 -56 0 -56
-12 0 -10 15 -15 58 -17 l57 -3 0 -37 c0 -44 -25 -86 -47 -78 -8 3 -19 4 -24
0 -13 -7 8 -44 25 -44 21 0 76 68 76 93 0 38 12 67 26 67 21 0 17 21 -5 27
-20 5 -31 30 -31 75 0 32 53 89 58 63 4 -17 18 -20 27 -5 10 17 -5 50 -23 50
-10 0 -35 -14 -56 -32z"/>
<path d="M10503 8450 c-33 -13 -79 -84 -93 -141 -13 -55 -8 -100 16 -137 26
-39 154 -83 154 -52 0 11 -7 14 -52 24 -41 9 -85 52 -92 89 -9 46 18 129 54
167 25 27 34 31 60 25 34 -8 41 8 11 25 -23 12 -28 12 -58 0z"/>
<path d="M9722 8405 c-23 -10 -24 -33 -1 -26 8 2 32 5 53 5 44 2 61 23 24 30
-30 6 -48 4 -76 -9z"/>
<path d="M9999 8418 c-8 -23 -45 -267 -41 -276 12 -33 28 3 43 99 20 121 23
179 9 179 -5 0 -10 -1 -11 -2z"/>
<path d="M9676 8389 c4 -7 0 -9 -14 -5 -28 9 -72 -3 -72 -20 0 -8 7 -14 15
-14 18 0 19 -20 3 -71 -7 -26 -17 -39 -29 -39 -26 0 -34 -20 -11 -27 17 -4 20
-12 19 -46 -2 -31 2 -42 14 -45 13 -2 16 7 17 43 0 26 3 49 6 53 4 3 25 7 49
8 59 3 58 29 -1 29 -34 0 -41 3 -36 15 4 8 9 32 12 53 2 21 10 37 17 37 7 0
16 7 19 16 8 21 8 24 -5 24 -5 0 -7 -5 -3 -11z"/>
<path d="M8818 8373 c-9 -2 -23 -18 -32 -36 -8 -18 -17 -31 -20 -29 -23 9 -27
-5 -24 -83 2 -70 6 -85 18 -83 14 3 20 23 48 158 6 30 11 35 40 38 20 2 32 9
32 18 0 8 -4 14 -9 14 -5 0 -15 2 -23 4 -7 2 -20 2 -30 -1z"/>
<path d="M8309 8335 c-46 -25 -44 -43 11 -96 53 -52 61 -74 31 -84 -26 -8 -48
3 -55 28 -5 20 -7 20 -21 6 -21 -20 -10 -44 25 -59 56 -23 119 11 104 57 -4
10 -27 39 -52 65 -43 44 -44 46 -23 57 15 9 25 8 40 -1 25 -15 39 -3 25 20
-14 22 -52 25 -85 7z"/>
<path d="M8905 8297 c-58 -58 -42 -135 30 -153 35 -9 75 3 75 22 0 12 -7 14
-30 9 -50 -11 -55 4 -15 45 30 31 36 43 33 71 -3 29 -7 34 -31 37 -21 3 -36
-5 -62 -31z m65 -15 c0 -10 -16 -32 -35 -51 -35 -32 -35 -32 -35 -8 0 24 40
77 60 77 5 0 10 -8 10 -18z"/>
<path d="M10117 8310 c-77 -61 -76 -161 0 -184 46 -14 162 18 141 39 -3 4 -31
2 -61 -4 -71 -15 -107 -3 -107 37 0 25 4 29 30 29 40 0 82 39 78 73 -4 34 -44
39 -81 10z m53 -20 c0 -11 -33 -30 -52 -30 -7 1 -3 9 11 20 25 22 41 26 41 10z"/>
<path d="M9834 8304 c3 -9 6 -18 6 -20 0 -2 7 -4 15 -4 8 0 15 9 15 20 0 14
-7 20 -21 20 -15 0 -19 -4 -15 -16z"/>
<path d="M9107 8298 c-32 -25 -77 -91 -77 -114 0 -14 8 -25 19 -29 23 -7 71 4
71 16 0 22 19 6 22 -17 4 -34 31 -53 54 -39 24 15 22 30 -3 33 -27 4 -30 33
-8 72 8 14 14 33 15 43 0 28 -27 20 -40 -13 -7 -16 -27 -39 -45 -50 -68 -42
-74 -16 -10 48 25 24 45 49 45 53 0 13 -24 11 -43 -3z"/>
<path d="M9790 8223 c-14 -46 -10 -115 8 -121 9 -3 12 13 12 57 0 33 5 63 10
66 15 9 12 35 -5 35 -8 0 -19 -16 -25 -37z"/>
<path d="M8472 8121 c-8 -23 -7 -31 4 -35 13 -5 34 28 34 55 0 22 -29 7 -38
-20z"/>
<path d="M8872 8031 c-7 -4 -15 -37 -19 -73 -3 -37 -9 -72 -13 -79 -5 -7 -28
-13 -52 -13 -31 -1 -43 -5 -43 -16 0 -11 12 -15 48 -14 38 0 46 -3 43 -15 -3
-9 -7 -31 -11 -48 -4 -18 -11 -33 -16 -33 -5 0 -9 -7 -9 -15 0 -8 9 -15 19
-15 20 0 32 26 46 98 5 26 11 33 25 29 10 -2 24 -1 31 4 12 8 11 11 -1 19 -8
5 -22 10 -31 10 -13 0 -14 9 -9 58 4 32 10 67 14 79 8 24 -3 36 -22 24z"/>
<path d="M9090 8014 c-6 -14 -10 -30 -10 -36 0 -6 -8 -28 -17 -49 -16 -33 -23
-38 -56 -41 -47 -4 -53 -22 -9 -26 30 -3 33 -6 28 -25 -4 -12 -9 -46 -13 -74
-5 -50 -5 -53 17 -53 20 0 22 4 17 29 -4 17 0 53 9 80 14 48 17 51 55 57 41 7
54 17 44 33 -3 6 -18 6 -37 0 -17 -5 -33 -7 -35 -6 -2 2 8 26 22 53 23 46 25
84 4 84 -5 0 -14 -12 -19 -26z"/>
<path d="M10980 7990 c0 -13 7 -20 19 -20 10 0 30 -17 44 -37 67 -98 85 -199
47 -274 -24 -45 -92 -99 -127 -99 -14 0 -23 -6 -23 -15 0 -20 49 -20 80 2 122
81 153 190 93 323 -46 101 -133 180 -133 120z"/>
<path d="M10636 7945 c-41 -53 -96 -176 -96 -213 0 -63 59 -134 144 -173 48
-22 100 -25 94 -6 -3 6 -16 12 -29 12 -13 0 -26 2 -29 5 -3 3 -26 18 -52 33
-54 31 -98 89 -98 127 0 39 75 186 104 206 21 13 24 19 15 30 -17 20 -24 18
-53 -21z"/>
<path d="M8660 7930 c0 -19 20 -27 33 -13 8 7 -11 33 -24 33 -5 0 -9 -9 -9
-20z"/>
<path d="M8088 7878 c-80 -86 -77 -193 7 -214 13 -3 46 -3 72 0 27 3 59 7 72
8 18 2 31 18 55 67 25 49 34 60 40 46 3 -10 1 -24 -5 -31 -12 -15 -4 -34 16
-34 7 0 30 23 51 50 21 28 40 50 41 50 2 0 3 -21 2 -47 -1 -27 1 -58 5 -70 9
-27 42 -39 61 -23 22 18 18 32 -7 28 -22 -3 -23 0 -24 80 0 45 -4 85 -8 90 -4
4 -30 -17 -57 -46 -49 -54 -52 -53 -49 6 1 23 -3 32 -14 32 -9 0 -25 -15 -36
-32 l-20 -33 0 33 c0 17 -5 32 -10 32 -13 0 -16 -9 -30 -95 -8 -54 -15 -71
-28 -73 -107 -14 -113 -13 -137 2 -33 21 -32 33 3 41 29 6 84 57 94 86 3 8 0
29 -8 47 -17 42 -46 42 -86 0z m62 -32 c0 -23 -32 -58 -62 -69 -29 -10 -22 28
13 68 33 37 49 38 49 1z"/>
<path d="M9507 7890 c-14 -11 -36 -40 -48 -64 -12 -25 -30 -47 -40 -49 -14 -4
-19 -14 -19 -40 0 -19 -3 -49 -6 -66 -5 -23 -3 -31 7 -31 13 0 59 106 62 143
1 9 4 17 8 17 4 0 16 16 28 35 20 34 53 47 66 25 9 -15 35 -12 35 4 0 36 -59
53 -93 26z"/>
<path d="M10052 7827 c-53 -54 -69 -96 -50 -134 10 -22 21 -29 49 -31 31 -3
41 2 68 33 17 20 31 42 31 50 0 25 -24 16 -45 -18 -27 -43 -68 -45 -73 -4 -7
55 56 108 78 66 10 -17 40 -27 40 -13 0 13 -41 94 -48 94 -4 0 -27 -19 -50
-43z"/>
<path d="M9264 7846 c-60 -26 -108 -120 -85 -165 14 -25 57 -45 74 -34 7 4 19
7 27 5 8 -1 21 2 29 7 25 16 2 28 -48 23 -44 -4 -50 -2 -56 19 -8 24 14 49 44
49 22 0 81 52 81 71 0 15 -19 39 -29 39 -4 -1 -20 -7 -37 -14z m17 -46 c-25
-22 -41 -26 -41 -10 0 11 30 29 50 29 10 0 8 -6 -9 -19z"/>
<path d="M10290 7811 l-47 -50 1 41 c1 24 -4 43 -11 45 -9 3 -13 -5 -13 -24 0
-15 -12 -55 -25 -88 -29 -70 -30 -75 -10 -75 15 0 69 55 112 113 12 16 31 36
42 43 19 14 19 14 0 -41 -23 -66 -24 -99 -4 -119 13 -12 21 -13 40 -4 26 12
31 23 16 32 -5 4 -11 1 -13 -6 -6 -17 -28 0 -28 22 0 11 9 44 21 75 11 31 18
62 15 70 -11 29 -49 16 -96 -34z"/>
<path d="M8632 7757 c-15 -67 -15 -87 1 -87 8 0 18 24 26 60 16 71 16 74 -1
78 -9 2 -18 -16 -26 -51z"/>
<path d="M3745 7723 c8 -63 11 -73 26 -73 10 0 12 38 3 93 -4 23 -12 37 -21
37 -13 0 -14 -10 -8 -57z"/>
<path d="M9636 7664 c-10 -26 -7 -44 7 -44 19 0 50 37 42 49 -10 16 -42 13
-49 -5z"/>
<path d="M1823 7647 c-12 -19 18 -28 82 -25 41 2 70 8 72 15 5 13 -146 23
-154 10z"/>
<path d="M1990 7636 c0 -15 62 -20 395 -32 88 -3 293 -15 455 -26 285 -20 749
-30 858 -18 l52 6 0 -35 c0 -41 13 -67 28 -57 14 8 3 138 -14 156 -12 12 -14
11 -14 -7 0 -13 -8 -24 -21 -28 -51 -17 -589 -8 -879 14 -230 17 -575 34 -847
41 -7 0 -13 -6 -13 -14z"/>
<path d="M6096 7503 c-29 -5 -60 -26 -50 -35 3 -3 -6 -3 -18 -1 -25 4 -258
-52 -267 -64 -3 -5 -13 -9 -21 -11 -31 -7 -142 -66 -147 -79 -3 -7 -9 -10 -14
-7 -21 13 -265 -169 -350 -261 -60 -66 -159 -189 -159 -199 0 -5 -6 -17 -14
-25 -7 -9 -28 -43 -46 -76 -70 -127 -88 -170 -84 -200 3 -22 2 -25 -4 -11 -7
15 -14 1 -36 -64 -15 -45 -25 -89 -22 -96 3 -8 2 -14 -3 -14 -18 0 -61 -295
-61 -417 l0 -72 -57 -6 c-100 -11 -113 -15 -113 -36 0 -10 5 -19 11 -19 6 0 8
-9 4 -20 -4 -12 -1 -27 5 -35 7 -8 29 -47 49 -87 78 -153 121 -196 121 -122 0
28 5 37 21 41 12 3 18 11 15 19 -6 17 13 74 25 74 5 0 16 -14 25 -32 64 -124
276 -400 391 -509 45 -43 163 -129 177 -129 3 0 6 6 6 14 0 7 -26 30 -57 51
-32 21 -93 74 -136 119 -44 45 -83 80 -89 78 -5 -1 -7 2 -4 7 3 5 -20 40 -52
78 -58 70 -177 243 -219 321 l-24 43 27 59 c14 32 23 63 19 69 -3 6 -28 11
-55 11 -44 0 -48 2 -56 28 -4 15 -7 30 -6 35 1 4 -4 7 -10 7 -9 0 -9 3 -2 8 6
4 16 61 23 127 15 152 43 291 83 414 18 53 31 99 30 104 -1 4 3 7 8 7 6 0 10
4 10 10 0 5 23 50 50 100 28 50 51 95 53 101 1 6 10 21 19 33 109 135 170 206
198 231 18 17 46 41 61 55 31 29 28 27 140 101 46 31 103 66 126 79 23 13 40
27 37 31 -3 5 2 6 10 3 9 -3 16 -2 16 3 0 5 10 9 22 10 11 1 25 8 29 15 5 7
19 14 31 15 20 2 243 60 243 63 0 5 67 10 190 16 119 5 158 3 258 -15 65 -12
123 -18 129 -15 7 5 8 2 3 -6 -6 -10 -4 -12 8 -7 10 3 17 3 17 -1 0 -5 26 -16
58 -26 125 -39 259 -117 455 -265 18 -14 52 -49 76 -78 40 -49 71 -68 71 -42
0 18 -173 185 -237 228 -35 23 -63 46 -63 52 0 14 -62 49 -88 49 -13 0 -21 4
-18 9 7 10 8 9 -124 57 -51 19 -100 32 -108 29 -7 -2 -11 -1 -8 4 11 17 -191
56 -339 66 -49 3 -106 7 -125 9 -19 1 -48 1 -64 -1z m-1236 -1677 c0 -2 -7 -9
-15 -16 -12 -10 -15 -10 -15 4 0 9 7 16 15 16 8 0 15 -2 15 -4z m40 -5 c0 -17
-18 -21 -24 -6 -3 9 0 15 9 15 8 0 15 -4 15 -9z m-196 -46 c3 -8 1 -15 -4 -15
-6 0 -10 7 -10 15 0 8 2 15 4 15 2 0 6 -7 10 -15z m44 -53 c-7 -18 -16 -32
-20 -32 -11 0 -10 7 8 41 20 39 27 33 12 -9z m43 11 c-12 -20 -14 -14 -5 12 4
9 9 14 11 11 3 -2 0 -13 -6 -23z m0 -77 c-7 -17 -5 -27 5 -38 13 -13 13 -16 0
-27 -13 -11 -17 -9 -27 13 -10 20 -9 30 5 51 21 31 28 32 17 1z"/>
<path d="M7272 6981 c-11 -6 -7 -16 15 -42 78 -91 174 -273 233 -444 47 -137
54 -170 76 -350 23 -190 20 -301 -10 -376 -21 -49 -37 -116 -39 -156 0 -5 -11
-25 -23 -45 -13 -21 -24 -42 -24 -47 0 -26 -106 -164 -170 -221 -40 -36 -103
-94 -140 -130 -106 -101 -125 -114 -314 -211 -304 -156 -652 -195 -973 -110
-47 12 -73 15 -73 8 0 -6 -6 -4 -12 5 -7 8 -50 29 -95 47 -45 17 -114 50 -153
73 -69 40 -88 44 -77 14 8 -19 213 -118 312 -150 372 -119 738 -90 1087 85 85
43 161 89 166 102 2 4 8 7 13 7 15 0 114 76 136 104 11 14 49 49 84 78 35 29
80 69 100 89 83 83 179 260 194 354 6 38 9 45 15 30 4 -11 3 -23 -2 -26 -6 -4
-9 -19 -7 -35 1 -16 -1 -36 -4 -44 -7 -17 -26 -100 -27 -115 0 -32 49 79 54
120 21 185 30 229 67 330 46 125 112 363 104 375 -3 5 -1 11 4 14 4 3 11 23
15 45 5 34 9 38 28 34 13 -3 28 -10 34 -14 17 -14 51 16 37 32 -5 8 -10 55
-10 104 -1 82 -19 165 -38 165 -8 0 -66 -60 -96 -100 -15 -19 -47 -55 -72 -79
-54 -52 -50 -66 21 -76 81 -11 80 -5 39 -172 -20 -81 -51 -192 -69 -246 -31
-89 -34 -95 -46 -76 -10 16 -10 19 -1 13 10 -6 11 16 5 97 -20 313 -91 543
-246 801 -64 107 -101 150 -118 139z"/>
<path d="M6295 6778 c-2 -7 -8 -55 -13 -106 -5 -51 -12 -95 -15 -98 -9 -9 -48
-8 -80 1 -25 7 -28 5 -25 -11 3 -19 59 -39 88 -31 15 4 18 -6 23 -61 4 -36 15
-81 25 -101 18 -33 23 -36 61 -35 47 1 75 19 52 33 -7 5 -11 13 -7 19 3 6 1
14 -5 18 -13 8 -41 -24 -33 -37 3 -5 -2 -9 -10 -9 -28 0 -46 44 -49 116 l-2
69 68 5 c89 7 91 24 4 28 l-69 3 7 104 c5 77 4 105 -4 105 -6 0 -13 -6 -16
-12z"/>
<path d="M5688 6578 c-11 -9 -18 -38 -22 -93 -4 -44 -10 -82 -12 -85 -7 -7
-26 25 -46 80 -19 52 -56 72 -44 23 11 -43 60 -135 79 -147 26 -17 36 2 48 94
6 47 15 93 21 104 13 24 -3 40 -24 24z"/>
<path d="M5803 6550 c-17 -10 -34 -29 -38 -42 -4 -13 -13 -26 -18 -30 -8 -5
-8 -13 0 -30 6 -13 17 -38 23 -56 7 -18 21 -37 31 -42 43 -24 119 1 119 38 0
12 -3 13 -8 5 -4 -7 -26 -15 -49 -19 -37 -6 -43 -4 -59 21 -18 27 -18 29 0 39
68 41 86 85 48 119 -16 15 -20 15 -49 -3z m37 -40 c0 -16 -26 -40 -44 -40 -12
0 -6 24 11 42 21 23 33 23 33 -2z"/>
<path d="M6022 6558 c-5 -7 -17 -29 -26 -48 l-15 -35 2 40 c1 30 -2 40 -13 40
-17 0 -28 -56 -29 -147 -1 -44 2 -58 13 -58 9 0 23 24 35 58 37 99 40 102 40
50 1 -59 35 -105 69 -94 29 9 30 40 2 33 -29 -8 -40 20 -40 102 0 54 -3 71
-14 71 -7 0 -18 -6 -24 -12z"/>
<path d="M5394 6541 c-29 -12 -74 -68 -74 -92 0 -33 29 -78 60 -94 39 -20 143
-20 160 0 15 18 13 18 -65 15 -49 -1 -66 3 -88 20 l-28 22 61 45 c47 34 61 49
58 66 -2 16 -11 23 -33 24 -16 1 -39 -2 -51 -6z m37 -40 c-14 -10 -38 -27 -55
-37 l-31 -18 16 24 c17 27 54 50 79 50 10 0 7 -7 -9 -19z"/>
<path d="M5689 5820 c0 -3 -1 -81 -3 -173 l-3 -168 30 -16 c27 -13 40 -14 101
-3 39 7 82 14 96 15 14 1 25 8 25 16 0 17 -33 17 -124 1 -97 -17 -96 -20 -96
157 0 106 -4 153 -12 162 -7 7 -13 11 -14 9z"/>
<path d="M6464 5675 c-9 -14 -20 -22 -26 -19 -5 3 -15 0 -23 -6 -12 -10 -14
-36 -9 -139 3 -69 9 -141 13 -159 11 -57 26 -41 29 31 3 58 5 68 19 63 33 -13
84 15 114 62 33 52 37 100 12 142 -31 53 -101 67 -129 25z m91 -30 c28 -27 32
-63 11 -103 -27 -52 -73 -79 -101 -58 -17 12 -17 17 -1 86 24 106 44 123 91
75z"/>
<path d="M6254 5643 c-35 -7 -46 -91 -19 -143 12 -23 22 -30 45 -30 39 0 65
39 65 97 0 58 -34 87 -91 76z m56 -54 c11 -17 2 -59 -17 -79 -13 -13 -16 -13
-29 4 -14 20 -18 53 -9 78 7 18 44 16 55 -3z"/>
<path d="M6024 5619 c-11 -13 -19 -35 -19 -59 0 -52 27 -80 76 -80 28 0 42 6
53 22 26 37 16 108 -18 130 -22 15 -73 8 -92 -13z m96 -60 c0 -32 -12 -49 -34
-49 -29 0 -45 12 -47 35 -4 43 1 54 29 57 29 4 52 -15 52 -43z"/>
<path d="M4027 4073 c-3 -5 -7 -218 -8 -475 -3 -362 -1 -470 8 -479 13 -13 57
-6 156 23 30 9 46 9 70 -1 18 -7 48 -17 67 -23 63 -19 640 -21 1070 -3 1170
47 2900 70 3430 46 129 -6 291 -13 360 -17 159 -7 166 -8 174 -39 8 -32 36
-33 36 -1 0 17 7 26 26 30 32 8 26 32 -8 28 -23 -3 -26 1 -32 45 -4 26 -11
233 -16 458 -4 226 -8 411 -9 413 -1 1 -7 2 -13 2 -10 0 -12 -71 -10 -327 1
-181 6 -384 11 -453 5 -69 7 -127 5 -129 -2 -3 -124 1 -272 8 -645 30 -1324
31 -2567 2 -482 -12 -545 -14 -1105 -36 -413 -17 -909 -19 -1017 -5 -40 5 -91
19 -114 30 -38 20 -44 20 -87 6 -79 -25 -126 -36 -131 -30 -12 11 -4 854 7
872 7 10 16 9 47 -4 25 -10 55 -14 81 -11 31 3 47 0 59 -12 23 -23 575 -27
3417 -19 1052 2 1388 6 1388 15 0 13 117 29 146 19 23 -7 97 17 102 34 5 13
-99 8 -288 -15 -74 -9 -226 -15 -425 -15 -170 0 -764 -3 -1320 -7 -1170 -6
-1679 -7 -2435 -1 -506 3 -547 5 -572 22 -21 14 -37 16 -68 11 -30 -5 -47 -3
-66 9 -13 9 -29 14 -34 11 -6 -4 -13 1 -16 9 -6 16 -39 22 -47 9z"/>
<path d="M4889 3729 c-19 -11 -42 -22 -51 -25 -10 -4 -18 -10 -18 -15 0 -5 -7
-9 -15 -9 -8 0 -15 -9 -15 -20 0 -12 -11 -43 -25 -70 -32 -62 -32 -116 -2
-161 44 -66 151 -102 236 -79 40 11 42 10 75 -25 18 -19 38 -35 43 -35 14 0
12 28 -3 34 -7 3 -20 19 -29 35 -15 29 -14 31 8 46 47 30 63 117 30 165 -47
71 -131 128 -193 131 -19 1 -17 3 10 8 21 4 35 12 35 21 0 22 -48 22 -86 -1z
m119 -86 c20 -11 52 -39 70 -62 42 -55 43 -99 3 -143 l-29 -32 -26 52 c-14 29
-30 52 -36 52 -20 0 -18 -20 7 -65 29 -52 25 -59 -33 -71 -82 -15 -194 58
-194 128 0 35 37 116 68 152 14 15 27 17 75 13 31 -3 74 -14 95 -24z"/>
<path d="M6320 3592 c-46 -24 -97 -101 -106 -157 -13 -91 56 -161 150 -151 80
9 216 96 216 138 0 13 -8 18 -25 18 -20 0 -24 -5 -22 -22 2 -18 -12 -30 -66
-62 -87 -50 -152 -56 -192 -15 -33 32 -38 82 -10 86 54 9 68 16 105 49 45 41
54 88 22 117 -23 21 -29 21 -72 -1z m60 -38 c0 -39 -63 -94 -109 -94 -20 0
-21 1 -7 29 31 59 116 107 116 65z"/>
<path d="M5632 3588 c-28 -9 -53 -33 -102 -94 -11 -15 -1 -91 16 -126 15 -30
67 -51 129 -52 52 -1 155 34 155 52 0 15 -4 15 -96 -12 -39 -11 -63 -12 -97
-4 -52 11 -64 22 -73 65 -6 29 -4 30 36 37 54 9 96 30 116 61 13 21 14 28 2
52 -15 31 -37 37 -86 21z m58 -46 c0 -10 -12 -25 -27 -33 -32 -18 -93 -32 -93
-21 1 18 42 58 72 68 38 13 48 10 48 -14z"/>
<path d="M5869 3588 c0 -1 -3 -44 -5 -95 -6 -105 6 -160 40 -192 29 -27 92
-37 125 -19 32 17 61 74 61 118 0 56 -34 165 -53 168 -22 4 -21 -10 3 -78 24
-67 25 -102 5 -140 -20 -38 -49 -53 -86 -45 -51 12 -64 45 -64 169 0 78 -4
110 -12 113 -7 3 -13 3 -14 1z"/>
<path d="M5257 3573 c-13 -12 -7 -143 7 -178 42 -100 146 -67 146 47 0 25 -5
59 -10 74 -7 18 -7 30 0 39 13 15 3 25 -27 25 -27 0 -30 -22 -8 -60 17 -29 19
-103 5 -131 -6 -11 -21 -19 -36 -19 -35 0 -54 50 -54 140 0 64 -6 81 -23 63z"/>
</g>
</svg>
