<?xml version="1.0" standalone="no"?>
<!DOCTYPE svg PUBLIC "-//W3C//DTD SVG 20010904//EN"
 "http://www.w3.org/TR/2001/REC-SVG-20010904/DTD/svg10.dtd">
<svg version="1.0" xmlns="http://www.w3.org/2000/svg"
 width="1618.000000pt" height="1214.000000pt" viewBox="0 0 1618.000000 1214.000000"
 preserveAspectRatio="xMidYMid meet">

<g transform="translate(0.000000,1214.000000) scale(0.100000,-0.100000)"
fill="#000000" stroke="none">
<path d="M13278 11590 c-34 -75 -38 -80 -68 -80 -97 0 -143 -101 -75 -164 l25
-23 -42 -92 c-31 -66 -39 -94 -31 -102 15 -15 33 -3 33 21 0 11 16 53 36 93
34 68 40 74 68 75 22 1 40 11 64 36 41 46 42 80 2 104 l-29 18 25 54 c14 30
29 57 34 60 13 8 17 72 5 76 -5 2 -27 -32 -47 -76z m-76 -133 c16 -12 15 -17
-5 -62 l-23 -48 -22 28 c-26 33 -27 43 -6 73 17 25 31 27 56 9z m77 -26 c26
-17 -19 -87 -52 -79 -12 2 -11 10 4 46 19 44 25 48 48 33z"/>
<path d="M14964 11588 c-9 -17 -20 -36 -25 -42 -46 -56 -51 -60 -55 -48 -9 21
-50 13 -79 -15 -54 -54 -69 -122 -36 -164 18 -24 18 -25 -20 -103 -35 -71 -41
-96 -21 -96 8 0 52 91 49 100 -1 3 8 16 21 30 12 13 22 27 22 31 0 4 19 10 43
13 65 11 99 44 105 104 3 40 1 53 -15 68 -20 19 -19 20 23 81 23 34 40 64 36
67 -13 14 -33 4 -48 -26z m-84 -135 c0 -17 -67 -123 -77 -123 -31 0 -22 82 13
121 13 14 64 16 64 2z m60 -39 c0 -42 -18 -71 -51 -83 -46 -16 -51 -14 -34 12
8 13 12 27 8 32 -5 4 -3 5 4 2 7 -4 18 10 29 37 14 34 22 42 31 34 7 -6 13
-21 13 -34z"/>
<path d="M15395 11562 c-33 -7 -75 -42 -75 -62 0 -10 11 -31 24 -47 l24 -27
-23 -36 c-13 -19 -26 -44 -29 -56 -16 -55 69 -79 111 -30 28 33 28 41 4 89
l-19 37 28 23 c15 12 42 30 59 39 17 9 31 23 31 31 0 22 -26 51 -39 43 -9 -6
-9 -11 -1 -21 13 -16 5 -35 -13 -35 -7 0 -29 -14 -50 -31 l-38 -31 -19 23
c-19 21 -19 23 -4 41 10 10 30 18 46 18 17 0 28 5 28 14 0 17 -18 24 -45 18z
m19 -209 c-3 -33 -13 -43 -40 -43 -30 0 -31 22 -3 61 16 23 23 26 33 17 7 -7
12 -22 10 -35z"/>
<path d="M15180 11548 c-2 -65 -13 -153 -24 -196 -15 -55 -12 -86 7 -79 15 5
34 99 43 205 6 72 5 82 -10 82 -9 0 -16 -6 -16 -12z"/>
<path d="M14035 11532 c-50 -10 -58 -44 -23 -100 17 -28 19 -38 10 -53 -16
-25 -15 -54 3 -89 17 -33 50 -54 71 -46 20 8 17 74 -5 116 l-19 34 44 43 c49
47 59 87 22 81 -14 -2 -23 -10 -22 -20 1 -9 -13 -31 -31 -48 l-33 -32 -16 30
c-22 42 -20 50 11 54 28 3 42 23 21 30 -7 2 -22 2 -33 0z m45 -236 c0 -18 -1
-18 -20 -1 -20 18 -26 46 -13 59 9 8 32 -33 33 -58z"/>
<path d="M14511 11506 c-25 -13 -53 -21 -63 -18 -22 5 -24 -16 -2 -33 13 -9
27 -5 74 19 32 17 61 28 65 25 3 -4 -2 -28 -12 -55 -15 -39 -29 -56 -71 -84
-55 -36 -78 -63 -67 -80 10 -16 21 -12 73 29 52 41 62 42 62 6 0 -37 37 -75
73 -75 39 0 66 15 52 29 -6 6 -24 7 -48 2 -20 -5 -37 -8 -38 -7 0 0 -3 19 -5
40 -3 21 -9 47 -14 56 -6 12 -3 34 10 69 11 28 20 62 20 76 0 22 -4 25 -32 25
-18 -1 -53 -11 -77 -24z"/>
<path d="M13443 11458 c-12 -81 -6 -178 12 -178 10 0 14 26 18 98 2 53 8 107
12 120 6 18 4 22 -12 22 -17 0 -22 -10 -30 -62z"/>
<path d="M13817 11506 c-18 -14 -23 -36 -7 -36 6 0 8 -24 5 -57 -10 -139 -10
-166 1 -170 6 -2 14 3 17 11 11 27 20 253 11 259 -5 3 -17 0 -27 -7z"/>
<path d="M2650 11397 c-57 -16 -83 -34 -130 -91 -100 -121 -121 -320 -44 -423
68 -91 259 -119 340 -49 34 29 24 55 -11 29 -12 -10 -21 -20 -20 -23 2 -3 -4
-6 -13 -7 -9 -1 -35 -5 -58 -8 -64 -11 -147 18 -201 68 -43 41 -44 44 -52 119
-6 66 -4 87 14 140 27 78 42 106 80 149 44 49 56 56 98 64 35 7 37 6 37 -19 0
-43 23 -116 37 -116 34 0 42 88 14 140 -21 41 -30 43 -91 27z"/>
<path d="M14136 11303 c-8 -20 1 -30 37 -38 33 -9 36 6 7 35 -24 24 -36 25
-44 3z"/>
<path d="M13550 11289 c0 -24 23 -21 28 4 2 10 -3 17 -12 17 -10 0 -16 -9 -16
-21z"/>
<path d="M4735 11232 c-17 -4 -31 -15 -33 -25 -3 -16 1 -17 35 -10 21 4 74 8
118 8 95 0 127 -17 171 -92 54 -93 29 -183 -72 -256 -34 -25 -58 -34 -92 -36
-26 -1 -50 -8 -54 -14 -6 -9 -10 -9 -15 -1 -5 6 -21 14 -37 18 -47 12 -93 65
-101 117 -14 91 43 171 148 210 34 13 57 28 57 36 0 11 -7 13 -27 8 -55 -13
-134 -57 -151 -83 -9 -15 -22 -33 -29 -39 -21 -23 -35 -85 -29 -129 8 -65 31
-100 81 -129 63 -37 161 -38 232 -2 57 29 118 93 140 145 30 71 -11 181 -91
246 -36 29 -43 31 -129 33 -51 1 -105 -2 -122 -5z"/>
<path d="M5974 11138 c-8 -12 24 -40 37 -32 5 3 9 14 9 25 0 21 -34 27 -46 7z"/>
<path d="M5255 11078 c-22 -20 -27 -35 -34 -103 -15 -137 -28 -144 -61 -35
-13 43 -26 70 -35 70 -19 0 -29 -18 -18 -33 5 -7 22 -44 37 -84 15 -39 33 -74
41 -77 29 -11 60 60 69 159 7 75 20 95 63 95 14 0 23 6 23 15 0 23 -55 18 -85
-7z"/>
<path d="M6610 11090 c0 -5 9 -14 19 -20 20 -10 41 -83 41 -140 0 -23 -7 -33
-31 -45 -17 -9 -42 -15 -57 -13 -24 3 -27 7 -27 43 0 22 -4 40 -10 40 -5 0
-28 -12 -50 -27 -22 -14 -51 -29 -64 -33 -22 -7 -23 -5 -18 31 3 22 7 48 9 58
1 10 -3 21 -9 23 -19 7 -34 -44 -31 -96 2 -38 7 -47 24 -49 18 -3 59 11 107
36 4 2 7 -3 7 -11 0 -46 75 -60 140 -27 36 18 40 24 40 59 0 60 -19 143 -37
163 -17 19 -53 25 -53 8z"/>
<path d="M3399 11036 c-13 -6 -26 -20 -28 -31 -2 -11 -11 -25 -21 -32 -16 -12
-16 -16 8 -85 30 -85 29 -85 42 -72 7 7 7 33 1 75 -5 36 -7 77 -4 92 5 23 10
27 40 27 22 0 33 4 31 12 -7 19 -44 27 -69 14z"/>
<path d="M5346 11008 c-33 -44 -36 -113 -6 -151 22 -28 78 -44 107 -32 10 4
27 8 37 9 11 1 21 6 23 13 3 8 -16 11 -62 10 -55 -2 -69 1 -81 17 -26 37 -18
56 24 56 97 0 110 87 15 106 -26 5 -34 1 -57 -28z m80 -13 c16 -13 17 -16 4
-25 -16 -10 -70 -14 -70 -4 0 15 22 44 33 44 7 0 22 -7 33 -15z"/>
<path d="M5587 11028 c-21 -6 -45 -21 -53 -34 -14 -21 -14 -29 0 -79 11 -34
22 -55 31 -55 18 0 18 3 1 61 -19 62 -10 74 59 76 30 0 55 4 56 7 3 28 -39 39
-94 24z"/>
<path d="M6192 11027 c-13 -7 -32 -28 -42 -45 -11 -18 -27 -32 -35 -32 -17 0
-20 -16 -5 -25 6 -3 10 -19 10 -35 0 -41 34 -70 82 -70 46 0 127 19 146 33 21
17 -2 31 -28 17 -31 -17 -125 -23 -150 -10 -28 15 -26 40 4 40 26 0 83 36 100
63 8 13 7 24 -4 45 -18 31 -45 38 -78 19z m58 -48 c0 -11 -60 -49 -77 -49 -21
0 -15 16 17 50 25 27 33 30 45 20 8 -7 15 -16 15 -21z"/>
<path d="M3568 11019 c-27 -15 -22 -55 9 -76 51 -35 103 -91 103 -112 0 -17
-6 -21 -30 -21 -23 0 -43 11 -77 45 -41 41 -74 57 -73 38 1 -19 98 -104 126
-112 67 -19 103 33 69 99 -9 17 -37 45 -63 61 -26 16 -47 35 -47 42 0 16 53
22 70 7 10 -8 15 -8 21 1 18 29 -68 52 -108 28z"/>
<path d="M3790 11003 c-61 -54 -45 -154 31 -195 39 -21 81 -23 130 -7 43 15
62 32 57 54 -3 15 -5 15 -26 -4 -29 -24 -97 -36 -132 -23 -32 13 -57 40 -65
74 -7 26 -6 27 29 21 45 -7 66 9 66 51 0 61 -40 73 -90 29z m60 -22 c0 -25
-15 -34 -42 -25 l-22 7 23 18 c30 24 41 24 41 0z"/>
<path d="M5877 11013 c-2 -5 -10 -43 -17 -86 -7 -43 -16 -80 -20 -82 -4 -3
-18 16 -31 40 -13 25 -28 45 -32 45 -5 0 -5 5 -2 10 4 6 -1 22 -10 36 -13 20
-19 23 -31 13 -17 -14 -18 -39 -1 -39 6 0 24 -26 39 -58 40 -82 55 -99 76 -86
18 11 65 178 57 202 -5 13 -21 16 -28 5z"/>
<path d="M2918 10993 c-64 -74 -44 -163 37 -163 87 0 142 77 99 138 -10 15
-25 22 -49 22 -19 0 -37 5 -40 10 -9 15 -30 12 -47 -7z m110 -45 c19 -16 15
-36 -13 -63 -39 -40 -105 -29 -105 17 0 9 5 27 11 40 9 20 16 23 52 20 23 -3
48 -9 55 -14z"/>
<path d="M3210 11003 c0 -5 6 -28 14 -53 14 -48 7 -99 -18 -119 -10 -8 -19 -7
-38 8 -21 17 -33 43 -54 119 -2 6 -10 12 -18 12 -12 0 -14 -7 -9 -32 14 -73
50 -125 96 -141 24 -9 77 42 78 75 3 68 -15 138 -37 138 -8 0 -14 -3 -14 -7z"/>
<path d="M5984 10956 c-9 -23 1 -129 12 -133 12 -4 25 97 16 129 -5 21 -20 24
-28 4z"/>
<path d="M10137 10474 c-3 -4 -1 -16 5 -27 9 -17 3 -36 -35 -109 -27 -54 -41
-91 -34 -95 14 -8 33 19 74 106 30 66 33 78 22 103 -11 28 -20 34 -32 22z"/>
<path d="M8255 10420 c-77 -16 -209 -35 -293 -42 -127 -10 -152 -15 -150 -27
4 -17 13 -17 203 0 61 5 137 16 170 24 110 25 243 45 259 39 9 -3 16 -12 16
-20 0 -7 9 -18 19 -23 16 -9 18 -16 10 -48 -6 -23 -6 -130 -2 -263 7 -182 11
-225 22 -225 11 0 13 28 10 160 -7 286 -5 339 14 368 22 34 22 37 -8 37 -13 0
-35 11 -49 25 -31 31 -45 31 -221 -5z"/>
<path d="M2035 10363 c-59 -12 -85 -25 -85 -44 0 -23 -1 -23 41 -2 29 15 68
18 279 18 135 1 252 -2 261 -7 30 -14 41 -117 27 -260 -9 -98 -9 -139 0 -178
19 -81 21 -78 -69 -79 -44 -1 -101 -6 -127 -12 -26 -5 -104 -9 -173 -8 -125 2
-153 -3 -146 -24 4 -14 237 -12 333 4 41 6 103 9 139 7 86 -7 93 4 76 113 -10
60 -10 100 -1 187 12 112 1 252 -21 276 -9 10 -492 17 -534 9z"/>
<path d="M6111 10346 c-52 -29 -66 -108 -32 -183 11 -23 44 -68 74 -101 31
-33 63 -75 73 -93 16 -32 16 -33 -6 -51 -27 -22 -45 -22 -130 0 -42 11 -65 22
-66 32 -1 8 -2 19 -3 24 -2 16 -31 -17 -31 -36 0 -24 46 -44 139 -60 80 -14
114 -4 133 36 16 36 -5 78 -75 154 -95 103 -122 188 -72 237 37 38 53 32 60
-22 10 -72 12 -78 30 -63 22 18 19 82 -6 114 -22 28 -51 33 -88 12z"/>
<path d="M11616 10304 c-3 -26 -6 -73 -6 -105 0 -33 -1 -59 -2 -59 -2 0 -26 6
-54 14 -52 14 -79 10 -66 -10 4 -6 33 -16 65 -23 l57 -12 0 -50 c0 -97 48
-157 105 -131 35 16 32 36 -4 29 -42 -9 -64 20 -69 93 l-4 60 50 0 c58 0 82 7
82 24 0 8 -19 11 -67 8 l-66 -5 6 107 c6 86 4 106 -7 106 -8 0 -16 -17 -20
-46z"/>
<path d="M9114 10303 c44 -192 44 -283 2 -283 -31 0 -69 37 -100 99 -15 28
-33 51 -41 51 -21 0 -19 -7 19 -75 38 -70 101 -121 135 -110 29 9 51 55 51
106 0 55 -29 210 -42 227 -18 21 -31 13 -24 -15z"/>
<path d="M9596 10322 c-3 -5 -1 -36 4 -68 16 -96 15 -104 -20 -104 -20 0 -40
-9 -57 -26 -21 -21 -25 -32 -20 -65 11 -81 68 -123 109 -81 30 29 38 107 24
236 -10 100 -23 135 -40 108z m14 -245 c0 -30 -6 -62 -14 -72 -12 -17 -16 -17
-31 -5 -46 38 -41 105 9 119 17 5 32 10 34 10 1 1 2 -23 2 -52z"/>
<path d="M7787 10313 c-2 -4 0 -42 4 -83 4 -41 8 -141 8 -221 1 -80 4 -168 8
-194 l6 -48 121 6 c90 5 141 13 201 32 132 43 162 47 194 30 16 -8 31 -21 34
-30 6 -15 37 -22 37 -7 0 4 -7 18 -16 30 -22 32 -72 55 -105 48 -18 -3 -29 -1
-29 5 0 7 -12 9 -34 5 -43 -8 -48 4 -40 95 6 58 4 70 -9 75 -14 5 -12 12 14
49 20 28 33 60 36 89 10 81 -36 100 -105 44 -22 -18 -48 -38 -58 -44 -14 -9
-16 -15 -8 -23 10 -11 15 -9 101 55 52 37 58 -29 11 -102 -32 -48 -175 -194
-190 -194 -4 0 -8 -7 -8 -15 0 -25 17 -18 86 35 36 27 74 55 85 61 20 10 20 9
14 -45 -5 -37 -3 -66 5 -86 7 -17 11 -33 8 -35 -13 -13 -136 -37 -219 -42
l-96 -6 -6 44 c-4 24 -7 107 -7 184 -2 179 -12 287 -27 292 -6 2 -13 0 -16 -4z"/>
<path d="M5850 10289 c-42 -13 -84 -19 -117 -16 -46 3 -53 1 -53 -15 0 -15 8
-18 49 -18 58 0 63 -9 80 -133 15 -106 14 -147 -3 -147 -24 0 -65 51 -71 89
-4 20 -11 47 -17 61 -6 14 -10 31 -9 38 2 15 -25 16 -35 1 -3 -6 1 -25 9 -42
9 -18 19 -49 22 -69 4 -23 19 -51 40 -73 27 -30 40 -36 66 -33 26 2 35 9 39
28 8 34 -15 207 -30 225 -9 11 -9 15 -1 15 8 0 8 6 -1 20 -7 10 -10 21 -8 24
3 2 36 12 73 22 68 19 91 37 52 41 -11 1 -49 -7 -85 -18z"/>
<path d="M4735 10259 c4 -22 10 -91 14 -152 7 -132 24 -146 29 -25 4 105 -14
218 -35 218 -12 0 -13 -8 -8 -41z"/>
<path d="M3317 10279 c-21 -12 -14 -27 18 -39 19 -7 24 -18 30 -74 10 -96 -20
-176 -67 -176 -11 0 -18 -7 -18 -19 0 -28 44 -15 79 24 34 39 47 107 36 188
-11 81 -40 117 -78 96z"/>
<path d="M1957 10233 c-11 -62 -21 -367 -13 -396 3 -15 12 -27 19 -27 9 0 12
49 14 197 2 170 4 199 18 209 22 16 15 48 -11 52 -18 3 -22 -4 -27 -35z"/>
<path d="M3833 10263 c-17 -6 -16 -33 1 -33 13 0 27 -26 40 -75 3 -11 2 -34
-3 -50 -18 -57 -38 -106 -42 -105 -2 1 -17 -2 -33 -6 -31 -7 -46 6 -46 41 0
28 14 46 36 47 26 2 27 38 1 38 -30 0 -67 -45 -67 -82 0 -71 58 -101 113 -58
68 53 90 166 48 248 -21 42 -25 45 -48 35z"/>
<path d="M12305 10251 c-3 -6 3 -23 14 -38 36 -50 52 -167 30 -216 -26 -57
-91 -59 -97 -4 -6 53 42 89 75 56 8 -8 13 -8 18 1 12 20 -16 40 -57 40 -36 0
-40 -3 -58 -42 -22 -50 -17 -92 13 -113 29 -21 64 -19 97 5 42 30 54 69 46
153 -9 99 -58 194 -81 158z"/>
<path d="M8923 10238 c-4 -7 -9 -58 -11 -113 -2 -58 -7 -102 -14 -106 -16 -10
-1 -40 17 -33 22 9 30 48 28 130 -2 67 -1 72 17 67 24 -7 26 14 4 45 -17 25
-29 28 -41 10z"/>
<path d="M2196 10208 c-9 -40 -14 -242 -7 -267 4 -14 11 -26 17 -28 6 -2 10
48 12 134 1 75 6 141 12 147 6 6 6 14 -1 23 -17 19 -28 16 -33 -9z"/>
<path d="M10950 10185 c-7 -8 -17 -57 -22 -108 -4 -50 -11 -98 -13 -105 -8
-22 -23 -4 -40 47 -18 55 -50 98 -60 81 -6 -9 26 -89 60 -150 7 -14 23 -26 34
-28 27 -4 37 22 45 113 12 121 15 136 34 133 10 -2 17 3 17 12 0 21 -39 24
-55 5z"/>
<path d="M12657 10194 c-13 -13 -7 -42 9 -48 38 -14 43 -4 16 32 -10 13 -21
20 -25 16z"/>
<path d="M9782 10175 c-40 -18 -72 -69 -72 -118 0 -50 13 -73 53 -92 50 -23
172 -20 172 4 0 11 -15 14 -67 12 -56 -2 -73 1 -98 19 -40 29 -40 52 0 44 70
-15 130 49 99 104 -19 34 -48 43 -87 27z m56 -37 c18 -18 14 -36 -13 -54 -16
-11 -34 -14 -54 -9 -30 6 -30 7 -16 35 20 39 59 52 83 28z"/>
<path d="M10145 10176 c-46 -20 -67 -45 -59 -69 4 -12 27 -52 52 -90 41 -62
44 -69 30 -84 -15 -14 -19 -14 -49 1 -39 19 -49 20 -49 3 0 -15 61 -47 90 -47
21 0 50 35 50 61 0 9 -20 46 -45 82 -25 37 -45 73 -45 82 0 9 19 24 45 36 46
20 59 39 28 39 -10 -1 -32 -7 -48 -14z"/>
<path d="M3117 10173 c-3 -4 -8 -39 -12 -78 -4 -38 -15 -82 -23 -97 -12 -21
-13 -31 -5 -39 9 -9 17 -3 32 22 12 19 21 44 21 56 0 50 12 55 31 14 10 -23
25 -41 34 -41 8 0 15 -7 15 -15 0 -8 9 -19 19 -25 52 -27 55 5 5 40 -27 19
-43 42 -63 94 -24 65 -43 88 -54 69z"/>
<path d="M3985 10138 c-42 -24 -60 -79 -39 -120 31 -61 120 -86 184 -53 17 9
30 22 30 30 0 19 -11 19 -36 0 -25 -19 -77 -19 -114 0 -29 15 -41 45 -19 45
21 0 69 42 69 60 0 21 -25 50 -43 50 -7 0 -21 -6 -32 -12z m20 -56 c-21 -18
-30 -21 -33 -12 -6 17 36 52 51 43 6 -4 -1 -16 -18 -31z"/>
<path d="M9295 10134 c-11 -12 -13 -20 -6 -27 8 -8 15 -7 23 1 22 22 32 12 11
-10 -63 -69 -52 -128 23 -128 66 0 91 55 57 124 -27 52 -77 71 -108 40z m89
-77 c13 -35 -7 -57 -50 -57 l-35 0 17 33 c33 65 52 71 68 24z"/>
<path d="M10656 10126 c-96 -58 -101 -162 -10 -196 38 -15 108 -12 130 5 22
17 20 17 -63 19 -49 1 -67 5 -84 22 l-21 21 66 42 c73 46 87 78 42 99 -19 8
-30 6 -60 -12z m34 -36 c-54 -43 -64 -49 -69 -44 -9 9 57 64 77 64 14 -1 12
-4 -8 -20z"/>
<path d="M11104 10131 c-36 -22 -65 -78 -72 -137 -4 -37 -1 -44 22 -59 25 -16
29 -16 82 1 31 11 55 24 55 29 -2 11 -20 11 -73 -3 -44 -11 -59 0 -56 41 2 20
14 32 55 52 65 33 81 51 66 73 -15 24 -43 25 -79 3z m51 -11 c3 -5 -8 -16 -24
-25 -27 -13 -30 -13 -25 0 4 8 13 15 21 15 8 0 11 5 8 10 -3 6 -2 10 4 10 5 0
12 -4 16 -10z"/>
<path d="M4998 10128 c-40 -10 -53 -38 -18 -38 11 0 20 4 20 9 0 6 29 8 65 6
65 -3 82 5 46 25 -24 12 -63 11 -113 -2z"/>
<path d="M12502 10127 c-7 -8 -13 -54 -15 -108 -1 -78 1 -94 13 -94 12 0 16
18 18 93 1 50 5 92 8 92 3 0 14 -5 24 -10 13 -7 21 -7 26 1 15 25 -55 50 -74
26z"/>
<path d="M3521 10088 c-12 -12 -24 -36 -27 -55 -15 -79 63 -112 127 -55 32 28
32 29 16 60 -8 17 -13 41 -10 52 5 18 1 20 -40 20 -35 0 -51 -6 -66 -22z m67
-34 c27 -19 29 -50 3 -64 -50 -26 -81 1 -62 54 12 30 27 33 59 10z"/>
<path d="M11247 10103 c-3 -5 -12 -32 -21 -62 -32 -109 -13 -130 51 -57 l38
43 0 -47 c0 -56 24 -90 64 -90 30 1 65 20 69 38 2 14 -24 16 -33 2 -3 -5 -17
-10 -31 -10 -29 0 -49 40 -40 81 3 14 0 32 -7 39 -9 10 -9 11 1 6 6 -4 12 -4
12 1 0 4 3 18 6 31 5 15 2 22 -8 22 -22 0 -51 -36 -42 -52 4 -7 3 -10 -1 -5
-5 4 -19 -3 -33 -15 l-24 -23 8 30 c4 17 11 38 15 47 5 9 9 19 9 22 0 9 -28 7
-33 -1z"/>
<path d="M12890 10068 c-11 -18 -20 -49 -20 -68 -1 -71 -44 -82 -55 -13 -11
70 -15 81 -28 86 -8 3 -20 1 -28 -4 -12 -8 -11 -12 4 -23 9 -7 17 -24 17 -38
0 -64 45 -117 86 -101 19 7 34 44 34 83 0 16 5 41 12 55 9 20 16 24 32 18 32
-10 69 -9 73 2 3 9 -69 35 -97 35 -6 0 -19 -15 -30 -32z"/>
<path d="M13108 10064 c-73 -39 -78 -168 -8 -192 32 -12 99 -1 129 20 32 23
14 28 -44 14 -27 -7 -57 -11 -67 -8 -23 6 -46 44 -30 50 22 7 93 63 99 78 6
16 -23 54 -41 54 -6 -1 -23 -7 -38 -16z m39 -36 c-2 -7 -19 -21 -36 -31 l-31
-18 11 24 c6 14 21 29 33 35 24 11 31 8 23 -10z"/>
<path d="M5144 10040 c-6 -6 -43 -13 -82 -18 -40 -4 -74 -11 -75 -17 -3 -13
76 -17 133 -7 36 6 46 12 48 30 4 23 -7 29 -24 12z"/>
<path d="M11890 10041 c-30 -8 -35 -38 -5 -33 11 2 48 6 83 9 43 4 62 9 62 19
0 10 -15 14 -57 13 -32 -1 -69 -4 -83 -8z"/>
<path d="M12638 10008 c-9 -26 7 -73 26 -76 14 -3 17 0 12 13 -3 9 -6 30 -6
46 0 29 -24 42 -32 17z"/>
<path d="M2362 9988 c-16 -16 -15 -35 3 -42 14 -5 35 20 35 43 0 15 -23 14
-38 -1z"/>
<path d="M8349 9978 c-6 -26 -7 -68 0 -68 5 0 19 9 32 20 24 20 24 20 5 35
-18 13 -35 19 -37 13z"/>
<path d="M6969 9878 c-1 -2 -3 -12 -4 -24 -1 -11 -21 -53 -44 -92 -39 -67 -44
-92 -20 -92 5 0 13 10 18 23 5 12 25 49 45 82 38 63 46 105 21 105 -8 0 -16
-1 -16 -2z"/>
<path d="M9962 9730 c-7 -39 -12 -83 -12 -98 0 -26 -3 -28 -30 -24 -42 6 -100
-7 -100 -22 0 -10 16 -12 68 -8 l69 4 9 -63 c6 -46 13 -64 24 -64 16 0 16 7 4
83 l-6 42 51 0 c68 0 60 25 -11 34 l-50 7 6 37 c18 107 19 142 4 142 -10 0
-18 -21 -26 -70z"/>
<path d="M9306 9779 c-3 -8 -12 -66 -21 -129 -8 -63 -17 -128 -20 -143 -8 -48
21 -45 75 8 l48 47 11 -35 c9 -27 21 -39 52 -51 47 -19 79 -21 79 -3 0 6 -21
19 -48 27 -47 15 -47 15 -50 63 -4 61 -18 61 -82 1 -28 -26 -50 -42 -50 -36 0
6 7 63 16 127 11 83 13 120 5 128 -7 7 -12 6 -15 -4z"/>
<path d="M10666 9758 c-3 -18 -8 -57 -12 -86 -5 -39 -10 -52 -22 -50 -26 5
-25 -21 2 -32 21 -8 26 -16 27 -47 1 -53 12 -84 31 -97 22 -13 35 -1 19 18 -7
8 -15 40 -18 70 -5 52 -4 56 16 56 11 0 21 6 21 13 0 8 3 8 9 -2 10 -15 41 -8
41 9 0 5 -23 10 -51 10 l-52 0 7 43 c19 116 19 127 3 127 -9 0 -17 -13 -21
-32z"/>
<path d="M9704 9767 c-7 -20 3 -37 22 -37 18 0 18 24 -1 40 -12 10 -16 9 -21
-3z"/>
<path d="M4723 9744 c-3 -8 1 -23 10 -32 15 -14 17 -14 23 1 8 21 -1 47 -16
47 -6 0 -13 -7 -17 -16z"/>
<path d="M11214 9679 c-50 -14 -68 -42 -72 -115 -4 -59 -3 -64 16 -64 19 0 21
5 19 61 -1 65 7 78 63 89 14 3 25 12 25 19 0 19 -13 21 -51 10z"/>
<path d="M8922 9645 c-44 -49 -58 -150 -22 -150 11 0 15 12 16 48 1 64 28 101
77 105 53 5 51 32 -2 32 -32 0 -44 -6 -69 -35z"/>
<path d="M8674 9650 c-12 -4 -35 -25 -53 -46 -24 -30 -31 -48 -31 -81 0 -74
42 -92 118 -48 36 20 46 22 62 13 24 -15 37 -4 20 17 -9 11 -10 26 -3 52 12
51 6 85 -15 82 -9 -1 -30 3 -45 9 -16 7 -29 12 -30 11 -1 0 -11 -4 -23 -9z
m58 -35 c8 -3 13 -20 12 -42 -1 -29 -8 -42 -31 -60 -17 -13 -44 -25 -59 -26
-26 -2 -29 1 -32 34 -5 60 58 114 110 94z"/>
<path d="M11399 9619 c-36 -39 -56 -101 -43 -136 25 -71 112 -86 211 -37 55
28 83 64 49 64 -9 0 -16 -4 -16 -8 0 -10 -61 -40 -105 -53 -37 -11 -91 5 -106
32 -12 23 -2 82 12 73 13 -7 76 14 94 33 19 18 19 28 -1 47 -25 25 -63 19 -95
-15z m71 -8 c0 -9 -24 -21 -42 -21 -6 0 -6 6 2 15 14 16 40 20 40 6z"/>
<path d="M10577 9624 c-8 -8 1 -24 14 -24 5 0 9 7 9 15 0 15 -12 20 -23 9z"/>
<path d="M9049 9581 c-44 -44 -50 -80 -19 -111 26 -26 52 -32 139 -28 48 2 76
7 79 16 3 9 -18 12 -80 12 -124 0 -156 28 -99 89 24 25 37 31 71 31 37 0 41 2
30 15 -7 8 -28 15 -47 15 -28 0 -44 -9 -74 -39z"/>
<path d="M10203 9609 c-67 -20 -97 -103 -48 -135 38 -25 108 -30 124 -10 13
15 11 17 -20 16 -56 -1 -68 2 -85 21 -10 11 -13 25 -9 39 8 27 69 54 91 42 13
-7 10 -13 -19 -31 -19 -11 -39 -21 -46 -21 -6 0 -11 -7 -11 -15 0 -8 5 -15 11
-15 21 0 77 31 100 56 20 21 21 26 8 39 -20 19 -58 25 -96 14z"/>
<path d="M10964 9598 c-4 -6 0 -16 9 -23 26 -19 31 -58 9 -85 -17 -21 -23 -23
-45 -13 -15 7 -31 27 -38 48 -14 36 -25 40 -42 13 -14 -22 61 -98 97 -98 54 0
87 64 67 131 -12 39 -41 53 -57 27z"/>
<path d="M10422 9583 c-19 -7 -42 -58 -42 -91 0 -45 31 -65 106 -70 54 -4 64
-2 64 12 0 12 -10 16 -44 16 -91 0 -122 36 -77 91 16 20 21 21 34 10 24 -20
42 -3 21 20 -17 19 -36 23 -62 12z"/>
<path d="M9635 9558 c-3 -13 3 -47 14 -76 11 -28 15 -50 10 -46 -5 3 -9 -4 -9
-15 0 -12 7 -21 15 -21 11 0 15 12 15 49 0 28 5 53 10 56 16 10 12 40 -8 58
-25 23 -41 21 -47 -5z"/>
<path d="M13313 8621 c3 -15 -7 -23 -49 -41 -30 -12 -63 -33 -74 -48 -36 -45
-10 -82 131 -188 131 -97 152 -167 59 -195 -34 -10 -50 -9 -102 5 -72 20 -120
50 -111 71 3 9 -1 15 -10 15 -26 0 -29 -31 -6 -56 46 -50 169 -83 237 -64 80
21 102 90 52 160 -29 40 -168 143 -182 134 -6 -4 -8 -3 -5 3 4 6 -5 21 -18 33
-41 39 -33 67 27 95 57 27 68 22 68 -28 0 -36 28 -34 49 4 16 29 8 79 -14 79
-7 0 -17 9 -20 20 -8 26 -39 27 -32 1z"/>
<path d="M9775 8611 c-3 -6 -1 -20 6 -33 11 -20 12 -21 25 -4 12 17 13 16 26
-6 8 -15 13 -60 12 -138 0 -94 -4 -124 -21 -162 -23 -51 -59 -80 -98 -80 -33
0 -51 16 -74 67 -10 23 -24 45 -29 49 -6 4 -34 -5 -61 -19 -28 -14 -53 -25
-56 -25 -15 0 0 43 46 136 43 86 49 105 40 123 -13 23 -41 27 -74 10 -35 -18
-127 -91 -127 -100 0 -14 38 -10 47 5 8 14 101 76 115 76 17 0 7 -32 -37 -117
-69 -134 -58 -196 27 -152 62 32 83 32 84 2 2 -32 49 -80 85 -88 55 -12 128
50 151 128 6 23 12 95 12 159 1 103 -1 120 -20 145 -21 29 -67 42 -79 24z"/>
<path d="M1760 8594 c0 -7 7 -14 15 -18 8 -3 131 -4 273 -3 240 2 261 1 299
-18 l41 -20 17 -110 c9 -60 25 -141 37 -180 17 -58 20 -88 15 -178 -2 -59 -6
-110 -8 -112 -2 -2 -134 -9 -292 -15 -246 -11 -291 -11 -303 1 -24 25 -35 117
-40 349 -3 167 -8 225 -17 225 -17 0 -21 -205 -6 -390 6 -82 11 -164 10 -182
-2 -51 -5 -51 394 -32 127 5 247 10 268 11 40 0 56 13 38 31 -7 7 -11 54 -11
121 0 77 -6 131 -19 180 -33 119 -55 285 -40 302 17 21 -4 42 -25 25 -12 -10
-21 -9 -48 6 -30 16 -62 18 -315 18 -206 0 -283 -3 -283 -11z"/>
<path d="M9080 8582 c-19 -15 -28 -17 -42 -9 -12 8 -68 6 -205 -7 -217 -21
-303 -24 -355 -13 -33 7 -38 6 -38 -11 0 -10 5 -23 10 -28 6 -6 15 -93 20
-195 6 -101 13 -214 16 -251 6 -61 5 -66 -12 -65 -30 3 -31 -41 -1 -52 13 -5
27 -18 31 -28 7 -16 9 -16 19 -2 10 14 53 17 289 23 192 5 278 4 283 -3 3 -6
9 -11 13 -11 9 0 9 607 -1 616 -4 4 -2 13 5 21 20 25 -6 36 -32 15z m-45 -42
c3 -5 14 -10 24 -10 26 0 31 -84 23 -340 l-7 -205 -25 -2 c-14 -1 -137 -3
-275 -5 l-250 -3 -2 30 c-2 17 -7 86 -13 155 -5 69 -11 177 -12 240 -3 110 -2
115 17 113 18 -2 162 8 375 27 128 11 138 11 145 0z"/>
<path d="M8782 8424 c-12 -8 -22 -20 -22 -25 0 -6 -25 -38 -55 -72 -72 -79
-70 -92 18 -92 l68 0 2 -70 c3 -74 21 -125 39 -107 7 7 6 22 -2 47 -7 20 -10
54 -8 76 2 21 0 39 -4 39 -5 0 -8 5 -8 10 0 6 9 10 19 10 26 0 37 18 17 26
-13 5 -16 23 -16 90 0 90 -6 98 -48 68z m10 -140 c-6 -11 -24 -17 -55 -18
l-45 -2 51 60 52 60 3 -42 c2 -23 -1 -49 -6 -58z"/>
<path d="M8920 8111 c0 -12 6 -21 16 -21 9 0 14 7 12 17 -5 25 -28 28 -28 4z"/>
<path d="M4858 8553 c-66 -70 -69 -102 -22 -208 44 -100 48 -94 -57 -97 -57
-2 -94 -7 -96 -14 -6 -17 24 -21 97 -14 97 10 100 8 100 -60 0 -68 -15 -119
-42 -143 -16 -13 -24 -15 -35 -6 -18 16 -30 2 -17 -19 17 -26 38 -25 71 2 36
30 53 83 53 164 0 55 2 61 23 64 27 4 24 23 -4 23 -16 0 -27 16 -51 75 -55
138 -54 163 6 219 23 22 29 23 50 12 35 -19 55 -3 25 20 -36 28 -61 23 -101
-18z"/>
<path d="M13588 8493 c-3 -37 -2 -98 1 -135 4 -38 3 -68 -1 -68 -4 0 -30 5
-58 11 -37 8 -55 8 -63 0 -13 -13 19 -26 85 -36 41 -6 47 -10 52 -37 3 -17 6
-51 6 -75 0 -41 1 -43 16 -28 13 12 15 30 12 76 -4 56 -3 60 16 57 18 -3 21
-9 19 -43 -2 -52 15 -105 34 -105 12 0 14 6 8 27 -8 33 -8 29 -6 76 1 30 6 39
26 47 14 5 25 14 25 20 0 16 -26 23 -47 12 -10 -5 -33 -7 -50 -5 -39 6 -44 23
-46 168 -2 117 -21 142 -29 38z"/>
<path d="M6436 8528 c-9 -34 -7 -128 2 -128 4 0 5 -30 1 -67 -5 -38 -8 -94 -8
-126 -1 -53 2 -61 33 -92 42 -44 74 -45 115 -4 17 17 32 34 32 37 16 84 10
142 -15 142 -8 0 -13 8 -12 17 0 9 -12 24 -27 32 -27 16 -29 15 -56 -15 l-28
-31 -7 105 c-5 70 -4 108 3 115 17 17 13 37 -8 37 -11 0 -21 -9 -25 -22z m147
-267 c20 -48 9 -96 -28 -131 -68 -64 -100 74 -39 168 20 30 46 16 67 -37z"/>
<path d="M3277 8513 c-12 -11 -8 -53 7 -76 19 -28 40 -206 31 -258 -8 -47 -22
-55 -68 -40 -29 10 -107 81 -107 98 0 15 -63 102 -77 107 -24 10 -30 -7 -38
-110 -4 -52 -11 -96 -16 -100 -14 -9 -10 -34 5 -34 23 0 30 19 41 115 l10 90
34 -55 c43 -71 88 -118 130 -136 108 -45 137 24 106 248 -20 144 -33 177 -58
151z"/>
<path d="M10339 8508 c-1 -1 -2 -37 -4 -78 -11 -274 -8 -330 19 -330 9 0 11
17 8 60 -3 49 -1 60 11 60 19 0 74 -68 82 -103 4 -15 13 -27 21 -27 31 0 9 63
-41 119 l-36 39 48 40 c26 23 62 52 78 66 22 18 27 28 19 36 -14 14 -74 -33
-74 -58 0 -12 -3 -13 -8 -5 -5 9 -22 0 -56 -29 l-48 -42 3 124 c3 92 1 124 -8
127 -7 3 -13 3 -14 1z"/>
<path d="M12087 8494 c-11 -11 16 -54 34 -54 29 0 34 21 8 41 -26 20 -33 22
-42 13z"/>
<path d="M12354 8479 c-3 -6 -1 -16 5 -22 6 -6 11 -28 11 -48 0 -35 -1 -37
-41 -42 -22 -3 -54 -1 -71 5 -21 7 -33 7 -41 -1 -19 -19 54 -42 109 -34 l47 6
-8 -79 c-10 -115 -10 -124 9 -124 10 0 15 25 21 100 l7 100 41 11 c23 6 51 12
62 13 21 1 30 39 20 84 -8 32 -39 30 -33 -3 7 -33 -9 -51 -54 -63 l-38 -10 0
33 c0 61 -27 105 -46 74z"/>
<path d="M2170 8455 c-43 -16 -110 -19 -110 -4 0 17 -44 6 -48 -13 -6 -30 92
-41 155 -17 28 10 28 10 -8 -28 -87 -93 -101 -128 -45 -118 42 8 71 -6 91 -45
21 -41 19 -67 -10 -95 -51 -52 -196 -19 -162 36 14 22 2 37 -20 23 -17 -10
-26 -54 -15 -71 14 -22 73 -43 119 -43 93 0 148 57 129 133 -9 39 -53 85 -87
92 l-31 7 39 42 c99 103 99 138 3 101z"/>
<path d="M3756 8442 c-3 -5 2 -35 11 -68 23 -85 23 -208 0 -231 -20 -21 -45
-10 -64 27 -18 36 -2 66 36 62 39 -3 43 23 6 40 -23 10 -29 8 -50 -13 -37 -36
-41 -77 -13 -119 21 -30 29 -35 63 -35 36 0 42 4 57 35 26 52 22 144 -12 272
-10 36 -23 48 -34 30z"/>
<path d="M10660 8365 c0 -16 6 -25 15 -25 9 0 15 9 15 25 0 16 -6 25 -15 25
-9 0 -15 -9 -15 -25z"/>
<path d="M6000 8368 c0 -7 7 -26 16 -43 36 -67 43 -99 29 -133 -17 -38 -57
-52 -84 -28 -10 9 -20 14 -23 11 -2 -3 -3 9 0 25 6 42 -19 49 -67 17 l-39 -26
24 77 c13 42 24 80 24 85 0 16 -35 6 -84 -24 -89 -54 -123 -99 -76 -99 11 0
20 6 20 13 0 6 17 23 38 37 20 13 42 28 49 33 6 4 0 -30 -14 -78 -33 -107 -25
-120 42 -69 46 35 49 36 61 19 8 -10 14 -25 14 -32 0 -16 32 -33 64 -33 36 0
83 44 90 85 5 27 0 49 -26 105 -30 62 -58 91 -58 58z"/>
<path d="M12506 8345 c-9 -9 -16 -24 -17 -33 0 -9 -4 -38 -8 -65 -9 -52 4 -82
29 -72 16 6 54 57 49 65 -2 3 8 18 21 33 l24 28 15 -28 c8 -15 25 -57 37 -93
13 -36 27 -63 31 -60 16 10 4 67 -30 142 -30 66 -38 76 -56 71 -12 -3 -37 -32
-57 -64 -19 -33 -37 -59 -38 -59 -2 0 3 32 11 72 7 39 11 73 9 75 -2 2 -11 -3
-20 -12z"/>
<path d="M14663 8340 c-46 -27 -43 -57 10 -116 24 -27 47 -58 50 -68 7 -17 3
-18 -43 -13 -28 3 -64 14 -80 24 -37 21 -49 12 -21 -18 25 -27 135 -53 163
-38 34 18 18 68 -43 134 -35 37 -39 47 -29 60 7 8 23 15 37 15 18 0 24 5 21
17 -5 25 -28 26 -65 3z"/>
<path d="M11775 8314 c-54 -37 -62 -48 -45 -59 6 -4 26 5 45 20 42 31 44 21
10 -45 -26 -52 -32 -94 -14 -105 6 -4 32 6 58 22 l47 30 17 -24 c25 -32 69
-31 96 3 26 32 26 49 1 94 -11 19 -22 43 -26 53 -3 9 -12 17 -20 17 -23 0 -27
-21 -7 -43 26 -30 44 -74 37 -92 -9 -23 -47 -30 -59 -10 -31 51 -29 51 -75 17
-24 -17 -45 -30 -47 -28 -2 1 10 32 27 67 55 118 41 143 -45 83z"/>
<path d="M6167 8310 c-66 -52 -63 -173 4 -201 52 -21 164 4 198 44 16 21 -3
31 -22 13 -8 -8 -44 -20 -80 -27 -58 -11 -69 -10 -91 5 -34 22 -35 54 -2 54
37 0 90 35 94 61 4 26 -33 71 -58 71 -10 0 -29 -9 -43 -20z m61 -22 c19 -19
14 -34 -13 -46 -54 -25 -75 -2 -35 38 23 23 31 25 48 8z"/>
<path d="M3902 8280 c-76 -46 -72 -152 7 -183 59 -24 166 0 147 32 -5 8 -13 8
-26 1 -32 -17 -115 -12 -133 8 -29 31 -21 49 23 55 23 3 47 11 55 17 22 18 18
57 -7 74 -28 20 -26 20 -66 -4z m56 -32 c-4 -11 -58 -31 -65 -24 -2 2 3 11 12
20 19 19 59 22 53 4z"/>
<path d="M10116 8272 c-8 -15 -17 -53 -21 -85 -7 -55 -7 -57 16 -57 28 0 43 9
47 29 2 9 -4 12 -16 9 -16 -5 -18 -1 -12 36 9 58 16 66 50 59 34 -6 41 10 11
27 -34 18 -60 12 -75 -18z"/>
<path d="M12088 8293 c-2 -4 -2 -38 0 -75 3 -51 7 -68 18 -68 12 0 14 14 12
72 -2 43 -8 73 -15 75 -6 2 -13 0 -15 -4z"/>
<path d="M9905 8235 c-24 -48 -26 -59 -16 -82 8 -18 17 -24 31 -20 11 3 20 2
20 -3 0 -4 11 -5 25 -2 14 2 22 8 19 13 -3 5 1 6 9 3 16 -6 60 43 54 60 -7 20
-37 19 -37 -2 0 -28 -84 -63 -93 -38 -6 14 16 71 30 79 5 3 21 0 35 -7 42 -22
54 -3 18 28 -47 39 -63 34 -95 -29z"/>
<path d="M10779 8273 c-42 -48 -72 -149 -48 -163 19 -13 29 -3 29 30 0 16 5
32 11 35 6 4 8 13 5 20 -2 7 1 21 8 30 12 16 15 14 42 -21 16 -21 33 -42 37
-45 5 -3 8 -9 8 -13 -3 -20 1 -26 14 -26 32 0 5 60 -62 138 -27 33 -29 33 -44
15z"/>
<path d="M13833 8268 c-46 -51 -57 -114 -27 -157 19 -26 88 -61 113 -56 9 2
22 4 29 4 6 1 12 7 12 15 0 9 -11 14 -34 14 -39 0 -91 25 -100 47 -3 9 -6 26
-6 38 0 26 35 87 50 87 17 0 11 -36 -9 -54 -11 -10 -17 -24 -14 -32 7 -18 33
-18 33 0 0 7 7 19 15 26 15 13 20 47 9 74 -9 23 -47 20 -71 -6z"/>
<path d="M10978 8264 c-48 -25 -64 -87 -32 -118 20 -21 96 -21 136 0 25 13 32
14 39 2 14 -20 41 -118 43 -151 1 -25 -4 -31 -48 -47 -26 -11 -57 -27 -67 -36
-38 -34 -17 -99 41 -129 43 -22 65 -18 94 16 21 25 26 41 26 86 l0 56 45 -5
c46 -6 69 7 44 23 -8 5 -32 9 -54 9 l-41 0 -17 75 c-23 95 -71 205 -91 205
-12 0 -14 -7 -10 -29 5 -24 1 -32 -19 -46 -36 -23 -101 -17 -105 11 -4 30 32
57 73 56 38 -2 46 12 16 28 -26 13 -40 12 -73 -6z m187 -440 c-8 -13 -22 -24
-29 -24 -23 0 -76 50 -76 71 0 19 41 46 90 59 24 6 25 4 28 -38 2 -28 -3 -53
-13 -68z"/>
<path d="M14396 8264 c-20 -19 -11 -37 15 -29 17 6 19 1 19 -34 0 -47 37 -98
63 -88 21 8 22 27 2 27 -19 0 -35 31 -35 70 0 61 -31 87 -64 54z"/>
<path d="M3440 8264 c-38 -11 -54 -106 -21 -124 49 -26 131 1 131 44 0 7 -9
25 -20 39 -11 14 -20 30 -20 36 0 11 -39 13 -70 5z m68 -78 c-2 -17 -10 -21
-38 -21 -28 0 -36 4 -38 22 -2 13 5 27 19 37 21 14 24 14 41 -1 11 -9 18 -26
16 -37z"/>
<path d="M5152 8248 c-7 -7 -12 -22 -12 -35 0 -29 26 -93 38 -93 18 0 20 13 6
45 -21 52 -19 68 10 61 13 -3 31 -9 40 -12 11 -4 16 -1 16 10 0 29 -75 47 -98
24z"/>
<path d="M14277 8243 c-11 -11 -17 -13 -17 -5 0 7 -6 12 -14 12 -9 0 -15 -18
-19 -52 -4 -28 -11 -56 -17 -62 -15 -15 -12 -36 5 -36 8 0 31 29 52 65 36 62
52 69 53 23 0 -10 6 -18 13 -18 9 0 8 -3 -2 -9 -15 -10 -5 -54 11 -49 15 5 53
107 44 116 -4 4 -14 -1 -21 -11 -12 -16 -14 -15 -23 13 -12 34 -38 39 -65 13z"/>
<path d="M4981 8224 c-23 -30 -28 -73 -9 -92 17 -17 84 -15 125 4 48 24 42 54
-14 72 -23 8 -41 19 -40 25 5 25 -41 18 -62 -9z m75 -38 c39 -8 44 -21 12 -30
-42 -11 -78 -7 -78 9 0 23 24 59 28 41 2 -8 19 -17 38 -20z"/>
<path d="M10657 8244 c-19 -19 -2 -144 20 -144 11 0 12 13 7 68 -6 67 -14 88
-27 76z"/>
<path d="M14030 8230 c-41 -41 -38 -115 6 -126 14 -4 37 -1 51 5 22 10 29 9
48 -9 25 -24 45 -26 45 -5 0 8 -4 15 -10 15 -12 0 -40 53 -40 78 0 23 -40 62
-63 62 -9 0 -26 -9 -37 -20z m62 -65 c-4 -25 -33 -41 -52 -30 -15 9 -12 37 6
63 15 21 17 22 34 7 11 -10 15 -25 12 -40z"/>
<path d="M2303 8095 c-3 -9 -3 -18 0 -22 10 -10 37 6 37 22 0 20 -29 20 -37 0z"/>
<path d="M9319 6828 c-9 -264 -4 -604 9 -625 18 -33 36 -29 27 5 -15 58 -20
433 -7 536 9 68 10 106 3 117 -5 9 -7 26 -4 38 4 15 1 21 -10 21 -13 0 -16
-17 -18 -92z"/>
<path d="M8683 6899 c-20 -6 -33 -16 -33 -26 0 -13 6 -14 33 -7 34 9 504 13
571 4 42 -5 60 11 29 26 -26 12 -562 15 -600 3z"/>
<path d="M1965 6878 c-67 -9 -149 -42 -153 -62 -2 -9 1 -16 7 -16 11 0 51 20
61 30 11 11 54 13 307 14 254 1 262 0 267 -19 3 -11 1 -85 -5 -165 -6 -80 -9
-214 -5 -297 3 -87 2 -153 -3 -153 -5 0 -33 11 -63 25 -71 33 -151 33 -258 -1
-116 -36 -223 -55 -232 -41 -14 22 -20 156 -16 370 3 189 1 217 -12 215 -13
-3 -15 -43 -16 -282 l-1 -279 -24 -18 c-37 -28 -12 -43 69 -43 46 0 108 12
202 38 162 46 212 45 308 -2 l63 -31 10 27 c6 16 7 75 3 153 -4 75 -2 207 6
324 11 167 11 198 -1 206 -8 5 -79 6 -159 3 -80 -3 -181 -2 -225 3 -44 5 -102
5 -130 1z"/>
<path d="M11472 6827 c-18 -12 -46 -42 -63 -66 -34 -51 -38 -105 -13 -191 8
-30 18 -66 21 -79 l6 -24 -82 6 c-64 4 -81 2 -81 -8 0 -16 40 -25 120 -28 l55
-2 3 -47 c4 -62 -19 -107 -58 -115 -31 -6 -40 -27 -16 -36 21 -8 58 15 84 53
20 30 23 44 20 97 l-4 62 50 3 c74 4 73 28 -2 28 l-59 0 -22 73 c-37 125 -24
183 54 243 31 23 40 26 56 16 26 -17 31 -15 27 11 -4 31 -53 33 -96 4z"/>
<path d="M2990 6814 c-52 -22 -118 -91 -152 -159 -41 -79 -50 -184 -19 -231
48 -77 144 -114 293 -114 68 0 88 3 88 14 0 10 -27 14 -115 18 -132 6 -193 29
-232 88 -82 120 66 370 218 370 27 0 30 -2 19 -15 -10 -12 -10 -24 -1 -55 15
-50 30 -59 53 -30 26 32 23 76 -7 105 -29 30 -89 33 -145 9z m145 -58 c12 -12
12 -15 1 -19 -8 -3 -16 2 -19 14 -6 23 -1 24 18 5z"/>
<path d="M8670 6627 c-2 -105 -4 -245 -5 -309 0 -107 -2 -117 -17 -112 -13 4
-18 0 -18 -15 0 -14 6 -21 19 -21 10 0 24 -7 31 -16 10 -11 23 -14 51 -9 21 4
71 2 111 -4 40 -6 151 -13 247 -17 142 -5 172 -3 169 8 -5 14 -95 25 -242 27
-78 1 -230 15 -293 27 -16 3 -24 14 -29 39 -8 46 14 526 26 539 8 11 -21 56
-37 56 -4 0 -10 -87 -13 -193z"/>
<path d="M6328 6742 c-16 -26 -43 -65 -62 -86 l-34 -40 -15 36 c-8 20 -22 40
-29 44 -8 5 -18 17 -21 27 -11 31 -32 13 -39 -34 -26 -160 -38 -230 -48 -274
-16 -70 -16 -84 -5 -87 14 -3 33 39 38 87 3 22 8 51 11 65 3 14 8 43 10 65 8
75 19 125 26 125 14 0 28 -24 40 -68 7 -28 16 -42 25 -40 7 2 42 42 77 89 l64
86 0 -181 -1 -181 25 0 c16 0 26 6 28 19 3 15 0 17 -14 12 -16 -6 -17 4 -11
171 5 175 1 213 -26 213 -7 0 -24 -21 -39 -48z"/>
<path d="M9890 6772 c0 -4 16 -57 36 -117 19 -61 38 -136 41 -167 5 -54 4 -58
-19 -69 -52 -23 -109 29 -149 135 -33 89 -69 87 -69 -3 0 -25 -7 -73 -16 -108
-15 -61 -13 -107 5 -87 9 10 39 130 44 179 3 29 3 28 15 -13 36 -123 175 -185
216 -97 16 32 15 39 -8 132 -14 54 -32 117 -40 140 -11 31 -12 43 -3 47 8 3 6
10 -7 20 -21 17 -46 21 -46 8z"/>
<path d="M7249 6753 c-4 -79 8 -425 16 -445 4 -10 14 -18 22 -18 12 0 13 8 7
43 -7 39 -9 102 -13 340 -1 79 -4 97 -16 97 -8 0 -15 -8 -16 -17z"/>
<path d="M12824 6719 c-3 -6 -3 -53 1 -105 7 -89 6 -94 -13 -94 -11 0 -22 -7
-26 -15 -4 -11 2 -15 24 -15 19 0 30 -6 34 -17 5 -19 19 -109 20 -130 1 -7 6
-14 11 -15 14 -4 18 56 6 110 -5 26 -8 48 -6 50 2 2 31 7 65 11 58 7 92 23 73
34 -5 3 -38 2 -73 -3 -36 -4 -68 -6 -71 -4 -12 7 -21 165 -10 178 6 7 8 16 4
19 -10 11 -31 8 -39 -4z"/>
<path d="M6774 6705 c-4 -8 4 -36 16 -62 33 -70 54 -182 41 -215 -20 -52 -82
-73 -97 -33 -10 25 15 73 42 79 27 7 32 24 9 32 -44 17 -101 -79 -77 -131 27
-58 123 -34 151 38 12 33 12 49 1 105 -7 37 -21 88 -31 114 -13 34 -15 49 -7
54 7 5 5 11 -7 21 -24 17 -34 17 -41 -2z"/>
<path d="M13793 6698 c-4 -7 -9 -98 -11 -201 -3 -142 0 -192 9 -203 12 -14 14
-14 26 2 15 21 17 54 3 54 -5 0 -10 9 -10 20 0 45 135 32 167 -16 8 -13 16
-42 18 -66 3 -42 17 -59 30 -38 13 21 -6 100 -31 129 -14 16 -43 34 -69 42
-25 7 -44 16 -43 20 2 3 40 38 86 78 45 40 82 79 82 87 0 18 -29 18 -36 1 -7
-18 -180 -167 -194 -167 -11 0 -10 194 1 244 5 22 -16 33 -28 14z"/>
<path d="M2140 6691 c-70 -6 -75 -8 -74 -28 0 -13 1 -46 2 -74 l2 -51 35 6
c83 16 180 -99 113 -135 -34 -18 -158 -5 -178 20 -11 14 -20 17 -37 10 -36
-13 -17 -35 46 -53 128 -36 221 -12 221 57 -1 18 -7 43 -14 56 -18 33 -94 81
-128 81 -26 0 -28 3 -28 39 l0 40 55 0 c30 0 64 2 75 6 25 8 27 36 3 33 -10
-1 -52 -4 -93 -7z"/>
<path d="M9049 6680 c-95 -37 -165 -131 -176 -234 -4 -42 -1 -56 17 -78 23
-30 51 -35 97 -17 65 24 104 94 71 127 -18 18 -79 14 -121 -7 l-38 -19 7 21
c12 40 52 112 70 128 32 28 93 59 118 59 13 0 29 6 35 14 18 22 -29 26 -80 6z
m-14 -244 c0 -47 -109 -82 -125 -40 -7 18 -2 24 33 43 50 26 92 24 92 -3z"/>
<path d="M10400 6670 c0 -5 9 -19 19 -29 21 -21 51 -109 51 -148 0 -53 -73
-152 -104 -140 -8 3 -17 20 -21 37 -10 43 17 82 53 78 19 -2 27 2 27 12 0 10
-12 16 -32 18 -61 6 -97 -60 -72 -132 12 -35 19 -41 46 -44 24 -2 38 4 65 31
75 74 85 151 36 269 -18 46 -28 58 -45 58 -13 0 -23 -4 -23 -10z"/>
<path d="M12410 6670 c0 -5 7 -58 16 -117 17 -116 15 -216 -5 -236 -19 -18
-74 47 -100 119 -11 32 -27 70 -34 84 -12 23 -13 46 -5 104 5 31 -21 30 -33
-1 -6 -15 -12 -80 -13 -143 -1 -63 -6 -132 -10 -152 -5 -22 -5 -38 0 -38 25 1
34 22 40 98 l7 82 23 -56 c23 -57 62 -106 98 -126 15 -8 22 -7 33 8 7 10 13
14 13 8 1 -5 7 2 15 16 8 14 14 48 15 77 0 77 -21 256 -33 271 -11 14 -27 16
-27 2z"/>
<path d="M4370 6582 c-15 -12 -24 -33 -27 -65 -4 -31 -10 -47 -19 -47 -16 0
-17 -12 -5 -60 5 -19 12 -47 15 -62 4 -16 13 -28 21 -28 12 0 15 18 15 98 0
116 6 142 31 142 13 0 17 5 12 17 -5 12 -3 14 7 8 9 -5 11 -4 6 3 -10 17 -30
15 -56 -6z"/>
<path d="M4444 6582 c3 -6 0 -13 -6 -16 -7 -3 -3 -4 10 -3 26 2 31 20 6 25 -9
2 -14 -1 -10 -6z"/>
<path d="M14163 6574 c-7 -19 11 -39 26 -30 16 10 13 33 -4 40 -9 3 -18 -1
-22 -10z"/>
<path d="M4221 6557 c-68 -23 -102 -142 -64 -222 17 -35 53 -49 53 -20 0 8 -4
15 -9 15 -5 0 -14 14 -21 30 -25 59 9 160 56 168 27 5 40 20 29 31 -6 5 -24 4
-44 -2z"/>
<path d="M6955 6525 c-76 -76 -22 -172 91 -163 28 2 40 8 42 21 3 15 -2 17
-36 11 -39 -6 -79 7 -94 30 -13 19 -9 25 26 31 60 12 95 62 64 93 -22 22 -57
13 -93 -23z m73 -7 c-5 -15 -57 -42 -64 -35 -8 7 38 47 54 47 7 0 12 -6 10
-12z"/>
<path d="M6543 6508 c-40 -48 -44 -97 -12 -129 28 -28 85 -20 117 16 28 33 28
44 -3 105 -32 63 -57 65 -102 8z m81 -34 c16 -34 16 -38 0 -55 -56 -62 -115
-1 -63 65 28 35 42 33 63 -10z"/>
<path d="M13576 6538 c-3 -7 -7 -35 -10 -62 -3 -27 -11 -54 -16 -61 -13 -16
-1 -75 15 -75 14 0 35 53 33 80 -1 8 0 34 0 58 l2 42 43 0 c32 0 44 4 44 15 0
19 -106 22 -111 3z"/>
<path d="M3751 6514 c-56 -47 -67 -139 -22 -185 36 -35 95 -40 132 -10 32 26
19 36 -25 20 -45 -16 -87 -3 -99 31 -15 40 9 109 44 128 30 18 39 42 15 42 -8
0 -28 -12 -45 -26z"/>
<path d="M5401 6518 c-5 -13 -19 -51 -31 -86 l-23 -63 -23 48 c-34 70 -70 111
-86 95 -9 -9 -7 -17 10 -34 11 -13 37 -54 56 -91 l35 -69 -32 -118 c-17 -65
-36 -118 -41 -117 -6 1 -12 -8 -14 -20 -2 -15 3 -23 18 -28 12 -4 23 -5 25 -3
1 1 21 77 44 168 46 182 79 290 92 305 14 15 10 35 -6 35 -9 0 -19 -10 -24
-22z"/>
<path d="M4520 6500 c-33 -35 -45 -86 -30 -126 15 -39 26 -44 96 -44 43 0 65
5 74 15 14 17 17 16 -70 18 -62 2 -65 3 -65 27 0 19 6 25 33 31 33 7 72 34 72
51 0 14 -51 58 -67 58 -8 0 -28 -13 -43 -30z m63 -17 c12 -11 -14 -33 -39 -33
-22 0 -23 2 -12 20 13 20 38 26 51 13z"/>
<path d="M5024 6498 c-63 -56 -65 -111 -5 -143 45 -23 133 -20 156 5 18 20 18
20 -43 14 -80 -9 -122 7 -122 46 0 41 50 80 101 80 28 0 39 4 39 15 0 11 -12
15 -45 15 -36 0 -51 -6 -81 -32z"/>
<path d="M10129 6511 c-2 -17 -4 -23 -18 -63 -29 -85 29 -113 102 -50 21 19
22 45 2 62 -8 7 -15 21 -15 31 0 12 -7 19 -19 19 -11 0 -26 3 -35 6 -9 3 -17
1 -17 -5z m55 -64 c17 -13 17 -15 -9 -36 -34 -26 -50 -15 -36 22 12 30 19 33
45 14z"/>
<path d="M10581 6493 c-27 -34 -35 -65 -28 -110 9 -54 36 -75 101 -81 39 -3
56 -1 56 7 0 7 4 10 9 7 10 -7 37 22 28 30 -3 3 -21 0 -40 -7 -43 -15 -103 -5
-117 21 -20 38 -2 120 27 120 21 0 15 -41 -7 -47 -26 -7 -26 -33 -1 -33 47 0
69 71 33 103 -25 23 -37 21 -61 -10z"/>
<path d="M3352 6493 c-31 -15 -62 -57 -62 -83 0 -21 49 -60 76 -60 38 0 94 59
94 99 0 24 -7 34 -30 46 -36 18 -37 18 -78 -2z m74 -37 c13 -34 -39 -83 -75
-71 -29 9 -32 31 -10 59 23 29 76 36 85 12z"/>
<path d="M4775 6498 c-49 -27 -75 -61 -75 -100 0 -51 26 -51 39 0 14 49 30 70
61 77 39 8 53 -8 58 -69 3 -41 8 -56 19 -56 13 0 15 12 11 61 -4 49 -9 66 -27
80 -26 21 -56 24 -86 7z"/>
<path d="M12594 6496 c-70 -31 -74 -157 -5 -185 25 -11 91 -8 111 4 17 10 11
25 -10 25 -11 0 -20 -7 -20 -15 0 -11 -5 -13 -17 -7 -10 5 -31 15 -48 23 -49
24 -44 50 15 78 70 33 81 48 51 72 -27 22 -36 23 -77 5z m30 -41 c-27 -20 -51
-20 -34 0 7 8 22 15 33 15 20 0 20 0 1 -15z"/>
<path d="M14595 6501 c-32 -14 -55 -46 -62 -85 -11 -70 37 -87 100 -35 l37 30
0 -43 c0 -40 13 -143 25 -196 5 -19 -1 -25 -38 -41 -55 -24 -100 -75 -91 -105
9 -31 33 -66 50 -73 24 -9 61 6 78 32 10 15 22 53 28 85 10 57 11 59 47 65 42
7 101 39 101 55 0 14 -22 12 -46 -4 -11 -8 -38 -16 -60 -18 l-39 -3 -13 120
c-19 169 -22 185 -32 185 -5 0 -28 -20 -51 -45 -60 -65 -91 -56 -54 15 15 29
28 35 68 30 13 -1 18 4 15 17 -4 20 -33 26 -63 14z m94 -438 c-15 -78 -70
-108 -85 -47 -9 34 0 51 38 74 51 31 57 27 47 -27z"/>
<path d="M3496 6482 c-2 -4 -6 -37 -7 -72 -2 -52 0 -66 13 -68 10 -2 18 6 22
21 8 35 62 89 83 85 11 -2 20 -15 23 -32 7 -43 30 -46 30 -3 0 66 -55 86 -111
40 -18 -16 -30 -22 -25 -15 4 7 4 21 1 32 -6 20 -20 26 -29 12z"/>
<path d="M13348 6455 c-16 -18 -28 -44 -28 -57 0 -52 70 -76 119 -42 26 19 23
47 -11 102 -25 40 -45 40 -80 -3z m70 -60 c-2 -15 -11 -20 -33 -20 -39 0 -47
31 -14 56 23 17 25 17 37 1 7 -9 11 -26 10 -37z"/>
<path d="M13207 6468 c-2 -7 -2 -39 1 -70 3 -32 1 -58 -4 -58 -16 0 -31 15
-45 44 -20 42 -33 42 -48 1 -7 -21 -24 -41 -41 -50 -28 -15 -30 -14 -35 8 -4
12 -1 35 4 51 13 32 5 76 -14 76 -15 0 -27 -108 -16 -148 7 -23 13 -27 40 -25
20 1 44 11 61 28 22 21 29 23 33 12 8 -21 64 -32 83 -16 11 9 15 29 13 71 -1
32 1 61 4 65 13 12 7 23 -12 23 -11 0 -21 -6 -24 -12z"/>
<path d="M14314 6455 c-9 -14 -23 -25 -30 -25 -10 0 -14 -13 -14 -46 0 -37 3
-45 16 -42 9 2 24 23 34 48 32 82 70 79 80 -8 3 -33 10 -47 20 -47 26 0 14
100 -16 129 -24 25 -71 20 -90 -9z"/>
<path d="M3922 6458 c-18 -18 -15 -75 5 -109 19 -32 49 -45 87 -35 43 11 81
152 39 144 -12 -2 -18 -14 -18 -40 -2 -48 -29 -90 -53 -81 -9 4 -22 14 -29 22
-15 19 -17 77 -3 86 11 7 4 25 -9 25 -4 0 -12 -5 -19 -12z"/>
<path d="M11715 6448 c-11 -42 -1 -151 13 -156 9 -3 13 3 12 14 -1 11 -2 45
-1 76 1 56 1 57 34 60 46 4 40 22 -10 26 -37 3 -43 0 -48 -20z"/>
<path d="M11576 6413 c-42 -63 -51 -99 -32 -128 22 -33 51 -32 86 4 52 52 49
111 -7 148 -20 14 -23 12 -47 -24z m64 -50 c0 -14 -48 -73 -61 -73 -17 0 -9
62 12 91 20 28 22 29 35 12 7 -10 14 -23 14 -30z"/>
<path d="M14124 6406 c-7 -19 20 -109 34 -114 17 -5 15 48 -3 92 -17 39 -23
44 -31 22z"/>
<path d="M9138 6385 c-5 -25 13 -51 25 -38 4 3 7 19 7 35 0 35 -26 38 -32 3z"/>
<path d="M2322 6363 c4 -21 33 -25 33 -3 0 8 -8 16 -18 18 -14 3 -18 -1 -15
-15z"/>
<path d="M5850 6268 c0 -71 -8 -237 -15 -317 -8 -78 -7 -83 11 -79 14 2 18 13
20 53 1 28 5 123 9 213 7 147 6 162 -9 162 -11 0 -16 -9 -16 -32z"/>
<path d="M2986 6234 c-11 -29 -6 -45 39 -123 64 -110 66 -132 22 -176 -43 -43
-90 -46 -95 -7 -5 32 17 92 34 92 8 0 14 7 14 16 0 10 -7 14 -22 12 -46 -6
-76 -129 -41 -164 35 -35 122 -3 157 56 25 44 17 82 -40 180 -40 69 -45 86
-36 101 16 25 15 29 -7 29 -10 0 -22 -7 -25 -16z"/>
<path d="M4744 6232 c-14 -9 -46 -100 -39 -111 2 -5 -7 -13 -20 -19 -29 -14
-35 -47 -7 -40 16 5 18 -2 19 -57 1 -63 18 -110 47 -134 32 -26 146 -6 146 25
0 8 -4 14 -10 14 -5 0 -10 -7 -10 -15 0 -8 -5 -15 -11 -15 -5 0 -8 4 -5 9 3 5
-14 6 -38 4 -38 -5 -45 -2 -64 22 -18 22 -22 41 -22 96 0 69 0 69 28 69 15 0
43 -4 61 -10 42 -12 48 -7 33 24 -10 23 -15 24 -66 19 -53 -6 -55 -5 -52 18 1
14 10 40 19 58 24 48 21 63 -9 43z"/>
<path d="M4158 6123 c-1 -4 -2 -39 -3 -78 -1 -76 -20 -149 -37 -139 -8 5 -77
138 -91 177 -3 9 -8 9 -17 1 -9 -9 -3 -30 27 -95 65 -137 101 -151 135 -53 20
57 21 185 0 192 -6 2 -13 0 -14 -5z"/>
<path d="M6500 6098 c-19 -12 -42 -21 -51 -19 -15 2 -16 -12 -13 -121 6 -247
9 -273 27 -276 15 -3 17 8 17 96 0 99 0 99 24 95 35 -7 63 12 97 65 36 57 39
110 7 146 -33 36 -66 41 -108 14z m88 -37 c27 -33 -16 -142 -62 -157 -46 -15
-73 75 -41 136 26 51 72 60 103 21z"/>
<path d="M6225 6088 c-23 -21 -25 -28 -19 -66 10 -62 36 -92 79 -88 40 3 81
36 88 72 5 27 -23 78 -52 93 -31 17 -68 13 -96 -11z m95 -28 c27 -27 26 -65
-2 -84 -30 -21 -55 -20 -68 3 -14 28 -13 53 6 79 19 27 38 28 64 2z"/>
<path d="M3833 6071 c-54 -39 -71 -80 -47 -116 21 -33 61 -54 117 -61 42 -6
87 7 87 25 0 5 -24 8 -53 7 -49 0 -117 18 -117 33 0 3 17 15 37 26 48 26 77
66 68 94 -9 30 -44 27 -92 -8z m57 -21 c-11 -20 -68 -55 -76 -47 -6 6 67 67
79 67 4 0 3 -9 -3 -20z"/>
<path d="M6053 6084 c-4 -12 -8 -13 -14 -3 -6 11 -15 10 -43 -4 -39 -18 -46
-34 -20 -44 10 -4 20 0 26 10 13 25 79 22 112 -4 32 -25 32 -33 1 -64 -33 -34
-63 -33 -71 3 -4 15 -12 30 -18 34 -8 5 -7 8 2 8 6 0 12 7 12 15 0 8 -7 15
-15 15 -21 0 -20 -78 1 -108 27 -39 97 -23 128 28 29 50 5 92 -69 120 -20 8
-27 6 -32 -6z"/>
<path d="M4255 6047 c-30 -30 -34 -38 -30 -73 7 -58 36 -78 102 -70 66 8 83
15 83 33 0 11 -6 14 -22 9 -87 -24 -128 -16 -128 24 0 13 14 21 57 31 63 15
81 41 47 66 -32 23 -72 16 -109 -20z m75 -7 c-20 -13 -43 -13 -35 0 3 6 16 10
28 10 18 0 19 -2 7 -10z"/>
<path d="M2485 6045 c-68 -67 15 -174 92 -120 20 14 22 14 28 -5 3 -11 15 -20
26 -20 21 0 26 15 8 26 -11 6 -8 49 6 107 6 20 4 27 -8 27 -8 0 -17 -7 -21
-15 -5 -13 -10 -12 -38 5 -43 26 -64 25 -93 -5z m81 -28 c31 -27 28 -51 -10
-68 -32 -15 -54 -6 -62 26 -4 18 -1 32 11 45 23 25 28 25 61 -3z"/>
<path d="M4521 6048 c-11 -13 -28 -32 -36 -43 -13 -18 -14 -18 -15 -2 0 9 -7
17 -15 17 -12 0 -15 -12 -13 -57 2 -31 8 -58 14 -60 5 -2 18 14 27 34 9 21 28
52 41 68 l25 30 1 -45 c0 -59 18 -120 36 -127 22 -8 27 2 13 28 -6 12 -14 57
-18 98 -7 85 -22 99 -60 59z"/>
<path d="M2750 6029 c-35 -19 -55 -60 -45 -88 4 -10 19 0 50 35 39 44 53 47
46 10 -5 -22 12 -86 20 -80 5 3 9 0 9 -7 0 -9 3 -10 10 -3 7 7 7 19 1 35 -5
14 -7 37 -4 52 4 18 -1 34 -12 47 -22 24 -30 24 -75 -1z"/>
<path d="M11740 5074 c-7 -31 -30 -91 -52 -135 -37 -72 -44 -109 -18 -109 5 0
10 7 10 15 0 8 16 43 35 77 33 61 69 183 59 200 -12 20 -23 4 -34 -48z"/>
<path d="M1826 5091 c-4 -5 -2 -21 3 -35 9 -22 7 -25 -16 -28 -39 -4 -42 -28
-4 -28 l31 0 0 -73 c0 -40 -9 -151 -20 -247 -25 -220 -26 -313 -4 -331 14 -11
18 -10 30 6 18 25 18 55 -1 55 -20 0 -19 34 5 254 11 99 20 216 20 261 l0 82
53 12 c65 15 219 29 359 33 l108 3 -3 -70 c-1 -38 4 -122 12 -185 10 -83 12
-161 6 -280 l-7 -165 -121 6 c-131 7 -316 -3 -411 -21 -32 -6 -67 -10 -76 -7
-23 6 -50 -10 -50 -29 0 -11 8 -14 33 -10 17 3 75 13 127 21 64 11 157 16 284
16 164 0 191 -3 208 -17 13 -13 22 -14 29 -7 17 17 17 511 1 589 -11 54 -10
68 4 110 11 34 13 49 5 52 -6 2 -9 7 -6 12 11 18 -24 32 -57 22 -18 -6 -103
-13 -188 -16 -85 -3 -189 -13 -230 -21 -41 -8 -76 -15 -77 -15 -2 0 -3 9 -3
20 0 21 -35 46 -44 31z"/>
<path d="M4115 5090 c-3 -6 6 -15 22 -21 15 -5 23 -13 18 -17 -6 -4 -23 -27
-40 -50 -16 -24 -45 -57 -64 -73 -28 -23 -33 -31 -23 -41 9 -9 22 -3 58 32 25
25 57 64 71 88 l26 43 -23 25 c-26 26 -35 29 -45 14z"/>
<path d="M10063 5020 c6 -26 3 -31 -28 -46 -49 -23 -112 -96 -145 -167 -49
-105 -39 -201 23 -234 63 -32 256 -28 298 6 32 25 16 46 -18 24 -20 -14 -50
-17 -134 -18 -94 0 -111 3 -136 21 -23 18 -28 29 -31 73 -5 87 67 218 146 263
l29 18 7 -40 c7 -47 36 -55 54 -15 17 37 15 62 -7 77 -11 8 -23 26 -26 41 -10
39 -39 36 -32 -3z m44 -82 c-3 -8 -6 -5 -6 6 -1 11 2 17 5 13 3 -3 4 -12 1
-19z"/>
<path d="M10359 5023 c0 -5 -1 -30 -3 -58 -1 -27 -6 -93 -10 -145 -7 -91 11
-301 28 -317 20 -20 24 21 11 112 -18 123 -18 176 -3 280 11 80 6 135 -12 135
-6 0 -10 -3 -11 -7z"/>
<path d="M14801 5021 c-8 -5 -9 -11 -3 -15 6 -4 7 -18 2 -39 -5 -17 -16 -79
-25 -137 -20 -122 -53 -221 -86 -256 -19 -20 -98 -64 -115 -64 -2 0 -4 9 -4
20 0 30 23 70 63 108 31 30 48 39 82 41 5 1 2 8 -7 17 -21 22 -46 12 -97 -36
-47 -45 -71 -93 -71 -144 0 -44 20 -51 68 -26 20 11 42 20 49 20 25 0 82 70
103 127 38 101 83 374 63 386 -5 3 -15 2 -22 -2z"/>
<path d="M14063 5008 c-6 -7 -19 -40 -28 -73 -9 -33 -39 -128 -66 -212 -27
-83 -49 -159 -49 -167 0 -31 32 -15 95 45 l64 61 -13 -49 c-14 -52 -5 -98 16
-90 7 2 12 16 10 31 -2 15 5 54 14 87 27 95 9 98 -78 14 -39 -39 -69 -63 -66
-55 15 46 102 322 113 360 14 46 7 72 -12 48z"/>
<path d="M5023 4991 c-2 -10 -16 -25 -30 -32 -68 -37 -198 -230 -209 -310 -9
-79 44 -144 140 -170 53 -15 187 0 194 20 4 12 -8 13 -68 8 -129 -11 -220 25
-235 93 -13 61 51 190 144 288 47 51 67 51 63 0 -4 -41 9 -55 29 -32 14 17 15
62 5 120 -7 37 -25 45 -33 15z"/>
<path d="M9200 4999 c-30 -6 -95 -8 -145 -6 -148 7 -295 -27 -245 -58 6 -4 6
-15 0 -31 -6 -14 -8 -29 -6 -32 2 -4 10 -112 17 -240 10 -192 15 -232 27 -232
13 0 14 21 7 148 -4 81 -9 198 -11 260 -1 62 -5 116 -8 121 -11 17 31 24 204
32 96 4 211 11 256 15 l80 7 37 -33 37 -32 0 -169 c0 -138 -3 -169 -14 -169
-16 0 -26 -21 -26 -56 0 -28 17 -32 28 -6 4 11 9 -2 12 -38 3 -38 10 -56 20
-58 13 -2 15 28 13 235 -2 131 -5 252 -8 269 -9 52 -56 78 -145 81 -41 1 -100
-3 -130 -8z"/>
<path d="M13054 4985 c33 -50 12 -236 -37 -328 -26 -50 -71 -97 -91 -97 -10 0
-7 75 5 111 7 19 21 44 31 56 11 12 17 26 14 32 -23 37 -86 -76 -86 -154 0
-173 172 -19 200 180 21 153 10 225 -37 225 -14 0 -14 -3 1 -25z"/>
<path d="M10976 4991 c-4 -6 -1 -21 7 -33 10 -17 13 -47 9 -110 l-4 -88 -49 0
c-37 0 -49 -4 -49 -15 0 -11 12 -15 49 -15 55 0 52 5 66 -104 8 -62 21 -96 36
-96 8 0 10 14 4 48 -4 26 -10 71 -14 100 l-7 52 35 0 c39 0 70 14 58 26 -4 5
-28 7 -54 5 l-46 -3 6 94 c4 64 2 101 -6 117 -14 28 -32 37 -41 22z"/>
<path d="M3080 4988 c0 -2 7 -59 15 -128 16 -138 19 -248 7 -268 -14 -21 -45
24 -116 166 -51 102 -71 133 -84 130 -15 -3 -17 -18 -18 -108 0 -98 -8 -181
-20 -222 -4 -13 0 -18 14 -18 17 0 21 12 31 104 6 57 9 123 6 147 -5 39 1 30
62 -85 79 -149 110 -179 144 -137 23 28 24 107 6 296 -10 100 -15 120 -29 123
-10 2 -18 2 -18 0z"/>
<path d="M14526 4975 c-3 -9 -6 -28 -6 -42 0 -14 -29 -113 -65 -221 -36 -107
-65 -199 -65 -204 0 -4 9 -8 20 -8 13 0 20 7 20 20 0 11 27 99 59 197 59 177
77 262 55 270 -6 2 -14 -3 -18 -12z"/>
<path d="M13819 4942 c-6 -18 -18 -32 -27 -32 -29 0 -98 -39 -139 -80 -49 -49
-96 -135 -113 -207 -10 -46 -10 -57 7 -90 27 -57 71 -76 159 -69 85 7 128 21
118 38 -5 10 -4 10 6 1 14 -13 50 -1 50 18 0 10 -17 8 -105 -15 -149 -40 -229
4 -204 114 22 100 98 203 178 244 42 22 43 21 35 -29 -5 -37 -3 -46 11 -52 34
-12 54 29 52 106 -2 80 -12 98 -28 53z"/>
<path d="M2023 4933 c-7 -3 -13 -12 -13 -21 0 -14 13 -17 80 -20 44 -1 89 2
100 8 27 14 25 4 -11 -74 -30 -64 -32 -66 -69 -66 -64 0 -101 -11 -98 -29 2
-9 12 -15 23 -13 11 1 37 5 58 9 l37 6 -30 -65 c-35 -76 -44 -140 -18 -146 12
-2 16 5 16 32 0 19 15 67 32 105 l33 70 46 3 c42 3 46 5 46 28 0 19 -4 24 -20
22 -11 -2 -21 -8 -23 -13 -2 -5 -10 -9 -18 -9 -12 0 -8 14 15 58 17 31 32 71
33 87 3 29 1 30 -32 27 -73 -7 -126 -7 -150 -1 -14 4 -31 5 -37 2z"/>
<path d="M3505 4890 c-3 -6 -2 -25 4 -43 5 -17 19 -75 30 -127 28 -131 10
-200 -51 -200 -14 0 -18 8 -18 39 0 49 8 71 26 71 8 0 14 7 14 16 0 24 -43 13
-57 -16 -18 -35 -16 -105 3 -124 42 -42 110 1 125 78 7 38 5 68 -11 135 -10
47 -23 106 -27 130 -8 44 -25 62 -38 41z"/>
<path d="M9138 4819 c-27 -15 -21 -53 15 -101 l34 -44 -29 -34 c-52 -63 -28
-130 45 -130 49 0 67 16 67 61 0 22 -7 53 -15 70 l-16 30 52 47 c45 42 51 52
45 75 -3 15 -13 27 -22 27 -12 0 -15 -6 -10 -24 5 -19 -3 -31 -44 -65 l-49
-42 -31 42 c-17 24 -29 47 -27 53 6 18 55 19 79 2 28 -20 38 -20 38 -2 0 37
-89 60 -132 35z m100 -247 c-3 -30 -39 -42 -64 -22 -21 18 -17 41 13 72 l27
28 14 -25 c7 -15 12 -38 10 -53z"/>
<path d="M14272 4798 c7 -19 38 -22 38 -4 0 10 -9 16 -21 16 -12 0 -19 -5 -17
-12z"/>
<path d="M11410 4767 c-42 -22 -62 -74 -55 -144 7 -79 13 -93 36 -93 24 0 25
26 3 69 -19 38 -13 94 12 122 12 13 31 19 60 19 41 0 69 16 42 24 -39 12 -77
13 -98 3z"/>
<path d="M11695 4753 c-35 -36 -31 -76 18 -158 35 -59 35 -60 17 -79 -36 -37
-90 11 -90 80 0 15 -6 24 -16 24 -14 0 -16 -8 -11 -47 4 -37 12 -54 36 -75 17
-15 43 -28 57 -28 26 0 74 40 74 62 0 7 -16 39 -35 71 -46 77 -51 98 -26 128
20 24 20 24 35 4 22 -29 41 -7 20 23 -20 29 -46 28 -79 -5z"/>
<path d="M6353 4738 c-11 -13 -32 -40 -46 -62 -24 -36 -26 -37 -29 -15 -1 13
-10 25 -18 27 -12 2 -15 -11 -17 -63 -3 -86 11 -85 73 8 l49 72 6 -68 c4 -51
11 -73 28 -91 29 -30 62 -39 97 -26 l27 11 -22 22 c-22 24 -29 43 -11 32 6 -3
10 -2 10 4 0 5 -4 12 -9 16 -11 6 -42 -35 -35 -47 3 -4 -1 -8 -9 -8 -31 0 -42
32 -43 119 0 95 -12 111 -51 69z"/>
<path d="M11173 4738 c-81 -89 -66 -218 25 -218 51 0 82 10 82 26 0 10 -12 12
-50 7 -61 -7 -89 13 -82 59 4 23 9 28 32 28 34 0 80 35 80 61 0 22 -33 59 -53
59 -8 0 -23 -10 -34 -22z m46 -50 c-15 -14 -49 -23 -49 -13 0 3 7 17 17 31 14
22 18 23 31 10 13 -12 13 -17 1 -28z"/>
<path d="M6080 4726 c0 -7 -7 -19 -15 -26 -25 -20 -47 -112 -35 -144 13 -36
51 -52 88 -37 31 13 62 58 62 91 0 30 -28 81 -59 107 -30 26 -41 28 -41 9z
m65 -96 c7 -33 -7 -65 -35 -80 -32 -17 -50 -2 -50 44 0 84 68 113 85 36z"/>
<path d="M10743 4716 c-34 -29 -28 -55 32 -131 25 -32 45 -64 45 -72 0 -20
-28 -15 -40 7 -15 27 -30 25 -30 -4 0 -25 32 -56 57 -56 7 0 22 9 33 20 24 24
16 52 -34 113 -66 83 -69 113 -10 104 36 -6 52 4 31 20 -27 22 -58 21 -84 -1z"/>
<path d="M12492 4709 c-71 -70 -63 -186 11 -148 32 17 57 41 52 49 -3 4 2 11
11 14 13 5 15 -3 12 -51 -2 -48 0 -58 14 -61 14 -3 17 9 20 90 2 51 2 103 0
116 -4 24 -27 30 -36 10 -5 -10 -7 -10 -12 0 -10 21 -39 13 -72 -19z m65 -15
c13 -35 -60 -124 -83 -101 -10 9 14 69 38 94 25 27 36 29 45 7z"/>
<path d="M12755 4720 c-10 -11 -26 -20 -36 -20 -27 0 -50 -41 -51 -94 -1 -79
16 -77 56 6 20 42 43 81 52 89 16 13 17 11 11 -16 -4 -16 -10 -54 -14 -84 -5
-47 -4 -53 11 -50 18 4 26 42 29 144 2 33 -1 40 -19 43 -11 2 -28 -6 -39 -18z"/>
<path d="M4108 4714 c-36 -19 -36 -47 2 -94 32 -40 56 -97 47 -107 -13 -12
-57 9 -97 48 -24 24 -46 37 -51 32 -24 -24 84 -113 136 -113 59 0 61 54 6 136
-22 32 -37 62 -35 66 3 4 19 11 36 16 18 4 33 13 36 20 5 17 -47 15 -80 -4z"/>
<path d="M5749 4707 c-7 -7 -23 -11 -36 -9 -23 4 -23 3 -23 -82 0 -70 3 -86
15 -86 10 0 15 10 15 33 0 17 10 52 21 77 22 49 31 45 43 -21 4 -21 14 -43 22
-50 14 -12 21 -8 50 26 l33 39 6 -29 c13 -59 18 -70 33 -87 19 -22 45 -23 62
-3 10 12 10 19 1 28 -9 9 -14 9 -19 0 -16 -25 -34 7 -46 82 -6 43 -16 80 -21
81 -6 2 -26 -22 -45 -52 -36 -57 -42 -57 -54 8 -8 43 -37 66 -57 45z"/>
<path d="M3237 4703 c-24 -6 -47 -54 -47 -98 0 -89 117 -116 150 -35 10 23 8
34 -9 67 -16 33 -61 77 -73 72 -2 -1 -11 -3 -21 -6z m52 -59 c35 -44 20 -94
-28 -94 -33 0 -52 61 -31 101 15 26 35 24 59 -7z"/>
<path d="M3770 4693 c-85 -58 -101 -167 -30 -192 39 -13 124 1 150 24 28 26
10 42 -23 20 -17 -11 -42 -15 -79 -13 -44 3 -53 6 -56 23 -2 15 3 21 18 22 33
3 108 51 115 74 8 25 -20 59 -49 59 -12 0 -33 -8 -46 -17z m65 -22 c6 -11 -37
-47 -67 -57 -34 -10 -34 6 0 37 33 29 56 36 67 20z"/>
<path d="M10444 4696 c-8 -21 13 -90 37 -120 23 -29 68 -56 94 -56 9 0 30 13
46 29 23 24 29 38 29 73 0 46 -22 88 -46 88 -18 0 -18 -24 1 -40 28 -23 17
-93 -16 -111 -23 -12 -73 11 -90 42 -19 36 -28 78 -18 84 16 11 10 25 -11 25
-11 0 -23 -6 -26 -14z"/>
<path d="M5196 4674 c-32 -32 -8 -114 34 -114 10 0 32 12 49 26 37 31 42 77
12 94 -29 15 -77 12 -95 -6z m82 -37 c2 -9 -8 -23 -23 -33 -24 -16 -26 -16
-39 2 -13 17 -11 21 12 36 31 20 46 19 50 -5z"/>
<path d="M5472 4658 c-16 -24 -18 -35 -9 -40 7 -5 16 -2 21 6 8 11 14 3 25
-32 19 -55 40 -64 81 -34 34 25 40 20 40 -30 0 -25 5 -41 15 -44 8 -4 15 -15
15 -26 0 -10 16 -62 36 -114 53 -141 54 -156 13 -194 -37 -34 -75 -53 -90 -44
-5 3 -9 21 -9 40 0 29 6 38 36 56 25 15 32 24 24 32 -13 13 -77 -19 -84 -43
-17 -62 -17 -80 3 -100 36 -36 109 -9 161 61 28 39 24 72 -24 200 -20 54 -36
106 -36 116 0 11 -7 25 -15 32 -8 7 -15 29 -15 49 0 20 -7 44 -14 54 -19 25
-68 22 -85 -5 -14 -22 -14 -22 -22 -3 -4 11 -8 37 -8 58 -1 29 -5 37 -20 37
-11 0 -28 -14 -39 -32z"/>
<path d="M5393 4590 c-1 -69 2 -90 12 -90 12 0 65 82 65 101 0 14 -30 10 -32
-3 0 -7 -4 7 -7 32 -4 28 -11 46 -21 48 -12 2 -15 -14 -17 -88z"/>
<path d="M14197 4663 c-3 -5 -8 -34 -12 -67 -6 -47 -5 -58 6 -54 13 4 21 24
33 91 5 29 4 37 -8 37 -8 0 -17 -3 -19 -7z"/>
<path d="M2320 4561 c-14 -26 -13 -41 3 -41 16 0 40 38 32 50 -10 16 -23 12
-35 -9z"/>
<path d="M3523 4474 c-9 -24 -9 -67 0 -141 l8 -61 -56 -13 c-31 -7 -58 -17
-62 -22 -13 -21 15 -25 65 -11 30 9 56 13 60 9 3 -3 6 -33 7 -65 0 -42 4 -61
14 -65 26 -10 31 9 20 74 -11 70 -6 81 38 81 29 0 51 38 27 47 -9 3 -19 1 -23
-4 -3 -5 -18 -13 -32 -16 -24 -6 -27 -4 -33 31 -3 20 -6 65 -6 99 0 61 -14 91
-27 57z"/>
<path d="M3327 4443 c-3 -5 -4 -24 -2 -43 1 -19 6 -98 10 -175 4 -77 11 -148
16 -158 18 -32 29 -7 23 51 -3 31 -9 117 -12 191 -5 88 -11 136 -19 138 -6 2
-13 0 -16 -4z"/>
<path d="M2683 4423 c-39 -13 -53 -30 -38 -45 3 -3 22 3 43 13 44 23 122 26
122 5 0 -15 -64 -76 -80 -76 -15 0 -12 16 5 30 18 15 11 30 -14 30 -13 0 -21
-10 -25 -31 -10 -51 -7 -229 4 -250 14 -25 46 -27 34 -1 -5 9 -10 54 -12 100
l-3 83 70 -35 c113 -57 133 -93 90 -163 -51 -82 -179 -95 -207 -21 -8 23 -15
29 -22 22 -18 -18 1 -65 34 -86 36 -22 105 -20 156 7 46 24 90 90 90 136 0 49
-27 80 -108 123 l-64 33 31 22 c26 19 61 67 61 85 0 2 -7 12 -16 20 -20 20
-94 20 -151 -1z"/>
<path d="M6095 4430 c-3 -5 -1 -19 5 -30 6 -11 8 -41 5 -67 -3 -27 -2 -97 2
-158 7 -95 10 -110 26 -113 15 -3 18 0 12 17 -3 11 -7 87 -7 168 -1 81 -5 158
-9 171 -9 23 -24 29 -34 12z"/>
<path d="M4244 4406 c-8 -20 7 -52 22 -49 15 3 15 27 0 48 -14 19 -15 19 -22
1z"/>
<path d="M5232 4382 c-11 -21 -26 -68 -32 -105 -10 -67 -27 -117 -40 -117 -20
0 -70 74 -89 130 -27 83 -37 98 -51 84 -7 -7 -11 -48 -11 -100 0 -49 -6 -120
-14 -158 -15 -73 -13 -89 13 -84 12 2 17 14 18 38 1 19 5 73 9 120 7 74 10 81
18 55 13 -42 87 -116 111 -113 28 4 56 57 63 117 3 28 8 49 10 47 3 -2 8 -48
13 -101 5 -61 14 -105 25 -121 25 -38 39 -16 20 30 -11 27 -16 77 -18 177 -1
90 -6 139 -13 139 -6 0 -20 -17 -32 -38z"/>
<path d="M8870 4360 c0 -5 -3 -9 -7 -9 -19 3 -33 -2 -33 -12 0 -7 79 -9 263
-6 144 3 286 1 315 -5 29 -5 67 -8 85 -6 30 3 31 4 11 15 -43 25 -149 33 -356
26 -114 -3 -205 -10 -202 -15 8 -13 -14 -9 -46 7 -17 9 -30 11 -30 5z"/>
<path d="M6590 4340 c-8 -5 -32 -16 -53 -24 -72 -29 -59 -83 28 -122 61 -27
73 -43 57 -80 -18 -39 -94 -28 -132 19 -23 28 -37 16 -22 -18 12 -27 52 -48
110 -58 37 -7 67 15 78 58 12 49 -3 75 -59 100 -85 37 -93 60 -27 80 14 4 35
14 47 23 36 23 10 44 -27 22z"/>
<path d="M3175 4321 c-8 -15 3 -31 21 -31 9 0 14 7 12 17 -4 20 -24 28 -33 14z"/>
<path d="M10798 4315 c-60 -33 -62 -80 -8 -129 23 -20 38 -41 34 -47 -3 -6
-35 -9 -72 -8 -53 2 -67 -1 -67 -12 0 -18 117 -25 157 -8 40 16 35 38 -18 84
-37 32 -45 45 -40 61 7 24 45 44 82 44 36 0 25 24 -12 27 -16 2 -41 -4 -56
-12z"/>
<path d="M6243 4291 c-77 -56 -78 -127 0 -164 37 -19 94 -17 126 2 25 16 3 31
-28 20 -31 -11 -105 3 -116 21 -3 5 19 21 49 34 66 29 84 57 61 92 -20 31 -43
30 -92 -5z m67 -16 c0 -16 -31 -39 -68 -50 -21 -6 -23 -5 -13 13 5 10 25 26
43 35 40 20 38 20 38 2z"/>
<path d="M9690 4285 c-19 -19 -30 -35 -24 -35 5 0 5 -3 -1 -8 -28 -20 -56 -77
-60 -120 -2 -26 -9 -99 -14 -162 -6 -63 -11 -118 -11 -122 0 -5 6 -8 14 -8 17
0 25 39 33 157 5 79 8 90 19 75 12 -15 15 -16 41 -2 52 28 93 146 79 225 -9
46 -32 46 -76 0z m50 -33 c0 -62 -44 -162 -71 -162 -4 0 -12 13 -17 29 -8 23
-7 32 3 41 7 6 15 25 19 42 6 31 41 78 58 78 4 0 8 -13 8 -28z"/>
<path d="M9932 4283 c-24 -35 -54 -93 -48 -93 3 0 -2 -16 -10 -36 -10 -24 -12
-40 -6 -46 15 -15 32 0 32 26 0 13 14 50 30 83 26 52 34 60 52 55 17 -4 20 -2
15 12 -4 10 -7 20 -7 22 0 2 -9 4 -19 4 -11 0 -28 -12 -39 -27z"/>
<path d="M11538 4295 c-60 -33 -54 -76 16 -124 77 -53 71 -111 -11 -111 -27 0
-35 5 -43 26 -9 22 -13 24 -25 14 -58 -48 71 -99 133 -53 39 29 42 77 5 115
-15 16 -40 36 -55 44 -35 18 -36 47 -3 62 32 15 55 15 55 2 0 -5 7 -10 16 -10
10 0 14 7 12 23 -2 17 -10 22 -38 24 -19 2 -47 -4 -62 -12z"/>
<path d="M10040 4290 c0 -5 9 -14 20 -20 20 -11 19 -12 -10 -37 -61 -51 -79
-128 -38 -157 43 -30 135 -11 156 32 13 27 14 82 0 82 -6 0 -8 3 -5 6 11 11
-23 58 -57 82 -34 23 -66 29 -66 12z m110 -130 c0 -48 -63 -84 -114 -64 -33
13 -14 71 38 116 l31 28 23 -26 c12 -14 22 -38 22 -54z"/>
<path d="M4372 4268 c-20 -20 -22 -21 -22 -4 0 10 -6 16 -12 14 -15 -5 -30
-158 -18 -171 10 -11 21 7 43 73 33 96 47 99 71 17 18 -61 59 -108 78 -89 10
10 7 16 -9 27 -12 8 -31 43 -43 79 -18 57 -34 76 -59 76 -3 0 -17 -10 -29 -22z"/>
<path d="M11005 4278 c-36 -20 -65 -51 -65 -70 0 -10 20 -41 45 -67 25 -26 45
-51 45 -54 0 -4 -13 -13 -29 -21 -20 -11 -31 -12 -39 -4 -17 17 -34 0 -22 -23
13 -24 31 -24 80 1 55 28 54 58 -5 116 -25 24 -45 48 -45 54 0 15 61 50 88 50
13 0 22 6 22 15 0 18 -45 20 -75 3z"/>
<path d="M11263 4261 c-19 -12 -36 -34 -43 -57 -16 -48 -16 -130 0 -149 15
-18 97 -20 135 -3 32 15 35 44 3 33 -13 -4 -43 -8 -68 -9 l-45 -1 -3 42 c-2
33 0 42 10 38 36 -14 119 79 92 104 -20 19 -50 20 -81 2z m37 -46 c-22 -23
-50 -34 -50 -18 0 15 35 43 53 43 20 0 20 -1 -3 -25z"/>
<path d="M4207 4263 c-9 -8 3 -140 15 -172 17 -46 28 -8 19 69 -5 42 -5 79 0
85 5 5 9 13 9 17 0 10 -34 11 -43 1z"/>
<path d="M4030 4250 c-8 -5 -34 -13 -57 -19 -28 -8 -43 -17 -43 -28 0 -11 6
-14 23 -9 12 4 41 10 64 13 34 4 42 9 40 24 -4 25 -9 28 -27 19z"/>
<path d="M5434 4246 c-3 -8 -15 -11 -29 -8 -47 8 -92 -105 -61 -153 27 -40 79
-35 127 14 47 47 51 85 13 130 -28 34 -42 38 -50 17z m17 -54 c37 4 37 -35 0
-72 -54 -54 -106 -31 -81 36 17 42 30 56 45 44 7 -6 23 -9 36 -8z"/>
<path d="M10478 4240 c-81 -63 -46 -160 57 -160 24 0 35 5 35 15 0 10 -11 15
-35 15 -23 0 -43 8 -57 22 l-22 22 49 14 c28 8 56 19 63 24 17 15 15 39 -5 54
-26 19 -56 17 -85 -6z m62 -19 c0 -9 -24 -21 -42 -21 -6 0 -6 6 2 15 14 16 40
20 40 6z"/>
<path d="M5823 4228 c-29 -32 -36 -63 -23 -103 15 -45 44 -65 97 -65 35 0 46
5 60 26 17 27 22 101 9 142 -14 42 -26 21 -26 -42 0 -85 -5 -96 -44 -96 -39 0
-52 9 -65 43 -14 36 1 77 29 77 15 0 20 5 18 17 -5 26 -31 27 -55 1z"/>
<path d="M10244 4212 c-47 -61 -50 -98 -11 -130 35 -29 150 -21 131 9 -4 8 -9
7 -15 -2 -7 -11 -9 -11 -9 -1 0 8 -8 10 -23 7 -12 -4 -35 -1 -50 4 -37 14 -36
53 3 93 29 29 32 49 7 47 -7 0 -21 -12 -33 -27z"/>
<path d="M3054 4195 c-5 -11 -1 -21 9 -27 23 -13 22 -65 -2 -77 -33 -18 -55 9
-48 57 5 44 -1 56 -22 43 -8 -5 -11 -25 -9 -56 2 -38 8 -52 30 -68 24 -18 30
-19 58 -7 55 23 62 86 14 131 -22 20 -24 21 -30 4z"/>
<path d="M3177 4184 c-9 -9 -9 -78 -1 -87 3 -3 12 -3 19 -1 9 4 12 17 8 42 -6
40 -15 56 -26 46z"/>
</g>
</svg>
