<?xml version="1.0" standalone="no"?>
<!DOCTYPE svg PUBLIC "-//W3C//DTD SVG 20010904//EN"
 "http://www.w3.org/TR/2001/REC-SVG-20010904/DTD/svg10.dtd">
<svg version="1.0" xmlns="http://www.w3.org/2000/svg"
 width="1618.000000pt" height="1214.000000pt" viewBox="0 0 1618.000000 1214.000000"
 preserveAspectRatio="xMidYMid meet">

<g transform="translate(0.000000,1214.000000) scale(0.100000,-0.100000)"
fill="#000000" stroke="none">
<path d="M10095 11711 c-58 -13 -81 -22 -83 -34 -3 -15 8 -22 31 -18 13 2 7
-92 -9 -144 -11 -36 -13 -71 -9 -125 7 -94 -3 -114 -32 -63 -39 69 -125 307
-126 348 -2 28 -6 40 -17 40 -27 0 -13 -85 35 -211 80 -207 114 -264 149 -251
19 7 30 84 23 150 -4 33 -1 73 9 111 9 33 17 83 18 111 l3 49 63 16 c35 8 65
21 68 28 5 16 -22 14 -123 -7z"/>
<path d="M2472 11707 c-8 -10 -7 -21 4 -43 23 -42 14 -173 -16 -239 -36 -79
-80 -135 -106 -135 -31 0 -55 38 -62 95 -2 25 -9 48 -14 51 -6 4 -34 -18 -64
-47 l-55 -54 22 50 c12 28 42 87 66 132 50 92 53 126 12 131 -15 2 -40 -5 -56
-15 -17 -10 -54 -31 -82 -48 -48 -28 -67 -55 -38 -55 7 0 35 15 62 33 59 38
106 60 113 53 3 -3 -8 -29 -23 -58 -103 -197 -121 -247 -95 -263 5 -3 35 17
65 46 41 39 55 47 55 34 0 -33 40 -102 65 -113 52 -24 98 18 157 143 27 57 33
85 36 150 5 123 -15 189 -46 152z"/>
<path d="M8836 11658 c-3 -35 -7 -72 -9 -82 -1 -10 3 -21 9 -23 12 -4 31 63
36 127 2 25 -1 35 -13 38 -13 2 -17 -10 -23 -60z"/>
<path d="M10744 11711 c3 -5 0 -11 -8 -14 -8 -3 -20 -23 -26 -44 -7 -21 -21
-50 -31 -65 -38 -53 -15 -68 24 -15 13 17 32 54 43 82 10 27 21 53 22 57 2 5
-4 8 -13 8 -9 0 -14 -4 -11 -9z"/>
<path d="M12764 11683 c-9 -45 -8 -41 -22 -76 -7 -15 -15 -39 -18 -52 -6 -25
-28 -33 -39 -15 -3 6 -14 10 -25 10 -10 0 -21 7 -24 16 -9 23 -28 5 -22 -21 4
-15 -3 -39 -19 -67 -32 -55 -32 -98 -2 -126 l23 -22 -48 -96 c-49 -98 -60
-144 -33 -144 8 0 15 8 15 18 0 10 22 64 50 120 44 90 52 102 75 102 56 0 125
59 125 107 0 14 -12 37 -28 52 l-27 28 27 84 c31 97 33 119 14 119 -8 0 -17
-16 -22 -37z m-67 -187 c7 -7 -61 -136 -71 -133 -33 11 -32 57 3 114 15 24 26
31 42 28 12 -2 24 -6 26 -9z m63 -36 c16 -29 3 -58 -33 -81 -54 -32 -60 -24
-27 41 33 64 43 71 60 40z"/>
<path d="M13654 11705 c-3 -8 1 -29 10 -46 21 -41 14 -60 -31 -95 -27 -21 -40
-25 -52 -17 -38 24 -18 78 25 67 27 -7 32 7 9 26 -21 17 -62 4 -82 -26 -16
-25 -16 -28 4 -64 l22 -37 -25 -48 c-13 -27 -24 -57 -24 -67 0 -30 38 -96 66
-115 34 -22 55 -9 72 43 15 44 9 93 -18 144 l-18 34 50 47 c45 42 49 49 45 85
-5 61 -40 105 -53 69z m-34 -295 c11 -41 0 -94 -21 -97 -18 -3 -48 37 -55 74
-3 19 3 40 17 63 20 33 22 33 35 15 8 -11 19 -35 24 -55z"/>
<path d="M4112 11671 c0 -22 -16 -82 -35 -133 -44 -117 -60 -189 -55 -252 5
-74 28 -73 28 1 0 66 26 177 65 270 28 70 34 153 11 153 -9 0 -14 -13 -14 -39z"/>
<path d="M6587 11703 c-4 -3 -7 -19 -7 -34 0 -15 -22 -92 -50 -170 -53 -152
-63 -213 -32 -207 12 2 16 11 14 28 -1 14 20 90 48 170 27 80 50 155 50 166 0
12 7 24 15 28 8 3 15 10 15 16 0 11 -43 14 -53 3z"/>
<path d="M8707 11703 c-4 -3 -7 -25 -7 -47 0 -23 -9 -72 -18 -111 l-18 -70
-86 0 c-48 0 -90 -3 -94 -7 -12 -13 45 -28 107 -28 32 0 59 -3 59 -7 0 -5 -6
-26 -14 -48 -23 -70 -27 -105 -11 -105 8 0 19 17 25 43 29 107 36 122 66 125
58 5 63 -11 25 -80 -34 -64 -39 -113 -11 -113 9 0 25 28 41 73 31 83 38 94 86
123 41 26 48 21 34 -24 -8 -24 -9 -42 -1 -62 9 -24 15 -27 45 -23 29 3 35 0
40 -19 15 -62 73 -77 172 -48 42 13 73 38 61 51 -2 1 -28 -6 -58 -16 -74 -26
-115 -25 -134 1 -20 29 -9 51 47 94 47 36 58 63 34 83 -21 18 -79 -18 -102
-64 -11 -21 -20 -40 -20 -41 0 -1 -13 -5 -28 -8 l-28 -7 3 63 c3 60 2 64 -20
67 -13 2 -38 -5 -57 -16 l-33 -20 14 34 c14 34 12 54 -6 54 -5 0 -15 -18 -21
-40 -12 -40 -12 -40 -53 -33 -23 3 -42 7 -44 8 -2 2 4 30 12 63 9 33 16 76 16
95 0 20 5 39 10 42 6 3 10 10 10 16 0 10 -33 12 -43 2z m363 -246 c0 -2 -11
-14 -25 -27 -14 -13 -25 -21 -25 -17 0 3 10 15 22 27 21 19 28 24 28 17z"/>
<path d="M4742 11687 c-10 -12 -19 -39 -27 -74 -11 -53 -75 -292 -84 -317 -8
-19 -8 -33 -2 -39 12 -12 31 0 31 19 0 18 5 18 35 -2 21 -14 26 -14 53 0 81
42 111 145 51 177 -21 11 -49 0 -86 -33 -20 -19 -20 -14 12 108 18 71 36 136
40 145 8 21 -9 33 -23 16z m56 -300 c4 -32 -44 -87 -77 -87 -33 0 -28 51 9 90
35 38 64 37 68 -3z"/>
<path d="M3957 11641 c4 -34 -1 -69 -15 -118 -19 -65 -44 -176 -57 -255 -5
-34 -3 -38 15 -38 17 0 20 6 20 40 0 43 9 86 46 220 32 116 32 200 -2 200 -10
0 -12 -12 -7 -49z"/>
<path d="M14722 11673 c-8 -3 -10 -9 -3 -16 6 -8 1 -36 -12 -79 -22 -67 -22
-67 -47 -53 -36 20 -73 18 -98 -5 -20 -19 -52 -105 -52 -140 0 -26 35 -66 71
-80 28 -12 30 -16 24 -44 -17 -84 -18 -96 -3 -96 11 0 19 19 27 60 12 60 13
61 64 84 68 30 94 71 77 122 -7 19 -22 41 -35 50 l-23 15 25 77 c38 117 38
112 17 111 -11 0 -25 -3 -32 -6z m-77 -175 c14 -6 25 -18 25 -26 0 -26 -43
-152 -52 -152 -5 0 -23 7 -40 16 -29 15 -30 18 -26 69 5 56 29 105 53 105 8 0
26 -5 40 -12z m95 -98 c0 -27 -30 -62 -64 -74 -12 -4 -17 -2 -13 6 2 7 13 39
23 70 17 55 19 57 36 41 10 -9 18 -28 18 -43z"/>
<path d="M7145 11660 c-9 -15 14 -40 36 -40 22 0 23 8 5 33 -15 19 -32 22 -41
7z"/>
<path d="M13369 11638 c0 -2 -2 -23 -3 -48 -2 -25 -12 -87 -24 -138 -21 -96
-20 -122 4 -122 10 0 14 12 14 38 0 22 9 74 20 117 24 96 26 155 5 155 -8 0
-15 -1 -16 -2z"/>
<path d="M15317 11634 c-3 -4 -4 -18 -1 -33 5 -22 0 -32 -29 -54 -32 -24 -36
-25 -48 -10 -8 8 -12 29 -10 45 2 26 0 29 -21 26 -31 -4 -35 -41 -8 -75 20
-26 20 -27 1 -47 -49 -55 -51 -119 -4 -156 83 -65 171 32 109 123 -26 38 -32
57 -18 57 4 0 22 13 39 28 24 22 30 35 26 55 -6 28 -26 51 -36 41z m-27 -213
c15 -38 -2 -81 -32 -81 -48 0 -76 45 -58 91 24 58 63 54 90 -10z"/>
<path d="M14262 11589 c-34 -17 -71 -42 -83 -57 -11 -15 -24 -26 -27 -24 -4 2
-8 -1 -10 -7 -7 -22 45 -10 69 15 27 29 90 64 115 64 14 0 16 -7 10 -46 -10
-74 -39 -125 -109 -193 -61 -58 -84 -101 -57 -101 6 0 36 26 66 58 l55 57 22
-26 c12 -15 35 -43 50 -63 15 -20 32 -36 37 -36 21 0 8 29 -41 89 -49 61 -50
63 -34 88 38 58 58 176 33 201 -17 17 -28 15 -96 -19z"/>
<path d="M12914 11589 c-8 -14 -33 -209 -34 -266 0 -29 4 -43 13 -43 9 0 17
41 29 138 8 75 19 147 23 160 5 16 3 22 -8 22 -9 0 -19 -5 -23 -11z"/>
<path d="M14965 11513 c-6 -80 -30 -163 -46 -163 -5 0 -9 -7 -9 -16 0 -12 6
-15 23 -10 12 3 24 6 27 6 22 0 44 250 23 257 -7 3 -13 -21 -18 -74z"/>
<path d="M3803 11573 c-23 -8 -14 -33 12 -33 15 0 25 6 25 14 0 16 -19 25 -37
19z"/>
<path d="M3443 11473 c-40 -19 -73 -41 -73 -49 0 -20 14 -18 80 16 33 17 62
30 65 30 3 0 -10 -24 -29 -52 -44 -67 -53 -100 -31 -118 19 -16 47 -5 98 39
l35 31 6 -25 c16 -64 106 -27 106 43 0 20 8 44 17 54 12 13 13 22 6 29 -19 19
-53 -26 -53 -70 0 -39 -20 -68 -40 -56 -5 3 -10 16 -10 28 0 43 -15 52 -46 29
-16 -11 -40 -32 -53 -46 -14 -14 -28 -26 -33 -26 -17 0 -6 28 38 92 67 99 44
113 -83 51z"/>
<path d="M4934 11455 c-108 -108 -21 -230 121 -171 42 18 48 41 8 32 -98 -23
-135 -16 -146 24 -4 14 0 23 11 27 84 26 103 49 77 89 -20 31 -39 30 -71 -1z
m46 -25 c0 -9 -32 -30 -46 -30 -4 0 1 9 11 20 19 21 35 26 35 10z"/>
<path d="M5804 11464 c-43 -21 -74 -72 -74 -123 0 -34 6 -49 30 -73 28 -27 35
-30 72 -24 47 8 64 18 71 46 6 24 -20 35 -28 11 -7 -22 -59 -35 -85 -21 -15 8
-35 40 -28 45 2 1 20 12 41 24 48 29 71 64 63 95 -8 31 -26 37 -62 20z m36
-32 c0 -13 -23 -38 -52 -57 -35 -22 -36 -6 -2 34 24 29 54 41 54 23z"/>
<path d="M6688 11468 c-35 -28 -48 -130 -20 -160 20 -24 43 -23 71 3 46 43 48
103 4 151 -19 21 -33 23 -55 6z m46 -44 c12 -31 6 -71 -13 -88 -26 -24 -41
-13 -41 30 0 57 39 98 54 58z"/>
<path d="M6925 11456 c-39 -39 -71 -184 -36 -162 5 3 14 28 21 56 17 71 44
103 81 95 22 -5 29 -3 29 8 0 34 -62 36 -95 3z"/>
<path d="M2597 11452 c-21 -23 -67 -122 -67 -144 0 -10 10 -28 21 -39 19 -19
30 -21 96 -17 74 5 101 16 89 37 -5 8 -13 8 -26 1 -10 -5 -44 -10 -74 -10 -45
0 -57 4 -66 20 -9 17 -6 21 22 33 39 17 88 61 88 79 0 23 -30 58 -49 58 -10 0
-25 -8 -34 -18z m43 -34 c0 -14 -40 -58 -52 -58 -5 0 1 18 12 40 19 37 40 46
40 18z"/>
<path d="M7565 11460 c-3 -5 -12 -7 -21 -3 -17 6 -86 -39 -115 -75 -22 -29
-25 -65 -5 -81 19 -16 84 1 114 29 l22 21 0 -59 c0 -33 -3 -87 -6 -121 -6 -53
-9 -61 -28 -61 -35 0 -86 -38 -102 -76 -28 -68 7 -184 56 -184 39 0 100 116
100 189 l0 38 78 6 c88 6 108 12 116 34 9 23 -2 29 -25 14 -12 -7 -52 -15 -90
-18 -55 -5 -69 -3 -70 8 -2 62 3 263 8 302 5 39 3 47 -10 47 -9 0 -18 -4 -22
-10z m-5 -51 c0 -22 -68 -79 -94 -79 -41 0 -32 24 24 65 35 26 70 33 70 14z
m-10 -362 c0 -72 -57 -184 -81 -160 -19 19 -29 94 -18 131 11 32 48 61 82 62
13 0 17 -8 17 -33z"/>
<path d="M7264 11441 c-17 -10 -40 -32 -52 -47 -16 -22 -21 -25 -22 -11 0 11
-8 17 -21 17 -15 0 -19 -4 -15 -16 3 -9 -3 -37 -14 -62 -28 -62 -11 -81 28
-32 116 150 194 177 130 45 -16 -33 -19 -48 -11 -56 9 -9 18 2 37 39 32 64 34
106 4 126 -28 20 -27 20 -64 -3z"/>
<path d="M3787 11443 c-3 -4 -8 -29 -12 -55 -6 -39 -4 -48 8 -48 18 0 34 87
19 102 -5 5 -12 6 -15 1z"/>
<path d="M6349 11411 c-44 -38 -45 -39 -44 -13 0 14 -5 27 -11 29 -7 2 -17
-34 -28 -94 -9 -54 -26 -145 -37 -203 -26 -137 -26 -132 -13 -137 16 -5 39 66
60 185 15 86 19 98 31 86 34 -33 92 2 131 79 52 105 -1 146 -89 68z m81 -4 c0
-20 -40 -90 -62 -109 -33 -29 -41 -22 -34 25 4 30 15 50 38 70 34 29 58 35 58
14z"/>
<path d="M5985 11429 c-4 -5 -1 -18 7 -27 7 -9 21 -31 31 -49 l17 -31 -35 -22
c-41 -25 -65 -60 -41 -60 8 0 18 5 21 10 3 6 20 17 37 26 30 15 31 15 58 -14
30 -33 84 -65 94 -55 12 12 6 22 -9 16 -9 -3 -15 -1 -13 3 2 5 -15 25 -36 45
l-39 35 46 28 c41 23 67 51 67 70 0 14 -28 4 -46 -15 -18 -20 -74 -54 -78 -47
-1 2 -15 24 -30 51 -27 47 -39 56 -51 36z"/>
<path d="M7061 11367 c-31 -64 -39 -97 -22 -97 9 0 81 134 81 151 0 5 -6 9
-14 9 -8 0 -28 -28 -45 -63z"/>
<path d="M10290 11414 c0 -3 4 -14 10 -24 8 -15 3 -25 -32 -54 -23 -20 -45
-36 -48 -36 -4 0 -12 12 -19 27 -11 23 -10 29 5 40 21 15 44 17 44 3 0 -5 7
-10 15 -10 20 0 19 36 -1 44 -45 17 -104 -9 -104 -45 0 -11 9 -38 20 -60 14
-27 18 -45 12 -57 -17 -32 -22 -84 -10 -105 25 -47 64 -59 91 -29 23 26 21 51
-9 108 l-26 49 51 46 c51 45 62 74 39 97 -12 12 -38 17 -38 6z m-45 -228 c21
-49 6 -83 -23 -54 -15 15 -16 88 -1 88 5 0 16 -15 24 -34z"/>
<path d="M10731 11374 c-29 -20 -26 -45 9 -102 37 -61 39 -104 5 -137 -13 -14
-28 -25 -34 -25 -14 0 -41 29 -41 44 0 7 -10 23 -21 35 -16 17 -19 25 -9 31 9
5 9 9 1 14 -17 11 -34 -43 -20 -60 6 -8 15 -11 20 -8 5 3 6 -2 3 -10 -16 -42
49 -86 98 -65 63 26 76 113 28 191 -34 54 -37 68 -15 68 8 0 14 -6 13 -12 -2
-7 4 -13 12 -13 9 0 15 9 15 24 0 31 -35 45 -64 25z"/>
<path d="M13043 11361 c-14 -12 -18 -22 -13 -31 12 -20 63 4 58 27 -4 23 -20
25 -45 4z"/>
<path d="M13814 11319 c-3 -6 -2 -15 4 -21 13 -13 32 -2 32 18 0 16 -26 19
-36 3z"/>
<path d="M11456 10808 c-2 -7 -14 -53 -28 -103 -26 -100 -18 -94 -120 -82 -46
6 -58 4 -58 -7 0 -15 17 -21 93 -31 26 -4 47 -10 47 -14 0 -21 -35 -108 -47
-118 -11 -9 -12 -16 -3 -32 6 -12 15 -21 20 -21 5 0 22 40 37 90 l28 90 43 0
c52 0 54 23 4 28 -18 2 -32 6 -32 10 0 4 11 47 25 96 13 49 22 93 19 97 -8 13
-24 11 -28 -3z"/>
<path d="M11612 10804 c-5 -11 -26 -76 -45 -145 -22 -79 -47 -143 -66 -171
-17 -25 -31 -53 -31 -62 0 -33 29 -14 58 37 33 59 79 117 92 117 5 0 6 -16 3
-34 -9 -56 4 -86 42 -102 19 -8 35 -18 35 -23 0 -26 137 -59 170 -41 26 14 28
46 3 34 -40 -17 -141 4 -150 31 -2 6 10 15 26 22 36 13 61 51 68 102 5 37 3
41 -21 47 -22 5 -34 0 -62 -27 -19 -18 -40 -51 -46 -71 -15 -51 -34 -43 -30
13 4 86 -17 111 -61 72 -19 -17 -19 -17 -14 2 43 139 57 199 48 208 -6 6 -13
2 -19 -9z m178 -223 c0 -23 -24 -73 -40 -81 -33 -17 -40 -12 -29 18 17 43 69
92 69 63z"/>
<path d="M2880 10668 c0 -132 34 -328 56 -328 18 0 18 6 -7 125 -13 69 -19
133 -18 205 1 90 -1 105 -15 108 -14 3 -16 -10 -16 -110z"/>
<path d="M3769 10759 c-9 -17 -9 -24 0 -27 7 -2 11 -37 11 -103 l0 -100 -50 7
c-41 5 -50 4 -50 -9 0 -11 15 -17 54 -22 l55 -7 6 -64 c7 -63 20 -88 35 -65 4
7 3 37 -3 67 -5 30 -6 58 -3 62 4 3 28 7 53 7 26 1 48 6 51 13 5 16 -41 26
-83 18 l-35 -7 0 114 c0 87 -3 117 -14 126 -12 10 -17 8 -27 -10z"/>
<path d="M9341 10702 c-6 -43 -23 -114 -36 -158 -14 -43 -25 -89 -25 -101 0
-44 27 -22 59 46 35 77 62 107 87 97 14 -5 16 -16 11 -63 -6 -55 4 -93 24 -93
5 0 23 -9 38 -21 24 -18 38 -20 92 -16 124 10 129 13 129 85 0 59 24 101 60
109 33 6 39 20 14 30 -44 17 -94 -41 -105 -124 -4 -30 -10 -57 -13 -60 -13
-13 -136 -15 -151 -3 -14 11 -9 17 34 41 55 32 75 59 66 89 -23 73 -115 24
-145 -78 -6 -21 -8 -13 -9 36 -1 35 -6 72 -11 83 -13 24 -52 25 -87 2 -25 -16
-25 -16 -19 2 10 32 26 126 26 151 0 13 -6 24 -13 24 -9 0 -18 -26 -26 -78z
m249 -155 c0 -16 -24 -39 -58 -56 -22 -12 -23 -11 -11 11 26 50 69 78 69 45z"/>
<path d="M7156 10662 c-7 -130 -24 -199 -60 -251 -26 -37 -66 -58 -86 -46 -6
4 -10 20 -10 37 0 36 56 98 89 98 12 0 21 6 21 15 0 10 -10 15 -27 15 -18 0
-40 -14 -70 -45 -35 -37 -43 -52 -43 -84 0 -92 91 -93 154 -3 37 54 54 125 62
259 6 97 5 113 -8 113 -12 0 -16 -22 -22 -108z"/>
<path d="M4518 10739 c-5 -15 27 -261 43 -333 12 -55 32 -86 43 -68 3 5 -1 33
-9 62 -8 30 -12 56 -10 59 23 23 201 -49 230 -93 12 -18 15 -36 11 -61 -5 -27
-4 -35 7 -35 30 0 36 63 11 112 -14 27 -90 71 -178 102 -17 6 -18 8 -2 25 9 9
13 21 9 26 -5 4 -3 5 4 1 17 -9 137 95 141 122 2 12 -1 22 -7 22 -14 0 -33
-38 -26 -50 3 -5 -1 -7 -9 -4 -9 3 -44 -20 -91 -61 -44 -38 -83 -65 -93 -63
-14 3 -20 25 -32 126 -9 80 -18 122 -26 122 -7 0 -14 -5 -16 -11z"/>
<path d="M13056 10718 c-7 -18 -26 -59 -40 -91 -14 -32 -26 -70 -26 -84 0 -23
-2 -25 -12 -11 -51 66 -217 -59 -178 -133 21 -38 90 -19 158 45 23 22 42 34
42 27 0 -7 30 -42 66 -78 52 -51 74 -66 107 -72 80 -13 202 20 215 58 5 15 -3
14 -73 -13 -22 -8 -67 -15 -101 -16 -49 0 -65 4 -79 20 -10 11 -13 20 -7 20 5
0 33 18 60 39 76 60 115 139 88 176 -18 25 -75 13 -111 -23 -32 -32 -75 -113
-75 -142 0 -31 -17 -24 -46 20 -29 44 -29 42 15 149 34 81 43 131 24 138 -7 2
-19 -11 -27 -29z m194 -151 c0 -35 -41 -84 -113 -136 -18 -13 -19 -12 -12 20
8 44 54 110 85 126 35 18 40 16 40 -10z m-290 -57 c12 -7 11 -13 -10 -35 -25
-27 -90 -65 -110 -65 -17 0 -11 36 11 64 32 41 78 56 109 36z"/>
<path d="M10654 10704 c-9 -35 10 -53 26 -24 12 23 7 50 -9 50 -6 0 -14 -12
-17 -26z"/>
<path d="M2728 10703 c-3 -4 -6 -25 -7 -45 -2 -26 2 -38 11 -38 11 0 11 -2 0
-9 -10 -6 -12 -32 -8 -107 5 -112 20 -174 41 -174 8 0 15 3 15 6 0 7 -18 76
-27 104 -4 13 -4 170 0 239 2 23 -17 41 -25 24z"/>
<path d="M5647 10653 c-12 -12 -7 -33 8 -33 16 0 175 -68 189 -81 13 -12 -15
-40 -93 -93 -37 -25 -79 -59 -95 -74 -25 -27 -26 -31 -11 -46 19 -19 35 -13
35 13 0 9 17 29 38 44 172 126 163 118 160 150 -3 28 -11 34 -112 79 -122 54
-111 50 -119 41z"/>
<path d="M7934 10639 c-42 -12 -57 -49 -58 -148 -1 -75 -4 -85 -25 -102 -38
-31 -81 -10 -81 39 0 13 -4 21 -9 18 -5 -4 -7 3 -4 14 4 15 0 20 -16 20 -22 0
-29 -24 -10 -35 6 -4 8 -13 5 -20 -2 -7 4 -26 14 -43 25 -41 73 -51 109 -25
39 30 51 61 51 140 0 81 8 113 21 91 7 -10 13 -8 28 12 17 22 22 23 47 12 30
-14 48 -5 39 20 -7 17 -63 21 -111 7z"/>
<path d="M9005 10602 c-81 -17 -79 -17 -72 -36 5 -13 13 -13 62 0 31 8 61 14
66 12 6 -2 -17 -31 -50 -64 -34 -34 -61 -69 -61 -78 0 -22 35 -20 76 4 l33 21
16 -30 c22 -43 64 -63 96 -48 33 17 51 58 57 133 3 49 1 66 -11 78 -9 9 -17
16 -19 16 -2 0 -3 -30 -3 -67 0 -78 -19 -133 -45 -133 -25 0 -50 27 -57 61 -6
33 -22 36 -61 12 -15 -9 -1 8 31 39 40 37 58 62 55 74 -4 24 -24 25 -113 6z"/>
<path d="M2245 10571 c-69 -32 -109 -115 -81 -170 23 -43 63 -61 138 -61 80 0
111 8 96 24 -7 7 -35 10 -78 8 -74 -4 -101 5 -126 43 -14 21 -14 30 -4 55 7
17 26 42 43 56 25 21 38 25 68 21 26 -3 39 -1 43 9 11 29 -49 38 -99 15z"/>
<path d="M3534 10567 c-35 -31 -27 -54 32 -91 58 -37 104 -75 104 -87 0 -12
-42 -11 -77 1 -15 6 -38 22 -49 37 -12 14 -27 22 -33 19 -21 -14 -11 -36 30
-63 31 -20 54 -27 91 -28 98 0 89 57 -19 127 -35 23 -62 46 -60 51 7 22 36 32
55 20 23 -14 47 -1 39 21 -10 25 -80 21 -113 -7z"/>
<path d="M8313 10575 c-38 -16 -83 -80 -83 -116 0 -44 50 -79 113 -79 53 0 88
13 74 26 -4 4 -30 7 -58 5 -93 -5 -143 60 -55 73 24 4 50 12 59 19 24 19 30
53 12 71 -19 19 -21 19 -62 1z m35 -37 c-5 -14 -58 -30 -58 -18 0 11 30 29 48
30 8 0 12 -5 10 -12z"/>
<path d="M9859 10541 c-38 -37 -49 -55 -49 -79 0 -47 34 -64 127 -66 103 -1
111 20 10 26 -104 7 -111 15 -38 50 65 31 82 58 61 97 -19 36 -57 27 -111 -28z
m87 8 c9 -15 -13 -34 -59 -53 -36 -14 -37 -14 -27 4 11 20 58 60 71 60 4 0 11
-5 15 -11z"/>
<path d="M12401 10554 c-87 -78 -69 -177 30 -162 39 5 34 26 -8 30 -34 3 -38
6 -40 33 -3 31 5 44 49 84 26 23 27 23 21 2 -4 -15 -1 -21 11 -21 8 0 18 11
22 24 14 57 -27 61 -85 10z"/>
<path d="M8074 10537 c-46 -46 -56 -85 -34 -127 13 -25 61 -41 85 -28 13 8 16
7 11 -1 -4 -6 -1 -11 8 -11 34 0 24 20 -16 31 -51 13 -68 25 -68 49 0 12 11
19 38 24 48 7 75 35 70 73 -5 46 -41 43 -94 -10z m60 -17 c-5 -4 -20 -11 -34
-14 -25 -7 -25 -7 5 20 19 17 31 22 33 14 2 -6 0 -15 -4 -20z"/>
<path d="M12690 10573 c-22 -9 -78 -73 -91 -106 -15 -35 -3 -60 31 -65 31 -5
108 26 120 48 17 31 12 85 -10 108 -22 23 -25 24 -50 15z m36 -58 c9 -37 -1
-54 -42 -71 -48 -20 -69 -13 -53 18 17 33 61 78 76 78 7 0 15 -11 19 -25z"/>
<path d="M10577 10564 c-11 -12 -8 -26 4 -18 17 10 2 -64 -22 -104 -22 -38
-25 -66 -6 -60 42 14 83 178 47 185 -9 2 -19 1 -23 -3z"/>
<path d="M10753 10532 c-15 -8 -38 -14 -50 -14 -15 1 -24 -6 -28 -21 -3 -12
-13 -39 -22 -60 -11 -26 -13 -41 -6 -48 7 -7 22 6 49 45 55 78 104 98 126 50
9 -20 9 -30 0 -45 -14 -22 -8 -39 12 -39 30 0 34 77 6 112 -26 33 -52 39 -87
20z"/>
<path d="M6582 10506 c-62 -71 -27 -150 46 -106 l31 19 3 -27 c2 -16 10 -28
21 -30 15 -3 17 2 11 36 -3 23 -1 56 6 77 14 44 8 52 -46 60 -37 6 -43 4 -72
-29z m76 -4 c26 -17 -22 -81 -60 -82 -24 0 -23 31 3 64 21 27 35 31 57 18z"/>
<path d="M2476 10505 c-28 -26 -31 -40 -16 -79 12 -33 56 -35 93 -6 l25 20 7
-31 c7 -32 25 -45 50 -35 13 5 12 9 -5 26 -11 11 -20 30 -21 43 -3 53 -5 62
-14 63 -5 0 -23 6 -38 12 -40 17 -51 15 -81 -13z m87 -25 c10 -9 -39 -50 -59
-50 -22 0 -26 20 -9 46 12 19 21 23 38 18 12 -3 26 -10 30 -14z"/>
<path d="M4009 10490 c-43 -45 -49 -78 -21 -103 23 -21 72 -22 98 -2 26 19 32
19 39 -5 8 -25 44 -45 57 -32 6 6 0 19 -16 35 -21 21 -26 36 -26 74 0 61 -6
69 -54 71 -33 2 -43 -3 -77 -38z m89 -22 c4 -34 -33 -70 -68 -66 -36 4 -36 31
1 67 37 37 63 37 67 -1z"/>
<path d="M6820 10495 c-12 -13 -28 -23 -33 -22 -15 3 -42 -82 -30 -94 6 -6 21
9 41 39 17 27 39 56 48 63 16 13 17 9 11 -53 -5 -55 -4 -68 8 -68 9 0 16 15
20 38 3 20 8 45 10 56 6 29 -13 66 -33 66 -10 0 -29 -11 -42 -25z"/>
<path d="M4278 10491 c-58 -46 -59 -120 -1 -142 29 -11 118 -5 142 10 27 17 2
29 -42 20 -24 -4 -52 -6 -63 -4 -10 2 -24 4 -30 4 -36 3 -11 84 29 95 10 2 17
10 15 17 -7 21 -23 21 -50 0z"/>
<path d="M5590 10499 c-30 -4 -95 -9 -143 -10 -84 -3 -109 -11 -91 -29 11 -11
345 9 358 21 5 5 8 10 5 12 -11 10 -79 13 -129 6z"/>
<path d="M5505 10173 l8 -86 -57 7 c-33 3 -56 2 -56 -3 0 -15 21 -25 65 -31
l40 -5 3 -70 c1 -38 5 -77 8 -85 11 -31 24 15 24 88 0 81 -8 73 90 76 19 1 36
6 38 11 4 14 -56 25 -95 19 -33 -6 -33 -6 -33 33 0 75 -12 133 -27 133 -12 0
-14 -14 -8 -87z"/>
<path d="M2030 10188 c0 -62 27 -166 55 -213 25 -43 82 -102 90 -93 11 11 17
156 8 204 l-10 51 74 11 c77 12 133 35 133 53 0 7 -9 9 -22 6 -86 -23 -158
-37 -187 -37 -33 0 -33 0 -28 -37 4 -21 10 -71 13 -112 8 -83 -3 -91 -43 -32
-25 37 -57 164 -48 192 7 20 -9 49 -26 49 -5 0 -9 -19 -9 -42z"/>
<path d="M3262 10193 c2 -10 10 -18 18 -18 8 0 16 8 18 18 2 12 -3 17 -18 17
-15 0 -20 -5 -18 -17z"/>
<path d="M5785 10200 c-9 -14 13 -40 32 -40 10 0 13 6 9 16 -3 9 -6 20 -6 25
0 12 -27 11 -35 -1z"/>
<path d="M4228 10110 c-34 -26 -70 -112 -62 -145 10 -40 46 -58 102 -52 76 8
100 21 95 51 -6 28 -23 36 -23 11 0 -17 -65 -39 -99 -33 -13 1 -30 13 -38 25
-14 21 -13 23 23 38 72 30 104 81 72 113 -17 17 -42 15 -70 -8z m50 -27 c-3
-17 -68 -62 -68 -46 0 12 49 63 61 63 6 0 9 -8 7 -17z"/>
<path d="M3397 10103 c-14 -13 -6 -49 18 -88 31 -50 33 -85 5 -78 -10 3 -22
14 -25 24 -8 23 -23 25 -32 4 -13 -34 64 -79 93 -54 21 18 16 69 -11 114 -30
49 -31 55 -5 48 13 -4 20 0 20 10 0 22 -47 37 -63 20z"/>
<path d="M4437 10103 c-12 -11 -8 -43 10 -80 l16 -35 -36 -35 c-21 -19 -37
-38 -37 -44 0 -17 27 -9 50 16 31 33 44 32 71 -7 28 -41 41 -50 53 -38 5 5 -5
26 -24 50 l-33 42 26 24 c30 28 43 62 29 76 -7 7 -16 0 -26 -21 -9 -17 -21
-31 -26 -31 -6 0 -10 -8 -10 -17 0 -32 -20 2 -32 55 -12 51 -18 59 -31 45z"/>
<path d="M5968 10073 c-28 -22 -38 -38 -43 -71 -3 -24 -4 -46 -1 -49 14 -14
35 10 41 46 8 46 35 71 78 71 36 0 42 -18 23 -65 -20 -46 -20 -55 -2 -55 16 0
46 69 46 105 0 51 -85 62 -142 18z"/>
<path d="M6220 10073 c-18 -15 -39 -42 -47 -61 -13 -31 -12 -36 3 -53 22 -24
100 -26 125 -3 15 14 19 9 48 -61 18 -42 34 -82 37 -90 4 -8 -8 -15 -38 -19
-67 -10 -120 -45 -131 -85 -7 -29 -3 -44 24 -98 38 -75 58 -90 100 -73 42 18
89 116 89 186 l0 53 70 7 c46 4 74 12 85 24 15 16 13 17 -22 14 -21 -1 -61 -5
-89 -9 l-50 -6 -44 103 c-25 57 -47 123 -50 148 -5 43 -6 45 -41 48 -28 2 -44
-3 -69 -25z m77 -34 c4 -50 -12 -69 -57 -69 -50 0 -53 21 -11 68 39 42 65 42
68 1z m103 -326 c-1 -66 -45 -148 -80 -148 -48 0 -92 124 -55 155 20 16 84 39
113 40 20 0 22 -5 22 -47z"/>
<path d="M4709 10049 c-63 -65 -57 -123 16 -147 47 -16 120 -5 120 17 0 11
-14 14 -60 13 -54 -2 -105 13 -80 24 85 37 117 83 79 111 -27 20 -42 16 -75
-18z m61 -14 c0 -8 -4 -15 -10 -15 -5 0 -10 -6 -10 -14 0 -8 -9 -13 -24 -12
-20 1 -22 4 -13 16 28 38 57 51 57 25z"/>
<path d="M4964 10066 c-33 -15 -74 -60 -74 -82 0 -8 12 -28 28 -44 34 -39 101
-52 128 -26 22 22 3 46 -20 26 -20 -15 -60 -6 -86 20 -16 16 -18 25 -10 40 15
27 67 52 91 45 17 -6 20 -3 17 12 -4 23 -34 27 -74 9z"/>
<path d="M5314 10056 c-3 -9 -1 -30 5 -48 11 -29 9 -35 -10 -50 -46 -38 -119
-7 -119 50 0 33 -24 23 -28 -12 -5 -38 48 -86 95 -86 43 0 90 24 98 49 7 23
-11 97 -25 106 -6 4 -13 -1 -16 -9z"/>
<path d="M2338 10035 c-9 -21 -8 -32 6 -61 15 -33 15 -37 1 -48 -9 -6 -21 -31
-26 -55 -8 -35 -6 -50 8 -79 35 -69 75 -68 102 2 13 33 12 44 -2 87 l-15 50
44 41 c51 47 58 78 18 78 -21 0 -25 -4 -21 -20 3 -14 -4 -28 -25 -45 -37 -31
-42 -31 -57 1 -15 34 -5 47 31 40 24 -5 29 -3 26 12 -2 12 -15 18 -41 20 -31
3 -39 -1 -49 -23z m59 -162 c10 -41 -1 -103 -18 -103 -16 0 -39 64 -32 91 7
27 22 49 33 49 4 0 12 -17 17 -37z"/>
<path d="M3229 10048 c0 -2 -2 -38 -4 -80 -4 -62 -2 -78 9 -78 16 0 33 116 22
145 -4 12 -24 22 -27 13z"/>
<path d="M5780 9992 c0 -58 7 -82 24 -82 8 0 12 20 10 63 -1 49 -5 63 -18 65
-13 3 -16 -6 -16 -46z"/>
<path d="M8630 9693 c-40 -15 -100 -76 -111 -113 -7 -22 -16 -40 -21 -40 -18
0 -6 -17 35 -49 37 -28 48 -32 87 -28 63 7 101 23 94 40 -4 12 -11 12 -42 1
-48 -17 -84 -17 -107 0 -18 13 -18 14 6 26 34 18 88 70 105 103 24 44 -1 76
-46 60z m20 -37 c0 -20 -42 -68 -79 -89 -47 -27 -39 -2 18 54 51 52 61 58 61
35z"/>
<path d="M8990 9690 c-43 -10 -90 -64 -90 -102 0 -18 8 -33 25 -44 23 -15 27
-15 63 3 l39 19 11 -81 c19 -129 18 -135 -22 -135 -48 0 -65 -8 -81 -41 -43
-82 11 -182 80 -151 32 15 61 62 69 114 4 22 13 47 21 55 17 16 12 33 -9 33
-14 0 -20 40 -31 195 -8 115 -14 145 -28 144 -7 -1 -28 -5 -47 -9z m19 -39
c21 -14 5 -58 -27 -74 -53 -28 -71 9 -27 57 26 28 33 30 54 17z m45 -363 c-3
-18 -10 -46 -16 -61 -19 -50 -70 -59 -82 -14 -18 68 6 107 65 107 38 0 38 -1
33 -32z"/>
<path d="M8803 9510 c-8 -13 -9 -21 -2 -25 13 -8 39 13 39 31 0 21 -23 17 -37
-6z"/>
<path d="M9237 9486 c-3 -8 -3 -17 0 -20 8 -7 43 12 43 24 0 15 -37 12 -43 -4z"/>
<path d="M6132 8508 c-30 -17 -64 -47 -77 -67 -32 -48 -72 -172 -80 -247 -13
-112 42 -188 158 -218 55 -14 87 -13 87 4 0 4 -30 14 -66 23 -36 9 -78 26 -93
37 -41 29 -64 92 -56 154 8 63 41 169 67 217 22 40 115 102 145 97 11 -2 18 3
18 12 0 26 -48 21 -103 -12z"/>
<path d="M8100 8513 c0 -10 4 -23 8 -29 9 -14 130 -99 202 -143 30 -18 57 -35
59 -37 3 -3 -6 -12 -20 -21 -51 -36 -109 -96 -140 -146 -18 -29 -44 -65 -57
-81 -15 -19 -20 -32 -13 -39 14 -14 23 -5 85 87 57 84 124 150 161 157 11 3
21 14 23 26 4 24 -16 40 -149 123 -39 25 -88 62 -109 83 -42 42 -50 45 -50 20z"/>
<path d="M7333 8509 c-9 -9 -2 -21 24 -48 52 -53 85 -125 91 -198 7 -94 -13
-138 -105 -222 -45 -42 -70 -72 -63 -76 25 -16 144 96 179 168 21 43 23 59 18
127 -4 65 -11 89 -41 142 -43 78 -87 123 -103 107z"/>
<path d="M9917 8504 c-3 -4 -3 -19 0 -35 7 -38 -36 -261 -54 -274 -19 -15 4
-54 46 -78 81 -48 167 -38 208 25 44 66 29 138 -34 165 -46 19 -93 10 -133
-23 -34 -29 -34 -31 -15 56 25 112 15 197 -18 164z m176 -241 c28 -26 22 -79
-12 -114 -23 -23 -38 -29 -71 -29 -37 0 -100 22 -100 36 0 2 11 27 26 55 37
75 106 97 157 52z"/>
<path d="M3648 8485 c-3 -3 -3 -46 0 -96 l5 -90 -63 7 c-57 6 -62 5 -58 -12 2
-12 12 -19 28 -20 14 0 39 -1 57 -2 l32 -2 3 -77 c2 -63 6 -78 20 -81 15 -3
16 5 11 73 -7 87 -2 95 58 95 36 0 79 22 62 33 -5 3 -34 2 -65 -2 l-56 -7 -4
83 c-4 76 -15 112 -30 98z"/>
<path d="M4822 8477 c-8 -9 -3 -24 19 -57 46 -69 81 -221 57 -245 -13 -13 -86
-22 -102 -13 -40 22 1 88 54 88 20 0 30 5 30 15 0 20 -59 20 -88 -1 -30 -21
-54 -70 -47 -95 9 -27 39 -41 90 -41 54 0 83 15 96 50 18 47 -10 168 -55 241
-12 20 -20 44 -18 54 4 20 -20 23 -36 4z"/>
<path d="M7076 8449 c-3 -8 -7 -84 -10 -169 l-6 -155 66 -2 c58 -2 69 1 90 22
24 25 34 85 13 85 -5 0 -8 4 -4 10 7 12 -30 50 -50 50 -9 0 -30 -7 -46 -16
l-30 -15 2 91 c1 56 -2 95 -9 102 -8 8 -13 8 -16 -3z m133 -246 c2 -44 -54
-69 -92 -40 -16 11 -16 14 0 47 13 25 26 36 48 40 32 6 43 -6 44 -47z"/>
<path d="M4550 8424 c0 -9 14 -39 30 -65 17 -26 40 -73 51 -104 18 -52 18 -59
5 -80 -20 -31 -81 -51 -102 -34 -27 23 11 91 47 82 13 -4 19 0 19 11 0 24 -47
32 -70 11 -24 -22 -43 -79 -35 -105 20 -62 137 -41 176 31 13 25 -12 115 -49
179 -15 25 -27 54 -27 65 0 13 -8 21 -22 23 -16 2 -23 -2 -23 -14z"/>
<path d="M9551 8378 c-5 -13 -10 -32 -12 -43 -3 -16 -14 -21 -59 -25 -71 -6
-67 -24 6 -28 l57 -3 -6 -60 c-5 -46 -4 -59 7 -59 16 0 26 31 26 86 0 46 11
54 83 54 35 0 37 1 22 16 -12 12 -28 15 -61 11 l-44 -5 6 33 c7 39 -12 57 -25
23z"/>
<path d="M9013 8375 c-37 -16 -83 -80 -83 -116 0 -31 35 -79 57 -79 9 0 30 9
48 20 l33 20 10 -27 c22 -63 94 -99 148 -74 40 18 29 33 -19 26 -35 -5 -47 -3
-70 16 -27 20 -28 25 -24 78 3 31 8 70 12 86 6 26 2 32 -23 48 -36 20 -47 21
-89 2z m61 -21 c22 -9 20 -38 -6 -78 -62 -94 -146 -65 -88 30 12 18 33 37 48
43 15 5 28 10 29 10 1 1 8 -2 17 -5z"/>
<path d="M3390 8352 c-55 -27 -52 -55 9 -109 54 -47 67 -83 31 -83 -30 0 -78
27 -90 50 -14 25 -30 26 -30 1 0 -10 16 -33 35 -50 27 -23 45 -31 75 -31 37 0
70 20 70 41 0 23 -31 66 -69 97 -23 18 -41 37 -41 42 0 5 15 13 33 18 17 4 32
14 32 22 0 21 -17 22 -55 2z"/>
<path d="M6454 8357 c-4 -12 -13 -15 -30 -11 -20 5 -33 -3 -70 -39 -40 -40
-45 -50 -42 -84 3 -33 6 -38 32 -41 19 -2 36 4 53 19 l24 23 25 -32 c16 -20
34 -32 50 -32 31 0 32 27 2 32 -34 5 -45 47 -29 109 10 36 10 54 2 62 -7 7
-12 6 -17 -6z m-24 -69 c0 -14 -62 -78 -76 -78 -26 0 -14 42 22 78 29 29 37
33 45 21 5 -8 9 -17 9 -21z"/>
<path d="M3106 8352 c-3 -5 -4 -41 -3 -80 2 -61 5 -72 20 -72 11 0 17 8 17 23
1 12 6 35 13 50 12 28 12 29 30 9 10 -10 21 -39 25 -63 5 -29 13 -44 22 -44
19 0 15 67 -6 108 -19 36 -58 55 -79 37 -13 -10 -15 -9 -15 8 0 22 -15 38 -24
24z"/>
<path d="M2622 8342 c-97 -29 -138 -158 -62 -197 45 -23 164 -15 193 14 19 19
1 21 -76 9 -68 -10 -78 -10 -102 6 -24 16 -27 23 -21 54 8 52 48 82 108 82 43
0 69 12 51 23 -17 10 -69 15 -91 9z"/>
<path d="M8065 8332 c-2 -2 -45 -7 -96 -10 -90 -7 -128 -24 -74 -34 25 -5 254
18 262 26 3 3 2 10 -2 16 -6 10 -80 12 -90 2z"/>
<path d="M2867 8323 c-2 -5 -5 -27 -6 -51 -2 -73 57 -104 128 -67 76 39 22
125 -78 125 -22 0 -42 -3 -44 -7z m101 -38 c27 -8 29 -40 3 -55 -26 -14 -44
-13 -66 4 -17 12 -18 17 -7 41 8 18 18 25 30 21 9 -2 27 -7 40 -11z"/>
<path d="M5350 8295 c0 -12 18 -15 100 -15 82 0 100 3 100 15 0 12 -18 15
-100 15 -82 0 -100 -3 -100 -15z"/>
<path d="M4267 8249 c-29 -22 -57 -68 -57 -93 0 -40 83 -64 110 -31 18 21 29
19 42 -10 12 -26 41 -41 59 -29 8 5 5 12 -10 23 -17 13 -23 30 -26 71 -5 84
-57 114 -118 69z m83 -42 c0 -38 -87 -86 -105 -58 -9 16 17 62 44 76 28 14 61
4 61 -18z"/>
<path d="M7990 8204 c-56 -16 -98 -23 -122 -19 -52 7 -53 -21 -2 -31 46 -9
244 42 244 62 0 19 -20 17 -120 -12z"/>
<path d="M5485 8209 c-33 -4 -77 -5 -97 -2 -30 4 -38 2 -38 -10 0 -30 125 -34
197 -6 21 8 25 31 5 28 -4 -1 -34 -5 -67 -10z"/>
<path d="M6674 8189 c3 -18 1 -50 -5 -71 -12 -48 -56 -93 -74 -78 -14 12 -25
3 -25 -22 0 -30 44 -22 83 15 21 20 40 50 47 76 14 54 6 111 -17 111 -12 0
-14 -7 -9 -31z"/>
<path d="M5384 8048 c-4 -7 -8 -98 -8 -203 -1 -170 1 -190 16 -193 15 -3 17
13 16 185 -1 103 0 194 3 202 5 18 -17 26 -27 9z"/>
<path d="M5096 7898 c1 -72 -2 -140 -7 -149 -5 -10 -5 -20 0 -23 4 -3 11 -19
14 -34 7 -34 52 -58 90 -48 38 9 77 52 77 83 0 49 -20 102 -40 108 -22 7 -73
-17 -92 -44 -11 -15 -13 1 -13 108 0 108 -2 126 -16 129 -15 3 -16 -12 -13
-130z m137 -148 c2 -35 -2 -45 -25 -63 -23 -17 -31 -19 -53 -9 -38 18 -33 53
16 97 47 42 59 38 62 -25z"/>
<path d="M3627 8013 c-2 -4 -5 -44 -6 -88 -1 -43 -4 -81 -6 -83 -2 -2 -13 2
-25 8 -14 8 -26 8 -32 2 -12 -12 27 -42 54 -42 14 0 18 -8 18 -37 0 -66 12
-113 27 -113 13 0 14 12 8 69 l-7 68 77 8 c101 9 97 30 -6 30 l-74 0 0 89 c0
59 -4 91 -12 93 -6 2 -13 0 -16 -4z"/>
<path d="M4449 7974 c-13 -16 -5 -62 25 -139 23 -60 21 -150 -4 -175 -27 -27
-77 -30 -92 -7 -24 37 11 88 62 92 23 1 36 8 38 19 3 12 -5 16 -33 16 -29 0
-45 -8 -71 -34 -43 -43 -46 -85 -8 -122 21 -22 31 -25 61 -19 48 9 70 24 84
57 17 41 12 129 -10 190 -34 95 -35 98 -11 98 27 0 22 20 -7 31 -15 5 -26 3
-34 -7z"/>
<path d="M8780 7980 c0 -22 58 -61 135 -91 44 -17 83 -33 87 -35 9 -6 -99
-151 -169 -227 -29 -32 -53 -64 -53 -72 0 -27 19 -25 37 2 10 15 35 46 56 68
21 22 63 74 92 116 30 42 65 83 77 92 31 20 22 27 -94 75 -53 22 -106 50 -117
61 -22 22 -51 28 -51 11z"/>
<path d="M5582 7910 c-18 -11 -35 -27 -39 -36 -3 -8 -16 -20 -29 -25 -25 -9
-32 -33 -14 -44 6 -4 17 -21 24 -40 17 -41 51 -64 118 -81 57 -15 137 -8 145
13 8 20 2 22 -45 13 -58 -10 -131 6 -164 38 -40 37 -36 56 15 76 52 20 102 68
94 90 -9 23 -65 20 -105 -4z m63 -20 c-8 -13 -66 -43 -71 -37 -7 7 47 47 63
47 8 0 11 -5 8 -10z"/>
<path d="M7729 7895 c-41 -22 -66 -98 -49 -150 10 -32 15 -35 49 -35 24 0 49
8 66 22 22 17 30 19 33 8 9 -25 54 -60 78 -60 24 0 32 14 14 25 -5 3 -10 1
-10 -5 0 -6 -12 2 -26 19 -28 33 -30 50 -18 120 7 41 6 44 -14 39 -14 -4 -22
0 -25 13 -6 23 -59 25 -98 4z m77 -40 c3 -14 10 -25 15 -25 19 0 7 -24 -28
-56 -63 -58 -103 -38 -82 41 17 60 83 88 95 40z"/>
<path d="M2625 7886 c-16 -7 -47 -32 -67 -55 -42 -46 -51 -98 -22 -139 28 -41
94 -63 138 -46 24 9 9 24 -25 24 -37 0 -84 23 -93 45 -14 38 -5 66 34 105 31
31 48 40 75 40 24 0 35 5 35 15 0 8 -4 15 -9 15 -5 0 -15 2 -23 5 -7 2 -26 -2
-43 -9z"/>
<path d="M3342 7854 c-45 -19 -42 -47 11 -85 23 -17 48 -42 56 -56 12 -23 11
-28 -4 -39 -27 -20 -81 5 -77 34 2 15 -2 22 -12 22 -21 0 -21 -34 0 -65 19
-28 60 -40 97 -26 57 22 39 99 -34 148 -27 18 -37 29 -29 37 7 7 14 6 22 -2
18 -18 28 -14 28 12 0 31 -18 37 -58 20z"/>
<path d="M2864 7842 c-40 -27 -46 -111 -9 -147 72 -73 166 10 103 91 -44 56
-71 72 -94 56z m67 -70 c26 -34 22 -66 -11 -70 -14 -1 -31 2 -38 6 -18 12 -32
78 -20 90 15 15 46 3 69 -26z"/>
<path d="M3060 7843 c0 -5 -2 -38 -3 -76 -4 -78 6 -102 28 -73 8 11 17 36 21
55 10 60 12 63 33 51 11 -5 23 -20 26 -32 15 -52 28 -78 41 -78 20 0 17 29 -6
78 -23 48 -61 77 -90 69 -11 -3 -23 -1 -26 4 -6 11 -24 12 -24 2z"/>
<path d="M8603 7842 c-13 -2 -23 -9 -23 -17 0 -10 25 -14 98 -17 98 -4 129 2
96 20 -21 10 -136 20 -171 14z"/>
<path d="M6692 7823 c3 -15 15 -17 98 -14 97 3 110 5 110 22 0 5 -46 9 -106 9
-94 0 -105 -2 -102 -17z"/>
<path d="M4655 7762 c-28 -41 -33 -93 -10 -112 36 -30 125 -3 125 38 0 24 -53
100 -72 106 -13 3 -26 -7 -43 -32z m68 -44 c24 -32 16 -48 -24 -48 -35 0 -46
21 -30 56 13 30 27 28 54 -8z"/>
<path d="M4960 7786 c0 -8 5 -18 10 -21 15 -9 12 -52 -6 -69 -26 -26 -61 -20
-79 14 -8 16 -15 38 -15 50 0 20 -25 38 -36 27 -3 -3 3 -31 12 -63 15 -46 24
-59 48 -69 74 -31 154 56 112 120 -18 27 -46 34 -46 11z"/>
<path d="M6656 7741 c-12 -19 7 -41 43 -51 48 -13 183 0 189 18 3 10 -13 13
-69 12 -120 -2 -129 -1 -129 15 0 16 -25 21 -34 6z"/>
<path d="M8564 7741 c-2 -2 -4 -11 -4 -19 0 -11 18 -13 93 -10 50 1 102 -1
115 -5 16 -6 22 -5 22 7 0 8 -6 18 -12 23 -13 8 -206 12 -214 4z"/>
<path d="M6250 7684 c0 -17 29 -56 82 -107 96 -94 129 -201 91 -288 -41 -93
-156 -217 -174 -188 -6 11 -11 11 -20 2 -10 -10 -10 -18 -1 -38 6 -14 16 -25
21 -25 19 0 146 137 181 195 31 53 35 67 35 130 0 94 -33 165 -104 226 -29 24
-59 56 -67 72 -12 23 -44 39 -44 21z"/>
<path d="M5021 7577 c-80 -105 -124 -243 -101 -313 27 -82 118 -141 232 -152
47 -4 58 -2 58 10 0 11 -14 17 -54 20 -65 5 -162 52 -190 91 -42 58 -15 187
65 307 26 39 48 60 60 60 10 0 19 7 19 15 0 9 -9 15 -25 15 -18 0 -35 -14 -64
-53z"/>
<path d="M4336 7602 c-6 -10 -1 -43 24 -152 30 -133 13 -220 -44 -220 -25 0
-56 28 -56 51 0 20 54 71 71 67 8 -2 14 4 14 12 0 29 -41 22 -79 -13 -44 -41
-48 -82 -13 -123 35 -40 82 -38 118 6 42 49 46 104 20 225 -12 55 -23 110 -24
122 -1 22 -22 39 -31 25z"/>
<path d="M4604 7585 c-15 -23 -14 -30 15 -124 44 -142 41 -185 -19 -216 -70
-36 -120 -8 -95 52 14 34 41 53 74 53 24 0 28 25 5 34 -8 3 -27 0 -42 -8 -87
-45 -104 -149 -29 -176 19 -6 33 -7 35 -1 2 5 11 7 20 5 22 -6 76 28 98 61 23
35 20 86 -12 186 -18 58 -24 94 -20 121 7 44 -6 50 -30 13z"/>
<path d="M5295 7443 c-36 -50 -43 -81 -23 -101 17 -17 70 -15 94 3 26 20 44
19 44 -3 0 -11 8 -26 18 -34 21 -19 55 -32 47 -18 -3 6 3 10 15 10 12 0 18 5
15 10 -3 6 -17 10 -31 10 -36 0 -46 39 -30 123 7 34 5 38 -10 35 -13 -2 -21
-17 -27 -46 -5 -24 -11 -41 -14 -38 -3 3 -17 -4 -31 -14 -28 -22 -72 -27 -72
-7 0 25 61 87 86 87 15 0 24 6 24 15 0 10 -11 15 -35 15 -30 0 -40 -7 -70 -47z"/>
<path d="M6647 7484 c-14 -14 -7 -35 11 -32 9 2 17 10 17 17 0 16 -18 25 -28
15z"/>
<path d="M6032 7456 c-29 -15 -59 -60 -72 -106 -18 -65 43 -107 92 -63 19 17
20 16 36 -4 9 -11 27 -26 39 -32 28 -14 83 -3 83 17 0 11 -7 13 -29 9 -21 -4
-37 -1 -53 12 -24 20 -24 18 9 133 3 11 -5 22 -26 32 -36 19 -49 19 -79 2z
m56 -24 c29 -19 -39 -132 -80 -132 -38 0 -12 92 34 124 26 18 28 19 46 8z"/>
<path d="M3995 7381 c-59 -35 -83 -100 -46 -121 30 -15 60 -12 92 11 l29 20 0
-26 c0 -33 51 -88 74 -79 17 6 22 24 8 24 -5 0 -18 9 -30 20 -29 27 -32 116
-5 136 25 17 13 25 -44 30 -35 3 -57 -1 -78 -15z m61 -50 c-17 -31 -58 -56
-80 -48 -24 9 -20 22 18 55 23 20 42 29 55 25 19 -5 19 -7 7 -32z"/>
<path d="M5666 7343 c-3 -3 1 -18 9 -34 21 -39 19 -88 -5 -126 -21 -35 -44
-43 -54 -17 -8 20 -26 9 -26 -16 0 -28 31 -41 60 -27 59 29 88 126 59 191 -12
25 -32 39 -43 29z"/>
<path d="M6620 7323 c0 -11 5 -24 11 -30 8 -8 8 -21 -1 -47 -14 -43 -45 -68
-77 -60 -28 7 -30 -7 -5 -30 18 -15 21 -15 53 7 48 31 75 89 63 136 -10 39
-44 58 -44 24z"/>
<path d="M6477 6864 c-13 -13 -8 -154 5 -154 9 0 9 -3 0 -12 -7 -7 -12 -32
-12 -57 0 -26 -6 -80 -14 -122 -14 -82 -9 -154 12 -154 14 0 15 11 26 265 10
199 9 234 0 237 -6 2 -13 0 -17 -3z"/>
<path d="M10035 6836 c-40 -17 -85 -71 -85 -100 0 -13 11 -40 25 -60 60 -88
69 -140 39 -216 -17 -42 -39 -60 -73 -60 -29 0 -71 -21 -71 -36 0 -21 15 -25
50 -13 50 18 58 2 37 -75 -38 -145 -8 -211 105 -229 31 -5 40 -2 48 14 13 24
3 46 -13 30 -21 -21 -67 -12 -98 18 -34 34 -37 71 -14 147 17 58 19 100 4 109
-6 5 -2 13 11 22 34 24 60 91 60 154 0 47 -6 65 -41 123 -35 58 -40 72 -31 92
22 48 89 70 150 49 17 -5 22 -4 22 8 0 35 -69 48 -125 23z"/>
<path d="M6186 6782 c-3 -4 -5 -63 -5 -130 -1 -121 -6 -167 -22 -187 -4 -6 -6
-20 -4 -30 2 -11 4 -23 4 -27 1 -5 10 -17 21 -28 45 -45 136 -9 160 65 23 70
-40 127 -101 91 l-29 -17 0 130 c0 115 -8 159 -24 133z m112 -274 c34 -34 -9
-118 -61 -118 -53 0 -53 47 1 103 28 30 42 33 60 15z"/>
<path d="M5373 6749 c-20 -6 -33 -16 -33 -25 0 -12 6 -15 23 -10 51 15 126 18
161 6 109 -36 127 -201 36 -343 -36 -57 -85 -82 -138 -72 l-35 6 7 67 c13 131
19 270 12 296 -3 14 -12 26 -20 26 -10 0 -12 -15 -9 -67 3 -38 0 -111 -7 -163
-6 -52 -12 -100 -12 -107 -1 -7 -5 -10 -10 -7 -5 4 -7 12 -4 19 5 15 -17 39
-27 29 -5 -6 15 -74 30 -97 4 -7 6 -22 4 -35 -2 -20 1 -23 21 -20 13 2 22 9
21 15 -2 8 9 10 31 6 49 -8 100 13 137 55 94 107 116 279 47 368 -44 55 -148
78 -235 53z"/>
<path d="M3452 6734 c-12 -24 -12 -20 -12 -105 l0 -72 -39 6 c-29 3 -41 1 -45
-9 -7 -18 38 -37 65 -29 14 5 19 1 19 -12 1 -26 10 -123 16 -160 3 -19 11 -33
19 -33 13 0 14 68 0 177 -3 31 -2 32 40 38 24 4 51 4 62 1 23 -7 48 8 38 24
-5 9 -28 11 -76 8 l-69 -5 0 59 c0 33 5 69 11 80 8 16 8 24 -4 35 -13 14 -16
13 -25 -3z"/>
<path d="M5143 6683 c-8 -3 -13 -25 -13 -59 0 -48 -2 -54 -24 -60 -13 -3 -39
-4 -57 -2 -25 2 -34 -1 -34 -12 0 -11 13 -16 49 -18 44 -3 47 -5 41 -25 -4
-12 -9 -48 -12 -79 -5 -51 -3 -59 21 -83 21 -20 34 -26 63 -23 49 4 57 28 10
28 -66 0 -83 49 -51 143 16 48 28 55 109 69 20 3 29 34 10 32 -5 -1 -30 -5
-54 -9 l-44 -7 5 51 c5 53 2 62 -19 54z"/>
<path d="M9167 6683 c-4 -3 -7 -12 -7 -19 0 -19 138 -107 203 -129 31 -10 57
-22 57 -25 0 -3 -45 -57 -100 -120 -55 -63 -100 -123 -100 -132 0 -27 14 -22
40 15 46 64 185 215 208 226 34 17 22 33 -34 46 -86 20 -170 64 -235 122 -14
13 -28 20 -32 16z"/>
<path d="M4708 6668 c-7 -19 2 -38 19 -38 9 0 13 8 11 22 -3 25 -23 35 -30 16z"/>
<path d="M6612 6634 c-32 -22 -62 -87 -62 -133 0 -47 25 -128 48 -153 25 -29
73 -22 138 20 66 43 90 67 75 76 -5 4 -39 -14 -74 -39 -102 -71 -134 -58 -153
67 l-7 43 21 -19 c20 -18 22 -18 52 4 60 43 73 116 24 139 -32 14 -35 14 -62
-5z m58 -48 c0 -36 -32 -71 -56 -61 -10 4 -23 7 -27 6 -10 -2 10 38 31 62 23
26 52 22 52 -7z"/>
<path d="M3192 6574 c-36 -25 -28 -61 24 -108 25 -22 50 -49 56 -59 14 -27 -8
-47 -53 -47 -34 0 -41 4 -50 28 -10 25 -12 26 -19 7 -18 -47 36 -82 99 -65 43
11 67 46 57 83 -3 14 -28 44 -56 67 -48 41 -63 69 -37 71 6 1 17 2 22 4 6 1
14 3 19 3 12 3 -14 32 -28 32 -6 0 -22 -7 -34 -16z"/>
<path d="M5793 6560 c3 -14 -5 -30 -28 -53 -41 -41 -54 -101 -31 -145 18 -36
43 -44 83 -27 28 12 63 66 63 98 0 28 -31 102 -52 124 -26 28 -42 30 -35 3z
m51 -104 c16 -65 -56 -129 -84 -75 -24 44 22 129 59 109 10 -5 21 -20 25 -34z"/>
<path d="M8148 6543 c-62 -65 -75 -115 -38 -148 26 -24 65 -13 107 31 l33 35
0 -40 c0 -71 62 -102 135 -69 32 15 35 43 3 33 -50 -15 -79 -17 -94 -4 -16 13
-16 23 3 150 5 34 3 36 -27 43 -65 12 -85 7 -122 -31z m102 -3 c0 -34 -82
-130 -111 -130 -35 0 -13 76 33 115 30 25 78 34 78 15z"/>
<path d="M2433 6544 c-24 -37 -30 -137 -10 -167 18 -28 85 -50 124 -41 55 12
63 16 63 28 0 10 -16 12 -67 9 -60 -5 -70 -3 -87 16 -15 16 -18 31 -14 70 7
68 22 85 70 77 29 -5 38 -3 38 8 0 17 -22 26 -66 26 -25 0 -38 -6 -51 -26z"/>
<path d="M7333 6563 c-29 -6 -49 -31 -36 -44 8 -8 19 -6 37 6 26 17 59 17 164
-1 25 -5 32 -3 32 9 0 26 -122 45 -197 30z"/>
<path d="M2743 6545 c-45 -32 -35 -127 16 -155 28 -15 73 -12 99 6 36 25 28
59 -25 115 -53 54 -59 56 -90 34z m78 -64 c16 -16 29 -36 29 -45 0 -18 -40
-31 -69 -21 -21 6 -47 67 -36 85 12 19 46 10 76 -19z"/>
<path d="M9055 6544 c-11 -1 -51 -6 -88 -9 -47 -5 -70 -11 -74 -22 -9 -22 13
-39 31 -24 8 7 39 14 68 17 159 14 199 20 201 29 2 10 -96 16 -138 9z"/>
<path d="M2915 6456 c0 -46 3 -88 7 -92 4 -4 24 28 44 72 35 77 36 78 49 54 7
-14 15 -42 19 -62 7 -38 19 -53 35 -44 9 6 -9 83 -30 129 -17 38 -53 35 -76
-7 -9 -17 -11 -16 -17 8 -3 14 -12 26 -19 26 -8 0 -12 -24 -12 -84z"/>
<path d="M4547 6522 c-37 -41 -62 -192 -32 -192 9 0 15 9 15 25 0 38 20 121
34 140 11 15 18 16 44 7 22 -7 34 -8 38 -1 9 16 -8 29 -47 35 -26 5 -38 1 -52
-14z"/>
<path d="M4351 6494 c-11 -14 -23 -34 -26 -45 -4 -12 -14 -18 -28 -16 -39 4
-56 -107 -42 -276 5 -48 12 -90 17 -93 11 -7 15 9 23 89 6 65 7 67 35 67 57 0
104 88 104 196 1 47 -4 67 -18 83 -25 28 -40 27 -65 -5z m53 -36 c3 -13 6 -32
6 -44 0 -35 -29 -121 -50 -146 -17 -20 -21 -21 -30 -8 -13 21 -12 56 3 117 14
53 41 103 56 103 5 0 11 -10 15 -22z m-114 -138 c-6 -37 -8 -40 -9 -13 -1 29
8 68 14 61 1 -2 -1 -23 -5 -48z"/>
<path d="M5934 6505 c-4 -9 -4 -42 -2 -75 7 -102 54 -128 116 -63 42 45 62 88
53 119 -10 38 -26 32 -31 -11 -6 -42 -42 -100 -68 -110 -27 -10 -37 14 -37 86
0 50 -4 69 -13 69 -7 0 -15 -7 -18 -15z"/>
<path d="M4878 6485 c-15 -8 -30 -24 -33 -36 -6 -19 -8 -19 -19 -3 -16 22 -22
13 -35 -60 -14 -75 -14 -76 3 -76 7 0 19 13 26 30 22 54 69 120 85 120 13 0
15 -12 14 -73 -3 -84 2 -97 39 -97 36 1 70 26 55 41 -8 8 -13 8 -17 0 -4 -6
-16 -11 -27 -11 -17 0 -19 7 -19 80 0 68 -3 81 -19 90 -24 12 -20 12 -53 -5z"/>
<path d="M4697 6453 c-2 -5 -7 -36 -11 -70 -7 -66 6 -86 24 -37 20 50 8 143
-13 107z"/>
<path d="M9040 6433 c-41 -8 -94 -12 -117 -10 -52 5 -80 -17 -42 -32 22 -8 49
-5 267 26 26 3 42 11 42 19 0 18 -48 17 -150 -3z"/>
<path d="M7284 6418 c-12 -19 13 -24 140 -26 114 -1 136 1 136 13 0 11 -15 16
-62 17 -137 5 -210 4 -214 -4z"/>
<path d="M8437 6283 c-12 -12 -7 -40 9 -54 13 -11 15 -27 11 -89 -21 -270 -21
-280 0 -280 17 0 19 7 19 58 -1 31 3 116 8 189 8 116 7 135 -8 158 -17 25 -27
30 -39 18z"/>
<path d="M9525 6280 c-4 -7 10 -26 34 -46 50 -43 97 -138 110 -222 16 -99 -9
-205 -66 -280 -27 -36 -79 -67 -88 -52 -3 5 -12 7 -20 4 -20 -8 -1 -44 23 -44
20 0 81 36 100 59 26 32 72 136 82 188 27 130 -44 322 -143 387 -18 12 -27 14
-32 6z"/>
<path d="M8225 6240 c-3 -6 -9 -63 -12 -127 -3 -65 -10 -121 -14 -124 -10 -6
-6 -49 6 -86 4 -12 21 -27 38 -34 27 -12 35 -10 76 13 50 27 68 59 57 101 -8
35 -47 45 -92 24 -32 -16 -33 -15 -40 5 -6 20 3 177 12 209 5 18 -22 34 -31
19z m123 -273 c2 -10 -2 -25 -9 -33 -19 -23 -66 -45 -83 -38 -36 14 32 98 74
91 8 -1 16 -10 18 -20z"/>
<path d="M3878 6148 l-3 -93 -32 -3 c-46 -4 -45 -32 1 -32 l33 0 5 -78 c5 -82
12 -107 30 -96 6 4 8 40 4 95 l-5 89 53 0 c33 0 58 5 65 13 17 21 6 25 -60 20
l-61 -4 3 88 c3 76 1 88 -13 91 -15 3 -18 -9 -20 -90z"/>
<path d="M5395 6220 c-4 -6 -3 -35 0 -65 4 -30 4 -66 1 -80 -6 -23 -10 -25
-41 -19 -44 8 -48 -13 -5 -29 29 -11 30 -13 30 -79 0 -54 3 -68 15 -68 12 0
15 14 15 65 0 45 4 65 13 65 37 1 153 22 160 29 18 18 -3 29 -36 21 -17 -4
-52 -10 -77 -14 l-45 -5 0 77 c0 42 4 80 9 83 12 9 -2 29 -19 29 -8 0 -17 -5
-20 -10z"/>
<path d="M6130 6208 c0 -60 -9 -68 -67 -68 -46 0 -54 -3 -51 -17 3 -15 12 -17
48 -15 l45 2 0 -86 c0 -84 1 -86 33 -115 33 -30 61 -35 121 -23 21 5 31 12 31
25 0 22 -3 23 -45 8 -68 -25 -115 17 -115 103 0 80 6 88 62 88 50 0 88 13 88
30 0 5 -28 7 -66 3 l-65 -6 7 27 c11 46 10 60 -8 64 -13 2 -18 -3 -18 -20z"/>
<path d="M7633 6203 c3 -16 19 -65 36 -111 35 -93 38 -130 16 -171 -23 -46
-101 -61 -142 -28 -21 16 -15 64 9 81 25 18 64 21 73 6 11 -17 25 -11 25 10 0
62 -128 33 -150 -34 -17 -51 3 -87 58 -106 37 -13 47 -13 84 0 54 19 88 67 88
125 0 39 -28 132 -64 218 -19 44 -41 50 -33 10z"/>
<path d="M9147 6186 c-163 -58 -221 -291 -106 -429 33 -40 95 -77 129 -77 32
0 19 23 -19 32 -71 19 -141 127 -141 218 0 65 27 133 67 171 46 44 73 59 107
59 29 0 44 19 25 31 -17 11 -16 11 -62 -5z"/>
<path d="M3587 6062 c-27 -29 -21 -46 38 -105 30 -30 55 -60 55 -66 0 -16 -35
-31 -73 -31 -32 0 -35 3 -41 35 -8 43 -26 37 -26 -9 0 -43 16 -56 70 -56 60 0
94 18 98 53 3 21 -8 39 -52 85 -43 45 -53 61 -44 70 7 7 20 12 30 12 10 0 18
7 18 15 0 22 -53 19 -73 -3z"/>
<path d="M4889 6053 c-71 -60 -80 -146 -18 -178 51 -27 146 -12 174 28 33 47
5 131 -54 162 -42 21 -65 19 -102 -12z m103 -29 c22 -8 42 -58 34 -88 -15 -62
-166 -58 -166 5 0 55 57 114 94 98 11 -5 29 -12 38 -15z"/>
<path d="M6784 6068 c-11 -18 40 -25 150 -22 121 4 141 8 130 25 -7 12 -273 9
-280 -3z"/>
<path d="M8606 6059 c-16 -12 -35 -37 -42 -56 -13 -29 -12 -37 1 -62 17 -34
58 -69 90 -77 19 -5 111 24 145 45 12 8 12 12 -3 29 -9 10 -14 22 -10 25 3 4
2 7 -4 7 -15 0 -36 -27 -29 -39 3 -5 -15 -16 -40 -25 -49 -16 -76 -10 -101 23
-14 19 -8 31 17 31 10 0 33 12 50 26 25 21 30 33 28 58 -3 28 -7 31 -39 34
-24 2 -44 -4 -63 -19z m74 -23 c0 -19 -47 -48 -73 -44 -21 3 -21 4 7 31 31 29
66 36 66 13z"/>
<path d="M9293 6048 c-43 -45 -50 -77 -23 -111 26 -33 38 -34 82 -4 l34 24 17
-28 c17 -31 62 -48 80 -30 8 8 3 14 -20 22 -39 13 -58 54 -43 93 5 15 8 32 4
37 -11 19 -34 8 -40 -18 -10 -50 -25 -70 -60 -81 -29 -9 -34 -8 -35 6 -2 32 3
47 23 69 16 17 25 20 34 12 20 -16 36 -2 24 22 -15 28 -42 23 -77 -13z"/>
<path d="M5146 6061 c-4 -5 -9 -36 -12 -68 -6 -54 -4 -61 21 -91 16 -19 36
-32 50 -32 29 0 105 69 105 96 0 10 3 29 6 42 5 16 2 22 -10 22 -9 0 -18 -11
-21 -27 -9 -44 -28 -74 -58 -91 -27 -16 -29 -16 -48 8 -17 20 -19 33 -14 81 4
35 3 59 -3 63 -6 4 -13 2 -16 -3z"/>
<path d="M5667 6040 c-14 -11 -29 -30 -33 -43 l-7 -22 -9 24 c-17 48 -32 3
-40 -122 -4 -67 -9 -135 -10 -151 -2 -16 2 -31 9 -33 7 -3 18 26 29 77 12 56
20 78 28 70 17 -17 43 -11 76 16 42 35 60 74 60 127 0 72 -49 99 -103 57z m57
-16 c37 -14 6 -127 -42 -153 -15 -8 -23 -6 -36 8 -16 17 -15 22 4 75 12 30 29
60 38 66 21 12 17 11 36 4z"/>
<path d="M5826 6035 c-15 -59 37 -155 84 -155 26 0 100 67 100 91 0 11 -10 29
-21 40 -17 17 -23 19 -30 8 -5 -8 -2 -21 9 -32 16 -18 15 -21 -18 -48 -19 -16
-37 -29 -41 -29 -29 0 -65 90 -49 120 5 10 6 20 3 24 -14 14 -31 5 -37 -19z"/>
<path d="M7812 6025 c-40 -33 -56 -74 -43 -108 20 -52 80 -59 134 -16 34 26
37 84 6 123 -26 33 -59 33 -97 1z m88 -67 c0 -21 -8 -31 -30 -43 -60 -31 -94
5 -60 60 35 57 90 47 90 -17z"/>
<path d="M9820 6025 c-21 -22 -21 -25 -6 -31 21 -8 62 28 52 45 -11 16 -20 14
-46 -14z"/>
<path d="M2925 6030 c-35 -14 -66 -57 -72 -98 -4 -33 -1 -44 25 -73 28 -31 34
-34 93 -34 41 0 64 4 66 13 3 8 -10 12 -49 12 -61 0 -93 17 -102 55 -13 50 42
111 92 103 9 -2 18 5 20 15 3 13 -3 17 -25 16 -15 0 -37 -4 -48 -9z"/>
<path d="M3370 6026 c-6 -8 -21 -16 -33 -18 -25 -3 -34 -38 -29 -100 6 -54 26
-47 45 16 29 91 61 99 73 18 10 -66 21 -92 40 -92 12 0 15 5 9 23 -3 12 -11
41 -15 65 -19 87 -58 126 -90 88z"/>
<path d="M7981 6019 c-50 -54 -4 -169 68 -169 25 0 77 44 96 81 20 38 20 99 0
99 -10 0 -15 -10 -15 -32 0 -62 -57 -126 -100 -113 -30 10 -53 105 -26 105 23
0 30 20 13 37 -13 13 -17 12 -36 -8z"/>
<path d="M3151 6004 c-17 -14 -31 -35 -31 -47 0 -46 58 -106 103 -107 21 0 67
43 67 63 0 19 -80 117 -96 117 -7 0 -26 -12 -43 -26z m73 -45 c30 -35 32 -51
11 -69 -12 -10 -20 -9 -40 4 -35 23 -48 51 -35 76 15 28 34 25 64 -11z"/>
<path d="M6992 5983 c-17 -12 -46 -16 -105 -16 -45 0 -91 2 -101 4 -33 7 -28
-18 5 -30 41 -14 85 -14 182 1 75 11 90 21 65 46 -15 15 -18 15 -46 -5z"/>
<path d="M9825 5910 c-3 -5 1 -23 10 -40 9 -17 13 -40 9 -54 -7 -28 -44 -56
-74 -56 -22 0 -28 -25 -7 -33 19 -7 74 21 97 51 25 31 25 68 0 110 -21 34 -26
37 -35 22z"/>
<path d="M5453 5793 c-43 -74 -62 -141 -63 -218 0 -127 35 -192 116 -214 35
-10 41 -9 56 12 10 12 18 25 18 30 0 11 -45 8 -57 -4 -17 -17 -68 15 -84 53
-8 20 -14 69 -14 123 0 80 3 97 32 158 20 42 38 67 48 67 22 0 15 34 -7 38
-11 2 -26 -13 -45 -45z"/>
<path d="M6291 5798 c1 -18 1 -55 0 -82 l-1 -48 -45 6 c-28 5 -45 3 -45 -3 0
-15 34 -31 64 -31 24 0 26 -4 26 -39 0 -48 16 -95 30 -86 6 3 7 30 3 65 l-6
59 53 3 c76 4 80 28 5 28 l-57 0 6 80 c6 76 5 80 -15 80 -17 0 -20 -6 -18 -32z"/>
<path d="M7202 5818 c-17 -17 -15 -25 12 -61 91 -122 88 -234 -11 -355 -19
-24 -46 -48 -59 -52 -30 -12 -31 -30 -1 -30 26 1 50 20 95 76 80 103 95 210
43 312 -16 32 -37 64 -46 72 -11 10 -13 15 -4 20 6 4 8 13 5 19 -9 14 -19 14
-34 -1z"/>
<path d="M4716 5801 c-3 -5 -7 -86 -8 -180 -1 -127 2 -174 12 -186 7 -8 15
-14 17 -11 10 9 5 380 -5 384 -6 2 -13 -1 -16 -7z"/>
<path d="M6938 5728 l-3 -73 -52 -3 c-38 -2 -53 -7 -53 -18 0 -10 13 -14 50
-14 l50 0 0 -49 c0 -49 18 -79 40 -66 13 8 13 35 0 35 -12 0 -13 60 -1 78 4 7
23 12 44 10 20 -1 40 1 44 6 11 11 -18 26 -52 26 -29 0 -30 2 -32 47 -1 26 3
51 10 55 13 8 -9 38 -29 38 -9 0 -14 -20 -16 -72z"/>
<path d="M4098 5607 c3 -137 2 -186 -7 -192 -9 -5 -8 -12 5 -26 9 -10 21 -19
26 -19 10 0 10 318 0 374 -4 22 -12 41 -18 43 -8 3 -10 -48 -6 -180z"/>
<path d="M3003 5635 c-44 -19 -89 -105 -76 -148 14 -50 53 -71 139 -75 63 -4
74 -2 74 12 0 13 -11 16 -54 16 -112 0 -153 38 -117 109 27 52 45 64 98 67 49
3 58 7 48 23 -9 15 -74 13 -112 -4z"/>
<path d="M3645 5617 c-19 -19 -35 -41 -35 -48 0 -7 23 -34 51 -60 35 -32 50
-53 46 -63 -8 -20 -27 -20 -53 -1 -26 20 -34 19 -34 -5 0 -23 28 -40 64 -40
27 0 66 31 66 52 0 7 -22 33 -50 59 -27 26 -50 54 -50 62 0 22 39 47 73 47 40
0 30 24 -12 28 -25 3 -39 -4 -66 -31z"/>
<path d="M5863 5615 c-38 -40 -50 -77 -34 -111 9 -20 18 -24 51 -24 64 0 98
48 70 101 -7 12 -7 19 -1 19 16 0 2 27 -17 34 -9 3 -21 8 -27 10 -5 3 -24 -11
-42 -29z m67 -70 c0 -34 -71 -47 -78 -14 -1 8 7 28 19 44 l23 28 18 -23 c10
-12 18 -28 18 -35z"/>
<path d="M6487 5630 c-14 -11 -32 -20 -39 -20 -16 0 -45 -148 -34 -175 3 -9 2
-13 -4 -10 -11 7 -14 -44 -4 -69 18 -46 48 1 60 94 6 46 7 48 31 39 32 -12 89
12 104 44 9 19 7 32 -10 64 -29 57 -60 67 -104 33z m67 -32 c20 -29 20 -64 0
-72 -24 -9 -54 -7 -54 4 0 6 -9 10 -20 10 -27 0 -25 12 9 49 35 37 45 38 65 9z"/>
<path d="M4889 5614 c-30 -15 -55 -80 -45 -118 14 -57 111 -71 170 -25 35 28
33 51 -9 98 -45 49 -82 64 -116 45z m78 -53 c11 -9 27 -25 33 -35 10 -16 9
-22 -6 -33 -55 -40 -120 -20 -117 35 2 62 35 74 90 33z"/>
<path d="M6031 5599 c-19 -55 -14 -95 16 -118 32 -26 58 -20 96 20 31 33 39
99 12 99 -10 0 -15 -10 -15 -28 0 -42 -27 -74 -58 -70 -25 3 -27 6 -26 48 1
24 6 46 13 48 18 6 12 32 -8 32 -12 0 -23 -11 -30 -31z"/>
<path d="M3252 5613 c-14 -3 -30 -19 -42 -43 -43 -84 -13 -150 68 -150 88 0
108 78 41 159 -19 22 -36 40 -39 39 -3 0 -15 -3 -28 -5z m52 -71 c14 -21 26
-45 26 -53 0 -35 -49 -51 -91 -29 -23 13 -25 50 -4 90 21 40 37 38 69 -8z"/>
<path d="M3398 5614 c-2 -5 -2 -48 0 -96 3 -67 7 -88 18 -88 9 0 14 11 14 33
0 33 37 108 56 114 16 5 34 -51 34 -107 0 -49 19 -88 39 -76 8 5 8 13 1 26 -5
10 -10 36 -10 58 0 64 -34 142 -62 142 -5 0 -20 -12 -33 -26 -14 -15 -25 -23
-25 -17 0 15 -27 47 -32 37z"/>
<path d="M4261 5575 c-45 -49 -48 -60 -27 -108 21 -52 70 -87 121 -87 52 0 75
8 75 25 0 10 -13 12 -54 8 -51 -5 -57 -4 -85 25 -38 37 -39 52 -6 52 75 0 123
72 77 113 -30 27 -57 20 -101 -28z m83 -1 c9 -22 -9 -41 -45 -49 -42 -9 -44
-3 -14 34 30 34 50 39 59 15z"/>
<path d="M6690 5555 c0 -48 3 -57 23 -66 18 -8 33 -7 60 5 36 15 53 45 45 81
-5 27 -23 21 -28 -10 -5 -29 -44 -60 -62 -49 -4 3 -8 25 -8 50 0 32 -4 44 -15
44 -12 0 -15 -13 -15 -55z"/>
<path d="M5152 5584 c-43 -30 -15 -121 34 -111 27 5 24 11 44 -107 6 -37 10
-69 8 -70 -67 -29 -83 -43 -86 -73 -6 -61 63 -159 97 -139 20 13 43 108 37
152 -5 42 -5 43 27 49 17 3 43 5 57 3 19 -2 25 2 25 17 0 22 -18 24 -87 11
l-36 -7 -10 48 c-6 26 -14 86 -17 133 -4 47 -12 91 -17 98 -14 17 -49 15 -76
-4z m58 -39 c0 -14 -8 -29 -20 -35 -17 -9 -20 -7 -26 16 -4 17 -2 29 7 35 25
15 39 10 39 -16z m49 -330 c1 -29 -19 -95 -28 -95 -13 0 -41 47 -47 79 -5 26
-2 33 27 50 32 19 34 20 41 3 3 -9 7 -26 7 -37z"/>
<path d="M3847 5541 c-21 -65 -9 -114 34 -137 95 -49 162 68 87 151 -26 28
-40 35 -69 35 -34 0 -37 -2 -52 -49z m97 -12 c21 -16 26 -28 24 -52 -4 -41
-42 -63 -73 -43 -37 24 -29 116 10 116 7 0 24 -10 39 -21z"/>
<path d="M4522 5438 c-8 -8 -9 -15 -1 -25 16 -19 29 -16 29 6 0 25 -13 34 -28
19z"/>
<path d="M2490 5357 c0 -9 9 -19 20 -22 36 -12 44 -42 21 -86 -30 -57 -27 -94
9 -120 26 -20 28 -24 13 -34 -12 -9 -15 -23 -13 -51 18 -186 -22 -273 -107
-235 -22 10 -25 16 -20 46 4 26 2 35 -8 35 -18 0 -29 -41 -21 -74 4 -15 17
-28 37 -35 49 -17 75 -13 107 14 38 32 55 99 50 201 l-3 77 38 19 c42 22 48
38 15 38 -28 0 -88 35 -88 52 0 6 9 31 21 55 32 66 16 113 -44 128 -21 6 -27
4 -27 -8z"/>
<path d="M2737 5233 c-4 -3 -7 -17 -7 -30 0 -16 6 -23 20 -23 16 0 20 7 20 30
0 28 -17 40 -33 23z"/>
<path d="M2760 5016 c0 -8 7 -16 15 -20 30 -11 14 -76 -37 -149 -18 -26 -21
-27 -33 -11 -16 22 -29 2 -21 -32 9 -33 26 -30 63 9 66 69 93 166 55 200 -23
21 -42 22 -42 3z"/>
<path d="M9950 4949 c-312 -20 -401 -24 -431 -17 -18 3 -37 4 -43 2 -8 -3 -12
-108 -15 -332 -2 -180 -5 -394 -8 -477 -2 -82 -6 -251 -9 -374 -2 -124 -7
-227 -9 -230 -10 -9 -5 -43 9 -56 12 -12 15 -5 20 53 4 37 6 108 5 157 -1 110
20 735 26 753 2 6 0 12 -6 12 -6 0 -6 7 1 19 15 29 13 131 -2 131 -8 0 -9 3
-3 8 16 11 18 132 3 132 -10 0 -10 2 -1 8 7 4 13 37 15 77 l3 70 60 7 c117 13
393 29 615 35 209 5 328 1 712 -27 73 -6 383 -13 688 -16 305 -4 556 -7 557
-8 1 -1 4 -186 7 -411 3 -271 9 -411 16 -413 5 -2 10 -8 10 -13 0 -6 -4 -8 -9
-5 -15 10 -21 -139 -25 -624 -3 -347 -1 -521 9 -645 38 -460 45 -624 45 -987
0 -353 -1 -378 -17 -378 -10 0 -115 -4 -233 -10 -118 -5 -296 -12 -395 -15
-99 -3 -225 -8 -280 -10 -315 -14 -1120 -16 -1404 -4 -414 18 -385 19 -389
-10 -3 -20 -1 -23 15 -16 21 9 180 7 313 -5 232 -20 1696 3 2283 35 l109 6 -2
-38 c-5 -107 0 -185 13 -181 8 3 13 35 14 104 2 54 5 104 7 110 2 6 42 14 88
18 103 8 128 14 128 33 0 11 -8 13 -37 8 -21 -3 -71 -9 -110 -13 l-73 -8 0
386 c0 363 -9 575 -41 925 -18 202 -23 744 -9 1075 9 234 10 315 1 318 -6 2
-11 8 -11 13 0 6 4 8 9 4 6 -3 9 126 8 344 -1 192 -5 347 -9 344 -11 -6 -10 4
3 25 7 12 7 25 0 45 l-11 27 -192 0 c-411 0 -922 12 -1128 27 -263 18 -708 24
-890 12z"/>
<path d="M10648 4880 c-22 -13 -31 -60 -18 -94 5 -15 33 -52 62 -82 42 -45 50
-58 42 -72 -19 -30 -60 -27 -85 7 -13 17 -29 31 -36 31 -9 0 -11 8 -7 25 6 26
-4 33 -23 14 -14 -14 36 -97 70 -116 51 -28 117 -1 117 48 0 11 -24 49 -53 82
-58 67 -70 89 -61 112 4 10 14 13 30 9 30 -8 34 20 5 36 -23 12 -22 12 -43 0z"/>
<path d="M10310 4802 c0 -74 41 -232 66 -253 24 -19 28 -2 10 42 -20 49 -46
168 -46 210 0 19 -5 29 -15 29 -10 0 -15 -10 -15 -28z"/>
<path d="M10826 4822 c-3 -5 -1 -26 5 -46 14 -52 9 -81 -16 -81 -28 0 -25 -28
2 -30 30 -2 31 -4 37 -48 5 -44 14 -60 28 -51 6 4 8 23 4 46 l-7 40 32 -7 c40
-9 36 12 -7 35 -25 14 -30 25 -39 80 -10 59 -25 84 -39 62z"/>
<path d="M11365 4818 c-10 -25 41 -304 57 -314 15 -9 21 26 10 66 -13 51 4 69
39 42 36 -27 181 -103 187 -98 12 13 -12 36 -75 69 -117 62 -114 56 -60 118
26 30 47 59 47 66 0 15 -27 18 -32 4 -6 -19 -100 -111 -112 -111 -8 0 -17 27
-24 76 -10 78 -26 111 -37 82z"/>
<path d="M10226 4802 c-8 -14 12 -214 23 -225 14 -14 33 3 26 22 -4 9 -10 56
-14 104 -8 83 -21 121 -35 99z"/>
<path d="M9833 4775 c-61 -26 -70 -85 -22 -140 17 -19 39 -35 48 -35 9 0 22
-5 27 -10 15 -15 86 -17 91 -3 3 8 -13 14 -47 19 -57 8 -120 55 -120 91 0 32
36 56 88 59 26 1 49 2 51 3 2 1 -2 8 -9 16 -15 19 -65 19 -107 0z"/>
<path d="M10062 4698 c-28 -28 -7 -78 33 -78 13 0 27 -10 35 -25 7 -14 22 -25
32 -25 23 0 23 6 -2 37 -11 14 -20 34 -20 44 0 20 -24 26 -35 9 -9 -15 -25
-12 -25 5 0 9 9 15 25 15 16 0 25 6 25 15 0 18 -50 21 -68 3z"/>
<path d="M10965 4660 c-38 -74 3 -137 62 -95 20 14 22 13 28 -14 7 -32 40 -68
49 -53 3 6 -1 23 -9 38 -8 16 -15 43 -15 61 0 43 -17 51 -44 21 -38 -43 -52
-50 -54 -25 -2 26 17 77 29 77 5 0 9 5 9 10 0 23 -40 8 -55 -20z"/>
<path d="M11135 4646 c-11 -16 -15 -35 -11 -50 14 -58 129 -96 182 -61 33 22
19 41 -19 24 -53 -24 -141 17 -130 60 3 12 15 21 32 23 36 4 33 22 -6 26 -25
3 -35 -2 -48 -22z"/>
<path d="M5827 4633 c-16 -15 -5 -33 19 -33 40 0 116 -81 143 -153 33 -90 29
-187 -10 -266 -43 -85 -91 -133 -126 -125 -22 6 -25 4 -20 -10 4 -10 7 -20 7
-22 0 -2 11 -4 25 -4 56 0 154 137 173 241 12 62 -2 160 -32 223 -41 88 -150
179 -179 149z"/>
<path d="M5494 4595 c-48 -20 -114 -95 -153 -175 -35 -72 -36 -79 -36 -185 0
-97 3 -116 24 -157 14 -26 34 -56 45 -67 33 -31 121 -71 156 -71 44 0 34 22
-14 32 -62 13 -124 56 -154 107 -25 42 -27 55 -27 151 0 99 2 109 34 178 39
84 115 162 156 162 15 0 25 6 25 14 0 21 -22 25 -56 11z"/>
<path d="M4876 4523 c-3 -32 -8 -103 -11 -158 -3 -55 -8 -137 -11 -182 -5 -69
-3 -83 9 -83 16 0 23 46 32 240 3 63 8 143 11 178 4 49 2 62 -10 62 -10 0 -16
-17 -20 -57z"/>
<path d="M3103 4553 c-20 -7 -15 -30 6 -36 22 -5 31 0 31 19 0 14 -20 23 -37
17z"/>
<path d="M3477 4528 c11 -30 5 -199 -8 -214 -5 -6 -32 -14 -59 -18 -49 -7 -73
-22 -48 -31 7 -3 35 -1 62 4 l49 9 -7 -84 c-8 -98 0 -154 21 -154 12 0 14 8
10 36 -3 19 -3 73 0 119 7 95 8 96 93 85 50 -7 83 1 68 16 -3 3 -38 10 -78 16
l-72 11 6 68 c10 96 0 159 -26 159 -16 0 -18 -4 -11 -22z"/>
<path d="M3693 4524 c-7 -3 -13 -11 -13 -17 0 -8 33 -12 108 -13 117 0 153
-11 191 -60 56 -71 49 -167 -19 -272 -31 -48 -47 -63 -84 -77 -38 -15 -51 -16
-73 -6 -24 11 -25 14 -18 64 15 100 21 328 9 338 -20 16 -24 -3 -24 -105 0
-110 -15 -233 -30 -251 -23 -28 37 -85 90 -85 124 1 254 213 210 345 -15 45
-62 100 -104 122 -31 16 -217 29 -243 17z"/>
<path d="M4595 4419 c-14 -41 -16 -70 -11 -135 5 -57 4 -84 -4 -84 -17 0 -8
-95 10 -96 8 0 28 -6 43 -12 63 -26 115 -6 137 54 16 42 12 64 -19 95 -36 35
-48 36 -95 4 l-36 -24 0 24 c0 14 -4 25 -9 25 -12 0 -3 85 15 139 17 55 17 61
0 61 -8 0 -22 -22 -31 -51z m150 -218 c7 -22 -7 -62 -29 -80 -19 -16 -78 -7
-96 14 -10 13 -5 23 33 61 39 39 49 44 66 35 11 -6 22 -19 26 -30z"/>
<path d="M5610 4394 c-41 -38 -50 -53 -50 -80 0 -59 79 -86 132 -44 l25 19 0
-82 c-1 -100 9 -158 26 -151 9 3 12 51 12 175 0 166 -1 172 -21 180 -12 4 -25
12 -29 18 -13 22 -47 10 -95 -35z m87 -4 c3 -11 9 -20 14 -20 19 0 8 -33 -20
-61 -43 -42 -101 -35 -101 12 0 18 73 89 91 89 6 0 13 -9 16 -20z"/>
<path d="M6270 4426 c-14 -18 -6 -50 13 -44 15 6 22 37 10 49 -6 6 -15 4 -23
-5z"/>
<path d="M2887 4316 c-53 -52 -68 -186 -21 -186 10 0 13 16 12 65 -2 59 0 67
27 95 22 23 38 31 60 30 45 -3 49 -1 35 15 -23 27 -76 18 -113 -19z"/>
<path d="M3199 4320 c-16 -15 -31 -24 -35 -19 -3 5 -11 9 -17 9 -8 0 -12 -26
-13 -85 -1 -98 16 -115 36 -37 29 115 88 164 82 68 -4 -59 5 -99 20 -94 14 5
20 135 7 159 -16 30 -49 30 -80 -1z"/>
<path d="M4997 4322 c-9 -10 -22 -34 -29 -53 -6 -19 -16 -37 -22 -41 -10 -7
-8 -14 28 -88 15 -31 36 -35 103 -20 56 14 66 27 33 48 -17 10 -23 9 -40 -8
-24 -24 -65 -26 -74 -4 -13 34 -7 54 18 54 42 0 72 17 86 49 10 26 10 35 -4
56 -20 31 -74 35 -99 7z m77 -27 c8 -21 -28 -55 -59 -55 -19 0 -23 4 -18 18
16 46 64 69 77 37z"/>
<path d="M2685 4314 c-43 -43 -85 -191 -84 -293 1 -74 28 -164 51 -169 11 -2
17 16 26 75 7 43 12 92 12 108 0 24 7 33 33 45 21 10 40 31 55 62 20 40 22 51
12 86 -6 25 -24 52 -45 71 -42 36 -39 36 -60 15z m54 -50 c30 -38 28 -94 -5
-133 -14 -17 -29 -31 -32 -31 -4 0 -5 28 -4 61 3 43 0 64 -9 70 -10 6 -10 13
-1 33 15 33 25 33 51 0z m-79 -197 c-4 -71 -10 -131 -13 -134 -11 -11 -20 71
-14 131 6 59 25 141 32 134 1 -1 -1 -61 -5 -131z"/>
<path d="M4147 4258 c-48 -66 -57 -83 -57 -110 0 -35 32 -68 65 -68 96 0 136
109 67 183 -33 35 -46 34 -75 -5z m76 -55 c11 -58 -49 -115 -87 -83 -23 19
-20 42 14 89 25 34 34 40 49 32 10 -6 21 -23 24 -38z"/>
<path d="M3030 4266 c0 -8 5 -18 11 -22 7 -4 9 -24 6 -50 -5 -45 8 -68 24 -43
12 19 11 86 -1 110 -12 22 -40 26 -40 5z"/>
<path d="M4316 4258 c-3 -13 -6 -48 -6 -79 0 -42 5 -60 20 -77 30 -32 57 -27
101 17 33 32 39 45 39 80 0 30 -4 41 -15 41 -10 0 -15 -10 -15 -33 0 -37 -20
-71 -52 -88 -18 -9 -24 -8 -35 7 -16 22 -17 106 -2 121 6 6 8 16 5 22 -12 19
-33 12 -40 -11z"/>
<path d="M6254 4255 c-4 -10 2 -22 16 -32 20 -14 22 -22 17 -64 -7 -56 -35
-114 -71 -148 -28 -27 -34 -51 -12 -51 34 0 103 112 112 184 9 59 0 90 -31
110 -23 15 -26 15 -31 1z"/>
<path d="M11210 3609 c-80 -4 -298 -15 -485 -24 -361 -18 -663 -16 -817 6
-101 15 -154 5 -151 -27 1 -10 3 -39 4 -64 1 -25 5 -49 9 -55 5 -5 10 -19 13
-30 2 -11 5 17 6 62 1 99 4 101 129 81 127 -19 649 -16 1025 6 356 21 684 19
712 -4 15 -12 16 -33 11 -199 -4 -102 -9 -209 -12 -237 -6 -51 6 -78 26 -58
12 12 22 506 12 522 -5 8 -15 12 -23 11 -8 -1 -43 1 -79 5 -98 10 -219 12
-380 5z"/>
<path d="M10626 3503 c-68 -72 -83 -146 -41 -209 27 -42 120 -61 120 -24 0 10
-8 14 -26 12 -35 -4 -77 32 -85 72 -8 43 16 95 63 136 19 17 31 35 28 40 -10
17 -22 11 -59 -27z"/>
<path d="M10345 3501 c-3 -5 6 -22 20 -37 30 -32 40 -64 31 -99 -8 -30 -34
-44 -46 -25 -11 17 -2 40 15 40 24 0 26 19 4 30 -25 14 -44 0 -54 -41 -5 -19
0 -33 17 -54 29 -34 61 -28 83 15 24 46 19 92 -15 138 -30 42 -44 50 -55 33z"/>
<path d="M11240 3495 c0 -14 13 -20 35 -15 6 1 7 -2 3 -6 -4 -4 1 -19 12 -34
12 -17 20 -44 20 -67 0 -47 -40 -134 -76 -168 -23 -21 -24 -26 -10 -31 21 -8
41 9 73 63 34 59 56 133 43 148 -6 7 -8 19 -4 28 3 9 -9 31 -31 56 -38 42 -65
53 -65 26z"/>
<path d="M10190 3490 c0 -5 15 -24 33 -43 22 -21 31 -38 26 -47 -4 -8 -13 -28
-19 -45 l-13 -30 -7 25 c-5 16 -2 29 6 36 16 13 1 39 -19 31 -24 -9 -31 -64
-13 -92 21 -32 39 -32 65 1 31 39 28 104 -5 143 -25 30 -54 41 -54 21z"/>
<path d="M11115 3446 c-28 -28 -34 -80 -10 -90 9 -3 15 -18 15 -40 0 -44 9
-66 26 -66 13 0 12 33 -2 78 -2 7 4 29 14 49 12 25 14 37 6 40 -7 2 -10 12 -7
22 8 30 -15 34 -42 7z m17 -48 c-7 -7 -12 -8 -12 -2 0 14 12 26 19 19 2 -3 -1
-11 -7 -17z"/>
<path d="M9431 3410 c1 -30 -1 -76 -5 -102 -4 -35 -2 -48 7 -48 8 0 8 -3 1 -8
-11 -7 -18 -358 -18 -887 0 -433 2 -485 21 -485 13 0 14 18 10 123 -8 195 -3
898 6 914 3 4 4 121 3 258 -1 177 -5 256 -14 270 -10 17 -12 12 -11 -35z"/>
<path d="M10790 3440 c-15 -28 4 -60 36 -60 24 0 25 -1 22 -67 -2 -53 0 -68
11 -68 11 0 14 18 15 77 1 42 5 80 9 84 4 4 7 17 7 29 0 20 -6 23 -45 23 -35
1 -47 -3 -55 -18z m55 -20 c-3 -5 -13 -10 -21 -10 -8 0 -12 5 -9 10 3 6 13 10
21 10 8 0 12 -4 9 -10z"/>
<path d="M9980 3414 c-15 -39 -12 -62 11 -75 15 -8 28 -8 44 -1 19 9 24 7 28
-9 5 -18 37 -28 37 -11 -1 27 -30 97 -45 108 -31 23 -64 17 -75 -12z m60 -29
c0 -13 -29 -29 -37 -21 -3 2 -2 14 2 25 7 21 35 18 35 -4z"/>
<path d="M9760 3375 c-4 -97 1 -206 10 -230 9 -22 9 -23 257 -24 136 0 550 -2
918 -4 369 -2 676 -2 683 1 6 2 12 9 12 16 0 9 -209 12 -877 14 -559 2 -890 7
-910 13 -18 6 -37 8 -42 5 -17 -11 -21 11 -22 118 0 59 -4 104 -9 101 -5 -3
-11 7 -13 22 -2 16 -5 1 -7 -32z"/>
<path d="M10935 3348 c-4 -9 -1 -26 5 -37 9 -19 7 -26 -20 -53 -21 -20 -28
-34 -21 -41 21 -21 62 19 76 74 8 32 -29 85 -40 57z"/>
<path d="M10065 2920 c-198 -5 -235 -11 -217 -33 5 -7 6 -41 1 -82 -4 -38 -6
-83 -4 -100 3 -16 7 -54 10 -83 6 -63 20 -93 39 -86 12 5 12 11 -1 42 -18 42
-20 242 -4 286 l11 26 182 0 c101 1 406 3 678 5 370 3 537 0 660 -10 91 -8
186 -13 212 -13 27 1 50 -1 52 -3 2 -2 7 -100 11 -218 l7 -214 -114 7 c-113 6
-1161 31 -1336 31 -50 0 -92 4 -92 8 0 5 -62 7 -137 6 -87 -1 -149 3 -167 10
-24 10 -32 9 -44 -3 -8 -8 -11 -19 -8 -25 10 -16 133 -14 139 2 4 8 8 9 14 1
13 -18 446 -36 1158 -49 160 -3 381 -8 492 -12 156 -5 206 -3 218 7 24 20 9
27 -43 22 l-49 -4 -8 186 c-4 103 -3 192 2 199 4 7 8 26 8 42 0 30 -1 30 -60
32 -33 2 -143 10 -245 18 -185 15 -863 18 -1365 5z"/>
<path d="M11356 2851 c-3 -4 10 -22 29 -40 43 -39 65 -89 65 -151 0 -62 -34
-116 -73 -113 -20 1 -27 -3 -27 -17 0 -39 48 -30 93 17 61 65 48 203 -26 275
-40 39 -52 44 -61 29z"/>
<path d="M10083 2834 c-3 -8 1 -33 10 -55 l15 -39 -28 -15 c-46 -24 -54 -66
-15 -91 40 -26 95 4 95 52 0 14 -10 44 -21 67 -12 23 -22 54 -21 69 1 31 -24
39 -35 12z m45 -151 c-2 -11 -14 -19 -31 -21 -29 -4 -35 6 -15 26 19 19 50 15
46 -5z"/>
<path d="M10985 2815 c-52 -68 -44 -227 15 -286 36 -37 76 -47 98 -25 15 15
15 16 -6 16 -38 0 -78 27 -93 62 -19 44 -18 167 1 202 8 16 25 30 42 33 35 7
32 27 -4 31 -20 2 -33 -5 -53 -33z"/>
<path d="M10633 2793 c10 -63 18 -126 21 -163 2 -21 9 -35 17 -35 16 0 19 40
8 100 -4 22 -11 61 -14 88 -4 33 -11 47 -22 47 -12 0 -14 -8 -10 -37z"/>
<path d="M10473 2803 c-17 -6 -16 -34 5 -114 20 -74 35 -99 63 -99 26 0 67 40
75 72 5 24 2 29 -21 38 -22 8 -33 7 -51 -5 -26 -17 -23 -20 -49 54 -3 7 -1 19
5 26 12 15 -8 35 -27 28z m107 -148 c0 -15 -38 -40 -47 -31 -7 7 26 46 39 46
4 0 8 -7 8 -15z"/>
<path d="M11196 2768 c-22 -30 -20 -55 4 -68 14 -7 26 -8 40 0 18 10 19 6 22
-57 2 -42 8 -68 16 -71 7 -2 12 6 12 21 0 14 -6 28 -12 30 -10 4 -10 6 0 6 8
1 12 18 12 50 0 37 4 50 18 56 15 6 14 9 -11 31 -36 31 -81 32 -101 2z m54
-23 c-7 -8 -19 -15 -27 -15 -13 0 -13 3 -3 15 7 8 19 15 27 15 13 0 13 -3 3
-15z"/>
<path d="M10761 2724 c-42 -53 -23 -129 34 -134 43 -5 65 1 65 14 0 10 -14 16
-42 18 -36 2 -44 7 -46 26 -2 14 2 22 11 22 8 0 25 8 37 18 17 13 21 24 16 40
-10 31 -49 29 -75 -4z"/>
<path d="M10226 2708 c-32 -45 -15 -88 36 -88 42 0 59 41 31 78 -26 35 -47 39
-67 10z m48 -33 c3 -9 -1 -18 -10 -22 -19 -7 -28 2 -21 22 8 19 23 19 31 0z"/>
<path d="M10417 2713 c-4 -3 -7 -19 -7 -35 0 -36 -22 -33 -30 3 -8 33 -36 32
-31 -1 5 -42 19 -57 51 -58 36 -1 50 20 43 66 -5 31 -13 39 -26 25z"/>
<path d="M10870 2614 c0 -8 5 -12 10 -9 6 4 8 11 5 16 -9 14 -15 11 -15 -7z"/>
<path d="M9888 2300 c-10 -6 -18 -14 -18 -18 0 -4 100 -9 222 -10 122 -2 225
-5 229 -8 8 -4 606 -4 1094 1 261 2 320 5 320 16 0 12 -140 14 -835 15 -459 0
-871 4 -915 8 -53 4 -86 3 -97 -4z"/>
<path d="M11754 2214 c4 -44 14 -119 23 -167 8 -48 14 -89 12 -92 -12 -12
-539 -28 -1014 -31 -562 -3 -798 -8 -813 -17 -23 -15 -30 15 -32 138 -1 72 0
141 2 155 2 17 -2 25 -12 25 -22 0 -26 -50 -20 -235 4 -138 7 -165 20 -165 10
0 14 8 12 28 -2 20 2 27 15 27 10 0 88 3 173 6 85 3 409 7 720 9 311 2 583 6
605 9 22 3 111 8 198 11 137 5 157 4 157 -10 0 -8 7 -15 15 -15 8 0 15 7 15
16 0 12 6 15 24 10 14 -3 32 -3 40 0 19 7 22 36 4 33 -7 -1 -27 -1 -43 0 l-31
1 -16 103 c-10 56 -21 131 -25 166 -5 39 -13 66 -21 69 -11 3 -13 -11 -8 -74z"/>
<path d="M10715 2225 c-5 -2 -22 -6 -37 -9 -19 -4 -28 -13 -28 -26 0 -11 5
-20 11 -20 15 0 5 -110 -11 -120 -19 -12 18 -40 51 -40 41 0 68 16 80 48 15
38 2 129 -22 153 -19 19 -24 21 -44 14z m38 -89 c9 -56 -9 -96 -44 -96 -19 0
-21 4 -15 31 3 17 6 52 6 76 0 40 2 44 22 41 18 -2 24 -12 31 -52z"/>
<path d="M11205 2138 c7 -109 12 -128 30 -128 10 0 12 11 8 43 -3 23 -6 72 -6
109 -2 58 -5 68 -20 68 -17 0 -18 -7 -12 -92z"/>
<path d="M10513 2205 c-3 -9 2 -24 11 -34 16 -18 15 -19 -13 -29 -35 -12 -42
-32 -12 -32 15 0 21 -8 23 -32 4 -42 23 -34 22 9 -1 29 2 32 29 35 42 4 48 28
8 28 -29 0 -31 3 -31 35 0 37 -25 50 -37 20z"/>
<path d="M11462 2211 c-7 -4 -15 -21 -18 -36 -3 -16 -9 -34 -14 -40 -4 -5 -11
-26 -15 -47 -7 -38 -23 -48 -77 -48 -37 0 -35 17 4 50 31 26 32 50 2 50 -44 0
-83 -92 -50 -119 22 -19 83 -16 106 4 17 15 20 16 20 2 0 -24 58 -67 91 -67
38 0 37 19 -1 27 -17 3 -40 17 -51 32 -23 29 -20 67 12 140 19 44 15 67 -9 52z"/>
<path d="M11640 2210 c0 -6 10 -24 21 -40 37 -49 39 -180 3 -180 -20 0 -13
-24 9 -28 52 -10 67 137 22 214 -24 40 -55 59 -55 34z"/>
<path d="M10286 2202 c-9 -15 12 -35 29 -28 14 5 15 9 5 21 -14 17 -26 19 -34
7z"/>
<path d="M11060 2191 c0 -11 5 -23 11 -26 6 -4 9 -28 7 -54 -2 -35 0 -46 12
-47 8 -1 19 -2 24 -3 5 0 3 -8 -4 -16 -12 -14 -15 -13 -31 4 -11 11 -19 29
-19 41 0 27 -28 26 -33 -2 -3 -20 -5 -19 -12 10 -8 35 -35 44 -35 12 0 -31 28
-80 46 -80 8 0 26 -7 40 -16 20 -13 30 -15 49 -6 34 16 44 60 17 81 -13 11
-22 33 -27 69 -6 42 -10 52 -26 52 -12 0 -19 -7 -19 -19z"/>
<path d="M11563 2179 c-20 -21 -16 -57 8 -64 18 -6 20 -12 15 -41 -7 -35 7
-74 26 -74 6 0 8 11 5 26 -2 14 2 52 11 85 8 33 13 62 10 64 -12 13 -64 15
-75 4z"/>
<path d="M10082 2145 c-11 -14 -25 -25 -31 -25 -8 0 -11 -23 -9 -72 2 -57 6
-73 18 -73 11 0 15 12 16 40 2 57 3 59 17 47 18 -15 37 0 39 29 5 81 -13 101
-50 54z"/>
<path d="M10201 2136 c-7 -8 -14 -30 -18 -49 -4 -26 -1 -36 12 -41 26 -10 37
3 30 36 -6 24 -3 30 14 35 12 3 21 12 21 19 0 18 -44 18 -59 0z"/>
<path d="M10397 2130 c-28 -23 -37 -60 -13 -60 7 0 16 9 19 20 8 31 25 24 29
-12 5 -50 23 -34 23 19 0 56 -17 65 -58 33z"/>
<path d="M10887 2121 c-22 -38 -21 -54 4 -77 16 -14 24 -16 37 -7 9 6 16 18
16 27 -1 9 2 13 7 10 5 -3 9 0 9 6 0 12 -41 70 -50 70 -3 0 -13 -13 -23 -29z
m34 -44 c-13 -13 -26 -3 -16 12 3 6 11 8 17 5 6 -4 6 -10 -1 -17z"/>
<path d="M10307 2113 c-4 -3 -7 -24 -7 -45 0 -54 24 -45 28 10 3 39 -5 52 -21
35z"/>
<path d="M9432 1862 c-9 -7 -12 -60 -11 -225 0 -119 1 -223 1 -229 0 -7 -4
-40 -11 -72 -15 -79 -14 -96 4 -96 19 0 31 48 17 71 -8 13 -8 19 1 22 9 3 13
72 14 270 2 147 2 267 0 267 -1 0 -8 -4 -15 -8z"/>
<path d="M10645 1815 c-280 -7 -538 -16 -573 -19 -49 -4 -69 -2 -88 11 -20 13
-30 14 -49 5 -30 -14 -32 -32 -4 -39 15 -4 17 -8 8 -13 -17 -11 -17 -261 0
-312 13 -41 44 -51 65 -23 13 16 234 23 1156 34 311 4 572 9 580 11 11 4 16
-4 18 -28 3 -29 25 -53 38 -40 2 3 -3 38 -12 79 -10 50 -15 119 -15 212 1 117
-1 137 -14 137 -12 0 -15 -18 -16 -102 -1 -57 -1 -107 0 -112 1 -5 3 -33 4
-62 l2 -54 -40 -4 c-22 -3 -263 -7 -536 -9 l-496 -4 8 37 c5 20 22 67 39 105
20 45 27 72 21 78 -7 7 -16 -1 -28 -21 -22 -39 -26 -39 -41 -6 -12 26 -32 25
-32 -2 0 -8 10 -28 22 -44 15 -21 18 -33 11 -42 -20 -25 -31 -74 -21 -91 8
-16 -8 -17 -209 -18 -120 0 -229 -2 -243 -4 -14 -2 -72 -4 -130 -5 l-105 -3
-7 49 c-4 27 -3 79 2 116 6 37 7 80 4 96 l-6 30 93 6 c140 9 367 15 729 21
179 3 359 8 400 11 69 4 429 -11 508 -21 24 -3 32 -1 30 8 -14 39 -371 50
-1073 32z"/>
<path d="M11554 1758 c-4 -6 3 -18 16 -28 19 -15 22 -23 16 -55 -4 -20 -19
-48 -33 -61 -23 -21 -24 -24 -8 -31 40 -15 89 88 69 145 -10 28 -49 48 -60 30z"/>
<path d="M11416 1735 c-43 -44 -35 -157 12 -163 26 -4 28 3 7 24 -23 23 -19
89 6 113 12 11 18 24 14 30 -9 15 -21 14 -39 -4z"/>
<path d="M11253 1704 c-3 -8 -1 -33 6 -53 6 -21 11 -49 10 -62 0 -22 -2 -21
-16 9 -19 36 -33 42 -33 13 0 -57 38 -89 68 -59 15 15 16 83 1 110 -9 17 -8
23 5 30 24 14 19 28 -9 28 -14 0 -28 -7 -32 -16z"/>
<path d="M10822 1696 c-35 -17 -55 -113 -26 -123 6 -2 17 16 24 39 l14 43 5
-34 c8 -48 27 -50 48 -5 l18 37 5 -33 c6 -37 26 -51 32 -23 5 22 -8 73 -21 86
-7 7 -15 6 -23 -1 -11 -8 -17 -6 -26 9 -13 21 -17 22 -50 5z"/>
<path d="M10094 1692 c-23 -16 -44 -58 -44 -90 0 -38 19 -50 55 -34 20 9 24 8
28 -10 6 -21 33 -21 31 0 -1 7 -2 30 -2 52 -2 42 -25 57 -35 21 -2 -10 -14
-24 -26 -30 -18 -10 -21 -9 -21 10 0 11 13 33 30 49 28 26 30 40 6 40 -6 0
-16 -4 -22 -8z"/>
<path d="M10356 1663 c-9 -59 -7 -80 9 -97 24 -24 74 5 75 43 0 21 -50 91 -65
91 -7 0 -15 -17 -19 -37z m50 -62 c-13 -20 -26 -11 -26 16 0 25 1 26 16 11 9
-9 13 -21 10 -27z"/>
<path d="M10482 1687 c-10 -12 -14 -85 -5 -100 7 -12 33 13 33 32 0 9 6 23 12
29 10 10 16 8 30 -10 16 -22 17 -22 24 -4 10 26 -8 51 -37 52 -14 0 -30 3 -36
7 -6 4 -15 1 -21 -6z"/>
<path d="M11092 1639 c4 -81 24 -97 68 -54 24 23 30 37 28 63 -4 40 -22 43
-26 5 -4 -30 -19 -53 -34 -53 -5 0 -8 8 -7 18 5 50 -2 82 -17 82 -13 0 -15
-11 -12 -61z"/>
<path d="M10985 1657 c-9 -42 -9 -52 -2 -79 5 -20 14 -28 30 -28 26 0 52 18
59 40 8 25 -20 67 -52 78 -27 10 -30 9 -35 -11z m55 -52 c0 -7 -7 -15 -15 -19
-11 -4 -15 2 -15 26 0 26 2 29 15 18 8 -7 15 -18 15 -25z"/>
<path d="M10246 1663 c-4 -4 -16 -8 -27 -8 -10 0 -19 -3 -19 -7 -1 -63 1 -78
15 -78 8 0 22 15 32 33 l17 32 14 -38 c16 -40 39 -45 34 -7 -6 54 -43 95 -66
73z"/>
</g>
</svg>
