<?xml version="1.0" standalone="no"?>
<!DOCTYPE svg PUBLIC "-//W3C//DTD SVG 20010904//EN"
 "http://www.w3.org/TR/2001/REC-SVG-20010904/DTD/svg10.dtd">
<svg version="1.0" xmlns="http://www.w3.org/2000/svg"
 width="1618.000000pt" height="1214.000000pt" viewBox="0 0 1618.000000 1214.000000"
 preserveAspectRatio="xMidYMid meet">

<g transform="translate(0.000000,1214.000000) scale(0.100000,-0.100000)"
fill="#000000" stroke="none">
<path d="M13171 11681 c-7 -15 -22 -66 -35 -111 -12 -46 -28 -86 -34 -88 -7
-2 -12 4 -12 12 0 28 -43 40 -78 22 -40 -21 -68 -102 -52 -152 11 -31 44 -54
80 -54 19 0 18 -5 -10 -82 -31 -83 -33 -128 -5 -128 9 0 13 10 13 29 -1 16 11
63 27 104 23 65 31 77 55 82 15 3 45 21 65 38 33 29 36 35 26 59 -8 22 -30 42
-69 63 -2 2 37 133 65 218 9 30 -24 20 -36 -12z m-105 -231 c35 0 35 -1 29
-32 -14 -62 -24 -78 -48 -78 -55 0 -73 46 -47 115 10 26 13 28 21 13 7 -12 22
-18 45 -18z m95 -20 c29 -16 23 -48 -13 -70 -18 -10 -34 -17 -36 -15 -5 5 19
95 25 95 2 0 13 -5 24 -10z"/>
<path d="M15014 11653 c-23 -73 -74 -158 -74 -123 0 6 -9 10 -21 10 -28 0 -74
-51 -95 -105 -14 -38 -15 -49 -4 -75 7 -17 21 -35 31 -41 18 -9 18 -12 -6 -75
-29 -76 -33 -124 -10 -124 9 0 15 9 15 23 0 12 10 50 22 84 l22 63 46 -1 c53
-2 106 22 115 50 10 32 -15 107 -45 136 l-28 27 34 71 c19 39 34 77 34 84 0
19 -30 16 -36 -4z m-100 -234 c-33 -81 -38 -87 -59 -56 -15 23 -15 28 0 63 9
21 25 49 37 61 17 18 23 20 34 8 11 -11 9 -23 -12 -76z m78 34 c9 -10 21 -35
28 -56 17 -53 -5 -77 -68 -77 -38 0 -43 2 -38 18 33 88 52 132 57 132 3 0 13
-8 21 -17z"/>
<path d="M15453 11600 c-38 -17 -43 -23 -43 -52 0 -21 11 -45 29 -67 l28 -35
-18 -30 c-37 -61 -20 -136 31 -136 60 0 89 69 56 129 -12 22 -11 27 19 57 54
53 72 154 29 154 -12 0 -15 -6 -10 -25 8 -31 -14 -83 -48 -114 l-26 -25 -30
35 c-16 19 -29 42 -30 52 0 23 69 55 80 36 11 -16 30 -2 30 22 0 25 -40 25
-97 -1z m67 -241 c0 -31 -23 -54 -45 -45 -20 7 -19 55 1 84 15 22 17 22 30 5
7 -10 14 -30 14 -44z"/>
<path d="M13294 11595 c-4 -8 -3 -22 0 -31 4 -10 0 -21 -9 -28 -10 -7 -16 -30
-18 -61 -1 -28 -5 -53 -9 -56 -12 -8 -15 -158 -3 -159 6 0 11 12 12 28 4 59
42 261 53 281 11 22 6 41 -11 41 -5 0 -12 -7 -15 -15z"/>
<path d="M15259 11573 c-27 -63 -64 -272 -51 -285 16 -16 22 -7 28 34 7 64 44
229 54 248 14 25 13 40 -3 40 -7 0 -19 -17 -28 -37z"/>
<path d="M14594 11580 c-49 -25 -89 -64 -79 -80 4 -7 24 2 55 25 42 31 120 58
120 43 0 -10 -60 -134 -73 -150 -8 -10 -22 -15 -33 -12 -13 3 -29 -4 -47 -21
-57 -58 -41 -100 24 -63 l38 21 34 -37 c19 -20 41 -36 48 -36 21 0 44 18 35
27 -8 8 -13 9 -41 12 -9 0 -23 17 -32 36 -16 34 -16 36 4 63 29 39 85 171 78
182 -11 17 -88 11 -131 -10z"/>
<path d="M13966 11540 c-30 -36 -30 -36 -15 -78 9 -26 7 -35 -12 -61 -30 -41
-30 -103 1 -136 32 -34 72 -33 100 2 24 31 21 65 -13 125 -11 21 -19 39 -16
41 2 2 30 23 62 46 31 23 57 48 57 56 0 24 -17 17 -76 -30 -30 -25 -59 -45
-64 -45 -16 0 -11 56 5 70 12 10 18 10 30 0 20 -17 32 -4 19 18 -19 29 -49 26
-78 -8z m37 -169 c24 -41 22 -88 -4 -96 -34 -11 -58 18 -49 64 12 68 26 77 53
32z"/>
<path d="M13777 11543 c-4 -3 -2 -12 4 -19 8 -10 5 -42 -12 -121 -12 -60 -23
-119 -23 -133 -1 -39 26 -31 30 9 2 18 11 60 19 91 8 32 18 86 21 119 6 56 5
61 -13 61 -11 0 -23 -3 -26 -7z"/>
<path d="M13381 11346 c-8 -10 -9 -16 -2 -21 13 -7 51 12 51 25 0 15 -36 12
-49 -4z"/>
<path d="M14175 11330 c-3 -5 -4 -14 0 -20 8 -13 35 -1 35 16 0 16 -26 19 -35
4z"/>
<path d="M7515 11311 c-3 -5 -1 -13 5 -16 11 -7 6 -100 -11 -195 -17 -91 -13
-87 -77 -86 -44 1 -57 -2 -57 -14 0 -9 10 -15 25 -16 87 -3 80 4 80 -79 0 -60
3 -75 15 -75 12 0 15 14 15 70 0 79 -2 77 83 83 63 4 62 4 57 -74 -4 -76 110
-78 169 -3 30 39 27 114 -5 114 -11 0 -13 -9 -8 -39 6 -35 3 -43 -22 -66 -30
-28 -65 -40 -89 -31 -11 4 -15 21 -15 66 l0 60 -81 0 c-72 0 -80 2 -75 18 12
39 25 111 31 177 4 38 9 73 12 78 7 11 -16 37 -33 37 -7 0 -15 -4 -19 -9z"/>
<path d="M4120 11243 c-1 -135 -45 -292 -103 -368 -15 -20 -16 -20 -41 4 -31
29 -56 94 -91 233 -15 56 -29 106 -32 111 -17 27 -67 -96 -93 -225 -6 -32 -22
-85 -35 -118 -24 -60 -20 -83 9 -55 17 18 31 78 21 95 -3 6 -1 9 6 8 6 -2 16
13 21 32 41 156 52 190 58 183 4 -4 20 -55 36 -112 32 -118 71 -187 109 -197
33 -8 54 10 93 84 37 69 58 149 70 261 10 96 6 131 -14 131 -11 0 -14 -17 -14
-67z"/>
<path d="M4610 11303 c0 -5 6 -19 13 -34 23 -43 28 -128 12 -197 -19 -79 -36
-112 -81 -157 -68 -68 -136 -31 -90 51 12 21 31 43 44 49 27 12 29 35 3 35
-22 0 -77 -59 -92 -98 -7 -18 -6 -35 2 -54 14 -34 37 -48 78 -48 38 0 105 55
98 80 -3 11 1 17 11 16 11 -1 24 20 41 64 42 111 29 300 -20 300 -10 0 -19 -3
-19 -7z"/>
<path d="M5761 11271 c-12 -17 -49 -87 -81 -156 -41 -85 -65 -125 -76 -125
-12 0 -15 -6 -11 -21 4 -14 -2 -30 -19 -48 -13 -14 -20 -27 -14 -29 17 -6 11
-20 -7 -18 -10 0 -19 -7 -21 -16 -8 -39 26 -14 72 54 28 40 51 67 53 61 3 -7
17 -8 45 -1 22 5 42 7 43 6 9 -11 13 -68 5 -68 -6 0 -10 -7 -10 -15 0 -8 4
-15 10 -15 15 0 30 36 30 73 0 34 1 35 43 38 l43 4 -12 -34 c-6 -19 -9 -42 -7
-52 9 -33 28 -20 42 29 18 61 27 72 62 72 19 0 29 5 29 15 0 19 -57 20 -85 2
-13 -8 -40 -12 -74 -9 l-53 4 4 107 c2 58 10 117 17 130 21 38 -3 48 -28 12z
m-21 -186 l0 -74 -35 -7 c-20 -3 -37 -5 -39 -3 -4 5 65 159 70 159 2 0 4 -34
4 -75z"/>
<path d="M6813 11219 c3 -11 -1 -65 -10 -119 l-15 -99 -62 -3 c-46 -2 -61 -7
-61 -18 0 -12 12 -14 58 -12 65 4 63 9 42 -88 -14 -69 -14 -75 8 -67 8 3 19
36 27 81 14 81 21 89 85 90 11 1 20 8 20 16 0 11 -10 14 -43 11 l-43 -3 5 34
c3 18 11 62 16 98 6 36 13 73 16 83 4 13 -1 17 -21 17 -23 0 -26 -4 -22 -21z"/>
<path d="M6299 11218 c0 -2 -2 -43 -4 -93 -2 -49 -6 -97 -9 -105 -3 -8 -10
-42 -15 -75 -6 -33 -13 -77 -17 -97 -8 -47 15 -53 36 -10 20 39 79 112 92 112
7 0 8 -16 4 -44 -8 -50 1 -96 18 -96 8 0 12 25 13 75 2 113 -27 130 -93 53
l-27 -33 6 30 c5 28 11 79 21 195 2 25 5 50 6 55 5 22 -1 35 -15 35 -8 0 -15
-1 -16 -2z"/>
<path d="M9335 11208 c-22 -5 -60 -7 -85 -4 -25 3 -50 2 -57 -2 -15 -10 -17
-55 -8 -227 5 -102 4 -148 -5 -170 l-12 -30 -34 69 c-42 87 -83 254 -65 266
10 6 10 12 0 29 -17 27 -49 28 -49 2 0 -54 59 -259 93 -328 30 -58 39 -67 65
-59 37 12 45 67 37 253 -7 158 -6 173 9 167 9 -4 55 -3 101 1 75 6 85 9 85 26
0 21 -13 22 -75 7z"/>
<path d="M2645 11198 c-49 -5 -154 -7 -232 -4 -94 3 -145 1 -149 -6 -14 -22
29 -27 236 -25 l215 2 0 -149 c0 -99 4 -150 11 -153 11 -4 24 142 24 264 l0
53 40 0 c29 0 40 4 40 15 0 17 -40 18 -185 3z"/>
<path d="M11140 11208 c0 -1 -1 -88 -2 -192 -2 -212 -5 -204 75 -205 58 -1
115 71 103 132 -16 79 -65 99 -116 48 l-29 -29 -3 121 c-2 85 -7 122 -15 125
-7 2 -13 2 -13 0z m136 -225 c1 -10 4 -29 8 -43 11 -39 -30 -94 -72 -98 -44
-4 -50 18 -21 80 16 35 33 55 54 64 16 7 30 13 30 14 1 0 1 -8 1 -17z"/>
<path d="M10627 11172 c-3 -4 -8 -41 -12 -82 -3 -41 -15 -121 -26 -178 -26
-132 -26 -132 97 -132 77 0 94 3 94 15 0 17 -17 19 -102 16 -31 -2 -61 0 -66
3 -6 4 -3 38 8 88 22 103 34 264 21 272 -5 4 -12 3 -14 -2z"/>
<path d="M2227 11126 c-3 -7 3 -20 14 -29 24 -21 24 -40 -2 -113 -12 -34 -21
-88 -22 -128 -2 -69 -2 -69 28 -78 18 -5 74 -4 139 3 59 7 151 9 203 6 72 -5
94 -4 90 6 -2 6 -17 15 -33 18 -48 11 -197 10 -277 -1 -51 -8 -82 -7 -102 0
-26 10 -27 13 -21 59 4 27 15 75 26 107 24 70 25 84 3 129 -17 36 -37 45 -46
21z"/>
<path d="M6541 11120 c-16 -9 -6 -30 15 -30 15 0 20 25 6 34 -4 2 -14 1 -21
-4z"/>
<path d="M10933 11102 c-7 -12 -8 -24 -2 -33 7 -12 11 -11 25 3 9 9 14 24 11
32 -8 21 -20 20 -34 -2z"/>
<path d="M4752 11080 c-71 -67 -80 -202 -14 -229 47 -20 172 16 172 49 0 14
-16 12 -48 -4 -43 -21 -96 -28 -114 -14 -9 7 -20 25 -24 41 -5 22 -3 26 10 21
31 -12 116 62 116 101 0 26 -29 55 -56 55 -11 0 -30 -9 -42 -20z m65 -27 c4
-11 -5 -27 -30 -50 -52 -47 -73 -42 -46 10 28 54 63 73 76 40z"/>
<path d="M4275 11080 c-4 -6 -12 -10 -18 -9 -30 4 -38 -2 -32 -21 3 -11 -1
-30 -10 -44 -10 -14 -17 -42 -18 -62 -2 -69 59 -79 113 -17 36 41 37 49 6 93
-21 32 -22 36 -7 48 9 7 10 11 4 7 -7 -3 -13 -1 -13 4 0 14 -17 14 -25 1z m25
-91 c12 -22 -23 -69 -51 -69 -25 0 -26 41 -2 81 18 30 33 27 53 -12z"/>
<path d="M10061 11061 c-22 -30 -27 -51 -13 -51 16 0 64 58 58 69 -11 18 -23
13 -45 -18z"/>
<path d="M7942 11058 c-49 -54 -85 -209 -49 -216 14 -3 17 4 17 37 0 46 33
143 56 162 12 10 20 9 39 -1 32 -17 43 -6 20 20 -24 26 -57 25 -83 -2z"/>
<path d="M12000 11057 c-32 -11 -85 -21 -128 -22 -40 -1 -76 -5 -79 -8 -3 -4
2 -18 11 -32 14 -20 16 -38 10 -88 -9 -87 -18 -100 -38 -53 -9 21 -21 56 -26
79 -6 23 -13 50 -16 60 -3 9 -14 17 -25 17 -20 0 -24 -10 -10 -26 4 -5 14 -31
20 -57 20 -83 50 -137 76 -137 31 0 47 42 48 134 l2 76 33 0 c31 0 161 32 182
45 12 7 14 36 3 34 -5 -1 -33 -10 -63 -22z"/>
<path d="M2450 11028 c0 -24 -5 -63 -11 -87 -7 -30 -7 -47 1 -55 19 -19 29 8
36 97 6 77 5 87 -10 87 -12 0 -16 -10 -16 -42z"/>
<path d="M9571 11054 c-27 -19 -27 -38 -1 -31 23 6 26 -10 5 -37 -8 -10 -12
-24 -8 -30 3 -6 2 -8 -2 -3 -5 4 -33 -16 -62 -45 l-53 -53 -24 26 c-27 29 -38
75 -21 89 7 5 37 11 69 11 40 1 56 6 56 15 0 10 -16 14 -61 14 -37 0 -58 -4
-54 -10 3 -5 0 -7 -8 -4 -46 17 -47 -89 -2 -136 l26 -27 -25 -38 c-31 -45 -33
-76 -8 -98 28 -26 75 -21 106 9 32 33 33 65 2 101 l-24 27 58 63 c32 35 64 77
73 94 26 54 0 92 -42 63z m-75 -287 c8 -26 -24 -59 -55 -55 -19 2 -26 9 -25
23 2 33 8 49 24 61 17 14 47 -1 56 -29z"/>
<path d="M11500 11036 c0 -8 9 -21 20 -29 29 -20 38 -102 16 -145 -21 -41 -52
-50 -80 -23 -18 18 -21 33 -21 94 0 109 -32 97 -34 -13 -3 -123 100 -172 160
-78 17 27 19 44 16 97 -4 55 -9 67 -33 87 -34 27 -44 29 -44 10z"/>
<path d="M8100 11014 c-33 -28 -70 -92 -70 -121 0 -30 37 -81 72 -99 37 -19
105 -22 137 -5 38 21 23 31 -34 25 -68 -8 -107 7 -130 50 -17 31 -17 33 4 74
27 53 65 80 86 62 23 -19 18 -27 -30 -47 -47 -19 -60 -43 -24 -43 11 0 17 4
14 10 -3 5 0 8 7 5 19 -7 78 32 78 53 0 29 -29 62 -55 62 -13 0 -38 -12 -55
-26z"/>
<path d="M6972 11023 c-24 -10 -82 -96 -82 -123 0 -41 32 -64 88 -64 28 0 58
7 71 16 30 21 11 32 -34 19 -45 -12 -89 -1 -92 25 -2 15 11 25 57 46 33 15 63
34 66 43 13 32 -32 55 -74 38z m38 -28 c0 -2 -10 -10 -22 -16 -21 -11 -22 -11
-9 4 13 16 31 23 31 12z"/>
<path d="M7223 11020 c-31 -12 -74 -81 -75 -119 -2 -50 35 -81 94 -81 50 0 88
13 88 30 0 6 -24 7 -60 3 -69 -7 -90 4 -90 47 0 35 44 90 72 90 13 0 18 6 16
17 -4 20 -17 24 -45 13z"/>
<path d="M6062 11007 c-55 -31 -78 -109 -47 -154 17 -25 83 -47 109 -37 29 11
11 29 -33 35 -24 3 -47 12 -52 20 -27 43 20 119 73 119 19 0 28 4 26 13 -6 17
-48 19 -76 4z"/>
<path d="M10909 10928 c0 -24 -1 -65 -2 -93 -2 -39 1 -50 13 -50 11 0 16 17
20 70 6 88 3 115 -16 115 -10 0 -14 -13 -15 -42z"/>
<path d="M6500 10913 c0 -40 -11 -66 -26 -63 -21 3 -13 -28 8 -33 32 -9 39 2
45 72 5 52 3 61 -11 61 -12 0 -16 -9 -16 -37z"/>
<path d="M10066 10831 c-30 -48 -33 -64 -9 -59 23 4 58 77 45 90 -7 7 -19 -4
-36 -31z"/>
<path d="M2470 10378 c-1 -2 -2 -70 -4 -153 -2 -153 -10 -194 -47 -254 l-20
-34 -29 28 c-29 28 -54 95 -69 185 -12 73 -28 113 -44 108 -14 -5 -45 -108
-46 -158 -1 -19 -8 -64 -15 -100 -14 -65 -11 -85 11 -72 9 6 43 186 43 231 0
6 4 11 9 11 5 0 12 -21 16 -47 16 -111 76 -213 124 -213 25 0 63 63 86 142 16
57 24 295 10 318 -5 9 -24 15 -25 8z"/>
<path d="M2940 10367 c0 -7 6 -19 13 -26 21 -21 14 -187 -10 -242 -24 -52 -79
-119 -98 -119 -7 0 -17 18 -23 40 -5 23 -6 40 -1 40 5 0 9 8 9 18 0 26 20 42
52 42 32 0 37 15 10 29 -11 6 -28 5 -49 -4 -37 -16 -58 -68 -50 -127 15 -113
103 -85 168 54 31 66 34 81 34 163 0 110 -8 145 -35 145 -11 0 -20 -6 -20 -13z"/>
<path d="M9255 10330 c-4 -6 -1 -18 7 -27 9 -11 13 -47 13 -113 0 -90 -2 -100
-30 -146 -34 -55 -108 -101 -145 -89 -18 6 -20 12 -15 38 10 48 51 113 90 144
42 34 44 45 8 41 -52 -6 -149 -172 -130 -222 11 -29 52 -41 98 -27 45 14 134
94 123 112 -3 6 2 16 12 24 17 12 19 28 19 128 0 82 -4 119 -14 130 -16 20
-27 21 -36 7z"/>
<path d="M10187 10278 c-83 -18 -209 -96 -250 -155 -43 -62 -30 -128 32 -173
69 -49 316 -81 316 -41 0 12 -13 14 -55 12 -67 -3 -193 24 -236 50 -36 22 -59
68 -51 101 11 40 80 100 161 140 81 39 119 47 132 27 9 -16 26 4 19 24 -9 21
-24 25 -68 15z"/>
<path d="M7803 10254 c42 -224 46 -319 14 -352 -16 -15 -19 -15 -45 0 -35 21
-85 112 -116 208 -13 41 -28 76 -34 78 -52 17 53 -247 121 -304 21 -17 39 -24
61 -22 63 6 82 110 51 283 -8 44 -15 82 -15 85 0 3 33 6 72 7 91 3 118 9 118
29 0 10 -6 14 -17 10 -32 -9 -147 -11 -182 -2 -33 8 -33 8 -28 -20z"/>
<path d="M10455 10270 c-3 -5 -1 -18 4 -28 6 -11 8 -21 6 -23 -2 -3 -11 -60
-21 -127 -25 -188 -4 -221 69 -106 l42 66 8 -40 c7 -37 31 -71 42 -60 3 2 0
20 -5 39 -6 19 -10 54 -8 79 4 73 -21 65 -77 -25 -26 -42 -49 -74 -51 -72 -4
4 12 144 25 214 12 63 -11 120 -34 83z"/>
<path d="M11027 10269 c-18 -11 -23 -45 -7 -51 7 -2 7 -21 0 -58 -25 -127 -5
-291 32 -277 7 2 11 11 9 18 -27 96 -28 89 2 115 16 13 34 24 42 24 8 0 38
-25 68 -55 49 -51 77 -67 77 -47 0 5 -24 35 -54 68 l-54 60 38 21 c25 15 39
31 43 50 3 15 4 30 2 32 -9 9 -37 -11 -42 -30 -8 -29 -77 -62 -115 -54 -28 7
-30 10 -24 39 13 64 18 143 10 149 -5 3 -17 1 -27 -4z m33 -213 c0 -3 -4 -8
-10 -11 -5 -3 -10 -1 -10 4 0 6 5 11 10 11 6 0 10 -2 10 -4z"/>
<path d="M5272 10138 c-38 -31 -41 -37 -52 -116 -7 -45 -9 -89 -6 -98 9 -24
29 -11 32 21 15 152 46 205 109 189 27 -7 33 4 13 24 -21 21 -54 13 -96 -20z"/>
<path d="M2679 10143 c-1 -5 -1 -11 -1 -14 1 -3 -10 -4 -23 -2 -16 4 -34 -5
-60 -29 -32 -29 -38 -42 -42 -84 -7 -66 13 -89 70 -81 45 6 74 29 93 73 13 32
10 93 -8 127 -9 17 -27 23 -29 10z m13 -68 c5 -71 -26 -118 -77 -113 -27 3
-30 7 -33 39 -4 50 36 99 78 96 22 -1 30 -7 32 -22z"/>
<path d="M3077 10124 c-33 -18 -47 -43 -47 -88 0 -76 34 -106 119 -106 35 0
51 4 55 16 9 23 7 34 -5 34 -5 0 -7 -4 -4 -10 4 -6 -13 -10 -44 -10 -39 0 -56
5 -73 22 -17 17 -19 23 -7 26 35 9 59 27 59 44 0 10 7 18 15 18 18 0 19 21 3
42 -20 23 -41 27 -71 12z m48 -34 c7 -12 -33 -49 -52 -50 -18 0 -16 20 4 42
18 20 38 23 48 8z"/>
<path d="M3940 10132 c-57 -25 -85 -69 -76 -118 8 -38 35 -61 83 -70 45 -9
103 3 103 21 0 16 -35 21 -44 6 -9 -14 -79 8 -98 31 -24 27 -23 42 5 72 29 33
69 42 90 22 20 -20 37 -21 37 -2 0 32 -61 55 -100 38z"/>
<path d="M6872 10110 c-22 -16 -45 -37 -51 -47 -6 -10 -11 -12 -11 -5 0 18
-27 15 -34 -4 -9 -23 4 -84 18 -84 6 0 22 21 35 46 21 39 88 101 98 90 2 -1
-4 -19 -12 -39 -19 -47 -19 -101 1 -121 18 -18 56 -21 85 -6 32 18 21 31 -23
28 -40 -3 -43 -1 -46 24 -2 14 7 49 18 77 12 27 19 55 15 60 -11 20 -51 11
-93 -19z"/>
<path d="M4172 10123 c-21 -8 -53 -82 -50 -116 4 -40 38 -48 79 -18 l28 21 3
-33 c4 -45 22 -40 29 8 3 22 9 57 14 78 10 49 -15 51 -45 2 -21 -33 -56 -65
-72 -65 -14 0 -8 35 12 68 11 17 27 32 35 32 8 0 15 7 15 15 0 15 -22 19 -48
8z"/>
<path d="M4365 10118 c-8 -24 -35 -149 -35 -164 0 -26 17 -14 50 38 38 58 65
88 80 88 6 0 10 -26 10 -58 0 -71 15 -95 55 -90 19 2 30 9 30 18 0 10 -8 14
-27 12 l-28 -3 0 69 c0 79 -12 98 -52 83 -14 -5 -35 -22 -47 -38 l-23 -28 8
30 c10 45 10 47 -3 52 -7 3 -15 -1 -18 -9z"/>
<path d="M8951 10095 c-28 -19 -51 -31 -51 -25 0 17 -28 11 -34 -7 -14 -48
-18 -93 -8 -93 6 0 34 25 63 55 56 60 74 59 57 -2 -11 -39 -6 -48 17 -40 9 4
15 19 15 41 0 19 4 46 9 60 7 18 6 27 -3 35 -10 9 -26 3 -65 -24z"/>
<path d="M5750 10113 c-8 -3 -32 -24 -53 -47 l-39 -41 8 30 c10 46 10 50 -5
50 -15 0 -33 -54 -45 -139 -10 -63 10 -61 49 5 16 27 40 59 52 71 l23 21 0
-31 c0 -17 4 -42 10 -56 12 -32 55 -45 77 -23 20 20 8 43 -14 25 -27 -22 -46
17 -38 79 6 52 1 64 -25 56z"/>
<path d="M8023 10110 c-13 -5 -23 -16 -23 -24 0 -25 20 -70 43 -94 l22 -24
-26 -21 c-37 -31 -52 -63 -40 -86 15 -28 78 -80 105 -87 80 -20 96 24 43 120
l-35 63 64 57 c46 41 64 64 64 82 0 20 -5 24 -27 24 -16 0 -36 -7 -46 -14 -18
-14 -63 -10 -73 5 -7 11 -42 11 -71 -1z m78 -34 c27 -14 75 -11 85 5 3 5 10 9
16 9 6 0 2 -10 -10 -23 -12 -13 -22 -29 -22 -36 0 -7 -4 -10 -9 -7 -5 3 -21
-4 -36 -16 -33 -26 -52 -18 -77 32 -13 26 -15 36 -5 42 17 11 28 10 58 -6z
m35 -227 c9 -22 14 -42 11 -45 -20 -21 -117 43 -117 76 0 10 12 28 27 40 l26
20 18 -26 c9 -15 25 -44 35 -65z"/>
<path d="M6592 10094 c-12 -8 -29 -28 -37 -44 -46 -88 34 -149 105 -80 35 34
36 46 13 92 -28 52 -44 58 -81 32z m59 -61 c12 -23 11 -27 -10 -44 -50 -41
-86 -13 -58 46 19 39 46 38 68 -2z"/>
<path d="M8730 10102 c-60 -19 -109 -127 -77 -169 15 -20 62 -15 93 9 15 13
35 23 43 23 18 0 44 105 30 120 -7 6 -13 5 -18 -4 -6 -9 -11 -10 -15 -2 -11
17 -39 29 -56 23z m38 -52 c11 -18 10 -25 -8 -50 -23 -32 -49 -50 -74 -50 -21
0 -20 23 4 69 27 54 56 65 78 31z"/>
<path d="M11366 10101 c-3 -5 -15 -7 -27 -4 -19 5 -20 2 -19 -53 1 -33 -1 -74
-5 -91 -6 -26 -4 -33 8 -33 18 0 37 49 37 96 0 21 9 43 25 60 14 15 25 29 25
30 0 8 -39 3 -44 -5z"/>
<path d="M5500 10090 c0 -6 7 -13 15 -16 27 -11 18 -60 -16 -89 -41 -34 -73
-30 -77 9 -2 16 1 33 7 39 18 18 13 29 -11 25 -19 -2 -23 -10 -26 -45 -4 -59
11 -83 51 -83 78 0 154 103 111 151 -18 20 -54 26 -54 9z"/>
<path d="M10727 10079 c-50 -38 -72 -114 -41 -140 22 -18 80 -2 106 30 20 23
26 25 36 14 9 -8 9 -13 2 -13 -7 0 -10 -15 -8 -37 2 -31 7 -39 26 -41 22 -3
30 12 12 23 -5 3 -10 28 -10 55 0 53 -14 100 -29 100 -6 0 -19 -20 -30 -45
-20 -46 -57 -73 -85 -62 -24 9 18 86 55 100 16 6 28 16 26 22 -6 18 -33 16
-60 -6z"/>
<path d="M11584 10067 c-36 -38 -55 -74 -48 -91 8 -20 58 -21 94 -3 24 13 26
12 25 -11 0 -38 44 -65 112 -69 32 -2 64 0 72 5 21 15 3 33 -25 26 -38 -10
-113 5 -123 24 -5 11 -3 34 7 65 11 34 12 51 4 59 -7 7 -15 1 -27 -21 -11 -22
-32 -39 -62 -52 -25 -11 -48 -17 -51 -14 -3 3 16 25 41 50 26 25 47 47 47 50
0 14 -48 2 -66 -18z"/>
<path d="M8780 9936 c0 -18 16 -29 30 -21 13 8 1 35 -16 35 -8 0 -14 -6 -14
-14z"/>
<path d="M8011 9495 c-57 -49 -74 -145 -46 -265 6 -23 3 -27 -39 -38 -28 -7
-46 -18 -46 -26 0 -23 16 -27 46 -11 16 8 34 15 41 15 11 0 31 -57 55 -159 12
-54 10 -59 -27 -75 -6 -3 -3 -9 5 -15 21 -14 54 9 58 42 2 14 -8 67 -22 118
-14 50 -23 96 -20 101 4 5 27 8 53 6 36 -2 46 0 46 12 0 12 -13 15 -57 15
l-57 0 -11 48 c-15 70 -12 116 9 164 22 48 55 72 65 47 3 -9 6 -25 6 -36 0
-27 24 -18 28 11 4 26 -23 71 -42 71 -8 0 -28 -11 -45 -25z"/>
<path d="M14740 9473 c0 -9 11 -35 25 -58 40 -68 74 -186 77 -262 4 -85 -8
-103 -64 -103 -53 0 -78 15 -78 46 0 29 42 72 68 70 25 -2 21 28 -4 32 -14 2
-35 -10 -58 -31 -41 -39 -49 -92 -18 -120 29 -26 100 -38 138 -22 47 20 58 61
44 172 -9 70 -22 109 -60 191 -45 95 -70 125 -70 85z"/>
<path d="M12539 9462 c0 -4 0 -68 1 -143 2 -155 -8 -191 -62 -233 -38 -29 -58
-32 -76 -14 -32 32 3 118 48 118 23 0 26 13 8 28 -35 27 -98 -41 -98 -107 0
-75 66 -106 126 -59 77 59 84 82 84 262 0 119 -3 145 -15 150 -8 3 -15 2 -16
-2z"/>
<path d="M3925 9323 c0 -60 -6 -152 -13 -205 -10 -72 -10 -102 -2 -118 15 -27
33 -15 27 18 -3 14 1 71 8 127 22 172 18 285 -9 285 -8 0 -11 -33 -11 -107z"/>
<path d="M6975 9404 c-33 -14 -69 -29 -81 -34 -19 -8 -22 -19 -27 -122 -3 -64
0 -136 5 -166 12 -60 1 -86 -26 -63 -27 22 -105 194 -126 275 -20 81 -35 110
-51 100 -11 -7 -12 -44 -1 -44 4 0 13 -26 20 -57 15 -70 77 -213 121 -276 37
-54 62 -60 88 -21 14 23 15 35 6 93 -5 36 -8 107 -6 158 l5 91 61 27 c82 35
89 38 89 50 -1 17 -16 15 -77 -11z"/>
<path d="M2275 9404 c-33 -17 -95 -73 -95 -86 0 -16 21 -7 67 28 38 29 49 33
51 21 2 -9 -2 -25 -7 -36 -6 -11 -11 -29 -11 -41 0 -12 -4 -19 -8 -16 -12 7
-92 -165 -90 -191 2 -24 22 -31 33 -12 4 5 41 37 83 70 84 66 76 67 101 -14
18 -56 54 -91 86 -83 14 4 29 14 32 24 4 9 11 20 17 24 13 8 14 155 1 184 -4
10 -7 41 -5 68 1 36 -2 47 -12 44 -19 -6 -22 -61 -8 -147 28 -173 -57 -237
-92 -69 -7 33 -18 63 -26 65 -7 3 -49 -23 -93 -57 -45 -34 -76 -53 -70 -42 6
10 7 22 4 26 -3 3 -2 6 3 6 6 0 30 41 54 90 38 77 42 92 30 100 -13 8 -12 10
3 10 20 0 23 20 5 38 -15 15 -17 15 -53 -4z"/>
<path d="M4069 9383 c-8 -212 -7 -273 1 -273 6 0 10 -5 10 -11 0 -5 -4 -7 -10
-4 -6 4 -10 -12 -10 -39 0 -26 5 -46 11 -46 5 0 7 -5 3 -12 -4 -6 -3 -8 3 -5
6 4 11 54 11 121 0 63 3 156 7 206 6 79 5 90 -9 90 -11 0 -16 -9 -17 -27z"/>
<path d="M8693 9385 c-3 -9 3 -25 12 -35 11 -12 13 -20 7 -20 -8 0 -12 -24
-12 -71 l0 -72 -55 7 c-45 5 -55 3 -55 -9 0 -8 8 -16 18 -17 31 -3 57 -5 75
-7 14 -1 17 -12 17 -70 0 -76 6 -101 24 -101 9 0 11 23 8 86 l-5 85 36 -14
c19 -9 38 -13 40 -10 12 12 -7 33 -40 44 l-36 11 6 86 c6 82 -2 122 -24 122
-5 0 -12 -7 -16 -15z"/>
<path d="M3784 9325 c-14 -10 -16 -17 -8 -25 13 -13 44 -3 44 15 0 21 -15 26
-36 10z"/>
<path d="M11303 9265 c-68 -29 -64 -79 10 -116 55 -28 77 -48 77 -71 0 -23 -2
-22 -50 2 -43 22 -70 26 -70 10 0 -13 94 -60 119 -60 27 0 43 32 32 63 -10 26
-51 62 -100 89 -40 22 -40 43 1 57 29 10 34 9 50 -11 15 -20 18 -21 23 -6 10
25 -12 58 -38 58 -12 -1 -36 -7 -54 -15z"/>
<path d="M4871 9248 c-47 -32 -72 -68 -78 -114 -4 -33 -1 -45 22 -72 26 -31
75 -45 75 -21 0 6 8 9 19 6 19 -5 51 9 51 22 0 5 -10 7 -22 6 -13 -1 -23 -3
-23 -5 0 -1 -14 -4 -32 -6 -41 -6 -68 29 -58 75 9 41 56 90 94 97 18 4 30 12
28 18 -7 20 -42 17 -76 -6z"/>
<path d="M3450 9238 c-19 -13 -36 -26 -38 -30 -2 -5 -10 -8 -18 -8 -8 0 -14
-4 -14 -9 0 -22 22 -20 60 4 l41 26 -30 -56 c-17 -31 -27 -62 -24 -70 6 -18
74 -20 91 -3 7 7 12 9 12 5 0 -3 11 -2 24 3 20 7 25 5 35 -16 25 -55 81 -13
92 69 5 41 4 55 -10 69 -11 12 -21 14 -31 8 -12 -7 -12 -12 -2 -22 15 -15 16
-80 0 -96 -16 -16 -28 -15 -28 2 0 24 -30 27 -86 9 -30 -9 -56 -14 -60 -11 -3
4 9 32 26 63 45 82 30 107 -40 63z"/>
<path d="M5518 9250 c-9 -6 -44 -13 -77 -16 -34 -4 -61 -7 -62 -8 0 -1 -6 -35
-13 -76 l-13 -75 -17 39 c-10 22 -20 55 -23 73 -6 36 -19 51 -34 36 -11 -11
13 -99 42 -155 35 -69 62 -44 75 71 7 60 7 61 39 61 42 0 127 30 122 43 -5 15
-19 18 -39 7z"/>
<path d="M13094 9228 c-35 -38 -68 -84 -77 -111 -5 -13 2 -28 23 -48 27 -27
35 -30 86 -27 76 4 88 28 14 28 -57 0 -90 13 -90 36 0 17 50 93 74 113 13 11
16 11 16 0 0 -10 3 -10 11 -2 14 14 5 43 -14 43 -7 0 -27 -15 -43 -32z"/>
<path d="M13959 9243 c-8 -10 -28 -37 -43 -60 -16 -24 -30 -43 -30 -43 -1 0
-2 21 -2 47 1 38 -3 48 -17 51 -16 3 -17 -1 -12 -30 4 -20 0 -51 -10 -77 -25
-71 -3 -77 54 -15 45 49 47 50 49 25 4 -53 37 -49 86 10 26 31 27 31 21 6 -10
-39 3 -67 30 -67 31 0 43 20 16 27 -18 5 -20 11 -15 54 4 40 2 50 -12 56 -10
4 -21 0 -28 -8 -6 -9 -24 -31 -39 -50 l-29 -34 6 40 c3 22 7 49 8 59 4 26 -15
31 -33 9z"/>
<path d="M2682 9234 c-12 -8 -34 -38 -48 -66 -29 -57 -27 -103 6 -133 31 -28
131 -40 114 -14 -3 5 -1 9 5 9 5 0 12 -6 14 -12 3 -8 6 -6 6 5 1 14 -8 17 -47
17 -55 0 -78 14 -87 51 -6 23 -3 27 24 32 33 7 101 67 101 89 0 37 -49 49 -88
22z m41 -38 c-10 -14 -28 -29 -41 -35 -20 -10 -22 -9 -12 8 15 29 40 51 56 51
12 0 12 -4 -3 -24z"/>
<path d="M5083 9229 c-18 -12 -30 -26 -26 -32 3 -5 1 -7 -5 -3 -13 8 -52 -40
-52 -65 0 -31 57 -59 121 -59 31 0 63 6 74 14 16 12 17 17 6 44 -15 35 -48 68
-58 58 -4 -4 1 -20 10 -35 28 -48 23 -54 -37 -49 -100 8 -106 44 -15 100 27
17 46 35 43 39 -8 14 -26 10 -61 -12z"/>
<path d="M9120 9238 c-13 -5 -28 -14 -32 -21 -12 -18 -10 -165 3 -172 18 -12
21 1 23 82 l1 78 43 3 c27 2 42 8 39 15 -5 17 -49 25 -77 15z"/>
<path d="M13568 9220 c-12 -16 -34 -44 -48 -62 l-25 -32 -5 29 c-3 18 -11 30
-20 30 -12 0 -14 -11 -12 -50 2 -27 7 -54 12 -59 7 -7 58 42 97 93 11 14 12
13 13 -10 0 -14 6 -34 14 -44 13 -18 15 -18 50 17 l36 36 6 -39 c6 -33 10 -39
30 -39 27 0 30 16 9 44 -8 11 -12 30 -9 45 4 18 0 32 -10 40 -13 11 -21 6 -54
-29 l-39 -43 -5 26 c-3 15 -1 24 3 21 5 -3 9 9 9 25 0 40 -21 40 -52 1z"/>
<path d="M14204 9206 c-32 -31 -44 -51 -44 -73 0 -57 51 -71 113 -29 l36 24
10 -29 c7 -21 16 -29 34 -29 27 0 57 19 61 40 12 63 18 70 55 70 51 0 66 -13
66 -57 0 -27 4 -38 15 -38 10 0 14 12 15 44 0 56 -28 78 -105 83 l-54 3 -9
-45 c-5 -25 -13 -50 -18 -57 -7 -7 -5 -13 3 -16 9 -4 9 -6 1 -6 -6 -1 -19 6
-28 16 -17 16 -16 29 1 97 11 45 -23 31 -56 -22 -40 -65 -110 -98 -110 -51 0
28 63 91 84 83 12 -4 16 0 16 15 0 35 -39 25 -86 -23z"/>
<path d="M5872 9224 c-12 -8 -22 -26 -22 -39 0 -13 -6 -25 -12 -27 -17 -6 21
-127 44 -142 27 -16 33 1 15 39 -22 47 -23 141 -1 149 9 3 47 6 85 6 65 0 88
10 53 24 -32 12 -139 6 -162 -10z"/>
<path d="M9305 9228 c-37 -20 -55 -51 -55 -99 0 -84 60 -123 150 -99 33 9 38
13 28 24 -9 9 -20 11 -35 5 -34 -13 -92 1 -105 24 -11 22 -11 23 73 88 34 26
34 27 15 48 -21 23 -41 26 -71 9z m13 -53 c-18 -13 -35 -21 -38 -18 -9 8 51
54 61 47 6 -3 -5 -16 -23 -29z m32 1 c0 -3 -4 -8 -10 -11 -5 -3 -10 -1 -10 4
0 6 5 11 10 11 6 0 10 -2 10 -4z"/>
<path d="M11037 9209 l-35 -34 -8 -197 c-7 -209 -4 -239 21 -218 12 10 15 31
14 84 -1 39 -1 90 0 113 1 42 2 42 31 36 26 -5 36 1 75 39 25 25 45 50 45 57
0 22 -25 11 -52 -23 -35 -44 -64 -51 -84 -21 -13 20 -14 33 -4 79 14 70 33 90
74 82 17 -4 37 -7 45 -8 10 -1 12 -13 8 -45 -4 -37 -2 -44 12 -41 10 2 17 15
19 38 4 45 -30 79 -86 87 -35 5 -44 1 -75 -28z"/>
<path d="M10491 9221 c-18 -12 -40 -131 -30 -159 5 -12 14 -22 21 -22 24 0 41
18 35 35 -4 9 -12 13 -18 9 -9 -5 -10 7 -5 46 8 63 12 70 32 70 19 0 13 24 -7
27 -8 2 -20 -1 -28 -6z"/>
<path d="M13296 9215 c-30 -23 -56 -67 -56 -97 0 -55 94 -73 133 -26 21 25 17
55 -15 106 -22 35 -33 39 -62 17z m49 -55 c21 -40 19 -49 -11 -60 -30 -12 -64
2 -64 26 0 14 42 64 54 64 3 0 12 -13 21 -30z"/>
<path d="M5628 9203 c-36 -23 -71 -87 -63 -116 12 -37 45 -65 84 -71 45 -7
103 5 109 23 4 11 -6 12 -49 7 -59 -7 -102 7 -107 36 -2 11 14 24 53 42 63 28
75 48 50 76 -22 24 -41 25 -77 3z m56 -21 c5 -9 -63 -46 -71 -39 -5 6 46 47
58 47 4 0 10 -4 13 -8z"/>
<path d="M8245 9192 c-25 -5 -73 -49 -91 -84 -40 -77 18 -140 101 -108 36 14
24 25 -27 25 -43 0 -63 19 -31 29 28 9 116 93 111 107 -6 19 -41 36 -63 31z
m25 -43 c0 -4 -20 -22 -45 -39 -50 -34 -58 -27 -20 18 13 16 22 32 19 34 -2 3
7 3 21 1 14 -3 25 -9 25 -14z"/>
<path d="M10238 9193 c-32 -2 -58 -7 -59 -11 0 -4 -2 -21 -4 -38 -6 -43 14
-58 70 -52 l45 6 1 -39 c0 -22 0 -64 0 -94 0 -120 4 -110 -46 -110 -64 0 -80
-19 -62 -72 16 -48 68 -115 104 -134 22 -12 27 -11 40 6 11 15 13 37 7 93 l-6
72 56 0 c43 0 56 3 56 15 0 12 -13 15 -59 15 l-59 0 -1 150 c-2 127 1 151 14
156 8 3 15 10 15 16 0 5 -4 7 -9 4 -5 -3 -14 1 -21 9 -7 8 -15 14 -19 13 -3
-1 -32 -3 -63 -5z m42 -48 c0 -16 -42 -30 -65 -21 -8 3 -15 12 -15 21 0 11 11
15 40 15 29 0 40 -4 40 -15z m16 -329 c1 0 4 -31 8 -68 8 -88 -5 -89 -62 -9
-49 67 -41 96 23 84 17 -3 31 -6 31 -7z"/>
<path d="M10633 9183 c-4 -10 -15 -29 -25 -42 -23 -31 -23 -83 0 -104 25 -23
75 -21 96 2 45 50 18 161 -39 161 -15 0 -28 -7 -32 -17z m61 -49 c10 -27 7
-61 -8 -74 -23 -19 -61 -8 -64 18 -7 49 56 98 72 56z"/>
<path d="M11958 9182 c-15 -9 -38 -36 -50 -60 l-23 -43 24 -20 c24 -20 38 -19
114 6 30 10 37 10 37 0 0 -20 36 -59 48 -51 7 4 6 15 -6 36 -14 25 -15 33 -3
65 12 34 11 38 -12 59 -30 28 -91 32 -129 8z m100 -24 c22 -22 13 -39 -30 -58
-50 -23 -98 -26 -98 -7 0 51 94 99 128 65z"/>
<path d="M12196 9169 c-49 -37 -70 -65 -62 -86 6 -13 16 -7 56 32 l49 48 -15
-50 c-16 -55 -7 -103 21 -103 11 0 13 9 9 43 -3 26 0 58 10 86 25 69 -1 81
-68 30z"/>
<path d="M3765 9178 c-3 -7 -4 -38 -2 -68 1 -43 6 -55 19 -58 16 -3 18 5 16
67 -2 51 -6 71 -16 71 -7 0 -15 -6 -17 -12z"/>
<path d="M10896 9183 c-3 -3 -6 -18 -6 -33 0 -28 -36 -91 -57 -97 -17 -6 -53
33 -53 57 0 13 10 24 26 30 21 8 24 13 14 25 -23 28 -69 -10 -70 -58 0 -33 48
-87 77 -87 44 0 93 67 93 128 0 31 -11 47 -24 35z"/>
<path d="M3334 9169 c-3 -6 -2 -15 4 -21 12 -12 55 8 47 23 -8 12 -42 12 -51
-2z"/>
<path d="M7106 9171 c-3 -4 -31 -9 -61 -10 -72 -1 -115 -23 -115 -57 0 -26 23
-78 47 -105 12 -15 11 -21 -12 -54 -32 -48 -32 -78 1 -104 30 -24 52 -26 89
-9 37 17 42 52 16 106 l-22 45 24 26 c66 73 78 88 83 108 10 39 -32 84 -50 54z
m24 -41 c0 -10 -71 -100 -93 -118 -14 -12 -20 -10 -41 12 -28 31 -41 75 -27
89 18 18 161 33 161 17z m-80 -242 c0 -18 -6 -29 -20 -33 -23 -7 -60 10 -60
28 0 14 28 58 44 69 14 9 35 -29 36 -64z"/>
<path d="M8840 9160 c-8 -15 -7 -26 2 -42 7 -13 11 -26 11 -29 -1 -4 14 -25
33 -48 59 -69 127 -49 134 39 5 54 0 80 -15 80 -11 0 -15 -13 -15 -54 0 -59
-16 -82 -48 -72 -27 9 -72 77 -72 108 0 35 -16 44 -30 18z"/>
<path d="M8351 9142 c-26 -22 -32 -33 -29 -57 3 -27 7 -30 41 -33 25 -2 46 3
66 17 44 31 51 27 44 -24 -5 -41 -3 -45 18 -54 30 -11 51 5 28 22 -11 9 -14
24 -11 52 3 31 -1 45 -17 59 -20 18 -21 18 -56 -13 -34 -30 -85 -42 -85 -21 0
14 37 44 62 50 34 9 34 30 1 30 -17 0 -43 -12 -62 -28z"/>
<path d="M1914 9002 c-18 -11 -60 -103 -74 -161 -7 -31 -10 -83 -7 -124 4 -62
2 -76 -18 -107 -12 -19 -30 -41 -39 -49 -17 -14 -22 -41 -7 -41 11 0 81 77 81
89 0 6 24 -15 54 -45 53 -53 96 -70 96 -39 0 8 -6 15 -14 15 -21 0 -74 47 -91
81 -13 25 -13 32 5 74 11 25 26 85 34 133 20 120 12 194 -20 174z m-7 -153
c-8 -52 -22 -110 -30 -129 l-16 -35 1 70 c0 39 8 90 18 117 10 26 15 50 12 53
-4 3 0 10 8 15 8 5 16 7 18 6 1 -2 -4 -46 -11 -97z"/>
<path d="M4089 8863 c-6 -16 -16 -49 -22 -75 -7 -27 -17 -48 -24 -48 -20 0
-27 -22 -11 -34 10 -8 17 -34 20 -78 5 -87 30 -118 94 -118 75 0 64 23 -16 32
-32 4 -50 40 -50 106 0 50 1 52 28 52 15 0 40 -7 56 -15 16 -9 33 -12 38 -7
14 14 -28 43 -72 49 l-41 6 3 41 c2 22 6 43 10 46 4 4 11 20 14 38 8 40 -12
44 -27 5z"/>
<path d="M2112 8864 c2 -11 11 -20 22 -22 13 -3 17 1 14 14 -2 11 -11 20 -22
22 -13 3 -17 -1 -14 -14z"/>
<path d="M4397 8856 c-4 -9 -2 -18 3 -21 13 -8 41 6 37 19 -6 17 -34 19 -40 2z"/>
<path d="M3854 8791 c3 -5 -2 -8 -12 -7 -11 1 -18 -7 -20 -23 -4 -24 -3 -24
22 -8 37 25 46 21 46 -20 0 -43 -27 -90 -62 -109 -36 -20 -41 -17 -35 24 7 53
11 66 21 73 4 4 4 15 -2 25 -9 16 -11 14 -25 -13 -9 -17 -13 -33 -10 -37 4 -3
-1 -6 -10 -6 -32 0 -38 -35 -32 -178 6 -133 14 -167 35 -146 10 10 18 81 20
164 1 43 3 46 42 65 23 11 51 32 61 47 24 33 35 122 17 143 -13 16 -65 22 -56
6z"/>
<path d="M3525 8733 c-64 -96 12 -177 119 -127 48 23 64 56 43 87 -8 13 -29
30 -46 37 -17 7 -31 19 -31 26 0 9 -11 14 -30 14 -23 0 -35 -8 -55 -37z m105
-35 c19 -13 33 -27 33 -33 0 -5 -15 -19 -35 -29 -38 -21 -85 -16 -95 9 -9 24
5 63 25 68 32 9 39 7 72 -15z"/>
<path d="M5024 8747 c-25 -22 -27 -28 -19 -53 7 -19 24 -35 50 -47 94 -41 103
-49 85 -77 -7 -11 -28 -15 -85 -14 -56 1 -75 -2 -75 -12 0 -18 61 -28 118 -20
49 6 82 33 82 65 0 24 -37 56 -83 72 -21 7 -45 22 -55 32 -16 18 -15 20 8 37
18 14 22 22 14 30 -8 8 -19 5 -40 -13z"/>
<path d="M1515 8743 c-45 -9 -171 -47 -179 -54 -22 -20 32 -20 93 -2 36 12 78
24 94 27 41 10 34 37 -8 29z"/>
<path d="M2228 8733 c-31 -37 -69 -115 -64 -130 9 -23 31 -1 57 58 32 69 41
65 54 -25 6 -35 12 -46 25 -46 16 0 17 5 5 60 -11 55 -36 100 -55 100 -4 0
-14 -8 -22 -17z"/>
<path d="M2462 8730 c-18 -11 -41 -20 -52 -20 -21 0 -27 -15 -10 -25 7 -4 6
-13 -1 -26 -16 -31 -7 -70 23 -92 21 -16 33 -18 64 -11 58 14 55 34 -5 34 -61
0 -73 16 -47 64 13 24 28 35 62 44 34 9 45 17 42 30 -5 24 -38 26 -76 2z"/>
<path d="M4487 8703 c-19 -5 -47 -52 -47 -78 0 -9 13 -30 29 -46 35 -34 86
-39 121 -11 18 14 20 22 11 42 -11 28 -76 101 -88 99 -4 -1 -16 -3 -26 -6z
m67 -73 c11 -11 16 -25 13 -34 -9 -22 -49 -20 -75 4 -25 23 -24 22 -16 44 8
20 50 12 78 -14z"/>
<path d="M2077 8694 c-9 -9 -9 -67 -1 -88 3 -9 12 -16 19 -16 9 0 11 15 9 52
-2 50 -12 67 -27 52z"/>
<path d="M4714 8666 c-28 -28 -36 -31 -45 -20 -15 18 -39 18 -39 0 0 -7 6 -19
14 -26 8 -6 16 -21 18 -33 4 -26 19 -26 33 0 22 40 47 73 55 73 5 0 12 -27 16
-61 7 -67 30 -105 54 -90 12 9 12 12 -2 28 -8 10 -19 45 -23 77 -4 33 -9 65
-12 73 -9 22 -33 15 -69 -21z"/>
<path d="M4327 8653 c-3 -5 -8 -25 -12 -45 -8 -43 8 -78 35 -78 28 0 34 17 10
30 -17 9 -19 17 -14 49 6 35 -7 64 -19 44z"/>
<path d="M5364 8517 c-7 -20 -2 -47 11 -50 14 -3 19 43 6 56 -7 7 -12 6 -17
-6z"/>
<path d="M9917 8133 c-3 -32 -9 -69 -13 -82 -6 -21 -4 -23 13 -19 19 5 22 -1
33 -74 16 -100 16 -129 6 -315 l-9 -152 -651 5 c-633 4 -1013 17 -1761 59
-143 9 -345 20 -450 25 -238 12 -571 35 -875 60 -387 31 -407 32 -625 32 -202
-1 -211 0 -226 20 -13 17 -19 19 -37 9 -31 -16 -27 -30 11 -46 25 -10 93 -14
266 -15 229 -1 301 -4 657 -34 234 -20 582 -44 819 -56 105 -6 307 -17 450
-25 143 -8 406 -21 585 -30 179 -8 359 -17 401 -20 42 -3 381 -8 754 -10 373
-3 686 -7 696 -10 11 -4 19 -2 19 3 0 5 14 7 30 4 22 -3 30 0 30 11 0 10 -11
17 -27 19 -32 3 -30 -14 -23 288 2 108 -2 155 -19 235 -11 55 -21 117 -21 138
0 25 -5 37 -14 37 -9 0 -15 -18 -19 -57z"/>
<path d="M5306 8141 c-38 -8 -44 -28 -12 -41 14 -5 26 -11 26 -14 0 -2 -7 -39
-16 -82 -27 -129 -4 -284 41 -284 20 0 19 15 -2 47 -22 33 -25 182 -5 258 l13
50 115 -2 c70 -1 112 2 109 8 -8 11 7 12 21 1 5 -5 299 -3 654 4 355 6 855 15
1111 18 l466 7 22 -66 c31 -96 13 -172 -49 -209 -39 -22 -57 -20 -76 9 -15 23
-15 27 3 57 17 28 24 33 51 30 36 -4 42 12 13 28 -31 16 -50 12 -75 -15 -45
-49 -40 -121 11 -144 34 -15 53 -14 89 8 62 38 93 124 73 203 -6 23 -12 55
-14 69 l-3 27 252 7 c312 8 1002 -9 1149 -29 60 -8 154 -18 209 -22 84 -6 100
-5 96 7 -3 8 -18 15 -34 16 -101 8 -173 15 -274 29 -251 33 -871 37 -2205 14
-319 -5 -773 -13 -1008 -16 -235 -4 -429 -10 -431 -13 -2 -3 -62 -4 -133 -1
-119 5 -128 6 -128 25 0 22 -15 26 -59 16z"/>
<path d="M6118 7953 c-31 -45 -36 -48 -71 -45 -32 3 -42 9 -59 38 -31 53 -60
41 -32 -15 18 -37 41 -51 83 -51 34 0 39 -11 17 -33 -27 -27 -96 -130 -96
-144 0 -36 58 23 70 72 2 6 11 16 21 23 11 7 28 30 39 51 10 21 35 59 55 85
33 43 38 66 15 66 -5 0 -24 -21 -42 -47z"/>
<path d="M6711 7974 c-35 -44 -42 -129 -11 -129 11 0 17 15 20 53 6 59 36 92
55 62 8 -14 35 -13 35 1 0 17 -32 38 -57 39 -12 0 -31 -12 -42 -26z"/>
<path d="M8037 7966 c-55 -51 -39 -154 28 -182 43 -18 80 -18 96 -1 7 7 24 12
38 10 14 -2 33 1 41 6 28 19 -1 24 -68 12 -53 -9 -74 -10 -95 0 -27 12 -45 41
-29 47 5 1 29 13 53 25 57 29 66 68 20 91 -41 21 -54 20 -84 -8z m64 -16 c26
-14 24 -25 -6 -38 -52 -24 -72 -8 -38 30 19 21 19 21 44 8z"/>
<path d="M6251 7971 c-17 -11 -6 -31 17 -31 12 -1 9 -5 -9 -15 -55 -30 -79
-107 -38 -120 34 -11 87 4 108 31 24 30 16 67 -25 113 -30 34 -32 35 -53 22z
m59 -97 c0 -17 -8 -27 -26 -34 -60 -23 -74 2 -23 44 35 29 49 26 49 -10z"/>
<path d="M6530 7965 c0 -3 5 -14 12 -24 14 -23 -7 -61 -47 -87 -32 -21 -37
-16 -37 40 0 33 -4 46 -14 46 -21 0 -22 -92 -2 -117 19 -24 50 -13 94 31 45
44 56 80 32 104 -12 12 -38 17 -38 7z"/>
<path d="M7264 7960 c-30 -12 -74 -68 -74 -94 0 -33 26 -63 66 -76 26 -9 39
-9 47 -1 8 8 0 15 -31 27 -45 18 -59 42 -42 74 11 21 64 53 73 44 3 -3 11 -3
18 2 9 5 7 11 -6 21 -21 15 -22 15 -51 3z"/>
<path d="M7451 7942 c-28 -23 -33 -33 -27 -55 8 -33 38 -50 88 -50 70 0 80 27
35 98 -27 42 -52 44 -96 7z m89 -59 c0 -18 -51 -17 -76 2 -19 14 -18 15 6 34
25 20 25 20 47 -1 13 -12 23 -27 23 -35z"/>
<path d="M5406 7532 c-3 -5 -8 -64 -12 -131 -6 -108 -5 -121 9 -116 11 5 15
21 15 57 1 90 7 103 52 105 173 11 213 8 280 -24 67 -32 167 -56 275 -68 65
-7 234 4 570 35 116 10 249 21 297 23 96 4 98 2 98 -69 0 -20 6 -34 16 -38 15
-6 16 1 11 54 l-5 60 57 0 c45 0 58 3 58 15 0 11 -13 15 -53 15 -41 0 -53 4
-56 17 -3 15 -4 15 -21 -1 -14 -15 -44 -20 -155 -26 -75 -5 -240 -18 -367 -30
-408 -38 -537 -31 -718 42 -96 39 -98 39 -212 35 l-115 -3 0 28 c0 27 -13 37
-24 20z"/>
<path d="M7186 7455 c4 -8 10 -12 15 -9 14 8 10 24 -6 24 -9 0 -12 -6 -9 -15z"/>
<path d="M7140 7435 c0 -10 7 -15 18 -13 21 4 19 22 -2 26 -10 2 -16 -3 -16
-13z"/>
<path d="M6990 7175 c0 -106 2 -124 15 -119 12 5 15 28 15 119 0 91 -3 114
-15 119 -13 5 -15 -13 -15 -119z"/>
<path d="M5399 7273 c-14 -3 -17 -35 -23 -246 -3 -133 -6 -323 -6 -422 0 -173
-1 -212 -16 -462 -5 -82 -4 -113 5 -113 6 0 11 -5 11 -11 0 -6 -6 -9 -14 -6
-11 5 -15 -25 -21 -166 -3 -95 -6 -185 -5 -202 0 -16 1 -77 1 -134 -1 -57 2
-107 5 -112 10 -18 -7 -89 -22 -89 -18 0 -18 -19 0 -26 8 -3 18 -24 21 -46 5
-28 13 -42 26 -45 10 -3 19 -7 19 -9 0 -2 -7 -43 -14 -91 -20 -119 -40 -464
-30 -516 5 -23 9 -49 9 -57 0 -12 15 -15 75 -15 41 -1 85 -4 97 -8 12 -5 122
-3 245 3 524 25 616 28 757 19 232 -15 386 -15 703 0 312 14 452 10 868 -25
96 -8 330 -21 520 -29 190 -8 464 -22 610 -30 146 -8 299 -17 340 -19 41 -2
167 1 280 6 301 13 333 15 350 22 8 3 44 9 79 13 65 8 78 17 62 42 -7 11 -13
12 -23 4 -7 -6 -36 -14 -65 -18 l-51 -7 0 144 c1 82 -6 190 -15 253 -24 160
-39 363 -32 417 l7 48 56 2 c100 3 108 4 120 12 29 18 6 26 -78 26 -82 0 -107
8 -80 25 6 3 10 22 10 40 0 45 28 102 52 109 12 3 18 11 16 23 -5 29 -31 26
-53 -6 -13 -21 -23 -27 -30 -20 -12 12 -14 775 -3 827 6 25 4 34 -8 39 -21 8
-28 -2 -29 -40 -1 -18 -3 -50 -5 -72 -3 -36 -4 -34 -10 20 -20 177 -22 222
-10 278 8 43 15 57 26 53 19 -7 27 10 19 44 -15 68 -59 8 -78 -106 -8 -48 -8
-92 1 -175 7 -61 11 -114 8 -116 -13 -14 -97 -24 -235 -30 -148 -6 -153 -5
-148 13 14 47 18 113 8 154 -6 28 -7 46 -1 48 18 7 10 41 -12 53 -13 7 -28 19
-34 27 -23 32 -61 -29 -44 -72 5 -14 19 -26 32 -28 13 -2 24 -11 26 -22 3 -12
0 -16 -8 -11 -15 9 -76 -20 -84 -41 -6 -16 13 -64 39 -100 l15 -21 -252 -5
c-139 -3 -293 -2 -343 3 -238 23 -357 30 -440 25 -49 -3 -209 -9 -355 -12
-146 -4 -268 -8 -271 -10 -7 -4 -246 12 -336 22 -46 5 -53 3 -53 -12 0 -16 -1
-16 -12 -3 -16 19 -88 42 -114 37 -10 -2 -20 -12 -22 -22 -3 -15 0 -18 21 -12
14 3 41 -1 62 -10 20 -8 49 -14 63 -13 15 1 52 1 82 -1 l55 -3 -70 -9 c-38 -4
-110 -19 -160 -31 -69 -17 -91 -27 -93 -41 -3 -16 0 -18 19 -11 13 4 69 18
124 31 111 27 295 36 400 20 54 -8 59 -7 47 7 -11 13 -9 16 15 21 36 7 537 20
708 19 72 -1 195 -8 275 -16 120 -12 222 -13 585 -6 242 5 459 11 483 15 34 5
42 3 42 -10 0 -9 7 -16 15 -16 13 0 15 -40 16 -297 0 -188 5 -329 13 -383 9
-57 10 -97 3 -122 -9 -34 -13 -38 -54 -44 -25 -4 -237 -1 -470 5 -235 7 -518
10 -636 6 -217 -7 -315 0 -443 32 l-62 15 -12 146 c-10 115 -11 194 -2 362 6
119 9 226 5 238 -3 12 0 29 7 37 10 12 9 16 -5 21 -9 4 -20 2 -24 -4 -15 -25
-21 -573 -8 -718 l9 -91 -26 -7 c-14 -3 -26 -13 -26 -22 0 -12 7 -14 30 -9 20
4 30 3 30 -6 0 -12 -47 -11 -465 6 -60 2 -101 2 -90 -1 11 -2 45 -10 75 -16
l55 -13 -60 -6 c-75 -7 -722 -3 -1033 7 -212 6 -232 6 -226 -9 5 -14 23 -16
107 -16 56 0 203 -5 327 -10 124 -6 500 -10 835 -10 598 2 756 -5 807 -32 16
-8 20 -7 24 8 5 17 24 18 327 18 177 -1 417 5 532 11 116 7 233 14 260 15 28
2 83 2 122 1 l73 -2 -6 -57 c-3 -32 2 -130 11 -218 15 -148 39 -584 33 -590
-2 -2 -66 -8 -144 -14 -172 -14 -536 -15 -699 -2 -66 6 -284 17 -485 26 -427
18 -614 29 -875 52 -214 19 -699 22 -930 6 -81 -6 -213 -6 -315 -2 -336 16
-447 16 -675 3 -200 -12 -373 -15 -601 -13 l-62 0 -6 49 c-4 27 -1 131 5 232
7 101 12 212 13 248 1 41 6 69 14 75 21 17 12 95 -13 109 -33 19 -46 34 -35
41 6 4 95 9 198 12 154 4 189 8 200 21 10 13 12 13 12 1 0 -22 137 -14 143 9
4 14 5 14 6 -2 1 -11 6 -16 15 -13 7 3 55 8 107 12 96 6 169 22 169 36 0 11
91 -1 107 -13 7 -6 19 -5 31 3 16 10 29 10 59 1 21 -6 77 -11 126 -11 75 0 87
2 87 17 0 15 -11 17 -92 15 -107 -3 -87 10 38 23 78 8 79 8 31 14 -27 3 -52
12 -57 19 -6 11 -12 11 -31 -3 -17 -12 -46 -16 -109 -16 -47 0 -116 -5 -155
-10 -38 -5 -194 -16 -345 -25 -151 -8 -320 -19 -375 -23 -55 -4 -112 -6 -127
-4 l-28 4 0 232 c0 127 7 323 15 436 10 147 12 206 4 211 -8 5 -8 8 0 10 16 6
28 279 13 279 -7 0 -12 9 -12 20 0 11 5 20 10 20 14 0 13 137 -1 146 -8 4 -7
9 2 15 10 6 10 13 0 35 -9 20 -9 29 -1 34 8 5 11 39 9 102 -2 51 0 98 3 103 3
6 6 62 7 125 1 62 4 124 7 137 4 13 5 22 3 22 -2 -1 -11 -3 -20 -6z m4276
-917 c-4 -28 -9 -55 -12 -59 -7 -12 -53 53 -53 75 0 18 49 50 63 41 5 -3 5
-28 2 -57z m-1105 -971 l55 -13 -57 -1 c-60 -1 -88 5 -88 20 0 12 25 11 90 -6z
m128 -22 c-10 -2 -26 -2 -35 0 -10 3 -2 5 17 5 19 0 27 -2 18 -5z m792 -2
c140 -6 133 -6 -161 -15 -168 -4 -370 -4 -450 0 l-144 9 145 5 c208 8 442 8
610 1z m-1167 -8 c-7 -2 -19 -2 -25 0 -7 3 -2 5 12 5 14 0 19 -2 13 -5z"/>
<path d="M10010 7266 c-16 -14 -85 -17 -915 -32 -585 -10 -1069 -23 -1120 -30
-27 -3 -141 -7 -252 -7 -152 -2 -204 -5 -208 -14 -3 -9 6 -13 25 -13 17 0 30
5 30 12 0 6 8 4 19 -6 16 -15 37 -16 172 -12 85 3 222 10 304 16 83 5 436 14
785 20 349 5 755 13 903 16 l267 7 1 -89 c0 -49 4 -138 7 -199 9 -150 9 -151
-38 -159 -87 -14 -625 -27 -1265 -31 -374 -3 -686 -6 -693 -7 -7 -1 -11 -7 -8
-15 4 -10 1 -11 -12 -4 -9 4 -141 8 -294 7 l-276 -1 -6 46 c-9 63 11 320 30
393 16 61 12 98 -7 79 -29 -29 -67 -376 -53 -477 l6 -49 -27 7 c-22 6 -26 4
-23 -11 2 -10 12 -19 23 -22 11 -2 25 -11 32 -20 11 -15 12 -15 18 0 8 20 92
32 218 30 65 -1 87 1 87 11 0 9 3 10 8 2 14 -21 54 -26 173 -19 100 6 119 10
120 24 0 9 3 11 5 5 9 -22 1939 -1 1976 22 4 3 8 0 8 -5 0 -19 27 -12 32 7 3
11 4 43 3 73 -2 30 -6 139 -9 244 -7 198 -14 232 -46 201z"/>
<path d="M9635 7170 c-4 -6 -4 -32 0 -58 4 -26 8 -78 9 -116 1 -48 5 -71 14
-74 11 -3 13 20 10 124 -2 85 -7 129 -15 131 -6 2 -14 -1 -18 -7z"/>
<path d="M9913 7133 c-19 -7 -16 -47 9 -97 19 -39 20 -49 9 -73 l-13 -27 -19
24 c-16 21 -20 23 -29 10 -12 -19 10 -54 36 -58 54 -8 80 71 46 137 -11 21
-18 48 -15 59 5 22 -5 32 -24 25z"/>
<path d="M9375 7120 c-3 -6 -2 -25 3 -43 24 -77 24 -85 -2 -80 -50 10 -87 -65
-50 -101 23 -24 60 -19 83 10 24 30 25 61 8 153 -12 62 -28 84 -42 61z m25
-168 c0 -21 -18 -42 -37 -42 -20 0 -27 28 -13 45 18 21 50 19 50 -3z"/>
<path d="M9756 7081 c-25 -10 -44 -48 -38 -76 8 -46 77 -81 77 -40 0 11 8 26
18 33 24 18 21 44 -6 70 -26 24 -24 24 -51 13z m41 -48 c4 -12 -34 -29 -44
-19 -3 3 -3 12 1 21 7 18 37 17 43 -2z"/>
<path d="M7785 7056 c-16 -7 -47 -32 -68 -55 -40 -44 -42 -66 -10 -103 25 -28
98 -51 144 -45 46 6 54 11 44 26 -4 7 -21 9 -44 5 -54 -9 -131 26 -131 59 0
34 50 76 106 91 57 14 71 36 22 36 -18 -1 -46 -7 -63 -14z"/>
<path d="M9567 7033 c-3 -10 -8 -30 -11 -44 -8 -34 -36 -46 -54 -22 -8 11 -9
19 -2 21 16 6 12 42 -5 42 -9 0 -21 -11 -27 -25 -10 -22 -8 -30 9 -53 25 -33
47 -38 78 -18 24 16 51 88 40 106 -10 15 -23 12 -28 -7z"/>
<path d="M6979 6968 c0 -40 -8 -160 -17 -265 -11 -126 -14 -193 -7 -193 5 0 5
-4 -2 -8 -15 -9 -33 -243 -33 -431 0 -117 2 -132 15 -121 12 10 15 36 15 117
0 58 5 182 12 276 6 95 12 197 12 227 1 30 6 58 11 62 6 5 4 8 -5 8 -10 0 -11
3 -4 8 11 7 39 265 31 280 -3 4 -1 31 2 60 7 46 5 52 -11 52 -16 0 -18 -9 -19
-72z"/>
<path d="M8394 7031 c3 -5 -2 -8 -11 -7 -9 0 -27 -14 -40 -33 -27 -40 -23 -75
14 -109 22 -20 34 -22 97 -20 85 4 91 22 9 26 -68 3 -103 18 -103 44 0 14 8
18 34 18 35 0 66 21 66 43 -1 22 -27 47 -49 47 -12 0 -20 -4 -17 -9z m27 -36
c0 -6 -10 -12 -23 -13 -19 -4 -20 -2 -9 12 15 17 33 18 32 1z"/>
<path d="M8161 7014 c-20 -15 -23 -23 -19 -66 6 -54 21 -79 39 -61 8 8 8 17 0
31 -6 11 -11 32 -11 46 0 25 6 29 63 38 32 5 23 23 -13 26 -21 2 -45 -4 -59
-14z"/>
<path d="M8912 7001 c-27 -23 -33 -36 -35 -72 -3 -61 22 -59 40 3 7 26 18 50
24 53 15 10 39 -15 39 -41 0 -30 21 -31 39 -2 13 21 14 21 26 -16 15 -44 20
-50 34 -42 6 4 5 21 -5 48 -7 22 -14 51 -14 64 0 34 -16 38 -38 9 l-20 -25
-16 25 c-21 32 -33 31 -74 -4z"/>
<path d="M9165 6985 c-30 -78 1 -123 64 -90 47 24 51 59 10 101 -18 19 -38 34
-45 34 -7 0 -20 -20 -29 -45z m69 -46 c-3 -5 -14 -14 -25 -19 -26 -14 -34 6
-19 46 l12 29 19 -24 c10 -12 16 -27 13 -32z"/>
<path d="M7981 6965 c-17 -20 -31 -45 -31 -55 0 -29 36 -60 68 -60 40 0 91 38
92 67 0 20 -61 83 -80 83 -10 0 -32 -16 -49 -35z m77 -22 l25 -27 -23 -18
c-27 -22 -53 -23 -70 -3 -12 14 -8 27 18 58 19 22 20 22 50 -10z"/>
<path d="M6089 6824 c-9 -8 -46 -20 -82 -27 -64 -11 -67 -10 -92 13 -14 13
-28 21 -31 18 -17 -18 -8 -372 12 -440 9 -32 -12 -19 -29 17 -20 42 -78 198
-102 275 -10 30 -21 59 -26 65 -5 5 -9 19 -9 32 0 13 -6 23 -14 23 -22 0 -27
-29 -11 -58 9 -15 28 -65 44 -112 77 -225 112 -300 140 -300 30 0 44 25 37 67
-16 100 -25 235 -19 296 l6 67 44 0 c91 0 174 36 154 68 -5 9 -11 8 -22 -4z"/>
<path d="M8477 6635 c6 -45 5 -47 -18 -43 -16 2 -24 -2 -24 -12 0 -8 10 -16
21 -18 16 -2 24 -12 28 -35 8 -41 35 -82 47 -70 6 6 3 25 -6 48 -9 20 -13 41
-8 46 4 4 32 9 62 11 79 4 79 26 -1 30 l-63 3 -5 40 c-3 27 -10 41 -22 43 -16
3 -17 -2 -11 -43z"/>
<path d="M7906 6640 c-140 -89 -102 -230 62 -230 60 0 102 12 102 28 0 5 -36
6 -80 4 -78 -4 -80 -3 -110 26 -16 17 -30 38 -30 47 0 42 72 115 113 115 13 0
17 -9 17 -35 0 -39 21 -55 49 -38 26 16 24 41 -5 76 -35 41 -61 43 -118 7z"/>
<path d="M8833 6662 c-6 -4 -11 -43 -12 -92 0 -47 -3 -97 -6 -112 -13 -58 79
-94 125 -48 25 25 26 72 2 93 -19 18 -62 23 -62 9 0 -5 -7 -9 -15 -9 -12 0
-14 15 -11 79 2 80 -1 92 -21 80z m95 -198 c4 -26 -20 -47 -50 -42 -17 2 -22
9 -20 23 7 43 64 59 70 19z"/>
<path d="M9227 6663 c-11 -11 -8 -34 14 -105 l22 -69 -23 -24 c-13 -14 -27
-25 -32 -25 -15 0 -8 43 10 56 16 12 16 13 -1 20 -12 4 -25 1 -35 -9 -14 -15
-16 -14 -26 6 -15 29 -61 35 -74 10 -6 -10 -13 -35 -17 -56 -10 -53 18 -51 34
3 6 22 16 40 21 40 4 0 11 -18 15 -40 4 -22 11 -40 16 -40 6 0 7 6 3 13 -3 6
4 0 17 -16 l24 -27 35 18 c19 11 42 31 50 45 13 23 12 34 -9 109 -25 87 -33
103 -44 91z"/>
<path d="M8199 6645 c-1 -8 -3 -19 -4 -25 -1 -5 -3 -23 -4 -40 -1 -25 -5 -30
-26 -30 -16 0 -25 -6 -25 -15 0 -9 9 -15 23 -15 19 0 25 -8 35 -45 11 -42 34
-66 49 -51 4 3 1 16 -4 29 -6 12 -13 32 -16 44 -5 21 -1 22 66 25 45 2 72 7
75 16 3 9 -16 12 -72 12 l-76 0 6 55 c6 47 4 55 -10 55 -9 0 -17 -7 -17 -15z"/>
<path d="M9330 6641 c0 -12 19 -24 43 -28 13 -2 17 2 15 14 -3 19 -58 32 -58
14z"/>
<path d="M7390 6601 c0 -17 -9 -67 -20 -113 -32 -134 -20 -268 24 -268 19 0
19 -1 1 43 -21 51 -18 116 10 237 30 128 30 130 5 130 -15 0 -20 -7 -20 -29z"/>
<path d="M8985 6611 c-9 -16 35 -35 48 -22 9 9 8 14 -3 21 -19 12 -37 13 -45
1z"/>
<path d="M9810 6597 c-28 -14 -38 -54 -21 -85 7 -13 7 -23 -2 -31 -9 -10 -6
-18 16 -37 57 -49 79 -10 32 58 -31 46 -32 66 -2 70 12 2 22 9 22 17 0 20 -16
23 -45 8z"/>
<path d="M9481 6555 c-32 -37 -47 -76 -36 -94 11 -19 22 -12 28 17 7 35 47 86
58 75 5 -5 10 -31 11 -58 2 -36 7 -50 18 -50 11 0 13 12 11 55 -5 98 -36 116
-90 55z"/>
<path d="M6150 6543 c-8 -3 -30 -19 -47 -36 -46 -43 -44 -83 5 -156 l37 -56
-27 -50 c-34 -63 -35 -80 -2 -110 57 -53 141 -54 165 -2 13 30 -13 86 -60 131
-17 17 -31 34 -31 39 0 4 13 27 29 50 75 110 93 192 42 192 -13 0 -26 -6 -28
-12 -3 -7 2 -13 11 -13 9 0 16 -7 16 -15 0 -19 -32 -84 -68 -137 -22 -34 -27
-37 -41 -24 -9 8 -25 31 -35 51 -23 43 -15 77 26 108 22 16 30 18 42 8 8 -7
16 -21 18 -32 4 -28 22 -28 26 -1 2 15 -5 33 -19 48 -23 24 -32 27 -59 17z
m52 -300 c47 -51 63 -105 34 -116 -20 -8 -75 9 -97 29 -13 12 -16 22 -9 39 5
13 6 25 4 28 -6 5 26 45 37 46 3 1 17 -11 31 -26z"/>
<path d="M9369 6540 c-1 -3 -3 -29 -5 -57 -4 -41 -1 -53 9 -53 21 0 30 81 11
100 -7 8 -14 12 -15 10z"/>
<path d="M9020 6481 c0 -11 -5 -21 -12 -23 -16 -6 -2 -38 16 -38 16 0 32 53
21 70 -10 17 -25 11 -25 -9z"/>
<path d="M8270 6206 c0 -8 7 -16 15 -20 9 -3 14 -17 14 -33 l-2 -28 -4 28 c-5
31 -33 38 -33 7 0 -10 7 -45 15 -77 12 -44 16 -116 16 -305 0 -136 -3 -258 -7
-272 -4 -17 -2 -26 6 -26 7 0 10 -12 8 -32 -2 -24 1 -33 12 -33 13 0 15 21 15
125 0 69 -2 157 -3 195 -7 147 -2 291 9 275 15 -21 4 161 -11 189 -12 24 -50
29 -50 7z"/>
<path d="M8618 6140 c-47 -39 -86 -114 -72 -138 24 -37 62 -55 121 -56 53 -1
58 1 61 22 3 22 -12 30 -23 12 -13 -22 -109 1 -125 29 -15 28 38 104 89 127
22 9 38 21 35 26 -11 17 -51 7 -86 -22z"/>
<path d="M9521 6124 c-11 -15 -21 -31 -21 -36 0 -18 23 -54 54 -81 30 -27 30
-28 6 -21 -32 8 -60 33 -71 62 -11 28 -29 29 -29 2 0 -51 81 -111 129 -95 36
11 33 34 -10 74 -50 45 -52 84 -6 89 34 4 31 26 -5 30 -18 2 -32 -5 -47 -24z"/>
<path d="M7346 6083 c10 -64 10 -165 -1 -450 l-7 -193 -97 -1 c-82 -1 -89 -2
-51 -9 85 -16 475 -37 570 -31 l95 6 -165 13 c-91 7 -200 16 -244 19 l-78 6 6
181 c4 100 9 222 12 271 3 50 1 117 -5 149 -7 39 -8 63 -1 71 12 15 3 25 -23
25 -18 0 -19 -4 -11 -57z"/>
<path d="M7673 6118 c-4 -7 -8 -62 -9 -123 -1 -60 -3 -119 -5 -130 -3 -16 2
-21 27 -23 43 -4 76 37 72 87 -3 32 -6 36 -29 36 -24 -1 -28 4 -32 40 -3 22
-2 57 2 77 5 20 6 39 3 42 -9 10 -20 7 -29 -6z m53 -211 c-3 -14 -12 -27 -20
-30 -12 -5 -13 -1 -5 20 5 14 12 30 15 35 10 16 17 0 10 -25z"/>
<path d="M9121 6111 c-23 -17 -23 -20 -11 -70 8 -33 17 -51 27 -51 12 0 14 8
8 38 -4 20 -7 42 -8 47 -1 6 8 9 21 7 24 -4 30 16 10 36 -16 16 -18 15 -47 -7z"/>
<path d="M9260 6083 c-31 -40 -24 -93 14 -112 26 -12 33 -12 55 0 13 8 26 20
29 28 4 11 -3 12 -32 7 -49 -9 -68 4 -25 18 39 13 48 39 23 67 -23 26 -39 24
-64 -8z m40 -23 c0 -5 -5 -10 -11 -10 -5 0 -7 5 -4 10 3 6 8 10 11 10 2 0 4
-4 4 -10z"/>
<path d="M7465 6090 c-4 -7 -9 -35 -12 -64 -2 -28 -8 -73 -13 -99 -17 -84 -13
-116 15 -123 29 -7 85 15 85 35 0 14 -25 12 -64 -4 -16 -7 -18 -4 -14 26 3 19
11 76 18 127 10 65 11 95 3 103 -8 8 -13 7 -18 -1z"/>
<path d="M8990 6078 c-40 -44 -39 -104 3 -95 12 2 31 8 41 12 14 6 17 5 12 -3
-9 -15 18 -26 41 -18 12 5 14 9 5 18 -7 7 -12 25 -12 40 0 34 -7 35 -40 6 -14
-13 -31 -24 -38 -25 -21 -5 -13 17 18 46 29 26 31 41 4 41 -7 0 -23 -10 -34
-22z"/>
<path d="M7600 6076 c0 -10 9 -16 21 -16 24 0 21 23 -4 28 -10 2 -17 -3 -17
-12z"/>
<path d="M8794 6079 c-3 -6 -1 -14 5 -18 17 -11 84 2 89 17 5 16 -84 17 -94 1z"/>
<path d="M8127 6029 c-10 -6 -31 -8 -47 -4 -37 8 -70 -9 -64 -33 3 -9 1 -28
-4 -42 -9 -24 -10 -23 -21 18 -7 24 -18 42 -26 42 -18 0 -28 -17 -15 -25 5 -3
10 -13 10 -22 0 -30 32 -83 51 -83 18 0 39 50 39 93 0 13 8 17 35 17 42 0 85
19 85 37 0 15 -18 16 -43 2z"/>
<path d="M7792 5988 c-17 -17 -15 -90 4 -116 33 -48 69 -16 87 76 6 28 4 33
-10 30 -11 -2 -20 -18 -25 -43 -5 -22 -13 -44 -18 -49 -12 -12 -24 38 -17 74
7 32 -3 46 -21 28z"/>
<path d="M9697 5973 c-4 -3 -7 -16 -7 -28 0 -12 -13 -49 -30 -81 -34 -67 -35
-74 -17 -74 16 0 61 79 75 132 8 28 7 40 -2 47 -7 6 -16 8 -19 4z"/>
<path d="M7595 5958 c-7 -17 0 -76 9 -85 13 -14 24 11 19 45 -7 44 -20 62 -28
40z"/>
<path d="M6932 5937 c-6 -7 -11 -72 -12 -152 -2 -202 -2 -205 15 -205 13 0 15
27 15 185 0 102 -2 185 -4 185 -2 0 -8 -6 -14 -13z"/>
<path d="M9050 5770 c0 -77 -1 -80 -22 -77 -15 1 -23 -3 -23 -13 0 -8 10 -16
23 -18 19 -3 22 -10 23 -50 2 -65 12 -105 27 -110 10 -3 13 10 12 54 -3 97 -2
102 20 106 26 4 27 22 1 26 -23 4 -31 29 -31 105 0 44 -3 57 -15 57 -12 0 -15
-16 -15 -80z"/>
<path d="M8641 5720 c-1 -47 -4 -111 -7 -142 -6 -78 13 -77 48 3 15 33 31 59
35 56 5 -3 7 -34 6 -68 -2 -59 5 -78 29 -79 8 0 1 132 -8 163 -8 24 -40 21
-59 -5 -15 -22 -16 -18 -13 69 3 79 1 91 -13 90 -14 -1 -17 -16 -18 -87z"/>
<path d="M9257 5770 c-14 -16 -29 -40 -33 -52 -4 -13 -14 -28 -22 -34 -9 -6
-12 -16 -7 -24 4 -7 7 -52 6 -100 -2 -58 2 -91 10 -95 19 -13 29 17 29 92 l0
71 34 12 c80 26 105 103 47 147 -25 19 -37 16 -64 -17z m63 -30 c9 -17 6 -25
-14 -45 -21 -21 -66 -35 -66 -21 0 8 29 72 36 79 13 13 33 7 44 -13z"/>
<path d="M8877 5773 c-3 -5 -4 -32 -4 -61 l2 -52 -32 0 c-17 0 -35 -5 -39 -11
-10 -17 17 -30 49 -23 27 6 27 5 27 -50 0 -43 3 -56 15 -56 12 0 15 13 15 59
0 57 1 59 31 65 41 8 33 32 -9 28 l-32 -3 0 50 c0 46 -12 73 -23 54z"/>
<path d="M6668 5413 c7 -3 16 -2 19 1 4 3 -2 6 -13 5 -11 0 -14 -3 -6 -6z"/>
<path d="M6626 5355 c4 -9 19 -15 40 -15 26 0 32 3 28 15 -4 9 -19 15 -40 15
-26 0 -32 -3 -28 -15z"/>
<path d="M7659 5283 c0 -5 -2 -26 -4 -47 -3 -22 -1 -44 4 -50 4 -6 7 -24 5
-41 -1 -16 -3 -40 -3 -52 -1 -19 -5 -21 -23 -14 -25 9 -48 4 -48 -9 0 -5 15
-13 34 -20 30 -10 35 -16 41 -57 9 -61 14 -73 32 -73 11 0 14 6 9 23 -4 12
-10 39 -13 60 l-6 37 54 0 c53 0 90 12 77 25 -3 4 -34 6 -67 6 -54 0 -61 2
-61 20 0 10 -5 19 -11 19 -8 0 -8 4 -1 13 16 19 12 167 -4 167 -8 0 -14 -3
-15 -7z"/>
<path d="M8779 5271 c-42 -13 -69 -31 -69 -46 0 -8 32 -39 70 -70 103 -82 143
-176 78 -183 -34 -4 -96 40 -104 75 -7 27 -27 26 -32 -1 -5 -23 79 -102 115
-109 37 -7 70 11 82 43 18 53 -48 153 -143 215 -34 22 -33 31 4 44 42 14 78
-1 91 -39 6 -16 18 -30 26 -30 11 0 13 9 7 48 -8 57 -12 66 -27 54 -7 -5 -21
-6 -32 -1 -25 9 -33 9 -66 0z"/>
<path d="M7854 5229 c-3 -6 -2 -14 2 -19 12 -11 57 7 49 20 -8 13 -42 13 -51
-1z"/>
<path d="M5675 5205 c-27 -8 -71 -14 -97 -15 -36 0 -48 -4 -48 -15 0 -20 79
-20 157 0 68 18 102 13 133 -21 13 -13 27 -24 32 -24 17 0 7 27 -21 54 -35 34
-87 41 -156 21z"/>
<path d="M5887 5203 c-4 -3 -7 -27 -7 -52 0 -25 -7 -84 -16 -131 -27 -150 -28
-163 -14 -158 7 2 21 27 30 54 16 50 55 114 69 114 9 0 71 -87 71 -100 0 -22
52 -68 84 -74 36 -7 97 12 111 34 12 19 -3 24 -31 10 -37 -20 -93 -16 -117 9
l-21 21 21 0 c39 0 72 75 52 121 -18 44 -58 37 -83 -14 l-18 -38 -22 30 c-24
34 -50 39 -78 14 -18 -16 -18 -15 -12 43 4 32 7 61 6 64 -1 58 -7 72 -25 53z
m201 -210 c-7 -15 -19 -29 -27 -31 -11 -4 -13 3 -7 28 3 18 11 39 18 47 19 24
32 -11 16 -44z"/>
<path d="M6700 5160 c-8 -5 -27 -10 -42 -10 -18 0 -28 -5 -28 -15 0 -8 4 -15
9 -15 6 0 -3 -25 -20 -56 -45 -87 -36 -170 22 -194 50 -21 145 14 192 70 51
60 48 96 -12 158 -36 36 -37 41 -19 45 11 3 17 10 13 16 -8 14 -95 14 -115 1z
m102 -87 c49 -48 49 -73 -2 -122 -81 -78 -180 -74 -180 7 0 37 42 139 64 155
23 17 80 -3 118 -40z"/>
<path d="M9183 5158 c-38 -18 -28 -51 37 -122 33 -37 60 -68 60 -70 0 -2 -12
-1 -26 2 -14 2 -35 18 -47 33 -18 25 -22 27 -30 13 -12 -21 24 -60 70 -75 82
-27 83 18 3 107 -33 36 -60 70 -60 75 0 11 46 23 65 16 15 -6 32 10 21 20 -11
11 -71 11 -93 1z"/>
<path d="M6993 5148 c-18 -22 -35 -88 -30 -114 3 -16 0 -24 -9 -24 -10 0 -14
-13 -14 -42 0 -24 -3 -73 -7 -110 -5 -57 -3 -68 9 -68 21 0 28 21 28 81 0 39
3 47 15 43 22 -9 81 55 96 104 11 38 10 48 -7 90 -15 37 -25 48 -45 50 -14 2
-30 -3 -36 -10z m52 -48 c8 -16 15 -39 15 -52 0 -30 -46 -98 -67 -98 -13 0
-15 9 -10 58 7 64 25 122 38 122 5 0 15 -13 24 -30z"/>
<path d="M5707 5133 c-11 -11 -8 -261 3 -268 16 -10 18 10 22 148 4 121 -1
144 -25 120z"/>
<path d="M7286 5108 c-22 -31 -22 -151 -1 -168 21 -18 46 3 27 22 -15 15 -16
110 -1 125 6 6 26 9 45 6 41 -7 47 13 8 27 -40 15 -62 12 -78 -12z"/>
<path d="M8960 5114 c0 -27 38 -148 53 -168 12 -16 11 -32 -6 -108 -19 -89
-17 -143 6 -135 7 2 11 13 10 23 -3 26 55 311 72 351 9 22 10 35 4 39 -17 10
-30 -11 -49 -78 -19 -67 -19 -67 -48 26 -17 57 -42 87 -42 50z"/>
<path d="M7154 5092 c-18 -11 -34 -49 -34 -77 0 -33 43 -77 72 -73 28 4 36 28
9 28 -29 0 -34 15 -11 35 25 23 26 57 2 78 -21 19 -23 20 -38 9z m26 -46 c0
-7 -7 -19 -15 -26 -16 -13 -20 -3 -9 24 8 20 24 21 24 2z"/>
<path d="M7852 5064 c-9 -18 0 -119 12 -131 15 -16 23 15 19 70 -6 69 -16 89
-31 61z"/>
<path d="M7975 5027 c-14 -29 -28 -68 -31 -86 -6 -28 -4 -33 11 -30 12 3 22
21 31 58 8 29 17 57 20 62 10 18 23 -2 30 -46 4 -30 11 -45 21 -45 12 0 14 10
8 53 -7 53 -27 87 -52 87 -8 0 -25 -24 -38 -53z"/>
<path d="M8220 5071 c0 -4 -11 -6 -24 -4 -48 10 -92 -41 -60 -68 18 -15 65
-14 93 1 18 9 23 7 31 -15 6 -15 10 -50 10 -79 l0 -53 -52 -14 c-64 -17 -72
-40 -31 -89 29 -35 100 -90 116 -90 6 0 7 29 2 76 l-7 77 51 -5 c51 -5 76 6
50 23 -8 5 -27 9 -44 9 -46 0 -53 10 -54 72 0 64 -42 168 -67 168 -8 0 -14 -4
-14 -9z m0 -41 c-21 -13 -63 -13 -55 0 4 6 15 8 25 5 10 -3 21 -1 25 5 4 6 10
9 13 5 4 -3 0 -10 -8 -15z m52 -277 c3 -41 3 -42 -16 -25 -30 25 -65 67 -61
71 2 2 19 6 37 10 36 8 35 9 40 -56z"/>
<path d="M7451 5051 c-32 -60 1 -100 66 -77 32 11 41 11 61 -2 20 -13 22 -13
22 3 0 9 -5 25 -10 35 -10 18 -13 18 -51 5 -23 -8 -48 -15 -55 -15 -22 0 -16
31 6 37 26 7 21 27 -8 31 -13 2 -25 -4 -31 -17z"/>
<path d="M8275 4100 c-4 -7 -3 -16 3 -22 10 -10 8 -25 -9 -63 -65 -147 -127
-371 -107 -390 7 -7 12 -6 15 3 8 21 63 81 86 93 18 10 19 9 13 -25 -14 -76
58 -131 98 -74 21 29 9 43 -20 23 -40 -26 -47 -11 -39 76 4 49 3 79 -3 79 -6
0 -33 -21 -61 -46 -28 -25 -51 -40 -51 -34 0 7 13 52 30 101 16 49 27 95 24
104 -4 8 -1 15 4 15 18 0 53 92 50 129 -3 35 -21 51 -33 31z"/>
<path d="M7270 4058 c0 -13 -15 -81 -33 -153 l-33 -130 -49 -17 c-28 -9 -51
-23 -53 -32 -4 -20 6 -20 52 -1 20 8 36 12 36 8 0 -5 -6 -41 -14 -81 -13 -69
-9 -91 14 -77 6 3 10 18 10 33 0 41 27 134 42 143 7 5 26 9 41 9 28 0 28 0 21
-47 -4 -27 -13 -65 -20 -87 -18 -49 -18 -66 -1 -66 19 0 51 111 52 174 l0 51
-47 3 c-27 2 -48 4 -48 5 0 1 16 63 35 136 18 74 32 139 29 143 -11 17 -34 7
-34 -14z"/>
<path d="M14767 4074 c-3 -4 6 -27 20 -52 50 -85 27 -189 -61 -276 -46 -46
-82 -58 -92 -32 -9 23 24 82 52 95 27 12 24 31 -6 31 -43 0 -97 -110 -73 -149
25 -40 93 -20 154 46 87 94 108 207 56 296 -27 46 -37 54 -50 41z"/>
<path d="M5665 4051 c-3 -5 0 -13 6 -17 7 -4 -13 -22 -50 -46 -59 -37 -76 -58
-47 -58 22 0 136 79 136 93 0 14 -20 37 -31 37 -4 0 -10 -4 -14 -9z"/>
<path d="M9970 4002 c0 -20 -13 -71 -29 -112 -28 -73 -29 -75 -65 -78 -24 -2
-36 -8 -36 -19 0 -12 8 -14 35 -11 32 4 34 2 29 -17 -22 -67 -31 -116 -23
-121 15 -9 26 4 33 38 18 90 26 108 50 108 13 0 39 11 58 23 l34 24 -23 -64
c-45 -124 -25 -139 63 -49 75 78 99 85 91 28 -5 -39 6 -72 23 -72 6 0 10 29
10 65 0 53 -3 66 -19 75 -27 14 -49 4 -105 -49 -53 -51 -54 -49 -15 57 25 70
52 192 44 200 -15 15 -40 -19 -65 -90 -15 -43 -32 -84 -39 -92 -12 -14 -60
-31 -68 -23 -2 3 8 35 22 72 29 77 34 145 10 145 -11 0 -15 -11 -15 -38z"/>
<path d="M2321 4003 c-52 -13 -67 -13 -87 -2 -13 7 -25 10 -27 8 -2 -2 -18
-53 -36 -114 -18 -60 -37 -123 -42 -139 -15 -47 -11 -106 6 -106 10 0 15 10
15 33 0 36 45 208 63 241 7 11 13 22 14 24 2 6 138 32 165 32 31 0 39 24 12
34 -9 3 -16 5 -17 5 -1 -1 -31 -8 -66 -16z"/>
<path d="M3366 4011 c-7 -11 18 -33 27 -24 4 3 7 12 7 20 0 15 -26 18 -34 4z"/>
<path d="M6810 3953 c0 -37 -11 -122 -25 -188 -29 -140 -31 -175 -10 -175 8 0
15 8 16 18 1 30 7 68 28 174 11 57 21 132 23 168 3 55 0 65 -14 68 -16 3 -18
-5 -18 -65z"/>
<path d="M12003 4013 c-67 -5 -78 -19 -75 -97 2 -77 -14 -179 -35 -219 -15
-30 -16 -30 -30 -11 -27 34 -79 157 -98 227 -17 67 -30 87 -45 71 -13 -14 55
-211 98 -284 49 -85 71 -90 101 -21 28 67 41 137 41 227 l0 74 43 1 c57 2 82
5 102 13 24 9 8 26 -23 24 -15 -1 -50 -3 -79 -5z"/>
<path d="M10924 3999 c-11 -19 -33 -132 -27 -142 3 -5 -34 -7 -83 -6 -59 2
-89 0 -91 -8 -6 -16 21 -23 96 -24 l63 -2 -6 -36 c-14 -71 -25 -103 -37 -96
-21 14 -28 -7 -13 -37 l16 -31 19 24 c10 13 26 59 36 101 17 74 19 77 56 92
36 14 38 14 32 -2 -21 -50 -26 -96 -12 -110 13 -12 20 -9 55 23 l41 36 30 -22
c21 -16 31 -31 31 -49 0 -39 30 -60 93 -67 65 -7 89 0 81 22 -3 8 -10 12 -15
9 -5 -3 -9 1 -9 8 0 10 -3 10 -9 -1 -8 -12 -19 -13 -58 -5 -41 8 -48 13 -51
34 -2 22 4 29 43 48 39 19 45 26 45 52 0 53 -68 53 -98 0 -19 -33 -33 -37 -52
-15 -19 23 -56 18 -79 -11 -30 -38 -26 -15 15 98 20 54 34 105 30 113 -10 27
-36 4 -66 -60 -27 -56 -44 -75 -69 -75 -5 0 -5 19 -1 42 6 29 5 45 -3 50 -8 5
-6 9 6 14 18 7 23 29 8 39 -5 3 -13 0 -17 -6z m296 -187 c0 -13 -23 -32 -39
-32 -11 0 -10 4 4 20 19 21 35 26 35 12z"/>
<path d="M7465 3958 c-5 -12 -3 -24 2 -25 6 -2 8 -15 5 -28 -3 -18 0 -25 11
-25 16 0 33 49 20 59 -4 3 -8 12 -8 20 0 24 -23 24 -30 -1z"/>
<path d="M5128 3964 c-3 -3 -2 -22 3 -42 12 -50 11 -109 -1 -154 -11 -39 -66
-119 -87 -126 -32 -10 1 108 34 127 23 13 4 35 -21 25 -39 -15 -72 -144 -44
-172 18 -18 33 -15 67 14 47 39 82 106 88 167 11 104 -10 190 -39 161z"/>
<path d="M8570 3950 c0 -23 25 -27 33 -6 7 16 -1 26 -20 26 -7 0 -13 -9 -13
-20z"/>
<path d="M13304 3926 c-6 -17 11 -46 28 -46 14 0 5 53 -9 58 -7 2 -16 -4 -19
-12z"/>
<path d="M9780 3910 c-14 -26 -7 -37 25 -37 27 0 34 24 13 45 -17 17 -26 15
-38 -8z"/>
<path d="M8777 3878 c-55 -11 -110 -42 -148 -82 -38 -41 -92 -134 -84 -146 3
-5 1 -10 -4 -12 -15 -6 -24 -48 -9 -48 10 0 10 -2 0 -9 -8 -5 -22 -44 -33 -87
-23 -97 -22 -94 -3 -94 19 0 50 68 70 159 15 64 18 70 35 60 31 -16 86 16 161
95 120 124 126 188 15 164z m43 -43 c0 -16 -109 -135 -152 -166 -19 -14 -37
-19 -53 -15 -31 8 -32 25 -4 60 12 15 19 29 16 32 -9 9 57 62 104 84 53 23 89
26 89 5z"/>
<path d="M6440 3859 c-13 -6 -32 -17 -41 -25 -15 -13 -17 -13 -22 6 -8 31 -27
24 -27 -10 0 -16 -10 -59 -21 -94 -12 -36 -19 -73 -15 -82 9 -24 20 -9 41 54
21 64 72 122 108 122 30 0 46 18 26 31 -17 10 -17 10 -49 -2z"/>
<path d="M7999 3855 c-15 -8 -29 -22 -33 -30 -7 -18 17 -81 40 -106 35 -39 -7
-99 -44 -65 -22 19 -36 9 -26 -18 8 -22 50 -31 78 -18 13 6 28 24 34 40 8 25
7 37 -9 64 -36 62 -42 77 -36 92 4 9 16 16 27 16 15 0 20 5 18 17 -4 22 -18
25 -49 8z"/>
<path d="M4609 3828 c-29 -17 -38 -32 -51 -77 -9 -31 -19 -66 -23 -78 -5 -17
-3 -23 7 -23 8 0 30 36 51 80 53 112 83 107 56 -10 -12 -51 -5 -90 16 -90 11
0 13 10 8 49 -3 31 -1 51 6 55 6 4 11 27 11 51 0 34 -5 47 -19 55 -24 12 -19
13 -62 -12z"/>
<path d="M9433 3812 c-40 -20 -73 -42 -73 -49 0 -18 14 -16 60 7 49 25 48 25
46 -4 0 -13 -4 -22 -8 -20 -12 8 -21 -47 -10 -58 6 -6 21 -6 43 0 23 6 40 5
52 -2 25 -16 68 11 90 57 21 42 17 81 -10 91 -26 11 -38 -9 -27 -46 6 -18 8
-40 6 -49 -4 -20 -39 -32 -48 -17 -4 5 -21 7 -40 3 -19 -3 -34 -5 -34 -3 0 2
9 27 21 57 11 30 16 57 12 61 -4 5 -41 -8 -80 -28z"/>
<path d="M3008 3793 c-25 -27 -48 -55 -50 -62 -3 -12 -6 -12 -11 2 -3 9 -2 17
3 17 13 0 13 37 0 45 -13 8 -69 -39 -100 -83 -18 -25 -20 -36 -12 -44 9 -9 19
-4 40 22 19 22 31 30 36 22 12 -20 33 -14 71 19 l35 31 0 -41 c0 -46 19 -62
46 -40 14 12 14 14 -2 26 -17 12 -17 16 -1 65 26 83 11 89 -55 21z"/>
<path d="M6903 3808 c-39 -42 -65 -92 -57 -113 12 -31 39 -35 79 -14 40 22 55
16 55 -23 0 -10 6 -18 14 -18 10 0 14 10 14 33 -1 17 2 49 6 70 7 30 5 37 -7
37 -9 0 -24 -10 -34 -23 -20 -25 -67 -57 -83 -57 -20 0 -9 40 21 75 24 27 35
33 44 25 18 -15 30 6 15 25 -18 22 -33 18 -67 -17z"/>
<path d="M14465 3828 c-64 -35 -120 -118 -80 -118 8 0 15 4 15 8 0 15 70 82
86 82 11 0 14 -12 12 -52 -4 -64 13 -79 24 -23 4 22 10 50 13 62 5 22 -17 53
-38 53 -7 0 -21 -6 -32 -12z"/>
<path d="M2212 3820 c-28 -12 -24 -37 4 -30 10 2 40 5 67 5 37 0 47 3 45 15
-4 18 -81 24 -116 10z"/>
<path d="M6503 3807 c-107 -74 -66 -197 66 -197 21 0 46 3 55 6 30 12 16 24
-26 23 -118 -5 -163 58 -94 127 48 48 97 44 81 -6 -8 -26 -56 -51 -83 -43 -16
4 -22 1 -22 -11 0 -21 43 -31 72 -16 65 34 88 89 50 123 -25 23 -60 20 -99 -6z"/>
<path d="M13413 3793 c-15 -21 -34 -43 -42 -49 -8 -6 -11 -18 -8 -28 9 -23 40
-3 64 41 10 18 21 33 25 33 8 0 12 -29 9 -62 -3 -23 18 -60 29 -53 4 3 6 33 3
68 -9 97 -33 112 -80 50z"/>
<path d="M13635 3793 c-30 -31 -35 -42 -35 -85 0 -42 5 -54 30 -79 26 -26 36
-30 77 -27 63 4 71 28 9 28 -58 0 -89 26 -84 73 2 23 9 33 23 35 57 9 84 49
53 80 -19 19 -35 14 -73 -25z m55 -18 c0 -9 -6 -12 -15 -9 -8 4 -12 10 -9 15
8 14 24 10 24 -6z"/>
<path d="M3212 3781 c-7 -21 -12 -55 -12 -75 0 -53 23 -42 32 15 4 24 10 56
13 72 12 44 -20 34 -33 -12z"/>
<path d="M3693 3800 c-115 -69 -57 -224 76 -205 66 9 78 13 78 30 0 18 -7 18
-66 4 -32 -7 -53 -7 -72 1 -38 16 -44 38 -15 50 25 9 62 50 71 80 7 23 -10 60
-28 60 -7 0 -26 -9 -44 -20z m40 -37 c-9 -26 -34 -53 -50 -53 -20 0 -16 21 9
47 26 28 50 31 41 6z"/>
<path d="M12041 3794 c-25 -32 -25 -35 -7 -78 13 -32 13 -34 -16 -60 -26 -22
-29 -31 -24 -59 10 -52 79 -99 121 -83 20 7 19 65 -2 118 -14 36 -15 43 -2 50
8 5 38 22 67 39 54 31 66 55 37 79 -15 12 -17 10 -19 -20 -1 -11 -105 -80
-121 -80 -2 0 -8 13 -13 30 -9 23 -8 33 4 45 21 21 32 19 36 -7 5 -34 28 -35
28 -1 0 57 -53 72 -89 27z m45 -179 c17 -41 18 -75 3 -75 -13 0 -69 55 -69 69
0 12 28 41 41 41 6 0 17 -16 25 -35z"/>
<path d="M12557 3795 c-88 -60 -87 -174 2 -220 39 -20 81 -20 81 0 0 8 -9 15
-21 15 -47 0 -98 47 -99 91 0 23 5 26 65 38 36 7 65 17 65 23 0 5 -5 6 -11 3
-6 -4 -5 2 2 13 11 18 10 24 -5 41 -24 27 -33 26 -79 -4z m43 -30 c-33 -19
-46 -19 -30 0 7 8 22 15 34 15 20 -1 20 -2 -4 -15z"/>
<path d="M5310 3789 c-14 -11 -34 -24 -45 -28 -16 -7 -21 -19 -23 -56 -2 -59
31 -98 80 -93 42 4 50 28 10 28 -34 0 -65 24 -60 48 2 8 22 22 45 29 30 10 44
22 51 41 18 53 -12 69 -58 31z"/>
<path d="M14178 3793 c-34 -22 -56 -69 -41 -92 15 -25 59 -25 99 -1 l35 22 -8
-28 c-12 -48 -9 -79 7 -79 8 0 14 5 13 12 -1 6 4 34 13 63 16 53 12 90 -10 90
-8 0 -19 7 -26 15 -16 20 -48 19 -82 -2z m62 -32 c0 -22 -35 -51 -62 -51 -25
0 -22 16 7 45 29 30 55 32 55 6z"/>
<path d="M7770 3784 c-14 -10 -47 -38 -73 -63 l-48 -46 17 43 c9 24 14 45 11
48 -18 18 -57 -53 -57 -105 0 -51 20 -47 72 13 28 31 58 60 67 66 16 8 16 5 7
-40 -13 -63 2 -85 52 -76 35 5 62 22 62 38 0 5 -5 6 -11 2 -6 -3 -26 -9 -45
-11 -40 -5 -42 4 -19 81 8 27 15 53 15 58 0 13 -24 9 -50 -8z"/>
<path d="M12989 3780 c-90 -48 -63 -142 40 -142 44 0 51 -9 51 -69 l0 -46 -41
-6 c-51 -7 -61 -20 -55 -70 5 -48 31 -87 56 -87 24 0 55 47 64 96 l7 33 66 3
c93 4 97 26 6 30 l-68 3 -12 115 c-6 63 -12 118 -12 123 -1 4 -8 7 -16 7 -11
0 -15 -12 -15 -50 l0 -50 -34 0 c-33 0 -66 21 -66 41 0 17 28 39 64 52 19 7
36 17 38 22 5 18 -36 15 -73 -5z m86 -312 c-3 -13 -11 -36 -17 -52 l-12 -29
-18 23 c-21 26 -24 66 -5 73 6 3 22 6 35 6 20 1 22 -3 17 -21z"/>
<path d="M13260 3783 c0 -59 14 -123 26 -123 15 0 17 23 8 94 -4 29 -12 46
-20 46 -8 0 -14 -8 -14 -17z"/>
<path d="M2530 3755 l-34 -35 -27 26 c-19 18 -34 24 -45 20 -16 -6 -14 -11 14
-38 l31 -32 -32 -27 c-28 -24 -30 -28 -14 -34 12 -5 26 0 42 15 l24 22 24 -27
c34 -41 53 -28 23 15 l-24 35 36 37 c24 26 33 41 26 48 -7 7 -21 -2 -44 -25z"/>
<path d="M2693 3768 c-35 -39 -45 -64 -28 -78 10 -8 19 -8 34 -1 18 10 20 8
23 -21 2 -21 8 -33 18 -33 11 0 15 14 16 58 2 65 -7 77 -39 51 -12 -10 -9 -4
7 14 27 29 28 32 10 32 -11 0 -30 -10 -41 -22z"/>
<path d="M5578 3783 c-1 -4 -2 -46 -3 -93 l0 -85 -28 -3 c-30 -4 -32 -19 -5
-36 12 -7 23 -5 43 8 27 18 27 18 22 114 -3 59 -9 98 -16 100 -6 2 -12 0 -13
-5z"/>
<path d="M8460 3753 c0 -21 -9 -56 -20 -78 -23 -45 -26 -68 -7 -63 23 7 58 91
55 132 -4 53 -28 61 -28 9z"/>
<path d="M9722 3778 c-7 -7 -12 -20 -12 -30 0 -11 -9 -36 -20 -58 -23 -45 -26
-70 -7 -70 13 0 67 126 67 155 0 18 -12 19 -28 3z"/>
<path d="M3508 3760 c-17 -13 -29 -17 -33 -10 -13 20 -27 5 -46 -50 -22 -64
-22 -60 -8 -60 6 0 32 23 57 51 l46 51 13 -53 c8 -30 18 -58 23 -63 16 -16 24
24 12 58 -7 18 -12 39 -12 47 0 8 -6 23 -13 33 -12 16 -14 16 -39 -4z"/>
<path d="M12797 3748 c-13 -18 -27 -41 -30 -51 -4 -11 -12 -15 -19 -11 -9 6
-9 9 0 12 15 5 16 62 2 62 -15 0 -18 -15 -23 -107 -3 -61 0 -83 9 -83 6 0 27
37 45 83 l33 82 8 -43 c9 -51 15 -62 35 -62 11 0 13 6 8 23 -4 12 -9 41 -11
64 -5 73 -20 81 -57 31z"/>
<path d="M4775 3740 c-18 -35 -20 -91 -3 -108 18 -18 52 -14 77 9 26 25 27 94
1 94 -11 0 -14 -8 -12 -28 3 -31 -12 -57 -34 -57 -29 0 -12 86 18 93 24 7 15
27 -12 27 -11 0 -26 -12 -35 -30z"/>
<path d="M7484 3745 c-20 -31 -23 -97 -5 -119 19 -23 76 -21 101 4 22 22 26
61 9 109 -10 28 -15 31 -50 31 -30 0 -42 -5 -55 -25z m80 -38 c13 -36 -2 -61
-38 -65 -24 -3 -26 -1 -26 35 0 65 45 85 64 30z"/>
<path d="M2330 3700 c-8 -5 -40 -12 -70 -16 -57 -7 -110 -28 -110 -44 0 -17
19 -20 47 -6 15 8 55 19 87 25 33 6 64 15 70 21 15 15 -5 32 -24 20z"/>
<path d="M2216 3483 c-4 -38 -11 -106 -17 -152 -12 -97 -6 -109 42 -92 17 6
63 11 100 11 57 0 69 3 69 16 0 14 -12 16 -93 12 l-93 -4 7 51 c4 27 10 89 13
138 5 71 4 87 -8 87 -11 0 -16 -18 -20 -67z"/>
<path d="M2615 3540 c-9 -14 -6 -17 20 -22 13 -2 20 3 20 12 0 18 -30 26 -40
10z"/>
<path d="M2774 3515 c3 -13 -1 -63 -9 -111 -19 -110 -19 -134 0 -134 8 0 15
-8 15 -18 0 -23 30 -52 55 -52 24 0 103 82 111 115 9 35 0 51 -37 70 -26 14
-36 15 -60 4 -16 -6 -34 -19 -38 -28 -18 -32 -22 -1 -10 72 13 80 9 107 -17
107 -12 0 -15 -6 -10 -25z m137 -171 c21 -26 -62 -127 -91 -109 -19 11 -11 75
13 104 23 29 56 31 78 5z"/>
<path d="M2563 3338 c3 -44 9 -63 18 -63 8 0 14 10 13 25 -2 89 -4 100 -20
100 -12 0 -14 -11 -11 -62z"/>
<path d="M3096 3392 c-3 -5 -14 -33 -26 -64 -24 -64 -53 -95 -95 -100 -38 -4
-41 -32 -4 -36 17 -2 37 6 57 23 30 25 31 25 37 5 11 -34 53 -37 83 -6 l26 26
22 -27 c26 -32 53 -24 29 10 -8 12 -15 40 -15 64 0 58 -16 62 -40 9 -54 -114
-110 -87 -59 28 20 46 20 76 0 76 -5 0 -12 -4 -15 -8z"/>
<path d="M3433 3360 c-3 -8 -9 -42 -13 -75 l-6 -60 -27 56 c-28 57 -62 97 -74
86 -6 -7 45 -110 79 -159 36 -52 58 -32 58 52 0 76 3 80 75 80 46 0 67 5 83
19 21 18 20 18 -73 17 -74 -1 -96 -4 -102 -16z"/>
</g>
</svg>
