<?xml version="1.0" standalone="no"?>
<!DOCTYPE svg PUBLIC "-//W3C//DTD SVG 20010904//EN"
 "http://www.w3.org/TR/2001/REC-SVG-20010904/DTD/svg10.dtd">
<svg version="1.0" xmlns="http://www.w3.org/2000/svg"
 width="1618.000000pt" height="1214.000000pt" viewBox="0 0 1618.000000 1214.000000"
 preserveAspectRatio="xMidYMid meet">

<g transform="translate(0.000000,1214.000000) scale(0.100000,-0.100000)"
fill="#000000" stroke="none">
<path d="M12863 11603 c-4 -10 -17 -35 -30 -55 -21 -35 -27 -38 -68 -38 -95 0
-135 -101 -69 -171 l25 -27 -30 -61 c-34 -66 -39 -101 -16 -101 8 0 15 7 15
15 0 29 64 146 80 144 52 -5 75 3 111 40 60 60 54 97 -25 146 -14 9 -13 15 14
55 16 25 30 51 30 58 0 18 -30 14 -37 -5z m-73 -137 c0 -13 -53 -116 -60 -116
-15 0 -33 32 -33 60 0 40 19 60 59 60 19 0 34 -2 34 -4z m71 -13 c38 -23 37
-54 -2 -87 -28 -24 -96 -38 -87 -18 2 4 14 33 27 65 14 31 27 57 29 57 2 0 17
-8 33 -17z"/>
<path d="M14633 11608 c-6 -7 -18 -34 -29 -60 -18 -44 -22 -48 -54 -48 l-34 0
23 16 c12 9 19 20 14 25 -11 10 -83 -13 -83 -27 0 -6 -7 -17 -14 -24 -8 -6
-20 -35 -26 -64 -13 -62 -2 -100 36 -132 l25 -21 -31 -51 c-30 -47 -33 -72 -9
-72 5 0 12 8 16 18 16 46 59 102 79 102 31 0 111 55 128 89 9 16 16 42 16 56
0 25 -33 68 -59 76 -9 3 -8 17 8 57 12 29 21 57 21 62 0 14 -16 12 -27 -2z
m-93 -138 l39 0 -18 -52 c-40 -113 -52 -126 -86 -88 -14 15 -17 31 -13 74 4
52 28 102 36 77 2 -6 21 -11 42 -11z m104 -26 c31 -31 12 -79 -47 -117 -22
-15 -42 -25 -43 -24 -2 2 7 30 20 62 13 33 26 68 29 78 8 21 21 22 41 1z"/>
<path d="M14144 11563 c-27 -20 -51 -38 -53 -40 -3 -2 0 -8 6 -14 8 -8 26 -1
63 25 29 20 60 36 69 36 21 0 41 -19 41 -39 0 -25 -99 -150 -130 -166 -32 -16
-70 -61 -70 -81 0 -23 25 -16 56 17 61 64 94 59 94 -16 0 -54 18 -71 63 -58
17 5 31 15 29 22 -1 7 2 10 7 7 5 -4 12 -2 15 3 11 18 -14 22 -36 7 -38 -27
-48 -20 -48 29 0 32 -6 51 -20 65 l-21 21 46 63 c49 70 56 105 25 136 -32 32
-79 26 -136 -17z"/>
<path d="M13589 11541 c-33 -33 -39 -80 -13 -102 13 -11 23 -11 60 3 43 15 44
15 39 -6 -36 -153 -42 -216 -22 -216 8 0 22 50 40 143 36 180 35 172 15 172
-9 0 -25 8 -35 18 -28 24 -50 21 -84 -12z m72 -54 c-4 -4 -22 -11 -39 -16 -27
-8 -32 -7 -32 7 0 8 10 26 22 39 l22 24 18 -23 c9 -13 13 -26 9 -31z"/>
<path d="M14811 11534 c-20 -25 -20 -51 0 -39 15 10 10 -75 -10 -158 -17 -72
-13 -104 9 -81 13 15 39 154 42 228 3 78 -8 92 -41 50z"/>
<path d="M15145 11550 c-3 -6 6 -15 22 -21 l28 -11 -59 -55 c-44 -41 -61 -51
-67 -41 -14 22 -10 60 9 74 27 20 2 38 -26 18 -24 -17 -30 -70 -12 -104 8 -15
5 -25 -15 -46 -31 -33 -32 -61 -2 -105 61 -91 145 3 87 99 -11 17 -16 32 -12
32 11 0 132 120 132 131 0 29 -70 53 -85 29z m-57 -215 c16 -34 15 -60 -2 -74
-11 -9 -18 -6 -35 15 -25 32 -26 42 -4 66 21 24 28 23 41 -7z"/>
<path d="M13020 11536 c0 -8 6 -16 13 -19 9 -3 6 -35 -15 -137 -14 -73 -24
-139 -21 -147 9 -23 28 -9 31 23 2 16 14 84 28 151 13 67 24 127 24 133 0 5
-13 10 -30 10 -19 0 -30 -5 -30 -14z"/>
<path d="M13407 11544 c-11 -11 -8 -44 3 -44 17 0 11 -39 -20 -138 -30 -93
-35 -135 -15 -130 9 2 27 55 67 195 17 62 -7 144 -35 117z"/>
<path d="M2260 11285 c0 -14 5 -25 11 -25 22 0 2 -176 -26 -234 -31 -65 -65
-123 -65 -113 0 5 -7 1 -16 -8 -16 -15 -18 -15 -38 5 -18 17 -21 33 -21 97 0
49 -4 78 -12 80 -6 2 -32 -28 -58 -68 -25 -39 -48 -69 -51 -66 -9 8 18 100 54
181 36 83 35 115 -3 108 -27 -5 -135 -84 -129 -94 10 -16 37 -7 77 27 22 19
42 33 45 31 2 -2 -13 -46 -34 -98 -44 -111 -53 -203 -19 -203 12 0 33 19 56
52 l36 53 7 -51 c10 -78 71 -126 106 -84 7 8 9 15 4 16 -5 0 0 4 11 9 29 11
86 111 101 178 14 59 19 188 8 216 -10 27 -44 20 -44 -9z"/>
<path d="M13842 11294 c-21 -14 -31 -44 -14 -44 16 0 52 32 52 46 0 18 -10 18
-38 -2z"/>
<path d="M13104 11279 c-10 -17 13 -36 27 -22 12 12 4 33 -11 33 -5 0 -12 -5
-16 -11z"/>
<path d="M4437 11213 c-3 -16 -20 -84 -37 -153 -29 -121 -36 -205 -15 -205 6
0 11 14 13 30 6 62 45 242 63 289 10 27 16 53 13 58 -11 17 -32 7 -37 -19z"/>
<path d="M5544 11218 c-5 -7 -9 -19 -10 -28 -3 -24 -49 -189 -79 -282 -27 -81
-28 -118 -5 -118 5 0 10 7 10 16 0 15 18 78 96 327 13 43 24 83 24 88 0 13
-28 11 -36 -3z"/>
<path d="M6078 11219 c-9 -5 -14 -17 -11 -28 6 -22 -29 -184 -57 -265 -23 -69
-27 -126 -6 -126 9 0 15 16 18 45 8 65 32 98 66 90 45 -10 62 -40 62 -107 0
-68 19 -76 33 -14 12 49 -14 120 -51 141 -15 8 -22 14 -16 15 7 0 40 22 75 50
35 27 70 50 77 50 19 0 14 28 -8 40 -23 12 -43 5 -37 -13 5 -17 -125 -117
-151 -117 -5 0 2 52 15 116 25 115 23 141 -9 123z"/>
<path d="M7025 11138 c-9 -39 -21 -80 -28 -92 -6 -12 -10 -25 -9 -30 3 -9 -84
-1 -114 11 -12 4 -15 1 -12 -13 2 -12 13 -20 31 -22 15 -2 27 -8 27 -13 0 -5
14 -9 31 -9 28 0 30 -2 25 -27 -17 -91 -17 -123 -2 -123 10 0 17 13 21 35 3
19 7 51 10 69 5 33 8 35 52 38 56 4 73 28 20 28 -42 0 -54 23 -38 73 5 17 12
46 15 62 3 17 8 42 12 58 5 20 3 27 -9 27 -11 0 -20 -21 -32 -72z"/>
<path d="M7656 11188 c-2 -7 -12 -47 -21 -88 -10 -41 -35 -117 -56 -169 -22
-51 -39 -100 -39 -107 0 -27 26 -12 65 37 22 28 53 61 69 72 l29 21 -7 -25
c-4 -13 -10 -43 -13 -66 -4 -34 -2 -43 9 -43 16 0 29 50 32 120 2 48 -29 52
-78 10 -41 -36 -42 -36 -21 14 23 54 63 209 58 224 -3 6 -9 12 -14 12 -5 0
-11 -6 -13 -12z"/>
<path d="M3699 11188 c0 -2 -3 -16 -5 -33 -3 -16 -12 -66 -20 -110 -19 -92
-24 -248 -9 -255 6 -3 13 29 18 80 4 47 16 134 27 194 11 60 17 112 14 117 -5
8 -23 13 -25 7z"/>
<path d="M9051 11177 c-6 -8 -22 -50 -35 -93 -13 -44 -42 -119 -65 -168 -22
-49 -41 -97 -41 -107 0 -25 19 -34 26 -12 3 10 23 59 45 108 75 171 114 325
70 272z"/>
<path d="M11202 11174 c-5 -11 -22 -56 -37 -102 -25 -77 -29 -83 -50 -78 -27
7 -75 -9 -75 -24 0 -5 17 -9 38 -7 l37 2 -3 -45 c-2 -25 -7 -49 -12 -54 -12
-12 -13 -46 -1 -46 16 0 29 25 43 80 l14 55 47 5 c58 6 62 24 8 28 l-39 3 30
90 c21 62 27 94 20 101 -7 7 -13 4 -20 -8z"/>
<path d="M3580 11141 c0 -45 -26 -177 -45 -230 -16 -42 -21 -69 -15 -75 6 -6
13 -6 19 0 16 15 58 175 66 247 6 57 4 67 -9 67 -9 0 -16 -4 -16 -9z"/>
<path d="M11384 11129 c-3 -6 -2 -15 3 -20 13 -13 43 -1 43 17 0 16 -36 19
-46 3z"/>
<path d="M3445 11070 c-9 -14 -6 -17 20 -22 13 -2 20 3 20 12 0 18 -30 26 -40
10z"/>
<path d="M10335 11061 c-16 -10 -45 -35 -64 -55 -25 -25 -37 -32 -43 -24 -11
20 -23 0 -42 -70 -10 -35 -33 -95 -52 -135 -36 -76 -42 -107 -20 -107 12 0 36
45 79 152 12 29 20 35 36 31 32 -8 90 16 115 50 34 45 62 143 46 162 -16 19
-19 19 -55 -4z m18 -68 c-9 -27 -23 -58 -30 -70 -16 -24 -58 -41 -86 -35 -15
3 -13 9 15 49 32 44 95 103 110 103 4 0 0 -21 -9 -47z"/>
<path d="M2386 11042 c-36 -39 -50 -91 -36 -141 11 -43 24 -51 78 -51 40 0 99
30 109 55 10 27 -3 27 -43 0 -53 -36 -104 -32 -115 8 -10 38 -3 53 31 67 41
17 63 45 55 69 -9 30 -46 26 -79 -7z m44 -11 c0 -5 -7 -12 -16 -15 -14 -5 -15
-4 -4 9 14 17 20 19 20 6z"/>
<path d="M3125 11025 c-16 -7 -38 -16 -47 -19 -10 -3 -18 -10 -18 -16 0 -15
51 -12 80 5 47 27 53 16 18 -27 -45 -55 -61 -86 -54 -104 8 -21 31 -17 65 12
l30 25 29 -32 c23 -26 33 -31 55 -25 37 9 50 39 42 93 -8 57 -30 52 -30 -8 0
-40 -2 -44 -25 -44 -19 0 -26 6 -28 23 -5 34 -29 38 -64 12 -34 -25 -30 -15
15 42 16 20 27 44 25 55 -4 23 -52 27 -93 8z"/>
<path d="M4517 11022 c-21 -23 -22 -64 -2 -102 13 -26 13 -30 -4 -52 -16 -18
-22 -21 -32 -10 -21 20 -31 14 -27 -15 4 -41 33 -40 73 0 38 38 43 61 20 91
-19 26 -19 65 0 72 19 8 20 34 2 34 -8 0 -21 -8 -30 -18z"/>
<path d="M4735 11029 c-4 -6 0 -16 10 -22 28 -21 20 -109 -11 -121 -21 -8 -54
11 -54 32 0 9 9 32 20 50 24 40 25 42 2 42 -22 0 -52 -58 -52 -99 0 -37 23
-56 71 -56 47 0 54 7 70 67 11 41 11 52 -4 83 -16 34 -39 45 -52 24z"/>
<path d="M8790 11022 l-22 -18 26 -31 c33 -39 33 -66 -1 -93 -36 -28 -59 -22
-55 14 2 19 -1 27 -9 24 -44 -15 -30 -88 16 -88 35 0 79 24 99 54 22 34 20 49
-9 84 -27 32 -24 42 12 42 14 0 23 6 23 15 0 21 -52 19 -80 -3z"/>
<path d="M11985 11026 c-63 -27 -69 -67 -15 -99 38 -23 40 -59 5 -75 -35 -16
-60 -15 -75 3 -17 21 -30 19 -30 -5 0 -42 88 -55 134 -19 41 32 36 79 -11 117
l-37 30 38 18 c58 28 49 56 -9 30z"/>
<path d="M4174 11019 c-21 -7 -74 -64 -74 -79 0 -4 8 -18 18 -30 16 -20 22
-22 50 -12 l30 10 7 -49 c4 -27 11 -51 16 -55 19 -11 27 7 18 43 -5 24 -5 58
2 91 8 38 8 57 -1 66 -15 19 -41 25 -66 15z m36 -43 c0 -16 -37 -46 -57 -46
-18 0 -16 20 4 42 19 22 53 24 53 4z"/>
<path d="M10462 10986 c-46 -49 -51 -72 -23 -107 14 -18 31 -23 80 -27 51 -4
61 -2 61 12 0 11 -9 16 -29 16 -55 0 -91 12 -91 30 0 12 11 20 35 24 19 4 47
18 62 31 23 20 26 27 17 42 -6 10 -24 19 -40 21 -24 2 -38 -6 -72 -42z m78 6
c0 -4 -15 -13 -32 -19 l-33 -12 24 19 c24 21 41 26 41 12z"/>
<path d="M8200 11002 c0 -10 5 -23 11 -29 14 -14 5 -71 -15 -99 -14 -18 -15
-18 -45 10 l-30 29 -46 -42 c-26 -24 -49 -40 -52 -37 -3 3 11 35 32 71 44 80
38 94 -29 65 -26 -11 -58 -20 -71 -20 -28 0 -43 -19 -25 -30 12 -7 56 0 92 15
15 6 13 -1 -8 -39 -28 -49 -29 -99 -3 -104 8 -1 35 15 60 36 l44 40 30 -24
c44 -35 60 -31 84 25 23 54 27 101 11 132 -13 24 -40 25 -40 1z"/>
<path d="M9500 11002 c0 -10 5 -23 11 -29 6 -6 9 -28 7 -49 -6 -69 -83 -88
-98 -23 -9 35 -38 36 -51 2 -19 -52 -68 -89 -83 -65 -3 5 1 30 9 57 18 60 18
65 1 65 -17 0 -50 -103 -41 -130 3 -10 12 -23 20 -30 19 -16 74 11 99 49 l20
29 19 -24 c26 -33 68 -31 109 5 27 24 32 35 31 68 -1 21 -6 51 -12 66 -12 30
-41 37 -41 9z"/>
<path d="M10706 10991 c-10 -11 -23 -18 -30 -15 -14 5 -61 -120 -51 -136 10
-16 23 -2 51 51 33 66 58 89 95 89 43 0 32 24 -12 28 -25 2 -40 -3 -53 -17z"/>
<path d="M10031 10975 c-92 -65 -96 -168 -6 -151 44 9 105 65 105 98 0 28 -35
78 -53 78 -7 -1 -27 -12 -46 -25z m65 -36 c15 -26 -48 -89 -90 -89 -24 0 -19
35 10 69 26 31 66 41 80 20z"/>
<path d="M5643 10980 c-23 -9 -53 -67 -53 -101 0 -10 11 -30 24 -46 21 -24 26
-26 49 -16 36 17 62 60 62 104 0 54 -34 78 -82 59z m52 -49 c7 -24 -11 -63
-36 -79 -17 -11 -21 -9 -30 11 -9 19 -7 31 5 56 19 35 51 42 61 12z"/>
<path d="M6779 10971 c-18 -10 -42 -30 -53 -44 -16 -22 -18 -31 -8 -51 14 -30
54 -43 88 -27 19 8 24 8 24 -3 0 -20 24 -36 39 -27 9 6 10 11 2 15 -6 4 -11
24 -11 45 0 51 -7 55 -41 20 -33 -34 -62 -35 -67 -3 -4 26 40 58 68 49 15 -5
20 -2 20 13 0 29 -23 33 -61 13z"/>
<path d="M9072 10929 c-30 -53 -32 -64 -22 -89 15 -37 50 -52 89 -39 39 14 63
71 51 124 -10 45 -16 51 -55 59 -28 6 -32 3 -63 -55z m86 -22 c4 -47 -12 -77
-43 -77 -48 0 -49 59 -1 103 27 24 40 17 44 -26z"/>
<path d="M11708 10965 c-30 -20 -35 -22 -34 -7 0 9 -5 17 -13 17 -13 0 -27
-36 -48 -122 -8 -33 21 -30 37 5 7 15 13 30 12 35 -1 4 3 7 10 7 7 0 25 12 41
28 l30 27 -7 -25 c-4 -14 -9 -46 -12 -71 -5 -37 -3 -47 10 -52 22 -9 42 1 60
28 17 26 7 40 -22 31 -17 -6 -18 -2 -8 44 8 41 7 53 -5 65 -13 13 -19 12 -51
-10z"/>
<path d="M7828 10953 c-52 -56 -61 -100 -28 -133 26 -26 74 -26 101 1 17 17
20 29 16 62 -3 23 -13 46 -21 53 -9 6 -16 19 -16 28 0 24 -23 19 -52 -11z m50
-50 c16 -23 12 -53 -10 -67 -30 -18 -53 4 -53 51 0 36 2 39 25 37 13 -2 30
-11 38 -21z"/>
<path d="M10883 10961 c-29 -14 -44 -28 -49 -45 -14 -56 17 -72 71 -36 39 26
43 25 39 -8 -2 -15 1 -33 5 -41 11 -17 34 -4 27 15 -3 8 -1 35 4 62 5 26 6 50
2 54 -18 17 -60 17 -99 -1z m46 -27 c-19 -24 -72 -49 -67 -32 2 7 20 21 39 30
42 22 45 22 28 2z"/>
<path d="M11453 10960 c-34 -20 -63 -66 -63 -98 0 -23 30 -52 54 -52 27 0 94
38 111 64 21 31 6 70 -34 91 -37 18 -30 19 -68 -5z m75 -53 c-3 -24 -64 -69
-87 -65 -25 5 -24 33 3 65 20 24 31 29 56 25 25 -3 30 -9 28 -25z"/>
<path d="M3420 10941 c0 -10 -3 -33 -6 -50 -5 -24 -3 -31 9 -31 9 0 19 16 26
44 14 58 14 56 -9 56 -13 0 -20 -7 -20 -19z"/>
<path d="M5803 10953 c-29 -6 -53 -40 -53 -74 0 -38 36 -79 69 -79 65 0 102
101 52 141 -23 19 -28 20 -68 12z m55 -57 c6 -27 -18 -66 -40 -66 -26 0 -43
41 -28 69 14 28 63 26 68 -3z"/>
<path d="M11263 10933 c-4 -10 -12 -22 -19 -28 -16 -13 1 -58 18 -53 15 5 38
67 31 85 -7 18 -23 16 -30 -4z"/>
<path d="M2411 10689 c-16 -17 -37 -55 -47 -85 -13 -38 -23 -54 -36 -54 -10 0
-18 -7 -18 -15 0 -8 6 -15 13 -15 9 0 11 -22 8 -85 -3 -73 -1 -85 13 -85 13 0
16 11 16 54 0 29 3 68 6 85 6 30 8 31 59 31 35 0 55 5 58 13 4 10 -8 14 -46
16 -28 1 -53 3 -54 5 -2 2 4 23 12 47 26 72 72 108 102 78 20 -20 36 1 17 22
-26 29 -70 24 -103 -12z"/>
<path d="M2652 10705 c-23 -7 -50 -19 -59 -27 -23 -18 -50 -84 -58 -140 -7
-45 -9 -48 -36 -48 -35 0 -40 -27 -7 -32 20 -3 22 -8 19 -59 -2 -40 2 -59 13
-68 21 -18 39 -5 26 19 -23 42 -5 110 30 110 29 0 50 11 50 27 0 11 -8 12 -36
7 l-36 -7 7 44 c13 77 34 116 71 134 18 9 44 14 56 13 24 -3 28 1 28 27 0 18
-11 18 -68 0z"/>
<path d="M3965 10708 c-8 -26 -35 -168 -35 -188 0 -18 -4 -20 -22 -14 -47 16
-128 3 -128 -21 0 -11 10 -13 48 -9 26 3 58 1 72 -4 24 -9 26 -15 28 -83 3
-86 9 -109 26 -109 9 0 11 22 8 88 l-4 87 38 0 c40 0 60 18 27 23 -67 11 -66
9 -59 66 4 29 13 77 21 106 8 30 12 57 9 62 -8 12 -24 10 -29 -4z"/>
<path d="M6926 10711 c-4 -6 -11 -68 -16 -138 -5 -70 -12 -149 -16 -175 -5
-39 -4 -48 9 -48 9 0 17 14 22 37 9 51 42 113 60 113 20 0 27 -34 23 -106 -2
-46 0 -59 11 -59 11 0 16 19 19 80 3 75 2 81 -22 104 -25 23 -26 23 -52 6
l-27 -17 6 83 c4 46 8 93 9 103 3 21 -16 33 -26 17z"/>
<path d="M7753 10703 c4 -10 18 -49 31 -88 14 -38 26 -83 26 -99 0 -71 -103
-164 -124 -110 -8 21 21 74 42 75 9 1 28 2 41 2 36 3 37 24 2 32 -42 9 -82
-13 -106 -58 -18 -34 -19 -39 -5 -64 24 -43 73 -44 117 -1 44 42 63 78 63 120
0 68 -52 208 -77 208 -10 0 -13 -6 -10 -17z"/>
<path d="M3211 10692 c1 -9 1 -50 0 -89 l-1 -73 -61 0 c-79 0 -77 -24 2 -28
l55 -3 -12 -97 c-12 -92 -8 -122 14 -108 5 3 12 45 16 94 4 48 10 93 14 99 4
7 36 13 71 15 88 4 91 25 4 27 -37 1 -69 3 -70 5 -7 6 -6 72 1 121 7 47 6 51
-14 52 -14 1 -21 -4 -19 -15z"/>
<path d="M6734 10688 c-4 -13 -10 -50 -13 -83 l-6 -60 -67 0 c-36 0 -70 -4
-74 -8 -15 -15 21 -27 83 -27 l62 0 3 -82 c2 -65 6 -83 18 -83 12 0 14 16 11
87 l-3 87 64 3 c82 4 82 22 -1 26 l-63 3 5 52 c3 29 9 64 13 80 5 21 3 27 -9
27 -9 0 -19 -10 -23 -22z"/>
<path d="M8237 10683 c-3 -15 3 -49 14 -75 27 -69 25 -88 -8 -88 -46 -1 -116
-42 -138 -83 l-20 -36 21 -28 c33 -45 82 -44 134 3 23 21 46 46 52 57 15 28
11 131 -7 174 -8 19 -15 51 -15 69 0 42 -25 47 -33 7z m33 -209 c0 -39 -70
-106 -107 -102 -21 2 -29 9 -31 26 -6 42 37 74 136 101 1 1 2 -11 2 -25z"/>
<path d="M4084 10683 c10 -32 9 -86 -3 -153 -16 -96 -15 -190 4 -190 8 0 18
17 25 43 6 23 20 62 32 87 l22 45 6 -55 c7 -69 15 -83 48 -77 16 3 35 -2 52
-14 14 -11 41 -22 61 -25 46 -8 119 12 119 32 0 12 -6 15 -26 10 -65 -17 -83
-17 -118 -2 l-38 16 46 41 c50 46 56 67 26 94 -18 17 -21 17 -45 1 -14 -9 -33
-34 -42 -54 -25 -60 -28 -65 -38 -63 -6 1 -10 32 -10 69 0 61 -2 67 -22 70
-15 2 -29 -7 -48 -35 l-26 -38 7 80 c11 134 12 130 -14 133 -19 3 -23 0 -18
-15z m246 -176 c0 -2 -14 -16 -31 -33 l-31 -29 16 33 c9 17 23 32 31 32 8 0
15 -1 15 -3z"/>
<path d="M5153 10685 c-9 -25 14 -42 32 -24 13 13 12 16 -5 27 -17 10 -21 10
-27 -3z"/>
<path d="M10387 10693 c-4 -3 -7 -21 -7 -40 0 -32 -14 -45 -22 -21 -6 16 -38
2 -38 -16 0 -8 13 -17 30 -21 l29 -6 3 -101 c2 -70 7 -103 16 -106 9 -3 12 21
12 98 l0 103 44 -5 c24 -3 50 -2 56 2 24 15 -2 30 -52 30 l-50 0 6 45 c6 35 4
45 -7 45 -7 0 -17 -3 -20 -7z"/>
<path d="M11006 10670 c-3 -17 -3 -92 1 -166 5 -113 9 -134 21 -132 11 2 16
16 16 48 1 42 3 45 26 42 13 -1 35 -9 47 -18 23 -14 78 -84 85 -106 3 -7 12
-9 21 -5 15 5 13 12 -15 57 -17 28 -50 63 -73 78 l-42 27 64 59 c34 32 63 62
63 67 0 22 -36 5 -79 -37 -25 -25 -58 -55 -73 -65 l-26 -19 -7 62 c-3 35 -5
78 -3 97 4 43 -17 52 -26 11z"/>
<path d="M9497 10608 c-12 -152 -9 -264 8 -278 24 -20 40 1 25 31 -10 17 -11
62 -6 176 6 127 4 153 -7 153 -10 0 -16 -22 -20 -82z"/>
<path d="M9379 10663 c0 -10 -3 -56 -5 -103 -2 -47 -6 -98 -9 -113 -7 -39 4
-77 21 -77 9 0 14 10 13 28 0 15 3 84 7 155 6 114 5 127 -9 127 -10 0 -17 -8
-18 -17z"/>
<path d="M5694 10563 c-12 -148 -6 -223 19 -223 9 0 12 29 12 107 0 60 2 133
5 163 4 45 2 55 -12 58 -14 3 -17 -13 -24 -105z"/>
<path d="M10166 10579 c-14 -11 -26 -28 -26 -38 0 -10 23 -41 51 -69 55 -56
59 -79 13 -74 -35 4 -64 35 -64 69 0 32 -22 25 -27 -9 -8 -57 86 -116 138 -87
38 20 14 87 -47 134 l-37 28 23 19 c15 12 26 15 34 9 16 -14 40 3 33 23 -9 23
-59 20 -91 -5z"/>
<path d="M4970 10572 c-46 -23 -49 -51 -11 -94 46 -53 62 -108 30 -108 -5 0
-18 9 -30 21 -15 15 -18 24 -9 34 8 9 8 15 0 20 -14 8 -40 -13 -40 -32 0 -24
56 -73 84 -73 58 0 55 86 -4 154 -23 26 -27 36 -17 43 34 27 79 25 57 -2 -15
-18 6 -31 25 -15 19 16 19 35 -1 54 -20 21 -41 20 -84 -2z"/>
<path d="M8903 10569 c-35 -10 -69 -57 -79 -108 -8 -39 15 -68 61 -77 36 -6
141 12 150 27 13 21 -8 25 -57 12 -60 -16 -113 -10 -122 13 -7 19 15 74 37 92
11 9 35 13 68 10 64 -4 78 16 22 31 -21 6 -40 11 -43 10 -3 0 -19 -5 -37 -10z"/>
<path d="M5315 10561 c-11 -5 -28 -18 -38 -29 -10 -11 -26 -18 -36 -15 -16 4
-19 -5 -25 -72 -4 -43 -5 -80 -2 -82 13 -13 36 9 36 34 1 46 35 110 69 128 28
14 31 14 31 0 0 -8 6 -15 13 -15 9 0 9 -2 0 -8 -19 -12 -23 -167 -4 -167 21 0
39 34 23 44 -10 6 -11 21 -3 71 15 93 -9 134 -64 111z"/>
<path d="M7134 10539 c-18 -36 -35 -138 -27 -169 3 -11 11 -20 18 -20 17 0 27
43 20 84 -4 20 -1 47 9 69 15 38 33 46 53 26 7 -7 20 -8 30 -5 17 7 16 9 -6
27 -37 30 -77 25 -97 -12z"/>
<path d="M10826 10539 c-53 -42 -72 -112 -37 -143 27 -24 91 -34 91 -13 0 8 3
22 6 31 7 18 -25 23 -42 6 -14 -14 -44 -2 -44 17 0 26 28 69 54 83 26 13 30
30 10 37 -6 2 -23 -6 -38 -18z"/>
<path d="M5497 10505 c-46 -45 -51 -89 -11 -107 18 -9 33 -9 53 -1 l29 10 10
-66 c6 -36 14 -81 18 -99 6 -32 6 -32 -20 -22 -35 13 -102 13 -127 0 -51 -28
14 -190 77 -190 25 0 81 58 90 95 3 14 12 25 20 25 16 0 18 13 5 38 -13 23
-52 279 -49 317 3 27 0 30 -27 33 -24 2 -39 -5 -68 -33z m63 -24 c0 -48 -52
-83 -67 -45 -5 15 41 74 59 74 4 0 8 -13 8 -29z m9 -292 c26 -9 30 -15 25 -33
-19 -62 -60 -106 -84 -91 -15 9 -50 81 -50 103 0 10 3 22 7 25 10 11 67 8 102
-4z"/>
<path d="M10530 10493 c-33 -51 -35 -64 -20 -94 13 -23 47 -25 77 -4 20 14 22
13 33 -20 12 -37 24 -50 39 -40 6 3 3 21 -6 42 -10 26 -13 52 -9 85 5 38 4 48
-7 48 -8 0 -20 7 -27 15 -23 27 -49 17 -80 -32z m90 9 c0 -14 -46 -82 -58 -87
-38 -14 -35 30 4 75 12 14 54 23 54 12z"/>
<path d="M5833 10510 c-47 -28 -65 -62 -65 -121 1 -62 20 -93 67 -109 30 -10
44 -9 79 4 55 21 95 61 78 78 -9 9 -17 7 -33 -11 -64 -69 -159 -53 -159 26 0
25 4 33 18 33 27 1 116 53 120 71 4 22 -24 49 -51 49 -12 0 -36 -9 -54 -20z
m67 -20 c0 -5 -23 -21 -51 -35 -47 -24 -49 -25 -39 -6 17 33 90 66 90 41z"/>
<path d="M7273 10513 c-32 -27 -73 -93 -73 -119 0 -39 34 -64 84 -64 57 0 76
8 76 31 0 20 -15 26 -25 9 -9 -15 -81 -12 -95 5 -15 19 -5 48 32 91 34 38 58
44 58 14 0 -15 -9 -22 -30 -26 -34 -7 -57 -29 -40 -39 15 -9 74 12 93 33 26
29 9 76 -29 80 -16 1 -38 -6 -51 -15z"/>
<path d="M7984 10516 c-76 -33 -109 -146 -53 -177 24 -12 80 3 100 27 12 14 7
15 -35 9 -36 -6 -50 -4 -57 6 -14 22 -12 25 40 38 51 13 101 49 101 74 0 36
-42 46 -96 23z m56 -25 c0 -13 -22 -29 -53 -36 -39 -10 -35 13 6 30 38 17 47
18 47 6z"/>
<path d="M2078 10490 c-63 -33 -90 -97 -50 -119 13 -7 28 -4 60 15 l42 25 0
-24 c0 -24 37 -67 58 -67 17 0 15 7 -10 41 -20 27 -21 33 -10 75 11 41 11 48
-5 60 -24 18 -41 17 -85 -6z m52 -24 c0 -16 -77 -72 -87 -63 -8 9 16 37 52 59
36 22 35 21 35 4z"/>
<path d="M2924 10500 c-59 -24 -85 -114 -42 -144 30 -22 128 -22 128 -1 0 11
-12 15 -48 15 -72 0 -93 33 -51 79 16 17 27 21 50 16 25 -6 29 -4 29 14 0 12
-4 21 -9 21 -5 0 -15 2 -23 4 -7 3 -23 1 -34 -4z"/>
<path d="M5139 10503 c-1 -5 0 -18 1 -30 0 -12 -6 -43 -15 -69 -16 -47 -13
-60 14 -66 11 -2 16 8 18 32 1 19 5 59 9 88 5 43 3 52 -10 52 -9 0 -16 -3 -17
-7z"/>
<path d="M9134 10485 c-34 -35 -30 -79 8 -83 15 -2 40 4 57 12 39 21 41 20 41
-7 0 -13 6 -31 13 -42 20 -26 30 -3 18 40 -5 20 -7 51 -4 70 4 27 2 35 -10 35
-8 0 -17 -6 -20 -12 -4 -10 -7 -10 -18 0 -21 20 -58 14 -85 -13z m74 -17 c-6
-17 -55 -44 -64 -35 -11 11 26 47 48 47 11 0 18 -5 16 -12z"/>
<path d="M2688 10475 c-58 -39 -63 -101 -13 -151 33 -33 115 -32 115 1 0 9
-11 12 -37 9 -41 -5 -66 9 -77 41 -5 19 -1 21 36 22 50 2 69 22 65 67 -3 41
-39 46 -89 11z m60 -22 c-2 -12 -14 -19 -38 -21 l-35 -3 30 21 c37 25 47 25
43 3z"/>
<path d="M7440 10467 c-23 -37 -24 -49 -8 -65 17 -17 49 -15 76 4 21 14 22 14
22 -9 0 -26 33 -67 55 -67 21 0 19 14 -6 36 -18 16 -21 27 -16 75 l5 56 -54 1
c-51 1 -56 -1 -74 -31z m70 -12 c0 -12 -28 -35 -44 -35 -11 0 -6 26 6 38 17
17 38 15 38 -3z"/>
<path d="M11376 10341 c-9 -14 5 -42 18 -38 15 5 14 39 -1 44 -6 2 -14 0 -17
-6z"/>
<path d="M13665 9505 c-53 -28 -93 -76 -127 -151 -33 -75 -44 -84 -100 -84
-19 0 -28 -5 -28 -16 0 -13 9 -15 44 -13 l43 4 -13 -38 c-8 -21 -17 -67 -20
-103 -6 -54 -4 -64 9 -64 12 0 17 15 22 58 4 31 13 80 20 108 14 49 15 50 67
63 70 18 93 30 80 43 -7 7 -27 5 -61 -5 -29 -8 -51 -11 -51 -5 0 5 12 34 27
65 29 58 85 113 116 113 10 0 16 4 13 9 -4 5 4 7 15 4 16 -4 20 -2 17 8 -7 20
-38 22 -73 4z"/>
<path d="M12076 9488 c-2 -7 -7 -56 -10 -108 -3 -52 -10 -98 -16 -104 -5 -5
-33 -10 -61 -10 -31 -1 -54 -6 -56 -13 -6 -16 40 -27 77 -19 38 7 38 -1 0 -94
-28 -69 -31 -95 -7 -87 5 1 25 43 42 92 30 81 35 90 64 97 37 10 40 24 6 32
-24 6 -24 7 -18 84 10 118 9 135 -4 139 -7 3 -15 -1 -17 -9z"/>
<path d="M4382 9345 c-7 -64 -22 -163 -33 -220 -22 -108 -21 -135 7 -135 11 0
15 6 11 20 -3 11 1 50 8 85 23 108 47 288 43 324 -2 19 -8 36 -13 38 -7 2 -15
-42 -23 -112z"/>
<path d="M9269 9394 c-16 -37 -32 -77 -35 -90 -5 -21 -10 -23 -50 -17 -35 5
-44 3 -44 -9 0 -10 14 -18 39 -22 39 -6 40 -6 30 -39 -13 -43 -13 -136 0 -168
13 -37 48 -59 91 -59 41 0 82 24 74 44 -3 8 -1 17 5 21 19 11 12 26 -11 23
-14 -2 -24 -12 -28 -28 -7 -30 -54 -39 -84 -17 -24 18 -33 113 -17 174 11 40
14 42 57 49 25 3 48 13 51 20 3 8 10 11 17 7 7 -4 8 -2 1 5 -7 7 -25 8 -55 2
-25 -4 -46 -7 -48 -6 -1 2 11 36 28 76 32 77 36 100 20 100 -6 0 -24 -30 -41
-66z"/>
<path d="M2375 9430 c-4 -6 1 -23 11 -38 25 -38 22 -112 -9 -201 -43 -124
-100 -190 -151 -177 -31 8 -40 34 -37 113 1 33 -2 64 -7 67 -5 3 -20 -1 -35
-9 -27 -14 -27 -13 12 58 55 102 68 145 48 164 -14 14 -20 14 -59 -7 -24 -12
-71 -43 -105 -68 -59 -45 -78 -72 -50 -72 20 0 88 61 81 72 -4 7 -2 8 4 4 6
-4 29 5 51 19 23 14 43 25 46 25 15 0 -1 -42 -61 -156 -44 -85 -63 -129 -56
-136 7 -7 22 1 47 26 19 20 40 36 45 36 6 0 10 -27 10 -60 0 -51 4 -65 25 -85
38 -39 93 -31 142 21 53 57 120 249 109 317 -11 69 -44 115 -61 87z"/>
<path d="M7452 9423 c-5 -10 -15 -45 -21 -79 l-13 -60 -69 -12 c-38 -7 -81
-12 -94 -12 -26 0 -33 -14 -14 -25 19 -12 129 6 129 21 0 12 4 12 21 2 22 -14
22 -8 2 -145 -5 -35 -3 -43 10 -43 11 0 18 21 28 85 8 56 17 85 25 85 21 0 27
20 10 33 -14 11 -14 19 -1 82 8 38 15 73 15 77 0 15 -19 8 -28 -9z"/>
<path d="M7616 9393 c-18 -153 -38 -258 -56 -294 -20 -38 -20 -59 1 -59 5 0
25 33 43 73 19 39 41 81 50 92 l15 20 1 -20 c0 -32 37 -84 65 -91 14 -3 25
-12 25 -20 0 -7 11 -26 24 -41 20 -23 32 -28 70 -28 31 0 50 5 56 15 23 36 3
54 -27 24 -19 -18 -62 -11 -80 13 -19 25 -15 36 19 58 51 33 74 70 62 102 -5
15 -18 29 -28 31 -25 5 -74 -45 -88 -90 -6 -21 -15 -38 -19 -38 -13 0 -49 52
-49 71 0 48 -21 61 -53 32 -19 -18 -19 -17 -12 62 3 44 9 92 11 108 4 20 2 27
-10 27 -10 0 -16 -14 -20 -47z m244 -168 c0 -13 -34 -57 -51 -66 -17 -9 -18
-7 -8 18 13 36 28 53 45 53 8 0 14 -2 14 -5z"/>
<path d="M3740 9403 c0 -15 -6 -62 -14 -103 -22 -115 -40 -302 -32 -333 3 -15
13 -27 22 -27 20 0 30 30 14 40 -11 7 -11 29 -1 127 7 65 19 151 28 190 8 40
13 85 11 100 -4 37 -28 43 -28 6z"/>
<path d="M6100 9392 c0 -20 -11 -100 -25 -177 -28 -154 -29 -220 -5 -220 11 0
14 9 12 31 -1 16 9 101 23 188 29 183 30 202 10 210 -13 4 -16 -2 -15 -32z"/>
<path d="M10349 9393 c-27 -31 -30 -39 -16 -41 20 -4 81 53 72 68 -10 17 -22
11 -56 -27z"/>
<path d="M3597 9399 c-9 -44 -27 -273 -27 -336 0 -49 3 -63 15 -63 12 0 15 14
15 63 0 34 7 123 15 197 11 114 11 137 0 149 -12 12 -15 11 -18 -10z"/>
<path d="M9958 9414 c-4 -3 2 -18 13 -33 15 -21 22 -50 26 -118 5 -86 4 -93
-23 -143 -29 -53 -96 -120 -121 -120 -20 0 -16 60 7 97 21 35 55 58 70 48 13
-8 50 3 50 15 0 17 -56 21 -91 6 -43 -18 -79 -79 -79 -133 0 -77 45 -84 118
-18 72 65 102 130 101 219 -1 107 -19 180 -44 184 -12 2 -24 0 -27 -4z"/>
<path d="M12493 9331 c-64 -46 -113 -134 -113 -201 0 -46 26 -38 33 10 12 91
92 190 154 190 14 0 23 6 23 15 0 25 -54 17 -97 -14z"/>
<path d="M12596 9254 c-41 -42 -66 -92 -73 -144 -7 -49 9 -76 50 -84 38 -7
129 17 147 39 20 25 4 29 -41 11 -49 -20 -105 -24 -121 -8 -8 8 -9 23 -2 48 8
32 15 38 59 53 57 18 82 52 71 94 -9 39 -47 36 -90 -9z m64 -6 c0 -21 -14 -36
-43 -47 -34 -13 -34 -5 0 31 29 30 43 35 43 16z"/>
<path d="M5319 9257 c-14 -12 -38 -39 -52 -59 -50 -68 -29 -178 33 -178 27 0
141 38 164 55 28 21 10 38 -22 21 -54 -28 -133 -46 -153 -35 -25 13 -26 67 -1
75 62 20 122 68 122 99 0 47 -48 59 -91 22z m61 -22 c0 -16 -77 -72 -86 -63
-8 9 56 78 72 78 8 0 14 -7 14 -15z"/>
<path d="M5857 9228 c-32 -41 -35 -50 -46 -158 -6 -63 -14 -139 -17 -167 -6
-44 -4 -53 9 -53 11 0 18 19 27 73 6 39 14 81 17 91 5 17 6 18 15 3 14 -26 44
-20 74 16 57 68 72 161 33 211 -32 41 -70 35 -112 -16z m94 -9 c17 -33 5 -104
-26 -150 l-27 -42 -24 26 c-15 16 -24 38 -24 57 0 31 22 93 41 117 17 20 47
16 60 -8z"/>
<path d="M5681 9210 c-18 -28 -35 -50 -39 -50 -4 0 -18 12 -31 26 -33 34 -58
47 -67 33 -3 -6 10 -24 30 -41 20 -16 36 -34 36 -40 0 -6 -13 -26 -30 -45 -16
-18 -30 -40 -30 -48 0 -27 28 -16 49 20 11 19 25 35 31 35 5 0 22 -18 36 -40
15 -22 33 -40 40 -40 21 0 17 15 -17 63 l-31 44 36 47 c20 26 36 54 36 61 0
31 -19 21 -49 -25z"/>
<path d="M8377 9239 c-52 -39 -81 -130 -61 -184 17 -43 122 -49 151 -9 20 28
-4 45 -25 19 -19 -23 -62 -26 -86 -6 -16 14 -23 67 -7 57 5 -3 27 8 50 24 43
32 52 61 31 101 -13 24 -18 23 -53 -2z m33 -39 c0 -19 -45 -58 -56 -48 -5 5
43 68 52 68 2 0 4 -9 4 -20z"/>
<path d="M8969 9223 c-18 -21 -39 -37 -46 -35 -13 3 -35 -38 -48 -91 -11 -44
16 -32 58 26 l38 52 -6 -50 c-5 -36 -4 -46 4 -35 10 13 11 13 12 0 1 -8 1 -19
0 -24 -5 -25 73 -36 110 -16 35 19 21 31 -29 24 -71 -9 -80 7 -56 94 10 37 19
71 19 76 0 23 -25 13 -56 -21z"/>
<path d="M11595 9229 c-19 -17 -35 -26 -35 -20 0 18 -30 13 -37 -6 -3 -10 -23
-56 -44 -102 -36 -77 -41 -101 -19 -101 4 0 18 19 29 43 12 23 43 67 70 97
l50 55 -9 -35 c-17 -61 -13 -128 9 -140 11 -5 24 -10 30 -10 17 0 13 27 -4 34
-21 8 -19 61 5 138 11 34 20 66 20 71 0 17 -32 5 -65 -24z"/>
<path d="M3420 9235 c-10 -12 -10 -19 -2 -27 15 -15 48 14 38 31 -10 15 -21
14 -36 -4z"/>
<path d="M8752 9234 c-29 -20 -62 -85 -62 -122 0 -38 33 -79 70 -87 33 -7 70
9 70 31 0 12 -4 12 -20 4 -25 -14 -68 -3 -80 20 -15 28 -12 50 6 50 26 0 82
39 89 61 4 13 0 28 -11 40 -21 23 -33 24 -62 3z m38 -33 c0 -12 -42 -42 -49
-36 -5 6 29 45 41 45 4 0 8 -4 8 -9z"/>
<path d="M10210 9240 c0 -5 -7 -10 -15 -10 -8 0 -29 -16 -48 -35 -19 -19 -39
-35 -44 -35 -6 0 -13 -24 -16 -52 -3 -29 -7 -62 -9 -73 -2 -12 3 -20 11 -20 9
0 23 27 38 69 23 69 55 116 79 116 7 0 18 9 24 19 13 26 13 31 -5 31 -8 0 -15
-4 -15 -10z"/>
<path d="M8622 9193 c-6 -27 -14 -65 -17 -86 -4 -20 -11 -39 -15 -42 -10 -6
-43 70 -49 116 -7 50 -25 51 -29 4 -4 -44 49 -165 72 -165 22 0 44 47 61 130
18 87 18 90 1 90 -9 0 -18 -18 -24 -47z"/>
<path d="M10560 9225 c-9 -10 -32 -15 -76 -15 l-64 0 -1 -57 0 -58 -16 38
c-16 39 -43 51 -43 19 0 -10 3 -22 8 -26 4 -4 14 -33 23 -64 21 -75 44 -82 54
-15 3 26 6 67 7 91 l0 42 47 0 c70 0 91 9 91 36 0 27 -12 31 -30 9z"/>
<path d="M11746 9215 c-34 -37 -52 -84 -39 -104 11 -17 64 -21 94 -7 11 5 19
-1 27 -19 17 -37 36 -32 28 8 -4 23 0 48 14 81 12 25 19 50 16 54 -2 4 -30 9
-61 10 -48 2 -59 -1 -79 -23z m104 -4 c0 -17 -53 -73 -78 -82 -38 -14 -45 3
-19 42 16 24 33 36 57 40 19 4 36 7 38 8 1 0 2 -3 2 -8z"/>
<path d="M6411 9203 c-19 -18 -32 -42 -36 -68 -3 -22 -11 -62 -17 -88 -7 -33
-7 -52 0 -59 14 -14 27 13 42 87 13 62 32 109 50 120 5 3 18 1 29 -5 27 -14
40 8 16 27 -28 20 -51 16 -84 -14z"/>
<path d="M10868 9189 c-18 -23 -33 -45 -33 -50 0 -5 -10 -16 -23 -25 l-22 -15
16 43 c9 24 21 47 26 53 13 15 9 25 -10 25 -26 0 -97 -179 -75 -187 16 -6 85
55 114 102 l18 29 -5 -36 c-5 -31 -2 -41 21 -63 23 -24 31 -27 68 -21 49 8 87
30 87 51 0 17 -16 20 -25 5 -8 -13 -80 -31 -98 -24 -24 9 -27 29 -12 86 21 81
4 91 -47 27z"/>
<path d="M12318 9224 c-4 -3 -4 -21 -1 -39 4 -28 1 -36 -29 -59 -19 -14 -45
-26 -56 -26 -19 0 -22 6 -22 44 0 25 5 46 12 48 15 5 1 28 -17 28 -28 0 -40
-105 -16 -134 23 -28 73 -20 120 20 38 33 42 40 39 77 -3 38 -16 56 -30 41z"/>
<path d="M2497 9196 c-45 -49 -63 -89 -56 -128 8 -53 34 -78 78 -77 55 2 86
13 89 33 3 15 0 17 -14 11 -29 -12 -87 -17 -101 -7 -28 18 -18 49 27 83 47 36
60 69 40 95 -18 20 -38 17 -63 -10z m40 -30 c-3 -8 -15 -20 -27 -26 -20 -11
-21 -10 -9 12 19 37 49 49 36 14z"/>
<path d="M4465 9204 c-17 -17 -17 -28 1 -118 6 -29 6 -29 -35 -23 -36 4 -42 3
-39 -11 2 -13 16 -18 57 -20 l54 -3 -7 58 c-3 32 -7 67 -9 78 -2 16 4 20 28
20 20 1 30 6 30 15 0 22 -59 25 -80 4z"/>
<path d="M4628 9186 c-70 -88 -33 -179 57 -142 41 17 68 57 67 97 -2 81 -74
107 -124 45z m92 -47 c0 -34 -34 -69 -67 -69 -48 0 -41 69 9 100 38 23 58 12
58 -31z"/>
<path d="M6171 9198 c-12 -12 -28 -40 -37 -63 -14 -38 -14 -46 0 -78 21 -51
55 -50 107 2 50 50 53 90 8 132 -37 35 -52 36 -78 7z m64 -38 c15 -16 17 -26
9 -47 -11 -31 -57 -68 -73 -59 -27 17 2 126 33 126 7 0 21 -9 31 -20z"/>
<path d="M3128 9200 c-9 -6 -40 -15 -70 -20 -59 -12 -78 -24 -61 -41 7 -7 17
-8 29 -1 11 5 36 12 57 15 l38 6 -36 -49 c-26 -35 -35 -58 -33 -77 3 -25 7
-28 41 -27 22 1 51 11 67 22 l28 21 12 -29 c14 -34 32 -43 64 -30 34 13 46 40
46 105 0 48 -2 56 -17 53 -15 -3 -17 -13 -15 -52 3 -49 -9 -76 -34 -76 -8 0
-17 14 -21 31 -8 43 -25 45 -74 10 -43 -32 -69 -39 -69 -20 0 6 23 42 50 80
28 38 50 73 50 79 0 13 -30 12 -52 0z"/>
<path d="M6574 9166 c-37 -37 -44 -50 -44 -83 0 -51 26 -76 78 -76 39 0 109
30 131 56 22 27 -5 28 -52 1 -59 -33 -120 -31 -125 4 -3 17 2 22 17 22 39 0
111 52 111 80 0 23 -20 40 -48 40 -16 0 -41 -16 -68 -44z m79 -1 c1 -6 -11
-16 -26 -23 -15 -7 -27 -17 -27 -22 0 -5 -8 -6 -17 -3 -14 5 -11 11 17 35 34
28 50 32 53 13z"/>
<path d="M10608 9191 c-29 -23 -58 -78 -58 -110 0 -12 12 -33 26 -48 22 -22
31 -24 65 -19 46 7 79 25 79 43 0 15 -22 17 -35 4 -6 -5 -24 -12 -41 -15 -23
-5 -34 -2 -48 13 -17 19 -16 20 34 58 41 30 50 43 48 63 -4 32 -36 37 -70 11z
m42 -14 c0 -2 -10 -12 -22 -23 l-23 -19 19 23 c18 21 26 27 26 19z"/>
<path d="M4118 9177 c-79 -39 -114 -116 -64 -139 20 -9 33 -7 65 9 l41 20 0
-34 c0 -42 15 -73 37 -73 12 0 13 5 7 23 -15 41 -7 138 13 154 13 10 15 16 6
19 -7 3 -13 14 -13 25 0 24 -38 22 -92 -4z m52 -27 c0 -16 -59 -77 -80 -83
-46 -12 -34 33 19 68 37 26 61 32 61 15z"/>
<path d="M13310 9190 c0 -5 -16 -17 -35 -26 -94 -44 -101 -154 -9 -154 75 0
123 54 110 124 -7 38 -66 88 -66 56z m38 -77 c5 -35 -41 -75 -81 -71 -43 4
-47 31 -11 69 36 37 87 38 92 2z"/>
<path d="M10233 9147 c-16 -20 -9 -112 8 -112 10 0 14 15 15 58 1 59 -6 76
-23 54z"/>
<path d="M3394 9065 c1 -60 16 -74 30 -26 10 36 1 81 -17 81 -10 0 -13 -16
-13 -55z"/>
<path d="M11017 8944 c-3 -4 0 -16 8 -28 8 -11 15 -42 15 -68 0 -47 -1 -48
-32 -49 -50 -2 -83 -13 -83 -29 0 -15 9 -16 72 -5 l32 6 -6 -82 c-5 -68 -4
-81 8 -77 8 3 15 11 16 19 1 8 5 40 8 71 6 53 8 57 36 63 31 7 30 25 -2 25
-16 0 -19 7 -19 53 0 69 -29 124 -53 101z"/>
<path d="M2820 8922 c0 -5 7 -26 15 -45 33 -79 9 -195 -52 -259 -28 -29 -68
-37 -76 -15 -7 19 12 60 36 79 17 13 19 20 10 29 -24 24 -77 -42 -75 -94 3
-95 117 -64 174 47 41 80 31 255 -15 264 -10 2 -17 -1 -17 -6z"/>
<path d="M11244 8886 c7 -44 7 -44 -26 -51 -48 -11 -88 -33 -88 -50 0 -18 4
-19 38 -1 15 7 39 16 53 19 l25 6 -13 -72 c-8 -39 -19 -82 -25 -94 -13 -26 -4
-43 20 -36 15 3 21 22 31 91 14 103 21 117 50 107 11 -3 25 -3 31 0 13 8 -10
32 -36 37 -13 2 -22 16 -28 46 -6 26 -14 42 -24 42 -11 0 -13 -9 -8 -44z"/>
<path d="M6235 8888 c-2 -7 -9 -39 -15 -70 -11 -56 -13 -58 -43 -58 -48 0 -77
-11 -77 -27 0 -12 10 -14 49 -9 l49 6 -8 -35 c-4 -20 -13 -42 -19 -49 -8 -10
-8 -16 3 -26 22 -17 34 -5 41 44 9 57 16 67 55 75 47 9 51 31 7 31 l-35 0 9
38 c12 51 11 92 -1 92 -6 0 -12 -6 -15 -12z"/>
<path d="M13295 8889 c-4 -6 0 -16 9 -22 14 -10 15 -20 7 -62 -26 -136 -22
-233 9 -243 10 -4 12 5 7 39 -3 24 1 93 9 152 8 60 12 117 9 128 -7 20 -39 26
-50 8z"/>
<path d="M12879 8878 c-1 -7 -1 -30 1 -51 1 -21 -3 -60 -10 -86 l-11 -49 -38
5 c-32 4 -42 1 -69 -27 -39 -38 -40 -82 -4 -111 22 -17 27 -17 52 -4 50 26 95
124 109 241 9 75 6 94 -15 94 -8 0 -15 -6 -15 -12z m-47 -214 c11 -11 -16 -63
-40 -75 -19 -11 -25 -11 -32 1 -13 21 -13 24 11 54 19 24 48 34 61 20z"/>
<path d="M4493 8863 c-17 -6 -17 -56 -1 -51 6 2 16 12 22 21 12 19 -1 37 -21
30z"/>
<path d="M9458 8810 c-20 -49 -22 -50 -54 -44 -27 5 -34 3 -34 -9 0 -9 12 -18
28 -22 25 -5 27 -9 24 -44 -6 -60 27 -115 82 -136 50 -19 74 -17 90 7 14 23 2
32 -22 17 -43 -27 -122 38 -122 101 0 35 13 52 34 44 19 -7 103 14 112 28 11
18 -5 20 -55 7 -67 -17 -80 -5 -52 45 25 44 26 56 5 56 -9 0 -24 -20 -36 -50z"/>
<path d="M10854 8839 c-10 -17 13 -36 27 -22 12 12 4 33 -11 33 -5 0 -12 -5
-16 -11z"/>
<path d="M11613 8825 c-12 -8 -29 -35 -39 -60 -9 -25 -22 -45 -29 -45 -15 0
-30 -169 -16 -183 13 -13 24 16 52 133 12 55 30 101 43 117 22 25 23 25 55 8
48 -24 65 -3 20 24 -40 25 -57 26 -86 6z"/>
<path d="M6030 8816 c0 -15 24 -28 34 -19 13 14 5 33 -14 33 -11 0 -20 -6 -20
-14z"/>
<path d="M12427 8748 l-57 -63 7 52 c7 64 -11 78 -57 44 -16 -11 -36 -18 -44
-15 -27 10 -83 -154 -58 -170 6 -4 26 23 47 63 34 65 70 110 79 100 2 -2 0
-26 -5 -54 -15 -81 2 -96 52 -45 17 16 28 34 25 38 -3 5 1 9 9 9 11 0 12 -14
8 -67 -5 -55 -3 -69 12 -84 22 -22 45 -5 25 19 -15 18 -8 101 16 171 25 73 5
74 -59 2z"/>
<path d="M7649 8745 c-19 -32 -33 -46 -26 -27 1 4 -2 7 -7 7 -6 0 -11 -29 -13
-65 -1 -36 -4 -76 -5 -90 -2 -19 2 -25 17 -25 17 0 21 9 26 62 6 62 34 143 50
143 4 0 10 -4 14 -10 3 -5 12 -7 21 -3 13 5 13 8 -2 24 -26 29 -52 23 -75 -16z"/>
<path d="M11334 8733 c-39 -42 -43 -51 -39 -87 4 -49 41 -86 86 -86 37 0 30
15 -17 35 -28 11 -34 19 -34 43 0 25 5 30 38 40 51 16 76 44 68 77 -11 42 -51
33 -102 -22z m66 1 c-8 -8 -23 -20 -34 -26 -19 -10 -18 -8 3 16 26 27 53 37
31 10z"/>
<path d="M2230 8733 c0 -23 -13 -63 -32 -100 -17 -34 -29 -65 -25 -69 14 -14
35 7 59 58 22 45 76 114 84 106 1 -2 -2 -23 -6 -48 -14 -69 -12 -88 11 -111
15 -15 30 -19 62 -17 26 2 41 8 40 15 -2 7 4 10 12 7 9 -4 15 0 15 10 0 18
-25 22 -35 6 -9 -15 -61 -12 -74 4 -12 14 -9 38 15 149 5 23 3 27 -16 27 -12
0 -35 -9 -51 -21 l-29 -20 0 20 c0 12 -7 21 -15 21 -11 0 -15 -11 -15 -37z"/>
<path d="M2959 8739 c-16 -17 -32 -42 -35 -55 -3 -13 -12 -24 -20 -24 -19 0
-18 -19 1 -26 8 -4 15 -12 15 -18 0 -41 96 -81 128 -54 9 9 24 18 32 22 8 3
-5 4 -30 1 -46 -5 -90 9 -98 33 -2 7 5 12 17 12 24 0 87 53 96 80 10 32 -12
60 -46 60 -22 0 -40 -9 -60 -31z m73 -4 c10 -11 -17 -54 -40 -65 -49 -22 -55
-7 -16 39 24 29 44 38 56 26z"/>
<path d="M3976 8697 c-25 -53 -48 -86 -86 -120 -38 -34 -50 -51 -42 -59 7 -7
23 2 55 31 l44 41 6 -30 c9 -41 41 -40 86 3 18 17 31 26 27 19 -5 -7 -5 -24
-2 -38 5 -20 12 -25 34 -22 16 2 27 9 27 18 0 9 -7 14 -18 12 -16 -3 -17 2
-11 35 4 21 11 48 15 61 13 35 11 62 -5 62 -8 0 -17 -12 -20 -28 -7 -28 -81
-122 -97 -122 -19 0 -8 57 21 110 33 62 38 100 14 100 -9 0 -28 -28 -48 -73z"/>
<path d="M4282 8743 c-39 -31 -40 -52 -6 -102 21 -32 24 -43 14 -60 -12 -24
-45 -28 -54 -6 -8 22 -26 18 -26 -5 0 -11 11 -27 25 -36 23 -15 27 -15 50 0
14 10 31 29 38 43 11 26 9 32 -33 100 -13 20 -12 25 14 52 36 37 19 48 -22 14z"/>
<path d="M8470 8763 c-52 -19 -92 -102 -69 -145 19 -36 41 -47 89 -47 59 1 80
7 80 24 0 10 -14 12 -58 8 -45 -4 -60 -2 -71 11 -11 13 -10 17 10 25 36 14 99
71 99 90 0 34 -37 50 -80 34z m45 -32 c6 -11 -55 -61 -73 -61 -25 0 -3 39 33
58 25 14 32 14 40 3z"/>
<path d="M12660 8754 c-8 -8 -31 -25 -50 -37 -23 -15 -40 -37 -50 -64 -13 -39
-13 -44 5 -62 28 -32 71 -27 111 13 36 36 41 61 23 117 -16 46 -22 51 -39 33z
m16 -69 c12 -47 -57 -108 -88 -77 -14 14 17 76 45 90 32 16 36 14 43 -13z"/>
<path d="M7157 8733 c-41 -32 -57 -61 -57 -104 0 -44 50 -89 99 -89 51 0 81
10 81 26 0 11 -11 13 -52 8 -45 -5 -56 -3 -75 15 -33 31 -29 67 12 108 27 27
41 34 59 29 28 -7 40 2 25 21 -18 21 -53 15 -92 -14z"/>
<path d="M8830 8748 c-67 -15 -73 -22 -65 -89 5 -38 3 -59 -5 -64 -18 -11 -49
24 -55 64 -12 70 -16 81 -30 81 -12 0 -13 -10 -8 -47 8 -67 27 -109 57 -128
24 -16 28 -16 52 0 24 15 26 21 22 78 l-3 61 51 12 c57 13 74 21 74 35 0 11
-30 10 -90 -3z"/>
<path d="M10267 8735 c-68 -46 -98 -150 -61 -204 16 -22 22 -23 78 -18 34 3
69 9 78 12 21 8 32 35 19 48 -7 7 -12 5 -17 -6 -8 -21 -108 -35 -129 -17 -23
19 -18 37 12 44 42 11 112 65 119 91 8 30 -19 75 -44 75 -10 0 -34 -11 -55
-25z m67 -21 c10 -25 -39 -72 -92 -89 -23 -7 -23 -6 -8 23 15 29 70 82 86 82
4 0 11 -7 14 -16z"/>
<path d="M13045 8710 c-12 -37 -30 -62 -68 -95 -28 -25 -55 -45 -59 -45 -5 0
-8 -7 -8 -15 0 -22 15 -18 62 15 40 30 41 30 55 10 18 -26 57 -26 83 0 19 19
20 19 20 1 0 -20 38 -72 41 -56 1 6 3 35 3 65 1 30 6 70 10 88 12 44 -17 44
-39 -1 -19 -41 -62 -87 -80 -87 -21 0 -18 36 9 102 13 32 21 60 18 63 -16 15
-32 0 -47 -45z"/>
<path d="M2578 8734 c-50 -26 -64 -92 -30 -134 15 -19 21 -20 44 -10 14 7 34
26 43 44 14 27 15 36 2 70 -16 47 -23 50 -59 30z m32 -63 c0 -15 -8 -36 -19
-45 -17 -15 -19 -15 -25 -1 -10 28 -7 53 10 69 20 21 34 12 34 -23z"/>
<path d="M6417 8744 c-13 -14 -7 -59 13 -92 11 -18 18 -37 15 -43 -10 -15 -45
-11 -50 6 -17 52 -14 50 -33 32 -15 -16 -15 -20 -2 -44 18 -31 55 -44 88 -30
32 15 37 48 13 88 -29 46 -27 60 7 57 19 -2 27 2 27 12 0 16 -64 27 -78 14z"/>
<path d="M7402 8738 c-37 -10 -72 -58 -72 -100 0 -34 51 -78 90 -78 44 0 84
40 83 82 -1 44 -26 94 -50 100 -10 3 -33 1 -51 -4z m58 -47 c5 -11 10 -34 10
-51 0 -41 -39 -61 -78 -39 -34 19 -38 48 -12 82 25 32 65 36 80 8z"/>
<path d="M7815 8730 c-46 -30 -65 -61 -65 -107 0 -33 5 -46 26 -62 29 -23 85
-28 129 -11 41 15 20 30 -34 23 -90 -10 -129 43 -48 66 70 21 106 68 75 99
-18 18 -49 15 -83 -8z m65 -19 c0 -14 -26 -31 -62 -41 l-33 -9 33 29 c31 29
62 39 62 21z"/>
<path d="M13495 8740 c-47 -10 -73 -28 -90 -60 -26 -50 -15 -98 25 -120 39
-21 193 21 168 45 -3 3 -35 -2 -73 -10 -63 -15 -69 -15 -86 1 -30 27 -23 39
33 54 53 13 104 52 93 70 -12 19 -40 27 -70 20z m19 -40 c-15 -15 -76 -31 -68
-19 7 12 42 27 64 28 9 1 11 -2 4 -9z"/>
<path d="M4613 8698 c-49 -46 -82 -106 -83 -150 0 -56 30 -25 45 47 7 33 86
115 110 115 21 0 19 -23 -5 -50 -24 -27 -24 -28 -6 -46 29 -29 38 -19 52 59
13 78 -42 90 -113 25z"/>
<path d="M8922 8697 c-43 -44 -52 -97 -23 -126 33 -33 131 -22 131 15 0 12 -5
14 -17 9 -10 -5 -32 -10 -50 -13 -24 -3 -34 1 -42 17 -10 17 -9 21 5 21 25 0
84 48 84 69 0 21 -19 41 -40 41 -9 0 -31 -15 -48 -33z m58 -6 c0 -9 -44 -41
-56 -41 -4 0 3 11 16 25 24 26 40 32 40 16z"/>
<path d="M10517 8654 c-31 -36 -57 -63 -57 -60 0 3 9 27 19 55 19 46 19 61 -1
61 -11 0 -39 -70 -32 -81 3 -5 0 -9 -6 -9 -6 0 -9 -4 -5 -9 3 -5 1 -12 -5 -16
-16 -10 -12 -55 7 -62 12 -5 24 4 42 27 14 19 39 48 54 65 l29 30 -6 -28 c-5
-20 -2 -29 11 -34 12 -5 29 7 60 42 46 53 53 52 72 -7 13 -41 26 -49 59 -37
30 11 30 41 -1 34 -19 -5 -24 0 -37 36 -24 66 -42 71 -88 23 l-39 -40 1 34 c1
19 -4 37 -9 39 -6 2 -37 -26 -68 -63z"/>
<path d="M5994 8683 c-4 -16 -14 -40 -22 -54 -16 -29 -11 -59 10 -59 15 0 53
114 43 129 -11 19 -24 12 -31 -16z"/>
<path d="M4816 8669 c-29 -35 -35 -89 -11 -109 12 -10 23 -8 57 9 23 11 43 19
44 18 7 -8 11 -185 5 -196 -6 -9 -18 -11 -33 -8 -37 10 -95 -10 -118 -41 -35
-44 -13 -120 45 -158 54 -35 104 10 125 113 l11 52 56 3 c80 4 85 28 6 28
l-58 0 0 132 c1 124 -1 133 -23 160 -33 39 -72 38 -106 -3z m74 -23 c0 -25
-32 -56 -57 -56 -20 0 -15 38 7 60 28 28 50 26 50 -4z m14 -323 c-21 -98 -47
-133 -84 -113 -20 11 -50 65 -50 90 0 27 41 50 90 50 50 0 50 0 44 -27z"/>
<path d="M9149 8681 c-17 -14 -29 -17 -42 -10 -12 7 -19 6 -22 -3 -30 -86 -33
-104 -24 -113 7 -7 17 -2 30 15 34 42 71 81 75 77 2 -2 -1 -19 -6 -38 -6 -19
-8 -46 -5 -61 10 -43 55 -49 55 -7 0 10 5 19 10 19 6 0 10 8 10 17 0 13 -3 14
-11 6 -6 -6 -17 -9 -24 -6 -11 4 -11 12 1 45 8 22 14 49 14 59 0 25 -31 25
-61 0z"/>
<path d="M10827 8658 c-5 -40 4 -68 24 -68 5 0 9 25 9 55 0 69 -24 78 -33 13z"/>
<path d="M4441 8662 c-17 -32 -24 -89 -11 -97 15 -9 21 -2 25 27 2 12 6 38 10
56 8 35 -7 45 -24 14z"/>
<path d="M11412 8586 c7 -8 16 -12 21 -9 11 7 -2 23 -19 23 -12 0 -12 -2 -2
-14z"/>
<path d="M6125 8030 c-31 -62 -81 -152 -111 -200 -55 -90 -65 -120 -39 -120 8
0 15 5 15 11 0 6 19 42 43 80 37 60 46 69 72 69 17 0 44 4 62 9 37 11 38 9 49
-106 5 -52 11 -73 20 -73 16 0 17 50 5 137 -6 43 -4 53 11 64 23 17 23 29 -1
29 -15 0 -22 14 -36 75 -9 41 -14 83 -10 94 3 10 -1 23 -9 30 -13 11 -24 -5
-71 -99z m64 -55 c7 -36 6 -52 -2 -57 -16 -10 -77 -22 -83 -15 -3 2 10 34 28
71 18 36 36 62 40 58 4 -4 12 -30 17 -57z"/>
<path d="M7109 8088 c-7 -57 5 -151 19 -156 10 -3 12 17 10 89 -2 58 -7 94
-14 96 -7 2 -13 -10 -15 -29z"/>
<path d="M5399 8005 c-11 -25 -23 -45 -28 -45 -4 0 -26 9 -49 20 -51 25 -64
25 -60 3 2 -10 22 -27 45 -38 23 -11 44 -23 48 -27 11 -11 -43 -104 -79 -136
-41 -36 -47 -57 -13 -48 12 3 28 6 35 6 6 0 12 6 12 14 0 7 25 33 56 56 53 40
56 41 69 23 8 -10 15 -23 15 -29 0 -6 6 -17 14 -23 22 -18 28 2 16 55 -11 46
-10 48 25 84 19 20 35 39 35 43 0 4 -20 7 -45 7 l-45 0 0 40 c0 56 -25 53 -51
-5z m81 -69 c0 -11 -19 -15 -25 -6 -3 5 1 10 9 10 9 0 16 -2 16 -4z m-50 -27
c0 -18 -2 -19 -15 -9 -8 7 -15 16 -15 21 0 5 7 9 15 9 9 0 15 -9 15 -21z m-41
-45 c-15 -18 -22 -13 -13 10 3 9 10 13 16 10 5 -3 4 -12 -3 -20z"/>
<path d="M8486 7963 c-13 -13 -5 -50 13 -67 10 -9 21 -29 24 -42 4 -20 -1 -27
-22 -35 -48 -18 -91 -43 -91 -55 0 -14 46 -24 109 -24 44 0 48 -2 62 -32 18
-41 35 -38 31 6 -2 32 -1 33 68 55 53 18 70 28 68 40 -3 11 -13 15 -33 13 -17
-1 -43 6 -58 17 l-29 18 31 36 c26 29 29 37 17 46 -11 9 -20 4 -43 -26 -29
-36 -31 -36 -62 -23 -18 7 -38 25 -46 41 -17 31 -29 42 -39 32z m104 -152 c0
-6 -4 -13 -10 -16 -5 -3 -10 1 -10 9 0 9 5 16 10 16 6 0 10 -4 10 -9z m59 -5
c9 -11 7 -15 -11 -19 -27 -7 -30 -5 -22 17 8 20 18 20 33 2z m-105 -21 c4 -12
-3 -15 -37 -15 l-42 1 30 14 c39 18 42 18 49 0z"/>
<path d="M7391 7901 c-33 -28 -34 -29 -27 -85 7 -63 33 -123 46 -110 5 5 6 44
1 87 -6 65 -4 80 9 92 19 17 50 20 50 5 0 -5 7 -10 15 -10 18 0 20 21 3 38
-20 20 -61 13 -97 -17z"/>
<path d="M6372 7904 c-30 -21 -28 -48 8 -76 77 -59 83 -65 77 -81 -8 -21 -55
-52 -65 -42 -4 3 -7 24 -7 46 0 46 -16 55 -29 17 -12 -33 1 -76 26 -92 23 -14
79 13 97 47 22 41 7 72 -51 107 -49 30 -51 33 -33 46 10 8 31 14 46 14 36 0
60 10 53 21 -9 15 -98 10 -122 -7z"/>
<path d="M6913 7909 c-69 -20 -103 -102 -69 -167 22 -43 56 -56 117 -46 47 8
52 12 55 37 3 32 -9 34 -43 7 -35 -27 -67 -25 -92 6 -45 57 -8 134 64 134 23
0 35 5 35 14 0 11 -25 30 -33 25 -1 0 -16 -5 -34 -10z"/>
<path d="M7110 7910 c0 -5 7 -10 15 -10 8 0 15 5 15 10 0 6 -7 10 -15 10 -8 0
-15 -4 -15 -10z"/>
<path d="M6576 7891 c-3 -4 7 -35 23 -67 73 -152 71 -141 54 -227 -8 -43 -11
-86 -8 -95 5 -12 9 -13 12 -4 3 6 8 10 11 8 4 -2 8 14 9 35 2 22 16 97 33 168
33 141 37 191 17 191 -9 0 -17 -26 -25 -76 -7 -42 -15 -81 -19 -87 -3 -6 -19
18 -35 53 -16 34 -26 65 -23 68 6 6 -24 42 -36 42 -4 0 -10 -4 -13 -9z"/>
<path d="M7104 7828 c-11 -82 -11 -81 1 -85 6 -2 19 12 29 31 10 19 31 47 46
61 l29 27 12 -62 c14 -71 42 -100 78 -80 30 15 26 30 -8 30 -24 0 -29 5 -35
32 -17 86 -27 108 -47 108 -11 0 -31 -11 -44 -25 l-25 -24 0 24 c0 15 -6 25
-14 25 -10 0 -17 -19 -22 -62z"/>
<path d="M7987 7884 c-5 -5 25 -73 88 -196 13 -25 9 -35 -57 -165 -49 -96 -71
-150 -72 -178 -1 -29 3 -40 14 -40 9 0 14 7 12 17 -4 26 43 139 106 252 52 95
142 289 142 307 0 5 -6 9 -14 9 -12 0 -22 -16 -31 -50 -1 -3 -18 -38 -37 -78
l-35 -73 -18 48 c-21 58 -74 153 -84 153 -4 0 -10 -3 -14 -6z"/>
<path d="M7557 7835 c-44 -51 -51 -96 -21 -125 33 -32 81 -30 123 6 37 31 39
60 10 121 -29 59 -60 59 -112 -2z m88 -25 c8 -16 15 -36 15 -44 0 -23 -44 -48
-77 -44 -23 2 -29 8 -31 34 -2 25 3 37 28 58 40 33 46 33 65 -4z"/>
<path d="M7793 7825 c-27 -34 -28 -34 -33 -13 -3 13 -12 24 -20 26 -12 2 -15
-13 -15 -82 0 -47 4 -88 7 -92 4 -3 20 22 37 57 38 82 69 119 82 98 5 -7 9
-28 9 -46 0 -45 15 -80 41 -93 31 -17 47 3 19 23 -15 11 -24 30 -29 70 -13 94
-49 113 -98 52z"/>
<path d="M11042 7354 c-52 -105 -191 -321 -339 -526 -151 -209 -188 -266 -180
-274 3 -3 -10 -19 -29 -36 -35 -31 -45 -58 -20 -58 15 0 54 48 81 100 18 35
135 202 244 349 101 137 301 465 301 495 0 2 -6 6 -13 9 -9 3 -25 -17 -45 -59z"/>
<path d="M9542 7198 c-5 -7 -31 -56 -56 -108 -25 -52 -55 -111 -67 -130 -43
-68 -109 -199 -109 -215 0 -27 33 -13 41 17 4 15 21 51 37 80 27 46 37 55 74
65 24 6 50 15 60 18 14 6 17 -6 24 -92 4 -54 8 -107 9 -117 2 -22 20 -32 29
-17 3 5 1 55 -5 111 -9 82 -8 107 2 127 11 20 11 26 0 33 -10 6 -14 39 -16
119 -1 61 -4 114 -7 116 -3 3 -10 0 -16 -7z m-3 -209 c1 -17 -5 -29 -16 -32
-10 -3 -32 -10 -50 -15 l-31 -10 41 84 42 84 7 -42 c3 -24 7 -55 7 -69z"/>
<path d="M12201 7166 c-6 -25 -11 -53 -11 -63 0 -10 -5 -34 -10 -54 -8 -29
-16 -37 -47 -45 -36 -9 -64 -37 -50 -50 3 -4 12 -2 19 3 7 6 24 13 36 16 21 5
23 3 17 -20 -3 -14 -9 -39 -12 -57 -4 -17 -15 -37 -25 -44 -10 -7 -18 -19 -18
-26 0 -15 41 -30 51 -18 3 4 14 44 24 89 l18 81 56 6 c118 14 119 14 101 61
-9 23 -13 25 -25 15 -8 -7 -12 -16 -9 -21 6 -11 -7 -16 -70 -24 -28 -4 -46 -3
-43 2 3 5 10 36 16 69 5 32 13 74 17 92 5 25 3 32 -9 32 -9 0 -19 -16 -26 -44z"/>
<path d="M3885 7161 c-3 -6 -4 -15 -1 -20 4 -5 15 -87 26 -183 22 -203 28
-234 45 -248 23 -19 26 5 9 70 -15 61 -15 62 7 86 12 13 28 24 34 24 19 0 42
-32 54 -75 14 -53 47 -105 66 -105 19 0 19 0 -9 51 -13 24 -29 63 -36 87 -6
25 -20 48 -35 58 -29 19 -25 29 29 88 35 37 60 93 39 85 -12 -5 -97 -100 -119
-134 -9 -14 -24 -25 -34 -25 -15 0 -19 14 -26 88 -4 48 -8 103 -9 122 0 35
-25 54 -40 31z"/>
<path d="M3066 7152 c-2 -4 2 -48 9 -98 8 -49 17 -123 20 -166 7 -82 25 -122
46 -101 9 9 9 16 1 25 -6 7 -15 66 -21 131 -17 175 -34 242 -55 209z"/>
<path d="M3215 7123 c4 -39 13 -148 21 -267 5 -74 10 -90 25 -80 5 3 16 1 23
-6 8 -6 28 -15 46 -20 49 -14 70 14 70 93 0 116 -57 173 -114 112 l-24 -25 -7
84 c-4 47 -5 89 -2 93 8 14 -12 53 -28 53 -12 0 -14 -8 -10 -37z m139 -195
c10 -14 16 -44 16 -81 0 -66 -15 -80 -59 -56 -22 13 -26 22 -25 61 0 44 24 98
44 98 5 0 16 -10 24 -22z"/>
<path d="M11233 7131 c-10 -18 -60 -106 -111 -194 -51 -89 -94 -165 -95 -171
-1 -5 5 -11 13 -13 11 -3 25 16 45 58 32 67 47 77 101 71 31 -4 35 -7 29 -26
-11 -36 -10 -49 2 -53 24 -8 36 51 35 171 0 66 4 131 9 144 16 41 -7 51 -28
13z m-9 -205 c-2 -6 -20 -12 -40 -13 -19 -1 -34 2 -32 6 2 4 17 33 33 64 l30
57 7 -51 c3 -29 4 -57 2 -63z"/>
<path d="M5820 7127 c0 -12 24 -16 118 -22 166 -9 155 -6 159 -40 12 -113 14
-148 6 -155 -4 -5 -39 -12 -76 -16 -64 -6 -68 -6 -74 15 -7 26 -29 27 -42 2
-19 -34 12 -46 111 -44 l88 2 0 -47 c0 -60 9 -92 25 -92 10 0 12 17 8 74 l-6
75 39 7 c97 17 125 64 84 143 -38 76 -96 96 -312 106 -109 6 -128 4 -128 -8z
m370 -66 c35 -25 63 -76 55 -101 -7 -23 -27 -35 -71 -43 l-31 -6 -6 72 c-2 40
-8 80 -12 91 -7 16 -5 17 16 11 13 -4 35 -15 49 -24z"/>
<path d="M2954 7073 c4 -27 11 -106 17 -178 11 -145 14 -159 29 -150 13 8 6
181 -11 297 -9 56 -17 78 -27 78 -12 0 -13 -9 -8 -47z"/>
<path d="M11970 7104 c0 -9 7 -14 17 -12 25 5 28 28 4 28 -12 0 -21 -6 -21
-16z"/>
<path d="M7113 7035 c-3 -9 -3 -18 0 -22 10 -10 37 6 37 22 0 20 -29 20 -37 0z"/>
<path d="M10153 7006 c-17 -14 -37 -26 -46 -26 -9 0 -19 -21 -30 -62 -8 -35
-18 -71 -22 -80 -5 -13 -2 -18 9 -18 10 0 26 21 41 55 13 31 35 70 47 88 l23
32 5 -90 c4 -68 8 -90 19 -90 11 0 13 20 12 95 -3 116 -13 134 -58 96z"/>
<path d="M2510 7010 c-19 -5 -47 -22 -62 -39 -44 -50 -34 -114 27 -171 24 -22
35 -25 109 -25 57 0 88 4 100 14 24 20 2 31 -38 20 -46 -13 -103 -11 -136 6
-31 16 -60 61 -60 93 0 30 46 69 90 76 26 4 40 11 40 21 0 16 -16 17 -70 5z"/>
<path d="M7662 6994 c-37 -26 -29 -64 23 -111 47 -42 60 -83 27 -83 -10 0 -23
5 -30 12 -7 7 -12 20 -12 30 0 10 -7 18 -15 18 -22 0 -19 -46 5 -70 28 -28 85
-27 100 1 16 29 -1 66 -51 115 -21 21 -39 44 -39 50 0 18 38 28 55 14 16 -13
28 1 19 24 -8 21 -53 21 -82 0z"/>
<path d="M9723 7003 c-20 -7 -15 -34 12 -78 24 -39 34 -105 16 -105 -4 0 -20
10 -35 21 -20 16 -30 19 -38 11 -24 -24 70 -84 97 -62 28 23 28 68 1 124 -31
64 -31 62 -6 69 30 8 24 27 -7 26 -16 0 -34 -3 -40 -6z"/>
<path d="M10339 6986 c-34 -24 -69 -85 -69 -122 0 -31 30 -72 61 -83 40 -14
94 -14 120 -1 35 19 21 31 -28 25 -120 -16 -162 73 -71 150 24 20 33 23 50 14
23 -12 49 4 33 20 -23 23 -60 21 -96 -3z"/>
<path d="M11587 7003 c-4 -3 -7 -25 -7 -48 0 -85 -39 -141 -62 -90 -15 33 -31
31 -63 -6 l-26 -32 7 29 c4 16 16 49 26 73 10 24 15 48 11 52 -12 12 -123 -31
-123 -47 0 -17 10 -17 46 -4 15 6 28 9 30 7 3 -2 -3 -23 -11 -47 -17 -49 -20
-106 -5 -115 10 -6 70 52 70 69 0 5 9 0 20 -12 24 -26 38 -27 67 -7 24 17 38
56 47 133 5 40 4 52 -7 52 -8 0 -17 -3 -20 -7z"/>
<path d="M11740 6967 c-34 -17 -72 -76 -68 -107 4 -31 36 -38 71 -16 23 16 24
16 36 -24 7 -25 18 -40 27 -40 13 0 15 6 9 28 -10 35 -10 49 -1 94 5 30 3 41
-14 58 -23 23 -27 24 -60 7z m40 -41 c0 -17 -67 -72 -76 -63 -8 7 15 49 35 64
22 17 41 16 41 -1z"/>
<path d="M11953 6968 c-9 -12 -23 -78 -27 -132 0 -10 4 -21 11 -23 13 -5 23
23 28 75 2 20 6 45 10 55 10 23 -8 43 -22 25z"/>
<path d="M2017 6963 c-4 -3 -7 -17 -7 -30 0 -16 6 -23 19 -23 24 0 45 25 37
45 -5 15 -37 21 -49 8z"/>
<path d="M4250 6963 c-75 -29 -63 -92 27 -137 37 -19 68 -59 60 -80 -6 -14
-44 -25 -65 -18 -7 2 -12 10 -12 18 0 8 -7 14 -15 14 -23 0 -19 -47 5 -60 22
-12 87 -4 108 13 35 28 -2 105 -69 142 -79 43 -78 75 2 79 31 2 44 7 44 17 0
15 -57 23 -85 12z"/>
<path d="M7271 6961 c-19 -3 -39 -14 -45 -24 -9 -16 -4 -24 32 -56 41 -35 42
-38 31 -69 -14 -42 -33 -36 -37 11 -2 24 -8 37 -18 37 -24 0 -23 -64 3 -92 34
-37 76 -12 88 53 6 33 4 39 -36 73 l-43 36 52 0 c40 0 52 4 52 15 0 8 -4 15
-9 15 -5 0 -15 2 -23 4 -7 2 -28 1 -47 -3z"/>
<path d="M7430 6933 c-37 -37 -38 -40 -30 -82 12 -67 58 -93 127 -75 12 3 24
13 27 21 5 13 0 15 -35 9 -71 -11 -126 44 -57 58 58 11 88 62 56 94 -21 21
-48 13 -88 -25z m70 -8 c0 -9 -12 -20 -26 -25 -38 -15 -40 -13 -14 15 27 29
40 32 40 10z"/>
<path d="M9847 6963 c-5 -8 37 -154 52 -183 5 -9 -1 -35 -15 -66 -38 -87 -75
-203 -72 -227 5 -38 20 -24 34 30 8 29 28 88 45 130 113 281 125 323 94 323
-8 0 -15 -8 -15 -17 0 -10 -11 -47 -24 -83 l-24 -64 -23 78 c-22 73 -40 99
-52 79z"/>
<path d="M2763 6945 c-23 -16 -37 -57 -28 -85 9 -27 39 -33 75 -15 28 15 30
14 30 -3 0 -24 37 -72 56 -72 19 0 18 20 -2 34 -18 13 -36 83 -28 108 5 18 -4
24 -61 42 -12 3 -30 0 -42 -9z m62 -34 c3 -5 -7 -19 -22 -30 -31 -25 -51 -14
-34 18 12 21 45 29 56 12z"/>
<path d="M3560 6945 c0 -9 -9 -15 -23 -15 -33 0 -58 -31 -64 -78 -11 -81 40
-108 83 -45 l21 32 19 -55 c18 -54 48 -93 61 -81 3 4 1 17 -5 30 -25 50 -41
99 -47 144 -4 26 -9 56 -12 66 -5 21 -33 23 -33 2z m-13 -53 c9 -6 7 -18 -7
-50 -29 -64 -55 -34 -30 32 10 27 17 31 37 18z"/>
<path d="M5699 6933 c-15 -40 6 -56 31 -23 25 32 25 50 0 50 -13 0 -24 -10
-31 -27z"/>
<path d="M3720 6918 c-27 -44 -25 -90 3 -123 19 -22 32 -27 76 -28 35 -1 55 2
58 11 3 8 -7 12 -31 12 -48 0 -85 19 -92 47 -7 25 13 83 27 83 5 0 9 7 9 15 0
26 -30 16 -50 -17z"/>
<path d="M4572 6918 c-7 -7 -12 -20 -12 -31 0 -14 6 -18 28 -15 21 2 28 9 30
31 3 21 -1 27 -15 27 -11 0 -24 -5 -31 -12z"/>
<path d="M6370 6915 c-14 -8 -33 -14 -42 -15 -22 0 -24 -51 -6 -111 17 -60 37
-50 35 17 -2 48 1 58 22 75 22 18 26 18 47 4 32 -21 45 2 14 27 -26 21 -37 22
-70 3z"/>
<path d="M6757 6923 c-9 -15 -29 -125 -23 -130 8 -8 36 17 36 32 0 18 40 66
50 60 4 -3 11 -21 14 -40 10 -50 33 -56 66 -16 l27 32 13 -31 c15 -35 47 -57
62 -42 6 6 1 18 -14 35 -13 13 -31 36 -41 51 -24 35 -42 33 -58 -6 l-13 -31
-18 43 c-17 39 -21 42 -47 37 -15 -3 -33 -1 -38 4 -6 6 -13 7 -16 2z"/>
<path d="M7922 6918 c-16 -16 -15 -28 2 -28 8 0 16 -5 18 -12 7 -21 38 0 38
27 0 19 -5 25 -23 25 -13 0 -28 -5 -35 -12z"/>
<path d="M9061 6913 c-10 -11 -10 -17 -1 -28 22 -26 50 -12 50 25 0 15 -36 17
-49 3z"/>
<path d="M6504 6855 c-29 -71 -13 -115 45 -115 54 0 96 39 87 82 -9 47 -33 68
-78 68 -35 0 -40 -4 -54 -35z m97 -21 c7 -21 6 -31 -7 -45 -18 -20 -59 -25
-69 -9 -11 18 5 69 23 73 35 9 43 6 53 -19z"/>
<path d="M7080 6880 c-12 -7 -12 -12 -2 -22 6 -6 12 -28 12 -47 0 -42 15 -71
28 -56 11 12 0 111 -14 125 -6 6 -15 6 -24 0z"/>
<path d="M7057 6573 c-2 -5 -4 -31 -5 -60 -1 -39 3 -55 16 -65 44 -33 45 -51
21 -284 -13 -131 -23 -288 -23 -389 -1 -258 16 -768 25 -753 7 10 9 9 9 -4 0
-9 -4 -20 -10 -23 -15 -9 -13 -145 3 -145 8 0 9 -3 1 -8 -7 -4 -14 -78 -18
-202 -6 -185 -6 -194 10 -178 16 16 18 54 22 410 2 223 -2 510 -8 663 -12 259
-12 280 11 510 13 132 24 274 24 315 0 46 5 80 13 88 16 18 15 63 -1 87 -10
12 -22 16 -40 13 -18 -4 -27 -1 -27 8 0 15 -17 28 -23 17z"/>
<path d="M3725 6524 c-10 -10 -15 -29 -13 -48 2 -25 11 -35 43 -50 22 -10 52
-20 68 -22 33 -4 153 -84 247 -165 38 -32 76 -59 85 -59 9 0 14 -4 11 -9 -3
-5 16 -26 42 -47 26 -20 52 -42 57 -48 6 -6 48 -44 95 -84 47 -40 132 -117
190 -171 156 -146 355 -310 556 -459 414 -306 556 -413 679 -508 72 -55 177
-136 235 -180 58 -44 166 -127 240 -184 194 -150 351 -266 463 -346 55 -38
122 -86 150 -107 105 -76 154 -108 175 -112 35 -6 27 23 -10 38 -18 8 -78 48
-133 89 -55 41 -129 94 -165 118 -36 24 -103 72 -150 107 -81 60 -130 97 -440
336 -500 383 -658 503 -760 577 -383 278 -573 427 -760 600 -131 120 -166 150
-177 150 -5 0 -15 11 -21 25 -6 14 -16 25 -21 25 -4 0 -28 18 -52 41 -24 23
-84 75 -134 116 -49 41 -114 96 -143 121 -66 58 -179 139 -213 154 -17 8 -31
27 -42 58 -12 33 -24 50 -39 54 -35 9 -45 7 -63 -10z"/>
<path d="M10952 6278 c-7 -7 -12 -19 -12 -28 0 -9 -5 -21 -12 -28 -17 -17 5
-60 38 -72 36 -14 61 2 75 50 10 33 9 43 -5 65 -18 27 -63 34 -84 13z"/>
<path d="M10855 6110 c-33 -23 -98 -64 -145 -92 -104 -63 -452 -283 -615 -388
-66 -43 -190 -120 -275 -172 -85 -52 -213 -131 -285 -175 -71 -44 -224 -136
-340 -203 -115 -68 -284 -167 -374 -221 -198 -119 -469 -257 -731 -374 -375
-167 -836 -427 -884 -499 -28 -44 -5 -55 31 -16 73 83 480 316 793 455 273
120 562 264 715 355 77 46 208 122 290 170 83 48 191 112 240 142 50 30 155
94 235 142 160 95 490 300 712 442 79 50 220 139 313 197 298 185 405 256 405
267 0 19 -25 10 -85 -30z"/>
<path d="M7084 4440 c-13 -13 -6 -102 9 -112 8 -5 8 -16 0 -40 -17 -47 -28
-233 -15 -242 20 -12 24 14 29 194 5 174 -1 222 -23 200z"/>
<path d="M4670 4130 c-13 -25 -6 -740 9 -940 12 -154 16 -304 12 -539 -1 -89
0 -165 2 -168 3 -2 47 -7 98 -10 l92 -6 -6 24 c-4 13 -7 30 -7 37 0 20 -18 14
-25 -9 -6 -18 -13 -20 -48 -15 -23 3 -50 5 -59 5 -17 1 -18 21 -16 279 0 152
-4 333 -10 402 -12 132 -26 888 -17 913 5 12 13 12 58 0 62 -16 84 -16 92 -2
10 15 4 18 -46 25 -24 4 -54 10 -67 15 -35 14 -50 11 -62 -11z"/>
<path d="M5190 4108 c0 -13 14 -66 30 -118 17 -52 33 -119 37 -147 l6 -53 -40
0 c-42 0 -60 -11 -87 -50 -34 -52 -8 -130 45 -130 34 0 85 62 99 121 16 65 8
139 -26 254 -15 50 -27 101 -28 115 -1 33 -36 41 -36 8z m56 -379 c-7 -37 -42
-89 -60 -89 -24 0 -39 28 -31 57 10 41 34 63 68 63 28 0 29 -2 23 -31z"/>
<path d="M5815 4087 c-18 -18 -38 -51 -44 -73 -14 -54 -15 -159 -2 -224 6 -30
14 -72 17 -93 5 -28 11 -37 23 -35 19 4 19 8 -3 112 -20 92 -16 99 52 93 31
-3 42 -1 42 9 0 21 -44 34 -79 24 -31 -8 -31 -8 -31 28 0 83 49 172 86 158 21
-8 34 1 27 19 -9 26 -53 17 -88 -18z"/>
<path d="M5630 4103 c-25 -9 -61 -46 -71 -72 -5 -12 -10 -52 -10 -87 -1 -48
-5 -64 -15 -64 -8 0 -14 -7 -14 -15 0 -8 6 -15 14 -15 10 0 16 -17 21 -57 10
-94 20 -128 35 -128 8 0 14 5 13 10 -11 66 -23 178 -20 181 2 3 24 8 48 12 29
5 44 13 44 22 0 15 -15 16 -67 6 -28 -5 -28 -5 -28 49 0 29 4 65 10 79 11 31
62 58 98 54 19 -2 27 2 27 12 0 16 -56 24 -85 13z"/>
<path d="M10682 4073 c-66 -3 -92 -7 -89 -16 6 -18 42 -23 130 -16 45 4 85 4
88 0 12 -12 32 -1093 24 -1303 -4 -115 -10 -208 -14 -209 -3 0 -45 -1 -92 -2
-67 -1 -92 3 -113 16 -15 10 -24 22 -21 27 4 6 1 10 -5 10 -19 0 -23 -30 -5
-50 41 -45 170 -64 243 -34 l39 15 -2 497 c-3 618 -14 1043 -27 1060 -6 6 -22
11 -37 10 -14 -1 -68 -4 -119 -5z"/>
<path d="M5420 3980 c0 -33 11 -38 30 -15 15 18 6 45 -15 45 -10 0 -15 -10
-15 -30z"/>
<path d="M6687 3993 c-4 -3 -7 -20 -7 -37 0 -66 -9 -78 -54 -74 -31 2 -41 -1
-41 -12 0 -10 12 -16 39 -18 l38 -3 -6 -57 c-12 -114 25 -180 106 -189 52 -6
88 9 88 37 0 24 -13 26 -30 5 -16 -19 -69 -19 -97 0 -28 19 -46 83 -38 133 14
83 13 82 50 82 24 0 35 5 35 15 0 8 7 15 15 15 20 0 19 19 -1 27 -10 4 -22 -1
-29 -10 -7 -10 -21 -17 -32 -17 -18 0 -19 4 -13 48 5 26 6 50 3 55 -5 9 -17 9
-26 0z"/>
<path d="M6110 3877 c-33 -26 -60 -71 -60 -101 0 -41 34 -96 60 -96 26 0 25 6
-5 42 -14 16 -25 39 -25 50 0 26 46 88 66 88 7 0 14 7 14 15 0 18 -29 19 -50
2z"/>
<path d="M6171 3874 c0 -11 3 -14 6 -6 3 7 2 16 -1 19 -3 4 -6 -2 -5 -13z"/>
<path d="M8472 3854 c-51 -35 -47 -78 12 -133 28 -26 34 -59 13 -67 -22 -8
-69 15 -74 36 -6 24 -21 26 -30 4 -9 -25 38 -65 84 -71 36 -5 43 -2 58 20 21
33 13 62 -31 105 -19 18 -34 40 -34 49 0 22 30 42 63 43 17 0 27 5 27 15 0 20
-58 20 -88 -1z"/>
<path d="M5925 3836 c-28 -29 -42 -88 -27 -121 7 -16 25 -28 53 -35 46 -13 69
-8 69 15 0 11 -11 15 -38 15 -36 0 -62 14 -62 32 0 4 13 8 28 8 50 0 68 43 36
88 -19 28 -29 28 -59 -2z m43 -34 c2 -7 -4 -15 -13 -18 -20 -8 -27 -1 -19 20
7 18 25 17 32 -2z"/>
<path d="M9184 3770 c-25 -50 -49 -88 -53 -85 -3 3 -13 29 -21 57 -17 55 -42
80 -61 61 -8 -8 -6 -16 10 -32 12 -12 21 -30 21 -41 0 -11 7 -38 16 -60 l16
-40 -45 -72 c-47 -77 -70 -134 -61 -149 11 -18 23 -8 35 29 6 20 33 73 59 117
83 140 156 281 152 293 -8 26 -23 9 -68 -78z"/>
<path d="M9612 3835 c-7 -14 -12 -31 -12 -36 0 -23 -73 -119 -90 -119 -18 0
-34 -23 -23 -34 15 -15 44 -3 74 31 19 22 34 33 37 25 6 -18 36 -15 64 8 l25
19 -5 -24 c-2 -14 3 -36 12 -50 13 -20 25 -25 55 -25 49 0 71 8 71 27 0 8 5
11 10 8 6 -3 10 1 10 9 0 20 -11 20 -36 1 -25 -19 -80 -19 -87 -1 -3 8 -2 30
4 48 22 78 7 86 -55 31 -37 -34 -41 -36 -44 -17 -2 11 6 42 18 68 24 58 24 56
2 56 -11 0 -24 -11 -30 -25z"/>
<path d="M7626 3825 c-28 -26 -32 -40 -16 -50 6 -3 10 -2 10 2 0 12 60 46 68
39 3 -4 -4 -23 -17 -44 -24 -41 -45 -85 -55 -120 -13 -41 19 -37 59 7 21 23
41 41 45 41 4 0 13 -14 20 -31 26 -62 85 -74 108 -23 25 53 1 144 -37 144 -24
0 -28 -25 -7 -33 21 -8 31 -70 16 -97 l-12 -22 -23 22 c-13 13 -27 36 -30 52
-10 42 -29 44 -65 6 l-32 -33 27 45 c50 85 51 91 30 106 -28 21 -59 17 -89
-11z"/>
<path d="M6426 3798 c-20 -23 -36 -45 -36 -49 0 -5 -7 -6 -16 -2 -13 5 -15 -2
-12 -37 4 -58 21 -61 41 -8 10 24 28 57 42 73 l24 30 1 -72 c0 -88 6 -103 36
-103 27 0 32 17 9 26 -11 5 -15 23 -15 79 0 119 -15 132 -74 63z"/>
<path d="M8277 3833 c-4 -3 -7 -24 -7 -46 0 -47 -30 -166 -70 -280 -31 -88
-38 -131 -20 -125 13 4 74 177 100 283 31 127 29 201 -3 168z"/>
<path d="M5421 3759 c-2 -64 8 -99 28 -99 3 0 6 38 6 85 0 72 -2 85 -16 85
-13 0 -17 -13 -18 -71z"/>
<path d="M8140 3819 c0 -6 6 -17 14 -24 8 -8 17 -42 21 -75 7 -58 16 -77 34
-66 11 7 -13 141 -29 161 -14 17 -40 20 -40 4z"/>
<path d="M9366 3816 c-57 -26 -76 -114 -33 -154 20 -19 28 -21 55 -11 58 20
76 72 51 147 -11 35 -26 38 -73 18z m52 -69 c4 -35 -24 -69 -52 -65 -25 4 -33
46 -16 78 18 33 64 24 68 -13z"/>
<path d="M6215 3780 c-24 -38 -24 -42 -11 -74 16 -39 58 -71 81 -62 19 7 19
26 0 26 -8 0 -24 9 -36 21 -20 20 -20 21 -2 38 10 9 26 20 36 24 20 7 23 37 5
55 -22 22 -47 12 -73 -28z"/>
<path d="M7988 3783 c-67 -73 -58 -125 16 -92 13 6 27 21 31 33 6 20 6 20 18
2 31 -47 44 -59 61 -53 16 6 15 10 -9 39 -18 21 -25 39 -22 55 3 19 -1 27 -20
34 -37 14 -47 11 -75 -18z m33 -43 c-40 -34 -51 -32 -27 5 10 15 26 25 39 25
20 -1 19 -3 -12 -30z"/>
<path d="M6397 3525 c-4 -8 5 -46 18 -84 34 -92 33 -101 -9 -99 -57 2 -106
-49 -106 -110 0 -35 17 -52 50 -52 29 0 58 22 89 68 39 56 42 86 19 160 -12
37 -22 80 -22 97 -1 33 -29 47 -39 20z m26 -246 c-39 -66 -93 -90 -93 -41 0
36 38 72 76 72 l35 0 -18 -31z"/>
<path d="M8545 3530 c-11 -18 -44 -324 -36 -332 4 -5 24 13 45 38 l38 46 37
-35 c41 -39 77 -52 85 -31 3 8 1 14 -5 14 -5 0 -29 18 -53 40 -48 44 -56 47
-90 25 -22 -15 -23 -14 -19 7 2 13 7 68 12 123 9 94 3 133 -14 105z"/>
<path d="M8353 3434 c2 -85 -6 -96 -63 -92 -26 2 -35 -1 -35 -12 0 -10 13 -16
43 -18 l42 -3 0 -59 c0 -58 12 -85 24 -54 3 9 6 35 6 58 0 55 14 71 78 86 32
7 52 17 52 26 0 18 -33 17 -83 -1 l-39 -13 7 34 c8 47 -4 124 -20 124 -9 0
-13 -20 -12 -76z"/>
<path d="M7079 3496 c-3 -3 -2 -29 1 -58 3 -29 1 -93 -4 -141 -7 -60 -6 -94 1
-105 16 -27 28 -15 25 26 -2 20 1 64 7 98 16 103 -1 208 -30 180z"/>
<path d="M8105 3481 c-7 -13 12 -51 26 -51 14 0 7 52 -8 57 -6 2 -14 -1 -18
-6z"/>
<path d="M10358 3391 c-57 -45 -76 -143 -36 -180 42 -39 167 -66 169 -36 1 6
-17 13 -38 17 -53 9 -113 36 -120 53 -18 47 28 129 74 130 18 0 28 5 28 15 0
23 -48 24 -77 1z"/>
<path d="M9689 3375 c-36 -19 -40 -43 -18 -106 22 -62 24 -93 7 -107 -20 -15
-58 4 -58 29 0 24 -18 21 -34 -5 -9 -14 -6 -21 13 -37 35 -29 67 -34 96 -15
21 14 25 24 25 64 -1 26 -7 58 -15 72 -21 36 -18 65 8 83 32 22 11 40 -24 22z"/>
<path d="M6576 3337 c-51 -48 -61 -90 -27 -121 37 -34 121 -42 121 -11 0 8
-13 13 -34 13 -47 0 -78 18 -74 45 2 17 10 21 40 22 57 2 95 48 68 80 -20 25
-45 17 -94 -28z m59 -7 c-3 -5 -11 -10 -16 -10 -6 0 -7 5 -4 10 3 6 11 10 16
10 6 0 7 -4 4 -10z"/>
<path d="M9454 3367 c-111 -65 -169 -164 -109 -187 28 -11 44 -6 97 26 l37 23
-1 -28 c-1 -32 8 -51 25 -51 9 0 11 28 9 102 -2 57 -5 109 -7 116 -5 15 -24
15 -51 -1z m26 -44 c0 -46 -76 -123 -112 -115 -29 6 -21 22 35 79 56 55 77 65
77 36z"/>
<path d="M9931 3358 c-5 -13 -17 -51 -27 -85 -24 -88 -44 -80 -44 16 0 50 -19
89 -38 77 -15 -9 -16 -36 -2 -36 6 0 10 -26 10 -59 0 -40 5 -63 15 -71 20 -17
19 -42 -6 -99 -20 -49 -23 -116 -4 -116 6 0 11 13 13 29 2 15 25 85 52 155 26
69 50 143 54 163 8 42 -9 61 -23 26z"/>
<path d="M7721 3340 c-28 -24 -31 -30 -18 -35 9 -4 29 3 46 16 25 18 33 20 45
9 14 -11 11 -17 -19 -53 -55 -64 -29 -105 33 -52 35 29 42 31 42 10 0 -23 37
-55 65 -55 14 0 39 13 57 29 l32 28 -15 54 c-21 79 -40 62 -28 -25 3 -24 -1
-33 -23 -45 -24 -14 -29 -14 -42 -1 -8 8 -17 29 -19 45 -3 22 -9 30 -24 29
-15 0 -19 5 -15 18 6 26 -26 58 -57 58 -14 -1 -41 -14 -60 -30z"/>
<path d="M10057 3363 c-4 -3 -7 -18 -7 -33 0 -14 -7 -50 -16 -79 -24 -83 -5
-83 57 -1 29 40 55 68 56 63 2 -5 -3 -41 -10 -81 -11 -56 -11 -76 -2 -89 16
-22 21 -11 35 88 9 65 9 92 1 108 -17 31 -31 27 -69 -23 l-22 -29 0 42 c0 38
-8 50 -23 34z"/>
<path d="M6769 3322 c-46 -46 -53 -94 -18 -112 17 -10 30 -7 70 13 l49 24 0
-22 c0 -20 17 -45 31 -45 3 0 6 29 6 65 -1 47 -4 65 -14 65 -7 0 -13 -4 -13
-10 0 -12 -82 -60 -103 -60 -26 0 -20 28 12 61 20 20 39 29 61 29 42 0 35 24
-9 28 -26 3 -39 -4 -72 -36z"/>
<path d="M5452 3334 c-5 -11 -15 -45 -23 -77 -10 -46 -10 -60 0 -70 10 -9 22
-2 57 38 42 47 44 48 44 23 0 -15 12 -40 26 -57 20 -24 34 -31 63 -31 45 0 82
23 65 40 -9 9 -15 8 -25 -2 -18 -20 -67 -10 -86 18 -11 17 -14 37 -10 64 7 58
-10 60 -60 7 -33 -35 -43 -41 -43 -27 0 11 5 31 12 45 14 32 -4 59 -20 29z"/>
<path d="M5271 3304 c-55 -46 -31 -110 32 -86 27 10 33 9 49 -8 10 -11 23 -20
28 -20 15 0 17 24 3 39 -9 8 -12 23 -9 37 9 36 -12 38 -51 4 -23 -21 -39 -28
-45 -22 -15 15 -1 32 39 48 18 8 31 19 28 24 -11 18 -43 11 -74 -16z"/>
<path d="M5030 3290 c-39 -42 -40 -83 -3 -107 31 -20 114 -24 120 -5 3 8 -6
12 -25 12 -41 0 -92 19 -92 35 0 8 11 27 24 42 24 27 26 28 54 12 18 -10 35
-13 43 -8 21 13 -9 38 -54 46 -32 5 -40 2 -67 -27z"/>
<path d="M8089 3273 c-14 -37 -8 -98 10 -98 10 0 15 17 17 63 3 65 -9 81 -27
35z"/>
<path d="M6650 3038 c0 -16 19 -38 33 -38 4 0 7 10 5 22 -3 25 -38 39 -38 16z"/>
<path d="M7612 3030 c2 -11 20 -16 70 -18 l66 -3 16 -40 c17 -41 23 -179 11
-211 -10 -24 -50 -23 -75 2 -18 18 -25 55 -21 103 1 9 -4 17 -13 17 -13 0 -16
-12 -16 -56 0 -48 4 -59 29 -85 40 -40 93 -41 118 -2 23 35 22 182 -1 238 -9
21 -16 39 -16 41 0 2 32 4 72 6 49 2 73 7 76 16 3 11 -25 13 -157 10 -137 -2
-161 -5 -159 -18z"/>
<path d="M5650 3033 c0 -4 9 -25 20 -48 29 -59 32 -175 6 -204 -11 -11 -27
-21 -36 -21 -19 0 -40 19 -40 35 0 17 44 35 70 28 18 -5 21 -2 18 13 -3 15
-12 19 -41 18 -68 -2 -100 -61 -57 -104 29 -29 81 -26 111 6 21 23 24 34 23
98 -1 92 -29 186 -55 186 -11 0 -19 -3 -19 -7z"/>
<path d="M8004 3006 c-19 -19 -34 -41 -34 -50 0 -21 30 -49 94 -90 77 -49 113
-119 83 -160 -13 -18 -16 -18 -85 14 -40 18 -72 39 -72 47 0 20 -34 12 -38 -9
-5 -24 157 -103 193 -94 32 8 48 47 39 99 -7 46 -60 110 -113 137 -20 10 -44
27 -54 37 -17 19 -16 21 9 46 33 34 50 34 58 2 4 -14 14 -25 22 -25 13 0 15 7
10 32 -12 59 -61 65 -112 14z"/>
<path d="M5136 2900 c-47 -52 -56 -83 -33 -112 23 -29 92 -68 120 -68 36 0 31
21 -7 31 -32 9 -96 56 -96 71 0 15 60 82 82 90 10 4 18 14 18 23 0 30 -38 14
-84 -35z"/>
<path d="M6851 2893 c-36 -40 -42 -44 -36 -21 4 14 2 29 -4 32 -16 10 -31 -28
-31 -78 0 -62 20 -60 62 4 l33 51 8 -53 c10 -73 48 -112 97 -103 72 14 82 47
12 38 -63 -7 -76 9 -77 93 0 89 -13 96 -64 37z"/>
<path d="M5369 2892 c-30 -27 -31 -30 -20 -64 16 -48 55 -63 103 -40 26 13 32
22 30 42 -1 14 -4 39 -5 55 -2 27 -6 30 -39 33 -29 2 -43 -3 -69 -26z m69 -34
c16 -24 18 -35 9 -40 -23 -15 -56 -8 -68 14 -10 18 -8 24 11 40 12 10 24 18
25 18 2 0 12 -15 23 -32z"/>
<path d="M5815 2875 c-29 -28 -34 -85 -10 -105 17 -14 148 -32 170 -23 34 12
6 28 -55 31 -63 3 -122 21 -73 22 13 0 30 11 39 25 15 23 15 27 0 50 -21 32
-40 32 -71 0z m42 -30 c-4 -8 -14 -15 -23 -15 -16 0 -16 2 1 20 20 22 31 20
22 -5z"/>
<path d="M6660 2881 c-15 -30 -2 -151 17 -151 11 0 14 14 12 68 -2 37 -1 73 1
81 8 22 -18 24 -30 2z"/>
<path d="M13032 2377 c-63 -137 -112 -266 -102 -272 13 -8 35 29 64 108 15 37
44 103 66 147 42 83 49 110 28 110 -7 -1 -32 -42 -56 -93z"/>
<path d="M9605 2411 c-46 -29 -111 -96 -139 -143 -13 -24 -39 -92 -56 -153
-18 -60 -37 -116 -42 -122 -6 -7 -32 -16 -59 -19 -34 -5 -49 -11 -49 -22 0
-12 9 -14 50 -9 l49 6 -24 -66 c-13 -37 -22 -70 -19 -75 8 -13 34 -9 34 4 0 7
10 43 21 80 20 63 24 68 56 74 37 7 40 27 5 32 -12 2 -22 6 -22 9 0 15 64 212
77 237 23 44 110 132 144 146 16 7 28 17 26 23 -6 18 -21 18 -52 -2z"/>
<path d="M13372 2378 c-6 -24 -20 -61 -32 -83 -11 -21 -20 -44 -20 -51 0 -6
-6 -17 -14 -23 -8 -7 -18 -25 -21 -41 -4 -16 -16 -41 -27 -55 -15 -20 -18 -29
-9 -38 16 -16 44 14 44 47 0 14 3 24 7 21 10 -6 43 82 35 94 -3 6 3 15 14 20
19 10 61 105 61 136 0 33 -28 13 -38 -27z"/>
<path d="M10184 2338 c-31 -93 -64 -198 -74 -235 -10 -40 -13 -43 -45 -43 -24
0 -35 -5 -35 -15 0 -10 10 -15 30 -15 17 0 30 -1 30 -2 0 -2 -7 -39 -15 -82
-10 -52 -12 -83 -6 -89 13 -13 24 17 41 105 l12 66 76 17 c43 10 83 22 90 28
27 22 -6 25 -79 8 l-77 -18 24 89 c13 49 30 101 38 116 23 44 31 102 15 102
-8 0 -19 -15 -25 -32z"/>
<path d="M7342 2265 c-47 -67 -57 -95 -34 -95 12 0 102 138 102 155 0 29 -16
15 -68 -60z"/>
<path d="M13661 2318 c-18 -47 -71 -223 -71 -236 0 -8 5 -12 11 -10 13 4 41
74 68 168 11 36 22 73 26 83 5 12 2 17 -9 17 -9 0 -20 -10 -25 -22z"/>
<path d="M4249 2287 c-47 -32 -84 -89 -120 -190 l-32 -88 -35 3 c-44 4 -54
-18 -13 -27 17 -4 31 -11 31 -16 0 -5 -12 -38 -26 -75 -19 -45 -23 -69 -16
-76 13 -13 32 -2 32 20 0 9 11 44 24 77 24 57 26 60 63 63 60 4 83 11 83 26 0
12 -12 13 -55 9 l-55 -6 25 73 c14 40 36 92 50 115 29 51 83 89 102 73 9 -7
14 -6 19 5 15 41 -26 48 -77 14z"/>
<path d="M11435 2218 c-32 -98 -84 -221 -96 -229 -8 -5 -39 -108 -39 -129 0
-6 7 -10 15 -10 8 0 15 7 15 15 0 17 16 20 25 5 11 -17 61 -11 95 13 47 31 71
68 75 113 6 66 -34 91 -95 59 l-29 -15 18 42 c10 24 28 75 41 113 12 39 26 74
31 80 14 15 10 25 -10 25 -15 0 -25 -17 -46 -82z m63 -205 c5 -32 -24 -81 -61
-103 -43 -27 -64 -25 -71 5 -8 32 3 54 50 94 41 37 77 38 82 4z"/>
<path d="M12097 2283 c-3 -5 -8 -30 -12 -58 -3 -27 -24 -119 -46 -204 -44
-172 -45 -181 -25 -181 10 0 19 20 27 58 21 100 42 123 118 129 59 4 109 -22
134 -71 16 -30 18 -42 8 -62 -6 -15 -16 -22 -22 -18 -7 4 -10 1 -7 -7 8 -24
36 -21 53 5 42 64 -48 186 -137 186 -17 0 -7 10 38 38 94 57 164 103 164 108
0 3 -10 23 -27 53 -2 2 -9 -2 -18 -9 -10 -9 -12 -16 -5 -25 11 -13 -2 -22
-169 -127 -92 -58 -94 -58 -87 -31 3 15 15 68 26 117 11 50 20 94 20 98 0 10
-27 11 -33 1z"/>
<path d="M5206 2273 c-3 -3 -6 -25 -6 -47 0 -23 -13 -77 -29 -121 -80 -228
-91 -261 -91 -283 0 -47 23 -14 46 67 14 46 29 92 35 104 26 47 69 194 69 233
0 41 -10 61 -24 47z"/>
<path d="M6950 2277 c0 -2 -9 -54 -20 -117 -23 -126 -52 -196 -105 -254 -41
-46 -62 -39 -51 17 7 39 40 74 75 79 31 4 38 24 12 31 -52 13 -121 -61 -121
-130 0 -31 21 -63 41 -63 40 0 116 95 147 185 24 66 55 233 46 246 -5 9 -24
13 -24 6z"/>
<path d="M1862 2204 l-23 -46 -72 4 c-62 2 -72 0 -75 -15 -3 -13 3 -17 25 -17
15 0 45 -3 65 -6 l37 -6 -15 -32 c-10 -20 -36 -42 -75 -64 -62 -35 -71 -55
-27 -60 19 -2 27 2 31 17 3 12 10 21 16 21 6 0 -1 -21 -14 -46 -30 -56 -33
-97 -7 -92 10 2 16 12 15 23 -3 31 66 144 98 160 28 15 29 15 35 -12 18 -80
25 -101 38 -106 38 -15 47 52 17 120 l-20 42 35 20 c48 29 45 51 -7 51 l-40 0
7 45 c9 61 -14 61 -44 -1z m-2 -108 c0 -3 -4 -8 -10 -11 -5 -3 -10 -1 -10 4 0
6 5 11 10 11 6 0 10 -2 10 -4z"/>
<path d="M6515 2173 c-9 -43 -24 -100 -32 -128 -16 -53 -79 -165 -92 -165 -10
0 -61 158 -61 189 0 12 7 35 15 51 10 20 12 31 4 36 -17 10 -40 -19 -61 -78
-10 -29 -32 -89 -47 -133 -16 -44 -34 -92 -42 -108 -13 -28 -3 -53 16 -39 6 4
23 45 39 92 15 47 33 95 40 108 12 22 14 19 34 -50 12 -41 31 -83 42 -93 19
-18 21 -17 52 17 47 49 85 132 112 245 13 54 25 104 27 112 2 8 -4 16 -13 18
-13 3 -20 -11 -33 -74z"/>
<path d="M11244 2172 c-12 -37 -42 -120 -68 -185 -51 -132 -59 -172 -36 -172
8 0 16 9 18 20 4 28 36 120 88 252 45 115 53 153 32 153 -7 0 -23 -31 -34 -68z"/>
<path d="M2370 2213 c-55 -24 -67 -39 -69 -91 -1 -48 -29 -145 -75 -266 -30
-79 -32 -96 -11 -96 8 0 28 -14 43 -30 15 -17 42 -33 60 -36 28 -6 37 -2 65
28 105 112 141 211 97 270 l-22 30 30 31 c38 41 52 69 52 106 0 62 -87 90
-170 54z m121 -23 c49 -27 -8 -133 -78 -146 -41 -8 -43 -30 -3 -39 67 -15 79
-86 27 -161 -55 -82 -79 -113 -94 -118 -26 -10 -71 22 -83 58 -10 31 -7 49 28
158 22 68 44 145 49 173 7 44 12 52 43 67 40 20 83 23 111 8z"/>
<path d="M5070 2204 c-6 -14 -10 -31 -10 -39 0 -18 -78 -276 -91 -298 -12 -21
-2 -60 13 -55 6 2 24 49 39 103 16 55 41 141 55 190 14 50 28 98 31 108 9 28
-26 20 -37 -9z"/>
<path d="M11146 2188 c-2 -7 -29 -91 -59 -186 -51 -162 -56 -191 -30 -174 13
9 124 352 117 364 -8 12 -24 10 -28 -4z"/>
<path d="M3206 2168 c-2 -7 -7 -31 -10 -53 -3 -22 -12 -63 -21 -92 l-15 -52
-48 -3 c-34 -2 -47 -7 -47 -18 0 -11 10 -14 43 -12 23 1 42 -1 42 -5 0 -17
-34 -129 -41 -138 -14 -15 -10 -35 6 -35 19 0 28 20 50 107 l18 72 75 27 c67
24 94 45 78 61 -3 3 -11 1 -18 -4 -17 -13 -110 -44 -116 -38 -2 2 3 35 12 72
8 37 17 79 18 92 3 26 -19 42 -26 19z"/>
<path d="M9630 2136 c0 -21 21 -31 31 -15 14 22 11 29 -11 29 -11 0 -20 -6
-20 -14z"/>
<path d="M8385 2108 c-20 -17 -45 -48 -55 -68 -11 -21 -25 -40 -33 -43 -8 -3
-17 -26 -20 -54 -4 -26 -9 -58 -13 -70 -5 -17 -2 -23 9 -23 9 0 26 31 46 88
34 93 85 167 100 144 6 -10 14 -10 34 -3 30 12 31 14 17 42 -15 28 -44 23 -85
-13z"/>
<path d="M5634 2089 c-10 -17 13 -36 27 -22 12 12 4 33 -11 33 -5 0 -12 -5
-16 -11z"/>
<path d="M8771 2064 c-66 -59 -101 -122 -101 -183 0 -63 21 -66 32 -4 16 94
78 179 139 192 46 9 50 31 5 31 -27 0 -46 -9 -75 -36z"/>
<path d="M8229 2082 c-9 -4 -35 -24 -60 -45 -42 -37 -43 -39 -47 -108 -4 -64
-3 -71 13 -67 14 2 22 20 32 73 15 77 44 115 89 115 27 0 33 24 8 34 -9 3 -16
6 -17 5 -1 0 -9 -3 -18 -7z"/>
<path d="M9871 2064 c-27 -34 -26 -55 2 -105 l22 -40 -24 -20 c-31 -26 -89
-22 -105 6 -15 28 -29 36 -38 22 -10 -16 22 -64 51 -77 49 -20 141 27 141 72
0 11 -10 36 -22 58 -22 38 -22 39 -4 59 11 12 26 21 33 21 22 0 9 25 -14 28
-13 2 -29 -7 -42 -24z"/>
<path d="M9670 2052 c-15 -16 -34 -49 -40 -73 -7 -24 -18 -59 -26 -77 -15 -35
-12 -52 11 -52 13 0 24 28 40 108 4 18 18 46 32 62 19 24 28 28 43 20 23 -12
32 -2 19 21 -14 27 -46 23 -79 -9z"/>
<path d="M11870 2063 c-50 -35 -90 -98 -90 -143 0 -33 35 -60 78 -60 37 0 82
22 82 41 0 12 -37 12 -45 -1 -9 -15 -61 -12 -75 5 -20 24 6 80 55 122 24 20
42 40 39 45 -8 12 -17 10 -44 -9z"/>
<path d="M11645 2043 c-47 -50 -69 -125 -43 -151 18 -18 33 -15 69 16 25 20
31 23 26 9 -8 -20 8 -57 23 -57 6 0 10 19 10 42 0 26 9 57 26 86 20 34 23 47
14 55 -9 9 -16 6 -28 -13 -25 -38 -98 -110 -112 -110 -18 0 -4 48 26 88 17 21
34 32 50 32 34 0 26 24 -8 28 -18 2 -34 -5 -53 -25z"/>
<path d="M4850 2051 c0 -5 -16 -15 -35 -21 -19 -6 -46 -25 -60 -42 -21 -25
-25 -39 -23 -76 4 -56 24 -72 68 -55 17 6 32 7 36 2 6 -10 44 -12 44 -2 0 3
-6 14 -14 22 -13 14 -12 24 6 76 11 33 24 62 29 63 17 7 9 30 -13 36 -31 8
-38 7 -38 -3z m-21 -94 c-12 -48 -40 -83 -58 -72 -14 8 -14 51 -1 75 10 18 61
52 68 45 2 -1 -2 -23 -9 -48z"/>
<path d="M2932 2019 c-55 -27 -102 -68 -102 -89 0 -4 17 -24 38 -45 l37 -36
-30 -25 c-35 -28 -55 -31 -55 -8 0 21 -24 12 -28 -10 -4 -21 15 -46 35 -46 19
0 90 56 104 82 9 16 4 25 -27 53 l-38 35 23 24 c20 21 63 44 114 60 19 6 19
27 1 33 -6 2 -38 -11 -72 -28z"/>
<path d="M7008 2020 c-16 -16 -33 -30 -37 -30 -5 0 -11 -28 -14 -61 -5 -63 5
-104 29 -113 29 -11 170 56 158 75 -3 5 -10 9 -15 9 -6 0 -8 -4 -4 -9 3 -5 1
-12 -5 -16 -5 -3 -10 -2 -10 4 0 5 -19 1 -42 -9 -51 -23 -74 -25 -81 -7 -8 21
4 67 17 67 19 0 103 58 110 75 20 52 -57 63 -106 15z m49 -25 c-33 -29 -56
-34 -36 -7 19 24 31 32 49 32 10 -1 5 -9 -13 -25z"/>
<path d="M7342 2027 c-29 -31 -28 -47 8 -87 37 -41 38 -62 3 -90 -32 -25 -66
-23 -71 5 -6 30 -20 41 -28 22 -9 -25 4 -65 25 -77 42 -22 131 41 131 92 0 16
-12 41 -31 63 l-32 36 22 23 c12 12 18 26 14 29 -11 11 -18 8 -41 -16z"/>
<path d="M7960 2026 c-68 -36 -84 -59 -85 -118 0 -44 4 -53 27 -71 27 -20 29
-20 82 -4 52 17 85 41 73 54 -4 3 -30 -4 -58 -17 -41 -17 -57 -20 -75 -11 -31
14 -31 47 -1 55 35 8 106 64 119 92 10 20 9 27 -3 35 -20 13 -28 11 -79 -15z
m45 -28 c-5 -11 -29 -27 -72 -45 -29 -12 -10 15 25 35 43 25 53 27 47 10z"/>
<path d="M6588 2030 c-21 -13 -51 -90 -46 -121 2 -15 13 -27 31 -33 37 -13 96
17 115 58 13 25 12 31 -7 57 -12 15 -21 33 -21 39 0 13 -49 13 -72 0z m54 -50
c34 0 21 -48 -19 -69 -47 -25 -63 -3 -38 55 12 29 18 35 27 26 7 -7 20 -12 30
-12z"/>
<path d="M8540 2002 c-62 -62 -65 -153 -5 -168 31 -8 69 15 95 59 24 39 25 66
3 112 -22 46 -45 45 -93 -3z m69 -84 c-7 -16 -23 -37 -36 -45 -22 -15 -26 -15
-40 0 -14 14 -15 22 -4 56 6 22 24 50 39 61 l27 22 13 -33 c11 -25 11 -38 1
-61z"/>
<path d="M10735 2021 c-76 -46 -118 -136 -90 -191 17 -33 50 -55 66 -44 7 4 1
15 -15 31 -66 61 12 193 114 193 20 0 30 5 30 15 0 22 -68 19 -105 -4z"/>
<path d="M10898 2017 c-36 -33 -70 -103 -66 -135 4 -33 38 -41 74 -18 23 16
24 15 24 -4 0 -11 7 -20 15 -20 9 0 15 9 15 23 0 13 7 32 15 43 16 21 20 54 7
54 -5 0 -17 -9 -27 -20 -23 -26 -84 -64 -91 -57 -20 19 55 130 84 125 10 -2
17 4 17 12 0 25 -39 23 -67 -3z"/>
<path d="M2616 1990 c-36 -32 -76 -103 -76 -134 0 -81 108 -148 155 -96 23 26
12 37 -20 20 -48 -26 -113 31 -101 88 6 25 10 28 41 24 62 -7 117 46 94 91
-25 46 -46 48 -93 7z m64 -29 c0 -25 -46 -49 -63 -32 -9 10 -6 17 16 37 30 26
47 24 47 -5z"/>
<path d="M3864 2001 c-60 -37 -83 -130 -41 -169 31 -29 69 -28 105 3 45 38 59
79 39 120 -11 23 -13 35 -5 37 6 2 8 10 4 16 -11 18 -67 14 -102 -7z m76 -62
c26 -47 -60 -124 -96 -87 -38 38 21 142 67 118 10 -6 23 -20 29 -31z"/>
<path d="M9526 1948 c-2 -7 -9 -35 -15 -63 -6 -27 -13 -60 -17 -72 -10 -36 22
-29 35 8 18 51 25 126 12 133 -6 4 -13 1 -15 -6z"/>
<path d="M5563 1913 c-16 -6 -17 -29 -3 -38 13 -8 40 13 40 31 0 14 -14 17
-37 7z"/>
<path d="M13533 1825 c-3 -9 -3 -18 0 -22 10 -10 37 6 37 22 0 20 -29 20 -37
0z"/>
<path d="M7550 1798 c-134 -119 -152 -139 -131 -152 10 -7 181 155 181 172 0
19 -12 14 -50 -20z"/>
<path d="M12704 1768 c8 -41 16 -49 44 -42 28 8 28 13 -2 47 -32 38 -50 36
-42 -5z"/>
<path d="M13112 1758 c-15 -15 -16 -51 0 -46 6 2 16 12 22 21 14 22 -4 43 -22
25z"/>
<path d="M7050 1683 c0 -44 -7 -102 -15 -129 -15 -52 -70 -128 -86 -119 -20
13 -7 49 27 82 27 25 34 37 26 45 -27 27 -107 -77 -95 -123 7 -25 38 -42 63
-34 26 8 73 78 93 135 8 25 16 83 18 130 4 74 2 85 -13 88 -16 3 -18 -6 -18
-75z"/>
<path d="M9217 1753 c-4 -3 -7 -45 -7 -93 l0 -87 -38 -11 c-47 -14 -72 -54
-72 -114 0 -91 68 -104 116 -21 27 44 28 52 28 189 1 136 -4 161 -27 137z m-3
-221 c17 -28 -48 -143 -72 -128 -15 9 -16 71 -1 97 14 28 63 48 73 31z"/>
<path d="M6626 1708 c-3 -18 -10 -66 -16 -106 -11 -74 -47 -167 -64 -167 -18
0 -45 60 -55 123 -20 123 -55 113 -98 -27 -14 -48 -34 -92 -44 -100 -20 -14
-25 -46 -10 -56 17 -10 58 59 81 138 23 78 40 99 40 50 0 -75 50 -163 92 -163
36 0 83 112 94 226 4 38 11 72 17 75 14 10 1 39 -17 39 -9 0 -17 -13 -20 -32z"/>
<path d="M8497 1734 c-3 -4 -9 -33 -13 -66 -7 -59 -23 -88 -49 -88 -15 0 -28
-27 -15 -35 4 -3 16 -2 25 1 15 6 16 2 9 -37 -11 -61 -11 -103 1 -109 6 -3 16
28 24 73 14 74 16 77 42 77 36 0 79 17 79 31 0 7 -13 9 -40 4 -21 -4 -43 -4
-48 -1 -9 5 -2 68 13 129 5 20 4 27 -7 27 -8 0 -18 -3 -21 -6z"/>
<path d="M4009 1713 c0 -5 -2 -33 -3 -63 -1 -30 -13 -90 -25 -133 -29 -95 -19
-120 26 -66 36 44 74 79 84 79 11 0 -8 -51 -28 -72 -19 -22 -10 -48 17 -48 14
0 20 7 20 23 1 12 7 33 15 47 8 14 14 37 15 51 0 41 -28 45 -77 10 -24 -17
-43 -29 -43 -28 0 2 6 26 14 53 20 69 20 154 1 154 -8 0 -15 -3 -16 -7z"/>
<path d="M4261 1679 c-16 -35 -13 -40 17 -32 18 4 22 12 20 31 -4 36 -21 37
-37 1z"/>
<path d="M4587 1663 c4 -38 -1 -68 -26 -142 -39 -115 -32 -130 34 -77 l45 37
0 -36 c0 -56 15 -75 59 -75 24 0 47 8 61 20 30 26 20 35 -23 19 -48 -17 -67
-7 -67 35 0 19 5 47 10 62 6 15 8 34 5 42 -4 12 -12 9 -38 -14 -66 -62 -67
-62 -46 8 24 77 23 161 -3 166 -15 3 -16 -3 -11 -45z"/>
<path d="M9941 1658 c-10 -24 -21 -55 -25 -70 -3 -16 -13 -28 -22 -28 -19 0
-77 -29 -86 -44 -11 -16 -9 -88 2 -106 15 -24 61 0 94 50 l30 44 11 -45 c17
-65 33 -89 59 -89 28 0 74 46 60 60 -7 7 -16 4 -29 -10 -25 -28 -34 -25 -51
15 -18 43 -18 122 0 197 7 32 11 60 8 63 -15 15 -35 0 -51 -37z m-41 -133 c0
-14 -30 -62 -50 -80 l-21 -19 3 39 c2 30 9 42 28 52 27 14 40 16 40 8z"/>
<path d="M5415 1681 c-3 -6 3 -15 14 -21 21 -11 37 2 26 20 -8 13 -32 13 -40
1z"/>
<path d="M3629 1611 c-35 -19 -55 -36 -57 -50 -3 -16 2 -21 17 -21 12 0 21 6
21 14 0 15 83 60 101 54 5 -2 -15 -41 -45 -87 -31 -46 -56 -92 -56 -102 0 -25
28 -24 60 2 22 19 23 22 8 33 -14 11 -13 16 14 51 48 65 69 110 55 124 -19 19
-61 12 -118 -18z"/>
<path d="M8239 1633 c-15 -2 -36 -15 -49 -28 -18 -19 -20 -27 -11 -43 6 -12
19 -23 30 -27 10 -3 26 -14 36 -25 17 -18 16 -21 -6 -67 -16 -32 -31 -49 -46
-51 -29 -4 -54 33 -46 69 7 36 -21 41 -31 7 -18 -69 7 -108 70 -108 39 0 77
41 96 102 l12 41 -42 37 c-23 21 -42 40 -42 44 0 3 20 11 45 17 26 7 45 17 45
25 0 14 -10 15 -61 7z"/>
<path d="M7164 1574 c-19 -19 -34 -44 -34 -54 0 -10 -4 -22 -10 -25 -12 -8 16
-52 42 -66 22 -12 81 -2 72 12 -3 5 0 9 5 9 6 0 11 5 11 11 0 7 -7 8 -17 4
-33 -14 -48 -15 -61 -7 -13 9 -6 45 8 37 9 -6 60 51 60 66 0 18 -20 49 -32 49
-6 0 -26 -16 -44 -36z m36 -19 c0 -8 -10 -19 -21 -26 -21 -11 -21 -11 -3 15
22 30 24 31 24 11z"/>
<path d="M7488 1594 c-34 -18 -36 -47 -8 -89 25 -38 25 -67 0 -90 -20 -18 -21
-18 -35 1 -8 10 -15 27 -15 37 0 9 -6 17 -14 17 -24 0 -23 -33 3 -72 14 -21
29 -38 33 -38 20 0 50 23 68 52 20 33 16 65 -16 113 -17 27 -17 28 1 41 10 8
27 12 37 8 26 -8 42 4 27 22 -15 18 -46 17 -81 -2z"/>
<path d="M6765 1579 c-4 -6 3 -21 15 -34 22 -23 22 -25 6 -49 -19 -30 -64 -62
-73 -52 -12 12 12 61 35 71 27 12 29 35 4 35 -44 0 -89 -92 -62 -125 21 -26
51 -17 96 29 49 48 54 71 23 110 -22 28 -34 32 -44 15z"/>
<path d="M8930 1565 c-20 -22 -25 -23 -33 -10 -13 24 -27 7 -27 -34 0 -20 -5
-42 -11 -48 -12 -12 -4 -33 11 -33 5 0 18 17 29 38 21 40 70 91 58 60 -30 -83
-30 -138 0 -138 11 0 14 6 10 21 -3 12 3 50 14 85 11 36 17 69 14 74 -11 18
-41 11 -65 -15z"/>
<path d="M5533 1560 c-49 -22 -54 -40 -17 -69 20 -16 25 -26 20 -46 -3 -13
-15 -29 -25 -35 -16 -8 -18 -7 -14 10 7 28 -13 25 -33 -5 -38 -58 16 -74 72
-22 43 39 48 76 15 111 l-21 23 41 16 c23 9 38 21 34 27 -9 14 -24 12 -72 -10z"/>
<path d="M9597 1550 c-19 -16 -40 -30 -46 -30 -14 0 -23 -39 -19 -81 5 -52 28
-42 50 21 22 67 49 93 83 80 31 -12 45 8 20 27 -29 20 -51 16 -88 -17z"/>
<path d="M4362 1555 c-94 -41 -114 -81 -63 -129 32 -31 101 -59 115 -46 13 13
-1 27 -33 33 -16 3 -42 17 -57 31 -28 24 -28 24 -10 45 10 11 38 28 63 37 24
9 42 22 40 27 -5 17 -20 17 -55 2z"/>
<path d="M8693 1558 c-12 -6 -27 -23 -33 -39 -10 -24 -10 -33 4 -53 8 -14 26
-28 38 -32 13 -4 28 -14 34 -22 7 -9 18 -13 29 -8 17 6 17 7 0 26 -16 18 -16
20 4 42 27 28 37 66 23 80 -16 16 -73 19 -99 6z m34 -53 c-11 -36 -31 -46 -41
-20 -5 15 26 55 43 55 5 0 4 -15 -2 -35z"/>
<path d="M5372 1536 c-25 -32 -49 -143 -34 -158 16 -16 32 0 32 35 0 54 20
109 41 114 10 3 19 12 19 19 0 23 -37 16 -58 -10z"/>
<path d="M9391 1551 c-40 -5 -59 -13 -76 -33 -46 -53 0 -115 67 -90 26 10 33
9 43 -5 18 -24 37 -8 24 21 -8 18 -7 30 5 54 19 37 21 63 4 61 -7 -1 -37 -5
-67 -8z m22 -51 c-6 -24 -40 -50 -65 -50 -12 0 -18 8 -18 25 0 27 23 44 62 45
21 0 25 -4 21 -20z"/>
<path d="M4182 1538 c-18 -18 -16 -118 3 -118 11 0 15 12 15 50 0 38 4 50 15
50 8 0 15 7 15 15 0 18 -31 20 -48 3z"/>
<path d="M3715 1498 c-17 -15 -25 -29 -21 -37 6 -9 13 -8 27 5 18 16 19 16 19
-8 0 -14 8 -36 18 -48 24 -30 64 -21 104 22 32 34 39 82 11 76 -10 -2 -17 -11
-17 -21 1 -9 -12 -28 -28 -42 -34 -29 -58 -20 -58 19 0 12 -6 30 -13 40 -13
17 -15 17 -42 -6z"/>
</g>
</svg>
