<?xml version="1.0" standalone="no"?>
<!DOCTYPE svg PUBLIC "-//W3C//DTD SVG 20010904//EN"
 "http://www.w3.org/TR/2001/REC-SVG-20010904/DTD/svg10.dtd">
<svg version="1.0" xmlns="http://www.w3.org/2000/svg"
 width="1618.000000pt" height="1214.000000pt" viewBox="0 0 1618.000000 1214.000000"
 preserveAspectRatio="xMidYMid meet">

<g transform="translate(0.000000,1214.000000) scale(0.100000,-0.100000)"
fill="#000000" stroke="none">
<path d="M14885 12000 c-3 -6 -4 -19 0 -29 3 -10 0 -30 -6 -44 -11 -25 -12
-25 -32 -6 -24 22 -36 23 -71 7 -57 -25 -86 -156 -47 -207 18 -23 18 -25 -10
-79 -15 -31 -26 -59 -23 -64 11 -18 25 -6 47 40 22 46 23 47 63 44 36 -3 44 1
72 33 28 31 32 43 32 91 0 30 -7 68 -15 84 -9 18 -11 30 -5 30 11 0 28 37 37
83 5 22 2 27 -15 27 -12 0 -24 -5 -27 -10z m-48 -110 c15 -23 8 -45 -37 -119
-30 -48 -33 -50 -46 -34 -29 39 -9 138 33 162 26 15 37 13 50 -9z m25 -169
c-17 -23 -58 -36 -64 -20 -2 3 15 37 37 75 l40 68 3 -49 c2 -36 -2 -55 -16
-74z"/>
<path d="M13305 11951 c-22 -33 -33 -40 -73 -46 -99 -15 -124 -48 -120 -156 2
-56 -2 -72 -25 -112 -30 -51 -35 -87 -12 -87 8 0 15 7 15 14 0 8 11 36 25 62
14 26 25 53 25 59 0 9 17 11 63 8 69 -6 122 12 130 44 17 62 17 93 0 110 -22
23 -22 52 0 86 19 29 22 57 7 57 -5 0 -21 -18 -35 -39z m-75 -89 c0 -10 -79
-122 -86 -122 -2 0 -4 18 -4 40 0 30 7 47 25 65 23 24 65 34 65 17z m61 -22
c14 -8 19 -21 19 -49 0 -45 -14 -60 -64 -68 -46 -7 -72 2 -57 21 6 7 8 16 4
19 -3 4 -1 7 5 7 7 0 24 18 38 40 30 45 28 44 55 30z"/>
<path d="M14466 11940 c-71 -35 -73 -37 -59 -51 8 -8 29 -2 76 21 65 32 94 33
82 3 -3 -9 -27 -45 -53 -80 -36 -50 -60 -72 -104 -94 -78 -39 -78 -80 -1 -47
15 6 36 18 46 26 16 14 17 13 17 -14 0 -43 25 -74 60 -74 50 0 80 17 80 45 0
30 -10 32 -33 5 -25 -29 -65 -26 -73 5 -3 14 -4 31 -1 39 3 7 2 17 -3 22 -5 5
16 42 46 83 54 73 65 106 42 129 -19 19 -58 13 -122 -18z"/>
<path d="M15043 11958 c-6 -7 -13 -55 -16 -106 -3 -51 -12 -106 -20 -122 -16
-31 -13 -40 13 -40 19 0 26 28 40 165 4 44 9 86 11 94 5 18 -15 25 -28 9z"/>
<path d="M15230 11951 c-53 -22 -60 -43 -31 -98 l19 -38 -45 -40 c-41 -37 -44
-42 -34 -67 11 -29 64 -68 93 -68 9 0 26 12 38 27 17 22 20 35 15 63 -4 19
-11 41 -17 48 -8 9 -3 24 18 55 16 23 32 44 36 47 14 11 20 61 8 75 -16 19
-44 18 -100 -4z m80 -19 c0 -4 -14 -30 -31 -57 l-31 -49 -20 38 c-11 21 -18
39 -16 41 7 7 74 33 86 34 6 1 12 -3 12 -7z m-61 -185 c14 -42 6 -67 -22 -67
-22 0 -57 27 -57 44 0 10 49 55 62 56 3 0 11 -15 17 -33z"/>
<path d="M13825 11940 c-3 -5 -8 -18 -10 -27 -2 -10 -22 -71 -45 -137 -35
-100 -40 -122 -31 -143 15 -33 37 -24 33 14 -3 30 45 185 74 241 7 15 14 35
14 45 0 18 -25 24 -35 7z"/>
<path d="M13972 11934 c-32 -22 -29 -59 8 -74 16 -7 38 -10 49 -7 19 5 19 4 0
-52 -11 -31 -26 -70 -34 -88 -20 -42 -20 -103 0 -103 10 0 15 10 15 29 0 28
39 139 80 229 19 41 19 69 0 57 -4 -3 -13 2 -20 10 -16 20 -70 19 -98 -1z m75
-31 c5 -14 -29 -26 -51 -17 -13 5 -14 9 -5 21 14 16 51 14 56 -4z"/>
<path d="M13455 11910 c-3 -5 -4 -10 0 -10 3 0 1 -9 -5 -21 -7 -11 -22 -64
-36 -117 -20 -84 -22 -99 -9 -111 17 -17 16 -20 40 99 10 47 24 97 31 112 8
15 14 34 14 43 0 17 -25 21 -35 5z"/>
<path d="M6354 11796 c-45 -12 -55 -25 -32 -40 11 -6 27 -4 51 7 19 9 48 17
63 17 26 0 24 -3 -26 -35 -30 -19 -58 -35 -62 -35 -24 0 -1 -29 42 -52 28 -16
50 -34 50 -42 0 -42 -70 -60 -120 -31 -32 18 -50 19 -50 2 0 -7 16 -21 35 -30
112 -53 221 34 134 107 -17 14 -36 26 -42 26 -17 0 55 50 81 57 30 7 49 42 31
54 -19 12 -104 9 -155 -5z"/>
<path d="M2364 11727 c-9 -16 -5 -113 14 -337 7 -74 16 -240 20 -368 6 -159
12 -236 21 -245 10 -10 61 -18 195 -29 16 -2 31 2 33 8 5 15 -73 34 -141 34
l-55 0 -11 41 c-6 22 -10 66 -10 97 3 93 -19 512 -30 582 -5 36 -10 94 -10
129 l0 63 48 -7 c78 -12 97 -11 97 5 0 10 -15 17 -45 21 -25 4 -61 10 -81 14
-28 6 -39 4 -45 -8z"/>
<path d="M5764 11725 c-4 -9 -4 -19 0 -22 3 -3 51 -8 106 -11 64 -3 100 -9
100 -16 -1 -6 -5 -72 -10 -146 -6 -74 -10 -218 -10 -320 -1 -185 -13 -446 -22
-455 -3 -3 -56 -1 -118 4 -89 7 -117 13 -127 26 -13 19 -43 14 -43 -8 0 -24
52 -40 158 -48 67 -5 112 -13 128 -24 32 -21 44 -12 42 33 -2 67 21 858 26
873 2 8 7 37 10 65 l6 51 -92 -1 c-51 -1 -105 2 -121 7 -21 6 -29 4 -33 -8z"/>
<path d="M4472 11693 c-11 -21 -27 -63 -37 -93 -21 -64 -91 -211 -104 -219
-17 -11 -17 -71 0 -71 5 0 20 22 32 50 24 53 22 52 128 64 l47 5 6 -47 c14
-97 18 -112 33 -112 12 0 13 11 8 58 -4 31 -14 82 -21 112 -8 30 -19 98 -25
150 -15 130 -17 140 -34 140 -8 0 -23 -17 -33 -37z m51 -214 c4 -15 -4 -19
-50 -25 -29 -3 -56 -4 -59 -1 -3 3 3 22 14 44 11 21 23 49 27 63 3 14 14 45
23 70 l17 45 12 -89 c6 -49 13 -97 16 -107z"/>
<path d="M13568 11723 c-9 -2 -16 -12 -15 -22 1 -14 6 -17 27 -11 14 3 25 12
25 20 0 15 -12 20 -37 13z"/>
<path d="M14169 11700 c-13 -12 -19 -19 -12 -16 6 4 13 0 16 -6 3 -10 9 -8 23
4 29 28 4 44 -27 18z"/>
<path d="M5393 11699 c-26 -9 -31 -29 -8 -29 12 0 15 -13 15 -59 0 -58 -1 -59
-31 -65 -17 -3 -44 -6 -60 -6 -20 0 -29 -5 -29 -16 0 -14 9 -16 60 -11 l60 5
0 -56 c1 -82 15 -134 45 -159 28 -24 74 -30 106 -13 34 19 22 32 -23 25 -29
-4 -49 -2 -61 7 -22 17 -36 75 -37 151 0 51 2 58 18 53 9 -3 34 -8 55 -12 33
-5 37 -4 37 14 0 13 -7 21 -17 21 -10 1 -35 4 -55 7 l-38 6 0 69 c0 37 -3 70
-7 72 -5 3 -18 1 -30 -4z"/>
<path d="M3459 11543 c-1 -4 0 -34 1 -65 1 -43 -2 -58 -12 -59 -7 -1 -21 -2
-30 -3 -31 -2 -19 -21 15 -24 33 -3 35 -5 47 -60 19 -86 19 -87 32 -74 9 9 9
25 2 61 l-10 49 32 -5 c34 -6 57 13 27 23 -74 24 -72 21 -75 92 -2 41 -8 67
-15 70 -7 2 -14 0 -14 -5z"/>
<path d="M3645 11520 c-4 -6 -1 -18 6 -26 6 -8 15 -32 19 -54 l7 -40 -39 0
c-51 0 -47 -24 5 -28 l36 -3 7 -60 c4 -33 11 -62 16 -66 18 -11 25 17 17 70
-9 57 -3 67 44 67 17 0 27 5 27 15 0 11 -11 15 -40 15 -35 0 -40 3 -46 28 -3
15 -9 40 -13 57 -7 31 -34 45 -46 25z"/>
<path d="M3147 11514 c-12 -12 -8 -24 8 -24 12 0 15 -13 15 -56 0 -85 21 -194
36 -194 9 0 14 11 14 29 0 31 36 85 51 76 4 -3 13 -25 19 -48 17 -67 30 -91
41 -80 11 11 0 66 -23 126 -13 35 -52 46 -78 22 -18 -16 -19 -16 -24 6 -3 13
-7 51 -8 84 -3 52 -6 60 -23 63 -12 2 -24 0 -28 -4z"/>
<path d="M4941 11444 c-32 -28 -41 -44 -41 -68 0 -39 32 -73 75 -81 42 -8 110
8 110 25 0 8 -6 14 -14 12 -39 -8 -112 -4 -126 8 -14 11 -13 15 12 30 43 26
65 56 61 82 -5 35 -33 33 -77 -8z m34 -24 c-10 -11 -23 -20 -28 -20 -6 0 -2 9
8 20 10 11 23 20 28 20 6 0 2 -9 -8 -20z"/>
<path d="M5172 11454 c-12 -8 -26 -13 -31 -10 -18 12 -29 -22 -30 -91 0 -58 3
-73 14 -73 10 0 15 10 15 28 0 15 10 47 22 72 l22 45 6 -73 c7 -80 20 -103 45
-82 14 12 14 15 -1 31 -13 15 -16 31 -11 79 4 46 2 64 -10 75 -18 18 -14 18
-41 -1z"/>
<path d="M4723 11435 c-61 -26 -82 -92 -39 -120 18 -12 29 -13 51 -5 15 6 29
9 31 7 6 -6 34 -147 34 -171 0 -21 -5 -23 -40 -22 -67 1 -94 -51 -56 -109 37
-57 98 -48 118 17 6 21 17 38 25 38 18 0 17 25 -2 40 -8 7 -15 25 -15 40 0 15
-7 63 -16 106 -13 62 -14 85 -5 116 21 68 -14 93 -86 63z m42 -51 c-2 -29 -19
-44 -52 -44 -29 0 -30 23 -3 50 29 29 56 26 55 -6z m35 -315 c0 -31 -19 -59
-40 -59 -21 0 -40 28 -40 59 0 18 6 21 40 21 34 0 40 -3 40 -21z"/>
<path d="M3838 11373 c-18 -15 -34 -27 -35 -27 -2 -1 15 -171 22 -223 4 -28
11 -43 21 -43 11 0 14 16 14 70 l0 70 33 0 c43 0 73 22 87 65 32 96 -61 153
-142 88z m100 -15 c17 -17 15 -68 -5 -90 -27 -30 -62 -23 -78 14 -13 33 -6 63
19 80 17 12 51 9 64 -4z"/>
<path d="M4071 11307 c-12 -15 -5 -27 16 -27 7 0 13 9 13 20 0 23 -13 26 -29
7z"/>
<path d="M15271 11287 c-17 -26 -4 -39 22 -25 12 6 63 12 113 12 74 1 90 -2
82 -12 -16 -18 0 -28 22 -14 19 12 20 9 20 -40 -1 -29 -7 -102 -14 -163 -8
-61 -14 -210 -14 -336 0 -314 -25 -632 -58 -751 -16 -56 -17 -57 -60 -64 -23
-3 -80 -4 -126 -3 l-83 4 -3 -32 c-2 -25 1 -33 12 -33 10 0 16 9 16 21 0 15 4
19 16 15 9 -3 58 -6 109 -6 85 0 94 -2 100 -20 9 -28 40 -25 64 6 27 34 26 48
0 66 -21 14 -21 15 -5 79 9 36 20 132 26 215 6 82 12 163 15 179 3 17 7 163
10 325 2 162 8 324 14 360 6 36 11 97 11 136 0 63 2 72 20 77 11 3 20 10 20
15 0 7 -58 10 -159 9 -141 -2 -161 -4 -170 -20z"/>
<path d="M9428 11243 c-25 -3 -38 -9 -38 -19 0 -8 4 -14 9 -14 5 0 10 -96 10
-217 1 -120 4 -238 7 -263 8 -73 47 -627 51 -733 l4 -97 42 7 c23 4 56 7 72 6
56 -3 196 20 192 31 -2 6 -21 10 -43 9 -21 -1 -82 -4 -134 -6 l-96 -5 0 62
c-1 33 -6 95 -12 136 -6 41 -16 161 -22 265 -6 105 -15 234 -20 289 -6 54 -10
192 -10 307 0 192 1 209 18 211 9 1 44 2 77 2 44 1 60 5 62 16 3 12 -10 15
-64 16 -38 0 -85 -1 -105 -3z"/>
<path d="M13281 11220 c-39 -9 -66 -33 -56 -50 5 -8 14 -6 33 7 22 14 47 18
132 18 117 0 151 -12 238 -83 54 -43 68 -71 52 -102 -14 -26 -93 -64 -118 -56
-10 4 -39 2 -64 -2 l-46 -9 -12 64 c-7 35 -10 79 -7 98 6 38 0 50 -20 34 -18
-15 -16 -49 8 -214 11 -77 19 -160 17 -185 -2 -37 0 -45 16 -48 18 -4 19 1 13
92 -5 89 -4 96 13 96 44 0 99 -88 115 -183 9 -54 31 -43 27 14 -7 86 -67 181
-125 198 -28 8 -24 9 33 10 75 2 136 25 168 66 40 50 22 98 -57 159 -82 61
-152 86 -246 85 -44 -1 -95 -5 -114 -9z"/>
<path d="M15009 11188 c0 -2 -2 -33 -4 -70 -5 -114 -2 -111 -109 -104 -84 6
-131 -2 -114 -20 4 -3 48 -8 99 -10 51 -3 94 -6 96 -7 2 -2 -4 -40 -13 -84
-21 -104 -14 -147 29 -173 53 -33 157 -23 157 15 0 17 -26 20 -35 5 -8 -14
-68 -13 -100 2 -41 18 -43 46 -13 186 l11 52 62 0 c55 0 85 11 85 31 0 4 -32
5 -71 2 -70 -6 -70 -6 -65 18 15 68 25 142 20 150 -5 8 -32 13 -35 7z"/>
<path d="M15688 11173 c-7 -9 -7 -17 1 -27 6 -8 11 -18 10 -22 -4 -22 3 -32
27 -43 14 -6 30 -8 36 -5 6 4 9 1 6 -7 -3 -9 -18 -13 -42 -12 -38 3 -46 -7
-21 -27 31 -26 129 10 110 39 -4 7 -24 19 -46 28 -21 8 -39 19 -39 24 0 14 37
29 74 29 24 0 36 5 36 14 0 19 -137 27 -152 9z"/>
<path d="M13019 11178 c-3 -14 -9 -86 -11 -140 l-3 -67 -60 -3 c-78 -4 -77
-22 1 -26 l62 -3 7 -47 c9 -60 39 -130 72 -164 31 -33 77 -45 100 -26 9 7 18
12 20 11 10 -8 23 -1 23 13 0 13 -6 15 -27 8 -42 -11 -72 -8 -93 11 -22 20
-55 96 -64 146 l-6 36 72 7 c120 11 176 32 151 57 -6 6 -21 4 -39 -6 -17 -8
-64 -16 -105 -17 l-74 -3 2 108 c1 86 -2 107 -13 107 -8 0 -14 -1 -15 -2z"/>
<path d="M11780 11114 c-128 -27 -190 -103 -190 -228 1 -81 16 -130 54 -181
55 -72 154 -93 274 -56 72 22 123 53 109 67 -4 5 -11 4 -15 -1 -4 -6 -11 -10
-17 -10 -5 -1 -41 -11 -79 -23 -113 -37 -182 -26 -239 37 -41 45 -57 93 -57
169 0 93 44 157 129 187 62 22 78 19 96 -15 14 -27 45 -42 45 -22 -1 18 -29
86 -36 88 -5 1 -38 -4 -74 -12z"/>
<path d="M12095 11100 c-3 -5 -1 -18 4 -28 6 -11 15 -99 22 -198 13 -190 19
-224 44 -224 16 0 22 56 6 62 -5 2 -14 80 -20 175 -6 95 -15 183 -21 197 -10
27 -24 33 -35 16z"/>
<path d="M12287 11083 c-11 -11 -8 -43 4 -43 12 0 38 29 39 43 0 9 -34 9 -43
0z"/>
<path d="M10791 11016 c-13 -16 -6 -40 9 -31 13 8 20 -23 27 -109 l6 -79 -41
6 c-22 4 -43 4 -45 0 -3 -5 -36 -7 -75 -5 l-69 4 -6 81 c-6 92 -21 141 -40
134 -13 -5 -13 -10 3 -79 6 -25 10 -66 8 -90 l-3 -43 -45 0 c-33 0 -45 -4 -45
-15 0 -11 13 -16 47 -18 l47 -3 6 -42 c3 -23 6 -64 8 -92 1 -37 6 -50 17 -50
12 0 14 14 12 75 -2 41 -6 83 -9 93 -4 17 1 19 60 16 36 -2 68 -2 70 1 3 3 28
3 56 2 l51 -4 0 -53 c0 -61 7 -85 25 -85 9 0 11 18 7 69 l-5 70 37 3 c48 4 47
22 -1 28 l-38 5 -8 84 c-10 114 -36 164 -66 127z"/>
<path d="M10194 10999 c-3 -6 -1 -14 5 -18 11 -7 29 -158 33 -286 2 -54 6 -70
18 -70 9 0 17 15 22 45 8 49 37 120 48 120 16 0 29 -28 39 -84 11 -62 29 -91
62 -99 32 -8 32 12 1 41 -21 20 -30 40 -35 77 -9 61 -30 95 -61 95 -24 0 -55
-27 -57 -51 -1 -8 -7 34 -14 93 -8 59 -16 117 -20 128 -7 22 -30 27 -41 9z"/>
<path d="M12465 10907 c-40 -40 -43 -66 -19 -127 28 -68 126 -100 165 -54 17
21 5 27 -34 16 -29 -8 -41 -6 -66 9 -17 10 -32 23 -32 29 -1 5 -2 15 -3 20 -1
6 14 18 33 28 49 24 64 50 48 82 -19 38 -52 37 -92 -3z m65 -15 c0 -21 -41
-47 -61 -40 -9 3 -5 12 13 31 32 31 48 34 48 9z"/>
<path d="M14692 10914 c-36 -25 -26 -61 27 -98 68 -48 72 -85 10 -86 -33 0
-59 20 -62 48 -2 30 -21 22 -25 -10 -7 -57 111 -95 152 -49 31 34 14 66 -69
135 -36 29 -29 40 28 41 29 1 42 5 42 16 0 21 -74 24 -103 3z"/>
<path d="M4530 10889 c-7 -11 -9 -23 -7 -26 12 -11 -184 -396 -291 -573 -57
-94 -103 -191 -96 -202 10 -15 34 -8 34 10 0 10 46 99 101 197 127 225 299
567 299 594 0 27 -26 27 -40 0z"/>
<path d="M12627 10903 c-4 -3 -2 -12 4 -20 8 -8 10 -39 7 -83 -4 -53 -2 -70 9
-74 7 -3 16 0 18 7 2 6 10 26 16 42 7 17 12 33 11 38 -1 4 2 7 6 7 5 0 15 12
22 28 14 26 14 24 20 -45 8 -88 27 -115 79 -111 48 4 54 28 7 28 -45 0 -56 23
-56 116 0 91 -33 99 -82 19 l-18 -30 0 27 c0 48 -21 73 -43 51z"/>
<path d="M14450 10878 c-11 -18 -20 -41 -20 -50 0 -9 -9 -20 -21 -23 l-21 -7
21 -22 c12 -12 21 -29 21 -37 0 -27 39 -59 71 -59 36 0 108 35 116 56 8 21 -7
32 -20 14 -7 -8 -17 -16 -22 -17 -6 -1 -25 -8 -43 -15 -38 -15 -65 -3 -70 29
-2 15 4 22 23 27 27 7 65 58 65 88 0 24 -28 48 -56 48 -17 0 -30 -10 -44 -32z
m65 -7 c9 -15 -16 -59 -36 -64 -24 -6 -25 19 -3 51 16 23 29 28 39 13z"/>
<path d="M14314 10846 c6 -48 5 -56 -19 -85 -15 -17 -33 -31 -41 -31 -18 0
-41 51 -50 109 -7 46 -21 61 -30 36 -17 -44 43 -185 78 -185 23 0 68 43 87 83
17 37 18 47 8 85 -6 24 -17 42 -25 42 -11 0 -13 -11 -8 -54z"/>
<path d="M12298 10848 c-2 -54 2 -91 14 -121 12 -30 35 -31 29 -1 -2 10 -6 49
-8 87 -3 49 -8 67 -19 67 -9 0 -15 -12 -16 -32z"/>
<path d="M13705 10856 c-30 -30 -34 -99 -8 -153 23 -48 54 -58 117 -36 61 20
80 33 68 45 -4 4 -29 1 -55 -8 -59 -20 -88 -15 -104 16 -11 22 -10 26 10 36
12 7 24 11 28 9 3 -3 21 9 40 25 33 28 34 29 19 57 -22 40 -79 44 -115 9z m84
-20 c9 -10 6 -17 -13 -30 -52 -33 -93 -6 -44 28 28 20 42 20 57 2z"/>
<path d="M11155 10863 c-11 -2 -32 -18 -47 -36 -16 -17 -28 -26 -28 -19 0 18
-17 15 -45 -10 -29 -25 -31 -35 -9 -59 10 -11 19 -49 25 -106 14 -146 21 -184
33 -180 7 2 12 40 14 100 l3 97 49 0 c61 0 98 28 106 81 11 69 -46 142 -101
132z m51 -54 c25 -28 25 -96 -1 -115 -27 -20 -101 -18 -109 2 -11 28 -7 46 19
91 29 49 60 57 91 22z"/>
<path d="M13926 10839 c-34 -40 -35 -97 -3 -127 28 -26 38 -27 77 -7 l30 16 0
-146 c0 -119 3 -145 14 -145 8 0 18 10 22 23 11 36 35 58 92 83 29 14 52 30
52 39 0 21 -6 20 -84 -20 l-68 -34 3 169 c2 92 0 172 -4 176 -12 12 -27 -16
-27 -51 0 -54 -56 -109 -86 -84 -17 14 -18 52 -3 81 8 14 17 18 34 14 16 -4
25 -1 29 10 17 44 -42 47 -78 3z"/>
<path d="M3976 10813 c-3 -10 -7 -38 -10 -64 -8 -85 -28 -169 -41 -169 -7 0
-32 7 -55 15 -52 18 -60 19 -60 1 0 -8 24 -21 59 -32 l59 -19 4 -79 c5 -75 7
-81 38 -109 29 -26 38 -29 82 -25 27 3 57 12 66 21 18 18 11 34 -10 21 -28
-18 -94 -15 -118 4 -21 17 -24 28 -24 93 l-1 74 30 3 c87 7 96 11 89 40 -9 34
-8 34 -28 26 -9 -3 -16 -12 -16 -20 0 -9 -12 -14 -36 -14 -34 0 -35 2 -30 28
3 15 10 56 15 92 5 36 13 80 17 98 5 25 3 32 -9 32 -9 0 -18 -8 -21 -17z"/>
<path d="M6191 10702 c-32 -65 -73 -141 -89 -169 -16 -27 -40 -80 -52 -117
-13 -37 -27 -69 -31 -72 -16 -9 -9 -24 10 -24 15 0 25 15 40 58 29 79 35 87
65 85 14 -1 26 1 26 5 0 4 27 7 60 8 59 0 60 0 66 -31 3 -17 5 -35 4 -40 -7
-36 2 -95 14 -95 17 0 26 31 20 76 -2 19 -6 49 -8 68 -4 30 -1 35 20 40 31 8
26 32 -4 28 -19 -3 -22 2 -22 32 0 19 -7 68 -15 108 -9 40 -15 87 -14 103 2
48 0 55 -16 55 -9 0 -38 -46 -74 -118z m74 -52 c22 -107 20 -136 -7 -144 -33
-8 -128 -7 -128 2 -1 12 115 233 117 224 1 -4 9 -41 18 -82z"/>
<path d="M2951 10767 c-11 -18 -32 -75 -46 -127 -14 -52 -38 -137 -52 -188
-25 -87 -26 -119 -2 -95 6 6 18 36 27 68 l18 58 53 14 c30 7 56 12 58 10 2 -2
10 -37 19 -78 8 -41 19 -78 24 -83 18 -19 22 24 7 91 -8 37 -15 75 -15 83 -3
52 -23 247 -28 262 -9 29 -41 21 -63 -15z m51 -158 l4 -56 -38 -16 c-46 -21
-58 -21 -58 -3 0 21 49 185 62 210 11 19 13 16 19 -29 4 -27 9 -75 11 -106z"/>
<path d="M7199 10680 l3 -120 -54 0 c-41 0 -59 -5 -72 -19 -21 -23 -6 -37 23
-21 11 5 31 10 45 10 51 0 52 -3 48 -110 -4 -96 -4 -100 17 -100 19 0 20 4 15
44 -4 25 -4 68 0 98 l7 53 37 0 c28 0 37 5 40 18 3 15 0 18 -17 12 -12 -3 -30
-4 -41 0 -18 6 -20 17 -22 128 -2 99 -6 122 -18 125 -13 2 -14 -15 -11 -118z"/>
<path d="M1677 10773 c-11 -10 -8 -43 3 -43 6 0 10 -53 11 -137 0 -161 8 -218
29 -218 9 0 13 6 11 15 -3 8 -6 90 -7 182 -3 179 -16 233 -47 201z"/>
<path d="M7604 10764 c-66 -34 -117 -106 -141 -197 -20 -77 -10 -127 38 -182
44 -50 169 -87 204 -61 24 17 15 22 -56 29 -143 14 -201 122 -139 262 22 50
94 125 120 125 11 0 20 6 20 14 0 23 -14 26 -46 10z"/>
<path d="M7880 10760 c0 -11 6 -20 13 -20 24 0 76 -30 96 -56 49 -63 52 -162
6 -239 -25 -44 -82 -88 -107 -83 -7 2 -13 -4 -13 -12 0 -22 36 -23 71 -1 68
41 113 128 114 217 0 69 -42 153 -89 176 -19 9 -39 22 -44 27 -19 19 -47 13
-47 -9z"/>
<path d="M2079 10728 c-4 -62 2 -279 9 -323 5 -37 12 -51 26 -53 16 -3 18 0
12 25 l-7 28 20 -32 c43 -68 99 -50 123 40 11 44 11 52 -7 85 -12 21 -32 41
-48 47 -26 9 -32 6 -62 -26 l-33 -36 -7 74 c-4 41 -4 101 0 134 6 50 5 59 -9
59 -9 0 -16 -9 -17 -22z m153 -251 c10 -20 -6 -102 -22 -112 -15 -9 -38 7 -48
33 -24 62 -24 71 3 98 28 28 44 23 67 -19z"/>
<path d="M11324 10685 c-4 -10 -1 -21 7 -26 23 -14 31 -10 27 13 -4 27 -26 35
-34 13z"/>
<path d="M2639 10663 c-18 -116 -6 -292 22 -309 19 -12 34 13 18 32 -9 12 -15
56 -17 150 -3 74 -8 134 -13 134 -5 0 -10 -3 -10 -7z"/>
<path d="M3414 10583 c-63 -52 -59 -148 8 -188 49 -28 139 -22 152 12 9 23 -2
29 -24 15 -35 -21 -98 -15 -125 13 -35 34 -32 55 5 55 21 0 42 11 68 34 31 29
35 38 26 53 -15 25 -82 29 -110 6z m76 -22 c0 -14 -41 -41 -62 -41 -22 0 -23
8 -1 32 17 19 63 25 63 9z"/>
<path d="M3637 10584 c-3 -4 -2 -15 4 -25 6 -13 6 -19 -1 -19 -13 0 -13 -147
0 -155 6 -4 17 11 25 32 9 21 24 56 35 78 l19 40 0 -62 c1 -34 4 -69 7 -78 9
-23 53 -38 70 -24 17 14 18 32 2 26 -7 -2 -21 0 -30 5 -15 7 -18 23 -18 92 0
63 -4 85 -14 89 -14 6 -56 -31 -56 -49 0 -6 -6 -19 -14 -30 -13 -17 -14 -14
-5 24 9 42 6 62 -10 62 -4 0 -11 -3 -14 -6z"/>
<path d="M5245 10568 c-17 -56 -25 -90 -30 -133 -9 -73 -14 -95 -24 -95 -8 0
-32 70 -46 133 -10 47 -45 33 -76 -31 -14 -30 -30 -53 -35 -53 -5 0 -12 28
-16 62 -7 59 -20 90 -33 77 -11 -11 14 -191 27 -199 18 -12 44 16 74 80 l27
56 17 -62 c18 -64 44 -113 60 -113 20 0 48 62 54 121 4 32 13 80 21 106 8 25
12 50 9 55 -8 12 -24 10 -29 -4z"/>
<path d="M1870 10564 c-23 -7 -43 -102 -30 -141 21 -58 87 -69 131 -22 47 51
37 90 -39 152 -22 17 -32 19 -62 11z m77 -66 c13 -12 23 -29 23 -38 0 -23 -45
-62 -67 -58 -29 5 -45 49 -32 87 13 37 42 41 76 9z"/>
<path d="M4814 10524 c-41 -43 -47 -86 -23 -161 13 -42 30 -46 103 -27 67 19
81 27 72 42 -4 7 -25 5 -59 -4 -28 -7 -59 -14 -68 -14 -21 0 -36 53 -17 59 7
2 28 19 46 37 33 33 41 71 20 92 -20 20 -39 14 -74 -24z m56 -12 c0 -16 -54
-65 -58 -53 -2 7 6 23 19 37 22 24 39 31 39 16z"/>
<path d="M6679 10521 c-75 -75 -42 -151 66 -151 35 0 57 5 65 15 14 17 13 17
-60 16 -59 -2 -80 11 -57 34 10 9 17 14 17 10 0 -3 14 3 30 15 32 23 41 65 18
88 -20 20 -39 14 -79 -27z m61 -14 c0 -13 -58 -52 -66 -45 -2 3 5 17 17 31 22
28 49 36 49 14z"/>
<path d="M6879 10557 c0 -1 -1 -37 -3 -79 -3 -92 11 -102 45 -33 13 25 29 51
36 56 17 14 33 3 33 -24 0 -27 17 -87 30 -107 6 -10 12 -12 20 -4 7 7 6 21 -5
47 -8 20 -15 48 -15 62 0 31 -27 75 -47 75 -8 0 -25 -12 -38 -26 l-25 -27 0
25 c0 14 -7 28 -15 32 -8 3 -15 4 -16 3z"/>
<path d="M4546 10541 c-4 -5 -2 -11 2 -13 4 -1 5 -41 1 -88 -6 -87 -4 -110 12
-110 11 0 15 11 24 64 4 24 18 51 36 69 28 28 31 29 47 13 12 -12 17 -35 17
-84 1 -37 4 -73 9 -80 29 -48 37 110 8 168 -23 47 -51 49 -96 9 l-36 -31 10
26 c16 43 13 66 -9 66 -11 0 -22 -4 -25 -9z"/>
<path d="M3158 10520 c-44 -34 -48 -99 -8 -120 14 -8 29 -6 55 4 l35 15 10
-41 c16 -58 40 -186 40 -211 0 -20 -4 -22 -43 -19 -39 3 -47 0 -70 -28 -33
-39 -34 -51 -3 -87 44 -51 135 -31 136 30 0 14 5 17 20 12 24 -8 27 11 6 40
-7 11 -16 47 -19 80 -4 33 -17 104 -29 158 -21 95 -21 99 -4 129 22 36 8 61
-23 41 -10 -6 -22 -8 -27 -3 -22 19 -52 20 -76 0z m62 -35 c17 -20 6 -43 -25
-51 -35 -9 -48 6 -36 39 12 30 41 36 61 12z m52 -370 c21 -8 10 -63 -14 -76
-14 -8 -25 -6 -44 6 -55 36 -6 94 58 70z"/>
<path d="M6457 10529 c-22 -13 -47 -61 -47 -93 0 -32 30 -49 73 -41 l32 6 12
-73 c6 -40 14 -80 18 -89 5 -13 -3 -18 -35 -23 -24 -4 -52 -17 -67 -32 -21
-21 -25 -32 -20 -64 9 -70 66 -124 111 -107 23 9 47 53 53 97 4 24 11 40 19
40 20 0 17 27 -5 42 -11 8 -24 40 -35 85 -20 88 -20 132 -2 167 19 37 10 63
-27 81 -35 17 -55 18 -80 4z m51 -57 c3 -27 -1 -34 -24 -42 -17 -7 -31 -7 -37
-1 -19 19 21 86 47 78 6 -2 12 -18 14 -35z m43 -292 c14 0 11 -67 -5 -105 -8
-19 -21 -35 -29 -35 -23 0 -57 45 -64 84 -5 33 -3 37 28 51 19 8 40 12 47 10
8 -3 18 -5 23 -5z"/>
<path d="M1454 10500 c-28 -11 -74 -67 -74 -91 0 -54 59 -85 105 -55 24 16 24
15 45 -42 24 -65 40 -199 22 -188 -17 10 -91 -5 -114 -24 -20 -16 -20 -20 -8
-49 16 -41 50 -63 87 -59 22 2 33 13 52 51 15 31 29 47 42 47 10 0 19 7 19 15
0 8 -8 15 -19 15 -16 0 -19 10 -23 68 -3 37 -17 100 -31 140 -14 39 -21 75
-16 78 14 8 11 82 -3 91 -18 11 -59 12 -84 3z m36 -49 c0 -11 3 -26 6 -34 9
-24 -39 -51 -65 -37 -26 14 -26 30 0 64 24 31 59 35 59 7z m52 -396 c-18 -39
-41 -43 -69 -11 -28 33 -26 37 24 46 47 8 60 -2 45 -35z"/>
<path d="M2351 10484 c-26 -34 -27 -68 -1 -94 24 -24 38 -25 68 -4 18 12 22
13 22 1 0 -18 42 -57 63 -57 27 0 30 19 4 29 -34 13 -41 27 -39 81 1 41 -2 49
-24 59 -40 18 -71 13 -93 -15z m77 -31 c2 -13 -5 -27 -20 -37 -20 -14 -24 -14
-37 -1 -12 12 -12 19 -3 40 15 33 55 32 60 -2z"/>
<path d="M13620 9978 c0 -37 -170 -316 -304 -498 -54 -73 -83 -137 -69 -151
14 -14 33 -3 33 19 0 21 34 76 176 284 107 156 194 310 194 343 0 8 -7 15 -15
15 -8 0 -15 -5 -15 -12z"/>
<path d="M11791 9905 c-87 -62 -91 -128 -12 -189 123 -93 177 -271 106 -342
-28 -28 -95 -33 -149 -10 -43 18 -79 75 -74 118 2 24 -1 33 -12 33 -10 0 -16
-12 -17 -40 -5 -82 76 -155 176 -157 91 -2 136 48 136 152 0 90 -37 164 -127
252 -37 37 -68 74 -68 81 0 38 75 97 123 97 27 0 57 -28 57 -53 0 -9 7 -17 15
-17 24 0 18 48 -10 75 -33 34 -97 33 -144 0z"/>
<path d="M12122 9908 c-17 -17 -15 -28 7 -28 27 0 32 -39 19 -151 l-12 -97
-59 -6 c-60 -6 -95 -22 -80 -37 4 -4 26 -4 48 1 22 5 50 10 63 10 l22 0 -6
-125 c-7 -124 -7 -125 15 -125 19 0 21 4 16 43 -3 23 -3 79 1 125 l6 84 47 -4
c36 -2 46 0 46 12 0 11 -13 16 -43 18 l-43 3 8 67 c13 110 9 178 -12 202 -21
23 -27 24 -43 8z"/>
<path d="M11238 9713 c1 -98 2 -193 2 -211 0 -40 26 -55 47 -26 12 16 12 20
-1 30 -12 8 -15 45 -17 197 -1 166 -3 187 -18 187 -14 0 -16 -19 -13 -177z"/>
<path d="M10545 9871 c-3 -6 -2 -27 2 -48 5 -21 7 -61 5 -90 l-3 -52 -42 -3
c-38 -3 -42 -6 -45 -32 -3 -27 -2 -28 25 -23 15 3 35 8 44 12 14 5 18 -2 21
-40 2 -30 -2 -50 -11 -59 -11 -12 -11 -19 0 -45 8 -17 21 -31 29 -31 13 0 13
-1 0 -11 -13 -9 -13 -10 0 -6 12 3 15 23 13 105 l-2 100 58 7 c108 12 111 42
4 36 l-65 -3 7 69 c4 41 2 79 -4 96 -11 27 -25 35 -36 18z"/>
<path d="M13875 9854 c-89 -22 -95 -29 -86 -97 5 -34 4 -58 -2 -60 -10 -3 -11
-198 -1 -229 5 -16 16 -18 87 -17 107 1 183 11 177 24 -3 6 -53 10 -120 10
l-115 0 -5 47 c-8 62 1 75 55 83 43 7 75 28 57 38 -4 3 -26 2 -48 -3 -63 -15
-65 -14 -60 28 3 20 5 57 5 82 1 46 1 46 46 58 25 7 63 9 84 6 45 -7 65 11 36
33 -23 16 -33 15 -110 -3z"/>
<path d="M14219 9860 c-1 -3 -1 -96 0 -207 1 -126 -3 -204 -9 -208 -40 -25 53
-40 214 -36 120 2 166 11 166 32 0 7 -20 9 -62 4 -91 -9 -197 -10 -240 -2
l-38 8 0 94 0 95 45 -7 c36 -5 45 -3 45 10 0 18 -21 27 -61 27 -29 0 -29 0
-29 63 0 34 -3 71 -6 82 -5 19 1 20 82 23 91 3 108 7 98 23 -6 10 -203 9 -205
-1z"/>
<path d="M10933 9833 c-18 -7 -16 -33 2 -33 17 0 17 10 15 -194 -1 -156 -1
-159 19 -153 12 3 21 1 21 -3 0 -18 33 -40 60 -40 80 0 112 148 39 185 -35 18
-73 4 -95 -34 -13 -24 -14 -13 -12 106 2 121 1 135 -17 152 -11 10 -26 17 -32
14z m157 -282 c27 -52 -6 -119 -54 -107 -18 4 -26 12 -24 24 2 10 -3 16 -10
14 -9 -2 -8 7 4 30 9 18 21 39 26 46 15 18 46 15 58 -7z"/>
<path d="M10366 9804 c-4 -9 -4 -19 -2 -22 10 -9 36 8 36 23 0 20 -26 19 -34
-1z"/>
<path d="M10035 9779 c-4 -6 -11 -79 -14 -163 -4 -83 -11 -158 -16 -165 -12
-20 -54 67 -65 137 -5 30 -14 60 -19 65 -13 13 -31 0 -31 -23 0 -10 -10 -60
-21 -111 -21 -92 -22 -92 -35 -61 -13 32 -38 156 -49 244 -6 49 -20 67 -37 50
-7 -7 -7 -21 0 -44 6 -18 15 -67 21 -108 6 -41 23 -110 37 -153 23 -68 29 -78
47 -75 19 3 23 14 36 86 8 45 17 82 20 82 7 0 61 -124 61 -140 0 -20 32 -6 54
23 17 23 21 49 28 165 4 75 9 150 10 166 3 30 -15 46 -27 25z"/>
<path d="M13041 9685 c-17 -20 -31 -43 -31 -52 0 -11 -6 -8 -21 11 -30 38 -63
34 -94 -11 -15 -21 -25 -31 -24 -23 3 29 -1 40 -16 40 -10 0 -15 -9 -14 -27 1
-16 -1 -62 -6 -104 -5 -56 -4 -79 5 -84 16 -10 26 8 34 61 6 48 36 113 59 133
23 18 47 -12 47 -60 0 -63 28 -48 51 27 10 33 27 68 37 77 17 16 18 13 14 -77
-4 -86 -3 -95 18 -116 29 -29 53 -11 26 19 -16 17 -18 35 -15 118 4 93 3 98
-17 101 -14 2 -32 -9 -53 -33z"/>
<path d="M11338 9663 c-31 -34 -48 -65 -48 -90 0 -39 22 -92 48 -118 25 -26
31 -27 91 -22 65 5 91 21 91 54 0 18 -20 16 -35 -3 -7 -10 -31 -19 -62 -21
-45 -5 -52 -3 -71 22 -12 15 -22 40 -22 55 0 24 5 28 36 33 66 11 90 50 58 95
-21 30 -55 28 -86 -5z m62 -27 c0 -18 -7 -25 -32 -30 -40 -8 -43 -5 -17 27 26
34 49 35 49 3z"/>
<path d="M10168 9651 c-7 -10 -22 -20 -33 -22 -17 -4 -21 -16 -28 -93 -8 -88
-2 -116 22 -102 6 4 11 27 11 52 0 82 45 158 86 148 26 -7 31 5 12 24 -18 18
-55 14 -70 -7z"/>
<path d="M12352 9645 c-17 -8 -32 -19 -32 -25 0 -6 -10 -14 -21 -19 -16 -5
-22 -17 -24 -42 -1 -19 -6 -56 -10 -82 -6 -37 -5 -51 6 -57 21 -13 29 -2 29
39 0 49 26 124 50 146 18 16 30 17 80 4 28 -7 15 25 -15 37 -25 10 -37 10 -63
-1z"/>
<path d="M12489 9627 c-41 -27 -59 -60 -59 -108 0 -51 27 -72 100 -77 42 -3
60 -1 60 7 0 7 5 9 10 6 6 -3 10 1 10 9 0 12 -10 13 -53 9 -57 -6 -97 7 -97
32 0 8 9 15 20 15 45 0 100 44 100 79 0 13 -36 51 -49 51 -4 0 -23 -10 -42
-23z m56 -26 c3 -5 -7 -19 -21 -30 -47 -37 -74 -21 -34 19 21 21 45 26 55 11z"/>
<path d="M10661 9604 c-23 -29 -28 -83 -11 -115 13 -23 53 -25 92 -5 25 13 28
13 33 -5 6 -18 52 -49 75 -49 5 0 10 7 10 15 0 8 -6 15 -13 15 -29 0 -52 41
-52 94 0 44 -3 51 -19 49 -11 -1 -25 5 -33 13 -23 22 -59 17 -82 -12z m72 -16
c32 -16 34 -27 6 -62 -41 -52 -91 -7 -59 54 13 23 17 24 53 8z"/>
<path d="M12655 9605 c-46 -45 -26 -135 30 -135 10 0 27 7 37 17 11 10 18 12
18 4 0 -16 46 -61 62 -61 8 0 14 9 15 19 1 13 -3 18 -12 15 -23 -9 -38 34 -31
90 5 48 4 52 -21 64 -41 18 -71 15 -98 -13z m74 -14 c12 -8 12 -14 2 -40 -18
-43 -37 -57 -56 -41 -20 16 -19 54 1 74 17 18 32 20 53 7z"/>
<path d="M10339 9593 c-6 -16 -11 -57 -12 -93 -2 -52 1 -65 13 -65 11 0 14 9
12 32 -2 17 3 56 11 87 8 30 12 57 9 60 -12 12 -23 5 -33 -21z"/>
<path d="M7703 9170 c-13 -5 -23 -14 -23 -20 0 -6 -20 -30 -45 -53 -25 -24
-45 -48 -45 -55 0 -8 17 -12 45 -12 l45 0 1 -42 c2 -70 12 -93 39 -93 16 0 26
7 28 19 3 13 0 17 -11 13 -16 -6 -27 29 -27 84 0 24 4 29 26 29 31 0 28 23 -4
28 -30 5 -31 57 -2 72 22 12 27 40 8 39 -7 0 -23 -4 -35 -9z m-23 -95 c0 -8
-7 -15 -16 -15 -14 0 -14 3 -4 15 7 8 14 15 16 15 2 0 4 -7 4 -15z"/>
<path d="M5045 9148 c-68 -10 -135 -29 -135 -39 0 -17 21 -19 76 -4 58 15 205
21 217 9 4 -4 3 -12 -1 -18 -4 -6 -7 -78 -7 -161 0 -82 -3 -214 -7 -292 -4
-78 -4 -144 0 -147 18 -11 31 12 29 49 -1 22 0 73 1 113 2 68 4 73 28 83 20 7
32 6 50 -6 38 -25 76 -110 80 -179 2 -42 7 -61 16 -61 9 0 13 17 12 60 -1 68
-32 150 -70 186 l-24 22 69 39 c86 47 111 77 111 133 0 53 -52 125 -112 156
-89 45 -238 71 -333 57z m250 -57 c89 -24 165 -96 165 -156 0 -22 -9 -40 -32
-62 -38 -36 -147 -92 -165 -86 -7 3 -13 -1 -13 -8 0 -8 -3 -9 -9 -3 -5 5 -11
82 -14 172 -3 145 -2 162 12 158 9 -3 34 -10 56 -15z"/>
<path d="M7198 9153 c-52 -3 -68 -7 -68 -19 0 -12 19 -14 116 -12 85 2 117 -1
123 -11 11 -17 25 -203 26 -331 0 -154 -14 -653 -20 -658 -2 -2 -39 -7 -82
-11 -60 -5 -78 -9 -78 -21 0 -9 8 -14 20 -13 11 1 56 3 100 4 l80 2 5 286 c9
492 1 733 -24 766 -13 16 -98 24 -198 18z"/>
<path d="M3766 9124 c-14 -15 -26 -34 -26 -43 0 -28 47 -117 113 -219 86 -130
97 -153 97 -205 0 -61 -18 -82 -64 -74 -78 13 -136 89 -136 180 0 35 -4 47
-15 47 -25 0 -20 -97 8 -150 33 -65 85 -102 151 -108 53 -4 55 -4 72 29 23 45
21 115 -5 167 -12 23 -49 83 -82 133 -34 50 -73 116 -87 147 l-25 55 23 19
c12 10 32 18 44 18 23 0 66 -38 66 -58 0 -7 7 -12 15 -12 24 0 17 36 -14 69
-39 41 -96 43 -135 5z"/>
<path d="M1546 9022 l-30 -18 3 -114 c1 -63 7 -146 12 -185 6 -38 10 -158 9
-265 -1 -107 1 -225 5 -261 l8 -67 49 -16 c28 -9 70 -16 93 -16 35 0 45 4 50
21 8 25 -3 39 -15 20 -10 -17 -97 -10 -128 10 -26 16 -31 68 -35 339 -2 118
-7 283 -11 367 l-9 152 29 11 c16 7 48 9 72 5 23 -3 42 -2 42 2 0 36 -95 45
-144 15z"/>
<path d="M2533 8818 c1 -73 0 -158 -3 -188 -6 -69 16 -77 36 -12 14 49 36 77
76 98 l28 15 0 -76 c0 -80 13 -101 45 -75 15 13 10 35 -6 25 -5 -4 -9 23 -9
63 0 83 -13 101 -59 82 -16 -6 -38 -21 -48 -32 -18 -20 -18 -17 -28 103 -6 76
-14 124 -22 126 -8 3 -11 -32 -10 -129z"/>
<path d="M2836 8931 c-3 -5 -2 -21 4 -36 5 -14 10 -55 10 -91 0 -69 -1 -70
-64 -65 -20 2 -27 -1 -24 -11 3 -7 23 -14 46 -16 l42 -3 0 -65 c0 -50 3 -64
15 -64 12 0 15 15 16 73 2 121 -2 226 -10 254 -8 28 -25 41 -35 24z"/>
<path d="M3020 8896 c0 -24 -3 -63 -6 -88 -6 -42 -9 -46 -43 -54 -43 -11 -39
-30 7 -27 30 2 32 0 33 -30 2 -91 4 -102 19 -102 12 0 14 13 12 72 l-4 72 46
3 c59 4 60 22 2 26 l-45 3 6 50 c4 33 2 49 -6 49 -8 0 -8 5 0 19 13 20 6 51
-11 51 -5 0 -10 -20 -10 -44z"/>
<path d="M4267 8760 c-30 -35 -40 -75 -35 -145 2 -36 7 -50 18 -50 12 0 15 15
15 71 0 89 21 128 66 122 23 -4 29 -1 27 11 -2 10 -16 17 -34 19 -25 2 -37 -3
-57 -28z"/>
<path d="M6702 8767 c-12 -13 -22 -34 -22 -46 0 -26 28 -91 40 -91 7 0 30 -45
30 -60 0 -17 -22 -11 -56 15 -21 16 -35 21 -39 14 -9 -14 23 -49 60 -64 62
-27 86 27 42 94 -53 82 -58 99 -31 122 13 11 17 10 25 -4 13 -22 29 -22 29 1
0 44 -45 55 -78 19z"/>
<path d="M4059 8770 c-8 -5 -24 -27 -34 -50 -34 -75 10 -151 95 -165 50 -8 64
-1 47 26 -9 16 -19 19 -41 15 -22 -5 -36 -1 -53 16 -28 26 -30 38 -4 31 28 -7
80 24 87 51 9 39 -16 81 -51 83 -17 2 -37 -1 -46 -7z m61 -41 c20 -36 -21 -64
-59 -40 -12 8 -12 13 3 35 20 31 41 33 56 5z"/>
<path d="M4847 8755 c-42 -29 -42 -34 -23 -143 14 -79 19 -88 37 -77 11 8 8
69 -7 152 -5 26 -2 34 21 49 23 15 31 16 59 5 79 -33 108 -18 36 19 -52 26
-78 25 -123 -5z"/>
<path d="M3218 8748 c-16 -5 -28 -13 -28 -18 0 -5 -8 -10 -17 -12 -12 -2 -19
-13 -20 -33 -8 -157 -15 -252 -18 -262 -4 -13 14 -22 33 -16 8 3 12 25 12 62
0 57 0 58 29 58 42 0 80 28 102 76 49 108 2 180 -93 145z m78 -45 c15 -59 -40
-148 -88 -141 -21 3 -23 7 -20 53 4 69 18 100 50 111 35 14 51 7 58 -23z"/>
<path d="M4480 8734 c-6 -14 -10 -49 -11 -77 0 -29 -4 -61 -8 -72 -7 -18 -9
-18 -23 10 -8 17 -21 48 -28 70 -15 49 -26 63 -40 49 -12 -12 40 -154 62 -168
39 -24 68 21 68 107 0 71 9 81 58 74 27 -5 43 -3 51 6 17 21 3 27 -61 27 -54
0 -59 -2 -68 -26z"/>
<path d="M5997 8749 c-30 -17 -9 -28 42 -22 43 5 50 3 65 -18 9 -13 16 -33 16
-44 0 -32 -28 -65 -55 -65 -33 0 -79 44 -72 69 5 22 -21 38 -29 18 -2 -7 -3
-82 -2 -167 3 -130 5 -155 18 -155 13 0 14 18 11 113 l-3 112 26 -10 c41 -15
81 -12 107 9 20 16 24 28 24 76 0 48 -4 60 -24 76 -26 21 -94 25 -124 8z"/>
<path d="M6492 8748 c-7 -7 -20 -13 -30 -13 -13 0 -17 -9 -18 -40 -1 -22 -2
-44 -4 -50 -7 -29 1 -55 19 -55 15 0 19 10 24 57 3 31 12 63 20 70 13 13 17
12 37 -9 19 -20 21 -32 18 -93 -2 -57 0 -70 12 -70 8 0 15 7 16 15 0 8 3 32 7
52 16 81 -57 180 -101 136z"/>
<path d="M6895 8729 c-50 -44 -64 -96 -40 -150 22 -47 47 -63 95 -60 37 2 80
25 80 41 0 13 -37 13 -45 0 -3 -5 -22 -10 -41 -10 -28 0 -38 6 -54 33 -27 43
-25 47 13 40 48 -7 87 26 87 77 0 29 -5 42 -19 50 -29 15 -37 13 -76 -21z m65
-34 c0 -26 -32 -50 -56 -41 -21 8 -17 31 9 49 32 23 47 20 47 -8z"/>
<path d="M4675 8736 c-36 -16 -80 -62 -93 -97 -15 -38 16 -102 57 -119 39 -16
117 -7 143 17 22 20 8 43 -15 25 -8 -7 -35 -15 -60 -18 -40 -6 -48 -3 -71 19
-35 35 -34 55 3 49 21 -3 37 4 64 28 45 39 54 65 31 91 -20 22 -20 22 -59 5z
m33 -42 c-5 -26 -53 -58 -75 -50 -16 7 -14 11 15 37 36 32 65 38 60 13z"/>
<path d="M5801 8726 c-19 -6 -39 -19 -45 -29 -9 -16 -4 -24 32 -56 23 -20 42
-44 42 -54 0 -20 -4 -21 -47 -5 -37 13 -52 6 -33 -16 20 -25 78 -31 100 -11
29 26 25 44 -22 88 -39 37 -40 41 -23 53 12 9 23 10 35 4 10 -5 20 -6 24 -3
24 24 -19 44 -63 29z"/>
<path d="M6236 8717 c-26 -19 -34 -118 -11 -140 23 -24 53 -21 92 9 50 38 66
66 54 97 -10 26 -20 31 -81 41 -23 4 -43 1 -54 -7z m102 -53 c4 -25 -52 -77
-76 -72 -21 4 -31 47 -18 76 8 19 16 23 50 20 33 -2 42 -7 44 -24z"/>
<path d="M5525 8690 c-24 -47 -20 -116 10 -145 28 -29 63 -32 110 -9 36 17 51
42 36 57 -7 7 -19 1 -37 -16 -30 -30 -65 -35 -88 -11 -23 22 -20 33 11 45 85
32 84 109 -1 109 -18 0 -30 -9 -41 -30z m72 -17 c5 -13 -43 -40 -53 -30 -3 3
0 15 6 27 12 22 40 24 47 3z"/>
<path d="M3413 8593 c-20 -7 -15 -33 6 -33 11 0 22 4 25 9 8 12 -16 29 -31 24z"/>
<path d="M5940 7879 c0 -12 -26 -70 -57 -128 -56 -104 -248 -475 -374 -721
-35 -68 -71 -130 -79 -137 -13 -10 -13 -12 3 -19 10 -3 22 -3 27 2 8 9 68 123
247 474 52 102 128 246 169 322 41 75 74 141 74 148 0 6 7 18 15 27 20 19 15
47 -8 51 -12 2 -17 -3 -17 -19z"/>
<path d="M3949 7667 c-67 -45 -46 -150 48 -239 62 -59 83 -99 83 -157 0 -83
-33 -119 -89 -100 -36 13 -103 93 -94 115 3 9 -1 14 -11 14 -41 0 -29 -45 30
-110 93 -102 194 -60 194 81 0 69 -29 127 -87 175 -49 40 -82 101 -83 150 0
25 6 34 33 49 39 21 72 10 87 -31 12 -32 30 -31 30 1 0 33 -45 75 -80 75 -15
0 -42 -10 -61 -23z"/>
<path d="M4235 7680 c-8 -14 -7 -213 2 -236 5 -13 -1 -15 -38 -13 -34 3 -44 0
-44 -11 0 -10 13 -16 42 -18 l42 -3 3 -91 c2 -62 7 -93 16 -96 9 -3 12 20 12
92 0 105 -3 101 74 108 16 2 31 9 34 16 3 11 -8 13 -51 10 l-56 -3 -6 34 c-4
19 -5 75 -4 125 2 59 -1 91 -8 93 -6 2 -14 -1 -18 -7z"/>
<path d="M6896 7578 c-3 -35 -8 -131 -11 -215 -5 -130 -3 -153 11 -167 18 -18
30 -20 39 -6 3 6 23 10 43 10 57 1 301 45 313 57 21 21 -7 20 -146 -3 -77 -13
-161 -23 -187 -24 -46 0 -48 1 -48 29 0 15 3 48 6 72 l6 45 67 -3 c79 -3 98 5
82 36 -14 25 -24 26 -46 5 -12 -12 -26 -15 -60 -9 l-45 6 0 64 c0 67 6 77 49
81 40 3 162 24 201 33 19 5 47 12 63 15 15 4 27 13 27 22 0 12 -6 15 -22 10
-22 -7 -286 -56 -300 -56 -4 0 -8 12 -10 27 -2 14 -8 28 -15 30 -7 3 -13 -17
-17 -59z"/>
<path d="M2727 7614 c-4 -4 -7 -45 -7 -90 0 -78 -1 -83 -22 -86 -30 -4 -31
-34 -1 -31 25 3 35 -20 33 -70 -3 -55 0 -67 16 -67 13 0 15 12 12 75 l-3 76
30 -3 c21 -2 30 1 30 12 0 10 -12 16 -33 18 l-34 3 3 81 c3 76 -4 101 -24 82z"/>
<path d="M3079 7603 c-4 -54 4 -369 10 -373 5 -3 16 -19 24 -37 33 -63 98 -56
128 12 36 82 2 196 -54 180 -28 -8 -69 -56 -62 -72 2 -7 0 -13 -6 -13 -5 0 -9
28 -8 68 5 167 0 242 -16 242 -8 0 -15 -3 -16 -7z m145 -329 c0 -42 -5 -59
-21 -76 -28 -27 -50 -18 -69 28 -18 43 -13 63 27 105 28 30 31 31 47 15 12
-12 17 -33 16 -72z"/>
<path d="M3330 7580 c-7 -13 -7 -60 0 -152 5 -73 10 -142 10 -154 0 -27 24
-59 38 -50 8 4 8 14 2 29 -15 34 -30 300 -18 314 10 13 3 33 -12 33 -5 0 -14
-9 -20 -20z"/>
<path d="M6660 7586 c0 -16 -38 -32 -100 -42 -25 -3 -48 -12 -52 -18 -6 -8 -8
-8 -8 0 0 7 -11 9 -25 6 -15 -2 -25 0 -25 7 0 6 -7 11 -16 11 -13 0 -15 -7
-10 -34 4 -18 1 -76 -5 -127 -6 -52 -12 -107 -13 -124 -1 -16 -5 -36 -9 -42
-5 -7 -6 -16 -3 -21 6 -11 279 -13 296 -2 8 5 12 11 10 13 -3 3 -58 7 -123 10
-65 4 -122 9 -127 12 -11 7 -13 68 -4 102 5 17 18 23 68 32 35 6 77 11 95 11
43 0 36 24 -8 28 -25 3 -31 0 -25 -10 6 -11 5 -11 -8 0 -12 10 -27 10 -63 2
-26 -6 -49 -9 -50 -8 -2 2 -1 26 2 55 l5 51 67 11 c154 26 189 42 161 76 -16
19 -30 19 -30 1z"/>
<path d="M6123 7566 c-126 -10 -182 -24 -156 -39 4 -2 74 0 156 6 132 9 147
12 147 29 0 10 -1 17 -2 16 -2 0 -67 -6 -145 -12z"/>
<path d="M6281 7564 c0 -11 3 -14 6 -6 3 7 2 16 -1 19 -3 4 -6 -2 -5 -13z"/>
<path d="M1989 7502 c-35 -21 -85 -51 -111 -65 -53 -31 -65 -45 -45 -52 7 -3
59 22 115 56 57 34 105 60 107 57 3 -2 -13 -52 -35 -111 -22 -58 -40 -117 -40
-131 0 -40 34 -33 71 14 18 22 36 40 40 40 4 0 21 -13 37 -29 54 -55 141 -51
163 6 21 51 4 212 -23 229 -18 11 -33 -13 -18 -30 6 -9 14 -53 17 -98 5 -75 3
-85 -15 -101 -15 -14 -29 -17 -51 -12 -17 4 -34 6 -38 5 -3 -1 -15 14 -25 34
-10 20 -26 36 -35 36 -9 0 -33 -18 -55 -40 -21 -23 -38 -39 -38 -36 0 2 21 57
46 121 25 64 43 123 40 131 -9 23 -39 16 -107 -24z"/>
<path d="M2550 7525 c-10 -12 -9 -16 5 -21 23 -9 40 10 22 25 -11 9 -17 8 -27
-4z"/>
<path d="M6045 7460 c-4 -28 -5 -90 -3 -137 l3 -86 -50 -15 c-40 -11 -57 -12
-82 -2 -35 12 -53 7 -53 -14 0 -23 75 -28 161 -10 65 13 85 14 110 4 16 -7 33
-9 37 -5 11 11 -37 45 -63 45 -21 0 -25 6 -31 46 -4 26 -4 87 0 135 6 74 4 89
-8 89 -9 0 -16 -16 -21 -50z"/>
<path d="M3493 7428 c-40 -44 -55 -87 -48 -136 9 -63 49 -102 105 -102 41 0
120 33 120 50 0 19 -20 20 -52 0 -63 -38 -121 -22 -138 38 -14 52 -14 52 28
52 42 0 51 5 75 40 21 31 22 66 1 74 -32 12 -71 6 -91 -16z m77 -16 c0 -16
-41 -52 -60 -52 -25 0 -25 15 0 40 20 20 60 28 60 12z"/>
<path d="M4433 7418 c-39 -48 -58 -173 -29 -197 19 -16 24 -5 24 59 0 80 14
110 52 110 20 0 30 5 30 15 0 8 -9 15 -19 15 -11 0 -26 2 -34 5 -7 3 -19 0
-24 -7z"/>
<path d="M5056 7408 c-7 -13 -18 -32 -24 -43 -10 -17 -11 -18 -12 -2 0 9 -7
17 -15 17 -12 0 -15 -17 -15 -91 0 -111 13 -113 46 -8 13 41 31 83 39 94 15
19 16 16 12 -45 -2 -36 -2 -71 0 -77 9 -26 32 -11 61 40 16 29 37 59 46 66 14
12 15 7 9 -52 -5 -61 -4 -67 21 -92 19 -19 32 -24 49 -20 36 11 67 34 67 50 0
19 -10 19 -34 0 -11 -8 -30 -15 -43 -15 -30 0 -37 31 -26 109 6 33 6 65 3 72
-13 20 -49 -1 -82 -48 l-33 -46 -3 44 c-5 68 -38 91 -66 47z"/>
<path d="M2410 7407 c-32 -16 -50 -52 -50 -99 0 -27 4 -38 15 -38 10 0 16 16
21 50 7 52 16 65 49 72 22 4 24 21 3 25 -7 2 -24 -3 -38 -10z"/>
<path d="M4583 7385 c-33 -33 -35 -38 -28 -83 15 -106 82 -147 154 -93 17 13
22 24 17 36 -6 17 -8 17 -29 -4 -32 -29 -72 -27 -93 4 -17 26 -12 45 11 45 23
0 55 41 55 70 0 25 -26 60 -44 60 -5 0 -24 -16 -43 -35z m57 -23 c0 -23 -19
-42 -42 -42 -22 0 -23 9 -2 38 18 27 44 29 44 4z"/>
<path d="M2871 7374 c-45 -58 -38 -112 15 -106 16 2 34 8 41 14 9 7 14 2 19
-19 9 -37 22 -53 45 -53 23 0 24 8 3 32 -16 17 -18 32 -12 108 2 29 -1 35 -17
37 -11 1 -32 5 -46 9 -21 5 -31 0 -48 -22z m60 -12 c24 -10 7 -48 -26 -56 -36
-9 -40 -4 -20 33 16 32 20 34 46 23z"/>
<path d="M4797 7372 c-65 -68 -4 -197 65 -135 17 15 18 15 18 -11 0 -38 17
-66 40 -66 13 0 20 7 20 20 0 11 -7 20 -15 20 -15 0 -19 33 -15 144 1 45 0 48
-19 43 -12 -3 -24 -1 -27 4 -10 17 -40 9 -67 -19z m66 -24 c12 -17 4 -55 -16
-83 -13 -16 -17 -17 -31 -6 -21 18 -21 69 1 93 18 21 32 20 46 -4z"/>
<path d="M2542 7313 c4 -81 28 -85 28 -4 0 48 -3 61 -15 61 -13 0 -15 -11 -13
-57z"/>
<path d="M13516 6829 c-5 -13 -47 -356 -50 -403 0 -10 4 -21 11 -23 13 -5 25
26 28 77 1 19 10 104 20 188 13 112 15 156 7 164 -8 8 -13 8 -16 -3z"/>
<path d="M4605 6821 c-33 -14 -77 -63 -98 -111 -16 -34 -21 -67 -21 -137 -1
-79 -3 -93 -18 -97 -10 -2 -18 -12 -18 -21 0 -11 6 -15 18 -11 15 5 20 -7 36
-94 12 -71 22 -100 32 -100 18 0 18 3 -2 111 -9 49 -14 92 -11 95 3 4 35 9 71
11 71 6 85 21 41 41 -31 14 -38 15 -31 3 3 -5 -13 -11 -37 -14 -27 -4 -44 -2
-49 6 -12 19 0 152 18 196 9 22 32 55 51 71 28 25 41 30 64 25 22 -5 29 -3 29
8 0 25 -37 33 -75 18z"/>
<path d="M9512 6743 c2 -58 7 -88 16 -91 9 -3 12 13 12 56 0 39 -5 62 -12 66
-10 5 -10 7 0 12 17 8 15 44 -3 44 -13 0 -15 -14 -13 -87z"/>
<path d="M7140 6791 c-42 -41 -45 -68 -20 -181 12 -56 20 -103 17 -106 -2 -2
-34 -7 -71 -11 -49 -4 -66 -10 -66 -21 0 -12 12 -14 71 -10 l71 5 -3 -111 c-3
-99 -2 -111 14 -114 15 -3 17 7 19 85 1 48 1 103 0 122 -2 33 -1 34 32 28 19
-3 37 -3 40 0 11 12 -17 33 -44 33 -26 0 -27 3 -49 105 -22 101 -22 106 -5
134 18 31 44 49 44 31 0 -6 7 -10 15 -10 18 0 20 21 3 38 -19 19 -37 14 -68
-17z"/>
<path d="M3510 6771 c-14 -28 -13 -77 6 -167 19 -89 14 -151 -16 -200 -26 -41
-55 -52 -81 -28 -39 35 -11 104 42 104 24 0 30 4 27 18 -5 27 -58 16 -90 -19
-54 -58 -27 -140 47 -143 34 -1 42 4 71 41 42 55 51 114 33 213 -15 84 -17
156 -5 183 12 25 -20 23 -34 -2z"/>
<path d="M4085 6780 c-3 -5 -1 -27 4 -47 6 -21 11 -77 11 -125 l0 -87 -35 -7
c-46 -8 -39 -30 9 -27 l36 2 0 -72 c0 -84 7 -117 25 -117 10 0 12 22 8 100
l-6 100 47 0 c34 0 46 4 46 15 0 11 -12 15 -50 15 l-50 0 0 88 c0 113 -23 197
-45 162z"/>
<path d="M9019 6749 c-22 -22 -21 -42 7 -186 19 -95 20 -181 3 -198 -13 -13
-39 -19 -66 -16 -16 1 -17 35 -2 62 7 14 16 18 30 14 21 -7 28 18 8 30 -34 22
-79 -26 -79 -84 0 -44 28 -62 81 -53 37 6 47 13 61 42 23 45 22 66 -2 185 -11
53 -20 117 -20 142 0 36 4 46 20 50 24 6 26 19 4 27 -22 8 -22 8 -45 -15z"/>
<path d="M5507 6650 c6 -87 11 -81 -64 -100 -24 -6 -43 -15 -43 -20 0 -13 45
-13 88 -1 l32 10 1 -107 c1 -59 1 -111 0 -115 -1 -5 4 -7 11 -5 17 6 24 59 18
140 -6 83 -5 86 25 80 36 -6 32 17 -5 31 -29 11 -30 14 -30 73 0 70 -6 94 -25
94 -10 0 -12 -18 -8 -80z"/>
<path d="M2490 6708 c1 -7 9 -38 20 -68 36 -103 20 -209 -42 -275 l-29 -30
-19 24 c-35 41 -25 93 22 117 16 8 26 19 23 24 -11 18 -36 10 -66 -19 -33 -34
-39 -83 -14 -130 25 -49 60 -53 100 -13 46 44 75 118 75 188 0 74 -34 194 -55
194 -8 0 -15 -6 -15 -12z"/>
<path d="M5637 6593 c4 -71 8 -163 7 -205 0 -55 3 -78 12 -78 15 0 24 33 24
91 0 57 32 94 73 84 31 -8 39 -29 37 -93 -2 -68 -2 -72 15 -72 21 0 21 137 0
167 -21 30 -78 40 -110 19 l-25 -16 0 68 c0 37 -4 72 -10 78 -6 6 -6 21 -1 41
10 34 6 43 -17 43 -12 0 -13 -20 -5 -127z"/>
<path d="M12880 6707 c0 -6 13 -53 30 -102 43 -131 38 -178 -20 -197 -49 -17
-72 62 -24 84 21 10 27 9 34 -2 7 -12 12 -12 22 -2 15 15 0 45 -24 50 -22 4
-81 -40 -90 -69 -27 -82 71 -128 136 -63 36 37 37 68 3 178 -16 56 -30 109
-29 119 0 10 -6 17 -19 17 -10 0 -19 -6 -19 -13z"/>
<path d="M3244 6688 c-8 -12 24 -40 40 -35 20 7 16 24 -8 35 -19 8 -27 8 -32
0z"/>
<path d="M4300 6676 c0 -8 4 -17 9 -20 11 -7 33 18 24 27 -12 12 -33 7 -33 -7z"/>
<path d="M9510 6506 c0 -127 2 -147 19 -167 24 -29 38 -18 23 16 -7 16 -12 78
-12 154 0 105 -3 130 -15 135 -13 5 -15 -15 -15 -138z"/>
<path d="M7322 6614 c4 -21 22 -23 26 -1 2 10 -3 17 -13 17 -10 0 -15 -6 -13
-16z"/>
<path d="M11779 6617 c-24 -18 -59 -79 -59 -102 0 -18 -1 -18 -16 4 -27 38
-37 10 -15 -40 12 -24 21 -52 21 -61 0 -10 6 -18 14 -18 9 0 15 19 19 60 4 33
14 74 22 91 17 33 46 50 53 31 5 -16 32 -15 32 1 0 15 -31 47 -46 47 -5 0 -16
-6 -25 -13z"/>
<path d="M9929 6552 c-39 -35 -34 -61 17 -92 59 -37 83 -97 52 -129 -11 -10
-20 -3 -50 31 -33 37 -37 40 -38 21 0 -28 56 -93 80 -93 26 0 50 38 50 79 0
42 -30 89 -77 119 -38 26 -35 38 14 58 18 8 31 19 28 24 -11 18 -44 10 -76
-18z"/>
<path d="M10562 6548 c4 -46 28 -49 28 -4 0 26 -4 36 -16 36 -11 0 -14 -8 -12
-32z"/>
<path d="M3670 6559 c-38 -14 -60 -58 -60 -122 0 -46 5 -61 27 -87 26 -31 29
-32 81 -27 50 5 94 28 81 42 -3 2 -31 -1 -63 -7 -56 -12 -59 -12 -77 11 -23
29 -26 76 -4 67 23 -8 62 10 80 37 12 19 13 30 5 53 -10 26 -27 45 -40 43 -3
0 -16 -5 -30 -10z m40 -54 c0 -29 -22 -42 -51 -29 -18 8 -18 11 -4 32 23 31
55 29 55 -3z"/>
<path d="M9678 6540 c-28 -28 -30 -34 -23 -78 11 -76 30 -111 69 -127 65 -27
116 -15 116 27 0 22 -4 22 -35 2 -35 -23 -90 -4 -104 37 -8 23 -7 29 4 29 23
0 75 51 75 74 0 31 -27 66 -51 66 -11 0 -34 -14 -51 -30z m67 -27 c4 -12 -1
-24 -16 -36 -28 -22 -45 -17 -41 14 4 38 44 54 57 22z"/>
<path d="M9205 6533 c-15 -72 -29 -111 -53 -150 -15 -24 -30 -43 -34 -43 -5 0
-8 -7 -8 -15 0 -35 35 -12 76 50 12 18 20 23 27 16 13 -13 57 -14 77 -1 11 7
18 2 30 -23 11 -23 22 -32 40 -32 16 0 25 6 25 15 0 9 -7 14 -17 12 -20 -3
-32 43 -26 99 4 47 -17 44 -45 -6 -15 -26 -31 -41 -46 -43 -23 -4 -23 -3 -16
72 6 65 5 76 -9 76 -9 0 -18 -12 -21 -27z"/>
<path d="M12405 6542 c-50 -31 -59 -51 -56 -120 3 -56 77 -88 145 -62 45 17
31 31 -24 24 -41 -5 -54 -3 -70 11 -32 29 -26 78 11 110 18 14 38 24 46 21 20
-8 33 2 26 19 -7 20 -42 19 -78 -3z"/>
<path d="M3840 6548 c-1 -2 -2 -47 -4 -100 -3 -74 0 -98 9 -98 7 0 16 17 20
37 8 46 37 103 42 85 3 -6 10 -9 15 -6 7 4 8 2 4 -4 -11 -18 11 -87 34 -107
16 -15 23 -16 33 -6 9 10 8 14 -5 22 -9 5 -24 33 -32 63 -19 65 -39 85 -67 68
-17 -11 -19 -9 -19 18 0 20 -5 30 -15 30 -8 0 -15 -1 -15 -2z"/>
<path d="M11270 6531 c0 -10 -7 -21 -15 -25 -8 -3 -22 -21 -31 -40 -34 -70 9
-120 84 -98 21 7 47 21 56 31 26 29 13 93 -26 126 -36 30 -68 33 -68 6z m68
-63 c16 -34 7 -54 -30 -67 -34 -12 -68 0 -68 25 0 21 57 77 73 72 6 -3 18 -16
25 -30z"/>
<path d="M8378 6445 c-1 -52 -2 -102 -2 -112 -1 -9 4 -18 10 -20 12 -4 29 52
39 127 6 43 19 70 36 70 9 0 28 -60 31 -104 5 -51 26 -41 56 24 27 61 28 61
45 42 11 -11 21 -40 24 -64 3 -24 10 -49 16 -55 17 -22 29 -14 23 15 -2 15 -7
43 -11 63 -6 39 -45 89 -69 89 -8 0 -23 -14 -34 -31 l-19 -31 -19 38 c-20 41
-53 55 -79 34 -9 -7 -15 -8 -20 0 -17 27 -25 2 -27 -85z"/>
<path d="M8765 6518 c-6 -13 -16 -22 -22 -21 -7 2 -21 -9 -32 -24 -23 -28 -28
-82 -11 -113 11 -21 67 -35 99 -25 64 20 81 96 32 138 -16 13 -31 32 -32 42
-6 27 -23 28 -34 3z m30 -62 c44 -19 48 -57 9 -82 -53 -36 -105 17 -74 76 13
24 20 25 65 6z"/>
<path d="M11570 6533 c0 -5 7 -17 15 -27 35 -46 5 -102 -49 -92 -38 8 -46 20
-46 74 0 31 -4 42 -15 42 -11 0 -15 -13 -15 -53 0 -64 18 -86 78 -94 34 -5 45
-1 66 20 30 30 35 80 10 115 -14 21 -44 31 -44 15z"/>
<path d="M12633 6522 c-47 -37 -49 -107 -4 -131 27 -15 84 -14 99 1 7 7 12 31
12 55 0 32 -5 46 -20 55 -11 7 -20 18 -20 25 0 19 -41 15 -67 -5z m77 -83 c0
-25 -4 -29 -28 -29 -33 0 -52 16 -52 45 0 35 18 45 51 28 22 -11 29 -21 29
-44z"/>
<path d="M1971 6514 c-28 -20 -51 -72 -51 -117 0 -60 55 -85 91 -41 11 14 15
13 30 -8 14 -18 20 -21 30 -10 10 9 10 15 1 24 -7 7 -12 39 -12 74 0 37 -5 65
-12 72 -26 20 -54 22 -77 6z m54 -34 c18 -30 -32 -124 -60 -113 -20 7 -19 47
1 89 16 33 46 45 59 24z"/>
<path d="M3230 6505 c-13 -34 -9 -134 5 -138 13 -3 27 145 15 157 -6 6 -14 -2
-20 -19z"/>
<path d="M6176 6509 c-35 -28 -33 -53 10 -85 36 -28 64 -71 64 -98 0 -25 -27
-7 -45 30 -19 40 -35 44 -35 10 0 -38 47 -88 79 -84 19 2 27 10 29 27 6 41 -8
71 -55 122 -38 41 -43 50 -29 55 10 4 22 2 29 -5 17 -17 27 -13 27 9 0 10 -9
24 -19 30 -25 13 -24 13 -55 -11z"/>
<path d="M6357 6515 c-26 -19 -28 -72 -5 -122 20 -44 42 -63 96 -81 30 -10 35
-9 65 18 26 24 30 31 19 42 -11 11 -16 9 -31 -11 -15 -19 -23 -22 -49 -16 -29
6 -82 55 -82 75 0 4 9 6 19 3 25 -6 58 12 66 36 3 10 1 30 -4 45 -9 21 -17 26
-43 26 -18 0 -41 -7 -51 -15z m63 -34 c0 -27 -19 -36 -37 -18 -18 18 -9 37 18
37 12 0 19 -7 19 -19z"/>
<path d="M7630 6511 c-9 -18 -17 -20 -52 -15 -54 9 -68 -10 -69 -90 l-1 -61
-30 63 c-16 34 -36 62 -44 62 -20 0 -18 -13 17 -83 43 -85 69 -121 81 -109 5
5 9 43 9 83 -1 100 3 110 39 102 42 -8 92 14 88 40 -4 28 -24 32 -38 8z"/>
<path d="M13090 6510 c-30 -30 -28 -110 3 -146 22 -26 26 -26 90 -20 51 6 67
11 67 23 0 13 -10 15 -65 9 -58 -6 -65 -5 -75 15 -7 11 -10 22 -8 23 2 1 15 7
31 14 33 14 51 55 37 83 -14 25 -54 25 -80 -1z m50 -30 c0 -11 -2 -20 -4 -20
-2 0 -11 -3 -20 -6 -19 -7 -22 16 -4 34 18 18 28 15 28 -8z"/>
<path d="M5950 6513 c-28 -10 -40 -37 -40 -91 0 -50 3 -58 39 -93 37 -37 55
-44 111 -39 22 2 39 15 40 31 0 3 -22 4 -50 1 -45 -4 -52 -1 -81 27 -36 36
-34 52 8 63 43 11 56 30 44 61 -8 21 -40 49 -53 46 -2 0 -10 -3 -18 -6z m35
-53 c0 -8 -10 -16 -22 -18 -22 -3 -32 16 -16 32 12 11 38 2 38 -14z"/>
<path d="M7752 6485 c-40 -33 -56 -97 -36 -137 33 -65 128 -88 184 -46 30 22
40 48 19 48 -6 0 -22 -9 -36 -20 -30 -24 -63 -25 -102 -5 -38 19 -48 45 -18
45 30 0 64 25 81 58 15 30 11 51 -12 70 -24 18 -47 15 -80 -13z m65 -22 c4
-10 -3 -24 -21 -40 -25 -21 -56 -31 -56 -17 0 12 24 50 39 61 22 17 31 16 38
-4z"/>
<path d="M2202 6484 c-12 -8 -22 -10 -22 -5 0 6 -7 11 -15 11 -11 0 -15 -11
-15 -40 0 -22 -6 -49 -12 -60 -10 -16 -10 -22 1 -32 9 -9 15 -10 18 -2 12 33
65 104 73 99 6 -3 10 -23 10 -43 0 -41 13 -68 28 -58 13 8 3 96 -14 124 -17
26 -23 27 -52 6z"/>
<path d="M4302 6408 c3 -60 6 -73 21 -76 13 -3 17 3 17 26 0 63 -13 122 -26
122 -11 0 -14 -16 -12 -72z"/>
<path d="M4871 6458 c-5 -13 -25 -59 -45 -103 l-37 -79 -20 29 c-11 17 -31 51
-45 78 -24 46 -37 56 -48 38 -8 -13 52 -118 80 -140 l25 -19 -44 -84 c-50 -95
-82 -182 -72 -198 10 -16 23 -3 35 38 7 20 54 123 105 227 107 219 113 235 90
235 -8 0 -19 -10 -24 -22z"/>
<path d="M10695 6460 c-4 -6 -14 -9 -23 -8 -15 3 -17 -9 -20 -76 -2 -48 1 -83
8 -90 17 -17 30 12 30 65 0 43 21 91 34 78 4 -3 14 -30 24 -59 22 -69 47 -82
37 -19 -9 55 -29 95 -54 109 -24 13 -28 13 -36 0z"/>
<path d="M7305 6450 c-4 -6 -4 -37 1 -68 4 -31 6 -63 5 -69 -1 -7 5 -13 14
-13 13 0 15 12 12 77 -3 72 -16 99 -32 73z"/>
<path d="M10545 6437 c-3 -7 -5 -47 -3 -88 2 -56 7 -74 18 -77 12 -2 15 12 14
85 -1 54 -6 89 -13 91 -6 2 -13 -3 -16 -11z"/>
<path d="M13412 6168 c4 -30 43 -33 43 -3 0 13 -8 21 -23 23 -20 3 -23 0 -20
-20z"/>
</g>
</svg>
